<?xml version="1.0" encoding="UTF-8" ?>
<!DOCTYPE svg PUBLIC "-//W3C//DTD SVG 1.1//EN" "http://www.w3.org/Graphics/SVG/1.1/DTD/svg11.dtd">
<svg width="117px" height="140px" viewBox="0 0 117 140" version="1.1" xmlns="http://www.w3.org/2000/svg">
<g id="#000000ff">
<path fill="#000000" opacity="1.00" d=" M 0.00 0.00 L 117.00 0.00 L 117.00 140.00 L 0.00 140.00 L 0.00 0.00 M 33.13 10.24 C 17.90 11.81 5.20 25.64 5.03 40.97 C 4.96 59.98 5.02 78.99 5.00 98.00 C 4.88 109.56 11.67 120.83 21.90 126.19 C 26.81 128.88 32.42 130.11 38.00 130.02 C 53.02 129.92 68.04 130.13 83.05 129.91 C 98.98 129.27 112.82 115.01 112.97 99.07 C 113.05 80.04 112.98 61.00 113.00 41.97 C 113.04 33.34 109.35 24.80 103.08 18.88 C 96.99 12.95 88.44 9.77 79.96 9.98 C 64.35 10.17 48.72 9.68 33.13 10.24 Z" />
<path fill="#000000" opacity="1.00" d=" M 33.23 12.34 C 48.47 11.71 63.75 12.26 79.01 12.06 C 85.36 11.88 91.85 13.28 97.18 16.86 C 105.64 22.16 111.03 32.02 110.91 42.00 C 110.96 60.33 110.92 78.66 110.93 96.99 C 111.33 107.57 105.68 118.18 96.53 123.55 C 91.61 126.65 85.76 128.00 79.98 127.93 C 65.66 127.92 51.33 127.95 37.01 127.91 C 26.28 128.02 15.74 121.81 10.75 112.30 C 8.08 107.66 6.97 102.27 7.07 96.95 C 7.10 78.30 7.00 59.65 7.12 41.00 C 7.26 26.76 19.07 13.81 33.23 12.34 M 71.13 38.07 C 70.20 40.95 69.82 43.97 69.98 47.00 C 67.98 47.00 65.99 47.00 64.00 47.00 C 64.00 47.75 64.00 49.25 64.00 50.00 C 65.98 50.00 67.96 50.00 69.94 50.00 C 69.87 52.69 70.33 55.35 71.13 57.92 C 73.70 58.86 76.61 58.68 78.54 56.54 C 81.26 53.84 86.02 52.32 86.47 48.02 C 86.05 43.66 81.20 42.14 78.47 39.40 C 76.57 37.25 73.67 37.19 71.13 38.07 M 42.00 47.00 C 42.00 47.75 42.00 49.25 42.00 50.00 C 45.33 50.00 48.67 50.00 52.00 50.00 C 52.00 49.25 52.00 47.75 52.00 47.00 C 48.67 47.00 45.33 47.00 42.00 47.00 M 53.00 47.00 C 53.00 47.75 53.00 49.25 53.00 50.00 C 53.75 50.00 55.25 50.00 56.00 50.00 C 56.00 49.25 56.00 47.75 56.00 47.00 C 55.25 47.00 53.75 47.00 53.00 47.00 M 57.00 47.00 C 57.00 47.75 57.00 49.25 57.00 50.00 C 59.00 50.00 61.00 50.00 63.00 50.00 C 63.00 49.25 63.00 47.75 63.00 47.00 C 61.00 47.00 59.00 47.00 57.00 47.00 M 57.83 77.35 C 52.39 77.42 46.95 77.39 41.52 77.37 C 41.55 75.67 41.61 73.98 41.66 72.28 C 41.01 72.25 39.72 72.18 39.07 72.15 C 39.07 74.13 38.89 76.13 39.21 78.10 C 40.11 80.49 42.96 79.87 44.96 79.96 C 55.62 79.82 66.28 80.12 76.93 79.82 C 80.06 78.69 78.71 74.63 78.88 72.10 C 78.25 72.16 76.98 72.26 76.34 72.31 C 76.38 73.99 76.44 75.68 76.49 77.37 C 71.05 77.39 65.61 77.42 60.18 77.35 C 60.30 75.23 60.37 73.08 59.97 70.98 C 56.39 70.94 58.04 75.14 57.83 77.35 Z" />
<path fill="#000000" opacity="1.00" d=" M 75.00 41.81 C 77.67 43.86 80.33 45.93 82.99 48.00 C 80.33 50.07 77.67 52.14 75.00 54.19 C 75.00 50.06 75.00 45.94 75.00 41.81 Z" />
</g>
<g id="#737473ff">
<path fill="#737473" opacity="1.00" d=" M 33.13 10.24 C 48.72 9.68 64.35 10.17 79.96 9.98 C 88.44 9.77 96.99 12.95 103.08 18.88 C 109.35 24.80 113.04 33.34 113.00 41.97 C 112.98 61.00 113.05 80.04 112.97 99.07 C 112.82 115.01 98.98 129.27 83.05 129.91 C 68.04 130.13 53.02 129.92 38.00 130.02 C 32.42 130.11 26.81 128.88 21.90 126.19 C 11.67 120.83 4.88 109.56 5.00 98.00 C 5.02 78.99 4.96 59.98 5.03 40.97 C 5.20 25.64 17.90 11.81 33.13 10.24 M 33.23 12.34 C 19.07 13.81 7.26 26.76 7.12 41.00 C 7.00 59.65 7.10 78.30 7.07 96.95 C 6.97 102.27 8.08 107.66 10.75 112.30 C 15.74 121.81 26.28 128.02 37.01 127.91 C 51.33 127.95 65.66 127.92 79.98 127.93 C 85.76 128.00 91.61 126.65 96.53 123.55 C 105.68 118.18 111.33 107.57 110.93 96.99 C 110.92 78.66 110.96 60.33 110.91 42.00 C 111.03 32.02 105.64 22.16 97.18 16.86 C 91.85 13.28 85.36 11.88 79.01 12.06 C 63.75 12.26 48.47 11.71 33.23 12.34 Z" />
</g>
<g id="#f8fcf8ff">
<path fill="#f8fcf8" opacity="1.00" d=" M 71.13 38.07 C 73.67 37.19 76.57 37.25 78.47 39.40 C 81.20 42.14 86.05 43.66 86.47 48.02 C 86.02 52.32 81.26 53.84 78.54 56.54 C 76.61 58.68 73.70 58.86 71.13 57.92 C 70.33 55.35 69.87 52.69 69.94 50.00 C 67.96 50.00 65.98 50.00 64.00 50.00 C 64.00 49.25 64.00 47.75 64.00 47.00 C 65.99 47.00 67.98 47.00 69.98 47.00 C 69.82 43.97 70.20 40.95 71.13 38.07 M 75.00 41.81 C 75.00 45.94 75.00 50.06 75.00 54.19 C 77.67 52.14 80.33 50.07 82.99 48.00 C 80.33 45.93 77.67 43.86 75.00 41.81 Z" />
<path fill="#f8fcf8" opacity="1.00" d=" M 42.00 47.00 C 45.33 47.00 48.67 47.00 52.00 47.00 C 52.00 47.75 52.00 49.25 52.00 50.00 C 48.67 50.00 45.33 50.00 42.00 50.00 C 42.00 49.25 42.00 47.75 42.00 47.00 Z" />
<path fill="#f8fcf8" opacity="1.00" d=" M 53.00 47.00 C 53.75 47.00 55.25 47.00 56.00 47.00 C 56.00 47.75 56.00 49.25 56.00 50.00 C 55.25 50.00 53.75 50.00 53.00 50.00 C 53.00 49.25 53.00 47.75 53.00 47.00 Z" />
<path fill="#f8fcf8" opacity="1.00" d=" M 57.00 47.00 C 59.00 47.00 61.00 47.00 63.00 47.00 C 63.00 47.75 63.00 49.25 63.00 50.00 C 61.00 50.00 59.00 50.00 57.00 50.00 C 57.00 49.25 57.00 47.75 57.00 47.00 Z" />
<path fill="#f8fcf8" opacity="1.00" d=" M 57.83 77.35 C 58.04 75.14 56.39 70.94 59.97 70.98 C 60.37 73.08 60.30 75.23 60.18 77.35 C 65.61 77.42 71.05 77.39 76.49 77.37 C 76.44 75.68 76.38 73.99 76.34 72.31 C 76.98 72.26 78.25 72.16 78.88 72.10 C 78.71 74.63 80.06 78.69 76.93 79.82 C 66.28 80.12 55.62 79.82 44.96 79.96 C 42.96 79.87 40.11 80.49 39.21 78.10 C 38.89 76.13 39.07 74.13 39.07 72.15 C 39.72 72.18 41.01 72.25 41.66 72.28 C 41.61 73.98 41.55 75.67 41.52 77.37 C 46.95 77.39 52.39 77.42 57.83 77.35 Z" />
</g>
</svg>
