<?xml version="1.0" encoding="UTF-8" ?>
<!DOCTYPE svg PUBLIC "-//W3C//DTD SVG 1.1//EN" "http://www.w3.org/Graphics/SVG/1.1/DTD/svg11.dtd">
<svg width="117px" height="140px" viewBox="0 0 117 140" version="1.1" xmlns="http://www.w3.org/2000/svg">
<g id="#000000ff">
<path fill="#000000" opacity="1.00" d=" M 0.00 0.00 L 117.00 0.00 L 117.00 140.00 L 0.00 140.00 L 0.00 0.00 M 29.35 10.48 C 15.66 13.30 4.45 25.87 4.00 39.95 C 3.98 59.31 4.04 78.66 3.97 98.02 C 3.19 115.86 20.22 131.82 37.98 130.02 C 52.98 129.97 67.99 130.02 82.99 130.00 C 98.93 129.39 112.83 115.02 112.97 99.06 C 113.02 79.71 113.02 60.35 112.97 40.99 C 112.85 25.03 98.98 10.65 83.05 10.00 C 67.02 9.98 50.99 10.03 34.96 9.97 C 33.08 9.99 31.19 10.06 29.35 10.48 Z" />
<path fill="#000000" opacity="1.00" d=" M 35.14 12.24 C 48.73 11.83 62.35 12.21 75.95 12.05 C 82.86 11.93 90.08 12.97 95.96 16.86 C 104.86 22.25 110.03 32.65 109.98 42.94 C 110.04 60.28 109.96 77.62 110.02 94.96 C 110.58 106.15 105.31 117.83 95.39 123.49 C 89.92 126.97 83.32 127.92 76.94 127.94 C 64.31 127.92 51.67 127.93 39.03 127.94 C 32.69 127.94 26.20 126.66 20.85 123.11 C 12.33 117.87 7.01 107.95 7.09 97.97 C 7.08 78.99 7.01 60.01 7.13 41.03 C 7.22 26.06 20.21 12.81 35.14 12.24 M 44.72 28.06 C 44.69 33.82 44.67 39.59 44.74 45.35 C 42.38 45.33 40.01 45.34 37.65 45.35 C 38.30 50.24 37.76 55.18 38.18 60.08 C 40.34 63.28 44.93 61.49 48.15 61.89 C 51.07 64.64 53.76 67.65 56.89 70.17 C 53.30 70.04 49.71 70.06 46.12 70.12 C 46.11 72.84 46.10 75.56 46.09 78.27 C 54.37 78.26 62.65 78.25 70.94 78.28 C 70.84 77.56 70.65 76.12 70.55 75.40 C 63.44 75.23 56.32 75.36 49.20 75.31 C 49.23 74.82 49.29 73.83 49.32 73.34 C 52.77 73.35 56.22 73.35 59.67 73.35 C 60.37 68.15 65.77 65.64 68.86 61.88 C 72.06 61.49 76.72 63.30 78.82 60.05 C 79.24 55.16 78.70 50.23 79.35 45.35 C 76.99 45.34 74.62 45.33 72.26 45.35 C 72.33 39.59 72.31 33.82 72.28 28.06 C 63.10 28.01 53.91 28.01 44.72 28.06 Z" />
<path fill="#000000" opacity="1.00" d=" M 47.96 31.35 C 54.99 31.35 62.01 31.34 69.04 31.35 C 69.07 37.12 69.06 42.89 69.04 48.66 C 71.26 48.68 73.49 48.67 75.72 48.68 C 75.59 52.02 75.59 55.36 75.69 58.69 C 64.23 58.62 52.77 58.63 41.31 58.69 C 41.41 55.35 41.41 52.00 41.28 48.66 C 48.04 48.67 54.81 48.70 61.57 48.67 C 61.58 47.56 61.58 46.44 61.58 45.33 C 57.03 45.31 52.49 45.31 47.95 45.33 C 47.95 43.78 47.95 42.22 47.95 40.67 C 52.49 40.69 57.03 40.69 61.57 40.67 C 61.58 39.56 61.58 38.44 61.58 37.33 C 57.03 37.31 52.49 37.31 47.95 37.33 C 47.95 35.34 47.95 33.35 47.96 31.35 Z" />
<path fill="#000000" opacity="1.00" d=" M 53.21 62.21 C 56.63 61.87 60.08 61.84 63.50 62.19 C 61.94 63.68 60.43 65.22 58.75 66.58 C 56.63 65.51 54.99 63.73 53.21 62.21 Z" />
</g>
<g id="#707470ff">
<path fill="#707470" opacity="1.00" d=" M 29.35 10.48 C 31.19 10.06 33.08 9.99 34.96 9.97 C 50.99 10.03 67.02 9.98 83.05 10.00 C 98.98 10.65 112.85 25.03 112.97 40.99 C 113.02 60.35 113.02 79.71 112.97 99.06 C 112.83 115.02 98.93 129.39 82.99 130.00 C 67.99 130.02 52.98 129.97 37.98 130.02 C 20.22 131.82 3.19 115.86 3.97 98.02 C 4.04 78.66 3.98 59.31 4.00 39.95 C 4.45 25.87 15.66 13.30 29.35 10.48 M 35.14 12.24 C 20.21 12.81 7.22 26.06 7.13 41.03 C 7.01 60.01 7.08 78.99 7.09 97.97 C 7.01 107.95 12.33 117.87 20.85 123.11 C 26.20 126.66 32.69 127.94 39.03 127.94 C 51.67 127.93 64.31 127.92 76.94 127.94 C 83.32 127.92 89.92 126.97 95.39 123.49 C 105.31 117.83 110.58 106.15 110.02 94.96 C 109.96 77.62 110.04 60.28 109.98 42.94 C 110.03 32.65 104.86 22.25 95.96 16.86 C 90.08 12.97 82.86 11.93 75.95 12.05 C 62.35 12.21 48.73 11.83 35.14 12.24 Z" />
<path fill="#707470" opacity="1.00" d=" M 52.50 61.57 C 52.67 61.73 53.03 62.05 53.21 62.21 C 54.99 63.73 56.63 65.51 58.75 66.58 C 60.43 65.22 61.94 63.68 63.50 62.19 L 64.37 61.37 C 62.82 63.45 61.16 65.58 58.86 66.86 C 56.04 66.38 54.49 63.37 52.50 61.57 Z" />
</g>
<g id="#e86010ff">
<path fill="#e86010" opacity="1.00" d=" M 44.72 28.06 C 53.91 28.01 63.10 28.01 72.28 28.06 C 72.31 33.82 72.33 39.59 72.26 45.35 C 74.62 45.33 76.99 45.34 79.35 45.35 C 78.70 50.23 79.24 55.16 78.82 60.05 C 76.72 63.30 72.06 61.49 68.86 61.88 C 65.77 65.64 60.37 68.15 59.67 73.35 C 56.22 73.35 52.77 73.35 49.32 73.34 C 49.29 73.83 49.23 74.82 49.20 75.31 C 56.32 75.36 63.44 75.23 70.55 75.40 C 70.65 76.12 70.84 77.56 70.94 78.28 C 62.65 78.25 54.37 78.26 46.09 78.27 C 46.10 75.56 46.11 72.84 46.12 70.12 C 49.71 70.06 53.30 70.04 56.89 70.17 C 53.76 67.65 51.07 64.64 48.15 61.89 C 44.93 61.49 40.34 63.28 38.18 60.08 C 37.76 55.18 38.30 50.24 37.65 45.35 C 40.01 45.34 42.38 45.33 44.74 45.35 C 44.67 39.59 44.69 33.82 44.72 28.06 M 47.96 31.35 C 47.95 33.35 47.95 35.34 47.95 37.33 C 52.49 37.31 57.03 37.31 61.58 37.33 C 61.58 38.44 61.58 39.56 61.57 40.67 C 57.03 40.69 52.49 40.69 47.95 40.67 C 47.95 42.22 47.95 43.78 47.95 45.33 C 52.49 45.31 57.03 45.31 61.58 45.33 C 61.58 46.44 61.58 47.56 61.57 48.67 C 54.81 48.70 48.04 48.67 41.28 48.66 C 41.41 52.00 41.41 55.35 41.31 58.69 C 52.77 58.63 64.23 58.62 75.69 58.69 C 75.59 55.36 75.59 52.02 75.72 48.68 C 73.49 48.67 71.26 48.68 69.04 48.66 C 69.06 42.89 69.07 37.12 69.04 31.35 C 62.01 31.34 54.99 31.35 47.96 31.35 M 52.50 61.57 C 54.49 63.37 56.04 66.38 58.86 66.86 C 61.16 65.58 62.82 63.45 64.37 61.37 L 63.50 62.19 C 60.08 61.84 56.63 61.87 53.21 62.21 C 53.03 62.05 52.67 61.73 52.50 61.57 Z" />
</g>
</svg>
