<?xml version="1.0" encoding="UTF-8" ?>
<!DOCTYPE svg PUBLIC "-//W3C//DTD SVG 1.1//EN" "http://www.w3.org/Graphics/SVG/1.1/DTD/svg11.dtd">
<svg width="117px" height="140px" viewBox="0 0 117 140" version="1.1" xmlns="http://www.w3.org/2000/svg">
<g id="#181818ff">
<path fill="#181818" opacity="1.00" d=" M 0.00 0.00 L 117.00 0.00 L 117.00 140.00 L 0.00 140.00 L 0.00 0.00 M 41.15 53.21 C 38.99 54.34 38.60 57.71 40.49 59.26 C 42.14 61.11 45.33 60.78 46.52 58.59 C 49.16 55.48 44.26 50.57 41.15 53.21 M 56.43 53.55 C 54.33 55.16 54.73 58.54 56.93 59.86 C 59.49 61.83 63.40 59.08 62.95 56.04 C 62.64 53.08 58.57 51.17 56.43 53.55 M 72.52 53.30 C 70.26 54.70 70.17 58.08 72.37 59.57 C 74.71 61.95 79.20 59.32 78.69 56.14 C 78.58 53.34 74.67 51.30 72.52 53.30 Z" />
</g>
<g id="#f8fcf8ff">
<path fill="#f8fcf8" opacity="1.00" d=" M 41.15 53.21 C 44.26 50.57 49.16 55.48 46.52 58.59 C 45.33 60.78 42.14 61.11 40.49 59.26 C 38.60 57.71 38.99 54.34 41.15 53.21 Z" />
<path fill="#f8fcf8" opacity="1.00" d=" M 56.43 53.55 C 58.57 51.17 62.64 53.08 62.95 56.04 C 63.40 59.08 59.49 61.83 56.93 59.86 C 54.73 58.54 54.33 55.16 56.43 53.55 Z" />
<path fill="#f8fcf8" opacity="1.00" d=" M 72.52 53.30 C 74.67 51.30 78.58 53.34 78.69 56.14 C 79.20 59.32 74.71 61.95 72.37 59.57 C 70.17 58.08 70.26 54.70 72.52 53.30 Z" />
</g>
</svg>
