<?xml version="1.0" encoding="UTF-8" ?>
<!DOCTYPE svg PUBLIC "-//W3C//DTD SVG 1.1//EN" "http://www.w3.org/Graphics/SVG/1.1/DTD/svg11.dtd">
<svg width="117px" height="140px" viewBox="0 0 117 140" version="1.1" xmlns="http://www.w3.org/2000/svg">
<g id="#000000ff">
<path fill="#000000" opacity="1.00" d=" M 0.00 0.00 L 117.00 0.00 L 117.00 140.00 L 0.00 140.00 L 0.00 0.00 M 33.19 10.22 C 17.95 11.77 5.22 25.59 5.02 40.92 C 4.98 60.29 4.99 79.66 5.02 99.03 C 5.17 114.97 18.97 129.25 34.90 129.92 C 50.62 130.09 66.36 129.99 82.08 129.96 C 98.38 129.83 112.84 115.36 112.97 99.07 C 113.03 79.69 113.02 60.32 112.97 40.95 C 112.77 27.72 103.32 15.36 90.69 11.51 C 84.03 9.25 76.92 10.18 70.02 10.00 C 57.75 10.15 45.45 9.70 33.19 10.22 Z" />
<path fill="#000000" opacity="1.00" d=" M 33.27 12.34 C 48.50 11.72 63.76 12.25 79.00 12.06 C 85.36 11.88 91.85 13.29 97.18 16.87 C 105.63 22.16 111.01 32.01 110.90 41.99 C 110.95 60.69 110.95 79.39 110.90 98.08 C 111.00 108.77 104.78 119.25 95.32 124.24 C 90.69 126.89 85.31 127.96 80.02 127.93 C 65.67 127.92 51.32 127.96 36.97 127.91 C 26.26 127.99 15.74 121.80 10.75 112.30 C 8.10 107.67 6.98 102.29 7.07 96.98 C 7.11 78.29 6.99 59.60 7.13 40.91 C 7.31 26.69 19.12 13.79 33.27 12.34 M 48.24 31.44 C 49.57 34.88 50.88 38.32 52.28 41.74 C 56.46 39.40 61.57 39.52 65.78 41.69 C 67.10 38.27 68.44 34.86 69.76 31.44 C 63.02 28.22 54.98 28.19 48.24 31.44 M 35.86 53.67 C 36.35 53.51 37.31 53.21 37.79 53.06 C 38.52 47.94 40.31 42.74 44.17 39.12 C 45.41 37.90 47.47 36.94 46.89 34.83 C 39.93 38.25 36.35 46.22 35.86 53.67 M 71.05 34.87 C 70.75 36.38 71.69 37.45 72.84 38.25 C 77.32 41.84 79.47 47.49 80.18 53.04 C 80.66 53.19 81.64 53.49 82.13 53.64 C 81.63 46.22 78.08 38.15 71.05 34.87 M 42.08 52.82 C 42.56 52.63 43.53 52.26 44.01 52.08 C 44.62 49.83 45.12 47.45 46.63 45.60 C 47.75 43.99 49.60 42.56 48.98 40.34 C 44.94 43.20 42.37 47.88 42.08 52.82 M 69.02 40.34 C 68.42 42.53 70.22 43.96 71.34 45.55 C 72.84 47.41 73.38 49.79 73.99 52.05 C 74.45 52.25 75.38 52.67 75.84 52.88 C 75.75 47.90 73.02 43.22 69.02 40.34 M 55.28 47.26 C 50.43 49.64 50.33 57.34 55.09 59.85 C 59.55 62.80 66.38 59.46 66.46 54.02 C 67.04 48.35 60.02 44.28 55.28 47.26 M 73.08 55.12 C 72.84 59.85 70.28 64.16 66.23 66.61 C 68.63 69.43 70.97 72.30 73.37 75.12 C 79.55 71.09 83.56 64.22 84.14 56.87 C 80.45 56.29 76.77 55.72 73.08 55.12 M 33.86 56.87 C 34.44 64.22 38.45 71.09 44.63 75.12 C 47.03 72.30 49.37 69.44 51.76 66.61 C 47.74 64.14 45.14 59.86 44.90 55.13 C 41.22 55.72 37.54 56.29 33.86 56.87 M 52.83 69.91 C 56.83 71.34 61.18 71.27 65.20 69.94 C 63.97 67.27 61.13 69.17 58.97 69.01 C 56.86 69.16 54.05 67.30 52.83 69.91 M 48.63 74.09 C 54.59 78.02 63.49 78.16 69.36 74.01 C 68.21 73.56 66.99 73.33 65.83 73.85 C 61.41 75.38 56.54 75.38 52.13 73.83 C 50.97 73.28 49.75 73.57 48.63 74.09 Z" />
</g>
<g id="#727372ff">
<path fill="#727372" opacity="1.00" d=" M 33.19 10.22 C 45.45 9.70 57.75 10.15 70.02 10.00 C 76.92 10.18 84.03 9.25 90.69 11.51 C 103.32 15.36 112.77 27.72 112.97 40.95 C 113.02 60.32 113.03 79.69 112.97 99.07 C 112.84 115.36 98.38 129.83 82.08 129.96 C 66.36 129.99 50.62 130.09 34.90 129.92 C 18.97 129.25 5.17 114.97 5.02 99.03 C 4.99 79.66 4.98 60.29 5.02 40.92 C 5.22 25.59 17.95 11.77 33.19 10.22 M 33.27 12.34 C 19.12 13.79 7.31 26.69 7.13 40.91 C 6.99 59.60 7.11 78.29 7.07 96.98 C 6.98 102.29 8.10 107.67 10.75 112.30 C 15.74 121.80 26.26 127.99 36.97 127.91 C 51.32 127.96 65.67 127.92 80.02 127.93 C 85.31 127.96 90.69 126.89 95.32 124.24 C 104.78 119.25 111.00 108.77 110.90 98.08 C 110.95 79.39 110.95 60.69 110.90 41.99 C 111.01 32.01 105.63 22.16 97.18 16.87 C 91.85 13.29 85.36 11.88 79.00 12.06 C 63.76 12.25 48.50 11.72 33.27 12.34 Z" />
</g>
<g id="#f8fcf8ff">
<path fill="#f8fcf8" opacity="1.00" d=" M 48.24 31.44 C 54.98 28.19 63.02 28.22 69.76 31.44 C 68.44 34.86 67.10 38.27 65.78 41.69 C 61.57 39.52 56.46 39.40 52.28 41.74 C 50.88 38.32 49.57 34.88 48.24 31.44 Z" />
<path fill="#f8fcf8" opacity="1.00" d=" M 35.86 53.67 C 36.35 46.22 39.93 38.25 46.89 34.83 C 47.47 36.94 45.41 37.90 44.17 39.12 C 40.31 42.74 38.52 47.94 37.79 53.06 C 37.31 53.21 36.35 53.51 35.86 53.67 Z" />
<path fill="#f8fcf8" opacity="1.00" d=" M 71.05 34.87 C 78.08 38.15 81.63 46.22 82.13 53.64 C 81.64 53.49 80.66 53.19 80.18 53.04 C 79.47 47.49 77.32 41.84 72.84 38.25 C 71.69 37.45 70.75 36.38 71.05 34.87 Z" />
<path fill="#f8fcf8" opacity="1.00" d=" M 42.08 52.82 C 42.37 47.88 44.94 43.20 48.98 40.34 C 49.60 42.56 47.75 43.99 46.63 45.60 C 45.12 47.45 44.62 49.83 44.01 52.08 C 43.53 52.26 42.56 52.63 42.08 52.82 Z" />
<path fill="#f8fcf8" opacity="1.00" d=" M 69.02 40.34 C 73.02 43.22 75.75 47.90 75.84 52.88 C 75.38 52.67 74.45 52.25 73.99 52.05 C 73.38 49.79 72.84 47.41 71.34 45.55 C 70.22 43.96 68.42 42.53 69.02 40.34 Z" />
<path fill="#f8fcf8" opacity="1.00" d=" M 55.28 47.26 C 60.02 44.28 67.04 48.35 66.46 54.02 C 66.38 59.46 59.55 62.80 55.09 59.85 C 50.33 57.34 50.43 49.64 55.28 47.26 Z" />
<path fill="#f8fcf8" opacity="1.00" d=" M 73.08 55.12 C 76.77 55.72 80.45 56.29 84.14 56.87 C 83.56 64.22 79.55 71.09 73.37 75.12 C 70.97 72.30 68.63 69.43 66.23 66.61 C 70.28 64.16 72.84 59.85 73.08 55.12 Z" />
<path fill="#f8fcf8" opacity="1.00" d=" M 33.86 56.87 C 37.54 56.29 41.22 55.72 44.90 55.13 C 45.14 59.86 47.74 64.14 51.76 66.61 C 49.37 69.44 47.03 72.30 44.63 75.12 C 38.45 71.09 34.44 64.22 33.86 56.87 Z" />
<path fill="#f8fcf8" opacity="1.00" d=" M 52.83 69.91 C 54.05 67.30 56.86 69.16 58.97 69.01 C 61.13 69.17 63.97 67.27 65.20 69.94 C 61.18 71.27 56.83 71.34 52.83 69.91 Z" />
<path fill="#f8fcf8" opacity="1.00" d=" M 48.63 74.09 C 49.75 73.57 50.97 73.28 52.13 73.83 C 56.54 75.38 61.41 75.38 65.83 73.85 C 66.99 73.33 68.21 73.56 69.36 74.01 C 63.49 78.16 54.59 78.02 48.63 74.09 Z" />
</g>
</svg>
