<?xml version="1.0" encoding="UTF-8" ?>
<!DOCTYPE svg PUBLIC "-//W3C//DTD SVG 1.1//EN" "http://www.w3.org/Graphics/SVG/1.1/DTD/svg11.dtd">
<svg width="117px" height="140px" viewBox="0 0 117 140" version="1.1" xmlns="http://www.w3.org/2000/svg">
<g id="#000000ff">
<path fill="#000000" opacity="1.00" d=" M 0.00 0.00 L 117.00 0.00 L 117.00 140.00 L 0.00 140.00 L 0.00 0.00 M 46.66 42.00 C 46.55 50.67 46.56 59.33 46.66 68.00 C 49.55 68.00 52.45 68.00 55.35 68.00 C 55.44 59.33 55.45 50.67 55.34 42.00 C 52.45 42.00 49.55 42.00 46.66 42.00 M 61.23 43.17 C 61.18 45.09 61.14 47.02 61.09 48.94 C 60.39 49.05 58.98 49.27 58.27 49.39 C 58.30 50.77 58.32 52.15 58.32 53.53 C 59.02 53.61 60.43 53.76 61.14 53.84 C 61.14 57.21 61.04 60.59 61.24 63.95 C 61.39 65.18 61.45 66.65 62.65 67.36 C 65.78 68.34 69.13 67.94 72.37 68.05 C 72.34 66.30 72.35 64.54 72.37 62.79 C 71.52 62.73 69.81 62.60 68.95 62.54 C 68.90 59.53 68.87 56.52 68.93 53.51 C 69.88 53.46 71.76 53.35 72.71 53.30 C 72.66 50.85 71.65 48.71 68.96 48.56 C 68.86 46.76 68.84 44.96 68.75 43.17 C 66.24 43.17 63.73 43.17 61.23 43.17 Z" />
</g>
<g id="#6a6d6aff">
<path fill="#6a6d6a" opacity="1.00" d=" M 33.15 10.22 C 48.75 9.69 64.39 10.17 80.01 9.98 C 89.65 9.69 99.33 13.96 105.49 21.41 C 110.57 27.37 113.24 35.23 113.02 43.04 C 112.92 62.06 113.13 81.08 112.92 100.10 C 112.28 116.05 97.98 129.85 82.03 129.97 C 66.64 130.03 51.25 130.01 35.87 129.98 C 19.59 129.79 5.16 115.37 5.02 99.09 C 4.98 79.71 4.98 60.33 5.02 40.96 C 5.17 25.62 17.91 11.78 33.15 10.22 M 33.18 12.26 C 19.00 13.81 7.16 26.74 7.04 41.04 C 6.98 60.37 6.97 79.71 7.04 99.05 C 7.17 113.93 20.10 127.24 34.94 127.91 C 47.29 128.12 59.64 127.94 71.99 128.00 C 78.63 127.90 85.56 128.62 91.84 125.97 C 103.10 121.69 111.22 110.13 110.98 98.02 C 110.99 79.00 111.05 59.98 110.95 40.96 C 110.85 25.72 97.29 12.20 82.06 12.05 C 65.77 12.09 49.45 11.71 33.18 12.26 Z" />
</g>
<g id="#f8fcf8ff">
<path fill="#f8fcf8" opacity="1.00" d=" M 46.66 42.00 C 49.55 42.00 52.45 42.00 55.34 42.00 C 55.45 50.67 55.44 59.33 55.35 68.00 C 52.45 68.00 49.55 68.00 46.66 68.00 C 46.56 59.33 46.55 50.67 46.66 42.00 Z" />
<path fill="#f8fcf8" opacity="1.00" d=" M 61.23 43.17 C 63.73 43.17 66.24 43.17 68.75 43.17 C 68.84 44.96 68.86 46.76 68.96 48.56 C 71.65 48.71 72.66 50.85 72.71 53.30 C 71.76 53.35 69.88 53.46 68.93 53.51 C 68.87 56.52 68.90 59.53 68.95 62.54 C 69.81 62.60 71.52 62.73 72.37 62.79 C 72.35 64.54 72.34 66.30 72.37 68.05 C 69.13 67.94 65.78 68.34 62.65 67.36 C 61.45 66.65 61.39 65.18 61.24 63.95 C 61.04 60.59 61.14 57.21 61.14 53.84 C 60.43 53.76 59.02 53.61 58.32 53.53 C 58.32 52.15 58.30 50.77 58.27 49.39 C 58.98 49.27 60.39 49.05 61.09 48.94 C 61.14 47.02 61.18 45.09 61.23 43.17 Z" />
</g>
</svg>
