<?xml version="1.0" encoding="UTF-8" ?>
<!DOCTYPE svg PUBLIC "-//W3C//DTD SVG 1.1//EN" "http://www.w3.org/Graphics/SVG/1.1/DTD/svg11.dtd">
<svg width="117px" height="140px" viewBox="0 0 117 140" version="1.1" xmlns="http://www.w3.org/2000/svg">
<g id="#000000ff">
<path fill="#000000" opacity="1.00" d=" M 0.00 0.00 L 117.00 0.00 L 117.00 140.00 L 0.00 140.00 L 0.00 0.00 M 23.09 12.94 C 16.10 16.43 10.43 22.10 6.96 29.10 C 5.60 33.27 4.23 37.54 4.37 41.99 C 4.38 60.68 4.38 79.36 4.37 98.05 C 4.24 102.48 5.63 106.74 6.96 110.90 C 10.43 117.89 16.10 123.56 23.08 127.06 C 27.26 128.39 31.54 129.75 35.99 129.62 C 50.68 129.61 65.37 129.63 80.06 129.61 C 84.49 129.72 88.75 128.39 92.92 127.05 C 99.89 123.56 105.60 117.92 109.03 110.89 C 109.68 108.68 110.40 106.49 111.17 104.32 C 111.51 101.23 111.65 98.12 111.64 95.00 C 111.59 77.34 111.63 59.67 111.62 42.00 C 111.74 37.55 110.50 33.24 108.98 29.12 C 108.09 27.56 107.21 25.99 106.37 24.41 C 102.87 19.54 98.21 15.71 92.91 12.94 C 88.72 11.60 84.44 10.25 79.99 10.38 C 65.33 10.38 50.68 10.38 36.02 10.38 C 31.57 10.25 27.28 11.61 23.09 12.94 Z" />
<path fill="#000000" opacity="1.00" d=" M 26.86 12.73 C 29.89 12.20 32.92 11.53 36.02 11.60 C 50.68 11.63 65.34 11.62 80.00 11.60 C 83.23 11.54 86.39 12.25 89.57 12.74 L 89.57 13.11 C 98.89 16.10 105.86 23.84 109.30 32.84 C 109.77 35.53 110.43 38.22 110.40 40.97 C 110.36 61.67 110.39 82.37 110.38 103.06 C 107.83 113.79 100.33 123.45 89.61 126.89 L 89.52 127.26 C 86.36 127.76 83.21 128.45 80.00 128.40 C 65.32 128.37 50.64 128.37 35.96 128.40 C 32.74 128.45 29.60 127.75 26.45 127.26 L 26.41 126.89 C 19.91 124.62 14.13 120.29 10.43 114.45 C 8.10 110.97 6.94 106.91 5.62 102.99 C 5.62 80.98 5.61 58.97 5.62 36.96 C 7.54 30.25 10.56 23.61 16.04 19.06 C 19.18 16.23 23.06 14.47 26.86 12.73 M 41.59 42.00 C 41.59 50.67 41.59 59.33 41.59 68.00 C 44.40 68.00 47.20 68.00 50.00 68.00 C 50.00 64.94 50.00 61.88 50.00 58.83 C 53.21 58.82 56.43 58.83 59.64 58.83 C 59.62 56.75 59.60 54.67 59.59 52.59 C 56.39 52.59 53.20 52.59 50.00 52.60 C 50.01 51.20 50.01 49.79 50.02 48.39 C 53.96 48.41 57.90 48.41 61.84 48.40 C 61.83 46.27 61.83 44.13 61.82 42.00 C 55.08 42.00 48.34 42.00 41.59 42.00 M 64.60 49.16 C 64.59 55.44 64.59 61.72 64.59 68.00 C 67.27 68.00 69.94 68.00 72.61 68.00 C 72.67 64.72 72.27 61.37 73.01 58.15 C 74.07 55.97 76.64 56.13 78.67 55.94 C 78.63 53.26 78.57 50.58 78.38 47.90 C 75.75 48.59 73.35 49.87 71.53 51.93 C 71.63 51.25 71.83 49.88 71.93 49.20 C 69.48 49.18 67.04 49.17 64.60 49.16 Z" />
</g>
<g id="#e76011ff">
<path fill="#e76011" opacity="1.00" d=" M 23.09 12.94 C 27.28 11.61 31.57 10.25 36.02 10.38 C 50.68 10.38 65.33 10.38 79.99 10.38 C 84.44 10.25 88.72 11.60 92.91 12.94 C 98.21 15.71 102.87 19.54 106.37 24.41 C 107.21 25.99 108.09 27.56 108.98 29.12 C 110.50 33.24 111.74 37.55 111.62 42.00 C 111.63 59.67 111.59 77.34 111.64 95.00 C 111.65 98.12 111.51 101.23 111.17 104.32 C 110.40 106.49 109.68 108.68 109.03 110.89 C 105.60 117.92 99.89 123.56 92.92 127.05 C 88.75 128.39 84.49 129.72 80.06 129.61 C 65.37 129.63 50.68 129.61 35.99 129.62 C 31.54 129.75 27.26 128.39 23.08 127.06 C 16.10 123.56 10.43 117.89 6.96 110.90 C 5.63 106.74 4.24 102.48 4.37 98.05 C 4.38 79.36 4.38 60.68 4.37 41.99 C 4.23 37.54 5.60 33.27 6.96 29.10 C 10.43 22.10 16.10 16.43 23.09 12.94 M 26.86 12.73 C 23.06 14.47 19.18 16.23 16.04 19.06 C 10.56 23.61 7.54 30.25 5.62 36.96 C 5.61 58.97 5.62 80.98 5.62 102.99 C 6.94 106.91 8.10 110.97 10.43 114.45 C 14.13 120.29 19.91 124.62 26.41 126.89 L 26.45 127.26 C 29.60 127.75 32.74 128.45 35.96 128.40 C 50.64 128.37 65.32 128.37 80.00 128.40 C 83.21 128.45 86.36 127.76 89.52 127.26 L 89.61 126.89 C 100.33 123.45 107.83 113.79 110.38 103.06 C 110.39 82.37 110.36 61.67 110.40 40.97 C 110.43 38.22 109.77 35.53 109.30 32.84 C 105.86 23.84 98.89 16.10 89.57 13.11 L 89.57 12.74 C 86.39 12.25 83.23 11.54 80.00 11.60 C 65.34 11.62 50.68 11.63 36.02 11.60 C 32.92 11.53 29.89 12.20 26.86 12.73 Z" />
<path fill="#e76011" opacity="1.00" d=" M 41.59 42.00 C 48.34 42.00 55.08 42.00 61.82 42.00 C 61.83 44.13 61.83 46.27 61.84 48.40 C 57.90 48.41 53.96 48.41 50.02 48.39 C 50.01 49.79 50.01 51.20 50.00 52.60 C 53.20 52.59 56.39 52.59 59.59 52.59 C 59.60 54.67 59.62 56.75 59.64 58.83 C 56.43 58.83 53.21 58.82 50.00 58.83 C 50.00 61.88 50.00 64.94 50.00 68.00 C 47.20 68.00 44.40 68.00 41.59 68.00 C 41.59 59.33 41.59 50.67 41.59 42.00 Z" />
<path fill="#e76011" opacity="1.00" d=" M 64.60 49.16 C 67.04 49.17 69.48 49.18 71.93 49.20 C 71.83 49.88 71.63 51.25 71.53 51.93 C 73.35 49.87 75.75 48.59 78.38 47.90 C 78.57 50.58 78.63 53.26 78.67 55.94 C 76.64 56.13 74.07 55.97 73.01 58.15 C 72.27 61.37 72.67 64.72 72.61 68.00 C 69.94 68.00 67.27 68.00 64.59 68.00 C 64.59 61.72 64.59 55.44 64.60 49.16 Z" />
</g>
</svg>
