<?xml version="1.0" encoding="UTF-8" ?>
<!DOCTYPE svg PUBLIC "-//W3C//DTD SVG 1.1//EN" "http://www.w3.org/Graphics/SVG/1.1/DTD/svg11.dtd">
<svg width="90px" height="30px" viewBox="0 0 90 30" version="1.1" xmlns="http://www.w3.org/2000/svg">
<g id="#181818ff">
<path fill="#181818" opacity="1.00" d=" M 0.00 0.00 L 10.30 0.00 L 12.02 0.53 C 6.53 1.26 2.15 5.66 0.63 10.84 L 0.00 10.79 L 0.00 0.00 Z" />
<path fill="#181818" opacity="1.00" d=" M 77.73 0.00 L 90.00 0.00 L 90.00 12.92 L 89.45 12.34 C 88.02 13.94 88.52 16.86 90.00 18.33 L 90.00 18.86 C 88.00 18.67 87.66 21.37 86.63 22.60 C 85.10 25.74 81.65 26.94 79.06 28.83 C 84.50 28.92 87.38 23.10 90.00 19.36 L 90.00 30.00 L 78.37 30.00 C 78.12 29.75 77.62 29.25 77.36 29.00 C 56.90 28.99 36.43 29.01 15.97 29.00 C 11.74 29.12 7.40 27.55 4.59 24.30 C 0.59 19.96 -0.11 13.02 2.95 7.96 C 5.51 3.40 10.76 0.79 15.93 1.00 C 35.31 1.00 54.70 1.00 74.08 1.00 C 78.30 0.88 82.63 2.47 85.42 5.72 C 87.37 7.66 87.78 10.62 89.77 12.52 C 88.81 6.26 83.66 1.59 77.73 0.00 M 11.42 3.58 C 5.80 5.21 2.05 11.38 3.22 17.12 C 4.19 23.44 10.84 28.09 17.11 26.78 C 23.42 25.81 28.07 19.18 26.79 12.92 C 25.78 6.03 18.01 1.26 11.42 3.58 Z" />
<path fill="#181818" opacity="1.00" d=" M 0.00 19.59 L 0.58 18.21 C 1.41 24.28 6.75 28.46 12.35 30.00 L 0.00 30.00 L 0.00 19.59 Z" />
</g>
<g id="#f8fcf8ff">
<path fill="#f8fcf8" opacity="1.00" d=" M 10.30 0.00 L 77.73 0.00 C 83.66 1.59 88.81 6.26 89.77 12.52 C 87.78 10.62 87.37 7.66 85.42 5.72 C 82.63 2.47 78.30 0.88 74.08 1.00 C 54.70 1.00 35.31 1.00 15.93 1.00 C 10.76 0.79 5.51 3.40 2.95 7.96 C -0.11 13.02 0.59 19.96 4.59 24.30 C 7.40 27.55 11.74 29.12 15.97 29.00 C 36.43 29.01 56.90 28.99 77.36 29.00 C 77.62 29.25 78.12 29.75 78.37 30.00 L 12.35 30.00 C 6.75 28.46 1.41 24.28 0.58 18.21 L 0.00 19.59 L 0.00 10.79 L 0.63 10.84 C 2.15 5.66 6.53 1.26 12.02 0.53 L 10.30 0.00 Z" />
<path fill="#f8fcf8" opacity="1.00" d=" M 11.42 3.58 C 18.01 1.26 25.78 6.03 26.79 12.92 C 28.07 19.18 23.42 25.81 17.11 26.78 C 10.84 28.09 4.19 23.44 3.22 17.12 C 2.05 11.38 5.80 5.21 11.42 3.58 Z" />
<path fill="#f8fcf8" opacity="1.00" d=" M 89.45 12.34 L 90.00 12.92 L 90.00 18.33 C 88.52 16.86 88.02 13.94 89.45 12.34 Z" />
<path fill="#f8fcf8" opacity="1.00" d=" M 86.63 22.60 C 87.66 21.37 88.00 18.67 90.00 18.86 L 90.00 19.36 C 87.38 23.10 84.50 28.92 79.06 28.83 C 81.65 26.94 85.10 25.74 86.63 22.60 Z" />
</g>
</svg>
