<?xml version="1.0" encoding="UTF-8" ?>
<!DOCTYPE svg PUBLIC "-//W3C//DTD SVG 1.1//EN" "http://www.w3.org/Graphics/SVG/1.1/DTD/svg11.dtd">
<svg width="117px" height="140px" viewBox="0 0 117 140" version="1.1" xmlns="http://www.w3.org/2000/svg">
<g id="#000000ff">
<path fill="#000000" opacity="1.00" d=" M 0.00 0.00 L 117.00 0.00 L 117.00 140.00 L 0.00 140.00 L 0.00 0.00 M 33.22 10.23 C 17.97 11.76 5.21 25.58 5.03 40.92 C 4.98 60.30 4.98 79.69 5.03 99.06 C 5.19 115.01 19.00 129.26 34.93 129.92 C 50.32 130.11 65.71 129.95 81.09 130.00 C 92.87 130.08 104.31 123.01 109.53 112.46 C 112.58 106.84 113.25 100.33 113.02 94.04 C 112.97 76.68 113.02 59.32 113.00 41.96 C 113.09 31.15 107.17 20.56 97.98 14.90 C 92.37 11.31 85.63 9.75 79.01 9.98 C 63.75 10.18 48.47 9.68 33.22 10.23 Z" />
<path fill="#000000" opacity="1.00" d=" M 30.54 12.68 C 33.98 11.92 37.53 11.98 41.03 11.99 C 55.04 12.07 69.05 11.87 83.06 12.09 C 97.93 12.73 110.87 26.08 110.95 40.98 C 111.03 60.31 111.03 79.64 110.96 98.97 C 110.92 114.26 97.30 127.88 82.02 127.94 C 66.64 128.04 51.26 128.02 35.88 127.96 C 20.66 127.80 7.14 114.27 7.03 99.05 C 6.98 79.71 6.98 60.36 7.03 41.01 C 7.16 27.65 17.50 15.38 30.54 12.68 M 45.92 37.99 C 44.74 40.15 43.43 42.23 41.96 44.21 C 42.91 45.50 43.86 46.79 44.81 48.09 C 44.11 48.12 42.70 48.17 42.00 48.20 C 42.00 49.46 42.00 50.73 42.00 51.99 C 42.60 52.00 43.80 52.01 44.39 52.01 C 44.38 53.31 44.37 54.60 44.36 55.89 C 46.49 56.00 48.61 56.20 50.71 56.52 C 49.16 56.76 47.60 56.97 46.05 57.17 C 46.12 58.42 46.20 59.67 46.29 60.92 C 49.39 60.94 52.48 60.63 55.58 60.71 C 51.84 61.88 47.85 61.83 43.96 62.07 C 44.05 63.60 44.14 65.14 44.22 66.68 C 45.15 66.65 47.03 66.59 47.96 66.56 C 46.02 67.17 44.09 67.79 42.15 68.40 C 43.53 69.79 44.89 71.22 46.20 72.68 C 48.58 71.54 50.95 70.40 53.31 69.23 C 53.60 69.92 54.18 71.32 54.47 72.01 C 57.60 71.83 63.17 73.17 63.02 68.30 C 66.13 69.71 69.21 71.20 72.23 72.78 C 73.39 71.24 74.55 69.71 75.75 68.20 C 74.52 67.73 73.30 67.25 72.08 66.77 C 73.02 66.35 74.90 65.52 75.84 65.10 C 74.10 62.57 72.31 60.08 70.51 57.61 C 69.12 58.21 67.74 58.81 66.35 59.39 C 66.27 59.83 66.13 60.70 66.06 61.14 C 65.12 61.17 64.18 61.20 63.24 61.23 C 65.21 59.82 67.14 58.36 69.12 56.96 C 68.47 56.46 67.16 55.47 66.50 54.97 C 68.80 55.99 71.06 57.12 73.38 58.09 C 74.52 55.88 75.57 53.62 76.73 51.41 C 75.07 51.04 73.43 50.63 71.80 50.19 C 72.84 48.43 73.02 45.39 75.62 45.39 C 75.62 43.72 75.62 42.04 75.63 40.36 C 72.77 40.38 69.92 40.38 67.06 40.43 C 67.31 39.94 67.82 38.95 68.07 38.46 C 66.12 38.32 64.17 38.18 62.21 38.05 C 61.60 39.51 60.98 40.97 60.37 42.43 C 60.38 41.82 60.41 40.61 60.42 40.00 C 57.50 40.00 54.58 40.00 51.66 40.00 C 51.68 39.55 51.72 38.65 51.74 38.19 C 49.80 38.15 47.86 38.07 45.92 37.99 Z" />
<path fill="#000000" opacity="1.00" d=" M 49.24 44.05 C 52.56 44.00 55.90 43.86 59.21 44.22 C 56.24 45.97 52.64 44.88 49.38 45.19 C 49.35 44.91 49.27 44.34 49.24 44.05 Z" />
<path fill="#000000" opacity="1.00" d=" M 59.67 48.08 C 61.21 48.50 62.05 49.82 62.97 50.96 C 61.47 51.80 59.97 52.63 58.47 53.45 C 59.29 54.49 60.12 55.54 60.93 56.60 C 59.39 56.85 57.84 57.11 56.30 57.36 C 58.51 56.51 58.59 54.53 58.38 52.53 C 60.60 51.99 59.64 49.73 59.67 48.08 Z" />
<path fill="#000000" opacity="1.00" d=" M 52.43 52.21 C 55.38 50.54 52.77 55.49 52.43 52.21 Z" />
<path fill="#000000" opacity="1.00" d=" M 53.63 66.38 C 54.56 65.07 55.45 65.12 56.32 66.51 C 55.40 67.84 54.51 67.80 53.63 66.38 Z" />
</g>
<g id="#737473ff">
<path fill="#737473" opacity="1.00" d=" M 33.22 10.23 C 48.47 9.68 63.75 10.18 79.01 9.98 C 85.63 9.75 92.37 11.31 97.98 14.90 C 107.17 20.56 113.09 31.15 113.00 41.96 C 113.02 59.32 112.97 76.68 113.02 94.04 C 113.25 100.33 112.58 106.84 109.53 112.46 C 104.31 123.01 92.87 130.08 81.09 130.00 C 65.71 129.95 50.32 130.11 34.93 129.92 C 19.00 129.26 5.19 115.01 5.03 99.06 C 4.98 79.69 4.98 60.30 5.03 40.92 C 5.21 25.58 17.97 11.76 33.22 10.23 M 30.54 12.68 C 17.50 15.38 7.16 27.65 7.03 41.01 C 6.98 60.36 6.98 79.71 7.03 99.05 C 7.14 114.27 20.66 127.80 35.88 127.96 C 51.26 128.02 66.64 128.04 82.02 127.94 C 97.30 127.88 110.92 114.26 110.96 98.97 C 111.03 79.64 111.03 60.31 110.95 40.98 C 110.87 26.08 97.93 12.73 83.06 12.09 C 69.05 11.87 55.04 12.07 41.03 11.99 C 37.53 11.98 33.98 11.92 30.54 12.68 Z" />
<path fill="#737473" opacity="1.00" d=" M 66.03 45.24 C 67.67 44.77 68.23 45.33 67.70 46.93 C 66.06 47.40 65.50 46.84 66.03 45.24 Z" />
<path fill="#737473" opacity="1.00" d=" M 49.34 47.35 C 49.87 47.85 49.87 47.85 49.34 47.35 Z" />
<path fill="#737473" opacity="1.00" d=" M 53.27 47.36 C 53.80 47.88 53.80 47.88 53.27 47.36 Z" />
<path fill="#737473" opacity="1.00" d=" M 58.48 47.25 C 58.96 47.79 58.96 47.79 58.48 47.25 Z" />
<path fill="#737473" opacity="1.00" d=" M 49.25 52.28 C 49.81 52.85 49.81 52.85 49.25 52.28 Z" />
<path fill="#737473" opacity="1.00" d=" M 62.96 66.88 C 62.54 65.52 63.04 64.95 64.46 65.14 C 64.87 66.49 64.37 67.07 62.96 66.88 Z" />
</g>
<g id="#f8fcf8ff">
<path fill="#f8fcf8" opacity="1.00" d=" M 45.92 37.99 C 47.86 38.07 49.80 38.15 51.74 38.19 C 51.72 38.65 51.68 39.55 51.66 40.00 C 54.58 40.00 57.50 40.00 60.42 40.00 C 60.41 40.61 60.38 41.82 60.37 42.43 C 60.98 40.97 61.60 39.51 62.21 38.05 C 64.17 38.18 66.12 38.32 68.07 38.46 C 67.82 38.95 67.31 39.94 67.06 40.43 C 69.92 40.38 72.77 40.38 75.63 40.36 C 75.62 42.04 75.62 43.72 75.62 45.39 C 73.02 45.39 72.84 48.43 71.80 50.19 C 73.43 50.63 75.07 51.04 76.73 51.41 C 75.57 53.62 74.52 55.88 73.38 58.09 C 71.06 57.12 68.80 55.99 66.50 54.97 C 67.16 55.47 68.47 56.46 69.12 56.96 C 67.14 58.36 65.21 59.82 63.24 61.23 C 64.18 61.20 65.12 61.17 66.06 61.14 C 66.13 60.70 66.27 59.83 66.35 59.39 C 67.74 58.81 69.12 58.21 70.51 57.61 C 72.31 60.08 74.10 62.57 75.84 65.10 C 74.90 65.52 73.02 66.35 72.08 66.77 C 73.30 67.25 74.52 67.73 75.75 68.20 C 74.55 69.71 73.39 71.24 72.23 72.78 C 69.21 71.20 66.13 69.71 63.02 68.30 C 63.17 73.17 57.60 71.83 54.47 72.01 C 54.18 71.32 53.60 69.92 53.31 69.23 C 50.95 70.40 48.58 71.54 46.20 72.68 C 44.89 71.22 43.53 69.79 42.15 68.40 C 44.09 67.79 46.02 67.17 47.96 66.56 C 47.03 66.59 45.15 66.65 44.22 66.68 C 44.14 65.14 44.05 63.60 43.96 62.07 C 47.85 61.83 51.84 61.88 55.58 60.71 C 52.48 60.63 49.39 60.94 46.29 60.92 C 46.20 59.67 46.12 58.42 46.05 57.17 C 47.60 56.97 49.16 56.76 50.71 56.52 C 48.61 56.20 46.49 56.00 44.36 55.89 C 44.37 54.60 44.38 53.31 44.39 52.01 C 43.80 52.01 42.60 52.00 42.00 51.99 C 42.00 50.73 42.00 49.46 42.00 48.20 C 42.70 48.17 44.11 48.12 44.81 48.09 C 43.86 46.79 42.91 45.50 41.96 44.21 C 43.43 42.23 44.74 40.15 45.92 37.99 M 49.24 44.05 C 49.27 44.34 49.35 44.91 49.38 45.19 C 52.64 44.88 56.24 45.97 59.21 44.22 C 55.90 43.86 52.56 44.00 49.24 44.05 M 66.03 45.24 C 65.50 46.84 66.06 47.40 67.70 46.93 C 68.23 45.33 67.67 44.77 66.03 45.24 M 49.34 47.35 C 49.87 47.85 49.87 47.85 49.34 47.35 M 53.27 47.36 C 53.80 47.88 53.80 47.88 53.27 47.36 M 58.48 47.25 C 58.96 47.79 58.96 47.79 58.48 47.25 M 59.67 48.08 C 59.64 49.73 60.60 51.99 58.38 52.53 C 58.59 54.53 58.51 56.51 56.30 57.36 C 57.84 57.11 59.39 56.85 60.93 56.60 C 60.12 55.54 59.29 54.49 58.47 53.45 C 59.97 52.63 61.47 51.80 62.97 50.96 C 62.05 49.82 61.21 48.50 59.67 48.08 M 49.25 52.28 C 49.81 52.85 49.81 52.85 49.25 52.28 M 52.43 52.21 C 52.77 55.49 55.38 50.54 52.43 52.21 M 53.63 66.38 C 54.51 67.80 55.40 67.84 56.32 66.51 C 55.45 65.12 54.56 65.07 53.63 66.38 M 62.96 66.88 C 64.37 67.07 64.87 66.49 64.46 65.14 C 63.04 64.95 62.54 65.52 62.96 66.88 Z" />
</g>
</svg>
