<?xml version="1.0" encoding="UTF-8" ?>
<!DOCTYPE svg PUBLIC "-//W3C//DTD SVG 1.1//EN" "http://www.w3.org/Graphics/SVG/1.1/DTD/svg11.dtd">
<svg width="480px" height="320px" viewBox="0 0 480 320" version="1.1" xmlns="http://www.w3.org/2000/svg">
<g id="#000000ff">
<path fill="#000000" opacity="1.00" d=" M 0.00 0.00 L 480.00 0.00 L 480.00 320.00 L 0.00 320.00 L 0.00 0.00 M 281.42 92.63 C 269.68 96.22 257.10 99.31 244.86 96.40 C 240.59 95.78 236.45 93.91 232.09 94.31 C 228.86 94.80 229.90 98.62 229.33 100.92 C 227.82 108.44 224.74 116.20 226.90 123.92 C 228.41 129.02 230.32 134.00 231.52 139.19 C 233.04 144.54 233.33 150.18 234.65 155.54 C 238.11 158.03 242.35 159.07 246.39 160.25 C 253.44 162.09 260.92 164.09 268.17 162.11 C 276.85 159.75 285.02 155.87 293.23 152.27 C 297.35 150.81 297.15 145.68 296.69 142.11 C 294.74 131.04 289.35 120.44 290.27 108.97 C 291.34 103.35 294.76 98.56 297.38 93.57 C 296.65 92.81 296.08 91.76 294.97 91.52 C 290.46 90.47 285.79 91.40 281.42 92.63 M 295.90 99.81 C 294.49 103.56 291.67 106.90 291.60 111.07 C 291.79 121.45 296.48 130.97 298.26 141.05 C 299.14 144.66 297.50 148.32 297.92 151.85 C 303.86 157.25 311.49 160.40 319.19 162.41 C 323.66 156.77 326.88 150.06 332.53 145.42 C 336.07 143.02 335.32 137.76 333.30 134.59 C 328.58 127.11 329.80 117.75 326.08 109.90 C 330.75 109.93 335.32 108.86 339.96 108.62 C 342.10 108.82 344.89 108.67 346.21 110.73 C 348.33 114.16 353.82 114.14 356.72 111.88 C 354.28 110.14 352.26 107.26 349.07 107.01 C 345.62 106.73 342.45 105.02 338.96 105.13 C 334.47 105.14 329.70 106.67 325.42 104.71 C 322.74 103.75 322.07 100.43 319.54 99.24 C 315.85 97.24 311.52 96.96 307.75 95.17 C 305.32 94.22 302.79 92.45 300.08 93.37 C 297.69 94.66 296.98 97.53 295.90 99.81 M 218.20 97.35 C 212.25 100.47 205.64 102.28 200.08 106.13 C 195.67 109.15 190.98 111.73 186.13 113.95 C 183.32 115.11 181.67 117.99 181.27 120.90 C 180.32 127.62 181.11 134.71 184.20 140.82 C 186.58 145.86 189.33 150.98 193.49 154.77 C 199.45 158.55 205.85 150.40 211.77 154.29 C 216.08 157.05 220.11 161.88 225.83 160.67 C 228.55 159.98 233.10 158.83 232.48 155.12 C 231.82 143.66 227.69 132.82 224.64 121.86 C 222.55 112.48 229.27 104.06 228.22 94.70 C 224.61 93.51 221.37 96.00 218.20 97.35 M 164.86 123.21 C 162.53 121.81 160.24 120.08 157.41 120.02 C 157.50 121.81 157.65 123.60 157.82 125.38 C 155.38 124.26 152.81 123.39 150.09 123.34 C 149.72 127.51 152.22 130.94 155.01 133.73 C 153.36 138.46 155.05 143.52 153.78 148.39 C 149.28 149.66 144.78 147.29 141.90 143.92 C 140.53 148.79 142.79 153.40 144.74 157.73 C 138.84 156.46 134.01 152.60 130.30 148.00 C 130.46 158.34 136.93 167.43 145.08 173.27 C 145.55 175.12 145.59 177.41 147.50 178.44 C 149.84 179.91 152.03 182.79 155.11 181.90 C 158.14 181.68 161.12 180.91 163.86 179.59 C 166.19 178.65 165.55 174.91 168.09 174.33 C 170.45 173.48 172.91 172.59 174.63 170.65 C 178.13 166.82 182.42 163.86 186.33 160.48 C 188.58 160.00 191.75 159.89 192.40 157.12 C 192.21 155.23 190.65 153.95 189.57 152.54 C 183.83 146.03 179.54 137.79 179.22 128.99 C 178.97 125.10 179.76 121.26 180.16 117.41 C 174.80 118.49 170.26 122.03 164.86 123.21 M 321.18 163.19 C 321.80 165.52 323.94 167.05 325.30 168.96 C 324.23 171.57 323.82 174.67 321.53 176.59 C 319.80 178.14 318.57 180.11 317.64 182.23 C 324.01 182.37 330.38 182.27 336.74 182.29 C 340.03 177.39 340.60 171.17 344.51 166.62 C 347.21 163.82 347.83 158.19 344.17 155.95 C 340.03 153.40 338.16 148.70 334.91 145.27 C 329.33 150.35 324.61 156.47 321.18 163.19 M 289.67 155.25 C 290.85 157.97 292.60 160.38 293.96 163.00 C 289.11 165.67 284.24 169.17 283.06 174.94 C 280.41 176.69 278.26 179.12 277.43 182.24 C 283.91 182.34 290.39 182.29 296.86 182.27 C 296.47 180.82 296.15 179.36 295.89 177.89 C 298.04 175.78 301.07 177.93 303.49 176.63 C 308.37 175.15 311.85 171.16 316.52 169.29 C 318.66 168.42 318.40 165.64 319.09 163.79 C 312.79 161.93 306.16 160.33 300.90 156.16 C 299.29 155.12 297.92 153.49 295.99 153.10 C 293.75 153.36 291.73 154.43 289.67 155.25 M 195.52 156.89 C 195.83 162.93 202.35 165.76 204.63 170.92 C 204.54 173.20 204.46 175.54 203.84 177.75 C 202.31 179.50 200.18 180.59 198.50 182.18 C 204.35 182.42 210.21 182.25 216.07 182.29 C 216.61 177.79 220.28 174.69 221.59 170.48 C 222.66 167.81 222.91 164.93 222.83 162.08 C 217.10 162.04 214.01 156.53 209.02 154.89 C 204.51 155.26 200.22 157.75 195.52 156.89 M 221.05 175.33 C 225.34 177.75 230.30 178.33 235.09 178.97 C 238.61 179.43 241.37 182.83 245.13 182.03 C 247.91 181.66 246.78 178.25 246.16 176.49 C 244.05 172.03 241.53 167.17 237.01 164.74 C 235.76 165.09 234.92 166.12 233.94 166.88 C 231.11 165.15 228.60 161.66 224.90 162.58 C 224.24 167.00 223.32 171.38 221.05 175.33 M 151.43 195.53 C 151.37 200.00 151.67 204.48 151.30 208.93 C 150.63 211.85 149.32 214.57 148.21 217.34 C 146.93 214.53 145.32 211.86 144.38 208.92 C 144.06 204.39 144.35 199.85 144.26 195.32 C 141.05 195.32 137.85 195.31 134.65 195.33 C 134.80 199.86 134.17 204.48 134.95 208.95 C 137.82 215.82 141.44 222.37 144.30 229.25 C 146.84 229.26 149.37 229.26 151.91 229.23 C 153.41 225.78 154.67 222.22 156.34 218.84 C 157.73 222.31 159.05 225.81 160.55 229.23 C 163.05 229.22 165.56 229.23 168.06 229.25 C 171.53 222.20 175.07 215.17 178.13 207.94 C 178.52 203.82 178.19 199.66 178.28 195.53 C 174.93 195.54 171.57 195.53 168.21 195.58 C 168.22 199.72 168.39 203.87 168.19 208.01 C 167.52 211.24 165.67 214.08 164.38 217.09 C 163.30 214.42 162.02 211.81 161.33 209.01 C 160.99 204.54 161.28 200.04 161.20 195.56 C 157.94 195.54 154.69 195.54 151.43 195.53 M 191.48 195.35 C 187.48 206.68 183.31 217.95 179.20 229.24 C 182.53 229.26 185.85 229.26 189.18 229.26 C 189.79 227.58 190.39 225.90 190.97 224.22 C 194.56 224.23 198.14 224.22 201.73 224.26 C 202.27 225.91 202.80 227.57 203.34 229.23 C 206.85 229.26 210.37 229.26 213.89 229.26 C 209.45 217.99 205.23 206.63 200.77 195.36 C 197.67 195.33 194.58 195.32 191.48 195.35 M 215.67 195.33 C 215.71 206.63 215.64 217.94 215.71 229.25 C 219.05 229.26 222.39 229.26 225.73 229.26 C 225.70 223.38 225.70 217.49 225.72 211.61 C 230.40 217.47 234.73 223.60 239.64 229.28 C 242.40 229.26 245.16 229.25 247.92 229.25 C 247.89 217.93 247.90 206.61 247.92 195.29 C 244.85 195.43 241.77 195.51 238.70 195.58 C 238.68 201.68 238.75 207.77 238.68 213.86 C 233.93 207.74 229.53 201.36 224.68 195.33 C 221.67 195.32 218.67 195.32 215.67 195.33 M 252.70 195.34 C 252.72 206.64 252.70 217.95 252.71 229.26 C 256.05 229.26 259.40 229.26 262.74 229.26 C 262.69 224.86 262.71 220.47 262.72 216.07 C 266.77 216.06 270.82 216.06 274.88 216.08 C 275.04 220.47 275.16 224.85 275.15 229.25 C 278.39 229.26 281.64 229.26 284.90 229.25 C 284.86 217.95 284.84 206.64 284.91 195.34 C 281.65 195.31 278.40 195.31 275.15 195.34 C 275.17 199.43 275.16 203.52 275.18 207.62 C 270.96 207.66 266.74 207.65 262.53 207.64 C 262.55 203.53 262.54 199.43 262.56 195.33 C 259.27 195.31 255.99 195.31 252.70 195.34 M 299.27 195.33 C 295.23 206.64 291.12 217.92 287.09 229.23 C 290.44 229.26 293.80 229.26 297.15 229.24 C 297.72 227.58 298.27 225.91 298.80 224.24 C 302.45 224.22 306.10 224.22 309.75 224.25 C 310.26 225.92 310.78 227.58 311.30 229.25 C 314.86 229.26 318.42 229.26 321.98 229.25 C 317.44 217.98 313.06 206.66 308.58 195.37 C 305.48 195.34 302.37 195.32 299.27 195.33 M 334.35 195.56 C 328.67 197.66 323.93 202.76 323.20 208.89 C 322.43 215.67 324.74 223.47 330.86 227.17 C 338.02 232.47 348.98 230.14 354.28 223.26 C 360.13 215.56 358.32 203.24 350.49 197.56 C 345.97 194.01 339.62 193.58 334.35 195.56 Z" />
<path fill="#000000" opacity="1.00" d=" M 337.24 204.25 C 339.01 203.48 341.06 203.65 342.94 203.92 C 349.43 206.15 350.20 217.03 344.00 220.03 C 340.47 221.73 335.76 220.63 333.63 217.28 C 330.75 213.00 332.73 206.54 337.24 204.25 Z" />
<path fill="#000000" opacity="1.00" d=" M 301.41 216.13 C 302.33 213.00 303.27 209.87 304.24 206.76 C 305.23 209.81 306.23 212.86 307.27 215.91 C 305.31 215.99 303.36 216.07 301.41 216.13 Z" />
<path fill="#000000" opacity="1.00" d=" M 193.52 215.94 C 194.40 213.24 195.24 210.52 196.09 207.80 C 197.09 210.48 197.98 213.20 198.86 215.92 C 197.08 215.93 195.30 215.93 193.52 215.94 Z" />
</g>
<g id="#f8fcf8ff">
<path fill="#f8fcf8" opacity="1.00" d=" M 281.42 92.63 C 285.79 91.40 290.46 90.47 294.97 91.52 C 296.08 91.76 296.65 92.81 297.38 93.57 C 294.76 98.56 291.34 103.35 290.27 108.97 C 289.35 120.44 294.74 131.04 296.69 142.11 C 297.15 145.68 297.35 150.81 293.23 152.27 C 285.02 155.87 276.85 159.75 268.17 162.11 C 260.92 164.09 253.44 162.09 246.39 160.25 C 242.35 159.07 238.11 158.03 234.65 155.54 C 233.33 150.18 233.04 144.54 231.52 139.19 C 230.32 134.00 228.41 129.02 226.90 123.92 C 224.74 116.20 227.82 108.44 229.33 100.92 C 229.90 98.62 228.86 94.80 232.09 94.31 C 236.45 93.91 240.59 95.78 244.86 96.40 C 257.10 99.31 269.68 96.22 281.42 92.63 Z" />
<path fill="#f8fcf8" opacity="1.00" d=" M 295.90 99.81 C 296.98 97.53 297.69 94.66 300.08 93.37 C 302.79 92.45 305.32 94.22 307.75 95.17 C 311.52 96.96 315.85 97.24 319.54 99.24 C 322.07 100.43 322.74 103.75 325.42 104.71 C 329.70 106.67 334.47 105.14 338.96 105.13 C 342.45 105.02 345.62 106.73 349.07 107.01 C 352.26 107.26 354.28 110.14 356.72 111.88 C 353.82 114.14 348.33 114.16 346.21 110.73 C 344.89 108.67 342.10 108.82 339.96 108.62 C 335.32 108.86 330.75 109.93 326.08 109.90 C 329.80 117.75 328.58 127.11 333.30 134.59 C 335.32 137.76 336.07 143.02 332.53 145.42 C 326.88 150.06 323.66 156.77 319.19 162.41 C 311.49 160.40 303.86 157.25 297.92 151.85 C 297.50 148.32 299.14 144.66 298.26 141.05 C 296.48 130.97 291.79 121.45 291.60 111.07 C 291.67 106.90 294.49 103.56 295.90 99.81 Z" />
<path fill="#f8fcf8" opacity="1.00" d=" M 218.20 97.35 C 221.37 96.00 224.61 93.51 228.22 94.70 C 229.27 104.06 222.55 112.48 224.64 121.86 C 227.69 132.82 231.82 143.66 232.48 155.12 C 233.10 158.83 228.55 159.98 225.83 160.67 C 220.11 161.88 216.08 157.05 211.77 154.29 C 205.85 150.40 199.45 158.55 193.49 154.77 C 189.33 150.98 186.58 145.86 184.20 140.82 C 181.11 134.71 180.32 127.62 181.27 120.90 C 181.67 117.99 183.32 115.11 186.13 113.95 C 190.98 111.73 195.67 109.15 200.08 106.13 C 205.64 102.28 212.25 100.47 218.20 97.35 Z" />
<path fill="#f8fcf8" opacity="1.00" d=" M 164.86 123.21 C 170.26 122.03 174.80 118.49 180.16 117.41 C 179.76 121.26 178.97 125.10 179.22 128.99 C 179.54 137.79 183.83 146.03 189.57 152.54 C 190.65 153.95 192.21 155.23 192.40 157.12 C 191.75 159.89 188.58 160.00 186.33 160.48 C 182.42 163.86 178.13 166.82 174.63 170.65 C 172.91 172.59 170.45 173.48 168.09 174.33 C 165.55 174.91 166.19 178.65 163.86 179.59 C 161.12 180.91 158.14 181.68 155.11 181.90 C 152.03 182.79 149.84 179.91 147.50 178.44 C 145.59 177.41 145.55 175.12 145.08 173.27 C 136.93 167.43 130.46 158.34 130.30 148.00 C 134.01 152.60 138.84 156.46 144.74 157.73 C 142.79 153.40 140.53 148.79 141.90 143.92 C 144.78 147.29 149.28 149.66 153.78 148.39 C 155.05 143.52 153.36 138.46 155.01 133.73 C 152.22 130.94 149.72 127.51 150.09 123.34 C 152.81 123.39 155.38 124.26 157.82 125.38 C 157.65 123.60 157.50 121.81 157.41 120.02 C 160.24 120.08 162.53 121.81 164.86 123.21 Z" />
<path fill="#f8fcf8" opacity="1.00" d=" M 321.18 163.19 C 324.61 156.47 329.33 150.35 334.91 145.27 C 338.16 148.70 340.03 153.40 344.17 155.95 C 347.83 158.19 347.21 163.82 344.51 166.62 C 340.60 171.17 340.03 177.39 336.74 182.29 C 330.38 182.27 324.01 182.37 317.64 182.23 C 318.57 180.11 319.80 178.14 321.53 176.59 C 323.82 174.67 324.23 171.57 325.30 168.96 C 323.94 167.05 321.80 165.52 321.18 163.19 Z" />
<path fill="#f8fcf8" opacity="1.00" d=" M 289.67 155.25 C 291.73 154.43 293.75 153.36 295.99 153.10 C 297.92 153.49 299.29 155.12 300.90 156.16 C 306.16 160.33 312.79 161.93 319.09 163.79 C 318.40 165.64 318.66 168.42 316.52 169.29 C 311.85 171.16 308.37 175.15 303.49 176.63 C 301.07 177.93 298.04 175.78 295.89 177.89 C 296.15 179.36 296.47 180.82 296.86 182.27 C 290.39 182.29 283.91 182.34 277.43 182.24 C 278.26 179.12 280.41 176.69 283.06 174.94 C 284.24 169.17 289.11 165.67 293.96 163.00 C 292.60 160.38 290.85 157.97 289.67 155.25 Z" />
<path fill="#f8fcf8" opacity="1.00" d=" M 195.52 156.89 C 200.22 157.75 204.51 155.26 209.02 154.89 C 214.01 156.53 217.10 162.04 222.83 162.08 C 222.91 164.93 222.66 167.81 221.59 170.48 C 220.28 174.69 216.61 177.79 216.07 182.29 C 210.21 182.25 204.35 182.42 198.50 182.18 C 200.18 180.59 202.31 179.50 203.84 177.75 C 204.46 175.54 204.54 173.20 204.63 170.92 C 202.35 165.76 195.83 162.93 195.52 156.89 Z" />
<path fill="#f8fcf8" opacity="1.00" d=" M 221.05 175.33 C 223.32 171.38 224.24 167.00 224.90 162.58 C 228.60 161.66 231.11 165.15 233.94 166.88 C 234.92 166.12 235.76 165.09 237.01 164.74 C 241.53 167.17 244.05 172.03 246.16 176.49 C 246.78 178.25 247.91 181.66 245.13 182.03 C 241.37 182.83 238.61 179.43 235.09 178.97 C 230.30 178.33 225.34 177.75 221.05 175.33 Z" />
<path fill="#f8fcf8" opacity="1.00" d=" M 151.43 195.53 C 154.69 195.54 157.94 195.54 161.20 195.56 C 161.28 200.04 160.99 204.54 161.33 209.01 C 162.02 211.81 163.30 214.42 164.38 217.09 C 165.67 214.08 167.52 211.24 168.19 208.01 C 168.39 203.87 168.22 199.72 168.21 195.58 C 171.57 195.53 174.93 195.54 178.28 195.53 C 178.19 199.66 178.52 203.82 178.13 207.94 C 175.07 215.17 171.53 222.20 168.06 229.25 C 165.56 229.23 163.05 229.22 160.55 229.23 C 159.05 225.81 157.73 222.31 156.34 218.84 C 154.67 222.22 153.41 225.78 151.91 229.23 C 149.37 229.26 146.84 229.26 144.30 229.25 C 141.44 222.37 137.82 215.82 134.95 208.95 C 134.17 204.48 134.80 199.86 134.65 195.33 C 137.85 195.31 141.05 195.32 144.26 195.32 C 144.35 199.85 144.06 204.39 144.38 208.92 C 145.32 211.86 146.93 214.53 148.21 217.34 C 149.32 214.57 150.63 211.85 151.30 208.93 C 151.67 204.48 151.37 200.00 151.43 195.53 Z" />
<path fill="#f8fcf8" opacity="1.00" d=" M 191.48 195.35 C 194.58 195.32 197.67 195.33 200.77 195.36 C 205.23 206.63 209.45 217.99 213.89 229.26 C 210.37 229.26 206.85 229.26 203.34 229.23 C 202.80 227.57 202.27 225.91 201.73 224.26 C 198.14 224.22 194.56 224.23 190.97 224.22 C 190.39 225.90 189.79 227.58 189.18 229.26 C 185.85 229.26 182.53 229.26 179.20 229.24 C 183.31 217.95 187.48 206.68 191.48 195.35 M 193.52 215.94 C 195.30 215.93 197.08 215.93 198.86 215.92 C 197.98 213.20 197.09 210.48 196.09 207.80 C 195.24 210.52 194.40 213.24 193.52 215.94 Z" />
<path fill="#f8fcf8" opacity="1.00" d=" M 215.67 195.33 C 218.67 195.32 221.67 195.32 224.68 195.33 C 229.53 201.36 233.93 207.74 238.68 213.86 C 238.75 207.77 238.68 201.68 238.70 195.58 C 241.77 195.51 244.85 195.43 247.92 195.29 C 247.90 206.61 247.89 217.93 247.92 229.25 C 245.16 229.25 242.40 229.26 239.64 229.28 C 234.73 223.60 230.40 217.47 225.72 211.61 C 225.70 217.49 225.70 223.38 225.73 229.26 C 222.39 229.26 219.05 229.26 215.71 229.25 C 215.64 217.94 215.71 206.63 215.67 195.33 Z" />
<path fill="#f8fcf8" opacity="1.00" d=" M 252.70 195.34 C 255.99 195.31 259.27 195.31 262.56 195.33 C 262.54 199.43 262.55 203.53 262.53 207.64 C 266.74 207.65 270.96 207.66 275.18 207.62 C 275.16 203.52 275.17 199.43 275.15 195.34 C 278.40 195.31 281.65 195.31 284.91 195.34 C 284.84 206.64 284.86 217.95 284.90 229.25 C 281.64 229.26 278.39 229.26 275.15 229.25 C 275.16 224.85 275.04 220.47 274.88 216.08 C 270.82 216.06 266.77 216.06 262.72 216.07 C 262.71 220.47 262.69 224.86 262.74 229.26 C 259.40 229.26 256.05 229.26 252.71 229.26 C 252.70 217.95 252.72 206.64 252.70 195.34 Z" />
<path fill="#f8fcf8" opacity="1.00" d=" M 299.27 195.33 C 302.37 195.32 305.48 195.34 308.58 195.37 C 313.06 206.66 317.44 217.98 321.98 229.25 C 318.42 229.26 314.86 229.26 311.30 229.25 C 310.78 227.58 310.26 225.92 309.75 224.25 C 306.10 224.22 302.45 224.22 298.80 224.24 C 298.27 225.91 297.72 227.58 297.15 229.24 C 293.80 229.26 290.44 229.26 287.09 229.23 C 291.12 217.92 295.23 206.64 299.27 195.33 M 301.41 216.13 C 303.36 216.07 305.31 215.99 307.27 215.91 C 306.23 212.86 305.23 209.81 304.24 206.76 C 303.27 209.87 302.33 213.00 301.41 216.13 Z" />
<path fill="#f8fcf8" opacity="1.00" d=" M 334.35 195.56 C 339.62 193.58 345.97 194.01 350.49 197.56 C 358.32 203.24 360.13 215.56 354.28 223.26 C 348.98 230.14 338.02 232.47 330.86 227.17 C 324.74 223.47 322.43 215.67 323.20 208.89 C 323.93 202.76 328.67 197.66 334.35 195.56 M 337.24 204.25 C 332.73 206.54 330.75 213.00 333.63 217.28 C 335.76 220.63 340.47 221.73 344.00 220.03 C 350.20 217.03 349.43 206.15 342.94 203.92 C 341.06 203.65 339.01 203.48 337.24 204.25 Z" />
</g>
</svg>
