<?xml version="1.0" encoding="UTF-8" ?>
<!DOCTYPE svg PUBLIC "-//W3C//DTD SVG 1.1//EN" "http://www.w3.org/Graphics/SVG/1.1/DTD/svg11.dtd">
<svg width="70px" height="28px" viewBox="0 0 70 28" version="1.1" xmlns="http://www.w3.org/2000/svg">
<g id="#1d1d28ff">
<path fill="#ffffff" opacity="1.00" d=" M 0.00 0.00 L 1.68 0.00 C 1.95 1.26 1.39 1.87 0.00 1.82 L 0.00 0.00 Z" />
<path fill="#ffffff" opacity="1.00" d=" M 68.18 0.00 L 70.00 0.00 L 70.00 1.68 C 68.74 1.95 68.13 1.39 68.18 0.00 Z" />
<path fill="#ffffff" opacity="1.00" d=" M 0.00 26.32 C 1.26 26.05 1.87 26.61 1.82 28.00 L 0.00 28.00 L 0.00 26.32 Z" />
<path fill="#ffffff" opacity="1.00" d=" M 68.32 28.00 C 68.05 26.74 68.61 26.13 70.00 26.18 L 70.00 28.00 L 68.32 28.00 Z" />
</g>
<g id="#4850f8ff">
<path fill="#ffffff" opacity="1.00" d=" M 1.68 0.00 L 68.18 0.00 C 68.13 1.39 68.74 1.95 70.00 1.68 L 70.00 26.18 C 68.61 26.13 68.05 26.74 68.32 28.00 L 1.82 28.00 C 1.87 26.61 1.26 26.05 0.00 26.32 L 0.00 1.82 C 1.39 1.87 1.95 1.26 1.68 0.00 Z" />
</g>
</svg>
