<?xml version="1.0" encoding="UTF-8" ?>
<!DOCTYPE svg PUBLIC "-//W3C//DTD SVG 1.1//EN" "http://www.w3.org/Graphics/SVG/1.1/DTD/svg11.dtd">
<svg width="117px" height="140px" viewBox="0 0 117 140" version="1.1" xmlns="http://www.w3.org/2000/svg">
<g id="#181818ff">
<path fill="#181818" opacity="1.00" d=" M 0.00 0.00 L 117.00 0.00 L 117.00 140.00 L 0.00 140.00 L 0.00 0.00 M 54.15 13.99 C 53.81 16.67 54.08 19.39 54.01 22.08 C 53.98 24.75 54.00 27.42 54.00 30.08 C 53.99 32.76 54.01 35.45 54.01 38.13 C 53.99 40.45 54.01 42.77 54.01 45.10 C 54.05 47.59 53.54 50.57 55.51 52.51 C 57.86 54.97 62.53 54.02 63.61 50.76 C 64.29 48.24 63.93 45.60 63.98 43.04 C 63.99 40.64 64.01 38.24 63.99 35.84 C 63.99 33.19 64.01 30.54 63.99 27.89 C 64.00 25.32 64.01 22.76 63.99 20.19 C 63.81 17.14 64.84 13.18 61.99 11.04 C 59.28 8.78 54.72 10.54 54.15 13.99 M 25.52 22.52 C 23.66 25.92 26.36 29.95 29.77 30.93 C 28.74 31.87 27.83 32.94 27.15 34.16 C 24.79 38.18 23.23 42.61 22.45 47.20 C 22.08 49.53 22.05 51.89 21.98 54.24 C 22.19 58.71 23.21 63.11 24.86 67.27 C 26.55 71.34 29.02 75.07 32.02 78.30 C 38.95 85.80 49.12 90.14 59.33 89.95 C 61.79 90.11 64.26 89.82 66.63 89.13 C 70.32 88.39 73.86 87.05 77.19 85.29 C 77.49 85.55 78.11 86.08 78.42 86.34 C 83.41 89.71 90.39 89.85 95.36 86.37 C 101.48 82.42 103.68 73.85 100.46 67.36 C 99.12 64.99 97.35 62.81 95.03 61.35 C 96.25 55.81 96.29 50.03 95.03 44.50 C 94.76 43.25 94.35 42.04 93.70 40.94 C 97.78 39.67 95.40 33.25 91.34 35.13 C 89.54 31.92 87.38 28.83 84.59 26.41 C 82.73 25.45 80.66 28.17 82.35 29.60 C 84.92 32.42 87.24 35.47 88.90 38.92 C 90.21 42.19 91.08 45.59 91.75 49.04 C 92.20 52.61 91.75 56.16 91.54 59.72 L 91.48 59.78 C 87.93 58.57 83.96 58.88 80.58 60.46 C 73.98 63.45 70.47 71.52 72.67 78.42 C 73.18 79.70 73.68 81.01 74.42 82.19 C 71.85 83.13 69.35 85.04 66.50 84.70 C 68.32 81.58 64.48 77.68 61.36 79.37 C 58.49 80.52 58.45 84.37 60.48 86.35 C 51.88 85.97 43.07 83.37 36.76 77.26 L 36.58 77.30 C 33.35 74.11 30.63 70.40 28.80 66.23 L 28.68 66.26 C 27.48 63.13 26.69 59.87 26.15 56.57 C 25.94 53.40 26.06 50.21 26.50 47.07 C 27.31 43.40 28.47 39.78 30.46 36.57 C 31.77 33.63 34.42 31.52 35.83 28.76 C 37.46 26.09 37.29 22.21 34.60 20.29 C 31.79 17.70 26.93 19.10 25.52 22.52 Z" />
<path fill="#181818" opacity="1.00" d=" M 89.39 74.24 C 90.21 74.70 91.03 75.16 91.86 75.62 C 93.07 76.34 94.82 77.06 93.54 78.67 C 91.81 77.90 90.13 77.05 88.51 76.08 L 88.31 75.95 C 88.58 75.52 89.12 74.66 89.39 74.24 Z" />
</g>
<g id="#f8d470ff">
<path fill="#ffffff" opacity="1.00" d=" M 54.15 13.99 C 54.72 10.54 59.28 8.78 61.99 11.04 C 64.84 13.18 63.81 17.14 63.99 20.19 C 60.73 21.15 57.38 21.74 54.01 22.08 C 54.08 19.39 53.81 16.67 54.15 13.99 Z" />
</g>
<g id="#50dc90ff">
<path fill="#ffffff" opacity="1.00" d=" M 25.52 22.52 C 26.93 19.10 31.79 17.70 34.60 20.29 C 37.29 22.21 37.46 26.09 35.83 28.76 C 34.16 30.26 32.05 31.17 29.77 30.93 C 26.36 29.95 23.66 25.92 25.52 22.52 Z" />
</g>
<g id="#f8bc60ff">
<path fill="#ffffff" opacity="1.00" d=" M 54.01 22.08 C 57.38 21.74 60.73 21.15 63.99 20.19 C 64.01 22.76 64.00 25.32 63.99 27.89 C 60.62 28.43 57.28 29.15 54.00 30.08 C 54.00 27.42 53.98 24.75 54.01 22.08 Z" />
</g>
<g id="#9060f0ff">
<path fill="#ffffff" opacity="1.00" d=" M 82.35 29.60 C 80.66 28.17 82.73 25.45 84.59 26.41 C 87.38 28.83 89.54 31.92 91.34 35.13 C 90.67 36.55 90.10 38.02 89.57 39.49 L 88.90 38.92 C 87.24 35.47 84.92 32.42 82.35 29.60 Z" />
</g>
<g id="#f8ac50ff">
<path fill="#ffffff" opacity="1.00" d=" M 54.00 30.08 C 57.28 29.15 60.62 28.43 63.99 27.89 C 64.01 30.54 63.99 33.19 63.99 35.84 C 60.66 36.60 57.33 37.36 54.01 38.13 C 54.01 35.45 53.99 32.76 54.00 30.08 Z" />
</g>
<g id="#583898ff">
<path fill="#ffffff" opacity="1.00" d=" M 29.77 30.93 C 32.05 31.17 34.16 30.26 35.83 28.76 C 34.42 31.52 31.77 33.63 30.46 36.57 C 29.58 35.47 28.54 34.53 27.15 34.16 C 27.83 32.94 28.74 31.87 29.77 30.93 Z" />
</g>
<g id="#7858e8ff">
<path fill="#ffffff" opacity="1.00" d=" M 27.15 34.16 C 28.54 34.53 29.58 35.47 30.46 36.57 C 28.47 39.78 27.31 43.40 26.50 47.07 C 25.48 47.10 23.46 47.17 22.45 47.20 C 23.23 42.61 24.79 38.18 27.15 34.16 Z" />
</g>
<g id="#d860d0ff">
<path fill="#ffffff" opacity="1.00" d=" M 91.34 35.13 C 95.40 33.25 97.78 39.67 93.70 40.94 C 92.21 40.84 90.80 40.34 89.57 39.49 C 90.10 38.02 90.67 36.55 91.34 35.13 Z" />
</g>
<g id="#f89c48ff">
<path fill="#ffffff" opacity="1.00" d=" M 54.01 38.13 C 57.33 37.36 60.66 36.60 63.99 35.84 C 64.01 38.24 63.99 40.64 63.98 43.04 C 60.68 43.83 57.35 44.51 54.01 45.10 C 54.01 42.77 53.99 40.45 54.01 38.13 Z" />
</g>
<g id="#513c9dff">
<path fill="#ffffff" opacity="1.00" d=" M 88.90 38.92 L 89.57 39.49 C 90.80 40.34 92.21 40.84 93.70 40.94 C 94.35 42.04 94.76 43.25 95.03 44.50 C 92.51 44.84 91.14 46.49 91.75 49.04 C 91.08 45.59 90.21 42.19 88.90 38.92 Z" />
</g>
<g id="#f88438ff">
<path fill="#ffffff" opacity="1.00" d=" M 54.01 45.10 C 57.35 44.51 60.68 43.83 63.98 43.04 C 63.93 45.60 64.29 48.24 63.61 50.76 C 62.53 54.02 57.86 54.97 55.51 52.51 C 53.54 50.57 54.05 47.59 54.01 45.10 Z" />
</g>
<g id="#6050e0ff">
<path fill="#ffffff" opacity="1.00" d=" M 91.75 49.04 C 91.14 46.49 92.51 44.84 95.03 44.50 C 96.29 50.03 96.25 55.81 95.03 61.35 C 93.88 60.77 92.72 60.22 91.54 59.72 C 91.75 56.16 92.20 52.61 91.75 49.04 Z" />
<path fill="#ffffff" opacity="1.00" d=" M 22.45 47.20 C 23.46 47.17 25.48 47.10 26.50 47.07 C 26.06 50.21 25.94 53.40 26.15 56.57 C 24.72 55.87 23.32 55.11 21.98 54.24 C 22.05 51.89 22.08 49.53 22.45 47.20 Z" />
</g>
<g id="#5048d8ff">
<path fill="#ffffff" opacity="1.00" d=" M 21.98 54.24 C 23.32 55.11 24.72 55.87 26.15 56.57 C 26.69 59.87 27.48 63.13 28.68 66.26 C 27.40 66.60 26.13 66.93 24.86 67.27 C 23.21 63.11 22.19 58.71 21.98 54.24 Z" />
</g>
<g id="#f8cc68ff">
<path fill="#ffffff" opacity="1.00" d=" M 80.58 60.46 C 83.96 58.88 87.93 58.57 91.48 59.78 C 90.39 60.96 89.24 62.09 88.03 63.16 L 87.65 62.13 C 87.26 62.11 86.48 62.07 86.09 62.05 C 86.03 63.31 85.99 64.56 85.98 65.82 C 81.39 69.87 77.45 74.59 72.67 78.42 C 70.47 71.52 73.98 63.45 80.58 60.46 Z" />
</g>
<g id="#f8ac58ff">
<path fill="#ffffff" opacity="1.00" d=" M 91.48 59.78 L 91.54 59.72 C 92.72 60.22 93.88 60.77 95.03 61.35 C 97.35 62.81 99.12 64.99 100.46 67.36 C 97.57 70.09 94.82 72.97 91.86 75.62 C 91.03 75.16 90.21 74.70 89.39 74.24 C 89.01 74.00 88.25 73.53 87.87 73.29 C 87.94 69.92 88.05 66.54 88.03 63.16 C 89.24 62.09 90.39 60.96 91.48 59.78 Z" />
</g>
<g id="#2a2c59ff">
<path fill="#ffffff" opacity="1.00" d=" M 86.09 62.05 C 86.48 62.07 87.26 62.11 87.65 62.13 L 88.03 63.16 C 88.05 66.54 87.94 69.92 87.87 73.29 C 88.25 73.53 89.01 74.00 89.39 74.24 C 89.12 74.66 88.58 75.52 88.31 75.95 C 84.94 73.66 86.26 69.23 85.98 65.82 C 85.99 64.56 86.03 63.31 86.09 62.05 Z" />
</g>
<g id="#3840d0ff">
<path fill="#ffffff" opacity="1.00" d=" M 28.68 66.26 L 28.80 66.23 C 30.63 70.40 33.35 74.11 36.58 77.30 C 35.06 77.62 33.54 77.96 32.02 78.30 C 29.02 75.07 26.55 71.34 24.86 67.27 C 26.13 66.93 27.40 66.60 28.68 66.26 Z" />
</g>
<g id="#f8b458ff">
<path fill="#ffffff" opacity="1.00" d=" M 72.67 78.42 C 77.45 74.59 81.39 69.87 85.98 65.82 C 86.26 69.23 84.94 73.66 88.31 75.95 L 88.51 76.08 C 84.78 79.12 81.46 82.62 78.42 86.34 C 78.11 86.08 77.49 85.55 77.19 85.29 C 76.17 84.34 75.26 83.29 74.42 82.19 C 73.68 81.01 73.18 79.70 72.67 78.42 Z" />
</g>
<g id="#f89448ff">
<path fill="#ffffff" opacity="1.00" d=" M 91.86 75.62 C 94.82 72.97 97.57 70.09 100.46 67.36 C 103.68 73.85 101.48 82.42 95.36 86.37 C 90.39 89.85 83.41 89.71 78.42 86.34 C 81.46 82.62 84.78 79.12 88.51 76.08 C 90.13 77.05 91.81 77.90 93.54 78.67 C 94.82 77.06 93.07 76.34 91.86 75.62 Z" />
</g>
<g id="#2038c0ff">
<path fill="#ffffff" opacity="1.00" d=" M 36.58 77.30 L 36.76 77.26 C 43.07 83.37 51.88 85.97 60.48 86.35 C 60.53 86.36 60.64 86.38 60.69 86.39 C 59.73 87.31 59.28 88.50 59.33 89.95 C 49.12 90.14 38.95 85.80 32.02 78.30 C 33.54 77.96 35.06 77.62 36.58 77.30 Z" />
<path fill="#ffffff" opacity="1.00" d=" M 74.42 82.19 C 75.26 83.29 76.17 84.34 77.19 85.29 C 73.86 87.05 70.32 88.39 66.63 89.13 C 66.55 87.83 66.44 86.54 66.35 85.25 C 66.39 85.11 66.46 84.84 66.50 84.70 C 69.35 85.04 71.85 83.13 74.42 82.19 Z" />
</g>
<g id="#38bce8ff">
<path fill="#ffffff" opacity="1.00" d=" M 61.36 79.37 C 64.48 77.68 68.32 81.58 66.50 84.70 C 66.46 84.84 66.39 85.11 66.35 85.25 C 64.94 86.99 62.66 87.14 60.69 86.39 C 60.64 86.38 60.53 86.36 60.48 86.35 C 58.45 84.37 58.49 80.52 61.36 79.37 Z" />
</g>
<g id="#102078ff">
<path fill="#ffffff" opacity="1.00" d=" M 60.69 86.39 C 62.66 87.14 64.94 86.99 66.35 85.25 C 66.44 86.54 66.55 87.83 66.63 89.13 C 64.26 89.82 61.79 90.11 59.33 89.95 C 59.28 88.50 59.73 87.31 60.69 86.39 Z" />
</g>

</svg>
