<?xml version="1.0" encoding="UTF-8" ?>
<!DOCTYPE svg PUBLIC "-//W3C//DTD SVG 1.1//EN" "http://www.w3.org/Graphics/SVG/1.1/DTD/svg11.dtd">
<svg width="117px" height="140px" viewBox="0 0 117 140" version="1.1" xmlns="http://www.w3.org/2000/svg">
<g id="#000000ff">
<path fill="#000000" opacity="1.00" d=" M 0.00 0.00 L 117.00 0.00 L 117.00 140.00 L 0.00 140.00 L 0.00 0.00 M 33.14 10.23 C 17.92 11.80 5.23 25.61 5.02 40.92 C 4.96 59.95 5.02 78.99 5.00 98.02 C 4.87 110.08 12.30 121.78 23.22 126.86 C 28.38 129.45 34.24 130.22 39.96 130.02 C 54.33 129.92 68.70 130.13 83.06 129.91 C 99.01 129.26 112.85 114.97 112.97 99.01 C 113.04 80.00 112.98 60.99 113.00 41.98 C 113.05 33.35 109.35 24.79 103.08 18.88 C 96.99 12.95 88.44 9.77 79.97 9.98 C 64.37 10.17 48.74 9.68 33.14 10.23 Z" />
<path fill="#000000" opacity="1.00" d=" M 33.21 12.34 C 48.80 11.72 64.44 12.24 80.05 12.07 C 88.22 11.85 96.38 15.05 102.16 20.83 C 107.63 26.38 111.00 34.06 110.90 41.90 C 110.95 60.61 110.95 79.33 110.90 98.03 C 111.03 108.75 104.78 119.27 95.29 124.26 C 90.35 127.09 84.59 128.06 78.95 127.94 C 64.29 127.85 49.62 128.08 34.96 127.83 C 20.14 127.18 7.27 113.93 7.13 99.09 C 7.03 79.73 7.03 60.35 7.12 40.99 C 7.27 26.76 19.06 13.83 33.21 12.34 M 45.13 38.08 C 44.20 40.96 43.80 43.98 43.99 47.00 C 41.99 47.00 39.99 47.00 38.00 47.00 C 38.00 47.75 38.00 49.25 38.00 50.00 C 39.98 50.00 41.97 50.00 43.95 50.00 C 43.84 52.69 44.34 55.34 45.13 57.91 C 47.69 58.86 50.62 58.69 52.52 56.55 C 55.25 53.83 60.05 52.33 60.48 48.00 C 59.94 43.47 54.84 41.94 52.00 39.03 C 50.20 37.02 47.43 37.39 45.13 38.08 M 57.84 77.35 C 52.39 77.43 46.95 77.39 41.51 77.37 C 41.56 75.68 41.61 74.00 41.66 72.31 C 41.03 72.26 39.76 72.16 39.12 72.10 C 39.27 74.64 37.95 78.63 41.04 79.82 C 52.99 80.01 64.97 80.01 76.92 79.83 C 80.05 78.70 78.71 74.65 78.90 72.13 C 78.26 72.17 76.98 72.26 76.33 72.30 C 76.39 73.99 76.44 75.68 76.49 77.37 C 71.05 77.39 65.61 77.43 60.17 77.35 C 60.29 75.25 60.39 73.14 60.00 71.06 C 56.36 70.77 58.05 75.19 57.84 77.35 Z" />
<path fill="#000000" opacity="1.00" d=" M 49.00 41.81 C 51.67 43.86 54.33 45.93 56.99 48.00 C 54.33 50.07 51.67 52.13 49.00 54.19 C 49.00 50.06 49.00 45.94 49.00 41.81 Z" />
</g>
<g id="#737473ff">
<path fill="#737473" opacity="1.00" d=" M 33.14 10.23 C 48.74 9.68 64.37 10.17 79.97 9.98 C 88.44 9.77 96.99 12.95 103.08 18.88 C 109.35 24.79 113.05 33.35 113.00 41.98 C 112.98 60.99 113.04 80.00 112.97 99.01 C 112.85 114.97 99.01 129.26 83.06 129.91 C 68.70 130.13 54.33 129.92 39.96 130.02 C 34.24 130.22 28.38 129.45 23.22 126.86 C 12.30 121.78 4.87 110.08 5.00 98.02 C 5.02 78.99 4.96 59.95 5.02 40.92 C 5.23 25.61 17.92 11.80 33.14 10.23 M 33.21 12.34 C 19.06 13.83 7.27 26.76 7.12 40.99 C 7.03 60.35 7.03 79.73 7.13 99.09 C 7.27 113.93 20.14 127.18 34.96 127.83 C 49.62 128.08 64.29 127.85 78.95 127.94 C 84.59 128.06 90.35 127.09 95.29 124.26 C 104.78 119.27 111.03 108.75 110.90 98.03 C 110.95 79.33 110.95 60.61 110.90 41.90 C 111.00 34.06 107.63 26.38 102.16 20.83 C 96.38 15.05 88.22 11.85 80.05 12.07 C 64.44 12.24 48.80 11.72 33.21 12.34 Z" />
</g>
<g id="#f8fcf8ff">
<path fill="#f8fcf8" opacity="1.00" d=" M 45.13 38.08 C 47.43 37.39 50.20 37.02 52.00 39.03 C 54.84 41.94 59.94 43.47 60.48 48.00 C 60.05 52.33 55.25 53.83 52.52 56.55 C 50.62 58.69 47.69 58.86 45.13 57.91 C 44.34 55.34 43.84 52.69 43.95 50.00 C 41.97 50.00 39.98 50.00 38.00 50.00 C 38.00 49.25 38.00 47.75 38.00 47.00 C 39.99 47.00 41.99 47.00 43.99 47.00 C 43.80 43.98 44.20 40.96 45.13 38.08 M 49.00 41.81 C 49.00 45.94 49.00 50.06 49.00 54.19 C 51.67 52.13 54.33 50.07 56.99 48.00 C 54.33 45.93 51.67 43.86 49.00 41.81 Z" />
<path fill="#f8fcf8" opacity="1.00" d=" M 57.84 77.35 C 58.05 75.19 56.36 70.77 60.00 71.06 C 60.39 73.14 60.29 75.25 60.17 77.35 C 65.61 77.43 71.05 77.39 76.49 77.37 C 76.44 75.68 76.39 73.99 76.33 72.30 C 76.98 72.26 78.26 72.17 78.90 72.13 C 78.71 74.65 80.05 78.70 76.92 79.83 C 64.97 80.01 52.99 80.01 41.04 79.82 C 37.95 78.63 39.27 74.64 39.12 72.10 C 39.76 72.16 41.03 72.26 41.66 72.31 C 41.61 74.00 41.56 75.68 41.51 77.37 C 46.95 77.39 52.39 77.43 57.84 77.35 Z" />
</g>
</svg>
