<?xml version="1.0" encoding="UTF-8" ?>
<!DOCTYPE svg PUBLIC "-//W3C//DTD SVG 1.1//EN" "http://www.w3.org/Graphics/SVG/1.1/DTD/svg11.dtd">
<svg width="90px" height="30px" viewBox="0 0 90 30" version="1.1" xmlns="http://www.w3.org/2000/svg">
<g id="#181818ff">
<path fill="#181818" opacity="1.00" d=" M 0.00 0.00 L 10.56 0.00 L 12.85 0.01 C 8.85 0.84 5.60 3.25 2.53 5.78 C 1.89 7.54 1.31 9.31 0.78 11.10 C 2.93 9.31 3.81 6.45 5.83 4.53 C 8.75 1.68 13.02 0.89 16.96 0.98 C 35.98 1.02 55.01 0.98 74.03 1.00 C 78.00 0.94 82.10 2.23 84.89 5.14 C 87.08 7.25 87.70 10.35 89.14 12.92 C 89.55 19.54 85.82 25.91 79.60 28.38 C 79.44 28.78 79.14 29.59 78.98 30.00 L 78.47 30.00 C 78.49 29.72 78.53 29.15 78.55 28.87 C 56.64 29.26 34.72 28.73 12.81 29.15 C 9.90 27.91 6.60 26.89 4.64 24.22 C 3.15 22.49 2.22 20.27 0.29 18.94 L 0.00 19.12 L 0.00 18.59 C 1.00 17.17 1.29 15.41 1.37 13.71 C 1.03 13.23 0.34 12.27 0.00 11.79 L 0.00 0.00 M 71.39 3.58 C 65.51 5.30 61.75 11.98 63.38 17.90 C 64.74 23.88 71.18 28.05 77.19 26.77 C 83.49 25.76 88.10 19.10 86.78 12.84 C 85.72 5.98 77.97 1.27 71.39 3.58 Z" />
<path fill="#181818" opacity="1.00" d=" M 76.82 0.00 L 90.00 0.00 L 90.00 11.08 C 87.68 5.53 82.97 0.88 76.82 0.00 Z" />
<path fill="#181818" opacity="1.00" d=" M 0.00 19.74 L 0.43 19.90 C 2.62 24.30 6.30 27.49 10.45 29.99 L 10.28 30.00 L 0.00 30.00 L 0.00 19.74 Z" />
<path fill="#181818" opacity="1.00" d=" M 79.56 30.00 C 84.48 26.98 89.33 22.97 90.00 16.77 L 90.00 30.00 L 79.56 30.00 Z" />
</g>
<g id="#f8fcf8ff">
<path fill="#f8fcf8" opacity="1.00" d=" M 10.56 0.00 L 76.82 0.00 C 82.97 0.88 87.68 5.53 90.00 11.08 L 90.00 16.77 C 89.33 22.97 84.48 26.98 79.56 30.00 L 78.98 30.00 C 79.14 29.59 79.44 28.78 79.60 28.38 C 85.82 25.91 89.55 19.54 89.14 12.92 C 87.70 10.35 87.08 7.25 84.89 5.14 C 82.10 2.23 78.00 0.94 74.03 1.00 C 55.01 0.98 35.98 1.02 16.96 0.98 C 13.02 0.89 8.75 1.68 5.83 4.53 C 3.81 6.45 2.93 9.31 0.78 11.10 C 1.31 9.31 1.89 7.54 2.53 5.78 C 5.60 3.25 8.85 0.84 12.85 0.01 L 10.56 0.00 Z" />
<path fill="#f8fcf8" opacity="1.00" d=" M 71.39 3.58 C 77.97 1.27 85.72 5.98 86.78 12.84 C 88.10 19.10 83.49 25.76 77.19 26.77 C 71.18 28.05 64.74 23.88 63.38 17.90 C 61.75 11.98 65.51 5.30 71.39 3.58 Z" />
<path fill="#f8fcf8" opacity="1.00" d=" M 0.00 11.79 C 0.34 12.27 1.03 13.23 1.37 13.71 C 1.29 15.41 1.00 17.17 0.00 18.59 L 0.00 11.79 Z" />
<path fill="#f8fcf8" opacity="1.00" d=" M 0.00 19.12 L 0.29 18.94 C 2.22 20.27 3.15 22.49 4.64 24.22 C 6.60 26.89 9.90 27.91 12.81 29.15 C 34.72 28.73 56.64 29.26 78.55 28.87 C 78.53 29.15 78.49 29.72 78.47 30.00 L 10.28 30.00 L 10.45 29.99 C 6.30 27.49 2.62 24.30 0.43 19.90 L 0.00 19.74 L 0.00 19.12 Z" />
</g>
</svg>
