<?xml version="1.0" encoding="UTF-8" ?>
<!DOCTYPE svg PUBLIC "-//W3C//DTD SVG 1.1//EN" "http://www.w3.org/Graphics/SVG/1.1/DTD/svg11.dtd">
<svg width="45px" height="45px" viewBox="0 0 45 45" version="1.1" xmlns="http://www.w3.org/2000/svg">
<g id="#000000ff">
<path fill="#000000" opacity="1.00" d=" M 0.00 0.00 L 45.00 0.00 L 45.00 45.00 L 0.00 45.00 L 0.00 0.00 M 19.39 10.51 C 13.35 11.92 10.41 17.91 9.26 23.47 C 10.75 28.10 12.94 33.20 17.90 34.97 C 25.95 38.88 36.55 31.97 36.05 23.02 C 37.11 14.37 27.34 7.50 19.39 10.51 Z" />
<path fill="#000000" opacity="1.00" d=" M 19.46 12.63 C 25.82 10.13 33.39 15.16 33.95 21.87 C 34.75 28.11 29.27 34.07 23.02 34.00 C 17.93 34.03 13.19 30.15 12.21 25.15 C 11.04 19.93 14.40 14.27 19.46 12.63 M 20.31 18.37 C 20.16 18.77 19.86 19.57 19.70 19.97 C 21.20 20.14 22.71 20.23 24.21 20.24 C 22.42 22.38 20.21 24.28 19.24 26.97 C 22.28 27.00 25.32 27.10 28.36 26.88 C 27.92 24.29 25.01 25.64 23.27 25.28 C 24.98 23.09 27.03 21.08 28.03 18.42 C 25.46 18.31 22.88 18.24 20.31 18.37 Z" />
</g>
<g id="#e6eae6ff">
<path fill="#e6eae6" opacity="1.00" d=" M 19.39 10.51 C 27.34 7.50 37.11 14.37 36.05 23.02 C 36.55 31.97 25.95 38.88 17.90 34.97 C 12.94 33.20 10.75 28.10 9.26 23.47 C 10.41 17.91 13.35 11.92 19.39 10.51 M 19.46 12.63 C 14.40 14.27 11.04 19.93 12.21 25.15 C 13.19 30.15 17.93 34.03 23.02 34.00 C 29.27 34.07 34.75 28.11 33.95 21.87 C 33.39 15.16 25.82 10.13 19.46 12.63 Z" />
<path fill="#e6eae6" opacity="1.00" d=" M 20.31 18.37 C 22.88 18.24 25.46 18.31 28.03 18.42 C 27.03 21.08 24.98 23.09 23.27 25.28 C 25.01 25.64 27.92 24.29 28.36 26.88 C 25.32 27.10 22.28 27.00 19.24 26.97 C 20.21 24.28 22.42 22.38 24.21 20.24 C 22.71 20.23 21.20 20.14 19.70 19.97 C 19.86 19.57 20.16 18.77 20.31 18.37 Z" />
</g>
</svg>
