<?xml version="1.0" encoding="UTF-8" ?>
<!DOCTYPE svg PUBLIC "-//W3C//DTD SVG 1.1//EN" "http://www.w3.org/Graphics/SVG/1.1/DTD/svg11.dtd">
<svg width="117px" height="140px" viewBox="0 0 117 140" version="1.1" xmlns="http://www.w3.org/2000/svg">
<g id="#000000ff">
<path fill="#000000" opacity="1.00" d=" M 0.00 0.00 L 117.00 0.00 L 117.00 140.00 L 0.00 140.00 L 0.00 0.00 M 33.20 10.26 C 17.96 11.78 5.24 25.61 5.05 40.93 C 4.97 60.30 4.98 79.66 5.04 99.03 C 5.19 115.33 19.60 129.77 35.90 129.95 C 51.61 129.99 67.33 130.11 83.04 129.88 C 98.97 129.27 112.82 114.98 112.94 99.03 C 113.06 80.03 112.99 61.03 112.98 42.02 C 113.10 30.70 106.61 19.66 96.72 14.17 C 91.37 11.08 85.13 9.81 78.98 9.99 C 63.72 10.19 48.44 9.66 33.20 10.26 Z" />
<path fill="#000000" opacity="1.00" d=" M 33.29 12.32 C 49.51 11.78 65.77 12.15 82.01 12.12 C 97.21 12.19 110.78 25.68 110.87 40.88 C 111.01 59.59 110.90 78.30 110.93 97.02 C 111.01 102.05 110.09 107.15 107.66 111.59 C 102.79 121.50 92.02 128.06 80.99 127.91 C 65.97 127.93 50.95 127.99 35.93 127.88 C 20.72 127.78 7.16 114.24 7.12 99.01 C 7.03 79.68 7.03 60.34 7.12 41.01 C 7.21 26.74 19.09 13.73 33.29 12.32 M 60.35 27.14 C 56.38 31.08 52.44 35.04 48.49 38.99 C 50.08 41.12 52.47 41.60 55.00 41.27 C 55.00 43.29 55.00 45.31 55.00 47.33 C 53.00 47.33 51.01 47.32 49.01 47.33 C 49.00 46.61 48.99 45.19 48.98 44.47 C 48.53 43.05 47.67 41.87 46.66 40.79 C 42.73 44.76 38.78 48.71 34.81 52.64 C 38.79 56.60 42.69 60.65 46.77 64.51 C 47.52 63.63 48.26 62.76 49.00 61.88 C 49.00 60.58 49.00 59.29 49.00 58.00 C 51.00 58.00 53.00 58.00 55.00 58.00 C 55.00 60.00 55.00 62.01 55.00 64.01 C 52.52 63.67 50.17 64.22 48.46 66.13 C 52.25 70.31 56.41 74.15 60.35 78.19 C 64.27 74.28 68.14 70.33 72.11 66.48 C 71.79 66.08 71.14 65.29 70.82 64.89 C 69.17 64.29 67.48 63.87 65.71 63.91 C 65.71 61.94 65.71 59.97 65.71 58.00 C 67.71 58.00 69.72 58.00 71.72 58.00 C 71.37 60.53 71.88 62.92 74.01 64.52 C 77.96 60.55 81.94 56.62 85.87 52.63 C 81.94 48.73 78.03 44.80 74.11 40.89 C 73.71 41.23 72.91 41.90 72.51 42.24 C 71.98 43.90 71.67 45.60 71.62 47.34 C 69.65 47.33 67.68 47.32 65.71 47.32 C 65.71 45.33 65.72 43.34 65.73 41.36 C 67.43 41.25 69.13 41.01 70.77 40.50 C 71.10 40.10 71.76 39.31 72.09 38.91 C 68.19 34.97 64.29 31.04 60.35 27.14 Z" />
<path fill="#000000" opacity="1.00" d=" M 60.34 30.92 C 62.90 33.50 65.48 36.04 68.04 38.61 C 66.36 38.61 64.68 38.61 63.00 38.61 C 63.00 42.41 63.00 46.20 63.00 50.00 C 66.81 50.00 70.61 50.00 74.42 50.00 C 74.41 48.33 74.41 46.67 74.40 45.01 C 76.98 47.54 79.53 50.09 82.09 52.65 C 79.56 55.21 77.04 57.79 74.40 60.25 C 74.40 58.62 74.40 56.98 74.41 55.35 C 70.61 55.31 66.81 55.33 63.00 55.32 C 63.00 59.13 63.00 62.93 63.01 66.74 C 64.67 66.74 66.34 66.74 68.01 66.74 C 65.47 69.30 62.91 71.84 60.37 74.40 C 57.80 71.86 55.23 69.31 52.70 66.73 C 54.35 66.74 56.00 66.72 57.64 66.74 C 57.65 62.94 57.65 59.14 57.64 55.33 C 53.86 55.32 50.08 55.33 46.29 55.33 C 46.29 56.98 46.28 58.64 46.27 60.30 C 43.69 57.77 41.16 55.20 38.60 52.66 C 41.17 50.11 43.72 47.54 46.29 44.99 C 46.29 46.66 46.29 48.32 46.28 49.99 C 50.07 50.00 53.86 50.01 57.65 49.99 C 57.64 46.19 57.65 42.40 57.64 38.60 C 55.99 38.62 54.35 38.62 52.71 38.63 C 55.21 36.01 57.80 33.49 60.34 30.92 Z" />
</g>
<g id="#787978ff">
<path fill="#787978" opacity="1.00" d=" M 33.20 10.26 C 48.44 9.66 63.72 10.19 78.98 9.99 C 85.13 9.81 91.37 11.08 96.72 14.17 C 106.61 19.66 113.10 30.70 112.98 42.02 C 112.99 61.03 113.06 80.03 112.94 99.03 C 112.82 114.98 98.97 129.27 83.04 129.88 C 67.33 130.11 51.61 129.99 35.90 129.95 C 19.60 129.77 5.19 115.33 5.04 99.03 C 4.98 79.66 4.97 60.30 5.05 40.93 C 5.24 25.61 17.96 11.78 33.20 10.26 M 33.29 12.32 C 19.09 13.73 7.21 26.74 7.12 41.01 C 7.03 60.34 7.03 79.68 7.12 99.01 C 7.16 114.24 20.72 127.78 35.93 127.88 C 50.95 127.99 65.97 127.93 80.99 127.91 C 92.02 128.06 102.79 121.50 107.66 111.59 C 110.09 107.15 111.01 102.05 110.93 97.02 C 110.90 78.30 111.01 59.59 110.87 40.88 C 110.78 25.68 97.21 12.19 82.01 12.12 C 65.77 12.15 49.51 11.78 33.29 12.32 Z" />
</g>
<g id="#f8fcf8ff">
<path fill="#f8fcf8" opacity="1.00" d=" M 60.35 27.14 C 64.29 31.04 68.19 34.97 72.09 38.91 C 71.76 39.31 71.10 40.10 70.77 40.50 C 69.13 41.01 67.43 41.25 65.73 41.36 C 65.72 43.34 65.71 45.33 65.71 47.32 C 67.68 47.32 69.65 47.33 71.62 47.34 C 71.67 45.60 71.98 43.90 72.51 42.24 C 72.91 41.90 73.71 41.23 74.11 40.89 C 78.03 44.80 81.94 48.73 85.87 52.63 C 81.94 56.62 77.96 60.55 74.01 64.52 C 71.88 62.92 71.37 60.53 71.72 58.00 C 69.72 58.00 67.71 58.00 65.71 58.00 C 65.71 59.97 65.71 61.94 65.71 63.91 C 67.48 63.87 69.17 64.29 70.82 64.89 C 71.14 65.29 71.79 66.08 72.11 66.48 C 68.14 70.33 64.27 74.28 60.35 78.19 C 56.41 74.15 52.25 70.31 48.46 66.13 C 50.17 64.22 52.52 63.67 55.00 64.01 C 55.00 62.01 55.00 60.00 55.00 58.00 C 53.00 58.00 51.00 58.00 49.00 58.00 C 49.00 59.29 49.00 60.58 49.00 61.88 C 48.26 62.76 47.52 63.63 46.77 64.51 C 42.69 60.65 38.79 56.60 34.81 52.64 C 38.78 48.71 42.73 44.76 46.66 40.79 C 47.67 41.87 48.53 43.05 48.98 44.47 C 48.99 45.19 49.00 46.61 49.01 47.33 C 51.01 47.32 53.00 47.33 55.00 47.33 C 55.00 45.31 55.00 43.29 55.00 41.27 C 52.47 41.60 50.08 41.12 48.49 38.99 C 52.44 35.04 56.38 31.08 60.35 27.14 M 60.34 30.92 C 57.80 33.49 55.21 36.01 52.71 38.63 C 54.35 38.62 55.99 38.62 57.64 38.60 C 57.65 42.40 57.64 46.19 57.65 49.99 C 53.86 50.01 50.07 50.00 46.28 49.99 C 46.29 48.32 46.29 46.66 46.29 44.99 C 43.72 47.54 41.17 50.11 38.60 52.66 C 41.16 55.20 43.69 57.77 46.27 60.30 C 46.28 58.64 46.29 56.98 46.29 55.33 C 50.08 55.33 53.86 55.32 57.64 55.33 C 57.65 59.14 57.65 62.94 57.64 66.74 C 56.00 66.72 54.35 66.74 52.70 66.73 C 55.23 69.31 57.80 71.86 60.37 74.40 C 62.91 71.84 65.47 69.30 68.01 66.74 C 66.34 66.74 64.67 66.74 63.01 66.74 C 63.00 62.93 63.00 59.13 63.00 55.32 C 66.81 55.33 70.61 55.31 74.41 55.35 C 74.40 56.98 74.40 58.62 74.40 60.25 C 77.04 57.79 79.56 55.21 82.09 52.65 C 79.53 50.09 76.98 47.54 74.40 45.01 C 74.41 46.67 74.41 48.33 74.42 50.00 C 70.61 50.00 66.81 50.00 63.00 50.00 C 63.00 46.20 63.00 42.41 63.00 38.61 C 64.68 38.61 66.36 38.61 68.04 38.61 C 65.48 36.04 62.90 33.50 60.34 30.92 Z" />
</g>
</svg>
