<?xml version="1.0" encoding="UTF-8" ?>
<!DOCTYPE svg PUBLIC "-//W3C//DTD SVG 1.1//EN" "http://www.w3.org/Graphics/SVG/1.1/DTD/svg11.dtd">
<svg width="117px" height="140px" viewBox="0 0 117 140" version="1.1" xmlns="http://www.w3.org/2000/svg">
<g id="#181818ff">
<path fill="#181818" opacity="1.00" d=" M 0.00 0.00 L 117.00 0.00 L 117.00 140.00 L 0.00 140.00 L 0.00 0.00 M 54.15 13.97 C 53.80 16.66 54.10 19.38 54.01 22.08 C 53.98 24.76 54.01 27.45 54.00 30.13 C 53.99 32.80 54.02 35.47 54.00 38.14 C 54.00 40.49 54.02 42.83 54.01 45.18 C 54.04 47.63 53.56 50.55 55.48 52.48 C 57.82 55.00 62.58 54.03 63.63 50.71 C 64.29 48.20 63.92 45.57 63.99 43.01 C 63.99 40.63 64.01 38.25 63.99 35.86 C 63.98 33.20 64.01 30.53 64.00 27.86 C 64.00 25.32 64.01 22.78 63.99 20.24 C 63.80 17.16 64.86 13.17 61.97 11.02 C 59.26 8.80 54.73 10.54 54.15 13.97 M 25.49 22.57 C 23.68 25.97 26.38 29.93 29.76 30.93 C 28.71 31.90 27.78 32.97 27.11 34.23 C 24.79 38.19 23.25 42.57 22.47 47.09 C 22.08 49.43 22.05 51.81 21.98 54.18 C 22.20 58.69 23.18 63.15 24.90 67.33 C 26.55 71.36 29.01 75.03 31.96 78.22 C 38.86 85.74 49.03 90.16 59.25 89.91 C 62.82 90.24 66.31 89.20 69.83 88.74 L 69.46 88.45 C 72.72 87.41 75.98 86.17 78.79 84.18 C 80.44 86.88 81.40 90.69 84.81 91.69 C 87.17 92.24 89.64 92.01 92.04 91.90 C 95.76 91.24 97.71 87.15 96.98 83.65 C 96.24 80.52 98.82 75.32 94.98 73.85 C 94.55 74.10 93.69 74.59 93.26 74.84 C 92.57 73.64 91.66 72.58 90.12 73.06 C 92.75 68.71 94.74 63.92 95.51 58.88 C 96.22 54.15 96.10 49.31 95.06 44.63 C 94.77 43.34 94.41 42.07 93.70 40.93 C 97.79 39.64 95.39 33.26 91.33 35.13 C 89.55 31.91 87.36 28.84 84.59 26.40 C 82.70 25.44 80.65 28.22 82.37 29.64 C 84.94 32.43 87.23 35.49 88.89 38.92 C 90.25 42.18 91.04 45.59 91.74 49.04 C 92.11 52.34 91.98 55.67 91.49 58.95 C 90.60 63.08 89.08 67.05 86.96 70.72 C 86.48 71.04 85.52 71.69 85.04 72.02 C 85.02 71.44 84.99 70.28 84.97 69.70 C 84.91 67.19 85.17 64.66 84.86 62.16 C 84.16 60.62 81.91 60.63 81.14 62.11 C 80.79 65.40 81.13 68.72 81.00 72.02 C 81.02 74.10 80.98 76.18 80.91 78.26 L 80.15 78.38 C 79.14 76.31 77.16 71.35 74.44 74.51 C 73.77 76.84 76.18 78.69 76.95 80.75 C 73.88 82.60 70.58 84.00 67.19 85.16 C 67.11 84.83 66.95 84.17 66.87 83.84 C 67.63 80.82 64.19 77.91 61.37 79.35 C 58.54 80.49 58.37 84.41 60.51 86.33 C 51.78 86.11 43.09 83.14 36.57 77.29 C 33.33 74.09 30.62 70.37 28.77 66.20 L 28.67 66.22 C 27.46 63.08 26.68 59.81 26.15 56.50 C 25.93 53.36 26.06 50.21 26.50 47.09 C 27.29 43.40 28.49 39.77 30.48 36.54 C 31.79 33.63 34.46 31.43 35.79 28.74 C 37.52 26.11 37.26 22.19 34.59 20.28 C 31.77 17.68 26.88 19.13 25.49 22.57 Z" />
</g>
<g id="#f8d070ff">
<path fill="#ffffff" opacity="1.00" d=" M 54.15 13.97 C 54.73 10.54 59.26 8.80 61.97 11.02 C 64.86 13.17 63.80 17.16 63.99 20.24 C 60.70 21.07 57.37 21.66 54.01 22.08 C 54.10 19.38 53.80 16.66 54.15 13.97 Z" />
</g>
<g id="#50d890ff">
<path fill="#ffffff" opacity="1.00" d=" M 25.49 22.57 C 26.88 19.13 31.77 17.68 34.59 20.28 C 37.26 22.19 37.52 26.11 35.79 28.74 C 34.16 30.29 32.03 31.14 29.76 30.93 C 26.38 29.93 23.68 25.97 25.49 22.57 Z" />
</g>
<g id="#f8b860ff">
<path fill="#ffffff" opacity="1.00" d=" M 54.01 22.08 C 57.37 21.66 60.70 21.07 63.99 20.24 C 64.01 22.78 64.00 25.32 64.00 27.86 C 60.63 28.46 57.29 29.21 54.00 30.13 C 54.01 27.45 53.98 24.76 54.01 22.08 Z" />
</g>
<g id="#9060f0ff">
<path fill="#ffffff" opacity="1.00" d=" M 82.37 29.64 C 80.65 28.22 82.70 25.44 84.59 26.40 C 87.36 28.84 89.55 31.91 91.33 35.13 C 90.68 36.54 90.08 37.98 89.57 39.45 L 88.89 38.92 C 87.23 35.49 84.94 32.43 82.37 29.64 Z" />
</g>
<g id="#f8a850ff">
<path fill="#ffffff" opacity="1.00" d=" M 54.00 30.13 C 57.29 29.21 60.63 28.46 64.00 27.86 C 64.01 30.53 63.98 33.20 63.99 35.86 C 60.66 36.62 57.33 37.39 54.00 38.14 C 54.02 35.47 53.99 32.80 54.00 30.13 Z" />
</g>
<g id="#583898ff">
<path fill="#ffffff" opacity="1.00" d=" M 29.76 30.93 C 32.03 31.14 34.16 30.29 35.79 28.74 C 34.46 31.43 31.79 33.63 30.48 36.54 C 29.57 35.46 28.54 34.52 27.11 34.23 C 27.78 32.97 28.71 31.90 29.76 30.93 Z" />
</g>
<g id="#7858e8ff">
<path fill="#ffffff" opacity="1.00" d=" M 27.11 34.23 C 28.54 34.52 29.57 35.46 30.48 36.54 C 28.49 39.77 27.29 43.40 26.50 47.09 C 25.49 47.09 23.48 47.09 22.47 47.09 C 23.25 42.57 24.79 38.19 27.11 34.23 Z" />
</g>
<g id="#d860d0ff">
<path fill="#ffffff" opacity="1.00" d=" M 91.33 35.13 C 95.39 33.26 97.79 39.64 93.70 40.93 C 92.19 40.87 90.78 40.33 89.57 39.45 C 90.08 37.98 90.68 36.54 91.33 35.13 Z" />
</g>
<g id="#f89848ff">
<path fill="#ffffff" opacity="1.00" d=" M 54.00 38.14 C 57.33 37.39 60.66 36.62 63.99 35.86 C 64.01 38.25 63.99 40.63 63.99 43.01 C 60.66 43.74 57.33 44.45 54.01 45.18 C 54.02 42.83 54.00 40.49 54.00 38.14 Z" />
<path fill="#ffffff" opacity="1.00" d=" M 90.12 73.06 C 91.66 72.58 92.57 73.64 93.26 74.84 C 93.69 74.59 94.55 74.10 94.98 73.85 C 98.82 75.32 96.24 80.52 96.98 83.65 C 92.89 86.30 89.50 90.03 84.81 91.69 C 81.40 90.69 80.44 86.88 78.79 84.18 L 78.33 83.34 C 81.66 79.90 86.05 77.73 89.28 74.21 C 89.49 73.92 89.91 73.35 90.12 73.06 Z" />
</g>
<g id="#513c9dff">
<path fill="#ffffff" opacity="1.00" d=" M 88.89 38.92 L 89.57 39.45 C 90.78 40.33 92.19 40.87 93.70 40.93 C 94.41 42.07 94.77 43.34 95.06 44.63 C 94.34 44.85 92.89 45.29 92.16 45.50 C 92.01 46.68 91.87 47.86 91.74 49.04 C 91.04 45.59 90.25 42.18 88.89 38.92 Z" />
</g>
<g id="#f88038ff">
<path fill="#ffffff" opacity="1.00" d=" M 54.01 45.18 C 57.33 44.45 60.66 43.74 63.99 43.01 C 63.92 45.57 64.29 48.20 63.63 50.71 C 62.58 54.03 57.82 55.00 55.48 52.48 C 53.56 50.55 54.04 47.63 54.01 45.18 Z" />
</g>
<g id="#6050e0ff">
<path fill="#ffffff" opacity="1.00" d=" M 92.16 45.50 C 92.89 45.29 94.34 44.85 95.06 44.63 C 96.10 49.31 96.22 54.15 95.51 58.88 C 94.50 58.90 92.50 58.93 91.49 58.95 C 91.98 55.67 92.11 52.34 91.74 49.04 C 91.87 47.86 92.01 46.68 92.16 45.50 Z" />
<path fill="#ffffff" opacity="1.00" d=" M 22.47 47.09 C 23.48 47.09 25.49 47.09 26.50 47.09 C 26.06 50.21 25.93 53.36 26.15 56.50 C 24.67 55.89 23.26 55.14 21.98 54.18 C 22.05 51.81 22.08 49.43 22.47 47.09 Z" />
</g>
<g id="#5048d8ff">
<path fill="#ffffff" opacity="1.00" d=" M 21.98 54.18 C 23.26 55.14 24.67 55.89 26.15 56.50 C 26.68 59.81 27.46 63.08 28.67 66.22 C 27.42 66.59 26.16 66.96 24.90 67.33 C 23.18 63.15 22.20 58.69 21.98 54.18 Z" />
</g>
<g id="#4848d8ff">
<path fill="#ffffff" opacity="1.00" d=" M 91.49 58.95 C 92.50 58.93 94.50 58.90 95.51 58.88 C 94.74 63.92 92.75 68.71 90.12 73.06 C 89.91 73.35 89.49 73.92 89.28 74.21 C 89.10 72.70 88.43 71.33 86.96 70.72 C 89.08 67.05 90.60 63.08 91.49 58.95 Z" />
</g>
<g id="#f8c870ff">
<path fill="#ffffff" opacity="1.00" d=" M 81.14 62.11 C 81.91 60.63 84.16 60.62 84.86 62.16 C 85.17 64.66 84.91 67.19 84.97 69.70 C 83.65 70.47 82.32 71.24 81.00 72.02 C 81.13 68.72 80.79 65.40 81.14 62.11 Z" />
</g>
<g id="#3840d0ff">
<path fill="#ffffff" opacity="1.00" d=" M 28.67 66.22 L 28.77 66.20 C 30.62 70.37 33.33 74.09 36.57 77.29 C 35.02 77.54 33.49 77.89 31.96 78.22 C 29.01 75.03 26.55 71.36 24.90 67.33 C 26.16 66.96 27.42 66.59 28.67 66.22 Z" />
</g>
<g id="#f8b058ff">
<path fill="#ffffff" opacity="1.00" d=" M 81.00 72.02 C 82.32 71.24 83.65 70.47 84.97 69.70 C 84.99 70.28 85.02 71.44 85.04 72.02 C 85.52 71.69 86.48 71.04 86.96 70.72 C 88.43 71.33 89.10 72.70 89.28 74.21 C 86.05 77.73 81.66 79.90 78.33 83.34 C 77.87 82.47 77.41 81.61 76.95 80.75 C 76.18 78.69 73.77 76.84 74.44 74.51 C 77.16 71.35 79.14 76.31 80.15 78.38 C 80.34 78.51 80.73 78.77 80.93 78.90 L 80.91 78.26 C 80.98 76.18 81.02 74.10 81.00 72.02 Z" />
</g>
<g id="#2038c0ff">
<path fill="#ffffff" opacity="1.00" d=" M 36.57 77.29 C 43.09 83.14 51.78 86.11 60.51 86.33 C 60.54 86.34 60.59 86.34 60.61 86.35 C 60.11 87.51 59.65 88.70 59.25 89.91 C 49.03 90.16 38.86 85.74 31.96 78.22 C 33.49 77.89 35.02 77.54 36.57 77.29 Z" />
</g>
<g id="#686098ff">
<path fill="#ffffff" opacity="1.00" d=" M 80.15 78.38 L 80.91 78.26 L 80.93 78.90 C 80.73 78.77 80.34 78.51 80.15 78.38 Z" />
</g>
<g id="#38b8e8ff">
<path fill="#ffffff" opacity="1.00" d=" M 61.37 79.35 C 64.19 77.91 67.63 80.82 66.87 83.84 C 66.10 86.59 63.10 87.60 60.61 86.35 C 60.59 86.34 60.54 86.34 60.51 86.33 C 58.37 84.41 58.54 80.49 61.37 79.35 Z" />
</g>
<g id="#2038c8ff">
<path fill="#ffffff" opacity="1.00" d=" M 67.19 85.16 C 70.58 84.00 73.88 82.60 76.95 80.75 C 77.41 81.61 77.87 82.47 78.33 83.34 L 78.79 84.18 C 75.98 86.17 72.72 87.41 69.46 88.45 C 69.02 88.09 68.14 87.38 67.70 87.02 C 67.58 86.56 67.32 85.62 67.19 85.16 Z" />
</g>
<g id="#102078ff">
<path fill="#ffffff" opacity="1.00" d=" M 60.61 86.35 C 63.10 87.60 66.10 86.59 66.87 83.84 C 66.95 84.17 67.11 84.83 67.19 85.16 C 67.32 85.62 67.58 86.56 67.70 87.02 C 68.14 87.38 69.02 88.09 69.46 88.45 L 69.83 88.74 C 66.31 89.20 62.82 90.24 59.25 89.91 C 59.65 88.70 60.11 87.51 60.61 86.35 Z" />
</g>
<g id="#f08038ff">
<path fill="#ffffff" opacity="1.00" d=" M 84.81 91.69 C 89.50 90.03 92.89 86.30 96.98 83.65 C 97.71 87.15 95.76 91.24 92.04 91.90 C 89.64 92.01 87.17 92.24 84.81 91.69 Z" />
</g>
</svg>
