<?xml version="1.0" encoding="UTF-8" ?>
<!DOCTYPE svg PUBLIC "-//W3C//DTD SVG 1.1//EN" "http://www.w3.org/Graphics/SVG/1.1/DTD/svg11.dtd">
<svg width="117px" height="140px" viewBox="0 0 117 140" version="1.1" xmlns="http://www.w3.org/2000/svg">
<g id="#000000ff">
<path fill="#181818" opacity="1.00" d=" M 0.00 0.00 L 117.00 0.00 L 117.00 140.00 L 0.00 140.00 L 0.00 0.00 M 24.41 12.72 L 24.62 13.74 C 24.11 13.60 23.09 13.32 22.57 13.18 L 22.66 14.06 C 20.43 15.04 18.37 16.35 16.42 17.80 L 16.89 18.40 L 15.59 18.43 L 15.43 19.74 L 14.26 19.15 L 14.70 20.32 L 13.46 20.64 L 13.45 21.89 L 12.77 21.38 C 11.88 22.77 10.98 24.14 10.15 25.56 L 9.35 25.68 C 9.41 26.18 9.52 27.19 9.58 27.70 L 8.15 27.59 C 8.30 28.08 8.61 29.07 8.76 29.57 L 7.42 29.50 C 7.44 30.28 7.49 31.84 7.52 32.61 L 6.48 32.43 C 6.45 33.11 6.38 34.48 6.34 35.16 C 5.14 38.29 5.40 41.69 5.37 44.98 C 5.39 62.64 5.38 80.29 5.37 97.95 C 5.38 100.28 5.54 102.62 6.08 104.89 C 6.43 106.04 6.80 107.17 7.21 108.30 C 7.31 108.85 7.50 109.97 7.60 110.52 L 8.74 110.40 C 8.60 110.91 8.32 111.91 8.17 112.41 L 9.21 112.31 C 9.43 112.93 9.88 114.16 10.10 114.77 C 11.02 116.04 11.94 117.29 12.83 118.57 L 13.43 118.10 L 13.44 119.41 L 14.75 119.60 L 14.16 120.76 L 15.38 120.28 L 15.59 121.61 L 16.87 121.50 L 16.39 122.25 C 17.78 123.13 19.16 124.04 20.60 124.86 L 20.67 125.66 C 21.00 125.64 21.66 125.60 21.99 125.58 C 22.64 125.90 23.95 126.54 24.60 126.86 L 24.52 127.60 C 25.31 127.57 26.88 127.50 27.67 127.47 L 27.38 128.49 C 28.06 128.54 29.41 128.63 30.09 128.67 C 32.59 129.66 35.33 129.62 37.97 129.63 C 52.33 129.60 66.68 129.64 81.03 129.61 C 84.24 129.66 87.31 128.56 90.52 128.54 C 91.49 128.06 92.47 127.57 93.46 127.12 L 93.40 126.80 C 94.68 126.41 95.86 125.77 97.14 125.37 C 98.59 124.26 100.08 123.21 101.57 122.16 L 101.30 121.10 L 102.62 121.97 L 102.29 120.35 L 103.87 120.72 L 103.22 119.58 L 104.57 119.43 L 104.56 118.09 L 105.24 118.62 C 106.13 117.22 107.04 115.85 107.87 114.42 L 108.65 114.34 C 108.59 113.83 108.45 112.81 108.38 112.30 L 109.81 112.51 C 109.67 111.97 109.40 110.89 109.27 110.34 L 110.55 110.61 C 110.54 109.78 110.52 108.11 110.51 107.28 L 111.54 107.63 C 111.57 106.96 111.62 105.60 111.65 104.93 C 113.16 100.79 112.46 96.31 112.62 92.01 C 112.44 73.17 112.98 54.33 112.32 35.51 L 111.50 35.74 C 111.53 34.88 111.57 33.16 111.59 32.29 L 110.51 32.79 C 110.53 31.95 110.56 30.28 110.57 29.44 L 109.27 29.63 C 109.41 29.10 109.68 28.03 109.82 27.50 L 108.79 27.74 C 108.58 27.10 108.17 25.82 107.97 25.18 C 107.07 24.06 106.16 22.95 105.16 21.93 C 104.97 21.50 104.59 20.66 104.40 20.24 L 103.33 20.74 L 103.71 19.15 L 102.56 19.75 L 102.43 18.42 L 101.09 18.42 L 101.56 17.84 C 100.29 16.95 99.04 16.02 97.79 15.09 C 97.16 14.87 95.91 14.41 95.29 14.18 L 95.43 13.16 C 94.92 13.31 93.92 13.60 93.41 13.75 L 93.54 12.45 C 92.70 12.45 91.03 12.47 90.20 12.48 L 90.66 11.41 C 88.88 11.41 87.10 11.41 85.32 11.44 L 85.68 10.46 C 70.11 10.28 54.55 10.44 38.98 10.37 C 34.02 10.19 29.15 11.41 24.41 12.72 Z" />
<path fill="#181818" opacity="1.00" d=" M 27.16 12.63 C 30.13 12.63 33.07 12.36 35.95 11.65 C 52.02 11.57 68.10 11.65 84.17 11.62 C 86.98 12.38 89.83 13.00 92.65 13.69 L 92.55 14.53 C 92.92 14.52 93.66 14.50 94.03 14.48 C 94.67 14.82 95.96 15.48 96.60 15.81 L 96.56 16.64 C 97.11 16.57 98.22 16.44 98.77 16.37 L 98.19 17.87 L 99.70 17.21 L 99.53 18.01 C 101.60 19.56 103.44 21.41 105.00 23.48 L 105.76 23.27 L 105.19 24.80 L 106.65 24.27 C 106.57 24.82 106.42 25.91 106.35 26.46 L 107.18 26.39 C 107.51 27.04 108.18 28.33 108.51 28.97 C 108.50 29.34 108.48 30.06 108.47 30.43 L 109.34 30.36 C 109.84 32.47 110.43 34.55 110.75 36.69 L 111.46 36.20 C 111.31 58.13 111.36 80.06 111.43 101.99 L 110.90 101.50 C 110.68 104.26 110.08 106.97 109.34 109.64 L 108.49 109.55 C 108.49 109.93 108.51 110.68 108.52 111.05 C 108.19 111.68 107.53 112.95 107.20 113.58 L 106.37 113.55 C 106.43 114.11 106.56 115.23 106.62 115.79 L 105.15 115.14 L 105.80 116.70 L 105.00 116.50 C 103.45 118.60 101.58 120.46 99.48 122.01 L 99.75 122.76 L 98.12 122.21 L 98.80 123.62 C 98.24 123.56 97.12 123.43 96.56 123.37 L 96.58 124.23 C 95.94 124.55 94.66 125.19 94.02 125.52 C 93.62 125.51 92.82 125.51 92.42 125.50 L 92.77 126.38 C 90.22 126.87 87.66 127.90 85.03 127.40 C 85.08 127.64 85.18 128.11 85.23 128.35 C 67.21 128.47 49.19 128.26 31.17 128.46 L 31.76 127.75 C 29.59 127.43 27.49 126.85 25.37 126.34 L 25.53 125.52 C 25.13 125.51 24.34 125.51 23.94 125.51 C 23.31 125.18 22.04 124.52 21.40 124.20 L 21.46 123.38 C 20.89 123.44 19.75 123.54 19.18 123.60 L 19.90 122.14 L 18.28 122.79 L 18.49 122.00 C 16.40 120.45 14.55 118.59 13.01 116.51 L 12.19 116.69 L 12.86 115.19 L 11.34 115.74 C 11.42 115.20 11.58 114.12 11.66 113.58 L 10.80 113.58 C 10.47 112.95 9.83 111.70 9.50 111.07 C 9.49 110.67 9.47 109.87 9.46 109.47 L 8.22 109.54 C 8.36 109.01 8.64 107.95 8.78 107.42 L 7.69 107.67 C 7.57 105.76 7.43 103.82 6.63 102.06 C 6.55 80.48 6.73 58.88 6.54 37.30 L 7.18 37.44 C 7.43 35.03 8.07 32.69 8.66 30.35 L 9.51 30.53 C 9.51 30.14 9.51 29.35 9.51 28.96 C 9.84 28.32 10.49 27.04 10.81 26.40 L 11.67 26.45 C 11.58 25.92 11.40 24.86 11.31 24.33 L 12.41 24.77 C 12.56 24.34 12.86 23.50 13.01 23.07 C 14.76 21.31 16.52 19.55 18.46 18.00 L 18.32 17.19 L 19.83 17.87 L 19.23 16.37 C 19.78 16.44 20.90 16.57 21.45 16.64 L 21.35 15.69 C 22.01 15.49 23.31 15.08 23.96 14.88 C 24.46 14.48 25.47 13.67 25.97 13.27 C 26.37 13.46 27.17 13.83 27.57 14.02 L 27.16 12.63 M 60.33 27.13 C 56.35 31.12 52.34 35.08 48.39 39.10 C 50.13 41.01 52.50 41.54 55.00 41.35 C 55.00 43.34 55.00 45.32 55.00 47.31 C 53.08 47.31 51.16 47.32 49.25 47.34 C 49.00 45.57 48.60 43.83 48.17 42.11 C 47.75 41.81 46.90 41.22 46.48 40.92 C 42.63 44.88 38.69 48.75 34.79 52.66 C 38.78 56.61 42.71 60.60 46.71 64.53 C 47.48 63.66 48.24 62.78 49.01 61.91 C 49.00 60.61 49.00 59.30 49.00 58.00 C 51.00 58.00 53.00 58.00 55.00 58.00 C 55.00 59.96 55.00 61.92 55.00 63.89 C 52.47 63.67 50.11 64.32 48.42 66.28 C 52.38 70.26 56.39 74.21 60.34 78.22 C 64.25 74.32 68.12 70.37 72.09 66.52 C 71.79 66.10 71.18 65.25 70.88 64.83 C 69.17 64.40 67.45 64.00 65.70 63.76 C 65.72 61.84 65.73 59.92 65.73 58.00 C 67.70 58.00 69.67 58.00 71.63 58.00 C 71.43 60.51 71.99 62.88 73.91 64.61 C 77.93 60.65 81.90 56.64 85.90 52.65 C 81.95 48.72 78.03 44.77 74.08 40.84 C 73.68 41.19 72.88 41.87 72.48 42.21 C 72.11 43.91 71.75 45.61 71.47 47.32 C 69.56 47.31 67.65 47.31 65.75 47.31 C 65.73 45.37 65.72 43.44 65.69 41.51 C 67.41 41.21 69.12 40.87 70.82 40.52 C 71.14 40.11 71.78 39.30 72.10 38.89 C 68.19 34.96 64.29 31.01 60.33 27.13 Z" />
<path fill="#181818" opacity="1.00" d=" M 60.34 30.94 C 62.89 33.51 65.46 36.05 68.02 38.61 C 66.35 38.61 64.67 38.60 63.00 38.60 C 63.00 42.40 63.00 46.20 63.00 50.00 C 66.81 50.00 70.62 50.00 74.43 50.00 C 74.43 48.34 74.42 46.68 74.41 45.02 C 76.97 47.56 79.53 50.11 82.08 52.67 C 79.54 55.22 77.01 57.78 74.38 60.23 C 74.39 58.60 74.41 56.96 74.43 55.33 C 70.62 55.30 66.81 55.31 63.00 55.31 C 63.00 59.12 63.00 62.94 63.00 66.75 C 64.66 66.75 66.32 66.75 67.98 66.76 C 65.45 69.31 62.90 71.84 60.36 74.38 C 57.80 71.85 55.26 69.31 52.73 66.75 C 54.37 66.72 56.02 66.75 57.66 66.74 C 57.66 62.93 57.67 59.13 57.65 55.32 C 53.86 55.31 50.08 55.31 46.29 55.31 C 46.26 56.97 46.28 58.63 46.25 60.29 C 43.70 57.75 41.15 55.21 38.62 52.65 C 41.19 50.12 43.73 47.56 46.28 45.02 C 46.27 46.68 46.27 48.34 46.27 50.00 C 50.07 50.00 53.87 50.00 57.66 50.00 C 57.66 46.20 57.67 42.39 57.65 38.59 C 56.02 38.61 54.38 38.63 52.75 38.65 C 55.22 36.02 57.80 33.50 60.34 30.94 Z" />
</g>
<g id="#f1f6f5ff">
<path fill="#ffffff" opacity="1.00" d=" M 24.41 12.72 C 29.15 11.41 34.02 10.19 38.98 10.37 C 54.55 10.44 70.11 10.28 85.68 10.46 L 85.32 11.44 C 87.10 11.41 88.88 11.41 90.66 11.41 L 90.20 12.48 C 91.03 12.47 92.70 12.45 93.54 12.45 L 93.41 13.75 C 93.92 13.60 94.92 13.31 95.43 13.16 L 95.29 14.18 C 95.91 14.41 97.16 14.87 97.79 15.09 C 99.04 16.02 100.29 16.95 101.56 17.84 L 101.09 18.42 L 102.43 18.42 L 102.56 19.75 L 103.71 19.15 L 103.33 20.74 L 104.40 20.24 C 104.59 20.66 104.97 21.50 105.16 21.93 C 106.16 22.95 107.07 24.06 107.97 25.18 C 108.17 25.82 108.58 27.10 108.79 27.74 L 109.82 27.50 C 109.68 28.03 109.41 29.10 109.27 29.63 L 110.57 29.44 C 110.56 30.28 110.53 31.95 110.51 32.79 L 111.59 32.29 C 111.57 33.16 111.53 34.88 111.50 35.74 L 112.32 35.51 C 112.98 54.33 112.44 73.17 112.62 92.01 C 112.46 96.31 113.16 100.79 111.65 104.93 C 111.62 105.60 111.57 106.96 111.54 107.63 L 110.51 107.28 C 110.52 108.11 110.54 109.78 110.55 110.61 L 109.27 110.34 C 109.40 110.89 109.67 111.97 109.81 112.51 L 108.38 112.30 C 108.45 112.81 108.59 113.83 108.65 114.34 L 107.87 114.42 C 107.04 115.85 106.13 117.22 105.24 118.62 L 104.56 118.09 L 104.57 119.43 L 103.22 119.58 L 103.87 120.72 L 102.29 120.35 L 102.62 121.97 L 101.30 121.10 L 101.57 122.16 C 100.08 123.21 98.59 124.26 97.14 125.37 C 95.86 125.77 94.68 126.41 93.40 126.80 L 93.46 127.12 C 92.47 127.57 91.49 128.06 90.52 128.54 C 87.31 128.56 84.24 129.66 81.03 129.61 C 66.68 129.64 52.33 129.60 37.97 129.63 C 35.33 129.62 32.59 129.66 30.09 128.67 C 29.41 128.63 28.06 128.54 27.38 128.49 L 27.67 127.47 C 26.88 127.50 25.31 127.57 24.52 127.60 L 24.60 126.86 C 23.95 126.54 22.64 125.90 21.99 125.58 C 21.66 125.60 21.00 125.64 20.67 125.66 L 20.60 124.86 C 19.16 124.04 17.78 123.13 16.39 122.25 L 16.87 121.50 L 15.59 121.61 L 15.38 120.28 L 14.16 120.76 L 14.75 119.60 L 13.44 119.41 L 13.43 118.10 L 12.83 118.57 C 11.94 117.29 11.02 116.04 10.10 114.77 C 9.88 114.16 9.43 112.93 9.21 112.31 L 8.17 112.41 C 8.32 111.91 8.60 110.91 8.74 110.40 L 7.60 110.52 C 7.50 109.97 7.31 108.85 7.21 108.30 C 6.80 107.17 6.43 106.04 6.08 104.89 C 5.54 102.62 5.38 100.28 5.37 97.95 C 5.38 80.29 5.39 62.64 5.37 44.98 C 5.40 41.69 5.14 38.29 6.34 35.16 C 6.38 34.48 6.45 33.11 6.48 32.43 L 7.52 32.61 C 7.49 31.84 7.44 30.28 7.42 29.50 L 8.76 29.57 C 8.61 29.07 8.30 28.08 8.15 27.59 L 9.58 27.70 C 9.52 27.19 9.41 26.18 9.35 25.68 L 10.15 25.56 C 10.98 24.14 11.88 22.77 12.77 21.38 L 13.45 21.89 L 13.46 20.64 L 14.70 20.32 L 14.26 19.15 L 15.43 19.74 L 15.59 18.43 L 16.89 18.40 L 16.42 17.80 C 18.37 16.35 20.43 15.04 22.66 14.06 L 22.57 13.18 C 23.09 13.32 24.11 13.60 24.62 13.74 L 24.41 12.72 M 27.16 12.63 L 27.57 14.02 C 27.17 13.83 26.37 13.46 25.97 13.27 C 25.47 13.67 24.46 14.48 23.96 14.88 C 23.31 15.08 22.01 15.49 21.35 15.69 L 21.45 16.64 C 20.90 16.57 19.78 16.44 19.23 16.37 L 19.83 17.87 L 18.32 17.19 L 18.46 18.00 C 16.52 19.55 14.76 21.31 13.01 23.07 C 12.86 23.50 12.56 24.34 12.41 24.77 L 11.31 24.33 C 11.40 24.86 11.58 25.92 11.67 26.45 L 10.81 26.40 C 10.49 27.04 9.84 28.32 9.51 28.96 C 9.51 29.35 9.51 30.14 9.51 30.53 L 8.66 30.35 C 8.07 32.69 7.43 35.03 7.18 37.44 L 6.54 37.30 C 6.73 58.88 6.55 80.48 6.63 102.06 C 7.43 103.82 7.57 105.76 7.69 107.67 L 8.78 107.42 C 8.64 107.95 8.36 109.01 8.22 109.54 L 9.46 109.47 C 9.47 109.87 9.49 110.67 9.50 111.07 C 9.83 111.70 10.47 112.95 10.80 113.58 L 11.66 113.58 C 11.58 114.12 11.42 115.20 11.34 115.74 L 12.86 115.19 L 12.19 116.69 L 13.01 116.51 C 14.55 118.59 16.40 120.45 18.49 122.00 L 18.28 122.79 L 19.90 122.14 L 19.18 123.60 C 19.75 123.54 20.89 123.44 21.46 123.38 L 21.40 124.20 C 22.04 124.52 23.31 125.18 23.94 125.51 C 24.34 125.51 25.13 125.51 25.53 125.52 L 25.37 126.34 C 27.49 126.85 29.59 127.43 31.76 127.75 L 31.17 128.46 C 49.19 128.26 67.21 128.47 85.23 128.35 C 85.18 128.11 85.08 127.64 85.03 127.40 C 87.66 127.90 90.22 126.87 92.77 126.38 L 92.42 125.50 C 92.82 125.51 93.62 125.51 94.02 125.52 C 94.66 125.19 95.94 124.55 96.58 124.23 L 96.56 123.37 C 97.12 123.43 98.24 123.56 98.80 123.62 L 98.12 122.21 L 99.75 122.76 L 99.48 122.01 C 101.58 120.46 103.45 118.60 105.00 116.50 L 105.80 116.70 L 105.15 115.14 L 106.62 115.79 C 106.56 115.23 106.43 114.11 106.37 113.55 L 107.20 113.58 C 107.53 112.95 108.19 111.68 108.52 111.05 C 108.51 110.68 108.49 109.93 108.49 109.55 L 109.34 109.64 C 110.08 106.97 110.68 104.26 110.90 101.50 L 111.43 101.99 C 111.36 80.06 111.31 58.13 111.46 36.20 L 110.75 36.69 C 110.43 34.55 109.84 32.47 109.34 30.36 L 108.47 30.43 C 108.48 30.06 108.50 29.34 108.51 28.97 C 108.18 28.33 107.51 27.04 107.18 26.39 L 106.35 26.46 C 106.42 25.91 106.57 24.82 106.65 24.27 L 105.19 24.80 L 105.76 23.27 L 105.00 23.48 C 103.44 21.41 101.60 19.56 99.53 18.01 L 99.70 17.21 L 98.19 17.87 L 98.77 16.37 C 98.22 16.44 97.11 16.57 96.56 16.64 L 96.60 15.81 C 95.96 15.48 94.67 14.82 94.03 14.48 C 93.66 14.50 92.92 14.52 92.55 14.53 L 92.65 13.69 C 89.83 13.00 86.98 12.38 84.17 11.62 C 68.10 11.65 52.02 11.57 35.95 11.65 C 33.07 12.36 30.13 12.63 27.16 12.63 Z" />
<path fill="#ffffff" opacity="1.00" d=" M 60.33 27.13 C 64.29 31.01 68.19 34.96 72.10 38.89 C 71.78 39.30 71.14 40.11 70.82 40.52 C 69.12 40.87 67.41 41.21 65.69 41.51 C 65.72 43.44 65.73 45.37 65.75 47.31 C 67.65 47.31 69.56 47.31 71.47 47.32 C 71.75 45.61 72.11 43.91 72.48 42.21 C 72.88 41.87 73.68 41.19 74.08 40.84 C 78.03 44.77 81.95 48.72 85.90 52.65 C 81.90 56.64 77.93 60.65 73.91 64.61 C 71.99 62.88 71.43 60.51 71.63 58.00 C 69.67 58.00 67.70 58.00 65.73 58.00 C 65.73 59.92 65.72 61.84 65.70 63.76 C 67.45 64.00 69.17 64.40 70.88 64.83 C 71.18 65.25 71.79 66.10 72.09 66.52 C 68.12 70.37 64.25 74.32 60.34 78.22 C 56.39 74.21 52.38 70.26 48.42 66.28 C 50.11 64.32 52.47 63.67 55.00 63.89 C 55.00 61.92 55.00 59.96 55.00 58.00 C 53.00 58.00 51.00 58.00 49.00 58.00 C 49.00 59.30 49.00 60.61 49.01 61.91 C 48.24 62.78 47.48 63.66 46.71 64.53 C 42.71 60.60 38.78 56.61 34.79 52.66 C 38.69 48.75 42.63 44.88 46.48 40.92 C 46.90 41.22 47.75 41.81 48.17 42.11 C 48.60 43.83 49.00 45.57 49.25 47.34 C 51.16 47.32 53.08 47.31 55.00 47.31 C 55.00 45.32 55.00 43.34 55.00 41.35 C 52.50 41.54 50.13 41.01 48.39 39.10 C 52.34 35.08 56.35 31.12 60.33 27.13 M 60.34 30.94 C 57.80 33.50 55.22 36.02 52.75 38.65 C 54.38 38.63 56.02 38.61 57.65 38.59 C 57.67 42.39 57.66 46.20 57.66 50.00 C 53.87 50.00 50.07 50.00 46.27 50.00 C 46.27 48.34 46.27 46.68 46.28 45.02 C 43.73 47.56 41.19 50.12 38.62 52.65 C 41.15 55.21 43.70 57.75 46.25 60.29 C 46.28 58.63 46.26 56.97 46.29 55.31 C 50.08 55.31 53.86 55.31 57.65 55.32 C 57.67 59.13 57.66 62.93 57.66 66.74 C 56.02 66.75 54.37 66.72 52.73 66.75 C 55.26 69.31 57.80 71.85 60.36 74.38 C 62.90 71.84 65.45 69.31 67.98 66.76 C 66.32 66.75 64.66 66.75 63.00 66.75 C 63.00 62.94 63.00 59.12 63.00 55.31 C 66.81 55.31 70.62 55.30 74.43 55.33 C 74.41 56.96 74.39 58.60 74.38 60.23 C 77.01 57.78 79.54 55.22 82.08 52.67 C 79.53 50.11 76.97 47.56 74.41 45.02 C 74.42 46.68 74.43 48.34 74.43 50.00 C 70.62 50.00 66.81 50.00 63.00 50.00 C 63.00 46.20 63.00 42.40 63.00 38.60 C 64.67 38.60 66.35 38.61 68.02 38.61 C 65.46 36.05 62.89 33.51 60.34 30.94 Z" />
</g>
</svg>
