<?xml version="1.0" encoding="UTF-8" ?>
<!DOCTYPE svg PUBLIC "-//W3C//DTD SVG 1.1//EN" "http://www.w3.org/Graphics/SVG/1.1/DTD/svg11.dtd">
<svg width="117px" height="140px" viewBox="0 0 117 140" version="1.1" xmlns="http://www.w3.org/2000/svg">
<g id="#000000ff">
<path fill="#000000" opacity="1.00" d=" M 0.00 0.00 L 117.00 0.00 L 117.00 140.00 L 0.00 140.00 L 0.00 0.00 M 33.21 10.23 C 17.97 11.76 5.23 25.57 5.03 40.90 C 4.96 59.93 5.02 78.96 5.00 97.98 C 4.94 106.63 8.65 115.20 14.93 121.13 C 21.03 127.05 29.57 130.25 38.05 130.02 C 53.05 129.92 68.04 130.13 83.04 129.91 C 99.00 129.28 112.86 114.97 112.97 99.00 C 113.04 79.98 112.98 60.97 113.00 41.95 C 113.05 32.86 108.92 23.89 102.06 17.94 C 95.83 12.37 87.37 9.63 79.06 9.98 C 63.78 10.18 48.48 9.68 33.21 10.23 Z" />
<path fill="#000000" opacity="1.00" d=" M 33.24 12.34 C 48.80 11.73 64.41 12.24 79.99 12.07 C 89.80 11.76 99.68 16.49 105.30 24.58 C 108.94 29.63 110.98 35.79 110.91 42.03 C 110.95 60.68 110.95 79.34 110.91 98.00 C 111.04 108.72 104.80 119.25 95.31 124.25 C 90.38 127.09 84.61 128.05 78.98 127.94 C 64.29 127.84 49.60 128.08 34.91 127.82 C 20.10 127.16 7.24 113.89 7.13 99.05 C 7.03 79.70 7.03 60.34 7.12 40.99 C 7.26 26.75 19.07 13.81 33.24 12.34 M 56.13 38.08 C 55.19 40.95 54.81 43.98 54.98 47.00 C 52.99 47.00 50.99 47.00 49.00 47.00 C 49.00 47.75 49.00 49.25 49.00 50.00 C 50.98 50.00 52.96 50.00 54.95 50.00 C 54.85 52.69 55.34 55.34 56.13 57.91 C 58.69 58.87 61.61 58.68 63.52 56.55 C 66.25 53.83 71.04 52.33 71.47 48.00 C 70.94 43.48 65.87 41.94 63.02 39.05 C 61.22 37.04 58.45 37.37 56.13 38.08 M 42.00 47.00 C 42.00 47.75 42.00 49.25 42.00 50.00 C 44.00 50.00 46.00 50.00 48.00 50.00 C 48.00 49.25 48.00 47.75 48.00 47.00 C 46.00 47.00 44.00 47.00 42.00 47.00 M 57.83 77.35 C 52.39 77.43 46.95 77.39 41.51 77.37 C 41.56 75.68 41.61 73.99 41.66 72.31 C 41.03 72.26 39.76 72.16 39.12 72.10 C 39.28 74.65 37.97 78.53 40.98 79.82 C 52.97 80.01 65.00 80.02 77.00 79.82 C 80.03 78.57 78.70 74.68 78.92 72.15 C 78.28 72.18 76.99 72.25 76.35 72.28 C 76.40 73.97 76.44 75.67 76.48 77.37 C 71.05 77.39 65.61 77.42 60.17 77.35 C 60.30 75.25 60.37 73.13 60.01 71.04 C 56.37 70.80 58.05 75.18 57.83 77.35 Z" />
<path fill="#000000" opacity="1.00" d=" M 60.00 41.81 C 62.67 43.86 65.33 45.93 67.99 48.00 C 65.33 50.07 62.67 52.14 60.00 54.19 C 60.00 50.06 60.00 45.94 60.00 41.81 Z" />
</g>
<g id="#737473ff">
<path fill="#737473" opacity="1.00" d=" M 33.21 10.23 C 48.48 9.68 63.78 10.18 79.06 9.98 C 87.37 9.63 95.83 12.37 102.06 17.94 C 108.92 23.89 113.05 32.86 113.00 41.95 C 112.98 60.97 113.04 79.98 112.97 99.00 C 112.86 114.97 99.00 129.28 83.04 129.91 C 68.04 130.13 53.05 129.92 38.05 130.02 C 29.57 130.25 21.03 127.05 14.93 121.13 C 8.65 115.20 4.94 106.63 5.00 97.98 C 5.02 78.96 4.96 59.93 5.03 40.90 C 5.23 25.57 17.97 11.76 33.21 10.23 M 33.24 12.34 C 19.07 13.81 7.26 26.75 7.12 40.99 C 7.03 60.34 7.03 79.70 7.13 99.05 C 7.24 113.89 20.10 127.16 34.91 127.82 C 49.60 128.08 64.29 127.84 78.98 127.94 C 84.61 128.05 90.38 127.09 95.31 124.25 C 104.80 119.25 111.04 108.72 110.91 98.00 C 110.95 79.34 110.95 60.68 110.91 42.03 C 110.98 35.79 108.94 29.63 105.30 24.58 C 99.68 16.49 89.80 11.76 79.99 12.07 C 64.41 12.24 48.80 11.73 33.24 12.34 Z" />
</g>
<g id="#f8fcf8ff">
<path fill="#f8fcf8" opacity="1.00" d=" M 56.13 38.08 C 58.45 37.37 61.22 37.04 63.02 39.05 C 65.87 41.94 70.94 43.48 71.47 48.00 C 71.04 52.33 66.25 53.83 63.52 56.55 C 61.61 58.68 58.69 58.87 56.13 57.91 C 55.34 55.34 54.85 52.69 54.95 50.00 C 52.96 50.00 50.98 50.00 49.00 50.00 C 49.00 49.25 49.00 47.75 49.00 47.00 C 50.99 47.00 52.99 47.00 54.98 47.00 C 54.81 43.98 55.19 40.95 56.13 38.08 M 60.00 41.81 C 60.00 45.94 60.00 50.06 60.00 54.19 C 62.67 52.14 65.33 50.07 67.99 48.00 C 65.33 45.93 62.67 43.86 60.00 41.81 Z" />
<path fill="#f8fcf8" opacity="1.00" d=" M 42.00 47.00 C 44.00 47.00 46.00 47.00 48.00 47.00 C 48.00 47.75 48.00 49.25 48.00 50.00 C 46.00 50.00 44.00 50.00 42.00 50.00 C 42.00 49.25 42.00 47.75 42.00 47.00 Z" />
<path fill="#f8fcf8" opacity="1.00" d=" M 57.83 77.35 C 58.05 75.18 56.37 70.80 60.01 71.04 C 60.37 73.13 60.30 75.25 60.17 77.35 C 65.61 77.42 71.05 77.39 76.48 77.37 C 76.44 75.67 76.40 73.97 76.35 72.28 C 76.99 72.25 78.28 72.18 78.92 72.15 C 78.70 74.68 80.03 78.57 77.00 79.82 C 65.00 80.02 52.97 80.01 40.98 79.82 C 37.97 78.53 39.28 74.65 39.12 72.10 C 39.76 72.16 41.03 72.26 41.66 72.31 C 41.61 73.99 41.56 75.68 41.51 77.37 C 46.95 77.39 52.39 77.43 57.83 77.35 Z" />
</g>
</svg>
