<?xml version="1.0" encoding="UTF-8" ?>
<!DOCTYPE svg PUBLIC "-//W3C//DTD SVG 1.1//EN" "http://www.w3.org/Graphics/SVG/1.1/DTD/svg11.dtd">
<svg width="117px" height="140px" viewBox="0 0 117 140" version="1.1" xmlns="http://www.w3.org/2000/svg">
<g id="#000000ff">
<path fill="#181818" opacity="1.00" d=" M 0.00 0.00 L 117.00 0.00 L 117.00 140.00 L 0.00 140.00 L 0.00 0.00 M 38.22 33.33 C 35.21 33.58 31.58 35.58 31.79 39.04 C 31.73 48.69 31.77 58.35 31.77 68.00 C 31.52 70.97 33.78 74.44 37.04 74.18 C 51.68 74.19 66.32 74.21 80.96 74.16 C 84.19 74.30 85.59 70.65 85.47 67.95 C 85.49 59.67 85.54 51.38 85.46 43.10 C 85.68 39.63 82.31 37.11 79.10 37.07 C 70.35 36.84 61.58 37.21 52.83 36.88 C 48.29 34.65 43.44 32.47 38.22 33.33 Z" />
</g>
<g id="#6a6d6aff">
<path fill="#ffffff" opacity="1.00" d=" M 33.15 10.22 C 48.75 9.69 64.39 10.17 80.01 9.98 C 89.65 9.69 99.33 13.96 105.49 21.41 C 110.57 27.37 113.24 35.23 113.02 43.04 C 112.92 62.06 113.13 81.08 112.92 100.10 C 112.28 116.05 97.98 129.85 82.03 129.97 C 66.64 130.03 51.25 130.01 35.87 129.98 C 19.59 129.79 5.16 115.37 5.02 99.09 C 4.98 79.71 4.98 60.33 5.02 40.96 C 5.17 25.62 17.91 11.78 33.15 10.22 M 33.18 12.26 C 19.00 13.81 7.16 26.74 7.04 41.04 C 6.98 60.37 6.97 79.71 7.04 99.05 C 7.17 113.93 20.10 127.24 34.94 127.91 C 47.29 128.12 59.64 127.94 71.99 128.00 C 78.63 127.90 85.56 128.62 91.84 125.97 C 103.10 121.69 111.22 110.13 110.98 98.02 C 110.99 79.00 111.05 59.98 110.95 40.96 C 110.85 25.72 97.29 12.20 82.06 12.05 C 65.77 12.09 49.45 11.71 33.18 12.26 Z" />
</g>
<g id="#f8bf62ff">
<path fill="#ffffff" opacity="1.00" d=" M 38.22 33.33 C 43.44 32.47 48.29 34.65 52.83 36.88 C 61.58 37.21 70.35 36.84 79.10 37.07 C 82.31 37.11 85.68 39.63 85.46 43.10 C 85.54 51.38 85.49 59.67 85.47 67.95 C 85.59 70.65 84.19 74.30 80.96 74.16 C 66.32 74.21 51.68 74.19 37.04 74.18 C 33.78 74.44 31.52 70.97 31.77 68.00 C 31.77 58.35 31.73 48.69 31.79 39.04 C 31.58 35.58 35.21 33.58 38.22 33.33 Z" />
</g>
</svg>
