<?xml version="1.0" encoding="UTF-8" ?>
<!DOCTYPE svg PUBLIC "-//W3C//DTD SVG 1.1//EN" "http://www.w3.org/Graphics/SVG/1.1/DTD/svg11.dtd">
<svg width="117px" height="92px" viewBox="0 0 117 92" version="1.1" xmlns="http://www.w3.org/2000/svg">
<g id="#000000ff">
<path fill="#000000" opacity="1.00" d=" M 0.00 0.00 L 117.00 0.00 L 117.00 92.00 L 0.00 92.00 L 0.00 0.00 M 30.53 8.72 C 24.08 9.73 18.25 13.15 13.51 17.54 C 7.41 23.65 4.06 32.35 4.29 40.97 C 4.47 47.42 3.56 54.09 5.74 60.32 C 9.44 73.34 22.47 82.94 36.00 82.69 C 50.65 82.70 65.31 82.73 79.96 82.68 C 88.07 82.69 96.06 79.49 102.01 74.01 C 108.32 67.76 111.99 58.91 111.70 50.01 C 111.54 43.49 112.26 36.79 110.26 30.48 C 106.45 17.97 94.19 8.47 81.03 8.36 C 68.68 8.28 56.32 8.41 43.96 8.30 C 39.49 8.34 34.97 8.04 30.53 8.72 Z" />
<path fill="#000000" opacity="1.00" d=" M 5.69 38.99 C 5.80 23.55 19.56 9.87 34.97 9.66 C 49.96 9.65 64.96 9.65 79.96 9.65 C 90.11 9.50 100.03 15.04 105.42 23.61 C 107.79 27.02 108.96 31.05 110.32 34.93 C 109.86 44.41 111.99 54.52 107.65 63.39 C 103.89 72.21 95.53 78.77 86.19 80.71 C 82.20 81.68 78.06 81.28 74.00 81.33 C 59.64 81.33 45.28 81.30 30.92 81.33 C 21.53 78.93 12.78 73.08 8.66 64.06 C 4.51 56.33 5.87 47.39 5.69 38.99 M 56.01 30.51 C 53.17 34.02 48.97 35.85 45.37 38.40 C 42.99 40.09 40.49 41.59 37.96 43.05 C 36.36 43.55 36.48 45.39 36.00 46.68 C 41.72 49.54 46.84 53.39 52.20 56.83 C 54.19 58.08 56.04 59.56 57.52 61.39 C 58.75 61.44 59.98 61.49 61.21 61.53 C 61.21 58.03 61.25 54.54 61.47 51.06 C 67.20 50.85 72.94 53.09 76.92 57.22 C 78.19 59.33 79.17 61.70 81.32 63.11 C 81.61 60.34 81.76 57.55 81.73 54.76 C 79.49 50.85 77.64 46.57 73.89 43.81 C 70.67 40.65 66.05 40.26 61.92 39.18 C 60.48 36.33 61.57 32.90 61.28 29.81 C 59.52 30.01 57.76 30.22 56.01 30.51 Z" />
</g>
<g id="#e86010ff">
<path fill="#e86010" opacity="1.00" d=" M 30.53 8.72 C 34.97 8.04 39.49 8.34 43.96 8.30 C 56.32 8.41 68.68 8.28 81.03 8.36 C 94.19 8.47 106.45 17.97 110.26 30.48 C 112.26 36.79 111.54 43.49 111.70 50.01 C 111.99 58.91 108.32 67.76 102.01 74.01 C 96.06 79.49 88.07 82.69 79.96 82.68 C 65.31 82.73 50.65 82.70 36.00 82.69 C 22.47 82.94 9.44 73.34 5.74 60.32 C 3.56 54.09 4.47 47.42 4.29 40.97 C 4.06 32.35 7.41 23.65 13.51 17.54 C 18.25 13.15 24.08 9.73 30.53 8.72 M 5.69 38.99 C 5.87 47.39 4.51 56.33 8.66 64.06 C 12.78 73.08 21.53 78.93 30.92 81.33 C 45.28 81.30 59.64 81.33 74.00 81.33 C 78.06 81.28 82.20 81.68 86.19 80.71 C 95.53 78.77 103.89 72.21 107.65 63.39 C 111.99 54.52 109.86 44.41 110.32 34.93 C 108.96 31.05 107.79 27.02 105.42 23.61 C 100.03 15.04 90.11 9.50 79.96 9.65 C 64.96 9.65 49.96 9.65 34.97 9.66 C 19.56 9.87 5.80 23.55 5.69 38.99 Z" />
<path fill="#e86010" opacity="1.00" d=" M 56.01 30.51 C 57.76 30.22 59.52 30.01 61.28 29.81 C 61.57 32.90 60.48 36.33 61.92 39.18 C 66.05 40.26 70.67 40.65 73.89 43.81 C 77.64 46.57 79.49 50.85 81.73 54.76 C 81.76 57.55 81.61 60.34 81.32 63.11 C 79.17 61.70 78.19 59.33 76.92 57.22 C 72.94 53.09 67.20 50.85 61.47 51.06 C 61.25 54.54 61.21 58.03 61.21 61.53 C 59.98 61.49 58.75 61.44 57.52 61.39 C 56.04 59.56 54.19 58.08 52.20 56.83 C 46.84 53.39 41.72 49.54 36.00 46.68 C 36.48 45.39 36.36 43.55 37.96 43.05 C 40.49 41.59 42.99 40.09 45.37 38.40 C 48.97 35.85 53.17 34.02 56.01 30.51 Z" />
</g>
</svg>
