<?xml version="1.0" encoding="UTF-8" ?>
<!DOCTYPE svg PUBLIC "-//W3C//DTD SVG 1.1//EN" "http://www.w3.org/Graphics/SVG/1.1/DTD/svg11.dtd">
<svg width="45px" height="45px" viewBox="0 0 45 45" version="1.1" xmlns="http://www.w3.org/2000/svg">
<g id="#181818ff">
<path fill="#181818" opacity="1.00" d=" M 0.00 0.00 L 45.00 0.00 L 45.00 45.00 L 0.00 45.00 L 0.00 0.00 M 7.97 13.97 C 8.48 13.98 9.49 14.01 10.00 14.03 C 9.99 21.33 10.12 28.63 10.07 35.93 C 17.91 35.74 25.76 35.96 33.59 35.65 C 33.40 36.22 33.01 37.37 32.82 37.95 C 34.42 36.91 36.05 35.94 37.71 35.01 C 36.07 34.05 34.45 33.07 32.85 32.05 C 33.02 32.62 33.37 33.77 33.54 34.34 C 26.21 34.13 18.87 34.08 11.54 34.23 C 15.12 31.47 16.25 26.82 18.66 23.16 C 20.26 24.56 21.94 25.85 23.68 27.06 C 26.38 22.00 29.67 17.24 31.98 11.99 C 28.19 15.94 26.37 21.34 23.34 25.86 C 21.74 24.43 20.04 23.10 18.25 21.90 C 16.18 25.79 14.14 29.69 11.94 33.50 C 11.89 27.02 12.00 20.53 12.00 14.05 C 12.50 14.02 13.50 13.95 14.00 13.92 C 12.99 11.95 12.00 9.97 11.00 8.00 C 9.99 9.99 8.98 11.98 7.97 13.97 Z" />
</g>
<g id="#f8d173ff">
<path fill="#ffffff" opacity="1.00" d=" M 7.97 13.97 C 8.98 11.98 9.99 9.99 11.00 8.00 C 12.00 9.97 12.99 11.95 14.00 13.92 C 13.50 13.95 12.50 14.02 12.00 14.05 C 12.00 20.53 11.89 27.02 11.94 33.50 C 14.14 29.69 16.18 25.79 18.25 21.90 C 20.04 23.10 21.74 24.43 23.34 25.86 C 26.37 21.34 28.19 15.94 31.98 11.99 C 29.67 17.24 26.38 22.00 23.68 27.06 C 21.94 25.85 20.26 24.56 18.66 23.16 C 16.25 26.82 15.12 31.47 11.54 34.23 C 18.87 34.08 26.21 34.13 33.54 34.34 C 33.37 33.77 33.02 32.62 32.85 32.05 C 34.45 33.07 36.07 34.05 37.71 35.01 C 36.05 35.94 34.42 36.91 32.82 37.95 C 33.01 37.37 33.40 36.22 33.59 35.65 C 25.76 35.96 17.91 35.74 10.07 35.93 C 10.12 28.63 9.99 21.33 10.00 14.03 C 9.49 14.01 8.48 13.98 7.97 13.97 Z" />
</g>
</svg>
