<?xml version="1.0" encoding="UTF-8" ?>
<!DOCTYPE svg PUBLIC "-//W3C//DTD SVG 1.1//EN" "http://www.w3.org/Graphics/SVG/1.1/DTD/svg11.dtd">
<svg width="117px" height="140px" viewBox="0 0 117 140" version="1.1" xmlns="http://www.w3.org/2000/svg">
<g id="#000000ff">
<path fill="#000000" opacity="1.00" d=" M 0.00 0.00 L 117.00 0.00 L 117.00 140.00 L 0.00 140.00 L 0.00 0.00 M 33.14 10.21 C 17.90 11.79 5.16 25.63 5.01 40.99 C 5.02 60.69 4.94 80.40 5.05 100.11 C 5.76 116.06 20.04 129.89 36.03 129.99 C 51.70 129.97 67.38 130.08 83.05 129.94 C 98.64 129.29 112.28 115.65 112.95 100.06 C 113.08 80.72 112.95 61.37 113.01 42.03 C 113.10 33.39 109.39 24.83 103.13 18.90 C 97.06 12.99 88.54 9.74 80.08 9.98 C 64.43 10.16 48.77 9.71 33.14 10.21 Z" />
<path fill="#000000" opacity="1.00" d=" M 33.28 12.35 C 48.50 11.71 63.78 12.26 79.02 12.06 C 85.36 11.90 91.81 13.31 97.13 16.86 C 105.61 22.14 110.97 32.02 110.90 41.99 C 110.97 59.32 110.89 76.64 110.94 93.97 C 111.12 100.00 110.57 106.26 107.58 111.62 C 102.73 121.51 91.96 127.96 80.99 127.90 C 66.31 127.95 51.63 127.94 36.95 127.91 C 26.53 127.93 16.23 122.09 11.15 112.95 C 8.26 108.16 6.97 102.54 7.07 96.98 C 7.11 78.32 7.00 59.65 7.13 40.99 C 7.32 26.74 19.09 13.82 33.28 12.35 M 46.05 28.19 C 46.11 34.01 46.09 39.84 46.09 45.67 C 43.75 45.67 41.41 45.68 39.07 45.72 C 39.37 50.37 38.85 55.06 39.36 59.70 C 41.52 63.39 46.58 60.71 49.83 62.00 C 52.78 64.63 55.43 67.59 58.36 70.27 C 54.69 70.36 51.01 70.29 47.34 70.34 C 47.38 72.89 47.39 75.45 47.34 78.00 C 54.56 78.00 61.78 78.00 69.00 78.01 C 70.17 78.09 71.22 77.79 72.17 77.11 C 71.83 76.81 71.15 76.19 70.81 75.88 C 63.96 75.39 57.04 75.80 50.16 75.69 C 50.11 75.05 50.02 73.77 49.97 73.12 C 53.57 73.00 57.17 73.02 60.77 73.05 C 60.79 72.32 60.84 70.87 60.87 70.14 C 63.68 67.44 66.32 64.54 69.22 61.93 C 72.52 60.81 77.44 63.32 79.63 59.73 C 80.15 55.09 79.63 50.38 79.93 45.72 C 77.59 45.68 75.25 45.67 72.91 45.67 C 72.92 39.84 72.88 34.02 72.96 28.19 C 63.99 28.13 55.02 28.14 46.05 28.19 Z" />
<path fill="#000000" opacity="1.00" d=" M 48.76 31.04 C 55.92 31.05 63.08 31.01 70.24 31.05 C 70.22 36.79 70.36 42.53 70.14 48.27 C 72.41 48.31 74.69 48.33 76.97 48.36 C 76.92 51.88 76.93 55.41 76.95 58.93 C 65.31 58.99 53.68 59.00 42.04 58.92 C 42.07 55.39 42.07 51.86 42.05 48.33 C 48.78 48.29 55.50 48.34 62.22 48.32 C 62.22 47.66 62.22 46.34 62.22 45.68 C 57.70 45.64 53.17 45.75 48.65 45.61 C 48.71 43.84 48.77 42.06 48.80 40.29 C 53.28 40.35 57.75 40.32 62.22 40.32 C 62.22 39.66 62.22 38.34 62.22 37.68 C 57.75 37.70 53.28 37.60 48.82 37.77 C 48.74 35.52 48.74 33.28 48.76 31.04 Z" />
<path fill="#000000" opacity="1.00" d=" M 53.26 61.69 C 57.44 61.68 61.62 61.65 65.80 61.72 C 63.66 63.70 61.55 65.72 59.52 67.82 C 57.45 65.76 55.34 63.74 53.26 61.69 Z" />
</g>
<g id="#6e6f6eff">
<path fill="#6e6f6e" opacity="1.00" d=" M 33.14 10.21 C 48.77 9.71 64.43 10.16 80.08 9.98 C 88.54 9.74 97.06 12.99 103.13 18.90 C 109.39 24.83 113.10 33.39 113.01 42.03 C 112.95 61.37 113.08 80.72 112.95 100.06 C 112.28 115.65 98.64 129.29 83.05 129.94 C 67.38 130.08 51.70 129.97 36.03 129.99 C 20.04 129.89 5.76 116.06 5.05 100.11 C 4.94 80.40 5.02 60.69 5.01 40.99 C 5.16 25.63 17.90 11.79 33.14 10.21 M 33.28 12.35 C 19.09 13.82 7.32 26.74 7.13 40.99 C 7.00 59.65 7.11 78.32 7.07 96.98 C 6.97 102.54 8.26 108.16 11.15 112.95 C 16.23 122.09 26.53 127.93 36.95 127.91 C 51.63 127.94 66.31 127.95 80.99 127.90 C 91.96 127.96 102.73 121.51 107.58 111.62 C 110.57 106.26 111.12 100.00 110.94 93.97 C 110.89 76.64 110.97 59.32 110.90 41.99 C 110.97 32.02 105.61 22.14 97.13 16.86 C 91.81 13.31 85.36 11.90 79.02 12.06 C 63.78 12.26 48.50 11.71 33.28 12.35 Z" />
</g>
<g id="#f6faf6ff">
<path fill="#f6faf6" opacity="1.00" d=" M 46.05 28.19 C 55.02 28.14 63.99 28.13 72.96 28.19 C 72.88 34.02 72.92 39.84 72.91 45.67 C 75.25 45.67 77.59 45.68 79.93 45.72 C 79.63 50.38 80.15 55.09 79.63 59.73 C 77.44 63.32 72.52 60.81 69.22 61.93 C 66.32 64.54 63.68 67.44 60.87 70.14 C 60.84 70.87 60.79 72.32 60.77 73.05 C 57.17 73.02 53.57 73.00 49.97 73.12 C 50.02 73.77 50.11 75.05 50.16 75.69 C 57.04 75.80 63.96 75.39 70.81 75.88 C 71.15 76.19 71.83 76.81 72.17 77.11 C 71.22 77.79 70.17 78.09 69.00 78.01 C 61.78 78.00 54.56 78.00 47.34 78.00 C 47.39 75.45 47.38 72.89 47.34 70.34 C 51.01 70.29 54.69 70.36 58.36 70.27 C 55.43 67.59 52.78 64.63 49.83 62.00 C 46.58 60.71 41.52 63.39 39.36 59.70 C 38.85 55.06 39.37 50.37 39.07 45.72 C 41.41 45.68 43.75 45.67 46.09 45.67 C 46.09 39.84 46.11 34.01 46.05 28.19 M 48.76 31.04 C 48.74 33.28 48.74 35.52 48.82 37.77 C 53.28 37.60 57.75 37.70 62.22 37.68 C 62.22 38.34 62.22 39.66 62.22 40.32 C 57.75 40.32 53.28 40.35 48.80 40.29 C 48.77 42.06 48.71 43.84 48.65 45.61 C 53.17 45.75 57.70 45.64 62.22 45.68 C 62.22 46.34 62.22 47.66 62.22 48.32 C 55.50 48.34 48.78 48.29 42.05 48.33 C 42.07 51.86 42.07 55.39 42.04 58.92 C 53.68 59.00 65.31 58.99 76.95 58.93 C 76.93 55.41 76.92 51.88 76.97 48.36 C 74.69 48.33 72.41 48.31 70.14 48.27 C 70.36 42.53 70.22 36.79 70.24 31.05 C 63.08 31.01 55.92 31.05 48.76 31.04 M 53.26 61.69 C 55.34 63.74 57.45 65.76 59.52 67.82 C 61.55 65.72 63.66 63.70 65.80 61.72 C 61.62 61.65 57.44 61.68 53.26 61.69 Z" />
</g>
</svg>
