<?xml version="1.0" encoding="UTF-8" ?>
<!DOCTYPE svg PUBLIC "-//W3C//DTD SVG 1.1//EN" "http://www.w3.org/Graphics/SVG/1.1/DTD/svg11.dtd">
<svg width="150px" height="80px" viewBox="0 0 150 80" version="1.1" xmlns="http://www.w3.org/2000/svg">
<g id="#000000ff">
<path fill="#000000" opacity="1.00" d=" M 0.00 0.00 L 150.00 0.00 L 150.00 80.00 L 0.00 80.00 L 0.00 0.00 M 6.37 5.50 C 1.90 6.79 0.53 11.81 0.95 15.95 C 1.04 32.33 1.00 48.70 0.97 65.07 C 0.95 67.75 1.24 70.74 3.35 72.65 C 5.26 74.76 8.26 75.05 10.93 75.03 C 51.29 74.97 91.64 75.00 131.99 75.02 C 135.87 74.92 139.83 75.42 143.63 74.52 C 147.20 73.45 149.23 69.68 149.00 66.09 C 149.05 49.38 148.94 32.67 149.05 15.96 C 149.00 13.19 149.12 10.05 147.12 7.86 C 145.21 5.44 141.97 4.89 139.07 4.97 C 98.71 5.03 58.36 5.00 18.00 4.98 C 14.13 5.09 10.16 4.56 6.37 5.50 Z" />
<path fill="#000000" opacity="1.00" d=" M 7.30 7.33 C 10.83 6.71 14.44 7.06 18.01 7.00 C 58.36 7.00 98.72 7.02 139.07 6.99 C 141.21 7.05 143.66 7.09 145.27 8.74 C 147.15 10.62 146.95 13.49 147.03 15.94 C 146.94 32.65 147.04 49.36 146.99 66.06 C 147.18 68.89 145.70 72.06 142.72 72.69 C 139.18 73.28 135.57 72.94 132.00 73.00 C 91.64 73.00 51.28 72.98 10.92 73.02 C 8.79 72.97 6.33 72.94 4.76 71.24 C 2.83 69.39 3.05 66.50 2.97 64.06 C 3.06 47.35 2.95 30.65 3.02 13.94 C 2.85 11.12 4.32 7.96 7.30 7.33 M 42.00 28.00 C 42.00 35.33 42.00 42.67 42.00 50.00 C 49.00 50.00 56.00 50.00 63.00 50.00 C 63.00 42.67 63.00 35.33 63.00 28.00 C 56.00 28.00 49.00 28.00 42.00 28.00 Z" />
</g>
<g id="#6e726eff">
<path fill="#6e726e" opacity="1.00" d=" M 6.37 5.50 C 10.16 4.56 14.13 5.09 18.00 4.98 C 58.36 5.00 98.71 5.03 139.07 4.97 C 141.97 4.89 145.21 5.44 147.12 7.86 C 149.12 10.05 149.00 13.19 149.05 15.96 C 148.94 32.67 149.05 49.38 149.00 66.09 C 149.23 69.68 147.20 73.45 143.63 74.52 C 139.83 75.42 135.87 74.92 131.99 75.02 C 91.64 75.00 51.29 74.97 10.93 75.03 C 8.26 75.05 5.26 74.76 3.35 72.65 C 1.24 70.74 0.95 67.75 0.97 65.07 C 1.00 48.70 1.04 32.33 0.95 15.95 C 0.53 11.81 1.90 6.79 6.37 5.50 M 7.30 7.33 C 4.32 7.96 2.85 11.12 3.02 13.94 C 2.95 30.65 3.06 47.35 2.97 64.06 C 3.05 66.50 2.83 69.39 4.76 71.24 C 6.33 72.94 8.79 72.97 10.92 73.02 C 51.28 72.98 91.64 73.00 132.00 73.00 C 135.57 72.94 139.18 73.28 142.72 72.69 C 145.70 72.06 147.18 68.89 146.99 66.06 C 147.04 49.36 146.94 32.65 147.03 15.94 C 146.95 13.49 147.15 10.62 145.27 8.74 C 143.66 7.09 141.21 7.05 139.07 6.99 C 98.72 7.02 58.36 7.00 18.01 7.00 C 14.44 7.06 10.83 6.71 7.30 7.33 Z" />
</g>
<g id="#f8fcf8ff">
<path fill="#f8fcf8" opacity="1.00" d=" M 42.00 28.00 C 49.00 28.00 56.00 28.00 63.00 28.00 C 63.00 35.33 63.00 42.67 63.00 50.00 C 56.00 50.00 49.00 50.00 42.00 50.00 C 42.00 42.67 42.00 35.33 42.00 28.00 Z" />
</g>
</svg>
