<?xml version="1.0" encoding="UTF-8" ?>
<!DOCTYPE svg PUBLIC "-//W3C//DTD SVG 1.1//EN" "http://www.w3.org/Graphics/SVG/1.1/DTD/svg11.dtd">
<svg width="117px" height="92px" viewBox="0 0 117 92" version="1.1" xmlns="http://www.w3.org/2000/svg">
<g id="#000000ff">
<path fill="#000000" opacity="1.00" d=" M 0.00 0.00 L 117.00 0.00 L 117.00 92.00 L 0.00 92.00 L 0.00 0.00 M 58.81 27.71 C 51.55 34.62 45.39 42.33 38.36 49.44 C 37.97 51.32 36.99 53.25 37.88 55.15 L 38.92 55.37 C 53.98 55.25 69.10 55.69 84.12 55.15 C 84.98 53.26 84.08 51.34 83.69 49.47 C 76.64 42.37 70.48 34.64 63.21 27.73 C 62.12 26.59 59.91 26.59 58.81 27.71 Z" />
<path fill="#000000" opacity="1.00" d=" M 42.02 51.43 C 48.53 44.63 54.75 37.67 61.02 30.74 C 67.23 37.71 73.48 44.63 80.00 51.39 C 67.36 51.15 54.66 51.08 42.02 51.43 Z" />
</g>
<g id="#f8fcf8ff">
<path fill="#f8fcf8" opacity="1.00" d=" M 58.81 27.71 C 59.91 26.59 62.12 26.59 63.21 27.73 C 70.48 34.64 76.64 42.37 83.69 49.47 C 84.08 51.34 84.98 53.26 84.12 55.15 C 69.10 55.69 53.98 55.25 38.92 55.37 L 37.88 55.15 C 36.99 53.25 37.97 51.32 38.36 49.44 C 45.39 42.33 51.55 34.62 58.81 27.71 M 42.02 51.43 C 54.66 51.08 67.36 51.15 80.00 51.39 C 73.48 44.63 67.23 37.71 61.02 30.74 C 54.75 37.67 48.53 44.63 42.02 51.43 Z" />
</g>
</svg>
