<?xml version="1.0" encoding="UTF-8" ?>
<!DOCTYPE svg PUBLIC "-//W3C//DTD SVG 1.1//EN" "http://www.w3.org/Graphics/SVG/1.1/DTD/svg11.dtd">
<svg width="45px" height="45px" viewBox="0 0 45 45" version="1.1" xmlns="http://www.w3.org/2000/svg">
<g id="#000000ff">
<path fill="#000000" opacity="1.00" d=" M 0.00 0.00 L 45.00 0.00 L 45.00 45.00 L 0.00 45.00 L 0.00 0.00 M 18.70 14.03 C 18.50 16.65 21.03 18.46 21.31 20.97 C 21.43 22.32 21.52 23.68 21.59 25.04 C 23.58 22.70 24.70 18.96 22.44 16.41 C 20.48 14.48 21.23 11.67 21.39 9.25 C 20.27 10.69 18.71 12.07 18.70 14.03 M 26.24 21.70 C 28.09 24.26 28.51 27.32 28.75 30.39 C 31.33 27.26 31.53 22.49 28.01 20.00 C 28.01 18.04 28.17 16.10 28.49 14.17 C 26.90 16.26 24.43 18.99 26.24 21.70 M 14.31 21.73 C 16.06 24.24 16.74 27.18 16.46 30.22 C 19.67 27.49 19.44 22.62 16.22 20.02 C 16.20 18.29 16.17 16.57 16.14 14.85 C 14.34 16.53 12.63 19.39 14.31 21.73 M 8.07 33.14 C 8.04 33.86 7.98 35.29 7.95 36.01 C 17.65 36.00 27.34 36.00 37.04 36.01 C 37.02 35.29 36.98 33.87 36.96 33.16 C 27.33 33.12 17.70 33.15 8.07 33.14 Z" />
</g>
<g id="#cccfccff">
<path fill="#cccfcc" opacity="1.00" d=" M 18.70 14.03 C 18.71 12.07 20.27 10.69 21.39 9.25 C 21.23 11.67 20.48 14.48 22.44 16.41 C 24.70 18.96 23.58 22.70 21.59 25.04 C 21.52 23.68 21.43 22.32 21.31 20.97 C 21.03 18.46 18.50 16.65 18.70 14.03 Z" />
<path fill="#cccfcc" opacity="1.00" d=" M 26.24 21.70 C 24.43 18.99 26.90 16.26 28.49 14.17 C 28.17 16.10 28.01 18.04 28.01 20.00 C 31.53 22.49 31.33 27.26 28.75 30.39 C 28.51 27.32 28.09 24.26 26.24 21.70 Z" />
<path fill="#cccfcc" opacity="1.00" d=" M 14.31 21.73 C 12.63 19.39 14.34 16.53 16.14 14.85 C 16.17 16.57 16.20 18.29 16.22 20.02 C 19.44 22.62 19.67 27.49 16.46 30.22 C 16.74 27.18 16.06 24.24 14.31 21.73 Z" />
<path fill="#cccfcc" opacity="1.00" d=" M 8.07 33.14 C 17.70 33.15 27.33 33.12 36.96 33.16 C 36.98 33.87 37.02 35.29 37.04 36.01 C 27.34 36.00 17.65 36.00 7.95 36.01 C 7.98 35.29 8.04 33.86 8.07 33.14 Z" />
</g>
</svg>
