<?xml version="1.0" encoding="UTF-8" ?>
<!DOCTYPE svg PUBLIC "-//W3C//DTD SVG 1.1//EN" "http://www.w3.org/Graphics/SVG/1.1/DTD/svg11.dtd">
<svg width="200px" height="200px" viewBox="0 0 200 200" version="1.1" xmlns="http://www.w3.org/2000/svg">
<g id="#000000ff">
<path fill="#000000" opacity="1.00" d=" M 0.00 0.00 L 200.00 0.00 L 200.00 200.00 L 0.00 200.00 L 0.00 0.00 M 77.93 43.98 C 63.11 46.68 49.72 55.90 41.64 68.58 C 33.01 81.81 30.16 98.65 33.97 113.98 C 37.74 130.21 49.03 144.55 64.04 151.82 C 77.78 158.68 94.48 159.31 108.65 153.40 C 121.21 148.49 131.61 138.61 137.67 126.62 C 144.31 113.70 145.65 98.32 141.83 84.35 C 128.00 88.35 114.20 92.49 100.39 96.56 C 101.56 100.69 102.70 104.83 103.91 108.95 C 109.90 107.18 115.89 105.40 121.88 103.64 C 120.51 118.15 109.40 131.37 94.93 134.15 C 80.59 137.51 64.95 129.64 58.36 116.64 C 51.11 103.26 53.87 85.37 65.00 74.95 C 73.09 66.91 85.32 63.83 96.34 66.45 C 99.87 59.72 103.62 53.11 107.08 46.34 C 97.80 43.00 87.63 42.02 77.93 43.98 M 157.29 140.42 C 151.70 142.15 150.26 150.48 155.09 153.87 C 159.24 157.52 166.50 154.50 167.02 149.06 C 168.24 143.69 162.50 138.46 157.29 140.42 Z" />
</g>
<g id="#707070ff">
<path fill="#707070" opacity="1.00" d=" M 77.93 43.98 C 87.63 42.02 97.80 43.00 107.08 46.34 C 103.62 53.11 99.87 59.72 96.34 66.45 C 85.32 63.83 73.09 66.91 65.00 74.95 C 53.87 85.37 51.11 103.26 58.36 116.64 C 64.95 129.64 80.59 137.51 94.93 134.15 C 109.40 131.37 120.51 118.15 121.88 103.64 C 115.89 105.40 109.90 107.18 103.91 108.95 C 102.70 104.83 101.56 100.69 100.39 96.56 C 114.20 92.49 128.00 88.35 141.83 84.35 C 145.65 98.32 144.31 113.70 137.67 126.62 C 131.61 138.61 121.21 148.49 108.65 153.40 C 94.48 159.31 77.78 158.68 64.04 151.82 C 49.03 144.55 37.74 130.21 33.97 113.98 C 30.16 98.65 33.01 81.81 41.64 68.58 C 49.72 55.90 63.11 46.68 77.93 43.98 Z" />
<path fill="#707070" opacity="1.00" d=" M 157.29 140.42 C 162.50 138.46 168.24 143.69 167.02 149.06 C 166.50 154.50 159.24 157.52 155.09 153.87 C 150.26 150.48 151.70 142.15 157.29 140.42 Z" />
</g>
</svg>
