<?xml version="1.0" encoding="UTF-8" ?>
<!DOCTYPE svg PUBLIC "-//W3C//DTD SVG 1.1//EN" "http://www.w3.org/Graphics/SVG/1.1/DTD/svg11.dtd">
<svg width="117px" height="140px" viewBox="0 0 117 140" version="1.1" xmlns="http://www.w3.org/2000/svg">
<g id="#181818ff">
<path fill="#181818" opacity="1.00" d=" M 0.00 0.00 L 117.00 0.00 L 117.00 140.00 L 0.00 140.00 L 0.00 0.00 M 15.78 9.76 C 13.31 11.88 13.90 15.32 15.14 17.93 C 16.47 18.57 17.64 19.65 19.16 19.81 C 19.13 20.85 19.08 22.92 19.06 23.95 C 18.91 31.20 19.07 38.46 19.01 45.71 C 18.99 50.86 19.01 56.00 19.02 61.14 C 18.97 65.94 19.05 70.75 19.02 75.55 C 18.97 78.07 18.87 80.60 19.13 83.12 C 19.50 86.93 23.08 90.05 26.92 89.94 C 47.28 90.05 67.66 89.95 88.03 90.03 C 91.01 90.05 94.45 90.07 96.64 87.67 C 100.09 84.28 98.80 79.02 98.98 74.71 C 98.97 70.18 99.03 65.65 98.98 61.12 C 98.99 56.06 99.01 51.00 99.00 45.94 C 98.99 42.08 98.94 38.23 99.10 34.37 C 99.36 28.53 93.98 25.30 90.49 21.50 C 87.09 18.26 84.02 14.65 80.42 11.62 C 78.09 9.63 74.86 10.05 72.03 9.97 C 56.20 10.17 40.36 9.70 24.54 10.22 C 24.38 9.93 24.06 9.34 23.90 9.05 C 21.27 7.92 17.89 7.33 15.78 9.76 Z" />
<path fill="#181818" opacity="1.00" d=" M 26.61 14.01 C 28.41 14.00 30.20 14.00 32.00 14.00 C 32.19 20.27 31.45 26.62 32.63 32.82 C 38.10 35.08 44.19 33.60 49.93 33.99 C 57.30 33.90 64.67 34.22 72.03 33.87 C 74.11 33.96 75.94 32.20 75.87 30.11 C 76.25 24.72 75.85 19.32 76.06 13.92 C 80.01 15.79 82.64 19.43 85.72 22.40 C 88.85 25.81 92.81 28.59 95.04 32.74 C 95.07 37.21 94.98 41.67 95.00 46.13 C 95.00 51.14 95.01 56.14 95.01 61.15 C 95.00 65.70 94.99 70.24 95.04 74.79 C 94.58 78.28 96.35 83.44 92.65 85.57 C 88.82 86.39 84.87 85.93 81.00 86.01 C 66.93 86.04 52.86 85.89 38.80 86.09 C 35.60 86.11 32.39 86.20 29.19 86.22 C 27.16 85.88 24.35 85.94 23.46 83.65 C 22.70 80.58 23.04 77.37 22.97 74.24 C 23.01 69.87 23.00 65.49 22.99 61.12 C 22.99 56.02 23.01 50.92 22.99 45.82 C 22.99 38.01 23.00 30.20 22.99 22.40 C 23.01 21.66 23.05 20.19 23.07 19.46 C 24.32 17.69 25.45 15.84 26.61 14.01 M 82.38 39.45 C 79.34 41.09 81.78 46.19 84.99 44.65 C 88.92 43.64 85.93 36.83 82.38 39.45 M 43.63 51.97 C 45.24 51.98 46.86 51.97 48.47 51.93 C 51.15 48.99 54.87 46.74 58.99 47.07 C 62.77 47.05 66.04 49.23 68.53 51.89 C 70.13 51.92 71.73 51.92 73.34 51.92 C 70.12 46.62 64.36 42.64 57.97 43.04 C 51.93 43.04 46.64 46.93 43.63 51.97 M 27.55 54.15 C 27.52 58.11 27.53 62.07 27.54 66.04 C 30.13 65.98 32.73 66.03 35.32 65.77 C 34.13 63.61 31.36 64.69 29.40 64.33 C 29.40 63.41 29.41 61.56 29.41 60.64 C 30.87 60.63 32.33 60.61 33.79 60.59 C 33.79 60.23 33.79 59.50 33.80 59.14 C 32.32 59.08 30.85 59.03 29.38 58.98 C 29.34 57.95 29.39 56.92 29.53 55.89 C 31.55 55.80 33.59 55.73 35.51 55.02 C 32.98 53.96 30.22 54.18 27.55 54.15 M 37.16 54.21 C 37.14 58.14 37.14 62.07 37.15 66.00 C 39.74 65.72 42.98 66.89 44.99 64.72 C 42.99 64.47 40.98 64.47 38.98 64.37 C 38.98 63.45 39.00 61.62 39.01 60.71 C 40.69 60.61 42.38 60.49 44.06 60.28 C 42.79 58.77 40.71 59.19 39.00 58.89 C 39.00 58.12 39.00 56.57 39.01 55.79 C 40.71 55.78 42.41 55.77 44.11 55.76 C 44.11 55.38 44.11 54.60 44.11 54.22 C 41.79 54.21 39.47 54.21 37.16 54.21 M 46.74 54.14 C 46.74 58.09 46.75 62.04 46.76 65.99 C 47.22 65.98 48.14 65.98 48.60 65.98 C 48.60 64.57 48.60 63.16 48.60 61.75 C 51.00 61.44 54.80 61.32 54.75 58.02 C 55.10 53.63 49.62 54.24 46.74 54.14 M 57.09 54.15 C 57.06 58.10 57.07 62.05 57.09 66.00 C 57.55 66.00 58.46 66.00 58.92 66.00 C 58.99 64.23 59.06 62.46 59.20 60.69 C 62.19 61.74 62.25 66.11 65.68 66.35 C 64.84 64.68 63.94 63.04 63.04 61.40 C 64.32 59.95 65.91 58.15 64.93 56.07 C 63.24 53.44 59.70 54.46 57.09 54.15 M 70.19 54.39 C 65.19 56.50 66.11 66.03 71.98 66.18 C 75.72 66.29 77.71 62.19 77.07 58.92 C 76.94 55.59 73.36 53.00 70.19 54.39 M 79.82 54.54 C 79.44 58.35 79.69 62.18 79.67 66.00 L 81.32 65.96 C 81.31 62.86 81.28 59.76 81.23 56.66 C 82.20 59.72 83.25 62.76 84.87 65.55 C 86.11 62.69 87.13 59.74 88.22 56.82 C 88.19 59.88 88.17 62.94 88.17 66.00 C 88.57 66.00 89.38 66.00 89.78 66.00 C 89.81 62.05 89.81 58.10 89.78 54.15 C 89.24 54.19 88.17 54.28 87.64 54.33 C 86.68 57.11 85.70 59.89 84.76 62.68 C 83.75 59.75 82.73 56.82 81.67 53.91 C 81.20 54.07 80.28 54.38 79.82 54.54 M 44.26 68.04 C 47.44 72.43 52.29 75.97 57.90 75.96 C 63.93 76.38 69.39 72.77 72.72 67.98 C 70.22 67.94 67.53 67.77 65.58 69.63 C 60.64 73.51 53.45 72.17 49.13 68.00 C 47.51 68.00 45.89 68.02 44.26 68.04 M 31.17 77.16 C 29.48 78.62 30.40 80.86 30.54 82.72 C 32.47 83.63 35.04 84.71 36.73 82.74 C 38.71 81.11 37.59 78.60 36.89 76.63 C 34.97 76.41 32.69 75.41 31.17 77.16 Z" />
<path fill="#181818" opacity="1.00" d=" M 36.00 14.00 C 48.00 13.97 60.00 14.05 72.00 13.96 C 72.00 19.31 72.00 24.65 72.00 30.00 C 65.71 30.00 59.42 29.99 53.13 30.00 C 47.41 30.03 41.69 30.00 35.97 30.00 C 35.98 24.67 36.00 19.33 36.00 14.00 M 60.00 17.00 C 60.00 20.33 60.00 23.66 60.01 27.00 C 61.34 27.00 62.66 27.00 63.99 27.00 C 63.99 23.66 64.00 20.33 64.00 17.00 C 62.67 17.00 61.33 17.00 60.00 17.00 Z" />
<path fill="#181818" opacity="1.00" d=" M 48.63 55.49 C 50.12 55.85 53.40 55.52 52.93 57.95 C 53.09 60.35 50.11 59.71 48.63 60.36 C 48.61 58.73 48.61 57.11 48.63 55.49 Z" />
<path fill="#181818" opacity="1.00" d=" M 58.99 55.52 C 60.69 56.04 63.77 55.35 63.36 58.05 C 62.90 59.99 60.54 59.55 59.09 60.01 C 59.02 58.51 58.99 57.02 58.99 55.52 Z" />
<path fill="#181818" opacity="1.00" d=" M 70.23 56.34 C 75.24 53.19 77.27 62.63 73.01 64.52 C 68.63 65.36 67.64 58.73 70.23 56.34 Z" />
</g>
<g id="#48c8d0ff">
<path fill="#ffffff" opacity="1.00" d=" M 15.78 9.76 C 17.89 7.33 21.27 7.92 23.90 9.05 C 21.60 12.57 18.61 15.57 15.14 17.93 C 13.90 15.32 13.31 11.88 15.78 9.76 Z" />
</g>
<g id="#3098b8ff">
<path fill="#ffffff" opacity="1.00" d=" M 23.90 9.05 C 24.06 9.34 24.38 9.93 24.54 10.22 C 25.22 11.49 25.90 12.75 26.61 14.01 C 25.45 15.84 24.32 17.69 23.07 19.46 C 21.77 19.60 20.46 19.74 19.16 19.81 C 17.64 19.65 16.47 18.57 15.14 17.93 C 18.61 15.57 21.60 12.57 23.90 9.05 Z" />
</g>
<g id="#9060f0ff">
<path fill="#ffffff" opacity="1.00" d=" M 24.54 10.22 C 40.36 9.70 56.20 10.17 72.03 9.97 C 74.86 10.05 78.09 9.63 80.42 11.62 C 84.02 14.65 87.09 18.26 90.49 21.50 C 88.90 21.80 87.31 22.10 85.72 22.40 C 82.64 19.43 80.01 15.79 76.06 13.92 C 74.70 13.92 73.35 13.93 72.00 13.96 C 60.00 14.05 48.00 13.97 36.00 14.00 C 34.67 14.00 33.33 14.00 32.00 14.00 C 30.20 14.00 28.41 14.00 26.61 14.01 C 25.90 12.75 25.22 11.49 24.54 10.22 Z" />
</g>
<g id="#f8d878ff">
<path fill="#ffffff" opacity="1.00" d=" M 32.00 14.00 C 33.33 14.00 34.67 14.00 36.00 14.00 C 36.00 19.33 35.98 24.67 35.97 30.00 C 34.85 30.93 33.74 31.88 32.63 32.82 C 31.45 26.62 32.19 20.27 32.00 14.00 Z" />
</g>
<g id="#f8b058ff">
<path fill="#ffffff" opacity="1.00" d=" M 72.00 13.96 C 73.35 13.93 74.70 13.92 76.06 13.92 C 75.85 19.32 76.25 24.72 75.87 30.11 C 75.94 32.20 74.11 33.96 72.03 33.87 C 64.67 34.22 57.30 33.90 49.93 33.99 C 51.00 32.66 52.06 31.33 53.13 30.00 C 59.42 29.99 65.71 30.00 72.00 30.00 C 72.00 24.65 72.00 19.31 72.00 13.96 Z" />
<path fill="#ffffff" opacity="1.00" d=" M 27.55 54.15 C 30.22 54.18 32.98 53.96 35.51 55.02 C 33.59 55.73 31.55 55.80 29.53 55.89 C 29.39 56.92 29.34 57.95 29.38 58.98 C 30.85 59.03 32.32 59.08 33.80 59.14 C 33.79 59.50 33.79 60.23 33.79 60.59 C 32.33 60.61 30.87 60.63 29.41 60.64 C 29.41 61.56 29.40 63.41 29.40 64.33 C 31.36 64.69 34.13 63.61 35.32 65.77 C 32.73 66.03 30.13 65.98 27.54 66.04 C 27.53 62.07 27.52 58.11 27.55 54.15 Z" />
<path fill="#ffffff" opacity="1.00" d=" M 37.16 54.21 C 39.47 54.21 41.79 54.21 44.11 54.22 C 44.11 54.60 44.11 55.38 44.11 55.76 C 42.41 55.77 40.71 55.78 39.01 55.79 C 39.00 56.57 39.00 58.12 39.00 58.89 C 40.71 59.19 42.79 58.77 44.06 60.28 C 42.38 60.49 40.69 60.61 39.01 60.71 C 39.00 61.62 38.98 63.45 38.98 64.37 C 40.98 64.47 42.99 64.47 44.99 64.72 C 42.98 66.89 39.74 65.72 37.15 66.00 C 37.14 62.07 37.14 58.14 37.16 54.21 Z" />
</g>
<g id="#f8b868ff">
<path fill="#ffffff" opacity="1.00" d=" M 60.00 17.00 C 61.33 17.00 62.67 17.00 64.00 17.00 C 64.00 20.33 63.99 23.66 63.99 27.00 C 62.66 27.00 61.34 27.00 60.01 27.00 C 60.00 23.66 60.00 20.33 60.00 17.00 Z" />
</g>
<g id="#4b378aff">
<path fill="#ffffff" opacity="1.00" d=" M 19.16 19.81 C 20.46 19.74 21.77 19.60 23.07 19.46 C 23.05 20.19 23.01 21.66 22.99 22.40 C 21.68 22.92 20.37 23.44 19.06 23.95 C 19.08 22.92 19.13 20.85 19.16 19.81 Z" />
</g>
<g id="#7050e0ff">
<path fill="#ffffff" opacity="1.00" d=" M 19.06 23.95 C 20.37 23.44 21.68 22.92 22.99 22.40 C 23.00 30.20 22.99 38.01 22.99 45.82 C 21.66 45.78 20.34 45.75 19.01 45.71 C 19.07 38.46 18.91 31.20 19.06 23.95 Z" />
</g>
<g id="#7858e8ff">
<path fill="#ffffff" opacity="1.00" d=" M 85.72 22.40 C 87.31 22.10 88.90 21.80 90.49 21.50 C 93.98 25.30 99.36 28.53 99.10 34.37 C 97.74 33.84 96.39 33.29 95.04 32.74 C 92.81 28.59 88.85 25.81 85.72 22.40 Z" />
</g>
<g id="#f8c868ff">
<path fill="#ffffff" opacity="1.00" d=" M 35.97 30.00 C 41.69 30.00 47.41 30.03 53.13 30.00 C 52.06 31.33 51.00 32.66 49.93 33.99 C 44.19 33.60 38.10 35.08 32.63 32.82 C 33.74 31.88 34.85 30.93 35.97 30.00 Z" />
</g>
<g id="#6850e0ff">
<path fill="#ffffff" opacity="1.00" d=" M 95.04 32.74 C 96.39 33.29 97.74 33.84 99.10 34.37 C 98.94 38.23 98.99 42.08 99.00 45.94 C 97.66 46.00 96.33 46.07 95.00 46.13 C 94.98 41.67 95.07 37.21 95.04 32.74 Z" />
</g>
<g id="#e068d0ff">
<path fill="#ffffff" opacity="1.00" d=" M 82.38 39.45 C 85.93 36.83 88.92 43.64 84.99 44.65 C 81.78 46.19 79.34 41.09 82.38 39.45 Z" />
</g>
<g id="#f8a858ff">
<path fill="#ffffff" opacity="1.00" d=" M 43.63 51.97 C 46.64 46.93 51.93 43.04 57.97 43.04 C 64.36 42.64 70.12 46.62 73.34 51.92 C 71.73 51.92 70.13 51.92 68.53 51.89 C 66.04 49.23 62.77 47.05 58.99 47.07 C 54.87 46.74 51.15 48.99 48.47 51.93 C 46.86 51.97 45.24 51.98 43.63 51.97 Z" />
<path fill="#ffffff" opacity="1.00" d=" M 46.74 54.14 C 49.62 54.24 55.10 53.63 54.75 58.02 C 54.80 61.32 51.00 61.44 48.60 61.75 C 48.60 63.16 48.60 64.57 48.60 65.98 C 48.14 65.98 47.22 65.98 46.76 65.99 C 46.75 62.04 46.74 58.09 46.74 54.14 M 48.63 55.49 C 48.61 57.11 48.61 58.73 48.63 60.36 C 50.11 59.71 53.09 60.35 52.93 57.95 C 53.40 55.52 50.12 55.85 48.63 55.49 Z" />
</g>
<g id="#5048d8ff">
<path fill="#ffffff" opacity="1.00" d=" M 19.01 45.71 C 20.34 45.75 21.66 45.78 22.99 45.82 C 23.01 50.92 22.99 56.02 22.99 61.12 C 21.67 61.13 20.34 61.13 19.02 61.14 C 19.01 56.00 18.99 50.86 19.01 45.71 Z" />
<path fill="#ffffff" opacity="1.00" d=" M 95.00 46.13 C 96.33 46.07 97.66 46.00 99.00 45.94 C 99.01 51.00 98.99 56.06 98.98 61.12 C 97.66 61.13 96.33 61.14 95.01 61.15 C 95.01 56.14 95.00 51.14 95.00 46.13 Z" />
</g>
<g id="#f89040ff">
<path fill="#ffffff" opacity="1.00" d=" M 57.09 54.15 C 59.70 54.46 63.24 53.44 64.93 56.07 C 65.91 58.15 64.32 59.95 63.04 61.40 C 63.94 63.04 64.84 64.68 65.68 66.35 C 62.25 66.11 62.19 61.74 59.20 60.69 C 59.06 62.46 58.99 64.23 58.92 66.00 C 58.46 66.00 57.55 66.00 57.09 66.00 C 57.07 62.05 57.06 58.10 57.09 54.15 M 58.99 55.52 C 58.99 57.02 59.02 58.51 59.09 60.01 C 60.54 59.55 62.90 59.99 63.36 58.05 C 63.77 55.35 60.69 56.04 58.99 55.52 Z" />
<path fill="#ffffff" opacity="1.00" d=" M 70.19 54.39 C 73.36 53.00 76.94 55.59 77.07 58.92 C 77.71 62.19 75.72 66.29 71.98 66.18 C 66.11 66.03 65.19 56.50 70.19 54.39 M 70.23 56.34 C 67.64 58.73 68.63 65.36 73.01 64.52 C 77.27 62.63 75.24 53.19 70.23 56.34 Z" />
<path fill="#ffffff" opacity="1.00" d=" M 79.82 54.54 C 80.28 54.38 81.20 54.07 81.67 53.91 C 82.73 56.82 83.75 59.75 84.76 62.68 C 85.70 59.89 86.68 57.11 87.64 54.33 C 88.17 54.28 89.24 54.19 89.78 54.15 C 89.81 58.10 89.81 62.05 89.78 66.00 C 89.38 66.00 88.57 66.00 88.17 66.00 C 88.17 62.94 88.19 59.88 88.22 56.82 C 87.13 59.74 86.11 62.69 84.87 65.55 C 83.25 62.76 82.20 59.72 81.23 56.66 C 81.28 59.76 81.31 62.86 81.32 65.96 L 79.67 66.00 C 79.69 62.18 79.44 58.35 79.82 54.54 Z" />
<path fill="#ffffff" opacity="1.00" d=" M 44.26 68.04 C 45.89 68.02 47.51 68.00 49.13 68.00 C 53.45 72.17 60.64 73.51 65.58 69.63 C 67.53 67.77 70.22 67.94 72.72 67.98 C 69.39 72.77 63.93 76.38 57.90 75.96 C 52.29 75.97 47.44 72.43 44.26 68.04 Z" />
</g>
<g id="#3840d0ff">
<path fill="#ffffff" opacity="1.00" d=" M 19.02 61.14 C 20.34 61.13 21.67 61.13 22.99 61.12 C 23.00 65.49 23.01 69.87 22.97 74.24 C 21.65 74.67 20.33 75.11 19.02 75.55 C 19.05 70.75 18.97 65.94 19.02 61.14 Z" />
<path fill="#ffffff" opacity="1.00" d=" M 95.01 61.15 C 96.33 61.14 97.66 61.13 98.98 61.12 C 99.03 65.65 98.97 70.18 98.98 74.71 C 97.66 74.73 96.35 74.76 95.04 74.79 C 94.99 70.24 95.00 65.70 95.01 61.15 Z" />
</g>
<g id="#1830c0ff">
<path fill="#ffffff" opacity="1.00" d=" M 19.02 75.55 C 20.33 75.11 21.65 74.67 22.97 74.24 C 23.04 77.37 22.70 80.58 23.46 83.65 C 24.35 85.94 27.16 85.88 29.19 86.22 C 30.72 87.24 32.08 88.78 33.97 89.09 C 35.92 88.84 37.27 87.17 38.80 86.09 C 52.86 85.89 66.93 86.04 81.00 86.01 C 84.87 85.93 88.82 86.39 92.65 85.57 C 96.35 83.44 94.58 78.28 95.04 74.79 C 96.35 74.76 97.66 74.73 98.98 74.71 C 98.80 79.02 100.09 84.28 96.64 87.67 C 94.45 90.07 91.01 90.05 88.03 90.03 C 67.66 89.95 47.28 90.05 26.92 89.94 C 23.08 90.05 19.50 86.93 19.13 83.12 C 18.87 80.60 18.97 78.07 19.02 75.55 Z" />
</g>
<g id="#c0e818ff">
<path fill="#ffffff" opacity="1.00" d=" M 31.17 77.16 C 32.69 75.41 34.97 76.41 36.89 76.63 C 34.79 78.68 32.68 80.71 30.54 82.72 C 30.40 80.86 29.48 78.62 31.17 77.16 Z" />
</g>
<g id="#80d808ff">
<path fill="#ffffff" opacity="1.00" d=" M 36.89 76.63 C 37.59 78.60 38.71 81.11 36.73 82.74 C 35.04 84.71 32.47 83.63 30.54 82.72 C 32.68 80.71 34.79 78.68 36.89 76.63 Z" />
</g>
<g id="#102798ff">
<path fill="#ffffff" opacity="1.00" d=" M 29.19 86.22 C 32.39 86.20 35.60 86.11 38.80 86.09 C 37.27 87.17 35.92 88.84 33.97 89.09 C 32.08 88.78 30.72 87.24 29.19 86.22 Z" />
</g>
</svg>
