<?xml version="1.0" encoding="UTF-8" ?>
<!DOCTYPE svg PUBLIC "-//W3C//DTD SVG 1.1//EN" "http://www.w3.org/Graphics/SVG/1.1/DTD/svg11.dtd">
<svg width="117px" height="140px" viewBox="0 0 117 140" version="1.1" xmlns="http://www.w3.org/2000/svg">
<g id="#000000ff">
<path fill="#000000" opacity="1.00" d=" M 0.00 0.00 L 117.00 0.00 L 117.00 140.00 L 0.00 140.00 L 0.00 0.00 M 33.17 10.23 C 17.91 11.79 5.16 25.66 5.03 41.01 C 4.96 60.02 5.02 79.02 5.00 98.03 C 4.93 108.08 10.01 117.95 18.14 123.83 C 23.82 128.02 30.90 130.18 37.95 130.02 C 52.98 129.92 68.01 130.13 83.03 129.92 C 98.98 129.28 112.84 115.01 112.96 99.05 C 113.05 80.04 112.98 61.03 113.00 42.02 C 113.09 31.71 107.75 21.56 99.25 15.74 C 93.40 11.60 86.16 9.71 79.04 9.98 C 63.75 10.18 48.44 9.67 33.17 10.23 Z" />
<path fill="#000000" opacity="1.00" d=" M 30.51 12.69 C 33.95 11.94 37.50 11.98 41.01 11.99 C 54.67 12.04 68.33 11.94 82.00 12.04 C 98.04 12.09 111.95 27.02 111.00 43.03 C 110.97 61.68 111.06 80.33 110.95 98.97 C 110.83 110.44 103.24 121.27 92.69 125.63 C 88.43 127.56 83.71 128.05 79.08 128.00 C 64.73 127.96 50.37 128.06 36.01 127.96 C 24.54 127.80 13.73 120.23 9.35 109.68 C 7.42 105.39 6.88 100.64 6.99 95.97 C 7.04 77.65 6.94 59.33 7.04 41.01 C 7.17 27.66 17.49 15.40 30.51 12.69 M 46.36 30.20 C 45.86 30.45 44.84 30.96 44.34 31.22 C 35.39 36.29 29.67 46.57 30.71 56.89 C 30.96 66.76 37.63 75.58 46.33 79.84 C 53.69 82.89 62.29 82.97 69.62 79.80 C 70.12 79.55 71.11 79.04 71.61 78.79 C 80.55 73.71 86.34 63.47 85.29 53.13 C 85.06 43.26 78.37 34.44 69.69 30.17 C 62.32 27.11 53.71 27.02 46.36 30.20 Z" />
<path fill="#000000" opacity="1.00" d=" M 51.77 31.02 C 52.47 31.00 53.86 30.97 54.56 30.96 C 54.66 32.57 55.04 34.18 56.25 35.33 C 58.61 31.49 63.62 29.79 67.60 32.21 C 68.07 32.49 69.01 33.05 69.49 33.33 C 69.68 35.41 70.86 36.38 72.78 35.45 C 73.60 36.41 74.38 37.40 75.10 38.44 C 74.36 37.79 72.88 36.48 72.14 35.82 C 72.06 36.74 71.89 38.58 71.81 39.49 C 70.64 38.23 69.45 36.98 68.27 35.72 C 68.43 36.46 67.03 38.07 68.19 38.34 C 70.58 38.48 70.87 40.98 71.87 42.63 C 71.17 42.52 69.77 42.32 69.08 42.21 C 69.65 43.47 69.40 45.47 71.18 45.83 C 72.25 44.87 73.09 43.69 74.06 42.63 C 75.75 42.13 76.68 44.26 77.98 45.00 C 79.88 45.56 81.89 46.70 82.30 48.81 C 81.71 48.63 80.52 48.25 79.92 48.06 C 78.06 48.82 76.13 47.28 75.98 45.37 C 74.31 45.56 72.64 45.79 70.97 46.01 C 69.89 48.13 68.61 50.12 67.30 52.10 C 67.17 55.12 68.10 57.89 70.26 60.04 C 71.70 59.87 73.13 59.68 74.57 59.48 C 74.97 59.79 75.79 60.40 76.20 60.71 C 76.57 65.60 74.31 69.97 72.49 74.36 C 72.11 75.71 70.74 76.14 69.66 76.80 C 66.77 78.47 63.39 78.67 60.38 79.92 C 58.79 79.98 57.21 79.97 55.62 79.91 C 54.37 79.28 53.05 78.82 51.67 78.53 C 51.82 75.76 54.11 73.83 55.21 71.42 C 58.34 70.20 58.24 66.37 60.08 63.97 C 57.98 63.17 55.85 62.44 53.74 61.64 C 52.22 58.83 48.86 57.68 45.97 56.81 C 44.19 56.12 42.63 58.17 40.85 57.49 C 40.26 56.31 39.69 55.14 38.99 54.03 C 39.00 53.45 39.02 52.29 39.03 51.71 C 38.54 52.34 37.55 53.59 37.06 54.22 C 36.04 52.54 36.37 50.62 36.72 48.80 C 38.50 47.98 39.79 48.25 40.60 49.62 C 40.81 50.32 40.67 50.96 40.19 51.56 C 41.84 53.99 44.69 53.96 47.33 53.78 C 45.41 53.19 43.51 52.55 41.57 52.05 C 41.67 50.68 41.69 49.31 41.64 47.93 C 43.85 45.27 45.69 41.18 49.79 41.50 C 49.38 41.11 48.54 40.32 48.13 39.93 C 48.91 39.58 50.48 38.89 51.26 38.55 C 51.29 39.75 51.79 40.68 52.76 41.34 C 52.50 39.14 51.64 37.09 50.69 35.11 C 50.28 35.24 49.45 35.52 49.04 35.65 C 48.99 35.05 48.89 33.84 48.84 33.23 C 46.88 34.74 45.83 37.02 44.64 39.11 C 44.52 37.72 43.95 36.52 42.94 35.52 C 45.11 34.19 47.44 33.14 49.61 31.82 C 49.54 32.51 49.40 33.90 49.33 34.59 C 50.48 33.88 51.62 33.16 52.77 32.44 L 51.77 31.02 M 62.88 34.39 C 63.34 34.10 64.25 33.52 64.70 33.23 C 64.33 30.59 60.05 33.19 62.88 34.39 Z" />
<path fill="#000000" opacity="1.00" d=" M 33.06 50.59 C 33.71 51.73 34.22 52.94 34.93 54.04 C 36.85 55.18 38.86 56.21 40.25 58.02 C 40.84 58.15 42.02 58.42 42.60 58.56 C 42.49 60.54 41.05 62.77 42.36 64.61 C 43.38 66.57 45.14 67.91 46.72 69.38 C 47.77 72.42 48.39 75.65 50.14 78.41 C 48.60 77.76 47.07 77.08 45.55 76.39 C 40.79 73.22 36.73 68.83 34.64 63.44 C 34.11 61.77 33.83 60.02 33.11 58.42 C 32.96 55.81 32.95 53.20 33.06 50.59 Z" />
</g>
<g id="#737473ff">
<path fill="#737473" opacity="1.00" d=" M 33.17 10.23 C 48.44 9.67 63.75 10.18 79.04 9.98 C 86.16 9.71 93.40 11.60 99.25 15.74 C 107.75 21.56 113.09 31.71 113.00 42.02 C 112.98 61.03 113.05 80.04 112.96 99.05 C 112.84 115.01 98.98 129.28 83.03 129.92 C 68.01 130.13 52.98 129.92 37.95 130.02 C 30.90 130.18 23.82 128.02 18.14 123.83 C 10.01 117.95 4.93 108.08 5.00 98.03 C 5.02 79.02 4.96 60.02 5.03 41.01 C 5.16 25.66 17.91 11.79 33.17 10.23 M 30.51 12.69 C 17.49 15.40 7.17 27.66 7.04 41.01 C 6.94 59.33 7.04 77.65 6.99 95.97 C 6.88 100.64 7.42 105.39 9.35 109.68 C 13.73 120.23 24.54 127.80 36.01 127.96 C 50.37 128.06 64.73 127.96 79.08 128.00 C 83.71 128.05 88.43 127.56 92.69 125.63 C 103.24 121.27 110.83 110.44 110.95 98.97 C 111.06 80.33 110.97 61.68 111.00 43.03 C 111.95 27.02 98.04 12.09 82.00 12.04 C 68.33 11.94 54.67 12.04 41.01 11.99 C 37.50 11.98 33.95 11.94 30.51 12.69 Z" />
</g>
<g id="#f8fcf8ff">
<path fill="#f8fcf8" opacity="1.00" d=" M 46.36 30.20 C 53.71 27.02 62.32 27.11 69.69 30.17 C 78.37 34.44 85.06 43.26 85.29 53.13 C 86.34 63.47 80.55 73.71 71.61 78.79 C 71.11 79.04 70.12 79.55 69.62 79.80 C 62.29 82.97 53.69 82.89 46.33 79.84 C 37.63 75.58 30.96 66.76 30.71 56.89 C 29.67 46.57 35.39 36.29 44.34 31.22 C 44.84 30.96 45.86 30.45 46.36 30.20 M 51.77 31.02 L 52.77 32.44 C 51.62 33.16 50.48 33.88 49.33 34.59 C 49.40 33.90 49.54 32.51 49.61 31.82 C 47.44 33.14 45.11 34.19 42.94 35.52 C 43.95 36.52 44.52 37.72 44.64 39.11 C 45.83 37.02 46.88 34.74 48.84 33.23 C 48.89 33.84 48.99 35.05 49.04 35.65 C 49.45 35.52 50.28 35.24 50.69 35.11 C 51.64 37.09 52.50 39.14 52.76 41.34 C 51.79 40.68 51.29 39.75 51.26 38.55 C 50.48 38.89 48.91 39.58 48.13 39.93 C 48.54 40.32 49.38 41.11 49.79 41.50 C 45.69 41.18 43.85 45.27 41.64 47.93 C 41.69 49.31 41.67 50.68 41.57 52.05 C 43.51 52.55 45.41 53.19 47.33 53.78 C 44.69 53.96 41.84 53.99 40.19 51.56 C 40.67 50.96 40.81 50.32 40.60 49.62 C 39.79 48.25 38.50 47.98 36.72 48.80 C 36.37 50.62 36.04 52.54 37.06 54.22 C 37.55 53.59 38.54 52.34 39.03 51.71 C 39.02 52.29 39.00 53.45 38.99 54.03 C 39.69 55.14 40.26 56.31 40.85 57.49 C 42.63 58.17 44.19 56.12 45.97 56.81 C 48.86 57.68 52.22 58.83 53.74 61.64 C 55.85 62.44 57.98 63.17 60.08 63.97 C 58.24 66.37 58.34 70.20 55.21 71.42 C 54.11 73.83 51.82 75.76 51.67 78.53 C 53.05 78.82 54.37 79.28 55.62 79.91 C 57.21 79.97 58.79 79.98 60.38 79.92 C 63.39 78.67 66.77 78.47 69.66 76.80 C 70.74 76.14 72.11 75.71 72.49 74.36 C 74.31 69.97 76.57 65.60 76.20 60.71 C 75.79 60.40 74.97 59.79 74.57 59.48 C 73.13 59.68 71.70 59.87 70.26 60.04 C 68.10 57.89 67.17 55.12 67.30 52.10 C 68.61 50.12 69.89 48.13 70.97 46.01 C 72.64 45.79 74.31 45.56 75.98 45.37 C 76.13 47.28 78.06 48.82 79.92 48.06 C 80.52 48.25 81.71 48.63 82.30 48.81 C 81.89 46.70 79.88 45.56 77.98 45.00 C 76.68 44.26 75.75 42.13 74.06 42.63 C 73.09 43.69 72.25 44.87 71.18 45.83 C 69.40 45.47 69.65 43.47 69.08 42.21 C 69.77 42.32 71.17 42.52 71.87 42.63 C 70.87 40.98 70.58 38.48 68.19 38.34 C 67.03 38.07 68.43 36.46 68.27 35.72 C 69.45 36.98 70.64 38.23 71.81 39.49 C 71.89 38.58 72.06 36.74 72.14 35.82 C 72.88 36.48 74.36 37.79 75.10 38.44 C 74.38 37.40 73.60 36.41 72.78 35.45 C 70.86 36.38 69.68 35.41 69.49 33.33 C 69.01 33.05 68.07 32.49 67.60 32.21 C 63.62 29.79 58.61 31.49 56.25 35.33 C 55.04 34.18 54.66 32.57 54.56 30.96 C 53.86 30.97 52.47 31.00 51.77 31.02 M 33.06 50.59 C 32.95 53.20 32.96 55.81 33.11 58.42 C 33.83 60.02 34.11 61.77 34.64 63.44 C 36.73 68.83 40.79 73.22 45.55 76.39 C 47.07 77.08 48.60 77.76 50.14 78.41 C 48.39 75.65 47.77 72.42 46.72 69.38 C 45.14 67.91 43.38 66.57 42.36 64.61 C 41.05 62.77 42.49 60.54 42.60 58.56 C 42.02 58.42 40.84 58.15 40.25 58.02 C 38.86 56.21 36.85 55.18 34.93 54.04 C 34.22 52.94 33.71 51.73 33.06 50.59 Z" />
<path fill="#f8fcf8" opacity="1.00" d=" M 62.88 34.39 C 60.05 33.19 64.33 30.59 64.70 33.23 C 64.25 33.52 63.34 34.10 62.88 34.39 Z" />
</g>
</svg>
