<?xml version="1.0" encoding="UTF-8" ?>
<!DOCTYPE svg PUBLIC "-//W3C//DTD SVG 1.1//EN" "http://www.w3.org/Graphics/SVG/1.1/DTD/svg11.dtd">
<svg width="117px" height="140px" viewBox="0 0 117 140" version="1.1" xmlns="http://www.w3.org/2000/svg">
<g id="#000000ff">
<path fill="#000000" opacity="1.00" d=" M 0.00 0.00 L 117.00 0.00 L 117.00 140.00 L 0.00 140.00 L 0.00 0.00 M 51.05 30.36 C 50.58 31.58 50.11 32.80 49.63 34.02 C 44.61 34.78 39.50 33.83 34.49 34.64 C 31.88 34.87 32.03 37.98 31.96 39.92 C 31.98 49.97 31.98 60.03 31.96 70.09 C 31.93 72.35 32.05 75.87 35.14 75.83 C 48.08 76.30 61.05 75.80 74.00 76.04 C 77.03 75.93 80.27 76.44 83.10 75.10 C 84.24 72.94 83.98 70.41 84.07 68.05 C 83.96 58.67 84.06 49.29 84.04 39.92 C 83.97 37.98 84.12 34.86 81.50 34.64 C 76.50 33.83 71.39 34.78 66.38 34.02 C 65.89 32.80 65.42 31.58 64.94 30.36 C 60.35 29.72 55.65 29.72 51.05 30.36 Z" />
<path fill="#000000" opacity="1.00" d=" M 51.32 33.04 C 55.35 31.29 59.83 31.88 64.07 32.28 C 63.88 33.59 63.15 34.24 61.89 34.24 C 58.34 34.61 54.59 34.67 51.32 33.04 Z" />
<path fill="#000000" opacity="1.00" d=" M 35.10 37.71 C 50.36 37.43 65.64 37.43 80.90 37.71 C 81.11 43.10 81.12 48.49 80.89 53.88 C 76.07 54.11 71.24 54.22 66.43 53.74 C 65.78 52.41 65.12 51.09 64.47 49.76 C 60.17 49.34 55.83 49.34 51.53 49.76 C 50.88 51.09 50.22 52.41 49.57 53.74 C 44.76 54.22 39.93 54.11 35.11 53.88 C 34.88 48.49 34.89 43.10 35.10 37.71 Z" />
<path fill="#000000" opacity="1.00" d=" M 52.46 51.63 C 56.15 51.42 59.85 51.42 63.54 51.64 C 63.61 53.74 63.64 55.84 63.65 57.95 C 59.91 58.56 56.09 58.56 52.36 57.95 C 52.35 55.85 52.39 53.74 52.46 51.63 Z" />
<path fill="#000000" opacity="1.00" d=" M 35.12 56.02 C 39.89 55.91 44.81 55.29 49.50 56.37 C 50.29 57.55 50.93 58.82 51.62 60.06 C 55.86 60.46 60.14 60.45 64.39 60.06 C 65.06 58.81 65.71 57.55 66.50 56.37 C 71.19 55.29 76.10 55.92 80.88 56.02 C 81.13 61.65 81.11 67.28 80.91 72.91 C 65.64 73.07 50.36 73.07 35.10 72.91 C 34.89 67.28 34.87 61.65 35.12 56.02 Z" />
</g>
<g id="#f8fcf8ff">
<path fill="#f8fcf8" opacity="1.00" d=" M 51.05 30.36 C 55.65 29.72 60.35 29.72 64.94 30.36 C 65.42 31.58 65.89 32.80 66.38 34.02 C 71.39 34.78 76.50 33.83 81.50 34.64 C 84.12 34.86 83.97 37.98 84.04 39.92 C 84.06 49.29 83.96 58.67 84.07 68.05 C 83.98 70.41 84.24 72.94 83.10 75.10 C 80.27 76.44 77.03 75.93 74.00 76.04 C 61.05 75.80 48.08 76.30 35.14 75.83 C 32.05 75.87 31.93 72.35 31.96 70.09 C 31.98 60.03 31.98 49.97 31.96 39.92 C 32.03 37.98 31.88 34.87 34.49 34.64 C 39.50 33.83 44.61 34.78 49.63 34.02 C 50.11 32.80 50.58 31.58 51.05 30.36 M 51.32 33.04 C 54.59 34.67 58.34 34.61 61.89 34.24 C 63.15 34.24 63.88 33.59 64.07 32.28 C 59.83 31.88 55.35 31.29 51.32 33.04 M 35.10 37.71 C 34.89 43.10 34.88 48.49 35.11 53.88 C 39.93 54.11 44.76 54.22 49.57 53.74 C 50.22 52.41 50.88 51.09 51.53 49.76 C 55.83 49.34 60.17 49.34 64.47 49.76 C 65.12 51.09 65.78 52.41 66.43 53.74 C 71.24 54.22 76.07 54.11 80.89 53.88 C 81.12 48.49 81.11 43.10 80.90 37.71 C 65.64 37.43 50.36 37.43 35.10 37.71 M 52.46 51.63 C 52.39 53.74 52.35 55.85 52.36 57.95 C 56.09 58.56 59.91 58.56 63.65 57.95 C 63.64 55.84 63.61 53.74 63.54 51.64 C 59.85 51.42 56.15 51.42 52.46 51.63 M 35.12 56.02 C 34.87 61.65 34.89 67.28 35.10 72.91 C 50.36 73.07 65.64 73.07 80.91 72.91 C 81.11 67.28 81.13 61.65 80.88 56.02 C 76.10 55.92 71.19 55.29 66.50 56.37 C 65.71 57.55 65.06 58.81 64.39 60.06 C 60.14 60.45 55.86 60.46 51.62 60.06 C 50.93 58.82 50.29 57.55 49.50 56.37 C 44.81 55.29 39.89 55.91 35.12 56.02 Z" />
</g>
</svg>
