<?xml version="1.0" encoding="UTF-8" ?>
<!DOCTYPE svg PUBLIC "-//W3C//DTD SVG 1.1//EN" "http://www.w3.org/Graphics/SVG/1.1/DTD/svg11.dtd">
<svg width="117px" height="140px" viewBox="0 0 117 140" version="1.1" xmlns="http://www.w3.org/2000/svg">
<g id="#000000ff">
<path fill="#000000" opacity="1.00" d=" M 0.00 0.00 L 117.00 0.00 L 117.00 140.00 L 0.00 140.00 L 0.00 0.00 M 33.15 10.22 C 17.91 11.78 5.17 25.62 5.02 40.96 C 4.98 60.33 4.98 79.71 5.02 99.09 C 5.16 115.37 19.59 129.79 35.87 129.98 C 51.25 130.01 66.64 130.03 82.03 129.97 C 97.98 129.85 112.28 116.05 112.92 100.10 C 113.13 81.08 112.92 62.06 113.02 43.04 C 113.24 35.23 110.57 27.37 105.49 21.41 C 99.33 13.96 89.65 9.69 80.01 9.98 C 64.39 10.17 48.75 9.69 33.15 10.22 Z" />
<path fill="#000000" opacity="1.00" d=" M 33.18 12.26 C 49.45 11.71 65.77 12.09 82.06 12.05 C 97.29 12.20 110.85 25.72 110.95 40.96 C 111.05 59.98 110.99 79.00 110.98 98.02 C 111.22 110.13 103.10 121.69 91.84 125.97 C 85.56 128.62 78.63 127.90 71.99 128.00 C 59.64 127.94 47.29 128.12 34.94 127.91 C 20.10 127.24 7.17 113.93 7.04 99.05 C 6.97 79.71 6.98 60.37 7.04 41.04 C 7.16 26.74 19.00 13.81 33.18 12.26 M 47.49 39.36 C 46.93 41.12 48.26 41.72 49.73 41.84 C 52.55 38.21 56.33 35.56 59.66 32.45 C 63.21 35.54 67.14 38.29 69.97 42.12 C 71.05 41.54 71.98 40.73 72.90 39.93 C 71.44 38.94 69.96 37.98 68.69 36.75 C 68.35 34.24 68.55 31.69 68.46 29.16 C 67.15 29.09 65.83 29.04 64.52 28.99 C 64.46 30.05 64.36 32.16 64.30 33.22 C 62.57 32.15 61.37 28.64 59.20 29.15 C 55.47 32.74 51.57 36.16 47.49 39.36 M 50.45 41.76 C 50.52 44.29 50.51 46.83 50.53 49.36 C 52.93 49.39 55.34 49.39 57.74 49.36 C 57.88 47.43 58.03 45.51 58.19 43.58 C 59.32 43.60 60.46 43.62 61.60 43.64 C 61.61 45.55 61.62 47.46 61.63 49.38 C 63.90 49.39 66.17 49.38 68.44 49.35 C 68.52 46.81 68.52 44.27 68.51 41.73 C 65.61 39.15 62.70 36.59 59.83 33.99 C 56.60 36.46 53.66 39.28 50.45 41.76 M 33.83 52.98 C 37.42 56.01 40.99 59.08 44.64 62.04 C 43.84 59.35 42.96 56.70 42.15 54.02 C 49.67 53.30 57.25 54.09 64.80 53.70 C 68.82 54.16 72.86 53.25 76.85 54.00 C 76.03 56.69 75.15 59.35 74.36 62.04 C 78.01 59.07 81.59 56.03 85.17 52.98 C 81.58 49.96 78.00 46.93 74.36 43.96 C 75.15 46.65 76.03 49.32 76.87 52.00 C 74.99 52.19 73.11 52.52 71.22 52.27 C 61.52 51.98 51.79 52.60 42.13 52.00 C 42.96 49.32 43.84 46.65 44.63 43.96 C 41.00 46.93 37.42 49.96 33.83 52.98 M 50.92 57.20 C 50.91 57.73 50.90 58.79 50.89 59.32 C 54.92 59.33 58.96 59.29 62.99 59.36 C 60.03 62.59 57.10 65.85 54.12 69.06 C 52.43 70.92 50.25 72.71 50.27 75.46 C 56.29 75.51 62.31 75.48 68.33 75.48 C 68.31 74.88 68.28 73.69 68.27 73.09 C 63.82 73.12 59.36 73.21 54.92 72.78 L 55.62 72.58 C 58.20 69.85 60.73 67.06 63.27 64.28 C 65.17 62.13 67.47 60.18 68.34 57.34 C 62.54 57.05 56.73 57.26 50.92 57.20 Z" />
</g>
<g id="#6a6d6aff">
<path fill="#6a6d6a" opacity="1.00" d=" M 33.15 10.22 C 48.75 9.69 64.39 10.17 80.01 9.98 C 89.65 9.69 99.33 13.96 105.49 21.41 C 110.57 27.37 113.24 35.23 113.02 43.04 C 112.92 62.06 113.13 81.08 112.92 100.10 C 112.28 116.05 97.98 129.85 82.03 129.97 C 66.64 130.03 51.25 130.01 35.87 129.98 C 19.59 129.79 5.16 115.37 5.02 99.09 C 4.98 79.71 4.98 60.33 5.02 40.96 C 5.17 25.62 17.91 11.78 33.15 10.22 M 33.18 12.26 C 19.00 13.81 7.16 26.74 7.04 41.04 C 6.98 60.37 6.97 79.71 7.04 99.05 C 7.17 113.93 20.10 127.24 34.94 127.91 C 47.29 128.12 59.64 127.94 71.99 128.00 C 78.63 127.90 85.56 128.62 91.84 125.97 C 103.10 121.69 111.22 110.13 110.98 98.02 C 110.99 79.00 111.05 59.98 110.95 40.96 C 110.85 25.72 97.29 12.20 82.06 12.05 C 65.77 12.09 49.45 11.71 33.18 12.26 Z" />
</g>
<g id="#f8fcf8ff">
<path fill="#f8fcf8" opacity="1.00" d=" M 47.49 39.36 C 51.57 36.16 55.47 32.74 59.20 29.15 C 61.37 28.64 62.57 32.15 64.30 33.22 C 64.36 32.16 64.46 30.05 64.52 28.99 C 65.83 29.04 67.15 29.09 68.46 29.16 C 68.55 31.69 68.35 34.24 68.69 36.75 C 69.96 37.98 71.44 38.94 72.90 39.93 C 71.98 40.73 71.05 41.54 69.97 42.12 C 67.14 38.29 63.21 35.54 59.66 32.45 C 56.33 35.56 52.55 38.21 49.73 41.84 C 48.26 41.72 46.93 41.12 47.49 39.36 Z" />
<path fill="#f8fcf8" opacity="1.00" d=" M 50.45 41.76 C 53.66 39.28 56.60 36.46 59.83 33.99 C 62.70 36.59 65.61 39.15 68.51 41.73 C 68.52 44.27 68.52 46.81 68.44 49.35 C 66.17 49.38 63.90 49.39 61.63 49.38 C 61.62 47.46 61.61 45.55 61.60 43.64 C 60.46 43.62 59.32 43.60 58.19 43.58 C 58.03 45.51 57.88 47.43 57.74 49.36 C 55.34 49.39 52.93 49.39 50.53 49.36 C 50.51 46.83 50.52 44.29 50.45 41.76 Z" />
<path fill="#f8fcf8" opacity="1.00" d=" M 33.83 52.98 C 37.42 49.96 41.00 46.93 44.63 43.96 C 43.84 46.65 42.96 49.32 42.13 52.00 C 51.79 52.60 61.52 51.98 71.22 52.27 C 73.11 52.52 74.99 52.19 76.87 52.00 C 76.03 49.32 75.15 46.65 74.36 43.96 C 78.00 46.93 81.58 49.96 85.17 52.98 C 81.59 56.03 78.01 59.07 74.36 62.04 C 75.15 59.35 76.03 56.69 76.85 54.00 C 72.86 53.25 68.82 54.16 64.80 53.70 C 57.25 54.09 49.67 53.30 42.15 54.02 C 42.96 56.70 43.84 59.35 44.64 62.04 C 40.99 59.08 37.42 56.01 33.83 52.98 Z" />
<path fill="#f8fcf8" opacity="1.00" d=" M 50.92 57.20 C 56.73 57.26 62.54 57.05 68.34 57.34 C 67.47 60.18 65.17 62.13 63.27 64.28 C 60.73 67.06 58.20 69.85 55.62 72.58 L 54.92 72.78 C 59.36 73.21 63.82 73.12 68.27 73.09 C 68.28 73.69 68.31 74.88 68.33 75.48 C 62.31 75.48 56.29 75.51 50.27 75.46 C 50.25 72.71 52.43 70.92 54.12 69.06 C 57.10 65.85 60.03 62.59 62.99 59.36 C 58.96 59.29 54.92 59.33 50.89 59.32 C 50.90 58.79 50.91 57.73 50.92 57.20 Z" />
</g>
</svg>
