<?xml version="1.0" encoding="UTF-8" ?>
<!DOCTYPE svg PUBLIC "-//W3C//DTD SVG 1.1//EN" "http://www.w3.org/Graphics/SVG/1.1/DTD/svg11.dtd">
<svg width="117px" height="140px" viewBox="0 0 117 140" version="1.1" xmlns="http://www.w3.org/2000/svg">
<g id="#181818ff">
<path fill="#181818" opacity="1.00" d=" M 0.00 0.00 L 117.00 0.00 L 117.00 140.00 L 0.00 140.00 L 0.00 0.00 M 49.11 7.14 C 47.81 7.90 48.10 9.56 47.84 10.82 C 45.06 11.23 44.46 14.16 45.67 16.35 C 46.35 16.57 47.73 17.00 48.41 17.22 C 48.15 20.47 47.98 23.72 47.96 26.97 C 46.32 26.98 44.68 26.95 43.06 27.19 C 41.18 28.80 42.32 31.72 41.98 33.89 C 42.02 36.61 42.01 39.33 42.00 42.06 C 41.99 46.07 42.01 50.08 42.00 54.09 C 41.99 58.01 42.01 61.94 42.02 65.87 C 42.00 68.50 42.00 71.14 41.99 73.77 C 41.98 77.83 42.11 81.88 41.92 85.93 C 42.05 90.21 45.58 94.12 50.00 93.94 C 56.66 94.05 63.33 94.06 69.99 93.94 C 74.39 94.13 77.87 90.26 78.11 86.03 C 77.92 82.16 78.01 78.28 78.01 74.41 C 78.01 71.56 78.00 68.70 77.98 65.85 C 77.99 61.92 78.01 57.99 78.00 54.05 C 77.99 50.07 78.01 46.09 78.00 42.11 C 77.99 39.37 77.98 36.64 78.02 33.90 C 78.00 31.96 78.08 30.01 77.79 28.08 C 76.52 26.23 73.85 27.30 71.96 26.98 C 72.00 22.29 71.99 17.60 72.02 12.91 C 71.68 11.05 72.64 8.55 70.95 7.22 C 67.07 6.76 63.16 7.06 59.27 7.01 C 55.88 7.06 52.49 6.81 49.11 7.14 M 84.65 53.82 C 83.37 55.43 84.45 57.39 84.99 59.04 C 86.84 59.70 89.22 60.58 90.73 58.76 C 92.61 57.26 91.71 54.83 91.08 52.94 L 90.99 53.04 C 88.98 51.85 86.00 51.47 84.65 53.82 M 27.80 73.03 C 26.05 75.51 27.41 78.52 28.98 80.69 C 31.53 82.14 35.00 82.59 37.13 80.16 C 39.64 78.08 38.97 74.61 37.97 71.93 L 37.62 72.31 C 35.14 69.01 29.73 69.34 27.80 73.03 Z" />
<path fill="#181818" opacity="1.00" d=" M 51.14 15.01 C 53.09 15.00 55.04 15.00 57.00 15.00 C 56.99 16.32 56.99 17.65 57.01 18.97 C 54.89 19.00 52.77 19.04 50.66 19.09 C 50.76 18.16 50.95 16.31 51.05 15.38 L 51.14 15.01 Z" />
<path fill="#181818" opacity="1.00" d=" M 62.99 15.00 C 64.99 14.97 66.99 14.96 69.00 14.93 C 68.99 16.28 69.00 17.63 69.00 18.98 C 68.32 18.99 66.96 19.01 66.29 19.02 C 65.45 19.03 63.79 19.05 62.96 19.06 C 62.99 17.71 63.00 16.35 62.99 15.00 Z" />
<path fill="#181818" opacity="1.00" d=" M 45.99 30.99 C 55.33 30.98 64.67 30.97 74.02 30.99 C 74.02 31.73 74.01 33.21 74.01 33.95 C 74.01 36.64 73.99 39.33 74.00 42.03 C 73.99 46.03 74.01 50.04 74.00 54.05 C 73.99 58.01 74.01 61.97 74.01 65.92 C 74.01 68.74 74.00 71.55 73.99 74.37 C 73.96 78.32 74.06 82.26 74.08 86.21 C 73.44 88.01 72.27 90.05 70.05 89.89 C 63.32 90.11 56.57 90.12 49.85 89.88 C 47.69 90.00 46.58 87.98 45.90 86.25 C 45.93 82.44 46.04 78.64 46.01 74.83 C 45.99 71.86 45.99 68.89 45.99 65.92 C 45.99 61.96 46.00 58.01 46.00 54.06 C 45.99 50.06 46.01 46.07 46.00 42.07 C 46.01 39.40 45.99 36.73 45.99 34.06 C 45.99 33.29 45.99 31.76 45.99 30.99 Z" />
</g>
<g id="#f8d478ff">
<path fill="#ffffff" opacity="1.00" d=" M 49.11 7.14 C 52.49 6.81 55.88 7.06 59.27 7.01 C 57.11 10.03 54.62 12.87 51.25 14.57 C 51.03 13.90 50.59 12.55 50.38 11.88 C 49.54 11.51 48.69 11.16 47.84 10.82 C 48.10 9.56 47.81 7.90 49.11 7.14 Z" />
</g>
<g id="#f8b058ff">
<path fill="#ffffff" opacity="1.00" d=" M 59.27 7.01 C 63.16 7.06 67.07 6.76 70.95 7.22 C 72.64 8.55 71.68 11.05 72.02 12.91 C 71.01 13.58 70.00 14.25 69.00 14.93 C 66.99 14.96 64.99 14.97 62.99 15.00 C 63.00 16.35 62.99 17.71 62.96 19.06 C 63.79 19.05 65.45 19.03 66.29 19.02 C 64.17 21.73 61.98 24.38 59.75 26.99 C 55.82 27.01 51.89 27.00 47.96 26.97 C 47.98 23.72 48.15 20.47 48.41 17.22 C 49.33 16.67 50.21 16.06 51.05 15.38 C 50.95 16.31 50.76 18.16 50.66 19.09 C 52.77 19.04 54.89 19.00 57.01 18.97 C 56.99 17.65 56.99 16.32 57.00 15.00 C 55.04 15.00 53.09 15.00 51.14 15.01 L 51.25 14.57 C 54.62 12.87 57.11 10.03 59.27 7.01 Z" />
</g>
<g id="#454ce0ff">
<path fill="#ffffff" opacity="1.00" d=" M 45.67 16.35 C 44.46 14.16 45.06 11.23 47.84 10.82 C 48.69 11.16 49.54 11.51 50.38 11.88 C 48.80 13.36 47.24 14.86 45.67 16.35 Z" />
</g>
<g id="#3239e9ff">
<path fill="#ffffff" opacity="1.00" d=" M 45.67 16.35 C 47.24 14.86 48.80 13.36 50.38 11.88 C 50.59 12.55 51.03 13.90 51.25 14.57 L 51.14 15.01 L 51.05 15.38 C 50.21 16.06 49.33 16.67 48.41 17.22 C 47.73 17.00 46.35 16.57 45.67 16.35 Z" />
</g>
<g id="#f88838ff">
<path fill="#ffffff" opacity="1.00" d=" M 69.00 14.93 C 70.00 14.25 71.01 13.58 72.02 12.91 C 71.99 17.60 72.00 22.29 71.96 26.98 C 67.89 27.01 63.82 26.97 59.75 26.99 C 61.98 24.38 64.17 21.73 66.29 19.02 C 66.96 19.01 68.32 18.99 69.00 18.98 C 69.00 17.63 68.99 16.28 69.00 14.93 Z" />
</g>
<g id="#9864f8ff">
<path fill="#ffffff" opacity="1.00" d=" M 43.06 27.19 C 44.68 26.95 46.32 26.98 47.96 26.97 C 51.89 27.00 55.82 27.01 59.75 26.99 C 63.82 26.97 67.89 27.01 71.96 26.98 C 73.85 27.30 76.52 26.23 77.79 28.08 C 78.08 30.01 78.00 31.96 78.02 33.90 C 76.69 33.92 75.35 33.94 74.01 33.95 C 74.01 33.21 74.02 31.73 74.02 30.99 C 64.67 30.97 55.33 30.98 45.99 30.99 C 45.99 31.76 45.99 33.29 45.99 34.06 C 44.65 34.01 43.31 33.95 41.98 33.89 C 42.32 31.72 41.18 28.80 43.06 27.19 Z" />
</g>
<g id="#885cf0ff">
<path fill="#ffffff" opacity="1.00" d=" M 41.98 33.89 C 43.31 33.95 44.65 34.01 45.99 34.06 C 45.99 36.73 46.01 39.40 46.00 42.07 C 44.66 42.06 43.33 42.06 42.00 42.06 C 42.01 39.33 42.02 36.61 41.98 33.89 Z" />
<path fill="#ffffff" opacity="1.00" d=" M 74.01 33.95 C 75.35 33.94 76.69 33.92 78.02 33.90 C 77.98 36.64 77.99 39.37 78.00 42.11 C 76.67 42.08 75.34 42.05 74.00 42.03 C 73.99 39.33 74.01 36.64 74.01 33.95 Z" />
</g>
<g id="#7054e8ff">
<path fill="#ffffff" opacity="1.00" d=" M 42.00 42.06 C 43.33 42.06 44.66 42.06 46.00 42.07 C 46.01 46.07 45.99 50.06 46.00 54.06 C 44.67 54.07 43.33 54.08 42.00 54.09 C 42.01 50.08 41.99 46.07 42.00 42.06 Z" />
<path fill="#ffffff" opacity="1.00" d=" M 74.00 42.03 C 75.34 42.05 76.67 42.08 78.00 42.11 C 78.01 46.09 77.99 50.07 78.00 54.05 C 76.66 54.05 75.33 54.05 74.00 54.05 C 74.01 50.04 73.99 46.03 74.00 42.03 Z" />
</g>
<g id="#90c4e8ff">
<path fill="#ffffff" opacity="1.00" d=" M 84.65 53.82 C 86.00 51.47 88.98 51.85 90.99 53.04 C 89.14 55.18 87.12 57.17 84.99 59.04 C 84.45 57.39 83.37 55.43 84.65 53.82 Z" />
</g>
<g id="#7090f0ff">
<path fill="#ffffff" opacity="1.00" d=" M 90.99 53.04 L 91.08 52.94 C 91.71 54.83 92.61 57.26 90.73 58.76 C 89.22 60.58 86.84 59.70 84.99 59.04 C 87.12 57.17 89.14 55.18 90.99 53.04 Z" />
</g>
<g id="#584ce0ff">
<path fill="#ffffff" opacity="1.00" d=" M 42.00 54.09 C 43.33 54.08 44.67 54.07 46.00 54.06 C 46.00 58.01 45.99 61.96 45.99 65.92 C 44.66 65.90 43.34 65.89 42.02 65.87 C 42.01 61.94 41.99 58.01 42.00 54.09 Z" />
<path fill="#ffffff" opacity="1.00" d=" M 74.00 54.05 C 75.33 54.05 76.66 54.05 78.00 54.05 C 78.01 57.99 77.99 61.92 77.98 65.85 C 76.65 65.88 75.33 65.90 74.01 65.92 C 74.01 61.97 73.99 58.01 74.00 54.05 Z" />
</g>
<g id="#4844d8ff">
<path fill="#ffffff" opacity="1.00" d=" M 42.02 65.87 C 43.34 65.89 44.66 65.90 45.99 65.92 C 45.99 68.89 45.99 71.86 46.01 74.83 C 44.67 74.48 43.33 74.12 41.99 73.77 C 42.00 71.14 42.00 68.50 42.02 65.87 Z" />
<path fill="#ffffff" opacity="1.00" d=" M 74.01 65.92 C 75.33 65.90 76.65 65.88 77.98 65.85 C 78.00 68.70 78.01 71.56 78.01 74.41 C 76.67 74.43 75.33 74.42 73.99 74.37 C 74.00 71.55 74.01 68.74 74.01 65.92 Z" />
</g>
<g id="#f09048ff">
<path fill="#ffffff" opacity="1.00" d=" M 27.80 73.03 C 29.73 69.34 35.14 69.01 37.62 72.31 C 35.12 75.47 32.23 78.30 28.98 80.69 C 27.41 78.52 26.05 75.51 27.80 73.03 Z" />
</g>
<g id="#e86828ff">
<path fill="#ffffff" opacity="1.00" d=" M 37.62 72.31 L 37.97 71.93 C 38.97 74.61 39.64 78.08 37.13 80.16 C 35.00 82.59 31.53 82.14 28.98 80.69 C 32.23 78.30 35.12 75.47 37.62 72.31 Z" />
</g>
<g id="#303cd0ff">
<path fill="#ffffff" opacity="1.00" d=" M 41.99 73.77 C 43.33 74.12 44.67 74.48 46.01 74.83 C 46.04 78.64 45.93 82.44 45.90 86.25 C 44.57 86.14 43.25 86.03 41.92 85.93 C 42.11 81.88 41.98 77.83 41.99 73.77 Z" />
<path fill="#ffffff" opacity="1.00" d=" M 73.99 74.37 C 75.33 74.42 76.67 74.43 78.01 74.41 C 78.01 78.28 77.92 82.16 78.11 86.03 C 76.76 86.08 75.42 86.14 74.08 86.21 C 74.06 82.26 73.96 78.32 73.99 74.37 Z" />
</g>
<g id="#1834c8ff">
<path fill="#ffffff" opacity="1.00" d=" M 41.92 85.93 C 43.25 86.03 44.57 86.14 45.90 86.25 C 46.58 87.98 47.69 90.00 49.85 89.88 C 56.57 90.12 63.32 90.11 70.05 89.89 C 72.27 90.05 73.44 88.01 74.08 86.21 C 75.42 86.14 76.76 86.08 78.11 86.03 C 77.87 90.26 74.39 94.13 69.99 93.94 C 63.33 94.06 56.66 94.05 50.00 93.94 C 45.58 94.12 42.05 90.21 41.92 85.93 Z" />
</g>
</svg>
