<?xml version="1.0" encoding="UTF-8" ?>
<!DOCTYPE svg PUBLIC "-//W3C//DTD SVG 1.1//EN" "http://www.w3.org/Graphics/SVG/1.1/DTD/svg11.dtd">
<svg width="117px" height="140px" viewBox="0 0 117 140" version="1.1" xmlns="http://www.w3.org/2000/svg">
<g id="#000000ff">
<path fill="#000000" opacity="1.00" d=" M 0.00 0.00 L 117.00 0.00 L 117.00 140.00 L 0.00 140.00 L 0.00 0.00 M 48.42 38.58 C 46.12 39.55 48.24 41.71 49.66 42.22 C 52.17 38.19 56.33 35.72 59.66 32.45 C 63.31 35.47 67.00 38.46 70.11 42.06 C 71.11 41.46 72.05 40.77 72.94 40.00 C 71.42 38.89 69.90 37.78 68.46 36.56 C 68.52 34.10 68.53 31.64 68.48 29.18 C 67.16 29.10 65.84 29.03 64.52 28.98 C 64.47 30.04 64.36 32.17 64.31 33.23 C 62.81 31.82 61.59 30.08 59.94 28.84 C 55.91 31.75 52.54 35.68 48.42 38.58 M 50.46 41.79 C 50.52 44.31 50.51 46.84 50.53 49.36 C 52.96 49.39 55.40 49.39 57.84 49.34 C 57.87 47.45 57.88 45.57 57.89 43.69 C 59.12 43.65 60.36 43.61 61.59 43.58 C 61.61 45.51 61.62 47.44 61.64 49.38 C 63.90 49.39 66.17 49.38 68.44 49.35 C 68.51 46.86 68.65 44.36 68.40 41.87 C 65.80 38.98 62.63 36.67 59.82 33.99 C 56.61 36.48 53.64 39.26 50.46 41.79 M 33.83 52.98 C 37.43 56.02 41.00 59.08 44.65 62.06 C 43.83 59.36 42.96 56.69 42.14 53.99 C 46.41 53.29 50.71 54.16 55.00 53.67 C 62.28 54.13 69.60 53.32 76.86 53.99 C 76.03 56.68 75.15 59.36 74.35 62.07 C 77.99 59.07 81.59 56.03 85.18 52.98 C 81.58 49.95 77.97 46.93 74.35 43.93 C 75.15 46.64 76.03 49.32 76.88 52.01 C 69.35 52.65 61.78 51.93 54.23 52.30 C 50.19 51.85 46.14 52.71 42.12 52.02 C 42.95 49.33 43.83 46.65 44.65 43.95 C 41.01 46.93 37.42 49.96 33.83 52.98 M 49.22 56.75 C 51.63 59.85 54.01 62.98 56.43 66.07 C 53.81 69.09 51.24 72.17 48.85 75.38 C 49.97 75.43 52.22 75.53 53.34 75.57 C 55.22 73.09 57.15 70.65 59.03 68.17 C 60.95 70.63 62.88 73.07 64.74 75.57 C 65.88 75.52 68.14 75.42 69.28 75.38 C 66.88 72.12 64.21 69.10 61.59 66.03 C 64.07 63.01 66.37 59.85 68.73 56.75 C 67.17 56.75 65.62 56.75 64.06 56.76 C 62.37 59.19 60.68 61.62 59.03 64.08 C 57.36 61.62 55.66 59.19 53.94 56.77 C 52.36 56.76 50.79 56.75 49.22 56.75 Z" />
</g>
<g id="#6a6d6aff">
<path fill="#6a6d6a" opacity="1.00" d=" M 33.15 10.22 C 48.75 9.69 64.39 10.17 80.01 9.98 C 89.65 9.69 99.33 13.96 105.49 21.41 C 110.57 27.37 113.24 35.23 113.02 43.04 C 112.92 62.06 113.13 81.08 112.92 100.10 C 112.28 116.05 97.98 129.85 82.03 129.97 C 66.64 130.03 51.25 130.01 35.87 129.98 C 19.59 129.79 5.16 115.37 5.02 99.09 C 4.98 79.71 4.98 60.33 5.02 40.96 C 5.17 25.62 17.91 11.78 33.15 10.22 M 33.18 12.26 C 19.00 13.81 7.16 26.74 7.04 41.04 C 6.98 60.37 6.97 79.71 7.04 99.05 C 7.17 113.93 20.10 127.24 34.94 127.91 C 47.29 128.12 59.64 127.94 71.99 128.00 C 78.63 127.90 85.56 128.62 91.84 125.97 C 103.10 121.69 111.22 110.13 110.98 98.02 C 110.99 79.00 111.05 59.98 110.95 40.96 C 110.85 25.72 97.29 12.20 82.06 12.05 C 65.77 12.09 49.45 11.71 33.18 12.26 Z" />
</g>
<g id="#f8fcf8ff">
<path fill="#f8fcf8" opacity="1.00" d=" M 48.42 38.58 C 52.54 35.68 55.91 31.75 59.94 28.84 C 61.59 30.08 62.81 31.82 64.31 33.23 C 64.36 32.17 64.47 30.04 64.52 28.98 C 65.84 29.03 67.16 29.10 68.48 29.18 C 68.53 31.64 68.52 34.10 68.46 36.56 C 69.90 37.78 71.42 38.89 72.94 40.00 C 72.05 40.77 71.11 41.46 70.11 42.06 C 67.00 38.46 63.31 35.47 59.66 32.45 C 56.33 35.72 52.17 38.19 49.66 42.22 C 48.24 41.71 46.12 39.55 48.42 38.58 Z" />
<path fill="#f8fcf8" opacity="1.00" d=" M 50.46 41.79 C 53.64 39.26 56.61 36.48 59.82 33.99 C 62.63 36.67 65.80 38.98 68.40 41.87 C 68.65 44.36 68.51 46.86 68.44 49.35 C 66.17 49.38 63.90 49.39 61.64 49.38 C 61.62 47.44 61.61 45.51 61.59 43.58 C 60.36 43.61 59.12 43.65 57.89 43.69 C 57.88 45.57 57.87 47.45 57.84 49.34 C 55.40 49.39 52.96 49.39 50.53 49.36 C 50.51 46.84 50.52 44.31 50.46 41.79 Z" />
<path fill="#f8fcf8" opacity="1.00" d=" M 33.83 52.98 C 37.42 49.96 41.01 46.93 44.65 43.95 C 43.83 46.65 42.95 49.33 42.12 52.02 C 46.14 52.71 50.19 51.85 54.23 52.30 C 61.78 51.93 69.35 52.65 76.88 52.01 C 76.03 49.32 75.15 46.64 74.35 43.93 C 77.97 46.93 81.58 49.95 85.18 52.98 C 81.59 56.03 77.99 59.07 74.35 62.07 C 75.15 59.36 76.03 56.68 76.86 53.99 C 69.60 53.32 62.28 54.13 55.00 53.67 C 50.71 54.16 46.41 53.29 42.14 53.99 C 42.96 56.69 43.83 59.36 44.65 62.06 C 41.00 59.08 37.43 56.02 33.83 52.98 Z" />
<path fill="#f8fcf8" opacity="1.00" d=" M 49.22 56.75 C 50.79 56.75 52.36 56.76 53.94 56.77 C 55.66 59.19 57.36 61.62 59.03 64.08 C 60.68 61.62 62.37 59.19 64.06 56.76 C 65.62 56.75 67.17 56.75 68.73 56.75 C 66.37 59.85 64.07 63.01 61.59 66.03 C 64.21 69.10 66.88 72.12 69.28 75.38 C 68.14 75.42 65.88 75.52 64.74 75.57 C 62.88 73.07 60.95 70.63 59.03 68.17 C 57.15 70.65 55.22 73.09 53.34 75.57 C 52.22 75.53 49.97 75.43 48.85 75.38 C 51.24 72.17 53.81 69.09 56.43 66.07 C 54.01 62.98 51.63 59.85 49.22 56.75 Z" />
</g>
</svg>
