<?xml version="1.0" encoding="UTF-8" ?>
<!DOCTYPE svg PUBLIC "-//W3C//DTD SVG 1.1//EN" "http://www.w3.org/Graphics/SVG/1.1/DTD/svg11.dtd">
<svg width="117px" height="140px" viewBox="0 0 117 140" version="1.1" xmlns="http://www.w3.org/2000/svg">
<g id="#000000ff">
<path fill="#000000" opacity="1.00" d=" M 0.00 0.00 L 117.00 0.00 L 117.00 140.00 L 0.00 140.00 L 0.00 0.00 M 33.19 10.23 C 20.71 11.59 9.64 21.01 6.27 33.09 C 4.53 38.58 5.06 44.38 5.00 50.04 C 5.06 66.74 4.89 83.45 5.08 100.15 C 5.80 115.71 19.42 129.28 34.99 129.93 C 50.66 130.08 66.34 130.00 82.02 129.96 C 98.33 129.85 112.83 115.39 112.96 99.08 C 113.05 80.05 112.98 61.02 113.00 41.99 C 113.06 32.89 108.94 23.91 102.07 17.95 C 95.83 12.37 87.35 9.63 79.03 9.98 C 63.75 10.18 48.45 9.68 33.19 10.23 Z" />
<path fill="#000000" opacity="1.00" d=" M 33.31 12.33 C 48.52 11.73 63.76 12.25 78.99 12.06 C 85.36 11.87 91.86 13.28 97.20 16.87 C 105.63 22.17 111.00 31.99 110.91 41.95 C 110.97 59.95 110.90 77.96 110.94 95.96 C 111.09 101.60 110.12 107.36 107.26 112.29 C 102.28 121.81 91.75 127.99 81.02 127.90 C 65.99 127.93 50.95 127.99 35.91 127.88 C 20.73 127.72 7.25 114.27 7.12 99.07 C 6.98 81.38 7.12 63.68 7.06 45.99 C 6.94 40.45 7.24 34.72 9.75 29.68 C 13.90 20.33 23.13 13.46 33.31 12.33 M 60.32 41.73 C 55.34 42.06 51.01 45.58 49.82 50.45 C 45.90 50.51 41.97 50.35 38.05 50.47 C 37.01 50.48 36.45 51.02 36.35 52.09 C 35.40 65.08 48.37 78.05 61.58 74.61 C 61.59 70.60 61.58 66.59 61.57 62.59 C 67.03 61.84 70.72 57.10 71.42 51.85 C 75.73 51.59 80.09 52.14 84.37 51.43 C 79.97 51.03 75.54 51.25 71.12 51.35 C 70.37 46.12 65.97 42.35 60.87 41.60 C 60.73 37.37 60.90 33.12 60.66 28.90 C 59.73 33.11 60.35 37.46 60.32 41.73 Z" />
<path fill="#000000" opacity="1.00" d=" M 52.89 45.93 C 55.10 44.64 57.21 42.77 59.95 42.93 C 62.77 42.55 65.15 44.13 67.43 45.52 C 69.60 48.44 70.84 52.34 69.22 55.82 C 66.93 61.92 57.69 63.46 53.47 58.54 C 49.94 55.24 50.40 49.70 52.89 45.93 Z" />
</g>
<g id="#737473ff">
<path fill="#737473" opacity="1.00" d=" M 33.19 10.23 C 48.45 9.68 63.75 10.18 79.03 9.98 C 87.35 9.63 95.83 12.37 102.07 17.95 C 108.94 23.91 113.06 32.89 113.00 41.99 C 112.98 61.02 113.05 80.05 112.96 99.08 C 112.83 115.39 98.33 129.85 82.02 129.96 C 66.34 130.00 50.66 130.08 34.99 129.93 C 19.42 129.28 5.80 115.71 5.08 100.15 C 4.89 83.45 5.06 66.74 5.00 50.04 C 5.06 44.38 4.53 38.58 6.27 33.09 C 9.64 21.01 20.71 11.59 33.19 10.23 M 33.31 12.33 C 23.13 13.46 13.90 20.33 9.75 29.68 C 7.24 34.72 6.94 40.45 7.06 45.99 C 7.12 63.68 6.98 81.38 7.12 99.07 C 7.25 114.27 20.73 127.72 35.91 127.88 C 50.95 127.99 65.99 127.93 81.02 127.90 C 91.75 127.99 102.28 121.81 107.26 112.29 C 110.12 107.36 111.09 101.60 110.94 95.96 C 110.90 77.96 110.97 59.95 110.91 41.95 C 111.00 31.99 105.63 22.17 97.20 16.87 C 91.86 13.28 85.36 11.87 78.99 12.06 C 63.76 12.25 48.52 11.73 33.31 12.33 Z" />
</g>
<g id="#f8fcf8ff">
<path fill="#f8fcf8" opacity="1.00" d=" M 60.32 41.73 C 60.35 37.46 59.73 33.11 60.66 28.90 C 60.90 33.12 60.73 37.37 60.87 41.60 C 65.97 42.35 70.37 46.12 71.12 51.35 C 75.54 51.25 79.97 51.03 84.37 51.43 C 80.09 52.14 75.73 51.59 71.42 51.85 C 70.72 57.10 67.03 61.84 61.57 62.59 C 61.58 66.59 61.59 70.60 61.58 74.61 C 48.37 78.05 35.40 65.08 36.35 52.09 C 36.45 51.02 37.01 50.48 38.05 50.47 C 41.97 50.35 45.90 50.51 49.82 50.45 C 51.01 45.58 55.34 42.06 60.32 41.73 M 52.89 45.93 C 50.40 49.70 49.94 55.24 53.47 58.54 C 57.69 63.46 66.93 61.92 69.22 55.82 C 70.84 52.34 69.60 48.44 67.43 45.52 C 65.15 44.13 62.77 42.55 59.95 42.93 C 57.21 42.77 55.10 44.64 52.89 45.93 Z" />
</g>
</svg>
