<?xml version="1.0" encoding="UTF-8" ?>
<!DOCTYPE svg PUBLIC "-//W3C//DTD SVG 1.1//EN" "http://www.w3.org/Graphics/SVG/1.1/DTD/svg11.dtd">
<svg width="117px" height="140px" viewBox="0 0 117 140" version="1.1" xmlns="http://www.w3.org/2000/svg">
<g id="#384450ff">
<path fill="#384450" opacity="1.00" d=" M 0.00 0.00 L 117.00 0.00 L 117.00 140.00 L 0.00 140.00 L 0.00 0.00 M 41.16 53.21 C 37.76 54.94 39.40 60.59 43.14 60.42 C 45.08 60.75 46.59 58.87 47.20 57.25 C 47.86 54.13 43.79 51.02 41.16 53.21 M 56.49 53.50 C 54.56 54.94 54.57 58.03 56.47 59.49 C 58.65 61.80 62.71 59.86 62.95 56.90 C 63.42 53.63 58.88 50.91 56.49 53.50 M 72.37 53.42 C 67.84 56.39 73.85 63.40 77.46 59.28 C 81.27 56.30 75.83 50.02 72.37 53.42 Z" />
</g>
<g id="#f8fcf8ff">
<path fill="#f8fcf8" opacity="1.00" d=" M 41.16 53.21 C 43.79 51.02 47.86 54.13 47.20 57.25 C 46.59 58.87 45.08 60.75 43.14 60.42 C 39.40 60.59 37.76 54.94 41.16 53.21 Z" />
<path fill="#f8fcf8" opacity="1.00" d=" M 56.49 53.50 C 58.88 50.91 63.42 53.63 62.95 56.90 C 62.71 59.86 58.65 61.80 56.47 59.49 C 54.57 58.03 54.56 54.94 56.49 53.50 Z" />
<path fill="#f8fcf8" opacity="1.00" d=" M 72.37 53.42 C 75.83 50.02 81.27 56.30 77.46 59.28 C 73.85 63.40 67.84 56.39 72.37 53.42 Z" />
</g>
</svg>
