<?xml version="1.0" encoding="UTF-8" ?>
<!DOCTYPE svg PUBLIC "-//W3C//DTD SVG 1.1//EN" "http://www.w3.org/Graphics/SVG/1.1/DTD/svg11.dtd">
<svg width="117px" height="140px" viewBox="0 0 117 140" version="1.1" xmlns="http://www.w3.org/2000/svg">
<g id="#000000ff">
<path fill="#000000" opacity="1.00" d=" M 0.00 0.00 L 117.00 0.00 L 117.00 140.00 L 0.00 140.00 L 0.00 0.00 M 33.23 10.22 C 17.97 11.75 5.22 25.58 5.02 40.93 C 4.98 60.31 4.98 79.69 5.02 99.07 C 5.19 115.02 19.01 129.27 34.94 129.92 C 50.31 130.11 65.68 129.95 81.04 130.00 C 98.12 130.42 113.45 115.06 113.00 97.99 C 113.00 79.32 113.00 60.65 113.00 41.97 C 113.05 33.34 109.35 24.78 103.07 18.86 C 96.98 12.95 88.45 9.77 79.99 9.98 C 64.41 10.17 48.80 9.69 33.23 10.22 Z" />
<path fill="#000000" opacity="1.00" d=" M 33.28 12.34 C 44.83 11.73 56.43 12.23 68.00 12.07 C 76.65 12.32 85.89 10.90 93.90 15.02 C 104.11 19.76 111.04 30.70 110.91 41.96 C 110.96 60.32 110.92 78.68 110.93 97.04 C 111.00 102.34 109.90 107.69 107.24 112.31 C 102.27 121.81 91.76 127.96 81.07 127.90 C 66.03 127.93 50.98 127.99 35.94 127.87 C 20.74 127.72 7.25 114.27 7.13 99.06 C 7.03 79.69 7.03 60.32 7.13 40.95 C 7.30 26.71 19.11 13.78 33.28 12.34 M 36.48 53.56 C 40.65 53.60 44.83 53.56 49.01 53.59 C 49.90 58.82 54.32 62.73 59.57 63.20 C 59.56 67.77 58.93 72.33 59.42 76.89 C 59.75 72.29 59.99 67.70 60.37 63.11 C 65.45 62.34 69.43 58.29 70.16 53.21 C 75.13 53.23 80.10 52.81 85.04 52.32 C 80.10 51.99 75.17 52.48 70.22 52.43 C 69.82 47.14 65.90 42.65 60.66 41.72 C 60.69 37.52 60.65 33.32 60.73 29.12 C 59.53 28.62 58.28 28.02 56.94 28.35 C 44.88 29.38 34.66 41.52 36.48 53.56 Z" />
<path fill="#000000" opacity="1.00" d=" M 50.16 52.98 C 49.69 47.66 54.61 42.41 60.01 42.93 C 62.43 42.84 64.46 44.28 66.39 45.53 C 67.56 47.52 69.04 49.55 68.97 51.98 C 69.34 56.99 64.99 61.75 60.00 61.94 C 55.03 62.28 50.27 57.96 50.16 52.98 Z" />
</g>
<g id="#727372ff">
<path fill="#727372" opacity="1.00" d=" M 33.23 10.22 C 48.80 9.69 64.41 10.17 79.99 9.98 C 88.45 9.77 96.98 12.95 103.07 18.86 C 109.35 24.78 113.05 33.34 113.00 41.97 C 113.00 60.65 113.00 79.32 113.00 97.99 C 113.45 115.06 98.12 130.42 81.04 130.00 C 65.68 129.95 50.31 130.11 34.94 129.92 C 19.01 129.27 5.19 115.02 5.02 99.07 C 4.98 79.69 4.98 60.31 5.02 40.93 C 5.22 25.58 17.97 11.75 33.23 10.22 M 33.28 12.34 C 19.11 13.78 7.30 26.71 7.13 40.95 C 7.03 60.32 7.03 79.69 7.13 99.06 C 7.25 114.27 20.74 127.72 35.94 127.87 C 50.98 127.99 66.03 127.93 81.07 127.90 C 91.76 127.96 102.27 121.81 107.24 112.31 C 109.90 107.69 111.00 102.34 110.93 97.04 C 110.92 78.68 110.96 60.32 110.91 41.96 C 111.04 30.70 104.11 19.76 93.90 15.02 C 85.89 10.90 76.65 12.32 68.00 12.07 C 56.43 12.23 44.83 11.73 33.28 12.34 Z" />
</g>
<g id="#f8fcf8ff">
<path fill="#f8fcf8" opacity="1.00" d=" M 36.48 53.56 C 34.66 41.52 44.88 29.38 56.94 28.35 C 58.28 28.02 59.53 28.62 60.73 29.12 C 60.65 33.32 60.69 37.52 60.66 41.72 C 65.90 42.65 69.82 47.14 70.22 52.43 C 75.17 52.48 80.10 51.99 85.04 52.32 C 80.10 52.81 75.13 53.23 70.16 53.21 C 69.43 58.29 65.45 62.34 60.37 63.11 C 59.99 67.70 59.75 72.29 59.42 76.89 C 58.93 72.33 59.56 67.77 59.57 63.20 C 54.32 62.73 49.90 58.82 49.01 53.59 C 44.83 53.56 40.65 53.60 36.48 53.56 M 50.16 52.98 C 50.27 57.96 55.03 62.28 60.00 61.94 C 64.99 61.75 69.34 56.99 68.97 51.98 C 69.04 49.55 67.56 47.52 66.39 45.53 C 64.46 44.28 62.43 42.84 60.01 42.93 C 54.61 42.41 49.69 47.66 50.16 52.98 Z" />
</g>
</svg>
