<?xml version="1.0" encoding="UTF-8" ?>
<!DOCTYPE svg PUBLIC "-//W3C//DTD SVG 1.1//EN" "http://www.w3.org/Graphics/SVG/1.1/DTD/svg11.dtd">
<svg width="117px" height="140px" viewBox="0 0 117 140" version="1.1" xmlns="http://www.w3.org/2000/svg">
<g id="#000000ff">
<path fill="#000000" opacity="1.00" d=" M 0.00 0.00 L 117.00 0.00 L 117.00 140.00 L 0.00 140.00 L 0.00 0.00 M 33.14 10.24 C 17.93 11.81 5.23 25.61 5.03 40.92 C 4.97 60.28 4.98 79.64 5.03 99.00 C 5.16 114.95 18.97 129.25 34.92 129.91 C 50.64 130.10 66.37 130.01 82.09 129.95 C 98.38 129.81 112.83 115.36 112.96 99.08 C 113.05 80.05 112.98 61.02 112.99 42.00 C 113.06 32.87 108.91 23.86 102.01 17.90 C 95.77 12.34 87.31 9.64 79.01 9.98 C 63.72 10.19 48.41 9.66 33.14 10.24 Z" />
<path fill="#000000" opacity="1.00" d=" M 33.22 12.34 C 48.79 11.73 64.41 12.23 80.00 12.07 C 89.82 11.76 99.71 16.50 105.33 24.61 C 108.95 29.63 110.98 35.78 110.90 41.99 C 110.95 60.67 110.95 79.36 110.90 98.04 C 111.05 108.77 104.77 119.29 95.27 124.28 C 90.63 126.92 85.25 127.97 79.95 127.93 C 65.60 127.92 51.26 127.96 36.92 127.91 C 25.67 128.02 14.74 121.12 10.02 110.91 C 7.47 106.03 6.93 100.44 7.05 95.02 C 7.13 76.99 6.98 58.97 7.13 40.95 C 7.28 26.73 19.07 13.81 33.22 12.34 M 50.28 28.08 C 50.34 37.72 50.34 47.37 50.29 57.02 C 44.44 61.29 43.19 70.46 48.10 75.91 C 52.44 81.26 61.51 81.29 65.86 75.93 C 70.82 70.51 69.58 61.30 63.71 57.01 C 63.67 47.37 63.64 37.73 63.73 28.09 C 59.25 28.00 54.77 28.02 50.28 28.08 M 67.97 33.34 C 69.72 33.77 71.52 33.47 73.27 33.19 C 73.75 29.64 65.99 29.67 67.97 33.34 M 67.92 37.90 C 66.42 41.52 71.27 40.42 73.24 40.15 C 73.32 37.05 69.99 37.54 67.92 37.90 M 67.89 44.85 C 66.47 48.48 71.14 47.24 73.15 47.14 C 73.54 43.93 69.95 44.50 67.89 44.85 M 67.90 54.17 C 69.95 54.41 73.55 55.08 73.15 51.86 C 71.12 51.69 66.45 50.52 67.90 54.17 Z" />
<path fill="#000000" opacity="1.00" d=" M 52.95 30.77 C 55.66 30.77 58.37 30.77 61.08 30.77 C 60.90 40.07 61.01 49.37 61.06 58.66 C 66.20 61.44 68.12 68.74 64.40 73.42 C 61.09 78.44 52.92 78.45 49.61 73.43 C 45.87 68.74 47.81 61.46 52.93 58.64 C 53.10 49.35 52.90 40.06 52.95 30.77 M 55.65 46.74 C 55.69 51.31 55.67 55.88 55.71 60.45 C 51.57 61.82 48.78 66.78 51.12 70.80 C 53.17 75.23 59.98 75.73 62.47 71.45 C 65.44 67.51 62.76 61.83 58.31 60.49 C 58.32 55.91 58.31 51.32 58.35 46.74 C 57.67 46.74 56.33 46.74 55.65 46.74 Z" />
</g>
<g id="#747574ff">
<path fill="#747574" opacity="1.00" d=" M 33.14 10.24 C 48.41 9.66 63.72 10.19 79.01 9.98 C 87.31 9.64 95.77 12.34 102.01 17.90 C 108.91 23.86 113.06 32.87 112.99 42.00 C 112.98 61.02 113.05 80.05 112.96 99.08 C 112.83 115.36 98.38 129.81 82.09 129.95 C 66.37 130.01 50.64 130.10 34.92 129.91 C 18.97 129.25 5.16 114.95 5.03 99.00 C 4.98 79.64 4.97 60.28 5.03 40.92 C 5.23 25.61 17.93 11.81 33.14 10.24 M 33.22 12.34 C 19.07 13.81 7.28 26.73 7.13 40.95 C 6.98 58.97 7.13 76.99 7.05 95.02 C 6.93 100.44 7.47 106.03 10.02 110.91 C 14.74 121.12 25.67 128.02 36.92 127.91 C 51.26 127.96 65.60 127.92 79.95 127.93 C 85.25 127.97 90.63 126.92 95.27 124.28 C 104.77 119.29 111.05 108.77 110.90 98.04 C 110.95 79.36 110.95 60.67 110.90 41.99 C 110.98 35.78 108.95 29.63 105.33 24.61 C 99.71 16.50 89.82 11.76 80.00 12.07 C 64.41 12.23 48.79 11.73 33.22 12.34 Z" />
</g>
<g id="#f8fcf8ff">
<path fill="#f8fcf8" opacity="1.00" d=" M 50.28 28.08 C 54.77 28.02 59.25 28.00 63.73 28.09 C 63.64 37.73 63.67 47.37 63.71 57.01 C 69.58 61.30 70.82 70.51 65.86 75.93 C 61.51 81.29 52.44 81.26 48.10 75.91 C 43.19 70.46 44.44 61.29 50.29 57.02 C 50.34 47.37 50.34 37.72 50.28 28.08 M 52.95 30.77 C 52.90 40.06 53.10 49.35 52.93 58.64 C 47.81 61.46 45.87 68.74 49.61 73.43 C 52.92 78.45 61.09 78.44 64.40 73.42 C 68.12 68.74 66.20 61.44 61.06 58.66 C 61.01 49.37 60.90 40.07 61.08 30.77 C 58.37 30.77 55.66 30.77 52.95 30.77 Z" />
<path fill="#f8fcf8" opacity="1.00" d=" M 67.97 33.34 C 65.99 29.67 73.75 29.64 73.27 33.19 C 71.52 33.47 69.72 33.77 67.97 33.34 Z" />
<path fill="#f8fcf8" opacity="1.00" d=" M 67.92 37.90 C 69.99 37.54 73.32 37.05 73.24 40.15 C 71.27 40.42 66.42 41.52 67.92 37.90 Z" />
<path fill="#f8fcf8" opacity="1.00" d=" M 67.89 44.85 C 69.95 44.50 73.54 43.93 73.15 47.14 C 71.14 47.24 66.47 48.48 67.89 44.85 Z" />
<path fill="#f8fcf8" opacity="1.00" d=" M 55.65 46.74 C 56.33 46.74 57.67 46.74 58.35 46.74 C 58.31 51.32 58.32 55.91 58.31 60.49 C 62.76 61.83 65.44 67.51 62.47 71.45 C 59.98 75.73 53.17 75.23 51.12 70.80 C 48.78 66.78 51.57 61.82 55.71 60.45 C 55.67 55.88 55.69 51.31 55.65 46.74 Z" />
<path fill="#f8fcf8" opacity="1.00" d=" M 67.90 54.17 C 66.45 50.52 71.12 51.69 73.15 51.86 C 73.55 55.08 69.95 54.41 67.90 54.17 Z" />
</g>
</svg>
