<?xml version="1.0" encoding="UTF-8" ?>
<!DOCTYPE svg PUBLIC "-//W3C//DTD SVG 1.1//EN" "http://www.w3.org/Graphics/SVG/1.1/DTD/svg11.dtd">
<svg width="117px" height="140px" viewBox="0 0 117 140" version="1.1" xmlns="http://www.w3.org/2000/svg">
<g id="#000000ff">
<path fill="#000000" opacity="1.00" d=" M 0.00 0.00 L 117.00 0.00 L 117.00 140.00 L 0.00 140.00 L 0.00 0.00 M 35.16 42.04 C 35.17 50.69 35.15 59.34 35.17 67.99 C 38.04 67.99 40.92 68.00 43.79 68.00 C 43.82 64.92 43.85 61.84 43.93 58.76 C 45.80 58.97 47.69 59.08 49.52 59.56 C 51.23 61.99 50.74 65.18 51.20 67.97 C 53.98 67.99 56.76 68.01 59.54 68.05 C 59.03 63.82 59.27 59.26 56.58 55.68 C 57.99 53.12 59.55 50.28 58.82 47.26 C 58.26 44.06 54.85 42.58 51.94 42.31 C 46.37 41.74 40.75 42.04 35.16 42.04 M 62.68 49.15 C 62.69 54.04 62.10 59.01 63.02 63.85 C 63.61 67.43 67.73 68.96 70.94 68.11 C 75.04 67.12 79.20 67.91 83.33 68.11 C 83.48 61.79 83.47 55.47 83.33 49.15 C 80.77 49.16 78.22 49.16 75.66 49.15 C 75.55 52.95 75.87 56.79 75.30 60.57 C 75.17 62.93 72.31 62.35 70.70 62.73 C 70.38 58.21 70.40 53.68 70.33 49.15 C 67.78 49.16 65.23 49.16 62.68 49.15 Z" />
<path fill="#000000" opacity="1.00" d=" M 44.11 48.26 C 46.19 48.38 48.27 48.51 50.35 48.63 C 50.68 49.85 51.01 51.07 51.33 52.28 C 48.84 52.77 46.31 53.11 43.78 53.37 C 43.88 51.67 43.99 49.96 44.11 48.26 Z" />
</g>
<g id="#f8fcf8ff">
<path fill="#f8fcf8" opacity="1.00" d=" M 35.16 42.04 C 40.75 42.04 46.37 41.74 51.94 42.31 C 54.85 42.58 58.26 44.06 58.82 47.26 C 59.55 50.28 57.99 53.12 56.58 55.68 C 59.27 59.26 59.03 63.82 59.54 68.05 C 56.76 68.01 53.98 67.99 51.20 67.97 C 50.74 65.18 51.23 61.99 49.52 59.56 C 47.69 59.08 45.80 58.97 43.93 58.76 C 43.85 61.84 43.82 64.92 43.79 68.00 C 40.92 68.00 38.04 67.99 35.17 67.99 C 35.15 59.34 35.17 50.69 35.16 42.04 M 44.11 48.26 C 43.99 49.96 43.88 51.67 43.78 53.37 C 46.31 53.11 48.84 52.77 51.33 52.28 C 51.01 51.07 50.68 49.85 50.35 48.63 C 48.27 48.51 46.19 48.38 44.11 48.26 Z" />
<path fill="#f8fcf8" opacity="1.00" d=" M 62.68 49.15 C 65.23 49.16 67.78 49.16 70.33 49.15 C 70.40 53.68 70.38 58.21 70.70 62.73 C 72.31 62.35 75.17 62.93 75.30 60.57 C 75.87 56.79 75.55 52.95 75.66 49.15 C 78.22 49.16 80.77 49.16 83.33 49.15 C 83.47 55.47 83.48 61.79 83.33 68.11 C 79.20 67.91 75.04 67.12 70.94 68.11 C 67.73 68.96 63.61 67.43 63.02 63.85 C 62.10 59.01 62.69 54.04 62.68 49.15 Z" />
</g>
</svg>
