<?xml version="1.0" encoding="UTF-8" ?>
<!DOCTYPE svg PUBLIC "-//W3C//DTD SVG 1.1//EN" "http://www.w3.org/Graphics/SVG/1.1/DTD/svg11.dtd">
<svg width="117px" height="140px" viewBox="0 0 117 140" version="1.1" xmlns="http://www.w3.org/2000/svg">
<g id="#000000ff">
<path fill="#000000" opacity="1.00" d=" M 0.00 0.00 L 117.00 0.00 L 117.00 140.00 L 0.00 140.00 L 0.00 0.00 M 41.73 42.04 C 41.50 50.69 41.51 59.34 41.73 67.99 C 44.47 68.01 47.21 68.02 49.95 68.00 C 49.98 64.97 50.02 61.94 50.06 58.91 C 53.17 58.84 56.29 58.81 59.40 58.82 C 59.45 56.79 59.49 54.76 59.50 52.73 C 56.36 52.63 53.23 52.60 50.10 52.60 C 50.09 51.19 50.09 49.77 50.10 48.36 C 54.02 48.44 57.93 48.43 61.84 48.21 C 61.84 46.17 61.85 44.13 61.87 42.09 C 55.16 41.91 48.44 41.97 41.73 42.04 M 72.52 50.21 C 70.08 49.18 67.41 49.08 64.80 49.04 C 64.44 55.36 64.53 61.70 64.73 68.02 C 67.38 68.01 70.02 67.98 72.67 67.88 C 72.67 64.68 72.35 61.42 73.01 58.26 C 74.09 56.19 76.75 56.21 78.69 55.47 C 78.66 53.04 78.60 50.62 78.46 48.19 C 76.42 48.66 74.44 49.36 72.52 50.21 Z" />
</g>
<g id="#6a6d6aff">
<path fill="#6a6d6a" opacity="1.00" d=" M 33.15 10.22 C 48.75 9.69 64.39 10.17 80.01 9.98 C 89.65 9.69 99.33 13.96 105.49 21.41 C 110.57 27.37 113.24 35.23 113.02 43.04 C 112.92 62.06 113.13 81.08 112.92 100.10 C 112.28 116.05 97.98 129.85 82.03 129.97 C 66.64 130.03 51.25 130.01 35.87 129.98 C 19.59 129.79 5.16 115.37 5.02 99.09 C 4.98 79.71 4.98 60.33 5.02 40.96 C 5.17 25.62 17.91 11.78 33.15 10.22 M 33.18 12.26 C 19.00 13.81 7.16 26.74 7.04 41.04 C 6.98 60.37 6.97 79.71 7.04 99.05 C 7.17 113.93 20.10 127.24 34.94 127.91 C 47.29 128.12 59.64 127.94 71.99 128.00 C 78.63 127.90 85.56 128.62 91.84 125.97 C 103.10 121.69 111.22 110.13 110.98 98.02 C 110.99 79.00 111.05 59.98 110.95 40.96 C 110.85 25.72 97.29 12.20 82.06 12.05 C 65.77 12.09 49.45 11.71 33.18 12.26 Z" />
</g>
<g id="#f8fcf8ff">
<path fill="#f8fcf8" opacity="1.00" d=" M 41.73 42.04 C 48.44 41.97 55.16 41.91 61.87 42.09 C 61.85 44.13 61.84 46.17 61.84 48.21 C 57.93 48.43 54.02 48.44 50.10 48.36 C 50.09 49.77 50.09 51.19 50.10 52.60 C 53.23 52.60 56.36 52.63 59.50 52.73 C 59.49 54.76 59.45 56.79 59.40 58.82 C 56.29 58.81 53.17 58.84 50.06 58.91 C 50.02 61.94 49.98 64.97 49.95 68.00 C 47.21 68.02 44.47 68.01 41.73 67.99 C 41.51 59.34 41.50 50.69 41.73 42.04 Z" />
<path fill="#f8fcf8" opacity="1.00" d=" M 72.52 50.21 C 74.44 49.36 76.42 48.66 78.46 48.19 C 78.60 50.62 78.66 53.04 78.69 55.47 C 76.75 56.21 74.09 56.19 73.01 58.26 C 72.35 61.42 72.67 64.68 72.67 67.88 C 70.02 67.98 67.38 68.01 64.73 68.02 C 64.53 61.70 64.44 55.36 64.80 49.04 C 67.41 49.08 70.08 49.18 72.52 50.21 Z" />
</g>
</svg>
