<?xml version="1.0" encoding="UTF-8" ?>
<!DOCTYPE svg PUBLIC "-//W3C//DTD SVG 1.1//EN" "http://www.w3.org/Graphics/SVG/1.1/DTD/svg11.dtd">
<svg width="117px" height="140px" viewBox="0 0 117 140" version="1.1" xmlns="http://www.w3.org/2000/svg">
<g id="#000000ff">
<path fill="#000000" opacity="1.00" d=" M 0.00 0.00 L 117.00 0.00 L 117.00 140.00 L 0.00 140.00 L 0.00 0.00 M 34.54 54.80 C 38.17 58.91 43.08 61.68 48.42 62.88 C 48.01 64.26 47.67 65.65 47.41 67.06 C 49.39 70.83 53.65 72.17 57.28 73.80 C 58.57 74.21 59.88 74.54 61.19 74.87 C 66.03 76.76 70.98 78.52 76.12 79.39 C 77.87 78.44 79.92 77.67 80.91 75.80 C 82.73 73.07 81.71 69.66 80.61 66.87 C 77.81 58.98 76.43 49.78 69.19 44.49 C 68.13 44.90 67.06 45.32 66.00 45.73 C 64.59 40.25 61.14 35.74 56.91 32.10 C 49.47 39.68 41.59 46.86 34.54 54.80 Z" />
<path fill="#000000" opacity="1.00" d=" M 48.62 44.61 C 51.68 41.77 54.28 38.37 57.80 36.06 C 61.84 40.34 63.02 46.24 64.54 51.72 C 65.92 50.34 67.28 48.95 68.63 47.54 C 70.25 49.20 72.27 50.72 72.93 53.05 C 74.94 59.32 77.26 65.49 78.99 71.84 C 79.36 73.84 77.38 75.05 76.32 76.42 C 72.02 75.91 68.03 74.11 63.96 72.74 C 59.09 71.23 53.90 69.88 50.05 66.35 C 51.46 64.80 52.91 63.28 54.32 61.72 C 49.10 59.84 42.91 59.11 38.97 54.87 C 41.42 50.97 45.53 48.11 48.62 44.61 Z" />
</g>
<g id="#6a6d6aff">
<path fill="#6a6d6a" opacity="1.00" d=" M 33.15 10.22 C 48.75 9.69 64.39 10.17 80.01 9.98 C 89.65 9.69 99.33 13.96 105.49 21.41 C 110.57 27.37 113.24 35.23 113.02 43.04 C 112.92 62.06 113.13 81.08 112.92 100.10 C 112.28 116.05 97.98 129.85 82.03 129.97 C 66.64 130.03 51.25 130.01 35.87 129.98 C 19.59 129.79 5.16 115.37 5.02 99.09 C 4.98 79.71 4.98 60.33 5.02 40.96 C 5.17 25.62 17.91 11.78 33.15 10.22 M 33.18 12.26 C 19.00 13.81 7.16 26.74 7.04 41.04 C 6.98 60.37 6.97 79.71 7.04 99.05 C 7.17 113.93 20.10 127.24 34.94 127.91 C 47.29 128.12 59.64 127.94 71.99 128.00 C 78.63 127.90 85.56 128.62 91.84 125.97 C 103.10 121.69 111.22 110.13 110.98 98.02 C 110.99 79.00 111.05 59.98 110.95 40.96 C 110.85 25.72 97.29 12.20 82.06 12.05 C 65.77 12.09 49.45 11.71 33.18 12.26 Z" />
</g>
<g id="#f7fbf7ff">
<path fill="#f7fbf7" opacity="1.00" d=" M 34.54 54.80 C 41.59 46.86 49.47 39.68 56.91 32.10 C 61.14 35.74 64.59 40.25 66.00 45.73 C 67.06 45.32 68.13 44.90 69.19 44.49 C 76.43 49.78 77.81 58.98 80.61 66.87 C 81.71 69.66 82.73 73.07 80.91 75.80 C 79.92 77.67 77.87 78.44 76.12 79.39 C 70.98 78.52 66.03 76.76 61.19 74.87 C 59.88 74.54 58.57 74.21 57.28 73.80 C 53.65 72.17 49.39 70.83 47.41 67.06 C 47.67 65.65 48.01 64.26 48.42 62.88 C 43.08 61.68 38.17 58.91 34.54 54.80 M 48.62 44.61 C 45.53 48.11 41.42 50.97 38.97 54.87 C 42.91 59.11 49.10 59.84 54.32 61.72 C 52.91 63.28 51.46 64.80 50.05 66.35 C 53.90 69.88 59.09 71.23 63.96 72.74 C 68.03 74.11 72.02 75.91 76.32 76.42 C 77.38 75.05 79.36 73.84 78.99 71.84 C 77.26 65.49 74.94 59.32 72.93 53.05 C 72.27 50.72 70.25 49.20 68.63 47.54 C 67.28 48.95 65.92 50.34 64.54 51.72 C 63.02 46.24 61.84 40.34 57.80 36.06 C 54.28 38.37 51.68 41.77 48.62 44.61 Z" />
</g>
</svg>
