<?xml version="1.0" encoding="UTF-8" ?>
<!DOCTYPE svg PUBLIC "-//W3C//DTD SVG 1.1//EN" "http://www.w3.org/Graphics/SVG/1.1/DTD/svg11.dtd">
<svg width="117px" height="140px" viewBox="0 0 117 140" version="1.1" xmlns="http://www.w3.org/2000/svg">
<g id="#181818ff">
<path fill="#181818" opacity="1.00" d=" M 0.00 0.00 L 117.00 0.00 L 117.00 140.00 L 0.00 140.00 L 0.00 0.00 M 58.42 7.92 C 51.68 12.05 44.72 15.82 37.95 19.91 C 35.21 17.59 30.78 17.71 28.73 20.84 C 26.31 23.91 28.07 29.43 32.06 30.03 C 35.00 30.93 38.25 29.06 39.26 26.23 C 39.63 25.04 39.46 23.34 40.95 22.89 C 46.20 19.98 51.31 16.84 56.59 13.98 C 56.63 19.98 56.44 25.98 56.71 31.97 C 51.69 37.52 46.09 42.52 40.99 47.99 C 39.36 50.72 43.01 51.59 44.99 51.20 C 44.99 51.88 45.00 53.24 45.00 53.92 C 38.58 57.41 32.45 61.44 25.94 64.73 C 26.01 53.74 25.98 42.75 26.03 31.77 C 26.31 31.55 26.88 31.12 27.16 30.91 C 27.15 29.27 27.17 27.63 27.29 25.99 C 25.54 27.06 23.77 28.09 21.99 29.10 C 22.07 43.28 21.85 57.48 22.22 71.66 C 28.07 74.69 33.64 78.24 39.45 81.35 C 39.80 82.65 39.73 84.24 40.93 85.13 C 42.57 86.77 45.08 85.59 47.05 85.34 C 49.81 87.61 53.07 89.12 56.07 91.04 C 57.73 92.33 60.11 91.95 61.71 90.73 C 72.84 84.07 84.37 78.03 95.33 71.12 C 95.15 57.10 95.42 43.08 95.24 29.06 C 82.94 22.07 70.83 14.69 58.42 7.92 Z" />
<path fill="#181818" opacity="1.00" d=" M 60.80 13.99 C 70.80 19.78 80.88 25.45 90.82 31.33 L 91.15 31.94 C 91.35 42.90 91.23 53.87 91.33 64.83 C 85.14 61.47 79.17 57.75 73.01 54.36 C 72.99 53.34 72.96 52.32 72.93 51.30 C 74.64 50.93 77.38 51.46 77.52 49.00 C 76.19 46.57 73.82 44.95 72.02 42.89 C 71.97 39.25 72.16 35.60 71.96 31.96 C 71.66 29.83 68.86 30.12 67.30 30.41 C 64.98 31.63 66.38 34.80 65.99 36.83 C 64.17 35.09 62.44 33.27 60.70 31.44 C 60.72 25.62 60.75 19.80 60.80 13.99 M 83.46 33.53 C 81.26 34.26 80.98 37.79 83.08 38.83 C 84.97 40.12 87.97 38.35 87.59 36.06 C 87.62 34.06 85.19 32.68 83.46 33.53 Z" />
<path fill="#181818" opacity="1.00" d=" M 26.21 69.25 C 32.50 65.70 38.73 62.05 45.00 58.49 C 45.06 61.98 44.86 65.48 45.15 68.97 C 45.88 70.99 48.35 70.09 49.97 70.34 C 51.59 70.08 54.12 70.99 54.87 68.98 C 55.13 66.41 54.68 63.77 55.29 61.24 C 57.07 59.59 60.02 60.27 62.20 60.63 C 64.42 63.27 61.66 67.60 64.08 70.15 C 66.95 70.26 70.00 70.76 72.73 69.65 C 73.02 66.06 72.83 62.46 72.96 58.87 C 79.01 62.32 85.01 65.83 91.06 69.27 C 80.82 75.40 70.40 81.24 60.13 87.31 C 58.35 88.75 56.54 86.80 54.96 86.04 C 52.24 84.09 48.48 83.30 46.81 80.17 C 45.63 77.56 42.37 78.97 40.41 77.59 C 35.69 74.79 30.86 72.17 26.21 69.25 Z" />
</g>
<g id="#524ae1ff">
<path fill="#ffffff" opacity="1.00" d=" M 58.42 7.92 C 70.83 14.69 82.94 22.07 95.24 29.06 C 95.42 43.08 95.15 57.10 95.33 71.12 C 84.37 78.03 72.84 84.07 61.71 90.73 C 60.11 91.95 57.73 92.33 56.07 91.04 C 53.07 89.12 49.81 87.61 47.05 85.34 C 45.08 85.59 42.57 86.77 40.93 85.13 C 39.73 84.24 39.80 82.65 39.45 81.35 C 33.64 78.24 28.07 74.69 22.22 71.66 C 21.85 57.48 22.07 43.28 21.99 29.10 C 23.77 28.09 25.54 27.06 27.29 25.99 C 27.17 27.63 27.15 29.27 27.16 30.91 C 26.88 31.12 26.31 31.55 26.03 31.77 C 25.98 42.75 26.01 53.74 25.94 64.73 C 32.45 61.44 38.58 57.41 45.00 53.92 C 45.01 55.45 45.01 56.97 45.00 58.49 C 38.73 62.05 32.50 65.70 26.21 69.25 C 30.86 72.17 35.69 74.79 40.41 77.59 C 42.37 78.97 45.63 77.56 46.81 80.17 C 48.48 83.30 52.24 84.09 54.96 86.04 C 56.54 86.80 58.35 88.75 60.13 87.31 C 70.40 81.24 80.82 75.40 91.06 69.27 C 85.01 65.83 79.01 62.32 72.96 58.87 C 73.00 57.37 73.01 55.86 73.01 54.36 C 79.17 57.75 85.14 61.47 91.33 64.83 C 91.23 53.87 91.35 42.90 91.15 31.94 L 90.82 31.33 C 80.88 25.45 70.80 19.78 60.80 13.99 C 60.75 19.80 60.72 25.62 60.70 31.44 C 60.26 31.21 59.37 30.74 58.93 30.51 C 58.37 30.88 57.26 31.60 56.71 31.97 C 56.44 25.98 56.63 19.98 56.59 13.98 C 51.31 16.84 46.20 19.98 40.95 22.89 C 39.46 23.34 39.63 25.04 39.26 26.23 C 38.25 29.06 35.00 30.93 32.06 30.03 C 28.07 29.43 26.31 23.91 28.73 20.84 C 30.78 17.71 35.21 17.59 37.95 19.91 C 44.72 15.82 51.68 12.05 58.42 7.92 Z" />
</g>
<g id="#f8ac56ff">
<path fill="#ffffff" opacity="1.00" d=" M 67.30 30.41 C 68.86 30.12 71.66 29.83 71.96 31.96 C 72.16 35.60 71.97 39.25 72.02 42.89 C 73.82 44.95 76.19 46.57 77.52 49.00 C 77.38 51.46 74.64 50.93 72.93 51.30 C 72.96 52.32 72.99 53.34 73.01 54.36 C 73.01 55.86 73.00 57.37 72.96 58.87 C 72.83 62.46 73.02 66.06 72.73 69.65 C 70.00 70.76 66.95 70.26 64.08 70.15 C 61.66 67.60 64.42 63.27 62.20 60.63 C 60.02 60.27 57.07 59.59 55.29 61.24 C 54.68 63.77 55.13 66.41 54.87 68.98 C 54.12 70.99 51.59 70.08 49.97 70.34 C 48.35 70.09 45.88 70.99 45.15 68.97 C 44.86 65.48 45.06 61.98 45.00 58.49 C 45.01 56.97 45.01 55.45 45.00 53.92 C 45.00 53.24 44.99 51.88 44.99 51.20 C 43.01 51.59 39.36 50.72 40.99 47.99 C 46.09 42.52 51.69 37.52 56.71 31.97 C 57.26 31.60 58.37 30.88 58.93 30.51 C 59.37 30.74 60.26 31.21 60.70 31.44 C 62.44 33.27 64.17 35.09 65.99 36.83 C 66.38 34.80 64.98 31.63 67.30 30.41 Z" />
<path fill="#ffffff" opacity="1.00" d=" M 83.46 33.53 C 85.19 32.68 87.62 34.06 87.59 36.06 C 87.97 38.35 84.97 40.12 83.08 38.83 C 80.98 37.79 81.26 34.26 83.46 33.53 Z" />
</g>
</svg>
