<?xml version="1.0" encoding="UTF-8" ?>
<!DOCTYPE svg PUBLIC "-//W3C//DTD SVG 1.1//EN" "http://www.w3.org/Graphics/SVG/1.1/DTD/svg11.dtd">
<svg width="117px" height="140px" viewBox="0 0 117 140" version="1.1" xmlns="http://www.w3.org/2000/svg">
<g id="#181818ff">
<path fill="#181818" opacity="1.00" d=" M 0.00 0.00 L 117.00 0.00 L 117.00 140.00 L 0.00 140.00 L 0.00 0.00 M 21.11 23.06 C 21.52 24.29 22.19 25.40 22.78 26.55 C 24.22 27.16 25.65 27.87 27.21 28.13 C 27.16 29.54 27.11 30.96 27.06 32.38 C 27.02 34.87 26.85 37.38 27.20 39.86 C 28.98 42.18 33.22 41.16 33.40 38.01 C 39.59 37.97 45.79 37.99 51.98 37.99 L 51.96 39.25 C 51.76 41.85 51.74 46.01 55.60 45.04 C 56.10 46.11 56.88 46.92 57.94 47.47 C 57.99 49.01 58.02 50.56 58.07 52.11 C 58.04 52.83 57.99 54.28 57.96 55.00 C 50.10 55.23 42.16 54.53 34.35 55.34 C 30.86 58.16 29.14 62.56 26.50 66.11 C 25.05 68.23 23.63 70.38 22.24 72.54 C 20.60 74.99 18.76 77.35 17.58 80.07 C 16.82 82.73 19.32 85.22 21.95 84.91 C 46.67 84.98 71.40 84.96 96.12 84.91 C 98.74 85.31 101.20 82.61 100.34 80.05 C 99.43 77.77 97.97 75.78 96.68 73.70 L 96.27 73.70 C 94.86 71.06 93.24 68.54 91.48 66.11 C 88.87 62.56 87.14 58.18 83.68 55.36 C 75.85 54.50 67.86 55.23 59.96 55.01 C 59.96 54.28 59.95 52.82 59.94 52.10 C 59.98 50.56 60.01 49.03 60.06 47.50 C 60.94 46.85 61.75 46.11 62.49 45.29 C 64.63 45.17 66.37 44.09 66.13 41.68 C 66.06 40.45 66.02 39.22 66.00 38.00 C 71.53 38.01 77.06 37.98 82.59 38.02 C 82.79 41.17 87.04 42.22 88.81 39.84 C 89.10 37.87 89.01 35.87 89.03 33.88 C 88.99 31.32 89.15 28.73 88.82 26.18 C 87.98 24.38 85.63 25.01 84.06 25.17 C 82.51 26.26 83.21 28.42 82.86 30.01 C 77.24 30.02 71.62 30.01 66.00 30.02 C 65.99 28.69 65.97 27.37 65.94 26.04 C 65.68 25.83 65.16 25.40 64.90 25.18 C 60.95 24.98 56.98 24.76 53.04 25.19 C 51.48 26.28 52.18 28.40 51.97 30.00 C 45.60 30.01 39.23 29.97 32.85 30.03 C 32.87 29.18 32.91 27.49 32.93 26.64 L 33.39 25.40 L 31.87 26.07 C 33.32 23.39 33.15 20.28 31.54 17.71 C 30.38 17.14 29.24 16.51 28.00 16.10 C 24.15 15.23 20.22 19.22 21.11 23.06 M 94.36 40.44 C 90.92 42.32 94.41 47.70 97.59 45.40 C 100.80 43.47 97.44 38.08 94.36 40.44 M 61.22 87.34 C 58.75 88.46 58.11 92.13 60.31 93.85 C 62.49 96.03 66.78 94.30 66.76 91.23 C 67.30 88.32 63.74 85.93 61.22 87.34 Z" />
<path fill="#181818" opacity="1.00" d=" M 32.98 32.01 C 39.31 32.00 45.65 32.00 51.98 32.00 C 51.99 33.33 52.00 34.67 52.00 36.00 C 45.67 36.00 39.34 36.00 33.01 36.00 C 33.00 34.67 32.99 33.34 32.98 32.01 Z" />
<path fill="#181818" opacity="1.00" d=" M 66.00 31.99 C 71.67 31.98 77.34 31.99 83.01 31.99 C 83.00 32.50 83.00 33.52 83.00 34.03 C 83.00 34.52 82.99 35.51 82.99 36.00 C 77.32 36.00 71.66 36.00 65.99 36.00 C 65.99 35.52 65.99 34.57 65.99 34.09 C 65.99 33.56 66.00 32.51 66.00 31.99 Z" />
<path fill="#181818" opacity="1.00" d=" M 56.78 61.31 C 57.36 61.51 58.52 61.91 59.11 62.11 C 59.63 61.85 60.67 61.35 61.20 61.10 C 61.22 61.80 61.26 63.21 61.28 63.92 C 61.02 64.31 60.51 65.10 60.25 65.50 C 61.57 65.70 62.89 65.90 64.21 66.10 C 62.81 67.17 61.40 68.23 59.99 69.29 C 60.87 70.87 62.27 71.99 63.76 72.96 C 64.02 73.33 64.53 74.08 64.79 74.45 C 65.40 74.50 66.62 74.60 67.23 74.65 C 67.79 76.04 68.23 77.48 68.67 78.91 C 62.26 79.06 55.86 78.99 49.45 78.98 C 49.83 77.44 50.24 75.90 50.66 74.36 C 51.31 74.41 52.59 74.51 53.23 74.55 C 53.48 74.15 53.96 73.33 54.20 72.92 C 55.61 71.88 58.13 71.27 57.44 68.98 C 56.31 68.05 55.02 67.35 53.71 66.70 C 55.03 66.22 56.35 65.76 57.68 65.31 C 57.42 64.98 56.91 64.31 56.65 63.98 C 56.68 63.31 56.75 61.98 56.78 61.31 Z" />
</g>
<g id="#f8a898ff">
<path fill="#ffffff" opacity="1.00" d=" M 21.11 23.06 C 20.22 19.22 24.15 15.23 28.00 16.10 C 29.24 16.51 30.38 17.14 31.54 17.71 C 28.71 20.74 25.78 23.69 22.78 26.55 C 22.19 25.40 21.52 24.29 21.11 23.06 Z" />
</g>
<g id="#f88888ff">
<path fill="#ffffff" opacity="1.00" d=" M 31.54 17.71 C 33.15 20.28 33.32 23.39 31.87 26.07 C 30.33 26.79 28.79 27.51 27.21 28.13 C 25.65 27.87 24.22 27.16 22.78 26.55 C 25.78 23.69 28.71 20.74 31.54 17.71 Z" />
</g>
<g id="#f8d878ff">
<path fill="#ffffff" opacity="1.00" d=" M 53.04 25.19 C 56.98 24.76 60.95 24.98 64.90 25.18 C 61.44 28.71 56.48 29.62 51.97 31.09 L 51.97 30.00 C 52.18 28.40 51.48 26.28 53.04 25.19 Z" />
</g>
<g id="#f8c868ff">
<path fill="#ffffff" opacity="1.00" d=" M 64.90 25.18 C 65.16 25.40 65.68 25.83 65.94 26.04 C 65.97 27.37 65.99 28.69 66.00 30.02 C 66.00 30.51 66.00 31.50 66.00 31.99 C 66.00 32.51 65.99 33.56 65.99 34.09 C 61.30 35.77 56.64 37.53 51.96 39.25 L 51.98 37.99 C 51.98 37.49 51.99 36.50 52.00 36.00 C 52.00 34.67 51.99 33.33 51.98 32.00 L 51.97 31.09 C 56.48 29.62 61.44 28.71 64.90 25.18 Z" />
</g>
<g id="#9060f0ff">
<path fill="#ffffff" opacity="1.00" d=" M 84.06 25.17 C 85.63 25.01 87.98 24.38 88.82 26.18 C 89.15 28.73 88.99 31.32 89.03 33.88 C 87.02 33.93 85.01 33.98 83.00 34.03 C 83.00 33.52 83.00 32.50 83.01 31.99 C 77.34 31.99 71.67 31.98 66.00 31.99 C 66.00 31.50 66.00 30.51 66.00 30.02 C 71.62 30.01 77.24 30.02 82.86 30.01 C 83.21 28.42 82.51 26.26 84.06 25.17 Z" />
</g>
<g id="#583898ff">
<path fill="#ffffff" opacity="1.00" d=" M 27.21 28.13 C 28.79 27.51 30.33 26.79 31.87 26.07 L 33.39 25.40 L 32.93 26.64 C 32.31 29.70 29.95 31.56 27.06 32.38 C 27.11 30.96 27.16 29.54 27.21 28.13 Z" />
</g>
<g id="#8058e8ff">
<path fill="#ffffff" opacity="1.00" d=" M 27.06 32.38 C 29.95 31.56 32.31 29.70 32.93 26.64 C 32.91 27.49 32.87 29.18 32.85 30.03 C 39.23 29.97 45.60 30.01 51.97 30.00 L 51.97 31.09 L 51.98 32.00 C 45.65 32.00 39.31 32.00 32.98 32.01 C 32.99 33.34 33.00 34.67 33.01 36.00 C 39.34 36.00 45.67 36.00 52.00 36.00 C 51.99 36.50 51.98 37.49 51.98 37.99 C 45.79 37.99 39.59 37.97 33.40 38.01 C 33.22 41.16 28.98 42.18 27.20 39.86 C 26.85 37.38 27.02 34.87 27.06 32.38 Z" />
</g>
<g id="#f8b060ff">
<path fill="#ffffff" opacity="1.00" d=" M 51.96 39.25 C 56.64 37.53 61.30 35.77 65.99 34.09 C 65.99 34.57 65.99 35.52 65.99 36.00 C 65.99 36.50 66.00 37.50 66.00 38.00 C 66.02 39.22 66.06 40.45 66.13 41.68 C 62.63 42.83 59.18 44.14 55.60 45.04 C 51.74 46.01 51.76 41.85 51.96 39.25 Z" />
</g>
<g id="#7858e8ff">
<path fill="#ffffff" opacity="1.00" d=" M 83.00 34.03 C 85.01 33.98 87.02 33.93 89.03 33.88 C 89.01 35.87 89.10 37.87 88.81 39.84 C 87.04 42.22 82.79 41.17 82.59 38.02 C 77.06 37.98 71.53 38.01 66.00 38.00 C 66.00 37.50 65.99 36.50 65.99 36.00 C 71.66 36.00 77.32 36.00 82.99 36.00 C 82.99 35.51 83.00 34.52 83.00 34.03 Z" />
</g>
<g id="#98e010ff">
<path fill="#ffffff" opacity="1.00" d=" M 94.36 40.44 C 97.44 38.08 100.80 43.47 97.59 45.40 C 94.41 47.70 90.92 42.32 94.36 40.44 Z" />
</g>
<g id="#f39e4dff">
<path fill="#ffffff" opacity="1.00" d=" M 55.60 45.04 C 59.18 44.14 62.63 42.83 66.13 41.68 C 66.37 44.09 64.63 45.17 62.49 45.29 C 61.75 46.11 60.94 46.85 60.06 47.50 C 60.01 49.03 59.98 50.56 59.94 52.10 C 59.47 52.10 58.54 52.11 58.07 52.11 C 58.02 50.56 57.99 49.01 57.94 47.47 C 56.88 46.92 56.10 46.11 55.60 45.04 Z" />
</g>
<g id="#f88038ff">
<path fill="#ffffff" opacity="1.00" d=" M 58.07 52.11 C 58.54 52.11 59.47 52.10 59.94 52.10 C 59.95 52.82 59.96 54.28 59.96 55.01 C 60.26 56.70 60.75 58.35 61.15 60.02 C 61.16 60.29 61.19 60.83 61.20 61.10 C 60.67 61.35 59.63 61.85 59.11 62.11 C 58.52 61.91 57.36 61.51 56.78 61.31 C 57.09 59.19 57.67 57.12 57.96 55.00 C 57.99 54.28 58.04 52.83 58.07 52.11 Z" />
</g>
<g id="#4848d8ff">
<path fill="#ffffff" opacity="1.00" d=" M 34.35 55.34 C 42.16 54.53 50.10 55.23 57.96 55.00 C 57.67 57.12 57.09 59.19 56.78 61.31 C 56.75 61.98 56.68 63.31 56.65 63.98 C 56.91 64.31 57.42 64.98 57.68 65.31 C 56.35 65.76 55.03 66.22 53.71 66.70 C 44.65 65.80 35.52 67.85 26.50 66.11 C 29.14 62.56 30.86 58.16 34.35 55.34 Z" />
<path fill="#ffffff" opacity="1.00" d=" M 59.96 55.01 C 67.86 55.23 75.85 54.50 83.68 55.36 C 87.14 58.18 88.87 62.56 91.48 66.11 C 86.24 67.07 80.91 66.35 75.62 66.57 C 71.81 66.69 67.99 66.67 64.21 66.10 C 62.89 65.90 61.57 65.70 60.25 65.50 C 60.51 65.10 61.02 64.31 61.28 63.92 C 61.26 63.21 61.22 61.80 61.20 61.10 C 61.19 60.83 61.16 60.29 61.15 60.02 C 60.75 58.35 60.26 56.70 59.96 55.01 Z" />
</g>
<g id="#3040d0ff">
<path fill="#ffffff" opacity="1.00" d=" M 22.24 72.54 C 23.63 70.38 25.05 68.23 26.50 66.11 C 35.52 67.85 44.65 65.80 53.71 66.70 C 55.02 67.35 56.31 68.05 57.44 68.98 C 58.13 71.27 55.61 71.88 54.20 72.92 C 53.96 73.33 53.48 74.15 53.23 74.55 C 52.59 74.51 51.31 74.41 50.66 74.36 C 41.24 73.17 31.39 75.62 22.24 72.54 Z" />
<path fill="#ffffff" opacity="1.00" d=" M 64.21 66.10 C 67.99 66.67 71.81 66.69 75.62 66.57 C 80.91 66.35 86.24 67.07 91.48 66.11 C 93.24 68.54 94.86 71.06 96.27 73.70 C 86.35 72.93 76.40 75.15 66.56 73.20 C 66.73 73.56 67.06 74.28 67.23 74.65 C 66.62 74.60 65.40 74.50 64.79 74.45 C 64.53 74.08 64.02 73.33 63.76 72.96 C 62.27 71.99 60.87 70.87 59.99 69.29 C 61.40 68.23 62.81 67.17 64.21 66.10 Z" />
</g>
<g id="#2038c8ff">
<path fill="#ffffff" opacity="1.00" d=" M 17.58 80.07 C 18.76 77.35 20.60 74.99 22.24 72.54 C 31.39 75.62 41.24 73.17 50.66 74.36 C 50.24 75.90 49.83 77.44 49.45 78.98 C 55.86 78.99 62.26 79.06 68.67 78.91 C 68.23 77.48 67.79 76.04 67.23 74.65 C 67.06 74.28 66.73 73.56 66.56 73.20 C 76.40 75.15 86.35 72.93 96.27 73.70 L 96.68 73.70 C 97.97 75.78 99.43 77.77 100.34 80.05 C 101.20 82.61 98.74 85.31 96.12 84.91 C 71.40 84.96 46.67 84.98 21.95 84.91 C 19.32 85.22 16.82 82.73 17.58 80.07 Z" />
</g>
<g id="#40b8c8ff">
<path fill="#ffffff" opacity="1.00" d=" M 61.22 87.34 C 63.74 85.93 67.30 88.32 66.76 91.23 C 66.78 94.30 62.49 96.03 60.31 93.85 C 58.11 92.13 58.75 88.46 61.22 87.34 Z" />
</g>
</svg>
