<?xml version="1.0" encoding="UTF-8" ?>
<!DOCTYPE svg PUBLIC "-//W3C//DTD SVG 1.1//EN" "http://www.w3.org/Graphics/SVG/1.1/DTD/svg11.dtd">
<svg width="117px" height="140px" viewBox="0 0 117 140" version="1.1" xmlns="http://www.w3.org/2000/svg">
<g id="#000000ff">
<path fill="#000000" opacity="1.00" d=" M 0.00 0.00 L 117.00 0.00 L 117.00 140.00 L 0.00 140.00 L 0.00 0.00 M 33.16 10.22 C 17.91 11.79 5.18 25.64 5.01 40.99 C 5.02 60.68 4.93 80.38 5.06 100.07 C 5.75 115.63 19.33 129.24 34.90 129.93 C 50.61 130.08 66.33 129.99 82.04 129.98 C 97.98 129.83 112.23 116.04 112.93 100.13 C 113.10 80.76 112.95 61.39 113.01 42.02 C 113.07 33.38 109.38 24.82 103.11 18.89 C 97.00 12.95 88.43 9.74 79.93 9.98 C 64.35 10.17 48.74 9.70 33.16 10.22 Z" />
<path fill="#000000" opacity="1.00" d=" M 30.46 12.71 C 33.92 11.90 37.49 11.98 41.02 12.00 C 55.02 12.06 69.04 11.89 83.04 12.08 C 97.93 12.75 110.87 26.09 110.97 41.01 C 111.02 60.37 111.03 79.72 110.96 99.08 C 110.82 113.98 97.86 127.31 82.97 127.90 C 67.31 128.11 51.64 127.97 35.97 127.97 C 20.71 127.83 7.15 114.30 7.03 99.03 C 6.98 79.68 6.99 60.33 7.02 40.98 C 7.21 27.66 17.47 15.43 30.46 12.71 M 40.48 45.35 C 37.98 46.80 36.63 50.10 38.34 52.67 C 41.03 55.39 44.27 57.50 47.25 59.89 C 48.99 61.12 51.02 60.20 52.88 59.91 C 53.62 57.34 54.21 54.71 54.04 52.01 C 54.53 52.00 55.51 51.99 56.00 51.98 C 56.00 51.24 56.00 49.76 56.00 49.02 C 55.50 49.01 54.51 48.99 54.01 48.99 C 54.22 45.96 53.78 42.97 52.88 40.08 C 47.75 37.71 44.27 42.85 40.48 45.35 M 64.00 41.22 C 64.01 43.81 64.00 46.40 64.00 49.00 C 63.25 49.00 61.75 49.00 61.00 49.00 C 61.00 49.75 61.00 51.25 61.00 52.00 C 61.75 52.00 63.25 52.00 64.00 52.00 C 64.00 54.26 64.00 56.52 64.00 58.78 C 66.11 59.62 68.38 61.51 70.65 59.96 C 73.33 57.88 76.09 55.87 78.67 53.67 C 80.99 51.97 81.00 48.06 78.70 46.35 C 76.09 44.13 73.32 42.12 70.63 40.01 C 68.35 38.51 66.08 40.36 64.00 41.22 M 57.00 49.00 C 57.00 49.75 57.00 51.25 57.00 52.00 C 57.75 52.00 59.25 52.00 60.00 52.00 C 60.00 51.25 60.00 49.75 60.00 49.00 C 59.25 49.00 57.75 49.00 57.00 49.00 Z" />
<path fill="#000000" opacity="1.00" d=" M 41.01 50.00 C 44.00 47.66 47.01 45.35 50.00 43.01 C 50.00 47.66 50.01 52.31 49.99 56.96 C 46.99 54.65 44.00 52.33 41.01 50.00 Z" />
<path fill="#000000" opacity="1.00" d=" M 68.00 43.00 C 70.98 45.35 74.00 47.66 76.99 50.00 C 74.00 52.33 71.01 54.65 68.01 56.96 C 67.99 52.31 68.00 47.65 68.00 43.00 Z" />
</g>
<g id="#717271ff">
<path fill="#717271" opacity="1.00" d=" M 33.16 10.22 C 48.74 9.70 64.35 10.17 79.93 9.98 C 88.43 9.74 97.00 12.95 103.11 18.89 C 109.38 24.82 113.07 33.38 113.01 42.02 C 112.95 61.39 113.10 80.76 112.93 100.13 C 112.23 116.04 97.98 129.83 82.04 129.98 C 66.33 129.99 50.61 130.08 34.90 129.93 C 19.33 129.24 5.75 115.63 5.06 100.07 C 4.93 80.38 5.02 60.68 5.01 40.99 C 5.18 25.64 17.91 11.79 33.16 10.22 M 30.46 12.71 C 17.47 15.43 7.21 27.66 7.02 40.98 C 6.99 60.33 6.98 79.68 7.03 99.03 C 7.15 114.30 20.71 127.83 35.97 127.97 C 51.64 127.97 67.31 128.11 82.97 127.90 C 97.86 127.31 110.82 113.98 110.96 99.08 C 111.03 79.72 111.02 60.37 110.97 41.01 C 110.87 26.09 97.93 12.75 83.04 12.08 C 69.04 11.89 55.02 12.06 41.02 12.00 C 37.49 11.98 33.92 11.90 30.46 12.71 Z" />
</g>
<g id="#f8fcf8ff">
<path fill="#f8fcf8" opacity="1.00" d=" M 40.48 45.35 C 44.27 42.85 47.75 37.71 52.88 40.08 C 53.78 42.97 54.22 45.96 54.01 48.99 C 54.51 48.99 55.50 49.01 56.00 49.02 C 56.00 49.76 56.00 51.24 56.00 51.98 C 55.51 51.99 54.53 52.00 54.04 52.01 C 54.21 54.71 53.62 57.34 52.88 59.91 C 51.02 60.20 48.99 61.12 47.25 59.89 C 44.27 57.50 41.03 55.39 38.34 52.67 C 36.63 50.10 37.98 46.80 40.48 45.35 M 41.01 50.00 C 44.00 52.33 46.99 54.65 49.99 56.96 C 50.01 52.31 50.00 47.66 50.00 43.01 C 47.01 45.35 44.00 47.66 41.01 50.00 Z" />
<path fill="#f8fcf8" opacity="1.00" d=" M 64.00 41.22 C 66.08 40.36 68.35 38.51 70.63 40.01 C 73.32 42.12 76.09 44.13 78.70 46.35 C 81.00 48.06 80.99 51.97 78.67 53.67 C 76.09 55.87 73.33 57.88 70.65 59.96 C 68.38 61.51 66.11 59.62 64.00 58.78 C 64.00 56.52 64.00 54.26 64.00 52.00 C 63.25 52.00 61.75 52.00 61.00 52.00 C 61.00 51.25 61.00 49.75 61.00 49.00 C 61.75 49.00 63.25 49.00 64.00 49.00 C 64.00 46.40 64.01 43.81 64.00 41.22 M 68.00 43.00 C 68.00 47.65 67.99 52.31 68.01 56.96 C 71.01 54.65 74.00 52.33 76.99 50.00 C 74.00 47.66 70.98 45.35 68.00 43.00 Z" />
<path fill="#f8fcf8" opacity="1.00" d=" M 57.00 49.00 C 57.75 49.00 59.25 49.00 60.00 49.00 C 60.00 49.75 60.00 51.25 60.00 52.00 C 59.25 52.00 57.75 52.00 57.00 52.00 C 57.00 51.25 57.00 49.75 57.00 49.00 Z" />
</g>
</svg>
