<?xml version="1.0" encoding="UTF-8" ?>
<!DOCTYPE svg PUBLIC "-//W3C//DTD SVG 1.1//EN" "http://www.w3.org/Graphics/SVG/1.1/DTD/svg11.dtd">
<svg width="117px" height="140px" viewBox="0 0 117 140" version="1.1" xmlns="http://www.w3.org/2000/svg">
<g id="#000000ff">
<path fill="#000000" opacity="1.00" d=" M 0.00 0.00 L 117.00 0.00 L 117.00 140.00 L 0.00 140.00 L 0.00 0.00 M 33.22 10.22 C 17.94 11.76 5.18 25.62 5.02 41.00 C 4.97 60.01 5.02 79.02 4.99 98.03 C 4.93 107.36 9.29 116.56 16.45 122.52 C 22.41 127.55 30.24 130.24 38.04 130.02 C 53.03 129.92 68.03 130.12 83.03 129.92 C 98.98 129.29 112.83 115.01 112.98 99.05 C 113.04 80.04 112.98 61.04 113.00 42.04 C 113.07 33.39 109.38 24.81 103.09 18.88 C 97.02 12.97 88.50 9.77 80.04 9.98 C 64.44 10.16 48.81 9.70 33.22 10.22 Z" />
<path fill="#000000" opacity="1.00" d=" M 33.29 12.34 C 48.83 11.73 64.42 12.24 79.98 12.07 C 90.54 11.70 101.14 17.29 106.52 26.44 C 109.63 31.37 111.05 37.22 110.93 43.02 C 110.92 61.37 110.96 79.71 110.90 98.05 C 111.01 108.52 105.06 118.80 95.91 123.90 C 90.85 126.99 84.84 128.06 78.97 127.94 C 64.27 127.84 49.56 128.10 34.87 127.81 C 20.05 127.11 7.24 113.85 7.12 99.01 C 6.99 81.36 7.12 63.70 7.06 46.05 C 7.06 42.00 7.00 37.88 8.16 33.96 C 11.27 22.61 21.54 13.60 33.29 12.34 M 47.50 50.40 C 44.97 51.20 44.03 54.85 46.33 56.44 C 48.80 58.43 52.89 55.27 51.64 52.43 C 50.88 51.01 49.16 49.74 47.50 50.40 M 58.54 50.68 C 54.43 52.25 57.80 58.96 61.57 56.62 C 65.52 54.82 62.18 48.44 58.54 50.68 M 70.51 50.42 C 65.96 51.80 68.99 58.57 73.00 56.78 C 76.96 55.38 74.28 48.99 70.51 50.42 Z" />
</g>
<g id="#727272ff">
<path fill="#727272" opacity="1.00" d=" M 33.22 10.22 C 48.81 9.70 64.44 10.16 80.04 9.98 C 88.50 9.77 97.02 12.97 103.09 18.88 C 109.38 24.81 113.07 33.39 113.00 42.04 C 112.98 61.04 113.04 80.04 112.98 99.05 C 112.83 115.01 98.98 129.29 83.03 129.92 C 68.03 130.12 53.03 129.92 38.04 130.02 C 30.24 130.24 22.41 127.55 16.45 122.52 C 9.29 116.56 4.93 107.36 4.99 98.03 C 5.02 79.02 4.97 60.01 5.02 41.00 C 5.18 25.62 17.94 11.76 33.22 10.22 M 33.29 12.34 C 21.54 13.60 11.27 22.61 8.16 33.96 C 7.00 37.88 7.06 42.00 7.06 46.05 C 7.12 63.70 6.99 81.36 7.12 99.01 C 7.24 113.85 20.05 127.11 34.87 127.81 C 49.56 128.10 64.27 127.84 78.97 127.94 C 84.84 128.06 90.85 126.99 95.91 123.90 C 105.06 118.80 111.01 108.52 110.90 98.05 C 110.96 79.71 110.92 61.37 110.93 43.02 C 111.05 37.22 109.63 31.37 106.52 26.44 C 101.14 17.29 90.54 11.70 79.98 12.07 C 64.42 12.24 48.83 11.73 33.29 12.34 Z" />
</g>
<g id="#f8fcf8ff">
<path fill="#f8fcf8" opacity="1.00" d=" M 47.50 50.40 C 49.16 49.74 50.88 51.01 51.64 52.43 C 52.89 55.27 48.80 58.43 46.33 56.44 C 44.03 54.85 44.97 51.20 47.50 50.40 Z" />
<path fill="#f8fcf8" opacity="1.00" d=" M 58.54 50.68 C 62.18 48.44 65.52 54.82 61.57 56.62 C 57.80 58.96 54.43 52.25 58.54 50.68 Z" />
<path fill="#f8fcf8" opacity="1.00" d=" M 70.51 50.42 C 74.28 48.99 76.96 55.38 73.00 56.78 C 68.99 58.57 65.96 51.80 70.51 50.42 Z" />
</g>
</svg>
