<?xml version="1.0" encoding="UTF-8" ?>
<!DOCTYPE svg PUBLIC "-//W3C//DTD SVG 1.1//EN" "http://www.w3.org/Graphics/SVG/1.1/DTD/svg11.dtd">
<svg width="117px" height="140px" viewBox="0 0 117 140" version="1.1" xmlns="http://www.w3.org/2000/svg">
<g id="#000000ff">
<path fill="#000000" opacity="1.00" d=" M 0.00 0.00 L 117.00 0.00 L 117.00 140.00 L 0.00 140.00 L 0.00 0.00 M 61.22 34.18 C 59.85 34.37 58.48 34.62 57.23 35.23 C 53.60 36.79 49.37 38.12 47.44 41.90 C 47.63 43.39 48.00 44.84 48.55 46.26 C 43.08 46.94 38.28 50.17 34.55 54.09 C 41.51 62.13 49.52 69.23 56.92 76.87 C 61.15 73.19 64.65 68.69 66.01 63.16 C 67.00 63.60 68.00 64.04 68.99 64.48 C 76.94 59.08 77.91 48.96 81.09 40.69 C 82.79 37.29 81.81 33.10 78.82 30.77 C 77.88 30.53 76.97 30.18 76.12 29.71 C 70.97 30.39 65.97 32.16 61.22 34.18 Z" />
<path fill="#000000" opacity="1.00" d=" M 50.06 42.67 C 56.21 37.23 64.87 36.50 72.20 33.34 C 75.06 31.57 79.24 33.59 79.01 37.07 C 77.37 43.12 75.10 48.95 73.25 54.93 C 72.79 57.68 70.45 59.43 68.91 61.58 C 67.43 60.15 65.96 58.71 64.49 57.27 C 62.95 62.68 62.02 68.77 57.68 72.75 C 56.61 72.53 55.92 71.64 55.17 70.94 C 50.02 65.68 44.74 60.53 39.57 55.29 C 38.09 54.32 39.84 53.19 40.57 52.51 C 44.71 49.74 49.75 48.90 54.32 47.11 C 52.89 45.64 51.45 44.17 50.06 42.67 Z" />
</g>
<g id="#6a6d6aff">
<path fill="#6a6d6a" opacity="1.00" d=" M 33.15 10.22 C 48.75 9.69 64.39 10.17 80.01 9.98 C 89.65 9.69 99.33 13.96 105.49 21.41 C 110.57 27.37 113.24 35.23 113.02 43.04 C 112.92 62.06 113.13 81.08 112.92 100.10 C 112.28 116.05 97.98 129.85 82.03 129.97 C 66.64 130.03 51.25 130.01 35.87 129.98 C 19.59 129.79 5.16 115.37 5.02 99.09 C 4.98 79.71 4.98 60.33 5.02 40.96 C 5.17 25.62 17.91 11.78 33.15 10.22 M 33.18 12.26 C 19.00 13.81 7.16 26.74 7.04 41.04 C 6.98 60.37 6.97 79.71 7.04 99.05 C 7.17 113.93 20.10 127.24 34.94 127.91 C 47.29 128.12 59.64 127.94 71.99 128.00 C 78.63 127.90 85.56 128.62 91.84 125.97 C 103.10 121.69 111.22 110.13 110.98 98.02 C 110.99 79.00 111.05 59.98 110.95 40.96 C 110.85 25.72 97.29 12.20 82.06 12.05 C 65.77 12.09 49.45 11.71 33.18 12.26 Z" />
</g>
<g id="#f7fbf7ff">
<path fill="#f7fbf7" opacity="1.00" d=" M 61.22 34.18 C 65.97 32.16 70.97 30.39 76.12 29.71 C 76.97 30.18 77.88 30.53 78.82 30.77 C 81.81 33.10 82.79 37.29 81.09 40.69 C 77.91 48.96 76.94 59.08 68.99 64.48 C 68.00 64.04 67.00 63.60 66.01 63.16 C 64.65 68.69 61.15 73.19 56.92 76.87 C 49.52 69.23 41.51 62.13 34.55 54.09 C 38.28 50.17 43.08 46.94 48.55 46.26 C 48.00 44.84 47.63 43.39 47.44 41.90 C 49.37 38.12 53.60 36.79 57.23 35.23 C 58.48 34.62 59.85 34.37 61.22 34.18 M 50.06 42.67 C 51.45 44.17 52.89 45.64 54.32 47.11 C 49.75 48.90 44.71 49.74 40.57 52.51 C 39.84 53.19 38.09 54.32 39.57 55.29 C 44.74 60.53 50.02 65.68 55.17 70.94 C 55.92 71.64 56.61 72.53 57.68 72.75 C 62.02 68.77 62.95 62.68 64.49 57.27 C 65.96 58.71 67.43 60.15 68.91 61.58 C 70.45 59.43 72.79 57.68 73.25 54.93 C 75.10 48.95 77.37 43.12 79.01 37.07 C 79.24 33.59 75.06 31.57 72.20 33.34 C 64.87 36.50 56.21 37.23 50.06 42.67 Z" />
</g>
</svg>
