<?xml version="1.0" encoding="UTF-8" ?>
<!DOCTYPE svg PUBLIC "-//W3C//DTD SVG 1.1//EN" "http://www.w3.org/Graphics/SVG/1.1/DTD/svg11.dtd">
<svg width="45px" height="45px" viewBox="0 0 45 45" version="1.1" xmlns="http://www.w3.org/2000/svg">
<g id="#181818ff">
<path fill="#181818" opacity="1.00" d=" M 0.00 0.00 L 45.00 0.00 L 45.00 45.00 L 0.00 45.00 L 0.00 0.00 M 8.00 7.95 C 7.98 14.65 8.01 21.35 7.99 28.06 C 12.64 31.39 17.35 34.62 21.96 38.00 C 21.91 31.35 21.94 24.69 21.94 18.04 C 17.31 14.66 12.64 11.34 8.00 7.95 M 15.96 8.04 C 15.98 9.86 15.94 11.76 16.99 13.35 C 17.41 13.03 18.26 12.39 18.69 12.07 C 21.44 14.84 24.94 16.69 28.00 19.09 C 27.99 24.08 27.99 29.07 28.00 34.06 C 26.31 32.84 24.61 31.64 22.87 30.50 C 22.49 34.65 27.55 35.65 30.01 38.06 C 30.00 31.38 29.99 24.70 30.02 18.02 C 26.80 15.77 23.74 13.28 20.40 11.20 C 18.95 10.10 17.47 9.05 15.96 8.04 M 23.93 7.99 C 23.94 9.90 23.84 11.93 25.15 13.50 C 25.49 13.16 26.17 12.48 26.51 12.14 C 29.58 14.58 32.85 16.74 36.02 19.05 C 36.02 24.08 36.03 29.10 36.02 34.12 C 34.31 32.90 32.61 31.68 30.86 30.52 C 30.58 34.61 35.56 35.61 37.97 38.02 C 37.91 31.35 37.95 24.68 37.95 18.00 C 33.27 14.67 28.67 11.22 23.93 7.99 Z" />
</g>
<g id="#f8c76dff">
<path fill="#ffffff" opacity="1.00" d=" M 8.00 7.95 C 12.64 11.34 17.31 14.66 21.94 18.04 C 21.94 24.69 21.91 31.35 21.96 38.00 C 17.35 34.62 12.64 31.39 7.99 28.06 C 8.01 21.35 7.98 14.65 8.00 7.95 Z" />
<path fill="#ffffff" opacity="1.00" d=" M 15.96 8.04 C 17.47 9.05 18.95 10.10 20.40 11.20 C 19.97 11.41 19.11 11.85 18.69 12.07 C 18.26 12.39 17.41 13.03 16.99 13.35 C 15.94 11.76 15.98 9.86 15.96 8.04 Z" />
</g>
<g id="#ed8b40ff">
<path fill="#ffffff" opacity="1.00" d=" M 23.93 7.99 C 28.67 11.22 33.27 14.67 37.95 18.00 C 37.95 24.68 37.91 31.35 37.97 38.02 C 35.56 35.61 30.58 34.61 30.86 30.52 C 32.61 31.68 34.31 32.90 36.02 34.12 C 36.03 29.10 36.02 24.08 36.02 19.05 C 32.85 16.74 29.58 14.58 26.51 12.14 C 26.17 12.48 25.49 13.16 25.15 13.50 C 23.84 11.93 23.94 9.90 23.93 7.99 Z" />
<path fill="#ffffff" opacity="1.00" d=" M 20.40 11.20 C 23.74 13.28 26.80 15.77 30.02 18.02 C 29.99 24.70 30.00 31.38 30.01 38.06 C 27.55 35.65 22.49 34.65 22.87 30.50 C 24.61 31.64 26.31 32.84 28.00 34.06 C 27.99 29.07 27.99 24.08 28.00 19.09 C 24.94 16.69 21.44 14.84 18.69 12.07 C 19.11 11.85 19.97 11.41 20.40 11.20 Z" />
</g>
</svg>
