<?xml version="1.0" encoding="UTF-8" ?>
<!DOCTYPE svg PUBLIC "-//W3C//DTD SVG 1.1//EN" "http://www.w3.org/Graphics/SVG/1.1/DTD/svg11.dtd">
<svg width="117px" height="140px" viewBox="0 0 117 140" version="1.1" xmlns="http://www.w3.org/2000/svg">
<g id="#181818ff">
<path fill="#181818" opacity="1.00" d=" M 0.00 0.00 L 117.00 0.00 L 117.00 140.00 L 0.00 140.00 L 0.00 0.00 M 29.88 16.02 L 29.69 16.24 C 27.25 13.42 22.47 13.19 20.25 16.39 C 18.07 18.89 19.08 22.44 21.08 24.69 C 22.42 25.14 23.67 26.03 25.13 26.01 C 25.12 27.03 25.11 29.07 25.10 30.09 C 25.01 30.26 24.83 30.60 24.74 30.77 C 26.16 30.86 27.58 30.92 29.00 30.95 C 28.98 32.29 28.98 33.64 29.01 34.99 C 27.67 35.00 26.33 35.00 25.00 35.01 C 25.01 38.72 25.01 42.43 25.01 46.14 C 24.99 51.12 25.01 56.10 25.00 61.08 C 24.98 66.18 25.02 71.29 25.01 76.39 C 25.09 79.62 24.78 82.85 25.10 86.07 C 25.51 89.89 29.03 92.99 32.86 92.96 C 49.88 93.07 66.91 92.96 83.94 93.01 C 87.38 93.28 91.17 91.35 91.91 87.76 C 94.75 88.88 97.70 85.90 96.86 83.05 C 96.74 80.97 94.61 80.07 92.86 79.70 C 93.06 73.52 92.99 67.34 93.00 61.16 C 92.97 55.02 93.05 48.88 92.96 42.74 C 92.63 42.86 91.97 43.11 91.64 43.23 C 90.98 43.17 89.65 43.05 88.99 42.99 C 89.02 39.68 88.98 36.38 88.99 33.08 C 89.00 31.72 89.00 30.36 89.00 29.01 C 90.33 29.00 91.66 29.00 93.00 28.99 C 93.01 25.64 92.98 22.28 93.02 18.93 C 92.97 16.29 93.31 13.44 91.92 11.06 C 90.48 8.17 87.08 6.82 83.98 6.98 C 68.95 7.01 53.91 7.01 38.88 6.98 C 35.86 9.98 32.86 12.99 29.88 16.02 M 94.30 38.65 L 93.97 38.99 C 97.18 39.92 99.92 37.31 99.01 34.07 L 98.66 34.40 C 98.24 34.07 97.39 33.39 96.97 33.06 C 93.47 31.78 91.38 36.67 94.30 38.65 Z" />
<path fill="#181818" opacity="1.00" d=" M 37.31 14.26 C 38.82 12.68 40.45 10.59 42.93 10.96 C 56.29 11.03 69.65 11.01 83.01 10.97 C 84.86 11.02 87.11 10.94 88.25 12.71 C 89.31 14.57 88.87 16.87 89.05 18.92 C 89.02 20.94 88.98 22.96 88.99 24.99 C 87.65 24.99 86.32 25.01 84.99 25.02 C 85.02 27.72 85.00 30.41 84.99 33.11 C 85.01 37.54 85.00 41.96 85.02 46.39 L 85.02 47.00 C 86.34 47.00 87.67 47.00 89.00 47.02 C 88.99 51.66 89.01 56.30 89.01 60.95 C 88.91 67.86 89.17 74.78 88.97 81.69 C 89.11 83.26 89.19 84.82 89.23 86.39 C 87.86 87.89 86.29 89.31 84.08 88.96 C 68.05 89.08 52.01 88.93 35.98 89.03 C 33.65 88.94 30.40 89.28 29.37 86.58 C 28.63 83.20 29.10 79.70 29.00 76.27 C 28.97 71.22 29.02 66.17 29.00 61.11 C 28.98 56.12 29.02 51.13 28.99 46.14 C 29.00 43.76 29.00 41.39 28.99 39.02 C 30.33 39.01 31.67 38.99 33.00 38.98 C 33.01 34.96 32.99 30.95 32.99 26.94 C 31.67 27.07 30.34 27.22 29.02 27.38 C 29.06 26.75 29.13 25.49 29.17 24.85 C 29.55 23.19 30.42 21.69 31.46 20.35 C 33.12 18.06 35.44 16.38 37.31 14.26 M 42.11 15.23 C 41.79 20.54 42.13 25.88 42.00 31.20 C 41.93 34.47 42.10 37.74 41.98 41.01 C 43.12 41.76 45.00 42.55 45.77 40.85 C 46.27 36.15 45.89 31.39 45.98 26.66 C 45.86 22.81 46.29 18.94 45.80 15.10 C 44.97 13.67 42.77 13.56 42.11 15.23 M 50.11 15.22 C 49.80 19.65 50.11 24.10 50.02 28.54 C 49.92 32.71 50.09 36.88 49.97 41.05 C 51.13 41.76 52.96 42.51 53.75 40.87 C 54.31 35.27 53.85 29.63 54.00 24.01 C 53.90 21.06 54.24 18.09 53.79 15.15 C 53.07 13.62 50.75 13.60 50.11 15.22 M 57.95 15.01 C 58.05 19.41 57.99 23.81 58.01 28.21 C 57.94 32.50 58.08 36.79 57.98 41.07 C 59.19 41.77 61.02 42.54 61.79 40.82 C 62.24 35.50 61.90 30.14 61.98 24.80 C 61.91 21.61 62.20 18.40 61.84 15.21 C 60.97 13.48 59.16 14.06 57.95 15.01 M 65.95 14.97 C 66.06 19.41 65.98 23.84 66.00 28.27 C 65.93 32.54 66.09 36.81 65.97 41.07 C 67.18 41.76 69.02 42.55 69.79 40.81 C 70.26 35.50 69.89 30.16 69.99 24.84 C 69.90 21.58 70.25 18.31 69.79 15.08 C 68.82 13.48 67.18 14.11 65.95 14.97 M 74.12 15.16 C 73.78 19.85 74.13 24.57 74.00 29.28 C 74.08 33.13 73.82 36.99 74.15 40.84 C 74.90 42.22 77.07 42.34 77.78 40.85 C 78.20 35.49 77.92 30.09 77.98 24.71 C 77.91 21.53 78.23 18.34 77.81 15.17 C 77.12 13.60 74.89 13.73 74.12 15.16 M 41.82 63.09 C 41.66 68.02 41.77 72.99 41.74 77.94 C 44.77 77.98 47.80 77.93 50.83 77.91 C 50.80 77.31 50.72 76.11 50.69 75.51 C 48.70 75.49 46.72 75.52 44.74 75.53 C 44.75 71.45 44.74 67.37 44.75 63.29 C 44.02 63.24 42.55 63.14 41.82 63.09 M 55.61 63.65 C 50.16 66.52 50.61 76.67 57.04 78.06 C 59.28 78.92 64.67 77.44 62.12 74.34 C 60.68 75.03 59.12 76.29 57.45 75.47 C 54.70 74.39 54.61 70.66 55.27 68.24 C 56.07 65.21 60.12 64.91 62.29 66.62 C 62.46 66.01 62.78 64.81 62.95 64.21 C 60.69 63.10 57.96 62.31 55.61 63.65 M 65.76 63.23 C 65.73 68.14 65.74 73.04 65.74 77.94 C 68.00 77.95 70.29 78.08 72.52 77.65 C 77.38 76.28 78.13 69.78 75.97 65.93 C 73.73 62.59 69.23 63.27 65.76 63.23 Z" />
<path fill="#181818" opacity="1.00" d=" M 68.75 65.36 C 73.70 64.74 75.46 70.61 73.15 74.12 C 72.22 75.76 70.23 75.47 68.65 75.49 C 68.77 72.12 68.75 68.74 68.75 65.36 Z" />
</g>
<g id="#9060f0ff">
<path fill="#ffffff" opacity="1.00" d=" M 29.88 16.02 C 32.86 12.99 35.86 9.98 38.88 6.98 C 53.91 7.01 68.95 7.01 83.98 6.98 C 87.08 6.82 90.48 8.17 91.92 11.06 C 93.31 13.44 92.97 16.29 93.02 18.93 C 91.70 18.92 90.38 18.92 89.05 18.92 C 88.87 16.87 89.31 14.57 88.25 12.71 C 87.11 10.94 84.86 11.02 83.01 10.97 C 69.65 11.01 56.29 11.03 42.93 10.96 C 40.45 10.59 38.82 12.68 37.31 14.26 C 35.44 16.38 33.12 18.06 31.46 20.35 C 30.81 18.95 30.28 17.51 29.88 16.02 Z" />
</g>
<g id="#60e098ff">
<path fill="#ffffff" opacity="1.00" d=" M 20.25 16.39 C 22.47 13.19 27.25 13.42 29.69 16.24 C 27.15 19.38 24.28 22.22 21.08 24.69 C 19.08 22.44 18.07 18.89 20.25 16.39 Z" />
</g>
<g id="#f8d078ff">
<path fill="#ffffff" opacity="1.00" d=" M 42.11 15.23 C 42.77 13.56 44.97 13.67 45.80 15.10 C 46.29 18.94 45.86 22.81 45.98 26.66 C 44.66 28.18 43.32 29.68 42.00 31.20 C 42.13 25.88 41.79 20.54 42.11 15.23 Z" />
</g>
<g id="#f8c868ff">
<path fill="#ffffff" opacity="1.00" d=" M 50.11 15.22 C 50.75 13.60 53.07 13.62 53.79 15.15 C 54.24 18.09 53.90 21.06 54.00 24.01 C 52.67 25.52 51.32 27.01 50.02 28.54 C 50.11 24.10 49.80 19.65 50.11 15.22 Z" />
</g>
<g id="#f8b860ff">
<path fill="#ffffff" opacity="1.00" d=" M 57.95 15.01 C 59.16 14.06 60.97 13.48 61.84 15.21 C 62.20 18.40 61.91 21.61 61.98 24.80 C 60.66 25.94 59.33 27.07 58.01 28.21 C 57.99 23.81 58.05 19.41 57.95 15.01 Z" />
</g>
<g id="#f8a850ff">
<path fill="#ffffff" opacity="1.00" d=" M 65.95 14.97 C 67.18 14.11 68.82 13.48 69.79 15.08 C 70.25 18.31 69.90 21.58 69.99 24.84 C 68.66 25.98 67.33 27.13 66.00 28.27 C 65.98 23.84 66.06 19.41 65.95 14.97 Z" />
</g>
<g id="#f89848ff">
<path fill="#ffffff" opacity="1.00" d=" M 74.12 15.16 C 74.89 13.73 77.12 13.60 77.81 15.17 C 78.23 18.34 77.91 21.53 77.98 24.71 C 76.67 26.24 75.32 27.75 74.00 29.28 C 74.13 24.57 73.78 19.85 74.12 15.16 Z" />
</g>
<g id="#40d080ff">
<path fill="#ffffff" opacity="1.00" d=" M 29.69 16.24 L 29.88 16.02 C 30.28 17.51 30.81 18.95 31.46 20.35 C 30.42 21.69 29.55 23.19 29.17 24.85 C 27.82 25.23 26.48 25.64 25.13 26.01 C 23.67 26.03 22.42 25.14 21.08 24.69 C 24.28 22.22 27.15 19.38 29.69 16.24 Z" />
</g>
<g id="#7858e8ff">
<path fill="#ffffff" opacity="1.00" d=" M 89.05 18.92 C 90.38 18.92 91.70 18.92 93.02 18.93 C 92.98 22.28 93.01 25.64 93.00 28.99 C 91.66 29.00 90.33 29.00 89.00 29.01 C 89.00 30.36 89.00 31.72 88.99 33.08 C 87.66 33.09 86.32 33.10 84.99 33.11 C 85.00 30.41 85.02 27.72 84.99 25.02 C 86.32 25.01 87.65 24.99 88.99 24.99 C 88.98 22.96 89.02 20.94 89.05 18.92 Z" />
</g>
<g id="#f8b058ff">
<path fill="#ffffff" opacity="1.00" d=" M 50.02 28.54 C 51.32 27.01 52.67 25.52 54.00 24.01 C 53.85 29.63 54.31 35.27 53.75 40.87 C 52.96 42.51 51.13 41.76 49.97 41.05 C 50.09 36.88 49.92 32.71 50.02 28.54 Z" />
</g>
<g id="#4a3a91ff">
<path fill="#ffffff" opacity="1.00" d=" M 25.13 26.01 C 26.48 25.64 27.82 25.23 29.17 24.85 C 29.13 25.49 29.06 26.75 29.02 27.38 C 28.18 28.88 26.55 29.38 25.10 30.09 C 25.11 29.07 25.12 27.03 25.13 26.01 Z" />
</g>
<g id="#f8a050ff">
<path fill="#ffffff" opacity="1.00" d=" M 58.01 28.21 C 59.33 27.07 60.66 25.94 61.98 24.80 C 61.90 30.14 62.24 35.50 61.79 40.82 C 61.02 42.54 59.19 41.77 57.98 41.07 C 58.08 36.79 57.94 32.50 58.01 28.21 Z" />
</g>
<g id="#f89040ff">
<path fill="#ffffff" opacity="1.00" d=" M 66.00 28.27 C 67.33 27.13 68.66 25.98 69.99 24.84 C 69.89 30.16 70.26 35.50 69.79 40.81 C 69.02 42.55 67.18 41.76 65.97 41.07 C 66.09 36.81 65.93 32.54 66.00 28.27 Z" />
</g>
<g id="#f88038ff">
<path fill="#ffffff" opacity="1.00" d=" M 74.00 29.28 C 75.32 27.75 76.67 26.24 77.98 24.71 C 77.92 30.09 78.20 35.49 77.78 40.85 C 77.07 42.34 74.90 42.22 74.15 40.84 C 73.82 36.99 74.08 33.13 74.00 29.28 Z" />
</g>
<g id="#6850e0ff">
<path fill="#ffffff" opacity="1.00" d=" M 29.02 27.38 C 30.34 27.22 31.67 27.07 32.99 26.94 C 32.99 30.95 33.01 34.96 33.00 38.98 C 31.67 38.99 30.33 39.01 28.99 39.02 C 29.00 41.39 29.00 43.76 28.99 46.14 C 27.66 46.14 26.33 46.14 25.01 46.14 C 25.01 42.43 25.01 38.72 25.00 35.01 C 26.33 35.00 27.67 35.00 29.01 34.99 C 28.98 33.64 28.98 32.29 29.00 30.95 C 27.58 30.92 26.16 30.86 24.74 30.77 C 24.83 30.60 25.01 30.26 25.10 30.09 C 26.55 29.38 28.18 28.88 29.02 27.38 Z" />
<path fill="#ffffff" opacity="1.00" d=" M 84.99 33.11 C 86.32 33.10 87.66 33.09 88.99 33.08 C 88.98 36.38 89.02 39.68 88.99 42.99 C 89.65 43.05 90.98 43.17 91.64 43.23 C 90.90 44.02 90.20 44.85 89.55 45.71 C 88.03 45.87 86.51 46.09 85.02 46.39 C 85.00 41.96 85.01 37.54 84.99 33.11 Z" />
</g>
<g id="#f8c068ff">
<path fill="#ffffff" opacity="1.00" d=" M 42.00 31.20 C 43.32 29.68 44.66 28.18 45.98 26.66 C 45.89 31.39 46.27 36.15 45.77 40.85 C 45.00 42.55 43.12 41.76 41.98 41.01 C 42.10 37.74 41.93 34.47 42.00 31.20 Z" />
</g>
<g id="#c5a8a5ff">
<path fill="#ffffff" opacity="1.00" d=" M 94.30 38.65 C 91.38 36.67 93.47 31.78 96.97 33.06 C 97.39 33.39 98.24 34.07 98.66 34.40 C 97.18 35.79 95.72 37.20 94.30 38.65 Z" />
</g>
<g id="#9e779aff">
<path fill="#ffffff" opacity="1.00" d=" M 98.66 34.40 L 99.01 34.07 C 99.92 37.31 97.18 39.92 93.97 38.99 L 94.30 38.65 C 95.72 37.20 97.18 35.79 98.66 34.40 Z" />
</g>
<g id="#5048d8ff">
<path fill="#ffffff" opacity="1.00" d=" M 91.64 43.23 C 91.97 43.11 92.63 42.86 92.96 42.74 C 93.05 48.88 92.97 55.02 93.00 61.16 C 91.66 61.09 90.33 61.02 89.01 60.95 C 89.01 56.30 88.99 51.66 89.00 47.02 C 87.67 47.00 86.34 47.00 85.02 47.00 L 85.02 46.39 C 86.51 46.09 88.03 45.87 89.55 45.71 C 90.20 44.85 90.90 44.02 91.64 43.23 Z" />
<path fill="#ffffff" opacity="1.00" d=" M 25.01 46.14 C 26.33 46.14 27.66 46.14 28.99 46.14 C 29.02 51.13 28.98 56.12 29.00 61.11 C 27.67 61.11 26.34 61.10 25.00 61.08 C 25.01 56.10 24.99 51.12 25.01 46.14 Z" />
</g>
<g id="#3840d0ff">
<path fill="#ffffff" opacity="1.00" d=" M 25.00 61.08 C 26.34 61.10 27.67 61.11 29.00 61.11 C 29.02 66.17 28.97 71.22 29.00 76.27 C 27.67 76.32 26.34 76.35 25.01 76.39 C 25.02 71.29 24.98 66.18 25.00 61.08 Z" />
<path fill="#ffffff" opacity="1.00" d=" M 89.01 60.95 C 90.33 61.02 91.66 61.09 93.00 61.16 C 92.99 67.34 93.06 73.52 92.86 79.70 C 91.55 80.34 90.23 80.96 88.97 81.69 C 89.17 74.78 88.91 67.86 89.01 60.95 Z" />
<path fill="#ffffff" opacity="1.00" d=" M 55.61 63.65 C 57.96 62.31 60.69 63.10 62.95 64.21 C 62.78 64.81 62.46 66.01 62.29 66.62 C 60.12 64.91 56.07 65.21 55.27 68.24 C 54.61 70.66 54.70 74.39 57.45 75.47 C 59.12 76.29 60.68 75.03 62.12 74.34 C 64.67 77.44 59.28 78.92 57.04 78.06 C 50.61 76.67 50.16 66.52 55.61 63.65 Z" />
<path fill="#ffffff" opacity="1.00" d=" M 65.76 63.23 C 69.23 63.27 73.73 62.59 75.97 65.93 C 78.13 69.78 77.38 76.28 72.52 77.65 C 70.29 78.08 68.00 77.95 65.74 77.94 C 65.74 73.04 65.73 68.14 65.76 63.23 M 68.75 65.36 C 68.75 68.74 68.77 72.12 68.65 75.49 C 70.23 75.47 72.22 75.76 73.15 74.12 C 75.46 70.61 73.70 64.74 68.75 65.36 Z" />
</g>
<g id="#3040d0ff">
<path fill="#ffffff" opacity="1.00" d=" M 41.82 63.09 C 42.55 63.14 44.02 63.24 44.75 63.29 C 44.74 67.37 44.75 71.45 44.74 75.53 C 46.72 75.52 48.70 75.49 50.69 75.51 C 50.72 76.11 50.80 77.31 50.83 77.91 C 47.80 77.93 44.77 77.98 41.74 77.94 C 41.77 72.99 41.66 68.02 41.82 63.09 Z" />
</g>
<g id="#1830c0ff">
<path fill="#ffffff" opacity="1.00" d=" M 25.01 76.39 C 26.34 76.35 27.67 76.32 29.00 76.27 C 29.10 79.70 28.63 83.20 29.37 86.58 C 30.40 89.28 33.65 88.94 35.98 89.03 C 52.01 88.93 68.05 89.08 84.08 88.96 C 86.29 89.31 87.86 87.89 89.23 86.39 C 90.10 86.89 90.99 87.36 91.91 87.76 C 91.17 91.35 87.38 93.28 83.94 93.01 C 66.91 92.96 49.88 93.07 32.86 92.96 C 29.03 92.99 25.51 89.89 25.10 86.07 C 24.78 82.85 25.09 79.62 25.01 76.39 Z" />
</g>
<g id="#68b0f0ff">
<path fill="#ffffff" opacity="1.00" d=" M 88.97 81.69 C 90.23 80.96 91.55 80.34 92.86 79.70 C 94.61 80.07 96.74 80.97 96.86 83.05 C 97.70 85.90 94.75 88.88 91.91 87.76 C 90.99 87.36 90.10 86.89 89.23 86.39 C 89.19 84.82 89.11 83.26 88.97 81.69 Z" />
</g>
</svg>
