<?xml version="1.0" encoding="UTF-8" ?>
<!DOCTYPE svg PUBLIC "-//W3C//DTD SVG 1.1//EN" "http://www.w3.org/Graphics/SVG/1.1/DTD/svg11.dtd">
<svg width="117px" height="140px" viewBox="0 0 117 140" version="1.1" xmlns="http://www.w3.org/2000/svg">
<g id="#000000ff">
<path fill="#000000" opacity="1.00" d=" M 0.00 0.00 L 117.00 0.00 L 117.00 140.00 L 0.00 140.00 L 0.00 0.00 M 33.15 10.22 C 17.91 11.80 5.19 25.63 5.02 40.96 C 4.99 60.34 4.99 79.72 5.02 99.10 C 5.20 115.03 19.01 129.26 34.93 129.93 C 50.63 130.08 66.34 129.99 82.04 129.97 C 98.01 129.84 112.29 115.98 112.93 100.03 C 113.09 80.69 112.95 61.34 113.00 42.00 C 113.07 33.35 109.36 24.78 103.07 18.86 C 96.99 12.96 88.49 9.77 80.05 9.98 C 64.42 10.17 48.76 9.69 33.15 10.22 Z" />
<path fill="#000000" opacity="1.00" d=" M 30.47 12.71 C 33.92 11.91 37.49 11.98 41.01 12.00 C 55.02 12.06 69.03 11.89 83.03 12.08 C 97.90 12.74 110.83 26.04 110.96 40.94 C 111.02 60.31 111.03 79.68 110.96 99.05 C 110.85 114.28 97.32 127.81 82.09 127.95 C 66.73 128.05 51.36 128.01 36.00 127.97 C 20.74 127.85 7.16 114.32 7.03 99.05 C 6.98 79.69 6.98 60.33 7.03 40.96 C 7.22 27.65 17.47 15.43 30.47 12.71 M 37.97 42.06 C 35.12 44.96 30.01 46.50 29.53 51.04 C 30.09 55.53 35.14 57.06 37.98 59.94 C 40.11 62.32 43.31 61.24 46.00 60.88 C 46.00 58.25 46.00 55.63 46.00 53.00 C 48.00 53.00 50.00 53.00 52.00 53.00 C 52.00 52.25 52.00 50.75 52.00 50.00 C 50.00 50.00 48.00 50.00 46.00 50.00 C 46.00 47.04 46.00 44.08 46.00 41.12 C 43.31 40.76 40.08 39.66 37.97 42.06 M 70.99 41.10 C 71.01 44.07 70.99 47.03 71.00 50.00 C 68.67 50.00 66.33 50.00 64.00 50.00 C 64.00 50.75 64.00 52.25 64.00 53.00 C 66.33 53.00 68.67 53.00 71.00 53.00 C 71.00 55.63 71.01 58.26 70.99 60.89 C 73.58 61.82 76.57 61.76 78.51 59.56 C 81.23 56.84 86.04 55.34 86.47 51.01 C 85.95 46.48 80.84 44.93 77.99 42.03 C 76.16 39.97 73.34 40.43 70.99 41.10 M 53.00 50.00 C 53.00 50.75 53.00 52.25 53.00 53.00 C 53.75 53.00 55.25 53.00 56.00 53.00 C 56.00 52.25 56.00 50.75 56.00 50.00 C 55.25 50.00 53.75 50.00 53.00 50.00 M 57.00 50.00 C 57.00 50.75 57.00 52.25 57.00 53.00 C 59.00 53.00 61.00 53.00 63.00 53.00 C 63.00 52.25 63.00 50.75 63.00 50.00 C 61.00 50.00 59.00 50.00 57.00 50.00 Z" />
<path fill="#000000" opacity="1.00" d=" M 33.01 51.00 C 36.00 48.67 39.01 46.35 42.00 44.01 C 42.00 48.66 42.01 53.31 41.99 57.97 C 39.00 55.65 36.00 53.33 33.01 51.00 Z" />
<path fill="#000000" opacity="1.00" d=" M 75.00 44.81 C 77.67 46.86 80.33 48.93 82.99 51.00 C 80.33 53.07 77.67 55.14 75.00 57.19 C 75.00 53.06 75.00 48.94 75.00 44.81 Z" />
</g>
<g id="#717271ff">
<path fill="#717271" opacity="1.00" d=" M 33.15 10.22 C 48.76 9.69 64.42 10.17 80.05 9.98 C 88.49 9.77 96.99 12.96 103.07 18.86 C 109.36 24.78 113.07 33.35 113.00 42.00 C 112.95 61.34 113.09 80.69 112.93 100.03 C 112.29 115.98 98.01 129.84 82.04 129.97 C 66.34 129.99 50.63 130.08 34.93 129.93 C 19.01 129.26 5.20 115.03 5.02 99.10 C 4.99 79.72 4.99 60.34 5.02 40.96 C 5.19 25.63 17.91 11.80 33.15 10.22 M 30.47 12.71 C 17.47 15.43 7.22 27.65 7.03 40.96 C 6.98 60.33 6.98 79.69 7.03 99.05 C 7.16 114.32 20.74 127.85 36.00 127.97 C 51.36 128.01 66.73 128.05 82.09 127.95 C 97.32 127.81 110.85 114.28 110.96 99.05 C 111.03 79.68 111.02 60.31 110.96 40.94 C 110.83 26.04 97.90 12.74 83.03 12.08 C 69.03 11.89 55.02 12.06 41.01 12.00 C 37.49 11.98 33.92 11.91 30.47 12.71 Z" />
</g>
<g id="#f8fcf8ff">
<path fill="#f8fcf8" opacity="1.00" d=" M 37.97 42.06 C 40.08 39.66 43.31 40.76 46.00 41.12 C 46.00 44.08 46.00 47.04 46.00 50.00 C 48.00 50.00 50.00 50.00 52.00 50.00 C 52.00 50.75 52.00 52.25 52.00 53.00 C 50.00 53.00 48.00 53.00 46.00 53.00 C 46.00 55.63 46.00 58.25 46.00 60.88 C 43.31 61.24 40.11 62.32 37.98 59.94 C 35.14 57.06 30.09 55.53 29.53 51.04 C 30.01 46.50 35.12 44.96 37.97 42.06 M 33.01 51.00 C 36.00 53.33 39.00 55.65 41.99 57.97 C 42.01 53.31 42.00 48.66 42.00 44.01 C 39.01 46.35 36.00 48.67 33.01 51.00 Z" />
<path fill="#f8fcf8" opacity="1.00" d=" M 70.99 41.10 C 73.34 40.43 76.16 39.97 77.99 42.03 C 80.84 44.93 85.95 46.48 86.47 51.01 C 86.04 55.34 81.23 56.84 78.51 59.56 C 76.57 61.76 73.58 61.82 70.99 60.89 C 71.01 58.26 71.00 55.63 71.00 53.00 C 68.67 53.00 66.33 53.00 64.00 53.00 C 64.00 52.25 64.00 50.75 64.00 50.00 C 66.33 50.00 68.67 50.00 71.00 50.00 C 70.99 47.03 71.01 44.07 70.99 41.10 M 75.00 44.81 C 75.00 48.94 75.00 53.06 75.00 57.19 C 77.67 55.14 80.33 53.07 82.99 51.00 C 80.33 48.93 77.67 46.86 75.00 44.81 Z" />
<path fill="#f8fcf8" opacity="1.00" d=" M 53.00 50.00 C 53.75 50.00 55.25 50.00 56.00 50.00 C 56.00 50.75 56.00 52.25 56.00 53.00 C 55.25 53.00 53.75 53.00 53.00 53.00 C 53.00 52.25 53.00 50.75 53.00 50.00 Z" />
<path fill="#f8fcf8" opacity="1.00" d=" M 57.00 50.00 C 59.00 50.00 61.00 50.00 63.00 50.00 C 63.00 50.75 63.00 52.25 63.00 53.00 C 61.00 53.00 59.00 53.00 57.00 53.00 C 57.00 52.25 57.00 50.75 57.00 50.00 Z" />
</g>
</svg>
