<?xml version="1.0" encoding="UTF-8" ?>
<!DOCTYPE svg PUBLIC "-//W3C//DTD SVG 1.1//EN" "http://www.w3.org/Graphics/SVG/1.1/DTD/svg11.dtd">
<svg width="117px" height="140px" viewBox="0 0 117 140" version="1.1" xmlns="http://www.w3.org/2000/svg">
<g id="#000000ff">
<path fill="#000000" opacity="1.00" d=" M 0.00 0.00 L 117.00 0.00 L 117.00 140.00 L 0.00 140.00 L 0.00 0.00 M 33.14 10.20 C 17.88 11.76 5.11 25.65 5.00 41.02 C 4.99 60.36 4.99 79.70 5.00 99.04 C 5.12 115.03 19.01 129.34 34.98 129.95 C 50.65 130.07 66.33 129.98 82.00 129.99 C 98.37 129.92 112.93 115.37 113.00 99.00 C 112.98 79.32 113.07 59.62 112.95 39.93 C 112.31 23.95 97.97 10.09 81.97 10.00 C 65.70 10.12 49.40 9.73 33.14 10.20 Z" />
<path fill="#000000" opacity="1.00" d=" M 33.20 12.38 C 48.09 11.66 63.03 12.30 77.94 12.05 C 84.61 11.84 91.49 13.10 97.11 16.87 C 105.59 22.13 110.90 31.99 110.89 41.95 C 110.97 60.30 110.91 78.65 110.92 97.01 C 111.16 106.34 106.90 115.73 99.50 121.47 C 93.98 125.82 86.96 128.03 79.95 127.92 C 65.64 127.92 51.33 127.96 37.01 127.90 C 28.91 127.90 20.94 124.43 15.33 118.60 C 10.17 113.08 7.10 105.64 7.10 98.07 C 7.02 80.04 7.11 62.01 7.06 43.98 C 6.95 38.35 7.98 32.59 10.83 27.67 C 15.23 19.35 23.87 13.52 33.20 12.38 M 35.00 34.00 C 34.69 47.67 34.96 61.35 34.86 75.02 C 34.90 77.59 34.66 80.20 35.17 82.75 C 36.40 83.31 37.64 83.33 38.88 82.78 C 39.72 76.57 39.04 70.25 39.26 64.00 C 43.59 64.00 47.92 64.00 52.26 64.00 C 52.45 69.98 51.84 76.01 52.60 81.96 C 52.47 84.33 56.58 83.88 56.69 81.81 C 57.42 74.83 56.45 67.65 57.18 60.76 C 58.52 60.49 59.71 60.85 60.76 61.85 C 61.36 60.81 62.03 59.81 62.60 58.75 C 61.98 57.61 61.39 56.45 60.84 55.27 C 59.92 56.16 58.81 56.81 57.62 57.28 C 57.59 58.13 57.53 58.98 57.43 59.82 C 56.45 51.26 57.24 42.62 56.81 34.02 C 55.33 34.03 53.86 34.04 52.38 34.09 C 52.12 40.50 52.32 46.91 52.25 53.32 C 47.92 53.33 43.59 53.33 39.25 53.31 C 39.18 46.88 39.46 40.43 39.03 34.00 C 37.69 34.00 36.34 34.00 35.00 34.00 M 63.19 34.01 C 62.94 49.36 63.06 64.71 63.12 80.06 C 62.65 82.42 64.93 84.57 67.15 83.08 C 68.01 79.80 67.70 76.38 67.75 73.04 C 67.67 60.06 67.89 47.08 67.63 34.10 C 66.15 34.05 64.67 34.02 63.19 34.01 M 80.97 34.00 C 80.46 46.66 80.88 59.34 80.74 72.02 C 80.86 75.62 80.37 79.30 81.18 82.85 C 82.40 83.32 83.62 83.29 84.83 82.75 C 85.34 80.20 85.10 77.57 85.14 74.99 C 85.04 61.33 85.31 47.66 85.00 34.00 C 83.65 34.00 82.31 34.00 80.97 34.00 M 70.11 40.00 C 70.11 52.44 70.11 64.89 70.11 77.33 C 70.79 77.33 72.16 77.32 72.84 77.31 C 72.83 64.87 72.83 52.44 72.84 40.00 C 72.15 40.00 70.79 40.00 70.11 40.00 M 75.53 40.00 C 75.53 52.44 75.53 64.89 75.53 77.33 C 76.20 77.33 77.55 77.32 78.23 77.32 C 78.23 64.88 78.23 52.44 78.23 40.00 C 77.56 40.00 76.20 40.00 75.53 40.00 Z" />
<path fill="#000000" opacity="1.00" d=" M 39.64 57.32 C 43.56 57.33 47.48 57.33 51.40 57.31 C 51.36 57.99 51.28 59.33 51.24 60.00 C 47.42 60.00 43.61 60.00 39.79 60.00 C 39.75 59.33 39.68 57.99 39.64 57.32 Z" />
</g>
<g id="#6a6b6aff">
<path fill="#6a6b6a" opacity="1.00" d=" M 33.14 10.20 C 49.40 9.73 65.70 10.12 81.97 10.00 C 97.97 10.09 112.31 23.95 112.95 39.93 C 113.07 59.62 112.98 79.32 113.00 99.00 C 112.93 115.37 98.37 129.92 82.00 129.99 C 66.33 129.98 50.65 130.07 34.98 129.95 C 19.01 129.34 5.12 115.03 5.00 99.04 C 4.99 79.70 4.99 60.36 5.00 41.02 C 5.11 25.65 17.88 11.76 33.14 10.20 M 33.20 12.38 C 23.87 13.52 15.23 19.35 10.83 27.67 C 7.98 32.59 6.95 38.35 7.06 43.98 C 7.11 62.01 7.02 80.04 7.10 98.07 C 7.10 105.64 10.17 113.08 15.33 118.60 C 20.94 124.43 28.91 127.90 37.01 127.90 C 51.33 127.96 65.64 127.92 79.95 127.92 C 86.96 128.03 93.98 125.82 99.50 121.47 C 106.90 115.73 111.16 106.34 110.92 97.01 C 110.91 78.65 110.97 60.30 110.89 41.95 C 110.90 31.99 105.59 22.13 97.11 16.87 C 91.49 13.10 84.61 11.84 77.94 12.05 C 63.03 12.30 48.09 11.66 33.20 12.38 Z" />
</g>
<g id="#f8fcf8ff">
<path fill="#f8fcf8" opacity="1.00" d=" M 35.00 34.00 C 36.34 34.00 37.69 34.00 39.03 34.00 C 39.46 40.43 39.18 46.88 39.25 53.31 C 43.59 53.33 47.92 53.33 52.25 53.32 C 52.32 46.91 52.12 40.50 52.38 34.09 C 53.86 34.04 55.33 34.03 56.81 34.02 C 57.24 42.62 56.45 51.26 57.43 59.82 C 57.53 58.98 57.59 58.13 57.62 57.28 C 58.81 56.81 59.92 56.16 60.84 55.27 C 61.39 56.45 61.98 57.61 62.60 58.75 C 62.03 59.81 61.36 60.81 60.76 61.85 C 59.71 60.85 58.52 60.49 57.18 60.76 C 56.45 67.65 57.42 74.83 56.69 81.81 C 56.58 83.88 52.47 84.33 52.60 81.96 C 51.84 76.01 52.45 69.98 52.26 64.00 C 47.92 64.00 43.59 64.00 39.26 64.00 C 39.04 70.25 39.72 76.57 38.88 82.78 C 37.64 83.33 36.40 83.31 35.17 82.75 C 34.66 80.20 34.90 77.59 34.86 75.02 C 34.96 61.35 34.69 47.67 35.00 34.00 M 39.64 57.32 C 39.68 57.99 39.75 59.33 39.79 60.00 C 43.61 60.00 47.42 60.00 51.24 60.00 C 51.28 59.33 51.36 57.99 51.40 57.31 C 47.48 57.33 43.56 57.33 39.64 57.32 Z" />
<path fill="#f8fcf8" opacity="1.00" d=" M 63.19 34.01 C 64.67 34.02 66.15 34.05 67.63 34.10 C 67.89 47.08 67.67 60.06 67.75 73.04 C 67.70 76.38 68.01 79.80 67.15 83.08 C 64.93 84.57 62.65 82.42 63.12 80.06 C 63.06 64.71 62.94 49.36 63.19 34.01 Z" />
<path fill="#f8fcf8" opacity="1.00" d=" M 80.97 34.00 C 82.31 34.00 83.65 34.00 85.00 34.00 C 85.31 47.66 85.04 61.33 85.14 74.99 C 85.10 77.57 85.34 80.20 84.83 82.75 C 83.62 83.29 82.40 83.32 81.18 82.85 C 80.37 79.30 80.86 75.62 80.74 72.02 C 80.88 59.34 80.46 46.66 80.97 34.00 Z" />
<path fill="#f8fcf8" opacity="1.00" d=" M 70.11 40.00 C 70.79 40.00 72.15 40.00 72.84 40.00 C 72.83 52.44 72.83 64.87 72.84 77.31 C 72.16 77.32 70.79 77.33 70.11 77.33 C 70.11 64.89 70.11 52.44 70.11 40.00 Z" />
<path fill="#f8fcf8" opacity="1.00" d=" M 75.53 40.00 C 76.20 40.00 77.56 40.00 78.23 40.00 C 78.23 52.44 78.23 64.88 78.23 77.32 C 77.55 77.32 76.20 77.33 75.53 77.33 C 75.53 64.89 75.53 52.44 75.53 40.00 Z" />
</g>
</svg>
