<?xml version="1.0" encoding="UTF-8" ?>
<!DOCTYPE svg PUBLIC "-//W3C//DTD SVG 1.1//EN" "http://www.w3.org/Graphics/SVG/1.1/DTD/svg11.dtd">
<svg width="117px" height="140px" viewBox="0 0 117 140" version="1.1" xmlns="http://www.w3.org/2000/svg">
<g id="#000000ff">
<path fill="#000000" opacity="1.00" d=" M 0.00 0.00 L 117.00 0.00 L 117.00 140.00 L 0.00 140.00 L 0.00 0.00 M 33.18 10.22 C 17.93 11.78 5.21 25.60 5.01 40.94 C 4.99 60.30 4.99 79.67 5.01 99.04 C 5.17 115.01 19.00 129.27 34.96 129.94 C 50.66 130.07 66.37 129.99 82.07 129.98 C 98.03 129.81 112.27 115.99 112.94 100.05 C 113.09 80.71 112.95 61.37 113.01 42.03 C 113.08 33.37 109.37 24.79 103.07 18.86 C 97.01 12.97 88.50 9.77 80.07 9.98 C 64.44 10.16 48.79 9.70 33.18 10.22 Z" />
<path fill="#000000" opacity="1.00" d=" M 30.52 12.70 C 33.64 11.98 36.86 11.96 40.05 11.99 C 54.37 12.06 68.70 11.89 83.02 12.08 C 97.92 12.74 110.87 26.09 110.97 41.02 C 111.02 60.36 111.03 79.69 110.96 99.03 C 110.85 113.93 97.90 127.29 83.02 127.90 C 67.33 128.11 51.62 127.97 35.93 127.97 C 20.67 127.80 7.13 114.26 7.03 98.99 C 6.98 79.67 6.99 60.34 7.02 41.01 C 7.20 27.67 17.48 15.40 30.52 12.70 M 39.30 41.05 C 36.66 43.17 33.89 45.12 31.33 47.33 C 29.00 49.04 29.01 52.98 31.34 54.68 C 33.86 56.85 36.58 58.78 39.18 60.85 C 41.28 62.25 43.73 60.93 46.00 60.89 C 46.00 58.26 46.00 55.63 46.00 53.00 C 48.00 53.00 50.00 53.00 52.00 53.00 C 52.00 52.25 52.00 50.75 52.00 50.00 C 50.00 50.00 48.00 50.00 46.00 50.00 C 46.00 47.04 46.00 44.08 46.00 41.11 C 43.78 41.04 41.40 39.83 39.30 41.05 M 70.99 41.10 C 71.01 44.07 71.00 47.03 71.00 50.00 C 68.67 50.00 66.33 50.00 64.00 50.00 C 64.00 50.75 64.00 52.25 64.00 53.00 C 66.33 53.00 68.67 53.00 71.00 53.00 C 71.00 55.63 71.01 58.26 70.99 60.89 C 73.37 61.60 76.21 62.01 78.06 59.92 C 80.89 57.02 85.97 55.50 86.48 50.98 C 85.93 46.47 80.85 44.95 78.01 42.05 C 76.20 39.93 73.35 40.44 70.99 41.10 M 53.00 50.00 C 53.00 50.75 53.00 52.25 53.00 53.00 C 53.75 53.00 55.25 53.00 56.00 53.00 C 56.00 52.25 56.00 50.75 56.00 50.00 C 55.25 50.00 53.75 50.00 53.00 50.00 M 57.00 50.00 C 57.00 50.75 57.00 52.25 57.00 53.00 C 59.00 53.00 61.00 53.00 63.00 53.00 C 63.00 52.25 63.00 50.75 63.00 50.00 C 61.00 50.00 59.00 50.00 57.00 50.00 Z" />
<path fill="#000000" opacity="1.00" d=" M 33.01 51.00 C 36.00 48.66 39.02 46.35 42.00 44.01 C 42.00 48.66 42.01 53.31 41.99 57.96 C 38.99 55.65 36.00 53.33 33.01 51.00 Z" />
<path fill="#000000" opacity="1.00" d=" M 75.00 44.81 C 77.67 46.87 80.33 48.93 82.99 51.00 C 80.33 53.07 77.67 55.13 75.00 57.19 C 75.00 53.06 75.00 48.94 75.00 44.81 Z" />
</g>
<g id="#717271ff">
<path fill="#717271" opacity="1.00" d=" M 33.18 10.22 C 48.79 9.70 64.44 10.16 80.07 9.98 C 88.50 9.77 97.01 12.97 103.07 18.86 C 109.37 24.79 113.08 33.37 113.01 42.03 C 112.95 61.37 113.09 80.71 112.94 100.05 C 112.27 115.99 98.03 129.81 82.07 129.98 C 66.37 129.99 50.66 130.07 34.96 129.94 C 19.00 129.27 5.17 115.01 5.01 99.04 C 4.99 79.67 4.99 60.30 5.01 40.94 C 5.21 25.60 17.93 11.78 33.18 10.22 M 30.52 12.70 C 17.48 15.40 7.20 27.67 7.02 41.01 C 6.99 60.34 6.98 79.67 7.03 98.99 C 7.13 114.26 20.67 127.80 35.93 127.97 C 51.62 127.97 67.33 128.11 83.02 127.90 C 97.90 127.29 110.85 113.93 110.96 99.03 C 111.03 79.69 111.02 60.36 110.97 41.02 C 110.87 26.09 97.92 12.74 83.02 12.08 C 68.70 11.89 54.37 12.06 40.05 11.99 C 36.86 11.96 33.64 11.98 30.52 12.70 Z" />
</g>
<g id="#f8fcf8ff">
<path fill="#f8fcf8" opacity="1.00" d=" M 39.30 41.05 C 41.40 39.83 43.78 41.04 46.00 41.11 C 46.00 44.08 46.00 47.04 46.00 50.00 C 48.00 50.00 50.00 50.00 52.00 50.00 C 52.00 50.75 52.00 52.25 52.00 53.00 C 50.00 53.00 48.00 53.00 46.00 53.00 C 46.00 55.63 46.00 58.26 46.00 60.89 C 43.73 60.93 41.28 62.25 39.18 60.85 C 36.58 58.78 33.86 56.85 31.34 54.68 C 29.01 52.98 29.00 49.04 31.33 47.33 C 33.89 45.12 36.66 43.17 39.30 41.05 M 33.01 51.00 C 36.00 53.33 38.99 55.65 41.99 57.96 C 42.01 53.31 42.00 48.66 42.00 44.01 C 39.02 46.35 36.00 48.66 33.01 51.00 Z" />
<path fill="#f8fcf8" opacity="1.00" d=" M 70.99 41.10 C 73.35 40.44 76.20 39.93 78.01 42.05 C 80.85 44.95 85.93 46.47 86.48 50.98 C 85.97 55.50 80.89 57.02 78.06 59.92 C 76.21 62.01 73.37 61.60 70.99 60.89 C 71.01 58.26 71.00 55.63 71.00 53.00 C 68.67 53.00 66.33 53.00 64.00 53.00 C 64.00 52.25 64.00 50.75 64.00 50.00 C 66.33 50.00 68.67 50.00 71.00 50.00 C 71.00 47.03 71.01 44.07 70.99 41.10 M 75.00 44.81 C 75.00 48.94 75.00 53.06 75.00 57.19 C 77.67 55.13 80.33 53.07 82.99 51.00 C 80.33 48.93 77.67 46.87 75.00 44.81 Z" />
<path fill="#f8fcf8" opacity="1.00" d=" M 53.00 50.00 C 53.75 50.00 55.25 50.00 56.00 50.00 C 56.00 50.75 56.00 52.25 56.00 53.00 C 55.25 53.00 53.75 53.00 53.00 53.00 C 53.00 52.25 53.00 50.75 53.00 50.00 Z" />
<path fill="#f8fcf8" opacity="1.00" d=" M 57.00 50.00 C 59.00 50.00 61.00 50.00 63.00 50.00 C 63.00 50.75 63.00 52.25 63.00 53.00 C 61.00 53.00 59.00 53.00 57.00 53.00 C 57.00 52.25 57.00 50.75 57.00 50.00 Z" />
</g>
</svg>
