<?xml version="1.0" encoding="UTF-8" ?>
<!DOCTYPE svg PUBLIC "-//W3C//DTD SVG 1.1//EN" "http://www.w3.org/Graphics/SVG/1.1/DTD/svg11.dtd">
<svg width="117px" height="140px" viewBox="0 0 117 140" version="1.1" xmlns="http://www.w3.org/2000/svg">
<g id="#000000ff">
<path fill="#000000" opacity="1.00" d=" M 0.00 0.00 L 117.00 0.00 L 117.00 140.00 L 0.00 140.00 L 0.00 0.00 M 33.21 10.23 C 21.20 11.54 10.47 20.28 6.69 31.74 C 4.43 37.91 5.07 44.55 5.00 50.98 C 5.06 67.35 4.88 83.73 5.08 100.09 C 5.77 115.67 19.40 129.28 34.98 129.92 C 50.32 130.11 65.66 129.96 81.00 129.99 C 92.33 130.11 103.38 123.61 108.85 113.71 C 111.78 108.67 113.12 102.81 113.01 97.01 C 112.96 78.32 113.06 59.63 112.96 40.94 C 112.75 28.18 103.97 16.19 91.97 11.95 C 84.60 9.09 76.60 10.21 68.91 10.00 C 57.01 10.15 45.09 9.69 33.21 10.23 Z" />
<path fill="#000000" opacity="1.00" d=" M 33.25 12.34 C 48.49 11.72 63.76 12.25 79.01 12.06 C 85.35 11.88 91.83 13.27 97.15 16.83 C 105.62 22.13 111.03 31.99 110.91 41.99 C 110.95 60.67 110.95 79.35 110.91 98.02 C 111.03 108.49 105.10 118.78 95.96 123.89 C 91.18 126.77 85.55 127.98 80.00 127.93 C 65.67 127.92 51.34 127.96 37.01 127.91 C 26.28 128.02 15.75 121.81 10.75 112.31 C 8.08 107.67 6.98 102.29 7.07 96.98 C 7.07 78.99 7.07 61.01 7.07 43.02 C 6.28 28.07 18.32 13.83 33.25 12.34 M 39.00 33.03 C 38.86 41.45 38.95 49.88 38.94 58.30 C 38.30 58.39 37.02 58.58 36.38 58.68 C 36.49 62.69 40.91 64.61 43.23 67.40 C 46.21 65.92 48.54 63.46 50.65 60.95 C 50.97 59.43 50.33 57.93 48.52 58.39 C 48.79 49.99 48.43 41.59 48.75 33.20 C 45.52 32.67 42.25 32.80 39.00 33.03 M 68.28 33.20 C 68.65 41.57 68.30 49.95 68.51 58.33 C 66.71 58.02 66.40 59.50 66.07 60.85 C 68.52 63.15 70.56 66.04 73.76 67.37 C 76.02 64.53 80.64 62.67 80.60 58.61 C 79.98 58.54 78.74 58.41 78.12 58.34 C 78.08 49.90 78.28 41.45 78.00 33.01 C 74.76 32.81 71.49 32.67 68.28 33.20 M 33.07 71.10 C 33.04 73.62 32.37 76.31 33.28 78.73 C 36.14 80.16 39.48 79.32 42.55 79.48 C 42.48 80.09 42.36 81.29 42.29 81.89 C 42.98 81.93 44.35 82.01 45.03 82.05 C 45.04 81.41 45.04 80.14 45.04 79.50 C 54.01 79.52 62.99 79.52 71.96 79.50 C 71.96 80.14 71.96 81.40 71.97 82.04 C 72.65 82.01 74.01 81.94 74.69 81.91 C 74.64 81.30 74.52 80.09 74.46 79.49 C 77.50 79.29 80.82 80.18 83.67 78.77 C 84.68 76.37 83.94 73.63 83.93 71.10 C 66.98 70.94 50.02 70.94 33.07 71.10 Z" />
<path fill="#000000" opacity="1.00" d=" M 41.93 35.97 C 43.16 35.96 44.39 35.96 45.62 35.95 C 45.91 44.36 44.98 52.86 46.15 61.20 C 45.31 62.10 44.47 62.98 43.64 63.87 C 42.84 63.01 42.07 62.14 41.28 61.29 C 42.74 52.98 41.54 44.39 41.93 35.97 Z" />
<path fill="#000000" opacity="1.00" d=" M 71.45 35.95 C 72.68 35.96 73.90 35.96 75.13 35.96 C 75.47 44.39 74.43 52.95 75.71 61.29 C 74.91 62.15 74.10 63.00 73.29 63.85 C 72.49 62.99 71.68 62.14 70.89 61.29 C 72.12 52.92 71.13 44.39 71.45 35.95 Z" />
<path fill="#000000" opacity="1.00" d=" M 35.89 74.09 C 50.96 74.10 66.04 74.10 81.11 74.09 C 81.14 74.69 81.18 75.89 81.21 76.49 C 66.07 76.48 50.93 76.48 35.79 76.49 C 35.82 75.89 35.86 74.69 35.89 74.09 Z" />
</g>
<g id="#747474ff">
<path fill="#747474" opacity="1.00" d=" M 33.21 10.23 C 45.09 9.69 57.01 10.15 68.91 10.00 C 76.60 10.21 84.60 9.09 91.97 11.95 C 103.97 16.19 112.75 28.18 112.96 40.94 C 113.06 59.63 112.96 78.32 113.01 97.01 C 113.12 102.81 111.78 108.67 108.85 113.71 C 103.38 123.61 92.33 130.11 81.00 129.99 C 65.66 129.96 50.32 130.11 34.98 129.92 C 19.40 129.28 5.77 115.67 5.08 100.09 C 4.88 83.73 5.06 67.35 5.00 50.98 C 5.07 44.55 4.43 37.91 6.69 31.74 C 10.47 20.28 21.20 11.54 33.21 10.23 M 33.25 12.34 C 18.32 13.83 6.28 28.07 7.07 43.02 C 7.07 61.01 7.07 78.99 7.07 96.98 C 6.98 102.29 8.08 107.67 10.75 112.31 C 15.75 121.81 26.28 128.02 37.01 127.91 C 51.34 127.96 65.67 127.92 80.00 127.93 C 85.55 127.98 91.18 126.77 95.96 123.89 C 105.10 118.78 111.03 108.49 110.91 98.02 C 110.95 79.35 110.95 60.67 110.91 41.99 C 111.03 31.99 105.62 22.13 97.15 16.83 C 91.83 13.27 85.35 11.88 79.01 12.06 C 63.76 12.25 48.49 11.72 33.25 12.34 Z" />
</g>
<g id="#f8fcf8ff">
<path fill="#f8fcf8" opacity="1.00" d=" M 39.00 33.03 C 42.25 32.80 45.52 32.67 48.75 33.20 C 48.43 41.59 48.79 49.99 48.52 58.39 C 50.33 57.93 50.97 59.43 50.65 60.95 C 48.54 63.46 46.21 65.92 43.23 67.40 C 40.91 64.61 36.49 62.69 36.38 58.68 C 37.02 58.58 38.30 58.39 38.94 58.30 C 38.95 49.88 38.86 41.45 39.00 33.03 M 41.93 35.97 C 41.54 44.39 42.74 52.98 41.28 61.29 C 42.07 62.14 42.84 63.01 43.64 63.87 C 44.47 62.98 45.31 62.10 46.15 61.20 C 44.98 52.86 45.91 44.36 45.62 35.95 C 44.39 35.96 43.16 35.96 41.93 35.97 Z" />
<path fill="#f8fcf8" opacity="1.00" d=" M 68.28 33.20 C 71.49 32.67 74.76 32.81 78.00 33.01 C 78.28 41.45 78.08 49.90 78.12 58.34 C 78.74 58.41 79.98 58.54 80.60 58.61 C 80.64 62.67 76.02 64.53 73.76 67.37 C 70.56 66.04 68.52 63.15 66.07 60.85 C 66.40 59.50 66.71 58.02 68.51 58.33 C 68.30 49.95 68.65 41.57 68.28 33.20 M 71.45 35.95 C 71.13 44.39 72.12 52.92 70.89 61.29 C 71.68 62.14 72.49 62.99 73.29 63.85 C 74.10 63.00 74.91 62.15 75.71 61.29 C 74.43 52.95 75.47 44.39 75.13 35.96 C 73.90 35.96 72.68 35.96 71.45 35.95 Z" />
<path fill="#f8fcf8" opacity="1.00" d=" M 33.07 71.10 C 50.02 70.94 66.98 70.94 83.93 71.10 C 83.94 73.63 84.68 76.37 83.67 78.77 C 80.82 80.18 77.50 79.29 74.46 79.49 C 74.52 80.09 74.64 81.30 74.69 81.91 C 74.01 81.94 72.65 82.01 71.97 82.04 C 71.96 81.40 71.96 80.14 71.96 79.50 C 62.99 79.52 54.01 79.52 45.04 79.50 C 45.04 80.14 45.04 81.41 45.03 82.05 C 44.35 82.01 42.98 81.93 42.29 81.89 C 42.36 81.29 42.48 80.09 42.55 79.48 C 39.48 79.32 36.14 80.16 33.28 78.73 C 32.37 76.31 33.04 73.62 33.07 71.10 M 35.89 74.09 C 35.86 74.69 35.82 75.89 35.79 76.49 C 50.93 76.48 66.07 76.48 81.21 76.49 C 81.18 75.89 81.14 74.69 81.11 74.09 C 66.04 74.10 50.96 74.10 35.89 74.09 Z" />
</g>
</svg>
