<?xml version="1.0" encoding="UTF-8" ?>
<!DOCTYPE svg PUBLIC "-//W3C//DTD SVG 1.1//EN" "http://www.w3.org/Graphics/SVG/1.1/DTD/svg11.dtd">
<svg width="117px" height="140px" viewBox="0 0 117 140" version="1.1" xmlns="http://www.w3.org/2000/svg">
<g id="#000000ff">
<path fill="#000000" opacity="1.00" d=" M 0.00 0.00 L 117.00 0.00 L 117.00 140.00 L 0.00 140.00 L 0.00 0.00 M 33.12 10.21 C 17.90 11.80 5.18 25.61 5.01 40.95 C 5.02 60.63 4.95 80.32 5.04 100.01 C 5.70 115.62 19.33 129.28 34.95 129.95 C 50.97 130.04 66.99 130.04 83.01 129.95 C 98.61 129.31 112.27 115.68 112.95 100.09 C 113.08 80.71 112.95 61.33 113.01 41.95 C 113.08 33.34 109.37 24.81 103.12 18.89 C 97.03 12.96 88.48 9.72 80.00 9.98 C 64.37 10.16 48.73 9.71 33.12 10.21 Z" />
<path fill="#000000" opacity="1.00" d=" M 33.24 12.36 C 48.48 11.70 63.77 12.27 79.03 12.06 C 85.36 11.90 91.81 13.31 97.13 16.86 C 105.61 22.13 110.96 32.01 110.90 41.99 C 110.94 60.68 110.95 79.38 110.90 98.08 C 110.96 108.77 104.76 119.28 95.27 124.24 C 90.34 127.06 84.58 128.04 78.95 127.94 C 64.97 127.90 50.99 127.96 37.01 127.91 C 26.57 127.95 16.24 122.11 11.15 112.96 C 8.28 108.18 6.98 102.59 7.07 97.04 C 7.11 78.34 6.99 59.64 7.13 40.94 C 7.35 26.73 19.09 13.84 33.24 12.36 M 46.04 28.20 C 46.10 34.03 46.14 39.86 46.03 45.69 C 43.71 45.67 41.39 45.67 39.06 45.72 C 39.38 50.37 38.85 55.06 39.35 59.68 C 41.50 63.42 46.61 60.68 49.85 62.01 C 52.77 64.64 55.41 67.58 58.33 70.23 C 54.66 70.42 51.00 70.25 47.33 70.35 C 47.39 72.90 47.39 75.45 47.33 78.00 C 55.37 78.03 63.41 77.94 71.45 78.05 C 71.65 77.11 71.69 75.37 70.16 75.73 C 63.48 75.58 56.80 75.73 50.12 75.67 C 50.09 75.03 50.03 73.76 50.00 73.12 C 53.60 72.99 57.20 73.07 60.79 72.98 C 60.81 72.27 60.85 70.84 60.87 70.12 C 63.66 67.46 66.27 64.60 69.14 62.02 C 72.37 60.66 77.51 63.44 79.65 59.67 C 80.14 55.05 79.63 50.37 79.94 45.72 C 77.60 45.68 75.26 45.67 72.92 45.67 C 72.90 39.84 72.91 34.01 72.94 28.18 C 63.97 28.16 55.00 28.12 46.04 28.20 Z" />
<path fill="#000000" opacity="1.00" d=" M 48.77 31.04 C 55.92 31.01 63.07 31.07 70.23 30.96 C 70.23 36.73 70.36 42.50 70.13 48.27 C 72.40 48.32 74.67 48.33 76.94 48.34 C 76.94 51.86 76.91 55.39 76.97 58.91 C 65.32 59.02 53.67 59.00 42.03 58.91 C 42.10 55.38 42.03 51.84 42.09 48.31 C 48.80 48.32 55.51 48.33 62.22 48.32 C 62.22 47.66 62.22 46.34 62.22 45.68 C 57.72 45.68 53.23 45.66 48.73 45.70 C 48.74 43.89 48.77 42.08 48.81 40.27 C 53.28 40.37 57.75 40.31 62.22 40.32 C 62.22 39.66 62.22 38.34 62.22 37.68 C 57.71 37.66 53.21 37.72 48.70 37.64 C 48.74 35.44 48.76 33.24 48.77 31.04 Z" />
<path fill="#000000" opacity="1.00" d=" M 53.28 61.69 C 57.42 61.68 61.57 61.68 65.71 61.68 C 63.69 63.76 61.52 65.68 59.59 67.84 C 57.48 65.79 55.34 63.78 53.28 61.69 Z" />
</g>
<g id="#6e6f6eff">
<path fill="#6e6f6e" opacity="1.00" d=" M 33.12 10.21 C 48.73 9.71 64.37 10.16 80.00 9.98 C 88.48 9.72 97.03 12.96 103.12 18.89 C 109.37 24.81 113.08 33.34 113.01 41.95 C 112.95 61.33 113.08 80.71 112.95 100.09 C 112.27 115.68 98.61 129.31 83.01 129.95 C 66.99 130.04 50.97 130.04 34.95 129.95 C 19.33 129.28 5.70 115.62 5.04 100.01 C 4.95 80.32 5.02 60.63 5.01 40.95 C 5.18 25.61 17.90 11.80 33.12 10.21 M 33.24 12.36 C 19.09 13.84 7.35 26.73 7.13 40.94 C 6.99 59.64 7.11 78.34 7.07 97.04 C 6.98 102.59 8.28 108.18 11.15 112.96 C 16.24 122.11 26.57 127.95 37.01 127.91 C 50.99 127.96 64.97 127.90 78.95 127.94 C 84.58 128.04 90.34 127.06 95.27 124.24 C 104.76 119.28 110.96 108.77 110.90 98.08 C 110.95 79.38 110.94 60.68 110.90 41.99 C 110.96 32.01 105.61 22.13 97.13 16.86 C 91.81 13.31 85.36 11.90 79.03 12.06 C 63.77 12.27 48.48 11.70 33.24 12.36 Z" />
</g>
<g id="#f6faf6ff">
<path fill="#f6faf6" opacity="1.00" d=" M 46.04 28.20 C 55.00 28.12 63.97 28.16 72.94 28.18 C 72.91 34.01 72.90 39.84 72.92 45.67 C 75.26 45.67 77.60 45.68 79.94 45.72 C 79.63 50.37 80.14 55.05 79.65 59.67 C 77.51 63.44 72.37 60.66 69.14 62.02 C 66.27 64.60 63.66 67.46 60.87 70.12 C 60.85 70.84 60.81 72.27 60.79 72.98 C 57.20 73.07 53.60 72.99 50.00 73.12 C 50.03 73.76 50.09 75.03 50.12 75.67 C 56.80 75.73 63.48 75.58 70.16 75.73 C 71.69 75.37 71.65 77.11 71.45 78.05 C 63.41 77.94 55.37 78.03 47.33 78.00 C 47.39 75.45 47.39 72.90 47.33 70.35 C 51.00 70.25 54.66 70.42 58.33 70.23 C 55.41 67.58 52.77 64.64 49.85 62.01 C 46.61 60.68 41.50 63.42 39.35 59.68 C 38.85 55.06 39.38 50.37 39.06 45.72 C 41.39 45.67 43.71 45.67 46.03 45.69 C 46.14 39.86 46.10 34.03 46.04 28.20 M 48.77 31.04 C 48.76 33.24 48.74 35.44 48.70 37.64 C 53.21 37.72 57.71 37.66 62.22 37.68 C 62.22 38.34 62.22 39.66 62.22 40.32 C 57.75 40.31 53.28 40.37 48.81 40.27 C 48.77 42.08 48.74 43.89 48.73 45.70 C 53.23 45.66 57.72 45.68 62.22 45.68 C 62.22 46.34 62.22 47.66 62.22 48.32 C 55.51 48.33 48.80 48.32 42.09 48.31 C 42.03 51.84 42.10 55.38 42.03 58.91 C 53.67 59.00 65.32 59.02 76.97 58.91 C 76.91 55.39 76.94 51.86 76.94 48.34 C 74.67 48.33 72.40 48.32 70.13 48.27 C 70.36 42.50 70.23 36.73 70.23 30.96 C 63.07 31.07 55.92 31.01 48.77 31.04 M 53.28 61.69 C 55.34 63.78 57.48 65.79 59.59 67.84 C 61.52 65.68 63.69 63.76 65.71 61.68 C 61.57 61.68 57.42 61.68 53.28 61.69 Z" />
</g>
</svg>
