<?xml version="1.0" encoding="UTF-8" ?>
<!DOCTYPE svg PUBLIC "-//W3C//DTD SVG 1.1//EN" "http://www.w3.org/Graphics/SVG/1.1/DTD/svg11.dtd">
<svg width="117px" height="140px" viewBox="0 0 117 140" version="1.1" xmlns="http://www.w3.org/2000/svg">
<g id="#000000ff">
<path fill="#000000" opacity="1.00" d=" M 0.00 0.00 L 117.00 0.00 L 117.00 140.00 L 0.00 140.00 L 0.00 0.00 M 37.88 42.10 C 37.44 50.67 37.45 59.32 37.87 67.90 C 44.96 68.09 52.06 68.08 59.15 67.90 C 59.49 65.98 59.49 64.01 59.16 62.09 C 54.87 61.78 50.54 62.32 46.27 61.71 C 46.21 60.57 46.21 59.42 46.27 58.28 C 49.81 57.77 53.39 58.16 56.94 57.91 C 57.11 55.90 57.10 53.87 56.93 51.86 C 53.41 51.39 49.85 51.77 46.31 51.59 C 46.25 50.53 46.26 49.47 46.32 48.41 C 50.52 48.17 54.75 48.70 58.93 48.13 C 59.10 46.12 59.11 44.09 58.93 42.09 C 51.92 41.92 44.89 41.91 37.88 42.10 M 66.44 49.48 C 63.00 50.53 61.48 55.44 63.92 58.12 C 66.72 60.58 70.66 60.75 73.97 62.16 C 73.96 62.64 73.94 63.58 73.93 64.05 C 71.85 64.96 70.10 63.48 68.65 62.20 C 66.47 61.76 64.21 61.98 62.02 62.15 C 62.28 64.34 63.51 66.46 65.64 67.29 C 69.68 68.86 74.32 68.72 78.36 67.23 C 81.69 66.03 83.13 61.05 80.39 58.58 C 77.54 56.26 73.67 56.07 70.37 54.70 C 70.32 54.27 70.24 53.40 70.19 52.97 C 73.79 53.21 77.03 55.68 80.84 54.68 C 81.11 52.67 80.11 50.69 78.24 49.84 C 74.58 48.13 70.21 48.16 66.44 49.48 Z" />
</g>
<g id="#6a6d6aff">
<path fill="#ffffff" opacity="1.00" d=" M 33.15 10.22 C 48.75 9.69 64.39 10.17 80.01 9.98 C 89.65 9.69 99.33 13.96 105.49 21.41 C 110.57 27.37 113.24 35.23 113.02 43.04 C 112.92 62.06 113.13 81.08 112.92 100.10 C 112.28 116.05 97.98 129.85 82.03 129.97 C 66.64 130.03 51.25 130.01 35.87 129.98 C 19.59 129.79 5.16 115.37 5.02 99.09 C 4.98 79.71 4.98 60.33 5.02 40.96 C 5.17 25.62 17.91 11.78 33.15 10.22 M 33.18 12.26 C 19.00 13.81 7.16 26.74 7.04 41.04 C 6.98 60.37 6.97 79.71 7.04 99.05 C 7.17 113.93 20.10 127.24 34.94 127.91 C 47.29 128.12 59.64 127.94 71.99 128.00 C 78.63 127.90 85.56 128.62 91.84 125.97 C 103.10 121.69 111.22 110.13 110.98 98.02 C 110.99 79.00 111.05 59.98 110.95 40.96 C 110.85 25.72 97.29 12.20 82.06 12.05 C 65.77 12.09 49.45 11.71 33.18 12.26 Z" />
</g>
<g id="#f8fcf8ff">
<path fill="#f8fcf8" opacity="1.00" d=" M 37.88 42.10 C 44.89 41.91 51.92 41.92 58.93 42.09 C 59.11 44.09 59.10 46.12 58.93 48.13 C 54.75 48.70 50.52 48.17 46.32 48.41 C 46.26 49.47 46.25 50.53 46.31 51.59 C 49.85 51.77 53.41 51.39 56.93 51.86 C 57.10 53.87 57.11 55.90 56.94 57.91 C 53.39 58.16 49.81 57.77 46.27 58.28 C 46.21 59.42 46.21 60.57 46.27 61.71 C 50.54 62.32 54.87 61.78 59.16 62.09 C 59.49 64.01 59.49 65.98 59.15 67.90 C 52.06 68.08 44.96 68.09 37.87 67.90 C 37.45 59.32 37.44 50.67 37.88 42.10 Z" />
<path fill="#f8fcf8" opacity="1.00" d=" M 66.44 49.48 C 70.21 48.16 74.58 48.13 78.24 49.84 C 80.11 50.69 81.11 52.67 80.84 54.68 C 77.03 55.68 73.79 53.21 70.19 52.97 C 70.24 53.40 70.32 54.27 70.37 54.70 C 73.67 56.07 77.54 56.26 80.39 58.58 C 83.13 61.05 81.69 66.03 78.36 67.23 C 74.32 68.72 69.68 68.86 65.64 67.29 C 63.51 66.46 62.28 64.34 62.02 62.15 C 64.21 61.98 66.47 61.76 68.65 62.20 C 70.10 63.48 71.85 64.96 73.93 64.05 C 73.94 63.58 73.96 62.64 73.97 62.16 C 70.66 60.75 66.72 60.58 63.92 58.12 C 61.48 55.44 63.00 50.53 66.44 49.48 Z" />
</g>
</svg>
