<?xml version="1.0" encoding="UTF-8" ?>
<!DOCTYPE svg PUBLIC "-//W3C//DTD SVG 1.1//EN" "http://www.w3.org/Graphics/SVG/1.1/DTD/svg11.dtd">
<svg width="150px" height="80px" viewBox="0 0 150 80" version="1.1" xmlns="http://www.w3.org/2000/svg">
<g id="#000000ff">
<path fill="#000000" opacity="1.00" d=" M 0.00 0.00 L 150.00 0.00 L 150.00 80.00 L 0.00 80.00 L 0.00 0.00 M 6.33 5.46 C 3.32 6.64 0.87 9.59 1.04 12.94 C 0.97 30.98 0.98 49.02 1.04 67.06 C 0.88 71.25 4.75 75.12 8.94 74.96 C 51.96 75.06 94.99 74.96 138.01 75.01 C 143.05 75.97 149.20 72.74 148.95 67.06 C 149.05 49.02 149.01 30.97 148.97 12.93 C 149.17 8.29 144.54 4.51 140.06 5.00 C 97.03 5.00 54.00 5.01 10.96 4.99 C 9.42 5.08 7.80 4.88 6.33 5.46 Z" />
<path fill="#000000" opacity="1.00" d=" M 7.28 7.31 C 8.81 6.91 10.41 7.02 11.97 6.98 C 54.99 7.05 98.01 6.93 141.02 7.04 C 144.26 6.97 147.01 9.75 146.95 12.97 C 147.06 30.99 146.99 49.01 146.99 67.03 C 147.10 69.63 145.18 72.02 142.75 72.80 C 140.18 73.17 137.58 72.96 135.00 73.00 C 93.31 73.00 51.62 73.00 9.94 73.00 C 6.46 73.42 2.95 70.64 3.05 67.03 C 2.93 49.34 3.04 31.63 3.00 13.93 C 2.78 11.11 4.39 8.02 7.28 7.31 M 42.05 29.02 C 41.95 35.99 42.00 42.97 42.01 49.94 C 41.71 52.79 46.98 52.76 47.63 50.60 C 47.80 43.48 47.53 36.34 47.78 29.22 C 45.88 28.97 43.96 28.92 42.05 29.02 M 52.67 29.69 C 51.29 33.95 52.31 38.58 52.00 42.99 C 52.28 45.87 51.18 49.31 53.16 51.75 C 55.80 50.79 57.31 48.13 59.48 46.47 C 61.45 44.39 64.34 42.80 65.29 40.00 C 63.82 36.34 59.57 34.85 57.01 32.02 C 55.69 31.23 54.38 28.60 52.67 29.69 Z" />
</g>
<g id="#707470ff">
<path fill="#707470" opacity="1.00" d=" M 6.33 5.46 C 7.80 4.88 9.42 5.08 10.96 4.99 C 54.00 5.01 97.03 5.00 140.06 5.00 C 144.54 4.51 149.17 8.29 148.97 12.93 C 149.01 30.97 149.05 49.02 148.95 67.06 C 149.20 72.74 143.05 75.97 138.01 75.01 C 94.99 74.96 51.96 75.06 8.94 74.96 C 4.75 75.12 0.88 71.25 1.04 67.06 C 0.98 49.02 0.97 30.98 1.04 12.94 C 0.87 9.59 3.32 6.64 6.33 5.46 M 7.28 7.31 C 4.39 8.02 2.78 11.11 3.00 13.93 C 3.04 31.63 2.93 49.34 3.05 67.03 C 2.95 70.64 6.46 73.42 9.94 73.00 C 51.62 73.00 93.31 73.00 135.00 73.00 C 137.58 72.96 140.18 73.17 142.75 72.80 C 145.18 72.02 147.10 69.63 146.99 67.03 C 146.99 49.01 147.06 30.99 146.95 12.97 C 147.01 9.75 144.26 6.97 141.02 7.04 C 98.01 6.93 54.99 7.05 11.97 6.98 C 10.41 7.02 8.81 6.91 7.28 7.31 Z" />
</g>
<g id="#f8fcf8ff">
<path fill="#f8fcf8" opacity="1.00" d=" M 42.05 29.02 C 43.96 28.92 45.88 28.97 47.78 29.22 C 47.53 36.34 47.80 43.48 47.63 50.60 C 46.98 52.76 41.71 52.79 42.01 49.94 C 42.00 42.97 41.95 35.99 42.05 29.02 Z" />
<path fill="#f8fcf8" opacity="1.00" d=" M 52.67 29.69 C 54.38 28.60 55.69 31.23 57.01 32.02 C 59.57 34.85 63.82 36.34 65.29 40.00 C 64.34 42.80 61.45 44.39 59.48 46.47 C 57.31 48.13 55.80 50.79 53.16 51.75 C 51.18 49.31 52.28 45.87 52.00 42.99 C 52.31 38.58 51.29 33.95 52.67 29.69 Z" />
</g>
</svg>
