<?xml version="1.0" encoding="UTF-8" ?>
<!DOCTYPE svg PUBLIC "-//W3C//DTD SVG 1.1//EN" "http://www.w3.org/Graphics/SVG/1.1/DTD/svg11.dtd">
<svg width="117px" height="140px" viewBox="0 0 117 140" version="1.1" xmlns="http://www.w3.org/2000/svg">
<g id="#000000ff">
<path fill="#000000" opacity="1.00" d=" M 0.00 0.00 L 117.00 0.00 L 117.00 140.00 L 0.00 140.00 L 0.00 0.00 M 31.17 10.25 C 16.42 12.46 4.25 25.89 4.05 40.90 C 3.97 60.28 3.97 79.67 4.04 99.05 C 4.20 115.03 18.08 129.30 34.02 129.98 C 50.33 130.01 66.65 130.01 82.97 129.98 C 98.94 129.37 112.86 115.00 112.98 99.00 C 113.02 79.65 113.02 60.30 112.98 40.95 C 112.84 24.62 98.32 10.05 81.98 9.99 C 65.05 10.18 48.08 9.66 31.17 10.25 Z" />
<path fill="#000000" opacity="1.00" d=" M 33.26 12.41 C 48.47 11.64 63.74 12.28 78.98 12.07 C 89.54 11.83 100.19 17.19 105.59 26.39 C 108.70 31.31 110.12 37.15 110.00 42.94 C 109.98 61.31 110.03 79.67 109.98 98.04 C 110.06 106.37 106.35 114.60 100.18 120.17 C 94.48 125.39 86.76 127.96 79.09 127.93 C 65.39 127.94 51.68 127.93 37.98 127.93 C 31.46 127.92 24.89 126.15 19.59 122.28 C 11.80 116.87 7.01 107.44 7.09 97.97 C 7.08 78.97 7.01 59.97 7.13 40.97 C 7.29 26.74 19.08 13.82 33.26 12.41 M 59.14 27.17 C 54.99 30.93 51.21 35.08 47.19 38.98 C 48.07 39.83 48.96 40.68 49.85 41.52 C 51.19 41.48 52.52 41.45 53.85 41.41 C 53.84 43.32 53.83 45.23 53.82 47.14 C 51.99 47.14 50.17 47.14 48.34 47.13 C 48.21 44.67 47.54 42.28 45.91 40.37 C 41.67 44.41 37.54 48.57 33.48 52.79 C 37.76 56.64 41.56 60.97 45.84 64.81 C 46.62 63.89 47.41 62.98 48.20 62.07 C 48.16 60.75 48.13 59.44 48.09 58.13 C 50.02 58.14 51.95 58.14 53.87 58.13 C 53.86 60.05 53.86 61.98 53.87 63.91 C 52.56 63.87 51.25 63.83 49.94 63.80 C 49.03 64.59 48.11 65.38 47.19 66.17 C 51.04 70.44 55.36 74.26 59.23 78.52 C 63.44 74.50 67.55 70.38 71.59 66.18 C 69.79 64.39 67.35 63.82 64.90 63.66 C 64.89 61.84 64.89 60.01 64.89 58.19 C 66.77 58.17 68.64 58.15 70.51 58.12 C 70.50 59.50 70.50 60.88 70.54 62.25 C 71.37 63.10 72.20 63.95 73.02 64.81 C 77.09 60.83 81.06 56.76 85.12 52.78 C 82.09 49.18 78.56 46.06 75.32 42.65 C 74.47 42.04 73.46 40.27 72.27 41.29 C 70.38 42.54 70.58 45.17 70.31 47.16 C 68.62 47.14 66.93 47.22 65.26 46.95 C 64.69 45.24 64.94 43.40 64.85 41.64 C 67.27 41.49 70.64 41.42 71.17 38.43 C 66.97 34.93 63.65 30.08 59.14 27.17 Z" />
<path fill="#000000" opacity="1.00" d=" M 52.08 38.50 C 54.57 36.11 57.01 33.67 59.42 31.20 C 61.75 33.67 64.15 36.08 66.63 38.41 C 65.01 38.38 63.40 38.36 61.79 38.35 C 61.85 42.30 61.85 46.25 61.81 50.20 C 65.73 50.15 69.65 50.14 73.57 50.25 C 73.60 48.64 73.62 47.02 73.64 45.41 C 75.96 47.88 78.36 50.27 80.81 52.61 C 78.35 55.00 75.92 57.43 73.54 59.91 C 73.59 58.33 73.63 56.75 73.65 55.17 C 69.71 55.11 65.76 55.12 61.82 55.14 C 61.83 59.07 61.83 63.00 61.83 66.93 C 63.37 66.92 64.92 66.92 66.47 66.91 C 64.08 69.31 61.69 71.71 59.26 74.07 C 56.93 71.64 54.54 69.26 52.12 66.90 C 53.69 66.90 55.26 66.89 56.83 66.88 C 56.89 62.98 56.89 59.07 56.84 55.17 C 52.94 55.11 49.04 55.12 45.14 55.16 C 45.12 56.74 45.11 58.31 45.10 59.89 C 42.76 57.47 40.38 55.08 37.94 52.75 C 40.30 50.33 42.70 47.94 45.11 45.56 C 45.10 47.10 45.10 48.64 45.11 50.18 C 49.03 50.17 52.95 50.17 56.87 50.17 C 56.88 46.23 56.89 42.28 56.82 38.33 C 55.24 38.37 53.66 38.42 52.08 38.50 Z" />
</g>
<g id="#707470ff">
<path fill="#707470" opacity="1.00" d=" M 31.17 10.25 C 48.08 9.66 65.05 10.18 81.98 9.99 C 98.32 10.05 112.84 24.62 112.98 40.95 C 113.02 60.30 113.02 79.65 112.98 99.00 C 112.86 115.00 98.94 129.37 82.97 129.98 C 66.65 130.01 50.33 130.01 34.02 129.98 C 18.08 129.30 4.20 115.03 4.04 99.05 C 3.97 79.67 3.97 60.28 4.05 40.90 C 4.25 25.89 16.42 12.46 31.17 10.25 M 33.26 12.41 C 19.08 13.82 7.29 26.74 7.13 40.97 C 7.01 59.97 7.08 78.97 7.09 97.97 C 7.01 107.44 11.80 116.87 19.59 122.28 C 24.89 126.15 31.46 127.92 37.98 127.93 C 51.68 127.93 65.39 127.94 79.09 127.93 C 86.76 127.96 94.48 125.39 100.18 120.17 C 106.35 114.60 110.06 106.37 109.98 98.04 C 110.03 79.67 109.98 61.31 110.00 42.94 C 110.12 37.15 108.70 31.31 105.59 26.39 C 100.19 17.19 89.54 11.83 78.98 12.07 C 63.74 12.28 48.47 11.64 33.26 12.41 Z" />
</g>
<g id="#e86010ff">
<path fill="#e86010" opacity="1.00" d=" M 59.14 27.17 C 63.65 30.08 66.97 34.93 71.17 38.43 C 70.64 41.42 67.27 41.49 64.85 41.64 C 64.94 43.40 64.69 45.24 65.26 46.95 C 66.93 47.22 68.62 47.14 70.31 47.16 C 70.58 45.17 70.38 42.54 72.27 41.29 C 73.46 40.27 74.47 42.04 75.32 42.65 C 78.56 46.06 82.09 49.18 85.12 52.78 C 81.06 56.76 77.09 60.83 73.02 64.81 C 72.20 63.95 71.37 63.10 70.54 62.25 C 70.50 60.88 70.50 59.50 70.51 58.12 C 68.64 58.15 66.77 58.17 64.89 58.19 C 64.89 60.01 64.89 61.84 64.90 63.66 C 67.35 63.82 69.79 64.39 71.59 66.18 C 67.55 70.38 63.44 74.50 59.23 78.52 C 55.36 74.26 51.04 70.44 47.19 66.17 C 48.11 65.38 49.03 64.59 49.94 63.80 C 51.25 63.83 52.56 63.87 53.87 63.91 C 53.86 61.98 53.86 60.05 53.87 58.13 C 51.95 58.14 50.02 58.14 48.09 58.13 C 48.13 59.44 48.16 60.75 48.20 62.07 C 47.41 62.98 46.62 63.89 45.84 64.81 C 41.56 60.97 37.76 56.64 33.48 52.79 C 37.54 48.57 41.67 44.41 45.91 40.37 C 47.54 42.28 48.21 44.67 48.34 47.13 C 50.17 47.14 51.99 47.14 53.82 47.14 C 53.83 45.23 53.84 43.32 53.85 41.41 C 52.52 41.45 51.19 41.48 49.85 41.52 C 48.96 40.68 48.07 39.83 47.19 38.98 C 51.21 35.08 54.99 30.93 59.14 27.17 M 52.08 38.50 C 53.66 38.42 55.24 38.37 56.82 38.33 C 56.89 42.28 56.88 46.23 56.87 50.17 C 52.95 50.17 49.03 50.17 45.11 50.18 C 45.10 48.64 45.10 47.10 45.11 45.56 C 42.70 47.94 40.30 50.33 37.94 52.75 C 40.38 55.08 42.76 57.47 45.10 59.89 C 45.11 58.31 45.12 56.74 45.14 55.16 C 49.04 55.12 52.94 55.11 56.84 55.17 C 56.89 59.07 56.89 62.98 56.83 66.88 C 55.26 66.89 53.69 66.90 52.12 66.90 C 54.54 69.26 56.93 71.64 59.26 74.07 C 61.69 71.71 64.08 69.31 66.47 66.91 C 64.92 66.92 63.37 66.92 61.83 66.93 C 61.83 63.00 61.83 59.07 61.82 55.14 C 65.76 55.12 69.71 55.11 73.65 55.17 C 73.63 56.75 73.59 58.33 73.54 59.91 C 75.92 57.43 78.35 55.00 80.81 52.61 C 78.36 50.27 75.96 47.88 73.64 45.41 C 73.62 47.02 73.60 48.64 73.57 50.25 C 69.65 50.14 65.73 50.15 61.81 50.20 C 61.85 46.25 61.85 42.30 61.79 38.35 C 63.40 38.36 65.01 38.38 66.63 38.41 C 64.15 36.08 61.75 33.67 59.42 31.20 C 57.01 33.67 54.57 36.11 52.08 38.50 Z" />
</g>
</svg>
