<?xml version="1.0" encoding="UTF-8" ?>
<!DOCTYPE svg PUBLIC "-//W3C//DTD SVG 1.1//EN" "http://www.w3.org/Graphics/SVG/1.1/DTD/svg11.dtd">
<svg width="117px" height="140px" viewBox="0 0 117 140" version="1.1" xmlns="http://www.w3.org/2000/svg">
<g id="#000000ff">
<path fill="#000000" opacity="1.00" d=" M 0.00 0.00 L 117.00 0.00 L 117.00 140.00 L 0.00 140.00 L 0.00 0.00 M 47.00 39.88 C 47.83 40.75 48.71 41.57 49.65 42.32 C 52.07 38.19 56.32 35.76 59.65 32.45 C 63.20 35.50 67.07 38.26 69.91 42.03 C 70.73 41.71 71.55 41.36 72.35 40.99 C 72.65 38.74 69.95 38.20 68.76 36.83 C 68.25 34.31 68.61 31.70 68.45 29.15 C 67.14 29.08 65.82 29.04 64.51 29.01 C 64.45 30.07 64.35 32.20 64.30 33.26 C 62.63 32.09 61.46 28.91 59.28 29.08 C 55.37 32.89 51.17 36.37 47.00 39.88 M 50.47 41.81 C 50.52 44.33 50.51 46.85 50.53 49.37 C 52.89 49.37 55.26 49.48 57.63 49.30 C 57.94 47.40 58.08 45.49 58.24 43.58 C 59.36 43.60 60.48 43.62 61.61 43.65 C 61.61 45.55 61.62 47.46 61.63 49.37 C 63.90 49.39 66.17 49.39 68.44 49.35 C 68.53 46.83 68.50 44.31 68.53 41.80 C 65.65 39.17 62.72 36.59 59.81 33.99 C 56.62 36.50 53.61 39.24 50.47 41.81 M 33.83 52.98 C 37.43 56.02 41.01 59.08 44.65 62.07 C 43.84 59.37 42.95 56.70 42.15 53.99 C 44.10 53.81 46.06 53.49 48.02 53.78 C 57.63 53.91 67.27 53.42 76.85 53.98 C 76.04 56.68 75.16 59.36 74.35 62.06 C 77.99 59.07 81.59 56.03 85.17 52.98 C 81.58 49.96 77.99 46.92 74.35 43.97 C 75.16 46.66 76.04 49.33 76.87 52.01 C 72.60 52.66 68.30 51.90 64.00 52.31 C 56.71 51.94 49.39 52.63 42.13 52.01 C 42.95 49.32 43.83 46.65 44.65 43.95 C 41.01 46.93 37.42 49.96 33.83 52.98 M 49.04 56.87 C 51.49 60.74 54.61 64.13 57.05 68.00 C 57.46 70.51 57.15 73.10 57.32 75.63 C 58.15 75.58 59.80 75.47 60.62 75.42 C 61.43 73.00 61.13 70.42 61.12 67.93 C 63.69 64.26 66.51 60.77 69.19 57.18 C 68.12 57.20 65.99 57.22 64.92 57.23 C 62.76 59.68 61.07 62.50 59.13 65.12 C 57.21 62.33 55.29 59.54 53.20 56.87 C 51.81 56.88 50.42 56.88 49.04 56.87 Z" />
</g>
<g id="#6a6d6aff">
<path fill="#6a6d6a" opacity="1.00" d=" M 33.15 10.22 C 48.75 9.69 64.39 10.17 80.01 9.98 C 89.65 9.69 99.33 13.96 105.49 21.41 C 110.57 27.37 113.24 35.23 113.02 43.04 C 112.92 62.06 113.13 81.08 112.92 100.10 C 112.28 116.05 97.98 129.85 82.03 129.97 C 66.64 130.03 51.25 130.01 35.87 129.98 C 19.59 129.79 5.16 115.37 5.02 99.09 C 4.98 79.71 4.98 60.33 5.02 40.96 C 5.17 25.62 17.91 11.78 33.15 10.22 M 33.18 12.26 C 19.00 13.81 7.16 26.74 7.04 41.04 C 6.98 60.37 6.97 79.71 7.04 99.05 C 7.17 113.93 20.10 127.24 34.94 127.91 C 47.29 128.12 59.64 127.94 71.99 128.00 C 78.63 127.90 85.56 128.62 91.84 125.97 C 103.10 121.69 111.22 110.13 110.98 98.02 C 110.99 79.00 111.05 59.98 110.95 40.96 C 110.85 25.72 97.29 12.20 82.06 12.05 C 65.77 12.09 49.45 11.71 33.18 12.26 Z" />
</g>
<g id="#f8fcf8ff">
<path fill="#f8fcf8" opacity="1.00" d=" M 47.00 39.88 C 51.17 36.37 55.37 32.89 59.28 29.08 C 61.46 28.91 62.63 32.09 64.30 33.26 C 64.35 32.20 64.45 30.07 64.51 29.01 C 65.82 29.04 67.14 29.08 68.45 29.15 C 68.61 31.70 68.25 34.31 68.76 36.83 C 69.95 38.20 72.65 38.74 72.35 40.99 C 71.55 41.36 70.73 41.71 69.91 42.03 C 67.07 38.26 63.20 35.50 59.65 32.45 C 56.32 35.76 52.07 38.19 49.65 42.32 C 48.71 41.57 47.83 40.75 47.00 39.88 Z" />
<path fill="#f8fcf8" opacity="1.00" d=" M 50.47 41.81 C 53.61 39.24 56.62 36.50 59.81 33.99 C 62.72 36.59 65.65 39.17 68.53 41.80 C 68.50 44.31 68.53 46.83 68.44 49.35 C 66.17 49.39 63.90 49.39 61.63 49.37 C 61.62 47.46 61.61 45.55 61.61 43.65 C 60.48 43.62 59.36 43.60 58.24 43.58 C 58.08 45.49 57.94 47.40 57.63 49.30 C 55.26 49.48 52.89 49.37 50.53 49.37 C 50.51 46.85 50.52 44.33 50.47 41.81 Z" />
<path fill="#f8fcf8" opacity="1.00" d=" M 33.83 52.98 C 37.42 49.96 41.01 46.93 44.65 43.95 C 43.83 46.65 42.95 49.32 42.13 52.01 C 49.39 52.63 56.71 51.94 64.00 52.31 C 68.30 51.90 72.60 52.66 76.87 52.01 C 76.04 49.33 75.16 46.66 74.35 43.97 C 77.99 46.92 81.58 49.96 85.17 52.98 C 81.59 56.03 77.99 59.07 74.35 62.06 C 75.16 59.36 76.04 56.68 76.85 53.98 C 67.27 53.42 57.63 53.91 48.02 53.78 C 46.06 53.49 44.10 53.81 42.15 53.99 C 42.95 56.70 43.84 59.37 44.65 62.07 C 41.01 59.08 37.43 56.02 33.83 52.98 Z" />
<path fill="#f8fcf8" opacity="1.00" d=" M 49.04 56.87 C 50.42 56.88 51.81 56.88 53.20 56.87 C 55.29 59.54 57.21 62.33 59.13 65.12 C 61.07 62.50 62.76 59.68 64.92 57.23 C 65.99 57.22 68.12 57.20 69.19 57.18 C 66.51 60.77 63.69 64.26 61.12 67.93 C 61.13 70.42 61.43 73.00 60.62 75.42 C 59.80 75.47 58.15 75.58 57.32 75.63 C 57.15 73.10 57.46 70.51 57.05 68.00 C 54.61 64.13 51.49 60.74 49.04 56.87 Z" />
</g>
</svg>
