<?xml version="1.0" encoding="UTF-8" ?>
<!DOCTYPE svg PUBLIC "-//W3C//DTD SVG 1.1//EN" "http://www.w3.org/Graphics/SVG/1.1/DTD/svg11.dtd">
<svg width="117px" height="140px" viewBox="0 0 117 140" version="1.1" xmlns="http://www.w3.org/2000/svg">
<g id="#000000ff">
<path fill="#000000" opacity="1.00" d=" M 0.00 0.00 L 117.00 0.00 L 117.00 140.00 L 0.00 140.00 L 0.00 0.00 M 32.32 10.49 C 17.47 11.91 4.97 25.07 4.36 39.97 C 4.22 58.99 4.36 78.01 4.29 97.02 C 4.13 103.98 6.13 111.05 10.35 116.63 C 16.07 124.85 26.05 129.78 36.03 129.71 C 50.36 129.69 64.69 129.69 79.01 129.70 C 85.51 129.84 92.12 128.13 97.52 124.45 C 106.32 118.82 111.79 108.47 111.69 98.04 C 111.70 79.37 111.70 60.70 111.69 42.03 C 111.70 35.37 109.66 28.67 105.63 23.34 C 99.72 14.85 89.29 9.95 79.01 10.29 C 63.45 10.45 47.87 10.05 32.32 10.49 Z" />
<path fill="#000000" opacity="1.00" d=" M 32.04 11.89 C 48.36 11.42 64.72 11.85 81.05 11.68 C 96.13 11.91 109.55 24.98 110.30 40.03 C 110.33 59.71 110.27 79.38 110.33 99.06 C 110.07 112.32 99.94 124.57 87.01 127.49 C 83.43 128.57 79.66 128.32 75.97 128.31 C 61.94 128.28 47.91 128.34 33.88 128.29 C 18.89 127.45 5.90 114.07 5.67 99.04 C 5.73 79.34 5.67 59.64 5.70 39.94 C 6.49 25.93 18.13 13.62 32.04 11.89 M 43.56 29.53 C 43.45 33.15 43.44 36.77 43.50 40.39 C 53.14 40.65 62.80 40.55 72.45 40.45 C 72.58 36.79 72.58 33.14 72.38 29.49 C 62.78 29.49 53.17 29.41 43.56 29.53 M 38.05 33.15 C 35.06 35.52 32.07 38.89 32.45 42.99 C 32.54 48.78 32.28 54.59 32.69 60.38 C 41.12 60.73 49.55 60.04 57.99 60.25 C 66.43 60.03 74.87 60.72 83.31 60.38 C 83.72 54.59 83.46 48.79 83.55 42.99 C 83.90 37.93 79.64 34.07 75.70 31.62 C 75.39 31.73 74.76 31.95 74.44 32.06 C 74.20 35.72 74.40 39.40 74.44 43.06 C 63.48 43.07 52.52 43.07 41.56 43.06 C 41.59 39.39 41.80 35.72 41.56 32.05 C 40.23 31.04 39.11 32.44 38.05 33.15 M 42.48 60.90 C 42.60 65.55 42.16 70.23 42.69 74.85 C 44.77 77.67 48.97 76.17 51.98 76.54 C 58.86 76.00 66.11 77.59 72.75 75.69 C 74.49 71.11 73.09 65.77 73.52 60.90 C 63.18 60.62 52.82 60.62 42.48 60.90 Z" />
<path fill="#000000" opacity="1.00" d=" M 46.44 32.41 C 54.14 32.60 61.85 32.60 69.56 32.41 C 69.54 34.14 69.54 35.86 69.56 37.59 C 61.86 37.40 54.15 37.40 46.44 37.59 C 46.46 35.86 46.45 34.14 46.44 32.41 Z" />
<path fill="#000000" opacity="1.00" d=" M 35.63 41.93 C 35.59 39.67 37.41 38.06 38.51 36.26 C 38.38 39.25 38.36 42.24 38.40 45.23 C 39.84 45.80 41.33 46.34 42.91 46.26 C 52.29 46.27 61.66 46.25 71.04 46.26 C 73.27 46.30 75.50 46.03 77.60 45.25 C 77.63 42.26 77.61 39.26 77.49 36.26 C 78.60 38.07 80.43 39.70 80.37 41.98 C 80.45 47.09 80.24 52.21 80.48 57.33 C 72.65 57.36 64.81 57.53 57.01 56.86 C 49.87 57.60 42.69 57.31 35.52 57.33 C 35.76 52.20 35.55 47.06 35.63 41.93 M 41.03 56.31 C 50.33 56.68 59.65 56.14 68.97 56.47 C 71.72 56.26 75.01 57.15 77.30 55.17 C 78.05 52.29 77.53 49.27 77.25 46.36 C 71.24 47.50 65.12 47.08 59.05 47.14 C 52.28 46.89 45.41 47.80 38.72 46.38 C 38.85 49.57 36.47 55.45 41.03 56.31 Z" />
<path fill="#000000" opacity="1.00" d=" M 41.42 50.28 C 52.47 50.36 63.52 50.37 74.57 50.28 C 74.53 51.02 74.45 52.50 74.42 53.24 C 63.47 53.20 52.53 53.20 41.59 53.24 C 41.55 52.50 41.46 51.02 41.42 50.28 Z" />
<path fill="#000000" opacity="1.00" d=" M 45.41 63.41 C 53.80 63.60 62.20 63.60 70.59 63.41 C 70.42 66.80 70.42 70.20 70.59 73.59 C 62.20 73.39 53.80 73.40 45.41 73.59 C 45.58 70.20 45.58 66.80 45.41 63.41 M 46.99 67.04 C 46.99 67.52 46.99 68.48 46.99 68.96 C 52.51 69.92 58.48 69.90 64.00 68.97 C 64.01 68.48 64.01 67.51 64.01 67.02 C 61.12 66.04 58.01 66.59 55.02 66.45 C 52.35 66.57 49.55 66.08 46.99 67.04 Z" />
</g>
<g id="#d25e19ff">
<path fill="#d25e19" opacity="1.00" d=" M 32.32 10.49 C 47.87 10.05 63.45 10.45 79.01 10.29 C 89.29 9.95 99.72 14.85 105.63 23.34 C 109.66 28.67 111.70 35.37 111.69 42.03 C 111.70 60.70 111.70 79.37 111.69 98.04 C 111.79 108.47 106.32 118.82 97.52 124.45 C 92.12 128.13 85.51 129.84 79.01 129.70 C 64.69 129.69 50.36 129.69 36.03 129.71 C 26.05 129.78 16.07 124.85 10.35 116.63 C 6.13 111.05 4.13 103.98 4.29 97.02 C 4.36 78.01 4.22 58.99 4.36 39.97 C 4.97 25.07 17.47 11.91 32.32 10.49 M 32.04 11.89 C 18.13 13.62 6.49 25.93 5.70 39.94 C 5.67 59.64 5.73 79.34 5.67 99.04 C 5.90 114.07 18.89 127.45 33.88 128.29 C 47.91 128.34 61.94 128.28 75.97 128.31 C 79.66 128.32 83.43 128.57 87.01 127.49 C 99.94 124.57 110.07 112.32 110.33 99.06 C 110.27 79.38 110.33 59.71 110.30 40.03 C 109.55 24.98 96.13 11.91 81.05 11.68 C 64.72 11.85 48.36 11.42 32.04 11.89 Z" />
<path fill="#d25e19" opacity="1.00" d=" M 43.56 29.53 C 53.17 29.41 62.78 29.49 72.38 29.49 C 72.58 33.14 72.58 36.79 72.45 40.45 C 62.80 40.55 53.14 40.65 43.50 40.39 C 43.44 36.77 43.45 33.15 43.56 29.53 M 46.44 32.41 C 46.45 34.14 46.46 35.86 46.44 37.59 C 54.15 37.40 61.86 37.40 69.56 37.59 C 69.54 35.86 69.54 34.14 69.56 32.41 C 61.85 32.60 54.14 32.60 46.44 32.41 Z" />
<path fill="#d25e19" opacity="1.00" d=" M 38.05 33.15 C 39.11 32.44 40.23 31.04 41.56 32.05 C 41.80 35.72 41.59 39.39 41.56 43.06 C 52.52 43.07 63.48 43.07 74.44 43.06 C 74.40 39.40 74.20 35.72 74.44 32.06 C 74.76 31.95 75.39 31.73 75.70 31.62 C 79.64 34.07 83.90 37.93 83.55 42.99 C 83.46 48.79 83.72 54.59 83.31 60.38 C 74.87 60.72 66.43 60.03 57.99 60.25 C 49.55 60.04 41.12 60.73 32.69 60.38 C 32.28 54.59 32.54 48.78 32.45 42.99 C 32.07 38.89 35.06 35.52 38.05 33.15 M 35.63 41.93 C 35.55 47.06 35.76 52.20 35.52 57.33 C 42.69 57.31 49.87 57.60 57.01 56.86 C 64.81 57.53 72.65 57.36 80.48 57.33 C 80.24 52.21 80.45 47.09 80.37 41.98 C 80.43 39.70 78.60 38.07 77.49 36.26 C 77.61 39.26 77.63 42.26 77.60 45.25 C 75.50 46.03 73.27 46.30 71.04 46.26 C 61.66 46.25 52.29 46.27 42.91 46.26 C 41.33 46.34 39.84 45.80 38.40 45.23 C 38.36 42.24 38.38 39.25 38.51 36.26 C 37.41 38.06 35.59 39.67 35.63 41.93 Z" />
<path fill="#d25e19" opacity="1.00" d=" M 41.03 56.31 C 36.47 55.45 38.85 49.57 38.72 46.38 C 45.41 47.80 52.28 46.89 59.05 47.14 C 65.12 47.08 71.24 47.50 77.25 46.36 C 77.53 49.27 78.05 52.29 77.30 55.17 C 75.01 57.15 71.72 56.26 68.97 56.47 C 59.65 56.14 50.33 56.68 41.03 56.31 M 41.42 50.28 C 41.46 51.02 41.55 52.50 41.59 53.24 C 52.53 53.20 63.47 53.20 74.42 53.24 C 74.45 52.50 74.53 51.02 74.57 50.28 C 63.52 50.37 52.47 50.36 41.42 50.28 Z" />
<path fill="#d25e19" opacity="1.00" d=" M 42.48 60.90 C 52.82 60.62 63.18 60.62 73.52 60.90 C 73.09 65.77 74.49 71.11 72.75 75.69 C 66.11 77.59 58.86 76.00 51.98 76.54 C 48.97 76.17 44.77 77.67 42.69 74.85 C 42.16 70.23 42.60 65.55 42.48 60.90 M 45.41 63.41 C 45.58 66.80 45.58 70.20 45.41 73.59 C 53.80 73.40 62.20 73.39 70.59 73.59 C 70.42 70.20 70.42 66.80 70.59 63.41 C 62.20 63.60 53.80 63.60 45.41 63.41 Z" />
<path fill="#d25e19" opacity="1.00" d=" M 46.99 67.04 C 49.55 66.08 52.35 66.57 55.02 66.45 C 58.01 66.59 61.12 66.04 64.01 67.02 C 64.01 67.51 64.01 68.48 64.00 68.97 C 58.48 69.90 52.51 69.92 46.99 68.96 C 46.99 68.48 46.99 67.52 46.99 67.04 Z" />
</g>
</svg>
