<?xml version="1.0" encoding="UTF-8" ?>
<!DOCTYPE svg PUBLIC "-//W3C//DTD SVG 1.1//EN" "http://www.w3.org/Graphics/SVG/1.1/DTD/svg11.dtd">
<svg width="45px" height="45px" viewBox="0 0 45 45" version="1.1" xmlns="http://www.w3.org/2000/svg">
<g id="#181818ff">
<path fill="#181818" opacity="1.00" d=" M 0.00 0.00 L 45.00 0.00 L 45.00 45.00 L 0.00 45.00 L 0.00 0.00 M 21.33 4.33 C 20.09 9.01 20.91 14.23 20.94 19.10 C 20.95 21.01 23.24 21.10 24.33 20.00 C 24.79 15.35 24.67 10.66 24.63 6.00 C 24.97 4.16 22.60 3.05 21.33 4.33 M 10.37 7.47 C 10.36 8.82 10.36 10.17 10.36 11.51 C 11.42 11.53 12.48 11.54 13.54 11.56 C 13.53 10.27 13.53 8.97 13.50 7.68 C 12.46 7.60 11.41 7.53 10.37 7.47 M 31.42 9.68 C 32.52 11.91 33.81 14.03 35.07 16.17 C 35.82 15.48 36.59 14.82 37.38 14.19 C 36.75 13.98 35.49 13.55 34.86 13.34 C 33.84 12.01 32.77 10.70 31.42 9.68 M 23.23 31.20 C 22.19 32.57 24.35 34.71 25.37 32.95 C 26.46 31.58 24.21 29.40 23.23 31.20 Z" />
</g>
<g id="#f2a754ff">
<path fill="#ffffff" opacity="1.00" d=" M 21.33 4.33 C 22.60 3.05 24.97 4.16 24.63 6.00 C 24.67 10.66 24.79 15.35 24.33 20.00 C 23.24 21.10 20.95 21.01 20.94 19.10 C 20.91 14.23 20.09 9.01 21.33 4.33 Z" />
<path fill="#ffffff" opacity="1.00" d=" M 10.37 7.47 C 11.41 7.53 12.46 7.60 13.50 7.68 C 13.53 8.97 13.53 10.27 13.54 11.56 C 12.48 11.54 11.42 11.53 10.36 11.51 C 10.36 10.17 10.36 8.82 10.37 7.47 Z" />
<path fill="#ffffff" opacity="1.00" d=" M 31.42 9.68 C 32.77 10.70 33.84 12.01 34.86 13.34 C 35.49 13.55 36.75 13.98 37.38 14.19 C 36.59 14.82 35.82 15.48 35.07 16.17 C 33.81 14.03 32.52 11.91 31.42 9.68 Z" />
<path fill="#ffffff" opacity="1.00" d=" M 23.23 31.20 C 24.21 29.40 26.46 31.58 25.37 32.95 C 24.35 34.71 22.19 32.57 23.23 31.20 Z" />
</g>
</svg>
