<?xml version="1.0" encoding="UTF-8" ?>
<!DOCTYPE svg PUBLIC "-//W3C//DTD SVG 1.1//EN" "http://www.w3.org/Graphics/SVG/1.1/DTD/svg11.dtd">
<svg width="117px" height="140px" viewBox="0 0 117 140" version="1.1" xmlns="http://www.w3.org/2000/svg">
<g id="#000000ff">
<path fill="#000000" opacity="1.00" d=" M 0.00 0.00 L 117.00 0.00 L 117.00 140.00 L 0.00 140.00 L 0.00 0.00 M 33.15 10.22 C 17.92 11.80 5.21 25.61 5.02 40.94 C 4.99 60.30 4.99 79.66 5.01 99.02 C 5.16 114.98 18.96 129.24 34.90 129.93 C 50.60 130.08 66.32 129.99 82.02 129.98 C 97.99 129.84 112.28 116.00 112.94 100.05 C 113.09 80.68 112.95 61.31 113.00 41.95 C 113.05 33.32 109.34 24.77 103.07 18.86 C 96.98 12.94 88.43 9.75 79.96 9.98 C 64.36 10.17 48.73 9.69 33.15 10.22 Z" />
<path fill="#000000" opacity="1.00" d=" M 33.22 12.35 C 48.80 11.72 64.42 12.24 80.02 12.07 C 91.07 11.70 102.10 17.87 107.25 27.71 C 109.89 32.32 111.01 37.66 110.93 42.95 C 110.92 61.32 110.96 79.70 110.90 98.07 C 111.01 109.03 104.46 119.75 94.62 124.60 C 89.87 127.18 84.39 128.02 79.04 127.94 C 65.36 127.92 51.68 127.93 38.00 127.93 C 32.46 128.00 26.84 126.78 22.08 123.88 C 12.91 118.79 6.99 108.47 7.09 98.00 C 7.08 78.98 7.01 59.95 7.13 40.93 C 7.32 26.72 19.08 13.83 33.22 12.35 M 54.16 28.10 C 49.25 29.15 44.69 31.64 41.06 35.08 C 31.69 43.58 29.75 58.74 36.47 69.41 C 37.29 70.51 38.05 72.39 39.76 71.69 C 41.06 70.11 39.29 68.61 38.68 67.18 C 33.54 58.78 34.65 47.41 40.69 39.77 C 45.04 34.13 52.02 30.80 59.07 30.44 C 66.98 30.18 75.02 33.88 79.71 40.32 C 84.16 46.45 85.87 54.67 83.55 61.97 C 82.78 64.91 81.07 67.45 79.74 70.14 C 79.41 71.54 81.41 72.66 82.18 71.20 C 88.10 63.61 89.06 52.64 85.18 43.91 C 80.18 32.24 66.58 25.17 54.16 28.10 M 58.88 55.88 C 57.84 56.88 56.66 58.77 58.28 59.90 C 59.20 61.44 61.73 60.86 62.16 59.17 C 63.78 55.09 65.13 50.91 66.78 46.85 C 63.93 49.67 61.56 52.91 58.88 55.88 Z" />
</g>
<g id="#717271ff">
<path fill="#717271" opacity="1.00" d=" M 33.15 10.22 C 48.73 9.69 64.36 10.17 79.96 9.98 C 88.43 9.75 96.98 12.94 103.07 18.86 C 109.34 24.77 113.05 33.32 113.00 41.95 C 112.95 61.31 113.09 80.68 112.94 100.05 C 112.28 116.00 97.99 129.84 82.02 129.98 C 66.32 129.99 50.60 130.08 34.90 129.93 C 18.96 129.24 5.16 114.98 5.01 99.02 C 4.99 79.66 4.99 60.30 5.02 40.94 C 5.21 25.61 17.92 11.80 33.15 10.22 M 33.22 12.35 C 19.08 13.83 7.32 26.72 7.13 40.93 C 7.01 59.95 7.08 78.98 7.09 98.00 C 6.99 108.47 12.91 118.79 22.08 123.88 C 26.84 126.78 32.46 128.00 38.00 127.93 C 51.68 127.93 65.36 127.92 79.04 127.94 C 84.39 128.02 89.87 127.18 94.62 124.60 C 104.46 119.75 111.01 109.03 110.90 98.07 C 110.96 79.70 110.92 61.32 110.93 42.95 C 111.01 37.66 109.89 32.32 107.25 27.71 C 102.10 17.87 91.07 11.70 80.02 12.07 C 64.42 12.24 48.80 11.72 33.22 12.35 Z" />
</g>
<g id="#f7fbf7ff">
<path fill="#f7fbf7" opacity="1.00" d=" M 54.16 28.10 C 66.58 25.17 80.18 32.24 85.18 43.91 C 89.06 52.64 88.10 63.61 82.18 71.20 C 81.41 72.66 79.41 71.54 79.74 70.14 C 81.07 67.45 82.78 64.91 83.55 61.97 C 85.87 54.67 84.16 46.45 79.71 40.32 C 75.02 33.88 66.98 30.18 59.07 30.44 C 52.02 30.80 45.04 34.13 40.69 39.77 C 34.65 47.41 33.54 58.78 38.68 67.18 C 39.29 68.61 41.06 70.11 39.76 71.69 C 38.05 72.39 37.29 70.51 36.47 69.41 C 29.75 58.74 31.69 43.58 41.06 35.08 C 44.69 31.64 49.25 29.15 54.16 28.10 Z" />
<path fill="#f7fbf7" opacity="1.00" d=" M 58.88 55.88 C 61.56 52.91 63.93 49.67 66.78 46.85 C 65.13 50.91 63.78 55.09 62.16 59.17 C 61.73 60.86 59.20 61.44 58.28 59.90 C 56.66 58.77 57.84 56.88 58.88 55.88 Z" />
</g>
</svg>
