<?xml version="1.0" encoding="UTF-8" ?>
<!DOCTYPE svg PUBLIC "-//W3C//DTD SVG 1.1//EN" "http://www.w3.org/Graphics/SVG/1.1/DTD/svg11.dtd">
<svg width="117px" height="140px" viewBox="0 0 117 140" version="1.1" xmlns="http://www.w3.org/2000/svg">
<g id="#181818ff">
<path fill="#181818" opacity="1.00" d=" M 0.00 0.00 L 117.00 0.00 L 117.00 102.06 C 113.67 99.13 109.04 100.11 104.99 99.97 C 74.00 100.02 43.00 100.02 12.01 99.97 C 7.96 100.11 3.32 99.13 0.00 102.07 L 0.00 0.00 M 29.92 16.05 C 27.15 13.74 22.65 12.98 20.29 16.30 C 16.94 19.97 20.45 26.18 25.17 25.94 C 25.20 27.66 25.19 29.38 25.18 31.09 L 25.81 30.59 C 26.60 30.72 28.17 30.96 28.96 31.08 C 28.94 32.35 28.96 33.62 29.03 34.89 C 27.68 34.96 26.33 35.02 24.98 35.09 C 25.00 41.74 25.08 48.40 25.08 55.05 C 24.83 62.98 25.21 70.90 25.01 78.83 C 25.13 82.78 24.12 87.61 27.36 90.64 C 29.25 92.80 32.27 93.02 34.95 93.00 C 51.32 92.94 67.70 92.99 84.07 92.97 C 86.69 93.06 89.46 92.29 91.11 90.13 C 93.26 87.90 92.92 84.64 92.98 81.81 C 92.79 75.15 93.10 68.48 92.91 61.82 C 92.85 55.60 92.98 49.38 92.95 43.16 C 91.64 43.08 90.32 43.00 89.01 42.92 C 88.99 38.31 89.00 33.71 89.01 29.10 C 90.35 29.04 91.69 28.99 93.02 28.94 C 92.99 26.65 93.01 24.36 92.98 22.08 C 92.69 17.84 94.08 12.67 90.66 9.35 C 87.93 6.39 83.61 7.05 80.00 6.97 C 66.37 7.16 52.73 6.73 39.12 7.17 C 35.68 9.71 33.04 13.15 29.92 16.05 M 93.46 33.46 C 93.33 35.20 92.49 37.53 94.47 38.57 C 96.94 39.68 99.76 36.97 98.52 34.48 C 97.70 32.44 95.11 33.36 93.46 33.46 Z" />
<path fill="#181818" opacity="1.00" d=" M 39.33 12.36 C 40.73 10.74 43.02 11.07 44.93 10.96 C 57.65 11.05 70.36 10.97 83.07 11.00 C 85.07 11.05 87.86 11.10 88.57 13.43 C 89.35 16.24 89.05 19.19 89.04 22.07 C 89.02 22.75 88.99 24.12 88.97 24.81 C 87.64 24.92 86.30 25.03 84.97 25.15 C 84.99 32.36 84.98 39.57 85.04 46.78 C 86.36 46.91 87.69 47.04 89.01 47.18 C 89.09 52.07 89.16 56.97 89.09 61.87 C 88.93 68.57 89.16 75.26 89.14 81.95 C 88.93 83.94 89.07 86.16 87.85 87.87 C 85.89 89.27 83.32 88.93 81.05 89.08 C 66.01 88.98 50.97 89.03 35.93 89.06 C 33.86 88.85 31.04 89.28 29.74 87.27 C 28.69 84.62 29.06 81.68 28.92 78.90 C 28.90 70.60 29.07 62.29 28.97 53.99 C 28.90 49.05 28.96 44.12 29.01 39.18 C 30.34 39.06 31.67 38.94 33.00 38.82 C 33.02 34.89 33.04 30.96 32.94 27.03 C 32.19 27.09 30.69 27.20 29.94 27.26 C 29.60 26.75 28.91 25.72 28.57 25.20 C 29.47 23.56 30.35 21.90 31.36 20.32 C 33.91 17.57 36.59 14.92 39.33 12.36 M 43.20 13.98 C 41.39 15.04 42.12 17.26 41.96 18.97 C 42.15 24.57 41.71 30.20 42.16 35.79 C 42.86 37.95 46.22 37.16 45.94 34.93 C 46.09 28.64 46.02 22.34 45.98 16.04 C 46.15 14.55 44.54 13.55 43.20 13.98 M 51.20 13.99 C 50.93 14.29 50.38 14.88 50.10 15.18 C 49.87 21.76 49.96 28.37 50.07 34.96 C 49.82 37.07 53.11 37.81 53.81 35.79 C 54.27 29.54 53.90 23.25 54.02 16.98 C 54.38 15.28 53.07 13.36 51.20 13.99 M 59.23 14.05 C 58.96 14.33 58.42 14.91 58.15 15.19 C 57.83 21.76 57.95 28.36 58.11 34.94 C 57.70 37.57 62.26 37.57 61.87 34.92 C 62.08 28.64 62.08 22.34 61.93 16.06 C 62.10 14.55 60.56 13.64 59.23 14.05 M 67.24 14.08 C 66.97 14.36 66.45 14.93 66.18 15.21 C 65.82 21.76 66.03 28.36 66.17 34.92 C 65.62 37.54 70.24 37.52 69.82 34.91 C 70.01 28.64 70.04 22.35 69.89 16.07 C 70.10 14.54 68.55 13.71 67.24 14.08 M 75.25 14.09 C 74.99 14.37 74.48 14.94 74.22 15.22 C 73.90 21.77 74.08 28.35 74.21 34.91 C 73.67 37.49 78.24 37.50 77.78 34.91 C 77.95 28.63 77.98 22.34 77.86 16.07 C 78.07 14.59 76.51 13.79 75.25 14.09 M 36.38 58.37 C 35.53 62.88 36.18 67.51 36.06 72.06 C 36.00 74.99 35.75 77.95 36.17 80.86 C 36.46 82.65 38.22 83.97 40.01 83.89 C 47.67 84.24 55.34 83.89 63.00 83.74 C 68.54 83.65 74.14 84.59 79.63 83.62 C 83.77 80.99 81.49 75.12 81.94 71.06 C 81.86 66.83 82.44 62.54 81.62 58.37 C 80.52 55.76 77.38 55.99 75.04 55.96 C 64.01 56.03 52.97 55.98 41.93 55.98 C 39.86 55.93 37.30 56.16 36.38 58.37 Z" />
<path fill="#181818" opacity="1.00" d=" M 40.03 60.02 C 52.68 59.98 65.32 59.98 77.97 60.02 C 78.00 63.69 78.08 67.37 78.04 71.04 C 78.03 74.01 77.97 76.97 77.95 79.94 C 73.64 80.11 69.33 80.06 65.03 79.88 C 65.84 78.21 67.60 76.44 66.64 74.45 C 65.59 71.27 60.41 71.27 59.35 74.44 C 58.34 76.43 60.15 78.21 60.98 79.88 C 54.01 80.19 47.03 79.94 40.06 79.97 C 40.03 77.33 39.97 74.68 39.95 72.04 C 39.91 68.03 39.99 64.03 40.03 60.02 Z" />
<path fill="#181818" opacity="1.00" d=" M 0.00 138.37 C 1.42 138.03 1.97 138.57 1.65 140.00 L 0.00 140.00 L 0.00 138.37 Z" />
<path fill="#181818" opacity="1.00" d=" M 115.24 140.00 C 115.13 138.57 115.71 138.01 117.00 138.33 L 117.00 140.00 L 115.24 140.00 Z" />
</g>
<g id="#9364f7ff">
<path fill="#ffffff" opacity="1.00" d=" M 29.92 16.05 C 33.04 13.15 35.68 9.71 39.12 7.17 C 52.73 6.73 66.37 7.16 80.00 6.97 C 83.61 7.05 87.93 6.39 90.66 9.35 C 94.08 12.67 92.69 17.84 92.98 22.08 C 91.67 22.08 90.35 22.07 89.04 22.07 C 89.05 19.19 89.35 16.24 88.57 13.43 C 87.86 11.10 85.07 11.05 83.07 11.00 C 70.36 10.97 57.65 11.05 44.93 10.96 C 43.02 11.07 40.73 10.74 39.33 12.36 C 36.59 14.92 33.91 17.57 31.36 20.32 C 30.88 18.89 30.40 17.47 29.92 16.05 Z" />
<path fill="#ffffff" opacity="1.00" d=" M 59.35 74.44 C 60.41 71.27 65.59 71.27 66.64 74.45 C 67.60 76.44 65.84 78.21 65.03 79.88 C 63.68 79.82 62.33 79.81 60.98 79.88 C 60.15 78.21 58.34 76.43 59.35 74.44 Z" />
</g>
<g id="#54e194ff">
<path fill="#ffffff" opacity="1.00" d=" M 20.29 16.30 C 22.65 12.98 27.15 13.74 29.92 16.05 C 30.40 17.47 30.88 18.89 31.36 20.32 C 30.35 21.90 29.47 23.56 28.57 25.20 C 27.44 25.46 26.31 25.73 25.17 25.94 C 20.45 26.18 16.94 19.97 20.29 16.30 Z" />
</g>
<g id="#f8ae58ff">
<path fill="#ffffff" opacity="1.00" d=" M 43.20 13.98 C 44.54 13.55 46.15 14.55 45.98 16.04 C 46.02 22.34 46.09 28.64 45.94 34.93 C 46.22 37.16 42.86 37.95 42.16 35.79 C 41.71 30.20 42.15 24.57 41.96 18.97 C 42.12 17.26 41.39 15.04 43.20 13.98 Z" />
<path fill="#ffffff" opacity="1.00" d=" M 51.20 13.99 C 53.07 13.36 54.38 15.28 54.02 16.98 C 53.90 23.25 54.27 29.54 53.81 35.79 C 53.11 37.81 49.82 37.07 50.07 34.96 C 49.96 28.37 49.87 21.76 50.10 15.18 C 50.38 14.88 50.93 14.29 51.20 13.99 Z" />
<path fill="#ffffff" opacity="1.00" d=" M 59.23 14.05 C 60.56 13.64 62.10 14.55 61.93 16.06 C 62.08 22.34 62.08 28.64 61.87 34.92 C 62.26 37.57 57.70 37.57 58.11 34.94 C 57.95 28.36 57.83 21.76 58.15 15.19 C 58.42 14.91 58.96 14.33 59.23 14.05 Z" />
<path fill="#ffffff" opacity="1.00" d=" M 67.24 14.08 C 68.55 13.71 70.10 14.54 69.89 16.07 C 70.04 22.35 70.01 28.64 69.82 34.91 C 70.24 37.52 65.62 37.54 66.17 34.92 C 66.03 28.36 65.82 21.76 66.18 15.21 C 66.45 14.93 66.97 14.36 67.24 14.08 Z" />
<path fill="#ffffff" opacity="1.00" d=" M 75.25 14.09 C 76.51 13.79 78.07 14.59 77.86 16.07 C 77.98 22.34 77.95 28.63 77.78 34.91 C 78.24 37.50 73.67 37.49 74.21 34.91 C 74.08 28.35 73.90 21.77 74.22 15.22 C 74.48 14.94 74.99 14.37 75.25 14.09 Z" />
<path fill="#ffffff" opacity="1.00" d=" M 93.46 33.46 C 95.11 33.36 97.70 32.44 98.52 34.48 C 99.76 36.97 96.94 39.68 94.47 38.57 C 92.49 37.53 93.33 35.20 93.46 33.46 Z" />
</g>
<g id="#6a53e6ff">
<path fill="#ffffff" opacity="1.00" d=" M 89.04 22.07 C 90.35 22.07 91.67 22.08 92.98 22.08 C 93.01 24.36 92.99 26.65 93.02 28.94 C 91.69 28.99 90.35 29.04 89.01 29.10 C 89.00 33.71 88.99 38.31 89.01 42.92 C 90.32 43.00 91.64 43.08 92.95 43.16 C 92.98 49.38 92.85 55.60 92.91 61.82 C 91.63 61.84 90.36 61.85 89.09 61.87 C 89.16 56.97 89.09 52.07 89.01 47.18 C 87.69 47.04 86.36 46.91 85.04 46.78 C 84.98 39.57 84.99 32.36 84.97 25.15 C 86.30 25.03 87.64 24.92 88.97 24.81 C 88.99 24.12 89.02 22.75 89.04 22.07 Z" />
<path fill="#ffffff" opacity="1.00" d=" M 29.94 27.26 C 30.69 27.20 32.19 27.09 32.94 27.03 C 33.04 30.96 33.02 34.89 33.00 38.82 C 31.67 38.94 30.34 39.06 29.01 39.18 C 28.96 44.12 28.90 49.05 28.97 53.99 C 27.67 54.34 26.38 54.70 25.08 55.05 C 25.08 48.40 25.00 41.74 24.98 35.09 C 26.33 35.02 27.68 34.96 29.03 34.89 C 28.96 33.62 28.94 32.35 28.96 31.08 C 28.17 30.96 26.60 30.72 25.81 30.59 C 27.19 29.49 28.58 28.39 29.94 27.26 Z" />
</g>
<g id="#2038cbff">
<path fill="#ffffff" opacity="1.00" d=" M 25.17 25.94 C 26.31 25.73 27.44 25.46 28.57 25.20 C 28.91 25.72 29.60 26.75 29.94 27.26 C 28.58 28.39 27.19 29.49 25.81 30.59 L 25.18 31.09 C 25.19 29.38 25.20 27.66 25.17 25.94 Z" />
<path fill="#ffffff" opacity="1.00" d=" M 78.04 71.04 C 79.34 71.05 80.64 71.05 81.94 71.06 C 81.49 75.12 83.77 80.99 79.63 83.62 C 74.14 84.59 68.54 83.65 63.00 83.74 C 55.34 83.89 47.67 84.24 40.01 83.89 C 38.22 83.97 36.46 82.65 36.17 80.86 C 35.75 77.95 36.00 74.99 36.06 72.06 C 37.36 72.05 38.66 72.05 39.95 72.04 C 39.97 74.68 40.03 77.33 40.06 79.97 C 47.03 79.94 54.01 80.19 60.98 79.88 C 62.33 79.81 63.68 79.82 65.03 79.88 C 69.33 80.06 73.64 80.11 77.95 79.94 C 77.97 76.97 78.03 74.01 78.04 71.04 Z" />
<path fill="#ffffff" opacity="1.00" d=" M 25.01 78.83 C 25.51 78.62 26.51 78.22 27.01 78.01 C 27.49 78.23 28.44 78.68 28.92 78.90 C 29.06 81.68 28.69 84.62 29.74 87.27 C 31.04 89.28 33.86 88.85 35.93 89.06 C 50.97 89.03 66.01 88.98 81.05 89.08 C 83.32 88.93 85.89 89.27 87.85 87.87 C 89.07 86.16 88.93 83.94 89.14 81.95 C 90.42 81.90 91.70 81.86 92.98 81.81 C 92.92 84.64 93.26 87.90 91.11 90.13 C 89.46 92.29 86.69 93.06 84.07 92.97 C 67.70 92.99 51.32 92.94 34.95 93.00 C 32.27 93.02 29.25 92.80 27.36 90.64 C 24.12 87.61 25.13 82.78 25.01 78.83 Z" />
</g>
<g id="#4647d8ff">
<path fill="#ffffff" opacity="1.00" d=" M 25.08 55.05 C 26.38 54.70 27.67 54.34 28.97 53.99 C 29.07 62.29 28.90 70.60 28.92 78.90 C 28.44 78.68 27.49 78.23 27.01 78.01 C 26.51 78.22 25.51 78.62 25.01 78.83 C 25.21 70.90 24.83 62.98 25.08 55.05 Z" />
<path fill="#ffffff" opacity="1.00" d=" M 36.38 58.37 C 37.30 56.16 39.86 55.93 41.93 55.98 C 52.97 55.98 64.01 56.03 75.04 55.96 C 77.38 55.99 80.52 55.76 81.62 58.37 C 82.44 62.54 81.86 66.83 81.94 71.06 C 80.64 71.05 79.34 71.05 78.04 71.04 C 78.08 67.37 78.00 63.69 77.97 60.02 C 65.32 59.98 52.68 59.98 40.03 60.02 C 39.99 64.03 39.91 68.03 39.95 72.04 C 38.66 72.05 37.36 72.05 36.06 72.06 C 36.18 67.51 35.53 62.88 36.38 58.37 Z" />
<path fill="#ffffff" opacity="1.00" d=" M 89.09 61.87 C 90.36 61.85 91.63 61.84 92.91 61.82 C 93.10 68.48 92.79 75.15 92.98 81.81 C 91.70 81.86 90.42 81.90 89.14 81.95 C 89.16 75.26 88.93 68.57 89.09 61.87 Z" />
</g>
<g id="#4854f8ff">
<path fill="#ffffff" opacity="1.00" d=" M 0.00 102.07 C 3.32 99.13 7.96 100.11 12.01 99.97 C 43.00 100.02 74.00 100.02 104.99 99.97 C 109.04 100.11 113.67 99.13 117.00 102.06 L 117.00 138.33 C 115.71 138.01 115.13 138.57 115.24 140.00 L 1.65 140.00 C 1.97 138.57 1.42 138.03 0.00 138.37 L 0.00 102.07 Z" />
</g>
</svg>
