<?xml version="1.0" encoding="UTF-8" ?>
<!DOCTYPE svg PUBLIC "-//W3C//DTD SVG 1.1//EN" "http://www.w3.org/Graphics/SVG/1.1/DTD/svg11.dtd">
<svg width="117px" height="140px" viewBox="0 0 117 140" version="1.1" xmlns="http://www.w3.org/2000/svg">
<g id="#181818ff">
<path fill="#181818" opacity="1.00" d=" M 0.00 0.00 L 117.00 0.00 L 117.00 140.00 L 0.00 140.00 L 0.00 0.00 M 23.99 16.88 C 20.56 18.69 20.01 23.74 22.90 26.32 C 24.24 27.43 25.84 28.09 27.60 28.08 C 27.31 31.05 26.90 34.02 26.99 37.01 C 27.05 38.35 26.66 40.11 28.16 40.82 C 30.34 41.54 33.52 40.94 33.13 38.00 C 39.41 38.01 45.70 37.98 51.99 38.01 C 52.08 39.95 51.85 41.91 52.16 43.83 C 52.85 45.33 54.54 44.81 55.84 44.98 C 55.88 46.40 56.62 47.13 58.05 47.16 C 58.11 48.65 58.06 50.14 58.04 51.63 C 58.03 52.47 57.99 54.15 57.97 54.99 C 50.61 55.02 43.26 54.98 35.90 55.01 C 34.32 54.87 33.06 56.14 32.25 57.34 C 30.33 60.26 28.39 63.17 26.51 66.11 C 25.03 68.19 23.66 70.35 22.28 72.51 C 20.64 74.95 18.84 77.32 17.55 79.97 C 16.82 82.64 19.26 85.25 21.95 84.95 C 46.66 84.94 71.36 84.94 96.07 84.95 C 98.77 85.37 101.16 82.57 100.39 79.97 C 99.42 77.72 97.91 75.75 96.53 73.75 C 94.90 71.19 93.25 68.63 91.51 66.15 C 88.62 62.55 87.11 57.38 82.96 55.06 C 75.32 54.90 67.67 55.06 60.03 54.99 C 60.01 54.19 59.97 52.60 59.96 51.80 C 59.94 50.25 59.89 48.71 59.95 47.16 C 61.37 47.13 62.10 46.41 62.15 45.00 C 63.45 44.84 65.06 45.27 65.84 43.89 C 66.09 41.94 65.95 39.97 66.02 38.01 C 71.63 37.98 77.25 38.00 82.87 38.00 C 82.32 41.37 87.24 42.07 88.85 39.86 C 89.13 37.97 88.99 36.05 88.97 34.15 C 88.92 31.48 89.17 28.79 88.86 26.13 C 87.91 24.46 85.68 24.98 84.12 25.16 C 82.34 26.13 83.23 28.39 82.97 30.00 C 77.32 30.03 71.67 30.03 66.03 30.00 C 65.77 28.39 66.65 26.14 64.89 25.16 C 61.26 24.81 57.57 25.07 53.92 25.02 C 51.33 25.13 52.12 28.29 51.98 30.00 C 45.62 30.09 39.26 29.89 32.91 30.12 C 32.79 28.59 32.83 27.04 32.53 25.52 L 31.59 26.05 C 33.33 23.61 33.53 20.13 31.35 17.89 C 29.44 16.04 26.28 15.22 23.99 16.88 M 94.35 40.45 C 92.10 41.68 92.74 45.22 95.15 45.80 C 97.30 46.46 99.51 44.22 98.76 42.09 C 98.38 40.24 95.81 39.23 94.35 40.45 M 61.33 87.33 C 59.10 88.20 58.11 91.39 59.78 93.24 C 61.59 96.17 66.76 94.69 66.74 91.28 C 67.38 88.43 63.80 85.92 61.33 87.33 Z" />
<path fill="#181818" opacity="1.00" d=" M 33.02 35.98 C 32.98 34.62 33.00 33.26 32.98 31.91 C 39.30 32.08 45.63 31.92 51.95 32.01 C 51.97 32.48 52.02 33.43 52.04 33.90 C 52.02 34.42 51.97 35.47 51.95 35.99 C 45.64 36.00 39.33 36.02 33.02 35.98 Z" />
<path fill="#181818" opacity="1.00" d=" M 66.05 32.01 C 71.68 31.97 77.32 31.97 82.95 32.01 C 82.98 32.53 83.03 33.58 83.06 34.10 C 83.03 34.58 82.97 35.52 82.93 35.99 C 77.31 36.01 71.69 36.00 66.07 35.99 C 66.04 35.47 65.96 34.44 65.93 33.92 C 65.96 33.44 66.02 32.49 66.05 32.01 Z" />
<path fill="#181818" opacity="1.00" d=" M 57.03 61.80 C 58.36 61.80 59.70 61.79 61.03 61.78 C 61.61 63.19 61.35 64.43 60.25 65.50 C 61.51 65.52 62.77 65.62 63.99 65.99 C 63.10 67.25 61.80 68.05 60.54 68.89 C 59.87 71.24 62.00 72.21 63.86 72.68 C 64.09 73.11 64.54 73.97 64.76 74.40 C 65.41 74.48 66.72 74.64 67.38 74.71 C 68.13 75.92 68.70 77.35 68.25 78.79 C 62.20 79.13 56.07 79.14 50.01 78.80 L 49.47 78.06 C 49.64 76.82 50.04 75.65 50.66 74.57 C 51.32 74.55 52.62 74.52 53.27 74.50 C 53.48 74.05 53.89 73.14 54.10 72.68 C 55.36 72.07 57.64 71.96 57.47 70.01 C 57.80 67.96 55.18 67.75 53.96 66.84 C 55.00 65.78 56.18 65.10 57.70 65.64 C 57.09 64.47 55.98 63.13 57.03 61.80 Z" />
</g>
<g id="#f8a898ff">
<path fill="#ffffff" opacity="1.00" d=" M 23.99 16.88 C 26.28 15.22 29.44 16.04 31.35 17.89 C 28.58 20.74 25.76 23.55 22.90 26.32 C 20.01 23.74 20.56 18.69 23.99 16.88 Z" />
</g>
<g id="#f88888ff">
<path fill="#ffffff" opacity="1.00" d=" M 31.35 17.89 C 33.53 20.13 33.33 23.61 31.59 26.05 C 30.39 26.97 29.07 27.71 27.60 28.08 C 25.84 28.09 24.24 27.43 22.90 26.32 C 25.76 23.55 28.58 20.74 31.35 17.89 Z" />
</g>
<g id="#9060f0ff">
<path fill="#ffffff" opacity="1.00" d=" M 51.98 30.00 C 52.12 28.29 51.33 25.13 53.92 25.02 C 57.57 25.07 61.26 24.81 64.89 25.16 C 66.65 26.14 65.77 28.39 66.03 30.00 C 71.67 30.03 77.32 30.03 82.97 30.00 C 83.23 28.39 82.34 26.13 84.12 25.16 C 85.68 24.98 87.91 24.46 88.86 26.13 C 89.17 28.79 88.92 31.48 88.97 34.15 C 87.00 34.14 85.03 34.13 83.06 34.10 C 83.03 33.58 82.98 32.53 82.95 32.01 C 77.32 31.97 71.68 31.97 66.05 32.01 C 66.02 32.49 65.96 33.44 65.93 33.92 C 61.30 33.67 56.67 33.72 52.04 33.90 C 52.02 33.43 51.97 32.48 51.95 32.01 C 45.63 31.92 39.30 32.08 32.98 31.91 C 32.97 31.46 32.93 30.57 32.91 30.12 C 39.26 29.89 45.62 30.09 51.98 30.00 Z" />
</g>
<g id="#7858e8ff">
<path fill="#ffffff" opacity="1.00" d=" M 27.60 28.08 C 29.07 27.71 30.39 26.97 31.59 26.05 L 32.53 25.52 C 32.83 27.04 32.79 28.59 32.91 30.12 C 32.93 30.57 32.97 31.46 32.98 31.91 C 33.00 33.26 32.98 34.62 33.02 35.98 C 39.33 36.02 45.64 36.00 51.95 35.99 C 51.97 35.47 52.02 34.42 52.04 33.90 C 56.67 33.72 61.30 33.67 65.93 33.92 C 65.96 34.44 66.04 35.47 66.07 35.99 C 71.69 36.00 77.31 36.01 82.93 35.99 C 82.97 35.52 83.03 34.58 83.06 34.10 C 85.03 34.13 87.00 34.14 88.97 34.15 C 88.99 36.05 89.13 37.97 88.85 39.86 C 87.24 42.07 82.32 41.37 82.87 38.00 C 77.25 38.00 71.63 37.98 66.02 38.01 C 65.95 39.97 66.09 41.94 65.84 43.89 C 65.06 45.27 63.45 44.84 62.15 45.00 C 62.10 46.41 61.37 47.13 59.95 47.16 C 59.89 48.71 59.94 50.25 59.96 51.80 C 59.48 51.76 58.52 51.67 58.04 51.63 C 58.06 50.14 58.11 48.65 58.05 47.16 C 56.62 47.13 55.88 46.40 55.84 44.98 C 54.54 44.81 52.85 45.33 52.16 43.83 C 51.85 41.91 52.08 39.95 51.99 38.01 C 45.70 37.98 39.41 38.01 33.13 38.00 C 33.52 40.94 30.34 41.54 28.16 40.82 C 26.66 40.11 27.05 38.35 26.99 37.01 C 26.90 34.02 27.31 31.05 27.60 28.08 Z" />
</g>
<g id="#98e010ff">
<path fill="#ffffff" opacity="1.00" d=" M 94.35 40.45 C 95.81 39.23 98.38 40.24 98.76 42.09 C 99.51 44.22 97.30 46.46 95.15 45.80 C 92.74 45.22 92.10 41.68 94.35 40.45 Z" />
</g>
<g id="#4848d8ff">
<path fill="#ffffff" opacity="1.00" d=" M 58.04 51.63 C 58.52 51.67 59.48 51.76 59.96 51.80 C 59.97 52.60 60.01 54.19 60.03 54.99 C 67.67 55.06 75.32 54.90 82.96 55.06 C 87.11 57.38 88.62 62.55 91.51 66.15 C 86.46 66.88 81.36 66.41 76.29 66.50 C 72.19 66.50 68.04 66.85 63.99 65.99 C 62.77 65.62 61.51 65.52 60.25 65.50 C 61.35 64.43 61.61 63.19 61.03 61.78 C 59.70 61.79 58.36 61.80 57.03 61.80 C 55.98 63.13 57.09 64.47 57.70 65.64 C 56.18 65.10 55.00 65.78 53.96 66.84 C 44.83 65.70 35.62 67.67 26.51 66.11 C 28.39 63.17 30.33 60.26 32.25 57.34 C 33.06 56.14 34.32 54.87 35.90 55.01 C 43.26 54.98 50.61 55.02 57.97 54.99 C 57.99 54.15 58.03 52.47 58.04 51.63 Z" />
</g>
<g id="#3040d0ff">
<path fill="#ffffff" opacity="1.00" d=" M 22.28 72.51 C 23.66 70.35 25.03 68.19 26.51 66.11 C 35.62 67.67 44.83 65.70 53.96 66.84 C 55.18 67.75 57.80 67.96 57.47 70.01 C 57.64 71.96 55.36 72.07 54.10 72.68 C 53.89 73.14 53.48 74.05 53.27 74.50 C 52.62 74.52 51.32 74.55 50.66 74.57 C 41.28 72.91 31.41 75.75 22.28 72.51 Z" />
<path fill="#ffffff" opacity="1.00" d=" M 63.99 65.99 C 68.04 66.85 72.19 66.50 76.29 66.50 C 81.36 66.41 86.46 66.88 91.51 66.15 C 93.25 68.63 94.90 71.19 96.53 73.75 C 86.52 72.84 76.50 75.22 66.56 73.20 C 66.77 73.58 67.17 74.33 67.38 74.71 C 66.72 74.64 65.41 74.48 64.76 74.40 C 64.54 73.97 64.09 73.11 63.86 72.68 C 62.00 72.21 59.87 71.24 60.54 68.89 C 61.80 68.05 63.10 67.25 63.99 65.99 Z" />
</g>
<g id="#2038c8ff">
<path fill="#ffffff" opacity="1.00" d=" M 17.55 79.97 C 18.84 77.32 20.64 74.95 22.28 72.51 C 31.41 75.75 41.28 72.91 50.66 74.57 C 50.04 75.65 49.64 76.82 49.47 78.06 L 50.01 78.80 C 56.07 79.14 62.20 79.13 68.25 78.79 C 68.70 77.35 68.13 75.92 67.38 74.71 C 67.17 74.33 66.77 73.58 66.56 73.20 C 76.50 75.22 86.52 72.84 96.53 73.75 C 97.91 75.75 99.42 77.72 100.39 79.97 C 101.16 82.57 98.77 85.37 96.07 84.95 C 71.36 84.94 46.66 84.94 21.95 84.95 C 19.26 85.25 16.82 82.64 17.55 79.97 Z" />
</g>
<g id="#40b8c8ff">
<path fill="#ffffff" opacity="1.00" d=" M 61.33 87.33 C 63.80 85.92 67.38 88.43 66.74 91.28 C 66.76 94.69 61.59 96.17 59.78 93.24 C 58.11 91.39 59.10 88.20 61.33 87.33 Z" />
</g>
</svg>
