<?xml version="1.0" encoding="UTF-8" ?>
<!DOCTYPE svg PUBLIC "-//W3C//DTD SVG 1.1//EN" "http://www.w3.org/Graphics/SVG/1.1/DTD/svg11.dtd">
<svg width="150px" height="80px" viewBox="0 0 150 80" version="1.1" xmlns="http://www.w3.org/2000/svg">
<g id="#000000ff">
<path fill="#000000" opacity="1.00" d=" M 0.00 0.00 L 150.00 0.00 L 150.00 80.00 L 0.00 80.00 L 0.00 0.00 M 6.41 5.60 C 2.26 6.55 0.85 11.14 0.98 14.91 C 0.93 30.61 1.13 46.32 0.91 62.03 C 1.06 65.43 0.68 69.29 2.88 72.16 C 5.02 74.87 8.77 74.95 11.93 75.06 C 50.62 74.93 89.31 75.00 128.00 75.01 C 133.43 74.87 139.05 75.73 144.33 74.16 C 148.46 72.74 149.10 67.85 149.05 64.08 C 149.03 49.72 148.88 35.36 149.07 21.01 C 148.97 17.01 149.51 12.77 147.89 9.01 C 146.11 5.39 141.63 4.98 138.08 4.94 C 99.72 5.07 61.36 4.99 23.00 5.00 C 17.48 5.11 11.85 4.39 6.41 5.60 Z" />
<path fill="#000000" opacity="1.00" d=" M 7.34 7.43 C 8.84 7.08 10.38 7.00 11.92 6.94 C 53.97 7.02 96.03 7.02 138.09 6.94 C 140.69 7.14 143.97 6.94 145.73 9.26 C 147.24 11.87 146.97 15.05 147.10 17.96 C 146.93 33.33 147.02 48.71 147.07 64.08 C 146.95 67.06 146.96 71.37 143.44 72.40 C 138.39 73.62 133.14 72.92 128.00 73.03 C 92.33 73.00 56.67 72.98 21.00 73.04 C 15.98 72.88 10.72 73.78 5.89 72.08 C 2.42 70.10 3.14 65.42 2.90 62.05 C 3.08 46.67 2.96 31.29 2.94 15.92 C 2.95 12.69 3.34 8.04 7.34 7.43 M 44.06 28.98 C 44.03 36.63 43.76 44.30 44.27 51.95 C 46.02 51.91 47.78 51.85 49.53 51.75 C 49.87 44.18 49.66 36.60 49.70 29.02 C 47.82 29.01 45.94 28.99 44.06 28.98 M 53.30 29.02 C 53.34 36.60 53.13 44.18 53.47 51.75 C 55.22 51.85 56.98 51.91 58.73 51.94 C 59.24 44.30 58.97 36.63 58.94 28.98 C 57.06 28.99 55.18 29.01 53.30 29.02 Z" />
</g>
<g id="#717571ff">
<path fill="#717571" opacity="1.00" d=" M 6.41 5.60 C 11.85 4.39 17.48 5.11 23.00 5.00 C 61.36 4.99 99.72 5.07 138.08 4.94 C 141.63 4.98 146.11 5.39 147.89 9.01 C 149.51 12.77 148.97 17.01 149.07 21.01 C 148.88 35.36 149.03 49.72 149.05 64.08 C 149.10 67.85 148.46 72.74 144.33 74.16 C 139.05 75.73 133.43 74.87 128.00 75.01 C 89.31 75.00 50.62 74.93 11.93 75.06 C 8.77 74.95 5.02 74.87 2.88 72.16 C 0.68 69.29 1.06 65.43 0.91 62.03 C 1.13 46.32 0.93 30.61 0.98 14.91 C 0.85 11.14 2.26 6.55 6.41 5.60 M 7.34 7.43 C 3.34 8.04 2.95 12.69 2.94 15.92 C 2.96 31.29 3.08 46.67 2.90 62.05 C 3.14 65.42 2.42 70.10 5.89 72.08 C 10.72 73.78 15.98 72.88 21.00 73.04 C 56.67 72.98 92.33 73.00 128.00 73.03 C 133.14 72.92 138.39 73.62 143.44 72.40 C 146.96 71.37 146.95 67.06 147.07 64.08 C 147.02 48.71 146.93 33.33 147.10 17.96 C 146.97 15.05 147.24 11.87 145.73 9.26 C 143.97 6.94 140.69 7.14 138.09 6.94 C 96.03 7.02 53.97 7.02 11.92 6.94 C 10.38 7.00 8.84 7.08 7.34 7.43 Z" />
</g>
<g id="#f8fcf8ff">
<path fill="#f8fcf8" opacity="1.00" d=" M 44.06 28.98 C 45.94 28.99 47.82 29.01 49.70 29.02 C 49.66 36.60 49.87 44.18 49.53 51.75 C 47.78 51.85 46.02 51.91 44.27 51.95 C 43.76 44.30 44.03 36.63 44.06 28.98 Z" />
<path fill="#f8fcf8" opacity="1.00" d=" M 53.30 29.02 C 55.18 29.01 57.06 28.99 58.94 28.98 C 58.97 36.63 59.24 44.30 58.73 51.94 C 56.98 51.91 55.22 51.85 53.47 51.75 C 53.13 44.18 53.34 36.60 53.30 29.02 Z" />
</g>
</svg>
