<?xml version="1.0" encoding="UTF-8" ?>
<!DOCTYPE svg PUBLIC "-//W3C//DTD SVG 1.1//EN" "http://www.w3.org/Graphics/SVG/1.1/DTD/svg11.dtd">
<svg width="117px" height="140px" viewBox="0 0 117 140" version="1.1" xmlns="http://www.w3.org/2000/svg">
<g id="#181818ff">
<path fill="#181818" opacity="1.00" d=" M 0.00 0.00 L 117.00 0.00 L 117.00 140.00 L 0.00 140.00 L 0.00 0.00 M 18.72 28.86 C 20.16 28.93 21.60 28.99 23.05 29.05 C 23.04 30.75 23.03 32.46 23.02 34.16 C 22.97 39.00 23.00 43.84 23.04 48.68 C 23.04 54.76 22.98 60.83 23.02 66.91 C 22.97 71.35 23.01 75.78 23.03 80.22 C 22.98 83.80 22.99 87.37 23.01 90.95 C 41.25 90.98 59.48 90.91 77.72 90.99 C 74.02 92.25 74.12 98.16 78.18 98.77 C 82.86 99.76 84.59 92.58 80.20 90.99 C 82.12 91.00 84.04 90.98 85.96 90.95 C 86.04 92.42 86.12 93.89 86.21 95.36 C 89.97 93.98 93.35 91.76 96.73 89.65 C 96.73 89.33 96.73 88.69 96.73 88.37 C 93.33 86.29 90.01 83.87 86.17 82.67 C 86.09 84.11 86.00 85.56 85.93 87.00 C 66.00 87.08 46.06 86.84 26.14 87.12 C 29.00 86.06 26.21 82.55 26.93 80.35 C 27.03 75.93 27.01 71.52 26.98 67.10 C 26.99 62.48 27.01 57.86 27.00 53.24 C 26.93 46.84 27.06 40.44 26.98 34.04 C 26.96 32.38 26.96 30.71 26.95 29.05 C 28.40 28.99 29.84 28.93 31.28 28.86 C 30.02 24.72 27.49 21.03 24.97 17.55 C 22.56 21.10 19.92 24.71 18.72 28.86 M 90.12 27.16 C 90.41 28.93 91.91 30.05 93.04 31.31 C 98.08 34.10 104.12 28.10 101.35 23.03 C 100.07 21.85 98.86 20.36 97.03 20.09 C 93.12 19.22 89.16 23.27 90.12 27.16 M 86.22 38.22 C 80.22 47.56 74.01 56.78 68.01 66.12 C 65.12 62.96 62.67 59.43 59.88 56.17 C 56.13 62.14 52.55 68.21 48.81 74.19 C 48.35 73.87 47.44 73.24 46.98 72.92 C 44.74 70.57 42.18 68.56 39.79 66.38 C 35.65 72.48 31.69 78.70 27.45 84.73 C 27.97 85.38 28.51 86.02 29.06 86.65 C 32.47 80.83 36.50 75.40 40.14 69.72 C 42.16 71.36 44.13 73.07 46.09 74.78 C 47.04 75.79 48.10 76.69 49.13 77.62 C 53.02 71.85 56.38 65.74 60.16 59.90 C 62.77 63.20 65.41 66.49 68.09 69.75 C 75.00 59.39 81.73 48.90 88.64 38.54 C 89.39 37.48 89.89 36.27 90.11 34.99 C 88.00 34.74 87.21 36.81 86.22 38.22 M 17.37 46.43 C 13.89 48.32 17.48 53.76 20.63 51.36 C 23.78 49.41 20.43 44.12 17.37 46.43 Z" />
</g>
<g id="#8860f0ff">
<path fill="#ffffff" opacity="1.00" d=" M 18.72 28.86 C 19.92 24.71 22.56 21.10 24.97 17.55 C 27.49 21.03 30.02 24.72 31.28 28.86 C 29.84 28.93 28.40 28.99 26.95 29.05 C 26.96 30.71 26.96 32.38 26.98 34.04 C 25.66 34.08 24.34 34.12 23.02 34.16 C 23.03 32.46 23.04 30.75 23.05 29.05 C 21.60 28.99 20.16 28.93 18.72 28.86 Z" />
</g>
<g id="#f8a898ff">
<path fill="#ffffff" opacity="1.00" d=" M 90.12 27.16 C 89.16 23.27 93.12 19.22 97.03 20.09 C 98.86 20.36 100.07 21.85 101.35 23.03 C 98.47 25.68 95.69 28.44 93.04 31.31 C 91.91 30.05 90.41 28.93 90.12 27.16 Z" />
</g>
<g id="#f88088ff">
<path fill="#ffffff" opacity="1.00" d=" M 93.04 31.31 C 95.69 28.44 98.47 25.68 101.35 23.03 C 104.12 28.10 98.08 34.10 93.04 31.31 Z" />
</g>
<g id="#7050e0ff">
<path fill="#ffffff" opacity="1.00" d=" M 23.02 34.16 C 24.34 34.12 25.66 34.08 26.98 34.04 C 27.06 40.44 26.93 46.84 27.00 53.24 C 25.68 51.72 24.36 50.19 23.04 48.68 C 23.00 43.84 22.97 39.00 23.02 34.16 Z" />
</g>
<g id="#da9048ff">
<path fill="#ffffff" opacity="1.00" d=" M 86.22 38.22 C 87.21 36.81 88.00 34.74 90.11 34.99 C 89.89 36.27 89.39 37.48 88.64 38.54 C 81.73 48.90 75.00 59.39 68.09 69.75 C 65.41 66.49 62.77 63.20 60.16 59.90 C 56.38 65.74 53.02 71.85 49.13 77.62 C 48.10 76.69 47.04 75.79 46.09 74.78 C 46.31 74.31 46.75 73.39 46.98 72.92 C 47.44 73.24 48.35 73.87 48.81 74.19 C 52.55 68.21 56.13 62.14 59.88 56.17 C 62.67 59.43 65.12 62.96 68.01 66.12 C 74.01 56.78 80.22 47.56 86.22 38.22 Z" />
</g>
<g id="#98e010ff">
<path fill="#ffffff" opacity="1.00" d=" M 17.37 46.43 C 20.43 44.12 23.78 49.41 20.63 51.36 C 17.48 53.76 13.89 48.32 17.37 46.43 Z" />
</g>
<g id="#5048d8ff">
<path fill="#ffffff" opacity="1.00" d=" M 23.04 48.68 C 24.36 50.19 25.68 51.72 27.00 53.24 C 27.01 57.86 26.99 62.48 26.98 67.10 C 25.66 67.04 24.34 66.97 23.02 66.91 C 22.98 60.83 23.04 54.76 23.04 48.68 Z" />
</g>
<g id="#3840d0ff">
<path fill="#ffffff" opacity="1.00" d=" M 23.02 66.91 C 24.34 66.97 25.66 67.04 26.98 67.10 C 27.01 71.52 27.03 75.93 26.93 80.35 C 25.63 80.31 24.33 80.26 23.03 80.22 C 23.01 75.78 22.97 71.35 23.02 66.91 Z" />
</g>
<g id="#d89f55ff">
<path fill="#ffffff" opacity="1.00" d=" M 27.45 84.73 C 31.69 78.70 35.65 72.48 39.79 66.38 C 42.18 68.56 44.74 70.57 46.98 72.92 C 46.75 73.39 46.31 74.31 46.09 74.78 C 44.13 73.07 42.16 71.36 40.14 69.72 C 36.50 75.40 32.47 80.83 29.06 86.65 C 28.51 86.02 27.97 85.38 27.45 84.73 Z" />
</g>
<g id="#2038c8ff">
<path fill="#ffffff" opacity="1.00" d=" M 23.03 80.22 C 24.33 80.26 25.63 80.31 26.93 80.35 C 26.21 82.55 29.00 86.06 26.14 87.12 C 46.06 86.84 66.00 87.08 85.93 87.00 C 86.00 85.56 86.09 84.11 86.17 82.67 C 90.01 83.87 93.33 86.29 96.73 88.37 C 96.73 88.69 96.73 89.33 96.73 89.65 C 93.35 91.76 89.97 93.98 86.21 95.36 C 86.12 93.89 86.04 92.42 85.96 90.95 C 84.04 90.98 82.12 91.00 80.20 90.99 C 79.37 90.97 78.54 90.97 77.72 90.99 C 59.48 90.91 41.25 90.98 23.01 90.95 C 22.99 87.37 22.98 83.80 23.03 80.22 Z" />
</g>
<g id="#40b8c8ff">
<path fill="#ffffff" opacity="1.00" d=" M 77.72 90.99 C 78.54 90.97 79.37 90.97 80.20 90.99 C 84.59 92.58 82.86 99.76 78.18 98.77 C 74.12 98.16 74.02 92.25 77.72 90.99 Z" />
</g>
</svg>
