<?xml version="1.0" encoding="UTF-8" ?>
<!DOCTYPE svg PUBLIC "-//W3C//DTD SVG 1.1//EN" "http://www.w3.org/Graphics/SVG/1.1/DTD/svg11.dtd">
<svg width="117px" height="140px" viewBox="0 0 117 140" version="1.1" xmlns="http://www.w3.org/2000/svg">
<g id="#181818ff">
<path fill="#181818" opacity="1.00" d=" M 0.00 0.00 L 117.00 0.00 L 117.00 140.00 L 0.00 140.00 L 0.00 0.00 M 61.13 21.25 C 57.70 22.38 55.63 26.92 57.90 30.00 C 59.97 33.83 65.97 33.79 68.05 29.97 C 71.10 25.65 66.00 19.35 61.13 21.25 M 33.05 46.20 L 32.98 46.19 C 31.46 47.61 30.00 49.10 28.58 50.62 C 27.46 51.70 28.20 53.49 29.42 54.11 C 30.68 55.67 32.20 57.00 33.64 58.39 C 35.29 59.98 36.67 62.03 38.76 63.05 C 37.23 63.93 35.65 67.20 38.07 67.85 L 37.85 68.08 C 40.37 71.20 45.16 66.40 42.15 63.77 L 42.02 63.90 L 41.00 62.97 C 41.38 61.28 41.37 59.55 41.27 57.83 C 41.37 56.28 41.38 54.73 41.30 53.18 C 41.32 50.87 41.38 48.56 41.29 46.25 C 41.24 44.29 42.16 40.49 39.01 40.67 C 36.58 41.87 35.07 44.42 33.05 46.20 M 76.05 49.74 C 75.92 51.50 76.04 53.27 76.05 55.04 C 76.49 57.70 74.54 62.30 77.95 63.38 C 81.46 61.46 83.92 57.95 86.85 55.24 C 87.82 54.26 89.03 53.39 89.44 52.00 C 88.97 51.02 88.41 49.57 87.27 49.30 C 84.23 46.42 81.69 42.59 78.02 40.63 C 74.18 41.68 76.73 46.85 76.05 49.74 M 45.27 49.55 C 43.32 50.63 43.62 54.28 45.96 54.54 L 45.52 55.00 C 48.20 55.85 50.85 53.31 50.00 50.60 L 49.58 50.99 C 49.44 49.10 46.58 48.32 45.27 49.55 M 53.32 49.51 C 51.33 50.59 51.60 54.20 53.94 54.60 L 53.56 54.99 C 56.26 55.86 58.83 53.26 58.00 50.57 L 57.62 50.95 C 57.32 49.12 54.69 48.34 53.32 49.51 M 61.31 49.53 C 59.31 50.58 59.61 54.34 62.00 54.56 L 61.58 55.00 C 64.25 55.84 66.85 53.27 66.00 50.60 L 65.62 50.95 C 65.33 49.12 62.66 48.33 61.31 49.53 M 69.35 49.49 C 67.31 50.54 67.59 54.33 70.00 54.57 L 69.57 55.01 C 72.22 55.84 74.83 53.30 73.99 50.63 L 73.63 50.91 C 73.25 49.14 70.72 48.35 69.35 49.49 M 76.28 71.31 C 74.12 72.24 73.07 75.38 74.76 77.20 C 76.39 79.89 81.05 78.98 81.65 75.94 C 82.80 72.90 79.09 69.75 76.28 71.31 Z" />
<path fill="#181818" opacity="1.00" d=" M 32.97 52.01 C 34.21 50.46 35.71 49.13 37.18 47.80 C 37.33 49.59 37.31 51.38 37.33 53.17 C 37.31 53.87 37.27 55.28 37.26 55.99 C 35.99 55.56 35.27 54.33 34.29 53.50 C 33.96 53.13 33.30 52.39 32.97 52.01 Z" />
</g>
<g id="#60dc48ff">
<path fill="#ffffff" opacity="1.00" d=" M 61.13 21.25 C 66.00 19.35 71.10 25.65 68.05 29.97 C 65.97 33.79 59.97 33.83 57.90 30.00 C 55.63 26.92 57.70 22.38 61.13 21.25 Z" />
</g>
<g id="#8860f0ff">
<path fill="#ffffff" opacity="1.00" d=" M 33.05 46.20 C 35.07 44.42 36.58 41.87 39.01 40.67 C 42.16 40.49 41.24 44.29 41.29 46.25 C 38.55 46.55 35.77 46.69 33.05 46.20 Z" />
</g>
<g id="#8058f0ff">
<path fill="#ffffff" opacity="1.00" d=" M 76.05 49.74 C 76.73 46.85 74.18 41.68 78.02 40.63 C 81.69 42.59 84.23 46.42 87.27 49.30 C 85.75 49.53 84.24 49.81 82.74 50.10 C 81.83 49.20 80.91 48.31 79.95 47.46 C 79.96 48.02 79.96 49.15 79.96 49.71 C 78.66 49.71 77.35 49.72 76.05 49.74 Z" />
</g>
<g id="#6050e0ff">
<path fill="#ffffff" opacity="1.00" d=" M 32.98 46.19 L 33.05 46.20 C 35.77 46.69 38.55 46.55 41.29 46.25 C 41.38 48.56 41.32 50.87 41.30 53.18 C 40.31 53.18 38.32 53.17 37.33 53.17 C 37.31 51.38 37.33 49.59 37.18 47.80 C 35.71 49.13 34.21 50.46 32.97 52.01 C 33.30 52.39 33.96 53.13 34.29 53.50 C 32.66 53.67 31.04 53.87 29.42 54.11 C 28.20 53.49 27.46 51.70 28.58 50.62 C 30.00 49.10 31.46 47.61 32.98 46.19 Z" />
</g>
<g id="#1c1b22ff">
<path fill="#181818" opacity="1.00" d=" M 79.95 47.46 C 80.91 48.31 81.83 49.20 82.74 50.10 C 83.16 50.58 84.01 51.54 84.43 52.02 C 83.93 52.56 82.92 53.64 82.42 54.17 C 81.76 54.80 81.12 55.44 80.45 56.04 L 79.88 55.49 C 79.99 53.56 80.04 51.64 79.96 49.71 C 79.96 49.15 79.96 48.02 79.95 47.46 Z" />
</g>
<g id="#f8b860ff">
<path fill="#ffffff" opacity="1.00" d=" M 45.27 49.55 C 46.58 48.32 49.44 49.10 49.58 50.99 C 48.38 52.18 47.17 53.36 45.96 54.54 C 43.62 54.28 43.32 50.63 45.27 49.55 Z" />
<path fill="#ffffff" opacity="1.00" d=" M 53.32 49.51 C 54.69 48.34 57.32 49.12 57.62 50.95 C 56.40 52.18 55.17 53.38 53.94 54.60 C 51.60 54.20 51.33 50.59 53.32 49.51 Z" />
<path fill="#ffffff" opacity="1.00" d=" M 61.31 49.53 C 62.66 48.33 65.33 49.12 65.62 50.95 C 64.41 52.16 63.20 53.36 62.00 54.56 C 59.61 54.34 59.31 50.58 61.31 49.53 Z" />
<path fill="#ffffff" opacity="1.00" d=" M 69.35 49.49 C 70.72 48.35 73.25 49.14 73.63 50.91 C 72.41 52.12 71.23 53.37 70.00 54.57 C 67.59 54.33 67.31 50.54 69.35 49.49 Z" />
</g>
<g id="#584ce0ff">
<path fill="#ffffff" opacity="1.00" d=" M 87.27 49.30 C 88.41 49.57 88.97 51.02 89.44 52.00 C 89.03 53.39 87.82 54.26 86.85 55.24 C 85.37 54.90 83.89 54.54 82.42 54.17 C 82.92 53.64 83.93 52.56 84.43 52.02 C 84.01 51.54 83.16 50.58 82.74 50.10 C 84.24 49.81 85.75 49.53 87.27 49.30 Z" />
<path fill="#ffffff" opacity="1.00" d=" M 76.05 49.74 C 77.35 49.72 78.66 49.71 79.96 49.71 C 80.04 51.64 79.99 53.56 79.88 55.49 C 78.61 55.32 77.33 55.17 76.05 55.04 C 76.04 53.27 75.92 51.50 76.05 49.74 Z" />
</g>
<g id="#da823cff">
<path fill="#ffffff" opacity="1.00" d=" M 49.58 50.99 L 50.00 50.60 C 50.85 53.31 48.20 55.85 45.52 55.00 L 45.96 54.54 C 47.17 53.36 48.38 52.18 49.58 50.99 Z" />
<path fill="#ffffff" opacity="1.00" d=" M 57.62 50.95 L 58.00 50.57 C 58.83 53.26 56.26 55.86 53.56 54.99 L 53.94 54.60 C 55.17 53.38 56.40 52.18 57.62 50.95 Z" />
<path fill="#ffffff" opacity="1.00" d=" M 65.62 50.95 L 66.00 50.60 C 66.85 53.27 64.25 55.84 61.58 55.00 L 62.00 54.56 C 63.20 53.36 64.41 52.16 65.62 50.95 Z" />
<path fill="#ffffff" opacity="1.00" d=" M 73.63 50.91 L 73.99 50.63 C 74.83 53.30 72.22 55.84 69.57 55.01 L 70.00 54.57 C 71.23 53.37 72.41 52.12 73.63 50.91 Z" />
</g>
<g id="#4044d8ff">
<path fill="#ffffff" opacity="1.00" d=" M 37.33 53.17 C 38.32 53.17 40.31 53.18 41.30 53.18 C 41.38 54.73 41.37 56.28 41.27 57.83 C 38.72 57.88 36.17 58.11 33.64 58.39 C 32.20 57.00 30.68 55.67 29.42 54.11 C 31.04 53.87 32.66 53.67 34.29 53.50 C 35.27 54.33 35.99 55.56 37.26 55.99 C 37.27 55.28 37.31 53.87 37.33 53.17 Z" />
</g>
<g id="#3040d0ff">
<path fill="#ffffff" opacity="1.00" d=" M 80.45 56.04 C 81.12 55.44 81.76 54.80 82.42 54.17 C 83.89 54.54 85.37 54.90 86.85 55.24 C 83.92 57.95 81.46 61.46 77.95 63.38 C 74.54 62.30 76.49 57.70 76.05 55.04 C 77.33 55.17 78.61 55.32 79.88 55.49 L 80.45 56.04 Z" />
</g>
<g id="#283cd0ff">
<path fill="#ffffff" opacity="1.00" d=" M 33.64 58.39 C 36.17 58.11 38.72 57.88 41.27 57.83 C 41.37 59.55 41.38 61.28 41.00 62.97 C 40.44 62.99 39.32 63.03 38.76 63.05 C 36.67 62.03 35.29 59.98 33.64 58.39 Z" />
</g>
<g id="#e0b988ff">
<path fill="#ffffff" opacity="1.00" d=" M 38.76 63.05 C 39.32 63.03 40.44 62.99 41.00 62.97 L 42.02 63.90 C 40.75 65.26 39.44 66.58 38.07 67.85 C 35.65 67.20 37.23 63.93 38.76 63.05 Z" />
</g>
<g id="#da9192ff">
<path fill="#ffffff" opacity="1.00" d=" M 42.02 63.90 L 42.15 63.77 C 45.16 66.40 40.37 71.20 37.85 68.08 L 38.07 67.85 C 39.44 66.58 40.75 65.26 42.02 63.90 Z" />
</g>
<g id="#3078d0ff">
<path fill="#ffffff" opacity="1.00" d=" M 76.28 71.31 C 79.09 69.75 82.80 72.90 81.65 75.94 C 81.05 78.98 76.39 79.89 74.76 77.20 C 73.07 75.38 74.12 72.24 76.28 71.31 Z" />
</g>
<g id="#6a6d6aff">
<path fill="#ffffff" opacity="1.00" d=" M 33.15 10.22 C 48.75 9.69 64.39 10.17 80.01 9.98 C 89.65 9.69 99.33 13.96 105.49 21.41 C 110.57 27.37 113.24 35.23 113.02 43.04 C 112.92 62.06 113.13 81.08 112.92 100.10 C 112.28 116.05 97.98 129.85 82.03 129.97 C 66.64 130.03 51.25 130.01 35.87 129.98 C 19.59 129.79 5.16 115.37 5.02 99.09 C 4.98 79.71 4.98 60.33 5.02 40.96 C 5.17 25.62 17.91 11.78 33.15 10.22 M 33.18 12.26 C 19.00 13.81 7.16 26.74 7.04 41.04 C 6.98 60.37 6.97 79.71 7.04 99.05 C 7.17 113.93 20.10 127.24 34.94 127.91 C 47.29 128.12 59.64 127.94 71.99 128.00 C 78.63 127.90 85.56 128.62 91.84 125.97 C 103.10 121.69 111.22 110.13 110.98 98.02 C 110.99 79.00 111.05 59.98 110.95 40.96 C 110.85 25.72 97.29 12.20 82.06 12.05 C 65.77 12.09 49.45 11.71 33.18 12.26 Z" />
</g>
</svg>
