<?xml version="1.0" encoding="UTF-8" ?>
<!DOCTYPE svg PUBLIC "-//W3C//DTD SVG 1.1//EN" "http://www.w3.org/Graphics/SVG/1.1/DTD/svg11.dtd">
<svg width="117px" height="140px" viewBox="0 0 117 140" version="1.1" xmlns="http://www.w3.org/2000/svg">
<g id="#181818ff">
<path fill="#181818" opacity="1.00" d=" M 0.00 0.00 L 117.00 0.00 L 117.00 140.00 L 0.00 140.00 L 0.00 0.00 M 58.16 14.11 C 56.25 15.43 57.13 18.12 57.05 20.07 C 56.86 22.57 61.18 22.55 60.94 20.04 C 61.12 17.85 61.71 13.27 58.16 14.11 M 25.30 17.31 C 22.76 18.37 22.10 22.11 24.31 23.85 C 26.50 26.04 30.82 24.28 30.76 21.17 C 31.27 18.33 27.78 15.98 25.30 17.31 M 34.93 23.82 C 33.22 26.40 36.54 28.37 38.24 29.84 C 39.62 31.28 42.28 28.61 40.83 27.23 C 39.37 25.56 37.53 22.35 34.93 23.82 M 39.46 34.21 L 39.26 34.14 C 37.30 37.63 35.50 41.34 35.26 45.41 L 34.96 45.24 C 34.73 50.57 35.79 55.93 38.49 60.57 C 40.69 63.94 43.66 66.69 47.02 68.88 C 47.06 70.66 47.04 72.45 47.08 74.23 C 46.55 74.20 45.49 74.13 44.97 74.09 C 40.94 75.62 43.87 81.61 47.74 79.72 C 46.66 82.08 49.72 84.21 51.90 83.94 C 57.22 83.95 62.58 84.28 67.87 83.74 C 70.55 83.17 71.13 80.22 71.08 77.90 C 70.96 74.91 70.99 71.91 71.00 68.91 C 74.07 66.88 76.82 64.40 78.99 61.42 C 82.69 55.37 84.55 47.44 81.13 40.85 C 83.83 42.52 87.67 42.32 89.63 39.62 C 91.73 37.38 91.03 34.07 89.46 31.75 C 87.77 30.81 85.97 29.57 83.93 30.07 C 81.42 30.53 79.80 32.73 78.76 34.88 L 78.66 34.04 C 75.30 30.05 71.14 26.57 66.05 25.11 C 56.44 21.84 45.17 25.93 39.46 34.21 M 80.17 24.05 C 78.82 25.20 77.47 26.45 76.69 28.08 C 76.91 29.38 77.67 30.13 78.98 30.31 C 80.82 29.26 82.31 27.71 83.57 26.03 C 84.28 23.99 81.49 22.41 80.17 24.05 M 26.17 46.17 C 24.26 46.89 24.89 50.08 26.95 49.95 C 28.90 49.87 31.56 50.72 32.89 48.84 C 33.62 44.98 28.48 45.95 26.17 46.17 M 86.24 46.33 C 84.32 46.80 84.88 50.18 86.90 49.94 C 88.85 49.88 91.59 50.76 92.89 48.82 C 93.64 45.00 88.52 45.96 86.24 46.33 M 49.12 86.20 C 47.30 87.02 47.93 90.13 50.01 89.91 C 56.00 90.08 62.01 90.07 68.00 89.91 C 70.54 90.18 70.58 85.84 68.03 86.09 C 61.73 85.98 55.40 85.80 49.12 86.20 M 47.74 92.08 C 48.43 93.93 49.64 96.09 51.95 95.93 C 56.94 96.02 61.96 96.19 66.94 95.82 C 68.86 95.58 69.54 93.58 70.29 92.09 C 62.77 91.93 55.25 91.95 47.74 92.08 Z" />
<path fill="#181818" opacity="1.00" d=" M 43.33 35.56 C 47.36 30.68 53.64 27.67 60.02 28.09 C 66.58 28.33 72.70 32.16 76.15 37.69 C 80.43 44.76 79.71 54.31 74.51 60.71 C 72.40 63.05 69.79 64.85 67.08 66.41 C 66.96 70.30 67.01 74.19 66.98 78.08 C 66.98 78.56 66.96 79.52 66.95 80.00 C 61.63 79.99 56.31 80.02 50.99 79.96 C 50.95 78.02 51.01 76.08 51.00 74.15 C 51.01 71.55 50.95 68.95 50.86 66.36 C 48.09 64.85 45.50 63.00 43.41 60.62 C 40.48 56.88 39.01 52.18 38.96 47.45 C 39.24 43.16 40.76 39.01 43.33 35.56 M 51.88 49.13 C 50.82 47.54 50.82 43.63 48.05 45.10 C 49.49 47.93 49.95 51.87 52.31 53.88 C 53.63 51.05 54.59 48.06 55.83 45.19 C 56.82 48.25 57.74 51.34 58.67 54.41 C 60.11 52.07 61.51 49.71 62.88 47.34 C 64.42 50.27 65.32 53.55 67.28 56.26 C 68.52 52.59 69.77 48.92 70.92 45.22 C 70.45 45.09 69.52 44.82 69.06 44.69 C 68.33 46.87 67.60 49.05 66.87 51.22 C 65.62 48.41 64.37 45.60 63.11 42.79 C 61.83 45.00 60.57 47.21 59.30 49.43 C 58.25 45.95 57.22 42.45 56.16 38.97 C 54.67 42.33 53.51 45.83 51.88 49.13 Z" />
</g>
<g id="#f8b860ff">
<path fill="#ffffff" opacity="1.00" d=" M 58.16 14.11 C 61.71 13.27 61.12 17.85 60.94 20.04 C 61.18 22.55 56.86 22.57 57.05 20.07 C 57.13 18.12 56.25 15.43 58.16 14.11 Z" />
</g>
<g id="#40b8c8ff">
<path fill="#ffffff" opacity="1.00" d=" M 25.30 17.31 C 27.78 15.98 31.27 18.33 30.76 21.17 C 30.82 24.28 26.50 26.04 24.31 23.85 C 22.10 22.11 22.76 18.37 25.30 17.31 Z" />
</g>
<g id="#f8c870ff">
<path fill="#ffffff" opacity="1.00" d=" M 34.93 23.82 C 37.53 22.35 39.37 25.56 40.83 27.23 C 42.28 28.61 39.62 31.28 38.24 29.84 C 36.54 28.37 33.22 26.40 34.93 23.82 Z" />
</g>
<g id="#9060f0ff">
<path fill="#ffffff" opacity="1.00" d=" M 39.46 34.21 C 45.17 25.93 56.44 21.84 66.05 25.11 C 71.14 26.57 75.30 30.05 78.66 34.04 C 77.83 35.26 76.99 36.47 76.15 37.69 C 72.70 32.16 66.58 28.33 60.02 28.09 C 53.64 27.67 47.36 30.68 43.33 35.56 C 42.04 35.11 40.75 34.66 39.46 34.21 Z" />
</g>
<g id="#f89848ff">
<path fill="#ffffff" opacity="1.00" d=" M 80.17 24.05 C 81.49 22.41 84.28 23.99 83.57 26.03 C 82.31 27.71 80.82 29.26 78.98 30.31 C 77.67 30.13 76.91 29.38 76.69 28.08 C 77.47 26.45 78.82 25.20 80.17 24.05 Z" />
</g>
<g id="#f8a898ff">
<path fill="#ffffff" opacity="1.00" d=" M 78.76 34.88 C 79.80 32.73 81.42 30.53 83.93 30.07 C 85.97 29.57 87.77 30.81 89.46 31.75 C 86.72 34.75 83.85 37.62 80.75 40.25 C 79.68 38.64 78.85 36.84 78.76 34.88 Z" />
</g>
<g id="#f88888ff">
<path fill="#ffffff" opacity="1.00" d=" M 89.46 31.75 C 91.03 34.07 91.73 37.38 89.63 39.62 C 87.67 42.32 83.83 42.52 81.13 40.85 C 81.03 40.70 80.85 40.40 80.75 40.25 C 83.85 37.62 86.72 34.75 89.46 31.75 Z" />
</g>
<g id="#7858e8ff">
<path fill="#ffffff" opacity="1.00" d=" M 39.26 34.14 L 39.46 34.21 C 40.75 34.66 42.04 35.11 43.33 35.56 C 40.76 39.01 39.24 43.16 38.96 47.45 C 37.73 46.77 36.49 46.09 35.26 45.41 C 35.50 41.34 37.30 37.63 39.26 34.14 Z" />
</g>
<g id="#6050e0ff">
<path fill="#ffffff" opacity="1.00" d=" M 78.66 34.04 L 78.76 34.88 C 78.85 36.84 79.68 38.64 80.75 40.25 C 80.85 40.40 81.03 40.70 81.13 40.85 C 84.55 47.44 82.69 55.37 78.99 61.42 C 77.49 61.18 76.00 60.95 74.51 60.71 C 79.71 54.31 80.43 44.76 76.15 37.69 C 76.99 36.47 77.83 35.26 78.66 34.04 Z" />
<path fill="#ffffff" opacity="1.00" d=" M 34.96 45.24 L 35.26 45.41 C 36.49 46.09 37.73 46.77 38.96 47.45 C 39.01 52.18 40.48 56.88 43.41 60.62 C 41.77 60.60 40.13 60.58 38.49 60.57 C 35.79 55.93 34.73 50.57 34.96 45.24 Z" />
</g>
<g id="#f89048ff">
<path fill="#ffffff" opacity="1.00" d=" M 51.88 49.13 C 53.51 45.83 54.67 42.33 56.16 38.97 C 57.22 42.45 58.25 45.95 59.30 49.43 C 60.57 47.21 61.83 45.00 63.11 42.79 C 64.37 45.60 65.62 48.41 66.87 51.22 C 67.60 49.05 68.33 46.87 69.06 44.69 C 69.52 44.82 70.45 45.09 70.92 45.22 C 69.77 48.92 68.52 52.59 67.28 56.26 C 65.32 53.55 64.42 50.27 62.88 47.34 C 61.51 49.71 60.11 52.07 58.67 54.41 C 57.74 51.34 56.82 48.25 55.83 45.19 C 54.59 48.06 53.63 51.05 52.31 53.88 C 49.95 51.87 49.49 47.93 48.05 45.10 C 50.82 43.63 50.82 47.54 51.88 49.13 Z" />
</g>
<g id="#f8c868ff">
<path fill="#ffffff" opacity="1.00" d=" M 26.17 46.17 C 28.48 45.95 33.62 44.98 32.89 48.84 C 31.56 50.72 28.90 49.87 26.95 49.95 C 24.89 50.08 24.26 46.89 26.17 46.17 Z" />
</g>
<g id="#f07830ff">
<path fill="#ffffff" opacity="1.00" d=" M 86.24 46.33 C 88.52 45.96 93.64 45.00 92.89 48.82 C 91.59 50.76 88.85 49.88 86.90 49.94 C 84.88 50.18 84.32 46.80 86.24 46.33 Z" />
</g>
<g id="#4848d8ff">
<path fill="#ffffff" opacity="1.00" d=" M 38.49 60.57 C 40.13 60.58 41.77 60.60 43.41 60.62 C 45.50 63.00 48.09 64.85 50.86 66.36 C 50.95 68.95 51.01 71.55 51.00 74.15 C 50.27 74.20 48.82 74.31 48.10 74.36 L 47.08 74.23 C 47.04 72.45 47.06 70.66 47.02 68.88 C 43.66 66.69 40.69 63.94 38.49 60.57 Z" />
</g>
<g id="#4040d0ff">
<path fill="#ffffff" opacity="1.00" d=" M 67.08 66.41 C 69.79 64.85 72.40 63.05 74.51 60.71 C 76.00 60.95 77.49 61.18 78.99 61.42 C 76.82 64.40 74.07 66.88 71.00 68.91 C 70.99 71.91 70.96 74.91 71.08 77.90 C 69.72 77.96 68.35 78.02 66.98 78.08 C 67.01 74.19 66.96 70.30 67.08 66.41 Z" />
</g>
<g id="#a8e010ff">
<path fill="#ffffff" opacity="1.00" d=" M 47.74 79.72 C 43.87 81.61 40.94 75.62 44.97 74.09 C 45.49 74.13 46.55 74.20 47.08 74.23 L 48.10 74.36 C 49.02 76.15 48.89 78.07 47.74 79.72 Z" />
</g>
<g id="#3038c8ff">
<path fill="#ffffff" opacity="1.00" d=" M 48.10 74.36 C 48.82 74.31 50.27 74.20 51.00 74.15 C 51.01 76.08 50.95 78.02 50.99 79.96 C 56.31 80.02 61.63 79.99 66.95 80.00 C 66.96 79.52 66.98 78.56 66.98 78.08 C 68.35 78.02 69.72 77.96 71.08 77.90 C 71.13 80.22 70.55 83.17 67.87 83.74 C 62.58 84.28 57.22 83.95 51.90 83.94 C 49.72 84.21 46.66 82.08 47.74 79.72 C 48.89 78.07 49.02 76.15 48.10 74.36 Z" />
</g>
<g id="#2038c8ff">
<path fill="#ffffff" opacity="1.00" d=" M 49.12 86.20 C 55.40 85.80 61.73 85.98 68.03 86.09 C 70.58 85.84 70.54 90.18 68.00 89.91 C 62.01 90.07 56.00 90.08 50.01 89.91 C 47.93 90.13 47.30 87.02 49.12 86.20 Z" />
</g>
<g id="#1830c0ff">
<path fill="#ffffff" opacity="1.00" d=" M 47.74 92.08 C 55.25 91.95 62.77 91.93 70.29 92.09 C 69.54 93.58 68.86 95.58 66.94 95.82 C 61.96 96.19 56.94 96.02 51.95 95.93 C 49.64 96.09 48.43 93.93 47.74 92.08 Z" />
</g>
</svg>
