<?xml version="1.0" encoding="UTF-8" ?>
<!DOCTYPE svg PUBLIC "-//W3C//DTD SVG 1.1//EN" "http://www.w3.org/Graphics/SVG/1.1/DTD/svg11.dtd">
<svg width="117px" height="140px" viewBox="0 0 117 140" version="1.1" xmlns="http://www.w3.org/2000/svg">
<g id="#000000ff">
<path fill="#000000" opacity="1.00" d=" M 0.00 0.00 L 117.00 0.00 L 117.00 140.00 L 0.00 140.00 L 0.00 0.00 M 44.69 32.22 C 44.11 37.88 45.33 43.50 48.55 48.22 C 47.88 48.37 46.53 48.67 45.85 48.82 C 43.81 51.86 44.67 55.87 45.84 59.09 C 48.54 64.69 51.42 70.21 54.27 75.74 C 55.89 79.05 60.08 80.91 63.52 79.25 C 67.26 77.22 68.39 72.81 70.34 69.35 C 72.96 63.49 77.39 57.88 76.67 51.11 C 76.33 49.25 74.51 48.42 72.84 48.13 C 75.79 43.36 77.22 37.87 76.73 32.25 C 66.09 31.41 55.34 31.68 44.69 32.22 Z" />
<path fill="#000000" opacity="1.00" d=" M 47.63 35.11 C 56.36 35.20 65.09 35.04 73.82 35.20 C 74.05 41.17 70.36 46.11 67.89 51.24 C 69.86 51.24 71.84 51.24 73.81 51.25 C 73.73 53.92 73.53 56.68 72.21 59.08 C 69.59 64.19 67.12 69.39 64.42 74.45 C 63.29 77.03 59.42 77.87 57.66 75.49 C 55.70 72.64 54.42 69.39 52.77 66.35 C 50.51 61.54 46.97 56.91 47.62 51.28 C 49.54 51.28 51.46 51.27 53.38 51.27 C 50.92 46.11 46.97 41.15 47.63 35.11 Z" />
</g>
<g id="#6a6d6aff">
<path fill="#6a6d6a" opacity="1.00" d=" M 33.15 10.22 C 48.75 9.69 64.39 10.17 80.01 9.98 C 89.65 9.69 99.33 13.96 105.49 21.41 C 110.57 27.37 113.24 35.23 113.02 43.04 C 112.92 62.06 113.13 81.08 112.92 100.10 C 112.28 116.05 97.98 129.85 82.03 129.97 C 66.64 130.03 51.25 130.01 35.87 129.98 C 19.59 129.79 5.16 115.37 5.02 99.09 C 4.98 79.71 4.98 60.33 5.02 40.96 C 5.17 25.62 17.91 11.78 33.15 10.22 M 33.18 12.26 C 19.00 13.81 7.16 26.74 7.04 41.04 C 6.98 60.37 6.97 79.71 7.04 99.05 C 7.17 113.93 20.10 127.24 34.94 127.91 C 47.29 128.12 59.64 127.94 71.99 128.00 C 78.63 127.90 85.56 128.62 91.84 125.97 C 103.10 121.69 111.22 110.13 110.98 98.02 C 110.99 79.00 111.05 59.98 110.95 40.96 C 110.85 25.72 97.29 12.20 82.06 12.05 C 65.77 12.09 49.45 11.71 33.18 12.26 Z" />
</g>
<g id="#f7fbf7ff">
<path fill="#f7fbf7" opacity="1.00" d=" M 44.69 32.22 C 55.34 31.68 66.09 31.41 76.73 32.25 C 77.22 37.87 75.79 43.36 72.84 48.13 C 74.51 48.42 76.33 49.25 76.67 51.11 C 77.39 57.88 72.96 63.49 70.34 69.35 C 68.39 72.81 67.26 77.22 63.52 79.25 C 60.08 80.91 55.89 79.05 54.27 75.74 C 51.42 70.21 48.54 64.69 45.84 59.09 C 44.67 55.87 43.81 51.86 45.85 48.82 C 46.53 48.67 47.88 48.37 48.55 48.22 C 45.33 43.50 44.11 37.88 44.69 32.22 M 47.63 35.11 C 46.97 41.15 50.92 46.11 53.38 51.27 C 51.46 51.27 49.54 51.28 47.62 51.28 C 46.97 56.91 50.51 61.54 52.77 66.35 C 54.42 69.39 55.70 72.64 57.66 75.49 C 59.42 77.87 63.29 77.03 64.42 74.45 C 67.12 69.39 69.59 64.19 72.21 59.08 C 73.53 56.68 73.73 53.92 73.81 51.25 C 71.84 51.24 69.86 51.24 67.89 51.24 C 70.36 46.11 74.05 41.17 73.82 35.20 C 65.09 35.04 56.36 35.20 47.63 35.11 Z" />
</g>
</svg>
