<?xml version="1.0" encoding="UTF-8" ?>
<!DOCTYPE svg PUBLIC "-//W3C//DTD SVG 1.1//EN" "http://www.w3.org/Graphics/SVG/1.1/DTD/svg11.dtd">
<svg width="117px" height="140px" viewBox="0 0 117 140" version="1.1" xmlns="http://www.w3.org/2000/svg">
<g id="#000000ff">
<path fill="#000000" opacity="1.00" d=" M 0.00 0.00 L 117.00 0.00 L 117.00 140.00 L 0.00 140.00 L 0.00 0.00 M 33.11 10.21 C 17.89 11.81 5.18 25.63 5.01 40.95 C 5.02 60.67 4.94 80.38 5.05 100.09 C 5.75 115.63 19.31 129.22 34.85 129.94 C 50.58 130.07 66.32 129.98 82.05 129.98 C 98.02 129.84 112.30 115.99 112.95 100.03 C 113.08 80.69 112.95 61.34 113.01 42.00 C 113.09 33.35 109.36 24.79 103.09 18.86 C 97.00 12.95 88.46 9.73 79.99 9.98 C 64.37 10.17 48.72 9.70 33.11 10.21 Z" />
<path fill="#000000" opacity="1.00" d=" M 33.21 12.36 C 44.81 11.71 56.45 12.25 68.07 12.07 C 76.72 12.31 85.96 10.91 93.95 15.07 C 104.15 19.81 111.02 30.75 110.90 41.99 C 110.97 58.98 110.90 75.97 110.94 92.96 C 111.12 99.31 110.78 105.95 107.59 111.61 C 102.75 121.49 92.01 127.94 81.05 127.90 C 65.68 127.89 50.31 128.06 34.94 127.82 C 20.13 127.13 7.31 113.91 7.13 99.07 C 7.03 79.69 7.03 60.31 7.13 40.93 C 7.35 26.73 19.08 13.85 33.21 12.36 M 48.23 31.50 C 49.60 34.89 50.91 38.31 52.22 41.73 C 56.44 39.47 61.56 39.47 65.79 41.72 C 67.09 38.34 68.34 34.94 69.78 31.61 C 63.17 28.06 54.92 28.20 48.23 31.50 M 57.33 46.48 C 51.97 47.37 49.56 54.73 53.48 58.55 C 57.24 62.98 65.50 60.80 66.33 54.97 C 67.55 49.91 62.23 45.15 57.33 46.48 M 33.88 56.87 C 34.43 64.20 38.42 71.17 44.68 75.09 C 47.05 72.26 49.40 69.41 51.76 66.58 C 47.70 64.18 45.13 59.83 44.94 55.12 C 41.26 55.72 37.57 56.27 33.88 56.87 M 73.06 55.12 C 72.88 59.84 70.27 64.18 66.22 66.60 C 68.62 69.41 70.95 72.27 73.32 75.09 C 79.57 71.16 83.57 64.21 84.12 56.87 C 80.43 56.27 76.74 55.72 73.06 55.12 Z" />
</g>
<g id="#6f6f6fff">
<path fill="#6f6f6f" opacity="1.00" d=" M 33.11 10.21 C 48.72 9.70 64.37 10.17 79.99 9.98 C 88.46 9.73 97.00 12.95 103.09 18.86 C 109.36 24.79 113.09 33.35 113.01 42.00 C 112.95 61.34 113.08 80.69 112.95 100.03 C 112.30 115.99 98.02 129.84 82.05 129.98 C 66.32 129.98 50.58 130.07 34.85 129.94 C 19.31 129.22 5.75 115.63 5.05 100.09 C 4.94 80.38 5.02 60.67 5.01 40.95 C 5.18 25.63 17.89 11.81 33.11 10.21 M 33.21 12.36 C 19.08 13.85 7.35 26.73 7.13 40.93 C 7.03 60.31 7.03 79.69 7.13 99.07 C 7.31 113.91 20.13 127.13 34.94 127.82 C 50.31 128.06 65.68 127.89 81.05 127.90 C 92.01 127.94 102.75 121.49 107.59 111.61 C 110.78 105.95 111.12 99.31 110.94 92.96 C 110.90 75.97 110.97 58.98 110.90 41.99 C 111.02 30.75 104.15 19.81 93.95 15.07 C 85.96 10.91 76.72 12.31 68.07 12.07 C 56.45 12.25 44.81 11.71 33.21 12.36 Z" />
</g>
<g id="#f8fcf8ff">
<path fill="#f8fcf8" opacity="1.00" d=" M 48.23 31.50 C 54.92 28.20 63.17 28.06 69.78 31.61 C 68.34 34.94 67.09 38.34 65.79 41.72 C 61.56 39.47 56.44 39.47 52.22 41.73 C 50.91 38.31 49.60 34.89 48.23 31.50 Z" />
<path fill="#f8fcf8" opacity="1.00" d=" M 57.33 46.48 C 62.23 45.15 67.55 49.91 66.33 54.97 C 65.50 60.80 57.24 62.98 53.48 58.55 C 49.56 54.73 51.97 47.37 57.33 46.48 Z" />
<path fill="#f8fcf8" opacity="1.00" d=" M 33.88 56.87 C 37.57 56.27 41.26 55.72 44.94 55.12 C 45.13 59.83 47.70 64.18 51.76 66.58 C 49.40 69.41 47.05 72.26 44.68 75.09 C 38.42 71.17 34.43 64.20 33.88 56.87 Z" />
<path fill="#f8fcf8" opacity="1.00" d=" M 73.06 55.12 C 76.74 55.72 80.43 56.27 84.12 56.87 C 83.57 64.21 79.57 71.16 73.32 75.09 C 70.95 72.27 68.62 69.41 66.22 66.60 C 70.27 64.18 72.88 59.84 73.06 55.12 Z" />
</g>
</svg>
