<?xml version="1.0" encoding="UTF-8" ?>
<!DOCTYPE svg PUBLIC "-//W3C//DTD SVG 1.1//EN" "http://www.w3.org/Graphics/SVG/1.1/DTD/svg11.dtd">
<svg width="117px" height="140px" viewBox="0 0 117 140" version="1.1" xmlns="http://www.w3.org/2000/svg">
<g id="#000000ff">
<path fill="#000000" opacity="1.00" d=" M 0.00 0.00 L 117.00 0.00 L 117.00 140.00 L 0.00 140.00 L 0.00 0.00 M 33.19 10.23 C 17.94 11.78 5.21 25.62 5.03 40.96 C 4.96 59.97 5.02 78.99 5.00 98.00 C 4.95 106.63 8.65 115.18 14.91 121.11 C 20.98 127.01 29.48 130.22 37.92 130.02 C 52.96 129.92 68.01 130.14 83.05 129.91 C 98.98 129.27 112.82 115.01 112.96 99.07 C 113.05 80.06 112.98 61.05 113.00 42.05 C 113.06 33.38 109.36 24.80 103.06 18.86 C 96.97 12.94 88.43 9.77 79.96 9.98 C 64.37 10.17 48.76 9.68 33.19 10.23 Z" />
<path fill="#000000" opacity="1.00" d=" M 30.53 12.68 C 35.26 11.66 40.13 12.08 44.94 12.00 C 57.62 12.05 70.31 11.89 82.99 12.08 C 97.88 12.69 110.87 26.05 110.96 40.97 C 111.02 60.32 111.03 79.68 110.96 99.03 C 110.87 113.89 97.97 127.26 83.12 127.89 C 68.09 128.15 53.04 127.92 38.01 128.01 C 21.64 128.97 6.49 114.40 7.00 97.98 C 7.01 78.97 6.96 59.96 7.03 40.95 C 7.20 27.61 17.51 15.39 30.53 12.68 M 49.80 28.01 C 49.87 37.59 49.81 47.17 49.84 56.75 C 43.64 61.32 42.63 71.31 48.22 76.74 C 53.03 82.12 62.52 81.54 66.70 75.69 C 71.52 70.04 69.92 61.11 64.16 56.75 C 64.19 47.17 64.12 37.60 64.20 28.02 C 59.48 27.24 54.53 27.27 49.80 28.01 M 68.33 51.02 C 67.95 51.52 67.19 52.53 66.81 53.03 C 67.19 53.50 67.94 54.44 68.32 54.91 C 69.78 54.84 71.30 55.06 72.72 54.63 C 73.74 53.53 73.75 52.43 72.74 51.33 C 71.32 50.87 69.79 51.09 68.33 51.02 Z" />
<path fill="#000000" opacity="1.00" d=" M 53.36 31.21 C 55.78 31.27 58.20 31.27 60.63 31.21 C 60.13 40.36 60.60 49.54 60.37 58.70 C 64.67 60.91 67.04 66.34 65.16 70.91 C 63.62 76.31 56.37 78.44 51.96 75.13 C 46.23 71.21 47.41 61.57 53.63 58.71 C 53.39 49.55 53.89 40.37 53.36 31.21 M 55.16 51.14 C 54.91 54.08 55.29 57.02 55.07 59.95 C 53.17 61.70 50.37 63.05 49.96 65.89 C 48.57 71.10 54.47 76.84 59.58 74.52 C 62.18 72.98 64.65 70.28 64.17 67.02 C 64.32 63.66 61.20 61.83 58.93 60.00 C 58.71 57.05 59.09 54.09 58.84 51.14 C 57.61 50.17 56.38 50.17 55.16 51.14 Z" />
</g>
<g id="#747474ff">
<path fill="#747474" opacity="1.00" d=" M 33.19 10.23 C 48.76 9.68 64.37 10.17 79.96 9.98 C 88.43 9.77 96.97 12.94 103.06 18.86 C 109.36 24.80 113.06 33.38 113.00 42.05 C 112.98 61.05 113.05 80.06 112.96 99.07 C 112.82 115.01 98.98 129.27 83.05 129.91 C 68.01 130.14 52.96 129.92 37.92 130.02 C 29.48 130.22 20.98 127.01 14.91 121.11 C 8.65 115.18 4.95 106.63 5.00 98.00 C 5.02 78.99 4.96 59.97 5.03 40.96 C 5.21 25.62 17.94 11.78 33.19 10.23 M 30.53 12.68 C 17.51 15.39 7.20 27.61 7.03 40.95 C 6.96 59.96 7.01 78.97 7.00 97.98 C 6.49 114.40 21.64 128.97 38.01 128.01 C 53.04 127.92 68.09 128.15 83.12 127.89 C 97.97 127.26 110.87 113.89 110.96 99.03 C 111.03 79.68 111.02 60.32 110.96 40.97 C 110.87 26.05 97.88 12.69 82.99 12.08 C 70.31 11.89 57.62 12.05 44.94 12.00 C 40.13 12.08 35.26 11.66 30.53 12.68 Z" />
</g>
<g id="#f8fcf8ff">
<path fill="#f8fcf8" opacity="1.00" d=" M 49.80 28.01 C 54.53 27.27 59.48 27.24 64.20 28.02 C 64.12 37.60 64.19 47.17 64.16 56.75 C 69.92 61.11 71.52 70.04 66.70 75.69 C 62.52 81.54 53.03 82.12 48.22 76.74 C 42.63 71.31 43.64 61.32 49.84 56.75 C 49.81 47.17 49.87 37.59 49.80 28.01 M 53.36 31.21 C 53.89 40.37 53.39 49.55 53.63 58.71 C 47.41 61.57 46.23 71.21 51.96 75.13 C 56.37 78.44 63.62 76.31 65.16 70.91 C 67.04 66.34 64.67 60.91 60.37 58.70 C 60.60 49.54 60.13 40.36 60.63 31.21 C 58.20 31.27 55.78 31.27 53.36 31.21 Z" />
<path fill="#f8fcf8" opacity="1.00" d=" M 55.16 51.14 C 56.38 50.17 57.61 50.17 58.84 51.14 C 59.09 54.09 58.71 57.05 58.93 60.00 C 61.20 61.83 64.32 63.66 64.17 67.02 C 64.65 70.28 62.18 72.98 59.58 74.52 C 54.47 76.84 48.57 71.10 49.96 65.89 C 50.37 63.05 53.17 61.70 55.07 59.95 C 55.29 57.02 54.91 54.08 55.16 51.14 Z" />
<path fill="#f8fcf8" opacity="1.00" d=" M 68.33 51.02 C 69.79 51.09 71.32 50.87 72.74 51.33 C 73.75 52.43 73.74 53.53 72.72 54.63 C 71.30 55.06 69.78 54.84 68.32 54.91 C 67.94 54.44 67.19 53.50 66.81 53.03 C 67.19 52.53 67.95 51.52 68.33 51.02 Z" />
</g>
</svg>
