<?xml version="1.0" encoding="UTF-8" ?>
<!DOCTYPE svg PUBLIC "-//W3C//DTD SVG 1.1//EN" "http://www.w3.org/Graphics/SVG/1.1/DTD/svg11.dtd">
<svg width="117px" height="140px" viewBox="0 0 117 140" version="1.1" xmlns="http://www.w3.org/2000/svg">
<g id="#000000ff">
<path fill="#000000" opacity="1.00" d=" M 0.00 0.00 L 117.00 0.00 L 117.00 140.00 L 0.00 140.00 L 0.00 0.00 M 33.20 10.23 C 17.94 11.77 5.21 25.61 5.02 40.96 C 4.98 60.33 4.98 79.70 5.02 99.07 C 5.20 115.03 19.02 129.27 34.97 129.92 C 50.66 130.08 66.36 130.00 82.06 129.96 C 98.00 129.81 112.24 116.01 112.92 100.10 C 113.11 80.74 112.95 61.38 113.00 42.03 C 113.06 33.38 109.37 24.82 103.09 18.89 C 96.99 12.95 88.44 9.76 79.96 9.98 C 64.37 10.17 48.77 9.69 33.20 10.23 Z" />
<path fill="#000000" opacity="1.00" d=" M 33.32 12.33 C 48.52 11.73 63.76 12.25 78.97 12.06 C 85.34 11.87 91.85 13.27 97.19 16.87 C 105.64 22.17 111.02 32.01 110.91 41.98 C 110.95 60.66 110.95 79.33 110.91 98.00 C 111.04 108.73 104.80 119.25 95.31 124.25 C 90.69 126.89 85.33 127.96 80.05 127.93 C 65.69 127.92 51.33 127.95 36.98 127.91 C 25.98 128.01 15.23 121.47 10.37 111.59 C 7.96 107.15 7.00 102.06 7.07 97.05 C 7.07 79.02 7.07 61.00 7.07 42.97 C 6.31 28.01 18.38 13.80 33.32 12.33 M 58.84 28.82 C 57.86 33.02 58.77 37.53 58.45 41.85 C 53.54 43.00 49.95 47.38 49.75 52.42 C 45.66 52.42 41.57 52.13 37.48 52.19 L 37.41 52.82 C 41.53 52.56 45.62 53.31 49.73 53.16 C 50.38 58.22 54.32 62.41 59.42 63.10 C 59.36 67.53 58.76 72.03 59.61 76.42 C 59.85 72.06 59.64 67.70 59.92 63.34 C 65.14 62.70 69.85 58.99 70.57 53.58 C 74.56 53.58 78.54 53.55 82.52 53.62 C 85.65 42.56 76.72 31.46 66.20 28.90 C 63.82 28.45 61.14 27.69 58.84 28.82 Z" />
<path fill="#000000" opacity="1.00" d=" M 51.87 48.04 C 54.13 42.45 62.45 41.17 66.54 45.45 C 71.74 49.90 69.70 59.77 62.97 61.50 C 59.68 62.76 56.27 61.37 53.58 59.44 C 50.97 56.31 50.00 51.79 51.87 48.04 Z" />
</g>
<g id="#737473ff">
<path fill="#737473" opacity="1.00" d=" M 33.20 10.23 C 48.77 9.69 64.37 10.17 79.96 9.98 C 88.44 9.76 96.99 12.95 103.09 18.89 C 109.37 24.82 113.06 33.38 113.00 42.03 C 112.95 61.38 113.11 80.74 112.92 100.10 C 112.24 116.01 98.00 129.81 82.06 129.96 C 66.36 130.00 50.66 130.08 34.97 129.92 C 19.02 129.27 5.20 115.03 5.02 99.07 C 4.98 79.70 4.98 60.33 5.02 40.96 C 5.21 25.61 17.94 11.77 33.20 10.23 M 33.32 12.33 C 18.38 13.80 6.31 28.01 7.07 42.97 C 7.07 61.00 7.07 79.02 7.07 97.05 C 7.00 102.06 7.96 107.15 10.37 111.59 C 15.23 121.47 25.98 128.01 36.98 127.91 C 51.33 127.95 65.69 127.92 80.05 127.93 C 85.33 127.96 90.69 126.89 95.31 124.25 C 104.80 119.25 111.04 108.73 110.91 98.00 C 110.95 79.33 110.95 60.66 110.91 41.98 C 111.02 32.01 105.64 22.17 97.19 16.87 C 91.85 13.27 85.34 11.87 78.97 12.06 C 63.76 12.25 48.52 11.73 33.32 12.33 Z" />
</g>
<g id="#f8fcf8ff">
<path fill="#f8fcf8" opacity="1.00" d=" M 58.84 28.82 C 61.14 27.69 63.82 28.45 66.20 28.90 C 76.72 31.46 85.65 42.56 82.52 53.62 C 78.54 53.55 74.56 53.58 70.57 53.58 C 69.85 58.99 65.14 62.70 59.92 63.34 C 59.64 67.70 59.85 72.06 59.61 76.42 C 58.76 72.03 59.36 67.53 59.42 63.10 C 54.32 62.41 50.38 58.22 49.73 53.16 C 45.62 53.31 41.53 52.56 37.41 52.82 L 37.48 52.19 C 41.57 52.13 45.66 52.42 49.75 52.42 C 49.95 47.38 53.54 43.00 58.45 41.85 C 58.77 37.53 57.86 33.02 58.84 28.82 M 51.87 48.04 C 50.00 51.79 50.97 56.31 53.58 59.44 C 56.27 61.37 59.68 62.76 62.97 61.50 C 69.70 59.77 71.74 49.90 66.54 45.45 C 62.45 41.17 54.13 42.45 51.87 48.04 Z" />
</g>
</svg>
