<?xml version="1.0" encoding="UTF-8" ?>
<!DOCTYPE svg PUBLIC "-//W3C//DTD SVG 1.1//EN" "http://www.w3.org/Graphics/SVG/1.1/DTD/svg11.dtd">
<svg width="117px" height="140px" viewBox="0 0 117 140" version="1.1" xmlns="http://www.w3.org/2000/svg">
<g id="#181818ff">
<path fill="#181818" opacity="1.00" d=" M 0.00 0.00 L 117.00 0.00 L 117.00 140.00 L 0.00 140.00 L 0.00 0.00 M 41.14 53.22 C 37.77 54.97 39.41 60.59 43.13 60.42 C 45.07 60.76 46.58 58.89 47.20 57.26 C 47.88 54.14 43.77 51.00 41.14 53.22 M 56.38 53.59 C 52.37 56.66 58.03 63.21 61.56 59.44 C 65.71 56.38 59.90 49.70 56.38 53.59 M 72.39 53.40 C 70.55 54.69 70.11 57.51 71.84 59.08 C 73.80 61.88 78.58 60.05 78.69 56.84 C 79.18 53.68 74.73 51.02 72.39 53.40 Z" />
</g>
<g id="#f8fcf8ff">
<path fill="#f8fcf8" opacity="1.00" d=" M 41.14 53.22 C 43.77 51.00 47.88 54.14 47.20 57.26 C 46.58 58.89 45.07 60.76 43.13 60.42 C 39.41 60.59 37.77 54.97 41.14 53.22 Z" />
<path fill="#f8fcf8" opacity="1.00" d=" M 56.38 53.59 C 59.90 49.70 65.71 56.38 61.56 59.44 C 58.03 63.21 52.37 56.66 56.38 53.59 Z" />
<path fill="#f8fcf8" opacity="1.00" d=" M 72.39 53.40 C 74.73 51.02 79.18 53.68 78.69 56.84 C 78.58 60.05 73.80 61.88 71.84 59.08 C 70.11 57.51 70.55 54.69 72.39 53.40 Z" />
</g>
</svg>
