<?xml version="1.0" encoding="UTF-8" ?>
<!DOCTYPE svg PUBLIC "-//W3C//DTD SVG 1.1//EN" "http://www.w3.org/Graphics/SVG/1.1/DTD/svg11.dtd">
<svg width="117px" height="140px" viewBox="0 0 117 140" version="1.1" xmlns="http://www.w3.org/2000/svg">
<g id="#181818ff">
<path fill="#181818" opacity="1.00" d=" M 0.00 0.00 L 117.00 0.00 L 117.00 140.00 L 0.00 140.00 L 0.00 0.00 M 21.50 8.68 C 20.95 9.70 20.05 10.65 20.11 11.88 C 19.87 18.91 20.06 25.95 20.00 32.98 C 19.99 37.36 20.01 41.74 20.01 46.13 C 19.98 51.23 20.02 56.33 20.00 61.42 C 19.98 66.30 20.01 71.18 20.03 76.06 C 20.02 79.72 19.90 83.37 20.05 87.03 C 20.15 88.32 20.10 89.83 21.20 90.75 C 22.67 92.38 25.13 91.62 27.06 91.90 L 26.79 91.19 C 28.30 92.38 31.09 92.17 31.61 90.06 C 31.48 90.52 31.22 91.45 31.09 91.92 C 51.74 92.08 72.39 91.98 93.04 91.99 C 95.04 92.16 97.39 91.19 97.79 89.03 C 98.28 84.77 97.93 80.48 97.98 76.21 C 97.98 71.53 98.03 66.85 97.98 62.17 C 97.98 56.80 98.02 51.42 97.99 46.04 C 97.99 42.01 98.01 37.98 97.99 33.96 C 97.91 29.69 98.20 25.41 97.87 21.15 C 97.92 17.55 98.41 13.84 97.59 10.30 C 96.68 8.08 94.06 7.90 92.00 7.98 C 72.54 8.07 53.08 7.89 33.62 8.08 C 33.27 7.27 32.90 6.48 32.48 5.71 C 30.75 4.84 28.97 3.59 26.92 4.03 C 24.36 4.46 23.03 6.87 21.50 8.68 Z" />
<path fill="#181818" opacity="1.00" d=" M 31.60 14.79 C 32.38 13.80 33.17 12.81 33.96 11.83 C 51.30 12.21 68.65 11.89 86.00 12.00 C 86.01 14.65 86.02 17.29 86.01 19.94 C 86.01 21.51 86.00 23.08 85.99 24.65 C 83.88 24.91 81.98 25.68 81.50 27.97 C 77.01 28.03 72.51 28.00 68.01 28.00 C 67.60 25.15 69.12 21.34 66.85 19.18 C 61.60 18.83 56.29 18.83 51.04 19.19 C 48.97 21.49 50.36 25.14 49.99 28.00 C 45.49 28.00 40.99 28.03 36.49 27.97 C 36.02 25.70 34.16 24.92 32.06 24.65 C 31.93 21.36 31.76 18.08 31.60 14.79 Z" />
<path fill="#181818" opacity="1.00" d=" M 88.00 12.00 C 90.00 12.00 92.00 12.00 94.00 12.00 C 94.00 14.74 93.97 17.47 94.01 20.21 C 94.00 24.50 94.00 28.79 94.00 33.08 C 94.00 37.40 94.01 41.72 94.00 46.04 C 93.98 50.31 94.01 54.59 94.05 58.86 C 94.07 64.64 93.99 70.42 94.00 76.20 C 93.99 80.13 93.99 84.06 93.99 87.99 C 92.00 88.00 90.00 88.00 88.01 88.00 C 87.83 79.48 88.44 70.92 87.56 62.43 C 89.31 61.73 91.77 61.65 92.59 59.61 C 93.43 58.04 92.48 56.35 91.94 54.85 C 90.63 54.50 89.31 54.20 87.97 53.97 C 87.90 49.77 87.94 45.56 88.01 41.35 C 89.18 40.80 91.02 41.10 91.74 39.86 C 92.13 37.61 92.02 35.31 92.06 33.04 C 92.02 30.74 92.14 28.41 91.75 26.14 C 91.08 24.85 89.17 25.22 88.01 24.67 C 88.00 23.14 88.00 21.61 87.99 20.08 C 87.98 17.39 87.99 14.69 88.00 12.00 Z" />
<path fill="#181818" opacity="1.00" d=" M 23.55 14.61 C 25.83 15.61 28.29 16.03 30.78 15.98 C 30.25 18.84 29.96 21.75 29.94 24.67 C 28.76 25.20 26.96 24.93 26.23 26.13 C 25.87 28.39 25.97 30.68 25.93 32.95 C 25.98 35.26 25.85 37.60 26.27 39.89 C 27.00 41.10 28.83 40.81 29.99 41.35 C 30.06 56.22 30.28 71.08 30.17 85.94 C 28.43 86.08 26.94 86.97 25.47 87.82 C 25.10 87.87 24.35 87.97 23.98 88.02 C 24.00 84.03 24.00 80.04 23.98 76.05 C 23.98 71.16 24.01 66.27 24.00 61.39 C 23.98 56.27 24.01 51.16 23.99 46.05 C 23.99 41.73 24.00 37.41 24.00 33.09 C 23.96 26.93 24.19 20.75 23.55 14.61 Z" />
<path fill="#181818" opacity="1.00" d=" M 35.96 30.00 C 40.62 30.00 45.28 30.00 49.93 30.00 C 49.97 30.45 50.05 31.35 50.08 31.80 C 50.07 33.20 50.04 34.60 50.00 36.00 C 45.36 36.00 40.71 36.00 36.07 36.00 C 36.05 35.48 36.02 34.45 36.00 33.93 C 35.98 32.62 35.96 31.31 35.96 30.00 Z" />
<path fill="#181818" opacity="1.00" d=" M 68.00 30.00 C 72.67 30.00 77.34 30.00 82.01 30.00 C 82.00 30.76 82.00 32.28 82.00 33.03 C 82.00 33.78 81.99 35.26 81.99 36.00 C 77.33 36.00 72.67 36.00 68.01 36.00 C 68.01 35.28 68.01 33.83 68.01 33.10 C 68.00 32.33 68.00 30.78 68.00 30.00 Z" />
<path fill="#181818" opacity="1.00" d=" M 36.50 38.05 C 40.92 37.96 45.35 38.00 49.77 38.00 C 50.23 39.51 49.57 41.83 51.17 42.74 C 53.07 43.07 55.01 43.01 56.93 43.08 C 57.01 43.82 57.19 45.30 57.27 46.05 C 58.42 46.06 59.57 46.06 60.73 46.06 C 60.81 45.31 60.98 43.82 61.07 43.08 C 63.18 42.90 65.47 43.30 67.46 42.43 C 67.95 41.00 68.02 39.48 68.24 38.00 C 72.65 38.00 77.07 37.97 81.48 38.03 C 82.02 40.27 83.89 41.07 85.99 41.38 C 85.98 45.99 86.33 50.61 85.84 55.21 C 85.08 57.04 84.93 59.00 86.14 60.70 L 86.15 60.72 C 86.02 69.81 85.95 78.90 85.99 87.99 C 84.65 88.00 83.32 88.00 81.99 88.01 C 81.99 87.51 82.00 86.50 82.00 86.00 C 82.02 84.53 82.02 83.06 82.04 81.60 C 82.87 80.84 83.65 80.04 84.39 79.19 C 79.37 78.92 74.35 78.96 69.33 79.04 C 69.60 78.02 69.85 77.00 70.09 75.98 C 70.03 74.48 70.03 72.95 69.50 71.53 C 68.20 71.20 66.86 71.02 65.53 70.84 C 66.96 67.53 63.07 66.63 60.97 65.16 C 61.27 63.46 60.85 61.45 62.02 60.02 C 63.16 59.11 64.65 58.80 65.96 58.22 C 65.68 57.22 65.90 55.88 64.93 55.23 C 63.50 55.07 62.07 54.98 60.63 54.97 C 61.42 53.96 62.42 53.08 62.90 51.87 C 63.36 50.00 61.84 48.51 61.06 46.98 C 59.69 46.96 58.32 46.95 56.95 46.93 C 56.13 48.50 54.65 50.04 55.10 51.97 C 55.73 53.04 56.53 53.99 57.31 54.96 C 55.76 55.16 54.02 54.78 52.59 55.56 C 52.34 56.43 52.16 57.32 52.07 58.23 C 53.37 58.84 54.88 59.10 56.00 60.04 C 57.22 61.47 56.82 63.48 56.87 65.20 C 54.84 66.75 51.04 67.58 52.48 70.87 C 51.10 71.24 49.11 70.67 48.26 72.13 C 48.03 73.41 47.92 74.70 47.93 76.01 C 48.16 77.02 48.40 78.03 48.67 79.04 C 43.71 78.95 38.75 78.98 33.79 79.10 C 35.60 81.02 36.47 83.40 36.06 86.05 C 36.05 86.53 36.02 87.48 36.01 87.95 C 34.73 88.01 33.46 88.06 32.18 88.12 L 31.80 87.68 C 31.72 72.25 31.93 56.81 32.01 41.38 C 34.08 41.09 35.97 40.27 36.50 38.05 Z" />
<path fill="#181818" opacity="1.00" d=" M 38.00 81.00 C 44.25 80.99 50.50 81.02 56.76 80.97 C 56.45 82.07 56.13 83.16 55.79 84.24 C 57.65 84.64 59.71 85.56 61.52 84.44 C 61.94 83.30 61.55 82.10 61.47 80.94 C 67.65 81.06 73.83 80.97 80.01 81.00 C 80.00 82.65 80.00 84.30 80.00 85.96 C 80.00 86.47 79.99 87.49 79.99 88.00 C 65.99 88.00 52.00 88.00 38.00 88.00 C 38.00 87.49 38.00 86.48 38.00 85.98 C 37.99 84.32 38.00 82.66 38.00 81.00 Z" />
</g>
<g id="#48c8d0ff">
<path fill="#ffffff" opacity="1.00" d=" M 21.50 8.68 C 23.03 6.87 24.36 4.46 26.92 4.03 C 28.97 3.59 30.75 4.84 32.48 5.71 C 29.77 8.86 26.87 11.88 23.42 14.23 C 22.73 12.39 22.14 10.53 21.50 8.68 Z" />
</g>
<g id="#3098b8ff">
<path fill="#ffffff" opacity="1.00" d=" M 32.48 5.71 C 32.90 6.48 33.27 7.27 33.62 8.08 C 33.76 9.33 33.87 10.58 33.96 11.83 C 33.17 12.81 32.38 13.80 31.60 14.79 L 31.12 15.39 L 29.69 14.06 L 30.78 15.98 C 28.29 16.03 25.83 15.61 23.55 14.61 L 23.42 14.23 C 26.87 11.88 29.77 8.86 32.48 5.71 Z" />
</g>
<g id="#9060f0ff">
<path fill="#ffffff" opacity="1.00" d=" M 33.62 8.08 C 53.08 7.89 72.54 8.07 92.00 7.98 C 94.06 7.90 96.68 8.08 97.59 10.30 C 98.41 13.84 97.92 17.55 97.87 21.15 L 97.78 20.12 C 97.39 20.36 96.60 20.84 96.21 21.07 L 96.18 20.11 C 95.64 20.14 94.55 20.19 94.01 20.21 C 93.97 17.47 94.00 14.74 94.00 12.00 C 92.00 12.00 90.00 12.00 88.00 12.00 C 87.99 14.69 87.98 17.39 87.99 20.08 C 87.50 20.05 86.51 19.97 86.01 19.94 C 86.02 17.29 86.01 14.65 86.00 12.00 C 68.65 11.89 51.30 12.21 33.96 11.83 C 33.87 10.58 33.76 9.33 33.62 8.08 Z" />
</g>
<g id="#7858e8ff">
<path fill="#ffffff" opacity="1.00" d=" M 20.11 11.88 C 20.05 10.65 20.95 9.70 21.50 8.68 C 22.14 10.53 22.73 12.39 23.42 14.23 L 23.55 14.61 C 24.19 20.75 23.96 26.93 24.00 33.09 C 22.67 33.05 21.34 33.02 20.00 32.98 C 20.06 25.95 19.87 18.91 20.11 11.88 Z" />
<path fill="#ffffff" opacity="1.00" d=" M 29.69 14.06 L 31.12 15.39 L 31.60 14.79 C 31.76 18.08 31.93 21.36 32.06 24.65 C 34.16 24.92 36.02 25.70 36.49 27.97 C 40.99 28.03 45.49 28.00 49.99 28.00 C 50.36 25.14 48.97 21.49 51.04 19.19 C 56.29 18.83 61.60 18.83 66.85 19.18 C 69.12 21.34 67.60 25.15 68.01 28.00 C 72.51 28.00 77.01 28.03 81.50 27.97 C 81.98 25.68 83.88 24.91 85.99 24.65 C 86.00 23.08 86.01 21.51 86.01 19.94 C 86.51 19.97 87.50 20.05 87.99 20.08 C 88.00 21.61 88.00 23.14 88.01 24.67 C 89.17 25.22 91.08 24.85 91.75 26.14 C 92.14 28.41 92.02 30.74 92.06 33.04 C 88.71 33.04 85.35 33.04 82.00 33.03 C 82.00 32.28 82.00 30.76 82.01 30.00 C 77.34 30.00 72.67 30.00 68.00 30.00 C 68.00 30.78 68.00 32.33 68.01 33.10 C 66.73 33.38 65.46 33.67 64.19 33.94 C 63.98 33.73 63.57 33.31 63.37 33.10 C 59.20 33.40 55.01 33.48 50.85 33.13 C 50.66 32.80 50.27 32.13 50.08 31.80 C 50.05 31.35 49.97 30.45 49.93 30.00 C 45.28 30.00 40.62 30.00 35.96 30.00 C 35.96 31.31 35.98 32.62 36.00 33.93 C 34.79 33.91 33.59 33.91 32.39 33.91 L 32.37 32.27 L 31.52 34.54 L 31.46 33.14 C 29.62 33.06 27.77 33.02 25.93 32.95 C 25.97 30.68 25.87 28.39 26.23 26.13 C 26.96 24.93 28.76 25.20 29.94 24.67 C 29.96 21.75 30.25 18.84 30.78 15.98 L 29.69 14.06 Z" />
<path fill="#ffffff" opacity="1.00" d=" M 94.01 20.21 C 94.55 20.19 95.64 20.14 96.18 20.11 L 96.21 21.07 C 96.60 20.84 97.39 20.36 97.78 20.12 L 97.87 21.15 C 98.20 25.41 97.91 29.69 97.99 33.96 C 96.66 33.66 95.33 33.37 94.00 33.08 C 94.00 28.79 94.00 24.50 94.01 20.21 Z" />
</g>
<g id="#6850e0ff">
<path fill="#ffffff" opacity="1.00" d=" M 50.08 31.80 C 50.27 32.13 50.66 32.80 50.85 33.13 C 55.01 33.48 59.20 33.40 63.37 33.10 C 63.57 33.31 63.98 33.73 64.19 33.94 C 65.46 33.67 66.73 33.38 68.01 33.10 C 68.01 33.83 68.01 35.28 68.01 36.00 C 72.67 36.00 77.33 36.00 81.99 36.00 C 81.99 35.26 82.00 33.78 82.00 33.03 C 85.35 33.04 88.71 33.04 92.06 33.04 C 92.02 35.31 92.13 37.61 91.74 39.86 C 91.02 41.10 89.18 40.80 88.01 41.35 C 87.94 45.56 87.90 49.77 87.97 53.97 C 87.44 54.28 86.37 54.90 85.84 55.21 C 86.33 50.61 85.98 45.99 85.99 41.38 C 83.89 41.07 82.02 40.27 81.48 38.03 C 77.07 37.97 72.65 38.00 68.24 38.00 C 68.02 39.48 67.95 41.00 67.46 42.43 C 65.47 43.30 63.18 42.90 61.07 43.08 C 60.98 43.82 60.81 45.31 60.73 46.06 C 59.57 46.06 58.42 46.06 57.27 46.05 C 57.19 45.30 57.01 43.82 56.93 43.08 C 55.01 43.01 53.07 43.07 51.17 42.74 C 49.57 41.83 50.23 39.51 49.77 38.00 C 45.35 38.00 40.92 37.96 36.50 38.05 C 35.97 40.27 34.08 41.09 32.01 41.38 C 31.93 56.81 31.72 72.25 31.80 87.68 C 31.40 87.25 30.58 86.38 30.17 85.94 C 30.28 71.08 30.06 56.22 29.99 41.35 C 28.83 40.81 27.00 41.10 26.27 39.89 C 25.85 37.60 25.98 35.26 25.93 32.95 C 27.77 33.02 29.62 33.06 31.46 33.14 L 31.52 34.54 L 32.37 32.27 L 32.39 33.91 C 33.59 33.91 34.79 33.91 36.00 33.93 C 36.02 34.45 36.05 35.48 36.07 36.00 C 40.71 36.00 45.36 36.00 50.00 36.00 C 50.04 34.60 50.07 33.20 50.08 31.80 Z" />
<path fill="#ffffff" opacity="1.00" d=" M 20.00 32.98 C 21.34 33.02 22.67 33.05 24.00 33.09 C 24.00 37.41 23.99 41.73 23.99 46.05 C 22.66 46.07 21.34 46.10 20.01 46.13 C 20.01 41.74 19.99 37.36 20.00 32.98 Z" />
<path fill="#ffffff" opacity="1.00" d=" M 94.00 33.08 C 95.33 33.37 96.66 33.66 97.99 33.96 C 98.01 37.98 97.99 42.01 97.99 46.04 C 96.66 46.04 95.33 46.04 94.00 46.04 C 94.01 41.72 94.00 37.40 94.00 33.08 Z" />
</g>
<g id="#5048d8ff">
<path fill="#ffffff" opacity="1.00" d=" M 20.01 46.13 C 21.34 46.10 22.66 46.07 23.99 46.05 C 24.01 51.16 23.98 56.27 24.00 61.39 C 22.66 61.40 21.33 61.40 20.00 61.42 C 20.02 56.33 19.98 51.23 20.01 46.13 Z" />
<path fill="#ffffff" opacity="1.00" d=" M 94.00 46.04 C 95.33 46.04 96.66 46.04 97.99 46.04 C 98.02 51.42 97.98 56.80 97.98 62.17 C 96.68 61.06 95.35 59.97 94.05 58.86 C 94.01 54.59 93.98 50.31 94.00 46.04 Z" />
</g>
<g id="#4848d8ff">
<path fill="#ffffff" opacity="1.00" d=" M 56.95 46.93 C 58.32 46.95 59.69 46.96 61.06 46.98 C 61.84 48.51 63.36 50.00 62.90 51.87 C 62.42 53.08 61.42 53.96 60.63 54.97 C 62.07 54.98 63.50 55.07 64.93 55.23 C 65.90 55.88 65.68 57.22 65.96 58.22 C 64.65 58.80 63.16 59.11 62.02 60.02 C 60.85 61.45 61.27 63.46 60.97 65.16 C 60.65 65.56 60.00 66.37 59.68 66.77 C 58.74 66.25 57.80 65.73 56.87 65.20 C 56.82 63.48 57.22 61.47 56.00 60.04 C 54.88 59.10 53.37 58.84 52.07 58.23 C 52.16 57.32 52.34 56.43 52.59 55.56 C 54.02 54.78 55.76 55.16 57.31 54.96 C 56.53 53.99 55.73 53.04 55.10 51.97 C 54.65 50.04 56.13 48.50 56.95 46.93 Z" />
</g>
<g id="#f8a898ff">
<path fill="#ffffff" opacity="1.00" d=" M 85.84 55.21 C 86.37 54.90 87.44 54.28 87.97 53.97 C 89.31 54.20 90.63 54.50 91.94 54.85 C 90.34 57.11 88.40 59.11 86.14 60.70 C 84.93 59.00 85.08 57.04 85.84 55.21 Z" />
</g>
<g id="#f88088ff">
<path fill="#ffffff" opacity="1.00" d=" M 91.94 54.85 C 92.48 56.35 93.43 58.04 92.59 59.61 C 91.77 61.65 89.31 61.73 87.56 62.43 C 87.21 62.00 86.50 61.15 86.15 60.72 L 86.14 60.70 C 88.40 59.11 90.34 57.11 91.94 54.85 Z" />
</g>
<g id="#3840d0ff">
<path fill="#ffffff" opacity="1.00" d=" M 94.05 58.86 C 95.35 59.97 96.68 61.06 97.98 62.17 C 98.03 66.85 97.98 71.53 97.98 76.21 C 96.65 76.21 95.33 76.21 94.00 76.20 C 93.99 70.42 94.07 64.64 94.05 58.86 Z" />
<path fill="#ffffff" opacity="1.00" d=" M 20.00 61.42 C 21.33 61.40 22.66 61.40 24.00 61.39 C 24.01 66.27 23.98 71.16 23.98 76.05 C 22.66 76.05 21.35 76.05 20.03 76.06 C 20.01 71.18 19.98 66.30 20.00 61.42 Z" />
</g>
<g id="#1830c0ff">
<path fill="#ffffff" opacity="1.00" d=" M 86.15 60.72 C 86.50 61.15 87.21 62.00 87.56 62.43 C 88.44 70.92 87.83 79.48 88.01 88.00 C 90.00 88.00 92.00 88.00 93.99 87.99 C 93.99 84.06 93.99 80.13 94.00 76.20 C 95.33 76.21 96.65 76.21 97.98 76.21 C 97.93 80.48 98.28 84.77 97.79 89.03 C 97.39 91.19 95.04 92.16 93.04 91.99 C 72.39 91.98 51.74 92.08 31.09 91.92 C 31.22 91.45 31.48 90.52 31.61 90.06 C 31.75 89.57 32.04 88.60 32.18 88.12 C 33.46 88.06 34.73 88.01 36.01 87.95 C 36.02 87.48 36.05 86.53 36.06 86.05 C 36.54 86.03 37.51 86.00 38.00 85.98 C 38.00 86.48 38.00 87.49 38.00 88.00 C 52.00 88.00 65.99 88.00 79.99 88.00 C 79.99 87.49 80.00 86.47 80.00 85.96 C 80.50 85.97 81.50 85.99 82.00 86.00 C 82.00 86.50 81.99 87.51 81.99 88.01 C 83.32 88.00 84.65 88.00 85.99 87.99 C 85.95 78.90 86.02 69.81 86.15 60.72 Z" />
</g>
<g id="#3040d0ff">
<path fill="#ffffff" opacity="1.00" d=" M 52.48 70.87 C 51.04 67.58 54.84 66.75 56.87 65.20 C 57.80 65.73 58.74 66.25 59.68 66.77 C 60.00 66.37 60.65 65.56 60.97 65.16 C 63.07 66.63 66.96 67.53 65.53 70.84 C 66.86 71.02 68.20 71.20 69.50 71.53 C 70.03 72.95 70.03 74.48 70.09 75.98 C 62.70 75.78 55.31 75.88 47.93 76.01 C 47.92 74.70 48.03 73.41 48.26 72.13 C 49.11 70.67 51.10 71.24 52.48 70.87 Z" />
</g>
<g id="#2038c8ff">
<path fill="#ffffff" opacity="1.00" d=" M 20.03 76.06 C 21.35 76.05 22.66 76.05 23.98 76.05 C 24.00 80.04 24.00 84.03 23.98 88.02 C 24.35 87.97 25.10 87.87 25.47 87.82 C 25.91 88.94 26.35 90.07 26.79 91.19 L 27.06 91.90 C 25.13 91.62 22.67 92.38 21.20 90.75 C 20.10 89.83 20.15 88.32 20.05 87.03 C 19.90 83.37 20.02 79.72 20.03 76.06 Z" />
</g>
<g id="#2838c8ff">
<path fill="#ffffff" opacity="1.00" d=" M 47.93 76.01 C 55.31 75.88 62.70 75.78 70.09 75.98 C 69.85 77.00 69.60 78.02 69.33 79.04 C 74.35 78.96 79.37 78.92 84.39 79.19 C 83.65 80.04 82.87 80.84 82.04 81.60 C 82.02 83.06 82.02 84.53 82.00 86.00 C 81.50 85.99 80.50 85.97 80.00 85.96 C 80.00 84.30 80.00 82.65 80.01 81.00 C 73.83 80.97 67.65 81.06 61.47 80.94 C 61.55 82.10 61.94 83.30 61.52 84.44 C 59.71 85.56 57.65 84.64 55.79 84.24 C 56.13 83.16 56.45 82.07 56.76 80.97 C 50.50 81.02 44.25 80.99 38.00 81.00 C 38.00 82.66 37.99 84.32 38.00 85.98 C 37.51 86.00 36.54 86.03 36.06 86.05 C 36.47 83.40 35.60 81.02 33.79 79.10 C 38.75 78.98 43.71 78.95 48.67 79.04 C 48.40 78.03 48.16 77.02 47.93 76.01 Z" />
</g>
<g id="#60d850ff">
<path fill="#ffffff" opacity="1.00" d=" M 25.47 87.82 C 26.94 86.97 28.43 86.08 30.17 85.94 C 30.58 86.38 31.40 87.25 31.80 87.68 L 32.18 88.12 C 32.04 88.60 31.75 89.57 31.61 90.06 C 31.09 92.17 28.30 92.38 26.79 91.19 C 26.35 90.07 25.91 88.94 25.47 87.82 Z" />
</g>
</svg>
