<?xml version="1.0" encoding="UTF-8" ?>
<!DOCTYPE svg PUBLIC "-//W3C//DTD SVG 1.1//EN" "http://www.w3.org/Graphics/SVG/1.1/DTD/svg11.dtd">
<svg width="117px" height="140px" viewBox="0 0 117 140" version="1.1" xmlns="http://www.w3.org/2000/svg">
<g id="#181818ff">
<path fill="#181818" opacity="1.00" d=" M 0.00 0.00 L 117.00 0.00 L 117.00 140.00 L 0.00 140.00 L 0.00 0.00 M 58.09 14.10 C 56.24 16.01 55.89 22.63 59.86 21.88 C 61.72 20.54 60.88 17.88 60.95 15.94 C 61.07 14.40 59.36 13.72 58.09 14.10 M 25.30 17.32 C 22.76 18.36 22.10 22.11 24.30 23.84 C 26.48 26.03 30.78 24.31 30.76 21.23 C 31.30 18.38 27.80 15.94 25.30 17.32 M 34.93 23.86 C 33.19 26.40 36.59 28.40 38.24 29.85 C 39.55 31.34 42.29 28.60 40.88 27.25 C 39.42 25.61 37.48 22.30 34.93 23.86 M 36.68 40.26 L 37.10 40.64 L 36.35 40.97 C 34.05 45.87 35.09 51.62 36.51 56.64 C 38.61 61.73 42.35 65.97 47.00 68.87 C 47.00 70.66 46.99 72.45 46.95 74.24 C 44.46 72.83 41.63 76.60 43.53 78.63 C 44.46 80.12 46.27 79.95 47.77 79.65 C 46.70 82.14 49.69 84.18 51.95 83.95 C 57.22 83.96 62.54 84.29 67.80 83.75 C 70.91 83.15 71.13 79.61 71.07 77.06 C 70.98 74.33 70.99 71.59 71.00 68.86 C 72.12 68.06 73.24 67.27 74.36 66.48 C 80.02 61.65 83.20 54.38 83.10 46.96 C 82.64 44.88 82.46 42.63 81.22 40.82 C 84.08 42.81 88.27 42.07 90.06 39.03 C 91.75 36.75 90.76 33.90 89.47 31.71 C 87.78 30.87 86.03 29.61 84.02 30.05 C 81.46 30.47 79.76 32.68 78.82 34.95 C 75.87 29.53 70.10 26.05 64.22 24.60 C 52.94 21.74 39.61 28.91 36.68 40.26 M 80.24 24.00 C 78.79 25.45 75.59 27.35 77.34 29.66 C 79.63 31.41 81.51 28.22 82.97 26.80 C 85.09 25.15 81.92 21.89 80.24 24.00 M 26.16 46.18 C 24.28 46.95 24.87 50.08 26.96 49.95 C 28.91 49.90 31.53 50.69 32.88 48.86 C 33.66 45.00 28.48 45.92 26.16 46.18 M 86.25 46.33 C 84.19 46.92 84.97 50.14 87.01 49.97 C 88.96 49.91 91.52 50.68 92.91 48.89 C 93.71 45.00 88.57 45.92 86.25 46.33 M 49.20 86.20 C 47.25 86.93 47.93 90.16 50.05 89.91 C 56.05 90.04 62.08 90.07 68.08 89.90 C 70.56 90.12 70.51 85.84 68.06 86.09 C 61.78 85.98 55.47 85.79 49.20 86.20 M 47.67 92.11 C 48.49 93.53 49.12 95.56 51.03 95.81 C 56.05 96.20 61.12 96.03 66.15 95.92 C 68.45 96.06 69.49 93.83 70.33 92.10 C 62.78 91.93 55.22 91.93 47.67 92.11 Z" />
<path fill="#181818" opacity="1.00" d=" M 40.33 40.69 C 43.04 34.27 49.01 29.25 55.98 28.30 C 63.90 26.97 72.26 31.01 76.25 37.96 C 77.17 39.91 77.93 41.93 78.57 43.98 C 80.24 52.00 76.59 60.77 69.52 64.98 C 68.70 65.49 67.87 65.99 67.04 66.49 C 66.97 70.34 67.05 74.20 66.99 78.05 C 66.97 78.54 66.93 79.51 66.91 79.99 C 61.60 80.01 56.29 80.02 50.98 79.96 C 50.97 78.20 50.95 76.44 50.95 74.68 C 51.02 71.97 51.00 69.26 50.96 66.55 C 46.46 64.04 42.55 60.43 40.46 55.64 C 38.57 50.87 38.74 45.52 40.33 40.69 M 52.00 49.26 C 50.88 47.64 50.83 43.86 48.02 45.02 C 49.21 48.24 50.59 51.38 52.05 54.48 C 53.34 51.39 54.59 48.27 55.85 45.16 C 56.82 48.27 57.76 51.39 58.70 54.51 C 60.10 52.13 61.47 49.74 62.83 47.34 C 64.34 50.42 65.71 53.55 67.12 56.67 C 68.47 52.87 69.77 49.06 70.95 45.21 C 70.47 45.08 69.51 44.83 69.03 44.70 C 68.30 46.86 67.57 49.02 66.84 51.18 C 65.61 48.37 64.37 45.57 63.12 42.77 C 61.83 44.98 60.55 47.21 59.29 49.44 C 58.27 45.94 57.24 42.45 56.15 38.97 C 54.72 42.38 53.36 45.82 52.00 49.26 Z" />
</g>
<g id="#9060f0ff">
<path fill="#ffffff" opacity="1.00" d=" M 58.09 14.10 C 59.36 13.72 61.07 14.40 60.95 15.94 C 60.88 17.88 61.72 20.54 59.86 21.88 C 55.89 22.63 56.24 16.01 58.09 14.10 Z" />
</g>
<g id="#40b8c8ff">
<path fill="#ffffff" opacity="1.00" d=" M 25.30 17.32 C 27.80 15.94 31.30 18.38 30.76 21.23 C 30.78 24.31 26.48 26.03 24.30 23.84 C 22.10 22.11 22.76 18.36 25.30 17.32 Z" />
</g>
<g id="#8058e8ff">
<path fill="#ffffff" opacity="1.00" d=" M 34.93 23.86 C 37.48 22.30 39.42 25.61 40.88 27.25 C 42.29 28.60 39.55 31.34 38.24 29.85 C 36.59 28.40 33.19 26.40 34.93 23.86 Z" />
<path fill="#ffffff" opacity="1.00" d=" M 36.68 40.26 C 39.61 28.91 52.94 21.74 64.22 24.60 C 70.10 26.05 75.87 29.53 78.82 34.95 C 78.86 35.35 78.94 36.14 78.97 36.54 C 78.07 37.01 77.16 37.48 76.25 37.96 C 72.26 31.01 63.90 26.97 55.98 28.30 C 49.01 29.25 43.04 34.27 40.33 40.69 C 39.53 40.67 37.91 40.65 37.10 40.64 L 36.68 40.26 Z" />
<path fill="#ffffff" opacity="1.00" d=" M 80.24 24.00 C 81.92 21.89 85.09 25.15 82.97 26.80 C 81.51 28.22 79.63 31.41 77.34 29.66 C 75.59 27.35 78.79 25.45 80.24 24.00 Z" />
</g>
<g id="#f8a898ff">
<path fill="#ffffff" opacity="1.00" d=" M 78.82 34.95 C 79.76 32.68 81.46 30.47 84.02 30.05 C 86.03 29.61 87.78 30.87 89.47 31.71 C 86.67 34.62 83.81 37.47 80.82 40.20 C 80.11 39.03 79.46 37.82 78.97 36.54 C 78.94 36.14 78.86 35.35 78.82 34.95 Z" />
</g>
<g id="#f88888ff">
<path fill="#ffffff" opacity="1.00" d=" M 89.47 31.71 C 90.76 33.90 91.75 36.75 90.06 39.03 C 88.27 42.07 84.08 42.81 81.22 40.82 C 81.12 40.67 80.92 40.35 80.82 40.20 C 83.81 37.47 86.67 34.62 89.47 31.71 Z" />
</g>
<g id="#5341abff">
<path fill="#ffffff" opacity="1.00" d=" M 76.25 37.96 C 77.16 37.48 78.07 37.01 78.97 36.54 C 79.46 37.82 80.11 39.03 80.82 40.20 C 80.92 40.35 81.12 40.67 81.22 40.82 C 82.46 42.63 82.64 44.88 83.10 46.96 C 81.59 45.98 80.08 44.98 78.57 43.98 C 77.93 41.93 77.17 39.91 76.25 37.96 Z" />
</g>
<g id="#6050d8ff">
<path fill="#ffffff" opacity="1.00" d=" M 52.00 49.26 C 53.36 45.82 54.72 42.38 56.15 38.97 C 57.24 42.45 58.27 45.94 59.29 49.44 C 60.55 47.21 61.83 44.98 63.12 42.77 C 64.37 45.57 65.61 48.37 66.84 51.18 C 67.57 49.02 68.30 46.86 69.03 44.70 C 69.51 44.83 70.47 45.08 70.95 45.21 C 69.77 49.06 68.47 52.87 67.12 56.67 C 65.71 53.55 64.34 50.42 62.83 47.34 C 61.47 49.74 60.10 52.13 58.70 54.51 C 57.76 51.39 56.82 48.27 55.85 45.16 C 54.59 48.27 53.34 51.39 52.05 54.48 C 50.59 51.38 49.21 48.24 48.02 45.02 C 50.83 43.86 50.88 47.64 52.00 49.26 Z" />
<path fill="#ffffff" opacity="1.00" d=" M 86.25 46.33 C 88.57 45.92 93.71 45.00 92.91 48.89 C 91.52 50.68 88.96 49.91 87.01 49.97 C 84.97 50.14 84.19 46.92 86.25 46.33 Z" />
</g>
<g id="#6050e0ff">
<path fill="#ffffff" opacity="1.00" d=" M 36.35 40.97 L 37.10 40.64 C 37.91 40.65 39.53 40.67 40.33 40.69 C 38.74 45.52 38.57 50.87 40.46 55.64 C 39.48 55.89 37.50 56.39 36.51 56.64 C 35.09 51.62 34.05 45.87 36.35 40.97 Z" />
<path fill="#ffffff" opacity="1.00" d=" M 26.16 46.18 C 28.48 45.92 33.66 45.00 32.88 48.86 C 31.53 50.69 28.91 49.90 26.96 49.95 C 24.87 50.08 24.28 46.95 26.16 46.18 Z" />
</g>
<g id="#5848d8ff">
<path fill="#ffffff" opacity="1.00" d=" M 78.57 43.98 C 80.08 44.98 81.59 45.98 83.10 46.96 C 83.20 54.38 80.02 61.65 74.36 66.48 C 72.74 65.98 71.13 65.48 69.52 64.98 C 76.59 60.77 80.24 52.00 78.57 43.98 Z" />
</g>
<g id="#4048d0ff">
<path fill="#ffffff" opacity="1.00" d=" M 36.51 56.64 C 37.50 56.39 39.48 55.89 40.46 55.64 C 42.55 60.43 46.46 64.04 50.96 66.55 C 51.00 69.26 51.02 71.97 50.95 74.68 C 50.56 74.98 49.78 75.57 49.39 75.86 C 48.78 75.46 47.56 74.65 46.95 74.24 C 46.99 72.45 47.00 70.66 47.00 68.87 C 42.35 65.97 38.61 61.73 36.51 56.64 Z" />
</g>
<g id="#3840d0ff">
<path fill="#ffffff" opacity="1.00" d=" M 67.04 66.49 C 67.87 65.99 68.70 65.49 69.52 64.98 C 71.13 65.48 72.74 65.98 74.36 66.48 C 73.24 67.27 72.12 68.06 71.00 68.86 C 70.99 71.59 70.98 74.33 71.07 77.06 C 69.70 77.37 68.34 77.67 66.99 78.05 C 67.05 74.20 66.97 70.34 67.04 66.49 Z" />
</g>
<g id="#98e010ff">
<path fill="#ffffff" opacity="1.00" d=" M 43.53 78.63 C 41.63 76.60 44.46 72.83 46.95 74.24 C 47.56 74.65 48.78 75.46 49.39 75.86 C 48.80 77.10 48.29 78.38 47.77 79.65 C 46.27 79.95 44.46 80.12 43.53 78.63 Z" />
</g>
<g id="#2838c8ff">
<path fill="#ffffff" opacity="1.00" d=" M 49.39 75.86 C 49.78 75.57 50.56 74.98 50.95 74.68 C 50.95 76.44 50.97 78.20 50.98 79.96 C 56.29 80.02 61.60 80.01 66.91 79.99 C 66.93 79.51 66.97 78.54 66.99 78.05 C 68.34 77.67 69.70 77.37 71.07 77.06 C 71.13 79.61 70.91 83.15 67.80 83.75 C 62.54 84.29 57.22 83.96 51.95 83.95 C 49.69 84.18 46.70 82.14 47.77 79.65 C 48.29 78.38 48.80 77.10 49.39 75.86 Z" />
</g>
<g id="#2038c8ff">
<path fill="#ffffff" opacity="1.00" d=" M 49.20 86.20 C 55.47 85.79 61.78 85.98 68.06 86.09 C 70.51 85.84 70.56 90.12 68.08 89.90 C 62.08 90.07 56.05 90.04 50.05 89.91 C 47.93 90.16 47.25 86.93 49.20 86.20 Z" />
</g>
<g id="#1830c0ff">
<path fill="#ffffff" opacity="1.00" d=" M 47.67 92.11 C 55.22 91.93 62.78 91.93 70.33 92.10 C 69.49 93.83 68.45 96.06 66.15 95.92 C 61.12 96.03 56.05 96.20 51.03 95.81 C 49.12 95.56 48.49 93.53 47.67 92.11 Z" />
</g>
</svg>
