<?xml version="1.0" encoding="UTF-8" ?>
<!DOCTYPE svg PUBLIC "-//W3C//DTD SVG 1.1//EN" "http://www.w3.org/Graphics/SVG/1.1/DTD/svg11.dtd">
<svg width="117pt" height="140pt" viewBox="0 0 117 140" version="1.1" xmlns="http://www.w3.org/2000/svg">
<g id="#000000ff">
<path fill="#000000" opacity="1.00" d=" M 0.00 0.00 L 117.00 0.00 L 117.00 140.00 L 0.00 140.00 L 0.00 0.00 M 29.47 10.66 C 15.36 13.39 4.18 26.60 4.01 40.99 C 4.02 60.66 3.93 80.34 4.06 100.01 C 4.68 115.99 19.00 129.87 35.01 129.99 C 50.69 129.97 66.39 130.09 82.07 129.92 C 98.02 129.28 111.86 115.00 111.98 99.04 C 112.02 79.71 112.01 60.37 111.98 41.03 C 111.90 25.02 98.00 10.69 82.01 10.07 C 68.00 9.88 53.99 10.08 39.98 9.98 C 36.47 9.95 32.92 9.93 29.47 10.66 Z" />
<path fill="#000000" opacity="1.00" d=" M 29.47 12.71 C 33.27 11.85 37.18 12.01 41.04 12.00 C 54.70 12.06 68.37 11.88 82.02 12.10 C 96.90 12.74 109.85 26.08 109.95 40.99 C 110.03 60.34 110.04 79.71 109.95 99.07 C 109.84 114.31 96.27 127.82 81.05 127.95 C 65.70 128.04 50.36 128.02 35.02 127.96 C 19.75 127.85 6.15 114.31 6.04 99.03 C 5.97 79.70 5.98 60.37 6.04 41.04 C 6.18 27.70 16.46 15.45 29.47 12.71 M 37.58 42.00 C 37.58 50.67 37.58 59.33 37.58 68.00 C 44.86 68.00 52.14 68.00 59.42 68.00 C 59.41 66.00 59.41 64.00 59.42 62.00 C 55.06 61.99 50.70 62.06 46.34 61.92 C 46.37 60.62 46.39 59.33 46.41 58.04 C 49.94 58.01 53.47 57.97 57.00 58.01 C 57.00 55.87 57.00 53.72 57.00 51.58 C 53.47 51.58 49.93 51.58 46.40 51.60 C 46.40 50.53 46.40 49.46 46.40 48.40 C 50.60 48.43 54.80 48.42 59.00 48.42 C 59.00 46.28 59.00 44.14 59.00 42.00 C 51.86 42.00 44.72 42.00 37.58 42.00 M 62.35 54.85 C 63.51 60.40 69.82 60.45 74.07 62.16 C 74.94 65.58 69.27 64.85 69.12 61.99 C 66.68 61.99 64.25 62.01 61.82 62.11 C 62.72 68.15 70.09 69.11 75.00 68.12 C 78.24 67.85 81.91 65.72 81.88 62.08 C 82.05 58.38 77.98 56.89 75.03 56.17 C 73.12 55.45 70.14 55.65 69.78 53.05 C 70.60 52.98 72.26 52.84 73.09 52.78 C 73.41 53.24 74.06 54.17 74.38 54.63 C 76.64 54.62 78.91 54.63 81.17 54.61 C 80.69 48.40 72.65 47.65 67.93 49.03 C 64.87 49.46 63.00 52.01 62.35 54.85 Z" />
</g>
<g id="#6a84bcff">
<path fill="#6a84bc" opacity="1.00" d=" M 29.47 10.66 C 32.92 9.93 36.47 9.95 39.98 9.98 C 53.99 10.08 68.00 9.88 82.01 10.07 C 98.00 10.69 111.90 25.02 111.98 41.03 C 112.01 60.37 112.02 79.71 111.98 99.04 C 111.86 115.00 98.02 129.28 82.07 129.92 C 66.39 130.09 50.69 129.97 35.01 129.99 C 19.00 129.87 4.68 115.99 4.06 100.01 C 3.93 80.34 4.02 60.66 4.01 40.99 C 4.18 26.60 15.36 13.39 29.47 10.66 M 29.47 12.71 C 16.46 15.45 6.18 27.70 6.04 41.04 C 5.98 60.37 5.97 79.70 6.04 99.03 C 6.15 114.31 19.75 127.85 35.02 127.96 C 50.36 128.02 65.70 128.04 81.05 127.95 C 96.27 127.82 109.84 114.31 109.95 99.07 C 110.04 79.71 110.03 60.34 109.95 40.99 C 109.85 26.08 96.90 12.74 82.02 12.10 C 68.37 11.88 54.70 12.06 41.04 12.00 C 37.18 12.01 33.27 11.85 29.47 12.71 Z" />
</g>
<g id="#f8fcf8ff">
<path fill="#f8fcf8" opacity="1.00" d=" M 37.58 42.00 C 44.72 42.00 51.86 42.00 59.00 42.00 C 59.00 44.14 59.00 46.28 59.00 48.42 C 54.80 48.42 50.60 48.43 46.40 48.40 C 46.40 49.46 46.40 50.53 46.40 51.60 C 49.93 51.58 53.47 51.58 57.00 51.58 C 57.00 53.72 57.00 55.87 57.00 58.01 C 53.47 57.97 49.94 58.01 46.41 58.04 C 46.39 59.33 46.37 60.62 46.34 61.92 C 50.70 62.06 55.06 61.99 59.42 62.00 C 59.41 64.00 59.41 66.00 59.42 68.00 C 52.14 68.00 44.86 68.00 37.58 68.00 C 37.58 59.33 37.58 50.67 37.58 42.00 Z" />
<path fill="#f8fcf8" opacity="1.00" d=" M 62.35 54.85 C 63.00 52.01 64.87 49.46 67.93 49.03 C 72.65 47.65 80.69 48.40 81.17 54.61 C 78.91 54.63 76.64 54.62 74.38 54.63 C 74.06 54.17 73.41 53.24 73.09 52.78 C 72.26 52.84 70.60 52.98 69.78 53.05 C 70.14 55.65 73.12 55.45 75.03 56.17 C 77.98 56.89 82.05 58.38 81.88 62.08 C 81.91 65.72 78.24 67.85 75.00 68.12 C 70.09 69.11 62.72 68.15 61.82 62.11 C 64.25 62.01 66.68 61.99 69.12 61.99 C 69.27 64.85 74.94 65.58 74.07 62.16 C 69.82 60.45 63.51 60.40 62.35 54.85 Z" />
</g>
</svg>
