<?xml version="1.0" encoding="UTF-8" ?>
<!DOCTYPE svg PUBLIC "-//W3C//DTD SVG 1.1//EN" "http://www.w3.org/Graphics/SVG/1.1/DTD/svg11.dtd">
<svg width="117px" height="140px" viewBox="0 0 117 140" version="1.1" xmlns="http://www.w3.org/2000/svg">
<g id="#000000ff">
<path fill="#000000" opacity="1.00" d=" M 0.00 0.00 L 117.00 0.00 L 117.00 140.00 L 0.00 140.00 L 0.00 0.00 M 33.18 10.25 C 17.91 11.79 5.18 25.68 5.03 41.04 C 4.98 60.36 4.97 79.69 5.04 99.01 C 5.17 114.97 18.99 129.25 34.94 129.90 C 49.30 130.14 63.67 129.92 78.03 130.01 C 83.01 130.10 88.09 129.70 92.73 127.75 C 105.79 122.83 114.19 108.80 113.01 94.98 C 112.97 77.31 113.04 59.63 112.98 41.96 C 113.08 31.17 107.18 20.62 98.03 14.94 C 92.40 11.32 85.63 9.76 78.97 9.98 C 63.71 10.18 48.42 9.67 33.18 10.25 Z" />
<path fill="#000000" opacity="1.00" d=" M 33.30 12.29 C 49.55 11.77 65.83 12.13 82.10 12.11 C 97.28 12.23 110.81 25.73 110.89 40.93 C 110.99 60.29 110.99 79.66 110.89 99.02 C 110.85 114.23 97.30 127.78 82.10 127.88 C 66.73 128.01 51.37 127.97 36.00 127.90 C 20.79 127.82 7.22 114.33 7.10 99.10 C 7.02 79.70 7.02 60.30 7.10 40.90 C 7.25 26.65 19.13 13.75 33.30 12.29 M 60.33 41.76 C 55.35 42.02 50.99 45.58 49.85 50.44 C 45.90 50.54 41.95 50.33 38.01 50.48 C 36.17 50.38 36.20 52.74 36.27 54.01 C 36.71 66.29 49.03 77.97 61.60 74.55 C 61.56 70.55 61.59 66.56 61.57 62.56 C 67.02 61.87 70.71 57.12 71.40 51.90 C 75.73 51.67 80.06 51.87 84.38 51.65 C 80.02 50.73 75.52 51.36 71.11 51.40 C 70.42 46.15 65.99 42.34 60.88 41.62 C 60.70 37.24 60.92 32.85 60.65 28.47 C 59.78 32.84 60.32 37.33 60.33 41.76 Z" />
<path fill="#000000" opacity="1.00" d=" M 52.92 45.95 C 56.96 42.17 63.35 41.91 67.51 45.64 C 70.91 49.59 70.84 56.33 66.41 59.49 C 61.85 63.10 54.31 61.63 51.80 56.26 C 50.09 52.93 50.96 48.96 52.92 45.95 Z" />
</g>
<g id="#788cc0ff">
<path fill="#788cc0" opacity="1.00" d=" M 33.18 10.25 C 48.42 9.67 63.71 10.18 78.97 9.98 C 85.63 9.76 92.40 11.32 98.03 14.94 C 107.18 20.62 113.08 31.17 112.98 41.96 C 113.04 59.63 112.97 77.31 113.01 94.98 C 114.19 108.80 105.79 122.83 92.73 127.75 C 88.09 129.70 83.01 130.10 78.03 130.01 C 63.67 129.92 49.30 130.14 34.94 129.90 C 18.99 129.25 5.17 114.97 5.04 99.01 C 4.97 79.69 4.98 60.36 5.03 41.04 C 5.18 25.68 17.91 11.79 33.18 10.25 M 33.30 12.29 C 19.13 13.75 7.25 26.65 7.10 40.90 C 7.02 60.30 7.02 79.70 7.10 99.10 C 7.22 114.33 20.79 127.82 36.00 127.90 C 51.37 127.97 66.73 128.01 82.10 127.88 C 97.30 127.78 110.85 114.23 110.89 99.02 C 110.99 79.66 110.99 60.29 110.89 40.93 C 110.81 25.73 97.28 12.23 82.10 12.11 C 65.83 12.13 49.55 11.77 33.30 12.29 Z" />
</g>
<g id="#f8fcf8ff">
<path fill="#f8fcf8" opacity="1.00" d=" M 60.33 41.76 C 60.32 37.33 59.78 32.84 60.65 28.47 C 60.92 32.85 60.70 37.24 60.88 41.62 C 65.99 42.34 70.42 46.15 71.11 51.40 C 75.52 51.36 80.02 50.73 84.38 51.65 C 80.06 51.87 75.73 51.67 71.40 51.90 C 70.71 57.12 67.02 61.87 61.57 62.56 C 61.59 66.56 61.56 70.55 61.60 74.55 C 49.03 77.97 36.71 66.29 36.27 54.01 C 36.20 52.74 36.17 50.38 38.01 50.48 C 41.95 50.33 45.90 50.54 49.85 50.44 C 50.99 45.58 55.35 42.02 60.33 41.76 M 52.92 45.95 C 50.96 48.96 50.09 52.93 51.80 56.26 C 54.31 61.63 61.85 63.10 66.41 59.49 C 70.84 56.33 70.91 49.59 67.51 45.64 C 63.35 41.91 56.96 42.17 52.92 45.95 Z" />
</g>
</svg>
