<?xml version="1.0" encoding="UTF-8" ?>
<!DOCTYPE svg PUBLIC "-//W3C//DTD SVG 1.1//EN" "http://www.w3.org/Graphics/SVG/1.1/DTD/svg11.dtd">
<svg width="117px" height="140px" viewBox="0 0 117 140" version="1.1" xmlns="http://www.w3.org/2000/svg">
<g id="#000000ff">
<path fill="#000000" opacity="1.00" d=" M 0.00 0.00 L 117.00 0.00 L 117.00 140.00 L 0.00 140.00 L 0.00 0.00 M 33.20 10.25 C 17.94 11.78 5.22 25.63 5.04 40.96 C 4.95 59.99 5.02 79.02 5.01 98.05 C 4.95 108.08 10.01 117.92 18.12 123.80 C 23.82 128.03 30.95 130.17 38.03 130.01 C 52.71 129.95 67.39 130.08 82.06 129.94 C 93.45 129.73 104.33 122.75 109.44 112.60 C 112.17 107.53 113.15 101.72 113.01 96.01 C 112.97 77.98 113.03 59.96 112.98 41.93 C 113.02 33.06 109.10 24.30 102.52 18.37 C 96.48 12.77 88.20 9.81 79.99 9.99 C 64.39 10.17 48.78 9.67 33.20 10.25 Z" />
<path fill="#000000" opacity="1.00" d=" M 33.25 12.30 C 49.50 11.77 65.79 12.13 82.06 12.10 C 97.26 12.21 110.82 25.73 110.89 40.94 C 111.02 59.61 110.92 78.29 110.94 96.96 C 111.95 113.30 97.42 128.40 81.05 127.92 C 66.01 127.96 50.96 128.00 35.93 127.90 C 20.71 127.78 7.18 114.26 7.10 99.04 C 7.02 79.67 7.02 60.31 7.10 40.94 C 7.23 26.69 19.09 13.78 33.25 12.30 M 45.13 38.08 C 44.20 40.97 43.79 43.97 43.98 47.00 C 41.99 47.00 39.99 47.00 38.00 47.00 C 38.00 47.75 38.00 49.25 38.00 50.00 C 39.98 50.00 41.97 50.00 43.95 50.00 C 43.81 52.69 44.36 55.33 45.13 57.90 C 47.69 58.85 50.65 58.69 52.56 56.52 C 55.27 53.81 60.07 52.31 60.47 47.99 C 60.04 43.65 55.20 42.14 52.47 39.41 C 50.59 37.24 47.65 37.19 45.13 38.08 M 57.83 77.35 C 52.39 77.42 46.95 77.40 41.51 77.37 C 41.56 75.68 41.61 73.99 41.66 72.30 C 41.02 72.25 39.74 72.17 39.10 72.12 C 39.29 74.66 37.97 78.54 40.98 79.82 C 52.96 80.01 64.97 80.01 76.94 79.82 C 80.05 78.67 78.69 74.67 78.92 72.15 C 78.27 72.18 76.99 72.25 76.34 72.28 C 76.40 73.98 76.44 75.67 76.49 77.37 C 71.05 77.40 65.61 77.42 60.18 77.35 C 60.30 75.28 60.31 73.19 60.11 71.12 C 56.36 70.61 58.03 75.18 57.83 77.35 Z" />
<path fill="#000000" opacity="1.00" d=" M 49.00 41.81 C 51.67 43.86 54.33 45.93 56.99 48.00 C 54.33 50.07 51.67 52.14 49.00 54.19 C 49.00 50.06 49.00 45.94 49.00 41.81 Z" />
</g>
<g id="#788cc0ff">
<path fill="#788cc0" opacity="1.00" d=" M 33.20 10.25 C 48.78 9.67 64.39 10.17 79.99 9.99 C 88.20 9.81 96.48 12.77 102.52 18.37 C 109.10 24.30 113.02 33.06 112.98 41.93 C 113.03 59.96 112.97 77.98 113.01 96.01 C 113.15 101.72 112.17 107.53 109.44 112.60 C 104.33 122.75 93.45 129.73 82.06 129.94 C 67.39 130.08 52.71 129.95 38.03 130.01 C 30.95 130.17 23.82 128.03 18.12 123.80 C 10.01 117.92 4.95 108.08 5.01 98.05 C 5.02 79.02 4.95 59.99 5.04 40.96 C 5.22 25.63 17.94 11.78 33.20 10.25 M 33.25 12.30 C 19.09 13.78 7.23 26.69 7.10 40.94 C 7.02 60.31 7.02 79.67 7.10 99.04 C 7.18 114.26 20.71 127.78 35.93 127.90 C 50.96 128.00 66.01 127.96 81.05 127.92 C 97.42 128.40 111.95 113.30 110.94 96.96 C 110.92 78.29 111.02 59.61 110.89 40.94 C 110.82 25.73 97.26 12.21 82.06 12.10 C 65.79 12.13 49.50 11.77 33.25 12.30 Z" />
</g>
<g id="#f8fcf8ff">
<path fill="#f8fcf8" opacity="1.00" d=" M 45.13 38.08 C 47.65 37.19 50.59 37.24 52.47 39.41 C 55.20 42.14 60.04 43.65 60.47 47.99 C 60.07 52.31 55.27 53.81 52.56 56.52 C 50.65 58.69 47.69 58.85 45.13 57.90 C 44.36 55.33 43.81 52.69 43.95 50.00 C 41.97 50.00 39.98 50.00 38.00 50.00 C 38.00 49.25 38.00 47.75 38.00 47.00 C 39.99 47.00 41.99 47.00 43.98 47.00 C 43.79 43.97 44.20 40.97 45.13 38.08 M 49.00 41.81 C 49.00 45.94 49.00 50.06 49.00 54.19 C 51.67 52.14 54.33 50.07 56.99 48.00 C 54.33 45.93 51.67 43.86 49.00 41.81 Z" />
<path fill="#f8fcf8" opacity="1.00" d=" M 57.83 77.35 C 58.03 75.18 56.36 70.61 60.11 71.12 C 60.31 73.19 60.30 75.28 60.18 77.35 C 65.61 77.42 71.05 77.40 76.49 77.37 C 76.44 75.67 76.40 73.98 76.34 72.28 C 76.99 72.25 78.27 72.18 78.92 72.15 C 78.69 74.67 80.05 78.67 76.94 79.82 C 64.97 80.01 52.96 80.01 40.98 79.82 C 37.97 78.54 39.29 74.66 39.10 72.12 C 39.74 72.17 41.02 72.25 41.66 72.30 C 41.61 73.99 41.56 75.68 41.51 77.37 C 46.95 77.40 52.39 77.42 57.83 77.35 Z" />
</g>
</svg>
