<?xml version="1.0" encoding="UTF-8" ?>
<!DOCTYPE svg PUBLIC "-//W3C//DTD SVG 1.1//EN" "http://www.w3.org/Graphics/SVG/1.1/DTD/svg11.dtd">
<svg width="117pt" height="140pt" viewBox="0 0 117 140" version="1.1" xmlns="http://www.w3.org/2000/svg">
<g id="#384450ff">
<path fill="#384450" opacity="1.00" d=" M 0.00 0.00 L 117.00 0.00 L 117.00 140.00 L 0.00 140.00 L 0.00 0.00 M 41.25 53.14 C 38.97 54.27 38.55 57.82 40.61 59.36 C 42.24 61.10 45.34 60.72 46.48 58.62 C 49.17 55.56 44.41 50.68 41.25 53.14 M 56.52 53.44 C 54.85 54.78 54.45 57.45 56.02 59.02 C 57.51 61.23 61.29 60.84 62.38 58.43 C 64.84 55.01 59.50 50.40 56.52 53.44 M 72.41 53.39 C 71.37 54.26 70.43 55.59 70.79 57.02 C 71.20 60.35 75.96 61.77 77.91 58.82 C 80.85 55.58 75.59 50.31 72.41 53.39 Z" />
</g>
<g id="#f8fcf8ff">
<path fill="#f8fcf8" opacity="1.00" d=" M 41.25 53.14 C 44.41 50.68 49.17 55.56 46.48 58.62 C 45.34 60.72 42.24 61.10 40.61 59.36 C 38.55 57.82 38.97 54.27 41.25 53.14 Z" />
<path fill="#f8fcf8" opacity="1.00" d=" M 56.52 53.44 C 59.50 50.40 64.84 55.01 62.38 58.43 C 61.29 60.84 57.51 61.23 56.02 59.02 C 54.45 57.45 54.85 54.78 56.52 53.44 Z" />
<path fill="#f8fcf8" opacity="1.00" d=" M 72.41 53.39 C 75.59 50.31 80.85 55.58 77.91 58.82 C 75.96 61.77 71.20 60.35 70.79 57.02 C 70.43 55.59 71.37 54.26 72.41 53.39 Z" />
</g>
</svg>
