<?xml version="1.0" encoding="UTF-8" ?>
<!DOCTYPE svg PUBLIC "-//W3C//DTD SVG 1.1//EN" "http://www.w3.org/Graphics/SVG/1.1/DTD/svg11.dtd">
<svg width="117px" height="140px" viewBox="0 0 117 140" version="1.1" xmlns="http://www.w3.org/2000/svg">
<g id="#384450ff">
<path fill="#384450" opacity="1.00" d=" M 0.00 0.00 L 117.00 0.00 L 117.00 140.00 L 0.00 140.00 L 0.00 0.00 M 41.23 53.15 C 36.39 55.58 41.57 63.21 45.60 59.60 C 49.72 56.98 45.13 50.30 41.23 53.15 M 56.47 53.50 C 54.56 54.97 54.58 58.01 56.46 59.50 C 58.65 61.77 62.67 59.86 62.95 56.91 C 63.43 53.62 58.90 50.93 56.47 53.50 M 72.37 53.41 C 67.88 56.31 73.67 63.25 77.34 59.38 C 81.36 56.50 75.93 49.99 72.37 53.41 Z" />
</g>
<g id="#f8fcf8ff">
<path fill="#f8fcf8" opacity="1.00" d=" M 41.23 53.15 C 45.13 50.30 49.72 56.98 45.60 59.60 C 41.57 63.21 36.39 55.58 41.23 53.15 Z" />
<path fill="#f8fcf8" opacity="1.00" d=" M 56.47 53.50 C 58.90 50.93 63.43 53.62 62.95 56.91 C 62.67 59.86 58.65 61.77 56.46 59.50 C 54.58 58.01 54.56 54.97 56.47 53.50 Z" />
<path fill="#f8fcf8" opacity="1.00" d=" M 72.37 53.41 C 75.93 49.99 81.36 56.50 77.34 59.38 C 73.67 63.25 67.88 56.31 72.37 53.41 Z" />
</g>
</svg>
