<?xml version="1.0" encoding="UTF-8" ?>
<!DOCTYPE svg PUBLIC "-//W3C//DTD SVG 1.1//EN" "http://www.w3.org/Graphics/SVG/1.1/DTD/svg11.dtd">
<svg width="117pt" height="140pt" viewBox="0 0 117 140" version="1.1" xmlns="http://www.w3.org/2000/svg">
<g id="#000000ff">
<path fill="#000000" opacity="1.00" d=" M 0.00 0.00 L 117.00 0.00 L 117.00 140.00 L 0.00 140.00 L 0.00 0.00 M 33.25 10.24 C 17.98 11.74 5.21 25.61 5.04 40.97 C 4.97 60.30 4.98 79.64 5.04 98.98 C 5.16 114.96 18.99 129.26 34.96 129.90 C 50.32 130.12 65.68 129.97 81.04 129.98 C 92.32 130.09 103.32 123.63 108.80 113.79 C 111.75 108.73 113.09 102.86 113.00 97.03 C 112.99 78.68 113.03 60.34 112.98 42.00 C 113.10 30.94 106.91 20.14 97.39 14.55 C 91.90 11.20 85.40 9.79 79.00 9.98 C 63.76 10.17 48.49 9.68 33.25 10.24 Z" />
<path fill="#000000" opacity="1.00" d=" M 33.24 12.30 C 49.50 11.77 65.80 12.13 82.08 12.10 C 97.31 12.22 110.87 25.80 110.89 41.04 C 111.03 59.01 110.90 76.99 110.96 94.96 C 111.08 100.41 110.57 106.05 108.00 110.96 C 103.23 121.17 92.29 128.10 81.01 127.92 C 65.98 127.95 50.95 128.00 35.92 127.90 C 20.72 127.78 7.20 114.27 7.10 99.06 C 7.02 79.67 7.02 60.28 7.10 40.88 C 7.26 26.65 19.11 13.78 33.24 12.30 M 48.24 31.44 C 49.56 34.85 50.90 38.27 52.20 41.70 C 56.45 39.50 61.54 39.46 65.79 41.69 C 67.10 38.27 68.44 34.86 69.76 31.44 C 63.02 28.21 54.98 28.20 48.24 31.44 M 35.89 53.69 C 36.37 53.54 37.32 53.23 37.79 53.08 C 38.51 47.95 40.30 42.75 44.16 39.14 C 45.36 37.89 47.46 36.97 46.94 34.87 C 39.92 38.18 36.33 46.26 35.89 53.69 M 70.95 34.96 C 70.69 36.97 72.61 37.89 73.81 39.12 C 77.68 42.72 79.50 47.91 80.18 53.04 C 80.66 53.20 81.62 53.53 82.10 53.69 C 81.65 46.31 78.12 37.96 70.95 34.96 M 42.18 52.88 C 42.64 52.67 43.56 52.26 44.02 52.06 C 44.60 49.81 45.15 47.45 46.63 45.60 C 47.75 43.98 49.60 42.56 48.98 40.34 C 44.98 43.21 42.24 47.90 42.18 52.88 M 69.02 40.34 C 68.41 42.57 70.28 43.98 71.39 45.61 C 72.88 47.51 73.42 49.91 74.03 52.18 C 74.51 52.32 75.45 52.59 75.93 52.72 C 75.59 47.82 73.03 43.17 69.02 40.34 M 55.38 47.21 C 50.41 49.55 50.30 57.41 55.17 59.90 C 59.66 62.79 66.45 59.37 66.46 53.94 C 66.97 48.35 60.09 44.35 55.38 47.21 M 73.09 55.12 C 72.84 59.85 70.28 64.16 66.23 66.61 C 68.63 69.43 70.97 72.30 73.37 75.12 C 79.55 71.10 83.56 64.22 84.14 56.87 C 80.45 56.28 76.77 55.73 73.09 55.12 M 33.86 56.87 C 34.39 64.24 38.50 70.90 44.45 75.16 C 47.05 72.43 49.34 69.44 51.76 66.58 C 47.69 64.18 45.16 59.83 44.90 55.13 C 41.22 55.72 37.54 56.29 33.86 56.87 M 52.83 69.90 C 56.83 71.34 61.19 71.28 65.21 69.93 C 64.86 69.56 64.18 68.83 63.84 68.46 C 60.62 69.06 57.39 69.06 54.17 68.45 C 53.83 68.82 53.16 69.54 52.83 69.90 M 48.75 74.56 C 55.09 77.65 63.33 78.18 69.35 74.13 C 68.22 73.51 66.97 73.31 65.78 73.86 C 61.17 75.49 56.09 75.29 51.51 73.66 C 50.41 72.99 49.58 73.97 48.75 74.56 Z" />
</g>
<g id="#788cc0ff">
<path fill="#788cc0" opacity="1.00" d=" M 33.25 10.24 C 48.49 9.68 63.76 10.17 79.00 9.98 C 85.40 9.79 91.90 11.20 97.39 14.55 C 106.91 20.14 113.10 30.94 112.98 42.00 C 113.03 60.34 112.99 78.68 113.00 97.03 C 113.09 102.86 111.75 108.73 108.80 113.79 C 103.32 123.63 92.32 130.09 81.04 129.98 C 65.68 129.97 50.32 130.12 34.96 129.90 C 18.99 129.26 5.16 114.96 5.04 98.98 C 4.98 79.64 4.97 60.30 5.04 40.97 C 5.21 25.61 17.98 11.74 33.25 10.24 M 33.24 12.30 C 19.11 13.78 7.26 26.65 7.10 40.88 C 7.02 60.28 7.02 79.67 7.10 99.06 C 7.20 114.27 20.72 127.78 35.92 127.90 C 50.95 128.00 65.98 127.95 81.01 127.92 C 92.29 128.10 103.23 121.17 108.00 110.96 C 110.57 106.05 111.08 100.41 110.96 94.96 C 110.90 76.99 111.03 59.01 110.89 41.04 C 110.87 25.80 97.31 12.22 82.08 12.10 C 65.80 12.13 49.50 11.77 33.24 12.30 Z" />
</g>
<g id="#f8fcf8ff">
<path fill="#f8fcf8" opacity="1.00" d=" M 48.24 31.44 C 54.98 28.20 63.02 28.21 69.76 31.44 C 68.44 34.86 67.10 38.27 65.79 41.69 C 61.54 39.46 56.45 39.50 52.20 41.70 C 50.90 38.27 49.56 34.85 48.24 31.44 Z" />
<path fill="#f8fcf8" opacity="1.00" d=" M 35.89 53.69 C 36.33 46.26 39.92 38.18 46.94 34.87 C 47.46 36.97 45.36 37.89 44.16 39.14 C 40.30 42.75 38.51 47.95 37.79 53.08 C 37.32 53.23 36.37 53.54 35.89 53.69 Z" />
<path fill="#f8fcf8" opacity="1.00" d=" M 70.95 34.96 C 78.12 37.96 81.65 46.31 82.10 53.69 C 81.62 53.53 80.66 53.20 80.18 53.04 C 79.50 47.91 77.68 42.72 73.81 39.12 C 72.61 37.89 70.69 36.97 70.95 34.96 Z" />
<path fill="#f8fcf8" opacity="1.00" d=" M 42.18 52.88 C 42.24 47.90 44.98 43.21 48.98 40.34 C 49.60 42.56 47.75 43.98 46.63 45.60 C 45.15 47.45 44.60 49.81 44.02 52.06 C 43.56 52.26 42.64 52.67 42.18 52.88 Z" />
<path fill="#f8fcf8" opacity="1.00" d=" M 69.02 40.34 C 73.03 43.17 75.59 47.82 75.93 52.72 C 75.45 52.59 74.51 52.32 74.03 52.18 C 73.42 49.91 72.88 47.51 71.39 45.61 C 70.28 43.98 68.41 42.57 69.02 40.34 Z" />
<path fill="#f8fcf8" opacity="1.00" d=" M 55.38 47.21 C 60.09 44.35 66.97 48.35 66.46 53.94 C 66.45 59.37 59.66 62.79 55.17 59.90 C 50.30 57.41 50.41 49.55 55.38 47.21 Z" />
<path fill="#f8fcf8" opacity="1.00" d=" M 73.09 55.12 C 76.77 55.73 80.45 56.28 84.14 56.87 C 83.56 64.22 79.55 71.10 73.37 75.12 C 70.97 72.30 68.63 69.43 66.23 66.61 C 70.28 64.16 72.84 59.85 73.09 55.12 Z" />
<path fill="#f8fcf8" opacity="1.00" d=" M 33.86 56.87 C 37.54 56.29 41.22 55.72 44.90 55.13 C 45.16 59.83 47.69 64.18 51.76 66.58 C 49.34 69.44 47.05 72.43 44.45 75.16 C 38.50 70.90 34.39 64.24 33.86 56.87 Z" />
<path fill="#f8fcf8" opacity="1.00" d=" M 52.83 69.90 C 53.16 69.54 53.83 68.82 54.17 68.45 C 57.39 69.06 60.62 69.06 63.84 68.46 C 64.18 68.83 64.86 69.56 65.21 69.93 C 61.19 71.28 56.83 71.34 52.83 69.90 Z" />
<path fill="#f8fcf8" opacity="1.00" d=" M 48.75 74.56 C 49.58 73.97 50.41 72.99 51.51 73.66 C 56.09 75.29 61.17 75.49 65.78 73.86 C 66.97 73.31 68.22 73.51 69.35 74.13 C 63.33 78.18 55.09 77.65 48.75 74.56 Z" />
</g>
</svg>
