<?xml version="1.0" encoding="UTF-8" ?>
<!DOCTYPE svg PUBLIC "-//W3C//DTD SVG 1.1//EN" "http://www.w3.org/Graphics/SVG/1.1/DTD/svg11.dtd">
<svg width="100pt" height="100pt" viewBox="0 0 100 100" version="1.1" xmlns="http://www.w3.org/2000/svg">
<g id="#505050ff">
<path fill="#505050" opacity="1.00" d=" M 0.00 0.00 L 100.00 0.00 L 100.00 100.00 L 0.00 100.00 L 0.00 0.00 M 35.93 22.98 C 35.84 28.98 35.94 34.98 35.89 40.99 C 32.52 41.36 28.85 40.27 25.68 41.66 C 23.93 44.30 24.18 47.84 25.31 50.76 C 28.24 52.27 31.59 52.10 34.79 52.02 C 34.70 52.51 34.52 53.48 34.43 53.97 C 38.68 59.71 44.24 64.37 48.92 69.77 C 48.28 71.19 48.15 72.66 48.53 74.18 C 47.18 76.55 42.98 77.42 43.24 80.74 C 48.06 84.36 55.36 81.46 60.12 85.07 C 53.75 87.47 46.55 86.20 39.89 87.48 C 45.17 88.43 50.59 88.03 55.88 87.31 C 58.10 86.95 60.56 86.64 62.21 84.94 C 62.07 84.59 61.80 83.89 61.66 83.53 C 56.63 81.44 50.66 82.50 45.76 80.10 L 45.66 79.22 C 47.49 77.44 49.25 74.94 51.99 74.73 C 51.90 73.23 52.43 71.53 51.38 70.26 C 56.18 65.37 60.92 60.42 65.69 55.50 C 66.69 54.46 66.81 53.30 66.05 52.00 C 69.35 52.01 72.91 52.43 75.97 50.92 C 76.41 48.08 76.65 44.92 75.96 42.11 C 72.58 40.29 68.43 41.38 64.73 41.02 C 64.64 34.36 65.05 27.68 64.50 21.04 C 64.15 18.87 61.45 19.01 59.87 18.26 C 53.56 18.10 47.23 18.22 40.92 18.21 C 38.34 18.15 35.98 20.39 35.93 22.98 Z" />
<path fill="#505050" opacity="1.00" d=" M 61.01 20.44 C 61.50 20.58 62.48 20.84 62.97 20.98 C 63.03 27.31 63.00 33.66 62.98 40.00 C 62.49 40.00 61.51 40.00 61.02 40.00 C 60.98 33.48 60.99 26.96 61.01 20.44 Z" />
<path fill="#505050" opacity="1.00" d=" M 38.00 24.02 C 42.67 23.99 47.33 23.98 52.00 24.02 C 52.00 24.51 52.00 25.49 52.00 25.98 C 47.33 26.01 42.67 26.01 38.00 25.98 C 38.00 25.49 38.00 24.51 38.00 24.02 Z" />
<path fill="#505050" opacity="1.00" d=" M 38.00 32.02 C 42.00 31.98 46.00 31.99 50.00 32.02 C 50.00 32.51 50.00 33.49 50.00 33.98 C 46.00 34.01 42.00 34.01 38.00 33.98 C 38.00 33.49 38.00 32.51 38.00 32.02 Z" />
</g>
<g id="#f8fcf8ff">
<path fill="#f8fcf8" opacity="1.00" d=" M 35.93 22.98 C 35.98 20.39 38.34 18.15 40.92 18.21 C 47.23 18.22 53.56 18.10 59.87 18.26 C 61.45 19.01 64.15 18.87 64.50 21.04 C 65.05 27.68 64.64 34.36 64.73 41.02 C 68.43 41.38 72.58 40.29 75.96 42.11 C 76.65 44.92 76.41 48.08 75.97 50.92 C 72.91 52.43 69.35 52.01 66.05 52.00 C 66.81 53.30 66.69 54.46 65.69 55.50 C 60.92 60.42 56.18 65.37 51.38 70.26 C 52.43 71.53 51.90 73.23 51.99 74.73 C 49.25 74.94 47.49 77.44 45.66 79.22 L 45.76 80.10 C 50.66 82.50 56.63 81.44 61.66 83.53 C 61.80 83.89 62.07 84.59 62.21 84.94 C 60.56 86.64 58.10 86.95 55.88 87.31 C 50.59 88.03 45.17 88.43 39.89 87.48 C 46.55 86.20 53.75 87.47 60.12 85.07 C 55.36 81.46 48.06 84.36 43.24 80.74 C 42.98 77.42 47.18 76.55 48.53 74.18 C 48.15 72.66 48.28 71.19 48.92 69.77 C 44.24 64.37 38.68 59.71 34.43 53.97 C 34.52 53.48 34.70 52.51 34.79 52.02 C 31.59 52.10 28.24 52.27 25.31 50.76 C 24.18 47.84 23.93 44.30 25.68 41.66 C 28.85 40.27 32.52 41.36 35.89 40.99 C 35.94 34.98 35.84 28.98 35.93 22.98 M 61.01 20.44 C 60.99 26.96 60.98 33.48 61.02 40.00 C 61.51 40.00 62.49 40.00 62.98 40.00 C 63.00 33.66 63.03 27.31 62.97 20.98 C 62.48 20.84 61.50 20.58 61.01 20.44 M 38.00 24.02 C 38.00 24.51 38.00 25.49 38.00 25.98 C 42.67 26.01 47.33 26.01 52.00 25.98 C 52.00 25.49 52.00 24.51 52.00 24.02 C 47.33 23.98 42.67 23.99 38.00 24.02 M 38.00 32.02 C 38.00 32.51 38.00 33.49 38.00 33.98 C 42.00 34.01 46.00 34.01 50.00 33.98 C 50.00 33.49 50.00 32.51 50.00 32.02 C 46.00 31.99 42.00 31.98 38.00 32.02 M 71.86 43.01 C 71.81 44.66 71.88 46.32 71.85 47.97 C 68.90 48.04 65.95 47.97 63.00 48.00 C 62.98 49.85 63.01 51.69 63.00 53.54 C 58.38 58.10 53.80 62.70 49.27 67.34 C 49.74 68.64 50.93 69.33 51.78 67.90 C 55.75 63.79 59.77 59.73 63.82 55.69 C 65.25 54.19 65.46 51.97 65.25 50.00 C 68.17 50.20 71.08 49.97 74.00 50.00 C 74.00 47.67 74.01 45.33 74.00 43.00 C 73.46 43.00 72.40 43.01 71.86 43.01 Z" />
</g>
<g id="#565656ff">
<path fill="#565656" opacity="1.00" d=" M 71.86 43.01 C 72.40 43.01 73.46 43.00 74.00 43.00 C 74.01 45.33 74.00 47.67 74.00 50.00 C 71.08 49.97 68.17 50.20 65.25 50.00 C 65.46 51.97 65.25 54.19 63.82 55.69 C 59.77 59.73 55.75 63.79 51.78 67.90 C 50.93 69.33 49.74 68.64 49.27 67.34 C 53.80 62.70 58.38 58.10 63.00 53.54 C 63.01 51.69 62.98 49.85 63.00 48.00 C 65.95 47.97 68.90 48.04 71.85 47.97 C 71.88 46.32 71.81 44.66 71.86 43.01 Z" />
</g>
</svg>
