<?xml version="1.0" encoding="UTF-8" ?>
<!DOCTYPE svg PUBLIC "-//W3C//DTD SVG 1.1//EN" "http://www.w3.org/Graphics/SVG/1.1/DTD/svg11.dtd">
<svg width="117px" height="140px" viewBox="0 0 117 140" version="1.1" xmlns="http://www.w3.org/2000/svg">
<g id="#000000ff">
<path fill="#000000" opacity="1.00" d=" M 0.00 0.00 L 117.00 0.00 L 117.00 140.00 L 0.00 140.00 L 0.00 0.00 M 33.17 10.22 C 17.91 11.77 5.16 25.63 5.01 40.98 C 5.02 60.67 4.92 80.36 5.06 100.04 C 5.71 116.01 19.99 129.85 35.98 129.98 C 51.66 129.98 67.34 130.09 83.01 129.93 C 98.97 129.31 112.84 115.04 112.98 99.07 C 112.99 79.36 113.08 59.65 112.93 39.95 C 112.29 23.99 98.02 10.17 82.05 10.02 C 65.76 10.11 49.45 9.72 33.17 10.22 Z" />
<path fill="#000000" opacity="1.00" d=" M 30.51 12.70 C 34.95 11.73 39.53 12.06 44.04 12.00 C 57.04 12.06 70.05 11.87 83.06 12.10 C 97.91 12.75 110.83 26.08 110.95 40.96 C 111.03 60.30 111.03 79.65 110.95 98.99 C 110.88 114.26 97.30 127.83 82.05 127.95 C 66.69 128.04 51.33 128.02 35.97 127.96 C 20.73 127.83 7.15 114.29 7.04 99.03 C 6.97 79.68 6.97 60.33 7.04 40.97 C 7.21 27.64 17.51 15.42 30.51 12.70 M 45.93 37.99 C 44.75 40.14 43.43 42.21 41.97 44.18 C 42.90 45.48 43.85 46.78 44.78 48.08 C 44.08 48.11 42.69 48.17 42.00 48.20 C 42.00 49.46 42.00 50.73 42.00 51.99 C 42.60 52.00 43.81 52.01 44.41 52.02 C 44.39 53.30 44.36 54.59 44.33 55.87 C 46.32 56.00 48.32 56.08 50.30 56.35 C 48.89 56.70 47.46 56.96 46.03 57.23 C 46.12 58.47 46.21 59.71 46.31 60.94 C 49.30 60.93 52.29 60.67 55.28 60.65 C 51.68 62.01 47.73 61.78 43.96 62.07 C 44.05 63.61 44.15 65.16 44.24 66.70 C 45.05 66.66 46.67 66.57 47.48 66.52 C 45.73 67.21 43.95 67.86 42.17 68.49 C 43.56 69.84 44.91 71.24 46.21 72.68 C 48.58 71.54 50.96 70.40 53.32 69.22 C 53.59 69.90 54.13 71.28 54.40 71.96 C 57.53 71.84 63.18 73.19 63.03 68.30 C 66.13 69.70 69.19 71.18 72.20 72.77 C 73.36 71.30 74.50 69.80 75.72 68.37 C 74.54 67.79 73.36 67.22 72.18 66.63 C 73.10 66.26 74.93 65.51 75.85 65.13 C 74.11 62.58 72.30 60.07 70.49 57.56 C 68.82 58.49 66.50 58.79 65.78 60.83 C 65.18 61.13 63.98 61.74 63.39 62.04 C 64.21 59.57 67.27 58.71 69.03 57.00 C 68.47 56.49 67.33 55.47 66.77 54.96 C 68.94 56.06 71.11 57.18 73.37 58.10 C 74.52 55.89 75.56 53.63 76.73 51.42 C 75.08 51.05 73.44 50.62 71.80 50.19 C 72.84 48.41 73.03 45.42 75.63 45.37 C 75.62 43.70 75.62 42.03 75.63 40.36 C 72.81 40.38 69.99 40.38 67.17 40.46 C 67.37 39.94 67.76 38.92 67.96 38.40 C 66.03 38.31 64.11 38.17 62.19 38.07 C 61.64 39.42 61.09 40.77 60.54 42.13 C 60.49 41.60 60.40 40.53 60.35 40.00 C 57.45 40.00 54.55 40.00 51.66 40.00 C 51.68 39.55 51.73 38.65 51.75 38.20 C 49.81 38.15 47.87 38.06 45.93 37.99 Z" />
<path fill="#000000" opacity="1.00" d=" M 48.54 44.98 C 51.74 43.26 55.88 43.74 59.28 44.70 C 55.75 45.45 52.11 45.23 48.54 44.98 Z" />
<path fill="#000000" opacity="1.00" d=" M 59.73 48.11 C 61.20 48.58 62.06 49.85 62.99 50.96 C 61.50 51.76 60.02 52.60 58.53 53.39 C 59.31 54.47 60.11 55.54 60.89 56.63 C 59.53 56.84 58.17 57.04 56.81 57.24 C 58.52 56.14 58.51 54.28 58.44 52.48 C 60.59 51.93 59.64 49.69 59.73 48.11 Z" />
<path fill="#000000" opacity="1.00" d=" M 52.44 52.19 C 55.44 50.59 52.69 55.47 52.44 52.19 Z" />
<path fill="#000000" opacity="1.00" d=" M 53.66 66.38 C 54.58 65.07 55.47 65.10 56.33 66.48 C 55.43 67.84 54.54 67.81 53.66 66.38 Z" />
</g>
<g id="#7186b5ff">
<path fill="#7186b5" opacity="1.00" d=" M 33.17 10.22 C 49.45 9.72 65.76 10.11 82.05 10.02 C 98.02 10.17 112.29 23.99 112.93 39.95 C 113.08 59.65 112.99 79.36 112.98 99.07 C 112.84 115.04 98.97 129.31 83.01 129.93 C 67.34 130.09 51.66 129.98 35.98 129.98 C 19.99 129.85 5.71 116.01 5.06 100.04 C 4.92 80.36 5.02 60.67 5.01 40.98 C 5.16 25.63 17.91 11.77 33.17 10.22 M 30.51 12.70 C 17.51 15.42 7.21 27.64 7.04 40.97 C 6.97 60.33 6.97 79.68 7.04 99.03 C 7.15 114.29 20.73 127.83 35.97 127.96 C 51.33 128.02 66.69 128.04 82.05 127.95 C 97.30 127.83 110.88 114.26 110.95 98.99 C 111.03 79.65 111.03 60.30 110.95 40.96 C 110.83 26.08 97.91 12.75 83.06 12.10 C 70.05 11.87 57.04 12.06 44.04 12.00 C 39.53 12.06 34.95 11.73 30.51 12.70 Z" />
</g>
<g id="#f8fcf8ff">
<path fill="#f8fcf8" opacity="1.00" d=" M 45.93 37.99 C 47.87 38.06 49.81 38.15 51.75 38.20 C 51.73 38.65 51.68 39.55 51.66 40.00 C 54.55 40.00 57.45 40.00 60.35 40.00 C 60.40 40.53 60.49 41.60 60.54 42.13 C 61.09 40.77 61.64 39.42 62.19 38.07 C 64.11 38.17 66.03 38.31 67.96 38.40 C 67.76 38.92 67.37 39.94 67.17 40.46 C 69.99 40.38 72.81 40.38 75.63 40.36 C 75.62 42.03 75.62 43.70 75.63 45.37 C 73.03 45.42 72.84 48.41 71.80 50.19 C 73.44 50.62 75.08 51.05 76.73 51.42 C 75.56 53.63 74.52 55.89 73.37 58.10 C 71.11 57.18 68.94 56.06 66.77 54.96 C 67.33 55.47 68.47 56.49 69.03 57.00 C 67.27 58.71 64.21 59.57 63.39 62.04 C 63.98 61.74 65.18 61.13 65.78 60.83 C 66.50 58.79 68.82 58.49 70.49 57.56 C 72.30 60.07 74.11 62.58 75.85 65.13 C 74.93 65.51 73.10 66.26 72.18 66.63 C 73.36 67.22 74.54 67.79 75.72 68.37 C 74.50 69.80 73.36 71.30 72.20 72.77 C 69.19 71.18 66.13 69.70 63.03 68.30 C 63.18 73.19 57.53 71.84 54.40 71.96 C 54.13 71.28 53.59 69.90 53.32 69.22 C 50.96 70.40 48.58 71.54 46.21 72.68 C 44.91 71.24 43.56 69.84 42.17 68.49 C 43.95 67.86 45.73 67.21 47.48 66.52 C 46.67 66.57 45.05 66.66 44.24 66.70 C 44.15 65.16 44.05 63.61 43.96 62.07 C 47.73 61.78 51.68 62.01 55.28 60.65 C 52.29 60.67 49.30 60.93 46.31 60.94 C 46.21 59.71 46.12 58.47 46.03 57.23 C 47.46 56.96 48.89 56.70 50.30 56.35 C 48.32 56.08 46.32 56.00 44.33 55.87 C 44.36 54.59 44.39 53.30 44.41 52.02 C 43.81 52.01 42.60 52.00 42.00 51.99 C 42.00 50.73 42.00 49.46 42.00 48.20 C 42.69 48.17 44.08 48.11 44.78 48.08 C 43.85 46.78 42.90 45.48 41.97 44.18 C 43.43 42.21 44.75 40.14 45.93 37.99 M 48.54 44.98 C 52.11 45.23 55.75 45.45 59.28 44.70 C 55.88 43.74 51.74 43.26 48.54 44.98 M 66.07 45.22 C 65.60 46.85 66.17 47.40 67.80 46.85 C 68.26 45.23 67.68 44.68 66.07 45.22 M 49.33 47.35 C 49.89 47.92 49.89 47.92 49.33 47.35 M 53.23 47.37 C 53.82 47.92 53.82 47.92 53.23 47.37 M 58.47 47.25 C 59.02 47.81 59.02 47.81 58.47 47.25 M 59.73 48.11 C 59.64 49.69 60.59 51.93 58.44 52.48 C 58.51 54.28 58.52 56.14 56.81 57.24 C 58.17 57.04 59.53 56.84 60.89 56.63 C 60.11 55.54 59.31 54.47 58.53 53.39 C 60.02 52.60 61.50 51.76 62.99 50.96 C 62.06 49.85 61.20 48.58 59.73 48.11 M 49.21 52.32 C 49.84 52.94 49.84 52.94 49.21 52.32 M 52.44 52.19 C 52.69 55.47 55.44 50.59 52.44 52.19 M 53.66 66.38 C 54.54 67.81 55.43 67.84 56.33 66.48 C 55.47 65.10 54.58 65.07 53.66 66.38 M 62.99 66.83 C 64.39 67.05 64.89 66.49 64.50 65.13 C 63.07 64.90 62.57 65.47 62.99 66.83 Z" />
</g>
<g id="#989b98ff">
<path fill="#989b98" opacity="1.00" d=" M 66.07 45.22 C 67.68 44.68 68.26 45.23 67.80 46.85 C 66.17 47.40 65.60 46.85 66.07 45.22 Z" />
</g>
<g id="#686868ff">
<path fill="#686868" opacity="1.00" d=" M 49.33 47.35 C 49.89 47.92 49.89 47.92 49.33 47.35 Z" />
<path fill="#686868" opacity="1.00" d=" M 53.23 47.37 C 53.82 47.92 53.82 47.92 53.23 47.37 Z" />
<path fill="#686868" opacity="1.00" d=" M 58.47 47.25 C 59.02 47.81 59.02 47.81 58.47 47.25 Z" />
</g>
<g id="#404040ff">
<path fill="#404040" opacity="1.00" d=" M 49.21 52.32 C 49.84 52.94 49.84 52.94 49.21 52.32 Z" />
</g>
<g id="#838583ff">
<path fill="#838583" opacity="1.00" d=" M 62.99 66.83 C 62.57 65.47 63.07 64.90 64.50 65.13 C 64.89 66.49 64.39 67.05 62.99 66.83 Z" />
</g>
</svg>
