<?xml version="1.0" encoding="UTF-8" ?>
<!DOCTYPE svg PUBLIC "-//W3C//DTD SVG 1.1//EN" "http://www.w3.org/Graphics/SVG/1.1/DTD/svg11.dtd">
<svg width="117px" height="140px" viewBox="0 0 117 140" version="1.1" xmlns="http://www.w3.org/2000/svg">
<g id="#000000ff">
<path fill="#000000" opacity="1.00" d=" M 0.00 0.00 L 117.00 0.00 L 117.00 140.00 L 0.00 140.00 L 0.00 0.00 M 33.09 10.22 C 17.87 11.82 5.19 25.64 5.01 40.95 C 4.99 60.31 4.99 79.66 5.01 99.01 C 5.22 112.01 14.30 124.20 26.62 128.28 C 32.83 130.60 39.54 129.92 46.02 130.00 C 58.35 129.95 70.68 130.09 83.01 129.94 C 98.61 129.31 112.27 115.67 112.94 100.07 C 113.09 80.73 112.95 61.38 113.01 42.04 C 113.09 33.37 109.37 24.78 103.06 18.83 C 96.96 12.93 88.42 9.73 79.95 9.98 C 64.33 10.17 48.69 9.69 33.09 10.22 Z" />
<path fill="#000000" opacity="1.00" d=" M 30.52 12.71 C 33.94 11.92 37.48 11.98 40.97 12.00 C 55.00 12.06 69.03 11.89 83.06 12.09 C 97.90 12.78 110.81 26.05 110.96 40.93 C 111.05 59.63 110.98 78.34 111.00 97.04 C 111.94 113.36 97.41 128.40 81.07 127.98 C 65.70 127.97 50.34 128.09 34.97 127.92 C 20.11 127.24 7.19 113.95 7.03 99.05 C 6.98 79.69 6.98 60.32 7.03 40.96 C 7.23 27.64 17.51 15.40 30.52 12.71 M 38.98 41.05 C 36.14 43.94 31.06 45.50 30.53 50.00 C 31.06 54.52 36.14 56.06 38.99 58.95 C 40.80 60.98 43.54 60.59 45.87 59.92 C 46.62 57.34 47.19 54.70 47.04 52.00 C 49.03 52.00 51.01 52.00 53.00 52.00 C 53.00 51.25 53.00 49.75 53.00 49.00 C 51.00 49.00 49.01 49.00 47.02 49.00 C 47.21 45.96 46.78 42.96 45.88 40.07 C 43.54 39.43 40.79 38.99 38.98 41.05 M 73.15 40.00 C 70.51 42.20 71.04 45.95 70.98 49.00 C 68.99 49.00 66.99 49.00 65.00 49.00 C 65.00 49.75 65.00 51.25 65.00 52.00 C 66.99 52.00 68.97 52.00 70.96 52.00 C 71.01 54.52 70.79 57.39 72.56 59.44 C 74.38 61.25 77.38 60.66 79.04 58.93 C 81.62 56.54 85.13 54.96 87.01 51.93 C 88.78 48.21 85.03 45.57 82.42 43.70 C 79.65 41.87 76.87 37.99 73.15 40.00 M 54.00 49.00 C 54.00 49.75 54.00 51.25 54.00 52.00 C 54.75 52.00 56.25 52.00 57.00 52.00 C 57.00 51.25 57.00 49.75 57.00 49.00 C 56.25 49.00 54.75 49.00 54.00 49.00 M 58.00 49.00 C 58.00 49.75 58.00 51.25 58.00 52.00 C 60.00 52.00 62.00 52.00 64.00 52.00 C 64.00 51.25 64.00 49.75 64.00 49.00 C 62.00 49.00 60.00 49.00 58.00 49.00 Z" />
<path fill="#000000" opacity="1.00" d=" M 34.01 50.00 C 37.01 47.72 39.91 45.31 42.99 43.13 C 43.01 47.74 43.01 52.36 42.98 56.97 C 39.99 54.64 36.99 52.33 34.01 50.00 Z" />
<path fill="#000000" opacity="1.00" d=" M 76.00 43.81 C 78.67 45.87 81.33 47.93 83.99 50.00 C 81.33 52.07 78.67 54.13 76.00 56.19 C 76.00 52.06 76.00 47.94 76.00 43.81 Z" />
</g>
<g id="#7185b5ff">
<path fill="#7185b5" opacity="1.00" d=" M 33.09 10.22 C 48.69 9.69 64.33 10.17 79.95 9.98 C 88.42 9.73 96.96 12.93 103.06 18.83 C 109.37 24.78 113.09 33.37 113.01 42.04 C 112.95 61.38 113.09 80.73 112.94 100.07 C 112.27 115.67 98.61 129.31 83.01 129.94 C 70.68 130.09 58.35 129.95 46.02 130.00 C 39.54 129.92 32.83 130.60 26.62 128.28 C 14.30 124.20 5.22 112.01 5.01 99.01 C 4.99 79.66 4.99 60.31 5.01 40.95 C 5.19 25.64 17.87 11.82 33.09 10.22 M 30.52 12.71 C 17.51 15.40 7.23 27.64 7.03 40.96 C 6.98 60.32 6.98 79.69 7.03 99.05 C 7.19 113.95 20.11 127.24 34.97 127.92 C 50.34 128.09 65.70 127.97 81.07 127.98 C 97.41 128.40 111.94 113.36 111.00 97.04 C 110.98 78.34 111.05 59.63 110.96 40.93 C 110.81 26.05 97.90 12.78 83.06 12.09 C 69.03 11.89 55.00 12.06 40.97 12.00 C 37.48 11.98 33.94 11.92 30.52 12.71 Z" />
</g>
<g id="#f8fcf8ff">
<path fill="#f8fcf8" opacity="1.00" d=" M 38.98 41.05 C 40.79 38.99 43.54 39.43 45.88 40.07 C 46.78 42.96 47.21 45.96 47.02 49.00 C 49.01 49.00 51.00 49.00 53.00 49.00 C 53.00 49.75 53.00 51.25 53.00 52.00 C 51.01 52.00 49.03 52.00 47.04 52.00 C 47.19 54.70 46.62 57.34 45.87 59.92 C 43.54 60.59 40.80 60.98 38.99 58.95 C 36.14 56.06 31.06 54.52 30.53 50.00 C 31.06 45.50 36.14 43.94 38.98 41.05 M 34.01 50.00 C 36.99 52.33 39.99 54.64 42.98 56.97 C 43.01 52.36 43.01 47.74 42.99 43.13 C 39.91 45.31 37.01 47.72 34.01 50.00 Z" />
<path fill="#f8fcf8" opacity="1.00" d=" M 73.15 40.00 C 76.87 37.99 79.65 41.87 82.42 43.70 C 85.03 45.57 88.78 48.21 87.01 51.93 C 85.13 54.96 81.62 56.54 79.04 58.93 C 77.38 60.66 74.38 61.25 72.56 59.44 C 70.79 57.39 71.01 54.52 70.96 52.00 C 68.97 52.00 66.99 52.00 65.00 52.00 C 65.00 51.25 65.00 49.75 65.00 49.00 C 66.99 49.00 68.99 49.00 70.98 49.00 C 71.04 45.95 70.51 42.20 73.15 40.00 M 76.00 43.81 C 76.00 47.94 76.00 52.06 76.00 56.19 C 78.67 54.13 81.33 52.07 83.99 50.00 C 81.33 47.93 78.67 45.87 76.00 43.81 Z" />
<path fill="#f8fcf8" opacity="1.00" d=" M 54.00 49.00 C 54.75 49.00 56.25 49.00 57.00 49.00 C 57.00 49.75 57.00 51.25 57.00 52.00 C 56.25 52.00 54.75 52.00 54.00 52.00 C 54.00 51.25 54.00 49.75 54.00 49.00 Z" />
<path fill="#f8fcf8" opacity="1.00" d=" M 58.00 49.00 C 60.00 49.00 62.00 49.00 64.00 49.00 C 64.00 49.75 64.00 51.25 64.00 52.00 C 62.00 52.00 60.00 52.00 58.00 52.00 C 58.00 51.25 58.00 49.75 58.00 49.00 Z" />
</g>
</svg>
