<?xml version="1.0" encoding="UTF-8" ?>
<!DOCTYPE svg PUBLIC "-//W3C//DTD SVG 1.1//EN" "http://www.w3.org/Graphics/SVG/1.1/DTD/svg11.dtd">
<svg width="117px" height="140px" viewBox="0 0 117 140" version="1.1" xmlns="http://www.w3.org/2000/svg">
<g id="#000000ff">
<path fill="#000000" opacity="1.00" d=" M 0.00 0.00 L 117.00 0.00 L 117.00 140.00 L 0.00 140.00 L 0.00 0.00 M 33.20 10.21 C 17.93 11.75 5.17 25.61 5.01 40.98 C 4.99 60.32 4.99 79.67 5.01 99.01 C 5.22 112.02 14.31 124.20 26.63 128.29 C 32.84 130.60 39.53 129.92 46.01 130.00 C 58.01 129.98 70.02 130.04 82.02 129.98 C 99.13 129.90 113.96 114.05 113.02 96.98 C 112.98 78.63 113.00 60.27 113.01 41.92 C 113.06 33.07 109.13 24.33 102.59 18.39 C 96.54 12.78 88.26 9.76 80.03 9.98 C 64.43 10.16 48.80 9.71 33.20 10.21 Z" />
<path fill="#000000" opacity="1.00" d=" M 30.48 12.71 C 34.92 11.71 39.50 12.06 44.02 12.00 C 57.01 12.05 70.00 11.89 82.99 12.09 C 97.87 12.72 110.82 26.05 110.96 40.96 C 111.06 59.30 110.97 77.64 111.00 95.99 C 111.16 101.38 110.30 106.90 107.68 111.68 C 102.90 121.17 92.75 127.73 82.09 127.95 C 68.73 128.06 55.36 127.97 42.00 128.00 C 36.14 128.16 30.05 127.98 24.68 125.34 C 14.15 120.70 6.82 109.56 7.01 98.02 C 7.01 78.99 6.96 59.96 7.03 40.93 C 7.24 27.63 17.50 15.43 30.48 12.71 M 33.22 39.69 C 34.25 40.65 35.28 41.61 36.31 42.57 C 47.26 31.55 66.76 31.56 77.80 42.46 C 78.79 41.49 79.79 40.53 80.80 39.58 C 68.35 26.85 45.63 26.95 33.22 39.69 M 39.92 46.08 C 41.08 47.26 42.23 48.44 43.38 49.63 C 50.48 42.57 63.23 42.29 70.38 49.42 C 71.77 48.39 73.05 47.20 74.26 45.97 C 64.87 37.33 49.20 37.21 39.92 46.08 M 47.02 53.07 C 48.16 54.21 49.30 55.35 50.45 56.48 C 54.25 53.11 59.86 53.39 63.80 56.35 C 64.91 55.21 66.03 54.08 67.18 52.98 C 61.49 48.17 52.62 48.06 47.02 53.07 M 73.60 52.96 C 73.41 57.77 73.70 62.58 73.49 67.39 C 62.31 67.25 51.12 67.34 39.94 67.33 C 37.20 67.16 34.67 69.44 34.36 72.12 C 33.99 75.21 36.82 78.15 39.92 77.95 C 52.63 77.95 65.35 78.03 78.05 77.91 C 81.60 77.89 84.08 73.72 82.54 70.56 C 81.55 68.00 78.64 67.18 76.15 67.15 C 76.25 62.10 76.44 57.02 76.10 51.98 C 75.50 50.64 73.05 51.37 73.60 52.96 M 53.15 59.01 C 54.38 60.54 55.68 62.01 57.12 63.35 C 58.91 62.35 60.14 60.73 61.14 58.98 C 58.66 56.91 55.67 57.16 53.15 59.01 Z" />
<path fill="#000000" opacity="1.00" d=" M 62.52 71.58 C 63.85 70.59 65.57 72.22 64.52 73.57 C 63.21 75.09 60.97 72.85 62.52 71.58 Z" />
<path fill="#000000" opacity="1.00" d=" M 66.41 73.65 C 65.32 72.11 66.77 71.53 67.99 70.97 C 69.66 72.32 68.45 75.05 66.41 73.65 Z" />
<path fill="#000000" opacity="1.00" d=" M 70.54 71.60 C 71.39 70.80 73.56 71.65 72.82 72.85 C 72.58 75.46 68.74 73.27 70.54 71.60 Z" />
</g>
<g id="#7186b5ff">
<path fill="#7186b5" opacity="1.00" d=" M 33.20 10.21 C 48.80 9.71 64.43 10.16 80.03 9.98 C 88.26 9.76 96.54 12.78 102.59 18.39 C 109.13 24.33 113.06 33.07 113.01 41.92 C 113.00 60.27 112.98 78.63 113.02 96.98 C 113.96 114.05 99.13 129.90 82.02 129.98 C 70.02 130.04 58.01 129.98 46.01 130.00 C 39.53 129.92 32.84 130.60 26.63 128.29 C 14.31 124.20 5.22 112.02 5.01 99.01 C 4.99 79.67 4.99 60.32 5.01 40.98 C 5.17 25.61 17.93 11.75 33.20 10.21 M 30.48 12.71 C 17.50 15.43 7.24 27.63 7.03 40.93 C 6.96 59.96 7.01 78.99 7.01 98.02 C 6.82 109.56 14.15 120.70 24.68 125.34 C 30.05 127.98 36.14 128.16 42.00 128.00 C 55.36 127.97 68.73 128.06 82.09 127.95 C 92.75 127.73 102.90 121.17 107.68 111.68 C 110.30 106.90 111.16 101.38 111.00 95.99 C 110.97 77.64 111.06 59.30 110.96 40.96 C 110.82 26.05 97.87 12.72 82.99 12.09 C 70.00 11.89 57.01 12.05 44.02 12.00 C 39.50 12.06 34.92 11.71 30.48 12.71 Z" />
</g>
<g id="#f8fcf8ff">
<path fill="#f8fcf8" opacity="1.00" d=" M 33.22 39.69 C 45.63 26.95 68.35 26.85 80.80 39.58 C 79.79 40.53 78.79 41.49 77.80 42.46 C 66.76 31.56 47.26 31.55 36.31 42.57 C 35.28 41.61 34.25 40.65 33.22 39.69 Z" />
<path fill="#f8fcf8" opacity="1.00" d=" M 39.92 46.08 C 49.20 37.21 64.87 37.33 74.26 45.97 C 73.05 47.20 71.77 48.39 70.38 49.42 C 63.23 42.29 50.48 42.57 43.38 49.63 C 42.23 48.44 41.08 47.26 39.92 46.08 Z" />
<path fill="#f8fcf8" opacity="1.00" d=" M 47.02 53.07 C 52.62 48.06 61.49 48.17 67.18 52.98 C 66.03 54.08 64.91 55.21 63.80 56.35 C 59.86 53.39 54.25 53.11 50.45 56.48 C 49.30 55.35 48.16 54.21 47.02 53.07 Z" />
<path fill="#f8fcf8" opacity="1.00" d=" M 73.60 52.96 C 73.05 51.37 75.50 50.64 76.10 51.98 C 76.44 57.02 76.25 62.10 76.15 67.15 C 78.64 67.18 81.55 68.00 82.54 70.56 C 84.08 73.72 81.60 77.89 78.05 77.91 C 65.35 78.03 52.63 77.95 39.92 77.95 C 36.82 78.15 33.99 75.21 34.36 72.12 C 34.67 69.44 37.20 67.16 39.94 67.33 C 51.12 67.34 62.31 67.25 73.49 67.39 C 73.70 62.58 73.41 57.77 73.60 52.96 M 62.52 71.58 C 60.97 72.85 63.21 75.09 64.52 73.57 C 65.57 72.22 63.85 70.59 62.52 71.58 M 66.41 73.65 C 68.45 75.05 69.66 72.32 67.99 70.97 C 66.77 71.53 65.32 72.11 66.41 73.65 M 70.54 71.60 C 68.74 73.27 72.58 75.46 72.82 72.85 C 73.56 71.65 71.39 70.80 70.54 71.60 Z" />
<path fill="#f8fcf8" opacity="1.00" d=" M 53.15 59.01 C 55.67 57.16 58.66 56.91 61.14 58.98 C 60.14 60.73 58.91 62.35 57.12 63.35 C 55.68 62.01 54.38 60.54 53.15 59.01 Z" />
</g>
</svg>
