<?xml version="1.0" encoding="UTF-8" ?>
<!DOCTYPE svg PUBLIC "-//W3C//DTD SVG 1.1//EN" "http://www.w3.org/Graphics/SVG/1.1/DTD/svg11.dtd">
<svg width="117pt" height="140pt" viewBox="0 0 117 140" version="1.1" xmlns="http://www.w3.org/2000/svg">
<g id="#000000ff">
<path fill="#000000" opacity="1.00" d=" M 0.00 0.00 L 117.00 0.00 L 117.00 140.00 L 0.00 140.00 L 0.00 0.00 M 33.15 10.21 C 17.89 11.79 5.16 25.64 5.01 41.00 C 4.99 60.33 4.99 79.67 5.01 99.01 C 5.22 111.78 13.98 123.79 26.00 128.06 C 32.68 130.73 39.96 129.88 46.98 130.00 C 59.03 129.95 71.09 130.10 83.13 129.93 C 99.09 129.24 112.88 114.93 112.99 98.97 C 112.98 79.29 113.07 59.61 112.94 39.94 C 112.27 23.99 98.02 10.18 82.06 10.02 C 65.76 10.12 49.44 9.73 33.15 10.21 Z" />
<path fill="#000000" opacity="1.00" d=" M 30.52 12.70 C 34.96 11.70 39.53 12.07 44.05 12.00 C 57.05 12.05 70.05 11.89 83.05 12.09 C 97.92 12.76 110.84 26.08 110.96 40.99 C 111.02 60.35 111.03 79.72 110.96 99.09 C 110.80 113.95 97.91 127.23 83.08 127.90 C 67.39 128.11 51.69 127.97 35.99 127.97 C 20.72 127.82 7.13 114.27 7.03 98.98 C 6.98 79.65 6.98 60.32 7.03 40.98 C 7.22 27.65 17.50 15.41 30.52 12.70 M 56.23 29.24 C 49.50 30.04 42.87 33.39 38.93 39.01 C 34.51 45.09 32.71 53.39 35.57 60.52 C 38.47 69.73 47.48 76.23 57.01 76.80 C 67.21 77.15 77.29 70.38 80.41 60.58 C 83.81 52.05 80.71 41.98 74.26 35.77 C 69.43 31.37 62.79 28.77 56.23 29.24 Z" />
<path fill="#000000" opacity="1.00" d=" M 52.45 32.70 C 61.63 30.00 72.22 34.59 76.56 43.10 C 81.50 51.84 78.85 63.88 70.71 69.76 C 64.21 74.84 54.63 75.47 47.54 71.24 C 41.68 67.98 37.66 61.72 37.05 55.05 C 35.86 45.15 42.81 35.16 52.45 32.70 M 57.35 39.87 C 57.31 40.72 57.27 41.57 57.23 42.41 C 57.88 42.46 59.17 42.55 59.81 42.59 C 59.96 41.63 59.96 40.66 59.79 39.70 C 59.18 39.74 57.96 39.83 57.35 39.87 M 54.63 47.63 C 55.31 47.68 56.67 47.77 57.35 47.81 C 57.28 53.47 57.39 59.13 57.26 64.78 C 59.09 64.83 60.91 64.82 62.73 64.74 C 62.73 64.14 62.72 62.94 62.72 62.34 C 62.02 62.29 60.63 62.19 59.94 62.14 C 59.94 56.49 59.90 50.83 59.98 45.17 C 58.24 45.15 56.51 45.13 54.78 45.11 C 54.73 45.95 54.68 46.79 54.63 47.63 Z" />
</g>
<g id="#7186b5ff">
<path fill="#7186b5" opacity="1.00" d=" M 33.15 10.21 C 49.44 9.73 65.76 10.12 82.06 10.02 C 98.02 10.18 112.27 23.99 112.94 39.94 C 113.07 59.61 112.98 79.29 112.99 98.97 C 112.88 114.93 99.09 129.24 83.13 129.93 C 71.09 130.10 59.03 129.95 46.98 130.00 C 39.96 129.88 32.68 130.73 26.00 128.06 C 13.98 123.79 5.22 111.78 5.01 99.01 C 4.99 79.67 4.99 60.33 5.01 41.00 C 5.16 25.64 17.89 11.79 33.15 10.21 M 30.52 12.70 C 17.50 15.41 7.22 27.65 7.03 40.98 C 6.98 60.32 6.98 79.65 7.03 98.98 C 7.13 114.27 20.72 127.82 35.99 127.97 C 51.69 127.97 67.39 128.11 83.08 127.90 C 97.91 127.23 110.80 113.95 110.96 99.09 C 111.03 79.72 111.02 60.35 110.96 40.99 C 110.84 26.08 97.92 12.76 83.05 12.09 C 70.05 11.89 57.05 12.05 44.05 12.00 C 39.53 12.07 34.96 11.70 30.52 12.70 Z" />
</g>
<g id="#f8fcf8ff">
<path fill="#f8fcf8" opacity="1.00" d=" M 56.23 29.24 C 62.79 28.77 69.43 31.37 74.26 35.77 C 80.71 41.98 83.81 52.05 80.41 60.58 C 77.29 70.38 67.21 77.15 57.01 76.80 C 47.48 76.23 38.47 69.73 35.57 60.52 C 32.71 53.39 34.51 45.09 38.93 39.01 C 42.87 33.39 49.50 30.04 56.23 29.24 M 52.45 32.70 C 42.81 35.16 35.86 45.15 37.05 55.05 C 37.66 61.72 41.68 67.98 47.54 71.24 C 54.63 75.47 64.21 74.84 70.71 69.76 C 78.85 63.88 81.50 51.84 76.56 43.10 C 72.22 34.59 61.63 30.00 52.45 32.70 Z" />
<path fill="#f8fcf8" opacity="1.00" d=" M 57.35 39.87 C 57.96 39.83 59.18 39.74 59.79 39.70 C 59.96 40.66 59.96 41.63 59.81 42.59 C 59.17 42.55 57.88 42.46 57.23 42.41 C 57.27 41.57 57.31 40.72 57.35 39.87 Z" />
<path fill="#f8fcf8" opacity="1.00" d=" M 54.63 47.63 C 54.68 46.79 54.73 45.95 54.78 45.11 C 56.51 45.13 58.24 45.15 59.98 45.17 C 59.90 50.83 59.94 56.49 59.94 62.14 C 60.63 62.19 62.02 62.29 62.72 62.34 C 62.72 62.94 62.73 64.14 62.73 64.74 C 60.91 64.82 59.09 64.83 57.26 64.78 C 57.39 59.13 57.28 53.47 57.35 47.81 C 56.67 47.77 55.31 47.68 54.63 47.63 Z" />
</g>
</svg>
