<?xml version="1.0" encoding="UTF-8" ?>
<!DOCTYPE svg PUBLIC "-//W3C//DTD SVG 1.1//EN" "http://www.w3.org/Graphics/SVG/1.1/DTD/svg11.dtd">
<svg width="117px" height="140px" viewBox="0 0 117 140" version="1.1" xmlns="http://www.w3.org/2000/svg">
<g id="#000000ff">
<path fill="#000000" opacity="1.00" d=" M 0.00 0.00 L 117.00 0.00 L 117.00 140.00 L 0.00 140.00 L 0.00 0.00 M 33.27 10.24 C 17.99 11.73 5.22 25.60 5.04 40.96 C 4.97 60.31 4.98 79.66 5.03 99.01 C 5.17 114.97 18.98 129.24 34.93 129.90 C 50.30 130.12 65.69 129.96 81.06 129.98 C 92.80 130.09 104.20 123.06 109.45 112.58 C 112.17 107.52 113.15 101.72 113.01 96.02 C 112.97 78.01 113.03 60.00 112.98 41.99 C 113.04 33.12 109.14 24.36 102.57 18.41 C 96.52 12.79 88.23 9.80 79.99 9.99 C 64.42 10.16 48.83 9.68 33.27 10.24 Z" />
<path fill="#000000" opacity="1.00" d=" M 33.25 12.30 C 49.50 11.77 65.79 12.14 82.06 12.10 C 97.31 12.21 110.88 25.80 110.90 41.06 C 111.01 59.73 110.92 78.40 110.94 97.07 C 111.90 113.37 97.38 128.40 81.04 127.92 C 66.02 127.96 51.00 127.99 35.98 127.90 C 20.76 127.81 7.20 114.31 7.10 99.08 C 7.02 79.67 7.02 60.26 7.10 40.85 C 7.28 26.63 19.12 13.77 33.25 12.30 M 71.12 38.08 C 70.20 40.96 69.79 43.97 69.98 47.00 C 67.99 47.00 65.99 47.00 64.00 47.00 C 64.00 47.75 64.00 49.25 64.00 50.00 C 65.98 50.00 67.97 50.00 69.95 50.00 C 69.82 52.70 70.36 55.35 71.14 57.92 C 73.18 58.38 75.64 59.11 77.38 57.43 C 80.18 54.88 83.92 53.16 86.01 49.94 C 88.03 44.66 81.54 42.38 78.52 39.45 C 76.63 37.25 73.69 37.18 71.12 38.08 M 42.00 47.00 C 42.00 47.75 42.00 49.25 42.00 50.00 C 45.33 50.00 48.67 50.00 52.00 50.00 C 52.00 49.25 52.00 47.75 52.00 47.00 C 48.67 47.00 45.33 47.00 42.00 47.00 M 53.00 47.00 C 53.00 47.75 53.00 49.25 53.00 50.00 C 53.75 50.00 55.25 50.00 56.00 50.00 C 56.00 49.25 56.00 47.75 56.00 47.00 C 55.25 47.00 53.75 47.00 53.00 47.00 M 57.00 47.00 C 57.00 47.75 57.00 49.25 57.00 50.00 C 59.00 50.00 61.00 50.00 63.00 50.00 C 63.00 49.25 63.00 47.75 63.00 47.00 C 61.00 47.00 59.00 47.00 57.00 47.00 M 57.88 71.14 C 57.69 73.20 57.70 75.28 57.82 77.35 C 52.39 77.42 46.95 77.40 41.51 77.37 C 41.56 75.67 41.61 73.98 41.66 72.29 C 41.01 72.25 39.73 72.18 39.09 72.14 C 39.31 74.67 37.96 78.58 41.00 79.82 C 52.97 80.01 64.97 80.01 76.95 79.82 C 80.05 78.67 78.69 74.68 78.93 72.16 C 78.28 72.19 76.99 72.25 76.35 72.28 C 76.39 73.97 76.44 75.67 76.49 77.37 C 71.05 77.40 65.61 77.42 60.17 77.35 C 59.96 75.18 61.65 70.54 57.88 71.14 Z" />
<path fill="#000000" opacity="1.00" d=" M 75.00 41.81 C 77.67 43.86 80.33 45.93 82.99 48.00 C 80.33 50.07 77.67 52.13 75.00 54.19 C 75.00 50.06 75.00 45.94 75.00 41.81 Z" />
</g>
<g id="#788cc0ff">
<path fill="#788cc0" opacity="1.00" d=" M 33.27 10.24 C 48.83 9.68 64.42 10.16 79.99 9.99 C 88.23 9.80 96.52 12.79 102.57 18.41 C 109.14 24.36 113.04 33.12 112.98 41.99 C 113.03 60.00 112.97 78.01 113.01 96.02 C 113.15 101.72 112.17 107.52 109.45 112.58 C 104.20 123.06 92.80 130.09 81.06 129.98 C 65.69 129.96 50.30 130.12 34.93 129.90 C 18.98 129.24 5.17 114.97 5.03 99.01 C 4.98 79.66 4.97 60.31 5.04 40.96 C 5.22 25.60 17.99 11.73 33.27 10.24 M 33.25 12.30 C 19.12 13.77 7.28 26.63 7.10 40.85 C 7.02 60.26 7.02 79.67 7.10 99.08 C 7.20 114.31 20.76 127.81 35.98 127.90 C 51.00 127.99 66.02 127.96 81.04 127.92 C 97.38 128.40 111.90 113.37 110.94 97.07 C 110.92 78.40 111.01 59.73 110.90 41.06 C 110.88 25.80 97.31 12.21 82.06 12.10 C 65.79 12.14 49.50 11.77 33.25 12.30 Z" />
</g>
<g id="#f8fcf8ff">
<path fill="#f8fcf8" opacity="1.00" d=" M 71.12 38.08 C 73.69 37.18 76.63 37.25 78.52 39.45 C 81.54 42.38 88.03 44.66 86.01 49.94 C 83.92 53.16 80.18 54.88 77.38 57.43 C 75.64 59.11 73.18 58.38 71.14 57.92 C 70.36 55.35 69.82 52.70 69.95 50.00 C 67.97 50.00 65.98 50.00 64.00 50.00 C 64.00 49.25 64.00 47.75 64.00 47.00 C 65.99 47.00 67.99 47.00 69.98 47.00 C 69.79 43.97 70.20 40.96 71.12 38.08 M 75.00 41.81 C 75.00 45.94 75.00 50.06 75.00 54.19 C 77.67 52.13 80.33 50.07 82.99 48.00 C 80.33 45.93 77.67 43.86 75.00 41.81 Z" />
<path fill="#f8fcf8" opacity="1.00" d=" M 42.00 47.00 C 45.33 47.00 48.67 47.00 52.00 47.00 C 52.00 47.75 52.00 49.25 52.00 50.00 C 48.67 50.00 45.33 50.00 42.00 50.00 C 42.00 49.25 42.00 47.75 42.00 47.00 Z" />
<path fill="#f8fcf8" opacity="1.00" d=" M 53.00 47.00 C 53.75 47.00 55.25 47.00 56.00 47.00 C 56.00 47.75 56.00 49.25 56.00 50.00 C 55.25 50.00 53.75 50.00 53.00 50.00 C 53.00 49.25 53.00 47.75 53.00 47.00 Z" />
<path fill="#f8fcf8" opacity="1.00" d=" M 57.00 47.00 C 59.00 47.00 61.00 47.00 63.00 47.00 C 63.00 47.75 63.00 49.25 63.00 50.00 C 61.00 50.00 59.00 50.00 57.00 50.00 C 57.00 49.25 57.00 47.75 57.00 47.00 Z" />
<path fill="#f8fcf8" opacity="1.00" d=" M 57.88 71.14 C 61.65 70.54 59.96 75.18 60.17 77.35 C 65.61 77.42 71.05 77.40 76.49 77.37 C 76.44 75.67 76.39 73.97 76.35 72.28 C 76.99 72.25 78.28 72.19 78.93 72.16 C 78.69 74.68 80.05 78.67 76.95 79.82 C 64.97 80.01 52.97 80.01 41.00 79.82 C 37.96 78.58 39.31 74.67 39.09 72.14 C 39.73 72.18 41.01 72.25 41.66 72.29 C 41.61 73.98 41.56 75.67 41.51 77.37 C 46.95 77.40 52.39 77.42 57.82 77.35 C 57.70 75.28 57.69 73.20 57.88 71.14 Z" />
</g>
</svg>
