<?xml version="1.0" encoding="UTF-8" ?>
<!DOCTYPE svg PUBLIC "-//W3C//DTD SVG 1.1//EN" "http://www.w3.org/Graphics/SVG/1.1/DTD/svg11.dtd">
<svg width="117pt" height="140pt" viewBox="0 0 117 140" version="1.1" xmlns="http://www.w3.org/2000/svg">
<g id="#000000ff">
<path fill="#000000" opacity="1.00" d=" M 0.00 0.00 L 117.00 0.00 L 117.00 140.00 L 0.00 140.00 L 0.00 0.00 M 33.16 10.25 C 17.91 11.80 5.20 25.66 5.04 41.00 C 4.97 60.33 4.97 79.67 5.04 99.01 C 5.17 114.99 19.02 129.28 34.99 129.91 C 49.64 130.13 64.31 129.93 78.97 130.01 C 84.69 130.16 90.50 129.16 95.57 126.46 C 106.07 121.19 113.12 109.77 112.98 98.01 C 113.01 79.35 113.01 60.68 112.98 42.02 C 113.10 30.97 106.94 20.19 97.45 14.59 C 91.94 11.21 85.42 9.78 79.00 9.99 C 63.72 10.18 48.42 9.66 33.16 10.25 Z" />
<path fill="#000000" opacity="1.00" d=" M 33.22 12.30 C 49.49 11.76 65.80 12.14 82.08 12.10 C 97.28 12.22 110.82 25.74 110.89 40.95 C 110.99 60.31 110.99 79.67 110.89 99.03 C 110.84 114.25 97.29 127.80 82.08 127.88 C 66.71 128.01 51.35 127.97 35.98 127.90 C 20.74 127.81 7.16 114.26 7.10 99.00 C 6.99 80.36 7.08 61.71 7.05 43.07 C 6.20 28.08 18.28 13.84 33.22 12.30 M 33.92 52.03 C 34.16 52.96 34.42 53.88 34.70 54.80 C 38.05 54.40 42.39 56.00 44.80 52.87 C 49.49 48.07 54.25 43.35 58.99 38.61 C 64.33 43.77 69.35 49.27 74.81 54.29 C 77.57 55.30 80.67 54.65 83.56 54.61 C 83.67 53.97 83.90 52.69 84.02 52.05 C 76.02 44.06 68.14 35.94 60.02 28.08 C 59.52 28.07 58.51 28.06 58.00 28.05 C 49.82 35.88 42.02 44.11 33.92 52.03 M 57.18 43.00 C 53.34 46.85 49.59 50.81 45.75 54.67 C 44.64 55.91 43.04 57.11 43.15 58.97 C 43.10 64.33 43.12 69.70 43.15 75.06 C 42.93 76.36 44.16 77.48 45.39 77.47 C 48.67 77.55 51.98 77.65 55.26 77.40 C 55.55 77.13 56.12 76.59 56.41 76.32 C 56.77 72.82 56.47 69.30 56.53 65.80 C 58.41 65.83 60.28 65.83 62.16 65.83 C 62.19 69.20 61.97 72.58 62.22 75.94 C 63.42 78.48 66.81 77.21 69.01 77.55 C 70.91 77.33 73.89 78.24 74.78 75.91 C 75.04 71.30 74.76 66.67 74.89 62.04 C 74.76 60.13 75.34 57.81 73.76 56.33 C 69.53 51.83 65.15 47.46 60.84 43.04 C 59.99 41.89 58.03 41.82 57.18 43.00 Z" />
<path fill="#000000" opacity="1.00" d=" M 38.13 51.82 C 45.29 45.13 52.01 37.99 58.98 31.11 C 65.98 37.95 72.63 45.15 79.83 51.78 C 78.70 51.78 77.57 51.80 76.44 51.81 C 71.27 46.53 66.04 41.31 60.79 36.11 C 59.93 35.02 58.14 34.93 57.26 36.03 C 52.01 41.26 46.76 46.50 41.58 51.80 C 40.71 51.80 38.99 51.82 38.13 51.82 Z" />
<path fill="#000000" opacity="1.00" d=" M 46.35 58.51 C 50.48 54.09 54.82 49.86 58.98 45.46 C 62.69 49.27 66.35 53.12 70.13 56.85 C 70.89 57.74 72.15 58.53 71.86 59.91 C 71.93 64.78 71.82 69.65 71.88 74.52 C 69.62 74.49 67.37 74.49 65.11 74.52 C 65.12 70.76 65.34 66.97 64.76 63.24 C 61.33 62.86 57.67 62.33 54.31 63.28 C 52.81 66.84 53.76 70.87 53.67 74.63 C 51.16 74.45 48.64 74.47 46.12 74.53 C 46.30 69.19 45.81 63.80 46.35 58.51 Z" />
</g>
<g id="#788cc0ff">
<path fill="#788cc0" opacity="1.00" d=" M 33.16 10.25 C 48.42 9.66 63.72 10.18 79.00 9.99 C 85.42 9.78 91.94 11.21 97.45 14.59 C 106.94 20.19 113.10 30.97 112.98 42.02 C 113.01 60.68 113.01 79.35 112.98 98.01 C 113.12 109.77 106.07 121.19 95.57 126.46 C 90.50 129.16 84.69 130.16 78.97 130.01 C 64.31 129.93 49.64 130.13 34.99 129.91 C 19.02 129.28 5.17 114.99 5.04 99.01 C 4.97 79.67 4.97 60.33 5.04 41.00 C 5.20 25.66 17.91 11.80 33.16 10.25 M 33.22 12.30 C 18.28 13.84 6.20 28.08 7.05 43.07 C 7.08 61.71 6.99 80.36 7.10 99.00 C 7.16 114.26 20.74 127.81 35.98 127.90 C 51.35 127.97 66.71 128.01 82.08 127.88 C 97.29 127.80 110.84 114.25 110.89 99.03 C 110.99 79.67 110.99 60.31 110.89 40.95 C 110.82 25.74 97.28 12.22 82.08 12.10 C 65.80 12.14 49.49 11.76 33.22 12.30 Z" />
</g>
<g id="#f8fcf8ff">
<path fill="#f8fcf8" opacity="1.00" d=" M 33.92 52.03 C 42.02 44.11 49.82 35.88 58.00 28.05 C 58.51 28.06 59.52 28.07 60.02 28.08 C 68.14 35.94 76.02 44.06 84.02 52.05 C 83.90 52.69 83.67 53.97 83.56 54.61 C 80.67 54.65 77.57 55.30 74.81 54.29 C 69.35 49.27 64.33 43.77 58.99 38.61 C 54.25 43.35 49.49 48.07 44.80 52.87 C 42.39 56.00 38.05 54.40 34.70 54.80 C 34.42 53.88 34.16 52.96 33.92 52.03 M 38.13 51.82 C 38.99 51.82 40.71 51.80 41.58 51.80 C 46.76 46.50 52.01 41.26 57.26 36.03 C 58.14 34.93 59.93 35.02 60.79 36.11 C 66.04 41.31 71.27 46.53 76.44 51.81 C 77.57 51.80 78.70 51.78 79.83 51.78 C 72.63 45.15 65.98 37.95 58.98 31.11 C 52.01 37.99 45.29 45.13 38.13 51.82 Z" />
<path fill="#f8fcf8" opacity="1.00" d=" M 57.18 43.00 C 58.03 41.82 59.99 41.89 60.84 43.04 C 65.15 47.46 69.53 51.83 73.76 56.33 C 75.34 57.81 74.76 60.13 74.89 62.04 C 74.76 66.67 75.04 71.30 74.78 75.91 C 73.89 78.24 70.91 77.33 69.01 77.55 C 66.81 77.21 63.42 78.48 62.22 75.94 C 61.97 72.58 62.19 69.20 62.16 65.83 C 60.28 65.83 58.41 65.83 56.53 65.80 C 56.47 69.30 56.77 72.82 56.41 76.32 C 56.12 76.59 55.55 77.13 55.26 77.40 C 51.98 77.65 48.67 77.55 45.39 77.47 C 44.16 77.48 42.93 76.36 43.15 75.06 C 43.12 69.70 43.10 64.33 43.15 58.97 C 43.04 57.11 44.64 55.91 45.75 54.67 C 49.59 50.81 53.34 46.85 57.18 43.00 M 46.35 58.51 C 45.81 63.80 46.30 69.19 46.12 74.53 C 48.64 74.47 51.16 74.45 53.67 74.63 C 53.76 70.87 52.81 66.84 54.31 63.28 C 57.67 62.33 61.33 62.86 64.76 63.24 C 65.34 66.97 65.12 70.76 65.11 74.52 C 67.37 74.49 69.62 74.49 71.88 74.52 C 71.82 69.65 71.93 64.78 71.86 59.91 C 72.15 58.53 70.89 57.74 70.13 56.85 C 66.35 53.12 62.69 49.27 58.98 45.46 C 54.82 49.86 50.48 54.09 46.35 58.51 Z" />
</g>
</svg>
