<?xml version="1.0" encoding="UTF-8" ?>
<!DOCTYPE svg PUBLIC "-//W3C//DTD SVG 1.1//EN" "http://www.w3.org/Graphics/SVG/1.1/DTD/svg11.dtd">
<svg width="117pt" height="140pt" viewBox="0 0 117 140" version="1.1" xmlns="http://www.w3.org/2000/svg">
<g id="#000000ff">
<path fill="#000000" opacity="1.00" d=" M 0.00 0.00 L 117.00 0.00 L 117.00 140.00 L 0.00 140.00 L 0.00 0.00 M 29.50 10.66 C 15.37 13.35 4.18 26.61 4.00 41.01 C 4.02 60.69 3.95 80.37 4.04 100.04 C 4.73 115.66 18.36 129.27 33.98 129.96 C 50.02 130.01 66.06 130.06 82.10 129.94 C 98.04 129.25 111.85 114.99 111.99 99.03 C 111.98 79.33 112.06 59.63 111.95 39.93 C 111.26 24.36 97.68 10.78 82.12 10.06 C 67.10 9.91 52.08 10.06 37.06 9.98 C 34.53 9.95 31.99 10.12 29.50 10.66 Z" />
<path fill="#000000" opacity="1.00" d=" M 29.54 12.70 C 33.29 11.82 37.17 12.01 40.98 12.00 C 54.65 12.05 68.33 11.90 81.99 12.08 C 96.86 12.74 109.81 26.02 109.96 40.93 C 110.03 60.29 110.03 79.65 109.96 99.00 C 109.87 114.29 96.27 127.84 80.99 127.96 C 65.33 128.00 49.67 128.07 34.01 127.93 C 19.13 127.26 6.20 113.97 6.03 99.06 C 5.98 79.71 5.99 60.36 6.02 41.00 C 6.22 27.65 16.50 15.39 29.54 12.70 M 41.58 42.00 C 41.58 50.67 41.58 59.33 41.58 68.00 C 44.39 68.00 47.19 68.00 50.00 68.00 C 50.00 64.94 50.00 61.89 50.00 58.84 C 53.22 58.83 56.43 58.83 59.64 58.84 C 59.64 56.75 59.60 54.66 59.58 52.57 C 56.35 52.51 53.12 52.76 49.90 52.46 C 49.99 51.10 50.04 49.74 50.06 48.38 C 53.99 48.44 57.91 48.41 61.84 48.41 C 61.83 46.28 61.83 44.14 61.84 42.01 C 55.09 41.99 48.34 42.00 41.58 42.00 M 64.67 49.11 C 64.47 55.40 64.64 61.70 64.58 67.99 C 67.27 68.02 69.97 68.02 72.66 67.93 C 72.65 64.95 72.46 61.96 72.73 58.99 C 73.31 56.48 76.35 55.26 78.62 56.42 C 78.55 53.69 78.83 50.93 78.36 48.22 C 75.63 48.24 73.28 49.64 71.81 51.91 C 71.81 51.22 71.80 49.84 71.79 49.16 C 69.42 49.18 67.05 49.18 64.67 49.11 Z" />
</g>
<g id="#6a84bcff">
<path fill="#6a84bc" opacity="1.00" d=" M 29.50 10.66 C 31.99 10.12 34.53 9.95 37.06 9.98 C 52.08 10.06 67.10 9.91 82.12 10.06 C 97.68 10.78 111.26 24.36 111.95 39.93 C 112.06 59.63 111.98 79.33 111.99 99.03 C 111.85 114.99 98.04 129.25 82.10 129.94 C 66.06 130.06 50.02 130.01 33.98 129.96 C 18.36 129.27 4.73 115.66 4.04 100.04 C 3.95 80.37 4.02 60.69 4.00 41.01 C 4.18 26.61 15.37 13.35 29.50 10.66 M 29.54 12.70 C 16.50 15.39 6.22 27.65 6.02 41.00 C 5.99 60.36 5.98 79.71 6.03 99.06 C 6.20 113.97 19.13 127.26 34.01 127.93 C 49.67 128.07 65.33 128.00 80.99 127.96 C 96.27 127.84 109.87 114.29 109.96 99.00 C 110.03 79.65 110.03 60.29 109.96 40.93 C 109.81 26.02 96.86 12.74 81.99 12.08 C 68.33 11.90 54.65 12.05 40.98 12.00 C 37.17 12.01 33.29 11.82 29.54 12.70 Z" />
</g>
<g id="#f8fcf8ff">
<path fill="#f8fcf8" opacity="1.00" d=" M 41.58 42.00 C 48.34 42.00 55.09 41.99 61.84 42.01 C 61.83 44.14 61.83 46.28 61.84 48.41 C 57.91 48.41 53.99 48.44 50.06 48.38 C 50.04 49.74 49.99 51.10 49.90 52.46 C 53.12 52.76 56.35 52.51 59.58 52.57 C 59.60 54.66 59.64 56.75 59.64 58.84 C 56.43 58.83 53.22 58.83 50.00 58.84 C 50.00 61.89 50.00 64.94 50.00 68.00 C 47.19 68.00 44.39 68.00 41.58 68.00 C 41.58 59.33 41.58 50.67 41.58 42.00 Z" />
<path fill="#f8fcf8" opacity="1.00" d=" M 64.67 49.11 C 67.05 49.18 69.42 49.18 71.79 49.16 C 71.80 49.84 71.81 51.22 71.81 51.91 C 73.28 49.64 75.63 48.24 78.36 48.22 C 78.83 50.93 78.55 53.69 78.62 56.42 C 76.35 55.26 73.31 56.48 72.73 58.99 C 72.46 61.96 72.65 64.95 72.66 67.93 C 69.97 68.02 67.27 68.02 64.58 67.99 C 64.64 61.70 64.47 55.40 64.67 49.11 Z" />
</g>
</svg>
