<?xml version="1.0" encoding="UTF-8" ?>
<!DOCTYPE svg PUBLIC "-//W3C//DTD SVG 1.1//EN" "http://www.w3.org/Graphics/SVG/1.1/DTD/svg11.dtd">
<svg width="117px" height="140px" viewBox="0 0 117 140" version="1.1" xmlns="http://www.w3.org/2000/svg">
<g id="#000000ff">
<path fill="#000000" opacity="1.00" d=" M 0.00 0.00 L 117.00 0.00 L 117.00 140.00 L 0.00 140.00 L 0.00 0.00 M 29.50 10.66 C 15.40 13.36 4.22 26.55 4.01 40.93 C 4.02 60.63 3.93 80.33 4.05 100.03 C 4.71 115.98 18.96 129.82 34.93 129.99 C 50.63 129.97 66.33 130.09 82.03 129.93 C 97.99 129.30 111.84 115.03 111.99 99.06 C 111.98 79.35 112.07 59.64 111.94 39.94 C 111.28 24.36 97.66 10.75 82.09 10.07 C 67.72 9.89 53.35 10.07 38.99 9.98 C 35.82 9.95 32.61 9.98 29.50 10.66 Z" />
<path fill="#000000" opacity="1.00" d=" M 29.50 12.71 C 33.26 11.84 37.14 12.01 40.98 12.00 C 54.68 12.06 68.39 11.88 82.10 12.09 C 96.96 12.79 109.88 26.13 109.96 41.04 C 110.03 60.36 110.03 79.68 109.96 98.99 C 109.88 114.25 96.32 127.81 81.07 127.95 C 65.71 128.04 50.34 128.02 34.98 127.96 C 19.74 127.83 6.19 114.33 6.04 99.08 C 5.98 79.73 5.98 60.36 6.03 41.00 C 6.21 27.67 16.48 15.43 29.50 12.71 M 41.61 42.00 C 41.60 50.66 41.61 59.33 41.61 68.00 C 44.41 68.00 47.20 68.00 50.00 68.00 C 49.99 64.94 50.01 61.88 50.00 58.82 C 53.22 58.82 56.43 58.80 59.64 58.81 C 59.63 56.72 59.60 54.63 59.48 52.55 C 56.32 52.60 53.17 52.62 50.02 52.64 C 50.07 51.19 50.06 49.74 50.14 48.29 C 54.04 48.44 57.94 48.44 61.84 48.33 C 61.82 46.23 61.82 44.12 61.82 42.02 C 55.09 41.97 48.35 42.01 41.61 42.00 M 64.69 49.15 C 64.50 55.43 64.65 61.71 64.61 67.99 C 67.29 68.04 69.98 68.00 72.66 67.91 C 72.72 64.67 72.19 61.34 72.98 58.17 C 74.08 56.03 76.54 55.92 78.63 55.83 C 78.68 53.27 78.63 50.71 78.35 48.16 C 75.75 48.32 73.57 49.63 71.90 51.57 C 71.85 50.96 71.74 49.76 71.68 49.15 C 69.35 49.19 67.02 49.19 64.69 49.15 Z" />
</g>
<g id="#6a84bcff">
<path fill="#6a84bc" opacity="1.00" d=" M 29.50 10.66 C 32.61 9.98 35.82 9.95 38.99 9.98 C 53.35 10.07 67.72 9.89 82.09 10.07 C 97.66 10.75 111.28 24.36 111.94 39.94 C 112.07 59.64 111.98 79.35 111.99 99.06 C 111.84 115.03 97.99 129.30 82.03 129.93 C 66.33 130.09 50.63 129.97 34.93 129.99 C 18.96 129.82 4.71 115.98 4.05 100.03 C 3.93 80.33 4.02 60.63 4.01 40.93 C 4.22 26.55 15.40 13.36 29.50 10.66 M 29.50 12.71 C 16.48 15.43 6.21 27.67 6.03 41.00 C 5.98 60.36 5.98 79.73 6.04 99.08 C 6.19 114.33 19.74 127.83 34.98 127.96 C 50.34 128.02 65.71 128.04 81.07 127.95 C 96.32 127.81 109.88 114.25 109.96 98.99 C 110.03 79.68 110.03 60.36 109.96 41.04 C 109.88 26.13 96.96 12.79 82.10 12.09 C 68.39 11.88 54.68 12.06 40.98 12.00 C 37.14 12.01 33.26 11.84 29.50 12.71 Z" />
</g>
<g id="#10ec50ff">
<path fill="#10ec50" opacity="1.00" d=" M 41.61 42.00 C 48.35 42.01 55.09 41.97 61.82 42.02 C 61.82 44.12 61.82 46.23 61.84 48.33 C 57.94 48.44 54.04 48.44 50.14 48.29 C 50.06 49.74 50.07 51.19 50.02 52.64 C 53.17 52.62 56.32 52.60 59.48 52.55 C 59.60 54.63 59.63 56.72 59.64 58.81 C 56.43 58.80 53.22 58.82 50.00 58.82 C 50.01 61.88 49.99 64.94 50.00 68.00 C 47.20 68.00 44.41 68.00 41.61 68.00 C 41.61 59.33 41.60 50.66 41.61 42.00 Z" />
<path fill="#10ec50" opacity="1.00" d=" M 64.69 49.15 C 67.02 49.19 69.35 49.19 71.68 49.15 C 71.74 49.76 71.85 50.96 71.90 51.57 C 73.57 49.63 75.75 48.32 78.35 48.16 C 78.63 50.71 78.68 53.27 78.63 55.83 C 76.54 55.92 74.08 56.03 72.98 58.17 C 72.19 61.34 72.72 64.67 72.66 67.91 C 69.98 68.00 67.29 68.04 64.61 67.99 C 64.65 61.71 64.50 55.43 64.69 49.15 Z" />
</g>
</svg>
