<?xml version="1.0" encoding="UTF-8" ?>
<!DOCTYPE svg PUBLIC "-//W3C//DTD SVG 1.1//EN" "http://www.w3.org/Graphics/SVG/1.1/DTD/svg11.dtd">
<svg width="117px" height="140px" viewBox="0 0 117 140" version="1.1" xmlns="http://www.w3.org/2000/svg">
<g id="#000000ff">
<path fill="#000000" opacity="1.00" d=" M 0.00 0.00 L 117.00 0.00 L 117.00 140.00 L 0.00 140.00 L 0.00 0.00 M 29.44 10.59 C 15.39 13.48 4.21 26.59 4.04 41.00 C 3.98 60.34 3.97 79.69 4.04 99.03 C 4.19 114.99 18.04 129.29 33.97 129.98 C 50.34 130.01 66.71 130.02 83.08 129.97 C 98.97 129.26 112.82 114.99 112.94 99.05 C 113.03 79.69 113.03 60.33 112.94 40.97 C 112.82 25.00 98.96 10.73 83.04 10.02 C 67.36 9.96 51.68 10.04 36.00 9.98 C 33.80 9.98 31.58 10.08 29.44 10.59 Z" />
<path fill="#000000" opacity="1.00" d=" M 35.09 12.17 C 49.39 11.87 63.70 12.16 78.01 12.03 C 84.58 11.96 91.34 13.40 96.80 17.20 C 104.93 22.58 110.12 32.19 109.98 41.96 C 110.01 60.64 110.01 79.32 109.98 98.00 C 110.18 109.03 103.52 119.79 93.64 124.65 C 88.86 127.19 83.35 127.94 78.00 127.96 C 64.35 127.92 50.70 127.98 37.06 127.94 C 29.68 127.81 22.32 125.17 16.84 120.17 C 10.71 114.57 6.94 106.38 7.07 98.04 C 7.06 79.01 7.00 59.98 7.10 40.95 C 7.18 26.01 20.19 12.78 35.09 12.17 M 59.35 27.14 C 55.40 31.08 51.45 35.03 47.51 38.98 C 48.36 39.73 49.21 40.49 50.05 41.24 C 51.37 41.25 52.68 41.25 54.00 41.24 C 54.00 43.27 54.00 45.31 54.00 47.35 C 52.04 47.34 50.08 47.34 48.12 47.35 C 48.12 44.93 47.52 42.52 45.76 40.77 C 41.76 44.73 37.72 48.65 33.86 52.74 C 37.86 56.62 41.71 60.65 45.74 64.51 C 46.49 63.63 47.24 62.76 47.99 61.89 C 48.00 60.59 48.00 59.29 48.01 58.00 C 50.00 58.00 52.00 58.00 54.00 58.00 C 54.00 59.99 54.00 61.99 54.00 63.99 C 51.46 63.69 48.98 64.19 47.51 66.46 C 51.49 70.26 55.39 74.17 59.20 78.14 C 63.37 74.34 67.24 70.23 71.22 66.24 C 69.49 64.49 67.10 63.89 64.70 63.88 C 64.70 61.92 64.70 59.96 64.70 58.00 C 66.70 58.00 68.70 58.00 70.70 58.00 C 70.39 60.52 70.91 62.89 72.99 64.52 C 76.95 60.57 80.91 56.61 84.86 52.65 C 80.91 48.69 76.97 44.73 73.00 40.80 C 71.08 42.40 70.64 44.90 70.65 47.27 C 68.67 47.35 66.68 47.34 64.70 47.36 C 64.70 45.36 64.71 43.36 64.71 41.36 C 67.08 41.30 69.59 40.95 71.21 39.02 C 67.27 35.04 63.32 31.09 59.35 27.14 Z" />
<path fill="#000000" opacity="1.00" d=" M 59.33 30.91 C 61.91 33.46 64.48 36.02 67.03 38.60 C 65.35 38.60 63.68 38.61 62.00 38.62 C 62.00 42.41 62.00 46.20 62.00 50.00 C 65.80 50.00 69.60 50.00 73.40 49.99 C 73.40 48.33 73.40 46.66 73.41 45.00 C 75.99 47.53 78.56 50.08 81.10 52.66 C 78.52 55.15 76.17 57.89 73.34 60.11 C 73.37 58.53 73.40 56.95 73.43 55.38 C 69.63 55.33 65.82 55.34 62.02 55.34 C 61.99 59.14 61.99 62.93 62.01 66.73 C 63.67 66.73 65.34 66.73 67.01 66.74 C 64.49 69.29 61.92 71.80 59.45 74.39 C 56.76 71.94 54.26 69.31 51.71 66.73 C 53.35 66.73 54.99 66.72 56.63 66.72 C 56.64 62.93 56.64 59.14 56.64 55.35 C 52.86 55.34 49.08 55.34 45.31 55.34 C 45.30 57.01 45.30 58.67 45.29 60.34 C 42.71 57.78 40.11 55.23 37.60 52.60 C 40.18 50.08 42.71 47.51 45.28 44.98 C 45.29 46.65 45.30 48.32 45.30 49.98 C 49.09 50.01 52.87 50.01 56.65 49.97 C 56.64 46.18 56.65 42.39 56.61 38.60 C 54.97 38.61 53.34 38.62 51.70 38.63 C 54.19 36.00 56.77 33.47 59.33 30.91 Z" />
</g>
<g id="#708cc8ff">
<path fill="#708cc8" opacity="1.00" d=" M 29.44 10.59 C 31.58 10.08 33.80 9.98 36.00 9.98 C 51.68 10.04 67.36 9.96 83.04 10.02 C 98.96 10.73 112.82 25.00 112.94 40.97 C 113.03 60.33 113.03 79.69 112.94 99.05 C 112.82 114.99 98.97 129.26 83.08 129.97 C 66.71 130.02 50.34 130.01 33.97 129.98 C 18.04 129.29 4.19 114.99 4.04 99.03 C 3.97 79.69 3.98 60.34 4.04 41.00 C 4.21 26.59 15.39 13.48 29.44 10.59 M 35.09 12.17 C 20.19 12.78 7.18 26.01 7.10 40.95 C 7.00 59.98 7.06 79.01 7.07 98.04 C 6.94 106.38 10.71 114.57 16.84 120.17 C 22.32 125.17 29.68 127.81 37.06 127.94 C 50.70 127.98 64.35 127.92 78.00 127.96 C 83.35 127.94 88.86 127.19 93.64 124.65 C 103.52 119.79 110.18 109.03 109.98 98.00 C 110.01 79.32 110.01 60.64 109.98 41.96 C 110.12 32.19 104.93 22.58 96.80 17.20 C 91.34 13.40 84.58 11.96 78.01 12.03 C 63.70 12.16 49.39 11.87 35.09 12.17 Z" />
</g>
<g id="#10ec50ff">
<path fill="#10ec50" opacity="1.00" d=" M 59.35 27.14 C 63.32 31.09 67.27 35.04 71.21 39.02 C 69.59 40.95 67.08 41.30 64.71 41.36 C 64.71 43.36 64.70 45.36 64.70 47.36 C 66.68 47.34 68.67 47.35 70.65 47.27 C 70.64 44.90 71.08 42.40 73.00 40.80 C 76.97 44.73 80.91 48.69 84.86 52.65 C 80.91 56.61 76.95 60.57 72.99 64.52 C 70.91 62.89 70.39 60.52 70.70 58.00 C 68.70 58.00 66.70 58.00 64.70 58.00 C 64.70 59.96 64.70 61.92 64.70 63.88 C 67.10 63.89 69.49 64.49 71.22 66.24 C 67.24 70.23 63.37 74.34 59.20 78.14 C 55.39 74.17 51.49 70.26 47.51 66.46 C 48.98 64.19 51.46 63.69 54.00 63.99 C 54.00 61.99 54.00 59.99 54.00 58.00 C 52.00 58.00 50.00 58.00 48.01 58.00 C 48.00 59.29 48.00 60.59 47.99 61.89 C 47.24 62.76 46.49 63.63 45.74 64.51 C 41.71 60.65 37.86 56.62 33.86 52.74 C 37.72 48.65 41.76 44.73 45.76 40.77 C 47.52 42.52 48.12 44.93 48.12 47.35 C 50.08 47.34 52.04 47.34 54.00 47.35 C 54.00 45.31 54.00 43.27 54.00 41.24 C 52.68 41.25 51.37 41.25 50.05 41.24 C 49.21 40.49 48.36 39.73 47.51 38.98 C 51.45 35.03 55.40 31.08 59.35 27.14 M 59.33 30.91 C 56.77 33.47 54.19 36.00 51.70 38.63 C 53.34 38.62 54.97 38.61 56.61 38.60 C 56.65 42.39 56.64 46.18 56.65 49.97 C 52.87 50.01 49.09 50.01 45.30 49.98 C 45.30 48.32 45.29 46.65 45.28 44.98 C 42.71 47.51 40.18 50.08 37.60 52.60 C 40.11 55.23 42.71 57.78 45.29 60.34 C 45.30 58.67 45.30 57.01 45.31 55.34 C 49.08 55.34 52.86 55.34 56.64 55.35 C 56.64 59.14 56.64 62.93 56.63 66.72 C 54.99 66.72 53.35 66.73 51.71 66.73 C 54.26 69.31 56.76 71.94 59.45 74.39 C 61.92 71.80 64.49 69.29 67.01 66.74 C 65.34 66.73 63.67 66.73 62.01 66.73 C 61.99 62.93 61.99 59.14 62.02 55.34 C 65.82 55.34 69.63 55.33 73.43 55.38 C 73.40 56.95 73.37 58.53 73.34 60.11 C 76.17 57.89 78.52 55.15 81.10 52.66 C 78.56 50.08 75.99 47.53 73.41 45.00 C 73.40 46.66 73.40 48.33 73.40 49.99 C 69.60 50.00 65.80 50.00 62.00 50.00 C 62.00 46.20 62.00 42.41 62.00 38.62 C 63.68 38.61 65.35 38.60 67.03 38.60 C 64.48 36.02 61.91 33.46 59.33 30.91 Z" />
</g>
</svg>
