<?xml version="1.0" encoding="UTF-8" ?>
<!DOCTYPE svg PUBLIC "-//W3C//DTD SVG 1.1//EN" "http://www.w3.org/Graphics/SVG/1.1/DTD/svg11.dtd">
<svg width="117px" height="140px" viewBox="0 0 117 140" version="1.1" xmlns="http://www.w3.org/2000/svg">
<g id="#000000ff">
<path fill="#000000" opacity="1.00" d=" M 0.00 0.00 L 117.00 0.00 L 117.00 140.00 L 0.00 140.00 L 0.00 0.00 M 33.23 10.25 C 17.96 11.75 5.21 25.62 5.04 40.98 C 4.95 60.00 5.02 79.03 5.01 98.06 C 4.96 107.84 9.76 117.45 17.54 123.37 C 23.33 127.87 30.69 130.17 38.02 130.01 C 53.04 129.92 68.07 130.15 83.09 129.89 C 99.02 129.25 112.84 114.96 112.95 99.01 C 113.06 80.00 112.99 60.99 112.98 41.99 C 113.09 30.94 106.92 20.17 97.42 14.57 C 91.94 11.21 85.44 9.79 79.04 9.98 C 63.77 10.18 48.48 9.67 33.23 10.25 Z" />
<path fill="#000000" opacity="1.00" d=" M 33.21 12.31 C 45.13 11.73 57.08 12.21 69.01 12.05 C 77.12 12.27 85.73 11.00 93.29 14.69 C 103.83 19.31 111.14 30.45 110.93 42.00 C 110.94 61.01 111.01 80.03 110.89 99.05 C 110.83 114.29 97.23 127.84 82.00 127.89 C 66.66 128.00 51.31 127.97 35.96 127.90 C 20.74 127.80 7.19 114.28 7.10 99.06 C 6.98 80.72 7.10 62.38 7.04 44.04 C 5.79 28.74 17.89 13.86 33.21 12.31 M 39.00 33.04 C 38.86 41.46 38.95 49.88 38.94 58.31 C 38.31 58.39 37.06 58.57 36.43 58.65 C 36.37 62.69 40.95 64.59 43.22 67.39 C 46.26 65.93 48.60 63.40 50.71 60.84 C 50.91 59.43 50.31 57.82 48.49 58.46 C 48.83 50.06 48.40 41.64 48.76 33.23 C 45.54 32.63 42.25 32.81 39.00 33.04 M 68.27 33.22 C 68.68 41.61 68.26 50.01 68.54 58.40 C 66.61 57.92 66.40 59.53 66.11 60.91 C 68.58 63.15 70.56 66.10 73.78 67.35 C 76.03 65.10 78.62 63.13 80.50 60.53 C 81.29 58.93 79.37 58.29 78.13 58.17 C 78.07 49.79 78.28 41.40 78.00 33.02 C 74.76 32.81 71.48 32.64 68.27 33.22 M 33.07 71.10 C 33.04 73.62 32.35 76.31 33.29 78.73 C 36.14 80.17 39.48 79.33 42.54 79.48 C 42.48 80.08 42.36 81.29 42.29 81.90 C 42.98 81.93 44.35 82.00 45.03 82.04 C 45.04 81.41 45.04 80.14 45.04 79.50 C 54.01 79.52 62.98 79.52 71.96 79.50 C 71.96 80.13 71.96 81.39 71.97 82.02 C 72.64 82.00 74.00 81.96 74.67 81.94 C 74.62 81.32 74.52 80.09 74.47 79.47 C 77.55 79.33 80.90 80.18 83.75 78.70 C 84.60 76.27 83.98 73.61 83.93 71.10 C 66.98 70.94 50.02 70.94 33.07 71.10 Z" />
<path fill="#000000" opacity="1.00" d=" M 41.93 35.97 C 43.16 35.96 44.39 35.96 45.62 35.95 C 45.93 44.35 44.94 52.86 46.18 61.19 C 45.33 62.08 44.48 62.97 43.64 63.86 C 42.86 63.00 42.07 62.17 41.28 61.34 C 42.74 53.01 41.54 44.41 41.93 35.97 Z" />
<path fill="#000000" opacity="1.00" d=" M 71.45 35.96 C 72.68 35.96 73.90 35.96 75.13 35.96 C 75.48 44.38 74.40 52.94 75.73 61.28 C 74.92 62.13 74.10 62.98 73.30 63.85 C 72.48 62.99 71.67 62.13 70.86 61.27 C 72.16 52.93 71.12 44.39 71.45 35.96 Z" />
<path fill="#000000" opacity="1.00" d=" M 35.89 74.10 C 50.96 74.10 66.04 74.10 81.11 74.10 C 81.14 74.70 81.18 75.89 81.21 76.49 C 66.07 76.48 50.93 76.48 35.79 76.49 C 35.82 75.89 35.86 74.70 35.89 74.10 Z" />
</g>
<g id="#788cc0ff">
<path fill="#788cc0" opacity="1.00" d=" M 33.23 10.25 C 48.48 9.67 63.77 10.18 79.04 9.98 C 85.44 9.79 91.94 11.21 97.42 14.57 C 106.92 20.17 113.09 30.94 112.98 41.99 C 112.99 60.99 113.06 80.00 112.95 99.01 C 112.84 114.96 99.02 129.25 83.09 129.89 C 68.07 130.15 53.04 129.92 38.02 130.01 C 30.69 130.17 23.33 127.87 17.54 123.37 C 9.76 117.45 4.96 107.84 5.01 98.06 C 5.02 79.03 4.95 60.00 5.04 40.98 C 5.21 25.62 17.96 11.75 33.23 10.25 M 33.21 12.31 C 17.89 13.86 5.79 28.74 7.04 44.04 C 7.10 62.38 6.98 80.72 7.10 99.06 C 7.19 114.28 20.74 127.80 35.96 127.90 C 51.31 127.97 66.66 128.00 82.00 127.89 C 97.23 127.84 110.83 114.29 110.89 99.05 C 111.01 80.03 110.94 61.01 110.93 42.00 C 111.14 30.45 103.83 19.31 93.29 14.69 C 85.73 11.00 77.12 12.27 69.01 12.05 C 57.08 12.21 45.13 11.73 33.21 12.31 Z" />
</g>
<g id="#f8fcf8ff">
<path fill="#f8fcf8" opacity="1.00" d=" M 39.00 33.04 C 42.25 32.81 45.54 32.63 48.76 33.23 C 48.40 41.64 48.83 50.06 48.49 58.46 C 50.31 57.82 50.91 59.43 50.71 60.84 C 48.60 63.40 46.26 65.93 43.22 67.39 C 40.95 64.59 36.37 62.69 36.43 58.65 C 37.06 58.57 38.31 58.39 38.94 58.31 C 38.95 49.88 38.86 41.46 39.00 33.04 M 41.93 35.97 C 41.54 44.41 42.74 53.01 41.28 61.34 C 42.07 62.17 42.86 63.00 43.64 63.86 C 44.48 62.97 45.33 62.08 46.18 61.19 C 44.94 52.86 45.93 44.35 45.62 35.95 C 44.39 35.96 43.16 35.96 41.93 35.97 Z" />
<path fill="#f8fcf8" opacity="1.00" d=" M 68.27 33.22 C 71.48 32.64 74.76 32.81 78.00 33.02 C 78.28 41.40 78.07 49.79 78.13 58.17 C 79.37 58.29 81.29 58.93 80.50 60.53 C 78.62 63.13 76.03 65.10 73.78 67.35 C 70.56 66.10 68.58 63.15 66.11 60.91 C 66.40 59.53 66.61 57.92 68.54 58.40 C 68.26 50.01 68.68 41.61 68.27 33.22 M 71.45 35.96 C 71.12 44.39 72.16 52.93 70.86 61.27 C 71.67 62.13 72.48 62.99 73.30 63.85 C 74.10 62.98 74.92 62.13 75.73 61.28 C 74.40 52.94 75.48 44.38 75.13 35.96 C 73.90 35.96 72.68 35.96 71.45 35.96 Z" />
<path fill="#f8fcf8" opacity="1.00" d=" M 33.07 71.10 C 50.02 70.94 66.98 70.94 83.93 71.10 C 83.98 73.61 84.60 76.27 83.75 78.70 C 80.90 80.18 77.55 79.33 74.47 79.47 C 74.52 80.09 74.62 81.32 74.67 81.94 C 74.00 81.96 72.64 82.00 71.97 82.02 C 71.96 81.39 71.96 80.13 71.96 79.50 C 62.98 79.52 54.01 79.52 45.04 79.50 C 45.04 80.14 45.04 81.41 45.03 82.04 C 44.35 82.00 42.98 81.93 42.29 81.90 C 42.36 81.29 42.48 80.08 42.54 79.48 C 39.48 79.33 36.14 80.17 33.29 78.73 C 32.35 76.31 33.04 73.62 33.07 71.10 M 35.89 74.10 C 35.86 74.70 35.82 75.89 35.79 76.49 C 50.93 76.48 66.07 76.48 81.21 76.49 C 81.18 75.89 81.14 74.70 81.11 74.10 C 66.04 74.10 50.96 74.10 35.89 74.10 Z" />
</g>
</svg>
