<?xml version="1.0" encoding="UTF-8" ?>
<!DOCTYPE svg PUBLIC "-//W3C//DTD SVG 1.1//EN" "http://www.w3.org/Graphics/SVG/1.1/DTD/svg11.dtd">
<svg width="117pt" height="140pt" viewBox="0 0 117 140" version="1.1" xmlns="http://www.w3.org/2000/svg">
<g id="#384450ff">
<path fill="#384450" opacity="1.00" d=" M 0.00 0.00 L 117.00 0.00 L 117.00 140.00 L 0.00 140.00 L 0.00 0.00 M 41.15 53.21 C 39.88 53.94 39.11 55.39 39.30 56.85 C 39.41 60.04 44.16 61.89 46.09 59.10 C 49.52 56.18 44.59 50.39 41.15 53.21 M 56.00 54.00 C 53.88 56.07 55.85 58.66 57.01 60.61 C 59.19 60.40 61.99 60.22 62.76 57.72 C 64.33 53.87 58.35 50.41 56.00 54.00 M 72.35 53.45 C 70.25 54.89 70.25 58.13 72.36 59.55 C 74.48 61.77 78.59 59.71 78.69 56.83 C 79.18 53.66 74.66 50.99 72.35 53.45 Z" />
</g>
<g id="#f8fcf8ff">
<path fill="#f8fcf8" opacity="1.00" d=" M 41.15 53.21 C 44.59 50.39 49.52 56.18 46.09 59.10 C 44.16 61.89 39.41 60.04 39.30 56.85 C 39.11 55.39 39.88 53.94 41.15 53.21 Z" />
<path fill="#f8fcf8" opacity="1.00" d=" M 56.00 54.00 C 58.35 50.41 64.33 53.87 62.76 57.72 C 61.99 60.22 59.19 60.40 57.01 60.61 C 55.85 58.66 53.88 56.07 56.00 54.00 Z" />
<path fill="#f8fcf8" opacity="1.00" d=" M 72.35 53.45 C 74.66 50.99 79.18 53.66 78.69 56.83 C 78.59 59.71 74.48 61.77 72.36 59.55 C 70.25 58.13 70.25 54.89 72.35 53.45 Z" />
</g>
</svg>
