<?xml version="1.0" encoding="UTF-8" ?>
<!DOCTYPE svg PUBLIC "-//W3C//DTD SVG 1.1//EN" "http://www.w3.org/Graphics/SVG/1.1/DTD/svg11.dtd">
<svg width="117pt" height="140pt" viewBox="0 0 117 140" version="1.1" xmlns="http://www.w3.org/2000/svg">
<g id="#000000ff">
<path fill="#000000" opacity="1.00" d=" M 0.00 0.00 L 117.00 0.00 L 117.00 140.00 L 0.00 140.00 L 0.00 0.00 M 29.44 10.67 C 15.33 13.40 4.18 26.63 4.01 41.01 C 4.02 60.69 3.93 80.37 4.05 100.05 C 4.72 115.65 18.35 129.27 33.95 129.95 C 49.99 130.03 66.04 130.06 82.09 129.93 C 98.03 129.27 111.85 115.00 111.99 99.04 C 111.98 79.34 112.07 59.63 111.94 39.92 C 111.27 24.31 97.60 10.70 82.00 10.06 C 67.34 9.90 52.67 10.07 38.01 9.98 C 35.14 9.95 32.25 10.06 29.44 10.67 Z" />
<path fill="#000000" opacity="1.00" d=" M 29.46 12.71 C 32.92 11.91 36.49 11.98 40.02 12.00 C 54.02 12.06 68.03 11.89 82.03 12.08 C 96.89 12.75 109.83 26.05 109.96 40.96 C 110.03 60.32 110.03 79.69 109.95 99.05 C 109.84 114.30 96.29 127.81 81.05 127.96 C 65.37 128.01 49.67 128.07 33.98 127.92 C 19.10 127.25 6.17 113.94 6.03 99.03 C 5.98 79.68 5.98 60.32 6.03 40.97 C 6.22 27.66 16.47 15.45 29.46 12.71 M 36.59 42.00 C 36.58 50.67 36.58 59.33 36.58 68.00 C 43.86 68.00 51.14 68.00 58.42 68.00 C 58.42 66.00 58.42 64.00 58.42 62.00 C 54.05 61.94 49.68 62.16 45.32 61.84 C 45.35 60.58 45.38 59.33 45.40 58.07 C 48.93 57.96 52.47 58.00 56.00 58.00 C 56.00 55.86 56.00 53.72 56.00 51.59 C 52.47 51.58 48.93 51.57 45.40 51.61 C 45.40 50.54 45.40 49.46 45.40 48.39 C 49.60 48.43 53.80 48.41 58.00 48.42 C 58.00 46.28 58.00 44.14 58.00 42.00 C 50.86 42.00 43.72 42.00 36.59 42.00 M 61.60 49.15 C 61.56 55.43 61.59 61.72 61.58 68.00 C 64.19 68.00 66.80 68.00 69.41 68.00 C 69.52 64.24 69.20 60.47 69.55 56.72 C 69.62 53.89 74.38 53.89 74.45 56.73 C 74.80 60.47 74.48 64.24 74.59 68.00 C 77.20 68.00 79.81 68.00 82.42 68.00 C 82.08 62.61 83.33 56.91 81.26 51.78 C 78.50 46.95 71.34 47.80 68.24 51.87 C 68.35 51.18 68.57 49.80 68.68 49.12 C 66.32 49.16 63.96 49.18 61.60 49.15 Z" />
</g>
<g id="#6a84bcff">
<path fill="#6a84bc" opacity="1.00" d=" M 29.44 10.67 C 32.25 10.06 35.14 9.95 38.01 9.98 C 52.67 10.07 67.34 9.90 82.00 10.06 C 97.60 10.70 111.27 24.31 111.94 39.92 C 112.07 59.63 111.98 79.34 111.99 99.04 C 111.85 115.00 98.03 129.27 82.09 129.93 C 66.04 130.06 49.99 130.03 33.95 129.95 C 18.35 129.27 4.72 115.65 4.05 100.05 C 3.93 80.37 4.02 60.69 4.01 41.01 C 4.18 26.63 15.33 13.40 29.44 10.67 M 29.46 12.71 C 16.47 15.45 6.22 27.66 6.03 40.97 C 5.98 60.32 5.98 79.68 6.03 99.03 C 6.17 113.94 19.10 127.25 33.98 127.92 C 49.67 128.07 65.37 128.01 81.05 127.96 C 96.29 127.81 109.84 114.30 109.95 99.05 C 110.03 79.69 110.03 60.32 109.96 40.96 C 109.83 26.05 96.89 12.75 82.03 12.08 C 68.03 11.89 54.02 12.06 40.02 12.00 C 36.49 11.98 32.92 11.91 29.46 12.71 Z" />
</g>
<g id="#f8fcf8ff">
<path fill="#f8fcf8" opacity="1.00" d=" M 36.59 42.00 C 43.72 42.00 50.86 42.00 58.00 42.00 C 58.00 44.14 58.00 46.28 58.00 48.42 C 53.80 48.41 49.60 48.43 45.40 48.39 C 45.40 49.46 45.40 50.54 45.40 51.61 C 48.93 51.57 52.47 51.58 56.00 51.59 C 56.00 53.72 56.00 55.86 56.00 58.00 C 52.47 58.00 48.93 57.96 45.40 58.07 C 45.38 59.33 45.35 60.58 45.32 61.84 C 49.68 62.16 54.05 61.94 58.42 62.00 C 58.42 64.00 58.42 66.00 58.42 68.00 C 51.14 68.00 43.86 68.00 36.58 68.00 C 36.58 59.33 36.58 50.67 36.59 42.00 Z" />
<path fill="#f8fcf8" opacity="1.00" d=" M 61.60 49.15 C 63.96 49.18 66.32 49.16 68.68 49.12 C 68.57 49.80 68.35 51.18 68.24 51.87 C 71.34 47.80 78.50 46.95 81.26 51.78 C 83.33 56.91 82.08 62.61 82.42 68.00 C 79.81 68.00 77.20 68.00 74.59 68.00 C 74.48 64.24 74.80 60.47 74.45 56.73 C 74.38 53.89 69.62 53.89 69.55 56.72 C 69.20 60.47 69.52 64.24 69.41 68.00 C 66.80 68.00 64.19 68.00 61.58 68.00 C 61.59 61.72 61.56 55.43 61.60 49.15 Z" />
</g>
</svg>
