<?xml version="1.0" encoding="UTF-8" ?>
<!DOCTYPE svg PUBLIC "-//W3C//DTD SVG 1.1//EN" "http://www.w3.org/Graphics/SVG/1.1/DTD/svg11.dtd">
<svg width="117px" height="140px" viewBox="0 0 117 140" version="1.1" xmlns="http://www.w3.org/2000/svg">
<g id="#000000ff">
<path fill="#000000" opacity="1.00" d=" M 0.00 0.00 L 117.00 0.00 L 117.00 140.00 L 0.00 140.00 L 0.00 0.00 M 29.36 10.46 C 15.65 13.31 4.42 25.89 4.00 40.01 C 4.00 60.03 4.00 80.05 4.00 100.06 C 4.46 115.38 17.80 128.99 33.05 129.98 C 49.68 130.04 66.31 129.98 82.95 130.00 C 98.92 129.37 112.84 114.97 112.94 98.97 C 113.03 79.64 113.03 60.31 112.93 40.98 C 112.85 25.01 98.91 10.64 82.98 10.00 C 66.65 10.00 50.33 10.01 34.00 9.99 C 32.45 10.02 30.88 10.12 29.36 10.46 Z" />
<path fill="#000000" opacity="1.00" d=" M 35.05 12.24 C 49.37 11.79 63.72 12.20 78.06 12.03 C 86.27 11.97 94.58 14.65 100.59 20.38 C 106.67 26.22 110.07 34.60 109.99 43.02 C 110.01 61.02 110.01 79.03 109.99 97.03 C 110.09 107.57 104.61 118.21 95.37 123.53 C 90.19 126.78 84.01 127.84 77.98 127.96 C 64.97 127.95 51.96 127.94 38.95 127.96 C 33.10 127.88 27.09 126.91 22.00 123.86 C 12.84 118.80 6.94 108.49 7.09 98.04 C 7.05 79.00 6.98 59.96 7.12 40.93 C 7.17 25.99 20.18 12.81 35.05 12.24 M 37.21 28.26 C 37.19 32.39 37.11 36.52 37.25 40.65 C 37.65 41.02 38.44 41.74 38.83 42.10 C 38.58 44.44 38.84 46.77 39.10 49.09 C 38.83 50.55 37.21 51.37 37.24 52.94 C 37.01 59.96 37.22 66.98 37.18 74.01 C 37.28 76.69 36.96 79.46 37.79 82.06 C 51.50 81.76 65.19 82.10 78.89 81.90 C 79.16 71.25 78.90 60.60 79.03 49.95 C 79.15 48.31 78.44 46.78 78.24 45.18 C 79.60 41.67 78.86 37.85 78.92 34.20 C 76.87 32.25 74.91 30.22 72.90 28.23 C 61.01 28.41 49.11 28.36 37.21 28.26 Z" />
<path fill="#000000" opacity="1.00" d=" M 37.91 28.82 C 48.27 28.51 58.64 28.77 69.01 28.67 C 72.72 28.20 74.53 32.05 77.01 34.07 C 76.99 37.73 77.63 41.57 75.97 45.00 C 76.31 46.65 77.27 48.17 77.09 49.92 C 76.91 59.88 77.34 69.86 76.85 79.81 C 70.57 79.79 64.26 80.10 57.99 79.56 C 51.41 79.90 44.80 80.00 38.21 79.72 C 37.49 73.15 37.98 66.52 37.81 59.93 C 37.98 56.91 37.21 53.59 38.97 50.90 C 40.37 52.25 39.71 54.32 39.86 56.02 C 39.70 61.64 40.11 67.26 39.84 72.88 C 39.53 74.71 41.02 76.63 42.90 76.64 C 52.64 76.65 62.40 76.65 72.15 76.64 C 74.05 76.63 75.34 74.70 75.14 72.91 C 75.11 60.61 75.29 48.30 75.10 36.00 C 75.20 33.87 72.89 32.64 71.00 32.87 C 61.65 32.92 52.29 32.78 42.94 32.93 C 39.17 33.09 39.83 37.61 39.82 40.22 C 39.35 39.95 38.40 39.40 37.92 39.13 C 37.68 35.69 37.91 32.25 37.91 28.82 M 44.60 77.76 L 44.70 79.16 C 53.26 79.32 61.81 79.38 70.37 79.14 L 70.39 77.75 C 61.79 77.69 53.19 77.67 44.60 77.76 Z" />
<path fill="#000000" opacity="1.00" d=" M 43.14 34.34 C 52.44 34.14 61.74 34.29 71.04 34.27 C 73.04 33.98 74.26 36.20 74.17 37.93 C 74.22 48.94 74.13 59.96 74.18 70.97 C 74.40 72.96 73.32 75.43 71.00 75.35 C 62.34 75.52 53.66 75.38 44.99 75.42 C 42.98 75.73 40.64 74.23 40.85 72.03 C 40.92 61.03 40.68 50.03 40.75 39.03 C 40.67 37.29 41.10 34.70 43.14 34.34 M 44.25 37.40 C 44.02 37.63 43.57 38.10 43.35 38.34 C 43.14 48.23 43.23 58.14 43.20 68.04 C 43.26 69.63 43.00 72.03 45.04 72.48 C 53.09 72.70 61.15 72.54 69.19 72.56 C 70.53 72.70 71.94 71.41 71.64 70.02 C 71.50 59.46 71.77 48.89 71.65 38.33 C 69.64 35.91 65.85 37.09 63.07 36.79 C 56.83 37.20 50.34 36.02 44.25 37.40 Z" />
<path fill="#000000" opacity="1.00" d=" M 44.02 43.87 C 44.03 41.84 43.19 38.48 45.91 37.87 C 53.60 37.77 61.31 37.74 69.01 37.88 C 71.81 38.47 70.96 41.85 71.06 43.91 C 68.39 44.72 65.78 43.39 63.10 43.64 C 59.73 43.93 56.36 43.70 52.98 43.63 C 49.98 43.48 47.01 44.50 44.02 43.87 M 44.95 40.05 C 45.71 42.93 49.13 44.32 51.50 42.41 C 51.87 42.58 52.61 42.91 52.99 43.07 C 53.40 42.90 54.24 42.55 54.66 42.38 C 56.59 43.53 58.87 43.25 60.99 42.88 C 60.37 41.64 59.78 40.39 59.21 39.13 C 58.94 39.81 58.41 41.17 58.14 41.85 C 57.67 41.20 56.72 39.90 56.24 39.25 C 53.29 42.08 48.42 42.20 44.95 40.05 M 63.02 39.39 C 63.31 41.03 64.90 41.90 65.95 43.04 C 67.52 42.72 67.27 40.76 67.69 39.59 C 66.13 39.53 64.58 39.44 63.02 39.39 Z" />
<path fill="#000000" opacity="1.00" d=" M 43.79 48.00 C 43.57 46.48 44.21 45.05 45.97 45.50 C 54.34 45.67 62.75 45.24 71.10 45.80 C 70.86 47.81 70.93 49.83 70.81 51.84 C 70.11 53.69 67.64 53.49 66.03 53.46 C 60.50 52.42 56.57 47.53 50.94 46.81 C 48.49 46.31 46.12 47.41 43.79 48.00 Z" />
<path fill="#000000" opacity="1.00" d=" M 43.97 50.09 C 47.38 45.99 54.29 47.56 57.29 51.24 L 56.49 52.11 C 54.75 52.36 53.01 52.53 51.28 52.83 C 50.61 52.16 49.92 51.50 49.16 50.93 C 49.24 52.06 49.40 53.17 49.67 54.27 C 51.28 55.01 53.19 54.31 54.90 54.28 C 56.07 54.18 57.25 54.31 58.42 54.39 C 58.44 53.70 58.47 52.32 58.48 51.63 C 62.34 53.40 66.52 55.79 70.97 54.01 C 70.80 57.95 70.84 61.89 70.93 65.83 C 69.85 66.29 68.28 66.09 67.72 67.34 C 70.45 65.99 71.81 69.33 70.58 71.50 C 61.95 71.87 53.30 71.49 44.66 71.69 C 43.46 68.94 43.86 65.91 43.84 63.01 C 43.95 58.70 43.63 54.39 43.97 50.09 M 46.20 51.09 C 45.62 52.71 46.16 53.29 47.80 52.82 C 48.37 51.20 47.83 50.62 46.20 51.09 M 47.87 62.21 C 48.79 63.75 50.80 63.91 52.24 64.79 C 50.41 64.90 48.58 64.86 46.76 64.76 C 46.48 65.37 45.91 66.60 45.62 67.22 C 48.43 67.17 51.24 67.41 54.03 67.16 C 55.59 66.85 56.19 65.30 56.11 63.88 C 54.40 63.11 52.09 63.07 50.97 61.38 C 53.22 61.30 55.47 61.29 57.72 61.26 L 57.70 59.77 C 54.50 60.15 49.55 58.52 47.87 62.21 M 59.01 60.96 C 59.94 61.86 61.10 62.16 62.49 61.86 C 61.84 65.67 56.17 62.79 56.48 67.23 C 59.94 67.34 63.60 67.29 66.71 65.56 C 68.00 64.83 69.43 62.61 67.42 61.58 L 68.16 61.53 C 66.24 60.70 64.12 59.67 61.98 60.34 C 60.54 59.21 59.55 59.42 59.01 60.96 Z" />
</g>
<g id="#708cc8ff">
<path fill="#708cc8" opacity="1.00" d=" M 29.36 10.46 C 30.88 10.12 32.45 10.02 34.00 9.99 C 50.33 10.01 66.65 10.00 82.98 10.00 C 98.91 10.64 112.85 25.01 112.93 40.98 C 113.03 60.31 113.03 79.64 112.94 98.97 C 112.84 114.97 98.92 129.37 82.95 130.00 C 66.31 129.98 49.68 130.04 33.05 129.98 C 17.80 128.99 4.46 115.38 4.00 100.06 C 4.00 80.05 4.00 60.03 4.00 40.01 C 4.42 25.89 15.65 13.31 29.36 10.46 M 35.05 12.24 C 20.18 12.81 7.17 25.99 7.12 40.93 C 6.98 59.96 7.05 79.00 7.09 98.04 C 6.94 108.49 12.84 118.80 22.00 123.86 C 27.09 126.91 33.10 127.88 38.95 127.96 C 51.96 127.94 64.97 127.95 77.98 127.96 C 84.01 127.84 90.19 126.78 95.37 123.53 C 104.61 118.21 110.09 107.57 109.99 97.03 C 110.01 79.03 110.01 61.02 109.99 43.02 C 110.07 34.60 106.67 26.22 100.59 20.38 C 94.58 14.65 86.27 11.97 78.06 12.03 C 63.72 12.20 49.37 11.79 35.05 12.24 Z" />
<path fill="#708cc8" opacity="1.00" d=" M 49.16 50.93 C 49.92 51.50 50.61 52.16 51.28 52.83 C 53.01 52.53 54.75 52.36 56.49 52.11 C 56.83 52.19 57.51 52.35 57.85 52.44 C 57.58 53.85 56.08 54.04 54.90 54.28 C 53.19 54.31 51.28 55.01 49.67 54.27 C 49.40 53.17 49.24 52.06 49.16 50.93 Z" />
</g>
<g id="#f8fcf8ff">
<path fill="#f8fcf8" opacity="1.00" d=" M 37.21 28.26 C 49.11 28.36 61.01 28.41 72.90 28.23 C 74.91 30.22 76.87 32.25 78.92 34.20 C 78.86 37.85 79.60 41.67 78.24 45.18 C 78.44 46.78 79.15 48.31 79.03 49.95 C 78.90 60.60 79.16 71.25 78.89 81.90 C 65.19 82.10 51.50 81.76 37.79 82.06 C 36.96 79.46 37.28 76.69 37.18 74.01 C 37.22 66.98 37.01 59.96 37.24 52.94 C 37.21 51.37 38.83 50.55 39.10 49.09 C 38.84 46.77 38.58 44.44 38.83 42.10 C 38.44 41.74 37.65 41.02 37.25 40.65 C 37.11 36.52 37.19 32.39 37.21 28.26 M 37.91 28.82 C 37.91 32.25 37.68 35.69 37.92 39.13 C 38.40 39.40 39.35 39.95 39.82 40.22 C 39.83 37.61 39.17 33.09 42.94 32.93 C 52.29 32.78 61.65 32.92 71.00 32.87 C 72.89 32.64 75.20 33.87 75.10 36.00 C 75.29 48.30 75.11 60.61 75.14 72.91 C 75.34 74.70 74.05 76.63 72.15 76.64 C 62.40 76.65 52.64 76.65 42.90 76.64 C 41.02 76.63 39.53 74.71 39.84 72.88 C 40.11 67.26 39.70 61.64 39.86 56.02 C 39.71 54.32 40.37 52.25 38.97 50.90 C 37.21 53.59 37.98 56.91 37.81 59.93 C 37.98 66.52 37.49 73.15 38.21 79.72 C 44.80 80.00 51.41 79.90 57.99 79.56 C 64.26 80.10 70.57 79.79 76.85 79.81 C 77.34 69.86 76.91 59.88 77.09 49.92 C 77.27 48.17 76.31 46.65 75.97 45.00 C 77.63 41.57 76.99 37.73 77.01 34.07 C 74.53 32.05 72.72 28.20 69.01 28.67 C 58.64 28.77 48.27 28.51 37.91 28.82 M 43.14 34.34 C 41.10 34.70 40.67 37.29 40.75 39.03 C 40.68 50.03 40.92 61.03 40.85 72.03 C 40.64 74.23 42.98 75.73 44.99 75.42 C 53.66 75.38 62.34 75.52 71.00 75.35 C 73.32 75.43 74.40 72.96 74.18 70.97 C 74.13 59.96 74.22 48.94 74.17 37.93 C 74.26 36.20 73.04 33.98 71.04 34.27 C 61.74 34.29 52.44 34.14 43.14 34.34 Z" />
<path fill="#f8fcf8" opacity="1.00" d=" M 44.25 37.40 C 50.34 36.02 56.83 37.20 63.07 36.79 C 65.85 37.09 69.64 35.91 71.65 38.33 C 71.77 48.89 71.50 59.46 71.64 70.02 C 71.94 71.41 70.53 72.70 69.19 72.56 C 61.15 72.54 53.09 72.70 45.04 72.48 C 43.00 72.03 43.26 69.63 43.20 68.04 C 43.23 58.14 43.14 48.23 43.35 38.34 C 43.57 38.10 44.02 37.63 44.25 37.40 M 44.02 43.87 C 47.01 44.50 49.98 43.48 52.98 43.63 C 56.36 43.70 59.73 43.93 63.10 43.64 C 65.78 43.39 68.39 44.72 71.06 43.91 C 70.96 41.85 71.81 38.47 69.01 37.88 C 61.31 37.74 53.60 37.77 45.91 37.87 C 43.19 38.48 44.03 41.84 44.02 43.87 M 43.79 48.00 C 46.12 47.41 48.49 46.31 50.94 46.81 C 56.57 47.53 60.50 52.42 66.03 53.46 C 67.64 53.49 70.11 53.69 70.81 51.84 C 70.93 49.83 70.86 47.81 71.10 45.80 C 62.75 45.24 54.34 45.67 45.97 45.50 C 44.21 45.05 43.57 46.48 43.79 48.00 M 43.97 50.09 C 43.63 54.39 43.95 58.70 43.84 63.01 C 43.86 65.91 43.46 68.94 44.66 71.69 C 53.30 71.49 61.95 71.87 70.58 71.50 C 71.81 69.33 70.45 65.99 67.72 67.34 C 68.28 66.09 69.85 66.29 70.93 65.83 C 70.84 61.89 70.80 57.95 70.97 54.01 C 66.52 55.79 62.34 53.40 58.48 51.63 C 58.47 52.32 58.44 53.70 58.42 54.39 C 57.25 54.31 56.07 54.18 54.90 54.28 C 56.08 54.04 57.58 53.85 57.85 52.44 C 57.51 52.35 56.83 52.19 56.49 52.11 L 57.29 51.24 C 54.29 47.56 47.38 45.99 43.97 50.09 Z" />
<path fill="#f8fcf8" opacity="1.00" d=" M 44.95 40.05 C 48.42 42.20 53.29 42.08 56.24 39.25 C 56.72 39.90 57.67 41.20 58.14 41.85 C 58.41 41.17 58.94 39.81 59.21 39.13 C 59.78 40.39 60.37 41.64 60.99 42.88 C 58.87 43.25 56.59 43.53 54.66 42.38 C 54.24 42.55 53.40 42.90 52.99 43.07 C 52.61 42.91 51.87 42.58 51.50 42.41 C 49.13 44.32 45.71 42.93 44.95 40.05 Z" />
<path fill="#f8fcf8" opacity="1.00" d=" M 63.02 39.39 C 64.58 39.44 66.13 39.53 67.69 39.59 C 67.27 40.76 67.52 42.72 65.95 43.04 C 64.90 41.90 63.31 41.03 63.02 39.39 Z" />
<path fill="#f8fcf8" opacity="1.00" d=" M 59.01 60.96 C 59.55 59.42 60.54 59.21 61.98 60.34 C 61.07 61.04 60.08 61.25 59.01 60.96 Z" />
<path fill="#f8fcf8" opacity="1.00" d=" M 62.49 61.86 C 64.13 61.81 65.77 61.66 67.42 61.58 C 69.43 62.61 68.00 64.83 66.71 65.56 C 63.60 67.29 59.94 67.34 56.48 67.23 C 56.17 62.79 61.84 65.67 62.49 61.86 Z" />
<path fill="#f8fcf8" opacity="1.00" d=" M 44.60 77.76 C 53.19 77.67 61.79 77.69 70.39 77.75 L 70.37 79.14 C 61.81 79.38 53.26 79.32 44.70 79.16 L 44.60 77.76 Z" />
</g>
<g id="#c0c3c0ff">
<path fill="#c0c3c0" opacity="1.00" d=" M 46.20 51.09 C 47.83 50.62 48.37 51.20 47.80 52.82 C 46.16 53.29 45.62 52.71 46.20 51.09 Z" />
</g>
<g id="#f0f3f0ff">
<path fill="#f0f3f0" opacity="1.00" d=" M 47.87 62.21 C 49.55 58.52 54.50 60.15 57.70 59.77 L 57.72 61.26 C 55.47 61.29 53.22 61.30 50.97 61.38 C 52.09 63.07 54.40 63.11 56.11 63.88 C 56.19 65.30 55.59 66.85 54.03 67.16 C 51.24 67.41 48.43 67.17 45.62 67.22 C 45.91 66.60 46.48 65.37 46.76 64.76 C 48.58 64.86 50.41 64.90 52.24 64.79 C 50.80 63.91 48.79 63.75 47.87 62.21 Z" />
</g>
<g id="#858685ff">
<path fill="#858685" opacity="1.00" d=" M 61.98 60.34 C 64.12 59.67 66.24 60.70 68.16 61.53 L 67.42 61.58 C 65.77 61.66 64.13 61.81 62.49 61.86 C 61.10 62.16 59.94 61.86 59.01 60.96 C 60.08 61.25 61.07 61.04 61.98 60.34 Z" />
</g>
</svg>
