<?xml version="1.0" encoding="UTF-8" ?>
<!DOCTYPE svg PUBLIC "-//W3C//DTD SVG 1.1//EN" "http://www.w3.org/Graphics/SVG/1.1/DTD/svg11.dtd">
<svg width="117px" height="140px" viewBox="0 0 117 140" version="1.1" xmlns="http://www.w3.org/2000/svg">
<g id="#000000ff">
<path fill="#000000" opacity="1.00" d=" M 0.00 0.00 L 117.00 0.00 L 117.00 140.00 L 0.00 140.00 L 0.00 0.00 M 33.19 10.21 C 17.94 11.75 5.18 25.60 5.01 40.95 C 4.99 60.32 4.99 79.69 5.01 99.06 C 5.17 115.02 18.98 129.26 34.92 129.94 C 50.63 130.08 66.35 129.99 82.06 129.98 C 98.03 129.83 112.30 115.99 112.93 100.04 C 113.10 80.69 112.95 61.33 113.01 41.98 C 113.12 31.15 107.18 20.57 97.99 14.88 C 92.36 11.28 85.58 9.71 78.93 9.98 C 63.69 10.17 48.42 9.69 33.19 10.21 Z" />
<path fill="#000000" opacity="1.00" d=" M 30.51 12.70 C 34.62 11.80 38.86 12.03 43.04 12.00 C 56.37 12.06 69.71 11.88 83.04 12.10 C 97.91 12.74 110.84 26.09 110.95 40.98 C 111.03 60.33 111.03 79.68 110.95 99.02 C 110.86 114.26 97.32 127.80 82.10 127.95 C 66.75 128.04 51.39 128.02 36.03 127.96 C 20.76 127.86 7.15 114.31 7.04 99.03 C 6.97 79.70 6.98 60.37 7.04 41.04 C 7.18 27.68 17.49 15.43 30.51 12.70 M 49.84 28.54 C 43.97 29.93 38.43 35.65 39.93 42.02 C 41.71 47.98 48.11 50.58 53.70 51.65 C 53.75 51.96 53.86 52.58 53.92 52.89 C 48.93 57.35 43.15 49.92 38.04 53.06 C 35.53 54.70 34.40 58.03 35.39 60.86 C 36.63 67.00 42.43 72.83 49.09 71.34 C 55.33 69.32 57.66 62.51 58.90 56.72 C 62.52 59.24 61.32 64.10 59.69 67.46 C 57.64 71.07 60.82 76.12 64.91 76.00 C 72.17 76.47 80.07 69.71 78.25 62.04 C 76.19 55.67 69.20 53.78 63.52 52.07 C 66.45 49.03 71.06 49.92 74.48 51.56 C 77.22 52.95 80.72 51.67 82.21 49.05 C 84.07 45.65 82.58 41.48 80.70 38.40 C 78.18 34.03 72.24 31.14 67.49 33.61 C 62.63 36.19 60.53 41.67 59.60 46.78 C 59.25 46.78 58.55 46.76 58.19 46.75 C 56.31 44.20 56.81 40.64 58.08 37.92 C 58.97 35.97 59.65 33.59 58.48 31.60 C 56.94 28.49 52.98 27.31 49.84 28.54 Z" />
<path fill="#000000" opacity="1.00" d=" M 42.69 41.02 C 42.06 35.22 48.45 30.53 53.83 31.20 C 56.57 31.95 56.39 35.17 55.19 37.18 C 53.26 40.96 54.02 45.24 55.45 49.04 C 50.49 48.02 44.47 46.41 42.69 41.02 Z" />
<path fill="#000000" opacity="1.00" d=" M 62.23 48.34 C 63.22 43.54 64.79 37.56 70.02 35.85 C 76.20 34.79 80.46 41.69 80.17 47.20 C 78.59 49.22 76.07 49.54 73.90 48.20 C 70.17 46.21 66.06 47.37 62.23 48.34 Z" />
<path fill="#000000" opacity="1.00" d=" M 57.43 50.48 C 59.32 47.88 63.12 51.77 60.91 53.87 C 58.84 56.20 54.85 52.45 57.43 50.48 Z" />
<path fill="#000000" opacity="1.00" d=" M 38.20 60.05 C 37.47 58.05 38.63 55.31 40.90 55.11 C 43.68 55.41 46.09 57.32 48.96 57.24 C 51.36 57.39 53.62 56.46 55.88 55.79 C 55.03 60.54 53.64 66.06 48.84 68.30 C 43.56 69.82 39.20 64.75 38.20 60.05 Z" />
<path fill="#000000" opacity="1.00" d=" M 62.76 55.22 C 67.61 56.33 73.54 57.73 75.39 63.02 C 76.52 69.22 68.99 74.52 63.44 72.57 C 60.79 70.94 62.70 68.00 63.52 65.88 C 65.03 62.40 63.86 58.63 62.76 55.22 Z" />
</g>
<g id="#7186b5ff">
<path fill="#7186b5" opacity="1.00" d=" M 33.19 10.21 C 48.42 9.69 63.69 10.17 78.93 9.98 C 85.58 9.71 92.36 11.28 97.99 14.88 C 107.18 20.57 113.12 31.15 113.01 41.98 C 112.95 61.33 113.10 80.69 112.93 100.04 C 112.30 115.99 98.03 129.83 82.06 129.98 C 66.35 129.99 50.63 130.08 34.92 129.94 C 18.98 129.26 5.17 115.02 5.01 99.06 C 4.99 79.69 4.99 60.32 5.01 40.95 C 5.18 25.60 17.94 11.75 33.19 10.21 M 30.51 12.70 C 17.49 15.43 7.18 27.68 7.04 41.04 C 6.98 60.37 6.97 79.70 7.04 99.03 C 7.15 114.31 20.76 127.86 36.03 127.96 C 51.39 128.02 66.75 128.04 82.10 127.95 C 97.32 127.80 110.86 114.26 110.95 99.02 C 111.03 79.68 111.03 60.33 110.95 40.98 C 110.84 26.09 97.91 12.74 83.04 12.10 C 69.71 11.88 56.37 12.06 43.04 12.00 C 38.86 12.03 34.62 11.80 30.51 12.70 Z" />
</g>
<g id="#f8fcf8ff">
<path fill="#f8fcf8" opacity="1.00" d=" M 49.84 28.54 C 52.98 27.31 56.94 28.49 58.48 31.60 C 59.65 33.59 58.97 35.97 58.08 37.92 C 56.81 40.64 56.31 44.20 58.19 46.75 C 58.55 46.76 59.25 46.78 59.60 46.78 C 60.53 41.67 62.63 36.19 67.49 33.61 C 72.24 31.14 78.18 34.03 80.70 38.40 C 82.58 41.48 84.07 45.65 82.21 49.05 C 80.72 51.67 77.22 52.95 74.48 51.56 C 71.06 49.92 66.45 49.03 63.52 52.07 C 69.20 53.78 76.19 55.67 78.25 62.04 C 80.07 69.71 72.17 76.47 64.91 76.00 C 60.82 76.12 57.64 71.07 59.69 67.46 C 61.32 64.10 62.52 59.24 58.90 56.72 C 57.66 62.51 55.33 69.32 49.09 71.34 C 42.43 72.83 36.63 67.00 35.39 60.86 C 34.40 58.03 35.53 54.70 38.04 53.06 C 43.15 49.92 48.93 57.35 53.92 52.89 C 53.86 52.58 53.75 51.96 53.70 51.65 C 48.11 50.58 41.71 47.98 39.93 42.02 C 38.43 35.65 43.97 29.93 49.84 28.54 M 42.69 41.02 C 44.47 46.41 50.49 48.02 55.45 49.04 C 54.02 45.24 53.26 40.96 55.19 37.18 C 56.39 35.17 56.57 31.95 53.83 31.20 C 48.45 30.53 42.06 35.22 42.69 41.02 M 62.23 48.34 C 66.06 47.37 70.17 46.21 73.90 48.20 C 76.07 49.54 78.59 49.22 80.17 47.20 C 80.46 41.69 76.20 34.79 70.02 35.85 C 64.79 37.56 63.22 43.54 62.23 48.34 M 57.43 50.48 C 54.85 52.45 58.84 56.20 60.91 53.87 C 63.12 51.77 59.32 47.88 57.43 50.48 M 38.20 60.05 C 39.20 64.75 43.56 69.82 48.84 68.30 C 53.64 66.06 55.03 60.54 55.88 55.79 C 53.62 56.46 51.36 57.39 48.96 57.24 C 46.09 57.32 43.68 55.41 40.90 55.11 C 38.63 55.31 37.47 58.05 38.20 60.05 M 62.76 55.22 C 63.86 58.63 65.03 62.40 63.52 65.88 C 62.70 68.00 60.79 70.94 63.44 72.57 C 68.99 74.52 76.52 69.22 75.39 63.02 C 73.54 57.73 67.61 56.33 62.76 55.22 Z" />
</g>
</svg>
