<?xml version="1.0" encoding="UTF-8" ?>
<!DOCTYPE svg PUBLIC "-//W3C//DTD SVG 1.1//EN" "http://www.w3.org/Graphics/SVG/1.1/DTD/svg11.dtd">
<svg width="117px" height="140px" viewBox="0 0 117 140" version="1.1" xmlns="http://www.w3.org/2000/svg">
<g id="#384450ff">
<path fill="#384450" opacity="1.00" d=" M 0.00 0.00 L 117.00 0.00 L 117.00 140.00 L 0.00 140.00 L 0.00 0.00 M 41.24 53.15 C 38.96 54.27 38.56 57.81 40.59 59.36 C 42.24 61.11 45.33 60.72 46.50 58.60 C 49.14 55.56 44.38 50.64 41.24 53.15 M 56.49 53.47 C 54.58 54.97 54.58 58.00 56.47 59.51 C 58.66 61.74 62.61 59.89 62.95 56.96 C 63.45 53.64 58.93 50.95 56.49 53.47 M 72.38 53.42 C 70.24 54.85 70.24 58.16 72.39 59.59 C 74.75 61.93 79.19 59.29 78.69 56.14 C 78.56 53.28 74.51 51.21 72.38 53.42 Z" />
</g>
<g id="#f8fcf8ff">
<path fill="#f8fcf8" opacity="1.00" d=" M 41.24 53.15 C 44.38 50.64 49.14 55.56 46.50 58.60 C 45.33 60.72 42.24 61.11 40.59 59.36 C 38.56 57.81 38.96 54.27 41.24 53.15 Z" />
<path fill="#f8fcf8" opacity="1.00" d=" M 56.49 53.47 C 58.93 50.95 63.45 53.64 62.95 56.96 C 62.61 59.89 58.66 61.74 56.47 59.51 C 54.58 58.00 54.58 54.97 56.49 53.47 Z" />
<path fill="#f8fcf8" opacity="1.00" d=" M 72.38 53.42 C 74.51 51.21 78.56 53.28 78.69 56.14 C 79.19 59.29 74.75 61.93 72.39 59.59 C 70.24 58.16 70.24 54.85 72.38 53.42 Z" />
</g>
</svg>
