<?xml version="1.0" encoding="UTF-8" ?>
<!DOCTYPE svg PUBLIC "-//W3C//DTD SVG 1.1//EN" "http://www.w3.org/Graphics/SVG/1.1/DTD/svg11.dtd">
<svg width="117px" height="140px" viewBox="0 0 117 140" version="1.1" xmlns="http://www.w3.org/2000/svg">
<g id="#000000ff">
<path fill="#000000" opacity="1.00" d=" M 0.00 0.00 L 117.00 0.00 L 117.00 140.00 L 0.00 140.00 L 0.00 0.00 M 29.51 10.65 C 15.37 13.36 4.16 26.61 4.01 41.03 C 3.99 60.36 3.99 79.68 4.01 99.01 C 4.13 114.99 17.98 129.28 33.95 129.94 C 49.64 130.07 65.35 129.99 81.04 129.97 C 97.36 129.86 111.86 115.39 111.98 99.07 C 112.02 79.71 112.02 60.35 111.98 40.99 C 111.88 25.00 98.00 10.71 82.03 10.07 C 69.36 9.88 56.69 10.07 44.02 10.00 C 39.18 10.05 34.28 9.66 29.51 10.65 Z" />
<path fill="#000000" opacity="1.00" d=" M 29.56 12.69 C 34.33 11.68 39.23 12.09 44.07 12.00 C 56.74 12.06 69.42 11.87 82.08 12.10 C 96.93 12.77 109.85 26.09 109.94 40.96 C 110.04 60.33 110.04 79.70 109.94 99.06 C 109.85 114.30 96.28 127.82 81.05 127.95 C 65.67 128.04 50.29 128.02 34.92 127.95 C 19.68 127.80 6.13 114.25 6.05 99.00 C 5.97 79.66 5.97 60.32 6.05 40.98 C 6.20 27.62 16.54 15.39 29.56 12.69 M 46.00 38.00 C 44.73 40.11 43.41 42.18 42.02 44.21 C 42.95 45.51 43.88 46.80 44.81 48.09 C 44.11 48.13 42.70 48.20 42.00 48.23 C 42.00 49.47 42.00 50.72 42.00 51.97 C 42.60 51.99 43.81 52.03 44.42 52.05 C 44.40 53.33 44.39 54.61 44.37 55.89 C 46.41 56.00 48.44 56.11 50.48 56.28 C 49.00 56.62 47.52 56.94 46.04 57.26 C 46.14 58.49 46.23 59.73 46.33 60.96 C 49.34 60.82 52.35 60.68 55.37 60.74 C 51.68 61.81 47.81 61.92 43.99 62.07 C 44.05 63.57 44.10 65.07 44.15 66.57 C 44.95 66.57 46.57 66.58 47.38 66.58 C 45.67 67.21 43.95 67.84 42.24 68.45 C 43.58 69.84 44.92 71.24 46.24 72.65 C 48.61 71.51 50.98 70.35 53.35 69.20 C 53.60 69.89 54.10 71.26 54.35 71.95 C 56.74 71.93 59.21 72.21 61.55 71.55 C 62.59 70.83 62.61 69.38 63.14 68.32 C 66.20 69.73 69.24 71.21 72.24 72.74 C 73.39 71.21 74.54 69.69 75.71 68.18 C 74.80 67.84 72.97 67.14 72.06 66.80 C 73.30 66.22 74.55 65.65 75.80 65.08 C 74.06 62.56 72.28 60.07 70.49 57.59 C 69.26 58.17 68.03 58.75 66.81 59.35 C 66.09 60.61 64.97 61.40 63.44 61.39 C 65.20 59.79 67.10 58.37 69.02 56.96 C 68.43 56.45 67.27 55.45 66.69 54.95 C 68.89 56.01 71.08 57.08 73.30 58.12 C 74.45 55.90 75.56 53.67 76.72 51.45 C 75.05 51.05 73.38 50.62 71.73 50.16 C 72.70 48.26 73.28 45.83 75.58 45.12 C 75.60 43.54 75.60 41.95 75.61 40.37 C 72.81 40.40 70.00 40.42 67.20 40.46 C 67.37 39.95 67.73 38.92 67.90 38.41 C 66.00 38.31 64.09 38.20 62.19 38.09 C 61.62 39.49 61.06 40.88 60.50 42.28 C 60.46 41.71 60.38 40.57 60.33 40.00 C 57.45 40.00 54.57 40.00 51.68 40.00 C 51.68 39.55 51.69 38.65 51.69 38.21 C 49.79 38.15 47.89 38.08 46.00 38.00 Z" />
<path fill="#000000" opacity="1.00" d=" M 59.90 47.92 C 60.98 48.90 62.05 49.90 63.09 50.91 C 61.57 51.76 60.03 52.60 58.49 53.43 C 59.32 54.44 60.15 55.44 61.00 56.43 C 59.58 56.70 58.16 56.98 56.74 57.28 C 57.18 56.81 58.04 55.88 58.48 55.41 C 58.45 54.73 58.40 53.38 58.37 52.70 C 60.18 51.70 59.80 49.65 59.90 47.92 Z" />
</g>
<g id="#6a84bcff">
<path fill="#6a84bc" opacity="1.00" d=" M 29.51 10.65 C 34.28 9.66 39.18 10.05 44.02 10.00 C 56.69 10.07 69.36 9.88 82.03 10.07 C 98.00 10.71 111.88 25.00 111.98 40.99 C 112.02 60.35 112.02 79.71 111.98 99.07 C 111.86 115.39 97.36 129.86 81.04 129.97 C 65.35 129.99 49.64 130.07 33.95 129.94 C 17.98 129.28 4.13 114.99 4.01 99.01 C 3.99 79.68 3.99 60.36 4.01 41.03 C 4.16 26.61 15.37 13.36 29.51 10.65 M 29.56 12.69 C 16.54 15.39 6.20 27.62 6.05 40.98 C 5.97 60.32 5.97 79.66 6.05 99.00 C 6.13 114.25 19.68 127.80 34.92 127.95 C 50.29 128.02 65.67 128.04 81.05 127.95 C 96.28 127.82 109.85 114.30 109.94 99.06 C 110.04 79.70 110.04 60.33 109.94 40.96 C 109.85 26.09 96.93 12.77 82.08 12.10 C 69.42 11.87 56.74 12.06 44.07 12.00 C 39.23 12.09 34.33 11.68 29.56 12.69 Z" />
</g>
<g id="#10ec50ff">
<path fill="#10ec50" opacity="1.00" d=" M 46.00 38.00 C 47.89 38.08 49.79 38.15 51.69 38.21 C 51.69 38.65 51.68 39.55 51.68 40.00 C 54.57 40.00 57.45 40.00 60.33 40.00 C 60.38 40.57 60.46 41.71 60.50 42.28 C 61.06 40.88 61.62 39.49 62.19 38.09 C 64.09 38.20 66.00 38.31 67.90 38.41 C 67.73 38.92 67.37 39.95 67.20 40.46 C 70.00 40.42 72.81 40.40 75.61 40.37 C 75.60 41.95 75.60 43.54 75.58 45.12 C 73.28 45.83 72.70 48.26 71.73 50.16 C 73.38 50.62 75.05 51.05 76.72 51.45 C 75.56 53.67 74.45 55.90 73.30 58.12 C 71.08 57.08 68.89 56.01 66.69 54.95 C 67.27 55.45 68.43 56.45 69.02 56.96 C 67.10 58.37 65.20 59.79 63.44 61.39 C 64.97 61.40 66.09 60.61 66.81 59.35 C 68.03 58.75 69.26 58.17 70.49 57.59 C 72.28 60.07 74.06 62.56 75.80 65.08 C 74.55 65.65 73.30 66.22 72.06 66.80 C 72.97 67.14 74.80 67.84 75.71 68.18 C 74.54 69.69 73.39 71.21 72.24 72.74 C 69.24 71.21 66.20 69.73 63.14 68.32 C 62.61 69.38 62.59 70.83 61.55 71.55 C 59.21 72.21 56.74 71.93 54.35 71.95 C 54.10 71.26 53.60 69.89 53.35 69.20 C 50.98 70.35 48.61 71.51 46.24 72.65 C 44.92 71.24 43.58 69.84 42.24 68.45 C 43.95 67.84 45.67 67.21 47.38 66.58 C 46.57 66.58 44.95 66.57 44.15 66.57 C 44.10 65.07 44.05 63.57 43.99 62.07 C 47.81 61.92 51.68 61.81 55.37 60.74 C 52.35 60.68 49.34 60.82 46.33 60.96 C 46.23 59.73 46.14 58.49 46.04 57.26 C 47.52 56.94 49.00 56.62 50.48 56.28 C 48.44 56.11 46.41 56.00 44.37 55.89 C 44.39 54.61 44.40 53.33 44.42 52.05 C 43.81 52.03 42.60 51.99 42.00 51.97 C 42.00 50.72 42.00 49.47 42.00 48.23 C 42.70 48.20 44.11 48.13 44.81 48.09 C 43.88 46.80 42.95 45.51 42.02 44.21 C 43.41 42.18 44.73 40.11 46.00 38.00 M 48.36 44.32 C 51.84 45.69 55.90 45.70 59.36 44.26 C 55.71 43.85 52.01 43.83 48.36 44.32 M 66.09 45.20 C 65.58 46.83 66.13 47.38 67.76 46.87 C 68.28 45.25 67.72 44.69 66.09 45.20 M 49.34 47.36 C 49.87 47.88 49.87 47.88 49.34 47.36 M 53.26 47.29 C 53.75 47.86 53.75 47.86 53.26 47.29 M 58.46 47.29 C 58.98 47.78 58.98 47.78 58.46 47.29 M 59.90 47.92 C 59.80 49.65 60.18 51.70 58.37 52.70 C 58.40 53.38 58.45 54.73 58.48 55.41 C 58.04 55.88 57.18 56.81 56.74 57.28 C 58.16 56.98 59.58 56.70 61.00 56.43 C 60.15 55.44 59.32 54.44 58.49 53.43 C 60.03 52.60 61.57 51.76 63.09 50.91 C 62.05 49.90 60.98 48.90 59.90 47.92 M 49.26 52.32 C 49.79 52.87 49.79 52.87 49.26 52.32 M 52.42 52.19 C 52.73 55.49 55.37 50.53 52.42 52.19 M 63.01 65.35 C 62.57 66.81 63.05 67.23 64.43 66.63 C 64.87 65.19 64.40 64.77 63.01 65.35 M 54.34 66.10 C 54.68 69.41 57.28 64.42 54.34 66.10 Z" />
</g>
<g id="#001506ff">
<path fill="#001506" opacity="1.00" d=" M 48.36 44.32 C 52.01 43.83 55.71 43.85 59.36 44.26 C 55.90 45.70 51.84 45.69 48.36 44.32 Z" />
</g>
<g id="#068f2aff">
<path fill="#068f2a" opacity="1.00" d=" M 66.09 45.20 C 67.72 44.69 68.28 45.25 67.76 46.87 C 66.13 47.38 65.58 46.83 66.09 45.20 Z" />
</g>
<g id="#006018ff">
<path fill="#006018" opacity="1.00" d=" M 49.34 47.36 C 49.87 47.88 49.87 47.88 49.34 47.36 Z" />
<path fill="#006018" opacity="1.00" d=" M 53.26 47.29 C 53.75 47.86 53.75 47.86 53.26 47.29 Z" />
<path fill="#006018" opacity="1.00" d=" M 58.46 47.29 C 58.98 47.78 58.98 47.78 58.46 47.29 Z" />
</g>
<g id="#003c08ff">
<path fill="#003c08" opacity="1.00" d=" M 49.26 52.32 C 49.79 52.87 49.79 52.87 49.26 52.32 Z" />
</g>
<g id="#00300cff">
<path fill="#00300c" opacity="1.00" d=" M 52.42 52.19 C 55.37 50.53 52.73 55.49 52.42 52.19 Z" />
</g>
<g id="#057b20ff">
<path fill="#057b20" opacity="1.00" d=" M 63.01 65.35 C 64.40 64.77 64.87 65.19 64.43 66.63 C 63.05 67.23 62.57 66.81 63.01 65.35 Z" />
</g>
<g id="#001000ff">
<path fill="#001000" opacity="1.00" d=" M 54.34 66.10 C 57.28 64.42 54.68 69.41 54.34 66.10 Z" />
</g>
</svg>
