<?xml version="1.0" encoding="UTF-8" ?>
<!DOCTYPE svg PUBLIC "-//W3C//DTD SVG 1.1//EN" "http://www.w3.org/Graphics/SVG/1.1/DTD/svg11.dtd">
<svg width="117px" height="140px" viewBox="0 0 117 140" version="1.1" xmlns="http://www.w3.org/2000/svg">
<g id="#000000ff">
<path fill="#000000" opacity="1.00" d=" M 0.00 0.00 L 117.00 0.00 L 117.00 140.00 L 0.00 140.00 L 0.00 0.00 M 29.47 10.66 C 15.35 13.38 4.16 26.62 4.01 41.03 C 4.02 60.71 3.92 80.39 4.06 100.07 C 4.72 116.04 19.03 129.87 35.01 129.99 C 50.68 129.97 66.36 130.09 82.02 129.93 C 98.01 129.31 111.89 114.98 111.98 98.98 C 112.01 79.66 112.02 60.33 111.98 41.00 C 111.88 24.99 97.99 10.69 82.01 10.07 C 69.35 9.88 56.68 10.07 44.02 10.00 C 39.17 10.05 34.26 9.66 29.47 10.66 Z" />
<path fill="#000000" opacity="1.00" d=" M 29.50 12.70 C 33.29 11.87 37.19 12.01 41.04 12.00 C 54.70 12.06 68.37 11.87 82.02 12.10 C 96.91 12.73 109.87 26.10 109.95 41.02 C 110.03 60.35 110.04 79.69 109.94 99.03 C 109.87 114.28 96.29 127.82 81.06 127.94 C 65.71 128.04 50.36 128.02 35.02 127.96 C 19.75 127.86 6.15 114.31 6.05 99.04 C 5.97 79.68 5.97 60.33 6.05 40.97 C 6.21 27.64 16.50 15.43 29.50 12.70 M 43.58 29.53 C 43.48 33.17 43.47 36.81 43.57 40.45 C 53.19 40.51 62.82 40.53 72.44 40.44 C 72.51 36.82 72.51 33.19 72.45 29.57 C 62.83 29.45 53.21 29.51 43.58 29.53 M 32.58 41.00 C 32.41 47.45 32.43 53.92 32.68 60.36 C 36.78 60.50 40.88 60.47 44.98 60.32 C 57.76 59.96 70.55 60.51 83.33 60.36 C 83.60 54.58 83.48 48.80 83.52 43.02 C 83.88 38.92 80.90 35.53 77.89 33.15 C 76.86 32.48 75.77 31.04 74.50 32.10 C 74.27 35.78 74.46 39.47 74.49 43.16 C 63.50 43.13 52.50 43.13 41.51 43.16 C 41.55 39.44 41.72 35.72 41.50 32.00 C 41.18 31.93 40.56 31.79 40.24 31.72 C 36.81 33.81 33.39 36.91 32.58 41.00 M 42.52 60.87 C 42.62 65.55 42.20 70.26 42.72 74.92 C 43.07 75.21 43.75 75.81 44.09 76.10 C 48.67 76.99 53.40 76.29 58.05 76.49 C 62.65 76.30 67.34 76.98 71.89 76.11 C 72.24 75.81 72.93 75.21 73.28 74.91 C 73.80 70.25 73.38 65.54 73.48 60.86 C 63.16 60.67 52.84 60.64 42.52 60.87 Z" />
<path fill="#000000" opacity="1.00" d=" M 46.41 32.38 C 54.13 32.56 61.87 32.56 69.59 32.38 C 69.57 34.13 69.57 35.87 69.59 37.62 C 61.87 37.44 54.13 37.44 46.41 37.62 C 46.43 35.87 46.43 34.13 46.41 32.38 Z" />
<path fill="#000000" opacity="1.00" d=" M 35.58 42.00 C 35.56 39.67 37.40 37.98 38.52 36.11 C 38.46 39.17 38.44 42.22 38.41 45.27 C 42.13 46.68 46.14 46.19 50.02 46.24 C 57.02 46.23 64.01 46.21 71.01 46.27 C 73.23 46.33 75.42 45.93 77.56 45.36 C 77.57 42.27 77.54 39.19 77.47 36.11 C 78.59 37.96 80.41 39.64 80.42 41.94 C 80.55 47.09 80.31 52.24 80.52 57.39 C 65.51 57.41 50.49 57.41 35.48 57.39 C 35.69 52.26 35.45 47.13 35.58 42.00 M 38.69 47.26 C 38.30 49.87 38.20 52.57 38.70 55.16 C 40.43 56.67 42.84 56.38 44.97 56.44 C 53.96 56.37 62.95 56.40 71.95 56.44 C 73.77 56.41 75.79 56.48 77.26 55.21 C 77.88 52.40 77.67 49.45 77.24 46.63 C 73.17 47.02 69.10 47.40 65.01 47.22 C 56.28 46.98 47.51 47.74 38.82 46.60 L 38.69 47.26 Z" />
<path fill="#000000" opacity="1.00" d=" M 41.38 50.27 C 52.46 50.33 63.54 50.32 74.63 50.27 C 74.58 51.04 74.50 52.56 74.46 53.33 C 63.49 53.26 52.51 53.26 41.53 53.33 C 41.50 52.56 41.42 51.03 41.38 50.27 Z" />
<path fill="#000000" opacity="1.00" d=" M 45.39 63.39 C 53.79 63.56 62.21 63.56 70.61 63.39 C 70.47 66.79 70.47 70.21 70.61 73.61 C 62.21 73.44 53.79 73.44 45.39 73.61 C 45.53 70.20 45.53 66.79 45.39 63.39 M 46.55 69.13 C 52.49 69.71 58.50 69.69 64.45 69.15 C 64.24 68.63 63.82 67.60 63.61 67.08 C 60.27 65.87 56.50 66.74 52.99 66.47 C 50.62 66.61 46.84 65.71 46.55 69.13 Z" />
</g>
<g id="#6a84bcff">
<path fill="#6a84bc" opacity="1.00" d=" M 29.47 10.66 C 34.26 9.66 39.17 10.05 44.02 10.00 C 56.68 10.07 69.35 9.88 82.01 10.07 C 97.99 10.69 111.88 24.99 111.98 41.00 C 112.02 60.33 112.01 79.66 111.98 98.98 C 111.89 114.98 98.01 129.31 82.02 129.93 C 66.36 130.09 50.68 129.97 35.01 129.99 C 19.03 129.87 4.72 116.04 4.06 100.07 C 3.92 80.39 4.02 60.71 4.01 41.03 C 4.16 26.62 15.35 13.38 29.47 10.66 M 29.50 12.70 C 16.50 15.43 6.21 27.64 6.05 40.97 C 5.97 60.33 5.97 79.68 6.05 99.04 C 6.15 114.31 19.75 127.86 35.02 127.96 C 50.36 128.02 65.71 128.04 81.06 127.94 C 96.29 127.82 109.87 114.28 109.94 99.03 C 110.04 79.69 110.03 60.35 109.95 41.02 C 109.87 26.10 96.91 12.73 82.02 12.10 C 68.37 11.87 54.70 12.06 41.04 12.00 C 37.19 12.01 33.29 11.87 29.50 12.70 Z" />
</g>
<g id="#10ec50ff">
<path fill="#10ec50" opacity="1.00" d=" M 43.58 29.53 C 53.21 29.51 62.83 29.45 72.45 29.57 C 72.51 33.19 72.51 36.82 72.44 40.44 C 62.82 40.53 53.19 40.51 43.57 40.45 C 43.47 36.81 43.48 33.17 43.58 29.53 M 46.41 32.38 C 46.43 34.13 46.43 35.87 46.41 37.62 C 54.13 37.44 61.87 37.44 69.59 37.62 C 69.57 35.87 69.57 34.13 69.59 32.38 C 61.87 32.56 54.13 32.56 46.41 32.38 Z" />
<path fill="#10ec50" opacity="1.00" d=" M 32.58 41.00 C 33.39 36.91 36.81 33.81 40.24 31.72 C 40.56 31.79 41.18 31.93 41.50 32.00 C 41.72 35.72 41.55 39.44 41.51 43.16 C 52.50 43.13 63.50 43.13 74.49 43.16 C 74.46 39.47 74.27 35.78 74.50 32.10 C 75.77 31.04 76.86 32.48 77.89 33.15 C 80.90 35.53 83.88 38.92 83.52 43.02 C 83.48 48.80 83.60 54.58 83.33 60.36 C 70.55 60.51 57.76 59.96 44.98 60.32 C 40.88 60.47 36.78 60.50 32.68 60.36 C 32.43 53.92 32.41 47.45 32.58 41.00 M 35.58 42.00 C 35.45 47.13 35.69 52.26 35.48 57.39 C 50.49 57.41 65.51 57.41 80.52 57.39 C 80.31 52.24 80.55 47.09 80.42 41.94 C 80.41 39.64 78.59 37.96 77.47 36.11 C 77.54 39.19 77.57 42.27 77.56 45.36 C 75.42 45.93 73.23 46.33 71.01 46.27 C 64.01 46.21 57.02 46.23 50.02 46.24 C 46.14 46.19 42.13 46.68 38.41 45.27 C 38.44 42.22 38.46 39.17 38.52 36.11 C 37.40 37.98 35.56 39.67 35.58 42.00 Z" />
<path fill="#10ec50" opacity="1.00" d=" M 38.69 47.26 L 38.82 46.60 C 47.51 47.74 56.28 46.98 65.01 47.22 C 69.10 47.40 73.17 47.02 77.24 46.63 C 77.67 49.45 77.88 52.40 77.26 55.21 C 75.79 56.48 73.77 56.41 71.95 56.44 C 62.95 56.40 53.96 56.37 44.97 56.44 C 42.84 56.38 40.43 56.67 38.70 55.16 C 38.20 52.57 38.30 49.87 38.69 47.26 M 41.38 50.27 C 41.42 51.03 41.50 52.56 41.53 53.33 C 52.51 53.26 63.49 53.26 74.46 53.33 C 74.50 52.56 74.58 51.04 74.63 50.27 C 63.54 50.32 52.46 50.33 41.38 50.27 Z" />
<path fill="#10ec50" opacity="1.00" d=" M 46.55 69.13 C 46.84 65.71 50.62 66.61 52.99 66.47 C 56.50 66.74 60.27 65.87 63.61 67.08 C 63.82 67.60 64.24 68.63 64.45 69.15 C 58.50 69.69 52.49 69.71 46.55 69.13 Z" />
</g>
<g id="#10eb50ff">
<path fill="#10eb50" opacity="1.00" d=" M 42.52 60.87 C 52.84 60.64 63.16 60.67 73.48 60.86 C 73.38 65.54 73.80 70.25 73.28 74.91 C 72.93 75.21 72.24 75.81 71.89 76.11 C 67.34 76.98 62.65 76.30 58.05 76.49 C 53.40 76.29 48.67 76.99 44.09 76.10 C 43.75 75.81 43.07 75.21 42.72 74.92 C 42.20 70.26 42.62 65.55 42.52 60.87 M 45.39 63.39 C 45.53 66.79 45.53 70.20 45.39 73.61 C 53.79 73.44 62.21 73.44 70.61 73.61 C 70.47 70.21 70.47 66.79 70.61 63.39 C 62.21 63.56 53.79 63.56 45.39 63.39 Z" />
</g>
</svg>
