<?xml version="1.0" encoding="UTF-8" ?>
<!DOCTYPE svg PUBLIC "-//W3C//DTD SVG 1.1//EN" "http://www.w3.org/Graphics/SVG/1.1/DTD/svg11.dtd">
<svg width="117px" height="140px" viewBox="0 0 117 140" version="1.1" xmlns="http://www.w3.org/2000/svg">
<g id="#000000ff">
<path fill="#000000" opacity="1.00" d=" M 0.00 0.00 L 117.00 0.00 L 117.00 140.00 L 0.00 140.00 L 0.00 0.00 M 33.27 10.24 C 18.00 11.73 5.24 25.57 5.04 40.92 C 4.95 59.95 5.02 78.99 5.01 98.03 C 4.97 106.89 8.86 115.63 15.41 121.58 C 21.46 127.19 29.74 130.20 37.97 130.01 C 53.00 129.92 68.03 130.15 83.06 129.89 C 99.00 129.26 112.83 114.97 112.95 99.02 C 113.06 80.01 112.99 61.00 112.98 42.00 C 113.09 31.19 107.20 20.64 98.04 14.95 C 92.42 11.34 85.68 9.77 79.04 9.98 C 63.78 10.17 48.51 9.68 33.27 10.24 Z" />
<path fill="#000000" opacity="1.00" d=" M 33.31 12.29 C 49.53 11.77 65.78 12.14 82.01 12.10 C 97.26 12.19 110.86 25.76 110.90 41.01 C 110.98 60.34 110.99 79.68 110.89 99.01 C 110.84 113.87 97.92 127.23 83.08 127.83 C 67.72 128.09 52.35 127.89 36.98 127.94 C 25.98 128.08 15.25 121.50 10.36 111.65 C 7.91 107.17 6.97 102.03 7.05 96.96 C 7.08 78.29 6.99 59.62 7.10 40.95 C 7.23 26.67 19.13 13.74 33.31 12.29 M 74.09 37.06 C 71.12 41.53 71.19 47.54 73.76 52.17 C 75.49 55.11 75.63 58.76 73.98 61.77 C 74.51 62.21 75.58 63.11 76.11 63.55 C 78.71 59.71 78.49 54.65 76.21 50.71 C 74.30 47.34 74.23 43.20 75.82 39.68 C 76.83 38.24 75.96 36.39 74.09 37.06 M 57.82 56.14 C 60.17 59.39 55.32 63.60 59.25 65.77 C 62.02 61.83 61.69 56.61 59.34 52.56 C 57.05 48.64 57.87 43.90 59.75 40.00 C 59.30 39.67 58.42 39.00 57.97 38.66 C 53.57 43.55 54.80 50.87 57.82 56.14 M 40.05 58.03 C 41.67 60.90 41.74 64.40 40.11 67.28 C 40.84 67.91 41.58 68.53 42.33 69.13 C 43.19 67.21 44.25 65.27 44.18 63.10 C 44.50 58.04 39.85 54.09 40.91 48.94 C 40.93 46.51 43.82 43.87 41.08 42.01 C 36.92 46.23 37.30 53.14 40.05 58.03 M 35.10 73.11 C 35.09 73.80 35.07 75.17 35.06 75.86 C 51.01 76.11 66.97 76.07 82.92 75.88 C 82.92 75.19 82.93 73.82 82.93 73.13 C 66.99 72.90 51.04 72.94 35.10 73.11 Z" />
</g>
<g id="#788cc0ff">
<path fill="#788cc0" opacity="1.00" d=" M 33.27 10.24 C 48.51 9.68 63.78 10.17 79.04 9.98 C 85.68 9.77 92.42 11.34 98.04 14.95 C 107.20 20.64 113.09 31.19 112.98 42.00 C 112.99 61.00 113.06 80.01 112.95 99.02 C 112.83 114.97 99.00 129.26 83.06 129.89 C 68.03 130.15 53.00 129.92 37.97 130.01 C 29.74 130.20 21.46 127.19 15.41 121.58 C 8.86 115.63 4.97 106.89 5.01 98.03 C 5.02 78.99 4.95 59.95 5.04 40.92 C 5.24 25.57 18.00 11.73 33.27 10.24 M 33.31 12.29 C 19.13 13.74 7.23 26.67 7.10 40.95 C 6.99 59.62 7.08 78.29 7.05 96.96 C 6.97 102.03 7.91 107.17 10.36 111.65 C 15.25 121.50 25.98 128.08 36.98 127.94 C 52.35 127.89 67.72 128.09 83.08 127.83 C 97.92 127.23 110.84 113.87 110.89 99.01 C 110.99 79.68 110.98 60.34 110.90 41.01 C 110.86 25.76 97.26 12.19 82.01 12.10 C 65.78 12.14 49.53 11.77 33.31 12.29 Z" />
</g>
<g id="#f8fcf8ff">
<path fill="#f8fcf8" opacity="1.00" d=" M 74.09 37.06 C 75.96 36.39 76.83 38.24 75.82 39.68 C 74.23 43.20 74.30 47.34 76.21 50.71 C 78.49 54.65 78.71 59.71 76.11 63.55 C 75.58 63.11 74.51 62.21 73.98 61.77 C 75.63 58.76 75.49 55.11 73.76 52.17 C 71.19 47.54 71.12 41.53 74.09 37.06 Z" />
<path fill="#f8fcf8" opacity="1.00" d=" M 57.82 56.14 C 54.80 50.87 53.57 43.55 57.97 38.66 C 58.42 39.00 59.30 39.67 59.75 40.00 C 57.87 43.90 57.05 48.64 59.34 52.56 C 61.69 56.61 62.02 61.83 59.25 65.77 C 55.32 63.60 60.17 59.39 57.82 56.14 Z" />
<path fill="#f8fcf8" opacity="1.00" d=" M 40.05 58.03 C 37.30 53.14 36.92 46.23 41.08 42.01 C 43.82 43.87 40.93 46.51 40.91 48.94 C 39.85 54.09 44.50 58.04 44.18 63.10 C 44.25 65.27 43.19 67.21 42.33 69.13 C 41.58 68.53 40.84 67.91 40.11 67.28 C 41.74 64.40 41.67 60.90 40.05 58.03 Z" />
<path fill="#f8fcf8" opacity="1.00" d=" M 35.10 73.11 C 51.04 72.94 66.99 72.90 82.93 73.13 C 82.93 73.82 82.92 75.19 82.92 75.88 C 66.97 76.07 51.01 76.11 35.06 75.86 C 35.07 75.17 35.09 73.80 35.10 73.11 Z" />
</g>
</svg>
