<?xml version="1.0" encoding="UTF-8" ?>
<!DOCTYPE svg PUBLIC "-//W3C//DTD SVG 1.1//EN" "http://www.w3.org/Graphics/SVG/1.1/DTD/svg11.dtd">
<svg width="117pt" height="140pt" viewBox="0 0 117 140" version="1.1" xmlns="http://www.w3.org/2000/svg">
<g id="#000000ff">
<path fill="#000000" opacity="1.00" d=" M 0.00 0.00 L 117.00 0.00 L 117.00 140.00 L 0.00 140.00 L 0.00 0.00 M 30.47 10.66 C 16.38 13.37 5.22 26.56 5.01 40.93 C 4.99 60.30 4.99 79.67 5.01 99.05 C 5.23 112.08 14.38 124.28 26.74 128.33 C 33.23 130.69 40.23 129.87 46.99 130.00 C 59.01 129.95 71.03 130.10 83.05 129.93 C 99.01 129.29 112.86 115.00 112.99 99.03 C 112.98 79.35 113.07 59.67 112.94 39.99 C 112.31 24.38 98.66 10.74 83.06 10.06 C 68.37 9.90 53.67 10.07 38.97 9.98 C 36.12 9.94 33.26 10.06 30.47 10.66 Z" />
<path fill="#000000" opacity="1.00" d=" M 30.54 12.70 C 34.99 11.70 39.57 12.07 44.09 12.00 C 57.05 12.05 70.02 11.89 82.98 12.08 C 97.85 12.72 110.82 26.02 110.95 40.93 C 111.06 59.27 110.97 77.61 111.00 95.96 C 111.16 101.38 110.30 106.92 107.66 111.72 C 102.72 121.53 92.04 128.11 81.04 127.99 C 65.66 127.97 50.29 128.10 34.92 127.92 C 20.05 127.22 7.14 113.89 7.03 98.98 C 6.98 79.65 6.98 60.33 7.03 41.00 C 7.21 27.65 17.51 15.40 30.54 12.70 M 50.43 30.07 C 50.46 31.49 50.48 32.91 50.50 34.33 C 45.68 34.36 40.86 34.27 36.04 34.34 C 34.05 34.26 31.68 35.65 31.98 37.92 C 31.95 49.30 31.95 60.69 31.98 72.07 C 31.74 74.27 33.65 76.21 35.86 75.97 C 50.62 76.02 65.38 76.02 80.14 75.97 C 82.36 76.20 84.26 74.26 84.02 72.05 C 84.05 60.68 84.06 49.30 84.02 37.93 C 84.32 35.63 81.92 34.25 79.91 34.33 C 75.11 34.28 70.30 34.36 65.50 34.32 C 65.52 32.91 65.54 31.49 65.57 30.07 C 60.52 29.96 55.47 29.95 50.43 30.07 Z" />
<path fill="#000000" opacity="1.00" d=" M 52.23 32.15 C 56.08 31.83 59.95 31.77 63.79 32.19 C 63.71 32.73 63.55 33.80 63.46 34.34 C 59.82 34.32 56.17 34.32 52.53 34.34 C 52.45 33.79 52.31 32.70 52.23 32.15 Z" />
<path fill="#000000" opacity="1.00" d=" M 35.00 37.55 C 50.33 37.55 65.67 37.55 81.00 37.55 C 81.00 43.01 81.00 48.48 81.00 53.94 C 75.84 53.94 70.68 53.93 65.53 53.94 C 65.52 52.47 65.51 51.01 65.50 49.54 C 60.50 49.54 55.50 49.55 50.50 49.54 C 50.49 51.01 50.48 52.47 50.47 53.94 C 45.32 53.94 40.16 53.93 35.01 53.94 C 34.99 48.48 35.00 43.01 35.00 37.55 Z" />
<path fill="#000000" opacity="1.00" d=" M 52.43 58.34 C 52.41 56.07 52.41 53.80 52.43 51.54 C 56.15 51.55 59.86 51.55 63.57 51.54 C 63.59 53.81 63.58 56.08 63.55 58.35 C 59.84 58.32 56.14 58.32 52.43 58.34 Z" />
<path fill="#000000" opacity="1.00" d=" M 35.00 55.87 C 40.15 55.87 45.30 55.87 50.45 55.87 C 50.48 57.34 50.51 58.81 50.55 60.29 C 55.53 60.24 60.50 60.26 65.48 60.27 C 65.50 58.81 65.52 57.34 65.54 55.87 C 70.69 55.87 75.84 55.87 81.00 55.87 C 81.00 61.58 81.00 67.29 81.00 73.00 C 65.67 73.00 50.33 73.00 35.00 73.00 C 35.00 67.29 35.00 61.58 35.00 55.87 Z" />
</g>
<g id="#6a84bcff">
<path fill="#6a84bc" opacity="1.00" d=" M 30.47 10.66 C 33.26 10.06 36.12 9.94 38.97 9.98 C 53.67 10.07 68.37 9.90 83.06 10.06 C 98.66 10.74 112.31 24.38 112.94 39.99 C 113.07 59.67 112.98 79.35 112.99 99.03 C 112.86 115.00 99.01 129.29 83.05 129.93 C 71.03 130.10 59.01 129.95 46.99 130.00 C 40.23 129.87 33.23 130.69 26.74 128.33 C 14.38 124.28 5.23 112.08 5.01 99.05 C 4.99 79.67 4.99 60.30 5.01 40.93 C 5.22 26.56 16.38 13.37 30.47 10.66 M 30.54 12.70 C 17.51 15.40 7.21 27.65 7.03 41.00 C 6.98 60.33 6.98 79.65 7.03 98.98 C 7.14 113.89 20.05 127.22 34.92 127.92 C 50.29 128.10 65.66 127.97 81.04 127.99 C 92.04 128.11 102.72 121.53 107.66 111.72 C 110.30 106.92 111.16 101.38 111.00 95.96 C 110.97 77.61 111.06 59.27 110.95 40.93 C 110.82 26.02 97.85 12.72 82.98 12.08 C 70.02 11.89 57.05 12.05 44.09 12.00 C 39.57 12.07 34.99 11.70 30.54 12.70 Z" />
</g>
<g id="#f8fcf8ff">
<path fill="#f8fcf8" opacity="1.00" d=" M 50.43 30.07 C 55.47 29.95 60.52 29.96 65.57 30.07 C 65.54 31.49 65.52 32.91 65.50 34.32 C 70.30 34.36 75.11 34.28 79.91 34.33 C 81.92 34.25 84.32 35.63 84.02 37.93 C 84.06 49.30 84.05 60.68 84.02 72.05 C 84.26 74.26 82.36 76.20 80.14 75.97 C 65.38 76.02 50.62 76.02 35.86 75.97 C 33.65 76.21 31.74 74.27 31.98 72.07 C 31.95 60.69 31.95 49.30 31.98 37.92 C 31.68 35.65 34.05 34.26 36.04 34.34 C 40.86 34.27 45.68 34.36 50.50 34.33 C 50.48 32.91 50.46 31.49 50.43 30.07 M 52.23 32.15 C 52.31 32.70 52.45 33.79 52.53 34.34 C 56.17 34.32 59.82 34.32 63.46 34.34 C 63.55 33.80 63.71 32.73 63.79 32.19 C 59.95 31.77 56.08 31.83 52.23 32.15 M 35.00 37.55 C 35.00 43.01 34.99 48.48 35.01 53.94 C 40.16 53.93 45.32 53.94 50.47 53.94 C 50.48 52.47 50.49 51.01 50.50 49.54 C 55.50 49.55 60.50 49.54 65.50 49.54 C 65.51 51.01 65.52 52.47 65.53 53.94 C 70.68 53.93 75.84 53.94 81.00 53.94 C 81.00 48.48 81.00 43.01 81.00 37.55 C 65.67 37.55 50.33 37.55 35.00 37.55 M 52.43 58.34 C 56.14 58.32 59.84 58.32 63.55 58.35 C 63.58 56.08 63.59 53.81 63.57 51.54 C 59.86 51.55 56.15 51.55 52.43 51.54 C 52.41 53.80 52.41 56.07 52.43 58.34 M 35.00 55.87 C 35.00 61.58 35.00 67.29 35.00 73.00 C 50.33 73.00 65.67 73.00 81.00 73.00 C 81.00 67.29 81.00 61.58 81.00 55.87 C 75.84 55.87 70.69 55.87 65.54 55.87 C 65.52 57.34 65.50 58.81 65.48 60.27 C 60.50 60.26 55.53 60.24 50.55 60.29 C 50.51 58.81 50.48 57.34 50.45 55.87 C 45.30 55.87 40.15 55.87 35.00 55.87 Z" />
</g>
</svg>
