<?xml version="1.0" encoding="UTF-8" ?>
<!DOCTYPE svg PUBLIC "-//W3C//DTD SVG 1.1//EN" "http://www.w3.org/Graphics/SVG/1.1/DTD/svg11.dtd">
<svg width="117px" height="92px" viewBox="0 0 117 92" version="1.1" xmlns="http://www.w3.org/2000/svg">
<g id="#000000ff">
<path fill="#000000" opacity="1.00" d=" M 0.00 0.00 L 117.00 0.00 L 117.00 92.00 L 0.00 92.00 L 0.00 0.00 M 29.50 8.64 C 18.58 10.81 9.21 19.13 5.68 29.67 C 3.09 36.85 4.23 44.58 4.00 52.03 C 4.13 68.03 18.02 82.32 34.00 82.96 C 49.33 83.07 64.67 82.96 80.01 83.01 C 92.64 83.21 104.77 75.03 109.54 63.38 C 113.04 55.71 111.80 47.13 112.00 38.99 C 111.89 22.98 98.00 8.71 82.03 8.05 C 67.35 7.91 52.67 8.07 37.99 7.98 C 35.15 7.95 32.29 8.04 29.50 8.64 Z" />
<path fill="#000000" opacity="1.00" d=" M 29.49 10.72 C 33.59 9.78 37.82 10.04 41.98 10.00 C 55.01 10.03 68.03 9.94 81.05 10.04 C 92.49 10.29 103.28 17.82 107.64 28.37 C 110.88 35.46 109.83 43.42 109.98 50.98 C 110.19 63.07 102.17 74.65 90.90 78.93 C 84.59 81.62 77.63 80.90 70.96 81.00 C 58.64 80.95 46.33 81.11 34.02 80.92 C 19.12 80.25 6.17 66.93 6.04 51.99 C 6.20 44.11 5.01 35.80 8.35 28.39 C 12.04 19.55 20.14 12.77 29.49 10.72 M 54.55 16.52 C 47.77 20.78 41.26 25.47 34.46 29.69 C 34.31 30.29 34.01 31.50 33.86 32.10 C 38.81 36.30 44.56 39.43 49.86 43.15 C 52.39 44.66 54.75 47.45 58.00 46.41 C 58.37 43.21 58.04 39.95 58.77 36.79 C 66.65 36.89 74.52 41.24 77.85 48.54 C 78.58 42.21 77.18 35.22 72.09 30.96 C 68.62 27.09 63.34 26.09 58.44 25.41 C 58.27 22.58 58.43 19.73 58.04 16.92 C 57.11 15.95 55.65 15.62 54.55 16.52 Z" />
</g>
<g id="#6781b7ff">
<path fill="#6781b7" opacity="1.00" d=" M 29.50 8.64 C 32.29 8.04 35.15 7.95 37.99 7.98 C 52.67 8.07 67.35 7.91 82.03 8.05 C 98.00 8.71 111.89 22.98 112.00 38.99 C 111.80 47.13 113.04 55.71 109.54 63.38 C 104.77 75.03 92.64 83.21 80.01 83.01 C 64.67 82.96 49.33 83.07 34.00 82.96 C 18.02 82.32 4.13 68.03 4.00 52.03 C 4.23 44.58 3.09 36.85 5.68 29.67 C 9.21 19.13 18.58 10.81 29.50 8.64 M 29.49 10.72 C 20.14 12.77 12.04 19.55 8.35 28.39 C 5.01 35.80 6.20 44.11 6.04 51.99 C 6.17 66.93 19.12 80.25 34.02 80.92 C 46.33 81.11 58.64 80.95 70.96 81.00 C 77.63 80.90 84.59 81.62 90.90 78.93 C 102.17 74.65 110.19 63.07 109.98 50.98 C 109.83 43.42 110.88 35.46 107.64 28.37 C 103.28 17.82 92.49 10.29 81.05 10.04 C 68.03 9.94 55.01 10.03 41.98 10.00 C 37.82 10.04 33.59 9.78 29.49 10.72 Z" />
</g>
<g id="#68e868ff">
<path fill="#68e868" opacity="1.00" d=" M 54.55 16.52 C 55.65 15.62 57.11 15.95 58.04 16.92 C 58.43 19.73 58.27 22.58 58.44 25.41 C 63.34 26.09 68.62 27.09 72.09 30.96 C 77.18 35.22 78.58 42.21 77.85 48.54 C 74.52 41.24 66.65 36.89 58.77 36.79 C 58.04 39.95 58.37 43.21 58.00 46.41 C 54.75 47.45 52.39 44.66 49.86 43.15 C 44.56 39.43 38.81 36.30 33.86 32.10 C 34.01 31.50 34.31 30.29 34.46 29.69 C 41.26 25.47 47.77 20.78 54.55 16.52 Z" />
</g>
</svg>
