<?xml version="1.0" encoding="UTF-8" ?>
<!DOCTYPE svg PUBLIC "-//W3C//DTD SVG 1.1//EN" "http://www.w3.org/Graphics/SVG/1.1/DTD/svg11.dtd">
<svg width="117pt" height="140pt" viewBox="0 0 117 140" version="1.1" xmlns="http://www.w3.org/2000/svg">
<g id="#000000ff">
<path fill="#000000" opacity="1.00" d=" M 0.00 0.00 L 117.00 0.00 L 117.00 140.00 L 0.00 140.00 L 0.00 0.00 M 33.09 10.22 C 17.86 11.82 5.17 25.66 5.01 40.98 C 4.99 60.33 4.99 79.68 5.01 99.02 C 5.22 111.78 13.97 123.77 25.96 128.04 C 32.63 130.72 39.93 129.89 46.94 130.00 C 58.99 129.94 71.04 130.11 83.09 129.93 C 98.69 129.27 112.33 115.58 112.94 99.98 C 113.09 80.65 112.95 61.31 113.01 41.98 C 113.08 33.07 109.13 24.27 102.52 18.32 C 96.48 12.76 88.24 9.76 80.05 9.98 C 64.40 10.17 48.73 9.69 33.09 10.22 Z" />
<path fill="#000000" opacity="1.00" d=" M 30.52 12.70 C 35.27 11.67 40.15 12.09 44.97 12.00 C 57.64 12.06 70.31 11.88 82.98 12.09 C 97.87 12.72 110.85 26.06 110.96 40.98 C 111.06 59.32 110.97 77.66 111.00 96.00 C 111.17 101.39 110.30 106.90 107.68 111.67 C 102.90 121.20 92.68 127.77 81.99 127.95 C 68.00 128.06 54.01 127.97 40.01 128.00 C 34.54 128.19 28.92 127.55 23.99 125.01 C 13.82 120.22 6.84 109.30 7.01 98.02 C 7.01 79.01 6.96 59.99 7.03 40.98 C 7.22 27.64 17.51 15.41 30.52 12.70 M 57.74 33.84 C 51.19 37.25 44.80 40.96 38.14 44.16 C 36.64 44.65 36.11 46.01 35.99 47.46 C 39.22 49.76 43.28 48.75 46.97 48.93 C 47.01 50.56 46.92 52.21 47.24 53.82 C 49.05 54.60 51.10 54.17 53.02 54.28 C 59.97 54.12 66.93 54.54 73.87 54.03 C 73.96 52.33 73.98 50.63 74.01 48.93 C 77.33 48.63 81.10 49.82 84.06 47.89 C 85.73 47.21 84.78 45.00 83.47 44.51 C 76.19 40.88 69.09 36.89 61.85 33.18 C 60.51 32.14 58.98 33.25 57.74 33.84 M 47.05 60.07 C 55.99 60.59 65.02 60.60 73.96 60.07 C 74.04 58.77 73.97 57.48 73.77 56.21 C 72.48 54.99 70.58 55.65 69.00 55.46 C 62.07 55.59 55.14 55.31 48.22 55.58 C 46.24 56.18 47.33 58.61 47.05 60.07 M 47.18 65.77 C 56.06 65.88 64.93 65.86 73.80 65.78 C 73.88 64.21 74.61 61.35 72.02 61.75 C 64.06 61.74 56.09 61.56 48.14 61.84 C 46.23 62.11 47.36 64.52 47.18 65.77 M 46.93 69.97 C 55.92 70.31 64.94 70.26 73.94 70.03 C 73.91 69.32 73.85 67.88 73.82 67.16 C 65.49 66.90 57.15 67.06 48.82 67.05 C 46.91 66.58 47.04 68.79 46.93 69.97 M 47.37 71.17 C 46.57 72.49 46.94 73.25 48.47 73.43 C 55.96 73.65 63.47 73.43 70.98 73.53 C 72.49 73.62 75.17 73.17 73.62 71.15 C 68.48 70.39 63.18 71.04 57.98 70.83 C 54.46 71.06 50.79 70.29 47.37 71.17 Z" />
<path fill="#000000" opacity="1.00" d=" M 45.70 44.67 C 50.79 42.43 55.51 39.43 60.55 37.06 C 65.62 39.55 70.38 42.62 75.56 44.87 C 73.69 44.90 71.82 44.88 69.96 44.96 C 69.93 46.69 69.95 48.41 69.97 50.13 C 63.65 50.13 57.34 50.13 51.03 50.14 C 51.05 48.43 51.07 46.72 51.05 45.01 C 49.26 44.94 47.48 44.81 45.70 44.67 Z" />
</g>
<g id="#7185b5ff">
<path fill="#7185b5" opacity="1.00" d=" M 33.09 10.22 C 48.73 9.69 64.40 10.17 80.05 9.98 C 88.24 9.76 96.48 12.76 102.52 18.32 C 109.13 24.27 113.08 33.07 113.01 41.98 C 112.95 61.31 113.09 80.65 112.94 99.98 C 112.33 115.58 98.69 129.27 83.09 129.93 C 71.04 130.11 58.99 129.94 46.94 130.00 C 39.93 129.89 32.63 130.72 25.96 128.04 C 13.97 123.77 5.22 111.78 5.01 99.02 C 4.99 79.68 4.99 60.33 5.01 40.98 C 5.17 25.66 17.86 11.82 33.09 10.22 M 30.52 12.70 C 17.51 15.41 7.22 27.64 7.03 40.98 C 6.96 59.99 7.01 79.01 7.01 98.02 C 6.84 109.30 13.82 120.22 23.99 125.01 C 28.92 127.55 34.54 128.19 40.01 128.00 C 54.01 127.97 68.00 128.06 81.99 127.95 C 92.68 127.77 102.90 121.20 107.68 111.67 C 110.30 106.90 111.17 101.39 111.00 96.00 C 110.97 77.66 111.06 59.32 110.96 40.98 C 110.85 26.06 97.87 12.72 82.98 12.09 C 70.31 11.88 57.64 12.06 44.97 12.00 C 40.15 12.09 35.27 11.67 30.52 12.70 Z" />
</g>
<g id="#f8fcf8ff">
<path fill="#f8fcf8" opacity="1.00" d=" M 57.74 33.84 C 58.98 33.25 60.51 32.14 61.85 33.18 C 69.09 36.89 76.19 40.88 83.47 44.51 C 84.78 45.00 85.73 47.21 84.06 47.89 C 81.10 49.82 77.33 48.63 74.01 48.93 C 73.98 50.63 73.96 52.33 73.87 54.03 C 66.93 54.54 59.97 54.12 53.02 54.28 C 51.10 54.17 49.05 54.60 47.24 53.82 C 46.92 52.21 47.01 50.56 46.97 48.93 C 43.28 48.75 39.22 49.76 35.99 47.46 C 36.11 46.01 36.64 44.65 38.14 44.16 C 44.80 40.96 51.19 37.25 57.74 33.84 M 45.70 44.67 C 47.48 44.81 49.26 44.94 51.05 45.01 C 51.07 46.72 51.05 48.43 51.03 50.14 C 57.34 50.13 63.65 50.13 69.97 50.13 C 69.95 48.41 69.93 46.69 69.96 44.96 C 71.82 44.88 73.69 44.90 75.56 44.87 C 70.38 42.62 65.62 39.55 60.55 37.06 C 55.51 39.43 50.79 42.43 45.70 44.67 Z" />
<path fill="#f8fcf8" opacity="1.00" d=" M 47.05 60.07 C 47.33 58.61 46.24 56.18 48.22 55.58 C 55.14 55.31 62.07 55.59 69.00 55.46 C 70.58 55.65 72.48 54.99 73.77 56.21 C 73.97 57.48 74.04 58.77 73.96 60.07 C 65.02 60.60 55.99 60.59 47.05 60.07 Z" />
<path fill="#f8fcf8" opacity="1.00" d=" M 47.18 65.77 C 47.36 64.52 46.23 62.11 48.14 61.84 C 56.09 61.56 64.06 61.74 72.02 61.75 C 74.61 61.35 73.88 64.21 73.80 65.78 C 64.93 65.86 56.06 65.88 47.18 65.77 Z" />
<path fill="#f8fcf8" opacity="1.00" d=" M 46.93 69.97 C 47.04 68.79 46.91 66.58 48.82 67.05 C 57.15 67.06 65.49 66.90 73.82 67.16 C 73.85 67.88 73.91 69.32 73.94 70.03 C 64.94 70.26 55.92 70.31 46.93 69.97 Z" />
<path fill="#f8fcf8" opacity="1.00" d=" M 47.37 71.17 C 50.79 70.29 54.46 71.06 57.98 70.83 C 63.18 71.04 68.48 70.39 73.62 71.15 C 75.17 73.17 72.49 73.62 70.98 73.53 C 63.47 73.43 55.96 73.65 48.47 73.43 C 46.94 73.25 46.57 72.49 47.37 71.17 Z" />
</g>
</svg>
