<?xml version="1.0" encoding="UTF-8" ?>
<!DOCTYPE svg PUBLIC "-//W3C//DTD SVG 1.1//EN" "http://www.w3.org/Graphics/SVG/1.1/DTD/svg11.dtd">
<svg width="117px" height="140px" viewBox="0 0 117 140" version="1.1" xmlns="http://www.w3.org/2000/svg">
<g id="#000000ff">
<path fill="#000000" opacity="1.00" d=" M 0.00 0.00 L 117.00 0.00 L 117.00 140.00 L 0.00 140.00 L 0.00 0.00 M 33.10 10.22 C 17.90 11.81 5.22 25.60 5.01 40.90 C 5.02 60.62 4.93 80.34 5.06 100.05 C 5.72 116.04 20.04 129.88 36.04 129.99 C 51.73 129.97 67.42 130.09 83.11 129.93 C 98.67 129.26 112.27 115.64 112.93 100.08 C 113.10 80.71 112.94 61.34 113.01 41.98 C 113.07 33.34 109.36 24.78 103.09 18.86 C 96.98 12.94 88.44 9.73 79.97 9.98 C 64.35 10.17 48.71 9.69 33.10 10.22 Z" />
<path fill="#000000" opacity="1.00" d=" M 30.55 12.70 C 33.98 11.93 37.52 11.98 41.02 12.00 C 55.05 12.06 69.09 11.87 83.12 12.10 C 97.93 12.80 110.80 26.06 110.96 40.90 C 111.03 60.27 111.03 79.64 110.96 99.01 C 110.86 114.25 97.32 127.81 82.07 127.95 C 66.71 128.04 51.35 128.01 35.99 127.96 C 20.75 127.83 7.18 114.32 7.03 99.07 C 6.98 79.72 6.98 60.36 7.03 41.01 C 7.20 27.66 17.51 15.40 30.55 12.70 M 43.24 40.20 C 40.51 42.11 37.88 44.19 35.34 46.35 C 33.03 48.07 33.01 51.91 35.32 53.64 C 37.90 55.83 40.57 57.94 43.35 59.87 C 45.00 61.12 47.06 60.11 48.88 59.98 C 49.66 57.39 50.06 54.70 50.10 52.00 C 52.06 52.00 54.03 52.00 56.00 52.00 C 56.00 51.25 56.00 49.75 56.00 49.00 C 54.01 49.00 52.03 49.00 50.05 49.00 C 50.15 45.96 49.76 42.94 48.88 40.03 C 47.02 39.88 44.90 38.86 43.24 40.20 M 67.99 41.22 C 68.01 47.08 68.00 52.93 68.00 58.79 C 70.49 60.21 73.71 61.52 76.00 58.95 C 79.12 55.87 85.95 53.58 84.02 48.09 C 81.67 44.76 77.88 42.69 74.72 40.17 C 72.54 38.44 70.08 40.38 67.99 41.22 M 57.00 49.01 C 57.00 49.75 57.00 51.25 57.00 52.00 C 57.75 52.00 59.25 52.00 59.99 52.00 C 59.99 51.25 60.00 49.75 60.00 49.00 C 59.25 49.00 57.75 49.00 57.00 49.01 M 61.00 49.00 C 61.00 49.75 61.00 51.25 61.00 52.00 C 63.00 52.00 65.00 52.00 67.00 52.00 C 67.00 51.25 67.00 49.75 67.00 49.00 C 65.00 49.00 63.00 49.00 61.00 49.00 Z" />
<path fill="#000000" opacity="1.00" d=" M 37.02 49.99 C 39.99 47.67 42.98 45.37 45.91 43.00 C 46.05 47.67 46.04 52.33 45.92 56.99 C 42.98 54.63 39.98 52.33 37.02 49.99 Z" />
<path fill="#000000" opacity="1.00" d=" M 72.06 43.03 C 75.03 45.36 78.02 47.67 80.99 50.00 C 78.01 52.33 75.02 54.64 72.07 56.99 C 71.96 52.33 71.96 47.68 72.06 43.03 Z" />
</g>
<g id="#7185b5ff">
<path fill="#7185b5" opacity="1.00" d=" M 33.10 10.22 C 48.71 9.69 64.35 10.17 79.97 9.98 C 88.44 9.73 96.98 12.94 103.09 18.86 C 109.36 24.78 113.07 33.34 113.01 41.98 C 112.94 61.34 113.10 80.71 112.93 100.08 C 112.27 115.64 98.67 129.26 83.11 129.93 C 67.42 130.09 51.73 129.97 36.04 129.99 C 20.04 129.88 5.72 116.04 5.06 100.05 C 4.93 80.34 5.02 60.62 5.01 40.90 C 5.22 25.60 17.90 11.81 33.10 10.22 M 30.55 12.70 C 17.51 15.40 7.20 27.66 7.03 41.01 C 6.98 60.36 6.98 79.72 7.03 99.07 C 7.18 114.32 20.75 127.83 35.99 127.96 C 51.35 128.01 66.71 128.04 82.07 127.95 C 97.32 127.81 110.86 114.25 110.96 99.01 C 111.03 79.64 111.03 60.27 110.96 40.90 C 110.80 26.06 97.93 12.80 83.12 12.10 C 69.09 11.87 55.05 12.06 41.02 12.00 C 37.52 11.98 33.98 11.93 30.55 12.70 Z" />
</g>
<g id="#10ec50ff">
<path fill="#10ec50" opacity="1.00" d=" M 43.24 40.20 C 44.90 38.86 47.02 39.88 48.88 40.03 C 49.76 42.94 50.15 45.96 50.05 49.00 C 52.03 49.00 54.01 49.00 56.00 49.00 C 56.00 49.75 56.00 51.25 56.00 52.00 C 54.03 52.00 52.06 52.00 50.10 52.00 C 50.06 54.70 49.66 57.39 48.88 59.98 C 47.06 60.11 45.00 61.12 43.35 59.87 C 40.57 57.94 37.90 55.83 35.32 53.64 C 33.01 51.91 33.03 48.07 35.34 46.35 C 37.88 44.19 40.51 42.11 43.24 40.20 M 37.02 49.99 C 39.98 52.33 42.98 54.63 45.92 56.99 C 46.04 52.33 46.05 47.67 45.91 43.00 C 42.98 45.37 39.99 47.67 37.02 49.99 Z" />
<path fill="#10ec50" opacity="1.00" d=" M 67.99 41.22 C 70.08 40.38 72.54 38.44 74.72 40.17 C 77.88 42.69 81.67 44.76 84.02 48.09 C 85.95 53.58 79.12 55.87 76.00 58.95 C 73.71 61.52 70.49 60.21 68.00 58.79 C 68.00 52.93 68.01 47.08 67.99 41.22 M 72.06 43.03 C 71.96 47.68 71.96 52.33 72.07 56.99 C 75.02 54.64 78.01 52.33 80.99 50.00 C 78.02 47.67 75.03 45.36 72.06 43.03 Z" />
<path fill="#10ec50" opacity="1.00" d=" M 57.00 49.01 C 57.75 49.00 59.25 49.00 60.00 49.00 C 60.00 49.75 59.99 51.25 59.99 52.00 C 59.25 52.00 57.75 52.00 57.00 52.00 C 57.00 51.25 57.00 49.75 57.00 49.01 Z" />
<path fill="#10ec50" opacity="1.00" d=" M 61.00 49.00 C 63.00 49.00 65.00 49.00 67.00 49.00 C 67.00 49.75 67.00 51.25 67.00 52.00 C 65.00 52.00 63.00 52.00 61.00 52.00 C 61.00 51.25 61.00 49.75 61.00 49.00 Z" />
</g>
</svg>
