<?xml version="1.0" encoding="UTF-8" ?>
<!DOCTYPE svg PUBLIC "-//W3C//DTD SVG 1.1//EN" "http://www.w3.org/Graphics/SVG/1.1/DTD/svg11.dtd">
<svg width="117pt" height="140pt" viewBox="0 0 117 140" version="1.1" xmlns="http://www.w3.org/2000/svg">
<g id="#384450ff">
<path fill="#384450" opacity="1.00" d=" M 0.00 0.00 L 117.00 0.00 L 117.00 140.00 L 0.00 140.00 L 0.00 0.00 M 41.18 53.19 C 38.67 54.48 38.65 58.51 41.18 59.79 C 42.90 61.18 45.48 60.38 46.54 58.56 C 49.11 55.46 44.29 50.61 41.18 53.19 M 56.50 53.46 C 54.83 54.80 54.46 57.48 56.04 59.04 C 57.75 61.56 61.85 60.53 62.74 57.77 C 64.21 54.29 59.20 50.66 56.50 53.46 M 72.46 53.36 C 67.74 56.22 73.79 63.42 77.44 59.30 C 81.25 56.39 75.95 50.07 72.46 53.36 Z" />
</g>
<g id="#f8fcf8ff">
<path fill="#f8fcf8" opacity="1.00" d=" M 41.18 53.19 C 44.29 50.61 49.11 55.46 46.54 58.56 C 45.48 60.38 42.90 61.18 41.18 59.79 C 38.65 58.51 38.67 54.48 41.18 53.19 Z" />
<path fill="#f8fcf8" opacity="1.00" d=" M 56.50 53.46 C 59.20 50.66 64.21 54.29 62.74 57.77 C 61.85 60.53 57.75 61.56 56.04 59.04 C 54.46 57.48 54.83 54.80 56.50 53.46 Z" />
<path fill="#f8fcf8" opacity="1.00" d=" M 72.46 53.36 C 75.95 50.07 81.25 56.39 77.44 59.30 C 73.79 63.42 67.74 56.22 72.46 53.36 Z" />
</g>
</svg>
