<?xml version="1.0" encoding="UTF-8" ?>
<!DOCTYPE svg PUBLIC "-//W3C//DTD SVG 1.1//EN" "http://www.w3.org/Graphics/SVG/1.1/DTD/svg11.dtd">
<svg width="117pt" height="140pt" viewBox="0 0 117 140" version="1.1" xmlns="http://www.w3.org/2000/svg">
<g id="#000000ff">
<path fill="#000000" opacity="1.00" d=" M 0.00 0.00 L 117.00 0.00 L 117.00 140.00 L 0.00 140.00 L 0.00 0.00 M 29.45 10.67 C 15.36 13.38 4.21 26.58 4.01 40.94 C 4.02 60.62 3.94 80.30 4.05 99.98 C 4.68 115.61 18.34 129.28 33.97 129.95 C 49.65 130.06 65.33 129.99 81.01 129.98 C 94.05 129.79 106.24 120.65 110.32 108.31 C 112.61 102.11 111.90 95.43 112.00 88.98 C 111.96 72.65 112.08 56.32 111.95 39.99 C 111.30 24.37 97.65 10.72 82.03 10.06 C 67.36 9.90 52.68 10.07 38.00 9.98 C 35.14 9.94 32.26 10.06 29.45 10.67 Z" />
<path fill="#000000" opacity="1.00" d=" M 29.51 12.70 C 32.94 11.91 36.48 11.98 39.98 12.00 C 54.03 12.06 68.08 11.88 82.12 12.09 C 96.96 12.81 109.84 26.11 109.96 40.99 C 110.05 59.98 109.99 78.98 109.99 97.97 C 110.43 113.63 96.65 127.86 81.00 127.96 C 65.32 128.00 49.63 128.08 33.95 127.92 C 19.09 127.23 6.18 113.93 6.03 99.04 C 5.98 79.70 5.98 60.35 6.03 41.01 C 6.21 27.67 16.48 15.42 29.51 12.70 M 35.16 42.03 C 35.20 50.68 35.20 59.32 35.17 67.97 C 38.06 68.02 40.95 68.01 43.84 67.96 C 43.81 64.96 43.80 61.96 43.82 58.97 C 45.88 59.16 48.44 58.47 50.06 60.12 C 51.47 62.49 50.49 65.41 51.13 67.99 C 54.06 68.00 56.98 68.00 59.91 68.03 C 58.31 65.57 59.21 62.61 58.86 59.89 C 58.74 57.77 56.67 56.73 55.36 55.37 C 59.07 54.15 59.48 49.58 58.56 46.37 C 57.48 43.71 54.45 42.53 51.77 42.28 C 46.25 41.84 40.70 42.02 35.16 42.03 M 62.73 49.13 C 62.50 53.08 62.62 57.04 62.59 60.99 C 62.61 63.62 63.50 66.70 66.19 67.73 C 69.43 69.21 73.16 68.30 75.84 66.12 C 76.17 69.65 80.99 67.38 83.39 67.99 C 83.33 61.70 83.55 55.41 83.27 49.13 C 80.73 49.20 78.19 49.20 75.65 49.17 C 75.45 52.96 75.89 56.79 75.40 60.56 C 75.40 62.96 71.68 63.46 70.62 61.58 C 70.09 57.45 70.60 53.28 70.31 49.14 C 67.78 49.20 65.25 49.20 62.73 49.13 Z" />
<path fill="#000000" opacity="1.00" d=" M 43.73 48.54 C 46.62 48.19 51.67 47.56 51.21 52.01 C 49.03 53.53 46.35 53.21 43.84 53.19 C 43.81 51.64 43.77 50.09 43.73 48.54 Z" />
</g>
<g id="#6a84bcff">
<path fill="#6a84bc" opacity="1.00" d=" M 29.45 10.67 C 32.26 10.06 35.14 9.94 38.00 9.98 C 52.68 10.07 67.36 9.90 82.03 10.06 C 97.65 10.72 111.30 24.37 111.95 39.99 C 112.08 56.32 111.96 72.65 112.00 88.98 C 111.90 95.43 112.61 102.11 110.32 108.31 C 106.24 120.65 94.05 129.79 81.01 129.98 C 65.33 129.99 49.65 130.06 33.97 129.95 C 18.34 129.28 4.68 115.61 4.05 99.98 C 3.94 80.30 4.02 60.62 4.01 40.94 C 4.21 26.58 15.36 13.38 29.45 10.67 M 29.51 12.70 C 16.48 15.42 6.21 27.67 6.03 41.01 C 5.98 60.35 5.98 79.70 6.03 99.04 C 6.18 113.93 19.09 127.23 33.95 127.92 C 49.63 128.08 65.32 128.00 81.00 127.96 C 96.65 127.86 110.43 113.63 109.99 97.97 C 109.99 78.98 110.05 59.98 109.96 40.99 C 109.84 26.11 96.96 12.81 82.12 12.09 C 68.08 11.88 54.03 12.06 39.98 12.00 C 36.48 11.98 32.94 11.91 29.51 12.70 Z" />
</g>
<g id="#10ec50ff">
<path fill="#10ec50" opacity="1.00" d=" M 35.16 42.03 C 40.70 42.02 46.25 41.84 51.77 42.28 C 54.45 42.53 57.48 43.71 58.56 46.37 C 59.48 49.58 59.07 54.15 55.36 55.37 C 56.67 56.73 58.74 57.77 58.86 59.89 C 59.21 62.61 58.31 65.57 59.91 68.03 C 56.98 68.00 54.06 68.00 51.13 67.99 C 50.49 65.41 51.47 62.49 50.06 60.12 C 48.44 58.47 45.88 59.16 43.82 58.97 C 43.80 61.96 43.81 64.96 43.84 67.96 C 40.95 68.01 38.06 68.02 35.17 67.97 C 35.20 59.32 35.20 50.68 35.16 42.03 M 43.73 48.54 C 43.77 50.09 43.81 51.64 43.84 53.19 C 46.35 53.21 49.03 53.53 51.21 52.01 C 51.67 47.56 46.62 48.19 43.73 48.54 Z" />
<path fill="#10ec50" opacity="1.00" d=" M 62.73 49.13 C 65.25 49.20 67.78 49.20 70.31 49.14 C 70.60 53.28 70.09 57.45 70.62 61.58 C 71.68 63.46 75.40 62.96 75.40 60.56 C 75.89 56.79 75.45 52.96 75.65 49.17 C 78.19 49.20 80.73 49.20 83.27 49.13 C 83.55 55.41 83.33 61.70 83.39 67.99 C 80.99 67.38 76.17 69.65 75.84 66.12 C 73.16 68.30 69.43 69.21 66.19 67.73 C 63.50 66.70 62.61 63.62 62.59 60.99 C 62.62 57.04 62.50 53.08 62.73 49.13 Z" />
</g>
</svg>
