<?xml version="1.0" encoding="UTF-8" ?>
<!DOCTYPE svg PUBLIC "-//W3C//DTD SVG 1.1//EN" "http://www.w3.org/Graphics/SVG/1.1/DTD/svg11.dtd">
<svg width="117pt" height="140pt" viewBox="0 0 117 140" version="1.1" xmlns="http://www.w3.org/2000/svg">
<g id="#000000ff">
<path fill="#000000" opacity="1.00" d=" M 0.00 0.00 L 117.00 0.00 L 117.00 140.00 L 0.00 140.00 L 0.00 0.00 M 33.13 10.26 C 17.90 11.81 5.22 25.65 5.04 40.96 C 4.98 60.33 4.97 79.70 5.04 99.07 C 5.20 115.37 19.63 129.80 35.93 129.96 C 51.64 129.99 67.36 130.11 83.06 129.89 C 99.00 129.26 112.82 114.99 112.95 99.05 C 113.05 80.02 112.99 60.99 112.98 41.96 C 113.08 31.16 107.18 20.62 98.02 14.94 C 92.38 11.32 85.61 9.76 78.95 9.99 C 63.68 10.18 48.39 9.66 33.13 10.26 Z" />
<path fill="#000000" opacity="1.00" d=" M 33.24 12.30 C 49.49 11.77 65.78 12.14 82.04 12.10 C 97.63 12.19 111.36 26.37 110.93 41.96 C 110.94 60.99 111.01 80.03 110.89 99.06 C 110.82 114.28 97.26 127.81 82.05 127.88 C 66.70 128.01 51.35 127.96 36.00 127.91 C 20.78 127.82 7.21 114.32 7.10 99.09 C 7.02 79.70 7.02 60.31 7.10 40.93 C 7.24 26.68 19.09 13.78 33.24 12.30 M 58.83 28.83 C 57.87 33.04 58.76 37.53 58.45 41.85 C 53.56 43.00 49.96 47.35 49.76 52.38 C 45.42 52.26 41.07 52.05 36.73 52.29 C 40.94 53.31 45.33 52.60 49.61 52.97 C 50.37 58.07 54.22 62.45 59.46 63.10 C 59.82 67.52 58.87 71.98 59.57 76.35 C 59.96 71.96 60.34 67.55 60.15 63.13 C 65.36 62.77 69.85 58.81 70.57 53.58 C 74.56 53.58 78.54 53.55 82.53 53.62 C 85.65 42.55 76.71 31.46 66.20 28.90 C 63.81 28.44 61.12 27.69 58.83 28.83 Z" />
<path fill="#000000" opacity="1.00" d=" M 58.15 43.11 C 65.28 41.18 71.82 49.31 68.84 55.94 C 66.79 62.23 58.27 63.75 53.58 59.45 C 48.74 54.39 50.74 44.31 58.15 43.11 Z" />
</g>
<g id="#788cc0ff">
<path fill="#788cc0" opacity="1.00" d=" M 33.13 10.26 C 48.39 9.66 63.68 10.18 78.95 9.99 C 85.61 9.76 92.38 11.32 98.02 14.94 C 107.18 20.62 113.08 31.16 112.98 41.96 C 112.99 60.99 113.05 80.02 112.95 99.05 C 112.82 114.99 99.00 129.26 83.06 129.89 C 67.36 130.11 51.64 129.99 35.93 129.96 C 19.63 129.80 5.20 115.37 5.04 99.07 C 4.97 79.70 4.98 60.33 5.04 40.96 C 5.22 25.65 17.90 11.81 33.13 10.26 M 33.24 12.30 C 19.09 13.78 7.24 26.68 7.10 40.93 C 7.02 60.31 7.02 79.70 7.10 99.09 C 7.21 114.32 20.78 127.82 36.00 127.91 C 51.35 127.96 66.70 128.01 82.05 127.88 C 97.26 127.81 110.82 114.28 110.89 99.06 C 111.01 80.03 110.94 60.99 110.93 41.96 C 111.36 26.37 97.63 12.19 82.04 12.10 C 65.78 12.14 49.49 11.77 33.24 12.30 Z" />
</g>
<g id="#f8fcf8ff">
<path fill="#f8fcf8" opacity="1.00" d=" M 58.83 28.83 C 61.12 27.69 63.81 28.44 66.20 28.90 C 76.71 31.46 85.65 42.55 82.53 53.62 C 78.54 53.55 74.56 53.58 70.57 53.58 C 69.85 58.81 65.36 62.77 60.15 63.13 C 60.34 67.55 59.96 71.96 59.57 76.35 C 58.87 71.98 59.82 67.52 59.46 63.10 C 54.22 62.45 50.37 58.07 49.61 52.97 C 45.33 52.60 40.94 53.31 36.73 52.29 C 41.07 52.05 45.42 52.26 49.76 52.38 C 49.96 47.35 53.56 43.00 58.45 41.85 C 58.76 37.53 57.87 33.04 58.83 28.83 M 58.15 43.11 C 50.74 44.31 48.74 54.39 53.58 59.45 C 58.27 63.75 66.79 62.23 68.84 55.94 C 71.82 49.31 65.28 41.18 58.15 43.11 Z" />
</g>
</svg>
