<?xml version="1.0" encoding="UTF-8" ?>
<!DOCTYPE svg PUBLIC "-//W3C//DTD SVG 1.1//EN" "http://www.w3.org/Graphics/SVG/1.1/DTD/svg11.dtd">
<svg width="117px" height="140px" viewBox="0 0 117 140" version="1.1" xmlns="http://www.w3.org/2000/svg">
<g id="#000000ff">
<path fill="#000000" opacity="1.00" d=" M 0.00 0.00 L 117.00 0.00 L 117.00 140.00 L 0.00 140.00 L 0.00 0.00 M 5.06 39.95 C 4.90 58.29 5.07 76.63 4.98 94.97 C 4.75 100.73 5.51 106.63 8.13 111.83 C 12.31 120.77 20.84 127.17 30.35 129.46 C 33.22 129.76 36.09 130.10 38.97 130.03 C 53.67 129.91 68.38 130.12 83.07 129.93 C 98.68 129.28 112.32 115.60 112.94 100.00 C 113.10 81.35 112.93 62.70 113.02 44.04 C 113.09 40.10 112.79 36.11 111.54 32.34 C 107.66 19.69 95.29 10.22 82.02 10.02 C 66.33 10.02 50.64 9.92 34.95 10.07 C 19.36 10.72 5.72 24.35 5.06 39.95 Z" />
<path fill="#000000" opacity="1.00" d=" M 30.46 12.71 C 34.91 11.72 39.50 12.06 44.03 12.00 C 57.04 12.06 70.06 11.88 83.07 12.10 C 97.94 12.76 110.87 26.12 110.96 41.03 C 111.03 60.36 111.03 79.70 110.95 99.02 C 110.86 114.30 97.27 127.84 82.01 127.95 C 66.66 128.04 51.30 128.02 35.94 127.96 C 20.70 127.80 7.16 114.29 7.04 99.04 C 6.97 79.71 6.98 60.37 7.03 41.03 C 7.19 27.70 17.45 15.45 30.46 12.71 M 47.47 39.26 C 46.97 41.15 48.58 41.66 50.01 42.08 C 52.02 37.86 56.59 35.78 59.69 32.44 C 63.07 35.42 66.77 38.08 69.63 41.60 C 70.99 42.59 72.06 40.74 72.80 39.93 C 71.43 38.67 69.27 37.97 68.57 36.14 C 68.40 33.85 68.52 31.56 68.51 29.28 C 67.20 29.13 65.88 28.98 64.57 28.84 C 64.50 30.23 64.42 31.62 64.34 33.01 C 62.29 32.09 61.65 28.79 59.13 29.06 C 55.57 32.82 51.61 36.18 47.47 39.26 M 50.48 41.87 C 50.52 44.36 50.51 46.86 50.53 49.35 C 52.97 49.41 55.42 49.39 57.86 49.28 C 57.81 47.35 57.92 45.43 58.23 43.53 C 59.35 43.57 60.48 43.61 61.60 43.66 C 61.61 45.56 61.62 47.47 61.64 49.37 C 63.88 49.38 66.11 49.38 68.35 49.39 C 68.51 46.90 68.70 44.39 68.40 41.90 C 67.52 40.48 66.02 39.62 64.76 38.57 L 65.14 38.16 C 62.97 37.41 61.61 35.45 59.94 33.99 C 56.57 36.35 53.65 39.27 50.48 41.87 M 33.85 53.00 C 37.46 55.97 40.90 59.15 44.64 61.94 C 44.21 60.47 43.73 59.02 43.26 57.56 C 42.89 56.37 42.50 55.19 42.14 54.00 C 53.74 53.56 65.26 53.65 76.86 53.95 C 76.05 56.64 75.16 59.30 74.39 62.00 C 78.04 59.08 81.58 56.01 85.16 52.99 C 81.60 49.96 78.04 46.93 74.39 44.01 C 74.76 45.34 75.16 46.65 75.55 47.97 C 76.04 49.32 76.48 50.68 76.90 52.05 C 65.27 52.42 53.74 52.33 42.12 52.05 C 42.92 49.38 43.82 46.73 44.65 44.06 C 40.91 46.87 37.43 49.99 33.85 53.00 M 50.92 57.20 C 50.91 57.73 50.90 58.79 50.89 59.32 C 54.92 59.33 58.95 59.28 62.98 59.38 C 58.80 64.08 54.37 68.56 50.37 73.41 C 50.44 74.12 50.50 74.82 50.57 75.53 C 56.50 75.50 62.42 75.54 68.35 75.51 C 68.33 74.87 68.28 73.58 68.26 72.93 C 63.95 73.10 59.58 72.48 55.32 73.38 C 57.59 70.01 60.68 67.35 63.28 64.25 C 65.03 62.04 67.84 60.31 68.07 57.25 C 62.35 57.14 56.64 57.22 50.92 57.20 Z" />
</g>
<g id="#6a84bcff">
<path fill="#6a84bc" opacity="1.00" d=" M 5.06 39.95 C 5.72 24.35 19.36 10.72 34.95 10.07 C 50.64 9.92 66.33 10.02 82.02 10.02 C 95.29 10.22 107.66 19.69 111.54 32.34 C 112.79 36.11 113.09 40.10 113.02 44.04 C 112.93 62.70 113.10 81.35 112.94 100.00 C 112.32 115.60 98.68 129.28 83.07 129.93 C 68.38 130.12 53.67 129.91 38.97 130.03 C 36.09 130.10 33.22 129.76 30.35 129.46 C 20.84 127.17 12.31 120.77 8.13 111.83 C 5.51 106.63 4.75 100.73 4.98 94.97 C 5.07 76.63 4.90 58.29 5.06 39.95 M 30.46 12.71 C 17.45 15.45 7.19 27.70 7.03 41.03 C 6.98 60.37 6.97 79.71 7.04 99.04 C 7.16 114.29 20.70 127.80 35.94 127.96 C 51.30 128.02 66.66 128.04 82.01 127.95 C 97.27 127.84 110.86 114.30 110.95 99.02 C 111.03 79.70 111.03 60.36 110.96 41.03 C 110.87 26.12 97.94 12.76 83.07 12.10 C 70.06 11.88 57.04 12.06 44.03 12.00 C 39.50 12.06 34.91 11.72 30.46 12.71 Z" />
</g>
<g id="#f8fcf8ff">
<path fill="#f8fcf8" opacity="1.00" d=" M 47.47 39.26 C 51.61 36.18 55.57 32.82 59.13 29.06 C 61.65 28.79 62.29 32.09 64.34 33.01 C 64.42 31.62 64.50 30.23 64.57 28.84 C 65.88 28.98 67.20 29.13 68.51 29.28 C 68.52 31.56 68.40 33.85 68.57 36.14 C 69.27 37.97 71.43 38.67 72.80 39.93 C 72.06 40.74 70.99 42.59 69.63 41.60 C 66.77 38.08 63.07 35.42 59.69 32.44 C 56.59 35.78 52.02 37.86 50.01 42.08 C 48.58 41.66 46.97 41.15 47.47 39.26 Z" />
<path fill="#f8fcf8" opacity="1.00" d=" M 50.48 41.87 C 53.65 39.27 56.57 36.35 59.94 33.99 C 61.61 35.45 62.97 37.41 65.14 38.16 L 64.76 38.57 C 66.02 39.62 67.52 40.48 68.40 41.90 C 68.70 44.39 68.51 46.90 68.35 49.39 C 66.11 49.38 63.88 49.38 61.64 49.37 C 61.62 47.47 61.61 45.56 61.60 43.66 C 60.48 43.61 59.35 43.57 58.23 43.53 C 57.92 45.43 57.81 47.35 57.86 49.28 C 55.42 49.39 52.97 49.41 50.53 49.35 C 50.51 46.86 50.52 44.36 50.48 41.87 Z" />
<path fill="#f8fcf8" opacity="1.00" d=" M 33.85 53.00 C 37.43 49.99 40.91 46.87 44.65 44.06 C 43.82 46.73 42.92 49.38 42.12 52.05 C 53.74 52.33 65.27 52.42 76.90 52.05 C 76.48 50.68 76.04 49.32 75.55 47.97 C 75.16 46.65 74.76 45.34 74.39 44.01 C 78.04 46.93 81.60 49.96 85.16 52.99 C 81.58 56.01 78.04 59.08 74.39 62.00 C 75.16 59.30 76.05 56.64 76.86 53.95 C 65.26 53.65 53.74 53.56 42.14 54.00 C 42.50 55.19 42.89 56.37 43.26 57.56 C 43.73 59.02 44.21 60.47 44.64 61.94 C 40.90 59.15 37.46 55.97 33.85 53.00 Z" />
<path fill="#f8fcf8" opacity="1.00" d=" M 50.92 57.20 C 56.64 57.22 62.35 57.14 68.07 57.25 C 67.84 60.31 65.03 62.04 63.28 64.25 C 60.68 67.35 57.59 70.01 55.32 73.38 C 53.69 73.75 52.01 73.57 50.37 73.41 C 54.37 68.56 58.80 64.08 62.98 59.38 C 58.95 59.28 54.92 59.33 50.89 59.32 C 50.90 58.79 50.91 57.73 50.92 57.20 Z" />
</g>
<g id="#e8e8e8ff">
<path fill="#e8e8e8" opacity="1.00" d=" M 50.57 75.53 C 50.50 74.82 50.44 74.12 50.37 73.41 C 52.01 73.57 53.69 73.75 55.32 73.38 C 59.58 72.48 63.95 73.10 68.26 72.93 C 68.28 73.58 68.33 74.87 68.35 75.51 C 62.42 75.54 56.50 75.50 50.57 75.53 Z" />
</g>
</svg>
