<?xml version="1.0" encoding="UTF-8" ?>
<!DOCTYPE svg PUBLIC "-//W3C//DTD SVG 1.1//EN" "http://www.w3.org/Graphics/SVG/1.1/DTD/svg11.dtd">
<svg width="117px" height="140px" viewBox="0 0 117 140" version="1.1" xmlns="http://www.w3.org/2000/svg">
<g id="#000000ff">
<path fill="#000000" opacity="1.00" d=" M 0.00 0.00 L 117.00 0.00 L 117.00 140.00 L 0.00 140.00 L 0.00 0.00 M 29.41 10.45 C 15.68 13.29 4.39 25.88 4.00 40.03 C 4.00 60.04 4.00 80.04 4.00 100.05 C 4.45 116.01 19.00 130.19 35.01 130.02 C 51.35 129.95 67.69 130.07 84.03 129.96 C 96.80 128.84 108.28 119.21 111.73 106.87 C 113.12 102.37 113.01 97.62 113.00 92.96 C 112.94 75.63 113.08 58.29 112.94 40.95 C 112.81 25.01 98.94 10.67 83.04 10.00 C 67.02 9.98 50.99 10.03 34.97 9.98 C 33.11 10.00 31.23 10.03 29.41 10.45 Z" />
<path fill="#000000" opacity="1.00" d=" M 35.16 12.20 C 49.75 11.85 64.36 12.14 78.96 12.06 C 88.49 12.10 98.20 16.26 103.85 24.11 C 107.95 29.52 109.96 36.26 109.99 43.01 C 110.02 60.67 109.98 78.34 110.01 96.00 C 110.35 106.86 104.98 118.00 95.42 123.49 C 89.95 126.98 83.35 127.92 76.98 127.97 C 64.33 127.94 51.67 127.94 39.01 127.97 C 32.69 127.96 26.19 126.69 20.84 123.17 C 12.35 117.90 6.93 108.04 7.07 98.04 C 7.06 79.02 7.00 60.00 7.10 40.98 C 7.16 25.99 20.22 12.76 35.16 12.20 M 47.62 40.05 C 46.65 40.84 44.78 41.31 45.02 42.90 C 44.96 53.29 45.02 63.68 45.00 74.07 C 44.72 75.41 45.44 77.09 47.02 76.94 C 54.06 77.07 61.11 77.01 68.16 76.98 C 69.87 77.26 71.20 75.73 70.93 74.08 C 70.91 63.70 71.00 53.32 70.88 42.95 C 71.01 41.37 69.13 40.88 68.17 40.02 C 67.91 36.34 69.14 32.28 67.15 28.93 C 61.06 29.16 54.97 28.80 48.89 29.09 C 46.21 31.87 48.14 36.52 47.62 40.05 Z" />
<path fill="#000000" opacity="1.00" d=" M 49.63 30.62 C 54.94 30.06 60.34 30.33 65.67 30.47 C 67.19 33.33 65.93 37.22 66.35 40.47 C 60.69 40.48 55.04 40.48 49.38 40.47 C 49.51 37.19 49.13 33.88 49.63 30.62 M 52.95 32.64 C 52.95 33.53 52.95 35.31 52.95 36.21 C 53.75 36.21 55.35 36.22 56.15 36.23 C 56.15 35.33 56.14 33.52 56.14 32.62 C 55.35 32.62 53.75 32.63 52.95 32.64 M 58.76 32.63 C 58.76 33.53 58.77 35.33 58.78 36.22 C 59.57 36.23 61.17 36.23 61.96 36.23 C 61.94 35.32 61.90 33.50 61.88 32.59 C 61.10 32.60 59.54 32.62 58.76 32.63 Z" />
<path fill="#000000" opacity="1.00" d=" M 57.57 50.77 C 55.22 49.43 54.86 45.63 58.01 45.16 C 61.49 44.95 61.47 49.43 59.02 50.90 C 59.13 57.04 59.04 63.17 59.05 69.30 C 60.71 69.00 62.99 69.56 64.05 67.89 C 64.59 64.76 64.24 61.56 64.37 58.40 C 63.95 58.11 63.13 57.53 62.72 57.24 C 62.74 55.72 62.76 54.19 62.78 52.67 C 64.39 52.67 66.00 52.67 67.61 52.66 C 67.65 54.24 67.69 55.82 67.73 57.39 C 67.27 57.57 66.34 57.91 65.88 58.08 C 65.00 62.07 67.66 67.75 63.38 70.30 C 60.14 70.95 56.72 70.75 53.44 70.40 C 49.28 68.45 51.10 63.15 50.84 59.52 C 50.20 59.48 48.92 59.39 48.29 59.34 C 49.26 57.76 50.22 56.18 51.21 54.61 C 52.06 56.12 52.91 57.62 53.77 59.12 C 53.39 59.31 52.65 59.67 52.28 59.85 C 52.06 62.43 52.03 65.04 52.37 67.60 C 53.41 69.63 55.80 69.18 57.66 69.05 C 57.44 62.96 57.59 56.87 57.57 50.77 Z" />
</g>
<g id="#708cc8ff">
<path fill="#708cc8" opacity="1.00" d=" M 29.41 10.45 C 31.23 10.03 33.11 10.00 34.97 9.98 C 50.99 10.03 67.02 9.98 83.04 10.00 C 98.94 10.67 112.81 25.01 112.94 40.95 C 113.08 58.29 112.94 75.63 113.00 92.96 C 113.01 97.62 113.12 102.37 111.73 106.87 C 108.28 119.21 96.80 128.84 84.03 129.96 C 67.69 130.07 51.35 129.95 35.01 130.02 C 19.00 130.19 4.45 116.01 4.00 100.05 C 4.00 80.04 4.00 60.04 4.00 40.03 C 4.39 25.88 15.68 13.29 29.41 10.45 M 35.16 12.20 C 20.22 12.76 7.16 25.99 7.10 40.98 C 7.00 60.00 7.06 79.02 7.07 98.04 C 6.93 108.04 12.35 117.90 20.84 123.17 C 26.19 126.69 32.69 127.96 39.01 127.97 C 51.67 127.94 64.33 127.94 76.98 127.97 C 83.35 127.92 89.95 126.98 95.42 123.49 C 104.98 118.00 110.35 106.86 110.01 96.00 C 109.98 78.34 110.02 60.67 109.99 43.01 C 109.96 36.26 107.95 29.52 103.85 24.11 C 98.20 16.26 88.49 12.10 78.96 12.06 C 64.36 12.14 49.75 11.85 35.16 12.20 Z" />
</g>
<g id="#10ec50ff">
<path fill="#10ec50" opacity="1.00" d=" M 47.62 40.05 C 48.14 36.52 46.21 31.87 48.89 29.09 C 54.97 28.80 61.06 29.16 67.15 28.93 C 69.14 32.28 67.91 36.34 68.17 40.02 C 69.13 40.88 71.01 41.37 70.88 42.95 C 71.00 53.32 70.91 63.70 70.93 74.08 C 71.20 75.73 69.87 77.26 68.16 76.98 C 61.11 77.01 54.06 77.07 47.02 76.94 C 45.44 77.09 44.72 75.41 45.00 74.07 C 45.02 63.68 44.96 53.29 45.02 42.90 C 44.78 41.31 46.65 40.84 47.62 40.05 M 49.63 30.62 C 49.13 33.88 49.51 37.19 49.38 40.47 C 55.04 40.48 60.69 40.48 66.35 40.47 C 65.93 37.22 67.19 33.33 65.67 30.47 C 60.34 30.33 54.94 30.06 49.63 30.62 M 57.57 50.77 C 57.59 56.87 57.44 62.96 57.66 69.05 C 55.80 69.18 53.41 69.63 52.37 67.60 C 52.03 65.04 52.06 62.43 52.28 59.85 C 52.65 59.67 53.39 59.31 53.77 59.12 C 52.91 57.62 52.06 56.12 51.21 54.61 C 50.22 56.18 49.26 57.76 48.29 59.34 C 48.92 59.39 50.20 59.48 50.84 59.52 C 51.10 63.15 49.28 68.45 53.44 70.40 C 56.72 70.75 60.14 70.95 63.38 70.30 C 67.66 67.75 65.00 62.07 65.88 58.08 C 66.34 57.91 67.27 57.57 67.73 57.39 C 67.69 55.82 67.65 54.24 67.61 52.66 C 66.00 52.67 64.39 52.67 62.78 52.67 C 62.76 54.19 62.74 55.72 62.72 57.24 C 63.13 57.53 63.95 58.11 64.37 58.40 C 64.24 61.56 64.59 64.76 64.05 67.89 C 62.99 69.56 60.71 69.00 59.05 69.30 C 59.04 63.17 59.13 57.04 59.02 50.90 C 61.47 49.43 61.49 44.95 58.01 45.16 C 54.86 45.63 55.22 49.43 57.57 50.77 Z" />
</g>
<g id="#10e74dff">
<path fill="#10e74d" opacity="1.00" d=" M 52.95 32.64 C 53.75 32.63 55.35 32.62 56.14 32.62 C 56.14 33.52 56.15 35.33 56.15 36.23 C 55.35 36.22 53.75 36.21 52.95 36.21 C 52.95 35.31 52.95 33.53 52.95 32.64 Z" />
</g>
<g id="#10e24cff">
<path fill="#10e24c" opacity="1.00" d=" M 58.76 32.63 C 59.54 32.62 61.10 32.60 61.88 32.59 C 61.90 33.50 61.94 35.32 61.96 36.23 C 61.17 36.23 59.57 36.23 58.78 36.22 C 58.77 35.33 58.76 33.53 58.76 32.63 Z" />
</g>
</svg>
