<?xml version="1.0" encoding="UTF-8" ?>
<!DOCTYPE svg PUBLIC "-//W3C//DTD SVG 1.1//EN" "http://www.w3.org/Graphics/SVG/1.1/DTD/svg11.dtd">
<svg width="117px" height="140px" viewBox="0 0 117 140" version="1.1" xmlns="http://www.w3.org/2000/svg">
<g id="#000000ff">
<path fill="#000000" opacity="1.00" d=" M 0.00 0.00 L 117.00 0.00 L 117.00 140.00 L 0.00 140.00 L 0.00 0.00 M 33.09 10.23 C 17.88 11.82 5.17 25.64 5.02 40.96 C 4.99 60.33 4.99 79.69 5.02 99.06 C 5.17 115.03 19.02 129.31 34.99 129.94 C 51.01 130.04 67.05 130.06 83.08 129.93 C 99.00 129.28 112.83 115.02 112.97 99.08 C 113.02 79.70 113.02 60.33 112.98 40.95 C 112.86 24.58 98.31 10.10 81.95 10.02 C 65.67 10.12 49.36 9.71 33.09 10.23 Z" />
<path fill="#000000" opacity="1.00" d=" M 30.48 12.71 C 34.91 11.74 39.47 12.06 43.97 12.00 C 57.01 12.06 70.06 11.87 83.10 12.11 C 98.30 12.78 111.35 26.72 110.98 41.94 C 110.99 60.97 111.05 80.00 110.95 99.03 C 110.86 114.29 97.26 127.85 82.01 127.95 C 66.65 128.04 51.30 128.02 35.94 127.95 C 20.70 127.81 7.13 114.26 7.04 99.00 C 6.97 79.67 6.97 60.33 7.04 40.99 C 7.20 27.66 17.49 15.44 30.48 12.71 M 41.32 47.14 C 43.37 47.90 45.44 48.64 47.52 49.33 C 48.22 47.69 48.90 46.06 49.72 44.48 C 49.51 47.61 50.82 50.48 51.87 53.35 C 53.67 52.69 55.47 52.00 57.25 51.29 C 56.63 49.13 56.34 46.90 56.16 44.67 C 57.45 45.73 58.73 46.81 60.10 47.75 C 59.48 47.63 58.23 47.39 57.61 47.26 C 57.58 49.17 57.56 51.08 57.57 53.00 C 60.92 53.00 64.26 52.98 67.61 53.04 C 67.46 57.09 67.83 61.17 67.42 65.21 C 66.99 65.52 66.13 66.14 65.70 66.45 C 65.54 62.35 65.62 58.26 65.64 54.16 C 61.15 54.17 56.66 54.16 52.17 54.17 C 52.16 59.11 52.17 64.05 52.16 68.99 C 56.16 69.00 60.17 69.01 64.18 68.98 C 64.64 70.21 65.09 71.45 65.54 72.69 C 68.28 72.48 72.68 73.26 73.75 69.90 C 74.33 62.37 73.83 54.80 74.01 47.25 C 73.35 47.37 72.05 47.60 71.40 47.71 C 71.76 46.89 72.12 46.07 72.47 45.25 C 73.24 45.32 74.79 45.47 75.56 45.54 C 75.60 43.48 75.62 41.42 75.65 39.35 C 70.49 40.05 65.64 38.45 60.67 37.42 C 60.05 39.26 59.53 41.18 58.39 42.78 C 58.57 41.94 58.94 40.27 59.12 39.43 C 54.38 40.09 50.05 38.51 45.57 37.32 C 44.15 40.60 43.17 44.07 41.32 47.14 M 44.15 49.60 C 44.18 57.20 44.16 64.81 44.16 72.41 C 46.31 72.42 48.46 72.42 50.61 72.42 C 50.54 64.82 50.79 57.21 50.46 49.61 C 48.36 49.59 46.25 49.59 44.15 49.60 Z" />
<path fill="#000000" opacity="1.00" d=" M 63.57 47.09 C 62.93 45.37 65.81 44.46 66.38 46.14 C 67.01 47.82 64.18 48.62 63.57 47.09 Z" />
<path fill="#000000" opacity="1.00" d=" M 57.24 58.82 C 57.40 57.28 60.14 57.20 60.41 58.72 C 60.14 60.06 57.62 60.09 57.24 58.82 Z" />
<path fill="#000000" opacity="1.00" d=" M 57.20 64.25 C 57.50 62.87 60.05 63.01 60.39 64.30 C 60.15 65.82 57.44 65.71 57.20 64.25 Z" />
</g>
<g id="#7186b5ff">
<path fill="#7186b5" opacity="1.00" d=" M 33.09 10.23 C 49.36 9.71 65.67 10.12 81.95 10.02 C 98.31 10.10 112.86 24.58 112.98 40.95 C 113.02 60.33 113.02 79.70 112.97 99.08 C 112.83 115.02 99.00 129.28 83.08 129.93 C 67.05 130.06 51.01 130.04 34.99 129.94 C 19.02 129.31 5.17 115.03 5.02 99.06 C 4.99 79.69 4.99 60.33 5.02 40.96 C 5.17 25.64 17.88 11.82 33.09 10.23 M 30.48 12.71 C 17.49 15.44 7.20 27.66 7.04 40.99 C 6.97 60.33 6.97 79.67 7.04 99.00 C 7.13 114.26 20.70 127.81 35.94 127.95 C 51.30 128.02 66.65 128.04 82.01 127.95 C 97.26 127.85 110.86 114.29 110.95 99.03 C 111.05 80.00 110.99 60.97 110.98 41.94 C 111.35 26.72 98.30 12.78 83.10 12.11 C 70.06 11.87 57.01 12.06 43.97 12.00 C 39.47 12.06 34.91 11.74 30.48 12.71 Z" />
</g>
<g id="#f8fcf8ff">
<path fill="#f8fcf8" opacity="1.00" d=" M 41.32 47.14 C 43.17 44.07 44.15 40.60 45.57 37.32 C 50.05 38.51 54.38 40.09 59.12 39.43 C 58.94 40.27 58.57 41.94 58.39 42.78 C 59.53 41.18 60.05 39.26 60.67 37.42 C 65.64 38.45 70.49 40.05 75.65 39.35 C 75.62 41.42 75.60 43.48 75.56 45.54 C 74.79 45.47 73.24 45.32 72.47 45.25 C 72.12 46.07 71.76 46.89 71.40 47.71 C 72.05 47.60 73.35 47.37 74.01 47.25 C 73.83 54.80 74.33 62.37 73.75 69.90 C 72.68 73.26 68.28 72.48 65.54 72.69 C 65.09 71.45 64.64 70.21 64.18 68.98 C 60.17 69.01 56.16 69.00 52.16 68.99 C 52.17 64.05 52.16 59.11 52.17 54.17 C 56.66 54.16 61.15 54.17 65.64 54.16 C 65.62 58.26 65.54 62.35 65.70 66.45 C 66.13 66.14 66.99 65.52 67.42 65.21 C 67.83 61.17 67.46 57.09 67.61 53.04 C 64.26 52.98 60.92 53.00 57.57 53.00 C 57.56 51.08 57.58 49.17 57.61 47.26 C 58.23 47.39 59.48 47.63 60.10 47.75 C 58.73 46.81 57.45 45.73 56.16 44.67 C 56.34 46.90 56.63 49.13 57.25 51.29 C 55.47 52.00 53.67 52.69 51.87 53.35 C 50.82 50.48 49.51 47.61 49.72 44.48 C 48.90 46.06 48.22 47.69 47.52 49.33 C 45.44 48.64 43.37 47.90 41.32 47.14 M 63.57 47.09 C 64.18 48.62 67.01 47.82 66.38 46.14 C 65.81 44.46 62.93 45.37 63.57 47.09 M 57.24 58.82 C 57.62 60.09 60.14 60.06 60.41 58.72 C 60.14 57.20 57.40 57.28 57.24 58.82 M 57.20 64.25 C 57.44 65.71 60.15 65.82 60.39 64.30 C 60.05 63.01 57.50 62.87 57.20 64.25 Z" />
<path fill="#f8fcf8" opacity="1.00" d=" M 44.15 49.60 C 46.25 49.59 48.36 49.59 50.46 49.61 C 50.79 57.21 50.54 64.82 50.61 72.42 C 48.46 72.42 46.31 72.42 44.16 72.41 C 44.16 64.81 44.18 57.20 44.15 49.60 Z" />
</g>
</svg>
