<?xml version="1.0" encoding="UTF-8" ?>
<!DOCTYPE svg PUBLIC "-//W3C//DTD SVG 1.1//EN" "http://www.w3.org/Graphics/SVG/1.1/DTD/svg11.dtd">
<svg width="117px" height="140px" viewBox="0 0 117 140" version="1.1" xmlns="http://www.w3.org/2000/svg">
<g id="#000000ff">
<path fill="#000000" opacity="1.00" d=" M 0.00 0.00 L 117.00 0.00 L 117.00 140.00 L 0.00 140.00 L 0.00 0.00 M 33.14 10.22 C 17.88 11.79 5.16 25.66 5.01 41.01 C 5.02 60.69 4.93 80.37 5.05 100.05 C 5.72 115.64 19.34 129.27 34.94 129.94 C 50.63 130.07 66.33 129.99 82.02 129.98 C 94.79 129.79 106.78 121.01 111.06 109.02 C 112.78 104.56 113.15 99.74 113.02 95.00 C 112.98 77.33 113.00 59.65 113.01 41.98 C 113.07 33.34 109.37 24.80 103.10 18.87 C 97.02 12.97 88.50 9.75 80.04 9.98 C 64.41 10.17 48.76 9.70 33.14 10.22 Z" />
<path fill="#000000" opacity="1.00" d=" M 30.47 12.72 C 34.58 11.77 38.83 12.03 43.02 12.00 C 56.36 12.06 69.71 11.89 83.05 12.09 C 97.91 12.76 110.84 26.08 110.96 40.98 C 111.05 59.67 110.98 78.37 111.00 97.06 C 111.93 113.37 97.41 128.41 81.06 127.98 C 65.69 127.97 50.31 128.10 34.94 127.91 C 20.08 127.23 7.18 113.93 7.03 99.05 C 6.98 79.69 6.98 60.33 7.03 40.98 C 7.22 27.67 17.47 15.44 30.47 12.72 M 45.96 41.07 C 43.11 43.94 38.06 45.51 37.53 50.01 C 38.08 54.52 43.15 56.08 46.01 58.97 C 47.83 60.99 50.55 60.54 52.88 59.94 C 53.62 57.36 54.16 54.71 54.06 52.00 C 54.54 52.00 55.51 51.99 56.00 51.99 C 56.00 51.24 56.00 49.76 56.00 49.01 C 55.51 49.01 54.52 49.00 54.03 48.99 C 54.19 45.96 53.78 42.95 52.89 40.05 C 50.53 39.43 47.78 39.01 45.96 41.07 M 64.00 41.22 C 64.00 43.81 64.00 46.41 64.00 49.00 C 63.25 49.00 61.75 49.00 61.00 49.00 C 61.00 49.75 61.00 51.25 61.00 52.00 C 61.75 52.00 63.25 52.00 64.00 52.00 C 64.00 54.26 64.00 56.52 64.00 58.78 C 65.87 59.43 67.77 61.21 69.85 60.30 C 71.95 59.33 73.55 57.57 75.45 56.28 C 77.51 54.56 80.45 53.05 80.47 49.98 C 80.35 46.64 77.04 45.14 74.82 43.25 C 72.67 41.87 70.92 39.31 68.11 39.43 C 66.69 39.91 65.35 40.59 64.00 41.22 M 57.00 49.00 C 57.00 49.75 57.00 51.25 57.00 52.00 C 57.75 52.00 59.25 52.00 60.00 52.00 C 60.00 51.25 60.00 49.75 60.00 49.00 C 59.25 49.00 57.75 49.00 57.00 49.00 Z" />
<path fill="#000000" opacity="1.00" d=" M 41.01 50.00 C 43.95 47.70 46.95 45.47 49.79 43.04 C 50.21 47.67 49.94 52.33 49.97 56.97 C 46.99 54.63 43.99 52.32 41.01 50.00 Z" />
<path fill="#000000" opacity="1.00" d=" M 68.02 43.11 C 71.08 45.32 73.99 47.71 76.99 49.99 C 74.01 52.33 71.01 54.64 68.02 56.97 C 67.99 52.35 67.98 47.73 68.02 43.11 Z" />
</g>
<g id="#7185b5ff">
<path fill="#7185b5" opacity="1.00" d=" M 33.14 10.22 C 48.76 9.70 64.41 10.17 80.04 9.98 C 88.50 9.75 97.02 12.97 103.10 18.87 C 109.37 24.80 113.07 33.34 113.01 41.98 C 113.00 59.65 112.98 77.33 113.02 95.00 C 113.15 99.74 112.78 104.56 111.06 109.02 C 106.78 121.01 94.79 129.79 82.02 129.98 C 66.33 129.99 50.63 130.07 34.94 129.94 C 19.34 129.27 5.72 115.64 5.05 100.05 C 4.93 80.37 5.02 60.69 5.01 41.01 C 5.16 25.66 17.88 11.79 33.14 10.22 M 30.47 12.72 C 17.47 15.44 7.22 27.67 7.03 40.98 C 6.98 60.33 6.98 79.69 7.03 99.05 C 7.18 113.93 20.08 127.23 34.94 127.91 C 50.31 128.10 65.69 127.97 81.06 127.98 C 97.41 128.41 111.93 113.37 111.00 97.06 C 110.98 78.37 111.05 59.67 110.96 40.98 C 110.84 26.08 97.91 12.76 83.05 12.09 C 69.71 11.89 56.36 12.06 43.02 12.00 C 38.83 12.03 34.58 11.77 30.47 12.72 Z" />
</g>
<g id="#f8fcf8ff">
<path fill="#f8fcf8" opacity="1.00" d=" M 45.96 41.07 C 47.78 39.01 50.53 39.43 52.89 40.05 C 53.78 42.95 54.19 45.96 54.03 48.99 C 54.52 49.00 55.51 49.01 56.00 49.01 C 56.00 49.76 56.00 51.24 56.00 51.99 C 55.51 51.99 54.54 52.00 54.06 52.00 C 54.16 54.71 53.62 57.36 52.88 59.94 C 50.55 60.54 47.83 60.99 46.01 58.97 C 43.15 56.08 38.08 54.52 37.53 50.01 C 38.06 45.51 43.11 43.94 45.96 41.07 M 41.01 50.00 C 43.99 52.32 46.99 54.63 49.97 56.97 C 49.94 52.33 50.21 47.67 49.79 43.04 C 46.95 45.47 43.95 47.70 41.01 50.00 Z" />
<path fill="#f8fcf8" opacity="1.00" d=" M 64.00 41.22 C 65.35 40.59 66.69 39.91 68.11 39.43 C 70.92 39.31 72.67 41.87 74.82 43.25 C 77.04 45.14 80.35 46.64 80.47 49.98 C 80.45 53.05 77.51 54.56 75.45 56.28 C 73.55 57.57 71.95 59.33 69.85 60.30 C 67.77 61.21 65.87 59.43 64.00 58.78 C 64.00 56.52 64.00 54.26 64.00 52.00 C 63.25 52.00 61.75 52.00 61.00 52.00 C 61.00 51.25 61.00 49.75 61.00 49.00 C 61.75 49.00 63.25 49.00 64.00 49.00 C 64.00 46.41 64.00 43.81 64.00 41.22 M 68.02 43.11 C 67.98 47.73 67.99 52.35 68.02 56.97 C 71.01 54.64 74.01 52.33 76.99 49.99 C 73.99 47.71 71.08 45.32 68.02 43.11 Z" />
<path fill="#f8fcf8" opacity="1.00" d=" M 57.00 49.00 C 57.75 49.00 59.25 49.00 60.00 49.00 C 60.00 49.75 60.00 51.25 60.00 52.00 C 59.25 52.00 57.75 52.00 57.00 52.00 C 57.00 51.25 57.00 49.75 57.00 49.00 Z" />
</g>
</svg>
