<?xml version="1.0" encoding="UTF-8" ?>
<!DOCTYPE svg PUBLIC "-//W3C//DTD SVG 1.1//EN" "http://www.w3.org/Graphics/SVG/1.1/DTD/svg11.dtd">
<svg width="117px" height="140px" viewBox="0 0 117 140" version="1.1" xmlns="http://www.w3.org/2000/svg">
<g id="#000000ff">
<path fill="#000000" opacity="1.00" d=" M 0.00 0.00 L 117.00 0.00 L 117.00 140.00 L 0.00 140.00 L 0.00 0.00 M 33.16 10.25 C 17.91 11.79 5.19 25.67 5.04 41.01 C 4.95 60.02 5.02 79.03 5.01 98.04 C 4.97 106.89 8.86 115.63 15.41 121.58 C 21.45 127.19 29.72 130.20 37.95 130.01 C 53.00 129.92 68.05 130.15 83.09 129.89 C 99.01 129.24 112.81 114.99 112.95 99.06 C 113.06 80.04 112.99 61.02 112.98 42.00 C 113.10 30.93 106.90 20.12 97.36 14.53 C 91.88 11.20 85.41 9.79 79.04 9.99 C 63.75 10.18 48.44 9.66 33.16 10.25 Z" />
<path fill="#000000" opacity="1.00" d=" M 33.21 12.30 C 49.48 11.76 65.78 12.14 82.06 12.10 C 97.63 12.20 111.35 26.36 110.93 41.94 C 110.94 60.97 111.01 80.01 110.89 99.04 C 110.83 114.24 97.31 127.77 82.11 127.88 C 66.74 128.01 51.35 127.97 35.98 127.90 C 20.74 127.81 7.17 114.27 7.10 99.02 C 7.02 79.65 7.02 60.28 7.10 40.92 C 7.25 26.68 19.08 13.79 33.21 12.30 M 56.10 38.03 C 55.25 40.95 54.81 43.95 54.96 47.00 C 52.97 47.00 50.99 47.00 49.00 47.00 C 49.00 47.75 49.00 49.25 49.00 50.00 C 50.98 50.00 52.95 50.00 54.93 50.00 C 54.85 52.71 55.39 55.35 56.11 57.95 C 58.47 58.55 61.17 58.98 63.01 56.96 C 65.87 54.08 70.92 52.50 71.47 48.01 C 70.92 43.48 65.85 41.91 62.98 39.02 C 61.15 36.93 58.45 37.52 56.10 38.03 M 42.00 47.00 C 42.00 47.75 42.00 49.25 42.00 50.00 C 44.00 50.00 46.00 50.00 48.00 50.00 C 48.00 49.25 48.00 47.75 48.00 47.00 C 46.00 47.00 44.00 47.00 42.00 47.00 M 57.87 71.06 C 57.76 73.16 57.70 75.26 57.80 77.35 C 52.37 77.42 46.94 77.39 41.51 77.37 C 41.56 75.67 41.62 73.98 41.65 72.28 C 41.00 72.25 39.70 72.20 39.06 72.17 C 39.04 74.13 38.95 76.11 39.19 78.06 C 40.07 80.49 42.95 79.86 44.96 79.96 C 55.61 79.82 66.28 80.12 76.92 79.81 C 80.06 78.72 78.67 74.66 78.92 72.14 C 78.28 72.18 76.99 72.26 76.35 72.29 C 76.38 73.99 76.44 75.68 76.49 77.37 C 71.05 77.39 65.62 77.42 60.18 77.35 C 59.98 75.14 61.61 70.69 57.87 71.06 Z" />
<path fill="#000000" opacity="1.00" d=" M 60.00 41.81 C 62.67 43.86 65.33 45.93 67.99 48.00 C 65.33 50.07 62.67 52.13 60.00 54.19 C 60.00 50.06 60.00 45.94 60.00 41.81 Z" />
</g>
<g id="#788cc0ff">
<path fill="#788cc0" opacity="1.00" d=" M 33.16 10.25 C 48.44 9.66 63.75 10.18 79.04 9.99 C 85.41 9.79 91.88 11.20 97.36 14.53 C 106.90 20.12 113.10 30.93 112.98 42.00 C 112.99 61.02 113.06 80.04 112.95 99.06 C 112.81 114.99 99.01 129.24 83.09 129.89 C 68.05 130.15 53.00 129.92 37.95 130.01 C 29.72 130.20 21.45 127.19 15.41 121.58 C 8.86 115.63 4.97 106.89 5.01 98.04 C 5.02 79.03 4.95 60.02 5.04 41.01 C 5.19 25.67 17.91 11.79 33.16 10.25 M 33.21 12.30 C 19.08 13.79 7.25 26.68 7.10 40.92 C 7.02 60.28 7.02 79.65 7.10 99.02 C 7.17 114.27 20.74 127.81 35.98 127.90 C 51.35 127.97 66.74 128.01 82.11 127.88 C 97.31 127.77 110.83 114.24 110.89 99.04 C 111.01 80.01 110.94 60.97 110.93 41.94 C 111.35 26.36 97.63 12.20 82.06 12.10 C 65.78 12.14 49.48 11.76 33.21 12.30 Z" />
</g>
<g id="#f8fcf8ff">
<path fill="#f8fcf8" opacity="1.00" d=" M 56.10 38.03 C 58.45 37.52 61.15 36.93 62.98 39.02 C 65.85 41.91 70.92 43.48 71.47 48.01 C 70.92 52.50 65.87 54.08 63.01 56.96 C 61.17 58.98 58.47 58.55 56.11 57.95 C 55.39 55.35 54.85 52.71 54.93 50.00 C 52.95 50.00 50.98 50.00 49.00 50.00 C 49.00 49.25 49.00 47.75 49.00 47.00 C 50.99 47.00 52.97 47.00 54.96 47.00 C 54.81 43.95 55.25 40.95 56.10 38.03 M 60.00 41.81 C 60.00 45.94 60.00 50.06 60.00 54.19 C 62.67 52.13 65.33 50.07 67.99 48.00 C 65.33 45.93 62.67 43.86 60.00 41.81 Z" />
<path fill="#f8fcf8" opacity="1.00" d=" M 42.00 47.00 C 44.00 47.00 46.00 47.00 48.00 47.00 C 48.00 47.75 48.00 49.25 48.00 50.00 C 46.00 50.00 44.00 50.00 42.00 50.00 C 42.00 49.25 42.00 47.75 42.00 47.00 Z" />
<path fill="#f8fcf8" opacity="1.00" d=" M 57.87 71.06 C 61.61 70.69 59.98 75.14 60.18 77.35 C 65.62 77.42 71.05 77.39 76.49 77.37 C 76.44 75.68 76.38 73.99 76.35 72.29 C 76.99 72.26 78.28 72.18 78.92 72.14 C 78.67 74.66 80.06 78.72 76.92 79.81 C 66.28 80.12 55.61 79.82 44.96 79.96 C 42.95 79.86 40.07 80.49 39.19 78.06 C 38.95 76.11 39.04 74.13 39.06 72.17 C 39.70 72.20 41.00 72.25 41.65 72.28 C 41.62 73.98 41.56 75.67 41.51 77.37 C 46.94 77.39 52.37 77.42 57.80 77.35 C 57.70 75.26 57.76 73.16 57.87 71.06 Z" />
</g>
</svg>
