<?xml version="1.0" encoding="UTF-8" ?>
<!DOCTYPE svg PUBLIC "-//W3C//DTD SVG 1.1//EN" "http://www.w3.org/Graphics/SVG/1.1/DTD/svg11.dtd">
<svg width="117pt" height="140pt" viewBox="0 0 117 140" version="1.1" xmlns="http://www.w3.org/2000/svg">
<g id="#000000ff">
<path fill="#000000" opacity="1.00" d=" M 0.00 0.00 L 117.00 0.00 L 117.00 140.00 L 0.00 140.00 L 0.00 0.00 M 33.24 10.24 C 17.97 11.75 5.21 25.62 5.04 40.97 C 4.97 60.32 4.97 79.67 5.04 99.01 C 5.17 114.96 18.97 129.24 34.91 129.90 C 50.27 130.13 65.65 129.96 81.02 129.98 C 92.30 130.09 103.29 123.64 108.79 113.81 C 111.74 108.75 113.09 102.88 113.00 97.04 C 112.99 78.71 113.03 60.38 112.98 42.05 C 113.11 30.97 106.93 20.16 97.39 14.55 C 91.88 11.18 85.36 9.79 78.94 9.98 C 63.71 10.18 48.46 9.67 33.24 10.24 Z" />
<path fill="#000000" opacity="1.00" d=" M 33.23 12.30 C 45.12 11.74 57.05 12.20 68.95 12.05 C 77.09 12.28 85.72 10.99 93.30 14.70 C 103.84 19.32 111.15 30.47 110.93 42.01 C 110.96 60.67 110.97 79.33 110.92 97.99 C 111.40 113.58 97.68 127.81 82.08 127.88 C 66.69 128.01 51.30 127.97 35.92 127.90 C 20.71 127.78 7.18 114.25 7.10 99.03 C 7.02 79.67 7.02 60.30 7.10 40.93 C 7.24 26.68 19.09 13.79 33.23 12.30 M 50.31 28.05 C 50.32 37.71 50.35 47.36 50.29 57.01 C 44.67 61.15 43.23 69.83 47.65 75.35 C 51.67 80.98 60.75 81.54 65.41 76.43 C 70.85 71.10 69.78 61.43 63.71 57.01 C 63.65 47.36 63.68 37.71 63.70 28.06 C 59.23 28.03 54.77 28.03 50.31 28.05 M 68.02 33.37 C 69.78 33.79 71.57 33.46 73.32 33.17 C 73.80 29.62 65.87 29.70 68.02 33.37 M 67.93 40.24 C 69.71 40.75 71.54 40.40 73.31 40.11 C 73.75 36.60 66.08 36.62 67.93 40.24 M 67.87 44.85 C 66.51 48.52 71.17 47.22 73.20 47.14 C 73.52 43.93 69.94 44.49 67.87 44.85 M 67.91 51.77 C 66.41 55.47 71.08 54.10 73.11 54.16 C 73.66 50.91 69.97 51.39 67.91 51.77 Z" />
<path fill="#000000" opacity="1.00" d=" M 52.93 30.77 C 55.64 30.77 58.36 30.77 61.07 30.77 C 60.96 40.03 60.98 49.30 61.02 58.56 C 64.18 60.62 66.68 64.11 66.34 68.04 C 66.23 73.64 60.49 78.53 54.92 77.00 C 48.98 75.71 45.75 68.16 48.80 62.93 C 49.65 60.88 51.93 59.91 52.95 58.05 C 53.07 48.96 53.08 39.86 52.93 30.77 M 55.65 46.75 C 55.69 51.31 55.66 55.87 55.72 60.43 C 53.79 61.46 51.68 62.59 50.86 64.77 C 49.02 68.69 51.75 73.72 55.99 74.41 C 60.51 75.23 64.68 70.45 63.56 66.07 C 63.06 63.32 60.71 61.53 58.30 60.46 C 58.33 55.89 58.31 51.32 58.35 46.75 C 57.67 46.75 56.33 46.75 55.65 46.75 Z" />
</g>
<g id="#788cc0ff">
<path fill="#788cc0" opacity="1.00" d=" M 33.24 10.24 C 48.46 9.67 63.71 10.18 78.94 9.98 C 85.36 9.79 91.88 11.18 97.39 14.55 C 106.93 20.16 113.11 30.97 112.98 42.05 C 113.03 60.38 112.99 78.71 113.00 97.04 C 113.09 102.88 111.74 108.75 108.79 113.81 C 103.29 123.64 92.30 130.09 81.02 129.98 C 65.65 129.96 50.27 130.13 34.91 129.90 C 18.97 129.24 5.17 114.96 5.04 99.01 C 4.97 79.67 4.97 60.32 5.04 40.97 C 5.21 25.62 17.97 11.75 33.24 10.24 M 33.23 12.30 C 19.09 13.79 7.24 26.68 7.10 40.93 C 7.02 60.30 7.02 79.67 7.10 99.03 C 7.18 114.25 20.71 127.78 35.92 127.90 C 51.30 127.97 66.69 128.01 82.08 127.88 C 97.68 127.81 111.40 113.58 110.92 97.99 C 110.97 79.33 110.96 60.67 110.93 42.01 C 111.15 30.47 103.84 19.32 93.30 14.70 C 85.72 10.99 77.09 12.28 68.95 12.05 C 57.05 12.20 45.12 11.74 33.23 12.30 Z" />
</g>
<g id="#f8fcf8ff">
<path fill="#f8fcf8" opacity="1.00" d=" M 50.31 28.05 C 54.77 28.03 59.23 28.03 63.70 28.06 C 63.68 37.71 63.65 47.36 63.71 57.01 C 69.78 61.43 70.85 71.10 65.41 76.43 C 60.75 81.54 51.67 80.98 47.65 75.35 C 43.23 69.83 44.67 61.15 50.29 57.01 C 50.35 47.36 50.32 37.71 50.31 28.05 M 52.93 30.77 C 53.08 39.86 53.07 48.96 52.95 58.05 C 51.93 59.91 49.65 60.88 48.80 62.93 C 45.75 68.16 48.98 75.71 54.92 77.00 C 60.49 78.53 66.23 73.64 66.34 68.04 C 66.68 64.11 64.18 60.62 61.02 58.56 C 60.98 49.30 60.96 40.03 61.07 30.77 C 58.36 30.77 55.64 30.77 52.93 30.77 Z" />
<path fill="#f8fcf8" opacity="1.00" d=" M 55.65 46.75 C 56.33 46.75 57.67 46.75 58.35 46.75 C 58.31 51.32 58.33 55.89 58.30 60.46 C 60.71 61.53 63.06 63.32 63.56 66.07 C 64.68 70.45 60.51 75.23 55.99 74.41 C 51.75 73.72 49.02 68.69 50.86 64.77 C 51.68 62.59 53.79 61.46 55.72 60.43 C 55.66 55.87 55.69 51.31 55.65 46.75 Z" />
</g>
<g id="#f1f4f1ff">
<path fill="#f1f4f1" opacity="1.00" d=" M 68.02 33.37 C 65.87 29.70 73.80 29.62 73.32 33.17 C 71.57 33.46 69.78 33.79 68.02 33.37 Z" />
</g>
<g id="#f2f5f2ff">
<path fill="#f2f5f2" opacity="1.00" d=" M 67.93 40.24 C 66.08 36.62 73.75 36.60 73.31 40.11 C 71.54 40.40 69.71 40.75 67.93 40.24 Z" />
</g>
<g id="#f2f6f2ff">
<path fill="#f2f6f2" opacity="1.00" d=" M 67.87 44.85 C 69.94 44.49 73.52 43.93 73.20 47.14 C 71.17 47.22 66.51 48.52 67.87 44.85 Z" />
<path fill="#f2f6f2" opacity="1.00" d=" M 67.91 51.77 C 69.97 51.39 73.66 50.91 73.11 54.16 C 71.08 54.10 66.41 55.47 67.91 51.77 Z" />
</g>
</svg>
