<?xml version="1.0" encoding="UTF-8" ?>
<!DOCTYPE svg PUBLIC "-//W3C//DTD SVG 1.1//EN" "http://www.w3.org/Graphics/SVG/1.1/DTD/svg11.dtd">
<svg width="117px" height="140px" viewBox="0 0 117 140" version="1.1" xmlns="http://www.w3.org/2000/svg">
<g id="#000000ff">
<path fill="#000000" opacity="1.00" d=" M 0.00 0.00 L 117.00 0.00 L 117.00 140.00 L 0.00 140.00 L 0.00 0.00 M 33.20 10.25 C 17.96 11.77 5.23 25.60 5.04 40.93 C 4.94 59.96 5.02 79.00 5.01 98.04 C 4.94 108.34 10.28 118.44 18.76 124.26 C 24.34 128.19 31.17 130.13 37.97 130.01 C 52.66 129.95 67.35 130.09 82.04 129.94 C 93.44 129.74 104.32 122.76 109.44 112.61 C 111.99 107.83 113.06 102.39 113.00 97.01 C 112.99 78.68 113.03 60.36 112.98 42.04 C 113.11 30.98 106.94 20.18 97.43 14.57 C 91.94 11.20 85.44 9.80 79.04 9.98 C 63.76 10.18 48.46 9.66 33.20 10.25 Z" />
<path fill="#000000" opacity="1.00" d=" M 33.20 12.31 C 48.78 11.72 64.40 12.21 79.99 12.05 C 90.61 11.65 101.20 17.31 106.60 26.48 C 109.69 31.39 111.08 37.20 110.95 42.98 C 110.91 61.67 111.03 80.36 110.89 99.04 C 110.83 114.24 97.32 127.76 82.13 127.88 C 66.76 128.01 51.39 127.97 36.02 127.90 C 20.81 127.83 7.24 114.36 7.10 99.14 C 7.01 79.73 7.02 60.32 7.10 40.91 C 7.25 26.68 19.07 13.80 33.20 12.31 M 53.60 27.67 C 53.61 29.30 53.64 30.93 53.69 32.56 C 51.85 33.15 50.06 33.88 48.31 34.72 C 47.09 33.55 45.85 32.38 44.60 31.23 C 42.22 33.73 39.79 36.19 37.26 38.54 C 38.35 39.80 39.47 41.03 40.58 42.27 C 39.86 44.06 39.17 45.87 38.59 47.71 C 36.95 47.66 35.32 47.64 33.68 47.63 C 33.40 51.21 33.40 54.80 33.68 58.37 C 35.32 58.36 36.95 58.33 38.58 58.29 C 39.17 60.14 39.86 61.96 40.59 63.76 C 39.47 64.97 38.35 66.19 37.24 67.41 C 39.75 69.79 42.20 72.23 44.57 74.75 C 45.84 73.62 47.09 72.45 48.33 71.29 C 50.07 72.12 51.87 72.84 53.70 73.45 C 53.64 75.07 53.61 76.70 53.60 78.33 C 57.18 78.60 60.78 78.59 64.37 78.36 C 64.37 76.71 64.36 75.07 64.32 73.42 C 66.16 72.84 67.94 72.11 69.68 71.28 C 70.91 72.46 72.15 73.62 73.41 74.77 C 75.79 72.25 78.24 69.80 80.76 67.42 C 79.64 66.18 78.52 64.96 77.40 63.73 C 78.15 61.94 78.86 60.15 79.51 58.33 C 81.11 58.35 82.72 58.35 84.32 58.35 C 84.60 54.79 84.60 51.21 84.33 47.65 C 82.72 47.64 81.11 47.65 79.50 47.67 C 78.85 45.85 78.14 44.06 77.40 42.29 C 78.51 41.04 79.64 39.81 80.74 38.56 C 78.22 36.19 75.78 33.73 73.39 31.23 C 72.15 32.38 70.92 33.55 69.69 34.72 C 67.95 33.89 66.16 33.18 64.32 32.59 C 64.36 30.94 64.37 29.29 64.36 27.64 C 60.78 27.42 57.18 27.40 53.60 27.67 Z" />
<path fill="#000000" opacity="1.00" d=" M 56.87 30.77 C 58.29 30.77 59.71 30.77 61.12 30.77 C 61.13 32.36 61.14 33.95 61.14 35.55 C 64.26 36.23 67.17 37.52 69.90 39.14 C 71.04 37.98 72.18 36.82 73.32 35.65 C 74.32 36.67 75.33 37.68 76.34 38.69 C 75.17 39.82 74.01 40.96 72.85 42.11 C 74.47 44.82 75.73 47.74 76.43 50.83 C 78.04 50.84 79.65 50.84 81.26 50.84 C 81.26 52.28 81.26 53.72 81.26 55.16 C 79.65 55.16 78.04 55.16 76.43 55.17 C 75.73 58.26 74.46 61.17 72.85 63.89 C 74.01 65.03 75.17 66.17 76.34 67.30 C 75.33 68.31 74.33 69.32 73.34 70.35 C 72.19 69.18 71.04 68.02 69.90 66.86 C 67.17 68.49 64.24 69.74 61.14 70.46 C 61.14 72.05 61.13 73.64 61.13 75.23 C 59.71 75.23 58.29 75.23 56.87 75.23 C 56.87 73.64 56.86 72.05 56.86 70.46 C 53.76 69.74 50.82 68.48 48.09 66.86 C 46.95 68.02 45.82 69.18 44.69 70.35 C 43.68 69.33 42.67 68.32 41.66 67.31 C 42.83 66.18 43.99 65.04 45.15 63.89 C 43.53 61.18 42.28 58.26 41.57 55.17 C 39.96 55.16 38.35 55.16 36.74 55.16 C 36.74 53.72 36.74 52.28 36.74 50.84 C 38.35 50.84 39.96 50.84 41.57 50.83 C 42.27 47.74 43.53 44.83 45.15 42.12 C 43.99 40.97 42.83 39.82 41.66 38.67 C 42.68 37.67 43.68 36.67 44.69 35.66 C 45.82 36.83 46.96 37.98 48.10 39.14 C 50.83 37.52 53.74 36.22 56.86 35.54 C 56.86 33.95 56.87 32.36 56.87 30.77 M 56.48 43.61 C 53.04 44.60 50.19 47.59 49.43 51.10 C 48.22 56.17 52.12 61.51 57.09 62.56 C 62.48 63.85 68.12 59.40 68.73 54.02 C 69.58 47.64 62.69 41.58 56.48 43.61 Z" />
<path fill="#000000" opacity="1.00" d=" M 54.09 48.09 C 57.19 46.11 60.81 46.09 63.91 48.09 C 65.93 51.17 65.85 54.83 63.89 57.92 C 60.81 59.91 57.20 59.88 54.11 57.93 C 52.15 54.83 52.07 51.17 54.09 48.09 Z" />
</g>
<g id="#788cc0ff">
<path fill="#788cc0" opacity="1.00" d=" M 33.20 10.25 C 48.46 9.66 63.76 10.18 79.04 9.98 C 85.44 9.80 91.94 11.20 97.43 14.57 C 106.94 20.18 113.11 30.98 112.98 42.04 C 113.03 60.36 112.99 78.68 113.00 97.01 C 113.06 102.39 111.99 107.83 109.44 112.61 C 104.32 122.76 93.44 129.74 82.04 129.94 C 67.35 130.09 52.66 129.95 37.97 130.01 C 31.17 130.13 24.34 128.19 18.76 124.26 C 10.28 118.44 4.94 108.34 5.01 98.04 C 5.02 79.00 4.94 59.96 5.04 40.93 C 5.23 25.60 17.96 11.77 33.20 10.25 M 33.20 12.31 C 19.07 13.80 7.25 26.68 7.10 40.91 C 7.02 60.32 7.01 79.73 7.10 99.14 C 7.24 114.36 20.81 127.83 36.02 127.90 C 51.39 127.97 66.76 128.01 82.13 127.88 C 97.32 127.76 110.83 114.24 110.89 99.04 C 111.03 80.36 110.91 61.67 110.95 42.98 C 111.08 37.20 109.69 31.39 106.60 26.48 C 101.20 17.31 90.61 11.65 79.99 12.05 C 64.40 12.21 48.78 11.72 33.20 12.31 Z" />
</g>
<g id="#f8fcf8ff">
<path fill="#f8fcf8" opacity="1.00" d=" M 53.60 27.67 C 57.18 27.40 60.78 27.42 64.36 27.64 C 64.37 29.29 64.36 30.94 64.32 32.59 C 66.16 33.18 67.95 33.89 69.69 34.72 C 70.92 33.55 72.15 32.38 73.39 31.23 C 75.78 33.73 78.22 36.19 80.74 38.56 C 79.64 39.81 78.51 41.04 77.40 42.29 C 78.14 44.06 78.85 45.85 79.50 47.67 C 81.11 47.65 82.72 47.64 84.33 47.65 C 84.60 51.21 84.60 54.79 84.32 58.35 C 82.72 58.35 81.11 58.35 79.51 58.33 C 78.86 60.15 78.15 61.94 77.40 63.73 C 78.52 64.96 79.64 66.18 80.76 67.42 C 78.24 69.80 75.79 72.25 73.41 74.77 C 72.15 73.62 70.91 72.46 69.68 71.28 C 67.94 72.11 66.16 72.84 64.32 73.42 C 64.36 75.07 64.37 76.71 64.37 78.36 C 60.78 78.59 57.18 78.60 53.60 78.33 C 53.61 76.70 53.64 75.07 53.70 73.45 C 51.87 72.84 50.07 72.12 48.33 71.29 C 47.09 72.45 45.84 73.62 44.57 74.75 C 42.20 72.23 39.75 69.79 37.24 67.41 C 38.35 66.19 39.47 64.97 40.59 63.76 C 39.86 61.96 39.17 60.14 38.58 58.29 C 36.95 58.33 35.32 58.36 33.68 58.37 C 33.40 54.80 33.40 51.21 33.68 47.63 C 35.32 47.64 36.95 47.66 38.59 47.71 C 39.17 45.87 39.86 44.06 40.58 42.27 C 39.47 41.03 38.35 39.80 37.26 38.54 C 39.79 36.19 42.22 33.73 44.60 31.23 C 45.85 32.38 47.09 33.55 48.31 34.72 C 50.06 33.88 51.85 33.15 53.69 32.56 C 53.64 30.93 53.61 29.30 53.60 27.67 M 56.87 30.77 C 56.87 32.36 56.86 33.95 56.86 35.54 C 53.74 36.22 50.83 37.52 48.10 39.14 C 46.96 37.98 45.82 36.83 44.69 35.66 C 43.68 36.67 42.68 37.67 41.66 38.67 C 42.83 39.82 43.99 40.97 45.15 42.12 C 43.53 44.83 42.27 47.74 41.57 50.83 C 39.96 50.84 38.35 50.84 36.74 50.84 C 36.74 52.28 36.74 53.72 36.74 55.16 C 38.35 55.16 39.96 55.16 41.57 55.17 C 42.28 58.26 43.53 61.18 45.15 63.89 C 43.99 65.04 42.83 66.18 41.66 67.31 C 42.67 68.32 43.68 69.33 44.69 70.35 C 45.82 69.18 46.95 68.02 48.09 66.86 C 50.82 68.48 53.76 69.74 56.86 70.46 C 56.86 72.05 56.87 73.64 56.87 75.23 C 58.29 75.23 59.71 75.23 61.13 75.23 C 61.13 73.64 61.14 72.05 61.14 70.46 C 64.24 69.74 67.17 68.49 69.90 66.86 C 71.04 68.02 72.19 69.18 73.34 70.35 C 74.33 69.32 75.33 68.31 76.34 67.30 C 75.17 66.17 74.01 65.03 72.85 63.89 C 74.46 61.17 75.73 58.26 76.43 55.17 C 78.04 55.16 79.65 55.16 81.26 55.16 C 81.26 53.72 81.26 52.28 81.26 50.84 C 79.65 50.84 78.04 50.84 76.43 50.83 C 75.73 47.74 74.47 44.82 72.85 42.11 C 74.01 40.96 75.17 39.82 76.34 38.69 C 75.33 37.68 74.32 36.67 73.32 35.65 C 72.18 36.82 71.04 37.98 69.90 39.14 C 67.17 37.52 64.26 36.23 61.14 35.55 C 61.14 33.95 61.13 32.36 61.12 30.77 C 59.71 30.77 58.29 30.77 56.87 30.77 Z" />
<path fill="#f8fcf8" opacity="1.00" d=" M 56.48 43.61 C 62.69 41.58 69.58 47.64 68.73 54.02 C 68.12 59.40 62.48 63.85 57.09 62.56 C 52.12 61.51 48.22 56.17 49.43 51.10 C 50.19 47.59 53.04 44.60 56.48 43.61 M 54.09 48.09 C 52.07 51.17 52.15 54.83 54.11 57.93 C 57.20 59.88 60.81 59.91 63.89 57.92 C 65.85 54.83 65.93 51.17 63.91 48.09 C 60.81 46.09 57.19 46.11 54.09 48.09 Z" />
</g>
</svg>
