<?xml version="1.0" encoding="UTF-8" ?>
<!DOCTYPE svg PUBLIC "-//W3C//DTD SVG 1.1//EN" "http://www.w3.org/Graphics/SVG/1.1/DTD/svg11.dtd">
<svg width="117pt" height="140pt" viewBox="0 0 117 140" version="1.1" xmlns="http://www.w3.org/2000/svg">
<g id="#384450ff">
<path fill="#384450" opacity="1.00" d=" M 0.00 0.00 L 117.00 0.00 L 117.00 140.00 L 0.00 140.00 L 0.00 0.00 M 41.17 53.19 C 38.67 54.48 38.66 58.49 41.16 59.78 C 43.11 61.37 45.93 60.12 46.87 58.01 C 48.65 54.83 44.05 50.82 41.17 53.19 M 56.46 53.52 C 53.55 55.59 55.53 60.81 59.04 60.42 C 60.99 60.68 62.63 58.70 62.95 56.94 C 63.45 53.63 58.86 50.89 56.46 53.52 M 72.38 53.41 C 67.83 56.37 73.84 63.41 77.46 59.28 C 81.26 56.31 75.85 50.03 72.38 53.41 Z" />
</g>
<g id="#f8fcf8ff">
<path fill="#f8fcf8" opacity="1.00" d=" M 41.17 53.19 C 44.05 50.82 48.65 54.83 46.87 58.01 C 45.93 60.12 43.11 61.37 41.16 59.78 C 38.66 58.49 38.67 54.48 41.17 53.19 Z" />
<path fill="#f8fcf8" opacity="1.00" d=" M 56.46 53.52 C 58.86 50.89 63.45 53.63 62.95 56.94 C 62.63 58.70 60.99 60.68 59.04 60.42 C 55.53 60.81 53.55 55.59 56.46 53.52 Z" />
<path fill="#f8fcf8" opacity="1.00" d=" M 72.38 53.41 C 75.85 50.03 81.26 56.31 77.46 59.28 C 73.84 63.41 67.83 56.37 72.38 53.41 Z" />
</g>
</svg>
