<?xml version="1.0" encoding="UTF-8" ?>
<!DOCTYPE svg PUBLIC "-//W3C//DTD SVG 1.1//EN" "http://www.w3.org/Graphics/SVG/1.1/DTD/svg11.dtd">
<svg width="117pt" height="140pt" viewBox="0 0 117 140" version="1.1" xmlns="http://www.w3.org/2000/svg">
<g id="#384450ff">
<path fill="#384450" opacity="1.00" d=" M 0.00 0.00 L 117.00 0.00 L 117.00 140.00 L 0.00 140.00 L 0.00 0.00 M 41.19 53.18 C 38.65 54.48 38.65 58.56 41.23 59.82 C 43.20 61.36 45.96 60.08 46.88 57.97 C 48.61 54.81 44.04 50.85 41.19 53.18 M 56.48 53.50 C 54.52 54.98 54.61 58.06 56.51 59.55 C 58.70 61.71 62.63 59.88 62.95 56.95 C 63.46 53.66 58.91 50.90 56.48 53.50 M 72.41 53.39 C 70.23 54.83 70.23 58.19 72.43 59.62 C 74.58 61.72 78.56 59.68 78.69 56.85 C 79.18 53.71 74.77 51.03 72.41 53.39 Z" />
</g>
<g id="#f8fcf8ff">
<path fill="#f8fcf8" opacity="1.00" d=" M 41.19 53.18 C 44.04 50.85 48.61 54.81 46.88 57.97 C 45.96 60.08 43.20 61.36 41.23 59.82 C 38.65 58.56 38.65 54.48 41.19 53.18 Z" />
<path fill="#f8fcf8" opacity="1.00" d=" M 56.48 53.50 C 58.91 50.90 63.46 53.66 62.95 56.95 C 62.63 59.88 58.70 61.71 56.51 59.55 C 54.61 58.06 54.52 54.98 56.48 53.50 Z" />
<path fill="#f8fcf8" opacity="1.00" d=" M 72.41 53.39 C 74.77 51.03 79.18 53.71 78.69 56.85 C 78.56 59.68 74.58 61.72 72.43 59.62 C 70.23 58.19 70.23 54.83 72.41 53.39 Z" />
</g>
</svg>
