<?xml version="1.0" encoding="UTF-8" ?>
<!DOCTYPE svg PUBLIC "-//W3C//DTD SVG 1.1//EN" "http://www.w3.org/Graphics/SVG/1.1/DTD/svg11.dtd">
<svg width="117px" height="140px" viewBox="0 0 117 140" version="1.1" xmlns="http://www.w3.org/2000/svg">
<g id="#000000ff">
<path fill="#000000" opacity="1.00" d=" M 0.00 0.00 L 117.00 0.00 L 117.00 140.00 L 0.00 140.00 L 0.00 0.00 M 30.47 10.66 C 16.37 13.38 5.19 26.59 5.01 40.98 C 4.99 60.33 4.99 79.69 5.01 99.04 C 5.15 115.03 19.04 129.32 35.01 129.94 C 51.02 130.04 67.04 130.06 83.04 129.93 C 98.98 129.30 112.83 115.05 112.98 99.10 C 113.02 79.74 113.01 60.37 112.98 41.01 C 112.88 25.03 99.04 10.74 83.08 10.07 C 70.39 9.88 57.69 10.06 45.00 10.00 C 40.16 10.05 35.25 9.67 30.47 10.66 Z" />
<path fill="#000000" opacity="1.00" d=" M 30.51 12.70 C 34.61 11.79 38.83 12.03 43.00 12.00 C 56.35 12.06 69.71 11.87 83.06 12.10 C 98.29 12.76 111.39 26.74 110.98 42.00 C 110.99 61.00 111.05 80.01 110.95 99.01 C 110.87 114.27 97.30 127.82 82.06 127.95 C 66.68 128.04 51.29 128.02 35.91 127.96 C 20.68 127.79 7.13 114.25 7.04 99.00 C 6.97 79.65 6.97 60.30 7.04 40.96 C 7.22 27.63 17.51 15.42 30.51 12.70 M 57.65 30.56 C 54.43 33.97 50.54 36.64 47.13 39.83 C 47.75 40.92 48.66 41.71 49.87 42.19 C 52.03 37.98 56.49 35.79 59.66 32.44 C 63.11 35.37 66.71 38.16 69.69 41.59 C 70.93 42.52 72.13 40.75 72.83 39.93 C 71.30 38.84 69.79 37.72 68.42 36.45 C 68.51 34.05 68.53 31.64 68.55 29.24 C 67.18 29.14 65.81 29.07 64.44 29.02 C 64.41 30.06 64.36 32.14 64.33 33.19 C 63.05 31.91 61.85 30.55 60.58 29.27 C 59.35 28.32 58.44 29.84 57.65 30.56 M 50.48 41.81 C 50.52 44.33 50.51 46.84 50.53 49.36 C 52.92 49.37 55.32 49.39 57.72 49.42 C 57.84 47.45 57.99 45.49 58.22 43.53 C 59.35 43.57 60.47 43.61 61.60 43.65 C 61.61 45.56 61.62 47.47 61.63 49.38 C 63.90 49.38 66.17 49.38 68.43 49.36 C 68.52 46.82 68.53 44.28 68.51 41.73 C 67.10 40.53 65.73 39.28 64.43 37.96 L 64.21 38.02 C 62.79 36.66 61.34 35.33 59.91 33.99 C 56.59 36.39 53.66 39.25 50.48 41.81 M 33.83 52.99 C 37.44 56.00 40.98 59.09 44.64 62.03 C 43.83 59.36 42.97 56.70 42.14 54.03 C 49.37 53.20 56.69 54.21 63.96 53.62 C 68.26 54.30 72.60 53.08 76.86 54.03 C 76.02 56.69 75.15 59.35 74.36 62.02 C 78.02 59.09 81.58 56.02 85.17 52.99 C 81.57 49.98 78.03 46.90 74.35 44.00 C 75.15 46.67 76.03 49.32 76.88 51.98 C 69.63 52.80 62.29 51.79 54.99 52.39 C 50.70 51.73 46.38 52.85 42.11 51.98 C 42.95 49.31 43.83 46.66 44.66 43.99 C 40.96 46.88 37.43 49.98 33.83 52.99 M 49.07 56.73 C 51.42 60.73 54.51 64.23 57.23 67.98 C 57.23 70.51 57.23 73.04 57.32 75.56 C 58.28 75.52 60.20 75.44 61.16 75.40 C 61.16 72.92 61.16 70.44 61.10 67.96 C 63.67 64.29 66.47 60.79 69.18 57.23 C 68.15 57.22 66.07 57.22 65.03 57.22 C 62.68 59.53 61.17 62.55 59.11 65.11 C 57.25 62.60 55.74 59.80 53.62 57.50 C 52.15 57.00 50.58 56.96 49.07 56.73 Z" />
</g>
<g id="#6a84bcff">
<path fill="#6a84bc" opacity="1.00" d=" M 30.47 10.66 C 35.25 9.67 40.16 10.05 45.00 10.00 C 57.69 10.06 70.39 9.88 83.08 10.07 C 99.04 10.74 112.88 25.03 112.98 41.01 C 113.01 60.37 113.02 79.74 112.98 99.10 C 112.83 115.05 98.98 129.30 83.04 129.93 C 67.04 130.06 51.02 130.04 35.01 129.94 C 19.04 129.32 5.15 115.03 5.01 99.04 C 4.99 79.69 4.99 60.33 5.01 40.98 C 5.19 26.59 16.37 13.38 30.47 10.66 M 30.51 12.70 C 17.51 15.42 7.22 27.63 7.04 40.96 C 6.97 60.30 6.97 79.65 7.04 99.00 C 7.13 114.25 20.68 127.79 35.91 127.96 C 51.29 128.02 66.68 128.04 82.06 127.95 C 97.30 127.82 110.87 114.27 110.95 99.01 C 111.05 80.01 110.99 61.00 110.98 42.00 C 111.39 26.74 98.29 12.76 83.06 12.10 C 69.71 11.87 56.35 12.06 43.00 12.00 C 38.83 12.03 34.61 11.79 30.51 12.70 Z" />
</g>
<g id="#f8fcf8ff">
<path fill="#f8fcf8" opacity="1.00" d=" M 57.65 30.56 C 58.44 29.84 59.35 28.32 60.58 29.27 C 61.85 30.55 63.05 31.91 64.33 33.19 C 64.36 32.14 64.41 30.06 64.44 29.02 C 65.81 29.07 67.18 29.14 68.55 29.24 C 68.53 31.64 68.51 34.05 68.42 36.45 C 69.79 37.72 71.30 38.84 72.83 39.93 C 72.13 40.75 70.93 42.52 69.69 41.59 C 66.71 38.16 63.11 35.37 59.66 32.44 C 56.49 35.79 52.03 37.98 49.87 42.19 C 48.66 41.71 47.75 40.92 47.13 39.83 C 50.54 36.64 54.43 33.97 57.65 30.56 Z" />
<path fill="#f8fcf8" opacity="1.00" d=" M 50.48 41.81 C 53.66 39.25 56.59 36.39 59.91 33.99 C 61.34 35.33 62.79 36.66 64.21 38.02 L 64.43 37.96 C 65.73 39.28 67.10 40.53 68.51 41.73 C 68.53 44.28 68.52 46.82 68.43 49.36 C 66.17 49.38 63.90 49.38 61.63 49.38 C 61.62 47.47 61.61 45.56 61.60 43.65 C 60.47 43.61 59.35 43.57 58.22 43.53 C 57.99 45.49 57.84 47.45 57.72 49.42 C 55.32 49.39 52.92 49.37 50.53 49.36 C 50.51 46.84 50.52 44.33 50.48 41.81 Z" />
<path fill="#f8fcf8" opacity="1.00" d=" M 33.83 52.99 C 37.43 49.98 40.96 46.88 44.66 43.99 C 43.83 46.66 42.95 49.31 42.11 51.98 C 46.38 52.85 50.70 51.73 54.99 52.39 C 62.29 51.79 69.63 52.80 76.88 51.98 C 76.03 49.32 75.15 46.67 74.35 44.00 C 78.03 46.90 81.57 49.98 85.17 52.99 C 81.58 56.02 78.02 59.09 74.36 62.02 C 75.15 59.35 76.02 56.69 76.86 54.03 C 72.60 53.08 68.26 54.30 63.96 53.62 C 56.69 54.21 49.37 53.20 42.14 54.03 C 42.97 56.70 43.83 59.36 44.64 62.03 C 40.98 59.09 37.44 56.00 33.83 52.99 Z" />
<path fill="#f8fcf8" opacity="1.00" d=" M 49.07 56.73 C 50.58 56.96 52.15 57.00 53.62 57.50 C 55.74 59.80 57.25 62.60 59.11 65.11 C 61.17 62.55 62.68 59.53 65.03 57.22 C 66.07 57.22 68.15 57.22 69.18 57.23 C 66.47 60.79 63.67 64.29 61.10 67.96 C 61.16 70.44 61.16 72.92 61.16 75.40 C 60.20 75.44 58.28 75.52 57.32 75.56 C 57.23 73.04 57.23 70.51 57.23 67.98 C 54.51 64.23 51.42 60.73 49.07 56.73 Z" />
</g>
</svg>
