<?xml version="1.0" encoding="UTF-8" ?>
<!DOCTYPE svg PUBLIC "-//W3C//DTD SVG 1.1//EN" "http://www.w3.org/Graphics/SVG/1.1/DTD/svg11.dtd">
<svg width="117px" height="140px" viewBox="0 0 117 140" version="1.1" xmlns="http://www.w3.org/2000/svg">
<g id="#000000ff">
<path fill="#000000" opacity="1.00" d=" M 0.00 0.00 L 117.00 0.00 L 117.00 140.00 L 0.00 140.00 L 0.00 0.00 M 33.14 10.21 C 17.89 11.79 5.18 25.63 5.01 40.97 C 5.02 60.64 4.94 80.31 5.05 99.98 C 5.69 115.60 19.33 129.27 34.95 129.95 C 50.99 130.03 67.05 130.05 83.09 129.94 C 98.65 129.26 112.25 115.66 112.94 100.10 C 113.09 80.75 112.95 61.39 113.01 42.03 C 113.09 33.36 109.36 24.77 103.06 18.83 C 96.96 12.93 88.43 9.73 79.96 9.98 C 64.36 10.17 48.73 9.70 33.14 10.21 Z" />
<path fill="#000000" opacity="1.00" d=" M 30.55 12.70 C 34.00 11.90 37.56 11.98 41.07 12.00 C 55.06 12.06 69.06 11.89 83.05 12.09 C 97.92 12.77 110.85 26.09 110.96 41.00 C 111.05 59.68 110.98 78.36 111.00 97.05 C 111.90 112.99 98.04 127.84 82.06 127.96 C 69.74 128.06 57.41 127.97 45.09 128.00 C 39.46 127.91 33.68 128.47 28.23 126.70 C 16.26 123.15 7.20 111.51 7.03 98.98 C 6.98 79.64 6.98 60.30 7.03 40.96 C 7.23 27.63 17.52 15.38 30.55 12.70 M 46.00 41.04 C 43.16 43.96 38.00 45.49 37.53 50.06 C 38.10 54.54 43.14 56.05 45.96 58.93 C 48.08 61.39 51.29 60.17 54.00 59.90 C 54.00 57.27 54.00 54.63 54.00 52.00 C 54.75 52.00 56.25 52.00 57.00 52.00 C 57.00 51.25 57.00 49.75 57.00 49.00 C 56.25 49.00 54.75 49.00 54.00 49.00 C 54.00 46.03 54.00 43.07 54.00 40.11 C 51.32 39.83 48.10 38.59 46.00 41.04 M 64.00 40.11 C 64.00 43.07 64.00 46.03 64.00 49.00 C 62.00 49.00 60.00 49.00 58.00 49.00 C 58.00 49.75 58.00 51.25 58.00 52.00 C 60.00 52.00 62.00 52.00 64.00 52.00 C 64.00 54.63 64.00 57.26 64.00 59.90 C 66.26 59.92 68.70 61.23 70.80 59.86 C 73.41 57.78 76.15 55.85 78.68 53.66 C 81.02 51.94 80.98 48.01 78.64 46.30 C 76.09 44.12 73.35 42.18 70.74 40.07 C 68.64 38.81 66.23 40.05 64.00 40.11 Z" />
<path fill="#000000" opacity="1.00" d=" M 41.01 50.00 C 44.01 47.71 46.92 45.30 50.00 43.12 C 49.99 47.73 50.05 52.35 49.94 56.97 C 46.99 54.62 43.99 52.32 41.01 50.00 Z" />
<path fill="#000000" opacity="1.00" d=" M 68.00 43.01 C 70.99 45.35 74.00 47.66 76.99 50.00 C 74.01 52.33 71.01 54.63 68.03 56.97 C 67.98 52.32 68.01 47.66 68.00 43.01 Z" />
</g>
<g id="#7185b5ff">
<path fill="#7185b5" opacity="1.00" d=" M 33.14 10.21 C 48.73 9.70 64.36 10.17 79.96 9.98 C 88.43 9.73 96.96 12.93 103.06 18.83 C 109.36 24.77 113.09 33.36 113.01 42.03 C 112.95 61.39 113.09 80.75 112.94 100.10 C 112.25 115.66 98.65 129.26 83.09 129.94 C 67.05 130.05 50.99 130.03 34.95 129.95 C 19.33 129.27 5.69 115.60 5.05 99.98 C 4.94 80.31 5.02 60.64 5.01 40.97 C 5.18 25.63 17.89 11.79 33.14 10.21 M 30.55 12.70 C 17.52 15.38 7.23 27.63 7.03 40.96 C 6.98 60.30 6.98 79.64 7.03 98.98 C 7.20 111.51 16.26 123.15 28.23 126.70 C 33.68 128.47 39.46 127.91 45.09 128.00 C 57.41 127.97 69.74 128.06 82.06 127.96 C 98.04 127.84 111.90 112.99 111.00 97.05 C 110.98 78.36 111.05 59.68 110.96 41.00 C 110.85 26.09 97.92 12.77 83.05 12.09 C 69.06 11.89 55.06 12.06 41.07 12.00 C 37.56 11.98 34.00 11.90 30.55 12.70 Z" />
</g>
<g id="#f8fcf8ff">
<path fill="#f8fcf8" opacity="1.00" d=" M 46.00 41.04 C 48.10 38.59 51.32 39.83 54.00 40.11 C 54.00 43.07 54.00 46.03 54.00 49.00 C 54.75 49.00 56.25 49.00 57.00 49.00 C 57.00 49.75 57.00 51.25 57.00 52.00 C 56.25 52.00 54.75 52.00 54.00 52.00 C 54.00 54.63 54.00 57.27 54.00 59.90 C 51.29 60.17 48.08 61.39 45.96 58.93 C 43.14 56.05 38.10 54.54 37.53 50.06 C 38.00 45.49 43.16 43.96 46.00 41.04 M 41.01 50.00 C 43.99 52.32 46.99 54.62 49.94 56.97 C 50.05 52.35 49.99 47.73 50.00 43.12 C 46.92 45.30 44.01 47.71 41.01 50.00 Z" />
<path fill="#f8fcf8" opacity="1.00" d=" M 64.00 40.11 C 66.23 40.05 68.64 38.81 70.74 40.07 C 73.35 42.18 76.09 44.12 78.64 46.30 C 80.98 48.01 81.02 51.94 78.68 53.66 C 76.15 55.85 73.41 57.78 70.80 59.86 C 68.70 61.23 66.26 59.92 64.00 59.90 C 64.00 57.26 64.00 54.63 64.00 52.00 C 62.00 52.00 60.00 52.00 58.00 52.00 C 58.00 51.25 58.00 49.75 58.00 49.00 C 60.00 49.00 62.00 49.00 64.00 49.00 C 64.00 46.03 64.00 43.07 64.00 40.11 M 68.00 43.01 C 68.01 47.66 67.98 52.32 68.03 56.97 C 71.01 54.63 74.01 52.33 76.99 50.00 C 74.00 47.66 70.99 45.35 68.00 43.01 Z" />
</g>
</svg>
