<?xml version="1.0" encoding="UTF-8" ?>
<!DOCTYPE svg PUBLIC "-//W3C//DTD SVG 1.1//EN" "http://www.w3.org/Graphics/SVG/1.1/DTD/svg11.dtd">
<svg width="117pt" height="140pt" viewBox="0 0 117 140" version="1.1" xmlns="http://www.w3.org/2000/svg">
<g id="#000000ff">
<path fill="#000000" opacity="1.00" d=" M 0.00 0.00 L 117.00 0.00 L 117.00 140.00 L 0.00 140.00 L 0.00 0.00 M 33.24 10.24 C 17.98 11.75 5.22 25.60 5.04 40.94 C 4.97 60.30 4.97 79.66 5.04 99.02 C 5.16 115.35 19.63 129.82 35.96 129.96 C 51.68 129.99 67.41 130.12 83.13 129.89 C 99.03 129.22 112.81 114.97 112.95 99.06 C 113.06 80.04 112.99 61.02 112.98 42.00 C 113.09 31.21 107.22 20.67 98.09 14.98 C 92.47 11.35 85.72 9.77 79.07 9.98 C 63.80 10.17 48.50 9.67 33.24 10.24 Z" />
<path fill="#000000" opacity="1.00" d=" M 33.28 12.29 C 49.52 11.77 65.79 12.13 82.04 12.10 C 97.64 12.19 111.37 26.39 110.93 41.98 C 110.94 61.00 111.01 80.02 110.89 99.04 C 110.84 114.24 97.30 127.78 82.10 127.88 C 66.72 128.01 51.33 127.97 35.95 127.90 C 20.74 127.79 7.19 114.28 7.10 99.06 C 7.00 80.02 7.06 60.98 7.07 41.94 C 6.73 27.32 18.74 13.78 33.28 12.29 M 39.00 33.04 C 38.85 41.46 38.96 49.88 38.94 58.30 C 38.33 58.39 37.11 58.56 36.50 58.64 C 36.24 62.66 40.99 64.57 43.21 67.37 C 46.28 66.02 48.49 63.37 50.69 60.93 C 50.94 59.52 50.35 57.74 48.49 58.50 C 48.84 50.10 48.38 41.67 48.78 33.27 C 45.56 32.58 42.26 32.83 39.00 33.04 M 68.26 33.25 C 68.69 41.64 68.26 50.04 68.54 58.44 C 66.59 57.88 66.38 59.51 66.13 60.92 C 68.62 63.13 70.54 66.19 73.81 67.32 C 76.08 65.08 78.60 63.06 80.56 60.54 C 81.10 58.83 79.49 58.31 78.13 58.20 C 78.06 49.81 78.29 41.41 77.99 33.02 C 74.75 32.83 71.47 32.60 68.26 33.25 M 33.07 71.10 C 33.06 73.61 32.33 76.32 33.30 78.72 C 36.14 80.19 39.48 79.31 42.55 79.48 C 42.48 80.08 42.35 81.28 42.29 81.89 C 42.98 81.93 44.35 82.00 45.03 82.04 C 45.04 81.41 45.04 80.14 45.04 79.50 C 54.01 79.52 62.99 79.52 71.96 79.50 C 71.96 80.14 71.96 81.41 71.97 82.04 C 72.65 82.00 74.02 81.93 74.70 81.89 C 74.64 81.29 74.52 80.08 74.46 79.48 C 77.52 79.31 80.86 80.19 83.70 78.72 C 84.68 76.33 83.93 73.61 83.93 71.10 C 66.98 70.95 50.02 70.94 33.07 71.10 Z" />
<path fill="#000000" opacity="1.00" d=" M 41.93 35.97 C 43.16 35.96 44.39 35.96 45.62 35.95 C 45.95 44.35 44.91 52.86 46.20 61.17 C 45.35 62.07 44.48 62.96 43.62 63.85 C 42.84 63.00 42.05 62.16 41.26 61.32 C 42.21 58.65 41.92 55.78 41.94 53.00 C 41.92 47.32 41.94 41.65 41.93 35.97 Z" />
<path fill="#000000" opacity="1.00" d=" M 70.83 61.26 C 72.20 52.93 71.10 44.37 71.45 35.95 C 72.37 35.95 74.21 35.96 75.13 35.96 C 75.13 42.96 75.14 49.96 75.11 56.96 C 75.06 58.42 75.35 59.85 75.76 61.25 C 74.94 62.11 74.13 62.97 73.32 63.84 C 72.48 62.98 71.65 62.12 70.83 61.26 Z" />
<path fill="#000000" opacity="1.00" d=" M 35.89 74.10 C 50.96 74.10 66.04 74.10 81.11 74.10 C 81.14 74.70 81.18 75.89 81.21 76.49 C 66.07 76.48 50.93 76.48 35.79 76.49 C 35.82 75.89 35.86 74.70 35.89 74.10 Z" />
</g>
<g id="#788cc0ff">
<path fill="#788cc0" opacity="1.00" d=" M 33.24 10.24 C 48.50 9.67 63.80 10.17 79.07 9.98 C 85.72 9.77 92.47 11.35 98.09 14.98 C 107.22 20.67 113.09 31.21 112.98 42.00 C 112.99 61.02 113.06 80.04 112.95 99.06 C 112.81 114.97 99.03 129.22 83.13 129.89 C 67.41 130.12 51.68 129.99 35.96 129.96 C 19.63 129.82 5.16 115.35 5.04 99.02 C 4.97 79.66 4.97 60.30 5.04 40.94 C 5.22 25.60 17.98 11.75 33.24 10.24 M 33.28 12.29 C 18.74 13.78 6.73 27.32 7.07 41.94 C 7.06 60.98 7.00 80.02 7.10 99.06 C 7.19 114.28 20.74 127.79 35.95 127.90 C 51.33 127.97 66.72 128.01 82.10 127.88 C 97.30 127.78 110.84 114.24 110.89 99.04 C 111.01 80.02 110.94 61.00 110.93 41.98 C 111.37 26.39 97.64 12.19 82.04 12.10 C 65.79 12.13 49.52 11.77 33.28 12.29 Z" />
</g>
<g id="#f8fcf8ff">
<path fill="#f8fcf8" opacity="1.00" d=" M 39.00 33.04 C 42.26 32.83 45.56 32.58 48.78 33.27 C 48.38 41.67 48.84 50.10 48.49 58.50 C 50.35 57.74 50.94 59.52 50.69 60.93 C 48.49 63.37 46.28 66.02 43.21 67.37 C 40.99 64.57 36.24 62.66 36.50 58.64 C 37.11 58.56 38.33 58.39 38.94 58.30 C 38.96 49.88 38.85 41.46 39.00 33.04 M 41.93 35.97 C 41.94 41.65 41.92 47.32 41.94 53.00 C 41.92 55.78 42.21 58.65 41.26 61.32 C 42.05 62.16 42.84 63.00 43.62 63.85 C 44.48 62.96 45.35 62.07 46.20 61.17 C 44.91 52.86 45.95 44.35 45.62 35.95 C 44.39 35.96 43.16 35.96 41.93 35.97 Z" />
<path fill="#f8fcf8" opacity="1.00" d=" M 68.26 33.25 C 71.47 32.60 74.75 32.83 77.99 33.02 C 78.29 41.41 78.06 49.81 78.13 58.20 C 79.49 58.31 81.10 58.83 80.56 60.54 C 78.60 63.06 76.08 65.08 73.81 67.32 C 70.54 66.19 68.62 63.13 66.13 60.92 C 66.38 59.51 66.59 57.88 68.54 58.44 C 68.26 50.04 68.69 41.64 68.26 33.25 M 70.83 61.26 C 71.65 62.12 72.48 62.98 73.32 63.84 C 74.13 62.97 74.94 62.11 75.76 61.25 C 75.35 59.85 75.06 58.42 75.11 56.96 C 75.14 49.96 75.13 42.96 75.13 35.96 C 74.21 35.96 72.37 35.95 71.45 35.95 C 71.10 44.37 72.20 52.93 70.83 61.26 Z" />
<path fill="#f8fcf8" opacity="1.00" d=" M 33.07 71.10 C 50.02 70.94 66.98 70.95 83.93 71.10 C 83.93 73.61 84.68 76.33 83.70 78.72 C 80.86 80.19 77.52 79.31 74.46 79.48 C 74.52 80.08 74.64 81.29 74.70 81.89 C 74.02 81.93 72.65 82.00 71.97 82.04 C 71.96 81.41 71.96 80.14 71.96 79.50 C 62.99 79.52 54.01 79.52 45.04 79.50 C 45.04 80.14 45.04 81.41 45.03 82.04 C 44.35 82.00 42.98 81.93 42.29 81.89 C 42.35 81.28 42.48 80.08 42.55 79.48 C 39.48 79.31 36.14 80.19 33.30 78.72 C 32.33 76.32 33.06 73.61 33.07 71.10 M 35.89 74.10 C 35.86 74.70 35.82 75.89 35.79 76.49 C 50.93 76.48 66.07 76.48 81.21 76.49 C 81.18 75.89 81.14 74.70 81.11 74.10 C 66.04 74.10 50.96 74.10 35.89 74.10 Z" />
</g>
</svg>
