<?xml version="1.0" encoding="UTF-8" ?>
<!DOCTYPE svg PUBLIC "-//W3C//DTD SVG 1.1//EN" "http://www.w3.org/Graphics/SVG/1.1/DTD/svg11.dtd">
<svg width="117pt" height="140pt" viewBox="0 0 117 140" version="1.1" xmlns="http://www.w3.org/2000/svg">
<g id="#000000ff">
<path fill="#000000" opacity="1.00" d=" M 0.00 0.00 L 117.00 0.00 L 117.00 140.00 L 0.00 140.00 L 0.00 0.00 M 30.51 10.65 C 16.38 13.35 5.19 26.59 5.01 40.99 C 5.02 60.67 4.94 80.34 5.05 100.01 C 5.70 115.61 19.31 129.24 34.90 129.94 C 50.60 130.06 66.31 129.99 82.01 129.98 C 94.79 129.79 106.78 121.02 111.07 109.02 C 113.62 102.65 112.92 95.69 113.00 88.99 C 112.96 72.64 113.09 56.28 112.94 39.94 C 112.28 24.32 98.60 10.70 82.99 10.06 C 68.68 9.90 54.36 10.07 40.04 9.98 C 36.85 9.95 33.64 9.97 30.51 10.65 Z" />
<path fill="#000000" opacity="1.00" d=" M 30.50 12.70 C 34.94 11.71 39.50 12.07 44.01 12.00 C 57.04 12.06 70.07 11.88 83.10 12.09 C 97.93 12.79 110.82 26.07 110.95 40.95 C 111.06 58.95 110.97 76.96 111.00 94.97 C 111.20 100.70 110.49 106.61 107.67 111.71 C 102.73 121.52 92.05 128.11 81.05 127.98 C 65.69 127.97 50.32 128.10 34.96 127.92 C 20.07 127.24 7.14 113.90 7.03 98.97 C 6.98 79.66 6.98 60.34 7.03 41.03 C 7.20 27.68 17.48 15.43 30.50 12.70 M 58.44 34.76 C 54.46 36.53 49.54 37.72 47.44 41.96 C 47.64 43.44 48.02 44.87 48.59 46.26 C 43.13 46.92 38.32 50.13 34.61 54.06 C 36.20 56.55 38.46 58.48 40.54 60.55 C 46.03 65.96 51.42 71.47 56.92 76.86 C 60.76 73.39 64.30 69.40 65.61 64.26 C 65.98 62.03 67.93 65.11 69.21 64.11 C 77.10 59.03 77.84 48.87 81.01 40.86 C 82.79 37.45 81.87 33.21 78.89 30.81 C 77.93 30.53 77.00 30.17 76.10 29.74 C 69.95 30.33 64.38 33.31 58.44 34.76 Z" />
<path fill="#000000" opacity="1.00" d=" M 58.88 37.85 C 63.91 36.19 68.93 34.49 73.95 32.80 C 76.52 32.05 79.10 34.47 79.04 37.00 C 77.23 43.66 74.68 50.08 72.70 56.69 C 71.78 58.61 70.10 60.00 68.58 61.43 C 67.27 59.99 65.88 58.61 64.45 57.28 C 62.97 62.71 62.01 68.81 57.63 72.77 C 56.59 72.49 55.90 71.63 55.16 70.93 C 50.02 65.69 44.77 60.56 39.62 55.34 C 38.09 54.39 39.75 53.23 40.53 52.55 C 44.65 49.72 49.73 48.94 54.30 47.11 C 52.88 45.64 51.45 44.17 50.06 42.67 C 52.45 40.15 55.70 39.01 58.88 37.85 Z" />
</g>
<g id="#6a84bcff">
<path fill="#6a84bc" opacity="1.00" d=" M 30.51 10.65 C 33.64 9.97 36.85 9.95 40.04 9.98 C 54.36 10.07 68.68 9.90 82.99 10.06 C 98.60 10.70 112.28 24.32 112.94 39.94 C 113.09 56.28 112.96 72.64 113.00 88.99 C 112.92 95.69 113.62 102.65 111.07 109.02 C 106.78 121.02 94.79 129.79 82.01 129.98 C 66.31 129.99 50.60 130.06 34.90 129.94 C 19.31 129.24 5.70 115.61 5.05 100.01 C 4.94 80.34 5.02 60.67 5.01 40.99 C 5.19 26.59 16.38 13.35 30.51 10.65 M 30.50 12.70 C 17.48 15.43 7.20 27.68 7.03 41.03 C 6.98 60.34 6.98 79.66 7.03 98.97 C 7.14 113.90 20.07 127.24 34.96 127.92 C 50.32 128.10 65.69 127.97 81.05 127.98 C 92.05 128.11 102.73 121.52 107.67 111.71 C 110.49 106.61 111.20 100.70 111.00 94.97 C 110.97 76.96 111.06 58.95 110.95 40.95 C 110.82 26.07 97.93 12.79 83.10 12.09 C 70.07 11.88 57.04 12.06 44.01 12.00 C 39.50 12.07 34.94 11.71 30.50 12.70 Z" />
</g>
<g id="#f8fcf8ff">
<path fill="#f8fcf8" opacity="1.00" d=" M 58.44 34.76 C 64.38 33.31 69.95 30.33 76.10 29.74 C 77.00 30.17 77.93 30.53 78.89 30.81 C 81.87 33.21 82.79 37.45 81.01 40.86 C 77.84 48.87 77.10 59.03 69.21 64.11 C 67.93 65.11 65.98 62.03 65.61 64.26 C 64.30 69.40 60.76 73.39 56.92 76.86 C 51.42 71.47 46.03 65.96 40.54 60.55 C 38.46 58.48 36.20 56.55 34.61 54.06 C 38.32 50.13 43.13 46.92 48.59 46.26 C 48.02 44.87 47.64 43.44 47.44 41.96 C 49.54 37.72 54.46 36.53 58.44 34.76 M 58.88 37.85 C 55.70 39.01 52.45 40.15 50.06 42.67 C 51.45 44.17 52.88 45.64 54.30 47.11 C 49.73 48.94 44.65 49.72 40.53 52.55 C 39.75 53.23 38.09 54.39 39.62 55.34 C 44.77 60.56 50.02 65.69 55.16 70.93 C 55.90 71.63 56.59 72.49 57.63 72.77 C 62.01 68.81 62.97 62.71 64.45 57.28 C 65.88 58.61 67.27 59.99 68.58 61.43 C 70.10 60.00 71.78 58.61 72.70 56.69 C 74.68 50.08 77.23 43.66 79.04 37.00 C 79.10 34.47 76.52 32.05 73.95 32.80 C 68.93 34.49 63.91 36.19 58.88 37.85 Z" />
</g>
</svg>
