<?xml version="1.0" encoding="UTF-8" ?>
<!DOCTYPE svg PUBLIC "-//W3C//DTD SVG 1.1//EN" "http://www.w3.org/Graphics/SVG/1.1/DTD/svg11.dtd">
<svg width="117px" height="140px" viewBox="0 0 117 140" version="1.1" xmlns="http://www.w3.org/2000/svg">
<g id="#000000ff">
<path fill="#000000" opacity="1.00" d=" M 0.00 0.00 L 117.00 0.00 L 117.00 140.00 L 0.00 140.00 L 0.00 0.00 M 29.49 10.65 C 15.38 13.37 4.19 26.59 4.01 40.99 C 4.02 60.66 3.93 80.34 4.06 100.02 C 4.70 115.62 18.34 129.27 33.95 129.94 C 49.66 130.07 65.39 130.00 81.11 129.97 C 93.87 129.75 105.82 120.96 110.08 108.98 C 112.62 102.61 111.93 95.66 112.00 88.97 C 111.95 72.65 112.09 56.32 111.94 40.00 C 111.32 24.38 97.65 10.72 82.04 10.07 C 67.69 9.89 53.33 10.08 38.97 9.98 C 35.80 9.95 32.60 9.99 29.49 10.65 Z" />
<path fill="#000000" opacity="1.00" d=" M 29.54 12.69 C 34.27 11.66 39.14 12.09 43.94 12.00 C 56.64 12.06 69.35 11.88 82.06 12.09 C 96.91 12.76 109.83 26.06 109.95 40.95 C 110.03 60.31 110.03 79.67 109.95 99.03 C 109.86 114.29 96.28 127.83 81.03 127.95 C 65.69 128.04 50.34 128.02 35.00 127.96 C 19.74 127.84 6.15 114.30 6.04 99.02 C 5.97 79.68 5.98 60.34 6.04 41.00 C 6.21 27.65 16.51 15.40 29.54 12.69 M 35.16 42.01 C 35.17 50.67 35.17 59.33 35.16 68.00 C 38.06 68.00 40.95 68.00 43.85 67.99 C 43.83 64.97 43.83 61.96 43.83 58.95 C 46.04 59.15 49.06 58.41 50.43 60.67 C 51.09 63.05 50.67 65.57 51.11 68.00 C 54.06 67.99 57.02 67.98 59.98 68.05 C 58.11 65.34 59.48 61.95 58.68 58.97 C 58.10 57.34 56.47 56.46 55.25 55.38 C 58.90 54.38 59.40 50.10 58.76 46.97 C 58.04 44.01 54.85 42.60 52.09 42.30 C 46.46 41.80 40.80 42.06 35.16 42.01 M 62.58 49.16 C 63.01 54.60 61.56 60.37 63.64 65.55 C 66.49 69.77 72.76 68.92 76.26 65.97 C 76.23 66.48 76.18 67.49 76.15 68.00 C 78.57 68.00 80.99 68.00 83.42 68.00 C 83.42 61.72 83.42 55.44 83.42 49.16 C 80.81 49.17 78.19 49.17 75.58 49.16 C 75.46 53.52 75.96 57.93 75.09 62.23 C 73.66 62.46 72.24 62.54 70.80 62.47 C 70.10 58.07 70.52 53.60 70.42 49.16 C 67.80 49.17 65.19 49.17 62.58 49.16 Z" />
<path fill="#000000" opacity="1.00" d=" M 43.81 48.40 C 46.69 48.31 51.56 47.69 51.25 52.02 C 49.02 53.41 46.37 53.24 43.84 53.18 C 43.83 51.59 43.82 49.99 43.81 48.40 Z" />
</g>
<g id="#6a84bcff">
<path fill="#6a84bc" opacity="1.00" d=" M 29.49 10.65 C 32.60 9.99 35.80 9.95 38.97 9.98 C 53.33 10.08 67.69 9.89 82.04 10.07 C 97.65 10.72 111.32 24.38 111.94 40.00 C 112.09 56.32 111.95 72.65 112.00 88.97 C 111.93 95.66 112.62 102.61 110.08 108.98 C 105.82 120.96 93.87 129.75 81.11 129.97 C 65.39 130.00 49.66 130.07 33.95 129.94 C 18.34 129.27 4.70 115.62 4.06 100.02 C 3.93 80.34 4.02 60.66 4.01 40.99 C 4.19 26.59 15.38 13.37 29.49 10.65 M 29.54 12.69 C 16.51 15.40 6.21 27.65 6.04 41.00 C 5.98 60.34 5.97 79.68 6.04 99.02 C 6.15 114.30 19.74 127.84 35.00 127.96 C 50.34 128.02 65.69 128.04 81.03 127.95 C 96.28 127.83 109.86 114.29 109.95 99.03 C 110.03 79.67 110.03 60.31 109.95 40.95 C 109.83 26.06 96.91 12.76 82.06 12.09 C 69.35 11.88 56.64 12.06 43.94 12.00 C 39.14 12.09 34.27 11.66 29.54 12.69 Z" />
</g>
<g id="#f8fcf8ff">
<path fill="#f8fcf8" opacity="1.00" d=" M 35.16 42.01 C 40.80 42.06 46.46 41.80 52.09 42.30 C 54.85 42.60 58.04 44.01 58.76 46.97 C 59.40 50.10 58.90 54.38 55.25 55.38 C 56.47 56.46 58.10 57.34 58.68 58.97 C 59.48 61.95 58.11 65.34 59.98 68.05 C 57.02 67.98 54.06 67.99 51.11 68.00 C 50.67 65.57 51.09 63.05 50.43 60.67 C 49.06 58.41 46.04 59.15 43.83 58.95 C 43.83 61.96 43.83 64.97 43.85 67.99 C 40.95 68.00 38.06 68.00 35.16 68.00 C 35.17 59.33 35.17 50.67 35.16 42.01 M 43.81 48.40 C 43.82 49.99 43.83 51.59 43.84 53.18 C 46.37 53.24 49.02 53.41 51.25 52.02 C 51.56 47.69 46.69 48.31 43.81 48.40 Z" />
<path fill="#f8fcf8" opacity="1.00" d=" M 62.58 49.16 C 65.19 49.17 67.80 49.17 70.42 49.16 C 70.52 53.60 70.10 58.07 70.80 62.47 C 72.24 62.54 73.66 62.46 75.09 62.23 C 75.96 57.93 75.46 53.52 75.58 49.16 C 78.19 49.17 80.81 49.17 83.42 49.16 C 83.42 55.44 83.42 61.72 83.42 68.00 C 80.99 68.00 78.57 68.00 76.15 68.00 C 76.18 67.49 76.23 66.48 76.26 65.97 C 72.76 68.92 66.49 69.77 63.64 65.55 C 61.56 60.37 63.01 54.60 62.58 49.16 Z" />
</g>
</svg>
