<?xml version="1.0" encoding="UTF-8" ?>
<!DOCTYPE svg PUBLIC "-//W3C//DTD SVG 1.1//EN" "http://www.w3.org/Graphics/SVG/1.1/DTD/svg11.dtd">
<svg width="117pt" height="140pt" viewBox="0 0 117 140" version="1.1" xmlns="http://www.w3.org/2000/svg">
<g id="#000000ff">
<path fill="#000000" opacity="1.00" d=" M 0.00 0.00 L 117.00 0.00 L 117.00 140.00 L 0.00 140.00 L 0.00 0.00 M 30.52 10.65 C 16.40 13.35 5.20 26.56 5.01 40.96 C 4.99 60.31 4.99 79.66 5.01 99.01 C 5.09 116.12 20.94 130.94 38.00 130.02 C 52.67 129.95 67.34 130.05 82.00 129.98 C 93.76 129.78 104.94 122.38 109.90 111.76 C 112.32 106.89 113.20 101.40 113.02 96.01 C 112.93 77.34 113.10 58.67 112.94 40.01 C 112.32 24.39 98.67 10.73 83.06 10.07 C 68.70 9.89 54.34 10.07 39.98 9.98 C 36.81 9.95 33.62 9.98 30.52 10.65 Z" />
<path fill="#000000" opacity="1.00" d=" M 30.50 12.70 C 34.27 11.85 38.15 12.01 41.98 12.00 C 55.69 12.06 69.41 11.88 83.11 12.09 C 97.94 12.80 110.84 26.09 110.95 40.96 C 111.03 60.32 111.03 79.69 110.95 99.05 C 110.85 114.29 97.29 127.81 82.06 127.95 C 66.37 128.01 50.67 128.08 34.98 127.92 C 20.10 127.25 7.17 113.93 7.04 99.02 C 6.98 79.68 6.98 60.34 7.03 40.99 C 7.21 27.66 17.49 15.43 30.50 12.70 M 44.69 32.23 C 44.11 37.88 45.34 43.50 48.55 48.22 C 47.90 48.37 46.62 48.67 45.97 48.82 C 45.64 49.32 44.98 50.33 44.65 50.83 C 43.86 57.90 48.38 63.68 51.19 69.74 C 52.73 72.47 53.70 75.62 55.93 77.90 C 58.48 80.60 63.26 80.46 65.65 77.62 C 67.94 75.02 69.03 71.65 70.69 68.66 C 73.25 63.02 77.46 57.54 76.65 50.99 C 76.25 49.17 74.43 48.46 72.82 48.09 C 75.85 43.37 77.16 37.86 76.76 32.28 C 72.87 31.75 68.91 31.47 65.00 32.06 C 58.25 31.54 51.44 31.74 44.69 32.23 Z" />
<path fill="#000000" opacity="1.00" d=" M 47.62 35.11 C 56.35 35.20 65.09 35.03 73.83 35.20 C 74.08 41.18 70.29 46.05 67.99 51.26 C 69.93 51.25 71.88 51.24 73.82 51.25 C 73.78 54.20 73.37 57.21 71.86 59.81 C 69.19 64.84 66.90 70.08 64.05 75.01 C 62.60 77.56 58.48 77.52 57.19 74.83 C 54.27 69.64 51.75 64.22 49.00 58.93 C 47.70 56.60 47.64 53.88 47.59 51.28 C 49.44 51.28 51.32 51.44 53.15 51.10 C 50.98 45.89 46.89 41.11 47.62 35.11 Z" />
</g>
<g id="#6a84bcff">
<path fill="#6a84bc" opacity="1.00" d=" M 30.52 10.65 C 33.62 9.98 36.81 9.95 39.98 9.98 C 54.34 10.07 68.70 9.89 83.06 10.07 C 98.67 10.73 112.32 24.39 112.94 40.01 C 113.10 58.67 112.93 77.34 113.02 96.01 C 113.20 101.40 112.32 106.89 109.90 111.76 C 104.94 122.38 93.76 129.78 82.00 129.98 C 67.34 130.05 52.67 129.95 38.00 130.02 C 20.94 130.94 5.09 116.12 5.01 99.01 C 4.99 79.66 4.99 60.31 5.01 40.96 C 5.20 26.56 16.40 13.35 30.52 10.65 M 30.50 12.70 C 17.49 15.43 7.21 27.66 7.03 40.99 C 6.98 60.34 6.98 79.68 7.04 99.02 C 7.17 113.93 20.10 127.25 34.98 127.92 C 50.67 128.08 66.37 128.01 82.06 127.95 C 97.29 127.81 110.85 114.29 110.95 99.05 C 111.03 79.69 111.03 60.32 110.95 40.96 C 110.84 26.09 97.94 12.80 83.11 12.09 C 69.41 11.88 55.69 12.06 41.98 12.00 C 38.15 12.01 34.27 11.85 30.50 12.70 Z" />
</g>
<g id="#f8fcf8ff">
<path fill="#f8fcf8" opacity="1.00" d=" M 44.69 32.23 C 51.44 31.74 58.25 31.54 65.00 32.06 C 68.91 31.47 72.87 31.75 76.76 32.28 C 77.16 37.86 75.85 43.37 72.82 48.09 C 74.43 48.46 76.25 49.17 76.65 50.99 C 77.46 57.54 73.25 63.02 70.69 68.66 C 69.03 71.65 67.94 75.02 65.65 77.62 C 63.26 80.46 58.48 80.60 55.93 77.90 C 53.70 75.62 52.73 72.47 51.19 69.74 C 48.38 63.68 43.86 57.90 44.65 50.83 C 44.98 50.33 45.64 49.32 45.97 48.82 C 46.62 48.67 47.90 48.37 48.55 48.22 C 45.34 43.50 44.11 37.88 44.69 32.23 M 47.62 35.11 C 46.89 41.11 50.98 45.89 53.15 51.10 C 51.32 51.44 49.44 51.28 47.59 51.28 C 47.64 53.88 47.70 56.60 49.00 58.93 C 51.75 64.22 54.27 69.64 57.19 74.83 C 58.48 77.52 62.60 77.56 64.05 75.01 C 66.90 70.08 69.19 64.84 71.86 59.81 C 73.37 57.21 73.78 54.20 73.82 51.25 C 71.88 51.24 69.93 51.25 67.99 51.26 C 70.29 46.05 74.08 41.18 73.83 35.20 C 65.09 35.03 56.35 35.20 47.62 35.11 Z" />
</g>
</svg>
