<?xml version="1.0" encoding="UTF-8" ?>
<!DOCTYPE svg PUBLIC "-//W3C//DTD SVG 1.1//EN" "http://www.w3.org/Graphics/SVG/1.1/DTD/svg11.dtd">
<svg width="117px" height="140px" viewBox="0 0 117 140" version="1.1" xmlns="http://www.w3.org/2000/svg">
<g id="#000000ff">
<path fill="#000000" opacity="1.00" d=" M 0.00 0.00 L 117.00 0.00 L 117.00 140.00 L 0.00 140.00 L 0.00 0.00 M 30.44 10.50 C 16.69 13.24 5.40 25.89 5.01 40.01 C 4.99 60.00 5.00 80.00 5.01 99.99 C 5.41 115.99 19.98 130.15 36.01 130.01 C 51.68 129.98 67.36 130.02 83.03 129.99 C 98.65 129.55 112.56 115.66 112.99 100.04 C 113.01 80.03 113.01 60.01 112.99 40.00 C 112.58 24.34 98.63 10.43 82.98 10.01 C 67.65 9.97 52.33 10.03 37.00 9.98 C 34.81 9.99 32.59 10.03 30.44 10.50 Z" />
<path fill="#000000" opacity="1.00" d=" M 31.50 12.72 C 36.61 11.72 41.84 12.11 47.01 12.05 C 58.35 12.08 69.70 11.98 81.04 12.09 C 88.86 12.27 96.56 15.43 102.12 20.94 C 107.59 26.53 110.79 34.20 110.89 42.02 C 111.04 59.35 110.89 76.69 110.97 94.02 C 111.07 100.26 110.35 106.74 107.14 112.22 C 102.22 121.76 91.69 127.73 81.07 127.89 C 66.70 128.03 52.33 127.91 37.97 127.95 C 29.82 127.97 21.71 124.83 15.90 119.09 C 10.17 113.27 7.01 105.16 7.06 97.00 C 7.10 78.33 6.92 59.65 7.15 40.99 C 7.53 27.42 18.08 14.99 31.50 12.72 M 41.33 28.06 C 41.38 34.89 41.32 41.71 41.38 48.54 C 39.13 48.75 36.32 47.93 34.66 49.90 C 33.76 51.43 34.12 53.30 34.02 54.99 C 34.12 61.67 33.91 68.35 34.11 75.02 C 34.07 77.03 36.16 78.19 37.97 77.95 C 51.99 77.97 66.02 77.97 80.04 77.95 C 81.83 78.18 83.88 77.06 83.89 75.08 C 84.08 68.21 83.91 61.33 83.96 54.46 C 81.51 54.48 79.07 54.48 76.63 54.47 C 76.68 45.67 76.61 36.87 76.67 28.06 C 64.89 28.02 53.11 28.02 41.33 28.06 Z" />
<path fill="#000000" opacity="1.00" d=" M 44.28 30.91 C 54.09 30.90 63.90 30.90 73.71 30.91 C 73.77 37.76 73.58 44.62 73.83 51.47 C 67.40 51.55 60.97 51.53 54.54 51.49 C 54.57 49.55 54.61 47.61 54.66 45.67 C 51.18 45.65 47.70 45.66 44.22 45.61 C 44.34 40.71 44.27 35.81 44.28 30.91 M 47.23 33.87 C 47.21 34.60 47.18 36.04 47.16 36.76 C 55.05 36.84 62.94 36.83 70.84 36.77 C 70.82 36.05 70.80 34.61 70.78 33.89 C 62.93 33.84 55.08 33.87 47.23 33.87 M 47.16 39.79 C 47.16 40.51 47.16 41.95 47.16 42.67 C 55.05 42.73 62.95 42.74 70.84 42.67 C 70.84 41.95 70.84 40.51 70.84 39.79 C 62.95 39.76 55.05 39.76 47.16 39.79 M 57.38 45.67 C 57.42 46.37 57.51 47.78 57.56 48.48 C 61.98 48.74 66.41 48.53 70.84 48.55 C 70.85 47.84 70.87 46.40 70.87 45.69 C 66.37 45.62 61.88 45.63 57.38 45.67 Z" />
<path fill="#000000" opacity="1.00" d=" M 36.91 51.55 C 40.85 51.51 44.79 51.48 48.74 51.58 C 48.95 53.15 48.27 55.09 49.59 56.32 C 50.70 57.65 52.49 57.37 54.02 57.43 C 63.04 57.40 72.06 57.42 81.08 57.42 C 81.11 63.31 81.09 69.20 81.09 75.09 C 66.36 75.10 51.64 75.10 36.91 75.09 C 36.90 67.24 36.90 59.39 36.91 51.55 Z" />
</g>
<g id="#708cc8ff">
<path fill="#708cc8" opacity="1.00" d=" M 30.44 10.50 C 32.59 10.03 34.81 9.99 37.00 9.98 C 52.33 10.03 67.65 9.97 82.98 10.01 C 98.63 10.43 112.58 24.34 112.99 40.00 C 113.01 60.01 113.01 80.03 112.99 100.04 C 112.56 115.66 98.65 129.55 83.03 129.99 C 67.36 130.02 51.68 129.98 36.01 130.01 C 19.98 130.15 5.41 115.99 5.01 99.99 C 5.00 80.00 4.99 60.00 5.01 40.01 C 5.40 25.89 16.69 13.24 30.44 10.50 M 31.50 12.72 C 18.08 14.99 7.53 27.42 7.15 40.99 C 6.92 59.65 7.10 78.33 7.06 97.00 C 7.01 105.16 10.17 113.27 15.90 119.09 C 21.71 124.83 29.82 127.97 37.97 127.95 C 52.33 127.91 66.70 128.03 81.07 127.89 C 91.69 127.73 102.22 121.76 107.14 112.22 C 110.35 106.74 111.07 100.26 110.97 94.02 C 110.89 76.69 111.04 59.35 110.89 42.02 C 110.79 34.20 107.59 26.53 102.12 20.94 C 96.56 15.43 88.86 12.27 81.04 12.09 C 69.70 11.98 58.35 12.08 47.01 12.05 C 41.84 12.11 36.61 11.72 31.50 12.72 Z" />
</g>
<g id="#f8fcf8ff">
<path fill="#f8fcf8" opacity="1.00" d=" M 41.33 28.06 C 53.11 28.02 64.89 28.02 76.67 28.06 C 76.61 36.87 76.68 45.67 76.63 54.47 C 79.07 54.48 81.51 54.48 83.96 54.46 C 83.91 61.33 84.08 68.21 83.89 75.08 C 83.88 77.06 81.83 78.18 80.04 77.95 C 66.02 77.97 51.99 77.97 37.97 77.95 C 36.16 78.19 34.07 77.03 34.11 75.02 C 33.91 68.35 34.12 61.67 34.02 54.99 C 34.12 53.30 33.76 51.43 34.66 49.90 C 36.32 47.93 39.13 48.75 41.38 48.54 C 41.32 41.71 41.38 34.89 41.33 28.06 M 44.28 30.91 C 44.27 35.81 44.34 40.71 44.22 45.61 C 47.70 45.66 51.18 45.65 54.66 45.67 C 54.61 47.61 54.57 49.55 54.54 51.49 C 60.97 51.53 67.40 51.55 73.83 51.47 C 73.58 44.62 73.77 37.76 73.71 30.91 C 63.90 30.90 54.09 30.90 44.28 30.91 M 36.91 51.55 C 36.90 59.39 36.90 67.24 36.91 75.09 C 51.64 75.10 66.36 75.10 81.09 75.09 C 81.09 69.20 81.11 63.31 81.08 57.42 C 72.06 57.42 63.04 57.40 54.02 57.43 C 52.49 57.37 50.70 57.65 49.59 56.32 C 48.27 55.09 48.95 53.15 48.74 51.58 C 44.79 51.48 40.85 51.51 36.91 51.55 Z" />
<path fill="#f8fcf8" opacity="1.00" d=" M 47.23 33.87 C 55.08 33.87 62.93 33.84 70.78 33.89 C 70.80 34.61 70.82 36.05 70.84 36.77 C 62.94 36.83 55.05 36.84 47.16 36.76 C 47.18 36.04 47.21 34.60 47.23 33.87 Z" />
<path fill="#f8fcf8" opacity="1.00" d=" M 47.16 39.79 C 55.05 39.76 62.95 39.76 70.84 39.79 C 70.84 40.51 70.84 41.95 70.84 42.67 C 62.95 42.74 55.05 42.73 47.16 42.67 C 47.16 41.95 47.16 40.51 47.16 39.79 Z" />
<path fill="#f8fcf8" opacity="1.00" d=" M 57.38 45.67 C 61.88 45.63 66.37 45.62 70.87 45.69 C 70.87 46.40 70.85 47.84 70.84 48.55 C 66.41 48.53 61.98 48.74 57.56 48.48 C 57.51 47.78 57.42 46.37 57.38 45.67 Z" />
</g>
</svg>
