<?xml version="1.0" encoding="UTF-8" ?>
<!DOCTYPE svg PUBLIC "-//W3C//DTD SVG 1.1//EN" "http://www.w3.org/Graphics/SVG/1.1/DTD/svg11.dtd">
<svg width="200pt" height="200pt" viewBox="0 0 200 200" version="1.1" xmlns="http://www.w3.org/2000/svg">
<g id="#000000ff">
<path fill="#000000" opacity="1.00" d=" M 0.00 0.00 L 200.00 0.00 L 200.00 200.00 L 0.00 200.00 L 0.00 0.00 M 50.21 58.22 C 38.61 69.17 32.03 85.13 32.33 101.07 C 32.52 115.63 38.33 130.08 48.51 140.52 C 58.71 151.13 73.26 157.48 88.01 157.44 C 104.66 157.56 121.09 149.54 131.36 136.45 C 140.21 125.45 144.54 111.18 143.99 97.12 C 143.17 97.32 141.52 97.71 140.70 97.91 C 141.48 97.62 143.03 97.05 143.81 96.76 C 143.76 92.54 142.73 88.42 141.82 84.33 C 128.01 88.39 114.21 92.48 100.41 96.56 C 101.56 100.69 102.72 104.82 103.88 108.95 C 110.26 107.14 116.55 105.06 122.98 103.46 C 122.67 103.77 122.05 104.40 121.73 104.71 C 120.72 111.55 117.92 118.15 113.33 123.35 C 104.35 133.94 88.46 137.92 75.65 132.43 C 62.06 127.08 53.24 112.36 54.40 97.89 C 55.09 84.68 64.00 72.23 76.47 67.68 C 82.76 65.18 89.74 65.07 96.31 66.44 C 99.93 59.74 103.55 53.05 107.13 46.33 C 87.90 39.12 64.93 43.88 50.21 58.22 M 157.32 140.45 C 151.65 142.07 150.35 150.45 155.05 153.89 C 159.28 157.50 166.54 154.48 167.05 148.98 C 168.17 143.66 162.48 138.47 157.32 140.45 Z" />
</g>
<g id="#708cc8ff">
<path fill="#708cc8" opacity="1.00" d=" M 50.21 58.22 C 64.93 43.88 87.90 39.12 107.13 46.33 C 103.55 53.05 99.93 59.74 96.31 66.44 C 89.74 65.07 82.76 65.18 76.47 67.68 C 64.00 72.23 55.09 84.68 54.40 97.89 C 53.24 112.36 62.06 127.08 75.65 132.43 C 88.46 137.92 104.35 133.94 113.33 123.35 C 117.92 118.15 120.72 111.55 121.73 104.71 C 122.05 104.40 122.67 103.77 122.98 103.46 C 116.55 105.06 110.26 107.14 103.88 108.95 C 102.72 104.82 101.56 100.69 100.41 96.56 C 114.21 92.48 128.01 88.39 141.82 84.33 C 142.73 88.42 143.76 92.54 143.81 96.76 C 143.03 97.05 141.48 97.62 140.70 97.91 C 141.52 97.71 143.17 97.32 143.99 97.12 C 144.54 111.18 140.21 125.45 131.36 136.45 C 121.09 149.54 104.66 157.56 88.01 157.44 C 73.26 157.48 58.71 151.13 48.51 140.52 C 38.33 130.08 32.52 115.63 32.33 101.07 C 32.03 85.13 38.61 69.17 50.21 58.22 M 49.33 120.29 C 50.43 116.29 50.14 112.15 49.59 108.10 C 48.77 112.12 48.78 116.23 49.33 120.29 M 50.25 122.61 C 49.21 123.18 49.33 125.61 50.75 125.43 C 51.78 124.85 51.67 122.43 50.25 122.61 Z" />
<path fill="#708cc8" opacity="1.00" d=" M 157.32 140.45 C 162.48 138.47 168.17 143.66 167.05 148.98 C 166.54 154.48 159.28 157.50 155.05 153.89 C 150.35 150.45 151.65 142.07 157.32 140.45 Z" />
</g>
<g id="#5d76a3ff">
<path fill="#5d76a3" opacity="1.00" d=" M 49.33 120.29 C 48.78 116.23 48.77 112.12 49.59 108.10 C 50.14 112.15 50.43 116.29 49.33 120.29 Z" />
</g>
<g id="#5c75a2ff">
<path fill="#5c75a2" opacity="1.00" d=" M 50.25 122.61 C 51.67 122.43 51.78 124.85 50.75 125.43 C 49.33 125.61 49.21 123.18 50.25 122.61 Z" />
</g>
</svg>
