<?xml version="1.0" encoding="UTF-8" ?>
<!DOCTYPE svg PUBLIC "-//W3C//DTD SVG 1.1//EN" "http://www.w3.org/Graphics/SVG/1.1/DTD/svg11.dtd">
<svg width="117px" height="140px" viewBox="0 0 117 140" version="1.1" xmlns="http://www.w3.org/2000/svg">
<g id="#384450ff">
<path fill="#384450" opacity="1.00" d=" M 0.00 0.00 L 117.00 0.00 L 117.00 140.00 L 0.00 140.00 L 0.00 0.00 M 41.16 53.20 C 38.67 54.50 38.66 58.51 41.17 59.79 C 43.09 61.34 45.92 60.15 46.85 58.05 C 48.68 54.87 44.02 50.77 41.16 53.20 M 56.43 53.55 C 54.79 54.86 54.51 57.51 56.03 59.02 C 57.73 61.56 61.85 60.54 62.74 57.77 C 64.23 54.26 59.08 50.56 56.43 53.55 M 72.39 53.40 C 67.82 56.35 73.83 63.41 77.46 59.28 C 81.26 56.32 75.87 50.04 72.39 53.40 Z" />
</g>
<g id="#f8fcf8ff">
<path fill="#f8fcf8" opacity="1.00" d=" M 41.16 53.20 C 44.02 50.77 48.68 54.87 46.85 58.05 C 45.92 60.15 43.09 61.34 41.17 59.79 C 38.66 58.51 38.67 54.50 41.16 53.20 Z" />
<path fill="#f8fcf8" opacity="1.00" d=" M 56.43 53.55 C 59.08 50.56 64.23 54.26 62.74 57.77 C 61.85 60.54 57.73 61.56 56.03 59.02 C 54.51 57.51 54.79 54.86 56.43 53.55 Z" />
<path fill="#f8fcf8" opacity="1.00" d=" M 72.39 53.40 C 75.87 50.04 81.26 56.32 77.46 59.28 C 73.83 63.41 67.82 56.35 72.39 53.40 Z" />
</g>
</svg>
