<?xml version="1.0" encoding="UTF-8" ?>
<!DOCTYPE svg PUBLIC "-//W3C//DTD SVG 1.1//EN" "http://www.w3.org/Graphics/SVG/1.1/DTD/svg11.dtd">
<svg width="117px" height="140px" viewBox="0 0 117 140" version="1.1" xmlns="http://www.w3.org/2000/svg">
<g id="#000000ff">
<path fill="#000000" opacity="1.00" d=" M 0.00 0.00 L 117.00 0.00 L 117.00 140.00 L 0.00 140.00 L 0.00 0.00 M 33.22 10.25 C 17.96 11.76 5.21 25.62 5.04 40.96 C 4.97 60.31 4.98 79.65 5.04 99.00 C 5.17 114.97 18.99 129.26 34.95 129.90 C 50.30 130.11 65.66 129.97 81.02 129.98 C 92.30 130.09 103.31 123.64 108.79 113.80 C 111.75 108.75 113.09 102.87 113.00 97.04 C 112.99 78.68 113.03 60.32 112.98 41.96 C 113.08 30.92 106.91 20.14 97.40 14.56 C 91.90 11.19 85.38 9.78 78.97 9.99 C 63.72 10.18 48.45 9.67 33.22 10.25 Z" />
<path fill="#000000" opacity="1.00" d=" M 33.21 12.30 C 49.15 11.74 65.12 12.18 81.07 12.07 C 92.06 11.94 102.74 18.52 107.64 28.34 C 110.10 32.82 111.02 37.95 110.95 43.02 C 110.91 61.70 111.03 80.39 110.89 99.07 C 110.82 114.27 97.28 127.79 82.09 127.88 C 66.70 128.00 51.30 127.97 35.91 127.90 C 20.70 127.77 7.18 114.25 7.10 99.04 C 7.02 79.67 7.02 60.30 7.10 40.93 C 7.24 26.69 19.08 13.80 33.21 12.30 M 48.24 31.44 C 49.56 34.86 50.90 38.27 52.21 41.69 C 56.45 39.48 61.54 39.47 65.79 41.69 C 67.10 38.27 68.44 34.85 69.76 31.43 C 63.02 28.22 54.98 28.19 48.24 31.44 M 55.35 47.22 C 50.45 49.56 50.30 57.32 55.09 59.85 C 59.56 62.81 66.42 59.44 66.46 53.98 C 67.01 48.37 60.08 44.32 55.35 47.22 M 73.08 55.12 C 72.84 59.84 70.29 64.16 66.25 66.61 C 68.63 69.44 70.97 72.30 73.37 75.11 C 79.56 71.10 83.56 64.22 84.13 56.88 C 80.45 56.28 76.76 55.72 73.08 55.12 M 33.87 56.88 C 34.43 64.22 38.45 71.09 44.62 75.11 C 47.03 72.30 49.37 69.43 51.76 66.60 C 47.73 64.16 45.14 59.86 44.91 55.13 C 41.23 55.72 37.54 56.28 33.87 56.88 Z" />
</g>
<g id="#788cc0ff">
<path fill="#788cc0" opacity="1.00" d=" M 33.22 10.25 C 48.45 9.67 63.72 10.18 78.97 9.99 C 85.38 9.78 91.90 11.19 97.40 14.56 C 106.91 20.14 113.08 30.92 112.98 41.96 C 113.03 60.32 112.99 78.68 113.00 97.04 C 113.09 102.87 111.75 108.75 108.79 113.80 C 103.31 123.64 92.30 130.09 81.02 129.98 C 65.66 129.97 50.30 130.11 34.95 129.90 C 18.99 129.26 5.17 114.97 5.04 99.00 C 4.98 79.65 4.97 60.31 5.04 40.96 C 5.21 25.62 17.96 11.76 33.22 10.25 M 33.21 12.30 C 19.08 13.80 7.24 26.69 7.10 40.93 C 7.02 60.30 7.02 79.67 7.10 99.04 C 7.18 114.25 20.70 127.77 35.91 127.90 C 51.30 127.97 66.70 128.00 82.09 127.88 C 97.28 127.79 110.82 114.27 110.89 99.07 C 111.03 80.39 110.91 61.70 110.95 43.02 C 111.02 37.95 110.10 32.82 107.64 28.34 C 102.74 18.52 92.06 11.94 81.07 12.07 C 65.12 12.18 49.15 11.74 33.21 12.30 Z" />
</g>
<g id="#f8fcf8ff">
<path fill="#f8fcf8" opacity="1.00" d=" M 48.24 31.44 C 54.98 28.19 63.02 28.22 69.76 31.43 C 68.44 34.85 67.10 38.27 65.79 41.69 C 61.54 39.47 56.45 39.48 52.21 41.69 C 50.90 38.27 49.56 34.86 48.24 31.44 Z" />
<path fill="#f8fcf8" opacity="1.00" d=" M 55.35 47.22 C 60.08 44.32 67.01 48.37 66.46 53.98 C 66.42 59.44 59.56 62.81 55.09 59.85 C 50.30 57.32 50.45 49.56 55.35 47.22 Z" />
<path fill="#f8fcf8" opacity="1.00" d=" M 73.08 55.12 C 76.76 55.72 80.45 56.28 84.13 56.88 C 83.56 64.22 79.56 71.10 73.37 75.11 C 70.97 72.30 68.63 69.44 66.25 66.61 C 70.29 64.16 72.84 59.84 73.08 55.12 Z" />
<path fill="#f8fcf8" opacity="1.00" d=" M 33.87 56.88 C 37.54 56.28 41.23 55.72 44.91 55.13 C 45.14 59.86 47.73 64.16 51.76 66.60 C 49.37 69.43 47.03 72.30 44.62 75.11 C 38.45 71.09 34.43 64.22 33.87 56.88 Z" />
</g>
</svg>
