<?xml version="1.0" encoding="UTF-8" ?>
<!DOCTYPE svg PUBLIC "-//W3C//DTD SVG 1.1//EN" "http://www.w3.org/Graphics/SVG/1.1/DTD/svg11.dtd">
<svg width="150pt" height="80pt" viewBox="0 0 150 80" version="1.1" xmlns="http://www.w3.org/2000/svg">
<g id="#000000ff">
<path fill="#000000" opacity="1.00" d=" M 0.00 0.00 L 150.00 0.00 L 150.00 80.00 L 0.00 80.00 L 0.00 0.00 M 6.29 5.49 C 2.81 6.69 0.69 10.37 0.99 13.98 C 1.00 29.33 1.01 44.69 0.99 60.04 C 1.02 63.04 0.77 66.07 1.28 69.04 C 2.20 72.85 6.12 75.35 9.96 75.01 C 53.31 74.99 96.66 75.01 140.01 75.00 C 144.54 75.49 149.07 71.79 148.94 67.13 C 149.11 50.10 148.91 33.07 149.04 16.04 C 148.96 13.92 149.18 11.67 148.27 9.70 C 146.90 6.55 143.45 4.76 140.09 4.99 C 98.73 5.01 57.37 5.00 16.01 4.99 C 12.77 5.07 9.44 4.63 6.29 5.49 Z" />
<path fill="#000000" opacity="1.00" d=" M 7.19 7.32 C 8.45 7.06 9.72 6.94 11.00 6.97 C 54.00 7.03 96.99 6.99 139.98 6.99 C 143.49 6.57 147.07 9.26 146.95 12.93 C 147.03 30.99 147.05 49.07 146.94 67.13 C 147.04 70.75 143.49 73.43 140.02 73.00 C 96.33 72.97 52.63 73.06 8.94 72.96 C 5.75 73.06 2.97 70.23 3.05 67.05 C 2.93 49.38 3.04 31.71 2.99 14.04 C 2.76 11.19 4.26 8.06 7.19 7.32 M 44.00 28.98 C 44.09 36.32 43.83 43.67 44.10 51.01 C 45.36 52.73 49.79 52.65 49.69 49.93 C 49.79 42.97 49.62 36.00 49.75 29.03 C 47.83 29.03 45.91 29.01 44.00 28.98 M 53.25 29.03 C 53.37 35.99 53.22 42.96 53.31 49.92 C 53.18 52.65 57.72 52.78 58.89 50.96 C 59.18 43.64 58.90 36.31 59.00 28.98 C 57.09 29.01 55.17 29.02 53.25 29.03 Z" />
</g>
<g id="#6e8ac5ff">
<path fill="#6e8ac5" opacity="1.00" d=" M 6.29 5.49 C 9.44 4.63 12.77 5.07 16.01 4.99 C 57.37 5.00 98.73 5.01 140.09 4.99 C 143.45 4.76 146.90 6.55 148.27 9.70 C 149.18 11.67 148.96 13.92 149.04 16.04 C 148.91 33.07 149.11 50.10 148.94 67.13 C 149.07 71.79 144.54 75.49 140.01 75.00 C 96.66 75.01 53.31 74.99 9.96 75.01 C 6.12 75.35 2.20 72.85 1.28 69.04 C 0.77 66.07 1.02 63.04 0.99 60.04 C 1.01 44.69 1.00 29.33 0.99 13.98 C 0.69 10.37 2.81 6.69 6.29 5.49 M 7.19 7.32 C 4.26 8.06 2.76 11.19 2.99 14.04 C 3.04 31.71 2.93 49.38 3.05 67.05 C 2.97 70.23 5.75 73.06 8.94 72.96 C 52.63 73.06 96.33 72.97 140.02 73.00 C 143.49 73.43 147.04 70.75 146.94 67.13 C 147.05 49.07 147.03 30.99 146.95 12.93 C 147.07 9.26 143.49 6.57 139.98 6.99 C 96.99 6.99 54.00 7.03 11.00 6.97 C 9.72 6.94 8.45 7.06 7.19 7.32 Z" />
</g>
<g id="#f8fcf8ff">
<path fill="#f8fcf8" opacity="1.00" d=" M 44.00 28.98 C 45.91 29.01 47.83 29.03 49.75 29.03 C 49.62 36.00 49.79 42.97 49.69 49.93 C 49.79 52.65 45.36 52.73 44.10 51.01 C 43.83 43.67 44.09 36.32 44.00 28.98 Z" />
<path fill="#f8fcf8" opacity="1.00" d=" M 53.25 29.03 C 55.17 29.02 57.09 29.01 59.00 28.98 C 58.90 36.31 59.18 43.64 58.89 50.96 C 57.72 52.78 53.18 52.65 53.31 49.92 C 53.22 42.96 53.37 35.99 53.25 29.03 Z" />
</g>
</svg>
