<?xml version="1.0" encoding="UTF-8" ?>
<!DOCTYPE svg PUBLIC "-//W3C//DTD SVG 1.1//EN" "http://www.w3.org/Graphics/SVG/1.1/DTD/svg11.dtd">
<svg width="117px" height="140px" viewBox="0 0 117 140" version="1.1" xmlns="http://www.w3.org/2000/svg">
<g id="#000000ff">
<path fill="#000000" opacity="1.00" d=" M 0.00 0.00 L 117.00 0.00 L 117.00 140.00 L 0.00 140.00 L 0.00 0.00 M 33.14 10.25 C 17.92 11.81 5.23 25.64 5.04 40.95 C 4.95 59.97 5.02 79.00 5.00 98.03 C 4.97 106.65 8.65 115.17 14.91 121.10 C 21.00 127.02 29.51 130.22 37.99 130.01 C 52.99 129.92 68.01 130.14 83.01 129.90 C 98.97 129.29 112.82 115.00 112.95 99.04 C 113.05 80.04 112.99 61.04 112.98 42.04 C 113.18 29.18 104.72 16.83 92.73 12.25 C 85.20 9.07 76.90 10.20 68.96 10.00 C 57.03 10.16 45.07 9.68 33.14 10.25 Z" />
<path fill="#000000" opacity="1.00" d=" M 33.28 12.30 C 49.52 11.77 65.79 12.14 82.04 12.10 C 97.23 12.20 110.79 25.69 110.89 40.89 C 110.99 60.27 110.99 79.66 110.89 99.05 C 110.83 114.29 97.24 127.83 82.01 127.89 C 66.68 128.00 51.34 127.97 36.02 127.91 C 20.79 127.83 7.20 114.32 7.10 99.08 C 7.02 79.70 7.02 60.31 7.10 40.93 C 7.23 26.67 19.12 13.75 33.28 12.30 M 60.35 27.14 C 56.38 31.08 52.44 35.04 48.49 38.99 C 50.08 41.13 52.48 41.59 55.00 41.27 C 55.00 43.29 55.00 45.31 55.00 47.33 C 53.03 47.32 51.06 47.33 49.09 47.33 C 49.05 45.56 48.77 43.82 48.11 42.18 C 47.71 41.86 46.92 41.23 46.52 40.91 C 42.63 44.80 38.85 48.80 34.79 52.51 C 38.65 56.62 42.72 60.53 46.70 64.51 C 47.47 63.64 48.24 62.77 49.01 61.89 C 49.01 60.59 49.00 59.30 49.00 58.00 C 51.00 58.00 53.00 58.00 55.00 58.00 C 55.00 60.00 55.00 62.01 55.00 64.01 C 52.48 63.66 50.11 64.21 48.45 66.25 C 52.43 70.27 56.37 74.34 60.49 78.21 C 64.24 74.10 68.31 70.30 72.21 66.33 C 70.59 64.41 68.13 63.82 65.71 63.92 C 65.71 61.95 65.71 59.98 65.71 58.00 C 67.71 58.00 69.72 58.00 71.72 58.00 C 71.38 60.53 71.88 62.92 74.02 64.51 C 77.97 60.56 81.93 56.61 85.88 52.65 C 81.95 48.73 78.04 44.80 74.11 40.89 C 73.71 41.22 72.91 41.90 72.52 42.23 C 71.96 43.88 71.68 45.60 71.63 47.34 C 69.65 47.33 67.68 47.32 65.70 47.32 C 65.71 45.33 65.72 43.34 65.74 41.35 C 67.44 41.21 69.17 41.06 70.79 40.46 C 71.12 40.07 71.77 39.30 72.10 38.92 C 68.20 34.97 64.29 31.04 60.35 27.14 Z" />
<path fill="#000000" opacity="1.00" d=" M 52.76 38.65 C 55.19 35.98 57.81 33.48 60.36 30.93 C 62.90 33.51 65.48 36.04 68.04 38.60 C 66.36 38.61 64.68 38.61 63.00 38.61 C 63.00 42.41 63.00 46.20 63.00 50.00 C 66.81 50.00 70.61 50.00 74.42 50.00 C 74.41 48.33 74.41 46.67 74.40 45.00 C 76.98 47.55 79.55 50.09 82.09 52.67 C 79.53 55.19 77.08 57.82 74.39 60.20 C 74.39 58.58 74.40 56.97 74.42 55.35 C 70.62 55.31 66.81 55.33 63.01 55.32 C 62.99 59.13 63.00 62.93 63.01 66.74 C 64.67 66.74 66.34 66.74 68.00 66.75 C 65.47 69.31 62.91 71.84 60.37 74.40 C 57.81 71.87 55.26 69.34 52.75 66.76 C 54.38 66.74 56.01 66.73 57.65 66.73 C 57.65 62.93 57.65 59.13 57.64 55.33 C 53.86 55.32 50.08 55.33 46.30 55.32 C 46.29 56.98 46.28 58.64 46.27 60.30 C 43.70 57.76 41.14 55.21 38.61 52.64 C 41.19 50.11 43.73 47.54 46.29 44.99 C 46.29 46.66 46.29 48.32 46.28 49.99 C 50.07 50.00 53.86 50.01 57.65 49.99 C 57.64 46.19 57.66 42.39 57.63 38.60 C 56.01 38.62 54.38 38.63 52.76 38.65 Z" />
</g>
<g id="#788cc0ff">
<path fill="#788cc0" opacity="1.00" d=" M 33.14 10.25 C 45.07 9.68 57.03 10.16 68.96 10.00 C 76.90 10.20 85.20 9.07 92.73 12.25 C 104.72 16.83 113.18 29.18 112.98 42.04 C 112.99 61.04 113.05 80.04 112.95 99.04 C 112.82 115.00 98.97 129.29 83.01 129.90 C 68.01 130.14 52.99 129.92 37.99 130.01 C 29.51 130.22 21.00 127.02 14.91 121.10 C 8.65 115.17 4.97 106.65 5.00 98.03 C 5.02 79.00 4.95 59.97 5.04 40.95 C 5.23 25.64 17.92 11.81 33.14 10.25 M 33.28 12.30 C 19.12 13.75 7.23 26.67 7.10 40.93 C 7.02 60.31 7.02 79.70 7.10 99.08 C 7.20 114.32 20.79 127.83 36.02 127.91 C 51.34 127.97 66.68 128.00 82.01 127.89 C 97.24 127.83 110.83 114.29 110.89 99.05 C 110.99 79.66 110.99 60.27 110.89 40.89 C 110.79 25.69 97.23 12.20 82.04 12.10 C 65.79 12.14 49.52 11.77 33.28 12.30 Z" />
</g>
<g id="#f8fcf8ff">
<path fill="#f8fcf8" opacity="1.00" d=" M 60.35 27.14 C 64.29 31.04 68.20 34.97 72.10 38.92 C 71.77 39.30 71.12 40.07 70.79 40.46 C 69.17 41.06 67.44 41.21 65.74 41.35 C 65.72 43.34 65.71 45.33 65.70 47.32 C 67.68 47.32 69.65 47.33 71.63 47.34 C 71.68 45.60 71.96 43.88 72.52 42.23 C 72.91 41.90 73.71 41.22 74.11 40.89 C 78.04 44.80 81.95 48.73 85.88 52.65 C 81.93 56.61 77.97 60.56 74.02 64.51 C 71.88 62.92 71.38 60.53 71.72 58.00 C 69.72 58.00 67.71 58.00 65.71 58.00 C 65.71 59.98 65.71 61.95 65.71 63.92 C 68.13 63.82 70.59 64.41 72.21 66.33 C 68.31 70.30 64.24 74.10 60.49 78.21 C 56.37 74.34 52.43 70.27 48.45 66.25 C 50.11 64.21 52.48 63.66 55.00 64.01 C 55.00 62.01 55.00 60.00 55.00 58.00 C 53.00 58.00 51.00 58.00 49.00 58.00 C 49.00 59.30 49.01 60.59 49.01 61.89 C 48.24 62.77 47.47 63.64 46.70 64.51 C 42.72 60.53 38.65 56.62 34.79 52.51 C 38.85 48.80 42.63 44.80 46.52 40.91 C 46.92 41.23 47.71 41.86 48.11 42.18 C 48.77 43.82 49.05 45.56 49.09 47.33 C 51.06 47.33 53.03 47.32 55.00 47.33 C 55.00 45.31 55.00 43.29 55.00 41.27 C 52.48 41.59 50.08 41.13 48.49 38.99 C 52.44 35.04 56.38 31.08 60.35 27.14 M 52.76 38.65 C 54.38 38.63 56.01 38.62 57.63 38.60 C 57.66 42.39 57.64 46.19 57.65 49.99 C 53.86 50.01 50.07 50.00 46.28 49.99 C 46.29 48.32 46.29 46.66 46.29 44.99 C 43.73 47.54 41.19 50.11 38.61 52.64 C 41.14 55.21 43.70 57.76 46.27 60.30 C 46.28 58.64 46.29 56.98 46.30 55.32 C 50.08 55.33 53.86 55.32 57.64 55.33 C 57.65 59.13 57.65 62.93 57.65 66.73 C 56.01 66.73 54.38 66.74 52.75 66.76 C 55.26 69.34 57.81 71.87 60.37 74.40 C 62.91 71.84 65.47 69.31 68.00 66.75 C 66.34 66.74 64.67 66.74 63.01 66.74 C 63.00 62.93 62.99 59.13 63.01 55.32 C 66.81 55.33 70.62 55.31 74.42 55.35 C 74.40 56.97 74.39 58.58 74.39 60.20 C 77.08 57.82 79.53 55.19 82.09 52.67 C 79.55 50.09 76.98 47.55 74.40 45.00 C 74.41 46.67 74.41 48.33 74.42 50.00 C 70.61 50.00 66.81 50.00 63.00 50.00 C 63.00 46.20 63.00 42.41 63.00 38.61 C 64.68 38.61 66.36 38.61 68.04 38.60 C 65.48 36.04 62.90 33.51 60.36 30.93 C 57.81 33.48 55.19 35.98 52.76 38.65 Z" />
</g>
</svg>
