<?xml version="1.0" encoding="UTF-8" ?>
<!DOCTYPE svg PUBLIC "-//W3C//DTD SVG 1.1//EN" "http://www.w3.org/Graphics/SVG/1.1/DTD/svg11.dtd">
<svg width="117px" height="140px" viewBox="0 0 117 140" version="1.1" xmlns="http://www.w3.org/2000/svg">
<g id="#000000ff">
<path fill="#000000" opacity="1.00" d=" M 0.00 0.00 L 117.00 0.00 L 117.00 140.00 L 0.00 140.00 L 0.00 0.00 M 33.13 10.22 C 17.90 11.80 5.19 25.62 5.01 40.95 C 5.02 60.65 4.93 80.36 5.06 100.06 C 5.72 116.00 19.97 129.82 35.93 129.98 C 51.63 129.98 67.34 130.08 83.04 129.93 C 98.64 129.30 112.30 115.63 112.93 100.03 C 113.10 80.70 112.94 61.36 113.01 42.02 C 113.08 33.37 109.37 24.80 103.09 18.86 C 96.99 12.94 88.44 9.73 79.96 9.98 C 64.35 10.17 48.72 9.69 33.13 10.22 Z" />
<path fill="#000000" opacity="1.00" d=" M 30.51 12.71 C 33.95 11.94 37.49 11.98 40.98 12.00 C 55.01 12.06 69.03 11.88 83.05 12.10 C 97.92 12.76 110.86 26.10 110.96 41.00 C 111.03 60.33 111.03 79.66 110.96 98.98 C 110.87 114.26 97.29 127.84 82.01 127.95 C 66.34 128.01 50.67 128.08 35.00 127.91 C 20.12 127.27 7.18 113.94 7.04 99.04 C 6.98 79.68 6.98 60.31 7.03 40.94 C 7.23 27.63 17.51 15.42 30.51 12.71 M 39.24 41.20 C 36.50 43.10 33.88 45.20 31.33 47.35 C 29.26 48.93 28.97 52.30 30.83 54.16 C 33.24 56.41 35.92 58.34 38.54 60.33 C 40.63 62.28 43.54 61.12 46.00 60.88 C 46.00 58.25 46.00 55.63 46.00 53.00 C 48.00 53.00 50.00 53.00 52.00 52.99 C 52.00 52.25 52.00 50.75 52.00 50.01 C 50.00 50.00 48.00 50.00 46.00 50.00 C 46.00 47.04 46.00 44.08 46.00 41.12 C 43.79 40.98 41.28 39.84 39.24 41.20 M 70.99 41.06 C 71.00 44.04 71.00 47.02 71.00 50.00 C 68.67 50.00 66.33 50.00 64.00 50.00 C 64.00 50.75 64.00 52.25 64.00 53.00 C 66.33 53.00 68.66 53.00 71.00 53.00 C 71.00 55.65 71.00 58.29 70.99 60.94 C 72.88 61.11 75.04 62.15 76.75 60.80 C 79.49 58.90 82.12 56.81 84.68 54.65 C 87.03 52.90 86.95 49.04 84.62 47.30 C 82.06 45.16 79.46 43.06 76.71 41.17 C 75.01 39.85 72.87 40.91 70.99 41.06 M 53.00 50.00 C 53.00 50.75 53.00 52.25 53.00 53.00 C 53.75 53.00 55.25 53.00 56.00 53.00 C 56.00 52.25 56.00 50.75 56.00 50.00 C 55.25 50.00 53.75 50.00 53.00 50.00 M 57.00 50.00 C 57.00 50.75 57.00 52.25 57.00 53.00 C 59.00 53.00 61.00 53.00 63.00 53.00 C 63.00 52.25 63.00 50.75 63.00 50.00 C 61.00 50.00 59.00 50.00 57.00 50.00 Z" />
<path fill="#000000" opacity="1.00" d=" M 33.00 51.00 C 35.99 48.67 38.98 46.35 41.97 44.02 C 42.02 48.67 42.03 53.33 41.95 57.99 C 38.98 55.64 35.99 53.32 33.00 51.00 Z" />
<path fill="#000000" opacity="1.00" d=" M 75.01 44.84 C 77.69 46.86 80.35 48.92 82.99 51.00 C 80.34 53.08 77.68 55.14 75.02 57.20 C 74.99 53.08 74.99 48.96 75.01 44.84 Z" />
</g>
<g id="#7185b5ff">
<path fill="#7185b5" opacity="1.00" d=" M 33.13 10.22 C 48.72 9.69 64.35 10.17 79.96 9.98 C 88.44 9.73 96.99 12.94 103.09 18.86 C 109.37 24.80 113.08 33.37 113.01 42.02 C 112.94 61.36 113.10 80.70 112.93 100.03 C 112.30 115.63 98.64 129.30 83.04 129.93 C 67.34 130.08 51.63 129.98 35.93 129.98 C 19.97 129.82 5.72 116.00 5.06 100.06 C 4.93 80.36 5.02 60.65 5.01 40.95 C 5.19 25.62 17.90 11.80 33.13 10.22 M 30.51 12.71 C 17.51 15.42 7.23 27.63 7.03 40.94 C 6.98 60.31 6.98 79.68 7.04 99.04 C 7.18 113.94 20.12 127.27 35.00 127.91 C 50.67 128.08 66.34 128.01 82.01 127.95 C 97.29 127.84 110.87 114.26 110.96 98.98 C 111.03 79.66 111.03 60.33 110.96 41.00 C 110.86 26.10 97.92 12.76 83.05 12.10 C 69.03 11.88 55.01 12.06 40.98 12.00 C 37.49 11.98 33.95 11.94 30.51 12.71 Z" />
</g>
<g id="#10ec50ff">
<path fill="#10ec50" opacity="1.00" d=" M 39.24 41.20 C 41.28 39.84 43.79 40.98 46.00 41.12 C 46.00 44.08 46.00 47.04 46.00 50.00 C 48.00 50.00 50.00 50.00 52.00 50.01 C 52.00 50.75 52.00 52.25 52.00 52.99 C 50.00 53.00 48.00 53.00 46.00 53.00 C 46.00 55.63 46.00 58.25 46.00 60.88 C 43.54 61.12 40.63 62.28 38.54 60.33 C 35.92 58.34 33.24 56.41 30.83 54.16 C 28.97 52.30 29.26 48.93 31.33 47.35 C 33.88 45.20 36.50 43.10 39.24 41.20 M 33.00 51.00 C 35.99 53.32 38.98 55.64 41.95 57.99 C 42.03 53.33 42.02 48.67 41.97 44.02 C 38.98 46.35 35.99 48.67 33.00 51.00 Z" />
<path fill="#10ec50" opacity="1.00" d=" M 70.99 41.06 C 72.87 40.91 75.01 39.85 76.71 41.17 C 79.46 43.06 82.06 45.16 84.62 47.30 C 86.95 49.04 87.03 52.90 84.68 54.65 C 82.12 56.81 79.49 58.90 76.75 60.80 C 75.04 62.15 72.88 61.11 70.99 60.94 C 71.00 58.29 71.00 55.65 71.00 53.00 C 68.66 53.00 66.33 53.00 64.00 53.00 C 64.00 52.25 64.00 50.75 64.00 50.00 C 66.33 50.00 68.67 50.00 71.00 50.00 C 71.00 47.02 71.00 44.04 70.99 41.06 M 75.01 44.84 C 74.99 48.96 74.99 53.08 75.02 57.20 C 77.68 55.14 80.34 53.08 82.99 51.00 C 80.35 48.92 77.69 46.86 75.01 44.84 Z" />
<path fill="#10ec50" opacity="1.00" d=" M 53.00 50.00 C 53.75 50.00 55.25 50.00 56.00 50.00 C 56.00 50.75 56.00 52.25 56.00 53.00 C 55.25 53.00 53.75 53.00 53.00 53.00 C 53.00 52.25 53.00 50.75 53.00 50.00 Z" />
<path fill="#10ec50" opacity="1.00" d=" M 57.00 50.00 C 59.00 50.00 61.00 50.00 63.00 50.00 C 63.00 50.75 63.00 52.25 63.00 53.00 C 61.00 53.00 59.00 53.00 57.00 53.00 C 57.00 52.25 57.00 50.75 57.00 50.00 Z" />
</g>
</svg>
