<?xml version="1.0" encoding="UTF-8" ?>
<!DOCTYPE svg PUBLIC "-//W3C//DTD SVG 1.1//EN" "http://www.w3.org/Graphics/SVG/1.1/DTD/svg11.dtd">
<svg width="117px" height="140px" viewBox="0 0 117 140" version="1.1" xmlns="http://www.w3.org/2000/svg">
<g id="#384450ff">
<path fill="#384450" opacity="1.00" d=" M 0.00 0.00 L 117.00 0.00 L 117.00 140.00 L 0.00 140.00 L 0.00 0.00 M 41.19 53.18 C 38.66 54.48 38.65 58.52 41.19 59.80 C 43.11 61.34 45.87 60.15 46.82 58.09 C 48.73 54.93 44.07 50.79 41.19 53.18 M 56.44 53.54 C 54.56 55.00 54.59 58.03 56.47 59.49 C 58.65 61.79 62.63 59.87 62.95 56.93 C 63.44 53.62 58.84 50.88 56.44 53.54 M 72.40 53.40 C 70.25 54.82 70.22 58.17 72.40 59.59 C 74.54 61.74 78.55 59.70 78.69 56.87 C 79.20 53.71 74.76 51.02 72.40 53.40 Z" />
</g>
<g id="#f8fcf8ff">
<path fill="#f8fcf8" opacity="1.00" d=" M 41.19 53.18 C 44.07 50.79 48.73 54.93 46.82 58.09 C 45.87 60.15 43.11 61.34 41.19 59.80 C 38.65 58.52 38.66 54.48 41.19 53.18 Z" />
<path fill="#f8fcf8" opacity="1.00" d=" M 56.44 53.54 C 58.84 50.88 63.44 53.62 62.95 56.93 C 62.63 59.87 58.65 61.79 56.47 59.49 C 54.59 58.03 54.56 55.00 56.44 53.54 Z" />
<path fill="#f8fcf8" opacity="1.00" d=" M 72.40 53.40 C 74.76 51.02 79.20 53.71 78.69 56.87 C 78.55 59.70 74.54 61.74 72.40 59.59 C 70.22 58.17 70.25 54.82 72.40 53.40 Z" />
</g>
</svg>
