<?xml version="1.0" encoding="UTF-8" ?>
<!DOCTYPE svg PUBLIC "-//W3C//DTD SVG 1.1//EN" "http://www.w3.org/Graphics/SVG/1.1/DTD/svg11.dtd">
<svg width="117pt" height="140pt" viewBox="0 0 117 140" version="1.1" xmlns="http://www.w3.org/2000/svg">
<g id="#000000ff">
<path fill="#000000" opacity="1.00" d=" M 0.00 0.00 L 117.00 0.00 L 117.00 140.00 L 0.00 140.00 L 0.00 0.00 M 29.50 10.66 C 15.37 13.36 4.19 26.59 4.01 41.00 C 4.03 60.67 3.93 80.34 4.05 100.02 C 4.70 115.65 18.39 129.32 34.03 129.95 C 50.04 130.02 66.06 130.06 82.07 129.93 C 98.02 129.28 111.86 114.99 111.99 99.03 C 111.98 79.34 112.07 59.64 111.94 39.95 C 111.28 24.35 97.63 10.72 82.03 10.06 C 67.37 9.89 52.71 10.07 38.05 9.98 C 35.19 9.95 32.31 10.05 29.50 10.66 Z" />
<path fill="#000000" opacity="1.00" d=" M 29.48 12.71 C 32.92 11.91 36.48 11.99 39.99 12.00 C 54.01 12.06 68.04 11.88 82.07 12.09 C 96.91 12.77 109.83 26.06 109.96 40.95 C 110.03 60.29 110.03 79.64 109.96 98.99 C 109.88 114.25 96.32 127.81 81.07 127.95 C 65.71 128.04 50.35 128.02 34.99 127.97 C 19.75 127.83 6.18 114.32 6.03 99.06 C 5.98 79.70 5.98 60.34 6.03 40.97 C 6.22 27.66 16.48 15.43 29.48 12.71 M 46.62 42.00 C 46.60 50.67 46.60 59.33 46.61 68.00 C 49.54 68.00 52.46 68.00 55.38 68.00 C 55.40 59.33 55.40 50.67 55.38 42.00 C 52.46 42.00 49.54 42.00 46.62 42.00 M 61.19 43.20 C 61.19 45.18 61.18 47.15 61.18 49.13 C 60.47 49.17 59.05 49.23 58.33 49.26 C 58.35 50.70 58.38 52.15 58.41 53.59 C 59.10 53.60 60.49 53.61 61.18 53.62 C 61.71 58.22 59.91 63.44 62.55 67.56 C 65.81 68.05 69.11 68.10 72.41 67.99 C 72.39 66.21 72.36 64.43 72.37 62.65 C 71.57 62.63 69.96 62.59 69.16 62.56 C 68.56 59.64 68.85 56.64 68.83 53.68 C 70.06 53.58 71.29 53.51 72.52 53.47 C 72.43 52.01 72.33 50.56 72.23 49.11 C 71.38 49.13 69.67 49.18 68.82 49.20 C 68.81 47.19 68.81 45.19 68.80 43.19 C 66.26 43.18 63.73 43.19 61.19 43.20 Z" />
</g>
<g id="#6a84bcff">
<path fill="#6a84bc" opacity="1.00" d=" M 29.50 10.66 C 32.31 10.05 35.19 9.95 38.05 9.98 C 52.71 10.07 67.37 9.89 82.03 10.06 C 97.63 10.72 111.28 24.35 111.94 39.95 C 112.07 59.64 111.98 79.34 111.99 99.03 C 111.86 114.99 98.02 129.28 82.07 129.93 C 66.06 130.06 50.04 130.02 34.03 129.95 C 18.39 129.32 4.70 115.65 4.05 100.02 C 3.93 80.34 4.03 60.67 4.01 41.00 C 4.19 26.59 15.37 13.36 29.50 10.66 M 29.48 12.71 C 16.48 15.43 6.22 27.66 6.03 40.97 C 5.98 60.34 5.98 79.70 6.03 99.06 C 6.18 114.32 19.75 127.83 34.99 127.97 C 50.35 128.02 65.71 128.04 81.07 127.95 C 96.32 127.81 109.88 114.25 109.96 98.99 C 110.03 79.64 110.03 60.29 109.96 40.95 C 109.83 26.06 96.91 12.77 82.07 12.09 C 68.04 11.88 54.01 12.06 39.99 12.00 C 36.48 11.99 32.92 11.91 29.48 12.71 Z" />
</g>
<g id="#10ec50ff">
<path fill="#10ec50" opacity="1.00" d=" M 46.62 42.00 C 49.54 42.00 52.46 42.00 55.38 42.00 C 55.40 50.67 55.40 59.33 55.38 68.00 C 52.46 68.00 49.54 68.00 46.61 68.00 C 46.60 59.33 46.60 50.67 46.62 42.00 Z" />
<path fill="#10ec50" opacity="1.00" d=" M 61.19 43.20 C 63.73 43.19 66.26 43.18 68.80 43.19 C 68.81 45.19 68.81 47.19 68.82 49.20 C 69.67 49.18 71.38 49.13 72.23 49.11 C 72.33 50.56 72.43 52.01 72.52 53.47 C 71.29 53.51 70.06 53.58 68.83 53.68 C 68.85 56.64 68.56 59.64 69.16 62.56 C 69.96 62.59 71.57 62.63 72.37 62.65 C 72.36 64.43 72.39 66.21 72.41 67.99 C 69.11 68.10 65.81 68.05 62.55 67.56 C 59.91 63.44 61.71 58.22 61.18 53.62 C 60.49 53.61 59.10 53.60 58.41 53.59 C 58.38 52.15 58.35 50.70 58.33 49.26 C 59.05 49.23 60.47 49.17 61.18 49.13 C 61.18 47.15 61.19 45.18 61.19 43.20 Z" />
</g>
</svg>
