<?xml version="1.0" encoding="UTF-8" ?>
<!DOCTYPE svg PUBLIC "-//W3C//DTD SVG 1.1//EN" "http://www.w3.org/Graphics/SVG/1.1/DTD/svg11.dtd">
<svg width="150px" height="80px" viewBox="0 0 150 80" version="1.1" xmlns="http://www.w3.org/2000/svg">
<g id="#000000ff">
<path fill="#000000" opacity="1.00" d=" M 0.00 0.00 L 150.00 0.00 L 150.00 80.00 L 0.00 80.00 L 0.00 0.00 M 6.36 5.47 C 2.85 6.63 0.67 10.34 0.99 13.97 C 1.03 31.67 0.95 49.37 1.03 67.06 C 0.93 71.26 4.70 75.05 8.91 74.97 C 51.59 75.06 94.27 74.95 136.96 75.02 C 139.41 74.94 142.01 75.28 144.32 74.26 C 147.49 72.88 149.26 69.39 149.00 66.02 C 148.98 48.32 149.04 30.63 148.97 12.93 C 149.09 8.28 144.58 4.50 140.03 4.99 C 96.67 5.01 53.31 5.01 9.95 4.99 C 8.72 4.96 7.53 5.12 6.36 5.47 Z" />
<path fill="#000000" opacity="1.00" d=" M 7.25 7.29 C 9.79 6.75 12.41 7.06 14.99 7.00 C 55.67 6.99 96.35 7.02 137.03 6.98 C 139.82 7.02 143.07 6.58 145.25 8.72 C 147.43 10.90 146.98 14.16 147.02 16.95 C 146.94 33.67 147.08 50.39 146.95 67.11 C 147.05 70.71 143.52 73.44 140.05 73.00 C 96.67 73.00 53.29 72.99 9.91 73.01 C 6.42 73.44 2.93 70.66 3.04 67.05 C 2.95 49.37 3.03 31.68 2.99 14.00 C 2.73 11.13 4.33 8.03 7.25 7.29 M 43.28 29.62 C 41.23 31.46 39.17 33.32 37.48 35.51 C 36.54 36.26 35.63 37.03 34.72 37.82 C 36.07 39.07 37.41 40.32 38.78 41.55 C 40.17 40.10 41.62 38.70 43.21 37.47 C 44.18 38.40 45.15 39.32 46.12 40.25 C 46.96 39.45 47.79 38.66 48.63 37.87 C 47.65 36.93 46.67 35.99 45.70 35.04 C 46.12 34.64 46.97 33.83 47.40 33.43 C 45.66 31.46 48.74 30.29 49.57 28.83 C 47.40 27.98 45.33 29.01 43.28 29.62 M 51.49 36.35 C 48.06 39.68 44.58 42.97 41.11 46.26 C 40.45 47.07 39.28 47.68 39.21 48.84 C 38.79 50.56 41.42 51.59 42.50 50.36 C 46.55 46.72 50.38 42.83 54.35 39.11 C 58.70 40.85 64.13 36.17 62.23 31.61 C 60.88 32.78 59.57 33.99 58.26 35.21 C 57.34 34.35 56.44 33.48 55.53 32.62 C 56.79 31.44 58.04 30.25 59.28 29.05 C 55.02 26.82 49.59 31.94 51.49 36.35 M 49.72 44.85 C 51.85 46.94 53.92 49.08 56.03 51.19 C 57.37 49.89 58.71 48.60 60.03 47.29 C 57.81 45.29 55.57 43.30 53.35 41.30 C 52.14 42.48 50.93 43.66 49.72 44.85 Z" />
</g>
<g id="#6e8ac5ff">
<path fill="#6e8ac5" opacity="1.00" d=" M 6.36 5.47 C 7.53 5.12 8.72 4.96 9.95 4.99 C 53.31 5.01 96.67 5.01 140.03 4.99 C 144.58 4.50 149.09 8.28 148.97 12.93 C 149.04 30.63 148.98 48.32 149.00 66.02 C 149.26 69.39 147.49 72.88 144.32 74.26 C 142.01 75.28 139.41 74.94 136.96 75.02 C 94.27 74.95 51.59 75.06 8.91 74.97 C 4.70 75.05 0.93 71.26 1.03 67.06 C 0.95 49.37 1.03 31.67 0.99 13.97 C 0.67 10.34 2.85 6.63 6.36 5.47 M 7.25 7.29 C 4.33 8.03 2.73 11.13 2.99 14.00 C 3.03 31.68 2.95 49.37 3.04 67.05 C 2.93 70.66 6.42 73.44 9.91 73.01 C 53.29 72.99 96.67 73.00 140.05 73.00 C 143.52 73.44 147.05 70.71 146.95 67.11 C 147.08 50.39 146.94 33.67 147.02 16.95 C 146.98 14.16 147.43 10.90 145.25 8.72 C 143.07 6.58 139.82 7.02 137.03 6.98 C 96.35 7.02 55.67 6.99 14.99 7.00 C 12.41 7.06 9.79 6.75 7.25 7.29 Z" />
</g>
<g id="#f8fcf8ff">
<path fill="#f8fcf8" opacity="1.00" d=" M 43.28 29.62 C 45.33 29.01 47.40 27.98 49.57 28.83 C 48.74 30.29 45.66 31.46 47.40 33.43 C 46.97 33.83 46.12 34.64 45.70 35.04 C 46.67 35.99 47.65 36.93 48.63 37.87 C 47.79 38.66 46.96 39.45 46.12 40.25 C 45.15 39.32 44.18 38.40 43.21 37.47 C 41.62 38.70 40.17 40.10 38.78 41.55 C 37.41 40.32 36.07 39.07 34.72 37.82 C 35.63 37.03 36.54 36.26 37.48 35.51 C 39.17 33.32 41.23 31.46 43.28 29.62 Z" />
<path fill="#f8fcf8" opacity="1.00" d=" M 51.49 36.35 C 49.59 31.94 55.02 26.82 59.28 29.05 C 58.04 30.25 56.79 31.44 55.53 32.62 C 56.44 33.48 57.34 34.35 58.26 35.21 C 59.57 33.99 60.88 32.78 62.23 31.61 C 64.13 36.17 58.70 40.85 54.35 39.11 C 50.38 42.83 46.55 46.72 42.50 50.36 C 41.42 51.59 38.79 50.56 39.21 48.84 C 39.28 47.68 40.45 47.07 41.11 46.26 C 44.58 42.97 48.06 39.68 51.49 36.35 M 40.80 48.24 C 39.16 51.24 44.17 48.47 40.80 48.24 Z" />
<path fill="#f8fcf8" opacity="1.00" d=" M 49.72 44.85 C 50.93 43.66 52.14 42.48 53.35 41.30 C 55.57 43.30 57.81 45.29 60.03 47.29 C 58.71 48.60 57.37 49.89 56.03 51.19 C 53.92 49.08 51.85 46.94 49.72 44.85 Z" />
</g>
<g id="#343634ff">
<path fill="#343634" opacity="1.00" d=" M 40.80 48.24 C 44.17 48.47 39.16 51.24 40.80 48.24 Z" />
</g>
</svg>
