<?xml version="1.0" encoding="UTF-8" ?>
<!DOCTYPE svg PUBLIC "-//W3C//DTD SVG 1.1//EN" "http://www.w3.org/Graphics/SVG/1.1/DTD/svg11.dtd">
<svg width="117px" height="140px" viewBox="0 0 117 140" version="1.1" xmlns="http://www.w3.org/2000/svg">
<g id="#384450ff">
<path fill="#384450" opacity="1.00" d=" M 0.00 0.00 L 117.00 0.00 L 117.00 140.00 L 0.00 140.00 L 0.00 0.00 M 41.22 53.15 C 38.65 54.46 38.64 58.56 41.24 59.83 C 43.21 61.36 45.99 60.07 46.90 57.96 C 48.59 54.78 44.08 50.89 41.22 53.15 M 56.46 53.51 C 54.31 55.15 54.73 58.61 57.02 59.93 C 59.88 61.99 64.05 58.41 62.75 55.23 C 61.90 52.72 58.39 51.45 56.46 53.51 M 72.39 53.40 C 67.82 56.36 73.82 63.36 77.45 59.29 C 81.27 56.34 75.87 50.03 72.39 53.40 Z" />
</g>
<g id="#f8fcf8ff">
<path fill="#f8fcf8" opacity="1.00" d=" M 41.22 53.15 C 44.08 50.89 48.59 54.78 46.90 57.96 C 45.99 60.07 43.21 61.36 41.24 59.83 C 38.64 58.56 38.65 54.46 41.22 53.15 Z" />
<path fill="#f8fcf8" opacity="1.00" d=" M 56.46 53.51 C 58.39 51.45 61.90 52.72 62.75 55.23 C 64.05 58.41 59.88 61.99 57.02 59.93 C 54.73 58.61 54.31 55.15 56.46 53.51 Z" />
<path fill="#f8fcf8" opacity="1.00" d=" M 72.39 53.40 C 75.87 50.03 81.27 56.34 77.45 59.29 C 73.82 63.36 67.82 56.36 72.39 53.40 Z" />
</g>
</svg>
