<?xml version="1.0" encoding="UTF-8" ?>
<!DOCTYPE svg PUBLIC "-//W3C//DTD SVG 1.1//EN" "http://www.w3.org/Graphics/SVG/1.1/DTD/svg11.dtd">
<svg width="117px" height="140px" viewBox="0 0 117 140" version="1.1" xmlns="http://www.w3.org/2000/svg">
<g id="#000000ff">
<path fill="#000000" opacity="1.00" d=" M 0.00 0.00 L 117.00 0.00 L 117.00 140.00 L 0.00 140.00 L 0.00 0.00 M 33.15 10.22 C 20.93 11.57 10.05 20.63 6.46 32.38 C 4.42 38.37 5.10 44.76 5.00 50.97 C 5.05 67.33 4.91 83.70 5.06 100.06 C 5.72 115.65 19.36 129.27 34.95 129.94 C 50.60 130.07 66.27 129.99 81.93 129.98 C 94.74 129.83 106.78 121.03 111.07 109.00 C 113.61 102.63 112.93 95.68 113.00 88.99 C 112.95 72.65 113.09 56.31 112.94 39.98 C 112.31 23.99 97.99 10.14 81.99 10.01 C 65.72 10.12 49.41 9.72 33.15 10.22 Z" />
<path fill="#000000" opacity="1.00" d=" M 30.47 12.71 C 33.92 11.93 37.47 11.98 40.99 12.00 C 55.00 12.06 69.02 11.88 83.02 12.09 C 97.90 12.75 110.84 26.07 110.96 40.97 C 111.03 60.32 111.03 79.67 110.96 99.01 C 110.86 114.27 97.29 127.83 82.03 127.95 C 66.37 128.01 50.70 128.08 35.04 127.92 C 20.14 127.29 7.17 113.95 7.03 99.02 C 6.98 79.67 6.98 60.32 7.03 40.97 C 7.22 27.66 17.48 15.44 30.47 12.71 M 55.53 37.53 C 48.71 41.78 42.23 46.59 35.33 50.71 C 34.96 52.14 34.93 53.67 36.39 54.48 C 42.31 58.64 48.48 62.46 54.44 66.58 C 55.71 67.75 57.43 67.72 59.02 67.39 C 59.39 64.20 58.97 60.93 59.79 57.80 C 67.63 57.84 75.19 62.21 78.83 69.20 C 79.64 62.96 78.02 56.12 73.07 51.93 C 69.60 48.11 64.36 47.06 59.48 46.44 C 59.26 43.63 59.41 40.80 59.05 38.01 C 58.21 36.89 56.65 36.65 55.53 37.53 Z" />
</g>
<g id="#7185b5ff">
<path fill="#7185b5" opacity="1.00" d=" M 33.15 10.22 C 49.41 9.72 65.72 10.12 81.99 10.01 C 97.99 10.14 112.31 23.99 112.94 39.98 C 113.09 56.31 112.95 72.65 113.00 88.99 C 112.93 95.68 113.61 102.63 111.07 109.00 C 106.78 121.03 94.74 129.83 81.93 129.98 C 66.27 129.99 50.60 130.07 34.95 129.94 C 19.36 129.27 5.72 115.65 5.06 100.06 C 4.91 83.70 5.05 67.33 5.00 50.97 C 5.10 44.76 4.42 38.37 6.46 32.38 C 10.05 20.63 20.93 11.57 33.15 10.22 M 30.47 12.71 C 17.48 15.44 7.22 27.66 7.03 40.97 C 6.98 60.32 6.98 79.67 7.03 99.02 C 7.17 113.95 20.14 127.29 35.04 127.92 C 50.70 128.08 66.37 128.01 82.03 127.95 C 97.29 127.83 110.86 114.27 110.96 99.01 C 111.03 79.67 111.03 60.32 110.96 40.97 C 110.84 26.07 97.90 12.75 83.02 12.09 C 69.02 11.88 55.00 12.06 40.99 12.00 C 37.47 11.98 33.92 11.93 30.47 12.71 Z" />
</g>
<g id="#68e860ff">
<path fill="#68e860" opacity="1.00" d=" M 55.53 37.53 C 56.65 36.65 58.21 36.89 59.05 38.01 C 59.41 40.80 59.26 43.63 59.48 46.44 C 64.36 47.06 69.60 48.11 73.07 51.93 C 78.02 56.12 79.64 62.96 78.83 69.20 C 75.19 62.21 67.63 57.84 59.79 57.80 C 58.97 60.93 59.39 64.20 59.02 67.39 C 57.43 67.72 55.71 67.75 54.44 66.58 C 48.48 62.46 42.31 58.64 36.39 54.48 C 34.93 53.67 34.96 52.14 35.33 50.71 C 42.23 46.59 48.71 41.78 55.53 37.53 Z" />
</g>
</svg>
