<?xml version="1.0" encoding="UTF-8" ?>
<!DOCTYPE svg PUBLIC "-//W3C//DTD SVG 1.1//EN" "http://www.w3.org/Graphics/SVG/1.1/DTD/svg11.dtd">
<svg width="117pt" height="140pt" viewBox="0 0 117 140" version="1.1" xmlns="http://www.w3.org/2000/svg">
<g id="#000000ff">
<path fill="#000000" opacity="1.00" d=" M 0.00 0.00 L 117.00 0.00 L 117.00 140.00 L 0.00 140.00 L 0.00 0.00 M 30.47 10.46 C 17.02 13.15 5.93 25.24 5.02 39.01 C 4.95 59.00 5.05 79.00 4.97 98.99 C 4.79 115.03 19.00 129.60 35.00 130.01 C 50.99 130.00 66.98 130.00 82.97 130.01 C 98.63 129.62 112.61 115.68 113.01 100.02 C 113.00 80.02 112.99 60.02 113.01 40.02 C 112.63 24.36 98.68 10.43 83.03 9.99 C 67.34 9.99 51.64 10.03 35.95 9.98 C 34.12 9.99 32.27 10.07 30.47 10.46 Z" />
<path fill="#000000" opacity="1.00" d=" M 31.55 12.70 C 34.33 12.15 37.17 11.96 40.00 11.99 C 53.35 12.03 66.69 11.97 80.03 12.01 C 86.00 12.12 92.01 13.61 97.04 16.89 C 105.92 22.30 111.04 32.72 110.98 43.00 C 111.01 61.00 111.02 79.01 110.98 97.01 C 111.01 105.18 107.85 113.31 102.10 119.14 C 96.27 124.88 88.15 127.97 80.00 127.98 C 65.98 128.02 51.96 128.00 37.93 127.99 C 29.79 127.97 21.67 124.84 15.86 119.10 C 10.14 113.27 7.00 105.17 7.01 97.02 C 7.05 78.31 6.87 59.59 7.11 40.87 C 7.60 27.33 18.10 14.92 31.55 12.70 M 52.02 33.98 C 49.08 35.49 46.99 38.14 45.28 40.91 C 40.95 40.53 36.43 42.35 34.06 46.09 C 30.49 51.13 31.62 58.80 36.56 62.54 C 39.97 65.43 44.73 65.22 48.90 64.88 C 49.08 64.49 49.43 63.69 49.61 63.30 C 55.87 63.29 62.12 63.29 68.38 63.29 C 68.56 63.69 68.92 64.48 69.10 64.88 C 73.10 65.12 77.67 65.62 81.00 62.88 C 85.88 59.23 86.40 51.33 82.06 47.06 C 80.34 45.08 77.69 44.53 75.40 43.51 C 73.85 41.09 72.84 38.27 70.60 36.36 C 65.80 31.60 57.87 30.61 52.02 33.98 Z" />
<path fill="#000000" opacity="1.00" d=" M 40.31 54.94 C 46.62 51.86 52.76 48.43 58.97 45.16 C 64.83 48.35 70.81 51.34 76.66 54.54 C 76.90 54.86 77.38 55.48 77.61 55.80 C 74.65 56.15 71.66 56.14 68.68 56.10 C 68.70 57.49 68.74 58.88 68.81 60.26 C 62.27 60.31 55.73 60.32 49.19 60.26 C 49.26 58.87 49.30 57.48 49.33 56.10 C 46.38 55.72 42.70 57.15 40.31 54.94 Z" />
</g>
<g id="#6c86beff">
<path fill="#6c86be" opacity="1.00" d=" M 30.47 10.46 C 32.27 10.07 34.12 9.99 35.95 9.98 C 51.64 10.03 67.34 9.99 83.03 9.99 C 98.68 10.43 112.63 24.36 113.01 40.02 C 112.99 60.02 113.00 80.02 113.01 100.02 C 112.61 115.68 98.63 129.62 82.97 130.01 C 66.98 130.00 50.99 130.00 35.00 130.01 C 19.00 129.60 4.79 115.03 4.97 98.99 C 5.05 79.00 4.95 59.00 5.02 39.01 C 5.93 25.24 17.02 13.15 30.47 10.46 M 31.55 12.70 C 18.10 14.92 7.60 27.33 7.11 40.87 C 6.87 59.59 7.05 78.31 7.01 97.02 C 7.00 105.17 10.14 113.27 15.86 119.10 C 21.67 124.84 29.79 127.97 37.93 127.99 C 51.96 128.00 65.98 128.02 80.00 127.98 C 88.15 127.97 96.27 124.88 102.10 119.14 C 107.85 113.31 111.01 105.18 110.98 97.01 C 111.02 79.01 111.01 61.00 110.98 43.00 C 111.04 32.72 105.92 22.30 97.04 16.89 C 92.01 13.61 86.00 12.12 80.03 12.01 C 66.69 11.97 53.35 12.03 40.00 11.99 C 37.17 11.96 34.33 12.15 31.55 12.70 Z" />
</g>
<g id="#f8fcf8ff">
<path fill="#f8fcf8" opacity="1.00" d=" M 52.02 33.98 C 57.87 30.61 65.80 31.60 70.60 36.36 C 72.84 38.27 73.85 41.09 75.40 43.51 C 77.69 44.53 80.34 45.08 82.06 47.06 C 86.40 51.33 85.88 59.23 81.00 62.88 C 77.67 65.62 73.10 65.12 69.10 64.88 C 68.92 64.48 68.56 63.69 68.38 63.29 C 62.12 63.29 55.87 63.29 49.61 63.30 C 49.43 63.69 49.08 64.49 48.90 64.88 C 44.73 65.22 39.97 65.43 36.56 62.54 C 31.62 58.80 30.49 51.13 34.06 46.09 C 36.43 42.35 40.95 40.53 45.28 40.91 C 46.99 38.14 49.08 35.49 52.02 33.98 M 40.31 54.94 C 42.70 57.15 46.38 55.72 49.33 56.10 C 49.30 57.48 49.26 58.87 49.19 60.26 C 55.73 60.32 62.27 60.31 68.81 60.26 C 68.74 58.88 68.70 57.49 68.68 56.10 C 71.66 56.14 74.65 56.15 77.61 55.80 C 77.38 55.48 76.90 54.86 76.66 54.54 C 70.81 51.34 64.83 48.35 58.97 45.16 C 52.76 48.43 46.62 51.86 40.31 54.94 Z" />
</g>
</svg>
