<?xml version="1.0" encoding="UTF-8" ?>
<!DOCTYPE svg PUBLIC "-//W3C//DTD SVG 1.1//EN" "http://www.w3.org/Graphics/SVG/1.1/DTD/svg11.dtd">
<svg width="117pt" height="140pt" viewBox="0 0 117 140" version="1.1" xmlns="http://www.w3.org/2000/svg">
<g id="#000000ff">
<path fill="#000000" opacity="1.00" d=" M 0.00 0.00 L 117.00 0.00 L 117.00 140.00 L 0.00 140.00 L 0.00 0.00 M 33.19 10.21 C 17.89 11.77 5.13 25.67 5.01 41.06 C 5.00 60.39 4.99 79.73 5.01 99.07 C 5.23 112.33 14.72 124.70 27.38 128.53 C 33.37 130.58 39.78 129.90 45.99 130.00 C 58.00 129.98 70.01 130.04 82.02 129.98 C 99.13 129.91 113.97 114.04 113.02 96.97 C 112.98 78.66 113.00 60.35 113.01 42.04 C 113.08 33.38 109.38 24.80 103.09 18.86 C 97.00 12.96 88.48 9.74 80.01 9.98 C 64.40 10.17 48.78 9.71 33.19 10.21 Z" />
<path fill="#000000" opacity="1.00" d=" M 30.52 12.71 C 34.94 11.71 39.50 12.06 43.99 12.00 C 57.01 12.06 70.03 11.88 83.04 12.09 C 97.89 12.76 110.82 26.05 110.96 40.94 C 111.03 60.30 111.02 79.65 110.96 99.01 C 110.84 113.89 97.95 127.23 83.09 127.90 C 67.38 128.11 51.67 127.98 35.97 127.97 C 20.71 127.81 7.15 114.27 7.03 99.00 C 6.98 79.67 6.98 60.34 7.03 41.01 C 7.21 27.67 17.49 15.41 30.52 12.71 M 46.59 40.58 C 44.20 42.54 41.65 44.30 39.32 46.33 C 37.02 48.06 37.00 51.93 39.32 53.66 C 41.62 55.70 44.17 57.43 46.54 59.37 C 48.63 61.37 51.53 60.04 54.00 59.89 C 54.00 57.26 54.00 54.63 54.00 52.00 C 54.75 52.00 56.25 52.00 57.00 52.00 C 57.00 51.25 57.00 49.75 57.00 49.00 C 56.25 49.00 54.75 49.00 54.00 49.00 C 54.00 46.04 54.00 43.08 54.00 40.12 C 51.56 39.96 48.66 38.62 46.59 40.58 M 64.00 40.11 C 64.01 43.08 64.00 46.04 64.00 49.00 C 62.00 49.00 60.00 49.00 58.00 49.00 C 58.00 49.75 58.00 51.25 58.00 52.00 C 60.00 52.00 62.00 52.00 64.00 52.00 C 64.00 54.63 64.00 57.26 64.00 59.89 C 66.68 60.19 69.85 61.34 71.98 58.98 C 74.83 56.07 79.93 54.53 80.47 50.00 C 79.95 45.45 74.81 43.93 71.97 41.00 C 69.85 38.65 66.66 39.80 64.00 40.11 Z" />
<path fill="#000000" opacity="1.00" d=" M 41.01 50.00 C 44.00 47.68 46.99 45.34 49.99 43.04 C 50.00 47.68 50.02 52.33 49.97 56.97 C 46.99 54.63 43.99 52.32 41.01 50.00 Z" />
<path fill="#000000" opacity="1.00" d=" M 68.00 43.09 C 71.06 45.31 73.99 47.70 76.99 50.00 C 74.00 52.33 71.00 54.65 68.01 56.97 C 67.99 52.34 68.01 47.72 68.00 43.09 Z" />
</g>
<g id="#7185b5ff">
<path fill="#7185b5" opacity="1.00" d=" M 33.19 10.21 C 48.78 9.71 64.40 10.17 80.01 9.98 C 88.48 9.74 97.00 12.96 103.09 18.86 C 109.38 24.80 113.08 33.38 113.01 42.04 C 113.00 60.35 112.98 78.66 113.02 96.97 C 113.97 114.04 99.13 129.91 82.02 129.98 C 70.01 130.04 58.00 129.98 45.99 130.00 C 39.78 129.90 33.37 130.58 27.38 128.53 C 14.72 124.70 5.23 112.33 5.01 99.07 C 4.99 79.73 5.00 60.39 5.01 41.06 C 5.13 25.67 17.89 11.77 33.19 10.21 M 30.52 12.71 C 17.49 15.41 7.21 27.67 7.03 41.01 C 6.98 60.34 6.98 79.67 7.03 99.00 C 7.15 114.27 20.71 127.81 35.97 127.97 C 51.67 127.98 67.38 128.11 83.09 127.90 C 97.95 127.23 110.84 113.89 110.96 99.01 C 111.02 79.65 111.03 60.30 110.96 40.94 C 110.82 26.05 97.89 12.76 83.04 12.09 C 70.03 11.88 57.01 12.06 43.99 12.00 C 39.50 12.06 34.94 11.71 30.52 12.71 Z" />
</g>
<g id="#f8fcf8ff">
<path fill="#f8fcf8" opacity="1.00" d=" M 46.59 40.58 C 48.66 38.62 51.56 39.96 54.00 40.12 C 54.00 43.08 54.00 46.04 54.00 49.00 C 54.75 49.00 56.25 49.00 57.00 49.00 C 57.00 49.75 57.00 51.25 57.00 52.00 C 56.25 52.00 54.75 52.00 54.00 52.00 C 54.00 54.63 54.00 57.26 54.00 59.89 C 51.53 60.04 48.63 61.37 46.54 59.37 C 44.17 57.43 41.62 55.70 39.32 53.66 C 37.00 51.93 37.02 48.06 39.32 46.33 C 41.65 44.30 44.20 42.54 46.59 40.58 M 41.01 50.00 C 43.99 52.32 46.99 54.63 49.97 56.97 C 50.02 52.33 50.00 47.68 49.99 43.04 C 46.99 45.34 44.00 47.68 41.01 50.00 Z" />
<path fill="#f8fcf8" opacity="1.00" d=" M 64.00 40.11 C 66.66 39.80 69.85 38.65 71.97 41.00 C 74.81 43.93 79.95 45.45 80.47 50.00 C 79.93 54.53 74.83 56.07 71.98 58.98 C 69.85 61.34 66.68 60.19 64.00 59.89 C 64.00 57.26 64.00 54.63 64.00 52.00 C 62.00 52.00 60.00 52.00 58.00 52.00 C 58.00 51.25 58.00 49.75 58.00 49.00 C 60.00 49.00 62.00 49.00 64.00 49.00 C 64.00 46.04 64.01 43.08 64.00 40.11 M 68.00 43.09 C 68.01 47.72 67.99 52.34 68.01 56.97 C 71.00 54.65 74.00 52.33 76.99 50.00 C 73.99 47.70 71.06 45.31 68.00 43.09 Z" />
</g>
</svg>
