<?xml version="1.0" encoding="UTF-8" ?>
<!DOCTYPE svg PUBLIC "-//W3C//DTD SVG 1.1//EN" "http://www.w3.org/Graphics/SVG/1.1/DTD/svg11.dtd">
<svg width="117px" height="140px" viewBox="0 0 117 140" version="1.1" xmlns="http://www.w3.org/2000/svg">
<g id="#000000ff">
<path fill="#000000" opacity="1.00" d=" M 0.00 0.00 L 117.00 0.00 L 117.00 140.00 L 0.00 140.00 L 0.00 0.00 M 33.20 10.25 C 17.97 11.77 5.25 25.59 5.04 40.90 C 4.97 60.26 4.98 79.63 5.04 98.99 C 5.16 114.95 18.98 129.25 34.93 129.90 C 50.63 130.09 66.33 130.01 82.03 129.94 C 98.35 129.85 112.83 115.37 112.95 99.06 C 113.06 80.04 112.99 61.03 112.98 42.01 C 113.17 29.19 104.74 16.86 92.78 12.27 C 85.26 9.08 76.95 10.19 69.01 10.00 C 57.07 10.16 45.12 9.68 33.20 10.25 Z" />
<path fill="#000000" opacity="1.00" d=" M 33.20 12.31 C 49.11 11.73 65.06 12.19 80.98 12.07 C 92.01 11.91 102.74 18.49 107.65 28.36 C 110.10 32.83 111.02 37.96 110.95 43.02 C 110.91 61.70 111.03 80.37 110.89 99.05 C 110.83 114.28 97.24 127.83 82.01 127.89 C 66.67 128.00 51.32 127.97 35.97 127.90 C 20.75 127.80 7.19 114.29 7.10 99.05 C 7.02 79.68 7.02 60.30 7.10 40.93 C 7.24 26.69 19.07 13.80 33.20 12.31 M 60.15 30.00 C 60.25 33.86 60.23 37.72 60.10 41.58 C 55.03 42.40 50.62 46.13 49.88 51.37 C 45.49 51.35 41.03 50.75 36.69 51.58 C 40.99 51.88 45.30 51.67 49.59 51.87 C 50.26 57.13 54.00 61.81 59.41 62.59 C 59.43 66.59 59.42 70.59 59.41 74.59 C 72.64 78.10 85.68 65.00 84.63 52.00 C 84.50 50.96 83.92 50.45 82.89 50.47 C 78.99 50.35 75.08 50.52 71.18 50.44 C 69.97 45.61 65.67 41.97 60.66 41.77 C 60.83 37.86 60.83 33.94 60.74 30.02 L 60.15 30.00 Z" />
<path fill="#000000" opacity="1.00" d=" M 58.13 43.18 C 63.00 41.88 68.91 44.88 69.88 50.02 C 71.27 55.14 67.33 60.88 62.04 61.35 C 57.11 62.24 51.63 58.69 51.14 53.54 C 50.28 48.92 53.80 44.41 58.13 43.18 Z" />
</g>
<g id="#788cc0ff">
<path fill="#788cc0" opacity="1.00" d=" M 33.20 10.25 C 45.12 9.68 57.07 10.16 69.01 10.00 C 76.95 10.19 85.26 9.08 92.78 12.27 C 104.74 16.86 113.17 29.19 112.98 42.01 C 112.99 61.03 113.06 80.04 112.95 99.06 C 112.83 115.37 98.35 129.85 82.03 129.94 C 66.33 130.01 50.63 130.09 34.93 129.90 C 18.98 129.25 5.16 114.95 5.04 98.99 C 4.98 79.63 4.97 60.26 5.04 40.90 C 5.25 25.59 17.97 11.77 33.20 10.25 M 33.20 12.31 C 19.07 13.80 7.24 26.69 7.10 40.93 C 7.02 60.30 7.02 79.68 7.10 99.05 C 7.19 114.29 20.75 127.80 35.97 127.90 C 51.32 127.97 66.67 128.00 82.01 127.89 C 97.24 127.83 110.83 114.28 110.89 99.05 C 111.03 80.37 110.91 61.70 110.95 43.02 C 111.02 37.96 110.10 32.83 107.65 28.36 C 102.74 18.49 92.01 11.91 80.98 12.07 C 65.06 12.19 49.11 11.73 33.20 12.31 Z" />
</g>
<g id="#f8fcf8ff">
<path fill="#f8fcf8" opacity="1.00" d=" M 60.15 30.00 L 60.74 30.02 C 60.83 33.94 60.83 37.86 60.66 41.77 C 65.67 41.97 69.97 45.61 71.18 50.44 C 75.08 50.52 78.99 50.35 82.89 50.47 C 83.92 50.45 84.50 50.96 84.63 52.00 C 85.68 65.00 72.64 78.10 59.41 74.59 C 59.42 70.59 59.43 66.59 59.41 62.59 C 54.00 61.81 50.26 57.13 49.59 51.87 C 45.30 51.67 40.99 51.88 36.69 51.58 C 41.03 50.75 45.49 51.35 49.88 51.37 C 50.62 46.13 55.03 42.40 60.10 41.58 C 60.23 37.72 60.25 33.86 60.15 30.00 M 58.13 43.18 C 53.80 44.41 50.28 48.92 51.14 53.54 C 51.63 58.69 57.11 62.24 62.04 61.35 C 67.33 60.88 71.27 55.14 69.88 50.02 C 68.91 44.88 63.00 41.88 58.13 43.18 Z" />
</g>
</svg>
