<?xml version="1.0" encoding="UTF-8" ?>
<!DOCTYPE svg PUBLIC "-//W3C//DTD SVG 1.1//EN" "http://www.w3.org/Graphics/SVG/1.1/DTD/svg11.dtd">
<svg width="117px" height="140px" viewBox="0 0 117 140" version="1.1" xmlns="http://www.w3.org/2000/svg">
<g id="#000000ff">
<path fill="#000000" opacity="1.00" d=" M 0.00 0.00 L 117.00 0.00 L 117.00 140.00 L 0.00 140.00 L 0.00 0.00 M 30.50 10.66 C 16.37 13.36 5.17 26.61 5.01 41.02 C 4.98 60.04 5.02 79.05 4.99 98.07 C 4.90 108.36 10.27 118.45 18.73 124.27 C 24.33 128.22 31.22 130.20 38.06 130.03 C 53.06 129.92 68.07 130.12 83.07 129.93 C 99.02 129.28 112.87 114.98 112.98 99.01 C 113.01 79.67 113.01 60.34 112.98 41.00 C 112.88 25.02 99.03 10.74 83.08 10.07 C 70.05 9.89 57.02 10.06 44.00 10.00 C 39.49 10.04 34.93 9.70 30.50 10.66 Z" />
<path fill="#000000" opacity="1.00" d=" M 30.50 12.70 C 34.29 11.85 38.19 12.01 42.04 12.00 C 55.70 12.06 69.37 11.88 83.03 12.09 C 97.88 12.74 110.82 26.04 110.95 40.93 C 111.03 60.29 111.03 79.66 110.95 99.02 C 110.86 114.29 97.26 127.84 82.01 127.95 C 66.66 128.04 51.30 128.02 35.95 127.96 C 20.71 127.81 7.15 114.29 7.04 99.03 C 6.97 79.68 6.97 60.34 7.04 40.99 C 7.21 27.65 17.49 15.43 30.50 12.70 M 34.55 54.85 C 38.24 58.86 43.09 61.86 48.50 62.79 C 48.03 64.19 47.67 65.61 47.41 67.06 C 50.30 71.80 56.15 73.51 61.21 74.82 C 65.66 76.75 70.37 78.06 75.04 79.34 C 79.92 79.02 83.35 73.81 81.43 69.24 C 78.06 60.71 77.14 50.36 69.20 44.51 C 68.11 44.87 67.03 45.29 65.96 45.71 C 64.62 40.22 61.11 35.74 56.91 32.11 C 49.48 39.71 41.53 46.84 34.55 54.85 Z" />
<path fill="#000000" opacity="1.00" d=" M 54.59 38.60 C 55.54 37.74 56.35 36.56 57.67 36.24 C 62.07 40.17 62.93 46.32 64.50 51.71 C 65.90 50.35 67.27 48.97 68.60 47.54 C 70.28 49.17 72.32 50.72 72.94 53.10 C 74.96 59.34 77.26 65.50 78.99 71.83 C 79.35 73.84 77.45 75.08 76.28 76.37 C 72.75 76.23 69.59 74.50 66.24 73.59 C 60.72 71.50 54.46 70.51 50.03 66.30 C 51.45 64.80 52.88 63.33 54.33 61.86 C 49.74 60.05 44.67 59.24 40.52 56.42 C 39.77 55.77 38.13 54.59 39.58 53.65 C 44.56 48.61 49.64 43.67 54.59 38.60 Z" />
</g>
<g id="#6a84bcff">
<path fill="#6a84bc" opacity="1.00" d=" M 30.50 10.66 C 34.93 9.70 39.49 10.04 44.00 10.00 C 57.02 10.06 70.05 9.89 83.08 10.07 C 99.03 10.74 112.88 25.02 112.98 41.00 C 113.01 60.34 113.01 79.67 112.98 99.01 C 112.87 114.98 99.02 129.28 83.07 129.93 C 68.07 130.12 53.06 129.92 38.06 130.03 C 31.22 130.20 24.33 128.22 18.73 124.27 C 10.27 118.45 4.90 108.36 4.99 98.07 C 5.02 79.05 4.98 60.04 5.01 41.02 C 5.17 26.61 16.37 13.36 30.50 10.66 M 30.50 12.70 C 17.49 15.43 7.21 27.65 7.04 40.99 C 6.97 60.34 6.97 79.68 7.04 99.03 C 7.15 114.29 20.71 127.81 35.95 127.96 C 51.30 128.02 66.66 128.04 82.01 127.95 C 97.26 127.84 110.86 114.29 110.95 99.02 C 111.03 79.66 111.03 60.29 110.95 40.93 C 110.82 26.04 97.88 12.74 83.03 12.09 C 69.37 11.88 55.70 12.06 42.04 12.00 C 38.19 12.01 34.29 11.85 30.50 12.70 Z" />
</g>
<g id="#f8fcf8ff">
<path fill="#f8fcf8" opacity="1.00" d=" M 34.55 54.85 C 41.53 46.84 49.48 39.71 56.91 32.11 C 61.11 35.74 64.62 40.22 65.96 45.71 C 67.03 45.29 68.11 44.87 69.20 44.51 C 77.14 50.36 78.06 60.71 81.43 69.24 C 83.35 73.81 79.92 79.02 75.04 79.34 C 70.37 78.06 65.66 76.75 61.21 74.82 C 56.15 73.51 50.30 71.80 47.41 67.06 C 47.67 65.61 48.03 64.19 48.50 62.79 C 43.09 61.86 38.24 58.86 34.55 54.85 M 54.59 38.60 C 49.64 43.67 44.56 48.61 39.58 53.65 C 38.13 54.59 39.77 55.77 40.52 56.42 C 44.67 59.24 49.74 60.05 54.33 61.86 C 52.88 63.33 51.45 64.80 50.03 66.30 C 54.46 70.51 60.72 71.50 66.24 73.59 C 69.59 74.50 72.75 76.23 76.28 76.37 C 77.45 75.08 79.35 73.84 78.99 71.83 C 77.26 65.50 74.96 59.34 72.94 53.10 C 72.32 50.72 70.28 49.17 68.60 47.54 C 67.27 48.97 65.90 50.35 64.50 51.71 C 62.93 46.32 62.07 40.17 57.67 36.24 C 56.35 36.56 55.54 37.74 54.59 38.60 Z" />
</g>
</svg>
