<?xml version="1.0" encoding="UTF-8" ?>
<!DOCTYPE svg PUBLIC "-//W3C//DTD SVG 1.1//EN" "http://www.w3.org/Graphics/SVG/1.1/DTD/svg11.dtd">
<svg width="117px" height="140px" viewBox="0 0 117 140" version="1.1" xmlns="http://www.w3.org/2000/svg">
<g id="#000000ff">
<path fill="#000000" opacity="1.00" d=" M 0.00 0.00 L 117.00 0.00 L 117.00 140.00 L 0.00 140.00 L 0.00 0.00 M 29.44 10.45 C 15.72 13.26 4.44 25.83 4.01 39.95 C 3.98 59.62 4.02 79.30 3.99 98.98 C 3.83 115.01 18.01 129.59 34.01 130.00 C 48.00 130.01 62.00 129.99 75.99 130.00 C 80.89 129.99 85.95 130.41 90.62 128.59 C 100.93 125.30 109.30 116.55 111.95 106.05 C 113.12 101.80 113.00 97.36 113.00 92.99 C 112.93 75.64 113.09 58.29 112.94 40.94 C 112.81 25.00 98.93 10.66 83.02 10.00 C 67.34 9.97 51.67 10.04 35.99 9.98 C 33.80 9.99 31.59 9.98 29.44 10.45 Z" />
<path fill="#000000" opacity="1.00" d=" M 35.17 12.20 C 49.45 11.84 63.75 12.16 78.04 12.04 C 87.61 11.90 97.48 15.75 103.38 23.49 C 107.77 29.01 109.98 36.02 109.99 43.04 C 110.02 60.70 109.98 78.37 110.01 96.03 C 110.33 106.67 105.19 117.59 95.96 123.16 C 90.09 127.07 82.88 128.04 75.97 127.97 C 63.31 127.92 50.64 127.97 37.98 127.95 C 30.05 127.92 22.04 125.21 16.28 119.64 C 10.47 114.06 6.95 106.10 7.07 98.01 C 7.02 79.66 7.06 61.31 7.05 42.96 C 6.98 37.93 7.92 32.82 10.35 28.36 C 14.96 19.02 24.81 12.78 35.17 12.20 M 37.31 28.27 C 37.20 32.31 37.02 36.36 37.37 40.39 C 39.22 42.45 38.86 45.38 39.13 47.94 C 39.61 49.57 38.30 50.70 37.39 51.80 C 37.12 61.73 36.96 71.70 37.51 81.62 C 41.62 82.40 45.85 81.88 50.01 82.00 C 59.64 81.54 69.28 82.32 78.92 81.89 C 79.09 73.61 78.96 65.32 79.00 57.04 C 78.96 53.11 79.39 49.10 78.23 45.28 C 79.31 41.75 79.28 37.95 78.75 34.33 C 77.04 32.06 74.84 30.22 72.81 28.24 C 60.98 28.44 49.15 28.40 37.31 28.27 Z" />
<path fill="#000000" opacity="1.00" d=" M 38.08 28.77 C 48.38 28.58 58.69 28.79 69.00 28.65 C 72.69 28.24 74.59 32.00 77.02 34.08 C 77.79 39.48 75.43 44.75 77.04 50.05 C 77.03 59.97 77.27 69.91 76.87 79.82 C 71.09 79.67 65.25 80.40 59.52 79.45 C 63.13 79.09 66.76 79.23 70.38 79.20 L 70.38 77.76 C 61.81 77.72 53.23 77.73 44.66 77.75 L 44.55 79.21 C 48.14 79.23 51.77 78.91 55.32 79.65 C 49.63 80.11 43.91 79.83 38.22 79.79 C 37.56 73.53 37.94 67.23 37.84 60.95 C 37.87 57.46 37.44 53.80 39.04 50.56 C 41.02 58.47 38.97 66.82 40.15 74.85 C 40.85 76.31 42.49 76.77 43.99 76.67 C 52.98 76.61 61.97 76.61 70.96 76.67 C 72.63 76.85 74.98 76.03 74.86 74.00 C 74.94 61.99 75.30 49.99 75.15 37.98 C 75.24 35.95 74.79 32.95 72.14 32.98 C 62.40 32.79 52.62 32.78 42.88 32.98 C 38.84 33.23 40.14 38.36 39.55 41.02 C 36.46 37.69 38.20 32.82 38.08 28.77 Z" />
<path fill="#000000" opacity="1.00" d=" M 43.12 34.37 C 52.42 34.10 61.75 34.26 71.06 34.29 C 73.10 33.96 74.19 36.20 74.14 37.93 C 74.35 47.94 74.04 57.97 74.18 67.98 C 74.11 70.09 74.32 72.33 73.44 74.31 C 71.66 75.90 69.12 75.33 66.95 75.48 C 59.30 75.33 51.64 75.62 44.00 75.36 C 41.70 75.44 40.54 73.04 40.81 71.04 C 40.92 60.37 40.62 49.70 40.76 39.04 C 40.73 37.34 41.04 34.65 43.12 34.37 M 43.06 39.97 C 42.94 50.42 43.45 60.87 43.05 71.31 C 44.49 72.36 46.18 72.94 47.98 72.76 C 55.02 72.65 62.06 72.85 69.09 72.68 C 70.46 72.75 71.96 71.51 71.79 70.06 C 71.89 59.37 71.70 48.68 72.01 37.99 C 69.01 36.16 65.40 36.80 62.07 36.72 C 56.42 36.91 50.75 36.40 45.12 36.94 C 43.59 36.95 42.89 38.66 43.06 39.97 Z" />
<path fill="#000000" opacity="1.00" d=" M 45.31 38.17 C 53.18 38.07 61.09 37.91 68.96 38.18 C 71.73 38.48 70.59 42.04 70.91 43.93 C 69.35 43.99 67.80 44.04 66.25 44.09 C 66.81 42.55 67.39 41.01 68.00 39.49 C 66.13 39.53 64.14 39.06 62.37 39.83 C 63.01 40.25 64.31 41.07 64.96 41.49 C 64.31 42.25 63.66 43.01 63.01 43.78 C 56.73 43.37 50.42 43.38 44.14 43.82 C 44.40 41.93 43.46 39.46 45.31 38.17 M 54.28 39.86 C 54.41 40.59 54.68 42.04 54.81 42.76 C 56.83 42.80 58.85 42.85 60.88 42.91 C 60.51 41.91 60.14 40.90 59.77 39.90 C 58.79 40.53 57.80 41.16 56.82 41.79 C 56.71 41.19 56.51 39.98 56.41 39.37 C 55.87 39.50 54.81 39.74 54.28 39.86 M 44.75 39.97 C 45.58 40.89 46.33 41.89 47.04 42.92 C 49.57 42.71 52.11 42.65 54.64 42.74 C 54.38 42.42 53.85 41.77 53.58 41.44 C 50.55 41.36 47.43 41.77 44.75 39.97 Z" />
<path fill="#000000" opacity="1.00" d=" M 44.19 45.93 C 53.08 45.29 62.04 45.82 70.96 45.78 C 70.92 47.90 70.89 50.02 70.88 52.13 C 65.50 55.39 60.29 50.63 55.66 48.26 C 51.94 45.92 47.43 46.56 43.49 47.92 C 43.66 47.42 44.01 46.43 44.19 45.93 Z" />
<path fill="#000000" opacity="1.00" d=" M 43.99 49.89 C 47.06 47.44 51.35 47.27 54.70 49.27 C 55.11 49.74 55.94 50.69 56.35 51.17 C 55.32 53.43 51.99 51.56 50.84 54.07 C 50.62 53.24 50.18 51.57 49.97 50.74 C 49.85 52.02 49.54 53.27 49.22 54.51 C 52.20 54.31 55.19 54.28 58.18 54.36 C 58.46 53.84 59.01 52.79 59.28 52.27 C 60.98 52.43 62.38 53.70 63.99 54.21 C 66.24 55.21 68.70 54.52 70.98 54.05 C 70.51 59.63 71.27 65.26 70.59 70.82 L 70.00 71.36 C 61.68 71.63 53.31 71.64 45.00 71.35 L 44.41 70.85 C 43.69 63.89 44.55 56.87 43.99 49.89 M 46.15 51.10 C 45.64 52.73 46.20 53.28 47.82 52.76 C 48.34 51.12 47.78 50.57 46.15 51.10 M 48.08 62.78 C 49.45 63.58 50.92 64.22 52.36 64.90 C 50.48 64.87 48.61 64.83 46.74 64.78 C 46.43 65.39 45.83 66.62 45.52 67.24 C 48.36 67.24 51.21 67.43 54.04 67.11 C 55.44 66.92 56.36 65.56 56.01 64.18 C 54.36 63.12 52.52 62.40 50.76 61.53 C 53.34 61.18 56.41 61.99 58.50 60.03 C 55.25 60.06 48.63 58.20 48.08 62.78 M 59.42 60.29 C 59.66 61.62 60.39 61.84 61.61 60.94 C 61.37 59.61 60.64 59.39 59.42 60.29 M 57.55 64.50 C 57.28 65.20 56.74 66.60 56.47 67.31 C 60.56 67.07 66.73 67.72 68.51 63.02 C 67.65 60.44 64.77 61.47 62.78 61.29 C 62.12 63.79 59.83 64.39 57.55 64.50 M 67.97 66.01 C 66.47 69.01 71.33 66.10 67.97 66.01 Z" />
</g>
<g id="#708cc8ff">
<path fill="#708cc8" opacity="1.00" d=" M 29.44 10.45 C 31.59 9.98 33.80 9.99 35.99 9.98 C 51.67 10.04 67.34 9.97 83.02 10.00 C 98.93 10.66 112.81 25.00 112.94 40.94 C 113.09 58.29 112.93 75.64 113.00 92.99 C 113.00 97.36 113.12 101.80 111.95 106.05 C 109.30 116.55 100.93 125.30 90.62 128.59 C 85.95 130.41 80.89 129.99 75.99 130.00 C 62.00 129.99 48.00 130.01 34.01 130.00 C 18.01 129.59 3.83 115.01 3.99 98.98 C 4.02 79.30 3.98 59.62 4.01 39.95 C 4.44 25.83 15.72 13.26 29.44 10.45 M 35.17 12.20 C 24.81 12.78 14.96 19.02 10.35 28.36 C 7.92 32.82 6.98 37.93 7.05 42.96 C 7.06 61.31 7.02 79.66 7.07 98.01 C 6.95 106.10 10.47 114.06 16.28 119.64 C 22.04 125.21 30.05 127.92 37.98 127.95 C 50.64 127.97 63.31 127.92 75.97 127.97 C 82.88 128.04 90.09 127.07 95.96 123.16 C 105.19 117.59 110.33 106.67 110.01 96.03 C 109.98 78.37 110.02 60.70 109.99 43.04 C 109.98 36.02 107.77 29.01 103.38 23.49 C 97.48 15.75 87.61 11.90 78.04 12.04 C 63.75 12.16 49.45 11.84 35.17 12.20 Z" />
</g>
<g id="#10ec50ff">
<path fill="#10ec50" opacity="1.00" d=" M 37.31 28.27 C 49.15 28.40 60.98 28.44 72.81 28.24 C 74.84 30.22 77.04 32.06 78.75 34.33 C 79.28 37.95 79.31 41.75 78.23 45.28 C 79.39 49.10 78.96 53.11 79.00 57.04 C 78.96 65.32 79.09 73.61 78.92 81.89 C 69.28 82.32 59.64 81.54 50.01 82.00 C 45.85 81.88 41.62 82.40 37.51 81.62 C 36.96 71.70 37.12 61.73 37.39 51.80 C 38.30 50.70 39.61 49.57 39.13 47.94 C 38.86 45.38 39.22 42.45 37.37 40.39 C 37.02 36.36 37.20 32.31 37.31 28.27 M 38.08 28.77 C 38.20 32.82 36.46 37.69 39.55 41.02 C 40.14 38.36 38.84 33.23 42.88 32.98 C 52.62 32.78 62.40 32.79 72.14 32.98 C 74.79 32.95 75.24 35.95 75.15 37.98 C 75.30 49.99 74.94 61.99 74.86 74.00 C 74.98 76.03 72.63 76.85 70.96 76.67 C 61.97 76.61 52.98 76.61 43.99 76.67 C 42.49 76.77 40.85 76.31 40.15 74.85 C 38.97 66.82 41.02 58.47 39.04 50.56 C 37.44 53.80 37.87 57.46 37.84 60.95 C 37.94 67.23 37.56 73.53 38.22 79.79 C 43.91 79.83 49.63 80.11 55.32 79.65 C 51.77 78.91 48.14 79.23 44.55 79.21 L 44.66 77.75 C 53.23 77.73 61.81 77.72 70.38 77.76 L 70.38 79.20 C 66.76 79.23 63.13 79.09 59.52 79.45 C 65.25 80.40 71.09 79.67 76.87 79.82 C 77.27 69.91 77.03 59.97 77.04 50.05 C 75.43 44.75 77.79 39.48 77.02 34.08 C 74.59 32.00 72.69 28.24 69.00 28.65 C 58.69 28.79 48.38 28.58 38.08 28.77 M 43.12 34.37 C 41.04 34.65 40.73 37.34 40.76 39.04 C 40.62 49.70 40.92 60.37 40.81 71.04 C 40.54 73.04 41.70 75.44 44.00 75.36 C 51.64 75.62 59.30 75.33 66.95 75.48 C 69.12 75.33 71.66 75.90 73.44 74.31 C 74.32 72.33 74.11 70.09 74.18 67.98 C 74.04 57.97 74.35 47.94 74.14 37.93 C 74.19 36.20 73.10 33.96 71.06 34.29 C 61.75 34.26 52.42 34.10 43.12 34.37 Z" />
<path fill="#10ec50" opacity="1.00" d=" M 54.28 39.86 C 54.81 39.74 55.87 39.50 56.41 39.37 C 56.51 39.98 56.71 41.19 56.82 41.79 C 57.80 41.16 58.79 40.53 59.77 39.90 C 60.14 40.90 60.51 41.91 60.88 42.91 C 58.85 42.85 56.83 42.80 54.81 42.76 C 54.68 42.04 54.41 40.59 54.28 39.86 Z" />
<path fill="#10ec50" opacity="1.00" d=" M 44.75 39.97 C 47.43 41.77 50.55 41.36 53.58 41.44 C 53.85 41.77 54.38 42.42 54.64 42.74 C 52.11 42.65 49.57 42.71 47.04 42.92 C 46.33 41.89 45.58 40.89 44.75 39.97 Z" />
<path fill="#10ec50" opacity="1.00" d=" M 59.42 60.29 C 60.64 59.39 61.37 59.61 61.61 60.94 C 60.39 61.84 59.66 61.62 59.42 60.29 Z" />
<path fill="#10ec50" opacity="1.00" d=" M 57.55 64.50 C 59.83 64.39 62.12 63.79 62.78 61.29 C 64.77 61.47 67.65 60.44 68.51 63.02 C 66.73 67.72 60.56 67.07 56.47 67.31 C 56.74 66.60 57.28 65.20 57.55 64.50 Z" />
</g>
<g id="#10b438ff">
<path fill="#10b438" opacity="1.00" d=" M 43.06 39.97 C 42.89 38.66 43.59 36.95 45.12 36.94 C 50.75 36.40 56.42 36.91 62.07 36.72 C 65.40 36.80 69.01 36.16 72.01 37.99 C 71.70 48.68 71.89 59.37 71.79 70.06 C 71.96 71.51 70.46 72.75 69.09 72.68 C 62.06 72.85 55.02 72.65 47.98 72.76 C 46.18 72.94 44.49 72.36 43.05 71.31 C 43.45 60.87 42.94 50.42 43.06 39.97 M 45.31 38.17 C 43.46 39.46 44.40 41.93 44.14 43.82 C 50.42 43.38 56.73 43.37 63.01 43.78 C 63.66 43.01 64.31 42.25 64.96 41.49 C 64.31 41.07 63.01 40.25 62.37 39.83 C 64.14 39.06 66.13 39.53 68.00 39.49 C 67.39 41.01 66.81 42.55 66.25 44.09 C 67.80 44.04 69.35 43.99 70.91 43.93 C 70.59 42.04 71.73 38.48 68.96 38.18 C 61.09 37.91 53.18 38.07 45.31 38.17 M 44.19 45.93 C 44.01 46.43 43.66 47.42 43.49 47.92 C 47.43 46.56 51.94 45.92 55.66 48.26 C 60.29 50.63 65.50 55.39 70.88 52.13 C 70.89 50.02 70.92 47.90 70.96 45.78 C 62.04 45.82 53.08 45.29 44.19 45.93 M 43.99 49.89 C 44.55 56.87 43.69 63.89 44.41 70.85 L 45.00 71.35 C 53.31 71.64 61.68 71.63 70.00 71.36 L 70.59 70.82 C 71.27 65.26 70.51 59.63 70.98 54.05 C 68.70 54.52 66.24 55.21 63.99 54.21 C 62.38 53.70 60.98 52.43 59.28 52.27 C 59.01 52.79 58.46 53.84 58.18 54.36 C 55.19 54.28 52.20 54.31 49.22 54.51 C 49.54 53.27 49.85 52.02 49.97 50.74 C 50.18 51.57 50.62 53.24 50.84 54.07 C 51.99 51.56 55.32 53.43 56.35 51.17 C 55.94 50.69 55.11 49.74 54.70 49.27 C 51.35 47.27 47.06 47.44 43.99 49.89 Z" />
</g>
<g id="#10b63cff">
<path fill="#10b63c" opacity="1.00" d=" M 46.15 51.10 C 47.78 50.57 48.34 51.12 47.82 52.76 C 46.20 53.28 45.64 52.73 46.15 51.10 Z" />
</g>
<g id="#10dd4aff">
<path fill="#10dd4a" opacity="1.00" d=" M 48.08 62.78 C 48.63 58.20 55.25 60.06 58.50 60.03 C 56.41 61.99 53.34 61.18 50.76 61.53 C 52.52 62.40 54.36 63.12 56.01 64.18 C 56.36 65.56 55.44 66.92 54.04 67.11 C 51.21 67.43 48.36 67.24 45.52 67.24 C 45.83 66.62 46.43 65.39 46.74 64.78 C 48.61 64.83 50.48 64.87 52.36 64.90 C 50.92 64.22 49.45 63.58 48.08 62.78 Z" />
</g>
<g id="#087424ff">
<path fill="#087424" opacity="1.00" d=" M 67.97 66.01 C 71.33 66.10 66.47 69.01 67.97 66.01 Z" />
</g>
</svg>
