<?xml version="1.0" encoding="UTF-8" ?>
<!DOCTYPE svg PUBLIC "-//W3C//DTD SVG 1.1//EN" "http://www.w3.org/Graphics/SVG/1.1/DTD/svg11.dtd">
<svg width="117pt" height="140pt" viewBox="0 0 117 140" version="1.1" xmlns="http://www.w3.org/2000/svg">
<g id="#000000ff">
<path fill="#000000" opacity="1.00" d=" M 0.00 0.00 L 117.00 0.00 L 117.00 140.00 L 0.00 140.00 L 0.00 0.00 M 33.17 10.21 C 17.88 11.78 5.13 25.68 5.01 41.06 C 5.03 60.73 4.93 80.40 5.06 100.06 C 5.72 115.67 19.39 129.30 35.00 129.94 C 51.01 130.04 67.02 130.05 83.03 129.93 C 98.64 129.30 112.31 115.62 112.94 100.01 C 113.09 80.66 112.95 61.30 113.01 41.94 C 113.06 33.33 109.36 24.80 103.12 18.89 C 97.02 12.96 88.47 9.73 79.98 9.98 C 64.38 10.16 48.76 9.70 33.17 10.21 Z" />
<path fill="#000000" opacity="1.00" d=" M 30.49 12.71 C 33.93 11.93 37.47 11.98 40.98 12.00 C 55.01 12.06 69.05 11.88 83.08 12.09 C 97.93 12.78 110.84 26.08 110.96 40.97 C 111.05 60.00 110.99 79.03 110.99 98.07 C 111.37 113.65 97.66 127.82 82.08 127.95 C 66.70 128.04 51.32 128.02 35.94 127.96 C 20.70 127.80 7.16 114.28 7.03 99.03 C 6.98 79.66 6.98 60.29 7.03 40.92 C 7.24 27.62 17.51 15.43 30.49 12.71 M 47.22 40.20 C 44.49 42.12 41.86 44.20 39.32 46.36 C 37.05 48.08 37.01 51.86 39.27 53.59 C 41.82 55.78 44.47 57.85 47.22 59.79 C 48.89 61.13 51.01 60.13 52.88 59.98 C 53.65 57.41 54.05 54.74 54.09 52.05 C 54.57 52.02 55.52 51.97 56.00 51.94 C 56.00 51.22 56.00 49.78 56.00 49.06 C 55.51 49.03 54.54 48.97 54.05 48.95 C 54.14 45.92 53.76 42.92 52.88 40.02 C 51.02 39.88 48.89 38.87 47.22 40.20 M 64.00 41.21 C 64.00 43.80 64.00 46.39 64.00 48.98 C 63.25 48.99 61.75 49.01 61.00 49.02 C 61.00 49.76 61.00 51.24 61.00 51.97 C 61.75 51.99 63.25 52.01 64.00 52.03 C 64.00 54.28 64.00 56.53 63.99 58.79 C 66.50 60.22 69.73 61.53 72.02 58.93 C 75.15 55.86 81.99 53.54 80.00 48.05 C 77.65 44.76 73.92 42.70 70.78 40.21 C 68.61 38.43 66.10 40.35 64.00 41.21 M 57.01 49.00 C 57.00 49.75 57.00 51.24 57.00 51.99 C 57.75 52.00 59.24 52.00 59.99 52.00 C 59.99 51.25 60.00 49.76 60.00 49.01 C 59.25 49.00 57.76 49.00 57.01 49.00 Z" />
<path fill="#000000" opacity="1.00" d=" M 41.02 50.01 C 43.98 47.66 46.99 45.36 49.94 43.01 C 50.02 47.67 50.06 52.32 49.91 56.98 C 46.97 54.63 43.99 52.33 41.02 50.01 Z" />
<path fill="#000000" opacity="1.00" d=" M 68.07 43.03 C 71.03 45.36 74.02 47.67 76.98 50.01 C 74.01 52.33 71.03 54.64 68.07 56.98 C 67.96 52.33 67.96 47.68 68.07 43.03 Z" />
</g>
<g id="#7185b5ff">
<path fill="#7185b5" opacity="1.00" d=" M 33.17 10.21 C 48.76 9.70 64.38 10.16 79.98 9.98 C 88.47 9.73 97.02 12.96 103.12 18.89 C 109.36 24.80 113.06 33.33 113.01 41.94 C 112.95 61.30 113.09 80.66 112.94 100.01 C 112.31 115.62 98.64 129.30 83.03 129.93 C 67.02 130.05 51.01 130.04 35.00 129.94 C 19.39 129.30 5.72 115.67 5.06 100.06 C 4.93 80.40 5.03 60.73 5.01 41.06 C 5.13 25.68 17.88 11.78 33.17 10.21 M 30.49 12.71 C 17.51 15.43 7.24 27.62 7.03 40.92 C 6.98 60.29 6.98 79.66 7.03 99.03 C 7.16 114.28 20.70 127.80 35.94 127.96 C 51.32 128.02 66.70 128.04 82.08 127.95 C 97.66 127.82 111.37 113.65 110.99 98.07 C 110.99 79.03 111.05 60.00 110.96 40.97 C 110.84 26.08 97.93 12.78 83.08 12.09 C 69.05 11.88 55.01 12.06 40.98 12.00 C 37.47 11.98 33.93 11.93 30.49 12.71 Z" />
</g>
<g id="#10ec50ff">
<path fill="#10ec50" opacity="1.00" d=" M 47.22 40.20 C 48.89 38.87 51.02 39.88 52.88 40.02 C 53.76 42.92 54.14 45.92 54.05 48.95 C 54.54 48.97 55.51 49.03 56.00 49.06 C 56.00 49.78 56.00 51.22 56.00 51.94 C 55.52 51.97 54.57 52.02 54.09 52.05 C 54.05 54.74 53.65 57.41 52.88 59.98 C 51.01 60.13 48.89 61.13 47.22 59.79 C 44.47 57.85 41.82 55.78 39.27 53.59 C 37.01 51.86 37.05 48.08 39.32 46.36 C 41.86 44.20 44.49 42.12 47.22 40.20 M 41.02 50.01 C 43.99 52.33 46.97 54.63 49.91 56.98 C 50.06 52.32 50.02 47.67 49.94 43.01 C 46.99 45.36 43.98 47.66 41.02 50.01 Z" />
<path fill="#10ec50" opacity="1.00" d=" M 64.00 41.21 C 66.10 40.35 68.61 38.43 70.78 40.21 C 73.92 42.70 77.65 44.76 80.00 48.05 C 81.99 53.54 75.15 55.86 72.02 58.93 C 69.73 61.53 66.50 60.22 63.99 58.79 C 64.00 56.53 64.00 54.28 64.00 52.03 C 63.25 52.01 61.75 51.99 61.00 51.97 C 61.00 51.24 61.00 49.76 61.00 49.02 C 61.75 49.01 63.25 48.99 64.00 48.98 C 64.00 46.39 64.00 43.80 64.00 41.21 M 68.07 43.03 C 67.96 47.68 67.96 52.33 68.07 56.98 C 71.03 54.64 74.01 52.33 76.98 50.01 C 74.02 47.67 71.03 45.36 68.07 43.03 Z" />
<path fill="#10ec50" opacity="1.00" d=" M 57.01 49.00 C 57.76 49.00 59.25 49.00 60.00 49.01 C 60.00 49.76 59.99 51.25 59.99 52.00 C 59.24 52.00 57.75 52.00 57.00 51.99 C 57.00 51.24 57.00 49.75 57.01 49.00 Z" />
</g>
</svg>
