<?xml version="1.0" encoding="UTF-8" ?>
<!DOCTYPE svg PUBLIC "-//W3C//DTD SVG 1.1//EN" "http://www.w3.org/Graphics/SVG/1.1/DTD/svg11.dtd">
<svg width="117px" height="140px" viewBox="0 0 117 140" version="1.1" xmlns="http://www.w3.org/2000/svg">
<g id="#000000ff">
<path fill="#000000" opacity="1.00" d=" M 0.00 0.00 L 117.00 0.00 L 117.00 140.00 L 0.00 140.00 L 0.00 0.00 M 33.15 10.22 C 17.92 11.78 5.19 25.60 5.01 40.93 C 4.99 60.31 4.99 79.69 5.01 99.06 C 5.16 115.02 19.00 129.28 34.94 129.93 C 50.28 130.10 65.63 129.95 80.97 130.00 C 93.06 130.18 104.75 122.73 109.87 111.82 C 112.14 107.21 113.12 102.05 113.02 96.93 C 112.98 78.61 113.01 60.29 113.01 41.97 C 113.07 33.32 109.35 24.77 103.08 18.85 C 96.97 12.94 88.44 9.73 79.96 9.98 C 64.36 10.17 48.74 9.70 33.15 10.22 Z" />
<path fill="#000000" opacity="1.00" d=" M 30.53 12.70 C 34.32 11.86 38.22 12.01 42.07 12.00 C 55.74 12.06 69.42 11.87 83.09 12.10 C 97.95 12.78 110.86 26.12 110.96 41.01 C 111.05 60.03 110.99 79.05 110.99 98.06 C 111.37 113.66 97.64 127.84 82.04 127.95 C 66.68 128.04 51.31 128.02 35.95 127.96 C 20.70 127.81 7.14 114.26 7.04 99.01 C 6.98 79.66 6.98 60.31 7.04 40.96 C 7.22 27.63 17.52 15.41 30.53 12.70 M 34.00 46.00 C 34.08 49.99 33.83 53.99 34.09 57.97 C 34.83 59.50 36.71 58.86 38.05 59.03 C 53.44 59.01 68.84 58.93 84.23 59.06 C 85.78 54.91 84.61 50.33 84.99 46.00 C 67.99 46.00 51.00 46.00 34.00 46.00 Z" />
<path fill="#000000" opacity="1.00" d=" M 37.22 49.12 C 52.02 49.09 66.83 49.07 81.63 49.13 C 81.63 51.33 81.64 53.54 81.66 55.74 C 66.84 55.80 52.01 55.79 37.19 55.75 C 37.21 53.54 37.22 51.33 37.22 49.12 Z" />
</g>
<g id="#7185b5ff">
<path fill="#7185b5" opacity="1.00" d=" M 33.15 10.22 C 48.74 9.70 64.36 10.17 79.96 9.98 C 88.44 9.73 96.97 12.94 103.08 18.85 C 109.35 24.77 113.07 33.32 113.01 41.97 C 113.01 60.29 112.98 78.61 113.02 96.93 C 113.12 102.05 112.14 107.21 109.87 111.82 C 104.75 122.73 93.06 130.18 80.97 130.00 C 65.63 129.95 50.28 130.10 34.94 129.93 C 19.00 129.28 5.16 115.02 5.01 99.06 C 4.99 79.69 4.99 60.31 5.01 40.93 C 5.19 25.60 17.92 11.78 33.15 10.22 M 30.53 12.70 C 17.52 15.41 7.22 27.63 7.04 40.96 C 6.98 60.31 6.98 79.66 7.04 99.01 C 7.14 114.26 20.70 127.81 35.95 127.96 C 51.31 128.02 66.68 128.04 82.04 127.95 C 97.64 127.84 111.37 113.66 110.99 98.06 C 110.99 79.05 111.05 60.03 110.96 41.01 C 110.86 26.12 97.95 12.78 83.09 12.10 C 69.42 11.87 55.74 12.06 42.07 12.00 C 38.22 12.01 34.32 11.86 30.53 12.70 Z" />
</g>
<g id="#f8fcf8ff">
<path fill="#f8fcf8" opacity="1.00" d=" M 34.00 46.00 C 51.00 46.00 67.99 46.00 84.99 46.00 C 84.61 50.33 85.78 54.91 84.23 59.06 C 68.84 58.93 53.44 59.01 38.05 59.03 C 36.71 58.86 34.83 59.50 34.09 57.97 C 33.83 53.99 34.08 49.99 34.00 46.00 M 37.22 49.12 C 37.22 51.33 37.21 53.54 37.19 55.75 C 52.01 55.79 66.84 55.80 81.66 55.74 C 81.64 53.54 81.63 51.33 81.63 49.13 C 66.83 49.07 52.02 49.09 37.22 49.12 Z" />
</g>
</svg>
