<?xml version="1.0" encoding="UTF-8" ?>
<!DOCTYPE svg PUBLIC "-//W3C//DTD SVG 1.1//EN" "http://www.w3.org/Graphics/SVG/1.1/DTD/svg11.dtd">
<svg width="117px" height="140px" viewBox="0 0 117 140" version="1.1" xmlns="http://www.w3.org/2000/svg">
<g id="#000000ff">
<path fill="#000000" opacity="1.00" d=" M 0.00 0.00 L 117.00 0.00 L 117.00 140.00 L 0.00 140.00 L 0.00 0.00 M 33.22 10.25 C 17.94 11.76 5.20 25.65 5.03 41.00 C 4.96 60.03 5.01 79.06 5.01 98.09 C 4.97 107.40 9.32 116.56 16.47 122.51 C 22.40 127.53 30.19 130.18 37.95 130.01 C 53.00 129.92 68.06 130.15 83.10 129.89 C 99.02 129.24 112.82 114.97 112.95 99.05 C 113.06 80.04 112.99 61.03 112.98 42.02 C 113.10 30.96 106.92 20.16 97.41 14.56 C 91.92 11.21 85.43 9.79 79.04 9.99 C 63.77 10.18 48.48 9.67 33.22 10.25 Z" />
<path fill="#000000" opacity="1.00" d=" M 33.26 12.30 C 49.50 11.76 65.78 12.14 82.04 12.10 C 97.27 12.20 110.84 25.75 110.89 40.99 C 110.98 60.35 110.99 79.71 110.89 99.07 C 110.82 114.29 97.25 127.82 82.03 127.89 C 66.68 128.00 51.33 127.97 35.98 127.90 C 20.76 127.81 7.21 114.31 7.10 99.08 C 7.02 79.68 7.02 60.28 7.10 40.89 C 7.26 26.65 19.12 13.77 33.26 12.30 M 46.05 28.20 C 46.12 34.02 46.09 39.85 46.09 45.67 C 43.75 45.68 41.41 45.67 39.08 45.72 C 39.38 50.37 38.85 55.06 39.37 59.70 C 41.50 63.37 46.60 60.72 49.81 61.99 C 52.80 64.63 55.46 67.63 58.41 70.31 C 54.72 70.33 51.03 70.31 47.34 70.35 C 47.38 72.90 47.41 75.45 47.34 78.00 C 55.27 77.92 63.21 78.14 71.13 77.91 C 72.55 77.23 71.27 75.53 70.09 75.73 C 63.43 75.57 56.76 75.76 50.09 75.65 C 50.06 75.02 50.00 73.77 49.97 73.14 C 53.57 72.92 57.18 72.97 60.79 73.03 C 60.80 72.32 60.83 70.89 60.84 70.18 C 63.66 67.34 66.53 64.56 69.33 61.69 C 72.64 61.26 76.74 62.85 79.40 60.24 C 80.43 55.52 79.49 50.54 79.92 45.72 C 77.58 45.67 75.24 45.68 72.90 45.67 C 72.91 39.84 72.88 34.02 72.95 28.20 C 63.98 28.14 55.02 28.14 46.05 28.20 Z" />
<path fill="#000000" opacity="1.00" d=" M 48.76 31.05 C 55.92 30.96 63.07 30.98 70.23 30.96 C 70.24 36.73 70.36 42.51 70.15 48.28 C 72.41 48.32 74.67 48.32 76.93 48.34 C 76.95 51.89 76.95 55.44 76.90 59.00 C 65.28 58.94 53.67 59.11 42.05 58.91 C 42.07 55.39 42.07 51.86 42.05 48.34 C 48.77 48.28 55.50 48.34 62.22 48.32 C 62.22 47.66 62.22 46.34 62.22 45.69 C 57.70 45.65 53.19 45.73 48.67 45.63 C 48.71 43.85 48.75 42.08 48.78 40.30 C 53.26 40.34 57.74 40.32 62.22 40.32 C 62.22 39.66 62.22 38.34 62.22 37.68 C 57.72 37.68 53.23 37.66 48.73 37.71 C 48.74 35.49 48.75 33.27 48.76 31.05 M 57.74 51.46 C 61.45 51.63 57.39 57.66 60.59 57.29 C 60.72 54.76 60.66 52.23 60.59 49.69 C 59.65 50.30 58.70 50.89 57.74 51.46 Z" />
<path fill="#000000" opacity="1.00" d=" M 53.20 61.72 C 57.40 61.65 61.61 61.65 65.81 61.72 C 63.66 63.70 61.56 65.75 59.50 67.82 C 57.44 65.75 55.34 63.70 53.20 61.72 Z" />
</g>
<g id="#788cc0ff">
<path fill="#788cc0" opacity="1.00" d=" M 33.22 10.25 C 48.48 9.67 63.77 10.18 79.04 9.99 C 85.43 9.79 91.92 11.21 97.41 14.56 C 106.92 20.16 113.10 30.96 112.98 42.02 C 112.99 61.03 113.06 80.04 112.95 99.05 C 112.82 114.97 99.02 129.24 83.10 129.89 C 68.06 130.15 53.00 129.92 37.95 130.01 C 30.19 130.18 22.40 127.53 16.47 122.51 C 9.32 116.56 4.97 107.40 5.01 98.09 C 5.01 79.06 4.96 60.03 5.03 41.00 C 5.20 25.65 17.94 11.76 33.22 10.25 M 33.26 12.30 C 19.12 13.77 7.26 26.65 7.10 40.89 C 7.02 60.28 7.02 79.68 7.10 99.08 C 7.21 114.31 20.76 127.81 35.98 127.90 C 51.33 127.97 66.68 128.00 82.03 127.89 C 97.25 127.82 110.82 114.29 110.89 99.07 C 110.99 79.71 110.98 60.35 110.89 40.99 C 110.84 25.75 97.27 12.20 82.04 12.10 C 65.78 12.14 49.50 11.76 33.26 12.30 Z" />
</g>
<g id="#f8fcf8ff">
<path fill="#f8fcf8" opacity="1.00" d=" M 46.05 28.20 C 55.02 28.14 63.98 28.14 72.95 28.20 C 72.88 34.02 72.91 39.84 72.90 45.67 C 75.24 45.68 77.58 45.67 79.92 45.72 C 79.49 50.54 80.43 55.52 79.40 60.24 C 76.74 62.85 72.64 61.26 69.33 61.69 C 66.53 64.56 63.66 67.34 60.84 70.18 C 60.83 70.89 60.80 72.32 60.79 73.03 C 57.18 72.97 53.57 72.92 49.97 73.14 C 50.00 73.77 50.06 75.02 50.09 75.65 C 56.76 75.76 63.43 75.57 70.09 75.73 C 71.27 75.53 72.55 77.23 71.13 77.91 C 63.21 78.14 55.27 77.92 47.34 78.00 C 47.41 75.45 47.38 72.90 47.34 70.35 C 51.03 70.31 54.72 70.33 58.41 70.31 C 55.46 67.63 52.80 64.63 49.81 61.99 C 46.60 60.72 41.50 63.37 39.37 59.70 C 38.85 55.06 39.38 50.37 39.08 45.72 C 41.41 45.67 43.75 45.68 46.09 45.67 C 46.09 39.85 46.12 34.02 46.05 28.20 M 48.76 31.05 C 48.75 33.27 48.74 35.49 48.73 37.71 C 53.23 37.66 57.72 37.68 62.22 37.68 C 62.22 38.34 62.22 39.66 62.22 40.32 C 57.74 40.32 53.26 40.34 48.78 40.30 C 48.75 42.08 48.71 43.85 48.67 45.63 C 53.19 45.73 57.70 45.65 62.22 45.69 C 62.22 46.34 62.22 47.66 62.22 48.32 C 55.50 48.34 48.77 48.28 42.05 48.34 C 42.07 51.86 42.07 55.39 42.05 58.91 C 53.67 59.11 65.28 58.94 76.90 59.00 C 76.95 55.44 76.95 51.89 76.93 48.34 C 74.67 48.32 72.41 48.32 70.15 48.28 C 70.36 42.51 70.24 36.73 70.23 30.96 C 63.07 30.98 55.92 30.96 48.76 31.05 M 53.20 61.72 C 55.34 63.70 57.44 65.75 59.50 67.82 C 61.56 65.75 63.66 63.70 65.81 61.72 C 61.61 61.65 57.40 61.65 53.20 61.72 Z" />
<path fill="#f8fcf8" opacity="1.00" d=" M 57.74 51.46 C 58.70 50.89 59.65 50.30 60.59 49.69 C 60.66 52.23 60.72 54.76 60.59 57.29 C 57.39 57.66 61.45 51.63 57.74 51.46 Z" />
</g>
</svg>
