<?xml version="1.0" encoding="UTF-8" ?>
<!DOCTYPE svg PUBLIC "-//W3C//DTD SVG 1.1//EN" "http://www.w3.org/Graphics/SVG/1.1/DTD/svg11.dtd">
<svg width="117pt" height="140pt" viewBox="0 0 117 140" version="1.1" xmlns="http://www.w3.org/2000/svg">
<g id="#000000ff">
<path fill="#000000" opacity="1.00" d=" M 0.00 0.00 L 117.00 0.00 L 117.00 140.00 L 0.00 140.00 L 0.00 0.00 M 33.14 10.22 C 17.90 11.79 5.19 25.62 5.01 40.96 C 5.02 60.66 4.93 80.36 5.06 100.06 C 5.72 115.67 19.40 129.31 35.01 129.94 C 50.35 130.09 65.70 129.95 81.05 130.00 C 93.12 130.16 104.80 122.69 109.89 111.77 C 112.14 107.18 113.13 102.04 113.02 96.95 C 112.98 78.65 113.00 60.34 113.01 42.04 C 113.09 33.39 109.38 24.81 103.10 18.87 C 97.01 12.96 88.47 9.74 80.00 9.98 C 64.38 10.17 48.74 9.70 33.14 10.22 Z" />
<path fill="#000000" opacity="1.00" d=" M 30.51 12.71 C 34.94 11.71 39.50 12.06 43.99 12.00 C 57.03 12.06 70.08 11.88 83.11 12.10 C 97.94 12.80 110.83 26.09 110.96 40.95 C 111.03 60.31 111.03 79.68 110.96 99.04 C 110.83 113.91 97.93 127.24 83.08 127.90 C 68.73 128.13 54.37 127.93 40.02 128.00 C 34.56 128.20 28.94 127.54 24.02 125.02 C 13.84 120.24 6.85 109.34 7.01 98.06 C 7.01 79.03 6.96 59.99 7.03 40.96 C 7.23 27.64 17.51 15.41 30.51 12.71 M 42.53 40.63 C 39.75 43.15 36.10 44.87 34.00 48.04 C 31.97 53.33 38.44 55.61 41.46 58.54 C 43.67 61.16 47.06 60.43 50.00 59.89 C 50.00 57.26 50.00 54.63 50.00 52.00 C 50.75 52.00 52.25 52.00 53.00 52.00 C 53.00 51.25 53.00 49.75 53.00 49.00 C 52.25 49.00 50.75 49.00 50.00 49.00 C 50.00 46.04 50.00 43.08 50.00 40.12 C 47.53 39.94 44.62 38.63 42.53 40.63 M 69.12 40.06 C 68.20 42.95 67.81 45.97 67.98 49.00 C 67.23 49.00 65.74 49.00 65.00 49.00 C 65.00 49.75 65.00 51.25 65.00 52.00 C 65.74 52.00 67.21 52.00 67.94 52.00 C 67.85 54.70 68.35 57.34 69.12 59.92 C 74.24 62.24 77.77 57.15 81.55 54.64 C 84.00 53.18 85.40 49.88 83.64 47.34 C 81.22 44.74 78.13 42.89 75.43 40.60 C 73.69 38.87 71.20 39.62 69.12 40.06 M 54.00 49.00 C 54.00 49.75 54.00 51.25 54.00 52.00 C 54.75 52.00 56.25 52.00 57.00 52.00 C 57.00 51.25 57.00 49.75 57.00 49.00 C 56.25 49.00 54.75 49.00 54.00 49.00 M 58.00 49.00 C 58.00 49.75 58.00 51.25 58.00 52.00 C 60.00 52.00 62.00 52.00 64.00 52.00 C 64.00 51.25 64.00 49.75 64.00 49.00 C 62.00 49.00 60.00 49.00 58.00 49.00 Z" />
<path fill="#000000" opacity="1.00" d=" M 37.00 50.00 C 40.01 47.69 42.97 45.33 46.01 43.06 C 45.99 47.69 46.01 52.33 45.99 56.97 C 42.99 54.64 40.00 52.33 37.00 50.00 Z" />
<path fill="#000000" opacity="1.00" d=" M 72.01 56.97 C 72.09 52.32 71.75 47.65 72.23 43.01 C 75.03 45.49 78.05 47.69 80.99 50.00 C 78.00 52.33 75.00 54.64 72.01 56.97 Z" />
</g>
<g id="#7185b5ff">
<path fill="#7185b5" opacity="1.00" d=" M 33.14 10.22 C 48.74 9.70 64.38 10.17 80.00 9.98 C 88.47 9.74 97.01 12.96 103.10 18.87 C 109.38 24.81 113.09 33.39 113.01 42.04 C 113.00 60.34 112.98 78.65 113.02 96.95 C 113.13 102.04 112.14 107.18 109.89 111.77 C 104.80 122.69 93.12 130.16 81.05 130.00 C 65.70 129.95 50.35 130.09 35.01 129.94 C 19.40 129.31 5.72 115.67 5.06 100.06 C 4.93 80.36 5.02 60.66 5.01 40.96 C 5.19 25.62 17.90 11.79 33.14 10.22 M 30.51 12.71 C 17.51 15.41 7.23 27.64 7.03 40.96 C 6.96 59.99 7.01 79.03 7.01 98.06 C 6.85 109.34 13.84 120.24 24.02 125.02 C 28.94 127.54 34.56 128.20 40.02 128.00 C 54.37 127.93 68.73 128.13 83.08 127.90 C 97.93 127.24 110.83 113.91 110.96 99.04 C 111.03 79.68 111.03 60.31 110.96 40.95 C 110.83 26.09 97.94 12.80 83.11 12.10 C 70.08 11.88 57.03 12.06 43.99 12.00 C 39.50 12.06 34.94 11.71 30.51 12.71 Z" />
</g>
<g id="#f8fcf8ff">
<path fill="#f8fcf8" opacity="1.00" d=" M 42.53 40.63 C 44.62 38.63 47.53 39.94 50.00 40.12 C 50.00 43.08 50.00 46.04 50.00 49.00 C 50.75 49.00 52.25 49.00 53.00 49.00 C 53.00 49.75 53.00 51.25 53.00 52.00 C 52.25 52.00 50.75 52.00 50.00 52.00 C 50.00 54.63 50.00 57.26 50.00 59.89 C 47.06 60.43 43.67 61.16 41.46 58.54 C 38.44 55.61 31.97 53.33 34.00 48.04 C 36.10 44.87 39.75 43.15 42.53 40.63 M 37.00 50.00 C 40.00 52.33 42.99 54.64 45.99 56.97 C 46.01 52.33 45.99 47.69 46.01 43.06 C 42.97 45.33 40.01 47.69 37.00 50.00 Z" />
<path fill="#f8fcf8" opacity="1.00" d=" M 69.12 40.06 C 71.20 39.62 73.69 38.87 75.43 40.60 C 78.13 42.89 81.22 44.74 83.64 47.34 C 85.40 49.88 84.00 53.18 81.55 54.64 C 77.77 57.15 74.24 62.24 69.12 59.92 C 68.35 57.34 67.85 54.70 67.94 52.00 C 67.21 52.00 65.74 52.00 65.00 52.00 C 65.00 51.25 65.00 49.75 65.00 49.00 C 65.74 49.00 67.23 49.00 67.98 49.00 C 67.81 45.97 68.20 42.95 69.12 40.06 M 72.01 56.97 C 75.00 54.64 78.00 52.33 80.99 50.00 C 78.05 47.69 75.03 45.49 72.23 43.01 C 71.75 47.65 72.09 52.32 72.01 56.97 Z" />
<path fill="#f8fcf8" opacity="1.00" d=" M 54.00 49.00 C 54.75 49.00 56.25 49.00 57.00 49.00 C 57.00 49.75 57.00 51.25 57.00 52.00 C 56.25 52.00 54.75 52.00 54.00 52.00 C 54.00 51.25 54.00 49.75 54.00 49.00 Z" />
<path fill="#f8fcf8" opacity="1.00" d=" M 58.00 49.00 C 60.00 49.00 62.00 49.00 64.00 49.00 C 64.00 49.75 64.00 51.25 64.00 52.00 C 62.00 52.00 60.00 52.00 58.00 52.00 C 58.00 51.25 58.00 49.75 58.00 49.00 Z" />
</g>
</svg>
