<?xml version="1.0" encoding="UTF-8" ?>
<!DOCTYPE svg PUBLIC "-//W3C//DTD SVG 1.1//EN" "http://www.w3.org/Graphics/SVG/1.1/DTD/svg11.dtd">
<svg width="117px" height="140px" viewBox="0 0 117 140" version="1.1" xmlns="http://www.w3.org/2000/svg">
<g id="#000000ff">
<path fill="#000000" opacity="1.00" d=" M 0.00 0.00 L 117.00 0.00 L 117.00 140.00 L 0.00 140.00 L 0.00 0.00 M 33.21 10.25 C 17.93 11.77 5.19 25.65 5.04 41.02 C 4.98 60.35 4.97 79.68 5.04 99.01 C 5.16 115.36 19.66 129.85 36.01 129.96 C 51.69 129.98 67.39 130.11 83.08 129.89 C 99.01 129.25 112.83 114.97 112.95 99.02 C 113.06 80.03 112.99 61.03 112.98 42.04 C 113.05 33.14 109.14 24.34 102.54 18.38 C 96.50 12.78 88.22 9.81 80.00 9.99 C 64.41 10.17 48.79 9.68 33.21 10.25 Z" />
<path fill="#000000" opacity="1.00" d=" M 33.22 12.30 C 49.46 11.76 65.74 12.14 81.99 12.10 C 97.24 12.17 110.84 25.73 110.89 40.99 C 111.02 59.66 110.92 78.33 110.94 96.99 C 111.94 113.32 97.42 128.40 81.05 127.92 C 66.01 127.96 50.96 127.99 35.92 127.90 C 20.72 127.78 7.19 114.27 7.10 99.05 C 7.02 79.68 7.02 60.31 7.10 40.94 C 7.23 26.70 19.08 13.79 33.22 12.30 M 54.24 28.08 C 47.69 29.46 41.76 33.40 37.80 38.77 C 30.66 48.19 30.58 62.61 38.25 71.73 C 41.02 72.43 40.28 69.03 39.02 67.80 C 32.27 57.44 35.37 42.33 45.39 35.22 C 52.28 30.20 61.81 28.90 69.64 32.46 C 79.87 36.47 86.12 48.16 84.26 58.90 C 83.72 62.68 82.00 66.11 80.12 69.37 C 78.63 70.65 81.13 73.00 82.15 71.23 C 87.97 63.83 89.00 53.17 85.46 44.55 C 80.67 32.56 66.88 25.13 54.24 28.08 M 57.87 57.20 C 56.06 59.83 61.09 62.47 62.08 59.32 C 63.89 54.97 65.23 50.43 67.09 46.09 C 64.14 49.90 60.85 53.43 57.87 57.20 Z" />
</g>
<g id="#788cc0ff">
<path fill="#788cc0" opacity="1.00" d=" M 33.21 10.25 C 48.79 9.68 64.41 10.17 80.00 9.99 C 88.22 9.81 96.50 12.78 102.54 18.38 C 109.14 24.34 113.05 33.14 112.98 42.04 C 112.99 61.03 113.06 80.03 112.95 99.02 C 112.83 114.97 99.01 129.25 83.08 129.89 C 67.39 130.11 51.69 129.98 36.01 129.96 C 19.66 129.85 5.16 115.36 5.04 99.01 C 4.97 79.68 4.98 60.35 5.04 41.02 C 5.19 25.65 17.93 11.77 33.21 10.25 M 33.22 12.30 C 19.08 13.79 7.23 26.70 7.10 40.94 C 7.02 60.31 7.02 79.68 7.10 99.05 C 7.19 114.27 20.72 127.78 35.92 127.90 C 50.96 127.99 66.01 127.96 81.05 127.92 C 97.42 128.40 111.94 113.32 110.94 96.99 C 110.92 78.33 111.02 59.66 110.89 40.99 C 110.84 25.73 97.24 12.17 81.99 12.10 C 65.74 12.14 49.46 11.76 33.22 12.30 Z" />
</g>
<g id="#f8fcf8ff">
<path fill="#f8fcf8" opacity="1.00" d=" M 54.24 28.08 C 66.88 25.13 80.67 32.56 85.46 44.55 C 89.00 53.17 87.97 63.83 82.15 71.23 C 81.13 73.00 78.63 70.65 80.12 69.37 C 82.00 66.11 83.72 62.68 84.26 58.90 C 86.12 48.16 79.87 36.47 69.64 32.46 C 61.81 28.90 52.28 30.20 45.39 35.22 C 35.37 42.33 32.27 57.44 39.02 67.80 C 40.28 69.03 41.02 72.43 38.25 71.73 C 30.58 62.61 30.66 48.19 37.80 38.77 C 41.76 33.40 47.69 29.46 54.24 28.08 Z" />
<path fill="#f8fcf8" opacity="1.00" d=" M 57.87 57.20 C 60.85 53.43 64.14 49.90 67.09 46.09 C 65.23 50.43 63.89 54.97 62.08 59.32 C 61.09 62.47 56.06 59.83 57.87 57.20 Z" />
</g>
</svg>
