<?xml version="1.0" encoding="UTF-8" ?>
<!DOCTYPE svg PUBLIC "-//W3C//DTD SVG 1.1//EN" "http://www.w3.org/Graphics/SVG/1.1/DTD/svg11.dtd">
<svg width="100pt" height="100pt" viewBox="0 0 100 100" version="1.1" xmlns="http://www.w3.org/2000/svg">
<g id="#407cc8ff">
<path fill="#407cc8" opacity="1.00" d=" M 0.00 0.00 L 100.00 0.00 L 100.00 100.00 L 0.00 100.00 L 0.00 0.00 M 29.29 19.70 C 29.37 20.08 29.54 20.83 29.62 21.20 C 32.30 22.81 35.00 24.40 37.78 25.82 C 38.43 29.06 36.31 31.68 34.93 34.39 C 34.18 34.41 32.69 34.45 31.94 34.47 C 29.13 32.80 26.46 30.70 23.18 30.06 C 23.72 36.59 30.57 42.30 37.11 39.76 C 39.99 42.55 43.04 45.22 45.59 48.31 C 45.57 48.91 45.52 50.11 45.50 50.72 C 43.83 49.99 41.68 48.44 40.00 50.05 C 35.30 53.96 31.31 58.65 26.89 62.87 C 23.86 66.15 20.02 68.84 18.05 72.96 C 20.60 75.82 23.30 78.53 26.19 81.06 C 27.86 80.22 29.57 79.36 30.87 77.97 C 35.70 73.12 40.51 68.23 45.38 63.42 C 46.85 61.89 48.41 60.38 49.40 58.48 C 50.40 56.75 48.77 55.04 48.36 53.41 C 48.95 53.47 50.13 53.60 50.72 53.66 C 54.29 57.02 57.31 60.93 60.68 64.49 C 59.70 70.00 62.17 75.43 66.80 78.48 C 70.25 78.75 73.73 78.74 77.18 78.27 C 74.94 75.94 71.90 74.76 69.25 73.01 C 68.33 72.28 66.86 71.53 67.40 70.10 C 68.33 67.79 69.86 65.78 70.86 63.50 C 75.49 62.95 78.09 68.42 82.62 67.57 C 81.63 63.90 79.32 60.83 76.28 58.60 C 73.78 58.19 71.10 57.00 68.73 58.51 C 64.52 54.68 60.06 50.75 57.11 45.88 C 58.98 43.50 61.36 41.60 63.44 39.40 C 67.73 35.32 71.35 29.93 77.60 28.84 C 78.64 26.56 79.69 24.28 80.86 22.06 C 79.46 20.58 77.97 19.17 76.17 18.19 C 74.44 19.17 72.48 19.77 70.87 20.94 C 68.95 23.18 68.97 26.57 66.64 28.55 C 62.13 33.09 57.68 37.69 53.04 42.10 C 50.22 39.32 47.46 36.49 44.64 33.72 C 44.55 31.06 45.04 28.28 44.18 25.72 C 42.79 23.27 40.55 21.49 38.52 19.62 C 35.44 19.31 32.36 19.37 29.29 19.70 Z" />
</g>
<g id="#f8fcf8ff">
<path fill="#f8fcf8" opacity="1.00" d=" M 29.29 19.70 C 32.36 19.37 35.44 19.31 38.52 19.62 C 40.55 21.49 42.79 23.27 44.18 25.72 C 45.04 28.28 44.55 31.06 44.64 33.72 C 47.46 36.49 50.22 39.32 53.04 42.10 C 57.68 37.69 62.13 33.09 66.64 28.55 C 68.97 26.57 68.95 23.18 70.87 20.94 C 72.48 19.77 74.44 19.17 76.17 18.19 C 77.97 19.17 79.46 20.58 80.86 22.06 C 79.69 24.28 78.64 26.56 77.60 28.84 C 71.35 29.93 67.73 35.32 63.44 39.40 C 61.36 41.60 58.98 43.50 57.11 45.88 C 60.06 50.75 64.52 54.68 68.73 58.51 C 71.10 57.00 73.78 58.19 76.28 58.60 C 79.32 60.83 81.63 63.90 82.62 67.57 C 78.09 68.42 75.49 62.95 70.86 63.50 C 69.86 65.78 68.33 67.79 67.40 70.10 C 66.86 71.53 68.33 72.28 69.25 73.01 C 71.90 74.76 74.94 75.94 77.18 78.27 C 73.73 78.74 70.25 78.75 66.80 78.48 C 62.17 75.43 59.70 70.00 60.68 64.49 C 57.31 60.93 54.29 57.02 50.72 53.66 C 50.13 53.60 48.95 53.47 48.36 53.41 C 48.77 55.04 50.40 56.75 49.40 58.48 C 48.41 60.38 46.85 61.89 45.38 63.42 C 40.51 68.23 35.70 73.12 30.87 77.97 C 29.57 79.36 27.86 80.22 26.19 81.06 C 23.30 78.53 20.60 75.82 18.05 72.96 C 20.02 68.84 23.86 66.15 26.89 62.87 C 31.31 58.65 35.30 53.96 40.00 50.05 C 41.68 48.44 43.83 49.99 45.50 50.72 C 45.52 50.11 45.57 48.91 45.59 48.31 C 43.04 45.22 39.99 42.55 37.11 39.76 C 30.57 42.30 23.72 36.59 23.18 30.06 C 26.46 30.70 29.13 32.80 31.94 34.47 C 32.69 34.45 34.18 34.41 34.93 34.39 C 36.31 31.68 38.43 29.06 37.78 25.82 C 35.00 24.40 32.30 22.81 29.62 21.20 C 29.54 20.83 29.37 20.08 29.29 19.70 Z" />
</g>
</svg>
