<?xml version="1.0" encoding="UTF-8" ?>
<!DOCTYPE svg PUBLIC "-//W3C//DTD SVG 1.1//EN" "http://www.w3.org/Graphics/SVG/1.1/DTD/svg11.dtd">
<svg width="117px" height="140px" viewBox="0 0 117 140" version="1.1" xmlns="http://www.w3.org/2000/svg">
<g id="#000000ff">
<path fill="#000000" opacity="1.00" d=" M 0.00 0.00 L 117.00 0.00 L 117.00 140.00 L 0.00 140.00 L 0.00 0.00 M 33.14 10.21 C 17.89 11.79 5.17 25.64 5.01 40.99 C 5.03 60.68 4.93 80.37 5.06 100.05 C 5.72 115.65 19.36 129.28 34.96 129.94 C 50.30 130.09 65.65 129.95 80.99 130.01 C 93.37 130.19 105.30 122.35 110.24 111.03 C 112.24 106.65 113.11 101.82 113.02 97.02 C 112.98 78.68 113.00 60.35 113.01 42.01 C 113.09 32.85 108.91 23.81 101.98 17.84 C 95.97 12.56 87.94 9.75 79.96 9.98 C 64.36 10.17 48.73 9.70 33.14 10.21 Z" />
<path fill="#000000" opacity="1.00" d=" M 30.47 12.72 C 34.91 11.70 39.50 12.06 44.02 12.00 C 57.02 12.05 70.03 11.89 83.04 12.09 C 97.88 12.76 110.80 26.03 110.96 40.90 C 111.03 60.26 111.02 79.62 110.96 98.98 C 110.86 113.87 97.96 127.22 83.10 127.90 C 68.40 128.13 53.69 127.93 38.99 128.01 C 33.61 128.18 28.12 127.25 23.34 124.68 C 13.50 119.76 6.84 109.04 7.01 98.01 C 7.01 79.01 6.97 60.01 7.03 41.01 C 7.21 27.69 17.46 15.44 30.47 12.72 M 52.59 27.00 C 52.64 33.20 52.57 39.40 52.65 45.60 C 46.43 45.62 40.22 45.60 34.00 45.61 C 34.07 49.75 33.85 53.89 34.08 58.03 C 34.32 58.31 34.80 58.87 35.04 59.16 C 40.91 59.43 46.79 59.14 52.66 59.29 C 52.69 65.21 52.37 71.15 52.79 77.06 C 54.73 78.79 57.61 77.66 59.96 77.99 C 61.98 77.69 64.61 78.76 66.10 76.94 C 66.47 71.06 66.16 65.15 66.23 59.26 C 71.50 59.24 76.77 59.29 82.04 59.25 C 83.40 59.54 85.05 58.81 84.94 57.23 C 85.07 53.36 84.89 49.49 85.00 45.62 C 78.73 45.60 72.47 45.61 66.20 45.61 C 66.30 39.41 66.24 33.20 66.26 27.00 C 61.70 27.00 57.15 27.00 52.59 27.00 Z" />
<path fill="#000000" opacity="1.00" d=" M 56.04 30.25 C 58.31 30.23 60.58 30.23 62.85 30.23 C 62.83 36.50 62.83 42.78 62.84 49.06 C 69.11 49.09 75.38 49.02 81.65 49.10 C 81.62 51.33 81.63 53.57 81.66 55.80 C 75.38 55.87 69.11 55.82 62.84 55.84 C 62.84 62.10 62.82 68.36 62.86 74.62 C 60.61 74.60 58.35 74.61 56.09 74.67 C 56.01 68.39 56.10 62.12 56.06 55.84 C 49.77 55.81 43.48 55.88 37.18 55.80 C 37.21 53.56 37.22 51.33 37.21 49.09 C 43.50 48.96 49.80 49.23 56.08 48.93 C 56.04 42.70 56.09 36.47 56.04 30.25 Z" />
</g>
<g id="#7185b5ff">
<path fill="#7185b5" opacity="1.00" d=" M 33.14 10.21 C 48.73 9.70 64.36 10.17 79.96 9.98 C 87.94 9.75 95.97 12.56 101.98 17.84 C 108.91 23.81 113.09 32.85 113.01 42.01 C 113.00 60.35 112.98 78.68 113.02 97.02 C 113.11 101.82 112.24 106.65 110.24 111.03 C 105.30 122.35 93.37 130.19 80.99 130.01 C 65.65 129.95 50.30 130.09 34.96 129.94 C 19.36 129.28 5.72 115.65 5.06 100.05 C 4.93 80.37 5.03 60.68 5.01 40.99 C 5.17 25.64 17.89 11.79 33.14 10.21 M 30.47 12.72 C 17.46 15.44 7.21 27.69 7.03 41.01 C 6.97 60.01 7.01 79.01 7.01 98.01 C 6.84 109.04 13.50 119.76 23.34 124.68 C 28.12 127.25 33.61 128.18 38.99 128.01 C 53.69 127.93 68.40 128.13 83.10 127.90 C 97.96 127.22 110.86 113.87 110.96 98.98 C 111.02 79.62 111.03 60.26 110.96 40.90 C 110.80 26.03 97.88 12.76 83.04 12.09 C 70.03 11.89 57.02 12.05 44.02 12.00 C 39.50 12.06 34.91 11.70 30.47 12.72 Z" />
</g>
<g id="#f8fcf8ff">
<path fill="#f8fcf8" opacity="1.00" d=" M 52.59 27.00 C 57.15 27.00 61.70 27.00 66.26 27.00 C 66.24 33.20 66.30 39.41 66.20 45.61 C 72.47 45.61 78.73 45.60 85.00 45.62 C 84.89 49.49 85.07 53.36 84.94 57.23 C 85.05 58.81 83.40 59.54 82.04 59.25 C 76.77 59.29 71.50 59.24 66.23 59.26 C 66.16 65.15 66.47 71.06 66.10 76.94 C 64.61 78.76 61.98 77.69 59.96 77.99 C 57.61 77.66 54.73 78.79 52.79 77.06 C 52.37 71.15 52.69 65.21 52.66 59.29 C 46.79 59.14 40.91 59.43 35.04 59.16 C 34.80 58.87 34.32 58.31 34.08 58.03 C 33.85 53.89 34.07 49.75 34.00 45.61 C 40.22 45.60 46.43 45.62 52.65 45.60 C 52.57 39.40 52.64 33.20 52.59 27.00 M 56.04 30.25 C 56.09 36.47 56.04 42.70 56.08 48.93 C 49.80 49.23 43.50 48.96 37.21 49.09 C 37.22 51.33 37.21 53.56 37.18 55.80 C 43.48 55.88 49.77 55.81 56.06 55.84 C 56.10 62.12 56.01 68.39 56.09 74.67 C 58.35 74.61 60.61 74.60 62.86 74.62 C 62.82 68.36 62.84 62.10 62.84 55.84 C 69.11 55.82 75.38 55.87 81.66 55.80 C 81.63 53.57 81.62 51.33 81.65 49.10 C 75.38 49.02 69.11 49.09 62.84 49.06 C 62.83 42.78 62.83 36.50 62.85 30.23 C 60.58 30.23 58.31 30.23 56.04 30.25 Z" />
</g>
</svg>
