<?xml version="1.0" encoding="UTF-8" ?>
<!DOCTYPE svg PUBLIC "-//W3C//DTD SVG 1.1//EN" "http://www.w3.org/Graphics/SVG/1.1/DTD/svg11.dtd">
<svg width="117px" height="140px" viewBox="0 0 117 140" version="1.1" xmlns="http://www.w3.org/2000/svg">
<g id="#000000ff">
<path fill="#000000" opacity="1.00" d=" M 0.00 0.00 L 117.00 0.00 L 117.00 140.00 L 0.00 140.00 L 0.00 0.00 M 29.37 10.46 C 17.98 12.90 8.29 21.81 5.10 33.03 C 3.69 37.21 4.01 41.68 4.00 46.02 C 4.01 64.01 3.99 82.00 4.00 99.99 C 4.41 115.30 17.72 128.93 32.95 129.97 C 49.63 130.04 66.31 129.98 82.99 130.00 C 98.92 129.35 112.82 115.00 112.94 99.04 C 113.03 79.69 113.03 60.32 112.94 40.97 C 112.82 25.01 98.92 10.64 82.99 10.00 C 66.99 9.98 50.99 10.02 34.99 9.98 C 33.11 9.99 31.21 10.05 29.37 10.46 Z" />
<path fill="#000000" opacity="1.00" d=" M 35.09 12.21 C 45.72 11.83 56.37 12.16 67.01 12.05 C 75.67 12.18 84.89 11.13 92.90 15.16 C 100.97 18.86 106.91 26.46 109.02 35.01 C 109.93 38.95 110.08 43.01 110.02 47.04 C 109.94 64.06 110.09 81.07 109.95 98.09 C 109.77 109.00 103.45 119.73 93.54 124.53 C 88.19 127.41 81.97 127.96 76.01 127.97 C 62.99 127.90 49.96 128.00 36.94 127.92 C 28.42 127.72 19.91 124.16 14.34 117.60 C 9.70 112.20 6.95 105.16 7.07 98.00 C 7.06 78.97 6.99 59.93 7.10 40.89 C 7.20 25.96 20.22 12.80 35.09 12.21 M 47.84 30.09 C 47.27 33.39 47.67 36.76 47.62 40.10 C 46.66 40.84 44.74 41.26 45.02 42.85 C 45.03 53.84 44.88 64.83 45.09 75.81 C 45.37 76.08 45.91 76.61 46.18 76.87 C 53.45 77.16 60.74 76.95 68.02 76.98 C 69.77 77.34 71.24 75.81 70.96 74.07 C 70.93 63.69 71.05 53.29 70.90 42.91 C 71.01 41.32 69.15 40.89 68.17 40.07 C 67.94 36.38 69.10 32.33 67.19 28.95 C 61.12 29.14 55.04 28.82 48.97 29.09 C 48.69 29.34 48.12 29.84 47.84 30.09 Z" />
<path fill="#000000" opacity="1.00" d=" M 49.60 30.70 C 53.65 29.90 57.87 30.58 61.99 30.34 C 63.35 30.62 65.33 29.70 66.23 31.09 C 66.46 34.21 66.28 37.35 66.33 40.48 C 60.68 40.43 55.02 40.47 49.37 40.44 C 49.50 37.20 49.20 33.93 49.60 30.70 M 53.10 32.52 C 53.06 33.75 53.06 34.99 53.09 36.23 C 53.81 36.24 55.26 36.27 55.98 36.28 C 56.06 35.09 56.17 33.89 56.23 32.69 C 55.18 32.63 54.14 32.57 53.10 32.52 M 58.77 32.65 C 58.78 33.85 58.78 35.05 58.77 36.25 C 59.86 36.21 60.95 36.19 62.05 36.18 C 61.92 34.97 61.83 33.76 61.79 32.55 C 60.78 32.58 59.78 32.61 58.77 32.65 Z" />
<path fill="#000000" opacity="1.00" d=" M 57.57 50.72 C 55.10 49.37 54.97 45.49 58.17 45.11 C 61.47 45.21 61.45 49.45 58.97 50.84 C 58.90 56.98 58.95 63.12 58.94 69.26 C 60.68 68.99 62.98 69.66 64.08 67.87 C 64.51 64.72 64.43 61.50 64.20 58.34 C 63.85 58.06 63.14 57.50 62.79 57.23 C 62.78 55.71 62.77 54.19 62.78 52.68 C 64.39 52.68 66.00 52.68 67.62 52.68 C 67.65 54.25 67.69 55.83 67.73 57.40 C 67.26 57.57 66.33 57.90 65.86 58.06 C 65.51 61.36 66.15 64.72 65.54 67.98 C 63.91 71.78 59.22 70.44 55.99 70.64 C 53.88 70.93 51.75 69.89 50.97 67.86 C 50.55 65.09 50.83 62.28 50.85 59.49 C 50.22 59.46 48.97 59.40 48.34 59.36 C 49.27 57.76 50.22 56.17 51.13 54.55 C 51.93 56.12 52.95 57.56 53.76 59.13 C 53.38 59.30 52.61 59.66 52.23 59.83 C 52.09 62.33 52.21 64.84 52.09 67.34 C 53.33 69.33 55.51 69.33 57.61 69.15 C 57.53 63.01 57.61 56.86 57.57 50.72 Z" />
</g>
<g id="#708cc8ff">
<path fill="#708cc8" opacity="1.00" d=" M 29.37 10.46 C 31.21 10.05 33.11 9.99 34.99 9.98 C 50.99 10.02 66.99 9.98 82.99 10.00 C 98.92 10.64 112.82 25.01 112.94 40.97 C 113.03 60.32 113.03 79.69 112.94 99.04 C 112.82 115.00 98.92 129.35 82.99 130.00 C 66.31 129.98 49.63 130.04 32.95 129.97 C 17.72 128.93 4.41 115.30 4.00 99.99 C 3.99 82.00 4.01 64.01 4.00 46.02 C 4.01 41.68 3.69 37.21 5.10 33.03 C 8.29 21.81 17.98 12.90 29.37 10.46 M 35.09 12.21 C 20.22 12.80 7.20 25.96 7.10 40.89 C 6.99 59.93 7.06 78.97 7.07 98.00 C 6.95 105.16 9.70 112.20 14.34 117.60 C 19.91 124.16 28.42 127.72 36.94 127.92 C 49.96 128.00 62.99 127.90 76.01 127.97 C 81.97 127.96 88.19 127.41 93.54 124.53 C 103.45 119.73 109.77 109.00 109.95 98.09 C 110.09 81.07 109.94 64.06 110.02 47.04 C 110.08 43.01 109.93 38.95 109.02 35.01 C 106.91 26.46 100.97 18.86 92.90 15.16 C 84.89 11.13 75.67 12.18 67.01 12.05 C 56.37 12.16 45.72 11.83 35.09 12.21 Z" />
</g>
<g id="#f8fcf8ff">
<path fill="#f8fcf8" opacity="1.00" d=" M 47.84 30.09 C 48.12 29.84 48.69 29.34 48.97 29.09 C 55.04 28.82 61.12 29.14 67.19 28.95 C 69.10 32.33 67.94 36.38 68.17 40.07 C 69.15 40.89 71.01 41.32 70.90 42.91 C 71.05 53.29 70.93 63.69 70.96 74.07 C 71.24 75.81 69.77 77.34 68.02 76.98 C 60.74 76.95 53.45 77.16 46.18 76.87 C 45.91 76.61 45.37 76.08 45.09 75.81 C 44.88 64.83 45.03 53.84 45.02 42.85 C 44.74 41.26 46.66 40.84 47.62 40.10 C 47.67 36.76 47.27 33.39 47.84 30.09 M 49.60 30.70 C 49.20 33.93 49.50 37.20 49.37 40.44 C 55.02 40.47 60.68 40.43 66.33 40.48 C 66.28 37.35 66.46 34.21 66.23 31.09 C 65.33 29.70 63.35 30.62 61.99 30.34 C 57.87 30.58 53.65 29.90 49.60 30.70 M 57.57 50.72 C 57.61 56.86 57.53 63.01 57.61 69.15 C 55.51 69.33 53.33 69.33 52.09 67.34 C 52.21 64.84 52.09 62.33 52.23 59.83 C 52.61 59.66 53.38 59.30 53.76 59.13 C 52.95 57.56 51.93 56.12 51.13 54.55 C 50.22 56.17 49.27 57.76 48.34 59.36 C 48.97 59.40 50.22 59.46 50.85 59.49 C 50.83 62.28 50.55 65.09 50.97 67.86 C 51.75 69.89 53.88 70.93 55.99 70.64 C 59.22 70.44 63.91 71.78 65.54 67.98 C 66.15 64.72 65.51 61.36 65.86 58.06 C 66.33 57.90 67.26 57.57 67.73 57.40 C 67.69 55.83 67.65 54.25 67.62 52.68 C 66.00 52.68 64.39 52.68 62.78 52.68 C 62.77 54.19 62.78 55.71 62.79 57.23 C 63.14 57.50 63.85 58.06 64.20 58.34 C 64.43 61.50 64.51 64.72 64.08 67.87 C 62.98 69.66 60.68 68.99 58.94 69.26 C 58.95 63.12 58.90 56.98 58.97 50.84 C 61.45 49.45 61.47 45.21 58.17 45.11 C 54.97 45.49 55.10 49.37 57.57 50.72 Z" />
<path fill="#f8fcf8" opacity="1.00" d=" M 53.10 32.52 C 54.14 32.57 55.18 32.63 56.23 32.69 C 56.17 33.89 56.06 35.09 55.98 36.28 C 55.26 36.27 53.81 36.24 53.09 36.23 C 53.06 34.99 53.06 33.75 53.10 32.52 Z" />
<path fill="#f8fcf8" opacity="1.00" d=" M 58.77 32.65 C 59.78 32.61 60.78 32.58 61.79 32.55 C 61.83 33.76 61.92 34.97 62.05 36.18 C 60.95 36.19 59.86 36.21 58.77 36.25 C 58.78 35.05 58.78 33.85 58.77 32.65 Z" />
</g>
</svg>
