<?xml version="1.0" encoding="UTF-8" ?>
<!DOCTYPE svg PUBLIC "-//W3C//DTD SVG 1.1//EN" "http://www.w3.org/Graphics/SVG/1.1/DTD/svg11.dtd">
<svg width="117px" height="140px" viewBox="0 0 117 140" version="1.1" xmlns="http://www.w3.org/2000/svg">
<g id="#000000ff">
<path fill="#000000" opacity="1.00" d=" M 0.00 0.00 L 117.00 0.00 L 117.00 140.00 L 0.00 140.00 L 0.00 0.00 M 33.21 10.21 C 17.94 11.74 5.17 25.61 5.01 40.98 C 5.02 60.68 4.92 80.38 5.06 100.07 C 5.72 116.04 20.04 129.88 36.03 129.99 C 51.71 129.98 67.41 130.09 83.09 129.93 C 99.03 129.27 112.86 114.99 112.98 99.04 C 112.99 79.36 113.08 59.68 112.93 40.01 C 112.33 24.04 98.05 10.19 82.08 10.02 C 65.79 10.11 49.48 9.73 33.21 10.21 Z" />
<path fill="#000000" opacity="1.00" d=" M 30.52 12.70 C 35.29 11.68 40.20 12.08 45.04 12.00 C 57.72 12.06 70.41 11.87 83.08 12.10 C 97.92 12.77 110.83 26.07 110.95 40.94 C 111.03 60.31 111.03 79.69 110.95 99.07 C 110.83 114.31 97.25 127.84 82.02 127.95 C 66.67 128.04 51.33 128.02 35.98 127.96 C 20.73 127.83 7.15 114.29 7.04 99.03 C 6.97 79.69 6.97 60.34 7.04 41.00 C 7.20 27.66 17.50 15.42 30.52 12.70 M 40.66 45.04 C 41.50 46.10 42.43 47.09 43.42 48.01 C 45.66 47.60 47.56 46.06 49.82 45.61 C 55.55 43.78 61.63 46.03 66.29 49.42 C 68.21 46.75 70.05 44.01 71.54 41.08 C 66.32 37.04 59.30 37.05 53.04 37.77 C 48.36 38.91 43.73 41.24 40.66 45.04 M 67.19 51.00 C 70.58 54.35 71.33 59.07 71.97 63.57 C 75.73 63.58 79.49 63.60 83.25 63.54 C 84.22 54.96 79.50 46.84 72.91 41.69 C 71.12 44.86 69.25 47.99 67.19 51.00 M 33.77 58.71 C 34.68 59.13 35.60 59.55 36.52 59.97 C 37.60 57.30 38.24 54.33 40.19 52.11 C 40.89 51.11 42.01 50.31 42.21 49.04 C 41.70 47.64 40.18 47.21 39.06 46.46 C 36.61 50.20 34.52 54.26 33.77 58.71 M 43.17 50.15 C 43.12 50.40 43.03 50.90 42.99 51.15 C 46.37 55.71 49.77 60.27 52.87 65.04 C 53.95 63.98 55.06 62.96 56.20 61.97 C 52.00 58.10 48.10 53.93 44.12 49.85 C 43.88 49.93 43.41 50.08 43.17 50.15 M 55.88 64.85 C 52.73 67.07 56.36 71.61 59.47 69.85 C 59.98 68.84 60.50 67.84 61.02 66.83 C 59.80 65.22 57.94 63.01 55.88 64.85 Z" />
<path fill="#000000" opacity="1.00" d=" M 54.72 41.25 C 56.52 40.85 58.36 40.72 60.20 40.69 C 59.17 43.04 56.58 41.48 54.72 41.25 Z" />
<path fill="#000000" opacity="1.00" d=" M 62.70 41.09 C 64.13 41.44 65.55 41.81 66.98 42.17 C 66.35 43.02 65.72 43.87 65.10 44.73 C 63.87 43.81 62.80 42.71 62.70 41.09 Z" />
<path fill="#000000" opacity="1.00" d=" M 72.41 49.57 C 71.74 48.59 72.81 46.57 74.08 47.18 C 74.95 48.13 73.56 50.03 72.41 49.57 Z" />
<path fill="#000000" opacity="1.00" d=" M 72.78 53.34 C 74.01 52.33 75.23 51.32 76.47 50.33 C 77.03 51.45 77.58 52.57 78.13 53.69 C 76.86 54.28 75.60 54.89 74.35 55.50 C 73.82 54.78 73.30 54.06 72.78 53.34 Z" />
<path fill="#000000" opacity="1.00" d=" M 74.17 59.87 C 75.71 58.71 77.38 57.76 79.05 56.79 C 79.28 57.87 79.51 58.96 79.75 60.04 C 77.89 60.01 76.02 59.98 74.17 59.87 Z" />
</g>
<g id="#7185b5ff">
<path fill="#7185b5" opacity="1.00" d=" M 33.21 10.21 C 49.48 9.73 65.79 10.11 82.08 10.02 C 98.05 10.19 112.33 24.04 112.93 40.01 C 113.08 59.68 112.99 79.36 112.98 99.04 C 112.86 114.99 99.03 129.27 83.09 129.93 C 67.41 130.09 51.71 129.98 36.03 129.99 C 20.04 129.88 5.72 116.04 5.06 100.07 C 4.92 80.38 5.02 60.68 5.01 40.98 C 5.17 25.61 17.94 11.74 33.21 10.21 M 30.52 12.70 C 17.50 15.42 7.20 27.66 7.04 41.00 C 6.97 60.34 6.97 79.69 7.04 99.03 C 7.15 114.29 20.73 127.83 35.98 127.96 C 51.33 128.02 66.67 128.04 82.02 127.95 C 97.25 127.84 110.83 114.31 110.95 99.07 C 111.03 79.69 111.03 60.31 110.95 40.94 C 110.83 26.07 97.92 12.77 83.08 12.10 C 70.41 11.87 57.72 12.06 45.04 12.00 C 40.20 12.08 35.29 11.68 30.52 12.70 Z" />
</g>
<g id="#f8fcf8ff">
<path fill="#f8fcf8" opacity="1.00" d=" M 40.66 45.04 C 43.73 41.24 48.36 38.91 53.04 37.77 C 59.30 37.05 66.32 37.04 71.54 41.08 C 70.05 44.01 68.21 46.75 66.29 49.42 C 61.63 46.03 55.55 43.78 49.82 45.61 C 47.56 46.06 45.66 47.60 43.42 48.01 C 42.43 47.09 41.50 46.10 40.66 45.04 M 54.72 41.25 C 56.58 41.48 59.17 43.04 60.20 40.69 C 58.36 40.72 56.52 40.85 54.72 41.25 M 62.70 41.09 C 62.80 42.71 63.87 43.81 65.10 44.73 C 65.72 43.87 66.35 43.02 66.98 42.17 C 65.55 41.81 64.13 41.44 62.70 41.09 Z" />
<path fill="#f8fcf8" opacity="1.00" d=" M 67.19 51.00 C 69.25 47.99 71.12 44.86 72.91 41.69 C 79.50 46.84 84.22 54.96 83.25 63.54 C 79.49 63.60 75.73 63.58 71.97 63.57 C 71.33 59.07 70.58 54.35 67.19 51.00 M 72.41 49.57 C 73.56 50.03 74.95 48.13 74.08 47.18 C 72.81 46.57 71.74 48.59 72.41 49.57 M 72.78 53.34 C 73.30 54.06 73.82 54.78 74.35 55.50 C 75.60 54.89 76.86 54.28 78.13 53.69 C 77.58 52.57 77.03 51.45 76.47 50.33 C 75.23 51.32 74.01 52.33 72.78 53.34 M 74.17 59.87 C 76.02 59.98 77.89 60.01 79.75 60.04 C 79.51 58.96 79.28 57.87 79.05 56.79 C 77.38 57.76 75.71 58.71 74.17 59.87 Z" />
<path fill="#f8fcf8" opacity="1.00" d=" M 33.77 58.71 C 34.52 54.26 36.61 50.20 39.06 46.46 C 40.18 47.21 41.70 47.64 42.21 49.04 C 42.01 50.31 40.89 51.11 40.19 52.11 C 38.24 54.33 37.60 57.30 36.52 59.97 C 35.60 59.55 34.68 59.13 33.77 58.71 Z" />
<path fill="#f8fcf8" opacity="1.00" d=" M 43.17 50.15 C 43.41 50.08 43.88 49.93 44.12 49.85 C 48.10 53.93 52.00 58.10 56.20 61.97 C 55.06 62.96 53.95 63.98 52.87 65.04 C 49.77 60.27 46.37 55.71 42.99 51.15 C 43.03 50.90 43.12 50.40 43.17 50.15 Z" />
<path fill="#f8fcf8" opacity="1.00" d=" M 55.88 64.85 C 57.94 63.01 59.80 65.22 61.02 66.83 C 60.50 67.84 59.98 68.84 59.47 69.85 C 56.36 71.61 52.73 67.07 55.88 64.85 Z" />
</g>
</svg>
