<?xml version="1.0" encoding="UTF-8" ?>
<!DOCTYPE svg PUBLIC "-//W3C//DTD SVG 1.1//EN" "http://www.w3.org/Graphics/SVG/1.1/DTD/svg11.dtd">
<svg width="117px" height="140px" viewBox="0 0 117 140" version="1.1" xmlns="http://www.w3.org/2000/svg">
<g id="#000000ff">
<path fill="#000000" opacity="1.00" d=" M 0.00 0.00 L 117.00 0.00 L 117.00 140.00 L 0.00 140.00 L 0.00 0.00 M 33.21 10.25 C 17.93 11.77 5.19 25.65 5.04 41.01 C 4.95 60.00 5.02 78.98 5.00 97.97 C 4.96 106.39 8.44 114.72 14.43 120.63 C 20.32 126.58 28.62 130.01 36.99 129.99 C 51.66 130.00 66.33 130.02 81.00 129.98 C 92.05 130.09 102.84 123.93 108.43 114.42 C 111.61 109.23 113.11 103.12 113.00 97.05 C 112.96 78.35 113.07 59.64 112.95 40.94 C 112.74 28.21 104.00 16.25 92.04 11.99 C 84.70 9.12 76.71 10.20 69.03 10.00 C 57.09 10.16 45.14 9.68 33.21 10.25 Z" />
<path fill="#000000" opacity="1.00" d=" M 33.24 12.30 C 49.49 11.77 65.78 12.13 82.04 12.10 C 97.64 12.18 111.37 26.39 110.93 41.99 C 110.94 60.99 111.01 80.01 110.89 99.01 C 110.85 114.22 97.32 127.77 82.12 127.88 C 66.75 128.01 51.37 127.97 36.00 127.90 C 20.78 127.82 7.21 114.32 7.10 99.08 C 7.02 79.71 7.02 60.32 7.10 40.95 C 7.23 26.69 19.09 13.78 33.24 12.30 M 40.03 28.22 C 40.15 34.04 40.08 39.85 40.10 45.67 C 37.76 45.68 35.42 45.68 33.08 45.72 C 33.48 50.52 32.64 55.45 33.54 60.18 C 36.12 62.84 40.22 61.30 43.48 61.62 C 46.49 64.46 49.37 67.46 52.39 70.30 C 48.71 70.34 45.02 70.30 41.34 70.35 C 41.38 72.90 41.40 75.45 41.35 78.00 C 49.53 77.88 57.72 78.24 65.90 77.81 C 65.65 77.30 65.16 76.30 64.92 75.80 C 57.98 75.48 51.02 75.82 44.07 75.64 C 44.04 75.01 43.99 73.76 43.97 73.14 C 47.56 72.96 51.16 72.99 54.75 72.94 C 54.83 72.23 54.98 70.81 55.06 70.10 C 57.66 67.11 60.67 64.49 63.43 61.65 C 66.72 61.27 70.83 62.86 73.45 60.20 C 74.37 55.46 73.52 50.53 73.92 45.72 C 71.58 45.68 69.24 45.68 66.90 45.67 C 66.92 39.85 66.84 34.04 66.98 28.23 C 57.99 28.12 49.01 28.13 40.03 28.22 M 77.82 28.00 C 77.86 39.54 77.80 51.07 77.85 62.61 C 76.06 62.60 74.70 63.44 73.91 65.03 C 76.31 68.99 78.62 73.01 81.00 76.98 C 83.41 73.01 85.68 68.95 88.13 65.00 C 87.16 63.64 85.78 62.82 84.14 62.53 C 84.21 51.02 84.14 39.51 84.18 28.00 C 82.06 28.00 79.94 28.00 77.82 28.00 Z" />
<path fill="#000000" opacity="1.00" d=" M 42.77 30.96 C 49.92 31.03 57.08 30.97 64.24 30.97 C 64.24 36.73 64.35 42.50 64.15 48.27 C 66.43 48.31 68.71 48.33 71.00 48.37 C 70.91 51.88 70.92 55.40 70.97 58.91 C 59.33 59.07 47.67 59.09 36.03 58.91 C 36.08 55.39 36.08 51.87 36.02 48.35 C 42.76 48.27 49.49 48.35 56.22 48.32 C 56.22 47.66 56.22 46.34 56.22 45.68 C 51.73 45.68 47.24 45.66 42.75 45.70 C 42.74 43.92 42.73 42.13 42.71 40.35 C 47.21 40.29 51.72 40.34 56.22 40.32 C 56.22 39.66 56.22 38.34 56.22 37.68 C 51.72 37.68 47.22 37.67 42.73 37.70 C 42.74 35.45 42.75 33.21 42.77 30.96 Z" />
<path fill="#000000" opacity="1.00" d=" M 79.37 31.06 C 80.45 31.05 81.54 31.05 82.63 31.05 C 82.55 42.52 82.58 53.99 82.58 65.46 C 83.33 65.45 84.82 65.45 85.56 65.45 C 84.05 68.03 82.53 70.61 81.00 73.19 C 79.46 70.60 77.93 68.01 76.44 65.41 C 77.18 65.42 78.67 65.45 79.41 65.47 C 79.42 54.00 79.45 42.53 79.37 31.06 Z" />
<path fill="#000000" opacity="1.00" d=" M 47.18 61.72 C 51.40 61.65 55.61 61.65 59.82 61.72 C 57.67 63.70 55.55 65.73 53.51 67.83 C 51.45 65.74 49.33 63.71 47.18 61.72 Z" />
</g>
<g id="#788cc0ff">
<path fill="#788cc0" opacity="1.00" d=" M 33.21 10.25 C 45.14 9.68 57.09 10.16 69.03 10.00 C 76.71 10.20 84.70 9.12 92.04 11.99 C 104.00 16.25 112.74 28.21 112.95 40.94 C 113.07 59.64 112.96 78.35 113.00 97.05 C 113.11 103.12 111.61 109.23 108.43 114.42 C 102.84 123.93 92.05 130.09 81.00 129.98 C 66.33 130.02 51.66 130.00 36.99 129.99 C 28.62 130.01 20.32 126.58 14.43 120.63 C 8.44 114.72 4.96 106.39 5.00 97.97 C 5.02 78.98 4.95 60.00 5.04 41.01 C 5.19 25.65 17.93 11.77 33.21 10.25 M 33.24 12.30 C 19.09 13.78 7.23 26.69 7.10 40.95 C 7.02 60.32 7.02 79.71 7.10 99.08 C 7.21 114.32 20.78 127.82 36.00 127.90 C 51.37 127.97 66.75 128.01 82.12 127.88 C 97.32 127.77 110.85 114.22 110.89 99.01 C 111.01 80.01 110.94 60.99 110.93 41.99 C 111.37 26.39 97.64 12.18 82.04 12.10 C 65.78 12.13 49.49 11.77 33.24 12.30 Z" />
</g>
<g id="#f8fcf8ff">
<path fill="#f8fcf8" opacity="1.00" d=" M 40.03 28.22 C 49.01 28.13 57.99 28.12 66.98 28.23 C 66.84 34.04 66.92 39.85 66.90 45.67 C 69.24 45.68 71.58 45.68 73.92 45.72 C 73.52 50.53 74.37 55.46 73.45 60.20 C 70.83 62.86 66.72 61.27 63.43 61.65 C 60.67 64.49 57.66 67.11 55.06 70.10 C 54.98 70.81 54.83 72.23 54.75 72.94 C 51.16 72.99 47.56 72.96 43.97 73.14 C 43.99 73.76 44.04 75.01 44.07 75.64 C 51.02 75.82 57.98 75.48 64.92 75.80 C 65.16 76.30 65.65 77.30 65.90 77.81 C 57.72 78.24 49.53 77.88 41.35 78.00 C 41.40 75.45 41.38 72.90 41.34 70.35 C 45.02 70.30 48.71 70.34 52.39 70.30 C 49.37 67.46 46.49 64.46 43.48 61.62 C 40.22 61.30 36.12 62.84 33.54 60.18 C 32.64 55.45 33.48 50.52 33.08 45.72 C 35.42 45.68 37.76 45.68 40.10 45.67 C 40.08 39.85 40.15 34.04 40.03 28.22 M 42.77 30.96 C 42.75 33.21 42.74 35.45 42.73 37.70 C 47.22 37.67 51.72 37.68 56.22 37.68 C 56.22 38.34 56.22 39.66 56.22 40.32 C 51.72 40.34 47.21 40.29 42.71 40.35 C 42.73 42.13 42.74 43.92 42.75 45.70 C 47.24 45.66 51.73 45.68 56.22 45.68 C 56.22 46.34 56.22 47.66 56.22 48.32 C 49.49 48.35 42.76 48.27 36.02 48.35 C 36.08 51.87 36.08 55.39 36.03 58.91 C 47.67 59.09 59.33 59.07 70.97 58.91 C 70.92 55.40 70.91 51.88 71.00 48.37 C 68.71 48.33 66.43 48.31 64.15 48.27 C 64.35 42.50 64.24 36.73 64.24 30.97 C 57.08 30.97 49.92 31.03 42.77 30.96 M 47.18 61.72 C 49.33 63.71 51.45 65.74 53.51 67.83 C 55.55 65.73 57.67 63.70 59.82 61.72 C 55.61 61.65 51.40 61.65 47.18 61.72 Z" />
<path fill="#f8fcf8" opacity="1.00" d=" M 77.82 28.00 C 79.94 28.00 82.06 28.00 84.18 28.00 C 84.14 39.51 84.21 51.02 84.14 62.53 C 85.78 62.82 87.16 63.64 88.13 65.00 C 85.68 68.95 83.41 73.01 81.00 76.98 C 78.62 73.01 76.31 68.99 73.91 65.03 C 74.70 63.44 76.06 62.60 77.85 62.61 C 77.80 51.07 77.86 39.54 77.82 28.00 M 79.37 31.06 C 79.45 42.53 79.42 54.00 79.41 65.47 C 78.67 65.45 77.18 65.42 76.44 65.41 C 77.93 68.01 79.46 70.60 81.00 73.19 C 82.53 70.61 84.05 68.03 85.56 65.45 C 84.82 65.45 83.33 65.45 82.58 65.46 C 82.58 53.99 82.55 42.52 82.63 31.05 C 81.54 31.05 80.45 31.05 79.37 31.06 Z" />
</g>
</svg>
