<?xml version="1.0" encoding="UTF-8" ?>
<!DOCTYPE svg PUBLIC "-//W3C//DTD SVG 1.1//EN" "http://www.w3.org/Graphics/SVG/1.1/DTD/svg11.dtd">
<svg width="117px" height="92px" viewBox="0 0 117 92" version="1.1" xmlns="http://www.w3.org/2000/svg">
<g id="#000000ff">
<path fill="#000000" opacity="1.00" d=" M 0.00 0.00 L 117.00 0.00 L 117.00 92.00 L 0.00 92.00 L 0.00 0.00 M 29.45 8.68 C 14.97 11.40 3.63 25.32 3.99 40.06 C 4.25 46.39 3.29 52.87 5.00 59.06 C 8.30 72.48 21.14 82.80 34.98 83.01 C 50.32 82.99 65.66 83.00 81.00 83.00 C 94.88 82.82 107.73 72.45 111.02 59.00 C 112.73 52.48 111.73 45.69 112.01 39.04 C 111.92 22.65 97.39 8.14 81.02 7.99 C 65.35 8.01 49.68 7.99 34.01 8.00 C 32.47 8.08 30.96 8.38 29.45 8.68 Z" />
<path fill="#000000" opacity="1.00" d=" M 29.52 10.72 C 31.66 10.28 33.84 9.97 36.03 10.00 C 51.02 10.01 66.01 9.98 81.00 10.02 C 93.30 10.29 104.74 18.93 108.50 30.61 C 110.80 37.53 109.80 44.92 109.96 52.06 C 109.81 67.70 95.61 81.34 80.00 81.00 C 65.02 81.00 50.03 81.01 35.04 80.99 C 23.84 80.71 13.19 73.59 8.68 63.33 C 4.92 55.74 6.22 47.08 6.02 38.92 C 6.30 25.62 16.51 13.42 29.52 10.72 M 37.91 33.81 C 36.98 35.76 37.94 37.78 38.44 39.69 C 45.67 46.87 51.85 54.85 59.37 61.77 C 60.62 62.17 62.31 62.35 63.27 61.23 C 70.49 54.34 76.60 46.65 83.64 39.61 C 84.10 37.72 84.98 35.74 84.10 33.82 C 68.75 33.47 53.27 33.50 37.91 33.81 Z" />
<path fill="#000000" opacity="1.00" d=" M 42.06 37.55 C 54.65 37.91 67.33 37.93 79.91 37.54 C 73.55 44.38 67.27 51.41 60.97 58.12 C 54.70 51.34 48.48 44.35 42.06 37.55 Z" />
</g>
<g id="#6781b7ff">
<path fill="#6781b7" opacity="1.00" d=" M 29.45 8.68 C 30.96 8.38 32.47 8.08 34.01 8.00 C 49.68 7.99 65.35 8.01 81.02 7.99 C 97.39 8.14 111.92 22.65 112.01 39.04 C 111.73 45.69 112.73 52.48 111.02 59.00 C 107.73 72.45 94.88 82.82 81.00 83.00 C 65.66 83.00 50.32 82.99 34.98 83.01 C 21.14 82.80 8.30 72.48 5.00 59.06 C 3.29 52.87 4.25 46.39 3.99 40.06 C 3.63 25.32 14.97 11.40 29.45 8.68 M 29.52 10.72 C 16.51 13.42 6.30 25.62 6.02 38.92 C 6.22 47.08 4.92 55.74 8.68 63.33 C 13.19 73.59 23.84 80.71 35.04 80.99 C 50.03 81.01 65.02 81.00 80.00 81.00 C 95.61 81.34 109.81 67.70 109.96 52.06 C 109.80 44.92 110.80 37.53 108.50 30.61 C 104.74 18.93 93.30 10.29 81.00 10.02 C 66.01 9.98 51.02 10.01 36.03 10.00 C 33.84 9.97 31.66 10.28 29.52 10.72 Z" />
</g>
<g id="#f8fcf8ff">
<path fill="#f8fcf8" opacity="1.00" d=" M 37.91 33.81 C 53.27 33.50 68.75 33.47 84.10 33.82 C 84.98 35.74 84.10 37.72 83.64 39.61 C 76.60 46.65 70.49 54.34 63.27 61.23 C 62.31 62.35 60.62 62.17 59.37 61.77 C 51.85 54.85 45.67 46.87 38.44 39.69 C 37.94 37.78 36.98 35.76 37.91 33.81 M 42.06 37.55 C 48.48 44.35 54.70 51.34 60.97 58.12 C 67.27 51.41 73.55 44.38 79.91 37.54 C 67.33 37.93 54.65 37.91 42.06 37.55 Z" />
</g>
</svg>
