<?xml version="1.0" encoding="UTF-8" ?>
<!DOCTYPE svg PUBLIC "-//W3C//DTD SVG 1.1//EN" "http://www.w3.org/Graphics/SVG/1.1/DTD/svg11.dtd">
<svg width="117pt" height="140pt" viewBox="0 0 117 140" version="1.1" xmlns="http://www.w3.org/2000/svg">
<g id="#000000ff">
<path fill="#000000" opacity="1.00" d=" M 0.00 0.00 L 117.00 0.00 L 117.00 140.00 L 0.00 140.00 L 0.00 0.00 M 30.49 10.66 C 16.38 13.36 5.20 26.58 5.01 40.96 C 4.99 60.31 4.99 79.67 5.01 99.02 C 5.21 112.04 14.34 124.24 26.68 128.31 C 33.19 130.69 40.21 129.88 47.00 130.00 C 59.04 129.94 71.08 130.12 83.11 129.93 C 99.05 129.26 112.87 114.97 112.98 99.02 C 113.01 79.68 113.01 60.34 112.98 41.00 C 112.87 25.02 99.04 10.75 83.10 10.07 C 70.07 9.89 57.04 10.06 44.02 10.00 C 39.51 10.03 34.94 9.71 30.49 10.66 Z" />
<path fill="#000000" opacity="1.00" d=" M 30.43 12.72 C 35.21 11.66 40.13 12.09 44.98 12.00 C 57.68 12.06 70.39 11.87 83.09 12.10 C 97.92 12.77 110.83 26.07 110.95 40.94 C 111.03 60.31 111.03 79.68 110.95 99.04 C 110.86 114.33 97.22 127.88 81.95 127.95 C 66.62 128.04 51.29 128.02 35.97 127.96 C 20.73 127.82 7.17 114.31 7.04 99.06 C 6.97 79.70 6.97 60.34 7.04 40.98 C 7.21 27.67 17.46 15.47 30.43 12.72 M 46.86 39.94 C 47.80 40.77 48.80 41.52 49.87 42.19 C 52.03 37.99 56.48 35.78 59.66 32.44 C 63.13 35.55 67.16 38.16 69.82 42.06 C 71.02 41.63 71.95 40.77 72.91 39.98 C 71.35 38.87 69.77 37.77 68.42 36.40 C 68.52 34.00 68.53 31.60 68.50 29.20 C 67.16 29.11 65.81 29.06 64.46 29.03 C 64.43 30.06 64.36 32.12 64.32 33.16 C 62.49 32.04 61.58 28.86 59.16 29.08 C 55.35 33.02 51.10 36.48 46.86 39.94 M 50.48 41.82 C 50.52 44.33 50.51 46.84 50.53 49.36 C 52.93 49.39 55.33 49.39 57.73 49.39 C 57.92 47.46 58.09 45.53 58.21 43.60 C 59.34 43.61 60.47 43.62 61.60 43.63 C 61.61 45.54 61.62 47.45 61.64 49.37 C 63.89 49.39 66.15 49.38 68.41 49.37 C 68.50 46.89 68.67 44.40 68.41 41.93 C 65.89 38.97 62.62 36.74 59.86 33.99 C 56.60 36.44 53.63 39.24 50.48 41.82 M 33.84 52.98 C 37.43 56.00 40.95 59.10 44.64 61.99 C 43.83 59.33 42.95 56.69 42.15 54.02 C 49.39 53.27 56.71 54.13 63.99 53.65 C 68.28 54.18 72.60 53.19 76.85 54.01 C 76.04 56.68 75.16 59.32 74.36 61.99 C 78.05 59.09 81.59 56.01 85.17 52.98 C 81.56 50.01 78.09 46.87 74.36 44.06 C 75.16 46.71 76.05 49.34 76.88 51.98 C 72.61 52.80 68.30 51.79 64.00 52.35 C 56.71 51.88 49.38 52.72 42.13 51.98 C 42.96 49.31 43.84 46.66 44.61 43.97 C 40.99 46.94 37.41 49.96 33.84 52.98 M 49.22 56.75 C 51.63 59.85 54.01 62.98 56.43 66.07 C 53.82 69.10 51.20 72.12 48.92 75.40 C 50.03 75.44 52.24 75.52 53.35 75.56 C 55.22 73.08 57.16 70.65 59.03 68.17 C 60.94 70.62 62.88 73.05 64.72 75.55 C 65.83 75.51 68.05 75.43 69.16 75.39 C 66.95 72.03 64.16 69.11 61.59 66.03 C 64.07 63.01 66.36 59.85 68.73 56.75 C 67.18 56.75 65.62 56.75 64.06 56.76 C 62.37 59.19 60.69 61.62 59.03 64.08 C 57.36 61.62 55.66 59.18 53.93 56.77 C 52.36 56.76 50.79 56.75 49.22 56.75 Z" />
</g>
<g id="#6a84bcff">
<path fill="#6a84bc" opacity="1.00" d=" M 30.49 10.66 C 34.94 9.71 39.51 10.03 44.02 10.00 C 57.04 10.06 70.07 9.89 83.10 10.07 C 99.04 10.75 112.87 25.02 112.98 41.00 C 113.01 60.34 113.01 79.68 112.98 99.02 C 112.87 114.97 99.05 129.26 83.11 129.93 C 71.08 130.12 59.04 129.94 47.00 130.00 C 40.21 129.88 33.19 130.69 26.68 128.31 C 14.34 124.24 5.21 112.04 5.01 99.02 C 4.99 79.67 4.99 60.31 5.01 40.96 C 5.20 26.58 16.38 13.36 30.49 10.66 M 30.43 12.72 C 17.46 15.47 7.21 27.67 7.04 40.98 C 6.97 60.34 6.97 79.70 7.04 99.06 C 7.17 114.31 20.73 127.82 35.97 127.96 C 51.29 128.02 66.62 128.04 81.95 127.95 C 97.22 127.88 110.86 114.33 110.95 99.04 C 111.03 79.68 111.03 60.31 110.95 40.94 C 110.83 26.07 97.92 12.77 83.09 12.10 C 70.39 11.87 57.68 12.06 44.98 12.00 C 40.13 12.09 35.21 11.66 30.43 12.72 Z" />
</g>
<g id="#f8fcf8ff">
<path fill="#f8fcf8" opacity="1.00" d=" M 46.86 39.94 C 51.10 36.48 55.35 33.02 59.16 29.08 C 61.58 28.86 62.49 32.04 64.32 33.16 C 64.36 32.12 64.43 30.06 64.46 29.03 C 65.81 29.06 67.16 29.11 68.50 29.20 C 68.53 31.60 68.52 34.00 68.42 36.40 C 69.77 37.77 71.35 38.87 72.91 39.98 C 71.95 40.77 71.02 41.63 69.82 42.06 C 67.16 38.16 63.13 35.55 59.66 32.44 C 56.48 35.78 52.03 37.99 49.87 42.19 C 48.80 41.52 47.80 40.77 46.86 39.94 Z" />
<path fill="#f8fcf8" opacity="1.00" d=" M 50.48 41.82 C 53.63 39.24 56.60 36.44 59.86 33.99 C 62.62 36.74 65.89 38.97 68.41 41.93 C 68.67 44.40 68.50 46.89 68.41 49.37 C 66.15 49.38 63.89 49.39 61.64 49.37 C 61.62 47.45 61.61 45.54 61.60 43.63 C 60.47 43.62 59.34 43.61 58.21 43.60 C 58.09 45.53 57.92 47.46 57.73 49.39 C 55.33 49.39 52.93 49.39 50.53 49.36 C 50.51 46.84 50.52 44.33 50.48 41.82 Z" />
<path fill="#f8fcf8" opacity="1.00" d=" M 33.84 52.98 C 37.41 49.96 40.99 46.94 44.61 43.97 C 43.84 46.66 42.96 49.31 42.13 51.98 C 49.38 52.72 56.71 51.88 64.00 52.35 C 68.30 51.79 72.61 52.80 76.88 51.98 C 76.05 49.34 75.16 46.71 74.36 44.06 C 78.09 46.87 81.56 50.01 85.17 52.98 C 81.59 56.01 78.05 59.09 74.36 61.99 C 75.16 59.32 76.04 56.68 76.85 54.01 C 72.60 53.19 68.28 54.18 63.99 53.65 C 56.71 54.13 49.39 53.27 42.15 54.02 C 42.95 56.69 43.83 59.33 44.64 61.99 C 40.95 59.10 37.43 56.00 33.84 52.98 Z" />
<path fill="#f8fcf8" opacity="1.00" d=" M 49.22 56.75 C 50.79 56.75 52.36 56.76 53.93 56.77 C 55.66 59.18 57.36 61.62 59.03 64.08 C 60.69 61.62 62.37 59.19 64.06 56.76 C 65.62 56.75 67.18 56.75 68.73 56.75 C 66.36 59.85 64.07 63.01 61.59 66.03 C 64.16 69.11 66.95 72.03 69.16 75.39 C 68.05 75.43 65.83 75.51 64.72 75.55 C 62.88 73.05 60.94 70.62 59.03 68.17 C 57.16 70.65 55.22 73.08 53.35 75.56 C 52.24 75.52 50.03 75.44 48.92 75.40 C 51.20 72.12 53.82 69.10 56.43 66.07 C 54.01 62.98 51.63 59.85 49.22 56.75 Z" />
</g>
</svg>
