<?xml version="1.0" encoding="UTF-8" ?>
<!DOCTYPE svg PUBLIC "-//W3C//DTD SVG 1.1//EN" "http://www.w3.org/Graphics/SVG/1.1/DTD/svg11.dtd">
<svg width="117px" height="140px" viewBox="0 0 117 140" version="1.1" xmlns="http://www.w3.org/2000/svg">
<g id="#000000ff">
<path fill="#000000" opacity="1.00" d=" M 0.00 0.00 L 117.00 0.00 L 117.00 140.00 L 0.00 140.00 L 0.00 0.00 M 33.18 10.21 C 17.93 11.76 5.18 25.61 5.01 40.96 C 5.02 60.65 4.93 80.34 5.06 100.03 C 5.72 115.65 19.38 129.31 35.00 129.94 C 51.01 130.04 67.03 130.06 83.04 129.93 C 99.01 129.30 112.86 114.99 112.98 99.01 C 112.98 79.32 113.08 59.62 112.93 39.93 C 112.28 23.96 97.98 10.14 82.00 10.02 C 65.73 10.11 49.44 9.73 33.18 10.21 Z" />
<path fill="#000000" opacity="1.00" d=" M 30.49 12.70 C 34.95 11.72 39.54 12.06 44.07 12.00 C 57.06 12.05 70.05 11.89 83.03 12.09 C 97.92 12.75 110.85 26.09 110.96 41.01 C 111.03 60.33 111.03 79.66 110.96 98.98 C 110.87 113.90 97.92 127.26 83.03 127.90 C 67.37 128.10 51.70 127.98 36.04 127.97 C 20.77 127.86 7.17 114.32 7.03 99.05 C 6.98 79.69 6.98 60.33 7.03 40.97 C 7.22 27.65 17.50 15.43 30.49 12.70 M 57.20 27.11 C 57.24 34.35 57.27 41.59 57.17 48.83 C 57.96 48.85 59.53 48.89 60.31 48.92 C 60.33 41.62 60.32 34.33 60.31 27.03 C 59.53 27.05 57.98 27.09 57.20 27.11 M 34.28 48.09 C 31.88 55.50 32.98 64.08 37.62 70.41 C 42.19 76.93 49.99 81.10 58.00 80.93 C 65.98 81.09 73.77 76.96 78.35 70.46 C 83.02 64.13 84.09 55.53 81.74 48.10 C 79.94 42.48 75.93 37.79 71.08 34.55 C 70.47 35.40 68.15 36.81 70.02 37.68 C 77.58 42.50 81.44 52.21 79.30 60.91 C 77.69 68.26 71.99 74.50 64.82 76.77 C 57.84 79.15 49.71 77.59 44.06 72.85 C 38.54 68.38 35.54 61.05 36.22 53.99 C 36.77 46.97 40.99 40.51 47.05 36.97 C 46.36 36.14 45.63 35.34 44.86 34.59 C 40.05 37.83 36.05 42.49 34.28 48.09 Z" />
</g>
<g id="#7186b5ff">
<path fill="#7186b5" opacity="1.00" d=" M 33.18 10.21 C 49.44 9.73 65.73 10.11 82.00 10.02 C 97.98 10.14 112.28 23.96 112.93 39.93 C 113.08 59.62 112.98 79.32 112.98 99.01 C 112.86 114.99 99.01 129.30 83.04 129.93 C 67.03 130.06 51.01 130.04 35.00 129.94 C 19.38 129.31 5.72 115.65 5.06 100.03 C 4.93 80.34 5.02 60.65 5.01 40.96 C 5.18 25.61 17.93 11.76 33.18 10.21 M 30.49 12.70 C 17.50 15.43 7.22 27.65 7.03 40.97 C 6.98 60.33 6.98 79.69 7.03 99.05 C 7.17 114.32 20.77 127.86 36.04 127.97 C 51.70 127.98 67.37 128.10 83.03 127.90 C 97.92 127.26 110.87 113.90 110.96 98.98 C 111.03 79.66 111.03 60.33 110.96 41.01 C 110.85 26.09 97.92 12.75 83.03 12.09 C 70.05 11.89 57.06 12.05 44.07 12.00 C 39.54 12.06 34.95 11.72 30.49 12.70 Z" />
</g>
<g id="#10ec50ff">
<path fill="#10ec50" opacity="1.00" d=" M 57.20 27.11 C 57.98 27.09 59.53 27.05 60.31 27.03 C 60.32 34.33 60.33 41.62 60.31 48.92 C 59.53 48.89 57.96 48.85 57.17 48.83 C 57.27 41.59 57.24 34.35 57.20 27.11 Z" />
<path fill="#10ec50" opacity="1.00" d=" M 34.28 48.09 C 36.05 42.49 40.05 37.83 44.86 34.59 C 45.63 35.34 46.36 36.14 47.05 36.97 C 40.99 40.51 36.77 46.97 36.22 53.99 C 35.54 61.05 38.54 68.38 44.06 72.85 C 49.71 77.59 57.84 79.15 64.82 76.77 C 71.99 74.50 77.69 68.26 79.30 60.91 C 81.44 52.21 77.58 42.50 70.02 37.68 C 68.15 36.81 70.47 35.40 71.08 34.55 C 75.93 37.79 79.94 42.48 81.74 48.10 C 84.09 55.53 83.02 64.13 78.35 70.46 C 73.77 76.96 65.98 81.09 58.00 80.93 C 49.99 81.10 42.19 76.93 37.62 70.41 C 32.98 64.08 31.88 55.50 34.28 48.09 Z" />
</g>
</svg>
