<?xml version="1.0" encoding="UTF-8" ?>
<!DOCTYPE svg PUBLIC "-//W3C//DTD SVG 1.1//EN" "http://www.w3.org/Graphics/SVG/1.1/DTD/svg11.dtd">
<svg width="117pt" height="140pt" viewBox="0 0 117 140" version="1.1" xmlns="http://www.w3.org/2000/svg">
<g id="#000000ff">
<path fill="#000000" opacity="1.00" d=" M 0.00 0.00 L 117.00 0.00 L 117.00 140.00 L 0.00 140.00 L 0.00 0.00 M 33.21 10.21 C 17.92 11.75 5.15 25.64 5.01 41.02 C 5.02 60.68 4.93 80.35 5.06 100.02 C 5.70 115.98 19.97 129.83 35.94 129.98 C 51.64 129.98 67.35 130.08 83.05 129.93 C 99.00 129.29 112.85 115.01 112.98 99.05 C 112.98 79.34 113.08 59.63 112.93 39.93 C 112.28 24.00 98.04 10.20 82.10 10.02 C 65.81 10.11 49.49 9.74 33.21 10.21 Z" />
<path fill="#000000" opacity="1.00" d=" M 30.51 12.70 C 35.29 11.66 40.21 12.09 45.05 12.00 C 57.73 12.06 70.40 11.88 83.08 12.10 C 97.93 12.77 110.84 26.09 110.96 40.97 C 111.05 59.66 110.97 78.34 111.00 97.02 C 111.95 113.38 97.36 128.46 80.97 127.98 C 65.64 127.97 50.30 128.10 34.97 127.91 C 20.10 127.25 7.16 113.92 7.04 99.01 C 6.97 79.69 6.98 60.37 7.03 41.06 C 7.18 27.70 17.48 15.42 30.51 12.70 M 49.83 27.90 C 49.83 37.52 49.84 47.14 49.83 56.76 C 47.10 59.17 44.78 62.31 44.62 66.10 C 43.61 72.94 49.03 80.13 56.06 80.42 C 62.02 81.09 67.66 76.60 69.09 70.93 C 70.81 65.73 68.22 60.10 64.17 56.76 C 64.17 47.15 64.15 37.54 64.18 27.94 C 59.44 27.29 54.58 27.36 49.83 27.90 M 66.62 45.95 C 67.86 49.47 75.80 48.42 72.74 44.36 C 70.54 43.69 67.94 43.82 66.62 45.95 M 66.73 52.94 C 67.13 53.43 67.92 54.42 68.31 54.91 C 70.22 54.76 73.13 55.61 73.63 52.99 C 72.86 49.91 67.98 50.40 66.73 52.94 Z" />
<path fill="#000000" opacity="1.00" d=" M 53.39 31.21 C 55.79 31.27 58.20 31.27 60.61 31.21 C 60.15 40.36 60.59 49.53 60.37 58.69 C 64.65 60.93 67.05 66.33 65.16 70.91 C 63.61 76.32 56.33 78.45 51.91 75.10 C 46.23 71.15 47.43 61.59 53.62 58.71 C 53.42 49.55 53.85 40.37 53.39 31.21 M 54.99 44.00 C 55.03 49.37 55.11 54.74 55.16 60.11 C 52.66 61.62 49.77 63.74 49.84 67.00 C 49.35 70.28 51.82 72.97 54.43 74.52 C 59.53 76.84 65.42 71.13 64.06 65.93 C 63.63 63.12 60.92 61.67 58.94 60.02 C 58.73 54.68 59.04 49.34 59.01 44.00 C 57.67 44.00 56.33 44.00 54.99 44.00 Z" />
</g>
<g id="#7185b5ff">
<path fill="#7185b5" opacity="1.00" d=" M 33.21 10.21 C 49.49 9.74 65.81 10.11 82.10 10.02 C 98.04 10.20 112.28 24.00 112.93 39.93 C 113.08 59.63 112.98 79.34 112.98 99.05 C 112.85 115.01 99.00 129.29 83.05 129.93 C 67.35 130.08 51.64 129.98 35.94 129.98 C 19.97 129.83 5.70 115.98 5.06 100.02 C 4.93 80.35 5.02 60.68 5.01 41.02 C 5.15 25.64 17.92 11.75 33.21 10.21 M 30.51 12.70 C 17.48 15.42 7.18 27.70 7.03 41.06 C 6.98 60.37 6.97 79.69 7.04 99.01 C 7.16 113.92 20.10 127.25 34.97 127.91 C 50.30 128.10 65.64 127.97 80.97 127.98 C 97.36 128.46 111.95 113.38 111.00 97.02 C 110.97 78.34 111.05 59.66 110.96 40.97 C 110.84 26.09 97.93 12.77 83.08 12.10 C 70.40 11.88 57.73 12.06 45.05 12.00 C 40.21 12.09 35.29 11.66 30.51 12.70 Z" />
</g>
<g id="#f8fcf8ff">
<path fill="#f8fcf8" opacity="1.00" d=" M 49.83 27.90 C 54.58 27.36 59.44 27.29 64.18 27.94 C 64.15 37.54 64.17 47.15 64.17 56.76 C 68.22 60.10 70.81 65.73 69.09 70.93 C 67.66 76.60 62.02 81.09 56.06 80.42 C 49.03 80.13 43.61 72.94 44.62 66.10 C 44.78 62.31 47.10 59.17 49.83 56.76 C 49.84 47.14 49.83 37.52 49.83 27.90 M 53.39 31.21 C 53.85 40.37 53.42 49.55 53.62 58.71 C 47.43 61.59 46.23 71.15 51.91 75.10 C 56.33 78.45 63.61 76.32 65.16 70.91 C 67.05 66.33 64.65 60.93 60.37 58.69 C 60.59 49.53 60.15 40.36 60.61 31.21 C 58.20 31.27 55.79 31.27 53.39 31.21 Z" />
<path fill="#f8fcf8" opacity="1.00" d=" M 54.99 44.00 C 56.33 44.00 57.67 44.00 59.01 44.00 C 59.04 49.34 58.73 54.68 58.94 60.02 C 60.92 61.67 63.63 63.12 64.06 65.93 C 65.42 71.13 59.53 76.84 54.43 74.52 C 51.82 72.97 49.35 70.28 49.84 67.00 C 49.77 63.74 52.66 61.62 55.16 60.11 C 55.11 54.74 55.03 49.37 54.99 44.00 Z" />
<path fill="#f8fcf8" opacity="1.00" d=" M 66.62 45.95 C 67.94 43.82 70.54 43.69 72.74 44.36 C 75.80 48.42 67.86 49.47 66.62 45.95 Z" />
<path fill="#f8fcf8" opacity="1.00" d=" M 66.73 52.94 C 67.98 50.40 72.86 49.91 73.63 52.99 C 73.13 55.61 70.22 54.76 68.31 54.91 C 67.92 54.42 67.13 53.43 66.73 52.94 Z" />
</g>
</svg>
