<?xml version="1.0" encoding="UTF-8" ?>
<!DOCTYPE svg PUBLIC "-//W3C//DTD SVG 1.1//EN" "http://www.w3.org/Graphics/SVG/1.1/DTD/svg11.dtd">
<svg width="117px" height="140px" viewBox="0 0 117 140" version="1.1" xmlns="http://www.w3.org/2000/svg">
<g id="#000000ff">
<path fill="#000000" opacity="1.00" d=" M 0.00 0.00 L 117.00 0.00 L 117.00 140.00 L 0.00 140.00 L 0.00 0.00 M 33.11 10.22 C 17.91 11.80 5.22 25.60 5.01 40.90 C 5.02 60.60 4.93 80.30 5.05 100.00 C 5.69 115.62 19.36 129.29 34.98 129.94 C 50.31 130.09 65.65 129.95 80.99 130.01 C 93.09 130.18 104.80 122.70 109.90 111.76 C 112.13 107.19 113.12 102.08 113.02 97.01 C 112.98 78.69 113.00 60.36 113.01 42.04 C 113.09 33.35 109.36 24.76 103.04 18.81 C 96.95 12.94 88.45 9.74 80.00 9.98 C 64.37 10.17 48.73 9.70 33.11 10.22 Z" />
<path fill="#000000" opacity="1.00" d=" M 30.45 12.72 C 33.91 11.93 37.49 11.98 41.02 12.00 C 55.03 12.06 69.04 11.88 83.04 12.09 C 97.91 12.76 110.85 26.09 110.96 40.99 C 111.03 60.32 111.02 79.65 110.96 98.97 C 110.88 114.22 97.35 127.79 82.10 127.95 C 66.73 128.04 51.34 128.01 35.97 127.97 C 20.73 127.82 7.17 114.30 7.03 99.05 C 6.98 79.69 6.98 60.33 7.03 40.97 C 7.22 27.67 17.47 15.46 30.45 12.72 M 37.92 42.10 C 35.08 44.96 30.06 46.52 29.53 51.00 C 30.07 55.50 35.14 57.08 37.99 59.96 C 40.14 62.30 43.32 61.24 46.00 60.88 C 46.00 58.25 46.00 55.63 46.00 53.00 C 48.00 53.00 50.00 53.00 52.00 53.00 C 52.00 52.25 52.00 50.75 52.00 50.00 C 50.00 50.00 48.00 50.00 46.00 50.00 C 46.00 47.04 46.00 44.08 46.00 41.13 C 43.29 40.73 40.06 39.70 37.92 42.10 M 70.99 41.08 C 71.00 44.05 71.00 47.03 71.00 50.00 C 68.67 50.00 66.33 50.00 64.00 50.00 C 64.00 50.75 64.00 52.25 64.00 53.00 C 66.33 53.00 68.67 53.00 71.00 53.00 C 71.00 55.64 71.00 58.27 71.00 60.91 C 73.40 61.57 76.18 61.98 78.06 59.91 C 80.90 57.06 85.90 55.50 86.47 51.04 C 85.96 46.50 80.85 44.93 77.99 42.02 C 76.13 39.96 73.36 40.47 70.99 41.08 M 53.00 50.00 C 53.00 50.75 53.00 52.25 53.00 53.00 C 53.75 53.00 55.25 53.00 56.00 53.00 C 56.00 52.25 56.00 50.75 56.00 50.00 C 55.25 50.00 53.75 50.00 53.00 50.00 M 57.00 50.00 C 57.00 50.75 57.00 52.25 57.00 53.00 C 59.00 53.00 61.00 53.00 63.00 53.00 C 63.00 52.25 63.00 50.75 63.00 50.00 C 61.00 50.00 59.00 50.00 57.00 50.00 Z" />
<path fill="#000000" opacity="1.00" d=" M 33.01 51.00 C 36.00 48.68 38.97 46.34 41.99 44.07 C 42.00 48.70 42.01 53.33 41.99 57.97 C 38.99 55.64 36.00 53.33 33.01 51.00 Z" />
<path fill="#000000" opacity="1.00" d=" M 75.00 44.81 C 77.67 46.86 80.33 48.93 82.99 51.00 C 80.33 53.07 77.67 55.13 75.00 57.19 C 75.00 53.06 75.00 48.94 75.00 44.81 Z" />
</g>
<g id="#7185b5ff">
<path fill="#7185b5" opacity="1.00" d=" M 33.11 10.22 C 48.73 9.70 64.37 10.17 80.00 9.98 C 88.45 9.74 96.95 12.94 103.04 18.81 C 109.36 24.76 113.09 33.35 113.01 42.04 C 113.00 60.36 112.98 78.69 113.02 97.01 C 113.12 102.08 112.13 107.19 109.90 111.76 C 104.80 122.70 93.09 130.18 80.99 130.01 C 65.65 129.95 50.31 130.09 34.98 129.94 C 19.36 129.29 5.69 115.62 5.05 100.00 C 4.93 80.30 5.02 60.60 5.01 40.90 C 5.22 25.60 17.91 11.80 33.11 10.22 M 30.45 12.72 C 17.47 15.46 7.22 27.67 7.03 40.97 C 6.98 60.33 6.98 79.69 7.03 99.05 C 7.17 114.30 20.73 127.82 35.97 127.97 C 51.34 128.01 66.73 128.04 82.10 127.95 C 97.35 127.79 110.88 114.22 110.96 98.97 C 111.02 79.65 111.03 60.32 110.96 40.99 C 110.85 26.09 97.91 12.76 83.04 12.09 C 69.04 11.88 55.03 12.06 41.02 12.00 C 37.49 11.98 33.91 11.93 30.45 12.72 Z" />
</g>
<g id="#f8fcf8ff">
<path fill="#f8fcf8" opacity="1.00" d=" M 37.92 42.10 C 40.06 39.70 43.29 40.73 46.00 41.13 C 46.00 44.08 46.00 47.04 46.00 50.00 C 48.00 50.00 50.00 50.00 52.00 50.00 C 52.00 50.75 52.00 52.25 52.00 53.00 C 50.00 53.00 48.00 53.00 46.00 53.00 C 46.00 55.63 46.00 58.25 46.00 60.88 C 43.32 61.24 40.14 62.30 37.99 59.96 C 35.14 57.08 30.07 55.50 29.53 51.00 C 30.06 46.52 35.08 44.96 37.92 42.10 M 33.01 51.00 C 36.00 53.33 38.99 55.64 41.99 57.97 C 42.01 53.33 42.00 48.70 41.99 44.07 C 38.97 46.34 36.00 48.68 33.01 51.00 Z" />
<path fill="#f8fcf8" opacity="1.00" d=" M 70.99 41.08 C 73.36 40.47 76.13 39.96 77.99 42.02 C 80.85 44.93 85.96 46.50 86.47 51.04 C 85.90 55.50 80.90 57.06 78.06 59.91 C 76.18 61.98 73.40 61.57 71.00 60.91 C 71.00 58.27 71.00 55.64 71.00 53.00 C 68.67 53.00 66.33 53.00 64.00 53.00 C 64.00 52.25 64.00 50.75 64.00 50.00 C 66.33 50.00 68.67 50.00 71.00 50.00 C 71.00 47.03 71.00 44.05 70.99 41.08 M 75.00 44.81 C 75.00 48.94 75.00 53.06 75.00 57.19 C 77.67 55.13 80.33 53.07 82.99 51.00 C 80.33 48.93 77.67 46.86 75.00 44.81 Z" />
<path fill="#f8fcf8" opacity="1.00" d=" M 53.00 50.00 C 53.75 50.00 55.25 50.00 56.00 50.00 C 56.00 50.75 56.00 52.25 56.00 53.00 C 55.25 53.00 53.75 53.00 53.00 53.00 C 53.00 52.25 53.00 50.75 53.00 50.00 Z" />
<path fill="#f8fcf8" opacity="1.00" d=" M 57.00 50.00 C 59.00 50.00 61.00 50.00 63.00 50.00 C 63.00 50.75 63.00 52.25 63.00 53.00 C 61.00 53.00 59.00 53.00 57.00 53.00 C 57.00 52.25 57.00 50.75 57.00 50.00 Z" />
</g>
</svg>
