<?xml version="1.0" encoding="UTF-8" ?>
<!DOCTYPE svg PUBLIC "-//W3C//DTD SVG 1.1//EN" "http://www.w3.org/Graphics/SVG/1.1/DTD/svg11.dtd">
<svg width="117px" height="140px" viewBox="0 0 117 140" version="1.1" xmlns="http://www.w3.org/2000/svg">
<g id="#000000ff">
<path fill="#000000" opacity="1.00" d=" M 0.00 0.00 L 117.00 0.00 L 117.00 140.00 L 0.00 140.00 L 0.00 0.00 M 33.18 10.21 C 17.92 11.76 5.18 25.62 5.01 40.97 C 5.02 60.66 4.93 80.35 5.06 100.03 C 5.70 116.01 20.00 129.86 35.99 129.99 C 51.68 129.98 67.37 130.08 83.05 129.93 C 98.67 129.29 112.33 115.59 112.94 99.98 C 113.09 80.66 112.95 61.33 113.01 42.01 C 113.08 33.12 109.16 24.33 102.57 18.37 C 96.52 12.77 88.23 9.75 80.01 9.98 C 64.40 10.16 48.78 9.70 33.18 10.21 Z" />
<path fill="#000000" opacity="1.00" d=" M 30.51 12.71 C 35.29 11.66 40.21 12.09 45.07 12.00 C 57.72 12.06 70.38 11.88 83.04 12.10 C 97.88 12.75 110.81 26.04 110.95 40.92 C 111.03 60.30 111.03 79.68 110.96 99.06 C 110.82 113.92 97.93 127.23 83.09 127.90 C 70.73 128.13 58.36 127.94 46.00 128.00 C 39.36 127.90 32.41 128.63 26.13 125.96 C 14.85 121.68 6.78 110.08 7.01 97.97 C 7.01 78.99 6.96 60.00 7.03 41.02 C 7.19 27.68 17.49 15.42 30.51 12.71 M 48.42 32.57 C 45.96 32.44 47.03 35.73 48.99 35.22 C 56.67 35.12 64.37 35.19 72.05 35.19 C 74.06 35.68 75.01 32.39 72.54 32.57 C 64.50 32.43 56.45 32.42 48.42 32.57 M 46.97 36.01 C 47.05 36.67 47.22 37.98 47.31 38.64 C 50.12 39.34 53.10 38.83 55.99 38.97 C 61.89 38.80 67.83 39.30 73.71 38.72 C 73.79 38.03 73.94 36.66 74.02 35.97 C 65.01 35.75 55.98 35.68 46.97 36.01 M 47.27 40.18 C 47.21 40.87 47.08 42.25 47.02 42.93 C 47.20 44.86 49.73 44.09 51.00 44.31 C 58.29 44.17 65.61 44.50 72.89 44.15 C 74.76 43.89 73.62 41.46 73.82 40.23 C 64.97 40.09 56.12 40.18 47.27 40.18 M 47.02 45.95 C 47.32 47.41 46.25 49.85 48.25 50.43 C 56.17 50.63 64.12 50.50 72.05 50.49 C 74.71 50.66 73.80 47.57 73.98 45.95 C 65.03 45.40 55.97 45.39 47.02 45.95 M 47.14 51.95 C 47.05 53.66 47.01 55.37 46.98 57.07 C 44.30 57.05 41.62 56.98 38.94 57.13 C 37.43 57.60 35.06 58.74 36.42 60.64 C 40.18 63.34 44.69 64.81 48.62 67.27 C 52.66 69.29 56.48 72.02 60.82 73.27 C 68.31 69.67 75.46 65.39 82.96 61.79 C 84.25 61.33 84.74 60.00 85.31 58.88 C 82.10 56.21 77.85 57.20 74.03 57.07 C 73.99 55.44 74.08 53.79 73.76 52.18 C 71.96 51.42 69.94 51.83 68.05 51.72 C 61.08 51.88 54.10 51.47 47.14 51.95 Z" />
<path fill="#000000" opacity="1.00" d=" M 51.03 55.87 C 57.34 55.87 63.66 55.87 69.97 55.87 C 69.95 57.59 69.93 59.31 69.95 61.03 C 71.80 61.11 73.64 61.11 75.49 61.14 C 70.31 63.43 65.55 66.55 60.41 68.94 C 55.40 66.47 50.66 63.45 45.50 61.31 C 47.35 61.20 49.20 61.13 51.05 60.97 C 51.07 59.27 51.05 57.57 51.03 55.87 Z" />
</g>
<g id="#7185b5ff">
<path fill="#7185b5" opacity="1.00" d=" M 33.18 10.21 C 48.78 9.70 64.40 10.16 80.01 9.98 C 88.23 9.75 96.52 12.77 102.57 18.37 C 109.16 24.33 113.08 33.12 113.01 42.01 C 112.95 61.33 113.09 80.66 112.94 99.98 C 112.33 115.59 98.67 129.29 83.05 129.93 C 67.37 130.08 51.68 129.98 35.99 129.99 C 20.00 129.86 5.70 116.01 5.06 100.03 C 4.93 80.35 5.02 60.66 5.01 40.97 C 5.18 25.62 17.92 11.76 33.18 10.21 M 30.51 12.71 C 17.49 15.42 7.19 27.68 7.03 41.02 C 6.96 60.00 7.01 78.99 7.01 97.97 C 6.78 110.08 14.85 121.68 26.13 125.96 C 32.41 128.63 39.36 127.90 46.00 128.00 C 58.36 127.94 70.73 128.13 83.09 127.90 C 97.93 127.23 110.82 113.92 110.96 99.06 C 111.03 79.68 111.03 60.30 110.95 40.92 C 110.81 26.04 97.88 12.75 83.04 12.10 C 70.38 11.88 57.72 12.06 45.07 12.00 C 40.21 12.09 35.29 11.66 30.51 12.71 Z" />
</g>
<g id="#f8fcf8ff">
<path fill="#f8fcf8" opacity="1.00" d=" M 48.42 32.57 C 56.45 32.42 64.50 32.43 72.54 32.57 C 75.01 32.39 74.06 35.68 72.05 35.19 C 64.37 35.19 56.67 35.12 48.99 35.22 C 47.03 35.73 45.96 32.44 48.42 32.57 Z" />
<path fill="#f8fcf8" opacity="1.00" d=" M 46.97 36.01 C 55.98 35.68 65.01 35.75 74.02 35.97 C 73.94 36.66 73.79 38.03 73.71 38.72 C 67.83 39.30 61.89 38.80 55.99 38.97 C 53.10 38.83 50.12 39.34 47.31 38.64 C 47.22 37.98 47.05 36.67 46.97 36.01 Z" />
<path fill="#f8fcf8" opacity="1.00" d=" M 47.27 40.18 C 56.12 40.18 64.97 40.09 73.82 40.23 C 73.62 41.46 74.76 43.89 72.89 44.15 C 65.61 44.50 58.29 44.17 51.00 44.31 C 49.73 44.09 47.20 44.86 47.02 42.93 C 47.08 42.25 47.21 40.87 47.27 40.18 Z" />
<path fill="#f8fcf8" opacity="1.00" d=" M 47.02 45.95 C 55.97 45.39 65.03 45.40 73.98 45.95 C 73.80 47.57 74.71 50.66 72.05 50.49 C 64.12 50.50 56.17 50.63 48.25 50.43 C 46.25 49.85 47.32 47.41 47.02 45.95 Z" />
<path fill="#f8fcf8" opacity="1.00" d=" M 47.14 51.95 C 54.10 51.47 61.08 51.88 68.05 51.72 C 69.94 51.83 71.96 51.42 73.76 52.18 C 74.08 53.79 73.99 55.44 74.03 57.07 C 77.85 57.20 82.10 56.21 85.31 58.88 C 84.74 60.00 84.25 61.33 82.96 61.79 C 75.46 65.39 68.31 69.67 60.82 73.27 C 56.48 72.02 52.66 69.29 48.62 67.27 C 44.69 64.81 40.18 63.34 36.42 60.64 C 35.06 58.74 37.43 57.60 38.94 57.13 C 41.62 56.98 44.30 57.05 46.98 57.07 C 47.01 55.37 47.05 53.66 47.14 51.95 M 51.03 55.87 C 51.05 57.57 51.07 59.27 51.05 60.97 C 49.20 61.13 47.35 61.20 45.50 61.31 C 50.66 63.45 55.40 66.47 60.41 68.94 C 65.55 66.55 70.31 63.43 75.49 61.14 C 73.64 61.11 71.80 61.11 69.95 61.03 C 69.93 59.31 69.95 57.59 69.97 55.87 C 63.66 55.87 57.34 55.87 51.03 55.87 Z" />
</g>
</svg>
