<?xml version="1.0" encoding="UTF-8" ?>
<!DOCTYPE svg PUBLIC "-//W3C//DTD SVG 1.1//EN" "http://www.w3.org/Graphics/SVG/1.1/DTD/svg11.dtd">
<svg width="117px" height="140px" viewBox="0 0 117 140" version="1.1" xmlns="http://www.w3.org/2000/svg">
<g id="#000000ff">
<path fill="#000000" opacity="1.00" d=" M 0.00 0.00 L 117.00 0.00 L 117.00 140.00 L 0.00 140.00 L 0.00 0.00 M 33.10 10.23 C 17.86 11.81 5.16 25.67 5.01 41.00 C 4.99 60.33 4.99 79.67 5.01 99.00 C 5.13 114.99 18.98 129.29 34.95 129.93 C 50.64 130.08 66.34 129.99 82.03 129.98 C 98.39 129.87 112.91 115.33 112.98 98.97 C 112.98 79.31 113.09 59.63 112.93 39.97 C 112.31 24.00 98.01 10.16 82.03 10.02 C 65.72 10.12 49.39 9.71 33.10 10.23 Z" />
<path fill="#000000" opacity="1.00" d=" M 30.52 12.70 C 35.27 11.69 40.15 12.08 44.97 12.00 C 57.66 12.06 70.35 11.87 83.04 12.10 C 97.89 12.74 110.83 26.06 110.95 40.95 C 111.03 60.30 111.03 79.66 110.95 99.02 C 110.86 114.26 97.31 127.81 82.08 127.94 C 66.70 128.04 51.33 128.02 35.96 127.95 C 20.70 127.82 7.13 114.25 7.04 98.99 C 6.97 79.66 6.97 60.33 7.04 41.01 C 7.19 27.66 17.51 15.41 30.52 12.70 M 40.73 44.98 C 41.56 46.14 42.56 47.15 43.47 48.25 C 46.77 46.62 50.24 44.99 54.00 44.97 C 58.50 44.84 62.70 46.95 66.34 49.41 C 68.28 46.70 70.00 43.83 71.71 40.96 C 62.20 35.07 48.12 36.20 40.73 44.98 M 58.19 62.62 C 59.58 63.15 60.96 63.69 62.35 64.20 C 64.19 60.01 66.35 55.97 68.39 51.87 C 70.60 55.42 71.38 59.50 71.98 63.57 C 75.74 63.58 79.50 63.60 83.26 63.53 C 84.21 54.95 79.50 46.87 72.94 41.69 C 68.61 49.05 62.98 55.56 58.19 62.62 M 33.76 58.67 C 34.66 59.12 35.57 59.56 36.49 60.00 C 37.59 55.92 39.83 52.43 42.27 49.06 C 41.38 48.00 40.21 47.23 39.14 46.36 C 36.63 50.10 34.56 54.20 33.76 58.67 M 55.11 65.26 C 55.03 66.80 55.04 68.34 55.20 69.88 C 57.27 70.71 60.43 70.63 60.80 67.85 C 60.99 64.78 57.31 64.29 55.11 65.26 Z" />
<path fill="#000000" opacity="1.00" d=" M 54.65 41.27 C 56.60 40.77 58.61 40.69 60.61 40.86 C 58.98 42.64 56.64 41.64 54.65 41.27 Z" />
<path fill="#000000" opacity="1.00" d=" M 62.63 41.10 C 64.09 41.43 65.54 41.80 66.99 42.17 C 66.34 43.03 65.69 43.90 65.05 44.76 C 63.88 43.80 62.90 42.64 62.63 41.10 Z" />
<path fill="#000000" opacity="1.00" d=" M 72.47 49.53 C 71.70 48.58 72.80 46.59 74.06 47.19 C 75.05 48.10 73.62 49.99 72.47 49.53 Z" />
<path fill="#000000" opacity="1.00" d=" M 72.88 53.26 C 74.07 52.28 75.26 51.29 76.45 50.31 C 77.01 51.45 77.57 52.60 78.15 53.73 C 76.77 54.31 75.41 54.92 74.04 55.52 C 73.75 54.96 73.17 53.83 72.88 53.26 Z" />
<path fill="#000000" opacity="1.00" d=" M 74.12 59.86 C 75.70 58.74 77.35 57.74 79.05 56.80 C 79.29 57.88 79.52 58.96 79.74 60.04 C 77.87 60.02 75.99 59.96 74.12 59.86 Z" />
</g>
<g id="#7185b5ff">
<path fill="#7185b5" opacity="1.00" d=" M 33.10 10.23 C 49.39 9.71 65.72 10.12 82.03 10.02 C 98.01 10.16 112.31 24.00 112.93 39.97 C 113.09 59.63 112.98 79.31 112.98 98.97 C 112.91 115.33 98.39 129.87 82.03 129.98 C 66.34 129.99 50.64 130.08 34.95 129.93 C 18.98 129.29 5.13 114.99 5.01 99.00 C 4.99 79.67 4.99 60.33 5.01 41.00 C 5.16 25.67 17.86 11.81 33.10 10.23 M 30.52 12.70 C 17.51 15.41 7.19 27.66 7.04 41.01 C 6.97 60.33 6.97 79.66 7.04 98.99 C 7.13 114.25 20.70 127.82 35.96 127.95 C 51.33 128.02 66.70 128.04 82.08 127.94 C 97.31 127.81 110.86 114.26 110.95 99.02 C 111.03 79.66 111.03 60.30 110.95 40.95 C 110.83 26.06 97.89 12.74 83.04 12.10 C 70.35 11.87 57.66 12.06 44.97 12.00 C 40.15 12.08 35.27 11.69 30.52 12.70 Z" />
</g>
<g id="#f8fcf8ff">
<path fill="#f8fcf8" opacity="1.00" d=" M 40.73 44.98 C 48.12 36.20 62.20 35.07 71.71 40.96 C 70.00 43.83 68.28 46.70 66.34 49.41 C 62.70 46.95 58.50 44.84 54.00 44.97 C 50.24 44.99 46.77 46.62 43.47 48.25 C 42.56 47.15 41.56 46.14 40.73 44.98 M 54.65 41.27 C 56.64 41.64 58.98 42.64 60.61 40.86 C 58.61 40.69 56.60 40.77 54.65 41.27 M 62.63 41.10 C 62.90 42.64 63.88 43.80 65.05 44.76 C 65.69 43.90 66.34 43.03 66.99 42.17 C 65.54 41.80 64.09 41.43 62.63 41.10 Z" />
<path fill="#f8fcf8" opacity="1.00" d=" M 58.19 62.62 C 62.98 55.56 68.61 49.05 72.94 41.69 C 79.50 46.87 84.21 54.95 83.26 63.53 C 79.50 63.60 75.74 63.58 71.98 63.57 C 71.38 59.50 70.60 55.42 68.39 51.87 C 66.35 55.97 64.19 60.01 62.35 64.20 C 60.96 63.69 59.58 63.15 58.19 62.62 M 72.47 49.53 C 73.62 49.99 75.05 48.10 74.06 47.19 C 72.80 46.59 71.70 48.58 72.47 49.53 M 72.88 53.26 C 73.17 53.83 73.75 54.96 74.04 55.52 C 75.41 54.92 76.77 54.31 78.15 53.73 C 77.57 52.60 77.01 51.45 76.45 50.31 C 75.26 51.29 74.07 52.28 72.88 53.26 M 74.12 59.86 C 75.99 59.96 77.87 60.02 79.74 60.04 C 79.52 58.96 79.29 57.88 79.05 56.80 C 77.35 57.74 75.70 58.74 74.12 59.86 Z" />
<path fill="#f8fcf8" opacity="1.00" d=" M 33.76 58.67 C 34.56 54.20 36.63 50.10 39.14 46.36 C 40.21 47.23 41.38 48.00 42.27 49.06 C 39.83 52.43 37.59 55.92 36.49 60.00 C 35.57 59.56 34.66 59.12 33.76 58.67 Z" />
<path fill="#f8fcf8" opacity="1.00" d=" M 55.11 65.26 C 57.31 64.29 60.99 64.78 60.80 67.85 C 60.43 70.63 57.27 70.71 55.20 69.88 C 55.04 68.34 55.03 66.80 55.11 65.26 Z" />
</g>
</svg>
