<?xml version="1.0" encoding="UTF-8" ?>
<!DOCTYPE svg PUBLIC "-//W3C//DTD SVG 1.1//EN" "http://www.w3.org/Graphics/SVG/1.1/DTD/svg11.dtd">
<svg width="117px" height="140px" viewBox="0 0 117 140" version="1.1" xmlns="http://www.w3.org/2000/svg">
<g id="#000000ff">
<path fill="#000000" opacity="1.00" d=" M 0.00 0.00 L 117.00 0.00 L 117.00 140.00 L 0.00 140.00 L 0.00 0.00 M 33.24 10.24 C 17.97 11.75 5.21 25.62 5.04 40.97 C 4.95 60.00 5.01 79.04 5.01 98.07 C 4.98 106.69 8.68 115.22 14.94 121.13 C 21.03 127.03 29.53 130.22 38.00 130.01 C 53.01 129.92 68.03 130.15 83.05 129.90 C 98.97 129.27 112.80 115.02 112.95 99.08 C 113.04 79.70 113.03 60.32 112.95 40.95 C 112.83 24.62 98.35 10.19 82.04 10.04 C 65.78 10.10 49.49 9.71 33.24 10.24 Z" />
<path fill="#000000" opacity="1.00" d=" M 33.23 12.30 C 49.48 11.77 65.76 12.14 82.02 12.10 C 97.25 12.19 110.83 25.73 110.89 40.96 C 111.03 59.30 110.90 77.64 110.95 95.98 C 111.08 101.36 110.28 106.88 107.65 111.64 C 102.75 121.50 92.01 128.09 80.99 127.92 C 65.98 127.96 50.96 128.00 35.94 127.90 C 20.72 127.79 7.18 114.27 7.10 99.04 C 7.02 79.67 7.02 60.30 7.10 40.93 C 7.24 26.69 19.09 13.79 33.23 12.30 M 46.03 28.21 C 46.15 34.03 46.08 39.85 46.09 45.67 C 43.75 45.68 41.42 45.68 39.08 45.72 C 39.49 50.53 38.61 55.48 39.57 60.21 C 42.17 62.86 46.28 61.27 49.56 61.65 C 52.50 64.52 55.37 67.46 58.39 70.26 C 54.70 70.36 51.02 70.30 47.34 70.35 C 47.39 72.90 47.40 75.45 47.34 78.00 C 55.55 77.82 63.79 78.36 71.98 77.71 C 71.73 77.23 71.22 76.28 70.97 75.81 C 64.03 75.49 57.07 75.78 50.13 75.67 C 50.08 75.04 49.99 73.77 49.94 73.14 C 53.57 72.94 57.21 73.01 60.84 72.94 C 60.84 72.24 60.85 70.84 60.85 70.15 C 63.73 67.32 66.56 64.44 69.47 61.64 C 72.75 61.21 77.49 63.10 79.62 59.74 C 80.15 55.09 79.62 50.39 79.92 45.72 C 77.58 45.68 75.24 45.67 72.90 45.67 C 72.92 39.85 72.85 34.03 72.97 28.22 C 63.99 28.13 55.01 28.14 46.03 28.21 Z" />
<path fill="#000000" opacity="1.00" d=" M 48.75 31.05 C 55.91 30.90 63.09 31.02 70.25 31.04 C 70.22 36.78 70.36 42.53 70.15 48.27 C 72.43 48.31 74.70 48.33 76.98 48.37 C 76.92 51.93 76.95 55.50 76.88 59.06 C 65.27 58.86 53.66 59.18 42.05 58.92 C 42.07 55.40 42.08 51.88 42.02 48.35 C 48.76 48.26 55.49 48.35 62.22 48.32 C 62.22 47.66 62.22 46.34 62.22 45.68 C 57.72 45.68 53.23 45.67 48.73 45.70 C 48.74 43.91 48.74 42.12 48.74 40.33 C 53.23 40.31 57.73 40.33 62.22 40.32 C 62.22 39.66 62.22 38.34 62.22 37.68 C 57.73 37.68 53.23 37.66 48.74 37.70 C 48.74 35.49 48.74 33.27 48.75 31.05 Z" />
<path fill="#000000" opacity="1.00" d=" M 53.18 61.72 C 57.39 61.65 61.61 61.65 65.82 61.72 C 63.67 63.71 61.55 65.74 59.48 67.83 C 57.44 65.73 55.33 63.70 53.18 61.72 Z" />
</g>
<g id="#788cc0ff">
<path fill="#788cc0" opacity="1.00" d=" M 33.24 10.24 C 49.49 9.71 65.78 10.10 82.04 10.04 C 98.35 10.19 112.83 24.62 112.95 40.95 C 113.03 60.32 113.04 79.70 112.95 99.08 C 112.80 115.02 98.97 129.27 83.05 129.90 C 68.03 130.15 53.01 129.92 38.00 130.01 C 29.53 130.22 21.03 127.03 14.94 121.13 C 8.68 115.22 4.98 106.69 5.01 98.07 C 5.01 79.04 4.95 60.00 5.04 40.97 C 5.21 25.62 17.97 11.75 33.24 10.24 M 33.23 12.30 C 19.09 13.79 7.24 26.69 7.10 40.93 C 7.02 60.30 7.02 79.67 7.10 99.04 C 7.18 114.27 20.72 127.79 35.94 127.90 C 50.96 128.00 65.98 127.96 80.99 127.92 C 92.01 128.09 102.75 121.50 107.65 111.64 C 110.28 106.88 111.08 101.36 110.95 95.98 C 110.90 77.64 111.03 59.30 110.89 40.96 C 110.83 25.73 97.25 12.19 82.02 12.10 C 65.76 12.14 49.48 11.77 33.23 12.30 Z" />
</g>
<g id="#f8fcf8ff">
<path fill="#f8fcf8" opacity="1.00" d=" M 46.03 28.21 C 55.01 28.14 63.99 28.13 72.97 28.22 C 72.85 34.03 72.92 39.85 72.90 45.67 C 75.24 45.67 77.58 45.68 79.92 45.72 C 79.62 50.39 80.15 55.09 79.62 59.74 C 77.49 63.10 72.75 61.21 69.47 61.64 C 66.56 64.44 63.73 67.32 60.85 70.15 C 60.85 70.84 60.84 72.24 60.84 72.94 C 57.21 73.01 53.57 72.94 49.94 73.14 C 49.99 73.77 50.08 75.04 50.13 75.67 C 57.07 75.78 64.03 75.49 70.97 75.81 C 71.22 76.28 71.73 77.23 71.98 77.71 C 63.79 78.36 55.55 77.82 47.34 78.00 C 47.40 75.45 47.39 72.90 47.34 70.35 C 51.02 70.30 54.70 70.36 58.39 70.26 C 55.37 67.46 52.50 64.52 49.56 61.65 C 46.28 61.27 42.17 62.86 39.57 60.21 C 38.61 55.48 39.49 50.53 39.08 45.72 C 41.42 45.68 43.75 45.68 46.09 45.67 C 46.08 39.85 46.15 34.03 46.03 28.21 M 48.75 31.05 C 48.74 33.27 48.74 35.49 48.74 37.70 C 53.23 37.66 57.73 37.68 62.22 37.68 C 62.22 38.34 62.22 39.66 62.22 40.32 C 57.73 40.33 53.23 40.31 48.74 40.33 C 48.74 42.12 48.74 43.91 48.73 45.70 C 53.23 45.67 57.72 45.68 62.22 45.68 C 62.22 46.34 62.22 47.66 62.22 48.32 C 55.49 48.35 48.76 48.26 42.02 48.35 C 42.08 51.88 42.07 55.40 42.05 58.92 C 53.66 59.18 65.27 58.86 76.88 59.06 C 76.95 55.50 76.92 51.93 76.98 48.37 C 74.70 48.33 72.43 48.31 70.15 48.27 C 70.36 42.53 70.22 36.78 70.25 31.04 C 63.09 31.02 55.91 30.90 48.75 31.05 M 53.18 61.72 C 55.33 63.70 57.44 65.73 59.48 67.83 C 61.55 65.74 63.67 63.71 65.82 61.72 C 61.61 61.65 57.39 61.65 53.18 61.72 Z" />
</g>
</svg>
