<?xml version="1.0" encoding="UTF-8" ?>
<!DOCTYPE svg PUBLIC "-//W3C//DTD SVG 1.1//EN" "http://www.w3.org/Graphics/SVG/1.1/DTD/svg11.dtd">
<svg width="150px" height="80px" viewBox="0 0 150 80" version="1.1" xmlns="http://www.w3.org/2000/svg">
<g id="#000000ff">
<path fill="#000000" opacity="1.00" d=" M 0.00 0.00 L 150.00 0.00 L 150.00 80.00 L 0.00 80.00 L 0.00 0.00 M 6.34 5.47 C 3.28 6.54 1.01 9.59 1.03 12.85 C 0.95 30.58 1.04 48.31 0.98 66.04 C 0.81 68.92 2.00 71.93 4.46 73.55 C 7.21 75.58 10.80 74.91 13.99 75.01 C 56.01 74.99 98.04 75.00 140.06 75.00 C 144.59 75.49 149.09 71.72 148.95 67.08 C 149.09 49.74 148.93 32.40 149.03 15.06 C 149.00 13.02 149.07 10.83 147.92 9.05 C 146.40 6.23 143.13 4.77 140.00 4.99 C 98.33 5.02 56.66 5.00 14.99 5.00 C 12.11 5.08 9.14 4.65 6.34 5.47 Z" />
<path fill="#000000" opacity="1.00" d=" M 7.18 7.31 C 9.08 6.81 11.06 7.03 13.00 6.98 C 55.71 7.04 98.42 6.94 141.13 7.03 C 144.28 7.01 147.01 9.78 146.97 12.93 C 147.01 30.98 147.03 49.05 146.96 67.11 C 147.05 70.73 143.48 73.47 139.99 73.01 C 96.31 72.98 52.63 73.04 8.95 72.98 C 5.79 73.05 3.01 70.28 3.03 67.13 C 2.94 49.40 3.04 31.67 2.99 13.94 C 2.75 11.11 4.32 8.08 7.18 7.31 M 42.00 28.99 C 42.07 36.30 41.86 43.63 42.08 50.94 C 43.02 52.63 45.32 52.03 46.86 51.76 C 48.07 50.89 47.63 49.28 47.74 48.02 C 47.68 41.69 47.69 35.36 47.74 29.02 C 45.83 29.02 43.91 29.01 42.00 28.99 M 51.98 36.05 C 52.54 41.31 50.84 46.99 53.08 51.94 C 57.89 48.58 61.83 44.16 65.95 40.02 C 62.27 36.00 57.79 32.80 53.63 29.33 C 51.12 30.20 52.27 33.96 51.98 36.05 Z" />
</g>
<g id="#6e8ac5ff">
<path fill="#6e8ac5" opacity="1.00" d=" M 6.34 5.47 C 9.14 4.65 12.11 5.08 14.99 5.00 C 56.66 5.00 98.33 5.02 140.00 4.99 C 143.13 4.77 146.40 6.23 147.92 9.05 C 149.07 10.83 149.00 13.02 149.03 15.06 C 148.93 32.40 149.09 49.74 148.95 67.08 C 149.09 71.72 144.59 75.49 140.06 75.00 C 98.04 75.00 56.01 74.99 13.99 75.01 C 10.80 74.91 7.21 75.58 4.46 73.55 C 2.00 71.93 0.81 68.92 0.98 66.04 C 1.04 48.31 0.95 30.58 1.03 12.85 C 1.01 9.59 3.28 6.54 6.34 5.47 M 7.18 7.31 C 4.32 8.08 2.75 11.11 2.99 13.94 C 3.04 31.67 2.94 49.40 3.03 67.13 C 3.01 70.28 5.79 73.05 8.95 72.98 C 52.63 73.04 96.31 72.98 139.99 73.01 C 143.48 73.47 147.05 70.73 146.96 67.11 C 147.03 49.05 147.01 30.98 146.97 12.93 C 147.01 9.78 144.28 7.01 141.13 7.03 C 98.42 6.94 55.71 7.04 13.00 6.98 C 11.06 7.03 9.08 6.81 7.18 7.31 Z" />
</g>
<g id="#f8fcf8ff">
<path fill="#f8fcf8" opacity="1.00" d=" M 42.00 28.99 C 43.91 29.01 45.83 29.02 47.74 29.02 C 47.69 35.36 47.68 41.69 47.74 48.02 C 47.63 49.28 48.07 50.89 46.86 51.76 C 45.32 52.03 43.02 52.63 42.08 50.94 C 41.86 43.63 42.07 36.30 42.00 28.99 Z" />
<path fill="#f8fcf8" opacity="1.00" d=" M 51.98 36.05 C 52.27 33.96 51.12 30.20 53.63 29.33 C 57.79 32.80 62.27 36.00 65.95 40.02 C 61.83 44.16 57.89 48.58 53.08 51.94 C 50.84 46.99 52.54 41.31 51.98 36.05 Z" />
</g>
</svg>
