<?xml version="1.0" encoding="UTF-8" ?>
<!DOCTYPE svg PUBLIC "-//W3C//DTD SVG 1.1//EN" "http://www.w3.org/Graphics/SVG/1.1/DTD/svg11.dtd">
<svg width="117px" height="140px" viewBox="0 0 117 140" version="1.1" xmlns="http://www.w3.org/2000/svg">
<g id="#000000ff">
<path fill="#000000" opacity="1.00" d=" M 0.00 0.00 L 117.00 0.00 L 117.00 140.00 L 0.00 140.00 L 0.00 0.00 M 29.52 10.65 C 15.39 13.35 4.18 26.58 4.01 40.99 C 3.99 60.31 3.99 79.63 4.01 98.96 C 4.10 114.97 17.99 129.30 33.98 129.94 C 49.31 130.09 64.64 129.95 79.97 130.00 C 91.83 130.17 103.33 123.03 108.57 112.42 C 111.04 107.67 112.13 102.30 112.02 96.97 C 111.93 77.95 112.11 58.94 111.93 39.93 C 111.28 24.33 97.61 10.70 82.01 10.07 C 69.00 9.89 55.98 10.06 42.97 10.00 C 38.48 10.03 33.94 9.72 29.52 10.65 Z" />
<path fill="#000000" opacity="1.00" d=" M 29.53 12.70 C 33.28 11.87 37.15 12.01 40.97 12.00 C 54.68 12.06 68.40 11.87 82.10 12.10 C 96.95 12.78 109.85 26.10 109.95 40.99 C 110.03 60.33 110.04 79.67 109.95 99.01 C 109.87 114.29 96.26 127.85 81.00 127.95 C 65.67 128.04 50.33 128.02 35.00 127.96 C 19.75 127.84 6.16 114.31 6.04 99.04 C 5.97 79.69 5.97 60.33 6.04 40.98 C 6.21 27.64 16.51 15.41 29.53 12.70 M 45.30 37.82 C 44.04 40.96 43.05 44.22 41.36 47.17 C 43.42 47.93 45.51 48.60 47.61 49.21 C 48.19 47.62 48.93 46.08 49.62 44.53 C 49.69 47.62 50.73 50.53 51.89 53.35 C 53.67 52.70 55.42 51.95 57.19 51.26 C 56.67 49.09 56.30 46.88 56.17 44.65 C 57.43 45.76 58.82 46.69 60.05 47.83 C 59.45 47.68 58.24 47.39 57.63 47.25 C 57.60 49.16 57.58 51.08 57.57 52.99 C 60.93 52.99 64.29 52.99 67.65 53.07 C 67.46 57.12 67.92 61.21 67.39 65.24 C 66.96 65.54 66.11 66.15 65.68 66.45 C 65.53 62.36 65.61 58.27 65.63 54.18 C 61.15 54.19 56.67 54.18 52.19 54.19 C 52.18 59.12 52.19 64.05 52.17 68.98 C 56.17 69.01 60.16 69.02 64.15 68.95 C 64.61 70.20 65.09 71.44 65.58 72.67 C 68.46 72.56 73.68 73.13 73.86 69.02 C 74.11 61.88 74.11 54.71 73.86 47.58 C 73.36 47.48 72.35 47.28 71.84 47.18 C 71.94 46.70 72.14 45.75 72.24 45.28 C 73.06 45.33 74.70 45.45 75.52 45.51 C 75.56 43.47 75.60 41.42 75.64 39.38 C 73.05 39.41 70.47 39.43 67.88 39.33 C 65.63 38.23 63.13 37.87 60.69 37.46 C 60.17 39.08 59.70 40.74 58.93 42.26 C 57.92 44.39 56.78 37.72 59.34 39.54 C 56.97 39.42 54.57 39.60 52.22 39.25 C 49.97 38.60 47.73 37.22 45.30 37.82 M 44.18 49.61 C 44.19 57.19 44.20 64.78 44.17 72.36 C 46.31 72.40 48.45 72.37 50.59 72.41 C 50.52 64.80 50.80 57.19 50.42 49.59 C 48.34 49.57 46.26 49.61 44.18 49.61 Z" />
<path fill="#000000" opacity="1.00" d=" M 64.12 45.48 C 65.51 44.32 67.46 46.68 65.84 47.69 C 64.44 48.82 62.51 46.52 64.12 45.48 Z" />
</g>
<g id="#6a84bcff">
<path fill="#6a84bc" opacity="1.00" d=" M 29.52 10.65 C 33.94 9.72 38.48 10.03 42.97 10.00 C 55.98 10.06 69.00 9.89 82.01 10.07 C 97.61 10.70 111.28 24.33 111.93 39.93 C 112.11 58.94 111.93 77.95 112.02 96.97 C 112.13 102.30 111.04 107.67 108.57 112.42 C 103.33 123.03 91.83 130.17 79.97 130.00 C 64.64 129.95 49.31 130.09 33.98 129.94 C 17.99 129.30 4.10 114.97 4.01 98.96 C 3.99 79.63 3.99 60.31 4.01 40.99 C 4.18 26.58 15.39 13.35 29.52 10.65 M 29.53 12.70 C 16.51 15.41 6.21 27.64 6.04 40.98 C 5.97 60.33 5.97 79.69 6.04 99.04 C 6.16 114.31 19.75 127.84 35.00 127.96 C 50.33 128.02 65.67 128.04 81.00 127.95 C 96.26 127.85 109.87 114.29 109.95 99.01 C 110.04 79.67 110.03 60.33 109.95 40.99 C 109.85 26.10 96.95 12.78 82.10 12.10 C 68.40 11.87 54.68 12.06 40.97 12.00 C 37.15 12.01 33.28 11.87 29.53 12.70 Z" />
</g>
<g id="#10ec50ff">
<path fill="#10ec50" opacity="1.00" d=" M 45.30 37.82 C 47.73 37.22 49.97 38.60 52.22 39.25 C 54.57 39.60 56.97 39.42 59.34 39.54 C 56.78 37.72 57.92 44.39 58.93 42.26 C 59.70 40.74 60.17 39.08 60.69 37.46 C 63.13 37.87 65.63 38.23 67.88 39.33 C 70.47 39.43 73.05 39.41 75.64 39.38 C 75.60 41.42 75.56 43.47 75.52 45.51 C 74.70 45.45 73.06 45.33 72.24 45.28 C 72.14 45.75 71.94 46.70 71.84 47.18 C 72.35 47.28 73.36 47.48 73.86 47.58 C 74.11 54.71 74.11 61.88 73.86 69.02 C 73.68 73.13 68.46 72.56 65.58 72.67 C 65.09 71.44 64.61 70.20 64.15 68.95 C 60.16 69.02 56.17 69.01 52.17 68.98 C 52.19 64.05 52.18 59.12 52.19 54.19 C 56.67 54.18 61.15 54.19 65.63 54.18 C 65.61 58.27 65.53 62.36 65.68 66.45 C 66.11 66.15 66.96 65.54 67.39 65.24 C 67.92 61.21 67.46 57.12 67.65 53.07 C 64.29 52.99 60.93 52.99 57.57 52.99 C 57.58 51.08 57.60 49.16 57.63 47.25 C 58.24 47.39 59.45 47.68 60.05 47.83 C 58.82 46.69 57.43 45.76 56.17 44.65 C 56.30 46.88 56.67 49.09 57.19 51.26 C 55.42 51.95 53.67 52.70 51.89 53.35 C 50.73 50.53 49.69 47.62 49.62 44.53 C 48.93 46.08 48.19 47.62 47.61 49.21 C 45.51 48.60 43.42 47.93 41.36 47.17 C 43.05 44.22 44.04 40.96 45.30 37.82 M 64.12 45.48 C 62.51 46.52 64.44 48.82 65.84 47.69 C 67.46 46.68 65.51 44.32 64.12 45.48 M 57.60 58.32 C 57.86 59.67 58.58 59.88 59.76 58.95 C 59.51 57.61 58.79 57.40 57.60 58.32 M 57.63 64.06 C 57.85 65.37 58.59 65.61 59.84 64.78 C 59.61 63.44 58.87 63.21 57.63 64.06 Z" />
<path fill="#10ec50" opacity="1.00" d=" M 44.18 49.61 C 46.26 49.61 48.34 49.57 50.42 49.59 C 50.80 57.19 50.52 64.80 50.59 72.41 C 48.45 72.37 46.31 72.40 44.17 72.36 C 44.20 64.78 44.19 57.19 44.18 49.61 Z" />
</g>
<g id="#037823ff">
<path fill="#037823" opacity="1.00" d=" M 57.60 58.32 C 58.79 57.40 59.51 57.61 59.76 58.95 C 58.58 59.88 57.86 59.67 57.60 58.32 Z" />
</g>
<g id="#03300dff">
<path fill="#03300d" opacity="1.00" d=" M 57.63 64.06 C 58.87 63.21 59.61 63.44 59.84 64.78 C 58.59 65.61 57.85 65.37 57.63 64.06 Z" />
</g>
</svg>
