<?xml version="1.0" encoding="UTF-8" ?>
<!DOCTYPE svg PUBLIC "-//W3C//DTD SVG 1.1//EN" "http://www.w3.org/Graphics/SVG/1.1/DTD/svg11.dtd">
<svg width="117px" height="140px" viewBox="0 0 117 140" version="1.1" xmlns="http://www.w3.org/2000/svg">
<g id="#000000ff">
<path fill="#000000" opacity="1.00" d=" M 0.00 0.00 L 117.00 0.00 L 117.00 140.00 L 0.00 140.00 L 0.00 0.00 M 30.45 10.67 C 16.38 13.39 5.22 26.56 5.02 40.92 C 5.02 60.64 4.92 80.36 5.06 100.08 C 5.73 116.03 20.02 129.85 35.98 129.99 C 51.68 129.97 67.38 130.09 83.07 129.93 C 99.01 129.29 112.86 115.00 112.98 99.04 C 113.02 79.68 113.02 60.32 112.98 40.96 C 112.86 24.98 98.99 10.71 83.03 10.07 C 69.36 9.88 55.69 10.08 42.02 9.99 C 38.16 9.97 34.25 9.85 30.45 10.67 Z" />
<path fill="#000000" opacity="1.00" d=" M 30.45 12.71 C 35.23 11.67 40.16 12.09 45.01 12.00 C 57.67 12.06 70.33 11.88 82.98 12.10 C 97.86 12.71 110.84 26.04 110.95 40.95 C 111.04 60.30 111.03 79.65 110.95 99.00 C 110.88 114.26 97.30 127.83 82.05 127.94 C 66.70 128.04 51.34 128.02 35.99 127.96 C 20.75 127.84 7.16 114.31 7.05 99.06 C 6.97 79.72 6.97 60.39 7.04 41.05 C 7.17 27.71 17.45 15.46 30.45 12.71 M 39.16 31.97 C 36.32 36.02 39.25 40.83 40.40 44.94 C 42.75 51.35 43.97 58.64 49.20 63.49 C 50.79 63.32 52.38 63.08 53.86 62.46 C 55.48 67.85 57.99 73.02 62.43 76.63 C 69.80 68.94 77.61 61.68 84.92 53.93 C 81.19 50.02 76.95 46.42 71.53 45.21 C 71.79 43.65 72.81 41.88 71.35 40.61 C 66.43 34.29 58.01 33.27 50.99 30.57 C 47.28 29.05 41.69 27.94 39.16 31.97 Z" />
<path fill="#000000" opacity="1.00" d=" M 41.03 34.29 C 41.95 32.94 43.51 32.35 44.88 31.60 C 49.51 33.30 54.23 34.70 58.90 36.30 C 62.81 37.53 66.65 38.92 69.54 41.98 C 68.47 43.58 66.19 44.60 66.00 46.65 C 71.23 48.27 77.19 49.12 80.91 53.58 C 74.98 60.14 68.38 66.07 62.31 72.51 C 58.06 68.27 57.15 62.08 55.14 56.66 C 53.69 58.06 52.25 59.48 50.80 60.88 C 46.40 56.64 45.62 50.29 43.48 44.84 C 42.62 41.34 40.47 38.01 41.03 34.29 Z" />
</g>
<g id="#6a84bcff">
<path fill="#6a84bc" opacity="1.00" d=" M 30.45 10.67 C 34.25 9.85 38.16 9.97 42.02 9.99 C 55.69 10.08 69.36 9.88 83.03 10.07 C 98.99 10.71 112.86 24.98 112.98 40.96 C 113.02 60.32 113.02 79.68 112.98 99.04 C 112.86 115.00 99.01 129.29 83.07 129.93 C 67.38 130.09 51.68 129.97 35.98 129.99 C 20.02 129.85 5.73 116.03 5.06 100.08 C 4.92 80.36 5.02 60.64 5.02 40.92 C 5.22 26.56 16.38 13.39 30.45 10.67 M 30.45 12.71 C 17.45 15.46 7.17 27.71 7.04 41.05 C 6.97 60.39 6.97 79.72 7.05 99.06 C 7.16 114.31 20.75 127.84 35.99 127.96 C 51.34 128.02 66.70 128.04 82.05 127.94 C 97.30 127.83 110.88 114.26 110.95 99.00 C 111.03 79.65 111.04 60.30 110.95 40.95 C 110.84 26.04 97.86 12.71 82.98 12.10 C 70.33 11.88 57.67 12.06 45.01 12.00 C 40.16 12.09 35.23 11.67 30.45 12.71 Z" />
</g>
<g id="#f8fcf8ff">
<path fill="#f8fcf8" opacity="1.00" d=" M 39.16 31.97 C 41.69 27.94 47.28 29.05 50.99 30.57 C 58.01 33.27 66.43 34.29 71.35 40.61 C 72.81 41.88 71.79 43.65 71.53 45.21 C 76.95 46.42 81.19 50.02 84.92 53.93 C 77.61 61.68 69.80 68.94 62.43 76.63 C 57.99 73.02 55.48 67.85 53.86 62.46 C 52.38 63.08 50.79 63.32 49.20 63.49 C 43.97 58.64 42.75 51.35 40.40 44.94 C 39.25 40.83 36.32 36.02 39.16 31.97 M 41.03 34.29 C 40.47 38.01 42.62 41.34 43.48 44.84 C 45.62 50.29 46.40 56.64 50.80 60.88 C 52.25 59.48 53.69 58.06 55.14 56.66 C 57.15 62.08 58.06 68.27 62.31 72.51 C 68.38 66.07 74.98 60.14 80.91 53.58 C 77.19 49.12 71.23 48.27 66.00 46.65 C 66.19 44.60 68.47 43.58 69.54 41.98 C 66.65 38.92 62.81 37.53 58.90 36.30 C 54.23 34.70 49.51 33.30 44.88 31.60 C 43.51 32.35 41.95 32.94 41.03 34.29 Z" />
</g>
</svg>
