<?xml version="1.0" encoding="UTF-8" ?>
<!DOCTYPE svg PUBLIC "-//W3C//DTD SVG 1.1//EN" "http://www.w3.org/Graphics/SVG/1.1/DTD/svg11.dtd">
<svg width="117pt" height="140pt" viewBox="0 0 117 140" version="1.1" xmlns="http://www.w3.org/2000/svg">
<g id="#000000ff">
<path fill="#000000" opacity="1.00" d=" M 0.00 0.00 L 117.00 0.00 L 117.00 140.00 L 0.00 140.00 L 0.00 0.00 M 33.13 10.22 C 17.90 11.79 5.20 25.61 5.01 40.93 C 4.99 60.28 4.99 79.63 5.01 98.98 C 5.12 114.97 18.96 129.27 34.92 129.93 C 50.26 130.10 65.62 129.95 80.96 130.00 C 94.10 130.23 106.66 121.38 111.06 109.04 C 113.72 102.34 112.88 95.02 113.00 87.98 C 112.95 71.98 113.10 55.98 112.93 39.98 C 112.32 24.00 98.01 10.16 82.03 10.02 C 65.73 10.12 49.41 9.72 33.13 10.22 Z" />
<path fill="#000000" opacity="1.00" d=" M 30.50 12.71 C 34.26 11.87 38.14 12.01 41.97 12.00 C 55.68 12.06 69.39 11.87 83.09 12.10 C 97.93 12.78 110.84 26.09 110.95 40.96 C 111.03 60.33 111.03 79.70 110.95 99.07 C 110.82 113.94 97.90 127.26 83.05 127.90 C 68.70 128.13 54.35 127.93 40.00 128.00 C 34.54 128.18 28.93 127.55 24.01 125.02 C 13.83 120.23 6.83 109.31 7.01 98.02 C 7.01 78.99 6.96 59.96 7.04 40.93 C 7.23 27.62 17.52 15.42 30.50 12.71 M 49.84 27.83 C 49.83 37.47 49.83 47.10 49.84 56.73 C 47.13 59.17 44.78 62.30 44.62 66.10 C 43.62 72.92 49.00 80.10 56.01 80.42 C 62.00 81.12 67.69 76.60 69.10 70.89 C 70.81 65.68 68.18 60.10 64.16 56.73 C 64.17 47.11 64.17 37.48 64.17 27.85 C 59.41 27.36 54.60 27.39 49.84 27.83 M 66.68 38.84 C 67.10 39.39 67.93 40.49 68.35 41.05 C 70.25 40.84 73.29 41.71 73.60 38.99 C 72.75 35.98 68.21 36.67 66.68 38.84 M 66.54 45.99 C 67.92 48.10 70.50 48.48 72.77 47.68 C 74.34 46.31 73.15 43.70 71.08 44.07 C 69.20 43.61 67.69 44.62 66.54 45.99 M 68.36 51.00 C 67.97 51.49 67.20 52.48 66.81 52.98 C 67.20 53.47 67.96 54.46 68.34 54.95 C 70.24 54.72 73.16 55.61 73.63 52.99 C 73.21 50.35 70.25 51.19 68.36 51.00 Z" />
<path fill="#000000" opacity="1.00" d=" M 53.43 31.21 C 55.81 31.27 58.19 31.27 60.57 31.21 C 60.21 40.36 60.54 49.53 60.39 58.68 C 65.24 61.19 67.36 67.66 64.50 72.42 C 61.61 78.07 52.42 78.08 49.51 72.44 C 46.65 67.69 48.72 61.19 53.61 58.71 C 53.47 49.54 53.78 40.37 53.43 31.21 M 55.00 37.00 C 54.94 44.70 55.10 52.40 55.15 60.09 C 52.70 61.66 49.78 63.70 49.84 66.96 C 49.34 70.25 51.80 72.95 54.41 74.51 C 59.50 76.85 65.42 71.15 64.06 65.95 C 63.66 63.12 60.88 61.71 58.94 59.99 C 58.76 52.33 59.13 44.66 59.00 37.00 C 57.67 37.00 56.33 37.00 55.00 37.00 Z" />
</g>
<g id="#7185b5ff">
<path fill="#7185b5" opacity="1.00" d=" M 33.13 10.22 C 49.41 9.72 65.73 10.12 82.03 10.02 C 98.01 10.16 112.32 24.00 112.93 39.98 C 113.10 55.98 112.95 71.98 113.00 87.98 C 112.88 95.02 113.72 102.34 111.06 109.04 C 106.66 121.38 94.10 130.23 80.96 130.00 C 65.62 129.95 50.26 130.10 34.92 129.93 C 18.96 129.27 5.12 114.97 5.01 98.98 C 4.99 79.63 4.99 60.28 5.01 40.93 C 5.20 25.61 17.90 11.79 33.13 10.22 M 30.50 12.71 C 17.52 15.42 7.23 27.62 7.04 40.93 C 6.96 59.96 7.01 78.99 7.01 98.02 C 6.83 109.31 13.83 120.23 24.01 125.02 C 28.93 127.55 34.54 128.18 40.00 128.00 C 54.35 127.93 68.70 128.13 83.05 127.90 C 97.90 127.26 110.82 113.94 110.95 99.07 C 111.03 79.70 111.03 60.33 110.95 40.96 C 110.84 26.09 97.93 12.78 83.09 12.10 C 69.39 11.87 55.68 12.06 41.97 12.00 C 38.14 12.01 34.26 11.87 30.50 12.71 Z" />
</g>
<g id="#f8fcf8ff">
<path fill="#f8fcf8" opacity="1.00" d=" M 49.84 27.83 C 54.60 27.39 59.41 27.36 64.17 27.85 C 64.17 37.48 64.17 47.11 64.16 56.73 C 68.18 60.10 70.81 65.68 69.10 70.89 C 67.69 76.60 62.00 81.12 56.01 80.42 C 49.00 80.10 43.62 72.92 44.62 66.10 C 44.78 62.30 47.13 59.17 49.84 56.73 C 49.83 47.10 49.83 37.47 49.84 27.83 M 53.43 31.21 C 53.78 40.37 53.47 49.54 53.61 58.71 C 48.72 61.19 46.65 67.69 49.51 72.44 C 52.42 78.08 61.61 78.07 64.50 72.42 C 67.36 67.66 65.24 61.19 60.39 58.68 C 60.54 49.53 60.21 40.36 60.57 31.21 C 58.19 31.27 55.81 31.27 53.43 31.21 Z" />
<path fill="#f8fcf8" opacity="1.00" d=" M 55.00 37.00 C 56.33 37.00 57.67 37.00 59.00 37.00 C 59.13 44.66 58.76 52.33 58.94 59.99 C 60.88 61.71 63.66 63.12 64.06 65.95 C 65.42 71.15 59.50 76.85 54.41 74.51 C 51.80 72.95 49.34 70.25 49.84 66.96 C 49.78 63.70 52.70 61.66 55.15 60.09 C 55.10 52.40 54.94 44.70 55.00 37.00 Z" />
<path fill="#f8fcf8" opacity="1.00" d=" M 66.68 38.84 C 68.21 36.67 72.75 35.98 73.60 38.99 C 73.29 41.71 70.25 40.84 68.35 41.05 C 67.93 40.49 67.10 39.39 66.68 38.84 Z" />
<path fill="#f8fcf8" opacity="1.00" d=" M 66.54 45.99 C 67.69 44.62 69.20 43.61 71.08 44.07 C 73.15 43.70 74.34 46.31 72.77 47.68 C 70.50 48.48 67.92 48.10 66.54 45.99 Z" />
<path fill="#f8fcf8" opacity="1.00" d=" M 68.36 51.00 C 70.25 51.19 73.21 50.35 73.63 52.99 C 73.16 55.61 70.24 54.72 68.34 54.95 C 67.96 54.46 67.20 53.47 66.81 52.98 C 67.20 52.48 67.97 51.49 68.36 51.00 Z" />
</g>
</svg>
