<?xml version="1.0" encoding="UTF-8" ?>
<!DOCTYPE svg PUBLIC "-//W3C//DTD SVG 1.1//EN" "http://www.w3.org/Graphics/SVG/1.1/DTD/svg11.dtd">
<svg width="117px" height="140px" viewBox="0 0 117 140" version="1.1" xmlns="http://www.w3.org/2000/svg">
<g id="#000000ff">
<path fill="#000000" opacity="1.00" d=" M 0.00 0.00 L 117.00 0.00 L 117.00 140.00 L 0.00 140.00 L 0.00 0.00 M 33.16 10.25 C 17.91 11.80 5.20 25.66 5.04 40.99 C 4.97 60.35 4.97 79.72 5.04 99.08 C 5.20 115.40 19.67 129.83 35.99 129.96 C 51.68 129.98 67.39 130.12 83.08 129.89 C 99.03 129.25 112.84 114.95 112.95 98.99 C 113.05 80.00 112.99 60.99 112.98 41.99 C 113.09 31.17 107.18 20.60 97.99 14.92 C 92.39 11.33 85.66 9.78 79.05 9.98 C 63.76 10.18 48.44 9.66 33.16 10.25 Z" />
<path fill="#000000" opacity="1.00" d=" M 33.29 12.30 C 49.19 11.75 65.12 12.18 81.03 12.07 C 92.29 11.91 103.20 18.82 107.97 29.00 C 110.39 33.61 111.05 38.88 110.96 44.02 C 110.90 62.37 111.03 80.73 110.89 99.09 C 110.81 114.30 97.24 127.82 82.03 127.89 C 66.67 128.00 51.31 127.98 35.95 127.90 C 20.74 127.79 7.20 114.29 7.10 99.07 C 7.02 79.68 7.02 60.29 7.10 40.90 C 7.25 26.65 19.13 13.75 33.29 12.30 M 47.49 50.41 C 44.90 51.22 44.04 54.98 46.42 56.52 C 48.90 58.31 52.74 55.33 51.70 52.56 C 50.98 51.08 49.18 49.69 47.49 50.41 M 70.53 50.41 C 65.97 51.77 68.94 58.52 72.96 56.79 C 76.95 55.45 74.32 49.00 70.53 50.41 M 56.74 53.00 C 55.85 55.89 60.03 58.44 62.15 56.18 C 64.75 54.17 62.77 50.48 60.00 49.93 C 58.70 50.70 56.86 51.18 56.74 53.00 Z" />
</g>
<g id="#788cc0ff">
<path fill="#788cc0" opacity="1.00" d=" M 33.16 10.25 C 48.44 9.66 63.76 10.18 79.05 9.98 C 85.66 9.78 92.39 11.33 97.99 14.92 C 107.18 20.60 113.09 31.17 112.98 41.99 C 112.99 60.99 113.05 80.00 112.95 98.99 C 112.84 114.95 99.03 129.25 83.08 129.89 C 67.39 130.12 51.68 129.98 35.99 129.96 C 19.67 129.83 5.20 115.40 5.04 99.08 C 4.97 79.72 4.97 60.35 5.04 40.99 C 5.20 25.66 17.91 11.80 33.16 10.25 M 33.29 12.30 C 19.13 13.75 7.25 26.65 7.10 40.90 C 7.02 60.29 7.02 79.68 7.10 99.07 C 7.20 114.29 20.74 127.79 35.95 127.90 C 51.31 127.98 66.67 128.00 82.03 127.89 C 97.24 127.82 110.81 114.30 110.89 99.09 C 111.03 80.73 110.90 62.37 110.96 44.02 C 111.05 38.88 110.39 33.61 107.97 29.00 C 103.20 18.82 92.29 11.91 81.03 12.07 C 65.12 12.18 49.19 11.75 33.29 12.30 Z" />
</g>
<g id="#f8fcf8ff">
<path fill="#f8fcf8" opacity="1.00" d=" M 47.49 50.41 C 49.18 49.69 50.98 51.08 51.70 52.56 C 52.74 55.33 48.90 58.31 46.42 56.52 C 44.04 54.98 44.90 51.22 47.49 50.41 Z" />
<path fill="#f8fcf8" opacity="1.00" d=" M 70.53 50.41 C 74.32 49.00 76.95 55.45 72.96 56.79 C 68.94 58.52 65.97 51.77 70.53 50.41 Z" />
<path fill="#f8fcf8" opacity="1.00" d=" M 56.74 53.00 C 56.86 51.18 58.70 50.70 60.00 49.93 C 62.77 50.48 64.75 54.17 62.15 56.18 C 60.03 58.44 55.85 55.89 56.74 53.00 Z" />
</g>
</svg>
