<?xml version="1.0" encoding="UTF-8" ?>
<!DOCTYPE svg PUBLIC "-//W3C//DTD SVG 1.1//EN" "http://www.w3.org/Graphics/SVG/1.1/DTD/svg11.dtd">
<svg width="117px" height="140px" viewBox="0 0 117 140" version="1.1" xmlns="http://www.w3.org/2000/svg">
<g id="#000000ff">
<path fill="#000000" opacity="1.00" d=" M 0.00 0.00 L 117.00 0.00 L 117.00 140.00 L 0.00 140.00 L 0.00 0.00 M 30.47 10.66 C 16.39 13.38 5.22 26.56 5.01 40.93 C 5.02 60.64 4.93 80.35 5.06 100.06 C 5.72 116.01 19.98 129.83 35.95 129.99 C 51.66 129.97 67.37 130.09 83.07 129.93 C 99.03 129.28 112.87 114.99 112.99 99.02 C 112.98 79.35 113.07 59.67 112.94 39.99 C 112.32 24.36 98.61 10.69 82.98 10.06 C 68.65 9.89 54.31 10.07 39.98 9.98 C 36.80 9.95 33.59 9.99 30.47 10.66 Z" />
<path fill="#000000" opacity="1.00" d=" M 30.50 12.70 C 35.23 11.67 40.11 12.09 44.92 12.00 C 57.62 12.06 70.33 11.88 83.04 12.09 C 97.90 12.75 110.85 26.07 110.95 40.98 C 111.03 60.34 111.03 79.70 110.95 99.06 C 110.84 114.31 97.27 127.83 82.03 127.95 C 66.67 128.04 51.31 128.02 35.95 127.96 C 20.69 127.81 7.13 114.26 7.04 98.98 C 6.98 79.65 6.98 60.31 7.04 40.97 C 7.22 27.64 17.50 15.43 30.50 12.70 M 57.73 37.40 C 56.06 40.38 54.90 43.62 53.63 46.78 C 52.50 45.38 50.73 45.65 49.13 45.59 C 44.10 50.10 43.00 57.02 40.71 63.04 C 39.69 67.47 36.18 72.45 39.09 76.87 C 40.70 79.93 44.60 80.09 47.59 79.52 C 53.63 77.31 59.94 75.77 65.78 73.06 C 68.86 71.01 73.86 68.01 71.45 63.70 C 76.95 62.69 81.14 58.89 84.91 55.04 C 77.59 47.27 69.81 39.93 62.35 32.29 C 60.87 34.05 59.12 35.57 57.73 37.40 Z" />
<path fill="#000000" opacity="1.00" d=" M 62.32 36.46 C 68.31 43.08 75.45 48.73 80.88 55.82 C 77.82 58.86 73.72 59.74 69.95 61.45 C 68.73 61.59 67.51 61.71 66.30 61.82 C 66.25 62.21 66.14 62.99 66.09 63.38 C 67.30 64.56 68.48 65.76 69.62 67.00 C 67.37 68.40 65.67 70.88 62.89 71.27 C 61.18 71.62 59.50 72.21 58.04 73.20 C 53.59 74.17 49.28 75.82 45.00 77.38 C 43.48 76.62 41.30 75.96 40.96 74.04 C 40.67 70.52 42.76 67.43 43.48 64.09 C 45.68 58.68 46.34 52.26 50.83 48.10 C 52.25 49.50 53.66 50.91 55.13 52.25 C 57.17 46.86 58.04 40.66 62.32 36.46 Z" />
</g>
<g id="#6a84bcff">
<path fill="#6a84bc" opacity="1.00" d=" M 30.47 10.66 C 33.59 9.99 36.80 9.95 39.98 9.98 C 54.31 10.07 68.65 9.89 82.98 10.06 C 98.61 10.69 112.32 24.36 112.94 39.99 C 113.07 59.67 112.98 79.35 112.99 99.02 C 112.87 114.99 99.03 129.28 83.07 129.93 C 67.37 130.09 51.66 129.97 35.95 129.99 C 19.98 129.83 5.72 116.01 5.06 100.06 C 4.93 80.35 5.02 60.64 5.01 40.93 C 5.22 26.56 16.39 13.38 30.47 10.66 M 30.50 12.70 C 17.50 15.43 7.22 27.64 7.04 40.97 C 6.98 60.31 6.98 79.65 7.04 98.98 C 7.13 114.26 20.69 127.81 35.95 127.96 C 51.31 128.02 66.67 128.04 82.03 127.95 C 97.27 127.83 110.84 114.31 110.95 99.06 C 111.03 79.70 111.03 60.34 110.95 40.98 C 110.85 26.07 97.90 12.75 83.04 12.09 C 70.33 11.88 57.62 12.06 44.92 12.00 C 40.11 12.09 35.23 11.67 30.50 12.70 Z" />
</g>
<g id="#f8fcf8ff">
<path fill="#f8fcf8" opacity="1.00" d=" M 57.73 37.40 C 59.12 35.57 60.87 34.05 62.35 32.29 C 69.81 39.93 77.59 47.27 84.91 55.04 C 81.14 58.89 76.95 62.69 71.45 63.70 C 73.86 68.01 68.86 71.01 65.78 73.06 C 59.94 75.77 53.63 77.31 47.59 79.52 C 44.60 80.09 40.70 79.93 39.09 76.87 C 36.18 72.45 39.69 67.47 40.71 63.04 C 43.00 57.02 44.10 50.10 49.13 45.59 C 50.73 45.65 52.50 45.38 53.63 46.78 C 54.90 43.62 56.06 40.38 57.73 37.40 M 62.32 36.46 C 58.04 40.66 57.17 46.86 55.13 52.25 C 53.66 50.91 52.25 49.50 50.83 48.10 C 46.34 52.26 45.68 58.68 43.48 64.09 C 42.76 67.43 40.67 70.52 40.96 74.04 C 41.30 75.96 43.48 76.62 45.00 77.38 C 49.28 75.82 53.59 74.17 58.04 73.20 C 59.50 72.21 61.18 71.62 62.89 71.27 C 65.67 70.88 67.37 68.40 69.62 67.00 C 68.48 65.76 67.30 64.56 66.09 63.38 C 66.14 62.99 66.25 62.21 66.30 61.82 C 67.51 61.71 68.73 61.59 69.95 61.45 C 73.72 59.74 77.82 58.86 80.88 55.82 C 75.45 48.73 68.31 43.08 62.32 36.46 Z" />
</g>
</svg>
