<?xml version="1.0" encoding="UTF-8" ?>
<!DOCTYPE svg PUBLIC "-//W3C//DTD SVG 1.1//EN" "http://www.w3.org/Graphics/SVG/1.1/DTD/svg11.dtd">
<svg width="117pt" height="140pt" viewBox="0 0 117 140" version="1.1" xmlns="http://www.w3.org/2000/svg">
<g id="#000000ff">
<path fill="#000000" opacity="1.00" d=" M 0.00 0.00 L 117.00 0.00 L 117.00 140.00 L 0.00 140.00 L 0.00 0.00 M 33.27 10.24 C 17.99 11.73 5.23 25.59 5.04 40.95 C 4.97 60.31 4.97 79.68 5.04 99.05 C 5.18 115.37 19.63 129.81 35.95 129.96 C 51.65 129.99 67.36 130.11 83.07 129.89 C 98.99 129.26 112.81 115.00 112.95 99.07 C 113.06 80.04 112.99 61.00 112.98 41.97 C 113.15 29.15 104.71 16.84 92.76 12.26 C 85.24 9.08 76.95 10.19 69.01 10.00 C 57.10 10.15 45.16 9.69 33.27 10.24 Z" />
<path fill="#000000" opacity="1.00" d=" M 33.25 12.30 C 49.50 11.77 65.79 12.14 82.06 12.10 C 97.64 12.20 111.36 26.37 110.93 41.95 C 110.94 60.99 111.01 80.03 110.89 99.07 C 110.82 114.28 97.26 127.80 82.06 127.88 C 66.72 128.01 51.37 127.97 36.02 127.91 C 20.79 127.83 7.20 114.31 7.10 99.07 C 7.02 79.70 7.02 60.33 7.10 40.97 C 7.22 26.70 19.09 13.77 33.25 12.30 M 56.90 29.00 C 49.24 36.68 41.62 44.40 33.91 52.04 C 34.16 52.96 34.42 53.87 34.68 54.79 C 38.05 54.40 42.43 56.01 44.84 52.83 C 49.51 48.04 54.26 43.33 58.99 38.61 C 64.31 43.76 69.33 49.23 74.76 54.26 C 77.46 55.32 80.52 54.57 83.36 54.75 C 83.59 53.85 83.83 52.96 84.06 52.07 C 76.40 44.38 68.72 36.71 61.08 29.00 C 60.12 27.58 57.86 27.57 56.90 29.00 M 57.09 43.07 C 53.12 47.11 49.19 51.20 45.20 55.23 C 44.22 56.28 43.03 57.42 43.15 58.99 C 43.10 64.34 43.12 69.70 43.15 75.06 C 42.94 76.28 44.07 77.46 45.27 77.45 C 48.64 77.57 52.03 77.65 55.39 77.38 C 55.65 77.13 56.15 76.61 56.40 76.36 C 56.78 72.85 56.46 69.31 56.53 65.79 C 58.41 65.82 60.28 65.83 62.16 65.83 C 62.19 69.21 61.98 72.59 62.22 75.95 C 63.45 78.48 66.79 77.21 69.00 77.55 C 70.91 77.32 73.89 78.25 74.78 75.91 C 74.98 70.28 74.84 64.64 74.85 59.01 C 74.98 57.41 73.73 56.27 72.74 55.20 C 68.75 51.17 64.84 47.07 60.85 43.04 C 59.97 41.83 57.95 41.86 57.09 43.07 Z" />
<path fill="#000000" opacity="1.00" d=" M 38.12 51.82 C 45.29 45.14 52.01 37.99 58.98 31.11 C 65.98 37.97 72.67 45.16 79.85 51.82 C 78.72 51.81 77.58 51.80 76.44 51.81 C 71.27 46.53 66.03 41.31 60.79 36.10 C 59.91 34.99 58.08 34.94 57.21 36.07 C 51.98 41.29 46.74 46.51 41.57 51.80 C 40.71 51.80 38.98 51.81 38.12 51.82 Z" />
<path fill="#000000" opacity="1.00" d=" M 46.13 58.65 C 50.45 54.29 54.72 49.88 58.98 45.46 C 63.25 49.84 67.46 54.28 71.83 58.56 C 71.91 63.88 71.84 69.20 71.88 74.52 C 69.62 74.49 67.37 74.49 65.11 74.52 C 65.11 70.77 65.35 66.99 64.78 63.26 C 61.34 62.81 57.71 62.38 54.33 63.25 C 52.79 66.81 53.77 70.86 53.67 74.63 C 51.16 74.46 48.64 74.45 46.12 74.53 C 46.14 69.24 46.14 63.94 46.13 58.65 Z" />
</g>
<g id="#788cc0ff">
<path fill="#788cc0" opacity="1.00" d=" M 33.27 10.24 C 45.16 9.69 57.10 10.15 69.01 10.00 C 76.95 10.19 85.24 9.08 92.76 12.26 C 104.71 16.84 113.15 29.15 112.98 41.97 C 112.99 61.00 113.06 80.04 112.95 99.07 C 112.81 115.00 98.99 129.26 83.07 129.89 C 67.36 130.11 51.65 129.99 35.95 129.96 C 19.63 129.81 5.18 115.37 5.04 99.05 C 4.97 79.68 4.97 60.31 5.04 40.95 C 5.23 25.59 17.99 11.73 33.27 10.24 M 33.25 12.30 C 19.09 13.77 7.22 26.70 7.10 40.97 C 7.02 60.33 7.02 79.70 7.10 99.07 C 7.20 114.31 20.79 127.83 36.02 127.91 C 51.37 127.97 66.72 128.01 82.06 127.88 C 97.26 127.80 110.82 114.28 110.89 99.07 C 111.01 80.03 110.94 60.99 110.93 41.95 C 111.36 26.37 97.64 12.20 82.06 12.10 C 65.79 12.14 49.50 11.77 33.25 12.30 Z" />
</g>
<g id="#f8fcf8ff">
<path fill="#f8fcf8" opacity="1.00" d=" M 56.90 29.00 C 57.86 27.57 60.12 27.58 61.08 29.00 C 68.72 36.71 76.40 44.38 84.06 52.07 C 83.83 52.96 83.59 53.85 83.36 54.75 C 80.52 54.57 77.46 55.32 74.76 54.26 C 69.33 49.23 64.31 43.76 58.99 38.61 C 54.26 43.33 49.51 48.04 44.84 52.83 C 42.43 56.01 38.05 54.40 34.68 54.79 C 34.42 53.87 34.16 52.96 33.91 52.04 C 41.62 44.40 49.24 36.68 56.90 29.00 M 38.12 51.82 C 38.98 51.81 40.71 51.80 41.57 51.80 C 46.74 46.51 51.98 41.29 57.21 36.07 C 58.08 34.94 59.91 34.99 60.79 36.10 C 66.03 41.31 71.27 46.53 76.44 51.81 C 77.58 51.80 78.72 51.81 79.85 51.82 C 72.67 45.16 65.98 37.97 58.98 31.11 C 52.01 37.99 45.29 45.14 38.12 51.82 Z" />
<path fill="#f8fcf8" opacity="1.00" d=" M 57.09 43.07 C 57.95 41.86 59.97 41.83 60.85 43.04 C 64.84 47.07 68.75 51.17 72.74 55.20 C 73.73 56.27 74.98 57.41 74.85 59.01 C 74.84 64.64 74.98 70.28 74.78 75.91 C 73.89 78.25 70.91 77.32 69.00 77.55 C 66.79 77.21 63.45 78.48 62.22 75.95 C 61.98 72.59 62.19 69.21 62.16 65.83 C 60.28 65.83 58.41 65.82 56.53 65.79 C 56.46 69.31 56.78 72.85 56.40 76.36 C 56.15 76.61 55.65 77.13 55.39 77.38 C 52.03 77.65 48.64 77.57 45.27 77.45 C 44.07 77.46 42.94 76.28 43.15 75.06 C 43.12 69.70 43.10 64.34 43.15 58.99 C 43.03 57.42 44.22 56.28 45.20 55.23 C 49.19 51.20 53.12 47.11 57.09 43.07 M 46.13 58.65 C 46.14 63.94 46.14 69.24 46.12 74.53 C 48.64 74.45 51.16 74.46 53.67 74.63 C 53.77 70.86 52.79 66.81 54.33 63.25 C 57.71 62.38 61.34 62.81 64.78 63.26 C 65.35 66.99 65.11 70.77 65.11 74.52 C 67.37 74.49 69.62 74.49 71.88 74.52 C 71.84 69.20 71.91 63.88 71.83 58.56 C 67.46 54.28 63.25 49.84 58.98 45.46 C 54.72 49.88 50.45 54.29 46.13 58.65 Z" />
</g>
</svg>
