<?xml version="1.0" encoding="UTF-8" ?>
<!DOCTYPE svg PUBLIC "-//W3C//DTD SVG 1.1//EN" "http://www.w3.org/Graphics/SVG/1.1/DTD/svg11.dtd">
<svg width="117pt" height="140pt" viewBox="0 0 117 140" version="1.1" xmlns="http://www.w3.org/2000/svg">
<g id="#000000ff">
<path fill="#000000" opacity="1.00" d=" M 0.00 0.00 L 117.00 0.00 L 117.00 140.00 L 0.00 140.00 L 0.00 0.00 M 33.19 10.21 C 17.93 11.76 5.19 25.60 5.01 40.96 C 5.02 60.64 4.93 80.33 5.05 100.02 C 5.70 115.97 19.95 129.82 35.92 129.99 C 51.63 129.97 67.35 130.08 83.06 129.93 C 98.65 129.28 112.29 115.64 112.94 100.05 C 113.09 80.70 112.94 61.34 113.01 41.98 C 113.07 33.33 109.35 24.76 103.06 18.83 C 96.96 12.93 88.42 9.73 79.95 9.98 C 64.36 10.17 48.76 9.71 33.19 10.21 Z" />
<path fill="#000000" opacity="1.00" d=" M 30.48 12.71 C 34.90 11.71 39.45 12.06 43.94 12.00 C 56.96 12.06 70.00 11.88 83.02 12.09 C 97.92 12.75 110.87 26.10 110.96 41.03 C 111.05 59.34 110.97 77.66 111.00 95.98 C 111.18 101.38 110.29 106.90 107.67 111.69 C 102.74 121.52 92.04 128.12 81.03 127.98 C 65.67 127.97 50.30 128.10 34.94 127.91 C 20.08 127.23 7.17 113.92 7.03 99.03 C 6.98 79.67 6.98 60.31 7.03 40.94 C 7.24 27.64 17.49 15.43 30.48 12.71 M 49.99 28.10 C 49.62 37.63 49.94 47.20 49.84 56.75 C 46.81 59.33 44.49 62.94 44.56 67.06 C 44.01 73.95 49.98 80.73 57.02 80.46 C 63.04 80.67 68.27 75.69 69.35 69.95 C 70.49 64.97 67.94 59.90 64.16 56.74 C 64.18 47.16 64.14 37.57 64.18 27.98 C 59.53 27.41 54.54 27.05 49.99 28.10 M 68.31 51.03 C 67.92 51.55 67.14 52.58 66.75 53.10 C 68.05 55.55 72.85 55.99 73.63 52.96 C 73.15 50.31 70.23 51.17 68.31 51.03 Z" />
<path fill="#000000" opacity="1.00" d=" M 53.34 31.23 C 55.77 31.28 58.21 31.27 60.64 31.21 C 60.10 40.37 60.61 49.55 60.37 58.72 C 64.68 60.90 67.04 66.36 65.16 70.91 C 63.62 76.31 56.37 78.44 51.95 75.13 C 46.23 71.20 47.41 61.57 53.64 58.70 C 53.36 49.54 53.93 40.37 53.34 31.23 M 55.16 51.13 C 54.91 54.09 55.29 57.06 55.07 60.02 C 52.78 61.81 49.69 63.66 49.84 67.00 C 49.34 70.30 51.85 72.99 54.46 74.55 C 59.56 76.80 65.41 71.13 64.06 65.94 C 63.65 63.12 60.93 61.67 58.93 60.02 C 58.71 57.06 59.09 54.09 58.84 51.13 C 57.61 50.17 56.39 50.17 55.16 51.13 Z" />
</g>
<g id="#7185b5ff">
<path fill="#7185b5" opacity="1.00" d=" M 33.19 10.21 C 48.76 9.71 64.36 10.17 79.95 9.98 C 88.42 9.73 96.96 12.93 103.06 18.83 C 109.35 24.76 113.07 33.33 113.01 41.98 C 112.94 61.34 113.09 80.70 112.94 100.05 C 112.29 115.64 98.65 129.28 83.06 129.93 C 67.35 130.08 51.63 129.97 35.92 129.99 C 19.95 129.82 5.70 115.97 5.05 100.02 C 4.93 80.33 5.02 60.64 5.01 40.96 C 5.19 25.60 17.93 11.76 33.19 10.21 M 30.48 12.71 C 17.49 15.43 7.24 27.64 7.03 40.94 C 6.98 60.31 6.98 79.67 7.03 99.03 C 7.17 113.92 20.08 127.23 34.94 127.91 C 50.30 128.10 65.67 127.97 81.03 127.98 C 92.04 128.12 102.74 121.52 107.67 111.69 C 110.29 106.90 111.18 101.38 111.00 95.98 C 110.97 77.66 111.05 59.34 110.96 41.03 C 110.87 26.10 97.92 12.75 83.02 12.09 C 70.00 11.88 56.96 12.06 43.94 12.00 C 39.45 12.06 34.90 11.71 30.48 12.71 Z" />
</g>
<g id="#f8fcf8ff">
<path fill="#f8fcf8" opacity="1.00" d=" M 49.99 28.10 C 54.54 27.05 59.53 27.41 64.18 27.98 C 64.14 37.57 64.18 47.16 64.16 56.74 C 67.94 59.90 70.49 64.97 69.35 69.95 C 68.27 75.69 63.04 80.67 57.02 80.46 C 49.98 80.73 44.01 73.95 44.56 67.06 C 44.49 62.94 46.81 59.33 49.84 56.75 C 49.94 47.20 49.62 37.63 49.99 28.10 M 53.34 31.23 C 53.93 40.37 53.36 49.54 53.64 58.70 C 47.41 61.57 46.23 71.20 51.95 75.13 C 56.37 78.44 63.62 76.31 65.16 70.91 C 67.04 66.36 64.68 60.90 60.37 58.72 C 60.61 49.55 60.10 40.37 60.64 31.21 C 58.21 31.27 55.77 31.28 53.34 31.23 Z" />
<path fill="#f8fcf8" opacity="1.00" d=" M 55.16 51.13 C 56.39 50.17 57.61 50.17 58.84 51.13 C 59.09 54.09 58.71 57.06 58.93 60.02 C 60.93 61.67 63.65 63.12 64.06 65.94 C 65.41 71.13 59.56 76.80 54.46 74.55 C 51.85 72.99 49.34 70.30 49.84 67.00 C 49.69 63.66 52.78 61.81 55.07 60.02 C 55.29 57.06 54.91 54.09 55.16 51.13 Z" />
<path fill="#f8fcf8" opacity="1.00" d=" M 68.31 51.03 C 70.23 51.17 73.15 50.31 73.63 52.96 C 72.85 55.99 68.05 55.55 66.75 53.10 C 67.14 52.58 67.92 51.55 68.31 51.03 Z" />
</g>
</svg>
