<?xml version="1.0" encoding="UTF-8" ?>
<!DOCTYPE svg PUBLIC "-//W3C//DTD SVG 1.1//EN" "http://www.w3.org/Graphics/SVG/1.1/DTD/svg11.dtd">
<svg width="117px" height="140px" viewBox="0 0 117 140" version="1.1" xmlns="http://www.w3.org/2000/svg">
<g id="#000000ff">
<path fill="#000000" opacity="1.00" d=" M 0.00 0.00 L 117.00 0.00 L 117.00 140.00 L 0.00 140.00 L 0.00 0.00 M 33.19 10.25 C 22.24 11.46 12.27 18.83 7.82 28.91 C 5.62 33.62 4.87 38.87 4.98 44.04 C 5.03 62.03 4.98 80.01 5.01 98.00 C 4.94 107.80 9.74 117.43 17.53 123.36 C 23.32 127.86 30.68 130.17 38.00 130.01 C 53.02 129.92 68.04 130.15 83.05 129.89 C 98.99 129.27 112.83 114.98 112.95 99.03 C 113.06 80.03 112.99 61.02 112.98 42.02 C 113.10 30.96 106.93 20.17 97.42 14.57 C 91.92 11.20 85.40 9.79 78.99 9.98 C 63.72 10.18 48.44 9.66 33.19 10.25 Z" />
<path fill="#000000" opacity="1.00" d=" M 33.23 12.30 C 49.48 11.77 65.77 12.13 82.03 12.10 C 97.63 12.18 111.37 26.38 110.93 41.98 C 110.94 61.01 111.01 80.05 110.89 99.08 C 110.81 114.28 97.26 127.80 82.07 127.88 C 66.71 128.01 51.35 127.97 35.99 127.90 C 20.76 127.82 7.20 114.30 7.10 99.07 C 6.98 80.71 7.10 62.35 7.04 43.99 C 5.81 28.70 17.92 13.85 33.23 12.30 M 46.03 28.21 C 46.15 34.03 46.08 39.85 46.10 45.67 C 43.76 45.68 41.42 45.69 39.08 45.71 C 39.48 50.53 38.62 55.47 39.57 60.21 C 42.16 62.84 46.24 61.30 49.49 61.62 C 52.49 64.48 55.38 67.46 58.40 70.30 C 54.71 70.33 51.02 70.32 47.34 70.34 C 47.38 72.90 47.39 75.45 47.35 78.00 C 55.44 78.01 63.52 77.97 71.61 78.03 C 71.50 77.13 71.58 75.31 70.08 75.73 C 63.42 75.58 56.76 75.75 50.11 75.66 C 50.07 75.03 49.99 73.77 49.95 73.14 C 53.55 72.94 57.16 72.95 60.77 73.07 C 60.79 72.34 60.83 70.88 60.85 70.16 C 63.71 67.31 66.56 64.47 69.44 61.65 C 72.72 61.28 76.82 62.85 79.43 60.21 C 80.38 55.47 79.52 50.53 79.92 45.71 C 77.58 45.69 75.24 45.68 72.90 45.67 C 72.92 39.85 72.86 34.03 72.96 28.21 C 63.99 28.14 55.01 28.13 46.03 28.21 Z" />
<path fill="#000000" opacity="1.00" d=" M 48.75 31.03 C 55.91 30.96 63.08 30.96 70.25 31.06 C 70.23 36.80 70.35 42.54 70.16 48.28 C 72.43 48.31 74.70 48.33 76.98 48.36 C 76.91 51.87 76.93 55.39 76.97 58.91 C 65.33 59.05 53.67 59.15 42.03 58.91 C 42.07 55.39 42.09 51.87 42.02 48.35 C 48.76 48.27 55.49 48.34 62.22 48.32 C 62.22 47.66 62.22 46.34 62.22 45.68 C 57.72 45.68 53.23 45.66 48.73 45.70 C 48.74 43.90 48.75 42.10 48.76 40.30 C 53.24 40.33 57.73 40.32 62.22 40.32 C 62.22 39.66 62.22 38.34 62.22 37.68 C 57.73 37.68 53.23 37.66 48.74 37.70 C 48.74 35.48 48.75 33.25 48.75 31.03 Z" />
<path fill="#000000" opacity="1.00" d=" M 53.18 61.71 C 57.39 61.65 61.61 61.65 65.82 61.71 C 63.68 63.71 61.55 65.73 59.50 67.83 C 57.45 65.73 55.33 63.71 53.18 61.71 Z" />
</g>
<g id="#788cc0ff">
<path fill="#788cc0" opacity="1.00" d=" M 33.19 10.25 C 48.44 9.66 63.72 10.18 78.99 9.98 C 85.40 9.79 91.92 11.20 97.42 14.57 C 106.93 20.17 113.10 30.96 112.98 42.02 C 112.99 61.02 113.06 80.03 112.95 99.03 C 112.83 114.98 98.99 129.27 83.05 129.89 C 68.04 130.15 53.02 129.92 38.00 130.01 C 30.68 130.17 23.32 127.86 17.53 123.36 C 9.74 117.43 4.94 107.80 5.01 98.00 C 4.98 80.01 5.03 62.03 4.98 44.04 C 4.87 38.87 5.62 33.62 7.82 28.91 C 12.27 18.83 22.24 11.46 33.19 10.25 M 33.23 12.30 C 17.92 13.85 5.81 28.70 7.04 43.99 C 7.10 62.35 6.98 80.71 7.10 99.07 C 7.20 114.30 20.76 127.82 35.99 127.90 C 51.35 127.97 66.71 128.01 82.07 127.88 C 97.26 127.80 110.81 114.28 110.89 99.08 C 111.01 80.05 110.94 61.01 110.93 41.98 C 111.37 26.38 97.63 12.18 82.03 12.10 C 65.77 12.13 49.48 11.77 33.23 12.30 Z" />
</g>
<g id="#f8fcf8ff">
<path fill="#f8fcf8" opacity="1.00" d=" M 46.03 28.21 C 55.01 28.13 63.99 28.14 72.96 28.21 C 72.86 34.03 72.92 39.85 72.90 45.67 C 75.24 45.68 77.58 45.69 79.92 45.71 C 79.52 50.53 80.38 55.47 79.43 60.21 C 76.82 62.85 72.72 61.28 69.44 61.65 C 66.56 64.47 63.71 67.31 60.85 70.16 C 60.83 70.88 60.79 72.34 60.77 73.07 C 57.16 72.95 53.55 72.94 49.95 73.14 C 49.99 73.77 50.07 75.03 50.11 75.66 C 56.76 75.75 63.42 75.58 70.08 75.73 C 71.58 75.31 71.50 77.13 71.61 78.03 C 63.52 77.97 55.44 78.01 47.35 78.00 C 47.39 75.45 47.38 72.90 47.34 70.34 C 51.02 70.32 54.71 70.33 58.40 70.30 C 55.38 67.46 52.49 64.48 49.49 61.62 C 46.24 61.30 42.16 62.84 39.57 60.21 C 38.62 55.47 39.48 50.53 39.08 45.71 C 41.42 45.69 43.76 45.68 46.10 45.67 C 46.08 39.85 46.15 34.03 46.03 28.21 M 48.75 31.03 C 48.75 33.25 48.74 35.48 48.74 37.70 C 53.23 37.66 57.73 37.68 62.22 37.68 C 62.22 38.34 62.22 39.66 62.22 40.32 C 57.73 40.32 53.24 40.33 48.76 40.30 C 48.75 42.10 48.74 43.90 48.73 45.70 C 53.23 45.66 57.72 45.68 62.22 45.68 C 62.22 46.34 62.22 47.66 62.22 48.32 C 55.49 48.34 48.76 48.27 42.02 48.35 C 42.09 51.87 42.07 55.39 42.03 58.91 C 53.67 59.15 65.33 59.05 76.97 58.91 C 76.93 55.39 76.91 51.87 76.98 48.36 C 74.70 48.33 72.43 48.31 70.16 48.28 C 70.35 42.54 70.23 36.80 70.25 31.06 C 63.08 30.96 55.91 30.96 48.75 31.03 M 53.18 61.71 C 55.33 63.71 57.45 65.73 59.50 67.83 C 61.55 65.73 63.68 63.71 65.82 61.71 C 61.61 61.65 57.39 61.65 53.18 61.71 Z" />
</g>
</svg>
