<?xml version="1.0" encoding="UTF-8" ?>
<!DOCTYPE svg PUBLIC "-//W3C//DTD SVG 1.1//EN" "http://www.w3.org/Graphics/SVG/1.1/DTD/svg11.dtd">
<svg width="32px" height="21px" viewBox="0 0 32 21" version="1.1" xmlns="http://www.w3.org/2000/svg">
<g id="#181818ff">
<path fill="#181818" opacity="1.00" d=" M 0.00 0.00 L 14.77 0.00 C 11.94 2.67 8.09 3.73 4.92 5.89 C 3.37 6.93 1.71 7.79 0.00 8.53 L 0.00 0.00 Z" />
<path fill="#181818" opacity="1.00" d=" M 16.68 0.00 L 32.00 0.00 L 32.00 14.75 C 29.40 9.53 23.99 5.57 17.98 5.89 C 18.00 4.53 18.02 3.16 18.04 1.80 C 17.70 1.35 17.02 0.45 16.68 0.00 Z" />
<path fill="#181818" opacity="1.00" d=" M 0.00 10.55 C 4.91 13.11 9.88 15.66 14.54 18.66 C 15.07 18.77 16.12 18.98 16.64 19.09 C 18.68 17.51 17.17 14.47 19.17 12.99 C 23.83 13.95 29.82 15.88 31.27 21.00 L 0.00 21.00 L 0.00 10.55 Z" />
</g>
<g id="#f8fcf8ff">
<path fill="#f8fcf8" opacity="1.00" d=" M 14.77 0.00 L 16.68 0.00 C 17.02 0.45 17.70 1.35 18.04 1.80 C 18.02 3.16 18.00 4.53 17.98 5.89 C 23.99 5.57 29.40 9.53 32.00 14.75 L 32.00 21.00 L 31.27 21.00 C 29.82 15.88 23.83 13.95 19.17 12.99 C 17.17 14.47 18.68 17.51 16.64 19.09 C 16.12 18.98 15.07 18.77 14.54 18.66 C 9.88 15.66 4.91 13.11 0.00 10.55 L 0.00 8.53 C 1.71 7.79 3.37 6.93 4.92 5.89 C 8.09 3.73 11.94 2.67 14.77 0.00 Z" />
</g>
</svg>
