<?xml version="1.0" encoding="UTF-8" ?>
<!DOCTYPE svg PUBLIC "-//W3C//DTD SVG 1.1//EN" "http://www.w3.org/Graphics/SVG/1.1/DTD/svg11.dtd">
<svg width="117px" height="140px" viewBox="0 0 117 140" version="1.1" xmlns="http://www.w3.org/2000/svg">
<g id="#000000ff">
<path fill="#000000" opacity="1.00" d=" M 0.00 0.00 L 117.00 0.00 L 117.00 140.00 L 0.00 140.00 L 0.00 0.00 M 33.18 10.23 C 17.95 11.78 5.23 25.59 5.03 40.92 C 4.98 60.29 4.98 79.67 5.03 99.05 C 5.19 115.00 19.01 129.26 34.95 129.92 C 49.63 130.13 64.33 129.92 79.02 130.02 C 84.42 130.14 89.91 129.29 94.77 126.86 C 105.70 121.77 113.15 110.07 112.99 98.00 C 113.01 79.33 113.01 60.66 112.99 41.99 C 113.08 31.94 108.00 22.08 99.89 16.19 C 93.91 11.74 86.37 9.69 78.96 9.98 C 63.70 10.18 48.43 9.67 33.18 10.23 Z" />
<path fill="#000000" opacity="1.00" d=" M 33.24 12.34 C 48.47 11.72 63.75 12.25 79.00 12.06 C 85.35 11.88 91.83 13.27 97.15 16.84 C 105.62 22.13 111.03 31.99 110.91 41.98 C 110.98 59.66 110.90 77.33 110.94 95.00 C 111.13 100.94 110.32 107.08 107.26 112.29 C 102.28 121.81 91.75 127.99 81.03 127.91 C 66.01 127.93 50.99 127.99 35.97 127.88 C 20.75 127.76 7.21 114.26 7.12 99.02 C 7.03 79.68 7.03 60.33 7.12 40.99 C 7.26 26.75 19.07 13.80 33.24 12.34 M 39.00 33.04 C 38.86 41.46 38.95 49.88 38.94 58.31 C 38.32 58.39 37.07 58.56 36.45 58.65 C 36.36 62.67 40.95 64.60 43.23 67.39 C 46.26 65.93 48.58 63.39 50.71 60.86 C 50.89 59.32 50.35 57.98 48.51 58.41 C 48.81 50.01 48.42 41.60 48.75 33.20 C 45.52 32.67 42.25 32.80 39.00 33.04 M 68.26 33.22 C 68.69 41.60 68.27 50.00 68.53 58.39 C 66.68 58.00 66.15 59.30 66.29 60.88 C 68.46 63.35 70.66 66.08 73.80 67.34 C 76.07 65.08 78.64 63.07 80.56 60.48 C 81.12 58.78 79.41 58.40 78.14 58.15 C 78.06 49.78 78.29 41.39 78.00 33.02 C 74.75 32.82 71.48 32.65 68.26 33.22 M 33.07 71.10 C 33.07 73.62 32.31 76.35 33.32 78.74 C 36.12 80.16 39.40 79.33 42.42 79.47 C 41.67 81.70 43.07 82.20 45.02 82.18 C 45.03 81.51 45.04 80.17 45.05 79.50 C 54.02 79.52 62.99 79.52 71.96 79.50 C 71.96 80.17 71.97 81.49 71.97 82.15 C 73.95 82.24 75.29 81.72 74.59 79.47 C 77.60 79.29 80.92 80.20 83.71 78.72 C 84.65 76.31 83.95 73.62 83.93 71.10 C 66.98 70.94 50.02 70.94 33.07 71.10 Z" />
<path fill="#000000" opacity="1.00" d=" M 41.93 35.96 C 43.16 35.96 44.39 35.96 45.62 35.96 C 45.93 44.36 44.95 52.86 46.17 61.19 C 45.33 62.08 44.48 62.98 43.64 63.87 C 42.85 63.00 42.04 62.15 41.26 61.27 C 42.21 58.62 41.92 55.79 41.94 53.03 C 41.92 47.34 41.94 41.65 41.93 35.96 Z" />
<path fill="#000000" opacity="1.00" d=" M 70.85 61.26 C 72.17 52.92 71.11 44.38 71.45 35.95 C 72.37 35.95 74.21 35.96 75.13 35.97 C 75.49 44.38 74.39 52.94 75.73 61.27 C 74.92 62.13 74.11 62.99 73.29 63.85 C 72.48 62.99 71.67 62.12 70.85 61.26 Z" />
<path fill="#000000" opacity="1.00" d=" M 35.89 74.10 C 50.96 74.10 66.04 74.10 81.11 74.09 C 81.14 74.69 81.18 75.89 81.20 76.49 C 66.07 76.48 50.93 76.48 35.79 76.49 C 35.82 75.89 35.86 74.69 35.89 74.10 Z" />
</g>
<g id="#747474ff">
<path fill="#747474" opacity="1.00" d=" M 33.18 10.23 C 48.43 9.67 63.70 10.18 78.96 9.98 C 86.37 9.69 93.91 11.74 99.89 16.19 C 108.00 22.08 113.08 31.94 112.99 41.99 C 113.01 60.66 113.01 79.33 112.99 98.00 C 113.15 110.07 105.70 121.77 94.77 126.86 C 89.91 129.29 84.42 130.14 79.02 130.02 C 64.33 129.92 49.63 130.13 34.95 129.92 C 19.01 129.26 5.19 115.00 5.03 99.05 C 4.98 79.67 4.98 60.29 5.03 40.92 C 5.23 25.59 17.95 11.78 33.18 10.23 M 33.24 12.34 C 19.07 13.80 7.26 26.75 7.12 40.99 C 7.03 60.33 7.03 79.68 7.12 99.02 C 7.21 114.26 20.75 127.76 35.97 127.88 C 50.99 127.99 66.01 127.93 81.03 127.91 C 91.75 127.99 102.28 121.81 107.26 112.29 C 110.32 107.08 111.13 100.94 110.94 95.00 C 110.90 77.33 110.98 59.66 110.91 41.98 C 111.03 31.99 105.62 22.13 97.15 16.84 C 91.83 13.27 85.35 11.88 79.00 12.06 C 63.75 12.25 48.47 11.72 33.24 12.34 Z" />
</g>
<g id="#f8fcf8ff">
<path fill="#f8fcf8" opacity="1.00" d=" M 39.00 33.04 C 42.25 32.80 45.52 32.67 48.75 33.20 C 48.42 41.60 48.81 50.01 48.51 58.41 C 50.35 57.98 50.89 59.32 50.71 60.86 C 48.58 63.39 46.26 65.93 43.23 67.39 C 40.95 64.60 36.36 62.67 36.45 58.65 C 37.07 58.56 38.32 58.39 38.94 58.31 C 38.95 49.88 38.86 41.46 39.00 33.04 M 41.93 35.96 C 41.94 41.65 41.92 47.34 41.94 53.03 C 41.92 55.79 42.21 58.62 41.26 61.27 C 42.04 62.15 42.85 63.00 43.64 63.87 C 44.48 62.98 45.33 62.08 46.17 61.19 C 44.95 52.86 45.93 44.36 45.62 35.96 C 44.39 35.96 43.16 35.96 41.93 35.96 Z" />
<path fill="#f8fcf8" opacity="1.00" d=" M 68.26 33.22 C 71.48 32.65 74.75 32.82 78.00 33.02 C 78.29 41.39 78.06 49.78 78.14 58.15 C 79.41 58.40 81.12 58.78 80.56 60.48 C 78.64 63.07 76.07 65.08 73.80 67.34 C 70.66 66.08 68.46 63.35 66.29 60.88 C 66.15 59.30 66.68 58.00 68.53 58.39 C 68.27 50.00 68.69 41.60 68.26 33.22 M 70.85 61.26 C 71.67 62.12 72.48 62.99 73.29 63.85 C 74.11 62.99 74.92 62.13 75.73 61.27 C 74.39 52.94 75.49 44.38 75.13 35.97 C 74.21 35.96 72.37 35.95 71.45 35.95 C 71.11 44.38 72.17 52.92 70.85 61.26 Z" />
<path fill="#f8fcf8" opacity="1.00" d=" M 33.07 71.10 C 50.02 70.94 66.98 70.94 83.93 71.10 C 83.95 73.62 84.65 76.31 83.71 78.72 C 80.92 80.20 77.60 79.29 74.59 79.47 C 75.29 81.72 73.95 82.24 71.97 82.15 C 71.97 81.49 71.96 80.17 71.96 79.50 C 62.99 79.52 54.02 79.52 45.05 79.50 C 45.04 80.17 45.03 81.51 45.02 82.18 C 43.07 82.20 41.67 81.70 42.42 79.47 C 39.40 79.33 36.12 80.16 33.32 78.74 C 32.31 76.35 33.07 73.62 33.07 71.10 M 35.89 74.10 C 35.86 74.69 35.82 75.89 35.79 76.49 C 50.93 76.48 66.07 76.48 81.20 76.49 C 81.18 75.89 81.14 74.69 81.11 74.09 C 66.04 74.10 50.96 74.10 35.89 74.10 Z" />
</g>
</svg>
