<?xml version="1.0" encoding="UTF-8" ?>
<!DOCTYPE svg PUBLIC "-//W3C//DTD SVG 1.1//EN" "http://www.w3.org/Graphics/SVG/1.1/DTD/svg11.dtd">
<svg width="70px" height="40px" viewBox="0 0 70 40" version="1.1" xmlns="http://www.w3.org/2000/svg">
<g id="#1d1d28ff">
<path fill="#1d1d28" opacity="1.00" d=" M 0.00 0.00 L 3.03 0.00 C 2.13 1.12 1.12 2.13 0.00 3.02 L 0.00 0.00 Z" />
<path fill="#1d1d28" opacity="1.00" d=" M 66.98 0.00 L 70.00 0.00 L 70.00 3.01 C 68.88 2.13 67.86 1.12 66.98 0.00 Z" />
<path fill="#1d1d28" opacity="1.00" d=" M 0.00 36.99 C 1.12 37.87 2.14 38.88 3.02 40.00 L 0.00 40.00 L 0.00 36.99 Z" />
<path fill="#1d1d28" opacity="1.00" d=" M 66.98 40.00 C 67.87 38.88 68.88 37.86 70.00 36.98 L 70.00 40.00 L 66.98 40.00 Z" />
</g>
<g id="#4854f8ff">
<path fill="#4854f8" opacity="1.00" d=" M 3.03 0.00 L 66.98 0.00 C 67.86 1.12 68.88 2.13 70.00 3.01 L 70.00 36.98 C 68.88 37.86 67.87 38.88 66.98 40.00 L 3.02 40.00 C 2.14 38.88 1.12 37.87 0.00 36.99 L 0.00 3.02 C 1.12 2.13 2.13 1.12 3.03 0.00 Z" />
</g>
</svg>
