<?xml version="1.0" encoding="UTF-8" ?>
<!DOCTYPE svg PUBLIC "-//W3C//DTD SVG 1.1//EN" "http://www.w3.org/Graphics/SVG/1.1/DTD/svg11.dtd">
<svg width="117px" height="140px" viewBox="0 0 117 140" version="1.1" xmlns="http://www.w3.org/2000/svg">
<g id="#000000ff">
<path fill="#000000" opacity="1.00" d=" M 0.00 0.00 L 117.00 0.00 L 117.00 140.00 L 0.00 140.00 L 0.00 0.00 M 29.37 10.47 C 15.66 13.30 4.40 25.89 4.01 40.01 C 3.98 59.68 4.02 79.35 3.99 99.02 C 3.85 115.02 18.00 129.58 33.97 130.00 C 49.67 130.02 65.36 129.97 81.05 130.03 C 94.93 130.37 108.03 120.15 111.73 106.89 C 113.11 102.39 113.02 97.65 113.01 93.00 C 112.93 75.68 113.09 58.35 112.94 41.02 C 112.85 25.04 98.95 10.64 82.99 10.00 C 67.33 9.97 51.67 10.04 36.01 9.97 C 33.79 9.99 31.55 9.98 29.37 10.47 Z" />
<path fill="#000000" opacity="1.00" d=" M 35.26 12.20 C 49.52 11.85 63.80 12.16 78.06 12.04 C 86.24 11.97 94.54 14.64 100.54 20.33 C 106.65 26.16 110.01 34.54 109.98 42.95 C 110.04 59.94 109.96 76.94 110.02 93.93 C 110.82 105.43 105.68 117.63 95.44 123.48 C 89.96 126.96 83.34 127.94 76.97 127.96 C 64.30 127.94 51.64 127.94 38.98 127.96 C 33.15 127.92 27.16 126.92 22.08 123.91 C 12.90 118.84 6.93 108.52 7.07 98.04 C 7.06 79.01 7.00 59.98 7.10 40.95 C 7.18 25.93 20.30 12.72 35.26 12.20 M 47.81 30.10 C 47.33 33.36 47.65 36.68 47.61 39.96 C 46.75 40.89 44.72 41.30 45.02 42.89 C 45.05 53.87 44.86 64.87 45.11 75.84 C 45.37 76.10 45.91 76.61 46.18 76.87 C 53.78 77.12 61.41 77.06 69.02 76.90 C 70.95 76.88 71.05 74.51 70.98 73.09 C 70.90 63.03 71.06 52.97 70.90 42.92 C 71.01 41.37 69.04 40.93 68.17 39.97 C 68.08 36.31 68.84 32.45 67.34 28.97 C 61.20 29.12 55.04 28.82 48.90 29.10 C 48.63 29.35 48.09 29.85 47.81 30.10 Z" />
<path fill="#000000" opacity="1.00" d=" M 49.58 30.61 C 54.95 30.11 60.37 30.34 65.75 30.46 C 67.05 33.51 66.00 37.19 66.33 40.48 C 60.68 40.44 55.03 40.46 49.38 40.46 C 49.48 37.17 49.25 33.88 49.58 30.61 M 52.88 32.62 C 52.94 33.53 53.05 35.33 53.11 36.24 C 54.11 36.23 55.12 36.22 56.13 36.22 C 56.14 35.02 56.15 33.83 56.16 32.63 C 55.07 32.63 53.97 32.62 52.88 32.62 M 58.77 32.63 C 58.77 33.83 58.77 35.03 58.78 36.22 C 59.83 36.22 60.89 36.22 61.95 36.22 C 61.91 35.00 61.88 33.79 61.83 32.58 C 60.81 32.59 59.79 32.61 58.77 32.63 Z" />
<path fill="#000000" opacity="1.00" d=" M 56.16 46.31 C 57.19 44.68 59.63 44.80 60.51 46.50 C 61.69 48.15 59.93 49.71 58.97 50.92 C 58.89 57.05 58.95 63.18 58.94 69.31 C 61.15 69.30 64.87 69.26 64.30 66.02 C 63.97 63.06 65.52 59.19 62.83 57.04 C 62.80 55.58 62.77 54.13 62.76 52.68 C 64.38 52.68 66.00 52.68 67.62 52.68 C 67.65 54.20 67.69 55.73 67.72 57.25 C 67.26 57.49 66.35 57.98 65.89 58.23 C 64.98 62.15 67.65 67.82 63.37 70.29 C 60.14 70.93 56.70 70.75 53.43 70.38 C 49.27 68.43 51.15 63.10 50.83 59.48 C 50.21 59.45 48.96 59.40 48.34 59.37 C 49.29 57.77 50.22 56.16 51.14 54.54 C 51.98 56.00 52.79 57.47 53.62 58.94 C 50.76 60.65 52.78 64.75 52.12 67.50 C 53.46 69.21 55.55 69.31 57.56 69.28 C 57.60 63.15 57.56 57.03 57.59 50.90 C 56.63 49.69 54.54 47.87 56.16 46.31 Z" />
</g>
<g id="#708cc7ff">
<path fill="#708cc7" opacity="1.00" d=" M 29.37 10.47 C 31.55 9.98 33.79 9.99 36.01 9.97 C 51.67 10.04 67.33 9.97 82.99 10.00 C 98.95 10.64 112.85 25.04 112.94 41.02 C 113.09 58.35 112.93 75.68 113.01 93.00 C 113.02 97.65 113.11 102.39 111.73 106.89 C 108.03 120.15 94.93 130.37 81.05 130.03 C 65.36 129.97 49.67 130.02 33.97 130.00 C 18.00 129.58 3.85 115.02 3.99 99.02 C 4.02 79.35 3.98 59.68 4.01 40.01 C 4.40 25.89 15.66 13.30 29.37 10.47 M 35.26 12.20 C 20.30 12.72 7.18 25.93 7.10 40.95 C 7.00 59.98 7.06 79.01 7.07 98.04 C 6.93 108.52 12.90 118.84 22.08 123.91 C 27.16 126.92 33.15 127.92 38.98 127.96 C 51.64 127.94 64.30 127.94 76.97 127.96 C 83.34 127.94 89.96 126.96 95.44 123.48 C 105.68 117.63 110.82 105.43 110.02 93.93 C 109.96 76.94 110.04 59.94 109.98 42.95 C 110.01 34.54 106.65 26.16 100.54 20.33 C 94.54 14.64 86.24 11.97 78.06 12.04 C 63.80 12.16 49.52 11.85 35.26 12.20 Z" />
</g>
<g id="#f8fcf8ff">
<path fill="#f8fcf8" opacity="1.00" d=" M 47.81 30.10 C 48.09 29.85 48.63 29.35 48.90 29.10 C 55.04 28.82 61.20 29.12 67.34 28.97 C 68.84 32.45 68.08 36.31 68.17 39.97 C 69.04 40.93 71.01 41.37 70.90 42.92 C 71.06 52.97 70.90 63.03 70.98 73.09 C 71.05 74.51 70.95 76.88 69.02 76.90 C 61.41 77.06 53.78 77.12 46.18 76.87 C 45.91 76.61 45.37 76.10 45.11 75.84 C 44.86 64.87 45.05 53.87 45.02 42.89 C 44.72 41.30 46.75 40.89 47.61 39.96 C 47.65 36.68 47.33 33.36 47.81 30.10 M 49.58 30.61 C 49.25 33.88 49.48 37.17 49.38 40.46 C 55.03 40.46 60.68 40.44 66.33 40.48 C 66.00 37.19 67.05 33.51 65.75 30.46 C 60.37 30.34 54.95 30.11 49.58 30.61 M 56.16 46.31 C 54.54 47.87 56.63 49.69 57.59 50.90 C 57.56 57.03 57.60 63.15 57.56 69.28 C 55.55 69.31 53.46 69.21 52.12 67.50 C 52.78 64.75 50.76 60.65 53.62 58.94 C 52.79 57.47 51.98 56.00 51.14 54.54 C 50.22 56.16 49.29 57.77 48.34 59.37 C 48.96 59.40 50.21 59.45 50.83 59.48 C 51.15 63.10 49.27 68.43 53.43 70.38 C 56.70 70.75 60.14 70.93 63.37 70.29 C 67.65 67.82 64.98 62.15 65.89 58.23 C 66.35 57.98 67.26 57.49 67.72 57.25 C 67.69 55.73 67.65 54.20 67.62 52.68 C 66.00 52.68 64.38 52.68 62.76 52.68 C 62.77 54.13 62.80 55.58 62.83 57.04 C 65.52 59.19 63.97 63.06 64.30 66.02 C 64.87 69.26 61.15 69.30 58.94 69.31 C 58.95 63.18 58.89 57.05 58.97 50.92 C 59.93 49.71 61.69 48.15 60.51 46.50 C 59.63 44.80 57.19 44.68 56.16 46.31 Z" />
<path fill="#f8fcf8" opacity="1.00" d=" M 52.88 32.62 C 53.97 32.62 55.07 32.63 56.16 32.63 C 56.15 33.83 56.14 35.02 56.13 36.22 C 55.12 36.22 54.11 36.23 53.11 36.24 C 53.05 35.33 52.94 33.53 52.88 32.62 Z" />
<path fill="#f8fcf8" opacity="1.00" d=" M 58.77 32.63 C 59.79 32.61 60.81 32.59 61.83 32.58 C 61.88 33.79 61.91 35.00 61.95 36.22 C 60.89 36.22 59.83 36.22 58.78 36.22 C 58.77 35.03 58.77 33.83 58.77 32.63 Z" />
</g>
</svg>
