<?xml version="1.0" encoding="UTF-8" ?>
<!DOCTYPE svg PUBLIC "-//W3C//DTD SVG 1.1//EN" "http://www.w3.org/Graphics/SVG/1.1/DTD/svg11.dtd">
<svg width="150px" height="80px" viewBox="0 0 150 80" version="1.1" xmlns="http://www.w3.org/2000/svg">
<g id="#000000ff">
<path fill="#000000" opacity="1.00" d=" M 0.00 0.00 L 150.00 0.00 L 150.00 80.00 L 0.00 80.00 L 0.00 0.00 M 6.40 5.59 C 3.81 6.27 1.79 8.54 1.37 11.18 C 0.69 15.08 0.96 19.06 0.96 23.00 C 1.07 36.35 1.03 49.70 0.92 63.04 C 1.06 66.31 0.83 70.15 3.34 72.66 C 5.56 74.93 8.98 74.93 11.93 75.06 C 54.31 74.92 96.70 75.00 139.08 75.02 C 142.15 74.94 145.75 74.43 147.53 71.60 C 149.41 68.42 148.95 64.54 149.08 61.00 C 148.92 46.32 148.97 31.64 149.08 16.96 C 148.94 13.69 149.18 9.85 146.67 7.35 C 144.42 5.11 141.03 5.06 138.07 4.94 C 96.02 5.05 53.98 5.05 11.93 4.94 C 10.08 5.01 8.20 5.08 6.40 5.59 Z" />
<path fill="#000000" opacity="1.00" d=" M 7.33 7.42 C 8.83 7.07 10.38 6.99 11.92 6.94 C 53.97 7.02 96.03 7.03 138.08 6.94 C 140.68 7.14 143.96 6.94 145.73 9.26 C 147.25 11.87 146.96 15.05 147.10 17.96 C 146.93 33.33 147.02 48.71 147.07 64.08 C 146.97 67.07 146.96 71.36 143.44 72.41 C 138.40 73.63 133.14 72.91 128.00 73.03 C 92.67 73.00 57.33 73.00 22.00 73.03 C 16.87 72.91 11.60 73.64 6.57 72.37 C 2.75 71.08 3.06 66.32 2.91 63.06 C 3.06 47.35 2.98 31.63 2.94 15.92 C 2.93 12.69 3.35 8.05 7.33 7.42 M 44.14 28.97 C 43.95 36.61 43.67 44.29 44.34 51.91 C 46.05 51.95 47.76 51.88 49.47 51.69 C 49.96 44.16 49.73 36.60 49.63 29.06 C 47.80 29.00 45.97 28.97 44.14 28.97 M 53.37 29.06 C 53.27 36.60 53.04 44.16 53.53 51.69 C 55.24 51.88 56.95 51.95 58.66 51.91 C 59.33 44.29 59.05 36.61 58.86 28.97 C 57.02 28.97 55.19 29.00 53.37 29.06 Z" />
</g>
<g id="#717571ff">
<path fill="#717571" opacity="1.00" d=" M 6.40 5.59 C 8.20 5.08 10.08 5.01 11.93 4.94 C 53.98 5.05 96.02 5.05 138.07 4.94 C 141.03 5.06 144.42 5.11 146.67 7.35 C 149.18 9.85 148.94 13.69 149.08 16.96 C 148.97 31.64 148.92 46.32 149.08 61.00 C 148.95 64.54 149.41 68.42 147.53 71.60 C 145.75 74.43 142.15 74.94 139.08 75.02 C 96.70 75.00 54.31 74.92 11.93 75.06 C 8.98 74.93 5.56 74.93 3.34 72.66 C 0.83 70.15 1.06 66.31 0.92 63.04 C 1.03 49.70 1.07 36.35 0.96 23.00 C 0.96 19.06 0.69 15.08 1.37 11.18 C 1.79 8.54 3.81 6.27 6.40 5.59 M 7.33 7.42 C 3.35 8.05 2.93 12.69 2.94 15.92 C 2.98 31.63 3.06 47.35 2.91 63.06 C 3.06 66.32 2.75 71.08 6.57 72.37 C 11.60 73.64 16.87 72.91 22.00 73.03 C 57.33 73.00 92.67 73.00 128.00 73.03 C 133.14 72.91 138.40 73.63 143.44 72.41 C 146.96 71.36 146.97 67.07 147.07 64.08 C 147.02 48.71 146.93 33.33 147.10 17.96 C 146.96 15.05 147.25 11.87 145.73 9.26 C 143.96 6.94 140.68 7.14 138.08 6.94 C 96.03 7.03 53.97 7.02 11.92 6.94 C 10.38 6.99 8.83 7.07 7.33 7.42 Z" />
</g>
<g id="#f8fcf8ff">
<path fill="#f8fcf8" opacity="1.00" d=" M 44.14 28.97 C 45.97 28.97 47.80 29.00 49.63 29.06 C 49.73 36.60 49.96 44.16 49.47 51.69 C 47.76 51.88 46.05 51.95 44.34 51.91 C 43.67 44.29 43.95 36.61 44.14 28.97 Z" />
<path fill="#f8fcf8" opacity="1.00" d=" M 53.37 29.06 C 55.19 29.00 57.02 28.97 58.86 28.97 C 59.05 36.61 59.33 44.29 58.66 51.91 C 56.95 51.95 55.24 51.88 53.53 51.69 C 53.04 44.16 53.27 36.60 53.37 29.06 Z" />
</g>
</svg>
