<?xml version="1.0" encoding="UTF-8" ?>
<!DOCTYPE svg PUBLIC "-//W3C//DTD SVG 1.1//EN" "http://www.w3.org/Graphics/SVG/1.1/DTD/svg11.dtd">
<svg width="50px" height="50px" viewBox="0 0 50 50" version="1.1" xmlns="http://www.w3.org/2000/svg">
<g id="#000000ff">
<path fill="#000000" opacity="1.00" d=" M 0.00 0.00 L 11.17 0.00 C 11.00 5.89 11.13 11.77 11.09 17.66 C 8.75 17.67 6.42 17.69 4.08 17.71 C 4.47 22.53 3.60 27.48 4.57 32.22 C 7.18 34.83 11.26 33.31 14.52 33.63 C 17.49 36.51 20.42 39.44 23.38 42.33 C 19.70 42.31 16.02 42.31 12.35 42.34 C 12.38 44.90 12.38 47.45 12.35 50.00 L 0.00 50.00 L 0.00 0.00 Z" />
<path fill="#000000" opacity="1.00" d=" M 37.74 0.00 L 50.00 0.00 L 50.00 50.00 L 36.76 50.00 C 36.64 49.50 36.39 48.50 36.26 48.00 C 29.25 47.21 22.11 47.95 15.05 47.63 C 15.03 47.01 15.00 45.75 14.98 45.13 C 18.57 44.97 22.17 44.97 25.76 45.06 C 25.79 44.34 25.83 42.89 25.86 42.17 C 28.68 39.33 31.54 36.53 34.35 33.68 C 37.67 33.31 41.79 34.83 44.45 32.20 C 45.37 27.46 44.54 22.53 44.92 17.71 C 42.58 17.69 40.24 17.67 37.91 17.66 C 37.79 11.78 38.16 5.88 37.74 0.00 Z" />
<path fill="#000000" opacity="1.00" d=" M 13.77 2.96 C 20.93 3.12 28.08 2.97 35.24 3.05 C 35.22 8.79 35.37 14.53 35.13 20.26 C 37.42 20.32 39.71 20.33 41.99 20.38 C 41.91 23.89 41.92 27.41 41.95 30.93 C 30.34 31.06 18.73 30.90 7.12 31.03 C 7.03 27.48 7.10 23.93 7.01 20.37 C 13.74 20.24 20.48 20.36 27.22 20.32 C 27.22 19.66 27.22 18.34 27.22 17.68 C 22.73 17.68 18.23 17.66 13.74 17.70 C 13.75 15.90 13.75 14.10 13.76 12.30 C 18.25 12.34 22.73 12.32 27.22 12.32 C 27.22 11.66 27.22 10.34 27.22 9.68 C 22.73 9.68 18.23 9.66 13.74 9.70 C 13.74 7.45 13.75 5.21 13.77 2.96 M 22.78 25.20 C 23.95 23.98 25.04 22.39 26.99 22.92 C 27.43 26.05 23.25 26.46 22.80 29.36 C 24.53 29.39 26.26 29.39 27.99 29.40 C 27.99 29.14 28.00 28.63 28.01 28.38 C 27.01 28.36 25.02 28.32 24.02 28.30 C 25.83 27.00 29.20 25.19 27.46 22.48 C 25.24 21.12 22.81 22.67 22.78 25.20 Z" />
<path fill="#000000" opacity="1.00" d=" M 18.20 33.73 C 22.40 33.65 26.60 33.64 30.80 33.74 C 28.65 35.71 26.54 37.73 24.51 39.83 C 22.46 37.74 20.35 35.72 18.20 33.73 Z" />
</g>
<g id="#f7fbf7ff">
<path fill="#f7fbf7" opacity="1.00" d=" M 11.17 0.00 L 37.74 0.00 C 38.16 5.88 37.79 11.78 37.91 17.66 C 40.24 17.67 42.58 17.69 44.92 17.71 C 44.54 22.53 45.37 27.46 44.45 32.20 C 41.79 34.83 37.67 33.31 34.35 33.68 C 31.54 36.53 28.68 39.33 25.86 42.17 C 25.83 42.89 25.79 44.34 25.76 45.06 C 22.17 44.97 18.57 44.97 14.98 45.13 C 15.00 45.75 15.03 47.01 15.05 47.63 C 22.11 47.95 29.25 47.21 36.26 48.00 C 36.39 48.50 36.64 49.50 36.76 50.00 L 12.35 50.00 C 12.38 47.45 12.38 44.90 12.35 42.34 C 16.02 42.31 19.70 42.31 23.38 42.33 C 20.42 39.44 17.49 36.51 14.52 33.63 C 11.26 33.31 7.18 34.83 4.57 32.22 C 3.60 27.48 4.47 22.53 4.08 17.71 C 6.42 17.69 8.75 17.67 11.09 17.66 C 11.13 11.77 11.00 5.89 11.17 0.00 M 13.77 2.96 C 13.75 5.21 13.74 7.45 13.74 9.70 C 18.23 9.66 22.73 9.68 27.22 9.68 C 27.22 10.34 27.22 11.66 27.22 12.32 C 22.73 12.32 18.25 12.34 13.76 12.30 C 13.75 14.10 13.75 15.90 13.74 17.70 C 18.23 17.66 22.73 17.68 27.22 17.68 C 27.22 18.34 27.22 19.66 27.22 20.32 C 20.48 20.36 13.74 20.24 7.01 20.37 C 7.10 23.93 7.03 27.48 7.12 31.03 C 18.73 30.90 30.34 31.06 41.95 30.93 C 41.92 27.41 41.91 23.89 41.99 20.38 C 39.71 20.33 37.42 20.32 35.13 20.26 C 35.37 14.53 35.22 8.79 35.24 3.05 C 28.08 2.97 20.93 3.12 13.77 2.96 M 18.20 33.73 C 20.35 35.72 22.46 37.74 24.51 39.83 C 26.54 37.73 28.65 35.71 30.80 33.74 C 26.60 33.64 22.40 33.65 18.20 33.73 Z" />
<path fill="#f7fbf7" opacity="1.00" d=" M 22.78 25.20 C 22.81 22.67 25.24 21.12 27.46 22.48 C 29.20 25.19 25.83 27.00 24.02 28.30 C 25.02 28.32 27.01 28.36 28.01 28.38 C 28.00 28.63 27.99 29.14 27.99 29.40 C 26.26 29.39 24.53 29.39 22.80 29.36 C 23.25 26.46 27.43 26.05 26.99 22.92 C 25.04 22.39 23.95 23.98 22.78 25.20 Z" />
</g>
</svg>
