<?xml version="1.0" encoding="UTF-8" ?>
<!DOCTYPE svg PUBLIC "-//W3C//DTD SVG 1.1//EN" "http://www.w3.org/Graphics/SVG/1.1/DTD/svg11.dtd">
<svg width="117px" height="140px" viewBox="0 0 117 140" version="1.1" xmlns="http://www.w3.org/2000/svg">
<g id="#000000ff">
<path fill="#000000" opacity="1.00" d=" M 0.00 0.00 L 117.00 0.00 L 117.00 140.00 L 0.00 140.00 L 0.00 0.00 M 31.25 10.59 L 31.94 11.24 C 29.34 11.26 26.85 11.99 24.39 12.76 L 24.55 13.88 C 24.08 13.68 23.13 13.29 22.66 13.09 L 22.62 14.67 C 22.16 14.58 21.22 14.38 20.75 14.29 L 20.56 15.04 C 19.30 15.85 18.10 16.76 16.91 17.67 C 16.50 17.94 15.68 18.48 15.28 18.75 L 15.76 19.70 L 13.94 19.37 L 14.94 20.32 L 13.62 20.62 L 13.32 21.91 L 12.83 21.35 C 11.91 22.77 10.96 24.15 10.10 25.60 L 9.29 25.73 C 9.38 26.20 9.57 27.14 9.66 27.61 L 8.10 27.66 C 8.29 28.13 8.66 29.08 8.85 29.55 L 7.47 29.47 C 7.47 30.37 7.45 32.18 7.45 33.08 L 6.75 32.13 C 6.07 35.04 5.34 37.96 5.40 40.97 C 5.38 60.31 5.38 79.66 5.40 99.01 C 5.32 102.99 6.72 106.76 7.74 110.55 L 8.82 110.44 C 8.65 110.92 8.31 111.88 8.13 112.36 L 9.69 112.40 C 9.59 112.87 9.39 113.81 9.29 114.28 L 10.09 114.37 C 10.95 115.83 11.90 117.22 12.82 118.64 L 13.26 118.12 L 13.69 119.34 L 14.95 119.74 L 13.95 120.66 L 15.69 120.34 L 15.40 122.00 L 16.70 120.99 L 16.36 122.18 C 17.78 123.10 19.18 124.06 20.64 124.92 L 20.73 125.74 C 21.20 125.63 22.14 125.41 22.61 125.31 L 22.64 126.88 C 23.12 126.70 24.08 126.34 24.56 126.16 L 24.43 127.23 C 28.20 128.30 31.97 129.67 35.94 129.60 C 50.29 129.64 64.64 129.58 78.99 129.62 C 81.59 129.63 84.20 129.55 86.77 129.16 C 89.04 128.52 91.29 127.87 93.57 127.25 L 93.46 126.14 C 93.93 126.33 94.88 126.71 95.36 126.91 L 95.37 125.33 C 95.83 125.43 96.77 125.61 97.24 125.71 L 97.43 124.88 C 98.87 124.02 100.25 123.08 101.66 122.17 L 101.08 121.77 C 101.52 121.37 102.41 120.56 102.85 120.16 L 103.66 121.01 L 103.33 119.20 L 104.27 119.74 C 104.53 119.33 105.05 118.51 105.31 118.10 C 106.19 116.92 107.12 115.76 107.93 114.52 C 108.13 114.43 108.52 114.24 108.72 114.15 L 108.25 112.45 L 109.89 112.33 C 109.71 111.86 109.34 110.93 109.16 110.46 L 110.53 110.52 C 110.54 109.64 110.56 107.88 110.57 107.01 L 111.59 107.79 C 111.57 106.90 111.53 105.10 111.51 104.20 C 111.71 104.28 112.11 104.44 112.31 104.52 C 112.97 83.69 112.44 62.84 112.61 42.00 C 112.84 37.66 111.42 33.54 110.24 29.44 L 109.15 29.54 C 109.33 29.07 109.71 28.12 109.90 27.64 L 108.32 27.62 C 108.42 27.15 108.62 26.21 108.72 25.74 L 107.91 25.62 C 107.05 24.16 106.09 22.76 105.17 21.35 L 103.98 21.74 L 104.97 20.40 L 103.34 20.67 L 103.68 18.94 L 102.82 19.91 C 102.41 19.48 101.57 18.61 101.16 18.18 L 101.64 17.82 C 100.23 16.91 98.85 15.95 97.40 15.10 L 97.25 14.28 C 96.78 14.38 95.85 14.57 95.38 14.67 L 95.34 13.10 C 94.87 13.29 93.93 13.66 93.45 13.85 L 93.54 12.49 C 92.65 12.47 90.87 12.43 89.98 12.42 L 90.81 11.45 C 89.25 11.44 87.69 11.43 86.13 11.44 L 86.73 10.60 C 68.24 10.25 49.73 10.27 31.25 10.59 Z" />
<path fill="#000000" opacity="1.00" d=" M 27.15 12.76 C 30.11 12.57 32.95 11.46 35.94 11.59 C 51.30 11.62 66.65 11.63 82.01 11.59 C 85.87 11.41 89.53 12.86 93.13 14.04 C 94.32 14.65 95.51 15.24 96.70 15.81 L 96.68 16.73 C 97.18 16.59 98.18 16.31 98.69 16.16 L 98.11 17.74 L 99.12 17.27 C 101.35 19.42 103.54 21.61 105.70 23.84 L 105.33 24.89 L 106.85 24.33 C 106.70 24.82 106.41 25.81 106.26 26.30 L 107.17 26.30 C 107.95 27.93 108.76 29.54 109.64 31.12 C 109.51 31.51 109.26 32.29 109.13 32.67 L 110.15 32.07 C 110.41 33.70 110.73 35.33 111.35 36.86 C 111.43 58.97 111.39 81.08 111.37 103.18 C 110.52 105.29 109.84 107.47 109.26 109.67 L 108.88 109.74 C 108.39 111.05 107.84 112.33 107.33 113.64 L 106.30 113.71 C 106.42 114.21 106.68 115.19 106.80 115.68 L 105.21 115.12 L 105.74 116.12 C 103.57 118.36 101.37 120.56 99.13 122.73 L 98.11 122.26 L 98.69 123.82 C 98.19 123.68 97.19 123.42 96.69 123.28 L 96.70 124.17 C 95.08 124.94 93.47 125.76 91.90 126.63 C 91.52 126.50 90.77 126.25 90.39 126.13 L 90.91 127.22 C 87.90 127.46 85.01 128.58 81.97 128.41 C 65.27 128.34 48.57 128.46 31.87 128.34 C 30.34 127.70 28.71 127.40 27.08 127.16 L 27.65 126.09 C 27.23 126.24 26.40 126.53 25.98 126.68 C 25.47 126.34 24.45 125.67 23.94 125.33 C 23.29 125.07 21.99 124.55 21.34 124.29 L 21.27 123.27 C 20.78 123.42 19.80 123.71 19.31 123.85 L 19.90 122.33 L 18.84 122.71 C 16.61 120.54 14.41 118.34 12.25 116.10 L 12.82 115.11 L 11.23 115.70 C 11.34 115.20 11.57 114.19 11.68 113.69 L 10.72 113.66 C 10.46 113.02 9.94 111.74 9.68 111.09 C 9.34 110.57 8.66 109.54 8.32 109.02 C 8.46 108.59 8.72 107.72 8.85 107.29 L 7.85 107.96 C 7.59 106.32 7.29 104.68 6.65 103.13 C 6.51 80.46 6.72 57.79 6.55 35.12 L 7.22 35.83 C 7.72 33.81 8.33 31.83 9.03 29.87 C 9.64 28.71 10.22 27.53 10.79 26.34 L 11.68 26.33 C 11.57 25.82 11.35 24.81 11.24 24.31 L 12.82 24.87 L 12.26 23.89 C 14.57 21.48 16.88 19.02 19.59 17.04 L 19.36 16.18 C 19.84 16.31 20.79 16.58 21.27 16.71 L 21.38 15.79 C 22.97 15.04 24.54 14.24 26.08 13.38 C 26.45 13.50 27.20 13.72 27.57 13.84 L 27.15 12.76 M 35.28 46.41 C 33.02 48.08 33.01 51.91 35.27 53.58 C 37.85 55.85 40.59 57.95 43.40 59.93 C 45.07 61.08 47.07 60.12 48.88 59.99 C 49.61 57.38 50.12 54.72 50.12 52.00 C 52.08 52.00 54.04 52.00 56.00 52.00 C 56.00 51.25 56.00 49.75 56.00 49.00 C 54.02 49.00 52.04 49.00 50.06 49.00 C 50.16 46.00 49.78 43.03 48.94 40.16 C 47.97 39.93 46.03 39.48 45.07 39.25 C 41.48 41.15 38.35 43.79 35.28 46.41 M 68.00 41.18 C 68.00 47.06 68.00 52.94 68.00 58.83 C 70.11 59.52 72.44 61.60 74.61 59.91 C 77.42 57.95 80.15 55.85 82.72 53.59 C 85.00 51.91 84.99 48.07 82.71 46.39 C 80.13 44.13 77.40 42.04 74.60 40.07 C 72.40 38.45 70.11 40.43 68.00 41.18 M 57.00 49.00 C 57.00 49.75 57.00 51.25 57.00 52.00 C 57.75 52.00 59.25 52.00 60.00 52.00 C 60.00 51.25 60.00 49.75 60.00 49.00 C 59.25 49.00 57.75 49.00 57.00 49.00 M 61.00 49.00 C 61.00 49.75 61.00 51.25 61.00 52.00 C 63.00 52.00 65.00 52.00 67.00 52.00 C 67.00 51.25 67.00 49.75 67.00 49.00 C 65.00 49.00 63.00 49.00 61.00 49.00 Z" />
<path fill="#000000" opacity="1.00" d=" M 37.01 50.00 C 40.01 47.67 43.01 45.35 46.00 43.01 C 46.00 47.66 46.00 52.32 46.00 56.97 C 43.00 54.65 40.00 52.33 37.01 50.00 Z" />
<path fill="#000000" opacity="1.00" d=" M 72.00 43.01 C 74.98 45.35 77.99 47.67 80.99 50.00 C 78.00 52.33 75.00 54.65 72.00 56.97 C 72.00 52.32 72.00 47.66 72.00 43.01 Z" />
</g>
<g id="#f6faf7ff">
<path fill="#f6faf7" opacity="1.00" d=" M 31.25 10.59 C 49.73 10.27 68.24 10.25 86.73 10.60 L 86.13 11.44 C 87.69 11.43 89.25 11.44 90.81 11.45 L 89.98 12.42 C 90.87 12.43 92.65 12.47 93.54 12.49 L 93.45 13.85 C 93.93 13.66 94.87 13.29 95.34 13.10 L 95.38 14.67 C 95.85 14.57 96.78 14.38 97.25 14.28 L 97.40 15.10 C 98.85 15.95 100.23 16.91 101.64 17.82 L 101.16 18.18 C 101.57 18.61 102.41 19.48 102.82 19.91 L 103.68 18.94 L 103.34 20.67 L 104.97 20.40 L 103.98 21.74 L 105.17 21.35 C 106.09 22.76 107.05 24.16 107.91 25.62 L 108.72 25.74 C 108.62 26.21 108.42 27.15 108.32 27.62 L 109.90 27.64 C 109.71 28.12 109.33 29.07 109.15 29.54 L 110.24 29.44 C 111.42 33.54 112.84 37.66 112.61 42.00 C 112.44 62.84 112.97 83.69 112.31 104.52 C 112.11 104.44 111.71 104.28 111.51 104.20 C 111.53 105.10 111.57 106.90 111.59 107.79 L 110.57 107.01 C 110.56 107.88 110.54 109.64 110.53 110.52 L 109.16 110.46 C 109.34 110.93 109.71 111.86 109.89 112.33 L 108.25 112.45 L 108.72 114.15 C 108.52 114.24 108.13 114.43 107.93 114.52 C 107.12 115.76 106.19 116.92 105.31 118.10 C 105.05 118.51 104.53 119.33 104.27 119.74 L 103.33 119.20 L 103.66 121.01 L 102.85 120.16 C 102.41 120.56 101.52 121.37 101.08 121.77 L 101.66 122.17 C 100.25 123.08 98.87 124.02 97.43 124.88 L 97.24 125.71 C 96.77 125.61 95.83 125.43 95.37 125.33 L 95.36 126.91 C 94.88 126.71 93.93 126.33 93.46 126.14 L 93.57 127.25 C 91.29 127.87 89.04 128.52 86.77 129.16 C 84.20 129.55 81.59 129.63 78.99 129.62 C 64.64 129.58 50.29 129.64 35.94 129.60 C 31.97 129.67 28.20 128.30 24.43 127.23 L 24.56 126.16 C 24.08 126.34 23.12 126.70 22.64 126.88 L 22.61 125.31 C 22.14 125.41 21.20 125.63 20.73 125.74 L 20.64 124.92 C 19.18 124.06 17.78 123.10 16.36 122.18 L 16.70 120.99 L 15.40 122.00 L 15.69 120.34 L 13.95 120.66 L 14.95 119.74 L 13.69 119.34 L 13.26 118.12 L 12.82 118.64 C 11.90 117.22 10.95 115.83 10.09 114.37 L 9.29 114.28 C 9.39 113.81 9.59 112.87 9.69 112.40 L 8.13 112.36 C 8.31 111.88 8.65 110.92 8.82 110.44 L 7.74 110.55 C 6.72 106.76 5.32 102.99 5.40 99.01 C 5.38 79.66 5.38 60.31 5.40 40.97 C 5.34 37.96 6.07 35.04 6.75 32.13 L 7.45 33.08 C 7.45 32.18 7.47 30.37 7.47 29.47 L 8.85 29.55 C 8.66 29.08 8.29 28.13 8.10 27.66 L 9.66 27.61 C 9.57 27.14 9.38 26.20 9.29 25.73 L 10.10 25.60 C 10.96 24.15 11.91 22.77 12.83 21.35 L 13.32 21.91 L 13.62 20.62 L 14.94 20.32 L 13.94 19.37 L 15.76 19.70 L 15.28 18.75 C 15.68 18.48 16.50 17.94 16.91 17.67 C 18.10 16.76 19.30 15.85 20.56 15.04 L 20.75 14.29 C 21.22 14.38 22.16 14.58 22.62 14.67 L 22.66 13.09 C 23.13 13.29 24.08 13.68 24.55 13.88 L 24.39 12.76 C 26.85 11.99 29.34 11.26 31.94 11.24 L 31.25 10.59 M 27.15 12.76 L 27.57 13.84 C 27.20 13.72 26.45 13.50 26.08 13.38 C 24.54 14.24 22.97 15.04 21.38 15.79 L 21.27 16.71 C 20.79 16.58 19.84 16.31 19.36 16.18 L 19.59 17.04 C 16.88 19.02 14.57 21.48 12.26 23.89 L 12.82 24.87 L 11.24 24.31 C 11.35 24.81 11.57 25.82 11.68 26.33 L 10.79 26.34 C 10.22 27.53 9.64 28.71 9.03 29.87 C 8.33 31.83 7.72 33.81 7.22 35.83 L 6.55 35.12 C 6.72 57.79 6.51 80.46 6.65 103.13 C 7.29 104.68 7.59 106.32 7.85 107.96 L 8.85 107.29 C 8.72 107.72 8.46 108.59 8.32 109.02 C 8.66 109.54 9.34 110.57 9.68 111.09 C 9.94 111.74 10.46 113.02 10.72 113.66 L 11.68 113.69 C 11.57 114.19 11.34 115.20 11.23 115.70 L 12.82 115.11 L 12.25 116.10 C 14.41 118.34 16.61 120.54 18.84 122.71 L 19.90 122.33 L 19.31 123.85 C 19.80 123.71 20.78 123.42 21.27 123.27 L 21.34 124.29 C 21.99 124.55 23.29 125.07 23.94 125.33 C 24.45 125.67 25.47 126.34 25.98 126.68 C 26.40 126.53 27.23 126.24 27.65 126.09 L 27.08 127.16 C 28.71 127.40 30.34 127.70 31.87 128.34 C 48.57 128.46 65.27 128.34 81.97 128.41 C 85.01 128.58 87.90 127.46 90.91 127.22 L 90.39 126.13 C 90.77 126.25 91.52 126.50 91.90 126.63 C 93.47 125.76 95.08 124.94 96.70 124.17 L 96.69 123.28 C 97.19 123.42 98.19 123.68 98.69 123.82 L 98.11 122.26 L 99.13 122.73 C 101.37 120.56 103.57 118.36 105.74 116.12 L 105.21 115.12 L 106.80 115.68 C 106.68 115.19 106.42 114.21 106.30 113.71 L 107.33 113.64 C 107.84 112.33 108.39 111.05 108.88 109.74 L 109.26 109.67 C 109.84 107.47 110.52 105.29 111.37 103.18 C 111.39 81.08 111.43 58.97 111.35 36.86 C 110.73 35.33 110.41 33.70 110.15 32.07 L 109.13 32.67 C 109.26 32.29 109.51 31.51 109.64 31.12 C 108.76 29.54 107.95 27.93 107.17 26.30 L 106.26 26.30 C 106.41 25.81 106.70 24.82 106.85 24.33 L 105.33 24.89 L 105.70 23.84 C 103.54 21.61 101.35 19.42 99.12 17.27 L 98.11 17.74 L 98.69 16.16 C 98.18 16.31 97.18 16.59 96.68 16.73 L 96.70 15.81 C 95.51 15.24 94.32 14.65 93.13 14.04 C 89.53 12.86 85.87 11.41 82.01 11.59 C 66.65 11.63 51.30 11.62 35.94 11.59 C 32.95 11.46 30.11 12.57 27.15 12.76 Z" />
<path fill="#f6faf7" opacity="1.00" d=" M 35.28 46.41 C 38.35 43.79 41.48 41.15 45.07 39.25 C 46.03 39.48 47.97 39.93 48.94 40.16 C 49.78 43.03 50.16 46.00 50.06 49.00 C 52.04 49.00 54.02 49.00 56.00 49.00 C 56.00 49.75 56.00 51.25 56.00 52.00 C 54.04 52.00 52.08 52.00 50.12 52.00 C 50.12 54.72 49.61 57.38 48.88 59.99 C 47.07 60.12 45.07 61.08 43.40 59.93 C 40.59 57.95 37.85 55.85 35.27 53.58 C 33.01 51.91 33.02 48.08 35.28 46.41 M 37.01 50.00 C 40.00 52.33 43.00 54.65 46.00 56.97 C 46.00 52.32 46.00 47.66 46.00 43.01 C 43.01 45.35 40.01 47.67 37.01 50.00 Z" />
<path fill="#f6faf7" opacity="1.00" d=" M 68.00 41.18 C 70.11 40.43 72.40 38.45 74.60 40.07 C 77.40 42.04 80.13 44.13 82.71 46.39 C 84.99 48.07 85.00 51.91 82.72 53.59 C 80.15 55.85 77.42 57.95 74.61 59.91 C 72.44 61.60 70.11 59.52 68.00 58.83 C 68.00 52.94 68.00 47.06 68.00 41.18 M 72.00 43.01 C 72.00 47.66 72.00 52.32 72.00 56.97 C 75.00 54.65 78.00 52.33 80.99 50.00 C 77.99 47.67 74.98 45.35 72.00 43.01 Z" />
<path fill="#f6faf7" opacity="1.00" d=" M 57.00 49.00 C 57.75 49.00 59.25 49.00 60.00 49.00 C 60.00 49.75 60.00 51.25 60.00 52.00 C 59.25 52.00 57.75 52.00 57.00 52.00 C 57.00 51.25 57.00 49.75 57.00 49.00 Z" />
<path fill="#f6faf7" opacity="1.00" d=" M 61.00 49.00 C 63.00 49.00 65.00 49.00 67.00 49.00 C 67.00 49.75 67.00 51.25 67.00 52.00 C 65.00 52.00 63.00 52.00 61.00 52.00 C 61.00 51.25 61.00 49.75 61.00 49.00 Z" />
</g>
</svg>
