<?xml version="1.0" encoding="UTF-8" ?>
<!DOCTYPE svg PUBLIC "-//W3C//DTD SVG 1.1//EN" "http://www.w3.org/Graphics/SVG/1.1/DTD/svg11.dtd">
<svg width="70px" height="28px" viewBox="0 0 70 28" version="1.1" xmlns="http://www.w3.org/2000/svg">
<g id="#878b87ff">
<path fill="#878b87" opacity="1.00" d=" M 0.00 0.00 L 70.00 0.00 L 70.00 28.00 L 0.00 28.00 L 0.00 0.00 M 1.79 1.81 C 0.45 4.28 1.02 7.29 0.89 9.99 C 1.16 15.05 0.44 20.16 1.28 25.18 C 1.77 27.25 4.40 26.89 6.00 27.09 C 25.32 27.07 44.64 27.07 63.96 27.09 C 65.96 27.10 69.09 26.93 68.91 24.14 C 69.21 17.37 69.23 10.55 68.90 3.79 C 69.06 1.04 65.93 0.93 63.97 0.91 C 44.99 0.90 26.01 0.97 7.04 0.88 C 5.29 1.03 3.31 0.77 1.79 1.81 Z" />
</g>
<g id="#f8fcf8ff">
<path fill="#f8fcf8" opacity="1.00" d=" M 1.79 1.81 C 3.31 0.77 5.29 1.03 7.04 0.88 C 26.01 0.97 44.99 0.90 63.97 0.91 C 65.93 0.93 69.06 1.04 68.90 3.79 C 69.23 10.55 69.21 17.37 68.91 24.14 C 69.09 26.93 65.96 27.10 63.96 27.09 C 44.64 27.07 25.32 27.07 6.00 27.09 C 4.40 26.89 1.77 27.25 1.28 25.18 C 0.44 20.16 1.16 15.05 0.89 9.99 C 1.02 7.29 0.45 4.28 1.79 1.81 Z" />
</g>
</svg>
