<?xml version="1.0" encoding="UTF-8" ?>
<!DOCTYPE svg PUBLIC "-//W3C//DTD SVG 1.1//EN" "http://www.w3.org/Graphics/SVG/1.1/DTD/svg11.dtd">
<svg width="28px" height="21px" viewBox="0 0 28 21" version="1.1" xmlns="http://www.w3.org/2000/svg">
<g id="#e0e000ff">
<path fill="#e0e000" opacity="1.00" d=" M 0.00 0.00 L 7.93 0.00 C 7.93 2.50 7.93 5.00 7.92 7.50 C 5.28 7.50 2.64 7.50 0.00 7.49 L 0.00 0.00 Z" />
<path fill="#e0e000" opacity="1.00" d=" M 19.07 0.00 L 28.00 0.00 L 28.00 21.00 L 13.57 21.00 C 18.12 16.54 22.59 12.01 27.08 7.50 C 24.42 7.50 21.76 7.50 19.09 7.51 C 19.07 5.00 19.07 2.50 19.07 0.00 Z" />
<path fill="#e0e000" opacity="1.00" d=" M 9.90 2.01 C 12.30 2.00 14.70 2.00 17.10 2.01 C 17.10 4.53 17.11 7.05 17.12 9.57 C 18.79 9.57 20.45 9.57 22.12 9.57 C 19.26 12.46 16.39 15.32 13.51 18.19 C 10.61 15.35 7.75 12.46 4.88 9.57 C 6.55 9.57 8.21 9.57 9.88 9.57 C 9.89 7.05 9.90 4.53 9.90 2.01 Z" />
<path fill="#e0e000" opacity="1.00" d=" M 0.00 7.56 C 4.44 12.08 8.92 16.55 13.43 21.00 L 0.00 21.00 L 0.00 7.56 Z" />
</g>
<g id="#000000ff">
<path fill="#000000" opacity="1.00" d=" M 7.93 0.00 L 19.07 0.00 C 19.07 2.50 19.07 5.00 19.09 7.51 C 21.76 7.50 24.42 7.50 27.08 7.50 C 22.59 12.01 18.12 16.54 13.57 21.00 L 13.43 21.00 C 8.92 16.55 4.44 12.08 0.00 7.56 L 0.00 7.49 C 2.64 7.50 5.28 7.50 7.92 7.50 C 7.93 5.00 7.93 2.50 7.93 0.00 M 9.90 2.01 C 9.90 4.53 9.89 7.05 9.88 9.57 C 8.21 9.57 6.55 9.57 4.88 9.57 C 7.75 12.46 10.61 15.35 13.51 18.19 C 16.39 15.32 19.26 12.46 22.12 9.57 C 20.45 9.57 18.79 9.57 17.12 9.57 C 17.11 7.05 17.10 4.53 17.10 2.01 C 14.70 2.00 12.30 2.00 9.90 2.01 Z" />
</g>
</svg>
