<?xml version="1.0" encoding="UTF-8" ?>
<!DOCTYPE svg PUBLIC "-//W3C//DTD SVG 1.1//EN" "http://www.w3.org/Graphics/SVG/1.1/DTD/svg11.dtd">
<svg width="117px" height="140px" viewBox="0 0 117 140" version="1.1" xmlns="http://www.w3.org/2000/svg">
<g id="#000000ff">
<path fill="#000000" opacity="1.00" d=" M 0.00 0.00 L 117.00 0.00 L 117.00 140.00 L 0.00 140.00 L 0.00 0.00 M 33.16 10.20 C 20.71 11.59 9.66 20.96 6.27 33.02 C 4.48 38.52 5.09 44.35 5.00 50.02 C 5.04 66.70 4.93 83.38 5.05 100.06 C 5.73 115.66 19.38 129.31 34.99 129.95 C 50.67 130.07 66.35 129.99 82.03 129.98 C 98.01 129.86 112.30 116.00 112.95 100.04 C 113.08 80.69 112.95 61.34 113.01 41.99 C 113.09 33.35 109.37 24.78 103.09 18.85 C 96.99 12.95 88.46 9.73 79.99 9.98 C 64.38 10.16 48.75 9.71 33.16 10.20 Z" />
<path fill="#000000" opacity="1.00" d=" M 33.27 12.35 C 48.50 11.71 63.77 12.26 79.02 12.06 C 85.37 11.89 91.84 13.32 97.17 16.88 C 105.60 22.15 110.94 31.98 110.90 41.92 C 110.95 60.64 110.95 79.36 110.90 98.08 C 110.95 105.68 107.81 113.12 102.66 118.65 C 97.08 124.45 89.13 127.89 81.06 127.90 C 66.40 127.95 51.74 127.93 37.08 127.91 C 28.96 127.97 20.99 124.46 15.35 118.66 C 10.17 113.10 7.02 105.61 7.09 97.97 C 7.08 78.95 7.01 59.93 7.13 40.92 C 7.36 26.70 19.11 13.82 33.27 12.35 M 46.04 28.20 C 46.10 34.02 46.13 39.85 46.05 45.68 C 43.72 45.67 41.39 45.68 39.07 45.72 C 39.37 50.39 38.84 55.10 39.37 59.75 C 41.59 63.31 46.47 60.81 49.78 61.94 C 52.74 64.61 55.42 67.58 58.37 70.28 C 54.69 70.35 51.01 70.29 47.33 70.35 C 47.38 72.90 47.40 75.45 47.33 78.00 C 55.54 77.81 63.79 78.39 71.97 77.69 C 71.75 77.24 71.30 76.34 71.07 75.89 C 64.12 75.38 57.11 75.82 50.14 75.68 C 50.09 75.04 50.00 73.78 49.95 73.15 C 53.55 72.97 57.15 73.02 60.75 73.07 C 60.79 72.32 60.87 70.83 60.91 70.08 C 63.32 67.74 65.67 65.35 68.05 62.98 C 70.99 59.57 77.28 64.05 79.65 59.66 C 80.14 55.03 79.63 50.36 79.93 45.72 C 77.60 45.68 75.26 45.67 72.92 45.67 C 72.91 39.84 72.89 34.02 72.96 28.20 C 63.99 28.14 55.01 28.13 46.04 28.20 Z" />
<path fill="#000000" opacity="1.00" d=" M 48.76 31.04 C 55.92 31.05 63.08 31.01 70.24 31.04 C 70.22 36.79 70.36 42.53 70.14 48.28 C 72.40 48.32 74.66 48.33 76.93 48.33 C 76.94 51.86 76.93 55.40 76.95 58.93 C 65.32 58.97 53.68 59.02 42.05 58.92 C 42.07 55.39 42.04 51.85 42.09 48.31 C 48.80 48.32 55.51 48.33 62.22 48.32 C 62.22 47.66 62.22 46.34 62.22 45.68 C 57.70 45.64 53.19 45.74 48.67 45.62 C 48.72 43.84 48.76 42.07 48.79 40.30 C 53.27 40.34 57.74 40.32 62.22 40.32 C 62.22 39.66 62.22 38.34 62.22 37.68 C 57.74 37.68 53.25 37.64 48.76 37.72 C 48.75 35.49 48.75 33.27 48.76 31.04 M 57.72 51.50 C 60.56 51.93 58.96 55.16 59.35 57.02 C 59.68 57.04 60.33 57.07 60.65 57.09 C 60.65 54.63 60.66 52.17 60.61 49.72 C 59.64 50.30 58.67 50.89 57.72 51.50 Z" />
<path fill="#000000" opacity="1.00" d=" M 53.29 61.67 C 57.43 61.69 61.58 61.68 65.73 61.68 C 63.68 63.73 61.56 65.71 59.56 67.81 C 57.46 65.78 55.33 63.77 53.29 61.67 Z" />
</g>
<g id="#6e6f6eff">
<path fill="#6e6f6e" opacity="1.00" d=" M 33.16 10.20 C 48.75 9.71 64.38 10.16 79.99 9.98 C 88.46 9.73 96.99 12.95 103.09 18.85 C 109.37 24.78 113.09 33.35 113.01 41.99 C 112.95 61.34 113.08 80.69 112.95 100.04 C 112.30 116.00 98.01 129.86 82.03 129.98 C 66.35 129.99 50.67 130.07 34.99 129.95 C 19.38 129.31 5.73 115.66 5.05 100.06 C 4.93 83.38 5.04 66.70 5.00 50.02 C 5.09 44.35 4.48 38.52 6.27 33.02 C 9.66 20.96 20.71 11.59 33.16 10.20 M 33.27 12.35 C 19.11 13.82 7.36 26.70 7.13 40.92 C 7.01 59.93 7.08 78.95 7.09 97.97 C 7.02 105.61 10.17 113.10 15.35 118.66 C 20.99 124.46 28.96 127.97 37.08 127.91 C 51.74 127.93 66.40 127.95 81.06 127.90 C 89.13 127.89 97.08 124.45 102.66 118.65 C 107.81 113.12 110.95 105.68 110.90 98.08 C 110.95 79.36 110.95 60.64 110.90 41.92 C 110.94 31.98 105.60 22.15 97.17 16.88 C 91.84 13.32 85.37 11.89 79.02 12.06 C 63.77 12.26 48.50 11.71 33.27 12.35 Z" />
</g>
<g id="#f6faf6ff">
<path fill="#f6faf6" opacity="1.00" d=" M 46.04 28.20 C 55.01 28.13 63.99 28.14 72.96 28.20 C 72.89 34.02 72.91 39.84 72.92 45.67 C 75.26 45.67 77.60 45.68 79.93 45.72 C 79.63 50.36 80.14 55.03 79.65 59.66 C 77.28 64.05 70.99 59.57 68.05 62.98 C 65.67 65.35 63.32 67.74 60.91 70.08 C 60.87 70.83 60.79 72.32 60.75 73.07 C 57.15 73.02 53.55 72.97 49.95 73.15 C 50.00 73.78 50.09 75.04 50.14 75.68 C 57.11 75.82 64.12 75.38 71.07 75.89 C 71.30 76.34 71.75 77.24 71.97 77.69 C 63.79 78.39 55.54 77.81 47.33 78.00 C 47.40 75.45 47.38 72.90 47.33 70.35 C 51.01 70.29 54.69 70.35 58.37 70.28 C 55.42 67.58 52.74 64.61 49.78 61.94 C 46.47 60.81 41.59 63.31 39.37 59.75 C 38.84 55.10 39.37 50.39 39.07 45.72 C 41.39 45.68 43.72 45.67 46.05 45.68 C 46.13 39.85 46.10 34.02 46.04 28.20 M 48.76 31.04 C 48.75 33.27 48.75 35.49 48.76 37.72 C 53.25 37.64 57.74 37.68 62.22 37.68 C 62.22 38.34 62.22 39.66 62.22 40.32 C 57.74 40.32 53.27 40.34 48.79 40.30 C 48.76 42.07 48.72 43.84 48.67 45.62 C 53.19 45.74 57.70 45.64 62.22 45.68 C 62.22 46.34 62.22 47.66 62.22 48.32 C 55.51 48.33 48.80 48.32 42.09 48.31 C 42.04 51.85 42.07 55.39 42.05 58.92 C 53.68 59.02 65.32 58.97 76.95 58.93 C 76.93 55.40 76.94 51.86 76.93 48.33 C 74.66 48.33 72.40 48.32 70.14 48.28 C 70.36 42.53 70.22 36.79 70.24 31.04 C 63.08 31.01 55.92 31.05 48.76 31.04 M 53.29 61.67 C 55.33 63.77 57.46 65.78 59.56 67.81 C 61.56 65.71 63.68 63.73 65.73 61.68 C 61.58 61.68 57.43 61.69 53.29 61.67 Z" />
<path fill="#f6faf6" opacity="1.00" d=" M 57.72 51.50 C 58.67 50.89 59.64 50.30 60.61 49.72 C 60.66 52.17 60.65 54.63 60.65 57.09 C 60.33 57.07 59.68 57.04 59.35 57.02 C 58.96 55.16 60.56 51.93 57.72 51.50 Z" />
</g>
</svg>
