<?xml version="1.0" encoding="UTF-8" ?>
<!DOCTYPE svg PUBLIC "-//W3C//DTD SVG 1.1//EN" "http://www.w3.org/Graphics/SVG/1.1/DTD/svg11.dtd">
<svg width="117px" height="140px" viewBox="0 0 117 140" version="1.1" xmlns="http://www.w3.org/2000/svg">
<g id="#000000ff">
<path fill="#000000" opacity="1.00" d=" M 0.00 0.00 L 117.00 0.00 L 117.00 140.00 L 0.00 140.00 L 0.00 0.00 M 33.15 10.24 C 17.92 11.80 5.22 25.63 5.03 40.95 C 4.98 60.33 4.98 79.70 5.03 99.08 C 5.21 114.99 18.97 129.21 34.87 129.91 C 50.59 130.09 66.32 130.00 82.04 129.96 C 97.99 129.82 112.27 115.99 112.91 100.05 C 113.12 81.04 112.93 62.02 113.01 43.01 C 113.29 33.81 109.43 24.59 102.58 18.42 C 96.30 12.54 87.59 9.63 79.04 9.98 C 63.75 10.18 48.43 9.67 33.15 10.24 Z" />
<path fill="#000000" opacity="1.00" d=" M 33.27 12.33 C 48.51 11.73 63.78 12.25 79.03 12.06 C 85.35 11.87 91.80 13.26 97.11 16.80 C 105.59 22.09 111.03 31.96 110.91 41.97 C 110.93 61.00 110.99 80.03 110.87 99.06 C 110.78 114.28 97.25 127.76 82.04 127.87 C 66.68 127.98 51.32 127.96 35.96 127.88 C 20.75 127.76 7.21 114.27 7.12 99.05 C 7.03 79.69 7.03 60.33 7.12 40.98 C 7.26 26.72 19.10 13.77 33.27 12.33 M 52.55 29.54 C 42.14 32.66 34.13 42.95 34.70 53.95 C 35.08 67.49 48.43 79.14 61.95 77.13 C 76.77 75.54 87.83 58.35 81.63 44.40 C 77.38 33.14 64.23 26.02 52.55 29.54 Z" />
<path fill="#000000" opacity="1.00" d=" M 53.21 33.32 C 64.66 29.63 78.09 38.01 79.25 50.07 C 81.29 61.26 72.24 72.82 60.87 73.36 C 50.03 74.76 39.22 65.89 38.63 54.95 C 37.43 45.44 43.98 35.79 53.21 33.32 M 58.04 39.27 C 57.80 40.50 57.79 41.73 58.03 42.96 C 58.89 42.97 60.62 43.00 61.49 43.01 C 61.55 41.76 61.61 40.50 61.68 39.25 C 60.46 39.26 59.25 39.26 58.04 39.27 M 55.08 45.10 C 55.10 45.80 55.12 47.20 55.14 47.90 C 55.83 47.99 57.21 48.16 57.90 48.25 C 57.82 53.84 57.75 59.45 57.92 65.05 C 59.95 65.40 62.03 65.40 64.06 65.04 C 64.07 64.28 64.08 62.76 64.08 62.01 C 63.38 61.94 61.99 61.80 61.29 61.73 C 61.91 56.14 61.43 50.51 61.57 44.91 C 59.42 44.62 57.18 44.35 55.08 45.10 Z" />
</g>
<g id="#757575ff">
<path fill="#757575" opacity="1.00" d=" M 33.15 10.24 C 48.43 9.67 63.75 10.18 79.04 9.98 C 87.59 9.63 96.30 12.54 102.58 18.42 C 109.43 24.59 113.29 33.81 113.01 43.01 C 112.93 62.02 113.12 81.04 112.91 100.05 C 112.27 115.99 97.99 129.82 82.04 129.96 C 66.32 130.00 50.59 130.09 34.87 129.91 C 18.97 129.21 5.21 114.99 5.03 99.08 C 4.98 79.70 4.98 60.33 5.03 40.95 C 5.22 25.63 17.92 11.80 33.15 10.24 M 33.27 12.33 C 19.10 13.77 7.26 26.72 7.12 40.98 C 7.03 60.33 7.03 79.69 7.12 99.05 C 7.21 114.27 20.75 127.76 35.96 127.88 C 51.32 127.96 66.68 127.98 82.04 127.87 C 97.25 127.76 110.78 114.28 110.87 99.06 C 110.99 80.03 110.93 61.00 110.91 41.97 C 111.03 31.96 105.59 22.09 97.11 16.80 C 91.80 13.26 85.35 11.87 79.03 12.06 C 63.78 12.25 48.51 11.73 33.27 12.33 Z" />
</g>
<g id="#f8fcf8ff">
<path fill="#f8fcf8" opacity="1.00" d=" M 52.55 29.54 C 64.23 26.02 77.38 33.14 81.63 44.40 C 87.83 58.35 76.77 75.54 61.95 77.13 C 48.43 79.14 35.08 67.49 34.70 53.95 C 34.13 42.95 42.14 32.66 52.55 29.54 M 53.21 33.32 C 43.98 35.79 37.43 45.44 38.63 54.95 C 39.22 65.89 50.03 74.76 60.87 73.36 C 72.24 72.82 81.29 61.26 79.25 50.07 C 78.09 38.01 64.66 29.63 53.21 33.32 Z" />
<path fill="#f8fcf8" opacity="1.00" d=" M 58.04 39.27 C 59.25 39.26 60.46 39.26 61.68 39.25 C 61.61 40.50 61.55 41.76 61.49 43.01 C 60.62 43.00 58.89 42.97 58.03 42.96 C 57.79 41.73 57.80 40.50 58.04 39.27 Z" />
<path fill="#f8fcf8" opacity="1.00" d=" M 55.08 45.10 C 57.18 44.35 59.42 44.62 61.57 44.91 C 61.43 50.51 61.91 56.14 61.29 61.73 C 61.99 61.80 63.38 61.94 64.08 62.01 C 64.08 62.76 64.07 64.28 64.06 65.04 C 62.03 65.40 59.95 65.40 57.92 65.05 C 57.75 59.45 57.82 53.84 57.90 48.25 C 57.21 48.16 55.83 47.99 55.14 47.90 C 55.12 47.20 55.10 45.80 55.08 45.10 Z" />
</g>
</svg>
