<?xml version="1.0" encoding="UTF-8" ?>
<!DOCTYPE svg PUBLIC "-//W3C//DTD SVG 1.1//EN" "http://www.w3.org/Graphics/SVG/1.1/DTD/svg11.dtd">
<svg width="117px" height="140px" viewBox="0 0 117 140" version="1.1" xmlns="http://www.w3.org/2000/svg">
<g id="#000000ff">
<path fill="#000000" opacity="1.00" d=" M 0.00 0.00 L 117.00 0.00 L 117.00 140.00 L 0.00 140.00 L 0.00 0.00 M 33.23 10.29 C 18.00 11.77 5.26 25.60 5.08 40.92 C 4.97 59.95 5.05 78.99 5.05 98.02 C 4.84 111.60 14.35 124.49 27.31 128.46 C 33.33 130.46 39.74 129.90 45.97 129.97 C 58.33 129.88 70.70 130.13 83.06 129.85 C 98.98 129.25 112.82 114.96 112.91 99.03 C 113.03 80.01 112.96 60.98 112.94 41.95 C 113.06 30.93 106.90 20.19 97.42 14.60 C 91.65 11.01 84.74 9.77 78.02 10.01 C 63.09 10.22 48.14 9.69 33.23 10.29 Z" />
<path fill="#000000" opacity="1.00" d=" M 33.26 12.32 C 45.16 11.73 57.10 12.22 69.01 12.06 C 76.91 12.28 85.22 11.09 92.66 14.39 C 103.17 18.75 110.77 29.52 110.88 40.95 C 111.02 59.29 110.88 77.64 110.95 95.98 C 111.06 101.36 110.30 106.89 107.66 111.65 C 102.77 121.52 92.03 128.08 81.02 127.91 C 66.00 127.93 50.98 127.99 35.96 127.88 C 20.76 127.83 7.18 114.31 7.12 99.10 C 7.02 79.74 7.03 60.38 7.11 41.02 C 7.17 26.75 19.06 13.72 33.26 12.32 M 48.98 15.26 C 48.96 17.28 48.96 19.30 48.96 21.31 C 51.67 21.36 54.39 21.36 57.10 21.36 C 57.08 21.91 57.07 22.46 57.05 23.01 C 54.38 23.01 51.70 23.01 49.02 23.04 C 48.99 24.52 48.96 26.00 48.93 27.49 C 44.28 27.45 39.64 27.47 35.00 27.46 L 35.00 29.00 C 39.66 29.00 44.32 28.99 48.98 29.01 C 48.97 29.69 48.95 31.04 48.93 31.72 C 44.29 31.70 39.64 31.71 35.00 31.71 L 35.00 33.50 C 39.65 33.49 44.31 33.50 48.96 33.48 C 48.95 36.83 48.95 40.18 48.98 43.53 C 51.68 43.57 54.37 43.58 57.06 43.58 C 57.07 45.59 57.06 47.61 57.07 49.63 C 57.52 49.91 58.43 50.46 58.89 50.74 C 58.63 54.92 60.51 58.85 60.28 63.02 C 60.17 66.97 60.85 71.13 58.91 74.77 C 57.65 68.92 58.11 62.77 58.67 56.85 C 55.28 57.87 51.26 57.94 48.76 60.80 C 45.83 63.68 45.74 68.04 44.87 71.79 C 43.07 78.31 41.63 84.92 39.37 91.30 C 42.86 93.52 46.14 96.19 49.92 97.91 C 56.25 98.03 62.62 98.17 68.94 97.84 C 72.37 95.76 76.39 93.90 79.01 90.93 C 77.38 85.48 75.89 79.99 74.46 74.48 C 72.43 69.70 73.56 63.43 68.98 59.94 C 66.64 57.46 61.48 58.98 60.81 54.94 C 59.76 52.60 61.46 50.50 63.36 49.32 C 63.36 47.39 63.35 45.47 63.34 43.54 C 66.12 43.58 68.91 43.59 71.69 43.50 C 71.77 40.16 71.75 36.82 71.72 33.49 C 75.82 33.50 79.92 33.49 84.02 33.50 C 84.02 33.05 84.00 32.15 83.99 31.71 C 79.90 31.71 75.80 31.71 71.70 31.71 C 71.72 31.03 71.75 29.68 71.76 29.00 C 76.07 28.95 80.38 29.12 84.69 28.91 C 84.35 28.58 83.68 27.92 83.35 27.59 C 79.49 27.26 75.61 27.54 71.75 27.48 C 71.73 26.01 71.70 24.55 71.67 23.08 C 68.60 22.68 64.92 23.98 62.39 21.71 C 65.48 21.27 68.61 21.39 71.72 21.19 C 71.74 19.22 71.73 17.25 71.68 15.28 C 64.12 15.17 56.55 15.21 48.98 15.26 M 14.44 102.88 C 14.43 105.91 14.44 108.93 14.42 111.95 C 14.87 111.97 15.77 112.01 16.22 112.03 C 16.18 111.35 16.09 109.98 16.05 109.30 C 18.13 109.05 21.04 108.86 20.66 105.97 C 20.96 102.27 16.87 103.10 14.44 102.88 M 21.44 102.87 C 21.43 106.19 21.29 109.53 21.74 112.83 C 22.72 111.54 23.42 110.11 23.86 108.54 C 24.97 109.93 25.94 111.44 27.32 112.57 C 26.61 109.55 28.41 106.15 26.78 103.35 C 25.03 102.95 23.22 102.99 21.44 102.87 M 28.44 102.96 C 28.43 105.99 28.43 109.03 28.44 112.07 C 30.84 112.02 33.30 112.13 35.62 111.36 C 33.80 111.07 31.96 110.95 30.12 110.84 C 30.11 110.18 30.10 108.86 30.09 108.21 C 31.64 108.07 33.19 107.89 34.73 107.68 C 33.19 107.28 31.64 106.95 30.07 106.69 C 30.08 106.08 30.09 104.85 30.10 104.24 C 31.95 104.03 33.82 103.83 35.61 103.28 C 33.24 102.89 30.83 102.97 28.44 102.96 M 37.38 103.37 C 34.76 105.00 34.67 109.08 37.22 110.81 C 38.74 112.32 40.90 111.57 42.72 111.24 C 43.28 111.49 44.41 111.99 44.98 112.24 C 44.97 110.82 44.96 109.41 44.96 108.00 C 45.80 108.00 47.49 108.00 48.34 108.00 C 48.33 109.31 48.32 110.63 48.30 111.95 C 48.72 111.97 49.55 112.00 49.96 112.02 C 49.96 109.01 49.96 105.99 49.96 102.98 C 49.55 103.00 48.72 103.03 48.30 103.05 C 48.32 104.36 48.33 105.68 48.34 107.00 C 47.49 107.00 45.80 107.00 44.95 107.00 C 44.96 105.66 44.96 104.32 44.96 102.98 C 44.54 103.00 43.72 103.03 43.30 103.05 C 43.32 105.60 43.33 108.15 43.39 110.70 C 40.90 110.22 38.32 109.81 36.55 107.81 C 37.35 105.41 39.22 103.81 41.86 104.11 C 41.85 103.80 41.83 103.17 41.82 102.85 C 40.34 102.99 38.83 103.00 37.38 103.37 M 51.27 112.19 C 54.01 110.80 56.99 110.79 59.73 112.19 C 58.37 109.02 57.02 105.85 55.56 102.72 C 53.99 105.81 52.66 109.01 51.27 112.19 M 60.29 103.06 C 60.41 105.44 60.02 107.92 60.69 110.24 C 61.46 112.54 64.59 112.26 66.38 111.45 C 68.10 108.98 67.35 105.83 67.53 103.03 L 65.70 102.99 C 65.63 105.39 65.88 107.83 65.39 110.20 C 64.54 111.45 62.72 111.14 62.23 109.76 C 61.78 107.53 61.98 105.23 61.93 102.97 C 61.52 102.99 60.70 103.04 60.29 103.06 M 68.43 102.99 C 68.43 106.26 68.33 109.54 68.70 112.80 C 70.37 111.78 70.10 109.85 70.29 108.22 C 71.79 108.00 73.29 107.72 74.77 107.36 C 73.60 107.21 71.26 106.92 70.09 106.77 C 70.09 106.13 70.10 104.86 70.10 104.22 C 71.91 104.01 73.72 103.76 75.51 103.45 C 75.42 106.28 75.43 109.11 75.41 111.95 C 75.86 111.97 76.76 112.01 77.21 112.03 C 77.17 110.76 77.13 109.49 77.08 108.23 C 78.65 108.07 80.20 107.86 81.76 107.62 C 80.21 107.22 78.64 106.96 77.06 106.71 C 77.08 106.09 77.10 104.84 77.11 104.22 C 78.95 104.03 80.81 103.85 82.59 103.31 C 77.90 102.68 73.15 103.16 68.43 102.99 M 82.27 112.19 C 85.01 110.80 87.99 110.80 90.73 112.19 C 89.37 109.02 88.01 105.84 86.56 102.72 C 84.99 105.81 83.66 109.01 82.27 112.19 M 94.10 103.25 C 91.31 104.34 90.39 108.38 92.51 110.57 C 94.10 112.62 96.91 111.87 99.13 111.73 C 99.10 110.81 99.05 108.97 99.03 108.05 C 97.49 108.02 95.95 107.99 94.41 107.96 C 95.77 108.83 97.31 109.60 97.73 111.34 C 96.41 110.78 94.32 110.92 93.67 109.33 C 92.96 107.92 93.59 106.37 93.76 104.93 C 95.10 104.57 96.45 104.26 97.77 103.84 C 98.93 101.68 95.16 103.35 94.10 103.25 M 99.73 102.93 C 99.58 105.97 99.41 109.02 99.51 112.08 C 101.89 112.02 104.32 112.12 106.61 111.37 C 104.79 111.07 102.95 110.95 101.12 110.84 C 101.11 110.18 101.10 108.86 101.10 108.20 C 102.64 108.07 104.19 107.91 105.73 107.70 C 104.19 107.29 102.64 106.95 101.07 106.68 C 101.08 106.05 101.11 104.80 101.12 104.17 C 102.96 104.08 104.78 103.90 106.60 103.64 C 104.38 102.90 102.03 102.97 99.73 102.93 M 42.44 114.89 C 42.43 117.90 42.44 120.92 42.41 123.94 C 42.87 123.96 43.77 124.01 44.22 124.04 C 44.18 123.35 44.09 121.98 44.05 121.30 C 46.09 121.05 49.01 120.88 48.65 118.02 C 49.00 114.29 44.88 115.08 42.44 114.89 M 49.43 114.97 C 49.43 118.00 49.43 121.03 49.44 124.07 C 51.84 124.01 54.29 124.14 56.60 123.39 C 54.79 123.08 52.95 122.95 51.12 122.83 C 51.11 122.18 51.10 120.87 51.09 120.21 C 52.65 120.07 54.20 119.89 55.75 119.67 C 54.20 119.27 52.63 118.95 51.05 118.69 C 51.09 118.03 51.16 116.71 51.19 116.05 C 53.81 115.90 56.43 115.77 59.04 116.00 C 59.04 118.67 59.04 121.34 59.04 124.01 C 59.46 124.00 60.28 123.98 60.69 123.97 C 60.68 121.32 60.68 118.68 60.67 116.03 C 61.25 116.01 62.42 115.96 63.00 115.94 L 63.00 114.98 C 58.48 115.06 53.96 115.11 49.43 114.97 M 66.50 115.50 C 64.46 116.88 63.56 119.94 65.12 122.02 C 66.39 124.45 69.42 124.00 71.70 123.97 C 71.84 122.66 71.96 121.35 72.07 120.04 C 70.68 120.02 69.28 120.00 67.89 119.98 L 67.84 120.82 C 68.45 120.89 69.67 121.01 70.28 121.08 C 70.23 121.68 70.13 122.89 70.08 123.49 C 67.86 122.90 65.43 121.06 66.43 118.47 C 66.81 115.66 69.94 116.41 71.89 116.69 C 71.84 116.27 71.74 115.42 71.70 115.00 C 69.97 115.12 68.12 114.79 66.50 115.50 Z" />
<path fill="#000000" opacity="1.00" d=" M 58.98 21.29 C 59.93 19.78 62.48 21.40 61.32 22.87 C 60.35 24.38 57.81 22.77 58.98 21.29 Z" />
<path fill="#000000" opacity="1.00" d=" M 50.53 24.80 C 57.02 24.83 63.51 24.81 70.00 24.81 C 70.01 30.54 70.00 36.27 70.00 42.00 C 63.51 42.00 57.03 42.00 50.54 42.00 C 50.54 36.27 50.54 30.54 50.53 24.80 Z" />
<path fill="#000000" opacity="1.00" d=" M 58.99 43.50 C 59.56 43.54 60.69 43.61 61.26 43.65 C 61.16 45.47 61.12 47.31 60.83 49.11 C 58.04 48.62 59.25 45.52 58.99 43.50 Z" />
<path fill="#000000" opacity="1.00" d=" M 50.06 62.03 C 51.69 60.26 54.17 59.90 56.35 59.20 C 56.36 62.17 56.36 65.14 56.36 68.11 C 53.17 68.15 50.00 68.58 46.98 69.61 C 47.79 67.03 48.07 64.05 50.06 62.03 Z" />
<path fill="#000000" opacity="1.00" d=" M 62.08 59.28 C 64.48 59.77 67.07 60.32 68.78 62.24 C 70.45 64.29 70.96 66.96 71.58 69.47 C 68.46 68.57 65.24 68.14 62.00 68.13 C 62.00 65.18 61.98 62.23 62.08 59.28 Z" />
<path fill="#000000" opacity="1.00" d=" M 45.61 73.49 C 48.19 70.23 52.50 69.89 56.33 69.89 C 56.35 70.74 56.37 72.44 56.39 73.29 C 52.82 72.37 49.12 72.10 45.61 73.49 Z" />
<path fill="#000000" opacity="1.00" d=" M 62.01 69.92 C 65.96 69.75 70.24 70.33 73.01 73.46 C 69.40 72.23 65.65 72.33 62.00 73.33 C 62.00 72.47 62.00 70.77 62.01 69.92 Z" />
<path fill="#000000" opacity="1.00" d=" M 50.36 74.08 C 53.59 74.45 56.71 75.72 59.99 75.54 C 62.74 75.32 65.42 74.60 68.08 73.92 C 71.71 74.53 73.16 77.93 73.97 81.12 C 72.07 84.84 70.18 88.59 69.29 92.70 C 67.19 90.77 65.09 88.83 63.08 86.80 C 62.57 84.81 61.65 81.72 59.01 82.17 C 56.53 82.16 56.11 84.89 55.67 86.74 C 53.50 88.70 51.35 90.67 49.31 92.77 C 48.37 88.65 46.69 84.76 44.53 81.14 C 45.70 78.26 46.60 74.34 50.36 74.08 M 50.39 76.27 C 48.81 77.39 48.82 79.40 48.99 81.13 C 51.28 83.23 55.18 83.47 57.68 81.60 C 58.21 79.93 57.96 78.15 57.99 76.43 C 55.63 75.55 52.54 74.18 50.39 76.27 M 61.23 76.27 C 59.26 78.19 60.21 82.13 63.01 82.69 C 64.98 82.93 67.14 82.90 68.86 81.78 C 70.64 80.83 69.90 78.39 68.95 77.07 C 67.31 74.42 63.56 74.87 61.23 76.27 Z" />
<path fill="#000000" opacity="1.00" d=" M 57.58 87.10 C 58.01 85.76 57.91 83.70 59.87 83.84 C 60.44 84.76 60.95 85.70 61.42 86.67 C 60.46 86.78 58.54 86.99 57.58 87.10 Z" />
<path fill="#000000" opacity="1.00" d=" M 74.69 83.56 C 75.58 85.88 76.36 88.24 77.16 90.59 C 74.99 91.94 72.84 93.34 70.65 94.68 C 71.58 90.83 72.88 87.08 74.69 83.56 Z" />
<path fill="#000000" opacity="1.00" d=" M 41.48 90.53 C 42.24 88.19 43.01 85.85 43.83 83.53 C 45.76 87.07 47.07 90.89 47.91 94.83 C 45.79 93.36 43.63 91.95 41.48 90.53 Z" />
<path fill="#000000" opacity="1.00" d=" M 49.95 94.35 C 51.55 93.81 52.13 94.36 51.67 95.99 C 50.06 96.53 49.48 95.98 49.95 94.35 Z" />
<path fill="#000000" opacity="1.00" d=" M 67.00 94.34 C 68.62 93.83 69.18 94.39 68.69 96.01 C 67.07 96.52 66.51 95.97 67.00 94.34 Z" />
<path fill="#000000" opacity="1.00" d=" M 16.24 103.52 C 17.06 104.34 19.13 104.48 18.93 105.98 C 19.41 107.57 17.06 107.65 16.24 108.48 C 16.21 106.82 16.21 105.17 16.24 103.52 Z" />
<path fill="#000000" opacity="1.00" d=" M 23.25 103.52 C 24.09 104.35 26.19 104.51 25.93 106.05 C 26.41 107.64 24.07 107.61 23.24 108.37 C 23.21 106.75 23.21 105.13 23.25 103.52 Z" />
<path fill="#000000" opacity="1.00" d=" M 55.20 107.42 C 56.95 107.04 57.23 110.76 55.23 110.24 C 53.95 109.88 54.25 107.97 55.20 107.42 Z" />
<path fill="#000000" opacity="1.00" d=" M 86.22 107.42 C 87.98 107.09 88.20 110.79 86.20 110.24 C 84.94 109.85 85.27 107.95 86.22 107.42 Z" />
<path fill="#000000" opacity="1.00" d=" M 44.24 115.52 C 45.07 116.34 47.13 116.47 46.93 117.99 C 47.40 119.57 45.06 119.65 44.25 120.48 C 44.21 118.83 44.21 117.17 44.24 115.52 Z" />
</g>
<g id="#7c7d7cff">
<path fill="#7c7d7c" opacity="1.00" d=" M 33.23 10.29 C 48.14 9.69 63.09 10.22 78.02 10.01 C 84.74 9.77 91.65 11.01 97.42 14.60 C 106.90 20.19 113.06 30.93 112.94 41.95 C 112.96 60.98 113.03 80.01 112.91 99.03 C 112.82 114.96 98.98 129.25 83.06 129.85 C 70.70 130.13 58.33 129.88 45.97 129.97 C 39.74 129.90 33.33 130.46 27.31 128.46 C 14.35 124.49 4.84 111.60 5.05 98.02 C 5.05 78.99 4.97 59.95 5.08 40.92 C 5.26 25.60 18.00 11.77 33.23 10.29 M 33.26 12.32 C 19.06 13.72 7.17 26.75 7.11 41.02 C 7.03 60.38 7.02 79.74 7.12 99.10 C 7.18 114.31 20.76 127.83 35.96 127.88 C 50.98 127.99 66.00 127.93 81.02 127.91 C 92.03 128.08 102.77 121.52 107.66 111.65 C 110.30 106.89 111.06 101.36 110.95 95.98 C 110.88 77.64 111.02 59.29 110.88 40.95 C 110.77 29.52 103.17 18.75 92.66 14.39 C 85.22 11.09 76.91 12.28 69.01 12.06 C 57.10 12.22 45.16 11.73 33.26 12.32 Z" />
</g>
<g id="#e1e4e1ff">
<path fill="#e1e4e1" opacity="1.00" d=" M 48.98 15.26 C 56.55 15.21 64.12 15.17 71.68 15.28 C 71.73 17.25 71.74 19.22 71.72 21.19 C 68.61 21.39 65.48 21.27 62.39 21.71 C 64.92 23.98 68.60 22.68 71.67 23.08 C 71.70 24.55 71.73 26.01 71.75 27.48 C 75.61 27.54 79.49 27.26 83.35 27.59 C 83.68 27.92 84.35 28.58 84.69 28.91 C 80.38 29.12 76.07 28.95 71.76 29.00 C 71.75 29.68 71.72 31.03 71.70 31.71 C 75.80 31.71 79.90 31.71 83.99 31.71 C 84.00 32.15 84.02 33.05 84.02 33.50 C 79.92 33.49 75.82 33.50 71.72 33.49 C 71.75 36.82 71.77 40.16 71.69 43.50 C 68.91 43.59 66.12 43.58 63.34 43.54 C 63.35 45.47 63.36 47.39 63.36 49.32 C 61.46 50.50 59.76 52.60 60.81 54.94 C 61.48 58.98 66.64 57.46 68.98 59.94 C 73.56 63.43 72.43 69.70 74.46 74.48 C 75.89 79.99 77.38 85.48 79.01 90.93 C 76.39 93.90 72.37 95.76 68.94 97.84 C 62.62 98.17 56.25 98.03 49.92 97.91 C 46.14 96.19 42.86 93.52 39.37 91.30 C 41.63 84.92 43.07 78.31 44.87 71.79 C 45.74 68.04 45.83 63.68 48.76 60.80 C 51.26 57.94 55.28 57.87 58.67 56.85 C 58.11 62.77 57.65 68.92 58.91 74.77 C 60.85 71.13 60.17 66.97 60.28 63.02 C 60.51 58.85 58.63 54.92 58.89 50.74 C 58.43 50.46 57.52 49.91 57.07 49.63 C 57.06 47.61 57.07 45.59 57.06 43.58 C 54.37 43.58 51.68 43.57 48.98 43.53 C 48.95 40.18 48.95 36.83 48.96 33.48 C 44.31 33.50 39.65 33.49 35.00 33.50 L 35.00 31.71 C 39.64 31.71 44.29 31.70 48.93 31.72 C 48.95 31.04 48.97 29.69 48.98 29.01 C 44.32 28.99 39.66 29.00 35.00 29.00 L 35.00 27.46 C 39.64 27.47 44.28 27.45 48.93 27.49 C 48.96 26.00 48.99 24.52 49.02 23.04 C 51.70 23.01 54.38 23.01 57.05 23.01 C 57.07 22.46 57.08 21.91 57.10 21.36 C 54.39 21.36 51.67 21.36 48.96 21.31 C 48.96 19.30 48.96 17.28 48.98 15.26 M 50.41 17.03 C 50.41 17.68 50.42 18.97 50.43 19.62 C 56.94 19.58 63.46 19.60 69.97 19.61 C 69.98 18.96 70.00 17.65 70.00 17.00 C 63.47 17.01 56.94 16.97 50.41 17.03 M 58.98 21.29 C 57.81 22.77 60.35 24.38 61.32 22.87 C 62.48 21.40 59.93 19.78 58.98 21.29 M 50.53 24.80 C 50.54 30.54 50.54 36.27 50.54 42.00 C 57.03 42.00 63.51 42.00 70.00 42.00 C 70.00 36.27 70.01 30.54 70.00 24.81 C 63.51 24.81 57.02 24.83 50.53 24.80 M 58.99 43.50 C 59.25 45.52 58.04 48.62 60.83 49.11 C 61.12 47.31 61.16 45.47 61.26 43.65 C 60.69 43.61 59.56 43.54 58.99 43.50 M 50.06 62.03 C 48.07 64.05 47.79 67.03 46.98 69.61 C 50.00 68.58 53.17 68.15 56.36 68.11 C 56.36 65.14 56.36 62.17 56.35 59.20 C 54.17 59.90 51.69 60.26 50.06 62.03 M 62.08 59.28 C 61.98 62.23 62.00 65.18 62.00 68.13 C 65.24 68.14 68.46 68.57 71.58 69.47 C 70.96 66.96 70.45 64.29 68.78 62.24 C 67.07 60.32 64.48 59.77 62.08 59.28 M 45.61 73.49 C 49.12 72.10 52.82 72.37 56.39 73.29 C 56.37 72.44 56.35 70.74 56.33 69.89 C 52.50 69.89 48.19 70.23 45.61 73.49 M 62.01 69.92 C 62.00 70.77 62.00 72.47 62.00 73.33 C 65.65 72.33 69.40 72.23 73.01 73.46 C 70.24 70.33 65.96 69.75 62.01 69.92 M 50.36 74.08 C 46.60 74.34 45.70 78.26 44.53 81.14 C 46.69 84.76 48.37 88.65 49.31 92.77 C 51.35 90.67 53.50 88.70 55.67 86.74 C 56.11 84.89 56.53 82.16 59.01 82.17 C 61.65 81.72 62.57 84.81 63.08 86.80 C 65.09 88.83 67.19 90.77 69.29 92.70 C 70.18 88.59 72.07 84.84 73.97 81.12 C 73.16 77.93 71.71 74.53 68.08 73.92 C 65.42 74.60 62.74 75.32 59.99 75.54 C 56.71 75.72 53.59 74.45 50.36 74.08 M 57.58 87.10 C 58.54 86.99 60.46 86.78 61.42 86.67 C 60.95 85.70 60.44 84.76 59.87 83.84 C 57.91 83.70 58.01 85.76 57.58 87.10 M 74.69 83.56 C 72.88 87.08 71.58 90.83 70.65 94.68 C 72.84 93.34 74.99 91.94 77.16 90.59 C 76.36 88.24 75.58 85.88 74.69 83.56 M 41.48 90.53 C 43.63 91.95 45.79 93.36 47.91 94.83 C 47.07 90.89 45.76 87.07 43.83 83.53 C 43.01 85.85 42.24 88.19 41.48 90.53 M 52.18 92.28 C 52.86 93.58 53.49 94.91 54.10 96.25 L 55.71 96.52 C 55.43 94.76 55.18 93.01 54.96 91.25 C 55.50 91.25 56.59 91.26 57.14 91.27 C 56.90 92.93 56.64 94.60 56.33 96.25 L 59.34 96.60 C 58.11 93.95 58.29 91.03 58.67 88.22 C 55.89 88.35 54.16 90.65 52.18 92.28 M 59.69 88.14 C 59.92 90.44 59.91 92.75 60.06 95.05 C 60.18 96.41 61.71 95.74 62.52 95.60 C 61.37 93.75 61.61 91.67 63.11 90.10 C 63.47 92.45 63.20 94.80 62.87 97.13 C 64.43 95.84 65.46 94.08 66.62 92.46 C 64.56 90.65 62.60 88.43 59.69 88.14 M 49.95 94.35 C 49.48 95.98 50.06 96.53 51.67 95.99 C 52.13 94.36 51.55 93.81 49.95 94.35 M 67.00 94.34 C 66.51 95.97 67.07 96.52 68.69 96.01 C 69.18 94.39 68.62 93.83 67.00 94.34 Z" />
<path fill="#e1e4e1" opacity="1.00" d=" M 50.39 76.27 C 52.54 74.18 55.63 75.55 57.99 76.43 C 57.96 78.15 58.21 79.93 57.68 81.60 C 55.18 83.47 51.28 83.23 48.99 81.13 C 48.82 79.40 48.81 77.39 50.39 76.27 M 51.72 76.97 C 51.26 77.97 50.79 78.97 50.42 80.00 C 52.05 81.33 54.24 80.88 56.17 81.06 C 56.23 79.75 56.26 78.45 56.27 77.15 C 54.75 77.08 53.23 77.02 51.72 76.97 Z" />
<path fill="#e1e4e1" opacity="1.00" d=" M 61.23 76.27 C 63.56 74.87 67.31 74.42 68.95 77.07 C 69.90 78.39 70.64 80.83 68.86 81.78 C 67.14 82.90 64.98 82.93 63.01 82.69 C 60.21 82.13 59.26 78.19 61.23 76.27 M 62.00 79.96 C 63.24 81.52 65.43 80.78 67.14 81.07 C 67.47 80.51 68.12 79.39 68.45 78.83 C 66.83 76.40 61.11 75.86 62.00 79.96 Z" />
<path fill="#e1e4e1" opacity="1.00" d=" M 14.44 102.88 C 16.87 103.10 20.96 102.27 20.66 105.97 C 21.04 108.86 18.13 109.05 16.05 109.30 C 16.09 109.98 16.18 111.35 16.22 112.03 C 15.77 112.01 14.87 111.97 14.42 111.95 C 14.44 108.93 14.43 105.91 14.44 102.88 M 16.24 103.52 C 16.21 105.17 16.21 106.82 16.24 108.48 C 17.06 107.65 19.41 107.57 18.93 105.98 C 19.13 104.48 17.06 104.34 16.24 103.52 Z" />
<path fill="#e1e4e1" opacity="1.00" d=" M 21.44 102.87 C 23.22 102.99 25.03 102.95 26.78 103.35 C 28.41 106.15 26.61 109.55 27.32 112.57 C 25.94 111.44 24.97 109.93 23.86 108.54 C 23.42 110.11 22.72 111.54 21.74 112.83 C 21.29 109.53 21.43 106.19 21.44 102.87 M 23.25 103.52 C 23.21 105.13 23.21 106.75 23.24 108.37 C 24.07 107.61 26.41 107.64 25.93 106.05 C 26.19 104.51 24.09 104.35 23.25 103.52 Z" />
<path fill="#e1e4e1" opacity="1.00" d=" M 28.44 102.96 C 30.83 102.97 33.24 102.89 35.61 103.28 C 33.82 103.83 31.95 104.03 30.10 104.24 C 30.09 104.85 30.08 106.08 30.07 106.69 C 31.64 106.95 33.19 107.28 34.73 107.68 C 33.19 107.89 31.64 108.07 30.09 108.21 C 30.10 108.86 30.11 110.18 30.12 110.84 C 31.96 110.95 33.80 111.07 35.62 111.36 C 33.30 112.13 30.84 112.02 28.44 112.07 C 28.43 109.03 28.43 105.99 28.44 102.96 Z" />
<path fill="#e1e4e1" opacity="1.00" d=" M 37.38 103.37 C 38.83 103.00 40.34 102.99 41.82 102.85 C 41.83 103.17 41.85 103.80 41.86 104.11 C 39.22 103.81 37.35 105.41 36.55 107.81 C 38.32 109.81 40.90 110.22 43.39 110.70 C 43.33 108.15 43.32 105.60 43.30 103.05 C 43.72 103.03 44.54 103.00 44.96 102.98 C 44.96 104.32 44.96 105.66 44.95 107.00 C 45.80 107.00 47.49 107.00 48.34 107.00 C 48.33 105.68 48.32 104.36 48.30 103.05 C 48.72 103.03 49.55 103.00 49.96 102.98 C 49.96 105.99 49.96 109.01 49.96 112.02 C 49.55 112.00 48.72 111.97 48.30 111.95 C 48.32 110.63 48.33 109.31 48.34 108.00 C 47.49 108.00 45.80 108.00 44.96 108.00 C 44.96 109.41 44.97 110.82 44.98 112.24 C 44.41 111.99 43.28 111.49 42.72 111.24 C 40.90 111.57 38.74 112.32 37.22 110.81 C 34.67 109.08 34.76 105.00 37.38 103.37 Z" />
<path fill="#e1e4e1" opacity="1.00" d=" M 51.27 112.19 C 52.66 109.01 53.99 105.81 55.56 102.72 C 57.02 105.85 58.37 109.02 59.73 112.19 C 56.99 110.79 54.01 110.80 51.27 112.19 M 55.20 107.42 C 54.25 107.97 53.95 109.88 55.23 110.24 C 57.23 110.76 56.95 107.04 55.20 107.42 Z" />
<path fill="#e1e4e1" opacity="1.00" d=" M 60.29 103.06 C 60.70 103.04 61.52 102.99 61.93 102.97 C 61.98 105.23 61.78 107.53 62.23 109.76 C 62.72 111.14 64.54 111.45 65.39 110.20 C 65.88 107.83 65.63 105.39 65.70 102.99 L 67.53 103.03 C 67.35 105.83 68.10 108.98 66.38 111.45 C 64.59 112.26 61.46 112.54 60.69 110.24 C 60.02 107.92 60.41 105.44 60.29 103.06 Z" />
<path fill="#e1e4e1" opacity="1.00" d=" M 68.43 102.99 C 73.15 103.16 77.90 102.68 82.59 103.31 C 80.81 103.85 78.95 104.03 77.11 104.22 C 77.10 104.84 77.08 106.09 77.06 106.71 C 78.64 106.96 80.21 107.22 81.76 107.62 C 80.20 107.86 78.65 108.07 77.08 108.23 C 77.13 109.49 77.17 110.76 77.21 112.03 C 76.76 112.01 75.86 111.97 75.41 111.95 C 75.43 109.11 75.42 106.28 75.51 103.45 C 73.72 103.76 71.91 104.01 70.10 104.22 C 70.10 104.86 70.09 106.13 70.09 106.77 C 71.26 106.92 73.60 107.21 74.77 107.36 C 73.29 107.72 71.79 108.00 70.29 108.22 C 70.10 109.85 70.37 111.78 68.70 112.80 C 68.33 109.54 68.43 106.26 68.43 102.99 Z" />
<path fill="#e1e4e1" opacity="1.00" d=" M 82.27 112.19 C 83.66 109.01 84.99 105.81 86.56 102.72 C 88.01 105.84 89.37 109.02 90.73 112.19 C 87.99 110.80 85.01 110.80 82.27 112.19 M 86.22 107.42 C 85.27 107.95 84.94 109.85 86.20 110.24 C 88.20 110.79 87.98 107.09 86.22 107.42 Z" />
<path fill="#e1e4e1" opacity="1.00" d=" M 94.10 103.25 C 95.16 103.35 98.93 101.68 97.77 103.84 C 96.45 104.26 95.10 104.57 93.76 104.93 C 93.59 106.37 92.96 107.92 93.67 109.33 C 94.32 110.92 96.41 110.78 97.73 111.34 C 97.31 109.60 95.77 108.83 94.41 107.96 C 95.95 107.99 97.49 108.02 99.03 108.05 C 99.05 108.97 99.10 110.81 99.13 111.73 C 96.91 111.87 94.10 112.62 92.51 110.57 C 90.39 108.38 91.31 104.34 94.10 103.25 Z" />
<path fill="#e1e4e1" opacity="1.00" d=" M 99.73 102.93 C 102.03 102.97 104.38 102.90 106.60 103.64 C 104.78 103.90 102.96 104.08 101.12 104.17 C 101.11 104.80 101.08 106.05 101.07 106.68 C 102.64 106.95 104.19 107.29 105.73 107.70 C 104.19 107.91 102.64 108.07 101.10 108.20 C 101.10 108.86 101.11 110.18 101.12 110.84 C 102.95 110.95 104.79 111.07 106.61 111.37 C 104.32 112.12 101.89 112.02 99.51 112.08 C 99.41 109.02 99.58 105.97 99.73 102.93 Z" />
<path fill="#e1e4e1" opacity="1.00" d=" M 42.44 114.89 C 44.88 115.08 49.00 114.29 48.65 118.02 C 49.01 120.88 46.09 121.05 44.05 121.30 C 44.09 121.98 44.18 123.35 44.22 124.04 C 43.77 124.01 42.87 123.96 42.41 123.94 C 42.44 120.92 42.43 117.90 42.44 114.89 M 44.24 115.52 C 44.21 117.17 44.21 118.83 44.25 120.48 C 45.06 119.65 47.40 119.57 46.93 117.99 C 47.13 116.47 45.07 116.34 44.24 115.52 Z" />
<path fill="#e1e4e1" opacity="1.00" d=" M 49.43 114.97 C 53.96 115.11 58.48 115.06 63.00 114.98 L 63.00 115.94 C 62.42 115.96 61.25 116.01 60.67 116.03 C 60.68 118.68 60.68 121.32 60.69 123.97 C 60.28 123.98 59.46 124.00 59.04 124.01 C 59.04 121.34 59.04 118.67 59.04 116.00 C 56.43 115.77 53.81 115.90 51.19 116.05 C 51.16 116.71 51.09 118.03 51.05 118.69 C 52.63 118.95 54.20 119.27 55.75 119.67 C 54.20 119.89 52.65 120.07 51.09 120.21 C 51.10 120.87 51.11 122.18 51.12 122.83 C 52.95 122.95 54.79 123.08 56.60 123.39 C 54.29 124.14 51.84 124.01 49.44 124.07 C 49.43 121.03 49.43 118.00 49.43 114.97 Z" />
<path fill="#e1e4e1" opacity="1.00" d=" M 66.50 115.50 C 68.12 114.79 69.97 115.12 71.70 115.00 C 71.74 115.42 71.84 116.27 71.89 116.69 C 69.94 116.41 66.81 115.66 66.43 118.47 C 65.43 121.06 67.86 122.90 70.08 123.49 C 70.13 122.89 70.23 121.68 70.28 121.08 C 69.67 121.01 68.45 120.89 67.84 120.82 L 67.89 119.98 C 69.28 120.00 70.68 120.02 72.07 120.04 C 71.96 121.35 71.84 122.66 71.70 123.97 C 69.42 124.00 66.39 124.45 65.12 122.02 C 63.56 119.94 64.46 116.88 66.50 115.50 Z" />
</g>
<g id="#303430ff">
<path fill="#303430" opacity="1.00" d=" M 50.41 17.03 C 56.94 16.97 63.47 17.01 70.00 17.00 C 70.00 17.65 69.98 18.96 69.97 19.61 C 63.46 19.60 56.94 19.58 50.43 19.62 C 50.42 18.97 50.41 17.68 50.41 17.03 Z" />
<path fill="#303430" opacity="1.00" d=" M 51.72 76.97 C 53.23 77.02 54.75 77.08 56.27 77.15 C 56.26 78.45 56.23 79.75 56.17 81.06 C 54.24 80.88 52.05 81.33 50.42 80.00 C 50.79 78.97 51.26 77.97 51.72 76.97 Z" />
<path fill="#303430" opacity="1.00" d=" M 62.00 79.96 C 61.11 75.86 66.83 76.40 68.45 78.83 C 68.12 79.39 67.47 80.51 67.14 81.07 C 65.43 80.78 63.24 81.52 62.00 79.96 Z" />
<path fill="#303430" opacity="1.00" d=" M 52.18 92.28 C 54.16 90.65 55.89 88.35 58.67 88.22 C 58.29 91.03 58.11 93.95 59.34 96.60 L 56.33 96.25 C 56.64 94.60 56.90 92.93 57.14 91.27 C 56.59 91.26 55.50 91.25 54.96 91.25 C 55.18 93.01 55.43 94.76 55.71 96.52 L 54.10 96.25 C 53.49 94.91 52.86 93.58 52.18 92.28 Z" />
<path fill="#303430" opacity="1.00" d=" M 59.69 88.14 C 62.60 88.43 64.56 90.65 66.62 92.46 C 65.46 94.08 64.43 95.84 62.87 97.13 C 63.20 94.80 63.47 92.45 63.11 90.10 C 61.61 91.67 61.37 93.75 62.52 95.60 C 61.71 95.74 60.18 96.41 60.06 95.05 C 59.91 92.75 59.92 90.44 59.69 88.14 Z" />
</g>
</svg>
