<?xml version="1.0" encoding="UTF-8" ?>
<!DOCTYPE svg PUBLIC "-//W3C//DTD SVG 1.1//EN" "http://www.w3.org/Graphics/SVG/1.1/DTD/svg11.dtd">
<svg width="50px" height="50px" viewBox="0 0 50 50" version="1.1" xmlns="http://www.w3.org/2000/svg">
<g id="#000000ff">
<path fill="#000000" opacity="1.00" d=" M 0.00 0.00 L 11.16 0.00 C 11.01 5.89 11.13 11.78 11.09 17.67 C 8.75 17.67 6.42 17.69 4.08 17.71 C 4.46 22.53 3.62 27.47 4.56 32.21 C 7.23 34.85 11.39 33.27 14.73 33.72 C 17.54 36.66 20.46 39.49 23.40 42.31 C 19.71 42.32 16.03 42.32 12.35 42.34 C 12.38 44.89 12.38 47.45 12.35 50.00 L 0.00 50.00 L 0.00 0.00 Z" />
<path fill="#000000" opacity="1.00" d=" M 37.74 0.00 L 50.00 0.00 L 50.00 50.00 L 36.54 50.00 C 36.51 49.45 36.46 48.35 36.43 47.80 C 29.32 47.53 22.20 47.76 15.09 47.66 C 15.07 47.02 15.03 45.75 15.01 45.11 C 18.60 45.03 22.20 45.03 25.79 45.00 C 25.80 44.29 25.84 42.87 25.85 42.16 C 28.72 39.31 31.57 36.43 34.50 33.63 C 37.76 33.23 42.53 35.10 44.62 31.72 C 45.16 27.08 44.64 22.38 44.92 17.71 C 42.58 17.69 40.25 17.67 37.91 17.67 C 37.79 11.78 38.15 5.88 37.74 0.00 Z" />
<path fill="#000000" opacity="1.00" d=" M 13.75 3.04 C 20.92 2.97 28.08 3.02 35.25 3.04 C 35.21 8.78 35.38 14.52 35.13 20.26 C 37.38 20.33 39.63 20.33 41.88 20.29 C 42.00 23.85 41.92 27.41 41.92 30.97 C 30.29 31.12 18.67 30.94 7.05 30.92 C 7.08 27.39 7.05 23.86 7.07 20.32 C 13.79 20.30 20.50 20.34 27.22 20.32 C 27.22 19.66 27.22 18.34 27.22 17.68 C 22.72 17.66 18.22 17.70 13.72 17.66 C 13.73 15.91 13.72 14.15 13.70 12.39 C 18.21 12.24 22.72 12.36 27.22 12.32 C 27.22 11.66 27.22 10.34 27.22 9.68 C 22.73 9.68 18.23 9.66 13.74 9.71 C 13.74 7.48 13.75 5.26 13.75 3.04 M 22.74 23.55 C 26.08 24.05 23.12 28.19 25.13 29.96 C 26.03 27.31 25.57 24.48 25.60 21.75 C 24.60 22.27 23.64 22.87 22.74 23.55 Z" />
<path fill="#000000" opacity="1.00" d=" M 18.20 33.73 C 22.40 33.64 26.60 33.65 30.80 33.72 C 28.66 35.71 26.55 37.72 24.53 39.83 C 22.46 37.75 20.35 35.72 18.20 33.73 Z" />
</g>
<g id="#f7fbf7ff">
<path fill="#f7fbf7" opacity="1.00" d=" M 11.16 0.00 L 37.74 0.00 C 38.15 5.88 37.79 11.78 37.91 17.67 C 40.25 17.67 42.58 17.69 44.92 17.71 C 44.64 22.38 45.16 27.08 44.62 31.72 C 42.53 35.10 37.76 33.23 34.50 33.63 C 31.57 36.43 28.72 39.31 25.85 42.16 C 25.84 42.87 25.80 44.29 25.79 45.00 C 22.20 45.03 18.60 45.03 15.01 45.11 C 15.03 45.75 15.07 47.02 15.09 47.66 C 22.20 47.76 29.32 47.53 36.43 47.80 C 36.46 48.35 36.51 49.45 36.54 50.00 L 12.35 50.00 C 12.38 47.45 12.38 44.89 12.35 42.34 C 16.03 42.32 19.71 42.32 23.40 42.31 C 20.46 39.49 17.54 36.66 14.73 33.72 C 11.39 33.27 7.23 34.85 4.56 32.21 C 3.62 27.47 4.46 22.53 4.08 17.71 C 6.42 17.69 8.75 17.67 11.09 17.67 C 11.13 11.78 11.01 5.89 11.16 0.00 M 13.75 3.04 C 13.75 5.26 13.74 7.48 13.74 9.71 C 18.23 9.66 22.73 9.68 27.22 9.68 C 27.22 10.34 27.22 11.66 27.22 12.32 C 22.72 12.36 18.21 12.24 13.70 12.39 C 13.72 14.15 13.73 15.91 13.72 17.66 C 18.22 17.70 22.72 17.66 27.22 17.68 C 27.22 18.34 27.22 19.66 27.22 20.32 C 20.50 20.34 13.79 20.30 7.07 20.32 C 7.05 23.86 7.08 27.39 7.05 30.92 C 18.67 30.94 30.29 31.12 41.92 30.97 C 41.92 27.41 42.00 23.85 41.88 20.29 C 39.63 20.33 37.38 20.33 35.13 20.26 C 35.38 14.52 35.21 8.78 35.25 3.04 C 28.08 3.02 20.92 2.97 13.75 3.04 M 18.20 33.73 C 20.35 35.72 22.46 37.75 24.53 39.83 C 26.55 37.72 28.66 35.71 30.80 33.72 C 26.60 33.65 22.40 33.64 18.20 33.73 Z" />
<path fill="#f7fbf7" opacity="1.00" d=" M 22.74 23.55 C 23.64 22.87 24.60 22.27 25.60 21.75 C 25.57 24.48 26.03 27.31 25.13 29.96 C 23.12 28.19 26.08 24.05 22.74 23.55 Z" />
</g>
</svg>
