<?xml version="1.0" encoding="UTF-8" ?>
<!DOCTYPE svg PUBLIC "-//W3C//DTD SVG 1.1//EN" "http://www.w3.org/Graphics/SVG/1.1/DTD/svg11.dtd">
<svg width="50px" height="50px" viewBox="0 0 50 50" version="1.1" xmlns="http://www.w3.org/2000/svg">
<g id="#000000ff">
<path fill="#000000" opacity="1.00" d=" M 0.00 0.00 L 50.00 0.00 L 50.00 50.00 L 0.00 50.00 L 0.00 0.00 M 37.94 10.98 C 37.22 14.98 39.07 18.68 40.63 22.22 C 41.74 24.71 40.99 27.43 40.04 29.83 C 40.57 30.26 41.63 31.14 42.16 31.58 C 43.14 29.52 44.21 27.36 44.02 25.00 C 44.10 20.70 40.58 17.33 40.66 13.02 C 40.70 10.17 42.04 7.55 42.29 4.73 C 38.94 4.66 38.42 8.47 37.94 10.98 M 23.80 24.16 C 26.08 27.38 21.46 31.55 25.24 33.86 C 26.39 31.73 27.45 29.43 27.26 26.95 C 27.26 22.68 23.76 19.32 23.91 15.04 C 23.83 12.56 24.92 10.28 25.72 7.99 C 25.25 7.65 24.31 6.96 23.84 6.62 C 19.71 11.71 20.77 18.81 23.80 24.16 M 6.06 26.06 C 7.74 28.97 7.59 32.45 6.17 35.43 C 6.91 36.00 7.65 36.56 8.39 37.11 C 9.21 35.18 10.21 33.22 10.18 31.07 C 10.47 26.04 5.86 22.08 6.93 16.96 C 7.03 14.51 9.65 11.85 7.04 9.89 C 3.03 14.30 3.25 21.09 6.06 26.06 M 1.07 41.12 C 1.08 41.81 1.09 43.20 1.10 43.90 C 17.03 44.07 32.98 44.07 48.91 43.90 C 48.92 43.20 48.92 41.81 48.92 41.11 C 32.97 40.93 17.02 40.92 1.07 41.12 Z" />
</g>
<g id="#f8fcf8ff">
<path fill="#f8fcf8" opacity="1.00" d=" M 37.94 10.98 C 38.42 8.47 38.94 4.66 42.29 4.73 C 42.04 7.55 40.70 10.17 40.66 13.02 C 40.58 17.33 44.10 20.70 44.02 25.00 C 44.21 27.36 43.14 29.52 42.16 31.58 C 41.63 31.14 40.57 30.26 40.04 29.83 C 40.99 27.43 41.74 24.71 40.63 22.22 C 39.07 18.68 37.22 14.98 37.94 10.98 Z" />
<path fill="#f8fcf8" opacity="1.00" d=" M 23.80 24.16 C 20.77 18.81 19.71 11.71 23.84 6.62 C 24.31 6.96 25.25 7.65 25.72 7.99 C 24.92 10.28 23.83 12.56 23.91 15.04 C 23.76 19.32 27.26 22.68 27.26 26.95 C 27.45 29.43 26.39 31.73 25.24 33.86 C 21.46 31.55 26.08 27.38 23.80 24.16 Z" />
<path fill="#f8fcf8" opacity="1.00" d=" M 6.06 26.06 C 3.25 21.09 3.03 14.30 7.04 9.89 C 9.65 11.85 7.03 14.51 6.93 16.96 C 5.86 22.08 10.47 26.04 10.18 31.07 C 10.21 33.22 9.21 35.18 8.39 37.11 C 7.65 36.56 6.91 36.00 6.17 35.43 C 7.59 32.45 7.74 28.97 6.06 26.06 Z" />
<path fill="#f8fcf8" opacity="1.00" d=" M 1.07 41.12 C 17.02 40.92 32.97 40.93 48.92 41.11 C 48.92 41.81 48.92 43.20 48.91 43.90 C 32.98 44.07 17.03 44.07 1.10 43.90 C 1.09 43.20 1.08 41.81 1.07 41.12 Z" />
</g>
</svg>
