<?xml version="1.0" encoding="UTF-8" ?>
<!DOCTYPE svg PUBLIC "-//W3C//DTD SVG 1.1//EN" "http://www.w3.org/Graphics/SVG/1.1/DTD/svg11.dtd">
<svg width="117px" height="140px" viewBox="0 0 117 140" version="1.1" xmlns="http://www.w3.org/2000/svg">
<g id="#000000ff">
<path fill="#000000" opacity="1.00" d=" M 0.00 0.00 L 117.00 0.00 L 117.00 140.00 L 0.00 140.00 L 0.00 0.00 M 33.18 10.20 C 17.92 11.77 5.17 25.62 5.00 40.98 C 5.02 60.67 4.94 80.37 5.04 100.06 C 5.74 115.65 19.34 129.27 34.94 129.95 C 50.96 130.04 67.00 130.04 83.03 129.95 C 98.61 129.30 112.25 115.69 112.95 100.12 C 113.08 80.75 112.95 61.38 113.01 42.01 C 113.10 33.36 109.37 24.80 103.10 18.87 C 97.01 12.95 88.45 9.71 79.96 9.98 C 64.37 10.16 48.76 9.72 33.18 10.20 Z" />
<path fill="#000000" opacity="1.00" d=" M 33.27 12.35 C 48.80 11.71 64.39 12.25 79.94 12.07 C 90.99 11.71 102.05 17.83 107.21 27.68 C 109.86 32.31 111.00 37.68 110.92 42.99 C 110.92 61.34 110.96 79.69 110.90 98.04 C 110.97 105.65 107.82 113.12 102.65 118.66 C 96.83 124.74 88.42 128.13 80.01 127.93 C 64.98 127.86 49.95 128.08 34.93 127.82 C 20.12 127.12 7.32 113.92 7.13 99.09 C 7.03 79.72 7.04 60.34 7.13 40.97 C 7.33 26.74 19.10 13.82 33.27 12.35 M 46.04 28.20 C 46.10 34.03 46.14 39.86 46.04 45.69 C 43.71 45.66 41.39 45.67 39.06 45.73 C 39.39 50.39 38.83 55.09 39.37 59.73 C 41.49 63.12 46.22 61.22 49.50 61.63 C 52.49 64.47 55.34 67.44 58.35 70.26 C 54.68 70.39 51.00 70.26 47.33 70.36 C 47.39 72.90 47.39 75.45 47.33 78.00 C 55.25 77.95 63.16 78.09 71.07 77.95 C 72.48 77.33 71.35 75.43 70.12 75.73 C 63.46 75.59 56.80 75.72 50.14 75.68 C 50.10 75.05 50.01 73.78 49.96 73.15 C 53.56 72.97 57.17 73.04 60.77 73.04 C 60.79 72.32 60.84 70.88 60.87 70.15 C 63.73 67.30 66.57 64.42 69.50 61.63 C 72.78 61.22 77.61 63.13 79.65 59.67 C 80.14 55.04 79.62 50.37 79.94 45.72 C 77.61 45.68 75.28 45.66 72.95 45.68 C 72.87 39.86 72.90 34.03 72.96 28.20 C 63.99 28.13 55.01 28.13 46.04 28.20 Z" />
<path fill="#000000" opacity="1.00" d=" M 48.77 31.04 C 55.93 31.05 63.09 30.99 70.25 31.05 C 70.20 36.79 70.37 42.53 70.13 48.27 C 72.40 48.32 74.67 48.34 76.94 48.33 C 76.94 51.86 76.92 55.40 76.95 58.93 C 65.32 58.98 53.68 58.99 42.05 58.93 C 42.08 55.39 42.06 51.86 42.06 48.33 C 48.78 48.29 55.50 48.34 62.22 48.32 C 62.22 47.66 62.22 46.34 62.22 45.68 C 57.70 45.64 53.19 45.75 48.67 45.62 C 48.72 43.85 48.76 42.07 48.79 40.30 C 53.26 40.34 57.74 40.32 62.22 40.32 C 62.22 39.66 62.22 38.34 62.22 37.68 C 57.75 37.70 53.28 37.61 48.81 37.75 C 48.75 35.51 48.73 33.28 48.77 31.04 Z" />
<path fill="#000000" opacity="1.00" d=" M 53.23 61.72 C 57.42 61.67 61.61 61.64 65.80 61.74 C 63.64 63.71 61.54 65.74 59.49 67.82 C 57.45 65.73 55.35 63.72 53.23 61.72 Z" />
</g>
<g id="#6e6f6eff">
<path fill="#6e6f6e" opacity="1.00" d=" M 33.18 10.20 C 48.76 9.72 64.37 10.16 79.96 9.98 C 88.45 9.71 97.01 12.95 103.10 18.87 C 109.37 24.80 113.10 33.36 113.01 42.01 C 112.95 61.38 113.08 80.75 112.95 100.12 C 112.25 115.69 98.61 129.30 83.03 129.95 C 67.00 130.04 50.96 130.04 34.94 129.95 C 19.34 129.27 5.74 115.65 5.04 100.06 C 4.94 80.37 5.02 60.67 5.00 40.98 C 5.17 25.62 17.92 11.77 33.18 10.20 M 33.27 12.35 C 19.10 13.82 7.33 26.74 7.13 40.97 C 7.04 60.34 7.03 79.72 7.13 99.09 C 7.32 113.92 20.12 127.12 34.93 127.82 C 49.95 128.08 64.98 127.86 80.01 127.93 C 88.42 128.13 96.83 124.74 102.65 118.66 C 107.82 113.12 110.97 105.65 110.90 98.04 C 110.96 79.69 110.92 61.34 110.92 42.99 C 111.00 37.68 109.86 32.31 107.21 27.68 C 102.05 17.83 90.99 11.71 79.94 12.07 C 64.39 12.25 48.80 11.71 33.27 12.35 Z" />
</g>
<g id="#f6faf6ff">
<path fill="#f6faf6" opacity="1.00" d=" M 46.04 28.20 C 55.01 28.13 63.99 28.13 72.96 28.20 C 72.90 34.03 72.87 39.86 72.95 45.68 C 75.28 45.66 77.61 45.68 79.94 45.72 C 79.62 50.37 80.14 55.04 79.65 59.67 C 77.61 63.13 72.78 61.22 69.50 61.63 C 66.57 64.42 63.73 67.30 60.87 70.15 C 60.84 70.88 60.79 72.32 60.77 73.04 C 57.17 73.04 53.56 72.97 49.96 73.15 C 50.01 73.78 50.10 75.05 50.14 75.68 C 56.80 75.72 63.46 75.59 70.12 75.73 C 71.35 75.43 72.48 77.33 71.07 77.95 C 63.16 78.09 55.25 77.95 47.33 78.00 C 47.39 75.45 47.39 72.90 47.33 70.36 C 51.00 70.26 54.68 70.39 58.35 70.26 C 55.34 67.44 52.49 64.47 49.50 61.63 C 46.22 61.22 41.49 63.12 39.37 59.73 C 38.83 55.09 39.39 50.39 39.06 45.73 C 41.39 45.67 43.71 45.66 46.04 45.69 C 46.14 39.86 46.10 34.03 46.04 28.20 M 48.77 31.04 C 48.73 33.28 48.75 35.51 48.81 37.75 C 53.28 37.61 57.75 37.70 62.22 37.68 C 62.22 38.34 62.22 39.66 62.22 40.32 C 57.74 40.32 53.26 40.34 48.79 40.30 C 48.76 42.07 48.72 43.85 48.67 45.62 C 53.19 45.75 57.70 45.64 62.22 45.68 C 62.22 46.34 62.22 47.66 62.22 48.32 C 55.50 48.34 48.78 48.29 42.06 48.33 C 42.06 51.86 42.08 55.39 42.05 58.93 C 53.68 58.99 65.32 58.98 76.95 58.93 C 76.92 55.40 76.94 51.86 76.94 48.33 C 74.67 48.34 72.40 48.32 70.13 48.27 C 70.37 42.53 70.20 36.79 70.25 31.05 C 63.09 30.99 55.93 31.05 48.77 31.04 M 53.23 61.72 C 55.35 63.72 57.45 65.73 59.49 67.82 C 61.54 65.74 63.64 63.71 65.80 61.74 C 61.61 61.64 57.42 61.67 53.23 61.72 Z" />
</g>
</svg>
