<?xml version="1.0" encoding="UTF-8" ?>
<!DOCTYPE svg PUBLIC "-//W3C//DTD SVG 1.1//EN" "http://www.w3.org/Graphics/SVG/1.1/DTD/svg11.dtd">
<svg width="100px" height="100px" viewBox="0 0 100 100" version="1.1" xmlns="http://www.w3.org/2000/svg">
<g id="#407cc8ff">
<path fill="#407cc8" opacity="1.00" d=" M 0.00 0.00 L 100.00 0.00 L 100.00 100.00 L 0.00 100.00 L 0.00 0.00 M 29.33 19.71 C 29.40 20.08 29.52 20.82 29.59 21.19 C 32.27 22.78 34.94 24.37 37.72 25.77 C 38.65 29.09 36.17 31.57 34.99 34.40 C 34.22 34.41 32.70 34.44 31.94 34.46 C 29.08 32.90 26.50 30.54 23.15 30.14 C 23.83 36.57 30.57 42.37 37.08 39.72 C 40.10 42.44 42.82 45.47 45.81 48.23 C 45.68 48.85 45.41 50.10 45.28 50.72 C 43.75 49.83 41.65 48.51 40.03 50.02 C 34.83 54.44 30.33 59.64 25.40 64.36 C 22.84 67.12 19.55 69.40 18.10 73.00 C 20.64 75.85 23.31 78.60 26.24 81.05 C 27.96 80.24 29.63 79.30 30.94 77.90 C 35.76 73.04 40.57 68.17 45.45 63.36 C 46.89 61.84 48.42 60.33 49.41 58.47 C 50.25 56.73 48.98 54.95 48.37 53.38 C 48.98 53.47 50.19 53.64 50.80 53.73 C 54.33 57.05 57.25 60.96 60.67 64.39 C 59.71 69.91 62.11 75.42 66.79 78.46 C 70.19 78.74 73.62 78.76 77.02 78.34 C 75.06 75.68 71.70 74.83 69.14 72.92 C 68.23 72.28 66.90 71.47 67.40 70.13 C 68.24 67.81 69.94 65.87 70.82 63.55 C 75.49 62.71 78.08 68.68 82.60 67.43 C 81.20 61.61 74.99 55.53 68.78 58.54 C 65.33 55.87 62.58 52.48 59.55 49.39 C 58.44 48.27 57.46 47.01 57.09 45.45 C 61.97 41.23 66.24 36.37 70.90 31.92 C 72.71 30.10 75.40 29.81 77.65 28.78 C 78.67 26.50 79.69 24.23 80.84 22.02 C 79.58 20.79 78.35 19.51 76.97 18.42 C 75.00 18.80 73.11 19.59 71.34 20.53 C 69.07 22.22 69.38 25.49 67.55 27.51 C 63.06 32.50 57.95 36.93 53.50 41.98 C 50.15 39.83 47.64 36.62 44.88 33.80 C 44.17 31.19 45.18 28.34 44.22 25.78 C 42.82 23.54 40.99 21.50 38.79 20.03 C 35.79 18.81 32.46 19.54 29.33 19.71 Z" />
</g>
<g id="#f8fcf8ff">
<path fill="#f8fcf8" opacity="1.00" d=" M 29.33 19.71 C 32.46 19.54 35.79 18.81 38.79 20.03 C 40.99 21.50 42.82 23.54 44.22 25.78 C 45.18 28.34 44.17 31.19 44.88 33.80 C 47.64 36.62 50.15 39.83 53.50 41.98 C 57.95 36.93 63.06 32.50 67.55 27.51 C 69.38 25.49 69.07 22.22 71.34 20.53 C 73.11 19.59 75.00 18.80 76.97 18.42 C 78.35 19.51 79.58 20.79 80.84 22.02 C 79.69 24.23 78.67 26.50 77.65 28.78 C 75.40 29.81 72.71 30.10 70.90 31.92 C 66.24 36.37 61.97 41.23 57.09 45.45 C 57.46 47.01 58.44 48.27 59.55 49.39 C 62.58 52.48 65.33 55.87 68.78 58.54 C 74.99 55.53 81.20 61.61 82.60 67.43 C 78.08 68.68 75.49 62.71 70.82 63.55 C 69.94 65.87 68.24 67.81 67.40 70.13 C 66.90 71.47 68.23 72.28 69.14 72.92 C 71.70 74.83 75.06 75.68 77.02 78.34 C 73.62 78.76 70.19 78.74 66.79 78.46 C 62.11 75.42 59.71 69.91 60.67 64.39 C 57.25 60.96 54.33 57.05 50.80 53.73 C 50.19 53.64 48.98 53.47 48.37 53.38 C 48.98 54.95 50.25 56.73 49.41 58.47 C 48.42 60.33 46.89 61.84 45.45 63.36 C 40.57 68.17 35.76 73.04 30.94 77.90 C 29.63 79.30 27.96 80.24 26.24 81.05 C 23.31 78.60 20.64 75.85 18.10 73.00 C 19.55 69.40 22.84 67.12 25.40 64.36 C 30.33 59.64 34.83 54.44 40.03 50.02 C 41.65 48.51 43.75 49.83 45.28 50.72 C 45.41 50.10 45.68 48.85 45.81 48.23 C 42.82 45.47 40.10 42.44 37.08 39.72 C 30.57 42.37 23.83 36.57 23.15 30.14 C 26.50 30.54 29.08 32.90 31.94 34.46 C 32.70 34.44 34.22 34.41 34.99 34.40 C 36.17 31.57 38.65 29.09 37.72 25.77 C 34.94 24.37 32.27 22.78 29.59 21.19 C 29.52 20.82 29.40 20.08 29.33 19.71 Z" />
</g>
</svg>
