<?xml version="1.0" encoding="UTF-8" ?>
<!DOCTYPE svg PUBLIC "-//W3C//DTD SVG 1.1//EN" "http://www.w3.org/Graphics/SVG/1.1/DTD/svg11.dtd">
<svg width="117px" height="140px" viewBox="0 0 117 140" version="1.1" xmlns="http://www.w3.org/2000/svg">
<g id="#384450ff">
<path fill="#384450" opacity="1.00" d=" M 0.00 0.00 L 117.00 0.00 L 117.00 140.00 L 0.00 140.00 L 0.00 0.00 M 41.18 53.19 C 37.77 54.91 39.37 60.56 43.11 60.42 C 45.06 60.77 46.61 58.88 47.20 57.23 C 47.84 54.13 43.82 51.04 41.18 53.19 M 56.42 53.55 C 52.36 56.58 57.95 63.19 61.52 59.47 C 65.70 56.46 59.98 49.73 56.42 53.55 M 72.48 53.34 C 67.79 56.20 73.73 63.40 77.43 59.31 C 81.23 56.41 76.00 50.11 72.48 53.34 Z" />
</g>
<g id="#f8fcf8ff">
<path fill="#f8fcf8" opacity="1.00" d=" M 41.18 53.19 C 43.82 51.04 47.84 54.13 47.20 57.23 C 46.61 58.88 45.06 60.77 43.11 60.42 C 39.37 60.56 37.77 54.91 41.18 53.19 Z" />
<path fill="#f8fcf8" opacity="1.00" d=" M 56.42 53.55 C 59.98 49.73 65.70 56.46 61.52 59.47 C 57.95 63.19 52.36 56.58 56.42 53.55 Z" />
<path fill="#f8fcf8" opacity="1.00" d=" M 72.48 53.34 C 76.00 50.11 81.23 56.41 77.43 59.31 C 73.73 63.40 67.79 56.20 72.48 53.34 Z" />
</g>
</svg>
