<?xml version="1.0" encoding="UTF-8" ?>
<!DOCTYPE svg PUBLIC "-//W3C//DTD SVG 1.1//EN" "http://www.w3.org/Graphics/SVG/1.1/DTD/svg11.dtd">
<svg width="117px" height="140px" viewBox="0 0 117 140" version="1.1" xmlns="http://www.w3.org/2000/svg">
<g id="#000000ff">
<path fill="#000000" opacity="1.00" d=" M 0.00 0.00 L 117.00 0.00 L 117.00 140.00 L 0.00 140.00 L 0.00 0.00 M 37.87 42.10 C 37.45 50.68 37.45 59.32 37.87 67.90 C 44.96 68.09 52.07 68.09 59.16 67.90 C 59.48 65.98 59.48 64.01 59.16 62.09 C 54.87 61.78 50.54 62.32 46.27 61.71 C 46.20 60.57 46.21 59.42 46.27 58.28 C 49.81 57.78 53.38 58.16 56.93 57.91 C 57.11 55.90 57.10 53.87 56.93 51.86 C 53.41 51.39 49.85 51.78 46.32 51.58 C 46.25 50.53 46.25 49.47 46.32 48.41 C 50.52 48.16 54.74 48.70 58.93 48.14 C 59.10 46.13 59.11 44.10 58.93 42.09 C 51.91 41.91 44.88 41.91 37.87 42.10 M 66.43 49.49 C 63.00 50.54 61.48 55.45 63.92 58.12 C 66.71 60.59 70.66 60.74 73.96 62.16 C 73.96 62.63 73.94 63.58 73.94 64.06 C 71.83 65.00 70.18 63.42 68.64 62.23 C 66.47 61.73 64.20 61.99 62.00 62.16 C 62.31 64.33 63.50 66.47 65.63 67.29 C 69.68 68.85 74.31 68.73 78.36 67.23 C 81.69 66.04 83.13 61.06 80.40 58.58 C 77.55 56.25 73.68 56.08 70.38 54.70 C 70.33 54.27 70.23 53.40 70.18 52.97 C 73.78 53.21 77.03 55.68 80.85 54.67 C 81.07 52.68 80.13 50.66 78.24 49.84 C 74.58 48.13 70.21 48.15 66.43 49.49 Z" />
</g>
<g id="#f8fcf8ff">
<path fill="#f8fcf8" opacity="1.00" d=" M 37.87 42.10 C 44.88 41.91 51.91 41.91 58.93 42.09 C 59.11 44.10 59.10 46.13 58.93 48.14 C 54.74 48.70 50.52 48.16 46.32 48.41 C 46.25 49.47 46.25 50.53 46.32 51.58 C 49.85 51.78 53.41 51.39 56.93 51.86 C 57.10 53.87 57.11 55.90 56.93 57.91 C 53.38 58.16 49.81 57.78 46.27 58.28 C 46.21 59.42 46.20 60.57 46.27 61.71 C 50.54 62.32 54.87 61.78 59.16 62.09 C 59.48 64.01 59.48 65.98 59.16 67.90 C 52.07 68.09 44.96 68.09 37.87 67.90 C 37.45 59.32 37.45 50.68 37.87 42.10 Z" />
<path fill="#f8fcf8" opacity="1.00" d=" M 66.43 49.49 C 70.21 48.15 74.58 48.13 78.24 49.84 C 80.13 50.66 81.07 52.68 80.85 54.67 C 77.03 55.68 73.78 53.21 70.18 52.97 C 70.23 53.40 70.33 54.27 70.38 54.70 C 73.68 56.08 77.55 56.25 80.40 58.58 C 83.13 61.06 81.69 66.04 78.36 67.23 C 74.31 68.73 69.68 68.85 65.63 67.29 C 63.50 66.47 62.31 64.33 62.00 62.16 C 64.20 61.99 66.47 61.73 68.64 62.23 C 70.18 63.42 71.83 65.00 73.94 64.06 C 73.94 63.58 73.96 62.63 73.96 62.16 C 70.66 60.74 66.71 60.59 63.92 58.12 C 61.48 55.45 63.00 50.54 66.43 49.49 Z" />
</g>
</svg>
