<?xml version="1.0" encoding="UTF-8" ?>
<!DOCTYPE svg PUBLIC "-//W3C//DTD SVG 1.1//EN" "http://www.w3.org/Graphics/SVG/1.1/DTD/svg11.dtd">
<svg width="117px" height="140px" viewBox="0 0 117 140" version="1.1" xmlns="http://www.w3.org/2000/svg">
<g id="#000000ff">
<path fill="#000000" opacity="1.00" d=" M 0.00 0.00 L 117.00 0.00 L 117.00 140.00 L 0.00 140.00 L 0.00 0.00 M 35.16 42.06 C 35.19 50.70 35.18 59.33 35.16 67.97 C 38.04 67.99 40.93 67.99 43.81 67.97 C 43.82 64.92 43.84 61.86 43.91 58.81 C 45.78 58.99 47.68 59.04 49.49 59.58 C 51.31 61.93 50.69 65.18 51.15 67.95 C 53.95 67.99 56.75 68.02 59.55 68.05 C 58.97 63.83 59.52 59.09 56.35 55.73 C 58.01 53.24 59.62 50.33 58.80 47.23 C 58.25 44.05 54.85 42.56 51.96 42.31 C 46.38 41.76 40.76 42.02 35.16 42.06 M 62.76 49.15 C 62.65 54.05 62.11 59.02 63.04 63.87 C 63.70 67.79 68.52 69.20 71.87 67.94 C 75.61 66.51 79.47 68.22 83.29 68.16 C 83.47 61.82 83.52 55.48 83.24 49.15 C 80.74 49.16 78.24 49.16 75.74 49.15 C 75.49 53.20 75.96 57.32 75.20 61.32 C 74.39 63.03 72.14 62.31 70.64 62.63 C 70.38 58.14 70.40 53.64 70.26 49.15 C 67.76 49.16 65.26 49.16 62.76 49.15 Z" />
<path fill="#000000" opacity="1.00" d=" M 44.12 48.22 C 46.20 48.36 48.27 48.48 50.34 48.61 C 50.66 49.79 50.98 50.96 51.30 52.13 C 48.89 52.99 46.33 53.27 43.78 53.26 C 43.88 51.58 43.99 49.90 44.12 48.22 Z" />
</g>
<g id="#f8fcf8ff">
<path fill="#f8fcf8" opacity="1.00" d=" M 35.16 42.06 C 40.76 42.02 46.38 41.76 51.96 42.31 C 54.85 42.56 58.25 44.05 58.80 47.23 C 59.62 50.33 58.01 53.24 56.35 55.73 C 59.52 59.09 58.97 63.83 59.55 68.05 C 56.75 68.02 53.95 67.99 51.15 67.95 C 50.69 65.18 51.31 61.93 49.49 59.58 C 47.68 59.04 45.78 58.99 43.91 58.81 C 43.84 61.86 43.82 64.92 43.81 67.97 C 40.93 67.99 38.04 67.99 35.16 67.97 C 35.18 59.33 35.19 50.70 35.16 42.06 M 44.12 48.22 C 43.99 49.90 43.88 51.58 43.78 53.26 C 46.33 53.27 48.89 52.99 51.30 52.13 C 50.98 50.96 50.66 49.79 50.34 48.61 C 48.27 48.48 46.20 48.36 44.12 48.22 Z" />
<path fill="#f8fcf8" opacity="1.00" d=" M 62.76 49.15 C 65.26 49.16 67.76 49.16 70.26 49.15 C 70.40 53.64 70.38 58.14 70.64 62.63 C 72.14 62.31 74.39 63.03 75.20 61.32 C 75.96 57.32 75.49 53.20 75.74 49.15 C 78.24 49.16 80.74 49.16 83.24 49.15 C 83.52 55.48 83.47 61.82 83.29 68.16 C 79.47 68.22 75.61 66.51 71.87 67.94 C 68.52 69.20 63.70 67.79 63.04 63.87 C 62.11 59.02 62.65 54.05 62.76 49.15 Z" />
</g>
</svg>
