<?xml version="1.0" encoding="UTF-8" ?>
<!DOCTYPE svg PUBLIC "-//W3C//DTD SVG 1.1//EN" "http://www.w3.org/Graphics/SVG/1.1/DTD/svg11.dtd">
<svg width="117px" height="140px" viewBox="0 0 117 140" version="1.1" xmlns="http://www.w3.org/2000/svg">
<g id="#384450ff">
<path fill="#384450" opacity="1.00" d=" M 0.00 0.00 L 117.00 0.00 L 117.00 140.00 L 0.00 140.00 L 0.00 0.00 M 41.22 53.15 C 38.64 54.46 38.65 58.56 41.24 59.84 C 43.87 61.84 47.79 58.90 47.21 55.85 C 46.67 53.35 43.46 51.39 41.22 53.15 M 56.48 53.50 C 54.55 54.96 54.59 58.01 56.46 59.50 C 58.89 62.05 63.45 59.36 62.95 56.04 C 62.64 53.10 58.66 51.20 56.48 53.50 M 72.46 53.35 C 70.22 54.77 70.21 58.18 72.42 59.62 C 74.78 61.90 79.15 59.31 78.69 56.19 C 78.63 53.34 74.61 51.25 72.46 53.35 Z" />
</g>
<g id="#f8fcf8ff">
<path fill="#f8fcf8" opacity="1.00" d=" M 41.22 53.15 C 43.46 51.39 46.67 53.35 47.21 55.85 C 47.79 58.90 43.87 61.84 41.24 59.84 C 38.65 58.56 38.64 54.46 41.22 53.15 Z" />
<path fill="#f8fcf8" opacity="1.00" d=" M 56.48 53.50 C 58.66 51.20 62.64 53.10 62.95 56.04 C 63.45 59.36 58.89 62.05 56.46 59.50 C 54.59 58.01 54.55 54.96 56.48 53.50 Z" />
<path fill="#f8fcf8" opacity="1.00" d=" M 72.46 53.35 C 74.61 51.25 78.63 53.34 78.69 56.19 C 79.15 59.31 74.78 61.90 72.42 59.62 C 70.21 58.18 70.22 54.77 72.46 53.35 Z" />
</g>
</svg>
