<?xml version="1.0" encoding="UTF-8" ?>
<!DOCTYPE svg PUBLIC "-//W3C//DTD SVG 1.1//EN" "http://www.w3.org/Graphics/SVG/1.1/DTD/svg11.dtd">
<svg width="117px" height="92px" viewBox="0 0 117 92" version="1.1" xmlns="http://www.w3.org/2000/svg">
<g id="#000000ff">
<path fill="#000000" opacity="1.00" d=" M 0.00 0.00 L 117.00 0.00 L 117.00 92.00 L 0.00 92.00 L 0.00 0.00 M 37.74 33.74 C 37.34 36.33 37.68 39.34 39.80 41.13 C 46.33 47.65 52.03 54.95 58.78 61.25 C 60.11 62.62 62.61 62.27 63.74 60.80 C 68.24 56.27 72.68 51.67 76.76 46.76 C 80.04 42.96 85.85 39.61 84.22 33.71 C 68.73 33.57 53.23 33.51 37.74 33.74 Z" />
<path fill="#000000" opacity="1.00" d=" M 42.03 37.63 C 54.68 37.87 67.35 37.84 80.00 37.64 C 73.48 44.37 67.16 51.30 61.00 58.35 C 54.84 51.31 48.52 44.38 42.03 37.63 Z" />
</g>
<g id="#f8fcf8ff">
<path fill="#f8fcf8" opacity="1.00" d=" M 37.74 33.74 C 53.23 33.51 68.73 33.57 84.22 33.71 C 85.85 39.61 80.04 42.96 76.76 46.76 C 72.68 51.67 68.24 56.27 63.74 60.80 C 62.61 62.27 60.11 62.62 58.78 61.25 C 52.03 54.95 46.33 47.65 39.80 41.13 C 37.68 39.34 37.34 36.33 37.74 33.74 M 42.03 37.63 C 48.52 44.38 54.84 51.31 61.00 58.35 C 67.16 51.30 73.48 44.37 80.00 37.64 C 67.35 37.84 54.68 37.87 42.03 37.63 Z" />
</g>
</svg>
