<?xml version="1.0" encoding="UTF-8" ?>
<!DOCTYPE svg PUBLIC "-//W3C//DTD SVG 1.1//EN" "http://www.w3.org/Graphics/SVG/1.1/DTD/svg11.dtd">
<svg width="117px" height="140px" viewBox="0 0 117 140" version="1.1" xmlns="http://www.w3.org/2000/svg">
<g id="#000000ff">
<path fill="#000000" opacity="1.00" d=" M 0.00 0.00 L 117.00 0.00 L 117.00 140.00 L 0.00 140.00 L 0.00 0.00 M 33.31 10.37 C 18.09 11.80 5.25 25.66 5.20 40.99 C 5.17 60.34 5.17 79.69 5.20 99.04 C 5.24 114.95 19.13 129.24 35.03 129.75 C 50.71 129.89 66.39 129.82 82.07 129.78 C 98.31 129.77 112.80 115.25 112.78 99.01 C 112.83 79.66 112.85 60.31 112.78 40.97 C 112.70 28.25 103.89 16.30 91.96 12.08 C 85.26 9.42 77.97 10.34 70.95 10.18 C 58.41 10.30 45.85 9.94 33.31 10.37 Z" />
<path fill="#000000" opacity="1.00" d=" M 30.35 12.60 C 33.20 11.98 36.12 11.75 39.04 11.79 C 53.72 11.91 68.41 11.71 83.09 11.88 C 98.05 12.71 110.93 25.98 111.18 40.97 C 111.18 60.31 111.18 79.65 111.18 98.98 C 110.95 113.95 98.12 127.29 83.16 128.09 C 67.44 128.29 51.71 128.16 35.98 128.15 C 20.64 127.93 7.09 114.44 6.85 99.09 C 6.77 79.72 6.84 60.35 6.82 40.99 C 7.14 27.65 17.28 15.34 30.35 12.60 M 38.63 41.59 C 36.16 43.45 33.69 45.32 31.35 47.33 C 29.03 49.05 29.01 52.92 31.33 54.65 C 33.66 56.66 36.12 58.51 38.58 60.37 C 40.66 62.29 43.56 61.11 46.00 60.88 C 46.00 58.25 46.00 55.63 46.00 53.00 C 48.00 53.00 50.00 53.00 52.00 53.00 C 52.00 52.25 52.00 50.75 52.00 50.00 C 50.00 50.00 48.00 49.99 46.00 50.00 C 46.00 47.04 46.00 44.08 46.00 41.12 C 43.58 40.90 40.71 39.72 38.63 41.59 M 70.99 41.07 C 71.00 44.05 71.00 47.02 71.00 49.99 C 68.66 50.00 66.33 50.00 64.00 50.00 C 64.00 50.75 64.00 52.25 64.00 53.00 C 66.33 53.00 68.66 53.00 71.00 53.00 C 71.00 55.64 71.00 58.28 70.99 60.93 C 72.85 61.12 74.95 62.13 76.65 60.88 C 79.42 58.95 82.07 56.84 84.66 54.67 C 87.02 52.95 86.98 49.06 84.65 47.33 C 82.09 45.17 79.45 43.09 76.71 41.16 C 75.00 39.85 72.87 40.87 70.99 41.07 M 53.00 50.00 C 53.00 50.75 53.00 52.25 53.00 53.00 C 53.75 53.00 55.25 53.00 56.00 53.00 C 56.00 52.25 56.00 50.75 56.00 50.00 C 55.25 50.00 53.75 50.00 53.00 50.00 M 57.00 50.00 C 57.00 50.75 57.00 52.25 57.00 53.00 C 59.00 53.00 61.00 53.00 63.00 53.00 C 63.00 52.25 63.00 50.75 63.00 50.00 C 61.00 50.00 59.00 50.00 57.00 50.00 Z" />
<path fill="#000000" opacity="1.00" d=" M 33.00 51.00 C 35.99 48.67 38.99 46.34 42.00 44.03 C 42.00 48.68 42.00 53.32 42.00 57.97 C 38.99 55.66 35.99 53.33 33.00 51.00 Z" />
<path fill="#000000" opacity="1.00" d=" M 75.01 44.79 C 77.68 46.86 80.34 48.92 82.99 51.00 C 80.34 53.08 77.67 55.14 75.00 57.20 C 75.00 53.07 75.00 48.93 75.01 44.79 Z" />
</g>
<g id="#11eb51ff">
<path fill="#11eb51" opacity="1.00" d=" M 33.31 10.37 C 45.85 9.94 58.41 10.30 70.95 10.18 C 77.97 10.34 85.26 9.42 91.96 12.08 C 103.89 16.30 112.70 28.25 112.78 40.97 C 112.85 60.31 112.83 79.66 112.78 99.01 C 112.80 115.25 98.31 129.77 82.07 129.78 C 66.39 129.82 50.71 129.89 35.03 129.75 C 19.13 129.24 5.24 114.95 5.20 99.04 C 5.17 79.69 5.17 60.34 5.20 40.99 C 5.25 25.66 18.09 11.80 33.31 10.37 M 30.35 12.60 C 17.28 15.34 7.14 27.65 6.82 40.99 C 6.84 60.35 6.77 79.72 6.85 99.09 C 7.09 114.44 20.64 127.93 35.98 128.15 C 51.71 128.16 67.44 128.29 83.16 128.09 C 98.12 127.29 110.95 113.95 111.18 98.98 C 111.18 79.65 111.18 60.31 111.18 40.97 C 110.93 25.98 98.05 12.71 83.09 11.88 C 68.41 11.71 53.72 11.91 39.04 11.79 C 36.12 11.75 33.20 11.98 30.35 12.60 Z" />
<path fill="#11eb51" opacity="1.00" d=" M 38.63 41.59 C 40.71 39.72 43.58 40.90 46.00 41.12 C 46.00 44.08 46.00 47.04 46.00 50.00 C 48.00 49.99 50.00 50.00 52.00 50.00 C 52.00 50.75 52.00 52.25 52.00 53.00 C 50.00 53.00 48.00 53.00 46.00 53.00 C 46.00 55.63 46.00 58.25 46.00 60.88 C 43.56 61.11 40.66 62.29 38.58 60.37 C 36.12 58.51 33.66 56.66 31.33 54.65 C 29.01 52.92 29.03 49.05 31.35 47.33 C 33.69 45.32 36.16 43.45 38.63 41.59 M 33.00 51.00 C 35.99 53.33 38.99 55.66 42.00 57.97 C 42.00 53.32 42.00 48.68 42.00 44.03 C 38.99 46.34 35.99 48.67 33.00 51.00 Z" />
<path fill="#11eb51" opacity="1.00" d=" M 70.99 41.07 C 72.87 40.87 75.00 39.85 76.71 41.16 C 79.45 43.09 82.09 45.17 84.65 47.33 C 86.98 49.06 87.02 52.95 84.66 54.67 C 82.07 56.84 79.42 58.95 76.65 60.88 C 74.95 62.13 72.85 61.12 70.99 60.93 C 71.00 58.28 71.00 55.64 71.00 53.00 C 68.66 53.00 66.33 53.00 64.00 53.00 C 64.00 52.25 64.00 50.75 64.00 50.00 C 66.33 50.00 68.66 50.00 71.00 49.99 C 71.00 47.02 71.00 44.05 70.99 41.07 M 75.01 44.79 C 75.00 48.93 75.00 53.07 75.00 57.20 C 77.67 55.14 80.34 53.08 82.99 51.00 C 80.34 48.92 77.68 46.86 75.01 44.79 Z" />
<path fill="#11eb51" opacity="1.00" d=" M 53.00 50.00 C 53.75 50.00 55.25 50.00 56.00 50.00 C 56.00 50.75 56.00 52.25 56.00 53.00 C 55.25 53.00 53.75 53.00 53.00 53.00 C 53.00 52.25 53.00 50.75 53.00 50.00 Z" />
<path fill="#11eb51" opacity="1.00" d=" M 57.00 50.00 C 59.00 50.00 61.00 50.00 63.00 50.00 C 63.00 50.75 63.00 52.25 63.00 53.00 C 61.00 53.00 59.00 53.00 57.00 53.00 C 57.00 52.25 57.00 50.75 57.00 50.00 Z" />
</g>
</svg>
