<?xml version="1.0" encoding="UTF-8" ?>
<!DOCTYPE svg PUBLIC "-//W3C//DTD SVG 1.1//EN" "http://www.w3.org/Graphics/SVG/1.1/DTD/svg11.dtd">
<svg width="117px" height="140px" viewBox="0 0 117 140" version="1.1" xmlns="http://www.w3.org/2000/svg">
<g id="#000000ff">
<path fill="#000000" opacity="1.00" d=" M 0.00 0.00 L 117.00 0.00 L 117.00 140.00 L 0.00 140.00 L 0.00 0.00 M 33.12 10.24 C 17.90 11.82 5.21 25.64 5.03 40.95 C 4.98 60.34 4.98 79.73 5.03 99.11 C 5.23 115.04 19.02 129.25 34.94 129.92 C 49.63 130.13 64.33 129.92 79.03 130.02 C 84.41 130.15 89.89 129.29 94.74 126.87 C 105.68 121.80 113.15 110.10 112.99 98.02 C 113.01 79.36 113.00 60.71 113.00 42.05 C 113.07 33.15 109.15 24.34 102.55 18.38 C 96.27 12.53 87.57 9.62 79.04 9.98 C 63.74 10.18 48.41 9.67 33.12 10.24 Z" />
<path fill="#000000" opacity="1.00" d=" M 33.24 12.34 C 48.49 11.72 63.77 12.25 79.02 12.06 C 85.35 11.88 91.80 13.26 97.11 16.81 C 105.58 22.09 111.01 31.94 110.91 41.93 C 110.95 60.63 110.95 79.33 110.91 98.03 C 111.04 108.75 104.79 119.26 95.31 124.25 C 90.39 127.08 84.64 128.05 79.03 127.94 C 64.36 127.85 49.68 128.08 35.00 127.83 C 20.16 127.22 7.25 113.93 7.13 99.06 C 7.03 79.70 7.03 60.32 7.12 40.95 C 7.28 26.72 19.09 13.80 33.24 12.34 M 56.95 28.95 C 49.27 36.65 41.63 44.38 33.92 52.04 C 34.17 52.95 34.41 53.86 34.66 54.78 C 38.02 54.41 42.39 56.01 44.80 52.86 C 49.49 48.07 54.25 43.34 58.99 38.61 C 64.31 43.76 69.32 49.22 74.75 54.25 C 77.51 55.36 80.66 54.62 83.57 54.61 C 83.68 53.97 83.90 52.68 84.01 52.04 C 76.40 44.34 68.72 36.72 61.11 29.03 C 60.16 27.62 57.92 27.55 56.95 28.95 M 55.14 45.05 C 51.32 49.27 46.89 52.98 43.42 57.49 C 42.72 62.25 43.35 67.13 43.11 71.93 C 43.30 73.77 42.37 76.61 44.73 77.38 C 48.25 77.64 51.81 77.62 55.34 77.39 C 55.61 77.11 56.14 76.57 56.41 76.29 C 56.76 72.81 56.47 69.29 56.53 65.80 C 58.41 65.82 60.28 65.83 62.16 65.84 C 62.18 69.18 61.97 72.54 62.22 75.88 C 63.30 78.48 66.75 77.23 68.92 77.55 C 70.84 77.31 73.91 78.27 74.78 75.89 C 74.98 70.24 74.85 64.58 74.85 58.93 C 74.89 56.87 73.00 55.62 71.79 54.22 C 67.78 50.30 64.08 46.06 59.94 42.27 C 57.71 41.53 56.53 43.80 55.14 45.05 Z" />
<path fill="#000000" opacity="1.00" d=" M 38.13 51.84 C 45.27 45.12 52.01 38.00 58.99 31.11 C 65.98 37.97 72.67 45.15 79.84 51.81 C 78.70 51.80 77.56 51.80 76.43 51.80 C 71.24 46.50 66.00 41.26 60.73 36.06 C 59.62 34.69 57.61 35.23 56.72 36.53 C 51.69 41.63 46.57 46.65 41.58 51.79 C 40.72 51.80 39.00 51.83 38.13 51.84 Z" />
<path fill="#000000" opacity="1.00" d=" M 46.35 58.51 C 50.48 54.09 54.82 49.86 58.98 45.46 C 62.70 49.28 66.37 53.13 70.15 56.88 C 70.91 57.75 72.15 58.54 71.86 59.91 C 71.93 64.78 71.81 69.65 71.88 74.52 C 69.63 74.49 67.37 74.49 65.11 74.52 C 65.14 70.76 65.31 66.98 64.78 63.25 C 61.35 62.85 57.72 62.37 54.34 63.24 C 52.77 66.79 53.79 70.85 53.66 74.61 C 51.15 74.47 48.64 74.46 46.12 74.53 C 46.30 69.19 45.81 63.80 46.35 58.51 Z" />
</g>
<g id="#747474ff">
<path fill="#747474" opacity="1.00" d=" M 33.12 10.24 C 48.41 9.67 63.74 10.18 79.04 9.98 C 87.57 9.62 96.27 12.53 102.55 18.38 C 109.15 24.34 113.07 33.15 113.00 42.05 C 113.00 60.71 113.01 79.36 112.99 98.02 C 113.15 110.10 105.68 121.80 94.74 126.87 C 89.89 129.29 84.41 130.15 79.03 130.02 C 64.33 129.92 49.63 130.13 34.94 129.92 C 19.02 129.25 5.23 115.04 5.03 99.11 C 4.98 79.73 4.98 60.34 5.03 40.95 C 5.21 25.64 17.90 11.82 33.12 10.24 M 33.24 12.34 C 19.09 13.80 7.28 26.72 7.12 40.95 C 7.03 60.32 7.03 79.70 7.13 99.06 C 7.25 113.93 20.16 127.22 35.00 127.83 C 49.68 128.08 64.36 127.85 79.03 127.94 C 84.64 128.05 90.39 127.08 95.31 124.25 C 104.79 119.26 111.04 108.75 110.91 98.03 C 110.95 79.33 110.95 60.63 110.91 41.93 C 111.01 31.94 105.58 22.09 97.11 16.81 C 91.80 13.26 85.35 11.88 79.02 12.06 C 63.77 12.25 48.49 11.72 33.24 12.34 Z" />
</g>
<g id="#f8fcf8ff">
<path fill="#f8fcf8" opacity="1.00" d=" M 56.95 28.95 C 57.92 27.55 60.16 27.62 61.11 29.03 C 68.72 36.72 76.40 44.34 84.01 52.04 C 83.90 52.68 83.68 53.97 83.57 54.61 C 80.66 54.62 77.51 55.36 74.75 54.25 C 69.32 49.22 64.31 43.76 58.99 38.61 C 54.25 43.34 49.49 48.07 44.80 52.86 C 42.39 56.01 38.02 54.41 34.66 54.78 C 34.41 53.86 34.17 52.95 33.92 52.04 C 41.63 44.38 49.27 36.65 56.95 28.95 M 38.13 51.84 C 39.00 51.83 40.72 51.80 41.58 51.79 C 46.57 46.65 51.69 41.63 56.72 36.53 C 57.61 35.23 59.62 34.69 60.73 36.06 C 66.00 41.26 71.24 46.50 76.43 51.80 C 77.56 51.80 78.70 51.80 79.84 51.81 C 72.67 45.15 65.98 37.97 58.99 31.11 C 52.01 38.00 45.27 45.12 38.13 51.84 Z" />
<path fill="#f8fcf8" opacity="1.00" d=" M 55.14 45.05 C 56.53 43.80 57.71 41.53 59.94 42.27 C 64.08 46.06 67.78 50.30 71.79 54.22 C 73.00 55.62 74.89 56.87 74.85 58.93 C 74.85 64.58 74.98 70.24 74.78 75.89 C 73.91 78.27 70.84 77.31 68.92 77.55 C 66.75 77.23 63.30 78.48 62.22 75.88 C 61.97 72.54 62.18 69.18 62.16 65.84 C 60.28 65.83 58.41 65.82 56.53 65.80 C 56.47 69.29 56.76 72.81 56.41 76.29 C 56.14 76.57 55.61 77.11 55.34 77.39 C 51.81 77.62 48.25 77.64 44.73 77.38 C 42.37 76.61 43.30 73.77 43.11 71.93 C 43.35 67.13 42.72 62.25 43.42 57.49 C 46.89 52.98 51.32 49.27 55.14 45.05 M 46.35 58.51 C 45.81 63.80 46.30 69.19 46.12 74.53 C 48.64 74.46 51.15 74.47 53.66 74.61 C 53.79 70.85 52.77 66.79 54.34 63.24 C 57.72 62.37 61.35 62.85 64.78 63.25 C 65.31 66.98 65.14 70.76 65.11 74.52 C 67.37 74.49 69.63 74.49 71.88 74.52 C 71.81 69.65 71.93 64.78 71.86 59.91 C 72.15 58.54 70.91 57.75 70.15 56.88 C 66.37 53.13 62.70 49.28 58.98 45.46 C 54.82 49.86 50.48 54.09 46.35 58.51 Z" />
</g>
</svg>
