<?xml version="1.0" encoding="UTF-8" ?>
<!DOCTYPE svg PUBLIC "-//W3C//DTD SVG 1.1//EN" "http://www.w3.org/Graphics/SVG/1.1/DTD/svg11.dtd">
<svg width="50px" height="50px" viewBox="0 0 50 50" version="1.1" xmlns="http://www.w3.org/2000/svg">
<g id="#000000ff">
<path fill="#000000" opacity="1.00" d=" M 0.00 0.00 L 50.00 0.00 L 50.00 50.00 L 0.00 50.00 L 0.00 0.00 M 5.91 10.97 C 4.73 15.06 7.47 19.08 10.75 21.28 C 13.49 23.37 16.98 23.78 20.15 24.85 C 19.85 27.18 16.85 27.28 15.03 27.25 C 11.85 27.35 9.18 24.47 5.97 25.29 C 2.27 26.02 0.12 30.40 1.38 33.86 C 2.64 40.04 8.51 45.91 15.21 44.31 C 21.39 42.23 23.61 35.48 24.94 29.74 C 28.53 32.28 27.30 37.14 25.68 40.49 C 23.65 44.07 26.81 49.10 30.87 48.99 C 38.13 49.50 46.05 42.74 44.26 35.08 C 42.31 29.21 35.99 26.63 30.39 25.61 C 30.34 25.31 30.26 24.70 30.21 24.40 C 33.21 22.06 37.35 23.15 40.52 24.57 C 43.76 26.24 47.85 24.04 48.85 20.69 C 50.09 13.35 43.79 4.82 35.94 5.78 C 29.58 7.19 26.38 14.00 25.69 19.94 C 24.07 19.95 23.09 18.60 23.11 17.06 C 22.28 13.82 24.38 10.98 25.07 7.95 C 25.66 4.10 21.81 0.65 18.08 1.08 C 12.67 1.79 7.08 5.34 5.91 10.97 Z" />
<path fill="#000000" opacity="1.00" d=" M 9.67 14.13 C 9.07 9.29 13.77 5.73 18.12 5.05 C 19.75 4.66 21.79 6.36 20.85 8.04 C 19.16 12.05 18.21 16.48 19.96 20.67 C 15.85 19.96 11.60 18.05 9.67 14.13 Z" />
<path fill="#000000" opacity="1.00" d=" M 29.50 20.46 C 30.35 16.15 32.11 10.75 36.96 9.64 C 41.62 9.71 44.93 14.49 45.02 18.82 C 45.36 20.47 43.26 21.71 41.89 20.80 C 37.97 19.20 33.36 18.03 29.50 20.46 Z" />
<path fill="#000000" opacity="1.00" d=" M 22.78 25.93 C 21.79 24.21 24.16 23.26 25.01 22.18 C 25.94 23.15 28.50 24.28 27.32 25.96 C 26.72 28.19 23.52 27.97 22.78 25.93 Z" />
<path fill="#000000" opacity="1.00" d=" M 5.12 32.64 C 4.39 30.61 6.53 28.10 8.56 29.53 C 12.34 31.30 16.67 31.88 20.62 30.26 C 19.84 34.25 18.15 38.63 14.23 40.48 C 9.51 41.38 6.02 36.74 5.12 32.64 Z" />
<path fill="#000000" opacity="1.00" d=" M 30.43 29.67 C 34.34 30.44 38.48 32.13 40.40 35.88 C 41.47 41.58 35.13 45.66 30.01 45.05 C 29.74 44.53 29.20 43.50 28.93 42.99 C 31.15 38.90 31.91 34.15 30.43 29.67 Z" />
</g>
<g id="#f8fcf8ff">
<path fill="#f8fcf8" opacity="1.00" d=" M 5.91 10.97 C 7.08 5.34 12.67 1.79 18.08 1.08 C 21.81 0.65 25.66 4.10 25.07 7.95 C 24.38 10.98 22.28 13.82 23.11 17.06 C 23.09 18.60 24.07 19.95 25.69 19.94 C 26.38 14.00 29.58 7.19 35.94 5.78 C 43.79 4.82 50.09 13.35 48.85 20.69 C 47.85 24.04 43.76 26.24 40.52 24.57 C 37.35 23.15 33.21 22.06 30.21 24.40 C 30.26 24.70 30.34 25.31 30.39 25.61 C 35.99 26.63 42.31 29.21 44.26 35.08 C 46.05 42.74 38.13 49.50 30.87 48.99 C 26.81 49.10 23.65 44.07 25.68 40.49 C 27.30 37.14 28.53 32.28 24.94 29.74 C 23.61 35.48 21.39 42.23 15.21 44.31 C 8.51 45.91 2.64 40.04 1.38 33.86 C 0.12 30.40 2.27 26.02 5.97 25.29 C 9.18 24.47 11.85 27.35 15.03 27.25 C 16.85 27.28 19.85 27.18 20.15 24.85 C 16.98 23.78 13.49 23.37 10.75 21.28 C 7.47 19.08 4.73 15.06 5.91 10.97 M 9.67 14.13 C 11.60 18.05 15.85 19.96 19.96 20.67 C 18.21 16.48 19.16 12.05 20.85 8.04 C 21.79 6.36 19.75 4.66 18.12 5.05 C 13.77 5.73 9.07 9.29 9.67 14.13 M 29.50 20.46 C 33.36 18.03 37.97 19.20 41.89 20.80 C 43.26 21.71 45.36 20.47 45.02 18.82 C 44.93 14.49 41.62 9.71 36.96 9.64 C 32.11 10.75 30.35 16.15 29.50 20.46 M 22.78 25.93 C 23.52 27.97 26.72 28.19 27.32 25.96 C 28.50 24.28 25.94 23.15 25.01 22.18 C 24.16 23.26 21.79 24.21 22.78 25.93 M 5.12 32.64 C 6.02 36.74 9.51 41.38 14.23 40.48 C 18.15 38.63 19.84 34.25 20.62 30.26 C 16.67 31.88 12.34 31.30 8.56 29.53 C 6.53 28.10 4.39 30.61 5.12 32.64 M 30.43 29.67 C 31.91 34.15 31.15 38.90 28.93 42.99 C 29.20 43.50 29.74 44.53 30.01 45.05 C 35.13 45.66 41.47 41.58 40.40 35.88 C 38.48 32.13 34.34 30.44 30.43 29.67 Z" />
</g>
</svg>
