<?xml version="1.0" encoding="UTF-8" ?>
<!DOCTYPE svg PUBLIC "-//W3C//DTD SVG 1.1//EN" "http://www.w3.org/Graphics/SVG/1.1/DTD/svg11.dtd">
<svg width="117px" height="140px" viewBox="0 0 117 140" version="1.1" xmlns="http://www.w3.org/2000/svg">
<g id="#000000ff">
<path fill="#000000" opacity="1.00" d=" M 0.00 0.00 L 117.00 0.00 L 117.00 140.00 L 0.00 140.00 L 0.00 0.00 M 23.10 12.96 C 16.09 16.41 10.44 22.11 6.96 29.10 C 6.27 31.37 5.56 33.64 4.83 35.90 C 4.14 41.58 4.42 47.30 4.39 52.99 C 4.38 67.99 4.38 83.00 4.38 98.00 C 4.24 102.45 5.55 106.75 6.97 110.91 C 10.44 117.90 16.10 123.59 23.10 127.04 C 27.28 128.42 31.58 129.73 36.03 129.62 C 50.70 129.62 65.38 129.64 80.05 129.60 C 84.47 129.70 88.74 128.42 92.90 127.04 C 99.90 123.58 105.59 117.91 109.02 110.90 C 110.46 106.76 111.75 102.48 111.61 98.04 C 111.63 79.70 111.60 61.35 111.63 43.01 C 111.72 39.47 111.06 35.99 110.39 32.53 L 109.77 32.52 C 109.55 31.40 109.32 30.29 109.08 29.17 C 108.14 27.60 107.23 26.01 106.34 24.41 C 102.88 19.52 98.20 15.70 92.90 12.96 C 88.73 11.59 84.46 10.28 80.03 10.39 C 65.35 10.37 50.67 10.38 35.99 10.39 C 31.55 10.28 27.27 11.59 23.10 12.96 Z" />
<path fill="#000000" opacity="1.00" d=" M 26.39 12.74 C 29.59 12.24 32.79 11.54 36.05 11.60 C 50.71 11.62 65.37 11.62 80.03 11.60 C 83.26 11.55 86.42 12.25 89.59 12.74 L 89.56 13.12 C 100.73 16.74 109.18 27.26 110.36 38.92 C 110.44 58.95 110.33 78.99 110.41 99.02 C 110.46 101.79 109.81 104.49 109.29 107.19 C 105.85 116.16 98.89 123.94 89.55 126.88 L 89.60 127.26 C 86.42 127.76 83.25 128.46 80.01 128.40 C 65.34 128.37 50.68 128.38 36.02 128.40 C 32.76 128.46 29.57 127.76 26.37 127.25 L 26.47 126.89 C 17.20 123.93 10.04 116.24 6.83 107.16 C 6.48 105.74 6.10 104.33 5.68 102.93 C 5.58 81.00 5.57 59.07 5.68 37.14 C 6.10 35.71 6.48 34.27 6.83 32.82 C 10.04 23.75 17.20 16.08 26.46 13.12 L 26.39 12.74 M 41.40 47.19 C 43.44 47.91 45.48 48.62 47.52 49.32 C 48.19 47.72 48.86 46.11 49.54 44.51 C 50.22 47.48 51.04 50.43 51.80 53.38 C 53.58 52.70 55.36 52.02 57.14 51.33 C 56.73 49.14 56.39 46.94 56.07 44.73 C 57.47 45.76 58.87 46.80 60.30 47.81 C 59.63 47.67 58.29 47.38 57.62 47.24 C 57.59 49.16 57.56 51.08 57.56 52.99 C 60.90 53.00 64.24 53.00 67.59 53.01 C 66.94 57.52 69.28 63.12 65.85 66.80 C 65.48 62.60 65.61 58.38 65.64 54.17 C 61.15 54.18 56.67 54.17 52.18 54.18 C 52.17 59.12 52.17 64.06 52.17 69.00 C 56.18 69.00 60.20 69.00 64.21 69.00 C 64.67 70.25 65.13 71.51 65.58 72.76 C 67.94 72.52 70.51 72.84 72.63 71.59 C 74.13 70.57 73.82 68.57 73.99 67.02 C 74.07 60.47 73.97 53.92 73.99 47.38 C 73.24 47.35 71.76 47.30 71.02 47.28 C 72.15 45.81 73.82 45.27 75.58 45.04 C 75.60 43.16 75.62 41.28 75.64 39.40 C 73.07 39.39 70.49 39.37 67.92 39.26 C 65.53 38.39 63.03 37.90 60.55 37.36 C 60.18 38.94 59.82 40.52 59.48 42.11 C 59.33 41.23 59.18 40.34 59.04 39.46 C 56.67 39.41 54.31 39.35 51.95 39.23 C 49.86 38.38 47.67 37.87 45.50 37.30 C 44.28 40.65 43.01 44.00 41.40 47.19 M 44.18 49.47 C 44.16 57.11 44.19 64.76 44.17 72.40 C 46.31 72.40 48.46 72.40 50.60 72.40 C 50.60 66.59 50.61 60.78 50.65 54.96 C 50.56 53.34 50.82 51.57 49.82 50.17 C 48.05 49.38 46.06 49.64 44.18 49.47 Z" />
<path fill="#000000" opacity="1.00" d=" M 63.54 47.04 C 62.86 44.72 67.12 44.72 66.34 47.06 C 65.39 48.26 64.46 48.26 63.54 47.04 Z" />
<path fill="#000000" opacity="1.00" d=" M 57.88 64.06 C 59.03 63.13 59.70 63.36 59.88 64.77 C 58.72 65.70 58.05 65.46 57.88 64.06 Z" />
</g>
<g id="#e76010ff">
<path fill="#e76010" opacity="1.00" d=" M 23.10 12.96 C 27.27 11.59 31.55 10.28 35.99 10.39 C 50.67 10.38 65.35 10.37 80.03 10.39 C 84.46 10.28 88.73 11.59 92.90 12.96 C 98.20 15.70 102.88 19.52 106.34 24.41 C 107.23 26.01 108.14 27.60 109.08 29.17 C 109.32 30.29 109.55 31.40 109.77 32.52 L 110.39 32.53 C 111.06 35.99 111.72 39.47 111.63 43.01 C 111.60 61.35 111.63 79.70 111.61 98.04 C 111.75 102.48 110.46 106.76 109.02 110.90 C 105.59 117.91 99.90 123.58 92.90 127.04 C 88.74 128.42 84.47 129.70 80.05 129.60 C 65.38 129.64 50.70 129.62 36.03 129.62 C 31.58 129.73 27.28 128.42 23.10 127.04 C 16.10 123.59 10.44 117.90 6.97 110.91 C 5.55 106.75 4.24 102.45 4.38 98.00 C 4.38 83.00 4.38 67.99 4.39 52.99 C 4.42 47.30 4.14 41.58 4.83 35.90 C 5.56 33.64 6.27 31.37 6.96 29.10 C 10.44 22.11 16.09 16.41 23.10 12.96 M 26.39 12.74 L 26.46 13.12 C 17.20 16.08 10.04 23.75 6.83 32.82 C 6.48 34.27 6.10 35.71 5.68 37.14 C 5.57 59.07 5.58 81.00 5.68 102.93 C 6.10 104.33 6.48 105.74 6.83 107.16 C 10.04 116.24 17.20 123.93 26.47 126.89 L 26.37 127.25 C 29.57 127.76 32.76 128.46 36.02 128.40 C 50.68 128.38 65.34 128.37 80.01 128.40 C 83.25 128.46 86.42 127.76 89.60 127.26 L 89.55 126.88 C 98.89 123.94 105.85 116.16 109.29 107.19 C 109.81 104.49 110.46 101.79 110.41 99.02 C 110.33 78.99 110.44 58.95 110.36 38.92 C 109.18 27.26 100.73 16.74 89.56 13.12 L 89.59 12.74 C 86.42 12.25 83.26 11.55 80.03 11.60 C 65.37 11.62 50.71 11.62 36.05 11.60 C 32.79 11.54 29.59 12.24 26.39 12.74 Z" />
<path fill="#e76010" opacity="1.00" d=" M 41.40 47.19 C 43.01 44.00 44.28 40.65 45.50 37.30 C 47.67 37.87 49.86 38.38 51.95 39.23 C 54.31 39.35 56.67 39.41 59.04 39.46 C 59.18 40.34 59.33 41.23 59.48 42.11 C 59.82 40.52 60.18 38.94 60.55 37.36 C 63.03 37.90 65.53 38.39 67.92 39.26 C 70.49 39.37 73.07 39.39 75.64 39.40 C 75.62 41.28 75.60 43.16 75.58 45.04 C 73.82 45.27 72.15 45.81 71.02 47.28 C 71.76 47.30 73.24 47.35 73.99 47.38 C 73.97 53.92 74.07 60.47 73.99 67.02 C 73.82 68.57 74.13 70.57 72.63 71.59 C 70.51 72.84 67.94 72.52 65.58 72.76 C 65.13 71.51 64.67 70.25 64.21 69.00 C 60.20 69.00 56.18 69.00 52.17 69.00 C 52.17 64.06 52.17 59.12 52.18 54.18 C 56.67 54.17 61.15 54.18 65.64 54.17 C 65.61 58.38 65.48 62.60 65.85 66.80 C 69.28 63.12 66.94 57.52 67.59 53.01 C 64.24 53.00 60.90 53.00 57.56 52.99 C 57.56 51.08 57.59 49.16 57.62 47.24 C 58.29 47.38 59.63 47.67 60.30 47.81 C 58.87 46.80 57.47 45.76 56.07 44.73 C 56.39 46.94 56.73 49.14 57.14 51.33 C 55.36 52.02 53.58 52.70 51.80 53.38 C 51.04 50.43 50.22 47.48 49.54 44.51 C 48.86 46.11 48.19 47.72 47.52 49.32 C 45.48 48.62 43.44 47.91 41.40 47.19 M 63.54 47.04 C 64.46 48.26 65.39 48.26 66.34 47.06 C 67.12 44.72 62.86 44.72 63.54 47.04 M 57.88 64.06 C 58.05 65.46 58.72 65.70 59.88 64.77 C 59.70 63.36 59.03 63.13 57.88 64.06 Z" />
<path fill="#e76010" opacity="1.00" d=" M 44.18 49.47 C 46.06 49.64 48.05 49.38 49.82 50.17 C 50.82 51.57 50.56 53.34 50.65 54.96 C 50.61 60.78 50.60 66.59 50.60 72.40 C 48.46 72.40 46.31 72.40 44.17 72.40 C 44.19 64.76 44.16 57.11 44.18 49.47 Z" />
</g>
</svg>
