<?xml version="1.0" encoding="UTF-8" ?>
<!DOCTYPE svg PUBLIC "-//W3C//DTD SVG 1.1//EN" "http://www.w3.org/Graphics/SVG/1.1/DTD/svg11.dtd">
<svg width="117px" height="140px" viewBox="0 0 117 140" version="1.1" xmlns="http://www.w3.org/2000/svg">
<g id="#181818ff">
<path fill="#181818" opacity="1.00" d=" M 0.00 0.00 L 117.00 0.00 L 117.00 140.00 L 0.00 140.00 L 0.00 0.00 M 54.15 13.99 C 53.82 16.65 54.06 19.33 54.01 21.99 C 53.98 24.70 54.00 27.41 54.00 30.11 C 53.99 32.77 54.01 35.43 54.01 38.10 C 53.99 40.43 54.01 42.77 54.01 45.11 C 54.06 47.59 53.54 50.56 55.50 52.49 C 57.84 54.99 62.59 54.01 63.63 50.70 C 64.27 48.19 63.94 45.57 63.98 43.02 C 63.99 40.62 64.01 38.23 63.99 35.83 C 63.99 33.19 64.01 30.56 63.99 27.92 C 64.01 25.35 64.01 22.79 63.99 20.22 C 63.81 17.15 64.85 13.15 61.96 11.02 C 59.25 8.78 54.71 10.56 54.15 13.99 M 25.51 22.52 C 23.68 25.91 26.33 29.94 29.75 30.91 C 28.74 31.93 27.85 33.05 27.02 34.22 C 24.87 38.25 23.25 42.54 22.46 47.05 C 22.11 49.40 22.05 51.77 21.95 54.14 C 22.17 58.68 23.25 63.13 24.87 67.37 C 26.61 71.37 29.04 75.04 31.97 78.28 C 38.96 85.73 49.10 90.22 59.36 89.92 C 62.93 90.14 66.51 89.42 69.93 88.46 C 72.91 87.32 75.79 85.95 78.65 84.53 L 78.57 83.88 C 80.23 86.67 81.35 90.00 84.29 91.75 L 85.41 91.42 L 84.77 91.80 C 87.44 92.03 90.17 92.24 92.81 91.73 C 96.06 90.59 97.55 87.03 96.98 83.78 C 96.28 80.54 98.75 75.54 95.02 73.76 C 94.57 74.04 93.67 74.59 93.22 74.87 C 92.54 73.64 91.69 72.51 90.10 73.12 C 92.76 68.77 94.65 63.97 95.53 58.95 C 96.22 54.18 96.03 49.34 95.12 44.61 C 94.77 43.34 94.33 42.10 93.73 40.93 C 97.78 39.64 95.37 33.23 91.32 35.15 C 89.56 31.93 87.39 28.87 84.63 26.43 C 83.10 25.61 81.17 27.34 81.87 28.97 C 84.49 32.07 87.15 35.17 88.88 38.88 C 90.20 42.18 91.09 45.60 91.79 49.08 C 92.02 52.35 92.03 55.65 91.48 58.90 C 90.65 63.04 89.10 67.00 86.97 70.64 C 86.49 71.00 85.51 71.73 85.02 72.10 C 85.01 71.50 84.98 70.31 84.97 69.71 C 84.95 67.19 85.13 64.66 84.87 62.15 C 84.12 60.64 82.01 60.64 81.16 62.04 C 80.79 65.33 81.11 68.65 81.01 71.95 C 81.02 74.08 80.96 76.20 80.88 78.32 L 80.19 78.38 C 78.94 76.68 78.47 73.34 75.81 73.46 C 72.29 75.12 76.06 78.54 76.94 80.75 C 73.88 82.58 70.61 84.02 67.21 85.12 C 67.13 84.78 66.97 84.12 66.90 83.79 C 67.59 80.79 64.13 77.87 61.34 79.38 C 58.53 80.51 58.36 84.43 60.52 86.32 C 51.90 85.98 42.97 83.40 36.75 77.16 L 36.50 77.24 C 33.31 74.04 30.61 70.35 28.80 66.20 L 28.64 66.23 C 27.35 63.12 26.87 59.74 26.05 56.55 C 26.03 53.38 26.03 50.20 26.51 47.05 C 27.31 43.40 28.46 39.78 30.47 36.60 C 31.81 33.72 34.27 31.54 35.76 28.85 C 37.64 26.00 37.19 21.67 34.05 19.90 C 31.20 17.78 26.85 19.38 25.51 22.52 Z" />
</g>
<g id="#f8d470ff">
<path fill="#f8d470" opacity="1.00" d=" M 54.15 13.99 C 54.71 10.56 59.25 8.78 61.96 11.02 C 64.85 13.15 63.81 17.15 63.99 20.22 C 60.75 21.21 57.39 21.74 54.01 21.99 C 54.06 19.33 53.82 16.65 54.15 13.99 Z" />
</g>
<g id="#50dc90ff">
<path fill="#50dc90" opacity="1.00" d=" M 25.51 22.52 C 26.85 19.38 31.20 17.78 34.05 19.90 C 37.19 21.67 37.64 26.00 35.76 28.85 C 34.06 30.26 32.00 31.22 29.75 30.91 C 26.33 29.94 23.68 25.91 25.51 22.52 Z" />
</g>
<g id="#f8bc60ff">
<path fill="#f8bc60" opacity="1.00" d=" M 54.01 21.99 C 57.39 21.74 60.75 21.21 63.99 20.22 C 64.01 22.79 64.01 25.35 63.99 27.92 C 60.61 28.40 57.27 29.12 54.00 30.11 C 54.00 27.41 53.98 24.70 54.01 21.99 Z" />
</g>
<g id="#9060f0ff">
<path fill="#9060f0" opacity="1.00" d=" M 81.87 28.97 C 81.17 27.34 83.10 25.61 84.63 26.43 C 87.39 28.87 89.56 31.93 91.32 35.15 C 90.71 36.58 90.10 38.02 89.50 39.46 L 88.88 38.88 C 87.15 35.17 84.49 32.07 81.87 28.97 Z" />
</g>
<g id="#f8ac50ff">
<path fill="#f8ac50" opacity="1.00" d=" M 54.00 30.11 C 57.27 29.12 60.61 28.40 63.99 27.92 C 64.01 30.56 63.99 33.19 63.99 35.83 C 60.67 36.62 57.34 37.35 54.01 38.10 C 54.01 35.43 53.99 32.77 54.00 30.11 Z" />
</g>
<g id="#583898ff">
<path fill="#583898" opacity="1.00" d=" M 29.75 30.91 C 32.00 31.22 34.06 30.26 35.76 28.85 C 34.27 31.54 31.81 33.72 30.47 36.60 C 29.61 35.42 28.48 34.53 27.02 34.22 C 27.85 33.05 28.74 31.93 29.75 30.91 Z" />
</g>
<g id="#7858e8ff">
<path fill="#7858e8" opacity="1.00" d=" M 27.02 34.22 C 28.48 34.53 29.61 35.42 30.47 36.60 C 28.46 39.78 27.31 43.40 26.51 47.05 C 25.50 47.05 23.47 47.05 22.46 47.05 C 23.25 42.54 24.87 38.25 27.02 34.22 Z" />
</g>
<g id="#d860d0ff">
<path fill="#d860d0" opacity="1.00" d=" M 91.32 35.15 C 95.37 33.23 97.78 39.64 93.73 40.93 C 92.21 40.80 90.77 40.30 89.50 39.46 C 90.10 38.02 90.71 36.58 91.32 35.15 Z" />
</g>
<g id="#f89c48ff">
<path fill="#f89c48" opacity="1.00" d=" M 54.01 38.10 C 57.34 37.35 60.67 36.62 63.99 35.83 C 64.01 38.23 63.99 40.62 63.98 43.02 C 60.68 43.82 57.36 44.53 54.01 45.11 C 54.01 42.77 53.99 40.43 54.01 38.10 Z" />
<path fill="#f89c48" opacity="1.00" d=" M 90.10 73.12 C 91.69 72.51 92.54 73.64 93.22 74.87 C 93.67 74.59 94.57 74.04 95.02 73.76 C 98.75 75.54 96.28 80.54 96.98 83.78 C 93.00 86.16 89.85 89.81 85.41 91.42 L 84.29 91.75 C 81.35 90.00 80.23 86.67 78.57 83.88 L 78.28 83.27 C 81.67 79.89 86.06 77.72 89.33 74.22 C 89.53 73.95 89.91 73.39 90.10 73.12 Z" />
</g>
<g id="#513c9dff">
<path fill="#513c9d" opacity="1.00" d=" M 88.88 38.88 L 89.50 39.46 C 90.77 40.30 92.21 40.80 93.73 40.93 C 94.33 42.10 94.77 43.34 95.12 44.61 C 94.00 45.01 92.89 45.42 91.78 45.83 C 91.78 46.64 91.79 48.27 91.79 49.08 C 91.09 45.60 90.20 42.18 88.88 38.88 Z" />
</g>
<g id="#f88438ff">
<path fill="#f88438" opacity="1.00" d=" M 54.01 45.11 C 57.36 44.53 60.68 43.82 63.98 43.02 C 63.94 45.57 64.27 48.19 63.63 50.70 C 62.59 54.01 57.84 54.99 55.50 52.49 C 53.54 50.56 54.06 47.59 54.01 45.11 Z" />
</g>
<g id="#6050e0ff">
<path fill="#6050e0" opacity="1.00" d=" M 91.78 45.83 C 92.89 45.42 94.00 45.01 95.12 44.61 C 96.03 49.34 96.22 54.18 95.53 58.95 C 94.52 58.94 92.49 58.91 91.48 58.90 C 92.03 55.65 92.02 52.35 91.79 49.08 C 91.79 48.27 91.78 46.64 91.78 45.83 Z" />
<path fill="#6050e0" opacity="1.00" d=" M 22.46 47.05 C 23.47 47.05 25.50 47.05 26.51 47.05 C 26.03 50.20 26.03 53.38 26.05 56.55 C 24.62 55.85 23.21 55.11 21.95 54.14 C 22.05 51.77 22.11 49.40 22.46 47.05 Z" />
</g>
<g id="#5048d8ff">
<path fill="#5048d8" opacity="1.00" d=" M 21.95 54.14 C 23.21 55.11 24.62 55.85 26.05 56.55 C 26.87 59.74 27.35 63.12 28.64 66.23 C 27.38 66.61 26.13 66.99 24.87 67.37 C 23.25 63.13 22.17 58.68 21.95 54.14 Z" />
</g>
<g id="#4848d8ff">
<path fill="#4848d8" opacity="1.00" d=" M 91.48 58.90 C 92.49 58.91 94.52 58.94 95.53 58.95 C 94.65 63.97 92.76 68.77 90.10 73.12 C 89.91 73.39 89.53 73.95 89.33 74.22 C 89.09 72.71 88.33 71.40 86.97 70.64 C 89.10 67.00 90.65 63.04 91.48 58.90 Z" />
</g>
<g id="#f8cc70ff">
<path fill="#f8cc70" opacity="1.00" d=" M 81.16 62.04 C 82.01 60.64 84.12 60.64 84.87 62.15 C 85.13 64.66 84.95 67.19 84.97 69.71 C 83.65 70.46 82.33 71.20 81.01 71.95 C 81.11 68.65 80.79 65.33 81.16 62.04 Z" />
</g>
<g id="#3840d0ff">
<path fill="#3840d0" opacity="1.00" d=" M 28.64 66.23 L 28.80 66.20 C 30.61 70.35 33.31 74.04 36.50 77.24 C 34.98 77.53 33.48 77.93 31.97 78.28 C 29.04 75.04 26.61 71.37 24.87 67.37 C 26.13 66.99 27.38 66.61 28.64 66.23 Z" />
</g>
<g id="#f8b458ff">
<path fill="#f8b458" opacity="1.00" d=" M 81.01 71.95 C 82.33 71.20 83.65 70.46 84.97 69.71 C 84.98 70.31 85.01 71.50 85.02 72.10 C 85.51 71.73 86.49 71.00 86.97 70.64 C 88.33 71.40 89.09 72.71 89.33 74.22 C 86.06 77.72 81.67 79.89 78.28 83.27 C 77.84 82.42 77.40 81.58 76.94 80.75 C 76.06 78.54 72.29 75.12 75.81 73.46 C 78.47 73.34 78.94 76.68 80.19 78.38 C 80.36 78.51 80.70 78.79 80.87 78.92 L 80.88 78.32 C 80.96 76.20 81.02 74.08 81.01 71.95 Z" />
</g>
<g id="#2038c0ff">
<path fill="#2038c0" opacity="1.00" d=" M 36.50 77.24 L 36.75 77.16 C 42.97 83.40 51.90 85.98 60.52 86.32 C 60.55 86.32 60.60 86.34 60.63 86.34 C 60.08 87.49 59.66 88.69 59.36 89.92 C 49.10 90.22 38.96 85.73 31.97 78.28 C 33.48 77.93 34.98 77.53 36.50 77.24 Z" />
</g>
<g id="#686098ff">
<path fill="#686098" opacity="1.00" d=" M 80.19 78.38 L 80.88 78.32 L 80.87 78.92 C 80.70 78.79 80.36 78.51 80.19 78.38 Z" />
</g>
<g id="#38bce8ff">
<path fill="#38bce8" opacity="1.00" d=" M 61.34 79.38 C 64.13 77.87 67.59 80.79 66.90 83.79 C 66.11 86.55 63.15 87.61 60.63 86.34 C 60.60 86.34 60.55 86.32 60.52 86.32 C 58.36 84.43 58.53 80.51 61.34 79.38 Z" />
</g>
<g id="#2038c8ff">
<path fill="#2038c8" opacity="1.00" d=" M 67.21 85.12 C 70.61 84.02 73.88 82.58 76.94 80.75 C 77.40 81.58 77.84 82.42 78.28 83.27 L 78.57 83.88 L 78.65 84.53 C 75.79 85.95 72.91 87.32 69.93 88.46 C 69.42 88.26 68.40 87.86 67.89 87.65 C 67.72 87.02 67.38 85.75 67.21 85.12 Z" />
</g>
<g id="#102078ff">
<path fill="#102078" opacity="1.00" d=" M 60.63 86.34 C 63.15 87.61 66.11 86.55 66.90 83.79 C 66.97 84.12 67.13 84.78 67.21 85.12 C 67.38 85.75 67.72 87.02 67.89 87.65 C 68.40 87.86 69.42 88.26 69.93 88.46 C 66.51 89.42 62.93 90.14 59.36 89.92 C 59.66 88.69 60.08 87.49 60.63 86.34 Z" />
</g>
<g id="#f08438ff">
<path fill="#f08438" opacity="1.00" d=" M 85.41 91.42 C 89.85 89.81 93.00 86.16 96.98 83.78 C 97.55 87.03 96.06 90.59 92.81 91.73 C 90.17 92.24 87.44 92.03 84.77 91.80 L 85.41 91.42 Z" />
</g>
</svg>
