<?xml version="1.0" encoding="UTF-8" ?>
<!DOCTYPE svg PUBLIC "-//W3C//DTD SVG 1.1//EN" "http://www.w3.org/Graphics/SVG/1.1/DTD/svg11.dtd">
<svg width="117px" height="140px" viewBox="0 0 117 140" version="1.1" xmlns="http://www.w3.org/2000/svg">
<g id="#000000ff">
<path fill="#000000" opacity="1.00" d=" M 0.00 0.00 L 117.00 0.00 L 117.00 140.00 L 0.00 140.00 L 0.00 0.00 M 33.26 10.37 C 18.05 11.83 5.24 25.68 5.20 41.00 C 5.16 60.32 5.16 79.65 5.20 98.97 C 5.20 114.88 19.05 129.18 34.93 129.75 C 50.97 129.87 67.01 129.88 83.04 129.75 C 98.89 129.21 112.75 114.95 112.79 99.08 C 112.81 79.41 112.90 59.72 112.75 40.05 C 112.28 24.14 97.96 10.26 82.05 10.21 C 65.79 10.25 49.51 9.95 33.26 10.37 Z" />
<path fill="#000000" opacity="1.00" d=" M 30.43 12.58 C 32.91 12.03 35.44 11.76 37.98 11.80 C 53.00 11.92 68.03 11.71 83.05 11.89 C 98.01 12.68 110.90 25.95 111.18 40.94 C 111.14 60.63 111.25 80.32 111.12 100.01 C 110.37 115.01 97.02 127.92 82.00 128.15 C 66.33 128.17 50.65 128.25 34.98 128.11 C 20.00 127.35 7.09 114.04 6.83 99.04 C 6.81 79.70 6.83 60.36 6.82 41.03 C 7.12 27.64 17.31 15.31 30.43 12.58 M 43.32 40.14 C 40.54 42.07 37.88 44.19 35.30 46.38 C 33.02 48.11 33.03 51.93 35.32 53.65 C 37.89 55.82 40.54 57.91 43.29 59.84 C 44.95 61.14 47.04 60.13 48.88 59.97 C 49.65 57.38 50.08 54.71 50.09 52.00 C 52.06 52.00 54.03 52.00 56.00 52.00 C 56.00 51.25 56.00 49.75 56.00 49.00 C 54.01 49.00 52.03 49.00 50.05 49.00 C 50.16 45.96 49.78 42.94 48.88 40.03 C 47.05 39.86 44.98 38.87 43.32 40.14 M 67.99 41.23 C 68.01 47.08 68.00 52.92 67.99 58.77 C 70.50 60.24 73.74 61.53 76.04 58.92 C 79.15 55.84 86.00 53.54 84.00 48.06 C 81.66 44.74 77.87 42.69 74.73 40.17 C 72.53 38.43 70.09 40.37 67.99 41.23 M 57.00 49.00 C 57.00 49.75 57.00 51.25 57.00 52.00 C 57.75 52.00 59.25 52.00 60.00 52.00 C 60.00 51.25 60.00 49.75 60.00 49.00 C 59.25 49.00 57.75 49.00 57.00 49.00 M 61.00 49.00 C 61.00 49.75 61.00 51.25 61.00 52.00 C 63.00 52.00 65.00 52.00 67.00 52.00 C 67.00 51.25 67.00 49.75 67.00 49.00 C 65.00 49.00 63.00 49.00 61.00 49.00 Z" />
<path fill="#000000" opacity="1.00" d=" M 37.01 50.00 C 39.99 47.67 42.99 45.35 45.98 43.03 C 46.01 47.67 46.01 52.32 45.98 56.97 C 42.99 54.65 39.99 52.33 37.01 50.00 Z" />
<path fill="#000000" opacity="1.00" d=" M 72.02 43.03 C 75.02 45.35 78.01 47.67 80.99 50.00 C 78.01 52.33 75.01 54.65 72.02 56.97 C 71.99 52.33 71.99 47.68 72.02 43.03 Z" />
</g>
<g id="#11ea52ff">
<path fill="#11ea52" opacity="1.00" d=" M 33.26 10.37 C 49.51 9.95 65.79 10.25 82.05 10.21 C 97.96 10.26 112.28 24.14 112.75 40.05 C 112.90 59.72 112.81 79.41 112.79 99.08 C 112.75 114.95 98.89 129.21 83.04 129.75 C 67.01 129.88 50.97 129.87 34.93 129.75 C 19.05 129.18 5.20 114.88 5.20 98.97 C 5.16 79.65 5.16 60.32 5.20 41.00 C 5.24 25.68 18.05 11.83 33.26 10.37 M 30.43 12.58 C 17.31 15.31 7.12 27.64 6.82 41.03 C 6.83 60.36 6.81 79.70 6.83 99.04 C 7.09 114.04 20.00 127.35 34.98 128.11 C 50.65 128.25 66.33 128.17 82.00 128.15 C 97.02 127.92 110.37 115.01 111.12 100.01 C 111.25 80.32 111.14 60.63 111.18 40.94 C 110.90 25.95 98.01 12.68 83.05 11.89 C 68.03 11.71 53.00 11.92 37.98 11.80 C 35.44 11.76 32.91 12.03 30.43 12.58 Z" />
<path fill="#11ea52" opacity="1.00" d=" M 43.32 40.14 C 44.98 38.87 47.05 39.86 48.88 40.03 C 49.78 42.94 50.16 45.96 50.05 49.00 C 52.03 49.00 54.01 49.00 56.00 49.00 C 56.00 49.75 56.00 51.25 56.00 52.00 C 54.03 52.00 52.06 52.00 50.09 52.00 C 50.08 54.71 49.65 57.38 48.88 59.97 C 47.04 60.13 44.95 61.14 43.29 59.84 C 40.54 57.91 37.89 55.82 35.32 53.65 C 33.03 51.93 33.02 48.11 35.30 46.38 C 37.88 44.19 40.54 42.07 43.32 40.14 M 37.01 50.00 C 39.99 52.33 42.99 54.65 45.98 56.97 C 46.01 52.32 46.01 47.67 45.98 43.03 C 42.99 45.35 39.99 47.67 37.01 50.00 Z" />
<path fill="#11ea52" opacity="1.00" d=" M 67.99 41.23 C 70.09 40.37 72.53 38.43 74.73 40.17 C 77.87 42.69 81.66 44.74 84.00 48.06 C 86.00 53.54 79.15 55.84 76.04 58.92 C 73.74 61.53 70.50 60.24 67.99 58.77 C 68.00 52.92 68.01 47.08 67.99 41.23 M 72.02 43.03 C 71.99 47.68 71.99 52.33 72.02 56.97 C 75.01 54.65 78.01 52.33 80.99 50.00 C 78.01 47.67 75.02 45.35 72.02 43.03 Z" />
<path fill="#11ea52" opacity="1.00" d=" M 57.00 49.00 C 57.75 49.00 59.25 49.00 60.00 49.00 C 60.00 49.75 60.00 51.25 60.00 52.00 C 59.25 52.00 57.75 52.00 57.00 52.00 C 57.00 51.25 57.00 49.75 57.00 49.00 Z" />
<path fill="#11ea52" opacity="1.00" d=" M 61.00 49.00 C 63.00 49.00 65.00 49.00 67.00 49.00 C 67.00 49.75 67.00 51.25 67.00 52.00 C 65.00 52.00 63.00 52.00 61.00 52.00 C 61.00 51.25 61.00 49.75 61.00 49.00 Z" />
</g>
</svg>
