<?xml version="1.0" encoding="UTF-8" ?>
<!DOCTYPE svg PUBLIC "-//W3C//DTD SVG 1.1//EN" "http://www.w3.org/Graphics/SVG/1.1/DTD/svg11.dtd">
<svg width="117px" height="140px" viewBox="0 0 117 140" version="1.1" xmlns="http://www.w3.org/2000/svg">
<g id="#384450ff">
<path fill="#384450" opacity="1.00" d=" M 0.00 0.00 L 117.00 0.00 L 117.00 140.00 L 0.00 140.00 L 0.00 0.00 M 41.22 53.16 C 38.99 54.29 38.57 57.76 40.55 59.32 C 42.21 61.14 45.34 60.72 46.52 58.58 C 49.12 55.50 44.35 50.64 41.22 53.16 M 56.45 53.53 C 54.29 55.16 54.75 58.64 57.03 59.93 C 60.18 62.20 64.65 57.67 62.38 54.53 C 61.35 52.39 58.09 51.73 56.45 53.53 M 72.41 53.40 C 70.50 54.68 70.11 57.57 71.90 59.14 C 73.89 61.86 78.54 60.02 78.69 56.86 C 79.19 53.70 74.77 51.03 72.41 53.40 Z" />
</g>
<g id="#f8fcf8ff">
<path fill="#f8fcf8" opacity="1.00" d=" M 41.22 53.16 C 44.35 50.64 49.12 55.50 46.52 58.58 C 45.34 60.72 42.21 61.14 40.55 59.32 C 38.57 57.76 38.99 54.29 41.22 53.16 Z" />
<path fill="#f8fcf8" opacity="1.00" d=" M 56.45 53.53 C 58.09 51.73 61.35 52.39 62.38 54.53 C 64.65 57.67 60.18 62.20 57.03 59.93 C 54.75 58.64 54.29 55.16 56.45 53.53 Z" />
<path fill="#f8fcf8" opacity="1.00" d=" M 72.41 53.40 C 74.77 51.03 79.19 53.70 78.69 56.86 C 78.54 60.02 73.89 61.86 71.90 59.14 C 70.11 57.57 70.50 54.68 72.41 53.40 Z" />
</g>
</svg>
