<?xml version="1.0" encoding="UTF-8" ?>
<!DOCTYPE svg PUBLIC "-//W3C//DTD SVG 1.1//EN" "http://www.w3.org/Graphics/SVG/1.1/DTD/svg11.dtd">
<svg width="117px" height="140px" viewBox="0 0 117 140" version="1.1" xmlns="http://www.w3.org/2000/svg">
<g id="#000000ff">
<path fill="#000000" opacity="1.00" d=" M 0.00 0.00 L 117.00 0.00 L 117.00 140.00 L 0.00 140.00 L 0.00 0.00 M 32.43 9.97 L 32.08 10.97 L 31.12 10.33 C 27.04 11.55 22.92 12.84 19.39 15.29 C 10.54 21.04 4.89 31.40 4.99 41.97 C 5.00 58.31 5.01 74.64 4.99 90.98 C 5.01 96.01 4.65 101.15 6.02 106.05 C 7.05 110.47 9.40 114.40 11.94 118.10 C 12.18 118.36 12.67 118.88 12.91 119.14 C 17.68 124.63 24.37 127.93 31.30 129.79 L 32.04 128.79 L 32.42 130.29 L 33.21 129.88 C 49.14 130.16 65.09 129.93 81.02 130.00 C 93.87 130.17 106.20 121.72 110.79 109.74 C 113.85 102.53 112.85 94.58 113.00 86.96 C 112.91 70.73 113.19 54.48 112.87 38.25 C 112.79 37.92 112.62 37.25 112.54 36.92 C 110.58 22.17 96.87 10.19 82.01 10.02 C 65.49 9.94 48.95 10.05 32.43 9.97 Z" />
<path fill="#000000" opacity="1.00" d=" M 7.04 40.94 C 7.19 26.05 20.10 12.77 34.96 12.09 C 50.28 11.90 65.61 12.04 80.94 12.02 C 90.02 11.93 99.00 16.31 104.56 23.47 C 108.70 28.72 111.09 35.34 110.99 42.05 C 110.99 61.04 111.04 80.03 110.95 99.02 C 110.87 114.23 97.33 127.79 82.12 127.94 C 66.75 128.04 51.37 128.02 35.99 127.96 C 20.74 127.84 7.14 114.28 7.04 99.01 C 6.97 79.66 6.98 60.30 7.04 40.94 M 47.59 39.29 C 46.59 41.03 48.60 41.73 49.91 41.96 C 52.24 38.01 56.45 35.85 59.44 32.49 C 63.58 34.79 66.90 38.31 69.76 42.03 C 70.93 41.57 72.11 41.00 72.88 39.96 C 71.33 38.86 69.79 37.73 68.41 36.41 C 68.52 34.00 68.53 31.59 68.50 29.18 C 67.14 29.11 65.78 29.07 64.41 29.05 C 64.40 30.07 64.38 32.11 64.37 33.13 C 62.52 32.16 61.37 28.57 59.17 29.19 C 55.48 32.74 51.62 36.11 47.59 39.29 M 50.58 42.03 C 50.40 44.47 50.51 46.91 50.53 49.35 C 52.93 49.38 55.34 49.39 57.74 49.39 C 57.87 47.48 57.82 45.53 58.30 43.67 C 59.40 43.60 60.49 43.56 61.59 43.55 C 61.61 45.49 61.62 47.43 61.64 49.37 C 63.89 49.38 66.14 49.39 68.39 49.39 C 68.53 46.84 68.53 44.30 68.53 41.75 C 65.79 38.99 62.24 37.14 59.89 33.99 C 56.67 36.52 53.42 39.07 50.58 42.03 M 33.85 52.92 C 34.78 53.79 35.74 54.63 36.67 55.50 C 36.98 55.64 37.60 55.93 37.92 56.07 L 37.76 57.05 L 38.74 56.76 C 40.45 58.79 42.56 60.42 44.64 62.03 C 43.83 59.35 42.96 56.70 42.15 54.02 C 46.40 53.18 50.70 54.24 54.99 53.63 C 62.28 54.15 69.60 53.28 76.84 54.00 C 76.04 56.68 75.16 59.34 74.36 62.02 C 78.03 59.09 81.59 56.01 85.18 52.98 C 81.58 49.97 78.01 46.92 74.36 43.97 C 75.15 46.66 76.03 49.31 76.88 51.98 C 72.91 52.84 68.89 51.76 64.89 52.33 C 57.31 51.94 49.67 52.70 42.13 51.99 C 42.96 49.31 43.85 46.66 44.62 43.97 C 40.99 46.91 37.47 49.98 33.85 52.92 M 50.92 57.20 C 50.91 57.73 50.90 58.79 50.89 59.32 C 54.92 59.33 58.96 59.29 62.99 59.37 C 60.81 61.83 58.47 64.14 56.39 66.69 C 54.17 69.44 50.38 71.57 50.32 75.47 C 56.32 75.49 62.32 75.48 68.31 75.49 C 68.30 74.89 68.29 73.69 68.28 73.09 C 63.95 73.12 59.62 73.20 55.31 72.82 C 58.24 69.88 60.98 66.77 63.78 63.71 C 65.52 61.77 67.67 59.98 68.23 57.30 C 62.46 57.09 56.69 57.24 50.92 57.20 Z" />
</g>
<g id="#6a6d6aff">
<path fill="#6a6d6a" opacity="1.00" d=" M 32.43 9.97 C 48.95 10.05 65.49 9.94 82.01 10.02 C 96.87 10.19 110.58 22.17 112.54 36.92 C 112.62 37.25 112.79 37.92 112.87 38.25 C 113.19 54.48 112.91 70.73 113.00 86.96 C 112.85 94.58 113.85 102.53 110.79 109.74 C 106.20 121.72 93.87 130.17 81.02 130.00 C 65.09 129.93 49.14 130.16 33.21 129.88 L 32.42 130.29 L 32.04 128.79 L 31.30 129.79 C 24.37 127.93 17.68 124.63 12.91 119.14 C 12.67 118.88 12.18 118.36 11.94 118.10 C 9.40 114.40 7.05 110.47 6.02 106.05 C 4.65 101.15 5.01 96.01 4.99 90.98 C 5.01 74.64 5.00 58.31 4.99 41.97 C 4.89 31.40 10.54 21.04 19.39 15.29 C 22.92 12.84 27.04 11.55 31.12 10.33 L 32.08 10.97 L 32.43 9.97 M 7.04 40.94 C 6.98 60.30 6.97 79.66 7.04 99.01 C 7.14 114.28 20.74 127.84 35.99 127.96 C 51.37 128.02 66.75 128.04 82.12 127.94 C 97.33 127.79 110.87 114.23 110.95 99.02 C 111.04 80.03 110.99 61.04 110.99 42.05 C 111.09 35.34 108.70 28.72 104.56 23.47 C 99.00 16.31 90.02 11.93 80.94 12.02 C 65.61 12.04 50.28 11.90 34.96 12.09 C 20.10 12.77 7.19 26.05 7.04 40.94 Z" />
</g>
<g id="#f8fcf8ff">
<path fill="#f8fcf8" opacity="1.00" d=" M 47.59 39.29 C 51.62 36.11 55.48 32.74 59.17 29.19 C 61.37 28.57 62.52 32.16 64.37 33.13 C 64.38 32.11 64.40 30.07 64.41 29.05 C 65.78 29.07 67.14 29.11 68.50 29.18 C 68.53 31.59 68.52 34.00 68.41 36.41 C 69.79 37.73 71.33 38.86 72.88 39.96 C 72.11 41.00 70.93 41.57 69.76 42.03 C 66.90 38.31 63.58 34.79 59.44 32.49 C 56.45 35.85 52.24 38.01 49.91 41.96 C 48.60 41.73 46.59 41.03 47.59 39.29 Z" />
<path fill="#f8fcf8" opacity="1.00" d=" M 50.58 42.03 C 53.42 39.07 56.67 36.52 59.89 33.99 C 62.24 37.14 65.79 38.99 68.53 41.75 C 68.53 44.30 68.53 46.84 68.39 49.39 C 66.14 49.39 63.89 49.38 61.64 49.37 C 61.62 47.43 61.61 45.49 61.59 43.55 C 60.49 43.56 59.40 43.60 58.30 43.67 C 57.82 45.53 57.87 47.48 57.74 49.39 C 55.34 49.39 52.93 49.38 50.53 49.35 C 50.51 46.91 50.40 44.47 50.58 42.03 Z" />
<path fill="#f8fcf8" opacity="1.00" d=" M 33.85 52.92 C 37.47 49.98 40.99 46.91 44.62 43.97 C 43.85 46.66 42.96 49.31 42.13 51.99 C 49.67 52.70 57.31 51.94 64.89 52.33 C 68.89 51.76 72.91 52.84 76.88 51.98 C 76.03 49.31 75.15 46.66 74.36 43.97 C 78.01 46.92 81.58 49.97 85.18 52.98 C 81.59 56.01 78.03 59.09 74.36 62.02 C 75.16 59.34 76.04 56.68 76.84 54.00 C 69.60 53.28 62.28 54.15 54.99 53.63 C 50.70 54.24 46.40 53.18 42.15 54.02 C 42.96 56.70 43.83 59.35 44.64 62.03 C 42.56 60.42 40.45 58.79 38.74 56.76 L 37.76 57.05 L 37.92 56.07 C 37.60 55.93 36.98 55.64 36.67 55.50 C 35.74 54.63 34.78 53.79 33.85 52.92 Z" />
<path fill="#f8fcf8" opacity="1.00" d=" M 50.92 57.20 C 56.69 57.24 62.46 57.09 68.23 57.30 C 67.67 59.98 65.52 61.77 63.78 63.71 C 60.98 66.77 58.24 69.88 55.31 72.82 C 59.62 73.20 63.95 73.12 68.28 73.09 C 68.29 73.69 68.30 74.89 68.31 75.49 C 62.32 75.48 56.32 75.49 50.32 75.47 C 50.38 71.57 54.17 69.44 56.39 66.69 C 58.47 64.14 60.81 61.83 62.99 59.37 C 58.96 59.29 54.92 59.33 50.89 59.32 C 50.90 58.79 50.91 57.73 50.92 57.20 Z" />
</g>
</svg>
