<?xml version="1.0" encoding="UTF-8" ?>
<!DOCTYPE svg PUBLIC "-//W3C//DTD SVG 1.1//EN" "http://www.w3.org/Graphics/SVG/1.1/DTD/svg11.dtd">
<svg width="117px" height="140px" viewBox="0 0 117 140" version="1.1" xmlns="http://www.w3.org/2000/svg">
<g id="#000000ff">
<path fill="#000000" opacity="1.00" d=" M 0.00 0.00 L 117.00 0.00 L 117.00 140.00 L 0.00 140.00 L 0.00 0.00 M 33.20 10.23 C 17.96 11.77 5.25 25.57 5.03 40.89 C 4.98 60.26 4.99 79.63 5.02 99.00 C 5.17 114.95 18.95 129.22 34.89 129.92 C 50.25 130.11 65.63 129.95 80.99 129.99 C 93.59 130.16 105.69 122.05 110.48 110.43 C 113.75 103.39 112.91 95.49 113.00 87.96 C 112.94 71.95 113.12 55.94 112.92 39.93 C 112.26 23.99 98.01 10.21 82.07 10.03 C 65.78 10.10 49.47 9.72 33.20 10.23 Z" />
<path fill="#000000" opacity="1.00" d=" M 30.45 12.69 C 34.23 11.84 38.12 12.00 41.96 12.00 C 55.68 12.06 69.41 11.88 83.12 12.09 C 97.96 12.77 110.86 26.08 110.96 40.95 C 111.02 60.32 111.03 79.68 110.96 99.05 C 110.89 114.67 96.65 128.40 81.04 127.98 C 65.67 127.97 50.30 128.10 34.94 127.92 C 20.07 127.27 7.13 113.92 7.03 99.02 C 6.98 79.67 6.98 60.32 7.03 40.97 C 7.19 27.65 17.46 15.43 30.45 12.69 M 49.80 28.02 C 49.87 37.60 49.82 47.18 49.84 56.76 C 43.63 61.32 42.63 71.34 48.24 76.75 C 53.03 82.12 62.51 81.54 66.70 75.69 C 71.52 70.05 69.93 61.12 64.16 56.76 C 64.18 47.18 64.13 37.60 64.19 28.02 C 59.47 27.26 54.52 27.26 49.80 28.02 M 68.38 51.01 C 67.99 51.50 67.20 52.50 66.80 53.00 C 67.18 53.48 67.94 54.43 68.32 54.91 C 70.24 54.79 73.16 55.60 73.63 52.96 C 73.15 50.36 70.28 51.15 68.38 51.01 Z" />
<path fill="#000000" opacity="1.00" d=" M 53.37 31.22 C 55.78 31.27 58.20 31.28 60.62 31.21 C 60.14 40.36 60.59 49.53 60.37 58.69 C 66.58 61.60 67.78 71.23 62.02 75.15 C 57.60 78.44 50.37 76.29 48.84 70.90 C 46.94 66.32 49.35 60.93 53.63 58.68 C 53.40 49.53 53.87 40.36 53.37 31.22 M 55.15 51.15 C 54.95 54.10 55.25 57.07 55.08 60.03 C 52.78 61.79 49.72 63.65 49.84 66.97 C 49.26 71.86 54.92 76.72 59.61 74.50 C 62.22 72.95 64.68 70.23 64.17 66.95 C 64.29 63.60 61.14 61.81 58.91 59.96 C 58.76 57.02 59.04 54.08 58.85 51.15 C 57.62 50.17 56.38 50.17 55.15 51.15 Z" />
</g>
<g id="#747474ff">
<path fill="#747474" opacity="1.00" d=" M 33.20 10.23 C 49.47 9.72 65.78 10.10 82.07 10.03 C 98.01 10.21 112.26 23.99 112.92 39.93 C 113.12 55.94 112.94 71.95 113.00 87.96 C 112.91 95.49 113.75 103.39 110.48 110.43 C 105.69 122.05 93.59 130.16 80.99 129.99 C 65.63 129.95 50.25 130.11 34.89 129.92 C 18.95 129.22 5.17 114.95 5.02 99.00 C 4.99 79.63 4.98 60.26 5.03 40.89 C 5.25 25.57 17.96 11.77 33.20 10.23 M 30.45 12.69 C 17.46 15.43 7.19 27.65 7.03 40.97 C 6.98 60.32 6.98 79.67 7.03 99.02 C 7.13 113.92 20.07 127.27 34.94 127.92 C 50.30 128.10 65.67 127.97 81.04 127.98 C 96.65 128.40 110.89 114.67 110.96 99.05 C 111.03 79.68 111.02 60.32 110.96 40.95 C 110.86 26.08 97.96 12.77 83.12 12.09 C 69.41 11.88 55.68 12.06 41.96 12.00 C 38.12 12.00 34.23 11.84 30.45 12.69 Z" />
</g>
<g id="#f8fcf8ff">
<path fill="#f8fcf8" opacity="1.00" d=" M 49.80 28.02 C 54.52 27.26 59.47 27.26 64.19 28.02 C 64.13 37.60 64.18 47.18 64.16 56.76 C 69.93 61.12 71.52 70.05 66.70 75.69 C 62.51 81.54 53.03 82.12 48.24 76.75 C 42.63 71.34 43.63 61.32 49.84 56.76 C 49.82 47.18 49.87 37.60 49.80 28.02 M 53.37 31.22 C 53.87 40.36 53.40 49.53 53.63 58.68 C 49.35 60.93 46.94 66.32 48.84 70.90 C 50.37 76.29 57.60 78.44 62.02 75.15 C 67.78 71.23 66.58 61.60 60.37 58.69 C 60.59 49.53 60.14 40.36 60.62 31.21 C 58.20 31.28 55.78 31.27 53.37 31.22 Z" />
<path fill="#f8fcf8" opacity="1.00" d=" M 55.15 51.15 C 56.38 50.17 57.62 50.17 58.85 51.15 C 59.04 54.08 58.76 57.02 58.91 59.96 C 61.14 61.81 64.29 63.60 64.17 66.95 C 64.68 70.23 62.22 72.95 59.61 74.50 C 54.92 76.72 49.26 71.86 49.84 66.97 C 49.72 63.65 52.78 61.79 55.08 60.03 C 55.25 57.07 54.95 54.10 55.15 51.15 Z" />
<path fill="#f8fcf8" opacity="1.00" d=" M 68.38 51.01 C 70.28 51.15 73.15 50.36 73.63 52.96 C 73.16 55.60 70.24 54.79 68.32 54.91 C 67.94 54.43 67.18 53.48 66.80 53.00 C 67.20 52.50 67.99 51.50 68.38 51.01 Z" />
</g>
</svg>
