<?xml version="1.0" encoding="UTF-8" ?>
<!DOCTYPE svg PUBLIC "-//W3C//DTD SVG 1.1//EN" "http://www.w3.org/Graphics/SVG/1.1/DTD/svg11.dtd">
<svg width="117px" height="140px" viewBox="0 0 117 140" version="1.1" xmlns="http://www.w3.org/2000/svg">
<g id="#000000ff">
<path fill="#000000" opacity="1.00" d=" M 0.00 0.00 L 117.00 0.00 L 117.00 140.00 L 0.00 140.00 L 0.00 0.00 M 33.17 10.23 C 17.93 11.79 5.20 25.62 5.02 40.97 C 4.98 60.31 4.99 79.66 5.02 99.00 C 5.16 114.95 18.94 129.22 34.88 129.92 C 50.58 130.09 66.30 129.99 82.01 129.96 C 97.98 129.85 112.28 115.99 112.92 100.04 C 113.10 80.68 112.95 61.31 113.00 41.94 C 113.05 32.85 108.91 23.87 102.04 17.92 C 95.81 12.36 87.34 9.63 79.04 9.98 C 63.75 10.18 48.44 9.68 33.17 10.23 Z" />
<path fill="#000000" opacity="1.00" d=" M 33.29 12.33 C 48.52 11.72 63.79 12.25 79.04 12.06 C 85.39 11.88 91.87 13.29 97.19 16.87 C 105.64 22.17 111.03 32.02 110.91 42.00 C 110.95 60.69 110.95 79.38 110.90 98.07 C 111.02 108.77 104.78 119.26 95.31 124.25 C 90.39 127.08 84.64 128.05 79.03 127.94 C 64.34 127.85 49.65 128.08 34.96 127.82 C 20.15 127.19 7.27 113.94 7.13 99.10 C 7.03 79.72 7.03 60.35 7.12 40.97 C 7.28 26.72 19.11 13.77 33.29 12.33 M 60.35 28.75 C 60.07 33.08 60.20 37.42 60.31 41.76 C 55.34 42.03 50.99 45.59 49.84 50.44 C 45.92 50.54 42.00 50.33 38.08 50.48 C 37.07 50.48 36.50 50.99 36.36 52.02 C 35.34 64.99 48.40 78.19 61.61 74.52 C 61.55 70.54 61.59 66.55 61.57 62.56 C 67.02 61.87 70.74 57.11 71.39 51.87 C 75.71 51.69 80.04 51.92 84.35 51.62 C 79.99 50.77 75.51 51.39 71.10 51.36 C 70.40 46.13 65.97 42.33 60.87 41.62 C 60.55 37.33 61.27 32.97 60.35 28.75 Z" />
<path fill="#000000" opacity="1.00" d=" M 52.94 45.95 C 56.92 42.24 63.25 41.87 67.37 45.55 C 69.71 48.38 70.77 52.36 69.24 55.83 C 66.91 61.93 57.67 63.47 53.45 58.51 C 49.98 55.24 50.33 49.64 52.94 45.95 Z" />
</g>
<g id="#737473ff">
<path fill="#737473" opacity="1.00" d=" M 33.17 10.23 C 48.44 9.68 63.75 10.18 79.04 9.98 C 87.34 9.63 95.81 12.36 102.04 17.92 C 108.91 23.87 113.05 32.85 113.00 41.94 C 112.95 61.31 113.10 80.68 112.92 100.04 C 112.28 115.99 97.98 129.85 82.01 129.96 C 66.30 129.99 50.58 130.09 34.88 129.92 C 18.94 129.22 5.16 114.95 5.02 99.00 C 4.99 79.66 4.98 60.31 5.02 40.97 C 5.20 25.62 17.93 11.79 33.17 10.23 M 33.29 12.33 C 19.11 13.77 7.28 26.72 7.12 40.97 C 7.03 60.35 7.03 79.72 7.13 99.10 C 7.27 113.94 20.15 127.19 34.96 127.82 C 49.65 128.08 64.34 127.85 79.03 127.94 C 84.64 128.05 90.39 127.08 95.31 124.25 C 104.78 119.26 111.02 108.77 110.90 98.07 C 110.95 79.38 110.95 60.69 110.91 42.00 C 111.03 32.02 105.64 22.17 97.19 16.87 C 91.87 13.29 85.39 11.88 79.04 12.06 C 63.79 12.25 48.52 11.72 33.29 12.33 Z" />
</g>
<g id="#f8fcf8ff">
<path fill="#f8fcf8" opacity="1.00" d=" M 60.35 28.75 C 61.27 32.97 60.55 37.33 60.87 41.62 C 65.97 42.33 70.40 46.13 71.10 51.36 C 75.51 51.39 79.99 50.77 84.35 51.62 C 80.04 51.92 75.71 51.69 71.39 51.87 C 70.74 57.11 67.02 61.87 61.57 62.56 C 61.59 66.55 61.55 70.54 61.61 74.52 C 48.40 78.19 35.34 64.99 36.36 52.02 C 36.50 50.99 37.07 50.48 38.08 50.48 C 42.00 50.33 45.92 50.54 49.84 50.44 C 50.99 45.59 55.34 42.03 60.31 41.76 C 60.20 37.42 60.07 33.08 60.35 28.75 M 52.94 45.95 C 50.33 49.64 49.98 55.24 53.45 58.51 C 57.67 63.47 66.91 61.93 69.24 55.83 C 70.77 52.36 69.71 48.38 67.37 45.55 C 63.25 41.87 56.92 42.24 52.94 45.95 Z" />
</g>
</svg>
