<?xml version="1.0" encoding="UTF-8" ?>
<!DOCTYPE svg PUBLIC "-//W3C//DTD SVG 1.1//EN" "http://www.w3.org/Graphics/SVG/1.1/DTD/svg11.dtd">
<svg width="117px" height="140px" viewBox="0 0 117 140" version="1.1" xmlns="http://www.w3.org/2000/svg">
<g id="#000000ff">
<path fill="#000000" opacity="1.00" d=" M 0.00 0.00 L 117.00 0.00 L 117.00 140.00 L 0.00 140.00 L 0.00 0.00 M 44.69 32.22 C 44.10 37.87 45.32 43.49 48.54 48.20 C 47.89 48.36 46.59 48.68 45.94 48.84 C 45.62 49.33 44.99 50.30 44.67 50.79 C 43.82 58.11 48.63 64.04 51.48 70.32 C 53.47 74.03 55.05 79.39 60.02 79.82 C 65.51 80.41 67.82 74.56 69.75 70.53 C 72.48 64.25 77.37 58.33 76.67 51.10 C 76.33 49.24 74.52 48.41 72.84 48.14 C 75.79 43.37 77.22 37.88 76.73 32.26 C 66.09 31.41 55.35 31.68 44.69 32.22 Z" />
<path fill="#000000" opacity="1.00" d=" M 47.63 35.11 C 56.35 35.20 65.09 35.04 73.81 35.20 C 74.06 41.17 70.35 46.11 67.90 51.24 C 69.87 51.24 71.84 51.24 73.81 51.25 C 73.73 53.92 73.53 56.68 72.21 59.08 C 69.45 64.38 66.99 69.85 64.04 75.04 C 62.55 77.55 58.49 77.50 57.19 74.84 C 54.29 69.64 51.75 64.24 49.01 58.96 C 47.70 56.61 47.63 53.89 47.62 51.28 C 49.54 51.28 51.46 51.28 53.38 51.27 C 50.93 46.12 46.97 41.16 47.63 35.11 Z" />
</g>
<g id="#f7fbf7ff">
<path fill="#f7fbf7" opacity="1.00" d=" M 44.69 32.22 C 55.35 31.68 66.09 31.41 76.73 32.26 C 77.22 37.88 75.79 43.37 72.84 48.14 C 74.52 48.41 76.33 49.24 76.67 51.10 C 77.37 58.33 72.48 64.25 69.75 70.53 C 67.82 74.56 65.51 80.41 60.02 79.82 C 55.05 79.39 53.47 74.03 51.48 70.32 C 48.63 64.04 43.82 58.11 44.67 50.79 C 44.99 50.30 45.62 49.33 45.94 48.84 C 46.59 48.68 47.89 48.36 48.54 48.20 C 45.32 43.49 44.10 37.87 44.69 32.22 M 47.63 35.11 C 46.97 41.16 50.93 46.12 53.38 51.27 C 51.46 51.28 49.54 51.28 47.62 51.28 C 47.63 53.89 47.70 56.61 49.01 58.96 C 51.75 64.24 54.29 69.64 57.19 74.84 C 58.49 77.50 62.55 77.55 64.04 75.04 C 66.99 69.85 69.45 64.38 72.21 59.08 C 73.53 56.68 73.73 53.92 73.81 51.25 C 71.84 51.24 69.87 51.24 67.90 51.24 C 70.35 46.11 74.06 41.17 73.81 35.20 C 65.09 35.04 56.35 35.20 47.63 35.11 Z" />
</g>
</svg>
