<?xml version="1.0" encoding="UTF-8" ?>
<!DOCTYPE svg PUBLIC "-//W3C//DTD SVG 1.1//EN" "http://www.w3.org/Graphics/SVG/1.1/DTD/svg11.dtd">
<svg width="117px" height="140px" viewBox="0 0 117 140" version="1.1" xmlns="http://www.w3.org/2000/svg">
<g id="#000000ff">
<path fill="#000000" opacity="1.00" d=" M 0.00 0.00 L 117.00 0.00 L 117.00 140.00 L 0.00 140.00 L 0.00 0.00 M 24.52 12.71 L 24.54 13.77 C 24.06 13.62 23.11 13.32 22.63 13.16 L 22.61 14.67 C 22.15 14.58 21.21 14.40 20.75 14.31 L 20.50 15.16 C 19.19 15.93 17.93 16.79 16.69 17.67 C 15.83 18.51 14.98 19.34 14.04 20.09 C 13.87 20.51 13.54 21.34 13.37 21.75 L 12.78 21.40 C 11.91 22.77 10.99 24.10 10.17 25.51 L 9.33 25.73 C 9.40 26.22 9.55 27.18 9.62 27.67 L 8.18 27.58 C 8.32 28.09 8.62 29.11 8.76 29.62 L 7.45 29.46 C 7.46 30.31 7.47 32.02 7.47 32.87 L 6.42 32.28 C 6.43 33.81 6.44 35.34 6.47 36.87 L 5.57 36.29 C 5.26 58.71 5.29 81.16 5.56 103.58 C 5.77 103.50 6.21 103.35 6.42 103.27 C 6.24 105.80 6.41 108.33 7.76 110.55 L 8.83 110.44 C 8.66 110.91 8.31 111.84 8.14 112.31 L 9.83 112.54 L 9.21 114.12 C 9.45 114.22 9.93 114.42 10.17 114.53 C 10.93 115.82 11.81 117.05 12.67 118.29 C 13.47 119.16 14.27 120.05 15.11 120.89 C 15.52 121.10 16.34 121.51 16.76 121.71 L 16.47 122.13 C 18.05 123.26 19.59 124.42 21.13 125.60 C 21.51 125.53 22.27 125.40 22.66 125.34 L 22.53 126.80 C 23.04 126.66 24.07 126.39 24.59 126.25 L 24.46 127.26 C 28.55 128.44 32.69 129.80 37.00 129.62 C 53.26 129.57 69.52 129.70 85.77 129.53 L 85.20 128.63 C 88.05 128.86 90.83 128.24 93.50 127.28 L 93.42 126.25 C 93.93 126.39 94.93 126.68 95.44 126.83 L 95.30 125.37 C 95.79 125.45 96.76 125.60 97.25 125.68 L 97.47 124.84 C 98.88 124.01 100.24 123.10 101.61 122.22 L 101.30 121.15 L 102.68 121.83 L 102.30 120.25 L 103.62 120.84 L 103.42 119.41 L 104.90 119.46 L 104.14 118.31 L 105.22 118.59 C 106.10 117.21 107.04 115.87 107.86 114.45 L 108.67 114.26 C 108.59 113.76 108.43 112.76 108.35 112.27 L 109.75 112.56 C 109.64 112.02 109.42 110.94 109.32 110.40 L 110.30 110.50 C 111.05 108.15 111.75 105.77 111.67 103.27 C 111.86 103.37 112.24 103.57 112.43 103.66 C 112.84 83.45 112.50 63.23 112.62 43.02 C 112.84 39.18 111.85 35.48 111.20 31.74 L 110.57 33.53 C 110.56 32.52 110.55 30.51 110.54 29.51 L 109.25 29.57 C 109.39 29.05 109.67 28.03 109.82 27.52 L 108.32 27.68 C 108.42 27.20 108.61 26.24 108.71 25.76 L 107.89 25.52 C 107.13 24.24 106.24 23.05 105.28 21.91 C 105.04 21.50 104.54 20.69 104.29 20.28 L 103.25 20.71 L 103.83 19.35 L 102.41 19.61 L 102.48 18.11 L 101.34 18.86 L 101.58 17.83 C 99.64 16.38 97.62 15.04 95.39 14.08 L 95.37 13.17 C 94.88 13.32 93.90 13.62 93.41 13.77 L 93.53 12.46 C 92.68 12.46 90.97 12.47 90.12 12.47 L 90.77 11.54 C 89.43 11.46 88.09 11.38 86.76 11.28 C 84.96 10.47 82.98 10.36 81.04 10.38 C 66.33 10.40 51.62 10.38 36.91 10.39 C 32.66 10.25 28.58 11.61 24.52 12.71 Z" />
<path fill="#000000" opacity="1.00" d=" M 32.24 11.53 C 50.08 11.66 67.92 11.67 85.75 11.53 C 85.67 11.69 85.50 12.02 85.41 12.18 C 87.84 12.42 90.19 13.02 92.54 13.63 C 92.59 13.88 92.68 14.40 92.72 14.65 L 93.95 14.40 C 94.61 14.76 95.92 15.46 96.57 15.81 L 96.60 16.67 C 97.14 16.58 98.22 16.40 98.76 16.31 L 98.12 17.87 L 99.59 17.13 L 99.53 17.99 C 101.59 19.56 103.43 21.40 105.01 23.46 L 105.87 23.39 L 105.09 24.80 L 106.68 24.28 C 106.59 24.81 106.41 25.86 106.33 26.39 L 107.19 26.43 C 107.54 27.09 108.25 28.40 108.60 29.06 L 108.32 30.28 C 108.58 30.32 109.10 30.38 109.36 30.42 C 109.84 32.52 110.43 34.60 110.78 36.74 L 111.46 36.14 C 111.28 57.46 111.46 78.79 111.38 100.11 C 111.27 102.72 110.36 105.22 110.25 107.85 L 109.06 107.40 C 109.27 107.91 109.67 108.92 109.88 109.42 L 108.43 109.60 C 108.49 110.08 108.62 111.04 108.69 111.53 L 107.43 111.70 C 107.50 112.16 107.63 113.09 107.70 113.56 L 106.32 113.58 C 106.42 114.11 106.62 115.17 106.72 115.70 L 105.18 115.18 L 105.82 116.63 L 105.00 116.56 C 103.42 118.61 101.58 120.45 99.52 122.02 L 99.59 122.87 L 98.07 122.16 L 98.77 123.71 C 98.24 123.61 97.16 123.42 96.62 123.32 L 96.58 124.23 C 95.95 124.55 94.68 125.19 94.04 125.51 C 93.67 125.51 92.94 125.50 92.57 125.50 L 92.41 126.92 C 91.92 126.68 90.94 126.21 90.45 125.97 L 90.83 127.32 C 89.15 127.44 87.48 127.58 85.81 127.79 C 83.31 128.69 80.61 128.33 78.02 128.40 C 62.39 128.41 46.76 128.31 31.14 128.45 L 31.77 127.49 C 30.25 127.47 28.72 127.45 27.19 127.45 L 27.62 126.11 C 27.10 126.29 26.05 126.64 25.53 126.82 L 25.40 125.44 C 25.03 125.48 24.29 125.56 23.92 125.60 C 23.06 125.03 22.18 124.48 21.28 123.97 C 20.35 123.36 19.40 122.78 18.44 122.22 L 18.43 121.93 C 16.31 120.45 14.49 118.58 13.03 116.45 L 12.09 116.64 L 12.89 115.17 L 11.31 115.73 C 11.40 115.20 11.58 114.14 11.66 113.61 L 10.20 113.47 L 10.65 111.78 C 10.29 111.68 9.55 111.48 9.18 111.39 L 9.70 109.76 C 9.29 109.64 8.46 109.40 8.04 109.28 L 9.12 106.64 C 8.75 106.87 8.01 107.35 7.63 107.58 C 7.56 106.27 7.40 103.65 7.32 102.34 L 6.52 102.81 C 6.68 80.93 6.68 59.03 6.51 37.15 L 7.15 37.66 C 7.42 35.18 8.02 32.77 8.65 30.36 L 9.63 30.37 C 9.54 29.90 9.38 28.96 9.29 28.48 L 10.59 28.33 C 10.51 27.86 10.36 26.92 10.28 26.46 L 11.68 26.41 C 11.57 25.84 11.36 24.69 11.25 24.12 L 12.67 25.24 L 12.19 23.45 L 13.01 23.47 C 14.58 21.40 16.41 19.55 18.47 17.98 L 18.36 17.10 L 19.79 17.93 L 19.28 16.32 C 19.80 16.41 20.86 16.58 21.38 16.67 L 21.53 15.19 L 23.19 15.65 C 23.26 15.44 23.42 15.01 23.49 14.80 C 24.15 14.43 25.46 13.69 26.12 13.33 C 26.47 13.51 27.19 13.88 27.54 14.06 L 27.17 12.60 C 28.98 12.53 30.79 12.46 32.60 12.38 C 32.51 12.16 32.33 11.74 32.24 11.53 M 56.96 28.94 C 49.26 36.64 41.61 44.39 33.89 52.08 C 34.14 52.98 34.40 53.88 34.66 54.78 C 38.04 54.43 42.41 55.99 44.84 52.83 C 49.54 48.07 54.26 43.33 59.00 38.61 C 63.75 43.32 68.43 48.12 73.17 52.85 C 75.61 55.99 79.96 54.44 83.34 54.77 C 83.59 53.88 83.84 53.00 84.10 52.11 C 76.44 44.40 68.75 36.72 61.09 29.01 C 60.15 27.61 57.94 27.55 56.96 28.94 M 57.18 43.01 C 52.60 47.85 47.56 52.31 43.41 57.51 C 42.73 62.61 43.32 67.84 43.10 72.99 C 43.19 74.47 42.70 76.95 44.72 77.33 C 48.49 77.62 52.40 77.85 56.13 77.11 C 57.01 73.42 56.40 69.57 56.54 65.82 C 58.41 65.84 60.28 65.85 62.15 65.85 C 62.17 69.21 61.95 72.59 62.24 75.95 C 63.38 78.48 66.83 77.21 69.00 77.56 C 71.04 77.46 75.06 78.18 74.84 74.98 C 74.77 69.19 75.21 63.32 74.61 57.57 C 70.63 52.48 65.67 48.21 61.28 43.47 C 60.35 42.13 58.27 41.55 57.18 43.01 Z" />
<path fill="#000000" opacity="1.00" d=" M 38.19 51.85 C 45.26 45.07 52.04 38.01 58.99 31.11 C 65.95 37.99 72.68 45.11 79.80 51.83 C 78.67 51.81 77.55 51.80 76.43 51.79 C 71.24 46.52 66.05 41.25 60.75 36.09 C 59.68 34.65 57.71 35.24 56.77 36.48 C 51.71 41.58 46.60 46.63 41.59 51.78 C 40.74 51.80 39.04 51.83 38.19 51.85 Z" />
<path fill="#000000" opacity="1.00" d=" M 46.18 58.54 C 50.54 54.28 54.73 49.84 58.99 45.48 C 62.69 49.30 66.40 53.13 70.16 56.90 C 70.89 57.77 72.12 58.54 71.85 59.87 C 71.94 64.75 71.81 69.63 71.88 74.51 C 69.63 74.48 67.37 74.48 65.11 74.51 C 65.14 70.75 65.29 66.96 64.79 63.22 C 61.31 62.83 57.70 62.42 54.25 63.23 C 52.90 66.84 53.72 70.81 53.64 74.58 C 51.14 74.47 48.63 74.47 46.12 74.51 C 46.17 69.18 46.09 63.86 46.18 58.54 Z" />
</g>
<g id="#f5f9f6ff">
<path fill="#f5f9f6" opacity="1.00" d=" M 24.52 12.71 C 28.58 11.61 32.66 10.25 36.91 10.39 C 51.62 10.38 66.33 10.40 81.04 10.38 C 82.98 10.36 84.96 10.47 86.76 11.28 C 88.09 11.38 89.43 11.46 90.77 11.54 L 90.12 12.47 C 90.97 12.47 92.68 12.46 93.53 12.46 L 93.41 13.77 C 93.90 13.62 94.88 13.32 95.37 13.17 L 95.39 14.08 C 97.62 15.04 99.64 16.38 101.58 17.83 L 101.34 18.86 L 102.48 18.11 L 102.41 19.61 L 103.83 19.35 L 103.25 20.71 L 104.29 20.28 C 104.54 20.69 105.04 21.50 105.28 21.91 C 106.24 23.05 107.13 24.24 107.89 25.52 L 108.71 25.76 C 108.61 26.24 108.42 27.20 108.32 27.68 L 109.82 27.52 C 109.67 28.03 109.39 29.05 109.25 29.57 L 110.54 29.51 C 110.55 30.51 110.56 32.52 110.57 33.53 L 111.20 31.74 C 111.85 35.48 112.84 39.18 112.62 43.02 C 112.50 63.23 112.84 83.45 112.43 103.66 C 112.24 103.57 111.86 103.37 111.67 103.27 C 111.75 105.77 111.05 108.15 110.30 110.50 L 109.32 110.40 C 109.42 110.94 109.64 112.02 109.75 112.56 L 108.35 112.27 C 108.43 112.76 108.59 113.76 108.67 114.26 L 107.86 114.45 C 107.04 115.87 106.10 117.21 105.22 118.59 L 104.14 118.31 L 104.90 119.46 L 103.42 119.41 L 103.62 120.84 L 102.30 120.25 L 102.68 121.83 L 101.30 121.15 L 101.61 122.22 C 100.24 123.10 98.88 124.01 97.47 124.84 L 97.25 125.68 C 96.76 125.60 95.79 125.45 95.30 125.37 L 95.44 126.83 C 94.93 126.68 93.93 126.39 93.42 126.25 L 93.50 127.28 C 90.83 128.24 88.05 128.86 85.20 128.63 L 85.77 129.53 C 69.52 129.70 53.26 129.57 37.00 129.62 C 32.69 129.80 28.55 128.44 24.46 127.26 L 24.59 126.25 C 24.07 126.39 23.04 126.66 22.53 126.80 L 22.66 125.34 C 22.27 125.40 21.51 125.53 21.13 125.60 C 19.59 124.42 18.05 123.26 16.47 122.13 L 16.76 121.71 C 16.34 121.51 15.52 121.10 15.11 120.89 C 14.27 120.05 13.47 119.16 12.67 118.29 C 11.81 117.05 10.93 115.82 10.17 114.53 C 9.93 114.42 9.45 114.22 9.21 114.12 L 9.83 112.54 L 8.14 112.31 C 8.31 111.84 8.66 110.91 8.83 110.44 L 7.76 110.55 C 6.41 108.33 6.24 105.80 6.42 103.27 C 6.21 103.35 5.77 103.50 5.56 103.58 C 5.29 81.16 5.26 58.71 5.57 36.29 L 6.47 36.87 C 6.44 35.34 6.43 33.81 6.42 32.28 L 7.47 32.87 C 7.47 32.02 7.46 30.31 7.45 29.46 L 8.76 29.62 C 8.62 29.11 8.32 28.09 8.18 27.58 L 9.62 27.67 C 9.55 27.18 9.40 26.22 9.33 25.73 L 10.17 25.51 C 10.99 24.10 11.91 22.77 12.78 21.40 L 13.37 21.75 C 13.54 21.34 13.87 20.51 14.04 20.09 C 14.98 19.34 15.83 18.51 16.69 17.67 C 17.93 16.79 19.19 15.93 20.50 15.16 L 20.75 14.31 C 21.21 14.40 22.15 14.58 22.61 14.67 L 22.63 13.16 C 23.11 13.32 24.06 13.62 24.54 13.77 L 24.52 12.71 M 32.24 11.53 C 32.33 11.74 32.51 12.16 32.60 12.38 C 30.79 12.46 28.98 12.53 27.17 12.60 L 27.54 14.06 C 27.19 13.88 26.47 13.51 26.12 13.33 C 25.46 13.69 24.15 14.43 23.49 14.80 C 23.42 15.01 23.26 15.44 23.19 15.65 L 21.53 15.19 L 21.38 16.67 C 20.86 16.58 19.80 16.41 19.28 16.32 L 19.79 17.93 L 18.36 17.10 L 18.47 17.98 C 16.41 19.55 14.58 21.40 13.01 23.47 L 12.19 23.45 L 12.67 25.24 L 11.25 24.12 C 11.36 24.69 11.57 25.84 11.68 26.41 L 10.28 26.46 C 10.36 26.92 10.51 27.86 10.59 28.33 L 9.29 28.48 C 9.38 28.96 9.54 29.90 9.63 30.37 L 8.65 30.36 C 8.02 32.77 7.42 35.18 7.15 37.66 L 6.51 37.15 C 6.68 59.03 6.68 80.93 6.52 102.81 L 7.32 102.34 C 7.40 103.65 7.56 106.27 7.63 107.58 C 8.01 107.35 8.75 106.87 9.12 106.64 L 8.04 109.28 C 8.46 109.40 9.29 109.64 9.70 109.76 L 9.18 111.39 C 9.55 111.48 10.29 111.68 10.65 111.78 L 10.20 113.47 L 11.66 113.61 C 11.58 114.14 11.40 115.20 11.31 115.73 L 12.89 115.17 L 12.09 116.64 L 13.03 116.45 C 14.49 118.58 16.31 120.45 18.43 121.93 L 18.44 122.22 C 19.40 122.78 20.35 123.36 21.28 123.97 C 22.18 124.48 23.06 125.03 23.92 125.60 C 24.29 125.56 25.03 125.48 25.40 125.44 L 25.53 126.82 C 26.05 126.64 27.10 126.29 27.62 126.11 L 27.19 127.45 C 28.72 127.45 30.25 127.47 31.77 127.49 L 31.14 128.45 C 46.76 128.31 62.39 128.41 78.02 128.40 C 80.61 128.33 83.31 128.69 85.81 127.79 C 87.48 127.58 89.15 127.44 90.83 127.32 L 90.45 125.97 C 90.94 126.21 91.92 126.68 92.41 126.92 L 92.57 125.50 C 92.94 125.50 93.67 125.51 94.04 125.51 C 94.68 125.19 95.95 124.55 96.58 124.23 L 96.62 123.32 C 97.16 123.42 98.24 123.61 98.77 123.71 L 98.07 122.16 L 99.59 122.87 L 99.52 122.02 C 101.58 120.45 103.42 118.61 105.00 116.56 L 105.82 116.63 L 105.18 115.18 L 106.72 115.70 C 106.62 115.17 106.42 114.11 106.32 113.58 L 107.70 113.56 C 107.63 113.09 107.50 112.16 107.43 111.70 L 108.69 111.53 C 108.62 111.04 108.49 110.08 108.43 109.60 L 109.88 109.42 C 109.67 108.92 109.27 107.91 109.06 107.40 L 110.25 107.85 C 110.36 105.22 111.27 102.72 111.38 100.11 C 111.46 78.79 111.28 57.46 111.46 36.14 L 110.78 36.74 C 110.43 34.60 109.84 32.52 109.36 30.42 C 109.10 30.38 108.58 30.32 108.32 30.28 L 108.60 29.06 C 108.25 28.40 107.54 27.09 107.19 26.43 L 106.33 26.39 C 106.41 25.86 106.59 24.81 106.68 24.28 L 105.09 24.80 L 105.87 23.39 L 105.01 23.46 C 103.43 21.40 101.59 19.56 99.53 17.99 L 99.59 17.13 L 98.12 17.87 L 98.76 16.31 C 98.22 16.40 97.14 16.58 96.60 16.67 L 96.57 15.81 C 95.92 15.46 94.61 14.76 93.95 14.40 L 92.72 14.65 C 92.68 14.40 92.59 13.88 92.54 13.63 C 90.19 13.02 87.84 12.42 85.41 12.18 C 85.50 12.02 85.67 11.69 85.75 11.53 C 67.92 11.67 50.08 11.66 32.24 11.53 Z" />
<path fill="#f5f9f6" opacity="1.00" d=" M 56.96 28.94 C 57.94 27.55 60.15 27.61 61.09 29.01 C 68.75 36.72 76.44 44.40 84.10 52.11 C 83.84 53.00 83.59 53.88 83.34 54.77 C 79.96 54.44 75.61 55.99 73.17 52.85 C 68.43 48.12 63.75 43.32 59.00 38.61 C 54.26 43.33 49.54 48.07 44.84 52.83 C 42.41 55.99 38.04 54.43 34.66 54.78 C 34.40 53.88 34.14 52.98 33.89 52.08 C 41.61 44.39 49.26 36.64 56.96 28.94 M 38.19 51.85 C 39.04 51.83 40.74 51.80 41.59 51.78 C 46.60 46.63 51.71 41.58 56.77 36.48 C 57.71 35.24 59.68 34.65 60.75 36.09 C 66.05 41.25 71.24 46.52 76.43 51.79 C 77.55 51.80 78.67 51.81 79.80 51.83 C 72.68 45.11 65.95 37.99 58.99 31.11 C 52.04 38.01 45.26 45.07 38.19 51.85 Z" />
<path fill="#f5f9f6" opacity="1.00" d=" M 57.18 43.01 C 58.27 41.55 60.35 42.13 61.28 43.47 C 65.67 48.21 70.63 52.48 74.61 57.57 C 75.21 63.32 74.77 69.19 74.84 74.98 C 75.06 78.18 71.04 77.46 69.00 77.56 C 66.83 77.21 63.38 78.48 62.24 75.95 C 61.95 72.59 62.17 69.21 62.15 65.85 C 60.28 65.85 58.41 65.84 56.54 65.82 C 56.40 69.57 57.01 73.42 56.13 77.11 C 52.40 77.85 48.49 77.62 44.72 77.33 C 42.70 76.95 43.19 74.47 43.10 72.99 C 43.32 67.84 42.73 62.61 43.41 57.51 C 47.56 52.31 52.60 47.85 57.18 43.01 M 46.18 58.54 C 46.09 63.86 46.17 69.18 46.12 74.51 C 48.63 74.47 51.14 74.47 53.64 74.58 C 53.72 70.81 52.90 66.84 54.25 63.23 C 57.70 62.42 61.31 62.83 64.79 63.22 C 65.29 66.96 65.14 70.75 65.11 74.51 C 67.37 74.48 69.63 74.48 71.88 74.51 C 71.81 69.63 71.94 64.75 71.85 59.87 C 72.12 58.54 70.89 57.77 70.16 56.90 C 66.40 53.13 62.69 49.30 58.99 45.48 C 54.73 49.84 50.54 54.28 46.18 58.54 Z" />
</g>
</svg>
