<?xml version="1.0" encoding="UTF-8" ?>
<!DOCTYPE svg PUBLIC "-//W3C//DTD SVG 1.1//EN" "http://www.w3.org/Graphics/SVG/1.1/DTD/svg11.dtd">
<svg width="28px" height="21px" viewBox="0 0 28 21" version="1.1" xmlns="http://www.w3.org/2000/svg">
<g id="#000000ff">
<path fill="#000000" opacity="1.00" d=" M 0.00 0.00 L 7.94 0.00 C 7.94 2.49 7.94 4.99 7.93 7.48 C 5.29 7.49 2.64 7.49 0.00 7.49 L 0.00 0.00 Z" />
<path fill="#000000" opacity="1.00" d=" M 19.06 0.00 L 28.00 0.00 L 28.00 21.00 L 13.58 21.00 C 18.08 16.51 22.59 12.03 27.06 7.50 C 24.40 7.47 21.73 7.50 19.07 7.48 C 19.06 4.99 19.06 2.49 19.06 0.00 Z" />
<path fill="#000000" opacity="1.00" d=" M 9.90 2.01 C 12.30 2.00 14.70 1.99 17.10 2.01 C 17.12 4.53 17.06 7.05 17.15 9.57 C 18.81 9.58 20.47 9.58 22.13 9.57 C 19.28 12.47 16.39 15.32 13.52 18.20 C 10.60 15.36 7.74 12.46 4.87 9.57 C 6.54 9.58 8.20 9.58 9.86 9.56 C 9.94 7.04 9.88 4.52 9.90 2.01 Z" />
<path fill="#000000" opacity="1.00" d=" M 0.00 7.56 C 4.44 12.07 8.94 16.52 13.41 21.00 L 0.00 21.00 L 0.00 7.56 Z" />
</g>
<g id="#f8fcf8ff">
<path fill="#f8fcf8" opacity="1.00" d=" M 7.94 0.00 L 19.06 0.00 C 19.06 2.49 19.06 4.99 19.07 7.48 C 21.73 7.50 24.40 7.47 27.06 7.50 C 22.59 12.03 18.08 16.51 13.58 21.00 L 13.41 21.00 C 8.94 16.52 4.44 12.07 0.00 7.56 L 0.00 7.49 C 2.64 7.49 5.29 7.49 7.93 7.48 C 7.94 4.99 7.94 2.49 7.94 0.00 M 9.90 2.01 C 9.88 4.52 9.94 7.04 9.86 9.56 C 8.20 9.58 6.54 9.58 4.87 9.57 C 7.74 12.46 10.60 15.36 13.52 18.20 C 16.39 15.32 19.28 12.47 22.13 9.57 C 20.47 9.58 18.81 9.58 17.15 9.57 C 17.06 7.05 17.12 4.53 17.10 2.01 C 14.70 1.99 12.30 2.00 9.90 2.01 Z" />
</g>
</svg>
