<?xml version="1.0" encoding="UTF-8" ?>
<!DOCTYPE svg PUBLIC "-//W3C//DTD SVG 1.1//EN" "http://www.w3.org/Graphics/SVG/1.1/DTD/svg11.dtd">
<svg width="50px" height="50px" viewBox="0 0 50 50" version="1.1" xmlns="http://www.w3.org/2000/svg">
<g id="#000000ff">
<path fill="#000000" opacity="1.00" d=" M 0.00 0.00 L 50.00 0.00 L 50.00 50.00 L 0.00 50.00 L 0.00 0.00 M 20.42 8.67 C 14.77 10.13 10.16 14.75 8.68 20.39 C 6.50 27.55 9.82 36.07 16.44 39.66 C 23.68 44.12 34.13 41.91 38.86 34.84 C 42.33 29.96 42.98 23.25 40.39 17.84 C 37.22 10.39 28.11 6.33 20.42 8.67 Z" />
<path fill="#000000" opacity="1.00" d=" M 20.41 10.73 C 28.26 7.92 37.59 13.11 39.50 21.18 C 41.77 28.87 36.62 37.63 28.85 39.49 C 21.15 41.79 12.40 36.63 10.51 28.87 C 8.30 21.44 13.01 12.93 20.41 10.73 M 19.82 16.07 C 19.79 16.53 19.75 17.47 19.73 17.93 C 22.90 18.11 26.07 17.96 29.24 18.00 C 25.59 23.26 21.87 28.49 18.55 33.97 C 23.36 34.00 28.17 34.07 32.98 33.90 C 32.90 33.46 32.74 32.57 32.66 32.13 C 29.27 31.84 25.87 32.04 22.47 32.02 C 26.12 26.74 29.78 21.45 33.22 16.02 C 28.75 16.04 24.28 15.88 19.82 16.07 Z" />
</g>
<g id="#f7fbf7ff">
<path fill="#f7fbf7" opacity="1.00" d=" M 20.42 8.67 C 28.11 6.33 37.22 10.39 40.39 17.84 C 42.98 23.25 42.33 29.96 38.86 34.84 C 34.13 41.91 23.68 44.12 16.44 39.66 C 9.82 36.07 6.50 27.55 8.68 20.39 C 10.16 14.75 14.77 10.13 20.42 8.67 M 20.41 10.73 C 13.01 12.93 8.30 21.44 10.51 28.87 C 12.40 36.63 21.15 41.79 28.85 39.49 C 36.62 37.63 41.77 28.87 39.50 21.18 C 37.59 13.11 28.26 7.92 20.41 10.73 Z" />
<path fill="#f7fbf7" opacity="1.00" d=" M 19.82 16.07 C 24.28 15.88 28.75 16.04 33.22 16.02 C 29.78 21.45 26.12 26.74 22.47 32.02 C 25.87 32.04 29.27 31.84 32.66 32.13 C 32.74 32.57 32.90 33.46 32.98 33.90 C 28.17 34.07 23.36 34.00 18.55 33.97 C 21.87 28.49 25.59 23.26 29.24 18.00 C 26.07 17.96 22.90 18.11 19.73 17.93 C 19.75 17.47 19.79 16.53 19.82 16.07 Z" />
</g>
</svg>
