<?xml version="1.0" encoding="UTF-8" ?>
<!DOCTYPE svg PUBLIC "-//W3C//DTD SVG 1.1//EN" "http://www.w3.org/Graphics/SVG/1.1/DTD/svg11.dtd">
<svg width="117px" height="140px" viewBox="0 0 117 140" version="1.1" xmlns="http://www.w3.org/2000/svg">
<g id="#000000ff">
<path fill="#000000" opacity="1.00" d=" M 0.00 0.00 L 117.00 0.00 L 117.00 140.00 L 0.00 140.00 L 0.00 0.00 M 29.39 10.47 C 15.33 13.34 3.87 26.54 3.99 41.04 C 4.01 60.36 4.01 79.69 3.99 99.02 C 3.83 115.38 18.65 130.20 35.02 130.02 C 50.34 130.00 65.66 129.98 80.98 130.02 C 93.87 130.37 106.16 121.60 110.78 109.68 C 112.70 105.04 113.09 99.96 113.01 94.98 C 112.92 76.99 113.09 59.01 112.94 41.02 C 112.85 25.05 98.97 10.67 83.04 10.01 C 67.69 9.96 52.35 10.04 37.00 9.98 C 34.46 9.99 31.88 9.92 29.39 10.47 Z" />
<path fill="#000000" opacity="1.00" d=" M 35.18 12.20 C 47.13 11.83 59.09 12.17 71.04 12.05 C 78.85 11.92 87.18 11.81 94.18 15.81 C 103.78 20.75 109.80 31.32 109.95 42.01 C 110.06 60.34 109.99 78.67 109.99 97.00 C 110.08 107.55 104.64 118.19 95.39 123.51 C 89.36 127.33 82.02 128.08 75.04 127.97 C 63.02 127.93 51.00 127.95 38.99 127.96 C 32.43 127.96 25.69 126.56 20.23 122.77 C 12.06 117.41 6.93 107.75 7.06 97.98 C 7.06 78.96 6.99 59.94 7.10 40.92 C 7.20 25.94 20.26 12.75 35.18 12.20 M 47.86 30.05 C 47.34 33.26 47.62 36.54 47.56 39.78 C 46.41 40.97 44.56 41.89 45.01 43.86 C 44.98 53.92 44.98 63.99 45.01 74.05 C 44.80 75.34 45.39 77.01 46.96 76.91 C 54.32 77.06 61.70 77.15 69.04 76.85 C 70.99 76.84 70.93 74.42 70.95 73.04 C 70.90 63.35 70.98 53.66 70.91 43.97 C 71.30 41.97 69.39 41.03 68.22 39.82 C 68.32 36.18 68.34 32.51 67.52 28.94 C 61.35 29.19 55.15 28.69 49.00 29.17 C 48.71 29.39 48.14 29.83 47.86 30.05 Z" />
<path fill="#000000" opacity="1.00" d=" M 49.63 30.58 C 54.99 30.15 60.41 30.23 65.78 30.50 C 66.94 33.63 66.12 37.18 66.35 40.48 C 60.69 40.48 55.03 40.48 49.37 40.48 C 49.45 37.18 49.22 33.86 49.63 30.58 M 53.03 32.62 C 53.04 33.52 53.06 35.32 53.07 36.23 C 53.84 36.22 55.38 36.22 56.14 36.22 C 56.14 35.32 56.14 33.53 56.14 32.63 C 55.36 32.63 53.81 32.62 53.03 32.62 M 58.77 32.64 C 58.77 33.54 58.78 35.32 58.79 36.22 C 59.57 36.22 61.14 36.23 61.93 36.23 C 61.90 35.32 61.86 33.50 61.84 32.59 C 61.07 32.61 59.54 32.63 58.77 32.64 Z" />
<path fill="#000000" opacity="1.00" d=" M 56.18 46.28 C 57.57 44.07 61.14 45.43 60.89 47.95 C 60.37 49.03 59.73 50.05 59.11 51.07 C 59.04 57.20 59.06 63.34 59.09 69.48 C 60.69 68.93 62.86 69.37 64.03 67.94 C 64.37 64.27 65.23 60.03 62.94 56.80 C 62.85 55.42 62.76 54.04 62.69 52.67 C 64.34 52.67 65.99 52.67 67.65 52.67 C 67.66 54.11 67.66 55.56 67.66 57.01 C 64.44 58.86 66.29 63.04 65.75 66.02 C 66.09 68.66 63.68 70.94 61.08 70.65 C 57.71 70.45 52.59 71.90 51.00 67.84 C 50.53 65.09 50.80 62.28 50.81 59.50 C 50.18 59.47 48.94 59.40 48.32 59.36 C 49.27 57.76 50.21 56.15 51.15 54.54 C 51.94 55.90 52.68 57.27 53.44 58.65 C 51.50 61.22 52.06 64.65 52.41 67.64 C 53.41 69.62 55.83 68.84 57.59 69.35 C 57.51 63.23 57.61 57.12 57.50 51.00 C 56.91 49.59 54.43 47.72 56.18 46.28 Z" />
</g>
<g id="#708cc8ff">
<path fill="#708cc8" opacity="1.00" d=" M 29.39 10.47 C 31.88 9.92 34.46 9.99 37.00 9.98 C 52.35 10.04 67.69 9.96 83.04 10.01 C 98.97 10.67 112.85 25.05 112.94 41.02 C 113.09 59.01 112.92 76.99 113.01 94.98 C 113.09 99.96 112.70 105.04 110.78 109.68 C 106.16 121.60 93.87 130.37 80.98 130.02 C 65.66 129.98 50.34 130.00 35.02 130.02 C 18.65 130.20 3.83 115.38 3.99 99.02 C 4.01 79.69 4.01 60.36 3.99 41.04 C 3.87 26.54 15.33 13.34 29.39 10.47 M 35.18 12.20 C 20.26 12.75 7.20 25.94 7.10 40.92 C 6.99 59.94 7.06 78.96 7.06 97.98 C 6.93 107.75 12.06 117.41 20.23 122.77 C 25.69 126.56 32.43 127.96 38.99 127.96 C 51.00 127.95 63.02 127.93 75.04 127.97 C 82.02 128.08 89.36 127.33 95.39 123.51 C 104.64 118.19 110.08 107.55 109.99 97.00 C 109.99 78.67 110.06 60.34 109.95 42.01 C 109.80 31.32 103.78 20.75 94.18 15.81 C 87.18 11.81 78.85 11.92 71.04 12.05 C 59.09 12.17 47.13 11.83 35.18 12.20 Z" />
</g>
<g id="#10ec50ff">
<path fill="#10ec50" opacity="1.00" d=" M 47.86 30.05 C 48.14 29.83 48.71 29.39 49.00 29.17 C 55.15 28.69 61.35 29.19 67.52 28.94 C 68.34 32.51 68.32 36.18 68.22 39.82 C 69.39 41.03 71.30 41.97 70.91 43.97 C 70.98 53.66 70.90 63.35 70.95 73.04 C 70.93 74.42 70.99 76.84 69.04 76.85 C 61.70 77.15 54.32 77.06 46.96 76.91 C 45.39 77.01 44.80 75.34 45.01 74.05 C 44.98 63.99 44.98 53.92 45.01 43.86 C 44.56 41.89 46.41 40.97 47.56 39.78 C 47.62 36.54 47.34 33.26 47.86 30.05 M 49.63 30.58 C 49.22 33.86 49.45 37.18 49.37 40.48 C 55.03 40.48 60.69 40.48 66.35 40.48 C 66.12 37.18 66.94 33.63 65.78 30.50 C 60.41 30.23 54.99 30.15 49.63 30.58 M 56.18 46.28 C 54.43 47.72 56.91 49.59 57.50 51.00 C 57.61 57.12 57.51 63.23 57.59 69.35 C 55.83 68.84 53.41 69.62 52.41 67.64 C 52.06 64.65 51.50 61.22 53.44 58.65 C 52.68 57.27 51.94 55.90 51.15 54.54 C 50.21 56.15 49.27 57.76 48.32 59.36 C 48.94 59.40 50.18 59.47 50.81 59.50 C 50.80 62.28 50.53 65.09 51.00 67.84 C 52.59 71.90 57.71 70.45 61.08 70.65 C 63.68 70.94 66.09 68.66 65.75 66.02 C 66.29 63.04 64.44 58.86 67.66 57.01 C 67.66 55.56 67.66 54.11 67.65 52.67 C 65.99 52.67 64.34 52.67 62.69 52.67 C 62.76 54.04 62.85 55.42 62.94 56.80 C 65.23 60.03 64.37 64.27 64.03 67.94 C 62.86 69.37 60.69 68.93 59.09 69.48 C 59.06 63.34 59.04 57.20 59.11 51.07 C 59.73 50.05 60.37 49.03 60.89 47.95 C 61.14 45.43 57.57 44.07 56.18 46.28 Z" />
<path fill="#10ec50" opacity="1.00" d=" M 53.03 32.62 C 53.81 32.62 55.36 32.63 56.14 32.63 C 56.14 33.53 56.14 35.32 56.14 36.22 C 55.38 36.22 53.84 36.22 53.07 36.23 C 53.06 35.32 53.04 33.52 53.03 32.62 Z" />
<path fill="#10ec50" opacity="1.00" d=" M 58.77 32.64 C 59.54 32.63 61.07 32.61 61.84 32.59 C 61.86 33.50 61.90 35.32 61.93 36.23 C 61.14 36.23 59.57 36.22 58.79 36.22 C 58.78 35.32 58.77 33.54 58.77 32.64 Z" />
</g>
</svg>
