<?xml version="1.0" encoding="UTF-8" ?>
<!DOCTYPE svg PUBLIC "-//W3C//DTD SVG 1.1//EN" "http://www.w3.org/Graphics/SVG/1.1/DTD/svg11.dtd">
<svg width="117px" height="140px" viewBox="0 0 117 140" version="1.1" xmlns="http://www.w3.org/2000/svg">
<g id="#000000ff">
<path fill="#000000" opacity="1.00" d=" M 0.00 0.00 L 117.00 0.00 L 117.00 140.00 L 0.00 140.00 L 0.00 0.00 M 31.18 10.24 C 16.41 12.47 4.23 25.90 4.04 40.93 C 3.97 60.31 3.97 79.69 4.04 99.07 C 4.27 112.57 14.11 125.09 27.07 128.75 C 31.87 130.46 37.02 129.94 42.01 130.00 C 55.66 129.99 69.31 130.01 82.96 129.99 C 98.93 129.36 112.83 115.04 112.98 99.05 C 112.98 79.34 113.08 59.63 112.94 39.92 C 112.25 23.98 97.96 10.06 81.97 9.99 C 65.05 10.18 48.09 9.67 31.18 10.24 Z" />
<path fill="#000000" opacity="1.00" d=" M 33.30 12.41 C 47.84 11.62 62.44 12.31 77.00 12.05 C 84.64 11.78 92.55 13.62 98.57 18.50 C 106.63 24.62 110.73 34.98 110.01 44.97 C 109.97 62.67 110.04 80.36 109.98 98.06 C 110.09 108.30 104.42 118.36 95.59 123.55 C 90.38 126.85 84.11 127.95 78.03 127.95 C 64.33 127.89 50.63 127.97 36.93 127.91 C 29.13 127.78 21.42 124.69 15.85 119.19 C 10.35 113.59 6.99 105.85 7.09 97.96 C 7.08 78.97 7.01 59.97 7.12 40.98 C 7.29 26.73 19.10 13.79 33.30 12.41 M 47.18 38.99 C 48.08 39.82 48.97 40.67 49.85 41.52 C 51.18 41.48 52.52 41.44 53.86 41.42 C 53.84 43.33 53.83 45.23 53.82 47.14 C 51.98 47.14 50.13 47.14 48.29 47.14 C 48.12 45.37 47.88 43.60 47.27 41.92 C 46.81 41.61 45.90 40.97 45.45 40.65 C 41.53 44.71 37.48 48.64 33.51 52.66 C 37.64 56.69 41.56 60.93 45.84 64.80 C 46.62 63.88 47.41 62.97 48.20 62.06 C 48.16 60.75 48.13 59.44 48.10 58.13 C 50.02 58.14 51.95 58.14 53.88 58.12 C 53.86 60.05 53.85 61.98 53.87 63.90 C 52.56 63.87 51.25 63.84 49.93 63.80 C 49.03 64.59 48.12 65.37 47.20 66.15 C 51.07 70.44 55.30 74.39 59.38 78.48 C 63.37 74.52 67.31 70.50 71.35 66.58 C 71.03 66.12 70.39 65.19 70.07 64.73 C 68.41 64.09 66.64 63.90 64.89 63.72 C 64.89 61.88 64.89 60.03 64.89 58.19 C 66.76 58.17 68.63 58.15 70.51 58.13 C 70.52 59.51 70.53 60.89 70.53 62.27 C 71.37 63.11 72.20 63.95 73.02 64.81 C 77.09 60.86 81.01 56.76 85.09 52.84 C 81.63 48.66 77.58 44.96 73.68 41.20 C 70.74 40.50 70.36 44.99 70.36 47.09 C 68.75 47.12 67.15 47.17 65.55 47.25 C 64.54 45.53 64.93 43.48 64.92 41.59 C 67.03 41.58 71.46 41.33 70.82 38.32 C 67.24 34.37 63.25 30.81 59.60 26.91 C 55.14 30.58 51.36 35.01 47.18 38.99 Z" />
<path fill="#000000" opacity="1.00" d=" M 59.40 31.19 C 61.76 33.65 64.13 36.10 66.64 38.39 C 64.99 38.36 63.34 38.37 61.69 38.47 C 61.94 42.37 61.81 46.29 61.81 50.19 C 65.74 50.16 69.67 50.13 73.61 50.24 C 73.62 48.63 73.62 47.02 73.63 45.42 C 75.95 47.89 78.37 50.27 80.82 52.63 C 78.35 55.01 75.91 57.42 73.54 59.90 C 73.57 58.33 73.61 56.75 73.67 55.18 C 69.72 55.10 65.77 55.13 61.82 55.13 C 61.83 59.07 61.83 63.00 61.82 66.93 C 63.38 66.92 64.93 66.91 66.49 66.91 C 64.07 69.28 61.70 71.70 59.29 74.08 C 56.94 71.66 54.55 69.27 52.14 66.91 C 53.70 66.90 55.26 66.89 56.83 66.89 C 56.90 62.98 56.89 59.07 56.84 55.17 C 52.93 55.11 49.03 55.11 45.13 55.16 C 45.13 56.74 45.12 58.31 45.10 59.89 C 42.96 57.32 39.89 55.28 38.18 52.52 C 40.39 50.09 42.84 47.91 45.11 45.54 C 45.11 47.08 45.11 48.63 45.10 50.18 C 49.02 50.17 52.95 50.17 56.87 50.18 C 56.87 46.23 56.90 42.28 56.83 38.33 C 55.25 38.39 53.68 38.44 52.10 38.47 C 54.59 36.10 57.01 33.66 59.40 31.19 Z" />
</g>
<g id="#707470ff">
<path fill="#707470" opacity="1.00" d=" M 31.18 10.24 C 48.09 9.67 65.05 10.18 81.97 9.99 C 97.96 10.06 112.25 23.98 112.94 39.92 C 113.08 59.63 112.98 79.34 112.98 99.05 C 112.83 115.04 98.93 129.36 82.96 129.99 C 69.31 130.01 55.66 129.99 42.01 130.00 C 37.02 129.94 31.87 130.46 27.07 128.75 C 14.11 125.09 4.27 112.57 4.04 99.07 C 3.97 79.69 3.97 60.31 4.04 40.93 C 4.23 25.90 16.41 12.47 31.18 10.24 M 33.30 12.41 C 19.10 13.79 7.29 26.73 7.12 40.98 C 7.01 59.97 7.08 78.97 7.09 97.96 C 6.99 105.85 10.35 113.59 15.85 119.19 C 21.42 124.69 29.13 127.78 36.93 127.91 C 50.63 127.97 64.33 127.89 78.03 127.95 C 84.11 127.95 90.38 126.85 95.59 123.55 C 104.42 118.36 110.09 108.30 109.98 98.06 C 110.04 80.36 109.97 62.67 110.01 44.97 C 110.73 34.98 106.63 24.62 98.57 18.50 C 92.55 13.62 84.64 11.78 77.00 12.05 C 62.44 12.31 47.84 11.62 33.30 12.41 Z" />
</g>
<g id="#e86010ff">
<path fill="#e86010" opacity="1.00" d=" M 47.18 38.99 C 51.36 35.01 55.14 30.58 59.60 26.91 C 63.25 30.81 67.24 34.37 70.82 38.32 C 71.46 41.33 67.03 41.58 64.92 41.59 C 64.93 43.48 64.54 45.53 65.55 47.25 C 67.15 47.17 68.75 47.12 70.36 47.09 C 70.36 44.99 70.74 40.50 73.68 41.20 C 77.58 44.96 81.63 48.66 85.09 52.84 C 81.01 56.76 77.09 60.86 73.02 64.81 C 72.20 63.95 71.37 63.11 70.53 62.27 C 70.53 60.89 70.52 59.51 70.51 58.13 C 68.63 58.15 66.76 58.17 64.89 58.19 C 64.89 60.03 64.89 61.88 64.89 63.72 C 66.64 63.90 68.41 64.09 70.07 64.73 C 70.39 65.19 71.03 66.12 71.35 66.58 C 67.31 70.50 63.37 74.52 59.38 78.48 C 55.30 74.39 51.07 70.44 47.20 66.15 C 48.12 65.37 49.03 64.59 49.93 63.80 C 51.25 63.84 52.56 63.87 53.87 63.90 C 53.85 61.98 53.86 60.05 53.88 58.12 C 51.95 58.14 50.02 58.14 48.10 58.13 C 48.13 59.44 48.16 60.75 48.20 62.06 C 47.41 62.97 46.62 63.88 45.84 64.80 C 41.56 60.93 37.64 56.69 33.51 52.66 C 37.48 48.64 41.53 44.71 45.45 40.65 C 45.90 40.97 46.81 41.61 47.27 41.92 C 47.88 43.60 48.12 45.37 48.29 47.14 C 50.13 47.14 51.98 47.14 53.82 47.14 C 53.83 45.23 53.84 43.33 53.86 41.42 C 52.52 41.44 51.18 41.48 49.85 41.52 C 48.97 40.67 48.08 39.82 47.18 38.99 M 59.40 31.19 C 57.01 33.66 54.59 36.10 52.10 38.47 C 53.68 38.44 55.25 38.39 56.83 38.33 C 56.90 42.28 56.87 46.23 56.87 50.18 C 52.95 50.17 49.02 50.17 45.10 50.18 C 45.11 48.63 45.11 47.08 45.11 45.54 C 42.84 47.91 40.39 50.09 38.18 52.52 C 39.89 55.28 42.96 57.32 45.10 59.89 C 45.12 58.31 45.13 56.74 45.13 55.16 C 49.03 55.11 52.93 55.11 56.84 55.17 C 56.89 59.07 56.90 62.98 56.83 66.89 C 55.26 66.89 53.70 66.90 52.14 66.91 C 54.55 69.27 56.94 71.66 59.29 74.08 C 61.70 71.70 64.07 69.28 66.49 66.91 C 64.93 66.91 63.38 66.92 61.82 66.93 C 61.83 63.00 61.83 59.07 61.82 55.13 C 65.77 55.13 69.72 55.10 73.67 55.18 C 73.61 56.75 73.57 58.33 73.54 59.90 C 75.91 57.42 78.35 55.01 80.82 52.63 C 78.37 50.27 75.95 47.89 73.63 45.42 C 73.62 47.02 73.62 48.63 73.61 50.24 C 69.67 50.13 65.74 50.16 61.81 50.19 C 61.81 46.29 61.94 42.37 61.69 38.47 C 63.34 38.37 64.99 38.36 66.64 38.39 C 64.13 36.10 61.76 33.65 59.40 31.19 Z" />
</g>
</svg>
