<?xml version="1.0" encoding="UTF-8" ?>
<!DOCTYPE svg PUBLIC "-//W3C//DTD SVG 1.1//EN" "http://www.w3.org/Graphics/SVG/1.1/DTD/svg11.dtd">
<svg width="32px" height="21px" viewBox="0 0 32 21" version="1.1" xmlns="http://www.w3.org/2000/svg">
<g id="#181818ff">
<path fill="#181818" opacity="1.00" d=" M 0.00 0.00 L 10.50 0.00 C 6.92 3.39 3.63 7.07 0.00 10.41 L 0.00 0.00 Z" />
<path fill="#181818" opacity="1.00" d=" M 31.00 0.00 L 32.00 0.00 L 32.00 21.00 L 31.00 21.00 C 31.00 14.00 31.00 7.00 31.00 0.00 Z" />
<path fill="#181818" opacity="1.00" d=" M 2.65 10.66 C 5.19 7.59 8.12 4.89 10.85 2.00 C 16.90 1.99 22.95 2.00 29.00 2.00 C 29.00 7.67 29.01 13.33 29.00 19.00 C 22.96 19.01 16.92 18.99 10.89 19.01 C 8.15 16.22 5.44 13.41 2.65 10.66 M 13.80 5.99 C 15.08 7.62 16.56 9.10 18.03 10.56 C 16.52 12.00 15.01 13.44 13.70 15.07 C 15.90 16.93 17.41 12.71 19.33 11.77 C 20.85 13.37 22.39 14.94 24.08 16.37 C 24.70 13.67 21.80 12.39 20.38 10.64 C 21.74 8.74 24.58 7.35 24.09 4.63 C 22.40 6.06 20.86 7.63 19.33 9.23 C 17.84 7.93 16.46 6.51 14.97 5.20 C 14.68 5.40 14.09 5.79 13.80 5.99 Z" />
<path fill="#181818" opacity="1.00" d=" M 0.00 10.43 C 3.44 13.98 6.95 17.47 10.42 21.00 L 0.00 21.00 L 0.00 10.43 Z" />
</g>
<g id="#e0e2e0ff">
<path fill="#e0e2e0" opacity="1.00" d=" M 10.50 0.00 L 31.00 0.00 C 31.00 7.00 31.00 14.00 31.00 21.00 L 10.42 21.00 C 6.95 17.47 3.44 13.98 0.00 10.43 L 0.00 10.41 C 3.63 7.07 6.92 3.39 10.50 0.00 M 2.65 10.66 C 5.44 13.41 8.15 16.22 10.89 19.01 C 16.92 18.99 22.96 19.01 29.00 19.00 C 29.01 13.33 29.00 7.67 29.00 2.00 C 22.95 2.00 16.90 1.99 10.85 2.00 C 8.12 4.89 5.19 7.59 2.65 10.66 Z" />
<path fill="#e0e2e0" opacity="1.00" d=" M 13.80 5.99 C 14.09 5.79 14.68 5.40 14.97 5.20 C 16.46 6.51 17.84 7.93 19.33 9.23 C 20.86 7.63 22.40 6.06 24.09 4.63 C 24.58 7.35 21.74 8.74 20.38 10.64 C 21.80 12.39 24.70 13.67 24.08 16.37 C 22.39 14.94 20.85 13.37 19.33 11.77 C 17.41 12.71 15.90 16.93 13.70 15.07 C 15.01 13.44 16.52 12.00 18.03 10.56 C 16.56 9.10 15.08 7.62 13.80 5.99 Z" />
</g>
</svg>
