<?xml version="1.0" encoding="UTF-8" ?>
<!DOCTYPE svg PUBLIC "-//W3C//DTD SVG 1.1//EN" "http://www.w3.org/Graphics/SVG/1.1/DTD/svg11.dtd">
<svg width="117px" height="92px" viewBox="0 0 117 92" version="1.1" xmlns="http://www.w3.org/2000/svg">
<g id="#000000ff">
<path fill="#000000" opacity="1.00" d=" M 0.00 0.00 L 117.00 0.00 L 117.00 92.00 L 0.00 92.00 L 0.00 0.00 M 58.78 27.74 C 51.54 34.62 45.41 42.32 38.39 49.39 C 37.96 51.28 36.99 53.24 37.89 55.17 C 53.25 55.53 68.74 55.52 84.10 55.17 C 85.00 53.28 84.08 51.31 83.67 49.44 C 76.62 42.36 70.47 34.64 63.22 27.73 C 62.11 26.60 59.88 26.58 58.78 27.74 Z" />
<path fill="#000000" opacity="1.00" d=" M 42.04 51.43 C 48.52 44.61 54.76 37.67 61.02 30.74 C 67.23 37.72 73.49 44.63 80.00 51.40 C 67.36 51.14 54.67 51.08 42.04 51.43 Z" />
</g>
<g id="#f8fcf8ff">
<path fill="#f8fcf8" opacity="1.00" d=" M 58.78 27.74 C 59.88 26.58 62.11 26.60 63.22 27.73 C 70.47 34.64 76.62 42.36 83.67 49.44 C 84.08 51.31 85.00 53.28 84.10 55.17 C 68.74 55.52 53.25 55.53 37.89 55.17 C 36.99 53.24 37.96 51.28 38.39 49.39 C 45.41 42.32 51.54 34.62 58.78 27.74 M 42.04 51.43 C 54.67 51.08 67.36 51.14 80.00 51.40 C 73.49 44.63 67.23 37.72 61.02 30.74 C 54.76 37.67 48.52 44.61 42.04 51.43 Z" />
</g>
</svg>
