<?xml version="1.0" encoding="UTF-8" ?>
<!DOCTYPE svg PUBLIC "-//W3C//DTD SVG 1.1//EN" "http://www.w3.org/Graphics/SVG/1.1/DTD/svg11.dtd">
<svg width="117px" height="140px" viewBox="0 0 117 140" version="1.1" xmlns="http://www.w3.org/2000/svg">
<g id="#000000ff">
<path fill="#000000" opacity="1.00" d=" M 0.00 0.00 L 117.00 0.00 L 117.00 140.00 L 0.00 140.00 L 0.00 0.00 M 33.20 10.23 C 17.93 11.77 5.19 25.63 5.02 40.99 C 4.98 60.35 4.98 79.72 5.02 99.09 C 5.21 115.00 18.96 129.21 34.86 129.91 C 50.58 130.09 66.31 129.99 82.03 129.96 C 98.36 129.85 112.86 115.36 112.97 99.03 C 113.02 79.68 113.02 60.32 112.97 40.97 C 112.76 28.24 104.03 16.26 92.07 11.99 C 84.70 9.08 76.68 10.22 68.97 10.00 C 57.05 10.15 45.10 9.70 33.20 10.23 Z" />
<path fill="#000000" opacity="1.00" d=" M 33.23 12.34 C 48.47 11.72 63.74 12.25 78.99 12.06 C 85.35 11.88 91.84 13.27 97.16 16.85 C 105.61 22.14 111.01 31.97 110.90 41.94 C 110.95 60.64 110.95 79.33 110.90 98.03 C 111.05 109.00 104.48 119.74 94.64 124.61 C 89.86 127.20 84.35 128.03 78.98 127.94 C 64.28 127.84 49.58 128.09 34.89 127.82 C 20.09 127.14 7.25 113.89 7.13 99.06 C 7.03 79.71 7.03 60.35 7.12 41.00 C 7.26 26.76 19.06 13.81 33.23 12.34 M 71.12 38.08 C 70.20 40.96 69.81 43.98 69.98 47.00 C 67.99 47.00 65.99 47.00 64.00 47.00 C 64.00 47.75 64.00 49.25 64.00 50.00 C 65.98 50.00 67.97 50.00 69.95 50.00 C 69.84 52.69 70.34 55.35 71.13 57.91 C 73.70 58.87 76.62 58.68 78.54 56.54 C 81.26 53.83 86.02 52.33 86.48 48.02 C 85.95 43.47 80.81 41.92 77.96 39.00 C 76.16 36.99 73.42 37.42 71.12 38.08 M 42.00 47.00 C 42.00 47.75 42.00 49.25 42.00 50.00 C 45.33 50.00 48.67 50.00 52.00 50.00 C 52.00 49.25 52.00 47.75 52.00 47.00 C 48.67 47.00 45.33 47.00 42.00 47.00 M 53.00 47.00 C 53.00 47.75 53.00 49.25 53.00 50.00 C 53.75 50.00 55.25 50.00 56.00 50.00 C 56.00 49.25 56.00 47.75 56.00 47.00 C 55.25 47.00 53.75 47.00 53.00 47.00 M 57.00 47.00 C 57.00 47.75 57.00 49.25 57.00 50.00 C 59.00 50.00 61.00 50.00 63.00 50.00 C 63.00 49.25 63.00 47.75 63.00 47.00 C 61.00 47.00 59.00 47.00 57.00 47.00 M 57.83 77.35 C 52.39 77.42 46.95 77.39 41.51 77.37 C 41.56 75.68 41.61 73.99 41.66 72.31 C 41.03 72.26 39.75 72.16 39.12 72.11 C 39.28 74.64 37.94 78.72 41.09 79.83 C 53.05 80.01 65.03 80.01 76.98 79.82 C 80.04 78.60 78.71 74.65 78.89 72.12 C 78.25 72.16 76.98 72.25 76.34 72.30 C 76.39 73.99 76.44 75.68 76.49 77.37 C 71.05 77.40 65.61 77.42 60.17 77.35 C 60.30 75.25 60.38 73.13 60.00 71.05 C 56.36 70.79 58.06 75.20 57.83 77.35 Z" />
<path fill="#000000" opacity="1.00" d=" M 75.00 41.81 C 77.67 43.86 80.33 45.93 82.99 48.00 C 80.33 50.07 77.67 52.14 75.00 54.19 C 75.00 50.06 75.00 45.93 75.00 41.81 Z" />
</g>
<g id="#737473ff">
<path fill="#737473" opacity="1.00" d=" M 33.20 10.23 C 45.10 9.70 57.05 10.15 68.97 10.00 C 76.68 10.22 84.70 9.08 92.07 11.99 C 104.03 16.26 112.76 28.24 112.97 40.97 C 113.02 60.32 113.02 79.68 112.97 99.03 C 112.86 115.36 98.36 129.85 82.03 129.96 C 66.31 129.99 50.58 130.09 34.86 129.91 C 18.96 129.21 5.21 115.00 5.02 99.09 C 4.98 79.72 4.98 60.35 5.02 40.99 C 5.19 25.63 17.93 11.77 33.20 10.23 M 33.23 12.34 C 19.06 13.81 7.26 26.76 7.12 41.00 C 7.03 60.35 7.03 79.71 7.13 99.06 C 7.25 113.89 20.09 127.14 34.89 127.82 C 49.58 128.09 64.28 127.84 78.98 127.94 C 84.35 128.03 89.86 127.20 94.64 124.61 C 104.48 119.74 111.05 109.00 110.90 98.03 C 110.95 79.33 110.95 60.64 110.90 41.94 C 111.01 31.97 105.61 22.14 97.16 16.85 C 91.84 13.27 85.35 11.88 78.99 12.06 C 63.74 12.25 48.47 11.72 33.23 12.34 Z" />
</g>
<g id="#f8fcf8ff">
<path fill="#f8fcf8" opacity="1.00" d=" M 71.12 38.08 C 73.42 37.42 76.16 36.99 77.96 39.00 C 80.81 41.92 85.95 43.47 86.48 48.02 C 86.02 52.33 81.26 53.83 78.54 56.54 C 76.62 58.68 73.70 58.87 71.13 57.91 C 70.34 55.35 69.84 52.69 69.95 50.00 C 67.97 50.00 65.98 50.00 64.00 50.00 C 64.00 49.25 64.00 47.75 64.00 47.00 C 65.99 47.00 67.99 47.00 69.98 47.00 C 69.81 43.98 70.20 40.96 71.12 38.08 M 75.00 41.81 C 75.00 45.93 75.00 50.06 75.00 54.19 C 77.67 52.14 80.33 50.07 82.99 48.00 C 80.33 45.93 77.67 43.86 75.00 41.81 Z" />
<path fill="#f8fcf8" opacity="1.00" d=" M 42.00 47.00 C 45.33 47.00 48.67 47.00 52.00 47.00 C 52.00 47.75 52.00 49.25 52.00 50.00 C 48.67 50.00 45.33 50.00 42.00 50.00 C 42.00 49.25 42.00 47.75 42.00 47.00 Z" />
<path fill="#f8fcf8" opacity="1.00" d=" M 53.00 47.00 C 53.75 47.00 55.25 47.00 56.00 47.00 C 56.00 47.75 56.00 49.25 56.00 50.00 C 55.25 50.00 53.75 50.00 53.00 50.00 C 53.00 49.25 53.00 47.75 53.00 47.00 Z" />
<path fill="#f8fcf8" opacity="1.00" d=" M 57.00 47.00 C 59.00 47.00 61.00 47.00 63.00 47.00 C 63.00 47.75 63.00 49.25 63.00 50.00 C 61.00 50.00 59.00 50.00 57.00 50.00 C 57.00 49.25 57.00 47.75 57.00 47.00 Z" />
<path fill="#f8fcf8" opacity="1.00" d=" M 57.83 77.35 C 58.06 75.20 56.36 70.79 60.00 71.05 C 60.38 73.13 60.30 75.25 60.17 77.35 C 65.61 77.42 71.05 77.40 76.49 77.37 C 76.44 75.68 76.39 73.99 76.34 72.30 C 76.98 72.25 78.25 72.16 78.89 72.12 C 78.71 74.65 80.04 78.60 76.98 79.82 C 65.03 80.01 53.05 80.01 41.09 79.83 C 37.94 78.72 39.28 74.64 39.12 72.11 C 39.75 72.16 41.03 72.26 41.66 72.31 C 41.61 73.99 41.56 75.68 41.51 77.37 C 46.95 77.39 52.39 77.42 57.83 77.35 Z" />
</g>
</svg>
