<?xml version="1.0" encoding="UTF-8" ?>
<!DOCTYPE svg PUBLIC "-//W3C//DTD SVG 1.1//EN" "http://www.w3.org/Graphics/SVG/1.1/DTD/svg11.dtd">
<svg width="117px" height="140px" viewBox="0 0 117 140" version="1.1" xmlns="http://www.w3.org/2000/svg">
<g id="#000000ff">
<path fill="#000000" opacity="1.00" d=" M 0.00 0.00 L 117.00 0.00 L 117.00 140.00 L 0.00 140.00 L 0.00 0.00 M 33.19 10.25 C 17.93 11.77 5.21 25.63 5.03 40.97 C 4.95 60.00 5.02 79.03 5.00 98.05 C 4.84 111.40 14.02 124.13 26.69 128.29 C 32.54 130.42 38.85 130.00 44.96 130.01 C 57.66 129.91 70.37 130.15 83.06 129.90 C 98.98 129.26 112.81 115.02 112.96 99.08 C 113.06 80.05 112.99 61.01 112.99 41.97 C 113.10 30.66 106.62 19.65 96.74 14.17 C 91.11 10.87 84.48 9.73 78.02 9.98 C 63.08 10.19 48.12 9.65 33.19 10.25 Z" />
<path fill="#000000" opacity="1.00" d=" M 33.24 12.35 C 48.15 11.69 63.10 12.27 78.02 12.05 C 84.69 11.82 91.57 13.06 97.18 16.84 C 105.62 22.15 111.00 31.97 110.91 41.95 C 110.92 60.98 111.00 80.01 110.87 99.04 C 110.78 114.24 97.31 127.71 82.12 127.86 C 66.73 127.99 51.34 127.97 35.95 127.87 C 21.12 127.74 7.81 114.92 7.18 100.09 C 6.90 83.39 7.16 66.67 7.06 49.96 C 7.13 44.31 6.64 38.51 8.43 33.05 C 11.80 22.14 21.82 13.57 33.24 12.35 M 50.31 28.06 C 50.33 37.68 50.32 47.30 50.32 56.92 C 47.12 59.69 44.71 63.65 45.06 68.02 C 45.05 74.32 50.58 80.17 56.99 79.95 C 63.41 80.19 68.97 74.30 68.95 67.98 C 69.32 63.61 66.83 59.70 63.68 56.92 C 63.68 47.30 63.67 37.68 63.69 28.06 C 59.23 28.02 54.77 28.02 50.31 28.06 M 67.79 33.40 C 69.69 33.63 71.61 33.46 73.50 33.25 C 73.52 29.79 66.21 29.50 67.79 33.40 M 67.81 37.88 C 66.46 41.80 71.34 40.13 73.49 40.20 C 73.17 37.11 70.05 37.55 67.81 37.88 M 67.79 47.23 C 69.66 47.45 71.56 47.33 73.43 47.18 C 73.70 43.65 66.22 43.40 67.79 47.23 M 67.79 54.18 C 70.03 54.44 73.28 55.01 73.45 51.81 C 71.25 51.93 66.51 50.26 67.79 54.18 Z" />
<path fill="#000000" opacity="1.00" d=" M 52.92 30.77 C 55.64 30.77 58.36 30.77 61.08 30.77 C 60.88 40.01 61.05 49.25 61.02 58.49 C 62.97 60.02 64.96 61.75 65.76 64.19 C 67.80 69.30 64.54 75.81 59.10 76.98 C 53.51 78.58 47.68 73.57 47.67 67.93 C 47.32 63.99 49.95 60.63 52.98 58.46 C 52.86 49.23 53.18 40.00 52.92 30.77 M 55.66 46.74 C 55.71 51.28 55.63 55.81 55.74 60.34 C 53.62 61.53 51.27 62.92 50.61 65.45 C 49.16 69.61 52.57 74.51 56.99 74.49 C 61.39 74.54 64.86 69.64 63.41 65.49 C 62.74 62.95 60.42 61.52 58.26 60.35 C 58.37 55.82 58.29 51.28 58.34 46.75 C 57.67 46.75 56.33 46.74 55.66 46.74 Z" />
</g>
<g id="#747574ff">
<path fill="#747574" opacity="1.00" d=" M 33.19 10.25 C 48.12 9.65 63.08 10.19 78.02 9.98 C 84.48 9.73 91.11 10.87 96.74 14.17 C 106.62 19.65 113.10 30.66 112.99 41.97 C 112.99 61.01 113.06 80.05 112.96 99.08 C 112.81 115.02 98.98 129.26 83.06 129.90 C 70.37 130.15 57.66 129.91 44.96 130.01 C 38.85 130.00 32.54 130.42 26.69 128.29 C 14.02 124.13 4.84 111.40 5.00 98.05 C 5.02 79.03 4.95 60.00 5.03 40.97 C 5.21 25.63 17.93 11.77 33.19 10.25 M 33.24 12.35 C 21.82 13.57 11.80 22.14 8.43 33.05 C 6.64 38.51 7.13 44.31 7.06 49.96 C 7.16 66.67 6.90 83.39 7.18 100.09 C 7.81 114.92 21.12 127.74 35.95 127.87 C 51.34 127.97 66.73 127.99 82.12 127.86 C 97.31 127.71 110.78 114.24 110.87 99.04 C 111.00 80.01 110.92 60.98 110.91 41.95 C 111.00 31.97 105.62 22.15 97.18 16.84 C 91.57 13.06 84.69 11.82 78.02 12.05 C 63.10 12.27 48.15 11.69 33.24 12.35 Z" />
</g>
<g id="#f8fcf8ff">
<path fill="#f8fcf8" opacity="1.00" d=" M 50.31 28.06 C 54.77 28.02 59.23 28.02 63.69 28.06 C 63.67 37.68 63.68 47.30 63.68 56.92 C 66.83 59.70 69.32 63.61 68.95 67.98 C 68.97 74.30 63.41 80.19 56.99 79.95 C 50.58 80.17 45.05 74.32 45.06 68.02 C 44.71 63.65 47.12 59.69 50.32 56.92 C 50.32 47.30 50.33 37.68 50.31 28.06 M 52.92 30.77 C 53.18 40.00 52.86 49.23 52.98 58.46 C 49.95 60.63 47.32 63.99 47.67 67.93 C 47.68 73.57 53.51 78.58 59.10 76.98 C 64.54 75.81 67.80 69.30 65.76 64.19 C 64.96 61.75 62.97 60.02 61.02 58.49 C 61.05 49.25 60.88 40.01 61.08 30.77 C 58.36 30.77 55.64 30.77 52.92 30.77 Z" />
<path fill="#f8fcf8" opacity="1.00" d=" M 67.79 33.40 C 66.21 29.50 73.52 29.79 73.50 33.25 C 71.61 33.46 69.69 33.63 67.79 33.40 Z" />
<path fill="#f8fcf8" opacity="1.00" d=" M 67.81 37.88 C 70.05 37.55 73.17 37.11 73.49 40.20 C 71.34 40.13 66.46 41.80 67.81 37.88 Z" />
<path fill="#f8fcf8" opacity="1.00" d=" M 67.79 47.23 C 66.22 43.40 73.70 43.65 73.43 47.18 C 71.56 47.33 69.66 47.45 67.79 47.23 Z" />
<path fill="#f8fcf8" opacity="1.00" d=" M 55.66 46.74 C 56.33 46.74 57.67 46.75 58.34 46.75 C 58.29 51.28 58.37 55.82 58.26 60.35 C 60.42 61.52 62.74 62.95 63.41 65.49 C 64.86 69.64 61.39 74.54 56.99 74.49 C 52.57 74.51 49.16 69.61 50.61 65.45 C 51.27 62.92 53.62 61.53 55.74 60.34 C 55.63 55.81 55.71 51.28 55.66 46.74 Z" />
<path fill="#f8fcf8" opacity="1.00" d=" M 67.79 54.18 C 66.51 50.26 71.25 51.93 73.45 51.81 C 73.28 55.01 70.03 54.44 67.79 54.18 Z" />
</g>
</svg>
