<?xml version="1.0" encoding="UTF-8" ?>
<!DOCTYPE svg PUBLIC "-//W3C//DTD SVG 1.1//EN" "http://www.w3.org/Graphics/SVG/1.1/DTD/svg11.dtd">
<svg width="117px" height="140px" viewBox="0 0 117 140" version="1.1" xmlns="http://www.w3.org/2000/svg">
<g id="#000000ff">
<path fill="#000000" opacity="1.00" d=" M 0.00 0.00 L 117.00 0.00 L 117.00 140.00 L 0.00 140.00 L 0.00 0.00 M 54.29 33.21 C 51.52 38.52 48.83 43.87 46.15 49.22 C 44.72 52.00 44.64 55.17 44.66 58.22 C 44.99 58.72 45.66 59.70 46.00 60.20 C 46.63 60.34 47.91 60.64 48.54 60.78 C 45.34 65.50 44.10 71.12 44.69 76.78 C 47.78 76.86 50.96 77.76 54.00 76.79 C 61.50 77.51 69.22 77.43 76.75 76.71 C 77.19 71.12 75.82 65.64 72.84 60.90 C 74.76 60.59 76.89 59.30 76.73 57.08 C 76.87 49.44 71.61 43.30 68.80 36.56 C 67.36 32.65 64.40 29.24 60.08 28.69 C 57.88 29.79 55.42 30.86 54.29 33.21 Z" />
<path fill="#000000" opacity="1.00" d=" M 57.22 34.13 C 58.40 31.79 61.92 31.37 63.58 33.41 C 65.53 35.98 66.63 39.06 68.16 41.87 C 70.51 46.98 74.20 51.83 73.82 57.75 C 71.85 57.76 69.87 57.76 67.90 57.75 C 70.36 62.89 74.05 67.83 73.82 73.81 C 65.09 73.95 56.35 73.81 47.61 73.89 C 47.00 67.84 50.91 62.88 53.38 57.73 C 51.45 57.71 49.52 57.72 47.60 57.72 C 47.65 55.11 47.70 52.39 49.01 50.05 C 51.76 44.75 54.30 39.33 57.22 34.13 Z" />
</g>
<g id="#f7fbf7ff">
<path fill="#f7fbf7" opacity="1.00" d=" M 54.29 33.21 C 55.42 30.86 57.88 29.79 60.08 28.69 C 64.40 29.24 67.36 32.65 68.80 36.56 C 71.61 43.30 76.87 49.44 76.73 57.08 C 76.89 59.30 74.76 60.59 72.84 60.90 C 75.82 65.64 77.19 71.12 76.75 76.71 C 69.22 77.43 61.50 77.51 54.00 76.79 C 50.96 77.76 47.78 76.86 44.69 76.78 C 44.10 71.12 45.34 65.50 48.54 60.78 C 47.91 60.64 46.63 60.34 46.00 60.20 C 45.66 59.70 44.99 58.72 44.66 58.22 C 44.64 55.17 44.72 52.00 46.15 49.22 C 48.83 43.87 51.52 38.52 54.29 33.21 M 57.22 34.13 C 54.30 39.33 51.76 44.75 49.01 50.05 C 47.70 52.39 47.65 55.11 47.60 57.72 C 49.52 57.72 51.45 57.71 53.38 57.73 C 50.91 62.88 47.00 67.84 47.61 73.89 C 56.35 73.81 65.09 73.95 73.82 73.81 C 74.05 67.83 70.36 62.89 67.90 57.75 C 69.87 57.76 71.85 57.76 73.82 57.75 C 74.20 51.83 70.51 46.98 68.16 41.87 C 66.63 39.06 65.53 35.98 63.58 33.41 C 61.92 31.37 58.40 31.79 57.22 34.13 Z" />
</g>
</svg>
