<?xml version="1.0" encoding="UTF-8" ?>
<!DOCTYPE svg PUBLIC "-//W3C//DTD SVG 1.1//EN" "http://www.w3.org/Graphics/SVG/1.1/DTD/svg11.dtd">
<svg width="117px" height="140px" viewBox="0 0 117 140" version="1.1" xmlns="http://www.w3.org/2000/svg">
<g id="#000000ff">
<path fill="#000000" opacity="1.00" d=" M 0.00 0.00 L 117.00 0.00 L 117.00 140.00 L 0.00 140.00 L 0.00 0.00 M 31.71 40.27 C 31.87 45.20 31.70 50.13 31.79 55.06 C 31.70 56.97 32.80 58.60 33.79 60.12 C 41.02 65.56 47.65 71.72 54.80 77.24 C 55.56 77.93 56.29 78.64 57.00 79.38 C 58.87 79.93 61.44 80.39 62.74 78.49 L 63.15 78.39 C 67.04 74.84 71.17 71.56 75.24 68.23 C 79.19 64.19 85.12 61.79 87.32 56.31 C 87.00 50.90 87.39 45.48 87.16 40.07 C 85.82 40.34 84.28 40.22 83.22 41.26 C 83.00 41.52 82.56 42.05 82.34 42.31 C 80.61 43.58 78.95 44.94 77.34 46.36 C 75.11 48.13 72.99 50.03 70.73 51.76 C 68.71 53.38 66.80 55.13 64.78 56.76 C 63.20 58.02 61.62 59.29 60.03 60.54 C 57.93 59.89 56.40 58.28 54.49 57.30 L 54.56 56.73 C 47.89 51.55 41.24 46.21 35.00 40.52 C 33.90 40.42 32.81 40.34 31.71 40.27 Z" />
</g>
<g id="#f8fcf8ff">
<path fill="#f8fcf8" opacity="1.00" d=" M 31.71 40.27 C 32.81 40.34 33.90 40.42 35.00 40.52 C 41.24 46.21 47.89 51.55 54.56 56.73 L 54.49 57.30 C 56.40 58.28 57.93 59.89 60.03 60.54 C 61.62 59.29 63.20 58.02 64.78 56.76 C 66.80 55.13 68.71 53.38 70.73 51.76 C 72.99 50.03 75.11 48.13 77.34 46.36 C 78.95 44.94 80.61 43.58 82.34 42.31 C 82.56 42.05 83.00 41.52 83.22 41.26 C 84.28 40.22 85.82 40.34 87.16 40.07 C 87.39 45.48 87.00 50.90 87.32 56.31 C 85.12 61.79 79.19 64.19 75.24 68.23 C 71.17 71.56 67.04 74.84 63.15 78.39 L 62.74 78.49 C 61.44 80.39 58.87 79.93 57.00 79.38 C 56.29 78.64 55.56 77.93 54.80 77.24 C 47.65 71.72 41.02 65.56 33.79 60.12 C 32.80 58.60 31.70 56.97 31.79 55.06 C 31.70 50.13 31.87 45.20 31.71 40.27 Z" />
</g>
</svg>
