<?xml version="1.0" encoding="UTF-8" ?>
<!DOCTYPE svg PUBLIC "-//W3C//DTD SVG 1.1//EN" "http://www.w3.org/Graphics/SVG/1.1/DTD/svg11.dtd">
<svg width="117px" height="140px" viewBox="0 0 117 140" version="1.1" xmlns="http://www.w3.org/2000/svg">
<g id="#000000ff">
<path fill="#000000" opacity="1.00" d=" M 0.00 0.00 L 117.00 0.00 L 117.00 140.00 L 0.00 140.00 L 0.00 0.00 M 33.18 10.22 C 17.93 11.78 5.19 25.62 5.02 40.97 C 5.02 60.68 4.93 80.40 5.06 100.10 C 5.77 116.05 20.04 129.86 36.01 129.98 C 51.69 129.98 67.38 130.09 83.06 129.93 C 98.98 129.27 112.82 115.03 112.98 99.08 C 113.04 80.06 112.98 61.04 113.00 42.03 C 113.07 33.38 109.38 24.82 103.10 18.89 C 97.02 12.97 88.49 9.76 80.02 9.98 C 64.41 10.17 48.78 9.70 33.18 10.22 Z" />
<path fill="#000000" opacity="1.00" d=" M 30.46 12.71 C 34.90 11.70 39.47 12.06 43.98 12.00 C 57.02 12.06 70.07 11.89 83.11 12.09 C 97.96 12.78 110.85 26.10 110.96 40.98 C 111.02 60.33 111.03 79.69 110.96 99.04 C 110.86 114.30 97.26 127.87 82.00 127.95 C 66.66 128.04 51.32 128.01 35.98 127.97 C 20.73 127.84 7.15 114.31 7.03 99.04 C 6.98 79.68 6.98 60.31 7.03 40.94 C 7.23 27.64 17.48 15.44 30.46 12.71 M 42.01 41.03 C 39.15 43.93 34.03 45.50 33.53 50.04 C 34.08 54.50 39.08 56.04 41.90 58.88 C 43.75 60.94 46.50 60.62 48.88 59.92 C 49.64 57.35 50.16 54.70 50.06 52.00 C 52.04 52.00 54.02 52.00 56.00 52.00 C 56.00 51.25 56.00 49.75 56.00 49.00 C 54.01 49.00 52.02 49.00 50.03 49.00 C 50.20 45.97 49.78 42.96 48.88 40.06 C 46.56 39.44 43.81 38.98 42.01 41.03 M 67.99 41.22 C 68.00 47.08 68.00 52.93 68.00 58.79 C 70.11 59.60 72.46 61.57 74.69 59.91 C 77.40 57.88 80.11 55.85 82.68 53.66 C 84.99 51.95 84.99 48.04 82.68 46.34 C 80.10 44.14 77.37 42.11 74.66 40.06 C 72.42 38.44 70.08 40.38 67.99 41.22 M 57.00 49.00 C 57.00 49.75 57.00 51.25 57.00 52.00 C 57.75 52.00 59.25 52.00 60.00 52.00 C 60.00 51.25 60.00 49.75 60.00 49.00 C 59.25 49.00 57.75 49.00 57.00 49.00 M 61.00 49.00 C 61.00 49.75 61.00 51.25 61.00 52.00 C 63.00 52.00 65.00 52.00 67.00 52.00 C 67.00 51.25 67.00 49.75 67.00 49.00 C 65.00 49.00 63.00 49.00 61.00 49.00 Z" />
<path fill="#000000" opacity="1.00" d=" M 37.01 50.00 C 40.00 47.67 43.01 45.35 46.00 43.01 C 46.00 47.66 46.01 52.31 45.99 56.97 C 42.99 54.65 40.00 52.33 37.01 50.00 Z" />
<path fill="#000000" opacity="1.00" d=" M 72.00 43.01 C 74.99 45.35 78.00 47.67 80.99 50.00 C 78.00 52.33 75.00 54.65 72.01 56.97 C 71.99 52.31 72.00 47.66 72.00 43.01 Z" />
</g>
<g id="#717271ff">
<path fill="#717271" opacity="1.00" d=" M 33.18 10.22 C 48.78 9.70 64.41 10.17 80.02 9.98 C 88.49 9.76 97.02 12.97 103.10 18.89 C 109.38 24.82 113.07 33.38 113.00 42.03 C 112.98 61.04 113.04 80.06 112.98 99.08 C 112.82 115.03 98.98 129.27 83.06 129.93 C 67.38 130.09 51.69 129.98 36.01 129.98 C 20.04 129.86 5.77 116.05 5.06 100.10 C 4.93 80.40 5.02 60.68 5.02 40.97 C 5.19 25.62 17.93 11.78 33.18 10.22 M 30.46 12.71 C 17.48 15.44 7.23 27.64 7.03 40.94 C 6.98 60.31 6.98 79.68 7.03 99.04 C 7.15 114.31 20.73 127.84 35.98 127.97 C 51.32 128.01 66.66 128.04 82.00 127.95 C 97.26 127.87 110.86 114.30 110.96 99.04 C 111.03 79.69 111.02 60.33 110.96 40.98 C 110.85 26.10 97.96 12.78 83.11 12.09 C 70.07 11.89 57.02 12.06 43.98 12.00 C 39.47 12.06 34.90 11.70 30.46 12.71 Z" />
</g>
<g id="#f8fcf8ff">
<path fill="#f8fcf8" opacity="1.00" d=" M 42.01 41.03 C 43.81 38.98 46.56 39.44 48.88 40.06 C 49.78 42.96 50.20 45.97 50.03 49.00 C 52.02 49.00 54.01 49.00 56.00 49.00 C 56.00 49.75 56.00 51.25 56.00 52.00 C 54.02 52.00 52.04 52.00 50.06 52.00 C 50.16 54.70 49.64 57.35 48.88 59.92 C 46.50 60.62 43.75 60.94 41.90 58.88 C 39.08 56.04 34.08 54.50 33.53 50.04 C 34.03 45.50 39.15 43.93 42.01 41.03 M 37.01 50.00 C 40.00 52.33 42.99 54.65 45.99 56.97 C 46.01 52.31 46.00 47.66 46.00 43.01 C 43.01 45.35 40.00 47.67 37.01 50.00 Z" />
<path fill="#f8fcf8" opacity="1.00" d=" M 67.99 41.22 C 70.08 40.38 72.42 38.44 74.66 40.06 C 77.37 42.11 80.10 44.14 82.68 46.34 C 84.99 48.04 84.99 51.95 82.68 53.66 C 80.11 55.85 77.40 57.88 74.69 59.91 C 72.46 61.57 70.11 59.60 68.00 58.79 C 68.00 52.93 68.00 47.08 67.99 41.22 M 72.00 43.01 C 72.00 47.66 71.99 52.31 72.01 56.97 C 75.00 54.65 78.00 52.33 80.99 50.00 C 78.00 47.67 74.99 45.35 72.00 43.01 Z" />
<path fill="#f8fcf8" opacity="1.00" d=" M 57.00 49.00 C 57.75 49.00 59.25 49.00 60.00 49.00 C 60.00 49.75 60.00 51.25 60.00 52.00 C 59.25 52.00 57.75 52.00 57.00 52.00 C 57.00 51.25 57.00 49.75 57.00 49.00 Z" />
<path fill="#f8fcf8" opacity="1.00" d=" M 61.00 49.00 C 63.00 49.00 65.00 49.00 67.00 49.00 C 67.00 49.75 67.00 51.25 67.00 52.00 C 65.00 52.00 63.00 52.00 61.00 52.00 C 61.00 51.25 61.00 49.75 61.00 49.00 Z" />
</g>
</svg>
