<?xml version="1.0" encoding="UTF-8" ?>
<!DOCTYPE svg PUBLIC "-//W3C//DTD SVG 1.1//EN" "http://www.w3.org/Graphics/SVG/1.1/DTD/svg11.dtd">
<svg width="117px" height="140px" viewBox="0 0 117 140" version="1.1" xmlns="http://www.w3.org/2000/svg">
<g id="#000000ff">
<path fill="#000000" opacity="1.00" d=" M 0.00 0.00 L 117.00 0.00 L 117.00 140.00 L 0.00 140.00 L 0.00 0.00 M 33.14 10.24 C 17.90 11.81 5.19 25.65 5.03 40.98 C 4.96 59.99 5.02 79.00 5.00 98.00 C 4.95 106.88 8.86 115.65 15.43 121.60 C 21.47 127.21 29.74 130.22 37.96 130.02 C 52.98 129.92 68.01 130.14 83.03 129.91 C 98.96 129.28 112.81 115.02 112.96 99.07 C 113.05 80.05 112.98 61.03 112.99 42.01 C 113.06 32.89 108.92 23.88 102.03 17.92 C 95.78 12.35 87.30 9.63 78.98 9.98 C 63.70 10.18 48.40 9.67 33.14 10.24 Z" />
<path fill="#000000" opacity="1.00" d=" M 33.24 12.34 C 48.49 11.72 63.77 12.25 79.04 12.06 C 85.39 11.88 91.88 13.29 97.20 16.87 C 105.65 22.18 111.03 32.02 110.91 42.00 C 110.95 60.67 110.95 79.35 110.91 98.02 C 111.03 108.50 105.08 118.80 95.93 123.91 C 91.17 126.76 85.59 127.98 80.08 127.93 C 65.71 127.92 51.34 127.96 36.97 127.91 C 21.00 128.32 6.62 113.96 7.09 97.97 C 7.03 80.33 7.10 62.69 7.06 45.06 C 6.91 39.57 7.48 33.90 10.09 28.98 C 14.34 19.99 23.35 13.46 33.24 12.34 M 39.00 33.04 C 38.86 41.47 38.95 49.89 38.94 58.31 C 38.33 58.39 37.12 58.54 36.52 58.61 C 36.20 62.65 40.99 64.57 43.20 67.37 C 46.29 65.99 48.55 63.36 50.72 60.86 C 50.88 59.34 50.33 57.89 48.48 58.46 C 48.83 50.05 48.41 41.62 48.75 33.21 C 45.52 32.65 42.24 32.80 39.00 33.04 M 68.27 33.22 C 68.68 41.61 68.26 50.02 68.54 58.42 C 66.66 57.96 66.16 59.31 66.28 60.86 C 68.47 63.32 70.63 66.11 73.81 67.33 C 75.99 64.48 80.77 62.66 80.54 58.61 C 79.94 58.54 78.72 58.41 78.12 58.34 C 78.08 49.90 78.28 41.46 77.99 33.02 C 74.76 32.82 71.48 32.64 68.27 33.22 M 33.07 71.10 C 33.05 73.61 32.35 76.30 33.28 78.71 C 36.08 80.18 39.40 79.32 42.44 79.47 C 41.67 81.72 43.05 82.24 45.03 82.14 C 45.03 81.48 45.04 80.16 45.05 79.50 C 54.02 79.52 62.99 79.52 71.96 79.50 C 71.96 80.13 71.96 81.39 71.97 82.02 C 72.64 82.00 73.99 81.96 74.67 81.93 C 74.62 81.32 74.52 80.09 74.48 79.48 C 77.52 79.28 80.88 80.22 83.69 78.72 C 84.68 76.33 83.93 73.61 83.93 71.10 C 66.98 70.94 50.02 70.95 33.07 71.10 Z" />
<path fill="#000000" opacity="1.00" d=" M 41.93 35.96 C 43.16 35.96 44.39 35.97 45.62 35.97 C 45.95 44.37 44.91 52.88 46.20 61.19 C 45.34 62.08 44.45 62.95 43.57 63.83 C 42.82 63.03 42.06 62.24 41.30 61.46 C 42.71 53.08 41.56 44.44 41.93 35.96 Z" />
<path fill="#000000" opacity="1.00" d=" M 71.44 35.98 C 72.67 35.97 73.90 35.96 75.13 35.95 C 75.50 44.37 74.37 52.94 75.75 61.26 C 74.93 62.12 74.11 62.98 73.30 63.84 C 72.48 62.98 71.65 62.12 70.84 61.25 C 72.19 52.93 71.10 44.39 71.44 35.98 Z" />
<path fill="#000000" opacity="1.00" d=" M 35.89 74.10 C 50.96 74.10 66.04 74.10 81.11 74.09 C 81.14 74.69 81.18 75.89 81.21 76.49 C 66.07 76.48 50.93 76.48 35.79 76.49 C 35.82 75.89 35.86 74.69 35.89 74.10 Z" />
</g>
<g id="#747474ff">
<path fill="#747474" opacity="1.00" d=" M 33.14 10.24 C 48.40 9.67 63.70 10.18 78.98 9.98 C 87.30 9.63 95.78 12.35 102.03 17.92 C 108.92 23.88 113.06 32.89 112.99 42.01 C 112.98 61.03 113.05 80.05 112.96 99.07 C 112.81 115.02 98.96 129.28 83.03 129.91 C 68.01 130.14 52.98 129.92 37.96 130.02 C 29.74 130.22 21.47 127.21 15.43 121.60 C 8.86 115.65 4.95 106.88 5.00 98.00 C 5.02 79.00 4.96 59.99 5.03 40.98 C 5.19 25.65 17.90 11.81 33.14 10.24 M 33.24 12.34 C 23.35 13.46 14.34 19.99 10.09 28.98 C 7.48 33.90 6.91 39.57 7.06 45.06 C 7.10 62.69 7.03 80.33 7.09 97.97 C 6.62 113.96 21.00 128.32 36.97 127.91 C 51.34 127.96 65.71 127.92 80.08 127.93 C 85.59 127.98 91.17 126.76 95.93 123.91 C 105.08 118.80 111.03 108.50 110.91 98.02 C 110.95 79.35 110.95 60.67 110.91 42.00 C 111.03 32.02 105.65 22.18 97.20 16.87 C 91.88 13.29 85.39 11.88 79.04 12.06 C 63.77 12.25 48.49 11.72 33.24 12.34 Z" />
</g>
<g id="#f8fcf8ff">
<path fill="#f8fcf8" opacity="1.00" d=" M 39.00 33.04 C 42.24 32.80 45.52 32.65 48.75 33.21 C 48.41 41.62 48.83 50.05 48.48 58.46 C 50.33 57.89 50.88 59.34 50.72 60.86 C 48.55 63.36 46.29 65.99 43.20 67.37 C 40.99 64.57 36.20 62.65 36.52 58.61 C 37.12 58.54 38.33 58.39 38.94 58.31 C 38.95 49.89 38.86 41.47 39.00 33.04 M 41.93 35.96 C 41.56 44.44 42.71 53.08 41.30 61.46 C 42.06 62.24 42.82 63.03 43.57 63.83 C 44.45 62.95 45.34 62.08 46.20 61.19 C 44.91 52.88 45.95 44.37 45.62 35.97 C 44.39 35.97 43.16 35.96 41.93 35.96 Z" />
<path fill="#f8fcf8" opacity="1.00" d=" M 68.27 33.22 C 71.48 32.64 74.76 32.82 77.99 33.02 C 78.28 41.46 78.08 49.90 78.12 58.34 C 78.72 58.41 79.94 58.54 80.54 58.61 C 80.77 62.66 75.99 64.48 73.81 67.33 C 70.63 66.11 68.47 63.32 66.28 60.86 C 66.16 59.31 66.66 57.96 68.54 58.42 C 68.26 50.02 68.68 41.61 68.27 33.22 M 71.44 35.98 C 71.10 44.39 72.19 52.93 70.84 61.25 C 71.65 62.12 72.48 62.98 73.30 63.84 C 74.11 62.98 74.93 62.12 75.75 61.26 C 74.37 52.94 75.50 44.37 75.13 35.95 C 73.90 35.96 72.67 35.97 71.44 35.98 Z" />
<path fill="#f8fcf8" opacity="1.00" d=" M 33.07 71.10 C 50.02 70.95 66.98 70.94 83.93 71.10 C 83.93 73.61 84.68 76.33 83.69 78.72 C 80.88 80.22 77.52 79.28 74.48 79.48 C 74.52 80.09 74.62 81.32 74.67 81.93 C 73.99 81.96 72.64 82.00 71.97 82.02 C 71.96 81.39 71.96 80.13 71.96 79.50 C 62.99 79.52 54.02 79.52 45.05 79.50 C 45.04 80.16 45.03 81.48 45.03 82.14 C 43.05 82.24 41.67 81.72 42.44 79.47 C 39.40 79.32 36.08 80.18 33.28 78.71 C 32.35 76.30 33.05 73.61 33.07 71.10 M 35.89 74.10 C 35.86 74.69 35.82 75.89 35.79 76.49 C 50.93 76.48 66.07 76.48 81.21 76.49 C 81.18 75.89 81.14 74.69 81.11 74.09 C 66.04 74.10 50.96 74.10 35.89 74.10 Z" />
</g>
</svg>
