<?xml version="1.0" encoding="UTF-8" ?>
<!DOCTYPE svg PUBLIC "-//W3C//DTD SVG 1.1//EN" "http://www.w3.org/Graphics/SVG/1.1/DTD/svg11.dtd">
<svg width="117px" height="140px" viewBox="0 0 117 140" version="1.1" xmlns="http://www.w3.org/2000/svg">
<g id="#384450ff">
<path fill="#384450" opacity="1.00" d=" M 0.00 0.00 L 117.00 0.00 L 117.00 140.00 L 0.00 140.00 L 0.00 0.00 M 41.16 53.20 C 38.67 54.49 38.66 58.50 41.16 59.78 C 44.04 62.21 48.65 58.12 46.86 54.94 C 45.92 52.85 43.08 51.62 41.16 53.20 M 56.55 53.41 C 53.54 55.48 55.47 60.85 59.09 60.41 C 61.85 60.63 64.10 56.84 62.39 54.52 C 61.31 52.45 58.22 51.76 56.55 53.41 M 72.36 53.43 C 67.84 56.39 73.87 63.41 77.47 59.27 C 81.26 56.29 75.81 50.01 72.36 53.43 Z" />
</g>
<g id="#f8fcf8ff">
<path fill="#f8fcf8" opacity="1.00" d=" M 41.16 53.20 C 43.08 51.62 45.92 52.85 46.86 54.94 C 48.65 58.12 44.04 62.21 41.16 59.78 C 38.66 58.50 38.67 54.49 41.16 53.20 Z" />
<path fill="#f8fcf8" opacity="1.00" d=" M 56.55 53.41 C 58.22 51.76 61.31 52.45 62.39 54.52 C 64.10 56.84 61.85 60.63 59.09 60.41 C 55.47 60.85 53.54 55.48 56.55 53.41 Z" />
<path fill="#f8fcf8" opacity="1.00" d=" M 72.36 53.43 C 75.81 50.01 81.26 56.29 77.47 59.27 C 73.87 63.41 67.84 56.39 72.36 53.43 Z" />
</g>
</svg>
