<?xml version="1.0" encoding="UTF-8" ?>
<!DOCTYPE svg PUBLIC "-//W3C//DTD SVG 1.1//EN" "http://www.w3.org/Graphics/SVG/1.1/DTD/svg11.dtd">
<svg width="117px" height="140px" viewBox="0 0 117 140" version="1.1" xmlns="http://www.w3.org/2000/svg">
<g id="#000000ff">
<path fill="#000000" opacity="1.00" d=" M 0.00 0.00 L 117.00 0.00 L 117.00 140.00 L 0.00 140.00 L 0.00 0.00 M 33.23 10.24 C 17.98 11.76 5.23 25.58 5.04 40.92 C 4.97 60.31 4.98 79.70 5.04 99.09 C 5.20 115.39 19.66 129.83 35.97 129.96 C 51.67 129.99 67.37 130.11 83.07 129.90 C 98.97 129.26 112.78 115.03 112.95 99.12 C 113.06 80.07 112.99 61.02 112.99 41.97 C 113.04 32.88 108.93 23.92 102.08 17.96 C 95.82 12.36 87.32 9.64 78.98 9.98 C 63.73 10.18 48.46 9.67 33.23 10.24 Z" />
<path fill="#000000" opacity="1.00" d=" M 33.25 12.33 C 48.48 11.72 63.75 12.25 79.00 12.06 C 85.35 11.88 91.83 13.25 97.16 16.83 C 105.62 22.13 111.04 31.99 110.91 41.98 C 110.98 59.64 110.90 77.30 110.94 94.96 C 111.10 100.66 110.45 106.56 107.62 111.62 C 102.76 121.51 92.00 128.03 81.01 127.91 C 65.67 127.90 50.33 128.05 35.00 127.83 C 20.15 127.23 7.22 113.91 7.12 99.03 C 7.03 79.68 7.03 60.32 7.12 40.97 C 7.26 26.73 19.08 13.78 33.25 12.33 M 46.08 30.10 C 46.15 35.69 46.12 41.28 46.12 46.86 C 43.96 46.87 41.80 46.86 39.65 46.87 C 39.64 52.06 39.67 57.26 39.62 62.45 C 42.92 62.46 46.22 62.45 49.52 62.48 C 52.46 65.35 55.13 68.52 58.38 71.05 C 57.30 73.00 57.82 75.25 57.80 77.35 C 52.37 77.41 46.94 77.39 41.51 77.37 C 41.56 75.68 41.61 73.98 41.66 72.29 C 41.01 72.25 39.72 72.18 39.07 72.14 C 39.30 74.66 37.98 78.54 40.97 79.81 C 52.66 80.09 64.38 79.91 76.09 79.90 C 80.03 79.77 78.82 74.78 78.93 72.14 C 78.28 72.18 76.99 72.25 76.34 72.29 C 76.39 73.98 76.43 75.68 76.49 77.37 C 71.06 77.39 65.63 77.41 60.20 77.36 C 60.18 75.25 60.70 72.99 59.62 71.05 C 62.88 68.52 65.54 65.34 68.49 62.48 C 71.79 62.45 75.08 62.46 78.38 62.45 C 78.33 57.26 78.36 52.06 78.35 46.87 C 76.19 46.86 74.04 46.87 71.88 46.86 C 71.88 41.27 71.85 35.69 71.92 30.10 C 63.31 30.03 54.69 30.03 46.08 30.10 Z" />
<path fill="#000000" opacity="1.00" d=" M 48.65 32.62 C 55.55 32.61 62.45 32.61 69.35 32.62 C 69.26 38.22 69.43 43.82 69.21 49.42 C 71.42 49.47 73.64 49.49 75.86 49.53 C 75.75 52.95 75.75 56.38 75.83 59.80 C 64.61 59.86 53.39 59.86 42.17 59.80 C 42.25 56.37 42.25 52.95 42.14 49.52 C 48.69 49.40 55.24 49.56 61.79 49.44 C 61.68 48.57 61.58 47.70 61.49 46.83 C 57.23 46.89 52.96 46.86 48.70 46.87 C 48.68 45.14 48.67 43.41 48.65 41.69 C 52.99 41.62 57.33 41.94 61.65 41.53 C 61.66 40.93 61.69 39.74 61.70 39.15 C 57.36 39.11 53.03 39.11 48.69 39.15 C 48.68 36.98 48.67 34.80 48.65 32.62 Z" />
<path fill="#000000" opacity="1.00" d=" M 52.98 62.55 C 56.99 62.39 61.00 62.40 65.00 62.53 C 62.99 64.52 60.95 66.47 59.00 68.52 C 57.05 66.47 55.02 64.51 52.98 62.55 Z" />
</g>
<g id="#757675ff">
<path fill="#757675" opacity="1.00" d=" M 33.23 10.24 C 48.46 9.67 63.73 10.18 78.98 9.98 C 87.32 9.64 95.82 12.36 102.08 17.96 C 108.93 23.92 113.04 32.88 112.99 41.97 C 112.99 61.02 113.06 80.07 112.95 99.12 C 112.78 115.03 98.97 129.26 83.07 129.90 C 67.37 130.11 51.67 129.99 35.97 129.96 C 19.66 129.83 5.20 115.39 5.04 99.09 C 4.98 79.70 4.97 60.31 5.04 40.92 C 5.23 25.58 17.98 11.76 33.23 10.24 M 33.25 12.33 C 19.08 13.78 7.26 26.73 7.12 40.97 C 7.03 60.32 7.03 79.68 7.12 99.03 C 7.22 113.91 20.15 127.23 35.00 127.83 C 50.33 128.05 65.67 127.90 81.01 127.91 C 92.00 128.03 102.76 121.51 107.62 111.62 C 110.45 106.56 111.10 100.66 110.94 94.96 C 110.90 77.30 110.98 59.64 110.91 41.98 C 111.04 31.99 105.62 22.13 97.16 16.83 C 91.83 13.25 85.35 11.88 79.00 12.06 C 63.75 12.25 48.48 11.72 33.25 12.33 Z" />
</g>
<g id="#f7fbf7ff">
<path fill="#f7fbf7" opacity="1.00" d=" M 46.08 30.10 C 54.69 30.03 63.31 30.03 71.92 30.10 C 71.85 35.69 71.88 41.27 71.88 46.86 C 74.04 46.87 76.19 46.86 78.35 46.87 C 78.36 52.06 78.33 57.26 78.38 62.45 C 75.08 62.46 71.79 62.45 68.49 62.48 C 65.54 65.34 62.88 68.52 59.62 71.05 C 60.70 72.99 60.18 75.25 60.20 77.36 C 65.63 77.41 71.06 77.39 76.49 77.37 C 76.43 75.68 76.39 73.98 76.34 72.29 C 76.99 72.25 78.28 72.18 78.93 72.14 C 78.82 74.78 80.03 79.77 76.09 79.90 C 64.38 79.91 52.66 80.09 40.97 79.81 C 37.98 78.54 39.30 74.66 39.07 72.14 C 39.72 72.18 41.01 72.25 41.66 72.29 C 41.61 73.98 41.56 75.68 41.51 77.37 C 46.94 77.39 52.37 77.41 57.80 77.35 C 57.82 75.25 57.30 73.00 58.38 71.05 C 55.13 68.52 52.46 65.35 49.52 62.48 C 46.22 62.45 42.92 62.46 39.62 62.45 C 39.67 57.26 39.64 52.06 39.65 46.87 C 41.80 46.86 43.96 46.87 46.12 46.86 C 46.12 41.28 46.15 35.69 46.08 30.10 M 48.65 32.62 C 48.67 34.80 48.68 36.98 48.69 39.15 C 53.03 39.11 57.36 39.11 61.70 39.15 C 61.69 39.74 61.66 40.93 61.65 41.53 C 57.33 41.94 52.99 41.62 48.65 41.69 C 48.67 43.41 48.68 45.14 48.70 46.87 C 52.96 46.86 57.23 46.89 61.49 46.83 C 61.58 47.70 61.68 48.57 61.79 49.44 C 55.24 49.56 48.69 49.40 42.14 49.52 C 42.25 52.95 42.25 56.37 42.17 59.80 C 53.39 59.86 64.61 59.86 75.83 59.80 C 75.75 56.38 75.75 52.95 75.86 49.53 C 73.64 49.49 71.42 49.47 69.21 49.42 C 69.43 43.82 69.26 38.22 69.35 32.62 C 62.45 32.61 55.55 32.61 48.65 32.62 M 52.98 62.55 C 55.02 64.51 57.05 66.47 59.00 68.52 C 60.95 66.47 62.99 64.52 65.00 62.53 C 61.00 62.40 56.99 62.39 52.98 62.55 Z" />
</g>
</svg>
