<?xml version="1.0" encoding="UTF-8" ?>
<!DOCTYPE svg PUBLIC "-//W3C//DTD SVG 1.1//EN" "http://www.w3.org/Graphics/SVG/1.1/DTD/svg11.dtd">
<svg width="32px" height="21px" viewBox="0 0 32 21" version="1.1" xmlns="http://www.w3.org/2000/svg">
<g id="#e0e000ff">
<path fill="#e0e000" opacity="1.00" d=" M 0.00 0.00 L 10.30 0.00 C 6.82 3.43 3.41 6.94 0.00 10.44 L 0.00 0.00 Z" />
<path fill="#e0e000" opacity="1.00" d=" M 31.00 0.00 L 32.00 0.00 L 32.00 21.00 L 31.00 21.00 C 31.00 14.00 31.00 7.00 31.00 0.00 Z" />
<path fill="#e0e000" opacity="1.00" d=" M 11.16 2.02 C 17.11 1.98 23.05 2.01 29.00 2.00 C 29.00 7.67 29.00 13.33 29.00 19.00 C 23.06 19.00 17.11 19.02 11.17 18.98 C 8.41 16.20 5.71 13.35 2.87 10.65 C 5.44 7.59 8.42 4.92 11.16 2.02 M 13.37 6.06 C 14.86 7.54 16.31 9.07 17.73 10.63 C 16.25 12.00 14.81 13.41 13.43 14.88 C 13.80 15.24 14.53 15.97 14.90 16.33 C 16.33 14.88 17.76 13.42 19.21 11.98 C 20.66 13.56 22.18 15.09 23.87 16.43 C 26.10 13.92 21.75 12.41 20.63 10.52 C 21.77 8.60 26.13 7.06 23.84 4.57 C 22.19 5.94 20.66 7.46 19.20 9.02 C 17.34 7.96 15.59 3.17 13.37 6.06 Z" />
<path fill="#e0e000" opacity="1.00" d=" M 0.00 10.54 C 3.41 14.05 6.82 17.56 10.30 21.00 L 0.00 21.00 L 0.00 10.54 Z" />
</g>
<g id="#000000ff">
<path fill="#000000" opacity="1.00" d=" M 10.30 0.00 L 31.00 0.00 C 31.00 7.00 31.00 14.00 31.00 21.00 L 10.30 21.00 C 6.82 17.56 3.41 14.05 0.00 10.54 L 0.00 10.44 C 3.41 6.94 6.82 3.43 10.30 0.00 M 11.16 2.02 C 8.42 4.92 5.44 7.59 2.87 10.65 C 5.71 13.35 8.41 16.20 11.17 18.98 C 17.11 19.02 23.06 19.00 29.00 19.00 C 29.00 13.33 29.00 7.67 29.00 2.00 C 23.05 2.01 17.11 1.98 11.16 2.02 Z" />
<path fill="#000000" opacity="1.00" d=" M 13.37 6.06 C 15.59 3.17 17.34 7.96 19.20 9.02 C 20.66 7.46 22.19 5.94 23.84 4.57 C 26.13 7.06 21.77 8.60 20.63 10.52 C 21.75 12.41 26.10 13.92 23.87 16.43 C 22.18 15.09 20.66 13.56 19.21 11.98 C 17.76 13.42 16.33 14.88 14.90 16.33 C 14.53 15.97 13.80 15.24 13.43 14.88 C 14.81 13.41 16.25 12.00 17.73 10.63 C 16.31 9.07 14.86 7.54 13.37 6.06 Z" />
</g>
</svg>
