<?xml version="1.0" encoding="UTF-8" ?>
<!DOCTYPE svg PUBLIC "-//W3C//DTD SVG 1.1//EN" "http://www.w3.org/Graphics/SVG/1.1/DTD/svg11.dtd">
<svg width="117px" height="140px" viewBox="0 0 117 140" version="1.1" xmlns="http://www.w3.org/2000/svg">
<g id="#000000ff">
<path fill="#000000" opacity="1.00" d=" M 0.00 0.00 L 117.00 0.00 L 117.00 140.00 L 0.00 140.00 L 0.00 0.00 M 33.10 10.23 C 17.88 11.82 5.18 25.65 5.02 40.98 C 4.99 60.33 4.99 79.67 5.02 99.02 C 5.16 115.00 19.01 129.29 34.97 129.93 C 50.67 130.08 66.37 129.99 82.07 129.97 C 98.03 129.82 112.29 115.97 112.93 100.03 C 113.09 80.67 112.95 61.31 113.00 41.95 C 113.19 28.86 104.35 16.34 92.04 11.97 C 84.66 9.06 76.63 10.23 68.91 10.00 C 56.98 10.15 45.02 9.70 33.10 10.23 Z" />
<path fill="#000000" opacity="1.00" d=" M 30.52 12.69 C 33.94 11.92 37.48 11.98 40.97 12.00 C 54.99 12.06 69.02 11.88 83.04 12.08 C 97.91 12.74 110.84 26.06 110.96 40.96 C 111.04 59.98 110.99 78.99 110.99 98.01 C 111.42 113.64 97.65 127.87 82.01 127.95 C 66.65 128.04 51.27 128.01 35.90 127.97 C 20.67 127.79 7.14 114.27 7.03 99.03 C 6.98 79.67 6.98 60.32 7.03 40.96 C 7.22 27.63 17.50 15.40 30.52 12.69 M 46.02 41.01 C 43.17 43.93 38.04 45.48 37.53 50.04 C 37.99 54.33 42.75 55.84 45.46 58.54 C 47.39 60.68 50.30 60.86 52.87 59.92 C 53.65 57.35 54.15 54.70 54.05 52.01 C 54.54 52.00 55.51 51.99 56.00 51.99 C 56.00 51.24 56.00 49.76 56.00 49.01 C 55.51 49.01 54.52 49.00 54.02 48.99 C 54.19 45.96 53.80 42.95 52.88 40.07 C 50.57 39.41 47.83 39.01 46.02 41.01 M 63.99 41.23 C 64.01 43.82 63.99 46.41 64.00 49.00 C 63.25 49.00 61.75 49.00 61.00 49.00 C 61.00 49.75 61.00 51.25 61.00 52.00 C 61.75 52.00 63.25 52.00 64.00 52.00 C 64.00 54.26 64.00 56.51 63.99 58.77 C 66.09 59.66 68.47 61.53 70.72 59.89 C 73.39 57.88 76.08 55.86 78.65 53.70 C 81.00 51.95 80.99 48.04 78.64 46.29 C 76.07 44.14 73.39 42.12 70.72 40.11 C 68.50 38.44 66.06 40.34 63.99 41.23 M 57.00 49.00 C 57.00 49.75 57.00 51.25 57.00 52.00 C 57.75 52.00 59.25 52.00 60.00 52.00 C 60.00 51.25 60.00 49.75 60.00 49.00 C 59.25 49.00 57.75 49.00 57.00 49.00 Z" />
<path fill="#000000" opacity="1.00" d=" M 41.01 50.00 C 44.00 47.67 47.01 45.35 50.00 43.02 C 50.00 47.67 50.01 52.32 49.99 56.97 C 46.99 54.64 44.00 52.33 41.01 50.00 Z" />
<path fill="#000000" opacity="1.00" d=" M 68.01 56.97 C 68.09 52.31 67.76 47.64 68.22 43.00 C 71.02 45.49 74.05 47.69 76.99 50.00 C 74.00 52.33 71.01 54.65 68.01 56.97 Z" />
</g>
<g id="#717271ff">
<path fill="#717271" opacity="1.00" d=" M 33.10 10.23 C 45.02 9.70 56.98 10.15 68.91 10.00 C 76.63 10.23 84.66 9.06 92.04 11.97 C 104.35 16.34 113.19 28.86 113.00 41.95 C 112.95 61.31 113.09 80.67 112.93 100.03 C 112.29 115.97 98.03 129.82 82.07 129.97 C 66.37 129.99 50.67 130.08 34.97 129.93 C 19.01 129.29 5.16 115.00 5.02 99.02 C 4.99 79.67 4.99 60.33 5.02 40.98 C 5.18 25.65 17.88 11.82 33.10 10.23 M 30.52 12.69 C 17.50 15.40 7.22 27.63 7.03 40.96 C 6.98 60.32 6.98 79.67 7.03 99.03 C 7.14 114.27 20.67 127.79 35.90 127.97 C 51.27 128.01 66.65 128.04 82.01 127.95 C 97.65 127.87 111.42 113.64 110.99 98.01 C 110.99 78.99 111.04 59.98 110.96 40.96 C 110.84 26.06 97.91 12.74 83.04 12.08 C 69.02 11.88 54.99 12.06 40.97 12.00 C 37.48 11.98 33.94 11.92 30.52 12.69 Z" />
</g>
<g id="#f8fcf8ff">
<path fill="#f8fcf8" opacity="1.00" d=" M 46.02 41.01 C 47.83 39.01 50.57 39.41 52.88 40.07 C 53.80 42.95 54.19 45.96 54.02 48.99 C 54.52 49.00 55.51 49.01 56.00 49.01 C 56.00 49.76 56.00 51.24 56.00 51.99 C 55.51 51.99 54.54 52.00 54.05 52.01 C 54.15 54.70 53.65 57.35 52.87 59.92 C 50.30 60.86 47.39 60.68 45.46 58.54 C 42.75 55.84 37.99 54.33 37.53 50.04 C 38.04 45.48 43.17 43.93 46.02 41.01 M 41.01 50.00 C 44.00 52.33 46.99 54.64 49.99 56.97 C 50.01 52.32 50.00 47.67 50.00 43.02 C 47.01 45.35 44.00 47.67 41.01 50.00 Z" />
<path fill="#f8fcf8" opacity="1.00" d=" M 63.99 41.23 C 66.06 40.34 68.50 38.44 70.72 40.11 C 73.39 42.12 76.07 44.14 78.64 46.29 C 80.99 48.04 81.00 51.95 78.65 53.70 C 76.08 55.86 73.39 57.88 70.72 59.89 C 68.47 61.53 66.09 59.66 63.99 58.77 C 64.00 56.51 64.00 54.26 64.00 52.00 C 63.25 52.00 61.75 52.00 61.00 52.00 C 61.00 51.25 61.00 49.75 61.00 49.00 C 61.75 49.00 63.25 49.00 64.00 49.00 C 63.99 46.41 64.01 43.82 63.99 41.23 M 68.01 56.97 C 71.01 54.65 74.00 52.33 76.99 50.00 C 74.05 47.69 71.02 45.49 68.22 43.00 C 67.76 47.64 68.09 52.31 68.01 56.97 Z" />
<path fill="#f8fcf8" opacity="1.00" d=" M 57.00 49.00 C 57.75 49.00 59.25 49.00 60.00 49.00 C 60.00 49.75 60.00 51.25 60.00 52.00 C 59.25 52.00 57.75 52.00 57.00 52.00 C 57.00 51.25 57.00 49.75 57.00 49.00 Z" />
</g>
</svg>
