<?xml version="1.0" encoding="UTF-8" ?>
<!DOCTYPE svg PUBLIC "-//W3C//DTD SVG 1.1//EN" "http://www.w3.org/Graphics/SVG/1.1/DTD/svg11.dtd">
<svg width="28px" height="21px" viewBox="0 0 28 21" version="1.1" xmlns="http://www.w3.org/2000/svg">
<g id="#000000ff">
<path fill="#000000" opacity="1.00" d=" M 0.00 0.00 L 13.43 0.00 C 8.94 4.43 4.52 8.93 0.03 13.36 L 0.00 12.66 L 0.00 0.00 Z" />
<path fill="#000000" opacity="1.00" d=" M 13.58 0.00 L 28.00 0.00 L 28.00 21.00 L 19.06 21.00 C 19.06 18.51 19.07 16.01 19.07 13.52 C 21.73 13.51 24.39 13.51 27.06 13.50 C 22.60 8.97 18.08 4.49 13.58 0.00 Z" />
<path fill="#000000" opacity="1.00" d=" M 13.47 2.80 C 16.40 5.63 19.25 8.54 22.12 11.43 C 20.47 11.42 18.81 11.42 17.15 11.42 C 17.07 13.95 17.11 16.47 17.10 18.99 C 14.70 19.00 12.30 19.00 9.90 19.00 C 9.90 16.48 9.91 13.96 9.87 11.44 C 8.21 11.43 6.54 11.42 4.88 11.43 C 7.72 8.53 10.61 5.68 13.47 2.80 Z" />
<path fill="#000000" opacity="1.00" d=" M 0.00 13.49 C 2.64 13.51 5.29 13.52 7.93 13.52 C 7.93 16.01 7.94 18.51 7.94 21.00 L 0.00 21.00 L 0.00 13.49 Z" />
</g>
<g id="#f8fcf8ff">
<path fill="#f8fcf8" opacity="1.00" d=" M 13.43 0.00 L 13.58 0.00 C 18.08 4.49 22.60 8.97 27.06 13.50 C 24.39 13.51 21.73 13.51 19.07 13.52 C 19.07 16.01 19.06 18.51 19.06 21.00 L 7.94 21.00 C 7.94 18.51 7.93 16.01 7.93 13.52 C 5.29 13.52 2.64 13.51 0.00 13.49 L 0.00 12.66 L 0.03 13.36 C 4.52 8.93 8.94 4.43 13.43 0.00 M 13.47 2.80 C 10.61 5.68 7.72 8.53 4.88 11.43 C 6.54 11.42 8.21 11.43 9.87 11.44 C 9.91 13.96 9.90 16.48 9.90 19.00 C 12.30 19.00 14.70 19.00 17.10 18.99 C 17.11 16.47 17.07 13.95 17.15 11.42 C 18.81 11.42 20.47 11.42 22.12 11.43 C 19.25 8.54 16.40 5.63 13.47 2.80 Z" />
</g>
</svg>
