<?xml version="1.0" encoding="UTF-8" ?>
<!DOCTYPE svg PUBLIC "-//W3C//DTD SVG 1.1//EN" "http://www.w3.org/Graphics/SVG/1.1/DTD/svg11.dtd">
<svg width="117px" height="140px" viewBox="0 0 117 140" version="1.1" xmlns="http://www.w3.org/2000/svg">
<g id="#000000ff">
<path fill="#000000" opacity="1.00" d=" M 0.00 0.00 L 117.00 0.00 L 117.00 140.00 L 0.00 140.00 L 0.00 0.00 M 33.20 10.22 C 17.93 11.77 5.17 25.63 5.02 41.00 C 4.98 60.36 4.98 79.73 5.02 99.09 C 5.20 115.03 19.03 129.28 34.97 129.92 C 50.33 130.11 65.70 129.95 81.06 129.99 C 92.62 130.11 103.87 123.30 109.21 113.06 C 112.10 107.89 113.21 101.90 113.02 96.02 C 112.97 78.01 113.02 60.00 113.00 42.00 C 113.07 32.88 108.93 23.87 102.04 17.91 C 95.80 12.35 87.34 9.62 79.03 9.98 C 63.76 10.18 48.46 9.69 33.20 10.22 Z" />
<path fill="#000000" opacity="1.00" d=" M 33.24 12.34 C 48.47 11.71 63.74 12.25 78.99 12.06 C 85.34 11.88 91.82 13.28 97.15 16.85 C 105.61 22.13 111.00 31.98 110.90 41.96 C 110.95 60.63 110.94 79.30 110.91 97.96 C 111.05 108.96 104.50 119.73 94.63 124.61 C 89.26 127.57 82.99 128.10 76.98 127.95 C 63.66 127.89 50.34 127.97 37.02 127.91 C 26.03 128.02 15.26 121.49 10.39 111.62 C 7.96 107.15 7.00 102.02 7.07 96.96 C 7.10 78.29 6.99 59.61 7.13 40.94 C 7.31 26.71 19.09 13.81 33.24 12.34 M 73.58 37.88 C 71.11 42.27 71.36 47.83 73.77 52.19 C 75.49 55.13 75.61 58.76 73.99 61.77 C 74.52 62.22 75.58 63.11 76.11 63.56 C 77.20 61.54 78.19 59.36 78.03 57.01 C 78.14 52.67 74.51 49.30 74.67 44.95 C 74.56 42.83 75.47 40.87 76.07 38.88 C 77.34 37.16 73.91 36.10 73.58 37.88 M 55.40 43.88 C 54.05 48.51 56.39 52.84 58.09 56.97 C 59.82 60.04 55.39 63.80 59.26 65.78 C 61.54 62.35 61.93 57.82 60.04 54.12 C 58.33 50.84 57.05 46.95 58.55 43.33 C 58.84 41.96 60.19 40.38 58.95 39.12 C 56.33 38.66 56.02 42.06 55.40 43.88 M 39.65 57.15 C 41.45 60.26 41.99 64.10 40.10 67.31 C 40.86 67.93 41.64 68.52 42.45 69.08 C 44.27 65.62 44.86 61.43 43.06 57.83 C 41.38 54.55 39.99 50.77 41.34 47.11 C 41.69 45.55 43.57 43.09 41.06 42.35 C 36.99 45.86 37.33 52.64 39.65 57.15 M 35.05 73.14 C 35.07 73.83 35.10 75.21 35.12 75.91 C 51.05 76.04 67.00 76.10 82.94 75.88 C 82.93 75.18 82.91 73.80 82.90 73.11 C 66.95 72.95 50.99 72.88 35.05 73.14 Z" />
</g>
<g id="#727372ff">
<path fill="#727372" opacity="1.00" d=" M 33.20 10.22 C 48.46 9.69 63.76 10.18 79.03 9.98 C 87.34 9.62 95.80 12.35 102.04 17.91 C 108.93 23.87 113.07 32.88 113.00 42.00 C 113.02 60.00 112.97 78.01 113.02 96.02 C 113.21 101.90 112.10 107.89 109.21 113.06 C 103.87 123.30 92.62 130.11 81.06 129.99 C 65.70 129.95 50.33 130.11 34.97 129.92 C 19.03 129.28 5.20 115.03 5.02 99.09 C 4.98 79.73 4.98 60.36 5.02 41.00 C 5.17 25.63 17.93 11.77 33.20 10.22 M 33.24 12.34 C 19.09 13.81 7.31 26.71 7.13 40.94 C 6.99 59.61 7.10 78.29 7.07 96.96 C 7.00 102.02 7.96 107.15 10.39 111.62 C 15.26 121.49 26.03 128.02 37.02 127.91 C 50.34 127.97 63.66 127.89 76.98 127.95 C 82.99 128.10 89.26 127.57 94.63 124.61 C 104.50 119.73 111.05 108.96 110.91 97.96 C 110.94 79.30 110.95 60.63 110.90 41.96 C 111.00 31.98 105.61 22.13 97.15 16.85 C 91.82 13.28 85.34 11.88 78.99 12.06 C 63.74 12.25 48.47 11.71 33.24 12.34 Z" />
</g>
<g id="#f8fcf8ff">
<path fill="#f8fcf8" opacity="1.00" d=" M 73.58 37.88 C 73.91 36.10 77.34 37.16 76.07 38.88 C 75.47 40.87 74.56 42.83 74.67 44.95 C 74.51 49.30 78.14 52.67 78.03 57.01 C 78.19 59.36 77.20 61.54 76.11 63.56 C 75.58 63.11 74.52 62.22 73.99 61.77 C 75.61 58.76 75.49 55.13 73.77 52.19 C 71.36 47.83 71.11 42.27 73.58 37.88 Z" />
<path fill="#f8fcf8" opacity="1.00" d=" M 55.40 43.88 C 56.02 42.06 56.33 38.66 58.95 39.12 C 60.19 40.38 58.84 41.96 58.55 43.33 C 57.05 46.95 58.33 50.84 60.04 54.12 C 61.93 57.82 61.54 62.35 59.26 65.78 C 55.39 63.80 59.82 60.04 58.09 56.97 C 56.39 52.84 54.05 48.51 55.40 43.88 Z" />
<path fill="#f8fcf8" opacity="1.00" d=" M 39.65 57.15 C 37.33 52.64 36.99 45.86 41.06 42.35 C 43.57 43.09 41.69 45.55 41.34 47.11 C 39.99 50.77 41.38 54.55 43.06 57.83 C 44.86 61.43 44.27 65.62 42.45 69.08 C 41.64 68.52 40.86 67.93 40.10 67.31 C 41.99 64.10 41.45 60.26 39.65 57.15 Z" />
<path fill="#f8fcf8" opacity="1.00" d=" M 35.05 73.14 C 50.99 72.88 66.95 72.95 82.90 73.11 C 82.91 73.80 82.93 75.18 82.94 75.88 C 67.00 76.10 51.05 76.04 35.12 75.91 C 35.10 75.21 35.07 73.83 35.05 73.14 Z" />
</g>
</svg>
