<?xml version="1.0" encoding="UTF-8" ?>
<!DOCTYPE svg PUBLIC "-//W3C//DTD SVG 1.1//EN" "http://www.w3.org/Graphics/SVG/1.1/DTD/svg11.dtd">
<svg width="117px" height="140px" viewBox="0 0 117 140" version="1.1" xmlns="http://www.w3.org/2000/svg">
<g id="#000000ff">
<path fill="#000000" opacity="1.00" d=" M 0.00 0.00 L 117.00 0.00 L 117.00 140.00 L 0.00 140.00 L 0.00 0.00 M 23.09 12.97 C 17.77 15.70 13.11 19.56 9.62 24.43 C 8.78 26.00 7.91 27.56 7.04 29.12 C 5.46 33.22 4.28 37.54 4.38 41.97 C 4.38 60.66 4.38 79.34 4.38 98.03 C 4.25 102.47 5.53 106.77 6.99 110.91 C 10.42 117.90 16.10 123.60 23.10 127.02 C 27.25 128.43 31.53 129.70 35.96 129.62 C 50.66 129.61 65.36 129.64 80.06 129.61 C 84.47 129.68 88.76 128.45 92.90 127.03 C 99.92 123.60 105.57 117.89 109.05 110.90 C 109.76 108.71 110.42 106.50 110.90 104.25 L 111.42 103.36 C 111.74 81.12 111.75 58.87 111.42 36.64 L 110.89 35.71 C 109.17 25.70 101.87 17.38 92.90 12.98 C 88.75 11.56 84.45 10.30 80.02 10.39 C 65.32 10.38 50.61 10.37 35.91 10.39 C 31.50 10.31 27.23 11.58 23.09 12.97 Z" />
<path fill="#000000" opacity="1.00" d=" M 26.43 12.73 C 29.58 12.23 32.73 11.53 35.94 11.60 C 50.61 11.63 65.29 11.63 79.96 11.60 C 83.20 11.52 86.36 12.22 89.54 12.73 L 89.58 13.13 C 98.91 16.08 105.86 23.86 109.29 32.83 C 109.79 35.52 110.45 38.21 110.41 40.98 C 110.37 60.33 110.37 79.69 110.41 99.05 C 110.46 101.81 109.81 104.49 109.29 107.18 C 105.86 116.14 98.90 123.94 89.57 126.86 L 89.55 127.27 C 86.39 127.76 83.23 128.47 80.00 128.40 C 65.34 128.37 50.68 128.37 36.02 128.40 C 32.78 128.48 29.60 127.77 26.41 127.26 L 26.46 126.87 C 17.18 123.93 10.04 116.23 6.83 107.16 C 6.48 105.75 6.11 104.35 5.69 102.96 C 5.57 81.00 5.57 59.03 5.69 37.06 C 6.11 35.67 6.48 34.27 6.82 32.86 C 10.01 23.78 17.17 16.08 26.45 13.13 L 26.43 12.73 M 37.59 42.00 C 37.59 50.67 37.59 59.33 37.59 68.00 C 44.86 68.00 52.14 68.00 59.41 68.00 C 59.41 66.00 59.41 64.00 59.41 62.00 C 55.08 62.00 50.75 62.00 46.42 61.99 C 46.40 60.67 46.38 59.35 46.36 58.04 C 49.91 58.00 53.45 58.00 57.00 58.00 C 57.00 55.86 57.00 53.73 57.00 51.59 C 53.46 51.59 49.93 51.59 46.39 51.61 C 46.39 50.53 46.39 49.46 46.39 48.39 C 50.60 48.41 54.80 48.41 59.00 48.41 C 59.00 46.27 59.00 44.14 59.00 42.00 C 51.86 42.00 44.73 42.00 37.59 42.00 M 62.18 54.84 C 63.72 60.24 69.74 60.45 74.09 62.22 C 75.03 65.02 71.58 63.98 69.97 64.36 C 69.80 63.76 69.46 62.55 69.29 61.94 C 66.73 61.98 64.17 62.03 61.62 62.15 C 63.45 69.06 72.12 69.36 77.72 67.44 C 81.08 66.54 83.24 62.02 80.89 59.15 C 77.90 55.66 72.26 56.88 69.37 53.28 C 70.28 53.14 72.11 52.86 73.02 52.71 C 73.38 53.20 74.09 54.18 74.45 54.66 C 76.79 54.63 79.13 54.60 81.47 54.53 C 80.62 52.85 80.14 50.65 78.22 49.86 C 72.76 47.18 63.93 47.94 62.18 54.84 Z" />
</g>
<g id="#e76010ff">
<path fill="#e76010" opacity="1.00" d=" M 23.09 12.97 C 27.23 11.58 31.50 10.31 35.91 10.39 C 50.61 10.37 65.32 10.38 80.02 10.39 C 84.45 10.30 88.75 11.56 92.90 12.98 C 101.87 17.38 109.17 25.70 110.89 35.71 L 111.42 36.64 C 111.75 58.87 111.74 81.12 111.42 103.36 L 110.90 104.25 C 110.42 106.50 109.76 108.71 109.05 110.90 C 105.57 117.89 99.92 123.60 92.90 127.03 C 88.76 128.45 84.47 129.68 80.06 129.61 C 65.36 129.64 50.66 129.61 35.96 129.62 C 31.53 129.70 27.25 128.43 23.10 127.02 C 16.10 123.60 10.42 117.90 6.99 110.91 C 5.53 106.77 4.25 102.47 4.38 98.03 C 4.38 79.34 4.38 60.66 4.38 41.97 C 4.28 37.54 5.46 33.22 7.04 29.12 C 7.91 27.56 8.78 26.00 9.62 24.43 C 13.11 19.56 17.77 15.70 23.09 12.97 M 26.43 12.73 L 26.45 13.13 C 17.17 16.08 10.01 23.78 6.82 32.86 C 6.48 34.27 6.11 35.67 5.69 37.06 C 5.57 59.03 5.57 81.00 5.69 102.96 C 6.11 104.35 6.48 105.75 6.83 107.16 C 10.04 116.23 17.18 123.93 26.46 126.87 L 26.41 127.26 C 29.60 127.77 32.78 128.48 36.02 128.40 C 50.68 128.37 65.34 128.37 80.00 128.40 C 83.23 128.47 86.39 127.76 89.55 127.27 L 89.57 126.86 C 98.90 123.94 105.86 116.14 109.29 107.18 C 109.81 104.49 110.46 101.81 110.41 99.05 C 110.37 79.69 110.37 60.33 110.41 40.98 C 110.45 38.21 109.79 35.52 109.29 32.83 C 105.86 23.86 98.91 16.08 89.58 13.13 L 89.54 12.73 C 86.36 12.22 83.20 11.52 79.96 11.60 C 65.29 11.63 50.61 11.63 35.94 11.60 C 32.73 11.53 29.58 12.23 26.43 12.73 Z" />
<path fill="#e76010" opacity="1.00" d=" M 37.59 42.00 C 44.73 42.00 51.86 42.00 59.00 42.00 C 59.00 44.14 59.00 46.27 59.00 48.41 C 54.80 48.41 50.60 48.41 46.39 48.39 C 46.39 49.46 46.39 50.53 46.39 51.61 C 49.93 51.59 53.46 51.59 57.00 51.59 C 57.00 53.73 57.00 55.86 57.00 58.00 C 53.45 58.00 49.91 58.00 46.36 58.04 C 46.38 59.35 46.40 60.67 46.42 61.99 C 50.75 62.00 55.08 62.00 59.41 62.00 C 59.41 64.00 59.41 66.00 59.41 68.00 C 52.14 68.00 44.86 68.00 37.59 68.00 C 37.59 59.33 37.59 50.67 37.59 42.00 Z" />
<path fill="#e76010" opacity="1.00" d=" M 62.18 54.84 C 63.93 47.94 72.76 47.18 78.22 49.86 C 80.14 50.65 80.62 52.85 81.47 54.53 C 79.13 54.60 76.79 54.63 74.45 54.66 C 74.09 54.18 73.38 53.20 73.02 52.71 C 72.11 52.86 70.28 53.14 69.37 53.28 C 72.26 56.88 77.90 55.66 80.89 59.15 C 83.24 62.02 81.08 66.54 77.72 67.44 C 72.12 69.36 63.45 69.06 61.62 62.15 C 64.17 62.03 66.73 61.98 69.29 61.94 C 69.46 62.55 69.80 63.76 69.97 64.36 C 71.58 63.98 75.03 65.02 74.09 62.22 C 69.74 60.45 63.72 60.24 62.18 54.84 Z" />
</g>
</svg>
