<?xml version="1.0" encoding="UTF-8" ?>
<!DOCTYPE svg PUBLIC "-//W3C//DTD SVG 1.1//EN" "http://www.w3.org/Graphics/SVG/1.1/DTD/svg11.dtd">
<svg width="150px" height="80px" viewBox="0 0 150 80" version="1.1" xmlns="http://www.w3.org/2000/svg">
<g id="#181818ff">
<path fill="#181818" opacity="1.00" d=" M 0.00 0.00 L 150.00 0.00 L 150.00 80.00 L 0.00 80.00 L 0.00 0.00 M 17.32 14.37 C 15.11 15.33 14.89 17.92 14.98 20.00 C 15.08 34.02 14.87 48.05 15.08 62.06 C 14.97 64.65 17.63 66.39 20.03 65.99 C 55.02 66.02 90.00 65.98 124.99 66.01 C 127.52 65.96 130.13 66.28 132.61 65.64 C 134.90 64.71 135.11 62.07 135.03 59.94 C 134.91 45.92 135.14 31.90 134.92 17.89 C 135.02 15.34 132.35 13.66 130.00 14.00 C 95.01 13.99 60.01 14.01 25.01 13.99 C 22.46 14.05 19.82 13.72 17.32 14.37 Z" />
<path fill="#181818" opacity="1.00" d=" M 17.94 15.20 C 20.29 14.90 22.67 14.98 25.03 14.99 C 60.03 15.03 95.03 14.96 130.03 15.03 C 132.33 14.56 134.42 16.59 133.97 18.91 C 134.04 32.61 133.97 46.31 134.01 60.01 C 134.05 61.79 134.03 64.11 132.00 64.79 C 129.69 65.12 127.35 65.01 125.03 65.01 C 89.99 64.97 54.96 65.04 19.93 64.97 C 18.15 65.25 15.99 64.10 16.09 62.09 C 15.86 48.42 16.10 34.73 15.98 21.04 C 16.06 18.99 15.58 16.19 17.94 15.20 M 35.63 38.54 C 34.36 40.58 36.58 42.37 37.80 43.75 C 40.16 45.33 42.56 50.67 45.69 47.93 C 46.43 44.55 42.36 42.60 40.24 40.57 C 41.12 37.61 44.25 36.40 45.78 33.86 C 46.75 32.16 44.57 29.99 42.91 31.18 C 40.27 33.38 37.81 35.87 35.63 38.54 Z" />
</g>
<g id="#474ff3ff">
<path fill="#474ff3" opacity="1.00" d=" M 17.32 14.37 C 19.82 13.72 22.46 14.05 25.01 13.99 C 60.01 14.01 95.01 13.99 130.00 14.00 C 132.35 13.66 135.02 15.34 134.92 17.89 C 135.14 31.90 134.91 45.92 135.03 59.94 C 135.11 62.07 134.90 64.71 132.61 65.64 C 130.13 66.28 127.52 65.96 124.99 66.01 C 90.00 65.98 55.02 66.02 20.03 65.99 C 17.63 66.39 14.97 64.65 15.08 62.06 C 14.87 48.05 15.08 34.02 14.98 20.00 C 14.89 17.92 15.11 15.33 17.32 14.37 M 17.94 15.20 C 15.58 16.19 16.06 18.99 15.98 21.04 C 16.10 34.73 15.86 48.42 16.09 62.09 C 15.99 64.10 18.15 65.25 19.93 64.97 C 54.96 65.04 89.99 64.97 125.03 65.01 C 127.35 65.01 129.69 65.12 132.00 64.79 C 134.03 64.11 134.05 61.79 134.01 60.01 C 133.97 46.31 134.04 32.61 133.97 18.91 C 134.42 16.59 132.33 14.56 130.03 15.03 C 95.03 14.96 60.03 15.03 25.03 14.99 C 22.67 14.98 20.29 14.90 17.94 15.20 Z" />
</g>
<g id="#f8bc60ff">
<path fill="#f8bc60" opacity="1.00" d=" M 35.63 38.54 C 37.81 35.87 40.27 33.38 42.91 31.18 C 44.57 29.99 46.75 32.16 45.78 33.86 C 44.25 36.40 41.12 37.61 40.24 40.57 C 39.47 41.67 38.66 42.73 37.80 43.75 C 36.58 42.37 34.36 40.58 35.63 38.54 Z" />
</g>
<g id="#f89c48ff">
<path fill="#f89c48" opacity="1.00" d=" M 40.24 40.57 C 42.36 42.60 46.43 44.55 45.69 47.93 C 42.56 50.67 40.16 45.33 37.80 43.75 C 38.66 42.73 39.47 41.67 40.24 40.57 Z" />
</g>
</svg>
