<?xml version="1.0" encoding="UTF-8" ?>
<!DOCTYPE svg PUBLIC "-//W3C//DTD SVG 1.1//EN" "http://www.w3.org/Graphics/SVG/1.1/DTD/svg11.dtd">
<svg width="100px" height="100px" viewBox="0 0 100 100" version="1.1" xmlns="http://www.w3.org/2000/svg">
<g id="#407cc8ff">
<path fill="#407cc8" opacity="1.00" d=" M 0.00 0.00 L 100.00 0.00 L 100.00 100.00 L 0.00 100.00 L 0.00 0.00 M 41.92 21.25 C 41.27 26.87 41.87 32.55 41.65 38.20 C 44.38 39.25 47.65 40.03 50.14 37.98 C 50.48 32.65 50.47 27.28 50.20 21.95 C 48.60 19.32 44.32 19.79 41.92 21.25 M 20.93 34.97 C 19.77 41.95 17.56 48.85 18.02 56.01 C 18.27 60.90 17.53 65.87 18.43 70.70 C 20.04 74.63 24.88 73.76 28.26 73.82 C 28.85 74.53 29.44 75.24 30.03 75.95 C 39.95 75.99 49.86 75.92 59.77 75.99 C 57.25 70.88 57.25 63.82 62.07 60.04 C 65.17 56.76 69.88 56.96 74.00 57.36 C 74.57 49.10 72.08 41.15 70.63 33.12 C 70.38 30.78 68.50 28.66 66.04 28.68 C 61.50 28.43 56.96 28.68 52.42 28.59 C 52.45 29.91 52.47 31.23 52.50 32.55 C 54.81 33.71 57.93 34.53 58.81 37.28 C 59.42 39.07 57.79 40.50 56.41 41.29 C 51.99 43.73 46.70 44.06 41.79 43.38 C 38.57 42.75 34.91 41.79 33.04 38.85 C 33.11 35.31 37.01 33.82 39.63 32.35 C 39.60 31.41 39.54 29.53 39.51 28.59 C 34.66 28.75 29.78 28.29 24.94 28.81 C 22.04 29.37 21.32 32.49 20.93 34.97 M 59.38 65.76 C 59.42 67.89 59.32 70.04 59.65 72.15 C 61.22 76.34 65.34 79.93 70.02 79.63 C 75.63 79.90 81.02 74.66 80.64 68.99 C 80.95 62.98 74.94 57.43 68.95 58.40 C 64.45 58.35 61.53 62.33 59.38 65.76 Z" />
<path fill="#407cc8" opacity="1.00" d=" M 25.83 32.90 C 27.53 32.86 29.22 32.81 30.91 32.75 C 29.63 35.16 27.78 37.96 29.26 40.73 C 32.00 46.00 38.53 47.55 44.00 47.90 C 50.30 48.16 57.73 47.31 61.95 42.06 C 64.30 39.27 62.97 35.58 61.47 32.75 C 63.03 32.81 64.59 32.85 66.15 32.90 C 67.36 38.66 68.44 44.45 69.69 50.20 C 53.89 50.16 38.10 50.16 22.31 50.20 C 23.53 44.44 24.62 38.66 25.83 32.90 Z" />
<path fill="#407cc8" opacity="1.00" d=" M 65.08 65.87 C 66.85 63.38 68.54 65.51 70.09 66.91 C 71.06 66.00 72.02 65.09 72.99 64.19 C 73.44 64.64 74.35 65.55 74.81 66.00 C 73.88 66.98 72.94 67.97 72.01 68.95 C 73.02 70.03 74.02 71.10 75.02 72.19 C 73.16 74.35 71.54 72.46 70.02 71.10 C 68.51 72.45 66.89 74.28 65.05 72.16 C 66.07 71.09 67.09 70.04 68.12 68.98 C 67.10 67.95 66.09 66.91 65.08 65.87 Z" />
</g>
<g id="#f8fcf8ff">
<path fill="#f8fcf8" opacity="1.00" d=" M 41.92 21.25 C 44.32 19.79 48.60 19.32 50.20 21.95 C 50.47 27.28 50.48 32.65 50.14 37.98 C 47.65 40.03 44.38 39.25 41.65 38.20 C 41.87 32.55 41.27 26.87 41.92 21.25 Z" />
<path fill="#f8fcf8" opacity="1.00" d=" M 20.93 34.97 C 21.32 32.49 22.04 29.37 24.94 28.81 C 29.78 28.29 34.66 28.75 39.51 28.59 C 39.54 29.53 39.60 31.41 39.63 32.35 C 37.01 33.82 33.11 35.31 33.04 38.85 C 34.91 41.79 38.57 42.75 41.79 43.38 C 46.70 44.06 51.99 43.73 56.41 41.29 C 57.79 40.50 59.42 39.07 58.81 37.28 C 57.93 34.53 54.81 33.71 52.50 32.55 C 52.47 31.23 52.45 29.91 52.42 28.59 C 56.96 28.68 61.50 28.43 66.04 28.68 C 68.50 28.66 70.38 30.78 70.63 33.12 C 72.08 41.15 74.57 49.10 74.00 57.36 C 69.88 56.96 65.17 56.76 62.07 60.04 C 57.25 63.82 57.25 70.88 59.77 75.99 C 49.86 75.92 39.95 75.99 30.03 75.95 C 29.44 75.24 28.85 74.53 28.26 73.82 C 24.88 73.76 20.04 74.63 18.43 70.70 C 17.53 65.87 18.27 60.90 18.02 56.01 C 17.56 48.85 19.77 41.95 20.93 34.97 M 25.83 32.90 C 24.62 38.66 23.53 44.44 22.31 50.20 C 38.10 50.16 53.89 50.16 69.69 50.20 C 68.44 44.45 67.36 38.66 66.15 32.90 C 64.59 32.85 63.03 32.81 61.47 32.75 C 62.97 35.58 64.30 39.27 61.95 42.06 C 57.73 47.31 50.30 48.16 44.00 47.90 C 38.53 47.55 32.00 46.00 29.26 40.73 C 27.78 37.96 29.63 35.16 30.91 32.75 C 29.22 32.81 27.53 32.86 25.83 32.90 Z" />
<path fill="#f8fcf8" opacity="1.00" d=" M 59.38 65.76 C 61.53 62.33 64.45 58.35 68.95 58.40 C 74.94 57.43 80.95 62.98 80.64 68.99 C 81.02 74.66 75.63 79.90 70.02 79.63 C 65.34 79.93 61.22 76.34 59.65 72.15 C 59.32 70.04 59.42 67.89 59.38 65.76 M 65.08 65.87 C 66.09 66.91 67.10 67.95 68.12 68.98 C 67.09 70.04 66.07 71.09 65.05 72.16 C 66.89 74.28 68.51 72.45 70.02 71.10 C 71.54 72.46 73.16 74.35 75.02 72.19 C 74.02 71.10 73.02 70.03 72.01 68.95 C 72.94 67.97 73.88 66.98 74.81 66.00 C 74.35 65.55 73.44 64.64 72.99 64.19 C 72.02 65.09 71.06 66.00 70.09 66.91 C 68.54 65.51 66.85 63.38 65.08 65.87 Z" />
</g>
</svg>
