<?xml version="1.0" encoding="UTF-8" ?>
<!DOCTYPE svg PUBLIC "-//W3C//DTD SVG 1.1//EN" "http://www.w3.org/Graphics/SVG/1.1/DTD/svg11.dtd">
<svg width="117px" height="140px" viewBox="0 0 117 140" version="1.1" xmlns="http://www.w3.org/2000/svg">
<g id="#000000ff">
<path fill="#000000" opacity="1.00" d=" M 0.00 0.00 L 117.00 0.00 L 117.00 140.00 L 0.00 140.00 L 0.00 0.00 M 33.25 10.25 C 17.98 11.76 5.24 25.61 5.05 40.95 C 4.97 60.33 4.97 79.70 5.05 99.08 C 5.22 115.36 19.63 129.78 35.92 129.95 C 51.63 129.99 67.36 130.11 83.07 129.88 C 98.98 129.25 112.80 114.99 112.94 99.07 C 113.06 80.04 112.99 61.00 112.97 41.97 C 113.08 30.69 106.62 19.70 96.79 14.21 C 91.44 11.10 85.20 9.82 79.05 9.99 C 63.78 10.18 48.50 9.67 33.25 10.25 Z" />
<path fill="#000000" opacity="1.00" d=" M 33.19 12.33 C 49.45 11.77 65.75 12.16 82.03 12.12 C 97.26 12.19 110.84 25.75 110.88 40.99 C 111.02 58.66 110.88 76.34 110.94 94.02 C 111.07 99.75 110.76 105.71 108.02 110.88 C 103.44 120.80 93.00 127.68 82.07 127.87 C 67.71 128.02 53.35 127.88 38.99 127.94 C 33.12 128.11 27.09 127.02 22.03 123.90 C 12.91 118.79 6.93 108.52 7.09 98.05 C 7.07 79.02 7.01 59.98 7.12 40.94 C 7.24 26.73 19.06 13.79 33.19 12.33 M 60.35 27.14 C 56.38 31.08 52.44 35.04 48.49 38.99 C 50.08 41.12 52.47 41.60 55.00 41.27 C 55.00 43.29 55.00 45.31 55.00 47.33 C 53.03 47.32 51.06 47.33 49.09 47.33 C 49.15 44.90 48.64 42.41 46.66 40.80 C 42.72 44.75 38.79 48.71 34.82 52.62 C 38.75 56.62 42.71 60.58 46.70 64.51 C 47.47 63.64 48.24 62.77 49.01 61.89 C 49.01 60.59 49.00 59.30 49.00 58.00 C 51.00 58.00 53.00 58.00 55.00 58.00 C 55.00 60.00 55.00 62.01 55.00 64.01 C 52.47 63.66 50.10 64.20 48.45 66.26 C 52.38 70.28 56.39 74.20 60.34 78.19 C 64.29 74.27 68.18 70.29 72.17 66.41 C 70.66 64.33 68.13 63.87 65.71 63.91 C 65.71 61.94 65.71 59.97 65.71 58.00 C 67.71 58.00 69.72 58.00 71.72 58.00 C 71.38 60.53 71.88 62.92 74.01 64.51 C 77.97 60.56 81.93 56.61 85.88 52.65 C 82.24 49.03 78.62 45.38 74.99 41.75 C 74.27 40.38 73.23 41.71 72.47 42.16 C 71.98 43.84 71.71 45.57 71.63 47.32 C 69.66 47.32 67.68 47.32 65.71 47.33 C 65.71 45.33 65.72 43.34 65.73 41.35 C 67.43 41.22 69.14 41.06 70.76 40.49 C 71.09 40.10 71.76 39.31 72.10 38.92 C 68.20 34.97 64.29 31.04 60.35 27.14 Z" />
<path fill="#000000" opacity="1.00" d=" M 60.34 30.92 C 62.90 33.50 65.48 36.04 68.04 38.61 C 66.36 38.61 64.68 38.61 63.00 38.61 C 63.00 42.41 63.00 46.20 63.00 50.00 C 66.81 50.00 70.61 50.00 74.42 50.00 C 74.41 48.33 74.41 46.67 74.40 45.00 C 76.98 47.55 79.55 50.09 82.09 52.67 C 79.54 55.22 77.02 57.79 74.41 60.27 C 74.41 58.63 74.41 56.99 74.41 55.35 C 70.61 55.31 66.81 55.33 63.01 55.32 C 62.99 59.13 63.00 62.93 63.01 66.74 C 64.67 66.74 66.34 66.74 68.01 66.75 C 65.46 69.31 62.91 71.86 60.34 74.40 C 57.80 71.84 55.23 69.32 52.72 66.74 C 54.36 66.73 56.00 66.73 57.64 66.74 C 57.65 62.94 57.65 59.13 57.64 55.33 C 53.86 55.32 50.08 55.33 46.30 55.32 C 46.29 56.98 46.28 58.64 46.27 60.30 C 43.70 57.77 41.15 55.21 38.61 52.65 C 41.18 50.11 43.72 47.54 46.29 44.99 C 46.29 46.66 46.29 48.33 46.28 49.99 C 50.07 50.00 53.86 50.01 57.66 49.99 C 57.64 46.19 57.65 42.40 57.64 38.60 C 56.00 38.61 54.36 38.62 52.73 38.63 C 55.20 36.00 57.80 33.49 60.34 30.92 Z" />
</g>
<g id="#787978ff">
<path fill="#787978" opacity="1.00" d=" M 33.25 10.25 C 48.50 9.67 63.78 10.18 79.05 9.99 C 85.20 9.82 91.44 11.10 96.79 14.21 C 106.62 19.70 113.08 30.69 112.97 41.97 C 112.99 61.00 113.06 80.04 112.94 99.07 C 112.80 114.99 98.98 129.25 83.07 129.88 C 67.36 130.11 51.63 129.99 35.92 129.95 C 19.63 129.78 5.22 115.36 5.05 99.08 C 4.97 79.70 4.97 60.33 5.05 40.95 C 5.24 25.61 17.98 11.76 33.25 10.25 M 33.19 12.33 C 19.06 13.79 7.24 26.73 7.12 40.94 C 7.01 59.98 7.07 79.02 7.09 98.05 C 6.93 108.52 12.91 118.79 22.03 123.90 C 27.09 127.02 33.12 128.11 38.99 127.94 C 53.35 127.88 67.71 128.02 82.07 127.87 C 93.00 127.68 103.44 120.80 108.02 110.88 C 110.76 105.71 111.07 99.75 110.94 94.02 C 110.88 76.34 111.02 58.66 110.88 40.99 C 110.84 25.75 97.26 12.19 82.03 12.12 C 65.75 12.16 49.45 11.77 33.19 12.33 Z" />
</g>
<g id="#f8fcf8ff">
<path fill="#f8fcf8" opacity="1.00" d=" M 60.35 27.14 C 64.29 31.04 68.20 34.97 72.10 38.92 C 71.76 39.31 71.09 40.10 70.76 40.49 C 69.14 41.06 67.43 41.22 65.73 41.35 C 65.72 43.34 65.71 45.33 65.71 47.33 C 67.68 47.32 69.66 47.32 71.63 47.32 C 71.71 45.57 71.98 43.84 72.47 42.16 C 73.23 41.71 74.27 40.38 74.99 41.75 C 78.62 45.38 82.24 49.03 85.88 52.65 C 81.93 56.61 77.97 60.56 74.01 64.51 C 71.88 62.92 71.38 60.53 71.72 58.00 C 69.72 58.00 67.71 58.00 65.71 58.00 C 65.71 59.97 65.71 61.94 65.71 63.91 C 68.13 63.87 70.66 64.33 72.17 66.41 C 68.18 70.29 64.29 74.27 60.34 78.19 C 56.39 74.20 52.38 70.28 48.45 66.26 C 50.10 64.20 52.47 63.66 55.00 64.01 C 55.00 62.01 55.00 60.00 55.00 58.00 C 53.00 58.00 51.00 58.00 49.00 58.00 C 49.00 59.30 49.01 60.59 49.01 61.89 C 48.24 62.77 47.47 63.64 46.70 64.51 C 42.71 60.58 38.75 56.62 34.82 52.62 C 38.79 48.71 42.72 44.75 46.66 40.80 C 48.64 42.41 49.15 44.90 49.09 47.33 C 51.06 47.33 53.03 47.32 55.00 47.33 C 55.00 45.31 55.00 43.29 55.00 41.27 C 52.47 41.60 50.08 41.12 48.49 38.99 C 52.44 35.04 56.38 31.08 60.35 27.14 M 60.34 30.92 C 57.80 33.49 55.20 36.00 52.73 38.63 C 54.36 38.62 56.00 38.61 57.64 38.60 C 57.65 42.40 57.64 46.19 57.66 49.99 C 53.86 50.01 50.07 50.00 46.28 49.99 C 46.29 48.33 46.29 46.66 46.29 44.99 C 43.72 47.54 41.18 50.11 38.61 52.65 C 41.15 55.21 43.70 57.77 46.27 60.30 C 46.28 58.64 46.29 56.98 46.30 55.32 C 50.08 55.33 53.86 55.32 57.64 55.33 C 57.65 59.13 57.65 62.94 57.64 66.74 C 56.00 66.73 54.36 66.73 52.72 66.74 C 55.23 69.32 57.80 71.84 60.34 74.40 C 62.91 71.86 65.46 69.31 68.01 66.75 C 66.34 66.74 64.67 66.74 63.01 66.74 C 63.00 62.93 62.99 59.13 63.01 55.32 C 66.81 55.33 70.61 55.31 74.41 55.35 C 74.41 56.99 74.41 58.63 74.41 60.27 C 77.02 57.79 79.54 55.22 82.09 52.67 C 79.55 50.09 76.98 47.55 74.40 45.00 C 74.41 46.67 74.41 48.33 74.42 50.00 C 70.61 50.00 66.81 50.00 63.00 50.00 C 63.00 46.20 63.00 42.41 63.00 38.61 C 64.68 38.61 66.36 38.61 68.04 38.61 C 65.48 36.04 62.90 33.50 60.34 30.92 Z" />
</g>
</svg>
