<?xml version="1.0" encoding="UTF-8" ?>
<!DOCTYPE svg PUBLIC "-//W3C//DTD SVG 1.1//EN" "http://www.w3.org/Graphics/SVG/1.1/DTD/svg11.dtd">
<svg width="117px" height="140px" viewBox="0 0 117 140" version="1.1" xmlns="http://www.w3.org/2000/svg">
<g id="#000000ff">
<path fill="#000000" opacity="1.00" d=" M 0.00 0.00 L 117.00 0.00 L 117.00 140.00 L 0.00 140.00 L 0.00 0.00 M 33.27 10.37 C 18.05 11.82 5.23 25.69 5.20 41.02 C 5.16 60.36 5.16 79.70 5.20 99.04 C 5.24 114.92 19.08 129.19 34.94 129.75 C 50.65 129.89 66.37 129.83 82.08 129.78 C 98.30 129.76 112.77 115.28 112.79 99.07 C 112.85 80.03 112.82 61.00 112.81 41.97 C 113.11 28.91 104.24 16.41 91.97 12.08 C 85.30 9.42 78.02 10.33 71.02 10.17 C 58.44 10.30 45.84 9.93 33.27 10.37 Z" />
<path fill="#000000" opacity="1.00" d=" M 30.39 12.59 C 33.21 11.94 36.12 11.73 39.01 11.80 C 53.70 11.93 68.40 11.68 83.09 11.92 C 98.04 12.68 110.89 25.97 111.18 40.92 C 111.19 59.95 111.16 78.98 111.18 98.00 C 111.21 108.03 105.87 117.91 97.39 123.27 C 92.55 126.48 86.77 128.11 80.99 128.18 C 66.31 128.18 51.63 128.16 36.95 128.19 C 26.70 128.17 16.59 122.58 11.33 113.75 C 8.19 108.77 6.66 102.86 6.80 96.99 C 6.85 78.33 6.81 59.66 6.82 41.00 C 7.13 27.64 17.30 15.34 30.39 12.59 M 47.30 40.15 C 44.56 42.06 41.94 44.16 39.38 46.30 C 37.04 48.01 36.99 51.90 39.32 53.64 C 41.90 55.83 44.56 57.93 47.33 59.87 C 48.99 61.13 51.05 60.13 52.87 59.97 C 53.65 57.40 54.09 54.74 54.07 52.05 C 54.56 52.02 55.52 51.97 56.00 51.94 C 56.00 51.22 56.00 49.78 56.00 49.05 C 55.51 49.03 54.53 48.97 54.04 48.95 C 54.16 45.93 53.78 42.92 52.87 40.03 C 51.04 39.85 48.96 38.87 47.30 40.15 M 63.99 41.22 C 64.00 43.81 64.00 46.40 64.00 48.98 C 63.25 48.99 61.75 49.01 61.00 49.01 C 61.00 49.76 61.00 51.24 61.00 51.99 C 61.75 51.99 63.25 52.01 64.00 52.02 C 64.00 54.27 64.00 56.52 63.99 58.78 C 66.07 59.59 68.50 61.57 70.67 59.87 C 73.43 57.93 76.07 55.83 78.66 53.68 C 81.01 51.94 80.98 48.07 78.66 46.33 C 76.08 44.17 73.44 42.07 70.68 40.14 C 68.51 38.42 66.07 40.41 63.99 41.22 M 57.00 49.00 C 57.00 49.75 57.00 51.25 57.00 52.00 C 57.75 52.00 59.25 52.00 60.00 52.00 C 60.00 51.25 60.00 49.75 60.00 49.00 C 59.25 49.00 57.75 49.00 57.00 49.00 Z" />
<path fill="#000000" opacity="1.00" d=" M 41.01 50.00 C 43.99 47.67 46.97 45.35 49.97 43.05 C 50.01 47.69 50.03 52.34 49.94 56.99 C 46.98 54.63 43.99 52.33 41.01 50.00 Z" />
<path fill="#000000" opacity="1.00" d=" M 68.02 43.03 C 71.02 45.34 74.01 47.67 76.99 50.00 C 74.01 52.33 71.01 54.66 68.01 56.97 C 67.99 52.33 67.99 47.68 68.02 43.03 Z" />
</g>
<g id="#11ea52ff">
<path fill="#11ea52" opacity="1.00" d=" M 33.27 10.37 C 45.84 9.93 58.44 10.30 71.02 10.17 C 78.02 10.33 85.30 9.42 91.97 12.08 C 104.24 16.41 113.11 28.91 112.81 41.97 C 112.82 61.00 112.85 80.03 112.79 99.07 C 112.77 115.28 98.30 129.76 82.08 129.78 C 66.37 129.83 50.65 129.89 34.94 129.75 C 19.08 129.19 5.24 114.92 5.20 99.04 C 5.16 79.70 5.16 60.36 5.20 41.02 C 5.23 25.69 18.05 11.82 33.27 10.37 M 30.39 12.59 C 17.30 15.34 7.13 27.64 6.82 41.00 C 6.81 59.66 6.85 78.33 6.80 96.99 C 6.66 102.86 8.19 108.77 11.33 113.75 C 16.59 122.58 26.70 128.17 36.95 128.19 C 51.63 128.16 66.31 128.18 80.99 128.18 C 86.77 128.11 92.55 126.48 97.39 123.27 C 105.87 117.91 111.21 108.03 111.18 98.00 C 111.16 78.98 111.19 59.95 111.18 40.92 C 110.89 25.97 98.04 12.68 83.09 11.92 C 68.40 11.68 53.70 11.93 39.01 11.80 C 36.12 11.73 33.21 11.94 30.39 12.59 Z" />
<path fill="#11ea52" opacity="1.00" d=" M 47.30 40.15 C 48.96 38.87 51.04 39.85 52.87 40.03 C 53.78 42.92 54.16 45.93 54.04 48.95 C 54.53 48.97 55.51 49.03 56.00 49.05 C 56.00 49.78 56.00 51.22 56.00 51.94 C 55.52 51.97 54.56 52.02 54.07 52.05 C 54.09 54.74 53.65 57.40 52.87 59.97 C 51.05 60.13 48.99 61.13 47.33 59.87 C 44.56 57.93 41.90 55.83 39.32 53.64 C 36.99 51.90 37.04 48.01 39.38 46.30 C 41.94 44.16 44.56 42.06 47.30 40.15 M 41.01 50.00 C 43.99 52.33 46.98 54.63 49.94 56.99 C 50.03 52.34 50.01 47.69 49.97 43.05 C 46.97 45.35 43.99 47.67 41.01 50.00 Z" />
<path fill="#11ea52" opacity="1.00" d=" M 63.99 41.22 C 66.07 40.41 68.51 38.42 70.68 40.14 C 73.44 42.07 76.08 44.17 78.66 46.33 C 80.98 48.07 81.01 51.94 78.66 53.68 C 76.07 55.83 73.43 57.93 70.67 59.87 C 68.50 61.57 66.07 59.59 63.99 58.78 C 64.00 56.52 64.00 54.27 64.00 52.02 C 63.25 52.01 61.75 51.99 61.00 51.99 C 61.00 51.24 61.00 49.76 61.00 49.01 C 61.75 49.01 63.25 48.99 64.00 48.98 C 64.00 46.40 64.00 43.81 63.99 41.22 M 68.02 43.03 C 67.99 47.68 67.99 52.33 68.01 56.97 C 71.01 54.66 74.01 52.33 76.99 50.00 C 74.01 47.67 71.02 45.34 68.02 43.03 Z" />
<path fill="#11ea52" opacity="1.00" d=" M 57.00 49.00 C 57.75 49.00 59.25 49.00 60.00 49.00 C 60.00 49.75 60.00 51.25 60.00 52.00 C 59.25 52.00 57.75 52.00 57.00 52.00 C 57.00 51.25 57.00 49.75 57.00 49.00 Z" />
</g>
</svg>
