<?xml version="1.0" encoding="UTF-8" ?>
<!DOCTYPE svg PUBLIC "-//W3C//DTD SVG 1.1//EN" "http://www.w3.org/Graphics/SVG/1.1/DTD/svg11.dtd">
<svg width="150px" height="80px" viewBox="0 0 150 80" version="1.1" xmlns="http://www.w3.org/2000/svg">
<g id="#000000ff">
<path fill="#000000" opacity="1.00" d=" M 0.00 0.00 L 150.00 0.00 L 150.00 80.00 L 0.00 80.00 L 0.00 0.00 M 6.33 5.48 C 2.84 6.66 0.69 10.35 0.99 13.96 C 1.00 31.32 1.00 48.68 0.99 66.04 C 0.82 68.93 2.01 71.93 4.47 73.56 C 6.91 75.38 10.11 74.96 12.97 75.03 C 55.67 74.94 98.36 75.06 141.05 74.97 C 145.25 75.06 149.05 71.31 148.95 67.09 C 149.05 49.04 149.02 30.97 148.96 12.91 C 149.04 8.71 145.28 4.97 141.09 5.03 C 97.71 4.93 54.33 5.06 10.95 4.97 C 9.40 5.02 7.81 4.96 6.33 5.48 Z" />
<path fill="#000000" opacity="1.00" d=" M 7.26 7.28 C 10.14 6.74 13.09 7.06 16.00 7.00 C 57.33 7.00 98.67 7.01 140.01 6.99 C 142.13 6.93 144.51 7.51 145.79 9.35 C 147.44 11.57 146.93 14.48 147.02 17.06 C 146.94 33.74 147.07 50.42 146.97 67.11 C 147.09 70.69 143.55 73.44 140.11 73.01 C 96.37 72.97 52.63 73.05 8.90 72.97 C 5.74 73.06 2.97 70.23 3.04 67.09 C 2.94 49.37 3.04 31.65 2.99 13.93 C 2.75 11.08 4.34 7.99 7.26 7.28 M 43.29 27.61 C 41.23 29.46 39.16 31.33 37.46 33.53 C 36.55 34.29 35.62 35.02 34.72 35.80 C 36.05 37.07 37.41 38.30 38.77 39.55 C 40.21 38.14 41.58 36.65 43.23 35.48 C 44.19 36.41 45.16 37.33 46.13 38.25 C 46.96 37.45 47.79 36.65 48.63 35.86 C 47.63 34.94 46.68 33.97 45.69 33.04 C 46.12 32.64 46.98 31.83 47.41 31.42 C 45.76 29.49 48.65 28.31 49.56 26.85 C 47.39 25.98 45.36 27.01 43.29 27.61 M 51.50 34.35 C 48.07 37.67 44.61 40.95 41.14 44.23 C 40.49 45.07 39.20 45.68 39.22 46.88 C 38.78 48.56 41.43 49.57 42.47 48.38 C 46.54 44.74 50.37 40.83 54.35 37.10 C 58.69 38.88 64.22 34.12 62.18 29.60 C 60.85 30.79 59.54 32.00 58.25 33.23 C 57.35 32.37 56.45 31.50 55.56 30.63 C 56.84 29.40 58.12 28.14 59.38 26.88 C 55.02 25.02 49.60 29.81 51.50 34.35 M 49.72 42.79 C 51.82 44.92 53.90 47.07 56.03 49.18 C 57.38 47.90 58.70 46.60 60.03 45.30 C 57.82 43.29 55.58 41.31 53.36 39.31 C 52.14 40.46 50.93 41.63 49.72 42.79 Z" />
<path fill="#000000" opacity="1.00" d=" M 40.72 46.31 C 43.98 46.21 39.43 49.33 40.72 46.31 Z" />
</g>
<g id="#707370ff">
<path fill="#707370" opacity="1.00" d=" M 6.33 5.48 C 7.81 4.96 9.40 5.02 10.95 4.97 C 54.33 5.06 97.71 4.93 141.09 5.03 C 145.28 4.97 149.04 8.71 148.96 12.91 C 149.02 30.97 149.05 49.04 148.95 67.09 C 149.05 71.31 145.25 75.06 141.05 74.97 C 98.36 75.06 55.67 74.94 12.97 75.03 C 10.11 74.96 6.91 75.38 4.47 73.56 C 2.01 71.93 0.82 68.93 0.99 66.04 C 1.00 48.68 1.00 31.32 0.99 13.96 C 0.69 10.35 2.84 6.66 6.33 5.48 M 7.26 7.28 C 4.34 7.99 2.75 11.08 2.99 13.93 C 3.04 31.65 2.94 49.37 3.04 67.09 C 2.97 70.23 5.74 73.06 8.90 72.97 C 52.63 73.05 96.37 72.97 140.11 73.01 C 143.55 73.44 147.09 70.69 146.97 67.11 C 147.07 50.42 146.94 33.74 147.02 17.06 C 146.93 14.48 147.44 11.57 145.79 9.35 C 144.51 7.51 142.13 6.93 140.01 6.99 C 98.67 7.01 57.33 7.00 16.00 7.00 C 13.09 7.06 10.14 6.74 7.26 7.28 Z" />
</g>
<g id="#f8fcf8ff">
<path fill="#f8fcf8" opacity="1.00" d=" M 43.29 27.61 C 45.36 27.01 47.39 25.98 49.56 26.85 C 48.65 28.31 45.76 29.49 47.41 31.42 C 46.98 31.83 46.12 32.64 45.69 33.04 C 46.68 33.97 47.63 34.94 48.63 35.86 C 47.79 36.65 46.96 37.45 46.13 38.25 C 45.16 37.33 44.19 36.41 43.23 35.48 C 41.58 36.65 40.21 38.14 38.77 39.55 C 37.41 38.30 36.05 37.07 34.72 35.80 C 35.62 35.02 36.55 34.29 37.46 33.53 C 39.16 31.33 41.23 29.46 43.29 27.61 Z" />
<path fill="#f8fcf8" opacity="1.00" d=" M 51.50 34.35 C 49.60 29.81 55.02 25.02 59.38 26.88 C 58.12 28.14 56.84 29.40 55.56 30.63 C 56.45 31.50 57.35 32.37 58.25 33.23 C 59.54 32.00 60.85 30.79 62.18 29.60 C 64.22 34.12 58.69 38.88 54.35 37.10 C 50.37 40.83 46.54 44.74 42.47 48.38 C 41.43 49.57 38.78 48.56 39.22 46.88 C 39.20 45.68 40.49 45.07 41.14 44.23 C 44.61 40.95 48.07 37.67 51.50 34.35 M 40.72 46.31 C 39.43 49.33 43.98 46.21 40.72 46.31 Z" />
<path fill="#f8fcf8" opacity="1.00" d=" M 49.72 42.79 C 50.93 41.63 52.14 40.46 53.36 39.31 C 55.58 41.31 57.82 43.29 60.03 45.30 C 58.70 46.60 57.38 47.90 56.03 49.18 C 53.90 47.07 51.82 44.92 49.72 42.79 Z" />
</g>
</svg>
