<?xml version="1.0" encoding="UTF-8" ?>
<!DOCTYPE svg PUBLIC "-//W3C//DTD SVG 1.1//EN" "http://www.w3.org/Graphics/SVG/1.1/DTD/svg11.dtd">
<svg width="117px" height="140px" viewBox="0 0 117 140" version="1.1" xmlns="http://www.w3.org/2000/svg">
<g id="#000000ff">
<path fill="#000000" opacity="1.00" d=" M 0.00 0.00 L 117.00 0.00 L 117.00 140.00 L 0.00 140.00 L 0.00 0.00 M 33.12 10.23 C 17.92 11.82 5.23 25.60 5.03 40.90 C 4.98 60.30 4.98 79.70 5.03 99.09 C 5.20 115.02 19.01 129.26 34.93 129.91 C 50.29 130.12 65.67 129.95 81.05 129.99 C 92.84 130.11 104.29 123.02 109.52 112.46 C 112.40 107.13 113.24 100.98 113.02 94.99 C 112.97 77.34 113.02 59.68 113.00 42.02 C 113.06 33.37 109.36 24.80 103.07 18.87 C 96.97 12.94 88.43 9.77 79.96 9.98 C 64.35 10.18 48.72 9.68 33.12 10.23 Z" />
<path fill="#000000" opacity="1.00" d=" M 33.26 12.33 C 45.17 11.74 57.11 12.23 69.04 12.07 C 77.14 12.27 85.74 11.06 93.30 14.73 C 103.81 19.34 111.06 30.45 110.90 41.94 C 110.95 60.64 110.95 79.34 110.90 98.03 C 111.04 109.02 104.46 119.76 94.61 124.62 C 89.86 127.20 84.38 128.02 79.03 127.94 C 64.34 127.84 49.64 128.09 34.95 127.82 C 20.14 127.18 7.26 113.92 7.13 99.08 C 7.03 79.69 7.03 60.29 7.13 40.90 C 7.31 26.68 19.12 13.80 33.26 12.33 M 60.36 28.80 C 60.11 33.07 60.32 37.36 59.99 41.63 C 54.95 42.45 50.59 46.20 49.89 51.40 C 45.47 51.38 40.97 50.74 36.61 51.66 C 40.96 51.87 45.32 51.71 49.67 51.90 C 50.17 57.34 54.32 62.01 59.84 62.63 C 59.89 66.90 59.70 71.27 60.67 75.45 C 60.90 71.17 60.43 66.89 60.58 62.60 C 66.43 62.50 71.02 57.61 71.45 51.91 C 75.76 51.70 80.09 51.87 84.40 51.58 C 80.08 50.71 75.64 51.41 71.27 51.39 C 70.56 46.09 65.94 41.92 60.59 41.78 C 60.64 37.46 61.30 33.06 60.36 28.80 Z" />
</g>
<g id="#737373ff">
<path fill="#737373" opacity="1.00" d=" M 33.12 10.23 C 48.72 9.68 64.35 10.18 79.96 9.98 C 88.43 9.77 96.97 12.94 103.07 18.87 C 109.36 24.80 113.06 33.37 113.00 42.02 C 113.02 59.68 112.97 77.34 113.02 94.99 C 113.24 100.98 112.40 107.13 109.52 112.46 C 104.29 123.02 92.84 130.11 81.05 129.99 C 65.67 129.95 50.29 130.12 34.93 129.91 C 19.01 129.26 5.20 115.02 5.03 99.09 C 4.98 79.70 4.98 60.30 5.03 40.90 C 5.23 25.60 17.92 11.82 33.12 10.23 M 33.26 12.33 C 19.12 13.80 7.31 26.68 7.13 40.90 C 7.03 60.29 7.03 79.69 7.13 99.08 C 7.26 113.92 20.14 127.18 34.95 127.82 C 49.64 128.09 64.34 127.84 79.03 127.94 C 84.38 128.02 89.86 127.20 94.61 124.62 C 104.46 119.76 111.04 109.02 110.90 98.03 C 110.95 79.34 110.95 60.64 110.90 41.94 C 111.06 30.45 103.81 19.34 93.30 14.73 C 85.74 11.06 77.14 12.27 69.04 12.07 C 57.11 12.23 45.17 11.74 33.26 12.33 Z" />
</g>
<g id="#f8fcf8ff">
<path fill="#f8fcf8" opacity="1.00" d=" M 60.36 28.80 C 61.30 33.06 60.64 37.46 60.59 41.78 C 65.94 41.92 70.56 46.09 71.27 51.39 C 75.64 51.41 80.08 50.71 84.40 51.58 C 80.09 51.87 75.76 51.70 71.45 51.91 C 71.02 57.61 66.43 62.50 60.58 62.60 C 60.43 66.89 60.90 71.17 60.67 75.45 C 59.70 71.27 59.89 66.90 59.84 62.63 C 54.32 62.01 50.17 57.34 49.67 51.90 C 45.32 51.71 40.96 51.87 36.61 51.66 C 40.97 50.74 45.47 51.38 49.89 51.40 C 50.59 46.20 54.95 42.45 59.99 41.63 C 60.32 37.36 60.11 33.07 60.36 28.80 Z" />
</g>
</svg>
