<?xml version="1.0" encoding="UTF-8" ?>
<!DOCTYPE svg PUBLIC "-//W3C//DTD SVG 1.1//EN" "http://www.w3.org/Graphics/SVG/1.1/DTD/svg11.dtd">
<svg width="117px" height="140px" viewBox="0 0 117 140" version="1.1" xmlns="http://www.w3.org/2000/svg">
<g id="#000000ff">
<path fill="#000000" opacity="1.00" d=" M 0.00 0.00 L 117.00 0.00 L 117.00 140.00 L 0.00 140.00 L 0.00 0.00 M 31.37 10.56 L 31.71 11.24 C 29.22 11.27 26.84 11.92 24.49 12.66 L 24.54 13.70 C 24.05 13.56 23.09 13.29 22.61 13.16 L 22.60 14.60 C 22.14 14.52 21.20 14.37 20.73 14.29 L 20.52 15.14 C 19.12 15.97 17.75 16.86 16.37 17.73 L 16.45 18.00 C 15.15 19.01 14.00 20.19 12.99 21.50 L 12.74 21.34 C 11.87 22.73 10.98 24.11 10.14 25.53 L 9.30 25.71 C 9.37 26.18 9.52 27.12 9.59 27.60 L 8.16 27.61 C 8.29 28.10 8.57 29.06 8.70 29.54 L 7.69 29.50 C 7.16 31.40 6.58 33.28 6.08 35.18 C 5.45 37.73 5.33 40.36 5.34 42.96 C 5.37 61.32 5.35 79.67 5.34 98.02 C 5.35 100.31 5.54 102.60 6.06 104.82 C 6.57 106.72 7.15 108.59 7.67 110.48 L 8.70 110.46 C 8.56 110.94 8.29 111.91 8.16 112.39 L 9.61 112.40 C 9.53 112.87 9.38 113.80 9.30 114.27 L 10.15 114.48 C 10.97 115.88 11.85 117.25 12.72 118.63 L 13.00 118.53 C 14.01 119.83 15.18 121.00 16.48 122.01 L 16.35 122.27 C 17.73 123.14 19.11 124.03 20.53 124.86 L 20.75 125.74 C 21.22 125.64 22.16 125.46 22.62 125.37 L 22.52 126.79 C 23.02 126.68 24.04 126.45 24.54 126.34 L 24.51 127.31 C 26.39 127.84 28.26 128.42 30.15 128.94 C 35.33 130.09 40.67 129.52 45.93 129.65 C 59.50 129.56 73.07 129.86 86.64 129.46 L 86.28 128.75 C 88.76 128.76 91.14 128.10 93.48 127.34 L 93.49 126.90 C 94.14 126.58 95.45 125.94 96.11 125.61 C 96.39 125.64 96.96 125.68 97.25 125.70 L 97.47 124.86 C 98.89 124.02 100.27 123.14 101.66 122.26 L 101.51 122.00 C 102.83 121.01 104.00 119.84 105.00 118.52 L 105.27 118.65 C 106.14 117.26 107.04 115.88 107.87 114.47 L 108.73 114.25 C 108.63 113.78 108.45 112.86 108.36 112.39 L 109.79 112.46 C 109.68 111.96 109.46 110.97 109.35 110.47 L 110.32 110.48 C 110.85 108.57 111.44 106.67 111.96 104.76 C 112.85 100.90 112.63 96.91 112.65 92.99 C 112.64 76.31 112.65 59.63 112.66 42.95 C 112.65 40.33 112.55 37.69 111.93 35.13 C 111.42 33.26 110.84 31.40 110.32 29.53 L 109.90 29.55 C 109.58 28.89 108.93 27.57 108.61 26.91 C 108.64 26.63 108.69 26.06 108.71 25.77 L 107.86 25.52 C 107.03 24.11 106.13 22.73 105.26 21.34 L 105.01 21.49 C 104.00 20.18 102.83 19.00 101.52 18.00 L 101.64 17.73 C 100.25 16.86 98.88 15.96 97.47 15.13 L 97.25 14.27 C 96.79 14.36 95.86 14.53 95.40 14.61 L 95.40 13.16 C 94.91 13.29 93.95 13.56 93.46 13.69 L 93.51 12.66 C 91.16 11.92 88.78 11.27 86.30 11.24 L 86.62 10.55 C 68.21 10.22 49.78 10.22 31.37 10.56 Z" />
<path fill="#000000" opacity="1.00" d=" M 32.28 11.58 C 50.09 11.70 67.91 11.70 85.72 11.57 L 85.39 12.21 C 87.83 12.49 90.21 13.09 92.59 13.69 L 92.64 14.64 C 93.09 14.56 94.01 14.40 94.46 14.32 L 94.71 15.63 C 95.16 15.54 96.08 15.37 96.53 15.28 L 96.44 16.24 C 97.50 16.74 98.56 17.23 99.62 17.71 L 99.56 18.05 C 101.57 19.61 103.38 21.43 104.95 23.44 L 105.29 23.39 C 105.77 24.45 106.26 25.51 106.76 26.57 L 107.72 26.47 C 107.63 26.93 107.46 27.84 107.37 28.30 L 108.69 28.54 C 108.61 28.99 108.44 29.90 108.35 30.35 L 109.32 30.42 C 109.81 32.51 110.38 34.58 110.75 36.70 L 111.43 36.25 C 111.30 58.39 111.30 80.55 111.42 102.69 L 110.81 102.46 C 110.50 104.87 109.93 107.23 109.34 109.58 L 108.41 109.58 C 108.47 110.05 108.59 110.99 108.65 111.46 L 107.39 111.73 C 107.47 112.18 107.62 113.08 107.70 113.53 L 106.76 113.44 C 106.26 114.50 105.77 115.56 105.29 116.63 L 104.96 116.56 C 103.39 118.57 101.58 120.39 99.56 121.95 L 99.62 122.25 C 98.65 122.74 97.68 123.23 96.70 123.71 C 95.83 124.34 94.96 124.97 94.09 125.61 C 93.73 125.55 93.00 125.42 92.64 125.35 L 92.63 126.30 C 90.24 126.90 87.84 127.51 85.38 127.79 L 85.73 128.43 C 67.57 128.30 49.40 128.31 31.24 128.42 L 31.74 127.74 C 29.60 127.37 27.52 126.79 25.41 126.31 L 25.36 125.41 C 25.02 125.43 24.34 125.49 24.00 125.52 C 23.36 125.18 22.09 124.50 21.46 124.16 L 21.55 123.75 C 20.49 123.25 19.44 122.77 18.37 122.29 L 18.44 121.95 C 16.43 120.39 14.62 118.58 13.05 116.56 L 12.71 116.62 C 12.23 115.56 11.74 114.50 11.24 113.44 L 10.30 113.53 C 10.38 113.07 10.53 112.15 10.61 111.69 L 9.30 111.46 C 9.39 111.01 9.56 110.10 9.65 109.65 L 8.67 109.59 C 8.10 107.26 7.50 104.93 7.17 102.56 L 6.57 102.67 C 6.70 80.86 6.70 59.04 6.57 37.22 L 7.17 37.48 C 7.50 35.09 8.09 32.75 8.67 30.42 L 9.65 30.34 C 9.57 29.89 9.41 28.98 9.33 28.53 L 10.63 28.29 C 10.54 27.84 10.36 26.93 10.28 26.48 L 11.25 26.55 C 11.74 25.49 12.24 24.42 12.72 23.35 L 13.04 23.51 C 14.59 21.45 16.41 19.61 18.45 18.04 L 18.38 17.70 C 19.44 17.23 20.49 16.74 21.55 16.25 L 21.47 15.83 C 22.11 15.49 23.39 14.82 24.02 14.49 C 24.36 14.51 25.03 14.55 25.37 14.57 L 25.58 13.21 C 26.08 13.39 27.08 13.75 27.59 13.93 L 27.25 12.63 C 29.04 12.57 30.83 12.47 32.61 12.40 L 32.28 11.58 M 40.01 28.16 C 40.04 33.99 40.05 39.82 40.02 45.65 C 37.69 45.65 35.37 45.66 33.04 45.70 C 33.29 50.37 32.80 55.07 33.33 59.72 C 35.44 63.14 40.21 61.27 43.51 61.68 C 46.49 64.52 49.36 67.46 52.34 70.29 C 48.67 70.28 44.99 70.26 41.32 70.30 C 41.34 72.87 41.35 75.43 41.31 78.00 C 49.63 77.81 57.99 78.40 66.28 77.68 C 65.92 77.22 65.21 76.31 64.85 75.85 C 57.95 75.38 51.02 75.81 44.11 75.64 C 44.09 75.01 44.06 73.73 44.04 73.10 C 47.63 73.02 51.23 73.04 54.82 73.04 C 54.84 72.32 54.89 70.86 54.92 70.13 C 57.71 67.47 60.25 64.54 63.21 62.08 C 66.45 60.75 71.51 63.40 73.67 59.72 C 74.21 55.07 73.71 50.37 73.96 45.69 C 71.63 45.66 69.31 45.65 66.98 45.65 C 66.95 39.82 66.96 33.99 66.99 28.16 C 58.00 28.08 49.00 28.07 40.01 28.16 M 77.81 28.00 C 77.85 39.57 77.78 51.15 77.85 62.72 C 77.20 62.77 75.92 62.87 75.27 62.91 C 74.94 63.47 74.28 64.57 73.95 65.12 C 76.30 69.09 78.63 73.08 81.00 77.04 C 83.46 72.95 85.85 68.82 88.29 64.73 C 87.00 63.77 85.61 62.95 84.14 62.31 C 84.23 50.87 84.14 39.44 84.19 28.00 C 82.06 28.00 79.94 28.00 77.81 28.00 Z" />
<path fill="#000000" opacity="1.00" d=" M 42.80 31.04 C 49.93 31.04 57.06 31.04 64.19 31.04 C 64.19 36.79 64.28 42.55 64.12 48.30 C 66.40 48.33 68.67 48.35 70.95 48.36 C 70.92 51.89 70.93 55.41 70.94 58.94 C 59.31 58.98 47.69 58.98 36.06 58.94 C 36.07 55.41 36.08 51.88 36.05 48.36 C 42.78 48.30 49.51 48.36 56.23 48.34 C 56.23 47.67 56.23 46.33 56.24 45.66 C 51.75 45.66 47.27 45.64 42.79 45.68 C 42.79 43.89 42.80 42.11 42.81 40.32 C 47.28 40.35 51.76 40.34 56.23 40.34 C 56.23 39.67 56.23 38.33 56.24 37.66 C 51.76 37.66 47.28 37.64 42.80 37.69 C 42.79 35.48 42.80 33.26 42.80 31.04 Z" />
<path fill="#000000" opacity="1.00" d=" M 79.40 31.05 C 80.47 31.05 81.54 31.06 82.61 31.06 C 82.53 42.55 82.54 54.03 82.57 65.52 C 83.31 65.49 84.79 65.45 85.52 65.43 C 84.04 68.00 82.52 70.56 81.00 73.11 C 79.46 70.49 77.88 67.89 76.33 65.28 C 77.10 65.34 78.64 65.47 79.41 65.54 C 79.48 54.04 79.45 42.55 79.40 31.05 Z" />
<path fill="#000000" opacity="1.00" d=" M 47.30 61.72 C 51.43 61.72 55.56 61.72 59.69 61.72 C 57.61 63.72 55.53 65.74 53.48 67.78 C 51.46 65.72 49.39 63.71 47.30 61.72 Z" />
</g>
<g id="#e4ebeeff">
<path fill="#e4ebee" opacity="1.00" d=" M 31.37 10.56 C 49.78 10.22 68.21 10.22 86.62 10.55 L 86.30 11.24 C 88.78 11.27 91.16 11.92 93.51 12.66 L 93.46 13.69 C 93.95 13.56 94.91 13.29 95.40 13.16 L 95.40 14.61 C 95.86 14.53 96.79 14.36 97.25 14.27 L 97.47 15.13 C 98.88 15.96 100.25 16.86 101.64 17.73 L 101.52 18.00 C 102.83 19.00 104.00 20.18 105.01 21.49 L 105.26 21.34 C 106.13 22.73 107.03 24.11 107.86 25.52 L 108.71 25.77 C 108.69 26.06 108.64 26.63 108.61 26.91 C 108.93 27.57 109.58 28.89 109.90 29.55 L 110.32 29.53 C 110.84 31.40 111.42 33.26 111.93 35.13 C 112.55 37.69 112.65 40.33 112.66 42.95 C 112.65 59.63 112.64 76.31 112.65 92.99 C 112.63 96.91 112.85 100.90 111.96 104.76 C 111.44 106.67 110.85 108.57 110.32 110.48 L 109.35 110.47 C 109.46 110.97 109.68 111.96 109.79 112.46 L 108.36 112.39 C 108.45 112.86 108.63 113.78 108.73 114.25 L 107.87 114.47 C 107.04 115.88 106.14 117.26 105.27 118.65 L 105.00 118.52 C 104.00 119.84 102.83 121.01 101.51 122.00 L 101.66 122.26 C 100.27 123.14 98.89 124.02 97.47 124.86 L 97.25 125.70 C 96.96 125.68 96.39 125.64 96.11 125.61 C 95.45 125.94 94.14 126.58 93.49 126.90 L 93.48 127.34 C 91.14 128.10 88.76 128.76 86.28 128.75 L 86.64 129.46 C 73.07 129.86 59.50 129.56 45.93 129.65 C 40.67 129.52 35.33 130.09 30.15 128.94 C 28.26 128.42 26.39 127.84 24.51 127.31 L 24.54 126.34 C 24.04 126.45 23.02 126.68 22.52 126.79 L 22.62 125.37 C 22.16 125.46 21.22 125.64 20.75 125.74 L 20.53 124.86 C 19.11 124.03 17.73 123.14 16.35 122.27 L 16.48 122.01 C 15.18 121.00 14.01 119.83 13.00 118.53 L 12.72 118.63 C 11.85 117.25 10.97 115.88 10.15 114.48 L 9.30 114.27 C 9.38 113.80 9.53 112.87 9.61 112.40 L 8.16 112.39 C 8.29 111.91 8.56 110.94 8.70 110.46 L 7.67 110.48 C 7.15 108.59 6.57 106.72 6.06 104.82 C 5.54 102.60 5.35 100.31 5.34 98.02 C 5.35 79.67 5.37 61.32 5.34 42.96 C 5.33 40.36 5.45 37.73 6.08 35.18 C 6.58 33.28 7.16 31.40 7.69 29.50 L 8.70 29.54 C 8.57 29.06 8.29 28.10 8.16 27.61 L 9.59 27.60 C 9.52 27.12 9.37 26.18 9.30 25.71 L 10.14 25.53 C 10.98 24.11 11.87 22.73 12.74 21.34 L 12.99 21.50 C 14.00 20.19 15.15 19.01 16.45 18.00 L 16.37 17.73 C 17.75 16.86 19.12 15.97 20.52 15.14 L 20.73 14.29 C 21.20 14.37 22.14 14.52 22.60 14.60 L 22.61 13.16 C 23.09 13.29 24.05 13.56 24.54 13.70 L 24.49 12.66 C 26.84 11.92 29.22 11.27 31.71 11.24 L 31.37 10.56 M 32.28 11.58 L 32.61 12.40 C 30.83 12.47 29.04 12.57 27.25 12.63 L 27.59 13.93 C 27.08 13.75 26.08 13.39 25.58 13.21 L 25.37 14.57 C 25.03 14.55 24.36 14.51 24.02 14.49 C 23.39 14.82 22.11 15.49 21.47 15.83 L 21.55 16.25 C 20.49 16.74 19.44 17.23 18.38 17.70 L 18.45 18.04 C 16.41 19.61 14.59 21.45 13.04 23.51 L 12.72 23.35 C 12.24 24.42 11.74 25.49 11.25 26.55 L 10.28 26.48 C 10.36 26.93 10.54 27.84 10.63 28.29 L 9.33 28.53 C 9.41 28.98 9.57 29.89 9.65 30.34 L 8.67 30.42 C 8.09 32.75 7.50 35.09 7.17 37.48 L 6.57 37.22 C 6.70 59.04 6.70 80.86 6.57 102.67 L 7.17 102.56 C 7.50 104.93 8.10 107.26 8.67 109.59 L 9.65 109.65 C 9.56 110.10 9.39 111.01 9.30 111.46 L 10.61 111.69 C 10.53 112.15 10.38 113.07 10.30 113.53 L 11.24 113.44 C 11.74 114.50 12.23 115.56 12.71 116.62 L 13.05 116.56 C 14.62 118.58 16.43 120.39 18.44 121.95 L 18.37 122.29 C 19.44 122.77 20.49 123.25 21.55 123.75 L 21.46 124.16 C 22.09 124.50 23.36 125.18 24.00 125.52 C 24.34 125.49 25.02 125.43 25.36 125.41 L 25.41 126.31 C 27.52 126.79 29.60 127.37 31.74 127.74 L 31.24 128.42 C 49.40 128.31 67.57 128.30 85.73 128.43 L 85.38 127.79 C 87.84 127.51 90.24 126.90 92.63 126.30 L 92.64 125.35 C 93.00 125.42 93.73 125.55 94.09 125.61 C 94.96 124.97 95.83 124.34 96.70 123.71 C 97.68 123.23 98.65 122.74 99.62 122.25 L 99.56 121.95 C 101.58 120.39 103.39 118.57 104.96 116.56 L 105.29 116.63 C 105.77 115.56 106.26 114.50 106.76 113.44 L 107.70 113.53 C 107.62 113.08 107.47 112.18 107.39 111.73 L 108.65 111.46 C 108.59 110.99 108.47 110.05 108.41 109.58 L 109.34 109.58 C 109.93 107.23 110.50 104.87 110.81 102.46 L 111.42 102.69 C 111.30 80.55 111.30 58.39 111.43 36.25 L 110.75 36.70 C 110.38 34.58 109.81 32.51 109.32 30.42 L 108.35 30.35 C 108.44 29.90 108.61 28.99 108.69 28.54 L 107.37 28.30 C 107.46 27.84 107.63 26.93 107.72 26.47 L 106.76 26.57 C 106.26 25.51 105.77 24.45 105.29 23.39 L 104.95 23.44 C 103.38 21.43 101.57 19.61 99.56 18.05 L 99.62 17.71 C 98.56 17.23 97.50 16.74 96.44 16.24 L 96.53 15.28 C 96.08 15.37 95.16 15.54 94.71 15.63 L 94.46 14.32 C 94.01 14.40 93.09 14.56 92.64 14.64 L 92.59 13.69 C 90.21 13.09 87.83 12.49 85.39 12.21 L 85.72 11.57 C 67.91 11.70 50.09 11.70 32.28 11.58 Z" />
<path fill="#e4ebee" opacity="1.00" d=" M 40.01 28.16 C 49.00 28.07 58.00 28.08 66.99 28.16 C 66.96 33.99 66.95 39.82 66.98 45.65 C 69.31 45.65 71.63 45.66 73.96 45.69 C 73.71 50.37 74.21 55.07 73.67 59.72 C 71.51 63.40 66.45 60.75 63.21 62.08 C 60.25 64.54 57.71 67.47 54.92 70.13 C 54.89 70.86 54.84 72.32 54.82 73.04 C 51.23 73.04 47.63 73.02 44.04 73.10 C 44.06 73.73 44.09 75.01 44.11 75.64 C 51.02 75.81 57.95 75.38 64.85 75.85 C 65.21 76.31 65.92 77.22 66.28 77.68 C 57.99 78.40 49.63 77.81 41.31 78.00 C 41.35 75.43 41.34 72.87 41.32 70.30 C 44.99 70.26 48.67 70.28 52.34 70.29 C 49.36 67.46 46.49 64.52 43.51 61.68 C 40.21 61.27 35.44 63.14 33.33 59.72 C 32.80 55.07 33.29 50.37 33.04 45.70 C 35.37 45.66 37.69 45.65 40.02 45.65 C 40.05 39.82 40.04 33.99 40.01 28.16 M 42.80 31.04 C 42.80 33.26 42.79 35.48 42.80 37.69 C 47.28 37.64 51.76 37.66 56.24 37.66 C 56.23 38.33 56.23 39.67 56.23 40.34 C 51.76 40.34 47.28 40.35 42.81 40.32 C 42.80 42.11 42.79 43.89 42.79 45.68 C 47.27 45.64 51.75 45.66 56.24 45.66 C 56.23 46.33 56.23 47.67 56.23 48.34 C 49.51 48.36 42.78 48.30 36.05 48.36 C 36.08 51.88 36.07 55.41 36.06 58.94 C 47.69 58.98 59.31 58.98 70.94 58.94 C 70.93 55.41 70.92 51.89 70.95 48.36 C 68.67 48.35 66.40 48.33 64.12 48.30 C 64.28 42.55 64.19 36.79 64.19 31.04 C 57.06 31.04 49.93 31.04 42.80 31.04 M 47.30 61.72 C 49.39 63.71 51.46 65.72 53.48 67.78 C 55.53 65.74 57.61 63.72 59.69 61.72 C 55.56 61.72 51.43 61.72 47.30 61.72 Z" />
<path fill="#e4ebee" opacity="1.00" d=" M 77.81 28.00 C 79.94 28.00 82.06 28.00 84.19 28.00 C 84.14 39.44 84.23 50.87 84.14 62.31 C 85.61 62.95 87.00 63.77 88.29 64.73 C 85.85 68.82 83.46 72.95 81.00 77.04 C 78.63 73.08 76.30 69.09 73.95 65.12 C 74.28 64.57 74.94 63.47 75.27 62.91 C 75.92 62.87 77.20 62.77 77.85 62.72 C 77.78 51.15 77.85 39.57 77.81 28.00 M 79.40 31.05 C 79.45 42.55 79.48 54.04 79.41 65.54 C 78.64 65.47 77.10 65.34 76.33 65.28 C 77.88 67.89 79.46 70.49 81.00 73.11 C 82.52 70.56 84.04 68.00 85.52 65.43 C 84.79 65.45 83.31 65.49 82.57 65.52 C 82.54 54.03 82.53 42.55 82.61 31.06 C 81.54 31.06 80.47 31.05 79.40 31.05 Z" />
</g>
</svg>
