<?xml version="1.0" encoding="UTF-8" ?>
<!DOCTYPE svg PUBLIC "-//W3C//DTD SVG 1.1//EN" "http://www.w3.org/Graphics/SVG/1.1/DTD/svg11.dtd">
<svg width="117px" height="140px" viewBox="0 0 117 140" version="1.1" xmlns="http://www.w3.org/2000/svg">
<g id="#000000ff">
<path fill="#000000" opacity="1.00" d=" M 0.00 0.00 L 117.00 0.00 L 117.00 140.00 L 0.00 140.00 L 0.00 0.00 M 31.34 10.58 L 31.76 11.41 C 29.24 11.20 26.85 11.94 24.49 12.70 L 24.51 13.83 C 24.05 13.65 23.12 13.29 22.65 13.11 L 22.63 14.66 C 22.15 14.57 21.20 14.38 20.73 14.29 L 20.58 15.20 C 19.12 15.92 17.81 16.89 16.46 17.79 L 16.59 18.27 C 15.29 18.53 14.51 19.30 14.24 20.57 L 13.21 20.34 L 13.74 21.71 L 12.80 21.42 C 11.91 22.76 10.97 24.08 10.24 25.52 C 9.99 25.60 9.49 25.77 9.24 25.85 L 9.73 27.55 L 8.14 27.67 C 8.31 28.13 8.64 29.06 8.81 29.53 L 7.68 29.50 C 6.79 33.30 5.26 37.02 5.40 41.00 C 5.44 61.72 5.26 82.44 5.51 103.16 C 5.75 103.53 6.25 104.26 6.50 104.63 C 6.49 105.40 6.45 106.93 6.44 107.70 L 7.51 107.19 C 7.49 108.02 7.44 109.67 7.42 110.49 L 8.82 110.46 C 8.65 110.92 8.31 111.85 8.15 112.31 L 9.77 112.49 L 9.24 114.18 C 9.48 114.25 9.97 114.38 10.22 114.45 C 10.96 115.91 11.92 117.24 12.82 118.61 L 13.94 118.42 L 13.11 119.79 L 14.84 119.13 L 14.06 120.69 L 15.66 120.26 L 15.35 121.86 L 16.67 121.11 L 16.40 122.19 C 17.76 123.08 19.10 124.02 20.55 124.78 C 20.62 125.03 20.76 125.53 20.83 125.78 L 22.53 125.24 L 22.69 126.89 C 23.15 126.70 24.07 126.33 24.53 126.15 L 24.46 127.53 C 25.28 127.53 26.91 127.52 27.73 127.52 L 27.35 128.41 C 30.25 128.59 33.01 129.72 35.94 129.60 C 50.63 129.63 65.32 129.58 80.01 129.62 C 82.26 129.60 84.60 129.71 86.72 128.79 C 89.05 128.66 91.27 127.99 93.48 127.30 L 93.47 126.20 C 93.94 126.36 94.89 126.70 95.37 126.86 L 95.38 125.32 C 95.85 125.42 96.80 125.62 97.27 125.72 L 97.40 124.80 C 98.87 124.08 100.21 123.13 101.57 122.23 L 101.35 121.75 C 102.68 121.49 103.48 120.70 103.75 119.37 L 104.81 119.77 L 104.20 118.35 L 105.18 118.58 C 106.08 117.22 107.04 115.88 107.81 114.44 L 108.69 114.27 C 108.60 113.80 108.42 112.86 108.33 112.38 L 109.88 112.36 C 109.70 111.89 109.36 110.96 109.19 110.49 L 110.34 110.49 C 111.20 106.70 112.74 103.00 112.58 99.04 C 112.63 79.71 112.62 60.38 112.59 41.05 C 112.73 37.06 111.20 33.33 110.34 29.51 L 109.21 29.52 C 109.37 29.06 109.69 28.13 109.85 27.66 L 108.23 27.52 L 108.70 26.16 C 107.35 24.70 106.18 23.10 105.16 21.40 L 104.23 21.71 L 104.74 20.31 L 103.20 20.63 L 103.81 19.19 L 102.37 19.79 L 102.70 18.27 L 101.31 18.75 L 101.57 17.83 C 100.22 16.90 98.89 15.91 97.40 15.20 L 97.27 14.28 C 96.80 14.38 95.86 14.57 95.39 14.67 L 95.34 13.11 C 94.87 13.30 93.93 13.66 93.46 13.84 L 93.54 12.46 C 92.68 12.47 90.94 12.48 90.08 12.49 L 90.76 11.63 C 87.48 11.35 84.32 10.15 80.99 10.38 C 64.44 10.50 47.89 10.16 31.34 10.58 Z" />
<path fill="#000000" opacity="1.00" d=" M 27.19 12.63 C 29.86 12.81 32.33 11.52 34.99 11.60 C 52.27 11.55 69.55 11.74 86.82 11.51 L 86.30 12.26 C 88.43 12.52 90.50 13.10 92.58 13.62 L 92.71 14.24 C 94.00 14.65 95.27 15.10 96.54 15.55 L 96.74 16.70 C 97.23 16.57 98.21 16.31 98.70 16.17 L 98.14 17.63 L 99.19 17.30 C 103.47 21.60 108.77 26.27 109.44 32.59 C 109.66 32.49 110.11 32.29 110.33 32.20 C 110.37 33.75 110.60 35.30 111.31 36.70 C 111.44 58.90 111.45 81.11 111.30 103.31 C 110.58 104.69 110.39 106.24 110.33 107.79 C 110.02 107.72 109.41 107.57 109.11 107.49 L 109.74 108.99 C 108.63 110.25 107.60 111.73 107.49 113.47 C 107.18 113.56 106.55 113.74 106.24 113.83 L 106.92 115.60 L 105.80 115.29 C 104.38 118.43 101.25 120.15 99.19 122.78 L 98.17 122.25 L 98.69 123.78 C 98.20 123.67 97.22 123.44 96.73 123.32 L 96.55 124.45 C 94.92 124.83 93.29 125.48 92.09 126.70 C 91.67 126.56 90.83 126.29 90.42 126.15 L 90.86 127.33 C 88.23 127.24 85.76 128.36 83.15 128.39 C 65.83 128.45 48.51 128.26 31.19 128.49 L 31.68 127.69 C 29.57 127.57 27.56 126.89 25.51 126.41 C 25.44 126.24 25.30 125.89 25.23 125.72 C 23.96 125.35 22.71 124.93 21.48 124.46 C 21.41 124.15 21.25 123.54 21.18 123.23 L 19.40 123.94 L 19.72 122.81 C 16.61 121.36 14.83 118.30 12.26 116.18 L 12.69 115.15 L 11.19 115.69 C 11.32 115.20 11.57 114.21 11.70 113.72 L 10.61 113.62 C 10.17 112.03 9.46 110.55 8.57 109.17 C 8.14 107.15 7.55 105.16 6.62 103.32 C 6.66 81.11 6.50 58.91 6.69 36.70 C 7.44 35.28 7.61 33.68 7.71 32.11 L 8.82 32.62 C 8.69 32.21 8.44 31.39 8.31 30.99 C 9.45 29.66 10.13 28.00 10.63 26.34 L 11.72 26.30 C 11.58 25.80 11.31 24.81 11.17 24.32 L 12.67 24.84 L 12.26 23.79 C 14.51 21.67 16.69 19.48 18.81 17.23 L 19.82 17.74 L 19.31 16.22 C 19.81 16.33 20.79 16.57 21.28 16.68 L 21.44 15.64 C 22.05 15.44 23.29 15.03 23.90 14.82 C 24.41 14.45 25.44 13.70 25.95 13.33 C 26.35 13.45 27.14 13.71 27.54 13.84 L 27.19 12.63 M 38.63 41.56 C 35.77 44.06 32.12 45.87 29.97 49.08 C 28.03 54.33 34.42 56.64 37.45 59.54 C 39.69 62.12 43.07 61.43 46.01 60.88 C 46.00 58.26 46.00 55.63 46.00 53.00 C 48.00 53.00 50.00 53.00 52.00 53.00 C 52.00 52.25 52.00 50.75 52.00 50.00 C 50.00 50.00 48.00 50.00 46.00 50.00 C 46.00 47.04 46.00 44.08 46.01 41.12 C 43.58 40.95 40.73 39.67 38.63 41.56 M 70.98 41.07 C 71.00 44.05 71.00 47.02 71.00 50.00 C 68.67 50.00 66.33 50.00 64.00 50.00 C 64.00 50.75 64.00 52.25 64.00 53.00 C 66.33 53.00 68.67 53.00 71.00 53.00 C 71.00 55.63 71.01 58.26 70.97 60.90 C 73.36 61.59 76.13 61.96 78.02 59.95 C 80.90 57.10 85.91 55.49 86.47 51.00 C 86.02 46.69 81.26 45.13 78.52 42.43 C 76.54 40.24 73.60 40.23 70.98 41.07 M 53.00 50.00 C 53.00 50.75 53.00 52.25 53.00 53.00 C 53.75 53.00 55.25 53.00 56.00 53.00 C 56.00 52.25 56.00 50.75 56.00 50.00 C 55.25 50.00 53.75 50.00 53.00 50.00 M 57.00 50.00 C 57.00 50.75 57.00 52.25 57.00 53.00 C 59.00 53.00 61.00 53.00 63.00 53.00 C 63.00 52.25 63.00 50.75 63.00 50.00 C 61.00 50.00 59.00 50.00 57.00 50.00 Z" />
<path fill="#000000" opacity="1.00" d=" M 33.01 51.00 C 36.01 48.67 39.01 46.35 42.00 44.01 C 42.00 48.66 42.00 53.31 42.00 57.97 C 39.00 55.65 36.00 53.32 33.01 51.00 Z" />
<path fill="#000000" opacity="1.00" d=" M 75.00 44.81 C 77.67 46.87 80.33 48.93 82.99 51.00 C 80.33 53.07 77.66 55.13 75.00 57.19 C 75.00 53.06 75.00 48.94 75.00 44.81 Z" />
</g>
<g id="#f6fbf7ff">
<path fill="#f6fbf7" opacity="1.00" d=" M 31.34 10.58 C 47.89 10.16 64.44 10.50 80.99 10.38 C 84.32 10.15 87.48 11.35 90.76 11.63 L 90.08 12.49 C 90.94 12.48 92.68 12.47 93.54 12.46 L 93.46 13.84 C 93.93 13.66 94.87 13.30 95.34 13.11 L 95.39 14.67 C 95.86 14.57 96.80 14.38 97.27 14.28 L 97.40 15.20 C 98.89 15.91 100.22 16.90 101.57 17.83 L 101.31 18.75 L 102.70 18.27 L 102.37 19.79 L 103.81 19.19 L 103.20 20.63 L 104.74 20.31 L 104.23 21.71 L 105.16 21.40 C 106.18 23.10 107.35 24.70 108.70 26.16 L 108.23 27.52 L 109.85 27.66 C 109.69 28.13 109.37 29.06 109.21 29.52 L 110.34 29.51 C 111.20 33.33 112.73 37.06 112.59 41.05 C 112.62 60.38 112.63 79.71 112.58 99.04 C 112.74 103.00 111.20 106.70 110.34 110.49 L 109.19 110.49 C 109.36 110.96 109.70 111.89 109.88 112.36 L 108.33 112.38 C 108.42 112.86 108.60 113.80 108.69 114.27 L 107.81 114.44 C 107.04 115.88 106.08 117.22 105.18 118.58 L 104.20 118.35 L 104.81 119.77 L 103.75 119.37 C 103.48 120.70 102.68 121.49 101.35 121.75 L 101.57 122.23 C 100.21 123.13 98.87 124.08 97.40 124.80 L 97.27 125.72 C 96.80 125.62 95.85 125.42 95.38 125.32 L 95.37 126.86 C 94.89 126.70 93.94 126.36 93.47 126.20 L 93.48 127.30 C 91.27 127.99 89.05 128.66 86.72 128.79 C 84.60 129.71 82.26 129.60 80.01 129.62 C 65.32 129.58 50.63 129.63 35.94 129.60 C 33.01 129.72 30.25 128.59 27.35 128.41 L 27.73 127.52 C 26.91 127.52 25.28 127.53 24.46 127.53 L 24.53 126.15 C 24.07 126.33 23.15 126.70 22.69 126.89 L 22.53 125.24 L 20.83 125.78 C 20.76 125.53 20.62 125.03 20.55 124.78 C 19.10 124.02 17.76 123.08 16.40 122.19 L 16.67 121.11 L 15.35 121.86 L 15.66 120.26 L 14.06 120.69 L 14.84 119.13 L 13.11 119.79 L 13.94 118.42 L 12.82 118.61 C 11.92 117.24 10.96 115.91 10.22 114.45 C 9.97 114.38 9.48 114.25 9.24 114.18 L 9.77 112.49 L 8.15 112.31 C 8.31 111.85 8.65 110.92 8.82 110.46 L 7.42 110.49 C 7.44 109.67 7.49 108.02 7.51 107.19 L 6.44 107.70 C 6.45 106.93 6.49 105.40 6.50 104.63 C 6.25 104.26 5.75 103.53 5.51 103.16 C 5.26 82.44 5.44 61.72 5.40 41.00 C 5.26 37.02 6.79 33.30 7.68 29.50 L 8.81 29.53 C 8.64 29.06 8.31 28.13 8.14 27.67 L 9.73 27.55 L 9.24 25.85 C 9.49 25.77 9.99 25.60 10.24 25.52 C 10.97 24.08 11.91 22.76 12.80 21.42 L 13.74 21.71 L 13.21 20.34 L 14.24 20.57 C 14.51 19.30 15.29 18.53 16.59 18.27 L 16.46 17.79 C 17.81 16.89 19.12 15.92 20.58 15.20 L 20.73 14.29 C 21.20 14.38 22.15 14.57 22.63 14.66 L 22.65 13.11 C 23.12 13.29 24.05 13.65 24.51 13.83 L 24.49 12.70 C 26.85 11.94 29.24 11.20 31.76 11.41 L 31.34 10.58 M 27.19 12.63 L 27.54 13.84 C 27.14 13.71 26.35 13.45 25.95 13.33 C 25.44 13.70 24.41 14.45 23.90 14.82 C 23.29 15.03 22.05 15.44 21.44 15.64 L 21.28 16.68 C 20.79 16.57 19.81 16.33 19.31 16.22 L 19.82 17.74 L 18.81 17.23 C 16.69 19.48 14.51 21.67 12.26 23.79 L 12.67 24.84 L 11.17 24.32 C 11.31 24.81 11.58 25.80 11.72 26.30 L 10.63 26.34 C 10.13 28.00 9.45 29.66 8.31 30.99 C 8.44 31.39 8.69 32.21 8.82 32.62 L 7.71 32.11 C 7.61 33.68 7.44 35.28 6.69 36.70 C 6.50 58.91 6.66 81.11 6.62 103.32 C 7.55 105.16 8.14 107.15 8.57 109.17 C 9.46 110.55 10.17 112.03 10.61 113.62 L 11.70 113.72 C 11.57 114.21 11.32 115.20 11.19 115.69 L 12.69 115.15 L 12.26 116.18 C 14.83 118.30 16.61 121.36 19.72 122.81 L 19.40 123.94 L 21.18 123.23 C 21.25 123.54 21.41 124.15 21.48 124.46 C 22.71 124.93 23.96 125.35 25.23 125.72 C 25.30 125.89 25.44 126.24 25.51 126.41 C 27.56 126.89 29.57 127.57 31.68 127.69 L 31.19 128.49 C 48.51 128.26 65.83 128.45 83.15 128.39 C 85.76 128.36 88.23 127.24 90.86 127.33 L 90.42 126.15 C 90.83 126.29 91.67 126.56 92.09 126.70 C 93.29 125.48 94.92 124.83 96.55 124.45 L 96.73 123.32 C 97.22 123.44 98.20 123.67 98.69 123.78 L 98.17 122.25 L 99.19 122.78 C 101.25 120.15 104.38 118.43 105.80 115.29 L 106.92 115.60 L 106.24 113.83 C 106.55 113.74 107.18 113.56 107.49 113.47 C 107.60 111.73 108.63 110.25 109.74 108.99 L 109.11 107.49 C 109.41 107.57 110.02 107.72 110.33 107.79 C 110.39 106.24 110.58 104.69 111.30 103.31 C 111.45 81.11 111.44 58.90 111.31 36.70 C 110.60 35.30 110.37 33.75 110.33 32.20 C 110.11 32.29 109.66 32.49 109.44 32.59 C 108.77 26.27 103.47 21.60 99.19 17.30 L 98.14 17.63 L 98.70 16.17 C 98.21 16.31 97.23 16.57 96.74 16.70 L 96.54 15.55 C 95.27 15.10 94.00 14.65 92.71 14.24 L 92.58 13.62 C 90.50 13.10 88.43 12.52 86.30 12.26 L 86.82 11.51 C 69.55 11.74 52.27 11.55 34.99 11.60 C 32.33 11.52 29.86 12.81 27.19 12.63 Z" />
<path fill="#f6fbf7" opacity="1.00" d=" M 38.63 41.56 C 40.73 39.67 43.58 40.95 46.01 41.12 C 46.00 44.08 46.00 47.04 46.00 50.00 C 48.00 50.00 50.00 50.00 52.00 50.00 C 52.00 50.75 52.00 52.25 52.00 53.00 C 50.00 53.00 48.00 53.00 46.00 53.00 C 46.00 55.63 46.00 58.26 46.01 60.88 C 43.07 61.43 39.69 62.12 37.45 59.54 C 34.42 56.64 28.03 54.33 29.97 49.08 C 32.12 45.87 35.77 44.06 38.63 41.56 M 33.01 51.00 C 36.00 53.32 39.00 55.65 42.00 57.97 C 42.00 53.31 42.00 48.66 42.00 44.01 C 39.01 46.35 36.01 48.67 33.01 51.00 Z" />
<path fill="#f6fbf7" opacity="1.00" d=" M 70.98 41.07 C 73.60 40.23 76.54 40.24 78.52 42.43 C 81.26 45.13 86.02 46.69 86.47 51.00 C 85.91 55.49 80.90 57.10 78.02 59.95 C 76.13 61.96 73.36 61.59 70.97 60.90 C 71.01 58.26 71.00 55.63 71.00 53.00 C 68.67 53.00 66.33 53.00 64.00 53.00 C 64.00 52.25 64.00 50.75 64.00 50.00 C 66.33 50.00 68.67 50.00 71.00 50.00 C 71.00 47.02 71.00 44.05 70.98 41.07 M 75.00 44.81 C 75.00 48.94 75.00 53.06 75.00 57.19 C 77.66 55.13 80.33 53.07 82.99 51.00 C 80.33 48.93 77.67 46.87 75.00 44.81 Z" />
<path fill="#f6fbf7" opacity="1.00" d=" M 53.00 50.00 C 53.75 50.00 55.25 50.00 56.00 50.00 C 56.00 50.75 56.00 52.25 56.00 53.00 C 55.25 53.00 53.75 53.00 53.00 53.00 C 53.00 52.25 53.00 50.75 53.00 50.00 Z" />
<path fill="#f6fbf7" opacity="1.00" d=" M 57.00 50.00 C 59.00 50.00 61.00 50.00 63.00 50.00 C 63.00 50.75 63.00 52.25 63.00 53.00 C 61.00 53.00 59.00 53.00 57.00 53.00 C 57.00 52.25 57.00 50.75 57.00 50.00 Z" />
</g>
</svg>
