<?xml version="1.0" encoding="UTF-8" ?>
<!DOCTYPE svg PUBLIC "-//W3C//DTD SVG 1.1//EN" "http://www.w3.org/Graphics/SVG/1.1/DTD/svg11.dtd">
<svg width="117px" height="140px" viewBox="0 0 117 140" version="1.1" xmlns="http://www.w3.org/2000/svg">
<g id="#000000ff">
<path fill="#000000" opacity="1.00" d=" M 0.00 0.00 L 117.00 0.00 L 117.00 140.00 L 0.00 140.00 L 0.00 0.00 M 23.15 13.14 C 21.55 13.93 19.94 14.73 18.42 15.66 C 13.62 19.13 9.49 23.68 7.15 29.16 C 5.13 33.44 4.26 38.24 4.37 42.96 C 4.39 60.96 4.39 78.97 4.37 96.98 C 4.28 101.71 5.08 106.55 7.16 110.83 C 9.50 116.32 13.63 120.88 18.43 124.35 C 19.95 125.27 21.53 126.07 23.13 126.86 C 26.78 128.65 30.90 129.24 34.91 129.61 C 48.94 129.64 62.98 129.59 77.01 129.63 C 82.39 129.79 87.92 129.09 92.85 126.86 C 98.34 124.51 102.86 120.37 106.34 115.58 C 107.27 114.06 108.07 112.46 108.86 110.87 C 110.10 108.42 110.56 105.70 111.31 103.08 C 112.01 85.39 111.42 67.65 111.62 49.94 C 111.42 45.28 112.17 40.50 110.92 35.94 C 110.49 33.60 110.02 31.24 108.84 29.14 C 105.72 22.10 99.91 16.23 92.84 13.15 C 87.96 10.84 82.38 10.24 77.03 10.37 C 64.37 10.39 51.71 10.39 39.05 10.37 C 33.67 10.23 28.07 10.85 23.15 13.14 Z" />
<path fill="#000000" opacity="1.00" d=" M 31.81 11.69 C 48.19 11.51 64.59 11.70 80.97 11.59 C 83.73 11.54 86.41 12.25 89.09 12.80 C 98.46 15.99 106.05 23.54 109.19 32.94 C 109.47 34.36 109.82 35.77 110.24 37.15 C 110.49 59.08 110.45 81.02 110.26 102.94 C 109.80 104.27 109.46 105.64 109.20 107.02 C 106.11 116.07 99.00 123.73 89.86 126.80 C 87.96 127.29 86.06 127.81 84.17 128.36 C 66.72 128.36 49.26 128.47 31.80 128.30 C 30.08 127.72 28.28 127.47 26.48 127.31 L 26.46 126.69 C 17.03 124.14 9.97 116.00 6.77 107.01 C 6.22 104.71 5.55 102.40 5.59 100.01 C 5.63 79.99 5.64 59.97 5.59 39.94 C 5.53 37.58 6.21 35.31 6.77 33.05 C 9.91 23.60 17.52 15.91 27.00 12.82 C 28.61 12.51 30.22 12.15 31.81 11.69 M 41.59 42.00 C 41.59 50.67 41.59 59.33 41.59 68.00 C 44.40 68.00 47.20 68.00 50.00 68.00 C 50.00 64.94 50.00 61.88 50.00 58.83 C 53.22 58.82 56.43 58.82 59.64 58.84 C 59.62 56.76 59.60 54.67 59.59 52.59 C 56.40 52.59 53.21 52.59 50.03 52.62 C 50.01 51.21 50.01 49.80 50.00 48.39 C 53.95 48.42 57.89 48.41 61.83 48.40 C 61.82 46.27 61.82 44.13 61.83 42.00 C 55.08 42.00 48.34 42.00 41.59 42.00 M 64.60 49.17 C 64.59 55.45 64.59 61.72 64.59 68.00 C 67.27 68.00 69.95 68.00 72.63 67.99 C 72.70 64.71 72.22 61.35 73.01 58.14 C 74.09 56.00 76.54 55.87 78.63 56.18 C 78.65 53.48 78.61 50.77 78.41 48.07 C 75.61 48.45 73.09 49.73 71.63 52.24 C 71.69 51.48 71.79 49.94 71.84 49.17 C 69.43 49.18 67.01 49.18 64.60 49.17 Z" />
</g>
<g id="#e76011ff">
<path fill="#e76011" opacity="1.00" d=" M 23.15 13.14 C 28.07 10.85 33.67 10.23 39.05 10.37 C 51.71 10.39 64.37 10.39 77.03 10.37 C 82.38 10.24 87.96 10.84 92.84 13.15 C 99.91 16.23 105.72 22.10 108.84 29.14 C 110.02 31.24 110.49 33.60 110.92 35.94 C 112.17 40.50 111.42 45.28 111.62 49.94 C 111.42 67.65 112.01 85.39 111.31 103.08 C 110.56 105.70 110.10 108.42 108.86 110.87 C 108.07 112.46 107.27 114.06 106.34 115.58 C 102.86 120.37 98.34 124.51 92.85 126.86 C 87.92 129.09 82.39 129.79 77.01 129.63 C 62.98 129.59 48.94 129.64 34.91 129.61 C 30.90 129.24 26.78 128.65 23.13 126.86 C 21.53 126.07 19.95 125.27 18.43 124.35 C 13.63 120.88 9.50 116.32 7.16 110.83 C 5.08 106.55 4.28 101.71 4.37 96.98 C 4.39 78.97 4.39 60.96 4.37 42.96 C 4.26 38.24 5.13 33.44 7.15 29.16 C 9.49 23.68 13.62 19.13 18.42 15.66 C 19.94 14.73 21.55 13.93 23.15 13.14 M 31.81 11.69 C 30.22 12.15 28.61 12.51 27.00 12.82 C 17.52 15.91 9.91 23.60 6.77 33.05 C 6.21 35.31 5.53 37.58 5.59 39.94 C 5.64 59.97 5.63 79.99 5.59 100.01 C 5.55 102.40 6.22 104.71 6.77 107.01 C 9.97 116.00 17.03 124.14 26.46 126.69 L 26.48 127.31 C 28.28 127.47 30.08 127.72 31.80 128.30 C 49.26 128.47 66.72 128.36 84.17 128.36 C 86.06 127.81 87.96 127.29 89.86 126.80 C 99.00 123.73 106.11 116.07 109.20 107.02 C 109.46 105.64 109.80 104.27 110.26 102.94 C 110.45 81.02 110.49 59.08 110.24 37.15 C 109.82 35.77 109.47 34.36 109.19 32.94 C 106.05 23.54 98.46 15.99 89.09 12.80 C 86.41 12.25 83.73 11.54 80.97 11.59 C 64.59 11.70 48.19 11.51 31.81 11.69 Z" />
<path fill="#e76011" opacity="1.00" d=" M 41.59 42.00 C 48.34 42.00 55.08 42.00 61.83 42.00 C 61.82 44.13 61.82 46.27 61.83 48.40 C 57.89 48.41 53.95 48.42 50.00 48.39 C 50.01 49.80 50.01 51.21 50.03 52.62 C 53.21 52.59 56.40 52.59 59.59 52.59 C 59.60 54.67 59.62 56.76 59.64 58.84 C 56.43 58.82 53.22 58.82 50.00 58.83 C 50.00 61.88 50.00 64.94 50.00 68.00 C 47.20 68.00 44.40 68.00 41.59 68.00 C 41.59 59.33 41.59 50.67 41.59 42.00 Z" />
<path fill="#e76011" opacity="1.00" d=" M 64.60 49.17 C 67.01 49.18 69.43 49.18 71.84 49.17 C 71.79 49.94 71.69 51.48 71.63 52.24 C 73.09 49.73 75.61 48.45 78.41 48.07 C 78.61 50.77 78.65 53.48 78.63 56.18 C 76.54 55.87 74.09 56.00 73.01 58.14 C 72.22 61.35 72.70 64.71 72.63 67.99 C 69.95 68.00 67.27 68.00 64.59 68.00 C 64.59 61.72 64.59 55.45 64.60 49.17 Z" />
</g>
</svg>
