<?xml version="1.0" encoding="UTF-8" ?>
<!DOCTYPE svg PUBLIC "-//W3C//DTD SVG 1.1//EN" "http://www.w3.org/Graphics/SVG/1.1/DTD/svg11.dtd">
<svg width="117px" height="140px" viewBox="0 0 117 140" version="1.1" xmlns="http://www.w3.org/2000/svg">
<g id="#000000ff">
<path fill="#000000" opacity="1.00" d=" M 0.00 0.00 L 117.00 0.00 L 117.00 140.00 L 0.00 140.00 L 0.00 0.00 M 30.25 10.53 L 30.84 11.42 C 29.18 11.50 27.21 11.05 26.02 12.59 C 25.63 12.45 24.85 12.18 24.46 12.04 L 24.62 13.77 C 24.04 13.58 22.87 13.18 22.29 12.99 L 22.83 14.17 C 20.76 14.43 19.06 15.63 17.41 16.81 L 17.72 17.20 C 15.23 18.20 13.17 20.22 12.22 22.74 L 11.82 22.32 C 10.63 24.84 8.09 26.73 8.31 29.79 L 6.98 29.42 C 7.19 29.95 7.60 31.02 7.81 31.55 L 6.45 31.50 C 6.45 32.96 6.46 34.42 6.48 35.89 L 5.52 35.21 C 5.30 58.38 5.32 81.57 5.51 104.75 L 6.50 104.16 C 6.46 105.60 6.44 107.04 6.43 108.49 L 7.80 108.44 C 7.60 108.97 7.21 110.03 7.01 110.56 L 8.70 110.32 C 8.55 110.88 8.26 112.01 8.11 112.57 L 9.20 112.40 C 9.57 114.38 10.70 116.05 11.83 117.67 L 12.20 117.29 C 12.42 118.85 13.28 119.66 14.81 119.71 L 13.99 120.87 L 14.90 120.65 C 15.52 121.77 16.45 122.48 17.69 122.78 L 17.34 123.18 C 19.82 124.40 21.75 126.89 24.78 126.68 L 24.41 127.99 C 24.81 127.84 25.62 127.55 26.03 127.41 C 27.16 129.06 29.20 128.41 30.84 128.59 L 30.25 129.47 C 49.42 129.70 68.59 129.70 87.75 129.47 L 87.15 128.59 C 88.82 128.41 90.88 129.06 92.01 127.36 C 92.40 127.54 93.19 127.91 93.58 128.09 L 93.19 126.71 C 96.23 126.88 98.19 124.41 100.69 123.17 L 100.30 122.82 C 102.90 122.00 105.01 119.95 105.68 117.27 L 106.15 117.70 C 107.31 116.03 108.50 114.30 108.79 112.23 L 109.90 112.72 C 109.75 112.12 109.46 110.92 109.32 110.32 L 111.07 110.52 C 110.83 110.02 110.36 109.00 110.13 108.49 L 111.55 108.51 C 111.55 107.06 111.54 105.61 111.51 104.16 L 112.49 104.74 C 112.69 81.58 112.69 58.42 112.49 35.26 L 111.50 35.83 C 111.53 34.39 111.56 32.95 111.57 31.51 L 110.21 31.56 C 110.41 31.02 110.80 29.94 110.99 29.40 L 109.68 29.78 C 109.91 26.73 107.35 24.82 106.17 22.30 L 105.72 22.77 C 105.36 21.14 104.45 19.77 102.80 19.27 C 102.41 18.08 101.58 17.40 100.30 17.24 L 100.68 16.84 C 99.04 15.69 97.33 14.55 95.31 14.21 L 95.62 13.07 C 95.05 13.23 93.91 13.56 93.34 13.73 L 93.58 12.05 C 93.18 12.18 92.38 12.44 91.98 12.57 C 90.78 11.07 88.81 11.49 87.15 11.40 L 87.74 10.52 C 68.58 10.31 49.41 10.29 30.25 10.53 Z" />
<path fill="#000000" opacity="1.00" d=" M 28.24 12.48 C 29.76 12.52 31.27 12.56 32.79 12.60 L 32.13 11.54 C 49.69 11.63 67.26 11.72 84.81 11.49 L 84.29 12.39 C 86.12 12.45 87.95 12.53 89.79 12.56 L 89.43 13.54 C 90.27 13.54 91.97 13.54 92.82 13.54 L 92.51 15.00 C 93.01 14.78 94.00 14.35 94.50 14.14 L 94.54 15.70 C 95.09 15.61 96.18 15.45 96.73 15.36 L 96.38 16.94 C 96.82 16.77 97.70 16.45 98.15 16.28 C 98.52 17.76 99.77 18.62 100.85 19.54 L 101.16 19.50 C 101.80 19.77 103.08 20.33 103.72 20.60 C 103.59 21.07 103.33 22.00 103.20 22.47 L 104.18 22.38 C 104.48 23.78 105.33 24.61 106.74 24.85 C 106.57 25.29 106.21 26.16 106.03 26.60 L 107.63 26.27 C 107.55 26.82 107.40 27.92 107.33 28.47 L 108.87 28.50 C 108.65 28.99 108.22 29.98 108.01 30.47 L 109.48 30.21 C 109.48 31.04 109.46 32.69 109.46 33.51 L 110.53 33.27 C 110.48 34.77 110.45 36.27 110.43 37.77 L 111.46 37.14 C 111.35 59.05 111.33 80.96 111.47 102.86 L 110.45 102.21 C 110.46 103.72 110.48 105.22 110.52 106.72 L 109.46 106.49 C 109.46 107.32 109.47 108.97 109.48 109.80 L 108.03 109.51 C 108.24 110.01 108.64 111.01 108.84 111.51 L 107.29 111.55 C 107.39 112.09 107.57 113.16 107.66 113.69 L 106.05 113.42 C 106.23 113.86 106.57 114.75 106.75 115.20 C 104.69 115.08 104.51 116.78 104.33 118.28 C 102.57 118.58 101.50 120.06 100.23 121.16 C 99.11 121.66 98.42 122.52 98.14 123.73 C 97.70 123.56 96.82 123.23 96.37 123.06 L 96.72 124.64 C 96.18 124.56 95.09 124.38 94.55 124.30 L 94.50 125.86 C 94.00 125.65 93.01 125.22 92.52 125.01 L 92.81 126.47 C 91.98 126.47 90.32 126.46 89.49 126.45 L 89.75 127.44 C 87.95 127.49 86.15 127.54 84.35 127.59 L 84.81 128.52 C 67.59 128.31 50.36 128.30 33.15 128.52 L 33.71 127.60 C 31.89 127.54 30.07 127.49 28.25 127.44 L 28.53 126.45 C 27.70 126.46 26.04 126.47 25.21 126.48 L 25.50 125.08 C 24.99 125.26 23.97 125.62 23.47 125.80 L 23.45 124.30 C 22.91 124.39 21.82 124.55 21.28 124.63 L 21.56 122.99 C 21.13 123.18 20.28 123.57 19.85 123.77 C 19.62 122.35 18.80 121.49 17.39 121.17 L 17.42 120.37 C 16.95 120.39 16.01 120.44 15.54 120.47 C 15.56 120.03 15.60 119.14 15.62 118.70 L 14.40 118.66 L 14.52 117.47 L 13.81 117.61 C 13.52 116.19 12.68 115.39 11.27 115.20 C 11.44 114.75 11.76 113.85 11.92 113.40 L 10.33 113.69 C 10.43 113.16 10.63 112.10 10.73 111.57 L 9.17 111.51 C 9.37 111.01 9.76 110.01 9.96 109.51 L 8.52 109.80 C 8.53 108.97 8.54 107.31 8.54 106.48 L 7.56 106.76 C 7.52 104.94 7.44 103.13 7.38 101.31 L 6.49 101.79 C 6.71 80.25 6.63 58.70 6.54 37.15 L 7.56 37.76 C 7.55 36.27 7.52 34.77 7.48 33.27 L 8.55 33.52 C 8.54 32.69 8.52 31.05 8.51 30.22 L 9.95 30.49 C 9.75 29.99 9.37 28.99 9.18 28.49 L 10.71 28.44 C 10.62 27.90 10.45 26.82 10.37 26.28 L 12.03 26.55 C 11.83 26.13 11.43 25.30 11.23 24.88 C 12.79 24.64 13.56 23.33 14.21 22.08 C 15.09 21.05 16.04 20.10 17.05 19.21 C 18.31 18.58 19.57 17.80 19.93 16.31 C 20.34 16.48 21.15 16.81 21.56 16.98 L 21.30 15.34 C 21.84 15.44 22.91 15.62 23.44 15.72 L 23.53 14.13 C 24.02 14.35 25.01 14.80 25.50 15.02 L 25.16 13.54 C 26.02 13.54 27.72 13.54 28.57 13.54 L 28.24 12.48 M 41.33 28.05 C 41.37 34.87 41.31 41.69 41.37 48.51 C 39.61 48.59 37.81 48.44 36.08 48.84 C 33.52 49.81 34.11 52.89 33.99 55.03 C 34.14 61.69 33.85 68.36 34.11 75.02 C 34.07 77.03 36.14 78.17 37.95 77.96 C 52.00 77.98 66.06 77.99 80.11 77.95 C 81.90 78.16 83.93 77.00 83.89 75.02 C 84.15 68.18 83.86 61.32 84.00 54.48 C 81.54 54.48 79.09 54.47 76.63 54.47 C 76.68 45.66 76.63 36.85 76.67 28.05 C 64.89 28.02 53.11 28.01 41.33 28.05 Z" />
<path fill="#000000" opacity="1.00" d=" M 44.28 30.92 C 54.09 30.91 63.91 30.90 73.72 30.92 C 73.73 37.78 73.62 44.64 73.80 51.50 C 67.39 51.53 60.97 51.52 54.56 51.50 C 54.57 49.54 54.60 47.57 54.64 45.61 C 51.17 45.65 47.70 45.66 44.23 45.62 C 44.33 40.72 44.29 35.82 44.28 30.92 M 47.22 33.87 C 47.20 34.60 47.17 36.05 47.15 36.78 C 55.05 36.84 62.95 36.83 70.85 36.78 C 70.83 36.05 70.80 34.60 70.78 33.87 C 62.93 33.87 55.07 33.86 47.22 33.87 M 47.14 39.78 C 47.15 40.51 47.16 41.96 47.16 42.69 C 55.05 42.73 62.95 42.73 70.84 42.69 C 70.84 41.96 70.85 40.51 70.86 39.78 C 62.95 39.76 55.05 39.76 47.14 39.78 M 57.28 45.68 C 57.37 46.37 57.54 47.76 57.63 48.46 C 62.02 48.78 66.44 48.51 70.84 48.57 C 70.85 47.85 70.88 46.40 70.89 45.68 C 66.36 45.63 61.82 45.62 57.28 45.68 Z" />
<path fill="#000000" opacity="1.00" d=" M 36.91 51.54 C 40.82 51.51 44.74 51.52 48.65 51.55 C 48.51 53.88 48.83 57.45 51.97 57.36 C 61.67 57.51 71.37 57.38 81.07 57.41 C 81.11 63.30 81.08 69.19 81.09 75.09 C 66.36 75.09 51.64 75.09 36.91 75.09 C 36.91 67.24 36.91 59.39 36.91 51.54 Z" />
</g>
<g id="#f5f9f7ff">
<path fill="#f5f9f7" opacity="1.00" d=" M 30.25 10.53 C 49.41 10.29 68.58 10.31 87.74 10.52 L 87.15 11.40 C 88.81 11.49 90.78 11.07 91.98 12.57 C 92.38 12.44 93.18 12.18 93.58 12.05 L 93.34 13.73 C 93.91 13.56 95.05 13.23 95.62 13.07 L 95.31 14.21 C 97.33 14.55 99.04 15.69 100.68 16.84 L 100.30 17.24 C 101.58 17.40 102.41 18.08 102.80 19.27 C 104.45 19.77 105.36 21.14 105.72 22.77 L 106.17 22.30 C 107.35 24.82 109.91 26.73 109.68 29.78 L 110.99 29.40 C 110.80 29.94 110.41 31.02 110.21 31.56 L 111.57 31.51 C 111.56 32.95 111.53 34.39 111.50 35.83 L 112.49 35.26 C 112.69 58.42 112.69 81.58 112.49 104.74 L 111.51 104.16 C 111.54 105.61 111.55 107.06 111.55 108.51 L 110.13 108.49 C 110.36 109.00 110.83 110.02 111.07 110.52 L 109.32 110.32 C 109.46 110.92 109.75 112.12 109.90 112.72 L 108.79 112.23 C 108.50 114.30 107.31 116.03 106.15 117.70 L 105.68 117.27 C 105.01 119.95 102.90 122.00 100.30 122.82 L 100.69 123.17 C 98.19 124.41 96.23 126.88 93.19 126.71 L 93.58 128.09 C 93.19 127.91 92.40 127.54 92.01 127.36 C 90.88 129.06 88.82 128.41 87.15 128.59 L 87.75 129.47 C 68.59 129.70 49.42 129.70 30.25 129.47 L 30.84 128.59 C 29.20 128.41 27.16 129.06 26.03 127.41 C 25.62 127.55 24.81 127.84 24.41 127.99 L 24.78 126.68 C 21.75 126.89 19.82 124.40 17.34 123.18 L 17.69 122.78 C 16.45 122.48 15.52 121.77 14.90 120.65 L 13.99 120.87 L 14.81 119.71 C 13.28 119.66 12.42 118.85 12.20 117.29 L 11.83 117.67 C 10.70 116.05 9.57 114.38 9.20 112.40 L 8.11 112.57 C 8.26 112.01 8.55 110.88 8.70 110.32 L 7.01 110.56 C 7.21 110.03 7.60 108.97 7.80 108.44 L 6.43 108.49 C 6.44 107.04 6.46 105.60 6.50 104.16 L 5.51 104.75 C 5.32 81.57 5.30 58.38 5.52 35.21 L 6.48 35.89 C 6.46 34.42 6.45 32.96 6.45 31.50 L 7.81 31.55 C 7.60 31.02 7.19 29.95 6.98 29.42 L 8.31 29.79 C 8.09 26.73 10.63 24.84 11.82 22.32 L 12.22 22.74 C 13.17 20.22 15.23 18.20 17.72 17.20 L 17.41 16.81 C 19.06 15.63 20.76 14.43 22.83 14.17 L 22.29 12.99 C 22.87 13.18 24.04 13.58 24.62 13.77 L 24.46 12.04 C 24.85 12.18 25.63 12.45 26.02 12.59 C 27.21 11.05 29.18 11.50 30.84 11.42 L 30.25 10.53 M 28.24 12.48 L 28.57 13.54 C 27.72 13.54 26.02 13.54 25.16 13.54 L 25.50 15.02 C 25.01 14.80 24.02 14.35 23.53 14.13 L 23.44 15.72 C 22.91 15.62 21.84 15.44 21.30 15.34 L 21.56 16.98 C 21.15 16.81 20.34 16.48 19.93 16.31 C 19.57 17.80 18.31 18.58 17.05 19.21 C 16.04 20.10 15.09 21.05 14.21 22.08 C 13.56 23.33 12.79 24.64 11.23 24.88 C 11.43 25.30 11.83 26.13 12.03 26.55 L 10.37 26.28 C 10.45 26.82 10.62 27.90 10.71 28.44 L 9.18 28.49 C 9.37 28.99 9.75 29.99 9.95 30.49 L 8.51 30.22 C 8.52 31.05 8.54 32.69 8.55 33.52 L 7.48 33.27 C 7.52 34.77 7.55 36.27 7.56 37.76 L 6.54 37.15 C 6.63 58.70 6.71 80.25 6.49 101.79 L 7.38 101.31 C 7.44 103.13 7.52 104.94 7.56 106.76 L 8.54 106.48 C 8.54 107.31 8.53 108.97 8.52 109.80 L 9.96 109.51 C 9.76 110.01 9.37 111.01 9.17 111.51 L 10.73 111.57 C 10.63 112.10 10.43 113.16 10.33 113.69 L 11.92 113.40 C 11.76 113.85 11.44 114.75 11.27 115.20 C 12.68 115.39 13.52 116.19 13.81 117.61 L 14.52 117.47 L 14.40 118.66 L 15.62 118.70 C 15.60 119.14 15.56 120.03 15.54 120.47 C 16.01 120.44 16.95 120.39 17.42 120.37 L 17.39 121.17 C 18.80 121.49 19.62 122.35 19.85 123.77 C 20.28 123.57 21.13 123.18 21.56 122.99 L 21.28 124.63 C 21.82 124.55 22.91 124.39 23.45 124.30 L 23.47 125.80 C 23.97 125.62 24.99 125.26 25.50 125.08 L 25.21 126.48 C 26.04 126.47 27.70 126.46 28.53 126.45 L 28.25 127.44 C 30.07 127.49 31.89 127.54 33.71 127.60 L 33.15 128.52 C 50.36 128.30 67.59 128.31 84.81 128.52 L 84.35 127.59 C 86.15 127.54 87.95 127.49 89.75 127.44 L 89.49 126.45 C 90.32 126.46 91.98 126.47 92.81 126.47 L 92.52 125.01 C 93.01 125.22 94.00 125.65 94.50 125.86 L 94.55 124.30 C 95.09 124.38 96.18 124.56 96.72 124.64 L 96.37 123.06 C 96.82 123.23 97.70 123.56 98.14 123.73 C 98.42 122.52 99.11 121.66 100.23 121.16 C 101.50 120.06 102.57 118.58 104.33 118.28 C 104.51 116.78 104.69 115.08 106.75 115.20 C 106.57 114.75 106.23 113.86 106.05 113.42 L 107.66 113.69 C 107.57 113.16 107.39 112.09 107.29 111.55 L 108.84 111.51 C 108.64 111.01 108.24 110.01 108.03 109.51 L 109.48 109.80 C 109.47 108.97 109.46 107.32 109.46 106.49 L 110.52 106.72 C 110.48 105.22 110.46 103.72 110.45 102.21 L 111.47 102.86 C 111.33 80.96 111.35 59.05 111.46 37.14 L 110.43 37.77 C 110.45 36.27 110.48 34.77 110.53 33.27 L 109.46 33.51 C 109.46 32.69 109.48 31.04 109.48 30.21 L 108.01 30.47 C 108.22 29.98 108.65 28.99 108.87 28.50 L 107.33 28.47 C 107.40 27.92 107.55 26.82 107.63 26.27 L 106.03 26.60 C 106.21 26.16 106.57 25.29 106.74 24.85 C 105.33 24.61 104.48 23.78 104.18 22.38 L 103.20 22.47 C 103.33 22.00 103.59 21.07 103.72 20.60 C 103.08 20.33 101.80 19.77 101.16 19.50 L 100.85 19.54 C 99.77 18.62 98.52 17.76 98.15 16.28 C 97.70 16.45 96.82 16.77 96.38 16.94 L 96.73 15.36 C 96.18 15.45 95.09 15.61 94.54 15.70 L 94.50 14.14 C 94.00 14.35 93.01 14.78 92.51 15.00 L 92.82 13.54 C 91.97 13.54 90.27 13.54 89.43 13.54 L 89.79 12.56 C 87.95 12.53 86.12 12.45 84.29 12.39 L 84.81 11.49 C 67.26 11.72 49.69 11.63 32.13 11.54 L 32.79 12.60 C 31.27 12.56 29.76 12.52 28.24 12.48 Z" />
<path fill="#f5f9f7" opacity="1.00" d=" M 41.33 28.05 C 53.11 28.01 64.89 28.02 76.67 28.05 C 76.63 36.85 76.68 45.66 76.63 54.47 C 79.09 54.47 81.54 54.48 84.00 54.48 C 83.86 61.32 84.15 68.18 83.89 75.02 C 83.93 77.00 81.90 78.16 80.11 77.95 C 66.06 77.99 52.00 77.98 37.95 77.96 C 36.14 78.17 34.07 77.03 34.11 75.02 C 33.85 68.36 34.14 61.69 33.99 55.03 C 34.11 52.89 33.52 49.81 36.08 48.84 C 37.81 48.44 39.61 48.59 41.37 48.51 C 41.31 41.69 41.37 34.87 41.33 28.05 M 44.28 30.92 C 44.29 35.82 44.33 40.72 44.23 45.62 C 47.70 45.66 51.17 45.65 54.64 45.61 C 54.60 47.57 54.57 49.54 54.56 51.50 C 60.97 51.52 67.39 51.53 73.80 51.50 C 73.62 44.64 73.73 37.78 73.72 30.92 C 63.91 30.90 54.09 30.91 44.28 30.92 M 36.91 51.54 C 36.91 59.39 36.91 67.24 36.91 75.09 C 51.64 75.09 66.36 75.09 81.09 75.09 C 81.08 69.19 81.11 63.30 81.07 57.41 C 71.37 57.38 61.67 57.51 51.97 57.36 C 48.83 57.45 48.51 53.88 48.65 51.55 C 44.74 51.52 40.82 51.51 36.91 51.54 Z" />
<path fill="#f5f9f7" opacity="1.00" d=" M 47.22 33.87 C 55.07 33.86 62.93 33.87 70.78 33.87 C 70.80 34.60 70.83 36.05 70.85 36.78 C 62.95 36.83 55.05 36.84 47.15 36.78 C 47.17 36.05 47.20 34.60 47.22 33.87 Z" />
<path fill="#f5f9f7" opacity="1.00" d=" M 47.14 39.78 C 55.05 39.76 62.95 39.76 70.86 39.78 C 70.85 40.51 70.84 41.96 70.84 42.69 C 62.95 42.73 55.05 42.73 47.16 42.69 C 47.16 41.96 47.15 40.51 47.14 39.78 Z" />
<path fill="#f5f9f7" opacity="1.00" d=" M 57.28 45.68 C 61.82 45.62 66.36 45.63 70.89 45.68 C 70.88 46.40 70.85 47.85 70.84 48.57 C 66.44 48.51 62.02 48.78 57.63 48.46 C 57.54 47.76 57.37 46.37 57.28 45.68 Z" />
</g>
</svg>
