<?xml version="1.0" encoding="UTF-8" ?>
<!DOCTYPE svg PUBLIC "-//W3C//DTD SVG 1.1//EN" "http://www.w3.org/Graphics/SVG/1.1/DTD/svg11.dtd">
<svg width="117px" height="140px" viewBox="0 0 117 140" version="1.1" xmlns="http://www.w3.org/2000/svg">
<g id="#000000ff">
<path fill="#000000" opacity="1.00" d=" M 0.00 0.00 L 117.00 0.00 L 117.00 140.00 L 0.00 140.00 L 0.00 0.00 M 33.19 10.26 C 17.95 11.79 5.23 25.63 5.05 40.96 C 4.97 60.32 4.97 79.68 5.05 99.03 C 5.21 114.96 18.97 129.21 34.89 129.89 C 49.59 130.15 64.31 129.91 79.02 130.01 C 84.39 130.10 89.87 129.29 94.72 126.86 C 105.66 121.80 113.12 110.10 112.97 98.03 C 113.01 79.34 113.01 60.66 112.97 41.97 C 113.08 30.92 106.89 20.15 97.38 14.55 C 91.88 11.21 85.38 9.79 78.98 9.99 C 63.72 10.18 48.44 9.66 33.19 10.26 Z" />
<path fill="#000000" opacity="1.00" d=" M 33.20 12.33 C 49.50 11.77 65.83 12.15 82.13 12.13 C 97.32 12.25 110.83 25.78 110.88 40.97 C 111.01 59.32 110.89 77.67 110.94 96.02 C 111.07 101.40 110.27 106.91 107.62 111.66 C 102.75 121.52 92.01 128.05 81.03 127.91 C 66.00 127.93 50.97 127.99 35.94 127.88 C 20.73 127.78 7.17 114.25 7.12 99.03 C 7.03 79.67 7.03 60.30 7.12 40.94 C 7.24 26.72 19.07 13.78 33.20 12.33 M 60.35 27.14 C 56.38 31.08 52.43 35.05 48.47 39.01 C 50.10 41.10 52.48 41.60 55.00 41.28 C 55.00 43.30 55.00 45.31 55.00 47.33 C 53.01 47.32 51.02 47.33 49.03 47.33 C 49.01 46.63 48.96 45.23 48.93 44.53 C 48.71 43.95 48.28 42.79 48.07 42.21 C 47.69 41.88 46.93 41.22 46.55 40.89 C 42.66 44.84 38.73 48.74 34.81 52.65 C 38.77 56.61 42.71 60.58 46.70 64.51 C 47.47 63.64 48.24 62.77 49.01 61.89 C 49.00 60.59 49.00 59.30 49.00 58.00 C 51.00 58.00 53.00 58.00 55.00 58.00 C 55.00 60.00 55.00 62.00 55.00 64.00 C 52.48 63.67 50.11 64.22 48.44 66.25 C 52.38 70.27 56.38 74.21 60.35 78.19 C 64.27 74.27 68.17 70.33 72.12 66.44 C 71.78 66.06 71.11 65.31 70.77 64.93 C 70.19 64.71 69.05 64.28 68.48 64.07 C 67.79 64.04 66.40 63.99 65.71 63.97 C 65.71 61.98 65.71 59.99 65.71 58.00 C 67.71 58.00 69.71 58.00 71.71 58.00 C 71.37 60.53 71.91 62.90 74.00 64.53 C 77.96 60.57 81.92 56.61 85.88 52.65 C 81.95 48.73 78.03 44.80 74.11 40.89 C 73.71 41.22 72.90 41.90 72.50 42.23 C 71.97 43.88 71.71 45.60 71.61 47.32 C 69.64 47.32 67.67 47.32 65.71 47.33 C 65.71 45.34 65.72 43.36 65.72 41.37 C 67.45 41.27 69.15 40.97 70.81 40.47 C 71.13 40.08 71.77 39.30 72.09 38.91 C 68.19 34.97 64.29 31.04 60.35 27.14 Z" />
<path fill="#000000" opacity="1.00" d=" M 60.35 30.93 C 62.90 33.50 65.48 36.04 68.04 38.61 C 66.36 38.61 64.68 38.61 63.00 38.61 C 63.00 42.41 63.00 46.20 63.00 50.00 C 66.81 50.00 70.61 50.00 74.42 50.00 C 74.42 48.33 74.41 46.67 74.40 45.00 C 76.98 47.54 79.54 50.09 82.09 52.66 C 79.55 55.22 77.01 57.78 74.42 60.29 C 74.40 58.64 74.41 56.99 74.40 55.34 C 70.60 55.32 66.80 55.33 63.01 55.32 C 63.00 59.13 63.00 62.93 63.00 66.74 C 64.67 66.74 66.34 66.74 68.01 66.75 C 65.47 69.31 62.91 71.85 60.36 74.40 C 57.80 71.85 55.24 69.32 52.72 66.74 C 54.36 66.72 56.00 66.73 57.65 66.74 C 57.65 62.93 57.65 59.13 57.64 55.33 C 53.86 55.32 50.08 55.33 46.30 55.32 C 46.29 56.98 46.28 58.64 46.27 60.29 C 43.69 57.77 41.16 55.21 38.61 52.65 C 41.18 50.11 43.73 47.54 46.29 44.99 C 46.29 46.66 46.29 48.33 46.28 49.99 C 50.07 50.00 53.86 50.00 57.65 49.99 C 57.65 46.20 57.65 42.40 57.64 38.61 C 56.00 38.61 54.35 38.63 52.71 38.62 C 55.22 36.02 57.80 33.48 60.35 30.93 Z" />
</g>
<g id="#787978ff">
<path fill="#787978" opacity="1.00" d=" M 33.19 10.26 C 48.44 9.66 63.72 10.18 78.98 9.99 C 85.38 9.79 91.88 11.21 97.38 14.55 C 106.89 20.15 113.08 30.92 112.97 41.97 C 113.01 60.66 113.01 79.34 112.97 98.03 C 113.12 110.10 105.66 121.80 94.72 126.86 C 89.87 129.29 84.39 130.10 79.02 130.01 C 64.31 129.91 49.59 130.15 34.89 129.89 C 18.97 129.21 5.21 114.96 5.05 99.03 C 4.97 79.68 4.97 60.32 5.05 40.96 C 5.23 25.63 17.95 11.79 33.19 10.26 M 33.20 12.33 C 19.07 13.78 7.24 26.72 7.12 40.94 C 7.03 60.30 7.03 79.67 7.12 99.03 C 7.17 114.25 20.73 127.78 35.94 127.88 C 50.97 127.99 66.00 127.93 81.03 127.91 C 92.01 128.05 102.75 121.52 107.62 111.66 C 110.27 106.91 111.07 101.40 110.94 96.02 C 110.89 77.67 111.01 59.32 110.88 40.97 C 110.83 25.78 97.32 12.25 82.13 12.13 C 65.83 12.15 49.50 11.77 33.20 12.33 Z" />
</g>
<g id="#f8fcf8ff">
<path fill="#f8fcf8" opacity="1.00" d=" M 60.35 27.14 C 64.29 31.04 68.19 34.97 72.09 38.91 C 71.77 39.30 71.13 40.08 70.81 40.47 C 69.15 40.97 67.45 41.27 65.72 41.37 C 65.72 43.36 65.71 45.34 65.71 47.33 C 67.67 47.32 69.64 47.32 71.61 47.32 C 71.71 45.60 71.97 43.88 72.50 42.23 C 72.90 41.90 73.71 41.22 74.11 40.89 C 78.03 44.80 81.95 48.73 85.88 52.65 C 81.92 56.61 77.96 60.57 74.00 64.53 C 71.91 62.90 71.37 60.53 71.71 58.00 C 69.71 58.00 67.71 58.00 65.71 58.00 C 65.71 59.99 65.71 61.98 65.71 63.97 C 66.40 63.99 67.79 64.04 68.48 64.07 C 69.05 64.28 70.19 64.71 70.77 64.93 C 71.11 65.31 71.78 66.06 72.12 66.44 C 68.17 70.33 64.27 74.27 60.35 78.19 C 56.38 74.21 52.38 70.27 48.44 66.25 C 50.11 64.22 52.48 63.67 55.00 64.00 C 55.00 62.00 55.00 60.00 55.00 58.00 C 53.00 58.00 51.00 58.00 49.00 58.00 C 49.00 59.30 49.00 60.59 49.01 61.89 C 48.24 62.77 47.47 63.64 46.70 64.51 C 42.71 60.58 38.77 56.61 34.81 52.65 C 38.73 48.74 42.66 44.84 46.55 40.89 C 46.93 41.22 47.69 41.88 48.07 42.21 C 48.28 42.79 48.71 43.95 48.93 44.53 C 48.96 45.23 49.01 46.63 49.03 47.33 C 51.02 47.33 53.01 47.32 55.00 47.33 C 55.00 45.31 55.00 43.30 55.00 41.28 C 52.48 41.60 50.10 41.10 48.47 39.01 C 52.43 35.05 56.38 31.08 60.35 27.14 M 60.35 30.93 C 57.80 33.48 55.22 36.02 52.71 38.62 C 54.35 38.63 56.00 38.61 57.64 38.61 C 57.65 42.40 57.65 46.20 57.65 49.99 C 53.86 50.00 50.07 50.00 46.28 49.99 C 46.29 48.33 46.29 46.66 46.29 44.99 C 43.73 47.54 41.18 50.11 38.61 52.65 C 41.16 55.21 43.69 57.77 46.27 60.29 C 46.28 58.64 46.29 56.98 46.30 55.32 C 50.08 55.33 53.86 55.32 57.64 55.33 C 57.65 59.13 57.65 62.93 57.65 66.74 C 56.00 66.73 54.36 66.72 52.72 66.74 C 55.24 69.32 57.80 71.85 60.36 74.40 C 62.91 71.85 65.47 69.31 68.01 66.75 C 66.34 66.74 64.67 66.74 63.00 66.74 C 63.00 62.93 63.00 59.13 63.01 55.32 C 66.80 55.33 70.60 55.32 74.40 55.34 C 74.41 56.99 74.40 58.64 74.42 60.29 C 77.01 57.78 79.55 55.22 82.09 52.66 C 79.54 50.09 76.98 47.54 74.40 45.00 C 74.41 46.67 74.42 48.33 74.42 50.00 C 70.61 50.00 66.81 50.00 63.00 50.00 C 63.00 46.20 63.00 42.41 63.00 38.61 C 64.68 38.61 66.36 38.61 68.04 38.61 C 65.48 36.04 62.90 33.50 60.35 30.93 Z" />
</g>
</svg>
