<?xml version="1.0" encoding="UTF-8" ?>
<!DOCTYPE svg PUBLIC "-//W3C//DTD SVG 1.1//EN" "http://www.w3.org/Graphics/SVG/1.1/DTD/svg11.dtd">
<svg width="117px" height="140px" viewBox="0 0 117 140" version="1.1" xmlns="http://www.w3.org/2000/svg">
<g id="#384450ff">
<path fill="#384450" opacity="1.00" d=" M 0.00 0.00 L 117.00 0.00 L 117.00 140.00 L 0.00 140.00 L 0.00 0.00 M 41.20 53.17 C 38.67 54.46 38.64 58.50 41.18 59.79 C 42.90 61.15 45.42 60.41 46.50 58.61 C 49.17 55.53 44.35 50.64 41.20 53.17 M 56.53 53.43 C 54.60 54.92 54.53 58.01 56.48 59.50 C 58.67 61.76 62.65 59.89 62.96 56.93 C 63.44 53.64 58.96 50.99 56.53 53.43 M 72.46 53.35 C 71.35 54.24 70.45 55.55 70.80 57.05 C 71.22 60.38 75.98 61.76 77.92 58.80 C 80.82 55.58 75.66 50.36 72.46 53.35 Z" />
</g>
<g id="#f8fcf8ff">
<path fill="#f8fcf8" opacity="1.00" d=" M 41.20 53.17 C 44.35 50.64 49.17 55.53 46.50 58.61 C 45.42 60.41 42.90 61.15 41.18 59.79 C 38.64 58.50 38.67 54.46 41.20 53.17 Z" />
<path fill="#f8fcf8" opacity="1.00" d=" M 56.53 53.43 C 58.96 50.99 63.44 53.64 62.96 56.93 C 62.65 59.89 58.67 61.76 56.48 59.50 C 54.53 58.01 54.60 54.92 56.53 53.43 Z" />
<path fill="#f8fcf8" opacity="1.00" d=" M 72.46 53.35 C 75.66 50.36 80.82 55.58 77.92 58.80 C 75.98 61.76 71.22 60.38 70.80 57.05 C 70.45 55.55 71.35 54.24 72.46 53.35 Z" />
</g>
</svg>
