<?xml version="1.0" encoding="UTF-8" ?>
<!DOCTYPE svg PUBLIC "-//W3C//DTD SVG 1.1//EN" "http://www.w3.org/Graphics/SVG/1.1/DTD/svg11.dtd">
<svg width="117px" height="140px" viewBox="0 0 117 140" version="1.1" xmlns="http://www.w3.org/2000/svg">
<g id="#000000ff">
<path fill="#000000" opacity="1.00" d=" M 0.00 0.00 L 117.00 0.00 L 117.00 140.00 L 0.00 140.00 L 0.00 0.00 M 31.25 10.59 L 31.94 11.23 C 29.35 11.27 26.88 11.99 24.43 12.75 L 24.58 13.81 C 24.10 13.65 23.15 13.32 22.67 13.16 L 22.51 14.79 L 20.87 14.22 C 20.79 14.45 20.61 14.90 20.52 15.13 C 19.11 16.00 17.73 16.93 16.34 17.84 L 16.97 18.08 C 16.47 18.48 15.48 19.28 14.98 19.69 L 14.11 19.12 L 14.67 19.96 C 14.27 20.47 13.47 21.48 13.07 21.98 L 12.85 21.34 C 11.93 22.73 11.00 24.11 10.13 25.53 C 9.91 25.61 9.46 25.77 9.24 25.86 L 9.76 27.52 L 8.11 27.69 C 8.30 28.16 8.67 29.08 8.86 29.55 L 7.49 29.47 C 7.47 30.39 7.42 32.24 7.39 33.16 L 6.44 32.12 C 6.45 33.05 6.47 34.90 6.47 35.83 L 5.69 35.50 C 5.03 51.98 5.56 68.48 5.39 84.97 C 5.64 92.59 4.57 100.38 6.73 107.81 L 7.47 107.01 C 7.46 107.88 7.44 109.63 7.43 110.50 L 8.82 110.43 C 8.65 110.90 8.31 111.84 8.14 112.31 L 9.79 112.50 L 9.23 114.15 C 9.46 114.23 9.90 114.39 10.13 114.47 C 11.00 115.89 11.93 117.29 12.86 118.68 L 14.06 118.21 L 12.98 119.64 L 14.67 119.23 L 14.18 120.87 L 15.03 120.20 C 15.53 120.60 16.52 121.40 17.01 121.79 L 16.33 122.16 C 17.73 123.07 19.11 124.01 20.53 124.87 C 20.62 125.10 20.78 125.55 20.86 125.78 L 22.52 125.21 L 22.67 126.87 C 23.15 126.69 24.09 126.33 24.56 126.16 L 24.42 127.22 C 27.87 128.22 31.27 129.57 34.92 129.60 C 50.28 129.63 65.65 129.59 81.02 129.62 C 82.98 129.60 85.03 129.55 86.85 128.69 C 88.18 128.60 89.50 128.53 90.84 128.48 L 90.00 127.59 C 90.89 127.57 92.65 127.53 93.53 127.51 L 93.45 126.14 C 93.93 126.33 94.88 126.72 95.35 126.91 L 95.37 125.32 C 95.84 125.42 96.76 125.62 97.23 125.71 L 97.42 124.89 C 98.87 124.01 100.28 123.07 101.70 122.13 L 101.21 120.86 L 102.59 122.03 L 102.31 120.35 L 104.02 120.68 L 103.08 119.83 L 104.33 119.29 L 104.74 117.98 L 105.16 118.65 C 106.08 117.27 107.02 115.89 107.88 114.47 C 108.10 114.39 108.54 114.23 108.76 114.15 L 108.22 112.49 L 109.88 112.32 C 109.70 111.85 109.34 110.92 109.16 110.45 L 110.53 110.52 C 110.54 109.62 110.57 107.83 110.59 106.93 L 111.56 107.83 C 111.56 106.88 111.55 104.99 111.54 104.05 L 112.30 104.65 C 112.98 87.45 112.44 70.23 112.61 53.02 C 112.45 46.06 113.26 38.95 111.27 32.17 L 110.55 33.02 C 110.55 32.13 110.54 30.37 110.54 29.48 L 109.15 29.55 C 109.33 29.08 109.70 28.15 109.89 27.69 L 108.21 27.51 L 108.82 25.77 C 108.58 25.75 108.09 25.71 107.85 25.70 C 106.42 22.60 104.84 19.13 100.98 18.47 L 103.75 18.25 C 102.66 18.06 101.58 17.83 100.51 17.56 C 99.55 16.66 98.64 15.70 97.58 14.93 C 97.45 14.76 97.20 14.43 97.08 14.26 L 95.49 14.77 L 95.32 13.14 C 94.85 13.31 93.90 13.66 93.43 13.83 L 93.59 12.77 C 89.48 11.61 85.33 10.20 80.99 10.38 C 64.41 10.51 47.82 10.15 31.25 10.59 Z" />
<path fill="#000000" opacity="1.00" d=" M 27.06 12.77 C 29.75 12.63 32.31 11.64 35.00 11.62 C 52.32 11.57 69.64 11.69 86.95 11.56 L 86.24 12.43 C 87.80 12.49 89.36 12.55 90.92 12.61 L 90.37 13.84 C 90.78 13.72 91.61 13.47 92.02 13.34 C 92.54 13.68 93.58 14.34 94.11 14.67 C 94.75 14.93 96.04 15.46 96.69 15.73 L 96.69 16.70 C 97.18 16.58 98.17 16.35 98.66 16.23 L 98.24 17.77 L 99.04 17.41 C 101.35 19.47 103.51 21.64 105.58 23.94 L 105.34 24.81 L 106.82 24.32 C 106.68 24.81 106.42 25.79 106.29 26.28 L 107.31 26.34 C 107.85 27.63 108.38 28.93 108.89 30.24 L 109.32 30.34 C 109.78 32.20 110.33 34.03 110.76 35.90 L 111.45 35.03 C 111.32 57.76 111.41 80.49 111.40 103.22 C 110.38 105.46 109.84 107.88 108.92 110.16 C 108.34 111.30 107.78 112.45 107.24 113.61 L 106.30 113.75 C 106.43 114.23 106.68 115.19 106.80 115.68 L 105.16 115.15 L 105.77 116.12 C 103.41 118.51 101.11 120.96 98.41 122.99 L 98.61 123.87 C 98.15 123.72 97.23 123.41 96.77 123.25 L 96.60 124.29 C 95.36 124.88 94.11 125.47 92.77 125.83 L 92.59 126.30 C 91.44 126.49 90.36 126.86 89.34 127.42 C 88.03 127.57 86.73 127.68 85.41 127.75 L 85.92 128.45 C 67.30 128.33 48.68 128.38 30.06 128.42 L 30.88 127.37 C 29.94 127.40 28.06 127.45 27.12 127.48 L 27.61 126.17 C 27.20 126.29 26.38 126.54 25.98 126.66 C 25.46 126.33 24.42 125.66 23.90 125.33 C 23.25 125.07 21.97 124.54 21.32 124.28 L 21.25 123.25 C 20.78 123.40 19.83 123.72 19.35 123.87 L 19.61 122.99 C 16.88 121.00 14.60 118.52 12.24 116.12 L 12.81 115.11 L 11.23 115.71 C 11.34 115.21 11.57 114.21 11.68 113.71 L 10.73 113.64 C 10.10 112.39 9.57 111.08 9.14 109.74 L 8.68 109.68 C 8.22 107.81 7.67 105.98 7.25 104.11 L 6.55 104.95 C 6.69 82.93 6.57 60.92 6.61 38.90 C 6.61 37.67 6.82 36.47 7.24 35.30 C 7.73 33.64 8.31 32.00 8.73 30.32 L 9.14 30.24 C 9.61 28.92 10.15 27.63 10.70 26.34 L 11.70 26.30 C 11.58 25.80 11.33 24.79 11.21 24.29 L 12.80 24.90 L 12.06 23.72 C 13.28 23.41 14.11 22.69 14.54 21.56 C 15.07 19.21 18.52 19.70 18.73 17.04 L 19.88 17.85 L 19.30 16.23 C 19.80 16.34 20.80 16.57 21.30 16.68 L 21.33 15.81 C 22.95 15.07 24.53 14.24 26.08 13.37 C 26.47 13.49 27.25 13.74 27.64 13.86 L 27.06 12.77 M 40.38 45.43 C 37.96 46.89 36.56 50.24 38.42 52.71 C 40.88 55.28 43.87 57.27 46.67 59.45 C 48.39 61.01 50.86 60.43 52.88 59.94 C 53.64 57.35 54.10 54.70 54.12 52.00 C 54.59 52.00 55.53 52.00 56.00 52.00 C 56.00 51.25 56.00 49.75 56.00 49.00 C 55.52 49.00 54.55 49.00 54.07 49.00 C 54.17 45.95 53.76 42.94 52.89 40.02 C 47.73 37.83 44.14 42.83 40.38 45.43 M 64.00 41.18 C 64.01 43.78 63.99 46.39 64.00 49.00 C 63.25 49.00 61.75 49.00 61.00 49.00 C 61.00 49.75 61.00 51.25 61.00 52.00 C 61.75 52.00 63.25 52.00 64.00 52.00 C 64.00 54.27 64.00 56.55 64.00 58.82 C 66.10 59.54 68.38 61.55 70.57 59.94 C 73.39 57.98 76.11 55.88 78.69 53.62 C 80.97 51.97 81.01 48.14 78.76 46.45 C 76.16 44.15 73.40 42.02 70.54 40.05 C 68.39 38.42 66.09 40.49 64.00 41.18 M 57.00 49.00 C 57.00 49.75 57.00 51.25 57.00 52.00 C 57.75 52.00 59.25 52.00 60.00 52.00 C 60.00 51.25 60.00 49.75 60.00 49.00 C 59.25 49.00 57.75 49.00 57.00 49.00 Z" />
<path fill="#000000" opacity="1.00" d=" M 41.01 50.00 C 44.01 47.67 47.01 45.36 50.00 43.01 C 50.00 47.66 50.00 52.32 50.00 56.97 C 47.00 54.65 44.00 52.33 41.01 50.00 Z" />
<path fill="#000000" opacity="1.00" d=" M 68.00 43.01 C 70.98 45.35 73.99 47.67 76.99 50.00 C 74.00 52.33 71.00 54.65 68.00 56.97 C 68.00 52.32 68.00 47.66 68.00 43.01 Z" />
</g>
<g id="#f6faf7ff">
<path fill="#f6faf7" opacity="1.00" d=" M 31.25 10.59 C 47.82 10.15 64.41 10.51 80.99 10.38 C 85.33 10.20 89.48 11.61 93.59 12.77 L 93.43 13.83 C 93.90 13.66 94.85 13.31 95.32 13.14 L 95.49 14.77 L 97.08 14.26 C 97.20 14.43 97.45 14.76 97.58 14.93 C 98.64 15.70 99.55 16.66 100.51 17.56 C 101.58 17.83 102.66 18.06 103.75 18.25 L 100.98 18.47 C 104.84 19.13 106.42 22.60 107.85 25.70 C 108.09 25.71 108.58 25.75 108.82 25.77 L 108.21 27.51 L 109.89 27.69 C 109.70 28.15 109.33 29.08 109.15 29.55 L 110.54 29.48 C 110.54 30.37 110.55 32.13 110.55 33.02 L 111.27 32.17 C 113.26 38.95 112.45 46.06 112.61 53.02 C 112.44 70.23 112.98 87.45 112.30 104.65 L 111.54 104.05 C 111.55 104.99 111.56 106.88 111.56 107.83 L 110.59 106.93 C 110.57 107.83 110.54 109.62 110.53 110.52 L 109.16 110.45 C 109.34 110.92 109.70 111.85 109.88 112.32 L 108.22 112.49 L 108.76 114.15 C 108.54 114.23 108.10 114.39 107.88 114.47 C 107.02 115.89 106.08 117.27 105.16 118.65 L 104.74 117.98 L 104.33 119.29 L 103.08 119.83 L 104.02 120.68 L 102.31 120.35 L 102.59 122.03 L 101.21 120.86 L 101.70 122.13 C 100.28 123.07 98.87 124.01 97.42 124.89 L 97.23 125.71 C 96.76 125.62 95.84 125.42 95.37 125.32 L 95.35 126.91 C 94.88 126.72 93.93 126.33 93.45 126.14 L 93.53 127.51 C 92.65 127.53 90.89 127.57 90.00 127.59 L 90.84 128.48 C 89.50 128.53 88.18 128.60 86.85 128.69 C 85.03 129.55 82.98 129.60 81.02 129.62 C 65.65 129.59 50.28 129.63 34.92 129.60 C 31.27 129.57 27.87 128.22 24.42 127.22 L 24.56 126.16 C 24.09 126.33 23.15 126.69 22.67 126.87 L 22.52 125.21 L 20.86 125.78 C 20.78 125.55 20.62 125.10 20.53 124.87 C 19.11 124.01 17.73 123.07 16.33 122.16 L 17.01 121.79 C 16.52 121.40 15.53 120.60 15.03 120.20 L 14.18 120.87 L 14.67 119.23 L 12.98 119.64 L 14.06 118.21 L 12.86 118.68 C 11.93 117.29 11.00 115.89 10.13 114.47 C 9.90 114.39 9.46 114.23 9.23 114.15 L 9.79 112.50 L 8.14 112.31 C 8.31 111.84 8.65 110.90 8.82 110.43 L 7.43 110.50 C 7.44 109.63 7.46 107.88 7.47 107.01 L 6.73 107.81 C 4.57 100.38 5.64 92.59 5.39 84.97 C 5.56 68.48 5.03 51.98 5.69 35.50 L 6.47 35.83 C 6.47 34.90 6.45 33.05 6.44 32.12 L 7.39 33.16 C 7.42 32.24 7.47 30.39 7.49 29.47 L 8.86 29.55 C 8.67 29.08 8.30 28.16 8.11 27.69 L 9.76 27.52 L 9.24 25.86 C 9.46 25.77 9.91 25.61 10.13 25.53 C 11.00 24.11 11.93 22.73 12.85 21.34 L 13.07 21.98 C 13.47 21.48 14.27 20.47 14.67 19.96 L 14.11 19.12 L 14.98 19.69 C 15.48 19.28 16.47 18.48 16.97 18.08 L 16.34 17.84 C 17.73 16.93 19.11 16.00 20.52 15.13 C 20.61 14.90 20.79 14.45 20.87 14.22 L 22.51 14.79 L 22.67 13.16 C 23.15 13.32 24.10 13.65 24.58 13.81 L 24.43 12.75 C 26.88 11.99 29.35 11.27 31.94 11.23 L 31.25 10.59 M 27.06 12.77 L 27.64 13.86 C 27.25 13.74 26.47 13.49 26.08 13.37 C 24.53 14.24 22.95 15.07 21.33 15.81 L 21.30 16.68 C 20.80 16.57 19.80 16.34 19.30 16.23 L 19.88 17.85 L 18.73 17.04 C 18.52 19.70 15.07 19.21 14.54 21.56 C 14.11 22.69 13.28 23.41 12.06 23.72 L 12.80 24.90 L 11.21 24.29 C 11.33 24.79 11.58 25.80 11.70 26.30 L 10.70 26.34 C 10.15 27.63 9.61 28.92 9.14 30.24 L 8.73 30.32 C 8.31 32.00 7.73 33.64 7.24 35.30 C 6.82 36.47 6.61 37.67 6.61 38.90 C 6.57 60.92 6.69 82.93 6.55 104.95 L 7.25 104.11 C 7.67 105.98 8.22 107.81 8.68 109.68 L 9.14 109.74 C 9.57 111.08 10.10 112.39 10.73 113.64 L 11.68 113.71 C 11.57 114.21 11.34 115.21 11.23 115.71 L 12.81 115.11 L 12.24 116.12 C 14.60 118.52 16.88 121.00 19.61 122.99 L 19.35 123.87 C 19.83 123.72 20.78 123.40 21.25 123.25 L 21.32 124.28 C 21.97 124.54 23.25 125.07 23.90 125.33 C 24.42 125.66 25.46 126.33 25.98 126.66 C 26.38 126.54 27.20 126.29 27.61 126.17 L 27.12 127.48 C 28.06 127.45 29.94 127.40 30.88 127.37 L 30.06 128.42 C 48.68 128.38 67.30 128.33 85.92 128.45 L 85.41 127.75 C 86.73 127.68 88.03 127.57 89.34 127.42 C 90.36 126.86 91.44 126.49 92.59 126.30 L 92.77 125.83 C 94.11 125.47 95.36 124.88 96.60 124.29 L 96.77 123.25 C 97.23 123.41 98.15 123.72 98.61 123.87 L 98.41 122.99 C 101.11 120.96 103.41 118.51 105.77 116.12 L 105.16 115.15 L 106.80 115.68 C 106.68 115.19 106.43 114.23 106.30 113.75 L 107.24 113.61 C 107.78 112.45 108.34 111.30 108.92 110.16 C 109.84 107.88 110.38 105.46 111.40 103.22 C 111.41 80.49 111.32 57.76 111.45 35.03 L 110.76 35.90 C 110.33 34.03 109.78 32.20 109.32 30.34 L 108.89 30.24 C 108.38 28.93 107.85 27.63 107.31 26.34 L 106.29 26.28 C 106.42 25.79 106.68 24.81 106.82 24.32 L 105.34 24.81 L 105.58 23.94 C 103.51 21.64 101.35 19.47 99.04 17.41 L 98.24 17.77 L 98.66 16.23 C 98.17 16.35 97.18 16.58 96.69 16.70 L 96.69 15.73 C 96.04 15.46 94.75 14.93 94.11 14.67 C 93.58 14.34 92.54 13.68 92.02 13.34 C 91.61 13.47 90.78 13.72 90.37 13.84 L 90.92 12.61 C 89.36 12.55 87.80 12.49 86.24 12.43 L 86.95 11.56 C 69.64 11.69 52.32 11.57 35.00 11.62 C 32.31 11.64 29.75 12.63 27.06 12.77 Z" />
<path fill="#f6faf7" opacity="1.00" d=" M 40.38 45.43 C 44.14 42.83 47.73 37.83 52.89 40.02 C 53.76 42.94 54.17 45.95 54.07 49.00 C 54.55 49.00 55.52 49.00 56.00 49.00 C 56.00 49.75 56.00 51.25 56.00 52.00 C 55.53 52.00 54.59 52.00 54.12 52.00 C 54.10 54.70 53.64 57.35 52.88 59.94 C 50.86 60.43 48.39 61.01 46.67 59.45 C 43.87 57.27 40.88 55.28 38.42 52.71 C 36.56 50.24 37.96 46.89 40.38 45.43 M 41.01 50.00 C 44.00 52.33 47.00 54.65 50.00 56.97 C 50.00 52.32 50.00 47.66 50.00 43.01 C 47.01 45.36 44.01 47.67 41.01 50.00 Z" />
<path fill="#f6faf7" opacity="1.00" d=" M 64.00 41.18 C 66.09 40.49 68.39 38.42 70.54 40.05 C 73.40 42.02 76.16 44.15 78.76 46.45 C 81.01 48.14 80.97 51.97 78.69 53.62 C 76.11 55.88 73.39 57.98 70.57 59.94 C 68.38 61.55 66.10 59.54 64.00 58.82 C 64.00 56.55 64.00 54.27 64.00 52.00 C 63.25 52.00 61.75 52.00 61.00 52.00 C 61.00 51.25 61.00 49.75 61.00 49.00 C 61.75 49.00 63.25 49.00 64.00 49.00 C 63.99 46.39 64.01 43.78 64.00 41.18 M 68.00 43.01 C 68.00 47.66 68.00 52.32 68.00 56.97 C 71.00 54.65 74.00 52.33 76.99 50.00 C 73.99 47.67 70.98 45.35 68.00 43.01 Z" />
<path fill="#f6faf7" opacity="1.00" d=" M 57.00 49.00 C 57.75 49.00 59.25 49.00 60.00 49.00 C 60.00 49.75 60.00 51.25 60.00 52.00 C 59.25 52.00 57.75 52.00 57.00 52.00 C 57.00 51.25 57.00 49.75 57.00 49.00 Z" />
</g>
</svg>
