<?xml version="1.0" encoding="UTF-8" ?>
<!DOCTYPE svg PUBLIC "-//W3C//DTD SVG 1.1//EN" "http://www.w3.org/Graphics/SVG/1.1/DTD/svg11.dtd">
<svg width="117px" height="140px" viewBox="0 0 117 140" version="1.1" xmlns="http://www.w3.org/2000/svg">
<g id="#000000ff">
<path fill="#000000" opacity="1.00" d=" M 0.00 0.00 L 117.00 0.00 L 117.00 140.00 L 0.00 140.00 L 0.00 0.00 M 34.57 54.89 C 38.28 58.84 43.10 61.96 48.54 62.74 C 48.16 64.59 46.49 66.94 48.38 68.49 C 51.67 72.07 56.61 73.77 61.24 74.80 C 65.65 76.78 70.38 78.06 75.05 79.31 C 79.99 79.07 83.38 73.68 81.41 69.13 C 78.04 60.66 77.13 50.36 69.24 44.55 C 68.10 44.79 67.02 45.25 65.96 45.72 C 64.63 40.21 61.11 35.74 56.91 32.11 C 49.50 39.73 41.48 46.82 34.57 54.89 Z" />
<path fill="#000000" opacity="1.00" d=" M 55.74 37.47 C 56.31 36.80 57.15 36.53 57.92 36.18 C 61.84 40.46 63.08 46.26 64.49 51.72 C 65.94 50.33 67.36 48.91 68.74 47.45 C 70.12 49.00 71.74 50.40 72.69 52.28 C 74.74 58.81 77.17 65.21 79.00 71.81 C 79.36 73.83 77.49 75.08 76.27 76.32 C 72.68 76.31 69.55 74.39 66.13 73.58 C 60.68 71.44 54.41 70.54 50.05 66.29 C 51.44 64.80 52.86 63.34 54.30 61.90 C 49.79 59.94 44.68 59.31 40.55 56.44 C 39.77 55.80 38.13 54.56 39.59 53.63 C 44.97 48.25 50.38 42.88 55.74 37.47 Z" />
</g>
<g id="#f7fbf7ff">
<path fill="#f7fbf7" opacity="1.00" d=" M 34.57 54.89 C 41.48 46.82 49.50 39.73 56.91 32.11 C 61.11 35.74 64.63 40.21 65.96 45.72 C 67.02 45.25 68.10 44.79 69.24 44.55 C 77.13 50.36 78.04 60.66 81.41 69.13 C 83.38 73.68 79.99 79.07 75.05 79.31 C 70.38 78.06 65.65 76.78 61.24 74.80 C 56.61 73.77 51.67 72.07 48.38 68.49 C 46.49 66.94 48.16 64.59 48.54 62.74 C 43.10 61.96 38.28 58.84 34.57 54.89 M 55.74 37.47 C 50.38 42.88 44.97 48.25 39.59 53.63 C 38.13 54.56 39.77 55.80 40.55 56.44 C 44.68 59.31 49.79 59.94 54.30 61.90 C 52.86 63.34 51.44 64.80 50.05 66.29 C 54.41 70.54 60.68 71.44 66.13 73.58 C 69.55 74.39 72.68 76.31 76.27 76.32 C 77.49 75.08 79.36 73.83 79.00 71.81 C 77.17 65.21 74.74 58.81 72.69 52.28 C 71.74 50.40 70.12 49.00 68.74 47.45 C 67.36 48.91 65.94 50.33 64.49 51.72 C 63.08 46.26 61.84 40.46 57.92 36.18 C 57.15 36.53 56.31 36.80 55.74 37.47 Z" />
</g>
</svg>
