<?xml version="1.0" encoding="UTF-8" ?>
<!DOCTYPE svg PUBLIC "-//W3C//DTD SVG 1.1//EN" "http://www.w3.org/Graphics/SVG/1.1/DTD/svg11.dtd">
<svg width="117px" height="140px" viewBox="0 0 117 140" version="1.1" xmlns="http://www.w3.org/2000/svg">
<g id="#000000ff">
<path fill="#000000" opacity="1.00" d=" M 0.00 0.00 L 117.00 0.00 L 117.00 140.00 L 0.00 140.00 L 0.00 0.00 M 46.82 39.96 C 47.78 40.74 48.76 41.49 49.76 42.22 C 52.10 38.09 56.40 35.75 59.65 32.45 C 63.19 35.54 67.16 38.25 69.92 42.12 C 70.96 41.47 71.95 40.75 72.93 40.00 C 71.39 38.88 69.86 37.76 68.43 36.49 C 68.52 34.05 68.53 31.61 68.48 29.16 C 67.15 29.10 65.81 29.05 64.48 29.02 C 64.44 30.07 64.36 32.17 64.32 33.22 C 62.56 32.08 61.54 28.88 59.23 29.08 C 55.31 32.95 51.11 36.52 46.82 39.96 M 50.47 41.81 C 50.52 44.33 50.51 46.84 50.52 49.35 C 52.92 49.39 55.32 49.39 57.72 49.38 C 57.88 47.44 58.03 45.50 58.20 43.56 C 59.34 43.59 60.47 43.62 61.60 43.65 C 61.61 45.56 61.62 47.46 61.63 49.37 C 63.90 49.39 66.16 49.39 68.43 49.36 C 68.52 46.83 68.52 44.30 68.52 41.76 C 65.64 39.16 62.71 36.62 59.85 34.00 C 56.61 36.46 53.63 39.24 50.47 41.81 M 33.83 52.98 C 37.43 56.01 40.98 59.09 44.65 62.03 C 43.83 59.35 42.96 56.69 42.14 54.01 C 46.41 53.19 50.73 54.20 55.03 53.67 C 62.30 54.13 69.61 53.30 76.86 54.00 C 76.04 56.68 75.15 59.35 74.36 62.04 C 78.01 59.08 81.59 56.02 85.17 52.98 C 81.58 49.96 77.99 46.93 74.37 43.95 C 75.15 46.65 76.03 49.32 76.87 52.00 C 72.61 52.79 68.30 51.82 64.01 52.32 C 56.71 51.91 49.39 52.69 42.12 52.00 C 42.95 49.32 43.83 46.66 44.65 43.99 C 40.98 46.91 37.43 49.97 33.83 52.98 M 49.22 56.75 C 51.63 59.85 54.01 62.98 56.43 66.07 C 53.81 69.09 51.23 72.15 48.88 75.39 C 50.00 75.43 52.23 75.52 53.34 75.57 C 55.22 73.09 57.15 70.65 59.03 68.17 C 60.94 70.62 62.88 73.06 64.73 75.56 C 65.86 75.52 68.11 75.42 69.24 75.38 C 66.90 72.09 64.20 69.09 61.59 66.03 C 64.07 63.01 66.37 59.86 68.73 56.75 C 67.17 56.75 65.62 56.75 64.06 56.76 C 62.37 59.19 60.69 61.62 59.03 64.08 C 57.36 61.62 55.66 59.20 53.95 56.77 C 52.37 56.76 50.79 56.75 49.22 56.75 Z" />
</g>
<g id="#f8fcf8ff">
<path fill="#f8fcf8" opacity="1.00" d=" M 46.82 39.96 C 51.11 36.52 55.31 32.95 59.23 29.08 C 61.54 28.88 62.56 32.08 64.32 33.22 C 64.36 32.17 64.44 30.07 64.48 29.02 C 65.81 29.05 67.15 29.10 68.48 29.16 C 68.53 31.61 68.52 34.05 68.43 36.49 C 69.86 37.76 71.39 38.88 72.93 40.00 C 71.95 40.75 70.96 41.47 69.92 42.12 C 67.16 38.25 63.19 35.54 59.65 32.45 C 56.40 35.75 52.10 38.09 49.76 42.22 C 48.76 41.49 47.78 40.74 46.82 39.96 Z" />
<path fill="#f8fcf8" opacity="1.00" d=" M 50.47 41.81 C 53.63 39.24 56.61 36.46 59.85 34.00 C 62.71 36.62 65.64 39.16 68.52 41.76 C 68.52 44.30 68.52 46.83 68.43 49.36 C 66.16 49.39 63.90 49.39 61.63 49.37 C 61.62 47.46 61.61 45.56 61.60 43.65 C 60.47 43.62 59.34 43.59 58.20 43.56 C 58.03 45.50 57.88 47.44 57.72 49.38 C 55.32 49.39 52.92 49.39 50.52 49.35 C 50.51 46.84 50.52 44.33 50.47 41.81 Z" />
<path fill="#f8fcf8" opacity="1.00" d=" M 33.83 52.98 C 37.43 49.97 40.98 46.91 44.65 43.99 C 43.83 46.66 42.95 49.32 42.12 52.00 C 49.39 52.69 56.71 51.91 64.01 52.32 C 68.30 51.82 72.61 52.79 76.87 52.00 C 76.03 49.32 75.15 46.65 74.37 43.95 C 77.99 46.93 81.58 49.96 85.17 52.98 C 81.59 56.02 78.01 59.08 74.36 62.04 C 75.15 59.35 76.04 56.68 76.86 54.00 C 69.61 53.30 62.30 54.13 55.03 53.67 C 50.73 54.20 46.41 53.19 42.14 54.01 C 42.96 56.69 43.83 59.35 44.65 62.03 C 40.98 59.09 37.43 56.01 33.83 52.98 Z" />
<path fill="#f8fcf8" opacity="1.00" d=" M 49.22 56.75 C 50.79 56.75 52.37 56.76 53.95 56.77 C 55.66 59.20 57.36 61.62 59.03 64.08 C 60.69 61.62 62.37 59.19 64.06 56.76 C 65.62 56.75 67.17 56.75 68.73 56.75 C 66.37 59.86 64.07 63.01 61.59 66.03 C 64.20 69.09 66.90 72.09 69.24 75.38 C 68.11 75.42 65.86 75.52 64.73 75.56 C 62.88 73.06 60.94 70.62 59.03 68.17 C 57.15 70.65 55.22 73.09 53.34 75.57 C 52.23 75.52 50.00 75.43 48.88 75.39 C 51.23 72.15 53.81 69.09 56.43 66.07 C 54.01 62.98 51.63 59.85 49.22 56.75 Z" />
</g>
</svg>
