<?xml version="1.0" encoding="UTF-8" ?>
<!DOCTYPE svg PUBLIC "-//W3C//DTD SVG 1.1//EN" "http://www.w3.org/Graphics/SVG/1.1/DTD/svg11.dtd">
<svg width="117px" height="140px" viewBox="0 0 117 140" version="1.1" xmlns="http://www.w3.org/2000/svg">
<g id="#384450ff">
<path fill="#384450" opacity="1.00" d=" M 0.00 0.00 L 117.00 0.00 L 117.00 140.00 L 0.00 140.00 L 0.00 0.00 M 41.22 53.15 C 38.65 54.46 38.64 58.56 41.24 59.83 C 43.20 61.36 45.97 60.08 46.88 57.98 C 48.61 54.81 44.09 50.89 41.22 53.15 M 56.48 53.50 C 54.80 54.81 54.49 57.49 56.03 59.03 C 57.74 61.57 61.87 60.53 62.75 57.75 C 64.19 54.27 59.15 50.61 56.48 53.50 M 72.44 53.36 C 71.37 54.27 70.43 55.52 70.79 57.03 C 71.20 60.37 76.01 61.78 77.93 58.79 C 80.81 55.54 75.61 50.37 72.44 53.36 Z" />
</g>
<g id="#f8fcf8ff">
<path fill="#f8fcf8" opacity="1.00" d=" M 41.22 53.15 C 44.09 50.89 48.61 54.81 46.88 57.98 C 45.97 60.08 43.20 61.36 41.24 59.83 C 38.64 58.56 38.65 54.46 41.22 53.15 Z" />
<path fill="#f8fcf8" opacity="1.00" d=" M 56.48 53.50 C 59.15 50.61 64.19 54.27 62.75 57.75 C 61.87 60.53 57.74 61.57 56.03 59.03 C 54.49 57.49 54.80 54.81 56.48 53.50 Z" />
<path fill="#f8fcf8" opacity="1.00" d=" M 72.44 53.36 C 75.61 50.37 80.81 55.54 77.93 58.79 C 76.01 61.78 71.20 60.37 70.79 57.03 C 70.43 55.52 71.37 54.27 72.44 53.36 Z" />
</g>
</svg>
