<?xml version="1.0" encoding="UTF-8" ?>
<!DOCTYPE svg PUBLIC "-//W3C//DTD SVG 1.1//EN" "http://www.w3.org/Graphics/SVG/1.1/DTD/svg11.dtd">
<svg width="117px" height="140px" viewBox="0 0 117 140" version="1.1" xmlns="http://www.w3.org/2000/svg">
<g id="#000000ff">
<path fill="#000000" opacity="1.00" d=" M 0.00 0.00 L 117.00 0.00 L 117.00 140.00 L 0.00 140.00 L 0.00 0.00 M 33.21 10.22 C 17.94 11.76 5.18 25.63 5.02 41.00 C 4.99 60.37 4.98 79.74 5.02 99.11 C 5.22 115.03 18.99 129.23 34.89 129.92 C 50.60 130.09 66.32 129.99 82.03 129.97 C 97.97 129.84 112.24 116.04 112.92 100.11 C 113.11 81.06 112.93 62.00 113.01 42.95 C 113.27 34.26 109.83 25.53 103.64 19.42 C 97.50 13.16 88.70 9.74 79.97 9.98 C 64.38 10.17 48.78 9.69 33.21 10.22 Z" />
<path fill="#000000" opacity="1.00" d=" M 33.21 12.35 C 48.46 11.71 63.75 12.26 79.01 12.06 C 85.35 11.88 91.81 13.28 97.13 16.83 C 105.60 22.12 111.00 31.97 110.90 41.96 C 110.96 60.30 110.92 78.65 110.93 96.99 C 111.01 102.31 109.90 107.69 107.23 112.33 C 102.26 121.81 91.78 127.95 81.10 127.90 C 66.04 127.93 50.98 127.99 35.92 127.87 C 20.73 127.71 7.24 114.25 7.13 99.05 C 7.03 79.69 7.03 60.32 7.13 40.96 C 7.30 26.74 19.07 13.83 33.21 12.35 M 52.98 29.12 C 45.37 31.33 39.25 37.62 37.09 45.23 C 36.40 47.95 35.30 51.01 36.80 53.66 C 40.87 53.52 44.95 53.58 49.03 53.59 C 49.86 58.80 54.31 62.76 59.55 63.17 C 59.75 67.56 58.65 72.02 59.70 76.35 C 59.41 71.92 60.39 67.56 60.30 63.14 C 65.51 62.38 69.35 58.21 70.30 53.13 C 74.72 52.80 79.18 53.07 83.56 52.39 C 79.12 51.93 74.65 52.35 70.20 52.43 C 69.85 47.17 65.91 42.61 60.66 41.75 C 60.69 37.53 60.67 33.31 60.70 29.08 C 58.31 27.70 55.48 28.47 52.98 29.12 Z" />
<path fill="#000000" opacity="1.00" d=" M 52.86 45.86 C 56.24 41.75 62.75 42.20 66.45 45.62 C 67.86 47.86 69.33 50.29 68.96 53.06 C 68.74 59.13 61.70 63.86 56.05 61.26 C 50.03 59.02 48.00 50.26 52.86 45.86 Z" />
</g>
<g id="#727372ff">
<path fill="#727372" opacity="1.00" d=" M 33.21 10.22 C 48.78 9.69 64.38 10.17 79.97 9.98 C 88.70 9.74 97.50 13.16 103.64 19.42 C 109.83 25.53 113.27 34.26 113.01 42.95 C 112.93 62.00 113.11 81.06 112.92 100.11 C 112.24 116.04 97.97 129.84 82.03 129.97 C 66.32 129.99 50.60 130.09 34.89 129.92 C 18.99 129.23 5.22 115.03 5.02 99.11 C 4.98 79.74 4.99 60.37 5.02 41.00 C 5.18 25.63 17.94 11.76 33.21 10.22 M 33.21 12.35 C 19.07 13.83 7.30 26.74 7.13 40.96 C 7.03 60.32 7.03 79.69 7.13 99.05 C 7.24 114.25 20.73 127.71 35.92 127.87 C 50.98 127.99 66.04 127.93 81.10 127.90 C 91.78 127.95 102.26 121.81 107.23 112.33 C 109.90 107.69 111.01 102.31 110.93 96.99 C 110.92 78.65 110.96 60.30 110.90 41.96 C 111.00 31.97 105.60 22.12 97.13 16.83 C 91.81 13.28 85.35 11.88 79.01 12.06 C 63.75 12.26 48.46 11.71 33.21 12.35 Z" />
</g>
<g id="#f8fcf8ff">
<path fill="#f8fcf8" opacity="1.00" d=" M 52.98 29.12 C 55.48 28.47 58.31 27.70 60.70 29.08 C 60.67 33.31 60.69 37.53 60.66 41.75 C 65.91 42.61 69.85 47.17 70.20 52.43 C 74.65 52.35 79.12 51.93 83.56 52.39 C 79.18 53.07 74.72 52.80 70.30 53.13 C 69.35 58.21 65.51 62.38 60.30 63.14 C 60.39 67.56 59.41 71.92 59.70 76.35 C 58.65 72.02 59.75 67.56 59.55 63.17 C 54.31 62.76 49.86 58.80 49.03 53.59 C 44.95 53.58 40.87 53.52 36.80 53.66 C 35.30 51.01 36.40 47.95 37.09 45.23 C 39.25 37.62 45.37 31.33 52.98 29.12 M 52.86 45.86 C 48.00 50.26 50.03 59.02 56.05 61.26 C 61.70 63.86 68.74 59.13 68.96 53.06 C 69.33 50.29 67.86 47.86 66.45 45.62 C 62.75 42.20 56.24 41.75 52.86 45.86 Z" />
</g>
</svg>
