<?xml version="1.0" encoding="UTF-8" ?>
<!DOCTYPE svg PUBLIC "-//W3C//DTD SVG 1.1//EN" "http://www.w3.org/Graphics/SVG/1.1/DTD/svg11.dtd">
<svg width="18px" height="14px" viewBox="0 0 18 14" version="1.1" xmlns="http://www.w3.org/2000/svg">
<g id="#000000ff">
<path fill="#000000" opacity="1.00" d=" M 0.00 0.00 L 18.00 0.00 L 18.00 2.89 C 17.46 2.41 16.39 1.46 15.85 0.99 C 12.55 3.92 9.39 7.01 6.11 9.95 C 4.75 8.78 3.50 7.50 2.14 6.32 C 1.61 6.81 0.54 7.79 0.00 8.28 L 0.00 0.00 Z" />
<path fill="#000000" opacity="1.00" d=" M 6.18 14.00 C 10.10 10.33 14.06 6.69 18.00 3.04 L 18.00 14.00 L 6.18 14.00 Z" />
<path fill="#000000" opacity="1.00" d=" M 0.00 8.41 C 2.03 10.25 4.03 12.12 6.03 14.00 L 0.00 14.00 L 0.00 8.41 Z" />
</g>
<g id="#e0e000ff">
<path fill="#e0e000" opacity="1.00" d=" M 6.11 9.95 C 9.39 7.01 12.55 3.92 15.85 0.99 C 16.39 1.46 17.46 2.41 18.00 2.89 L 18.00 3.04 C 14.06 6.69 10.10 10.33 6.18 14.00 L 6.03 14.00 C 4.03 12.12 2.03 10.25 0.00 8.41 L 0.00 8.28 C 0.54 7.79 1.61 6.81 2.14 6.32 C 3.50 7.50 4.75 8.78 6.11 9.95 Z" />
</g>
</svg>
