<?xml version="1.0" encoding="UTF-8" ?>
<!DOCTYPE svg PUBLIC "-//W3C//DTD SVG 1.1//EN" "http://www.w3.org/Graphics/SVG/1.1/DTD/svg11.dtd">
<svg width="117px" height="140px" viewBox="0 0 117 140" version="1.1" xmlns="http://www.w3.org/2000/svg">
<g id="#000000ff">
<path fill="#000000" opacity="1.00" d=" M 0.00 0.00 L 117.00 0.00 L 117.00 140.00 L 0.00 140.00 L 0.00 0.00 M 33.16 10.22 C 17.91 11.79 5.18 25.64 5.02 40.98 C 4.99 60.34 4.99 79.69 5.02 99.05 C 5.17 115.01 18.99 129.26 34.93 129.93 C 50.64 130.08 66.35 129.99 82.05 129.97 C 99.13 129.87 113.91 114.06 113.01 97.03 C 112.98 78.70 113.01 60.37 113.00 42.03 C 113.07 33.38 109.37 24.80 103.08 18.86 C 96.98 12.94 88.43 9.75 79.96 9.98 C 64.36 10.17 48.74 9.69 33.16 10.22 Z" />
<path fill="#000000" opacity="1.00" d=" M 33.24 12.34 C 48.81 11.72 64.41 12.24 79.99 12.07 C 87.93 11.83 95.85 14.86 101.62 20.31 C 107.45 25.92 111.01 33.89 110.91 42.02 C 110.94 60.69 110.95 79.37 110.91 98.04 C 111.00 108.24 105.38 118.28 96.60 123.49 C 91.69 126.64 85.83 127.98 80.04 127.93 C 66.01 127.93 51.99 127.93 37.97 127.93 C 32.43 127.98 26.82 126.75 22.05 123.87 C 12.89 118.77 6.99 108.45 7.09 97.98 C 7.08 78.99 7.01 59.99 7.12 40.99 C 7.27 26.75 19.08 13.82 33.24 12.34 M 47.50 50.39 C 45.19 51.19 44.05 54.37 45.98 56.15 C 48.33 58.64 52.95 55.47 51.66 52.47 C 50.91 51.02 49.18 49.75 47.50 50.39 M 58.49 50.71 C 54.33 52.36 58.02 59.17 61.71 56.51 C 65.51 54.59 62.01 48.43 58.49 50.71 M 70.54 50.40 C 69.12 51.02 68.01 52.41 68.03 54.01 C 68.84 56.45 71.94 58.20 74.05 56.11 C 76.61 53.82 73.64 49.29 70.54 50.40 Z" />
</g>
<g id="#727272ff">
<path fill="#727272" opacity="1.00" d=" M 33.16 10.22 C 48.74 9.69 64.36 10.17 79.96 9.98 C 88.43 9.75 96.98 12.94 103.08 18.86 C 109.37 24.80 113.07 33.38 113.00 42.03 C 113.01 60.37 112.98 78.70 113.01 97.03 C 113.91 114.06 99.13 129.87 82.05 129.97 C 66.35 129.99 50.64 130.08 34.93 129.93 C 18.99 129.26 5.17 115.01 5.02 99.05 C 4.99 79.69 4.99 60.34 5.02 40.98 C 5.18 25.64 17.91 11.79 33.16 10.22 M 33.24 12.34 C 19.08 13.82 7.27 26.75 7.12 40.99 C 7.01 59.99 7.08 78.99 7.09 97.98 C 6.99 108.45 12.89 118.77 22.05 123.87 C 26.82 126.75 32.43 127.98 37.97 127.93 C 51.99 127.93 66.01 127.93 80.04 127.93 C 85.83 127.98 91.69 126.64 96.60 123.49 C 105.38 118.28 111.00 108.24 110.91 98.04 C 110.95 79.37 110.94 60.69 110.91 42.02 C 111.01 33.89 107.45 25.92 101.62 20.31 C 95.85 14.86 87.93 11.83 79.99 12.07 C 64.41 12.24 48.81 11.72 33.24 12.34 Z" />
</g>
<g id="#f8fcf8ff">
<path fill="#f8fcf8" opacity="1.00" d=" M 47.50 50.39 C 49.18 49.75 50.91 51.02 51.66 52.47 C 52.95 55.47 48.33 58.64 45.98 56.15 C 44.05 54.37 45.19 51.19 47.50 50.39 Z" />
<path fill="#f8fcf8" opacity="1.00" d=" M 58.49 50.71 C 62.01 48.43 65.51 54.59 61.71 56.51 C 58.02 59.17 54.33 52.36 58.49 50.71 Z" />
<path fill="#f8fcf8" opacity="1.00" d=" M 70.54 50.40 C 73.64 49.29 76.61 53.82 74.05 56.11 C 71.94 58.20 68.84 56.45 68.03 54.01 C 68.01 52.41 69.12 51.02 70.54 50.40 Z" />
</g>
</svg>
