<?xml version="1.0" encoding="UTF-8" ?>
<!DOCTYPE svg PUBLIC "-//W3C//DTD SVG 1.1//EN" "http://www.w3.org/Graphics/SVG/1.1/DTD/svg11.dtd">
<svg width="117px" height="140px" viewBox="0 0 117 140" version="1.1" xmlns="http://www.w3.org/2000/svg">
<g id="#000000ff">
<path fill="#000000" opacity="1.00" d=" M 0.00 0.00 L 117.00 0.00 L 117.00 140.00 L 0.00 140.00 L 0.00 0.00 M 33.24 10.22 C 17.99 11.74 5.23 25.56 5.03 40.91 C 4.96 59.95 5.02 79.00 5.00 98.05 C 4.85 110.87 13.30 123.18 25.26 127.76 C 32.43 130.84 40.36 129.86 47.95 130.00 C 59.66 129.93 71.37 130.13 83.08 129.91 C 98.66 129.26 112.30 115.59 112.92 100.01 C 113.11 81.01 112.93 62.01 113.01 43.01 C 113.27 34.31 109.86 25.58 103.67 19.45 C 97.53 13.17 88.72 9.75 79.96 9.98 C 64.39 10.17 48.80 9.69 33.24 10.22 Z" />
<path fill="#000000" opacity="1.00" d=" M 33.30 12.33 C 48.84 11.73 64.42 12.23 79.98 12.07 C 90.54 11.71 101.12 17.27 106.51 26.41 C 109.64 31.34 111.06 37.20 110.93 43.01 C 110.92 61.37 110.96 79.72 110.91 98.08 C 111.01 108.78 104.78 119.26 95.31 124.25 C 90.68 126.89 85.31 127.96 80.01 127.93 C 65.66 127.92 51.30 127.96 36.94 127.91 C 26.24 127.99 15.75 121.80 10.76 112.32 C 8.09 107.69 6.98 102.31 7.07 96.99 C 7.11 78.31 6.99 59.62 7.13 40.93 C 7.30 26.69 19.13 13.77 33.30 12.33 M 53.59 27.74 C 53.61 29.37 53.64 31.01 53.69 32.64 C 51.81 33.09 50.03 33.84 48.34 34.76 C 47.09 33.57 45.85 32.38 44.58 31.22 C 42.22 33.73 39.82 36.19 37.25 38.48 C 38.34 39.77 39.47 41.03 40.60 42.28 C 39.84 44.04 39.14 45.84 38.64 47.70 C 37.01 47.66 35.37 47.64 33.74 47.63 C 33.36 51.21 33.31 54.83 33.78 58.40 C 35.40 58.37 37.02 58.34 38.63 58.29 C 39.13 60.17 39.84 61.98 40.60 63.76 C 39.48 64.99 38.34 66.19 37.24 67.43 C 39.76 69.80 42.22 72.23 44.56 74.78 C 45.85 73.61 47.12 72.42 48.40 71.24 C 50.06 72.18 51.83 72.89 53.68 73.37 C 53.65 75.02 53.62 76.67 53.63 78.32 C 57.23 78.59 60.86 78.71 64.44 78.21 C 64.40 76.60 64.36 74.98 64.30 73.37 C 66.17 72.92 67.94 72.17 69.63 71.25 C 70.89 72.45 72.18 73.63 73.51 74.75 C 75.80 72.19 78.25 69.79 80.76 67.44 C 79.64 66.18 78.51 64.95 77.39 63.69 C 78.16 61.94 78.87 60.16 79.48 58.34 C 81.06 58.36 82.65 58.36 84.24 58.37 C 84.67 54.81 84.65 51.20 84.25 47.63 C 82.65 47.64 81.06 47.64 79.47 47.66 C 78.86 45.84 78.15 44.05 77.39 42.29 C 78.52 41.04 79.65 39.80 80.76 38.54 C 78.21 36.21 75.79 33.75 73.43 31.23 C 72.14 32.40 70.88 33.58 69.60 34.76 C 67.94 33.82 66.16 33.12 64.31 32.64 C 64.36 31.01 64.39 29.38 64.42 27.75 C 60.82 27.34 57.18 27.35 53.59 27.74 Z" />
<path fill="#000000" opacity="1.00" d=" M 56.89 30.77 C 58.29 30.77 59.70 30.77 61.11 30.77 C 61.13 32.38 61.14 33.99 61.17 35.60 C 64.30 36.18 67.19 37.54 69.92 39.14 C 71.07 37.97 72.21 36.80 73.38 35.65 C 74.35 36.68 75.34 37.69 76.34 38.70 C 75.17 39.82 74.01 40.95 72.84 42.08 C 74.44 44.80 75.77 47.69 76.38 50.82 C 78.00 50.83 79.63 50.84 81.26 50.85 C 81.26 52.28 81.26 53.71 81.26 55.14 C 79.62 55.16 77.99 55.17 76.35 55.20 C 75.93 58.36 74.17 61.04 73.03 63.92 C 74.03 65.17 75.21 66.26 76.35 67.38 C 75.31 68.35 74.30 69.34 73.29 70.34 C 72.17 69.17 71.04 68.01 69.92 66.84 C 67.21 68.47 64.32 69.78 61.20 70.36 C 61.15 71.98 61.13 73.60 61.10 75.23 C 59.70 75.23 58.29 75.23 56.89 75.23 C 56.87 73.61 56.85 72.00 56.82 70.39 C 53.71 69.77 50.81 68.48 48.10 66.85 C 46.94 68.02 45.79 69.19 44.64 70.35 C 43.66 69.32 42.66 68.31 41.66 67.30 C 42.84 66.16 44.01 65.02 45.18 63.87 C 43.51 61.20 42.25 58.29 41.63 55.19 C 40.00 55.17 38.37 55.16 36.74 55.15 C 36.74 53.71 36.74 52.28 36.74 50.85 C 38.37 50.84 40.00 50.83 41.63 50.81 C 42.23 47.69 43.57 44.80 45.15 42.06 C 43.98 40.93 42.81 39.80 41.65 38.67 C 42.67 37.68 43.67 36.67 44.66 35.66 C 45.81 36.82 46.95 37.98 48.09 39.15 C 50.81 37.52 53.71 36.19 56.84 35.60 C 56.86 33.99 56.87 32.38 56.89 30.77 M 57.41 43.37 C 50.32 44.40 46.39 54.07 51.71 59.29 C 56.13 65.19 66.08 62.96 68.21 56.13 C 70.89 49.61 64.19 41.96 57.41 43.37 Z" />
<path fill="#000000" opacity="1.00" d=" M 54.12 48.12 C 57.17 46.09 60.83 46.06 63.87 48.12 C 65.96 51.15 65.89 54.86 63.86 57.90 C 60.82 59.93 57.18 59.91 54.14 57.90 C 52.11 54.85 52.06 51.16 54.12 48.12 Z" />
</g>
<g id="#737473ff">
<path fill="#737473" opacity="1.00" d=" M 33.24 10.22 C 48.80 9.69 64.39 10.17 79.96 9.98 C 88.72 9.75 97.53 13.17 103.67 19.45 C 109.86 25.58 113.27 34.31 113.01 43.01 C 112.93 62.01 113.11 81.01 112.92 100.01 C 112.30 115.59 98.66 129.26 83.08 129.91 C 71.37 130.13 59.66 129.93 47.95 130.00 C 40.36 129.86 32.43 130.84 25.26 127.76 C 13.30 123.18 4.85 110.87 5.00 98.05 C 5.02 79.00 4.96 59.95 5.03 40.91 C 5.23 25.56 17.99 11.74 33.24 10.22 M 33.30 12.33 C 19.13 13.77 7.30 26.69 7.13 40.93 C 6.99 59.62 7.11 78.31 7.07 96.99 C 6.98 102.31 8.09 107.69 10.76 112.32 C 15.75 121.80 26.24 127.99 36.94 127.91 C 51.30 127.96 65.66 127.92 80.01 127.93 C 85.31 127.96 90.68 126.89 95.31 124.25 C 104.78 119.26 111.01 108.78 110.91 98.08 C 110.96 79.72 110.92 61.37 110.93 43.01 C 111.06 37.20 109.64 31.34 106.51 26.41 C 101.12 17.27 90.54 11.71 79.98 12.07 C 64.42 12.23 48.84 11.73 33.30 12.33 Z" />
</g>
<g id="#f7fbf7ff">
<path fill="#f7fbf7" opacity="1.00" d=" M 53.59 27.74 C 57.18 27.35 60.82 27.34 64.42 27.75 C 64.39 29.38 64.36 31.01 64.31 32.64 C 66.16 33.12 67.94 33.82 69.60 34.76 C 70.88 33.58 72.14 32.40 73.43 31.23 C 75.79 33.75 78.21 36.21 80.76 38.54 C 79.65 39.80 78.52 41.04 77.39 42.29 C 78.15 44.05 78.86 45.84 79.47 47.66 C 81.06 47.64 82.65 47.64 84.25 47.63 C 84.65 51.20 84.67 54.81 84.24 58.37 C 82.65 58.36 81.06 58.36 79.48 58.34 C 78.87 60.16 78.16 61.94 77.39 63.69 C 78.51 64.95 79.64 66.18 80.76 67.44 C 78.25 69.79 75.80 72.19 73.51 74.75 C 72.18 73.63 70.89 72.45 69.63 71.25 C 67.94 72.17 66.17 72.92 64.30 73.37 C 64.36 74.98 64.40 76.60 64.44 78.21 C 60.86 78.71 57.23 78.59 53.63 78.32 C 53.62 76.67 53.65 75.02 53.68 73.37 C 51.83 72.89 50.06 72.18 48.40 71.24 C 47.12 72.42 45.85 73.61 44.56 74.78 C 42.22 72.23 39.76 69.80 37.24 67.43 C 38.34 66.19 39.48 64.99 40.60 63.76 C 39.84 61.98 39.13 60.17 38.63 58.29 C 37.02 58.34 35.40 58.37 33.78 58.40 C 33.31 54.83 33.36 51.21 33.74 47.63 C 35.37 47.64 37.01 47.66 38.64 47.70 C 39.14 45.84 39.84 44.04 40.60 42.28 C 39.47 41.03 38.34 39.77 37.25 38.48 C 39.82 36.19 42.22 33.73 44.58 31.22 C 45.85 32.38 47.09 33.57 48.34 34.76 C 50.03 33.84 51.81 33.09 53.69 32.64 C 53.64 31.01 53.61 29.37 53.59 27.74 M 56.89 30.77 C 56.87 32.38 56.86 33.99 56.84 35.60 C 53.71 36.19 50.81 37.52 48.09 39.15 C 46.95 37.98 45.81 36.82 44.66 35.66 C 43.67 36.67 42.67 37.68 41.65 38.67 C 42.81 39.80 43.98 40.93 45.15 42.06 C 43.57 44.80 42.23 47.69 41.63 50.81 C 40.00 50.83 38.37 50.84 36.74 50.85 C 36.74 52.28 36.74 53.71 36.74 55.15 C 38.37 55.16 40.00 55.17 41.63 55.19 C 42.25 58.29 43.51 61.20 45.18 63.87 C 44.01 65.02 42.84 66.16 41.66 67.30 C 42.66 68.31 43.66 69.32 44.64 70.35 C 45.79 69.19 46.94 68.02 48.10 66.85 C 50.81 68.48 53.71 69.77 56.82 70.39 C 56.85 72.00 56.87 73.61 56.89 75.23 C 58.29 75.23 59.70 75.23 61.10 75.23 C 61.13 73.60 61.15 71.98 61.20 70.36 C 64.32 69.78 67.21 68.47 69.92 66.84 C 71.04 68.01 72.17 69.17 73.29 70.34 C 74.30 69.34 75.31 68.35 76.35 67.38 C 75.21 66.26 74.03 65.17 73.03 63.92 C 74.17 61.04 75.93 58.36 76.35 55.20 C 77.99 55.17 79.62 55.16 81.26 55.14 C 81.26 53.71 81.26 52.28 81.26 50.85 C 79.63 50.84 78.00 50.83 76.38 50.82 C 75.77 47.69 74.44 44.80 72.84 42.08 C 74.01 40.95 75.17 39.82 76.34 38.70 C 75.34 37.69 74.35 36.68 73.38 35.65 C 72.21 36.80 71.07 37.97 69.92 39.14 C 67.19 37.54 64.30 36.18 61.17 35.60 C 61.14 33.99 61.13 32.38 61.11 30.77 C 59.70 30.77 58.29 30.77 56.89 30.77 Z" />
<path fill="#f7fbf7" opacity="1.00" d=" M 57.41 43.37 C 64.19 41.96 70.89 49.61 68.21 56.13 C 66.08 62.96 56.13 65.19 51.71 59.29 C 46.39 54.07 50.32 44.40 57.41 43.37 M 54.12 48.12 C 52.06 51.16 52.11 54.85 54.14 57.90 C 57.18 59.91 60.82 59.93 63.86 57.90 C 65.89 54.86 65.96 51.15 63.87 48.12 C 60.83 46.06 57.17 46.09 54.12 48.12 Z" />
</g>
</svg>
