<?xml version="1.0" encoding="UTF-8" ?>
<!DOCTYPE svg PUBLIC "-//W3C//DTD SVG 1.1//EN" "http://www.w3.org/Graphics/SVG/1.1/DTD/svg11.dtd">
<svg width="117px" height="140px" viewBox="0 0 117 140" version="1.1" xmlns="http://www.w3.org/2000/svg">
<g id="#000000ff">
<path fill="#000000" opacity="1.00" d=" M 0.00 0.00 L 117.00 0.00 L 117.00 140.00 L 0.00 140.00 L 0.00 0.00 M 33.12 10.22 C 17.90 11.79 5.18 25.62 5.01 40.94 C 4.98 60.30 4.99 79.67 5.01 99.03 C 5.15 115.00 18.97 129.27 34.92 129.94 C 50.28 130.10 65.64 129.95 81.01 130.01 C 93.12 130.17 104.83 122.68 109.92 111.72 C 112.34 106.85 113.19 101.37 113.03 95.98 C 112.97 77.97 113.01 59.96 113.01 41.96 C 113.07 33.32 109.36 24.77 103.08 18.85 C 96.97 12.92 88.40 9.72 79.90 9.97 C 64.31 10.18 48.70 9.68 33.12 10.22 Z" />
<path fill="#000000" opacity="1.00" d=" M 33.25 12.36 C 48.13 11.69 63.06 12.28 77.95 12.05 C 84.65 11.82 91.56 13.10 97.20 16.90 C 105.63 22.19 110.95 32.01 110.90 41.96 C 110.95 60.65 110.95 79.34 110.90 98.03 C 110.94 106.60 107.02 115.06 100.54 120.65 C 94.90 125.50 87.49 128.06 80.08 127.92 C 65.04 127.86 49.99 128.09 34.95 127.81 C 20.11 127.14 7.28 113.88 7.13 99.02 C 7.03 79.67 7.03 60.30 7.13 40.95 C 7.35 26.73 19.09 13.83 33.25 12.36 M 46.04 28.19 C 46.12 34.02 46.08 39.84 46.09 45.67 C 43.75 45.67 41.42 45.68 39.09 45.70 C 39.48 50.53 38.58 55.52 39.60 60.25 C 42.27 62.84 46.39 61.26 49.71 61.72 C 52.54 64.65 55.47 67.50 58.41 70.32 C 54.72 70.32 51.03 70.30 47.35 70.33 C 47.38 72.89 47.39 75.44 47.34 78.00 C 55.62 77.81 63.94 78.42 72.19 77.65 C 71.85 77.21 71.19 76.31 70.85 75.86 C 63.96 75.40 57.02 75.83 50.10 75.66 C 50.08 75.02 50.03 73.75 50.00 73.12 C 53.59 73.00 57.18 73.03 60.77 73.05 C 60.80 72.32 60.85 70.86 60.88 70.13 C 63.66 67.48 66.22 64.57 69.15 62.07 C 72.33 60.74 76.71 63.08 79.42 60.25 C 80.41 55.51 79.53 50.53 79.91 45.70 C 77.58 45.68 75.25 45.67 72.91 45.67 C 72.91 39.84 72.88 34.02 72.96 28.19 C 63.98 28.14 55.01 28.14 46.04 28.19 Z" />
<path fill="#000000" opacity="1.00" d=" M 48.76 31.04 C 55.92 31.04 63.08 31.04 70.24 31.04 C 70.23 36.79 70.33 42.54 70.16 48.29 C 72.43 48.32 74.70 48.33 76.96 48.35 C 76.92 51.88 76.93 55.41 76.94 58.94 C 65.31 58.98 53.68 58.98 42.06 58.94 C 42.07 55.41 42.08 51.87 42.04 48.34 C 48.77 48.28 55.50 48.34 62.22 48.32 C 62.22 47.66 62.22 46.34 62.22 45.68 C 57.73 45.68 53.24 45.66 48.75 45.71 C 48.74 43.90 48.74 42.10 48.76 40.30 C 53.25 40.34 57.73 40.32 62.22 40.32 C 62.22 39.66 62.22 38.34 62.22 37.68 C 57.72 37.68 53.23 37.67 48.73 37.68 C 48.73 35.47 48.76 33.25 48.76 31.04 M 59.05 49.99 C 58.58 50.99 58.10 52.00 57.63 53.01 C 58.99 51.83 60.49 50.80 62.38 50.78 C 61.67 53.56 58.95 54.98 57.57 57.37 C 59.62 57.35 61.82 57.69 63.70 56.65 C 62.56 56.55 60.28 56.36 59.14 56.26 C 60.65 54.85 63.69 53.72 62.81 51.10 C 62.33 49.63 60.21 50.41 59.05 49.99 Z" />
<path fill="#000000" opacity="1.00" d=" M 53.20 61.69 C 57.40 61.68 61.59 61.67 65.79 61.69 C 63.66 63.70 61.57 65.75 59.49 67.81 C 57.43 65.74 55.33 63.69 53.20 61.69 Z" />
</g>
<g id="#6e6f6eff">
<path fill="#6e6f6e" opacity="1.00" d=" M 33.12 10.22 C 48.70 9.68 64.31 10.18 79.90 9.97 C 88.40 9.72 96.97 12.92 103.08 18.85 C 109.36 24.77 113.07 33.32 113.01 41.96 C 113.01 59.96 112.97 77.97 113.03 95.98 C 113.19 101.37 112.34 106.85 109.92 111.72 C 104.83 122.68 93.12 130.17 81.01 130.01 C 65.64 129.95 50.28 130.10 34.92 129.94 C 18.97 129.27 5.15 115.00 5.01 99.03 C 4.99 79.67 4.98 60.30 5.01 40.94 C 5.18 25.62 17.90 11.79 33.12 10.22 M 33.25 12.36 C 19.09 13.83 7.35 26.73 7.13 40.95 C 7.03 60.30 7.03 79.67 7.13 99.02 C 7.28 113.88 20.11 127.14 34.95 127.81 C 49.99 128.09 65.04 127.86 80.08 127.92 C 87.49 128.06 94.90 125.50 100.54 120.65 C 107.02 115.06 110.94 106.60 110.90 98.03 C 110.95 79.34 110.95 60.65 110.90 41.96 C 110.95 32.01 105.63 22.19 97.20 16.90 C 91.56 13.10 84.65 11.82 77.95 12.05 C 63.06 12.28 48.13 11.69 33.25 12.36 Z" />
</g>
<g id="#f6faf6ff">
<path fill="#f6faf6" opacity="1.00" d=" M 46.04 28.19 C 55.01 28.14 63.98 28.14 72.96 28.19 C 72.88 34.02 72.91 39.84 72.91 45.67 C 75.25 45.67 77.58 45.68 79.91 45.70 C 79.53 50.53 80.41 55.51 79.42 60.25 C 76.71 63.08 72.33 60.74 69.15 62.07 C 66.22 64.57 63.66 67.48 60.88 70.13 C 60.85 70.86 60.80 72.32 60.77 73.05 C 57.18 73.03 53.59 73.00 50.00 73.12 C 50.03 73.75 50.08 75.02 50.10 75.66 C 57.02 75.83 63.96 75.40 70.85 75.86 C 71.19 76.31 71.85 77.21 72.19 77.65 C 63.94 78.42 55.62 77.81 47.34 78.00 C 47.39 75.44 47.38 72.89 47.35 70.33 C 51.03 70.30 54.72 70.32 58.41 70.32 C 55.47 67.50 52.54 64.65 49.71 61.72 C 46.39 61.26 42.27 62.84 39.60 60.25 C 38.58 55.52 39.48 50.53 39.09 45.70 C 41.42 45.68 43.75 45.67 46.09 45.67 C 46.08 39.84 46.12 34.02 46.04 28.19 M 48.76 31.04 C 48.76 33.25 48.73 35.47 48.73 37.68 C 53.23 37.67 57.72 37.68 62.22 37.68 C 62.22 38.34 62.22 39.66 62.22 40.32 C 57.73 40.32 53.25 40.34 48.76 40.30 C 48.74 42.10 48.74 43.90 48.75 45.71 C 53.24 45.66 57.73 45.68 62.22 45.68 C 62.22 46.34 62.22 47.66 62.22 48.32 C 55.50 48.34 48.77 48.28 42.04 48.34 C 42.08 51.87 42.07 55.41 42.06 58.94 C 53.68 58.98 65.31 58.98 76.94 58.94 C 76.93 55.41 76.92 51.88 76.96 48.35 C 74.70 48.33 72.43 48.32 70.16 48.29 C 70.33 42.54 70.23 36.79 70.24 31.04 C 63.08 31.04 55.92 31.04 48.76 31.04 M 53.20 61.69 C 55.33 63.69 57.43 65.74 59.49 67.81 C 61.57 65.75 63.66 63.70 65.79 61.69 C 61.59 61.67 57.40 61.68 53.20 61.69 Z" />
<path fill="#f6faf6" opacity="1.00" d=" M 59.05 49.99 C 60.21 50.41 62.33 49.63 62.81 51.10 C 63.69 53.72 60.65 54.85 59.14 56.26 C 60.28 56.36 62.56 56.55 63.70 56.65 C 61.82 57.69 59.62 57.35 57.57 57.37 C 58.95 54.98 61.67 53.56 62.38 50.78 C 60.49 50.80 58.99 51.83 57.63 53.01 C 58.10 52.00 58.58 50.99 59.05 49.99 Z" />
</g>
</svg>
