<?xml version="1.0" encoding="UTF-8" ?>
<!DOCTYPE svg PUBLIC "-//W3C//DTD SVG 1.1//EN" "http://www.w3.org/Graphics/SVG/1.1/DTD/svg11.dtd">
<svg width="117px" height="140px" viewBox="0 0 117 140" version="1.1" xmlns="http://www.w3.org/2000/svg">
<g id="#000000ff">
<path fill="#000000" opacity="1.00" d=" M 0.00 0.00 L 117.00 0.00 L 117.00 140.00 L 0.00 140.00 L 0.00 0.00 M 33.15 10.22 C 17.94 11.80 5.21 25.59 5.02 40.91 C 4.98 60.29 4.98 79.67 5.02 99.05 C 5.15 115.36 19.61 129.83 35.93 129.97 C 51.64 129.98 67.37 130.10 83.08 129.91 C 99.02 129.27 112.84 114.98 112.97 99.03 C 113.04 80.02 112.98 61.00 113.00 41.99 C 113.07 33.12 109.15 24.34 102.57 18.39 C 96.51 12.75 88.18 9.77 79.93 9.97 C 64.34 10.18 48.73 9.69 33.15 10.22 Z" />
<path fill="#000000" opacity="1.00" d=" M 33.24 12.34 C 48.80 11.72 64.40 12.24 79.98 12.07 C 87.96 11.83 95.94 14.87 101.70 20.39 C 107.46 25.97 110.99 33.88 110.90 41.93 C 110.95 60.62 110.95 79.31 110.90 98.01 C 111.06 109.31 104.09 120.28 93.84 125.00 C 88.97 127.50 83.40 128.04 78.01 127.95 C 63.62 127.82 49.22 128.12 34.84 127.80 C 20.06 127.11 7.28 113.88 7.13 99.08 C 7.03 79.72 7.03 60.35 7.13 40.98 C 7.27 26.74 19.08 13.82 33.24 12.34 M 47.46 50.42 C 44.96 51.23 44.04 54.87 46.33 56.43 C 48.80 58.43 52.91 55.24 51.64 52.43 C 50.87 50.99 49.13 49.72 47.46 50.42 M 56.90 54.89 C 57.82 57.67 62.11 57.67 63.08 54.94 C 64.27 52.50 62.00 50.54 59.84 49.97 C 57.89 50.67 55.80 52.66 56.90 54.89 M 70.47 50.45 C 65.95 51.84 69.03 58.57 73.00 56.77 C 76.99 55.39 74.22 48.90 70.47 50.45 Z" />
</g>
<g id="#727272ff">
<path fill="#727272" opacity="1.00" d=" M 33.15 10.22 C 48.73 9.69 64.34 10.18 79.93 9.97 C 88.18 9.77 96.51 12.75 102.57 18.39 C 109.15 24.34 113.07 33.12 113.00 41.99 C 112.98 61.00 113.04 80.02 112.97 99.03 C 112.84 114.98 99.02 129.27 83.08 129.91 C 67.37 130.10 51.64 129.98 35.93 129.97 C 19.61 129.83 5.15 115.36 5.02 99.05 C 4.98 79.67 4.98 60.29 5.02 40.91 C 5.21 25.59 17.94 11.80 33.15 10.22 M 33.24 12.34 C 19.08 13.82 7.27 26.74 7.13 40.98 C 7.03 60.35 7.03 79.72 7.13 99.08 C 7.28 113.88 20.06 127.11 34.84 127.80 C 49.22 128.12 63.62 127.82 78.01 127.95 C 83.40 128.04 88.97 127.50 93.84 125.00 C 104.09 120.28 111.06 109.31 110.90 98.01 C 110.95 79.31 110.95 60.62 110.90 41.93 C 110.99 33.88 107.46 25.97 101.70 20.39 C 95.94 14.87 87.96 11.83 79.98 12.07 C 64.40 12.24 48.80 11.72 33.24 12.34 Z" />
</g>
<g id="#f8fcf8ff">
<path fill="#f8fcf8" opacity="1.00" d=" M 47.46 50.42 C 49.13 49.72 50.87 50.99 51.64 52.43 C 52.91 55.24 48.80 58.43 46.33 56.43 C 44.04 54.87 44.96 51.23 47.46 50.42 Z" />
<path fill="#f8fcf8" opacity="1.00" d=" M 56.90 54.89 C 55.80 52.66 57.89 50.67 59.84 49.97 C 62.00 50.54 64.27 52.50 63.08 54.94 C 62.11 57.67 57.82 57.67 56.90 54.89 Z" />
<path fill="#f8fcf8" opacity="1.00" d=" M 70.47 50.45 C 74.22 48.90 76.99 55.39 73.00 56.77 C 69.03 58.57 65.95 51.84 70.47 50.45 Z" />
</g>
</svg>
