<?xml version="1.0" encoding="UTF-8" ?>
<!DOCTYPE svg PUBLIC "-//W3C//DTD SVG 1.1//EN" "http://www.w3.org/Graphics/SVG/1.1/DTD/svg11.dtd">
<svg width="117px" height="140px" viewBox="0 0 117 140" version="1.1" xmlns="http://www.w3.org/2000/svg">
<g id="#000000ff">
<path fill="#000000" opacity="1.00" d=" M 0.00 0.00 L 117.00 0.00 L 117.00 140.00 L 0.00 140.00 L 0.00 0.00 M 33.22 10.22 C 17.96 11.76 5.22 25.59 5.02 40.93 C 4.96 59.96 5.02 78.98 5.00 98.01 C 4.95 106.87 8.85 115.63 15.40 121.57 C 21.45 127.21 29.76 130.23 38.01 130.02 C 53.02 129.92 68.02 130.13 83.02 129.92 C 98.97 129.29 112.84 115.00 112.97 99.04 C 113.04 80.01 112.98 60.99 113.00 41.97 C 113.04 33.32 109.34 24.77 103.05 18.85 C 96.98 12.97 88.50 9.79 80.07 9.98 C 64.46 10.16 48.82 9.69 33.22 10.22 Z" />
<path fill="#000000" opacity="1.00" d=" M 30.54 12.68 C 34.31 11.84 38.19 12.00 42.02 12.00 C 55.70 12.06 69.38 11.88 83.06 12.08 C 97.93 12.73 110.87 26.07 110.96 40.97 C 111.02 60.32 111.03 79.67 110.96 99.02 C 110.89 114.28 97.29 127.86 82.03 127.95 C 66.69 128.04 51.34 128.01 35.99 127.97 C 20.70 127.86 7.09 114.27 7.03 98.97 C 6.98 79.63 6.98 60.29 7.03 40.95 C 7.20 27.61 17.52 15.38 30.54 12.68 M 41.13 44.42 C 40.31 45.94 42.85 46.95 43.41 48.22 C 46.16 46.97 48.92 45.58 51.94 45.14 C 57.02 44.36 62.17 46.33 66.13 49.44 C 68.34 46.93 69.85 43.92 71.66 41.13 C 66.36 37.07 59.30 37.02 52.97 37.78 C 48.55 38.86 44.24 41.04 41.13 44.42 M 67.16 51.04 C 70.68 54.30 71.27 59.11 71.98 63.58 C 75.70 63.58 79.42 63.58 83.14 63.56 C 84.33 55.02 79.51 46.76 72.86 41.74 C 71.10 44.92 69.22 48.05 67.16 51.04 M 35.77 52.40 C 34.83 54.41 34.08 56.51 33.84 58.73 C 34.73 59.16 35.62 59.58 36.52 60.00 C 37.39 57.76 38.03 55.41 39.25 53.33 C 40.18 52.26 40.70 49.95 42.63 50.64 C 42.25 49.59 41.87 48.54 41.48 47.49 C 38.02 45.32 37.06 50.14 35.77 52.40 M 43.29 51.81 C 46.92 55.95 49.76 60.69 53.02 65.10 C 53.89 63.85 55.05 62.88 56.25 61.98 C 51.42 57.84 47.51 52.71 42.53 48.77 C 42.72 49.53 43.10 51.05 43.29 51.81 M 55.73 69.31 C 56.62 70.66 58.22 70.03 59.48 69.81 C 59.98 68.84 60.48 67.89 60.99 66.93 C 59.96 65.79 59.02 63.60 57.13 64.26 C 54.85 64.61 53.66 67.91 55.73 69.31 Z" />
<path fill="#000000" opacity="1.00" d=" M 54.83 41.23 C 56.48 40.81 58.18 40.69 59.88 40.63 C 59.75 41.03 59.49 41.84 59.35 42.25 C 57.84 41.94 56.33 41.60 54.83 41.23 Z" />
<path fill="#000000" opacity="1.00" d=" M 62.84 41.10 C 64.22 41.45 65.60 41.81 66.99 42.14 C 66.39 42.98 65.79 43.81 65.19 44.65 C 63.90 43.81 62.50 42.90 62.84 41.10 Z" />
<path fill="#000000" opacity="1.00" d=" M 72.47 49.67 C 71.80 48.68 72.77 46.52 74.10 47.00 C 74.78 47.99 73.65 49.89 72.47 49.67 Z" />
<path fill="#000000" opacity="1.00" d=" M 73.76 55.54 C 71.86 53.02 74.81 51.72 76.48 50.32 C 77.04 51.48 77.60 52.64 78.17 53.80 C 76.69 54.36 75.24 54.99 73.76 55.54 Z" />
<path fill="#000000" opacity="1.00" d=" M 74.25 59.96 C 75.61 58.68 77.14 57.51 79.03 57.14 C 79.32 58.08 79.59 59.04 79.84 60.00 C 77.97 60.00 76.11 60.01 74.25 59.96 Z" />
</g>
<g id="#737473ff">
<path fill="#737473" opacity="1.00" d=" M 33.22 10.22 C 48.82 9.69 64.46 10.16 80.07 9.98 C 88.50 9.79 96.98 12.97 103.05 18.85 C 109.34 24.77 113.04 33.32 113.00 41.97 C 112.98 60.99 113.04 80.01 112.97 99.04 C 112.84 115.00 98.97 129.29 83.02 129.92 C 68.02 130.13 53.02 129.92 38.01 130.02 C 29.76 130.23 21.45 127.21 15.40 121.57 C 8.85 115.63 4.95 106.87 5.00 98.01 C 5.02 78.98 4.96 59.96 5.02 40.93 C 5.22 25.59 17.96 11.76 33.22 10.22 M 30.54 12.68 C 17.52 15.38 7.20 27.61 7.03 40.95 C 6.98 60.29 6.98 79.63 7.03 98.97 C 7.09 114.27 20.70 127.86 35.99 127.97 C 51.34 128.01 66.69 128.04 82.03 127.95 C 97.29 127.86 110.89 114.28 110.96 99.02 C 111.03 79.67 111.02 60.32 110.96 40.97 C 110.87 26.07 97.93 12.73 83.06 12.08 C 69.38 11.88 55.70 12.06 42.02 12.00 C 38.19 12.00 34.31 11.84 30.54 12.68 Z" />
</g>
<g id="#f8fcf8ff">
<path fill="#f8fcf8" opacity="1.00" d=" M 41.13 44.42 C 44.24 41.04 48.55 38.86 52.97 37.78 C 59.30 37.02 66.36 37.07 71.66 41.13 C 69.85 43.92 68.34 46.93 66.13 49.44 C 62.17 46.33 57.02 44.36 51.94 45.14 C 48.92 45.58 46.16 46.97 43.41 48.22 C 42.85 46.95 40.31 45.94 41.13 44.42 M 54.83 41.23 C 56.33 41.60 57.84 41.94 59.35 42.25 C 59.49 41.84 59.75 41.03 59.88 40.63 C 58.18 40.69 56.48 40.81 54.83 41.23 M 62.84 41.10 C 62.50 42.90 63.90 43.81 65.19 44.65 C 65.79 43.81 66.39 42.98 66.99 42.14 C 65.60 41.81 64.22 41.45 62.84 41.10 Z" />
<path fill="#f8fcf8" opacity="1.00" d=" M 67.16 51.04 C 69.22 48.05 71.10 44.92 72.86 41.74 C 79.51 46.76 84.33 55.02 83.14 63.56 C 79.42 63.58 75.70 63.58 71.98 63.58 C 71.27 59.11 70.68 54.30 67.16 51.04 M 72.47 49.67 C 73.65 49.89 74.78 47.99 74.10 47.00 C 72.77 46.52 71.80 48.68 72.47 49.67 M 73.76 55.54 C 75.24 54.99 76.69 54.36 78.17 53.80 C 77.60 52.64 77.04 51.48 76.48 50.32 C 74.81 51.72 71.86 53.02 73.76 55.54 M 74.25 59.96 C 76.11 60.01 77.97 60.00 79.84 60.00 C 79.59 59.04 79.32 58.08 79.03 57.14 C 77.14 57.51 75.61 58.68 74.25 59.96 Z" />
<path fill="#f8fcf8" opacity="1.00" d=" M 35.77 52.40 C 37.06 50.14 38.02 45.32 41.48 47.49 C 41.87 48.54 42.25 49.59 42.63 50.64 C 40.70 49.95 40.18 52.26 39.25 53.33 C 38.03 55.41 37.39 57.76 36.52 60.00 C 35.62 59.58 34.73 59.16 33.84 58.73 C 34.08 56.51 34.83 54.41 35.77 52.40 Z" />
<path fill="#f8fcf8" opacity="1.00" d=" M 43.29 51.81 C 43.10 51.05 42.72 49.53 42.53 48.77 C 47.51 52.71 51.42 57.84 56.25 61.98 C 55.05 62.88 53.89 63.85 53.02 65.10 C 49.76 60.69 46.92 55.95 43.29 51.81 Z" />
<path fill="#f8fcf8" opacity="1.00" d=" M 55.73 69.31 C 53.66 67.91 54.85 64.61 57.13 64.26 C 59.02 63.60 59.96 65.79 60.99 66.93 C 60.48 67.89 59.98 68.84 59.48 69.81 C 58.22 70.03 56.62 70.66 55.73 69.31 Z" />
</g>
</svg>
