<?xml version="1.0" encoding="UTF-8" ?>
<!DOCTYPE svg PUBLIC "-//W3C//DTD SVG 1.1//EN" "http://www.w3.org/Graphics/SVG/1.1/DTD/svg11.dtd">
<svg width="117px" height="140px" viewBox="0 0 117 140" version="1.1" xmlns="http://www.w3.org/2000/svg">
<g id="#000000ff">
<path fill="#000000" opacity="1.00" d=" M 0.00 0.00 L 117.00 0.00 L 117.00 140.00 L 0.00 140.00 L 0.00 0.00 M 23.21 13.16 C 16.09 16.18 10.22 22.12 7.17 29.21 C 5.21 33.13 4.43 37.60 4.37 41.96 C 4.39 60.67 4.39 79.37 4.37 98.08 C 4.36 102.45 5.39 106.82 7.16 110.81 C 11.81 121.74 23.11 129.25 34.96 129.62 C 49.98 129.63 65.01 129.60 80.04 129.63 C 83.13 129.73 86.09 128.71 89.15 128.39 C 90.37 127.86 91.60 127.35 92.83 126.83 C 98.32 124.55 102.88 120.44 106.30 115.62 C 108.43 112.05 110.38 108.23 110.91 104.05 C 111.40 102.42 111.65 100.73 111.61 99.04 C 111.63 80.35 111.60 61.66 111.63 42.97 C 111.73 38.26 110.83 33.48 108.85 29.19 C 108.08 27.53 107.26 25.88 106.27 24.33 C 100.42 15.78 90.42 10.40 80.04 10.37 C 64.67 10.44 49.30 10.29 33.94 10.44 C 30.31 11.02 26.48 11.35 23.21 13.16 Z" />
<path fill="#000000" opacity="1.00" d=" M 27.04 12.79 C 29.67 12.25 32.29 11.55 35.00 11.60 C 50.35 11.63 65.70 11.63 81.06 11.60 C 83.80 11.59 86.47 12.29 89.15 12.82 C 98.51 16.05 106.10 23.60 109.21 33.01 C 109.76 35.31 110.48 37.60 110.41 39.98 C 110.28 60.97 110.53 81.95 110.28 102.94 C 108.08 114.05 99.91 123.60 89.10 127.18 C 86.43 127.73 83.76 128.42 81.02 128.40 C 65.66 128.37 50.31 128.37 34.96 128.40 C 32.08 128.42 29.31 127.54 26.45 127.34 L 26.37 126.67 C 18.58 124.50 12.22 118.43 8.63 111.29 C 7.17 108.72 6.85 105.72 5.69 103.02 C 5.56 80.99 5.57 58.95 5.69 36.92 C 8.05 25.85 16.18 16.27 27.04 12.79 M 35.17 42.00 C 35.17 50.67 35.17 59.33 35.17 68.00 C 38.06 68.00 40.94 68.00 43.83 68.00 C 43.82 64.97 43.83 61.95 43.83 58.92 C 46.02 59.19 49.02 58.41 50.43 60.62 C 51.03 63.03 50.83 65.55 51.10 68.01 C 54.01 67.99 56.91 67.98 59.82 68.05 C 58.46 65.22 59.26 62.02 58.68 59.04 C 58.20 57.40 56.51 56.60 55.32 55.53 C 60.46 53.44 60.30 44.56 54.83 42.99 C 48.47 41.22 41.70 42.30 35.17 42.00 M 62.60 49.17 C 62.90 54.38 61.84 59.78 63.31 64.85 C 65.63 69.78 72.54 69.06 76.18 66.03 C 76.20 66.53 76.22 67.51 76.23 68.01 C 78.62 68.00 81.02 68.00 83.41 68.00 C 83.40 61.72 83.42 55.45 83.39 49.17 C 80.79 49.17 78.19 49.17 75.59 49.17 C 75.54 53.56 75.89 57.99 75.08 62.33 C 73.63 62.40 72.18 62.46 70.73 62.49 C 70.22 58.07 70.44 53.61 70.40 49.17 C 67.80 49.17 65.20 49.17 62.60 49.17 Z" />
<path fill="#000000" opacity="1.00" d=" M 43.71 48.45 C 46.75 48.27 51.43 47.64 51.38 52.05 C 49.05 53.26 46.43 53.29 43.88 53.21 C 43.82 51.63 43.77 50.04 43.71 48.45 Z" />
</g>
<g id="#e76010ff">
<path fill="#e76010" opacity="1.00" d=" M 23.21 13.16 C 26.48 11.35 30.31 11.02 33.94 10.44 C 49.30 10.29 64.67 10.44 80.04 10.37 C 90.42 10.40 100.42 15.78 106.27 24.33 C 107.26 25.88 108.08 27.53 108.85 29.19 C 110.83 33.48 111.73 38.26 111.63 42.97 C 111.60 61.66 111.63 80.35 111.61 99.04 C 111.65 100.73 111.40 102.42 110.91 104.05 C 110.38 108.23 108.43 112.05 106.30 115.62 C 102.88 120.44 98.32 124.55 92.83 126.83 C 91.60 127.35 90.37 127.86 89.15 128.39 C 86.09 128.71 83.13 129.73 80.04 129.63 C 65.01 129.60 49.98 129.63 34.96 129.62 C 23.11 129.25 11.81 121.74 7.16 110.81 C 5.39 106.82 4.36 102.45 4.37 98.08 C 4.39 79.37 4.39 60.67 4.37 41.96 C 4.43 37.60 5.21 33.13 7.17 29.21 C 10.22 22.12 16.09 16.18 23.21 13.16 M 27.04 12.79 C 16.18 16.27 8.05 25.85 5.69 36.92 C 5.57 58.95 5.56 80.99 5.69 103.02 C 6.85 105.72 7.17 108.72 8.63 111.29 C 12.22 118.43 18.58 124.50 26.37 126.67 L 26.45 127.34 C 29.31 127.54 32.08 128.42 34.96 128.40 C 50.31 128.37 65.66 128.37 81.02 128.40 C 83.76 128.42 86.43 127.73 89.10 127.18 C 99.91 123.60 108.08 114.05 110.28 102.94 C 110.53 81.95 110.28 60.97 110.41 39.98 C 110.48 37.60 109.76 35.31 109.21 33.01 C 106.10 23.60 98.51 16.05 89.15 12.82 C 86.47 12.29 83.80 11.59 81.06 11.60 C 65.70 11.63 50.35 11.63 35.00 11.60 C 32.29 11.55 29.67 12.25 27.04 12.79 Z" />
<path fill="#e76010" opacity="1.00" d=" M 35.17 42.00 C 41.70 42.30 48.47 41.22 54.83 42.99 C 60.30 44.56 60.46 53.44 55.32 55.53 C 56.51 56.60 58.20 57.40 58.68 59.04 C 59.26 62.02 58.46 65.22 59.82 68.05 C 56.91 67.98 54.01 67.99 51.10 68.01 C 50.83 65.55 51.03 63.03 50.43 60.62 C 49.02 58.41 46.02 59.19 43.83 58.92 C 43.83 61.95 43.82 64.97 43.83 68.00 C 40.94 68.00 38.06 68.00 35.17 68.00 C 35.17 59.33 35.17 50.67 35.17 42.00 M 43.71 48.45 C 43.77 50.04 43.82 51.63 43.88 53.21 C 46.43 53.29 49.05 53.26 51.38 52.05 C 51.43 47.64 46.75 48.27 43.71 48.45 Z" />
<path fill="#e76010" opacity="1.00" d=" M 62.60 49.17 C 65.20 49.17 67.80 49.17 70.40 49.17 C 70.44 53.61 70.22 58.07 70.73 62.49 C 72.18 62.46 73.63 62.40 75.08 62.33 C 75.89 57.99 75.54 53.56 75.59 49.17 C 78.19 49.17 80.79 49.17 83.39 49.17 C 83.42 55.45 83.40 61.72 83.41 68.00 C 81.02 68.00 78.62 68.00 76.23 68.01 C 76.22 67.51 76.20 66.53 76.18 66.03 C 72.54 69.06 65.63 69.78 63.31 64.85 C 61.84 59.78 62.90 54.38 62.60 49.17 Z" />
</g>
</svg>
