<?xml version="1.0" encoding="UTF-8" ?>
<!DOCTYPE svg PUBLIC "-//W3C//DTD SVG 1.1//EN" "http://www.w3.org/Graphics/SVG/1.1/DTD/svg11.dtd">
<svg width="117px" height="140px" viewBox="0 0 117 140" version="1.1" xmlns="http://www.w3.org/2000/svg">
<g id="#000000ff">
<path fill="#000000" opacity="1.00" d=" M 0.00 0.00 L 117.00 0.00 L 117.00 140.00 L 0.00 140.00 L 0.00 0.00 M 31.30 10.59 L 31.79 11.42 C 29.26 11.18 26.87 11.93 24.51 12.68 L 24.48 13.82 C 24.02 13.64 23.11 13.27 22.65 13.08 L 22.64 14.61 C 22.17 14.54 21.22 14.38 20.75 14.30 L 20.50 15.27 C 19.00 15.94 17.68 16.93 16.34 17.86 L 16.73 18.87 L 15.20 18.07 L 15.88 19.80 L 14.41 18.99 L 14.67 20.64 L 13.06 20.41 L 13.91 21.75 L 12.84 21.36 C 11.90 22.71 10.94 24.06 10.24 25.55 L 9.27 25.75 C 9.37 26.21 9.56 27.14 9.65 27.61 L 8.14 27.64 C 8.29 28.11 8.61 29.05 8.77 29.52 L 7.63 29.50 C 6.65 33.62 5.10 37.67 5.37 41.99 C 5.48 62.40 5.16 82.81 5.54 103.21 C 5.75 103.57 6.17 104.29 6.38 104.66 C 6.48 106.66 7.15 108.56 7.65 110.48 L 8.77 110.48 C 8.61 110.95 8.30 111.88 8.14 112.35 L 9.65 112.40 C 9.56 112.87 9.39 113.79 9.30 114.26 L 10.25 114.46 C 10.95 115.96 11.90 117.31 12.84 118.67 L 13.88 118.27 L 13.04 119.76 L 14.78 119.16 L 14.00 120.60 L 15.67 120.36 L 15.42 122.03 L 16.70 121.00 L 16.35 122.15 C 17.73 123.08 19.07 124.08 20.57 124.81 L 20.74 125.72 C 21.21 125.63 22.14 125.45 22.61 125.36 L 22.66 126.91 C 23.12 126.72 24.04 126.36 24.51 126.18 L 24.47 127.54 C 25.35 127.55 27.10 127.56 27.97 127.56 L 27.19 128.60 C 28.74 128.57 30.29 128.55 31.84 128.52 L 31.25 129.41 C 46.83 129.89 62.42 129.50 78.00 129.63 C 80.89 129.53 83.96 130.03 86.67 128.75 C 88.05 128.63 89.42 128.56 90.81 128.54 L 90.03 127.56 C 90.91 127.56 92.65 127.55 93.53 127.54 L 93.49 126.18 C 93.95 126.36 94.88 126.72 95.34 126.90 L 95.40 125.34 C 95.86 125.44 96.80 125.63 97.26 125.73 L 97.41 124.80 C 98.93 124.11 100.24 123.06 101.64 122.16 L 101.24 121.14 L 102.64 121.94 L 102.32 120.37 L 103.80 120.70 L 103.35 119.21 L 104.98 119.74 L 104.11 118.24 L 105.13 118.67 C 106.08 117.33 107.05 115.99 107.73 114.49 L 108.70 114.25 C 108.61 113.79 108.44 112.86 108.35 112.39 L 109.87 112.36 C 109.71 111.90 109.39 110.96 109.23 110.49 L 110.36 110.48 C 111.22 106.68 112.74 102.97 112.60 99.00 C 112.64 79.66 112.64 60.32 112.60 40.98 C 112.81 37.02 111.15 33.36 110.44 29.54 L 109.26 29.54 C 109.41 29.06 109.69 28.10 109.84 27.63 L 108.34 27.59 C 108.43 27.13 108.61 26.21 108.71 25.75 L 107.73 25.51 C 107.04 24.04 106.09 22.72 105.17 21.38 L 104.20 21.72 L 104.89 20.35 L 103.79 20.59 C 103.50 19.29 102.71 18.52 101.40 18.26 L 101.55 17.78 C 100.21 16.87 98.88 15.93 97.43 15.19 L 97.27 14.28 C 96.79 14.37 95.85 14.55 95.37 14.64 L 95.35 13.10 C 94.88 13.28 93.94 13.64 93.47 13.82 L 93.54 12.45 C 92.67 12.45 90.92 12.45 90.04 12.45 L 90.82 11.44 C 89.29 11.45 87.77 11.46 86.25 11.47 L 86.68 10.58 C 68.23 10.25 49.75 10.24 31.30 10.59 Z" />
<path fill="#000000" opacity="1.00" d=" M 27.12 12.71 C 29.79 12.71 32.28 11.63 34.93 11.61 C 50.63 11.63 66.32 11.64 82.01 11.61 C 85.83 11.52 89.69 12.61 93.10 14.24 C 94.21 14.79 95.36 15.25 96.54 15.63 L 96.72 16.67 C 97.22 16.57 98.21 16.37 98.71 16.27 L 98.13 17.79 L 99.16 17.18 C 101.28 19.49 103.46 21.78 105.84 23.81 L 105.19 24.87 L 106.73 24.30 C 106.63 24.79 106.43 25.78 106.34 26.28 L 107.39 26.45 C 107.77 28.10 108.36 29.79 109.71 30.90 C 109.57 31.32 109.29 32.16 109.15 32.58 L 110.42 32.15 C 110.45 33.66 110.50 35.17 110.55 36.68 L 111.48 36.19 C 111.17 58.55 111.57 80.93 111.28 103.30 C 110.54 104.80 110.37 106.46 110.21 108.09 L 109.11 107.19 C 109.26 107.65 109.55 108.57 109.70 109.03 C 108.54 110.26 107.75 111.83 107.49 113.50 L 106.34 113.73 C 106.44 114.23 106.63 115.22 106.72 115.72 L 105.18 115.11 L 105.85 116.17 C 103.49 118.24 101.25 120.49 99.16 122.84 L 98.14 122.17 L 98.71 123.71 C 98.21 123.62 97.21 123.44 96.71 123.35 L 96.55 124.38 C 95.25 124.81 94.00 125.33 92.70 125.75 L 92.58 126.39 C 89.38 126.75 86.46 128.53 83.19 128.37 C 67.80 128.39 52.42 128.35 37.04 128.39 C 32.87 128.60 28.62 127.56 24.91 125.76 C 23.79 125.22 22.64 124.76 21.46 124.38 L 21.27 123.33 C 20.78 123.43 19.80 123.63 19.31 123.73 L 19.86 122.25 L 18.81 122.80 C 16.71 120.49 14.52 118.21 12.15 116.18 L 12.80 115.13 L 11.26 115.69 C 11.37 115.20 11.57 114.23 11.67 113.74 L 10.54 113.51 C 10.22 111.85 9.46 110.26 8.29 109.03 C 8.43 108.63 8.69 107.81 8.83 107.41 L 7.57 107.85 C 7.54 106.33 7.50 104.82 7.45 103.30 L 6.53 103.82 C 6.68 81.28 6.69 58.73 6.53 36.18 L 7.45 36.69 C 7.50 35.17 7.54 33.66 7.58 32.15 L 8.81 32.60 C 8.69 32.19 8.46 31.38 8.34 30.97 C 8.71 30.44 9.45 29.40 9.83 28.88 C 10.03 28.28 10.44 27.07 10.65 26.47 L 11.66 26.29 C 11.56 25.79 11.38 24.79 11.29 24.29 L 12.84 24.87 L 12.14 23.83 C 14.51 21.77 16.76 19.52 18.82 17.15 L 19.85 17.82 L 19.31 16.29 C 19.80 16.38 20.79 16.57 21.29 16.66 L 21.47 15.65 C 22.08 15.44 23.29 15.03 23.90 14.83 C 24.42 14.45 25.46 13.69 25.98 13.32 C 26.38 13.47 27.18 13.77 27.58 13.93 L 27.12 12.71 M 57.18 27.05 C 57.20 34.32 57.24 41.60 57.15 48.87 C 57.95 48.89 59.54 48.93 60.34 48.95 C 60.34 41.63 60.33 34.31 60.35 26.99 C 59.55 27.01 57.97 27.04 57.18 27.05 M 33.16 58.82 C 34.22 69.70 43.29 79.20 54.13 80.69 C 62.65 82.09 71.73 78.72 77.17 72.00 C 82.71 65.60 84.36 56.31 81.83 48.29 C 80.08 42.60 76.02 37.95 71.25 34.54 C 70.44 35.33 69.64 36.11 68.85 36.90 C 74.95 40.48 79.23 46.98 79.77 54.06 C 80.55 62.10 76.45 70.37 69.53 74.55 C 62.03 79.38 51.61 78.82 44.64 73.27 C 37.41 67.86 34.28 57.68 37.25 49.15 C 38.83 43.97 42.57 39.70 47.15 36.90 C 46.35 36.11 45.56 35.32 44.75 34.54 C 36.86 39.78 31.89 49.29 33.16 58.82 Z" />
</g>
<g id="#eff4f4ff">
<path fill="#eff4f4" opacity="1.00" d=" M 31.30 10.59 C 49.75 10.24 68.23 10.25 86.68 10.58 L 86.25 11.47 C 87.77 11.46 89.29 11.45 90.82 11.44 L 90.04 12.45 C 90.92 12.45 92.67 12.45 93.54 12.45 L 93.47 13.82 C 93.94 13.64 94.88 13.28 95.35 13.10 L 95.37 14.64 C 95.85 14.55 96.79 14.37 97.27 14.28 L 97.43 15.19 C 98.88 15.93 100.21 16.87 101.55 17.78 L 101.40 18.26 C 102.71 18.52 103.50 19.29 103.79 20.59 L 104.89 20.35 L 104.20 21.72 L 105.17 21.38 C 106.09 22.72 107.04 24.04 107.73 25.51 L 108.71 25.75 C 108.61 26.21 108.43 27.13 108.34 27.59 L 109.84 27.63 C 109.69 28.10 109.41 29.06 109.26 29.54 L 110.44 29.54 C 111.15 33.36 112.81 37.02 112.60 40.98 C 112.64 60.32 112.64 79.66 112.60 99.00 C 112.74 102.97 111.22 106.68 110.36 110.48 L 109.23 110.49 C 109.39 110.96 109.71 111.90 109.87 112.36 L 108.35 112.39 C 108.44 112.86 108.61 113.79 108.70 114.25 L 107.73 114.49 C 107.05 115.99 106.08 117.33 105.13 118.67 L 104.11 118.24 L 104.98 119.74 L 103.35 119.21 L 103.80 120.70 L 102.32 120.37 L 102.64 121.94 L 101.24 121.14 L 101.64 122.16 C 100.24 123.06 98.93 124.11 97.41 124.80 L 97.26 125.73 C 96.80 125.63 95.86 125.44 95.40 125.34 L 95.34 126.90 C 94.88 126.72 93.95 126.36 93.49 126.18 L 93.53 127.54 C 92.65 127.55 90.91 127.56 90.03 127.56 L 90.81 128.54 C 89.42 128.56 88.05 128.63 86.67 128.75 C 83.96 130.03 80.89 129.53 78.00 129.63 C 62.42 129.50 46.83 129.89 31.25 129.41 L 31.84 128.52 C 30.29 128.55 28.74 128.57 27.19 128.60 L 27.97 127.56 C 27.10 127.56 25.35 127.55 24.47 127.54 L 24.51 126.18 C 24.04 126.36 23.12 126.72 22.66 126.91 L 22.61 125.36 C 22.14 125.45 21.21 125.63 20.74 125.72 L 20.57 124.81 C 19.07 124.08 17.73 123.08 16.35 122.15 L 16.70 121.00 L 15.42 122.03 L 15.67 120.36 L 14.00 120.60 L 14.78 119.16 L 13.04 119.76 L 13.88 118.27 L 12.84 118.67 C 11.90 117.31 10.95 115.96 10.25 114.46 L 9.30 114.26 C 9.39 113.79 9.56 112.87 9.65 112.40 L 8.14 112.35 C 8.30 111.88 8.61 110.95 8.77 110.48 L 7.65 110.48 C 7.15 108.56 6.48 106.66 6.38 104.66 C 6.17 104.29 5.75 103.57 5.54 103.21 C 5.16 82.81 5.48 62.40 5.37 41.99 C 5.10 37.67 6.65 33.62 7.63 29.50 L 8.77 29.52 C 8.61 29.05 8.29 28.11 8.14 27.64 L 9.65 27.61 C 9.56 27.14 9.37 26.21 9.27 25.75 L 10.24 25.55 C 10.94 24.06 11.90 22.71 12.84 21.36 L 13.91 21.75 L 13.06 20.41 L 14.67 20.64 L 14.41 18.99 L 15.88 19.80 L 15.20 18.07 L 16.73 18.87 L 16.34 17.86 C 17.68 16.93 19.00 15.94 20.50 15.27 L 20.75 14.30 C 21.22 14.38 22.17 14.54 22.64 14.61 L 22.65 13.08 C 23.11 13.27 24.02 13.64 24.48 13.82 L 24.51 12.68 C 26.87 11.93 29.26 11.18 31.79 11.42 L 31.30 10.59 M 27.12 12.71 L 27.58 13.93 C 27.18 13.77 26.38 13.47 25.98 13.32 C 25.46 13.69 24.42 14.45 23.90 14.83 C 23.29 15.03 22.08 15.44 21.47 15.65 L 21.29 16.66 C 20.79 16.57 19.80 16.38 19.31 16.29 L 19.85 17.82 L 18.82 17.15 C 16.76 19.52 14.51 21.77 12.14 23.83 L 12.84 24.87 L 11.29 24.29 C 11.38 24.79 11.56 25.79 11.66 26.29 L 10.65 26.47 C 10.44 27.07 10.03 28.28 9.83 28.88 C 9.45 29.40 8.71 30.44 8.34 30.97 C 8.46 31.38 8.69 32.19 8.81 32.60 L 7.58 32.15 C 7.54 33.66 7.50 35.17 7.45 36.69 L 6.53 36.18 C 6.69 58.73 6.68 81.28 6.53 103.82 L 7.45 103.30 C 7.50 104.82 7.54 106.33 7.57 107.85 L 8.83 107.41 C 8.69 107.81 8.43 108.63 8.29 109.03 C 9.46 110.26 10.22 111.85 10.54 113.51 L 11.67 113.74 C 11.57 114.23 11.37 115.20 11.26 115.69 L 12.80 115.13 L 12.15 116.18 C 14.52 118.21 16.71 120.49 18.81 122.80 L 19.86 122.25 L 19.31 123.73 C 19.80 123.63 20.78 123.43 21.27 123.33 L 21.46 124.38 C 22.64 124.76 23.79 125.22 24.91 125.76 C 28.62 127.56 32.87 128.60 37.04 128.39 C 52.42 128.35 67.80 128.39 83.19 128.37 C 86.46 128.53 89.38 126.75 92.58 126.39 L 92.70 125.75 C 94.00 125.33 95.25 124.81 96.55 124.38 L 96.71 123.35 C 97.21 123.44 98.21 123.62 98.71 123.71 L 98.14 122.17 L 99.16 122.84 C 101.25 120.49 103.49 118.24 105.85 116.17 L 105.18 115.11 L 106.72 115.72 C 106.63 115.22 106.44 114.23 106.34 113.73 L 107.49 113.50 C 107.75 111.83 108.54 110.26 109.70 109.03 C 109.55 108.57 109.26 107.65 109.11 107.19 L 110.21 108.09 C 110.37 106.46 110.54 104.80 111.28 103.30 C 111.57 80.93 111.17 58.55 111.48 36.19 L 110.55 36.68 C 110.50 35.17 110.45 33.66 110.42 32.15 L 109.15 32.58 C 109.29 32.16 109.57 31.32 109.71 30.90 C 108.36 29.79 107.77 28.10 107.39 26.45 L 106.34 26.28 C 106.43 25.78 106.63 24.79 106.73 24.30 L 105.19 24.87 L 105.84 23.81 C 103.46 21.78 101.28 19.49 99.16 17.18 L 98.13 17.79 L 98.71 16.27 C 98.21 16.37 97.22 16.57 96.72 16.67 L 96.54 15.63 C 95.36 15.25 94.21 14.79 93.10 14.24 C 89.69 12.61 85.83 11.52 82.01 11.61 C 66.32 11.64 50.63 11.63 34.93 11.61 C 32.28 11.63 29.79 12.71 27.12 12.71 Z" />
<path fill="#eff4f4" opacity="1.00" d=" M 57.18 27.05 C 57.97 27.04 59.55 27.01 60.35 26.99 C 60.33 34.31 60.34 41.63 60.34 48.95 C 59.54 48.93 57.95 48.89 57.15 48.87 C 57.24 41.60 57.20 34.32 57.18 27.05 Z" />
<path fill="#eff4f4" opacity="1.00" d=" M 33.16 58.82 C 31.89 49.29 36.86 39.78 44.75 34.54 C 45.56 35.32 46.35 36.11 47.15 36.90 C 42.57 39.70 38.83 43.97 37.25 49.15 C 34.28 57.68 37.41 67.86 44.64 73.27 C 51.61 78.82 62.03 79.38 69.53 74.55 C 76.45 70.37 80.55 62.10 79.77 54.06 C 79.23 46.98 74.95 40.48 68.85 36.90 C 69.64 36.11 70.44 35.33 71.25 34.54 C 76.02 37.95 80.08 42.60 81.83 48.29 C 84.36 56.31 82.71 65.60 77.17 72.00 C 71.73 78.72 62.65 82.09 54.13 80.69 C 43.29 79.20 34.22 69.70 33.16 58.82 Z" />
</g>
</svg>
