<?xml version="1.0" encoding="UTF-8" ?>
<!DOCTYPE svg PUBLIC "-//W3C//DTD SVG 1.1//EN" "http://www.w3.org/Graphics/SVG/1.1/DTD/svg11.dtd">
<svg width="117px" height="140px" viewBox="0 0 117 140" version="1.1" xmlns="http://www.w3.org/2000/svg">
<g id="#000000ff">
<path fill="#000000" opacity="1.00" d=" M 0.00 0.00 L 117.00 0.00 L 117.00 140.00 L 0.00 140.00 L 0.00 0.00 M 55.52 32.60 C 54.39 33.67 53.22 34.70 52.04 35.71 L 51.54 35.48 L 51.41 36.54 C 50.98 36.66 50.11 36.91 49.68 37.03 L 49.87 37.65 C 49.01 38.57 46.11 39.24 47.78 40.94 C 48.33 41.30 49.43 42.03 49.97 42.39 C 50.63 41.12 51.33 39.88 52.03 38.64 L 52.44 38.79 C 53.96 37.42 55.53 36.11 57.14 34.84 L 57.30 34.21 L 57.94 34.18 C 58.55 33.53 59.17 32.88 59.78 32.23 C 60.59 33.14 61.40 34.05 62.21 34.96 L 63.14 34.36 L 62.62 35.96 L 63.84 35.09 L 63.55 35.72 C 65.91 37.60 68.01 39.77 70.05 41.99 C 71.15 41.55 72.12 40.88 72.96 39.98 C 71.51 38.94 69.89 38.06 68.72 36.68 C 68.28 34.20 68.59 31.66 68.48 29.15 C 67.14 29.10 65.80 29.06 64.46 29.04 C 64.43 30.08 64.37 32.17 64.34 33.21 C 62.85 31.76 61.55 30.12 59.93 28.82 C 58.17 29.67 56.98 31.35 55.52 32.60 M 54.12 38.70 L 54.17 38.83 C 52.99 39.86 51.33 40.54 50.67 42.06 C 50.35 44.48 50.53 46.93 50.52 49.36 C 52.92 49.39 55.32 49.39 57.73 49.37 C 57.89 47.41 58.05 45.46 58.20 43.51 C 59.34 43.56 60.48 43.61 61.61 43.66 C 61.62 45.56 61.62 47.47 61.63 49.37 C 63.89 49.39 66.16 49.39 68.43 49.36 C 68.52 46.86 68.52 44.36 68.53 41.86 C 67.58 40.92 66.62 39.99 65.67 39.05 L 65.34 39.09 C 63.62 37.34 61.84 35.64 59.87 34.17 C 57.75 35.38 55.98 37.13 54.12 38.70 M 40.53 47.38 C 39.04 48.63 37.54 49.87 36.04 51.09 C 35.34 51.69 34.63 52.29 33.93 52.88 C 34.17 53.16 34.64 53.72 34.87 54.00 C 35.61 54.55 36.35 55.10 37.09 55.65 C 37.33 55.91 37.81 56.44 38.04 56.71 C 38.63 57.08 39.80 57.84 40.39 58.22 L 40.33 58.61 C 41.26 59.34 42.19 60.08 43.11 60.82 C 43.52 61.13 44.32 61.75 44.73 62.06 C 43.85 59.46 42.90 56.87 42.25 54.20 C 45.42 53.07 48.73 53.99 51.98 53.83 C 55.99 53.46 60.01 54.08 64.02 53.68 C 68.27 54.31 72.59 52.95 76.76 54.17 C 76.09 56.85 75.12 59.45 74.30 62.08 C 75.36 61.23 76.42 60.37 77.47 59.50 C 78.59 58.55 79.70 57.59 80.81 56.63 C 81.11 56.42 81.70 55.98 81.99 55.76 C 83.02 54.83 84.06 53.93 85.08 53.00 C 84.03 52.01 82.95 51.05 81.84 50.12 C 81.56 49.90 80.99 49.47 80.71 49.26 C 79.96 48.62 79.20 47.98 78.45 47.34 C 77.10 46.19 75.74 45.06 74.33 43.98 C 75.14 46.67 76.06 49.32 76.89 52.01 C 69.63 52.69 62.30 51.90 55.01 52.32 C 50.70 51.85 46.39 52.74 42.11 51.99 C 42.95 49.30 43.86 46.63 44.66 43.93 C 43.25 45.05 41.88 46.20 40.53 47.38 M 48.96 56.79 C 49.77 57.91 50.56 59.06 51.32 60.22 L 51.33 60.23 C 52.82 62.21 54.39 64.14 55.86 66.15 C 58.26 68.74 56.86 72.50 57.33 75.65 C 58.14 75.59 59.75 75.48 60.56 75.42 C 61.66 72.91 60.72 70.07 61.44 67.51 C 62.34 66.06 63.40 64.72 64.44 63.38 C 66.04 61.36 67.56 59.29 69.18 57.28 C 68.09 57.25 65.91 57.17 64.81 57.13 C 63.89 58.43 62.96 59.74 62.02 61.03 C 61.06 62.40 60.10 63.77 59.12 65.13 C 57.28 62.44 55.48 59.73 53.40 57.21 C 51.92 57.08 50.44 56.91 48.96 56.79 Z" />
</g>
<g id="#f8fcf8ff">
<path fill="#f8fcf8" opacity="1.00" d=" M 55.52 32.60 C 56.98 31.35 58.17 29.67 59.93 28.82 C 61.55 30.12 62.85 31.76 64.34 33.21 C 64.37 32.17 64.43 30.08 64.46 29.04 C 65.80 29.06 67.14 29.10 68.48 29.15 C 68.59 31.66 68.28 34.20 68.72 36.68 C 69.89 38.06 71.51 38.94 72.96 39.98 C 72.12 40.88 71.15 41.55 70.05 41.99 C 68.01 39.77 65.91 37.60 63.55 35.72 L 63.84 35.09 L 62.62 35.96 L 63.14 34.36 L 62.21 34.96 C 61.40 34.05 60.59 33.14 59.78 32.23 C 59.17 32.88 58.55 33.53 57.94 34.18 L 57.30 34.21 L 57.14 34.84 C 55.53 36.11 53.96 37.42 52.44 38.79 L 52.03 38.64 C 51.33 39.88 50.63 41.12 49.97 42.39 C 49.43 42.03 48.33 41.30 47.78 40.94 C 46.11 39.24 49.01 38.57 49.87 37.65 L 49.68 37.03 C 50.11 36.91 50.98 36.66 51.41 36.54 L 51.54 35.48 L 52.04 35.71 C 53.22 34.70 54.39 33.67 55.52 32.60 Z" />
<path fill="#f8fcf8" opacity="1.00" d=" M 54.12 38.70 C 55.98 37.13 57.75 35.38 59.87 34.17 C 61.84 35.64 63.62 37.34 65.34 39.09 L 65.67 39.05 C 66.62 39.99 67.58 40.92 68.53 41.86 C 68.52 44.36 68.52 46.86 68.43 49.36 C 66.16 49.39 63.89 49.39 61.63 49.37 C 61.62 47.47 61.62 45.56 61.61 43.66 C 60.48 43.61 59.34 43.56 58.20 43.51 C 58.05 45.46 57.89 47.41 57.73 49.37 C 55.32 49.39 52.92 49.39 50.52 49.36 C 50.53 46.93 50.35 44.48 50.67 42.06 C 51.33 40.54 52.99 39.86 54.17 38.83 L 54.12 38.70 Z" />
<path fill="#f8fcf8" opacity="1.00" d=" M 40.53 47.38 C 41.88 46.20 43.25 45.05 44.66 43.93 C 43.86 46.63 42.95 49.30 42.11 51.99 C 46.39 52.74 50.70 51.85 55.01 52.32 C 62.30 51.90 69.63 52.69 76.89 52.01 C 76.06 49.32 75.14 46.67 74.33 43.98 C 75.74 45.06 77.10 46.19 78.45 47.34 C 79.20 47.98 79.96 48.62 80.71 49.26 C 80.99 49.47 81.56 49.90 81.84 50.12 C 82.95 51.05 84.03 52.01 85.08 53.00 C 84.06 53.93 83.02 54.83 81.99 55.76 C 81.70 55.98 81.11 56.42 80.81 56.63 C 79.70 57.59 78.59 58.55 77.47 59.50 C 76.42 60.37 75.36 61.23 74.30 62.08 C 75.12 59.45 76.09 56.85 76.76 54.17 C 72.59 52.95 68.27 54.31 64.02 53.68 C 60.01 54.08 55.99 53.46 51.98 53.83 C 48.73 53.99 45.42 53.07 42.25 54.20 C 42.90 56.87 43.85 59.46 44.73 62.06 C 44.32 61.75 43.52 61.13 43.11 60.82 C 42.19 60.08 41.26 59.34 40.33 58.61 L 40.39 58.22 C 39.80 57.84 38.63 57.08 38.04 56.71 C 37.81 56.44 37.33 55.91 37.09 55.65 C 36.35 55.10 35.61 54.55 34.87 54.00 C 34.64 53.72 34.17 53.16 33.93 52.88 C 34.63 52.29 35.34 51.69 36.04 51.09 C 37.54 49.87 39.04 48.63 40.53 47.38 Z" />
<path fill="#f8fcf8" opacity="1.00" d=" M 48.96 56.79 C 50.44 56.91 51.92 57.08 53.40 57.21 C 55.48 59.73 57.28 62.44 59.12 65.13 C 60.10 63.77 61.06 62.40 62.02 61.03 C 62.96 59.74 63.89 58.43 64.81 57.13 C 65.91 57.17 68.09 57.25 69.18 57.28 C 67.56 59.29 66.04 61.36 64.44 63.38 C 63.40 64.72 62.34 66.06 61.44 67.51 C 60.72 70.07 61.66 72.91 60.56 75.42 C 59.75 75.48 58.14 75.59 57.33 75.65 C 56.86 72.50 58.26 68.74 55.86 66.15 C 54.39 64.14 52.82 62.21 51.33 60.23 L 51.32 60.22 C 50.56 59.06 49.77 57.91 48.96 56.79 Z" />
</g>
</svg>
