<?xml version="1.0" encoding="UTF-8" ?>
<!DOCTYPE svg PUBLIC "-//W3C//DTD SVG 1.1//EN" "http://www.w3.org/Graphics/SVG/1.1/DTD/svg11.dtd">
<svg width="117px" height="140px" viewBox="0 0 117 140" version="1.1" xmlns="http://www.w3.org/2000/svg">
<g id="#000000ff">
<path fill="#000000" opacity="1.00" d=" M 0.00 0.00 L 117.00 0.00 L 117.00 140.00 L 0.00 140.00 L 0.00 0.00 M 33.16 10.22 C 17.92 11.79 5.20 25.62 5.02 40.96 C 5.02 60.66 4.93 80.37 5.06 100.08 C 5.75 116.01 19.99 129.82 35.95 129.98 C 51.65 129.98 67.36 130.09 83.06 129.93 C 98.65 129.27 112.29 115.62 112.94 100.03 C 113.09 80.69 112.95 61.33 113.01 41.99 C 113.06 33.38 109.38 24.84 103.14 18.92 C 97.05 12.98 88.50 9.75 80.02 9.98 C 64.40 10.17 48.77 9.69 33.16 10.22 Z" />
<path fill="#000000" opacity="1.00" d=" M 33.19 12.35 C 44.78 11.72 56.40 12.24 68.00 12.07 C 76.67 12.32 85.93 10.89 93.95 15.05 C 104.13 19.79 111.03 30.71 110.90 41.94 C 110.95 60.66 110.95 79.37 110.90 98.09 C 110.99 108.77 104.78 119.24 95.33 124.23 C 90.40 127.06 84.65 128.05 79.02 127.94 C 64.30 127.84 49.58 128.09 34.86 127.82 C 20.09 127.11 7.30 113.91 7.13 99.11 C 7.03 79.72 7.03 60.33 7.13 40.94 C 7.31 26.74 19.06 13.85 33.19 12.35 M 35.48 42.52 C 31.10 50.85 31.54 61.48 36.51 69.46 C 37.30 70.56 38.02 72.26 39.68 71.77 C 41.21 69.93 38.94 68.22 38.30 66.50 C 32.30 56.01 36.00 41.44 46.00 34.80 C 52.83 30.13 62.03 29.01 69.64 32.46 C 79.88 36.48 86.14 48.19 84.25 58.94 C 83.61 63.03 81.76 66.81 79.51 70.24 C 79.88 70.74 80.63 71.76 81.00 72.27 C 85.89 67.67 87.60 60.52 87.47 54.01 C 87.32 40.75 76.09 28.77 62.90 27.66 C 51.82 26.26 40.45 32.59 35.48 42.52 M 57.86 57.19 C 56.22 59.38 60.23 62.29 61.67 59.93 C 63.88 55.57 65.04 50.73 67.00 46.24 C 64.03 49.95 60.83 53.48 57.86 57.19 Z" />
</g>
<g id="#717271ff">
<path fill="#717271" opacity="1.00" d=" M 33.16 10.22 C 48.77 9.69 64.40 10.17 80.02 9.98 C 88.50 9.75 97.05 12.98 103.14 18.92 C 109.38 24.84 113.06 33.38 113.01 41.99 C 112.95 61.33 113.09 80.69 112.94 100.03 C 112.29 115.62 98.65 129.27 83.06 129.93 C 67.36 130.09 51.65 129.98 35.95 129.98 C 19.99 129.82 5.75 116.01 5.06 100.08 C 4.93 80.37 5.02 60.66 5.02 40.96 C 5.20 25.62 17.92 11.79 33.16 10.22 M 33.19 12.35 C 19.06 13.85 7.31 26.74 7.13 40.94 C 7.03 60.33 7.03 79.72 7.13 99.11 C 7.30 113.91 20.09 127.11 34.86 127.82 C 49.58 128.09 64.30 127.84 79.02 127.94 C 84.65 128.05 90.40 127.06 95.33 124.23 C 104.78 119.24 110.99 108.77 110.90 98.09 C 110.95 79.37 110.95 60.66 110.90 41.94 C 111.03 30.71 104.13 19.79 93.95 15.05 C 85.93 10.89 76.67 12.32 68.00 12.07 C 56.40 12.24 44.78 11.72 33.19 12.35 Z" />
</g>
<g id="#f7fbf7ff">
<path fill="#f7fbf7" opacity="1.00" d=" M 35.48 42.52 C 40.45 32.59 51.82 26.26 62.90 27.66 C 76.09 28.77 87.32 40.75 87.47 54.01 C 87.60 60.52 85.89 67.67 81.00 72.27 C 80.63 71.76 79.88 70.74 79.51 70.24 C 81.76 66.81 83.61 63.03 84.25 58.94 C 86.14 48.19 79.88 36.48 69.64 32.46 C 62.03 29.01 52.83 30.13 46.00 34.80 C 36.00 41.44 32.30 56.01 38.30 66.50 C 38.94 68.22 41.21 69.93 39.68 71.77 C 38.02 72.26 37.30 70.56 36.51 69.46 C 31.54 61.48 31.10 50.85 35.48 42.52 Z" />
<path fill="#f7fbf7" opacity="1.00" d=" M 57.86 57.19 C 60.83 53.48 64.03 49.95 67.00 46.24 C 65.04 50.73 63.88 55.57 61.67 59.93 C 60.23 62.29 56.22 59.38 57.86 57.19 Z" />
</g>
</svg>
