<?xml version="1.0" encoding="UTF-8" ?>
<!DOCTYPE svg PUBLIC "-//W3C//DTD SVG 1.1//EN" "http://www.w3.org/Graphics/SVG/1.1/DTD/svg11.dtd">
<svg width="117px" height="140px" viewBox="0 0 117 140" version="1.1" xmlns="http://www.w3.org/2000/svg">
<g id="#000000ff">
<path fill="#000000" opacity="1.00" d=" M 0.00 0.00 L 117.00 0.00 L 117.00 140.00 L 0.00 140.00 L 0.00 0.00 M 53.87 46.86 C 53.49 46.54 52.72 45.89 52.34 45.56 C 51.55 45.59 49.96 45.63 49.17 45.65 C 44.01 50.06 43.01 57.09 40.69 63.10 C 39.66 67.55 36.12 72.56 39.15 76.96 C 40.68 79.82 44.22 79.96 47.07 79.66 C 53.26 77.48 59.67 75.84 65.66 73.14 C 68.78 71.08 73.86 68.06 71.46 63.70 C 76.94 62.63 81.16 58.93 84.91 55.04 C 77.60 47.26 69.81 39.95 62.37 32.29 C 58.00 36.10 55.21 41.26 53.87 46.86 Z" />
<path fill="#000000" opacity="1.00" d=" M 55.15 52.33 C 57.17 46.91 57.98 40.60 62.40 36.48 C 68.44 42.90 74.88 48.94 80.99 55.29 C 79.09 56.95 77.31 59.09 74.71 59.60 C 73.05 59.99 71.44 60.57 69.97 61.45 C 68.74 61.59 67.51 61.73 66.27 61.86 C 66.21 62.24 66.09 63.00 66.03 63.38 C 67.11 64.38 68.18 65.38 69.26 66.37 C 69.01 66.80 68.50 67.66 68.25 68.09 C 65.80 70.96 62.01 71.16 58.86 72.75 C 54.22 74.25 49.54 75.59 45.00 77.37 C 43.56 76.70 41.95 76.11 41.09 74.67 C 40.33 70.95 42.74 67.67 43.46 64.15 C 45.68 58.73 46.32 52.27 50.84 48.11 C 52.26 49.53 53.70 50.94 55.15 52.33 Z" />
</g>
<g id="#f7fbf7ff">
<path fill="#f7fbf7" opacity="1.00" d=" M 53.87 46.86 C 55.21 41.26 58.00 36.10 62.37 32.29 C 69.81 39.95 77.60 47.26 84.91 55.04 C 81.16 58.93 76.94 62.63 71.46 63.70 C 73.86 68.06 68.78 71.08 65.66 73.14 C 59.67 75.84 53.26 77.48 47.07 79.66 C 44.22 79.96 40.68 79.82 39.15 76.96 C 36.12 72.56 39.66 67.55 40.69 63.10 C 43.01 57.09 44.01 50.06 49.17 45.65 C 49.96 45.63 51.55 45.59 52.34 45.56 C 52.72 45.89 53.49 46.54 53.87 46.86 M 55.15 52.33 C 53.70 50.94 52.26 49.53 50.84 48.11 C 46.32 52.27 45.68 58.73 43.46 64.15 C 42.74 67.67 40.33 70.95 41.09 74.67 C 41.95 76.11 43.56 76.70 45.00 77.37 C 49.54 75.59 54.22 74.25 58.86 72.75 C 62.01 71.16 65.80 70.96 68.25 68.09 C 68.50 67.66 69.01 66.80 69.26 66.37 C 68.18 65.38 67.11 64.38 66.03 63.38 C 66.09 63.00 66.21 62.24 66.27 61.86 C 67.51 61.73 68.74 61.59 69.97 61.45 C 71.44 60.57 73.05 59.99 74.71 59.60 C 77.31 59.09 79.09 56.95 80.99 55.29 C 74.88 48.94 68.44 42.90 62.40 36.48 C 57.98 40.60 57.17 46.91 55.15 52.33 Z" />
</g>
</svg>
