<?xml version="1.0" encoding="UTF-8" ?>
<!DOCTYPE svg PUBLIC "-//W3C//DTD SVG 1.1//EN" "http://www.w3.org/Graphics/SVG/1.1/DTD/svg11.dtd">
<svg width="117px" height="140px" viewBox="0 0 117 140" version="1.1" xmlns="http://www.w3.org/2000/svg">
<g id="#000000ff">
<path fill="#000000" opacity="1.00" d=" M 0.00 0.00 L 117.00 0.00 L 117.00 140.00 L 0.00 140.00 L 0.00 0.00 M 33.22 10.21 C 17.95 11.76 5.19 25.60 5.02 40.96 C 4.99 60.32 4.99 79.68 5.02 99.04 C 5.17 115.02 19.03 129.30 35.00 129.93 C 50.68 130.07 66.37 129.99 82.05 129.97 C 95.31 129.77 107.62 120.30 111.53 107.68 C 112.77 103.91 113.10 99.93 113.02 95.98 C 112.98 77.98 113.01 59.99 113.00 41.99 C 113.07 33.38 109.38 24.84 103.13 18.92 C 97.04 12.97 88.48 9.75 79.99 9.98 C 64.40 10.17 48.79 9.70 33.22 10.21 Z" />
<path fill="#000000" opacity="1.00" d=" M 30.54 12.69 C 33.65 11.98 36.86 11.97 40.03 11.99 C 54.38 12.07 68.74 11.88 83.08 12.08 C 97.93 12.77 110.84 26.07 110.96 40.96 C 111.02 60.32 111.03 79.70 110.96 99.06 C 110.85 114.32 97.25 127.86 82.00 127.95 C 66.65 128.04 51.29 128.01 35.95 127.97 C 20.69 127.82 7.13 114.27 7.03 99.00 C 6.98 79.65 6.98 60.29 7.03 40.94 C 7.23 27.61 17.52 15.38 30.54 12.69 M 38.49 41.65 C 36.14 43.60 33.61 45.32 31.32 47.34 C 29.01 49.08 29.02 52.95 31.33 54.68 C 33.66 56.71 36.20 58.46 38.58 60.41 C 40.67 62.36 43.55 61.05 46.00 60.88 C 46.00 58.25 46.00 55.63 46.00 53.00 C 48.00 53.00 50.00 53.00 52.00 53.00 C 52.00 52.25 52.00 50.75 52.00 50.00 C 50.00 50.00 48.00 50.00 46.00 50.00 C 46.00 47.04 45.99 44.08 46.00 41.12 C 43.52 40.93 40.58 39.61 38.49 41.65 M 70.99 41.10 C 71.01 44.07 70.99 47.03 71.00 50.00 C 68.67 50.00 66.33 50.00 64.00 50.00 C 64.00 50.75 64.00 52.25 64.00 53.00 C 66.33 53.00 68.67 53.00 71.00 53.00 C 70.99 55.63 71.01 58.25 70.99 60.88 C 76.15 63.30 79.74 58.17 83.55 55.65 C 86.03 54.17 87.41 50.83 85.61 48.29 C 83.17 45.72 80.10 43.87 77.41 41.58 C 75.64 39.82 73.09 40.65 70.99 41.10 M 53.00 50.00 C 53.00 50.75 53.00 52.25 53.00 53.00 C 53.75 53.00 55.25 53.00 56.00 53.00 C 56.00 52.25 56.00 50.75 56.00 50.00 C 55.25 50.00 53.75 50.00 53.00 50.00 M 57.00 50.00 C 57.00 50.75 57.00 52.25 57.00 53.00 C 59.00 53.00 61.00 53.00 63.00 53.00 C 63.00 52.25 63.00 50.75 63.00 50.00 C 61.00 50.00 59.00 50.00 57.00 50.00 Z" />
<path fill="#000000" opacity="1.00" d=" M 33.01 51.00 C 36.00 48.67 39.01 46.35 42.00 44.01 C 41.99 48.66 42.01 53.31 41.98 57.97 C 38.99 55.64 36.00 53.33 33.01 51.00 Z" />
<path fill="#000000" opacity="1.00" d=" M 75.00 44.81 C 77.67 46.86 80.33 48.93 82.99 51.00 C 80.33 53.07 77.67 55.13 75.00 57.19 C 75.00 53.06 75.00 48.94 75.00 44.81 Z" />
</g>
<g id="#717271ff">
<path fill="#717271" opacity="1.00" d=" M 33.22 10.21 C 48.79 9.70 64.40 10.17 79.99 9.98 C 88.48 9.75 97.04 12.97 103.13 18.92 C 109.38 24.84 113.07 33.38 113.00 41.99 C 113.01 59.99 112.98 77.98 113.02 95.98 C 113.10 99.93 112.77 103.91 111.53 107.68 C 107.62 120.30 95.31 129.77 82.05 129.97 C 66.37 129.99 50.68 130.07 35.00 129.93 C 19.03 129.30 5.17 115.02 5.02 99.04 C 4.99 79.68 4.99 60.32 5.02 40.96 C 5.19 25.60 17.95 11.76 33.22 10.21 M 30.54 12.69 C 17.52 15.38 7.23 27.61 7.03 40.94 C 6.98 60.29 6.98 79.65 7.03 99.00 C 7.13 114.27 20.69 127.82 35.95 127.97 C 51.29 128.01 66.65 128.04 82.00 127.95 C 97.25 127.86 110.85 114.32 110.96 99.06 C 111.03 79.70 111.02 60.32 110.96 40.96 C 110.84 26.07 97.93 12.77 83.08 12.08 C 68.74 11.88 54.38 12.07 40.03 11.99 C 36.86 11.97 33.65 11.98 30.54 12.69 Z" />
</g>
<g id="#f8fcf8ff">
<path fill="#f8fcf8" opacity="1.00" d=" M 38.49 41.65 C 40.58 39.61 43.52 40.93 46.00 41.12 C 45.99 44.08 46.00 47.04 46.00 50.00 C 48.00 50.00 50.00 50.00 52.00 50.00 C 52.00 50.75 52.00 52.25 52.00 53.00 C 50.00 53.00 48.00 53.00 46.00 53.00 C 46.00 55.63 46.00 58.25 46.00 60.88 C 43.55 61.05 40.67 62.36 38.58 60.41 C 36.20 58.46 33.66 56.71 31.33 54.68 C 29.02 52.95 29.01 49.08 31.32 47.34 C 33.61 45.32 36.14 43.60 38.49 41.65 M 33.01 51.00 C 36.00 53.33 38.99 55.64 41.98 57.97 C 42.01 53.31 41.99 48.66 42.00 44.01 C 39.01 46.35 36.00 48.67 33.01 51.00 Z" />
<path fill="#f8fcf8" opacity="1.00" d=" M 70.99 41.10 C 73.09 40.65 75.64 39.82 77.41 41.58 C 80.10 43.87 83.17 45.72 85.61 48.29 C 87.41 50.83 86.03 54.17 83.55 55.65 C 79.74 58.17 76.15 63.30 70.99 60.88 C 71.01 58.25 70.99 55.63 71.00 53.00 C 68.67 53.00 66.33 53.00 64.00 53.00 C 64.00 52.25 64.00 50.75 64.00 50.00 C 66.33 50.00 68.67 50.00 71.00 50.00 C 70.99 47.03 71.01 44.07 70.99 41.10 M 75.00 44.81 C 75.00 48.94 75.00 53.06 75.00 57.19 C 77.67 55.13 80.33 53.07 82.99 51.00 C 80.33 48.93 77.67 46.86 75.00 44.81 Z" />
<path fill="#f8fcf8" opacity="1.00" d=" M 53.00 50.00 C 53.75 50.00 55.25 50.00 56.00 50.00 C 56.00 50.75 56.00 52.25 56.00 53.00 C 55.25 53.00 53.75 53.00 53.00 53.00 C 53.00 52.25 53.00 50.75 53.00 50.00 Z" />
<path fill="#f8fcf8" opacity="1.00" d=" M 57.00 50.00 C 59.00 50.00 61.00 50.00 63.00 50.00 C 63.00 50.75 63.00 52.25 63.00 53.00 C 61.00 53.00 59.00 53.00 57.00 53.00 C 57.00 52.25 57.00 50.75 57.00 50.00 Z" />
</g>
</svg>
