<?xml version="1.0" encoding="UTF-8" ?>
<!DOCTYPE svg PUBLIC "-//W3C//DTD SVG 1.1//EN" "http://www.w3.org/Graphics/SVG/1.1/DTD/svg11.dtd">
<svg width="117px" height="140px" viewBox="0 0 117 140" version="1.1" xmlns="http://www.w3.org/2000/svg">
<g id="#000000ff">
<path fill="#000000" opacity="1.00" d=" M 0.00 0.00 L 117.00 0.00 L 117.00 140.00 L 0.00 140.00 L 0.00 0.00 M 29.38 10.47 C 15.68 13.30 4.43 25.85 4.01 39.96 C 3.97 59.31 4.04 78.67 3.98 98.02 C 3.47 111.45 12.96 124.20 25.57 128.43 C 30.81 130.56 36.54 129.94 42.06 130.00 C 55.03 130.01 67.99 129.97 80.96 130.02 C 95.16 130.43 108.57 119.74 111.96 106.04 C 113.13 101.78 113.00 97.33 113.00 92.96 C 112.93 75.63 113.08 58.30 112.94 40.97 C 112.76 27.93 103.59 15.78 91.28 11.64 C 85.80 9.37 79.79 10.08 74.01 10.00 C 61.33 9.99 48.64 10.03 35.96 9.98 C 33.76 9.99 31.53 9.99 29.38 10.47 Z" />
<path fill="#000000" opacity="1.00" d=" M 35.06 12.21 C 45.70 11.82 56.37 12.16 67.02 12.05 C 75.91 12.16 85.43 11.11 93.57 15.49 C 103.47 20.30 109.79 31.03 109.94 41.94 C 110.07 60.31 109.99 78.67 109.98 97.04 C 110.07 107.57 104.62 118.19 95.39 123.51 C 89.94 126.97 83.36 127.93 77.01 127.97 C 64.34 127.94 51.68 127.94 39.02 127.96 C 32.44 127.97 25.70 126.56 20.22 122.77 C 12.08 117.42 6.94 107.78 7.07 98.03 C 7.06 79.01 7.00 59.98 7.10 40.95 C 7.18 26.01 20.17 12.82 35.06 12.21 M 37.25 28.23 C 37.20 32.30 37.06 36.37 37.31 40.44 C 40.46 44.35 38.30 49.74 37.21 54.02 C 37.28 63.19 36.80 72.41 37.52 81.55 C 41.52 82.59 45.89 81.76 50.03 82.01 C 59.67 81.65 69.31 82.27 78.96 81.92 C 79.02 71.30 79.04 60.67 78.97 50.04 C 77.93 44.81 79.52 39.58 78.99 34.31 C 76.95 32.23 74.89 30.17 72.78 28.16 C 60.95 28.54 49.09 28.36 37.25 28.23 Z" />
<path fill="#000000" opacity="1.00" d=" M 38.00 28.77 C 48.34 28.59 58.67 28.81 69.00 28.66 C 72.67 28.25 74.56 32.02 76.98 34.07 C 77.21 37.75 77.03 41.44 76.24 45.04 C 76.55 47.35 77.15 49.63 77.06 51.98 C 76.91 61.26 77.20 70.55 76.84 79.82 C 71.15 79.63 65.39 80.34 59.74 79.41 C 63.42 78.53 67.94 80.48 71.02 77.93 C 62.19 77.49 53.35 77.80 44.52 77.75 L 44.61 79.19 C 48.16 79.17 51.77 78.86 55.27 79.61 C 49.65 79.85 43.98 80.08 38.37 79.65 C 37.33 74.52 38.05 69.24 37.87 64.05 C 38.08 59.57 37.04 54.83 39.02 50.60 C 41.01 58.50 38.98 66.84 40.10 74.88 C 41.06 76.70 43.22 76.80 45.02 76.72 C 53.99 76.56 62.96 76.74 71.92 76.66 C 73.88 76.71 75.42 74.85 75.13 72.94 C 75.19 60.98 75.23 49.01 75.15 37.05 C 75.44 35.16 74.18 32.90 72.09 32.93 C 63.40 32.72 54.71 32.96 46.02 32.83 C 44.11 32.96 41.60 32.43 40.39 34.34 C 39.44 36.25 39.97 38.53 39.75 40.59 C 39.27 40.22 38.33 39.48 37.85 39.12 C 37.84 35.67 37.88 32.22 38.00 28.77 Z" />
<path fill="#000000" opacity="1.00" d=" M 43.14 34.38 C 52.47 34.13 61.82 34.26 71.16 34.31 C 74.10 34.14 74.25 37.84 74.18 39.95 C 73.96 50.66 74.29 61.39 74.05 72.10 C 74.20 74.33 72.01 75.62 70.00 75.39 C 61.32 75.39 52.62 75.55 43.94 75.31 C 41.11 75.37 40.67 72.20 40.83 70.05 C 41.01 59.69 40.62 49.34 40.81 38.99 C 40.82 37.31 41.07 34.66 43.14 34.38 M 43.18 37.94 C 43.33 48.32 42.98 58.71 43.30 69.09 C 43.13 70.51 43.91 71.66 44.75 72.70 C 53.25 72.51 61.76 72.51 70.26 72.71 C 72.04 70.91 71.77 68.28 71.86 65.95 C 71.85 56.61 71.67 47.27 71.82 37.93 C 67.17 35.79 61.91 37.14 56.97 36.79 C 52.39 37.10 47.47 35.83 43.18 37.94 Z" />
<path fill="#000000" opacity="1.00" d=" M 44.08 43.86 C 44.39 41.94 43.24 38.45 45.90 37.96 C 53.61 37.76 61.35 37.74 69.05 37.96 C 71.80 38.54 70.78 41.92 71.12 43.93 C 69.45 44.07 67.78 44.20 66.10 44.33 C 66.68 42.73 67.27 41.14 67.82 39.53 C 65.98 39.53 64.05 39.32 62.35 40.16 C 63.25 40.69 65.07 41.73 65.97 42.25 C 63.74 44.16 60.74 43.79 58.04 43.78 C 53.39 43.55 48.73 43.61 44.08 43.86 M 54.07 39.88 C 54.34 40.60 54.88 42.04 55.15 42.76 C 56.84 43.70 59.04 42.95 60.92 43.15 C 60.56 42.07 60.20 40.99 59.84 39.92 C 58.83 40.44 57.82 40.97 56.82 41.50 C 56.70 40.96 56.48 39.89 56.37 39.35 C 55.79 39.49 54.65 39.75 54.07 39.88 M 44.68 40.01 C 45.96 42.67 48.66 43.73 51.45 42.79 C 52.42 42.74 53.90 43.44 54.08 42.00 C 53.92 41.79 53.61 41.36 53.46 41.15 C 50.44 41.55 47.41 41.51 44.68 40.01 Z" />
<path fill="#000000" opacity="1.00" d=" M 44.15 45.77 C 53.11 45.20 62.14 45.67 71.13 45.64 C 71.14 47.81 71.16 49.97 71.20 52.13 C 69.52 52.72 67.83 53.84 65.97 53.40 C 60.49 52.34 56.55 47.55 50.98 46.80 C 48.44 46.37 45.99 47.44 43.55 47.97 C 43.70 47.42 44.00 46.32 44.15 45.77 Z" />
<path fill="#000000" opacity="1.00" d=" M 43.81 49.84 C 47.40 46.73 52.08 47.75 56.07 49.40 C 56.11 50.52 56.16 51.65 56.20 52.77 C 55.33 52.67 53.59 52.46 52.72 52.36 C 52.22 52.79 51.22 53.66 50.72 54.10 C 50.55 53.27 50.22 51.62 50.05 50.80 C 49.82 52.00 49.55 53.20 49.41 54.42 C 52.43 54.25 55.45 54.21 58.48 54.31 C 58.66 53.36 58.84 52.42 59.01 51.47 C 62.43 54.21 66.92 55.36 71.15 53.98 C 71.01 59.87 71.78 65.84 70.47 71.65 C 61.83 71.60 53.19 71.57 44.55 71.67 C 43.28 64.46 44.05 57.11 43.81 49.84 M 46.16 51.05 C 45.62 52.66 46.17 53.22 47.81 52.73 C 48.35 51.11 47.81 50.55 46.16 51.05 M 48.05 62.76 C 49.44 63.57 50.91 64.22 52.37 64.92 C 50.49 64.89 48.62 64.84 46.75 64.78 C 46.44 65.40 45.83 66.62 45.53 67.23 C 48.36 67.24 51.20 67.43 54.02 67.11 C 55.40 66.90 56.33 65.58 56.04 64.21 C 54.37 63.13 52.51 62.43 50.76 61.52 C 53.13 61.36 55.51 61.38 57.87 61.08 C 58.19 59.00 55.26 60.05 54.08 59.70 C 51.93 59.78 47.88 59.68 48.05 62.76 M 59.46 60.24 C 59.64 61.57 60.36 61.82 61.63 60.97 C 61.45 59.64 60.73 59.39 59.46 60.24 M 61.85 62.77 C 60.92 64.31 58.94 64.08 57.43 64.54 C 57.19 65.23 56.71 66.62 56.46 67.32 C 60.56 67.10 66.66 67.74 68.54 63.11 C 67.69 60.32 63.16 60.48 61.85 62.77 M 67.92 66.14 C 66.52 69.14 71.30 66.10 67.92 66.14 Z" />
</g>
<g id="#708cc8ff">
<path fill="#708cc8" opacity="1.00" d=" M 29.38 10.47 C 31.53 9.99 33.76 9.99 35.96 9.98 C 48.64 10.03 61.33 9.99 74.01 10.00 C 79.79 10.08 85.80 9.37 91.28 11.64 C 103.59 15.78 112.76 27.93 112.94 40.97 C 113.08 58.30 112.93 75.63 113.00 92.96 C 113.00 97.33 113.13 101.78 111.96 106.04 C 108.57 119.74 95.16 130.43 80.96 130.02 C 67.99 129.97 55.03 130.01 42.06 130.00 C 36.54 129.94 30.81 130.56 25.57 128.43 C 12.96 124.20 3.47 111.45 3.98 98.02 C 4.04 78.67 3.97 59.31 4.01 39.96 C 4.43 25.85 15.68 13.30 29.38 10.47 M 35.06 12.21 C 20.17 12.82 7.18 26.01 7.10 40.95 C 7.00 59.98 7.06 79.01 7.07 98.03 C 6.94 107.78 12.08 117.42 20.22 122.77 C 25.70 126.56 32.44 127.97 39.02 127.96 C 51.68 127.94 64.34 127.94 77.01 127.97 C 83.36 127.93 89.94 126.97 95.39 123.51 C 104.62 118.19 110.07 107.57 109.98 97.04 C 109.99 78.67 110.07 60.31 109.94 41.94 C 109.79 31.03 103.47 20.30 93.57 15.49 C 85.43 11.11 75.91 12.16 67.02 12.05 C 56.37 12.16 45.70 11.82 35.06 12.21 Z" />
</g>
<g id="#0fdf4bff">
<path fill="#0fdf4b" opacity="1.00" d=" M 37.25 28.23 C 49.09 28.36 60.95 28.54 72.78 28.16 C 74.89 30.17 76.95 32.23 78.99 34.31 C 79.52 39.58 77.93 44.81 78.97 50.04 C 79.04 60.67 79.02 71.30 78.96 81.92 C 69.31 82.27 59.67 81.65 50.03 82.01 C 45.89 81.76 41.52 82.59 37.52 81.55 C 36.80 72.41 37.28 63.19 37.21 54.02 C 38.30 49.74 40.46 44.35 37.31 40.44 C 37.06 36.37 37.20 32.30 37.25 28.23 M 38.00 28.77 C 37.88 32.22 37.84 35.67 37.85 39.12 C 38.33 39.48 39.27 40.22 39.75 40.59 C 39.97 38.53 39.44 36.25 40.39 34.34 C 41.60 32.43 44.11 32.96 46.02 32.83 C 54.71 32.96 63.40 32.72 72.09 32.93 C 74.18 32.90 75.44 35.16 75.15 37.05 C 75.23 49.01 75.19 60.98 75.13 72.94 C 75.42 74.85 73.88 76.71 71.92 76.66 C 62.96 76.74 53.99 76.56 45.02 76.72 C 43.22 76.80 41.06 76.70 40.10 74.88 C 38.98 66.84 41.01 58.50 39.02 50.60 C 37.04 54.83 38.08 59.57 37.87 64.05 C 38.05 69.24 37.33 74.52 38.37 79.65 C 43.98 80.08 49.65 79.85 55.27 79.61 C 51.77 78.86 48.16 79.17 44.61 79.19 L 44.52 77.75 C 53.35 77.80 62.19 77.49 71.02 77.93 C 67.94 80.48 63.42 78.53 59.74 79.41 C 65.39 80.34 71.15 79.63 76.84 79.82 C 77.20 70.55 76.91 61.26 77.06 51.98 C 77.15 49.63 76.55 47.35 76.24 45.04 C 77.03 41.44 77.21 37.75 76.98 34.07 C 74.56 32.02 72.67 28.25 69.00 28.66 C 58.67 28.81 48.34 28.59 38.00 28.77 M 43.14 34.38 C 41.07 34.66 40.82 37.31 40.81 38.99 C 40.62 49.34 41.01 59.69 40.83 70.05 C 40.67 72.20 41.11 75.37 43.94 75.31 C 52.62 75.55 61.32 75.39 70.00 75.39 C 72.01 75.62 74.20 74.33 74.05 72.10 C 74.29 61.39 73.96 50.66 74.18 39.95 C 74.25 37.84 74.10 34.14 71.16 34.31 C 61.82 34.26 52.47 34.13 43.14 34.38 Z" />
<path fill="#0fdf4b" opacity="1.00" d=" M 43.18 37.94 C 47.47 35.83 52.39 37.10 56.97 36.79 C 61.91 37.14 67.17 35.79 71.82 37.93 C 71.67 47.27 71.85 56.61 71.86 65.95 C 71.77 68.28 72.04 70.91 70.26 72.71 C 61.76 72.51 53.25 72.51 44.75 72.70 C 43.91 71.66 43.13 70.51 43.30 69.09 C 42.98 58.71 43.33 48.32 43.18 37.94 M 44.08 43.86 C 48.73 43.61 53.39 43.55 58.04 43.78 C 60.74 43.79 63.74 44.16 65.97 42.25 C 65.07 41.73 63.25 40.69 62.35 40.16 C 64.05 39.32 65.98 39.53 67.82 39.53 C 67.27 41.14 66.68 42.73 66.10 44.33 C 67.78 44.20 69.45 44.07 71.12 43.93 C 70.78 41.92 71.80 38.54 69.05 37.96 C 61.35 37.74 53.61 37.76 45.90 37.96 C 43.24 38.45 44.39 41.94 44.08 43.86 M 44.15 45.77 C 44.00 46.32 43.70 47.42 43.55 47.97 C 45.99 47.44 48.44 46.37 50.98 46.80 C 56.55 47.55 60.49 52.34 65.97 53.40 C 67.83 53.84 69.52 52.72 71.20 52.13 C 71.16 49.97 71.14 47.81 71.13 45.64 C 62.14 45.67 53.11 45.20 44.15 45.77 M 43.81 49.84 C 44.05 57.11 43.28 64.46 44.55 71.67 C 53.19 71.57 61.83 71.60 70.47 71.65 C 71.78 65.84 71.01 59.87 71.15 53.98 C 66.92 55.36 62.43 54.21 59.01 51.47 C 58.84 52.42 58.66 53.36 58.48 54.31 C 55.45 54.21 52.43 54.25 49.41 54.42 C 49.55 53.20 49.82 52.00 50.05 50.80 C 50.22 51.62 50.55 53.27 50.72 54.10 C 51.22 53.66 52.22 52.79 52.72 52.36 C 53.59 52.46 55.33 52.67 56.20 52.77 C 56.16 51.65 56.11 50.52 56.07 49.40 C 52.08 47.75 47.40 46.73 43.81 49.84 Z" />
<path fill="#0fdf4b" opacity="1.00" d=" M 54.07 39.88 C 54.65 39.75 55.79 39.49 56.37 39.35 C 56.48 39.89 56.70 40.96 56.82 41.50 C 57.82 40.97 58.83 40.44 59.84 39.92 C 60.20 40.99 60.56 42.07 60.92 43.15 C 59.04 42.95 56.84 43.70 55.15 42.76 C 54.88 42.04 54.34 40.60 54.07 39.88 Z" />
<path fill="#0fdf4b" opacity="1.00" d=" M 44.68 40.01 C 47.41 41.51 50.44 41.55 53.46 41.15 C 53.61 41.36 53.92 41.79 54.08 42.00 C 53.90 43.44 52.42 42.74 51.45 42.79 C 48.66 43.73 45.96 42.67 44.68 40.01 Z" />
<path fill="#0fdf4b" opacity="1.00" d=" M 46.16 51.05 C 47.81 50.55 48.35 51.11 47.81 52.73 C 46.17 53.22 45.62 52.66 46.16 51.05 Z" />
<path fill="#0fdf4b" opacity="1.00" d=" M 48.05 62.76 C 47.88 59.68 51.93 59.78 54.08 59.70 C 55.26 60.05 58.19 59.00 57.87 61.08 C 55.51 61.38 53.13 61.36 50.76 61.52 C 52.51 62.43 54.37 63.13 56.04 64.21 C 56.33 65.58 55.40 66.90 54.02 67.11 C 51.20 67.43 48.36 67.24 45.53 67.23 C 45.83 66.62 46.44 65.40 46.75 64.78 C 48.62 64.84 50.49 64.89 52.37 64.92 C 50.91 64.22 49.44 63.57 48.05 62.76 Z" />
<path fill="#0fdf4b" opacity="1.00" d=" M 59.46 60.24 C 60.73 59.39 61.45 59.64 61.63 60.97 C 60.36 61.82 59.64 61.57 59.46 60.24 Z" />
<path fill="#0fdf4b" opacity="1.00" d=" M 61.85 62.77 C 63.16 60.48 67.69 60.32 68.54 63.11 C 66.66 67.74 60.56 67.10 56.46 67.32 C 56.71 66.62 57.19 65.23 57.43 64.54 C 58.94 64.08 60.92 64.31 61.85 62.77 Z" />
<path fill="#0fdf4b" opacity="1.00" d=" M 67.92 66.14 C 71.30 66.10 66.52 69.14 67.92 66.14 Z" />
</g>
</svg>
