<?xml version="1.0" encoding="UTF-8" ?>
<!DOCTYPE svg PUBLIC "-//W3C//DTD SVG 1.1//EN" "http://www.w3.org/Graphics/SVG/1.1/DTD/svg11.dtd">
<svg width="117px" height="140px" viewBox="0 0 117 140" version="1.1" xmlns="http://www.w3.org/2000/svg">
<g id="#000000ff">
<path fill="#000000" opacity="1.00" d=" M 0.00 0.00 L 117.00 0.00 L 117.00 140.00 L 0.00 140.00 L 0.00 0.00 M 33.16 10.22 C 17.93 11.79 5.22 25.59 5.02 40.91 C 4.99 60.27 4.99 79.63 5.01 98.98 C 5.14 114.94 18.93 129.22 34.87 129.92 C 50.61 130.08 66.36 129.99 82.10 129.97 C 95.12 129.74 107.23 120.60 111.32 108.29 C 112.71 104.34 113.12 100.14 113.02 95.98 C 112.98 77.98 113.01 59.98 113.00 41.98 C 113.06 33.35 109.36 24.80 103.09 18.88 C 97.01 12.96 88.47 9.76 80.01 9.98 C 64.39 10.17 48.76 9.69 33.16 10.22 Z" />
<path fill="#000000" opacity="1.00" d=" M 30.51 12.70 C 34.61 11.76 38.83 12.03 43.00 12.00 C 56.36 12.05 69.72 11.89 83.07 12.08 C 97.94 12.76 110.85 26.09 110.97 40.99 C 111.02 60.35 111.03 79.71 110.96 99.07 C 110.84 114.30 97.30 127.82 82.07 127.95 C 66.72 128.05 51.37 128.01 36.02 127.97 C 20.75 127.86 7.15 114.32 7.03 99.04 C 6.98 79.69 6.98 60.34 7.03 41.00 C 7.20 27.66 17.49 15.40 30.51 12.70 M 38.00 42.03 C 35.16 44.94 30.07 46.47 29.53 51.00 C 30.05 55.52 35.14 57.06 37.98 59.95 C 40.12 62.32 43.31 61.24 46.00 60.88 C 46.00 58.25 46.00 55.63 46.00 53.00 C 48.00 53.00 50.00 53.00 52.00 53.00 C 52.00 52.25 52.00 50.75 52.00 50.00 C 50.00 50.00 48.00 50.00 46.00 50.00 C 46.00 47.04 46.00 44.08 46.00 41.12 C 43.33 40.77 40.11 39.65 38.00 42.03 M 70.99 41.11 C 71.01 44.07 70.99 47.04 71.00 50.00 C 68.67 50.00 66.33 50.00 64.00 50.00 C 64.00 50.75 64.00 52.25 64.00 53.00 C 66.33 53.00 68.67 53.00 71.00 53.00 C 71.00 55.63 71.01 58.25 70.99 60.88 C 73.59 61.84 76.59 61.74 78.54 59.54 C 81.25 56.83 86.00 55.34 86.48 51.04 C 85.98 46.49 80.86 44.95 78.01 42.04 C 76.18 39.98 73.34 40.41 70.99 41.11 M 53.00 50.00 C 53.00 50.75 53.00 52.25 53.00 53.00 C 53.75 53.00 55.25 53.00 56.00 53.00 C 56.00 52.25 56.00 50.75 56.00 50.00 C 55.25 50.00 53.75 50.00 53.00 50.00 M 57.00 50.00 C 57.00 50.75 57.00 52.25 57.00 53.00 C 59.00 53.00 61.00 53.00 63.00 53.00 C 63.00 52.25 63.00 50.75 63.00 50.00 C 61.00 50.00 59.00 50.00 57.00 50.00 Z" />
<path fill="#000000" opacity="1.00" d=" M 33.01 51.00 C 36.00 48.67 39.01 46.35 42.00 44.01 C 42.00 48.66 42.01 53.31 41.99 57.97 C 38.99 55.65 36.00 53.33 33.01 51.00 Z" />
<path fill="#000000" opacity="1.00" d=" M 75.00 44.81 C 77.67 46.86 80.33 48.93 82.99 51.00 C 80.33 53.07 77.67 55.14 75.00 57.19 C 75.00 53.06 75.00 48.94 75.00 44.81 Z" />
</g>
<g id="#717271ff">
<path fill="#717271" opacity="1.00" d=" M 33.16 10.22 C 48.76 9.69 64.39 10.17 80.01 9.98 C 88.47 9.76 97.01 12.96 103.09 18.88 C 109.36 24.80 113.06 33.35 113.00 41.98 C 113.01 59.98 112.98 77.98 113.02 95.98 C 113.12 100.14 112.71 104.34 111.32 108.29 C 107.23 120.60 95.12 129.74 82.10 129.97 C 66.36 129.99 50.61 130.08 34.87 129.92 C 18.93 129.22 5.14 114.94 5.01 98.98 C 4.99 79.63 4.99 60.27 5.02 40.91 C 5.22 25.59 17.93 11.79 33.16 10.22 M 30.51 12.70 C 17.49 15.40 7.20 27.66 7.03 41.00 C 6.98 60.34 6.98 79.69 7.03 99.04 C 7.15 114.32 20.75 127.86 36.02 127.97 C 51.37 128.01 66.72 128.05 82.07 127.95 C 97.30 127.82 110.84 114.30 110.96 99.07 C 111.03 79.71 111.02 60.35 110.97 40.99 C 110.85 26.09 97.94 12.76 83.07 12.08 C 69.72 11.89 56.36 12.05 43.00 12.00 C 38.83 12.03 34.61 11.76 30.51 12.70 Z" />
</g>
<g id="#f8fcf8ff">
<path fill="#f8fcf8" opacity="1.00" d=" M 38.00 42.03 C 40.11 39.65 43.33 40.77 46.00 41.12 C 46.00 44.08 46.00 47.04 46.00 50.00 C 48.00 50.00 50.00 50.00 52.00 50.00 C 52.00 50.75 52.00 52.25 52.00 53.00 C 50.00 53.00 48.00 53.00 46.00 53.00 C 46.00 55.63 46.00 58.25 46.00 60.88 C 43.31 61.24 40.12 62.32 37.98 59.95 C 35.14 57.06 30.05 55.52 29.53 51.00 C 30.07 46.47 35.16 44.94 38.00 42.03 M 33.01 51.00 C 36.00 53.33 38.99 55.65 41.99 57.97 C 42.01 53.31 42.00 48.66 42.00 44.01 C 39.01 46.35 36.00 48.67 33.01 51.00 Z" />
<path fill="#f8fcf8" opacity="1.00" d=" M 70.99 41.11 C 73.34 40.41 76.18 39.98 78.01 42.04 C 80.86 44.95 85.98 46.49 86.48 51.04 C 86.00 55.34 81.25 56.83 78.54 59.54 C 76.59 61.74 73.59 61.84 70.99 60.88 C 71.01 58.25 71.00 55.63 71.00 53.00 C 68.67 53.00 66.33 53.00 64.00 53.00 C 64.00 52.25 64.00 50.75 64.00 50.00 C 66.33 50.00 68.67 50.00 71.00 50.00 C 70.99 47.04 71.01 44.07 70.99 41.11 M 75.00 44.81 C 75.00 48.94 75.00 53.06 75.00 57.19 C 77.67 55.14 80.33 53.07 82.99 51.00 C 80.33 48.93 77.67 46.86 75.00 44.81 Z" />
<path fill="#f8fcf8" opacity="1.00" d=" M 53.00 50.00 C 53.75 50.00 55.25 50.00 56.00 50.00 C 56.00 50.75 56.00 52.25 56.00 53.00 C 55.25 53.00 53.75 53.00 53.00 53.00 C 53.00 52.25 53.00 50.75 53.00 50.00 Z" />
<path fill="#f8fcf8" opacity="1.00" d=" M 57.00 50.00 C 59.00 50.00 61.00 50.00 63.00 50.00 C 63.00 50.75 63.00 52.25 63.00 53.00 C 61.00 53.00 59.00 53.00 57.00 53.00 C 57.00 52.25 57.00 50.75 57.00 50.00 Z" />
</g>
</svg>
