<?xml version="1.0" encoding="UTF-8" ?>
<!DOCTYPE svg PUBLIC "-//W3C//DTD SVG 1.1//EN" "http://www.w3.org/Graphics/SVG/1.1/DTD/svg11.dtd">
<svg width="100px" height="100px" viewBox="0 0 100 100" version="1.1" xmlns="http://www.w3.org/2000/svg">
<g id="#505050ff">
<path fill="#505050" opacity="1.00" d=" M 0.00 0.00 L 100.00 0.00 L 100.00 100.00 L 0.00 100.00 L 0.00 0.00 M 36.23 22.16 C 35.44 28.37 36.02 34.65 35.94 40.89 C 32.30 40.97 28.65 41.10 25.02 41.38 C 24.71 44.42 24.12 47.62 25.28 50.55 C 27.93 51.71 30.96 51.70 33.54 52.97 C 36.21 55.48 38.15 58.65 40.79 61.19 C 43.40 64.13 46.78 66.56 48.55 70.14 C 49.20 74.48 44.92 77.05 42.93 80.35 C 47.99 83.96 54.84 82.14 60.28 84.98 C 53.89 87.09 47.07 86.43 40.52 87.66 C 47.64 88.49 54.87 87.82 61.78 85.97 C 61.77 85.28 61.75 83.90 61.74 83.21 C 56.15 82.30 50.51 81.62 45.06 80.04 C 47.02 78.03 49.08 76.11 51.22 74.29 C 51.96 71.85 52.47 69.20 54.27 67.27 C 58.60 62.33 64.19 58.35 67.08 52.28 C 70.10 52.00 73.11 51.72 76.12 51.40 C 76.25 48.32 76.48 45.21 76.12 42.13 C 72.50 40.74 68.54 41.03 64.73 40.83 C 64.53 34.07 65.39 27.21 64.27 20.51 C 62.64 18.32 59.51 18.42 57.06 18.19 C 51.45 18.15 45.80 17.85 40.21 18.43 C 38.18 18.54 36.39 20.09 36.23 22.16 Z" />
<path fill="#505050" opacity="1.00" d=" M 61.00 20.66 C 61.50 20.71 62.50 20.81 63.00 20.86 C 63.00 27.24 63.00 33.62 63.00 40.00 C 62.50 40.00 61.50 40.00 61.00 40.01 C 61.00 33.56 61.00 27.11 61.00 20.66 Z" />
<path fill="#505050" opacity="1.00" d=" M 37.99 24.00 C 42.66 24.00 47.33 24.00 52.01 24.00 C 52.00 24.50 52.00 25.50 52.00 26.00 C 47.33 26.00 42.67 26.00 38.00 26.00 C 38.00 25.50 38.00 24.50 37.99 24.00 Z" />
<path fill="#505050" opacity="1.00" d=" M 38.00 32.00 C 42.00 32.00 46.00 32.00 50.00 32.00 C 50.00 32.50 50.00 33.50 50.00 34.00 C 46.00 34.00 42.00 34.00 37.99 34.00 C 38.00 33.50 38.00 32.50 38.00 32.00 Z" />
<path fill="#505050" opacity="1.00" d=" M 71.35 47.94 C 71.95 45.95 72.62 43.98 73.43 42.07 C 73.73 44.69 73.96 47.32 74.21 49.94 C 71.45 50.02 68.70 50.10 65.94 50.21 C 64.98 52.93 63.89 55.70 61.81 57.78 C 57.89 61.86 54.03 66.16 49.09 69.05 C 51.92 63.47 57.21 59.87 61.22 55.25 C 63.06 53.32 62.95 50.48 63.47 48.04 C 66.10 47.99 68.73 47.96 71.35 47.94 Z" />
</g>
<g id="#f8fcf8ff">
<path fill="#f8fcf8" opacity="1.00" d=" M 36.23 22.16 C 36.39 20.09 38.18 18.54 40.21 18.43 C 45.80 17.85 51.45 18.15 57.06 18.19 C 59.51 18.42 62.64 18.32 64.27 20.51 C 65.39 27.21 64.53 34.07 64.73 40.83 C 68.54 41.03 72.50 40.74 76.12 42.13 C 76.48 45.21 76.25 48.32 76.12 51.40 C 73.11 51.72 70.10 52.00 67.08 52.28 C 64.19 58.35 58.60 62.33 54.27 67.27 C 52.47 69.20 51.96 71.85 51.22 74.29 C 49.08 76.11 47.02 78.03 45.06 80.04 C 50.51 81.62 56.15 82.30 61.74 83.21 C 61.75 83.90 61.77 85.28 61.78 85.97 C 54.87 87.82 47.64 88.49 40.52 87.66 C 47.07 86.43 53.89 87.09 60.28 84.98 C 54.84 82.14 47.99 83.96 42.93 80.35 C 44.92 77.05 49.20 74.48 48.55 70.14 C 46.78 66.56 43.40 64.13 40.79 61.19 C 38.15 58.65 36.21 55.48 33.54 52.97 C 30.96 51.70 27.93 51.71 25.28 50.55 C 24.12 47.62 24.71 44.42 25.02 41.38 C 28.65 41.10 32.30 40.97 35.94 40.89 C 36.02 34.65 35.44 28.37 36.23 22.16 M 61.00 20.66 C 61.00 27.11 61.00 33.56 61.00 40.01 C 61.50 40.00 62.50 40.00 63.00 40.00 C 63.00 33.62 63.00 27.24 63.00 20.86 C 62.50 20.81 61.50 20.71 61.00 20.66 M 37.99 24.00 C 38.00 24.50 38.00 25.50 38.00 26.00 C 42.67 26.00 47.33 26.00 52.00 26.00 C 52.00 25.50 52.00 24.50 52.01 24.00 C 47.33 24.00 42.66 24.00 37.99 24.00 M 38.00 32.00 C 38.00 32.50 38.00 33.50 37.99 34.00 C 42.00 34.00 46.00 34.00 50.00 34.00 C 50.00 33.50 50.00 32.50 50.00 32.00 C 46.00 32.00 42.00 32.00 38.00 32.00 M 71.35 47.94 C 68.73 47.96 66.10 47.99 63.47 48.04 C 62.95 50.48 63.06 53.32 61.22 55.25 C 57.21 59.87 51.92 63.47 49.09 69.05 C 54.03 66.16 57.89 61.86 61.81 57.78 C 63.89 55.70 64.98 52.93 65.94 50.21 C 68.70 50.10 71.45 50.02 74.21 49.94 C 73.96 47.32 73.73 44.69 73.43 42.07 C 72.62 43.98 71.95 45.95 71.35 47.94 Z" />
</g>
</svg>
