<?xml version="1.0" encoding="UTF-8" ?>
<!DOCTYPE svg PUBLIC "-//W3C//DTD SVG 1.1//EN" "http://www.w3.org/Graphics/SVG/1.1/DTD/svg11.dtd">
<svg width="117px" height="140px" viewBox="0 0 117 140" version="1.1" xmlns="http://www.w3.org/2000/svg">
<g id="#384450ff">
<path fill="#384450" opacity="1.00" d=" M 0.00 0.00 L 117.00 0.00 L 117.00 140.00 L 0.00 140.00 L 0.00 0.00 M 41.24 53.14 C 38.66 54.44 38.63 58.53 41.22 59.83 C 43.40 61.51 45.84 59.69 47.20 57.89 C 47.20 57.18 47.20 55.77 47.20 55.06 C 45.81 53.32 43.41 51.47 41.24 53.14 M 56.50 53.47 C 54.83 54.79 54.47 57.44 56.00 59.01 C 57.50 61.24 61.23 60.84 62.38 58.45 C 64.86 55.03 59.46 50.34 56.50 53.47 M 72.45 53.36 C 70.24 54.77 70.21 58.11 72.37 59.58 C 74.72 61.93 79.18 59.32 78.69 56.16 C 78.60 53.32 74.59 51.25 72.45 53.36 Z" />
</g>
<g id="#f8fcf8ff">
<path fill="#f8fcf8" opacity="1.00" d=" M 41.24 53.14 C 43.41 51.47 45.81 53.32 47.20 55.06 C 47.20 55.77 47.20 57.18 47.20 57.89 C 45.84 59.69 43.40 61.51 41.22 59.83 C 38.63 58.53 38.66 54.44 41.24 53.14 Z" />
<path fill="#f8fcf8" opacity="1.00" d=" M 56.50 53.47 C 59.46 50.34 64.86 55.03 62.38 58.45 C 61.23 60.84 57.50 61.24 56.00 59.01 C 54.47 57.44 54.83 54.79 56.50 53.47 Z" />
<path fill="#f8fcf8" opacity="1.00" d=" M 72.45 53.36 C 74.59 51.25 78.60 53.32 78.69 56.16 C 79.18 59.32 74.72 61.93 72.37 59.58 C 70.21 58.11 70.24 54.77 72.45 53.36 Z" />
</g>
</svg>
