<?xml version="1.0" encoding="UTF-8" ?>
<!DOCTYPE svg PUBLIC "-//W3C//DTD SVG 1.1//EN" "http://www.w3.org/Graphics/SVG/1.1/DTD/svg11.dtd">
<svg width="117px" height="140px" viewBox="0 0 117 140" version="1.1" xmlns="http://www.w3.org/2000/svg">
<g id="#000000ff">
<path fill="#000000" opacity="1.00" d=" M 0.00 0.00 L 117.00 0.00 L 117.00 140.00 L 0.00 140.00 L 0.00 0.00 M 33.19 10.23 C 17.94 11.77 5.21 25.60 5.03 40.94 C 4.95 59.96 5.02 78.97 5.00 97.99 C 4.95 106.65 8.66 115.22 14.95 121.15 C 21.04 127.05 29.55 130.24 38.01 130.02 C 53.03 129.92 68.05 130.14 83.07 129.91 C 99.00 129.27 112.83 114.99 112.96 99.05 C 113.03 79.67 113.03 60.30 112.96 40.92 C 112.83 24.60 98.35 10.17 82.04 10.03 C 65.76 10.10 49.46 9.71 33.19 10.23 Z" />
<path fill="#000000" opacity="1.00" d=" M 30.53 12.68 C 34.29 11.87 38.16 12.00 41.98 12.00 C 55.69 12.07 69.41 11.87 83.12 12.10 C 97.96 12.76 110.87 26.10 110.95 40.97 C 111.05 60.00 110.99 79.04 110.98 98.07 C 111.17 109.35 104.17 120.25 94.00 125.04 C 89.37 127.41 84.12 128.10 78.98 128.00 C 64.30 127.93 49.61 128.13 34.94 127.90 C 20.05 127.28 7.10 113.88 7.04 98.97 C 6.98 79.64 6.97 60.31 7.04 40.99 C 7.18 27.63 17.51 15.39 30.53 12.68 M 40.72 45.01 C 41.58 46.13 42.55 47.17 43.47 48.24 C 46.76 46.64 50.21 45.00 53.95 44.97 C 58.46 44.84 62.68 46.90 66.29 49.42 C 68.20 46.76 70.02 44.03 71.54 41.12 C 67.78 38.11 62.73 37.24 58.02 37.45 C 51.54 37.16 44.88 40.02 40.72 45.01 M 58.19 62.65 C 59.58 63.15 60.97 63.68 62.37 64.19 C 64.18 59.99 66.36 55.96 68.39 51.86 C 70.59 55.42 71.39 59.49 71.97 63.57 C 75.73 63.58 79.49 63.60 83.25 63.54 C 84.22 54.97 79.51 46.85 72.93 41.70 C 68.60 49.07 62.96 55.56 58.19 62.65 M 33.77 58.57 C 34.42 58.96 35.71 59.73 36.36 60.12 C 37.66 56.72 38.90 53.23 41.41 50.50 C 43.43 48.72 40.29 47.46 39.14 46.38 C 36.64 50.08 34.59 54.15 33.77 58.57 M 55.27 65.18 C 54.70 66.98 54.34 70.09 56.95 70.29 C 59.29 71.38 62.06 67.95 60.22 65.97 C 59.09 64.24 56.92 64.89 55.27 65.18 Z" />
<path fill="#000000" opacity="1.00" d=" M 54.74 41.19 C 56.44 40.89 58.15 40.73 59.87 40.58 C 59.74 41.00 59.48 41.85 59.35 42.27 C 57.81 41.93 56.27 41.57 54.74 41.19 Z" />
<path fill="#000000" opacity="1.00" d=" M 62.67 41.09 C 64.11 41.45 65.55 41.81 66.99 42.16 C 66.35 43.02 65.71 43.88 65.07 44.74 C 63.88 43.80 62.83 42.69 62.67 41.09 Z" />
<path fill="#000000" opacity="1.00" d=" M 73.49 47.02 C 75.19 47.07 74.09 49.49 72.97 49.66 C 71.52 49.57 72.42 47.15 73.49 47.02 Z" />
<path fill="#000000" opacity="1.00" d=" M 76.40 50.29 C 76.99 51.44 77.57 52.59 78.16 53.73 C 76.78 54.32 75.42 54.92 74.04 55.51 C 73.75 54.95 73.17 53.84 72.89 53.28 C 74.06 52.29 75.23 51.29 76.40 50.29 Z" />
<path fill="#000000" opacity="1.00" d=" M 74.14 59.89 C 75.69 58.72 77.39 57.76 79.06 56.77 C 79.28 57.86 79.50 58.94 79.74 60.03 C 77.87 60.01 76.00 59.98 74.14 59.89 Z" />
</g>
<g id="#737373ff">
<path fill="#737373" opacity="1.00" d=" M 33.19 10.23 C 49.46 9.71 65.76 10.10 82.04 10.03 C 98.35 10.17 112.83 24.60 112.96 40.92 C 113.03 60.30 113.03 79.67 112.96 99.05 C 112.83 114.99 99.00 129.27 83.07 129.91 C 68.05 130.14 53.03 129.92 38.01 130.02 C 29.55 130.24 21.04 127.05 14.95 121.15 C 8.66 115.22 4.95 106.65 5.00 97.99 C 5.02 78.97 4.95 59.96 5.03 40.94 C 5.21 25.60 17.94 11.77 33.19 10.23 M 30.53 12.68 C 17.51 15.39 7.18 27.63 7.04 40.99 C 6.97 60.31 6.98 79.64 7.04 98.97 C 7.10 113.88 20.05 127.28 34.94 127.90 C 49.61 128.13 64.30 127.93 78.98 128.00 C 84.12 128.10 89.37 127.41 94.00 125.04 C 104.17 120.25 111.17 109.35 110.98 98.07 C 110.99 79.04 111.05 60.00 110.95 40.97 C 110.87 26.10 97.96 12.76 83.12 12.10 C 69.41 11.87 55.69 12.07 41.98 12.00 C 38.16 12.00 34.29 11.87 30.53 12.68 Z" />
</g>
<g id="#f8fcf8ff">
<path fill="#f8fcf8" opacity="1.00" d=" M 40.72 45.01 C 44.88 40.02 51.54 37.16 58.02 37.45 C 62.73 37.24 67.78 38.11 71.54 41.12 C 70.02 44.03 68.20 46.76 66.29 49.42 C 62.68 46.90 58.46 44.84 53.95 44.97 C 50.21 45.00 46.76 46.64 43.47 48.24 C 42.55 47.17 41.58 46.13 40.72 45.01 M 54.74 41.19 C 56.27 41.57 57.81 41.93 59.35 42.27 C 59.48 41.85 59.74 41.00 59.87 40.58 C 58.15 40.73 56.44 40.89 54.74 41.19 M 62.67 41.09 C 62.83 42.69 63.88 43.80 65.07 44.74 C 65.71 43.88 66.35 43.02 66.99 42.16 C 65.55 41.81 64.11 41.45 62.67 41.09 Z" />
<path fill="#f8fcf8" opacity="1.00" d=" M 58.19 62.65 C 62.96 55.56 68.60 49.07 72.93 41.70 C 79.51 46.85 84.22 54.97 83.25 63.54 C 79.49 63.60 75.73 63.58 71.97 63.57 C 71.39 59.49 70.59 55.42 68.39 51.86 C 66.36 55.96 64.18 59.99 62.37 64.19 C 60.97 63.68 59.58 63.15 58.19 62.65 M 73.49 47.02 C 72.42 47.15 71.52 49.57 72.97 49.66 C 74.09 49.49 75.19 47.07 73.49 47.02 M 76.40 50.29 C 75.23 51.29 74.06 52.29 72.89 53.28 C 73.17 53.84 73.75 54.95 74.04 55.51 C 75.42 54.92 76.78 54.32 78.16 53.73 C 77.57 52.59 76.99 51.44 76.40 50.29 M 74.14 59.89 C 76.00 59.98 77.87 60.01 79.74 60.03 C 79.50 58.94 79.28 57.86 79.06 56.77 C 77.39 57.76 75.69 58.72 74.14 59.89 Z" />
<path fill="#f8fcf8" opacity="1.00" d=" M 33.77 58.57 C 34.59 54.15 36.64 50.08 39.14 46.38 C 40.29 47.46 43.43 48.72 41.41 50.50 C 38.90 53.23 37.66 56.72 36.36 60.12 C 35.71 59.73 34.42 58.96 33.77 58.57 Z" />
<path fill="#f8fcf8" opacity="1.00" d=" M 55.27 65.18 C 56.92 64.89 59.09 64.24 60.22 65.97 C 62.06 67.95 59.29 71.38 56.95 70.29 C 54.34 70.09 54.70 66.98 55.27 65.18 Z" />
</g>
</svg>
