<?xml version="1.0" encoding="UTF-8" ?>
<!DOCTYPE svg PUBLIC "-//W3C//DTD SVG 1.1//EN" "http://www.w3.org/Graphics/SVG/1.1/DTD/svg11.dtd">
<svg width="117px" height="140px" viewBox="0 0 117 140" version="1.1" xmlns="http://www.w3.org/2000/svg">
<g id="#000000ff">
<path fill="#000000" opacity="1.00" d=" M 0.00 0.00 L 117.00 0.00 L 117.00 140.00 L 0.00 140.00 L 0.00 0.00 M 23.16 13.16 C 21.54 13.91 19.93 14.71 18.42 15.66 C 15.05 18.11 12.14 21.05 9.68 24.41 C 8.72 25.92 7.92 27.53 7.17 29.16 C 5.96 31.23 5.52 33.60 5.08 35.93 C 3.84 40.18 4.58 44.66 4.38 49.01 C 4.58 67.07 3.99 85.15 4.69 103.19 C 5.52 105.74 5.80 108.48 7.16 110.84 C 7.93 112.47 8.72 114.08 9.68 115.61 C 12.15 118.95 15.04 121.90 18.41 124.33 C 19.93 125.28 21.54 126.08 23.17 126.82 C 26.47 128.65 30.34 128.98 34.01 129.57 C 49.67 129.68 65.34 129.60 81.00 129.60 C 85.02 129.19 89.22 128.73 92.84 126.83 C 94.46 126.09 96.05 125.29 97.56 124.35 C 100.94 121.89 103.88 118.96 106.34 115.57 C 107.28 114.06 108.08 112.46 108.84 110.85 C 112.83 102.83 111.34 93.64 111.62 85.02 C 111.43 68.95 112.00 52.85 111.31 36.80 C 110.45 34.26 110.25 31.48 108.82 29.17 C 108.08 27.54 107.29 25.94 106.35 24.42 C 103.86 21.08 100.98 18.12 97.61 15.68 C 96.08 14.72 94.47 13.92 92.83 13.18 C 89.24 11.27 85.05 10.82 81.06 10.39 C 65.38 10.41 49.69 10.31 34.01 10.44 C 30.34 11.01 26.48 11.37 23.16 13.16 Z" />
<path fill="#000000" opacity="1.00" d=" M 26.89 12.79 C 29.56 12.26 32.23 11.59 34.97 11.59 C 50.34 11.63 65.70 11.63 81.07 11.59 C 83.79 11.59 86.45 12.26 89.10 12.80 C 98.49 15.99 105.95 23.55 109.24 32.87 C 109.85 35.54 110.56 38.23 110.42 40.99 C 110.25 61.69 110.56 82.39 110.27 103.08 C 109.82 104.39 109.49 105.74 109.19 107.09 C 105.99 116.04 98.93 124.21 89.52 126.65 L 89.52 127.35 C 86.67 127.58 83.90 128.43 81.03 128.41 C 65.67 128.37 50.31 128.37 34.95 128.41 C 32.21 128.40 29.54 127.75 26.87 127.23 C 17.52 123.95 9.97 116.45 6.76 107.05 C 6.23 104.73 5.55 102.42 5.59 100.03 C 5.71 79.04 5.49 58.04 5.70 37.05 C 7.27 31.19 9.62 25.38 13.99 21.03 C 17.49 17.19 22.14 14.71 26.89 12.79 M 36.59 42.00 C 36.59 50.67 36.59 59.33 36.59 68.00 C 43.86 68.00 51.14 68.00 58.41 68.00 C 58.40 66.00 58.40 64.00 58.41 62.00 C 54.08 62.01 49.75 62.00 45.42 61.99 C 45.39 60.67 45.37 59.36 45.35 58.05 C 48.90 58.00 52.45 57.98 56.00 58.01 C 56.00 55.87 56.00 53.73 56.00 51.59 C 52.46 51.59 48.93 51.58 45.39 51.61 C 45.39 50.53 45.39 49.46 45.40 48.39 C 49.60 48.42 53.80 48.40 58.00 48.41 C 58.00 46.27 58.00 44.13 58.00 42.00 C 50.87 42.00 43.73 42.00 36.59 42.00 M 61.60 49.16 C 61.58 55.44 61.59 61.72 61.59 68.00 C 64.20 68.00 66.81 68.00 69.41 68.00 C 69.51 64.15 69.11 60.26 69.62 56.43 C 69.93 53.92 74.10 53.95 74.38 56.46 C 74.89 60.28 74.48 64.16 74.59 68.00 C 77.19 68.00 79.80 68.00 82.40 68.00 C 82.09 62.60 83.33 56.86 81.22 51.73 C 78.43 46.97 71.29 47.79 68.30 51.96 C 68.47 51.04 68.63 50.12 68.79 49.20 C 66.39 49.19 64.00 49.18 61.60 49.16 Z" />
</g>
<g id="#e76010ff">
<path fill="#e76010" opacity="1.00" d=" M 23.16 13.16 C 26.48 11.37 30.34 11.01 34.01 10.44 C 49.69 10.31 65.38 10.41 81.06 10.39 C 85.05 10.82 89.24 11.27 92.83 13.18 C 94.47 13.92 96.08 14.72 97.61 15.68 C 100.98 18.12 103.86 21.08 106.35 24.42 C 107.29 25.94 108.08 27.54 108.82 29.17 C 110.25 31.48 110.45 34.26 111.31 36.80 C 112.00 52.85 111.43 68.95 111.62 85.02 C 111.34 93.64 112.83 102.83 108.84 110.85 C 108.08 112.46 107.28 114.06 106.34 115.57 C 103.88 118.96 100.94 121.89 97.56 124.35 C 96.05 125.29 94.46 126.09 92.84 126.83 C 89.22 128.73 85.02 129.19 81.00 129.60 C 65.34 129.60 49.67 129.68 34.01 129.57 C 30.34 128.98 26.47 128.65 23.17 126.82 C 21.54 126.08 19.93 125.28 18.41 124.33 C 15.04 121.90 12.15 118.95 9.68 115.61 C 8.72 114.08 7.93 112.47 7.16 110.84 C 5.80 108.48 5.52 105.74 4.69 103.19 C 3.99 85.15 4.58 67.07 4.38 49.01 C 4.58 44.66 3.84 40.18 5.08 35.93 C 5.52 33.60 5.96 31.23 7.17 29.16 C 7.92 27.53 8.72 25.92 9.68 24.41 C 12.14 21.05 15.05 18.11 18.42 15.66 C 19.93 14.71 21.54 13.91 23.16 13.16 M 26.89 12.79 C 22.14 14.71 17.49 17.19 13.99 21.03 C 9.62 25.38 7.27 31.19 5.70 37.05 C 5.49 58.04 5.71 79.04 5.59 100.03 C 5.55 102.42 6.23 104.73 6.76 107.05 C 9.97 116.45 17.52 123.95 26.87 127.23 C 29.54 127.75 32.21 128.40 34.95 128.41 C 50.31 128.37 65.67 128.37 81.03 128.41 C 83.90 128.43 86.67 127.58 89.52 127.35 L 89.52 126.65 C 98.93 124.21 105.99 116.04 109.19 107.09 C 109.49 105.74 109.82 104.39 110.27 103.08 C 110.56 82.39 110.25 61.69 110.42 40.99 C 110.56 38.23 109.85 35.54 109.24 32.87 C 105.95 23.55 98.49 15.99 89.10 12.80 C 86.45 12.26 83.79 11.59 81.07 11.59 C 65.70 11.63 50.34 11.63 34.97 11.59 C 32.23 11.59 29.56 12.26 26.89 12.79 Z" />
<path fill="#e76010" opacity="1.00" d=" M 36.59 42.00 C 43.73 42.00 50.87 42.00 58.00 42.00 C 58.00 44.13 58.00 46.27 58.00 48.41 C 53.80 48.40 49.60 48.42 45.40 48.39 C 45.39 49.46 45.39 50.53 45.39 51.61 C 48.93 51.58 52.46 51.59 56.00 51.59 C 56.00 53.73 56.00 55.87 56.00 58.01 C 52.45 57.98 48.90 58.00 45.35 58.05 C 45.37 59.36 45.39 60.67 45.42 61.99 C 49.75 62.00 54.08 62.01 58.41 62.00 C 58.40 64.00 58.40 66.00 58.41 68.00 C 51.14 68.00 43.86 68.00 36.59 68.00 C 36.59 59.33 36.59 50.67 36.59 42.00 Z" />
<path fill="#e76010" opacity="1.00" d=" M 61.60 49.16 C 64.00 49.18 66.39 49.19 68.79 49.20 C 68.63 50.12 68.47 51.04 68.30 51.96 C 71.29 47.79 78.43 46.97 81.22 51.73 C 83.33 56.86 82.09 62.60 82.40 68.00 C 79.80 68.00 77.19 68.00 74.59 68.00 C 74.48 64.16 74.89 60.28 74.38 56.46 C 74.10 53.95 69.93 53.92 69.62 56.43 C 69.11 60.26 69.51 64.15 69.41 68.00 C 66.81 68.00 64.20 68.00 61.59 68.00 C 61.59 61.72 61.58 55.44 61.60 49.16 Z" />
</g>
</svg>
