<?xml version="1.0" encoding="UTF-8" ?>
<!DOCTYPE svg PUBLIC "-//W3C//DTD SVG 1.1//EN" "http://www.w3.org/Graphics/SVG/1.1/DTD/svg11.dtd">
<svg width="117px" height="140px" viewBox="0 0 117 140" version="1.1" xmlns="http://www.w3.org/2000/svg">
<g id="#000000ff">
<path fill="#000000" opacity="1.00" d=" M 0.00 0.00 L 117.00 0.00 L 117.00 140.00 L 0.00 140.00 L 0.00 0.00 M 33.20 10.30 C 17.96 11.79 5.22 25.66 5.09 40.99 C 4.97 59.33 5.10 77.66 5.03 96.00 C 4.00 110.86 14.50 125.45 29.01 128.94 C 34.22 130.32 39.65 129.90 44.98 129.95 C 57.67 129.87 70.37 130.11 83.07 129.84 C 98.97 129.24 112.80 114.96 112.90 99.05 C 113.01 80.03 112.94 61.00 112.93 41.98 C 113.07 30.93 106.87 20.15 97.35 14.57 C 91.86 11.20 85.35 9.84 78.96 10.03 C 63.71 10.23 48.44 9.72 33.20 10.30 Z" />
<path fill="#000000" opacity="1.00" d=" M 33.23 12.31 C 45.48 11.73 57.77 12.21 70.03 12.06 C 77.58 12.24 85.53 11.19 92.63 14.37 C 103.14 18.72 110.79 29.49 110.88 40.94 C 111.06 56.95 110.86 72.97 110.95 88.99 C 110.84 96.08 111.64 103.60 108.39 110.18 C 103.93 120.46 93.28 127.76 82.02 127.88 C 68.69 128.03 55.35 127.90 42.01 127.95 C 35.91 128.07 29.51 127.92 23.98 124.99 C 13.80 120.20 6.81 109.27 7.08 97.97 C 7.09 78.96 6.97 59.95 7.10 40.94 C 7.21 26.70 19.06 13.72 33.23 12.31 M 48.99 15.27 C 48.97 17.28 48.96 19.29 48.95 21.31 C 51.66 21.36 54.37 21.36 57.08 21.34 C 57.08 21.90 57.08 22.46 57.08 23.02 C 54.39 23.02 51.70 23.02 49.01 23.06 C 48.98 24.53 48.96 26.01 48.94 27.49 C 44.29 27.46 39.65 27.47 35.00 27.47 L 35.00 29.00 C 39.66 29.00 44.32 28.99 48.98 29.01 C 48.97 29.69 48.95 31.04 48.94 31.72 C 44.29 31.71 39.65 31.72 35.00 31.72 L 35.00 33.49 C 39.65 33.49 44.30 33.50 48.96 33.47 C 48.96 36.82 48.96 40.16 48.96 43.50 C 51.67 43.56 54.37 43.57 57.08 43.57 C 57.08 45.59 57.07 47.62 57.09 49.64 C 57.54 49.92 58.46 50.49 58.92 50.78 C 58.59 54.97 60.62 58.87 60.29 63.05 C 60.01 66.92 61.14 71.18 58.88 74.64 C 57.66 68.84 58.09 62.73 58.69 56.86 C 55.29 57.87 51.25 57.94 48.76 60.82 C 45.84 63.68 45.75 68.03 44.89 71.77 C 43.08 78.31 41.60 84.93 39.39 91.35 C 42.89 93.51 46.13 96.16 49.87 97.90 C 54.55 98.18 59.25 97.90 63.94 98.02 C 66.28 97.94 68.90 98.42 70.86 96.81 C 73.55 94.86 76.82 93.53 79.04 91.03 C 76.94 84.39 75.44 77.59 73.38 70.95 C 72.82 67.29 72.49 63.15 69.59 60.47 C 67.56 58.32 64.45 58.24 61.88 57.18 C 60.50 55.46 60.56 53.22 60.73 51.15 C 61.39 50.78 62.70 50.04 63.36 49.67 C 63.36 47.62 63.35 45.58 63.33 43.53 C 66.11 43.58 68.90 43.58 71.68 43.49 C 71.76 40.16 71.74 36.82 71.71 33.48 C 75.83 33.50 79.94 33.49 84.06 33.49 C 84.03 33.04 83.98 32.14 83.95 31.69 C 79.86 31.72 75.77 31.71 71.69 31.72 C 71.70 31.04 71.74 29.68 71.75 29.00 C 75.84 29.00 79.93 29.00 84.02 29.00 C 84.01 28.62 83.99 27.85 83.98 27.46 C 79.89 27.47 75.80 27.46 71.71 27.48 C 71.72 26.03 71.71 24.57 71.70 23.12 C 68.73 22.53 64.74 24.28 62.59 21.57 C 65.63 21.30 68.69 21.39 71.74 21.17 C 71.73 19.21 71.72 17.25 71.67 15.29 C 64.11 15.19 56.55 15.22 48.99 15.27 M 14.44 102.91 C 14.44 105.92 14.45 108.93 14.42 111.94 C 14.86 111.96 15.75 112.00 16.19 112.01 C 16.17 111.32 16.12 109.93 16.10 109.24 C 18.18 109.07 21.05 108.81 20.64 105.96 C 20.96 102.29 16.84 103.08 14.44 102.91 M 21.45 102.89 C 21.44 106.11 21.38 109.34 21.57 112.56 C 22.95 111.65 23.65 110.30 23.67 108.52 C 24.92 109.91 25.94 111.58 27.65 112.48 C 25.68 109.53 28.85 106.12 26.75 103.37 C 25.02 102.93 23.21 103.00 21.45 102.89 M 28.44 102.96 C 28.44 105.99 28.44 109.02 28.44 112.04 C 30.78 112.02 33.14 112.09 35.46 111.70 C 33.75 111.09 31.94 110.97 30.14 110.84 C 30.13 110.19 30.11 108.91 30.10 108.26 C 31.62 108.01 33.14 107.77 34.62 107.34 C 33.50 107.21 31.25 106.94 30.13 106.81 C 30.13 106.15 30.13 104.84 30.13 104.18 C 31.91 104.04 33.71 103.90 35.40 103.28 C 33.10 102.90 30.76 102.98 28.44 102.96 M 36.34 104.37 C 34.66 106.26 35.21 109.35 37.20 110.78 C 39.41 112.68 42.51 110.67 45.02 111.95 C 44.99 110.63 44.95 109.31 44.92 108.00 C 45.78 108.00 47.49 108.00 48.34 108.00 C 48.34 109.32 48.33 110.64 48.32 111.97 C 48.73 111.98 49.54 112.00 49.95 112.01 C 49.95 109.00 49.95 105.99 49.95 102.98 C 49.54 103.00 48.72 103.03 48.31 103.05 C 48.32 104.37 48.33 105.69 48.34 107.02 C 47.49 107.02 45.79 107.02 44.94 107.01 C 44.94 105.67 44.94 104.33 44.94 102.99 C 44.54 103.00 43.73 103.01 43.32 103.02 C 43.33 105.59 43.34 108.16 43.40 110.73 C 40.89 110.24 38.26 109.84 36.56 107.71 C 37.35 104.84 39.97 103.99 42.68 103.87 C 40.77 102.77 37.81 102.38 36.34 104.37 M 51.29 112.18 C 54.02 110.79 56.99 110.80 59.72 112.18 C 58.36 109.02 57.02 105.86 55.55 102.75 C 53.99 105.82 52.66 109.01 51.29 112.18 M 60.32 103.01 C 60.43 105.43 60.00 107.95 60.71 110.29 C 61.52 112.55 64.55 112.18 66.35 111.48 C 68.11 109.01 67.34 105.84 67.52 103.02 L 65.69 103.01 C 65.17 105.58 67.29 111.15 63.10 110.93 C 61.13 108.83 62.22 105.59 61.92 102.99 C 61.52 103.00 60.72 103.01 60.32 103.01 M 68.44 102.99 C 68.44 106.17 68.39 109.36 68.56 112.54 C 70.64 111.97 70.07 109.84 70.24 108.25 C 71.72 108.00 73.18 107.68 74.61 107.27 C 73.50 107.16 71.26 106.94 70.14 106.83 C 70.13 106.17 70.13 104.85 70.12 104.19 C 71.93 104.00 73.73 103.75 75.52 103.45 C 75.43 106.27 75.44 109.10 75.41 111.92 C 75.85 111.95 76.74 112.00 77.18 112.03 C 77.17 110.74 77.15 109.45 77.13 108.16 C 78.63 108.06 80.12 107.90 81.61 107.69 C 80.13 107.25 78.62 106.99 77.10 106.73 C 77.11 106.09 77.13 104.81 77.14 104.16 C 78.93 104.03 80.75 103.91 82.46 103.29 C 77.81 102.75 73.11 103.14 68.44 102.99 M 82.29 112.18 C 85.02 110.79 87.99 110.79 90.72 112.18 C 89.36 109.02 88.02 105.85 86.55 102.74 C 84.99 105.83 83.66 109.01 82.29 112.18 M 93.46 103.53 C 91.20 105.06 90.57 108.50 92.51 110.56 C 93.98 112.51 96.64 111.79 98.73 111.90 C 98.85 110.61 98.97 109.33 99.08 108.05 C 97.50 108.01 95.92 107.99 94.34 107.98 C 95.50 108.86 97.85 109.08 97.24 111.12 C 94.29 111.52 92.20 108.13 93.73 105.65 C 94.59 103.54 97.23 104.61 98.89 104.71 L 98.67 102.99 C 96.95 103.17 95.08 102.77 93.46 103.53 M 99.44 102.94 C 99.44 105.97 99.45 109.01 99.44 112.04 C 101.78 112.02 104.14 112.09 106.46 111.71 C 104.75 111.10 102.93 110.97 101.14 110.83 C 101.13 110.19 101.11 108.91 101.10 108.27 C 102.63 108.00 104.15 107.73 105.64 107.28 C 104.51 107.17 102.26 106.94 101.13 106.83 C 101.14 106.15 101.14 104.79 101.15 104.11 C 102.91 104.06 104.67 103.94 106.43 103.75 C 104.22 102.78 101.78 103.01 99.44 102.94 M 49.44 114.92 C 49.44 117.93 49.44 120.94 49.42 123.95 C 49.86 123.96 50.73 124.00 51.17 124.01 C 51.17 123.26 51.17 121.76 51.17 121.00 C 52.11 121.00 53.99 120.99 54.92 120.99 L 54.27 120.15 C 54.86 119.97 56.04 119.62 56.63 119.44 C 56.55 120.57 56.41 122.83 56.34 123.97 C 61.23 125.01 66.11 121.70 70.71 124.17 C 69.36 121.01 68.03 117.83 66.48 114.75 C 65.12 117.57 63.87 120.44 62.78 123.38 C 61.23 123.17 59.68 122.99 58.13 122.84 C 58.17 120.30 58.28 117.76 58.11 115.22 C 56.75 114.27 55.95 115.72 55.07 116.53 C 54.42 114.00 51.30 115.38 49.44 114.92 Z" />
<path fill="#000000" opacity="1.00" d=" M 58.99 21.30 C 59.97 19.80 62.51 21.43 61.33 22.89 C 60.35 24.37 57.79 22.77 58.99 21.30 Z" />
<path fill="#000000" opacity="1.00" d=" M 50.53 24.79 C 57.02 24.82 63.51 24.80 70.01 24.80 C 70.02 30.54 70.01 36.27 70.02 42.00 C 63.52 42.00 57.02 42.00 50.53 42.00 C 50.53 36.26 50.53 30.53 50.53 24.79 Z" />
<path fill="#000000" opacity="1.00" d=" M 58.99 43.62 C 59.73 43.59 60.47 43.56 61.22 43.53 C 61.17 45.47 61.11 47.40 60.99 49.34 C 58.32 48.54 59.10 45.75 58.99 43.62 Z" />
<path fill="#000000" opacity="1.00" d=" M 50.03 62.06 C 51.65 60.25 54.16 59.89 56.36 59.21 C 56.37 62.19 56.36 65.16 56.37 68.14 C 53.17 68.14 49.99 68.57 46.97 69.64 C 47.77 67.06 48.05 64.08 50.03 62.06 Z" />
<path fill="#000000" opacity="1.00" d=" M 62.06 59.30 C 63.99 59.74 66.06 60.00 67.67 61.26 C 70.30 63.13 70.86 66.58 71.58 69.50 C 68.47 68.57 65.25 68.14 62.00 68.15 C 62.00 65.19 61.99 62.24 62.06 59.30 Z" />
<path fill="#000000" opacity="1.00" d=" M 45.61 73.54 C 48.13 70.16 52.51 69.91 56.34 69.89 C 56.36 70.74 56.38 72.46 56.40 73.31 C 52.83 72.37 49.11 72.08 45.61 73.54 Z" />
<path fill="#000000" opacity="1.00" d=" M 62.00 69.91 C 65.93 69.79 70.30 70.23 72.94 73.51 C 69.38 72.18 65.63 72.35 62.00 73.34 C 62.00 72.48 62.00 70.77 62.00 69.91 Z" />
<path fill="#000000" opacity="1.00" d=" M 50.41 74.08 C 53.63 74.45 56.76 75.70 60.04 75.53 C 62.74 75.31 65.36 74.61 67.97 73.92 C 71.69 74.43 73.17 77.91 73.97 81.14 C 72.19 84.58 70.52 88.06 69.48 91.80 C 66.83 91.75 65.10 88.30 63.00 86.72 C 62.59 84.74 61.62 81.78 59.06 82.17 C 56.58 82.13 56.10 84.82 55.72 86.69 C 53.54 88.69 51.35 90.68 49.29 92.79 C 48.38 88.67 46.70 84.77 44.53 81.17 C 45.67 78.27 46.60 74.29 50.41 74.08 M 49.09 77.99 C 47.21 83.02 54.76 84.06 57.61 81.62 C 58.35 79.97 57.89 78.09 57.91 76.34 C 55.01 74.93 50.59 74.34 49.09 77.99 M 61.25 76.27 C 59.25 78.16 60.22 82.14 63.01 82.68 C 64.98 82.91 67.13 82.89 68.86 81.78 C 70.61 80.80 69.90 78.38 68.94 77.06 C 67.30 74.44 63.57 74.87 61.25 76.27 Z" />
<path fill="#000000" opacity="1.00" d=" M 57.61 87.08 C 58.04 85.73 57.86 83.51 59.93 83.92 C 60.48 84.82 60.97 85.76 61.39 86.73 C 60.44 86.82 58.56 87.00 57.61 87.08 Z" />
<path fill="#000000" opacity="1.00" d=" M 70.65 94.69 C 71.57 90.80 72.88 87.01 74.77 83.47 C 75.58 85.84 76.36 88.23 77.15 90.61 C 74.97 91.95 72.83 93.36 70.65 94.69 Z" />
<path fill="#000000" opacity="1.00" d=" M 41.49 90.61 C 42.21 88.25 42.98 85.91 43.83 83.61 C 45.83 87.10 47.07 90.94 47.92 94.85 C 45.82 93.38 43.67 91.97 41.49 90.61 Z" />
<path fill="#000000" opacity="1.00" d=" M 49.97 94.34 C 51.58 93.83 52.15 94.39 51.66 96.01 C 50.03 96.52 49.46 95.96 49.97 94.34 Z" />
<path fill="#000000" opacity="1.00" d=" M 67.00 94.35 C 68.61 93.83 69.17 94.38 68.70 96.01 C 67.08 96.53 66.51 95.98 67.00 94.35 Z" />
<path fill="#000000" opacity="1.00" d=" M 16.22 103.56 C 17.07 104.36 19.15 104.45 18.96 105.96 C 19.42 107.55 17.07 107.64 16.24 108.45 C 16.20 106.82 16.20 105.19 16.22 103.56 Z" />
<path fill="#000000" opacity="1.00" d=" M 23.22 103.57 C 24.13 104.32 26.21 104.50 25.95 106.09 C 26.43 107.67 24.05 107.60 23.23 108.35 C 23.20 106.76 23.20 105.16 23.22 103.57 Z" />
<path fill="#000000" opacity="1.00" d=" M 54.65 109.90 C 54.03 109.08 54.55 107.14 55.78 107.42 C 56.64 108.11 56.84 108.94 56.38 109.93 C 55.94 109.92 55.08 109.91 54.65 109.90 Z" />
<path fill="#000000" opacity="1.00" d=" M 85.65 109.90 C 85.03 109.08 85.54 107.15 86.78 107.41 C 87.64 108.10 87.84 108.93 87.37 109.92 C 86.94 109.92 86.08 109.91 85.65 109.90 Z" />
<path fill="#000000" opacity="1.00" d=" M 65.74 119.86 C 66.82 118.33 68.25 120.91 67.41 121.89 C 66.12 123.23 64.63 121.00 65.74 119.86 Z" />
</g>
<g id="#7e7f7eff">
<path fill="#7e7f7e" opacity="1.00" d=" M 33.20 10.30 C 48.44 9.72 63.71 10.23 78.96 10.03 C 85.35 9.84 91.86 11.20 97.35 14.57 C 106.87 20.15 113.07 30.93 112.93 41.98 C 112.94 61.00 113.01 80.03 112.90 99.05 C 112.80 114.96 98.97 129.24 83.07 129.84 C 70.37 130.11 57.67 129.87 44.98 129.95 C 39.65 129.90 34.22 130.32 29.01 128.94 C 14.50 125.45 4.00 110.86 5.03 96.00 C 5.10 77.66 4.97 59.33 5.09 40.99 C 5.22 25.66 17.96 11.79 33.20 10.30 M 33.23 12.31 C 19.06 13.72 7.21 26.70 7.10 40.94 C 6.97 59.95 7.09 78.96 7.08 97.97 C 6.81 109.27 13.80 120.20 23.98 124.99 C 29.51 127.92 35.91 128.07 42.01 127.95 C 55.35 127.90 68.69 128.03 82.02 127.88 C 93.28 127.76 103.93 120.46 108.39 110.18 C 111.64 103.60 110.84 96.08 110.95 88.99 C 110.86 72.97 111.06 56.95 110.88 40.94 C 110.79 29.49 103.14 18.72 92.63 14.37 C 85.53 11.19 77.58 12.24 70.03 12.06 C 57.77 12.21 45.48 11.73 33.23 12.31 Z" />
</g>
<g id="#e4e7e4ff">
<path fill="#e4e7e4" opacity="1.00" d=" M 48.99 15.27 C 56.55 15.22 64.11 15.19 71.67 15.29 C 71.72 17.25 71.73 19.21 71.74 21.17 C 68.69 21.39 65.63 21.30 62.59 21.57 C 64.74 24.28 68.73 22.53 71.70 23.12 C 71.71 24.57 71.72 26.03 71.71 27.48 C 75.80 27.46 79.89 27.47 83.98 27.46 C 83.99 27.85 84.01 28.62 84.02 29.00 C 79.93 29.00 75.84 29.00 71.75 29.00 C 71.74 29.68 71.70 31.04 71.69 31.72 C 75.77 31.71 79.86 31.72 83.95 31.69 C 83.98 32.14 84.03 33.04 84.06 33.49 C 79.94 33.49 75.83 33.50 71.71 33.48 C 71.74 36.82 71.76 40.16 71.68 43.49 C 68.90 43.58 66.11 43.58 63.33 43.53 C 63.35 45.58 63.36 47.62 63.36 49.67 C 62.70 50.04 61.39 50.78 60.73 51.15 C 60.56 53.22 60.50 55.46 61.88 57.18 C 64.45 58.24 67.56 58.32 69.59 60.47 C 72.49 63.15 72.82 67.29 73.38 70.95 C 75.44 77.59 76.94 84.39 79.04 91.03 C 76.82 93.53 73.55 94.86 70.86 96.81 C 68.90 98.42 66.28 97.94 63.94 98.02 C 59.25 97.90 54.55 98.18 49.87 97.90 C 46.13 96.16 42.89 93.51 39.39 91.35 C 41.60 84.93 43.08 78.31 44.89 71.77 C 45.75 68.03 45.84 63.68 48.76 60.82 C 51.25 57.94 55.29 57.87 58.69 56.86 C 58.09 62.73 57.66 68.84 58.88 74.64 C 61.14 71.18 60.01 66.92 60.29 63.05 C 60.62 58.87 58.59 54.97 58.92 50.78 C 58.46 50.49 57.54 49.92 57.09 49.64 C 57.07 47.62 57.08 45.59 57.08 43.57 C 54.37 43.57 51.67 43.56 48.96 43.50 C 48.96 40.16 48.96 36.82 48.96 33.47 C 44.30 33.50 39.65 33.49 35.00 33.49 L 35.00 31.72 C 39.65 31.72 44.29 31.71 48.94 31.72 C 48.95 31.04 48.97 29.69 48.98 29.01 C 44.32 28.99 39.66 29.00 35.00 29.00 L 35.00 27.47 C 39.65 27.47 44.29 27.46 48.94 27.49 C 48.96 26.01 48.98 24.53 49.01 23.06 C 51.70 23.02 54.39 23.02 57.08 23.02 C 57.08 22.46 57.08 21.90 57.08 21.34 C 54.37 21.36 51.66 21.36 48.95 21.31 C 48.96 19.29 48.97 17.28 48.99 15.27 M 50.42 17.02 C 50.42 17.67 50.41 18.98 50.40 19.63 C 56.92 19.60 63.45 19.60 69.97 19.62 C 69.98 18.97 70.00 17.66 70.01 17.00 C 63.48 17.01 56.95 16.98 50.42 17.02 M 58.99 21.30 C 57.79 22.77 60.35 24.37 61.33 22.89 C 62.51 21.43 59.97 19.80 58.99 21.30 M 50.53 24.79 C 50.53 30.53 50.53 36.26 50.53 42.00 C 57.02 42.00 63.52 42.00 70.02 42.00 C 70.01 36.27 70.02 30.54 70.01 24.80 C 63.51 24.80 57.02 24.82 50.53 24.79 M 58.99 43.62 C 59.10 45.75 58.32 48.54 60.99 49.34 C 61.11 47.40 61.17 45.47 61.22 43.53 C 60.47 43.56 59.73 43.59 58.99 43.62 M 50.03 62.06 C 48.05 64.08 47.77 67.06 46.97 69.64 C 49.99 68.57 53.17 68.14 56.37 68.14 C 56.36 65.16 56.37 62.19 56.36 59.21 C 54.16 59.89 51.65 60.25 50.03 62.06 M 62.06 59.30 C 61.99 62.24 62.00 65.19 62.00 68.15 C 65.25 68.14 68.47 68.57 71.58 69.50 C 70.86 66.58 70.30 63.13 67.67 61.26 C 66.06 60.00 63.99 59.74 62.06 59.30 M 45.61 73.54 C 49.11 72.08 52.83 72.37 56.40 73.31 C 56.38 72.46 56.36 70.74 56.34 69.89 C 52.51 69.91 48.13 70.16 45.61 73.54 M 62.00 69.91 C 62.00 70.77 62.00 72.48 62.00 73.34 C 65.63 72.35 69.38 72.18 72.94 73.51 C 70.30 70.23 65.93 69.79 62.00 69.91 M 50.41 74.08 C 46.60 74.29 45.67 78.27 44.53 81.17 C 46.70 84.77 48.38 88.67 49.29 92.79 C 51.35 90.68 53.54 88.69 55.72 86.69 C 56.10 84.82 56.58 82.13 59.06 82.17 C 61.62 81.78 62.59 84.74 63.00 86.72 C 65.10 88.30 66.83 91.75 69.48 91.80 C 70.52 88.06 72.19 84.58 73.97 81.14 C 73.17 77.91 71.69 74.43 67.97 73.92 C 65.36 74.61 62.74 75.31 60.04 75.53 C 56.76 75.70 53.63 74.45 50.41 74.08 M 57.61 87.08 C 58.56 87.00 60.44 86.82 61.39 86.73 C 60.97 85.76 60.48 84.82 59.93 83.92 C 57.86 83.51 58.04 85.73 57.61 87.08 M 70.65 94.69 C 72.83 93.36 74.97 91.95 77.15 90.61 C 76.36 88.23 75.58 85.84 74.77 83.47 C 72.88 87.01 71.57 90.80 70.65 94.69 M 41.49 90.61 C 43.67 91.97 45.82 93.38 47.92 94.85 C 47.07 90.94 45.83 87.10 43.83 83.61 C 42.98 85.91 42.21 88.25 41.49 90.61 M 52.07 92.40 C 53.12 93.95 54.04 95.58 55.12 97.12 C 55.16 94.93 55.21 92.74 55.36 90.56 C 57.60 91.32 56.83 93.87 56.44 95.58 C 57.63 95.90 58.85 95.76 59.99 95.30 L 58.25 94.66 C 58.28 93.50 58.32 91.19 58.34 90.03 L 59.79 90.00 C 58.80 89.35 57.79 88.72 56.77 88.11 C 55.23 89.56 53.67 91.01 52.07 92.40 M 60.04 95.06 C 60.19 96.46 61.78 95.72 62.61 95.57 C 61.45 93.91 61.29 91.56 63.23 90.36 C 63.48 92.61 63.18 94.85 62.81 97.06 C 64.73 96.07 65.44 94.00 66.55 92.32 C 64.58 90.68 62.76 88.67 60.15 88.07 C 60.02 90.39 59.87 92.73 60.04 95.06 M 49.97 94.34 C 49.46 95.96 50.03 96.52 51.66 96.01 C 52.15 94.39 51.58 93.83 49.97 94.34 M 67.00 94.35 C 66.51 95.98 67.08 96.53 68.70 96.01 C 69.17 94.38 68.61 93.83 67.00 94.35 Z" />
<path fill="#e4e7e4" opacity="1.00" d=" M 49.09 77.99 C 50.59 74.34 55.01 74.93 57.91 76.34 C 57.89 78.09 58.35 79.97 57.61 81.62 C 54.76 84.06 47.21 83.02 49.09 77.99 M 51.75 76.94 C 51.31 78.05 50.49 79.10 50.58 80.34 C 52.33 81.21 54.33 80.92 56.21 81.04 C 56.24 79.74 56.26 78.43 56.25 77.13 C 54.75 77.06 53.25 77.00 51.75 76.94 Z" />
<path fill="#e4e7e4" opacity="1.00" d=" M 61.25 76.27 C 63.57 74.87 67.30 74.44 68.94 77.06 C 69.90 78.38 70.61 80.80 68.86 81.78 C 67.13 82.89 64.98 82.91 63.01 82.68 C 60.22 82.14 59.25 78.16 61.25 76.27 M 61.99 79.06 C 61.88 81.71 65.42 80.80 67.10 81.07 C 67.40 80.62 67.99 79.73 68.28 79.28 C 67.88 78.70 67.07 77.52 66.67 76.94 C 65.02 77.10 61.74 76.47 61.99 79.06 Z" />
<path fill="#e4e7e4" opacity="1.00" d=" M 14.44 102.91 C 16.84 103.08 20.96 102.29 20.64 105.96 C 21.05 108.81 18.18 109.07 16.10 109.24 C 16.12 109.93 16.17 111.32 16.19 112.01 C 15.75 112.00 14.86 111.96 14.42 111.94 C 14.45 108.93 14.44 105.92 14.44 102.91 M 16.22 103.56 C 16.20 105.19 16.20 106.82 16.24 108.45 C 17.07 107.64 19.42 107.55 18.96 105.96 C 19.15 104.45 17.07 104.36 16.22 103.56 Z" />
<path fill="#e4e7e4" opacity="1.00" d=" M 21.45 102.89 C 23.21 103.00 25.02 102.93 26.75 103.37 C 28.85 106.12 25.68 109.53 27.65 112.48 C 25.94 111.58 24.92 109.91 23.67 108.52 C 23.65 110.30 22.95 111.65 21.57 112.56 C 21.38 109.34 21.44 106.11 21.45 102.89 M 23.22 103.57 C 23.20 105.16 23.20 106.76 23.23 108.35 C 24.05 107.60 26.43 107.67 25.95 106.09 C 26.21 104.50 24.13 104.32 23.22 103.57 Z" />
<path fill="#e4e7e4" opacity="1.00" d=" M 28.44 102.96 C 30.76 102.98 33.10 102.90 35.40 103.28 C 33.71 103.90 31.91 104.04 30.13 104.18 C 30.13 104.84 30.13 106.15 30.13 106.81 C 31.25 106.94 33.50 107.21 34.62 107.34 C 33.14 107.77 31.62 108.01 30.10 108.26 C 30.11 108.91 30.13 110.19 30.14 110.84 C 31.94 110.97 33.75 111.09 35.46 111.70 C 33.14 112.09 30.78 112.02 28.44 112.04 C 28.44 109.02 28.44 105.99 28.44 102.96 Z" />
<path fill="#e4e7e4" opacity="1.00" d=" M 36.34 104.37 C 37.81 102.38 40.77 102.77 42.68 103.87 C 39.97 103.99 37.35 104.84 36.56 107.71 C 38.26 109.84 40.89 110.24 43.40 110.73 C 43.34 108.16 43.33 105.59 43.32 103.02 C 43.73 103.01 44.54 103.00 44.94 102.99 C 44.94 104.33 44.94 105.67 44.94 107.01 C 45.79 107.02 47.49 107.02 48.34 107.02 C 48.33 105.69 48.32 104.37 48.31 103.05 C 48.72 103.03 49.54 103.00 49.95 102.98 C 49.95 105.99 49.95 109.00 49.95 112.01 C 49.54 112.00 48.73 111.98 48.32 111.97 C 48.33 110.64 48.34 109.32 48.34 108.00 C 47.49 108.00 45.78 108.00 44.92 108.00 C 44.95 109.31 44.99 110.63 45.02 111.95 C 42.51 110.67 39.41 112.68 37.20 110.78 C 35.21 109.35 34.66 106.26 36.34 104.37 Z" />
<path fill="#e4e7e4" opacity="1.00" d=" M 51.29 112.18 C 52.66 109.01 53.99 105.82 55.55 102.75 C 57.02 105.86 58.36 109.02 59.72 112.18 C 56.99 110.80 54.02 110.79 51.29 112.18 M 54.65 109.90 C 55.08 109.91 55.94 109.92 56.38 109.93 C 56.84 108.94 56.64 108.11 55.78 107.42 C 54.55 107.14 54.03 109.08 54.65 109.90 Z" />
<path fill="#e4e7e4" opacity="1.00" d=" M 60.32 103.01 C 60.72 103.01 61.52 103.00 61.92 102.99 C 62.22 105.59 61.13 108.83 63.10 110.93 C 67.29 111.15 65.17 105.58 65.69 103.01 L 67.52 103.02 C 67.34 105.84 68.11 109.01 66.35 111.48 C 64.55 112.18 61.52 112.55 60.71 110.29 C 60.00 107.95 60.43 105.43 60.32 103.01 Z" />
<path fill="#e4e7e4" opacity="1.00" d=" M 68.44 102.99 C 73.11 103.14 77.81 102.75 82.46 103.29 C 80.75 103.91 78.93 104.03 77.14 104.16 C 77.13 104.81 77.11 106.09 77.10 106.73 C 78.62 106.99 80.13 107.25 81.61 107.69 C 80.12 107.90 78.63 108.06 77.13 108.16 C 77.15 109.45 77.17 110.74 77.18 112.03 C 76.74 112.00 75.85 111.95 75.41 111.92 C 75.44 109.10 75.43 106.27 75.52 103.45 C 73.73 103.75 71.93 104.00 70.12 104.19 C 70.13 104.85 70.13 106.17 70.14 106.83 C 71.26 106.94 73.50 107.16 74.61 107.27 C 73.18 107.68 71.72 108.00 70.24 108.25 C 70.07 109.84 70.64 111.97 68.56 112.54 C 68.39 109.36 68.44 106.17 68.44 102.99 Z" />
<path fill="#e4e7e4" opacity="1.00" d=" M 82.29 112.18 C 83.66 109.01 84.99 105.83 86.55 102.74 C 88.02 105.85 89.36 109.02 90.72 112.18 C 87.99 110.79 85.02 110.79 82.29 112.18 M 85.65 109.90 C 86.08 109.91 86.94 109.92 87.37 109.92 C 87.84 108.93 87.64 108.10 86.78 107.41 C 85.54 107.15 85.03 109.08 85.65 109.90 Z" />
<path fill="#e4e7e4" opacity="1.00" d=" M 93.46 103.53 C 95.08 102.77 96.95 103.17 98.67 102.99 L 98.89 104.71 C 97.23 104.61 94.59 103.54 93.73 105.65 C 92.20 108.13 94.29 111.52 97.24 111.12 C 97.85 109.08 95.50 108.86 94.34 107.98 C 95.92 107.99 97.50 108.01 99.08 108.05 C 98.97 109.33 98.85 110.61 98.73 111.90 C 96.64 111.79 93.98 112.51 92.51 110.56 C 90.57 108.50 91.20 105.06 93.46 103.53 Z" />
<path fill="#e4e7e4" opacity="1.00" d=" M 99.44 102.94 C 101.78 103.01 104.22 102.78 106.43 103.75 C 104.67 103.94 102.91 104.06 101.15 104.11 C 101.14 104.79 101.14 106.15 101.13 106.83 C 102.26 106.94 104.51 107.17 105.64 107.28 C 104.15 107.73 102.63 108.00 101.10 108.27 C 101.11 108.91 101.13 110.19 101.14 110.83 C 102.93 110.97 104.75 111.10 106.46 111.71 C 104.14 112.09 101.78 112.02 99.44 112.04 C 99.45 109.01 99.44 105.97 99.44 102.94 Z" />
<path fill="#e4e7e4" opacity="1.00" d=" M 49.44 114.92 C 51.30 115.38 54.42 114.00 55.07 116.53 C 55.95 115.72 56.75 114.27 58.11 115.22 C 58.28 117.76 58.17 120.30 58.13 122.84 C 59.68 122.99 61.23 123.17 62.78 123.38 C 63.87 120.44 65.12 117.57 66.48 114.75 C 68.03 117.83 69.36 121.01 70.71 124.17 C 66.11 121.70 61.23 125.01 56.34 123.97 C 56.41 122.83 56.55 120.57 56.63 119.44 C 56.04 119.62 54.86 119.97 54.27 120.15 L 54.92 120.99 C 53.99 120.99 52.11 121.00 51.17 121.00 C 51.17 121.76 51.17 123.26 51.17 124.01 C 50.73 124.00 49.86 123.96 49.42 123.95 C 49.44 120.94 49.44 117.93 49.44 114.92 M 51.03 115.54 C 51.00 117.18 50.99 118.82 50.99 120.46 C 51.99 119.74 54.53 119.79 54.06 117.98 C 54.51 116.23 51.95 116.35 51.03 115.54 M 65.74 119.86 C 64.63 121.00 66.12 123.23 67.41 121.89 C 68.25 120.91 66.82 118.33 65.74 119.86 Z" />
</g>
<g id="#313431ff">
<path fill="#313431" opacity="1.00" d=" M 50.42 17.02 C 56.95 16.98 63.48 17.01 70.01 17.00 C 70.00 17.66 69.98 18.97 69.97 19.62 C 63.45 19.60 56.92 19.60 50.40 19.63 C 50.41 18.98 50.42 17.67 50.42 17.02 Z" />
<path fill="#313431" opacity="1.00" d=" M 51.75 76.94 C 53.25 77.00 54.75 77.06 56.25 77.13 C 56.26 78.43 56.24 79.74 56.21 81.04 C 54.33 80.92 52.33 81.21 50.58 80.34 C 50.49 79.10 51.31 78.05 51.75 76.94 Z" />
<path fill="#313431" opacity="1.00" d=" M 61.99 79.06 C 61.74 76.47 65.02 77.10 66.67 76.94 C 67.07 77.52 67.88 78.70 68.28 79.28 C 67.99 79.73 67.40 80.62 67.10 81.07 C 65.42 80.80 61.88 81.71 61.99 79.06 Z" />
<path fill="#313431" opacity="1.00" d=" M 52.07 92.40 C 53.67 91.01 55.23 89.56 56.77 88.11 C 57.79 88.72 58.80 89.35 59.79 90.00 L 58.34 90.03 C 58.32 91.19 58.28 93.50 58.25 94.66 L 59.99 95.30 C 58.85 95.76 57.63 95.90 56.44 95.58 C 56.83 93.87 57.60 91.32 55.36 90.56 C 55.21 92.74 55.16 94.93 55.12 97.12 C 54.04 95.58 53.12 93.95 52.07 92.40 Z" />
<path fill="#313431" opacity="1.00" d=" M 60.04 95.06 C 59.87 92.73 60.02 90.39 60.15 88.07 C 62.76 88.67 64.58 90.68 66.55 92.32 C 65.44 94.00 64.73 96.07 62.81 97.06 C 63.18 94.85 63.48 92.61 63.23 90.36 C 61.29 91.56 61.45 93.91 62.61 95.57 C 61.78 95.72 60.19 96.46 60.04 95.06 Z" />
<path fill="#313431" opacity="1.00" d=" M 51.03 115.54 C 51.95 116.35 54.51 116.23 54.06 117.98 C 54.53 119.79 51.99 119.74 50.99 120.46 C 50.99 118.82 51.00 117.18 51.03 115.54 Z" />
</g>
</svg>
