<?xml version="1.0" encoding="UTF-8" ?>
<!DOCTYPE svg PUBLIC "-//W3C//DTD SVG 1.1//EN" "http://www.w3.org/Graphics/SVG/1.1/DTD/svg11.dtd">
<svg width="117px" height="140px" viewBox="0 0 117 140" version="1.1" xmlns="http://www.w3.org/2000/svg">
<g id="#000000ff">
<path fill="#000000" opacity="1.00" d=" M 0.00 0.00 L 117.00 0.00 L 117.00 140.00 L 0.00 140.00 L 0.00 0.00 M 33.14 10.18 C 17.89 11.78 5.13 25.63 4.99 41.00 C 5.03 60.68 4.95 80.36 5.03 100.04 C 5.69 115.62 19.30 129.27 34.89 129.96 C 50.60 130.06 66.32 129.97 82.04 130.00 C 98.03 129.88 112.33 115.99 112.97 100.02 C 113.06 80.68 112.95 61.34 113.02 42.00 C 113.13 33.36 109.38 24.80 103.13 18.87 C 97.02 12.94 88.46 9.67 79.96 9.98 C 64.35 10.16 48.73 9.73 33.14 10.18 Z" />
<path fill="#000000" opacity="1.00" d=" M 30.54 12.73 C 34.63 11.76 38.85 12.03 43.01 12.00 C 56.37 12.06 69.73 11.88 83.08 12.09 C 97.96 12.83 110.81 26.13 110.96 41.04 C 111.02 60.37 111.03 79.70 110.96 99.03 C 110.80 114.27 97.30 127.77 82.06 127.94 C 66.36 128.01 50.66 128.08 34.96 127.91 C 20.10 127.20 7.23 113.94 7.03 99.05 C 6.98 79.68 6.98 60.30 7.03 40.93 C 7.31 27.63 17.52 15.41 30.54 12.73 M 52.59 27.00 C 52.64 33.20 52.57 39.40 52.65 45.59 C 46.43 45.63 40.22 45.60 34.00 45.61 C 34.07 49.74 33.85 53.87 34.08 58.00 C 34.31 58.29 34.78 58.87 35.02 59.16 C 40.89 59.42 46.78 59.15 52.66 59.29 C 52.68 65.18 52.41 71.09 52.76 76.98 C 54.63 78.85 57.61 77.63 59.97 77.99 C 61.99 77.71 64.56 78.73 66.09 76.97 C 66.49 71.09 66.16 65.17 66.22 59.26 C 72.14 59.12 78.09 59.53 83.98 59.07 C 84.21 58.79 84.66 58.22 84.88 57.94 C 85.14 53.84 84.86 49.72 85.00 45.62 C 78.73 45.60 72.46 45.63 66.19 45.60 C 66.32 39.40 66.23 33.20 66.26 27.00 C 61.70 27.00 57.15 27.00 52.59 27.00 Z" />
<path fill="#000000" opacity="1.00" d=" M 56.05 30.23 C 58.31 30.23 60.58 30.23 62.85 30.23 C 62.83 36.50 62.82 42.78 62.84 49.06 C 69.11 49.09 75.38 49.03 81.64 49.10 C 81.62 51.33 81.63 53.56 81.67 55.79 C 75.39 55.88 69.11 55.81 62.84 55.84 C 62.84 62.10 62.81 68.36 62.87 74.62 C 60.61 74.60 58.35 74.61 56.09 74.66 C 56.01 68.39 56.10 62.11 56.06 55.84 C 49.77 55.81 43.47 55.88 37.18 55.79 C 37.21 53.56 37.22 51.33 37.21 49.10 C 43.45 49.03 49.69 49.06 55.93 49.08 C 56.22 42.80 56.00 36.51 56.05 30.23 Z" />
</g>
<g id="#6a6b6aff">
<path fill="#6a6b6a" opacity="1.00" d=" M 33.14 10.18 C 48.73 9.73 64.35 10.16 79.96 9.98 C 88.46 9.67 97.02 12.94 103.13 18.87 C 109.38 24.80 113.13 33.36 113.02 42.00 C 112.95 61.34 113.06 80.68 112.97 100.02 C 112.33 115.99 98.03 129.88 82.04 130.00 C 66.32 129.97 50.60 130.06 34.89 129.96 C 19.30 129.27 5.69 115.62 5.03 100.04 C 4.95 80.36 5.03 60.68 4.99 41.00 C 5.13 25.63 17.89 11.78 33.14 10.18 M 30.54 12.73 C 17.52 15.41 7.31 27.63 7.03 40.93 C 6.98 60.30 6.98 79.68 7.03 99.05 C 7.23 113.94 20.10 127.20 34.96 127.91 C 50.66 128.08 66.36 128.01 82.06 127.94 C 97.30 127.77 110.80 114.27 110.96 99.03 C 111.03 79.70 111.02 60.37 110.96 41.04 C 110.81 26.13 97.96 12.83 83.08 12.09 C 69.73 11.88 56.37 12.06 43.01 12.00 C 38.85 12.03 34.63 11.76 30.54 12.73 Z" />
</g>
<g id="#f8fcf8ff">
<path fill="#f8fcf8" opacity="1.00" d=" M 52.59 27.00 C 57.15 27.00 61.70 27.00 66.26 27.00 C 66.23 33.20 66.32 39.40 66.19 45.60 C 72.46 45.63 78.73 45.60 85.00 45.62 C 84.86 49.72 85.14 53.84 84.88 57.94 C 84.66 58.22 84.21 58.79 83.98 59.07 C 78.09 59.53 72.14 59.12 66.22 59.26 C 66.16 65.17 66.49 71.09 66.09 76.97 C 64.56 78.73 61.99 77.71 59.97 77.99 C 57.61 77.63 54.63 78.85 52.76 76.98 C 52.41 71.09 52.68 65.18 52.66 59.29 C 46.78 59.15 40.89 59.42 35.02 59.16 C 34.78 58.87 34.31 58.29 34.08 58.00 C 33.85 53.87 34.07 49.74 34.00 45.61 C 40.22 45.60 46.43 45.63 52.65 45.59 C 52.57 39.40 52.64 33.20 52.59 27.00 M 56.05 30.23 C 56.00 36.51 56.22 42.80 55.93 49.08 C 49.69 49.06 43.45 49.03 37.21 49.10 C 37.22 51.33 37.21 53.56 37.18 55.79 C 43.47 55.88 49.77 55.81 56.06 55.84 C 56.10 62.11 56.01 68.39 56.09 74.66 C 58.35 74.61 60.61 74.60 62.87 74.62 C 62.81 68.36 62.84 62.10 62.84 55.84 C 69.11 55.81 75.39 55.88 81.67 55.79 C 81.63 53.56 81.62 51.33 81.64 49.10 C 75.38 49.03 69.11 49.09 62.84 49.06 C 62.82 42.78 62.83 36.50 62.85 30.23 C 60.58 30.23 58.31 30.23 56.05 30.23 Z" />
</g>
</svg>
