<?xml version="1.0" encoding="UTF-8" ?>
<!DOCTYPE svg PUBLIC "-//W3C//DTD SVG 1.1//EN" "http://www.w3.org/Graphics/SVG/1.1/DTD/svg11.dtd">
<svg width="117px" height="140px" viewBox="0 0 117 140" version="1.1" xmlns="http://www.w3.org/2000/svg">
<g id="#000000ff">
<path fill="#000000" opacity="1.00" d=" M 0.00 0.00 L 117.00 0.00 L 117.00 140.00 L 0.00 140.00 L 0.00 0.00 M 33.19 10.21 C 17.93 11.76 5.17 25.61 5.01 40.97 C 4.97 59.97 5.03 78.97 4.99 97.96 C 4.83 109.57 11.68 120.87 21.94 126.24 C 26.83 128.89 32.42 130.15 37.97 130.02 C 52.98 129.93 68.00 130.11 83.02 129.94 C 98.63 129.31 112.31 115.63 112.94 100.02 C 113.09 80.70 112.95 61.37 113.01 42.05 C 113.10 33.39 109.38 24.81 103.10 18.87 C 97.01 12.96 88.49 9.74 80.02 9.98 C 64.41 10.17 48.78 9.70 33.19 10.21 Z" />
<path fill="#000000" opacity="1.00" d=" M 30.52 12.70 C 34.27 11.86 38.14 12.00 41.96 12.00 C 55.66 12.06 69.37 11.87 83.07 12.10 C 97.94 12.78 110.84 26.10 110.96 40.99 C 111.05 60.00 110.99 79.00 110.98 98.00 C 111.37 113.26 98.29 127.27 83.04 127.89 C 67.35 128.12 51.64 127.98 35.95 127.96 C 20.71 127.80 7.17 114.29 7.04 99.04 C 6.97 79.68 6.98 60.32 7.04 40.97 C 7.23 27.64 17.51 15.42 30.52 12.70 M 54.00 38.06 C 48.02 42.07 42.00 46.00 36.04 50.03 C 34.39 50.78 34.13 53.35 35.72 54.31 C 40.09 57.64 44.87 60.42 49.39 63.55 C 52.40 65.32 55.03 68.45 58.87 67.92 C 59.85 64.70 59.52 61.31 59.87 58.00 C 64.64 58.40 69.52 59.66 73.21 62.85 C 75.65 64.59 76.89 67.41 79.10 69.37 C 79.92 62.99 78.37 55.91 73.26 51.63 C 69.76 47.85 64.55 46.80 59.67 46.16 C 59.59 43.39 59.80 40.59 59.31 37.84 C 58.13 35.70 55.51 37.04 54.00 38.06 Z" />
</g>
<g id="#706f6dff">
<path fill="#706f6d" opacity="1.00" d=" M 33.19 10.21 C 48.78 9.70 64.41 10.17 80.02 9.98 C 88.49 9.74 97.01 12.96 103.10 18.87 C 109.38 24.81 113.10 33.39 113.01 42.05 C 112.95 61.37 113.09 80.70 112.94 100.02 C 112.31 115.63 98.63 129.31 83.02 129.94 C 68.00 130.11 52.98 129.93 37.97 130.02 C 32.42 130.15 26.83 128.89 21.94 126.24 C 11.68 120.87 4.83 109.57 4.99 97.96 C 5.03 78.97 4.97 59.97 5.01 40.97 C 5.17 25.61 17.93 11.76 33.19 10.21 M 30.52 12.70 C 17.51 15.42 7.23 27.64 7.04 40.97 C 6.98 60.32 6.97 79.68 7.04 99.04 C 7.17 114.29 20.71 127.80 35.95 127.96 C 51.64 127.98 67.35 128.12 83.04 127.89 C 98.29 127.27 111.37 113.26 110.98 98.00 C 110.99 79.00 111.05 60.00 110.96 40.99 C 110.84 26.10 97.94 12.78 83.07 12.10 C 69.37 11.87 55.66 12.06 41.96 12.00 C 38.14 12.00 34.27 11.86 30.52 12.70 Z" />
</g>
<g id="#e86010ff">
<path fill="#e86010" opacity="1.00" d=" M 54.00 38.06 C 55.51 37.04 58.13 35.70 59.31 37.84 C 59.80 40.59 59.59 43.39 59.67 46.16 C 64.55 46.80 69.76 47.85 73.26 51.63 C 78.37 55.91 79.92 62.99 79.10 69.37 C 76.89 67.41 75.65 64.59 73.21 62.85 C 69.52 59.66 64.64 58.40 59.87 58.00 C 59.52 61.31 59.85 64.70 58.87 67.92 C 55.03 68.45 52.40 65.32 49.39 63.55 C 44.87 60.42 40.09 57.64 35.72 54.31 C 34.13 53.35 34.39 50.78 36.04 50.03 C 42.00 46.00 48.02 42.07 54.00 38.06 Z" />
</g>
</svg>
