<?xml version="1.0" encoding="UTF-8" ?>
<!DOCTYPE svg PUBLIC "-//W3C//DTD SVG 1.1//EN" "http://www.w3.org/Graphics/SVG/1.1/DTD/svg11.dtd">
<svg width="117px" height="140px" viewBox="0 0 117 140" version="1.1" xmlns="http://www.w3.org/2000/svg">
<g id="#000000ff">
<path fill="#000000" opacity="1.00" d=" M 0.00 0.00 L 117.00 0.00 L 117.00 140.00 L 0.00 140.00 L 0.00 0.00 M 33.18 10.21 C 17.94 11.77 5.19 25.59 5.02 40.94 C 4.97 59.97 5.02 79.01 4.99 98.04 C 4.90 108.34 10.27 118.44 18.73 124.27 C 24.33 128.19 31.19 130.21 38.02 130.02 C 53.05 129.91 68.09 130.13 83.12 129.92 C 98.67 129.24 112.29 115.64 112.92 100.07 C 113.11 80.73 112.94 61.38 113.00 42.04 C 113.14 31.21 107.22 20.61 98.04 14.91 C 92.42 11.32 85.68 9.71 79.04 9.98 C 63.76 10.17 48.45 9.70 33.18 10.21 Z" />
<path fill="#000000" opacity="1.00" d=" M 33.12 12.26 C 49.40 11.70 65.73 12.11 82.03 12.04 C 97.26 12.18 110.83 25.69 110.96 40.94 C 111.05 59.97 110.99 79.01 110.99 98.05 C 111.19 109.58 103.84 120.66 93.36 125.32 C 88.89 127.48 83.87 128.11 78.96 128.00 C 64.29 127.94 49.62 128.11 34.95 127.92 C 20.09 127.24 7.17 113.92 7.03 99.03 C 6.98 79.68 6.98 60.33 7.03 40.98 C 7.20 26.73 18.98 13.84 33.12 12.26 M 39.16 31.96 C 36.11 36.39 39.64 41.45 40.71 45.91 C 42.83 51.36 43.75 57.61 47.87 62.02 C 49.15 63.78 52.13 64.06 53.49 62.17 C 55.01 65.28 56.01 68.63 57.78 71.61 C 59.15 73.42 60.87 74.93 62.31 76.68 C 69.80 69.05 77.57 61.69 84.91 53.92 C 81.14 50.02 76.91 46.26 71.38 45.24 C 71.63 44.42 72.15 42.79 72.41 41.98 C 69.84 38.35 66.17 35.57 61.92 34.23 C 56.88 32.65 51.97 30.67 46.87 29.30 C 44.08 29.02 40.68 29.18 39.16 31.96 Z" />
<path fill="#000000" opacity="1.00" d=" M 40.94 35.99 C 40.42 33.50 43.17 32.43 44.97 31.59 C 49.54 33.37 54.26 34.75 58.94 36.24 C 60.19 36.89 61.51 37.38 62.89 37.69 C 65.65 38.13 67.34 40.57 69.62 41.94 C 68.55 43.54 66.05 44.57 66.09 46.66 C 71.33 48.20 76.95 49.35 80.99 53.32 C 75.22 60.11 68.39 65.93 62.37 72.49 C 58.01 68.31 57.12 62.04 55.17 56.59 C 53.73 58.01 52.29 59.44 50.85 60.86 C 47.60 58.10 46.57 53.88 45.20 50.04 C 43.92 45.32 41.69 40.82 40.94 35.99 Z" />
</g>
<g id="#6a6e6aff">
<path fill="#6a6e6a" opacity="1.00" d=" M 33.18 10.21 C 48.45 9.70 63.76 10.17 79.04 9.98 C 85.68 9.71 92.42 11.32 98.04 14.91 C 107.22 20.61 113.14 31.21 113.00 42.04 C 112.94 61.38 113.11 80.73 112.92 100.07 C 112.29 115.64 98.67 129.24 83.12 129.92 C 68.09 130.13 53.05 129.91 38.02 130.02 C 31.19 130.21 24.33 128.19 18.73 124.27 C 10.27 118.44 4.90 108.34 4.99 98.04 C 5.02 79.01 4.97 59.97 5.02 40.94 C 5.19 25.59 17.94 11.77 33.18 10.21 M 33.12 12.26 C 18.98 13.84 7.20 26.73 7.03 40.98 C 6.98 60.33 6.98 79.68 7.03 99.03 C 7.17 113.92 20.09 127.24 34.95 127.92 C 49.62 128.11 64.29 127.94 78.96 128.00 C 83.87 128.11 88.89 127.48 93.36 125.32 C 103.84 120.66 111.19 109.58 110.99 98.05 C 110.99 79.01 111.05 59.97 110.96 40.94 C 110.83 25.69 97.26 12.18 82.03 12.04 C 65.73 12.11 49.40 11.70 33.12 12.26 Z" />
</g>
<g id="#f7fbf7ff">
<path fill="#f7fbf7" opacity="1.00" d=" M 39.16 31.96 C 40.68 29.18 44.08 29.02 46.87 29.30 C 51.97 30.67 56.88 32.65 61.92 34.23 C 66.17 35.57 69.84 38.35 72.41 41.98 C 72.15 42.79 71.63 44.42 71.38 45.24 C 76.91 46.26 81.14 50.02 84.91 53.92 C 77.57 61.69 69.80 69.05 62.31 76.68 C 60.87 74.93 59.15 73.42 57.78 71.61 C 56.01 68.63 55.01 65.28 53.49 62.17 C 52.13 64.06 49.15 63.78 47.87 62.02 C 43.75 57.61 42.83 51.36 40.71 45.91 C 39.64 41.45 36.11 36.39 39.16 31.96 M 40.94 35.99 C 41.69 40.82 43.92 45.32 45.20 50.04 C 46.57 53.88 47.60 58.10 50.85 60.86 C 52.29 59.44 53.73 58.01 55.17 56.59 C 57.12 62.04 58.01 68.31 62.37 72.49 C 68.39 65.93 75.22 60.11 80.99 53.32 C 76.95 49.35 71.33 48.20 66.09 46.66 C 66.05 44.57 68.55 43.54 69.62 41.94 C 67.34 40.57 65.65 38.13 62.89 37.69 C 61.51 37.38 60.19 36.89 58.94 36.24 C 54.26 34.75 49.54 33.37 44.97 31.59 C 43.17 32.43 40.42 33.50 40.94 35.99 Z" />
</g>
</svg>
