<?xml version="1.0" encoding="UTF-8" ?>
<!DOCTYPE svg PUBLIC "-//W3C//DTD SVG 1.1//EN" "http://www.w3.org/Graphics/SVG/1.1/DTD/svg11.dtd">
<svg width="45px" height="45px" viewBox="0 0 45 45" version="1.1" xmlns="http://www.w3.org/2000/svg">
<g id="#000000ff">
<path fill="#000000" opacity="1.00" d=" M 0.00 0.00 L 45.00 0.00 L 45.00 45.00 L 0.00 45.00 L 0.00 0.00 M 18.70 14.06 C 18.49 15.71 19.74 17.03 20.33 18.47 C 21.56 20.50 21.42 22.94 21.78 25.21 C 22.74 23.27 24.01 21.28 23.62 19.01 C 23.41 17.04 21.52 15.76 21.17 13.84 C 21.09 12.30 21.25 10.77 21.32 9.24 C 20.31 10.75 18.71 12.10 18.70 14.06 M 26.65 22.43 C 28.26 24.76 28.51 27.58 28.63 30.33 C 31.48 27.25 31.41 22.48 27.98 19.88 C 28.13 17.98 27.83 15.88 29.06 14.25 C 26.24 15.64 24.47 19.74 26.65 22.43 M 14.31 21.65 C 16.02 24.26 16.69 27.27 16.57 30.37 C 17.60 28.74 18.95 27.06 18.85 25.03 C 18.93 22.71 16.58 21.29 16.27 19.11 C 16.21 18.01 16.09 15.79 16.03 14.68 C 14.71 16.68 12.46 19.26 14.31 21.65 M 8.05 33.16 C 8.03 33.87 7.98 35.29 7.95 36.00 C 17.65 36.00 27.34 36.00 37.03 36.00 C 37.01 35.29 36.99 33.88 36.97 33.18 C 27.33 33.11 17.69 33.14 8.05 33.16 Z" />
</g>
<g id="#cccfccff">
<path fill="#cccfcc" opacity="1.00" d=" M 18.70 14.06 C 18.71 12.10 20.31 10.75 21.32 9.24 C 21.25 10.77 21.09 12.30 21.17 13.84 C 21.52 15.76 23.41 17.04 23.62 19.01 C 24.01 21.28 22.74 23.27 21.78 25.21 C 21.42 22.94 21.56 20.50 20.33 18.47 C 19.74 17.03 18.49 15.71 18.70 14.06 Z" />
<path fill="#cccfcc" opacity="1.00" d=" M 26.65 22.43 C 24.47 19.74 26.24 15.64 29.06 14.25 C 27.83 15.88 28.13 17.98 27.98 19.88 C 31.41 22.48 31.48 27.25 28.63 30.33 C 28.51 27.58 28.26 24.76 26.65 22.43 Z" />
<path fill="#cccfcc" opacity="1.00" d=" M 14.31 21.65 C 12.46 19.26 14.71 16.68 16.03 14.68 C 16.09 15.79 16.21 18.01 16.27 19.11 C 16.58 21.29 18.93 22.71 18.85 25.03 C 18.95 27.06 17.60 28.74 16.57 30.37 C 16.69 27.27 16.02 24.26 14.31 21.65 Z" />
<path fill="#cccfcc" opacity="1.00" d=" M 8.05 33.16 C 17.69 33.14 27.33 33.11 36.97 33.18 C 36.99 33.88 37.01 35.29 37.03 36.00 C 27.34 36.00 17.65 36.00 7.95 36.00 C 7.98 35.29 8.03 33.87 8.05 33.16 Z" />
</g>
</svg>
