<?xml version="1.0" encoding="UTF-8" ?>
<!DOCTYPE svg PUBLIC "-//W3C//DTD SVG 1.1//EN" "http://www.w3.org/Graphics/SVG/1.1/DTD/svg11.dtd">
<svg width="117px" height="140px" viewBox="0 0 117 140" version="1.1" xmlns="http://www.w3.org/2000/svg">
<g id="#000000ff">
<path fill="#000000" opacity="1.00" d=" M 0.00 0.00 L 117.00 0.00 L 117.00 140.00 L 0.00 140.00 L 0.00 0.00 M 33.16 10.22 C 17.91 11.80 5.17 25.65 5.02 41.01 C 4.99 60.34 4.99 79.67 5.02 99.00 C 5.15 114.97 18.96 129.25 34.92 129.93 C 50.63 130.08 66.35 129.99 82.06 129.97 C 98.02 129.81 112.27 116.00 112.93 100.06 C 113.10 80.72 112.95 61.36 113.00 42.02 C 113.08 32.87 108.90 23.84 102.00 17.87 C 96.00 12.60 87.97 9.78 80.00 9.98 C 64.39 10.17 48.76 9.69 33.16 10.22 Z" />
<path fill="#000000" opacity="1.00" d=" M 30.49 12.70 C 34.93 11.69 39.50 12.06 44.01 12.00 C 57.01 12.05 70.02 11.90 83.02 12.08 C 97.55 12.73 110.30 25.43 110.91 39.98 C 111.11 56.32 110.94 72.67 111.00 89.01 C 110.92 95.92 111.65 103.18 108.67 109.64 C 104.18 120.54 92.82 128.19 80.98 127.98 C 65.64 127.97 50.30 128.09 34.96 127.92 C 20.08 127.26 7.14 113.92 7.03 99.00 C 6.98 79.66 6.98 60.32 7.02 40.97 C 7.20 27.65 17.48 15.41 30.49 12.70 M 57.20 27.07 C 57.23 34.33 57.27 41.60 57.17 48.86 C 57.96 48.87 59.54 48.90 60.33 48.91 C 60.33 41.61 60.32 34.32 60.34 27.03 C 59.55 27.04 57.98 27.06 57.20 27.07 M 33.73 61.91 C 36.01 71.73 44.82 79.71 54.90 80.77 C 63.16 81.88 71.82 78.52 77.10 72.06 C 82.86 65.47 84.44 55.75 81.56 47.56 C 79.72 42.18 75.79 37.79 71.20 34.56 C 70.44 35.35 69.67 36.15 68.91 36.96 C 75.27 40.62 79.58 47.57 79.83 54.93 C 80.32 63.01 75.86 71.11 68.77 75.03 C 61.55 79.21 51.96 78.70 45.25 73.75 C 39.00 69.38 35.46 61.52 36.23 53.94 C 36.81 46.96 41.00 40.47 47.07 36.99 C 46.34 36.17 45.60 35.36 44.86 34.56 C 35.89 40.20 31.03 51.57 33.73 61.91 Z" />
</g>
<g id="#727372ff">
<path fill="#727372" opacity="1.00" d=" M 33.16 10.22 C 48.76 9.69 64.39 10.17 80.00 9.98 C 87.97 9.78 96.00 12.60 102.00 17.87 C 108.90 23.84 113.08 32.87 113.00 42.02 C 112.95 61.36 113.10 80.72 112.93 100.06 C 112.27 116.00 98.02 129.81 82.06 129.97 C 66.35 129.99 50.63 130.08 34.92 129.93 C 18.96 129.25 5.15 114.97 5.02 99.00 C 4.99 79.67 4.99 60.34 5.02 41.01 C 5.17 25.65 17.91 11.80 33.16 10.22 M 30.49 12.70 C 17.48 15.41 7.20 27.65 7.02 40.97 C 6.98 60.32 6.98 79.66 7.03 99.00 C 7.14 113.92 20.08 127.26 34.96 127.92 C 50.30 128.09 65.64 127.97 80.98 127.98 C 92.82 128.19 104.18 120.54 108.67 109.64 C 111.65 103.18 110.92 95.92 111.00 89.01 C 110.94 72.67 111.11 56.32 110.91 39.98 C 110.30 25.43 97.55 12.73 83.02 12.08 C 70.02 11.90 57.01 12.05 44.01 12.00 C 39.50 12.06 34.93 11.69 30.49 12.70 Z" />
</g>
<g id="#f8fcf8ff">
<path fill="#f8fcf8" opacity="1.00" d=" M 57.20 27.07 C 57.98 27.06 59.55 27.04 60.34 27.03 C 60.32 34.32 60.33 41.61 60.33 48.91 C 59.54 48.90 57.96 48.87 57.17 48.86 C 57.27 41.60 57.23 34.33 57.20 27.07 Z" />
<path fill="#f8fcf8" opacity="1.00" d=" M 33.73 61.91 C 31.03 51.57 35.89 40.20 44.86 34.56 C 45.60 35.36 46.34 36.17 47.07 36.99 C 41.00 40.47 36.81 46.96 36.23 53.94 C 35.46 61.52 39.00 69.38 45.25 73.75 C 51.96 78.70 61.55 79.21 68.77 75.03 C 75.86 71.11 80.32 63.01 79.83 54.93 C 79.58 47.57 75.27 40.62 68.91 36.96 C 69.67 36.15 70.44 35.35 71.20 34.56 C 75.79 37.79 79.72 42.18 81.56 47.56 C 84.44 55.75 82.86 65.47 77.10 72.06 C 71.82 78.52 63.16 81.88 54.90 80.77 C 44.82 79.71 36.01 71.73 33.73 61.91 Z" />
</g>
</svg>
