<?xml version="1.0" encoding="UTF-8" ?>
<!DOCTYPE svg PUBLIC "-//W3C//DTD SVG 1.1//EN" "http://www.w3.org/Graphics/SVG/1.1/DTD/svg11.dtd">
<svg width="45px" height="45px" viewBox="0 0 45 45" version="1.1" xmlns="http://www.w3.org/2000/svg">
<g id="#000000ff">
<path fill="#000000" opacity="1.00" d=" M 0.00 0.00 L 45.00 0.00 L 45.00 45.00 L 0.00 45.00 L 0.00 0.00 M 16.80 6.35 C 16.81 9.97 16.81 13.59 16.81 17.21 C 14.80 17.22 12.80 17.22 10.80 17.23 C 10.80 18.76 10.81 20.29 10.81 21.82 C 12.69 21.80 14.58 21.79 16.47 21.76 C 16.28 25.64 18.96 28.36 21.37 31.01 C 21.41 32.20 21.58 33.38 21.77 34.56 L 24.63 33.19 L 23.23 32.35 C 25.82 29.33 29.56 26.60 29.32 22.17 C 31.12 21.74 32.95 22.10 34.75 22.35 C 34.93 20.65 35.07 18.94 35.20 17.24 C 33.19 17.23 31.17 17.22 29.16 17.20 C 29.16 13.61 29.16 10.01 29.17 6.41 C 25.05 6.23 20.92 6.27 16.80 6.35 M 17.48 33.91 C 17.39 34.56 17.23 35.86 17.15 36.52 L 17.84 36.72 C 18.54 35.70 18.42 34.76 17.48 33.91 Z" />
<path fill="#000000" opacity="1.00" d=" M 18.25 8.67 C 20.88 8.81 23.71 8.21 26.12 9.57 C 23.48 9.99 20.80 10.11 18.13 10.17 C 18.16 9.79 18.22 9.04 18.25 8.67 Z" />
<path fill="#000000" opacity="1.00" d=" M 17.32 11.55 C 19.41 11.34 21.52 11.35 23.61 11.62 C 21.69 12.73 19.17 12.90 17.32 11.55 Z" />
<path fill="#000000" opacity="1.00" d=" M 21.12 21.20 C 21.93 20.52 22.73 19.84 23.53 19.16 C 24.80 21.63 24.18 24.48 24.30 27.14 C 23.77 26.87 23.24 26.60 22.71 26.33 C 23.01 24.69 23.27 23.04 23.47 21.38 C 22.88 21.34 21.71 21.24 21.12 21.20 Z" />
</g>
<g id="#f8fcf8ff">
<path fill="#f8fcf8" opacity="1.00" d=" M 16.80 6.35 C 20.92 6.27 25.05 6.23 29.17 6.41 C 29.16 10.01 29.16 13.61 29.16 17.20 C 31.17 17.22 33.19 17.23 35.20 17.24 C 35.07 18.94 34.93 20.65 34.75 22.35 C 32.95 22.10 31.12 21.74 29.32 22.17 C 29.56 26.60 25.82 29.33 23.23 32.35 L 24.63 33.19 L 21.77 34.56 C 21.58 33.38 21.41 32.20 21.37 31.01 C 18.96 28.36 16.28 25.64 16.47 21.76 C 14.58 21.79 12.69 21.80 10.81 21.82 C 10.81 20.29 10.80 18.76 10.80 17.23 C 12.80 17.22 14.80 17.22 16.81 17.21 C 16.81 13.59 16.81 9.97 16.80 6.35 M 18.25 8.67 C 18.22 9.04 18.16 9.79 18.13 10.17 C 20.80 10.11 23.48 9.99 26.12 9.57 C 23.71 8.21 20.88 8.81 18.25 8.67 M 17.32 11.55 C 19.17 12.90 21.69 12.73 23.61 11.62 C 21.52 11.35 19.41 11.34 17.32 11.55 M 21.12 21.20 C 21.71 21.24 22.88 21.34 23.47 21.38 C 23.27 23.04 23.01 24.69 22.71 26.33 C 23.24 26.60 23.77 26.87 24.30 27.14 C 24.18 24.48 24.80 21.63 23.53 19.16 C 22.73 19.84 21.93 20.52 21.12 21.20 Z" />
<path fill="#f8fcf8" opacity="1.00" d=" M 17.48 33.91 C 18.42 34.76 18.54 35.70 17.84 36.72 L 17.15 36.52 C 17.23 35.86 17.39 34.56 17.48 33.91 Z" />
</g>
</svg>
