<?xml version="1.0" encoding="UTF-8" ?>
<!DOCTYPE svg PUBLIC "-//W3C//DTD SVG 1.1//EN" "http://www.w3.org/Graphics/SVG/1.1/DTD/svg11.dtd">
<svg width="117px" height="140px" viewBox="0 0 117 140" version="1.1" xmlns="http://www.w3.org/2000/svg">
<g id="#000000ff">
<path fill="#000000" opacity="1.00" d=" M 0.00 0.00 L 117.00 0.00 L 117.00 140.00 L 0.00 140.00 L 0.00 0.00 M 33.14 10.23 C 17.91 11.81 5.21 25.63 5.02 40.95 C 4.98 60.31 4.99 79.67 5.02 99.03 C 5.18 114.99 18.98 129.25 34.93 129.92 C 50.62 130.09 66.32 129.99 82.02 129.96 C 97.97 129.84 112.25 116.02 112.92 100.09 C 113.12 81.06 112.93 62.04 113.01 43.01 C 113.27 34.29 109.84 25.51 103.60 19.39 C 97.48 13.15 88.69 9.76 79.97 9.98 C 64.36 10.17 48.73 9.68 33.14 10.23 Z" />
<path fill="#000000" opacity="1.00" d=" M 33.22 12.34 C 48.48 11.71 63.78 12.25 79.05 12.06 C 85.37 11.88 91.82 13.27 97.12 16.82 C 105.60 22.11 111.02 31.98 110.90 41.98 C 110.95 60.66 110.95 79.34 110.91 98.02 C 111.05 109.02 104.46 119.77 94.59 124.63 C 89.84 127.21 84.35 128.03 78.99 127.94 C 64.32 127.85 49.64 128.08 34.97 127.83 C 20.14 127.19 7.25 113.91 7.13 99.06 C 7.03 79.68 7.03 60.30 7.13 40.93 C 7.30 26.71 19.08 13.81 33.22 12.34 M 56.13 38.08 C 55.20 40.96 54.80 43.98 54.99 47.00 C 52.99 47.00 50.99 47.00 49.00 47.00 C 49.00 47.75 49.00 49.25 49.00 50.00 C 50.98 50.00 52.97 50.00 54.95 50.00 C 54.83 52.69 55.35 55.33 56.12 57.90 C 58.69 58.87 61.62 58.67 63.55 56.53 C 66.26 53.82 71.07 52.31 71.47 47.98 C 71.10 43.85 66.60 42.36 63.98 39.82 C 61.96 37.55 58.92 36.95 56.13 38.08 M 42.00 47.00 C 42.00 47.75 42.00 49.25 42.00 50.00 C 44.00 50.00 46.00 50.00 48.00 50.00 C 48.00 49.25 48.00 47.75 48.00 47.00 C 46.00 47.00 44.00 47.00 42.00 47.00 M 57.94 71.09 C 57.66 73.16 57.69 75.26 57.83 77.35 C 52.39 77.43 46.95 77.39 41.51 77.37 C 41.56 75.68 41.60 73.99 41.66 72.30 C 41.02 72.25 39.74 72.17 39.11 72.12 C 39.29 74.65 37.94 78.72 41.10 79.83 C 53.04 80.01 65.02 80.01 76.96 79.83 C 80.04 78.64 78.70 74.67 78.91 72.14 C 78.27 72.18 76.98 72.25 76.34 72.29 C 76.40 73.98 76.44 75.67 76.49 77.37 C 71.04 77.39 65.60 77.44 60.16 77.34 C 59.97 75.16 61.63 70.72 57.94 71.09 Z" />
<path fill="#000000" opacity="1.00" d=" M 60.00 41.81 C 62.67 43.86 65.33 45.93 67.99 48.00 C 65.33 50.07 62.67 52.13 60.00 54.19 C 60.00 50.06 60.00 45.94 60.00 41.81 Z" />
</g>
<g id="#737473ff">
<path fill="#737473" opacity="1.00" d=" M 33.14 10.23 C 48.73 9.68 64.36 10.17 79.97 9.98 C 88.69 9.76 97.48 13.15 103.60 19.39 C 109.84 25.51 113.27 34.29 113.01 43.01 C 112.93 62.04 113.12 81.06 112.92 100.09 C 112.25 116.02 97.97 129.84 82.02 129.96 C 66.32 129.99 50.62 130.09 34.93 129.92 C 18.98 129.25 5.18 114.99 5.02 99.03 C 4.99 79.67 4.98 60.31 5.02 40.95 C 5.21 25.63 17.91 11.81 33.14 10.23 M 33.22 12.34 C 19.08 13.81 7.30 26.71 7.13 40.93 C 7.03 60.30 7.03 79.68 7.13 99.06 C 7.25 113.91 20.14 127.19 34.97 127.83 C 49.64 128.08 64.32 127.85 78.99 127.94 C 84.35 128.03 89.84 127.21 94.59 124.63 C 104.46 119.77 111.05 109.02 110.91 98.02 C 110.95 79.34 110.95 60.66 110.90 41.98 C 111.02 31.98 105.60 22.11 97.12 16.82 C 91.82 13.27 85.37 11.88 79.05 12.06 C 63.78 12.25 48.48 11.71 33.22 12.34 Z" />
</g>
<g id="#f8fcf8ff">
<path fill="#f8fcf8" opacity="1.00" d=" M 56.13 38.08 C 58.92 36.95 61.96 37.55 63.98 39.82 C 66.60 42.36 71.10 43.85 71.47 47.98 C 71.07 52.31 66.26 53.82 63.55 56.53 C 61.62 58.67 58.69 58.87 56.12 57.90 C 55.35 55.33 54.83 52.69 54.95 50.00 C 52.97 50.00 50.98 50.00 49.00 50.00 C 49.00 49.25 49.00 47.75 49.00 47.00 C 50.99 47.00 52.99 47.00 54.99 47.00 C 54.80 43.98 55.20 40.96 56.13 38.08 M 60.00 41.81 C 60.00 45.94 60.00 50.06 60.00 54.19 C 62.67 52.13 65.33 50.07 67.99 48.00 C 65.33 45.93 62.67 43.86 60.00 41.81 Z" />
<path fill="#f8fcf8" opacity="1.00" d=" M 42.00 47.00 C 44.00 47.00 46.00 47.00 48.00 47.00 C 48.00 47.75 48.00 49.25 48.00 50.00 C 46.00 50.00 44.00 50.00 42.00 50.00 C 42.00 49.25 42.00 47.75 42.00 47.00 Z" />
<path fill="#f8fcf8" opacity="1.00" d=" M 57.94 71.09 C 61.63 70.72 59.97 75.16 60.16 77.34 C 65.60 77.44 71.04 77.39 76.49 77.37 C 76.44 75.67 76.40 73.98 76.34 72.29 C 76.98 72.25 78.27 72.18 78.91 72.14 C 78.70 74.67 80.04 78.64 76.96 79.83 C 65.02 80.01 53.04 80.01 41.10 79.83 C 37.94 78.72 39.29 74.65 39.11 72.12 C 39.74 72.17 41.02 72.25 41.66 72.30 C 41.60 73.99 41.56 75.68 41.51 77.37 C 46.95 77.39 52.39 77.43 57.83 77.35 C 57.69 75.26 57.66 73.16 57.94 71.09 Z" />
</g>
</svg>
