<?xml version="1.0" encoding="UTF-8" ?>
<!DOCTYPE svg PUBLIC "-//W3C//DTD SVG 1.1//EN" "http://www.w3.org/Graphics/SVG/1.1/DTD/svg11.dtd">
<svg width="117px" height="140px" viewBox="0 0 117 140" version="1.1" xmlns="http://www.w3.org/2000/svg">
<g id="#000000ff">
<path fill="#000000" opacity="1.00" d=" M 0.00 0.00 L 117.00 0.00 L 117.00 140.00 L 0.00 140.00 L 0.00 0.00 M 33.15 10.23 C 17.92 11.79 5.20 25.63 5.02 40.96 C 4.98 60.32 4.99 79.68 5.02 99.03 C 5.17 115.00 19.01 129.28 34.97 129.92 C 50.66 130.08 66.36 130.00 82.05 129.96 C 98.34 129.85 112.82 115.40 112.97 99.10 C 113.05 80.07 112.98 61.04 113.00 42.01 C 113.06 33.38 109.38 24.84 103.12 18.92 C 97.02 12.96 88.45 9.75 79.95 9.98 C 64.35 10.17 48.74 9.68 33.15 10.23 Z" />
<path fill="#000000" opacity="1.00" d=" M 33.25 12.34 C 48.49 11.71 63.77 12.26 79.02 12.06 C 85.37 11.88 91.85 13.29 97.18 16.86 C 105.64 22.17 111.02 32.03 110.91 42.02 C 110.97 59.35 110.89 76.69 110.94 94.02 C 111.11 100.01 110.60 106.24 107.63 111.58 C 102.78 121.49 92.01 128.00 81.00 127.90 C 65.98 127.93 50.96 127.99 35.95 127.87 C 20.74 127.73 7.23 114.25 7.13 99.03 C 7.03 79.67 7.03 60.30 7.13 40.94 C 7.30 26.71 19.10 13.80 33.25 12.34 M 48.24 31.44 C 49.56 34.86 50.89 38.28 52.23 41.69 C 56.46 39.48 61.54 39.47 65.77 41.70 C 67.11 38.29 68.43 34.87 69.76 31.45 C 63.03 28.20 54.98 28.20 48.24 31.44 M 39.21 42.30 C 37.37 45.87 35.22 50.21 36.74 54.22 C 37.05 53.65 37.68 52.51 37.99 51.94 C 38.75 47.22 40.59 42.51 44.13 39.18 C 45.33 37.90 47.35 36.96 47.02 34.88 C 43.52 36.15 41.13 39.26 39.21 42.30 M 71.15 34.78 C 71.15 35.24 71.16 36.18 71.17 36.65 C 76.30 40.59 79.50 46.54 80.20 52.96 C 82.27 55.45 82.09 51.00 81.62 49.87 C 80.44 43.73 76.82 37.71 71.15 34.78 M 42.09 52.84 C 42.57 52.65 43.54 52.27 44.02 52.08 C 44.58 49.82 45.16 47.46 46.64 45.60 C 47.72 43.96 49.61 42.57 49.04 40.33 C 44.94 43.15 42.37 47.89 42.09 52.84 M 68.96 40.33 C 68.99 40.88 69.06 41.97 69.09 42.52 C 71.38 45.35 73.42 48.43 74.02 52.10 C 74.47 52.29 75.38 52.66 75.84 52.85 C 75.73 47.88 73.02 43.15 68.96 40.33 M 55.31 47.24 C 50.42 49.62 50.32 57.38 55.14 59.88 C 59.59 62.79 66.38 59.43 66.46 54.02 C 67.04 48.37 60.05 44.30 55.31 47.24 M 73.11 55.12 C 72.82 59.84 70.29 64.15 66.25 66.62 C 68.63 69.44 70.97 72.30 73.36 75.12 C 79.56 71.10 83.55 64.22 84.14 56.88 C 80.47 56.28 76.78 55.73 73.11 55.12 M 33.86 56.88 C 34.45 64.22 38.44 71.10 44.63 75.12 C 47.03 72.30 49.37 69.44 51.75 66.61 C 47.73 64.14 45.16 59.85 44.89 55.13 C 41.21 55.73 37.53 56.29 33.86 56.88 M 52.81 69.92 C 56.84 71.32 61.21 71.28 65.24 69.93 C 64.88 69.56 64.17 68.84 63.82 68.47 C 60.61 69.05 57.39 69.05 54.19 68.47 C 53.84 68.83 53.16 69.55 52.81 69.92 M 48.62 74.12 C 54.66 78.19 62.88 77.62 69.26 74.59 C 68.85 74.30 68.02 73.71 67.60 73.42 C 63.79 74.45 59.84 75.56 55.86 74.76 C 53.42 74.59 50.99 72.65 48.62 74.12 Z" />
</g>
<g id="#727372ff">
<path fill="#727372" opacity="1.00" d=" M 33.15 10.23 C 48.74 9.68 64.35 10.17 79.95 9.98 C 88.45 9.75 97.02 12.96 103.12 18.92 C 109.38 24.84 113.06 33.38 113.00 42.01 C 112.98 61.04 113.05 80.07 112.97 99.10 C 112.82 115.40 98.34 129.85 82.05 129.96 C 66.36 130.00 50.66 130.08 34.97 129.92 C 19.01 129.28 5.17 115.00 5.02 99.03 C 4.99 79.68 4.98 60.32 5.02 40.96 C 5.20 25.63 17.92 11.79 33.15 10.23 M 33.25 12.34 C 19.10 13.80 7.30 26.71 7.13 40.94 C 7.03 60.30 7.03 79.67 7.13 99.03 C 7.23 114.25 20.74 127.73 35.95 127.87 C 50.96 127.99 65.98 127.93 81.00 127.90 C 92.01 128.00 102.78 121.49 107.63 111.58 C 110.60 106.24 111.11 100.01 110.94 94.02 C 110.89 76.69 110.97 59.35 110.91 42.02 C 111.02 32.03 105.64 22.17 97.18 16.86 C 91.85 13.29 85.37 11.88 79.02 12.06 C 63.77 12.26 48.49 11.71 33.25 12.34 Z" />
</g>
<g id="#f8fcf8ff">
<path fill="#f8fcf8" opacity="1.00" d=" M 48.24 31.44 C 54.98 28.20 63.03 28.20 69.76 31.45 C 68.43 34.87 67.11 38.29 65.77 41.70 C 61.54 39.47 56.46 39.48 52.23 41.69 C 50.89 38.28 49.56 34.86 48.24 31.44 Z" />
<path fill="#f8fcf8" opacity="1.00" d=" M 39.21 42.30 C 41.13 39.26 43.52 36.15 47.02 34.88 C 47.35 36.96 45.33 37.90 44.13 39.18 C 40.59 42.51 38.75 47.22 37.99 51.94 C 37.68 52.51 37.05 53.65 36.74 54.22 C 35.22 50.21 37.37 45.87 39.21 42.30 Z" />
<path fill="#f8fcf8" opacity="1.00" d=" M 71.15 34.78 C 76.82 37.71 80.44 43.73 81.62 49.87 C 82.09 51.00 82.27 55.45 80.20 52.96 C 79.50 46.54 76.30 40.59 71.17 36.65 C 71.16 36.18 71.15 35.24 71.15 34.78 Z" />
<path fill="#f8fcf8" opacity="1.00" d=" M 42.09 52.84 C 42.37 47.89 44.94 43.15 49.04 40.33 C 49.61 42.57 47.72 43.96 46.64 45.60 C 45.16 47.46 44.58 49.82 44.02 52.08 C 43.54 52.27 42.57 52.65 42.09 52.84 Z" />
<path fill="#f8fcf8" opacity="1.00" d=" M 68.96 40.33 C 73.02 43.15 75.73 47.88 75.84 52.85 C 75.38 52.66 74.47 52.29 74.02 52.10 C 73.42 48.43 71.38 45.35 69.09 42.52 C 69.06 41.97 68.99 40.88 68.96 40.33 Z" />
<path fill="#f8fcf8" opacity="1.00" d=" M 55.31 47.24 C 60.05 44.30 67.04 48.37 66.46 54.02 C 66.38 59.43 59.59 62.79 55.14 59.88 C 50.32 57.38 50.42 49.62 55.31 47.24 Z" />
<path fill="#f8fcf8" opacity="1.00" d=" M 73.11 55.12 C 76.78 55.73 80.47 56.28 84.14 56.88 C 83.55 64.22 79.56 71.10 73.36 75.12 C 70.97 72.30 68.63 69.44 66.25 66.62 C 70.29 64.15 72.82 59.84 73.11 55.12 Z" />
<path fill="#f8fcf8" opacity="1.00" d=" M 33.86 56.88 C 37.53 56.29 41.21 55.73 44.89 55.13 C 45.16 59.85 47.73 64.14 51.75 66.61 C 49.37 69.44 47.03 72.30 44.63 75.12 C 38.44 71.10 34.45 64.22 33.86 56.88 Z" />
<path fill="#f8fcf8" opacity="1.00" d=" M 52.81 69.92 C 53.16 69.55 53.84 68.83 54.19 68.47 C 57.39 69.05 60.61 69.05 63.82 68.47 C 64.17 68.84 64.88 69.56 65.24 69.93 C 61.21 71.28 56.84 71.32 52.81 69.92 Z" />
<path fill="#f8fcf8" opacity="1.00" d=" M 48.62 74.12 C 50.99 72.65 53.42 74.59 55.86 74.76 C 59.84 75.56 63.79 74.45 67.60 73.42 C 68.02 73.71 68.85 74.30 69.26 74.59 C 62.88 77.62 54.66 78.19 48.62 74.12 Z" />
</g>
</svg>
