<?xml version="1.0" encoding="UTF-8" ?>
<!DOCTYPE svg PUBLIC "-//W3C//DTD SVG 1.1//EN" "http://www.w3.org/Graphics/SVG/1.1/DTD/svg11.dtd">
<svg width="117px" height="140px" viewBox="0 0 117 140" version="1.1" xmlns="http://www.w3.org/2000/svg">
<g id="#181818ff">
<path fill="#181818" opacity="1.00" d=" M 0.00 0.00 L 117.00 0.00 L 117.00 102.51 C 115.75 101.04 114.17 99.75 112.11 100.02 C 76.39 99.98 40.66 99.99 4.94 100.02 C 2.74 99.75 0.99 101.03 0.00 102.90 L 0.00 0.00 M 47.93 10.44 C 46.74 11.42 45.00 12.17 44.92 13.97 C 45.02 15.88 46.77 16.87 48.41 17.29 C 48.16 20.51 47.98 23.74 47.97 26.98 C 46.08 27.29 43.36 26.19 42.17 28.15 C 41.73 32.66 42.22 37.21 42.02 41.74 C 41.97 45.97 42.03 50.20 42.00 54.43 C 41.97 61.01 42.03 67.59 42.00 74.17 C 42.43 79.39 40.94 85.04 43.07 89.98 C 46.57 95.94 54.39 93.50 60.05 93.98 C 65.66 93.51 73.40 95.91 76.90 90.02 C 79.05 85.20 77.58 79.64 78.00 74.52 C 77.96 67.80 78.03 61.09 78.00 54.37 C 77.97 50.17 78.03 45.97 77.98 41.77 C 77.78 37.21 78.27 32.63 77.82 28.08 C 76.51 26.22 73.87 27.28 71.96 26.98 C 71.99 22.18 72.01 17.38 72.00 12.58 C 71.68 10.82 72.64 8.37 70.87 7.21 C 63.91 6.76 56.91 7.07 49.93 7.01 C 48.08 6.89 47.86 9.07 47.93 10.44 M 86.37 52.33 C 83.86 53.33 83.10 57.01 85.23 58.78 C 87.22 60.94 91.12 59.76 91.80 56.98 C 92.77 53.96 89.21 50.82 86.37 52.33 M 31.12 70.28 C 27.03 71.51 25.50 77.30 28.84 80.15 C 31.88 83.55 38.07 81.49 38.75 77.09 C 39.81 72.90 35.16 68.70 31.12 70.28 Z" />
<path fill="#181818" opacity="1.00" d=" M 51.13 14.92 C 53.08 14.98 55.04 15.01 57.00 15.03 C 57.00 16.34 57.00 17.65 57.01 18.96 C 54.90 19.00 52.79 19.06 50.68 19.11 C 50.77 18.22 50.96 16.44 51.06 15.55 L 51.13 14.92 Z" />
<path fill="#181818" opacity="1.00" d=" M 62.98 14.98 C 64.98 14.97 66.98 14.93 68.98 14.91 C 68.99 16.26 69.00 17.62 69.00 18.98 C 68.28 18.99 66.84 19.01 66.12 19.02 C 65.33 19.03 63.74 19.06 62.94 19.07 C 62.97 17.71 62.98 16.35 62.98 14.98 Z" />
<path fill="#181818" opacity="1.00" d=" M 46.00 31.00 C 55.34 31.00 64.67 30.99 74.00 31.00 C 74.04 34.59 74.07 38.18 74.02 41.77 C 73.98 45.95 74.02 50.14 74.00 54.32 C 73.98 61.06 74.03 67.79 74.00 74.53 C 73.90 78.66 74.28 82.82 73.77 86.94 C 73.45 89.12 71.11 90.10 69.13 89.98 C 63.05 90.07 56.97 90.06 50.90 89.98 C 48.90 90.11 46.53 89.11 46.22 86.91 C 45.73 82.93 46.09 78.92 46.00 74.92 C 45.97 68.04 46.02 61.16 46.00 54.28 C 45.98 50.10 46.02 45.93 45.97 41.76 C 45.93 38.17 45.96 34.58 46.00 31.00 Z" />
<path fill="#181818" opacity="1.00" d=" M 0.00 138.31 C 1.19 138.14 1.86 138.71 2.00 140.00 L 0.00 140.00 L 0.00 138.31 Z" />
<path fill="#181818" opacity="1.00" d=" M 115.35 140.00 C 115.11 138.63 115.66 138.03 117.00 138.20 L 117.00 140.00 L 115.35 140.00 Z" />
</g>
<g id="#f8b55dff">
<path fill="#f8b55d" opacity="1.00" d=" M 47.93 10.44 C 47.86 9.07 48.08 6.89 49.93 7.01 C 56.91 7.07 63.91 6.76 70.87 7.21 C 72.64 8.37 71.68 10.82 72.00 12.58 C 70.99 13.36 69.99 14.13 68.98 14.91 C 66.98 14.93 64.98 14.97 62.98 14.98 C 62.98 16.35 62.97 17.71 62.94 19.07 C 63.74 19.06 65.33 19.03 66.12 19.02 C 63.97 21.68 61.80 24.34 59.64 27.00 C 55.75 27.02 51.86 27.02 47.97 26.98 C 47.98 23.74 48.16 20.51 48.41 17.29 C 49.31 16.73 50.19 16.15 51.06 15.55 C 50.96 16.44 50.77 18.22 50.68 19.11 C 52.79 19.06 54.90 19.00 57.01 18.96 C 57.00 17.65 57.00 16.34 57.00 15.03 C 55.04 15.01 53.08 14.98 51.13 14.92 C 51.31 12.71 49.64 11.43 47.93 10.44 Z" />
</g>
<g id="#4854f8ff">
<path fill="#4854f8" opacity="1.00" d=" M 44.92 13.97 C 45.00 12.17 46.74 11.42 47.93 10.44 C 49.64 11.43 51.31 12.71 51.13 14.92 L 51.06 15.55 C 50.19 16.15 49.31 16.73 48.41 17.29 C 46.77 16.87 45.02 15.88 44.92 13.97 Z" />
<path fill="#4854f8" opacity="1.00" d=" M 0.00 102.90 C 0.99 101.03 2.74 99.75 4.94 100.02 C 40.66 99.99 76.39 99.98 112.11 100.02 C 114.17 99.75 115.75 101.04 117.00 102.51 L 117.00 138.20 C 115.66 138.03 115.11 138.63 115.35 140.00 L 2.00 140.00 C 1.86 138.71 1.19 138.14 0.00 138.31 L 0.00 102.90 Z" />
</g>
<g id="#f58c3fff">
<path fill="#f58c3f" opacity="1.00" d=" M 68.98 14.91 C 69.99 14.13 70.99 13.36 72.00 12.58 C 72.01 17.38 71.99 22.18 71.96 26.98 C 67.85 27.02 63.75 27.00 59.64 27.00 C 61.80 24.34 63.97 21.68 66.12 19.02 C 66.84 19.01 68.28 18.99 69.00 18.98 C 69.00 17.62 68.99 16.26 68.98 14.91 Z" />
<path fill="#f58c3f" opacity="1.00" d=" M 31.12 70.28 C 35.16 68.70 39.81 72.90 38.75 77.09 C 38.07 81.49 31.88 83.55 28.84 80.15 C 25.50 77.30 27.03 71.51 31.12 70.28 Z" />
</g>
<g id="#9463f7ff">
<path fill="#9463f7" opacity="1.00" d=" M 42.17 28.15 C 43.36 26.19 46.08 27.29 47.97 26.98 C 51.86 27.02 55.75 27.02 59.64 27.00 C 63.75 27.00 67.85 27.02 71.96 26.98 C 73.87 27.28 76.51 26.22 77.82 28.08 C 78.27 32.63 77.78 37.21 77.98 41.77 C 76.66 41.77 75.34 41.77 74.02 41.77 C 74.07 38.18 74.04 34.59 74.00 31.00 C 64.67 30.99 55.34 31.00 46.00 31.00 C 45.96 34.58 45.93 38.17 45.97 41.76 C 44.66 41.75 43.34 41.75 42.02 41.74 C 42.22 37.21 41.73 32.66 42.17 28.15 Z" />
<path fill="#9463f7" opacity="1.00" d=" M 86.37 52.33 C 89.21 50.82 92.77 53.96 91.80 56.98 C 91.12 59.76 87.22 60.94 85.23 58.78 C 83.10 57.01 83.86 53.33 86.37 52.33 Z" />
</g>
<g id="#7056e9ff">
<path fill="#7056e9" opacity="1.00" d=" M 42.02 41.74 C 43.34 41.75 44.66 41.75 45.97 41.76 C 46.02 45.93 45.98 50.10 46.00 54.28 C 44.67 54.33 43.33 54.38 42.00 54.43 C 42.03 50.20 41.97 45.97 42.02 41.74 Z" />
<path fill="#7056e9" opacity="1.00" d=" M 74.02 41.77 C 75.34 41.77 76.66 41.77 77.98 41.77 C 78.03 45.97 77.97 50.17 78.00 54.37 C 76.67 54.35 75.33 54.34 74.00 54.32 C 74.02 50.14 73.98 45.95 74.02 41.77 Z" />
</g>
<g id="#4847daff">
<path fill="#4847da" opacity="1.00" d=" M 42.00 54.43 C 43.33 54.38 44.67 54.33 46.00 54.28 C 46.02 61.16 45.97 68.04 46.00 74.92 C 44.67 74.67 43.33 74.42 42.00 74.17 C 42.03 67.59 41.97 61.01 42.00 54.43 Z" />
<path fill="#4847da" opacity="1.00" d=" M 74.00 54.32 C 75.33 54.34 76.67 54.35 78.00 54.37 C 78.03 61.09 77.96 67.80 78.00 74.52 C 76.67 74.48 75.33 74.49 74.00 74.53 C 74.03 67.79 73.98 61.06 74.00 54.32 Z" />
</g>
<g id="#1f37caff">
<path fill="#1f37ca" opacity="1.00" d=" M 42.00 74.17 C 43.33 74.42 44.67 74.67 46.00 74.92 C 46.09 78.92 45.73 82.93 46.22 86.91 C 46.53 89.11 48.90 90.11 50.90 89.98 C 56.97 90.06 63.05 90.07 69.13 89.98 C 71.11 90.10 73.45 89.12 73.77 86.94 C 74.28 82.82 73.90 78.66 74.00 74.53 C 75.33 74.49 76.67 74.48 78.00 74.52 C 77.58 79.64 79.05 85.20 76.90 90.02 C 73.40 95.91 65.66 93.51 60.05 93.98 C 54.39 93.50 46.57 95.94 43.07 89.98 C 40.94 85.04 42.43 79.39 42.00 74.17 Z" />
</g>
</svg>
