<?xml version="1.0" encoding="UTF-8" ?>
<!DOCTYPE svg PUBLIC "-//W3C//DTD SVG 1.1//EN" "http://www.w3.org/Graphics/SVG/1.1/DTD/svg11.dtd">
<svg width="117px" height="140px" viewBox="0 0 117 140" version="1.1" xmlns="http://www.w3.org/2000/svg">
<g id="#000000ff">
<path fill="#000000" opacity="1.00" d=" M 0.00 0.00 L 117.00 0.00 L 117.00 140.00 L 0.00 140.00 L 0.00 0.00 M 33.17 10.23 C 20.95 11.57 10.08 20.62 6.48 32.37 C 4.64 37.72 4.99 43.44 4.99 49.01 C 5.02 65.35 4.99 81.68 5.00 98.02 C 4.91 108.55 10.50 118.86 19.29 124.64 C 24.77 128.34 31.41 130.16 38.00 130.02 C 53.03 129.92 68.06 130.14 83.09 129.91 C 99.00 129.26 112.82 115.01 112.96 99.08 C 113.05 80.03 112.98 60.98 113.00 41.93 C 113.09 31.13 107.18 20.60 98.02 14.92 C 92.41 11.32 85.67 9.76 79.04 9.97 C 63.76 10.19 48.44 9.66 33.17 10.23 Z" />
<path fill="#000000" opacity="1.00" d=" M 33.32 12.34 C 48.18 11.71 63.08 12.26 77.95 12.05 C 84.63 11.82 91.52 13.05 97.14 16.83 C 105.61 22.14 111.00 31.98 110.91 41.98 C 110.92 61.02 111.00 80.06 110.87 99.09 C 110.73 114.29 97.25 127.73 82.06 127.86 C 66.69 127.99 51.31 127.97 35.95 127.87 C 21.12 127.72 7.83 114.91 7.19 100.09 C 6.91 83.73 7.16 67.36 7.07 51.00 C 7.12 44.09 6.45 36.84 9.43 30.39 C 13.46 20.70 22.86 13.47 33.32 12.34 M 56.11 33.51 C 55.83 37.77 56.07 42.06 56.00 46.34 C 57.65 46.30 59.29 46.28 60.94 46.26 C 60.35 41.43 61.73 36.32 59.90 31.71 C 58.52 31.99 56.74 31.94 56.11 33.51 M 39.37 42.29 C 37.06 52.65 38.73 63.34 38.11 73.85 C 40.96 73.98 43.81 74.04 46.66 73.99 C 47.03 74.49 47.77 75.50 48.15 76.01 C 52.10 75.99 56.05 76.00 60.00 76.00 C 60.00 75.25 60.00 73.75 60.00 73.00 C 56.35 73.00 52.70 73.00 49.05 73.00 C 49.03 72.50 49.00 71.50 48.98 71.00 C 46.32 71.00 43.66 71.00 41.00 71.00 C 41.00 66.33 41.00 61.67 41.00 57.00 C 52.00 57.01 63.00 56.98 74.01 57.00 C 75.50 56.93 76.88 57.52 78.29 57.90 C 81.14 55.59 78.97 51.85 78.75 48.90 C 77.87 45.95 78.42 42.18 75.76 40.10 C 71.81 39.05 67.45 39.23 63.77 41.10 C 63.83 42.93 64.21 44.71 64.87 46.41 C 60.75 48.33 56.11 48.36 52.04 46.34 C 52.95 44.74 53.04 42.91 53.19 41.12 C 51.20 40.36 49.20 39.40 47.02 39.51 C 44.32 39.52 40.51 39.14 39.37 42.29 M 69.40 61.47 C 62.91 63.31 61.90 73.23 67.41 76.73 C 71.93 79.82 79.67 77.86 80.89 72.09 C 80.86 69.56 81.56 66.56 79.70 64.47 C 77.43 61.32 73.00 60.21 69.40 61.47 Z" />
<path fill="#000000" opacity="1.00" d=" M 42.43 42.86 C 44.72 42.90 47.01 42.97 49.30 43.03 C 48.86 44.73 47.87 47.02 49.68 48.30 C 54.72 52.02 62.32 51.98 67.33 48.23 C 69.15 46.96 67.86 44.59 67.48 42.92 C 69.78 42.90 72.09 42.87 74.39 42.88 C 75.00 46.59 75.87 50.25 76.33 53.99 C 64.38 54.01 52.44 53.99 40.49 54.00 C 41.11 50.28 41.88 46.59 42.43 42.86 Z" />
<path fill="#000000" opacity="1.00" d=" M 68.94 63.79 C 71.29 63.27 73.70 63.26 76.06 63.78 C 74.88 65.04 73.68 66.28 72.50 67.53 C 71.32 66.28 70.12 65.04 68.94 63.79 Z" />
<path fill="#000000" opacity="1.00" d=" M 66.69 73.16 C 66.12 70.81 66.09 68.38 66.70 66.03 C 67.93 67.22 69.16 68.42 70.39 69.62 C 69.14 70.78 67.92 71.98 66.69 73.16 Z" />
<path fill="#000000" opacity="1.00" d=" M 74.60 69.60 C 75.84 68.42 77.07 67.22 78.31 66.04 C 78.89 68.39 78.91 70.81 78.30 73.16 C 77.07 71.97 75.85 70.78 74.60 69.60 Z" />
<path fill="#000000" opacity="1.00" d=" M 68.85 75.28 C 70.10 74.12 71.34 72.95 72.58 71.77 C 73.74 72.96 74.91 74.13 76.08 75.32 C 73.69 75.94 71.23 75.93 68.85 75.28 Z" />
</g>
<g id="#727372ff">
<path fill="#727372" opacity="1.00" d=" M 33.17 10.23 C 48.44 9.66 63.76 10.19 79.04 9.97 C 85.67 9.76 92.41 11.32 98.02 14.92 C 107.18 20.60 113.09 31.13 113.00 41.93 C 112.98 60.98 113.05 80.03 112.96 99.08 C 112.82 115.01 99.00 129.26 83.09 129.91 C 68.06 130.14 53.03 129.92 38.00 130.02 C 31.41 130.16 24.77 128.34 19.29 124.64 C 10.50 118.86 4.91 108.55 5.00 98.02 C 4.99 81.68 5.02 65.35 4.99 49.01 C 4.99 43.44 4.64 37.72 6.48 32.37 C 10.08 20.62 20.95 11.57 33.17 10.23 M 33.32 12.34 C 22.86 13.47 13.46 20.70 9.43 30.39 C 6.45 36.84 7.12 44.09 7.07 51.00 C 7.16 67.36 6.91 83.73 7.19 100.09 C 7.83 114.91 21.12 127.72 35.95 127.87 C 51.31 127.97 66.69 127.99 82.06 127.86 C 97.25 127.73 110.73 114.29 110.87 99.09 C 111.00 80.06 110.92 61.02 110.91 41.98 C 111.00 31.98 105.61 22.14 97.14 16.83 C 91.52 13.05 84.63 11.82 77.95 12.05 C 63.08 12.26 48.18 11.71 33.32 12.34 Z" />
</g>
<g id="#f8fcf8ff">
<path fill="#f8fcf8" opacity="1.00" d=" M 56.11 33.51 C 56.74 31.94 58.52 31.99 59.90 31.71 C 61.73 36.32 60.35 41.43 60.94 46.26 C 59.29 46.28 57.65 46.30 56.00 46.34 C 56.07 42.06 55.83 37.77 56.11 33.51 Z" />
<path fill="#f8fcf8" opacity="1.00" d=" M 39.37 42.29 C 40.51 39.14 44.32 39.52 47.02 39.51 C 49.20 39.40 51.20 40.36 53.19 41.12 C 53.04 42.91 52.95 44.74 52.04 46.34 C 56.11 48.36 60.75 48.33 64.87 46.41 C 64.21 44.71 63.83 42.93 63.77 41.10 C 67.45 39.23 71.81 39.05 75.76 40.10 C 78.42 42.18 77.87 45.95 78.75 48.90 C 78.97 51.85 81.14 55.59 78.29 57.90 C 76.88 57.52 75.50 56.93 74.01 57.00 C 63.00 56.98 52.00 57.01 41.00 57.00 C 41.00 61.67 41.00 66.33 41.00 71.00 C 43.66 71.00 46.32 71.00 48.98 71.00 C 49.00 71.50 49.03 72.50 49.05 73.00 C 52.70 73.00 56.35 73.00 60.00 73.00 C 60.00 73.75 60.00 75.25 60.00 76.00 C 56.05 76.00 52.10 75.99 48.15 76.01 C 47.77 75.50 47.03 74.49 46.66 73.99 C 43.81 74.04 40.96 73.98 38.11 73.85 C 38.73 63.34 37.06 52.65 39.37 42.29 M 42.43 42.86 C 41.88 46.59 41.11 50.28 40.49 54.00 C 52.44 53.99 64.38 54.01 76.33 53.99 C 75.87 50.25 75.00 46.59 74.39 42.88 C 72.09 42.87 69.78 42.90 67.48 42.92 C 67.86 44.59 69.15 46.96 67.33 48.23 C 62.32 51.98 54.72 52.02 49.68 48.30 C 47.87 47.02 48.86 44.73 49.30 43.03 C 47.01 42.97 44.72 42.90 42.43 42.86 Z" />
<path fill="#f8fcf8" opacity="1.00" d=" M 69.40 61.47 C 73.00 60.21 77.43 61.32 79.70 64.47 C 81.56 66.56 80.86 69.56 80.89 72.09 C 79.67 77.86 71.93 79.82 67.41 76.73 C 61.90 73.23 62.91 63.31 69.40 61.47 M 68.94 63.79 C 70.12 65.04 71.32 66.28 72.50 67.53 C 73.68 66.28 74.88 65.04 76.06 63.78 C 73.70 63.26 71.29 63.27 68.94 63.79 M 66.69 73.16 C 67.92 71.98 69.14 70.78 70.39 69.62 C 69.16 68.42 67.93 67.22 66.70 66.03 C 66.09 68.38 66.12 70.81 66.69 73.16 M 74.60 69.60 C 75.85 70.78 77.07 71.97 78.30 73.16 C 78.91 70.81 78.89 68.39 78.31 66.04 C 77.07 67.22 75.84 68.42 74.60 69.60 M 68.85 75.28 C 71.23 75.93 73.69 75.94 76.08 75.32 C 74.91 74.13 73.74 72.96 72.58 71.77 C 71.34 72.95 70.10 74.12 68.85 75.28 Z" />
</g>
</svg>
