<?xml version="1.0" encoding="UTF-8" ?>
<!DOCTYPE svg PUBLIC "-//W3C//DTD SVG 1.1//EN" "http://www.w3.org/Graphics/SVG/1.1/DTD/svg11.dtd">
<svg width="480px" height="320px" viewBox="0 0 480 320" version="1.1" xmlns="http://www.w3.org/2000/svg">
<g id="#000000ff">
<path fill="#000000" opacity="1.00" d=" M 0.00 0.00 L 1.09 0.00 C 1.30 1.72 3.89 1.81 4.02 0.00 L 480.00 0.00 L 480.00 320.00 L 0.00 320.00 L 0.00 0.00 M 51.10 12.88 C 56.76 16.42 62.49 19.85 68.23 23.25 C 62.63 26.72 56.98 30.10 51.33 33.50 C 51.33 59.40 51.29 85.31 51.35 111.21 C 62.43 117.57 73.42 124.10 84.46 130.52 C 85.89 131.60 87.30 130.24 88.55 129.59 C 98.83 123.29 109.28 117.29 119.51 110.93 C 119.45 85.17 119.47 59.41 119.50 33.66 C 114.06 30.08 108.44 26.80 102.92 23.37 C 108.32 19.70 114.09 16.62 119.47 12.92 C 118.34 12.26 117.21 11.62 116.07 10.98 C 110.53 14.42 105.02 17.91 99.42 21.24 C 94.96 18.45 90.57 15.51 85.95 13.00 C 80.85 15.04 76.43 18.60 71.62 21.27 C 66.27 18.02 60.91 14.78 55.55 11.55 C 53.98 10.52 52.53 12.42 51.10 12.88 M 368.97 25.07 C 363.81 26.74 358.46 27.60 353.10 28.31 C 346.43 28.79 340.14 25.72 333.54 25.54 L 333.31 26.62 C 332.81 26.36 331.83 25.83 331.33 25.56 C 328.95 25.54 326.88 26.77 324.79 27.71 C 321.25 29.55 317.51 30.97 313.89 32.63 C 313.38 32.92 312.37 33.49 311.86 33.78 C 308.58 36.03 305.19 38.14 301.53 39.72 C 300.03 40.44 298.30 41.25 297.65 42.90 C 296.01 49.54 296.72 56.82 300.23 62.76 C 301.42 65.54 303.83 67.57 304.98 70.37 L 306.14 70.55 C 306.66 71.92 307.17 73.29 307.70 74.66 C 310.25 77.24 312.55 80.04 314.68 82.98 C 313.03 84.13 314.02 86.42 313.14 87.97 C 311.89 88.77 310.62 89.53 309.33 90.24 C 313.85 91.11 318.52 90.72 323.09 90.53 C 323.38 86.25 327.80 83.54 327.60 79.07 C 327.77 78.13 327.95 77.18 328.13 76.24 C 329.37 76.11 330.62 75.98 331.87 75.84 C 333.19 74.50 334.50 73.15 335.79 71.77 C 341.45 74.62 347.68 76.41 354.00 77.00 C 361.57 77.74 368.55 74.15 375.27 71.19 C 375.78 71.32 376.81 71.57 377.33 71.70 C 377.37 72.07 377.47 72.82 377.51 73.20 C 378.25 74.19 380.26 75.55 379.09 76.89 C 375.84 78.63 372.65 81.04 371.93 84.90 C 370.08 86.48 368.04 88.02 367.88 90.68 C 372.56 90.75 377.24 90.71 381.93 90.71 C 381.81 89.92 381.58 88.33 381.46 87.54 C 382.61 86.71 383.81 86.62 385.04 87.26 C 386.09 86.92 387.15 86.58 388.21 86.25 C 390.21 85.33 392.11 84.17 393.72 82.64 C 394.92 82.07 396.16 81.59 397.43 81.19 C 397.98 79.65 401.16 77.08 399.07 75.85 C 399.49 75.15 400.34 73.74 400.76 73.04 C 399.86 75.84 399.91 78.90 402.65 80.57 C 402.55 84.82 398.76 87.04 397.00 90.50 C 401.64 90.86 406.31 90.76 410.96 90.65 C 412.31 90.70 412.42 88.85 413.17 88.06 C 414.13 84.99 415.16 81.84 417.26 79.34 C 419.10 77.40 418.98 74.38 418.21 72.01 C 415.42 70.40 413.45 67.89 411.79 65.19 C 411.34 64.68 410.43 63.67 409.97 63.16 C 407.14 65.62 404.96 68.71 402.52 71.52 C 403.79 67.15 407.69 64.76 410.44 61.47 C 410.40 60.55 410.33 58.71 410.29 57.80 C 409.46 56.25 408.59 54.72 407.76 53.17 C 407.47 52.17 407.16 51.17 406.84 50.18 C 406.06 45.95 405.27 41.72 404.11 37.58 C 408.61 37.98 413.34 35.32 417.61 37.48 C 419.29 40.69 423.22 40.68 426.18 39.39 C 424.22 35.42 419.73 34.93 415.89 34.12 C 412.58 32.70 409.13 34.63 405.72 34.33 C 404.20 33.59 402.01 33.68 401.28 31.89 C 398.98 27.77 393.58 28.24 389.83 26.29 C 387.72 24.96 385.13 24.91 382.84 25.76 C 382.28 27.52 381.58 29.23 380.75 30.87 C 379.75 33.18 378.06 35.35 378.23 37.99 C 378.09 44.64 380.37 51.09 382.51 57.31 C 381.96 56.40 381.24 55.61 380.56 54.82 C 380.09 53.15 379.60 51.49 379.25 49.79 C 377.70 44.99 376.93 39.87 377.67 34.84 C 379.36 31.49 381.16 28.19 382.74 24.78 C 378.54 22.01 373.37 23.83 368.97 25.07 M 210.19 28.19 C 210.20 30.07 210.20 31.95 210.19 33.83 C 203.66 34.90 198.26 41.28 198.99 48.00 C 198.84 54.40 204.17 59.70 210.18 61.04 C 210.19 62.69 210.19 64.34 210.20 65.99 C 210.87 65.99 212.21 66.00 212.89 66.01 C 212.90 65.49 212.93 64.45 212.94 63.92 C 214.23 63.92 215.51 63.91 216.80 63.90 C 216.80 62.58 216.79 61.27 216.78 59.95 C 218.97 58.47 220.58 60.35 221.93 61.91 C 223.81 60.03 225.69 58.15 227.57 56.27 C 226.63 55.36 225.69 54.46 224.74 53.55 C 225.13 52.70 225.52 51.86 225.91 51.01 C 227.19 51.00 228.48 50.99 229.77 50.98 C 229.76 48.39 229.76 45.80 229.76 43.21 C 228.48 43.20 227.21 43.20 225.94 43.19 C 225.62 42.64 224.97 41.53 224.65 40.97 C 225.63 39.97 226.61 38.98 227.61 37.99 C 225.66 36.15 223.72 34.31 221.76 32.49 C 220.83 33.44 219.90 34.39 218.97 35.34 C 218.43 34.98 217.33 34.27 216.79 33.92 C 216.79 32.73 216.79 31.53 216.79 30.34 C 215.52 30.33 214.25 30.32 212.99 30.31 C 212.93 29.75 212.82 28.61 212.77 28.05 C 212.12 28.08 210.84 28.15 210.19 28.19 M 126.21 33.33 C 126.19 42.50 126.19 51.68 126.21 60.86 C 131.67 60.84 137.13 60.99 142.58 60.76 C 142.52 59.42 142.45 58.08 142.38 56.74 C 138.43 56.75 134.48 56.83 130.54 56.66 C 130.83 48.89 130.61 41.11 130.67 33.33 C 129.18 33.33 127.69 33.33 126.21 33.33 M 147.34 33.33 C 147.32 39.25 147.32 45.16 147.32 51.08 C 147.19 54.50 148.93 58.05 151.94 59.78 C 154.39 61.20 157.37 60.90 160.08 60.75 C 164.72 60.18 167.86 55.52 167.87 51.06 C 167.99 45.15 167.89 39.24 167.89 33.33 C 166.37 33.33 164.85 33.33 163.33 33.33 C 163.20 39.87 163.56 46.42 163.17 52.93 C 161.72 58.31 152.25 57.83 151.79 52.05 C 151.50 45.82 151.77 39.57 151.67 33.33 C 150.22 33.33 148.78 33.33 147.34 33.33 M 173.34 33.34 C 173.32 42.51 173.32 51.68 173.33 60.85 C 178.54 60.56 184.32 61.96 188.98 58.97 C 192.79 56.39 193.96 51.37 193.83 47.02 C 193.85 42.52 192.26 37.39 187.98 35.23 C 183.49 32.73 178.25 33.35 173.34 33.34 M 290.22 45.24 C 288.21 45.91 286.19 46.80 284.03 46.65 C 283.00 45.14 281.07 45.25 279.46 45.11 C 279.45 46.13 279.44 48.18 279.43 49.21 C 278.18 47.69 276.48 47.00 274.33 47.16 C 273.62 50.30 275.27 53.01 277.66 54.88 C 277.41 55.65 276.93 57.19 276.68 57.96 C 277.29 59.53 277.77 61.28 276.80 62.82 C 276.75 63.57 276.67 65.07 276.62 65.82 C 275.02 65.70 273.42 65.52 271.83 65.34 C 270.46 64.39 269.42 62.87 267.73 62.49 C 267.38 65.39 267.76 68.37 269.42 70.85 C 269.46 71.32 269.55 72.25 269.59 72.72 C 266.69 70.80 262.73 69.85 261.15 66.45 C 260.68 66.37 259.74 66.22 259.27 66.14 C 260.07 69.63 260.63 73.33 262.71 76.33 C 264.78 79.26 267.34 81.79 270.09 84.07 C 270.44 87.20 273.08 88.97 275.59 90.43 C 277.36 90.94 279.25 90.35 281.06 90.26 C 282.50 89.62 283.95 88.99 285.37 88.28 C 285.82 87.17 286.29 86.07 286.76 84.97 C 294.02 84.16 296.73 74.68 304.06 74.26 C 304.46 73.70 305.26 72.58 305.66 72.02 C 303.33 68.20 299.89 65.11 298.21 60.89 C 295.13 55.49 296.51 49.03 296.51 43.12 C 294.17 42.93 292.16 44.13 290.22 45.24 M 126.20 70.20 C 126.20 79.36 126.18 88.51 126.21 97.67 C 131.63 97.67 137.04 97.69 142.45 97.66 C 142.46 96.18 142.47 94.70 142.48 93.22 C 138.54 93.19 134.60 93.19 130.67 93.22 C 130.68 85.55 130.68 77.88 130.67 70.21 C 129.18 70.20 127.69 70.20 126.20 70.20 M 177.10 70.20 C 177.09 79.36 177.07 88.52 177.11 97.68 C 181.36 97.60 185.62 97.84 189.86 97.58 C 192.64 97.41 194.91 94.94 194.91 92.17 C 195.16 88.79 195.43 84.30 191.79 82.57 C 193.68 78.62 193.68 72.30 188.92 70.44 C 185.01 69.88 181.03 70.34 177.10 70.20 M 147.19 97.65 C 148.65 97.67 150.11 97.69 151.57 97.71 C 152.13 96.41 152.70 95.12 153.25 93.82 C 157.30 93.78 161.34 93.83 165.39 93.75 C 166.03 95.06 166.66 96.36 167.31 97.67 C 168.75 97.67 170.19 97.66 171.64 97.66 C 167.66 88.46 163.58 79.32 159.55 70.14 C 154.99 79.09 151.37 88.51 147.19 97.65 M 328.39 76.80 C 328.41 78.30 328.37 79.79 328.26 81.29 C 327.31 82.77 326.45 84.35 326.46 86.17 C 330.28 87.39 334.21 88.31 338.21 88.68 C 340.19 90.56 342.89 90.97 345.50 90.48 C 345.67 88.48 345.26 86.53 344.35 84.75 C 343.81 83.92 343.28 83.08 342.77 82.23 C 341.57 80.27 339.89 78.69 338.08 77.30 C 337.22 78.05 336.25 78.58 335.15 78.89 C 333.53 76.61 331.00 76.09 328.39 76.80 M 262.60 100.32 C 262.61 103.62 262.59 106.91 262.64 110.20 C 264.23 113.38 265.66 116.62 267.27 119.79 C 267.76 120.89 268.27 121.98 268.78 123.08 C 269.02 123.65 269.48 124.79 269.71 125.36 C 271.60 125.38 273.49 125.40 275.39 125.48 C 276.78 123.00 277.68 120.29 278.81 117.69 C 279.24 119.07 279.70 120.45 280.23 121.81 C 280.68 123.01 281.16 124.20 281.64 125.39 C 283.67 125.19 285.97 125.89 287.84 124.91 C 288.68 123.31 289.33 121.62 290.13 119.99 C 291.74 116.32 293.89 112.86 295.09 109.02 C 295.32 106.19 295.16 103.35 295.23 100.52 C 292.61 100.35 289.98 100.35 287.35 100.39 C 287.35 103.64 287.38 106.90 287.31 110.15 C 286.32 112.05 285.47 114.02 284.83 116.06 C 284.20 114.36 283.44 112.73 282.61 111.13 C 282.40 107.56 282.50 103.98 282.49 100.40 C 280.10 100.38 277.70 100.38 275.31 100.34 C 274.60 102.90 275.03 105.52 275.23 108.11 C 274.60 110.89 273.91 113.65 272.88 116.32 C 272.33 115.14 271.77 113.98 271.18 112.83 C 269.33 109.00 270.50 104.54 270.22 100.44 C 267.69 100.22 265.14 100.21 262.60 100.32 M 303.95 100.59 C 303.15 104.58 301.35 108.27 300.14 112.14 C 299.69 113.38 299.26 114.63 298.80 115.87 C 297.60 119.00 296.33 122.12 295.43 125.35 C 298.05 125.40 300.67 125.39 303.29 125.36 C 303.50 124.14 303.71 122.93 303.92 121.71 C 306.66 121.63 309.40 121.63 312.15 121.65 C 312.39 122.87 312.64 124.10 312.89 125.32 C 315.58 125.40 318.27 125.41 320.96 125.38 C 320.55 123.49 319.96 121.66 319.24 119.87 C 318.72 118.67 318.24 117.46 317.75 116.25 C 317.25 114.78 316.71 113.33 316.16 111.88 C 315.46 110.24 314.81 108.58 314.25 106.90 C 313.74 105.68 313.25 104.46 312.75 103.25 C 312.43 102.28 312.12 101.31 311.80 100.34 C 309.18 100.25 306.54 100.11 303.95 100.59 M 322.33 100.27 C 322.33 108.64 322.28 117.02 322.36 125.40 C 324.82 125.39 327.28 125.39 329.74 125.40 C 329.77 121.19 329.69 116.99 329.80 112.78 C 333.39 116.77 336.15 121.48 339.92 125.28 C 342.06 125.53 344.23 125.37 346.39 125.35 C 346.43 117.01 346.34 108.67 346.44 100.32 C 344.05 100.31 341.66 100.35 339.28 100.35 C 339.28 104.76 339.29 109.18 339.27 113.59 C 337.56 111.35 335.93 109.04 334.23 106.78 C 333.06 105.25 331.87 103.73 330.77 102.15 C 329.27 98.93 325.09 100.68 322.33 100.27 M 349.46 100.28 C 349.52 108.65 349.43 117.03 349.51 125.40 C 352.11 125.40 354.72 125.39 357.33 125.33 C 357.32 122.09 357.33 118.85 357.32 115.62 C 360.10 115.66 362.89 115.67 365.68 115.61 C 365.70 118.85 365.71 122.09 365.74 125.32 C 368.33 125.39 370.93 125.40 373.52 125.39 C 373.58 117.03 373.51 108.66 373.56 100.30 C 370.94 100.23 368.32 100.24 365.70 100.39 C 365.76 103.38 365.76 106.37 365.67 109.36 C 362.92 109.27 360.17 109.27 357.42 109.32 C 357.27 108.77 356.96 107.68 356.80 107.13 C 356.81 106.31 356.84 104.68 356.85 103.86 C 356.99 103.01 357.27 101.31 357.41 100.47 C 354.77 100.23 352.11 100.22 349.46 100.28 M 383.60 100.28 C 383.39 100.90 382.97 102.15 382.77 102.77 C 382.24 104.24 381.68 105.71 381.14 107.18 C 380.68 108.38 380.24 109.60 379.82 110.82 C 379.03 113.29 378.02 115.69 377.21 118.16 C 376.28 120.50 375.41 122.87 375.05 125.38 C 377.47 125.39 379.89 125.38 382.31 125.43 C 382.84 124.20 383.30 122.94 383.61 121.63 C 386.19 121.64 388.78 121.64 391.37 121.63 C 391.70 122.91 392.09 124.17 392.51 125.42 C 395.23 125.38 397.96 125.39 400.69 125.37 C 400.10 123.64 399.46 121.94 398.75 120.26 C 398.19 118.55 397.47 116.90 396.71 115.27 C 396.59 114.82 396.36 113.91 396.24 113.46 C 395.52 111.97 394.85 110.45 394.27 108.90 C 393.18 106.10 391.97 103.34 391.15 100.44 C 388.64 100.25 386.11 100.24 383.60 100.28 M 410.04 100.06 C 406.95 101.06 404.42 103.16 402.63 105.84 C 400.81 109.58 400.84 113.99 402.11 117.90 C 404.55 124.60 412.45 127.48 418.98 125.19 C 420.82 123.98 422.86 122.94 424.25 121.18 C 427.52 117.36 427.25 111.63 425.87 107.12 C 424.81 104.31 422.52 102.34 420.15 100.64 C 416.96 99.27 413.36 99.05 410.04 100.06 M 126.20 107.00 C 126.19 108.33 126.19 109.66 126.19 111.00 C 127.69 110.99 129.19 110.99 130.69 110.98 C 130.69 109.65 130.68 108.33 130.68 107.01 C 129.18 107.00 127.69 107.00 126.20 107.00 M 204.27 145.09 C 203.71 146.70 204.25 147.29 205.89 146.84 C 206.44 145.22 205.90 144.64 204.27 145.09 M 202.04 151.08 C 202.26 154.37 205.03 149.49 202.04 151.08 M 208.25 153.29 C 208.74 153.84 208.74 153.84 208.25 153.29 M 221.12 154.45 C 220.72 155.84 221.22 156.32 222.63 155.89 C 223.02 154.49 222.52 154.01 221.12 154.45 M 227.25 154.19 C 227.76 154.72 227.76 154.72 227.25 154.19 M 233.08 157.03 C 231.41 159.97 236.37 157.35 233.08 157.03 M 212.10 159.09 C 210.52 162.09 215.36 159.32 212.10 159.09 M 222.14 160.03 C 221.66 161.65 222.23 162.19 223.86 161.64 C 224.35 160.02 223.78 159.48 222.14 160.03 M 206.21 162.33 C 206.74 162.84 206.74 162.84 206.21 162.33 M 211.06 164.27 C 209.68 167.38 214.33 164.28 211.06 164.27 M 213.27 163.90 C 213.31 167.22 216.33 162.49 213.27 163.90 M 205.30 165.31 C 205.82 165.83 205.82 165.83 205.30 165.31 M 219.23 167.26 C 219.77 167.76 219.77 167.76 219.23 167.26 M 205.28 170.26 C 205.81 170.77 205.81 170.77 205.28 170.26 M 211.23 170.29 C 211.71 170.84 211.71 170.84 211.23 170.29 M 207.46 173.15 C 206.74 173.94 205.41 174.78 205.48 175.93 C 207.13 177.26 209.39 173.77 207.46 173.15 M 211.38 173.09 C 211.47 176.36 214.45 171.63 211.38 173.09 M 214.46 173.14 C 214.03 174.54 214.52 175.03 215.91 174.59 C 216.34 173.17 215.85 172.69 214.46 173.14 M 211.27 175.35 C 211.76 175.89 211.76 175.89 211.27 175.35 M 218.24 177.03 C 218.56 180.32 221.17 175.36 218.24 177.03 M 207.48 177.91 C 202.94 180.30 197.29 177.49 192.52 179.48 C 192.43 181.08 192.32 182.68 192.25 184.30 C 190.01 184.36 187.76 184.42 185.53 184.52 C 183.22 186.64 180.10 187.66 177.00 187.62 C 133.01 187.58 89.02 187.57 45.03 187.61 C 38.61 186.47 32.07 186.63 25.58 186.81 C 20.94 187.15 20.71 194.67 25.05 195.66 C 28.74 195.66 32.41 195.89 35.99 196.80 C 38.98 197.86 41.14 194.88 43.99 194.88 C 88.67 194.87 133.36 194.89 178.04 194.84 C 179.55 194.82 180.95 195.45 182.35 195.91 C 182.17 197.72 182.18 199.56 182.58 201.35 C 183.76 202.60 185.00 203.79 186.38 204.83 C 187.23 205.70 189.11 205.96 190.22 206.86 L 191.37 207.07 C 191.91 209.58 192.26 212.12 192.46 214.67 C 193.63 214.72 194.81 214.77 196.00 214.82 C 195.98 219.77 195.94 224.74 196.31 229.69 C 198.51 229.69 200.71 229.68 202.91 229.60 C 202.68 229.30 202.22 228.70 202.00 228.40 L 203.00 228.43 C 202.11 226.31 198.87 225.80 197.07 226.85 L 197.08 226.45 C 198.72 226.17 199.43 225.25 199.20 223.71 L 199.91 223.67 C 199.76 224.24 199.48 225.40 199.33 225.98 C 200.09 226.14 201.59 226.47 202.35 226.64 C 202.24 222.65 202.36 218.66 202.29 214.67 C 203.70 214.69 205.12 214.73 206.54 214.78 C 206.38 216.12 206.17 217.45 205.90 218.78 C 205.68 224.46 205.86 230.14 205.80 235.83 C 206.57 235.62 208.11 235.20 208.88 234.99 L 208.87 235.33 C 208.37 235.53 207.38 235.92 206.89 236.11 C 207.26 239.81 207.88 243.51 208.81 247.12 C 208.44 246.90 207.69 246.45 207.32 246.23 C 207.39 247.23 207.52 249.23 207.59 250.23 C 208.06 250.59 209.00 251.32 209.47 251.68 C 209.00 253.69 210.74 257.09 208.27 258.00 C 210.35 259.76 209.80 262.86 206.75 262.96 C 206.38 262.38 205.64 261.24 205.27 260.67 L 205.77 262.73 C 202.61 262.56 199.45 262.46 196.29 262.50 C 180.93 261.80 165.53 262.99 150.21 261.37 C 150.40 260.97 150.79 260.17 150.99 259.77 C 149.55 260.00 147.38 259.07 146.81 261.00 C 146.42 265.81 146.67 270.64 146.72 275.47 C 148.71 275.76 150.68 275.35 152.45 274.42 L 151.73 274.98 C 171.50 275.27 191.30 275.06 211.08 275.09 C 274.72 275.40 338.38 275.10 402.03 275.23 C 405.76 275.69 408.49 272.35 409.18 269.02 C 408.71 265.86 406.69 262.27 403.02 262.50 C 339.33 262.43 275.64 262.45 211.95 262.49 C 212.15 257.83 210.41 251.99 214.89 248.81 C 214.17 247.28 213.30 245.77 213.47 244.02 C 214.36 241.28 214.67 238.38 214.88 235.52 C 215.57 228.76 215.54 221.85 214.39 215.14 C 215.99 215.03 217.60 214.86 219.21 214.66 C 219.34 217.69 219.33 220.73 219.15 223.77 C 222.25 223.65 225.36 223.61 228.47 223.66 C 228.71 220.38 227.00 215.37 231.16 214.04 C 231.76 208.57 232.60 203.12 232.78 197.62 C 235.03 197.50 237.57 198.04 239.49 196.56 C 241.42 195.31 243.69 194.67 245.98 194.74 C 308.97 194.81 371.95 194.76 434.93 194.78 C 437.14 194.66 438.88 196.24 440.92 196.81 C 444.01 197.28 446.87 195.49 449.96 195.67 C 452.11 195.51 454.82 196.29 456.30 194.20 C 457.53 193.10 458.45 190.49 456.54 189.58 L 456.62 189.15 C 455.99 188.65 455.37 188.16 454.76 187.66 C 448.86 187.44 442.96 187.63 437.07 187.55 C 372.33 187.72 307.59 187.65 242.86 187.58 C 239.59 185.32 235.99 183.82 231.92 184.37 C 231.73 183.72 231.33 182.42 231.13 181.77 C 230.87 180.76 230.56 179.75 230.21 178.77 C 225.12 178.86 220.03 178.81 214.94 178.70 L 214.98 178.32 C 212.93 177.25 210.13 177.39 208.02 178.22 L 207.48 177.91 M 196.25 239.22 C 196.77 239.75 196.77 239.75 196.25 239.22 M 201.18 241.09 C 201.27 244.36 204.25 239.63 201.18 241.09 M 221.29 242.22 C 221.77 242.78 221.77 242.78 221.29 242.22 M 215.26 243.22 C 215.75 243.77 215.75 243.77 215.26 243.22 M 238.01 243.10 C 236.47 246.11 241.30 243.29 238.01 243.10 M 202.19 244.04 C 201.66 245.65 202.21 246.20 203.85 245.68 C 204.39 244.07 203.84 243.52 202.19 244.04 M 218.32 244.28 C 218.84 244.80 218.84 244.80 218.32 244.28 M 223.22 244.31 C 221.70 247.33 226.53 244.44 223.22 244.31 M 226.10 245.21 C 224.60 248.26 229.36 245.35 226.10 245.21 M 195.10 246.10 C 193.64 249.16 198.38 246.20 195.10 246.10 M 243.21 246.22 C 243.70 246.77 243.70 246.77 243.21 246.22 M 235.11 248.35 C 233.56 251.37 238.38 248.55 235.11 248.35 M 198.30 249.26 C 197.79 250.90 198.34 251.44 199.96 250.90 C 200.46 249.25 199.91 248.70 198.30 249.26 M 223.29 250.23 C 223.80 250.77 223.80 250.77 223.29 250.23 M 191.43 251.11 C 191.67 254.38 194.43 249.53 191.43 251.11 M 205.11 252.19 C 203.79 252.89 203.79 253.55 205.12 254.18 C 206.44 253.48 206.44 252.82 205.11 252.19 M 228.25 252.24 C 228.79 252.74 228.79 252.74 228.25 252.24 M 245.08 252.42 C 243.58 255.46 248.36 252.57 245.08 252.42 M 166.08 253.15 C 165.63 254.58 166.10 255.04 167.49 254.53 C 167.94 253.10 167.47 252.64 166.08 253.15 M 183.28 253.21 C 183.80 253.74 183.80 253.74 183.28 253.21 M 214.29 253.24 C 214.82 253.76 214.82 253.76 214.29 253.24 M 224.19 253.24 C 224.72 253.76 224.72 253.76 224.19 253.24 M 172.44 255.04 C 172.63 258.31 175.47 253.51 172.44 255.04 M 213.10 255.08 C 211.57 258.11 216.38 255.26 213.10 255.08 M 191.20 257.14 C 191.75 257.62 191.75 257.62 191.20 257.14 M 201.27 257.29 C 201.81 257.80 201.81 257.80 201.27 257.29 M 214.22 258.23 C 214.70 258.79 214.70 258.79 214.22 258.23 M 219.17 258.10 C 219.39 261.36 222.19 256.54 219.17 258.10 M 138.69 261.23 C 140.11 260.97 143.57 261.87 142.71 259.30 C 140.89 258.88 137.96 258.35 138.69 261.23 M 162.30 259.27 C 162.82 259.79 162.82 259.79 162.30 259.27 M 180.16 260.00 C 180.47 263.28 183.12 258.36 180.16 260.00 M 127.32 263.14 C 126.59 263.11 125.11 263.04 124.37 263.01 L 124.41 262.29 C 111.00 261.33 97.51 262.04 84.07 261.76 C 80.87 261.81 77.49 261.23 74.50 262.66 C 73.68 263.12 72.85 263.57 72.03 264.01 C 72.31 267.84 70.56 272.51 73.26 275.69 C 74.11 276.07 74.90 276.71 75.89 276.67 C 87.16 277.01 98.47 276.23 109.72 277.05 C 109.92 277.74 110.32 279.13 110.52 279.82 C 110.73 279.82 111.16 279.82 111.37 279.82 L 112.18 280.76 C 115.68 281.04 119.21 280.99 122.70 280.64 C 124.62 279.73 124.30 276.60 124.49 274.69 C 130.20 274.65 135.91 274.38 141.62 274.69 C 142.23 276.99 144.60 276.33 146.36 276.33 C 146.45 271.41 146.40 266.49 146.34 261.57 C 142.48 261.31 138.59 262.02 134.78 261.18 C 132.22 260.64 128.92 260.71 127.32 263.14 M 154.13 277.09 C 153.57 278.72 154.11 279.27 155.75 278.75 C 156.31 277.12 155.76 276.57 154.13 277.09 M 170.24 277.28 C 170.76 277.80 170.76 277.80 170.24 277.28 M 213.06 277.45 C 212.64 278.85 213.13 279.34 214.52 278.92 C 214.93 277.51 214.45 277.02 213.06 277.45 M 160.07 278.04 C 158.41 280.99 163.35 278.36 160.07 278.04 M 188.34 278.24 C 188.83 278.79 188.83 278.79 188.34 278.24 M 175.19 279.45 C 173.82 282.55 178.49 279.42 175.19 279.45 M 204.17 279.17 C 203.37 280.47 203.57 281.33 204.77 281.74 C 205.57 280.43 205.38 279.57 204.17 279.17 M 196.07 280.48 C 194.56 283.51 199.35 280.63 196.07 280.48 M 206.23 280.08 C 206.34 283.33 209.32 278.63 206.23 280.08 M 167.33 282.12 C 166.76 283.73 167.29 284.30 168.93 283.83 C 169.49 282.20 168.96 281.63 167.33 282.12 M 185.46 282.02 C 185.62 285.30 188.48 280.49 185.46 282.02 M 159.27 284.24 C 158.76 285.87 159.31 286.42 160.93 285.87 C 161.44 284.22 160.89 283.68 159.27 284.24 M 209.27 284.33 C 209.81 284.82 209.81 284.82 209.27 284.33 M 193.17 285.09 C 193.49 288.34 196.15 283.46 193.17 285.09 M 178.23 286.14 C 178.69 286.72 178.69 286.72 178.23 286.14 M 209.28 286.26 C 209.81 286.77 209.81 286.77 209.28 286.26 M 199.09 290.22 C 198.58 291.85 199.13 292.40 200.76 291.88 C 201.27 290.25 200.71 289.70 199.09 290.22 M 71.47 292.31 C 71.43 296.86 71.47 301.42 71.43 305.97 C 71.95 305.97 72.99 305.96 73.51 305.96 C 73.46 301.42 73.51 296.89 73.47 292.36 C 72.97 292.34 71.97 292.32 71.47 292.31 M 104.34 292.29 C 104.32 294.68 104.32 297.07 104.35 299.47 C 104.88 299.48 105.94 299.49 106.47 299.49 C 106.48 297.11 106.48 294.74 106.47 292.37 C 105.94 292.35 104.88 292.31 104.34 292.29 M 138.65 292.37 C 138.63 296.89 138.67 301.42 138.61 305.95 C 139.13 305.96 140.16 305.98 140.67 305.98 C 140.66 301.42 140.70 296.85 140.65 292.28 C 140.15 292.30 139.15 292.35 138.65 292.37 M 171.52 292.31 C 171.51 294.70 171.51 297.09 171.52 299.48 C 172.01 299.48 172.99 299.48 173.48 299.48 C 173.49 297.10 173.49 294.73 173.47 292.35 C 172.98 292.34 172.01 292.32 171.52 292.31 M 205.68 292.37 C 205.72 296.81 205.58 301.26 205.71 305.70 C 206.19 305.81 207.17 306.02 207.65 306.13 C 207.68 301.51 207.69 296.90 207.65 292.28 C 207.16 292.30 206.17 292.35 205.68 292.37 M 238.53 292.34 C 238.51 294.72 238.51 297.10 238.52 299.48 C 239.01 299.48 239.99 299.48 240.48 299.48 C 240.49 297.10 240.49 294.71 240.46 292.33 C 239.98 292.33 239.02 292.34 238.53 292.34 M 273.17 291.99 C 272.84 296.66 273.06 301.34 273.00 306.02 C 273.43 306.00 274.31 305.96 274.74 305.94 C 274.65 301.45 274.92 296.95 274.62 292.47 C 274.25 292.35 273.53 292.11 273.17 291.99 M 305.82 299.26 C 306.26 299.36 307.15 299.55 307.59 299.65 C 307.68 297.14 307.69 294.64 307.64 292.15 C 304.30 292.39 306.38 297.00 305.82 299.26 M 340.20 292.32 C 339.74 296.86 340.12 301.44 340.00 306.01 C 340.44 306.00 341.31 305.99 341.75 305.98 C 341.73 301.39 341.78 296.79 341.70 292.19 C 341.33 292.22 340.57 292.29 340.20 292.32 M 373.20 292.34 C 373.33 294.58 371.47 299.16 374.57 299.76 C 374.69 297.23 374.69 294.70 374.65 292.18 C 374.29 292.22 373.56 292.30 373.20 292.34 M 407.11 292.02 C 406.87 296.67 407.04 301.34 407.00 306.00 C 407.49 306.00 408.48 306.00 408.98 306.00 C 408.85 301.46 409.29 296.90 408.77 292.39 C 408.35 292.29 407.52 292.11 407.11 292.02 Z" />
<path fill="#000000" opacity="1.00" d=" M 75.00 23.37 C 78.55 21.21 82.13 19.08 85.74 17.01 C 89.17 19.17 92.65 21.27 96.11 23.41 C 92.66 25.50 89.20 27.56 85.82 29.75 C 82.17 27.71 78.65 25.43 75.00 23.37 Z" />
<path fill="#000000" opacity="1.00" d=" M 72.12 25.59 C 76.52 28.46 81.13 31.00 85.53 33.90 C 90.12 31.30 94.54 28.42 99.01 25.62 C 99.00 31.17 98.98 36.71 99.02 42.26 C 94.60 45.32 90.11 48.30 85.56 51.16 C 81.23 48.12 76.75 45.32 72.25 42.55 C 72.04 36.90 72.25 31.24 72.12 25.59 Z" />
<path fill="#000000" opacity="1.00" d=" M 55.53 34.82 C 59.85 32.32 64.18 29.83 68.41 27.18 C 68.24 32.88 68.34 38.58 68.34 44.28 C 73.63 47.69 78.77 51.32 84.00 54.82 C 84.07 59.91 83.86 65.00 84.08 70.09 C 84.15 72.21 86.67 71.70 87.67 70.65 C 87.72 65.22 87.58 59.78 87.77 54.35 C 92.93 51.33 97.62 47.58 102.73 44.47 C 102.87 38.80 102.80 33.13 102.77 27.47 C 106.92 30.12 111.10 32.72 115.33 35.24 C 115.35 58.80 115.27 82.37 115.37 105.94 C 106.44 100.44 97.49 94.96 88.59 89.42 C 87.30 88.74 85.88 87.30 84.43 88.49 C 74.72 94.27 65.03 100.12 55.38 106.01 C 55.64 82.28 55.34 58.55 55.53 34.82 Z" />
<path fill="#000000" opacity="1.00" d=" M 212.92 32.90 L 214.07 32.92 C 214.08 34.10 214.09 35.28 214.10 36.46 C 216.04 36.84 217.85 37.63 219.52 38.68 C 220.32 37.86 221.13 37.04 221.94 36.22 C 224.51 37.64 222.71 39.11 221.28 40.48 C 222.36 42.14 223.17 43.94 223.54 45.90 C 224.71 45.91 225.89 45.92 227.07 45.93 C 227.08 46.52 227.08 47.72 227.09 48.32 C 225.91 48.32 224.73 48.32 223.55 48.32 C 223.12 50.31 222.33 52.19 221.33 53.95 C 222.85 55.23 224.49 56.59 221.90 57.98 C 221.37 57.42 220.30 56.28 219.77 55.72 C 217.93 56.59 216.03 57.36 214.10 58.01 C 214.08 58.88 214.04 60.62 214.02 61.50 C 211.73 60.05 213.39 56.40 212.94 54.04 C 217.09 53.65 220.85 49.30 219.20 45.12 C 218.48 42.17 215.63 40.72 212.93 40.06 C 212.91 37.67 212.91 35.29 212.92 32.90 Z" />
<path fill="#000000" opacity="1.00" d=" M 177.81 37.88 C 181.78 37.59 186.93 38.33 188.59 42.55 C 189.87 46.55 189.95 51.62 186.82 54.83 C 184.28 56.78 180.85 56.89 177.77 56.90 C 177.83 50.56 177.78 44.22 177.81 37.88 Z" />
<path fill="#000000" opacity="1.00" d=" M 204.56 43.57 C 205.54 41.07 207.95 39.76 210.18 38.53 C 210.22 44.34 210.20 50.16 210.19 55.97 C 205.12 54.50 202.05 48.36 204.56 43.57 Z" />
<path fill="#000000" opacity="1.00" d=" M 212.95 42.78 C 216.09 43.73 217.67 47.01 216.03 49.95 C 215.00 50.44 213.97 50.94 212.94 51.43 C 212.90 48.55 212.89 45.66 212.95 42.78 Z" />
<path fill="#000000" opacity="1.00" d=" M 181.77 74.45 C 183.56 74.48 185.35 74.50 187.14 74.51 C 188.23 76.01 188.86 78.09 187.99 79.85 C 186.67 81.97 183.85 80.94 181.80 81.24 C 181.79 78.98 181.79 76.72 181.77 74.45 Z" />
<path fill="#000000" opacity="1.00" d=" M 155.07 89.62 C 156.55 86.16 158.03 82.71 159.52 79.25 C 160.72 82.79 162.29 86.19 163.81 89.59 C 160.90 89.49 157.98 89.49 155.07 89.62 Z" />
<path fill="#000000" opacity="1.00" d=" M 181.78 85.67 C 184.20 85.68 186.64 85.55 189.05 85.85 C 191.29 87.60 190.32 90.75 190.06 93.14 C 187.31 93.56 184.54 93.59 181.77 93.53 C 181.80 90.91 181.80 88.29 181.78 85.67 Z" />
<path fill="#000000" opacity="1.00" d=" M 85.47 91.79 C 95.05 97.48 104.19 103.88 113.77 109.57 C 104.51 115.64 95.02 121.39 85.56 127.16 C 75.92 121.15 66.02 115.57 56.32 109.66 C 66.12 103.86 75.88 97.94 85.47 91.79 Z" />
<path fill="#000000" opacity="1.00" d=" M 410.52 117.58 C 406.54 114.74 408.39 108.12 412.65 106.57 C 413.54 106.60 415.30 106.64 416.18 106.67 C 417.41 107.57 418.54 108.59 419.39 109.87 C 419.41 111.75 419.44 113.62 419.47 115.50 C 417.77 118.60 413.33 120.01 410.52 117.58 Z" />
<path fill="#000000" opacity="1.00" d=" M 212.08 264.26 C 275.41 264.36 338.74 264.25 402.06 264.32 C 404.69 263.94 407.30 266.23 406.82 268.96 C 407.21 271.61 404.49 273.45 402.08 273.28 C 338.77 273.40 275.46 273.13 212.16 273.41 C 211.68 270.36 212.54 267.29 212.08 264.26 M 214.18 267.24 C 214.71 267.75 214.71 267.75 214.18 267.24 M 232.22 268.21 C 232.73 268.73 232.73 268.73 232.22 268.21 Z" />
</g>
<g id="#084103ff">
<path fill="#084103" opacity="1.00" d=" M 1.09 0.00 L 4.02 0.00 C 3.89 1.81 1.30 1.72 1.09 0.00 Z" />
</g>
<g id="#c8ccc8ff">
<path fill="#c8ccc8" opacity="1.00" d=" M 51.10 12.88 C 52.53 12.42 53.98 10.52 55.55 11.55 C 60.91 14.78 66.27 18.02 71.62 21.27 C 76.43 18.60 80.85 15.04 85.95 13.00 C 90.57 15.51 94.96 18.45 99.42 21.24 C 105.02 17.91 110.53 14.42 116.07 10.98 C 117.21 11.62 118.34 12.26 119.47 12.92 C 114.09 16.62 108.32 19.70 102.92 23.37 C 108.44 26.80 114.06 30.08 119.50 33.66 C 119.47 59.41 119.45 85.17 119.51 110.93 C 109.28 117.29 98.83 123.29 88.55 129.59 C 87.30 130.24 85.89 131.60 84.46 130.52 C 73.42 124.10 62.43 117.57 51.35 111.21 C 51.29 85.31 51.33 59.40 51.33 33.50 C 56.98 30.10 62.63 26.72 68.23 23.25 C 62.49 19.85 56.76 16.42 51.10 12.88 M 75.00 23.37 C 78.65 25.43 82.17 27.71 85.82 29.75 C 89.20 27.56 92.66 25.50 96.11 23.41 C 92.65 21.27 89.17 19.17 85.74 17.01 C 82.13 19.08 78.55 21.21 75.00 23.37 M 72.12 25.59 C 72.25 31.24 72.04 36.90 72.25 42.55 C 76.75 45.32 81.23 48.12 85.56 51.16 C 90.11 48.30 94.60 45.32 99.02 42.26 C 98.98 36.71 99.00 31.17 99.01 25.62 C 94.54 28.42 90.12 31.30 85.53 33.90 C 81.13 31.00 76.52 28.46 72.12 25.59 M 55.53 34.82 C 55.34 58.55 55.64 82.28 55.38 106.01 C 65.03 100.12 74.72 94.27 84.43 88.49 C 85.88 87.30 87.30 88.74 88.59 89.42 C 97.49 94.96 106.44 100.44 115.37 105.94 C 115.27 82.37 115.35 58.80 115.33 35.24 C 111.10 32.72 106.92 30.12 102.77 27.47 C 102.80 33.13 102.87 38.80 102.73 44.47 C 97.62 47.58 92.93 51.33 87.77 54.35 C 87.58 59.78 87.72 65.22 87.67 70.65 C 86.67 71.70 84.15 72.21 84.08 70.09 C 83.86 65.00 84.07 59.91 84.00 54.82 C 78.77 51.32 73.63 47.69 68.34 44.28 C 68.34 38.58 68.24 32.88 68.41 27.18 C 64.18 29.83 59.85 32.32 55.53 34.82 M 85.47 91.79 C 75.88 97.94 66.12 103.86 56.32 109.66 C 66.02 115.57 75.92 121.15 85.56 127.16 C 95.02 121.39 104.51 115.64 113.77 109.57 C 104.19 103.88 95.05 97.48 85.47 91.79 Z" />
<path fill="#c8ccc8" opacity="1.00" d=" M 210.19 28.19 C 210.84 28.15 212.12 28.08 212.77 28.05 C 212.82 28.61 212.93 29.75 212.99 30.31 C 214.25 30.32 215.52 30.33 216.79 30.34 C 216.79 31.53 216.79 32.73 216.79 33.92 C 217.33 34.27 218.43 34.98 218.97 35.34 C 219.90 34.39 220.83 33.44 221.76 32.49 C 223.72 34.31 225.66 36.15 227.61 37.99 C 226.61 38.98 225.63 39.97 224.65 40.97 C 224.97 41.53 225.62 42.64 225.94 43.19 C 227.21 43.20 228.48 43.20 229.76 43.21 C 229.76 45.80 229.76 48.39 229.77 50.98 C 228.48 50.99 227.19 51.00 225.91 51.01 C 225.52 51.86 225.13 52.70 224.74 53.55 C 225.69 54.46 226.63 55.36 227.57 56.27 C 225.69 58.15 223.81 60.03 221.93 61.91 C 220.58 60.35 218.97 58.47 216.78 59.95 C 216.79 61.27 216.80 62.58 216.80 63.90 C 215.51 63.91 214.23 63.92 212.94 63.92 C 212.93 64.45 212.90 65.49 212.89 66.01 C 212.21 66.00 210.87 65.99 210.20 65.99 C 210.19 64.34 210.19 62.69 210.18 61.04 C 204.17 59.70 198.84 54.40 198.99 48.00 C 198.26 41.28 203.66 34.90 210.19 33.83 C 210.20 31.95 210.20 30.07 210.19 28.19 M 212.92 32.90 C 212.91 35.29 212.91 37.67 212.93 40.06 C 215.63 40.72 218.48 42.17 219.20 45.12 C 220.85 49.30 217.09 53.65 212.94 54.04 C 213.39 56.40 211.73 60.05 214.02 61.50 C 214.04 60.62 214.08 58.88 214.10 58.01 C 216.03 57.36 217.93 56.59 219.77 55.72 C 220.30 56.28 221.37 57.42 221.90 57.98 C 224.49 56.59 222.85 55.23 221.33 53.95 C 222.33 52.19 223.12 50.31 223.55 48.32 C 224.73 48.32 225.91 48.32 227.09 48.32 C 227.08 47.72 227.08 46.52 227.07 45.93 C 225.89 45.92 224.71 45.91 223.54 45.90 C 223.17 43.94 222.36 42.14 221.28 40.48 C 222.71 39.11 224.51 37.64 221.94 36.22 C 221.13 37.04 220.32 37.86 219.52 38.68 C 217.85 37.63 216.04 36.84 214.10 36.46 C 214.09 35.28 214.08 34.10 214.07 32.92 L 212.92 32.90 M 204.56 43.57 C 202.05 48.36 205.12 54.50 210.19 55.97 C 210.20 50.16 210.22 44.34 210.18 38.53 C 207.95 39.76 205.54 41.07 204.56 43.57 M 212.95 42.78 C 212.89 45.66 212.90 48.55 212.94 51.43 C 213.97 50.94 215.00 50.44 216.03 49.95 C 217.67 47.01 216.09 43.73 212.95 42.78 Z" />
<path fill="#c8ccc8" opacity="1.00" d=" M 126.21 33.33 C 127.69 33.33 129.18 33.33 130.67 33.33 C 130.61 41.11 130.83 48.89 130.54 56.66 C 134.48 56.83 138.43 56.75 142.38 56.74 C 142.45 58.08 142.52 59.42 142.58 60.76 C 137.13 60.99 131.67 60.84 126.21 60.86 C 126.19 51.68 126.19 42.50 126.21 33.33 Z" />
<path fill="#c8ccc8" opacity="1.00" d=" M 147.34 33.33 C 148.78 33.33 150.22 33.33 151.67 33.33 C 151.77 39.57 151.50 45.82 151.79 52.05 C 152.25 57.83 161.72 58.31 163.17 52.93 C 163.56 46.42 163.20 39.87 163.33 33.33 C 164.85 33.33 166.37 33.33 167.89 33.33 C 167.89 39.24 167.99 45.15 167.87 51.06 C 167.86 55.52 164.72 60.18 160.08 60.75 C 157.37 60.90 154.39 61.20 151.94 59.78 C 148.93 58.05 147.19 54.50 147.32 51.08 C 147.32 45.16 147.32 39.25 147.34 33.33 Z" />
<path fill="#c8ccc8" opacity="1.00" d=" M 173.34 33.34 C 178.25 33.35 183.49 32.73 187.98 35.23 C 192.26 37.39 193.85 42.52 193.83 47.02 C 193.96 51.37 192.79 56.39 188.98 58.97 C 184.32 61.96 178.54 60.56 173.33 60.85 C 173.32 51.68 173.32 42.51 173.34 33.34 M 177.81 37.88 C 177.78 44.22 177.83 50.56 177.77 56.90 C 180.85 56.89 184.28 56.78 186.82 54.83 C 189.95 51.62 189.87 46.55 188.59 42.55 C 186.93 38.33 181.78 37.59 177.81 37.88 Z" />
<path fill="#c8ccc8" opacity="1.00" d=" M 126.20 70.20 C 127.69 70.20 129.18 70.20 130.67 70.21 C 130.68 77.88 130.68 85.55 130.67 93.22 C 134.60 93.19 138.54 93.19 142.48 93.22 C 142.47 94.70 142.46 96.18 142.45 97.66 C 137.04 97.69 131.63 97.67 126.21 97.67 C 126.18 88.51 126.20 79.36 126.20 70.20 Z" />
<path fill="#c8ccc8" opacity="1.00" d=" M 177.10 70.20 C 181.03 70.34 185.01 69.88 188.92 70.44 C 193.68 72.30 193.68 78.62 191.79 82.57 C 195.43 84.30 195.16 88.79 194.91 92.17 C 194.91 94.94 192.64 97.41 189.86 97.58 C 185.62 97.84 181.36 97.60 177.11 97.68 C 177.07 88.52 177.09 79.36 177.10 70.20 M 181.77 74.45 C 181.79 76.72 181.79 78.98 181.80 81.24 C 183.85 80.94 186.67 81.97 187.99 79.85 C 188.86 78.09 188.23 76.01 187.14 74.51 C 185.35 74.50 183.56 74.48 181.77 74.45 M 181.78 85.67 C 181.80 88.29 181.80 90.91 181.77 93.53 C 184.54 93.59 187.31 93.56 190.06 93.14 C 190.32 90.75 191.29 87.60 189.05 85.85 C 186.64 85.55 184.20 85.68 181.78 85.67 Z" />
<path fill="#c8ccc8" opacity="1.00" d=" M 147.19 97.65 C 151.37 88.51 154.99 79.09 159.55 70.14 C 163.58 79.32 167.66 88.46 171.64 97.66 C 170.19 97.66 168.75 97.67 167.31 97.67 C 166.66 96.36 166.03 95.06 165.39 93.75 C 161.34 93.83 157.30 93.78 153.25 93.82 C 152.70 95.12 152.13 96.41 151.57 97.71 C 150.11 97.69 148.65 97.67 147.19 97.65 M 155.07 89.62 C 157.98 89.49 160.90 89.49 163.81 89.59 C 162.29 86.19 160.72 82.79 159.52 79.25 C 158.03 82.71 156.55 86.16 155.07 89.62 Z" />
<path fill="#c8ccc8" opacity="1.00" d=" M 126.20 107.00 C 127.69 107.00 129.18 107.00 130.68 107.01 C 130.68 108.33 130.69 109.65 130.69 110.98 C 129.19 110.99 127.69 110.99 126.19 111.00 C 126.19 109.66 126.19 108.33 126.20 107.00 Z" />
<path fill="#c8ccc8" opacity="1.00" d=" M 197.07 226.85 C 198.87 225.80 202.11 226.31 203.00 228.43 L 202.00 228.40 C 200.33 228.32 198.67 228.28 197.01 228.24 C 197.02 227.90 197.06 227.20 197.07 226.85 Z" />
</g>
<g id="#f8fcf8ff">
<path fill="#f8fcf8" opacity="1.00" d=" M 368.97 25.07 C 373.37 23.83 378.54 22.01 382.74 24.78 C 381.16 28.19 379.36 31.49 377.67 34.84 C 376.93 39.87 377.70 44.99 379.25 49.79 C 379.60 51.49 380.09 53.15 380.56 54.82 C 381.51 58.77 382.47 62.98 381.41 67.01 C 378.92 69.34 375.50 70.16 372.48 71.55 C 365.74 74.26 358.47 77.96 351.04 75.82 C 346.10 74.50 340.50 73.99 336.39 70.74 C 335.34 66.28 334.95 61.68 333.66 57.27 C 332.61 52.81 330.26 48.63 330.24 43.95 C 330.18 38.03 332.35 32.41 333.31 26.62 L 333.54 25.54 C 340.14 25.72 346.43 28.79 353.10 28.31 C 358.46 27.60 363.81 26.74 368.97 25.07 Z" />
<path fill="#f8fcf8" opacity="1.00" d=" M 324.79 27.71 C 326.88 26.77 328.95 25.54 331.33 25.56 C 332.84 32.59 327.39 38.83 328.78 45.85 C 330.96 54.19 334.52 62.42 334.58 71.17 C 334.76 74.01 331.09 74.36 329.03 74.70 C 324.03 75.42 321.50 69.71 316.90 69.18 C 313.30 69.67 309.85 71.61 306.14 70.55 L 304.98 70.37 C 303.83 67.57 301.42 65.54 300.23 62.76 C 296.72 56.82 296.01 49.54 297.65 42.90 C 298.30 41.25 300.03 40.44 301.53 39.72 C 305.19 38.14 308.58 36.03 311.86 33.78 C 312.37 33.49 313.38 32.92 313.89 32.63 C 317.51 30.97 321.25 29.55 324.79 27.71 Z" />
<path fill="#f8fcf8" opacity="1.00" d=" M 382.84 25.76 C 385.13 24.91 387.72 24.96 389.83 26.29 C 393.58 28.24 398.98 27.77 401.28 31.89 C 402.01 33.68 404.20 33.59 405.72 34.33 C 409.13 34.63 412.58 32.70 415.89 34.12 C 419.73 34.93 424.22 35.42 426.18 39.39 C 423.22 40.68 419.29 40.69 417.61 37.48 C 413.34 35.32 408.61 37.98 404.11 37.58 C 405.27 41.72 406.06 45.95 406.84 50.18 C 407.16 51.17 407.47 52.17 407.76 53.17 C 408.59 54.72 409.46 56.25 410.29 57.80 C 410.33 58.71 410.40 60.55 410.44 61.47 C 407.69 64.76 403.79 67.15 402.52 71.52 C 404.96 68.71 407.14 65.62 409.97 63.16 C 410.43 63.67 411.34 64.68 411.79 65.19 C 413.45 67.89 415.42 70.40 418.21 72.01 C 418.98 74.38 419.10 77.40 417.26 79.34 C 415.16 81.84 414.13 84.99 413.17 88.06 C 412.42 88.85 412.31 90.70 410.96 90.65 C 406.31 90.76 401.64 90.86 397.00 90.50 C 398.76 87.04 402.55 84.82 402.65 80.57 C 399.91 78.90 399.86 75.84 400.76 73.04 C 400.34 73.74 399.49 75.15 399.07 75.85 C 393.29 74.93 387.72 72.41 383.28 68.59 C 382.82 64.85 384.11 60.91 382.51 57.31 C 380.37 51.09 378.09 44.64 378.23 37.99 C 378.06 35.35 379.75 33.18 380.75 30.87 C 381.58 29.23 382.28 27.52 382.84 25.76 Z" />
<path fill="#f8fcf8" opacity="1.00" d=" M 290.22 45.24 C 292.16 44.13 294.17 42.93 296.51 43.12 C 296.51 49.03 295.13 55.49 298.21 60.89 C 299.89 65.11 303.33 68.20 305.66 72.02 C 305.26 72.58 304.46 73.70 304.06 74.26 C 296.73 74.68 294.02 84.16 286.76 84.97 C 286.29 86.07 285.82 87.17 285.37 88.28 C 283.95 88.99 282.50 89.62 281.06 90.26 C 279.25 90.35 277.36 90.94 275.59 90.43 C 273.08 88.97 270.44 87.20 270.09 84.07 C 267.34 81.79 264.78 79.26 262.71 76.33 C 260.63 73.33 260.07 69.63 259.27 66.14 C 259.74 66.22 260.68 66.37 261.15 66.45 C 262.73 69.85 266.69 70.80 269.59 72.72 C 269.55 72.25 269.46 71.32 269.42 70.85 C 267.76 68.37 267.38 65.39 267.73 62.49 C 269.42 62.87 270.46 64.39 271.83 65.34 C 273.42 65.52 275.02 65.70 276.62 65.82 C 276.67 65.07 276.75 63.57 276.80 62.82 C 277.77 61.28 277.29 59.53 276.68 57.96 C 276.93 57.19 277.41 55.65 277.66 54.88 C 275.27 53.01 273.62 50.30 274.33 47.16 C 276.48 47.00 278.18 47.69 279.43 49.21 C 279.44 48.18 279.45 46.13 279.46 45.11 C 281.07 45.25 283.00 45.14 284.03 46.65 C 286.19 46.80 288.21 45.91 290.22 45.24 Z" />
<path fill="#f8fcf8" opacity="1.00" d=" M 377.34 70.50 C 379.30 69.87 381.71 68.50 383.44 70.38 C 387.59 73.78 392.63 75.78 397.86 76.79 C 397.72 78.26 397.57 79.72 397.43 81.19 C 396.16 81.59 394.92 82.07 393.72 82.64 C 392.11 84.17 390.21 85.33 388.21 86.25 C 387.15 86.58 386.09 86.92 385.04 87.26 C 383.81 86.62 382.61 86.71 381.46 87.54 C 381.58 88.33 381.81 89.92 381.93 90.71 C 377.24 90.71 372.56 90.75 367.88 90.68 C 368.04 88.02 370.08 86.48 371.93 84.90 C 372.65 81.04 375.84 78.63 379.09 76.89 C 380.26 75.55 378.25 74.19 377.51 73.20 C 377.47 72.82 377.37 72.07 377.33 71.70 C 377.33 71.40 377.34 70.80 377.34 70.50 Z" />
<path fill="#f8fcf8" opacity="1.00" d=" M 307.86 71.77 C 311.95 73.08 316.48 68.69 319.96 71.89 C 322.19 73.80 324.66 75.47 327.61 76.02 C 327.61 76.78 327.60 78.31 327.60 79.07 C 327.80 83.54 323.38 86.25 323.09 90.53 C 318.52 90.72 313.85 91.11 309.33 90.24 C 310.62 89.53 311.89 88.77 313.14 87.97 C 314.02 86.42 313.03 84.13 314.68 82.98 C 312.55 80.04 310.25 77.24 307.70 74.66 C 307.74 73.94 307.82 72.50 307.86 71.77 Z" />
<path fill="#f8fcf8" opacity="1.00" d=" M 328.39 76.80 C 331.00 76.09 333.53 76.61 335.15 78.89 C 336.25 78.58 337.22 78.05 338.08 77.30 C 339.89 78.69 341.57 80.27 342.77 82.23 C 343.28 83.08 343.81 83.92 344.35 84.75 C 345.26 86.53 345.67 88.48 345.50 90.48 C 342.89 90.97 340.19 90.56 338.21 88.68 C 334.21 88.31 330.28 87.39 326.46 86.17 C 326.45 84.35 327.31 82.77 328.26 81.29 C 328.37 79.79 328.41 78.30 328.39 76.80 Z" />
<path fill="#f8fcf8" opacity="1.00" d=" M 262.60 100.32 C 265.14 100.21 267.69 100.22 270.22 100.44 C 270.50 104.54 269.33 109.00 271.18 112.83 C 271.77 113.98 272.33 115.14 272.88 116.32 C 273.91 113.65 274.60 110.89 275.23 108.11 C 275.03 105.52 274.60 102.90 275.31 100.34 C 277.70 100.38 280.10 100.38 282.49 100.40 C 282.50 103.98 282.40 107.56 282.61 111.13 C 283.44 112.73 284.20 114.36 284.83 116.06 C 285.47 114.02 286.32 112.05 287.31 110.15 C 287.38 106.90 287.35 103.64 287.35 100.39 C 289.98 100.35 292.61 100.35 295.23 100.52 C 295.16 103.35 295.32 106.19 295.09 109.02 C 293.89 112.86 291.74 116.32 290.13 119.99 C 289.33 121.62 288.68 123.31 287.84 124.91 C 285.97 125.89 283.67 125.19 281.64 125.39 C 281.16 124.20 280.68 123.01 280.23 121.81 C 279.70 120.45 279.24 119.07 278.81 117.69 C 277.68 120.29 276.78 123.00 275.39 125.48 C 273.49 125.40 271.60 125.38 269.71 125.36 C 269.48 124.79 269.02 123.65 268.78 123.08 C 268.27 121.98 267.76 120.89 267.27 119.79 C 265.66 116.62 264.23 113.38 262.64 110.20 C 262.59 106.91 262.61 103.62 262.60 100.32 Z" />
<path fill="#f8fcf8" opacity="1.00" d=" M 303.95 100.59 C 306.54 100.11 309.18 100.25 311.80 100.34 C 312.12 101.31 312.43 102.28 312.75 103.25 C 313.25 104.46 313.74 105.68 314.25 106.90 C 314.81 108.58 315.46 110.24 316.16 111.88 C 316.71 113.33 317.25 114.78 317.75 116.25 C 318.24 117.46 318.72 118.67 319.24 119.87 C 319.96 121.66 320.55 123.49 320.96 125.38 C 318.27 125.41 315.58 125.40 312.89 125.32 C 312.64 124.10 312.39 122.87 312.15 121.65 C 309.40 121.63 306.66 121.63 303.92 121.71 C 303.71 122.93 303.50 124.14 303.29 125.36 C 300.67 125.39 298.05 125.40 295.43 125.35 C 296.33 122.12 297.60 119.00 298.80 115.87 C 299.26 114.63 299.69 113.38 300.14 112.14 C 301.35 108.27 303.15 104.58 303.95 100.59 M 306.35 115.36 C 307.50 115.35 308.65 115.34 309.80 115.34 C 309.21 113.54 308.61 111.74 308.06 109.93 C 307.40 111.71 306.82 113.52 306.35 115.36 Z" />
<path fill="#f8fcf8" opacity="1.00" d=" M 322.33 100.27 C 325.09 100.68 329.27 98.93 330.77 102.15 C 331.87 103.73 333.06 105.25 334.23 106.78 C 335.93 109.04 337.56 111.35 339.27 113.59 C 339.29 109.18 339.28 104.76 339.28 100.35 C 341.66 100.35 344.05 100.31 346.44 100.32 C 346.34 108.67 346.43 117.01 346.39 125.35 C 344.23 125.37 342.06 125.53 339.92 125.28 C 336.15 121.48 333.39 116.77 329.80 112.78 C 329.69 116.99 329.77 121.19 329.74 125.40 C 327.28 125.39 324.82 125.39 322.36 125.40 C 322.28 117.02 322.33 108.64 322.33 100.27 Z" />
<path fill="#f8fcf8" opacity="1.00" d=" M 349.46 100.28 C 352.11 100.22 354.77 100.23 357.41 100.47 C 357.27 101.31 356.99 103.01 356.85 103.86 C 356.84 104.68 356.81 106.31 356.80 107.13 C 356.96 107.68 357.27 108.77 357.42 109.32 C 360.17 109.27 362.92 109.27 365.67 109.36 C 365.76 106.37 365.76 103.38 365.70 100.39 C 368.32 100.24 370.94 100.23 373.56 100.30 C 373.51 108.66 373.58 117.03 373.52 125.39 C 370.93 125.40 368.33 125.39 365.74 125.32 C 365.71 122.09 365.70 118.85 365.68 115.61 C 362.89 115.67 360.10 115.66 357.32 115.62 C 357.33 118.85 357.32 122.09 357.33 125.33 C 354.72 125.39 352.11 125.40 349.51 125.40 C 349.43 117.03 349.52 108.65 349.46 100.28 Z" />
<path fill="#f8fcf8" opacity="1.00" d=" M 383.60 100.28 C 386.11 100.24 388.64 100.25 391.15 100.44 C 391.97 103.34 393.18 106.10 394.27 108.90 C 394.85 110.45 395.52 111.97 396.24 113.46 C 396.36 113.91 396.59 114.82 396.71 115.27 C 397.47 116.90 398.19 118.55 398.75 120.26 C 399.46 121.94 400.10 123.64 400.69 125.37 C 397.96 125.39 395.23 125.38 392.51 125.42 C 392.09 124.17 391.70 122.91 391.37 121.63 C 388.78 121.64 386.19 121.64 383.61 121.63 C 383.30 122.94 382.84 124.20 382.31 125.43 C 379.89 125.38 377.47 125.39 375.05 125.38 C 375.41 122.87 376.28 120.50 377.21 118.16 C 378.02 115.69 379.03 113.29 379.82 110.82 C 380.24 109.60 380.68 108.38 381.14 107.18 C 381.68 105.71 382.24 104.24 382.77 102.77 C 382.97 102.15 383.39 100.90 383.60 100.28 M 385.40 115.31 C 386.79 115.32 388.18 115.34 389.57 115.37 C 389.32 114.61 389.07 113.86 388.82 113.12 C 388.26 111.65 387.64 110.21 387.07 108.75 C 386.85 111.01 386.45 113.27 385.40 115.31 Z" />
<path fill="#f8fcf8" opacity="1.00" d=" M 410.04 100.06 C 413.36 99.05 416.96 99.27 420.15 100.64 C 422.52 102.34 424.81 104.31 425.87 107.12 C 427.25 111.63 427.52 117.36 424.25 121.18 C 422.86 122.94 420.82 123.98 418.98 125.19 C 412.45 127.48 404.55 124.60 402.11 117.90 C 400.84 113.99 400.81 109.58 402.63 105.84 C 404.42 103.16 406.95 101.06 410.04 100.06 M 410.52 117.58 C 413.33 120.01 417.77 118.60 419.47 115.50 C 419.44 113.62 419.41 111.75 419.39 109.87 C 418.54 108.59 417.41 107.57 416.18 106.67 C 415.30 106.64 413.54 106.60 412.65 106.57 C 408.39 108.12 406.54 114.74 410.52 117.58 Z" />
<path fill="#f8fcf8" opacity="1.00" d=" M 197.35 214.43 C 199.60 215.42 198.73 218.12 199.01 220.02 C 200.03 218.40 199.53 216.43 199.59 214.65 C 200.27 214.66 201.62 214.67 202.29 214.67 C 202.36 218.66 202.24 222.65 202.35 226.64 C 201.59 226.47 200.09 226.14 199.33 225.98 C 199.48 225.40 199.76 224.24 199.91 223.67 L 199.20 223.71 C 199.43 225.25 198.72 226.17 197.08 226.45 C 197.16 222.44 197.19 218.43 197.35 214.43 M 199.41 220.34 C 199.96 220.80 199.96 220.80 199.41 220.34 M 199.42 222.16 C 199.89 222.70 199.89 222.70 199.42 222.16 Z" />
<path fill="#f8fcf8" opacity="1.00" d=" M 71.47 292.31 C 71.97 292.32 72.97 292.34 73.47 292.36 C 73.51 296.89 73.46 301.42 73.51 305.96 C 72.99 305.96 71.95 305.97 71.43 305.97 C 71.47 301.42 71.43 296.86 71.47 292.31 Z" />
<path fill="#f8fcf8" opacity="1.00" d=" M 104.34 292.29 C 104.88 292.31 105.94 292.35 106.47 292.37 C 106.48 294.74 106.48 297.11 106.47 299.49 C 105.94 299.49 104.88 299.48 104.35 299.47 C 104.32 297.07 104.32 294.68 104.34 292.29 Z" />
<path fill="#f8fcf8" opacity="1.00" d=" M 138.65 292.37 C 139.15 292.35 140.15 292.30 140.65 292.28 C 140.70 296.85 140.66 301.42 140.67 305.98 C 140.16 305.98 139.13 305.96 138.61 305.95 C 138.67 301.42 138.63 296.89 138.65 292.37 Z" />
<path fill="#f8fcf8" opacity="1.00" d=" M 171.52 292.31 C 172.01 292.32 172.98 292.34 173.47 292.35 C 173.49 294.73 173.49 297.10 173.48 299.48 C 172.99 299.48 172.01 299.48 171.52 299.48 C 171.51 297.09 171.51 294.70 171.52 292.31 Z" />
<path fill="#f8fcf8" opacity="1.00" d=" M 205.68 292.37 C 206.17 292.35 207.16 292.30 207.65 292.28 C 207.69 296.90 207.68 301.51 207.65 306.13 C 207.17 306.02 206.19 305.81 205.71 305.70 C 205.58 301.26 205.72 296.81 205.68 292.37 Z" />
<path fill="#f8fcf8" opacity="1.00" d=" M 238.53 292.34 C 239.02 292.34 239.98 292.33 240.46 292.33 C 240.49 294.71 240.49 297.10 240.48 299.48 C 239.99 299.48 239.01 299.48 238.52 299.48 C 238.51 297.10 238.51 294.72 238.53 292.34 Z" />
<path fill="#f8fcf8" opacity="1.00" d=" M 273.17 291.99 C 273.53 292.11 274.25 292.35 274.62 292.47 C 274.92 296.95 274.65 301.45 274.74 305.94 C 274.31 305.96 273.43 306.00 273.00 306.02 C 273.06 301.34 272.84 296.66 273.17 291.99 Z" />
<path fill="#f8fcf8" opacity="1.00" d=" M 305.82 299.26 C 306.38 297.00 304.30 292.39 307.64 292.15 C 307.69 294.64 307.68 297.14 307.59 299.65 C 307.15 299.55 306.26 299.36 305.82 299.26 Z" />
<path fill="#f8fcf8" opacity="1.00" d=" M 340.20 292.32 C 340.57 292.29 341.33 292.22 341.70 292.19 C 341.78 296.79 341.73 301.39 341.75 305.98 C 341.31 305.99 340.44 306.00 340.00 306.01 C 340.12 301.44 339.74 296.86 340.20 292.32 Z" />
<path fill="#f8fcf8" opacity="1.00" d=" M 373.20 292.34 C 373.56 292.30 374.29 292.22 374.65 292.18 C 374.69 294.70 374.69 297.23 374.57 299.76 C 371.47 299.16 373.33 294.58 373.20 292.34 Z" />
</g>
<g id="#505450ff">
<path fill="#505450" opacity="1.00" d=" M 331.33 25.56 C 331.83 25.83 332.81 26.36 333.31 26.62 C 332.35 32.41 330.18 38.03 330.24 43.95 C 330.26 48.63 332.61 52.81 333.66 57.27 C 334.95 61.68 335.34 66.28 336.39 70.74 C 340.50 73.99 346.10 74.50 351.04 75.82 C 358.47 77.96 365.74 74.26 372.48 71.55 C 375.50 70.16 378.92 69.34 381.41 67.01 C 382.47 62.98 381.51 58.77 380.56 54.82 C 381.24 55.61 381.96 56.40 382.51 57.31 C 384.11 60.91 382.82 64.85 383.28 68.59 C 387.72 72.41 393.29 74.93 399.07 75.85 C 401.16 77.08 397.98 79.65 397.43 81.19 C 397.57 79.72 397.72 78.26 397.86 76.79 C 392.63 75.78 387.59 73.78 383.44 70.38 C 381.71 68.50 379.30 69.87 377.34 70.50 C 377.34 70.80 377.33 71.40 377.33 71.70 C 376.81 71.57 375.78 71.32 375.27 71.19 C 368.55 74.15 361.57 77.74 354.00 77.00 C 347.68 76.41 341.45 74.62 335.79 71.77 C 334.50 73.15 333.19 74.50 331.87 75.84 C 330.62 75.98 329.37 76.11 328.13 76.24 C 327.95 77.18 327.77 78.13 327.60 79.07 C 327.60 78.31 327.61 76.78 327.61 76.02 C 324.66 75.47 322.19 73.80 319.96 71.89 C 316.48 68.69 311.95 73.08 307.86 71.77 C 307.82 72.50 307.74 73.94 307.70 74.66 C 307.17 73.29 306.66 71.92 306.14 70.55 C 309.85 71.61 313.30 69.67 316.90 69.18 C 321.50 69.71 324.03 75.42 329.03 74.70 C 331.09 74.36 334.76 74.01 334.58 71.17 C 334.52 62.42 330.96 54.19 328.78 45.85 C 327.39 38.83 332.84 32.59 331.33 25.56 Z" />
</g>
<g id="#080c08ff">
<path fill="#080c08" opacity="1.00" d=" M 385.40 115.31 C 386.45 113.27 386.85 111.01 387.07 108.75 C 387.64 110.21 388.26 111.65 388.82 113.12 C 389.07 113.86 389.32 114.61 389.57 115.37 C 388.18 115.34 386.79 115.32 385.40 115.31 Z" />
</g>
<g id="#081008ff">
<path fill="#081008" opacity="1.00" d=" M 306.35 115.36 C 306.82 113.52 307.40 111.71 308.06 109.93 C 308.61 111.74 309.21 113.54 309.80 115.34 C 308.65 115.34 307.50 115.35 306.35 115.36 Z" />
</g>
<g id="#3e110eff">
<path fill="#3e110e" opacity="1.00" d=" M 204.27 145.09 C 205.90 144.64 206.44 145.22 205.89 146.84 C 204.25 147.29 203.71 146.70 204.27 145.09 Z" />
</g>
<g id="#541c1cff">
<path fill="#541c1c" opacity="1.00" d=" M 202.04 151.08 C 205.03 149.49 202.26 154.37 202.04 151.08 Z" />
</g>
<g id="#782828ff">
<path fill="#782828" opacity="1.00" d=" M 208.25 153.29 C 208.74 153.84 208.74 153.84 208.25 153.29 Z" />
<path fill="#782828" opacity="1.00" d=" M 227.25 154.19 C 227.76 154.72 227.76 154.72 227.25 154.19 Z" />
<path fill="#782828" opacity="1.00" d=" M 206.21 162.33 C 206.74 162.84 206.74 162.84 206.21 162.33 Z" />
<path fill="#782828" opacity="1.00" d=" M 205.28 170.26 C 205.81 170.77 205.81 170.77 205.28 170.26 Z" />
<path fill="#782828" opacity="1.00" d=" M 211.27 175.35 C 211.76 175.89 211.76 175.89 211.27 175.35 Z" />
<path fill="#782828" opacity="1.00" d=" M 218.32 244.28 C 218.84 244.80 218.84 244.80 218.32 244.28 Z" />
<path fill="#782828" opacity="1.00" d=" M 243.21 246.22 C 243.70 246.77 243.70 246.77 243.21 246.22 Z" />
<path fill="#782828" opacity="1.00" d=" M 223.29 250.23 C 223.80 250.77 223.80 250.77 223.29 250.23 Z" />
<path fill="#782828" opacity="1.00" d=" M 224.19 253.24 C 224.72 253.76 224.72 253.76 224.19 253.24 Z" />
<path fill="#782828" opacity="1.00" d=" M 214.22 258.23 C 214.70 258.79 214.70 258.79 214.22 258.23 Z" />
<path fill="#782828" opacity="1.00" d=" M 214.18 267.24 C 214.71 267.75 214.71 267.75 214.18 267.24 Z" />
<path fill="#782828" opacity="1.00" d=" M 232.22 268.21 C 232.73 268.73 232.73 268.73 232.22 268.21 Z" />
</g>
<g id="#451513ff">
<path fill="#451513" opacity="1.00" d=" M 221.12 154.45 C 222.52 154.01 223.02 154.49 222.63 155.89 C 221.22 156.32 220.72 155.84 221.12 154.45 Z" />
</g>
<g id="#4c1814ff">
<path fill="#4c1814" opacity="1.00" d=" M 233.08 157.03 C 236.37 157.35 231.41 159.97 233.08 157.03 Z" />
</g>
<g id="#581c18ff">
<path fill="#581c18" opacity="1.00" d=" M 212.10 159.09 C 215.36 159.32 210.52 162.09 212.10 159.09 Z" />
<path fill="#581c18" opacity="1.00" d=" M 191.43 251.11 C 194.43 249.53 191.67 254.38 191.43 251.11 Z" />
</g>
<g id="#381010ff">
<path fill="#381010" opacity="1.00" d=" M 222.14 160.03 C 223.78 159.48 224.35 160.02 223.86 161.64 C 222.23 162.19 221.66 161.65 222.14 160.03 Z" />
</g>
<g id="#5c1e1cff">
<path fill="#5c1e1c" opacity="1.00" d=" M 211.06 164.27 C 214.33 164.28 209.68 167.38 211.06 164.27 Z" />
</g>
<g id="#501818ff">
<path fill="#501818" opacity="1.00" d=" M 213.27 163.90 C 216.33 162.49 213.31 167.22 213.27 163.90 Z" />
</g>
<g id="#802c28ff">
<path fill="#802c28" opacity="1.00" d=" M 205.30 165.31 C 205.82 165.83 205.82 165.83 205.30 165.31 Z" />
<path fill="#802c28" opacity="1.00" d=" M 219.23 167.26 C 219.77 167.76 219.77 167.76 219.23 167.26 Z" />
<path fill="#802c28" opacity="1.00" d=" M 196.25 239.22 C 196.77 239.75 196.77 239.75 196.25 239.22 Z" />
<path fill="#802c28" opacity="1.00" d=" M 221.29 242.22 C 221.77 242.78 221.77 242.78 221.29 242.22 Z" />
<path fill="#802c28" opacity="1.00" d=" M 215.26 243.22 C 215.75 243.77 215.75 243.77 215.26 243.22 Z" />
<path fill="#802c28" opacity="1.00" d=" M 228.25 252.24 C 228.79 252.74 228.79 252.74 228.25 252.24 Z" />
<path fill="#802c28" opacity="1.00" d=" M 209.27 284.33 C 209.81 284.82 209.81 284.82 209.27 284.33 Z" />
</g>
<g id="#782420ff">
<path fill="#782420" opacity="1.00" d=" M 211.23 170.29 C 211.71 170.84 211.71 170.84 211.23 170.29 Z" />
</g>
<g id="#5e1e1dff">
<path fill="#5e1e1d" opacity="1.00" d=" M 207.46 173.15 C 209.39 173.77 207.13 177.26 205.48 175.93 C 205.41 174.78 206.74 173.94 207.46 173.15 Z" />
</g>
<g id="#581c1cff">
<path fill="#581c1c" opacity="1.00" d=" M 211.38 173.09 C 214.45 171.63 211.47 176.36 211.38 173.09 Z" />
<path fill="#581c1c" opacity="1.00" d=" M 201.18 241.09 C 204.25 239.63 201.27 244.36 201.18 241.09 Z" />
<path fill="#581c1c" opacity="1.00" d=" M 235.11 248.35 C 238.38 248.55 233.56 251.37 235.11 248.35 Z" />
</g>
<g id="#431413ff">
<path fill="#431413" opacity="1.00" d=" M 214.46 173.14 C 215.85 172.69 216.34 173.17 215.91 174.59 C 214.52 175.03 214.03 174.54 214.46 173.14 Z" />
</g>
<g id="#541a18ff">
<path fill="#541a18" opacity="1.00" d=" M 218.24 177.03 C 221.17 175.36 218.56 180.32 218.24 177.03 Z" />
<path fill="#541a18" opacity="1.00" d=" M 238.01 243.10 C 241.30 243.29 236.47 246.11 238.01 243.10 Z" />
<path fill="#541a18" opacity="1.00" d=" M 213.10 255.08 C 216.38 255.26 211.57 258.11 213.10 255.08 Z" />
</g>
<g id="#585858ff">
<path fill="#585858" opacity="1.00" d=" M 207.48 177.91 L 208.02 178.22 C 210.08 179.53 212.66 178.70 214.94 178.70 C 220.03 178.81 225.12 178.86 230.21 178.77 C 230.56 179.75 230.87 180.76 231.13 181.77 C 231.19 183.39 231.19 185.01 231.25 186.63 C 229.54 186.43 227.83 186.23 226.11 186.08 C 225.70 186.05 224.88 185.99 224.47 185.97 C 226.68 185.84 228.88 185.84 231.09 185.87 C 230.63 183.82 230.18 181.77 229.72 179.73 C 228.59 179.66 227.47 179.60 226.34 179.55 C 226.35 181.41 225.93 183.35 224.13 184.30 C 223.67 183.73 222.74 182.60 222.28 182.03 C 223.39 181.39 224.46 180.67 225.48 179.88 C 216.88 179.32 208.24 179.51 199.63 179.58 C 199.26 179.76 198.51 180.12 198.14 180.30 C 198.08 181.25 198.36 182.11 198.99 182.90 L 199.73 180.59 C 200.58 181.14 201.15 181.88 201.46 182.80 C 200.54 183.53 199.56 184.16 198.51 184.68 C 198.06 183.11 197.60 181.53 196.87 180.07 C 196.09 179.93 194.53 179.64 193.75 179.50 C 193.29 181.63 192.80 183.75 192.32 185.87 C 198.71 185.43 205.11 185.20 211.51 185.41 C 211.53 183.97 211.54 182.53 211.56 181.09 C 214.87 181.09 218.19 181.10 221.50 181.11 C 221.70 182.59 221.92 184.06 222.09 185.55 L 222.09 186.08 C 222.10 187.81 222.11 189.54 222.12 191.28 L 220.81 191.11 C 217.70 191.03 214.59 191.09 211.49 190.96 C 211.51 189.18 211.52 187.39 211.54 185.61 C 205.07 185.53 198.60 185.77 192.17 186.50 C 192.19 185.95 192.23 184.85 192.25 184.30 C 192.32 182.68 192.43 181.08 192.52 179.48 C 197.29 177.49 202.94 180.30 207.48 177.91 Z" />
<path fill="#585858" opacity="1.00" d=" M 232.52 186.11 C 233.98 186.15 235.46 186.18 236.93 186.21 C 237.10 189.45 237.06 192.71 236.84 195.95 C 235.62 195.97 234.40 195.99 233.19 196.01 C 233.10 192.71 233.98 189.23 232.52 186.11 Z" />
<path fill="#585858" opacity="1.00" d=" M 199.41 220.34 C 199.96 220.80 199.96 220.80 199.41 220.34 Z" />
<path fill="#585858" opacity="1.00" d=" M 199.42 222.16 C 199.89 222.70 199.89 222.70 199.42 222.16 Z" />
<path fill="#585858" opacity="1.00" d=" M 116.43 276.35 C 117.32 277.29 118.20 278.23 119.08 279.19 C 120.28 279.68 121.48 280.19 122.70 280.64 C 119.21 280.99 115.68 281.04 112.18 280.76 L 111.37 279.82 C 113.05 279.79 114.74 279.77 116.42 279.76 C 116.42 278.91 116.43 277.20 116.43 276.35 Z" />
</g>
<g id="#c0c0c0ff">
<path fill="#c0c0c0" opacity="1.00" d=" M 208.02 178.22 C 210.13 177.39 212.93 177.25 214.98 178.32 L 214.94 178.70 C 212.66 178.70 210.08 179.53 208.02 178.22 Z" />
<path fill="#c0c0c0" opacity="1.00" d=" M 124.37 263.01 C 125.11 263.04 126.59 263.11 127.32 263.14 C 130.47 265.67 135.11 263.81 138.87 264.31 C 139.01 264.85 139.30 265.92 139.44 266.45 C 140.04 266.83 141.25 267.58 141.85 267.95 C 140.38 267.93 138.80 268.26 137.46 267.49 C 136.87 265.36 135.22 264.70 133.21 264.94 C 133.10 265.69 132.87 267.20 132.75 267.96 C 130.21 268.25 127.65 268.27 125.10 268.15 C 124.86 266.43 124.62 264.72 124.37 263.01 Z" />
</g>
<g id="#f0f0f0ff">
<path fill="#f0f0f0" opacity="1.00" d=" M 193.75 179.50 C 194.53 179.64 196.09 179.93 196.87 180.07 C 197.60 181.53 198.06 183.11 198.51 184.68 C 199.56 184.16 200.54 183.53 201.46 182.80 C 201.15 181.88 200.58 181.14 199.73 180.59 L 198.99 182.90 C 198.36 182.11 198.08 181.25 198.14 180.30 C 198.51 180.12 199.26 179.76 199.63 179.58 C 208.24 179.51 216.88 179.32 225.48 179.88 C 224.46 180.67 223.39 181.39 222.28 182.03 C 222.74 182.60 223.67 183.73 224.13 184.30 C 223.62 184.61 222.60 185.24 222.09 185.55 C 221.92 184.06 221.70 182.59 221.50 181.11 C 218.19 181.10 214.87 181.09 211.56 181.09 C 211.54 182.53 211.53 183.97 211.51 185.41 C 205.11 185.20 198.71 185.43 192.32 185.87 C 192.80 183.75 193.29 181.63 193.75 179.50 Z" />
<path fill="#f0f0f0" opacity="1.00" d=" M 192.17 186.50 C 198.60 185.77 205.07 185.53 211.54 185.61 C 211.52 187.39 211.51 189.18 211.49 190.96 C 214.59 191.09 217.70 191.03 220.81 191.11 L 220.85 192.19 C 211.24 192.08 201.48 191.42 191.96 193.02 L 191.96 192.63 C 192.01 190.59 192.10 188.54 192.17 186.50 Z" />
<path fill="#f0f0f0" opacity="1.00" d=" M 222.09 186.08 C 222.69 186.06 223.88 186.00 224.47 185.97 C 224.88 185.99 225.70 186.05 226.11 186.08 C 226.47 188.12 226.83 190.17 227.18 192.22 C 225.49 191.90 223.81 191.56 222.12 191.28 C 222.11 189.54 222.10 187.81 222.09 186.08 Z" />
<path fill="#f0f0f0" opacity="1.00" d=" M 42.84 191.06 C 65.86 192.60 88.95 192.15 112.00 192.20 C 134.70 192.20 157.42 192.50 180.09 191.07 C 180.09 191.74 180.10 193.10 180.11 193.78 C 134.37 193.79 88.63 193.77 42.90 193.79 C 42.88 193.11 42.85 191.74 42.84 191.06 Z" />
<path fill="#f0f0f0" opacity="1.00" d=" M 243.02 191.61 C 248.66 191.03 254.31 191.73 259.96 191.85 C 269.30 192.13 278.64 192.29 287.98 192.21 C 320.99 192.23 354.00 192.19 387.01 192.20 C 403.38 192.34 419.75 192.09 436.09 191.11 C 436.13 191.80 436.21 193.17 436.24 193.85 C 371.87 193.67 307.49 193.80 243.11 193.79 C 243.09 193.24 243.04 192.15 243.02 191.61 Z" />
<path fill="#f0f0f0" opacity="1.00" d=" M 191.93 194.71 C 202.94 195.55 213.98 194.92 225.00 194.98 C 226.73 194.99 228.39 195.53 230.05 195.97 L 228.92 196.23 C 216.60 195.44 204.24 196.22 191.92 195.77 L 191.93 194.71 Z" />
<path fill="#f0f0f0" opacity="1.00" d=" M 191.73 200.72 C 196.39 199.43 201.27 200.19 206.03 200.00 C 213.66 200.15 221.32 199.67 228.93 200.27 C 228.92 202.67 228.90 205.07 228.90 207.48 C 224.41 206.96 219.86 207.02 215.38 207.60 C 218.84 207.90 222.32 207.69 225.76 207.33 C 225.96 207.92 226.35 209.11 226.55 209.70 C 222.43 209.40 218.37 210.54 214.25 210.63 C 217.07 210.69 219.90 210.59 222.73 210.64 C 223.51 211.43 224.30 212.23 225.10 213.03 C 220.46 212.97 215.67 214.04 211.12 212.91 C 206.88 210.53 202.59 208.15 197.79 207.09 C 197.67 205.19 197.34 203.33 197.01 201.47 C 195.24 201.71 193.48 201.95 191.72 202.20 L 191.73 200.72 Z" />
<path fill="#f0f0f0" opacity="1.00" d=" M 211.95 262.49 C 275.64 262.45 339.33 262.43 403.02 262.50 C 406.69 262.27 408.71 265.86 409.18 269.02 C 408.49 272.35 405.76 275.69 402.03 275.23 C 338.38 275.10 274.72 275.40 211.08 275.09 C 211.35 274.67 211.89 273.83 212.16 273.41 C 275.46 273.13 338.77 273.40 402.08 273.28 C 404.49 273.45 407.21 271.61 406.82 268.96 C 407.30 266.23 404.69 263.94 402.06 264.32 C 338.74 264.25 275.41 264.36 212.08 264.26 L 211.95 262.49 Z" />
</g>
<g id="#d0d0d0ff">
<path fill="#d0d0d0" opacity="1.00" d=" M 226.34 179.55 C 227.47 179.60 228.59 179.66 229.72 179.73 C 230.18 181.77 230.63 183.82 231.09 185.87 C 228.88 185.84 226.68 185.84 224.47 185.97 C 223.88 186.00 222.69 186.06 222.09 186.08 L 222.09 185.55 C 222.60 185.24 223.62 184.61 224.13 184.30 C 225.93 183.35 226.35 181.41 226.34 179.55 Z" />
<path fill="#d0d0d0" opacity="1.00" d=" M 226.11 186.08 C 227.83 186.23 229.54 186.43 231.25 186.63 C 231.38 188.74 231.58 190.85 231.77 192.96 L 229.95 193.22 C 227.40 193.53 224.86 193.94 222.30 193.91 C 221.95 193.66 221.25 193.17 220.90 192.92 L 220.85 192.19 L 220.81 191.11 L 222.12 191.28 C 223.81 191.56 225.49 191.90 227.18 192.22 C 226.83 190.17 226.47 188.12 226.11 186.08 Z" />
<path fill="#d0d0d0" opacity="1.00" d=" M 42.80 188.68 C 88.58 188.65 134.35 188.66 180.13 188.67 C 180.12 189.27 180.10 190.47 180.09 191.07 C 157.42 192.50 134.70 192.20 112.00 192.20 C 88.95 192.15 65.86 192.60 42.84 191.06 C 42.83 190.47 42.81 189.28 42.80 188.68 Z" />
<path fill="#d0d0d0" opacity="1.00" d=" M 242.90 188.72 C 307.25 188.64 371.61 188.75 435.96 188.67 C 435.99 189.28 436.06 190.50 436.09 191.11 C 419.75 192.09 403.38 192.34 387.01 192.20 C 354.00 192.19 320.99 192.23 287.98 192.21 C 278.64 192.29 269.30 192.13 259.96 191.85 C 254.31 191.73 248.66 191.03 243.02 191.61 C 242.99 190.89 242.93 189.44 242.90 188.72 Z" />
<path fill="#d0d0d0" opacity="1.00" d=" M 197.79 207.09 C 202.59 208.15 206.88 210.53 211.12 212.91 C 215.67 214.04 220.46 212.97 225.10 213.03 C 224.30 212.23 223.51 211.43 222.73 210.64 C 225.33 210.68 227.94 210.57 230.54 210.46 C 230.41 211.30 230.14 212.98 230.00 213.83 C 224.37 215.33 218.65 213.74 212.96 213.86 C 207.81 213.85 202.61 213.39 197.52 214.44 C 197.64 213.37 197.87 211.23 197.99 210.16 C 198.83 210.70 199.66 211.25 200.50 211.80 C 200.67 211.11 201.02 209.74 201.19 209.06 C 200.39 209.20 198.79 209.49 197.99 209.63 L 197.91 208.91 L 197.79 207.09 Z" />
<path fill="#d0d0d0" opacity="1.00" d=" M 207.19 215.01 C 209.59 215.08 211.99 215.19 214.39 215.14 C 215.54 221.85 215.57 228.76 214.88 235.52 C 214.70 229.46 215.11 223.38 214.48 217.34 C 212.03 217.53 209.59 217.75 207.15 218.00 C 207.16 217.25 207.18 215.76 207.19 215.01 Z" />
<path fill="#d0d0d0" opacity="1.00" d=" M 209.01 218.97 L 210.42 219.06 C 210.45 224.69 210.59 230.33 210.21 235.96 C 211.01 236.03 212.61 236.17 213.42 236.25 C 212.63 240.17 212.59 244.73 208.81 247.12 C 207.88 243.51 207.26 239.81 206.89 236.11 C 207.38 235.92 208.37 235.53 208.87 235.33 L 208.88 234.99 C 209.13 229.65 208.97 224.31 209.01 218.97 Z" />
</g>
<g id="#484848ff">
<path fill="#484848" opacity="1.00" d=" M 231.13 181.77 C 231.33 182.42 231.73 183.72 231.92 184.37 C 235.99 183.82 239.59 185.32 242.86 187.58 C 242.87 187.87 242.89 188.44 242.90 188.72 C 242.93 189.44 242.99 190.89 243.02 191.61 C 243.04 192.15 243.09 193.24 243.11 193.79 C 307.49 193.80 371.87 193.67 436.24 193.85 L 437.23 193.89 C 437.41 193.90 437.78 193.93 437.97 193.94 C 440.16 195.40 442.59 196.48 445.31 196.08 C 444.67 195.67 443.40 194.83 442.76 194.41 C 446.49 194.49 450.25 194.68 453.96 194.24 C 456.16 193.80 456.10 191.29 456.54 189.58 C 458.45 190.49 457.53 193.10 456.30 194.20 C 454.82 196.29 452.11 195.51 449.96 195.67 C 446.87 195.49 444.01 197.28 440.92 196.81 C 438.88 196.24 437.14 194.66 434.93 194.78 C 371.95 194.76 308.97 194.81 245.98 194.74 C 243.69 194.67 241.42 195.31 239.49 196.56 C 237.57 198.04 235.03 197.50 232.78 197.62 C 232.60 203.12 231.76 208.57 231.16 214.04 C 227.00 215.37 228.71 220.38 228.47 223.66 C 225.36 223.61 222.25 223.65 219.15 223.77 C 219.33 220.73 219.34 217.69 219.21 214.66 C 217.60 214.86 215.99 215.03 214.39 215.14 C 211.99 215.19 209.59 215.08 207.19 215.01 C 207.18 215.76 207.16 217.25 207.15 218.00 L 207.13 218.85 L 205.90 218.78 C 206.17 217.45 206.38 216.12 206.54 214.78 C 205.12 214.73 203.70 214.69 202.29 214.67 C 201.62 214.67 200.27 214.66 199.59 214.65 C 199.53 216.43 200.03 218.40 199.01 220.02 C 198.73 218.12 199.60 215.42 197.35 214.43 C 197.19 218.43 197.16 222.44 197.08 226.45 L 197.07 226.85 C 197.06 227.20 197.02 227.90 197.01 228.24 C 198.67 228.28 200.33 228.32 202.00 228.40 C 202.22 228.70 202.68 229.30 202.91 229.60 C 200.71 229.68 198.51 229.69 196.31 229.69 C 195.94 224.74 195.98 219.77 196.00 214.82 C 194.81 214.77 193.63 214.72 192.46 214.67 C 192.26 212.12 191.91 209.58 191.37 207.07 C 192.06 206.99 193.44 206.81 194.13 206.73 L 194.56 206.66 C 195.41 207.76 196.53 208.51 197.91 208.91 L 197.99 209.63 C 198.79 209.49 200.39 209.20 201.19 209.06 C 201.02 209.74 200.67 211.11 200.50 211.80 C 199.66 211.25 198.83 210.70 197.99 210.16 C 197.87 211.23 197.64 213.37 197.52 214.44 C 202.61 213.39 207.81 213.85 212.96 213.86 C 218.65 213.74 224.37 215.33 230.00 213.83 C 230.14 212.98 230.41 211.30 230.54 210.46 C 227.94 210.57 225.33 210.68 222.73 210.64 C 219.90 210.59 217.07 210.69 214.25 210.63 C 218.37 210.54 222.43 209.40 226.55 209.70 C 226.35 209.11 225.96 207.92 225.76 207.33 C 222.32 207.69 218.84 207.90 215.38 207.60 C 219.86 207.02 224.41 206.96 228.90 207.48 C 229.36 207.50 230.27 207.55 230.72 207.57 C 231.03 205.31 231.31 203.05 231.54 200.79 C 231.93 199.42 231.48 198.55 230.19 198.18 C 230.68 197.75 231.68 196.89 232.17 196.46 C 230.97 196.60 228.56 196.87 227.36 197.01 L 228.92 196.23 L 230.05 195.97 C 231.34 195.95 231.93 194.89 232.45 193.85 C 231.82 193.69 230.57 193.38 229.95 193.22 L 231.77 192.96 C 231.58 190.85 231.38 188.74 231.25 186.63 C 231.19 185.01 231.19 183.39 231.13 181.77 M 232.52 186.11 C 233.98 189.23 233.10 192.71 233.19 196.01 C 234.40 195.99 235.62 195.97 236.84 195.95 C 237.06 192.71 237.10 189.45 236.93 186.21 C 235.46 186.18 233.98 186.15 232.52 186.11 M 239.97 188.23 C 238.52 191.27 243.29 188.29 239.97 188.23 M 240.19 191.40 C 239.46 192.23 239.02 194.88 240.58 194.90 C 241.25 194.04 241.43 191.66 240.19 191.40 M 227.56 210.16 C 228.26 209.87 229.66 209.29 230.36 209.00 C 229.66 208.71 228.26 208.14 227.55 207.85 C 226.61 208.62 226.61 209.39 227.56 210.16 M 193.20 208.03 C 193.22 209.95 193.26 211.87 193.32 213.79 C 194.26 213.80 196.13 213.82 197.07 213.82 C 197.24 212.21 197.37 210.61 197.49 209.00 C 196.41 208.76 194.27 208.27 193.20 208.03 M 219.92 223.01 C 222.46 223.11 225.01 223.14 227.55 223.08 C 227.41 222.54 227.13 221.46 226.99 220.91 C 227.16 219.14 227.32 217.37 227.48 215.60 C 225.10 215.64 222.72 215.64 220.34 215.58 C 219.97 218.04 219.85 220.52 219.92 223.01 Z" />
<path fill="#484848" opacity="1.00" d=" M 133.56 272.96 C 134.57 271.65 135.64 271.49 136.77 272.47 C 135.78 273.88 134.71 274.04 133.56 272.96 Z" />
</g>
<g id="#41403fff">
<path fill="#41403f" opacity="1.00" d=" M 185.53 184.52 C 187.76 184.42 190.01 184.36 192.25 184.30 C 192.23 184.85 192.19 185.95 192.17 186.50 C 192.10 188.54 192.01 190.59 191.96 192.63 C 191.25 190.42 190.74 188.15 190.45 185.85 C 188.73 185.88 187.01 185.93 185.29 185.97 C 185.24 189.54 184.75 193.29 186.25 196.66 C 185.64 200.57 186.90 204.54 190.22 206.86 C 189.11 205.96 187.23 205.70 186.38 204.83 C 185.79 201.55 185.09 198.15 183.27 195.31 C 182.99 197.32 182.79 199.33 182.58 201.35 C 182.18 199.56 182.17 197.72 182.35 195.91 C 180.95 195.45 179.55 194.82 178.04 194.84 C 133.36 194.89 88.67 194.87 43.99 194.88 C 41.14 194.88 38.98 197.86 35.99 196.80 C 32.41 195.89 28.74 195.66 25.05 195.66 C 20.71 194.67 20.94 187.15 25.58 186.81 C 32.07 186.63 38.61 186.47 45.03 187.61 C 89.02 187.57 133.01 187.58 177.00 187.62 C 180.10 187.66 183.22 186.64 185.53 184.52 M 25.06 188.26 C 22.21 189.21 22.24 193.24 25.06 194.24 C 28.81 194.78 32.63 194.46 36.41 194.54 C 35.85 194.93 34.72 195.73 34.16 196.13 C 36.32 196.16 41.15 196.12 40.42 192.76 C 40.39 191.17 40.42 189.58 40.46 188.00 C 35.33 188.16 30.16 187.64 25.06 188.26 M 41.32 188.29 C 40.76 189.84 40.21 192.86 41.70 193.82 C 42.33 192.28 42.69 189.27 41.32 188.29 M 182.04 188.19 C 181.55 189.90 182.08 190.48 183.63 189.93 C 184.12 188.21 183.58 187.63 182.04 188.19 M 42.80 188.68 C 42.81 189.28 42.83 190.47 42.84 191.06 C 42.85 191.74 42.88 193.11 42.90 193.79 C 88.63 193.77 134.37 193.79 180.11 193.78 C 180.10 193.10 180.09 191.74 180.09 191.07 C 180.10 190.47 180.12 189.27 180.13 188.67 C 134.35 188.66 88.58 188.65 42.80 188.68 M 182.52 191.11 C 182.36 192.41 182.19 193.71 182.01 195.01 C 182.49 195.01 183.44 195.01 183.92 195.01 C 183.76 193.70 183.60 192.40 183.45 191.09 C 183.22 191.10 182.75 191.11 182.52 191.11 Z" />
</g>
<g id="#505458ff">
<path fill="#505458" opacity="1.00" d=" M 185.29 185.97 C 187.01 185.93 188.73 185.88 190.45 185.85 C 190.74 188.15 191.25 190.42 191.96 192.63 L 191.96 193.02 C 191.95 193.45 191.94 194.29 191.93 194.71 L 191.92 195.77 C 191.42 196.34 190.42 197.48 189.92 198.05 C 189.62 197.22 189.02 195.58 188.72 194.75 C 188.58 194.27 188.29 193.30 188.15 192.81 C 187.67 193.77 186.72 195.70 186.25 196.66 C 184.75 193.29 185.24 189.54 185.29 185.97 Z" />
</g>
<g id="#454745ff">
<path fill="#454745" opacity="1.00" d=" M 242.86 187.58 C 307.59 187.65 372.33 187.72 437.07 187.55 C 439.08 188.46 438.92 191.00 439.43 192.84 C 439.06 193.11 438.33 193.66 437.97 193.94 C 437.78 193.93 437.41 193.90 437.23 193.89 C 437.68 193.51 438.57 192.75 439.02 192.37 C 438.79 191.46 438.34 189.63 438.11 188.71 C 437.57 188.70 436.50 188.68 435.96 188.67 C 371.61 188.75 307.25 188.64 242.90 188.72 C 242.89 188.44 242.87 187.87 242.86 187.58 Z" />
</g>
<g id="#909490ff">
<path fill="#909490" opacity="1.00" d=" M 437.07 187.55 C 442.96 187.63 448.86 187.44 454.76 187.66 C 455.37 188.16 455.99 188.65 456.62 189.15 L 456.54 189.58 C 456.10 191.29 456.16 193.80 453.96 194.24 C 450.25 194.68 446.49 194.49 442.76 194.41 C 441.66 193.87 440.54 193.33 439.43 192.84 C 438.92 191.00 439.08 188.46 437.07 187.55 Z" />
<path fill="#909490" opacity="1.00" d=" M 25.06 188.26 C 30.16 187.64 35.33 188.16 40.46 188.00 C 40.42 189.58 40.39 191.17 40.42 192.76 C 39.09 193.35 37.75 193.95 36.41 194.54 C 32.63 194.46 28.81 194.78 25.06 194.24 C 22.24 193.24 22.21 189.21 25.06 188.26 Z" />
</g>
<g id="#9b9d9fff">
<path fill="#9b9d9f" opacity="1.00" d=" M 41.32 188.29 C 42.69 189.27 42.33 192.28 41.70 193.82 C 40.21 192.86 40.76 189.84 41.32 188.29 Z" />
</g>
<g id="#76797aff">
<path fill="#76797a" opacity="1.00" d=" M 182.04 188.19 C 183.58 187.63 184.12 188.21 183.63 189.93 C 182.08 190.48 181.55 189.90 182.04 188.19 Z" />
</g>
<g id="#7c8284ff">
<path fill="#7c8284" opacity="1.00" d=" M 239.97 188.23 C 243.29 188.29 238.52 191.27 239.97 188.23 Z" />
</g>
<g id="#949899ff">
<path fill="#949899" opacity="1.00" d=" M 435.96 188.67 C 436.50 188.68 437.57 188.70 438.11 188.71 C 438.34 189.63 438.79 191.46 439.02 192.37 C 438.57 192.75 437.68 193.51 437.23 193.89 L 436.24 193.85 C 436.21 193.17 436.13 191.80 436.09 191.11 C 436.06 190.50 435.99 189.28 435.96 188.67 Z" />
</g>
<g id="#a8aca8ff">
<path fill="#a8aca8" opacity="1.00" d=" M 182.52 191.11 C 182.75 191.11 183.22 191.10 183.45 191.09 C 183.60 192.40 183.76 193.70 183.92 195.01 C 183.44 195.01 182.49 195.01 182.01 195.01 C 182.19 193.71 182.36 192.41 182.52 191.11 Z" />
<path fill="#a8aca8" opacity="1.00" d=" M 124.49 274.69 C 124.34 270.80 124.09 266.90 124.37 263.01 C 124.62 264.72 124.86 266.43 125.10 268.15 C 127.65 268.27 130.21 268.25 132.75 267.96 C 134.32 267.78 135.89 267.62 137.46 267.49 C 138.80 268.26 140.38 267.93 141.85 267.95 C 141.89 268.70 141.98 270.20 142.02 270.95 C 141.32 270.73 139.92 270.30 139.22 270.08 C 139.18 270.53 139.11 271.44 139.08 271.89 C 139.79 271.68 141.23 271.27 141.95 271.06 C 141.81 272.27 141.70 273.47 141.62 274.69 C 135.91 274.38 130.20 274.65 124.49 274.69 M 133.56 272.96 C 134.71 274.04 135.78 273.88 136.77 272.47 C 135.64 271.49 134.57 271.65 133.56 272.96 Z" />
</g>
<g id="#8c8f8eff">
<path fill="#8c8f8e" opacity="1.00" d=" M 240.19 191.40 C 241.43 191.66 241.25 194.04 240.58 194.90 C 239.02 194.88 239.46 192.23 240.19 191.40 Z" />
</g>
<g id="#a0a4a0ff">
<path fill="#a0a4a0" opacity="1.00" d=" M 191.96 193.02 C 201.48 191.42 211.24 192.08 220.85 192.19 L 220.90 192.92 C 211.93 192.58 202.89 192.59 193.94 193.24 C 203.26 194.87 212.86 193.57 222.30 193.91 C 224.86 193.94 227.40 193.53 229.95 193.22 C 230.57 193.38 231.82 193.69 232.45 193.85 C 231.93 194.89 231.34 195.95 230.05 195.97 C 228.39 195.53 226.73 194.99 225.00 194.98 C 213.98 194.92 202.94 195.55 191.93 194.71 C 191.94 194.29 191.95 193.45 191.96 193.02 Z" />
<path fill="#a0a4a0" opacity="1.00" d=" M 191.79 198.02 C 196.07 199.38 200.60 198.95 205.02 199.00 C 213.41 198.92 221.84 199.26 230.19 198.18 C 231.48 198.55 231.93 199.42 231.54 200.79 C 230.89 200.66 229.59 200.40 228.93 200.27 C 221.32 199.67 213.66 200.15 206.03 200.00 C 201.27 200.19 196.39 199.43 191.73 200.72 C 191.75 200.04 191.78 198.69 191.79 198.02 Z" />
<path fill="#a0a4a0" opacity="1.00" d=" M 205.90 218.78 L 207.13 218.85 C 207.60 218.88 208.54 218.94 209.01 218.97 C 208.97 224.31 209.13 229.65 208.88 234.99 C 208.11 235.20 206.57 235.62 205.80 235.83 C 205.86 230.14 205.68 224.46 205.90 218.78 Z" />
</g>
<g id="#a8ababff">
<path fill="#a8abab" opacity="1.00" d=" M 36.41 194.54 C 37.75 193.95 39.09 193.35 40.42 192.76 C 41.15 196.12 36.32 196.16 34.16 196.13 C 34.72 195.73 35.85 194.93 36.41 194.54 Z" />
</g>
<g id="#e0e4e8ff">
<path fill="#e0e4e8" opacity="1.00" d=" M 193.94 193.24 C 202.89 192.59 211.93 192.58 220.90 192.92 C 221.25 193.17 221.95 193.66 222.30 193.91 C 212.86 193.57 203.26 194.87 193.94 193.24 Z" />
<path fill="#e0e4e8" opacity="1.00" d=" M 191.82 197.08 C 198.13 198.49 204.62 197.87 211.03 198.00 C 216.47 197.87 221.98 198.09 227.36 197.01 C 228.56 196.87 230.97 196.60 232.17 196.46 C 231.68 196.89 230.68 197.75 230.19 198.18 C 221.84 199.26 213.41 198.92 205.02 199.00 C 200.60 198.95 196.07 199.38 191.79 198.02 L 191.82 197.08 Z" />
<path fill="#e0e4e8" opacity="1.00" d=" M 220.34 215.58 C 222.72 215.64 225.10 215.64 227.48 215.60 C 227.32 217.37 227.16 219.14 226.99 220.91 C 224.88 220.81 222.77 220.81 220.66 220.80 C 220.56 219.06 220.45 217.32 220.34 215.58 Z" />
</g>
<g id="#a4a8a7ff">
<path fill="#a4a8a7" opacity="1.00" d=" M 437.97 193.94 C 438.33 193.66 439.06 193.11 439.43 192.84 C 440.54 193.33 441.66 193.87 442.76 194.41 C 443.40 194.83 444.67 195.67 445.31 196.08 C 442.59 196.48 440.16 195.40 437.97 193.94 Z" />
</g>
<g id="#e04c4bff">
<path fill="#e04c4b" opacity="1.00" d=" M 186.25 196.66 C 186.72 195.70 187.67 193.77 188.15 192.81 C 188.29 193.30 188.58 194.27 188.72 194.75 C 188.70 196.80 188.44 198.86 188.69 200.90 C 189.60 203.53 192.43 204.69 194.13 206.73 C 193.44 206.81 192.06 206.99 191.37 207.07 L 190.22 206.86 C 186.90 204.54 185.64 200.57 186.25 196.66 Z" />
</g>
<g id="#101010ff">
<path fill="#101010" opacity="1.00" d=" M 188.69 200.90 C 188.44 198.86 188.70 196.80 188.72 194.75 C 189.02 195.58 189.62 197.22 189.92 198.05 C 190.42 197.48 191.42 196.34 191.92 195.77 L 191.82 197.08 L 191.79 198.02 C 191.78 198.69 191.75 200.04 191.73 200.72 L 191.72 202.20 C 191.97 204.11 193.23 205.40 195.08 205.95 C 194.95 206.12 194.69 206.48 194.56 206.66 L 194.13 206.73 C 192.43 204.69 189.60 203.53 188.69 200.90 Z" />
</g>
<g id="#d04040ff">
<path fill="#d04040" opacity="1.00" d=" M 183.27 195.31 C 185.09 198.15 185.79 201.55 186.38 204.83 C 185.00 203.79 183.76 202.60 182.58 201.35 C 182.79 199.33 182.99 197.32 183.27 195.31 Z" />
<path fill="#d04040" opacity="1.00" d=" M 212.30 247.90 C 212.69 246.61 213.09 245.32 213.47 244.02 C 213.30 245.77 214.17 247.28 214.89 248.81 C 210.41 251.99 212.15 257.83 211.95 262.49 L 212.08 264.26 C 211.71 264.28 210.96 264.32 210.59 264.34 C 193.44 263.80 176.27 264.30 159.12 263.96 C 160.28 262.43 162.27 262.70 163.93 262.60 C 174.72 262.58 185.50 262.79 196.29 262.50 C 199.45 262.46 202.61 262.56 205.77 262.73 L 205.27 260.67 C 205.64 261.24 206.38 262.38 206.75 262.96 C 209.80 262.86 210.35 259.76 208.27 258.00 C 210.74 257.09 209.00 253.69 209.47 251.68 C 209.00 251.32 208.06 250.59 207.59 250.23 C 207.52 249.23 207.39 247.23 207.32 246.23 C 207.69 246.45 208.44 246.90 208.81 247.12 C 209.96 247.41 211.13 247.67 212.30 247.90 Z" />
</g>
<g id="#b1b3b1ff">
<path fill="#b1b3b1" opacity="1.00" d=" M 191.92 195.77 C 204.24 196.22 216.60 195.44 228.92 196.23 L 227.36 197.01 C 221.98 198.09 216.47 197.87 211.03 198.00 C 204.62 197.87 198.13 198.49 191.82 197.08 L 191.92 195.77 Z" />
</g>
<g id="#cdceceff">
<path fill="#cdcece" opacity="1.00" d=" M 228.93 200.27 C 229.59 200.40 230.89 200.66 231.54 200.79 C 231.31 203.05 231.03 205.31 230.72 207.57 C 230.27 207.55 229.36 207.50 228.90 207.48 C 228.90 205.07 228.92 202.67 228.93 200.27 Z" />
</g>
<g id="#b8b8b8ff">
<path fill="#b8b8b8" opacity="1.00" d=" M 191.72 202.20 C 193.48 201.95 195.24 201.71 197.01 201.47 C 197.34 203.33 197.67 205.19 197.79 207.09 L 197.91 208.91 C 196.53 208.51 195.41 207.76 194.56 206.66 C 194.69 206.48 194.95 206.12 195.08 205.95 C 193.23 205.40 191.97 204.11 191.72 202.20 Z" />
</g>
<g id="#dcdfddff">
<path fill="#dcdfdd" opacity="1.00" d=" M 227.56 210.16 C 226.61 209.39 226.61 208.62 227.55 207.85 C 228.26 208.14 229.66 208.71 230.36 209.00 C 229.66 209.29 228.26 209.87 227.56 210.16 Z" />
</g>
<g id="#cccecdff">
<path fill="#cccecd" opacity="1.00" d=" M 193.20 208.03 C 194.27 208.27 196.41 208.76 197.49 209.00 C 197.37 210.61 197.24 212.21 197.07 213.82 C 196.13 213.82 194.26 213.80 193.32 213.79 C 193.26 211.87 193.22 209.95 193.20 208.03 Z" />
</g>
<g id="#9ca09eff">
<path fill="#9ca09e" opacity="1.00" d=" M 219.92 223.01 C 219.85 220.52 219.97 218.04 220.34 215.58 C 220.45 217.32 220.56 219.06 220.66 220.80 C 222.77 220.81 224.88 220.81 226.99 220.91 C 227.13 221.46 227.41 222.54 227.55 223.08 C 225.01 223.14 222.46 223.11 219.92 223.01 Z" />
</g>
<g id="#888888ff">
<path fill="#888888" opacity="1.00" d=" M 207.15 218.00 C 209.59 217.75 212.03 217.53 214.48 217.34 C 215.11 223.38 214.70 229.46 214.88 235.52 C 214.67 238.38 214.36 241.28 213.47 244.02 C 213.09 245.32 212.69 246.61 212.30 247.90 C 211.13 247.67 209.96 247.41 208.81 247.12 C 212.59 244.73 212.63 240.17 213.42 236.25 C 212.61 236.17 211.01 236.03 210.21 235.96 C 210.59 230.33 210.45 224.69 210.42 219.06 L 209.01 218.97 C 208.54 218.94 207.60 218.88 207.13 218.85 L 207.15 218.00 Z" />
</g>
<g id="#3a100eff">
<path fill="#3a100e" opacity="1.00" d=" M 202.19 244.04 C 203.84 243.52 204.39 244.07 203.85 245.68 C 202.21 246.20 201.66 245.65 202.19 244.04 Z" />
</g>
<g id="#541818ff">
<path fill="#541818" opacity="1.00" d=" M 223.22 244.31 C 226.53 244.44 221.70 247.33 223.22 244.31 Z" />
</g>
<g id="#581e1cff">
<path fill="#581e1c" opacity="1.00" d=" M 226.10 245.21 C 229.36 245.35 224.60 248.26 226.10 245.21 Z" />
</g>
<g id="#501a18ff">
<path fill="#501a18" opacity="1.00" d=" M 195.10 246.10 C 198.38 246.20 193.64 249.16 195.10 246.10 Z" />
</g>
<g id="#461b1aff">
<path fill="#461b1a" opacity="1.00" d=" M 198.30 249.26 C 199.91 248.70 200.46 249.25 199.96 250.90 C 198.34 251.44 197.79 250.90 198.30 249.26 Z" />
</g>
<g id="#451310ff">
<path fill="#451310" opacity="1.00" d=" M 205.11 252.19 C 206.44 252.82 206.44 253.48 205.12 254.18 C 203.79 253.55 203.79 252.89 205.11 252.19 Z" />
</g>
<g id="#501c18ff">
<path fill="#501c18" opacity="1.00" d=" M 245.08 252.42 C 248.36 252.57 243.58 255.46 245.08 252.42 Z" />
</g>
<g id="#4b201dff">
<path fill="#4b201d" opacity="1.00" d=" M 166.08 253.15 C 167.47 252.64 167.94 253.10 167.49 254.53 C 166.10 255.04 165.63 254.58 166.08 253.15 Z" />
</g>
<g id="#883838ff">
<path fill="#883838" opacity="1.00" d=" M 183.28 253.21 C 183.80 253.74 183.80 253.74 183.28 253.21 Z" />
<path fill="#883838" opacity="1.00" d=" M 162.30 259.27 C 162.82 259.79 162.82 259.79 162.30 259.27 Z" />
</g>
<g id="#883030ff">
<path fill="#883030" opacity="1.00" d=" M 214.29 253.24 C 214.82 253.76 214.82 253.76 214.29 253.24 Z" />
</g>
<g id="#642a28ff">
<path fill="#642a28" opacity="1.00" d=" M 172.44 255.04 C 175.47 253.51 172.63 258.31 172.44 255.04 Z" />
</g>
<g id="#803430ff">
<path fill="#803430" opacity="1.00" d=" M 191.20 257.14 C 191.75 257.62 191.75 257.62 191.20 257.14 Z" />
<path fill="#803430" opacity="1.00" d=" M 178.23 286.14 C 178.69 286.72 178.69 286.72 178.23 286.14 Z" />
</g>
<g id="#883430ff">
<path fill="#883430" opacity="1.00" d=" M 201.27 257.29 C 201.81 257.80 201.81 257.80 201.27 257.29 Z" />
<path fill="#883430" opacity="1.00" d=" M 188.34 278.24 C 188.83 278.79 188.83 278.79 188.34 278.24 Z" />
</g>
<g id="#5c1c1cff">
<path fill="#5c1c1c" opacity="1.00" d=" M 219.17 258.10 C 222.19 256.54 219.39 261.36 219.17 258.10 Z" />
</g>
<g id="#515351ff">
<path fill="#515351" opacity="1.00" d=" M 138.69 261.23 C 137.96 258.35 140.89 258.88 142.71 259.30 C 143.57 261.87 140.11 260.97 138.69 261.23 Z" />
</g>
<g id="#808080ff">
<path fill="#808080" opacity="1.00" d=" M 146.81 261.00 C 147.38 259.07 149.55 260.00 150.99 259.77 C 150.79 260.17 150.40 260.97 150.21 261.37 C 149.07 261.26 147.94 261.14 146.81 261.00 Z" />
<path fill="#808080" opacity="1.00" d=" M 72.03 264.01 C 72.85 263.57 73.68 263.12 74.50 262.66 C 74.67 263.44 75.01 264.98 75.18 265.76 C 76.45 265.74 77.73 265.72 79.00 265.71 L 79.00 267.24 C 77.64 267.23 76.28 267.21 74.93 267.20 C 74.87 268.55 74.82 269.91 74.77 271.27 C 86.37 270.85 98.00 270.89 109.59 271.14 C 109.76 271.60 110.11 272.51 110.28 272.97 C 98.88 273.06 87.47 273.07 76.07 272.87 C 75.07 273.74 74.20 274.75 73.26 275.69 C 70.56 272.51 72.31 267.84 72.03 264.01 Z" />
</g>
<g id="#642624ff">
<path fill="#642624" opacity="1.00" d=" M 180.16 260.00 C 183.12 258.36 180.47 263.28 180.16 260.00 Z" />
<path fill="#642624" opacity="1.00" d=" M 175.19 279.45 C 178.49 279.42 173.82 282.55 175.19 279.45 Z" />
</g>
<g id="#202420ff">
<path fill="#202420" opacity="1.00" d=" M 127.32 263.14 C 128.92 260.71 132.22 260.64 134.78 261.18 C 138.59 262.02 142.48 261.31 146.34 261.57 C 146.40 266.49 146.45 271.41 146.36 276.33 C 144.60 276.33 142.23 276.99 141.62 274.69 C 141.70 273.47 141.81 272.27 141.95 271.06 C 141.23 271.27 139.79 271.68 139.08 271.89 C 139.11 271.44 139.18 270.53 139.22 270.08 C 139.92 270.30 141.32 270.73 142.02 270.95 C 141.98 270.20 141.89 268.70 141.85 267.95 C 141.25 267.58 140.04 266.83 139.44 266.45 C 139.30 265.92 139.01 264.85 138.87 264.31 C 135.11 263.81 130.47 265.67 127.32 263.14 Z" />
<path fill="#202420" opacity="1.00" d=" M 146.81 261.00 C 147.94 261.14 149.07 261.26 150.21 261.37 C 165.53 262.99 180.93 261.80 196.29 262.50 C 185.50 262.79 174.72 262.58 163.93 262.60 C 162.27 262.70 160.28 262.43 159.12 263.96 C 176.27 264.30 193.44 263.80 210.59 264.34 C 209.41 264.57 208.24 264.76 207.05 264.90 C 191.05 265.14 175.01 264.51 159.03 265.09 C 156.24 267.48 154.80 271.08 152.96 274.19 L 152.45 274.42 C 150.68 275.35 148.71 275.76 146.72 275.47 C 146.67 270.64 146.42 265.81 146.81 261.00 Z" />
<path fill="#202420" opacity="1.00" d=" M 74.50 262.66 C 77.49 261.23 80.87 261.81 84.07 261.76 C 97.51 262.04 111.00 261.33 124.41 262.29 L 124.37 263.01 C 124.09 266.90 124.34 270.80 124.49 274.69 C 124.30 276.60 124.62 279.73 122.70 280.64 C 121.48 280.19 120.28 279.68 119.08 279.19 C 118.20 278.23 117.32 277.29 116.43 276.35 C 116.43 277.20 116.42 278.91 116.42 279.76 C 114.74 279.77 113.05 279.79 111.37 279.82 C 111.16 279.82 110.73 279.82 110.52 279.82 C 110.32 279.13 109.92 277.74 109.72 277.05 C 98.47 276.23 87.16 277.01 75.89 276.67 C 74.90 276.71 74.11 276.07 73.26 275.69 C 74.20 274.75 75.07 273.74 76.07 272.87 C 87.47 273.07 98.88 273.06 110.28 272.97 C 110.11 272.51 109.76 271.60 109.59 271.14 C 98.00 270.89 86.37 270.85 74.77 271.27 C 74.82 269.91 74.87 268.55 74.93 267.20 C 76.28 267.21 77.64 267.23 79.00 267.24 C 89.27 267.25 99.53 267.31 109.80 267.21 L 109.83 265.74 C 99.55 265.64 89.28 265.69 79.00 265.71 C 77.73 265.72 76.45 265.74 75.18 265.76 C 75.01 264.98 74.67 263.44 74.50 262.66 Z" />
</g>
<g id="#c03838ff">
<path fill="#c03838" opacity="1.00" d=" M 210.59 264.34 C 210.96 264.32 211.71 264.28 212.08 264.26 C 212.54 267.29 211.68 270.36 212.16 273.41 C 209.15 273.91 206.12 274.36 203.07 274.33 C 186.37 274.17 169.66 274.40 152.96 274.19 C 154.80 271.08 156.24 267.48 159.03 265.09 C 175.01 264.51 191.05 265.14 207.05 264.90 C 208.24 264.76 209.41 264.57 210.59 264.34 Z" />
</g>
<g id="#8c4848ff">
<path fill="#8c4848" opacity="1.00" d=" M 133.21 264.94 C 135.22 264.70 136.87 265.36 137.46 267.49 C 135.89 267.62 134.32 267.78 132.75 267.96 C 132.87 267.20 133.10 265.69 133.21 264.94 Z" />
</g>
<g id="#b7b7b7ff">
<path fill="#b7b7b7" opacity="1.00" d=" M 79.00 265.71 C 89.28 265.69 99.55 265.64 109.83 265.74 L 109.80 267.21 C 99.53 267.31 89.27 267.25 79.00 267.24 L 79.00 265.71 Z" />
</g>
<g id="#d04949ff">
<path fill="#d04949" opacity="1.00" d=" M 203.07 274.33 C 206.12 274.36 209.15 273.91 212.16 273.41 C 211.89 273.83 211.35 274.67 211.08 275.09 C 191.30 275.06 171.50 275.27 151.73 274.98 L 152.45 274.42 L 152.96 274.19 C 169.66 274.40 186.37 274.17 203.07 274.33 Z" />
</g>
<g id="#481a18ff">
<path fill="#481a18" opacity="1.00" d=" M 154.13 277.09 C 155.76 276.57 156.31 277.12 155.75 278.75 C 154.11 279.27 153.57 278.72 154.13 277.09 Z" />
</g>
<g id="#903838ff">
<path fill="#903838" opacity="1.00" d=" M 170.24 277.28 C 170.76 277.80 170.76 277.80 170.24 277.28 Z" />
<path fill="#903838" opacity="1.00" d=" M 209.28 286.26 C 209.81 286.77 209.81 286.77 209.28 286.26 Z" />
</g>
<g id="#451413ff">
<path fill="#451413" opacity="1.00" d=" M 213.06 277.45 C 214.45 277.02 214.93 277.51 214.52 278.92 C 213.13 279.34 212.64 278.85 213.06 277.45 Z" />
</g>
<g id="#602624ff">
<path fill="#602624" opacity="1.00" d=" M 160.07 278.04 C 163.35 278.36 158.41 280.99 160.07 278.04 Z" />
</g>
<g id="#652925ff">
<path fill="#652925" opacity="1.00" d=" M 204.17 279.17 C 205.38 279.57 205.57 280.43 204.77 281.74 C 203.57 281.33 203.37 280.47 204.17 279.17 Z" />
</g>
<g id="#5c2824ff">
<path fill="#5c2824" opacity="1.00" d=" M 196.07 280.48 C 199.35 280.63 194.56 283.51 196.07 280.48 Z" />
</g>
<g id="#682a28ff">
<path fill="#682a28" opacity="1.00" d=" M 206.23 280.08 C 209.32 278.63 206.34 283.33 206.23 280.08 Z" />
</g>
<g id="#441d1aff">
<path fill="#441d1a" opacity="1.00" d=" M 167.33 282.12 C 168.96 281.63 169.49 282.20 168.93 283.83 C 167.29 284.30 166.76 283.73 167.33 282.12 Z" />
</g>
<g id="#642828ff">
<path fill="#642828" opacity="1.00" d=" M 185.46 282.02 C 188.48 280.49 185.62 285.30 185.46 282.02 Z" />
</g>
<g id="#4a1f1eff">
<path fill="#4a1f1e" opacity="1.00" d=" M 159.27 284.24 C 160.89 283.68 161.44 284.22 160.93 285.87 C 159.31 286.42 158.76 285.87 159.27 284.24 Z" />
</g>
<g id="#642824ff">
<path fill="#642824" opacity="1.00" d=" M 193.17 285.09 C 196.15 283.46 193.49 288.34 193.17 285.09 Z" />
</g>
<g id="#3c1210ff">
<path fill="#3c1210" opacity="1.00" d=" M 199.09 290.22 C 200.71 289.70 201.27 290.25 200.76 291.88 C 199.13 292.40 198.58 291.85 199.09 290.22 Z" />
</g>
<g id="#d3d7d3ff">
<path fill="#d3d7d3" opacity="1.00" d=" M 407.11 292.02 C 407.52 292.11 408.35 292.29 408.77 292.39 C 409.29 296.90 408.85 301.46 408.98 306.00 C 408.48 306.00 407.49 306.00 407.00 306.00 C 407.04 301.34 406.87 296.67 407.11 292.02 Z" />
</g>
</svg>
