<?xml version="1.0" encoding="UTF-8" ?>
<!DOCTYPE svg PUBLIC "-//W3C//DTD SVG 1.1//EN" "http://www.w3.org/Graphics/SVG/1.1/DTD/svg11.dtd">
<svg width="117px" height="140px" viewBox="0 0 117 140" version="1.1" xmlns="http://www.w3.org/2000/svg">
<g id="#181818ff">
<path fill="#181818" opacity="1.00" d=" M 0.00 0.00 L 117.00 0.00 L 117.00 140.00 L 0.00 140.00 L 0.00 0.00 M 90.12 27.17 C 90.49 28.89 91.94 30.06 92.96 31.40 C 95.41 32.10 98.36 32.27 100.17 30.13 C 102.35 28.30 102.13 25.30 101.33 22.85 C 99.97 21.82 98.77 20.39 97.02 20.09 C 93.11 19.22 89.16 23.29 90.12 27.17 M 13.93 31.98 C 14.02 34.61 14.03 37.23 14.01 39.86 C 13.99 43.04 14.03 46.22 14.04 49.41 C 14.00 54.65 14.01 59.90 13.99 65.15 C 14.26 68.29 12.85 72.93 16.42 74.63 C 20.22 75.37 24.14 74.89 27.99 74.98 C 27.99 73.65 28.00 72.32 28.01 71.00 C 24.68 71.00 21.35 71.00 18.02 71.00 C 18.01 69.47 18.00 67.95 17.98 66.43 C 18.11 61.61 17.83 56.79 17.75 51.98 C 19.56 51.79 22.08 51.29 21.84 48.88 C 22.05 46.65 19.64 46.14 18.01 45.67 C 17.99 43.71 17.99 41.75 17.98 39.78 C 18.00 37.17 17.98 34.56 17.99 31.94 C 17.99 31.21 18.00 29.74 18.00 29.00 C 40.00 29.00 62.01 29.00 84.01 29.00 C 84.01 30.31 84.01 31.62 84.01 32.92 C 85.34 32.94 86.68 32.96 88.02 32.98 C 87.79 30.92 88.28 28.62 87.26 26.74 C 85.92 24.64 83.16 25.06 81.03 24.97 C 60.00 25.09 38.96 24.87 17.93 25.07 C 14.21 24.99 13.77 29.19 13.93 31.98 M 30.06 38.93 C 29.89 48.10 30.06 57.28 30.01 66.45 C 30.20 71.84 29.52 77.31 30.38 82.64 C 32.71 86.57 38.08 84.47 41.80 84.98 C 48.80 85.04 55.80 84.95 62.80 84.99 C 70.57 85.03 78.34 84.97 86.11 84.99 C 90.79 84.91 95.47 85.14 100.14 84.87 C 102.16 84.94 103.96 83.11 103.88 81.09 C 104.10 73.55 103.95 66.00 103.96 58.45 C 103.91 51.93 104.16 45.40 103.91 38.88 C 103.93 37.22 102.67 35.41 100.93 35.30 C 97.31 35.16 93.69 35.31 90.07 35.06 C 87.43 35.00 84.80 34.98 82.16 35.00 C 77.00 35.02 71.84 34.98 66.68 35.01 C 61.82 34.99 56.96 35.01 52.10 34.99 C 46.04 35.10 39.96 34.84 33.90 35.07 C 31.82 35.01 29.99 36.85 30.06 38.93 M 77.27 91.33 C 74.76 92.40 74.10 96.12 76.30 97.85 C 78.49 100.04 82.77 98.29 82.77 95.21 C 83.30 92.34 79.76 89.94 77.27 91.33 Z" />
<path fill="#181818" opacity="1.00" d=" M 58.06 47.31 C 62.74 44.71 68.45 44.31 73.33 46.60 C 77.34 48.97 80.43 52.85 81.09 57.55 C 81.38 58.78 82.16 59.78 82.89 60.77 C 81.28 62.95 79.80 65.31 79.62 68.10 C 77.27 71.36 73.89 73.77 70.00 74.82 C 63.53 75.90 56.82 72.74 53.65 66.98 C 52.63 64.38 52.51 61.26 50.37 59.24 C 51.49 57.65 52.58 56.04 53.76 54.49 L 54.34 54.55 C 55.58 56.28 56.75 58.06 57.95 59.81 C 57.39 59.91 56.26 60.11 55.70 60.21 C 56.45 65.24 59.80 69.64 64.83 70.96 C 67.83 70.93 71.24 70.87 73.52 68.62 C 75.37 67.14 76.85 64.40 79.64 65.76 C 78.33 64.13 77.04 62.48 75.80 60.79 C 78.07 59.53 77.00 57.20 76.48 55.26 C 74.18 51.27 69.72 48.31 64.98 49.16 C 61.30 49.40 58.73 52.23 56.41 54.77 L 55.94 54.72 C 54.86 54.24 53.79 53.75 52.73 53.24 C 54.40 51.17 56.19 49.20 58.06 47.31 Z" />
</g>
<g id="#f8a898ff">
<path fill="#f8a898" opacity="1.00" d=" M 90.12 27.17 C 89.16 23.29 93.11 19.22 97.02 20.09 C 98.77 20.39 99.97 21.82 101.33 22.85 C 98.42 25.58 95.66 28.47 92.96 31.40 C 91.94 30.06 90.49 28.89 90.12 27.17 Z" />
</g>
<g id="#f88088ff">
<path fill="#f88088" opacity="1.00" d=" M 92.96 31.40 C 95.66 28.47 98.42 25.58 101.33 22.85 C 102.13 25.30 102.35 28.30 100.17 30.13 C 98.36 32.27 95.41 32.10 92.96 31.40 Z" />
</g>
<g id="#9060f0ff">
<path fill="#9060f0" opacity="1.00" d=" M 13.93 31.98 C 13.77 29.19 14.21 24.99 17.93 25.07 C 38.96 24.87 60.00 25.09 81.03 24.97 C 83.16 25.06 85.92 24.64 87.26 26.74 C 88.28 28.62 87.79 30.92 88.02 32.98 C 86.68 32.96 85.34 32.94 84.01 32.92 C 84.01 31.62 84.01 30.31 84.01 29.00 C 62.01 29.00 40.00 29.00 18.00 29.00 C 18.00 29.74 17.99 31.21 17.99 31.94 C 16.64 31.96 15.28 31.97 13.93 31.98 Z" />
</g>
<g id="#8058e8ff">
<path fill="#8058e8" opacity="1.00" d=" M 13.93 31.98 C 15.28 31.97 16.64 31.96 17.99 31.94 C 17.98 34.56 18.00 37.17 17.98 39.78 C 16.66 39.81 15.33 39.83 14.01 39.86 C 14.03 37.23 14.02 34.61 13.93 31.98 Z" />
</g>
<g id="#f8d078ff">
<path fill="#f8d078" opacity="1.00" d=" M 30.06 38.93 C 29.99 36.85 31.82 35.01 33.90 35.07 C 39.96 34.84 46.04 35.10 52.10 34.99 C 47.79 39.87 44.75 45.67 40.92 50.91 C 37.21 56.04 34.24 61.69 30.01 66.45 C 30.06 57.28 29.89 48.10 30.06 38.93 Z" />
</g>
<g id="#f8c068ff">
<path fill="#f8c068" opacity="1.00" d=" M 52.10 34.99 C 56.96 35.01 61.82 34.99 66.68 35.01 C 63.72 39.05 60.92 43.20 58.06 47.31 C 56.19 49.20 54.40 51.17 52.73 53.24 C 53.79 53.75 54.86 54.24 55.94 54.72 L 54.34 54.55 L 53.76 54.49 C 52.58 56.04 51.49 57.65 50.37 59.24 C 52.51 61.26 52.63 64.38 53.65 66.98 C 50.59 73.52 46.12 79.24 41.80 84.98 C 38.08 84.47 32.71 86.57 30.38 82.64 C 29.52 77.31 30.20 71.84 30.01 66.45 C 34.24 61.69 37.21 56.04 40.92 50.91 C 44.75 45.67 47.79 39.87 52.10 34.99 Z" />
</g>
<g id="#f8b060ff">
<path fill="#f8b060" opacity="1.00" d=" M 66.68 35.01 C 71.84 34.98 77.00 35.02 82.16 35.00 C 79.44 39.03 76.61 43.00 73.33 46.60 C 68.45 44.31 62.74 44.71 58.06 47.31 C 60.92 43.20 63.72 39.05 66.68 35.01 Z" />
</g>
<g id="#f8a050ff">
<path fill="#f8a050" opacity="1.00" d=" M 82.16 35.00 C 84.80 34.98 87.43 35.00 90.07 35.06 C 91.00 36.97 91.89 38.91 92.82 40.82 C 89.57 46.84 85.38 52.25 81.09 57.55 C 80.43 52.85 77.34 48.97 73.33 46.60 C 76.61 43.00 79.44 39.03 82.16 35.00 Z" />
<path fill="#f8a050" opacity="1.00" d=" M 64.83 70.96 C 68.64 65.67 71.96 60.00 76.48 55.26 C 77.00 57.20 78.07 59.53 75.80 60.79 C 77.04 62.48 78.33 64.13 79.64 65.76 C 76.85 64.40 75.37 67.14 73.52 68.62 C 71.24 70.87 67.83 70.93 64.83 70.96 Z" />
</g>
<g id="#f89040ff">
<path fill="#f89040" opacity="1.00" d=" M 90.07 35.06 C 93.69 35.31 97.31 35.16 100.93 35.30 C 102.67 35.41 103.93 37.22 103.91 38.88 C 104.16 45.40 103.91 51.93 103.96 58.45 C 97.95 67.26 91.53 75.79 86.11 84.99 C 78.34 84.97 70.57 85.03 62.80 84.99 C 65.17 81.58 67.54 78.17 70.00 74.82 C 73.89 73.77 77.27 71.36 79.62 68.10 C 79.80 65.31 81.28 62.95 82.89 60.77 C 82.16 59.78 81.38 58.78 81.09 57.55 C 85.38 52.25 89.57 46.84 92.82 40.82 C 91.89 38.91 91.00 36.97 90.07 35.06 Z" />
</g>
<g id="#6850e0ff">
<path fill="#6850e0" opacity="1.00" d=" M 14.01 39.86 C 15.33 39.83 16.66 39.81 17.98 39.78 C 17.99 41.75 17.99 43.71 18.01 45.67 C 17.18 46.84 16.34 48.00 15.43 49.11 C 15.08 49.19 14.38 49.33 14.04 49.41 C 14.03 46.22 13.99 43.04 14.01 39.86 Z" />
</g>
<g id="#a8e010ff">
<path fill="#a8e010" opacity="1.00" d=" M 15.43 49.11 C 16.34 48.00 17.18 46.84 18.01 45.67 C 19.64 46.14 22.05 46.65 21.84 48.88 C 22.08 51.29 19.56 51.79 17.75 51.98 C 16.90 51.09 16.15 50.10 15.43 49.11 Z" />
</g>
<g id="#3840d0ff">
<path fill="#3840d0" opacity="1.00" d=" M 14.04 49.41 C 14.38 49.33 15.08 49.19 15.43 49.11 C 16.15 50.10 16.90 51.09 17.75 51.98 C 17.83 56.79 18.11 61.61 17.98 66.43 C 16.65 66.00 15.32 65.57 13.99 65.15 C 14.01 59.90 14.00 54.65 14.04 49.41 Z" />
</g>
<g id="#f8b058ff">
<path fill="#f8b058" opacity="1.00" d=" M 56.41 54.77 C 58.73 52.23 61.30 49.40 64.98 49.16 C 69.72 48.31 74.18 51.27 76.48 55.26 C 71.96 60.00 68.64 65.67 64.83 70.96 C 59.80 69.64 56.45 65.24 55.70 60.21 C 56.26 60.11 57.39 59.91 57.95 59.81 C 56.75 58.06 55.58 56.28 54.34 54.55 L 55.94 54.72 L 56.41 54.77 Z" />
</g>
<g id="#f88030ff">
<path fill="#f88030" opacity="1.00" d=" M 86.11 84.99 C 91.53 75.79 97.95 67.26 103.96 58.45 C 103.95 66.00 104.10 73.55 103.88 81.09 C 103.96 83.11 102.16 84.94 100.14 84.87 C 95.47 85.14 90.79 84.91 86.11 84.99 Z" />
</g>
<g id="#1838c0ff">
<path fill="#1838c0" opacity="1.00" d=" M 13.99 65.15 C 15.32 65.57 16.65 66.00 17.98 66.43 C 18.00 67.95 18.01 69.47 18.02 71.00 C 21.35 71.00 24.68 71.00 28.01 71.00 C 28.00 72.32 27.99 73.65 27.99 74.98 C 24.14 74.89 20.22 75.37 16.42 74.63 C 12.85 72.93 14.26 68.29 13.99 65.15 Z" />
</g>
<g id="#f8a858ff">
<path fill="#f8a858" opacity="1.00" d=" M 53.65 66.98 C 56.82 72.74 63.53 75.90 70.00 74.82 C 67.54 78.17 65.17 81.58 62.80 84.99 C 55.80 84.95 48.80 85.04 41.80 84.98 C 46.12 79.24 50.59 73.52 53.65 66.98 Z" />
</g>
<g id="#40b8c8ff">
<path fill="#40b8c8" opacity="1.00" d=" M 77.27 91.33 C 79.76 89.94 83.30 92.34 82.77 95.21 C 82.77 98.29 78.49 100.04 76.30 97.85 C 74.10 96.12 74.76 92.40 77.27 91.33 Z" />
</g>
</svg>
