<?xml version="1.0" encoding="UTF-8" ?>
<!DOCTYPE svg PUBLIC "-//W3C//DTD SVG 1.1//EN" "http://www.w3.org/Graphics/SVG/1.1/DTD/svg11.dtd">
<svg width="117px" height="140px" viewBox="0 0 117 140" version="1.1" xmlns="http://www.w3.org/2000/svg">
<g id="#181818ff">
<path fill="#181818" opacity="1.00" d=" M 0.00 0.00 L 117.00 0.00 L 117.00 101.99 C 114.40 99.23 110.39 100.11 107.01 99.97 C 74.33 100.02 41.65 100.03 8.98 99.96 C 5.89 100.06 2.17 99.37 0.00 102.13 L 0.00 0.00 M 29.67 16.29 C 27.20 13.00 21.67 13.35 19.77 17.05 C 17.23 20.96 20.98 26.23 25.40 25.97 C 25.42 26.82 25.47 28.51 25.49 29.36 C 25.27 29.71 24.84 30.41 24.62 30.76 C 26.08 30.84 27.54 30.90 28.99 30.95 C 28.99 32.30 28.99 33.65 29.00 35.00 C 27.66 35.00 26.33 35.00 25.00 35.01 C 25.00 38.78 25.01 42.54 25.00 46.31 C 24.98 56.21 25.02 66.11 25.03 76.01 C 25.05 79.69 24.68 83.41 25.30 87.05 C 26.19 90.94 30.21 93.33 34.07 92.99 C 51.07 92.95 68.07 93.07 85.06 92.93 C 88.38 93.08 90.87 90.61 92.18 87.80 C 94.50 88.71 97.19 86.48 96.98 84.05 C 97.23 81.70 95.15 79.86 92.89 79.89 C 92.99 67.43 93.08 54.98 92.93 42.52 C 92.71 42.75 92.27 43.19 92.05 43.41 C 91.29 43.29 89.75 43.05 88.99 42.93 C 89.00 38.28 89.00 33.64 89.01 29.00 C 90.34 29.00 91.67 29.00 93.00 29.00 C 93.00 25.76 92.99 22.52 93.04 19.27 C 92.94 16.30 93.37 13.00 91.55 10.42 C 89.95 7.93 86.85 6.87 84.00 6.99 C 68.95 7.00 53.91 7.01 38.87 6.99 C 35.78 10.07 32.67 13.13 29.67 16.29 M 93.81 33.75 C 92.24 34.96 93.11 37.12 94.03 38.45 L 93.65 38.87 C 95.10 38.60 96.90 39.13 98.12 38.10 C 99.32 36.84 98.52 35.00 98.38 33.51 C 96.90 33.17 95.06 32.49 93.81 33.75 Z" />
<path fill="#181818" opacity="1.00" d=" M 39.92 11.82 C 40.99 10.75 42.63 11.12 43.99 10.97 C 56.68 11.01 69.37 11.03 82.05 10.96 C 84.18 11.11 86.96 10.68 88.29 12.78 C 89.27 14.78 88.90 17.12 89.04 19.27 C 89.02 21.18 88.99 23.09 88.98 25.00 C 87.65 25.00 86.32 25.00 85.00 25.00 C 84.99 32.20 85.01 39.41 85.01 46.62 L 85.01 47.00 C 86.33 47.00 87.66 47.01 89.00 47.01 C 88.97 58.66 89.06 70.32 89.04 81.97 C 89.08 83.47 89.15 84.96 89.25 86.46 C 87.44 88.62 84.74 89.26 82.01 89.04 C 66.69 88.98 51.37 88.99 36.05 89.04 C 33.76 88.88 30.47 89.32 29.42 86.67 C 28.65 83.13 29.06 79.47 28.97 75.87 C 28.97 66.01 29.02 56.14 29.00 46.28 C 28.99 43.86 28.99 41.43 29.00 39.01 C 30.33 39.00 31.67 38.99 33.00 38.99 C 33.00 34.98 33.00 30.97 33.00 26.96 C 31.46 27.08 29.93 27.20 28.40 27.33 C 28.51 26.72 28.75 25.51 28.87 24.90 C 29.69 23.30 30.54 21.71 31.50 20.19 C 34.21 17.32 36.93 14.42 39.92 11.82 M 42.10 15.20 C 41.79 23.85 42.16 32.52 41.94 41.17 C 43.29 41.96 45.86 42.39 45.90 40.15 C 46.12 32.07 46.02 23.98 45.95 15.90 C 46.07 13.84 42.75 13.13 42.10 15.20 M 51.22 13.97 C 50.95 14.28 50.39 14.89 50.11 15.20 C 49.88 23.48 49.96 31.78 50.07 40.05 C 49.87 42.45 54.07 42.57 53.88 40.07 C 54.17 32.38 53.95 24.67 54.00 16.98 C 54.35 15.27 53.06 13.53 51.22 13.97 M 57.95 14.78 C 58.03 23.61 58.00 32.44 58.03 41.27 C 59.32 41.45 61.10 42.57 61.74 40.79 C 62.18 32.53 62.01 24.21 61.92 15.93 C 61.94 13.71 59.30 13.91 57.95 14.78 M 65.95 14.79 C 66.13 23.20 65.91 31.62 66.15 40.03 C 65.78 42.35 70.13 42.53 69.80 40.07 C 70.00 32.00 70.08 23.91 69.88 15.85 C 69.89 13.61 67.28 14.09 65.95 14.79 M 75.16 14.21 C 74.91 14.45 74.42 14.92 74.18 15.15 C 73.82 22.75 74.21 30.37 74.10 37.98 C 74.27 39.28 73.74 41.04 75.20 41.76 C 76.39 42.02 77.99 41.58 77.75 40.04 C 78.00 32.34 77.92 24.62 77.93 16.92 C 78.24 15.29 76.96 13.40 75.16 14.21 M 41.86 63.15 C 41.66 68.07 41.76 73.00 41.75 77.92 C 44.78 77.92 47.82 77.91 50.86 77.88 C 50.80 77.29 50.68 76.09 50.62 75.49 C 48.65 75.52 46.68 75.53 44.71 75.55 C 44.72 71.46 44.73 67.36 44.74 63.27 C 44.02 63.24 42.58 63.18 41.86 63.15 M 56.26 63.37 C 50.13 65.72 50.39 76.65 57.09 78.08 C 59.45 78.77 64.17 77.63 62.38 74.41 C 60.51 75.22 58.02 76.58 56.26 74.77 C 54.41 72.51 54.37 68.67 56.35 66.47 C 58.03 64.87 60.32 65.87 62.21 66.38 C 62.39 65.81 62.74 64.69 62.91 64.13 C 60.80 63.38 58.48 62.40 56.26 63.37 M 65.80 63.15 C 65.71 68.09 65.75 73.04 65.75 77.98 C 68.19 77.86 70.73 78.16 73.09 77.41 C 77.51 75.71 77.96 69.60 75.96 65.93 C 73.73 62.60 69.24 63.37 65.80 63.15 Z" />
<path fill="#181818" opacity="1.00" d=" M 68.74 65.28 C 71.35 65.50 74.40 66.79 74.05 69.94 C 74.80 73.37 72.06 76.22 68.65 75.62 C 68.72 72.17 68.73 68.73 68.74 65.28 Z" />
<path fill="#181818" opacity="1.00" d=" M 0.00 138.33 C 1.40 138.04 1.95 138.60 1.66 140.00 L 0.00 140.00 L 0.00 138.33 Z" />
<path fill="#181818" opacity="1.00" d=" M 115.16 140.00 C 115.13 138.63 115.74 138.07 117.00 138.32 L 117.00 140.00 L 115.16 140.00 Z" />
</g>
<g id="#8f61efff">
<path fill="#8f61ef" opacity="1.00" d=" M 29.67 16.29 C 32.67 13.13 35.78 10.07 38.87 6.99 C 53.91 7.01 68.95 7.00 84.00 6.99 C 86.85 6.87 89.95 7.93 91.55 10.42 C 93.37 13.00 92.94 16.30 93.04 19.27 C 91.71 19.27 90.37 19.27 89.04 19.27 C 88.90 17.12 89.27 14.78 88.29 12.78 C 86.96 10.68 84.18 11.11 82.05 10.96 C 69.37 11.03 56.68 11.01 43.99 10.97 C 42.63 11.12 40.99 10.75 39.92 11.82 C 36.93 14.42 34.21 17.32 31.50 20.19 C 30.91 18.88 30.33 17.57 29.67 16.29 Z" />
<path fill="#8f61ef" opacity="1.00" d=" M 98.38 33.51 C 98.52 35.00 99.32 36.84 98.12 38.10 C 96.90 39.13 95.10 38.60 93.65 38.87 L 94.03 38.45 C 95.47 36.79 96.94 35.16 98.38 33.51 Z" />
<path fill="#8f61ef" opacity="1.00" d=" M 89.04 81.97 C 90.32 81.26 91.59 80.54 92.89 79.89 C 95.15 79.86 97.23 81.70 96.98 84.05 C 97.19 86.48 94.50 88.71 92.18 87.80 C 91.19 87.37 90.22 86.91 89.25 86.46 C 89.15 84.96 89.08 83.47 89.04 81.97 Z" />
</g>
<g id="#54d997ff">
<path fill="#54d997" opacity="1.00" d=" M 19.77 17.05 C 21.67 13.35 27.20 13.00 29.67 16.29 C 30.33 17.57 30.91 18.88 31.50 20.19 C 30.54 21.71 29.69 23.30 28.87 24.90 C 27.73 25.31 26.57 25.67 25.40 25.97 C 20.98 26.23 17.23 20.96 19.77 17.05 Z" />
</g>
<g id="#f8ab57ff">
<path fill="#f8ab57" opacity="1.00" d=" M 42.10 15.20 C 42.75 13.13 46.07 13.84 45.95 15.90 C 46.02 23.98 46.12 32.07 45.90 40.15 C 45.86 42.39 43.29 41.96 41.94 41.17 C 42.16 32.52 41.79 23.85 42.10 15.20 Z" />
<path fill="#f8ab57" opacity="1.00" d=" M 51.22 13.97 C 53.06 13.53 54.35 15.27 54.00 16.98 C 53.95 24.67 54.17 32.38 53.88 40.07 C 54.07 42.57 49.87 42.45 50.07 40.05 C 49.96 31.78 49.88 23.48 50.11 15.20 C 50.39 14.89 50.95 14.28 51.22 13.97 Z" />
<path fill="#f8ab57" opacity="1.00" d=" M 57.95 14.78 C 59.30 13.91 61.94 13.71 61.92 15.93 C 62.01 24.21 62.18 32.53 61.74 40.79 C 61.10 42.57 59.32 41.45 58.03 41.27 C 58.00 32.44 58.03 23.61 57.95 14.78 Z" />
<path fill="#f8ab57" opacity="1.00" d=" M 65.95 14.79 C 67.28 14.09 69.89 13.61 69.88 15.85 C 70.08 23.91 70.00 32.00 69.80 40.07 C 70.13 42.53 65.78 42.35 66.15 40.03 C 65.91 31.62 66.13 23.20 65.95 14.79 Z" />
<path fill="#f8ab57" opacity="1.00" d=" M 75.16 14.21 C 76.96 13.40 78.24 15.29 77.93 16.92 C 77.92 24.62 78.00 32.34 77.75 40.04 C 77.99 41.58 76.39 42.02 75.20 41.76 C 73.74 41.04 74.27 39.28 74.10 37.98 C 74.21 30.37 73.82 22.75 74.18 15.15 C 74.42 14.92 74.91 14.45 75.16 14.21 Z" />
<path fill="#f8ab57" opacity="1.00" d=" M 93.81 33.75 C 95.06 32.49 96.90 33.17 98.38 33.51 C 96.94 35.16 95.47 36.79 94.03 38.45 C 93.11 37.12 92.24 34.96 93.81 33.75 Z" />
</g>
<g id="#6851e0ff">
<path fill="#6851e0" opacity="1.00" d=" M 89.04 19.27 C 90.37 19.27 91.71 19.27 93.04 19.27 C 92.99 22.52 93.00 25.76 93.00 29.00 C 91.67 29.00 90.34 29.00 89.01 29.00 C 89.00 33.64 89.00 38.28 88.99 42.93 C 89.75 43.05 91.29 43.29 92.05 43.41 C 90.36 45.71 87.80 46.68 85.01 46.62 C 85.01 39.41 84.99 32.20 85.00 25.00 C 86.32 25.00 87.65 25.00 88.98 25.00 C 88.99 23.09 89.02 21.18 89.04 19.27 Z" />
<path fill="#6851e0" opacity="1.00" d=" M 28.40 27.33 C 29.93 27.20 31.46 27.08 33.00 26.96 C 33.00 30.97 33.00 34.98 33.00 38.99 C 31.67 38.99 30.33 39.00 29.00 39.01 C 28.99 41.43 28.99 43.86 29.00 46.28 C 27.67 46.29 26.33 46.30 25.00 46.31 C 25.01 42.54 25.00 38.78 25.00 35.01 C 26.33 35.00 27.66 35.00 29.00 35.00 C 28.99 33.65 28.99 32.30 28.99 30.95 C 27.54 30.90 26.08 30.84 24.62 30.76 C 24.84 30.41 25.27 29.71 25.49 29.36 C 26.14 29.25 27.45 29.04 28.10 28.94 C 28.17 28.54 28.32 27.73 28.40 27.33 Z" />
</g>
<g id="#3f43d2ff">
<path fill="#3f43d2" opacity="1.00" d=" M 25.40 25.97 C 26.57 25.67 27.73 25.31 28.87 24.90 C 28.75 25.51 28.51 26.72 28.40 27.33 C 28.32 27.73 28.17 28.54 28.10 28.94 C 27.45 29.04 26.14 29.25 25.49 29.36 C 25.47 28.51 25.42 26.82 25.40 25.97 Z" />
<path fill="#3f43d2" opacity="1.00" d=" M 92.05 43.41 C 92.27 43.19 92.71 42.75 92.93 42.52 C 93.08 54.98 92.99 67.43 92.89 79.89 C 91.59 80.54 90.32 81.26 89.04 81.97 C 89.06 70.32 88.97 58.66 89.00 47.01 C 87.66 47.01 86.33 47.00 85.01 47.00 L 85.01 46.62 C 87.80 46.68 90.36 45.71 92.05 43.41 Z" />
<path fill="#3f43d2" opacity="1.00" d=" M 25.00 46.31 C 26.33 46.30 27.67 46.29 29.00 46.28 C 29.02 56.14 28.97 66.01 28.97 75.87 C 27.66 75.92 26.35 75.96 25.03 76.01 C 25.02 66.11 24.98 56.21 25.00 46.31 Z" />
<path fill="#3f43d2" opacity="1.00" d=" M 41.86 63.15 C 42.58 63.18 44.02 63.24 44.74 63.27 C 44.73 67.36 44.72 71.46 44.71 75.55 C 46.68 75.53 48.65 75.52 50.62 75.49 C 50.68 76.09 50.80 77.29 50.86 77.88 C 47.82 77.91 44.78 77.92 41.75 77.92 C 41.76 73.00 41.66 68.07 41.86 63.15 Z" />
<path fill="#3f43d2" opacity="1.00" d=" M 56.26 63.37 C 58.48 62.40 60.80 63.38 62.91 64.13 C 62.74 64.69 62.39 65.81 62.21 66.38 C 60.32 65.87 58.03 64.87 56.35 66.47 C 54.37 68.67 54.41 72.51 56.26 74.77 C 58.02 76.58 60.51 75.22 62.38 74.41 C 64.17 77.63 59.45 78.77 57.09 78.08 C 50.39 76.65 50.13 65.72 56.26 63.37 Z" />
<path fill="#3f43d2" opacity="1.00" d=" M 65.80 63.15 C 69.24 63.37 73.73 62.60 75.96 65.93 C 77.96 69.60 77.51 75.71 73.09 77.41 C 70.73 78.16 68.19 77.86 65.75 77.98 C 65.75 73.04 65.71 68.09 65.80 63.15 M 68.74 65.28 C 68.73 68.73 68.72 72.17 68.65 75.62 C 72.06 76.22 74.80 73.37 74.05 69.94 C 74.40 66.79 71.35 65.50 68.74 65.28 Z" />
</g>
<g id="#1b32c2ff">
<path fill="#1b32c2" opacity="1.00" d=" M 25.03 76.01 C 26.35 75.96 27.66 75.92 28.97 75.87 C 29.06 79.47 28.65 83.13 29.42 86.67 C 30.47 89.32 33.76 88.88 36.05 89.04 C 51.37 88.99 66.69 88.98 82.01 89.04 C 84.74 89.26 87.44 88.62 89.25 86.46 C 90.22 86.91 91.19 87.37 92.18 87.80 C 90.87 90.61 88.38 93.08 85.06 92.93 C 68.07 93.07 51.07 92.95 34.07 92.99 C 30.21 93.33 26.19 90.94 25.30 87.05 C 24.68 83.41 25.05 79.69 25.03 76.01 Z" />
</g>
<g id="#4850f8ff">
<path fill="#4850f8" opacity="1.00" d=" M 0.00 102.13 C 2.17 99.37 5.89 100.06 8.98 99.96 C 41.65 100.03 74.33 100.02 107.01 99.97 C 110.39 100.11 114.40 99.23 117.00 101.99 L 117.00 138.32 C 115.74 138.07 115.13 138.63 115.16 140.00 L 1.66 140.00 C 1.95 138.60 1.40 138.04 0.00 138.33 L 0.00 102.13 Z" />
</g>
</svg>
