<?xml version="1.0" encoding="UTF-8" ?>
<!DOCTYPE svg PUBLIC "-//W3C//DTD SVG 1.1//EN" "http://www.w3.org/Graphics/SVG/1.1/DTD/svg11.dtd">
<svg width="117px" height="140px" viewBox="0 0 117 140" version="1.1" xmlns="http://www.w3.org/2000/svg">
<g id="#000000ff">
<path fill="#000000" opacity="1.00" d=" M 0.00 0.00 L 117.00 0.00 L 117.00 140.00 L 0.00 140.00 L 0.00 0.00 M 38.27 33.33 C 35.27 33.56 31.61 35.54 31.79 39.00 C 31.72 48.66 31.77 58.33 31.77 67.99 C 31.52 70.91 33.70 74.36 36.91 74.18 C 51.61 74.20 66.32 74.21 81.02 74.16 C 84.21 74.26 85.59 70.64 85.47 67.97 C 85.49 59.66 85.54 51.34 85.46 43.03 C 85.64 39.60 82.30 37.13 79.11 37.07 C 70.37 36.85 61.61 37.20 52.86 36.89 C 48.33 34.67 43.49 32.47 38.27 33.33 Z" />
</g>
<g id="#f8bf62ff">
<path fill="#f8bf62" opacity="1.00" d=" M 38.27 33.33 C 43.49 32.47 48.33 34.67 52.86 36.89 C 61.61 37.20 70.37 36.85 79.11 37.07 C 82.30 37.13 85.64 39.60 85.46 43.03 C 85.54 51.34 85.49 59.66 85.47 67.97 C 85.59 70.64 84.21 74.26 81.02 74.16 C 66.32 74.21 51.61 74.20 36.91 74.18 C 33.70 74.36 31.52 70.91 31.77 67.99 C 31.77 58.33 31.72 48.66 31.79 39.00 C 31.61 35.54 35.27 33.56 38.27 33.33 Z" />
</g>
</svg>
