<?xml version="1.0" encoding="UTF-8" ?>
<!DOCTYPE svg PUBLIC "-//W3C//DTD SVG 1.1//EN" "http://www.w3.org/Graphics/SVG/1.1/DTD/svg11.dtd">
<svg width="117px" height="140px" viewBox="0 0 117 140" version="1.1" xmlns="http://www.w3.org/2000/svg">
<g id="#000000ff">
<path fill="#000000" opacity="1.00" d=" M 0.00 0.00 L 117.00 0.00 L 117.00 140.00 L 0.00 140.00 L 0.00 0.00 M 32.33 10.38 C 17.41 12.23 5.23 25.92 5.04 40.95 C 4.89 59.65 5.04 78.36 4.97 97.06 C 4.71 107.20 9.43 117.32 17.57 123.41 C 23.35 127.91 30.66 130.16 37.96 130.04 C 52.66 129.94 67.37 130.12 82.07 129.97 C 98.02 129.81 112.34 115.98 112.91 100.02 C 113.22 83.68 112.87 67.34 113.04 51.00 C 113.03 44.30 113.49 37.36 111.06 30.98 C 106.98 19.64 96.05 11.12 84.01 10.17 C 77.02 9.67 70.00 10.11 63.00 9.99 C 52.78 10.24 42.52 9.44 32.33 10.38 Z" />
<path fill="#000000" opacity="1.00" d=" M 32.34 12.43 C 47.53 11.45 62.79 12.30 78.01 11.98 C 86.11 11.65 94.50 13.84 100.64 19.32 C 107.14 24.91 111.00 33.36 110.97 41.93 C 111.05 59.62 110.92 77.31 111.02 95.00 C 111.14 100.95 110.35 107.10 107.33 112.33 C 102.33 121.87 91.81 128.01 81.07 127.95 C 66.70 128.05 52.32 127.97 37.94 127.99 C 30.01 128.11 22.03 125.26 16.30 119.72 C 10.15 113.92 6.80 105.47 7.00 97.05 C 7.06 78.34 6.91 59.62 7.08 40.92 C 7.25 26.98 18.50 14.24 32.34 12.43 M 34.15 46.15 C 33.82 50.31 33.73 54.54 34.33 58.68 C 40.19 59.40 46.11 58.86 52.00 59.00 C 62.87 58.74 73.79 59.52 84.62 58.64 C 85.29 54.52 85.18 50.30 84.84 46.15 C 67.96 45.89 51.04 45.89 34.15 46.15 Z" />
<path fill="#000000" opacity="1.00" d=" M 37.28 49.31 C 46.50 48.74 55.76 49.27 65.00 49.09 C 70.53 49.21 76.08 48.76 81.59 49.34 C 81.77 51.41 81.77 53.49 81.56 55.56 C 73.39 56.14 65.18 55.61 57.00 55.78 C 50.44 55.65 43.86 56.10 37.31 55.59 C 37.08 53.51 37.08 51.40 37.28 49.31 Z" />
</g>
<g id="#6f706fff">
<path fill="#6f706f" opacity="1.00" d=" M 32.33 10.38 C 42.52 9.44 52.78 10.24 63.00 9.99 C 70.00 10.11 77.02 9.67 84.01 10.17 C 96.05 11.12 106.98 19.64 111.06 30.98 C 113.49 37.36 113.03 44.30 113.04 51.00 C 112.87 67.34 113.22 83.68 112.91 100.02 C 112.34 115.98 98.02 129.81 82.07 129.97 C 67.37 130.12 52.66 129.94 37.96 130.04 C 30.66 130.16 23.35 127.91 17.57 123.41 C 9.43 117.32 4.71 107.20 4.97 97.06 C 5.04 78.36 4.89 59.65 5.04 40.95 C 5.23 25.92 17.41 12.23 32.33 10.38 M 32.34 12.43 C 18.50 14.24 7.25 26.98 7.08 40.92 C 6.91 59.62 7.06 78.34 7.00 97.05 C 6.80 105.47 10.15 113.92 16.30 119.72 C 22.03 125.26 30.01 128.11 37.94 127.99 C 52.32 127.97 66.70 128.05 81.07 127.95 C 91.81 128.01 102.33 121.87 107.33 112.33 C 110.35 107.10 111.14 100.95 111.02 95.00 C 110.92 77.31 111.05 59.62 110.97 41.93 C 111.00 33.36 107.14 24.91 100.64 19.32 C 94.50 13.84 86.11 11.65 78.01 11.98 C 62.79 12.30 47.53 11.45 32.34 12.43 Z" />
</g>
<g id="#f8fcf8ff">
<path fill="#f8fcf8" opacity="1.00" d=" M 34.15 46.15 C 51.04 45.89 67.96 45.89 84.84 46.15 C 85.18 50.30 85.29 54.52 84.62 58.64 C 73.79 59.52 62.87 58.74 52.00 59.00 C 46.11 58.86 40.19 59.40 34.33 58.68 C 33.73 54.54 33.82 50.31 34.15 46.15 M 37.28 49.31 C 37.08 51.40 37.08 53.51 37.31 55.59 C 43.86 56.10 50.44 55.65 57.00 55.78 C 65.18 55.61 73.39 56.14 81.56 55.56 C 81.77 53.49 81.77 51.41 81.59 49.34 C 76.08 48.76 70.53 49.21 65.00 49.09 C 55.76 49.27 46.50 48.74 37.28 49.31 Z" />
</g>
</svg>
