<?xml version="1.0" encoding="UTF-8" ?>
<!DOCTYPE svg PUBLIC "-//W3C//DTD SVG 1.1//EN" "http://www.w3.org/Graphics/SVG/1.1/DTD/svg11.dtd">
<svg width="117px" height="140px" viewBox="0 0 117 140" version="1.1" xmlns="http://www.w3.org/2000/svg">
<g id="#000000ff">
<path fill="#000000" opacity="1.00" d=" M 0.00 0.00 L 117.00 0.00 L 117.00 140.00 L 0.00 140.00 L 0.00 0.00 M 33.21 10.31 C 22.00 11.51 11.84 19.22 7.56 29.64 C 5.26 34.77 4.92 40.47 5.04 46.02 C 5.10 63.34 5.03 80.66 5.08 97.98 C 4.83 111.58 14.37 124.49 27.34 128.45 C 33.35 130.44 39.76 129.87 45.98 129.94 C 58.33 129.85 70.68 130.10 83.01 129.83 C 98.95 129.27 112.83 114.95 112.88 99.00 C 112.99 80.00 112.93 61.00 112.91 42.00 C 113.06 30.96 106.88 20.18 97.38 14.60 C 91.90 11.22 85.39 9.86 79.00 10.05 C 63.74 10.24 48.46 9.73 33.21 10.31 Z" />
<path fill="#000000" opacity="1.00" d=" M 33.25 12.31 C 45.15 11.53 57.09 12.12 69.01 11.93 C 77.36 12.10 86.26 11.06 93.98 14.97 C 103.82 19.62 110.80 30.00 110.88 40.95 C 111.23 57.64 110.99 74.33 111.08 91.02 C 111.01 96.00 111.20 101.07 109.94 105.93 C 107.66 114.22 101.69 121.44 93.87 125.07 C 87.44 128.35 80.02 128.05 73.00 128.07 C 61.33 128.00 49.66 128.15 37.99 128.00 C 32.20 127.98 26.32 126.76 21.41 123.58 C 12.24 118.19 6.66 107.62 7.00 97.03 C 6.98 78.34 6.81 59.64 7.09 40.94 C 7.20 26.70 19.06 13.69 33.25 12.31 M 52.19 23.32 C 43.22 24.01 34.99 30.12 31.64 38.44 C 27.92 47.26 31.48 57.14 28.45 66.12 C 27.63 69.74 24.60 73.03 25.68 76.92 C 26.71 82.70 30.79 87.24 34.87 91.18 C 37.54 93.83 41.19 95.70 45.01 95.63 C 50.41 95.30 54.60 90.65 60.12 90.96 C 65.32 91.64 69.44 96.10 74.89 95.60 C 81.18 94.89 85.59 89.78 89.18 85.05 C 92.24 81.01 94.43 75.27 91.79 70.47 C 88.12 63.54 88.82 55.58 88.82 48.03 C 88.89 38.63 83.21 29.40 74.59 25.53 C 67.60 22.17 59.66 23.42 52.19 23.32 M 22.37 102.85 C 22.50 105.54 21.89 108.42 23.17 110.92 C 23.41 109.78 23.88 107.52 24.12 106.39 C 25.14 107.84 26.12 109.31 27.18 110.74 C 27.01 108.29 27.81 105.75 27.01 103.38 C 25.48 103.08 23.92 102.99 22.37 102.85 M 28.38 103.04 C 28.38 105.34 28.38 107.64 28.36 109.94 C 30.04 109.94 31.72 109.94 33.40 109.94 L 33.32 109.04 C 32.43 109.03 30.67 109.02 29.79 109.01 C 29.78 108.51 29.77 107.52 29.77 107.02 C 30.72 107.01 32.62 106.98 33.57 106.97 C 31.98 106.29 30.36 105.67 28.79 104.92 C 30.69 104.29 32.58 103.66 34.49 103.05 C 32.45 103.01 30.41 103.00 28.38 103.04 M 35.20 103.27 C 35.15 104.23 35.10 105.19 35.05 106.14 C 36.54 106.80 38.01 107.51 39.46 108.25 C 37.40 108.67 35.29 108.68 33.22 109.00 C 35.18 109.91 37.31 109.91 39.41 109.78 C 39.60 108.76 39.77 107.75 39.94 106.73 C 38.48 106.03 37.01 105.34 35.55 104.62 C 36.32 104.53 37.86 104.33 38.63 104.24 C 38.65 103.93 38.70 103.33 38.73 103.02 C 37.55 103.10 36.38 103.18 35.20 103.27 M 40.37 103.05 C 40.38 105.33 40.38 107.62 40.35 109.90 C 42.06 109.93 43.78 109.98 45.50 110.03 L 45.54 109.40 C 43.90 109.11 42.13 109.00 41.00 107.60 C 42.15 107.36 44.45 106.89 45.59 106.65 C 44.00 106.20 42.42 105.69 40.86 105.14 C 43.00 103.46 45.84 103.69 48.38 103.86 C 48.38 105.87 48.37 107.89 48.35 109.91 C 48.71 109.94 49.44 110.01 49.80 110.04 C 49.79 108.16 49.77 106.28 49.74 104.41 C 50.51 104.09 52.03 103.46 52.80 103.15 C 48.66 102.91 44.51 103.15 40.37 103.05 M 58.36 103.05 C 58.38 105.34 58.37 107.64 58.36 109.93 C 62.88 109.99 67.41 110.02 71.93 109.88 C 71.86 109.24 71.74 107.97 71.67 107.34 C 73.05 107.18 74.39 106.00 75.79 106.28 C 76.56 107.71 76.56 109.42 77.23 110.91 C 77.44 109.80 77.86 107.59 78.07 106.48 C 79.19 107.98 80.29 109.51 81.64 110.81 C 81.45 110.09 81.05 108.64 80.86 107.92 C 81.23 106.40 82.04 104.73 80.87 103.33 C 79.78 103.17 78.70 103.06 77.61 103.01 C 76.42 103.97 74.92 104.03 73.70 103.14 C 68.59 102.90 63.48 103.13 58.36 103.05 M 83.17 108.69 C 84.13 110.38 86.44 109.63 88.02 109.99 C 88.45 109.52 89.33 108.57 89.76 108.10 C 90.19 108.77 91.05 110.11 91.48 110.79 C 91.54 109.73 91.66 107.61 91.71 106.55 C 92.88 107.82 94.16 107.56 95.38 106.52 C 95.32 107.39 95.19 109.12 95.13 109.99 C 95.51 109.97 96.28 109.93 96.67 109.91 C 96.63 107.47 96.62 105.03 96.55 102.59 C 95.51 103.79 94.49 105.00 93.48 106.22 C 92.46 105.02 91.43 103.82 90.40 102.62 C 90.40 103.29 90.39 104.61 90.38 105.27 C 89.10 104.24 87.85 102.67 85.98 103.06 C 83.14 102.71 81.00 106.64 83.17 108.69 Z" />
<path fill="#000000" opacity="1.00" d=" M 32.41 47.00 C 32.75 36.09 42.05 26.44 52.99 25.94 C 60.15 26.04 67.87 24.82 74.42 28.46 C 81.31 32.06 85.59 39.38 86.33 47.01 C 68.36 47.02 50.38 47.02 32.41 47.00 Z" />
<path fill="#000000" opacity="1.00" d=" M 32.44 49.57 C 50.35 49.63 68.26 49.58 86.17 49.59 C 86.16 50.24 86.15 51.53 86.14 52.18 C 68.27 52.18 50.40 52.16 32.52 52.19 C 32.50 51.54 32.46 50.22 32.44 49.57 Z" />
<path fill="#000000" opacity="1.00" d=" M 82.52 64.54 C 85.15 62.34 85.19 58.74 86.88 55.98 C 86.39 65.42 81.51 75.23 72.57 79.22 C 67.43 77.87 64.61 71.74 58.88 72.12 C 53.71 72.55 50.84 77.72 46.09 79.26 C 37.76 75.49 32.54 66.62 31.98 57.65 C 33.62 61.73 36.17 65.84 40.41 67.58 C 45.31 68.93 50.93 67.11 53.80 62.84 C 55.33 60.41 58.55 59.56 61.21 60.40 C 63.34 60.71 64.47 62.69 65.88 64.07 C 69.88 68.95 78.37 69.55 82.52 64.54 Z" />
<path fill="#000000" opacity="1.00" d=" M 28.48 77.09 C 27.40 73.49 30.20 70.35 31.11 67.03 C 34.47 72.79 38.22 79.46 45.07 81.47 C 51.41 82.74 54.08 74.21 60.14 74.81 C 64.89 76.16 67.55 81.96 72.97 81.59 C 80.03 79.62 84.58 72.95 87.53 66.64 C 88.38 70.57 91.64 74.36 89.70 78.50 C 87.33 84.06 83.07 89.05 77.79 92.02 C 71.50 95.33 66.27 88.38 60.08 88.34 C 54.52 87.82 50.21 92.14 44.96 92.97 C 41.08 92.94 37.72 90.50 35.18 87.77 C 32.35 84.66 29.44 81.30 28.48 77.09 M 29.79 77.18 C 31.00 75.97 33.34 75.15 33.08 73.07 C 32.93 72.68 32.65 71.89 32.50 71.50 C 30.68 72.69 27.11 74.96 29.79 77.18 M 30.59 80.44 C 33.11 79.89 37.08 77.76 35.24 74.68 C 32.74 75.60 30.83 77.72 30.59 80.44 M 35.41 79.27 C 33.97 80.47 31.92 82.03 33.83 83.90 C 35.30 83.08 36.60 81.95 37.63 80.62 C 38.73 79.00 36.42 77.28 35.41 79.27 M 72.38 84.25 C 70.56 85.77 70.97 88.81 72.87 90.07 C 75.13 92.04 79.24 89.93 78.93 86.96 C 79.40 83.54 74.43 81.66 72.38 84.25 Z" />
<path fill="#000000" opacity="1.00" d=" M 23.85 104.21 C 25.46 103.62 26.05 104.15 25.62 105.78 C 24.00 106.36 23.41 105.84 23.85 104.21 Z" />
<path fill="#000000" opacity="1.00" d=" M 59.74 104.21 C 61.30 103.98 62.86 103.71 64.42 103.42 C 64.38 105.55 64.38 107.69 64.40 109.83 C 62.51 109.25 60.59 108.78 58.77 108.00 C 60.39 107.35 62.02 106.72 63.67 106.12 C 62.69 106.06 60.73 105.96 59.76 105.90 C 59.75 105.48 59.74 104.63 59.74 104.21 Z" />
<path fill="#000000" opacity="1.00" d=" M 64.77 105.04 C 66.56 104.19 68.51 103.75 70.40 103.18 C 70.38 105.37 70.38 107.56 70.39 109.75 C 68.53 109.15 66.39 109.11 64.96 107.63 C 66.11 107.39 68.41 106.92 69.56 106.68 C 67.94 106.20 66.34 105.65 64.77 105.04 Z" />
<path fill="#000000" opacity="1.00" d=" M 71.91 104.18 C 73.57 103.70 74.11 104.27 73.54 105.87 C 71.89 106.35 71.35 105.79 71.91 104.18 Z" />
<path fill="#000000" opacity="1.00" d=" M 77.89 104.19 C 79.53 103.67 80.09 104.22 79.58 105.83 C 77.94 106.35 77.37 105.80 77.89 104.19 Z" />
<path fill="#000000" opacity="1.00" d=" M 84.45 105.10 C 84.84 103.65 89.06 104.03 88.37 106.00 C 89.03 107.83 86.95 109.82 85.25 108.69 C 83.66 107.98 83.21 106.44 84.45 105.10 Z" />
</g>
<g id="#808180ff">
<path fill="#808180" opacity="1.00" d=" M 33.21 10.31 C 48.46 9.73 63.74 10.24 79.00 10.05 C 85.39 9.86 91.90 11.22 97.38 14.60 C 106.88 20.18 113.06 30.96 112.91 42.00 C 112.93 61.00 112.99 80.00 112.88 99.00 C 112.83 114.95 98.95 129.27 83.01 129.83 C 70.68 130.10 58.33 129.85 45.98 129.94 C 39.76 129.87 33.35 130.44 27.34 128.45 C 14.37 124.49 4.83 111.58 5.08 97.98 C 5.03 80.66 5.10 63.34 5.04 46.02 C 4.92 40.47 5.26 34.77 7.56 29.64 C 11.84 19.22 22.00 11.51 33.21 10.31 M 33.25 12.31 C 19.06 13.69 7.20 26.70 7.09 40.94 C 6.81 59.64 6.98 78.34 7.00 97.03 C 6.66 107.62 12.24 118.19 21.41 123.58 C 26.32 126.76 32.20 127.98 37.99 128.00 C 49.66 128.15 61.33 128.00 73.00 128.07 C 80.02 128.05 87.44 128.35 93.87 125.07 C 101.69 121.44 107.66 114.22 109.94 105.93 C 111.20 101.07 111.01 96.00 111.08 91.02 C 110.99 74.33 111.23 57.64 110.88 40.95 C 110.80 30.00 103.82 19.62 93.98 14.97 C 86.26 11.06 77.36 12.10 69.01 11.93 C 57.09 12.12 45.15 11.53 33.25 12.31 Z" />
</g>
<g id="#f4f7f4ff">
<path fill="#f4f7f4" opacity="1.00" d=" M 52.19 23.32 C 59.66 23.42 67.60 22.17 74.59 25.53 C 83.21 29.40 88.89 38.63 88.82 48.03 C 88.82 55.58 88.12 63.54 91.79 70.47 C 94.43 75.27 92.24 81.01 89.18 85.05 C 85.59 89.78 81.18 94.89 74.89 95.60 C 69.44 96.10 65.32 91.64 60.12 90.96 C 54.60 90.65 50.41 95.30 45.01 95.63 C 41.19 95.70 37.54 93.83 34.87 91.18 C 30.79 87.24 26.71 82.70 25.68 76.92 C 24.60 73.03 27.63 69.74 28.45 66.12 C 31.48 57.14 27.92 47.26 31.64 38.44 C 34.99 30.12 43.22 24.01 52.19 23.32 M 32.41 47.00 C 50.38 47.02 68.36 47.02 86.33 47.01 C 85.59 39.38 81.31 32.06 74.42 28.46 C 67.87 24.82 60.15 26.04 52.99 25.94 C 42.05 26.44 32.75 36.09 32.41 47.00 M 32.44 49.57 C 32.46 50.22 32.50 51.54 32.52 52.19 C 50.40 52.16 68.27 52.18 86.14 52.18 C 86.15 51.53 86.16 50.24 86.17 49.59 C 68.26 49.58 50.35 49.63 32.44 49.57 M 34.42 54.83 C 35.08 60.07 38.96 66.35 45.03 65.34 C 49.20 65.23 51.25 61.26 54.05 58.86 C 56.93 57.15 60.67 57.19 63.73 58.38 C 65.61 59.40 66.76 61.29 68.25 62.74 C 70.59 65.36 74.64 66.05 77.84 64.83 C 81.66 62.90 83.34 58.76 84.25 54.84 C 67.64 54.81 51.03 54.81 34.42 54.83 M 82.52 64.54 C 78.37 69.55 69.88 68.95 65.88 64.07 C 64.47 62.69 63.34 60.71 61.21 60.40 C 58.55 59.56 55.33 60.41 53.80 62.84 C 50.93 67.11 45.31 68.93 40.41 67.58 C 36.17 65.84 33.62 61.73 31.98 57.65 C 32.54 66.62 37.76 75.49 46.09 79.26 C 50.84 77.72 53.71 72.55 58.88 72.12 C 64.61 71.74 67.43 77.87 72.57 79.22 C 81.51 75.23 86.39 65.42 86.88 55.98 C 85.19 58.74 85.15 62.34 82.52 64.54 M 28.48 77.09 C 29.44 81.30 32.35 84.66 35.18 87.77 C 37.72 90.50 41.08 92.94 44.96 92.97 C 50.21 92.14 54.52 87.82 60.08 88.34 C 66.27 88.38 71.50 95.33 77.79 92.02 C 83.07 89.05 87.33 84.06 89.70 78.50 C 91.64 74.36 88.38 70.57 87.53 66.64 C 84.58 72.95 80.03 79.62 72.97 81.59 C 67.55 81.96 64.89 76.16 60.14 74.81 C 54.08 74.21 51.41 82.74 45.07 81.47 C 38.22 79.46 34.47 72.79 31.11 67.03 C 30.20 70.35 27.40 73.49 28.48 77.09 Z" />
<path fill="#f4f7f4" opacity="1.00" d=" M 29.79 77.18 C 27.11 74.96 30.68 72.69 32.50 71.50 C 32.65 71.89 32.93 72.68 33.08 73.07 C 33.34 75.15 31.00 75.97 29.79 77.18 Z" />
<path fill="#f4f7f4" opacity="1.00" d=" M 30.59 80.44 C 30.83 77.72 32.74 75.60 35.24 74.68 C 37.08 77.76 33.11 79.89 30.59 80.44 Z" />
<path fill="#f4f7f4" opacity="1.00" d=" M 35.41 79.27 C 36.42 77.28 38.73 79.00 37.63 80.62 C 36.60 81.95 35.30 83.08 33.83 83.90 C 31.92 82.03 33.97 80.47 35.41 79.27 Z" />
<path fill="#f4f7f4" opacity="1.00" d=" M 72.38 84.25 C 74.43 81.66 79.40 83.54 78.93 86.96 C 79.24 89.93 75.13 92.04 72.87 90.07 C 70.97 88.81 70.56 85.77 72.38 84.25 M 74.70 85.86 C 74.39 86.07 73.78 86.49 73.47 86.70 C 73.95 87.17 74.89 88.09 75.36 88.56 C 76.52 87.61 76.95 84.81 74.70 85.86 Z" />
<path fill="#f4f7f4" opacity="1.00" d=" M 22.37 102.85 C 23.92 102.99 25.48 103.08 27.01 103.38 C 27.81 105.75 27.01 108.29 27.18 110.74 C 26.12 109.31 25.14 107.84 24.12 106.39 C 23.88 107.52 23.41 109.78 23.17 110.92 C 21.89 108.42 22.50 105.54 22.37 102.85 M 23.85 104.21 C 23.41 105.84 24.00 106.36 25.62 105.78 C 26.05 104.15 25.46 103.62 23.85 104.21 Z" />
<path fill="#f4f7f4" opacity="1.00" d=" M 28.38 103.04 C 30.41 103.00 32.45 103.01 34.49 103.05 C 32.58 103.66 30.69 104.29 28.79 104.92 C 30.36 105.67 31.98 106.29 33.57 106.97 C 32.62 106.98 30.72 107.01 29.77 107.02 C 29.77 107.52 29.78 108.51 29.79 109.01 C 30.67 109.02 32.43 109.03 33.32 109.04 L 33.40 109.94 C 31.72 109.94 30.04 109.94 28.36 109.94 C 28.38 107.64 28.38 105.34 28.38 103.04 Z" />
<path fill="#f4f7f4" opacity="1.00" d=" M 35.20 103.27 C 36.38 103.18 37.55 103.10 38.73 103.02 C 38.70 103.33 38.65 103.93 38.63 104.24 C 37.86 104.33 36.32 104.53 35.55 104.62 C 37.01 105.34 38.48 106.03 39.94 106.73 C 39.77 107.75 39.60 108.76 39.41 109.78 C 37.31 109.91 35.18 109.91 33.22 109.00 C 35.29 108.68 37.40 108.67 39.46 108.25 C 38.01 107.51 36.54 106.80 35.05 106.14 C 35.10 105.19 35.15 104.23 35.20 103.27 Z" />
<path fill="#f4f7f4" opacity="1.00" d=" M 40.37 103.05 C 44.51 103.15 48.66 102.91 52.80 103.15 C 52.03 103.46 50.51 104.09 49.74 104.41 C 49.77 106.28 49.79 108.16 49.80 110.04 C 49.44 110.01 48.71 109.94 48.35 109.91 C 48.37 107.89 48.38 105.87 48.38 103.86 C 45.84 103.69 43.00 103.46 40.86 105.14 C 42.42 105.69 44.00 106.20 45.59 106.65 C 44.45 106.89 42.15 107.36 41.00 107.60 C 42.13 109.00 43.90 109.11 45.54 109.40 L 45.50 110.03 C 43.78 109.98 42.06 109.93 40.35 109.90 C 40.38 107.62 40.38 105.33 40.37 103.05 Z" />
<path fill="#f4f7f4" opacity="1.00" d=" M 58.36 103.05 C 63.48 103.13 68.59 102.90 73.70 103.14 C 74.92 104.03 76.42 103.97 77.61 103.01 C 78.70 103.06 79.78 103.17 80.87 103.33 C 82.04 104.73 81.23 106.40 80.86 107.92 C 81.05 108.64 81.45 110.09 81.64 110.81 C 80.29 109.51 79.19 107.98 78.07 106.48 C 77.86 107.59 77.44 109.80 77.23 110.91 C 76.56 109.42 76.56 107.71 75.79 106.28 C 74.39 106.00 73.05 107.18 71.67 107.34 C 71.74 107.97 71.86 109.24 71.93 109.88 C 67.41 110.02 62.88 109.99 58.36 109.93 C 58.37 107.64 58.38 105.34 58.36 103.05 M 59.74 104.21 C 59.74 104.63 59.75 105.48 59.76 105.90 C 60.73 105.96 62.69 106.06 63.67 106.12 C 62.02 106.72 60.39 107.35 58.77 108.00 C 60.59 108.78 62.51 109.25 64.40 109.83 C 64.38 107.69 64.38 105.55 64.42 103.42 C 62.86 103.71 61.30 103.98 59.74 104.21 M 64.77 105.04 C 66.34 105.65 67.94 106.20 69.56 106.68 C 68.41 106.92 66.11 107.39 64.96 107.63 C 66.39 109.11 68.53 109.15 70.39 109.75 C 70.38 107.56 70.38 105.37 70.40 103.18 C 68.51 103.75 66.56 104.19 64.77 105.04 M 71.91 104.18 C 71.35 105.79 71.89 106.35 73.54 105.87 C 74.11 104.27 73.57 103.70 71.91 104.18 M 77.89 104.19 C 77.37 105.80 77.94 106.35 79.58 105.83 C 80.09 104.22 79.53 103.67 77.89 104.19 Z" />
<path fill="#f4f7f4" opacity="1.00" d=" M 83.17 108.69 C 81.00 106.64 83.14 102.71 85.98 103.06 C 87.85 102.67 89.10 104.24 90.38 105.27 C 90.39 104.61 90.40 103.29 90.40 102.62 C 91.43 103.82 92.46 105.02 93.48 106.22 C 94.49 105.00 95.51 103.79 96.55 102.59 C 96.62 105.03 96.63 107.47 96.67 109.91 C 96.28 109.93 95.51 109.97 95.13 109.99 C 95.19 109.12 95.32 107.39 95.38 106.52 C 94.16 107.56 92.88 107.82 91.71 106.55 C 91.66 107.61 91.54 109.73 91.48 110.79 C 91.05 110.11 90.19 108.77 89.76 108.10 C 89.33 108.57 88.45 109.52 88.02 109.99 C 86.44 109.63 84.13 110.38 83.17 108.69 M 84.45 105.10 C 83.21 106.44 83.66 107.98 85.25 108.69 C 86.95 109.82 89.03 107.83 88.37 106.00 C 89.06 104.03 84.84 103.65 84.45 105.10 Z" />
</g>
<g id="#303430ff">
<path fill="#303430" opacity="1.00" d=" M 34.42 54.83 C 51.03 54.81 67.64 54.81 84.25 54.84 C 83.34 58.76 81.66 62.90 77.84 64.83 C 74.64 66.05 70.59 65.36 68.25 62.74 C 66.76 61.29 65.61 59.40 63.73 58.38 C 60.67 57.19 56.93 57.15 54.05 58.86 C 51.25 61.26 49.20 65.23 45.03 65.34 C 38.96 66.35 35.08 60.07 34.42 54.83 Z" />
<path fill="#303430" opacity="1.00" d=" M 74.70 85.86 C 76.95 84.81 76.52 87.61 75.36 88.56 C 74.89 88.09 73.95 87.17 73.47 86.70 C 73.78 86.49 74.39 86.07 74.70 85.86 Z" />
</g>
</svg>
