<?xml version="1.0" encoding="UTF-8" ?>
<!DOCTYPE svg PUBLIC "-//W3C//DTD SVG 1.1//EN" "http://www.w3.org/Graphics/SVG/1.1/DTD/svg11.dtd">
<svg width="117px" height="140px" viewBox="0 0 117 140" version="1.1" xmlns="http://www.w3.org/2000/svg">
<g id="#000000ff">
<path fill="#000000" opacity="1.00" d=" M 0.00 0.00 L 117.00 0.00 L 117.00 140.00 L 0.00 140.00 L 0.00 0.00 M 32.33 10.34 C 17.43 12.26 5.22 25.90 5.01 40.93 C 4.98 60.31 4.98 79.69 5.01 99.07 C 5.15 115.38 19.62 129.83 35.92 129.99 C 51.30 130.02 66.69 130.03 82.07 129.99 C 98.36 129.84 112.87 115.38 112.99 99.07 C 113.04 80.03 112.98 60.99 113.02 41.96 C 113.18 29.37 105.04 17.26 93.41 12.51 C 85.10 8.75 75.81 10.29 67.00 9.99 C 55.45 10.22 43.85 9.53 32.33 10.34 Z" />
<path fill="#000000" opacity="1.00" d=" M 32.34 12.39 C 48.20 11.52 64.13 12.24 80.03 12.01 C 90.36 11.68 100.70 16.99 106.21 25.78 C 109.29 30.58 111.02 36.24 110.98 41.95 C 111.00 60.65 111.00 79.35 110.98 98.05 C 111.09 108.80 104.82 119.30 95.32 124.33 C 90.37 127.10 84.64 128.15 79.01 128.00 C 64.32 127.92 49.63 128.13 34.95 127.89 C 20.08 127.23 7.21 113.96 7.05 99.07 C 6.98 79.69 6.98 60.31 7.05 40.92 C 7.26 26.98 18.52 14.29 32.34 12.39 M 46.67 32.94 C 46.87 33.42 47.27 34.36 47.47 34.84 C 54.24 35.69 61.18 34.90 68.02 35.20 C 70.25 34.95 73.98 36.22 74.33 32.94 C 69.93 32.13 65.44 32.59 61.00 32.49 C 56.23 32.61 51.40 32.09 46.67 32.94 M 47.09 35.91 C 47.11 36.65 47.15 38.11 47.17 38.84 C 56.05 39.06 64.95 39.06 73.83 38.85 C 73.85 38.11 73.89 36.65 73.91 35.91 C 64.97 35.77 56.03 35.77 47.09 35.91 M 47.12 40.28 C 47.11 41.54 47.11 42.81 47.13 44.07 C 56.03 44.43 64.97 44.43 73.88 44.07 C 73.89 42.81 73.89 41.54 73.88 40.28 C 64.96 40.09 56.03 40.09 47.12 40.28 M 47.10 45.88 C 47.08 47.31 47.08 48.74 47.11 50.17 C 56.00 50.74 65.00 50.74 73.89 50.17 C 73.92 48.74 73.92 47.31 73.90 45.88 C 64.99 45.44 56.01 45.44 47.10 45.88 M 47.19 51.90 C 47.08 53.61 47.00 55.32 46.93 57.03 C 43.22 57.15 39.23 56.35 35.94 58.52 C 35.92 61.27 38.70 62.13 40.73 63.16 C 47.31 66.24 53.41 70.27 60.06 73.19 C 66.69 71.13 72.56 66.72 78.93 63.82 C 81.24 62.44 84.96 61.84 85.07 58.53 C 81.75 56.43 77.79 57.13 74.07 57.02 C 74.00 55.31 73.92 53.60 73.81 51.90 C 64.94 51.63 56.06 51.64 47.19 51.90 Z" />
<path fill="#000000" opacity="1.00" d=" M 51.08 55.87 C 57.36 55.86 63.64 55.86 69.92 55.87 C 69.95 57.59 69.99 59.31 70.05 61.03 C 71.78 61.11 73.51 61.13 75.25 61.17 C 70.10 63.41 65.53 67.00 60.20 68.71 C 55.26 66.45 50.60 63.65 45.78 61.15 C 47.50 61.12 49.22 61.12 50.95 61.04 C 51.01 59.32 51.05 57.59 51.08 55.87 Z" />
</g>
<g id="#6e6f6eff">
<path fill="#6e6f6e" opacity="1.00" d=" M 32.33 10.34 C 43.85 9.53 55.45 10.22 67.00 9.99 C 75.81 10.29 85.10 8.75 93.41 12.51 C 105.04 17.26 113.18 29.37 113.02 41.96 C 112.98 60.99 113.04 80.03 112.99 99.07 C 112.87 115.38 98.36 129.84 82.07 129.99 C 66.69 130.03 51.30 130.02 35.92 129.99 C 19.62 129.83 5.15 115.38 5.01 99.07 C 4.98 79.69 4.98 60.31 5.01 40.93 C 5.22 25.90 17.43 12.26 32.33 10.34 M 32.34 12.39 C 18.52 14.29 7.26 26.98 7.05 40.92 C 6.98 60.31 6.98 79.69 7.05 99.07 C 7.21 113.96 20.08 127.23 34.95 127.89 C 49.63 128.13 64.32 127.92 79.01 128.00 C 84.64 128.15 90.37 127.10 95.32 124.33 C 104.82 119.30 111.09 108.80 110.98 98.05 C 111.00 79.35 111.00 60.65 110.98 41.95 C 111.02 36.24 109.29 30.58 106.21 25.78 C 100.70 16.99 90.36 11.68 80.03 12.01 C 64.13 12.24 48.20 11.52 32.34 12.39 Z" />
</g>
<g id="#f8fcf8ff">
<path fill="#f8fcf8" opacity="1.00" d=" M 46.67 32.94 C 51.40 32.09 56.23 32.61 61.00 32.49 C 65.44 32.59 69.93 32.13 74.33 32.94 C 73.98 36.22 70.25 34.95 68.02 35.20 C 61.18 34.90 54.24 35.69 47.47 34.84 C 47.27 34.36 46.87 33.42 46.67 32.94 Z" />
<path fill="#f8fcf8" opacity="1.00" d=" M 47.09 35.91 C 56.03 35.77 64.97 35.77 73.91 35.91 C 73.89 36.65 73.85 38.11 73.83 38.85 C 64.95 39.06 56.05 39.06 47.17 38.84 C 47.15 38.11 47.11 36.65 47.09 35.91 Z" />
<path fill="#f8fcf8" opacity="1.00" d=" M 47.12 40.28 C 56.03 40.09 64.96 40.09 73.88 40.28 C 73.89 41.54 73.89 42.81 73.88 44.07 C 64.97 44.43 56.03 44.43 47.13 44.07 C 47.11 42.81 47.11 41.54 47.12 40.28 Z" />
<path fill="#f8fcf8" opacity="1.00" d=" M 47.10 45.88 C 56.01 45.44 64.99 45.44 73.90 45.88 C 73.92 47.31 73.92 48.74 73.89 50.17 C 65.00 50.74 56.00 50.74 47.11 50.17 C 47.08 48.74 47.08 47.31 47.10 45.88 Z" />
<path fill="#f8fcf8" opacity="1.00" d=" M 47.19 51.90 C 56.06 51.64 64.94 51.63 73.81 51.90 C 73.92 53.60 74.00 55.31 74.07 57.02 C 77.79 57.13 81.75 56.43 85.07 58.53 C 84.96 61.84 81.24 62.44 78.93 63.82 C 72.56 66.72 66.69 71.13 60.06 73.19 C 53.41 70.27 47.31 66.24 40.73 63.16 C 38.70 62.13 35.92 61.27 35.94 58.52 C 39.23 56.35 43.22 57.15 46.93 57.03 C 47.00 55.32 47.08 53.61 47.19 51.90 M 51.08 55.87 C 51.05 57.59 51.01 59.32 50.95 61.04 C 49.22 61.12 47.50 61.12 45.78 61.15 C 50.60 63.65 55.26 66.45 60.20 68.71 C 65.53 67.00 70.10 63.41 75.25 61.17 C 73.51 61.13 71.78 61.11 70.05 61.03 C 69.99 59.31 69.95 57.59 69.92 55.87 C 63.64 55.86 57.36 55.86 51.08 55.87 Z" />
</g>
</svg>
