<?xml version="1.0" encoding="UTF-8" ?>
<!DOCTYPE svg PUBLIC "-//W3C//DTD SVG 1.1//EN" "http://www.w3.org/Graphics/SVG/1.1/DTD/svg11.dtd">
<svg width="117px" height="140px" viewBox="0 0 117 140" version="1.1" xmlns="http://www.w3.org/2000/svg">
<g id="#000000ff">
<path fill="#000000" opacity="1.00" d=" M 0.00 0.00 L 117.00 0.00 L 117.00 140.00 L 0.00 140.00 L 0.00 0.00 M 36.80 42.03 C 36.53 50.67 36.53 59.33 36.80 67.97 C 43.94 68.02 51.08 68.03 58.22 67.97 C 58.36 65.99 58.36 64.00 58.23 62.02 C 53.89 61.96 49.55 62.14 45.23 61.77 C 45.23 60.59 45.23 59.40 45.24 58.22 C 48.82 57.95 52.42 57.96 56.01 58.00 C 56.00 55.93 55.99 53.86 55.99 51.80 C 52.42 51.58 48.84 51.60 45.27 51.69 C 45.26 50.57 45.26 49.44 45.26 48.32 C 49.51 48.34 53.75 48.50 57.99 48.20 C 58.00 46.13 58.00 44.07 58.01 42.01 C 50.94 42.00 43.87 41.96 36.80 42.03 M 61.88 49.15 C 61.41 55.41 61.59 61.71 61.80 67.98 C 64.27 68.01 66.74 68.01 69.21 67.99 C 69.49 63.82 69.23 59.64 69.50 55.48 C 71.15 54.63 72.85 54.64 74.50 55.48 C 74.76 59.64 74.52 63.82 74.79 67.98 C 77.26 68.01 79.73 68.01 82.20 67.98 C 82.22 62.58 83.19 56.87 81.25 51.70 C 78.42 47.04 71.52 48.04 68.24 51.71 C 68.20 51.09 68.12 49.86 68.07 49.24 C 66.01 49.21 63.94 49.18 61.88 49.15 Z" />
</g>
<g id="#f8fcf8ff">
<path fill="#f8fcf8" opacity="1.00" d=" M 36.80 42.03 C 43.87 41.96 50.94 42.00 58.01 42.01 C 58.00 44.07 58.00 46.13 57.99 48.20 C 53.75 48.50 49.51 48.34 45.26 48.32 C 45.26 49.44 45.26 50.57 45.27 51.69 C 48.84 51.60 52.42 51.58 55.99 51.80 C 55.99 53.86 56.00 55.93 56.01 58.00 C 52.42 57.96 48.82 57.95 45.24 58.22 C 45.23 59.40 45.23 60.59 45.23 61.77 C 49.55 62.14 53.89 61.96 58.23 62.02 C 58.36 64.00 58.36 65.99 58.22 67.97 C 51.08 68.03 43.94 68.02 36.80 67.97 C 36.53 59.33 36.53 50.67 36.80 42.03 Z" />
<path fill="#f8fcf8" opacity="1.00" d=" M 61.88 49.15 C 63.94 49.18 66.01 49.21 68.07 49.24 C 68.12 49.86 68.20 51.09 68.24 51.71 C 71.52 48.04 78.42 47.04 81.25 51.70 C 83.19 56.87 82.22 62.58 82.20 67.98 C 79.73 68.01 77.26 68.01 74.79 67.98 C 74.52 63.82 74.76 59.64 74.50 55.48 C 72.85 54.64 71.15 54.63 69.50 55.48 C 69.23 59.64 69.49 63.82 69.21 67.99 C 66.74 68.01 64.27 68.01 61.80 67.98 C 61.59 61.71 61.41 55.41 61.88 49.15 Z" />
</g>
</svg>
