<?xml version="1.0" encoding="UTF-8" ?>
<!DOCTYPE svg PUBLIC "-//W3C//DTD SVG 1.1//EN" "http://www.w3.org/Graphics/SVG/1.1/DTD/svg11.dtd">
<svg width="150px" height="80px" viewBox="0 0 150 80" version="1.1" xmlns="http://www.w3.org/2000/svg">
<g id="#000000ff">
<path fill="#000000" opacity="1.00" d=" M 0.00 0.00 L 150.00 0.00 L 150.00 80.00 L 0.00 80.00 L 0.00 0.00 M 6.34 5.47 C 3.30 6.61 0.90 9.59 1.05 12.94 C 0.91 29.96 1.07 46.99 0.97 64.01 C 1.03 66.78 0.78 69.97 2.89 72.12 C 4.56 74.27 7.29 75.13 9.93 75.00 C 53.31 75.00 96.69 74.99 140.06 75.00 C 144.57 75.47 149.15 71.73 148.94 67.06 C 149.11 50.04 148.91 33.01 149.03 15.98 C 149.03 13.00 149.13 9.51 146.64 7.38 C 143.91 4.42 139.61 5.03 135.99 4.98 C 96.00 5.03 56.00 4.99 16.00 4.99 C 12.79 5.08 9.49 4.65 6.34 5.47 Z" />
<path fill="#000000" opacity="1.00" d=" M 7.28 7.32 C 10.82 6.69 14.43 7.07 18.00 7.00 C 58.35 6.99 98.71 7.02 139.06 6.98 C 141.21 7.02 143.64 7.10 145.26 8.73 C 147.15 10.64 146.97 13.51 147.03 15.98 C 146.93 32.99 147.07 50.01 146.97 67.02 C 147.11 70.22 144.24 73.15 141.02 72.97 C 97.33 73.04 53.63 72.98 9.94 73.00 C 7.10 73.23 4.02 71.62 3.32 68.71 C 2.81 66.17 2.99 63.56 2.98 60.99 C 3.06 45.31 2.95 29.62 3.01 13.93 C 2.81 11.11 4.36 8.00 7.28 7.32 M 42.02 28.96 C 41.97 35.32 42.02 41.68 41.97 48.05 C 42.15 49.33 41.55 51.45 43.24 51.94 C 44.92 52.13 48.03 52.37 47.65 49.80 C 47.81 42.92 47.53 36.02 47.78 29.13 C 45.86 29.06 43.94 29.02 42.02 28.96 M 52.21 31.08 C 51.75 34.70 52.08 38.36 51.99 41.99 C 52.07 45.35 51.49 48.93 53.09 52.05 C 56.72 49.43 59.78 46.13 63.08 43.12 C 64.20 41.94 66.44 40.11 64.59 38.52 C 61.36 35.39 57.71 32.69 54.30 29.76 C 53.25 28.60 52.22 29.97 52.21 31.08 Z" />
</g>
<g id="#707470ff">
<path fill="#707470" opacity="1.00" d=" M 6.34 5.47 C 9.49 4.65 12.79 5.08 16.00 4.99 C 56.00 4.99 96.00 5.03 135.99 4.98 C 139.61 5.03 143.91 4.42 146.64 7.38 C 149.13 9.51 149.03 13.00 149.03 15.98 C 148.91 33.01 149.11 50.04 148.94 67.06 C 149.15 71.73 144.57 75.47 140.06 75.00 C 96.69 74.99 53.31 75.00 9.93 75.00 C 7.29 75.13 4.56 74.27 2.89 72.12 C 0.78 69.97 1.03 66.78 0.97 64.01 C 1.07 46.99 0.91 29.96 1.05 12.94 C 0.90 9.59 3.30 6.61 6.34 5.47 M 7.28 7.32 C 4.36 8.00 2.81 11.11 3.01 13.93 C 2.95 29.62 3.06 45.31 2.98 60.99 C 2.99 63.56 2.81 66.17 3.32 68.71 C 4.02 71.62 7.10 73.23 9.94 73.00 C 53.63 72.98 97.33 73.04 141.02 72.97 C 144.24 73.15 147.11 70.22 146.97 67.02 C 147.07 50.01 146.93 32.99 147.03 15.98 C 146.97 13.51 147.15 10.64 145.26 8.73 C 143.64 7.10 141.21 7.02 139.06 6.98 C 98.71 7.02 58.35 6.99 18.00 7.00 C 14.43 7.07 10.82 6.69 7.28 7.32 Z" />
</g>
<g id="#f8fcf8ff">
<path fill="#f8fcf8" opacity="1.00" d=" M 42.02 28.96 C 43.94 29.02 45.86 29.06 47.78 29.13 C 47.53 36.02 47.81 42.92 47.65 49.80 C 48.03 52.37 44.92 52.13 43.24 51.94 C 41.55 51.45 42.15 49.33 41.97 48.05 C 42.02 41.68 41.97 35.32 42.02 28.96 Z" />
<path fill="#f8fcf8" opacity="1.00" d=" M 52.21 31.08 C 52.22 29.97 53.25 28.60 54.30 29.76 C 57.71 32.69 61.36 35.39 64.59 38.52 C 66.44 40.11 64.20 41.94 63.08 43.12 C 59.78 46.13 56.72 49.43 53.09 52.05 C 51.49 48.93 52.07 45.35 51.99 41.99 C 52.08 38.36 51.75 34.70 52.21 31.08 Z" />
</g>
</svg>
