<?xml version="1.0" encoding="UTF-8" ?>
<!DOCTYPE svg PUBLIC "-//W3C//DTD SVG 1.1//EN" "http://www.w3.org/Graphics/SVG/1.1/DTD/svg11.dtd">
<svg width="117px" height="140px" viewBox="0 0 117 140" version="1.1" xmlns="http://www.w3.org/2000/svg">
<g id="#000000ff">
<path fill="#000000" opacity="1.00" d=" M 0.00 0.00 L 117.00 0.00 L 117.00 140.00 L 0.00 140.00 L 0.00 0.00 M 32.38 10.48 C 17.53 11.88 4.99 25.02 4.36 39.94 C 4.22 58.96 4.36 77.98 4.29 97.00 C 4.14 103.72 5.98 110.58 9.94 116.06 C 15.63 124.60 25.83 129.80 36.05 129.71 C 51.05 129.66 66.05 129.74 81.05 129.67 C 94.43 129.51 106.97 119.79 110.44 106.87 C 112.08 101.74 111.65 96.32 111.70 91.02 C 111.70 75.01 111.69 59.01 111.70 43.00 C 111.87 36.03 109.87 28.92 105.63 23.34 C 99.74 14.87 89.34 9.97 79.08 10.29 C 63.52 10.44 47.94 10.06 32.38 10.48 Z" />
<path fill="#000000" opacity="1.00" d=" M 32.04 11.94 C 47.67 11.34 63.35 11.90 78.99 11.67 C 89.18 11.34 99.42 16.46 105.03 25.01 C 108.65 30.22 110.62 36.61 110.33 42.96 C 110.26 61.98 110.33 81.01 110.31 100.04 C 109.51 115.06 96.11 128.08 81.04 128.32 C 65.32 128.26 49.60 128.38 33.88 128.26 C 19.20 127.47 6.50 114.68 5.69 100.03 C 5.70 80.03 5.70 60.03 5.69 40.03 C 6.45 26.02 18.07 13.56 32.04 11.94 M 43.60 29.51 C 43.42 33.15 43.42 36.79 43.54 40.42 C 53.17 40.61 62.81 40.56 72.44 40.45 C 72.56 36.83 72.57 33.21 72.48 29.59 C 62.86 29.35 53.23 29.49 43.60 29.51 M 38.05 33.15 C 35.05 35.54 32.04 38.92 32.45 43.03 C 32.54 48.79 32.31 54.57 32.65 60.33 C 41.10 60.77 49.56 60.02 58.01 60.29 C 66.45 60.04 74.88 60.74 83.32 60.36 C 83.73 54.59 83.45 48.80 83.55 43.02 C 83.96 38.92 80.95 35.54 77.95 33.15 C 76.88 32.43 75.75 30.99 74.43 32.08 C 74.21 35.74 74.41 39.40 74.43 43.06 C 63.48 43.07 52.52 43.07 41.57 43.06 C 41.59 39.39 41.79 35.72 41.57 32.05 C 40.22 31.03 39.11 32.42 38.05 33.15 M 42.48 60.89 C 42.60 65.54 42.18 70.21 42.68 74.84 C 43.38 76.50 45.48 76.48 46.99 76.54 C 54.32 76.53 61.65 76.53 68.98 76.54 C 70.67 76.56 73.48 76.33 73.43 74.03 C 73.71 69.66 73.44 65.27 73.52 60.89 C 63.18 60.67 52.82 60.66 42.48 60.89 Z" />
<path fill="#000000" opacity="1.00" d=" M 46.44 32.41 C 54.14 32.61 61.86 32.61 69.56 32.40 C 69.55 34.13 69.55 35.87 69.56 37.60 C 61.86 37.39 54.14 37.39 46.44 37.60 C 46.44 35.87 46.45 34.14 46.44 32.41 Z" />
<path fill="#000000" opacity="1.00" d=" M 38.52 36.25 C 38.38 39.23 38.36 42.21 38.40 45.18 C 40.14 46.00 42.04 46.27 43.96 46.23 C 53.66 46.29 63.36 46.24 73.06 46.27 C 74.66 46.40 76.16 45.84 77.59 45.19 C 77.64 42.21 77.62 39.22 77.48 36.24 C 78.59 38.06 80.45 39.69 80.38 41.98 C 80.44 47.10 80.24 52.22 80.48 57.33 C 70.04 57.90 59.61 56.07 49.19 57.25 C 44.64 57.56 40.08 57.22 35.52 57.33 C 35.76 52.21 35.56 47.09 35.62 41.97 C 35.54 39.68 37.42 38.06 38.52 36.25 M 38.68 55.14 C 40.63 56.98 43.52 56.35 45.95 56.47 C 54.29 56.21 62.63 56.30 70.97 56.48 C 73.07 56.38 75.60 56.82 77.26 55.18 C 78.12 52.34 77.49 49.29 77.27 46.38 C 71.94 47.68 66.44 46.97 61.02 47.14 C 53.60 47.00 46.12 47.60 38.75 46.39 C 38.44 49.28 37.98 52.27 38.68 55.14 Z" />
<path fill="#000000" opacity="1.00" d=" M 41.44 50.28 C 52.48 50.37 63.52 50.37 74.57 50.28 C 74.53 51.02 74.46 52.50 74.42 53.24 C 63.47 53.20 52.53 53.20 41.58 53.24 C 41.54 52.50 41.47 51.02 41.44 50.28 Z" />
<path fill="#000000" opacity="1.00" d=" M 45.40 63.40 C 53.79 63.61 62.20 63.61 70.60 63.40 C 70.41 66.80 70.41 70.20 70.60 73.60 C 62.20 73.39 53.79 73.39 45.40 73.60 C 45.59 70.20 45.59 66.80 45.40 63.40 M 46.99 67.05 C 46.99 67.53 47.00 68.47 47.00 68.95 C 52.49 69.92 58.50 69.92 64.01 68.95 C 64.01 68.48 64.00 67.53 64.00 67.06 C 58.51 66.07 52.49 66.09 46.99 67.05 Z" />
</g>
<g id="#d25e19ff">
<path fill="#d25e19" opacity="1.00" d=" M 32.38 10.48 C 47.94 10.06 63.52 10.44 79.08 10.29 C 89.34 9.97 99.74 14.87 105.63 23.34 C 109.87 28.92 111.87 36.03 111.70 43.00 C 111.69 59.01 111.70 75.01 111.70 91.02 C 111.65 96.32 112.08 101.74 110.44 106.87 C 106.97 119.79 94.43 129.51 81.05 129.67 C 66.05 129.74 51.05 129.66 36.05 129.71 C 25.83 129.80 15.63 124.60 9.94 116.06 C 5.98 110.58 4.14 103.72 4.29 97.00 C 4.36 77.98 4.22 58.96 4.36 39.94 C 4.99 25.02 17.53 11.88 32.38 10.48 M 32.04 11.94 C 18.07 13.56 6.45 26.02 5.69 40.03 C 5.70 60.03 5.70 80.03 5.69 100.03 C 6.50 114.68 19.20 127.47 33.88 128.26 C 49.60 128.38 65.32 128.26 81.04 128.32 C 96.11 128.08 109.51 115.06 110.31 100.04 C 110.33 81.01 110.26 61.98 110.33 42.96 C 110.62 36.61 108.65 30.22 105.03 25.01 C 99.42 16.46 89.18 11.34 78.99 11.67 C 63.35 11.90 47.67 11.34 32.04 11.94 Z" />
<path fill="#d25e19" opacity="1.00" d=" M 43.60 29.51 C 53.23 29.49 62.86 29.35 72.48 29.59 C 72.57 33.21 72.56 36.83 72.44 40.45 C 62.81 40.56 53.17 40.61 43.54 40.42 C 43.42 36.79 43.42 33.15 43.60 29.51 M 46.44 32.41 C 46.45 34.14 46.44 35.87 46.44 37.60 C 54.14 37.39 61.86 37.39 69.56 37.60 C 69.55 35.87 69.55 34.13 69.56 32.40 C 61.86 32.61 54.14 32.61 46.44 32.41 Z" />
<path fill="#d25e19" opacity="1.00" d=" M 38.05 33.15 C 39.11 32.42 40.22 31.03 41.57 32.05 C 41.79 35.72 41.59 39.39 41.57 43.06 C 52.52 43.07 63.48 43.07 74.43 43.06 C 74.41 39.40 74.21 35.74 74.43 32.08 C 75.75 30.99 76.88 32.43 77.95 33.15 C 80.95 35.54 83.96 38.92 83.55 43.02 C 83.45 48.80 83.73 54.59 83.32 60.36 C 74.88 60.74 66.45 60.04 58.01 60.29 C 49.56 60.02 41.10 60.77 32.65 60.33 C 32.31 54.57 32.54 48.79 32.45 43.03 C 32.04 38.92 35.05 35.54 38.05 33.15 M 38.52 36.25 C 37.42 38.06 35.54 39.68 35.62 41.97 C 35.56 47.09 35.76 52.21 35.52 57.33 C 40.08 57.22 44.64 57.56 49.19 57.25 C 59.61 56.07 70.04 57.90 80.48 57.33 C 80.24 52.22 80.44 47.10 80.38 41.98 C 80.45 39.69 78.59 38.06 77.48 36.24 C 77.62 39.22 77.64 42.21 77.59 45.19 C 76.16 45.84 74.66 46.40 73.06 46.27 C 63.36 46.24 53.66 46.29 43.96 46.23 C 42.04 46.27 40.14 46.00 38.40 45.18 C 38.36 42.21 38.38 39.23 38.52 36.25 Z" />
<path fill="#d25e19" opacity="1.00" d=" M 38.68 55.14 C 37.98 52.27 38.44 49.28 38.75 46.39 C 46.12 47.60 53.60 47.00 61.02 47.14 C 66.44 46.97 71.94 47.68 77.27 46.38 C 77.49 49.29 78.12 52.34 77.26 55.18 C 75.60 56.82 73.07 56.38 70.97 56.48 C 62.63 56.30 54.29 56.21 45.95 56.47 C 43.52 56.35 40.63 56.98 38.68 55.14 M 41.44 50.28 C 41.47 51.02 41.54 52.50 41.58 53.24 C 52.53 53.20 63.47 53.20 74.42 53.24 C 74.46 52.50 74.53 51.02 74.57 50.28 C 63.52 50.37 52.48 50.37 41.44 50.28 Z" />
<path fill="#d25e19" opacity="1.00" d=" M 42.48 60.89 C 52.82 60.66 63.18 60.67 73.52 60.89 C 73.44 65.27 73.71 69.66 73.43 74.03 C 73.48 76.33 70.67 76.56 68.98 76.54 C 61.65 76.53 54.32 76.53 46.99 76.54 C 45.48 76.48 43.38 76.50 42.68 74.84 C 42.18 70.21 42.60 65.54 42.48 60.89 M 45.40 63.40 C 45.59 66.80 45.59 70.20 45.40 73.60 C 53.79 73.39 62.20 73.39 70.60 73.60 C 70.41 70.20 70.41 66.80 70.60 63.40 C 62.20 63.61 53.79 63.61 45.40 63.40 Z" />
<path fill="#d25e19" opacity="1.00" d=" M 46.99 67.05 C 52.49 66.09 58.51 66.07 64.00 67.06 C 64.00 67.53 64.01 68.48 64.01 68.95 C 58.50 69.92 52.49 69.92 47.00 68.95 C 47.00 68.47 46.99 67.53 46.99 67.05 Z" />
</g>
</svg>
