<?xml version="1.0" encoding="UTF-8" ?>
<!DOCTYPE svg PUBLIC "-//W3C//DTD SVG 1.1//EN" "http://www.w3.org/Graphics/SVG/1.1/DTD/svg11.dtd">
<svg width="117px" height="140px" viewBox="0 0 117 140" version="1.1" xmlns="http://www.w3.org/2000/svg">
<g id="#000000ff">
<path fill="#000000" opacity="1.00" d=" M 0.00 0.00 L 117.00 0.00 L 117.00 140.00 L 0.00 140.00 L 0.00 0.00 M 46.71 42.00 C 46.55 50.67 46.55 59.34 46.71 68.00 C 49.57 68.00 52.43 68.00 55.29 68.00 C 55.45 59.33 55.45 50.66 55.29 42.00 C 52.43 42.00 49.57 42.00 46.71 42.00 M 61.25 43.18 C 61.19 45.10 61.13 47.03 61.07 48.95 C 60.37 49.06 58.97 49.28 58.27 49.39 C 58.29 50.78 58.30 52.17 58.30 53.56 C 59.00 53.64 60.41 53.79 61.11 53.87 C 61.18 57.23 61.06 60.60 61.26 63.97 C 61.36 65.20 61.41 66.67 62.64 67.35 C 65.76 68.37 69.11 67.93 72.33 68.03 C 72.32 66.30 72.31 64.56 72.30 62.83 C 71.48 62.78 69.84 62.66 69.03 62.60 C 68.82 59.55 68.82 56.48 69.03 53.43 C 69.86 53.39 71.51 53.30 72.33 53.26 C 72.30 51.91 72.27 50.56 72.24 49.21 C 71.40 49.16 69.71 49.06 68.87 49.01 C 68.84 47.07 68.81 45.13 68.77 43.19 C 66.27 43.19 63.76 43.19 61.25 43.18 Z" />
</g>
<g id="#f8fcf8ff">
<path fill="#f8fcf8" opacity="1.00" d=" M 46.71 42.00 C 49.57 42.00 52.43 42.00 55.29 42.00 C 55.45 50.66 55.45 59.33 55.29 68.00 C 52.43 68.00 49.57 68.00 46.71 68.00 C 46.55 59.34 46.55 50.67 46.71 42.00 Z" />
<path fill="#f8fcf8" opacity="1.00" d=" M 61.25 43.18 C 63.76 43.19 66.27 43.19 68.77 43.19 C 68.81 45.13 68.84 47.07 68.87 49.01 C 69.71 49.06 71.40 49.16 72.24 49.21 C 72.27 50.56 72.30 51.91 72.33 53.26 C 71.51 53.30 69.86 53.39 69.03 53.43 C 68.82 56.48 68.82 59.55 69.03 62.60 C 69.84 62.66 71.48 62.78 72.30 62.83 C 72.31 64.56 72.32 66.30 72.33 68.03 C 69.11 67.93 65.76 68.37 62.64 67.35 C 61.41 66.67 61.36 65.20 61.26 63.97 C 61.06 60.60 61.18 57.23 61.11 53.87 C 60.41 53.79 59.00 53.64 58.30 53.56 C 58.30 52.17 58.29 50.78 58.27 49.39 C 58.97 49.28 60.37 49.06 61.07 48.95 C 61.13 47.03 61.19 45.10 61.25 43.18 Z" />
</g>
</svg>
