<?xml version="1.0" encoding="UTF-8" ?>
<!DOCTYPE svg PUBLIC "-//W3C//DTD SVG 1.1//EN" "http://www.w3.org/Graphics/SVG/1.1/DTD/svg11.dtd">
<svg width="117px" height="140px" viewBox="0 0 117 140" version="1.1" xmlns="http://www.w3.org/2000/svg">
<g id="#000000ff">
<path fill="#000000" opacity="1.00" d=" M 0.00 0.00 L 117.00 0.00 L 117.00 140.00 L 0.00 140.00 L 0.00 0.00 M 33.23 10.26 C 17.96 11.76 5.23 25.62 5.05 40.97 C 4.97 60.34 4.97 79.72 5.05 99.10 C 5.24 115.01 19.02 129.24 34.93 129.89 C 49.63 130.15 64.34 129.91 79.04 130.01 C 84.45 130.10 89.95 129.28 94.82 126.82 C 105.70 121.74 113.11 110.08 112.97 98.05 C 113.02 79.36 113.01 60.67 112.97 41.98 C 113.03 32.87 108.90 23.88 102.01 17.92 C 95.78 12.37 87.34 9.68 79.05 9.99 C 63.78 10.18 48.48 9.66 33.23 10.26 Z" />
<path fill="#000000" opacity="1.00" d=" M 33.21 12.33 C 49.44 11.77 65.71 12.16 81.96 12.12 C 97.23 12.15 110.86 25.75 110.88 41.03 C 111.00 59.67 110.90 78.32 110.93 96.97 C 111.03 102.28 109.97 107.67 107.28 112.31 C 102.28 121.83 91.74 128.05 80.99 127.91 C 65.97 127.93 50.95 127.99 35.93 127.88 C 20.73 127.78 7.17 114.25 7.12 99.03 C 7.03 79.70 7.04 60.36 7.12 41.03 C 7.20 26.78 19.04 13.78 33.21 12.33 M 60.34 27.14 C 56.38 31.09 52.42 35.05 48.47 39.01 C 50.10 41.10 52.48 41.59 55.00 41.28 C 55.00 43.30 55.00 45.31 55.00 47.33 C 53.01 47.32 51.02 47.32 49.03 47.33 C 49.00 46.62 48.96 45.20 48.93 44.49 C 48.71 43.92 48.28 42.76 48.07 42.18 C 47.68 41.86 46.90 41.23 46.52 40.91 C 42.66 44.85 38.75 48.75 34.82 52.61 C 38.72 56.62 42.72 60.53 46.65 64.50 C 47.45 63.64 48.23 62.77 49.02 61.90 C 49.01 60.60 49.00 59.30 48.99 58.00 C 50.99 58.00 53.00 58.00 55.00 58.00 C 55.00 60.00 55.00 62.00 55.00 64.00 C 52.48 63.68 50.10 64.21 48.44 66.25 C 52.39 70.27 56.38 74.23 60.37 78.19 C 64.30 74.21 68.26 70.26 72.23 66.33 C 70.58 64.41 68.13 63.86 65.71 63.90 C 65.71 61.93 65.71 59.97 65.71 58.00 C 67.71 58.00 69.71 58.00 71.71 58.00 C 71.38 60.53 71.91 62.90 74.00 64.53 C 77.96 60.57 81.92 56.61 85.88 52.65 C 81.95 48.73 78.03 44.80 74.10 40.88 C 73.71 41.21 72.93 41.87 72.53 42.21 C 71.99 43.86 71.74 45.59 71.60 47.32 C 69.64 47.32 67.68 47.32 65.72 47.33 C 65.71 45.34 65.70 43.36 65.69 41.38 C 67.41 41.27 69.10 40.99 70.75 40.50 C 71.09 40.11 71.76 39.31 72.10 38.92 C 68.20 34.98 64.29 31.04 60.34 27.14 Z" />
<path fill="#000000" opacity="1.00" d=" M 60.34 30.92 C 62.90 33.49 65.48 36.04 68.04 38.61 C 66.36 38.61 64.68 38.61 63.00 38.61 C 63.00 42.41 63.00 46.20 63.00 50.00 C 66.81 50.00 70.61 50.00 74.42 50.00 C 74.41 48.33 74.41 46.67 74.40 45.01 C 76.98 47.54 79.55 50.10 82.09 52.67 C 79.54 55.20 77.06 57.81 74.39 60.21 C 74.39 58.59 74.41 56.97 74.42 55.35 C 70.62 55.31 66.81 55.33 63.01 55.32 C 62.99 59.13 63.00 62.93 63.01 66.74 C 64.67 66.74 66.34 66.74 68.01 66.74 C 65.46 69.31 62.91 71.86 60.33 74.40 C 57.80 71.84 55.23 69.31 52.72 66.74 C 54.36 66.73 56.00 66.73 57.65 66.74 C 57.65 62.93 57.65 59.13 57.64 55.33 C 53.86 55.32 50.08 55.33 46.30 55.32 C 46.29 56.96 46.27 58.60 46.26 60.24 C 43.65 57.77 41.16 55.18 38.60 52.67 C 41.17 50.11 43.73 47.54 46.29 44.98 C 46.29 46.65 46.29 48.32 46.28 49.99 C 50.07 50.00 53.86 50.00 57.65 49.99 C 57.65 46.19 57.65 42.40 57.64 38.60 C 56.00 38.62 54.36 38.63 52.72 38.64 C 55.21 36.01 57.79 33.49 60.34 30.92 Z" />
</g>
<g id="#787978ff">
<path fill="#787978" opacity="1.00" d=" M 33.23 10.26 C 48.48 9.66 63.78 10.18 79.05 9.99 C 87.34 9.68 95.78 12.37 102.01 17.92 C 108.90 23.88 113.03 32.87 112.97 41.98 C 113.01 60.67 113.02 79.36 112.97 98.05 C 113.11 110.08 105.70 121.74 94.82 126.82 C 89.95 129.28 84.45 130.10 79.04 130.01 C 64.34 129.91 49.63 130.15 34.93 129.89 C 19.02 129.24 5.24 115.01 5.05 99.10 C 4.97 79.72 4.97 60.34 5.05 40.97 C 5.23 25.62 17.96 11.76 33.23 10.26 M 33.21 12.33 C 19.04 13.78 7.20 26.78 7.12 41.03 C 7.04 60.36 7.03 79.70 7.12 99.03 C 7.17 114.25 20.73 127.78 35.93 127.88 C 50.95 127.99 65.97 127.93 80.99 127.91 C 91.74 128.05 102.28 121.83 107.28 112.31 C 109.97 107.67 111.03 102.28 110.93 96.97 C 110.90 78.32 111.00 59.67 110.88 41.03 C 110.86 25.75 97.23 12.15 81.96 12.12 C 65.71 12.16 49.44 11.77 33.21 12.33 Z" />
</g>
<g id="#f8fcf8ff">
<path fill="#f8fcf8" opacity="1.00" d=" M 60.34 27.14 C 64.29 31.04 68.20 34.98 72.10 38.92 C 71.76 39.31 71.09 40.11 70.75 40.50 C 69.10 40.99 67.41 41.27 65.69 41.38 C 65.70 43.36 65.71 45.34 65.72 47.33 C 67.68 47.32 69.64 47.32 71.60 47.32 C 71.74 45.59 71.99 43.86 72.53 42.21 C 72.93 41.87 73.71 41.21 74.10 40.88 C 78.03 44.80 81.95 48.73 85.88 52.65 C 81.92 56.61 77.96 60.57 74.00 64.53 C 71.91 62.90 71.38 60.53 71.71 58.00 C 69.71 58.00 67.71 58.00 65.71 58.00 C 65.71 59.97 65.71 61.93 65.71 63.90 C 68.13 63.86 70.58 64.41 72.23 66.33 C 68.26 70.26 64.30 74.21 60.37 78.19 C 56.38 74.23 52.39 70.27 48.44 66.25 C 50.10 64.21 52.48 63.68 55.00 64.00 C 55.00 62.00 55.00 60.00 55.00 58.00 C 53.00 58.00 50.99 58.00 48.99 58.00 C 49.00 59.30 49.01 60.60 49.02 61.90 C 48.23 62.77 47.45 63.64 46.65 64.50 C 42.72 60.53 38.72 56.62 34.82 52.61 C 38.75 48.75 42.66 44.85 46.52 40.91 C 46.90 41.23 47.68 41.86 48.07 42.18 C 48.28 42.76 48.71 43.92 48.93 44.49 C 48.96 45.20 49.00 46.62 49.03 47.33 C 51.02 47.32 53.01 47.32 55.00 47.33 C 55.00 45.31 55.00 43.30 55.00 41.28 C 52.48 41.59 50.10 41.10 48.47 39.01 C 52.42 35.05 56.38 31.09 60.34 27.14 M 60.34 30.92 C 57.79 33.49 55.21 36.01 52.72 38.64 C 54.36 38.63 56.00 38.62 57.64 38.60 C 57.65 42.40 57.65 46.19 57.65 49.99 C 53.86 50.00 50.07 50.00 46.28 49.99 C 46.29 48.32 46.29 46.65 46.29 44.98 C 43.73 47.54 41.17 50.11 38.60 52.67 C 41.16 55.18 43.65 57.77 46.26 60.24 C 46.27 58.60 46.29 56.96 46.30 55.32 C 50.08 55.33 53.86 55.32 57.64 55.33 C 57.65 59.13 57.65 62.93 57.65 66.74 C 56.00 66.73 54.36 66.73 52.72 66.74 C 55.23 69.31 57.80 71.84 60.33 74.40 C 62.91 71.86 65.46 69.31 68.01 66.74 C 66.34 66.74 64.67 66.74 63.01 66.74 C 63.00 62.93 62.99 59.13 63.01 55.32 C 66.81 55.33 70.62 55.31 74.42 55.35 C 74.41 56.97 74.39 58.59 74.39 60.21 C 77.06 57.81 79.54 55.20 82.09 52.67 C 79.55 50.10 76.98 47.54 74.40 45.01 C 74.41 46.67 74.41 48.33 74.42 50.00 C 70.61 50.00 66.81 50.00 63.00 50.00 C 63.00 46.20 63.00 42.41 63.00 38.61 C 64.68 38.61 66.36 38.61 68.04 38.61 C 65.48 36.04 62.90 33.49 60.34 30.92 Z" />
</g>
</svg>
