<?xml version="1.0" encoding="UTF-8" ?>
<!DOCTYPE svg PUBLIC "-//W3C//DTD SVG 1.1//EN" "http://www.w3.org/Graphics/SVG/1.1/DTD/svg11.dtd">
<svg width="200px" height="200px" viewBox="0 0 200 200" version="1.1" xmlns="http://www.w3.org/2000/svg">
<g id="#000000ff">
<path fill="#000000" opacity="1.00" d=" M 0.00 0.00 L 200.00 0.00 L 200.00 200.00 L 0.00 200.00 L 0.00 0.00 M 77.95 43.98 C 62.86 46.71 49.28 56.22 41.23 69.22 C 32.92 82.34 30.23 98.86 33.96 113.93 C 37.67 129.95 48.68 144.13 63.40 151.50 C 77.23 158.64 94.19 159.41 108.57 153.43 C 121.15 148.53 131.57 138.66 137.65 126.66 C 144.31 113.73 145.67 98.33 141.82 84.34 C 127.99 88.37 114.19 92.48 100.39 96.57 C 101.57 100.70 102.70 104.83 103.91 108.95 C 109.90 107.18 115.89 105.39 121.88 103.65 C 120.50 118.15 109.40 131.37 94.93 134.15 C 80.34 137.58 64.43 129.36 58.02 115.98 C 50.71 101.84 54.56 83.03 67.07 73.11 C 75.06 66.38 86.22 64.09 96.33 66.46 C 99.88 59.73 103.62 53.11 107.08 46.33 C 97.79 43.01 87.64 42.02 77.95 43.98 M 157.35 140.40 C 151.72 142.09 150.24 150.46 155.10 153.87 C 159.55 157.82 167.36 153.96 167.09 148.06 C 167.64 143.01 162.14 138.66 157.35 140.40 Z" />
</g>
<g id="#707070ff">
<path fill="#707070" opacity="1.00" d=" M 77.95 43.98 C 87.64 42.02 97.79 43.01 107.08 46.33 C 103.62 53.11 99.88 59.73 96.33 66.46 C 86.22 64.09 75.06 66.38 67.07 73.11 C 54.56 83.03 50.71 101.84 58.02 115.98 C 64.43 129.36 80.34 137.58 94.93 134.15 C 109.40 131.37 120.50 118.15 121.88 103.65 C 115.89 105.39 109.90 107.18 103.91 108.95 C 102.70 104.83 101.57 100.70 100.39 96.57 C 114.19 92.48 127.99 88.37 141.82 84.34 C 145.67 98.33 144.31 113.73 137.65 126.66 C 131.57 138.66 121.15 148.53 108.57 153.43 C 94.19 159.41 77.23 158.64 63.40 151.50 C 48.68 144.13 37.67 129.95 33.96 113.93 C 30.23 98.86 32.92 82.34 41.23 69.22 C 49.28 56.22 62.86 46.71 77.95 43.98 Z" />
<path fill="#707070" opacity="1.00" d=" M 157.35 140.40 C 162.14 138.66 167.64 143.01 167.09 148.06 C 167.36 153.96 159.55 157.82 155.10 153.87 C 150.24 150.46 151.72 142.09 157.35 140.40 Z" />
</g>
</svg>
