<?xml version="1.0" encoding="UTF-8" ?>
<!DOCTYPE svg PUBLIC "-//W3C//DTD SVG 1.1//EN" "http://www.w3.org/Graphics/SVG/1.1/DTD/svg11.dtd">
<svg width="117px" height="140px" viewBox="0 0 117 140" version="1.1" xmlns="http://www.w3.org/2000/svg">
<g id="#181818ff">
<path fill="#181818" opacity="1.00" d=" M 0.00 0.00 L 117.00 0.00 L 117.00 140.00 L 0.00 140.00 L 0.00 0.00 M 54.16 13.92 C 53.79 16.62 54.11 19.35 54.01 22.07 C 53.98 24.78 54.01 27.49 54.00 30.20 C 53.98 32.84 54.02 35.48 54.01 38.11 C 53.98 40.45 54.02 42.78 54.01 45.11 C 54.04 47.60 53.55 50.55 55.50 52.50 C 57.85 54.97 62.55 54.02 63.62 50.73 C 64.30 48.22 63.91 45.58 63.99 43.01 C 63.98 40.63 64.02 38.24 63.99 35.86 C 63.98 33.22 64.02 30.58 64.00 27.94 C 64.00 25.34 64.01 22.74 63.99 20.14 C 63.81 17.09 64.84 13.15 61.98 11.03 C 59.28 8.81 54.78 10.52 54.16 13.92 M 25.49 22.58 C 23.68 25.97 26.38 29.96 29.77 30.92 C 28.73 31.89 27.76 32.93 27.14 34.21 C 24.79 38.17 23.25 42.56 22.48 47.09 C 22.06 49.41 22.06 51.76 21.99 54.11 C 22.16 58.64 23.19 63.10 24.88 67.30 C 26.55 71.36 29.02 75.06 32.01 78.27 C 38.92 85.79 49.13 90.17 59.35 89.93 C 61.80 90.13 64.31 89.85 66.66 89.09 C 70.35 88.42 73.86 87.04 77.17 85.29 C 77.47 85.54 78.07 86.04 78.37 86.29 C 83.13 89.58 89.78 89.85 94.71 86.78 C 101.24 83.04 103.84 74.10 100.45 67.40 C 99.17 64.98 97.34 62.84 95.03 61.35 C 96.24 55.86 96.28 50.13 95.06 44.64 C 94.78 43.35 94.42 42.07 93.72 40.92 C 97.80 39.67 95.36 33.19 91.33 35.17 C 89.59 31.96 87.43 28.89 84.66 26.49 C 82.88 25.26 80.60 28.21 82.35 29.62 C 84.91 32.41 87.23 35.44 88.86 38.87 C 90.21 42.15 91.07 45.56 91.75 49.03 C 92.32 52.60 91.58 56.23 91.63 59.75 L 91.58 59.81 C 85.93 57.81 79.23 59.80 75.48 64.44 C 72.22 68.25 71.26 73.70 72.70 78.47 C 73.19 79.74 73.67 81.03 74.42 82.18 C 71.85 83.12 69.32 85.10 66.48 84.68 C 68.40 81.56 64.37 77.61 61.28 79.41 C 58.51 80.59 58.43 84.39 60.48 86.31 C 51.85 86.02 42.99 83.34 36.71 77.19 L 36.50 77.24 C 33.33 74.05 30.63 70.39 28.81 66.27 L 28.71 66.30 C 27.47 63.14 26.66 59.84 26.16 56.48 C 25.93 53.35 26.05 50.20 26.51 47.09 C 27.29 43.44 28.44 39.83 30.43 36.64 C 31.73 33.69 34.43 31.50 35.79 28.76 C 37.66 25.95 37.16 21.69 34.09 19.93 C 31.22 17.75 26.80 19.38 25.49 22.58 Z" />
<path fill="#181818" opacity="1.00" d=" M 89.39 74.24 C 90.19 74.70 91.00 75.15 91.82 75.59 C 92.61 76.11 93.39 76.62 94.18 77.14 C 93.35 80.21 90.33 76.64 88.59 76.10 L 88.32 75.95 C 88.59 75.52 89.12 74.67 89.39 74.24 Z" />
</g>
<g id="#f8d470ff">
<path fill="#f8d470" opacity="1.00" d=" M 54.16 13.92 C 54.78 10.52 59.28 8.81 61.98 11.03 C 64.84 13.15 63.81 17.09 63.99 20.14 C 60.76 21.25 57.37 21.63 54.01 22.07 C 54.11 19.35 53.79 16.62 54.16 13.92 Z" />
</g>
<g id="#50dc90ff">
<path fill="#50dc90" opacity="1.00" d=" M 25.49 22.58 C 26.80 19.38 31.22 17.75 34.09 19.93 C 37.16 21.69 37.66 25.95 35.79 28.76 C 34.15 30.28 32.04 31.19 29.77 30.92 C 26.38 29.96 23.68 25.97 25.49 22.58 Z" />
</g>
<g id="#f8bc60ff">
<path fill="#f8bc60" opacity="1.00" d=" M 54.01 22.07 C 57.37 21.63 60.76 21.25 63.99 20.14 C 64.01 22.74 64.00 25.34 64.00 27.94 C 60.61 28.43 57.27 29.19 54.00 30.20 C 54.01 27.49 53.98 24.78 54.01 22.07 Z" />
</g>
<g id="#9060f0ff">
<path fill="#9060f0" opacity="1.00" d=" M 82.35 29.62 C 80.60 28.21 82.88 25.26 84.66 26.49 C 87.43 28.89 89.59 31.96 91.33 35.17 C 90.63 36.54 90.07 37.97 89.57 39.42 L 88.86 38.87 C 87.23 35.44 84.91 32.41 82.35 29.62 Z" />
</g>
<g id="#f8ac50ff">
<path fill="#f8ac50" opacity="1.00" d=" M 54.00 30.20 C 57.27 29.19 60.61 28.43 64.00 27.94 C 64.02 30.58 63.98 33.22 63.99 35.86 C 60.65 36.56 57.32 37.32 54.01 38.11 C 54.02 35.48 53.98 32.84 54.00 30.20 Z" />
</g>
<g id="#583898ff">
<path fill="#583898" opacity="1.00" d=" M 29.77 30.92 C 32.04 31.19 34.15 30.28 35.79 28.76 C 34.43 31.50 31.73 33.69 30.43 36.64 C 29.67 35.42 28.58 34.50 27.14 34.21 C 27.76 32.93 28.73 31.89 29.77 30.92 Z" />
</g>
<g id="#7858e8ff">
<path fill="#7858e8" opacity="1.00" d=" M 27.14 34.21 C 28.58 34.50 29.67 35.42 30.43 36.64 C 28.44 39.83 27.29 43.44 26.51 47.09 C 25.50 47.09 23.49 47.09 22.48 47.09 C 23.25 42.56 24.79 38.17 27.14 34.21 Z" />
</g>
<g id="#d860d0ff">
<path fill="#d860d0" opacity="1.00" d=" M 91.33 35.17 C 95.36 33.19 97.80 39.67 93.72 40.92 C 92.20 40.86 90.77 40.36 89.57 39.42 C 90.07 37.97 90.63 36.54 91.33 35.17 Z" />
</g>
<g id="#f89c48ff">
<path fill="#f89c48" opacity="1.00" d=" M 54.01 38.11 C 57.32 37.32 60.65 36.56 63.99 35.86 C 64.02 38.24 63.98 40.63 63.99 43.01 C 60.67 43.77 57.35 44.47 54.01 45.11 C 54.02 42.78 53.98 40.45 54.01 38.11 Z" />
</g>
<g id="#513c9dff">
<path fill="#513c9d" opacity="1.00" d=" M 88.86 38.87 L 89.57 39.42 C 90.77 40.36 92.20 40.86 93.72 40.92 C 94.42 42.07 94.78 43.35 95.06 44.64 C 92.43 44.71 91.16 46.49 91.75 49.03 C 91.07 45.56 90.21 42.15 88.86 38.87 Z" />
</g>
<g id="#f88438ff">
<path fill="#f88438" opacity="1.00" d=" M 54.01 45.11 C 57.35 44.47 60.67 43.77 63.99 43.01 C 63.91 45.58 64.30 48.22 63.62 50.73 C 62.55 54.02 57.85 54.97 55.50 52.50 C 53.55 50.55 54.04 47.60 54.01 45.11 Z" />
</g>
<g id="#6050e0ff">
<path fill="#6050e0" opacity="1.00" d=" M 91.75 49.03 C 91.16 46.49 92.43 44.71 95.06 44.64 C 96.28 50.13 96.24 55.86 95.03 61.35 C 93.91 60.77 92.78 60.24 91.63 59.75 C 91.58 56.23 92.32 52.60 91.75 49.03 Z" />
<path fill="#6050e0" opacity="1.00" d=" M 22.48 47.09 C 23.49 47.09 25.50 47.09 26.51 47.09 C 26.05 50.20 25.93 53.35 26.16 56.48 C 24.68 55.86 23.28 55.07 21.99 54.11 C 22.06 51.76 22.06 49.41 22.48 47.09 Z" />
</g>
<g id="#5048d8ff">
<path fill="#5048d8" opacity="1.00" d=" M 21.99 54.11 C 23.28 55.07 24.68 55.86 26.16 56.48 C 26.66 59.84 27.47 63.14 28.71 66.30 C 27.43 66.63 26.16 66.96 24.88 67.30 C 23.19 63.10 22.16 58.64 21.99 54.11 Z" />
</g>
<g id="#f8cc68ff">
<path fill="#f8cc68" opacity="1.00" d=" M 75.48 64.44 C 79.23 59.80 85.93 57.81 91.58 59.81 C 90.48 60.96 89.30 62.03 88.06 63.03 C 86.50 59.87 85.45 64.25 85.98 65.81 C 81.44 69.92 77.41 74.55 72.70 78.47 C 71.26 73.70 72.22 68.25 75.48 64.44 Z" />
</g>
<g id="#f8ac58ff">
<path fill="#f8ac58" opacity="1.00" d=" M 91.58 59.81 L 91.63 59.75 C 92.78 60.24 93.91 60.77 95.03 61.35 C 97.34 62.84 99.17 64.98 100.45 67.40 C 97.51 70.06 94.86 73.03 91.82 75.59 C 91.00 75.15 90.19 74.70 89.39 74.24 C 89.00 74.00 88.24 73.54 87.86 73.30 C 88.00 69.88 87.99 66.45 88.06 63.03 C 89.30 62.03 90.48 60.96 91.58 59.81 Z" />
</g>
<g id="#2a2c59ff">
<path fill="#2a2c59" opacity="1.00" d=" M 85.98 65.81 C 85.45 64.25 86.50 59.87 88.06 63.03 C 87.99 66.45 88.00 69.88 87.86 73.30 C 88.24 73.54 89.00 74.00 89.39 74.24 C 89.12 74.67 88.59 75.52 88.32 75.95 C 84.90 73.71 86.29 69.21 85.98 65.81 Z" />
</g>
<g id="#3840d0ff">
<path fill="#3840d0" opacity="1.00" d=" M 28.71 66.30 L 28.81 66.27 C 30.63 70.39 33.33 74.05 36.50 77.24 C 35.00 77.58 33.50 77.89 32.01 78.27 C 29.02 75.06 26.55 71.36 24.88 67.30 C 26.16 66.96 27.43 66.63 28.71 66.30 Z" />
</g>
<g id="#f8b458ff">
<path fill="#f8b458" opacity="1.00" d=" M 72.70 78.47 C 77.41 74.55 81.44 69.92 85.98 65.81 C 86.29 69.21 84.90 73.71 88.32 75.95 L 88.59 76.10 C 84.77 79.06 81.49 82.62 78.37 86.29 C 78.07 86.04 77.47 85.54 77.17 85.29 C 76.18 84.32 75.23 83.30 74.42 82.18 C 73.67 81.03 73.19 79.74 72.70 78.47 Z" />
</g>
<g id="#f89448ff">
<path fill="#f89448" opacity="1.00" d=" M 91.82 75.59 C 94.86 73.03 97.51 70.06 100.45 67.40 C 103.84 74.10 101.24 83.04 94.71 86.78 C 89.78 89.85 83.13 89.58 78.37 86.29 C 81.49 82.62 84.77 79.06 88.59 76.10 C 90.33 76.64 93.35 80.21 94.18 77.14 C 93.39 76.62 92.61 76.11 91.82 75.59 Z" />
</g>
<g id="#2038c0ff">
<path fill="#2038c0" opacity="1.00" d=" M 36.50 77.24 L 36.71 77.19 C 42.99 83.34 51.85 86.02 60.48 86.31 C 60.51 86.32 60.57 86.33 60.60 86.34 C 59.83 87.40 59.41 88.60 59.35 89.93 C 49.13 90.17 38.92 85.79 32.01 78.27 C 33.50 77.89 35.00 77.58 36.50 77.24 Z" />
<path fill="#2038c0" opacity="1.00" d=" M 74.42 82.18 C 75.23 83.30 76.18 84.32 77.17 85.29 C 73.86 87.04 70.35 88.42 66.66 89.09 C 66.60 87.82 66.43 86.56 66.30 85.30 C 66.34 85.15 66.43 84.84 66.48 84.68 C 69.32 85.10 71.85 83.12 74.42 82.18 Z" />
</g>
<g id="#38bce8ff">
<path fill="#38bce8" opacity="1.00" d=" M 61.28 79.41 C 64.37 77.61 68.40 81.56 66.48 84.68 C 66.43 84.84 66.34 85.15 66.30 85.30 C 64.86 87.04 62.56 87.18 60.60 86.34 C 60.57 86.33 60.51 86.32 60.48 86.31 C 58.43 84.39 58.51 80.59 61.28 79.41 Z" />
</g>
<g id="#102078ff">
<path fill="#102078" opacity="1.00" d=" M 60.60 86.34 C 62.56 87.18 64.86 87.04 66.30 85.30 C 66.43 86.56 66.60 87.82 66.66 89.09 C 64.31 89.85 61.80 90.13 59.35 89.93 C 59.41 88.60 59.83 87.40 60.60 86.34 Z" />
</g>
</svg>
