<?xml version="1.0" encoding="UTF-8" ?>
<!DOCTYPE svg PUBLIC "-//W3C//DTD SVG 1.1//EN" "http://www.w3.org/Graphics/SVG/1.1/DTD/svg11.dtd">
<svg width="117px" height="140px" viewBox="0 0 117 140" version="1.1" xmlns="http://www.w3.org/2000/svg">
<g id="#000000ff">
<path fill="#000000" opacity="1.00" d=" M 0.00 0.00 L 117.00 0.00 L 117.00 140.00 L 0.00 140.00 L 0.00 0.00 M 33.17 10.22 C 17.92 11.78 5.19 25.62 5.02 40.96 C 4.99 60.31 4.99 79.66 5.01 99.00 C 5.15 114.96 18.94 129.23 34.88 129.93 C 50.59 130.08 66.30 129.99 82.01 129.98 C 97.98 129.85 112.28 116.01 112.93 100.05 C 113.09 80.70 112.95 61.34 113.01 41.98 C 113.06 33.34 109.35 24.77 103.06 18.85 C 96.98 12.95 88.46 9.76 80.01 9.98 C 64.40 10.17 48.77 9.70 33.17 10.22 Z" />
<path fill="#000000" opacity="1.00" d=" M 30.47 12.71 C 33.59 11.99 36.82 11.96 40.01 11.99 C 54.34 12.06 68.68 11.89 83.01 12.08 C 97.87 12.73 110.81 26.02 110.96 40.92 C 111.02 60.31 111.03 79.70 110.96 99.09 C 110.82 113.96 97.89 127.28 83.04 127.90 C 67.36 128.11 51.67 127.97 35.99 127.97 C 20.72 127.84 7.14 114.30 7.03 99.02 C 6.98 79.67 6.98 60.32 7.03 40.97 C 7.22 27.66 17.47 15.43 30.47 12.71 M 41.99 41.04 C 39.15 43.95 34.05 45.47 33.53 50.00 C 34.05 54.52 39.12 56.04 41.95 58.92 C 43.75 60.95 46.55 60.65 48.88 59.90 C 49.62 57.33 50.19 54.69 50.04 52.00 C 52.03 52.00 54.01 52.00 56.00 52.00 C 56.00 51.25 56.00 49.75 56.00 49.00 C 54.00 49.00 52.01 49.00 50.01 49.00 C 50.20 45.97 49.81 42.96 48.86 40.08 C 46.56 39.38 43.78 39.02 41.99 41.04 M 68.00 41.24 C 68.00 47.09 68.00 52.93 68.00 58.78 C 70.12 59.64 72.45 61.53 74.72 59.91 C 77.37 57.84 80.11 55.86 82.67 53.67 C 84.99 51.95 84.99 48.05 82.67 46.33 C 80.10 44.13 77.36 42.15 74.70 40.07 C 72.46 38.48 70.07 40.32 68.00 41.24 M 57.00 49.00 C 57.00 49.75 57.00 51.25 57.00 52.00 C 57.75 52.00 59.25 52.00 60.00 52.00 C 60.00 51.25 60.00 49.75 60.00 49.00 C 59.25 49.00 57.75 49.00 57.00 49.00 M 61.00 49.00 C 61.00 49.75 61.00 51.25 61.00 52.00 C 63.00 52.00 65.00 52.00 67.00 52.00 C 67.00 51.25 67.00 49.75 67.00 49.00 C 65.00 49.00 63.00 49.00 61.00 49.00 Z" />
<path fill="#000000" opacity="1.00" d=" M 37.01 50.00 C 40.00 47.67 43.01 45.35 46.00 43.01 C 46.00 47.66 46.01 52.31 45.99 56.96 C 42.99 54.65 40.00 52.33 37.01 50.00 Z" />
<path fill="#000000" opacity="1.00" d=" M 72.00 43.04 C 75.01 45.34 78.00 47.68 80.99 50.00 C 78.01 52.33 75.01 54.64 72.02 56.97 C 71.98 52.33 72.01 47.68 72.00 43.04 Z" />
</g>
<g id="#717271ff">
<path fill="#717271" opacity="1.00" d=" M 33.17 10.22 C 48.77 9.70 64.40 10.17 80.01 9.98 C 88.46 9.76 96.98 12.95 103.06 18.85 C 109.35 24.77 113.06 33.34 113.01 41.98 C 112.95 61.34 113.09 80.70 112.93 100.05 C 112.28 116.01 97.98 129.85 82.01 129.98 C 66.30 129.99 50.59 130.08 34.88 129.93 C 18.94 129.23 5.15 114.96 5.01 99.00 C 4.99 79.66 4.99 60.31 5.02 40.96 C 5.19 25.62 17.92 11.78 33.17 10.22 M 30.47 12.71 C 17.47 15.43 7.22 27.66 7.03 40.97 C 6.98 60.32 6.98 79.67 7.03 99.02 C 7.14 114.30 20.72 127.84 35.99 127.97 C 51.67 127.97 67.36 128.11 83.04 127.90 C 97.89 127.28 110.82 113.96 110.96 99.09 C 111.03 79.70 111.02 60.31 110.96 40.92 C 110.81 26.02 97.87 12.73 83.01 12.08 C 68.68 11.89 54.34 12.06 40.01 11.99 C 36.82 11.96 33.59 11.99 30.47 12.71 Z" />
</g>
<g id="#f8fcf8ff">
<path fill="#f8fcf8" opacity="1.00" d=" M 41.99 41.04 C 43.78 39.02 46.56 39.38 48.86 40.08 C 49.81 42.96 50.20 45.97 50.01 49.00 C 52.01 49.00 54.00 49.00 56.00 49.00 C 56.00 49.75 56.00 51.25 56.00 52.00 C 54.01 52.00 52.03 52.00 50.04 52.00 C 50.19 54.69 49.62 57.33 48.88 59.90 C 46.55 60.65 43.75 60.95 41.95 58.92 C 39.12 56.04 34.05 54.52 33.53 50.00 C 34.05 45.47 39.15 43.95 41.99 41.04 M 37.01 50.00 C 40.00 52.33 42.99 54.65 45.99 56.96 C 46.01 52.31 46.00 47.66 46.00 43.01 C 43.01 45.35 40.00 47.67 37.01 50.00 Z" />
<path fill="#f8fcf8" opacity="1.00" d=" M 68.00 41.24 C 70.07 40.32 72.46 38.48 74.70 40.07 C 77.36 42.15 80.10 44.13 82.67 46.33 C 84.99 48.05 84.99 51.95 82.67 53.67 C 80.11 55.86 77.37 57.84 74.72 59.91 C 72.45 61.53 70.12 59.64 68.00 58.78 C 68.00 52.93 68.00 47.09 68.00 41.24 M 72.00 43.04 C 72.01 47.68 71.98 52.33 72.02 56.97 C 75.01 54.64 78.01 52.33 80.99 50.00 C 78.00 47.68 75.01 45.34 72.00 43.04 Z" />
<path fill="#f8fcf8" opacity="1.00" d=" M 57.00 49.00 C 57.75 49.00 59.25 49.00 60.00 49.00 C 60.00 49.75 60.00 51.25 60.00 52.00 C 59.25 52.00 57.75 52.00 57.00 52.00 C 57.00 51.25 57.00 49.75 57.00 49.00 Z" />
<path fill="#f8fcf8" opacity="1.00" d=" M 61.00 49.00 C 63.00 49.00 65.00 49.00 67.00 49.00 C 67.00 49.75 67.00 51.25 67.00 52.00 C 65.00 52.00 63.00 52.00 61.00 52.00 C 61.00 51.25 61.00 49.75 61.00 49.00 Z" />
</g>
</svg>
