<?xml version="1.0" encoding="UTF-8" ?>
<!DOCTYPE svg PUBLIC "-//W3C//DTD SVG 1.1//EN" "http://www.w3.org/Graphics/SVG/1.1/DTD/svg11.dtd">
<svg width="117px" height="140px" viewBox="0 0 117 140" version="1.1" xmlns="http://www.w3.org/2000/svg">
<g id="#181818ff">
<path fill="#181818" opacity="1.00" d=" M 0.00 0.00 L 117.00 0.00 L 117.00 140.00 L 0.00 140.00 L 0.00 0.00 M 25.28 17.37 C 22.99 19.88 24.20 23.40 26.03 25.78 C 28.43 26.86 31.47 27.68 33.62 25.62 C 36.48 23.65 36.26 19.89 34.91 17.09 L 34.82 17.19 C 32.22 14.56 27.57 14.10 25.28 17.37 M 36.71 26.57 C 31.07 31.58 27.71 38.76 27.89 46.36 C 22.16 47.93 18.41 53.63 17.15 59.24 L 16.98 59.21 C 16.86 63.18 17.54 67.13 19.27 70.72 L 19.43 70.72 C 23.21 77.28 31.00 79.64 38.18 79.04 C 39.93 79.75 41.79 79.79 43.52 78.97 C 57.38 78.84 71.25 79.13 85.11 78.85 C 92.02 78.69 97.69 73.58 100.30 67.46 C 101.13 63.36 101.17 59.11 99.72 55.13 C 97.61 51.11 94.24 48.00 90.22 45.94 C 89.51 43.99 88.75 42.07 87.95 40.15 L 88.25 39.48 C 87.88 39.51 87.13 39.55 86.76 39.58 C 87.78 37.50 88.16 35.20 87.17 33.03 L 87.13 33.07 C 84.63 31.40 81.00 31.92 79.99 35.03 C 78.01 35.18 76.03 35.32 74.04 35.42 C 73.51 34.43 73.00 33.44 72.50 32.43 C 69.20 27.65 64.58 23.60 58.89 22.05 C 51.33 19.57 42.81 21.59 36.71 26.57 Z" />
<path fill="#181818" opacity="1.00" d=" M 37.46 31.22 C 41.30 27.42 46.55 24.98 52.00 25.06 C 58.18 24.91 64.09 28.06 67.93 32.81 C 69.45 35.23 70.68 37.81 71.90 40.38 C 74.81 39.67 77.76 39.15 80.70 38.58 C 81.21 38.95 82.23 39.70 82.74 40.08 C 83.91 41.66 84.96 43.33 85.84 45.10 C 85.95 46.30 86.06 47.51 86.18 48.71 C 90.41 50.36 94.32 53.05 96.31 57.27 C 97.24 61.00 97.06 64.96 95.48 68.49 C 92.67 72.53 88.08 75.29 83.05 74.99 C 69.96 74.90 56.84 75.27 43.76 74.77 C 41.85 74.26 39.91 74.35 38.00 74.72 C 32.98 75.79 27.71 74.22 24.07 70.63 C 21.78 67.52 20.81 63.69 20.95 59.86 C 21.84 57.33 22.88 54.72 24.86 52.83 C 26.86 50.93 29.50 49.97 31.84 48.60 C 31.88 48.19 31.95 47.36 31.99 46.95 C 31.79 41.22 33.56 35.50 37.46 31.22 M 53.42 44.39 C 51.41 46.57 48.90 48.38 47.52 51.06 C 47.91 52.47 49.25 52.83 50.48 53.18 C 51.36 53.12 53.12 53.00 54.01 52.95 C 54.01 54.64 54.01 56.34 54.01 58.04 C 54.02 60.57 53.99 63.11 53.82 65.63 C 55.49 67.29 57.90 67.10 60.07 67.05 C 61.35 66.90 63.04 67.24 63.78 65.88 C 64.17 63.14 63.99 60.36 63.99 57.61 C 63.99 56.10 63.99 54.60 64.00 53.09 C 66.42 52.94 69.31 53.47 70.84 51.08 C 69.64 49.74 68.47 48.36 67.25 47.04 C 65.66 45.52 64.10 43.99 62.63 42.37 C 61.51 41.34 60.41 40.26 59.04 39.57 C 56.74 40.60 55.22 42.72 53.42 44.39 Z" />
</g>
<g id="#e894e0ff">
<path fill="#e894e0" opacity="1.00" d=" M 25.28 17.37 C 27.57 14.10 32.22 14.56 34.82 17.19 C 32.12 20.27 29.18 23.15 26.03 25.78 C 24.20 23.40 22.99 19.88 25.28 17.37 Z" />
</g>
<g id="#e064d0ff">
<path fill="#e064d0" opacity="1.00" d=" M 34.82 17.19 L 34.91 17.09 C 36.26 19.89 36.48 23.65 33.62 25.62 C 31.47 27.68 28.43 26.86 26.03 25.78 C 29.18 23.15 32.12 20.27 34.82 17.19 Z" />
</g>
<g id="#9060f0ff">
<path fill="#9060f0" opacity="1.00" d=" M 36.71 26.57 C 42.81 21.59 51.33 19.57 58.89 22.05 C 64.58 23.60 69.20 27.65 72.50 32.43 C 70.98 32.57 69.45 32.69 67.93 32.81 C 64.09 28.06 58.18 24.91 52.00 25.06 C 46.55 24.98 41.30 27.42 37.46 31.22 C 37.22 29.67 36.97 28.12 36.71 26.57 Z" />
</g>
<g id="#7054e8ff">
<path fill="#7054e8" opacity="1.00" d=" M 27.89 46.36 C 27.71 38.76 31.07 31.58 36.71 26.57 C 36.97 28.12 37.22 29.67 37.46 31.22 C 33.56 35.50 31.79 41.22 31.99 46.95 C 30.62 46.73 29.26 46.51 27.89 46.36 Z" />
</g>
<g id="#f8c498ff">
<path fill="#f8c498" opacity="1.00" d=" M 79.99 35.03 C 81.00 31.92 84.63 31.40 87.13 33.07 C 85.25 35.16 83.24 37.20 80.75 38.56 C 80.43 37.40 80.18 36.22 79.99 35.03 Z" />
</g>
<g id="#7058e8ff">
<path fill="#7058e8" opacity="1.00" d=" M 67.93 32.81 C 69.45 32.69 70.98 32.57 72.50 32.43 C 73.00 33.44 73.51 34.43 74.04 35.42 C 76.03 35.32 78.01 35.18 79.99 35.03 C 80.18 36.22 80.43 37.40 80.75 38.56 L 80.70 38.58 C 77.76 39.15 74.81 39.67 71.90 40.38 C 70.68 37.81 69.45 35.23 67.93 32.81 Z" />
</g>
<g id="#f09ca0ff">
<path fill="#f09ca0" opacity="1.00" d=" M 87.13 33.07 L 87.17 33.03 C 88.16 35.20 87.78 37.50 86.76 39.58 C 85.42 39.71 84.08 39.91 82.74 40.08 C 82.23 39.70 81.21 38.95 80.70 38.58 L 80.75 38.56 C 83.24 37.20 85.25 35.16 87.13 33.07 Z" />
</g>
<g id="#41338bff">
<path fill="#41338b" opacity="1.00" d=" M 82.74 40.08 C 84.08 39.91 85.42 39.71 86.76 39.58 C 87.13 39.55 87.88 39.51 88.25 39.48 L 87.95 40.15 C 87.22 41.79 86.49 43.43 85.84 45.10 C 84.96 43.33 83.91 41.66 82.74 40.08 Z" />
</g>
<g id="#f8c868ff">
<path fill="#f8c868" opacity="1.00" d=" M 53.42 44.39 C 55.22 42.72 56.74 40.60 59.04 39.57 C 60.41 40.26 61.51 41.34 62.63 42.37 C 58.43 45.80 54.27 49.29 50.48 53.18 C 49.25 52.83 47.91 52.47 47.52 51.06 C 48.90 48.38 51.41 46.57 53.42 44.39 Z" />
</g>
<g id="#584cd8ff">
<path fill="#584cd8" opacity="1.00" d=" M 85.84 45.10 C 86.49 43.43 87.22 41.79 87.95 40.15 C 88.75 42.07 89.51 43.99 90.22 45.94 C 94.24 48.00 97.61 51.11 99.72 55.13 C 98.58 55.84 97.44 56.55 96.31 57.27 C 94.32 53.05 90.41 50.36 86.18 48.71 C 86.06 47.51 85.95 46.30 85.84 45.10 Z" />
</g>
<g id="#f8b858ff">
<path fill="#f8b858" opacity="1.00" d=" M 50.48 53.18 C 54.27 49.29 58.43 45.80 62.63 42.37 C 64.10 43.99 65.66 45.52 67.25 47.04 C 62.56 50.37 58.09 53.99 54.01 58.04 C 54.01 56.34 54.01 54.64 54.01 52.95 C 53.12 53.00 51.36 53.12 50.48 53.18 Z" />
</g>
<g id="#5048d8ff">
<path fill="#5048d8" opacity="1.00" d=" M 17.15 59.24 C 18.41 53.63 22.16 47.93 27.89 46.36 C 29.26 46.51 30.62 46.73 31.99 46.95 C 31.95 47.36 31.88 48.19 31.84 48.60 C 29.50 49.97 26.86 50.93 24.86 52.83 C 22.88 54.72 21.84 57.33 20.95 59.86 C 19.68 59.65 18.42 59.45 17.15 59.24 Z" />
</g>
<g id="#f8a450ff">
<path fill="#f8a450" opacity="1.00" d=" M 54.01 58.04 C 58.09 53.99 62.56 50.37 67.25 47.04 C 68.47 48.36 69.64 49.74 70.84 51.08 C 69.31 53.47 66.42 52.94 64.00 53.09 C 63.99 54.60 63.99 56.10 63.99 57.61 C 60.61 60.29 57.15 62.88 53.82 65.63 C 53.99 63.11 54.02 60.57 54.01 58.04 Z" />
</g>
<g id="#3840d0ff">
<path fill="#3840d0" opacity="1.00" d=" M 99.72 55.13 C 101.17 59.11 101.13 63.36 100.30 67.46 C 98.69 67.79 97.08 68.13 95.48 68.49 C 97.06 64.96 97.24 61.00 96.31 57.27 C 97.44 56.55 98.58 55.84 99.72 55.13 Z" />
</g>
<g id="#f89040ff">
<path fill="#f89040" opacity="1.00" d=" M 53.82 65.63 C 57.15 62.88 60.61 60.29 63.99 57.61 C 63.99 60.36 64.17 63.14 63.78 65.88 C 63.04 67.24 61.35 66.90 60.07 67.05 C 57.90 67.10 55.49 67.29 53.82 65.63 Z" />
</g>
<g id="#3040d0ff">
<path fill="#3040d0" opacity="1.00" d=" M 16.98 59.21 L 17.15 59.24 C 18.42 59.45 19.68 59.65 20.95 59.86 C 20.81 63.69 21.78 67.52 24.07 70.63 C 22.52 70.65 20.98 70.68 19.43 70.72 L 19.27 70.72 C 17.54 67.13 16.86 63.18 16.98 59.21 Z" />
</g>
<g id="#1834c8ff">
<path fill="#1834c8" opacity="1.00" d=" M 95.48 68.49 C 97.08 68.13 98.69 67.79 100.30 67.46 C 97.69 73.58 92.02 78.69 85.11 78.85 C 71.25 79.13 57.38 78.84 43.52 78.97 C 43.56 77.57 43.65 76.17 43.76 74.77 C 56.84 75.27 69.96 74.90 83.05 74.99 C 88.08 75.29 92.67 72.53 95.48 68.49 Z" />
<path fill="#1834c8" opacity="1.00" d=" M 19.43 70.72 C 20.98 70.68 22.52 70.65 24.07 70.63 C 27.71 74.22 32.98 75.79 38.00 74.72 C 38.01 76.16 38.07 77.60 38.18 79.04 C 31.00 79.64 23.21 77.28 19.43 70.72 Z" />
</g>
<g id="#40b4c8ff">
<path fill="#40b4c8" opacity="1.00" d=" M 38.00 74.72 C 39.91 74.35 41.85 74.26 43.76 74.77 C 43.65 76.17 43.56 77.57 43.52 78.97 C 41.79 79.79 39.93 79.75 38.18 79.04 C 38.07 77.60 38.01 76.16 38.00 74.72 Z" />
</g>
</svg>
