<?xml version="1.0" encoding="UTF-8" ?>
<!DOCTYPE svg PUBLIC "-//W3C//DTD SVG 1.1//EN" "http://www.w3.org/Graphics/SVG/1.1/DTD/svg11.dtd">
<svg width="45px" height="45px" viewBox="0 0 45 45" version="1.1" xmlns="http://www.w3.org/2000/svg">
<g id="#000000ff">
<path fill="#000000" opacity="1.00" d=" M 0.00 0.00 L 45.00 0.00 L 45.00 45.00 L 0.00 45.00 L 0.00 0.00 M 19.42 10.50 C 13.31 11.93 10.27 18.02 9.28 23.72 C 10.28 26.00 11.01 28.42 12.35 30.53 C 15.55 35.18 22.01 37.28 27.30 35.28 C 32.76 33.49 36.67 27.74 36.06 21.98 C 36.39 13.73 26.98 7.71 19.42 10.50 Z" />
<path fill="#000000" opacity="1.00" d=" M 19.42 12.65 C 26.15 9.94 34.17 15.76 34.00 22.92 C 34.25 29.88 26.77 35.72 20.09 33.58 C 14.71 32.17 10.98 26.31 12.21 20.83 C 13.01 17.10 15.78 13.87 19.42 12.65 M 20.03 18.31 C 20.02 18.74 19.98 19.59 19.96 20.02 C 21.38 20.11 22.80 20.19 24.22 20.26 C 22.39 22.36 20.23 24.30 19.23 26.97 C 22.26 27.03 25.28 27.05 28.31 26.91 C 28.02 24.27 24.97 25.65 23.26 25.28 C 25.03 23.12 26.97 21.03 28.09 18.44 C 25.41 18.33 22.72 18.33 20.03 18.31 Z" />
</g>
<g id="#e6eae6ff">
<path fill="#e6eae6" opacity="1.00" d=" M 19.42 10.50 C 26.98 7.71 36.39 13.73 36.06 21.98 C 36.67 27.74 32.76 33.49 27.30 35.28 C 22.01 37.28 15.55 35.18 12.35 30.53 C 11.01 28.42 10.28 26.00 9.28 23.72 C 10.27 18.02 13.31 11.93 19.42 10.50 M 19.42 12.65 C 15.78 13.87 13.01 17.10 12.21 20.83 C 10.98 26.31 14.71 32.17 20.09 33.58 C 26.77 35.72 34.25 29.88 34.00 22.92 C 34.17 15.76 26.15 9.94 19.42 12.65 Z" />
<path fill="#e6eae6" opacity="1.00" d=" M 20.03 18.31 C 22.72 18.33 25.41 18.33 28.09 18.44 C 26.97 21.03 25.03 23.12 23.26 25.28 C 24.97 25.65 28.02 24.27 28.31 26.91 C 25.28 27.05 22.26 27.03 19.23 26.97 C 20.23 24.30 22.39 22.36 24.22 20.26 C 22.80 20.19 21.38 20.11 19.96 20.02 C 19.98 19.59 20.02 18.74 20.03 18.31 Z" />
</g>
</svg>
