<?xml version="1.0" encoding="UTF-8" ?>
<!DOCTYPE svg PUBLIC "-//W3C//DTD SVG 1.1//EN" "http://www.w3.org/Graphics/SVG/1.1/DTD/svg11.dtd">
<svg width="117px" height="140px" viewBox="0 0 117 140" version="1.1" xmlns="http://www.w3.org/2000/svg">
<g id="#000000ff">
<path fill="#000000" opacity="1.00" d=" M 0.00 0.00 L 117.00 0.00 L 117.00 140.00 L 0.00 140.00 L 0.00 0.00 M 33.20 10.23 C 17.94 11.77 5.21 25.61 5.02 40.96 C 4.98 60.33 4.98 79.69 5.02 99.06 C 5.19 114.99 18.97 129.22 34.88 129.92 C 50.57 130.09 66.28 129.99 81.97 129.97 C 98.32 129.88 112.85 115.39 112.97 99.04 C 113.02 79.68 113.02 60.32 112.97 40.96 C 112.76 28.20 104.00 16.22 92.00 11.96 C 84.66 9.08 76.67 10.22 68.99 10.00 C 57.06 10.15 45.12 9.70 33.20 10.23 Z" />
<path fill="#000000" opacity="1.00" d=" M 33.28 12.33 C 48.51 11.72 63.79 12.25 79.04 12.06 C 85.38 11.88 91.86 13.29 97.18 16.86 C 105.61 22.15 111.00 31.97 110.90 41.93 C 110.95 60.65 110.95 79.37 110.90 98.09 C 111.02 108.79 104.77 119.26 95.31 124.25 C 90.38 127.09 84.62 128.05 78.99 127.94 C 64.30 127.84 49.61 128.08 34.92 127.82 C 20.10 127.16 7.23 113.88 7.12 99.03 C 7.03 79.66 7.03 60.29 7.13 40.93 C 7.30 26.69 19.12 13.78 33.28 12.33 M 60.00 41.62 C 54.94 42.42 50.56 46.21 49.89 51.44 C 45.50 51.18 41.09 51.08 36.71 51.39 C 40.99 52.28 45.41 51.38 49.74 52.03 C 50.20 57.27 54.13 61.81 59.42 62.58 C 59.41 66.55 59.45 70.53 59.39 74.51 C 71.95 78.04 84.32 66.25 84.73 53.97 C 84.81 52.68 84.80 50.32 82.94 50.48 C 79.01 50.33 75.08 50.55 71.15 50.44 C 69.98 45.59 65.62 41.91 60.59 41.80 C 60.84 37.32 60.92 32.83 60.59 28.35 C 59.78 32.73 60.49 37.21 60.00 41.62 Z" />
<path fill="#000000" opacity="1.00" d=" M 51.46 55.00 C 49.33 49.08 54.86 42.33 61.04 42.93 C 63.78 42.78 65.96 44.59 68.11 46.00 C 70.66 49.70 71.01 55.24 67.56 58.51 C 63.13 63.73 53.24 61.70 51.46 55.00 Z" />
</g>
<g id="#737473ff">
<path fill="#737473" opacity="1.00" d=" M 33.20 10.23 C 45.12 9.70 57.06 10.15 68.99 10.00 C 76.67 10.22 84.66 9.08 92.00 11.96 C 104.00 16.22 112.76 28.20 112.97 40.96 C 113.02 60.32 113.02 79.68 112.97 99.04 C 112.85 115.39 98.32 129.88 81.97 129.97 C 66.28 129.99 50.57 130.09 34.88 129.92 C 18.97 129.22 5.19 114.99 5.02 99.06 C 4.98 79.69 4.98 60.33 5.02 40.96 C 5.21 25.61 17.94 11.77 33.20 10.23 M 33.28 12.33 C 19.12 13.78 7.30 26.69 7.13 40.93 C 7.03 60.29 7.03 79.66 7.12 99.03 C 7.23 113.88 20.10 127.16 34.92 127.82 C 49.61 128.08 64.30 127.84 78.99 127.94 C 84.62 128.05 90.38 127.09 95.31 124.25 C 104.77 119.26 111.02 108.79 110.90 98.09 C 110.95 79.37 110.95 60.65 110.90 41.93 C 111.00 31.97 105.61 22.15 97.18 16.86 C 91.86 13.29 85.38 11.88 79.04 12.06 C 63.79 12.25 48.51 11.72 33.28 12.33 Z" />
</g>
<g id="#f8fcf8ff">
<path fill="#f8fcf8" opacity="1.00" d=" M 60.00 41.62 C 60.49 37.21 59.78 32.73 60.59 28.35 C 60.92 32.83 60.84 37.32 60.59 41.80 C 65.62 41.91 69.98 45.59 71.15 50.44 C 75.08 50.55 79.01 50.33 82.94 50.48 C 84.80 50.32 84.81 52.68 84.73 53.97 C 84.32 66.25 71.95 78.04 59.39 74.51 C 59.45 70.53 59.41 66.55 59.42 62.58 C 54.13 61.81 50.20 57.27 49.74 52.03 C 45.41 51.38 40.99 52.28 36.71 51.39 C 41.09 51.08 45.50 51.18 49.89 51.44 C 50.56 46.21 54.94 42.42 60.00 41.62 M 51.46 55.00 C 53.24 61.70 63.13 63.73 67.56 58.51 C 71.01 55.24 70.66 49.70 68.11 46.00 C 65.96 44.59 63.78 42.78 61.04 42.93 C 54.86 42.33 49.33 49.08 51.46 55.00 Z" />
</g>
</svg>
