<?xml version="1.0" encoding="UTF-8" ?>
<!DOCTYPE svg PUBLIC "-//W3C//DTD SVG 1.1//EN" "http://www.w3.org/Graphics/SVG/1.1/DTD/svg11.dtd">
<svg width="117px" height="140px" viewBox="0 0 117 140" version="1.1" xmlns="http://www.w3.org/2000/svg">
<g id="#181818ff">
<path fill="#181818" opacity="1.00" d=" M 0.00 0.00 L 117.00 0.00 L 117.00 140.00 L 0.00 140.00 L 0.00 0.00 M 61.22 18.21 C 57.07 19.44 55.43 25.26 58.82 28.18 C 61.95 31.65 68.18 29.46 68.83 24.96 C 69.75 20.83 65.20 16.80 61.22 18.21 M 42.08 43.17 L 42.01 43.16 C 40.50 44.56 39.07 46.04 37.65 47.54 C 36.32 48.66 37.37 50.86 38.71 51.42 C 40.01 52.75 41.20 54.33 42.72 55.38 C 44.28 57.22 45.96 59.04 47.98 60.38 C 50.94 60.35 50.33 56.87 50.27 54.90 C 50.36 53.32 50.38 51.74 50.30 50.17 C 50.32 47.84 50.38 45.51 50.29 43.19 C 50.25 41.23 51.15 37.51 48.01 37.66 C 45.59 38.87 44.09 41.40 42.08 43.17 M 68.05 46.77 C 67.92 48.47 68.04 50.18 68.05 51.89 C 68.50 54.59 66.52 59.28 69.98 60.39 C 73.48 58.39 76.04 54.87 79.00 52.09 C 79.97 51.22 80.95 50.31 81.46 49.06 C 81.04 47.99 80.40 46.74 79.30 46.26 C 76.17 43.43 73.70 39.59 69.98 37.57 C 66.22 38.84 68.72 43.83 68.05 46.77 M 54.18 46.14 C 52.64 46.85 51.76 48.79 52.63 50.34 C 53.66 52.59 57.32 52.37 58.08 50.01 C 59.10 47.71 56.44 45.17 54.18 46.14 M 62.15 46.15 C 58.83 47.38 60.49 52.89 63.95 51.82 C 68.01 51.17 66.00 44.44 62.15 46.15 M 37.05 64.46 L 38.04 64.79 L 37.93 65.10 C 40.43 68.24 45.22 63.24 42.08 60.73 L 41.75 61.07 L 41.47 60.05 C 38.78 59.09 36.07 61.76 37.05 64.46 M 76.21 68.38 C 74.06 69.30 73.10 72.44 74.78 74.23 C 76.44 76.90 81.09 75.95 81.66 72.89 C 82.79 69.84 78.94 66.66 76.21 68.38 Z" />
<path fill="#181818" opacity="1.00" d=" M 41.94 49.01 C 43.32 47.65 44.46 45.89 46.23 45.02 C 46.31 46.76 46.31 48.50 46.33 50.24 C 46.32 50.87 46.29 52.11 46.28 52.74 C 44.85 52.96 44.33 51.13 43.29 50.46 C 42.95 50.09 42.28 49.37 41.94 49.01 Z" />
</g>
<g id="#60dc48ff">
<path fill="#60dc48" opacity="1.00" d=" M 61.22 18.21 C 65.20 16.80 69.75 20.83 68.83 24.96 C 68.18 29.46 61.95 31.65 58.82 28.18 C 55.43 25.26 57.07 19.44 61.22 18.21 Z" />
</g>
<g id="#8860f0ff">
<path fill="#8860f0" opacity="1.00" d=" M 42.08 43.17 C 44.09 41.40 45.59 38.87 48.01 37.66 C 51.15 37.51 50.25 41.23 50.29 43.19 C 47.57 43.56 44.79 43.74 42.08 43.17 Z" />
</g>
<g id="#8058f0ff">
<path fill="#8058f0" opacity="1.00" d=" M 68.05 46.77 C 68.72 43.83 66.22 38.84 69.98 37.57 C 73.70 39.59 76.17 43.43 79.30 46.26 C 77.78 46.52 76.26 46.82 74.76 47.14 C 73.85 46.23 72.92 45.33 71.96 44.48 C 71.96 45.05 71.96 46.21 71.96 46.78 C 70.66 46.76 69.36 46.76 68.05 46.77 Z" />
</g>
<g id="#6050e0ff">
<path fill="#6050e0" opacity="1.00" d=" M 42.01 43.16 L 42.08 43.17 C 44.79 43.74 47.57 43.56 50.29 43.19 C 50.38 45.51 50.32 47.84 50.30 50.17 C 49.31 50.19 47.32 50.23 46.33 50.24 C 46.31 48.50 46.31 46.76 46.23 45.02 C 44.46 45.89 43.32 47.65 41.94 49.01 C 42.28 49.37 42.95 50.09 43.29 50.46 C 41.76 50.77 40.24 51.09 38.71 51.42 C 37.37 50.86 36.32 48.66 37.65 47.54 C 39.07 46.04 40.50 44.56 42.01 43.16 Z" />
</g>
<g id="#1c1b22ff">
<path fill="#1c1b22" opacity="1.00" d=" M 71.96 44.48 C 72.92 45.33 73.85 46.23 74.76 47.14 C 75.18 47.61 76.02 48.56 76.44 49.03 C 75.93 49.57 74.92 50.64 74.42 51.18 C 73.72 51.82 73.04 52.49 72.35 53.12 L 71.90 52.38 C 71.99 50.51 72.04 48.65 71.96 46.78 C 71.96 46.21 71.96 45.05 71.96 44.48 Z" />
</g>
<g id="#f8b058ff">
<path fill="#f8b058" opacity="1.00" d=" M 54.18 46.14 C 56.44 45.17 59.10 47.71 58.08 50.01 C 57.32 52.37 53.66 52.59 52.63 50.34 C 51.76 48.79 52.64 46.85 54.18 46.14 Z" />
<path fill="#f8b058" opacity="1.00" d=" M 62.15 46.15 C 66.00 44.44 68.01 51.17 63.95 51.82 C 60.49 52.89 58.83 47.38 62.15 46.15 Z" />
</g>
<g id="#584ce0ff">
<path fill="#584ce0" opacity="1.00" d=" M 79.30 46.26 C 80.40 46.74 81.04 47.99 81.46 49.06 C 80.95 50.31 79.97 51.22 79.00 52.09 C 77.45 51.90 75.92 51.60 74.42 51.18 C 74.92 50.64 75.93 49.57 76.44 49.03 C 76.02 48.56 75.18 47.61 74.76 47.14 C 76.26 46.82 77.78 46.52 79.30 46.26 Z" />
<path fill="#584ce0" opacity="1.00" d=" M 68.05 46.77 C 69.36 46.76 70.66 46.76 71.96 46.78 C 72.04 48.65 71.99 50.51 71.90 52.38 C 70.61 52.21 69.33 52.05 68.05 51.89 C 68.04 50.18 67.92 48.47 68.05 46.77 Z" />
</g>
<g id="#4044d8ff">
<path fill="#4044d8" opacity="1.00" d=" M 46.33 50.24 C 47.32 50.23 49.31 50.19 50.30 50.17 C 50.38 51.74 50.36 53.32 50.27 54.90 C 47.75 54.79 45.22 54.94 42.72 55.38 C 41.20 54.33 40.01 52.75 38.71 51.42 C 40.24 51.09 41.76 50.77 43.29 50.46 C 44.33 51.13 44.85 52.96 46.28 52.74 C 46.29 52.11 46.32 50.87 46.33 50.24 Z" />
</g>
<g id="#3040d0ff">
<path fill="#3040d0" opacity="1.00" d=" M 72.35 53.12 C 73.04 52.49 73.72 51.82 74.42 51.18 C 75.92 51.60 77.45 51.90 79.00 52.09 C 76.04 54.87 73.48 58.39 69.98 60.39 C 66.52 59.28 68.50 54.59 68.05 51.89 C 69.33 52.05 70.61 52.21 71.90 52.38 L 72.35 53.12 Z" />
</g>
<g id="#283cd0ff">
<path fill="#283cd0" opacity="1.00" d=" M 42.72 55.38 C 45.22 54.94 47.75 54.79 50.27 54.90 C 50.33 56.87 50.94 60.35 47.98 60.38 C 45.96 59.04 44.28 57.22 42.72 55.38 Z" />
</g>
<g id="#e0b987ff">
<path fill="#e0b987" opacity="1.00" d=" M 37.05 64.46 C 36.07 61.76 38.78 59.09 41.47 60.05 L 41.75 61.07 C 40.59 62.38 39.32 63.60 38.04 64.79 L 37.05 64.46 Z" />
</g>
<g id="#da9192ff">
<path fill="#da9192" opacity="1.00" d=" M 41.75 61.07 L 42.08 60.73 C 45.22 63.24 40.43 68.24 37.93 65.10 L 38.04 64.79 C 39.32 63.60 40.59 62.38 41.75 61.07 Z" />
</g>
<g id="#3078d0ff">
<path fill="#3078d0" opacity="1.00" d=" M 76.21 68.38 C 78.94 66.66 82.79 69.84 81.66 72.89 C 81.09 75.95 76.44 76.90 74.78 74.23 C 73.10 72.44 74.06 69.30 76.21 68.38 Z" />
</g>
</svg>
