<?xml version="1.0" encoding="UTF-8" ?>
<!DOCTYPE svg PUBLIC "-//W3C//DTD SVG 1.1//EN" "http://www.w3.org/Graphics/SVG/1.1/DTD/svg11.dtd">
<svg width="117px" height="140px" viewBox="0 0 117 140" version="1.1" xmlns="http://www.w3.org/2000/svg">
<g id="#000000ff">
<path fill="#000000" opacity="1.00" d=" M 0.00 0.00 L 117.00 0.00 L 117.00 140.00 L 0.00 140.00 L 0.00 0.00 M 29.40 10.46 C 15.69 13.29 4.42 25.86 4.01 39.98 C 3.99 59.66 4.01 79.34 3.99 99.02 C 3.84 115.04 18.04 129.59 34.02 130.01 C 50.35 129.99 66.68 130.01 83.01 130.00 C 96.48 129.39 108.74 119.05 111.96 106.00 C 113.11 101.76 113.00 97.34 113.00 93.00 C 112.94 75.65 113.08 58.30 112.94 40.96 C 112.83 25.03 98.97 10.71 83.09 10.00 C 68.08 9.98 53.06 10.02 38.04 9.99 C 35.16 10.01 32.23 9.83 29.40 10.46 Z" />
<path fill="#000000" opacity="1.00" d=" M 35.01 12.24 C 48.66 11.78 62.35 12.21 76.01 12.03 C 82.93 11.91 90.14 12.97 96.01 16.88 C 104.59 22.11 109.81 32.04 109.95 42.02 C 110.07 60.01 109.96 78.00 110.01 95.99 C 110.07 102.28 108.64 108.65 105.18 113.95 C 99.96 122.56 90.07 127.65 80.12 127.87 C 66.76 128.07 53.39 127.86 40.03 127.97 C 33.14 128.06 26.01 126.78 20.25 122.79 C 12.10 117.44 6.96 107.81 7.08 98.05 C 7.05 79.03 6.99 60.01 7.11 41.00 C 7.15 26.06 20.12 12.83 35.01 12.24 M 37.26 28.27 C 37.20 32.41 37.10 36.56 37.25 40.70 C 37.64 41.03 38.42 41.70 38.81 42.04 C 38.69 44.70 38.86 47.36 38.66 50.02 C 36.25 52.77 37.42 56.63 37.18 59.96 C 37.42 67.30 36.58 74.75 37.73 82.02 C 51.45 81.83 65.15 82.04 78.86 81.92 C 79.18 72.60 78.91 63.28 79.01 53.96 C 78.96 51.04 79.40 47.97 78.07 45.25 C 79.83 41.86 78.75 37.88 78.92 34.22 C 76.90 32.25 74.92 30.25 72.93 28.24 C 61.04 28.38 49.15 28.37 37.26 28.27 Z" />
<path fill="#000000" opacity="1.00" d=" M 37.95 28.86 C 48.32 28.44 58.70 28.82 69.07 28.65 C 72.71 28.21 74.51 32.04 76.97 34.02 C 76.90 37.70 77.87 41.72 75.78 45.02 C 77.79 48.38 76.90 52.35 77.06 56.05 C 76.91 63.97 77.39 71.92 76.80 79.82 C 70.54 79.80 64.27 80.08 58.03 79.57 C 51.45 79.96 44.84 79.97 38.25 79.75 C 37.36 71.55 38.08 63.28 37.83 55.05 C 37.81 53.94 37.93 50.19 39.81 51.75 C 39.97 59.15 39.66 66.56 39.92 73.96 C 40.05 75.92 42.29 76.97 44.06 76.68 C 53.39 76.58 62.74 76.68 72.07 76.65 C 73.98 76.66 75.38 74.73 75.14 72.91 C 75.13 60.95 75.21 48.98 75.16 37.01 C 75.43 35.07 74.17 32.95 72.06 32.93 C 62.34 32.82 52.61 32.83 42.89 32.93 C 39.21 33.16 39.78 37.55 39.86 40.14 C 39.35 39.93 38.33 39.50 37.82 39.28 C 37.84 35.81 37.85 32.33 37.95 28.86 M 44.58 77.76 L 44.64 79.18 C 53.23 79.35 61.80 79.37 70.40 79.15 L 70.36 77.74 C 61.77 77.70 53.17 77.66 44.58 77.76 Z" />
<path fill="#000000" opacity="1.00" d=" M 43.22 34.34 C 52.47 34.15 61.74 34.29 70.99 34.27 C 73.02 33.94 74.31 36.24 74.17 38.01 C 74.18 49.35 74.19 60.70 74.13 72.04 C 74.27 74.24 72.02 75.72 69.99 75.42 C 61.31 75.39 52.63 75.51 43.96 75.36 C 41.73 75.40 40.49 73.04 40.82 71.06 C 40.97 60.02 40.59 48.99 40.81 37.96 C 40.74 36.50 41.60 34.48 43.22 34.34 M 44.37 37.34 C 42.81 37.87 43.38 39.77 43.21 41.00 C 43.40 50.70 42.94 60.41 43.32 70.11 C 43.12 71.55 44.53 72.69 45.89 72.55 C 53.63 72.60 61.38 72.60 69.13 72.56 C 70.50 72.69 71.95 71.51 71.62 70.04 C 71.57 59.72 71.66 49.39 71.73 39.07 C 71.96 37.50 70.13 37.10 68.99 36.87 C 62.67 36.67 56.34 36.89 50.01 36.78 C 48.13 36.86 46.13 36.50 44.37 37.34 Z" />
<path fill="#000000" opacity="1.00" d=" M 43.88 43.77 C 44.03 41.78 43.26 38.25 46.01 37.87 C 53.68 37.76 61.35 37.76 69.02 37.86 C 71.84 38.52 70.99 41.93 71.02 44.04 C 62.02 43.70 52.94 43.59 43.88 43.77 M 54.22 41.38 C 51.02 41.17 47.69 42.10 44.84 40.08 C 45.75 41.93 47.64 43.93 49.90 43.01 C 53.55 41.99 57.25 43.46 60.94 43.07 C 60.41 41.75 59.87 40.43 59.34 39.11 C 58.91 40.02 58.51 40.94 58.13 41.86 C 57.66 41.23 56.73 39.95 56.26 39.31 C 55.15 39.55 54.32 40.13 54.22 41.38 M 62.89 39.44 C 63.70 41.04 65.23 42.11 66.21 43.59 C 66.91 42.34 67.41 41.00 67.74 39.61 C 66.12 39.55 64.51 39.47 62.89 39.44 Z" />
<path fill="#000000" opacity="1.00" d=" M 44.25 45.48 C 53.19 45.68 62.16 45.26 71.09 45.77 C 70.56 48.08 71.61 50.87 70.13 52.83 C 63.29 55.59 58.30 48.25 52.04 47.04 C 49.25 46.10 46.45 47.26 43.76 47.99 C 43.88 47.36 44.13 46.11 44.25 45.48 Z" />
<path fill="#000000" opacity="1.00" d=" M 43.84 52.01 C 43.40 48.27 48.31 47.25 51.13 47.75 C 53.08 48.57 56.09 48.78 56.63 51.22 L 56.25 52.01 C 54.47 52.27 52.67 52.45 50.95 53.04 C 50.45 52.28 49.96 51.51 49.47 50.75 C 49.43 52.04 49.40 53.33 49.38 54.63 C 51.23 54.52 53.09 54.41 54.94 54.25 C 56.07 54.23 57.20 54.29 58.32 54.36 C 58.45 53.76 58.69 52.55 58.81 51.95 C 60.09 51.38 61.18 53.22 62.43 53.45 C 65.07 54.94 68.15 54.70 70.99 54.02 C 70.80 58.10 70.80 62.18 70.97 66.25 C 69.71 66.42 67.75 65.80 67.72 67.68 C 69.94 65.04 71.91 69.63 70.69 71.55 C 62.44 71.72 54.19 71.64 45.94 71.62 C 43.78 72.08 44.01 69.34 43.84 68.01 C 43.81 62.67 43.81 57.34 43.84 52.01 M 46.18 51.08 C 45.62 52.69 46.15 53.27 47.79 52.80 C 48.37 51.19 47.84 50.61 46.18 51.08 M 47.81 62.13 C 48.55 63.85 50.77 63.75 52.19 64.59 C 50.41 65.12 48.52 64.81 46.69 64.77 C 46.42 65.39 45.87 66.61 45.60 67.22 C 48.98 66.75 53.25 68.52 55.94 65.85 C 56.81 62.66 52.33 63.34 50.86 61.45 C 53.15 61.26 55.45 61.30 57.74 61.26 L 57.69 59.76 C 54.44 60.13 49.74 58.58 47.81 62.13 M 58.98 61.01 C 60.00 61.82 61.18 62.10 62.53 61.84 C 61.82 65.63 56.22 62.84 56.43 67.23 C 60.41 67.24 65.45 67.53 68.18 64.08 C 68.12 63.47 68.00 62.24 67.94 61.63 C 66.08 60.72 64.09 59.58 61.96 60.34 C 60.51 59.22 59.52 59.44 58.98 61.01 Z" />
</g>
<g id="#708cc8ff">
<path fill="#708cc8" opacity="1.00" d=" M 29.40 10.46 C 32.23 9.83 35.16 10.01 38.04 9.99 C 53.06 10.02 68.08 9.98 83.09 10.00 C 98.97 10.71 112.83 25.03 112.94 40.96 C 113.08 58.30 112.94 75.65 113.00 93.00 C 113.00 97.34 113.11 101.76 111.96 106.00 C 108.74 119.05 96.48 129.39 83.01 130.00 C 66.68 130.01 50.35 129.99 34.02 130.01 C 18.04 129.59 3.84 115.04 3.99 99.02 C 4.01 79.34 3.99 59.66 4.01 39.98 C 4.42 25.86 15.69 13.29 29.40 10.46 M 35.01 12.24 C 20.12 12.83 7.15 26.06 7.11 41.00 C 6.99 60.01 7.05 79.03 7.08 98.05 C 6.96 107.81 12.10 117.44 20.25 122.79 C 26.01 126.78 33.14 128.06 40.03 127.97 C 53.39 127.86 66.76 128.07 80.12 127.87 C 90.07 127.65 99.96 122.56 105.18 113.95 C 108.64 108.65 110.07 102.28 110.01 95.99 C 109.96 78.00 110.07 60.01 109.95 42.02 C 109.81 32.04 104.59 22.11 96.01 16.88 C 90.14 12.97 82.93 11.91 76.01 12.03 C 62.35 12.21 48.66 11.78 35.01 12.24 Z" />
<path fill="#708cc8" opacity="1.00" d=" M 49.47 50.75 C 49.96 51.51 50.45 52.28 50.95 53.04 C 52.67 52.45 54.47 52.27 56.25 52.01 C 57.07 52.14 57.62 52.61 57.91 53.44 C 57.17 53.64 55.68 54.05 54.94 54.25 C 53.09 54.41 51.23 54.52 49.38 54.63 C 49.40 53.33 49.43 52.04 49.47 50.75 Z" />
</g>
<g id="#f8fcf8ff">
<path fill="#f8fcf8" opacity="1.00" d=" M 37.26 28.27 C 49.15 28.37 61.04 28.38 72.93 28.24 C 74.92 30.25 76.90 32.25 78.92 34.22 C 78.75 37.88 79.83 41.86 78.07 45.25 C 79.40 47.97 78.96 51.04 79.01 53.96 C 78.91 63.28 79.18 72.60 78.86 81.92 C 65.15 82.04 51.45 81.83 37.73 82.02 C 36.58 74.75 37.42 67.30 37.18 59.96 C 37.42 56.63 36.25 52.77 38.66 50.02 C 38.86 47.36 38.69 44.70 38.81 42.04 C 38.42 41.70 37.64 41.03 37.25 40.70 C 37.10 36.56 37.20 32.41 37.26 28.27 M 37.95 28.86 C 37.85 32.33 37.84 35.81 37.82 39.28 C 38.33 39.50 39.35 39.93 39.86 40.14 C 39.78 37.55 39.21 33.16 42.89 32.93 C 52.61 32.83 62.34 32.82 72.06 32.93 C 74.17 32.95 75.43 35.07 75.16 37.01 C 75.21 48.98 75.13 60.95 75.14 72.91 C 75.38 74.73 73.98 76.66 72.07 76.65 C 62.74 76.68 53.39 76.58 44.06 76.68 C 42.29 76.97 40.05 75.92 39.92 73.96 C 39.66 66.56 39.97 59.15 39.81 51.75 C 37.93 50.19 37.81 53.94 37.83 55.05 C 38.08 63.28 37.36 71.55 38.25 79.75 C 44.84 79.97 51.45 79.96 58.03 79.57 C 64.27 80.08 70.54 79.80 76.80 79.82 C 77.39 71.92 76.91 63.97 77.06 56.05 C 76.90 52.35 77.79 48.38 75.78 45.02 C 77.87 41.72 76.90 37.70 76.97 34.02 C 74.51 32.04 72.71 28.21 69.07 28.65 C 58.70 28.82 48.32 28.44 37.95 28.86 M 43.22 34.34 C 41.60 34.48 40.74 36.50 40.81 37.96 C 40.59 48.99 40.97 60.02 40.82 71.06 C 40.49 73.04 41.73 75.40 43.96 75.36 C 52.63 75.51 61.31 75.39 69.99 75.42 C 72.02 75.72 74.27 74.24 74.13 72.04 C 74.19 60.70 74.18 49.35 74.17 38.01 C 74.31 36.24 73.02 33.94 70.99 34.27 C 61.74 34.29 52.47 34.15 43.22 34.34 Z" />
<path fill="#f8fcf8" opacity="1.00" d=" M 44.37 37.34 C 46.13 36.50 48.13 36.86 50.01 36.78 C 56.34 36.89 62.67 36.67 68.99 36.87 C 70.13 37.10 71.96 37.50 71.73 39.07 C 71.66 49.39 71.57 59.72 71.62 70.04 C 71.95 71.51 70.50 72.69 69.13 72.56 C 61.38 72.60 53.63 72.60 45.89 72.55 C 44.53 72.69 43.12 71.55 43.32 70.11 C 42.94 60.41 43.40 50.70 43.21 41.00 C 43.38 39.77 42.81 37.87 44.37 37.34 M 43.88 43.77 C 52.94 43.59 62.02 43.70 71.02 44.04 C 70.99 41.93 71.84 38.52 69.02 37.86 C 61.35 37.76 53.68 37.76 46.01 37.87 C 43.26 38.25 44.03 41.78 43.88 43.77 M 44.25 45.48 C 44.13 46.11 43.88 47.36 43.76 47.99 C 46.45 47.26 49.25 46.10 52.04 47.04 C 58.30 48.25 63.29 55.59 70.13 52.83 C 71.61 50.87 70.56 48.08 71.09 45.77 C 62.16 45.26 53.19 45.68 44.25 45.48 M 43.84 52.01 C 43.81 57.34 43.81 62.67 43.84 68.01 C 44.01 69.34 43.78 72.08 45.94 71.62 C 54.19 71.64 62.44 71.72 70.69 71.55 C 71.91 69.63 69.94 65.04 67.72 67.68 C 67.75 65.80 69.71 66.42 70.97 66.25 C 70.80 62.18 70.80 58.10 70.99 54.02 C 68.15 54.70 65.07 54.94 62.43 53.45 C 61.18 53.22 60.09 51.38 58.81 51.95 C 58.69 52.55 58.45 53.76 58.32 54.36 C 57.20 54.29 56.07 54.23 54.94 54.25 C 55.68 54.05 57.17 53.64 57.91 53.44 C 57.62 52.61 57.07 52.14 56.25 52.01 L 56.63 51.22 C 56.09 48.78 53.08 48.57 51.13 47.75 C 48.31 47.25 43.40 48.27 43.84 52.01 Z" />
<path fill="#f8fcf8" opacity="1.00" d=" M 54.22 41.38 C 54.32 40.13 55.15 39.55 56.26 39.31 C 56.73 39.95 57.66 41.23 58.13 41.86 C 58.51 40.94 58.91 40.02 59.34 39.11 C 59.87 40.43 60.41 41.75 60.94 43.07 C 57.25 43.46 53.55 41.99 49.90 43.01 C 47.64 43.93 45.75 41.93 44.84 40.08 C 47.69 42.10 51.02 41.17 54.22 41.38 Z" />
<path fill="#f8fcf8" opacity="1.00" d=" M 62.89 39.44 C 64.51 39.47 66.12 39.55 67.74 39.61 C 67.41 41.00 66.91 42.34 66.21 43.59 C 65.23 42.11 63.70 41.04 62.89 39.44 Z" />
<path fill="#f8fcf8" opacity="1.00" d=" M 58.98 61.01 C 59.52 59.44 60.51 59.22 61.96 60.34 C 61.05 61.02 60.06 61.25 58.98 61.01 Z" />
<path fill="#f8fcf8" opacity="1.00" d=" M 62.53 61.84 C 64.34 61.76 66.14 61.64 67.94 61.63 C 68.00 62.24 68.12 63.47 68.18 64.08 C 65.45 67.53 60.41 67.24 56.43 67.23 C 56.22 62.84 61.82 65.63 62.53 61.84 Z" />
<path fill="#f8fcf8" opacity="1.00" d=" M 44.58 77.76 C 53.17 77.66 61.77 77.70 70.36 77.74 L 70.40 79.15 C 61.80 79.37 53.23 79.35 44.64 79.18 L 44.58 77.76 Z" />
</g>
<g id="#c0c3c0ff">
<path fill="#c0c3c0" opacity="1.00" d=" M 46.18 51.08 C 47.84 50.61 48.37 51.19 47.79 52.80 C 46.15 53.27 45.62 52.69 46.18 51.08 Z" />
</g>
<g id="#f0f3f0ff">
<path fill="#f0f3f0" opacity="1.00" d=" M 47.81 62.13 C 49.74 58.58 54.44 60.13 57.69 59.76 L 57.74 61.26 C 55.45 61.30 53.15 61.26 50.86 61.45 C 52.33 63.34 56.81 62.66 55.94 65.85 C 53.25 68.52 48.98 66.75 45.60 67.22 C 45.87 66.61 46.42 65.39 46.69 64.77 C 48.52 64.81 50.41 65.12 52.19 64.59 C 50.77 63.75 48.55 63.85 47.81 62.13 Z" />
</g>
<g id="#858685ff">
<path fill="#858685" opacity="1.00" d=" M 61.96 60.34 C 64.09 59.58 66.08 60.72 67.94 61.63 C 66.14 61.64 64.34 61.76 62.53 61.84 C 61.18 62.10 60.00 61.82 58.98 61.01 C 60.06 61.25 61.05 61.02 61.96 60.34 Z" />
</g>
</svg>
