<?xml version="1.0" encoding="UTF-8" ?>
<!DOCTYPE svg PUBLIC "-//W3C//DTD SVG 1.1//EN" "http://www.w3.org/Graphics/SVG/1.1/DTD/svg11.dtd">
<svg width="117px" height="140px" viewBox="0 0 117 140" version="1.1" xmlns="http://www.w3.org/2000/svg">
<g id="#000000ff">
<path fill="#000000" opacity="1.00" d=" M 0.00 0.00 L 117.00 0.00 L 117.00 140.00 L 0.00 140.00 L 0.00 0.00 M 33.21 10.24 C 17.94 11.76 5.19 25.63 5.03 40.99 C 4.98 60.32 4.98 79.66 5.03 98.99 C 5.16 114.97 18.98 129.26 34.94 129.91 C 50.28 130.12 65.63 129.96 80.97 129.99 C 94.88 130.24 108.02 120.27 111.74 106.92 C 112.92 103.07 113.05 99.02 113.02 95.02 C 112.97 77.35 113.03 59.68 112.99 42.00 C 113.11 30.95 106.93 20.16 97.42 14.56 C 91.91 11.19 85.39 9.77 78.97 9.98 C 63.72 10.18 48.45 9.67 33.21 10.24 Z" />
<path fill="#000000" opacity="1.00" d=" M 30.49 12.68 C 34.27 11.87 38.15 11.99 41.99 12.00 C 55.33 12.03 68.67 11.94 82.01 12.04 C 98.04 12.10 111.95 27.01 111.00 43.00 C 110.99 61.35 111.02 79.70 110.98 98.05 C 111.19 109.33 104.20 120.22 94.05 125.02 C 89.42 127.40 84.15 128.11 79.00 128.01 C 64.31 127.93 49.61 128.13 34.93 127.91 C 20.06 127.27 7.12 113.91 7.04 99.03 C 6.98 79.66 6.97 60.29 7.04 40.92 C 7.20 27.60 17.51 15.41 30.49 12.68 M 49.83 27.85 C 49.84 37.47 49.83 47.10 49.84 56.73 C 43.67 61.34 42.60 71.32 48.24 76.75 C 53.06 82.14 62.58 81.52 66.75 75.63 C 71.53 69.96 69.87 61.11 64.16 56.73 C 64.17 47.10 64.17 37.46 64.17 27.83 C 59.40 27.40 54.59 27.36 49.83 27.85 M 68.35 37.10 C 67.96 37.58 67.19 38.54 66.81 39.02 C 67.21 39.54 68.00 40.56 68.40 41.08 C 70.29 40.80 73.18 41.68 73.63 39.09 C 73.19 36.39 70.29 37.33 68.35 37.10 M 68.37 44.04 C 67.98 44.53 67.19 45.52 66.80 46.01 C 67.20 46.51 68.00 47.51 68.40 48.01 C 69.85 47.96 71.31 47.98 72.75 47.71 C 73.72 46.60 73.73 45.49 72.77 44.38 C 71.33 44.05 69.84 44.11 68.37 44.04 M 68.35 51.00 C 67.93 51.54 67.09 52.63 66.67 53.18 C 68.20 55.39 72.76 56.05 73.62 53.01 C 73.24 50.35 70.24 51.19 68.35 51.00 Z" />
<path fill="#000000" opacity="1.00" d=" M 53.44 31.21 C 55.81 31.27 58.19 31.27 60.56 31.21 C 60.22 40.35 60.54 49.51 60.38 58.66 C 66.56 61.64 67.82 71.26 61.97 75.18 C 57.55 78.44 50.34 76.26 48.83 70.88 C 46.92 66.27 49.40 60.97 53.62 58.65 C 53.46 49.51 53.78 40.35 53.44 31.21 M 55.00 37.00 C 54.87 44.66 55.23 52.33 55.06 59.99 C 52.85 61.83 49.75 63.61 49.84 66.91 C 49.32 70.25 51.82 73.01 54.49 74.55 C 59.58 76.78 65.42 71.11 64.05 65.93 C 63.64 63.11 60.85 61.69 58.93 59.96 C 58.78 52.31 59.12 44.65 59.00 37.00 C 57.67 37.00 56.33 37.00 55.00 37.00 Z" />
</g>
<g id="#747474ff">
<path fill="#747474" opacity="1.00" d=" M 33.21 10.24 C 48.45 9.67 63.72 10.18 78.97 9.98 C 85.39 9.77 91.91 11.19 97.42 14.56 C 106.93 20.16 113.11 30.95 112.99 42.00 C 113.03 59.68 112.97 77.35 113.02 95.02 C 113.05 99.02 112.92 103.07 111.74 106.92 C 108.02 120.27 94.88 130.24 80.97 129.99 C 65.63 129.96 50.28 130.12 34.94 129.91 C 18.98 129.26 5.16 114.97 5.03 98.99 C 4.98 79.66 4.98 60.32 5.03 40.99 C 5.19 25.63 17.94 11.76 33.21 10.24 M 30.49 12.68 C 17.51 15.41 7.20 27.60 7.04 40.92 C 6.97 60.29 6.98 79.66 7.04 99.03 C 7.12 113.91 20.06 127.27 34.93 127.91 C 49.61 128.13 64.31 127.93 79.00 128.01 C 84.15 128.11 89.42 127.40 94.05 125.02 C 104.20 120.22 111.19 109.33 110.98 98.05 C 111.02 79.70 110.99 61.35 111.00 43.00 C 111.95 27.01 98.04 12.10 82.01 12.04 C 68.67 11.94 55.33 12.03 41.99 12.00 C 38.15 11.99 34.27 11.87 30.49 12.68 Z" />
</g>
<g id="#f8fcf8ff">
<path fill="#f8fcf8" opacity="1.00" d=" M 49.83 27.85 C 54.59 27.36 59.40 27.40 64.17 27.83 C 64.17 37.46 64.17 47.10 64.16 56.73 C 69.87 61.11 71.53 69.96 66.75 75.63 C 62.58 81.52 53.06 82.14 48.24 76.75 C 42.60 71.32 43.67 61.34 49.84 56.73 C 49.83 47.10 49.84 37.47 49.83 27.85 M 53.44 31.21 C 53.78 40.35 53.46 49.51 53.62 58.65 C 49.40 60.97 46.92 66.27 48.83 70.88 C 50.34 76.26 57.55 78.44 61.97 75.18 C 67.82 71.26 66.56 61.64 60.38 58.66 C 60.54 49.51 60.22 40.35 60.56 31.21 C 58.19 31.27 55.81 31.27 53.44 31.21 Z" />
<path fill="#f8fcf8" opacity="1.00" d=" M 55.00 37.00 C 56.33 37.00 57.67 37.00 59.00 37.00 C 59.12 44.65 58.78 52.31 58.93 59.96 C 60.85 61.69 63.64 63.11 64.05 65.93 C 65.42 71.11 59.58 76.78 54.49 74.55 C 51.82 73.01 49.32 70.25 49.84 66.91 C 49.75 63.61 52.85 61.83 55.06 59.99 C 55.23 52.33 54.87 44.66 55.00 37.00 Z" />
<path fill="#f8fcf8" opacity="1.00" d=" M 68.35 37.10 C 70.29 37.33 73.19 36.39 73.63 39.09 C 73.18 41.68 70.29 40.80 68.40 41.08 C 68.00 40.56 67.21 39.54 66.81 39.02 C 67.19 38.54 67.96 37.58 68.35 37.10 Z" />
<path fill="#f8fcf8" opacity="1.00" d=" M 68.37 44.04 C 69.84 44.11 71.33 44.05 72.77 44.38 C 73.73 45.49 73.72 46.60 72.75 47.71 C 71.31 47.98 69.85 47.96 68.40 48.01 C 68.00 47.51 67.20 46.51 66.80 46.01 C 67.19 45.52 67.98 44.53 68.37 44.04 Z" />
<path fill="#f8fcf8" opacity="1.00" d=" M 68.35 51.00 C 70.24 51.19 73.24 50.35 73.62 53.01 C 72.76 56.05 68.20 55.39 66.67 53.18 C 67.09 52.63 67.93 51.54 68.35 51.00 Z" />
</g>
</svg>
