<?xml version="1.0" encoding="UTF-8" ?>
<!DOCTYPE svg PUBLIC "-//W3C//DTD SVG 1.1//EN" "http://www.w3.org/Graphics/SVG/1.1/DTD/svg11.dtd">
<svg width="117px" height="140px" viewBox="0 0 117 140" version="1.1" xmlns="http://www.w3.org/2000/svg">
<g id="#000000ff">
<path fill="#000000" opacity="1.00" d=" M 0.00 0.00 L 117.00 0.00 L 117.00 140.00 L 0.00 140.00 L 0.00 0.00 M 33.11 10.23 C 21.16 11.57 10.51 20.27 6.70 31.66 C 4.40 37.86 5.07 44.57 5.00 51.04 C 5.06 67.38 4.89 83.73 5.07 100.07 C 5.74 115.64 19.33 129.23 34.89 129.92 C 50.26 130.12 65.64 129.94 81.01 130.01 C 92.33 130.11 103.39 123.63 108.86 113.72 C 111.80 108.66 113.14 102.78 113.02 96.95 C 112.96 78.30 113.05 59.64 112.97 40.98 C 112.77 28.22 104.01 16.17 91.97 11.95 C 84.63 9.07 76.64 10.21 68.97 10.00 C 57.01 10.16 45.04 9.68 33.11 10.23 Z" />
<path fill="#000000" opacity="1.00" d=" M 30.50 12.69 C 33.63 12.01 36.86 11.98 40.05 11.99 C 54.04 12.04 68.02 11.94 82.00 12.04 C 92.96 12.22 103.36 19.13 108.04 29.00 C 110.25 33.30 111.04 38.17 111.00 42.97 C 110.97 61.64 111.07 80.32 110.95 98.99 C 110.82 110.47 103.20 121.29 92.65 125.65 C 88.38 127.60 83.64 128.04 79.00 128.00 C 64.34 127.93 49.67 128.12 35.01 127.91 C 19.76 127.32 6.64 113.32 7.01 98.07 C 7.01 79.03 6.96 60.00 7.04 40.97 C 7.20 27.64 17.50 15.42 30.50 12.69 M 25.75 27.97 C 24.81 30.54 25.09 33.31 25.07 35.99 C 25.12 48.68 25.04 61.37 25.10 74.06 C 24.82 75.74 26.29 77.18 27.95 76.98 C 48.34 77.02 68.73 77.02 89.11 76.98 C 90.79 77.20 92.25 75.84 91.98 74.13 C 92.06 60.43 91.95 46.73 92.03 33.03 C 92.09 31.30 91.92 29.56 91.28 27.94 C 69.44 28.05 47.60 28.01 25.75 27.97 Z" />
<path fill="#000000" opacity="1.00" d=" M 27.38 74.64 C 27.40 59.69 27.07 44.72 27.55 29.79 C 47.72 29.82 67.90 29.73 88.07 29.82 C 90.12 29.39 89.70 31.73 89.79 32.95 C 89.60 46.83 90.09 60.74 89.54 74.60 C 68.84 74.92 48.10 74.83 27.38 74.64 M 80.25 35.18 C 78.54 35.60 79.23 37.63 78.98 38.88 C 80.55 38.92 82.17 39.15 83.71 38.70 C 83.80 37.95 84.00 36.43 84.10 35.68 C 82.83 35.49 81.55 34.93 80.25 35.18 M 32.04 37.11 C 32.07 37.78 32.13 39.12 32.16 39.80 C 46.78 39.80 61.41 40.03 76.01 39.69 C 76.16 39.03 76.46 37.71 76.61 37.06 C 61.75 37.03 46.89 36.93 32.04 37.11 M 79.16 48.88 C 80.72 48.89 82.28 48.84 83.85 48.77 C 83.84 47.16 84.30 44.81 82.09 44.52 C 79.29 43.38 78.64 46.94 79.16 48.88 M 31.91 47.00 C 32.04 47.69 32.29 49.06 32.41 49.75 C 43.38 49.64 54.35 49.97 65.31 49.58 C 65.48 48.95 65.82 47.69 65.99 47.06 C 54.63 46.92 43.27 47.04 31.91 47.00 M 79.42 54.46 C 78.80 55.45 78.52 57.59 80.02 57.96 C 81.26 58.12 82.49 58.02 83.69 57.65 C 83.85 56.58 83.93 55.51 83.93 54.43 C 82.45 54.35 80.83 53.71 79.42 54.46 M 32.27 55.30 C 32.19 55.96 32.02 57.29 31.94 57.96 C 44.65 58.06 57.35 57.97 70.06 58.00 C 69.99 57.32 69.86 55.98 69.79 55.30 C 57.28 55.33 44.78 55.33 32.27 55.30 M 78.97 65.05 C 78.72 67.89 81.48 68.04 83.52 67.42 C 83.68 66.09 83.79 64.75 83.88 63.41 C 82.11 63.16 78.82 62.16 78.97 65.05 M 32.08 65.09 C 32.08 65.78 32.07 67.18 32.07 67.87 C 40.78 68.01 49.51 68.13 58.21 67.84 C 58.31 67.15 58.51 65.77 58.61 65.08 C 49.77 65.09 40.92 65.08 32.08 65.09 Z" />
</g>
<g id="#717271ff">
<path fill="#717271" opacity="1.00" d=" M 33.11 10.23 C 45.04 9.68 57.01 10.16 68.97 10.00 C 76.64 10.21 84.63 9.07 91.97 11.95 C 104.01 16.17 112.77 28.22 112.97 40.98 C 113.05 59.64 112.96 78.30 113.02 96.95 C 113.14 102.78 111.80 108.66 108.86 113.72 C 103.39 123.63 92.33 130.11 81.01 130.01 C 65.64 129.94 50.26 130.12 34.89 129.92 C 19.33 129.23 5.74 115.64 5.07 100.07 C 4.89 83.73 5.06 67.38 5.00 51.04 C 5.07 44.57 4.40 37.86 6.70 31.66 C 10.51 20.27 21.16 11.57 33.11 10.23 M 30.50 12.69 C 17.50 15.42 7.20 27.64 7.04 40.97 C 6.96 60.00 7.01 79.03 7.01 98.07 C 6.64 113.32 19.76 127.32 35.01 127.91 C 49.67 128.12 64.34 127.93 79.00 128.00 C 83.64 128.04 88.38 127.60 92.65 125.65 C 103.20 121.29 110.82 110.47 110.95 98.99 C 111.07 80.32 110.97 61.64 111.00 42.97 C 111.04 38.17 110.25 33.30 108.04 29.00 C 103.36 19.13 92.96 12.22 82.00 12.04 C 68.02 11.94 54.04 12.04 40.05 11.99 C 36.86 11.98 33.63 12.01 30.50 12.69 Z" />
</g>
<g id="#f5f8f5ff">
<path fill="#f5f8f5" opacity="1.00" d=" M 25.75 27.97 C 47.60 28.01 69.44 28.05 91.28 27.94 C 91.92 29.56 92.09 31.30 92.03 33.03 C 91.95 46.73 92.06 60.43 91.98 74.13 C 92.25 75.84 90.79 77.20 89.11 76.98 C 68.73 77.02 48.34 77.02 27.95 76.98 C 26.29 77.18 24.82 75.74 25.10 74.06 C 25.04 61.37 25.12 48.68 25.07 35.99 C 25.09 33.31 24.81 30.54 25.75 27.97 M 27.38 74.64 C 48.10 74.83 68.84 74.92 89.54 74.60 C 90.09 60.74 89.60 46.83 89.79 32.95 C 89.70 31.73 90.12 29.39 88.07 29.82 C 67.90 29.73 47.72 29.82 27.55 29.79 C 27.07 44.72 27.40 59.69 27.38 74.64 Z" />
<path fill="#f5f8f5" opacity="1.00" d=" M 80.25 35.18 C 81.55 34.93 82.83 35.49 84.10 35.68 C 84.00 36.43 83.80 37.95 83.71 38.70 C 82.17 39.15 80.55 38.92 78.98 38.88 C 79.23 37.63 78.54 35.60 80.25 35.18 Z" />
<path fill="#f5f8f5" opacity="1.00" d=" M 32.04 37.11 C 46.89 36.93 61.75 37.03 76.61 37.06 C 76.46 37.71 76.16 39.03 76.01 39.69 C 61.41 40.03 46.78 39.80 32.16 39.80 C 32.13 39.12 32.07 37.78 32.04 37.11 Z" />
<path fill="#f5f8f5" opacity="1.00" d=" M 79.16 48.88 C 78.64 46.94 79.29 43.38 82.09 44.52 C 84.30 44.81 83.84 47.16 83.85 48.77 C 82.28 48.84 80.72 48.89 79.16 48.88 Z" />
<path fill="#f5f8f5" opacity="1.00" d=" M 31.91 47.00 C 43.27 47.04 54.63 46.92 65.99 47.06 C 65.82 47.69 65.48 48.95 65.31 49.58 C 54.35 49.97 43.38 49.64 32.41 49.75 C 32.29 49.06 32.04 47.69 31.91 47.00 Z" />
<path fill="#f5f8f5" opacity="1.00" d=" M 79.42 54.46 C 80.83 53.71 82.45 54.35 83.93 54.43 C 83.93 55.51 83.85 56.58 83.69 57.65 C 82.49 58.02 81.26 58.12 80.02 57.96 C 78.52 57.59 78.80 55.45 79.42 54.46 Z" />
<path fill="#f5f8f5" opacity="1.00" d=" M 32.27 55.30 C 44.78 55.33 57.28 55.33 69.79 55.30 C 69.86 55.98 69.99 57.32 70.06 58.00 C 57.35 57.97 44.65 58.06 31.94 57.96 C 32.02 57.29 32.19 55.96 32.27 55.30 Z" />
<path fill="#f5f8f5" opacity="1.00" d=" M 78.97 65.05 C 78.82 62.16 82.11 63.16 83.88 63.41 C 83.79 64.75 83.68 66.09 83.52 67.42 C 81.48 68.04 78.72 67.89 78.97 65.05 Z" />
<path fill="#f5f8f5" opacity="1.00" d=" M 32.08 65.09 C 40.92 65.08 49.77 65.09 58.61 65.08 C 58.51 65.77 58.31 67.15 58.21 67.84 C 49.51 68.13 40.78 68.01 32.07 67.87 C 32.07 67.18 32.08 65.78 32.08 65.09 Z" />
</g>
</svg>
