<?xml version="1.0" encoding="UTF-8" ?>
<!DOCTYPE svg PUBLIC "-//W3C//DTD SVG 1.1//EN" "http://www.w3.org/Graphics/SVG/1.1/DTD/svg11.dtd">
<svg width="117px" height="140px" viewBox="0 0 117 140" version="1.1" xmlns="http://www.w3.org/2000/svg">
<g id="#384450ff">
<path fill="#384450" opacity="1.00" d=" M 0.00 0.00 L 117.00 0.00 L 117.00 140.00 L 0.00 140.00 L 0.00 0.00 M 41.21 53.16 C 38.99 54.30 38.57 57.74 40.53 59.30 C 42.19 61.13 45.35 60.74 46.52 58.57 C 49.13 55.47 44.35 50.67 41.21 53.16 M 56.46 53.52 C 54.82 54.80 54.50 57.41 55.97 58.95 C 57.65 61.55 61.82 60.59 62.73 57.79 C 64.25 54.30 59.13 50.58 56.46 53.52 M 72.46 53.34 C 70.21 54.76 70.21 58.18 72.43 59.62 C 74.81 61.92 79.22 59.25 78.69 56.10 C 78.54 53.30 74.61 51.28 72.46 53.34 Z" />
</g>
<g id="#f8fcf8ff">
<path fill="#f8fcf8" opacity="1.00" d=" M 41.21 53.16 C 44.35 50.67 49.13 55.47 46.52 58.57 C 45.35 60.74 42.19 61.13 40.53 59.30 C 38.57 57.74 38.99 54.30 41.21 53.16 Z" />
<path fill="#f8fcf8" opacity="1.00" d=" M 56.46 53.52 C 59.13 50.58 64.25 54.30 62.73 57.79 C 61.82 60.59 57.65 61.55 55.97 58.95 C 54.50 57.41 54.82 54.80 56.46 53.52 Z" />
<path fill="#f8fcf8" opacity="1.00" d=" M 72.46 53.34 C 74.61 51.28 78.54 53.30 78.69 56.10 C 79.22 59.25 74.81 61.92 72.43 59.62 C 70.21 58.18 70.21 54.76 72.46 53.34 Z" />
</g>
</svg>
