<?xml version="1.0" encoding="UTF-8" ?>
<!DOCTYPE svg PUBLIC "-//W3C//DTD SVG 1.1//EN" "http://www.w3.org/Graphics/SVG/1.1/DTD/svg11.dtd">
<svg width="117px" height="140px" viewBox="0 0 117 140" version="1.1" xmlns="http://www.w3.org/2000/svg">
<g id="#000000ff">
<path fill="#000000" opacity="1.00" d=" M 0.00 0.00 L 117.00 0.00 L 117.00 140.00 L 0.00 140.00 L 0.00 0.00 M 33.19 10.22 C 17.95 11.77 5.21 25.59 5.02 40.93 C 4.99 60.30 4.99 79.67 5.02 99.04 C 5.17 115.01 19.00 129.27 34.95 129.93 C 50.63 130.08 66.31 129.99 81.98 129.98 C 99.11 129.92 113.98 114.03 113.02 96.94 C 112.98 78.63 113.01 60.31 113.00 42.00 C 113.07 33.39 109.39 24.85 103.14 18.93 C 97.06 12.98 88.51 9.76 80.04 9.98 C 64.42 10.17 48.79 9.70 33.19 10.22 Z" />
<path fill="#000000" opacity="1.00" d=" M 30.48 12.70 C 33.61 11.99 36.84 11.97 40.04 11.99 C 54.37 12.07 68.71 11.88 83.04 12.08 C 97.90 12.74 110.82 26.04 110.96 40.93 C 111.02 60.30 111.03 79.67 110.96 99.05 C 110.85 114.30 97.27 127.85 82.02 127.95 C 66.68 128.05 51.34 128.01 36.00 127.97 C 20.73 127.85 7.14 114.31 7.03 99.03 C 6.98 79.66 6.98 60.30 7.03 40.93 C 7.23 27.63 17.49 15.42 30.48 12.70 M 37.99 42.04 C 35.14 44.95 30.04 46.48 29.53 51.03 C 30.08 55.53 35.14 57.06 37.98 59.95 C 40.11 62.32 43.31 61.23 46.00 60.88 C 46.00 58.25 46.00 55.63 46.00 53.00 C 48.00 53.00 50.00 53.00 52.00 53.00 C 52.00 52.25 52.00 50.75 52.00 50.00 C 50.00 50.00 48.00 50.00 46.00 50.00 C 46.00 47.04 46.00 44.08 46.00 41.12 C 43.32 40.78 40.10 39.64 37.99 42.04 M 70.99 41.11 C 71.01 44.07 70.99 47.03 71.00 50.00 C 68.67 50.00 66.33 50.00 64.00 50.00 C 64.00 50.75 64.00 52.25 64.00 53.00 C 66.33 53.00 68.67 53.00 71.00 53.00 C 70.99 55.63 71.01 58.25 70.99 60.88 C 73.58 61.84 76.58 61.74 78.52 59.55 C 81.25 56.83 86.06 55.32 86.47 50.98 C 85.93 46.47 80.85 44.94 78.02 42.05 C 76.18 39.98 73.35 40.41 70.99 41.11 M 53.00 50.00 C 53.00 50.75 53.00 52.25 53.00 53.00 C 53.75 53.00 55.25 53.00 56.00 53.00 C 56.00 52.25 56.00 50.75 56.00 50.00 C 55.25 50.00 53.75 50.00 53.00 50.00 M 57.00 50.00 C 57.00 50.75 57.00 52.25 57.00 53.00 C 59.00 53.00 61.00 53.00 63.00 53.00 C 63.00 52.25 63.00 50.75 63.00 50.00 C 61.00 50.00 59.00 50.00 57.00 50.00 Z" />
<path fill="#000000" opacity="1.00" d=" M 33.01 51.00 C 36.00 48.67 39.01 46.35 42.00 44.01 C 42.00 48.66 42.01 53.31 41.99 57.97 C 38.99 55.65 36.00 53.33 33.01 51.00 Z" />
<path fill="#000000" opacity="1.00" d=" M 75.00 44.81 C 77.67 46.86 80.33 48.93 82.99 51.00 C 80.33 53.07 77.67 55.14 75.00 57.19 C 75.00 53.06 75.00 48.94 75.00 44.81 Z" />
</g>
<g id="#717271ff">
<path fill="#717271" opacity="1.00" d=" M 33.19 10.22 C 48.79 9.70 64.42 10.17 80.04 9.98 C 88.51 9.76 97.06 12.98 103.14 18.93 C 109.39 24.85 113.07 33.39 113.00 42.00 C 113.01 60.31 112.98 78.63 113.02 96.94 C 113.98 114.03 99.11 129.92 81.98 129.98 C 66.31 129.99 50.63 130.08 34.95 129.93 C 19.00 129.27 5.17 115.01 5.02 99.04 C 4.99 79.67 4.99 60.30 5.02 40.93 C 5.21 25.59 17.95 11.77 33.19 10.22 M 30.48 12.70 C 17.49 15.42 7.23 27.63 7.03 40.93 C 6.98 60.30 6.98 79.66 7.03 99.03 C 7.14 114.31 20.73 127.85 36.00 127.97 C 51.34 128.01 66.68 128.05 82.02 127.95 C 97.27 127.85 110.85 114.30 110.96 99.05 C 111.03 79.67 111.02 60.30 110.96 40.93 C 110.82 26.04 97.90 12.74 83.04 12.08 C 68.71 11.88 54.37 12.07 40.04 11.99 C 36.84 11.97 33.61 11.99 30.48 12.70 Z" />
</g>
<g id="#f8fcf8ff">
<path fill="#f8fcf8" opacity="1.00" d=" M 37.99 42.04 C 40.10 39.64 43.32 40.78 46.00 41.12 C 46.00 44.08 46.00 47.04 46.00 50.00 C 48.00 50.00 50.00 50.00 52.00 50.00 C 52.00 50.75 52.00 52.25 52.00 53.00 C 50.00 53.00 48.00 53.00 46.00 53.00 C 46.00 55.63 46.00 58.25 46.00 60.88 C 43.31 61.23 40.11 62.32 37.98 59.95 C 35.14 57.06 30.08 55.53 29.53 51.03 C 30.04 46.48 35.14 44.95 37.99 42.04 M 33.01 51.00 C 36.00 53.33 38.99 55.65 41.99 57.97 C 42.01 53.31 42.00 48.66 42.00 44.01 C 39.01 46.35 36.00 48.67 33.01 51.00 Z" />
<path fill="#f8fcf8" opacity="1.00" d=" M 70.99 41.11 C 73.35 40.41 76.18 39.98 78.02 42.05 C 80.85 44.94 85.93 46.47 86.47 50.98 C 86.06 55.32 81.25 56.83 78.52 59.55 C 76.58 61.74 73.58 61.84 70.99 60.88 C 71.01 58.25 70.99 55.63 71.00 53.00 C 68.67 53.00 66.33 53.00 64.00 53.00 C 64.00 52.25 64.00 50.75 64.00 50.00 C 66.33 50.00 68.67 50.00 71.00 50.00 C 70.99 47.03 71.01 44.07 70.99 41.11 M 75.00 44.81 C 75.00 48.94 75.00 53.06 75.00 57.19 C 77.67 55.14 80.33 53.07 82.99 51.00 C 80.33 48.93 77.67 46.86 75.00 44.81 Z" />
<path fill="#f8fcf8" opacity="1.00" d=" M 53.00 50.00 C 53.75 50.00 55.25 50.00 56.00 50.00 C 56.00 50.75 56.00 52.25 56.00 53.00 C 55.25 53.00 53.75 53.00 53.00 53.00 C 53.00 52.25 53.00 50.75 53.00 50.00 Z" />
<path fill="#f8fcf8" opacity="1.00" d=" M 57.00 50.00 C 59.00 50.00 61.00 50.00 63.00 50.00 C 63.00 50.75 63.00 52.25 63.00 53.00 C 61.00 53.00 59.00 53.00 57.00 53.00 C 57.00 52.25 57.00 50.75 57.00 50.00 Z" />
</g>
</svg>
