<?xml version="1.0" encoding="UTF-8" ?>
<!DOCTYPE svg PUBLIC "-//W3C//DTD SVG 1.1//EN" "http://www.w3.org/Graphics/SVG/1.1/DTD/svg11.dtd">
<svg width="10px" height="17px" viewBox="0 0 10 17" version="1.1" xmlns="http://www.w3.org/2000/svg">
<g id="#181818ff">
<path fill="#181818" opacity="1.00" d=" M 0.00 0.00 L 10.00 0.00 L 10.00 17.00 L 0.00 17.00 L 0.00 0.00 M 0.01 0.01 C 1.28 3.65 4.74 5.68 7.18 8.45 C 4.74 11.26 1.22 13.31 0.01 16.99 C 3.75 15.33 6.35 11.96 8.99 8.96 C 7.65 5.16 3.60 1.94 0.01 0.01 Z" />
</g>
<g id="#949594ff">
<path fill="#949594" opacity="1.00" d=" M 0.01 0.01 C 3.60 1.94 7.65 5.16 8.99 8.96 C 6.35 11.96 3.75 15.33 0.01 16.99 C 1.22 13.31 4.74 11.26 7.18 8.45 C 4.74 5.68 1.28 3.65 0.01 0.01 Z" />
</g>
</svg>
