<?xml version="1.0" encoding="UTF-8" ?>
<!DOCTYPE svg PUBLIC "-//W3C//DTD SVG 1.1//EN" "http://www.w3.org/Graphics/SVG/1.1/DTD/svg11.dtd">
<svg width="117px" height="140px" viewBox="0 0 117 140" version="1.1" xmlns="http://www.w3.org/2000/svg">
<g id="#000000ff">
<path fill="#000000" opacity="1.00" d=" M 0.00 0.00 L 117.00 0.00 L 117.00 140.00 L 0.00 140.00 L 0.00 0.00 M 33.17 10.23 C 17.93 11.79 5.21 25.62 5.03 40.95 C 4.98 60.31 4.98 79.67 5.02 99.02 C 5.16 115.35 19.62 129.83 35.95 129.97 C 51.66 129.98 67.37 130.10 83.07 129.91 C 99.00 129.26 112.83 114.99 112.97 99.04 C 113.03 79.70 113.02 60.35 112.97 41.00 C 112.77 28.23 104.01 16.22 92.01 11.96 C 84.65 9.08 76.65 10.22 68.96 10.00 C 57.03 10.15 45.09 9.69 33.17 10.23 Z" />
<path fill="#000000" opacity="1.00" d=" M 33.26 12.34 C 49.14 11.74 65.07 12.21 80.97 12.09 C 92.24 11.96 103.19 18.81 107.95 29.03 C 110.88 34.54 111.08 40.91 110.94 47.00 C 110.88 64.35 111.02 81.70 110.87 99.05 C 110.76 113.91 97.87 127.21 83.02 127.81 C 67.33 128.05 51.64 127.92 35.95 127.88 C 20.77 127.74 7.27 114.31 7.13 99.12 C 7.03 79.72 7.03 60.32 7.13 40.92 C 7.31 26.70 19.11 13.79 33.26 12.34 M 45.12 38.07 C 44.20 40.96 43.81 43.97 43.98 47.00 C 41.98 47.00 39.99 47.00 38.00 47.00 C 38.00 47.75 38.00 49.25 38.00 50.00 C 39.98 50.00 41.96 50.00 43.94 50.00 C 43.84 52.70 44.36 55.34 45.12 57.91 C 47.20 58.39 49.68 59.11 51.43 57.40 C 54.22 54.86 57.95 53.13 60.02 49.91 C 61.99 44.60 55.47 42.35 52.46 39.39 C 50.56 37.23 47.65 37.21 45.12 38.07 M 57.97 71.04 C 57.65 73.13 57.69 75.24 57.82 77.35 C 52.39 77.43 46.95 77.39 41.52 77.37 C 41.56 75.67 41.61 73.98 41.65 72.28 C 41.01 72.25 39.73 72.18 39.08 72.14 C 39.31 74.66 37.94 78.71 41.08 79.82 C 53.03 80.01 65.01 80.02 76.95 79.82 C 80.05 78.65 78.70 74.65 78.90 72.12 C 78.26 72.17 76.98 72.26 76.34 72.31 C 76.39 73.99 76.44 75.68 76.49 77.37 C 71.05 77.39 65.61 77.42 60.17 77.35 C 59.96 75.16 61.62 70.81 57.97 71.04 Z" />
<path fill="#000000" opacity="1.00" d=" M 49.00 41.81 C 51.67 43.86 54.33 45.93 56.99 48.00 C 54.33 50.07 51.67 52.13 49.00 54.19 C 49.00 50.06 49.00 45.94 49.00 41.81 Z" />
</g>
<g id="#737473ff">
<path fill="#737473" opacity="1.00" d=" M 33.17 10.23 C 45.09 9.69 57.03 10.15 68.96 10.00 C 76.65 10.22 84.65 9.08 92.01 11.96 C 104.01 16.22 112.77 28.23 112.97 41.00 C 113.02 60.35 113.03 79.70 112.97 99.04 C 112.83 114.99 99.00 129.26 83.07 129.91 C 67.37 130.10 51.66 129.98 35.95 129.97 C 19.62 129.83 5.16 115.35 5.02 99.02 C 4.98 79.67 4.98 60.31 5.03 40.95 C 5.21 25.62 17.93 11.79 33.17 10.23 M 33.26 12.34 C 19.11 13.79 7.31 26.70 7.13 40.92 C 7.03 60.32 7.03 79.72 7.13 99.12 C 7.27 114.31 20.77 127.74 35.95 127.88 C 51.64 127.92 67.33 128.05 83.02 127.81 C 97.87 127.21 110.76 113.91 110.87 99.05 C 111.02 81.70 110.88 64.35 110.94 47.00 C 111.08 40.91 110.88 34.54 107.95 29.03 C 103.19 18.81 92.24 11.96 80.97 12.09 C 65.07 12.21 49.14 11.74 33.26 12.34 Z" />
</g>
<g id="#f8fcf8ff">
<path fill="#f8fcf8" opacity="1.00" d=" M 45.12 38.07 C 47.65 37.21 50.56 37.23 52.46 39.39 C 55.47 42.35 61.99 44.60 60.02 49.91 C 57.95 53.13 54.22 54.86 51.43 57.40 C 49.68 59.11 47.20 58.39 45.12 57.91 C 44.36 55.34 43.84 52.70 43.94 50.00 C 41.96 50.00 39.98 50.00 38.00 50.00 C 38.00 49.25 38.00 47.75 38.00 47.00 C 39.99 47.00 41.98 47.00 43.98 47.00 C 43.81 43.97 44.20 40.96 45.12 38.07 M 49.00 41.81 C 49.00 45.94 49.00 50.06 49.00 54.19 C 51.67 52.13 54.33 50.07 56.99 48.00 C 54.33 45.93 51.67 43.86 49.00 41.81 Z" />
<path fill="#f8fcf8" opacity="1.00" d=" M 57.97 71.04 C 61.62 70.81 59.96 75.16 60.17 77.35 C 65.61 77.42 71.05 77.39 76.49 77.37 C 76.44 75.68 76.39 73.99 76.34 72.31 C 76.98 72.26 78.26 72.17 78.90 72.12 C 78.70 74.65 80.05 78.65 76.95 79.82 C 65.01 80.02 53.03 80.01 41.08 79.82 C 37.94 78.71 39.31 74.66 39.08 72.14 C 39.73 72.18 41.01 72.25 41.65 72.28 C 41.61 73.98 41.56 75.67 41.52 77.37 C 46.95 77.39 52.39 77.43 57.82 77.35 C 57.69 75.24 57.65 73.13 57.97 71.04 Z" />
</g>
</svg>
