<?xml version="1.0" encoding="UTF-8" ?>
<!DOCTYPE svg PUBLIC "-//W3C//DTD SVG 1.1//EN" "http://www.w3.org/Graphics/SVG/1.1/DTD/svg11.dtd">
<svg width="117px" height="140px" viewBox="0 0 117 140" version="1.1" xmlns="http://www.w3.org/2000/svg">
<g id="#384450ff">
<path fill="#384450" opacity="1.00" d=" M 0.00 0.00 L 117.00 0.00 L 117.00 140.00 L 0.00 140.00 L 0.00 0.00 M 41.21 53.16 C 38.68 54.44 38.63 58.50 41.19 59.80 C 43.13 61.36 45.95 60.12 46.87 58.01 C 48.63 54.85 44.08 50.84 41.21 53.16 M 56.50 53.49 C 53.54 55.52 55.51 60.75 58.99 60.42 C 61.79 60.71 64.12 56.87 62.38 54.54 C 61.35 52.42 58.14 51.72 56.50 53.49 M 72.37 53.42 C 70.22 54.88 70.26 58.25 72.46 59.64 C 74.84 61.90 79.20 59.25 78.69 56.12 C 78.55 53.26 74.50 51.22 72.37 53.42 Z" />
</g>
<g id="#f8fcf8ff">
<path fill="#f8fcf8" opacity="1.00" d=" M 41.21 53.16 C 44.08 50.84 48.63 54.85 46.87 58.01 C 45.95 60.12 43.13 61.36 41.19 59.80 C 38.63 58.50 38.68 54.44 41.21 53.16 Z" />
<path fill="#f8fcf8" opacity="1.00" d=" M 56.50 53.49 C 58.14 51.72 61.35 52.42 62.38 54.54 C 64.12 56.87 61.79 60.71 58.99 60.42 C 55.51 60.75 53.54 55.52 56.50 53.49 Z" />
<path fill="#f8fcf8" opacity="1.00" d=" M 72.37 53.42 C 74.50 51.22 78.55 53.26 78.69 56.12 C 79.20 59.25 74.84 61.90 72.46 59.64 C 70.26 58.25 70.22 54.88 72.37 53.42 Z" />
</g>
</svg>
