<?xml version="1.0" encoding="UTF-8" ?>
<!DOCTYPE svg PUBLIC "-//W3C//DTD SVG 1.1//EN" "http://www.w3.org/Graphics/SVG/1.1/DTD/svg11.dtd">
<svg width="117px" height="140px" viewBox="0 0 117 140" version="1.1" xmlns="http://www.w3.org/2000/svg">
<g id="#000000ff">
<path fill="#000000" opacity="1.00" d=" M 0.00 0.00 L 117.00 0.00 L 117.00 140.00 L 0.00 140.00 L 0.00 0.00 M 33.24 10.23 C 20.76 11.56 9.68 20.96 6.28 33.04 C 4.66 38.19 5.00 43.64 4.99 48.96 C 5.02 65.29 4.98 81.63 5.00 97.96 C 4.93 107.55 9.50 117.00 16.99 122.96 C 22.85 127.70 30.40 130.18 37.92 130.02 C 52.97 129.92 68.03 130.14 83.08 129.91 C 99.03 129.25 112.86 114.97 112.96 99.00 C 113.05 80.02 112.98 61.03 113.00 42.05 C 113.12 31.00 106.97 20.19 97.47 14.58 C 91.95 11.19 85.40 9.77 78.97 9.97 C 63.73 10.18 48.46 9.67 33.24 10.23 Z" />
<path fill="#000000" opacity="1.00" d=" M 30.51 12.68 C 35.27 11.69 40.15 12.07 44.97 12.00 C 57.67 12.06 70.38 11.87 83.07 12.10 C 97.94 12.73 110.88 26.09 110.95 40.99 C 111.06 60.00 110.99 79.02 110.98 98.04 C 111.19 109.57 103.88 120.69 93.37 125.33 C 88.90 127.50 83.88 128.08 78.97 128.00 C 64.32 127.93 49.65 128.13 35.00 127.91 C 20.12 127.31 7.14 113.96 7.04 99.06 C 6.94 80.40 7.03 61.73 7.00 43.07 C 6.23 29.00 16.75 15.52 30.51 12.68 M 44.33 31.16 C 36.99 35.59 31.35 43.31 30.80 52.02 C 29.73 60.60 33.00 69.60 39.60 75.25 C 46.13 81.52 55.85 83.26 64.51 81.51 C 74.72 79.17 83.24 70.47 84.96 60.09 C 85.74 54.67 85.47 48.92 83.13 43.89 C 78.89 34.29 68.61 27.31 57.98 27.96 C 53.18 27.51 48.60 29.17 44.33 31.16 Z" />
<path fill="#000000" opacity="1.00" d=" M 51.76 31.02 C 52.45 31.00 53.83 30.98 54.51 30.96 C 54.68 32.67 55.07 34.36 56.47 35.49 C 56.85 34.86 57.61 33.59 57.99 32.96 C 60.92 31.00 64.41 30.41 67.59 32.18 C 68.04 32.46 68.96 33.03 69.41 33.31 C 69.67 33.96 70.20 35.27 70.46 35.93 C 71.22 35.81 71.97 35.66 72.72 35.48 C 73.46 36.29 74.22 37.08 74.96 37.90 C 73.75 37.82 72.55 37.76 71.35 37.70 L 72.33 39.94 C 70.83 38.49 69.33 37.05 67.86 35.58 C 67.94 36.91 67.24 38.85 69.47 38.94 C 70.90 39.56 70.98 41.47 71.89 42.57 C 71.18 42.49 69.76 42.34 69.05 42.27 C 69.65 43.54 69.43 45.56 71.29 45.85 C 72.29 44.82 73.14 43.65 74.10 42.58 C 75.28 42.98 76.46 43.39 77.64 43.81 C 77.55 44.12 77.36 44.75 77.27 45.06 C 79.65 45.03 81.23 46.65 82.54 48.41 C 80.99 48.34 79.45 48.36 77.90 48.28 C 77.09 47.39 76.39 46.41 75.80 45.36 C 74.21 45.57 72.60 45.75 71.05 46.19 C 69.72 48.10 68.59 50.15 67.29 52.09 C 67.21 55.11 68.07 57.90 70.28 60.05 C 71.69 59.87 73.10 59.69 74.52 59.49 C 74.94 59.77 75.79 60.33 76.21 60.61 C 76.58 65.33 74.49 69.54 72.77 73.78 C 72.34 74.92 71.60 75.88 70.49 76.41 C 67.29 78.17 63.70 78.76 60.30 79.91 C 58.76 79.96 57.23 79.96 55.70 79.92 C 54.34 79.33 52.94 78.82 51.51 78.39 C 52.25 75.84 53.88 73.71 55.23 71.47 C 58.26 70.11 58.31 66.41 60.07 63.97 C 57.99 63.17 55.88 62.45 53.79 61.67 C 51.08 57.71 45.27 55.39 40.81 57.92 C 40.41 56.50 39.90 55.12 38.95 53.97 C 39.01 53.38 39.12 52.21 39.17 51.62 C 38.39 52.56 37.59 53.49 36.78 54.41 C 36.30 52.63 36.37 50.80 36.66 48.99 C 37.63 48.77 39.59 48.32 40.57 48.10 C 40.82 49.44 40.81 50.80 40.53 52.14 C 41.46 52.59 42.40 53.03 43.34 53.47 C 44.72 53.67 46.11 53.84 47.50 53.97 C 45.48 53.18 43.36 52.67 41.28 52.09 C 41.36 50.70 41.44 49.30 41.51 47.91 C 43.89 45.28 45.71 41.31 49.81 41.37 C 49.39 41.02 48.53 40.31 48.10 39.95 C 48.88 39.60 50.44 38.91 51.22 38.56 C 51.42 39.70 51.92 40.68 52.72 41.52 C 52.54 39.24 51.64 37.14 50.69 35.10 C 50.31 35.24 49.57 35.52 49.19 35.66 C 49.01 35.03 48.64 33.77 48.45 33.14 C 47.09 35.07 45.69 37.00 44.65 39.14 C 44.47 37.75 43.92 36.52 42.99 35.44 C 45.23 34.27 47.43 33.01 49.66 31.83 C 49.56 32.53 49.36 33.92 49.26 34.61 C 50.43 33.89 51.60 33.16 52.77 32.44 L 51.76 31.02 M 61.83 33.18 C 62.31 33.50 63.27 34.15 63.75 34.47 C 63.92 34.02 64.25 33.12 64.42 32.67 C 63.27 31.81 62.40 31.98 61.83 33.18 Z" />
<path fill="#000000" opacity="1.00" d=" M 32.98 50.52 C 33.65 51.69 34.20 52.92 34.94 54.04 C 36.85 55.19 38.85 56.24 40.26 58.03 C 40.85 58.16 42.03 58.44 42.62 58.58 C 42.49 60.54 41.04 62.76 42.35 64.58 C 43.38 66.53 45.11 67.90 46.70 69.37 C 47.80 72.48 48.35 75.85 50.37 78.56 C 49.03 77.98 47.70 77.36 46.35 76.80 C 41.15 73.77 36.86 69.05 34.63 63.43 C 34.12 61.74 33.77 60.01 33.12 58.37 C 32.97 55.76 32.97 53.14 32.98 50.52 Z" />
</g>
<g id="#737473ff">
<path fill="#737473" opacity="1.00" d=" M 33.24 10.23 C 48.46 9.67 63.73 10.18 78.97 9.97 C 85.40 9.77 91.95 11.19 97.47 14.58 C 106.97 20.19 113.12 31.00 113.00 42.05 C 112.98 61.03 113.05 80.02 112.96 99.00 C 112.86 114.97 99.03 129.25 83.08 129.91 C 68.03 130.14 52.97 129.92 37.92 130.02 C 30.40 130.18 22.85 127.70 16.99 122.96 C 9.50 117.00 4.93 107.55 5.00 97.96 C 4.98 81.63 5.02 65.29 4.99 48.96 C 5.00 43.64 4.66 38.19 6.28 33.04 C 9.68 20.96 20.76 11.56 33.24 10.23 M 30.51 12.68 C 16.75 15.52 6.23 29.00 7.00 43.07 C 7.03 61.73 6.94 80.40 7.04 99.06 C 7.14 113.96 20.12 127.31 35.00 127.91 C 49.65 128.13 64.32 127.93 78.97 128.00 C 83.88 128.08 88.90 127.50 93.37 125.33 C 103.88 120.69 111.19 109.57 110.98 98.04 C 110.99 79.02 111.06 60.00 110.95 40.99 C 110.88 26.09 97.94 12.73 83.07 12.10 C 70.38 11.87 57.67 12.06 44.97 12.00 C 40.15 12.07 35.27 11.69 30.51 12.68 Z" />
</g>
<g id="#f8fcf8ff">
<path fill="#f8fcf8" opacity="1.00" d=" M 44.33 31.16 C 48.60 29.17 53.18 27.51 57.98 27.96 C 68.61 27.31 78.89 34.29 83.13 43.89 C 85.47 48.92 85.74 54.67 84.96 60.09 C 83.24 70.47 74.72 79.17 64.51 81.51 C 55.85 83.26 46.13 81.52 39.60 75.25 C 33.00 69.60 29.73 60.60 30.80 52.02 C 31.35 43.31 36.99 35.59 44.33 31.16 M 51.76 31.02 L 52.77 32.44 C 51.60 33.16 50.43 33.89 49.26 34.61 C 49.36 33.92 49.56 32.53 49.66 31.83 C 47.43 33.01 45.23 34.27 42.99 35.44 C 43.92 36.52 44.47 37.75 44.65 39.14 C 45.69 37.00 47.09 35.07 48.45 33.14 C 48.64 33.77 49.01 35.03 49.19 35.66 C 49.57 35.52 50.31 35.24 50.69 35.10 C 51.64 37.14 52.54 39.24 52.72 41.52 C 51.92 40.68 51.42 39.70 51.22 38.56 C 50.44 38.91 48.88 39.60 48.10 39.95 C 48.53 40.31 49.39 41.02 49.81 41.37 C 45.71 41.31 43.89 45.28 41.51 47.91 C 41.44 49.30 41.36 50.70 41.28 52.09 C 43.36 52.67 45.48 53.18 47.50 53.97 C 46.11 53.84 44.72 53.67 43.34 53.47 C 42.40 53.03 41.46 52.59 40.53 52.14 C 40.81 50.80 40.82 49.44 40.57 48.10 C 39.59 48.32 37.63 48.77 36.66 48.99 C 36.37 50.80 36.30 52.63 36.78 54.41 C 37.59 53.49 38.39 52.56 39.17 51.62 C 39.12 52.21 39.01 53.38 38.95 53.97 C 39.90 55.12 40.41 56.50 40.81 57.92 C 45.27 55.39 51.08 57.71 53.79 61.67 C 55.88 62.45 57.99 63.17 60.07 63.97 C 58.31 66.41 58.26 70.11 55.23 71.47 C 53.88 73.71 52.25 75.84 51.51 78.39 C 52.94 78.82 54.34 79.33 55.70 79.92 C 57.23 79.96 58.76 79.96 60.30 79.91 C 63.70 78.76 67.29 78.17 70.49 76.41 C 71.60 75.88 72.34 74.92 72.77 73.78 C 74.49 69.54 76.58 65.33 76.21 60.61 C 75.79 60.33 74.94 59.77 74.52 59.49 C 73.10 59.69 71.69 59.87 70.28 60.05 C 68.07 57.90 67.21 55.11 67.29 52.09 C 68.59 50.15 69.72 48.10 71.05 46.19 C 72.60 45.75 74.21 45.57 75.80 45.36 C 76.39 46.41 77.09 47.39 77.90 48.28 C 79.45 48.36 80.99 48.34 82.54 48.41 C 81.23 46.65 79.65 45.03 77.27 45.06 C 77.36 44.75 77.55 44.12 77.64 43.81 C 76.46 43.39 75.28 42.98 74.10 42.58 C 73.14 43.65 72.29 44.82 71.29 45.85 C 69.43 45.56 69.65 43.54 69.05 42.27 C 69.76 42.34 71.18 42.49 71.89 42.57 C 70.98 41.47 70.90 39.56 69.47 38.94 C 67.24 38.85 67.94 36.91 67.86 35.58 C 69.33 37.05 70.83 38.49 72.33 39.94 L 71.35 37.70 C 72.55 37.76 73.75 37.82 74.96 37.90 C 74.22 37.08 73.46 36.29 72.72 35.48 C 71.97 35.66 71.22 35.81 70.46 35.93 C 70.20 35.27 69.67 33.96 69.41 33.31 C 68.96 33.03 68.04 32.46 67.59 32.18 C 64.41 30.41 60.92 31.00 57.99 32.96 C 57.61 33.59 56.85 34.86 56.47 35.49 C 55.07 34.36 54.68 32.67 54.51 30.96 C 53.83 30.98 52.45 31.00 51.76 31.02 M 32.98 50.52 C 32.97 53.14 32.97 55.76 33.12 58.37 C 33.77 60.01 34.12 61.74 34.63 63.43 C 36.86 69.05 41.15 73.77 46.35 76.80 C 47.70 77.36 49.03 77.98 50.37 78.56 C 48.35 75.85 47.80 72.48 46.70 69.37 C 45.11 67.90 43.38 66.53 42.35 64.58 C 41.04 62.76 42.49 60.54 42.62 58.58 C 42.03 58.44 40.85 58.16 40.26 58.03 C 38.85 56.24 36.85 55.19 34.94 54.04 C 34.20 52.92 33.65 51.69 32.98 50.52 Z" />
<path fill="#f8fcf8" opacity="1.00" d=" M 61.83 33.18 C 62.40 31.98 63.27 31.81 64.42 32.67 C 64.25 33.12 63.92 34.02 63.75 34.47 C 63.27 34.15 62.31 33.50 61.83 33.18 Z" />
</g>
</svg>
