<?xml version="1.0" encoding="UTF-8" ?>
<!DOCTYPE svg PUBLIC "-//W3C//DTD SVG 1.1//EN" "http://www.w3.org/Graphics/SVG/1.1/DTD/svg11.dtd">
<svg width="117px" height="140px" viewBox="0 0 117 140" version="1.1" xmlns="http://www.w3.org/2000/svg">
<g id="#181819ff">
<path fill="#181819" opacity="1.00" d=" M 0.00 0.00 L 117.00 0.00 L 117.00 140.00 L 0.00 140.00 L 0.00 0.00 M 24.32 16.20 C 23.15 17.39 21.44 18.37 21.01 20.06 C 24.96 35.17 21.99 51.18 23.20 66.73 C 28.77 72.58 35.74 76.86 41.75 82.24 C 44.64 85.21 45.69 78.65 45.21 77.14 C 47.64 79.56 57.49 86.98 55.14 77.10 C 57.58 79.51 67.48 87.01 65.14 77.10 C 67.58 79.51 77.48 87.01 75.14 77.10 C 77.58 79.51 87.48 87.01 85.14 77.10 C 88.29 78.90 90.86 82.84 94.95 82.03 C 95.34 70.20 94.45 58.35 95.39 46.54 C 98.77 45.05 100.04 41.76 96.17 39.89 C 93.99 30.39 83.12 26.79 76.82 20.17 C 73.97 16.90 71.75 21.97 72.79 24.92 C 69.57 22.07 61.31 14.07 62.79 24.92 C 59.57 22.07 51.31 14.07 52.79 24.92 C 49.58 22.09 41.32 14.07 42.81 24.90 C 37.54 20.63 31.23 16.01 24.32 16.20 M 61.25 87.19 C 56.64 89.14 59.78 97.19 64.36 94.42 C 69.32 92.61 66.15 84.97 61.25 87.19 Z" />
<path fill="#181819" opacity="1.00" d=" M 36.85 26.07 C 41.74 29.47 46.68 32.94 50.81 37.27 C 51.12 50.20 51.16 63.16 50.90 76.09 C 48.13 75.93 46.32 73.07 45.06 70.91 C 44.76 59.31 45.24 47.69 44.94 36.09 C 43.77 31.51 36.75 31.01 36.85 26.07 Z" />
<path fill="#181819" opacity="1.00" d=" M 46.85 26.07 C 51.74 29.47 56.68 32.94 60.81 37.27 C 61.12 50.20 61.16 63.16 60.90 76.09 C 58.13 75.93 56.32 73.07 55.06 70.91 C 54.76 59.31 55.24 47.69 54.94 36.09 C 53.77 31.51 46.75 31.01 46.85 26.07 Z" />
<path fill="#181819" opacity="1.00" d=" M 56.85 26.07 C 61.74 29.47 66.68 32.94 70.81 37.27 C 71.12 50.20 71.16 63.16 70.90 76.09 C 68.13 75.93 66.32 73.07 65.06 70.91 C 64.76 59.31 65.24 47.69 64.94 36.09 C 63.77 31.51 56.75 31.01 56.85 26.07 Z" />
<path fill="#181819" opacity="1.00" d=" M 66.85 26.07 C 71.74 29.47 76.68 32.94 80.81 37.27 C 81.12 50.20 81.16 63.16 80.90 76.09 C 78.13 75.93 76.32 73.07 75.06 70.91 C 74.76 59.31 75.24 47.69 74.94 36.09 C 73.77 31.51 66.75 31.01 66.85 26.07 Z" />
<path fill="#181819" opacity="1.00" d=" M 76.85 26.07 C 81.74 29.47 86.68 32.94 90.81 37.27 C 91.12 50.20 91.16 63.16 90.90 76.09 C 88.13 75.93 86.32 73.07 85.06 70.91 C 84.76 59.31 85.24 47.69 84.94 36.09 C 83.77 31.51 76.75 31.01 76.85 26.07 Z" />
</g>
<g id="#9570a0ff">
<path fill="#9570a0" opacity="1.00" d=" M 24.32 16.20 C 31.23 16.01 37.54 20.63 42.81 24.90 C 41.32 14.07 49.58 22.09 52.79 24.92 C 51.31 14.07 59.57 22.07 62.79 24.92 C 61.31 14.07 69.57 22.07 72.79 24.92 C 71.75 21.97 73.97 16.90 76.82 20.17 C 83.12 26.79 93.99 30.39 96.17 39.89 C 100.04 41.76 98.77 45.05 95.39 46.54 C 94.45 58.35 95.34 70.20 94.95 82.03 C 90.86 82.84 88.29 78.90 85.14 77.10 C 87.48 87.01 77.58 79.51 75.14 77.10 C 77.48 87.01 67.58 79.51 65.14 77.10 C 67.48 87.01 57.58 79.51 55.14 77.10 C 57.49 86.98 47.64 79.56 45.21 77.14 C 45.69 78.65 44.64 85.21 41.75 82.24 C 35.74 76.86 28.77 72.58 23.20 66.73 C 21.99 51.18 24.96 35.17 21.01 20.06 C 21.44 18.37 23.15 17.39 24.32 16.20 M 36.85 26.07 C 36.75 31.01 43.77 31.51 44.94 36.09 C 45.24 47.69 44.76 59.31 45.06 70.91 C 46.32 73.07 48.13 75.93 50.90 76.09 C 51.16 63.16 51.12 50.20 50.81 37.27 C 46.68 32.94 41.74 29.47 36.85 26.07 M 46.85 26.07 C 46.75 31.01 53.77 31.51 54.94 36.09 C 55.24 47.69 54.76 59.31 55.06 70.91 C 56.32 73.07 58.13 75.93 60.90 76.09 C 61.16 63.16 61.12 50.20 60.81 37.27 C 56.68 32.94 51.74 29.47 46.85 26.07 M 56.85 26.07 C 56.75 31.01 63.77 31.51 64.94 36.09 C 65.24 47.69 64.76 59.31 65.06 70.91 C 66.32 73.07 68.13 75.93 70.90 76.09 C 71.16 63.16 71.12 50.20 70.81 37.27 C 66.68 32.94 61.74 29.47 56.85 26.07 M 66.85 26.07 C 66.75 31.01 73.77 31.51 74.94 36.09 C 75.24 47.69 74.76 59.31 75.06 70.91 C 76.32 73.07 78.13 75.93 80.90 76.09 C 81.16 63.16 81.12 50.20 80.81 37.27 C 76.68 32.94 71.74 29.47 66.85 26.07 M 76.85 26.07 C 76.75 31.01 83.77 31.51 84.94 36.09 C 85.24 47.69 84.76 59.31 85.06 70.91 C 86.32 73.07 88.13 75.93 90.90 76.09 C 91.16 63.16 91.12 50.20 90.81 37.27 C 86.68 32.94 81.74 29.47 76.85 26.07 Z" />
<path fill="#9570a0" opacity="1.00" d=" M 61.25 87.19 C 66.15 84.97 69.32 92.61 64.36 94.42 C 59.78 97.19 56.64 89.14 61.25 87.19 Z" />
</g>
</svg>
