<?xml version="1.0" encoding="UTF-8" ?>
<!DOCTYPE svg PUBLIC "-//W3C//DTD SVG 1.1//EN" "http://www.w3.org/Graphics/SVG/1.1/DTD/svg11.dtd">
<svg width="117px" height="140px" viewBox="0 0 117 140" version="1.1" xmlns="http://www.w3.org/2000/svg">
<g id="#000000ff">
<path fill="#000000" opacity="1.00" d=" M 0.00 0.00 L 117.00 0.00 L 117.00 140.00 L 0.00 140.00 L 0.00 0.00 M 33.08 10.22 C 17.87 11.82 5.18 25.63 5.01 40.94 C 4.99 60.32 4.99 79.70 5.01 99.07 C 5.17 115.04 19.02 129.30 34.97 129.94 C 50.66 130.07 66.36 129.99 82.06 129.98 C 98.38 129.86 112.88 115.36 112.99 99.04 C 112.98 79.34 113.07 59.63 112.94 39.92 C 112.28 23.98 98.01 10.16 82.05 10.01 C 65.73 10.12 49.39 9.72 33.08 10.22 Z" />
<path fill="#000000" opacity="1.00" d=" M 33.24 12.36 C 48.12 11.69 63.04 12.27 77.94 12.06 C 84.63 11.81 91.53 13.08 97.16 16.88 C 105.62 22.16 110.95 32.01 110.90 41.96 C 110.97 58.97 110.89 75.98 110.94 92.99 C 111.11 99.31 110.77 105.91 107.62 111.55 C 102.79 121.46 92.03 127.94 81.05 127.90 C 65.69 127.89 50.32 128.07 34.97 127.81 C 20.12 127.15 7.27 113.87 7.13 99.01 C 7.03 79.66 7.03 60.30 7.13 40.96 C 7.34 26.74 19.08 13.84 33.24 12.36 M 46.06 28.18 C 46.08 34.01 46.12 39.84 46.06 45.68 C 43.73 45.67 41.40 45.68 39.07 45.71 C 39.36 50.38 38.85 55.08 39.36 59.72 C 41.56 63.32 46.49 60.79 49.78 61.96 C 52.74 64.60 55.40 67.55 58.32 70.24 C 54.66 70.35 51.00 70.32 47.34 70.33 C 47.38 72.89 47.39 75.44 47.34 78.00 C 55.57 77.81 63.85 78.41 72.06 77.67 C 71.80 77.23 71.27 76.33 71.01 75.89 C 64.06 75.37 57.06 75.84 50.09 75.66 C 50.07 75.02 50.03 73.75 50.02 73.11 C 53.61 73.01 57.21 73.06 60.81 72.97 C 60.82 72.27 60.84 70.86 60.85 70.16 C 63.27 67.79 65.63 65.36 68.05 62.99 C 70.99 59.61 77.13 63.97 79.63 59.75 C 80.15 55.10 79.64 50.38 79.93 45.71 C 77.60 45.68 75.27 45.68 72.95 45.68 C 72.88 39.85 72.90 34.02 72.95 28.19 C 63.99 28.13 55.03 28.15 46.06 28.18 Z" />
<path fill="#000000" opacity="1.00" d=" M 48.78 31.04 C 55.93 31.02 63.09 31.03 70.24 31.03 C 70.22 36.78 70.35 42.53 70.15 48.28 C 72.41 48.32 74.68 48.33 76.95 48.34 C 76.93 51.87 76.93 55.40 76.95 58.93 C 65.32 58.99 53.68 58.99 42.05 58.93 C 42.07 55.39 42.06 51.86 42.07 48.32 C 48.79 48.31 55.51 48.33 62.22 48.32 C 62.22 47.66 62.22 46.34 62.22 45.68 C 57.70 45.66 53.18 45.73 48.66 45.62 C 48.71 43.84 48.77 42.05 48.84 40.26 C 53.30 40.37 57.76 40.32 62.22 40.32 C 62.22 39.66 62.22 38.34 62.22 37.68 C 57.71 37.67 53.20 37.71 48.70 37.64 C 48.74 35.44 48.75 33.24 48.78 31.04 Z" />
<path fill="#000000" opacity="1.00" d=" M 53.20 61.71 C 57.39 61.67 61.58 61.67 65.77 61.69 C 63.65 63.74 61.55 65.79 59.42 67.82 C 57.42 65.70 55.34 63.68 53.20 61.71 Z" />
</g>
<g id="#6e6f6eff">
<path fill="#6e6f6e" opacity="1.00" d=" M 33.08 10.22 C 49.39 9.72 65.73 10.12 82.05 10.01 C 98.01 10.16 112.28 23.98 112.94 39.92 C 113.07 59.63 112.98 79.34 112.99 99.04 C 112.88 115.36 98.38 129.86 82.06 129.98 C 66.36 129.99 50.66 130.07 34.97 129.94 C 19.02 129.30 5.17 115.04 5.01 99.07 C 4.99 79.70 4.99 60.32 5.01 40.94 C 5.18 25.63 17.87 11.82 33.08 10.22 M 33.24 12.36 C 19.08 13.84 7.34 26.74 7.13 40.96 C 7.03 60.30 7.03 79.66 7.13 99.01 C 7.27 113.87 20.12 127.15 34.97 127.81 C 50.32 128.07 65.69 127.89 81.05 127.90 C 92.03 127.94 102.79 121.46 107.62 111.55 C 110.77 105.91 111.11 99.31 110.94 92.99 C 110.89 75.98 110.97 58.97 110.90 41.96 C 110.95 32.01 105.62 22.16 97.16 16.88 C 91.53 13.08 84.63 11.81 77.94 12.06 C 63.04 12.27 48.12 11.69 33.24 12.36 Z" />
</g>
<g id="#f6faf6ff">
<path fill="#f6faf6" opacity="1.00" d=" M 46.06 28.18 C 55.03 28.15 63.99 28.13 72.95 28.19 C 72.90 34.02 72.88 39.85 72.95 45.68 C 75.27 45.68 77.60 45.68 79.93 45.71 C 79.64 50.38 80.15 55.10 79.63 59.75 C 77.13 63.97 70.99 59.61 68.05 62.99 C 65.63 65.36 63.27 67.79 60.85 70.16 C 60.84 70.86 60.82 72.27 60.81 72.97 C 57.21 73.06 53.61 73.01 50.02 73.11 C 50.03 73.75 50.07 75.02 50.09 75.66 C 57.06 75.84 64.06 75.37 71.01 75.89 C 71.27 76.33 71.80 77.23 72.06 77.67 C 63.85 78.41 55.57 77.81 47.34 78.00 C 47.39 75.44 47.38 72.89 47.34 70.33 C 51.00 70.32 54.66 70.35 58.32 70.24 C 55.40 67.55 52.74 64.60 49.78 61.96 C 46.49 60.79 41.56 63.32 39.36 59.72 C 38.85 55.08 39.36 50.38 39.07 45.71 C 41.40 45.68 43.73 45.67 46.06 45.68 C 46.12 39.84 46.08 34.01 46.06 28.18 M 48.78 31.04 C 48.75 33.24 48.74 35.44 48.70 37.64 C 53.20 37.71 57.71 37.67 62.22 37.68 C 62.22 38.34 62.22 39.66 62.22 40.32 C 57.76 40.32 53.30 40.37 48.84 40.26 C 48.77 42.05 48.71 43.84 48.66 45.62 C 53.18 45.73 57.70 45.66 62.22 45.68 C 62.22 46.34 62.22 47.66 62.22 48.32 C 55.51 48.33 48.79 48.31 42.07 48.32 C 42.06 51.86 42.07 55.39 42.05 58.93 C 53.68 58.99 65.32 58.99 76.95 58.93 C 76.93 55.40 76.93 51.87 76.95 48.34 C 74.68 48.33 72.41 48.32 70.15 48.28 C 70.35 42.53 70.22 36.78 70.24 31.03 C 63.09 31.03 55.93 31.02 48.78 31.04 M 53.20 61.71 C 55.34 63.68 57.42 65.70 59.42 67.82 C 61.55 65.79 63.65 63.74 65.77 61.69 C 61.58 61.67 57.39 61.67 53.20 61.71 Z" />
</g>
</svg>
