<?xml version="1.0" encoding="UTF-8" ?>
<!DOCTYPE svg PUBLIC "-//W3C//DTD SVG 1.1//EN" "http://www.w3.org/Graphics/SVG/1.1/DTD/svg11.dtd">
<svg width="117px" height="140px" viewBox="0 0 117 140" version="1.1" xmlns="http://www.w3.org/2000/svg">
<g id="#000000ff">
<path fill="#000000" opacity="1.00" d=" M 0.00 0.00 L 117.00 0.00 L 117.00 140.00 L 0.00 140.00 L 0.00 0.00 M 33.23 10.28 C 18.00 11.78 5.25 25.61 5.09 40.93 C 4.99 59.97 5.06 79.00 5.05 98.04 C 4.95 109.07 11.13 119.85 20.63 125.43 C 25.84 128.59 31.94 130.08 38.01 129.96 C 53.02 129.88 68.04 130.10 83.05 129.85 C 98.94 129.25 112.78 115.01 112.90 99.10 C 113.02 80.07 112.95 61.03 112.93 41.99 C 113.07 30.96 106.90 20.20 97.42 14.61 C 91.90 11.21 85.36 9.82 78.92 10.03 C 63.69 10.21 48.44 9.72 33.23 10.28 Z" />
<path fill="#000000" opacity="1.00" d=" M 33.29 12.30 C 49.54 11.79 65.82 12.14 82.08 12.12 C 97.30 12.17 110.88 25.76 110.88 40.98 C 110.97 60.33 110.97 79.68 110.88 99.03 C 110.88 114.26 97.27 127.85 82.04 127.88 C 66.69 127.98 51.33 127.96 35.97 127.89 C 20.77 127.85 7.16 114.32 7.12 99.11 C 7.03 79.72 7.02 60.33 7.12 40.95 C 7.18 26.69 19.11 13.69 33.29 12.30 M 29.21 24.20 C 29.00 35.54 29.18 46.88 29.11 58.23 C 27.57 59.37 26.10 60.92 26.41 63.01 C 25.79 69.80 27.25 77.61 33.27 81.68 C 40.34 86.25 47.14 91.27 54.38 95.53 C 59.39 95.31 65.31 97.15 69.46 93.48 C 75.76 89.09 82.34 85.09 88.53 80.55 C 94.27 75.56 94.46 67.36 93.58 60.41 C 92.48 58.05 89.79 58.14 87.59 58.13 C 87.25 53.44 87.74 48.63 86.43 44.05 C 84.71 38.55 80.22 34.24 75.04 31.92 C 68.21 28.83 60.46 28.56 53.13 29.56 C 45.50 30.81 37.61 34.96 34.55 42.44 C 32.16 47.25 33.61 52.73 32.84 57.82 L 31.89 58.72 C 31.66 50.11 31.84 41.50 31.79 32.89 C 33.99 32.48 36.36 32.42 38.39 31.39 C 40.22 29.26 42.82 27.24 42.95 24.22 C 38.38 23.91 33.78 23.93 29.21 24.20 M 49.67 100.97 C 49.67 104.64 49.67 108.32 49.68 111.99 C 50.19 111.99 51.23 111.99 51.74 111.99 C 51.74 110.70 51.73 109.42 51.73 108.13 C 53.23 107.80 55.09 108.28 56.36 107.27 C 57.29 105.80 57.05 103.87 56.68 102.26 C 55.12 100.13 51.92 101.36 49.67 100.97 M 58.72 101.24 C 58.61 104.74 58.61 108.26 58.72 111.76 C 59.22 111.88 60.21 112.10 60.71 112.22 C 60.75 108.41 60.75 104.60 60.72 100.79 C 60.22 100.90 59.22 101.13 58.72 101.24 M 61.68 100.95 C 61.67 104.65 61.67 108.35 61.68 112.05 C 64.19 111.73 67.47 112.70 69.29 110.42 C 70.68 108.06 70.65 104.95 69.29 102.58 C 67.48 100.30 64.18 101.28 61.68 100.95 Z" />
<path fill="#000000" opacity="1.00" d=" M 47.73 33.86 C 58.58 30.01 72.05 30.90 80.78 39.05 C 79.90 39.84 79.02 40.64 78.14 41.44 C 78.14 43.31 78.08 45.18 78.25 47.05 C 78.84 48.00 79.97 47.39 80.83 47.31 C 80.82 44.89 80.36 42.27 81.80 40.13 C 82.93 42.84 83.96 45.60 84.48 48.51 C 68.28 48.54 52.09 48.46 35.90 48.55 C 36.53 41.79 41.37 36.04 47.73 33.86 M 70.19 40.88 C 70.17 42.92 70.05 44.97 70.29 47.00 C 70.81 47.98 72.04 47.44 72.87 47.31 C 72.84 45.18 72.86 43.05 72.83 40.92 C 71.95 40.91 71.07 40.89 70.19 40.88 M 74.21 40.87 C 74.15 43.02 74.16 45.17 74.12 47.33 C 74.99 47.35 75.98 47.88 76.72 47.16 C 76.93 45.08 76.83 42.99 76.82 40.91 C 75.95 40.90 75.08 40.89 74.21 40.87 Z" />
<path fill="#000000" opacity="1.00" d=" M 39.10 57.38 C 53.17 57.23 67.25 57.27 81.33 57.36 C 75.96 60.19 69.97 61.47 64.03 62.45 C 63.83 62.60 63.43 62.88 63.23 63.03 C 63.07 73.04 64.43 83.01 64.40 93.03 C 61.55 93.03 58.70 93.03 55.85 93.02 C 56.20 83.00 57.11 72.99 57.10 62.95 C 51.19 61.14 44.62 60.60 39.10 57.38 Z" />
<path fill="#000000" opacity="1.00" d=" M 32.89 76.05 C 33.50 71.99 34.24 67.94 34.88 63.88 C 38.06 65.69 41.61 67.26 43.80 70.31 C 47.36 75.80 48.49 82.43 48.70 88.86 C 44.30 85.71 39.74 82.79 35.27 79.75 C 34.07 78.89 32.36 77.82 32.89 76.05 Z" />
<path fill="#000000" opacity="1.00" d=" M 76.89 70.86 C 79.09 67.79 82.38 65.79 85.59 63.93 C 85.87 68.63 87.72 73.26 87.16 77.96 C 82.38 82.06 76.74 85.07 71.66 88.80 C 71.69 82.51 72.96 75.93 76.89 70.86 Z" />
<path fill="#000000" opacity="1.00" d=" M 51.81 106.36 C 51.78 105.14 51.79 103.92 51.78 102.70 C 53.08 103.12 54.38 103.55 55.67 103.99 C 54.91 105.51 53.31 105.93 51.81 106.36 Z" />
<path fill="#000000" opacity="1.00" d=" M 63.76 102.76 C 65.45 103.33 68.30 103.54 68.25 105.97 C 69.02 108.88 65.91 109.82 63.76 110.24 C 63.73 107.75 63.73 105.25 63.76 102.76 Z" />
</g>
<g id="#7d7e7dff">
<path fill="#7d7e7d" opacity="1.00" d=" M 33.23 10.28 C 48.44 9.72 63.69 10.21 78.92 10.03 C 85.36 9.82 91.90 11.21 97.42 14.61 C 106.90 20.20 113.07 30.96 112.93 41.99 C 112.95 61.03 113.02 80.07 112.90 99.10 C 112.78 115.01 98.94 129.25 83.05 129.85 C 68.04 130.10 53.02 129.88 38.01 129.96 C 31.94 130.08 25.84 128.59 20.63 125.43 C 11.13 119.85 4.95 109.07 5.05 98.04 C 5.06 79.00 4.99 59.97 5.09 40.93 C 5.25 25.61 18.00 11.78 33.23 10.28 M 33.29 12.30 C 19.11 13.69 7.18 26.69 7.12 40.95 C 7.02 60.33 7.03 79.72 7.12 99.11 C 7.16 114.32 20.77 127.85 35.97 127.89 C 51.33 127.96 66.69 127.98 82.04 127.88 C 97.27 127.85 110.88 114.26 110.88 99.03 C 110.97 79.68 110.97 60.33 110.88 40.98 C 110.88 25.76 97.30 12.17 82.08 12.12 C 65.82 12.14 49.54 11.79 33.29 12.30 Z" />
</g>
<g id="#f5f9f5ff">
<path fill="#f5f9f5" opacity="1.00" d=" M 29.21 24.20 C 33.78 23.93 38.38 23.91 42.95 24.22 C 42.82 27.24 40.22 29.26 38.39 31.39 C 36.36 32.42 33.99 32.48 31.79 32.89 C 31.84 41.50 31.66 50.11 31.89 58.72 L 32.84 57.82 C 33.61 52.73 32.16 47.25 34.55 42.44 C 37.61 34.96 45.50 30.81 53.13 29.56 C 60.46 28.56 68.21 28.83 75.04 31.92 C 80.22 34.24 84.71 38.55 86.43 44.05 C 87.74 48.63 87.25 53.44 87.59 58.13 C 89.79 58.14 92.48 58.05 93.58 60.41 C 94.46 67.36 94.27 75.56 88.53 80.55 C 82.34 85.09 75.76 89.09 69.46 93.48 C 65.31 97.15 59.39 95.31 54.38 95.53 C 47.14 91.27 40.34 86.25 33.27 81.68 C 27.25 77.61 25.79 69.80 26.41 63.01 C 26.10 60.92 27.57 59.37 29.11 58.23 C 29.18 46.88 29.00 35.54 29.21 24.20 M 31.71 26.60 C 31.72 27.82 31.74 29.04 31.75 30.26 C 33.40 29.96 35.05 29.69 36.69 29.39 C 37.44 28.44 38.20 27.50 38.97 26.57 C 36.54 26.59 34.13 26.61 31.71 26.60 M 47.73 33.86 C 41.37 36.04 36.53 41.79 35.90 48.55 C 52.09 48.46 68.28 48.54 84.48 48.51 C 83.96 45.60 82.93 42.84 81.80 40.13 C 80.36 42.27 80.82 44.89 80.83 47.31 C 79.97 47.39 78.84 48.00 78.25 47.05 C 78.08 45.18 78.14 43.31 78.14 41.44 C 79.02 40.64 79.90 39.84 80.78 39.05 C 72.05 30.90 58.58 30.01 47.73 33.86 M 35.78 51.21 C 35.75 54.48 35.57 57.74 35.17 60.99 C 39.11 63.19 43.45 65.20 46.12 69.01 C 50.30 75.38 51.20 83.13 51.58 90.55 C 51.98 90.91 52.79 91.62 53.19 91.97 C 53.85 82.87 54.18 73.75 54.59 64.63 C 48.61 63.70 42.71 62.19 37.18 59.70 C 37.17 58.21 37.00 56.69 37.33 55.22 C 38.67 54.17 40.52 54.75 42.08 54.57 C 55.04 54.65 68.00 54.54 80.96 54.61 C 83.78 54.13 83.92 58.14 82.74 59.73 C 77.49 62.51 71.53 63.58 65.74 64.66 C 66.01 73.79 66.81 82.89 67.08 92.02 C 67.90 91.17 69.41 90.53 69.05 89.06 C 68.96 82.00 70.51 74.63 74.96 68.99 C 77.62 65.48 81.46 63.21 85.21 61.05 C 84.98 57.77 84.67 54.50 84.63 51.22 C 68.34 51.25 52.06 51.27 35.78 51.21 M 39.10 57.38 C 44.62 60.60 51.19 61.14 57.10 62.95 C 57.11 72.99 56.20 83.00 55.85 93.02 C 58.70 93.03 61.55 93.03 64.40 93.03 C 64.43 83.01 63.07 73.04 63.23 63.03 C 63.43 62.88 63.83 62.60 64.03 62.45 C 69.97 61.47 75.96 60.19 81.33 57.36 C 67.25 57.27 53.17 57.23 39.10 57.38 M 29.15 61.09 C 28.98 65.55 28.76 70.16 30.49 74.38 C 31.39 69.95 31.94 65.45 32.50 60.96 C 31.38 61.02 30.27 61.06 29.15 61.09 M 87.78 60.88 C 88.52 65.29 88.94 69.75 89.81 74.14 C 91.78 70.01 91.16 65.36 91.12 60.94 C 90.29 60.93 88.61 60.90 87.78 60.88 M 32.89 76.05 C 32.36 77.82 34.07 78.89 35.27 79.75 C 39.74 82.79 44.30 85.71 48.70 88.86 C 48.49 82.43 47.36 75.80 43.80 70.31 C 41.61 67.26 38.06 65.69 34.88 63.88 C 34.24 67.94 33.50 71.99 32.89 76.05 M 76.89 70.86 C 72.96 75.93 71.69 82.51 71.66 88.80 C 76.74 85.07 82.38 82.06 87.16 77.96 C 87.72 73.26 85.87 68.63 85.59 63.93 C 82.38 65.79 79.09 67.79 76.89 70.86 Z" />
<path fill="#f5f9f5" opacity="1.00" d=" M 70.19 40.88 C 71.07 40.89 71.95 40.91 72.83 40.92 C 72.86 43.05 72.84 45.18 72.87 47.31 C 72.04 47.44 70.81 47.98 70.29 47.00 C 70.05 44.97 70.17 42.92 70.19 40.88 Z" />
<path fill="#f5f9f5" opacity="1.00" d=" M 74.21 40.87 C 75.08 40.89 75.95 40.90 76.82 40.91 C 76.83 42.99 76.93 45.08 76.72 47.16 C 75.98 47.88 74.99 47.35 74.12 47.33 C 74.16 45.17 74.15 43.02 74.21 40.87 Z" />
<path fill="#f5f9f5" opacity="1.00" d=" M 49.67 100.97 C 51.92 101.36 55.12 100.13 56.68 102.26 C 57.05 103.87 57.29 105.80 56.36 107.27 C 55.09 108.28 53.23 107.80 51.73 108.13 C 51.73 109.42 51.74 110.70 51.74 111.99 C 51.23 111.99 50.19 111.99 49.68 111.99 C 49.67 108.32 49.67 104.64 49.67 100.97 M 51.81 106.36 C 53.31 105.93 54.91 105.51 55.67 103.99 C 54.38 103.55 53.08 103.12 51.78 102.70 C 51.79 103.92 51.78 105.14 51.81 106.36 Z" />
<path fill="#f5f9f5" opacity="1.00" d=" M 58.72 101.24 C 59.22 101.13 60.22 100.90 60.72 100.79 C 60.75 104.60 60.75 108.41 60.71 112.22 C 60.21 112.10 59.22 111.88 58.72 111.76 C 58.61 108.26 58.61 104.74 58.72 101.24 Z" />
<path fill="#f5f9f5" opacity="1.00" d=" M 61.68 100.95 C 64.18 101.28 67.48 100.30 69.29 102.58 C 70.65 104.95 70.68 108.06 69.29 110.42 C 67.47 112.70 64.19 111.73 61.68 112.05 C 61.67 108.35 61.67 104.65 61.68 100.95 M 63.76 102.76 C 63.73 105.25 63.73 107.75 63.76 110.24 C 65.91 109.82 69.02 108.88 68.25 105.97 C 68.30 103.54 65.45 103.33 63.76 102.76 Z" />
</g>
<g id="#303430ff">
<path fill="#303430" opacity="1.00" d=" M 31.71 26.60 C 34.13 26.61 36.54 26.59 38.97 26.57 C 38.20 27.50 37.44 28.44 36.69 29.39 C 35.05 29.69 33.40 29.96 31.75 30.26 C 31.74 29.04 31.72 27.82 31.71 26.60 Z" />
<path fill="#303430" opacity="1.00" d=" M 35.78 51.21 C 52.06 51.27 68.34 51.25 84.63 51.22 C 84.67 54.50 84.98 57.77 85.21 61.05 C 81.46 63.21 77.62 65.48 74.96 68.99 C 70.51 74.63 68.96 82.00 69.05 89.06 C 69.41 90.53 67.90 91.17 67.08 92.02 C 66.81 82.89 66.01 73.79 65.74 64.66 C 71.53 63.58 77.49 62.51 82.74 59.73 C 83.92 58.14 83.78 54.13 80.96 54.61 C 68.00 54.54 55.04 54.65 42.08 54.57 C 40.52 54.75 38.67 54.17 37.33 55.22 C 37.00 56.69 37.17 58.21 37.18 59.70 C 42.71 62.19 48.61 63.70 54.59 64.63 C 54.18 73.75 53.85 82.87 53.19 91.97 C 52.79 91.62 51.98 90.91 51.58 90.55 C 51.20 83.13 50.30 75.38 46.12 69.01 C 43.45 65.20 39.11 63.19 35.17 60.99 C 35.57 57.74 35.75 54.48 35.78 51.21 Z" />
<path fill="#303430" opacity="1.00" d=" M 29.15 61.09 C 30.27 61.06 31.38 61.02 32.50 60.96 C 31.94 65.45 31.39 69.95 30.49 74.38 C 28.76 70.16 28.98 65.55 29.15 61.09 Z" />
<path fill="#303430" opacity="1.00" d=" M 87.78 60.88 C 88.61 60.90 90.29 60.93 91.12 60.94 C 91.16 65.36 91.78 70.01 89.81 74.14 C 88.94 69.75 88.52 65.29 87.78 60.88 Z" />
</g>
</svg>
