<?xml version="1.0" encoding="UTF-8" ?>
<!DOCTYPE svg PUBLIC "-//W3C//DTD SVG 1.1//EN" "http://www.w3.org/Graphics/SVG/1.1/DTD/svg11.dtd">
<svg width="117px" height="140px" viewBox="0 0 117 140" version="1.1" xmlns="http://www.w3.org/2000/svg">
<g id="#000000ff">
<path fill="#000000" opacity="1.00" d=" M 0.00 0.00 L 117.00 0.00 L 117.00 140.00 L 0.00 140.00 L 0.00 0.00 M 32.34 10.38 C 22.46 11.75 13.44 18.09 8.80 26.92 C 5.88 32.10 4.91 38.11 4.96 43.99 C 5.03 62.01 4.93 80.04 5.01 98.06 C 4.96 109.09 11.07 119.92 20.63 125.46 C 25.82 128.64 31.91 130.12 37.98 130.03 C 52.34 129.99 66.70 130.05 81.05 130.01 C 92.60 130.08 103.86 123.32 109.19 113.08 C 112.33 107.62 113.15 101.21 113.04 95.00 C 112.93 76.98 113.14 58.95 112.95 40.93 C 112.72 28.71 104.72 17.13 93.40 12.53 C 84.78 8.68 75.14 10.31 66.00 9.99 C 54.79 10.23 43.53 9.47 32.34 10.38 Z" />
<path fill="#000000" opacity="1.00" d=" M 32.33 12.41 C 47.18 11.47 62.11 12.32 76.99 11.98 C 84.00 11.71 91.29 12.81 97.24 16.76 C 104.57 21.41 109.66 29.43 110.71 38.05 C 111.38 56.67 110.75 75.35 111.02 93.99 C 111.13 99.53 110.81 105.26 108.35 110.33 C 103.91 120.60 93.24 127.69 82.07 127.92 C 68.05 128.12 54.02 127.89 40.00 128.02 C 34.54 128.12 28.94 127.49 23.99 125.02 C 13.76 120.29 6.89 109.31 7.02 98.05 C 7.03 79.01 6.96 59.96 7.05 40.92 C 7.23 26.97 18.49 14.24 32.33 12.41 M 41.57 47.20 C 43.56 47.95 45.58 48.62 47.62 49.18 C 48.24 47.76 48.85 46.35 49.47 44.94 C 50.00 47.78 50.79 50.57 51.90 53.25 C 53.63 52.60 55.35 51.94 57.07 51.25 C 56.76 49.17 56.48 47.07 56.25 44.97 C 57.22 45.63 58.19 46.30 59.16 46.97 C 57.95 48.73 57.45 50.79 57.45 52.91 C 60.85 52.99 64.25 53.03 67.65 53.14 C 67.05 57.53 69.15 62.88 65.98 66.52 C 65.48 62.44 65.60 58.33 65.67 54.24 C 61.19 54.13 56.70 54.13 52.22 54.22 C 52.14 59.13 52.15 64.04 52.17 68.95 C 56.25 68.95 60.34 68.96 64.41 69.24 C 64.80 70.40 65.18 71.57 65.57 72.73 C 68.24 72.46 71.77 73.16 73.53 70.61 C 74.37 66.80 73.91 62.86 74.03 58.99 C 73.90 54.50 74.78 49.65 72.32 45.60 C 73.43 45.31 74.54 45.02 75.65 44.72 C 75.66 42.97 75.67 41.22 75.70 39.47 C 70.67 39.63 65.75 38.59 60.87 37.50 C 60.10 39.30 59.32 41.10 58.58 42.91 C 58.54 42.13 58.47 40.56 58.44 39.78 C 54.21 39.70 50.18 38.43 46.06 37.66 C 43.60 40.16 43.15 44.10 41.57 47.20 M 44.17 49.72 C 44.17 57.24 44.17 64.76 44.17 72.28 C 46.25 72.33 48.33 72.36 50.42 72.38 C 50.64 64.79 50.71 57.19 50.37 49.61 C 48.30 49.63 46.24 49.66 44.17 49.72 Z" />
<path fill="#000000" opacity="1.00" d=" M 64.17 45.36 C 65.61 44.21 67.36 46.67 65.82 47.67 C 64.38 48.82 62.63 46.36 64.17 45.36 Z" />
<path fill="#000000" opacity="1.00" d=" M 58.26 64.03 C 61.25 62.48 58.42 67.36 58.26 64.03 Z" />
</g>
<g id="#747474ff">
<path fill="#747474" opacity="1.00" d=" M 32.34 10.38 C 43.53 9.47 54.79 10.23 66.00 9.99 C 75.14 10.31 84.78 8.68 93.40 12.53 C 104.72 17.13 112.72 28.71 112.95 40.93 C 113.14 58.95 112.93 76.98 113.04 95.00 C 113.15 101.21 112.33 107.62 109.19 113.08 C 103.86 123.32 92.60 130.08 81.05 130.01 C 66.70 130.05 52.34 129.99 37.98 130.03 C 31.91 130.12 25.82 128.64 20.63 125.46 C 11.07 119.92 4.96 109.09 5.01 98.06 C 4.93 80.04 5.03 62.01 4.96 43.99 C 4.91 38.11 5.88 32.10 8.80 26.92 C 13.44 18.09 22.46 11.75 32.34 10.38 M 32.33 12.41 C 18.49 14.24 7.23 26.97 7.05 40.92 C 6.96 59.96 7.03 79.01 7.02 98.05 C 6.89 109.31 13.76 120.29 23.99 125.02 C 28.94 127.49 34.54 128.12 40.00 128.02 C 54.02 127.89 68.05 128.12 82.07 127.92 C 93.24 127.69 103.91 120.60 108.35 110.33 C 110.81 105.26 111.13 99.53 111.02 93.99 C 110.75 75.35 111.38 56.67 110.71 38.05 C 109.66 29.43 104.57 21.41 97.24 16.76 C 91.29 12.81 84.00 11.71 76.99 11.98 C 62.11 12.32 47.18 11.47 32.33 12.41 Z" />
<path fill="#747474" opacity="1.00" d=" M 58.26 58.19 C 61.23 56.63 58.42 61.53 58.26 58.19 Z" />
</g>
<g id="#f8fcf8ff">
<path fill="#f8fcf8" opacity="1.00" d=" M 41.57 47.20 C 43.15 44.10 43.60 40.16 46.06 37.66 C 50.18 38.43 54.21 39.70 58.44 39.78 C 58.47 40.56 58.54 42.13 58.58 42.91 C 59.32 41.10 60.10 39.30 60.87 37.50 C 65.75 38.59 70.67 39.63 75.70 39.47 C 75.67 41.22 75.66 42.97 75.65 44.72 C 74.54 45.02 73.43 45.31 72.32 45.60 C 74.78 49.65 73.90 54.50 74.03 58.99 C 73.91 62.86 74.37 66.80 73.53 70.61 C 71.77 73.16 68.24 72.46 65.57 72.73 C 65.18 71.57 64.80 70.40 64.41 69.24 C 60.34 68.96 56.25 68.95 52.17 68.95 C 52.15 64.04 52.14 59.13 52.22 54.22 C 56.70 54.13 61.19 54.13 65.67 54.24 C 65.60 58.33 65.48 62.44 65.98 66.52 C 69.15 62.88 67.05 57.53 67.65 53.14 C 64.25 53.03 60.85 52.99 57.45 52.91 C 57.45 50.79 57.95 48.73 59.16 46.97 C 58.19 46.30 57.22 45.63 56.25 44.97 C 56.48 47.07 56.76 49.17 57.07 51.25 C 55.35 51.94 53.63 52.60 51.90 53.25 C 50.79 50.57 50.00 47.78 49.47 44.94 C 48.85 46.35 48.24 47.76 47.62 49.18 C 45.58 48.62 43.56 47.95 41.57 47.20 M 64.17 45.36 C 62.63 46.36 64.38 48.82 65.82 47.67 C 67.36 46.67 65.61 44.21 64.17 45.36 M 58.26 58.19 C 58.42 61.53 61.23 56.63 58.26 58.19 M 58.26 64.03 C 58.42 67.36 61.25 62.48 58.26 64.03 Z" />
<path fill="#f8fcf8" opacity="1.00" d=" M 44.17 49.72 C 46.24 49.66 48.30 49.63 50.37 49.61 C 50.71 57.19 50.64 64.79 50.42 72.38 C 48.33 72.36 46.25 72.33 44.17 72.28 C 44.17 64.76 44.17 57.24 44.17 49.72 Z" />
</g>
</svg>
