<?xml version="1.0" encoding="UTF-8" ?>
<!DOCTYPE svg PUBLIC "-//W3C//DTD SVG 1.1//EN" "http://www.w3.org/Graphics/SVG/1.1/DTD/svg11.dtd">
<svg width="117px" height="140px" viewBox="0 0 117 140" version="1.1" xmlns="http://www.w3.org/2000/svg">
<g id="#000000ff">
<path fill="#000000" opacity="1.00" d=" M 0.00 0.00 L 117.00 0.00 L 117.00 140.00 L 0.00 140.00 L 0.00 0.00 M 33.14 10.24 C 17.92 11.81 5.23 25.62 5.03 40.93 C 4.96 59.95 5.02 78.98 5.00 98.01 C 4.95 106.86 8.84 115.61 15.38 121.56 C 21.44 127.21 29.76 130.23 38.03 130.02 C 53.03 129.92 68.05 130.14 83.05 129.91 C 99.00 129.27 112.85 114.97 112.96 99.00 C 113.05 80.00 112.98 61.00 112.99 41.99 C 113.04 33.37 109.37 24.83 103.11 18.91 C 97.01 12.97 88.46 9.77 79.98 9.98 C 64.37 10.17 48.74 9.67 33.14 10.24 Z" />
<path fill="#000000" opacity="1.00" d=" M 30.54 12.67 C 34.32 11.84 38.21 12.00 42.05 12.00 C 55.73 12.06 69.41 11.88 83.08 12.09 C 97.93 12.74 110.85 26.06 110.96 40.94 C 111.02 60.29 111.02 79.65 110.96 99.00 C 110.90 114.27 97.30 127.87 82.03 127.95 C 66.32 128.01 50.61 128.08 34.91 127.91 C 20.07 127.26 7.16 113.94 7.03 99.07 C 6.98 79.71 6.98 60.35 7.03 40.99 C 7.18 27.63 17.51 15.38 30.54 12.67 M 49.80 28.02 C 49.88 37.60 49.82 47.17 49.83 56.75 C 43.65 61.31 42.63 71.28 48.20 76.71 C 53.16 82.34 63.11 81.43 67.12 75.13 C 71.48 69.44 69.69 60.99 64.16 56.75 C 64.19 47.17 64.12 37.59 64.20 28.02 C 59.47 27.26 54.53 27.26 49.80 28.02 M 68.32 44.08 C 67.95 44.57 67.19 45.55 66.81 46.04 C 67.19 46.52 67.97 47.48 68.35 47.96 C 69.82 47.89 71.34 48.15 72.76 47.66 C 73.74 46.56 73.73 45.47 72.74 44.38 C 71.31 43.94 69.79 44.14 68.32 44.08 M 68.39 51.00 C 67.99 51.50 67.20 52.51 66.80 53.01 C 67.19 53.49 67.97 54.45 68.36 54.93 C 70.28 54.75 73.14 55.61 73.63 52.99 C 73.18 50.37 70.29 51.15 68.39 51.00 Z" />
<path fill="#000000" opacity="1.00" d=" M 53.38 31.20 C 55.79 31.27 58.21 31.27 60.63 31.21 C 60.13 40.35 60.60 49.53 60.37 58.68 C 66.58 61.60 67.79 71.26 61.99 75.16 C 57.56 78.44 50.33 76.27 48.82 70.87 C 46.96 66.30 49.36 60.92 53.63 58.69 C 53.41 49.53 53.86 40.36 53.38 31.20 M 54.99 44.00 C 54.96 49.33 55.25 54.66 55.07 59.99 C 52.82 61.82 49.69 63.64 49.84 66.99 C 49.34 70.28 51.82 72.96 54.42 74.52 C 59.51 76.84 65.40 71.15 64.06 65.96 C 63.67 63.11 60.88 61.69 58.93 59.98 C 58.75 54.66 59.04 49.33 59.01 44.00 C 57.67 44.00 56.33 44.00 54.99 44.00 Z" />
</g>
<g id="#747474ff">
<path fill="#747474" opacity="1.00" d=" M 33.14 10.24 C 48.74 9.67 64.37 10.17 79.98 9.98 C 88.46 9.77 97.01 12.97 103.11 18.91 C 109.37 24.83 113.04 33.37 112.99 41.99 C 112.98 61.00 113.05 80.00 112.96 99.00 C 112.85 114.97 99.00 129.27 83.05 129.91 C 68.05 130.14 53.03 129.92 38.03 130.02 C 29.76 130.23 21.44 127.21 15.38 121.56 C 8.84 115.61 4.95 106.86 5.00 98.01 C 5.02 78.98 4.96 59.95 5.03 40.93 C 5.23 25.62 17.92 11.81 33.14 10.24 M 30.54 12.67 C 17.51 15.38 7.18 27.63 7.03 40.99 C 6.98 60.35 6.98 79.71 7.03 99.07 C 7.16 113.94 20.07 127.26 34.91 127.91 C 50.61 128.08 66.32 128.01 82.03 127.95 C 97.30 127.87 110.90 114.27 110.96 99.00 C 111.02 79.65 111.02 60.29 110.96 40.94 C 110.85 26.06 97.93 12.74 83.08 12.09 C 69.41 11.88 55.73 12.06 42.05 12.00 C 38.21 12.00 34.32 11.84 30.54 12.67 Z" />
</g>
<g id="#f8fcf8ff">
<path fill="#f8fcf8" opacity="1.00" d=" M 49.80 28.02 C 54.53 27.26 59.47 27.26 64.20 28.02 C 64.12 37.59 64.19 47.17 64.16 56.75 C 69.69 60.99 71.48 69.44 67.12 75.13 C 63.11 81.43 53.16 82.34 48.20 76.71 C 42.63 71.28 43.65 61.31 49.83 56.75 C 49.82 47.17 49.88 37.60 49.80 28.02 M 53.38 31.20 C 53.86 40.36 53.41 49.53 53.63 58.69 C 49.36 60.92 46.96 66.30 48.82 70.87 C 50.33 76.27 57.56 78.44 61.99 75.16 C 67.79 71.26 66.58 61.60 60.37 58.68 C 60.60 49.53 60.13 40.35 60.63 31.21 C 58.21 31.27 55.79 31.27 53.38 31.20 Z" />
<path fill="#f8fcf8" opacity="1.00" d=" M 54.99 44.00 C 56.33 44.00 57.67 44.00 59.01 44.00 C 59.04 49.33 58.75 54.66 58.93 59.98 C 60.88 61.69 63.67 63.11 64.06 65.96 C 65.40 71.15 59.51 76.84 54.42 74.52 C 51.82 72.96 49.34 70.28 49.84 66.99 C 49.69 63.64 52.82 61.82 55.07 59.99 C 55.25 54.66 54.96 49.33 54.99 44.00 Z" />
<path fill="#f8fcf8" opacity="1.00" d=" M 68.32 44.08 C 69.79 44.14 71.31 43.94 72.74 44.38 C 73.73 45.47 73.74 46.56 72.76 47.66 C 71.34 48.15 69.82 47.89 68.35 47.96 C 67.97 47.48 67.19 46.52 66.81 46.04 C 67.19 45.55 67.95 44.57 68.32 44.08 Z" />
<path fill="#f8fcf8" opacity="1.00" d=" M 68.39 51.00 C 70.29 51.15 73.18 50.37 73.63 52.99 C 73.14 55.61 70.28 54.75 68.36 54.93 C 67.97 54.45 67.19 53.49 66.80 53.01 C 67.20 52.51 67.99 51.50 68.39 51.00 Z" />
</g>
</svg>
