<?xml version="1.0" encoding="UTF-8" ?>
<!DOCTYPE svg PUBLIC "-//W3C//DTD SVG 1.1//EN" "http://www.w3.org/Graphics/SVG/1.1/DTD/svg11.dtd">
<svg width="117px" height="140px" viewBox="0 0 117 140" version="1.1" xmlns="http://www.w3.org/2000/svg">
<g id="#000000ff">
<path fill="#000000" opacity="1.00" d=" M 0.00 0.00 L 117.00 0.00 L 117.00 140.00 L 0.00 140.00 L 0.00 0.00 M 33.16 10.24 C 17.91 11.80 5.19 25.65 5.03 41.00 C 4.96 60.00 5.02 79.00 5.00 98.00 C 4.95 106.88 8.87 115.65 15.44 121.60 C 21.49 127.23 29.79 130.22 38.03 130.02 C 53.04 129.91 68.05 130.15 83.06 129.90 C 98.99 129.27 112.83 114.99 112.96 99.05 C 113.03 79.70 113.03 60.34 112.96 40.98 C 112.86 24.62 98.33 10.15 81.98 10.04 C 65.71 10.10 49.42 9.71 33.16 10.24 Z" />
<path fill="#000000" opacity="1.00" d=" M 33.29 12.33 C 48.52 11.73 63.79 12.25 79.03 12.06 C 85.36 11.88 91.83 13.27 97.14 16.83 C 105.62 22.13 111.03 31.99 110.91 41.99 C 110.95 60.68 110.95 79.36 110.90 98.04 C 111.04 108.75 104.79 119.26 95.32 124.25 C 90.39 127.10 84.62 128.05 78.99 127.94 C 64.30 127.84 49.61 128.09 34.93 127.82 C 20.11 127.18 7.23 113.89 7.13 99.04 C 7.03 79.66 7.03 60.27 7.13 40.88 C 7.31 26.66 19.14 13.76 33.29 12.33 M 50.31 28.05 C 50.32 37.70 50.35 47.36 50.29 57.01 C 44.67 61.15 43.23 69.82 47.64 75.34 C 51.65 80.97 60.74 81.55 65.40 76.43 C 70.85 71.11 69.79 61.43 63.71 57.01 C 63.65 47.36 63.67 37.71 63.70 28.06 C 59.24 28.02 54.77 28.03 50.31 28.05 M 68.00 33.35 C 69.75 33.77 71.54 33.45 73.28 33.17 C 73.77 29.63 65.94 29.70 68.00 33.35 M 67.94 40.23 C 69.69 40.72 71.50 40.38 73.26 40.13 C 73.77 36.59 66.08 36.63 67.94 40.23 M 67.94 47.20 C 69.67 47.51 71.43 47.34 73.15 47.15 C 74.08 43.52 65.98 43.55 67.94 47.20 M 67.91 51.78 C 66.43 55.45 71.04 54.10 73.07 54.16 C 73.69 50.90 69.97 51.42 67.91 51.78 Z" />
<path fill="#000000" opacity="1.00" d=" M 52.95 30.77 C 55.65 30.77 58.36 30.77 61.07 30.77 C 60.93 40.03 61.02 49.29 61.01 58.55 C 65.86 61.31 68.08 68.05 64.80 72.83 C 61.87 78.08 53.73 78.75 50.04 73.98 C 45.84 69.39 47.52 61.57 52.90 58.69 C 53.13 49.39 52.94 40.08 52.95 30.77 M 55.66 46.75 C 55.69 51.32 55.67 55.88 55.71 60.45 C 54.01 61.42 52.05 62.28 51.18 64.17 C 48.97 67.79 51.09 72.99 55.12 74.18 C 59.51 75.75 64.27 71.37 63.68 66.92 C 63.51 63.82 61.01 61.58 58.30 60.48 C 58.32 55.90 58.31 51.33 58.34 46.75 C 57.67 46.75 56.33 46.75 55.66 46.75 Z" />
</g>
<g id="#747574ff">
<path fill="#747574" opacity="1.00" d=" M 33.16 10.24 C 49.42 9.71 65.71 10.10 81.98 10.04 C 98.33 10.15 112.86 24.62 112.96 40.98 C 113.03 60.34 113.03 79.70 112.96 99.05 C 112.83 114.99 98.99 129.27 83.06 129.90 C 68.05 130.15 53.04 129.91 38.03 130.02 C 29.79 130.22 21.49 127.23 15.44 121.60 C 8.87 115.65 4.95 106.88 5.00 98.00 C 5.02 79.00 4.96 60.00 5.03 41.00 C 5.19 25.65 17.91 11.80 33.16 10.24 M 33.29 12.33 C 19.14 13.76 7.31 26.66 7.13 40.88 C 7.03 60.27 7.03 79.66 7.13 99.04 C 7.23 113.89 20.11 127.18 34.93 127.82 C 49.61 128.09 64.30 127.84 78.99 127.94 C 84.62 128.05 90.39 127.10 95.32 124.25 C 104.79 119.26 111.04 108.75 110.90 98.04 C 110.95 79.36 110.95 60.68 110.91 41.99 C 111.03 31.99 105.62 22.13 97.14 16.83 C 91.83 13.27 85.36 11.88 79.03 12.06 C 63.79 12.25 48.52 11.73 33.29 12.33 Z" />
</g>
<g id="#f8fcf8ff">
<path fill="#f8fcf8" opacity="1.00" d=" M 50.31 28.05 C 54.77 28.03 59.24 28.02 63.70 28.06 C 63.67 37.71 63.65 47.36 63.71 57.01 C 69.79 61.43 70.85 71.11 65.40 76.43 C 60.74 81.55 51.65 80.97 47.64 75.34 C 43.23 69.82 44.67 61.15 50.29 57.01 C 50.35 47.36 50.32 37.70 50.31 28.05 M 52.95 30.77 C 52.94 40.08 53.13 49.39 52.90 58.69 C 47.52 61.57 45.84 69.39 50.04 73.98 C 53.73 78.75 61.87 78.08 64.80 72.83 C 68.08 68.05 65.86 61.31 61.01 58.55 C 61.02 49.29 60.93 40.03 61.07 30.77 C 58.36 30.77 55.65 30.77 52.95 30.77 Z" />
<path fill="#f8fcf8" opacity="1.00" d=" M 68.00 33.35 C 65.94 29.70 73.77 29.63 73.28 33.17 C 71.54 33.45 69.75 33.77 68.00 33.35 Z" />
<path fill="#f8fcf8" opacity="1.00" d=" M 67.94 40.23 C 66.08 36.63 73.77 36.59 73.26 40.13 C 71.50 40.38 69.69 40.72 67.94 40.23 Z" />
<path fill="#f8fcf8" opacity="1.00" d=" M 67.94 47.20 C 65.98 43.55 74.08 43.52 73.15 47.15 C 71.43 47.34 69.67 47.51 67.94 47.20 Z" />
<path fill="#f8fcf8" opacity="1.00" d=" M 55.66 46.75 C 56.33 46.75 57.67 46.75 58.34 46.75 C 58.31 51.33 58.32 55.90 58.30 60.48 C 61.01 61.58 63.51 63.82 63.68 66.92 C 64.27 71.37 59.51 75.75 55.12 74.18 C 51.09 72.99 48.97 67.79 51.18 64.17 C 52.05 62.28 54.01 61.42 55.71 60.45 C 55.67 55.88 55.69 51.32 55.66 46.75 Z" />
<path fill="#f8fcf8" opacity="1.00" d=" M 67.91 51.78 C 69.97 51.42 73.69 50.90 73.07 54.16 C 71.04 54.10 66.43 55.45 67.91 51.78 Z" />
</g>
</svg>
