<?xml version="1.0" encoding="UTF-8" ?>
<!DOCTYPE svg PUBLIC "-//W3C//DTD SVG 1.1//EN" "http://www.w3.org/Graphics/SVG/1.1/DTD/svg11.dtd">
<svg width="117px" height="140px" viewBox="0 0 117 140" version="1.1" xmlns="http://www.w3.org/2000/svg">
<g id="#000000ff">
<path fill="#000000" opacity="1.00" d=" M 0.00 0.00 L 117.00 0.00 L 117.00 140.00 L 0.00 140.00 L 0.00 0.00 M 32.32 10.34 C 16.68 12.33 4.22 27.25 4.96 42.99 C 5.07 62.02 4.88 81.06 5.05 100.09 C 5.73 116.01 20.00 129.82 35.93 129.99 C 51.31 130.03 66.70 130.03 82.08 129.99 C 98.36 129.83 112.87 115.38 112.99 99.07 C 113.05 80.04 112.98 61.00 113.02 41.97 C 113.13 31.16 107.19 20.58 98.02 14.92 C 92.39 11.31 85.65 9.69 78.99 9.96 C 63.44 10.26 47.85 9.50 32.32 10.34 Z" />
<path fill="#000000" opacity="1.00" d=" M 32.33 12.40 C 48.19 11.52 64.13 12.25 80.03 12.01 C 91.36 11.61 102.64 18.12 107.67 28.33 C 109.85 32.52 111.01 37.23 110.98 41.96 C 111.00 60.66 111.00 79.35 110.98 98.05 C 111.10 109.05 104.52 119.78 94.67 124.68 C 90.17 127.01 85.08 128.05 80.03 127.99 C 66.01 128.00 51.99 127.98 37.97 127.99 C 32.18 128.10 26.35 126.63 21.40 123.61 C 12.60 118.35 6.92 108.30 7.02 98.04 C 7.02 79.00 6.97 59.96 7.04 40.93 C 7.26 26.98 18.51 14.29 32.33 12.40 M 38.72 43.85 C 37.07 44.43 35.99 45.75 35.98 47.52 C 39.27 49.63 43.24 48.86 46.93 48.97 C 47.00 50.68 47.08 52.38 47.19 54.09 C 56.05 54.37 64.95 54.38 73.81 54.09 C 73.92 52.38 74.00 50.68 74.07 48.97 C 77.77 48.88 81.71 49.56 85.04 47.51 C 84.85 46.12 84.41 44.68 82.93 44.21 C 76.46 41.07 70.23 37.47 63.82 34.21 C 62.41 33.58 60.83 32.13 59.23 33.13 C 52.29 36.50 45.70 40.56 38.72 43.85 M 47.04 55.96 C 47.05 57.34 47.07 58.71 47.11 60.09 C 56.01 60.57 64.99 60.58 73.89 60.09 C 73.92 58.71 73.95 57.34 73.96 55.96 C 69.70 55.04 65.31 55.63 61.00 55.49 C 56.35 55.66 51.63 55.00 47.04 55.96 M 47.12 61.95 C 47.11 63.21 47.11 64.47 47.13 65.73 C 56.04 65.90 64.96 65.90 73.87 65.73 C 73.89 64.47 73.89 63.21 73.88 61.95 C 64.98 61.55 56.02 61.56 47.12 61.95 M 47.17 67.16 C 47.15 67.88 47.11 69.34 47.09 70.07 C 56.03 70.24 64.97 70.25 73.90 70.07 C 73.89 69.35 73.85 67.89 73.84 67.16 C 64.95 66.93 56.05 66.94 47.17 67.16 M 47.08 70.99 C 46.62 72.60 47.62 73.63 49.22 73.49 C 56.74 73.54 64.26 73.54 71.77 73.49 C 73.37 73.63 74.38 72.61 73.92 71.00 C 64.99 70.71 56.02 70.72 47.08 70.99 Z" />
<path fill="#000000" opacity="1.00" d=" M 60.17 37.32 C 65.48 38.92 70.06 42.58 75.18 44.80 C 73.47 44.87 71.76 44.90 70.06 44.97 C 69.99 46.69 69.95 48.41 69.92 50.12 C 63.64 50.14 57.36 50.14 51.08 50.12 C 51.05 48.40 51.01 46.69 50.94 44.97 C 49.24 44.89 47.53 44.87 45.83 44.82 C 50.62 42.34 55.25 39.54 60.17 37.32 Z" />
</g>
<g id="#6e6f6eff">
<path fill="#6e6f6e" opacity="1.00" d=" M 32.32 10.34 C 47.85 9.50 63.44 10.26 78.99 9.96 C 85.65 9.69 92.39 11.31 98.02 14.92 C 107.19 20.58 113.13 31.16 113.02 41.97 C 112.98 61.00 113.05 80.04 112.99 99.07 C 112.87 115.38 98.36 129.83 82.08 129.99 C 66.70 130.03 51.31 130.03 35.93 129.99 C 20.00 129.82 5.73 116.01 5.05 100.09 C 4.88 81.06 5.07 62.02 4.96 42.99 C 4.22 27.25 16.68 12.33 32.32 10.34 M 32.33 12.40 C 18.51 14.29 7.26 26.98 7.04 40.93 C 6.97 59.96 7.02 79.00 7.02 98.04 C 6.92 108.30 12.60 118.35 21.40 123.61 C 26.35 126.63 32.18 128.10 37.97 127.99 C 51.99 127.98 66.01 128.00 80.03 127.99 C 85.08 128.05 90.17 127.01 94.67 124.68 C 104.52 119.78 111.10 109.05 110.98 98.05 C 111.00 79.35 111.00 60.66 110.98 41.96 C 111.01 37.23 109.85 32.52 107.67 28.33 C 102.64 18.12 91.36 11.61 80.03 12.01 C 64.13 12.25 48.19 11.52 32.33 12.40 Z" />
</g>
<g id="#f8fcf8ff">
<path fill="#f8fcf8" opacity="1.00" d=" M 38.72 43.85 C 45.70 40.56 52.29 36.50 59.23 33.13 C 60.83 32.13 62.41 33.58 63.82 34.21 C 70.23 37.47 76.46 41.07 82.93 44.21 C 84.41 44.68 84.85 46.12 85.04 47.51 C 81.71 49.56 77.77 48.88 74.07 48.97 C 74.00 50.68 73.92 52.38 73.81 54.09 C 64.95 54.38 56.05 54.37 47.19 54.09 C 47.08 52.38 47.00 50.68 46.93 48.97 C 43.24 48.86 39.27 49.63 35.98 47.52 C 35.99 45.75 37.07 44.43 38.72 43.85 M 60.17 37.32 C 55.25 39.54 50.62 42.34 45.83 44.82 C 47.53 44.87 49.24 44.89 50.94 44.97 C 51.01 46.69 51.05 48.40 51.08 50.12 C 57.36 50.14 63.64 50.14 69.92 50.12 C 69.95 48.41 69.99 46.69 70.06 44.97 C 71.76 44.90 73.47 44.87 75.18 44.80 C 70.06 42.58 65.48 38.92 60.17 37.32 Z" />
<path fill="#f8fcf8" opacity="1.00" d=" M 47.04 55.96 C 51.63 55.00 56.35 55.66 61.00 55.49 C 65.31 55.63 69.70 55.04 73.96 55.96 C 73.95 57.34 73.92 58.71 73.89 60.09 C 64.99 60.58 56.01 60.57 47.11 60.09 C 47.07 58.71 47.05 57.34 47.04 55.96 Z" />
<path fill="#f8fcf8" opacity="1.00" d=" M 47.12 61.95 C 56.02 61.56 64.98 61.55 73.88 61.95 C 73.89 63.21 73.89 64.47 73.87 65.73 C 64.96 65.90 56.04 65.90 47.13 65.73 C 47.11 64.47 47.11 63.21 47.12 61.95 Z" />
<path fill="#f8fcf8" opacity="1.00" d=" M 47.17 67.16 C 56.05 66.94 64.95 66.93 73.84 67.16 C 73.85 67.89 73.89 69.35 73.90 70.07 C 64.97 70.25 56.03 70.24 47.09 70.07 C 47.11 69.34 47.15 67.88 47.17 67.16 Z" />
<path fill="#f8fcf8" opacity="1.00" d=" M 47.08 70.99 C 56.02 70.72 64.99 70.71 73.92 71.00 C 74.38 72.61 73.37 73.63 71.77 73.49 C 64.26 73.54 56.74 73.54 49.22 73.49 C 47.62 73.63 46.62 72.60 47.08 70.99 Z" />
</g>
</svg>
