<?xml version="1.0" encoding="UTF-8" ?>
<!DOCTYPE svg PUBLIC "-//W3C//DTD SVG 1.1//EN" "http://www.w3.org/Graphics/SVG/1.1/DTD/svg11.dtd">
<svg width="117px" height="140px" viewBox="0 0 117 140" version="1.1" xmlns="http://www.w3.org/2000/svg">
<g id="#000000ff">
<path fill="#000000" opacity="1.00" d=" M 0.00 0.00 L 117.00 0.00 L 117.00 140.00 L 0.00 140.00 L 0.00 0.00 M 41.86 42.11 C 41.42 50.68 41.43 59.33 41.86 67.89 C 44.53 68.14 47.22 68.15 49.89 67.90 C 50.11 64.93 49.89 61.95 50.12 58.99 C 53.12 58.70 56.14 58.92 59.15 58.76 C 59.73 56.83 59.64 54.78 59.30 52.81 C 56.27 52.51 53.22 52.73 50.18 52.58 C 50.03 51.19 50.03 49.78 50.18 48.39 C 54.04 48.19 57.95 48.77 61.78 48.03 C 61.94 46.09 61.96 44.13 61.80 42.18 C 55.17 41.83 48.50 41.92 41.86 42.11 M 72.45 50.20 C 70.05 49.29 67.52 48.79 64.94 49.18 C 64.30 55.39 64.47 61.70 64.86 67.93 C 67.44 68.13 70.06 68.14 72.62 67.75 C 72.82 64.59 72.31 61.38 73.01 58.27 C 74.04 56.19 76.71 56.35 78.56 55.46 C 78.86 53.15 78.76 50.80 78.39 48.51 C 76.22 47.96 74.49 49.82 72.45 50.20 Z" />
</g>
<g id="#f8fcf8ff">
<path fill="#f8fcf8" opacity="1.00" d=" M 41.86 42.11 C 48.50 41.92 55.17 41.83 61.80 42.18 C 61.96 44.13 61.94 46.09 61.78 48.03 C 57.95 48.77 54.04 48.19 50.18 48.39 C 50.03 49.78 50.03 51.19 50.18 52.58 C 53.22 52.73 56.27 52.51 59.30 52.81 C 59.64 54.78 59.73 56.83 59.15 58.76 C 56.14 58.92 53.12 58.70 50.12 58.99 C 49.89 61.95 50.11 64.93 49.89 67.90 C 47.22 68.15 44.53 68.14 41.86 67.89 C 41.43 59.33 41.42 50.68 41.86 42.11 Z" />
<path fill="#f8fcf8" opacity="1.00" d=" M 72.45 50.20 C 74.49 49.82 76.22 47.96 78.39 48.51 C 78.76 50.80 78.86 53.15 78.56 55.46 C 76.71 56.35 74.04 56.19 73.01 58.27 C 72.31 61.38 72.82 64.59 72.62 67.75 C 70.06 68.14 67.44 68.13 64.86 67.93 C 64.47 61.70 64.30 55.39 64.94 49.18 C 67.52 48.79 70.05 49.29 72.45 50.20 Z" />
</g>
</svg>
