<?xml version="1.0" encoding="UTF-8" ?>
<!DOCTYPE svg PUBLIC "-//W3C//DTD SVG 1.1//EN" "http://www.w3.org/Graphics/SVG/1.1/DTD/svg11.dtd">
<svg width="117px" height="92px" viewBox="0 0 117 92" version="1.1" xmlns="http://www.w3.org/2000/svg">
<g id="#000000ff">
<path fill="#000000" opacity="1.00" d=" M 0.00 0.00 L 117.00 0.00 L 117.00 92.00 L 0.00 92.00 L 0.00 0.00 M 30.55 8.72 C 18.60 10.77 8.10 20.14 5.34 32.05 C 3.73 37.56 4.47 43.35 4.29 49.00 C 3.98 56.49 6.09 64.28 10.81 70.18 C 16.80 78.28 26.95 83.07 37.00 82.69 C 51.68 82.68 66.36 82.76 81.04 82.66 C 93.66 82.34 105.72 73.99 109.75 61.92 C 112.66 54.26 111.47 45.96 111.61 37.97 C 111.00 22.52 97.48 9.02 82.05 8.39 C 69.35 8.26 56.66 8.41 43.96 8.30 C 39.49 8.37 34.98 8.02 30.55 8.72 Z" />
<path fill="#000000" opacity="1.00" d=" M 6.69 31.97 C 10.01 19.84 21.40 10.40 34.00 9.67 C 49.67 9.64 65.33 9.65 80.99 9.65 C 91.30 9.84 101.09 15.95 106.20 24.85 C 108.33 27.86 108.89 31.56 110.27 34.89 C 110.40 41.30 110.39 47.71 110.26 54.12 C 109.21 62.55 104.80 70.86 97.59 75.58 C 92.10 79.89 84.88 81.70 77.97 81.34 C 62.26 81.31 46.55 81.32 30.84 81.33 C 26.36 79.70 21.63 78.42 17.91 75.27 C 10.10 69.49 5.18 59.72 5.68 49.95 C 5.94 43.95 5.01 37.83 6.69 31.97 M 55.58 30.51 C 55.05 32.88 52.42 33.65 50.68 34.97 C 46.01 37.52 42.09 41.30 37.15 43.37 C 36.03 44.04 36.56 45.72 36.18 46.81 C 43.39 50.47 49.84 55.44 56.58 59.86 C 56.68 60.27 56.88 61.09 56.98 61.50 C 58.40 61.49 59.82 61.48 61.24 61.48 C 61.19 58.03 61.21 54.58 61.49 51.14 C 67.36 50.60 72.82 53.38 77.09 57.17 C 78.42 59.09 78.48 62.52 81.55 62.55 C 81.64 59.84 81.78 57.13 81.76 54.42 C 79.96 53.45 79.96 51.21 79.03 49.62 C 75.47 43.79 69.23 39.68 62.29 39.48 C 60.00 36.94 61.86 33.05 61.26 29.96 C 59.35 30.00 57.45 30.10 55.58 30.51 Z" />
</g>
<g id="#e86010ff">
<path fill="#e86010" opacity="1.00" d=" M 30.55 8.72 C 34.98 8.02 39.49 8.37 43.96 8.30 C 56.66 8.41 69.35 8.26 82.05 8.39 C 97.48 9.02 111.00 22.52 111.61 37.97 C 111.47 45.96 112.66 54.26 109.75 61.92 C 105.72 73.99 93.66 82.34 81.04 82.66 C 66.36 82.76 51.68 82.68 37.00 82.69 C 26.95 83.07 16.80 78.28 10.81 70.18 C 6.09 64.28 3.98 56.49 4.29 49.00 C 4.47 43.35 3.73 37.56 5.34 32.05 C 8.10 20.14 18.60 10.77 30.55 8.72 M 6.69 31.97 C 5.01 37.83 5.94 43.95 5.68 49.95 C 5.18 59.72 10.10 69.49 17.91 75.27 C 21.63 78.42 26.36 79.70 30.84 81.33 C 46.55 81.32 62.26 81.31 77.97 81.34 C 84.88 81.70 92.10 79.89 97.59 75.58 C 104.80 70.86 109.21 62.55 110.26 54.12 C 110.39 47.71 110.40 41.30 110.27 34.89 C 108.89 31.56 108.33 27.86 106.20 24.85 C 101.09 15.95 91.30 9.84 80.99 9.65 C 65.33 9.65 49.67 9.64 34.00 9.67 C 21.40 10.40 10.01 19.84 6.69 31.97 Z" />
<path fill="#e86010" opacity="1.00" d=" M 55.58 30.51 C 57.45 30.10 59.35 30.00 61.26 29.96 C 61.86 33.05 60.00 36.94 62.29 39.48 C 69.23 39.68 75.47 43.79 79.03 49.62 C 79.96 51.21 79.96 53.45 81.76 54.42 C 81.78 57.13 81.64 59.84 81.55 62.55 C 78.48 62.52 78.42 59.09 77.09 57.17 C 72.82 53.38 67.36 50.60 61.49 51.14 C 61.21 54.58 61.19 58.03 61.24 61.48 C 59.82 61.48 58.40 61.49 56.98 61.50 C 56.88 61.09 56.68 60.27 56.58 59.86 C 49.84 55.44 43.39 50.47 36.18 46.81 C 36.56 45.72 36.03 44.04 37.15 43.37 C 42.09 41.30 46.01 37.52 50.68 34.97 C 52.42 33.65 55.05 32.88 55.58 30.51 Z" />
</g>
</svg>
