<?xml version="1.0" encoding="UTF-8" ?>
<!DOCTYPE svg PUBLIC "-//W3C//DTD SVG 1.1//EN" "http://www.w3.org/Graphics/SVG/1.1/DTD/svg11.dtd">
<svg width="45px" height="45px" viewBox="0 0 45 45" version="1.1" xmlns="http://www.w3.org/2000/svg">
<g id="#282c38ff">
<path fill="#282c38" opacity="1.00" d=" M 0.00 0.00 L 45.00 0.00 L 45.00 45.00 L 0.00 45.00 L 0.00 0.00 M 14.24 11.21 C 5.73 15.83 3.42 28.48 10.09 35.63 C 10.54 35.53 11.45 35.32 11.90 35.22 C 9.62 31.93 7.68 28.03 8.23 23.90 C 8.75 16.99 14.99 11.05 21.94 10.98 C 29.28 10.47 36.24 16.58 36.77 23.89 C 37.33 27.70 35.61 31.22 33.68 34.36 C 32.94 36.25 35.17 35.92 35.71 34.68 C 39.74 29.32 39.88 21.40 35.88 15.98 C 31.35 9.06 21.27 6.84 14.24 11.21 M 20.14 27.12 C 20.89 27.47 22.40 28.18 23.16 28.53 C 25.45 25.63 25.92 21.73 27.45 18.42 C 24.63 20.97 22.22 23.93 20.14 27.12 Z" />
</g>
<g id="#dee2e1ff">
<path fill="#dee2e1" opacity="1.00" d=" M 14.24 11.21 C 21.27 6.84 31.35 9.06 35.88 15.98 C 39.88 21.40 39.74 29.32 35.71 34.68 C 35.17 35.92 32.94 36.25 33.68 34.36 C 35.61 31.22 37.33 27.70 36.77 23.89 C 36.24 16.58 29.28 10.47 21.94 10.98 C 14.99 11.05 8.75 16.99 8.23 23.90 C 7.68 28.03 9.62 31.93 11.90 35.22 C 11.45 35.32 10.54 35.53 10.09 35.63 C 3.42 28.48 5.73 15.83 14.24 11.21 Z" />
<path fill="#dee2e1" opacity="1.00" d=" M 20.14 27.12 C 22.22 23.93 24.63 20.97 27.45 18.42 C 25.92 21.73 25.45 25.63 23.16 28.53 C 22.40 28.18 20.89 27.47 20.14 27.12 Z" />
</g>
</svg>
