<?xml version="1.0" encoding="UTF-8" ?>
<!DOCTYPE svg PUBLIC "-//W3C//DTD SVG 1.1//EN" "http://www.w3.org/Graphics/SVG/1.1/DTD/svg11.dtd">
<svg width="117px" height="140px" viewBox="0 0 117 140" version="1.1" xmlns="http://www.w3.org/2000/svg">
<g id="#000000ff">
<path fill="#000000" opacity="1.00" d=" M 0.00 0.00 L 117.00 0.00 L 117.00 140.00 L 0.00 140.00 L 0.00 0.00 M 50.58 30.13 C 50.44 31.50 50.30 32.87 50.15 34.24 C 44.93 34.52 39.66 33.93 34.48 34.61 C 32.34 34.84 31.94 37.20 31.99 38.94 C 31.89 48.30 32.07 57.66 31.94 67.01 C 32.01 69.48 31.74 72.05 32.55 74.42 C 33.66 76.23 36.11 75.84 37.92 76.03 C 51.31 75.99 64.70 75.99 78.08 76.03 C 80.31 76.04 83.87 75.96 83.84 72.89 C 84.31 62.25 83.84 51.59 84.06 40.94 C 83.92 38.73 84.51 35.10 81.52 34.61 C 76.33 33.93 71.07 34.52 65.85 34.24 C 65.70 32.87 65.56 31.50 65.43 30.13 C 60.48 29.94 55.52 29.94 50.58 30.13 Z" />
<path fill="#000000" opacity="1.00" d=" M 51.72 32.28 C 55.89 31.83 60.11 31.83 64.27 32.27 C 63.32 34.92 60.20 34.27 58.00 34.43 C 55.80 34.28 52.68 34.92 51.72 32.28 Z" />
<path fill="#000000" opacity="1.00" d=" M 35.04 37.67 C 50.34 37.49 65.66 37.49 80.97 37.67 C 81.04 43.09 81.04 48.52 80.96 53.94 C 75.99 54.04 71.02 54.03 66.05 53.90 C 65.69 52.46 65.34 51.02 64.99 49.58 C 60.33 49.52 55.67 49.52 51.02 49.58 C 50.66 51.02 50.31 52.46 49.95 53.90 C 44.98 54.03 40.01 54.04 35.04 53.94 C 34.96 48.52 34.96 43.09 35.04 37.67 Z" />
<path fill="#000000" opacity="1.00" d=" M 52.37 51.48 C 56.12 51.50 59.88 51.50 63.63 51.48 C 63.60 53.67 63.60 55.86 63.68 58.05 C 59.90 58.45 56.10 58.45 52.32 58.06 C 52.40 55.86 52.40 53.67 52.37 51.48 Z" />
<path fill="#000000" opacity="1.00" d=" M 35.04 55.93 C 40.06 55.80 45.08 55.82 50.10 55.95 C 50.28 57.30 50.45 58.65 50.62 60.00 C 55.53 60.43 60.47 60.44 65.38 59.99 C 65.55 58.65 65.72 57.30 65.90 55.95 C 70.92 55.82 75.94 55.80 80.96 55.93 C 81.04 61.61 81.03 67.30 80.97 72.98 C 65.66 73.02 50.34 73.02 35.03 72.98 C 34.96 67.30 34.95 61.61 35.04 55.93 Z" />
</g>
<g id="#f8fcf8ff">
<path fill="#f8fcf8" opacity="1.00" d=" M 50.58 30.13 C 55.52 29.94 60.48 29.94 65.43 30.13 C 65.56 31.50 65.70 32.87 65.85 34.24 C 71.07 34.52 76.33 33.93 81.52 34.61 C 84.51 35.10 83.92 38.73 84.06 40.94 C 83.84 51.59 84.31 62.25 83.84 72.89 C 83.87 75.96 80.31 76.04 78.08 76.03 C 64.70 75.99 51.31 75.99 37.92 76.03 C 36.11 75.84 33.66 76.23 32.55 74.42 C 31.74 72.05 32.01 69.48 31.94 67.01 C 32.07 57.66 31.89 48.30 31.99 38.94 C 31.94 37.20 32.34 34.84 34.48 34.61 C 39.66 33.93 44.93 34.52 50.15 34.24 C 50.30 32.87 50.44 31.50 50.58 30.13 M 51.72 32.28 C 52.68 34.92 55.80 34.28 58.00 34.43 C 60.20 34.27 63.32 34.92 64.27 32.27 C 60.11 31.83 55.89 31.83 51.72 32.28 M 35.04 37.67 C 34.96 43.09 34.96 48.52 35.04 53.94 C 40.01 54.04 44.98 54.03 49.95 53.90 C 50.31 52.46 50.66 51.02 51.02 49.58 C 55.67 49.52 60.33 49.52 64.99 49.58 C 65.34 51.02 65.69 52.46 66.05 53.90 C 71.02 54.03 75.99 54.04 80.96 53.94 C 81.04 48.52 81.04 43.09 80.97 37.67 C 65.66 37.49 50.34 37.49 35.04 37.67 M 52.37 51.48 C 52.40 53.67 52.40 55.86 52.32 58.06 C 56.10 58.45 59.90 58.45 63.68 58.05 C 63.60 55.86 63.60 53.67 63.63 51.48 C 59.88 51.50 56.12 51.50 52.37 51.48 M 35.04 55.93 C 34.95 61.61 34.96 67.30 35.03 72.98 C 50.34 73.02 65.66 73.02 80.97 72.98 C 81.03 67.30 81.04 61.61 80.96 55.93 C 75.94 55.80 70.92 55.82 65.90 55.95 C 65.72 57.30 65.55 58.65 65.38 59.99 C 60.47 60.44 55.53 60.43 50.62 60.00 C 50.45 58.65 50.28 57.30 50.10 55.95 C 45.08 55.82 40.06 55.80 35.04 55.93 Z" />
</g>
</svg>
