<?xml version="1.0" encoding="UTF-8" ?>
<!DOCTYPE svg PUBLIC "-//W3C//DTD SVG 1.1//EN" "http://www.w3.org/Graphics/SVG/1.1/DTD/svg11.dtd">
<svg width="117px" height="140px" viewBox="0 0 117 140" version="1.1" xmlns="http://www.w3.org/2000/svg">
<g id="#000000ff">
<path fill="#000000" opacity="1.00" d=" M 0.00 0.00 L 117.00 0.00 L 117.00 140.00 L 0.00 140.00 L 0.00 0.00 M 33.24 10.23 C 17.98 11.74 5.19 25.59 5.03 40.96 C 4.98 60.31 4.98 79.68 5.03 99.04 C 5.18 114.98 18.96 129.23 34.89 129.92 C 50.61 130.09 66.33 130.00 82.05 129.96 C 95.31 129.76 107.64 120.29 111.52 107.65 C 112.75 103.90 113.06 99.94 113.02 96.01 C 112.97 78.00 113.02 59.99 113.00 41.98 C 113.09 31.21 107.24 20.66 98.10 14.97 C 92.44 11.32 85.64 9.74 78.95 9.98 C 63.71 10.18 48.46 9.68 33.24 10.23 Z" />
<path fill="#000000" opacity="1.00" d=" M 30.47 12.69 C 34.61 11.79 38.86 12.02 43.06 12.00 C 56.38 12.06 69.70 11.88 83.01 12.09 C 97.91 12.70 110.89 26.08 110.95 41.01 C 111.05 60.00 110.99 79.00 110.98 98.00 C 111.22 109.82 103.54 121.18 92.65 125.65 C 88.06 127.75 82.94 128.08 77.96 128.01 C 63.63 127.93 49.30 128.13 34.97 127.91 C 20.12 127.30 7.17 113.97 7.04 99.09 C 6.97 79.74 6.98 60.39 7.04 41.04 C 7.15 27.69 17.46 15.43 30.47 12.69 M 45.93 37.99 C 44.73 40.14 43.40 42.23 41.97 44.23 C 42.92 45.52 43.86 46.80 44.81 48.08 C 44.11 48.11 42.70 48.17 42.00 48.20 C 42.00 49.46 42.00 50.73 42.00 51.99 C 42.60 52.00 43.80 52.01 44.40 52.01 C 44.39 53.30 44.37 54.59 44.35 55.88 C 46.49 55.99 48.62 56.22 50.74 56.51 C 49.18 56.75 47.61 56.97 46.04 57.18 C 46.12 58.43 46.21 59.69 46.32 60.95 C 49.44 60.92 52.55 60.61 55.67 60.73 C 51.87 61.80 47.88 61.87 43.96 62.07 C 44.05 63.60 44.15 65.14 44.22 66.68 C 45.17 66.65 47.06 66.60 48.01 66.57 C 46.05 67.16 44.10 67.79 42.14 68.38 C 43.52 69.79 44.89 71.21 46.21 72.68 C 48.59 71.55 50.95 70.39 53.31 69.23 C 53.60 69.93 54.19 71.33 54.48 72.03 C 57.65 71.83 63.07 73.14 63.08 68.32 C 66.17 69.73 69.22 71.21 72.24 72.78 C 73.39 71.24 74.55 69.70 75.75 68.19 C 74.49 67.72 73.23 67.24 71.97 66.77 C 73.26 66.21 74.56 65.66 75.85 65.13 C 74.11 62.59 72.32 60.09 70.51 57.60 C 69.12 58.21 67.73 58.82 66.32 59.41 C 66.26 59.84 66.14 60.69 66.07 61.12 C 65.11 61.16 64.16 61.21 63.20 61.26 C 65.19 59.86 67.12 58.36 69.11 56.96 C 68.44 56.46 67.10 55.45 66.42 54.95 C 68.75 55.98 71.04 57.09 73.38 58.10 C 74.53 55.89 75.57 53.62 76.72 51.41 C 75.06 51.05 73.42 50.63 71.79 50.19 C 72.80 48.38 73.09 45.53 75.62 45.31 C 75.62 43.66 75.62 42.01 75.63 40.36 C 72.77 40.39 69.90 40.38 67.04 40.43 C 67.31 39.94 67.83 38.96 68.09 38.47 C 66.13 38.32 64.17 38.18 62.21 38.05 C 61.60 39.51 60.99 40.97 60.39 42.43 C 60.40 41.82 60.41 40.61 60.42 40.00 C 57.50 40.00 54.58 40.00 51.66 40.00 C 51.68 39.55 51.73 38.65 51.75 38.20 C 49.81 38.15 47.87 38.07 45.93 37.99 Z" />
<path fill="#000000" opacity="1.00" d=" M 49.21 44.07 C 52.56 44.00 55.93 43.85 59.27 44.21 C 56.24 45.91 52.66 44.91 49.37 45.20 C 49.33 44.91 49.25 44.35 49.21 44.07 Z" />
<path fill="#000000" opacity="1.00" d=" M 59.74 48.02 C 61.03 48.74 62.07 49.80 63.01 50.92 C 61.49 51.79 59.96 52.65 58.43 53.49 C 59.29 54.52 60.14 55.55 60.94 56.62 C 59.49 56.85 58.03 57.05 56.57 57.20 C 57.06 56.80 58.04 55.98 58.53 55.57 C 58.45 54.84 58.31 53.39 58.24 52.66 C 60.48 52.01 59.76 49.77 59.74 48.02 Z" />
<path fill="#000000" opacity="1.00" d=" M 52.43 52.20 C 55.39 50.54 52.77 55.48 52.43 52.20 Z" />
<path fill="#000000" opacity="1.00" d=" M 54.00 65.71 C 55.72 65.19 56.37 65.68 55.96 67.20 C 54.24 67.72 53.59 67.22 54.00 65.71 Z" />
</g>
<g id="#737473ff">
<path fill="#737473" opacity="1.00" d=" M 33.24 10.23 C 48.46 9.68 63.71 10.18 78.95 9.98 C 85.64 9.74 92.44 11.32 98.10 14.97 C 107.24 20.66 113.09 31.21 113.00 41.98 C 113.02 59.99 112.97 78.00 113.02 96.01 C 113.06 99.94 112.75 103.90 111.52 107.65 C 107.64 120.29 95.31 129.76 82.05 129.96 C 66.33 130.00 50.61 130.09 34.89 129.92 C 18.96 129.23 5.18 114.98 5.03 99.04 C 4.98 79.68 4.98 60.31 5.03 40.96 C 5.19 25.59 17.98 11.74 33.24 10.23 M 30.47 12.69 C 17.46 15.43 7.15 27.69 7.04 41.04 C 6.98 60.39 6.97 79.74 7.04 99.09 C 7.17 113.97 20.12 127.30 34.97 127.91 C 49.30 128.13 63.63 127.93 77.96 128.01 C 82.94 128.08 88.06 127.75 92.65 125.65 C 103.54 121.18 111.22 109.82 110.98 98.00 C 110.99 79.00 111.05 60.00 110.95 41.01 C 110.89 26.08 97.91 12.70 83.01 12.09 C 69.70 11.88 56.38 12.06 43.06 12.00 C 38.86 12.02 34.61 11.79 30.47 12.69 Z" />
<path fill="#737473" opacity="1.00" d=" M 65.99 45.28 C 67.61 44.73 68.18 45.27 67.73 46.90 C 66.11 47.45 65.53 46.91 65.99 45.28 Z" />
<path fill="#737473" opacity="1.00" d=" M 49.33 47.33 C 49.89 47.87 49.89 47.87 49.33 47.33 Z" />
<path fill="#737473" opacity="1.00" d=" M 53.25 47.34 C 53.81 47.91 53.81 47.91 53.25 47.34 Z" />
<path fill="#737473" opacity="1.00" d=" M 58.46 47.23 C 58.98 47.80 58.98 47.80 58.46 47.23 Z" />
<path fill="#737473" opacity="1.00" d=" M 49.23 52.26 C 49.82 52.86 49.82 52.86 49.23 52.26 Z" />
<path fill="#737473" opacity="1.00" d=" M 62.99 66.87 C 62.51 65.53 62.99 64.96 64.42 65.15 C 64.88 66.48 64.40 67.06 62.99 66.87 Z" />
</g>
<g id="#f8fcf8ff">
<path fill="#f8fcf8" opacity="1.00" d=" M 45.93 37.99 C 47.87 38.07 49.81 38.15 51.75 38.20 C 51.73 38.65 51.68 39.55 51.66 40.00 C 54.58 40.00 57.50 40.00 60.42 40.00 C 60.41 40.61 60.40 41.82 60.39 42.43 C 60.99 40.97 61.60 39.51 62.21 38.05 C 64.17 38.18 66.13 38.32 68.09 38.47 C 67.83 38.96 67.31 39.94 67.04 40.43 C 69.90 40.38 72.77 40.39 75.63 40.36 C 75.62 42.01 75.62 43.66 75.62 45.31 C 73.09 45.53 72.80 48.38 71.79 50.19 C 73.42 50.63 75.06 51.05 76.72 51.41 C 75.57 53.62 74.53 55.89 73.38 58.10 C 71.04 57.09 68.75 55.98 66.42 54.95 C 67.10 55.45 68.44 56.46 69.11 56.96 C 67.12 58.36 65.19 59.86 63.20 61.26 C 64.16 61.21 65.11 61.16 66.07 61.12 C 66.14 60.69 66.26 59.84 66.32 59.41 C 67.73 58.82 69.12 58.21 70.51 57.60 C 72.32 60.09 74.11 62.59 75.85 65.13 C 74.56 65.66 73.26 66.21 71.97 66.77 C 73.23 67.24 74.49 67.72 75.75 68.19 C 74.55 69.70 73.39 71.24 72.24 72.78 C 69.22 71.21 66.17 69.73 63.08 68.32 C 63.07 73.14 57.65 71.83 54.48 72.03 C 54.19 71.33 53.60 69.93 53.31 69.23 C 50.95 70.39 48.59 71.55 46.21 72.68 C 44.89 71.21 43.52 69.79 42.14 68.38 C 44.10 67.79 46.05 67.16 48.01 66.57 C 47.06 66.60 45.17 66.65 44.22 66.68 C 44.15 65.14 44.05 63.60 43.96 62.07 C 47.88 61.87 51.87 61.80 55.67 60.73 C 52.55 60.61 49.44 60.92 46.32 60.95 C 46.21 59.69 46.12 58.43 46.04 57.18 C 47.61 56.97 49.18 56.75 50.74 56.51 C 48.62 56.22 46.49 55.99 44.35 55.88 C 44.37 54.59 44.39 53.30 44.40 52.01 C 43.80 52.01 42.60 52.00 42.00 51.99 C 42.00 50.73 42.00 49.46 42.00 48.20 C 42.70 48.17 44.11 48.11 44.81 48.08 C 43.86 46.80 42.92 45.52 41.97 44.23 C 43.40 42.23 44.73 40.14 45.93 37.99 M 49.21 44.07 C 49.25 44.35 49.33 44.91 49.37 45.20 C 52.66 44.91 56.24 45.91 59.27 44.21 C 55.93 43.85 52.56 44.00 49.21 44.07 M 65.99 45.28 C 65.53 46.91 66.11 47.45 67.73 46.90 C 68.18 45.27 67.61 44.73 65.99 45.28 M 49.33 47.33 C 49.89 47.87 49.89 47.87 49.33 47.33 M 53.25 47.34 C 53.81 47.91 53.81 47.91 53.25 47.34 M 58.46 47.23 C 58.98 47.80 58.98 47.80 58.46 47.23 M 59.74 48.02 C 59.76 49.77 60.48 52.01 58.24 52.66 C 58.31 53.39 58.45 54.84 58.53 55.57 C 58.04 55.98 57.06 56.80 56.57 57.20 C 58.03 57.05 59.49 56.85 60.94 56.62 C 60.14 55.55 59.29 54.52 58.43 53.49 C 59.96 52.65 61.49 51.79 63.01 50.92 C 62.07 49.80 61.03 48.74 59.74 48.02 M 49.23 52.26 C 49.82 52.86 49.82 52.86 49.23 52.26 M 52.43 52.20 C 52.77 55.48 55.39 50.54 52.43 52.20 M 54.00 65.71 C 53.59 67.22 54.24 67.72 55.96 67.20 C 56.37 65.68 55.72 65.19 54.00 65.71 M 62.99 66.87 C 64.40 67.06 64.88 66.48 64.42 65.15 C 62.99 64.96 62.51 65.53 62.99 66.87 Z" />
</g>
</svg>
