<?xml version="1.0" encoding="UTF-8" ?>
<!DOCTYPE svg PUBLIC "-//W3C//DTD SVG 1.1//EN" "http://www.w3.org/Graphics/SVG/1.1/DTD/svg11.dtd">
<svg width="117px" height="140px" viewBox="0 0 117 140" version="1.1" xmlns="http://www.w3.org/2000/svg">
<g id="#000000ff">
<path fill="#000000" opacity="1.00" d=" M 0.00 0.00 L 117.00 0.00 L 117.00 140.00 L 0.00 140.00 L 0.00 0.00 M 33.10 10.21 C 20.33 11.65 9.07 21.51 6.01 33.99 C 4.57 38.87 5.08 44.00 5.00 49.01 C 5.03 66.03 4.95 83.05 5.04 100.07 C 5.75 115.65 19.34 129.25 34.93 129.96 C 50.98 130.03 67.04 130.04 83.09 129.95 C 99.02 129.24 112.84 115.01 112.99 99.06 C 112.98 79.34 113.06 59.63 112.96 39.92 C 112.26 23.98 98.02 10.19 82.06 10.00 C 65.74 10.13 49.40 9.72 33.10 10.21 Z" />
<path fill="#000000" opacity="1.00" d=" M 33.35 12.34 C 44.87 11.74 56.44 12.24 67.98 12.07 C 76.65 12.33 85.91 10.89 93.93 15.06 C 104.14 19.79 111.02 30.75 110.91 41.99 C 110.94 60.67 110.94 79.35 110.91 98.03 C 110.98 108.73 104.79 119.26 95.28 124.24 C 90.36 127.05 84.61 128.05 78.99 127.94 C 65.00 127.91 51.01 127.95 37.02 127.92 C 26.30 127.97 15.73 121.80 10.76 112.26 C 8.12 107.64 6.99 102.29 7.07 97.00 C 7.11 78.32 7.00 59.64 7.13 40.96 C 7.33 26.70 19.14 13.77 33.35 12.34 M 48.25 31.48 C 49.59 34.90 50.91 38.32 52.23 41.75 C 56.42 39.44 61.59 39.44 65.77 41.75 C 67.08 38.33 68.39 34.91 69.76 31.51 C 63.08 28.16 54.93 28.17 48.25 31.48 M 57.42 46.46 C 52.00 47.29 49.52 54.73 53.50 58.58 C 57.28 62.98 65.53 60.77 66.34 54.94 C 67.53 49.93 62.30 45.21 57.42 46.46 M 33.91 56.87 C 34.39 64.20 38.44 71.14 44.65 75.08 C 47.05 72.23 49.50 69.42 51.76 66.46 C 47.62 64.26 45.12 59.75 44.98 55.12 C 41.29 55.72 37.60 56.27 33.91 56.87 M 73.02 55.12 C 72.90 59.80 70.32 64.23 66.22 66.53 C 68.57 69.40 70.93 72.26 73.33 75.08 C 79.57 71.16 83.60 64.20 84.09 56.87 C 80.40 56.26 76.71 55.72 73.02 55.12 Z" />
</g>
<g id="#6f6f6fff">
<path fill="#6f6f6f" opacity="1.00" d=" M 33.10 10.21 C 49.40 9.72 65.74 10.13 82.06 10.00 C 98.02 10.19 112.26 23.98 112.96 39.92 C 113.06 59.63 112.98 79.34 112.99 99.06 C 112.84 115.01 99.02 129.24 83.09 129.95 C 67.04 130.04 50.98 130.03 34.93 129.96 C 19.34 129.25 5.75 115.65 5.04 100.07 C 4.95 83.05 5.03 66.03 5.00 49.01 C 5.08 44.00 4.57 38.87 6.01 33.99 C 9.07 21.51 20.33 11.65 33.10 10.21 M 33.35 12.34 C 19.14 13.77 7.33 26.70 7.13 40.96 C 7.00 59.64 7.11 78.32 7.07 97.00 C 6.99 102.29 8.12 107.64 10.76 112.26 C 15.73 121.80 26.30 127.97 37.02 127.92 C 51.01 127.95 65.00 127.91 78.99 127.94 C 84.61 128.05 90.36 127.05 95.28 124.24 C 104.79 119.26 110.98 108.73 110.91 98.03 C 110.94 79.35 110.94 60.67 110.91 41.99 C 111.02 30.75 104.14 19.79 93.93 15.06 C 85.91 10.89 76.65 12.33 67.98 12.07 C 56.44 12.24 44.87 11.74 33.35 12.34 Z" />
</g>
<g id="#f8fcf8ff">
<path fill="#f8fcf8" opacity="1.00" d=" M 48.25 31.48 C 54.93 28.17 63.08 28.16 69.76 31.51 C 68.39 34.91 67.08 38.33 65.77 41.75 C 61.59 39.44 56.42 39.44 52.23 41.75 C 50.91 38.32 49.59 34.90 48.25 31.48 Z" />
<path fill="#f8fcf8" opacity="1.00" d=" M 57.42 46.46 C 62.30 45.21 67.53 49.93 66.34 54.94 C 65.53 60.77 57.28 62.98 53.50 58.58 C 49.52 54.73 52.00 47.29 57.42 46.46 Z" />
<path fill="#f8fcf8" opacity="1.00" d=" M 33.91 56.87 C 37.60 56.27 41.29 55.72 44.98 55.12 C 45.12 59.75 47.62 64.26 51.76 66.46 C 49.50 69.42 47.05 72.23 44.65 75.08 C 38.44 71.14 34.39 64.20 33.91 56.87 Z" />
<path fill="#f8fcf8" opacity="1.00" d=" M 73.02 55.12 C 76.71 55.72 80.40 56.26 84.09 56.87 C 83.60 64.20 79.57 71.16 73.33 75.08 C 70.93 72.26 68.57 69.40 66.22 66.53 C 70.32 64.23 72.90 59.80 73.02 55.12 Z" />
</g>
</svg>
