<?xml version="1.0" encoding="UTF-8" ?>
<!DOCTYPE svg PUBLIC "-//W3C//DTD SVG 1.1//EN" "http://www.w3.org/Graphics/SVG/1.1/DTD/svg11.dtd">
<svg width="117px" height="140px" viewBox="0 0 117 140" version="1.1" xmlns="http://www.w3.org/2000/svg">
<g id="#000000ff">
<path fill="#000000" opacity="1.00" d=" M 0.00 0.00 L 117.00 0.00 L 117.00 140.00 L 0.00 140.00 L 0.00 0.00 M 33.20 10.23 C 22.49 11.43 12.70 18.48 8.13 28.23 C 5.73 33.11 4.82 38.60 4.98 44.01 C 5.09 62.68 4.87 81.36 5.08 100.03 C 5.73 115.63 19.38 129.29 34.99 129.92 C 50.68 130.09 66.38 130.00 82.07 129.96 C 98.36 129.83 112.82 115.38 112.96 99.09 C 113.05 80.05 112.98 61.00 112.99 41.96 C 113.17 29.12 104.69 16.80 92.71 12.23 C 84.88 8.95 76.25 10.24 68.00 10.00 C 56.40 10.16 44.78 9.68 33.20 10.23 Z" />
<path fill="#000000" opacity="1.00" d=" M 30.48 12.69 C 34.59 11.81 38.83 12.02 43.00 12.00 C 56.03 12.03 69.06 11.94 82.09 12.05 C 98.06 12.15 111.91 27.00 111.00 42.93 C 110.97 61.65 111.06 80.36 110.95 99.07 C 110.86 114.31 97.28 127.86 82.05 127.94 C 66.67 128.05 51.29 128.02 35.91 127.95 C 20.65 127.82 7.09 114.23 7.04 98.97 C 6.98 79.65 6.97 60.33 7.04 41.00 C 7.17 27.66 17.48 15.42 30.48 12.69 M 40.72 45.00 C 41.58 46.12 42.54 47.17 43.47 48.24 C 46.78 46.62 50.26 44.99 54.03 44.97 C 58.58 44.63 62.66 46.99 66.31 49.41 C 68.14 46.85 69.86 44.21 71.42 41.47 C 68.58 38.07 63.26 37.48 58.99 37.45 C 52.20 36.96 45.11 39.74 40.72 45.00 M 67.20 50.99 C 70.57 54.35 71.34 59.07 71.97 63.57 C 75.73 63.58 79.49 63.60 83.25 63.54 C 84.21 54.95 79.50 46.85 72.92 41.68 C 71.12 44.85 69.25 47.98 67.20 50.99 M 57.00 45.33 C 56.45 51.12 56.42 56.99 55.33 62.72 C 56.91 62.55 58.49 62.47 60.07 62.48 C 59.79 57.30 59.17 52.14 58.91 46.96 C 58.26 46.42 57.63 45.88 57.00 45.33 M 33.76 58.69 C 34.68 59.12 35.59 59.55 36.51 59.98 C 37.59 55.92 39.83 52.45 42.25 49.09 C 41.37 48.02 40.24 47.20 39.15 46.37 C 36.62 50.10 34.55 54.21 33.76 58.69 M 54.99 65.67 C 55.10 66.87 54.53 68.47 55.75 69.29 C 57.56 71.68 61.08 69.57 61.11 66.97 C 60.34 65.79 59.22 64.90 58.18 63.98 C 57.12 64.55 56.06 65.11 54.99 65.67 Z" />
<path fill="#000000" opacity="1.00" d=" M 54.65 41.24 C 56.60 40.78 58.61 40.69 60.60 40.85 C 58.98 42.66 56.63 41.64 54.65 41.24 Z" />
<path fill="#000000" opacity="1.00" d=" M 62.64 41.09 C 64.09 41.45 65.54 41.82 66.99 42.16 C 66.34 43.03 65.69 43.90 65.04 44.76 C 63.88 43.79 62.88 42.65 62.64 41.09 Z" />
<path fill="#000000" opacity="1.00" d=" M 72.46 49.55 C 71.77 48.58 72.80 46.55 74.08 47.14 C 74.97 48.07 73.63 49.99 72.46 49.55 Z" />
<path fill="#000000" opacity="1.00" d=" M 76.40 50.29 C 76.99 51.44 77.57 52.58 78.16 53.73 C 76.79 54.31 75.42 54.92 74.05 55.52 C 73.76 54.96 73.18 53.85 72.88 53.29 C 74.06 52.29 75.23 51.29 76.40 50.29 Z" />
<path fill="#000000" opacity="1.00" d=" M 74.13 59.89 C 75.69 58.72 77.38 57.76 79.06 56.78 C 79.28 57.86 79.51 58.95 79.74 60.03 C 77.87 60.01 75.99 59.98 74.13 59.89 Z" />
</g>
<g id="#737373ff">
<path fill="#737373" opacity="1.00" d=" M 33.20 10.23 C 44.78 9.68 56.40 10.16 68.00 10.00 C 76.25 10.24 84.88 8.95 92.71 12.23 C 104.69 16.80 113.17 29.12 112.99 41.96 C 112.98 61.00 113.05 80.05 112.96 99.09 C 112.82 115.38 98.36 129.83 82.07 129.96 C 66.38 130.00 50.68 130.09 34.99 129.92 C 19.38 129.29 5.73 115.63 5.08 100.03 C 4.87 81.36 5.09 62.68 4.98 44.01 C 4.82 38.60 5.73 33.11 8.13 28.23 C 12.70 18.48 22.49 11.43 33.20 10.23 M 30.48 12.69 C 17.48 15.42 7.17 27.66 7.04 41.00 C 6.97 60.33 6.98 79.65 7.04 98.97 C 7.09 114.23 20.65 127.82 35.91 127.95 C 51.29 128.02 66.67 128.05 82.05 127.94 C 97.28 127.86 110.86 114.31 110.95 99.07 C 111.06 80.36 110.97 61.65 111.00 42.93 C 111.91 27.00 98.06 12.15 82.09 12.05 C 69.06 11.94 56.03 12.03 43.00 12.00 C 38.83 12.02 34.59 11.81 30.48 12.69 Z" />
</g>
<g id="#f8fcf8ff">
<path fill="#f8fcf8" opacity="1.00" d=" M 40.72 45.00 C 45.11 39.74 52.20 36.96 58.99 37.45 C 63.26 37.48 68.58 38.07 71.42 41.47 C 69.86 44.21 68.14 46.85 66.31 49.41 C 62.66 46.99 58.58 44.63 54.03 44.97 C 50.26 44.99 46.78 46.62 43.47 48.24 C 42.54 47.17 41.58 46.12 40.72 45.00 M 54.65 41.24 C 56.63 41.64 58.98 42.66 60.60 40.85 C 58.61 40.69 56.60 40.78 54.65 41.24 M 62.64 41.09 C 62.88 42.65 63.88 43.79 65.04 44.76 C 65.69 43.90 66.34 43.03 66.99 42.16 C 65.54 41.82 64.09 41.45 62.64 41.09 Z" />
<path fill="#f8fcf8" opacity="1.00" d=" M 67.20 50.99 C 69.25 47.98 71.12 44.85 72.92 41.68 C 79.50 46.85 84.21 54.95 83.25 63.54 C 79.49 63.60 75.73 63.58 71.97 63.57 C 71.34 59.07 70.57 54.35 67.20 50.99 M 72.46 49.55 C 73.63 49.99 74.97 48.07 74.08 47.14 C 72.80 46.55 71.77 48.58 72.46 49.55 M 76.40 50.29 C 75.23 51.29 74.06 52.29 72.88 53.29 C 73.18 53.85 73.76 54.96 74.05 55.52 C 75.42 54.92 76.79 54.31 78.16 53.73 C 77.57 52.58 76.99 51.44 76.40 50.29 M 74.13 59.89 C 75.99 59.98 77.87 60.01 79.74 60.03 C 79.51 58.95 79.28 57.86 79.06 56.78 C 77.38 57.76 75.69 58.72 74.13 59.89 Z" />
<path fill="#f8fcf8" opacity="1.00" d=" M 57.00 45.33 C 57.63 45.88 58.26 46.42 58.91 46.96 C 59.17 52.14 59.79 57.30 60.07 62.48 C 58.49 62.47 56.91 62.55 55.33 62.72 C 56.42 56.99 56.45 51.12 57.00 45.33 Z" />
<path fill="#f8fcf8" opacity="1.00" d=" M 33.76 58.69 C 34.55 54.21 36.62 50.10 39.15 46.37 C 40.24 47.20 41.37 48.02 42.25 49.09 C 39.83 52.45 37.59 55.92 36.51 59.98 C 35.59 59.55 34.68 59.12 33.76 58.69 Z" />
<path fill="#f8fcf8" opacity="1.00" d=" M 54.99 65.67 C 56.06 65.11 57.12 64.55 58.18 63.98 C 59.22 64.90 60.34 65.79 61.11 66.97 C 61.08 69.57 57.56 71.68 55.75 69.29 C 54.53 68.47 55.10 66.87 54.99 65.67 Z" />
</g>
</svg>
