<?xml version="1.0" encoding="UTF-8" ?>
<!DOCTYPE svg PUBLIC "-//W3C//DTD SVG 1.1//EN" "http://www.w3.org/Graphics/SVG/1.1/DTD/svg11.dtd">
<svg width="117px" height="140px" viewBox="0 0 117 140" version="1.1" xmlns="http://www.w3.org/2000/svg">
<g id="#000000ff">
<path fill="#000000" opacity="1.00" d=" M 0.00 0.00 L 117.00 0.00 L 117.00 140.00 L 0.00 140.00 L 0.00 0.00 M 61.20 34.18 C 59.83 34.40 58.44 34.62 57.19 35.23 C 53.58 36.80 49.36 38.12 47.44 41.89 C 47.63 43.39 48.00 44.85 48.55 46.27 C 43.09 46.93 38.28 50.17 34.56 54.10 C 41.51 62.14 49.52 69.23 56.92 76.87 C 61.15 73.19 64.64 68.69 66.01 63.17 C 67.01 63.60 68.00 64.04 68.99 64.48 C 76.91 59.11 77.90 49.04 81.05 40.79 C 82.80 37.38 81.85 33.12 78.81 30.78 C 77.89 30.50 76.99 30.14 76.11 29.72 C 70.96 30.37 65.98 32.20 61.20 34.18 Z" />
<path fill="#000000" opacity="1.00" d=" M 50.06 42.66 C 56.18 37.26 64.81 36.52 72.11 33.38 C 75.00 31.52 79.35 33.61 79.00 37.19 C 77.16 43.77 74.68 50.13 72.72 56.67 C 71.71 58.49 70.16 59.92 68.91 61.57 C 67.43 60.14 65.96 58.70 64.46 57.28 C 63.09 62.75 61.80 68.52 57.91 72.81 C 56.86 72.41 55.92 71.80 55.19 70.95 C 50.03 65.70 44.76 60.54 39.58 55.30 C 38.07 54.33 39.87 53.16 40.62 52.47 C 44.75 49.73 49.75 48.88 54.30 47.10 C 52.88 45.63 51.44 44.17 50.06 42.66 Z" />
</g>
<g id="#f7fbf7ff">
<path fill="#f7fbf7" opacity="1.00" d=" M 61.20 34.18 C 65.98 32.20 70.96 30.37 76.11 29.72 C 76.99 30.14 77.89 30.50 78.81 30.78 C 81.85 33.12 82.80 37.38 81.05 40.79 C 77.90 49.04 76.91 59.11 68.99 64.48 C 68.00 64.04 67.01 63.60 66.01 63.17 C 64.64 68.69 61.15 73.19 56.92 76.87 C 49.52 69.23 41.51 62.14 34.56 54.10 C 38.28 50.17 43.09 46.93 48.55 46.27 C 48.00 44.85 47.63 43.39 47.44 41.89 C 49.36 38.12 53.58 36.80 57.19 35.23 C 58.44 34.62 59.83 34.40 61.20 34.18 M 50.06 42.66 C 51.44 44.17 52.88 45.63 54.30 47.10 C 49.75 48.88 44.75 49.73 40.62 52.47 C 39.87 53.16 38.07 54.33 39.58 55.30 C 44.76 60.54 50.03 65.70 55.19 70.95 C 55.92 71.80 56.86 72.41 57.91 72.81 C 61.80 68.52 63.09 62.75 64.46 57.28 C 65.96 58.70 67.43 60.14 68.91 61.57 C 70.16 59.92 71.71 58.49 72.72 56.67 C 74.68 50.13 77.16 43.77 79.00 37.19 C 79.35 33.61 75.00 31.52 72.11 33.38 C 64.81 36.52 56.18 37.26 50.06 42.66 Z" />
</g>
</svg>
