<?xml version="1.0" encoding="UTF-8" ?>
<!DOCTYPE svg PUBLIC "-//W3C//DTD SVG 1.1//EN" "http://www.w3.org/Graphics/SVG/1.1/DTD/svg11.dtd">
<svg width="150px" height="80px" viewBox="0 0 150 80" version="1.1" xmlns="http://www.w3.org/2000/svg">
<g id="#000000ff">
<path fill="#000000" opacity="1.00" d=" M 0.00 0.00 L 150.00 0.00 L 150.00 80.00 L 0.00 80.00 L 0.00 0.00 M 6.36 5.50 C 2.36 6.70 0.58 11.05 0.96 14.94 C 1.01 31.65 1.01 48.35 0.96 65.06 C 0.94 67.74 1.23 70.74 3.35 72.65 C 5.26 74.77 8.26 75.06 10.94 75.03 C 50.96 74.97 90.98 75.02 131.00 75.01 C 134.95 74.95 138.94 75.31 142.86 74.73 C 146.80 73.99 149.31 69.95 149.00 66.08 C 148.98 48.37 149.08 30.65 148.95 12.94 C 149.13 8.24 144.61 4.59 140.07 4.99 C 99.05 4.98 58.03 5.02 17.01 4.98 C 13.46 5.07 9.83 4.60 6.36 5.50 Z" />
<path fill="#000000" opacity="1.00" d=" M 7.29 7.33 C 8.49 7.10 9.71 6.99 10.93 6.99 C 53.64 7.02 96.35 7.02 139.07 6.99 C 141.20 7.05 143.66 7.08 145.26 8.74 C 147.16 10.62 146.95 13.50 147.03 15.95 C 146.94 32.66 147.04 49.36 146.99 66.06 C 147.19 68.89 145.69 72.04 142.73 72.70 C 139.18 73.28 135.57 72.94 132.00 73.00 C 91.64 73.00 51.29 72.97 10.93 73.01 C 8.79 72.97 6.32 72.94 4.76 71.22 C 2.82 69.38 3.06 66.50 2.97 64.05 C 3.06 47.35 2.95 30.64 3.02 13.94 C 2.84 11.12 4.34 7.97 7.29 7.33 M 42.00 28.00 C 42.00 35.33 42.00 42.67 42.00 50.00 C 49.00 50.00 56.00 50.00 63.00 50.00 C 63.00 42.67 63.00 35.33 63.00 28.00 C 56.00 28.00 49.00 28.00 42.00 28.00 Z" />
</g>
<g id="#6e726eff">
<path fill="#6e726e" opacity="1.00" d=" M 6.36 5.50 C 9.83 4.60 13.46 5.07 17.01 4.98 C 58.03 5.02 99.05 4.98 140.07 4.99 C 144.61 4.59 149.13 8.24 148.95 12.94 C 149.08 30.65 148.98 48.37 149.00 66.08 C 149.31 69.95 146.80 73.99 142.86 74.73 C 138.94 75.31 134.95 74.95 131.00 75.01 C 90.98 75.02 50.96 74.97 10.94 75.03 C 8.26 75.06 5.26 74.77 3.35 72.65 C 1.23 70.74 0.94 67.74 0.96 65.06 C 1.01 48.35 1.01 31.65 0.96 14.94 C 0.58 11.05 2.36 6.70 6.36 5.50 M 7.29 7.33 C 4.34 7.97 2.84 11.12 3.02 13.94 C 2.95 30.64 3.06 47.35 2.97 64.05 C 3.06 66.50 2.82 69.38 4.76 71.22 C 6.32 72.94 8.79 72.97 10.93 73.01 C 51.29 72.97 91.64 73.00 132.00 73.00 C 135.57 72.94 139.18 73.28 142.73 72.70 C 145.69 72.04 147.19 68.89 146.99 66.06 C 147.04 49.36 146.94 32.66 147.03 15.95 C 146.95 13.50 147.16 10.62 145.26 8.74 C 143.66 7.08 141.20 7.05 139.07 6.99 C 96.35 7.02 53.64 7.02 10.93 6.99 C 9.71 6.99 8.49 7.10 7.29 7.33 Z" />
</g>
<g id="#f8fcf8ff">
<path fill="#f8fcf8" opacity="1.00" d=" M 42.00 28.00 C 49.00 28.00 56.00 28.00 63.00 28.00 C 63.00 35.33 63.00 42.67 63.00 50.00 C 56.00 50.00 49.00 50.00 42.00 50.00 C 42.00 42.67 42.00 35.33 42.00 28.00 Z" />
</g>
</svg>
