<?xml version="1.0" encoding="UTF-8" ?>
<!DOCTYPE svg PUBLIC "-//W3C//DTD SVG 1.1//EN" "http://www.w3.org/Graphics/SVG/1.1/DTD/svg11.dtd">
<svg width="45px" height="45px" viewBox="0 0 45 45" version="1.1" xmlns="http://www.w3.org/2000/svg">
<g id="#000000ff">
<path fill="#000000" opacity="1.00" d=" M 0.00 0.00 L 45.00 0.00 L 45.00 45.00 L 0.00 45.00 L 0.00 0.00 M 23.43 10.30 C 23.71 10.94 23.98 11.58 24.26 12.22 C 26.04 12.70 27.81 13.24 29.59 13.77 C 28.58 15.21 27.81 16.79 27.10 18.39 C 27.63 18.33 28.70 18.20 29.23 18.14 C 29.79 17.07 30.35 16.00 30.93 14.93 C 32.66 17.28 34.18 20.01 33.72 23.05 C 33.56 28.03 29.01 31.78 24.23 32.15 C 24.25 31.16 24.29 29.18 24.30 28.18 C 22.08 28.49 22.27 30.71 23.84 31.88 C 19.29 32.05 16.01 28.62 14.25 24.77 C 15.11 24.60 16.85 24.26 17.71 24.09 C 16.25 22.37 14.68 20.76 13.05 19.20 C 11.84 20.94 9.08 22.10 9.25 24.48 C 9.94 24.46 11.33 24.42 12.02 24.39 C 13.20 29.54 17.68 33.95 23.07 34.27 C 29.87 35.03 36.46 28.81 36.04 21.97 C 36.21 15.43 30.01 9.48 23.43 10.30 M 22.66 15.37 C 22.57 17.77 22.78 20.19 22.49 22.57 C 21.35 24.26 19.57 25.57 19.24 27.71 C 22.92 27.56 25.91 23.61 25.21 19.98 C 25.16 18.22 25.59 14.92 22.66 15.37 M 30.31 22.03 C 30.45 23.42 31.14 23.67 32.37 22.78 C 32.21 21.40 31.53 21.15 30.31 22.03 M 27.43 26.45 C 26.65 27.63 27.92 29.41 29.27 29.27 C 29.52 29.01 30.02 28.48 30.27 28.22 C 30.39 26.87 28.59 25.63 27.43 26.45 Z" />
</g>
<g id="#e1e4e1ff">
<path fill="#e1e4e1" opacity="1.00" d=" M 23.43 10.30 C 30.01 9.48 36.21 15.43 36.04 21.97 C 36.46 28.81 29.87 35.03 23.07 34.27 C 17.68 33.95 13.20 29.54 12.02 24.39 C 11.33 24.42 9.94 24.46 9.25 24.48 C 9.08 22.10 11.84 20.94 13.05 19.20 C 14.68 20.76 16.25 22.37 17.71 24.09 C 16.85 24.26 15.11 24.60 14.25 24.77 C 16.01 28.62 19.29 32.05 23.84 31.88 C 22.27 30.71 22.08 28.49 24.30 28.18 C 24.29 29.18 24.25 31.16 24.23 32.15 C 29.01 31.78 33.56 28.03 33.72 23.05 C 34.18 20.01 32.66 17.28 30.93 14.93 C 30.35 16.00 29.79 17.07 29.23 18.14 C 28.70 18.20 27.63 18.33 27.10 18.39 C 27.81 16.79 28.58 15.21 29.59 13.77 C 27.81 13.24 26.04 12.70 24.26 12.22 C 23.98 11.58 23.71 10.94 23.43 10.30 Z" />
<path fill="#e1e4e1" opacity="1.00" d=" M 22.66 15.37 C 25.59 14.92 25.16 18.22 25.21 19.98 C 25.91 23.61 22.92 27.56 19.24 27.71 C 19.57 25.57 21.35 24.26 22.49 22.57 C 22.78 20.19 22.57 17.77 22.66 15.37 Z" />
<path fill="#e1e4e1" opacity="1.00" d=" M 30.31 22.03 C 31.53 21.15 32.21 21.40 32.37 22.78 C 31.14 23.67 30.45 23.42 30.31 22.03 Z" />
<path fill="#e1e4e1" opacity="1.00" d=" M 27.43 26.45 C 28.59 25.63 30.39 26.87 30.27 28.22 C 30.02 28.48 29.52 29.01 29.27 29.27 C 27.92 29.41 26.65 27.63 27.43 26.45 Z" />
</g>
</svg>
