<?xml version="1.0" encoding="UTF-8" ?>
<!DOCTYPE svg PUBLIC "-//W3C//DTD SVG 1.1//EN" "http://www.w3.org/Graphics/SVG/1.1/DTD/svg11.dtd">
<svg width="117px" height="140px" viewBox="0 0 117 140" version="1.1" xmlns="http://www.w3.org/2000/svg">
<g id="#000000ff">
<path fill="#000000" opacity="1.00" d=" M 0.00 0.00 L 117.00 0.00 L 117.00 140.00 L 0.00 140.00 L 0.00 0.00 M 33.20 10.24 C 17.93 11.78 5.17 25.64 5.03 41.01 C 4.98 60.35 4.98 79.70 5.03 99.05 C 5.19 115.01 19.01 129.27 34.97 129.92 C 50.32 130.11 65.68 129.95 81.04 130.00 C 92.33 130.08 103.35 123.64 108.81 113.76 C 111.76 108.73 113.12 102.86 113.01 97.05 C 112.98 78.69 113.02 60.34 112.99 41.98 C 113.08 31.19 107.20 20.61 98.04 14.94 C 92.42 11.34 85.69 9.75 79.06 9.98 C 63.77 10.18 48.47 9.67 33.20 10.24 Z" />
<path fill="#000000" opacity="1.00" d=" M 30.45 12.69 C 33.60 12.00 36.85 11.97 40.06 11.99 C 54.04 12.04 68.01 11.94 81.99 12.03 C 93.19 12.19 103.80 19.42 108.34 29.61 C 110.51 34.08 111.10 39.10 111.01 44.01 C 110.96 62.35 111.07 80.70 110.96 99.05 C 110.88 114.28 97.32 127.84 82.09 127.95 C 66.38 128.01 50.66 128.08 34.95 127.91 C 20.09 127.28 7.15 113.95 7.03 99.06 C 6.97 79.71 6.98 60.36 7.03 41.01 C 7.16 27.67 17.45 15.44 30.45 12.69 M 33.20 39.67 C 34.24 40.63 35.27 41.59 36.31 42.56 C 47.31 31.52 66.84 31.58 77.89 42.52 C 78.86 41.41 79.84 40.30 80.81 39.18 C 75.44 34.79 69.14 31.22 62.15 30.43 C 51.75 28.88 40.67 32.18 33.20 39.67 M 51.15 40.10 C 46.90 40.96 43.23 43.37 39.91 46.04 C 41.06 47.24 42.24 48.41 43.37 49.62 C 50.54 42.53 63.24 42.35 70.48 49.43 C 71.76 48.29 73.06 47.17 74.29 45.98 C 68.03 40.56 59.26 38.00 51.15 40.10 M 47.00 53.05 C 48.13 54.18 49.26 55.32 50.40 56.45 C 54.25 53.21 59.83 53.40 63.79 56.32 C 64.94 55.17 66.10 54.03 67.27 52.90 C 61.42 48.29 52.69 48.01 47.00 53.05 M 73.61 52.92 C 73.46 57.69 73.52 62.47 73.67 67.25 C 62.45 67.43 51.23 67.25 40.01 67.33 C 37.22 67.12 34.61 69.46 34.35 72.21 C 34.05 75.27 36.85 78.15 39.93 77.94 C 52.63 77.95 65.33 78.03 78.03 77.91 C 81.60 77.91 84.09 73.71 82.53 70.55 C 81.54 67.97 78.63 67.24 76.16 67.11 C 76.23 62.09 76.47 57.05 76.09 52.04 C 75.61 50.61 73.07 51.33 73.61 52.92 M 53.14 58.99 C 54.38 60.35 55.33 62.12 57.04 62.98 C 59.19 62.84 60.00 60.42 61.18 58.97 C 58.67 56.95 55.69 57.17 53.14 58.99 Z" />
<path fill="#000000" opacity="1.00" d=" M 62.36 73.61 C 61.21 72.11 62.99 71.57 64.00 70.85 C 65.38 72.25 64.47 75.24 62.36 73.61 Z" />
<path fill="#000000" opacity="1.00" d=" M 66.57 71.64 C 67.82 70.56 69.89 72.25 68.42 73.50 C 67.78 75.46 64.72 72.51 66.57 71.64 Z" />
<path fill="#000000" opacity="1.00" d=" M 70.04 72.10 C 70.88 70.86 72.15 71.60 73.26 71.91 C 72.93 72.55 72.27 73.84 71.94 74.48 C 70.87 74.00 70.24 73.21 70.04 72.10 Z" />
</g>
<g id="#747574ff">
<path fill="#747574" opacity="1.00" d=" M 33.20 10.24 C 48.47 9.67 63.77 10.18 79.06 9.98 C 85.69 9.75 92.42 11.34 98.04 14.94 C 107.20 20.61 113.08 31.19 112.99 41.98 C 113.02 60.34 112.98 78.69 113.01 97.05 C 113.12 102.86 111.76 108.73 108.81 113.76 C 103.35 123.64 92.33 130.08 81.04 130.00 C 65.68 129.95 50.32 130.11 34.97 129.92 C 19.01 129.27 5.19 115.01 5.03 99.05 C 4.98 79.70 4.98 60.35 5.03 41.01 C 5.17 25.64 17.93 11.78 33.20 10.24 M 30.45 12.69 C 17.45 15.44 7.16 27.67 7.03 41.01 C 6.98 60.36 6.97 79.71 7.03 99.06 C 7.15 113.95 20.09 127.28 34.95 127.91 C 50.66 128.08 66.38 128.01 82.09 127.95 C 97.32 127.84 110.88 114.28 110.96 99.05 C 111.07 80.70 110.96 62.35 111.01 44.01 C 111.10 39.10 110.51 34.08 108.34 29.61 C 103.80 19.42 93.19 12.19 81.99 12.03 C 68.01 11.94 54.04 12.04 40.06 11.99 C 36.85 11.97 33.60 12.00 30.45 12.69 Z" />
</g>
<g id="#f8fcf8ff">
<path fill="#f8fcf8" opacity="1.00" d=" M 33.20 39.67 C 40.67 32.18 51.75 28.88 62.15 30.43 C 69.14 31.22 75.44 34.79 80.81 39.18 C 79.84 40.30 78.86 41.41 77.89 42.52 C 66.84 31.58 47.31 31.52 36.31 42.56 C 35.27 41.59 34.24 40.63 33.20 39.67 Z" />
<path fill="#f8fcf8" opacity="1.00" d=" M 51.15 40.10 C 59.26 38.00 68.03 40.56 74.29 45.98 C 73.06 47.17 71.76 48.29 70.48 49.43 C 63.24 42.35 50.54 42.53 43.37 49.62 C 42.24 48.41 41.06 47.24 39.91 46.04 C 43.23 43.37 46.90 40.96 51.15 40.10 Z" />
<path fill="#f8fcf8" opacity="1.00" d=" M 47.00 53.05 C 52.69 48.01 61.42 48.29 67.27 52.90 C 66.10 54.03 64.94 55.17 63.79 56.32 C 59.83 53.40 54.25 53.21 50.40 56.45 C 49.26 55.32 48.13 54.18 47.00 53.05 Z" />
<path fill="#f8fcf8" opacity="1.00" d=" M 73.61 52.92 C 73.07 51.33 75.61 50.61 76.09 52.04 C 76.47 57.05 76.23 62.09 76.16 67.11 C 78.63 67.24 81.54 67.97 82.53 70.55 C 84.09 73.71 81.60 77.91 78.03 77.91 C 65.33 78.03 52.63 77.95 39.93 77.94 C 36.85 78.15 34.05 75.27 34.35 72.21 C 34.61 69.46 37.22 67.12 40.01 67.33 C 51.23 67.25 62.45 67.43 73.67 67.25 C 73.52 62.47 73.46 57.69 73.61 52.92 M 62.36 73.61 C 64.47 75.24 65.38 72.25 64.00 70.85 C 62.99 71.57 61.21 72.11 62.36 73.61 M 66.57 71.64 C 64.72 72.51 67.78 75.46 68.42 73.50 C 69.89 72.25 67.82 70.56 66.57 71.64 M 70.04 72.10 C 70.24 73.21 70.87 74.00 71.94 74.48 C 72.27 73.84 72.93 72.55 73.26 71.91 C 72.15 71.60 70.88 70.86 70.04 72.10 Z" />
<path fill="#f8fcf8" opacity="1.00" d=" M 53.14 58.99 C 55.69 57.17 58.67 56.95 61.18 58.97 C 60.00 60.42 59.19 62.84 57.04 62.98 C 55.33 62.12 54.38 60.35 53.14 58.99 Z" />
</g>
</svg>
