<?xml version="1.0" encoding="UTF-8" ?>
<!DOCTYPE svg PUBLIC "-//W3C//DTD SVG 1.1//EN" "http://www.w3.org/Graphics/SVG/1.1/DTD/svg11.dtd">
<svg width="117px" height="140px" viewBox="0 0 117 140" version="1.1" xmlns="http://www.w3.org/2000/svg">
<g id="#181818ff">
<path fill="#181818" opacity="1.00" d=" M 0.00 0.00 L 117.00 0.00 L 117.00 140.00 L 0.00 140.00 L 0.00 0.00 M 61.16 21.25 C 57.38 22.41 55.51 27.59 58.32 30.62 C 60.86 34.17 66.69 33.31 68.39 29.40 C 70.69 25.03 65.75 19.49 61.16 21.25 M 25.07 46.19 C 23.08 47.90 21.22 49.76 19.75 51.94 C 20.11 52.54 20.82 53.75 21.18 54.36 L 21.62 54.28 C 22.89 55.66 24.19 57.02 25.52 58.35 C 27.29 60.17 29.13 61.93 31.00 63.65 C 33.72 62.86 33.36 60.06 33.36 57.83 C 33.33 56.29 33.32 54.75 33.32 53.21 C 33.32 50.94 33.32 48.68 33.35 46.42 C 33.12 44.46 34.21 40.50 31.02 40.67 C 28.59 41.93 27.03 44.35 25.07 46.19 M 84.04 49.65 C 84.03 51.39 84.02 53.14 84.00 54.89 C 83.99 56.98 83.92 59.07 84.09 61.15 C 83.88 62.60 85.67 64.02 86.92 62.96 C 89.84 60.63 92.24 57.74 94.98 55.22 C 95.90 54.16 96.80 53.09 97.70 52.02 C 96.93 51.05 96.16 50.09 95.37 49.14 C 92.12 46.28 89.47 42.79 85.95 40.23 C 82.58 42.16 84.45 46.49 84.04 49.65 M 36.90 49.83 C 35.17 51.33 36.13 53.80 37.85 54.81 L 37.52 55.16 C 40.32 55.60 42.59 53.38 42.16 50.58 L 41.85 50.87 C 40.83 49.19 38.43 48.16 36.90 49.83 M 44.90 49.83 C 43.16 51.32 44.12 53.83 45.87 54.81 L 45.54 55.16 C 48.32 55.59 50.59 53.38 50.16 50.59 L 49.89 50.85 C 48.81 49.23 46.44 48.15 44.90 49.83 M 52.85 49.89 C 51.15 51.41 52.20 53.81 53.85 54.85 L 53.59 55.13 C 56.33 55.60 58.61 53.36 58.12 50.61 L 57.85 50.86 C 56.81 49.17 54.36 48.15 52.85 49.89 M 60.86 49.88 C 59.14 51.40 60.22 53.79 61.84 54.87 L 61.58 55.16 C 64.44 55.62 66.71 53.21 65.96 50.42 C 64.52 49.38 62.32 48.14 60.86 49.88 M 68.86 49.88 C 67.14 51.36 68.38 53.54 69.46 54.97 C 72.31 55.74 74.56 53.34 74.26 50.51 L 73.77 50.95 C 72.89 49.12 70.35 48.16 68.86 49.88 M 76.85 49.88 C 75.14 51.36 76.40 53.53 77.41 54.98 C 80.22 55.69 82.59 53.46 82.18 50.58 L 81.85 50.88 C 80.85 49.16 78.36 48.15 76.85 49.88 M 37.90 68.17 L 37.74 68.33 C 40.93 70.66 44.69 66.71 42.23 63.64 C 39.25 61.23 35.00 65.34 37.90 68.17 M 76.27 71.32 C 74.07 72.26 73.09 75.42 74.78 77.26 C 76.51 79.89 81.09 78.93 81.68 75.87 C 82.72 72.83 79.06 69.76 76.27 71.32 Z" />
<path fill="#181818" opacity="1.00" d=" M 24.83 51.99 C 26.29 50.57 27.76 49.14 29.23 47.73 C 29.27 49.57 29.30 51.41 29.29 53.24 C 29.28 54.02 29.27 55.58 29.26 56.35 C 28.26 55.38 27.26 54.40 26.27 53.42 C 25.91 53.06 25.19 52.34 24.83 51.99 Z" />
</g>
<g id="#60dc48ff">
<path fill="#60dc48" opacity="1.00" d=" M 61.16 21.25 C 65.75 19.49 70.69 25.03 68.39 29.40 C 66.69 33.31 60.86 34.17 58.32 30.62 C 55.51 27.59 57.38 22.41 61.16 21.25 Z" />
</g>
<g id="#8860f0ff">
<path fill="#8860f0" opacity="1.00" d=" M 25.07 46.19 C 27.03 44.35 28.59 41.93 31.02 40.67 C 34.21 40.50 33.12 44.46 33.35 46.42 C 30.59 46.55 27.81 46.56 25.07 46.19 Z" />
</g>
<g id="#8058f0ff">
<path fill="#8058f0" opacity="1.00" d=" M 84.04 49.65 C 84.45 46.49 82.58 42.16 85.95 40.23 C 89.47 42.79 92.12 46.28 95.37 49.14 C 93.81 49.48 92.26 49.81 90.71 50.15 C 89.80 49.22 88.89 48.29 87.98 47.37 C 87.98 47.95 87.97 49.11 87.97 49.70 C 86.66 49.68 85.35 49.66 84.04 49.65 Z" />
</g>
<g id="#6050e0ff">
<path fill="#6050e0" opacity="1.00" d=" M 19.75 51.94 C 21.22 49.76 23.08 47.90 25.07 46.19 C 27.81 46.56 30.59 46.55 33.35 46.42 C 33.32 48.68 33.32 50.94 33.32 53.21 C 32.32 53.22 30.30 53.24 29.29 53.24 C 29.30 51.41 29.27 49.57 29.23 47.73 C 27.76 49.14 26.29 50.57 24.83 51.99 C 25.19 52.34 25.91 53.06 26.27 53.42 C 24.72 53.70 23.17 53.99 21.62 54.28 L 21.18 54.36 C 20.82 53.75 20.11 52.54 19.75 51.94 Z" />
</g>
<g id="#1c1b22ff">
<path fill="#1c1b22" opacity="1.00" d=" M 87.98 47.37 C 88.89 48.29 89.80 49.22 90.71 50.15 C 91.16 50.62 92.07 51.56 92.53 52.03 C 92.01 52.55 90.99 53.59 90.47 54.11 C 89.85 54.71 89.22 55.30 88.57 55.87 L 87.96 55.77 C 87.96 53.74 87.97 51.72 87.97 49.70 C 87.97 49.11 87.98 47.95 87.98 47.37 Z" />
</g>
<g id="#f8b860ff">
<path fill="#f8b860" opacity="1.00" d=" M 36.90 49.83 C 38.43 48.16 40.83 49.19 41.85 50.87 C 40.48 52.15 39.15 53.46 37.85 54.81 C 36.13 53.80 35.17 51.33 36.90 49.83 Z" />
<path fill="#f8b860" opacity="1.00" d=" M 44.90 49.83 C 46.44 48.15 48.81 49.23 49.89 50.85 C 48.51 52.13 47.17 53.45 45.87 54.81 C 44.12 53.83 43.16 51.32 44.90 49.83 Z" />
<path fill="#f8b860" opacity="1.00" d=" M 52.85 49.89 C 54.36 48.15 56.81 49.17 57.85 50.86 C 56.48 52.15 55.15 53.48 53.85 54.85 C 52.20 53.81 51.15 51.41 52.85 49.89 Z" />
<path fill="#f8b860" opacity="1.00" d=" M 60.86 49.88 C 62.32 48.14 64.52 49.38 65.96 50.42 C 64.57 51.88 63.19 53.36 61.84 54.87 C 60.22 53.79 59.14 51.40 60.86 49.88 Z" />
<path fill="#f8b860" opacity="1.00" d=" M 68.86 49.88 C 70.35 48.16 72.89 49.12 73.77 50.95 C 72.30 52.25 70.87 53.60 69.46 54.97 C 68.38 53.54 67.14 51.36 68.86 49.88 Z" />
<path fill="#f8b860" opacity="1.00" d=" M 76.85 49.88 C 78.36 48.15 80.85 49.16 81.85 50.88 C 80.35 52.22 78.87 53.60 77.41 54.98 C 76.40 53.53 75.14 51.36 76.85 49.88 Z" />
</g>
<g id="#584ce0ff">
<path fill="#584ce0" opacity="1.00" d=" M 95.37 49.14 C 96.16 50.09 96.93 51.05 97.70 52.02 C 96.80 53.09 95.90 54.16 94.98 55.22 C 93.48 54.85 91.97 54.48 90.47 54.11 C 90.99 53.59 92.01 52.55 92.53 52.03 C 92.07 51.56 91.16 50.62 90.71 50.15 C 92.26 49.81 93.81 49.48 95.37 49.14 Z" />
<path fill="#584ce0" opacity="1.00" d=" M 84.04 49.65 C 85.35 49.66 86.66 49.68 87.97 49.70 C 87.97 51.72 87.96 53.74 87.96 55.77 C 86.63 55.49 85.32 55.20 84.00 54.89 C 84.02 53.14 84.03 51.39 84.04 49.65 Z" />
</g>
<g id="#da823cff">
<path fill="#da823c" opacity="1.00" d=" M 41.85 50.87 L 42.16 50.58 C 42.59 53.38 40.32 55.60 37.52 55.16 L 37.85 54.81 C 39.15 53.46 40.48 52.15 41.85 50.87 Z" />
<path fill="#da823c" opacity="1.00" d=" M 49.89 50.85 L 50.16 50.59 C 50.59 53.38 48.32 55.59 45.54 55.16 L 45.87 54.81 C 47.17 53.45 48.51 52.13 49.89 50.85 Z" />
<path fill="#da823c" opacity="1.00" d=" M 57.85 50.86 L 58.12 50.61 C 58.61 53.36 56.33 55.60 53.59 55.13 L 53.85 54.85 C 55.15 53.48 56.48 52.15 57.85 50.86 Z" />
<path fill="#da823c" opacity="1.00" d=" M 65.96 50.42 C 66.71 53.21 64.44 55.62 61.58 55.16 L 61.84 54.87 C 63.19 53.36 64.57 51.88 65.96 50.42 Z" />
<path fill="#da823c" opacity="1.00" d=" M 73.77 50.95 L 74.26 50.51 C 74.56 53.34 72.31 55.74 69.46 54.97 C 70.87 53.60 72.30 52.25 73.77 50.95 Z" />
<path fill="#da823c" opacity="1.00" d=" M 81.85 50.88 L 82.18 50.58 C 82.59 53.46 80.22 55.69 77.41 54.98 C 78.87 53.60 80.35 52.22 81.85 50.88 Z" />
</g>
<g id="#4044d8ff">
<path fill="#4044d8" opacity="1.00" d=" M 29.29 53.24 C 30.30 53.24 32.32 53.22 33.32 53.21 C 33.32 54.75 33.33 56.29 33.36 57.83 C 30.74 57.99 28.13 58.16 25.52 58.35 C 24.19 57.02 22.89 55.66 21.62 54.28 C 23.17 53.99 24.72 53.70 26.27 53.42 C 27.26 54.40 28.26 55.38 29.26 56.35 C 29.27 55.58 29.28 54.02 29.29 53.24 Z" />
</g>
<g id="#3040d0ff">
<path fill="#3040d0" opacity="1.00" d=" M 88.57 55.87 C 89.22 55.30 89.85 54.71 90.47 54.11 C 91.97 54.48 93.48 54.85 94.98 55.22 C 92.24 57.74 89.84 60.63 86.92 62.96 C 85.67 64.02 83.88 62.60 84.09 61.15 C 83.92 59.07 83.99 56.98 84.00 54.89 C 85.32 55.20 86.63 55.49 87.96 55.77 L 88.57 55.87 Z" />
</g>
<g id="#283cd0ff">
<path fill="#283cd0" opacity="1.00" d=" M 25.52 58.35 C 28.13 58.16 30.74 57.99 33.36 57.83 C 33.36 60.06 33.72 62.86 31.00 63.65 C 29.13 61.93 27.29 60.17 25.52 58.35 Z" />
</g>
<g id="#e0b987ff">
<path fill="#e0b987" opacity="1.00" d=" M 37.90 68.17 C 35.00 65.34 39.25 61.23 42.23 63.64 C 40.79 65.15 39.35 66.66 37.90 68.17 Z" />
</g>
<g id="#da9192ff">
<path fill="#da9192" opacity="1.00" d=" M 42.23 63.64 C 44.69 66.71 40.93 70.66 37.74 68.33 L 37.90 68.17 C 39.35 66.66 40.79 65.15 42.23 63.64 Z" />
</g>
<g id="#3078d0ff">
<path fill="#3078d0" opacity="1.00" d=" M 76.27 71.32 C 79.06 69.76 82.72 72.83 81.68 75.87 C 81.09 78.93 76.51 79.89 74.78 77.26 C 73.09 75.42 74.07 72.26 76.27 71.32 Z" />
</g>
</svg>
