<?xml version="1.0" encoding="UTF-8" ?>
<!DOCTYPE svg PUBLIC "-//W3C//DTD SVG 1.1//EN" "http://www.w3.org/Graphics/SVG/1.1/DTD/svg11.dtd">
<svg width="117px" height="140px" viewBox="0 0 117 140" version="1.1" xmlns="http://www.w3.org/2000/svg">
<g id="#000000ff">
<path fill="#000000" opacity="1.00" d=" M 0.00 0.00 L 117.00 0.00 L 117.00 140.00 L 0.00 140.00 L 0.00 0.00 M 33.25 10.22 C 17.98 11.74 5.22 25.58 5.02 40.94 C 4.98 60.32 4.98 79.71 5.02 99.10 C 5.22 115.02 18.99 129.23 34.90 129.92 C 50.61 130.08 66.34 130.00 82.06 129.97 C 98.01 129.81 112.27 115.98 112.92 100.05 C 113.11 81.03 112.94 62.01 113.01 42.99 C 113.28 34.06 109.65 25.09 103.15 18.95 C 97.07 12.99 88.51 9.77 80.02 9.98 C 64.43 10.16 48.83 9.70 33.25 10.22 Z" />
<path fill="#000000" opacity="1.00" d=" M 33.26 12.33 C 48.80 11.73 64.39 12.24 79.95 12.07 C 87.95 11.83 95.93 14.86 101.72 20.39 C 107.47 25.99 111.02 33.90 110.91 41.98 C 110.95 60.66 110.95 79.35 110.91 98.03 C 111.05 109.02 104.47 119.75 94.62 124.62 C 89.87 127.19 84.40 128.03 79.05 127.94 C 64.35 127.85 49.64 128.08 34.94 127.83 C 20.11 127.17 7.23 113.89 7.12 99.03 C 7.03 79.68 7.03 60.33 7.12 40.98 C 7.28 26.73 19.09 13.80 33.26 12.33 M 58.80 28.86 C 57.90 33.07 58.75 37.54 58.45 41.85 C 53.58 43.00 49.96 47.34 49.76 52.35 C 45.36 52.19 40.94 52.10 36.53 52.38 C 40.83 53.33 45.26 52.55 49.61 52.95 C 50.36 58.01 54.14 62.38 59.33 63.08 C 59.17 67.30 59.23 71.52 59.26 75.74 L 59.77 75.79 C 59.74 71.65 59.73 67.52 59.79 63.38 C 65.07 62.74 69.84 59.03 70.60 53.57 C 74.58 53.59 78.55 53.55 82.53 53.62 C 85.64 42.58 76.75 31.50 66.26 28.92 C 63.85 28.46 61.11 27.65 58.80 28.86 Z" />
<path fill="#000000" opacity="1.00" d=" M 52.17 47.43 C 54.88 42.09 63.18 41.35 66.98 45.90 C 71.68 50.53 69.43 59.88 62.92 61.52 C 59.66 62.73 56.28 61.39 53.63 59.45 C 50.76 56.19 49.98 51.26 52.17 47.43 Z" />
</g>
<g id="#737473ff">
<path fill="#737473" opacity="1.00" d=" M 33.25 10.22 C 48.83 9.70 64.43 10.16 80.02 9.98 C 88.51 9.77 97.07 12.99 103.15 18.95 C 109.65 25.09 113.28 34.06 113.01 42.99 C 112.94 62.01 113.11 81.03 112.92 100.05 C 112.27 115.98 98.01 129.81 82.06 129.97 C 66.34 130.00 50.61 130.08 34.90 129.92 C 18.99 129.23 5.22 115.02 5.02 99.10 C 4.98 79.71 4.98 60.32 5.02 40.94 C 5.22 25.58 17.98 11.74 33.25 10.22 M 33.26 12.33 C 19.09 13.80 7.28 26.73 7.12 40.98 C 7.03 60.33 7.03 79.68 7.12 99.03 C 7.23 113.89 20.11 127.17 34.94 127.83 C 49.64 128.08 64.35 127.85 79.05 127.94 C 84.40 128.03 89.87 127.19 94.62 124.62 C 104.47 119.75 111.05 109.02 110.91 98.03 C 110.95 79.35 110.95 60.66 110.91 41.98 C 111.02 33.90 107.47 25.99 101.72 20.39 C 95.93 14.86 87.95 11.83 79.95 12.07 C 64.39 12.24 48.80 11.73 33.26 12.33 Z" />
</g>
<g id="#f8fcf8ff">
<path fill="#f8fcf8" opacity="1.00" d=" M 58.80 28.86 C 61.11 27.65 63.85 28.46 66.26 28.92 C 76.75 31.50 85.64 42.58 82.53 53.62 C 78.55 53.55 74.58 53.59 70.60 53.57 C 69.84 59.03 65.07 62.74 59.79 63.38 C 59.73 67.52 59.74 71.65 59.77 75.79 L 59.26 75.74 C 59.23 71.52 59.17 67.30 59.33 63.08 C 54.14 62.38 50.36 58.01 49.61 52.95 C 45.26 52.55 40.83 53.33 36.53 52.38 C 40.94 52.10 45.36 52.19 49.76 52.35 C 49.96 47.34 53.58 43.00 58.45 41.85 C 58.75 37.54 57.90 33.07 58.80 28.86 M 52.17 47.43 C 49.98 51.26 50.76 56.19 53.63 59.45 C 56.28 61.39 59.66 62.73 62.92 61.52 C 69.43 59.88 71.68 50.53 66.98 45.90 C 63.18 41.35 54.88 42.09 52.17 47.43 Z" />
</g>
</svg>
