<?xml version="1.0" encoding="UTF-8" ?>
<!DOCTYPE svg PUBLIC "-//W3C//DTD SVG 1.1//EN" "http://www.w3.org/Graphics/SVG/1.1/DTD/svg11.dtd">
<svg width="117px" height="140px" viewBox="0 0 117 140" version="1.1" xmlns="http://www.w3.org/2000/svg">
<g id="#000000ff">
<path fill="#000000" opacity="1.00" d=" M 0.00 0.00 L 117.00 0.00 L 117.00 140.00 L 0.00 140.00 L 0.00 0.00 M 23.12 13.00 C 16.09 16.38 10.38 22.09 7.01 29.12 C 5.48 33.22 4.27 37.52 4.38 41.93 C 4.38 60.62 4.39 79.31 4.38 98.00 C 4.27 102.44 5.49 106.76 7.01 110.89 C 10.39 117.91 16.10 123.63 23.12 127.00 C 27.27 128.49 31.60 129.65 36.04 129.62 C 50.35 129.63 64.66 129.60 78.97 129.63 C 83.74 129.74 88.43 128.65 92.88 126.99 C 99.91 123.63 105.61 117.92 108.99 110.90 C 110.52 106.78 111.73 102.46 111.62 98.03 C 111.62 79.33 111.62 60.64 111.62 41.94 C 111.72 37.52 110.54 33.21 108.97 29.12 C 105.63 22.08 99.89 16.38 92.87 13.00 C 88.74 11.50 84.42 10.35 80.00 10.38 C 65.65 10.37 51.30 10.40 36.95 10.37 C 32.21 10.25 27.54 11.38 23.12 13.00 Z" />
<path fill="#000000" opacity="1.00" d=" M 26.39 12.73 C 29.58 12.26 32.75 11.54 36.00 11.60 C 50.68 11.63 65.36 11.63 80.04 11.60 C 83.28 11.53 86.44 12.25 89.62 12.73 L 89.52 13.17 C 98.89 15.98 105.87 23.86 109.26 32.83 C 109.73 35.19 110.39 37.54 110.39 39.96 C 110.40 59.65 110.35 79.34 110.41 99.03 C 110.49 101.80 109.83 104.50 109.26 107.19 C 105.86 116.15 98.89 124.02 89.52 126.83 L 89.62 127.27 C 86.45 127.75 83.29 128.46 80.06 128.40 C 65.39 128.37 50.71 128.37 36.04 128.40 C 32.78 128.47 29.59 127.75 26.39 127.27 L 26.47 126.83 C 17.44 124.01 10.15 116.58 7.15 107.65 L 6.83 107.52 C 6.50 105.98 6.15 104.45 5.74 102.93 C 5.44 82.65 5.74 62.35 5.58 42.06 C 5.44 38.93 6.06 35.86 6.74 32.82 C 10.13 23.86 17.10 15.99 26.47 13.17 L 26.39 12.73 M 45.98 37.99 C 44.71 40.12 43.38 42.21 42.00 44.27 C 42.94 45.53 43.88 46.80 44.81 48.07 C 44.11 48.11 42.70 48.18 42.00 48.22 C 42.00 49.47 42.00 50.72 42.00 51.97 C 42.60 51.99 43.80 52.02 44.41 52.04 C 44.39 53.32 44.38 54.60 44.36 55.88 C 46.47 56.02 48.58 56.18 50.69 56.38 C 49.14 56.67 47.59 56.95 46.03 57.23 C 46.13 58.47 46.23 59.72 46.33 60.96 C 49.43 60.85 52.53 60.65 55.63 60.78 C 51.81 61.70 47.87 61.92 43.96 62.09 C 44.05 63.61 44.14 65.13 44.23 66.66 C 45.12 66.64 46.90 66.61 47.79 66.60 C 45.92 67.21 44.05 67.80 42.18 68.39 C 43.54 69.81 44.90 71.23 46.24 72.66 C 48.61 71.52 50.97 70.37 53.33 69.22 C 53.62 69.92 54.19 71.34 54.48 72.05 C 56.84 71.97 59.26 72.15 61.58 71.56 C 62.53 70.76 62.65 69.40 63.18 68.34 C 66.22 69.76 69.24 71.23 72.23 72.75 C 73.39 71.22 74.56 69.69 75.74 68.17 C 74.80 67.83 72.92 67.16 71.99 66.82 C 73.26 66.24 74.53 65.65 75.81 65.07 C 74.06 62.56 72.28 60.06 70.48 57.58 C 69.27 58.16 68.05 58.74 66.85 59.34 C 66.00 60.57 64.75 61.30 63.26 61.55 C 65.09 59.88 67.08 58.40 69.07 56.94 C 68.40 56.43 67.05 55.41 66.38 54.89 C 68.71 55.96 71.02 57.05 73.36 58.09 C 74.49 55.87 75.58 53.65 76.72 51.44 C 75.04 51.03 73.37 50.61 71.70 50.17 C 72.64 48.21 73.44 46.00 75.57 45.03 C 75.60 43.47 75.62 41.92 75.63 40.37 C 72.79 40.38 69.94 40.40 67.10 40.43 C 67.33 39.94 67.80 38.95 68.03 38.45 C 66.08 38.32 64.13 38.19 62.18 38.06 C 61.61 39.50 61.05 40.94 60.49 42.38 C 60.46 41.79 60.40 40.60 60.37 40.00 C 57.47 40.00 54.57 40.00 51.66 40.00 C 51.68 39.55 51.70 38.65 51.71 38.20 C 49.80 38.14 47.89 38.07 45.98 37.99 Z" />
<path fill="#000000" opacity="1.00" d=" M 48.24 44.85 C 51.80 43.52 55.69 43.91 59.38 44.30 C 55.83 45.70 51.93 45.24 48.24 44.85 Z" />
<path fill="#000000" opacity="1.00" d=" M 49.23 47.30 C 49.77 47.83 49.77 47.83 49.23 47.30 Z" />
<path fill="#000000" opacity="1.00" d=" M 53.18 47.29 C 53.81 47.72 53.81 47.72 53.18 47.29 Z" />
<path fill="#000000" opacity="1.00" d=" M 58.19 47.26 C 58.77 47.75 58.77 47.75 58.19 47.26 Z" />
<path fill="#000000" opacity="1.00" d=" M 59.95 47.98 C 61.00 48.92 62.04 49.88 63.08 50.85 C 61.76 51.62 60.45 52.40 59.20 53.25 C 58.72 54.68 60.26 55.43 60.96 56.41 C 59.55 56.76 58.14 57.11 56.74 57.49 C 58.02 56.13 58.24 54.35 58.43 52.60 C 60.09 51.59 59.79 49.63 59.95 47.98 Z" />
<path fill="#000000" opacity="1.00" d=" M 49.25 52.39 C 49.80 52.95 49.80 52.95 49.25 52.39 Z" />
<path fill="#000000" opacity="1.00" d=" M 52.46 52.19 C 55.42 50.58 52.69 55.50 52.46 52.19 Z" />
<path fill="#000000" opacity="1.00" d=" M 54.32 66.10 C 57.25 64.43 54.64 69.41 54.32 66.10 Z" />
</g>
<g id="#e76010ff">
<path fill="#e76010" opacity="1.00" d=" M 23.12 13.00 C 27.54 11.38 32.21 10.25 36.95 10.37 C 51.30 10.40 65.65 10.37 80.00 10.38 C 84.42 10.35 88.74 11.50 92.87 13.00 C 99.89 16.38 105.63 22.08 108.97 29.12 C 110.54 33.21 111.72 37.52 111.62 41.94 C 111.62 60.64 111.62 79.33 111.62 98.03 C 111.73 102.46 110.52 106.78 108.99 110.90 C 105.61 117.92 99.91 123.63 92.88 126.99 C 88.43 128.65 83.74 129.74 78.97 129.63 C 64.66 129.60 50.35 129.63 36.04 129.62 C 31.60 129.65 27.27 128.49 23.12 127.00 C 16.10 123.63 10.39 117.91 7.01 110.89 C 5.49 106.76 4.27 102.44 4.38 98.00 C 4.39 79.31 4.38 60.62 4.38 41.93 C 4.27 37.52 5.48 33.22 7.01 29.12 C 10.38 22.09 16.09 16.38 23.12 13.00 M 26.39 12.73 L 26.47 13.17 C 17.10 15.99 10.13 23.86 6.74 32.82 C 6.06 35.86 5.44 38.93 5.58 42.06 C 5.74 62.35 5.44 82.65 5.74 102.93 C 6.15 104.45 6.50 105.98 6.83 107.52 L 7.15 107.65 C 10.15 116.58 17.44 124.01 26.47 126.83 L 26.39 127.27 C 29.59 127.75 32.78 128.47 36.04 128.40 C 50.71 128.37 65.39 128.37 80.06 128.40 C 83.29 128.46 86.45 127.75 89.62 127.27 L 89.52 126.83 C 98.89 124.02 105.86 116.15 109.26 107.19 C 109.83 104.50 110.49 101.80 110.41 99.03 C 110.35 79.34 110.40 59.65 110.39 39.96 C 110.39 37.54 109.73 35.19 109.26 32.83 C 105.87 23.86 98.89 15.98 89.52 13.17 L 89.62 12.73 C 86.44 12.25 83.28 11.53 80.04 11.60 C 65.36 11.63 50.68 11.63 36.00 11.60 C 32.75 11.54 29.58 12.26 26.39 12.73 Z" />
<path fill="#e76010" opacity="1.00" d=" M 45.98 37.99 C 47.89 38.07 49.80 38.14 51.71 38.20 C 51.70 38.65 51.68 39.55 51.66 40.00 C 54.57 40.00 57.47 40.00 60.37 40.00 C 60.40 40.60 60.46 41.79 60.49 42.38 C 61.05 40.94 61.61 39.50 62.18 38.06 C 64.13 38.19 66.08 38.32 68.03 38.45 C 67.80 38.95 67.33 39.94 67.10 40.43 C 69.94 40.40 72.79 40.38 75.63 40.37 C 75.62 41.92 75.60 43.47 75.57 45.03 C 73.44 46.00 72.64 48.21 71.70 50.17 C 73.37 50.61 75.04 51.03 76.72 51.44 C 75.58 53.65 74.49 55.87 73.36 58.09 C 71.02 57.05 68.71 55.96 66.38 54.89 C 67.05 55.41 68.40 56.43 69.07 56.94 C 67.08 58.40 65.09 59.88 63.26 61.55 C 64.75 61.30 66.00 60.57 66.85 59.34 C 68.05 58.74 69.27 58.16 70.48 57.58 C 72.28 60.06 74.06 62.56 75.81 65.07 C 74.53 65.65 73.26 66.24 71.99 66.82 C 72.92 67.16 74.80 67.83 75.74 68.17 C 74.56 69.69 73.39 71.22 72.23 72.75 C 69.24 71.23 66.22 69.76 63.18 68.34 C 62.65 69.40 62.53 70.76 61.58 71.56 C 59.26 72.15 56.84 71.97 54.48 72.05 C 54.19 71.34 53.62 69.92 53.33 69.22 C 50.97 70.37 48.61 71.52 46.24 72.66 C 44.90 71.23 43.54 69.81 42.18 68.39 C 44.05 67.80 45.92 67.21 47.79 66.60 C 46.90 66.61 45.12 66.64 44.23 66.66 C 44.14 65.13 44.05 63.61 43.96 62.09 C 47.87 61.92 51.81 61.70 55.63 60.78 C 52.53 60.65 49.43 60.85 46.33 60.96 C 46.23 59.72 46.13 58.47 46.03 57.23 C 47.59 56.95 49.14 56.67 50.69 56.38 C 48.58 56.18 46.47 56.02 44.36 55.88 C 44.38 54.60 44.39 53.32 44.41 52.04 C 43.80 52.02 42.60 51.99 42.00 51.97 C 42.00 50.72 42.00 49.47 42.00 48.22 C 42.70 48.18 44.11 48.11 44.81 48.07 C 43.88 46.80 42.94 45.53 42.00 44.27 C 43.38 42.21 44.71 40.12 45.98 37.99 M 48.24 44.85 C 51.93 45.24 55.83 45.70 59.38 44.30 C 55.69 43.91 51.80 43.52 48.24 44.85 M 49.23 47.30 C 49.77 47.83 49.77 47.83 49.23 47.30 M 53.18 47.29 C 53.81 47.72 53.81 47.72 53.18 47.29 M 58.19 47.26 C 58.77 47.75 58.77 47.75 58.19 47.26 M 59.95 47.98 C 59.79 49.63 60.09 51.59 58.43 52.60 C 58.24 54.35 58.02 56.13 56.74 57.49 C 58.14 57.11 59.55 56.76 60.96 56.41 C 60.26 55.43 58.72 54.68 59.20 53.25 C 60.45 52.40 61.76 51.62 63.08 50.85 C 62.04 49.88 61.00 48.92 59.95 47.98 M 49.25 52.39 C 49.80 52.95 49.80 52.95 49.25 52.39 M 52.46 52.19 C 52.69 55.50 55.42 50.58 52.46 52.19 M 54.32 66.10 C 54.64 69.41 57.25 64.43 54.32 66.10 Z" />
</g>
</svg>
