<?xml version="1.0" encoding="UTF-8" ?>
<!DOCTYPE svg PUBLIC "-//W3C//DTD SVG 1.1//EN" "http://www.w3.org/Graphics/SVG/1.1/DTD/svg11.dtd">
<svg width="117px" height="140px" viewBox="0 0 117 140" version="1.1" xmlns="http://www.w3.org/2000/svg">
<g id="#000000ff">
<path fill="#000000" opacity="1.00" d=" M 0.00 0.00 L 117.00 0.00 L 117.00 140.00 L 0.00 140.00 L 0.00 0.00 M 31.23 10.91 C 28.95 11.50 26.68 12.13 24.41 12.75 L 24.55 13.85 C 24.08 13.66 23.12 13.29 22.65 13.11 L 22.62 14.67 C 22.16 14.58 21.24 14.39 20.78 14.29 L 20.52 15.05 C 19.25 15.80 18.15 16.76 17.00 17.66 C 16.53 17.92 15.58 18.43 15.10 18.69 L 15.93 19.67 L 14.32 19.23 L 14.63 20.85 L 13.59 20.10 C 13.36 20.57 12.91 21.49 12.68 21.95 C 11.72 23.08 10.85 24.27 10.07 25.53 L 9.31 25.74 C 9.39 26.21 9.56 27.15 9.64 27.62 L 8.14 27.66 C 8.22 27.93 8.38 28.46 8.47 28.72 C 7.88 30.14 7.41 31.59 7.07 33.09 L 6.45 32.02 C 6.43 33.70 6.40 35.39 6.38 37.07 L 5.18 36.26 C 5.68 58.66 5.20 81.08 5.44 103.49 C 5.43 103.82 5.43 104.46 5.42 104.79 C 6.51 106.58 7.47 108.47 7.76 110.57 L 8.84 110.44 C 8.66 110.92 8.30 111.87 8.12 112.35 L 9.69 112.40 C 9.59 112.87 9.39 113.79 9.29 114.25 L 10.09 114.42 C 10.86 115.73 11.73 116.98 12.64 118.20 L 13.55 118.59 L 13.38 119.78 L 14.63 119.27 L 14.43 120.95 L 16.02 120.21 L 15.11 121.34 C 15.58 121.60 16.53 122.10 17.00 122.36 C 18.14 123.27 19.27 124.19 20.53 124.94 L 20.77 125.69 C 21.25 125.61 22.21 125.44 22.69 125.36 L 22.56 126.84 C 23.09 126.69 24.13 126.38 24.65 126.23 L 24.41 127.52 C 25.31 127.53 27.10 127.55 28.00 127.56 L 27.14 128.26 C 30.39 128.82 33.60 129.76 36.93 129.62 C 51.96 129.59 66.99 129.64 82.02 129.59 C 86.02 129.67 89.84 128.29 93.64 127.21 L 93.35 126.20 C 93.87 126.36 94.91 126.69 95.43 126.85 L 95.31 125.37 C 95.79 125.45 96.77 125.61 97.26 125.69 L 97.42 124.89 C 98.86 124.04 100.24 123.10 101.64 122.19 L 101.24 121.11 L 102.73 121.91 L 102.35 120.90 C 103.35 120.06 104.34 119.20 105.35 118.35 C 106.22 117.06 107.10 115.77 107.90 114.44 L 108.67 114.28 C 108.59 113.80 108.43 112.83 108.35 112.35 L 109.85 112.41 C 109.69 111.90 109.38 110.90 109.22 110.40 L 110.54 110.54 C 110.54 109.69 110.54 107.99 110.54 107.14 L 111.59 107.68 C 111.58 106.12 111.57 104.56 111.55 103.00 L 112.40 103.89 C 112.84 90.59 112.51 77.29 112.61 63.99 C 112.51 54.47 112.88 44.93 112.31 35.41 L 111.55 35.91 C 111.55 34.98 111.54 33.11 111.53 32.17 L 110.54 32.94 C 110.55 32.08 110.56 30.35 110.56 29.48 L 109.24 29.62 C 109.39 29.10 109.68 28.08 109.83 27.56 L 108.34 27.67 C 108.43 27.20 108.61 26.24 108.71 25.76 L 107.91 25.57 C 107.14 24.27 106.29 23.04 105.39 21.84 L 104.51 21.42 L 104.59 20.26 L 103.39 20.70 L 103.54 18.91 L 102.55 19.98 L 102.46 18.49 L 101.02 18.42 L 101.64 17.82 C 100.25 16.91 98.87 15.97 97.44 15.11 L 97.23 14.29 C 96.77 14.39 95.85 14.57 95.39 14.67 L 95.35 13.11 C 94.86 13.29 93.90 13.66 93.42 13.85 L 93.59 12.51 C 92.61 12.48 90.64 12.41 89.65 12.37 L 90.94 11.57 C 89.56 11.48 88.19 11.38 86.81 11.29 C 85.00 10.48 83.00 10.37 81.04 10.38 C 68.04 10.39 55.04 10.39 42.03 10.38 C 38.43 10.40 34.79 10.21 31.23 10.91 Z" />
<path fill="#000000" opacity="1.00" d=" M 32.01 11.56 C 50.03 11.64 68.06 11.66 86.08 11.55 C 85.85 11.69 85.38 11.98 85.14 12.13 C 87.70 12.41 90.19 13.05 92.68 13.68 C 92.69 13.95 92.69 14.48 92.70 14.74 L 94.42 14.15 L 94.66 15.58 C 95.14 15.50 96.09 15.36 96.56 15.29 L 96.57 16.65 C 97.12 16.57 98.21 16.42 98.75 16.34 L 98.18 18.10 L 99.56 16.95 L 99.48 17.87 C 101.55 19.56 103.44 21.45 105.13 23.52 L 106.06 23.39 L 104.83 24.80 L 106.61 24.23 C 106.55 24.78 106.43 25.89 106.37 26.44 L 107.73 26.45 C 107.65 26.93 107.49 27.87 107.40 28.34 L 108.75 28.49 C 108.65 28.97 108.45 29.94 108.35 30.42 L 109.30 30.26 C 109.84 32.44 110.46 34.61 110.82 36.84 L 111.45 35.96 C 111.34 58.29 111.35 80.63 111.45 102.96 C 111.30 102.81 111.01 102.50 110.87 102.35 C 110.58 104.84 109.96 107.27 109.33 109.69 L 108.35 109.62 C 108.45 110.08 108.65 110.99 108.76 111.44 C 108.41 111.52 107.73 111.68 107.39 111.76 L 107.75 113.52 L 106.31 113.61 C 106.41 114.14 106.62 115.19 106.72 115.72 L 104.97 115.14 L 106.09 116.55 L 105.15 116.45 C 103.46 118.53 101.57 120.43 99.50 122.13 L 99.61 123.05 L 98.26 121.84 L 98.74 123.64 C 98.20 123.57 97.12 123.43 96.57 123.36 L 96.55 124.72 C 96.08 124.64 95.14 124.49 94.67 124.41 L 94.56 125.69 C 94.07 125.62 93.08 125.49 92.59 125.43 L 92.40 126.93 C 91.89 126.67 90.87 126.16 90.35 125.91 L 90.94 127.36 C 89.02 127.45 87.10 127.57 85.18 127.67 L 86.05 128.44 C 67.68 128.36 49.30 128.34 30.93 128.45 L 31.90 127.82 C 29.65 127.46 27.46 126.83 25.25 126.29 L 25.41 125.33 C 24.94 125.44 23.99 125.66 23.51 125.76 L 23.33 124.43 C 22.86 124.50 21.91 124.64 21.44 124.71 L 21.42 123.35 C 20.88 123.43 19.78 123.58 19.23 123.66 L 19.90 121.81 L 18.45 123.12 L 18.55 122.15 C 16.47 120.46 14.57 118.56 12.88 116.49 L 12.00 116.61 L 13.03 115.25 L 11.30 115.70 C 11.40 115.18 11.59 114.13 11.68 113.61 L 10.28 113.53 C 10.36 113.06 10.52 112.13 10.60 111.66 L 9.31 111.56 C 9.38 111.07 9.50 110.09 9.57 109.60 L 8.06 109.38 C 8.32 108.85 8.84 107.78 9.11 107.25 L 7.51 108.09 C 7.49 106.31 7.57 104.55 7.74 102.79 L 7.70 102.02 C 7.56 100.62 6.51 99.46 6.60 98.01 C 6.64 78.08 6.57 58.15 6.64 38.22 L 7.79 39.74 C 7.25 36.52 7.58 33.31 8.71 30.25 L 9.66 30.41 C 9.56 29.93 9.37 28.96 9.27 28.48 L 10.56 28.37 C 10.50 27.88 10.37 26.90 10.31 26.41 L 11.63 26.46 C 11.56 25.91 11.42 24.81 11.36 24.26 L 12.70 24.90 C 12.76 24.42 12.88 23.47 12.95 23.00 C 14.86 21.35 16.57 19.48 18.51 17.85 L 18.39 16.93 L 19.78 18.17 L 19.24 16.37 C 19.78 16.44 20.87 16.57 21.42 16.64 L 21.48 15.26 L 22.65 15.48 C 23.58 14.98 24.51 14.50 25.46 14.03 L 25.64 13.05 C 26.15 13.32 27.17 13.87 27.68 14.14 L 27.03 12.64 C 28.96 12.55 30.88 12.44 32.80 12.33 C 32.60 12.14 32.21 11.75 32.01 11.56 M 45.11 38.01 C 44.24 40.93 43.82 43.95 43.94 47.00 C 41.96 47.00 39.98 47.00 38.00 47.00 C 38.00 47.75 38.00 49.25 38.00 50.00 C 39.96 50.00 41.92 50.00 43.88 50.00 C 43.88 52.72 44.40 55.38 45.11 57.99 C 46.92 58.12 48.93 59.07 50.60 57.93 C 53.41 55.96 56.13 53.86 58.71 51.60 C 60.99 49.92 61.00 46.09 58.73 44.41 C 56.13 42.13 53.38 40.03 50.56 38.04 C 48.89 36.94 46.90 37.88 45.11 38.01 M 57.90 70.54 C 57.74 72.81 57.72 75.10 57.75 77.38 C 52.34 77.38 46.93 77.40 41.52 77.37 C 41.57 75.67 41.62 73.97 41.66 72.27 C 41.00 72.25 39.66 72.22 38.99 72.21 C 39.03 74.15 38.94 76.11 39.20 78.04 C 40.00 80.54 42.99 79.83 44.99 79.97 C 55.64 79.81 66.30 80.17 76.94 79.80 C 80.03 78.77 78.66 74.69 79.02 72.23 C 78.35 72.23 77.01 72.24 76.34 72.25 C 76.38 73.96 76.43 75.66 76.48 77.37 C 71.06 77.39 65.65 77.39 60.23 77.38 C 60.09 74.84 61.38 71.24 57.90 70.54 Z" />
<path fill="#000000" opacity="1.00" d=" M 49.00 41.81 C 51.66 43.87 54.33 45.93 56.99 48.00 C 54.33 50.07 51.66 52.13 49.00 54.19 C 49.00 50.06 49.00 45.94 49.00 41.81 Z" />
</g>
<g id="#f5f9f7ff">
<path fill="#f5f9f7" opacity="1.00" d=" M 31.23 10.91 C 34.79 10.21 38.43 10.40 42.03 10.38 C 55.04 10.39 68.04 10.39 81.04 10.38 C 83.00 10.37 85.00 10.48 86.81 11.29 C 88.19 11.38 89.56 11.48 90.94 11.57 L 89.65 12.37 C 90.64 12.41 92.61 12.48 93.59 12.51 L 93.42 13.85 C 93.90 13.66 94.86 13.29 95.35 13.11 L 95.39 14.67 C 95.85 14.57 96.77 14.39 97.23 14.29 L 97.44 15.11 C 98.87 15.97 100.25 16.91 101.64 17.82 L 101.02 18.42 L 102.46 18.49 L 102.55 19.98 L 103.54 18.91 L 103.39 20.70 L 104.59 20.26 L 104.51 21.42 L 105.39 21.84 C 106.29 23.04 107.14 24.27 107.91 25.57 L 108.71 25.76 C 108.61 26.24 108.43 27.20 108.34 27.67 L 109.83 27.56 C 109.68 28.08 109.39 29.10 109.24 29.62 L 110.56 29.48 C 110.56 30.35 110.55 32.08 110.54 32.94 L 111.53 32.17 C 111.54 33.11 111.55 34.98 111.55 35.91 L 112.31 35.41 C 112.88 44.93 112.51 54.47 112.61 63.99 C 112.51 77.29 112.84 90.59 112.40 103.89 L 111.55 103.00 C 111.57 104.56 111.58 106.12 111.59 107.68 L 110.54 107.14 C 110.54 107.99 110.54 109.69 110.54 110.54 L 109.22 110.40 C 109.38 110.90 109.69 111.90 109.85 112.41 L 108.35 112.35 C 108.43 112.83 108.59 113.80 108.67 114.28 L 107.90 114.44 C 107.10 115.77 106.22 117.06 105.35 118.35 C 104.34 119.20 103.35 120.06 102.35 120.90 L 102.73 121.91 L 101.24 121.11 L 101.64 122.19 C 100.24 123.10 98.86 124.04 97.42 124.89 L 97.26 125.69 C 96.77 125.61 95.79 125.45 95.31 125.37 L 95.43 126.85 C 94.91 126.69 93.87 126.36 93.35 126.20 L 93.64 127.21 C 89.84 128.29 86.02 129.67 82.02 129.59 C 66.99 129.64 51.96 129.59 36.93 129.62 C 33.60 129.76 30.39 128.82 27.14 128.26 L 28.00 127.56 C 27.10 127.55 25.31 127.53 24.41 127.52 L 24.65 126.23 C 24.13 126.38 23.09 126.69 22.56 126.84 L 22.69 125.36 C 22.21 125.44 21.25 125.61 20.77 125.69 L 20.53 124.94 C 19.27 124.19 18.14 123.27 17.00 122.36 C 16.53 122.10 15.58 121.60 15.11 121.34 L 16.02 120.21 L 14.43 120.95 L 14.63 119.27 L 13.38 119.78 L 13.55 118.59 L 12.64 118.20 C 11.73 116.98 10.86 115.73 10.09 114.42 L 9.29 114.25 C 9.39 113.79 9.59 112.87 9.69 112.40 L 8.12 112.35 C 8.30 111.87 8.66 110.92 8.84 110.44 L 7.76 110.57 C 7.47 108.47 6.51 106.58 5.42 104.79 C 5.43 104.46 5.43 103.82 5.44 103.49 C 5.20 81.08 5.68 58.66 5.18 36.26 L 6.38 37.07 C 6.40 35.39 6.43 33.70 6.45 32.02 L 7.07 33.09 C 7.41 31.59 7.88 30.14 8.47 28.72 C 8.38 28.46 8.22 27.93 8.14 27.66 L 9.64 27.62 C 9.56 27.15 9.39 26.21 9.31 25.74 L 10.07 25.53 C 10.85 24.27 11.72 23.08 12.68 21.95 C 12.91 21.49 13.36 20.57 13.59 20.10 L 14.63 20.85 L 14.32 19.23 L 15.93 19.67 L 15.10 18.69 C 15.58 18.43 16.53 17.92 17.00 17.66 C 18.15 16.76 19.25 15.80 20.52 15.05 L 20.78 14.29 C 21.24 14.39 22.16 14.58 22.62 14.67 L 22.65 13.11 C 23.12 13.29 24.08 13.66 24.55 13.85 L 24.41 12.75 C 26.68 12.13 28.95 11.50 31.23 10.91 M 32.01 11.56 C 32.21 11.75 32.60 12.14 32.80 12.33 C 30.88 12.44 28.96 12.55 27.03 12.64 L 27.68 14.14 C 27.17 13.87 26.15 13.32 25.64 13.05 L 25.46 14.03 C 24.51 14.50 23.58 14.98 22.65 15.48 L 21.48 15.26 L 21.42 16.64 C 20.87 16.57 19.78 16.44 19.24 16.37 L 19.78 18.17 L 18.39 16.93 L 18.51 17.85 C 16.57 19.48 14.86 21.35 12.95 23.00 C 12.88 23.47 12.76 24.42 12.70 24.90 L 11.36 24.26 C 11.42 24.81 11.56 25.91 11.63 26.46 L 10.31 26.41 C 10.37 26.90 10.50 27.88 10.56 28.37 L 9.27 28.48 C 9.37 28.96 9.56 29.93 9.66 30.41 L 8.71 30.25 C 7.58 33.31 7.25 36.52 7.79 39.74 L 6.64 38.22 C 6.57 58.15 6.64 78.08 6.60 98.01 C 6.51 99.46 7.56 100.62 7.70 102.02 L 7.74 102.79 C 7.57 104.55 7.49 106.31 7.51 108.09 L 9.11 107.25 C 8.84 107.78 8.32 108.85 8.06 109.38 L 9.57 109.60 C 9.50 110.09 9.38 111.07 9.31 111.56 L 10.60 111.66 C 10.52 112.13 10.36 113.06 10.28 113.53 L 11.68 113.61 C 11.59 114.13 11.40 115.18 11.30 115.70 L 13.03 115.25 L 12.00 116.61 L 12.88 116.49 C 14.57 118.56 16.47 120.46 18.55 122.15 L 18.45 123.12 L 19.90 121.81 L 19.23 123.66 C 19.78 123.58 20.88 123.43 21.42 123.35 L 21.44 124.71 C 21.91 124.64 22.86 124.50 23.33 124.43 L 23.51 125.76 C 23.99 125.66 24.94 125.44 25.41 125.33 L 25.25 126.29 C 27.46 126.83 29.65 127.46 31.90 127.82 L 30.93 128.45 C 49.30 128.34 67.68 128.36 86.05 128.44 L 85.18 127.67 C 87.10 127.57 89.02 127.45 90.94 127.36 L 90.35 125.91 C 90.87 126.16 91.89 126.67 92.40 126.93 L 92.59 125.43 C 93.08 125.49 94.07 125.62 94.56 125.69 L 94.67 124.41 C 95.14 124.49 96.08 124.64 96.55 124.72 L 96.57 123.36 C 97.12 123.43 98.20 123.57 98.74 123.64 L 98.26 121.84 L 99.61 123.05 L 99.50 122.13 C 101.57 120.43 103.46 118.53 105.15 116.45 L 106.09 116.55 L 104.97 115.14 L 106.72 115.72 C 106.62 115.19 106.41 114.14 106.31 113.61 L 107.75 113.52 L 107.39 111.76 C 107.73 111.68 108.41 111.52 108.76 111.44 C 108.65 110.99 108.45 110.08 108.35 109.62 L 109.33 109.69 C 109.96 107.27 110.58 104.84 110.87 102.35 C 111.01 102.50 111.30 102.81 111.45 102.96 C 111.35 80.63 111.34 58.29 111.45 35.96 L 110.82 36.84 C 110.46 34.61 109.84 32.44 109.30 30.26 L 108.35 30.42 C 108.45 29.94 108.65 28.97 108.75 28.49 L 107.40 28.34 C 107.49 27.87 107.65 26.93 107.73 26.45 L 106.37 26.44 C 106.43 25.89 106.55 24.78 106.61 24.23 L 104.83 24.80 L 106.06 23.39 L 105.13 23.52 C 103.44 21.45 101.55 19.56 99.48 17.87 L 99.56 16.95 L 98.18 18.10 L 98.75 16.34 C 98.21 16.42 97.12 16.57 96.57 16.65 L 96.56 15.29 C 96.09 15.36 95.14 15.50 94.66 15.58 L 94.42 14.15 L 92.70 14.74 C 92.69 14.48 92.69 13.95 92.68 13.68 C 90.19 13.05 87.70 12.41 85.14 12.13 C 85.38 11.98 85.85 11.69 86.08 11.55 C 68.06 11.66 50.03 11.64 32.01 11.56 Z" />
<path fill="#f5f9f7" opacity="1.00" d=" M 45.11 38.01 C 46.90 37.88 48.89 36.94 50.56 38.04 C 53.38 40.03 56.13 42.13 58.73 44.41 C 61.00 46.09 60.99 49.92 58.71 51.60 C 56.13 53.86 53.41 55.96 50.60 57.93 C 48.93 59.07 46.92 58.12 45.11 57.99 C 44.40 55.38 43.88 52.72 43.88 50.00 C 41.92 50.00 39.96 50.00 38.00 50.00 C 38.00 49.25 38.00 47.75 38.00 47.00 C 39.98 47.00 41.96 47.00 43.94 47.00 C 43.82 43.95 44.24 40.93 45.11 38.01 M 49.00 41.81 C 49.00 45.94 49.00 50.06 49.00 54.19 C 51.66 52.13 54.33 50.07 56.99 48.00 C 54.33 45.93 51.66 43.87 49.00 41.81 Z" />
<path fill="#f5f9f7" opacity="1.00" d=" M 57.90 70.54 C 61.38 71.24 60.09 74.84 60.23 77.38 C 65.65 77.39 71.06 77.39 76.48 77.37 C 76.43 75.66 76.38 73.96 76.34 72.25 C 77.01 72.24 78.35 72.23 79.02 72.23 C 78.66 74.69 80.03 78.77 76.94 79.80 C 66.30 80.17 55.64 79.81 44.99 79.97 C 42.99 79.83 40.00 80.54 39.20 78.04 C 38.94 76.11 39.03 74.15 38.99 72.21 C 39.66 72.22 41.00 72.25 41.66 72.27 C 41.62 73.97 41.57 75.67 41.52 77.37 C 46.93 77.40 52.34 77.38 57.75 77.38 C 57.72 75.10 57.74 72.81 57.90 70.54 Z" />
</g>
</svg>
