<?xml version="1.0" encoding="UTF-8" ?>
<!DOCTYPE svg PUBLIC "-//W3C//DTD SVG 1.1//EN" "http://www.w3.org/Graphics/SVG/1.1/DTD/svg11.dtd">
<svg width="32px" height="21px" viewBox="0 0 32 21" version="1.1" xmlns="http://www.w3.org/2000/svg">
<g id="#000000ff">
<path fill="#000000" opacity="1.00" d=" M 0.00 0.00 L 14.68 0.00 C 10.08 3.26 4.83 5.58 0.00 8.50 L 0.00 0.00 Z" />
<path fill="#000000" opacity="1.00" d=" M 17.32 0.00 L 32.00 0.00 L 32.00 14.06 C 29.28 9.01 24.09 5.74 18.32 5.63 C 18.12 3.70 18.86 1.55 17.32 0.00 Z" />
<path fill="#000000" opacity="1.00" d=" M 0.00 10.68 C 4.63 13.07 9.11 15.71 13.69 18.18 C 14.91 19.23 17.04 19.27 18.15 18.04 C 18.46 16.55 18.11 15.00 18.43 13.51 C 23.47 13.11 29.08 16.24 31.10 21.00 L 0.00 21.00 L 0.00 10.68 Z" />
</g>
<g id="#f8fcf8ff">
<path fill="#f8fcf8" opacity="1.00" d=" M 14.68 0.00 L 17.32 0.00 C 18.86 1.55 18.12 3.70 18.32 5.63 C 24.09 5.74 29.28 9.01 32.00 14.06 L 32.00 21.00 L 31.10 21.00 C 29.08 16.24 23.47 13.11 18.43 13.51 C 18.11 15.00 18.46 16.55 18.15 18.04 C 17.04 19.27 14.91 19.23 13.69 18.18 C 9.11 15.71 4.63 13.07 0.00 10.68 L 0.00 8.50 C 4.83 5.58 10.08 3.26 14.68 0.00 Z" />
</g>
</svg>
