<?xml version="1.0" encoding="UTF-8" ?>
<!DOCTYPE svg PUBLIC "-//W3C//DTD SVG 1.1//EN" "http://www.w3.org/Graphics/SVG/1.1/DTD/svg11.dtd">
<svg width="117px" height="140px" viewBox="0 0 117 140" version="1.1" xmlns="http://www.w3.org/2000/svg">
<g id="#000000ff">
<path fill="#000000" opacity="1.00" d=" M 0.00 0.00 L 117.00 0.00 L 117.00 140.00 L 0.00 140.00 L 0.00 0.00 M 31.31 10.59 L 31.81 11.37 C 29.25 11.19 26.84 11.96 24.46 12.75 L 24.52 13.86 C 24.06 13.67 23.13 13.29 22.67 13.10 L 22.62 14.66 C 22.15 14.57 21.21 14.38 20.74 14.29 L 20.56 15.16 C 19.09 16.00 17.70 16.96 16.29 17.88 L 16.90 18.99 L 15.26 17.99 L 15.98 19.79 L 14.47 18.96 L 14.64 20.64 L 12.96 20.50 L 14.05 21.84 L 12.84 21.36 C 11.94 22.73 11.01 24.08 10.21 25.52 L 9.29 25.75 C 9.39 26.22 9.57 27.15 9.66 27.61 L 8.13 27.65 C 8.30 28.12 8.64 29.06 8.81 29.53 L 7.69 29.51 C 7.09 31.57 6.45 33.63 6.30 35.78 L 5.70 35.48 C 5.19 42.30 5.45 49.14 5.39 55.98 C 5.57 72.18 5.02 88.40 5.70 104.59 L 6.49 104.15 C 6.48 105.06 6.46 106.88 6.44 107.79 L 7.48 107.08 C 7.47 107.94 7.45 109.66 7.45 110.52 L 8.89 110.50 C 8.68 110.95 8.27 111.87 8.06 112.33 L 9.64 112.36 C 9.56 112.84 9.41 113.79 9.34 114.27 L 10.22 114.49 C 10.99 115.89 11.88 117.21 12.76 118.54 L 13.92 118.25 L 13.09 119.65 L 14.67 119.24 L 14.24 120.78 L 15.74 120.29 L 15.37 122.00 L 16.70 121.00 L 16.36 122.17 C 17.73 123.07 19.07 124.00 20.51 124.78 C 20.60 125.05 20.78 125.58 20.87 125.85 L 22.44 125.15 L 22.69 126.83 C 23.16 126.67 24.12 126.36 24.59 126.20 L 24.45 127.53 C 25.33 127.53 27.09 127.54 27.98 127.54 L 27.15 128.55 C 28.04 128.54 29.82 128.51 30.71 128.50 L 30.52 129.30 C 45.98 129.98 61.47 129.43 76.95 129.61 C 80.19 129.45 83.65 130.12 86.70 128.72 C 88.07 128.63 89.44 128.56 90.81 128.49 L 90.00 127.56 C 90.88 127.55 92.65 127.53 93.53 127.52 L 93.46 126.15 C 93.94 126.34 94.88 126.71 95.35 126.90 L 95.37 125.34 C 95.84 125.43 96.77 125.61 97.24 125.71 L 97.49 124.78 C 98.88 124.01 100.20 123.13 101.52 122.25 L 101.26 121.04 L 102.55 121.93 L 102.39 120.69 C 105.48 120.35 105.95 116.46 107.82 114.48 L 108.68 114.26 C 108.60 113.79 108.43 112.84 108.34 112.37 L 109.89 112.36 C 109.71 111.90 109.36 110.97 109.19 110.50 L 110.32 110.46 C 110.93 108.38 111.56 106.29 111.72 104.12 L 112.30 104.62 C 112.73 98.75 112.60 92.87 112.61 87.00 C 112.44 69.79 112.98 52.57 112.30 35.38 L 111.52 35.89 C 111.53 34.95 111.54 33.08 111.54 32.14 L 110.56 33.03 C 110.55 32.15 110.55 30.38 110.54 29.49 L 109.18 29.54 C 109.35 29.08 109.69 28.14 109.86 27.68 L 108.22 27.51 L 108.80 25.82 C 108.54 25.76 108.01 25.64 107.75 25.58 C 107.01 24.16 106.29 22.74 105.56 21.32 L 105.12 20.85 L 104.59 20.45 L 103.85 20.23 L 103.48 19.05 L 102.18 19.85 L 102.69 18.10 L 101.13 18.86 L 101.68 17.85 C 100.30 16.95 98.94 16.01 97.50 15.21 L 97.24 14.29 C 96.78 14.39 95.86 14.57 95.40 14.67 L 95.34 13.12 C 94.86 13.30 93.91 13.66 93.43 13.84 L 93.58 12.49 C 92.71 12.48 90.96 12.47 90.08 12.46 L 90.77 11.45 C 89.25 11.45 87.73 11.45 86.21 11.47 L 86.70 10.59 C 68.24 10.26 49.76 10.26 31.31 10.59 Z" />
<path fill="#000000" opacity="1.00" d=" M 27.24 12.67 C 29.87 12.69 32.35 11.60 34.97 11.60 C 50.99 11.61 67.02 11.63 83.04 11.60 C 86.33 11.57 89.38 12.99 92.56 13.66 L 92.77 14.21 C 94.02 14.66 95.27 15.14 96.52 15.59 C 96.59 15.89 96.74 16.48 96.81 16.77 L 98.35 16.07 L 98.44 17.36 L 99.35 17.58 C 101.67 19.77 103.98 22.00 105.88 24.57 L 106.80 24.39 C 106.67 24.86 106.43 25.80 106.30 26.27 L 107.43 26.45 C 107.88 27.71 108.36 28.96 108.79 30.22 L 109.35 30.49 C 109.82 32.60 110.46 34.67 111.34 36.65 C 111.41 58.87 111.45 81.09 111.31 103.30 C 110.55 104.74 110.40 106.36 110.24 107.96 L 109.20 107.32 C 109.30 107.74 109.50 108.58 109.60 109.01 C 108.71 110.45 107.95 111.97 107.29 113.52 L 106.32 113.73 C 106.43 114.22 106.66 115.18 106.78 115.67 L 105.20 115.20 L 105.68 116.06 C 103.49 118.18 101.53 120.52 99.28 122.58 L 98.32 122.35 L 98.47 123.83 L 96.72 123.29 L 96.64 124.39 C 95.35 124.86 94.07 125.35 92.76 125.79 L 92.56 126.37 C 90.14 127.03 87.69 127.61 85.19 127.88 L 86.25 128.45 C 70.18 128.31 54.12 128.42 38.05 128.40 C 35.45 128.30 32.73 128.78 30.26 127.75 C 28.77 127.27 27.29 126.76 25.80 126.32 C 24.37 125.61 22.93 124.92 21.47 124.28 L 21.29 123.37 C 20.78 123.45 19.78 123.63 19.28 123.72 L 19.87 122.13 L 18.88 122.77 C 16.66 120.56 14.45 118.35 12.25 116.13 L 12.82 115.13 L 11.25 115.71 C 11.35 115.21 11.56 114.21 11.66 113.71 L 10.57 113.56 C 10.11 112.29 9.64 111.04 9.20 109.76 L 8.66 109.54 C 8.25 107.91 7.75 106.30 7.25 104.70 C 6.39 102.92 6.64 100.91 6.59 99.01 C 6.70 78.19 6.47 57.37 6.71 36.56 C 7.37 35.16 7.71 33.67 7.73 32.11 L 8.82 32.61 C 8.71 32.21 8.50 31.41 8.39 31.02 C 9.30 29.58 10.06 28.06 10.70 26.49 L 11.70 26.25 C 11.57 25.76 11.30 24.78 11.17 24.29 L 12.65 24.89 L 12.32 23.81 C 14.49 21.60 16.69 19.42 18.88 17.24 L 19.80 17.88 L 19.31 16.27 C 19.81 16.36 20.80 16.55 21.30 16.65 L 21.48 15.74 C 23.04 15.08 24.55 14.31 25.99 13.41 C 26.37 13.51 27.13 13.71 27.51 13.81 L 27.24 12.67 M 43.44 40.03 C 40.64 42.04 37.90 44.13 35.30 46.38 C 33.23 47.93 32.97 51.31 34.79 53.15 C 37.22 55.43 39.96 57.34 42.58 59.39 C 44.67 61.35 47.55 60.02 50.00 59.89 C 50.00 57.26 50.00 54.63 50.00 52.00 C 50.75 52.00 52.25 52.00 53.00 52.00 C 53.00 51.25 53.00 49.75 53.00 49.00 C 52.25 49.00 50.75 49.00 50.00 49.00 C 50.00 46.04 50.00 43.08 50.00 40.11 C 47.83 40.06 45.48 38.84 43.44 40.03 M 69.11 40.02 C 68.24 42.94 67.81 45.95 67.95 49.00 C 67.21 49.00 65.74 49.00 65.00 49.00 C 65.00 49.75 65.00 51.25 65.00 52.00 C 65.73 52.00 67.18 52.00 67.90 52.00 C 67.86 54.71 68.39 57.36 69.11 59.96 C 74.25 62.18 77.81 57.20 81.56 54.62 C 84.00 53.16 85.41 49.89 83.65 47.35 C 81.19 44.76 78.15 42.80 75.37 40.57 C 73.63 38.87 71.18 39.69 69.11 40.02 M 54.00 49.00 C 54.00 49.75 54.00 51.25 54.00 52.00 C 54.75 52.00 56.25 52.00 57.00 52.00 C 57.00 51.25 57.00 49.75 57.00 49.00 C 56.25 49.00 54.75 49.00 54.00 49.00 M 58.00 49.00 C 58.00 49.75 58.00 51.25 58.00 52.00 C 60.00 52.00 62.00 52.00 64.00 52.00 C 64.00 51.25 64.00 49.75 64.00 49.00 C 62.00 49.00 60.00 49.00 58.00 49.00 Z" />
<path fill="#000000" opacity="1.00" d=" M 37.01 50.00 C 40.01 47.67 43.02 45.35 46.00 43.01 C 46.00 47.66 46.00 52.31 46.00 56.97 C 43.00 54.65 40.00 52.33 37.01 50.00 Z" />
<path fill="#000000" opacity="1.00" d=" M 72.00 43.01 C 74.98 45.35 77.99 47.67 80.99 50.00 C 78.00 52.33 75.00 54.65 72.00 56.97 C 72.00 52.32 72.00 47.66 72.00 43.01 Z" />
</g>
<g id="#f6faf7ff">
<path fill="#f6faf7" opacity="1.00" d=" M 31.31 10.59 C 49.76 10.26 68.24 10.26 86.70 10.59 L 86.21 11.47 C 87.73 11.45 89.25 11.45 90.77 11.45 L 90.08 12.46 C 90.96 12.47 92.71 12.48 93.58 12.49 L 93.43 13.84 C 93.91 13.66 94.86 13.30 95.34 13.12 L 95.40 14.67 C 95.86 14.57 96.78 14.39 97.24 14.29 L 97.50 15.21 C 98.94 16.01 100.30 16.95 101.68 17.85 L 101.13 18.86 L 102.69 18.10 L 102.18 19.85 L 103.48 19.05 L 103.85 20.23 L 104.59 20.45 L 105.12 20.85 L 105.56 21.32 C 106.29 22.74 107.01 24.16 107.75 25.58 C 108.01 25.64 108.54 25.76 108.80 25.82 L 108.22 27.51 L 109.86 27.68 C 109.69 28.14 109.35 29.08 109.18 29.54 L 110.54 29.49 C 110.55 30.38 110.55 32.15 110.56 33.03 L 111.54 32.14 C 111.54 33.08 111.53 34.95 111.52 35.89 L 112.30 35.38 C 112.98 52.57 112.44 69.79 112.61 87.00 C 112.60 92.87 112.73 98.75 112.30 104.62 L 111.72 104.12 C 111.56 106.29 110.93 108.38 110.32 110.46 L 109.19 110.50 C 109.36 110.97 109.71 111.90 109.89 112.36 L 108.34 112.37 C 108.43 112.84 108.60 113.79 108.68 114.26 L 107.82 114.48 C 105.95 116.46 105.48 120.35 102.39 120.69 L 102.55 121.93 L 101.26 121.04 L 101.52 122.25 C 100.20 123.13 98.88 124.01 97.49 124.78 L 97.24 125.71 C 96.77 125.61 95.84 125.43 95.37 125.34 L 95.35 126.90 C 94.88 126.71 93.94 126.34 93.46 126.15 L 93.53 127.52 C 92.65 127.53 90.88 127.55 90.00 127.56 L 90.81 128.49 C 89.44 128.56 88.07 128.63 86.70 128.72 C 83.65 130.12 80.19 129.45 76.95 129.61 C 61.47 129.43 45.98 129.98 30.52 129.30 L 30.71 128.50 C 29.82 128.51 28.04 128.54 27.15 128.55 L 27.98 127.54 C 27.09 127.54 25.33 127.53 24.45 127.53 L 24.59 126.20 C 24.12 126.36 23.16 126.67 22.69 126.83 L 22.44 125.15 L 20.87 125.85 C 20.78 125.58 20.60 125.05 20.51 124.78 C 19.07 124.00 17.73 123.07 16.36 122.17 L 16.70 121.00 L 15.37 122.00 L 15.74 120.29 L 14.24 120.78 L 14.67 119.24 L 13.09 119.65 L 13.92 118.25 L 12.76 118.54 C 11.88 117.21 10.99 115.89 10.22 114.49 L 9.34 114.27 C 9.41 113.79 9.56 112.84 9.64 112.36 L 8.06 112.33 C 8.27 111.87 8.68 110.95 8.89 110.50 L 7.45 110.52 C 7.45 109.66 7.47 107.94 7.48 107.08 L 6.44 107.79 C 6.46 106.88 6.48 105.06 6.49 104.15 L 5.70 104.59 C 5.02 88.40 5.57 72.18 5.39 55.98 C 5.45 49.14 5.19 42.30 5.70 35.48 L 6.30 35.78 C 6.45 33.63 7.09 31.57 7.69 29.51 L 8.81 29.53 C 8.64 29.06 8.30 28.12 8.13 27.65 L 9.66 27.61 C 9.57 27.15 9.39 26.22 9.29 25.75 L 10.21 25.52 C 11.01 24.08 11.94 22.73 12.84 21.36 L 14.05 21.84 L 12.96 20.50 L 14.64 20.64 L 14.47 18.96 L 15.98 19.79 L 15.26 17.99 L 16.90 18.99 L 16.29 17.88 C 17.70 16.96 19.09 16.00 20.56 15.16 L 20.74 14.29 C 21.21 14.38 22.15 14.57 22.62 14.66 L 22.67 13.10 C 23.13 13.29 24.06 13.67 24.52 13.86 L 24.46 12.75 C 26.84 11.96 29.25 11.19 31.81 11.37 L 31.31 10.59 M 27.24 12.67 L 27.51 13.81 C 27.13 13.71 26.37 13.51 25.99 13.41 C 24.55 14.31 23.04 15.08 21.48 15.74 L 21.30 16.65 C 20.80 16.55 19.81 16.36 19.31 16.27 L 19.80 17.88 L 18.88 17.24 C 16.69 19.42 14.49 21.60 12.32 23.81 L 12.65 24.89 L 11.17 24.29 C 11.30 24.78 11.57 25.76 11.70 26.25 L 10.70 26.49 C 10.06 28.06 9.30 29.58 8.39 31.02 C 8.50 31.41 8.71 32.21 8.82 32.61 L 7.73 32.11 C 7.71 33.67 7.37 35.16 6.71 36.56 C 6.47 57.37 6.70 78.19 6.59 99.01 C 6.64 100.91 6.39 102.92 7.25 104.70 C 7.75 106.30 8.25 107.91 8.66 109.54 L 9.20 109.76 C 9.64 111.04 10.11 112.29 10.57 113.56 L 11.66 113.71 C 11.56 114.21 11.35 115.21 11.25 115.71 L 12.82 115.13 L 12.25 116.13 C 14.45 118.35 16.66 120.56 18.88 122.77 L 19.87 122.13 L 19.28 123.72 C 19.78 123.63 20.78 123.45 21.29 123.37 L 21.47 124.28 C 22.93 124.92 24.37 125.61 25.80 126.32 C 27.29 126.76 28.77 127.27 30.26 127.75 C 32.73 128.78 35.45 128.30 38.05 128.40 C 54.12 128.42 70.18 128.31 86.25 128.45 L 85.19 127.88 C 87.69 127.61 90.14 127.03 92.56 126.37 L 92.76 125.79 C 94.07 125.35 95.35 124.86 96.64 124.39 L 96.72 123.29 L 98.47 123.83 L 98.32 122.35 L 99.28 122.58 C 101.53 120.52 103.49 118.18 105.68 116.06 L 105.20 115.20 L 106.78 115.67 C 106.66 115.18 106.43 114.22 106.32 113.73 L 107.29 113.52 C 107.95 111.97 108.71 110.45 109.60 109.01 C 109.50 108.58 109.30 107.74 109.20 107.32 L 110.24 107.96 C 110.40 106.36 110.55 104.74 111.31 103.30 C 111.45 81.09 111.41 58.87 111.34 36.65 C 110.46 34.67 109.82 32.60 109.35 30.49 L 108.79 30.22 C 108.36 28.96 107.88 27.71 107.43 26.45 L 106.30 26.27 C 106.43 25.80 106.67 24.86 106.80 24.39 L 105.88 24.57 C 103.98 22.00 101.67 19.77 99.35 17.58 L 98.44 17.36 L 98.35 16.07 L 96.81 16.77 C 96.74 16.48 96.59 15.89 96.52 15.59 C 95.27 15.14 94.02 14.66 92.77 14.21 L 92.56 13.66 C 89.38 12.99 86.33 11.57 83.04 11.60 C 67.02 11.63 50.99 11.61 34.97 11.60 C 32.35 11.60 29.87 12.69 27.24 12.67 Z" />
<path fill="#f6faf7" opacity="1.00" d=" M 43.44 40.03 C 45.48 38.84 47.83 40.06 50.00 40.11 C 50.00 43.08 50.00 46.04 50.00 49.00 C 50.75 49.00 52.25 49.00 53.00 49.00 C 53.00 49.75 53.00 51.25 53.00 52.00 C 52.25 52.00 50.75 52.00 50.00 52.00 C 50.00 54.63 50.00 57.26 50.00 59.89 C 47.55 60.02 44.67 61.35 42.58 59.39 C 39.96 57.34 37.22 55.43 34.79 53.15 C 32.97 51.31 33.23 47.93 35.30 46.38 C 37.90 44.13 40.64 42.04 43.44 40.03 M 37.01 50.00 C 40.00 52.33 43.00 54.65 46.00 56.97 C 46.00 52.31 46.00 47.66 46.00 43.01 C 43.02 45.35 40.01 47.67 37.01 50.00 Z" />
<path fill="#f6faf7" opacity="1.00" d=" M 69.11 40.02 C 71.18 39.69 73.63 38.87 75.37 40.57 C 78.15 42.80 81.19 44.76 83.65 47.35 C 85.41 49.89 84.00 53.16 81.56 54.62 C 77.81 57.20 74.25 62.18 69.11 59.96 C 68.39 57.36 67.86 54.71 67.90 52.00 C 67.18 52.00 65.73 52.00 65.00 52.00 C 65.00 51.25 65.00 49.75 65.00 49.00 C 65.74 49.00 67.21 49.00 67.95 49.00 C 67.81 45.95 68.24 42.94 69.11 40.02 M 72.00 43.01 C 72.00 47.66 72.00 52.32 72.00 56.97 C 75.00 54.65 78.00 52.33 80.99 50.00 C 77.99 47.67 74.98 45.35 72.00 43.01 Z" />
<path fill="#f6faf7" opacity="1.00" d=" M 54.00 49.00 C 54.75 49.00 56.25 49.00 57.00 49.00 C 57.00 49.75 57.00 51.25 57.00 52.00 C 56.25 52.00 54.75 52.00 54.00 52.00 C 54.00 51.25 54.00 49.75 54.00 49.00 Z" />
<path fill="#f6faf7" opacity="1.00" d=" M 58.00 49.00 C 60.00 49.00 62.00 49.00 64.00 49.00 C 64.00 49.75 64.00 51.25 64.00 52.00 C 62.00 52.00 60.00 52.00 58.00 52.00 C 58.00 51.25 58.00 49.75 58.00 49.00 Z" />
</g>
</svg>
