<?xml version="1.0" encoding="UTF-8" ?>
<!DOCTYPE svg PUBLIC "-//W3C//DTD SVG 1.1//EN" "http://www.w3.org/Graphics/SVG/1.1/DTD/svg11.dtd">
<svg width="117px" height="140px" viewBox="0 0 117 140" version="1.1" xmlns="http://www.w3.org/2000/svg">
<g id="#000000ff">
<path fill="#000000" opacity="1.00" d=" M 0.00 0.00 L 117.00 0.00 L 117.00 140.00 L 0.00 140.00 L 0.00 0.00 M 29.43 10.60 C 15.41 13.48 4.24 26.56 4.04 40.95 C 3.97 60.31 3.97 79.67 4.04 99.03 C 4.19 115.00 18.05 129.31 33.99 129.97 C 49.66 130.05 65.34 129.96 81.01 130.02 C 94.62 130.30 107.53 120.60 111.50 107.64 C 113.20 102.61 113.02 97.24 113.00 92.00 C 112.90 74.64 113.16 57.27 112.88 39.90 C 112.24 23.63 97.30 9.57 81.02 9.98 C 66.01 10.01 51.00 10.01 35.99 9.98 C 33.79 9.99 31.58 10.09 29.43 10.60 Z" />
<path fill="#000000" opacity="1.00" d=" M 35.13 12.17 C 50.07 11.91 65.03 12.09 79.99 12.07 C 91.24 12.05 102.23 18.70 107.01 28.96 C 109.24 33.28 110.06 38.17 110.00 43.00 C 109.99 61.35 110.03 79.70 109.98 98.05 C 110.16 109.07 103.50 119.78 93.65 124.65 C 88.25 127.51 81.99 128.07 75.98 127.97 C 62.30 127.82 48.61 128.17 34.94 127.80 C 20.09 127.15 7.17 113.93 7.10 99.03 C 6.98 80.69 7.10 62.35 7.04 44.01 C 6.90 38.62 7.73 33.10 10.36 28.33 C 14.98 19.04 24.79 12.75 35.13 12.17 M 59.35 27.14 C 55.40 31.08 51.45 35.02 47.51 38.98 C 48.35 39.73 49.20 40.49 50.04 41.24 C 51.36 41.24 52.68 41.24 54.00 41.24 C 54.00 43.28 54.00 45.31 54.00 47.34 C 52.07 47.34 50.14 47.34 48.21 47.34 C 48.10 44.93 47.34 42.64 45.88 40.70 C 41.79 44.57 37.92 48.67 33.85 52.56 C 37.67 56.65 41.73 60.51 45.66 64.50 C 46.44 63.63 47.23 62.76 48.02 61.89 C 48.01 60.60 48.00 59.30 48.00 58.00 C 50.00 58.00 52.00 58.00 54.00 58.00 C 54.00 59.96 54.00 61.91 54.00 63.87 C 51.52 63.76 49.15 64.32 47.40 66.18 C 51.33 70.23 55.36 74.18 59.34 78.17 C 63.26 74.27 67.15 70.35 71.08 66.46 C 70.77 66.05 70.14 65.22 69.83 64.81 C 68.12 64.44 66.42 64.08 64.70 63.77 C 64.70 61.85 64.70 59.93 64.70 58.01 C 66.68 58.00 68.66 58.00 70.64 58.00 C 70.43 60.50 71.00 62.86 72.94 64.57 C 76.92 60.60 80.91 56.63 84.86 52.63 C 80.86 48.66 76.91 44.66 72.90 40.70 C 71.22 42.54 70.74 44.98 70.45 47.38 C 68.53 47.36 66.62 47.34 64.70 47.32 C 64.70 45.36 64.71 43.41 64.71 41.45 C 67.09 41.25 69.48 40.78 71.29 39.12 C 67.34 35.09 63.34 31.12 59.35 27.14 Z" />
<path fill="#000000" opacity="1.00" d=" M 51.66 38.62 C 54.20 36.02 56.77 33.45 59.38 30.92 C 61.93 33.49 64.48 36.03 67.03 38.60 C 65.35 38.60 63.68 38.61 62.00 38.61 C 62.00 42.41 62.00 46.20 62.00 50.00 C 65.80 50.00 69.60 50.00 73.41 50.00 C 73.41 48.33 73.41 46.66 73.41 45.00 C 75.99 47.53 78.55 50.08 81.10 52.66 C 78.54 55.23 75.98 57.79 73.39 60.33 C 73.39 58.67 73.40 57.02 73.41 55.36 C 69.61 55.34 65.81 55.34 62.01 55.34 C 61.99 59.14 62.00 62.93 62.01 66.73 C 63.67 66.73 65.34 66.73 67.01 66.74 C 64.47 69.30 61.91 71.85 59.37 74.40 C 56.79 71.86 54.23 69.31 51.69 66.72 C 53.34 66.72 54.99 66.72 56.64 66.72 C 56.64 62.93 56.64 59.14 56.64 55.35 C 52.86 55.34 49.08 55.34 45.31 55.34 C 45.30 57.00 45.29 58.67 45.29 60.33 C 42.71 57.78 40.16 55.22 37.60 52.66 C 40.15 50.09 42.71 47.52 45.29 44.97 C 45.29 46.64 45.30 48.32 45.30 50.00 C 49.08 50.00 52.87 50.01 56.65 49.99 C 56.65 46.19 56.64 42.40 56.62 38.61 C 54.97 38.61 53.31 38.62 51.66 38.62 Z" />
</g>
<g id="#708cc7ff">
<path fill="#708cc7" opacity="1.00" d=" M 29.43 10.60 C 31.58 10.09 33.79 9.99 35.99 9.98 C 51.00 10.01 66.01 10.01 81.02 9.98 C 97.30 9.57 112.24 23.63 112.88 39.90 C 113.16 57.27 112.90 74.64 113.00 92.00 C 113.02 97.24 113.20 102.61 111.50 107.64 C 107.53 120.60 94.62 130.30 81.01 130.02 C 65.34 129.96 49.66 130.05 33.99 129.97 C 18.05 129.31 4.19 115.00 4.04 99.03 C 3.97 79.67 3.97 60.31 4.04 40.95 C 4.24 26.56 15.41 13.48 29.43 10.60 M 35.13 12.17 C 24.79 12.75 14.98 19.04 10.36 28.33 C 7.73 33.10 6.90 38.62 7.04 44.01 C 7.10 62.35 6.98 80.69 7.10 99.03 C 7.17 113.93 20.09 127.15 34.94 127.80 C 48.61 128.17 62.30 127.82 75.98 127.97 C 81.99 128.07 88.25 127.51 93.65 124.65 C 103.50 119.78 110.16 109.07 109.98 98.05 C 110.03 79.70 109.99 61.35 110.00 43.00 C 110.06 38.17 109.24 33.28 107.01 28.96 C 102.23 18.70 91.24 12.05 79.99 12.07 C 65.03 12.09 50.07 11.91 35.13 12.17 Z" />
</g>
<g id="#10eb50ff">
<path fill="#10eb50" opacity="1.00" d=" M 59.35 27.14 C 63.34 31.12 67.34 35.09 71.29 39.12 C 69.48 40.78 67.09 41.25 64.71 41.45 C 64.71 43.41 64.70 45.36 64.70 47.32 C 66.62 47.34 68.53 47.36 70.45 47.38 C 70.74 44.98 71.22 42.54 72.90 40.70 C 76.91 44.66 80.86 48.66 84.86 52.63 C 80.91 56.63 76.92 60.60 72.94 64.57 C 71.00 62.86 70.43 60.50 70.64 58.00 C 68.66 58.00 66.68 58.00 64.70 58.01 C 64.70 59.93 64.70 61.85 64.70 63.77 C 66.42 64.08 68.12 64.44 69.83 64.81 C 70.14 65.22 70.77 66.05 71.08 66.46 C 67.15 70.35 63.26 74.27 59.34 78.17 C 55.36 74.18 51.33 70.23 47.40 66.18 C 49.15 64.32 51.52 63.76 54.00 63.87 C 54.00 61.91 54.00 59.96 54.00 58.00 C 52.00 58.00 50.00 58.00 48.00 58.00 C 48.00 59.30 48.01 60.60 48.02 61.89 C 47.23 62.76 46.44 63.63 45.66 64.50 C 41.73 60.51 37.67 56.65 33.85 52.56 C 37.92 48.67 41.79 44.57 45.88 40.70 C 47.34 42.64 48.10 44.93 48.21 47.34 C 50.14 47.34 52.07 47.34 54.00 47.34 C 54.00 45.31 54.00 43.28 54.00 41.24 C 52.68 41.24 51.36 41.24 50.04 41.24 C 49.20 40.49 48.35 39.73 47.51 38.98 C 51.45 35.02 55.40 31.08 59.35 27.14 M 51.66 38.62 C 53.31 38.62 54.97 38.61 56.62 38.61 C 56.64 42.40 56.65 46.19 56.65 49.99 C 52.87 50.01 49.08 50.00 45.30 50.00 C 45.30 48.32 45.29 46.64 45.29 44.97 C 42.71 47.52 40.15 50.09 37.60 52.66 C 40.16 55.22 42.71 57.78 45.29 60.33 C 45.29 58.67 45.30 57.00 45.31 55.34 C 49.08 55.34 52.86 55.34 56.64 55.35 C 56.64 59.14 56.64 62.93 56.64 66.72 C 54.99 66.72 53.34 66.72 51.69 66.72 C 54.23 69.31 56.79 71.86 59.37 74.40 C 61.91 71.85 64.47 69.30 67.01 66.74 C 65.34 66.73 63.67 66.73 62.01 66.73 C 62.00 62.93 61.99 59.14 62.01 55.34 C 65.81 55.34 69.61 55.34 73.41 55.36 C 73.40 57.02 73.39 58.67 73.39 60.33 C 75.98 57.79 78.54 55.23 81.10 52.66 C 78.55 50.08 75.99 47.53 73.41 45.00 C 73.41 46.66 73.41 48.33 73.41 50.00 C 69.60 50.00 65.80 50.00 62.00 50.00 C 62.00 46.20 62.00 42.41 62.00 38.61 C 63.68 38.61 65.35 38.60 67.03 38.60 C 64.48 36.03 61.93 33.49 59.38 30.92 C 56.77 33.45 54.20 36.02 51.66 38.62 Z" />
</g>
</svg>
