<?xml version="1.0" encoding="UTF-8" ?>
<!DOCTYPE svg PUBLIC "-//W3C//DTD SVG 1.1//EN" "http://www.w3.org/Graphics/SVG/1.1/DTD/svg11.dtd">
<svg width="117px" height="140px" viewBox="0 0 117 140" version="1.1" xmlns="http://www.w3.org/2000/svg">
<g id="#000000ff">
<path fill="#000000" opacity="1.00" d=" M 0.00 0.00 L 117.00 0.00 L 117.00 140.00 L 0.00 140.00 L 0.00 0.00 M 31.90 10.71 C 29.42 11.37 26.82 11.51 24.50 12.70 L 24.57 13.78 C 24.08 13.63 23.10 13.32 22.60 13.16 L 22.62 14.16 C 20.36 14.96 18.41 16.40 16.48 17.80 L 16.78 18.42 L 15.55 18.52 L 15.42 19.80 L 14.25 19.18 L 14.72 20.72 L 13.69 20.32 C 13.48 20.72 13.04 21.52 12.82 21.92 C 11.17 23.49 9.88 25.43 9.20 27.61 L 8.21 27.59 C 8.34 28.09 8.61 29.09 8.74 29.59 L 7.43 29.53 C 7.44 30.26 7.46 31.72 7.47 32.45 L 6.66 32.40 C 6.26 35.26 5.36 38.05 5.40 40.96 C 5.38 60.33 5.38 79.70 5.40 99.06 C 5.34 101.85 6.15 104.53 6.73 107.22 C 7.10 108.30 7.44 109.39 7.76 110.48 L 8.76 110.43 C 8.62 110.93 8.34 111.91 8.20 112.40 L 9.28 112.38 C 9.50 113.01 9.93 114.29 10.15 114.93 C 11.03 116.01 11.89 117.10 12.69 118.25 C 13.53 119.10 14.33 120.00 15.07 120.94 C 15.50 121.12 16.34 121.49 16.76 121.68 L 16.46 122.19 C 18.40 123.57 20.31 125.06 22.59 125.82 L 22.61 126.80 C 23.10 126.66 24.10 126.40 24.59 126.26 L 24.53 127.61 C 25.33 127.57 26.91 127.47 27.70 127.42 L 27.31 128.39 C 28.88 128.54 30.46 128.73 31.96 129.29 C 46.28 130.01 60.65 129.41 75.00 129.61 C 80.30 129.50 86.16 130.18 90.95 127.58 C 91.59 127.57 92.86 127.56 93.49 127.56 L 93.42 126.25 C 93.92 126.39 94.92 126.66 95.41 126.79 L 95.40 125.76 C 97.74 125.15 99.60 123.57 101.51 122.19 L 101.30 121.24 L 102.58 121.78 L 102.36 120.35 L 103.50 120.76 L 103.55 119.51 L 104.84 119.37 L 104.21 118.31 L 105.27 118.54 C 106.09 117.22 106.95 115.92 107.74 114.57 C 107.99 114.45 108.49 114.21 108.74 114.09 L 108.21 112.45 L 109.83 112.38 C 109.68 111.89 109.37 110.92 109.21 110.43 L 110.59 110.50 C 110.55 109.71 110.49 108.12 110.46 107.32 L 111.35 107.62 C 111.72 104.74 112.64 101.93 112.59 99.01 C 112.64 80.68 112.58 62.36 112.62 44.04 C 112.60 41.11 112.68 38.12 111.84 35.28 C 111.39 33.33 110.80 31.43 110.30 29.51 L 109.24 29.56 C 109.38 29.06 109.66 28.05 109.80 27.55 L 108.80 27.61 C 108.08 25.31 106.57 23.40 105.19 21.47 L 104.22 21.71 L 104.82 20.31 L 103.57 20.81 L 103.55 19.43 L 102.16 19.44 L 102.72 18.19 L 101.31 18.78 L 101.53 17.82 C 99.60 16.44 97.71 14.90 95.40 14.21 L 95.39 13.18 C 94.90 13.33 93.92 13.63 93.43 13.78 L 93.49 12.40 C 92.69 12.44 91.09 12.53 90.29 12.57 L 90.70 11.67 C 89.15 11.46 87.59 11.22 86.10 10.72 C 79.73 10.08 73.32 10.52 66.93 10.39 C 55.26 10.58 43.56 10.00 31.90 10.71 Z" />
<path fill="#000000" opacity="1.00" d=" M 21.76 15.58 C 24.78 13.91 28.17 13.22 31.44 12.20 L 31.48 11.53 C 49.82 11.66 68.17 11.67 86.52 11.52 L 86.55 12.25 C 90.00 12.60 93.18 14.03 96.22 15.60 C 97.08 16.14 97.94 16.68 98.80 17.22 C 101.35 19.28 103.69 21.61 105.74 24.17 C 106.28 25.03 106.84 25.89 107.41 26.73 C 108.34 28.61 109.28 30.51 109.76 32.56 L 110.28 32.26 C 110.51 34.86 111.55 37.34 111.41 39.98 C 111.34 60.69 111.45 81.39 111.36 102.10 C 110.74 106.00 109.14 109.71 107.42 113.26 C 106.85 114.11 106.29 114.97 105.74 115.84 C 103.69 118.39 101.36 120.72 98.81 122.77 C 97.94 123.31 97.08 123.86 96.22 124.41 C 92.45 126.32 88.42 127.91 84.20 128.36 C 68.79 128.45 53.38 128.34 37.97 128.41 C 35.66 128.40 33.31 128.54 31.05 127.96 C 27.85 127.05 24.69 125.99 21.75 124.40 C 20.89 123.83 20.03 123.29 19.15 122.76 C 16.63 120.68 14.28 118.39 12.25 115.83 C 11.70 114.96 11.15 114.10 10.59 113.24 C 9.66 111.37 8.75 109.48 8.20 107.45 L 7.73 107.62 C 7.46 105.08 6.47 102.65 6.59 100.07 C 6.67 78.97 6.51 57.88 6.67 36.79 C 7.20 35.45 7.56 34.05 7.86 32.65 L 8.20 32.52 C 8.76 30.51 9.66 28.63 10.58 26.77 C 11.14 25.90 11.69 25.04 12.24 24.17 C 14.29 21.63 16.61 19.31 19.16 17.26 C 20.03 16.71 20.90 16.15 21.76 15.58 M 45.94 37.98 C 44.73 40.14 43.41 42.23 41.97 44.24 C 42.91 45.52 43.86 46.80 44.80 48.08 C 44.10 48.11 42.70 48.17 42.00 48.20 C 42.00 49.46 42.00 50.73 42.00 52.00 C 42.60 52.00 43.80 52.00 44.40 52.01 C 44.38 53.29 44.36 54.57 44.34 55.86 C 46.40 56.00 48.46 56.19 50.50 56.55 C 49.02 56.78 47.54 56.99 46.05 57.17 C 46.13 58.42 46.21 59.68 46.29 60.93 C 49.33 60.93 52.36 60.65 55.40 60.70 C 51.72 61.90 47.78 61.83 43.95 62.07 C 44.05 63.61 44.15 65.16 44.24 66.70 C 45.03 66.66 46.60 66.58 47.39 66.54 C 45.66 67.24 43.90 67.87 42.14 68.49 C 43.55 69.84 44.91 71.24 46.22 72.68 C 48.60 71.53 50.97 70.39 53.34 69.22 C 53.61 69.91 54.14 71.29 54.41 71.98 C 57.59 71.85 63.05 73.15 63.11 68.34 C 66.19 69.73 69.24 71.22 72.24 72.78 C 73.39 71.24 74.54 69.71 75.73 68.20 C 74.52 67.71 73.31 67.22 72.11 66.72 C 73.04 66.32 74.91 65.52 75.85 65.12 C 74.11 62.59 72.32 60.10 70.53 57.62 C 69.17 58.19 67.82 58.76 66.45 59.31 C 66.35 59.66 66.14 60.37 66.03 60.72 C 65.34 61.03 63.94 61.65 63.25 61.95 C 64.60 59.74 67.07 58.55 69.05 56.98 C 68.43 56.46 67.19 55.43 66.57 54.91 C 68.82 56.01 71.05 57.13 73.36 58.11 C 74.51 55.90 75.57 53.64 76.74 51.44 C 75.08 51.05 73.43 50.63 71.78 50.18 C 72.77 48.33 73.14 45.63 75.62 45.25 C 75.62 43.62 75.62 41.99 75.63 40.36 C 72.80 40.38 69.97 40.38 67.14 40.44 C 67.35 39.94 67.78 38.93 68.00 38.43 C 66.06 38.31 64.12 38.18 62.18 38.06 C 61.61 39.47 61.05 40.87 60.50 42.29 C 60.47 41.71 60.41 40.57 60.38 40.00 C 57.47 40.00 54.57 40.00 51.66 40.00 C 51.68 39.55 51.72 38.65 51.75 38.20 C 49.81 38.14 47.87 38.06 45.94 37.98 Z" />
<path fill="#000000" opacity="1.00" d=" M 48.44 44.87 C 51.84 43.29 55.74 44.05 59.34 44.31 C 55.93 45.83 52.04 45.13 48.44 44.87 Z" />
<path fill="#000000" opacity="1.00" d=" M 49.21 47.23 C 49.78 47.85 49.78 47.85 49.21 47.23 Z" />
<path fill="#000000" opacity="1.00" d=" M 53.37 47.19 C 53.71 47.96 53.71 47.96 53.37 47.19 Z" />
<path fill="#000000" opacity="1.00" d=" M 58.27 47.20 C 58.83 47.83 58.83 47.83 58.27 47.20 Z" />
<path fill="#000000" opacity="1.00" d=" M 59.79 48.04 C 61.07 48.66 62.16 49.59 62.75 50.90 C 61.60 51.74 60.36 52.45 59.18 53.25 C 58.95 54.58 60.18 55.51 60.65 56.65 C 59.37 56.89 58.08 57.09 56.79 57.27 C 57.18 56.76 57.95 55.74 58.34 55.23 C 57.44 52.26 61.10 51.15 59.79 48.04 Z" />
<path fill="#000000" opacity="1.00" d=" M 49.18 52.38 C 49.79 53.03 49.79 53.03 49.18 52.38 Z" />
<path fill="#000000" opacity="1.00" d=" M 52.46 52.16 C 55.50 50.64 52.62 55.45 52.46 52.16 Z" />
<path fill="#000000" opacity="1.00" d=" M 53.69 66.43 C 54.57 65.08 55.46 65.09 56.33 66.48 C 55.46 67.85 54.58 67.83 53.69 66.43 Z" />
</g>
<g id="#f7fbf8ff">
<path fill="#f7fbf8" opacity="1.00" d=" M 31.90 10.71 C 43.56 10.00 55.26 10.58 66.93 10.39 C 73.32 10.52 79.73 10.08 86.10 10.72 C 87.59 11.22 89.15 11.46 90.70 11.67 L 90.29 12.57 C 91.09 12.53 92.69 12.44 93.49 12.40 L 93.43 13.78 C 93.92 13.63 94.90 13.33 95.39 13.18 L 95.40 14.21 C 97.71 14.90 99.60 16.44 101.53 17.82 L 101.31 18.78 L 102.72 18.19 L 102.16 19.44 L 103.55 19.43 L 103.57 20.81 L 104.82 20.31 L 104.22 21.71 L 105.19 21.47 C 106.57 23.40 108.08 25.31 108.80 27.61 L 109.80 27.55 C 109.66 28.05 109.38 29.06 109.24 29.56 L 110.30 29.51 C 110.80 31.43 111.39 33.33 111.84 35.28 C 112.68 38.12 112.60 41.11 112.62 44.04 C 112.58 62.36 112.64 80.68 112.59 99.01 C 112.64 101.93 111.72 104.74 111.35 107.62 L 110.46 107.32 C 110.49 108.12 110.55 109.71 110.59 110.50 L 109.21 110.43 C 109.37 110.92 109.68 111.89 109.83 112.38 L 108.21 112.45 L 108.74 114.09 C 108.49 114.21 107.99 114.45 107.74 114.57 C 106.95 115.92 106.09 117.22 105.27 118.54 L 104.21 118.31 L 104.84 119.37 L 103.55 119.51 L 103.50 120.76 L 102.36 120.35 L 102.58 121.78 L 101.30 121.24 L 101.51 122.19 C 99.60 123.57 97.74 125.15 95.40 125.76 L 95.41 126.79 C 94.92 126.66 93.92 126.39 93.42 126.25 L 93.49 127.56 C 92.86 127.56 91.59 127.57 90.95 127.58 C 86.16 130.18 80.30 129.50 75.00 129.61 C 60.65 129.41 46.28 130.01 31.96 129.29 C 30.46 128.73 28.88 128.54 27.31 128.39 L 27.70 127.42 C 26.91 127.47 25.33 127.57 24.53 127.61 L 24.59 126.26 C 24.10 126.40 23.10 126.66 22.61 126.80 L 22.59 125.82 C 20.31 125.06 18.40 123.57 16.46 122.19 L 16.76 121.68 C 16.34 121.49 15.50 121.12 15.07 120.94 C 14.33 120.00 13.53 119.10 12.69 118.25 C 11.89 117.10 11.03 116.01 10.15 114.93 C 9.93 114.29 9.50 113.01 9.28 112.38 L 8.20 112.40 C 8.34 111.91 8.62 110.93 8.76 110.43 L 7.76 110.48 C 7.44 109.39 7.10 108.30 6.73 107.22 C 6.15 104.53 5.34 101.85 5.40 99.06 C 5.38 79.70 5.38 60.33 5.40 40.96 C 5.36 38.05 6.26 35.26 6.66 32.40 L 7.47 32.45 C 7.46 31.72 7.44 30.26 7.43 29.53 L 8.74 29.59 C 8.61 29.09 8.34 28.09 8.21 27.59 L 9.20 27.61 C 9.88 25.43 11.17 23.49 12.82 21.92 C 13.04 21.52 13.48 20.72 13.69 20.32 L 14.72 20.72 L 14.25 19.18 L 15.42 19.80 L 15.55 18.52 L 16.78 18.42 L 16.48 17.80 C 18.41 16.40 20.36 14.96 22.62 14.16 L 22.60 13.16 C 23.10 13.32 24.08 13.63 24.57 13.78 L 24.50 12.70 C 26.82 11.51 29.42 11.37 31.90 10.71 M 21.76 15.58 C 20.90 16.15 20.03 16.71 19.16 17.26 C 16.61 19.31 14.29 21.63 12.24 24.17 C 11.69 25.04 11.14 25.90 10.58 26.77 C 9.66 28.63 8.76 30.51 8.20 32.52 L 7.86 32.65 C 7.56 34.05 7.20 35.45 6.67 36.79 C 6.51 57.88 6.67 78.97 6.59 100.07 C 6.47 102.65 7.46 105.08 7.73 107.62 L 8.20 107.45 C 8.75 109.48 9.66 111.37 10.59 113.24 C 11.15 114.10 11.70 114.96 12.25 115.83 C 14.28 118.39 16.63 120.68 19.15 122.76 C 20.03 123.29 20.89 123.83 21.75 124.40 C 24.69 125.99 27.85 127.05 31.05 127.96 C 33.31 128.54 35.66 128.40 37.97 128.41 C 53.38 128.34 68.79 128.45 84.20 128.36 C 88.42 127.91 92.45 126.32 96.22 124.41 C 97.08 123.86 97.94 123.31 98.81 122.77 C 101.36 120.72 103.69 118.39 105.74 115.84 C 106.29 114.97 106.85 114.11 107.42 113.26 C 109.14 109.71 110.74 106.00 111.36 102.10 C 111.45 81.39 111.34 60.69 111.41 39.98 C 111.55 37.34 110.51 34.86 110.28 32.26 L 109.76 32.56 C 109.28 30.51 108.34 28.61 107.41 26.73 C 106.84 25.89 106.28 25.03 105.74 24.17 C 103.69 21.61 101.35 19.28 98.80 17.22 C 97.94 16.68 97.08 16.14 96.22 15.60 C 93.18 14.03 90.00 12.60 86.55 12.25 L 86.52 11.52 C 68.17 11.67 49.82 11.66 31.48 11.53 L 31.44 12.20 C 28.17 13.22 24.78 13.91 21.76 15.58 Z" />
<path fill="#f7fbf8" opacity="1.00" d=" M 45.94 37.98 C 47.87 38.06 49.81 38.14 51.75 38.20 C 51.72 38.65 51.68 39.55 51.66 40.00 C 54.57 40.00 57.47 40.00 60.38 40.00 C 60.41 40.57 60.47 41.71 60.50 42.29 C 61.05 40.87 61.61 39.47 62.18 38.06 C 64.12 38.18 66.06 38.31 68.00 38.43 C 67.78 38.93 67.35 39.94 67.14 40.44 C 69.97 40.38 72.80 40.38 75.63 40.36 C 75.62 41.99 75.62 43.62 75.62 45.25 C 73.14 45.63 72.77 48.33 71.78 50.18 C 73.43 50.63 75.08 51.05 76.74 51.44 C 75.57 53.64 74.51 55.90 73.36 58.11 C 71.05 57.13 68.82 56.01 66.57 54.91 C 67.19 55.43 68.43 56.46 69.05 56.98 C 67.07 58.55 64.60 59.74 63.25 61.95 C 63.94 61.65 65.34 61.03 66.03 60.72 C 66.14 60.37 66.35 59.66 66.45 59.31 C 67.82 58.76 69.17 58.19 70.53 57.62 C 72.32 60.10 74.11 62.59 75.85 65.12 C 74.91 65.52 73.04 66.32 72.11 66.72 C 73.31 67.22 74.52 67.71 75.73 68.20 C 74.54 69.71 73.39 71.24 72.24 72.78 C 69.24 71.22 66.19 69.73 63.11 68.34 C 63.05 73.15 57.59 71.85 54.41 71.98 C 54.14 71.29 53.61 69.91 53.34 69.22 C 50.97 70.39 48.60 71.53 46.22 72.68 C 44.91 71.24 43.55 69.84 42.14 68.49 C 43.90 67.87 45.66 67.24 47.39 66.54 C 46.60 66.58 45.03 66.66 44.24 66.70 C 44.15 65.16 44.05 63.61 43.95 62.07 C 47.78 61.83 51.72 61.90 55.40 60.70 C 52.36 60.65 49.33 60.93 46.29 60.93 C 46.21 59.68 46.13 58.42 46.05 57.17 C 47.54 56.99 49.02 56.78 50.50 56.55 C 48.46 56.19 46.40 56.00 44.34 55.86 C 44.36 54.57 44.38 53.29 44.40 52.01 C 43.80 52.00 42.60 52.00 42.00 52.00 C 42.00 50.73 42.00 49.46 42.00 48.20 C 42.70 48.17 44.10 48.11 44.80 48.08 C 43.86 46.80 42.91 45.52 41.97 44.24 C 43.41 42.23 44.73 40.14 45.94 37.98 M 48.44 44.87 C 52.04 45.13 55.93 45.83 59.34 44.31 C 55.74 44.05 51.84 43.29 48.44 44.87 M 49.21 47.23 C 49.78 47.85 49.78 47.85 49.21 47.23 M 53.37 47.19 C 53.71 47.96 53.71 47.96 53.37 47.19 M 58.27 47.20 C 58.83 47.83 58.83 47.83 58.27 47.20 M 59.79 48.04 C 61.10 51.15 57.44 52.26 58.34 55.23 C 57.95 55.74 57.18 56.76 56.79 57.27 C 58.08 57.09 59.37 56.89 60.65 56.65 C 60.18 55.51 58.95 54.58 59.18 53.25 C 60.36 52.45 61.60 51.74 62.75 50.90 C 62.16 49.59 61.07 48.66 59.79 48.04 M 49.18 52.38 C 49.79 53.03 49.79 53.03 49.18 52.38 M 52.46 52.16 C 52.62 55.45 55.50 50.64 52.46 52.16 M 53.69 66.43 C 54.58 67.83 55.46 67.85 56.33 66.48 C 55.46 65.09 54.57 65.08 53.69 66.43 Z" />
</g>
</svg>
