<?xml version="1.0" encoding="UTF-8" ?>
<!DOCTYPE svg PUBLIC "-//W3C//DTD SVG 1.1//EN" "http://www.w3.org/Graphics/SVG/1.1/DTD/svg11.dtd">
<svg width="117px" height="140px" viewBox="0 0 117 140" version="1.1" xmlns="http://www.w3.org/2000/svg">
<g id="#000000ff">
<path fill="#000000" opacity="1.00" d=" M 0.00 0.00 L 117.00 0.00 L 117.00 140.00 L 0.00 140.00 L 0.00 0.00 M 41.27 77.85 C 52.42 77.89 63.58 77.89 74.73 77.85 C 74.76 66.80 74.74 55.75 74.74 44.70 C 74.01 44.73 72.55 44.79 71.81 44.82 C 71.79 54.92 71.82 65.02 71.80 75.12 C 62.60 75.13 53.40 75.13 44.20 75.12 C 44.18 62.32 44.22 49.52 44.17 36.73 C 50.99 36.68 57.81 36.76 64.64 36.69 C 64.58 35.71 64.51 34.72 64.45 33.74 C 56.76 33.77 49.05 33.82 41.36 33.71 C 41.13 48.42 41.31 63.14 41.27 77.85 M 65.95 36.01 C 65.90 38.43 65.89 40.85 65.90 43.27 C 68.36 43.32 70.82 43.32 73.28 43.24 C 70.92 40.75 68.52 38.29 65.95 36.01 M 47.74 44.71 C 47.75 45.42 47.79 46.84 47.80 47.55 C 50.73 47.79 53.67 47.63 56.61 47.62 C 56.59 46.89 56.55 45.43 56.53 44.70 C 53.60 44.71 50.67 44.71 47.74 44.71 M 47.78 49.81 C 47.78 50.55 47.77 52.01 47.77 52.75 C 52.63 52.76 57.49 52.73 62.35 52.77 C 62.35 52.03 62.35 50.55 62.35 49.81 C 57.49 49.81 52.64 49.80 47.78 49.81 M 47.70 55.12 C 47.73 55.80 47.77 57.16 47.80 57.84 C 51.69 57.84 55.58 57.84 59.48 57.84 C 59.46 57.11 59.43 55.64 59.41 54.91 C 55.51 54.98 51.59 54.69 47.70 55.12 M 47.77 60.16 C 47.77 60.84 47.78 62.22 47.78 62.90 C 48.51 62.91 49.96 62.91 50.68 62.92 C 50.69 62.22 50.69 60.84 50.70 60.15 C 49.97 60.15 48.50 60.16 47.77 60.16 Z" />
</g>
<g id="#f6faf6ff">
<path fill="#f6faf6" opacity="1.00" d=" M 41.27 77.85 C 41.31 63.14 41.13 48.42 41.36 33.71 C 49.05 33.82 56.76 33.77 64.45 33.74 C 64.51 34.72 64.58 35.71 64.64 36.69 C 57.81 36.76 50.99 36.68 44.17 36.73 C 44.22 49.52 44.18 62.32 44.20 75.12 C 53.40 75.13 62.60 75.13 71.80 75.12 C 71.82 65.02 71.79 54.92 71.81 44.82 C 72.55 44.79 74.01 44.73 74.74 44.70 C 74.74 55.75 74.76 66.80 74.73 77.85 C 63.58 77.89 52.42 77.89 41.27 77.85 Z" />
<path fill="#f6faf6" opacity="1.00" d=" M 65.95 36.01 C 68.52 38.29 70.92 40.75 73.28 43.24 C 70.82 43.32 68.36 43.32 65.90 43.27 C 65.89 40.85 65.90 38.43 65.95 36.01 Z" />
<path fill="#f6faf6" opacity="1.00" d=" M 47.74 44.71 C 50.67 44.71 53.60 44.71 56.53 44.70 C 56.55 45.43 56.59 46.89 56.61 47.62 C 53.67 47.63 50.73 47.79 47.80 47.55 C 47.79 46.84 47.75 45.42 47.74 44.71 Z" />
<path fill="#f6faf6" opacity="1.00" d=" M 47.78 49.81 C 52.64 49.80 57.49 49.81 62.35 49.81 C 62.35 50.55 62.35 52.03 62.35 52.77 C 57.49 52.73 52.63 52.76 47.77 52.75 C 47.77 52.01 47.78 50.55 47.78 49.81 Z" />
<path fill="#f6faf6" opacity="1.00" d=" M 47.70 55.12 C 51.59 54.69 55.51 54.98 59.41 54.91 C 59.43 55.64 59.46 57.11 59.48 57.84 C 55.58 57.84 51.69 57.84 47.80 57.84 C 47.77 57.16 47.73 55.80 47.70 55.12 Z" />
<path fill="#f6faf6" opacity="1.00" d=" M 47.77 60.16 C 48.50 60.16 49.97 60.15 50.70 60.15 C 50.69 60.84 50.69 62.22 50.68 62.92 C 49.96 62.91 48.51 62.91 47.78 62.90 C 47.78 62.22 47.77 60.84 47.77 60.16 Z" />
</g>
</svg>
