<?xml version="1.0" encoding="UTF-8" ?>
<!DOCTYPE svg PUBLIC "-//W3C//DTD SVG 1.1//EN" "http://www.w3.org/Graphics/SVG/1.1/DTD/svg11.dtd">
<svg width="117px" height="140px" viewBox="0 0 117 140" version="1.1" xmlns="http://www.w3.org/2000/svg">
<g id="#000000ff">
<path fill="#000000" opacity="1.00" d=" M 0.00 0.00 L 117.00 0.00 L 117.00 140.00 L 0.00 140.00 L 0.00 0.00 M 30.25 10.53 L 30.85 11.39 C 29.18 11.47 27.27 11.15 26.00 12.55 C 25.60 12.42 24.81 12.17 24.41 12.05 L 24.69 13.71 C 24.11 13.56 22.94 13.25 22.36 13.10 L 22.67 14.72 C 22.12 14.57 21.01 14.29 20.46 14.15 L 20.65 15.73 L 18.92 15.29 C 18.82 15.64 18.61 16.34 18.50 16.69 L 17.27 16.34 L 17.74 17.17 C 16.16 17.61 15.02 18.76 14.07 20.04 C 13.15 20.70 12.51 21.57 12.15 22.66 L 11.97 22.52 C 11.25 23.30 10.51 24.07 9.75 24.80 C 9.66 25.56 9.48 27.06 9.39 27.81 L 8.10 27.27 C 8.25 27.87 8.54 29.07 8.69 29.67 L 6.95 29.47 C 7.18 29.98 7.62 31.00 7.85 31.51 L 6.46 31.52 C 6.45 32.97 6.45 34.42 6.47 35.87 L 5.51 35.25 C 5.31 58.41 5.31 81.58 5.51 104.74 L 6.53 104.21 C 6.48 105.63 6.44 107.05 6.42 108.48 L 7.76 108.42 C 7.58 108.98 7.21 110.10 7.02 110.66 L 8.29 110.17 C 8.14 113.18 10.57 115.22 11.83 117.69 L 12.24 117.26 C 12.63 118.87 13.67 120.11 15.15 120.82 C 15.67 121.89 16.52 122.57 17.70 122.87 L 17.32 123.18 C 19.02 124.26 20.67 125.53 22.73 125.81 L 22.30 126.90 C 22.91 126.75 24.13 126.46 24.74 126.31 L 24.34 127.89 C 24.76 127.79 25.60 127.59 26.02 127.48 C 27.28 128.93 29.24 128.47 30.91 128.64 L 30.22 129.48 C 49.39 129.70 68.56 129.69 87.73 129.48 L 87.15 128.64 C 88.80 128.45 90.81 128.97 92.00 127.43 C 92.39 127.57 93.17 127.83 93.57 127.97 L 93.35 126.25 C 93.92 126.43 95.07 126.79 95.65 126.96 L 95.25 125.59 C 96.00 125.50 97.48 125.33 98.23 125.25 C 98.93 124.47 99.68 123.75 100.50 123.09 L 100.11 122.43 L 101.57 122.82 L 101.57 121.83 C 102.51 121.40 103.33 120.81 104.03 120.05 C 104.84 119.27 105.44 118.36 105.84 117.31 L 106.17 117.69 C 107.39 115.19 109.92 113.20 109.71 110.16 L 110.95 110.68 C 110.78 110.11 110.43 108.97 110.26 108.40 L 111.56 108.48 C 111.56 107.03 111.54 105.59 111.52 104.15 L 112.49 104.75 C 112.68 81.58 112.69 58.40 112.49 35.24 L 111.53 35.86 C 111.55 34.41 111.55 32.96 111.55 31.51 L 110.16 31.53 C 110.37 31.02 110.80 30.02 111.02 29.52 L 109.20 29.56 C 109.41 29.01 109.83 27.91 110.04 27.35 L 108.85 27.76 C 108.48 25.71 107.25 24.02 106.19 22.30 L 105.77 22.74 C 105.37 21.13 104.32 19.89 102.84 19.17 C 102.33 18.09 101.48 17.42 100.28 17.15 L 100.69 16.80 C 98.97 15.78 97.35 14.45 95.29 14.21 L 95.63 13.04 C 95.06 13.22 93.92 13.57 93.35 13.75 L 93.57 12.05 C 93.18 12.17 92.40 12.42 92.01 12.55 C 90.74 11.15 88.82 11.47 87.16 11.37 L 87.73 10.52 C 68.57 10.31 49.41 10.29 30.25 10.53 Z" />
<path fill="#000000" opacity="1.00" d=" M 28.25 12.47 C 29.75 12.52 31.26 12.56 32.76 12.59 L 32.15 11.54 C 49.70 11.63 67.25 11.71 84.80 11.50 L 84.29 12.39 C 86.12 12.46 87.95 12.54 89.78 12.56 L 89.44 13.55 C 90.28 13.55 91.97 13.53 92.81 13.53 L 92.50 14.97 C 93.00 14.77 94.01 14.36 94.52 14.16 L 94.54 15.70 C 95.08 15.62 96.17 15.44 96.71 15.35 L 96.39 16.95 C 96.82 16.79 97.68 16.46 98.11 16.29 C 98.40 17.77 99.68 18.52 100.85 19.21 C 102.16 20.06 103.27 21.16 103.88 22.62 L 104.15 22.37 C 104.48 23.75 105.34 24.58 106.71 24.87 C 106.55 25.29 106.21 26.15 106.04 26.57 L 107.66 26.31 C 107.57 26.84 107.39 27.91 107.30 28.45 L 108.85 28.50 C 108.64 29.00 108.23 29.99 108.02 30.48 L 109.48 30.21 C 109.47 31.03 109.46 32.68 109.46 33.50 L 110.51 33.28 C 110.48 34.78 110.46 36.28 110.46 37.78 L 111.46 37.14 C 111.35 59.03 111.34 80.94 111.47 102.84 L 110.45 102.24 C 110.45 103.74 110.48 105.24 110.51 106.74 L 109.46 106.48 C 109.46 107.31 109.48 108.97 109.48 109.79 L 108.06 109.50 C 108.25 110.01 108.63 111.03 108.81 111.53 L 107.30 111.54 C 107.39 112.08 107.56 113.17 107.65 113.71 L 106.04 113.42 C 106.21 113.84 106.54 114.69 106.71 115.12 C 105.37 115.43 104.51 116.25 104.15 117.58 L 103.90 117.58 C 103.13 118.71 102.20 119.72 101.28 120.73 L 100.44 120.47 L 100.63 121.20 C 98.77 121.79 97.27 123.07 96.06 124.57 C 95.68 124.49 94.93 124.34 94.55 124.26 L 94.55 125.80 C 94.04 125.62 93.01 125.26 92.49 125.08 L 92.79 126.48 C 91.97 126.47 90.32 126.45 89.49 126.44 L 89.75 127.45 C 87.97 127.48 86.19 127.52 84.41 127.59 L 84.78 128.49 C 67.60 128.32 50.40 128.33 33.21 128.48 L 33.59 127.59 C 31.81 127.52 30.03 127.48 28.25 127.45 L 28.51 126.45 C 27.68 126.45 26.03 126.47 25.20 126.48 L 25.50 125.06 C 25.00 125.25 23.98 125.63 23.48 125.82 L 23.45 124.29 C 22.91 124.38 21.83 124.57 21.29 124.66 L 21.63 123.05 C 21.20 123.21 20.32 123.54 19.88 123.71 C 19.59 122.34 18.76 121.50 17.41 121.18 L 17.48 120.94 C 16.26 120.13 15.15 119.16 14.30 117.95 C 13.54 116.77 12.83 115.42 11.30 115.10 C 11.46 114.67 11.79 113.83 11.95 113.40 L 10.35 113.70 C 10.44 113.16 10.62 112.07 10.71 111.52 L 9.21 111.56 C 9.38 111.05 9.73 110.03 9.90 109.51 L 8.50 109.75 C 8.51 108.93 8.54 107.30 8.56 106.49 L 7.56 106.75 C 7.53 104.92 7.44 103.11 7.37 101.29 L 6.50 101.81 C 6.70 80.26 6.64 58.71 6.53 37.16 L 7.55 37.75 C 7.54 36.26 7.52 34.76 7.48 33.26 L 8.56 33.54 C 8.54 32.71 8.50 31.05 8.48 30.22 L 9.84 30.73 C 9.70 30.15 9.42 28.99 9.28 28.41 L 10.79 28.41 C 10.69 28.04 10.50 27.32 10.40 26.95 C 11.93 25.75 13.18 24.22 13.82 22.37 L 14.13 22.49 C 14.82 21.28 15.79 20.29 16.71 19.26 L 17.15 19.59 C 18.19 18.60 19.44 17.73 19.92 16.29 C 20.35 16.47 21.20 16.82 21.62 17.00 L 21.26 15.38 C 21.81 15.45 22.93 15.61 23.48 15.69 L 23.50 14.14 C 24.00 14.36 25.00 14.78 25.50 14.99 L 25.18 13.54 C 26.03 13.54 27.72 13.54 28.56 13.54 L 28.25 12.47 M 41.33 28.05 C 41.37 34.87 41.31 41.69 41.37 48.51 C 39.61 48.58 37.82 48.45 36.09 48.84 C 33.54 49.77 34.10 52.84 33.99 54.96 C 34.14 61.66 33.85 68.36 34.11 75.06 C 34.09 77.04 36.15 78.16 37.94 77.96 C 51.98 77.98 66.03 77.99 80.07 77.96 C 81.87 78.17 83.93 77.02 83.89 75.03 C 84.14 68.18 83.86 61.32 83.99 54.47 C 81.54 54.47 79.09 54.48 76.63 54.47 C 76.68 45.66 76.62 36.86 76.67 28.05 C 64.89 28.01 53.11 28.01 41.33 28.05 Z" />
<path fill="#000000" opacity="1.00" d=" M 44.28 30.92 C 54.09 30.91 63.90 30.91 73.72 30.92 C 73.74 37.78 73.61 44.64 73.80 51.50 C 67.38 51.52 60.96 51.53 54.53 51.49 C 54.57 49.55 54.62 47.62 54.69 45.68 C 51.20 45.63 47.72 45.65 44.23 45.62 C 44.33 40.72 44.29 35.82 44.28 30.92 M 47.21 33.87 C 47.20 34.60 47.18 36.05 47.16 36.78 C 55.05 36.83 62.95 36.84 70.84 36.78 C 70.83 36.05 70.80 34.60 70.79 33.87 C 62.93 33.86 55.07 33.86 47.21 33.87 M 47.14 39.79 C 47.14 40.51 47.16 41.96 47.16 42.69 C 55.05 42.74 62.95 42.74 70.84 42.69 C 70.84 41.96 70.86 40.51 70.86 39.79 C 62.95 39.76 55.05 39.76 47.14 39.79 M 57.27 45.68 C 57.36 46.38 57.55 47.77 57.64 48.46 C 62.03 48.77 66.44 48.52 70.84 48.57 C 70.85 47.85 70.88 46.40 70.89 45.68 C 66.35 45.63 61.81 45.62 57.27 45.68 Z" />
<path fill="#000000" opacity="1.00" d=" M 36.91 51.54 C 40.82 51.51 44.73 51.52 48.64 51.55 C 48.92 53.12 48.38 55.07 49.60 56.35 C 50.73 57.61 52.48 57.37 54.00 57.44 C 63.02 57.40 72.03 57.45 81.05 57.40 C 81.12 63.29 81.07 69.19 81.09 75.09 C 66.36 75.09 51.64 75.09 36.91 75.09 C 36.91 67.24 36.91 59.39 36.91 51.54 Z" />
</g>
<g id="#f5f9f7ff">
<path fill="#f5f9f7" opacity="1.00" d=" M 30.25 10.53 C 49.41 10.29 68.57 10.31 87.73 10.52 L 87.16 11.37 C 88.82 11.47 90.74 11.15 92.01 12.55 C 92.40 12.42 93.18 12.17 93.57 12.05 L 93.35 13.75 C 93.92 13.57 95.06 13.22 95.63 13.04 L 95.29 14.21 C 97.35 14.45 98.97 15.78 100.69 16.80 L 100.28 17.15 C 101.48 17.42 102.33 18.09 102.84 19.17 C 104.32 19.89 105.37 21.13 105.77 22.74 L 106.19 22.30 C 107.25 24.02 108.48 25.71 108.85 27.76 L 110.04 27.35 C 109.83 27.91 109.41 29.01 109.20 29.56 L 111.02 29.52 C 110.80 30.02 110.37 31.02 110.16 31.53 L 111.55 31.51 C 111.55 32.96 111.55 34.41 111.53 35.86 L 112.49 35.24 C 112.69 58.40 112.68 81.58 112.49 104.75 L 111.52 104.15 C 111.54 105.59 111.56 107.03 111.56 108.48 L 110.26 108.40 C 110.43 108.97 110.78 110.11 110.95 110.68 L 109.71 110.16 C 109.92 113.20 107.39 115.19 106.17 117.69 L 105.84 117.31 C 105.44 118.36 104.84 119.27 104.03 120.05 C 103.33 120.81 102.51 121.40 101.57 121.83 L 101.57 122.82 L 100.11 122.43 L 100.50 123.09 C 99.68 123.75 98.93 124.47 98.23 125.25 C 97.48 125.33 96.00 125.50 95.25 125.59 L 95.65 126.96 C 95.07 126.79 93.92 126.43 93.35 126.25 L 93.57 127.97 C 93.17 127.83 92.39 127.57 92.00 127.43 C 90.81 128.97 88.80 128.45 87.15 128.64 L 87.73 129.48 C 68.56 129.69 49.39 129.70 30.22 129.48 L 30.91 128.64 C 29.24 128.47 27.28 128.93 26.02 127.48 C 25.60 127.59 24.76 127.79 24.34 127.89 L 24.74 126.31 C 24.13 126.46 22.91 126.75 22.30 126.90 L 22.73 125.81 C 20.67 125.53 19.02 124.26 17.32 123.18 L 17.70 122.87 C 16.52 122.57 15.67 121.89 15.15 120.82 C 13.67 120.11 12.63 118.87 12.24 117.26 L 11.83 117.69 C 10.57 115.22 8.14 113.18 8.29 110.17 L 7.02 110.66 C 7.21 110.10 7.58 108.98 7.76 108.42 L 6.42 108.48 C 6.44 107.05 6.48 105.63 6.53 104.21 L 5.51 104.74 C 5.31 81.58 5.31 58.41 5.51 35.25 L 6.47 35.87 C 6.45 34.42 6.45 32.97 6.46 31.52 L 7.85 31.51 C 7.62 31.00 7.18 29.98 6.95 29.47 L 8.69 29.67 C 8.54 29.07 8.25 27.87 8.10 27.27 L 9.39 27.81 C 9.48 27.06 9.66 25.56 9.75 24.80 C 10.51 24.07 11.25 23.30 11.97 22.52 L 12.15 22.66 C 12.51 21.57 13.15 20.70 14.07 20.04 C 15.02 18.76 16.16 17.61 17.74 17.17 L 17.27 16.34 L 18.50 16.69 C 18.61 16.34 18.82 15.64 18.92 15.29 L 20.65 15.73 L 20.46 14.15 C 21.01 14.29 22.12 14.57 22.67 14.72 L 22.36 13.10 C 22.94 13.25 24.11 13.56 24.69 13.71 L 24.41 12.05 C 24.81 12.17 25.60 12.42 26.00 12.55 C 27.27 11.15 29.18 11.47 30.85 11.39 L 30.25 10.53 M 28.25 12.47 L 28.56 13.54 C 27.72 13.54 26.03 13.54 25.18 13.54 L 25.50 14.99 C 25.00 14.78 24.00 14.36 23.50 14.14 L 23.48 15.69 C 22.93 15.61 21.81 15.45 21.26 15.38 L 21.62 17.00 C 21.20 16.82 20.35 16.47 19.92 16.29 C 19.44 17.73 18.19 18.60 17.15 19.59 L 16.71 19.26 C 15.79 20.29 14.82 21.28 14.13 22.49 L 13.82 22.37 C 13.18 24.22 11.93 25.75 10.40 26.95 C 10.50 27.32 10.69 28.04 10.79 28.41 L 9.28 28.41 C 9.42 28.99 9.70 30.15 9.84 30.73 L 8.48 30.22 C 8.50 31.05 8.54 32.71 8.56 33.54 L 7.48 33.26 C 7.52 34.76 7.54 36.26 7.55 37.75 L 6.53 37.16 C 6.64 58.71 6.70 80.26 6.50 101.81 L 7.37 101.29 C 7.44 103.11 7.53 104.92 7.56 106.75 L 8.56 106.49 C 8.54 107.30 8.51 108.93 8.50 109.75 L 9.90 109.51 C 9.73 110.03 9.38 111.05 9.21 111.56 L 10.71 111.52 C 10.62 112.07 10.44 113.16 10.35 113.70 L 11.95 113.40 C 11.79 113.83 11.46 114.67 11.30 115.10 C 12.83 115.42 13.54 116.77 14.30 117.95 C 15.15 119.16 16.26 120.13 17.48 120.94 L 17.41 121.18 C 18.76 121.50 19.59 122.34 19.88 123.71 C 20.32 123.54 21.20 123.21 21.63 123.05 L 21.29 124.66 C 21.83 124.57 22.91 124.38 23.45 124.29 L 23.48 125.82 C 23.98 125.63 25.00 125.25 25.50 125.06 L 25.20 126.48 C 26.03 126.47 27.68 126.45 28.51 126.45 L 28.25 127.45 C 30.03 127.48 31.81 127.52 33.59 127.59 L 33.21 128.48 C 50.40 128.33 67.60 128.32 84.78 128.49 L 84.41 127.59 C 86.19 127.52 87.97 127.48 89.75 127.45 L 89.49 126.44 C 90.32 126.45 91.97 126.47 92.79 126.48 L 92.49 125.08 C 93.01 125.26 94.04 125.62 94.55 125.80 L 94.55 124.26 C 94.93 124.34 95.68 124.49 96.06 124.57 C 97.27 123.07 98.77 121.79 100.63 121.20 L 100.44 120.47 L 101.28 120.73 C 102.20 119.72 103.13 118.71 103.90 117.58 L 104.15 117.58 C 104.51 116.25 105.37 115.43 106.71 115.12 C 106.54 114.69 106.21 113.84 106.04 113.42 L 107.65 113.71 C 107.56 113.17 107.39 112.08 107.30 111.54 L 108.81 111.53 C 108.63 111.03 108.25 110.01 108.06 109.50 L 109.48 109.79 C 109.48 108.97 109.46 107.31 109.46 106.48 L 110.51 106.74 C 110.48 105.24 110.45 103.74 110.45 102.24 L 111.47 102.84 C 111.34 80.94 111.35 59.03 111.46 37.14 L 110.46 37.78 C 110.46 36.28 110.48 34.78 110.51 33.28 L 109.46 33.50 C 109.46 32.68 109.47 31.03 109.48 30.21 L 108.02 30.48 C 108.23 29.99 108.64 29.00 108.85 28.50 L 107.30 28.45 C 107.39 27.91 107.57 26.84 107.66 26.31 L 106.04 26.57 C 106.21 26.15 106.55 25.29 106.71 24.87 C 105.34 24.58 104.48 23.75 104.15 22.37 L 103.88 22.62 C 103.27 21.16 102.16 20.06 100.85 19.21 C 99.68 18.52 98.40 17.77 98.11 16.29 C 97.68 16.46 96.82 16.79 96.39 16.95 L 96.71 15.35 C 96.17 15.44 95.08 15.62 94.54 15.70 L 94.52 14.16 C 94.01 14.36 93.00 14.77 92.50 14.97 L 92.81 13.53 C 91.97 13.53 90.28 13.55 89.44 13.55 L 89.78 12.56 C 87.95 12.54 86.12 12.46 84.29 12.39 L 84.80 11.50 C 67.25 11.71 49.70 11.63 32.15 11.54 L 32.76 12.59 C 31.26 12.56 29.75 12.52 28.25 12.47 Z" />
<path fill="#f5f9f7" opacity="1.00" d=" M 41.33 28.05 C 53.11 28.01 64.89 28.01 76.67 28.05 C 76.62 36.86 76.68 45.66 76.63 54.47 C 79.09 54.48 81.54 54.47 83.99 54.47 C 83.86 61.32 84.14 68.18 83.89 75.03 C 83.93 77.02 81.87 78.17 80.07 77.96 C 66.03 77.99 51.98 77.98 37.94 77.96 C 36.15 78.16 34.09 77.04 34.11 75.06 C 33.85 68.36 34.14 61.66 33.99 54.96 C 34.10 52.84 33.54 49.77 36.09 48.84 C 37.82 48.45 39.61 48.58 41.37 48.51 C 41.31 41.69 41.37 34.87 41.33 28.05 M 44.28 30.92 C 44.29 35.82 44.33 40.72 44.23 45.62 C 47.72 45.65 51.20 45.63 54.69 45.68 C 54.62 47.62 54.57 49.55 54.53 51.49 C 60.96 51.53 67.38 51.52 73.80 51.50 C 73.61 44.64 73.74 37.78 73.72 30.92 C 63.90 30.91 54.09 30.91 44.28 30.92 M 36.91 51.54 C 36.91 59.39 36.91 67.24 36.91 75.09 C 51.64 75.09 66.36 75.09 81.09 75.09 C 81.07 69.19 81.12 63.29 81.05 57.40 C 72.03 57.45 63.02 57.40 54.00 57.44 C 52.48 57.37 50.73 57.61 49.60 56.35 C 48.38 55.07 48.92 53.12 48.64 51.55 C 44.73 51.52 40.82 51.51 36.91 51.54 Z" />
<path fill="#f5f9f7" opacity="1.00" d=" M 47.21 33.87 C 55.07 33.86 62.93 33.86 70.79 33.87 C 70.80 34.60 70.83 36.05 70.84 36.78 C 62.95 36.84 55.05 36.83 47.16 36.78 C 47.18 36.05 47.20 34.60 47.21 33.87 Z" />
<path fill="#f5f9f7" opacity="1.00" d=" M 47.14 39.79 C 55.05 39.76 62.95 39.76 70.86 39.79 C 70.86 40.51 70.84 41.96 70.84 42.69 C 62.95 42.74 55.05 42.74 47.16 42.69 C 47.16 41.96 47.14 40.51 47.14 39.79 Z" />
<path fill="#f5f9f7" opacity="1.00" d=" M 57.27 45.68 C 61.81 45.62 66.35 45.63 70.89 45.68 C 70.88 46.40 70.85 47.85 70.84 48.57 C 66.44 48.52 62.03 48.77 57.64 48.46 C 57.55 47.77 57.36 46.38 57.27 45.68 Z" />
</g>
</svg>
