<?xml version="1.0" encoding="UTF-8" ?>
<!DOCTYPE svg PUBLIC "-//W3C//DTD SVG 1.1//EN" "http://www.w3.org/Graphics/SVG/1.1/DTD/svg11.dtd">
<svg width="117px" height="140px" viewBox="0 0 117 140" version="1.1" xmlns="http://www.w3.org/2000/svg">
<g id="#000000ff">
<path fill="#000000" opacity="1.00" d=" M 0.00 0.00 L 117.00 0.00 L 117.00 140.00 L 0.00 140.00 L 0.00 0.00 M 27.17 11.72 L 27.97 12.45 C 27.10 12.45 25.36 12.45 24.49 12.46 L 24.53 13.83 C 24.06 13.64 23.13 13.27 22.66 13.09 L 22.61 14.66 C 22.15 14.56 21.24 14.37 20.79 14.28 L 20.52 15.11 C 19.12 15.96 17.76 16.89 16.38 17.79 L 16.82 18.55 L 15.38 18.36 L 15.59 19.89 L 14.30 18.95 L 14.60 20.03 C 14.24 20.47 13.51 21.35 13.15 21.79 L 12.81 21.37 C 11.90 22.76 10.96 24.13 10.10 25.54 L 9.28 25.77 C 9.38 26.23 9.57 27.15 9.67 27.60 L 8.12 27.64 C 8.29 28.11 8.63 29.05 8.80 29.52 L 7.73 29.48 C 6.66 33.25 5.28 37.02 5.39 41.00 C 5.37 60.32 5.37 79.64 5.39 98.96 C 5.29 102.93 6.64 106.71 7.72 110.48 L 8.75 110.47 C 8.60 110.94 8.30 111.90 8.15 112.38 L 9.67 112.39 C 9.57 112.85 9.38 113.75 9.28 114.21 L 10.11 114.48 C 10.96 115.88 11.89 117.23 12.79 118.60 L 13.38 118.11 C 13.49 118.58 13.69 119.53 13.80 120.00 C 14.73 120.62 15.67 121.24 16.61 121.87 L 16.42 122.24 C 17.77 123.12 19.11 124.03 20.49 124.87 C 20.59 125.10 20.78 125.56 20.88 125.79 L 22.50 125.24 L 22.67 126.87 C 23.14 126.70 24.07 126.37 24.53 126.20 L 24.47 127.27 C 28.25 128.34 32.05 129.68 36.03 129.62 C 51.04 129.63 66.04 129.62 81.05 129.62 C 85.34 129.79 89.46 128.46 93.53 127.27 L 93.48 126.19 C 93.95 126.37 94.90 126.72 95.37 126.90 L 95.38 125.35 C 95.83 125.44 96.75 125.62 97.21 125.71 L 97.49 124.88 C 98.87 124.04 100.21 123.12 101.57 122.24 L 101.38 121.89 C 102.33 121.26 103.28 120.62 104.24 119.98 C 104.31 119.52 104.44 118.59 104.51 118.13 L 105.21 118.62 C 106.11 117.24 107.04 115.88 107.89 114.47 L 108.72 114.22 C 108.62 113.76 108.43 112.86 108.33 112.40 L 109.88 112.36 C 109.71 111.89 109.37 110.94 109.20 110.47 L 110.27 110.52 C 111.33 106.75 112.71 102.99 112.61 99.02 C 112.64 79.67 112.64 60.33 112.60 40.99 C 112.71 37.01 111.33 33.24 110.27 29.48 L 109.20 29.53 C 109.37 29.05 109.71 28.11 109.88 27.63 L 108.35 27.62 C 108.44 27.16 108.62 26.25 108.71 25.79 L 107.89 25.51 C 107.03 24.11 106.10 22.77 105.20 21.40 L 104.55 21.80 C 104.47 21.35 104.30 20.44 104.21 19.99 C 103.28 19.38 102.36 18.76 101.45 18.12 L 101.53 17.72 C 100.19 16.85 98.87 15.96 97.50 15.13 C 97.41 14.91 97.23 14.45 97.14 14.22 L 95.49 14.75 L 95.31 13.10 C 94.85 13.28 93.93 13.65 93.47 13.83 L 93.52 12.46 C 92.65 12.46 90.91 12.45 90.04 12.44 L 90.82 11.72 C 87.89 11.25 85.01 10.36 82.02 10.39 C 67.00 10.35 51.99 10.39 36.97 10.37 C 33.64 10.24 30.42 11.15 27.17 11.72 Z" />
<path fill="#000000" opacity="1.00" d=" M 25.35 13.68 C 27.49 13.15 29.62 12.54 31.80 12.16 L 31.02 11.56 C 49.66 11.67 68.29 11.67 86.93 11.56 L 86.25 12.16 C 88.39 12.55 90.50 13.15 92.62 13.68 L 92.77 14.15 C 94.04 14.63 95.29 15.14 96.56 15.64 L 96.74 16.70 C 97.23 16.58 98.21 16.34 98.71 16.23 L 98.07 17.79 L 99.11 17.28 C 101.36 19.44 103.57 21.64 105.72 23.89 L 105.18 24.92 L 106.75 24.29 C 106.65 24.78 106.43 25.75 106.33 26.24 L 107.22 26.46 C 107.97 28.05 108.79 29.62 109.66 31.16 L 109.10 32.49 C 109.42 32.42 110.07 32.27 110.40 32.19 C 110.45 33.71 110.50 35.23 110.56 36.75 L 111.43 36.09 C 111.27 58.45 111.48 80.81 111.33 103.17 C 110.74 104.66 110.41 106.23 110.15 107.81 C 109.87 107.73 109.33 107.57 109.06 107.49 L 109.70 108.95 C 109.35 109.50 108.63 110.58 108.28 111.13 C 108.03 111.75 107.54 113.00 107.30 113.62 L 106.32 113.71 C 106.42 114.21 106.64 115.20 106.74 115.69 L 105.11 115.10 L 105.74 116.09 C 103.57 118.36 101.35 120.58 99.07 122.76 L 98.09 122.07 L 98.69 123.73 C 98.20 123.63 97.21 123.43 96.72 123.34 L 96.60 124.20 C 95.02 124.94 93.48 125.74 91.96 126.59 C 91.56 126.49 90.77 126.30 90.38 126.20 L 90.85 127.40 C 89.32 127.44 87.79 127.50 86.26 127.55 L 86.89 128.43 C 68.29 128.34 49.68 128.34 31.08 128.43 L 31.76 127.56 C 30.23 127.50 28.70 127.44 27.16 127.40 L 27.57 126.10 C 27.20 126.23 26.48 126.49 26.11 126.62 C 24.56 125.78 22.99 124.95 21.39 124.19 L 21.28 123.32 C 20.78 123.43 19.79 123.65 19.30 123.76 L 19.91 122.20 L 18.88 122.72 C 16.63 120.56 14.43 118.35 12.27 116.10 L 12.82 115.08 L 11.22 115.69 C 11.34 115.21 11.57 114.24 11.69 113.76 L 10.79 113.57 C 10.03 111.98 9.23 110.43 8.38 108.90 C 8.49 108.54 8.71 107.81 8.82 107.45 L 7.61 107.84 C 7.55 106.31 7.50 104.78 7.43 103.25 L 6.57 103.91 C 6.73 81.55 6.52 59.19 6.68 36.84 C 7.29 35.32 7.61 33.71 7.86 32.11 L 8.80 32.64 C 8.70 32.25 8.50 31.46 8.40 31.06 C 9.26 29.53 10.06 27.97 10.81 26.39 L 11.70 26.28 C 11.58 25.79 11.34 24.80 11.22 24.31 L 12.78 24.90 L 12.29 23.87 C 14.45 21.62 16.66 19.42 18.91 17.26 L 19.91 17.87 L 19.30 16.26 C 19.80 16.36 20.80 16.58 21.30 16.69 L 21.38 15.68 C 22.66 15.16 23.94 14.65 25.21 14.13 L 25.35 13.68 M 34.52 54.71 C 38.03 59.01 43.07 61.44 48.29 63.00 C 47.94 64.35 47.65 65.71 47.43 67.08 C 49.52 71.00 54.03 72.44 57.90 73.95 C 63.96 75.81 69.83 78.38 76.11 79.43 C 77.82 78.44 79.86 77.68 80.88 75.86 C 82.79 73.11 81.72 69.63 80.60 66.79 C 77.82 58.97 76.45 49.86 69.32 44.58 C 68.11 44.62 65.97 46.62 65.65 44.62 C 64.17 39.57 60.81 35.51 56.92 32.09 C 49.45 39.63 41.67 46.88 34.52 54.71 Z" />
<path fill="#000000" opacity="1.00" d=" M 38.93 54.42 C 45.08 48.22 51.08 41.83 57.59 36.01 C 61.86 40.18 62.97 46.21 64.54 51.72 C 65.99 50.29 67.44 48.85 68.90 47.43 C 70.17 49.03 71.67 50.47 72.63 52.29 C 74.74 58.52 76.88 64.75 78.80 71.04 C 79.81 73.27 77.57 74.86 76.38 76.43 C 72.08 75.87 68.05 74.13 63.97 72.73 C 59.10 71.20 53.97 69.82 50.05 66.38 C 51.43 64.87 52.89 63.43 54.20 61.86 C 49.22 59.39 42.24 59.37 38.93 54.42 Z" />
</g>
<g id="#eef4f4ff">
<path fill="#eef4f4" opacity="1.00" d=" M 27.17 11.72 C 30.42 11.15 33.64 10.24 36.97 10.37 C 51.99 10.39 67.00 10.35 82.02 10.39 C 85.01 10.36 87.89 11.25 90.82 11.72 L 90.04 12.44 C 90.91 12.45 92.65 12.46 93.52 12.46 L 93.47 13.83 C 93.93 13.65 94.85 13.28 95.31 13.10 L 95.49 14.75 L 97.14 14.22 C 97.23 14.45 97.41 14.91 97.50 15.13 C 98.87 15.96 100.19 16.85 101.53 17.72 L 101.45 18.12 C 102.36 18.76 103.28 19.38 104.21 19.99 C 104.30 20.44 104.47 21.35 104.55 21.80 L 105.20 21.40 C 106.10 22.77 107.03 24.11 107.89 25.51 L 108.71 25.79 C 108.62 26.25 108.44 27.16 108.35 27.62 L 109.88 27.63 C 109.71 28.11 109.37 29.05 109.20 29.53 L 110.27 29.48 C 111.33 33.24 112.71 37.01 112.60 40.99 C 112.64 60.33 112.64 79.67 112.61 99.02 C 112.71 102.99 111.33 106.75 110.27 110.52 L 109.20 110.47 C 109.37 110.94 109.71 111.89 109.88 112.36 L 108.33 112.40 C 108.43 112.86 108.62 113.76 108.72 114.22 L 107.89 114.47 C 107.04 115.88 106.11 117.24 105.21 118.62 L 104.51 118.13 C 104.44 118.59 104.31 119.52 104.24 119.98 C 103.28 120.62 102.33 121.26 101.38 121.89 L 101.57 122.24 C 100.21 123.12 98.87 124.04 97.49 124.88 L 97.21 125.71 C 96.75 125.62 95.83 125.44 95.38 125.35 L 95.37 126.90 C 94.90 126.72 93.95 126.37 93.48 126.19 L 93.53 127.27 C 89.46 128.46 85.34 129.79 81.05 129.62 C 66.04 129.62 51.04 129.63 36.03 129.62 C 32.05 129.68 28.25 128.34 24.47 127.27 L 24.53 126.20 C 24.07 126.37 23.14 126.70 22.67 126.87 L 22.50 125.24 L 20.88 125.79 C 20.78 125.56 20.59 125.10 20.49 124.87 C 19.11 124.03 17.77 123.12 16.42 122.24 L 16.61 121.87 C 15.67 121.24 14.73 120.62 13.80 120.00 C 13.69 119.53 13.49 118.58 13.38 118.11 L 12.79 118.60 C 11.89 117.23 10.96 115.88 10.11 114.48 L 9.28 114.21 C 9.38 113.75 9.57 112.85 9.67 112.39 L 8.15 112.38 C 8.30 111.90 8.60 110.94 8.75 110.47 L 7.72 110.48 C 6.64 106.71 5.29 102.93 5.39 98.96 C 5.37 79.64 5.37 60.32 5.39 41.00 C 5.28 37.02 6.66 33.25 7.73 29.48 L 8.80 29.52 C 8.63 29.05 8.29 28.11 8.12 27.64 L 9.67 27.60 C 9.57 27.15 9.38 26.23 9.28 25.77 L 10.10 25.54 C 10.96 24.13 11.90 22.76 12.81 21.37 L 13.15 21.79 C 13.51 21.35 14.24 20.47 14.60 20.03 L 14.30 18.95 L 15.59 19.89 L 15.38 18.36 L 16.82 18.55 L 16.38 17.79 C 17.76 16.89 19.12 15.96 20.52 15.11 L 20.79 14.28 C 21.24 14.37 22.15 14.56 22.61 14.66 L 22.66 13.09 C 23.13 13.27 24.06 13.64 24.53 13.83 L 24.49 12.46 C 25.36 12.45 27.10 12.45 27.97 12.45 L 27.17 11.72 M 25.35 13.68 L 25.21 14.13 C 23.94 14.65 22.66 15.16 21.38 15.68 L 21.30 16.69 C 20.80 16.58 19.80 16.36 19.30 16.26 L 19.91 17.87 L 18.91 17.26 C 16.66 19.42 14.45 21.62 12.29 23.87 L 12.78 24.90 L 11.22 24.31 C 11.34 24.80 11.58 25.79 11.70 26.28 L 10.81 26.39 C 10.06 27.97 9.26 29.53 8.40 31.06 C 8.50 31.46 8.70 32.25 8.80 32.64 L 7.86 32.11 C 7.61 33.71 7.29 35.32 6.68 36.84 C 6.52 59.19 6.73 81.55 6.57 103.91 L 7.43 103.25 C 7.50 104.78 7.55 106.31 7.61 107.84 L 8.82 107.45 C 8.71 107.81 8.49 108.54 8.38 108.90 C 9.23 110.43 10.03 111.98 10.79 113.57 L 11.69 113.76 C 11.57 114.24 11.34 115.21 11.22 115.69 L 12.82 115.08 L 12.27 116.10 C 14.43 118.35 16.63 120.56 18.88 122.72 L 19.91 122.20 L 19.30 123.76 C 19.79 123.65 20.78 123.43 21.28 123.32 L 21.39 124.19 C 22.99 124.95 24.56 125.78 26.11 126.62 C 26.48 126.49 27.20 126.23 27.57 126.10 L 27.16 127.40 C 28.70 127.44 30.23 127.50 31.76 127.56 L 31.08 128.43 C 49.68 128.34 68.29 128.34 86.89 128.43 L 86.26 127.55 C 87.79 127.50 89.32 127.44 90.85 127.40 L 90.38 126.20 C 90.77 126.30 91.56 126.49 91.96 126.59 C 93.48 125.74 95.02 124.94 96.60 124.20 L 96.72 123.34 C 97.21 123.43 98.20 123.63 98.69 123.73 L 98.09 122.07 L 99.07 122.76 C 101.35 120.58 103.57 118.36 105.74 116.09 L 105.11 115.10 L 106.74 115.69 C 106.64 115.20 106.42 114.21 106.32 113.71 L 107.30 113.62 C 107.54 113.00 108.03 111.75 108.28 111.13 C 108.63 110.58 109.35 109.50 109.70 108.95 L 109.06 107.49 C 109.33 107.57 109.87 107.73 110.15 107.81 C 110.41 106.23 110.74 104.66 111.33 103.17 C 111.48 80.81 111.27 58.45 111.43 36.09 L 110.56 36.75 C 110.50 35.23 110.45 33.71 110.40 32.19 C 110.07 32.27 109.42 32.42 109.10 32.49 L 109.66 31.16 C 108.79 29.62 107.97 28.05 107.22 26.46 L 106.33 26.24 C 106.43 25.75 106.65 24.78 106.75 24.29 L 105.18 24.92 L 105.72 23.89 C 103.57 21.64 101.36 19.44 99.11 17.28 L 98.07 17.79 L 98.71 16.23 C 98.21 16.34 97.23 16.58 96.74 16.70 L 96.56 15.64 C 95.29 15.14 94.04 14.63 92.77 14.15 L 92.62 13.68 C 90.50 13.15 88.39 12.55 86.25 12.16 L 86.93 11.56 C 68.29 11.67 49.66 11.67 31.02 11.56 L 31.80 12.16 C 29.62 12.54 27.49 13.15 25.35 13.68 Z" />
<path fill="#eef4f4" opacity="1.00" d=" M 34.52 54.71 C 41.67 46.88 49.45 39.63 56.92 32.09 C 60.81 35.51 64.17 39.57 65.65 44.62 C 65.97 46.62 68.11 44.62 69.32 44.58 C 76.45 49.86 77.82 58.97 80.60 66.79 C 81.72 69.63 82.79 73.11 80.88 75.86 C 79.86 77.68 77.82 78.44 76.11 79.43 C 69.83 78.38 63.96 75.81 57.90 73.95 C 54.03 72.44 49.52 71.00 47.43 67.08 C 47.65 65.71 47.94 64.35 48.29 63.00 C 43.07 61.44 38.03 59.01 34.52 54.71 M 38.93 54.42 C 42.24 59.37 49.22 59.39 54.20 61.86 C 52.89 63.43 51.43 64.87 50.05 66.38 C 53.97 69.82 59.10 71.20 63.97 72.73 C 68.05 74.13 72.08 75.87 76.38 76.43 C 77.57 74.86 79.81 73.27 78.80 71.04 C 76.88 64.75 74.74 58.52 72.63 52.29 C 71.67 50.47 70.17 49.03 68.90 47.43 C 67.44 48.85 65.99 50.29 64.54 51.72 C 62.97 46.21 61.86 40.18 57.59 36.01 C 51.08 41.83 45.08 48.22 38.93 54.42 Z" />
</g>
</svg>
