<?xml version="1.0" encoding="UTF-8" ?>
<!DOCTYPE svg PUBLIC "-//W3C//DTD SVG 1.1//EN" "http://www.w3.org/Graphics/SVG/1.1/DTD/svg11.dtd">
<svg width="117px" height="140px" viewBox="0 0 117 140" version="1.1" xmlns="http://www.w3.org/2000/svg">
<g id="#000000ff">
<path fill="#000000" opacity="1.00" d=" M 0.00 0.00 L 117.00 0.00 L 117.00 140.00 L 0.00 140.00 L 0.00 0.00 M 32.33 10.47 L 32.51 11.37 C 29.74 11.13 27.10 11.89 24.49 12.68 L 24.56 13.78 C 24.08 13.63 23.12 13.32 22.65 13.17 L 22.60 14.68 C 22.14 14.58 21.22 14.38 20.76 14.28 L 20.57 15.27 C 18.99 15.80 17.80 17.01 16.39 17.83 L 16.81 18.96 L 15.43 17.96 L 15.73 19.57 L 13.94 19.54 L 14.83 20.98 L 12.99 20.26 L 13.87 21.85 L 12.83 21.36 C 12.01 22.77 10.86 24.00 10.31 25.55 C 10.03 25.62 9.49 25.76 9.22 25.83 L 9.76 27.50 L 8.16 27.70 C 8.32 28.16 8.65 29.09 8.82 29.56 L 7.47 29.45 C 7.46 30.35 7.44 32.16 7.43 33.06 L 6.45 32.12 C 6.45 33.81 6.48 35.50 6.71 37.17 L 5.66 36.00 C 5.26 41.66 5.42 47.34 5.39 53.00 C 5.54 69.97 5.09 86.95 5.64 103.91 C 5.89 103.70 6.39 103.28 6.64 103.07 C 6.52 104.66 6.46 106.25 6.44 107.85 L 7.47 107.01 C 7.46 107.90 7.45 109.67 7.44 110.56 L 8.86 110.45 C 8.67 110.92 8.29 111.86 8.10 112.33 L 9.63 112.37 C 9.56 112.87 9.42 113.86 9.35 114.36 L 10.33 114.43 C 10.80 116.02 11.98 117.22 12.85 118.58 L 13.90 118.39 L 13.15 119.90 L 14.91 119.08 L 13.92 120.71 L 15.62 120.12 L 15.22 121.73 L 16.59 121.14 L 16.44 122.18 C 17.79 123.04 18.99 124.19 20.55 124.67 C 20.62 124.94 20.74 125.48 20.81 125.75 L 22.58 125.28 L 22.63 126.83 C 23.13 126.67 24.11 126.37 24.60 126.22 L 24.44 127.54 C 25.35 127.55 27.17 127.56 28.09 127.57 L 27.07 128.43 C 30.09 128.39 32.92 129.85 35.99 129.60 C 52.61 129.58 69.23 129.70 85.86 129.52 L 85.10 128.53 C 88.01 128.97 90.81 128.19 93.54 127.31 L 93.38 126.25 C 93.88 126.39 94.89 126.67 95.40 126.80 L 95.34 125.55 C 95.93 125.36 97.13 124.97 97.72 124.77 C 99.02 123.93 100.30 123.05 101.59 122.19 L 101.25 121.14 L 102.70 121.95 L 102.16 120.23 L 103.59 120.96 L 103.35 119.29 L 104.88 119.68 L 104.09 118.32 L 105.20 118.54 C 106.08 117.19 107.15 115.94 107.73 114.42 L 108.67 114.27 C 108.59 113.79 108.43 112.83 108.35 112.35 L 109.81 112.41 C 109.67 111.91 109.39 110.91 109.25 110.40 L 110.56 110.54 C 110.56 109.65 110.55 107.88 110.55 107.00 L 111.57 107.83 C 111.53 106.27 111.47 104.70 111.39 103.14 C 111.64 103.31 112.13 103.66 112.38 103.84 C 112.88 83.23 112.48 62.61 112.60 42.00 C 112.88 37.67 111.28 33.60 110.35 29.45 L 109.25 29.63 C 109.39 29.11 109.67 28.09 109.81 27.58 L 108.37 27.68 C 108.45 27.19 108.60 26.22 108.68 25.74 L 107.67 25.56 C 107.17 23.99 106.04 22.77 105.15 21.42 L 104.11 21.57 L 104.83 20.08 L 103.67 20.73 C 103.55 19.24 102.76 18.45 101.32 18.34 L 101.57 17.81 C 100.17 17.03 99.05 15.78 97.46 15.34 C 97.39 15.05 97.24 14.49 97.17 14.21 L 95.52 14.78 L 95.31 13.17 C 94.84 13.33 93.91 13.64 93.44 13.80 L 93.55 12.46 C 92.65 12.45 90.86 12.44 89.96 12.43 L 90.85 11.49 C 89.44 11.52 88.04 11.45 86.64 11.27 C 84.61 10.16 82.24 10.42 80.02 10.39 C 64.12 10.44 48.23 10.29 32.33 10.47 Z" />
<path fill="#000000" opacity="1.00" d=" M 33.09 11.68 C 50.69 11.41 68.29 11.87 85.88 11.45 C 85.72 11.65 85.40 12.04 85.24 12.24 C 87.74 12.31 90.13 13.01 92.54 13.59 C 92.59 13.86 92.68 14.41 92.72 14.68 L 94.43 14.19 L 94.69 15.56 C 95.16 15.50 96.09 15.37 96.55 15.30 L 96.62 16.66 C 97.16 16.57 98.24 16.39 98.78 16.30 L 98.03 17.95 L 99.52 16.97 L 99.37 18.07 C 101.68 19.42 103.60 21.32 104.93 23.64 L 106.06 23.40 L 104.89 24.84 L 106.60 24.20 C 106.55 24.76 106.44 25.87 106.39 26.43 L 107.72 26.45 C 107.64 26.91 107.49 27.85 107.42 28.31 L 108.69 28.47 C 108.62 28.95 108.50 29.90 108.44 30.37 L 109.91 30.63 C 109.67 31.16 109.18 32.24 108.93 32.78 L 110.41 31.91 C 110.43 33.54 110.44 35.16 110.45 36.79 L 111.44 36.05 C 111.36 57.41 111.36 78.78 111.44 100.15 C 111.38 103.42 109.78 106.38 109.45 109.60 L 108.39 109.62 C 108.47 110.09 108.64 111.01 108.73 111.48 L 107.45 111.71 C 107.51 112.17 107.62 113.09 107.68 113.55 L 106.30 113.64 C 106.41 114.17 106.64 115.22 106.75 115.75 L 105.02 115.03 L 106.11 116.53 L 104.93 116.36 C 103.60 118.66 101.70 120.57 99.40 121.91 L 99.51 123.00 L 98.04 122.09 L 98.76 123.74 C 98.23 123.63 97.17 123.42 96.63 123.31 L 96.54 124.70 C 96.08 124.63 95.17 124.50 94.71 124.43 L 94.54 125.66 C 94.06 125.61 93.08 125.52 92.59 125.47 L 92.37 126.96 C 91.89 126.69 90.91 126.17 90.43 125.91 L 90.88 127.40 C 88.23 127.18 85.72 127.99 83.14 128.36 C 65.77 128.50 48.39 128.25 31.01 128.48 L 31.89 127.69 C 29.67 127.50 27.55 126.85 25.38 126.41 L 25.37 125.36 C 24.92 125.46 24.00 125.66 23.55 125.76 L 23.30 124.45 C 22.84 124.51 21.91 124.63 21.45 124.69 L 21.38 123.34 C 20.84 123.42 19.78 123.60 19.25 123.69 L 19.87 122.00 L 18.44 123.03 L 18.63 121.92 C 16.32 120.59 14.43 118.68 13.08 116.39 L 11.99 116.51 L 12.95 115.05 L 11.30 115.77 C 11.39 115.23 11.57 114.15 11.66 113.61 L 10.30 113.54 C 10.37 113.08 10.50 112.15 10.57 111.69 L 9.25 111.47 C 9.35 111.01 9.54 110.10 9.63 109.64 L 8.58 109.62 C 8.16 107.09 7.19 104.67 7.20 102.09 L 6.30 103.02 C 7.00 88.38 6.41 73.68 6.61 59.02 C 6.51 51.70 6.81 44.38 6.44 37.08 L 7.20 37.74 C 7.33 35.22 8.02 32.81 8.60 30.37 L 9.64 30.37 C 9.55 29.90 9.37 28.98 9.28 28.51 L 10.57 28.31 C 10.50 27.85 10.36 26.92 10.29 26.46 L 11.68 26.38 C 11.58 25.84 11.38 24.78 11.28 24.25 L 12.95 24.93 L 11.94 23.42 L 13.08 23.68 C 14.35 21.32 16.31 19.45 18.61 18.09 L 18.44 17.02 L 19.87 17.92 L 19.26 16.28 C 19.78 16.38 20.83 16.58 21.36 16.68 L 21.52 15.21 L 23.21 15.69 C 23.28 15.35 23.43 14.66 23.51 14.32 C 23.98 14.38 24.92 14.49 25.39 14.55 L 25.64 13.04 C 26.14 13.31 27.13 13.84 27.63 14.11 L 27.07 12.59 C 29.08 12.40 31.37 13.04 33.09 11.68 M 48.23 31.44 C 49.56 34.85 50.90 38.26 52.19 41.69 C 56.46 39.51 61.52 39.48 65.80 41.68 C 67.10 38.26 68.44 34.85 69.77 31.43 C 63.01 28.22 54.98 28.19 48.23 31.44 M 55.34 47.23 C 50.45 49.57 50.30 57.31 55.08 59.85 C 59.55 62.83 66.44 59.43 66.47 53.95 C 66.98 48.34 60.06 44.32 55.34 47.23 M 73.10 55.12 C 72.83 59.85 70.28 64.15 66.24 66.61 C 68.63 69.44 70.98 72.30 73.37 75.13 C 79.55 71.09 83.55 64.22 84.15 56.87 C 80.47 56.29 76.78 55.72 73.10 55.12 M 33.85 56.87 C 34.45 64.22 38.44 71.10 44.64 75.13 C 47.02 72.28 49.39 69.43 51.77 66.58 C 47.70 64.17 45.17 59.84 44.89 55.13 C 41.21 55.72 37.53 56.29 33.85 56.87 Z" />
</g>
<g id="#f7fbf8ff">
<path fill="#f7fbf8" opacity="1.00" d=" M 32.33 10.47 C 48.23 10.29 64.12 10.44 80.02 10.39 C 82.24 10.42 84.61 10.16 86.64 11.27 C 88.04 11.45 89.44 11.52 90.85 11.49 L 89.96 12.43 C 90.86 12.44 92.65 12.45 93.55 12.46 L 93.44 13.80 C 93.91 13.64 94.84 13.33 95.31 13.17 L 95.52 14.78 L 97.17 14.21 C 97.24 14.49 97.39 15.05 97.46 15.34 C 99.05 15.78 100.17 17.03 101.57 17.81 L 101.32 18.34 C 102.76 18.45 103.55 19.24 103.67 20.73 L 104.83 20.08 L 104.11 21.57 L 105.15 21.42 C 106.04 22.77 107.17 23.99 107.67 25.56 L 108.68 25.74 C 108.60 26.22 108.45 27.19 108.37 27.68 L 109.81 27.58 C 109.67 28.09 109.39 29.11 109.25 29.63 L 110.35 29.45 C 111.28 33.60 112.88 37.67 112.60 42.00 C 112.48 62.61 112.88 83.23 112.38 103.84 C 112.13 103.66 111.64 103.31 111.39 103.14 C 111.47 104.70 111.53 106.27 111.57 107.83 L 110.55 107.00 C 110.55 107.88 110.56 109.65 110.56 110.54 L 109.25 110.40 C 109.39 110.91 109.67 111.91 109.81 112.41 L 108.35 112.35 C 108.43 112.83 108.59 113.79 108.67 114.27 L 107.73 114.42 C 107.15 115.94 106.08 117.19 105.20 118.54 L 104.09 118.32 L 104.88 119.68 L 103.35 119.29 L 103.59 120.96 L 102.16 120.23 L 102.70 121.95 L 101.25 121.14 L 101.59 122.19 C 100.30 123.05 99.02 123.93 97.72 124.77 C 97.13 124.97 95.93 125.36 95.34 125.55 L 95.40 126.80 C 94.89 126.67 93.88 126.39 93.38 126.25 L 93.54 127.31 C 90.81 128.19 88.01 128.97 85.10 128.53 L 85.86 129.52 C 69.23 129.70 52.61 129.58 35.99 129.60 C 32.92 129.85 30.09 128.39 27.07 128.43 L 28.09 127.57 C 27.17 127.56 25.35 127.55 24.44 127.54 L 24.60 126.22 C 24.11 126.37 23.13 126.67 22.63 126.83 L 22.58 125.28 L 20.81 125.75 C 20.74 125.48 20.62 124.94 20.55 124.67 C 18.99 124.19 17.79 123.04 16.44 122.18 L 16.59 121.14 L 15.22 121.73 L 15.62 120.12 L 13.92 120.71 L 14.91 119.08 L 13.15 119.90 L 13.90 118.39 L 12.85 118.58 C 11.98 117.22 10.80 116.02 10.33 114.43 L 9.35 114.36 C 9.42 113.86 9.56 112.87 9.63 112.37 L 8.10 112.33 C 8.29 111.86 8.67 110.92 8.86 110.45 L 7.44 110.56 C 7.45 109.67 7.46 107.90 7.47 107.01 L 6.44 107.85 C 6.46 106.25 6.52 104.66 6.64 103.07 C 6.39 103.28 5.89 103.70 5.64 103.91 C 5.09 86.95 5.54 69.97 5.39 53.00 C 5.42 47.34 5.26 41.66 5.66 36.00 L 6.71 37.17 C 6.48 35.50 6.45 33.81 6.45 32.12 L 7.43 33.06 C 7.44 32.16 7.46 30.35 7.47 29.45 L 8.82 29.56 C 8.65 29.09 8.32 28.16 8.16 27.70 L 9.76 27.50 L 9.22 25.83 C 9.49 25.76 10.03 25.62 10.31 25.55 C 10.86 24.00 12.01 22.77 12.83 21.36 L 13.87 21.85 L 12.99 20.26 L 14.83 20.98 L 13.94 19.54 L 15.73 19.57 L 15.43 17.96 L 16.81 18.96 L 16.39 17.83 C 17.80 17.01 18.99 15.80 20.57 15.27 L 20.76 14.28 C 21.22 14.38 22.14 14.58 22.60 14.68 L 22.65 13.17 C 23.12 13.32 24.08 13.63 24.56 13.78 L 24.49 12.68 C 27.10 11.89 29.74 11.13 32.51 11.37 L 32.33 10.47 M 33.09 11.68 C 31.37 13.04 29.08 12.40 27.07 12.59 L 27.63 14.11 C 27.13 13.84 26.14 13.31 25.64 13.04 L 25.39 14.55 C 24.92 14.49 23.98 14.38 23.51 14.32 C 23.43 14.66 23.28 15.35 23.21 15.69 L 21.52 15.21 L 21.36 16.68 C 20.83 16.58 19.78 16.38 19.26 16.28 L 19.87 17.92 L 18.44 17.02 L 18.61 18.09 C 16.31 19.45 14.35 21.32 13.08 23.68 L 11.94 23.42 L 12.95 24.93 L 11.28 24.25 C 11.38 24.78 11.58 25.84 11.68 26.38 L 10.29 26.46 C 10.36 26.92 10.50 27.85 10.57 28.31 L 9.28 28.51 C 9.37 28.98 9.55 29.90 9.64 30.37 L 8.60 30.37 C 8.02 32.81 7.33 35.22 7.20 37.74 L 6.44 37.08 C 6.81 44.38 6.51 51.70 6.61 59.02 C 6.41 73.68 7.00 88.38 6.30 103.02 L 7.20 102.09 C 7.19 104.67 8.16 107.09 8.58 109.62 L 9.63 109.64 C 9.54 110.10 9.35 111.01 9.25 111.47 L 10.57 111.69 C 10.50 112.15 10.37 113.08 10.30 113.54 L 11.66 113.61 C 11.57 114.15 11.39 115.23 11.30 115.77 L 12.95 115.05 L 11.99 116.51 L 13.08 116.39 C 14.43 118.68 16.32 120.59 18.63 121.92 L 18.44 123.03 L 19.87 122.00 L 19.25 123.69 C 19.78 123.60 20.84 123.42 21.38 123.34 L 21.45 124.69 C 21.91 124.63 22.84 124.51 23.30 124.45 L 23.55 125.76 C 24.00 125.66 24.92 125.46 25.37 125.36 L 25.38 126.41 C 27.55 126.85 29.67 127.50 31.89 127.69 L 31.01 128.48 C 48.39 128.25 65.77 128.50 83.14 128.36 C 85.72 127.99 88.23 127.18 90.88 127.40 L 90.43 125.91 C 90.91 126.17 91.89 126.69 92.37 126.96 L 92.59 125.47 C 93.08 125.52 94.06 125.61 94.54 125.66 L 94.71 124.43 C 95.17 124.50 96.08 124.63 96.54 124.70 L 96.63 123.31 C 97.17 123.42 98.23 123.63 98.76 123.74 L 98.04 122.09 L 99.51 123.00 L 99.40 121.91 C 101.70 120.57 103.60 118.66 104.93 116.36 L 106.11 116.53 L 105.02 115.03 L 106.75 115.75 C 106.64 115.22 106.41 114.17 106.30 113.64 L 107.68 113.55 C 107.62 113.09 107.51 112.17 107.45 111.71 L 108.73 111.48 C 108.64 111.01 108.47 110.09 108.39 109.62 L 109.45 109.60 C 109.78 106.38 111.38 103.42 111.44 100.15 C 111.36 78.78 111.36 57.41 111.44 36.05 L 110.45 36.79 C 110.44 35.16 110.43 33.54 110.41 31.91 L 108.93 32.78 C 109.18 32.24 109.67 31.16 109.91 30.63 L 108.44 30.37 C 108.50 29.90 108.62 28.95 108.69 28.47 L 107.42 28.31 C 107.49 27.85 107.64 26.91 107.72 26.45 L 106.39 26.43 C 106.44 25.87 106.55 24.76 106.60 24.20 L 104.89 24.84 L 106.06 23.40 L 104.93 23.64 C 103.60 21.32 101.68 19.42 99.37 18.07 L 99.52 16.97 L 98.03 17.95 L 98.78 16.30 C 98.24 16.39 97.16 16.57 96.62 16.66 L 96.55 15.30 C 96.09 15.37 95.16 15.50 94.69 15.56 L 94.43 14.19 L 92.72 14.68 C 92.68 14.41 92.59 13.86 92.54 13.59 C 90.13 13.01 87.74 12.31 85.24 12.24 C 85.40 12.04 85.72 11.65 85.88 11.45 C 68.29 11.87 50.69 11.41 33.09 11.68 Z" />
<path fill="#f7fbf8" opacity="1.00" d=" M 48.23 31.44 C 54.98 28.19 63.01 28.22 69.77 31.43 C 68.44 34.85 67.10 38.26 65.80 41.68 C 61.52 39.48 56.46 39.51 52.19 41.69 C 50.90 38.26 49.56 34.85 48.23 31.44 Z" />
<path fill="#f7fbf8" opacity="1.00" d=" M 55.34 47.23 C 60.06 44.32 66.98 48.34 66.47 53.95 C 66.44 59.43 59.55 62.83 55.08 59.85 C 50.30 57.31 50.45 49.57 55.34 47.23 Z" />
<path fill="#f7fbf8" opacity="1.00" d=" M 73.10 55.12 C 76.78 55.72 80.47 56.29 84.15 56.87 C 83.55 64.22 79.55 71.09 73.37 75.13 C 70.98 72.30 68.63 69.44 66.24 66.61 C 70.28 64.15 72.83 59.85 73.10 55.12 Z" />
<path fill="#f7fbf8" opacity="1.00" d=" M 33.85 56.87 C 37.53 56.29 41.21 55.72 44.89 55.13 C 45.17 59.84 47.70 64.17 51.77 66.58 C 49.39 69.43 47.02 72.28 44.64 75.13 C 38.44 71.10 34.45 64.22 33.85 56.87 Z" />
</g>
</svg>
