<?xml version="1.0" encoding="UTF-8" ?>
<!DOCTYPE svg PUBLIC "-//W3C//DTD SVG 1.1//EN" "http://www.w3.org/Graphics/SVG/1.1/DTD/svg11.dtd">
<svg width="117px" height="140px" viewBox="0 0 117 140" version="1.1" xmlns="http://www.w3.org/2000/svg">
<g id="#000000ff">
<path fill="#000000" opacity="1.00" d=" M 0.00 0.00 L 117.00 0.00 L 117.00 140.00 L 0.00 140.00 L 0.00 0.00 M 27.16 11.74 L 27.99 12.47 C 27.11 12.47 25.35 12.47 24.48 12.47 L 24.55 13.84 C 24.08 13.66 23.15 13.30 22.69 13.12 L 22.52 14.78 L 20.87 14.23 C 20.78 14.46 20.60 14.91 20.51 15.14 C 19.10 15.99 17.75 16.92 16.38 17.82 L 16.73 18.09 C 16.33 18.50 15.51 19.33 15.11 19.75 L 14.16 19.00 L 14.66 20.10 C 14.27 20.53 13.50 21.38 13.11 21.80 L 12.83 21.36 C 11.92 22.75 10.98 24.12 10.12 25.56 L 9.29 25.78 C 9.39 26.24 9.57 27.17 9.67 27.63 L 8.10 27.65 C 8.29 28.12 8.67 29.07 8.86 29.54 L 7.77 29.43 C 6.71 33.23 5.30 37.01 5.40 41.01 C 5.38 60.34 5.38 79.66 5.40 98.99 C 5.30 102.98 6.72 106.75 7.75 110.55 L 8.81 110.43 C 8.64 110.90 8.32 111.86 8.16 112.33 L 9.80 112.50 L 9.24 114.14 C 9.46 114.22 9.91 114.39 10.14 114.48 C 10.99 115.90 11.93 117.26 12.83 118.65 L 13.13 118.17 C 13.51 118.61 14.28 119.48 14.67 119.92 L 14.08 120.86 L 15.10 120.33 C 15.53 120.72 16.37 121.50 16.80 121.90 L 16.34 122.17 C 17.76 123.09 19.16 124.04 20.61 124.90 L 20.75 125.73 C 21.22 125.62 22.15 125.42 22.62 125.31 L 22.64 126.90 C 23.12 126.71 24.07 126.34 24.54 126.15 L 24.45 127.23 C 28.22 128.30 32.00 129.67 35.98 129.60 C 50.65 129.64 65.32 129.59 79.98 129.62 C 82.29 129.60 84.69 129.69 86.85 128.71 C 88.17 128.63 89.48 128.54 90.80 128.47 L 90.03 127.55 C 90.90 127.55 92.65 127.53 93.52 127.53 L 93.46 126.14 C 93.92 126.33 94.85 126.71 95.31 126.90 L 95.47 125.24 L 97.18 125.78 C 97.24 125.55 97.36 125.10 97.42 124.87 C 98.86 124.03 100.23 123.10 101.63 122.20 L 101.15 121.59 C 101.61 121.50 102.53 121.31 102.99 121.22 C 103.59 120.23 104.19 119.25 104.79 118.26 L 105.21 118.59 C 106.12 117.20 107.05 115.84 107.90 114.42 L 108.71 114.24 C 108.61 113.78 108.40 112.85 108.30 112.39 L 109.85 112.38 C 109.69 111.90 109.37 110.94 109.21 110.45 L 110.25 110.53 C 111.30 106.76 112.69 103.00 112.59 99.03 C 112.62 79.69 112.63 60.36 112.59 41.02 C 112.71 37.02 111.29 33.23 110.24 29.44 L 109.15 29.55 C 109.33 29.08 109.70 28.14 109.88 27.68 L 108.22 27.52 L 108.79 25.83 C 108.56 25.77 108.12 25.65 107.89 25.59 C 107.04 24.14 106.09 22.76 105.17 21.35 L 104.89 21.82 C 104.50 21.38 103.73 20.51 103.34 20.08 L 103.89 19.09 L 102.90 19.68 C 102.48 19.29 101.64 18.50 101.21 18.10 L 101.56 17.91 C 99.94 16.74 98.35 15.54 96.75 14.33 L 95.47 14.75 L 95.30 13.11 C 94.84 13.30 93.92 13.67 93.46 13.85 L 93.53 12.48 C 92.65 12.47 90.89 12.45 90.01 12.44 L 90.83 11.56 C 89.50 11.47 88.18 11.38 86.86 11.28 C 84.37 10.18 81.60 10.41 78.95 10.38 C 64.61 10.42 50.26 10.36 35.91 10.40 C 32.93 10.36 30.08 11.32 27.16 11.74 Z" />
<path fill="#000000" opacity="1.00" d=" M 25.33 13.67 C 27.46 13.13 29.57 12.54 31.73 12.16 L 31.06 11.54 C 48.39 11.69 65.73 11.58 83.06 11.60 C 86.39 11.54 89.47 12.99 92.67 13.72 L 92.76 14.12 C 94.04 14.61 95.32 15.14 96.60 15.65 L 96.74 16.71 C 97.23 16.57 98.22 16.31 98.71 16.18 L 98.12 17.71 L 99.16 17.30 C 101.38 19.45 103.56 21.63 105.71 23.85 L 105.24 24.85 L 106.78 24.31 C 106.66 24.80 106.43 25.79 106.31 26.29 L 107.28 26.33 C 107.55 26.98 108.09 28.30 108.36 28.95 C 108.69 29.47 109.36 30.52 109.70 31.04 C 109.55 31.44 109.25 32.26 109.10 32.66 L 110.13 32.08 C 110.38 33.67 110.79 35.22 111.34 36.73 C 111.42 58.91 111.42 81.10 111.34 103.28 C 110.78 104.79 110.38 106.34 110.14 107.93 L 109.18 107.31 C 109.29 107.71 109.52 108.51 109.63 108.92 C 108.78 110.44 107.98 111.99 107.22 113.57 L 106.30 113.79 C 106.43 114.25 106.69 115.17 106.82 115.63 L 105.96 115.42 C 104.00 118.10 101.58 120.36 99.21 122.66 L 98.12 122.39 L 98.66 123.90 C 98.19 123.73 97.24 123.41 96.76 123.25 L 96.63 124.33 C 95.37 124.84 94.11 125.35 92.85 125.85 C 92.79 125.96 92.67 126.19 92.60 126.31 C 89.46 127.01 86.42 128.45 83.15 128.40 C 65.78 128.41 48.42 128.33 31.05 128.44 L 31.75 127.56 C 30.21 127.50 28.67 127.45 27.13 127.41 L 27.59 126.20 C 27.21 126.30 26.44 126.51 26.05 126.61 C 24.53 125.76 22.98 124.97 21.41 124.22 L 21.22 123.28 C 20.76 123.42 19.84 123.70 19.38 123.83 L 19.58 122.96 C 16.89 120.99 14.60 118.55 12.30 116.15 L 12.74 115.13 L 11.20 115.70 C 11.33 115.21 11.57 114.22 11.70 113.73 L 10.72 113.66 C 10.46 113.03 9.95 111.77 9.69 111.14 C 9.35 110.60 8.66 109.53 8.32 108.99 C 8.46 108.58 8.73 107.75 8.87 107.33 L 7.84 107.93 C 7.59 106.30 7.29 104.66 6.65 103.13 C 6.52 80.78 6.71 58.42 6.56 36.07 L 7.43 36.71 C 7.49 35.17 7.55 33.63 7.60 32.09 L 8.82 32.61 C 8.71 32.24 8.48 31.50 8.36 31.12 C 9.22 29.57 10.03 28.00 10.79 26.40 L 11.74 26.22 C 11.58 25.75 11.27 24.79 11.11 24.32 L 12.61 24.90 L 12.33 23.81 C 14.47 21.60 16.65 19.43 18.85 17.28 L 19.82 17.79 L 19.32 16.21 C 19.82 16.34 20.81 16.58 21.30 16.70 L 21.34 15.68 C 22.64 15.17 23.93 14.62 25.24 14.12 L 25.33 13.67 M 39.22 46.47 C 36.99 48.17 37.04 51.95 39.30 53.61 C 41.87 55.87 44.60 57.96 47.40 59.93 C 49.07 61.07 51.08 60.11 52.88 59.99 C 53.61 57.38 54.12 54.72 54.11 52.00 C 54.58 52.00 55.53 52.00 56.00 52.00 C 56.00 51.25 56.00 49.75 56.00 49.00 C 55.52 49.00 54.55 49.00 54.06 49.00 C 54.17 46.00 53.78 43.04 52.94 40.16 C 51.97 39.94 50.04 39.48 49.08 39.25 C 45.46 41.15 42.31 43.82 39.22 46.47 M 64.00 41.18 C 64.00 43.78 64.00 46.39 64.00 49.00 C 63.25 49.00 61.75 49.00 61.00 49.00 C 61.00 49.75 61.00 51.25 61.00 52.00 C 61.75 52.00 63.25 52.00 64.00 52.00 C 64.00 54.27 64.00 56.55 64.00 58.82 C 66.11 59.56 68.40 61.54 70.60 59.92 C 73.42 57.95 76.16 55.85 78.74 53.58 C 80.97 51.91 80.99 48.14 78.77 46.45 C 76.16 44.16 73.41 42.03 70.56 40.05 C 68.38 38.43 66.09 40.48 64.00 41.18 M 57.00 49.00 C 57.00 49.75 57.00 51.25 57.00 52.00 C 57.75 52.00 59.25 52.00 60.00 52.00 C 60.00 51.25 60.00 49.75 60.00 49.00 C 59.25 49.00 57.75 49.00 57.00 49.00 Z" />
<path fill="#000000" opacity="1.00" d=" M 41.01 50.00 C 44.01 47.67 47.01 45.35 50.00 43.01 C 50.00 47.66 50.00 52.31 50.00 56.97 C 47.00 54.64 44.00 52.33 41.01 50.00 Z" />
<path fill="#000000" opacity="1.00" d=" M 68.00 43.01 C 70.98 45.35 73.99 47.67 76.99 50.00 C 74.00 52.33 71.00 54.65 68.00 56.97 C 68.00 52.32 68.00 47.66 68.00 43.01 Z" />
</g>
<g id="#f6faf7ff">
<path fill="#f6faf7" opacity="1.00" d=" M 27.16 11.74 C 30.08 11.32 32.93 10.36 35.91 10.40 C 50.26 10.36 64.61 10.42 78.95 10.38 C 81.60 10.41 84.37 10.18 86.86 11.28 C 88.18 11.38 89.50 11.47 90.83 11.56 L 90.01 12.44 C 90.89 12.45 92.65 12.47 93.53 12.48 L 93.46 13.85 C 93.92 13.67 94.84 13.30 95.30 13.11 L 95.47 14.75 L 96.75 14.33 C 98.35 15.54 99.94 16.74 101.56 17.91 L 101.21 18.10 C 101.64 18.50 102.48 19.29 102.90 19.68 L 103.89 19.09 L 103.34 20.08 C 103.73 20.51 104.50 21.38 104.89 21.82 L 105.17 21.35 C 106.09 22.76 107.04 24.14 107.89 25.59 C 108.12 25.65 108.56 25.77 108.79 25.83 L 108.22 27.52 L 109.88 27.68 C 109.70 28.14 109.33 29.08 109.15 29.55 L 110.24 29.44 C 111.29 33.23 112.71 37.02 112.59 41.02 C 112.63 60.36 112.62 79.69 112.59 99.03 C 112.69 103.00 111.30 106.76 110.25 110.53 L 109.21 110.45 C 109.37 110.94 109.69 111.90 109.85 112.38 L 108.30 112.39 C 108.40 112.85 108.61 113.78 108.71 114.24 L 107.90 114.42 C 107.05 115.84 106.12 117.20 105.21 118.59 L 104.79 118.26 C 104.19 119.25 103.59 120.23 102.99 121.22 C 102.53 121.31 101.61 121.50 101.15 121.59 L 101.63 122.20 C 100.23 123.10 98.86 124.03 97.42 124.87 C 97.36 125.10 97.24 125.55 97.18 125.78 L 95.47 125.24 L 95.31 126.90 C 94.85 126.71 93.92 126.33 93.46 126.14 L 93.52 127.53 C 92.65 127.53 90.90 127.55 90.03 127.55 L 90.80 128.47 C 89.48 128.54 88.17 128.63 86.85 128.71 C 84.69 129.69 82.29 129.60 79.98 129.62 C 65.32 129.59 50.65 129.64 35.98 129.60 C 32.00 129.67 28.22 128.30 24.45 127.23 L 24.54 126.15 C 24.07 126.34 23.12 126.71 22.64 126.90 L 22.62 125.31 C 22.15 125.42 21.22 125.62 20.75 125.73 L 20.61 124.90 C 19.16 124.04 17.76 123.09 16.34 122.17 L 16.80 121.90 C 16.37 121.50 15.53 120.72 15.10 120.33 L 14.08 120.86 L 14.67 119.92 C 14.28 119.48 13.51 118.61 13.13 118.17 L 12.83 118.65 C 11.93 117.26 10.99 115.90 10.14 114.48 C 9.91 114.39 9.46 114.22 9.24 114.14 L 9.80 112.50 L 8.16 112.33 C 8.32 111.86 8.64 110.90 8.81 110.43 L 7.75 110.55 C 6.72 106.75 5.30 102.98 5.40 98.99 C 5.38 79.66 5.38 60.34 5.40 41.01 C 5.30 37.01 6.71 33.23 7.77 29.43 L 8.86 29.54 C 8.67 29.07 8.29 28.12 8.10 27.65 L 9.67 27.63 C 9.57 27.17 9.39 26.24 9.29 25.78 L 10.12 25.56 C 10.98 24.12 11.92 22.75 12.83 21.36 L 13.11 21.80 C 13.50 21.38 14.27 20.53 14.66 20.10 L 14.16 19.00 L 15.11 19.75 C 15.51 19.33 16.33 18.50 16.73 18.09 L 16.38 17.82 C 17.75 16.92 19.10 15.99 20.51 15.14 C 20.60 14.91 20.78 14.46 20.87 14.23 L 22.52 14.78 L 22.69 13.12 C 23.15 13.30 24.08 13.66 24.55 13.84 L 24.48 12.47 C 25.35 12.47 27.11 12.47 27.99 12.47 L 27.16 11.74 M 25.33 13.67 L 25.24 14.12 C 23.93 14.62 22.64 15.17 21.34 15.68 L 21.30 16.70 C 20.81 16.58 19.82 16.34 19.32 16.21 L 19.82 17.79 L 18.85 17.28 C 16.65 19.43 14.47 21.60 12.33 23.81 L 12.61 24.90 L 11.11 24.32 C 11.27 24.79 11.58 25.75 11.74 26.22 L 10.79 26.40 C 10.03 28.00 9.22 29.57 8.36 31.12 C 8.48 31.50 8.71 32.24 8.82 32.61 L 7.60 32.09 C 7.55 33.63 7.49 35.17 7.43 36.71 L 6.56 36.07 C 6.71 58.42 6.52 80.78 6.65 103.13 C 7.29 104.66 7.59 106.30 7.84 107.93 L 8.87 107.33 C 8.73 107.75 8.46 108.58 8.32 108.99 C 8.66 109.53 9.35 110.60 9.69 111.14 C 9.95 111.77 10.46 113.03 10.72 113.66 L 11.70 113.73 C 11.57 114.22 11.33 115.21 11.20 115.70 L 12.74 115.13 L 12.30 116.15 C 14.60 118.55 16.89 120.99 19.58 122.96 L 19.38 123.83 C 19.84 123.70 20.76 123.42 21.22 123.28 L 21.41 124.22 C 22.98 124.97 24.53 125.76 26.05 126.61 C 26.44 126.51 27.21 126.30 27.59 126.20 L 27.13 127.41 C 28.67 127.45 30.21 127.50 31.75 127.56 L 31.05 128.44 C 48.42 128.33 65.78 128.41 83.15 128.40 C 86.42 128.45 89.46 127.01 92.60 126.31 C 92.67 126.19 92.79 125.96 92.85 125.85 C 94.11 125.35 95.37 124.84 96.63 124.33 L 96.76 123.25 C 97.24 123.41 98.19 123.73 98.66 123.90 L 98.12 122.39 L 99.21 122.66 C 101.58 120.36 104.00 118.10 105.96 115.42 L 106.82 115.63 C 106.69 115.17 106.43 114.25 106.30 113.79 L 107.22 113.57 C 107.98 111.99 108.78 110.44 109.63 108.92 C 109.52 108.51 109.29 107.71 109.18 107.31 L 110.14 107.93 C 110.38 106.34 110.78 104.79 111.34 103.28 C 111.42 81.10 111.42 58.91 111.34 36.73 C 110.79 35.22 110.38 33.67 110.13 32.08 L 109.10 32.66 C 109.25 32.26 109.55 31.44 109.70 31.04 C 109.36 30.52 108.69 29.47 108.36 28.95 C 108.09 28.30 107.55 26.98 107.28 26.33 L 106.31 26.29 C 106.43 25.79 106.66 24.80 106.78 24.31 L 105.24 24.85 L 105.71 23.85 C 103.56 21.63 101.38 19.45 99.16 17.30 L 98.12 17.71 L 98.71 16.18 C 98.22 16.31 97.23 16.57 96.74 16.71 L 96.60 15.65 C 95.32 15.14 94.04 14.61 92.76 14.12 L 92.67 13.72 C 89.47 12.99 86.39 11.54 83.06 11.60 C 65.73 11.58 48.39 11.69 31.06 11.54 L 31.73 12.16 C 29.57 12.54 27.46 13.13 25.33 13.67 Z" />
<path fill="#f6faf7" opacity="1.00" d=" M 39.22 46.47 C 42.31 43.82 45.46 41.15 49.08 39.25 C 50.04 39.48 51.97 39.94 52.94 40.16 C 53.78 43.04 54.17 46.00 54.06 49.00 C 54.55 49.00 55.52 49.00 56.00 49.00 C 56.00 49.75 56.00 51.25 56.00 52.00 C 55.53 52.00 54.58 52.00 54.11 52.00 C 54.12 54.72 53.61 57.38 52.88 59.99 C 51.08 60.11 49.07 61.07 47.40 59.93 C 44.60 57.96 41.87 55.87 39.30 53.61 C 37.04 51.95 36.99 48.17 39.22 46.47 M 41.01 50.00 C 44.00 52.33 47.00 54.64 50.00 56.97 C 50.00 52.31 50.00 47.66 50.00 43.01 C 47.01 45.35 44.01 47.67 41.01 50.00 Z" />
<path fill="#f6faf7" opacity="1.00" d=" M 64.00 41.18 C 66.09 40.48 68.38 38.43 70.56 40.05 C 73.41 42.03 76.16 44.16 78.77 46.45 C 80.99 48.14 80.97 51.91 78.74 53.58 C 76.16 55.85 73.42 57.95 70.60 59.92 C 68.40 61.54 66.11 59.56 64.00 58.82 C 64.00 56.55 64.00 54.27 64.00 52.00 C 63.25 52.00 61.75 52.00 61.00 52.00 C 61.00 51.25 61.00 49.75 61.00 49.00 C 61.75 49.00 63.25 49.00 64.00 49.00 C 64.00 46.39 64.00 43.78 64.00 41.18 M 68.00 43.01 C 68.00 47.66 68.00 52.32 68.00 56.97 C 71.00 54.65 74.00 52.33 76.99 50.00 C 73.99 47.67 70.98 45.35 68.00 43.01 Z" />
<path fill="#f6faf7" opacity="1.00" d=" M 57.00 49.00 C 57.75 49.00 59.25 49.00 60.00 49.00 C 60.00 49.75 60.00 51.25 60.00 52.00 C 59.25 52.00 57.75 52.00 57.00 52.00 C 57.00 51.25 57.00 49.75 57.00 49.00 Z" />
</g>
</svg>
