<?xml version="1.0" encoding="UTF-8" ?>
<!DOCTYPE svg PUBLIC "-//W3C//DTD SVG 1.1//EN" "http://www.w3.org/Graphics/SVG/1.1/DTD/svg11.dtd">
<svg width="117px" height="140px" viewBox="0 0 117 140" version="1.1" xmlns="http://www.w3.org/2000/svg">
<g id="#384450ff">
<path fill="#384450" opacity="1.00" d=" M 0.00 0.00 L 117.00 0.00 L 117.00 140.00 L 0.00 140.00 L 0.00 0.00 M 41.22 53.15 C 38.98 54.31 38.57 57.78 40.57 59.35 C 42.24 61.11 45.40 60.74 46.52 58.55 C 49.11 55.46 44.35 50.68 41.22 53.15 M 56.50 53.48 C 54.80 54.78 54.49 57.49 56.03 59.04 C 57.79 61.55 61.91 60.54 62.76 57.72 C 64.16 54.24 59.18 50.65 56.50 53.48 M 72.48 53.31 C 70.59 54.58 70.03 57.54 71.88 59.10 C 73.83 61.88 78.58 60.03 78.70 56.83 C 79.16 53.71 74.86 51.12 72.48 53.31 Z" />
</g>
<g id="#f8fcf8ff">
<path fill="#f8fcf8" opacity="1.00" d=" M 41.22 53.15 C 44.35 50.68 49.11 55.46 46.52 58.55 C 45.40 60.74 42.24 61.11 40.57 59.35 C 38.57 57.78 38.98 54.31 41.22 53.15 Z" />
<path fill="#f8fcf8" opacity="1.00" d=" M 56.50 53.48 C 59.18 50.65 64.16 54.24 62.76 57.72 C 61.91 60.54 57.79 61.55 56.03 59.04 C 54.49 57.49 54.80 54.78 56.50 53.48 Z" />
<path fill="#f8fcf8" opacity="1.00" d=" M 72.48 53.31 C 74.86 51.12 79.16 53.71 78.70 56.83 C 78.58 60.03 73.83 61.88 71.88 59.10 C 70.03 57.54 70.59 54.58 72.48 53.31 Z" />
</g>
</svg>
