<?xml version="1.0" encoding="UTF-8" ?>
<!DOCTYPE svg PUBLIC "-//W3C//DTD SVG 1.1//EN" "http://www.w3.org/Graphics/SVG/1.1/DTD/svg11.dtd">
<svg width="117px" height="140px" viewBox="0 0 117 140" version="1.1" xmlns="http://www.w3.org/2000/svg">
<g id="#000000ff">
<path fill="#000000" opacity="1.00" d=" M 0.00 0.00 L 117.00 0.00 L 117.00 140.00 L 0.00 140.00 L 0.00 0.00 M 31.18 10.86 C 28.92 11.51 26.67 12.16 24.40 12.76 L 24.50 13.91 C 24.05 13.70 23.16 13.27 22.71 13.06 L 22.52 14.77 L 20.89 14.23 C 20.79 14.45 20.60 14.90 20.50 15.13 C 19.09 15.99 17.72 16.92 16.34 17.83 L 17.06 17.91 C 16.53 18.38 15.46 19.33 14.93 19.80 L 14.28 19.06 L 14.66 20.80 L 13.80 20.36 C 13.52 20.71 12.97 21.40 12.69 21.75 C 12.36 23.22 11.02 23.96 9.99 24.88 C 9.80 25.60 9.42 27.02 9.23 27.73 L 8.06 27.66 C 8.26 28.12 8.68 29.05 8.89 29.51 L 7.74 29.42 C 6.99 31.86 6.29 34.33 6.21 36.90 L 5.57 36.26 C 5.27 58.72 5.27 81.19 5.57 103.64 C 5.79 103.53 6.23 103.31 6.46 103.20 C 6.44 104.71 6.43 106.22 6.42 107.74 L 7.45 107.08 C 7.45 107.93 7.44 109.64 7.44 110.50 L 8.87 110.48 C 8.66 110.95 8.26 111.89 8.06 112.36 L 9.16 112.27 C 9.42 112.94 9.94 114.26 10.20 114.93 C 11.10 116.14 12.02 117.35 12.91 118.58 L 13.02 118.01 C 13.48 118.50 14.39 119.48 14.85 119.97 L 13.97 120.70 L 15.68 120.34 L 15.40 121.92 L 16.83 121.10 L 16.35 122.18 C 17.76 123.10 19.15 124.05 20.60 124.91 L 20.75 125.71 C 21.21 125.62 22.15 125.44 22.62 125.35 C 22.64 125.77 22.69 126.62 22.71 127.04 L 24.49 125.99 L 24.42 127.50 C 25.30 127.52 27.07 127.55 27.96 127.56 L 27.16 128.26 C 30.10 128.75 32.98 129.65 35.98 129.60 C 50.33 129.64 64.69 129.59 79.04 129.63 C 81.65 129.64 84.26 129.55 86.85 129.16 C 89.10 128.50 91.36 127.84 93.63 127.24 L 93.41 126.16 C 93.92 126.34 94.94 126.71 95.45 126.90 L 95.23 125.40 C 95.73 125.47 96.75 125.61 97.25 125.68 L 97.43 124.90 C 98.86 124.04 100.25 123.09 101.65 122.18 L 101.14 121.05 L 102.60 121.97 L 102.27 120.39 L 103.96 120.72 L 103.20 120.05 C 103.66 119.53 104.58 118.49 105.05 117.97 L 105.18 118.65 C 106.09 117.26 107.03 115.88 107.89 114.46 L 108.68 114.23 C 108.60 113.77 108.43 112.86 108.34 112.40 C 108.76 112.37 109.59 112.31 110.01 112.29 L 109.04 110.53 L 110.53 110.53 C 110.54 109.66 110.56 107.92 110.58 107.05 L 111.58 107.75 C 111.58 106.20 111.57 104.66 111.55 103.11 L 112.43 103.75 C 112.82 90.15 112.52 76.55 112.61 62.96 C 112.52 53.80 112.87 44.63 112.31 35.48 L 111.51 35.82 C 111.53 34.94 111.57 33.17 111.59 32.28 L 110.55 32.89 C 110.55 32.02 110.56 30.30 110.57 29.44 L 109.69 29.80 C 109.58 29.15 109.35 27.84 109.24 27.19 C 108.85 26.69 108.08 25.69 107.69 25.19 C 106.88 23.89 105.99 22.64 105.15 21.36 L 104.06 21.87 L 104.97 20.41 L 103.37 20.72 L 103.72 19.07 L 103.01 19.75 C 102.49 19.31 101.44 18.44 100.92 18.00 L 101.66 17.83 C 100.25 16.91 98.87 15.96 97.43 15.10 L 97.27 14.33 C 96.79 14.40 95.82 14.53 95.33 14.60 L 95.32 13.00 C 94.87 13.24 93.97 13.71 93.51 13.94 L 93.55 12.50 C 92.67 12.47 90.91 12.43 90.03 12.41 L 90.77 11.44 C 88.90 11.42 87.03 11.40 85.17 11.39 L 85.83 10.48 C 72.21 10.27 58.59 10.44 44.97 10.38 C 40.37 10.45 35.74 10.11 31.18 10.86 Z" />
<path fill="#000000" opacity="1.00" d=" M 32.05 11.57 C 49.97 11.89 67.92 11.17 85.81 11.93 C 88.12 12.54 90.41 13.17 92.73 13.74 L 92.59 14.59 C 92.95 14.55 93.65 14.45 94.00 14.41 C 94.66 14.77 95.97 15.48 96.63 15.84 L 96.61 16.69 C 97.14 16.59 98.19 16.40 98.72 16.30 L 98.21 17.94 L 99.62 17.11 L 99.55 17.88 C 101.54 19.59 103.40 21.45 105.11 23.44 L 105.90 23.35 L 105.01 24.73 L 106.68 24.29 C 106.59 24.82 106.41 25.88 106.32 26.41 L 107.17 26.36 C 107.53 27.01 108.24 28.32 108.60 28.98 C 108.55 29.34 108.47 30.07 108.43 30.43 L 109.29 30.27 C 109.83 32.44 110.45 34.58 110.81 36.78 L 111.45 36.05 C 111.34 58.35 111.35 80.65 111.44 102.95 L 110.88 102.31 C 110.57 104.83 109.95 107.29 109.31 109.74 L 108.42 109.57 C 108.46 109.93 108.54 110.65 108.59 111.01 C 108.23 111.67 107.51 112.98 107.15 113.63 L 106.33 113.58 C 106.42 114.12 106.58 115.20 106.67 115.74 L 105.01 115.21 L 105.92 116.62 L 105.13 116.55 C 103.41 118.54 101.55 120.41 99.56 122.12 L 99.62 122.90 L 98.22 122.04 L 98.72 123.70 C 98.18 123.60 97.12 123.40 96.59 123.30 L 96.69 124.26 C 96.04 124.50 94.72 124.97 94.07 125.21 C 93.55 125.59 92.53 126.36 92.02 126.74 C 91.60 126.52 90.77 126.09 90.36 125.87 L 90.94 127.36 C 89.02 127.44 87.11 127.56 85.19 127.67 L 85.98 128.43 C 67.67 128.37 49.35 128.33 31.03 128.45 L 31.84 127.81 C 29.61 127.45 27.44 126.82 25.26 126.28 L 25.42 125.41 C 25.07 125.45 24.37 125.55 24.01 125.59 C 23.35 125.24 22.03 124.52 21.37 124.16 L 21.43 123.35 C 20.88 123.42 19.79 123.57 19.25 123.65 L 19.80 121.97 L 18.38 122.93 L 18.45 122.12 C 16.45 120.41 14.59 118.55 12.88 116.54 L 12.09 116.63 L 12.99 115.23 L 11.33 115.74 C 11.41 115.20 11.58 114.12 11.67 113.59 L 10.84 113.63 C 10.48 112.98 9.77 111.68 9.41 111.02 C 9.45 110.66 9.53 109.92 9.57 109.56 L 8.69 109.74 C 8.04 107.24 7.40 104.74 7.11 102.16 L 6.58 103.13 C 6.65 81.04 6.61 58.94 6.60 36.85 L 7.30 37.86 C 7.43 35.91 7.55 33.97 7.66 32.02 L 9.07 32.68 C 8.89 32.31 8.51 31.56 8.33 31.19 C 9.21 29.60 10.05 27.99 10.84 26.35 L 11.70 26.38 C 11.59 25.85 11.35 24.78 11.24 24.25 L 12.36 24.76 C 12.46 24.36 12.67 23.56 12.78 23.16 C 14.68 21.41 16.51 19.57 18.49 17.90 L 18.38 17.07 L 19.78 17.99 L 19.27 16.32 C 19.81 16.41 20.88 16.60 21.42 16.70 L 21.30 15.74 C 21.98 15.50 23.33 15.00 24.01 14.75 C 24.50 14.37 25.49 13.62 25.99 13.24 C 26.39 13.46 27.21 13.90 27.62 14.12 L 27.08 12.63 C 28.98 12.55 30.87 12.44 32.76 12.35 L 32.05 11.57 M 39.00 33.00 C 38.85 41.40 38.96 49.81 38.93 58.21 C 38.20 58.40 36.73 58.80 36.00 58.99 C 37.34 62.61 40.64 64.92 43.38 67.43 C 46.20 65.72 48.68 63.43 50.71 60.83 C 51.15 59.32 49.69 58.49 48.68 57.77 C 48.54 49.53 48.67 41.30 48.65 33.06 C 45.44 32.76 42.22 32.81 39.00 33.00 M 68.38 33.05 C 68.44 41.31 68.49 49.57 68.40 57.83 C 67.29 58.49 66.01 59.24 66.23 60.75 C 68.26 63.37 70.70 65.72 73.55 67.43 C 76.03 65.26 78.58 63.10 80.58 60.47 C 81.07 58.83 79.19 58.51 78.15 57.89 C 78.06 49.59 78.29 41.29 78.00 33.00 C 74.79 32.81 71.58 32.76 68.38 33.05 M 33.02 71.11 C 32.95 73.68 32.56 76.31 33.24 78.83 C 36.03 79.99 39.13 79.41 42.07 79.51 C 42.02 81.45 43.23 82.23 45.02 82.31 C 45.03 81.61 45.04 80.21 45.05 79.51 C 54.02 79.53 62.98 79.53 71.95 79.51 C 71.96 80.21 71.97 81.61 71.98 82.31 C 73.77 82.23 74.99 81.45 74.93 79.51 C 77.89 79.38 81.05 80.06 83.82 78.74 C 84.41 76.24 84.06 73.65 83.98 71.11 C 67.00 70.93 50.00 70.93 33.02 71.11 Z" />
<path fill="#000000" opacity="1.00" d=" M 41.94 35.98 C 43.17 35.98 44.39 35.97 45.61 35.97 C 45.78 44.44 45.23 52.95 45.95 61.40 C 45.19 62.21 44.43 63.02 43.67 63.84 C 42.92 63.06 42.15 62.29 41.39 61.52 C 42.59 53.08 41.64 44.48 41.94 35.98 Z" />
<path fill="#000000" opacity="1.00" d=" M 71.45 35.97 C 72.68 35.97 73.90 35.97 75.12 35.98 C 75.39 44.47 74.54 53.03 75.62 61.47 C 74.84 62.25 74.05 63.03 73.27 63.82 C 72.53 63.04 71.79 62.27 71.05 61.49 C 71.90 53.02 71.26 44.47 71.45 35.97 Z" />
<path fill="#000000" opacity="1.00" d=" M 35.90 74.10 C 50.97 74.10 66.03 74.10 81.10 74.10 C 81.12 74.69 81.17 75.89 81.19 76.48 C 66.06 76.48 50.94 76.48 35.81 76.49 C 35.83 75.89 35.88 74.69 35.90 74.10 Z" />
</g>
<g id="#f4f8f6ff">
<path fill="#f4f8f6" opacity="1.00" d=" M 31.18 10.86 C 35.74 10.11 40.37 10.45 44.97 10.38 C 58.59 10.44 72.21 10.27 85.83 10.48 L 85.17 11.39 C 87.03 11.40 88.90 11.42 90.77 11.44 L 90.03 12.41 C 90.91 12.43 92.67 12.47 93.55 12.50 L 93.51 13.94 C 93.97 13.71 94.87 13.24 95.32 13.00 L 95.33 14.60 C 95.82 14.53 96.79 14.40 97.27 14.33 L 97.43 15.10 C 98.87 15.96 100.25 16.91 101.66 17.83 L 100.92 18.00 C 101.44 18.44 102.49 19.31 103.01 19.75 L 103.72 19.07 L 103.37 20.72 L 104.97 20.41 L 104.06 21.87 L 105.15 21.36 C 105.99 22.64 106.88 23.89 107.69 25.19 C 108.08 25.69 108.85 26.69 109.24 27.19 C 109.35 27.84 109.58 29.15 109.69 29.80 L 110.57 29.44 C 110.56 30.30 110.55 32.02 110.55 32.89 L 111.59 32.28 C 111.57 33.17 111.53 34.94 111.51 35.82 L 112.31 35.48 C 112.87 44.63 112.52 53.80 112.61 62.96 C 112.52 76.55 112.82 90.15 112.43 103.75 L 111.55 103.11 C 111.57 104.66 111.58 106.20 111.58 107.75 L 110.58 107.05 C 110.56 107.92 110.54 109.66 110.53 110.53 L 109.04 110.53 L 110.01 112.29 C 109.59 112.31 108.76 112.37 108.34 112.40 C 108.43 112.86 108.60 113.77 108.68 114.23 L 107.89 114.46 C 107.03 115.88 106.09 117.26 105.18 118.65 L 105.05 117.97 C 104.58 118.49 103.66 119.53 103.20 120.05 L 103.96 120.72 L 102.27 120.39 L 102.60 121.97 L 101.14 121.05 L 101.65 122.18 C 100.25 123.09 98.86 124.04 97.43 124.90 L 97.25 125.68 C 96.75 125.61 95.73 125.47 95.23 125.40 L 95.45 126.90 C 94.94 126.71 93.92 126.34 93.41 126.16 L 93.63 127.24 C 91.36 127.84 89.10 128.50 86.85 129.16 C 84.26 129.55 81.65 129.64 79.04 129.63 C 64.69 129.59 50.33 129.64 35.98 129.60 C 32.98 129.65 30.10 128.75 27.16 128.26 L 27.96 127.56 C 27.07 127.55 25.30 127.52 24.42 127.50 L 24.49 125.99 L 22.71 127.04 C 22.69 126.62 22.64 125.77 22.62 125.35 C 22.15 125.44 21.21 125.62 20.75 125.71 L 20.60 124.91 C 19.15 124.05 17.76 123.10 16.35 122.18 L 16.83 121.10 L 15.40 121.92 L 15.68 120.34 L 13.97 120.70 L 14.85 119.97 C 14.39 119.48 13.48 118.50 13.02 118.01 L 12.91 118.58 C 12.02 117.35 11.10 116.14 10.20 114.93 C 9.94 114.26 9.42 112.94 9.16 112.27 L 8.06 112.36 C 8.26 111.89 8.66 110.95 8.87 110.48 L 7.44 110.50 C 7.44 109.64 7.45 107.93 7.45 107.08 L 6.42 107.74 C 6.43 106.22 6.44 104.71 6.46 103.20 C 6.23 103.31 5.79 103.53 5.57 103.64 C 5.27 81.19 5.27 58.72 5.57 36.26 L 6.21 36.90 C 6.29 34.33 6.99 31.86 7.74 29.42 L 8.89 29.51 C 8.68 29.05 8.26 28.12 8.06 27.66 L 9.23 27.73 C 9.42 27.02 9.80 25.60 9.99 24.88 C 11.02 23.96 12.36 23.22 12.69 21.75 C 12.97 21.40 13.52 20.71 13.80 20.36 L 14.66 20.80 L 14.28 19.06 L 14.93 19.80 C 15.46 19.33 16.53 18.38 17.06 17.91 L 16.34 17.83 C 17.72 16.92 19.09 15.99 20.50 15.13 C 20.60 14.90 20.79 14.45 20.89 14.23 L 22.52 14.77 L 22.71 13.06 C 23.16 13.27 24.05 13.70 24.50 13.91 L 24.40 12.76 C 26.67 12.16 28.92 11.51 31.18 10.86 M 32.05 11.57 L 32.76 12.35 C 30.87 12.44 28.98 12.55 27.08 12.63 L 27.62 14.12 C 27.21 13.90 26.39 13.46 25.99 13.24 C 25.49 13.62 24.50 14.37 24.01 14.75 C 23.33 15.00 21.98 15.50 21.30 15.74 L 21.42 16.70 C 20.88 16.60 19.81 16.41 19.27 16.32 L 19.78 17.99 L 18.38 17.07 L 18.49 17.90 C 16.51 19.57 14.68 21.41 12.78 23.16 C 12.67 23.56 12.46 24.36 12.36 24.76 L 11.24 24.25 C 11.35 24.78 11.59 25.85 11.70 26.38 L 10.84 26.35 C 10.05 27.99 9.21 29.60 8.33 31.19 C 8.51 31.56 8.89 32.31 9.07 32.68 L 7.66 32.02 C 7.55 33.97 7.43 35.91 7.30 37.86 L 6.60 36.85 C 6.61 58.94 6.65 81.04 6.58 103.13 L 7.11 102.16 C 7.40 104.74 8.04 107.24 8.69 109.74 L 9.57 109.56 C 9.53 109.92 9.45 110.66 9.41 111.02 C 9.77 111.68 10.48 112.98 10.84 113.63 L 11.67 113.59 C 11.58 114.12 11.41 115.20 11.33 115.74 L 12.99 115.23 L 12.09 116.63 L 12.88 116.54 C 14.59 118.55 16.45 120.41 18.45 122.12 L 18.38 122.93 L 19.80 121.97 L 19.25 123.65 C 19.79 123.57 20.88 123.42 21.43 123.35 L 21.37 124.16 C 22.03 124.52 23.35 125.24 24.01 125.59 C 24.37 125.55 25.07 125.45 25.42 125.41 L 25.26 126.28 C 27.44 126.82 29.61 127.45 31.84 127.81 L 31.03 128.45 C 49.35 128.33 67.67 128.37 85.98 128.43 L 85.19 127.67 C 87.11 127.56 89.02 127.44 90.94 127.36 L 90.36 125.87 C 90.77 126.09 91.60 126.52 92.02 126.74 C 92.53 126.36 93.55 125.59 94.07 125.21 C 94.72 124.97 96.04 124.50 96.69 124.26 L 96.59 123.30 C 97.12 123.40 98.18 123.60 98.72 123.70 L 98.22 122.04 L 99.62 122.90 L 99.56 122.12 C 101.55 120.41 103.41 118.54 105.13 116.55 L 105.92 116.62 L 105.01 115.21 L 106.67 115.74 C 106.58 115.20 106.42 114.12 106.33 113.58 L 107.15 113.63 C 107.51 112.98 108.23 111.67 108.59 111.01 C 108.54 110.65 108.46 109.93 108.42 109.57 L 109.31 109.74 C 109.95 107.29 110.57 104.83 110.88 102.31 L 111.44 102.95 C 111.35 80.65 111.34 58.35 111.45 36.05 L 110.81 36.78 C 110.45 34.58 109.83 32.44 109.29 30.27 L 108.43 30.43 C 108.47 30.07 108.55 29.34 108.60 28.98 C 108.24 28.32 107.53 27.01 107.17 26.36 L 106.32 26.41 C 106.41 25.88 106.59 24.82 106.68 24.29 L 105.01 24.73 L 105.90 23.35 L 105.11 23.44 C 103.40 21.45 101.54 19.59 99.55 17.88 L 99.62 17.11 L 98.21 17.94 L 98.72 16.30 C 98.19 16.40 97.14 16.59 96.61 16.69 L 96.63 15.84 C 95.97 15.48 94.66 14.77 94.00 14.41 C 93.65 14.45 92.95 14.55 92.59 14.59 L 92.73 13.74 C 90.41 13.17 88.12 12.54 85.81 11.93 C 67.92 11.17 49.97 11.89 32.05 11.57 Z" />
<path fill="#f4f8f6" opacity="1.00" d=" M 39.00 33.00 C 42.22 32.81 45.44 32.76 48.65 33.06 C 48.67 41.30 48.54 49.53 48.68 57.77 C 49.69 58.49 51.15 59.32 50.71 60.83 C 48.68 63.43 46.20 65.72 43.38 67.43 C 40.64 64.92 37.34 62.61 36.00 58.99 C 36.73 58.80 38.20 58.40 38.93 58.21 C 38.96 49.81 38.85 41.40 39.00 33.00 M 41.94 35.98 C 41.64 44.48 42.59 53.08 41.39 61.52 C 42.15 62.29 42.92 63.06 43.67 63.84 C 44.43 63.02 45.19 62.21 45.95 61.40 C 45.23 52.95 45.78 44.44 45.61 35.97 C 44.39 35.97 43.17 35.98 41.94 35.98 Z" />
<path fill="#f4f8f6" opacity="1.00" d=" M 68.38 33.05 C 71.58 32.76 74.79 32.81 78.00 33.00 C 78.29 41.29 78.06 49.59 78.15 57.89 C 79.19 58.51 81.07 58.83 80.58 60.47 C 78.58 63.10 76.03 65.26 73.55 67.43 C 70.70 65.72 68.26 63.37 66.23 60.75 C 66.01 59.24 67.29 58.49 68.40 57.83 C 68.49 49.57 68.44 41.31 68.38 33.05 M 71.45 35.97 C 71.26 44.47 71.90 53.02 71.05 61.49 C 71.79 62.27 72.53 63.04 73.27 63.82 C 74.05 63.03 74.84 62.25 75.62 61.47 C 74.54 53.03 75.39 44.47 75.12 35.98 C 73.90 35.97 72.68 35.97 71.45 35.97 Z" />
<path fill="#f4f8f6" opacity="1.00" d=" M 33.02 71.11 C 50.00 70.93 67.00 70.93 83.98 71.11 C 84.06 73.65 84.41 76.24 83.82 78.74 C 81.05 80.06 77.89 79.38 74.93 79.51 C 74.99 81.45 73.77 82.23 71.98 82.31 C 71.97 81.61 71.96 80.21 71.95 79.51 C 62.98 79.53 54.02 79.53 45.05 79.51 C 45.04 80.21 45.03 81.61 45.02 82.31 C 43.23 82.23 42.02 81.45 42.07 79.51 C 39.13 79.41 36.03 79.99 33.24 78.83 C 32.56 76.31 32.95 73.68 33.02 71.11 M 35.90 74.10 C 35.88 74.69 35.83 75.89 35.81 76.49 C 50.94 76.48 66.06 76.48 81.19 76.48 C 81.17 75.89 81.12 74.69 81.10 74.10 C 66.03 74.10 50.97 74.10 35.90 74.10 Z" />
</g>
</svg>
