<?xml version="1.0" encoding="UTF-8" ?>
<!DOCTYPE svg PUBLIC "-//W3C//DTD SVG 1.1//EN" "http://www.w3.org/Graphics/SVG/1.1/DTD/svg11.dtd">
<svg width="117px" height="140px" viewBox="0 0 117 140" version="1.1" xmlns="http://www.w3.org/2000/svg">
<g id="#000000ff">
<path fill="#000000" opacity="1.00" d=" M 0.00 0.00 L 117.00 0.00 L 117.00 140.00 L 0.00 140.00 L 0.00 0.00 M 31.31 10.55 L 31.75 11.21 C 29.25 11.28 26.84 11.90 24.48 12.63 L 24.61 13.59 C 24.10 13.50 23.06 13.32 22.54 13.23 L 22.61 14.58 C 22.14 14.51 21.21 14.35 20.74 14.28 L 20.51 15.12 C 19.10 15.94 17.74 16.83 16.36 17.70 L 16.48 17.96 C 15.16 18.98 13.98 20.17 12.97 21.49 L 12.80 21.43 C 11.89 22.70 10.95 23.96 10.00 25.20 C 9.79 25.81 9.37 27.02 9.16 27.63 L 8.22 27.55 C 8.31 28.07 8.50 29.11 8.59 29.63 L 7.58 29.50 C 7.04 31.56 6.47 33.62 6.17 35.73 L 5.67 35.45 C 5.19 41.29 5.35 47.15 5.34 53.00 C 5.53 70.18 4.94 87.38 5.67 104.54 L 6.17 104.29 C 6.47 106.38 7.02 108.43 7.57 110.47 L 8.65 110.45 C 8.53 110.95 8.29 111.93 8.17 112.42 L 9.58 112.38 C 9.51 112.86 9.37 113.80 9.30 114.27 L 10.12 114.50 C 10.95 115.90 11.84 117.28 12.71 118.66 L 12.98 118.54 C 13.75 119.40 14.54 120.25 15.36 121.07 L 15.38 121.37 C 15.74 121.61 16.46 122.07 16.82 122.31 C 17.92 123.19 19.02 124.08 20.09 125.00 C 20.74 125.20 22.02 125.61 22.66 125.82 L 22.48 126.74 C 23.02 126.66 24.11 126.52 24.65 126.44 L 24.47 127.38 C 26.52 127.94 28.58 128.53 30.69 128.85 L 30.49 129.33 C 36.29 129.81 42.12 129.64 47.93 129.66 C 60.85 129.57 73.78 129.88 86.70 129.46 L 86.22 128.78 C 88.73 128.75 91.15 128.11 93.53 127.38 L 93.32 126.48 C 93.88 126.53 94.99 126.65 95.55 126.70 L 95.35 125.85 C 95.99 125.61 97.26 125.14 97.90 124.90 C 99.11 124.00 100.33 123.10 101.56 122.22 L 101.51 122.04 C 102.84 121.02 104.03 119.83 105.04 118.50 L 105.29 118.66 C 106.16 117.28 107.05 115.91 107.88 114.51 L 108.70 114.26 C 108.63 113.79 108.48 112.86 108.41 112.39 L 109.74 112.50 C 109.66 111.97 109.51 110.91 109.44 110.38 L 110.41 110.50 C 110.96 108.45 111.53 106.39 111.84 104.28 L 112.33 104.60 C 112.85 97.75 112.61 90.88 112.66 84.02 C 112.49 67.84 113.04 51.63 112.34 35.46 L 111.84 35.72 C 111.52 33.60 110.95 31.54 110.39 29.47 L 109.46 29.67 C 109.52 29.12 109.66 28.02 109.73 27.47 L 108.82 27.66 C 108.61 27.01 108.19 25.72 107.98 25.07 C 107.07 24.01 106.18 22.93 105.31 21.83 C 105.08 21.46 104.61 20.72 104.37 20.35 L 104.07 20.40 C 103.25 19.57 102.42 18.76 101.57 17.96 L 101.58 17.81 C 100.00 16.68 98.42 15.54 96.87 14.36 C 96.50 14.41 95.76 14.51 95.39 14.57 L 95.44 13.20 C 94.93 13.31 93.93 13.51 93.42 13.62 L 93.52 12.63 C 91.15 11.89 88.74 11.27 86.24 11.21 L 86.69 10.55 C 68.24 10.20 49.76 10.20 31.31 10.55 Z" />
<path fill="#000000" opacity="1.00" d=" M 32.28 11.59 C 50.09 11.72 67.91 11.72 85.72 11.59 L 85.37 12.21 C 87.82 12.52 90.21 13.13 92.61 13.71 L 92.62 14.61 C 92.96 14.58 93.64 14.53 93.98 14.51 C 94.62 14.84 95.88 15.50 96.52 15.83 L 96.36 16.22 C 97.45 16.73 98.54 17.24 99.64 17.74 L 99.49 18.06 C 101.57 19.60 103.41 21.45 104.95 23.53 L 105.26 23.36 C 105.76 24.46 106.27 25.55 106.78 26.65 L 107.72 26.47 C 107.63 26.92 107.45 27.84 107.36 28.30 L 108.69 28.57 C 108.60 29.02 108.42 29.92 108.33 30.36 L 109.20 30.41 C 109.51 31.56 109.85 32.71 110.22 33.85 C 110.60 35.86 111.28 37.83 111.33 39.89 C 111.40 60.84 111.23 81.79 111.41 102.74 L 110.82 102.38 C 110.49 104.83 109.89 107.22 109.30 109.62 L 108.35 109.61 C 108.43 110.07 108.59 110.98 108.67 111.44 L 107.38 111.72 C 107.46 112.17 107.61 113.08 107.69 113.53 L 106.77 113.37 C 106.26 114.46 105.76 115.55 105.26 116.64 L 104.95 116.49 C 103.40 118.56 101.56 120.40 99.48 121.95 L 99.59 122.17 C 98.63 122.74 97.68 123.31 96.72 123.89 C 95.35 124.56 93.96 125.22 92.57 125.86 L 92.45 126.74 C 91.94 126.57 90.94 126.25 90.43 126.09 L 90.72 127.36 C 88.92 127.42 87.13 127.52 85.34 127.60 L 85.73 128.41 C 67.91 128.27 50.09 128.30 32.28 128.40 L 32.59 127.65 C 31.35 127.55 30.12 127.44 28.89 127.33 C 27.73 126.90 26.57 126.51 25.39 126.15 L 25.43 125.42 C 25.08 125.43 24.36 125.46 24.01 125.48 C 23.37 125.15 22.10 124.51 21.47 124.18 L 21.65 123.78 C 20.56 123.27 19.46 122.76 18.37 122.26 L 18.51 121.95 C 16.44 120.40 14.60 118.57 13.06 116.50 L 12.75 116.64 C 12.24 115.55 11.73 114.46 11.22 113.37 L 10.29 113.52 C 10.38 113.07 10.55 112.16 10.64 111.70 L 9.32 111.44 C 9.41 110.98 9.57 110.07 9.66 109.62 L 8.73 109.61 C 8.09 106.86 7.38 104.13 6.65 101.40 C 6.68 80.49 6.65 59.58 6.67 38.67 C 7.09 37.08 7.47 35.49 7.82 33.89 C 8.16 32.73 8.48 31.57 8.77 30.40 L 9.67 30.36 C 9.61 30.00 9.48 29.29 9.42 28.94 C 10.04 28.07 10.66 27.20 11.28 26.33 C 11.78 25.34 12.29 24.34 12.79 23.34 L 13.07 23.56 C 14.59 21.45 16.42 19.59 18.52 18.05 L 18.38 17.76 C 19.36 17.27 20.35 16.78 21.33 16.29 C 22.20 15.67 23.06 15.05 23.92 14.43 C 24.29 14.47 25.02 14.57 25.38 14.62 L 25.40 13.70 C 27.79 13.12 30.18 12.51 32.63 12.21 L 32.28 11.59 M 45.99 28.15 C 46.02 33.98 46.02 39.81 46.00 45.64 C 43.67 45.64 41.35 45.66 39.02 45.69 C 39.28 50.40 38.75 55.15 39.34 59.82 C 41.62 63.32 46.47 60.85 49.74 62.06 C 52.80 64.59 55.40 67.65 58.38 70.29 C 54.69 70.25 51.00 70.23 47.31 70.30 C 47.32 72.86 47.34 75.43 47.29 78.00 C 54.21 78.00 61.14 77.99 68.06 78.03 C 69.67 78.19 71.21 77.73 72.68 77.09 C 72.03 76.76 70.73 76.09 70.08 75.76 C 63.42 75.46 56.73 75.78 50.06 75.61 C 50.06 74.98 50.06 73.72 50.06 73.09 C 53.65 73.02 57.25 73.04 60.84 73.05 C 60.86 72.31 60.92 70.85 60.94 70.12 C 63.72 67.47 66.24 64.56 69.19 62.11 C 72.42 60.77 77.43 63.39 79.67 59.78 C 80.24 55.12 79.72 50.38 79.98 45.69 C 77.65 45.66 75.33 45.65 73.00 45.64 C 72.97 39.81 73.00 33.98 73.00 28.15 C 64.00 28.05 54.99 28.05 45.99 28.15 Z" />
<path fill="#000000" opacity="1.00" d=" M 48.82 31.04 C 55.94 31.04 63.06 31.04 70.17 31.04 C 70.17 36.79 70.26 42.55 70.10 48.30 C 72.39 48.34 74.68 48.36 76.97 48.39 C 76.91 51.90 76.92 55.42 76.94 58.93 C 65.31 58.98 53.69 58.98 42.06 58.93 C 42.08 55.41 42.08 51.89 42.05 48.37 C 48.78 48.31 55.51 48.37 62.24 48.35 C 62.24 47.67 62.24 46.33 62.24 45.65 C 57.74 45.65 53.25 45.66 48.75 45.64 C 48.79 43.87 48.82 42.10 48.87 40.33 C 53.33 40.36 57.78 40.35 62.24 40.35 C 62.24 39.67 62.24 38.33 62.24 37.66 C 57.77 37.64 53.29 37.62 48.82 37.70 C 48.81 35.48 48.81 33.26 48.82 31.04 Z" />
<path fill="#000000" opacity="1.00" d=" M 53.33 61.73 C 57.44 61.74 61.55 61.74 65.66 61.73 C 63.59 63.72 61.53 65.72 59.52 67.77 C 57.48 65.73 55.41 63.72 53.33 61.73 Z" />
</g>
<g id="#dee5eaff">
<path fill="#dee5ea" opacity="1.00" d=" M 31.31 10.55 C 49.76 10.20 68.24 10.20 86.69 10.55 L 86.24 11.21 C 88.74 11.27 91.15 11.89 93.52 12.63 L 93.42 13.62 C 93.93 13.51 94.93 13.31 95.44 13.20 L 95.39 14.57 C 95.76 14.51 96.50 14.41 96.87 14.36 C 98.42 15.54 100.00 16.68 101.58 17.81 L 101.57 17.96 C 102.42 18.76 103.25 19.57 104.07 20.40 L 104.37 20.35 C 104.61 20.72 105.08 21.46 105.31 21.83 C 106.18 22.93 107.07 24.01 107.98 25.07 C 108.19 25.72 108.61 27.01 108.82 27.66 L 109.73 27.47 C 109.66 28.02 109.52 29.12 109.46 29.67 L 110.39 29.47 C 110.95 31.54 111.52 33.60 111.84 35.72 L 112.34 35.46 C 113.04 51.63 112.49 67.84 112.66 84.02 C 112.61 90.88 112.85 97.75 112.33 104.60 L 111.84 104.28 C 111.53 106.39 110.96 108.45 110.41 110.50 L 109.44 110.38 C 109.51 110.91 109.66 111.97 109.74 112.50 L 108.41 112.39 C 108.48 112.86 108.63 113.79 108.70 114.26 L 107.88 114.51 C 107.05 115.91 106.16 117.28 105.29 118.66 L 105.04 118.50 C 104.03 119.83 102.84 121.02 101.51 122.04 L 101.56 122.22 C 100.33 123.10 99.11 124.00 97.90 124.90 C 97.26 125.14 95.99 125.61 95.35 125.85 L 95.55 126.70 C 94.99 126.65 93.88 126.53 93.32 126.48 L 93.53 127.38 C 91.15 128.11 88.73 128.75 86.22 128.78 L 86.70 129.46 C 73.78 129.88 60.85 129.57 47.93 129.66 C 42.12 129.64 36.29 129.81 30.49 129.33 L 30.69 128.85 C 28.58 128.53 26.52 127.94 24.47 127.38 L 24.65 126.44 C 24.11 126.52 23.02 126.66 22.48 126.74 L 22.66 125.82 C 22.02 125.61 20.74 125.20 20.09 125.00 C 19.02 124.08 17.92 123.19 16.82 122.31 C 16.46 122.07 15.74 121.61 15.38 121.37 L 15.36 121.07 C 14.54 120.25 13.75 119.40 12.98 118.54 L 12.71 118.66 C 11.84 117.28 10.95 115.90 10.12 114.50 L 9.30 114.27 C 9.37 113.80 9.51 112.86 9.58 112.38 L 8.17 112.42 C 8.29 111.93 8.53 110.95 8.65 110.45 L 7.57 110.47 C 7.02 108.43 6.47 106.38 6.17 104.29 L 5.67 104.54 C 4.94 87.38 5.53 70.18 5.34 53.00 C 5.35 47.15 5.19 41.29 5.67 35.45 L 6.17 35.73 C 6.47 33.62 7.04 31.56 7.58 29.50 L 8.59 29.63 C 8.50 29.11 8.31 28.07 8.22 27.55 L 9.16 27.63 C 9.37 27.02 9.79 25.81 10.00 25.20 C 10.95 23.96 11.89 22.70 12.80 21.43 L 12.97 21.49 C 13.98 20.17 15.16 18.98 16.48 17.96 L 16.36 17.70 C 17.74 16.83 19.10 15.94 20.51 15.12 L 20.74 14.28 C 21.21 14.35 22.14 14.51 22.61 14.58 L 22.54 13.23 C 23.06 13.32 24.10 13.50 24.61 13.59 L 24.48 12.63 C 26.84 11.90 29.25 11.28 31.75 11.21 L 31.31 10.55 M 32.28 11.59 L 32.63 12.21 C 30.18 12.51 27.79 13.12 25.40 13.70 L 25.38 14.62 C 25.02 14.57 24.29 14.47 23.92 14.43 C 23.06 15.05 22.20 15.67 21.33 16.29 C 20.35 16.78 19.36 17.27 18.38 17.76 L 18.52 18.05 C 16.42 19.59 14.59 21.45 13.07 23.56 L 12.79 23.34 C 12.29 24.34 11.78 25.34 11.28 26.33 C 10.66 27.20 10.04 28.07 9.42 28.94 C 9.48 29.29 9.61 30.00 9.67 30.36 L 8.77 30.40 C 8.48 31.57 8.16 32.73 7.82 33.89 C 7.47 35.49 7.09 37.08 6.67 38.67 C 6.65 59.58 6.68 80.49 6.65 101.40 C 7.38 104.13 8.09 106.86 8.73 109.61 L 9.66 109.62 C 9.57 110.07 9.41 110.98 9.32 111.44 L 10.64 111.70 C 10.55 112.16 10.38 113.07 10.29 113.52 L 11.22 113.37 C 11.73 114.46 12.24 115.55 12.75 116.64 L 13.06 116.50 C 14.60 118.57 16.44 120.40 18.51 121.95 L 18.37 122.26 C 19.46 122.76 20.56 123.27 21.65 123.78 L 21.47 124.18 C 22.10 124.51 23.37 125.15 24.01 125.48 C 24.36 125.46 25.08 125.43 25.43 125.42 L 25.39 126.15 C 26.57 126.51 27.73 126.90 28.89 127.33 C 30.12 127.44 31.35 127.55 32.59 127.65 L 32.28 128.40 C 50.09 128.30 67.91 128.27 85.73 128.41 L 85.34 127.60 C 87.13 127.52 88.92 127.42 90.72 127.36 L 90.43 126.09 C 90.94 126.25 91.94 126.57 92.45 126.74 L 92.57 125.86 C 93.96 125.22 95.35 124.56 96.72 123.89 C 97.68 123.31 98.63 122.74 99.59 122.17 L 99.48 121.95 C 101.56 120.40 103.40 118.56 104.95 116.49 L 105.26 116.64 C 105.76 115.55 106.26 114.46 106.77 113.37 L 107.69 113.53 C 107.61 113.08 107.46 112.17 107.38 111.72 L 108.67 111.44 C 108.59 110.98 108.43 110.07 108.35 109.61 L 109.30 109.62 C 109.89 107.22 110.49 104.83 110.82 102.38 L 111.41 102.74 C 111.23 81.79 111.40 60.84 111.33 39.89 C 111.28 37.83 110.60 35.86 110.22 33.85 C 109.85 32.71 109.51 31.56 109.20 30.41 L 108.33 30.36 C 108.42 29.92 108.60 29.02 108.69 28.57 L 107.36 28.30 C 107.45 27.84 107.63 26.92 107.72 26.47 L 106.78 26.65 C 106.27 25.55 105.76 24.46 105.26 23.36 L 104.95 23.53 C 103.41 21.45 101.57 19.60 99.49 18.06 L 99.64 17.74 C 98.54 17.24 97.45 16.73 96.36 16.22 L 96.52 15.83 C 95.88 15.50 94.62 14.84 93.98 14.51 C 93.64 14.53 92.96 14.58 92.62 14.61 L 92.61 13.71 C 90.21 13.13 87.82 12.52 85.37 12.21 L 85.72 11.59 C 67.91 11.72 50.09 11.72 32.28 11.59 Z" />
<path fill="#dee5ea" opacity="1.00" d=" M 45.99 28.15 C 54.99 28.05 64.00 28.05 73.00 28.15 C 73.00 33.98 72.97 39.81 73.00 45.64 C 75.33 45.65 77.65 45.66 79.98 45.69 C 79.72 50.38 80.24 55.12 79.67 59.78 C 77.43 63.39 72.42 60.77 69.19 62.11 C 66.24 64.56 63.72 67.47 60.94 70.12 C 60.92 70.85 60.86 72.31 60.84 73.05 C 57.25 73.04 53.65 73.02 50.06 73.09 C 50.06 73.72 50.06 74.98 50.06 75.61 C 56.73 75.78 63.42 75.46 70.08 75.76 C 70.73 76.09 72.03 76.76 72.68 77.09 C 71.21 77.73 69.67 78.19 68.06 78.03 C 61.14 77.99 54.21 78.00 47.29 78.00 C 47.34 75.43 47.32 72.86 47.31 70.30 C 51.00 70.23 54.69 70.25 58.38 70.29 C 55.40 67.65 52.80 64.59 49.74 62.06 C 46.47 60.85 41.62 63.32 39.34 59.82 C 38.75 55.15 39.28 50.40 39.02 45.69 C 41.35 45.66 43.67 45.64 46.00 45.64 C 46.02 39.81 46.02 33.98 45.99 28.15 M 48.82 31.04 C 48.81 33.26 48.81 35.48 48.82 37.70 C 53.29 37.62 57.77 37.64 62.24 37.66 C 62.24 38.33 62.24 39.67 62.24 40.35 C 57.78 40.35 53.33 40.36 48.87 40.33 C 48.82 42.10 48.79 43.87 48.75 45.64 C 53.25 45.66 57.74 45.65 62.24 45.65 C 62.24 46.33 62.24 47.67 62.24 48.35 C 55.51 48.37 48.78 48.31 42.05 48.37 C 42.08 51.89 42.08 55.41 42.06 58.93 C 53.69 58.98 65.31 58.98 76.94 58.93 C 76.92 55.42 76.91 51.90 76.97 48.39 C 74.68 48.36 72.39 48.34 70.10 48.30 C 70.26 42.55 70.17 36.79 70.17 31.04 C 63.06 31.04 55.94 31.04 48.82 31.04 M 53.33 61.73 C 55.41 63.72 57.48 65.73 59.52 67.77 C 61.53 65.72 63.59 63.72 65.66 61.73 C 61.55 61.74 57.44 61.74 53.33 61.73 Z" />
</g>
</svg>
