<?xml version="1.0" encoding="UTF-8" ?>
<!DOCTYPE svg PUBLIC "-//W3C//DTD SVG 1.1//EN" "http://www.w3.org/Graphics/SVG/1.1/DTD/svg11.dtd">
<svg width="117px" height="140px" viewBox="0 0 117 140" version="1.1" xmlns="http://www.w3.org/2000/svg">
<g id="#384450ff">
<path fill="#384450" opacity="1.00" d=" M 0.00 0.00 L 117.00 0.00 L 117.00 140.00 L 0.00 140.00 L 0.00 0.00 M 41.16 53.20 C 39.91 53.94 39.11 55.36 39.31 56.82 C 39.35 60.02 44.20 61.91 46.08 59.09 C 49.57 56.24 44.58 50.34 41.16 53.20 M 56.44 53.54 C 52.34 56.56 57.96 63.21 61.53 59.46 C 65.69 56.46 60.00 49.75 56.44 53.54 M 72.44 53.36 C 67.79 56.27 73.81 63.45 77.47 59.27 C 81.22 56.33 75.93 50.09 72.44 53.36 Z" />
</g>
<g id="#f8fcf8ff">
<path fill="#f8fcf8" opacity="1.00" d=" M 41.16 53.20 C 44.58 50.34 49.57 56.24 46.08 59.09 C 44.20 61.91 39.35 60.02 39.31 56.82 C 39.11 55.36 39.91 53.94 41.16 53.20 Z" />
<path fill="#f8fcf8" opacity="1.00" d=" M 56.44 53.54 C 60.00 49.75 65.69 56.46 61.53 59.46 C 57.96 63.21 52.34 56.56 56.44 53.54 Z" />
<path fill="#f8fcf8" opacity="1.00" d=" M 72.44 53.36 C 75.93 50.09 81.22 56.33 77.47 59.27 C 73.81 63.45 67.79 56.27 72.44 53.36 Z" />
</g>
</svg>
