<?xml version="1.0" encoding="UTF-8" ?>
<!DOCTYPE svg PUBLIC "-//W3C//DTD SVG 1.1//EN" "http://www.w3.org/Graphics/SVG/1.1/DTD/svg11.dtd">
<svg width="117px" height="140px" viewBox="0 0 117 140" version="1.1" xmlns="http://www.w3.org/2000/svg">
<g id="#000000ff">
<path fill="#000000" opacity="1.00" d=" M 0.00 0.00 L 117.00 0.00 L 117.00 140.00 L 0.00 140.00 L 0.00 0.00 M 24.51 12.63 L 24.45 13.87 C 24.01 13.66 23.13 13.26 22.69 13.06 L 22.60 14.65 C 22.14 14.56 21.22 14.38 20.76 14.29 L 20.51 15.30 C 19.10 15.84 17.88 16.74 16.76 17.74 C 15.68 18.52 14.44 19.24 14.19 20.70 L 13.02 20.39 L 13.85 21.80 L 12.75 21.47 C 11.90 22.79 10.90 24.03 10.32 25.51 L 9.32 25.74 C 9.39 26.21 9.53 27.17 9.60 27.65 L 8.04 27.68 C 8.25 28.13 8.68 29.04 8.90 29.49 L 7.46 29.43 C 7.48 30.27 7.52 31.96 7.54 32.80 L 6.42 32.27 C 6.45 33.11 6.49 34.80 6.51 35.64 C 6.30 35.64 5.88 35.65 5.67 35.65 C 5.19 42.42 5.44 49.20 5.38 55.98 C 5.55 72.14 5.02 88.32 5.68 104.48 C 5.89 104.43 6.31 104.32 6.52 104.27 C 6.49 105.12 6.43 106.80 6.41 107.65 L 7.48 107.33 C 7.47 108.13 7.45 109.71 7.43 110.51 L 8.83 110.50 C 8.65 110.96 8.28 111.87 8.10 112.32 L 9.66 112.42 C 9.57 112.88 9.39 113.80 9.31 114.26 L 10.33 114.49 C 10.93 115.98 11.90 117.25 12.77 118.58 L 13.89 118.10 L 13.00 119.62 L 14.61 119.21 L 14.28 120.76 L 15.80 120.37 L 15.37 122.05 L 16.78 121.08 L 16.39 122.19 C 17.74 123.10 19.03 124.14 20.57 124.73 L 20.77 125.75 C 21.22 125.64 22.14 125.41 22.60 125.29 L 22.53 126.80 C 23.04 126.66 24.06 126.39 24.58 126.26 L 24.46 127.55 C 25.30 127.53 26.98 127.49 27.82 127.48 L 27.26 128.58 C 28.14 128.56 29.88 128.52 30.75 128.50 L 30.49 129.30 C 49.21 129.90 67.96 129.65 86.69 129.44 L 86.21 128.52 C 88.73 128.97 91.11 128.01 93.48 127.34 L 93.56 126.12 L 95.29 126.95 C 95.33 126.54 95.40 125.72 95.44 125.31 C 95.89 125.42 96.78 125.64 97.23 125.75 L 97.47 124.71 C 98.94 124.10 100.22 123.12 101.54 122.25 L 101.19 121.09 L 102.57 121.98 L 102.32 120.38 L 103.92 120.60 L 103.31 119.13 L 104.98 119.69 L 104.12 118.18 L 105.24 118.57 C 106.12 117.25 107.07 115.95 107.71 114.48 L 108.75 114.22 C 108.63 113.79 108.39 112.92 108.27 112.49 C 108.69 112.44 109.51 112.33 109.92 112.28 L 109.14 110.53 L 110.56 110.52 C 110.54 109.69 110.50 108.03 110.48 107.19 L 111.59 107.71 C 111.57 106.84 111.51 105.09 111.49 104.22 L 112.31 104.53 C 112.85 96.38 112.53 88.20 112.62 80.03 C 112.46 65.17 112.97 50.30 112.31 35.45 L 111.50 35.79 C 111.51 34.90 111.54 33.10 111.55 32.21 L 110.50 32.88 C 110.51 32.02 110.54 30.29 110.55 29.43 L 109.26 29.62 C 109.40 29.11 109.68 28.10 109.82 27.60 L 108.35 27.63 C 108.44 27.16 108.62 26.23 108.71 25.76 L 107.68 25.51 C 107.09 24.05 106.11 22.80 105.26 21.49 L 104.18 21.79 L 104.93 20.38 L 103.78 20.70 C 103.55 19.24 102.33 18.49 101.23 17.75 C 100.14 16.74 98.93 15.84 97.52 15.33 C 97.43 15.06 97.25 14.51 97.16 14.23 L 95.49 14.72 L 95.29 13.10 C 94.84 13.28 93.95 13.66 93.51 13.85 L 93.52 12.68 C 92.28 12.61 91.16 12.22 90.17 11.51 C 88.52 11.42 86.87 11.42 85.22 11.47 L 85.78 10.46 C 69.52 10.28 53.26 10.43 37.00 10.37 C 32.71 10.25 28.62 11.66 24.51 12.63 Z" />
<path fill="#000000" opacity="1.00" d=" M 27.06 12.62 C 31.16 13.09 34.89 11.34 38.94 11.59 C 53.29 11.66 67.64 11.61 81.99 11.62 C 84.89 11.51 87.59 12.97 90.53 12.61 L 90.56 13.87 C 91.02 13.70 91.94 13.35 92.40 13.17 L 92.65 14.60 C 93.10 14.53 94.01 14.37 94.46 14.30 C 94.54 14.64 94.71 15.33 94.80 15.67 L 96.44 15.19 L 96.63 16.65 C 97.15 16.58 98.20 16.43 98.72 16.35 L 98.26 18.03 L 99.63 17.02 L 99.39 18.10 C 101.64 19.41 103.51 21.29 104.86 23.51 L 105.91 23.38 L 105.07 24.74 L 106.66 24.31 C 106.58 24.82 106.41 25.85 106.33 26.36 L 107.79 26.55 L 107.34 28.20 C 107.69 28.30 108.38 28.48 108.73 28.58 C 108.64 29.02 108.45 29.91 108.36 30.35 L 109.38 30.41 C 109.85 32.53 110.50 34.62 110.66 36.81 L 111.47 36.07 C 111.36 58.32 111.24 80.59 111.53 102.84 L 110.74 102.32 C 110.66 104.80 109.94 107.17 109.39 109.57 L 108.39 109.64 C 108.47 110.09 108.63 111.01 108.71 111.47 L 107.43 111.72 C 107.50 112.17 107.63 113.07 107.69 113.52 L 106.35 113.61 C 106.42 114.14 106.57 115.19 106.65 115.71 L 104.91 115.30 L 106.03 116.66 L 104.90 116.38 C 103.58 118.63 101.71 120.52 99.48 121.87 L 99.61 123.01 L 98.26 121.94 L 98.72 123.64 C 98.19 123.57 97.13 123.42 96.60 123.35 L 96.52 124.71 C 96.07 124.63 95.17 124.49 94.73 124.42 L 94.52 125.65 C 94.04 125.60 93.08 125.50 92.60 125.46 L 92.38 126.91 C 91.87 126.66 90.86 126.16 90.35 125.91 L 90.94 127.37 C 88.99 127.43 87.05 127.59 85.11 127.70 L 85.95 128.65 C 83.30 128.28 80.62 128.38 77.96 128.37 C 62.31 128.45 46.66 128.26 31.02 128.47 L 31.89 127.67 C 29.68 127.49 27.55 126.86 25.40 126.37 L 25.38 125.39 C 24.92 125.47 23.99 125.62 23.53 125.70 L 23.27 124.43 C 22.82 124.50 21.91 124.62 21.46 124.69 L 21.37 123.30 C 20.86 123.40 19.83 123.61 19.32 123.71 L 19.78 122.19 L 18.39 122.79 L 18.46 121.84 C 16.29 120.50 14.46 118.66 13.14 116.47 L 12.02 116.67 L 13.07 115.31 L 11.37 115.71 C 11.44 115.18 11.57 114.14 11.64 113.61 L 10.21 113.45 L 10.65 111.79 C 10.31 111.70 9.61 111.51 9.26 111.42 C 9.36 110.98 9.55 110.10 9.64 109.66 L 8.57 109.54 C 8.11 107.17 7.28 104.87 7.25 102.42 C 7.04 102.48 6.63 102.61 6.43 102.67 C 6.75 80.89 6.73 59.08 6.44 37.30 C 6.65 37.37 7.06 37.50 7.27 37.57 C 7.29 35.10 8.17 32.80 8.60 30.40 L 9.64 30.35 C 9.58 29.98 9.46 29.24 9.39 28.88 C 9.67 28.28 10.23 27.08 10.51 26.49 L 11.74 26.33 C 11.61 25.83 11.35 24.85 11.22 24.35 L 12.83 24.77 L 12.18 23.36 L 13.17 23.55 C 14.02 22.26 15.21 21.14 15.67 19.62 C 16.80 19.41 17.83 18.93 18.76 18.20 L 18.34 16.96 L 19.80 18.00 L 19.28 16.32 C 19.80 16.41 20.84 16.59 21.36 16.68 L 21.56 15.20 L 22.94 15.56 C 23.53 14.72 24.35 14.32 25.41 14.34 L 25.63 13.08 C 26.14 13.33 27.15 13.84 27.65 14.09 L 27.06 12.62 M 60.35 27.13 C 56.36 31.08 52.40 35.06 48.43 39.03 C 50.09 41.07 52.48 41.58 55.00 41.31 C 55.00 43.31 55.00 45.31 55.00 47.31 C 53.03 47.31 51.07 47.31 49.10 47.32 C 49.13 44.87 48.68 42.35 46.59 40.80 C 42.71 44.79 38.76 48.71 34.80 52.62 C 38.72 56.62 42.71 60.54 46.65 64.52 C 47.44 63.65 48.23 62.79 49.02 61.92 C 49.01 60.61 49.00 59.31 48.99 58.00 C 50.99 58.00 53.00 58.00 55.00 58.00 C 55.00 59.98 55.00 61.96 55.00 63.95 C 52.46 63.63 50.11 64.30 48.43 66.28 C 52.39 70.27 56.38 74.23 60.35 78.21 C 64.30 74.26 68.22 70.28 72.22 66.38 C 70.64 64.35 68.16 63.88 65.72 63.89 C 65.73 61.93 65.73 59.97 65.73 58.00 C 67.71 58.00 69.70 58.00 71.68 58.00 C 71.38 60.52 71.95 62.91 73.98 64.57 C 77.95 60.60 81.93 56.63 85.89 52.65 C 81.96 48.72 78.03 44.79 74.10 40.86 C 73.71 41.20 72.92 41.89 72.53 42.23 C 71.82 43.84 71.73 45.60 71.62 47.32 C 69.65 47.31 67.69 47.31 65.72 47.31 C 65.73 45.33 65.73 43.35 65.73 41.37 C 67.45 41.21 69.22 41.12 70.82 40.42 C 71.15 40.05 71.80 39.30 72.12 38.92 C 68.21 34.97 64.30 31.03 60.35 27.13 Z" />
<path fill="#000000" opacity="1.00" d=" M 60.35 30.94 C 62.89 33.51 65.46 36.05 68.02 38.61 C 66.34 38.60 64.67 38.60 63.00 38.60 C 63.00 42.40 63.00 46.20 63.00 50.00 C 66.81 50.00 70.62 50.00 74.43 50.00 C 74.43 48.34 74.42 46.69 74.40 45.03 C 76.97 47.56 79.53 50.10 82.08 52.66 C 79.54 55.21 77.01 57.77 74.40 60.25 C 74.41 58.61 74.41 56.97 74.42 55.33 C 70.61 55.31 66.81 55.31 63.00 55.31 C 62.99 59.13 63.00 62.94 63.00 66.76 C 64.66 66.76 66.32 66.76 67.98 66.76 C 65.45 69.30 62.90 71.84 60.36 74.38 C 57.80 71.86 55.26 69.32 52.74 66.75 C 54.38 66.74 56.02 66.74 57.66 66.75 C 57.66 62.94 57.67 59.13 57.65 55.32 C 53.86 55.31 50.07 55.31 46.29 55.31 C 46.28 56.96 46.26 58.60 46.25 60.25 C 43.68 57.75 41.16 55.20 38.63 52.65 C 41.18 50.11 43.73 47.56 46.28 45.02 C 46.27 46.68 46.27 48.34 46.27 50.00 C 50.07 50.00 53.86 50.01 57.66 50.00 C 57.66 46.20 57.66 42.40 57.65 38.59 C 56.02 38.61 54.38 38.63 52.75 38.64 C 55.23 36.02 57.80 33.49 60.35 30.94 Z" />
</g>
<g id="#f1f6f5ff">
<path fill="#f1f6f5" opacity="1.00" d=" M 24.51 12.63 C 28.62 11.66 32.71 10.25 37.00 10.37 C 53.26 10.43 69.52 10.28 85.78 10.46 L 85.22 11.47 C 86.87 11.42 88.52 11.42 90.17 11.51 C 91.16 12.22 92.28 12.61 93.52 12.68 L 93.51 13.85 C 93.95 13.66 94.84 13.28 95.29 13.10 L 95.49 14.72 L 97.16 14.23 C 97.25 14.51 97.43 15.06 97.52 15.33 C 98.93 15.84 100.14 16.74 101.23 17.75 C 102.33 18.49 103.55 19.24 103.78 20.70 L 104.93 20.38 L 104.18 21.79 L 105.26 21.49 C 106.11 22.80 107.09 24.05 107.68 25.51 L 108.71 25.76 C 108.62 26.23 108.44 27.16 108.35 27.63 L 109.82 27.60 C 109.68 28.10 109.40 29.11 109.26 29.62 L 110.55 29.43 C 110.54 30.29 110.51 32.02 110.50 32.88 L 111.55 32.21 C 111.54 33.10 111.51 34.90 111.50 35.79 L 112.31 35.45 C 112.97 50.30 112.46 65.17 112.62 80.03 C 112.53 88.20 112.85 96.38 112.31 104.53 L 111.49 104.22 C 111.51 105.09 111.57 106.84 111.59 107.71 L 110.48 107.19 C 110.50 108.03 110.54 109.69 110.56 110.52 L 109.14 110.53 L 109.92 112.28 C 109.51 112.33 108.69 112.44 108.27 112.49 C 108.39 112.92 108.63 113.79 108.75 114.22 L 107.71 114.48 C 107.07 115.95 106.12 117.25 105.24 118.57 L 104.12 118.18 L 104.98 119.69 L 103.31 119.13 L 103.92 120.60 L 102.32 120.38 L 102.57 121.98 L 101.19 121.09 L 101.54 122.25 C 100.22 123.12 98.94 124.10 97.47 124.71 L 97.23 125.75 C 96.78 125.64 95.89 125.42 95.44 125.31 C 95.40 125.72 95.33 126.54 95.29 126.95 L 93.56 126.12 L 93.48 127.34 C 91.11 128.01 88.73 128.97 86.21 128.52 L 86.69 129.44 C 67.96 129.65 49.21 129.90 30.49 129.30 L 30.75 128.50 C 29.88 128.52 28.14 128.56 27.26 128.58 L 27.82 127.48 C 26.98 127.49 25.30 127.53 24.46 127.55 L 24.58 126.26 C 24.06 126.39 23.04 126.66 22.53 126.80 L 22.60 125.29 C 22.14 125.41 21.22 125.64 20.77 125.75 L 20.57 124.73 C 19.03 124.14 17.74 123.10 16.39 122.19 L 16.78 121.08 L 15.37 122.05 L 15.80 120.37 L 14.28 120.76 L 14.61 119.21 L 13.00 119.62 L 13.89 118.10 L 12.77 118.58 C 11.90 117.25 10.93 115.98 10.33 114.49 L 9.31 114.26 C 9.39 113.80 9.57 112.88 9.66 112.42 L 8.10 112.32 C 8.28 111.87 8.65 110.96 8.83 110.50 L 7.43 110.51 C 7.45 109.71 7.47 108.13 7.48 107.33 L 6.41 107.65 C 6.43 106.80 6.49 105.12 6.52 104.27 C 6.31 104.32 5.89 104.43 5.68 104.48 C 5.02 88.32 5.55 72.14 5.38 55.98 C 5.44 49.20 5.19 42.42 5.67 35.65 C 5.88 35.65 6.30 35.64 6.51 35.64 C 6.49 34.80 6.45 33.11 6.42 32.27 L 7.54 32.80 C 7.52 31.96 7.48 30.27 7.46 29.43 L 8.90 29.49 C 8.68 29.04 8.25 28.13 8.04 27.68 L 9.60 27.65 C 9.53 27.17 9.39 26.21 9.32 25.74 L 10.32 25.51 C 10.90 24.03 11.90 22.79 12.75 21.47 L 13.85 21.80 L 13.02 20.39 L 14.19 20.70 C 14.44 19.24 15.68 18.52 16.76 17.74 C 17.88 16.74 19.10 15.84 20.51 15.30 L 20.76 14.29 C 21.22 14.38 22.14 14.56 22.60 14.65 L 22.69 13.06 C 23.13 13.26 24.01 13.66 24.45 13.87 L 24.51 12.63 M 27.06 12.62 L 27.65 14.09 C 27.15 13.84 26.14 13.33 25.63 13.08 L 25.41 14.34 C 24.35 14.32 23.53 14.72 22.94 15.56 L 21.56 15.20 L 21.36 16.68 C 20.84 16.59 19.80 16.41 19.28 16.32 L 19.80 18.00 L 18.34 16.96 L 18.76 18.20 C 17.83 18.93 16.80 19.41 15.67 19.62 C 15.21 21.14 14.02 22.26 13.17 23.55 L 12.18 23.36 L 12.83 24.77 L 11.22 24.35 C 11.35 24.85 11.61 25.83 11.74 26.33 L 10.51 26.49 C 10.23 27.08 9.67 28.28 9.39 28.88 C 9.46 29.24 9.58 29.98 9.64 30.35 L 8.60 30.40 C 8.17 32.80 7.29 35.10 7.27 37.57 C 7.06 37.50 6.65 37.37 6.44 37.30 C 6.73 59.08 6.75 80.89 6.43 102.67 C 6.63 102.61 7.04 102.48 7.25 102.42 C 7.28 104.87 8.11 107.17 8.57 109.54 L 9.64 109.66 C 9.55 110.10 9.36 110.98 9.26 111.42 C 9.61 111.51 10.31 111.70 10.65 111.79 L 10.21 113.45 L 11.64 113.61 C 11.57 114.14 11.44 115.18 11.37 115.71 L 13.07 115.31 L 12.02 116.67 L 13.14 116.47 C 14.46 118.66 16.29 120.50 18.46 121.84 L 18.39 122.79 L 19.78 122.19 L 19.32 123.71 C 19.83 123.61 20.86 123.40 21.37 123.30 L 21.46 124.69 C 21.91 124.62 22.82 124.50 23.27 124.43 L 23.53 125.70 C 23.99 125.62 24.92 125.47 25.38 125.39 L 25.40 126.37 C 27.55 126.86 29.68 127.49 31.89 127.67 L 31.02 128.47 C 46.66 128.26 62.31 128.45 77.96 128.37 C 80.62 128.38 83.30 128.28 85.95 128.65 L 85.11 127.70 C 87.05 127.59 88.99 127.43 90.94 127.37 L 90.35 125.91 C 90.86 126.16 91.87 126.66 92.38 126.91 L 92.60 125.46 C 93.08 125.50 94.04 125.60 94.52 125.65 L 94.73 124.42 C 95.17 124.49 96.07 124.63 96.52 124.71 L 96.60 123.35 C 97.13 123.42 98.19 123.57 98.72 123.64 L 98.26 121.94 L 99.61 123.01 L 99.48 121.87 C 101.71 120.52 103.58 118.63 104.90 116.38 L 106.03 116.66 L 104.91 115.30 L 106.65 115.71 C 106.57 115.19 106.42 114.14 106.35 113.61 L 107.69 113.52 C 107.63 113.07 107.50 112.17 107.43 111.72 L 108.71 111.47 C 108.63 111.01 108.47 110.09 108.39 109.64 L 109.39 109.57 C 109.94 107.17 110.66 104.80 110.74 102.32 L 111.53 102.84 C 111.24 80.59 111.36 58.32 111.47 36.07 L 110.66 36.81 C 110.50 34.62 109.85 32.53 109.38 30.41 L 108.36 30.35 C 108.45 29.91 108.64 29.02 108.73 28.58 C 108.38 28.48 107.69 28.30 107.34 28.20 L 107.79 26.55 L 106.33 26.36 C 106.41 25.85 106.58 24.82 106.66 24.31 L 105.07 24.74 L 105.91 23.38 L 104.86 23.51 C 103.51 21.29 101.64 19.41 99.39 18.10 L 99.63 17.02 L 98.26 18.03 L 98.72 16.35 C 98.20 16.43 97.15 16.58 96.63 16.65 L 96.44 15.19 L 94.80 15.67 C 94.71 15.33 94.54 14.64 94.46 14.30 C 94.01 14.37 93.10 14.53 92.65 14.60 L 92.40 13.17 C 91.94 13.35 91.02 13.70 90.56 13.87 L 90.53 12.61 C 87.59 12.97 84.89 11.51 81.99 11.62 C 67.64 11.61 53.29 11.66 38.94 11.59 C 34.89 11.34 31.16 13.09 27.06 12.62 Z" />
<path fill="#f1f6f5" opacity="1.00" d=" M 60.35 27.13 C 64.30 31.03 68.21 34.97 72.12 38.92 C 71.80 39.30 71.15 40.05 70.82 40.42 C 69.22 41.12 67.45 41.21 65.73 41.37 C 65.73 43.35 65.73 45.33 65.72 47.31 C 67.69 47.31 69.65 47.31 71.62 47.32 C 71.73 45.60 71.82 43.84 72.53 42.23 C 72.92 41.89 73.71 41.20 74.10 40.86 C 78.03 44.79 81.96 48.72 85.89 52.65 C 81.93 56.63 77.95 60.60 73.98 64.57 C 71.95 62.91 71.38 60.52 71.68 58.00 C 69.70 58.00 67.71 58.00 65.73 58.00 C 65.73 59.97 65.73 61.93 65.72 63.89 C 68.16 63.88 70.64 64.35 72.22 66.38 C 68.22 70.28 64.30 74.26 60.35 78.21 C 56.38 74.23 52.39 70.27 48.43 66.28 C 50.11 64.30 52.46 63.63 55.00 63.95 C 55.00 61.96 55.00 59.98 55.00 58.00 C 53.00 58.00 50.99 58.00 48.99 58.00 C 49.00 59.31 49.01 60.61 49.02 61.92 C 48.23 62.79 47.44 63.65 46.65 64.52 C 42.71 60.54 38.72 56.62 34.80 52.62 C 38.76 48.71 42.71 44.79 46.59 40.80 C 48.68 42.35 49.13 44.87 49.10 47.32 C 51.07 47.31 53.03 47.31 55.00 47.31 C 55.00 45.31 55.00 43.31 55.00 41.31 C 52.48 41.58 50.09 41.07 48.43 39.03 C 52.40 35.06 56.36 31.08 60.35 27.13 M 60.35 30.94 C 57.80 33.49 55.23 36.02 52.75 38.64 C 54.38 38.63 56.02 38.61 57.65 38.59 C 57.66 42.40 57.66 46.20 57.66 50.00 C 53.86 50.01 50.07 50.00 46.27 50.00 C 46.27 48.34 46.27 46.68 46.28 45.02 C 43.73 47.56 41.18 50.11 38.63 52.65 C 41.16 55.20 43.68 57.75 46.25 60.25 C 46.26 58.60 46.28 56.96 46.29 55.31 C 50.07 55.31 53.86 55.31 57.65 55.32 C 57.67 59.13 57.66 62.94 57.66 66.75 C 56.02 66.74 54.38 66.74 52.74 66.75 C 55.26 69.32 57.80 71.86 60.36 74.38 C 62.90 71.84 65.45 69.30 67.98 66.76 C 66.32 66.76 64.66 66.76 63.00 66.76 C 63.00 62.94 62.99 59.13 63.00 55.31 C 66.81 55.31 70.61 55.31 74.42 55.33 C 74.41 56.97 74.41 58.61 74.40 60.25 C 77.01 57.77 79.54 55.21 82.08 52.66 C 79.53 50.10 76.97 47.56 74.40 45.03 C 74.42 46.69 74.43 48.34 74.43 50.00 C 70.62 50.00 66.81 50.00 63.00 50.00 C 63.00 46.20 63.00 42.40 63.00 38.60 C 64.67 38.60 66.34 38.60 68.02 38.61 C 65.46 36.05 62.89 33.51 60.35 30.94 Z" />
</g>
</svg>
