<?xml version="1.0" encoding="UTF-8" ?>
<!DOCTYPE svg PUBLIC "-//W3C//DTD SVG 1.1//EN" "http://www.w3.org/Graphics/SVG/1.1/DTD/svg11.dtd">
<svg width="117px" height="140px" viewBox="0 0 117 140" version="1.1" xmlns="http://www.w3.org/2000/svg">
<g id="#000000ff">
<path fill="#000000" opacity="1.00" d=" M 0.00 0.00 L 117.00 0.00 L 117.00 140.00 L 0.00 140.00 L 0.00 0.00 M 29.53 10.79 C 18.41 13.01 8.94 21.58 5.59 32.41 C 3.75 37.75 4.23 43.47 4.18 49.02 C 4.23 66.04 4.09 83.06 4.25 100.08 C 4.82 115.95 19.12 129.79 35.02 129.80 C 50.70 129.80 66.39 129.91 82.07 129.74 C 97.93 129.19 111.79 114.89 111.79 99.01 C 111.84 79.66 111.84 60.30 111.79 40.95 C 111.77 25.06 97.90 10.82 82.05 10.25 C 68.72 10.07 55.39 10.24 42.06 10.18 C 37.88 10.21 33.65 9.96 29.53 10.79 Z" />
<path fill="#000000" opacity="1.00" d=" M 29.37 12.59 C 33.81 11.48 38.41 11.86 42.93 11.82 C 55.30 11.81 67.67 11.84 80.04 11.80 C 87.73 11.82 95.27 14.98 100.88 20.21 C 106.67 25.88 110.20 33.83 110.19 41.97 C 110.18 60.66 110.16 79.35 110.20 98.03 C 110.23 105.97 106.83 113.71 101.32 119.36 C 95.67 124.88 87.92 128.17 80.01 128.19 C 65.31 128.18 50.62 128.16 35.93 128.20 C 26.13 128.14 16.41 123.07 11.03 114.84 C 7.66 109.93 5.82 104.00 5.80 98.04 C 5.85 79.02 5.80 59.99 5.82 40.97 C 6.15 27.63 16.29 15.34 29.37 12.59 M 36.61 42.00 C 36.60 50.67 36.60 59.33 36.61 68.00 C 43.87 68.01 51.13 68.00 58.39 68.00 C 58.39 66.00 58.39 64.00 58.39 62.00 C 54.06 62.00 49.72 62.02 45.38 61.97 C 45.38 60.67 45.37 59.36 45.36 58.06 C 48.90 57.99 52.45 57.99 56.00 58.00 C 56.00 55.87 56.00 53.74 56.00 51.61 C 52.46 51.60 48.92 51.60 45.38 51.62 C 45.38 50.54 45.38 49.46 45.38 48.39 C 49.59 48.40 53.79 48.40 58.00 48.39 C 58.00 46.26 58.00 44.13 58.00 42.00 C 50.87 42.00 43.74 42.00 36.61 42.00 M 61.61 49.20 C 61.61 55.46 61.60 61.73 61.61 68.00 C 64.20 68.00 66.80 68.00 69.39 68.00 C 69.51 64.15 69.12 60.26 69.60 56.43 C 69.93 53.92 74.13 53.95 74.41 56.48 C 74.87 60.30 74.49 64.16 74.61 68.00 C 77.20 68.00 79.79 68.00 82.39 68.00 C 82.06 62.61 83.31 56.91 81.24 51.77 C 78.46 46.96 71.38 47.84 68.27 51.88 C 68.36 51.19 68.54 49.81 68.64 49.12 C 66.29 49.17 63.95 49.20 61.61 49.20 Z" />
</g>
<g id="#10eb51ff">
<path fill="#10eb51" opacity="1.00" d=" M 29.53 10.79 C 33.65 9.96 37.88 10.21 42.06 10.18 C 55.39 10.24 68.72 10.07 82.05 10.25 C 97.90 10.82 111.77 25.06 111.79 40.95 C 111.84 60.30 111.84 79.66 111.79 99.01 C 111.79 114.89 97.93 129.19 82.07 129.74 C 66.39 129.91 50.70 129.80 35.02 129.80 C 19.12 129.79 4.82 115.95 4.25 100.08 C 4.09 83.06 4.23 66.04 4.18 49.02 C 4.23 43.47 3.75 37.75 5.59 32.41 C 8.94 21.58 18.41 13.01 29.53 10.79 M 29.37 12.59 C 16.29 15.34 6.15 27.63 5.82 40.97 C 5.80 59.99 5.85 79.02 5.80 98.04 C 5.82 104.00 7.66 109.93 11.03 114.84 C 16.41 123.07 26.13 128.14 35.93 128.20 C 50.62 128.16 65.31 128.18 80.01 128.19 C 87.92 128.17 95.67 124.88 101.32 119.36 C 106.83 113.71 110.23 105.97 110.20 98.03 C 110.16 79.35 110.18 60.66 110.19 41.97 C 110.20 33.83 106.67 25.88 100.88 20.21 C 95.27 14.98 87.73 11.82 80.04 11.80 C 67.67 11.84 55.30 11.81 42.93 11.82 C 38.41 11.86 33.81 11.48 29.37 12.59 Z" />
<path fill="#10eb51" opacity="1.00" d=" M 36.61 42.00 C 43.74 42.00 50.87 42.00 58.00 42.00 C 58.00 44.13 58.00 46.26 58.00 48.39 C 53.79 48.40 49.59 48.40 45.38 48.39 C 45.38 49.46 45.38 50.54 45.38 51.62 C 48.92 51.60 52.46 51.60 56.00 51.61 C 56.00 53.74 56.00 55.87 56.00 58.00 C 52.45 57.99 48.90 57.99 45.36 58.06 C 45.37 59.36 45.38 60.67 45.38 61.97 C 49.72 62.02 54.06 62.00 58.39 62.00 C 58.39 64.00 58.39 66.00 58.39 68.00 C 51.13 68.00 43.87 68.01 36.61 68.00 C 36.60 59.33 36.60 50.67 36.61 42.00 Z" />
<path fill="#10eb51" opacity="1.00" d=" M 61.61 49.20 C 63.95 49.20 66.29 49.17 68.64 49.12 C 68.54 49.81 68.36 51.19 68.27 51.88 C 71.38 47.84 78.46 46.96 81.24 51.77 C 83.31 56.91 82.06 62.61 82.39 68.00 C 79.79 68.00 77.20 68.00 74.61 68.00 C 74.49 64.16 74.87 60.30 74.41 56.48 C 74.13 53.95 69.93 53.92 69.60 56.43 C 69.12 60.26 69.51 64.15 69.39 68.00 C 66.80 68.00 64.20 68.00 61.61 68.00 C 61.60 61.73 61.61 55.46 61.61 49.20 Z" />
</g>
</svg>
