<?xml version="1.0" encoding="UTF-8" ?>
<!DOCTYPE svg PUBLIC "-//W3C//DTD SVG 1.1//EN" "http://www.w3.org/Graphics/SVG/1.1/DTD/svg11.dtd">
<svg width="117px" height="140px" viewBox="0 0 117 140" version="1.1" xmlns="http://www.w3.org/2000/svg">
<g id="#000000ff">
<path fill="#000000" opacity="1.00" d=" M 0.00 0.00 L 117.00 0.00 L 117.00 140.00 L 0.00 140.00 L 0.00 0.00 M 39.53 51.49 C 37.24 51.76 34.46 50.85 32.65 52.65 C 31.27 53.71 31.65 55.51 31.56 57.02 C 31.55 64.80 31.65 72.58 31.52 80.36 C 32.38 81.57 33.32 83.06 35.04 82.83 C 50.39 82.92 65.74 82.86 81.08 82.86 C 82.85 83.09 84.90 81.99 84.80 80.00 C 84.98 72.60 84.84 65.20 84.84 57.80 C 82.29 57.80 79.73 57.80 77.18 57.79 C 77.22 48.39 77.19 39.00 77.20 29.60 C 64.63 29.53 52.07 29.62 39.51 29.56 C 39.48 36.87 39.44 44.18 39.53 51.49 Z" />
<path fill="#000000" opacity="1.00" d=" M 42.58 32.71 C 53.11 32.74 63.63 32.68 74.15 32.74 C 74.17 40.02 74.13 47.29 74.18 54.57 C 67.30 54.79 60.41 54.65 53.53 54.65 C 53.54 52.57 53.55 50.50 53.54 48.43 C 49.88 48.46 46.22 48.45 42.56 48.47 C 42.59 43.21 42.58 37.96 42.58 32.71 M 45.63 35.80 C 45.24 37.54 45.66 39.56 47.89 39.16 C 55.48 39.19 63.07 39.13 70.66 39.18 C 70.67 38.04 70.68 36.90 70.68 35.76 C 62.33 35.85 53.98 35.78 45.63 35.80 M 45.62 42.31 C 45.64 43.07 45.68 44.58 45.70 45.33 C 54.03 45.35 62.36 45.28 70.69 45.37 C 70.72 44.60 70.78 43.07 70.80 42.30 C 62.41 42.29 54.02 42.26 45.62 42.31 M 56.66 48.47 C 56.65 49.23 56.65 50.76 56.65 51.53 C 61.37 51.57 66.10 51.56 70.83 51.54 C 70.78 50.50 70.73 49.46 70.69 48.42 C 66.01 48.48 61.33 48.43 56.66 48.47 Z" />
<path fill="#000000" opacity="1.00" d=" M 34.71 54.68 C 38.89 54.68 43.08 54.68 47.26 54.69 C 46.99 57.34 47.47 60.98 50.89 60.99 C 61.19 61.07 71.52 60.63 81.83 61.21 C 81.73 67.39 81.77 73.58 81.80 79.77 C 66.10 79.77 50.40 79.80 34.70 79.75 C 34.73 71.39 34.71 63.04 34.71 54.68 Z" />
</g>
<g id="#f7fbf7ff">
<path fill="#f7fbf7" opacity="1.00" d=" M 39.53 51.49 C 39.44 44.18 39.48 36.87 39.51 29.56 C 52.07 29.62 64.63 29.53 77.20 29.60 C 77.19 39.00 77.22 48.39 77.18 57.79 C 79.73 57.80 82.29 57.80 84.84 57.80 C 84.84 65.20 84.98 72.60 84.80 80.00 C 84.90 81.99 82.85 83.09 81.08 82.86 C 65.74 82.86 50.39 82.92 35.04 82.83 C 33.32 83.06 32.38 81.57 31.52 80.36 C 31.65 72.58 31.55 64.80 31.56 57.02 C 31.65 55.51 31.27 53.71 32.65 52.65 C 34.46 50.85 37.24 51.76 39.53 51.49 M 42.58 32.71 C 42.58 37.96 42.59 43.21 42.56 48.47 C 46.22 48.45 49.88 48.46 53.54 48.43 C 53.55 50.50 53.54 52.57 53.53 54.65 C 60.41 54.65 67.30 54.79 74.18 54.57 C 74.13 47.29 74.17 40.02 74.15 32.74 C 63.63 32.68 53.11 32.74 42.58 32.71 M 34.71 54.68 C 34.71 63.04 34.73 71.39 34.70 79.75 C 50.40 79.80 66.10 79.77 81.80 79.77 C 81.77 73.58 81.73 67.39 81.83 61.21 C 71.52 60.63 61.19 61.07 50.89 60.99 C 47.47 60.98 46.99 57.34 47.26 54.69 C 43.08 54.68 38.89 54.68 34.71 54.68 Z" />
<path fill="#f7fbf7" opacity="1.00" d=" M 45.63 35.80 C 53.98 35.78 62.33 35.85 70.68 35.76 C 70.68 36.90 70.67 38.04 70.66 39.18 C 63.07 39.13 55.48 39.19 47.89 39.16 C 45.66 39.56 45.24 37.54 45.63 35.80 Z" />
<path fill="#f7fbf7" opacity="1.00" d=" M 45.62 42.31 C 54.02 42.26 62.41 42.29 70.80 42.30 C 70.78 43.07 70.72 44.60 70.69 45.37 C 62.36 45.28 54.03 45.35 45.70 45.33 C 45.68 44.58 45.64 43.07 45.62 42.31 Z" />
<path fill="#f7fbf7" opacity="1.00" d=" M 56.66 48.47 C 61.33 48.43 66.01 48.48 70.69 48.42 C 70.73 49.46 70.78 50.50 70.83 51.54 C 66.10 51.56 61.37 51.57 56.65 51.53 C 56.65 50.76 56.65 49.23 56.66 48.47 Z" />
</g>
</svg>
