<?xml version="1.0" encoding="UTF-8" ?>
<!DOCTYPE svg PUBLIC "-//W3C//DTD SVG 1.1//EN" "http://www.w3.org/Graphics/SVG/1.1/DTD/svg11.dtd">
<svg width="117px" height="140px" viewBox="0 0 117 140" version="1.1" xmlns="http://www.w3.org/2000/svg">
<g id="#000000ff">
<path fill="#000000" opacity="1.00" d=" M 0.00 0.00 L 117.00 0.00 L 117.00 140.00 L 0.00 140.00 L 0.00 0.00 M 33.28 10.34 C 18.07 11.80 5.24 25.64 5.18 40.96 C 5.12 60.32 5.13 79.69 5.17 99.05 C 5.23 114.93 19.05 129.20 34.92 129.78 C 50.63 129.92 66.35 129.86 82.07 129.81 C 97.97 129.78 112.26 115.87 112.78 99.99 C 112.95 80.64 112.82 61.28 112.84 41.93 C 113.11 29.13 104.58 16.84 92.66 12.32 C 85.48 9.25 77.55 10.33 69.97 10.15 C 57.74 10.27 45.50 9.90 33.28 10.34 Z" />
<path fill="#000000" opacity="1.00" d=" M 30.45 12.62 C 32.58 12.12 34.76 11.91 36.94 11.84 C 51.63 11.86 66.32 11.87 81.01 11.84 C 90.78 11.87 100.46 16.90 105.87 25.07 C 109.28 29.99 111.10 35.95 111.17 41.93 C 111.14 60.63 111.13 79.33 111.17 98.02 C 111.17 108.04 105.84 117.90 97.35 123.25 C 92.53 126.46 86.76 128.06 81.00 128.17 C 66.36 128.13 51.71 128.14 37.07 128.16 C 31.27 128.10 25.47 126.46 20.62 123.24 C 12.17 117.89 6.83 108.04 6.84 98.05 C 6.88 79.02 6.82 59.99 6.87 40.97 C 7.16 27.62 17.36 15.31 30.45 12.62 M 57.20 27.07 C 57.21 34.33 57.25 41.60 57.17 48.86 C 57.96 48.87 59.54 48.89 60.33 48.91 C 60.32 41.62 60.34 34.32 60.32 27.03 C 59.54 27.04 57.98 27.06 57.20 27.07 M 37.16 42.16 C 31.63 50.27 31.66 61.76 37.22 69.84 C 41.00 75.49 47.12 79.62 53.88 80.62 C 62.20 82.07 71.13 79.00 76.65 72.58 C 82.79 65.95 84.53 55.88 81.52 47.43 C 79.67 42.10 75.74 37.77 71.20 34.54 C 70.48 35.38 69.71 36.19 68.90 36.95 C 75.60 40.80 80.00 48.30 79.85 56.05 C 79.96 65.00 73.94 73.61 65.48 76.53 C 58.61 79.13 50.47 77.86 44.69 73.33 C 39.04 69.11 35.79 61.97 36.16 54.94 C 36.43 47.59 40.70 40.61 47.10 36.98 C 46.30 36.20 45.55 35.39 44.83 34.54 C 41.92 36.69 39.13 39.09 37.16 42.16 Z" />
</g>
<g id="#16e556ff">
<path fill="#16e556" opacity="1.00" d=" M 33.28 10.34 C 45.50 9.90 57.74 10.27 69.97 10.15 C 77.55 10.33 85.48 9.25 92.66 12.32 C 104.58 16.84 113.11 29.13 112.84 41.93 C 112.82 61.28 112.95 80.64 112.78 99.99 C 112.26 115.87 97.97 129.78 82.07 129.81 C 66.35 129.86 50.63 129.92 34.92 129.78 C 19.05 129.20 5.23 114.93 5.17 99.05 C 5.13 79.69 5.12 60.32 5.18 40.96 C 5.24 25.64 18.07 11.80 33.28 10.34 M 30.45 12.62 C 17.36 15.31 7.16 27.62 6.87 40.97 C 6.82 59.99 6.88 79.02 6.84 98.05 C 6.83 108.04 12.17 117.89 20.62 123.24 C 25.47 126.46 31.27 128.10 37.07 128.16 C 51.71 128.14 66.36 128.13 81.00 128.17 C 86.76 128.06 92.53 126.46 97.35 123.25 C 105.84 117.90 111.17 108.04 111.17 98.02 C 111.13 79.33 111.14 60.63 111.17 41.93 C 111.10 35.95 109.28 29.99 105.87 25.07 C 100.46 16.90 90.78 11.87 81.01 11.84 C 66.32 11.87 51.63 11.86 36.94 11.84 C 34.76 11.91 32.58 12.12 30.45 12.62 Z" />
<path fill="#16e556" opacity="1.00" d=" M 57.20 27.07 C 57.98 27.06 59.54 27.04 60.32 27.03 C 60.34 34.32 60.32 41.62 60.33 48.91 C 59.54 48.89 57.96 48.87 57.17 48.86 C 57.25 41.60 57.21 34.33 57.20 27.07 Z" />
<path fill="#16e556" opacity="1.00" d=" M 37.16 42.16 C 39.13 39.09 41.92 36.69 44.83 34.54 C 45.55 35.39 46.30 36.20 47.10 36.98 C 40.70 40.61 36.43 47.59 36.16 54.94 C 35.79 61.97 39.04 69.11 44.69 73.33 C 50.47 77.86 58.61 79.13 65.48 76.53 C 73.94 73.61 79.96 65.00 79.85 56.05 C 80.00 48.30 75.60 40.80 68.90 36.95 C 69.71 36.19 70.48 35.38 71.20 34.54 C 75.74 37.77 79.67 42.10 81.52 47.43 C 84.53 55.88 82.79 65.95 76.65 72.58 C 71.13 79.00 62.20 82.07 53.88 80.62 C 47.12 79.62 41.00 75.49 37.22 69.84 C 31.66 61.76 31.63 50.27 37.16 42.16 Z" />
</g>
</svg>
