<?xml version="1.0" encoding="UTF-8" ?>
<!DOCTYPE svg PUBLIC "-//W3C//DTD SVG 1.1//EN" "http://www.w3.org/Graphics/SVG/1.1/DTD/svg11.dtd">
<svg width="117px" height="140px" viewBox="0 0 117 140" version="1.1" xmlns="http://www.w3.org/2000/svg">
<g id="#000000ff">
<path fill="#000000" opacity="1.00" d=" M 0.00 0.00 L 117.00 0.00 L 117.00 140.00 L 0.00 140.00 L 0.00 0.00 M 27.24 11.62 L 27.90 12.46 C 27.04 12.46 25.33 12.45 24.47 12.45 L 24.52 13.84 C 24.05 13.65 23.12 13.27 22.66 13.09 L 22.61 14.64 C 22.15 14.55 21.22 14.37 20.76 14.28 L 20.54 15.25 C 19.08 15.96 17.73 16.87 16.39 17.78 L 16.59 18.89 L 15.22 18.09 L 15.71 19.77 L 14.25 19.12 L 14.78 20.57 L 13.26 20.30 L 13.75 21.67 L 12.81 21.37 C 11.89 22.75 10.95 24.12 10.16 25.59 L 9.25 25.75 C 9.36 26.21 9.57 27.13 9.68 27.59 L 8.14 27.65 C 8.30 28.12 8.61 29.06 8.77 29.53 L 7.66 29.52 C 7.08 31.55 6.42 33.58 6.33 35.71 L 5.68 35.53 C 5.18 42.33 5.43 49.16 5.38 55.97 C 5.55 72.15 5.01 88.34 5.69 104.51 L 6.33 104.26 C 6.42 106.40 7.08 108.45 7.68 110.49 L 8.77 110.47 C 8.61 110.94 8.30 111.88 8.14 112.34 L 9.67 112.42 C 9.57 112.88 9.38 113.80 9.28 114.26 L 10.16 114.43 C 10.95 115.85 11.85 117.21 12.76 118.57 L 13.18 118.42 C 13.62 119.68 14.46 120.50 15.72 120.87 L 15.23 122.06 L 16.58 121.02 L 16.35 122.18 C 17.74 123.10 19.12 124.04 20.58 124.83 L 20.75 125.74 C 21.21 125.64 22.13 125.44 22.59 125.34 L 22.64 126.87 C 23.11 126.71 24.05 126.39 24.52 126.22 L 24.51 127.30 C 26.87 128.12 29.30 128.82 31.84 128.61 L 31.26 129.41 C 46.85 129.89 62.46 129.49 78.06 129.63 C 80.93 129.56 83.96 129.96 86.68 128.79 C 87.53 128.69 89.22 128.50 90.06 128.41 C 91.18 127.98 92.32 127.59 93.47 127.24 L 93.48 126.23 C 93.95 126.39 94.89 126.71 95.36 126.87 L 95.40 125.33 C 95.86 125.43 96.79 125.64 97.26 125.74 L 97.40 124.82 C 98.84 124.04 100.22 123.14 101.58 122.24 L 101.41 121.80 C 102.59 121.42 103.41 120.64 103.86 119.47 L 104.99 119.63 L 104.08 118.32 L 105.17 118.65 C 106.10 117.26 107.04 115.88 107.82 114.40 L 108.72 114.27 C 108.62 113.80 108.43 112.87 108.33 112.41 L 109.86 112.36 C 109.70 111.89 109.39 110.95 109.23 110.48 L 110.32 110.49 C 110.92 108.45 111.59 106.41 111.66 104.27 L 112.32 104.50 C 112.73 98.67 112.62 92.84 112.62 87.00 C 112.45 69.81 112.99 52.60 112.31 35.42 L 111.52 35.85 C 111.54 34.91 111.56 33.04 111.57 32.11 L 110.58 33.08 C 110.58 32.18 110.56 30.40 110.56 29.51 L 109.19 29.52 C 109.37 29.05 109.72 28.12 109.89 27.66 L 108.33 27.59 C 108.43 27.13 108.62 26.20 108.72 25.73 L 107.83 25.59 C 107.06 24.15 106.14 22.79 105.24 21.43 L 104.79 21.58 C 104.47 20.33 103.69 19.53 102.47 19.17 L 102.59 18.02 L 101.30 18.91 L 101.64 17.84 C 100.29 16.90 98.92 16.01 97.48 15.25 L 97.24 14.28 C 96.77 14.37 95.85 14.56 95.38 14.65 L 95.34 13.10 C 94.87 13.28 93.95 13.64 93.48 13.83 L 93.52 12.44 C 92.65 12.44 90.91 12.45 90.04 12.45 L 90.82 11.43 C 89.27 11.43 87.71 11.45 86.16 11.47 L 86.76 10.60 C 70.15 10.11 53.53 10.51 36.92 10.37 C 33.63 10.18 30.49 11.30 27.24 11.62 Z" />
<path fill="#000000" opacity="1.00" d=" M 25.42 13.63 C 27.53 13.11 29.63 12.54 31.79 12.23 L 31.08 11.54 C 48.83 11.76 66.58 11.52 84.33 11.66 C 87.15 11.95 89.78 13.20 92.58 13.63 L 92.72 14.21 C 94.02 14.66 95.31 15.14 96.59 15.64 L 96.73 16.70 C 97.22 16.58 98.21 16.34 98.70 16.23 L 98.10 17.73 L 99.14 17.23 C 101.31 19.48 103.50 21.72 105.78 23.86 L 105.25 24.89 L 106.76 24.30 C 106.65 24.79 106.43 25.77 106.31 26.27 L 107.37 26.41 C 107.86 27.69 108.33 28.98 108.79 30.29 L 109.38 30.42 C 109.89 32.51 110.44 34.59 110.77 36.72 L 111.47 36.13 C 111.18 58.52 111.57 80.92 111.27 103.30 C 110.58 104.73 110.40 106.30 110.25 107.85 L 109.14 107.41 C 109.28 107.81 109.56 108.62 109.70 109.02 C 108.56 110.30 107.89 111.87 107.44 113.50 L 106.33 113.75 C 106.43 114.25 106.65 115.23 106.75 115.72 L 105.27 115.09 L 105.77 116.14 C 103.51 118.30 101.31 120.51 99.14 122.76 L 98.08 122.31 L 98.72 123.78 C 98.23 123.66 97.24 123.43 96.74 123.31 L 96.55 124.33 C 95.95 124.56 94.74 125.02 94.13 125.25 C 93.60 125.60 92.56 126.31 92.03 126.66 C 91.64 126.53 90.85 126.27 90.46 126.14 L 90.81 127.40 C 89.02 127.47 87.24 127.55 85.46 127.69 L 85.73 128.47 C 68.79 128.26 51.85 128.43 34.91 128.38 C 32.28 128.37 29.81 127.26 27.17 127.31 L 27.52 126.05 C 27.14 126.22 26.39 126.56 26.01 126.73 C 24.71 125.54 23.10 124.83 21.42 124.34 L 21.26 123.32 C 20.77 123.43 19.79 123.65 19.30 123.76 L 19.90 122.27 L 18.86 122.77 C 16.71 120.50 14.48 118.31 12.24 116.14 L 12.72 115.10 L 11.25 115.70 C 11.35 115.21 11.57 114.23 11.68 113.74 L 10.67 113.55 C 10.44 112.95 9.99 111.73 9.76 111.12 C 9.40 110.59 8.68 109.54 8.32 109.02 C 8.45 108.62 8.71 107.81 8.84 107.41 L 7.59 107.86 C 7.55 106.33 7.50 104.79 7.43 103.26 L 6.53 103.86 C 6.80 81.46 6.44 59.05 6.72 36.64 C 7.34 35.21 7.69 33.70 7.75 32.13 L 8.84 32.61 C 8.71 32.20 8.45 31.38 8.32 30.97 C 9.44 29.68 10.14 28.13 10.57 26.49 L 11.69 26.25 C 11.57 25.76 11.34 24.78 11.23 24.29 L 12.72 24.90 L 12.23 23.85 C 14.49 21.69 16.72 19.49 18.86 17.21 L 19.89 17.76 L 19.31 16.25 C 19.80 16.36 20.78 16.58 21.28 16.69 L 21.41 15.64 C 22.70 15.14 23.99 14.67 25.29 14.21 L 25.42 13.63 M 57.19 27.05 C 57.20 34.32 57.24 41.60 57.16 48.87 C 57.95 48.89 59.54 48.92 60.34 48.94 C 60.34 41.63 60.33 34.31 60.34 27.00 C 59.55 27.01 57.98 27.04 57.19 27.05 M 33.25 59.50 C 34.59 70.10 43.52 79.23 54.13 80.68 C 62.61 82.09 71.67 78.74 77.11 72.07 C 82.88 65.46 84.48 55.73 81.56 47.52 C 79.72 42.15 75.79 37.82 71.25 34.54 C 70.45 35.33 69.65 36.11 68.85 36.90 C 75.50 40.78 79.94 48.18 79.85 55.94 C 79.99 64.90 74.00 73.52 65.54 76.50 C 58.20 79.32 49.44 77.63 43.59 72.41 C 37.10 66.86 34.45 57.28 37.23 49.20 C 38.81 43.99 42.56 39.71 47.15 36.90 C 46.35 36.11 45.55 35.32 44.75 34.54 C 36.66 39.91 31.68 49.77 33.25 59.50 Z" />
</g>
<g id="#eff4f4ff">
<path fill="#eff4f4" opacity="1.00" d=" M 27.24 11.62 C 30.49 11.30 33.63 10.18 36.92 10.37 C 53.53 10.51 70.15 10.11 86.76 10.60 L 86.16 11.47 C 87.71 11.45 89.27 11.43 90.82 11.43 L 90.04 12.45 C 90.91 12.45 92.65 12.44 93.52 12.44 L 93.48 13.83 C 93.95 13.64 94.87 13.28 95.34 13.10 L 95.38 14.65 C 95.85 14.56 96.77 14.37 97.24 14.28 L 97.48 15.25 C 98.92 16.01 100.29 16.90 101.64 17.84 L 101.30 18.91 L 102.59 18.02 L 102.47 19.17 C 103.69 19.53 104.47 20.33 104.79 21.58 L 105.24 21.43 C 106.14 22.79 107.06 24.15 107.83 25.59 L 108.72 25.73 C 108.62 26.20 108.43 27.13 108.33 27.59 L 109.89 27.66 C 109.72 28.12 109.37 29.05 109.19 29.52 L 110.56 29.51 C 110.56 30.40 110.58 32.18 110.58 33.08 L 111.57 32.11 C 111.56 33.04 111.54 34.91 111.52 35.85 L 112.31 35.42 C 112.99 52.60 112.45 69.81 112.62 87.00 C 112.62 92.84 112.73 98.67 112.32 104.50 L 111.66 104.27 C 111.59 106.41 110.92 108.45 110.32 110.49 L 109.23 110.48 C 109.39 110.95 109.70 111.89 109.86 112.36 L 108.33 112.41 C 108.43 112.87 108.62 113.80 108.72 114.27 L 107.82 114.40 C 107.04 115.88 106.10 117.26 105.17 118.65 L 104.08 118.32 L 104.99 119.63 L 103.86 119.47 C 103.41 120.64 102.59 121.42 101.41 121.80 L 101.58 122.24 C 100.22 123.14 98.84 124.04 97.40 124.82 L 97.26 125.74 C 96.79 125.64 95.86 125.43 95.40 125.33 L 95.36 126.87 C 94.89 126.71 93.95 126.39 93.48 126.23 L 93.47 127.24 C 92.32 127.59 91.18 127.98 90.06 128.41 C 89.22 128.50 87.53 128.69 86.68 128.79 C 83.96 129.96 80.93 129.56 78.06 129.63 C 62.46 129.49 46.85 129.89 31.26 129.41 L 31.84 128.61 C 29.30 128.82 26.87 128.12 24.51 127.30 L 24.52 126.22 C 24.05 126.39 23.11 126.71 22.64 126.87 L 22.59 125.34 C 22.13 125.44 21.21 125.64 20.75 125.74 L 20.58 124.83 C 19.12 124.04 17.74 123.10 16.35 122.18 L 16.58 121.02 L 15.23 122.06 L 15.72 120.87 C 14.46 120.50 13.62 119.68 13.18 118.42 L 12.76 118.57 C 11.85 117.21 10.95 115.85 10.16 114.43 L 9.28 114.26 C 9.38 113.80 9.57 112.88 9.67 112.42 L 8.14 112.34 C 8.30 111.88 8.61 110.94 8.77 110.47 L 7.68 110.49 C 7.08 108.45 6.42 106.40 6.33 104.26 L 5.69 104.51 C 5.01 88.34 5.55 72.15 5.38 55.97 C 5.43 49.16 5.18 42.33 5.68 35.53 L 6.33 35.71 C 6.42 33.58 7.08 31.55 7.66 29.52 L 8.77 29.53 C 8.61 29.06 8.30 28.12 8.14 27.65 L 9.68 27.59 C 9.57 27.13 9.36 26.21 9.25 25.75 L 10.16 25.59 C 10.95 24.12 11.89 22.75 12.81 21.37 L 13.75 21.67 L 13.26 20.30 L 14.78 20.57 L 14.25 19.12 L 15.71 19.77 L 15.22 18.09 L 16.59 18.89 L 16.39 17.78 C 17.73 16.87 19.08 15.96 20.54 15.25 L 20.76 14.28 C 21.22 14.37 22.15 14.55 22.61 14.64 L 22.66 13.09 C 23.12 13.27 24.05 13.65 24.52 13.84 L 24.47 12.45 C 25.33 12.45 27.04 12.46 27.90 12.46 L 27.24 11.62 M 25.42 13.63 L 25.29 14.21 C 23.99 14.67 22.70 15.14 21.41 15.64 L 21.28 16.69 C 20.78 16.58 19.80 16.36 19.31 16.25 L 19.89 17.76 L 18.86 17.21 C 16.72 19.49 14.49 21.69 12.23 23.85 L 12.72 24.90 L 11.23 24.29 C 11.34 24.78 11.57 25.76 11.69 26.25 L 10.57 26.49 C 10.14 28.13 9.44 29.68 8.32 30.97 C 8.45 31.38 8.71 32.20 8.84 32.61 L 7.75 32.13 C 7.69 33.70 7.34 35.21 6.72 36.64 C 6.44 59.05 6.80 81.46 6.53 103.86 L 7.43 103.26 C 7.50 104.79 7.55 106.33 7.59 107.86 L 8.84 107.41 C 8.71 107.81 8.45 108.62 8.32 109.02 C 8.68 109.54 9.40 110.59 9.76 111.12 C 9.99 111.73 10.44 112.95 10.67 113.55 L 11.68 113.74 C 11.57 114.23 11.35 115.21 11.25 115.70 L 12.72 115.10 L 12.24 116.14 C 14.48 118.31 16.71 120.50 18.86 122.77 L 19.90 122.27 L 19.30 123.76 C 19.79 123.65 20.77 123.43 21.26 123.32 L 21.42 124.34 C 23.10 124.83 24.71 125.54 26.01 126.73 C 26.39 126.56 27.14 126.22 27.52 126.05 L 27.17 127.31 C 29.81 127.26 32.28 128.37 34.91 128.38 C 51.85 128.43 68.79 128.26 85.73 128.47 L 85.46 127.69 C 87.24 127.55 89.02 127.47 90.81 127.40 L 90.46 126.14 C 90.85 126.27 91.64 126.53 92.03 126.66 C 92.56 126.31 93.60 125.60 94.13 125.25 C 94.74 125.02 95.95 124.56 96.55 124.33 L 96.74 123.31 C 97.24 123.43 98.23 123.66 98.72 123.78 L 98.08 122.31 L 99.14 122.76 C 101.31 120.51 103.51 118.30 105.77 116.14 L 105.27 115.09 L 106.75 115.72 C 106.65 115.23 106.43 114.25 106.33 113.75 L 107.44 113.50 C 107.89 111.87 108.56 110.30 109.70 109.02 C 109.56 108.62 109.28 107.81 109.14 107.41 L 110.25 107.85 C 110.40 106.30 110.58 104.73 111.27 103.30 C 111.57 80.92 111.18 58.52 111.47 36.13 L 110.77 36.72 C 110.44 34.59 109.89 32.51 109.38 30.42 L 108.79 30.29 C 108.33 28.98 107.86 27.69 107.37 26.41 L 106.31 26.27 C 106.43 25.77 106.65 24.79 106.76 24.30 L 105.25 24.89 L 105.78 23.86 C 103.50 21.72 101.31 19.48 99.14 17.23 L 98.10 17.73 L 98.70 16.23 C 98.21 16.34 97.22 16.58 96.73 16.70 L 96.59 15.64 C 95.31 15.14 94.02 14.66 92.72 14.21 L 92.58 13.63 C 89.78 13.20 87.15 11.95 84.33 11.66 C 66.58 11.52 48.83 11.76 31.08 11.54 L 31.79 12.23 C 29.63 12.54 27.53 13.11 25.42 13.63 Z" />
<path fill="#eff4f4" opacity="1.00" d=" M 57.19 27.05 C 57.98 27.04 59.55 27.01 60.34 27.00 C 60.33 34.31 60.34 41.63 60.34 48.94 C 59.54 48.92 57.95 48.89 57.16 48.87 C 57.24 41.60 57.20 34.32 57.19 27.05 Z" />
<path fill="#eff4f4" opacity="1.00" d=" M 33.25 59.50 C 31.68 49.77 36.66 39.91 44.75 34.54 C 45.55 35.32 46.35 36.11 47.15 36.90 C 42.56 39.71 38.81 43.99 37.23 49.20 C 34.45 57.28 37.10 66.86 43.59 72.41 C 49.44 77.63 58.20 79.32 65.54 76.50 C 74.00 73.52 79.99 64.90 79.85 55.94 C 79.94 48.18 75.50 40.78 68.85 36.90 C 69.65 36.11 70.45 35.33 71.25 34.54 C 75.79 37.82 79.72 42.15 81.56 47.52 C 84.48 55.73 82.88 65.46 77.11 72.07 C 71.67 78.74 62.61 82.09 54.13 80.68 C 43.52 79.23 34.59 70.10 33.25 59.50 Z" />
</g>
</svg>
