<?xml version="1.0" encoding="UTF-8" ?>
<!DOCTYPE svg PUBLIC "-//W3C//DTD SVG 1.1//EN" "http://www.w3.org/Graphics/SVG/1.1/DTD/svg11.dtd">
<svg width="117px" height="140px" viewBox="0 0 117 140" version="1.1" xmlns="http://www.w3.org/2000/svg">
<g id="#384450ff">
<path fill="#384450" opacity="1.00" d=" M 0.00 0.00 L 117.00 0.00 L 117.00 140.00 L 0.00 140.00 L 0.00 0.00 M 41.20 59.82 C 43.48 61.62 45.90 59.41 47.50 57.84 C 47.16 55.47 46.05 52.18 43.05 52.55 C 39.34 52.50 37.79 58.12 41.20 59.82 M 56.51 53.45 C 54.83 54.79 54.47 57.46 56.03 59.04 C 57.75 61.55 61.86 60.54 62.75 57.76 C 64.19 54.29 59.24 50.67 56.51 53.45 M 72.44 53.37 C 67.80 56.28 73.79 63.38 77.44 59.30 C 81.24 56.37 75.94 50.07 72.44 53.37 Z" />
</g>
<g id="#f8fcf8ff">
<path fill="#f8fcf8" opacity="1.00" d=" M 41.20 59.82 C 37.79 58.12 39.34 52.50 43.05 52.55 C 46.05 52.18 47.16 55.47 47.50 57.84 C 45.90 59.41 43.48 61.62 41.20 59.82 Z" />
<path fill="#f8fcf8" opacity="1.00" d=" M 56.51 53.45 C 59.24 50.67 64.19 54.29 62.75 57.76 C 61.86 60.54 57.75 61.55 56.03 59.04 C 54.47 57.46 54.83 54.79 56.51 53.45 Z" />
<path fill="#f8fcf8" opacity="1.00" d=" M 72.44 53.37 C 75.94 50.07 81.24 56.37 77.44 59.30 C 73.79 63.38 67.80 56.28 72.44 53.37 Z" />
</g>
</svg>
