<?xml version="1.0" encoding="UTF-8" ?>
<!DOCTYPE svg PUBLIC "-//W3C//DTD SVG 1.1//EN" "http://www.w3.org/Graphics/SVG/1.1/DTD/svg11.dtd">
<svg width="117px" height="140px" viewBox="0 0 117 140" version="1.1" xmlns="http://www.w3.org/2000/svg">
<g id="#000000ff">
<path fill="#000000" opacity="1.00" d=" M 0.00 0.00 L 117.00 0.00 L 117.00 140.00 L 0.00 140.00 L 0.00 0.00 M 29.38 10.46 C 15.69 13.30 4.44 25.85 4.00 39.95 C 4.00 59.98 4.00 80.01 4.00 100.04 C 4.45 116.36 19.64 130.75 36.01 130.02 C 52.02 129.95 68.03 130.06 84.04 129.97 C 99.54 128.67 112.81 114.67 112.94 99.04 C 113.02 79.68 113.03 60.31 112.94 40.95 C 112.80 25.32 99.52 11.30 84.01 10.03 C 68.00 9.94 51.99 10.05 35.98 9.98 C 33.78 9.99 31.54 9.95 29.38 10.46 Z" />
<path fill="#000000" opacity="1.00" d=" M 35.18 12.20 C 49.43 11.84 63.69 12.17 77.95 12.03 C 85.25 12.03 92.69 13.96 98.46 18.58 C 105.88 24.28 110.00 33.65 109.99 42.92 C 110.01 60.97 110.01 79.02 109.99 97.06 C 110.04 107.35 104.88 117.74 95.99 123.14 C 90.40 126.87 83.57 127.94 76.98 127.97 C 63.98 127.93 50.99 127.96 37.99 127.96 C 32.01 127.82 25.93 126.51 20.88 123.19 C 12.37 117.93 6.93 108.06 7.07 98.05 C 7.06 79.02 7.00 59.98 7.10 40.95 C 7.17 25.96 20.25 12.76 35.18 12.20 M 45.01 28.23 C 45.14 34.04 45.07 39.85 45.09 45.66 C 42.75 45.67 40.42 45.69 38.09 45.72 C 38.35 50.36 37.90 55.03 38.34 59.66 C 40.45 63.38 45.51 60.74 48.80 61.98 C 51.80 64.62 54.46 67.63 57.41 70.34 C 53.72 70.31 50.03 70.30 46.34 70.36 C 46.39 72.90 46.39 75.45 46.34 78.00 C 54.33 77.94 62.31 78.11 70.30 77.93 L 70.73 76.95 L 70.17 75.85 C 63.15 75.41 56.10 75.84 49.07 75.64 C 49.05 75.02 49.00 73.78 48.98 73.16 C 52.58 72.88 56.20 72.92 59.80 72.95 C 59.82 72.24 59.86 70.84 59.87 70.14 C 62.27 67.78 64.63 65.39 67.01 63.02 C 69.97 59.59 76.11 63.98 78.64 59.76 C 79.11 55.10 78.64 50.40 78.91 45.72 C 76.58 45.69 74.24 45.67 71.91 45.66 C 71.93 39.85 71.86 34.04 71.98 28.23 C 62.99 28.13 54.00 28.13 45.01 28.23 Z" />
<path fill="#000000" opacity="1.00" d=" M 47.75 31.03 C 54.92 30.89 62.08 30.89 69.25 31.03 C 69.22 36.78 69.32 42.53 69.16 48.28 C 71.43 48.31 73.70 48.33 75.97 48.36 C 75.93 51.90 75.92 55.44 75.91 58.99 C 64.31 59.13 52.71 59.03 41.12 59.04 C 41.07 55.48 41.07 51.92 41.03 48.35 C 47.76 48.27 54.49 48.36 61.22 48.31 C 61.22 47.66 61.22 46.34 61.22 45.69 C 56.72 45.67 52.23 45.67 47.74 45.69 C 47.75 43.89 47.77 42.09 47.78 40.30 C 52.26 40.34 56.74 40.33 61.22 40.31 C 61.22 39.66 61.21 38.34 61.21 37.69 C 56.73 37.67 52.24 37.67 47.75 37.69 C 47.75 35.47 47.75 33.25 47.75 31.03 Z" />
<path fill="#000000" opacity="1.00" d=" M 52.16 61.71 C 56.39 61.66 60.61 61.66 64.84 61.71 C 62.68 63.71 60.55 65.74 58.47 67.81 C 56.43 65.71 54.32 63.69 52.16 61.71 Z" />
</g>
<g id="#708cc8ff">
<path fill="#708cc8" opacity="1.00" d=" M 29.38 10.46 C 31.54 9.95 33.78 9.99 35.98 9.98 C 51.99 10.05 68.00 9.94 84.01 10.03 C 99.52 11.30 112.80 25.32 112.94 40.95 C 113.03 60.31 113.02 79.68 112.94 99.04 C 112.81 114.67 99.54 128.67 84.04 129.97 C 68.03 130.06 52.02 129.95 36.01 130.02 C 19.64 130.75 4.45 116.36 4.00 100.04 C 4.00 80.01 4.00 59.98 4.00 39.95 C 4.44 25.85 15.69 13.30 29.38 10.46 M 35.18 12.20 C 20.25 12.76 7.17 25.96 7.10 40.95 C 7.00 59.98 7.06 79.02 7.07 98.05 C 6.93 108.06 12.37 117.93 20.88 123.19 C 25.93 126.51 32.01 127.82 37.99 127.96 C 50.99 127.96 63.98 127.93 76.98 127.97 C 83.57 127.94 90.40 126.87 95.99 123.14 C 104.88 117.74 110.04 107.35 109.99 97.06 C 110.01 79.02 110.01 60.97 109.99 42.92 C 110.00 33.65 105.88 24.28 98.46 18.58 C 92.69 13.96 85.25 12.03 77.95 12.03 C 63.69 12.17 49.43 11.84 35.18 12.20 Z" />
</g>
<g id="#10e84eff">
<path fill="#10e84e" opacity="1.00" d=" M 45.01 28.23 C 54.00 28.13 62.99 28.13 71.98 28.23 C 71.86 34.04 71.93 39.85 71.91 45.66 C 74.24 45.67 76.58 45.69 78.91 45.72 C 78.64 50.40 79.11 55.10 78.64 59.76 C 76.11 63.98 69.97 59.59 67.01 63.02 C 64.63 65.39 62.27 67.78 59.87 70.14 C 59.86 70.84 59.82 72.24 59.80 72.95 C 56.20 72.92 52.58 72.88 48.98 73.16 C 49.00 73.78 49.05 75.02 49.07 75.64 C 56.10 75.84 63.15 75.41 70.17 75.85 L 70.73 76.95 L 70.30 77.93 C 62.31 78.11 54.33 77.94 46.34 78.00 C 46.39 75.45 46.39 72.90 46.34 70.36 C 50.03 70.30 53.72 70.31 57.41 70.34 C 54.46 67.63 51.80 64.62 48.80 61.98 C 45.51 60.74 40.45 63.38 38.34 59.66 C 37.90 55.03 38.35 50.36 38.09 45.72 C 40.42 45.69 42.75 45.67 45.09 45.66 C 45.07 39.85 45.14 34.04 45.01 28.23 M 47.75 31.03 C 47.75 33.25 47.75 35.47 47.75 37.69 C 52.24 37.67 56.73 37.67 61.21 37.69 C 61.21 38.34 61.22 39.66 61.22 40.31 C 56.74 40.33 52.26 40.34 47.78 40.30 C 47.77 42.09 47.75 43.89 47.74 45.69 C 52.23 45.67 56.72 45.67 61.22 45.69 C 61.22 46.34 61.22 47.66 61.22 48.31 C 54.49 48.36 47.76 48.27 41.03 48.35 C 41.07 51.92 41.07 55.48 41.12 59.04 C 52.71 59.03 64.31 59.13 75.91 58.99 C 75.92 55.44 75.93 51.90 75.97 48.36 C 73.70 48.33 71.43 48.31 69.16 48.28 C 69.32 42.53 69.22 36.78 69.25 31.03 C 62.08 30.89 54.92 30.89 47.75 31.03 M 52.16 61.71 C 54.32 63.69 56.43 65.71 58.47 67.81 C 60.55 65.74 62.68 63.71 64.84 61.71 C 60.61 61.66 56.39 61.66 52.16 61.71 Z" />
</g>
</svg>
