<?xml version="1.0" encoding="UTF-8" ?>
<!DOCTYPE svg PUBLIC "-//W3C//DTD SVG 1.1//EN" "http://www.w3.org/Graphics/SVG/1.1/DTD/svg11.dtd">
<svg width="117px" height="140px" viewBox="0 0 117 140" version="1.1" xmlns="http://www.w3.org/2000/svg">
<g id="#000000ff">
<path fill="#000000" opacity="1.00" d=" M 0.00 0.00 L 117.00 0.00 L 117.00 140.00 L 0.00 140.00 L 0.00 0.00 M 29.40 10.46 C 15.69 13.29 4.41 25.86 4.01 39.99 C 3.98 59.65 4.02 79.31 3.99 98.97 C 3.81 115.00 18.01 129.60 34.00 130.00 C 49.34 130.02 64.68 129.97 80.02 130.02 C 93.22 130.77 106.04 121.93 110.77 109.70 C 112.86 104.72 113.11 99.25 113.01 93.93 C 112.93 76.26 113.09 58.58 112.94 40.91 C 112.79 24.96 98.87 10.60 82.94 10.01 C 67.28 9.97 51.62 10.04 35.97 9.98 C 33.77 9.99 31.56 9.98 29.40 10.46 Z" />
<path fill="#000000" opacity="1.00" d=" M 35.14 12.21 C 49.39 11.83 63.66 12.17 77.92 12.04 C 85.96 11.96 94.11 14.46 100.11 19.94 C 106.50 25.77 110.02 34.38 109.99 42.99 C 110.01 61.00 110.01 79.00 109.99 97.01 C 110.09 107.76 104.40 118.61 94.84 123.82 C 89.23 127.24 82.50 127.98 76.06 127.97 C 63.35 127.92 50.63 127.98 37.92 127.95 C 30.28 127.90 22.57 125.39 16.87 120.19 C 10.71 114.59 6.94 106.36 7.07 98.00 C 7.06 78.99 7.00 59.97 7.10 40.96 C 7.17 25.99 20.22 12.77 35.14 12.21 M 37.24 28.27 C 37.17 32.40 37.18 36.53 37.25 40.67 C 37.63 41.03 38.39 41.76 38.77 42.12 C 38.69 44.70 38.99 47.31 38.52 49.86 C 37.82 51.49 36.91 53.11 37.11 54.96 C 37.23 63.89 36.98 72.83 37.35 81.76 C 41.87 82.18 46.41 81.98 50.94 82.00 C 60.27 81.64 69.60 82.27 78.94 81.93 C 79.08 71.27 78.98 60.61 79.00 49.96 C 77.81 44.73 79.66 39.51 78.94 34.22 C 76.91 32.18 74.86 30.16 72.78 28.17 C 60.93 28.44 49.08 28.35 37.24 28.27 Z" />
<path fill="#000000" opacity="1.00" d=" M 37.99 28.82 C 48.33 28.50 58.68 28.79 69.02 28.63 C 72.67 28.27 74.56 32.01 76.97 34.08 C 76.96 37.73 77.62 41.61 75.86 44.99 C 77.41 48.11 77.02 51.64 77.03 55.00 C 76.92 63.27 77.22 71.56 76.81 79.83 C 71.12 79.75 65.40 80.07 59.72 79.64 C 63.23 78.86 66.85 79.25 70.42 79.16 L 70.38 77.76 C 61.79 77.70 53.19 77.70 44.60 77.76 L 44.59 79.16 C 48.16 79.16 51.74 79.06 55.30 79.40 C 49.65 80.29 43.87 79.73 38.17 79.73 C 37.46 72.16 38.06 64.55 37.78 56.97 C 37.91 55.47 37.40 50.41 39.74 51.82 C 40.10 59.19 39.54 66.58 39.94 73.95 C 39.97 75.96 42.29 76.90 44.03 76.71 C 53.36 76.58 62.68 76.73 72.01 76.65 C 73.93 76.67 75.40 74.83 75.13 72.95 C 75.20 60.98 75.21 48.99 75.15 37.02 C 75.38 35.08 74.18 32.80 71.99 32.92 C 63.31 32.73 54.63 32.96 45.95 32.82 C 43.88 32.87 40.82 32.51 40.04 35.03 C 39.79 36.77 39.82 38.54 39.74 40.30 C 39.32 39.95 38.49 39.25 38.07 38.90 C 37.59 35.57 37.97 32.18 37.99 28.82 Z" />
<path fill="#000000" opacity="1.00" d=" M 43.18 34.36 C 52.46 34.14 61.76 34.27 71.04 34.30 C 73.66 33.97 74.20 37.02 74.15 38.97 C 74.16 49.65 74.14 60.33 74.13 71.01 C 74.30 72.97 73.33 75.42 70.99 75.32 C 63.31 75.60 55.62 75.28 47.94 75.45 C 45.83 75.30 43.33 75.88 41.62 74.31 C 40.51 72.41 40.94 70.09 40.83 68.00 C 41.03 58.35 40.59 48.70 40.81 39.05 C 40.82 37.33 41.05 34.66 43.18 34.36 M 44.29 37.36 C 42.86 37.91 43.38 39.77 43.21 40.93 C 43.32 50.66 43.02 60.40 43.33 70.12 C 43.09 72.75 46.17 72.68 47.96 72.62 C 55.29 72.43 62.65 72.84 69.97 72.43 C 72.09 72.29 71.60 69.51 71.80 68.03 C 71.78 58.38 71.82 48.71 71.70 39.06 C 71.91 37.08 69.47 36.91 68.06 36.81 C 62.03 36.68 56.00 36.87 49.97 36.75 C 48.08 36.85 46.05 36.53 44.29 37.36 Z" />
<path fill="#000000" opacity="1.00" d=" M 45.16 38.12 C 49.73 37.45 54.39 38.02 59.00 37.85 C 62.59 37.98 66.25 37.43 69.78 38.18 C 71.72 39.38 70.82 42.01 71.11 43.90 C 69.48 44.06 67.86 44.21 66.24 44.38 C 66.72 42.77 67.24 41.18 67.77 39.58 C 66.12 39.52 64.47 39.44 62.82 39.36 C 63.34 40.43 64.09 41.32 65.07 42.03 C 64.57 42.48 63.57 43.39 63.07 43.84 C 56.75 43.73 50.42 43.51 44.10 43.85 C 44.37 41.97 43.42 39.49 45.16 38.12 M 54.34 39.81 C 54.47 40.65 54.75 42.31 54.88 43.14 C 56.90 43.13 58.92 43.14 60.94 43.17 C 60.58 42.13 60.22 41.09 59.87 40.05 C 58.85 40.41 57.83 40.76 56.81 41.12 C 56.69 40.67 56.45 39.79 56.33 39.34 C 55.83 39.46 54.84 39.70 54.34 39.81 M 44.85 39.84 C 45.68 42.93 48.92 43.75 51.66 42.71 C 52.66 43.11 55.71 42.84 53.85 41.41 C 51.99 41.03 50.08 41.37 48.21 41.48 C 47.10 40.91 45.98 40.35 44.85 39.84 Z" />
<path fill="#000000" opacity="1.00" d=" M 44.10 45.79 C 53.10 45.20 62.17 45.63 71.20 45.68 C 70.99 48.48 72.18 53.34 67.96 53.42 C 61.51 53.79 57.18 47.54 50.97 46.79 C 48.48 46.39 46.08 47.39 43.70 47.96 C 43.80 47.42 44.00 46.33 44.10 45.79 Z" />
<path fill="#000000" opacity="1.00" d=" M 44.03 50.08 C 45.86 47.79 49.26 47.12 51.97 48.06 C 54.14 48.86 57.33 49.50 57.02 52.51 C 54.75 52.29 52.41 52.37 50.54 53.85 C 50.44 53.09 50.23 51.57 50.12 50.81 C 49.71 51.96 49.53 53.18 49.36 54.39 C 52.39 54.23 55.42 54.21 58.45 54.41 C 58.36 53.59 58.16 51.96 58.06 51.15 C 61.92 53.68 66.51 55.57 71.13 54.04 C 70.83 59.92 72.02 65.98 70.34 71.72 C 62.21 71.43 54.08 71.77 45.96 71.57 C 43.69 71.97 44.14 69.35 43.91 67.95 C 43.91 62.00 43.66 56.02 44.03 50.08 M 46.15 51.08 C 45.61 52.70 46.16 53.27 47.79 52.77 C 48.33 51.15 47.79 50.59 46.15 51.08 M 48.29 61.25 C 47.11 63.71 50.96 63.70 52.27 64.72 C 50.44 64.77 48.61 64.82 46.79 64.79 C 46.49 65.40 45.89 66.61 45.59 67.22 C 48.91 66.76 53.36 68.58 55.89 65.80 C 56.71 62.91 52.44 62.94 50.72 61.51 C 53.12 61.33 55.56 61.43 57.94 61.02 L 57.73 60.11 C 54.70 59.53 50.83 59.12 48.29 61.25 M 59.41 60.26 C 59.66 61.59 60.40 61.81 61.63 60.92 C 61.39 59.59 60.65 59.37 59.41 60.26 M 62.60 61.93 C 61.55 63.92 59.44 64.37 57.39 64.49 C 57.17 65.19 56.75 66.60 56.53 67.31 C 60.46 67.15 65.57 67.61 68.18 64.05 C 69.42 60.83 64.17 60.36 62.60 61.93 M 67.95 66.16 C 66.49 69.17 71.31 66.20 67.95 66.16 Z" />
</g>
<g id="#708cc8ff">
<path fill="#708cc8" opacity="1.00" d=" M 29.40 10.46 C 31.56 9.98 33.77 9.99 35.97 9.98 C 51.62 10.04 67.28 9.97 82.94 10.01 C 98.87 10.60 112.79 24.96 112.94 40.91 C 113.09 58.58 112.93 76.26 113.01 93.93 C 113.11 99.25 112.86 104.72 110.77 109.70 C 106.04 121.93 93.22 130.77 80.02 130.02 C 64.68 129.97 49.34 130.02 34.00 130.00 C 18.01 129.60 3.81 115.00 3.99 98.97 C 4.02 79.31 3.98 59.65 4.01 39.99 C 4.41 25.86 15.69 13.29 29.40 10.46 M 35.14 12.21 C 20.22 12.77 7.17 25.99 7.10 40.96 C 7.00 59.97 7.06 78.99 7.07 98.00 C 6.94 106.36 10.71 114.59 16.87 120.19 C 22.57 125.39 30.28 127.90 37.92 127.95 C 50.63 127.98 63.35 127.92 76.06 127.97 C 82.50 127.98 89.23 127.24 94.84 123.82 C 104.40 118.61 110.09 107.76 109.99 97.01 C 110.01 79.00 110.01 61.00 109.99 42.99 C 110.02 34.38 106.50 25.77 100.11 19.94 C 94.11 14.46 85.96 11.96 77.92 12.04 C 63.66 12.17 49.39 11.83 35.14 12.21 Z" />
</g>
<g id="#0fdf4bff">
<path fill="#0fdf4b" opacity="1.00" d=" M 37.24 28.27 C 49.08 28.35 60.93 28.44 72.78 28.17 C 74.86 30.16 76.91 32.18 78.94 34.22 C 79.66 39.51 77.81 44.73 79.00 49.96 C 78.98 60.61 79.08 71.27 78.94 81.93 C 69.60 82.27 60.27 81.64 50.94 82.00 C 46.41 81.98 41.87 82.18 37.35 81.76 C 36.98 72.83 37.23 63.89 37.11 54.96 C 36.91 53.11 37.82 51.49 38.52 49.86 C 38.99 47.31 38.69 44.70 38.77 42.12 C 38.39 41.76 37.63 41.03 37.25 40.67 C 37.18 36.53 37.17 32.40 37.24 28.27 M 37.99 28.82 C 37.97 32.18 37.59 35.57 38.07 38.90 C 38.49 39.25 39.32 39.95 39.74 40.30 C 39.82 38.54 39.79 36.77 40.04 35.03 C 40.82 32.51 43.88 32.87 45.95 32.82 C 54.63 32.96 63.31 32.73 71.99 32.92 C 74.18 32.80 75.38 35.08 75.15 37.02 C 75.21 48.99 75.20 60.98 75.13 72.95 C 75.40 74.83 73.93 76.67 72.01 76.65 C 62.68 76.73 53.36 76.58 44.03 76.71 C 42.29 76.90 39.97 75.96 39.94 73.95 C 39.54 66.58 40.10 59.19 39.74 51.82 C 37.40 50.41 37.91 55.47 37.78 56.97 C 38.06 64.55 37.46 72.16 38.17 79.73 C 43.87 79.73 49.65 80.29 55.30 79.40 C 51.74 79.06 48.16 79.16 44.59 79.16 L 44.60 77.76 C 53.19 77.70 61.79 77.70 70.38 77.76 L 70.42 79.16 C 66.85 79.25 63.23 78.86 59.72 79.64 C 65.40 80.07 71.12 79.75 76.81 79.83 C 77.22 71.56 76.92 63.27 77.03 55.00 C 77.02 51.64 77.41 48.11 75.86 44.99 C 77.62 41.61 76.96 37.73 76.97 34.08 C 74.56 32.01 72.67 28.27 69.02 28.63 C 58.68 28.79 48.33 28.50 37.99 28.82 M 43.18 34.36 C 41.05 34.66 40.82 37.33 40.81 39.05 C 40.59 48.70 41.03 58.35 40.83 68.00 C 40.94 70.09 40.51 72.41 41.62 74.31 C 43.33 75.88 45.83 75.30 47.94 75.45 C 55.62 75.28 63.31 75.60 70.99 75.32 C 73.33 75.42 74.30 72.97 74.13 71.01 C 74.14 60.33 74.16 49.65 74.15 38.97 C 74.20 37.02 73.66 33.97 71.04 34.30 C 61.76 34.27 52.46 34.14 43.18 34.36 Z" />
<path fill="#0fdf4b" opacity="1.00" d=" M 44.29 37.36 C 46.05 36.53 48.08 36.85 49.97 36.75 C 56.00 36.87 62.03 36.68 68.06 36.81 C 69.47 36.91 71.91 37.08 71.70 39.06 C 71.82 48.71 71.78 58.38 71.80 68.03 C 71.60 69.51 72.09 72.29 69.97 72.43 C 62.65 72.84 55.29 72.43 47.96 72.62 C 46.17 72.68 43.09 72.75 43.33 70.12 C 43.02 60.40 43.32 50.66 43.21 40.93 C 43.38 39.77 42.86 37.91 44.29 37.36 M 45.16 38.12 C 43.42 39.49 44.37 41.97 44.10 43.85 C 50.42 43.51 56.75 43.73 63.07 43.84 C 63.57 43.39 64.57 42.48 65.07 42.03 C 64.09 41.32 63.34 40.43 62.82 39.36 C 64.47 39.44 66.12 39.52 67.77 39.58 C 67.24 41.18 66.72 42.77 66.24 44.38 C 67.86 44.21 69.48 44.06 71.11 43.90 C 70.82 42.01 71.72 39.38 69.78 38.18 C 66.25 37.43 62.59 37.98 59.00 37.85 C 54.39 38.02 49.73 37.45 45.16 38.12 M 44.10 45.79 C 44.00 46.33 43.80 47.42 43.70 47.96 C 46.08 47.39 48.48 46.39 50.97 46.79 C 57.18 47.54 61.51 53.79 67.96 53.42 C 72.18 53.34 70.99 48.48 71.20 45.68 C 62.17 45.63 53.10 45.20 44.10 45.79 M 44.03 50.08 C 43.66 56.02 43.91 62.00 43.91 67.95 C 44.14 69.35 43.69 71.97 45.96 71.57 C 54.08 71.77 62.21 71.43 70.34 71.72 C 72.02 65.98 70.83 59.92 71.13 54.04 C 66.51 55.57 61.92 53.68 58.06 51.15 C 58.16 51.96 58.36 53.59 58.45 54.41 C 55.42 54.21 52.39 54.23 49.36 54.39 C 49.53 53.18 49.71 51.96 50.12 50.81 C 50.23 51.57 50.44 53.09 50.54 53.85 C 52.41 52.37 54.75 52.29 57.02 52.51 C 57.33 49.50 54.14 48.86 51.97 48.06 C 49.26 47.12 45.86 47.79 44.03 50.08 Z" />
<path fill="#0fdf4b" opacity="1.00" d=" M 54.34 39.81 C 54.84 39.70 55.83 39.46 56.33 39.34 C 56.45 39.79 56.69 40.67 56.81 41.12 C 57.83 40.76 58.85 40.41 59.87 40.05 C 60.22 41.09 60.58 42.13 60.94 43.17 C 58.92 43.14 56.90 43.13 54.88 43.14 C 54.75 42.31 54.47 40.65 54.34 39.81 Z" />
<path fill="#0fdf4b" opacity="1.00" d=" M 44.85 39.84 C 45.98 40.35 47.10 40.91 48.21 41.48 C 50.08 41.37 51.99 41.03 53.85 41.41 C 55.71 42.84 52.66 43.11 51.66 42.71 C 48.92 43.75 45.68 42.93 44.85 39.84 Z" />
<path fill="#0fdf4b" opacity="1.00" d=" M 46.15 51.08 C 47.79 50.59 48.33 51.15 47.79 52.77 C 46.16 53.27 45.61 52.70 46.15 51.08 Z" />
<path fill="#0fdf4b" opacity="1.00" d=" M 48.29 61.25 C 50.83 59.12 54.70 59.53 57.73 60.11 L 57.94 61.02 C 55.56 61.43 53.12 61.33 50.72 61.51 C 52.44 62.94 56.71 62.91 55.89 65.80 C 53.36 68.58 48.91 66.76 45.59 67.22 C 45.89 66.61 46.49 65.40 46.79 64.79 C 48.61 64.82 50.44 64.77 52.27 64.72 C 50.96 63.70 47.11 63.71 48.29 61.25 Z" />
<path fill="#0fdf4b" opacity="1.00" d=" M 59.41 60.26 C 60.65 59.37 61.39 59.59 61.63 60.92 C 60.40 61.81 59.66 61.59 59.41 60.26 Z" />
<path fill="#0fdf4b" opacity="1.00" d=" M 62.60 61.93 C 64.17 60.36 69.42 60.83 68.18 64.05 C 65.57 67.61 60.46 67.15 56.53 67.31 C 56.75 66.60 57.17 65.19 57.39 64.49 C 59.44 64.37 61.55 63.92 62.60 61.93 Z" />
<path fill="#0fdf4b" opacity="1.00" d=" M 67.95 66.16 C 71.31 66.20 66.49 69.17 67.95 66.16 Z" />
</g>
</svg>
