<?xml version="1.0" encoding="UTF-8" ?>
<!DOCTYPE svg PUBLIC "-//W3C//DTD SVG 1.1//EN" "http://www.w3.org/Graphics/SVG/1.1/DTD/svg11.dtd">
<svg width="117px" height="140px" viewBox="0 0 117 140" version="1.1" xmlns="http://www.w3.org/2000/svg">
<g id="#000000ff">
<path fill="#000000" opacity="1.00" d=" M 0.00 0.00 L 117.00 0.00 L 117.00 140.00 L 0.00 140.00 L 0.00 0.00 M 31.28 10.60 L 31.81 11.47 C 30.28 11.45 28.74 11.44 27.21 11.44 L 27.94 12.47 C 27.07 12.46 25.33 12.46 24.46 12.46 L 24.52 13.85 C 24.06 13.66 23.13 13.28 22.67 13.09 L 22.61 14.67 C 22.15 14.57 21.22 14.38 20.75 14.28 L 20.56 15.22 C 19.10 15.95 17.77 16.89 16.42 17.80 L 16.65 18.68 L 15.26 18.36 L 15.62 19.89 L 14.19 19.11 L 14.85 20.53 L 13.39 20.34 L 13.63 21.69 L 12.82 21.42 C 11.89 22.76 10.92 24.09 10.24 25.58 C 9.98 25.64 9.47 25.76 9.21 25.82 L 9.76 27.50 L 8.12 27.71 C 8.30 28.16 8.67 29.08 8.85 29.53 L 7.44 29.47 C 7.46 30.31 7.48 31.99 7.49 32.83 L 6.61 32.28 C 6.39 35.20 5.27 37.99 5.40 40.95 C 5.37 60.28 5.39 79.61 5.39 98.93 C 5.33 101.96 6.34 104.84 6.66 107.82 L 7.48 107.07 C 7.46 107.92 7.43 109.63 7.41 110.49 L 8.83 110.48 C 8.65 110.94 8.29 111.87 8.11 112.34 L 9.67 112.39 C 9.58 112.86 9.39 113.80 9.30 114.27 L 10.21 114.40 C 10.93 115.88 11.88 117.22 12.79 118.58 L 13.72 118.31 L 13.24 119.65 L 14.19 119.50 C 14.59 120.66 15.38 121.44 16.56 121.84 L 16.49 122.26 C 17.85 123.13 19.18 124.05 20.60 124.83 L 20.74 125.72 C 21.21 125.62 22.15 125.43 22.62 125.34 L 22.66 126.92 C 23.12 126.72 24.05 126.33 24.52 126.14 L 24.47 127.55 C 25.32 127.54 27.03 127.54 27.89 127.54 L 27.24 128.39 C 30.19 128.61 33.00 129.70 35.98 129.60 C 50.64 129.64 65.29 129.58 79.95 129.63 C 82.19 129.57 84.55 129.78 86.62 128.73 C 87.98 128.64 89.34 128.57 90.71 128.51 L 90.14 127.52 C 90.99 127.53 92.69 127.54 93.54 127.55 L 93.47 126.15 C 93.93 126.33 94.85 126.70 95.31 126.89 L 95.49 125.24 L 97.17 125.78 C 97.24 125.52 97.38 125.01 97.45 124.75 C 98.93 124.04 100.27 123.10 101.63 122.18 L 101.26 121.30 L 102.60 121.68 L 102.50 120.22 L 103.93 120.73 L 103.12 119.30 L 104.71 119.77 L 104.27 118.34 L 105.20 118.59 C 106.11 117.25 107.04 115.93 107.76 114.47 C 108.01 114.40 108.51 114.25 108.77 114.17 L 108.23 112.50 L 109.85 112.33 C 109.69 111.87 109.37 110.94 109.21 110.48 L 110.31 110.49 C 111.24 106.70 112.75 102.98 112.59 99.00 C 112.63 79.67 112.63 60.34 112.59 41.01 C 112.72 37.03 111.24 33.29 110.31 29.49 L 109.19 29.52 C 109.36 29.05 109.70 28.11 109.87 27.64 L 108.33 27.61 C 108.43 27.14 108.63 26.21 108.73 25.74 L 107.84 25.63 C 107.04 24.17 106.10 22.79 105.19 21.40 L 104.15 21.64 L 104.81 20.28 L 103.25 20.68 L 103.71 19.04 L 102.29 19.89 L 102.79 18.29 L 101.35 18.74 L 101.59 17.80 C 100.25 16.89 98.92 15.96 97.47 15.24 C 97.40 14.99 97.24 14.48 97.16 14.23 L 95.49 14.75 L 95.30 13.12 C 94.84 13.30 93.93 13.66 93.48 13.85 L 93.54 12.46 C 92.66 12.46 90.92 12.46 90.05 12.46 L 90.79 11.44 C 89.26 11.44 87.73 11.45 86.20 11.47 L 86.71 10.60 C 68.24 10.25 49.75 10.25 31.28 10.60 Z" />
<path fill="#000000" opacity="1.00" d=" M 25.38 13.65 C 28.59 13.08 31.63 11.52 34.93 11.60 C 50.97 11.62 67.01 11.62 83.05 11.60 C 86.19 11.53 89.12 12.89 92.13 13.60 C 93.61 14.41 95.15 15.12 96.73 15.74 L 96.68 16.75 C 97.18 16.60 98.17 16.30 98.67 16.15 L 98.13 17.72 L 99.16 17.22 C 101.15 19.50 103.58 21.37 105.43 23.79 C 107.10 26.06 108.15 28.68 109.69 31.02 C 109.55 31.41 109.27 32.19 109.14 32.58 L 110.23 32.14 C 110.42 33.71 110.64 35.29 111.29 36.74 C 111.46 58.94 111.44 81.15 111.30 103.35 C 110.70 104.80 110.35 106.31 110.23 107.88 L 109.12 107.41 C 109.30 107.88 109.67 108.83 109.85 109.31 C 109.56 109.42 108.99 109.64 108.70 109.75 C 108.66 111.60 107.46 112.95 106.29 114.22 L 107.00 115.60 L 105.40 115.15 L 105.74 116.20 C 103.54 118.24 101.49 120.45 99.31 122.51 L 98.36 122.58 L 98.36 123.97 L 96.85 123.19 C 96.76 123.51 96.58 124.15 96.49 124.47 C 95.22 124.90 93.96 125.37 92.69 125.79 L 92.59 126.37 C 89.75 126.85 87.06 128.14 84.18 128.37 C 66.50 128.47 48.81 128.26 31.13 128.47 L 31.75 127.73 C 29.39 127.47 26.96 127.08 24.90 125.81 C 23.76 125.27 22.61 124.80 21.42 124.38 L 21.23 123.25 C 20.76 123.41 19.80 123.74 19.33 123.90 L 19.87 122.46 L 18.86 122.68 C 16.61 120.55 14.46 118.31 12.25 116.14 L 12.66 115.10 L 11.13 115.68 C 11.28 115.20 11.58 114.24 11.73 113.76 L 10.60 113.56 C 10.17 112.41 9.71 111.26 9.22 110.13 C 7.99 108.06 7.48 105.68 7.26 103.30 L 6.53 103.85 C 6.67 81.29 6.67 58.73 6.53 36.16 L 7.24 36.68 C 7.51 34.56 8.07 32.50 8.60 30.44 L 9.21 30.31 C 9.64 29.04 10.10 27.78 10.52 26.51 C 10.85 26.42 11.49 26.24 11.81 26.15 L 10.99 24.42 L 12.60 24.84 L 12.30 23.83 C 14.44 21.59 16.76 19.51 18.84 17.21 L 19.86 17.75 L 19.32 16.20 C 19.80 16.33 20.78 16.57 21.26 16.69 L 21.45 15.55 C 22.73 15.10 24.02 14.63 25.31 14.21 L 25.38 13.65 M 38.72 43.81 C 37.16 44.30 36.39 45.74 35.72 47.10 C 36.46 47.55 37.93 48.47 38.67 48.92 C 41.43 48.95 44.20 48.95 46.97 48.94 C 47.01 50.65 47.05 52.36 47.10 54.08 C 56.02 54.40 64.97 54.36 73.90 54.09 C 73.95 52.37 73.99 50.65 74.04 48.93 C 77.84 48.81 82.11 49.77 85.33 47.15 C 84.65 45.76 83.83 44.32 82.26 43.80 C 76.18 41.04 70.49 37.51 64.49 34.58 C 62.89 33.83 61.15 32.18 59.28 33.08 C 52.33 36.47 45.75 40.58 38.72 43.81 M 46.86 60.02 C 55.91 60.63 65.08 60.63 74.13 60.02 C 74.08 58.76 73.97 57.51 73.81 56.27 C 72.51 55.03 70.62 55.60 69.03 55.44 C 62.13 55.62 55.21 55.26 48.32 55.59 C 46.25 56.05 47.32 58.58 46.86 60.02 M 47.20 62.18 C 47.07 63.37 47.05 64.57 47.13 65.78 C 56.05 65.88 64.97 65.88 73.88 65.78 C 73.54 64.57 74.80 61.90 72.81 61.87 C 66.87 61.44 60.90 61.86 54.95 61.70 C 52.37 61.80 49.69 61.34 47.20 62.18 M 46.74 69.91 C 55.89 70.37 65.08 70.34 74.23 69.91 C 74.08 69.26 73.79 67.95 73.64 67.30 C 65.43 66.68 57.14 67.13 48.90 67.06 C 46.96 66.59 47.11 68.63 46.74 69.91 M 47.33 71.23 C 45.67 73.67 49.41 73.51 50.93 73.55 C 58.14 73.38 65.36 73.74 72.56 73.39 C 75.14 73.66 73.95 70.24 71.97 70.76 C 65.33 70.82 58.68 70.92 52.03 70.78 C 50.48 70.89 48.75 70.40 47.33 71.23 Z" />
<path fill="#000000" opacity="1.00" d=" M 60.41 37.05 C 65.62 39.50 70.46 42.68 75.73 45.01 C 73.80 44.94 71.86 44.88 69.93 44.90 C 69.93 46.64 69.95 48.39 69.96 50.13 C 63.65 50.12 57.34 50.12 51.03 50.13 C 51.05 48.39 51.07 46.64 51.08 44.90 C 49.16 44.89 47.24 44.94 45.33 44.99 C 50.42 42.48 55.36 39.66 60.41 37.05 Z" />
</g>
<g id="#f5f9f6ff">
<path fill="#f5f9f6" opacity="1.00" d=" M 31.28 10.60 C 49.75 10.25 68.24 10.25 86.71 10.60 L 86.20 11.47 C 87.73 11.45 89.26 11.44 90.79 11.44 L 90.05 12.46 C 90.92 12.46 92.66 12.46 93.54 12.46 L 93.48 13.85 C 93.93 13.66 94.84 13.30 95.30 13.12 L 95.49 14.75 L 97.16 14.23 C 97.24 14.48 97.40 14.99 97.47 15.24 C 98.92 15.96 100.25 16.89 101.59 17.80 L 101.35 18.74 L 102.79 18.29 L 102.29 19.89 L 103.71 19.04 L 103.25 20.68 L 104.81 20.28 L 104.15 21.64 L 105.19 21.40 C 106.10 22.79 107.04 24.17 107.84 25.63 L 108.73 25.74 C 108.63 26.21 108.43 27.14 108.33 27.61 L 109.87 27.64 C 109.70 28.11 109.36 29.05 109.19 29.52 L 110.31 29.49 C 111.24 33.29 112.72 37.03 112.59 41.01 C 112.63 60.34 112.63 79.67 112.59 99.00 C 112.75 102.98 111.24 106.70 110.31 110.49 L 109.21 110.48 C 109.37 110.94 109.69 111.87 109.85 112.33 L 108.23 112.50 L 108.77 114.17 C 108.51 114.25 108.01 114.40 107.76 114.47 C 107.04 115.93 106.11 117.25 105.20 118.59 L 104.27 118.34 L 104.71 119.77 L 103.12 119.30 L 103.93 120.73 L 102.50 120.22 L 102.60 121.68 L 101.26 121.30 L 101.63 122.18 C 100.27 123.10 98.93 124.04 97.45 124.75 C 97.38 125.01 97.24 125.52 97.17 125.78 L 95.49 125.24 L 95.31 126.89 C 94.85 126.70 93.93 126.33 93.47 126.15 L 93.54 127.55 C 92.69 127.54 90.99 127.53 90.14 127.52 L 90.71 128.51 C 89.34 128.57 87.98 128.64 86.62 128.73 C 84.55 129.78 82.19 129.57 79.95 129.63 C 65.29 129.58 50.64 129.64 35.98 129.60 C 33.00 129.70 30.19 128.61 27.24 128.39 L 27.89 127.54 C 27.03 127.54 25.32 127.54 24.47 127.55 L 24.52 126.14 C 24.05 126.33 23.12 126.72 22.66 126.92 L 22.62 125.34 C 22.15 125.43 21.21 125.62 20.74 125.72 L 20.60 124.83 C 19.18 124.05 17.85 123.13 16.49 122.26 L 16.56 121.84 C 15.38 121.44 14.59 120.66 14.19 119.50 L 13.24 119.65 L 13.72 118.31 L 12.79 118.58 C 11.88 117.22 10.93 115.88 10.21 114.40 L 9.30 114.27 C 9.39 113.80 9.58 112.86 9.67 112.39 L 8.11 112.34 C 8.29 111.87 8.65 110.94 8.83 110.48 L 7.41 110.49 C 7.43 109.63 7.46 107.92 7.48 107.07 L 6.66 107.82 C 6.34 104.84 5.33 101.96 5.39 98.93 C 5.39 79.61 5.37 60.28 5.40 40.95 C 5.27 37.99 6.39 35.20 6.61 32.28 L 7.49 32.83 C 7.48 31.99 7.46 30.31 7.44 29.47 L 8.85 29.53 C 8.67 29.08 8.30 28.16 8.12 27.71 L 9.76 27.50 L 9.21 25.82 C 9.47 25.76 9.98 25.64 10.24 25.58 C 10.92 24.09 11.89 22.76 12.82 21.42 L 13.63 21.69 L 13.39 20.34 L 14.85 20.53 L 14.19 19.11 L 15.62 19.89 L 15.26 18.36 L 16.65 18.68 L 16.42 17.80 C 17.77 16.89 19.10 15.95 20.56 15.22 L 20.75 14.28 C 21.22 14.38 22.15 14.57 22.61 14.67 L 22.67 13.09 C 23.13 13.28 24.06 13.66 24.52 13.85 L 24.46 12.46 C 25.33 12.46 27.07 12.46 27.94 12.47 L 27.21 11.44 C 28.74 11.44 30.28 11.45 31.81 11.47 L 31.28 10.60 M 25.38 13.65 L 25.31 14.21 C 24.02 14.63 22.73 15.10 21.45 15.55 L 21.26 16.69 C 20.78 16.57 19.80 16.33 19.32 16.20 L 19.86 17.75 L 18.84 17.21 C 16.76 19.51 14.44 21.59 12.30 23.83 L 12.60 24.84 L 10.99 24.42 L 11.81 26.15 C 11.49 26.24 10.85 26.42 10.52 26.51 C 10.10 27.78 9.64 29.04 9.21 30.31 L 8.60 30.44 C 8.07 32.50 7.51 34.56 7.24 36.68 L 6.53 36.16 C 6.67 58.73 6.67 81.29 6.53 103.85 L 7.26 103.30 C 7.48 105.68 7.99 108.06 9.22 110.13 C 9.71 111.26 10.17 112.41 10.60 113.56 L 11.73 113.76 C 11.58 114.24 11.28 115.20 11.13 115.68 L 12.66 115.10 L 12.25 116.14 C 14.46 118.31 16.61 120.55 18.86 122.68 L 19.87 122.46 L 19.33 123.90 C 19.80 123.74 20.76 123.41 21.23 123.25 L 21.42 124.38 C 22.61 124.80 23.76 125.27 24.90 125.81 C 26.96 127.08 29.39 127.47 31.75 127.73 L 31.13 128.47 C 48.81 128.26 66.50 128.47 84.18 128.37 C 87.06 128.14 89.75 126.85 92.59 126.37 L 92.69 125.79 C 93.96 125.37 95.22 124.90 96.49 124.47 C 96.58 124.15 96.76 123.51 96.85 123.19 L 98.36 123.97 L 98.36 122.58 L 99.31 122.51 C 101.49 120.45 103.54 118.24 105.74 116.20 L 105.40 115.15 L 107.00 115.60 L 106.29 114.22 C 107.46 112.95 108.66 111.60 108.70 109.75 C 108.99 109.64 109.56 109.42 109.85 109.31 C 109.67 108.83 109.30 107.88 109.12 107.41 L 110.23 107.88 C 110.35 106.31 110.70 104.80 111.30 103.35 C 111.44 81.15 111.46 58.94 111.29 36.74 C 110.64 35.29 110.42 33.71 110.23 32.14 L 109.14 32.58 C 109.27 32.19 109.55 31.41 109.69 31.02 C 108.15 28.68 107.10 26.06 105.43 23.79 C 103.58 21.37 101.15 19.50 99.16 17.22 L 98.13 17.72 L 98.67 16.15 C 98.17 16.30 97.18 16.60 96.68 16.75 L 96.73 15.74 C 95.15 15.12 93.61 14.41 92.13 13.60 C 89.12 12.89 86.19 11.53 83.05 11.60 C 67.01 11.62 50.97 11.62 34.93 11.60 C 31.63 11.52 28.59 13.08 25.38 13.65 Z" />
<path fill="#f5f9f6" opacity="1.00" d=" M 38.72 43.81 C 45.75 40.58 52.33 36.47 59.28 33.08 C 61.15 32.18 62.89 33.83 64.49 34.58 C 70.49 37.51 76.18 41.04 82.26 43.80 C 83.83 44.32 84.65 45.76 85.33 47.15 C 82.11 49.77 77.84 48.81 74.04 48.93 C 73.99 50.65 73.95 52.37 73.90 54.09 C 64.97 54.36 56.02 54.40 47.10 54.08 C 47.05 52.36 47.01 50.65 46.97 48.94 C 44.20 48.95 41.43 48.95 38.67 48.92 C 37.93 48.47 36.46 47.55 35.72 47.10 C 36.39 45.74 37.16 44.30 38.72 43.81 M 60.41 37.05 C 55.36 39.66 50.42 42.48 45.33 44.99 C 47.24 44.94 49.16 44.89 51.08 44.90 C 51.07 46.64 51.05 48.39 51.03 50.13 C 57.34 50.12 63.65 50.12 69.96 50.13 C 69.95 48.39 69.93 46.64 69.93 44.90 C 71.86 44.88 73.80 44.94 75.73 45.01 C 70.46 42.68 65.62 39.50 60.41 37.05 Z" />
<path fill="#f5f9f6" opacity="1.00" d=" M 46.86 60.02 C 47.32 58.58 46.25 56.05 48.32 55.59 C 55.21 55.26 62.13 55.62 69.03 55.44 C 70.62 55.60 72.51 55.03 73.81 56.27 C 73.97 57.51 74.08 58.76 74.13 60.02 C 65.08 60.63 55.91 60.63 46.86 60.02 Z" />
<path fill="#f5f9f6" opacity="1.00" d=" M 47.20 62.18 C 49.69 61.34 52.37 61.80 54.95 61.70 C 60.90 61.86 66.87 61.44 72.81 61.87 C 74.80 61.90 73.54 64.57 73.88 65.78 C 64.97 65.88 56.05 65.88 47.13 65.78 C 47.05 64.57 47.07 63.37 47.20 62.18 Z" />
<path fill="#f5f9f6" opacity="1.00" d=" M 46.74 69.91 C 47.11 68.63 46.96 66.59 48.90 67.06 C 57.14 67.13 65.43 66.68 73.64 67.30 C 73.79 67.95 74.08 69.26 74.23 69.91 C 65.08 70.34 55.89 70.37 46.74 69.91 Z" />
<path fill="#f5f9f6" opacity="1.00" d=" M 47.33 71.23 C 48.75 70.40 50.48 70.89 52.03 70.78 C 58.68 70.92 65.33 70.82 71.97 70.76 C 73.95 70.24 75.14 73.66 72.56 73.39 C 65.36 73.74 58.14 73.38 50.93 73.55 C 49.41 73.51 45.67 73.67 47.33 71.23 Z" />
</g>
</svg>
