<?xml version="1.0" encoding="UTF-8" ?>
<!DOCTYPE svg PUBLIC "-//W3C//DTD SVG 1.1//EN" "http://www.w3.org/Graphics/SVG/1.1/DTD/svg11.dtd">
<svg width="117px" height="140px" viewBox="0 0 117 140" version="1.1" xmlns="http://www.w3.org/2000/svg">
<g id="#000000ff">
<path fill="#000000" opacity="1.00" d=" M 0.00 0.00 L 117.00 0.00 L 117.00 140.00 L 0.00 140.00 L 0.00 0.00 M 27.28 11.68 L 27.83 12.46 C 26.99 12.46 25.31 12.45 24.47 12.44 L 24.55 13.79 C 24.07 13.62 23.11 13.28 22.63 13.11 L 22.63 14.62 C 22.16 14.54 21.23 14.38 20.76 14.30 L 20.48 15.12 C 19.20 15.89 17.98 16.75 16.79 17.66 L 16.33 18.46 L 15.15 18.40 L 15.53 18.94 C 14.59 19.67 13.74 20.50 13.00 21.42 L 12.75 21.45 C 11.87 22.81 10.94 24.15 10.10 25.55 L 9.28 25.73 C 9.37 26.20 9.55 27.13 9.65 27.60 L 8.14 27.63 C 8.29 28.11 8.60 29.06 8.76 29.53 L 7.69 29.50 C 7.17 31.38 6.60 33.24 6.12 35.14 C 4.80 40.64 5.57 46.36 5.37 51.96 C 5.54 69.43 5.01 86.93 5.66 104.39 C 5.87 104.38 6.28 104.35 6.48 104.34 C 6.46 105.21 6.42 106.94 6.39 107.81 L 7.44 107.08 C 7.44 107.94 7.43 109.65 7.43 110.51 L 8.80 110.47 C 8.62 110.94 8.27 111.88 8.10 112.35 L 9.62 112.38 C 9.54 112.85 9.38 113.78 9.30 114.25 L 10.16 114.51 C 10.93 115.83 11.76 117.10 12.60 118.37 C 13.58 119.24 14.56 120.11 15.51 121.01 L 15.31 121.88 L 16.76 121.23 L 16.39 122.23 C 17.76 123.11 19.10 124.03 20.51 124.86 L 20.76 125.70 C 21.23 125.62 22.17 125.46 22.64 125.38 L 22.62 126.90 C 23.09 126.73 24.04 126.39 24.52 126.21 L 24.52 127.57 C 25.27 127.56 26.78 127.55 27.53 127.54 L 27.41 128.35 C 30.91 129.04 34.41 129.82 38.00 129.65 C 54.23 129.50 70.47 129.88 86.69 129.43 L 86.21 128.56 C 87.73 128.58 89.26 128.59 90.79 128.60 L 90.10 127.56 C 90.95 127.56 92.66 127.57 93.51 127.57 L 93.46 126.21 C 93.94 126.38 94.90 126.73 95.38 126.90 L 95.36 125.38 C 95.83 125.46 96.77 125.62 97.25 125.71 L 97.49 124.87 C 98.88 124.05 100.21 123.13 101.57 122.25 L 101.55 122.02 C 102.49 121.25 103.34 120.39 104.08 119.44 L 105.05 119.65 L 104.09 118.17 L 105.19 118.65 C 106.09 117.26 107.04 115.90 107.88 114.47 L 108.69 114.26 C 108.62 113.78 108.47 112.83 108.39 112.35 L 109.92 112.38 C 109.74 111.90 109.37 110.95 109.19 110.47 L 110.57 110.53 C 110.56 109.69 110.55 108.00 110.55 107.16 L 111.62 107.74 C 111.59 106.88 111.54 105.17 111.52 104.31 C 111.72 104.34 112.13 104.39 112.34 104.41 C 112.75 98.62 112.62 92.81 112.63 87.00 C 112.46 69.85 112.99 52.67 112.33 35.53 L 111.81 35.74 C 111.52 33.61 110.91 31.56 110.34 29.50 L 109.20 29.49 C 109.38 29.03 109.73 28.11 109.91 27.64 L 108.38 27.63 C 108.46 27.16 108.62 26.23 108.69 25.76 L 107.85 25.48 C 107.03 24.10 106.12 22.78 105.24 21.44 L 105.01 21.43 C 104.25 20.49 103.40 19.66 102.44 18.93 L 102.66 17.97 L 101.21 18.89 L 101.64 17.80 C 100.26 16.90 98.90 15.97 97.48 15.13 L 97.26 14.30 C 96.79 14.38 95.84 14.53 95.36 14.61 L 95.35 13.07 C 94.88 13.26 93.94 13.64 93.47 13.83 L 93.55 12.46 C 92.69 12.45 90.98 12.44 90.13 12.43 L 90.75 11.52 C 90.02 11.46 88.55 11.34 87.82 11.28 C 85.64 10.51 83.32 10.35 81.02 10.36 C 66.34 10.38 51.67 10.37 36.99 10.36 C 33.69 10.25 30.50 11.11 27.28 11.68 Z" />
<path fill="#000000" opacity="1.00" d=" M 25.41 13.66 C 27.51 13.15 29.59 12.57 31.72 12.19 L 31.13 11.56 C 49.69 11.68 68.26 11.68 86.83 11.56 L 86.30 12.20 C 88.66 12.53 90.94 13.23 93.14 14.12 C 94.26 14.67 95.38 15.20 96.52 15.70 L 96.71 16.65 C 97.20 16.57 98.20 16.40 98.69 16.31 L 98.12 17.89 L 99.10 17.27 C 101.34 19.44 103.54 21.64 105.72 23.88 L 105.14 24.84 L 106.72 24.33 C 106.62 24.82 106.43 25.79 106.33 26.27 L 107.18 26.46 C 107.95 27.99 108.74 29.50 109.54 31.02 C 109.47 31.41 109.35 32.18 109.28 32.57 L 110.42 32.21 C 110.45 33.71 110.49 35.20 110.54 36.70 L 111.43 36.17 C 111.33 58.72 111.31 81.27 111.44 103.82 L 110.82 103.33 C 110.47 105.32 109.93 107.27 109.36 109.20 C 108.62 110.65 107.92 112.12 107.23 113.60 L 106.32 113.70 C 106.42 114.19 106.62 115.18 106.72 115.68 L 105.17 115.14 L 105.71 116.12 C 103.54 118.36 101.34 120.56 99.11 122.73 L 98.17 122.11 L 98.66 123.71 C 98.17 123.62 97.19 123.43 96.71 123.33 L 96.56 124.37 C 95.27 124.85 94.00 125.35 92.71 125.82 L 92.59 126.29 C 89.41 127.01 86.33 128.38 83.03 128.38 C 65.74 128.41 48.44 128.28 31.15 128.44 L 31.70 127.78 C 30.07 127.52 28.45 127.19 26.91 126.58 C 26.68 126.55 26.21 126.50 25.98 126.47 C 24.47 125.71 22.97 124.94 21.46 124.19 L 21.28 123.33 C 20.79 123.43 19.81 123.62 19.32 123.72 L 19.88 122.19 L 18.87 122.71 C 16.64 120.54 14.44 118.34 12.27 116.10 L 12.86 115.10 L 11.29 115.69 C 11.38 115.20 11.57 114.22 11.66 113.73 L 10.67 113.51 C 10.20 112.35 9.68 111.21 9.15 110.08 C 8.12 107.16 6.65 104.25 6.63 101.11 C 6.59 79.46 6.72 57.81 6.57 36.16 L 7.46 36.71 C 7.51 35.19 7.56 33.68 7.60 32.17 L 8.74 32.60 C 8.67 32.21 8.53 31.43 8.46 31.04 C 9.26 29.51 10.05 27.99 10.83 26.46 L 11.67 26.30 C 11.57 25.81 11.39 24.83 11.29 24.34 L 12.88 24.82 L 12.28 23.88 C 14.46 21.64 16.66 19.44 18.90 17.26 L 19.86 17.88 L 19.33 16.28 C 19.81 16.38 20.79 16.58 21.28 16.68 L 21.47 15.62 C 22.74 15.14 24.01 14.65 25.29 14.18 L 25.41 13.66 M 54.66 32.59 C 51.94 37.35 49.68 42.37 47.10 47.21 C 44.93 51.11 43.66 55.98 45.67 60.20 C 46.38 60.34 47.79 60.62 48.50 60.75 C 45.31 65.52 44.13 71.17 44.64 76.85 C 50.08 77.47 55.57 77.12 61.03 77.20 C 66.28 77.10 71.57 77.58 76.78 76.78 C 77.17 71.24 75.94 65.74 72.91 61.06 C 74.70 60.39 76.96 59.36 76.76 57.06 C 76.90 49.60 71.81 43.57 69.04 36.99 C 67.59 33.19 64.97 29.86 60.98 28.56 C 58.65 29.47 56.00 30.28 54.66 32.59 Z" />
<path fill="#000000" opacity="1.00" d=" M 58.19 33.01 C 60.11 31.19 63.35 32.27 64.38 34.54 C 67.11 39.60 69.58 44.81 72.19 49.94 C 73.48 52.32 73.67 55.06 73.87 57.71 C 71.87 57.75 69.86 57.75 67.86 57.75 C 70.40 62.86 73.92 67.84 73.86 73.78 C 65.10 73.95 56.34 73.82 47.58 73.86 C 47.11 67.82 50.90 62.86 53.40 57.71 C 51.46 57.70 49.51 57.70 47.56 57.69 C 47.13 51.57 51.03 46.59 53.46 41.33 C 54.99 38.54 56.08 35.43 58.19 33.01 Z" />
</g>
<g id="#ebf1f2ff">
<path fill="#ebf1f2" opacity="1.00" d=" M 27.28 11.68 C 30.50 11.11 33.69 10.25 36.99 10.36 C 51.67 10.37 66.34 10.38 81.02 10.36 C 83.32 10.35 85.64 10.51 87.82 11.28 C 88.55 11.34 90.02 11.46 90.75 11.52 L 90.13 12.43 C 90.98 12.44 92.69 12.45 93.55 12.46 L 93.47 13.83 C 93.94 13.64 94.88 13.26 95.35 13.07 L 95.36 14.61 C 95.84 14.53 96.79 14.38 97.26 14.30 L 97.48 15.13 C 98.90 15.97 100.26 16.90 101.64 17.80 L 101.21 18.89 L 102.66 17.97 L 102.44 18.93 C 103.40 19.66 104.25 20.49 105.01 21.43 L 105.24 21.44 C 106.12 22.78 107.03 24.10 107.85 25.48 L 108.69 25.76 C 108.62 26.23 108.46 27.16 108.38 27.63 L 109.91 27.64 C 109.73 28.11 109.38 29.03 109.20 29.49 L 110.34 29.50 C 110.91 31.56 111.52 33.61 111.81 35.74 L 112.33 35.53 C 112.99 52.67 112.46 69.85 112.63 87.00 C 112.62 92.81 112.75 98.62 112.34 104.41 C 112.13 104.39 111.72 104.34 111.52 104.31 C 111.54 105.17 111.59 106.88 111.62 107.74 L 110.55 107.16 C 110.55 108.00 110.56 109.69 110.57 110.53 L 109.19 110.47 C 109.37 110.95 109.74 111.90 109.92 112.38 L 108.39 112.35 C 108.47 112.83 108.62 113.78 108.69 114.26 L 107.88 114.47 C 107.04 115.90 106.09 117.26 105.19 118.65 L 104.09 118.17 L 105.05 119.65 L 104.08 119.44 C 103.34 120.39 102.49 121.25 101.55 122.02 L 101.57 122.25 C 100.21 123.13 98.88 124.05 97.49 124.87 L 97.25 125.71 C 96.77 125.62 95.83 125.46 95.36 125.38 L 95.38 126.90 C 94.90 126.73 93.94 126.38 93.46 126.21 L 93.51 127.57 C 92.66 127.57 90.95 127.56 90.10 127.56 L 90.79 128.60 C 89.26 128.59 87.73 128.58 86.21 128.56 L 86.69 129.43 C 70.47 129.88 54.23 129.50 38.00 129.65 C 34.41 129.82 30.91 129.04 27.41 128.35 L 27.53 127.54 C 26.78 127.55 25.27 127.56 24.52 127.57 L 24.52 126.21 C 24.04 126.39 23.09 126.73 22.62 126.90 L 22.64 125.38 C 22.17 125.46 21.23 125.62 20.76 125.70 L 20.51 124.86 C 19.10 124.03 17.76 123.11 16.39 122.23 L 16.76 121.23 L 15.31 121.88 L 15.51 121.01 C 14.56 120.11 13.58 119.24 12.60 118.37 C 11.76 117.10 10.93 115.83 10.16 114.51 L 9.30 114.25 C 9.38 113.78 9.54 112.85 9.62 112.38 L 8.10 112.35 C 8.27 111.88 8.62 110.94 8.80 110.47 L 7.43 110.51 C 7.43 109.65 7.44 107.94 7.44 107.08 L 6.39 107.81 C 6.42 106.94 6.46 105.21 6.48 104.34 C 6.28 104.35 5.87 104.38 5.66 104.39 C 5.01 86.93 5.54 69.43 5.37 51.96 C 5.57 46.36 4.80 40.64 6.12 35.14 C 6.60 33.24 7.17 31.38 7.69 29.50 L 8.76 29.53 C 8.60 29.06 8.29 28.11 8.14 27.63 L 9.65 27.60 C 9.55 27.13 9.37 26.20 9.28 25.73 L 10.10 25.55 C 10.94 24.15 11.87 22.81 12.75 21.45 L 13.00 21.42 C 13.74 20.50 14.59 19.67 15.53 18.94 L 15.15 18.40 L 16.33 18.46 L 16.79 17.66 C 17.98 16.75 19.20 15.89 20.48 15.12 L 20.76 14.30 C 21.23 14.38 22.16 14.54 22.63 14.62 L 22.63 13.11 C 23.11 13.28 24.07 13.62 24.55 13.79 L 24.47 12.44 C 25.31 12.45 26.99 12.46 27.83 12.46 L 27.28 11.68 M 25.41 13.66 L 25.29 14.18 C 24.01 14.65 22.74 15.14 21.47 15.62 L 21.28 16.68 C 20.79 16.58 19.81 16.38 19.33 16.28 L 19.86 17.88 L 18.90 17.26 C 16.66 19.44 14.46 21.64 12.28 23.88 L 12.88 24.82 L 11.29 24.34 C 11.39 24.83 11.57 25.81 11.67 26.30 L 10.83 26.46 C 10.05 27.99 9.26 29.51 8.46 31.04 C 8.53 31.43 8.67 32.21 8.74 32.60 L 7.60 32.17 C 7.56 33.68 7.51 35.19 7.46 36.71 L 6.57 36.16 C 6.72 57.81 6.59 79.46 6.63 101.11 C 6.65 104.25 8.12 107.16 9.15 110.08 C 9.68 111.21 10.20 112.35 10.67 113.51 L 11.66 113.73 C 11.57 114.22 11.38 115.20 11.29 115.69 L 12.86 115.10 L 12.27 116.10 C 14.44 118.34 16.64 120.54 18.87 122.71 L 19.88 122.19 L 19.32 123.72 C 19.81 123.62 20.79 123.43 21.28 123.33 L 21.46 124.19 C 22.97 124.94 24.47 125.71 25.98 126.47 C 26.21 126.50 26.68 126.55 26.91 126.58 C 28.45 127.19 30.07 127.52 31.70 127.78 L 31.15 128.44 C 48.44 128.28 65.74 128.41 83.03 128.38 C 86.33 128.38 89.41 127.01 92.59 126.29 L 92.71 125.82 C 94.00 125.35 95.27 124.85 96.56 124.37 L 96.71 123.33 C 97.19 123.43 98.17 123.62 98.66 123.71 L 98.17 122.11 L 99.11 122.73 C 101.34 120.56 103.54 118.36 105.71 116.12 L 105.17 115.14 L 106.72 115.68 C 106.62 115.18 106.42 114.19 106.32 113.70 L 107.23 113.60 C 107.92 112.12 108.62 110.65 109.36 109.20 C 109.93 107.27 110.47 105.32 110.82 103.33 L 111.44 103.82 C 111.31 81.27 111.33 58.72 111.43 36.17 L 110.54 36.70 C 110.49 35.20 110.45 33.71 110.42 32.21 L 109.28 32.57 C 109.35 32.18 109.47 31.41 109.54 31.02 C 108.74 29.50 107.95 27.99 107.18 26.46 L 106.33 26.27 C 106.43 25.79 106.62 24.82 106.72 24.33 L 105.14 24.84 L 105.72 23.88 C 103.54 21.64 101.34 19.44 99.10 17.27 L 98.12 17.89 L 98.69 16.31 C 98.20 16.40 97.20 16.57 96.71 16.65 L 96.52 15.70 C 95.38 15.20 94.26 14.67 93.14 14.12 C 90.94 13.23 88.66 12.53 86.30 12.20 L 86.83 11.56 C 68.26 11.68 49.69 11.68 31.13 11.56 L 31.72 12.19 C 29.59 12.57 27.51 13.15 25.41 13.66 Z" />
<path fill="#ebf1f2" opacity="1.00" d=" M 54.66 32.59 C 56.00 30.28 58.65 29.47 60.98 28.56 C 64.97 29.86 67.59 33.19 69.04 36.99 C 71.81 43.57 76.90 49.60 76.76 57.06 C 76.96 59.36 74.70 60.39 72.91 61.06 C 75.94 65.74 77.17 71.24 76.78 76.78 C 71.57 77.58 66.28 77.10 61.03 77.20 C 55.57 77.12 50.08 77.47 44.64 76.85 C 44.13 71.17 45.31 65.52 48.50 60.75 C 47.79 60.62 46.38 60.34 45.67 60.20 C 43.66 55.98 44.93 51.11 47.10 47.21 C 49.68 42.37 51.94 37.35 54.66 32.59 M 58.19 33.01 C 56.08 35.43 54.99 38.54 53.46 41.33 C 51.03 46.59 47.13 51.57 47.56 57.69 C 49.51 57.70 51.46 57.70 53.40 57.71 C 50.90 62.86 47.11 67.82 47.58 73.86 C 56.34 73.82 65.10 73.95 73.86 73.78 C 73.92 67.84 70.40 62.86 67.86 57.75 C 69.86 57.75 71.87 57.75 73.87 57.71 C 73.67 55.06 73.48 52.32 72.19 49.94 C 69.58 44.81 67.11 39.60 64.38 34.54 C 63.35 32.27 60.11 31.19 58.19 33.01 Z" />
</g>
</svg>
