<?xml version="1.0" encoding="UTF-8" ?>
<!DOCTYPE svg PUBLIC "-//W3C//DTD SVG 1.1//EN" "http://www.w3.org/Graphics/SVG/1.1/DTD/svg11.dtd">
<svg width="117px" height="140px" viewBox="0 0 117 140" version="1.1" xmlns="http://www.w3.org/2000/svg">
<g id="#000000ff">
<path fill="#000000" opacity="1.00" d=" M 0.00 0.00 L 117.00 0.00 L 117.00 140.00 L 0.00 140.00 L 0.00 0.00 M 24.53 12.67 L 24.50 13.80 C 24.04 13.63 23.12 13.30 22.66 13.13 L 22.61 14.66 C 22.15 14.57 21.21 14.39 20.75 14.30 L 20.53 15.31 C 19.04 15.93 17.76 16.90 16.43 17.79 L 16.66 18.79 L 15.23 18.22 L 15.76 19.83 L 14.30 19.08 L 14.71 20.69 L 13.11 20.34 L 13.92 21.70 L 12.84 21.39 C 11.94 22.73 10.88 23.98 10.33 25.52 L 9.30 25.76 C 9.39 26.23 9.55 27.16 9.64 27.63 L 8.08 27.67 C 8.28 28.13 8.67 29.05 8.87 29.50 L 7.46 29.47 C 7.47 30.32 7.49 32.04 7.51 32.89 L 6.44 32.22 C 6.46 33.09 6.50 34.83 6.53 35.70 C 6.32 35.66 5.89 35.59 5.68 35.55 C 5.25 41.34 5.41 47.16 5.39 52.96 C 5.56 70.13 5.03 87.32 5.68 104.48 C 5.90 104.43 6.32 104.34 6.53 104.29 C 6.51 105.16 6.46 106.91 6.44 107.78 L 7.53 107.10 C 7.50 107.95 7.44 109.64 7.41 110.49 L 8.84 110.49 C 8.65 110.95 8.29 111.87 8.11 112.33 L 9.66 112.40 C 9.57 112.87 9.40 113.80 9.32 114.27 L 10.33 114.47 C 10.91 115.98 11.93 117.25 12.81 118.59 L 13.81 118.31 L 13.20 119.74 L 14.82 119.28 L 14.10 120.73 L 15.70 120.26 L 15.31 121.87 L 16.68 121.11 L 16.40 122.16 C 17.75 123.05 18.98 124.16 20.54 124.68 L 20.76 125.71 C 21.23 125.62 22.17 125.44 22.64 125.35 L 22.64 126.90 C 23.11 126.72 24.06 126.36 24.54 126.18 L 24.48 127.55 C 25.33 127.54 27.02 127.51 27.87 127.50 L 27.27 128.60 C 28.13 128.57 29.86 128.50 30.73 128.47 L 30.52 129.30 C 46.33 129.98 62.17 129.43 78.00 129.62 C 83.25 129.91 88.43 128.73 93.46 127.34 L 93.48 126.22 C 93.96 126.38 94.91 126.70 95.39 126.86 L 95.35 125.34 C 95.82 125.43 96.76 125.62 97.23 125.71 L 97.48 124.67 C 99.02 124.13 100.26 123.05 101.60 122.16 L 101.30 121.07 L 102.65 121.90 L 102.32 120.29 L 103.94 120.68 L 103.16 119.20 L 104.81 119.80 L 104.18 118.35 L 105.21 118.57 C 106.10 117.24 107.11 115.98 107.69 114.47 L 108.69 114.26 C 108.60 113.79 108.43 112.85 108.34 112.38 L 109.88 112.36 C 109.70 111.89 109.36 110.95 109.19 110.48 L 110.56 110.50 C 110.54 109.65 110.51 107.95 110.49 107.10 L 111.58 107.77 C 111.55 106.90 111.50 105.16 111.47 104.29 C 111.69 104.33 112.11 104.42 112.32 104.47 C 112.72 98.65 112.60 92.81 112.61 86.99 C 112.45 69.82 112.97 52.64 112.31 35.48 L 111.49 35.77 C 111.50 34.88 111.54 33.10 111.55 32.21 L 110.58 32.89 C 111.07 31.00 110.57 29.75 109.09 29.14 L 110.03 27.76 C 109.60 27.71 108.74 27.61 108.31 27.56 C 108.42 27.12 108.63 26.23 108.74 25.78 L 107.67 25.52 C 107.13 23.97 106.03 22.74 105.14 21.39 L 104.05 21.70 L 104.93 20.32 L 103.30 20.74 L 103.74 19.17 L 102.31 19.76 L 102.69 18.16 L 101.29 18.81 L 101.59 17.79 C 100.25 16.90 98.97 15.92 97.48 15.31 L 97.25 14.30 C 96.78 14.39 95.84 14.55 95.37 14.64 L 95.33 13.09 C 94.87 13.28 93.96 13.67 93.50 13.86 L 93.54 12.47 C 92.68 12.48 90.96 12.49 90.09 12.50 L 90.75 11.44 C 88.89 11.44 87.03 11.43 85.18 11.49 L 85.79 10.47 C 70.21 10.28 54.62 10.45 39.04 10.37 C 34.10 10.16 29.27 11.41 24.53 12.67 Z" />
<path fill="#000000" opacity="1.00" d=" M 32.19 13.19 C 33.26 12.48 34.27 11.25 35.72 11.59 C 51.17 11.63 66.63 11.62 82.08 11.60 C 85.67 11.69 89.08 13.01 92.61 13.61 L 92.66 14.64 C 93.11 14.55 94.01 14.35 94.46 14.25 L 94.72 15.58 C 95.18 15.51 96.09 15.37 96.54 15.30 L 96.65 16.72 C 97.16 16.60 98.17 16.36 98.68 16.24 L 98.21 17.91 L 99.59 17.06 L 99.42 18.11 C 101.66 19.44 103.56 21.30 104.87 23.55 L 105.92 23.44 L 105.09 24.79 L 106.74 24.32 C 106.63 24.82 106.40 25.83 106.28 26.34 L 107.69 26.47 C 107.63 26.93 107.50 27.85 107.43 28.32 L 108.77 28.54 C 108.66 28.98 108.45 29.88 108.34 30.33 L 109.38 30.40 C 109.87 32.52 110.49 34.61 110.68 36.78 L 111.51 36.11 C 111.31 58.34 111.29 80.59 111.52 102.81 L 110.74 102.37 C 110.64 104.84 109.93 107.21 109.39 109.61 L 108.35 109.66 C 108.45 110.11 108.66 111.01 108.76 111.46 L 107.45 111.71 C 107.50 112.17 107.62 113.08 107.68 113.54 L 106.29 113.65 C 106.40 114.16 106.63 115.17 106.75 115.68 L 105.07 115.23 L 105.95 116.58 L 104.87 116.45 C 103.56 118.69 101.69 120.55 99.45 121.87 L 99.55 122.94 L 98.19 122.10 L 98.69 123.76 C 98.18 123.64 97.16 123.40 96.65 123.29 L 96.53 124.70 C 96.08 124.63 95.18 124.50 94.73 124.43 L 94.50 125.69 C 94.03 125.63 93.10 125.49 92.64 125.42 L 92.40 126.88 C 91.90 126.66 90.89 126.21 90.39 125.98 L 90.90 127.33 C 89.21 127.76 85.84 128.61 84.15 129.03 L 85.80 126.80 C 85.10 127.40 84.34 127.91 83.53 128.35 C 66.06 128.52 48.58 128.20 31.10 128.51 L 31.83 127.67 C 29.63 127.50 27.52 126.88 25.38 126.38 L 25.35 125.36 C 24.89 125.46 23.99 125.65 23.54 125.74 L 23.26 124.43 C 22.81 124.50 21.90 124.63 21.45 124.70 L 21.37 123.29 C 20.86 123.40 19.84 123.63 19.33 123.74 L 19.76 122.02 L 18.42 122.97 L 18.57 121.88 C 16.30 120.57 14.45 118.66 13.11 116.43 L 12.06 116.57 L 12.91 115.20 L 11.25 115.69 C 11.37 115.18 11.60 114.16 11.71 113.65 L 10.31 113.54 C 10.38 113.08 10.51 112.17 10.58 111.72 L 9.25 111.46 C 9.35 111.01 9.55 110.11 9.65 109.66 L 8.60 109.61 C 7.84 106.84 7.67 103.92 6.65 101.23 C 6.47 79.92 6.82 58.59 6.47 37.28 C 6.67 37.35 7.06 37.49 7.26 37.56 C 7.34 35.10 8.04 32.76 8.61 30.40 L 9.66 30.34 C 9.56 29.88 9.38 28.97 9.29 28.51 L 10.58 28.28 C 10.51 27.82 10.37 26.91 10.30 26.45 L 11.72 26.36 C 11.60 25.85 11.36 24.85 11.24 24.34 L 12.81 24.79 L 12.14 23.42 L 13.15 23.51 C 14.48 21.29 16.33 19.42 18.56 18.12 L 18.40 17.05 L 19.77 17.94 L 19.32 16.26 C 19.82 16.37 20.84 16.60 21.34 16.72 L 21.47 15.30 C 21.93 15.37 22.84 15.51 23.30 15.58 L 23.49 14.31 C 23.95 14.38 24.88 14.52 25.35 14.59 L 25.62 13.11 C 26.12 13.34 27.12 13.79 27.62 14.02 L 27.10 12.67 C 28.79 12.24 32.18 11.38 33.87 10.95 L 32.19 13.19 M 56.95 28.95 C 49.26 36.64 41.63 44.39 33.90 52.04 C 34.15 52.96 34.42 53.89 34.68 54.81 C 38.06 54.42 42.41 55.99 44.84 52.84 C 49.51 48.06 54.26 43.34 59.00 38.62 C 64.34 43.77 69.33 49.30 74.83 54.29 C 77.49 55.30 80.51 54.59 83.31 54.80 C 83.57 53.90 83.83 52.99 84.09 52.08 C 76.42 44.40 68.75 36.72 61.10 29.02 C 60.14 27.62 57.94 27.55 56.95 28.95 M 57.18 42.98 C 53.32 46.85 49.57 50.84 45.70 54.71 C 44.61 55.92 43.08 57.11 43.15 58.91 C 43.08 64.29 43.11 69.67 43.14 75.05 C 42.88 77.21 45.40 77.72 47.03 77.54 C 49.99 77.33 53.20 78.09 56.01 77.00 C 57.26 73.48 56.25 69.51 56.54 65.81 C 58.41 65.83 60.28 65.84 62.15 65.85 C 62.19 69.21 61.94 72.58 62.23 75.94 C 63.41 78.48 66.81 77.23 69.01 77.56 C 70.90 77.33 73.89 78.24 74.77 75.92 C 75.08 71.31 74.75 66.69 74.90 62.07 C 74.78 60.17 75.32 57.87 73.81 56.37 C 69.57 51.85 65.18 47.47 60.85 43.04 C 59.98 41.89 58.06 41.82 57.18 42.98 Z" />
<path fill="#000000" opacity="1.00" d=" M 41.07 49.09 C 47.04 43.10 53.02 37.12 58.99 31.11 C 65.97 37.98 72.66 45.15 79.83 51.82 C 78.70 51.81 77.57 51.80 76.44 51.80 C 71.06 46.40 65.78 40.87 60.23 35.66 C 57.85 34.15 56.19 37.33 54.62 38.61 C 49.63 43.21 45.49 48.86 39.79 52.57 C 38.68 51.21 40.20 50.03 41.07 49.09 Z" />
<path fill="#000000" opacity="1.00" d=" M 46.16 58.57 C 50.52 54.28 54.72 49.85 58.99 45.48 C 63.25 49.83 67.41 54.28 71.80 58.50 C 71.94 63.84 71.82 69.17 71.88 74.51 C 69.62 74.49 67.37 74.49 65.11 74.51 C 65.15 70.75 65.30 66.97 64.79 63.23 C 61.33 62.87 57.67 62.31 54.29 63.29 C 52.83 66.85 53.74 70.87 53.67 74.62 C 51.15 74.46 48.64 74.46 46.12 74.52 C 46.16 69.20 46.10 63.89 46.16 58.57 Z" />
</g>
<g id="#f5f9f6ff">
<path fill="#f5f9f6" opacity="1.00" d=" M 24.53 12.67 C 29.27 11.41 34.10 10.16 39.04 10.37 C 54.62 10.45 70.21 10.28 85.79 10.47 L 85.18 11.49 C 87.03 11.43 88.89 11.44 90.75 11.44 L 90.09 12.50 C 90.96 12.49 92.68 12.48 93.54 12.47 L 93.50 13.86 C 93.96 13.67 94.87 13.28 95.33 13.09 L 95.37 14.64 C 95.84 14.55 96.78 14.39 97.25 14.30 L 97.48 15.31 C 98.97 15.92 100.25 16.90 101.59 17.79 L 101.29 18.81 L 102.69 18.16 L 102.31 19.76 L 103.74 19.17 L 103.30 20.74 L 104.93 20.32 L 104.05 21.70 L 105.14 21.39 C 106.03 22.74 107.13 23.97 107.67 25.52 L 108.74 25.78 C 108.63 26.23 108.42 27.12 108.31 27.56 C 108.74 27.61 109.60 27.71 110.03 27.76 L 109.09 29.14 C 110.57 29.75 111.07 31.00 110.58 32.89 L 111.55 32.21 C 111.54 33.10 111.50 34.88 111.49 35.77 L 112.31 35.48 C 112.97 52.64 112.45 69.82 112.61 86.99 C 112.60 92.81 112.72 98.65 112.32 104.47 C 112.11 104.42 111.69 104.33 111.47 104.29 C 111.50 105.16 111.55 106.90 111.58 107.77 L 110.49 107.10 C 110.51 107.95 110.54 109.65 110.56 110.50 L 109.19 110.48 C 109.36 110.95 109.70 111.89 109.88 112.36 L 108.34 112.38 C 108.43 112.85 108.60 113.79 108.69 114.26 L 107.69 114.47 C 107.11 115.98 106.10 117.24 105.21 118.57 L 104.18 118.35 L 104.81 119.80 L 103.16 119.20 L 103.94 120.68 L 102.32 120.29 L 102.65 121.90 L 101.30 121.07 L 101.60 122.16 C 100.26 123.05 99.02 124.13 97.48 124.67 L 97.23 125.71 C 96.76 125.62 95.82 125.43 95.35 125.34 L 95.39 126.86 C 94.91 126.70 93.96 126.38 93.48 126.22 L 93.46 127.34 C 88.43 128.73 83.25 129.91 78.00 129.62 C 62.17 129.43 46.33 129.98 30.52 129.30 L 30.73 128.47 C 29.86 128.50 28.13 128.57 27.27 128.60 L 27.87 127.50 C 27.02 127.51 25.33 127.54 24.48 127.55 L 24.54 126.18 C 24.06 126.36 23.11 126.72 22.64 126.90 L 22.64 125.35 C 22.17 125.44 21.23 125.62 20.76 125.71 L 20.54 124.68 C 18.98 124.16 17.75 123.05 16.40 122.16 L 16.68 121.11 L 15.31 121.87 L 15.70 120.26 L 14.10 120.73 L 14.82 119.28 L 13.20 119.74 L 13.81 118.31 L 12.81 118.59 C 11.93 117.25 10.91 115.98 10.33 114.47 L 9.32 114.27 C 9.40 113.80 9.57 112.87 9.66 112.40 L 8.11 112.33 C 8.29 111.87 8.65 110.95 8.84 110.49 L 7.41 110.49 C 7.44 109.64 7.50 107.95 7.53 107.10 L 6.44 107.78 C 6.46 106.91 6.51 105.16 6.53 104.29 C 6.32 104.34 5.90 104.43 5.68 104.48 C 5.03 87.32 5.56 70.13 5.39 52.96 C 5.41 47.16 5.25 41.34 5.68 35.55 C 5.89 35.59 6.32 35.66 6.53 35.70 C 6.50 34.83 6.46 33.09 6.44 32.22 L 7.51 32.89 C 7.49 32.04 7.47 30.32 7.46 29.47 L 8.87 29.50 C 8.67 29.05 8.28 28.13 8.08 27.67 L 9.64 27.63 C 9.55 27.16 9.39 26.23 9.30 25.76 L 10.33 25.52 C 10.88 23.98 11.94 22.73 12.84 21.39 L 13.92 21.70 L 13.11 20.34 L 14.71 20.69 L 14.30 19.08 L 15.76 19.83 L 15.23 18.22 L 16.66 18.79 L 16.43 17.79 C 17.76 16.90 19.04 15.93 20.53 15.31 L 20.75 14.30 C 21.21 14.39 22.15 14.57 22.61 14.66 L 22.66 13.13 C 23.12 13.30 24.04 13.63 24.50 13.80 L 24.53 12.67 M 32.19 13.19 L 33.87 10.95 C 32.18 11.38 28.79 12.24 27.10 12.67 L 27.62 14.02 C 27.12 13.79 26.12 13.34 25.62 13.11 L 25.35 14.59 C 24.88 14.52 23.95 14.38 23.49 14.31 L 23.30 15.58 C 22.84 15.51 21.93 15.37 21.47 15.30 L 21.34 16.72 C 20.84 16.60 19.82 16.37 19.32 16.26 L 19.77 17.94 L 18.40 17.05 L 18.56 18.12 C 16.33 19.42 14.48 21.29 13.15 23.51 L 12.14 23.42 L 12.81 24.79 L 11.24 24.34 C 11.36 24.85 11.60 25.85 11.72 26.36 L 10.30 26.45 C 10.37 26.91 10.51 27.82 10.58 28.28 L 9.29 28.51 C 9.38 28.97 9.56 29.88 9.66 30.34 L 8.61 30.40 C 8.04 32.76 7.34 35.10 7.26 37.56 C 7.06 37.49 6.67 37.35 6.47 37.28 C 6.82 58.59 6.47 79.92 6.65 101.23 C 7.67 103.92 7.84 106.84 8.60 109.61 L 9.65 109.66 C 9.55 110.11 9.35 111.01 9.25 111.46 L 10.58 111.72 C 10.51 112.17 10.38 113.08 10.31 113.54 L 11.71 113.65 C 11.60 114.16 11.37 115.18 11.25 115.69 L 12.91 115.20 L 12.06 116.57 L 13.11 116.43 C 14.45 118.66 16.30 120.57 18.57 121.88 L 18.42 122.97 L 19.76 122.02 L 19.33 123.74 C 19.84 123.63 20.86 123.40 21.37 123.29 L 21.45 124.70 C 21.90 124.63 22.81 124.50 23.26 124.43 L 23.54 125.74 C 23.99 125.65 24.89 125.46 25.35 125.36 L 25.38 126.38 C 27.52 126.88 29.63 127.50 31.83 127.67 L 31.10 128.51 C 48.58 128.20 66.06 128.52 83.53 128.35 C 84.34 127.91 85.10 127.40 85.80 126.80 L 84.15 129.03 C 85.84 128.61 89.21 127.76 90.90 127.33 L 90.39 125.98 C 90.89 126.21 91.90 126.66 92.40 126.88 L 92.64 125.42 C 93.10 125.49 94.03 125.63 94.50 125.69 L 94.73 124.43 C 95.18 124.50 96.08 124.63 96.53 124.70 L 96.65 123.29 C 97.16 123.40 98.18 123.64 98.69 123.76 L 98.19 122.10 L 99.55 122.94 L 99.45 121.87 C 101.69 120.55 103.56 118.69 104.87 116.45 L 105.95 116.58 L 105.07 115.23 L 106.75 115.68 C 106.63 115.17 106.40 114.16 106.29 113.65 L 107.68 113.54 C 107.62 113.08 107.50 112.17 107.45 111.71 L 108.76 111.46 C 108.66 111.01 108.45 110.11 108.35 109.66 L 109.39 109.61 C 109.93 107.21 110.64 104.84 110.74 102.37 L 111.52 102.81 C 111.29 80.59 111.31 58.34 111.51 36.11 L 110.68 36.78 C 110.49 34.61 109.87 32.52 109.38 30.40 L 108.34 30.33 C 108.45 29.88 108.66 28.98 108.77 28.54 L 107.43 28.32 C 107.50 27.85 107.63 26.93 107.69 26.47 L 106.28 26.34 C 106.40 25.83 106.63 24.82 106.74 24.32 L 105.09 24.79 L 105.92 23.44 L 104.87 23.55 C 103.56 21.30 101.66 19.44 99.42 18.11 L 99.59 17.06 L 98.21 17.91 L 98.68 16.24 C 98.17 16.36 97.16 16.60 96.65 16.72 L 96.54 15.30 C 96.09 15.37 95.18 15.51 94.72 15.58 L 94.46 14.25 C 94.01 14.35 93.11 14.55 92.66 14.64 L 92.61 13.61 C 89.08 13.01 85.67 11.69 82.08 11.60 C 66.63 11.62 51.17 11.63 35.72 11.59 C 34.27 11.25 33.26 12.48 32.19 13.19 Z" />
<path fill="#f5f9f6" opacity="1.00" d=" M 56.95 28.95 C 57.94 27.55 60.14 27.62 61.10 29.02 C 68.75 36.72 76.42 44.40 84.09 52.08 C 83.83 52.99 83.57 53.90 83.31 54.80 C 80.51 54.59 77.49 55.30 74.83 54.29 C 69.33 49.30 64.34 43.77 59.00 38.62 C 54.26 43.34 49.51 48.06 44.84 52.84 C 42.41 55.99 38.06 54.42 34.68 54.81 C 34.42 53.89 34.15 52.96 33.90 52.04 C 41.63 44.39 49.26 36.64 56.95 28.95 M 41.07 49.09 C 40.20 50.03 38.68 51.21 39.79 52.57 C 45.49 48.86 49.63 43.21 54.62 38.61 C 56.19 37.33 57.85 34.15 60.23 35.66 C 65.78 40.87 71.06 46.40 76.44 51.80 C 77.57 51.80 78.70 51.81 79.83 51.82 C 72.66 45.15 65.97 37.98 58.99 31.11 C 53.02 37.12 47.04 43.10 41.07 49.09 Z" />
<path fill="#f5f9f6" opacity="1.00" d=" M 57.18 42.98 C 58.06 41.82 59.98 41.89 60.85 43.04 C 65.18 47.47 69.57 51.85 73.81 56.37 C 75.32 57.87 74.78 60.17 74.90 62.07 C 74.75 66.69 75.08 71.31 74.77 75.92 C 73.89 78.24 70.90 77.33 69.01 77.56 C 66.81 77.23 63.41 78.48 62.23 75.94 C 61.94 72.58 62.19 69.21 62.15 65.85 C 60.28 65.84 58.41 65.83 56.54 65.81 C 56.25 69.51 57.26 73.48 56.01 77.00 C 53.20 78.09 49.99 77.33 47.03 77.54 C 45.40 77.72 42.88 77.21 43.14 75.05 C 43.11 69.67 43.08 64.29 43.15 58.91 C 43.08 57.11 44.61 55.92 45.70 54.71 C 49.57 50.84 53.32 46.85 57.18 42.98 M 46.16 58.57 C 46.10 63.89 46.16 69.20 46.12 74.52 C 48.64 74.46 51.15 74.46 53.67 74.62 C 53.74 70.87 52.83 66.85 54.29 63.29 C 57.67 62.31 61.33 62.87 64.79 63.23 C 65.30 66.97 65.15 70.75 65.11 74.51 C 67.37 74.49 69.62 74.49 71.88 74.51 C 71.82 69.17 71.94 63.84 71.80 58.50 C 67.41 54.28 63.25 49.83 58.99 45.48 C 54.72 49.85 50.52 54.28 46.16 58.57 Z" />
</g>
</svg>
