<?xml version="1.0" encoding="UTF-8" ?>
<!DOCTYPE svg PUBLIC "-//W3C//DTD SVG 1.1//EN" "http://www.w3.org/Graphics/SVG/1.1/DTD/svg11.dtd">
<svg width="50px" height="50px" viewBox="0 0 50 50" version="1.1" xmlns="http://www.w3.org/2000/svg">
<g id="#000000ff">
<path fill="#000000" opacity="1.00" d=" M 0.00 0.00 L 50.00 0.00 L 50.00 50.00 L 0.00 50.00 L 0.00 0.00 M 20.47 8.65 C 15.98 9.87 11.98 12.94 9.94 17.16 C 5.73 24.82 8.71 35.52 16.46 39.67 C 23.50 43.99 33.54 42.03 38.46 35.41 C 43.13 29.44 43.11 20.47 38.40 14.52 C 34.35 9.21 26.88 6.75 20.47 8.65 Z" />
<path fill="#000000" opacity="1.00" d=" M 20.47 10.70 C 28.56 7.84 38.11 13.49 39.66 21.87 C 41.57 29.66 35.99 38.19 28.13 39.66 C 20.34 41.58 11.83 35.99 10.34 28.15 C 8.57 20.85 13.30 12.82 20.47 10.70 M 19.48 15.98 C 19.54 16.47 19.68 17.45 19.74 17.94 C 22.91 18.10 26.08 17.97 29.24 18.00 C 25.60 23.26 21.86 28.48 18.56 33.97 C 23.27 33.89 28.01 34.29 32.70 33.79 C 32.79 33.38 32.97 32.56 33.06 32.15 C 29.53 31.94 26.00 31.97 22.47 32.03 C 26.12 26.74 29.78 21.45 33.22 16.02 C 28.64 15.97 24.06 16.03 19.48 15.98 Z" />
</g>
<g id="#f7fbf7ff">
<path fill="#f7fbf7" opacity="1.00" d=" M 20.47 8.65 C 26.88 6.75 34.35 9.21 38.40 14.52 C 43.11 20.47 43.13 29.44 38.46 35.41 C 33.54 42.03 23.50 43.99 16.46 39.67 C 8.71 35.52 5.73 24.82 9.94 17.16 C 11.98 12.94 15.98 9.87 20.47 8.65 M 20.47 10.70 C 13.30 12.82 8.57 20.85 10.34 28.15 C 11.83 35.99 20.34 41.58 28.13 39.66 C 35.99 38.19 41.57 29.66 39.66 21.87 C 38.11 13.49 28.56 7.84 20.47 10.70 Z" />
<path fill="#f7fbf7" opacity="1.00" d=" M 19.48 15.98 C 24.06 16.03 28.64 15.97 33.22 16.02 C 29.78 21.45 26.12 26.74 22.47 32.03 C 26.00 31.97 29.53 31.94 33.06 32.15 C 32.97 32.56 32.79 33.38 32.70 33.79 C 28.01 34.29 23.27 33.89 18.56 33.97 C 21.86 28.48 25.60 23.26 29.24 18.00 C 26.08 17.97 22.91 18.10 19.74 17.94 C 19.68 17.45 19.54 16.47 19.48 15.98 Z" />
</g>
</svg>
