<?xml version="1.0" encoding="UTF-8" ?>
<!DOCTYPE svg PUBLIC "-//W3C//DTD SVG 1.1//EN" "http://www.w3.org/Graphics/SVG/1.1/DTD/svg11.dtd">
<svg width="50px" height="50px" viewBox="0 0 50 50" version="1.1" xmlns="http://www.w3.org/2000/svg">
<g id="#000000ff">
<path fill="#000000" opacity="1.00" d=" M 0.00 0.00 L 50.00 0.00 L 50.00 50.00 L 0.00 50.00 L 0.00 0.00 M 40.06 5.26 C 37.00 9.61 37.28 15.64 39.77 20.20 C 41.51 23.14 41.59 26.77 39.99 29.78 C 40.52 30.22 41.59 31.11 42.12 31.56 C 43.18 29.53 44.21 27.36 44.02 25.00 C 44.13 20.68 40.54 17.32 40.67 13.01 C 40.46 10.16 42.38 7.69 42.14 4.84 C 41.62 4.95 40.58 5.15 40.06 5.26 M 23.82 24.16 C 26.16 27.39 21.34 31.60 25.27 33.79 C 26.43 31.71 27.45 29.43 27.26 26.98 C 27.29 22.67 23.72 19.30 23.91 14.98 C 23.86 12.53 24.89 10.27 25.72 8.02 C 25.30 7.68 24.48 7.00 24.06 6.66 C 19.49 11.45 20.84 18.88 23.82 24.16 M 6.06 26.06 C 7.71 28.95 7.66 32.43 6.15 35.36 C 6.86 35.97 7.58 36.57 8.34 37.12 C 9.20 35.19 10.26 33.24 10.18 31.06 C 10.47 26.03 5.87 22.08 6.91 16.96 C 6.95 14.53 9.80 11.84 7.05 9.99 C 2.95 14.29 3.29 21.14 6.06 26.06 M 1.04 41.13 C 1.04 41.82 1.05 43.20 1.06 43.89 C 17.01 44.08 32.98 44.06 48.93 43.90 C 48.93 43.20 48.92 41.79 48.91 41.09 C 32.96 40.96 16.99 40.90 1.04 41.13 Z" />
</g>
<g id="#f8fcf8ff">
<path fill="#f8fcf8" opacity="1.00" d=" M 40.06 5.26 C 40.58 5.15 41.62 4.95 42.14 4.84 C 42.38 7.69 40.46 10.16 40.67 13.01 C 40.54 17.32 44.13 20.68 44.02 25.00 C 44.21 27.36 43.18 29.53 42.12 31.56 C 41.59 31.11 40.52 30.22 39.99 29.78 C 41.59 26.77 41.51 23.14 39.77 20.20 C 37.28 15.64 37.00 9.61 40.06 5.26 Z" />
<path fill="#f8fcf8" opacity="1.00" d=" M 23.82 24.16 C 20.84 18.88 19.49 11.45 24.06 6.66 C 24.48 7.00 25.30 7.68 25.72 8.02 C 24.89 10.27 23.86 12.53 23.91 14.98 C 23.72 19.30 27.29 22.67 27.26 26.98 C 27.45 29.43 26.43 31.71 25.27 33.79 C 21.34 31.60 26.16 27.39 23.82 24.16 Z" />
<path fill="#f8fcf8" opacity="1.00" d=" M 6.06 26.06 C 3.29 21.14 2.95 14.29 7.05 9.99 C 9.80 11.84 6.95 14.53 6.91 16.96 C 5.87 22.08 10.47 26.03 10.18 31.06 C 10.26 33.24 9.20 35.19 8.34 37.12 C 7.58 36.57 6.86 35.97 6.15 35.36 C 7.66 32.43 7.71 28.95 6.06 26.06 Z" />
<path fill="#f8fcf8" opacity="1.00" d=" M 1.04 41.13 C 16.99 40.90 32.96 40.96 48.91 41.09 C 48.92 41.79 48.93 43.20 48.93 43.90 C 32.98 44.06 17.01 44.08 1.06 43.89 C 1.05 43.20 1.04 41.82 1.04 41.13 Z" />
</g>
</svg>
