<?xml version="1.0" encoding="UTF-8" ?>
<!DOCTYPE svg PUBLIC "-//W3C//DTD SVG 1.1//EN" "http://www.w3.org/Graphics/SVG/1.1/DTD/svg11.dtd">
<svg width="117px" height="140px" viewBox="0 0 117 140" version="1.1" xmlns="http://www.w3.org/2000/svg">
<g id="#000000ff">
<path fill="#000000" opacity="1.00" d=" M 0.00 0.00 L 117.00 0.00 L 117.00 140.00 L 0.00 140.00 L 0.00 0.00 M 24.54 12.63 L 24.49 13.80 C 24.03 13.63 23.11 13.29 22.65 13.13 L 22.61 14.66 C 22.15 14.57 21.21 14.38 20.74 14.29 L 20.57 15.21 C 19.10 15.96 17.76 16.91 16.40 17.82 L 16.67 18.81 L 15.34 18.20 L 15.72 19.85 L 14.28 19.08 L 14.70 20.66 L 13.20 20.34 L 13.80 21.68 L 12.36 21.44 L 12.67 22.34 C 10.92 22.47 10.93 24.55 10.21 25.69 L 9.28 25.70 C 9.37 26.17 9.56 27.13 9.66 27.61 L 8.08 27.67 C 8.28 28.13 8.67 29.05 8.87 29.51 L 7.77 29.45 C 6.65 31.38 6.21 33.52 6.41 35.75 L 5.69 35.53 C 5.21 42.01 5.43 48.52 5.39 55.01 C 5.56 71.51 5.02 88.02 5.69 104.50 L 6.51 104.25 C 6.50 105.14 6.46 106.92 6.45 107.81 L 7.51 107.08 C 7.49 107.94 7.45 109.66 7.43 110.51 L 8.86 110.50 C 8.67 110.95 8.28 111.87 8.08 112.33 L 9.64 112.38 C 9.56 112.86 9.41 113.81 9.33 114.29 L 10.26 114.45 C 11.29 116.50 12.77 118.28 13.87 120.30 C 14.30 120.36 15.18 120.49 15.61 120.55 L 15.42 121.87 L 16.69 121.19 L 16.41 122.17 C 17.77 123.09 19.07 124.10 20.57 124.77 L 20.75 125.73 C 21.21 125.63 22.13 125.42 22.58 125.32 C 22.61 125.72 22.67 126.54 22.70 126.94 L 24.48 126.11 L 24.48 127.54 C 25.33 127.53 27.04 127.52 27.89 127.51 L 27.23 128.58 C 28.11 128.56 29.85 128.51 30.72 128.49 L 30.54 129.30 C 48.96 129.95 67.41 129.52 85.84 129.54 L 85.12 128.56 C 88.02 128.93 90.83 128.23 93.54 127.28 L 93.46 126.17 L 95.35 126.89 L 95.36 125.35 C 95.83 125.44 96.77 125.62 97.24 125.71 L 97.45 124.75 C 98.93 124.05 100.26 123.09 101.62 122.18 L 101.26 121.13 L 102.62 121.88 L 102.34 120.27 L 103.86 120.76 L 103.23 119.30 L 104.83 119.61 L 104.19 118.27 L 105.16 118.61 C 105.99 117.33 106.92 116.11 107.71 114.80 C 108.08 113.67 108.91 112.79 109.68 111.92 L 109.26 110.40 L 110.53 110.51 C 110.55 109.46 110.58 107.37 110.60 106.33 L 111.43 108.50 C 111.45 107.46 111.49 105.38 111.51 104.34 C 111.72 104.36 112.14 104.40 112.34 104.42 C 112.72 98.31 112.60 92.18 112.61 86.07 C 112.45 69.21 112.96 52.34 112.31 35.50 L 111.49 35.76 C 111.51 34.88 111.54 33.13 111.56 32.25 L 110.46 32.84 C 110.49 32.00 110.55 30.32 110.58 29.48 L 109.28 29.59 C 109.40 29.07 109.65 28.03 109.78 27.51 L 108.33 27.67 C 108.43 27.19 108.62 26.23 108.71 25.74 L 107.78 25.58 C 106.05 22.90 104.83 19.17 101.41 18.26 L 101.56 17.75 C 100.23 16.87 98.91 15.96 97.47 15.27 L 97.26 14.30 C 96.79 14.39 95.85 14.56 95.38 14.64 L 95.34 13.10 C 94.87 13.29 93.94 13.66 93.48 13.85 L 93.55 12.50 C 92.64 12.48 90.81 12.44 89.90 12.42 L 90.90 11.55 C 87.53 11.73 84.36 10.27 81.00 10.37 C 66.31 10.39 51.62 10.39 36.93 10.38 C 32.73 10.57 28.60 11.56 24.54 12.63 Z" />
<path fill="#000000" opacity="1.00" d=" M 32.54 12.52 C 33.92 11.83 35.43 11.48 36.98 11.58 C 52.52 11.68 68.07 11.53 83.61 11.67 C 85.26 12.80 87.30 12.49 89.19 12.61 C 90.25 13.23 91.40 13.58 92.64 13.66 L 92.63 14.63 C 93.09 14.54 94.01 14.36 94.48 14.27 L 94.70 15.57 C 95.16 15.50 96.09 15.37 96.55 15.30 L 96.61 16.66 C 97.19 16.57 98.35 16.38 98.94 16.29 L 97.67 17.78 L 99.16 17.19 C 100.86 19.16 102.60 21.12 104.59 22.81 L 104.48 23.53 L 105.82 23.43 L 105.20 24.80 L 106.71 24.31 C 106.61 24.83 106.41 25.86 106.31 26.37 L 107.69 26.45 C 107.63 26.92 107.50 27.85 107.43 28.31 L 108.74 28.53 C 108.65 28.98 108.46 29.90 108.37 30.35 L 109.38 30.39 C 109.89 32.50 110.44 34.60 110.70 36.76 L 111.50 36.13 C 111.36 58.30 111.23 80.48 111.56 102.65 L 109.87 102.08 L 112.33 103.60 L 110.69 103.36 C 110.39 105.49 109.78 107.55 109.35 109.65 L 108.36 109.63 C 108.46 110.09 108.64 111.01 108.74 111.47 L 107.44 111.72 C 107.50 112.17 107.63 113.09 107.69 113.54 L 106.34 113.61 C 106.43 114.19 106.62 115.36 106.71 115.94 L 105.22 114.66 L 105.89 116.50 L 104.91 116.45 C 103.52 118.69 101.65 120.56 99.40 121.92 L 99.65 122.91 L 98.25 122.09 L 98.69 123.73 C 98.17 123.62 97.15 123.41 96.63 123.30 L 96.54 124.70 C 96.08 124.63 95.17 124.50 94.71 124.43 L 94.51 125.69 C 94.04 125.62 93.10 125.49 92.63 125.43 L 92.38 126.90 C 91.90 126.67 90.93 126.21 90.45 125.98 L 90.82 127.37 C 88.22 127.29 85.71 127.94 83.16 128.34 C 65.82 128.53 48.47 128.21 31.13 128.50 L 31.80 127.69 C 29.63 127.43 27.53 126.87 25.41 126.41 L 25.35 125.37 C 24.89 125.46 23.99 125.65 23.54 125.74 L 23.28 124.44 C 22.82 124.50 21.90 124.63 21.44 124.69 L 21.38 123.31 C 20.86 123.41 19.83 123.61 19.32 123.71 L 19.73 122.03 L 18.41 122.89 L 18.50 121.86 C 17.26 121.01 16.18 119.85 14.73 119.36 C 13.98 118.27 14.07 116.02 12.14 116.36 L 12.89 115.26 L 11.28 115.69 C 11.39 115.17 11.59 114.14 11.69 113.62 L 10.31 113.54 C 10.37 113.08 10.50 112.15 10.56 111.69 L 9.25 111.47 C 9.35 111.01 9.54 110.10 9.64 109.64 L 8.66 109.63 C 8.55 108.40 8.20 107.25 7.61 106.17 C 7.54 105.24 7.41 103.37 7.34 102.44 L 6.49 102.77 C 6.68 80.91 6.72 59.04 6.47 37.19 L 7.35 37.60 C 7.41 36.27 7.55 33.59 7.61 32.25 C 8.02 32.59 8.84 33.25 9.24 33.58 L 8.12 30.99 L 9.30 30.08 C 9.37 29.67 9.52 28.86 9.60 28.45 L 10.62 28.27 C 10.55 27.93 10.40 27.24 10.33 26.90 C 13.53 24.36 14.65 19.89 18.58 18.08 L 18.42 17.11 L 19.92 17.84 L 19.23 16.28 C 19.77 16.39 20.84 16.59 21.37 16.69 L 21.46 15.29 C 21.92 15.36 22.84 15.51 23.30 15.58 L 23.49 14.32 C 23.96 14.38 24.91 14.50 25.38 14.56 L 25.62 13.09 C 26.10 13.32 27.07 13.78 27.56 14.01 L 27.17 12.56 C 28.96 12.49 30.75 12.48 32.54 12.52 M 50.30 28.05 C 50.32 37.70 50.34 47.35 50.29 56.99 C 44.67 61.16 43.21 69.82 47.64 75.35 C 51.65 80.98 60.73 81.56 65.40 76.45 C 70.89 71.11 69.78 61.45 63.71 56.99 C 63.66 47.34 63.69 37.69 63.70 28.05 C 59.23 28.02 54.76 28.01 50.30 28.05 M 67.98 33.36 C 69.76 33.75 71.58 33.46 73.36 33.18 C 73.69 29.67 66.00 29.64 67.98 33.36 M 67.96 40.26 C 69.73 40.70 71.56 40.39 73.33 40.13 C 73.75 36.62 66.06 36.61 67.96 40.26 M 67.80 44.87 C 66.61 48.57 71.12 47.15 73.22 47.17 C 73.48 43.94 69.91 44.48 67.80 44.87 M 67.90 51.77 C 66.43 55.49 71.08 54.07 73.13 54.17 C 73.62 50.93 69.99 51.40 67.90 51.77 Z" />
<path fill="#000000" opacity="1.00" d=" M 52.95 30.78 C 55.65 30.78 58.35 30.78 61.04 30.78 C 60.91 40.04 60.93 49.30 61.01 58.55 C 66.11 61.44 68.17 68.70 64.37 73.44 C 61.06 78.44 52.93 78.43 49.62 73.44 C 45.86 68.73 47.83 61.48 52.93 58.63 C 53.14 49.35 53.06 40.06 52.95 30.78 M 55.65 46.74 C 55.69 51.30 55.66 55.86 55.71 60.41 C 51.27 61.87 48.53 67.49 51.55 71.50 C 54.07 75.69 60.81 75.26 62.86 70.84 C 65.27 66.84 62.44 61.82 58.31 60.45 C 58.33 55.88 58.31 51.31 58.35 46.75 C 57.68 46.75 56.33 46.74 55.65 46.74 Z" />
</g>
<g id="#f5f9f6ff">
<path fill="#f5f9f6" opacity="1.00" d=" M 24.54 12.63 C 28.60 11.56 32.73 10.57 36.93 10.38 C 51.62 10.39 66.31 10.39 81.00 10.37 C 84.36 10.27 87.53 11.73 90.90 11.55 L 89.90 12.42 C 90.81 12.44 92.64 12.48 93.55 12.50 L 93.48 13.85 C 93.94 13.66 94.87 13.29 95.34 13.10 L 95.38 14.64 C 95.85 14.56 96.79 14.39 97.26 14.30 L 97.47 15.27 C 98.91 15.96 100.23 16.87 101.56 17.75 L 101.41 18.26 C 104.83 19.17 106.05 22.90 107.78 25.58 L 108.71 25.74 C 108.62 26.23 108.43 27.19 108.33 27.67 L 109.78 27.51 C 109.65 28.03 109.40 29.07 109.28 29.59 L 110.58 29.48 C 110.55 30.32 110.49 32.00 110.46 32.84 L 111.56 32.25 C 111.54 33.13 111.51 34.88 111.49 35.76 L 112.31 35.50 C 112.96 52.34 112.45 69.21 112.61 86.07 C 112.60 92.18 112.72 98.31 112.34 104.42 C 112.14 104.40 111.72 104.36 111.51 104.34 C 111.49 105.38 111.45 107.46 111.43 108.50 L 110.60 106.33 C 110.58 107.37 110.55 109.46 110.53 110.51 L 109.26 110.40 L 109.68 111.92 C 108.91 112.79 108.08 113.67 107.71 114.80 C 106.92 116.11 105.99 117.33 105.16 118.61 L 104.19 118.27 L 104.83 119.61 L 103.23 119.30 L 103.86 120.76 L 102.34 120.27 L 102.62 121.88 L 101.26 121.13 L 101.62 122.18 C 100.26 123.09 98.93 124.05 97.45 124.75 L 97.24 125.71 C 96.77 125.62 95.83 125.44 95.36 125.35 L 95.35 126.89 L 93.46 126.17 L 93.54 127.28 C 90.83 128.23 88.02 128.93 85.12 128.56 L 85.84 129.54 C 67.41 129.52 48.96 129.95 30.54 129.30 L 30.72 128.49 C 29.85 128.51 28.11 128.56 27.23 128.58 L 27.89 127.51 C 27.04 127.52 25.33 127.53 24.48 127.54 L 24.48 126.11 L 22.70 126.94 C 22.67 126.54 22.61 125.72 22.58 125.32 C 22.13 125.42 21.21 125.63 20.75 125.73 L 20.57 124.77 C 19.07 124.10 17.77 123.09 16.41 122.17 L 16.69 121.19 L 15.42 121.87 L 15.61 120.55 C 15.18 120.49 14.30 120.36 13.87 120.30 C 12.77 118.28 11.29 116.50 10.26 114.45 L 9.33 114.29 C 9.41 113.81 9.56 112.86 9.64 112.38 L 8.08 112.33 C 8.28 111.87 8.67 110.95 8.86 110.50 L 7.43 110.51 C 7.45 109.66 7.49 107.94 7.51 107.08 L 6.45 107.81 C 6.46 106.92 6.50 105.14 6.51 104.25 L 5.69 104.50 C 5.02 88.02 5.56 71.51 5.39 55.01 C 5.43 48.52 5.21 42.01 5.69 35.53 L 6.41 35.75 C 6.21 33.52 6.65 31.38 7.77 29.45 L 8.87 29.51 C 8.67 29.05 8.28 28.13 8.08 27.67 L 9.66 27.61 C 9.56 27.13 9.37 26.17 9.28 25.70 L 10.21 25.69 C 10.93 24.55 10.92 22.47 12.67 22.34 L 12.36 21.44 L 13.80 21.68 L 13.20 20.34 L 14.70 20.66 L 14.28 19.08 L 15.72 19.85 L 15.34 18.20 L 16.67 18.81 L 16.40 17.82 C 17.76 16.91 19.10 15.96 20.57 15.21 L 20.74 14.29 C 21.21 14.38 22.15 14.57 22.61 14.66 L 22.65 13.13 C 23.11 13.29 24.03 13.63 24.49 13.80 L 24.54 12.63 M 32.54 12.52 C 30.75 12.48 28.96 12.49 27.17 12.56 L 27.56 14.01 C 27.07 13.78 26.10 13.32 25.62 13.09 L 25.38 14.56 C 24.91 14.50 23.96 14.38 23.49 14.32 L 23.30 15.58 C 22.84 15.51 21.92 15.36 21.46 15.29 L 21.37 16.69 C 20.84 16.59 19.77 16.39 19.23 16.28 L 19.92 17.84 L 18.42 17.11 L 18.58 18.08 C 14.65 19.89 13.53 24.36 10.33 26.90 C 10.40 27.24 10.55 27.93 10.62 28.27 L 9.60 28.45 C 9.52 28.86 9.37 29.67 9.30 30.08 L 8.12 30.99 L 9.24 33.58 C 8.84 33.25 8.02 32.59 7.61 32.25 C 7.55 33.59 7.41 36.27 7.35 37.60 L 6.47 37.19 C 6.72 59.04 6.68 80.91 6.49 102.77 L 7.34 102.44 C 7.41 103.37 7.54 105.24 7.61 106.17 C 8.20 107.25 8.55 108.40 8.66 109.63 L 9.64 109.64 C 9.54 110.10 9.35 111.01 9.25 111.47 L 10.56 111.69 C 10.50 112.15 10.37 113.08 10.31 113.54 L 11.69 113.62 C 11.59 114.14 11.39 115.17 11.28 115.69 L 12.89 115.26 L 12.14 116.36 C 14.07 116.02 13.98 118.27 14.73 119.36 C 16.18 119.85 17.26 121.01 18.50 121.86 L 18.41 122.89 L 19.73 122.03 L 19.32 123.71 C 19.83 123.61 20.86 123.41 21.38 123.31 L 21.44 124.69 C 21.90 124.63 22.82 124.50 23.28 124.44 L 23.54 125.74 C 23.99 125.65 24.89 125.46 25.35 125.37 L 25.41 126.41 C 27.53 126.87 29.63 127.43 31.80 127.69 L 31.13 128.50 C 48.47 128.21 65.82 128.53 83.16 128.34 C 85.71 127.94 88.22 127.29 90.82 127.37 L 90.45 125.98 C 90.93 126.21 91.90 126.67 92.38 126.90 L 92.63 125.43 C 93.10 125.49 94.04 125.62 94.51 125.69 L 94.71 124.43 C 95.17 124.50 96.08 124.63 96.54 124.70 L 96.63 123.30 C 97.15 123.41 98.17 123.62 98.69 123.73 L 98.25 122.09 L 99.65 122.91 L 99.40 121.92 C 101.65 120.56 103.52 118.69 104.91 116.45 L 105.89 116.50 L 105.22 114.66 L 106.71 115.94 C 106.62 115.36 106.43 114.19 106.34 113.61 L 107.69 113.54 C 107.63 113.09 107.50 112.17 107.44 111.72 L 108.74 111.47 C 108.64 111.01 108.46 110.09 108.36 109.63 L 109.35 109.65 C 109.78 107.55 110.39 105.49 110.69 103.36 L 112.33 103.60 L 109.87 102.08 L 111.56 102.65 C 111.23 80.48 111.36 58.30 111.50 36.13 L 110.70 36.76 C 110.44 34.60 109.89 32.50 109.38 30.39 L 108.37 30.35 C 108.46 29.90 108.65 28.98 108.74 28.53 L 107.43 28.31 C 107.50 27.85 107.63 26.92 107.69 26.45 L 106.31 26.37 C 106.41 25.86 106.61 24.83 106.71 24.31 L 105.20 24.80 L 105.82 23.43 L 104.48 23.53 L 104.59 22.81 C 102.60 21.12 100.86 19.16 99.16 17.19 L 97.67 17.78 L 98.94 16.29 C 98.35 16.38 97.19 16.57 96.61 16.66 L 96.55 15.30 C 96.09 15.37 95.16 15.50 94.70 15.57 L 94.48 14.27 C 94.01 14.36 93.09 14.54 92.63 14.63 L 92.64 13.66 C 91.40 13.58 90.25 13.23 89.19 12.61 C 87.30 12.49 85.26 12.80 83.61 11.67 C 68.07 11.53 52.52 11.68 36.98 11.58 C 35.43 11.48 33.92 11.83 32.54 12.52 Z" />
<path fill="#f5f9f6" opacity="1.00" d=" M 50.30 28.05 C 54.76 28.01 59.23 28.02 63.70 28.05 C 63.69 37.69 63.66 47.34 63.71 56.99 C 69.78 61.45 70.89 71.11 65.40 76.45 C 60.73 81.56 51.65 80.98 47.64 75.35 C 43.21 69.82 44.67 61.16 50.29 56.99 C 50.34 47.35 50.32 37.70 50.30 28.05 M 52.95 30.78 C 53.06 40.06 53.14 49.35 52.93 58.63 C 47.83 61.48 45.86 68.73 49.62 73.44 C 52.93 78.43 61.06 78.44 64.37 73.44 C 68.17 68.70 66.11 61.44 61.01 58.55 C 60.93 49.30 60.91 40.04 61.04 30.78 C 58.35 30.78 55.65 30.78 52.95 30.78 Z" />
<path fill="#f5f9f6" opacity="1.00" d=" M 67.98 33.36 C 66.00 29.64 73.69 29.67 73.36 33.18 C 71.58 33.46 69.76 33.75 67.98 33.36 Z" />
<path fill="#f5f9f6" opacity="1.00" d=" M 67.96 40.26 C 66.06 36.61 73.75 36.62 73.33 40.13 C 71.56 40.39 69.73 40.70 67.96 40.26 Z" />
<path fill="#f5f9f6" opacity="1.00" d=" M 67.80 44.87 C 69.91 44.48 73.48 43.94 73.22 47.17 C 71.12 47.15 66.61 48.57 67.80 44.87 Z" />
<path fill="#f5f9f6" opacity="1.00" d=" M 55.65 46.74 C 56.33 46.74 57.68 46.75 58.35 46.75 C 58.31 51.31 58.33 55.88 58.31 60.45 C 62.44 61.82 65.27 66.84 62.86 70.84 C 60.81 75.26 54.07 75.69 51.55 71.50 C 48.53 67.49 51.27 61.87 55.71 60.41 C 55.66 55.86 55.69 51.30 55.65 46.74 Z" />
<path fill="#f5f9f6" opacity="1.00" d=" M 67.90 51.77 C 69.99 51.40 73.62 50.93 73.13 54.17 C 71.08 54.07 66.43 55.49 67.90 51.77 Z" />
</g>
</svg>
