<?xml version="1.0" encoding="UTF-8" ?>
<!DOCTYPE svg PUBLIC "-//W3C//DTD SVG 1.1//EN" "http://www.w3.org/Graphics/SVG/1.1/DTD/svg11.dtd">
<svg width="45px" height="45px" viewBox="0 0 45 45" version="1.1" xmlns="http://www.w3.org/2000/svg">
<g id="#000000ff">
<path fill="#000000" opacity="1.00" d=" M 0.00 0.00 L 45.00 0.00 L 45.00 45.00 L 0.00 45.00 L 0.00 0.00 M 17.95 8.67 C 18.67 12.12 20.66 15.06 21.94 18.29 C 20.00 16.39 18.23 14.33 16.21 12.51 C 15.77 12.48 14.89 12.42 14.45 12.39 C 12.70 13.75 11.13 15.32 9.89 17.17 C 12.84 18.11 15.84 19.01 18.54 20.57 C 15.88 20.27 13.18 19.80 10.53 20.44 C 9.49 22.71 9.32 25.21 9.45 27.67 C 13.00 27.29 15.63 24.39 19.22 24.14 C 17.37 25.61 15.05 26.59 13.59 28.49 C 13.37 29.74 13.38 31.01 13.32 32.26 C 14.54 33.68 16.04 34.81 17.74 35.58 C 19.04 32.43 20.23 29.25 21.04 25.94 C 19.36 23.38 19.90 19.62 23.01 18.50 C 25.84 19.19 27.23 21.56 27.56 24.29 C 30.07 24.51 32.58 25.93 35.10 25.15 C 36.87 23.25 37.96 19.28 36.07 17.38 C 33.22 18.73 30.52 20.41 27.62 21.67 C 27.93 21.24 28.54 20.37 28.85 19.93 C 30.43 18.86 32.22 17.96 33.39 16.41 C 34.61 14.46 32.88 12.51 32.16 10.74 C 30.99 10.33 29.82 9.93 28.65 9.52 C 27.65 12.52 26.91 15.62 25.49 18.45 C 25.58 15.57 25.77 12.69 25.76 9.81 C 23.28 8.77 20.64 8.36 17.95 8.67 M 21.48 20.56 C 21.40 21.54 21.25 23.51 21.17 24.50 C 22.71 24.85 24.41 25.64 25.64 24.17 C 25.61 23.28 25.56 21.51 25.53 20.62 C 24.52 20.60 22.50 20.57 21.48 20.56 M 21.67 26.20 C 21.48 28.95 20.55 31.59 20.37 34.35 C 22.75 36.39 26.09 37.24 28.91 35.51 C 27.26 32.87 25.47 30.16 25.07 26.99 C 26.59 28.94 28.09 30.91 29.76 32.74 C 32.76 32.74 35.12 30.78 36.90 28.53 C 33.64 27.07 30.06 26.31 27.06 24.30 C 25.62 25.87 23.93 27.22 21.67 26.20 Z" />
</g>
<g id="#f8fcf8ff">
<path fill="#f8fcf8" opacity="1.00" d=" M 17.95 8.67 C 20.64 8.36 23.28 8.77 25.76 9.81 C 25.77 12.69 25.58 15.57 25.49 18.45 C 26.91 15.62 27.65 12.52 28.65 9.52 C 29.82 9.93 30.99 10.33 32.16 10.74 C 32.88 12.51 34.61 14.46 33.39 16.41 C 32.22 17.96 30.43 18.86 28.85 19.93 C 28.54 20.37 27.93 21.24 27.62 21.67 C 30.52 20.41 33.22 18.73 36.07 17.38 C 37.96 19.28 36.87 23.25 35.10 25.15 C 32.58 25.93 30.07 24.51 27.56 24.29 C 27.23 21.56 25.84 19.19 23.01 18.50 C 19.90 19.62 19.36 23.38 21.04 25.94 C 20.23 29.25 19.04 32.43 17.74 35.58 C 16.04 34.81 14.54 33.68 13.32 32.26 C 13.38 31.01 13.37 29.74 13.59 28.49 C 15.05 26.59 17.37 25.61 19.22 24.14 C 15.63 24.39 13.00 27.29 9.45 27.67 C 9.32 25.21 9.49 22.71 10.53 20.44 C 13.18 19.80 15.88 20.27 18.54 20.57 C 15.84 19.01 12.84 18.11 9.89 17.17 C 11.13 15.32 12.70 13.75 14.45 12.39 C 14.89 12.42 15.77 12.48 16.21 12.51 C 18.23 14.33 20.00 16.39 21.94 18.29 C 20.66 15.06 18.67 12.12 17.95 8.67 Z" />
<path fill="#f8fcf8" opacity="1.00" d=" M 21.48 20.56 C 22.50 20.57 24.52 20.60 25.53 20.62 C 25.56 21.51 25.61 23.28 25.64 24.17 C 24.41 25.64 22.71 24.85 21.17 24.50 C 21.25 23.51 21.40 21.54 21.48 20.56 Z" />
<path fill="#f8fcf8" opacity="1.00" d=" M 21.67 26.20 C 23.93 27.22 25.62 25.87 27.06 24.30 C 30.06 26.31 33.64 27.07 36.90 28.53 C 35.12 30.78 32.76 32.74 29.76 32.74 C 28.09 30.91 26.59 28.94 25.07 26.99 C 25.47 30.16 27.26 32.87 28.91 35.51 C 26.09 37.24 22.75 36.39 20.37 34.35 C 20.55 31.59 21.48 28.95 21.67 26.20 Z" />
</g>
</svg>
