<?xml version="1.0" encoding="UTF-8" ?>
<!DOCTYPE svg PUBLIC "-//W3C//DTD SVG 1.1//EN" "http://www.w3.org/Graphics/SVG/1.1/DTD/svg11.dtd">
<svg width="117px" height="140px" viewBox="0 0 117 140" version="1.1" xmlns="http://www.w3.org/2000/svg">
<g id="#000000ff">
<path fill="#000000" opacity="1.00" d=" M 0.00 0.00 L 117.00 0.00 L 117.00 140.00 L 0.00 140.00 L 0.00 0.00 M 32.13 10.48 L 32.93 11.41 C 30.03 11.13 27.21 11.75 24.48 12.68 L 24.56 13.78 C 24.08 13.63 23.13 13.32 22.66 13.17 L 22.62 14.40 C 22.01 14.60 20.79 15.00 20.18 15.20 C 18.99 16.07 17.79 16.91 16.58 17.74 L 16.58 18.73 L 15.25 18.26 L 15.72 19.25 C 12.61 19.76 11.42 23.02 10.29 25.54 C 10.02 25.61 9.49 25.76 9.23 25.83 L 9.75 27.52 L 8.14 27.68 C 8.32 28.16 8.67 29.12 8.84 29.60 L 7.50 29.38 C 7.50 30.27 7.49 32.05 7.49 32.93 L 6.47 32.17 C 6.48 33.08 6.48 34.92 6.49 35.84 L 5.70 35.46 C 5.26 41.28 5.41 47.13 5.39 52.96 C 5.57 70.17 5.02 87.39 5.70 104.58 L 6.49 104.15 C 6.49 105.07 6.49 106.93 6.49 107.86 L 7.56 107.07 C 7.53 107.94 7.46 109.68 7.42 110.55 L 8.81 110.42 C 8.65 110.90 8.32 111.85 8.15 112.33 L 9.39 112.40 C 9.42 114.92 11.71 116.46 12.81 118.52 L 13.28 118.33 C 13.52 119.73 14.35 120.56 15.76 120.83 L 15.38 122.02 L 16.84 121.15 L 16.37 122.19 C 17.76 123.10 19.11 124.07 20.61 124.81 L 20.76 125.79 C 21.20 125.65 22.08 125.38 22.52 125.24 C 22.56 125.65 22.65 126.47 22.70 126.88 L 24.52 126.15 L 24.48 127.54 C 25.34 127.54 27.07 127.53 27.94 127.52 L 27.21 128.57 C 28.11 128.55 29.91 128.52 30.82 128.50 L 30.44 129.29 C 48.92 129.93 67.44 129.56 85.93 129.50 L 85.03 128.56 C 87.94 128.88 90.77 128.30 93.49 127.32 L 93.41 126.26 C 93.91 126.40 94.91 126.66 95.41 126.80 L 95.38 125.31 C 95.85 125.41 96.77 125.62 97.24 125.72 L 97.46 124.73 C 98.97 124.06 100.29 123.05 101.64 122.13 L 101.26 121.05 L 102.63 121.90 L 102.33 120.56 C 104.42 120.95 104.94 119.05 105.57 117.52 C 106.75 116.83 107.70 115.87 107.70 114.39 L 108.75 114.24 C 108.63 113.80 108.38 112.91 108.26 112.47 C 108.67 112.43 109.49 112.34 109.89 112.30 L 109.14 110.49 L 110.56 110.53 C 110.54 109.67 110.49 107.94 110.47 107.08 L 111.54 107.81 C 111.53 106.89 111.51 105.04 111.50 104.11 L 112.30 104.62 C 112.75 98.43 112.58 92.23 112.61 86.03 C 112.44 69.16 112.97 52.28 112.30 35.42 L 111.50 35.84 C 111.51 34.86 111.52 32.89 111.53 31.91 L 110.63 33.47 C 110.60 32.48 110.54 30.48 110.50 29.48 L 109.07 29.47 L 109.95 27.72 C 109.53 27.68 108.70 27.59 108.28 27.54 C 108.40 27.10 108.64 26.20 108.76 25.76 L 107.79 25.59 C 107.08 24.17 106.17 22.88 105.43 21.49 L 104.98 21.01 L 104.50 20.57 L 103.85 20.33 C 103.05 17.60 99.59 17.26 97.88 15.17 C 97.26 14.98 96.02 14.59 95.41 14.39 L 95.33 13.16 C 94.85 13.32 93.89 13.65 93.42 13.81 L 93.58 12.48 C 92.69 12.48 90.91 12.48 90.02 12.48 L 90.83 11.47 C 89.31 11.47 87.79 11.48 86.28 11.51 L 86.63 10.57 C 68.47 10.23 50.30 10.38 32.13 10.48 Z" />
<path fill="#000000" opacity="1.00" d=" M 27.17 12.62 C 29.80 12.74 32.32 12.01 34.89 11.64 C 51.88 11.48 68.88 11.80 85.86 11.49 L 85.29 12.28 C 87.79 12.37 90.19 13.08 92.62 13.63 L 92.63 14.62 C 93.09 14.53 94.02 14.35 94.48 14.27 L 94.70 15.58 C 95.16 15.50 96.09 15.35 96.55 15.28 L 96.59 16.64 C 97.12 16.57 98.19 16.42 98.72 16.35 L 98.29 18.07 L 99.14 17.21 C 100.41 19.50 103.01 20.58 104.29 22.86 L 104.68 23.63 L 105.89 23.34 L 105.15 24.85 L 106.72 24.26 C 106.61 24.79 106.41 25.84 106.31 26.37 L 107.70 26.45 C 107.63 26.92 107.50 27.87 107.44 28.34 L 108.76 28.53 C 108.66 28.99 108.46 29.90 108.36 30.36 L 109.38 30.37 C 109.84 32.45 110.42 34.52 110.66 36.65 L 111.51 36.24 C 111.33 58.44 111.28 80.66 111.53 102.86 L 110.78 102.31 C 110.60 104.80 109.95 107.20 109.39 109.62 L 108.37 109.64 C 108.47 110.10 108.65 111.01 108.74 111.47 L 107.42 111.72 C 107.50 112.18 107.65 113.09 107.73 113.55 L 106.41 113.52 L 106.70 114.94 L 105.74 114.58 C 104.49 117.63 102.29 120.27 99.41 121.91 L 99.69 123.01 L 98.29 121.89 L 98.77 123.61 C 98.22 123.56 97.12 123.44 96.57 123.39 L 96.56 124.72 C 96.10 124.64 95.18 124.50 94.72 124.43 L 94.53 125.68 C 94.05 125.62 93.09 125.50 92.61 125.45 L 92.39 126.92 C 91.90 126.68 90.92 126.20 90.42 125.96 L 90.86 127.37 C 87.88 127.19 85.05 128.28 82.10 128.40 C 65.09 128.44 48.06 128.29 31.05 128.47 L 31.84 127.70 C 29.64 127.45 27.52 126.86 25.37 126.38 L 25.35 125.35 C 24.90 125.46 23.99 125.66 23.54 125.76 L 23.29 124.45 C 22.82 124.51 21.89 124.63 21.42 124.69 L 21.43 123.38 C 20.88 123.44 19.79 123.56 19.25 123.62 L 19.69 121.82 L 18.29 123.03 L 18.58 121.89 C 16.35 120.46 14.11 118.90 13.21 116.28 L 12.08 116.59 L 12.89 115.15 L 11.29 115.74 C 11.39 115.21 11.58 114.15 11.67 113.62 L 10.29 113.53 C 10.36 113.07 10.50 112.15 10.57 111.69 L 9.26 111.48 C 9.35 111.02 9.53 110.10 9.63 109.64 L 8.62 109.62 C 8.01 106.97 7.24 104.35 7.18 101.61 L 6.51 101.69 C 6.76 80.75 6.50 59.80 6.64 38.85 C 7.44 36.07 7.91 33.20 8.60 30.39 L 9.63 30.35 C 9.54 29.89 9.37 28.97 9.28 28.50 L 10.59 28.30 C 10.51 27.83 10.34 26.89 10.26 26.42 L 11.57 26.53 L 11.31 25.71 C 14.29 23.68 15.11 19.60 18.57 18.07 L 18.35 17.02 L 19.77 18.01 L 19.24 16.35 C 19.78 16.42 20.86 16.57 21.40 16.64 L 21.46 15.27 C 21.92 15.35 22.84 15.51 23.30 15.59 L 23.47 14.32 C 23.95 14.38 24.91 14.50 25.39 14.56 L 25.60 13.10 C 26.09 13.32 27.08 13.76 27.57 13.99 L 27.17 12.62 M 35.00 34.00 C 34.68 48.65 34.98 63.32 34.84 77.98 C 34.89 79.57 34.69 81.22 35.24 82.75 C 36.38 83.31 38.98 83.74 39.06 81.87 C 39.53 75.93 39.13 69.96 39.25 64.01 C 43.58 64.00 47.92 64.00 52.25 64.00 C 52.45 69.99 51.85 76.03 52.57 81.98 C 52.96 84.76 57.27 83.46 56.81 80.99 C 57.00 74.34 57.12 67.65 56.71 61.00 C 58.36 60.69 60.44 60.00 60.57 62.45 C 61.22 61.17 61.90 59.91 62.60 58.66 C 61.88 57.39 61.16 56.13 60.49 54.84 C 60.22 56.47 59.19 57.16 57.41 56.91 C 57.65 58.12 57.74 59.37 57.38 60.56 C 56.50 51.74 57.19 42.87 56.86 34.03 C 55.33 34.03 53.81 34.07 52.29 34.16 C 52.22 40.55 52.27 46.93 52.25 53.32 C 47.92 53.33 43.58 53.33 39.25 53.31 C 39.17 46.87 39.48 40.42 39.01 33.99 C 37.68 34.00 36.34 34.00 35.00 34.00 M 63.15 34.01 C 62.95 48.70 63.12 63.40 63.05 78.09 C 63.22 79.97 62.61 82.70 64.90 83.53 C 67.37 84.12 67.72 81.38 67.71 79.63 C 67.80 64.49 67.70 49.35 67.76 34.21 C 66.22 34.09 64.68 34.03 63.15 34.01 M 80.99 33.99 C 80.44 47.32 80.89 60.67 80.74 74.00 C 80.85 76.92 80.37 79.95 81.20 82.80 C 82.39 83.36 83.57 83.35 84.76 82.75 C 85.29 81.23 85.12 79.59 85.16 78.01 C 85.01 63.34 85.32 48.67 85.00 34.00 C 83.66 34.00 82.32 34.00 80.99 33.99 M 70.11 40.00 C 70.11 52.44 70.11 64.89 70.11 77.33 C 70.79 77.33 72.16 77.32 72.84 77.31 C 72.84 64.88 72.83 52.44 72.84 40.00 C 72.16 40.00 70.79 40.00 70.11 40.00 M 75.53 40.00 C 75.53 52.44 75.53 64.89 75.53 77.34 C 76.20 77.33 77.55 77.32 78.23 77.32 C 78.23 64.88 78.23 52.44 78.23 40.00 C 77.56 40.00 76.20 40.00 75.53 40.00 Z" />
<path fill="#000000" opacity="1.00" d=" M 39.64 57.32 C 43.56 57.33 47.48 57.33 51.40 57.31 C 51.36 57.99 51.28 59.33 51.24 60.00 C 47.42 60.00 43.61 60.00 39.79 60.00 C 39.75 59.33 39.68 57.99 39.64 57.32 Z" />
</g>
<g id="#f7fbf8ff">
<path fill="#f7fbf8" opacity="1.00" d=" M 32.13 10.48 C 50.30 10.38 68.47 10.23 86.63 10.57 L 86.28 11.51 C 87.79 11.48 89.31 11.47 90.83 11.47 L 90.02 12.48 C 90.91 12.48 92.69 12.48 93.58 12.48 L 93.42 13.81 C 93.89 13.65 94.85 13.32 95.33 13.16 L 95.41 14.39 C 96.02 14.59 97.26 14.98 97.88 15.17 C 99.59 17.26 103.05 17.60 103.85 20.33 L 104.50 20.57 L 104.98 21.01 L 105.43 21.49 C 106.17 22.88 107.08 24.17 107.79 25.59 L 108.76 25.76 C 108.64 26.20 108.40 27.10 108.28 27.54 C 108.70 27.59 109.53 27.68 109.95 27.72 L 109.07 29.47 L 110.50 29.48 C 110.54 30.48 110.60 32.48 110.63 33.47 L 111.53 31.91 C 111.52 32.89 111.51 34.86 111.50 35.84 L 112.30 35.42 C 112.97 52.28 112.44 69.16 112.61 86.03 C 112.58 92.23 112.75 98.43 112.30 104.62 L 111.50 104.11 C 111.51 105.04 111.53 106.89 111.54 107.81 L 110.47 107.08 C 110.49 107.94 110.54 109.67 110.56 110.53 L 109.14 110.49 L 109.89 112.30 C 109.49 112.34 108.67 112.43 108.26 112.47 C 108.38 112.91 108.63 113.80 108.75 114.24 L 107.70 114.39 C 107.70 115.87 106.75 116.83 105.57 117.52 C 104.94 119.05 104.42 120.95 102.33 120.56 L 102.63 121.90 L 101.26 121.05 L 101.64 122.13 C 100.29 123.05 98.97 124.06 97.46 124.73 L 97.24 125.72 C 96.77 125.62 95.85 125.41 95.38 125.31 L 95.41 126.80 C 94.91 126.66 93.91 126.40 93.41 126.26 L 93.49 127.32 C 90.77 128.30 87.94 128.88 85.03 128.56 L 85.93 129.50 C 67.44 129.56 48.92 129.93 30.44 129.29 L 30.82 128.50 C 29.91 128.52 28.11 128.55 27.21 128.57 L 27.94 127.52 C 27.07 127.53 25.34 127.54 24.48 127.54 L 24.52 126.15 L 22.70 126.88 C 22.65 126.47 22.56 125.65 22.52 125.24 C 22.08 125.38 21.20 125.65 20.76 125.79 L 20.61 124.81 C 19.11 124.07 17.76 123.10 16.37 122.19 L 16.84 121.15 L 15.38 122.02 L 15.76 120.83 C 14.35 120.56 13.52 119.73 13.28 118.33 L 12.81 118.52 C 11.71 116.46 9.42 114.92 9.39 112.40 L 8.15 112.33 C 8.32 111.85 8.65 110.90 8.81 110.42 L 7.42 110.55 C 7.46 109.68 7.53 107.94 7.56 107.07 L 6.49 107.86 C 6.49 106.93 6.49 105.07 6.49 104.15 L 5.70 104.58 C 5.02 87.39 5.57 70.17 5.39 52.96 C 5.41 47.13 5.26 41.28 5.70 35.46 L 6.49 35.84 C 6.48 34.92 6.48 33.08 6.47 32.17 L 7.49 32.93 C 7.49 32.05 7.50 30.27 7.50 29.38 L 8.84 29.60 C 8.67 29.12 8.32 28.16 8.14 27.68 L 9.75 27.52 L 9.23 25.83 C 9.49 25.76 10.02 25.61 10.29 25.54 C 11.42 23.02 12.61 19.76 15.72 19.25 L 15.25 18.26 L 16.58 18.73 L 16.58 17.74 C 17.79 16.91 18.99 16.07 20.18 15.20 C 20.79 15.00 22.01 14.60 22.62 14.40 L 22.66 13.17 C 23.13 13.32 24.08 13.63 24.56 13.78 L 24.48 12.68 C 27.21 11.75 30.03 11.13 32.93 11.41 L 32.13 10.48 M 27.17 12.62 L 27.57 13.99 C 27.08 13.76 26.09 13.32 25.60 13.10 L 25.39 14.56 C 24.91 14.50 23.95 14.38 23.47 14.32 L 23.30 15.59 C 22.84 15.51 21.92 15.35 21.46 15.27 L 21.40 16.64 C 20.86 16.57 19.78 16.42 19.24 16.35 L 19.77 18.01 L 18.35 17.02 L 18.57 18.07 C 15.11 19.60 14.29 23.68 11.31 25.71 L 11.57 26.53 L 10.26 26.42 C 10.34 26.89 10.51 27.83 10.59 28.30 L 9.28 28.50 C 9.37 28.97 9.54 29.89 9.63 30.35 L 8.60 30.39 C 7.91 33.20 7.44 36.07 6.64 38.85 C 6.50 59.80 6.76 80.75 6.51 101.69 L 7.18 101.61 C 7.24 104.35 8.01 106.97 8.62 109.62 L 9.63 109.64 C 9.53 110.10 9.35 111.02 9.26 111.48 L 10.57 111.69 C 10.50 112.15 10.36 113.07 10.29 113.53 L 11.67 113.62 C 11.58 114.15 11.39 115.21 11.29 115.74 L 12.89 115.15 L 12.08 116.59 L 13.21 116.28 C 14.11 118.90 16.35 120.46 18.58 121.89 L 18.29 123.03 L 19.69 121.82 L 19.25 123.62 C 19.79 123.56 20.88 123.44 21.43 123.38 L 21.42 124.69 C 21.89 124.63 22.82 124.51 23.29 124.45 L 23.54 125.76 C 23.99 125.66 24.90 125.46 25.35 125.35 L 25.37 126.38 C 27.52 126.86 29.64 127.45 31.84 127.70 L 31.05 128.47 C 48.06 128.29 65.09 128.44 82.10 128.40 C 85.05 128.28 87.88 127.19 90.86 127.37 L 90.42 125.96 C 90.92 126.20 91.90 126.68 92.39 126.92 L 92.61 125.45 C 93.09 125.50 94.05 125.62 94.53 125.68 L 94.72 124.43 C 95.18 124.50 96.10 124.64 96.56 124.72 L 96.57 123.39 C 97.12 123.44 98.22 123.56 98.77 123.61 L 98.29 121.89 L 99.69 123.01 L 99.41 121.91 C 102.29 120.27 104.49 117.63 105.74 114.58 L 106.70 114.94 L 106.41 113.52 L 107.73 113.55 C 107.65 113.09 107.50 112.18 107.42 111.72 L 108.74 111.47 C 108.65 111.01 108.47 110.10 108.37 109.64 L 109.39 109.62 C 109.95 107.20 110.60 104.80 110.78 102.31 L 111.53 102.86 C 111.28 80.66 111.33 58.44 111.51 36.24 L 110.66 36.65 C 110.42 34.52 109.84 32.45 109.38 30.37 L 108.36 30.36 C 108.46 29.90 108.66 28.99 108.76 28.53 L 107.44 28.34 C 107.50 27.87 107.63 26.92 107.70 26.45 L 106.31 26.37 C 106.41 25.84 106.61 24.79 106.72 24.26 L 105.15 24.85 L 105.89 23.34 L 104.68 23.63 L 104.29 22.86 C 103.01 20.58 100.41 19.50 99.14 17.21 L 98.29 18.07 L 98.72 16.35 C 98.19 16.42 97.12 16.57 96.59 16.64 L 96.55 15.28 C 96.09 15.35 95.16 15.50 94.70 15.58 L 94.48 14.27 C 94.02 14.35 93.09 14.53 92.63 14.62 L 92.62 13.63 C 90.19 13.08 87.79 12.37 85.29 12.28 L 85.86 11.49 C 68.88 11.80 51.88 11.48 34.89 11.64 C 32.32 12.01 29.80 12.74 27.17 12.62 Z" />
<path fill="#f7fbf8" opacity="1.00" d=" M 35.00 34.00 C 36.34 34.00 37.68 34.00 39.01 33.99 C 39.48 40.42 39.17 46.87 39.25 53.31 C 43.58 53.33 47.92 53.33 52.25 53.32 C 52.27 46.93 52.22 40.55 52.29 34.16 C 53.81 34.07 55.33 34.03 56.86 34.03 C 57.19 42.87 56.50 51.74 57.38 60.56 C 57.74 59.37 57.65 58.12 57.41 56.91 C 59.19 57.16 60.22 56.47 60.49 54.84 C 61.16 56.13 61.88 57.39 62.60 58.66 C 61.90 59.91 61.22 61.17 60.57 62.45 C 60.44 60.00 58.36 60.69 56.71 61.00 C 57.12 67.65 57.00 74.34 56.81 80.99 C 57.27 83.46 52.96 84.76 52.57 81.98 C 51.85 76.03 52.45 69.99 52.25 64.00 C 47.92 64.00 43.58 64.00 39.25 64.01 C 39.13 69.96 39.53 75.93 39.06 81.87 C 38.98 83.74 36.38 83.31 35.24 82.75 C 34.69 81.22 34.89 79.57 34.84 77.98 C 34.98 63.32 34.68 48.65 35.00 34.00 M 39.64 57.32 C 39.68 57.99 39.75 59.33 39.79 60.00 C 43.61 60.00 47.42 60.00 51.24 60.00 C 51.28 59.33 51.36 57.99 51.40 57.31 C 47.48 57.33 43.56 57.33 39.64 57.32 Z" />
<path fill="#f7fbf8" opacity="1.00" d=" M 63.15 34.01 C 64.68 34.03 66.22 34.09 67.76 34.21 C 67.70 49.35 67.80 64.49 67.71 79.63 C 67.72 81.38 67.37 84.12 64.90 83.53 C 62.61 82.70 63.22 79.97 63.05 78.09 C 63.12 63.40 62.95 48.70 63.15 34.01 Z" />
<path fill="#f7fbf8" opacity="1.00" d=" M 80.99 33.99 C 82.32 34.00 83.66 34.00 85.00 34.00 C 85.32 48.67 85.01 63.34 85.16 78.01 C 85.12 79.59 85.29 81.23 84.76 82.75 C 83.57 83.35 82.39 83.36 81.20 82.80 C 80.37 79.95 80.85 76.92 80.74 74.00 C 80.89 60.67 80.44 47.32 80.99 33.99 Z" />
<path fill="#f7fbf8" opacity="1.00" d=" M 70.11 40.00 C 70.79 40.00 72.16 40.00 72.84 40.00 C 72.83 52.44 72.84 64.88 72.84 77.31 C 72.16 77.32 70.79 77.33 70.11 77.33 C 70.11 64.89 70.11 52.44 70.11 40.00 Z" />
<path fill="#f7fbf8" opacity="1.00" d=" M 75.53 40.00 C 76.20 40.00 77.56 40.00 78.23 40.00 C 78.23 52.44 78.23 64.88 78.23 77.32 C 77.55 77.32 76.20 77.33 75.53 77.34 C 75.53 64.89 75.53 52.44 75.53 40.00 Z" />
</g>
</svg>
