<?xml version="1.0" encoding="UTF-8" ?>
<!DOCTYPE svg PUBLIC "-//W3C//DTD SVG 1.1//EN" "http://www.w3.org/Graphics/SVG/1.1/DTD/svg11.dtd">
<svg width="117px" height="140px" viewBox="0 0 117 140" version="1.1" xmlns="http://www.w3.org/2000/svg">
<g id="#384450ff">
<path fill="#384450" opacity="1.00" d=" M 0.00 0.00 L 117.00 0.00 L 117.00 140.00 L 0.00 140.00 L 0.00 0.00 M 41.20 53.17 C 38.67 54.47 38.64 58.52 41.20 59.81 C 42.93 61.18 45.48 60.37 46.54 58.55 C 49.12 55.45 44.32 50.66 41.20 53.17 M 56.51 53.46 C 52.31 56.43 57.88 63.23 61.52 59.47 C 65.64 56.51 60.14 49.84 56.51 53.46 M 72.41 53.40 C 67.75 56.30 73.85 63.40 77.46 59.28 C 81.25 56.34 75.88 50.04 72.41 53.40 Z" />
</g>
<g id="#f8fcf8ff">
<path fill="#f8fcf8" opacity="1.00" d=" M 41.20 53.17 C 44.32 50.66 49.12 55.45 46.54 58.55 C 45.48 60.37 42.93 61.18 41.20 59.81 C 38.64 58.52 38.67 54.47 41.20 53.17 Z" />
<path fill="#f8fcf8" opacity="1.00" d=" M 56.51 53.46 C 60.14 49.84 65.64 56.51 61.52 59.47 C 57.88 63.23 52.31 56.43 56.51 53.46 Z" />
<path fill="#f8fcf8" opacity="1.00" d=" M 72.41 53.40 C 75.88 50.04 81.25 56.34 77.46 59.28 C 73.85 63.40 67.75 56.30 72.41 53.40 Z" />
</g>
</svg>
