<?xml version="1.0" encoding="UTF-8" ?>
<!DOCTYPE svg PUBLIC "-//W3C//DTD SVG 1.1//EN" "http://www.w3.org/Graphics/SVG/1.1/DTD/svg11.dtd">
<svg width="117px" height="140px" viewBox="0 0 117 140" version="1.1" xmlns="http://www.w3.org/2000/svg">
<g id="#000000ff">
<path fill="#000000" opacity="1.00" d=" M 0.00 0.00 L 117.00 0.00 L 117.00 140.00 L 0.00 140.00 L 0.00 0.00 M 24.47 12.72 L 24.54 13.82 C 24.06 13.64 23.12 13.30 22.65 13.13 L 22.63 14.66 C 22.15 14.57 21.21 14.38 20.74 14.29 L 20.53 15.19 C 19.10 16.01 17.73 16.94 16.34 17.83 L 16.79 18.83 L 15.25 18.08 L 15.83 19.79 L 14.37 19.04 L 14.66 20.71 L 13.02 20.34 L 13.97 21.68 L 12.83 21.36 C 11.93 22.74 11.01 24.10 10.20 25.53 L 9.30 25.74 C 9.39 26.21 9.57 27.15 9.66 27.62 L 8.13 27.65 C 8.30 28.12 8.64 29.06 8.82 29.53 L 7.70 29.48 C 6.72 33.24 5.29 36.97 5.41 40.92 C 5.38 60.28 5.38 79.64 5.40 99.00 C 5.29 102.97 6.72 106.72 7.70 110.50 L 8.79 110.46 C 8.63 110.93 8.31 111.88 8.15 112.36 L 9.65 112.37 C 9.57 112.87 9.40 113.87 9.31 114.37 L 10.19 114.46 C 11.00 115.90 11.93 117.25 12.83 118.63 L 13.83 118.22 L 13.08 119.70 L 14.73 119.24 L 14.15 120.70 L 15.59 120.31 L 15.44 121.87 L 16.82 121.22 L 16.40 122.20 C 17.79 123.09 19.15 124.02 20.58 124.84 L 20.73 125.70 C 21.21 125.61 22.17 125.44 22.65 125.35 L 22.64 126.91 C 23.11 126.72 24.06 126.34 24.53 126.14 L 24.47 127.55 C 25.33 127.54 27.05 127.53 27.92 127.52 L 27.21 128.34 C 30.80 128.89 34.36 129.86 38.03 129.62 C 54.05 129.39 70.10 130.03 86.10 129.29 C 87.61 128.76 89.20 128.55 90.78 128.33 L 90.08 127.51 C 90.94 127.52 92.66 127.55 93.52 127.56 L 93.47 126.15 C 93.93 126.33 94.85 126.71 95.31 126.89 L 95.47 125.25 L 97.19 125.78 C 97.25 125.54 97.37 125.07 97.43 124.83 C 98.84 124.01 100.20 123.10 101.58 122.23 L 101.29 121.10 L 102.61 121.98 L 102.30 120.34 L 103.99 120.60 L 103.19 119.14 L 104.91 119.75 L 104.19 118.20 L 105.17 118.64 C 106.06 117.26 106.98 115.91 107.80 114.48 L 108.70 114.26 C 108.61 113.78 108.43 112.84 108.34 112.37 L 109.88 112.36 C 109.71 111.89 109.36 110.95 109.18 110.48 L 110.30 110.51 C 111.27 106.71 112.73 102.97 112.59 98.99 C 112.60 79.32 112.67 59.65 112.55 39.98 C 112.74 36.32 111.18 32.97 110.28 29.51 L 109.19 29.53 C 109.36 29.06 109.70 28.12 109.87 27.65 L 108.33 27.62 C 108.42 27.15 108.61 26.20 108.71 25.73 L 107.83 25.57 C 107.02 24.12 106.07 22.75 105.16 21.37 L 104.02 21.68 L 104.97 20.36 L 103.31 20.68 L 103.59 18.98 L 102.08 19.82 L 102.81 18.07 L 101.23 18.83 L 101.63 17.83 C 100.24 16.92 98.86 15.98 97.42 15.15 L 97.28 14.29 C 96.81 14.38 95.86 14.57 95.38 14.66 L 95.34 13.11 C 94.87 13.29 93.92 13.66 93.45 13.84 L 93.54 12.46 C 92.67 12.47 90.94 12.47 90.08 12.47 L 90.76 11.65 C 87.84 11.34 85.02 10.34 82.05 10.40 C 66.71 10.38 51.36 10.38 36.01 10.40 C 32.03 10.31 28.27 11.73 24.47 12.72 Z" />
<path fill="#000000" opacity="1.00" d=" M 27.13 12.76 C 28.70 12.60 30.29 12.38 31.73 11.69 C 48.48 11.49 65.24 11.69 81.99 11.58 C 83.93 11.61 85.94 11.44 87.75 12.26 C 89.35 12.77 90.96 13.29 92.59 13.68 L 92.68 14.18 C 94.01 14.64 95.32 15.13 96.65 15.59 L 96.71 16.73 C 97.21 16.58 98.21 16.29 98.70 16.14 L 98.13 17.20 C 101.40 18.73 103.84 21.70 105.84 24.64 L 106.78 24.35 C 106.67 24.83 106.43 25.80 106.31 26.29 L 107.31 26.40 C 107.77 28.07 108.59 29.62 109.65 31.00 C 109.53 31.40 109.29 32.20 109.18 32.60 L 110.48 32.12 C 110.45 33.01 110.39 34.81 110.37 35.70 L 111.47 35.26 C 111.23 57.93 111.55 80.61 111.31 103.28 C 110.64 104.73 110.40 106.31 110.23 107.89 L 109.18 107.40 C 109.30 107.81 109.54 108.62 109.65 109.02 C 108.56 110.36 107.84 111.95 107.32 113.59 L 106.30 113.73 C 106.43 114.22 106.68 115.21 106.81 115.70 L 105.33 115.11 L 105.71 116.15 C 103.55 118.36 101.38 120.55 99.15 122.68 L 98.13 122.36 L 98.69 123.82 C 98.20 123.69 97.22 123.43 96.73 123.30 L 96.60 124.36 C 95.30 124.83 94.01 125.34 92.70 125.80 L 92.60 126.37 C 90.55 126.88 88.50 127.43 86.41 127.76 L 86.66 128.47 C 69.09 128.29 51.52 128.43 33.94 128.41 C 32.67 128.46 31.44 128.24 30.27 127.74 C 28.66 127.23 27.05 126.71 25.40 126.32 L 25.31 125.80 C 24.00 125.34 22.70 124.84 21.40 124.36 L 21.27 123.30 C 20.77 123.43 19.79 123.69 19.30 123.82 L 19.89 122.34 L 18.85 122.70 C 16.61 120.54 14.44 118.30 12.23 116.12 L 12.82 115.14 L 11.25 115.70 C 11.36 115.21 11.56 114.21 11.66 113.71 L 10.63 113.56 C 10.19 111.90 9.38 110.38 8.36 109.02 C 8.47 108.62 8.69 107.83 8.81 107.43 L 7.76 107.86 C 7.60 106.29 7.37 104.72 6.69 103.28 C 6.48 82.51 6.70 61.74 6.59 40.98 C 6.63 38.99 6.32 36.87 7.46 35.11 C 7.49 34.36 7.56 32.87 7.59 32.12 L 8.84 32.57 C 8.72 32.19 8.48 31.43 8.36 31.05 C 9.28 29.58 10.18 28.08 10.67 26.40 L 11.68 26.30 C 11.57 25.80 11.34 24.81 11.23 24.31 L 12.82 24.87 L 12.21 23.89 C 14.45 21.67 16.67 19.45 18.89 17.22 L 19.86 17.84 L 19.30 16.26 C 19.80 16.36 20.80 16.56 21.31 16.66 L 21.45 15.65 C 23.09 15.14 24.64 14.40 25.99 13.34 C 26.39 13.47 27.20 13.75 27.60 13.89 L 27.13 12.76 M 50.47 30.00 C 50.47 31.44 50.48 32.88 50.48 34.32 C 46.30 34.33 42.13 34.31 37.95 34.30 C 36.32 34.32 34.54 34.22 33.13 35.22 C 31.60 36.30 32.08 38.41 31.94 40.01 C 32.02 50.70 31.89 61.40 32.00 72.10 C 31.74 74.34 33.68 76.20 35.91 75.97 C 49.93 76.06 63.95 75.95 77.97 76.02 C 79.64 75.95 81.57 76.21 82.96 75.06 C 84.28 73.72 83.96 71.70 84.06 70.00 C 83.98 59.28 84.12 48.57 84.00 37.86 C 84.28 35.58 81.91 34.27 79.93 34.34 C 75.13 34.24 70.33 34.37 65.53 34.32 C 65.52 32.87 65.52 31.43 65.52 29.98 C 60.50 30.01 55.49 29.99 50.47 30.00 Z" />
<path fill="#000000" opacity="1.00" d=" M 52.38 31.98 C 56.16 31.93 59.94 31.89 63.71 32.05 C 63.66 32.62 63.55 33.76 63.50 34.33 C 59.82 34.32 56.14 34.32 52.45 34.33 C 52.43 33.74 52.40 32.57 52.38 31.98 Z" />
<path fill="#000000" opacity="1.00" d=" M 35.00 37.55 C 50.33 37.56 65.67 37.56 81.00 37.55 C 81.00 43.02 81.00 48.48 81.00 53.94 C 75.84 53.93 70.68 53.94 65.53 53.94 C 65.52 52.47 65.52 51.01 65.52 49.54 C 60.51 49.54 55.49 49.54 50.48 49.54 C 50.48 51.01 50.48 52.47 50.47 53.94 C 45.32 53.93 40.16 53.93 35.00 53.94 C 35.00 48.48 35.00 43.02 35.00 37.55 Z" />
<path fill="#000000" opacity="1.00" d=" M 52.42 58.32 C 52.42 56.07 52.42 53.81 52.42 51.55 C 56.14 51.55 59.86 51.55 63.58 51.55 C 63.58 53.81 63.58 56.06 63.58 58.32 C 59.86 58.32 56.14 58.32 52.42 58.32 Z" />
<path fill="#000000" opacity="1.00" d=" M 35.00 55.88 C 40.16 55.88 45.32 55.88 50.47 55.88 C 50.48 57.34 50.48 58.80 50.48 60.27 C 55.49 60.26 60.51 60.26 65.52 60.27 C 65.52 58.80 65.52 57.34 65.53 55.88 C 70.68 55.88 75.84 55.88 81.00 55.88 C 81.00 61.59 81.00 67.29 81.00 73.00 C 65.67 73.00 50.33 73.00 35.00 73.00 C 35.00 67.29 35.00 61.59 35.00 55.88 Z" />
</g>
<g id="#f5faf7ff">
<path fill="#f5faf7" opacity="1.00" d=" M 24.47 12.72 C 28.27 11.73 32.03 10.31 36.01 10.40 C 51.36 10.38 66.71 10.38 82.05 10.40 C 85.02 10.34 87.84 11.34 90.76 11.65 L 90.08 12.47 C 90.94 12.47 92.67 12.47 93.54 12.46 L 93.45 13.84 C 93.92 13.66 94.87 13.29 95.34 13.11 L 95.38 14.66 C 95.86 14.57 96.81 14.38 97.28 14.29 L 97.42 15.15 C 98.86 15.98 100.24 16.92 101.63 17.83 L 101.23 18.83 L 102.81 18.07 L 102.08 19.82 L 103.59 18.98 L 103.31 20.68 L 104.97 20.36 L 104.02 21.68 L 105.16 21.37 C 106.07 22.75 107.02 24.12 107.83 25.57 L 108.71 25.73 C 108.61 26.20 108.42 27.15 108.33 27.62 L 109.87 27.65 C 109.70 28.12 109.36 29.06 109.19 29.53 L 110.28 29.51 C 111.18 32.97 112.74 36.32 112.55 39.98 C 112.67 59.65 112.60 79.32 112.59 98.99 C 112.73 102.97 111.27 106.71 110.30 110.51 L 109.18 110.48 C 109.36 110.95 109.71 111.89 109.88 112.36 L 108.34 112.37 C 108.43 112.84 108.61 113.78 108.70 114.26 L 107.80 114.48 C 106.98 115.91 106.06 117.26 105.17 118.64 L 104.19 118.20 L 104.91 119.75 L 103.19 119.14 L 103.99 120.60 L 102.30 120.34 L 102.61 121.98 L 101.29 121.10 L 101.58 122.23 C 100.20 123.10 98.84 124.01 97.43 124.83 C 97.37 125.07 97.25 125.54 97.19 125.78 L 95.47 125.25 L 95.31 126.89 C 94.85 126.71 93.93 126.33 93.47 126.15 L 93.52 127.56 C 92.66 127.55 90.94 127.52 90.08 127.51 L 90.78 128.33 C 89.20 128.55 87.61 128.76 86.10 129.29 C 70.10 130.03 54.05 129.39 38.03 129.62 C 34.36 129.86 30.80 128.89 27.21 128.34 L 27.92 127.52 C 27.05 127.53 25.33 127.54 24.47 127.55 L 24.53 126.14 C 24.06 126.34 23.11 126.72 22.64 126.91 L 22.65 125.35 C 22.17 125.44 21.21 125.61 20.73 125.70 L 20.58 124.84 C 19.15 124.02 17.79 123.09 16.40 122.20 L 16.82 121.22 L 15.44 121.87 L 15.59 120.31 L 14.15 120.70 L 14.73 119.24 L 13.08 119.70 L 13.83 118.22 L 12.83 118.63 C 11.93 117.25 11.00 115.90 10.19 114.46 L 9.31 114.37 C 9.40 113.87 9.57 112.87 9.65 112.37 L 8.15 112.36 C 8.31 111.88 8.63 110.93 8.79 110.46 L 7.70 110.50 C 6.72 106.72 5.29 102.97 5.40 99.00 C 5.38 79.64 5.38 60.28 5.41 40.92 C 5.29 36.97 6.72 33.24 7.70 29.48 L 8.82 29.53 C 8.64 29.06 8.30 28.12 8.13 27.65 L 9.66 27.62 C 9.57 27.15 9.39 26.21 9.30 25.74 L 10.20 25.53 C 11.01 24.10 11.93 22.74 12.83 21.36 L 13.97 21.68 L 13.02 20.34 L 14.66 20.71 L 14.37 19.04 L 15.83 19.79 L 15.25 18.08 L 16.79 18.83 L 16.34 17.83 C 17.73 16.94 19.10 16.01 20.53 15.19 L 20.74 14.29 C 21.21 14.38 22.15 14.57 22.63 14.66 L 22.65 13.13 C 23.12 13.30 24.06 13.64 24.54 13.82 L 24.47 12.72 M 27.13 12.76 L 27.60 13.89 C 27.20 13.75 26.39 13.47 25.99 13.34 C 24.64 14.40 23.09 15.14 21.45 15.65 L 21.31 16.66 C 20.80 16.56 19.80 16.36 19.30 16.26 L 19.86 17.84 L 18.89 17.22 C 16.67 19.45 14.45 21.67 12.21 23.89 L 12.82 24.87 L 11.23 24.31 C 11.34 24.81 11.57 25.80 11.68 26.30 L 10.67 26.40 C 10.18 28.08 9.28 29.58 8.36 31.05 C 8.48 31.43 8.72 32.19 8.84 32.57 L 7.59 32.12 C 7.56 32.87 7.49 34.36 7.46 35.11 C 6.32 36.87 6.63 38.99 6.59 40.98 C 6.70 61.74 6.48 82.51 6.69 103.28 C 7.37 104.72 7.60 106.29 7.76 107.86 L 8.81 107.43 C 8.69 107.83 8.47 108.62 8.36 109.02 C 9.38 110.38 10.19 111.90 10.63 113.56 L 11.66 113.71 C 11.56 114.21 11.36 115.21 11.25 115.70 L 12.82 115.14 L 12.23 116.12 C 14.44 118.30 16.61 120.54 18.85 122.70 L 19.89 122.34 L 19.30 123.82 C 19.79 123.69 20.77 123.43 21.27 123.30 L 21.40 124.36 C 22.70 124.84 24.00 125.34 25.31 125.80 L 25.40 126.32 C 27.05 126.71 28.66 127.23 30.27 127.74 C 31.44 128.24 32.67 128.46 33.94 128.41 C 51.52 128.43 69.09 128.29 86.66 128.47 L 86.41 127.76 C 88.50 127.43 90.55 126.88 92.60 126.37 L 92.70 125.80 C 94.01 125.34 95.30 124.83 96.60 124.36 L 96.73 123.30 C 97.22 123.43 98.20 123.69 98.69 123.82 L 98.13 122.36 L 99.15 122.68 C 101.38 120.55 103.55 118.36 105.71 116.15 L 105.33 115.11 L 106.81 115.70 C 106.68 115.21 106.43 114.22 106.30 113.73 L 107.32 113.59 C 107.84 111.95 108.56 110.36 109.65 109.02 C 109.54 108.62 109.30 107.81 109.18 107.40 L 110.23 107.89 C 110.40 106.31 110.64 104.73 111.31 103.28 C 111.55 80.61 111.23 57.93 111.47 35.26 L 110.37 35.70 C 110.39 34.81 110.45 33.01 110.48 32.12 L 109.18 32.60 C 109.29 32.20 109.53 31.40 109.65 31.00 C 108.59 29.62 107.77 28.07 107.31 26.40 L 106.31 26.29 C 106.43 25.80 106.67 24.83 106.78 24.35 L 105.84 24.64 C 103.84 21.70 101.40 18.73 98.13 17.20 L 98.70 16.14 C 98.21 16.29 97.21 16.58 96.71 16.73 L 96.65 15.59 C 95.32 15.13 94.01 14.64 92.68 14.18 L 92.59 13.68 C 90.96 13.29 89.35 12.77 87.75 12.26 C 85.94 11.44 83.93 11.61 81.99 11.58 C 65.24 11.69 48.48 11.49 31.73 11.69 C 30.29 12.38 28.70 12.60 27.13 12.76 Z" />
<path fill="#f5faf7" opacity="1.00" d=" M 50.47 30.00 C 55.49 29.99 60.50 30.01 65.52 29.98 C 65.52 31.43 65.52 32.87 65.53 34.32 C 70.33 34.37 75.13 34.24 79.93 34.34 C 81.91 34.27 84.28 35.58 84.00 37.86 C 84.12 48.57 83.98 59.28 84.06 70.00 C 83.96 71.70 84.28 73.72 82.96 75.06 C 81.57 76.21 79.64 75.95 77.97 76.02 C 63.95 75.95 49.93 76.06 35.91 75.97 C 33.68 76.20 31.74 74.34 32.00 72.10 C 31.89 61.40 32.02 50.70 31.94 40.01 C 32.08 38.41 31.60 36.30 33.13 35.22 C 34.54 34.22 36.32 34.32 37.95 34.30 C 42.13 34.31 46.30 34.33 50.48 34.32 C 50.48 32.88 50.47 31.44 50.47 30.00 M 52.38 31.98 C 52.40 32.57 52.43 33.74 52.45 34.33 C 56.14 34.32 59.82 34.32 63.50 34.33 C 63.55 33.76 63.66 32.62 63.71 32.05 C 59.94 31.89 56.16 31.93 52.38 31.98 M 35.00 37.55 C 35.00 43.02 35.00 48.48 35.00 53.94 C 40.16 53.93 45.32 53.93 50.47 53.94 C 50.48 52.47 50.48 51.01 50.48 49.54 C 55.49 49.54 60.51 49.54 65.52 49.54 C 65.52 51.01 65.52 52.47 65.53 53.94 C 70.68 53.94 75.84 53.93 81.00 53.94 C 81.00 48.48 81.00 43.02 81.00 37.55 C 65.67 37.56 50.33 37.56 35.00 37.55 M 52.42 58.32 C 56.14 58.32 59.86 58.32 63.58 58.32 C 63.58 56.06 63.58 53.81 63.58 51.55 C 59.86 51.55 56.14 51.55 52.42 51.55 C 52.42 53.81 52.42 56.07 52.42 58.32 M 35.00 55.88 C 35.00 61.59 35.00 67.29 35.00 73.00 C 50.33 73.00 65.67 73.00 81.00 73.00 C 81.00 67.29 81.00 61.59 81.00 55.88 C 75.84 55.88 70.68 55.88 65.53 55.88 C 65.52 57.34 65.52 58.80 65.52 60.27 C 60.51 60.26 55.49 60.26 50.48 60.27 C 50.48 58.80 50.48 57.34 50.47 55.88 C 45.32 55.88 40.16 55.88 35.00 55.88 Z" />
</g>
</svg>
