<?xml version="1.0" encoding="UTF-8" ?>
<!DOCTYPE svg PUBLIC "-//W3C//DTD SVG 1.1//EN" "http://www.w3.org/Graphics/SVG/1.1/DTD/svg11.dtd">
<svg width="117px" height="140px" viewBox="0 0 117 140" version="1.1" xmlns="http://www.w3.org/2000/svg">
<g id="#000000ff">
<path fill="#000000" opacity="1.00" d=" M 0.00 0.00 L 117.00 0.00 L 117.00 140.00 L 0.00 140.00 L 0.00 0.00 M 33.31 10.36 C 18.09 11.80 5.26 25.63 5.20 40.95 C 5.16 60.31 5.16 79.66 5.20 99.02 C 5.22 114.91 19.07 129.19 34.94 129.75 C 50.64 129.90 66.36 129.82 82.06 129.78 C 98.29 129.77 112.77 115.29 112.79 99.08 C 112.84 79.72 112.85 60.36 112.79 41.00 C 112.71 28.25 103.88 16.27 91.90 12.06 C 85.23 9.42 77.96 10.33 70.97 10.17 C 58.42 10.30 45.85 9.93 33.31 10.36 Z" />
<path fill="#000000" opacity="1.00" d=" M 30.38 12.59 C 32.87 12.03 35.43 11.76 37.98 11.80 C 52.33 11.86 66.69 11.82 81.04 11.82 C 91.81 11.83 102.38 18.00 107.43 27.56 C 110.09 32.23 111.32 37.65 111.21 43.01 C 111.10 62.01 111.27 81.03 111.12 100.03 C 110.36 114.98 97.09 127.86 82.11 128.14 C 67.09 128.23 52.05 128.13 37.02 128.19 C 27.00 128.18 17.07 122.88 11.73 114.36 C 8.50 109.55 6.87 103.78 6.82 98.01 C 6.82 78.99 6.82 59.96 6.82 40.94 C 7.16 27.60 17.32 15.34 30.38 12.59 M 43.28 40.17 C 40.52 42.07 37.91 44.19 35.33 46.34 C 33.02 48.08 33.02 51.91 35.33 53.66 C 37.90 55.80 40.51 57.90 43.26 59.82 C 44.93 61.13 47.03 60.15 48.88 59.97 C 49.66 57.38 50.07 54.70 50.09 52.00 C 52.06 52.00 54.03 52.00 56.00 52.00 C 56.00 51.25 56.00 49.75 56.00 49.00 C 54.02 49.00 52.03 48.99 50.05 49.00 C 50.16 45.96 49.78 42.94 48.88 40.03 C 47.04 39.85 44.95 38.88 43.28 40.17 M 67.99 41.23 C 68.00 47.08 68.01 52.92 67.99 58.77 C 70.09 59.62 72.55 61.59 74.74 59.82 C 77.47 57.92 80.07 55.82 82.64 53.70 C 85.01 51.96 84.99 48.05 82.63 46.31 C 80.08 44.17 77.47 42.08 74.73 40.17 C 72.53 38.43 70.09 40.37 67.99 41.23 M 57.00 49.00 C 57.00 49.75 57.00 51.25 57.00 52.00 C 57.75 52.00 59.25 52.00 60.00 52.00 C 60.00 51.25 60.00 49.75 60.00 49.00 C 59.25 49.00 57.75 49.00 57.00 49.00 M 61.00 49.00 C 61.00 49.75 61.00 51.25 61.00 52.00 C 63.00 52.00 65.00 52.00 67.00 52.00 C 67.00 51.25 67.00 49.75 67.00 49.00 C 65.00 49.00 63.00 49.00 61.00 49.00 Z" />
<path fill="#000000" opacity="1.00" d=" M 37.00 50.00 C 39.99 47.67 42.99 45.35 45.99 43.03 C 46.01 47.68 46.01 52.32 45.98 56.97 C 42.99 54.65 39.99 52.33 37.00 50.00 Z" />
<path fill="#000000" opacity="1.00" d=" M 72.01 56.97 C 72.00 52.32 71.94 47.67 72.08 43.03 C 75.03 45.38 78.02 47.69 81.00 50.00 C 78.01 52.33 75.01 54.65 72.01 56.97 Z" />
</g>
<g id="#11ea52ff">
<path fill="#11ea52" opacity="1.00" d=" M 33.31 10.36 C 45.85 9.93 58.42 10.30 70.97 10.17 C 77.96 10.33 85.23 9.42 91.90 12.06 C 103.88 16.27 112.71 28.25 112.79 41.00 C 112.85 60.36 112.84 79.72 112.79 99.08 C 112.77 115.29 98.29 129.77 82.06 129.78 C 66.36 129.82 50.64 129.90 34.94 129.75 C 19.07 129.19 5.22 114.91 5.20 99.02 C 5.16 79.66 5.16 60.31 5.20 40.95 C 5.26 25.63 18.09 11.80 33.31 10.36 M 30.38 12.59 C 17.32 15.34 7.16 27.60 6.82 40.94 C 6.82 59.96 6.82 78.99 6.82 98.01 C 6.87 103.78 8.50 109.55 11.73 114.36 C 17.07 122.88 27.00 128.18 37.02 128.19 C 52.05 128.13 67.09 128.23 82.11 128.14 C 97.09 127.86 110.36 114.98 111.12 100.03 C 111.27 81.03 111.10 62.01 111.21 43.01 C 111.32 37.65 110.09 32.23 107.43 27.56 C 102.38 18.00 91.81 11.83 81.04 11.82 C 66.69 11.82 52.33 11.86 37.98 11.80 C 35.43 11.76 32.87 12.03 30.38 12.59 Z" />
<path fill="#11ea52" opacity="1.00" d=" M 43.28 40.17 C 44.95 38.88 47.04 39.85 48.88 40.03 C 49.78 42.94 50.16 45.96 50.05 49.00 C 52.03 48.99 54.02 49.00 56.00 49.00 C 56.00 49.75 56.00 51.25 56.00 52.00 C 54.03 52.00 52.06 52.00 50.09 52.00 C 50.07 54.70 49.66 57.38 48.88 59.97 C 47.03 60.15 44.93 61.13 43.26 59.82 C 40.51 57.90 37.90 55.80 35.33 53.66 C 33.02 51.91 33.02 48.08 35.33 46.34 C 37.91 44.19 40.52 42.07 43.28 40.17 M 37.00 50.00 C 39.99 52.33 42.99 54.65 45.98 56.97 C 46.01 52.32 46.01 47.68 45.99 43.03 C 42.99 45.35 39.99 47.67 37.00 50.00 Z" />
<path fill="#11ea52" opacity="1.00" d=" M 67.99 41.23 C 70.09 40.37 72.53 38.43 74.73 40.17 C 77.47 42.08 80.08 44.17 82.63 46.31 C 84.99 48.05 85.01 51.96 82.64 53.70 C 80.07 55.82 77.47 57.92 74.74 59.82 C 72.55 61.59 70.09 59.62 67.99 58.77 C 68.01 52.92 68.00 47.08 67.99 41.23 M 72.01 56.97 C 75.01 54.65 78.01 52.33 81.00 50.00 C 78.02 47.69 75.03 45.38 72.08 43.03 C 71.94 47.67 72.00 52.32 72.01 56.97 Z" />
<path fill="#11ea52" opacity="1.00" d=" M 57.00 49.00 C 57.75 49.00 59.25 49.00 60.00 49.00 C 60.00 49.75 60.00 51.25 60.00 52.00 C 59.25 52.00 57.75 52.00 57.00 52.00 C 57.00 51.25 57.00 49.75 57.00 49.00 Z" />
<path fill="#11ea52" opacity="1.00" d=" M 61.00 49.00 C 63.00 49.00 65.00 49.00 67.00 49.00 C 67.00 49.75 67.00 51.25 67.00 52.00 C 65.00 52.00 63.00 52.00 61.00 52.00 C 61.00 51.25 61.00 49.75 61.00 49.00 Z" />
</g>
</svg>
