<?xml version="1.0" encoding="UTF-8" ?>
<!DOCTYPE svg PUBLIC "-//W3C//DTD SVG 1.1//EN" "http://www.w3.org/Graphics/SVG/1.1/DTD/svg11.dtd">
<svg width="117px" height="140px" viewBox="0 0 117 140" version="1.1" xmlns="http://www.w3.org/2000/svg">
<g id="#384450ff">
<path fill="#384450" opacity="1.00" d=" M 0.00 0.00 L 117.00 0.00 L 117.00 140.00 L 0.00 140.00 L 0.00 0.00 M 41.18 53.18 C 38.64 54.49 38.66 58.58 41.25 59.84 C 43.57 61.60 46.63 59.60 47.23 57.09 C 47.70 54.03 43.79 51.11 41.18 53.18 M 56.46 53.52 C 54.29 55.15 54.74 58.66 57.05 59.94 C 59.91 61.97 64.08 58.37 62.73 55.21 C 61.90 52.71 58.38 51.46 56.46 53.52 M 72.41 53.40 C 67.84 56.30 73.75 63.34 77.41 59.34 C 81.29 56.40 75.91 50.03 72.41 53.40 Z" />
</g>
<g id="#f8fcf8ff">
<path fill="#f8fcf8" opacity="1.00" d=" M 41.18 53.18 C 43.79 51.11 47.70 54.03 47.23 57.09 C 46.63 59.60 43.57 61.60 41.25 59.84 C 38.66 58.58 38.64 54.49 41.18 53.18 Z" />
<path fill="#f8fcf8" opacity="1.00" d=" M 56.46 53.52 C 58.38 51.46 61.90 52.71 62.73 55.21 C 64.08 58.37 59.91 61.97 57.05 59.94 C 54.74 58.66 54.29 55.15 56.46 53.52 Z" />
<path fill="#f8fcf8" opacity="1.00" d=" M 72.41 53.40 C 75.91 50.03 81.29 56.40 77.41 59.34 C 73.75 63.34 67.84 56.30 72.41 53.40 Z" />
</g>
</svg>
