<?xml version="1.0" encoding="UTF-8" ?>
<!DOCTYPE svg PUBLIC "-//W3C//DTD SVG 1.1//EN" "http://www.w3.org/Graphics/SVG/1.1/DTD/svg11.dtd">
<svg width="117px" height="140px" viewBox="0 0 117 140" version="1.1" xmlns="http://www.w3.org/2000/svg">
<g id="#000000ff">
<path fill="#000000" opacity="1.00" d=" M 0.00 0.00 L 117.00 0.00 L 117.00 140.00 L 0.00 140.00 L 0.00 0.00 M 33.14 10.21 C 17.90 11.79 5.17 25.62 5.01 40.96 C 5.02 60.64 4.94 80.33 5.05 100.01 C 5.69 115.98 19.96 129.85 35.96 129.99 C 51.66 129.97 67.37 130.09 83.07 129.93 C 98.67 129.29 112.30 115.62 112.94 100.04 C 113.09 80.70 112.94 61.36 113.01 42.03 C 113.10 33.12 109.15 24.31 102.55 18.35 C 96.49 12.75 88.19 9.73 79.95 9.98 C 64.35 10.17 48.73 9.70 33.14 10.21 Z" />
<path fill="#000000" opacity="1.00" d=" M 33.24 12.33 C 48.82 11.70 64.44 12.23 80.03 12.05 C 90.36 11.74 100.71 17.07 106.18 25.88 C 109.48 30.90 111.06 36.92 110.94 42.91 C 110.93 61.28 110.98 79.66 110.92 98.03 C 111.08 109.79 103.49 121.13 92.61 125.56 C 85.82 128.66 78.21 127.84 70.96 127.94 C 58.94 127.87 46.91 128.10 34.90 127.83 C 20.08 127.13 7.27 113.88 7.11 99.04 C 7.02 79.66 7.02 60.29 7.11 40.91 C 7.32 26.68 19.10 13.84 33.24 12.33 M 47.47 50.40 C 44.62 51.24 44.04 55.79 47.04 56.78 C 49.01 57.77 50.72 56.18 51.71 54.62 C 52.66 52.28 49.80 49.51 47.47 50.40 M 70.47 50.44 C 69.56 50.87 68.86 51.53 68.37 52.41 C 66.97 55.47 71.74 58.69 74.08 56.09 C 76.60 53.76 73.56 49.19 70.47 50.44 M 56.72 53.04 C 55.90 55.98 60.10 58.43 62.22 56.13 C 64.73 54.07 62.73 50.50 60.00 49.93 C 58.68 50.71 56.84 51.21 56.72 53.04 Z" />
</g>
<g id="#7185b2ff">
<path fill="#7185b2" opacity="1.00" d=" M 33.14 10.21 C 48.73 9.70 64.35 10.17 79.95 9.98 C 88.19 9.73 96.49 12.75 102.55 18.35 C 109.15 24.31 113.10 33.12 113.01 42.03 C 112.94 61.36 113.09 80.70 112.94 100.04 C 112.30 115.62 98.67 129.29 83.07 129.93 C 67.37 130.09 51.66 129.97 35.96 129.99 C 19.96 129.85 5.69 115.98 5.05 100.01 C 4.94 80.33 5.02 60.64 5.01 40.96 C 5.17 25.62 17.90 11.79 33.14 10.21 M 33.24 12.33 C 19.10 13.84 7.32 26.68 7.11 40.91 C 7.02 60.29 7.02 79.66 7.11 99.04 C 7.27 113.88 20.08 127.13 34.90 127.83 C 46.91 128.10 58.94 127.87 70.96 127.94 C 78.21 127.84 85.82 128.66 92.61 125.56 C 103.49 121.13 111.08 109.79 110.92 98.03 C 110.98 79.66 110.93 61.28 110.94 42.91 C 111.06 36.92 109.48 30.90 106.18 25.88 C 100.71 17.07 90.36 11.74 80.03 12.05 C 64.44 12.23 48.82 11.70 33.24 12.33 Z" />
</g>
<g id="#f8fcf8ff">
<path fill="#f8fcf8" opacity="1.00" d=" M 47.47 50.40 C 49.80 49.51 52.66 52.28 51.71 54.62 C 50.72 56.18 49.01 57.77 47.04 56.78 C 44.04 55.79 44.62 51.24 47.47 50.40 Z" />
<path fill="#f8fcf8" opacity="1.00" d=" M 70.47 50.44 C 73.56 49.19 76.60 53.76 74.08 56.09 C 71.74 58.69 66.97 55.47 68.37 52.41 C 68.86 51.53 69.56 50.87 70.47 50.44 Z" />
<path fill="#f8fcf8" opacity="1.00" d=" M 56.72 53.04 C 56.84 51.21 58.68 50.71 60.00 49.93 C 62.73 50.50 64.73 54.07 62.22 56.13 C 60.10 58.43 55.90 55.98 56.72 53.04 Z" />
</g>
</svg>
