<?xml version="1.0" encoding="UTF-8" ?>
<!DOCTYPE svg PUBLIC "-//W3C//DTD SVG 1.1//EN" "http://www.w3.org/Graphics/SVG/1.1/DTD/svg11.dtd">
<svg width="117px" height="140px" viewBox="0 0 117 140" version="1.1" xmlns="http://www.w3.org/2000/svg">
<g id="#000000ff">
<path fill="#000000" opacity="1.00" d=" M 0.00 0.00 L 117.00 0.00 L 117.00 140.00 L 0.00 140.00 L 0.00 0.00 M 31.25 10.58 L 31.88 11.23 C 29.33 11.27 26.88 11.95 24.46 12.71 L 24.50 13.82 C 24.03 13.64 23.11 13.27 22.65 13.08 L 22.63 14.64 C 22.17 14.55 21.24 14.38 20.78 14.29 L 20.52 15.11 C 19.10 15.97 17.73 16.90 16.34 17.80 L 16.96 18.33 L 15.61 18.52 L 15.37 19.86 L 14.38 18.98 L 14.66 20.71 L 13.71 20.23 C 13.44 20.65 12.91 21.50 12.65 21.92 C 11.76 23.09 10.86 24.25 10.05 25.48 L 9.30 25.78 C 9.38 26.24 9.55 27.16 9.63 27.62 L 8.08 27.65 C 8.27 28.12 8.64 29.06 8.83 29.53 L 7.49 29.46 C 7.45 30.49 7.38 32.53 7.34 33.55 L 6.40 31.96 C 6.41 33.57 6.43 35.19 6.45 36.81 C 6.23 36.67 5.79 36.40 5.57 36.26 C 5.25 58.75 5.24 81.26 5.57 103.75 C 5.79 103.61 6.23 103.32 6.45 103.17 C 6.43 104.76 6.42 106.34 6.41 107.92 L 7.38 106.72 C 7.39 107.66 7.43 109.55 7.44 110.50 L 8.80 110.47 C 8.63 110.94 8.28 111.88 8.10 112.35 L 9.66 112.40 C 9.57 112.86 9.39 113.78 9.30 114.23 L 10.11 114.47 C 10.96 115.90 11.89 117.27 12.80 118.66 L 13.49 118.10 L 13.42 119.53 L 14.91 119.50 L 13.97 120.62 L 15.68 120.37 L 15.39 122.01 L 16.72 121.00 L 16.32 122.19 C 17.71 123.09 19.08 124.02 20.51 124.88 C 20.60 125.10 20.77 125.56 20.86 125.79 L 22.52 125.24 L 22.64 126.85 C 23.13 126.69 24.11 126.39 24.60 126.23 L 24.44 127.54 C 25.31 127.55 27.04 127.55 27.90 127.56 L 27.21 128.29 C 30.76 129.03 34.33 129.81 37.99 129.64 C 54.25 129.50 70.51 129.86 86.76 129.43 L 86.09 128.77 C 88.67 128.77 91.13 128.05 93.57 127.28 L 93.45 126.20 C 93.94 126.37 94.90 126.72 95.39 126.89 L 95.36 125.35 C 95.83 125.44 96.75 125.63 97.22 125.72 L 97.47 124.88 C 98.87 124.05 100.22 123.14 101.59 122.26 L 101.35 121.82 C 102.29 121.24 103.23 120.67 104.17 120.09 C 104.28 119.59 104.50 118.60 104.61 118.11 L 105.22 118.64 C 106.12 117.26 107.04 115.90 107.88 114.49 L 108.69 114.23 C 108.61 113.76 108.44 112.83 108.36 112.37 L 109.89 112.38 C 109.72 111.90 109.38 110.94 109.21 110.46 L 110.55 110.52 C 110.56 109.65 110.57 107.91 110.58 107.04 L 111.58 107.79 C 111.58 106.19 111.58 104.60 111.58 103.00 L 112.42 103.83 C 112.88 83.55 112.50 63.26 112.63 42.98 C 112.82 39.32 112.01 35.75 111.28 32.20 L 110.54 32.89 C 110.55 32.04 110.56 30.34 110.57 29.49 L 109.20 29.54 C 109.37 29.06 109.73 28.10 109.90 27.62 L 108.36 27.65 C 108.45 27.18 108.62 26.25 108.71 25.78 L 107.89 25.52 C 107.02 24.09 106.09 22.72 105.18 21.32 L 104.54 21.96 L 104.57 20.53 L 103.14 20.44 L 104.01 19.38 L 102.28 19.66 L 102.78 18.73 C 102.35 18.46 101.49 17.91 101.07 17.63 C 99.89 16.73 98.71 15.85 97.48 15.03 L 97.24 14.30 C 96.77 14.38 95.83 14.54 95.36 14.62 L 95.37 13.10 C 94.90 13.28 93.95 13.63 93.48 13.80 L 93.55 12.72 C 91.13 11.95 88.67 11.27 86.11 11.23 L 86.75 10.58 C 68.26 10.24 49.74 10.24 31.25 10.58 Z" />
<path fill="#000000" opacity="1.00" d=" M 32.11 11.57 C 50.04 11.67 67.97 11.68 85.90 11.56 C 85.74 11.76 85.40 12.15 85.24 12.35 C 87.12 12.46 89.00 12.55 90.88 12.64 L 90.34 13.95 C 90.86 13.76 91.91 13.38 92.43 13.19 L 92.63 14.62 C 93.10 14.54 94.03 14.37 94.49 14.29 L 94.70 15.61 C 95.15 15.53 96.07 15.37 96.53 15.29 L 96.63 16.73 C 97.14 16.61 98.16 16.38 98.67 16.27 L 98.22 17.95 L 99.58 17.09 L 99.49 17.95 C 101.46 19.56 103.26 21.37 105.12 23.10 C 105.25 23.54 105.50 24.43 105.62 24.87 L 106.77 24.29 C 106.64 24.81 106.39 25.85 106.26 26.37 L 107.70 26.47 C 107.62 26.93 107.48 27.85 107.40 28.31 L 108.75 28.54 C 108.64 29.00 108.43 29.91 108.32 30.37 L 109.30 30.31 C 109.83 32.50 110.44 34.67 110.82 36.89 L 111.44 35.98 C 111.34 58.25 111.32 80.54 111.44 102.81 C 111.30 102.71 111.01 102.51 110.87 102.40 C 110.54 104.87 109.93 107.29 109.31 109.70 L 108.33 109.62 C 108.43 110.07 108.64 110.99 108.74 111.45 L 107.40 111.72 C 107.48 112.17 107.63 113.07 107.71 113.52 L 106.31 113.61 C 106.40 114.13 106.58 115.17 106.67 115.69 L 104.85 115.28 L 106.05 116.58 L 105.09 116.48 C 103.43 118.55 101.55 120.43 99.48 122.09 L 99.60 123.07 L 98.31 121.81 L 98.69 123.66 C 98.16 123.57 97.12 123.41 96.60 123.32 L 96.51 124.73 C 96.06 124.64 95.17 124.47 94.72 124.38 L 94.51 125.68 C 94.04 125.61 93.09 125.48 92.61 125.41 L 92.40 126.88 C 91.89 126.64 90.87 126.18 90.35 125.94 L 90.91 127.35 C 89.03 127.44 87.14 127.54 85.26 127.65 C 85.42 127.85 85.74 128.24 85.90 128.43 C 67.59 128.33 49.27 128.33 30.96 128.43 L 31.94 127.82 C 29.69 127.43 27.50 126.82 25.29 126.28 L 25.37 125.31 C 24.93 125.42 24.03 125.64 23.59 125.75 C 23.49 125.39 23.29 124.67 23.19 124.31 L 21.56 124.82 L 21.38 123.33 C 20.87 123.41 19.83 123.57 19.31 123.66 L 19.71 121.78 L 18.40 123.07 L 18.52 122.09 C 16.45 120.43 14.57 118.55 12.92 116.47 L 11.96 116.59 L 13.14 115.31 L 11.32 115.67 C 11.41 115.16 11.60 114.13 11.70 113.62 L 10.29 113.51 C 10.37 113.05 10.52 112.14 10.60 111.69 L 9.24 111.45 C 9.35 111.00 9.57 110.08 9.68 109.62 L 8.69 109.70 C 8.06 107.20 7.43 104.70 7.11 102.14 L 6.55 103.07 C 6.67 81.04 6.69 59.01 6.54 36.98 L 7.11 37.83 C 7.45 35.28 8.09 32.79 8.70 30.29 L 9.69 30.37 C 9.58 29.91 9.37 29.00 9.27 28.54 L 10.62 28.30 C 10.53 27.84 10.36 26.93 10.28 26.48 L 11.68 26.40 C 11.59 25.87 11.41 24.81 11.32 24.29 L 12.60 24.89 C 12.67 24.44 12.80 23.53 12.86 23.08 C 14.79 21.40 16.56 19.55 18.52 17.90 L 18.42 16.96 L 19.73 18.15 L 19.30 16.34 C 19.82 16.43 20.87 16.60 21.39 16.69 L 21.49 15.26 C 21.94 15.36 22.84 15.54 23.29 15.63 L 23.50 14.32 C 23.97 14.39 24.92 14.52 25.40 14.59 L 25.59 13.13 C 26.13 13.36 27.21 13.83 27.74 14.07 L 27.01 12.66 C 28.91 12.56 30.82 12.46 32.73 12.35 C 32.57 12.15 32.26 11.76 32.11 11.57 M 53.62 27.62 C 53.62 29.26 53.64 30.89 53.68 32.53 C 51.83 33.13 50.03 33.87 48.28 34.70 C 47.07 33.52 45.86 32.36 44.64 31.21 C 42.21 33.70 39.75 36.18 37.23 38.59 C 38.33 39.81 39.45 41.02 40.56 42.23 C 39.84 44.03 39.15 45.85 38.56 47.70 C 36.92 47.66 35.28 47.64 33.64 47.64 C 33.39 51.21 33.39 54.79 33.64 58.36 C 35.28 58.36 36.91 58.34 38.55 58.30 C 39.14 60.15 39.84 61.97 40.57 63.78 C 39.45 64.98 38.33 66.17 37.22 67.38 C 39.73 69.81 42.20 72.28 44.63 74.79 C 45.86 73.64 47.07 72.48 48.28 71.31 C 50.04 72.13 51.85 72.85 53.69 73.47 C 53.64 75.10 53.61 76.74 53.61 78.37 C 57.20 78.60 60.80 78.60 64.39 78.37 C 64.38 76.74 64.36 75.11 64.31 73.48 C 66.16 72.87 67.96 72.13 69.72 71.31 C 70.92 72.48 72.14 73.64 73.37 74.79 C 75.80 72.28 78.27 69.81 80.78 67.38 C 79.66 66.17 78.54 64.97 77.42 63.76 C 78.16 61.97 78.87 60.17 79.53 58.35 C 81.14 58.36 82.75 58.35 84.37 58.34 C 84.60 54.78 84.60 51.21 84.37 47.66 C 82.75 47.64 81.14 47.64 79.53 47.66 C 78.87 45.84 78.16 44.04 77.42 42.26 C 78.54 41.04 79.66 39.82 80.77 38.60 C 78.25 36.18 75.80 33.70 73.36 31.21 C 72.13 32.36 70.92 33.52 69.72 34.70 C 67.96 33.88 66.16 33.15 64.31 32.54 C 64.36 30.90 64.39 29.27 64.39 27.63 C 60.80 27.40 57.20 27.40 53.62 27.62 Z" />
<path fill="#000000" opacity="1.00" d=" M 56.90 30.80 C 58.30 30.80 59.70 30.80 61.10 30.80 C 61.10 32.37 61.10 33.95 61.10 35.52 C 64.20 36.25 67.15 37.51 69.87 39.17 C 71.02 38.01 72.17 36.86 73.32 35.70 C 74.31 36.70 75.30 37.69 76.31 38.69 C 75.14 39.83 73.98 40.98 72.83 42.13 C 74.47 44.85 75.70 47.79 76.45 50.87 C 78.04 50.87 79.64 50.87 81.24 50.87 C 81.24 52.29 81.24 53.71 81.24 55.13 C 79.64 55.13 78.05 55.13 76.45 55.12 C 75.71 58.21 74.47 61.15 72.83 63.87 C 73.98 65.02 75.14 66.17 76.30 67.31 C 75.30 68.31 74.31 69.30 73.32 70.31 C 72.18 69.15 71.03 67.99 69.88 66.84 C 67.15 68.49 64.20 69.72 61.10 70.48 C 61.10 72.05 61.10 73.63 61.10 75.20 C 59.70 75.20 58.30 75.20 56.90 75.20 C 56.90 73.62 56.90 72.05 56.90 70.47 C 53.80 69.72 50.85 68.48 48.12 66.84 C 46.97 67.99 45.83 69.14 44.69 70.30 C 43.69 69.30 42.70 68.31 41.69 67.32 C 42.86 66.17 44.01 65.02 45.17 63.87 C 43.53 61.15 42.30 58.21 41.55 55.12 C 39.95 55.13 38.36 55.13 36.76 55.13 C 36.76 53.71 36.76 52.29 36.76 50.87 C 38.36 50.87 39.95 50.87 41.55 50.88 C 42.30 47.79 43.53 44.85 45.17 42.13 C 44.02 40.98 42.86 39.83 41.69 38.68 C 42.70 37.69 43.69 36.69 44.69 35.70 C 45.83 36.86 46.97 38.01 48.12 39.17 C 50.85 37.52 53.79 36.25 56.90 35.52 C 56.90 33.95 56.90 32.37 56.90 30.80 M 56.46 43.60 C 52.69 44.67 49.70 48.15 49.23 52.06 C 48.59 57.88 54.16 63.44 59.99 62.75 C 64.43 62.21 68.25 58.40 68.76 53.95 C 69.54 47.59 62.66 41.55 56.46 43.60 Z" />
<path fill="#000000" opacity="1.00" d=" M 54.10 48.09 C 57.21 46.14 60.80 46.11 63.90 48.09 C 65.90 51.18 65.83 54.82 63.89 57.91 C 60.80 59.89 57.21 59.85 54.11 57.92 C 52.17 54.82 52.10 51.18 54.10 48.09 Z" />
</g>
<g id="#eef3f2ff">
<path fill="#eef3f2" opacity="1.00" d=" M 31.25 10.58 C 49.74 10.24 68.26 10.24 86.75 10.58 L 86.11 11.23 C 88.67 11.27 91.13 11.95 93.55 12.72 L 93.48 13.80 C 93.95 13.63 94.90 13.28 95.37 13.10 L 95.36 14.62 C 95.83 14.54 96.77 14.38 97.24 14.30 L 97.48 15.03 C 98.71 15.85 99.89 16.73 101.07 17.63 C 101.49 17.91 102.35 18.46 102.78 18.73 L 102.28 19.66 L 104.01 19.38 L 103.14 20.44 L 104.57 20.53 L 104.54 21.96 L 105.18 21.32 C 106.09 22.72 107.02 24.09 107.89 25.52 L 108.71 25.78 C 108.62 26.25 108.45 27.18 108.36 27.65 L 109.90 27.62 C 109.73 28.10 109.37 29.06 109.20 29.54 L 110.57 29.49 C 110.56 30.34 110.55 32.04 110.54 32.89 L 111.28 32.20 C 112.01 35.75 112.82 39.32 112.63 42.98 C 112.50 63.26 112.88 83.55 112.42 103.83 L 111.58 103.00 C 111.58 104.60 111.58 106.19 111.58 107.79 L 110.58 107.04 C 110.57 107.91 110.56 109.65 110.55 110.52 L 109.21 110.46 C 109.38 110.94 109.72 111.90 109.89 112.38 L 108.36 112.37 C 108.44 112.83 108.61 113.76 108.69 114.23 L 107.88 114.49 C 107.04 115.90 106.12 117.26 105.22 118.64 L 104.61 118.11 C 104.50 118.60 104.28 119.59 104.17 120.09 C 103.23 120.67 102.29 121.24 101.35 121.82 L 101.59 122.26 C 100.22 123.14 98.87 124.05 97.47 124.88 L 97.22 125.72 C 96.75 125.63 95.83 125.44 95.36 125.35 L 95.39 126.89 C 94.90 126.72 93.94 126.37 93.45 126.20 L 93.57 127.28 C 91.13 128.05 88.67 128.77 86.09 128.77 L 86.76 129.43 C 70.51 129.86 54.25 129.50 37.99 129.64 C 34.33 129.81 30.76 129.03 27.21 128.29 L 27.90 127.56 C 27.04 127.55 25.31 127.55 24.44 127.54 L 24.60 126.23 C 24.11 126.39 23.13 126.69 22.64 126.85 L 22.52 125.24 L 20.86 125.79 C 20.77 125.56 20.60 125.10 20.51 124.88 C 19.08 124.02 17.71 123.09 16.32 122.19 L 16.72 121.00 L 15.39 122.01 L 15.68 120.37 L 13.97 120.62 L 14.91 119.50 L 13.42 119.53 L 13.49 118.10 L 12.80 118.66 C 11.89 117.27 10.96 115.90 10.11 114.47 L 9.30 114.23 C 9.39 113.78 9.57 112.86 9.66 112.40 L 8.10 112.35 C 8.28 111.88 8.63 110.94 8.80 110.47 L 7.44 110.50 C 7.43 109.55 7.39 107.66 7.38 106.72 L 6.41 107.92 C 6.42 106.34 6.43 104.76 6.45 103.17 C 6.23 103.32 5.79 103.61 5.57 103.75 C 5.24 81.26 5.25 58.75 5.57 36.26 C 5.79 36.40 6.23 36.67 6.45 36.81 C 6.43 35.19 6.41 33.57 6.40 31.96 L 7.34 33.55 C 7.38 32.53 7.45 30.49 7.49 29.46 L 8.83 29.53 C 8.64 29.06 8.27 28.12 8.08 27.65 L 9.63 27.62 C 9.55 27.16 9.38 26.24 9.30 25.78 L 10.05 25.48 C 10.86 24.25 11.76 23.09 12.65 21.92 C 12.91 21.50 13.44 20.65 13.71 20.23 L 14.66 20.71 L 14.38 18.98 L 15.37 19.86 L 15.61 18.52 L 16.96 18.33 L 16.34 17.80 C 17.73 16.90 19.10 15.97 20.52 15.11 L 20.78 14.29 C 21.24 14.38 22.17 14.55 22.63 14.64 L 22.65 13.08 C 23.11 13.27 24.03 13.64 24.50 13.82 L 24.46 12.71 C 26.88 11.95 29.33 11.27 31.88 11.23 L 31.25 10.58 M 32.11 11.57 C 32.26 11.76 32.57 12.15 32.73 12.35 C 30.82 12.46 28.91 12.56 27.01 12.66 L 27.74 14.07 C 27.21 13.83 26.13 13.36 25.59 13.13 L 25.40 14.59 C 24.92 14.52 23.97 14.39 23.50 14.32 L 23.29 15.63 C 22.84 15.54 21.94 15.36 21.49 15.26 L 21.39 16.69 C 20.87 16.60 19.82 16.43 19.30 16.34 L 19.73 18.15 L 18.42 16.96 L 18.52 17.90 C 16.56 19.55 14.79 21.40 12.86 23.08 C 12.80 23.53 12.67 24.44 12.60 24.89 L 11.32 24.29 C 11.41 24.81 11.59 25.87 11.68 26.40 L 10.28 26.48 C 10.36 26.93 10.53 27.84 10.62 28.30 L 9.27 28.54 C 9.37 29.00 9.58 29.91 9.69 30.37 L 8.70 30.29 C 8.09 32.79 7.45 35.28 7.11 37.83 L 6.54 36.98 C 6.69 59.01 6.67 81.04 6.55 103.07 L 7.11 102.14 C 7.43 104.70 8.06 107.20 8.69 109.70 L 9.68 109.62 C 9.57 110.08 9.35 111.00 9.24 111.45 L 10.60 111.69 C 10.52 112.14 10.37 113.05 10.29 113.51 L 11.70 113.62 C 11.60 114.13 11.41 115.16 11.32 115.67 L 13.14 115.31 L 11.96 116.59 L 12.92 116.47 C 14.57 118.55 16.45 120.43 18.52 122.09 L 18.40 123.07 L 19.71 121.78 L 19.31 123.66 C 19.83 123.57 20.87 123.41 21.38 123.33 L 21.56 124.82 L 23.19 124.31 C 23.29 124.67 23.49 125.39 23.59 125.75 C 24.03 125.64 24.93 125.42 25.37 125.31 L 25.29 126.28 C 27.50 126.82 29.69 127.43 31.94 127.82 L 30.96 128.43 C 49.27 128.33 67.59 128.33 85.90 128.43 C 85.74 128.24 85.42 127.85 85.26 127.65 C 87.14 127.54 89.03 127.44 90.91 127.35 L 90.35 125.94 C 90.87 126.18 91.89 126.64 92.40 126.88 L 92.61 125.41 C 93.09 125.48 94.04 125.61 94.51 125.68 L 94.72 124.38 C 95.17 124.47 96.06 124.64 96.51 124.73 L 96.60 123.32 C 97.12 123.41 98.16 123.57 98.69 123.66 L 98.31 121.81 L 99.60 123.07 L 99.48 122.09 C 101.55 120.43 103.43 118.55 105.09 116.48 L 106.05 116.58 L 104.85 115.28 L 106.67 115.69 C 106.58 115.17 106.40 114.13 106.31 113.61 L 107.71 113.52 C 107.63 113.07 107.48 112.17 107.40 111.72 L 108.74 111.45 C 108.64 110.99 108.43 110.07 108.33 109.62 L 109.31 109.70 C 109.93 107.29 110.54 104.87 110.87 102.40 C 111.01 102.51 111.30 102.71 111.44 102.81 C 111.32 80.54 111.34 58.25 111.44 35.98 L 110.82 36.89 C 110.44 34.67 109.83 32.50 109.30 30.31 L 108.32 30.37 C 108.43 29.91 108.64 29.00 108.75 28.54 L 107.40 28.31 C 107.48 27.85 107.62 26.93 107.70 26.47 L 106.26 26.37 C 106.39 25.85 106.64 24.81 106.77 24.29 L 105.62 24.87 C 105.50 24.43 105.25 23.54 105.12 23.10 C 103.26 21.37 101.46 19.56 99.49 17.95 L 99.58 17.09 L 98.22 17.95 L 98.67 16.27 C 98.16 16.38 97.14 16.61 96.63 16.73 L 96.53 15.29 C 96.07 15.37 95.15 15.53 94.70 15.61 L 94.49 14.29 C 94.03 14.37 93.10 14.54 92.63 14.62 L 92.43 13.19 C 91.91 13.38 90.86 13.76 90.34 13.95 L 90.88 12.64 C 89.00 12.55 87.12 12.46 85.24 12.35 C 85.40 12.15 85.74 11.76 85.90 11.56 C 67.97 11.68 50.04 11.67 32.11 11.57 Z" />
<path fill="#eef3f2" opacity="1.00" d=" M 53.62 27.62 C 57.20 27.40 60.80 27.40 64.39 27.63 C 64.39 29.27 64.36 30.90 64.31 32.54 C 66.16 33.15 67.96 33.88 69.72 34.70 C 70.92 33.52 72.13 32.36 73.36 31.21 C 75.80 33.70 78.25 36.18 80.77 38.60 C 79.66 39.82 78.54 41.04 77.42 42.26 C 78.16 44.04 78.87 45.84 79.53 47.66 C 81.14 47.64 82.75 47.64 84.37 47.66 C 84.60 51.21 84.60 54.78 84.37 58.34 C 82.75 58.35 81.14 58.36 79.53 58.35 C 78.87 60.17 78.16 61.97 77.42 63.76 C 78.54 64.97 79.66 66.17 80.78 67.38 C 78.27 69.81 75.80 72.28 73.37 74.79 C 72.14 73.64 70.92 72.48 69.72 71.31 C 67.96 72.13 66.16 72.87 64.31 73.48 C 64.36 75.11 64.38 76.74 64.39 78.37 C 60.80 78.60 57.20 78.60 53.61 78.37 C 53.61 76.74 53.64 75.10 53.69 73.47 C 51.85 72.85 50.04 72.13 48.28 71.31 C 47.07 72.48 45.86 73.64 44.63 74.79 C 42.20 72.28 39.73 69.81 37.22 67.38 C 38.33 66.17 39.45 64.98 40.57 63.78 C 39.84 61.97 39.14 60.15 38.55 58.30 C 36.91 58.34 35.28 58.36 33.64 58.36 C 33.39 54.79 33.39 51.21 33.64 47.64 C 35.28 47.64 36.92 47.66 38.56 47.70 C 39.15 45.85 39.84 44.03 40.56 42.23 C 39.45 41.02 38.33 39.81 37.23 38.59 C 39.75 36.18 42.21 33.70 44.64 31.21 C 45.86 32.36 47.07 33.52 48.28 34.70 C 50.03 33.87 51.83 33.13 53.68 32.53 C 53.64 30.89 53.62 29.26 53.62 27.62 M 56.90 30.80 C 56.90 32.37 56.90 33.95 56.90 35.52 C 53.79 36.25 50.85 37.52 48.12 39.17 C 46.97 38.01 45.83 36.86 44.69 35.70 C 43.69 36.69 42.70 37.69 41.69 38.68 C 42.86 39.83 44.02 40.98 45.17 42.13 C 43.53 44.85 42.30 47.79 41.55 50.88 C 39.95 50.87 38.36 50.87 36.76 50.87 C 36.76 52.29 36.76 53.71 36.76 55.13 C 38.36 55.13 39.95 55.13 41.55 55.12 C 42.30 58.21 43.53 61.15 45.17 63.87 C 44.01 65.02 42.86 66.17 41.69 67.32 C 42.70 68.31 43.69 69.30 44.69 70.30 C 45.83 69.14 46.97 67.99 48.12 66.84 C 50.85 68.48 53.80 69.72 56.90 70.47 C 56.90 72.05 56.90 73.62 56.90 75.20 C 58.30 75.20 59.70 75.20 61.10 75.20 C 61.10 73.63 61.10 72.05 61.10 70.48 C 64.20 69.72 67.15 68.49 69.88 66.84 C 71.03 67.99 72.18 69.15 73.32 70.31 C 74.31 69.30 75.30 68.31 76.30 67.31 C 75.14 66.17 73.98 65.02 72.83 63.87 C 74.47 61.15 75.71 58.21 76.45 55.12 C 78.05 55.13 79.64 55.13 81.24 55.13 C 81.24 53.71 81.24 52.29 81.24 50.87 C 79.64 50.87 78.04 50.87 76.45 50.87 C 75.70 47.79 74.47 44.85 72.83 42.13 C 73.98 40.98 75.14 39.83 76.31 38.69 C 75.30 37.69 74.31 36.70 73.32 35.70 C 72.17 36.86 71.02 38.01 69.87 39.17 C 67.15 37.51 64.20 36.25 61.10 35.52 C 61.10 33.95 61.10 32.37 61.10 30.80 C 59.70 30.80 58.30 30.80 56.90 30.80 Z" />
<path fill="#eef3f2" opacity="1.00" d=" M 56.46 43.60 C 62.66 41.55 69.54 47.59 68.76 53.95 C 68.25 58.40 64.43 62.21 59.99 62.75 C 54.16 63.44 48.59 57.88 49.23 52.06 C 49.70 48.15 52.69 44.67 56.46 43.60 M 54.10 48.09 C 52.10 51.18 52.17 54.82 54.11 57.92 C 57.21 59.85 60.80 59.89 63.89 57.91 C 65.83 54.82 65.90 51.18 63.90 48.09 C 60.80 46.11 57.21 46.14 54.10 48.09 Z" />
</g>
</svg>
