<?xml version="1.0" encoding="UTF-8" ?>
<!DOCTYPE svg PUBLIC "-//W3C//DTD SVG 1.1//EN" "http://www.w3.org/Graphics/SVG/1.1/DTD/svg11.dtd">
<svg width="117px" height="140px" viewBox="0 0 117 140" version="1.1" xmlns="http://www.w3.org/2000/svg">
<g id="#000000ff">
<path fill="#000000" opacity="1.00" d=" M 0.00 0.00 L 117.00 0.00 L 117.00 140.00 L 0.00 140.00 L 0.00 0.00 M 33.22 10.34 C 18.03 11.82 5.25 25.65 5.16 40.95 C 5.11 60.30 5.12 79.66 5.16 99.01 C 5.21 114.90 19.02 129.19 34.90 129.78 C 50.60 129.95 66.32 129.87 82.03 129.82 C 98.28 129.81 112.79 115.32 112.83 99.06 C 112.89 79.71 112.90 60.36 112.83 41.00 C 112.84 24.73 98.33 10.24 82.08 10.17 C 65.79 10.21 49.49 9.88 33.22 10.34 Z" />
<path fill="#000000" opacity="1.00" d=" M 30.39 12.62 C 33.56 11.95 36.80 11.78 40.02 11.84 C 54.36 11.97 68.71 11.72 83.04 11.96 C 98.00 12.67 110.90 26.00 111.11 40.97 C 111.17 59.99 111.11 79.02 111.14 98.05 C 111.19 108.81 104.95 119.34 95.44 124.39 C 90.48 127.23 84.69 128.28 79.02 128.15 C 64.32 128.05 49.61 128.27 34.91 128.04 C 19.99 127.30 7.11 114.01 6.90 99.07 C 6.84 79.70 6.85 60.33 6.89 40.97 C 7.15 27.62 17.35 15.37 30.39 12.62 M 55.57 37.51 C 48.75 41.79 42.20 46.50 35.38 50.78 C 35.25 51.36 34.99 52.52 34.86 53.10 C 41.00 58.13 47.98 62.01 54.46 66.57 C 55.70 67.80 57.37 67.59 58.96 67.52 C 59.30 64.28 59.12 60.99 59.75 57.78 C 67.66 57.93 75.89 62.25 78.84 69.89 C 79.53 63.67 78.44 56.72 73.52 52.38 C 70.00 48.26 64.53 47.08 59.42 46.37 C 59.29 43.60 59.41 40.82 59.06 38.06 C 58.28 36.91 56.66 36.61 55.57 37.51 Z" />
</g>
<g id="#68e762ff">
<path fill="#68e762" opacity="1.00" d=" M 33.22 10.34 C 49.49 9.88 65.79 10.21 82.08 10.17 C 98.33 10.24 112.84 24.73 112.83 41.00 C 112.90 60.36 112.89 79.71 112.83 99.06 C 112.79 115.32 98.28 129.81 82.03 129.82 C 66.32 129.87 50.60 129.95 34.90 129.78 C 19.02 129.19 5.21 114.90 5.16 99.01 C 5.12 79.66 5.11 60.30 5.16 40.95 C 5.25 25.65 18.03 11.82 33.22 10.34 M 30.39 12.62 C 17.35 15.37 7.15 27.62 6.89 40.97 C 6.85 60.33 6.84 79.70 6.90 99.07 C 7.11 114.01 19.99 127.30 34.91 128.04 C 49.61 128.27 64.32 128.05 79.02 128.15 C 84.69 128.28 90.48 127.23 95.44 124.39 C 104.95 119.34 111.19 108.81 111.14 98.05 C 111.11 79.02 111.17 59.99 111.11 40.97 C 110.90 26.00 98.00 12.67 83.04 11.96 C 68.71 11.72 54.36 11.97 40.02 11.84 C 36.80 11.78 33.56 11.95 30.39 12.62 Z" />
<path fill="#68e762" opacity="1.00" d=" M 55.57 37.51 C 56.66 36.61 58.28 36.91 59.06 38.06 C 59.41 40.82 59.29 43.60 59.42 46.37 C 64.53 47.08 70.00 48.26 73.52 52.38 C 78.44 56.72 79.53 63.67 78.84 69.89 C 75.89 62.25 67.66 57.93 59.75 57.78 C 59.12 60.99 59.30 64.28 58.96 67.52 C 57.37 67.59 55.70 67.80 54.46 66.57 C 47.98 62.01 41.00 58.13 34.86 53.10 C 34.99 52.52 35.25 51.36 35.38 50.78 C 42.20 46.50 48.75 41.79 55.57 37.51 Z" />
</g>
</svg>
