<?xml version="1.0" encoding="UTF-8" ?>
<!DOCTYPE svg PUBLIC "-//W3C//DTD SVG 1.1//EN" "http://www.w3.org/Graphics/SVG/1.1/DTD/svg11.dtd">
<svg width="45px" height="45px" viewBox="0 0 45 45" version="1.1" xmlns="http://www.w3.org/2000/svg">
<g id="#000000ff">
<path fill="#000000" opacity="1.00" d=" M 0.00 0.00 L 45.00 0.00 L 45.00 45.00 L 0.00 45.00 L 0.00 0.00 M 23.46 10.28 C 23.69 10.90 23.91 11.52 24.14 12.14 C 25.93 12.71 27.74 13.24 29.56 13.74 C 28.65 15.24 27.84 16.80 27.05 18.37 C 27.60 18.31 28.69 18.20 29.23 18.14 C 29.79 17.06 30.35 15.99 30.93 14.92 C 33.71 18.15 34.79 23.00 32.65 26.84 C 31.17 29.88 27.96 31.50 24.77 32.12 C 24.67 30.90 24.56 29.69 24.42 28.47 C 23.84 28.56 22.67 28.72 22.09 28.80 C 22.55 30.24 23.63 31.27 24.59 32.36 C 19.88 31.99 16.09 29.06 14.23 24.79 C 15.11 24.61 16.86 24.26 17.74 24.09 C 16.24 22.40 14.66 20.78 13.06 19.18 C 11.87 20.94 9.04 22.11 9.27 24.51 C 9.95 24.48 11.32 24.44 12.00 24.42 C 12.91 27.89 15.07 31.00 18.20 32.81 C 24.89 36.87 34.31 32.39 35.80 24.84 C 37.71 17.45 31.17 9.37 23.46 10.28 M 22.67 15.33 C 22.54 17.75 22.83 20.21 22.44 22.61 C 21.28 24.29 19.65 25.69 19.19 27.79 C 22.42 27.51 25.56 24.33 25.19 20.97 C 25.04 18.97 25.98 15.13 22.67 15.33 M 30.30 22.05 C 30.50 23.48 31.19 23.71 32.38 22.74 C 32.15 21.37 31.46 21.14 30.30 22.05 M 27.47 26.45 C 26.60 27.62 27.94 29.39 29.27 29.28 C 29.52 29.02 30.03 28.51 30.28 28.25 C 30.41 26.92 28.62 25.60 27.47 26.45 Z" />
</g>
<g id="#e2e5e2ff">
<path fill="#e2e5e2" opacity="1.00" d=" M 23.46 10.28 C 31.17 9.37 37.71 17.45 35.80 24.84 C 34.31 32.39 24.89 36.87 18.20 32.81 C 15.07 31.00 12.91 27.89 12.00 24.42 C 11.32 24.44 9.95 24.48 9.27 24.51 C 9.04 22.11 11.87 20.94 13.06 19.18 C 14.66 20.78 16.24 22.40 17.74 24.09 C 16.86 24.26 15.11 24.61 14.23 24.79 C 16.09 29.06 19.88 31.99 24.59 32.36 C 23.63 31.27 22.55 30.24 22.09 28.80 C 22.67 28.72 23.84 28.56 24.42 28.47 C 24.56 29.69 24.67 30.90 24.77 32.12 C 27.96 31.50 31.17 29.88 32.65 26.84 C 34.79 23.00 33.71 18.15 30.93 14.92 C 30.35 15.99 29.79 17.06 29.23 18.14 C 28.69 18.20 27.60 18.31 27.05 18.37 C 27.84 16.80 28.65 15.24 29.56 13.74 C 27.74 13.24 25.93 12.71 24.14 12.14 C 23.91 11.52 23.69 10.90 23.46 10.28 Z" />
<path fill="#e2e5e2" opacity="1.00" d=" M 22.67 15.33 C 25.98 15.13 25.04 18.97 25.19 20.97 C 25.56 24.33 22.42 27.51 19.19 27.79 C 19.65 25.69 21.28 24.29 22.44 22.61 C 22.83 20.21 22.54 17.75 22.67 15.33 Z" />
<path fill="#e2e5e2" opacity="1.00" d=" M 30.30 22.05 C 31.46 21.14 32.15 21.37 32.38 22.74 C 31.19 23.71 30.50 23.48 30.30 22.05 Z" />
<path fill="#e2e5e2" opacity="1.00" d=" M 27.47 26.45 C 28.62 25.60 30.41 26.92 30.28 28.25 C 30.03 28.51 29.52 29.02 29.27 29.28 C 27.94 29.39 26.60 27.62 27.47 26.45 Z" />
</g>
</svg>
