<?xml version="1.0" encoding="UTF-8" ?>
<!DOCTYPE svg PUBLIC "-//W3C//DTD SVG 1.1//EN" "http://www.w3.org/Graphics/SVG/1.1/DTD/svg11.dtd">
<svg width="117px" height="140px" viewBox="0 0 117 140" version="1.1" xmlns="http://www.w3.org/2000/svg">
<g id="#000000ff">
<path fill="#000000" opacity="1.00" d=" M 0.00 0.00 L 117.00 0.00 L 117.00 140.00 L 0.00 140.00 L 0.00 0.00 M 29.41 10.46 C 15.70 13.27 4.43 25.85 4.01 39.96 C 3.98 59.63 4.02 79.30 3.99 98.96 C 3.81 114.97 17.96 129.54 33.93 130.00 C 49.29 130.02 64.65 129.97 80.02 130.02 C 93.22 130.77 106.04 121.93 110.77 109.71 C 112.85 104.74 113.11 99.28 113.01 93.97 C 112.93 76.31 113.09 58.64 112.94 40.98 C 112.83 25.03 98.96 10.67 83.04 10.00 C 67.34 9.97 51.64 10.04 35.94 9.98 C 33.76 10.00 31.55 9.97 29.41 10.46 Z" />
<path fill="#000000" opacity="1.00" d=" M 35.14 12.21 C 49.09 11.83 63.06 12.18 77.03 12.03 C 84.38 11.93 91.96 13.60 97.88 18.15 C 105.97 24.01 110.28 34.14 110.00 44.00 C 109.96 62.01 110.08 80.02 109.95 98.02 C 109.78 108.46 104.05 118.81 94.80 123.85 C 89.19 127.25 82.46 127.99 76.03 127.97 C 63.34 127.92 50.66 127.97 37.97 127.95 C 30.99 127.87 23.94 125.88 18.43 121.49 C 11.35 115.95 6.96 107.07 7.07 98.06 C 7.06 79.02 7.00 59.98 7.10 40.94 C 7.18 25.97 20.22 12.78 35.14 12.21 M 48.34 29.40 C 46.76 32.61 47.90 36.55 47.61 40.04 C 46.67 40.86 44.70 41.31 45.02 42.93 C 44.97 53.32 45.01 63.72 45.00 74.11 C 44.72 75.40 45.45 77.07 46.97 76.95 C 54.33 77.00 61.71 77.12 69.06 76.89 C 70.98 76.82 71.03 74.48 70.98 73.07 C 70.91 63.05 71.05 53.02 70.91 43.00 C 71.00 41.42 69.17 40.86 68.16 40.03 C 68.03 36.35 68.95 32.39 67.25 28.95 C 60.97 29.32 54.52 28.43 48.34 29.40 Z" />
<path fill="#000000" opacity="1.00" d=" M 49.61 30.63 C 54.95 30.07 60.37 30.36 65.73 30.46 C 67.09 33.46 65.97 37.20 66.33 40.48 C 60.68 40.44 55.03 40.47 49.38 40.45 C 49.47 37.18 49.22 33.88 49.61 30.63 M 52.89 32.60 C 52.94 33.51 53.04 35.32 53.09 36.23 C 54.10 36.23 55.11 36.22 56.12 36.22 C 56.14 35.04 56.17 33.86 56.20 32.68 C 55.09 32.66 53.99 32.62 52.89 32.60 M 58.77 32.64 C 58.77 33.82 58.78 35.01 58.78 36.19 C 59.81 36.22 60.84 36.25 61.88 36.29 C 61.89 35.04 61.85 33.80 61.86 32.56 C 60.83 32.59 59.80 32.62 58.77 32.64 Z" />
<path fill="#000000" opacity="1.00" d=" M 56.14 46.31 C 57.34 44.36 60.37 45.05 60.82 47.21 C 61.28 48.76 59.75 49.79 58.98 50.89 C 58.89 57.02 58.95 63.16 58.94 69.30 C 60.66 68.99 62.93 69.63 64.07 67.91 C 64.51 64.78 64.45 61.57 64.18 58.43 C 63.84 58.11 63.15 57.45 62.81 57.13 C 62.79 55.64 62.77 54.16 62.77 52.68 C 64.38 52.68 66.00 52.68 67.62 52.68 C 67.65 54.23 67.69 55.78 67.73 57.33 C 67.26 57.53 66.34 57.93 65.88 58.13 C 64.98 62.08 67.66 67.79 63.38 70.29 C 60.18 70.95 56.78 70.72 53.54 70.42 C 49.25 68.57 51.14 63.11 50.84 59.49 C 50.21 59.46 48.97 59.40 48.34 59.37 C 49.29 57.77 50.21 56.16 51.13 54.54 C 52.00 56.04 52.84 57.54 53.71 59.04 C 50.63 60.38 52.85 64.74 52.10 67.39 C 53.37 69.28 55.53 69.33 57.59 69.18 C 57.56 63.06 57.59 56.93 57.58 50.81 C 56.54 49.66 54.59 47.88 56.14 46.31 Z" />
</g>
<g id="#708cc7ff">
<path fill="#708cc7" opacity="1.00" d=" M 29.41 10.46 C 31.55 9.97 33.76 10.00 35.94 9.98 C 51.64 10.04 67.34 9.97 83.04 10.00 C 98.96 10.67 112.83 25.03 112.94 40.98 C 113.09 58.64 112.93 76.31 113.01 93.97 C 113.11 99.28 112.85 104.74 110.77 109.71 C 106.04 121.93 93.22 130.77 80.02 130.02 C 64.65 129.97 49.29 130.02 33.93 130.00 C 17.96 129.54 3.81 114.97 3.99 98.96 C 4.02 79.30 3.98 59.63 4.01 39.96 C 4.43 25.85 15.70 13.27 29.41 10.46 M 35.14 12.21 C 20.22 12.78 7.18 25.97 7.10 40.94 C 7.00 59.98 7.06 79.02 7.07 98.06 C 6.96 107.07 11.35 115.95 18.43 121.49 C 23.94 125.88 30.99 127.87 37.97 127.95 C 50.66 127.97 63.34 127.92 76.03 127.97 C 82.46 127.99 89.19 127.25 94.80 123.85 C 104.05 118.81 109.78 108.46 109.95 98.02 C 110.08 80.02 109.96 62.01 110.00 44.00 C 110.28 34.14 105.97 24.01 97.88 18.15 C 91.96 13.60 84.38 11.93 77.03 12.03 C 63.06 12.18 49.09 11.83 35.14 12.21 Z" />
</g>
<g id="#f8fcf8ff">
<path fill="#f8fcf8" opacity="1.00" d=" M 48.34 29.40 C 54.52 28.43 60.97 29.32 67.25 28.95 C 68.95 32.39 68.03 36.35 68.16 40.03 C 69.17 40.86 71.00 41.42 70.91 43.00 C 71.05 53.02 70.91 63.05 70.98 73.07 C 71.03 74.48 70.98 76.82 69.06 76.89 C 61.71 77.12 54.33 77.00 46.97 76.95 C 45.45 77.07 44.72 75.40 45.00 74.11 C 45.01 63.72 44.97 53.32 45.02 42.93 C 44.70 41.31 46.67 40.86 47.61 40.04 C 47.90 36.55 46.76 32.61 48.34 29.40 M 49.61 30.63 C 49.22 33.88 49.47 37.18 49.38 40.45 C 55.03 40.47 60.68 40.44 66.33 40.48 C 65.97 37.20 67.09 33.46 65.73 30.46 C 60.37 30.36 54.95 30.07 49.61 30.63 M 56.14 46.31 C 54.59 47.88 56.54 49.66 57.58 50.81 C 57.59 56.93 57.56 63.06 57.59 69.18 C 55.53 69.33 53.37 69.28 52.10 67.39 C 52.85 64.74 50.63 60.38 53.71 59.04 C 52.84 57.54 52.00 56.04 51.13 54.54 C 50.21 56.16 49.29 57.77 48.34 59.37 C 48.97 59.40 50.21 59.46 50.84 59.49 C 51.14 63.11 49.25 68.57 53.54 70.42 C 56.78 70.72 60.18 70.95 63.38 70.29 C 67.66 67.79 64.98 62.08 65.88 58.13 C 66.34 57.93 67.26 57.53 67.73 57.33 C 67.69 55.78 67.65 54.23 67.62 52.68 C 66.00 52.68 64.38 52.68 62.77 52.68 C 62.77 54.16 62.79 55.64 62.81 57.13 C 63.15 57.45 63.84 58.11 64.18 58.43 C 64.45 61.57 64.51 64.78 64.07 67.91 C 62.93 69.63 60.66 68.99 58.94 69.30 C 58.95 63.16 58.89 57.02 58.98 50.89 C 59.75 49.79 61.28 48.76 60.82 47.21 C 60.37 45.05 57.34 44.36 56.14 46.31 Z" />
<path fill="#f8fcf8" opacity="1.00" d=" M 52.89 32.60 C 53.99 32.62 55.09 32.66 56.20 32.68 C 56.17 33.86 56.14 35.04 56.12 36.22 C 55.11 36.22 54.10 36.23 53.09 36.23 C 53.04 35.32 52.94 33.51 52.89 32.60 Z" />
<path fill="#f8fcf8" opacity="1.00" d=" M 58.77 32.64 C 59.80 32.62 60.83 32.59 61.86 32.56 C 61.85 33.80 61.89 35.04 61.88 36.29 C 60.84 36.25 59.81 36.22 58.78 36.19 C 58.78 35.01 58.77 33.82 58.77 32.64 Z" />
</g>
</svg>
