<?xml version="1.0" encoding="UTF-8" ?>
<!DOCTYPE svg PUBLIC "-//W3C//DTD SVG 1.1//EN" "http://www.w3.org/Graphics/SVG/1.1/DTD/svg11.dtd">
<svg width="100px" height="100px" viewBox="0 0 100 100" version="1.1" xmlns="http://www.w3.org/2000/svg">
<g id="#505050ff">
<path fill="#505050" opacity="1.00" d=" M 0.00 0.00 L 100.00 0.00 L 100.00 100.00 L 0.00 100.00 L 0.00 0.00 M 36.41 21.34 C 35.26 27.77 36.10 34.36 35.92 40.85 C 32.35 41.07 28.76 41.01 25.19 41.37 C 24.66 44.42 23.87 47.74 25.35 50.66 C 28.06 51.91 31.10 51.99 34.01 52.43 C 37.23 59.33 44.12 63.34 48.29 69.51 C 49.95 73.99 45.14 76.86 43.01 80.11 C 43.71 81.04 44.65 81.84 45.84 82.03 C 50.52 83.19 55.58 82.63 60.00 84.83 C 53.99 87.64 47.04 86.08 40.68 87.53 C 47.74 88.57 54.95 87.86 61.79 85.88 C 61.78 85.21 61.74 83.86 61.73 83.19 C 56.17 82.30 50.54 81.70 45.16 79.97 C 47.10 77.97 49.16 76.11 51.31 74.33 C 51.94 72.09 52.18 69.59 53.78 67.77 C 58.09 62.56 64.25 58.76 66.93 52.31 C 69.78 52.02 72.68 52.00 75.48 51.28 C 76.90 48.49 76.48 45.17 76.08 42.17 C 72.54 40.57 68.55 41.10 64.78 40.89 C 64.72 33.90 64.76 26.92 64.66 19.94 C 58.07 17.23 50.85 18.36 43.93 18.16 C 41.24 18.24 37.29 18.07 36.41 21.34 Z" />
<path fill="#505050" opacity="1.00" d=" M 60.99 20.74 C 61.49 20.77 62.49 20.84 62.98 20.87 C 63.02 27.24 63.02 33.62 62.98 40.00 C 62.49 40.00 61.51 40.00 61.01 40.00 C 60.98 33.58 60.99 27.16 60.99 20.74 Z" />
<path fill="#505050" opacity="1.00" d=" M 38.00 24.01 C 42.66 23.99 47.33 23.99 52.00 24.01 C 52.00 24.50 52.01 25.49 52.01 25.99 C 47.34 26.01 42.67 26.02 38.00 25.99 C 38.00 25.50 38.00 24.51 38.00 24.01 Z" />
<path fill="#505050" opacity="1.00" d=" M 38.00 32.00 C 42.00 32.00 46.00 32.00 50.00 32.00 C 50.00 32.50 50.00 33.50 50.00 34.00 C 46.00 34.00 42.00 34.00 38.00 34.00 C 38.00 33.50 38.00 32.50 38.00 32.00 Z" />
<path fill="#505050" opacity="1.00" d=" M 71.36 47.89 C 71.81 45.87 72.49 43.90 73.56 42.12 C 73.86 44.71 74.02 47.31 74.09 49.91 C 71.32 50.01 68.54 50.10 65.77 50.22 C 65.01 53.26 63.74 56.21 61.33 58.31 C 57.40 61.98 54.10 66.55 49.13 68.92 C 51.97 63.09 57.72 59.65 61.69 54.73 C 63.23 52.88 62.91 50.28 63.34 48.05 C 66.01 48.01 68.68 47.98 71.36 47.89 Z" />
</g>
<g id="#f8fcf8ff">
<path fill="#f8fcf8" opacity="1.00" d=" M 36.41 21.34 C 37.29 18.07 41.24 18.24 43.93 18.16 C 50.85 18.36 58.07 17.23 64.66 19.94 C 64.76 26.92 64.72 33.90 64.78 40.89 C 68.55 41.10 72.54 40.57 76.08 42.17 C 76.48 45.17 76.90 48.49 75.48 51.28 C 72.68 52.00 69.78 52.02 66.93 52.31 C 64.25 58.76 58.09 62.56 53.78 67.77 C 52.18 69.59 51.94 72.09 51.31 74.33 C 49.16 76.11 47.10 77.97 45.16 79.97 C 50.54 81.70 56.17 82.30 61.73 83.19 C 61.74 83.86 61.78 85.21 61.79 85.88 C 54.95 87.86 47.74 88.57 40.68 87.53 C 47.04 86.08 53.99 87.64 60.00 84.83 C 55.58 82.63 50.52 83.19 45.84 82.03 C 44.65 81.84 43.71 81.04 43.01 80.11 C 45.14 76.86 49.95 73.99 48.29 69.51 C 44.12 63.34 37.23 59.33 34.01 52.43 C 31.10 51.99 28.06 51.91 25.35 50.66 C 23.87 47.74 24.66 44.42 25.19 41.37 C 28.76 41.01 32.35 41.07 35.92 40.85 C 36.10 34.36 35.26 27.77 36.41 21.34 M 60.99 20.74 C 60.99 27.16 60.98 33.58 61.01 40.00 C 61.51 40.00 62.49 40.00 62.98 40.00 C 63.02 33.62 63.02 27.24 62.98 20.87 C 62.49 20.84 61.49 20.77 60.99 20.74 M 38.00 24.01 C 38.00 24.51 38.00 25.50 38.00 25.99 C 42.67 26.02 47.34 26.01 52.01 25.99 C 52.01 25.49 52.00 24.50 52.00 24.01 C 47.33 23.99 42.66 23.99 38.00 24.01 M 38.00 32.00 C 38.00 32.50 38.00 33.50 38.00 34.00 C 42.00 34.00 46.00 34.00 50.00 34.00 C 50.00 33.50 50.00 32.50 50.00 32.00 C 46.00 32.00 42.00 32.00 38.00 32.00 M 71.36 47.89 C 68.68 47.98 66.01 48.01 63.34 48.05 C 62.91 50.28 63.23 52.88 61.69 54.73 C 57.72 59.65 51.97 63.09 49.13 68.92 C 54.10 66.55 57.40 61.98 61.33 58.31 C 63.74 56.21 65.01 53.26 65.77 50.22 C 68.54 50.10 71.32 50.01 74.09 49.91 C 74.02 47.31 73.86 44.71 73.56 42.12 C 72.49 43.90 71.81 45.87 71.36 47.89 Z" />
</g>
</svg>
