<?xml version="1.0" encoding="UTF-8" ?>
<!DOCTYPE svg PUBLIC "-//W3C//DTD SVG 1.1//EN" "http://www.w3.org/Graphics/SVG/1.1/DTD/svg11.dtd">
<svg width="117px" height="140px" viewBox="0 0 117 140" version="1.1" xmlns="http://www.w3.org/2000/svg">
<g id="#000000ff">
<path fill="#000000" opacity="1.00" d=" M 0.00 0.00 L 117.00 0.00 L 117.00 140.00 L 0.00 140.00 L 0.00 0.00 M 32.29 10.46 L 32.68 11.34 C 29.86 11.15 27.13 11.81 24.48 12.71 L 24.52 13.80 C 24.06 13.64 23.14 13.30 22.68 13.13 L 22.53 14.74 L 20.83 14.23 C 20.76 14.46 20.61 14.92 20.54 15.15 C 19.11 15.98 17.74 16.92 16.35 17.81 L 16.78 18.76 L 15.25 18.16 L 15.84 19.86 L 14.40 18.95 L 14.70 20.62 L 13.08 20.39 L 13.95 21.71 L 12.82 21.34 C 11.93 22.72 11.01 24.09 10.17 25.50 L 9.32 25.75 C 9.39 26.23 9.54 27.18 9.61 27.66 L 8.06 27.66 C 8.26 28.12 8.67 29.05 8.88 29.51 L 7.48 29.46 C 7.46 30.36 7.43 32.17 7.41 33.07 L 6.42 32.14 C 6.43 33.69 6.45 35.24 6.49 36.79 C 6.26 36.65 5.81 36.38 5.59 36.25 C 5.26 58.77 5.24 81.31 5.59 103.82 C 5.81 103.64 6.25 103.28 6.47 103.11 C 6.44 104.69 6.43 106.28 6.43 107.86 L 7.43 106.95 C 7.43 107.84 7.43 109.62 7.43 110.51 L 8.79 110.43 C 8.63 110.91 8.30 111.87 8.14 112.35 L 9.68 112.40 C 9.58 112.87 9.39 113.80 9.29 114.26 L 10.13 114.43 C 10.97 115.87 11.90 117.25 12.80 118.65 L 13.76 118.24 L 13.19 119.76 L 14.90 119.18 L 13.95 120.57 L 15.65 120.32 L 15.32 121.76 L 16.56 121.25 L 16.60 122.31 C 17.90 123.19 19.20 124.07 20.55 124.86 L 20.73 125.68 C 21.22 125.61 22.20 125.46 22.69 125.39 L 22.61 126.91 C 23.09 126.73 24.05 126.35 24.53 126.17 L 24.47 127.55 C 25.32 127.54 27.02 127.53 27.86 127.53 L 27.27 128.33 C 30.19 128.76 33.05 129.64 36.03 129.60 C 50.34 129.65 64.66 129.59 78.97 129.63 C 81.57 129.61 84.22 129.70 86.74 128.93 C 89.05 128.57 91.30 127.95 93.54 127.30 L 93.47 126.18 C 93.95 126.36 94.91 126.72 95.39 126.90 L 95.32 125.38 C 95.80 125.46 96.78 125.61 97.26 125.69 L 97.44 124.87 C 98.85 124.04 100.20 123.12 101.58 122.23 L 101.32 121.52 L 102.56 121.50 L 102.74 120.84 C 103.60 120.00 104.48 119.18 105.36 118.37 C 106.22 117.08 107.07 115.78 107.86 114.45 L 108.67 114.27 C 108.59 113.78 108.45 112.81 108.38 112.33 L 109.90 112.39 C 109.72 111.91 109.36 110.97 109.18 110.50 L 110.17 110.50 C 110.57 109.34 111.01 108.20 111.48 107.06 C 111.53 105.71 111.57 104.36 111.60 103.00 L 112.42 103.81 C 112.86 83.55 112.49 63.28 112.63 43.01 C 112.82 39.35 111.97 35.80 111.31 32.24 L 110.54 32.88 C 110.54 32.02 110.54 30.29 110.54 29.43 L 109.17 29.57 C 109.35 29.08 109.72 28.10 109.90 27.61 L 108.38 27.69 C 108.46 27.20 108.61 26.22 108.69 25.74 L 107.87 25.57 C 107.04 24.15 106.11 22.79 105.23 21.41 L 104.97 21.54 C 104.27 20.68 103.56 19.83 102.85 18.98 L 102.45 18.40 L 101.26 18.60 L 101.62 17.80 C 100.23 16.90 98.87 15.97 97.44 15.13 L 97.26 14.30 C 96.79 14.38 95.85 14.56 95.38 14.64 L 95.34 13.10 C 94.87 13.28 93.94 13.65 93.47 13.83 L 93.53 12.48 C 92.62 12.46 90.78 12.42 89.86 12.40 L 90.89 11.55 C 89.51 11.46 88.12 11.37 86.74 11.26 C 84.31 10.17 81.59 10.40 79.00 10.37 C 63.43 10.44 47.86 10.28 32.29 10.46 Z" />
<path fill="#000000" opacity="1.00" d=" M 31.96 12.26 C 34.86 11.22 37.99 11.71 41.00 11.61 C 55.94 11.58 70.88 11.72 85.81 11.54 C 85.70 11.70 85.48 12.03 85.37 12.19 C 87.85 12.43 90.26 13.04 92.67 13.68 L 92.60 14.64 C 93.07 14.54 94.01 14.36 94.47 14.27 L 94.69 15.60 C 95.15 15.52 96.07 15.36 96.52 15.28 L 96.61 16.68 C 97.14 16.59 98.19 16.40 98.71 16.31 L 98.19 17.97 L 99.54 17.05 L 99.42 18.17 C 100.81 19.10 102.18 20.08 103.61 20.97 C 103.54 21.18 103.40 21.59 103.33 21.80 C 103.73 22.25 104.53 23.14 104.93 23.58 L 105.91 23.40 L 105.11 24.84 L 106.70 24.28 C 106.60 24.81 106.40 25.86 106.31 26.38 L 107.72 26.47 C 107.64 26.93 107.48 27.85 107.41 28.31 L 108.73 28.52 C 108.64 28.99 108.46 29.92 108.36 30.38 L 109.34 30.34 C 109.85 32.49 110.45 34.62 110.78 36.80 L 111.46 36.07 C 111.28 57.42 111.45 78.77 111.37 100.11 C 111.27 102.69 110.38 105.15 110.26 107.73 L 109.12 107.47 C 109.30 107.96 109.66 108.94 109.84 109.43 L 108.39 109.63 C 108.47 110.10 108.64 111.03 108.72 111.50 L 107.43 111.63 C 107.50 112.11 107.63 113.06 107.69 113.53 L 106.30 113.63 C 106.40 114.14 106.61 115.17 106.71 115.69 L 104.99 115.24 L 106.02 116.61 L 105.03 116.45 C 103.48 118.59 101.59 120.47 99.46 122.02 L 99.61 123.05 L 98.27 121.88 L 98.71 123.65 C 98.18 123.57 97.12 123.42 96.59 123.35 L 96.53 124.73 C 96.07 124.64 95.16 124.48 94.71 124.40 L 94.53 125.67 C 94.04 125.61 93.07 125.50 92.59 125.44 L 92.39 126.92 C 91.91 126.68 90.94 126.19 90.46 125.95 L 90.82 127.39 C 88.98 127.46 87.14 127.55 85.31 127.64 C 85.44 127.84 85.71 128.26 85.84 128.46 C 67.58 128.32 49.31 128.34 31.05 128.45 L 31.85 127.77 C 29.64 127.44 27.49 126.85 25.33 126.33 L 25.39 125.36 C 24.93 125.45 24.00 125.64 23.54 125.74 L 23.29 124.42 C 22.83 124.49 21.92 124.64 21.46 124.71 L 21.41 123.34 C 20.87 123.42 19.80 123.57 19.27 123.65 L 19.80 121.84 L 18.42 123.07 L 18.55 122.03 C 16.42 120.47 14.54 118.60 12.99 116.47 L 12.07 116.55 L 12.89 115.10 L 11.26 115.72 C 11.37 115.21 11.60 114.18 11.71 113.66 L 10.80 113.52 C 10.46 112.89 9.78 111.61 9.45 110.98 C 9.49 110.64 9.58 109.97 9.62 109.63 L 8.66 109.66 C 8.03 107.21 7.41 104.75 7.12 102.22 L 6.50 102.95 C 6.72 81.00 6.66 59.04 6.52 37.08 L 7.14 37.70 C 7.42 35.20 8.03 32.77 8.66 30.34 L 9.65 30.38 C 9.56 29.91 9.37 28.98 9.28 28.52 L 10.60 28.31 C 10.52 27.85 10.36 26.93 10.27 26.47 L 11.65 26.41 C 11.58 25.88 11.43 24.82 11.35 24.28 L 12.94 24.83 L 12.15 23.56 L 13.06 23.31 C 14.69 21.34 16.46 19.47 18.55 17.98 L 18.44 17.01 L 19.87 17.95 L 19.27 16.29 C 19.80 16.39 20.85 16.60 21.38 16.70 L 21.47 15.29 C 21.94 15.37 22.87 15.51 23.33 15.59 L 23.48 14.32 C 23.95 14.38 24.91 14.51 25.39 14.57 L 25.62 13.09 C 26.13 13.33 27.15 13.83 27.66 14.07 L 27.06 12.69 C 28.70 12.58 30.33 12.44 31.96 12.26 M 72.51 40.36 C 71.06 44.55 72.04 49.08 74.07 52.89 C 75.66 55.69 75.28 59.02 74.03 61.86 C 74.57 62.29 75.65 63.16 76.19 63.59 C 77.14 61.50 78.22 59.34 78.03 56.97 C 78.07 52.36 74.06 48.71 74.72 44.00 C 74.73 41.62 76.56 39.45 75.99 37.10 C 73.69 36.21 73.12 38.74 72.51 40.36 M 55.22 49.17 C 55.65 52.31 57.69 54.92 58.32 57.99 C 59.04 60.79 55.93 63.95 59.18 65.94 C 61.96 61.97 61.75 56.73 59.39 52.63 C 57.06 48.69 57.89 43.96 59.73 40.02 C 59.25 39.65 58.29 38.91 57.81 38.54 C 55.66 41.60 54.55 45.44 55.22 49.17 M 40.03 58.01 C 41.69 60.90 41.59 64.35 40.22 67.33 C 40.89 67.98 41.56 68.64 42.22 69.31 C 43.15 67.32 44.27 65.29 44.18 63.02 C 44.45 58.00 39.86 54.04 40.95 48.92 C 40.89 46.58 43.89 43.79 41.08 42.15 C 36.79 46.18 37.38 53.19 40.03 58.01 M 35.12 73.08 C 35.08 73.78 35.01 75.17 34.97 75.87 C 50.95 76.12 66.94 76.02 82.91 75.92 C 82.92 75.21 82.93 73.80 82.93 73.09 C 67.00 72.93 51.06 72.95 35.12 73.08 Z" />
</g>
<g id="#f2f7f5ff">
<path fill="#f2f7f5" opacity="1.00" d=" M 32.29 10.46 C 47.86 10.28 63.43 10.44 79.00 10.37 C 81.59 10.40 84.31 10.17 86.74 11.26 C 88.12 11.37 89.51 11.46 90.89 11.55 L 89.86 12.40 C 90.78 12.42 92.62 12.46 93.53 12.48 L 93.47 13.83 C 93.94 13.65 94.87 13.28 95.34 13.10 L 95.38 14.64 C 95.85 14.56 96.79 14.38 97.26 14.30 L 97.44 15.13 C 98.87 15.97 100.23 16.90 101.62 17.80 L 101.26 18.60 L 102.45 18.40 L 102.85 18.98 C 103.56 19.83 104.27 20.68 104.97 21.54 L 105.23 21.41 C 106.11 22.79 107.04 24.15 107.87 25.57 L 108.69 25.74 C 108.61 26.22 108.46 27.20 108.38 27.69 L 109.90 27.61 C 109.72 28.10 109.35 29.08 109.17 29.57 L 110.54 29.43 C 110.54 30.29 110.54 32.02 110.54 32.88 L 111.31 32.24 C 111.97 35.80 112.82 39.35 112.63 43.01 C 112.49 63.28 112.86 83.55 112.42 103.81 L 111.60 103.00 C 111.57 104.36 111.53 105.71 111.48 107.06 C 111.01 108.20 110.57 109.34 110.17 110.50 L 109.18 110.50 C 109.36 110.97 109.72 111.91 109.90 112.39 L 108.38 112.33 C 108.45 112.81 108.59 113.78 108.67 114.27 L 107.86 114.45 C 107.07 115.78 106.22 117.08 105.36 118.37 C 104.48 119.18 103.60 120.00 102.74 120.84 L 102.56 121.50 L 101.32 121.52 L 101.58 122.23 C 100.20 123.12 98.85 124.04 97.44 124.87 L 97.26 125.69 C 96.78 125.61 95.80 125.46 95.32 125.38 L 95.39 126.90 C 94.91 126.72 93.95 126.36 93.47 126.18 L 93.54 127.30 C 91.30 127.95 89.05 128.57 86.74 128.93 C 84.22 129.70 81.57 129.61 78.97 129.63 C 64.66 129.59 50.34 129.65 36.03 129.60 C 33.05 129.64 30.19 128.76 27.27 128.33 L 27.86 127.53 C 27.02 127.53 25.32 127.54 24.47 127.55 L 24.53 126.17 C 24.05 126.35 23.09 126.73 22.61 126.91 L 22.69 125.39 C 22.20 125.46 21.22 125.61 20.73 125.68 L 20.55 124.86 C 19.20 124.07 17.90 123.19 16.60 122.31 L 16.56 121.25 L 15.32 121.76 L 15.65 120.32 L 13.95 120.57 L 14.90 119.18 L 13.19 119.76 L 13.76 118.24 L 12.80 118.65 C 11.90 117.25 10.97 115.87 10.13 114.43 L 9.29 114.26 C 9.39 113.80 9.58 112.87 9.68 112.40 L 8.14 112.35 C 8.30 111.87 8.63 110.91 8.79 110.43 L 7.43 110.51 C 7.43 109.62 7.43 107.84 7.43 106.95 L 6.43 107.86 C 6.43 106.28 6.44 104.69 6.47 103.11 C 6.25 103.28 5.81 103.64 5.59 103.82 C 5.24 81.31 5.26 58.77 5.59 36.25 C 5.81 36.38 6.26 36.65 6.49 36.79 C 6.45 35.24 6.43 33.69 6.42 32.14 L 7.41 33.07 C 7.43 32.17 7.46 30.36 7.48 29.46 L 8.88 29.51 C 8.67 29.05 8.26 28.12 8.06 27.66 L 9.61 27.66 C 9.54 27.18 9.39 26.23 9.32 25.75 L 10.17 25.50 C 11.01 24.09 11.93 22.72 12.82 21.34 L 13.95 21.71 L 13.08 20.39 L 14.70 20.62 L 14.40 18.95 L 15.84 19.86 L 15.25 18.16 L 16.78 18.76 L 16.35 17.81 C 17.74 16.92 19.11 15.98 20.54 15.15 C 20.61 14.92 20.76 14.46 20.83 14.23 L 22.53 14.74 L 22.68 13.13 C 23.14 13.30 24.06 13.64 24.52 13.80 L 24.48 12.71 C 27.13 11.81 29.86 11.15 32.68 11.34 L 32.29 10.46 M 31.96 12.26 C 30.33 12.44 28.70 12.58 27.06 12.69 L 27.66 14.07 C 27.15 13.83 26.13 13.33 25.62 13.09 L 25.39 14.57 C 24.91 14.51 23.95 14.38 23.48 14.32 L 23.33 15.59 C 22.87 15.51 21.94 15.37 21.47 15.29 L 21.38 16.70 C 20.85 16.60 19.80 16.39 19.27 16.29 L 19.87 17.95 L 18.44 17.01 L 18.55 17.98 C 16.46 19.47 14.69 21.34 13.06 23.31 L 12.15 23.56 L 12.94 24.83 L 11.35 24.28 C 11.43 24.82 11.58 25.88 11.65 26.41 L 10.27 26.47 C 10.36 26.93 10.52 27.85 10.60 28.31 L 9.28 28.52 C 9.37 28.98 9.56 29.91 9.65 30.38 L 8.66 30.34 C 8.03 32.77 7.42 35.20 7.14 37.70 L 6.52 37.08 C 6.66 59.04 6.72 81.00 6.50 102.95 L 7.12 102.22 C 7.41 104.75 8.03 107.21 8.66 109.66 L 9.62 109.63 C 9.58 109.97 9.49 110.64 9.45 110.98 C 9.78 111.61 10.46 112.89 10.80 113.52 L 11.71 113.66 C 11.60 114.18 11.37 115.21 11.26 115.72 L 12.89 115.10 L 12.07 116.55 L 12.99 116.47 C 14.54 118.60 16.42 120.47 18.55 122.03 L 18.42 123.07 L 19.80 121.84 L 19.27 123.65 C 19.80 123.57 20.87 123.42 21.41 123.34 L 21.46 124.71 C 21.92 124.64 22.83 124.49 23.29 124.42 L 23.54 125.74 C 24.00 125.64 24.93 125.45 25.39 125.36 L 25.33 126.33 C 27.49 126.85 29.64 127.44 31.85 127.77 L 31.05 128.45 C 49.31 128.34 67.58 128.32 85.84 128.46 C 85.71 128.26 85.44 127.84 85.31 127.64 C 87.14 127.55 88.98 127.46 90.82 127.39 L 90.46 125.95 C 90.94 126.19 91.91 126.68 92.39 126.92 L 92.59 125.44 C 93.07 125.50 94.04 125.61 94.53 125.67 L 94.71 124.40 C 95.16 124.48 96.07 124.64 96.53 124.73 L 96.59 123.35 C 97.12 123.42 98.18 123.57 98.71 123.65 L 98.27 121.88 L 99.61 123.05 L 99.46 122.02 C 101.59 120.47 103.48 118.59 105.03 116.45 L 106.02 116.61 L 104.99 115.24 L 106.71 115.69 C 106.61 115.17 106.40 114.14 106.30 113.63 L 107.69 113.53 C 107.63 113.06 107.50 112.11 107.43 111.63 L 108.72 111.50 C 108.64 111.03 108.47 110.10 108.39 109.63 L 109.84 109.43 C 109.66 108.94 109.30 107.96 109.12 107.47 L 110.26 107.73 C 110.38 105.15 111.27 102.69 111.37 100.11 C 111.45 78.77 111.28 57.42 111.46 36.07 L 110.78 36.80 C 110.45 34.62 109.85 32.49 109.34 30.34 L 108.36 30.38 C 108.46 29.92 108.64 28.99 108.73 28.52 L 107.41 28.31 C 107.48 27.85 107.64 26.93 107.72 26.47 L 106.31 26.38 C 106.40 25.86 106.60 24.81 106.70 24.28 L 105.11 24.84 L 105.91 23.40 L 104.93 23.58 C 104.53 23.14 103.73 22.25 103.33 21.80 C 103.40 21.59 103.54 21.18 103.61 20.97 C 102.18 20.08 100.81 19.10 99.42 18.17 L 99.54 17.05 L 98.19 17.97 L 98.71 16.31 C 98.19 16.40 97.14 16.59 96.61 16.68 L 96.52 15.28 C 96.07 15.36 95.15 15.52 94.69 15.60 L 94.47 14.27 C 94.01 14.36 93.07 14.54 92.60 14.64 L 92.67 13.68 C 90.26 13.04 87.85 12.43 85.37 12.19 C 85.48 12.03 85.70 11.70 85.81 11.54 C 70.88 11.72 55.94 11.58 41.00 11.61 C 37.99 11.71 34.86 11.22 31.96 12.26 Z" />
<path fill="#f2f7f5" opacity="1.00" d=" M 72.51 40.36 C 73.12 38.74 73.69 36.21 75.99 37.10 C 76.56 39.45 74.73 41.62 74.72 44.00 C 74.06 48.71 78.07 52.36 78.03 56.97 C 78.22 59.34 77.14 61.50 76.19 63.59 C 75.65 63.16 74.57 62.29 74.03 61.86 C 75.28 59.02 75.66 55.69 74.07 52.89 C 72.04 49.08 71.06 44.55 72.51 40.36 Z" />
<path fill="#f2f7f5" opacity="1.00" d=" M 55.22 49.17 C 54.55 45.44 55.66 41.60 57.81 38.54 C 58.29 38.91 59.25 39.65 59.73 40.02 C 57.89 43.96 57.06 48.69 59.39 52.63 C 61.75 56.73 61.96 61.97 59.18 65.94 C 55.93 63.95 59.04 60.79 58.32 57.99 C 57.69 54.92 55.65 52.31 55.22 49.17 Z" />
<path fill="#f2f7f5" opacity="1.00" d=" M 40.03 58.01 C 37.38 53.19 36.79 46.18 41.08 42.15 C 43.89 43.79 40.89 46.58 40.95 48.92 C 39.86 54.04 44.45 58.00 44.18 63.02 C 44.27 65.29 43.15 67.32 42.22 69.31 C 41.56 68.64 40.89 67.98 40.22 67.33 C 41.59 64.35 41.69 60.90 40.03 58.01 Z" />
<path fill="#f2f7f5" opacity="1.00" d=" M 35.12 73.08 C 51.06 72.95 67.00 72.93 82.93 73.09 C 82.93 73.80 82.92 75.21 82.91 75.92 C 66.94 76.02 50.95 76.12 34.97 75.87 C 35.01 75.17 35.08 73.78 35.12 73.08 Z" />
</g>
</svg>
