<?xml version="1.0" encoding="UTF-8" ?>
<!DOCTYPE svg PUBLIC "-//W3C//DTD SVG 1.1//EN" "http://www.w3.org/Graphics/SVG/1.1/DTD/svg11.dtd">
<svg width="28px" height="21px" viewBox="0 0 28 21" version="1.1" xmlns="http://www.w3.org/2000/svg">
<g id="#000000ff">
<path fill="#000000" opacity="1.00" d=" M 0.00 0.00 L 12.88 0.00 C 9.18 4.94 4.19 8.86 0.00 13.41 L 0.00 0.00 Z" />
<path fill="#000000" opacity="1.00" d=" M 13.43 0.00 L 28.00 0.00 L 28.00 21.00 L 19.06 21.00 C 19.06 18.51 19.06 16.01 19.06 13.52 C 21.72 13.51 24.38 13.52 27.05 13.51 C 22.54 8.98 18.12 4.35 13.43 0.00 Z" />
<path fill="#000000" opacity="1.00" d=" M 13.39 2.81 C 16.41 5.56 19.23 8.51 22.08 11.43 C 20.45 11.43 18.82 11.41 17.19 11.39 C 17.08 13.93 17.08 16.46 17.10 19.00 C 14.70 19.00 12.30 19.00 9.90 19.00 C 9.91 16.47 9.90 13.95 9.85 11.42 C 8.19 11.42 6.54 11.42 4.88 11.42 C 7.70 8.53 10.62 5.74 13.39 2.81 Z" />
<path fill="#000000" opacity="1.00" d=" M 0.00 13.71 C 2.63 13.41 5.29 13.51 7.93 13.51 C 7.94 16.01 7.94 18.50 7.94 21.00 L 0.00 21.00 L 0.00 13.71 Z" />
</g>
<g id="#f8fcf8ff">
<path fill="#f8fcf8" opacity="1.00" d=" M 12.88 0.00 L 13.43 0.00 C 18.12 4.35 22.54 8.98 27.05 13.51 C 24.38 13.52 21.72 13.51 19.06 13.52 C 19.06 16.01 19.06 18.51 19.06 21.00 L 7.94 21.00 C 7.94 18.50 7.94 16.01 7.93 13.51 C 5.29 13.51 2.63 13.41 0.00 13.71 L 0.00 13.41 C 4.19 8.86 9.18 4.94 12.88 0.00 M 13.39 2.81 C 10.62 5.74 7.70 8.53 4.88 11.42 C 6.54 11.42 8.19 11.42 9.85 11.42 C 9.90 13.95 9.91 16.47 9.90 19.00 C 12.30 19.00 14.70 19.00 17.10 19.00 C 17.08 16.46 17.08 13.93 17.19 11.39 C 18.82 11.41 20.45 11.43 22.08 11.43 C 19.23 8.51 16.41 5.56 13.39 2.81 Z" />
</g>
</svg>
