<?xml version="1.0" encoding="UTF-8" ?>
<!DOCTYPE svg PUBLIC "-//W3C//DTD SVG 1.1//EN" "http://www.w3.org/Graphics/SVG/1.1/DTD/svg11.dtd">
<svg width="100px" height="100px" viewBox="0 0 100 100" version="1.1" xmlns="http://www.w3.org/2000/svg">
<g id="#407cc8ff">
<path fill="#407cc8" opacity="1.00" d=" M 0.00 0.00 L 100.00 0.00 L 100.00 100.00 L 0.00 100.00 L 0.00 0.00 M 41.74 21.95 C 41.50 27.32 41.75 32.70 41.68 38.08 C 44.30 39.43 47.77 40.05 50.15 37.89 C 50.52 32.61 50.36 27.27 50.25 21.97 C 48.65 19.38 43.38 19.36 41.74 21.95 M 20.73 36.07 C 19.71 42.38 17.62 48.58 18.02 55.04 C 18.31 60.25 17.50 65.57 18.42 70.70 C 20.06 74.65 24.90 73.80 28.31 73.79 C 28.86 74.50 29.41 75.21 29.96 75.93 C 39.92 76.00 49.89 75.96 59.86 75.94 C 56.93 70.73 57.44 63.23 62.61 59.59 C 65.67 56.68 70.09 56.97 73.97 57.42 C 74.66 49.11 72.00 41.12 70.62 33.04 C 70.41 30.70 68.41 28.66 66.02 28.65 C 61.49 28.49 56.96 28.68 52.43 28.59 C 52.45 29.94 52.47 31.30 52.49 32.66 C 55.22 33.64 59.30 35.18 58.87 38.79 C 56.68 42.47 51.83 43.19 47.92 43.62 C 42.79 43.78 36.28 43.41 33.08 38.81 C 33.04 35.52 36.75 33.68 39.46 32.68 C 39.51 31.31 39.55 29.95 39.58 28.58 C 34.71 28.74 29.83 28.36 24.97 28.76 C 21.59 29.53 21.22 33.26 20.73 36.07 M 66.09 58.93 C 59.27 61.61 56.76 71.42 62.43 76.46 C 68.08 83.09 80.36 78.69 80.61 70.05 C 81.76 62.43 73.13 56.00 66.09 58.93 Z" />
<path fill="#407cc8" opacity="1.00" d=" M 25.84 32.86 C 27.55 32.86 29.27 32.87 30.98 32.87 C 29.46 35.15 27.80 38.01 29.27 40.75 C 32.01 45.99 38.50 47.54 43.94 47.90 C 50.25 48.16 57.71 47.33 61.94 42.07 C 64.25 39.30 63.14 35.49 61.36 32.78 C 62.95 32.82 64.54 32.86 66.13 32.89 C 67.38 38.65 68.42 44.45 69.69 50.20 C 53.89 50.16 38.10 50.16 22.31 50.20 C 23.54 44.43 24.62 38.63 25.84 32.86 Z" />
<path fill="#407cc8" opacity="1.00" d=" M 65.23 65.96 C 66.79 63.04 68.52 65.54 70.04 66.96 C 71.02 66.03 72.01 65.11 73.00 64.19 C 73.45 64.64 74.35 65.54 74.80 66.00 C 73.88 66.98 72.96 67.96 72.03 68.94 C 73.45 70.48 75.97 72.21 73.03 73.78 C 72.02 72.84 71.02 71.88 70.02 70.93 C 69.02 71.87 68.02 72.81 67.01 73.75 C 64.18 72.19 66.74 70.68 67.78 68.97 C 67.23 67.75 66.09 66.94 65.23 65.96 Z" />
</g>
<g id="#f8fcf8ff">
<path fill="#f8fcf8" opacity="1.00" d=" M 41.74 21.95 C 43.38 19.36 48.65 19.38 50.25 21.97 C 50.36 27.27 50.52 32.61 50.15 37.89 C 47.77 40.05 44.30 39.43 41.68 38.08 C 41.75 32.70 41.50 27.32 41.74 21.95 Z" />
<path fill="#f8fcf8" opacity="1.00" d=" M 20.73 36.07 C 21.22 33.26 21.59 29.53 24.97 28.76 C 29.83 28.36 34.71 28.74 39.58 28.58 C 39.55 29.95 39.51 31.31 39.46 32.68 C 36.75 33.68 33.04 35.52 33.08 38.81 C 36.28 43.41 42.79 43.78 47.92 43.62 C 51.83 43.19 56.68 42.47 58.87 38.79 C 59.30 35.18 55.22 33.64 52.49 32.66 C 52.47 31.30 52.45 29.94 52.43 28.59 C 56.96 28.68 61.49 28.49 66.02 28.65 C 68.41 28.66 70.41 30.70 70.62 33.04 C 72.00 41.12 74.66 49.11 73.97 57.42 C 70.09 56.97 65.67 56.68 62.61 59.59 C 57.44 63.23 56.93 70.73 59.86 75.94 C 49.89 75.96 39.92 76.00 29.96 75.93 C 29.41 75.21 28.86 74.50 28.31 73.79 C 24.90 73.80 20.06 74.65 18.42 70.70 C 17.50 65.57 18.31 60.25 18.02 55.04 C 17.62 48.58 19.71 42.38 20.73 36.07 M 25.84 32.86 C 24.62 38.63 23.54 44.43 22.31 50.20 C 38.10 50.16 53.89 50.16 69.69 50.20 C 68.42 44.45 67.38 38.65 66.13 32.89 C 64.54 32.86 62.95 32.82 61.36 32.78 C 63.14 35.49 64.25 39.30 61.94 42.07 C 57.71 47.33 50.25 48.16 43.94 47.90 C 38.50 47.54 32.01 45.99 29.27 40.75 C 27.80 38.01 29.46 35.15 30.98 32.87 C 29.27 32.87 27.55 32.86 25.84 32.86 Z" />
<path fill="#f8fcf8" opacity="1.00" d=" M 66.09 58.93 C 73.13 56.00 81.76 62.43 80.61 70.05 C 80.36 78.69 68.08 83.09 62.43 76.46 C 56.76 71.42 59.27 61.61 66.09 58.93 M 65.23 65.96 C 66.09 66.94 67.23 67.75 67.78 68.97 C 66.74 70.68 64.18 72.19 67.01 73.75 C 68.02 72.81 69.02 71.87 70.02 70.93 C 71.02 71.88 72.02 72.84 73.03 73.78 C 75.97 72.21 73.45 70.48 72.03 68.94 C 72.96 67.96 73.88 66.98 74.80 66.00 C 74.35 65.54 73.45 64.64 73.00 64.19 C 72.01 65.11 71.02 66.03 70.04 66.96 C 68.52 65.54 66.79 63.04 65.23 65.96 Z" />
</g>
</svg>
