<?xml version="1.0" encoding="UTF-8" ?>
<!DOCTYPE svg PUBLIC "-//W3C//DTD SVG 1.1//EN" "http://www.w3.org/Graphics/SVG/1.1/DTD/svg11.dtd">
<svg width="117px" height="140px" viewBox="0 0 117 140" version="1.1" xmlns="http://www.w3.org/2000/svg">
<g id="#000000ff">
<path fill="#000000" opacity="1.00" d=" M 0.00 0.00 L 117.00 0.00 L 117.00 140.00 L 0.00 140.00 L 0.00 0.00 M 27.17 11.68 L 27.99 12.42 C 27.12 12.43 25.37 12.45 24.49 12.46 L 24.51 13.82 C 24.05 13.64 23.13 13.27 22.67 13.08 L 22.59 14.65 C 22.13 14.55 21.21 14.36 20.75 14.26 L 20.55 15.13 C 19.16 15.95 17.81 16.86 16.45 17.73 L 16.46 18.07 C 15.52 18.67 14.70 19.41 14.02 20.29 L 13.16 20.47 L 13.76 21.72 L 12.79 21.38 C 11.91 22.75 11.00 24.09 10.16 25.49 L 9.27 25.78 C 9.37 26.23 9.56 27.14 9.66 27.59 L 8.12 27.65 C 8.28 28.12 8.61 29.04 8.78 29.50 L 7.70 29.52 C 6.65 33.27 5.27 37.03 5.38 40.99 C 5.36 60.33 5.36 79.66 5.38 98.99 C 5.27 102.96 6.65 106.72 7.70 110.48 L 8.78 110.49 C 8.61 110.96 8.28 111.88 8.12 112.35 L 9.66 112.42 C 9.56 112.87 9.37 113.77 9.27 114.22 L 10.16 114.51 C 10.97 115.88 11.86 117.19 12.72 118.53 L 13.07 118.57 C 13.70 119.46 14.43 120.27 15.25 121.00 L 15.52 121.82 L 16.78 121.23 L 16.35 122.20 C 17.75 123.10 19.13 124.04 20.56 124.89 L 20.76 125.74 C 21.21 125.64 22.13 125.44 22.59 125.34 L 22.66 126.92 C 23.12 126.74 24.04 126.36 24.50 126.18 L 24.51 127.58 C 25.36 127.57 27.06 127.55 27.91 127.54 L 27.20 128.32 C 30.76 128.99 34.31 129.83 37.95 129.65 C 54.22 129.49 70.49 129.89 86.75 129.42 L 86.16 128.56 C 87.71 128.57 89.27 128.58 90.82 128.59 L 90.06 127.56 C 90.92 127.56 92.63 127.57 93.49 127.57 L 93.50 126.18 C 93.96 126.37 94.88 126.74 95.34 126.92 L 95.40 125.35 C 95.85 125.45 96.76 125.63 97.21 125.72 L 97.53 124.84 C 98.92 124.00 100.27 123.08 101.64 122.21 L 101.24 121.25 L 102.50 121.80 L 102.76 120.99 C 103.60 120.28 104.33 119.46 104.93 118.55 L 105.28 118.55 C 106.13 117.21 107.02 115.88 107.83 114.52 L 108.73 114.22 C 108.63 113.76 108.44 112.86 108.34 112.40 L 109.88 112.36 C 109.72 111.89 109.39 110.96 109.23 110.49 L 110.30 110.48 C 111.35 106.73 112.72 102.98 112.61 99.03 C 112.64 79.68 112.64 60.32 112.61 40.97 C 112.72 37.02 111.35 33.27 110.30 29.52 L 109.22 29.50 C 109.39 29.04 109.72 28.12 109.89 27.66 L 108.34 27.59 C 108.44 27.13 108.63 26.23 108.73 25.78 L 107.84 25.49 C 107.01 24.11 106.12 22.78 105.26 21.42 L 104.94 21.55 C 104.07 20.09 102.87 18.91 101.40 18.05 L 101.60 17.73 C 100.24 16.88 98.90 15.98 97.52 15.17 L 97.21 14.28 C 96.76 14.37 95.85 14.55 95.40 14.64 L 95.32 13.06 C 94.87 13.26 93.96 13.65 93.51 13.84 L 93.51 12.45 C 92.66 12.45 90.96 12.45 90.11 12.45 L 90.75 11.67 C 87.51 11.16 84.31 10.23 80.99 10.36 C 65.99 10.39 50.99 10.34 35.99 10.39 C 32.99 10.35 30.12 11.26 27.17 11.68 Z" />
<path fill="#000000" opacity="1.00" d=" M 25.42 13.74 C 28.27 13.10 30.96 11.66 33.91 11.63 C 51.58 11.58 69.24 11.74 86.91 11.55 L 86.20 12.19 C 88.61 12.48 90.92 13.21 93.15 14.13 C 94.25 14.66 95.36 15.17 96.47 15.67 L 96.75 16.68 C 97.23 16.57 98.20 16.37 98.68 16.27 L 98.11 17.85 L 99.10 17.26 C 101.34 19.45 103.55 21.66 105.74 23.90 L 105.16 24.89 L 106.74 24.32 C 106.64 24.81 106.42 25.78 106.31 26.26 L 107.22 26.47 C 107.95 28.02 108.74 29.55 109.58 31.05 C 109.48 31.43 109.28 32.19 109.17 32.58 L 110.18 32.16 C 110.39 33.72 110.65 35.29 111.28 36.74 C 111.53 59.12 111.22 81.51 111.44 103.89 L 110.58 103.21 C 110.51 104.77 110.44 106.33 110.37 107.90 L 109.12 107.41 C 109.24 107.78 109.47 108.52 109.59 108.89 C 108.76 110.38 107.98 111.91 107.26 113.46 L 106.34 113.76 C 106.43 114.24 106.62 115.22 106.72 115.71 L 105.17 115.08 L 105.74 116.10 C 103.55 118.34 101.35 120.54 99.11 122.73 L 98.10 122.19 L 98.69 123.74 C 98.21 123.64 97.25 123.43 96.77 123.32 L 96.46 124.34 C 95.35 124.83 94.25 125.34 93.16 125.85 C 89.91 127.06 86.56 128.30 83.06 128.37 C 65.74 128.42 48.41 128.26 31.09 128.45 L 31.79 127.82 C 29.64 127.44 27.54 126.86 25.43 126.35 L 25.25 125.80 C 23.99 125.36 22.75 124.88 21.50 124.42 L 21.25 123.32 C 20.76 123.43 19.79 123.63 19.31 123.74 L 19.90 122.18 L 18.89 122.73 C 16.65 120.55 14.45 118.34 12.27 116.11 L 12.83 115.10 L 11.27 115.69 C 11.37 115.21 11.57 114.24 11.67 113.76 L 10.74 113.46 C 10.03 111.92 9.26 110.42 8.42 108.95 C 8.52 108.56 8.73 107.79 8.83 107.40 L 7.62 107.89 C 7.56 106.33 7.50 104.77 7.42 103.21 L 6.56 103.89 C 6.68 81.30 6.68 58.71 6.56 36.12 L 7.44 36.77 C 7.50 35.25 7.55 33.73 7.60 32.20 L 8.85 32.51 C 8.74 32.16 8.51 31.45 8.40 31.09 C 9.23 29.60 10.02 28.09 10.75 26.55 L 11.69 26.24 C 11.58 25.76 11.35 24.79 11.24 24.30 L 12.78 24.93 L 12.28 23.88 C 14.46 21.65 16.66 19.45 18.89 17.27 L 19.90 17.82 L 19.31 16.26 C 19.80 16.37 20.77 16.58 21.26 16.68 L 21.51 15.58 C 22.76 15.12 24.00 14.64 25.25 14.20 L 25.42 13.74 M 44.62 32.22 C 44.13 37.88 45.32 43.49 48.50 48.24 C 47.80 48.38 46.40 48.65 45.70 48.78 C 43.48 53.25 45.14 58.39 47.44 62.47 C 49.93 67.09 52.06 71.90 54.68 76.44 C 56.51 79.51 60.76 80.91 63.92 79.04 C 67.56 76.72 68.65 72.25 70.69 68.71 C 73.25 63.08 77.44 57.60 76.67 51.07 C 76.39 49.17 74.40 48.62 72.90 47.96 C 75.93 43.27 77.16 37.76 76.78 32.22 C 71.56 31.42 66.28 31.90 61.03 31.80 C 55.56 31.91 50.06 31.47 44.62 32.22 Z" />
<path fill="#000000" opacity="1.00" d=" M 47.58 35.14 C 56.34 35.18 65.10 35.05 73.86 35.22 C 73.92 41.16 70.39 46.14 67.86 51.25 C 69.86 51.24 71.86 51.25 73.86 51.28 C 73.67 53.92 73.49 56.66 72.20 59.04 C 69.58 64.18 67.11 69.41 64.36 74.49 C 63.30 76.79 59.98 77.82 58.10 75.90 C 56.04 73.47 54.95 70.39 53.43 67.61 C 51.01 62.37 47.12 57.41 47.57 51.31 C 49.51 51.30 51.46 51.30 53.40 51.29 C 50.90 46.14 47.11 41.17 47.58 35.14 Z" />
</g>
<g id="#ebf1f2ff">
<path fill="#ebf1f2" opacity="1.00" d=" M 27.17 11.68 C 30.12 11.26 32.99 10.35 35.99 10.39 C 50.99 10.34 65.99 10.39 80.99 10.36 C 84.31 10.23 87.51 11.16 90.75 11.67 L 90.11 12.45 C 90.96 12.45 92.66 12.45 93.51 12.45 L 93.51 13.84 C 93.96 13.65 94.87 13.26 95.32 13.06 L 95.40 14.64 C 95.85 14.55 96.76 14.37 97.21 14.28 L 97.52 15.17 C 98.90 15.98 100.24 16.88 101.60 17.73 L 101.40 18.05 C 102.87 18.91 104.07 20.09 104.94 21.55 L 105.26 21.42 C 106.12 22.78 107.01 24.11 107.84 25.49 L 108.73 25.78 C 108.63 26.23 108.44 27.13 108.34 27.59 L 109.89 27.66 C 109.72 28.12 109.39 29.04 109.22 29.50 L 110.30 29.52 C 111.35 33.27 112.72 37.02 112.61 40.97 C 112.64 60.32 112.64 79.68 112.61 99.03 C 112.72 102.98 111.35 106.73 110.30 110.48 L 109.23 110.49 C 109.39 110.96 109.72 111.89 109.88 112.36 L 108.34 112.40 C 108.44 112.86 108.63 113.76 108.73 114.22 L 107.83 114.52 C 107.02 115.88 106.13 117.21 105.28 118.55 L 104.93 118.55 C 104.33 119.46 103.60 120.28 102.76 120.99 L 102.50 121.80 L 101.24 121.25 L 101.64 122.21 C 100.27 123.08 98.92 124.00 97.53 124.84 L 97.21 125.72 C 96.76 125.63 95.85 125.45 95.40 125.35 L 95.34 126.92 C 94.88 126.74 93.96 126.37 93.50 126.18 L 93.49 127.57 C 92.63 127.57 90.92 127.56 90.06 127.56 L 90.82 128.59 C 89.27 128.58 87.71 128.57 86.16 128.56 L 86.75 129.42 C 70.49 129.89 54.22 129.49 37.95 129.65 C 34.31 129.83 30.76 128.99 27.20 128.32 L 27.91 127.54 C 27.06 127.55 25.36 127.57 24.51 127.58 L 24.50 126.18 C 24.04 126.36 23.12 126.74 22.66 126.92 L 22.59 125.34 C 22.13 125.44 21.21 125.64 20.76 125.74 L 20.56 124.89 C 19.13 124.04 17.75 123.10 16.35 122.20 L 16.78 121.23 L 15.52 121.82 L 15.25 121.00 C 14.43 120.27 13.70 119.46 13.07 118.57 L 12.72 118.53 C 11.86 117.19 10.97 115.88 10.16 114.51 L 9.27 114.22 C 9.37 113.77 9.56 112.87 9.66 112.42 L 8.12 112.35 C 8.28 111.88 8.61 110.96 8.78 110.49 L 7.70 110.48 C 6.65 106.72 5.27 102.96 5.38 98.99 C 5.36 79.66 5.36 60.33 5.38 40.99 C 5.27 37.03 6.65 33.27 7.70 29.52 L 8.78 29.50 C 8.61 29.04 8.28 28.12 8.12 27.65 L 9.66 27.59 C 9.56 27.14 9.37 26.23 9.27 25.78 L 10.16 25.49 C 11.00 24.09 11.91 22.75 12.79 21.38 L 13.76 21.72 L 13.16 20.47 L 14.02 20.29 C 14.70 19.41 15.52 18.67 16.46 18.07 L 16.45 17.73 C 17.81 16.86 19.16 15.95 20.55 15.13 L 20.75 14.26 C 21.21 14.36 22.13 14.55 22.59 14.65 L 22.67 13.08 C 23.13 13.27 24.05 13.64 24.51 13.82 L 24.49 12.46 C 25.37 12.45 27.12 12.43 27.99 12.42 L 27.17 11.68 M 25.42 13.74 L 25.25 14.20 C 24.00 14.64 22.76 15.12 21.51 15.58 L 21.26 16.68 C 20.77 16.58 19.80 16.37 19.31 16.26 L 19.90 17.82 L 18.89 17.27 C 16.66 19.45 14.46 21.65 12.28 23.88 L 12.78 24.93 L 11.24 24.30 C 11.35 24.79 11.58 25.76 11.69 26.24 L 10.75 26.55 C 10.02 28.09 9.23 29.60 8.40 31.09 C 8.51 31.45 8.74 32.16 8.85 32.51 L 7.60 32.20 C 7.55 33.73 7.50 35.25 7.44 36.77 L 6.56 36.12 C 6.68 58.71 6.68 81.30 6.56 103.89 L 7.42 103.21 C 7.50 104.77 7.56 106.33 7.62 107.89 L 8.83 107.40 C 8.73 107.79 8.52 108.56 8.42 108.95 C 9.26 110.42 10.03 111.92 10.74 113.46 L 11.67 113.76 C 11.57 114.24 11.37 115.21 11.27 115.69 L 12.83 115.10 L 12.27 116.11 C 14.45 118.34 16.65 120.55 18.89 122.73 L 19.90 122.18 L 19.31 123.74 C 19.79 123.63 20.76 123.43 21.25 123.32 L 21.50 124.42 C 22.75 124.88 23.99 125.36 25.25 125.80 L 25.43 126.35 C 27.54 126.86 29.64 127.44 31.79 127.82 L 31.09 128.45 C 48.41 128.26 65.74 128.42 83.06 128.37 C 86.56 128.30 89.91 127.06 93.16 125.85 C 94.25 125.34 95.35 124.83 96.46 124.34 L 96.77 123.32 C 97.25 123.43 98.21 123.64 98.69 123.74 L 98.10 122.19 L 99.11 122.73 C 101.35 120.54 103.55 118.34 105.74 116.10 L 105.17 115.08 L 106.72 115.71 C 106.62 115.22 106.43 114.24 106.34 113.76 L 107.26 113.46 C 107.98 111.91 108.76 110.38 109.59 108.89 C 109.47 108.52 109.24 107.78 109.12 107.41 L 110.37 107.90 C 110.44 106.33 110.51 104.77 110.58 103.21 L 111.44 103.89 C 111.22 81.51 111.53 59.12 111.28 36.74 C 110.65 35.29 110.39 33.72 110.18 32.16 L 109.17 32.58 C 109.28 32.19 109.48 31.43 109.58 31.05 C 108.74 29.55 107.95 28.02 107.22 26.47 L 106.31 26.26 C 106.42 25.78 106.64 24.81 106.74 24.32 L 105.16 24.89 L 105.74 23.90 C 103.55 21.66 101.34 19.45 99.10 17.26 L 98.11 17.85 L 98.68 16.27 C 98.20 16.37 97.23 16.57 96.75 16.68 L 96.47 15.67 C 95.36 15.17 94.25 14.66 93.15 14.13 C 90.92 13.21 88.61 12.48 86.20 12.19 L 86.91 11.55 C 69.24 11.74 51.58 11.58 33.91 11.63 C 30.96 11.66 28.27 13.10 25.42 13.74 Z" />
<path fill="#ebf1f2" opacity="1.00" d=" M 44.62 32.22 C 50.06 31.47 55.56 31.91 61.03 31.80 C 66.28 31.90 71.56 31.42 76.78 32.22 C 77.16 37.76 75.93 43.27 72.90 47.96 C 74.40 48.62 76.39 49.17 76.67 51.07 C 77.44 57.60 73.25 63.08 70.69 68.71 C 68.65 72.25 67.56 76.72 63.92 79.04 C 60.76 80.91 56.51 79.51 54.68 76.44 C 52.06 71.90 49.93 67.09 47.44 62.47 C 45.14 58.39 43.48 53.25 45.70 48.78 C 46.40 48.65 47.80 48.38 48.50 48.24 C 45.32 43.49 44.13 37.88 44.62 32.22 M 47.58 35.14 C 47.11 41.17 50.90 46.14 53.40 51.29 C 51.46 51.30 49.51 51.30 47.57 51.31 C 47.12 57.41 51.01 62.37 53.43 67.61 C 54.95 70.39 56.04 73.47 58.10 75.90 C 59.98 77.82 63.30 76.79 64.36 74.49 C 67.11 69.41 69.58 64.18 72.20 59.04 C 73.49 56.66 73.67 53.92 73.86 51.28 C 71.86 51.25 69.86 51.24 67.86 51.25 C 70.39 46.14 73.92 41.16 73.86 35.22 C 65.10 35.05 56.34 35.18 47.58 35.14 Z" />
</g>
</svg>
