<?xml version="1.0" encoding="UTF-8" ?>
<!DOCTYPE svg PUBLIC "-//W3C//DTD SVG 1.1//EN" "http://www.w3.org/Graphics/SVG/1.1/DTD/svg11.dtd">
<svg width="117px" height="140px" viewBox="0 0 117 140" version="1.1" xmlns="http://www.w3.org/2000/svg">
<g id="#000000ff">
<path fill="#000000" opacity="1.00" d=" M 0.00 0.00 L 117.00 0.00 L 117.00 140.00 L 0.00 140.00 L 0.00 0.00 M 33.27 10.37 C 21.54 11.60 11.01 19.97 7.06 31.07 C 4.64 37.09 5.24 43.69 5.18 50.03 C 5.23 66.70 5.08 83.38 5.25 100.05 C 5.80 115.91 20.06 129.73 35.93 129.79 C 51.64 129.81 67.35 129.90 83.05 129.74 C 98.92 129.20 112.78 114.91 112.78 99.03 C 112.85 80.02 112.81 61.01 112.81 42.00 C 112.99 33.38 109.21 24.90 103.03 18.95 C 96.91 13.11 88.43 9.84 79.96 10.17 C 64.40 10.31 48.82 9.93 33.27 10.37 Z" />
<path fill="#000000" opacity="1.00" d=" M 30.44 12.58 C 33.24 11.98 36.10 11.74 38.96 11.79 C 53.64 11.91 68.33 11.71 83.00 11.89 C 97.63 12.65 110.33 25.31 111.14 39.93 C 111.25 59.61 111.15 79.30 111.18 98.99 C 110.96 114.35 97.44 127.90 82.08 128.15 C 66.38 128.18 50.68 128.24 34.99 128.12 C 20.34 127.36 7.62 114.65 6.87 99.99 C 6.74 80.31 6.85 60.62 6.82 40.94 C 7.16 27.59 17.34 15.28 30.44 12.58 M 39.26 41.18 C 36.53 43.08 33.92 45.17 31.37 47.31 C 29.26 48.89 28.96 52.31 30.83 54.18 C 33.26 56.43 35.96 58.35 38.58 60.37 C 40.66 62.30 43.55 61.11 46.00 60.88 C 46.00 58.25 46.00 55.63 46.00 53.00 C 48.00 53.00 50.00 53.00 52.00 53.00 C 52.00 52.25 52.00 50.75 52.00 50.00 C 50.00 50.00 48.00 50.00 46.00 50.00 C 46.00 47.04 46.00 44.08 46.00 41.12 C 43.79 41.00 41.30 39.81 39.26 41.18 M 70.99 41.08 C 71.00 44.05 71.00 47.02 71.00 50.00 C 68.66 50.00 66.33 50.00 64.00 50.00 C 64.00 50.75 64.00 52.25 64.00 53.00 C 66.33 53.00 68.66 53.00 71.00 53.00 C 71.00 55.64 71.00 58.28 70.99 60.92 C 72.87 61.11 75.01 62.16 76.72 60.84 C 79.45 58.92 82.07 56.84 84.63 54.70 C 87.00 52.98 87.00 49.08 84.66 47.34 C 82.11 45.18 79.48 43.11 76.75 41.18 C 75.03 39.84 72.88 40.87 70.99 41.08 M 53.00 50.00 C 53.00 50.75 53.00 52.25 53.00 53.00 C 53.75 53.00 55.25 53.00 56.00 53.00 C 56.00 52.25 56.00 50.75 56.00 50.00 C 55.25 50.00 53.75 50.00 53.00 50.00 M 57.00 50.00 C 57.00 50.75 57.00 52.25 57.00 53.00 C 59.00 53.00 61.00 53.00 63.00 53.00 C 63.00 52.25 63.00 50.75 63.00 50.00 C 61.00 50.00 59.00 50.00 57.00 50.00 Z" />
<path fill="#000000" opacity="1.00" d=" M 33.01 51.00 C 35.99 48.66 38.99 46.35 41.98 44.02 C 42.01 48.67 42.01 53.32 41.98 57.97 C 38.98 55.65 35.99 53.33 33.01 51.00 Z" />
<path fill="#000000" opacity="1.00" d=" M 75.01 44.80 C 77.68 46.86 80.34 48.92 82.99 51.00 C 80.34 53.08 77.68 55.14 75.01 57.20 C 74.99 53.07 74.99 48.93 75.01 44.80 Z" />
</g>
<g id="#11eb51ff">
<path fill="#11eb51" opacity="1.00" d=" M 33.27 10.37 C 48.82 9.93 64.40 10.31 79.96 10.17 C 88.43 9.84 96.91 13.11 103.03 18.95 C 109.21 24.90 112.99 33.38 112.81 42.00 C 112.81 61.01 112.85 80.02 112.78 99.03 C 112.78 114.91 98.92 129.20 83.05 129.74 C 67.35 129.90 51.64 129.81 35.93 129.79 C 20.06 129.73 5.80 115.91 5.25 100.05 C 5.08 83.38 5.23 66.70 5.18 50.03 C 5.24 43.69 4.64 37.09 7.06 31.07 C 11.01 19.97 21.54 11.60 33.27 10.37 M 30.44 12.58 C 17.34 15.28 7.16 27.59 6.82 40.94 C 6.85 60.62 6.74 80.31 6.87 99.99 C 7.62 114.65 20.34 127.36 34.99 128.12 C 50.68 128.24 66.38 128.18 82.08 128.15 C 97.44 127.90 110.96 114.35 111.18 98.99 C 111.15 79.30 111.25 59.61 111.14 39.93 C 110.33 25.31 97.63 12.65 83.00 11.89 C 68.33 11.71 53.64 11.91 38.96 11.79 C 36.10 11.74 33.24 11.98 30.44 12.58 Z" />
<path fill="#11eb51" opacity="1.00" d=" M 39.26 41.18 C 41.30 39.81 43.79 41.00 46.00 41.12 C 46.00 44.08 46.00 47.04 46.00 50.00 C 48.00 50.00 50.00 50.00 52.00 50.00 C 52.00 50.75 52.00 52.25 52.00 53.00 C 50.00 53.00 48.00 53.00 46.00 53.00 C 46.00 55.63 46.00 58.25 46.00 60.88 C 43.55 61.11 40.66 62.30 38.58 60.37 C 35.96 58.35 33.26 56.43 30.83 54.18 C 28.96 52.31 29.26 48.89 31.37 47.31 C 33.92 45.17 36.53 43.08 39.26 41.18 M 33.01 51.00 C 35.99 53.33 38.98 55.65 41.98 57.97 C 42.01 53.32 42.01 48.67 41.98 44.02 C 38.99 46.35 35.99 48.66 33.01 51.00 Z" />
<path fill="#11eb51" opacity="1.00" d=" M 70.99 41.08 C 72.88 40.87 75.03 39.84 76.75 41.18 C 79.48 43.11 82.11 45.18 84.66 47.34 C 87.00 49.08 87.00 52.98 84.63 54.70 C 82.07 56.84 79.45 58.92 76.72 60.84 C 75.01 62.16 72.87 61.11 70.99 60.92 C 71.00 58.28 71.00 55.64 71.00 53.00 C 68.66 53.00 66.33 53.00 64.00 53.00 C 64.00 52.25 64.00 50.75 64.00 50.00 C 66.33 50.00 68.66 50.00 71.00 50.00 C 71.00 47.02 71.00 44.05 70.99 41.08 M 75.01 44.80 C 74.99 48.93 74.99 53.07 75.01 57.20 C 77.68 55.14 80.34 53.08 82.99 51.00 C 80.34 48.92 77.68 46.86 75.01 44.80 Z" />
<path fill="#11eb51" opacity="1.00" d=" M 53.00 50.00 C 53.75 50.00 55.25 50.00 56.00 50.00 C 56.00 50.75 56.00 52.25 56.00 53.00 C 55.25 53.00 53.75 53.00 53.00 53.00 C 53.00 52.25 53.00 50.75 53.00 50.00 Z" />
<path fill="#11eb51" opacity="1.00" d=" M 57.00 50.00 C 59.00 50.00 61.00 50.00 63.00 50.00 C 63.00 50.75 63.00 52.25 63.00 53.00 C 61.00 53.00 59.00 53.00 57.00 53.00 C 57.00 52.25 57.00 50.75 57.00 50.00 Z" />
</g>
</svg>
