<?xml version="1.0" encoding="UTF-8" ?>
<!DOCTYPE svg PUBLIC "-//W3C//DTD SVG 1.1//EN" "http://www.w3.org/Graphics/SVG/1.1/DTD/svg11.dtd">
<svg width="117px" height="140px" viewBox="0 0 117 140" version="1.1" xmlns="http://www.w3.org/2000/svg">
<g id="#000000ff">
<path fill="#000000" opacity="1.00" d=" M 0.00 0.00 L 117.00 0.00 L 117.00 140.00 L 0.00 140.00 L 0.00 0.00 M 29.51 10.79 C 15.49 13.49 4.28 26.63 4.21 40.96 C 4.16 60.32 4.16 79.69 4.21 99.05 C 4.24 114.92 18.09 129.21 33.95 129.75 C 49.64 129.90 65.34 129.82 81.04 129.78 C 97.28 129.78 111.79 115.29 111.79 99.05 C 111.85 79.69 111.84 60.33 111.79 40.97 C 111.78 25.08 97.92 10.81 82.05 10.26 C 69.37 10.05 56.69 10.25 44.00 10.18 C 39.17 10.23 34.29 9.88 29.51 10.79 Z" />
<path fill="#000000" opacity="1.00" d=" M 29.38 12.59 C 34.16 11.54 39.08 11.83 43.94 11.82 C 55.62 11.82 67.30 11.82 78.97 11.81 C 84.56 11.78 90.22 13.02 95.05 15.91 C 104.27 21.06 110.20 31.42 110.18 41.97 C 110.20 59.97 110.14 77.97 110.21 95.96 C 110.34 101.65 109.31 107.47 106.44 112.44 C 101.38 122.01 90.82 128.17 80.04 128.18 C 65.71 128.20 51.39 128.15 37.06 128.20 C 31.21 128.26 25.30 126.84 20.31 123.71 C 11.43 118.45 5.79 108.30 5.82 97.99 C 5.84 78.98 5.78 59.97 5.85 40.96 C 6.13 27.61 16.31 15.34 29.38 12.59 M 46.00 37.99 C 44.71 40.12 43.39 42.21 42.01 44.27 C 42.95 45.54 43.89 46.81 44.83 48.08 C 44.12 48.12 42.70 48.20 42.00 48.23 C 42.00 49.48 42.00 50.72 42.00 51.97 C 42.60 51.99 43.81 52.03 44.42 52.05 C 44.40 53.33 44.39 54.61 44.37 55.90 C 46.46 56.01 48.54 56.13 50.62 56.29 C 49.09 56.63 47.56 56.95 46.03 57.26 C 46.14 58.49 46.24 59.72 46.35 60.96 C 49.43 60.83 52.50 60.67 55.58 60.78 C 51.78 61.71 47.86 61.94 43.96 62.09 C 44.06 63.60 44.15 65.11 44.24 66.63 C 45.42 66.62 46.60 66.62 47.78 66.63 C 45.92 67.22 44.05 67.81 42.19 68.40 C 43.55 69.81 44.91 71.22 46.25 72.65 C 48.61 71.51 50.97 70.36 53.33 69.20 C 53.60 69.91 54.16 71.31 54.43 72.01 C 56.81 71.96 59.25 72.15 61.57 71.55 C 62.52 70.75 62.64 69.39 63.18 68.34 C 66.23 69.75 69.25 71.22 72.24 72.74 C 73.39 71.22 74.54 69.70 75.71 68.20 C 74.81 67.85 72.99 67.14 72.08 66.79 C 73.32 66.21 74.56 65.64 75.81 65.08 C 74.05 62.54 72.25 60.03 70.42 57.55 C 69.23 58.16 68.04 58.78 66.86 59.40 C 65.97 60.58 64.73 61.32 63.25 61.56 C 65.09 59.91 67.04 58.39 69.04 56.95 C 68.39 56.44 67.10 55.43 66.46 54.93 C 68.77 55.92 71.00 57.11 73.33 58.08 C 74.52 55.90 75.52 53.63 76.71 51.45 C 75.03 51.05 73.35 50.61 71.68 50.16 C 72.63 48.19 73.48 46.03 75.56 44.98 C 75.58 43.45 75.61 41.91 75.62 40.37 C 72.79 40.41 69.95 40.40 67.12 40.45 C 67.33 39.95 67.77 38.94 67.99 38.44 C 66.05 38.32 64.12 38.20 62.19 38.08 C 61.61 39.51 61.03 40.94 60.47 42.38 C 60.44 41.79 60.39 40.60 60.36 40.00 C 57.46 40.00 54.57 40.00 51.68 40.00 C 51.68 39.55 51.69 38.66 51.70 38.21 C 49.80 38.15 47.90 38.07 46.00 37.99 Z" />
<path fill="#000000" opacity="1.00" d=" M 48.14 44.87 C 51.74 43.55 55.66 43.87 59.39 44.35 C 55.78 45.65 51.87 45.27 48.14 44.87 Z" />
<path fill="#000000" opacity="1.00" d=" M 49.29 47.31 C 49.86 47.81 49.86 47.81 49.29 47.31 Z" />
<path fill="#000000" opacity="1.00" d=" M 53.28 47.22 C 53.73 47.82 53.73 47.82 53.28 47.22 Z" />
<path fill="#000000" opacity="1.00" d=" M 58.22 47.30 C 58.83 47.74 58.83 47.74 58.22 47.30 Z" />
<path fill="#000000" opacity="1.00" d=" M 59.99 47.96 C 60.99 48.98 62.03 49.95 63.12 50.87 C 61.56 51.76 60.00 52.64 58.44 53.52 C 59.31 54.49 60.17 55.46 61.03 56.43 C 59.53 56.75 58.03 57.04 56.53 57.31 C 57.01 56.86 57.99 55.96 58.48 55.51 C 58.45 54.85 58.39 53.52 58.37 52.86 C 59.92 51.66 59.87 49.73 59.99 47.96 Z" />
<path fill="#000000" opacity="1.00" d=" M 49.23 52.29 C 49.77 52.84 49.77 52.84 49.23 52.29 Z" />
<path fill="#000000" opacity="1.00" d=" M 52.44 52.20 C 55.37 50.55 52.73 55.52 52.44 52.20 Z" />
<path fill="#000000" opacity="1.00" d=" M 54.33 66.07 C 57.31 64.49 54.54 69.40 54.33 66.07 Z" />
</g>
<g id="#10eb51ff">
<path fill="#10eb51" opacity="1.00" d=" M 29.51 10.79 C 34.29 9.88 39.17 10.23 44.00 10.18 C 56.69 10.25 69.37 10.05 82.05 10.26 C 97.92 10.81 111.78 25.08 111.79 40.97 C 111.84 60.33 111.85 79.69 111.79 99.05 C 111.79 115.29 97.28 129.78 81.04 129.78 C 65.34 129.82 49.64 129.90 33.95 129.75 C 18.09 129.21 4.24 114.92 4.21 99.05 C 4.16 79.69 4.16 60.32 4.21 40.96 C 4.28 26.63 15.49 13.49 29.51 10.79 M 29.38 12.59 C 16.31 15.34 6.13 27.61 5.85 40.96 C 5.78 59.97 5.84 78.98 5.82 97.99 C 5.79 108.30 11.43 118.45 20.31 123.71 C 25.30 126.84 31.21 128.26 37.06 128.20 C 51.39 128.15 65.71 128.20 80.04 128.18 C 90.82 128.17 101.38 122.01 106.44 112.44 C 109.31 107.47 110.34 101.65 110.21 95.96 C 110.14 77.97 110.20 59.97 110.18 41.97 C 110.20 31.42 104.27 21.06 95.05 15.91 C 90.22 13.02 84.56 11.78 78.97 11.81 C 67.30 11.82 55.62 11.82 43.94 11.82 C 39.08 11.83 34.16 11.54 29.38 12.59 Z" />
<path fill="#10eb51" opacity="1.00" d=" M 46.00 37.99 C 47.90 38.07 49.80 38.15 51.70 38.21 C 51.69 38.66 51.68 39.55 51.68 40.00 C 54.57 40.00 57.46 40.00 60.36 40.00 C 60.39 40.60 60.44 41.79 60.47 42.38 C 61.03 40.94 61.61 39.51 62.19 38.08 C 64.12 38.20 66.05 38.32 67.99 38.44 C 67.77 38.94 67.33 39.95 67.12 40.45 C 69.95 40.40 72.79 40.41 75.62 40.37 C 75.61 41.91 75.58 43.45 75.56 44.98 C 73.48 46.03 72.63 48.19 71.68 50.16 C 73.35 50.61 75.03 51.05 76.71 51.45 C 75.52 53.63 74.52 55.90 73.33 58.08 C 71.00 57.11 68.77 55.92 66.46 54.93 C 67.10 55.43 68.39 56.44 69.04 56.95 C 67.04 58.39 65.09 59.91 63.25 61.56 C 64.73 61.32 65.97 60.58 66.86 59.40 C 68.04 58.78 69.23 58.16 70.42 57.55 C 72.25 60.03 74.05 62.54 75.81 65.08 C 74.56 65.64 73.32 66.21 72.08 66.79 C 72.99 67.14 74.81 67.85 75.71 68.20 C 74.54 69.70 73.39 71.22 72.24 72.74 C 69.25 71.22 66.23 69.75 63.18 68.34 C 62.64 69.39 62.52 70.75 61.57 71.55 C 59.25 72.15 56.81 71.96 54.43 72.01 C 54.16 71.31 53.60 69.91 53.33 69.20 C 50.97 70.36 48.61 71.51 46.25 72.65 C 44.91 71.22 43.55 69.81 42.19 68.40 C 44.05 67.81 45.92 67.22 47.78 66.63 C 46.60 66.62 45.42 66.62 44.24 66.63 C 44.15 65.11 44.06 63.60 43.96 62.09 C 47.86 61.94 51.78 61.71 55.58 60.78 C 52.50 60.67 49.43 60.83 46.35 60.96 C 46.24 59.72 46.14 58.49 46.03 57.26 C 47.56 56.95 49.09 56.63 50.62 56.29 C 48.54 56.13 46.46 56.01 44.37 55.90 C 44.39 54.61 44.40 53.33 44.42 52.05 C 43.81 52.03 42.60 51.99 42.00 51.97 C 42.00 50.72 42.00 49.48 42.00 48.23 C 42.70 48.20 44.12 48.12 44.83 48.08 C 43.89 46.81 42.95 45.54 42.01 44.27 C 43.39 42.21 44.71 40.12 46.00 37.99 M 48.14 44.87 C 51.87 45.27 55.78 45.65 59.39 44.35 C 55.66 43.87 51.74 43.55 48.14 44.87 M 49.29 47.31 C 49.86 47.81 49.86 47.81 49.29 47.31 M 53.28 47.22 C 53.73 47.82 53.73 47.82 53.28 47.22 M 58.22 47.30 C 58.83 47.74 58.83 47.74 58.22 47.30 M 59.99 47.96 C 59.87 49.73 59.92 51.66 58.37 52.86 C 58.39 53.52 58.45 54.85 58.48 55.51 C 57.99 55.96 57.01 56.86 56.53 57.31 C 58.03 57.04 59.53 56.75 61.03 56.43 C 60.17 55.46 59.31 54.49 58.44 53.52 C 60.00 52.64 61.56 51.76 63.12 50.87 C 62.03 49.95 60.99 48.98 59.99 47.96 M 49.23 52.29 C 49.77 52.84 49.77 52.84 49.23 52.29 M 52.44 52.20 C 52.73 55.52 55.37 50.55 52.44 52.20 M 54.33 66.07 C 54.54 69.40 57.31 64.49 54.33 66.07 Z" />
</g>
</svg>
