<?xml version="1.0" encoding="UTF-8" ?>
<!DOCTYPE svg PUBLIC "-//W3C//DTD SVG 1.1//EN" "http://www.w3.org/Graphics/SVG/1.1/DTD/svg11.dtd">
<svg width="117px" height="140px" viewBox="0 0 117 140" version="1.1" xmlns="http://www.w3.org/2000/svg">
<g id="#000000ff">
<path fill="#000000" opacity="1.00" d=" M 0.00 0.00 L 117.00 0.00 L 117.00 140.00 L 0.00 140.00 L 0.00 0.00 M 27.28 11.60 L 27.79 12.57 C 26.95 12.55 25.26 12.49 24.42 12.47 L 24.56 13.83 C 24.09 13.66 23.14 13.31 22.67 13.13 L 22.62 14.35 C 20.08 14.44 18.58 16.79 16.42 17.76 L 16.82 18.70 L 15.35 18.16 L 15.75 19.76 L 14.37 19.08 L 14.67 20.64 L 13.14 20.44 L 13.77 21.78 L 12.81 21.47 C 11.96 22.69 11.10 23.91 10.27 25.15 C 10.05 25.77 9.61 27.01 9.39 27.64 L 8.16 27.66 C 8.31 28.13 8.62 29.06 8.78 29.53 L 7.65 29.51 C 7.19 31.41 6.56 33.26 6.23 35.19 C 5.29 37.33 5.46 39.72 5.39 42.01 C 5.39 60.67 5.38 79.33 5.40 97.98 C 5.49 100.29 5.24 102.70 6.18 104.87 C 6.57 106.77 7.21 108.61 7.66 110.50 L 8.80 110.46 C 8.64 110.93 8.31 111.87 8.14 112.34 L 9.39 112.36 C 9.60 112.97 10.03 114.20 10.25 114.82 C 11.12 116.05 11.95 117.31 12.79 118.57 L 13.71 118.15 L 13.13 119.62 L 14.76 119.27 L 14.09 120.68 L 15.69 120.31 L 15.40 121.90 L 16.83 121.23 L 16.44 122.26 C 18.61 123.12 20.04 125.76 22.60 125.55 L 22.64 126.83 C 23.12 126.68 24.07 126.37 24.55 126.22 L 24.51 127.34 C 26.54 127.90 28.56 128.56 30.68 128.64 L 30.58 129.30 C 39.37 129.89 48.18 129.49 56.98 129.61 C 66.69 129.45 76.43 129.95 86.12 129.31 C 88.54 128.53 91.04 128.03 93.49 127.36 L 93.41 126.25 C 93.90 126.39 94.87 126.66 95.35 126.80 L 95.42 125.51 C 97.87 125.76 99.38 123.27 101.39 122.25 L 101.41 121.33 L 102.76 121.68 L 102.29 120.69 C 103.78 120.62 104.45 119.30 105.20 118.27 C 106.49 116.42 108.57 114.81 108.63 112.37 L 109.85 112.35 C 109.69 111.88 109.37 110.94 109.21 110.46 L 110.34 110.49 C 110.79 108.61 111.41 106.78 111.83 104.90 C 113.06 101.40 112.42 97.59 112.61 93.96 C 112.45 74.51 112.93 55.06 112.35 35.62 C 112.16 35.62 111.79 35.62 111.60 35.63 C 111.58 33.51 110.89 31.52 110.34 29.50 L 109.17 29.52 C 109.35 29.06 109.70 28.14 109.87 27.68 L 108.55 27.62 C 108.71 25.10 106.21 23.55 105.21 21.46 L 104.18 21.81 L 104.95 20.38 L 103.30 20.73 L 103.75 19.15 L 102.18 19.71 L 102.68 18.05 L 101.20 18.83 L 101.58 17.79 C 99.42 16.83 97.94 14.31 95.38 14.41 L 95.35 13.13 C 94.87 13.31 93.91 13.66 93.43 13.83 L 93.59 12.47 C 92.75 12.50 91.07 12.55 90.23 12.57 L 90.69 11.44 C 89.84 11.45 88.15 11.49 87.30 11.51 L 87.42 10.69 C 70.62 10.03 53.79 10.57 36.98 10.38 C 33.68 10.17 30.53 11.31 27.28 11.60 Z" />
<path fill="#000000" opacity="1.00" d=" M 25.73 13.55 C 27.78 13.25 29.80 12.59 31.64 11.61 C 49.88 11.61 68.11 11.60 86.35 11.62 C 88.20 12.54 90.18 13.30 92.25 13.52 C 94.33 14.62 96.37 16.37 98.72 16.52 L 98.31 17.34 C 101.55 18.46 103.07 21.84 105.73 23.76 L 105.22 24.77 L 106.45 24.27 C 106.69 24.89 107.17 26.12 107.40 26.73 C 107.98 28.20 108.53 29.74 109.67 30.89 C 109.57 31.31 109.38 32.15 109.29 32.57 L 110.40 32.23 C 110.37 33.77 110.52 35.33 111.32 36.69 C 111.50 57.80 111.31 78.91 111.42 100.01 C 111.29 101.63 111.87 103.59 110.47 104.83 C 110.49 105.55 110.52 107.01 110.54 107.73 L 109.28 107.46 C 109.37 107.87 109.56 108.69 109.65 109.10 C 108.58 110.31 107.96 111.80 107.39 113.29 C 107.16 113.90 106.68 115.12 106.44 115.73 L 105.21 115.22 L 105.76 116.27 C 103.48 118.20 101.47 120.48 99.34 122.57 L 98.35 122.37 L 98.55 123.45 C 96.22 123.97 94.01 125.24 92.13 126.67 C 91.70 126.56 90.85 126.34 90.42 126.23 L 90.74 127.56 C 89.32 127.45 87.90 127.44 86.47 127.53 L 86.50 128.45 C 68.23 128.27 49.96 128.52 31.70 128.32 C 30.32 127.52 28.75 127.36 27.18 127.35 L 27.58 126.16 C 27.16 126.29 26.34 126.55 25.92 126.68 C 20.89 123.78 15.09 120.76 12.35 115.32 L 11.58 115.73 C 11.34 115.11 10.85 113.87 10.60 113.25 C 10.03 111.77 9.43 110.25 8.31 109.08 C 8.43 108.68 8.68 107.87 8.80 107.46 L 7.52 107.79 C 7.52 107.05 7.53 105.57 7.53 104.83 C 7.30 104.40 6.86 103.55 6.64 103.12 C 6.62 80.98 6.53 58.83 6.68 36.69 C 7.50 35.33 7.62 33.76 7.61 32.21 L 8.49 32.64 C 8.02 30.20 10.43 28.66 10.50 26.36 L 11.59 26.43 C 11.52 25.90 11.39 24.83 11.32 24.30 L 12.77 24.77 L 12.26 23.74 C 14.49 21.75 16.60 19.55 18.66 17.37 L 19.69 17.63 L 19.44 16.48 C 20.01 16.26 21.16 15.81 21.73 15.59 C 23.09 14.98 24.62 14.61 25.73 13.55 M 57.64 30.54 C 55.15 33.13 52.39 35.44 49.56 37.64 C 48.62 38.53 46.43 39.45 47.74 41.07 C 48.28 41.33 49.37 41.86 49.91 42.12 C 51.97 37.89 56.61 35.98 59.47 32.39 C 63.02 35.41 67.03 38.05 69.73 41.94 C 70.62 41.73 71.49 41.48 72.35 41.17 C 73.14 38.29 69.05 38.52 68.59 36.13 C 68.38 33.82 68.52 31.50 68.53 29.18 C 67.12 29.12 65.72 29.09 64.31 29.12 C 64.34 30.11 64.39 32.09 64.42 33.08 C 63.01 31.97 61.90 30.58 60.65 29.30 C 59.44 28.39 58.37 29.72 57.64 30.54 M 50.47 41.80 C 50.52 44.32 50.50 46.84 50.51 49.36 C 52.97 49.40 55.44 49.40 57.90 49.27 C 57.84 47.35 57.93 45.43 58.23 43.53 C 59.35 43.57 60.48 43.61 61.60 43.65 C 61.61 45.56 61.62 47.47 61.63 49.38 C 63.88 49.38 66.13 49.38 68.38 49.40 C 68.55 46.86 68.53 44.32 68.52 41.77 C 65.70 39.14 62.71 36.70 59.94 34.01 C 56.56 36.32 53.69 39.28 50.47 41.80 M 33.84 52.98 C 37.43 56.00 40.94 59.14 44.67 61.99 C 43.82 59.34 42.98 56.70 42.14 54.05 C 46.38 53.01 50.71 54.44 54.99 53.53 C 62.28 54.34 69.62 53.10 76.87 54.04 C 75.98 56.69 75.17 59.36 74.37 62.04 C 78.02 59.08 81.60 56.03 85.17 52.98 C 81.58 49.96 78.01 46.93 74.38 43.97 C 75.16 46.65 75.98 49.32 76.89 51.97 C 69.65 52.82 62.32 51.75 55.03 52.44 C 50.74 51.55 46.38 53.04 42.12 51.94 C 43.00 49.30 43.82 46.64 44.63 43.98 C 40.98 46.91 37.43 49.96 33.84 52.98 M 50.92 57.19 C 50.91 57.72 50.90 58.79 50.89 59.32 C 54.92 59.31 58.95 59.32 62.99 59.34 C 60.20 62.42 57.39 65.48 54.60 68.56 C 52.81 70.61 50.12 72.44 50.37 75.50 C 56.36 75.47 62.35 75.51 68.34 75.48 C 68.32 74.88 68.28 73.69 68.26 73.09 C 63.93 73.06 59.59 73.25 55.26 72.85 C 59.21 68.89 62.88 64.66 66.67 60.55 C 67.57 59.67 67.81 58.41 68.16 57.26 C 62.41 57.13 56.66 57.22 50.92 57.19 Z" />
</g>
<g id="#f6faf7ff">
<path fill="#f6faf7" opacity="1.00" d=" M 27.28 11.60 C 30.53 11.31 33.68 10.17 36.98 10.38 C 53.79 10.57 70.62 10.03 87.42 10.69 L 87.30 11.51 C 88.15 11.49 89.84 11.45 90.69 11.44 L 90.23 12.57 C 91.07 12.55 92.75 12.50 93.59 12.47 L 93.43 13.83 C 93.91 13.66 94.87 13.31 95.35 13.13 L 95.38 14.41 C 97.94 14.31 99.42 16.83 101.58 17.79 L 101.20 18.83 L 102.68 18.05 L 102.18 19.71 L 103.75 19.15 L 103.30 20.73 L 104.95 20.38 L 104.18 21.81 L 105.21 21.46 C 106.21 23.55 108.71 25.10 108.55 27.62 L 109.87 27.68 C 109.70 28.14 109.35 29.06 109.17 29.52 L 110.34 29.50 C 110.89 31.52 111.58 33.51 111.60 35.63 C 111.79 35.62 112.16 35.62 112.35 35.62 C 112.93 55.06 112.45 74.51 112.61 93.96 C 112.42 97.59 113.06 101.40 111.83 104.90 C 111.41 106.78 110.79 108.61 110.34 110.49 L 109.21 110.46 C 109.37 110.94 109.69 111.88 109.85 112.35 L 108.63 112.37 C 108.57 114.81 106.49 116.42 105.20 118.27 C 104.45 119.30 103.78 120.62 102.29 120.69 L 102.76 121.68 L 101.41 121.33 L 101.39 122.25 C 99.38 123.27 97.87 125.76 95.42 125.51 L 95.35 126.80 C 94.87 126.66 93.90 126.39 93.41 126.25 L 93.49 127.36 C 91.04 128.03 88.54 128.53 86.12 129.31 C 76.43 129.95 66.69 129.45 56.98 129.61 C 48.18 129.49 39.37 129.89 30.58 129.30 L 30.68 128.64 C 28.56 128.56 26.54 127.90 24.51 127.34 L 24.55 126.22 C 24.07 126.37 23.12 126.68 22.64 126.83 L 22.60 125.55 C 20.04 125.76 18.61 123.12 16.44 122.26 L 16.83 121.23 L 15.40 121.90 L 15.69 120.31 L 14.09 120.68 L 14.76 119.27 L 13.13 119.62 L 13.71 118.15 L 12.79 118.57 C 11.95 117.31 11.12 116.05 10.25 114.82 C 10.03 114.20 9.60 112.97 9.39 112.36 L 8.14 112.34 C 8.31 111.87 8.64 110.93 8.80 110.46 L 7.66 110.50 C 7.21 108.61 6.57 106.77 6.18 104.87 C 5.24 102.70 5.49 100.29 5.40 97.98 C 5.38 79.33 5.39 60.67 5.39 42.01 C 5.46 39.72 5.29 37.33 6.23 35.19 C 6.56 33.26 7.19 31.41 7.65 29.51 L 8.78 29.53 C 8.62 29.06 8.31 28.13 8.16 27.66 L 9.39 27.64 C 9.61 27.01 10.05 25.77 10.27 25.15 C 11.10 23.91 11.96 22.69 12.81 21.47 L 13.77 21.78 L 13.14 20.44 L 14.67 20.64 L 14.37 19.08 L 15.75 19.76 L 15.35 18.16 L 16.82 18.70 L 16.42 17.76 C 18.58 16.79 20.08 14.44 22.62 14.35 L 22.67 13.13 C 23.14 13.31 24.09 13.66 24.56 13.83 L 24.42 12.47 C 25.26 12.49 26.95 12.55 27.79 12.57 L 27.28 11.60 M 25.73 13.55 C 24.62 14.61 23.09 14.98 21.73 15.59 C 21.16 15.81 20.01 16.26 19.44 16.48 L 19.69 17.63 L 18.66 17.37 C 16.60 19.55 14.49 21.75 12.26 23.74 L 12.77 24.77 L 11.32 24.30 C 11.39 24.83 11.52 25.90 11.59 26.43 L 10.50 26.36 C 10.43 28.66 8.02 30.20 8.49 32.64 L 7.61 32.21 C 7.62 33.76 7.50 35.33 6.68 36.69 C 6.53 58.83 6.62 80.98 6.64 103.12 C 6.86 103.55 7.30 104.40 7.53 104.83 C 7.53 105.57 7.52 107.05 7.52 107.79 L 8.80 107.46 C 8.68 107.87 8.43 108.68 8.31 109.08 C 9.43 110.25 10.03 111.77 10.60 113.25 C 10.85 113.87 11.34 115.11 11.58 115.73 L 12.35 115.32 C 15.09 120.76 20.89 123.78 25.92 126.68 C 26.34 126.55 27.16 126.29 27.58 126.16 L 27.18 127.35 C 28.75 127.36 30.32 127.52 31.70 128.32 C 49.96 128.52 68.23 128.27 86.50 128.45 L 86.47 127.53 C 87.90 127.44 89.32 127.45 90.74 127.56 L 90.42 126.23 C 90.85 126.34 91.70 126.56 92.13 126.67 C 94.01 125.24 96.22 123.97 98.55 123.45 L 98.35 122.37 L 99.34 122.57 C 101.47 120.48 103.48 118.20 105.76 116.27 L 105.21 115.22 L 106.44 115.73 C 106.68 115.12 107.16 113.90 107.39 113.29 C 107.96 111.80 108.58 110.31 109.65 109.10 C 109.56 108.69 109.37 107.87 109.28 107.46 L 110.54 107.73 C 110.52 107.01 110.49 105.55 110.47 104.83 C 111.87 103.59 111.29 101.63 111.42 100.01 C 111.31 78.91 111.50 57.80 111.32 36.69 C 110.52 35.33 110.37 33.77 110.40 32.23 L 109.29 32.57 C 109.38 32.15 109.57 31.31 109.67 30.89 C 108.53 29.74 107.98 28.20 107.40 26.73 C 107.17 26.12 106.69 24.89 106.45 24.27 L 105.22 24.77 L 105.73 23.76 C 103.07 21.84 101.55 18.46 98.31 17.34 L 98.72 16.52 C 96.37 16.37 94.33 14.62 92.25 13.52 C 90.18 13.30 88.20 12.54 86.35 11.62 C 68.11 11.60 49.88 11.61 31.64 11.61 C 29.80 12.59 27.78 13.25 25.73 13.55 Z" />
<path fill="#f6faf7" opacity="1.00" d=" M 57.64 30.54 C 58.37 29.72 59.44 28.39 60.65 29.30 C 61.90 30.58 63.01 31.97 64.42 33.08 C 64.39 32.09 64.34 30.11 64.31 29.12 C 65.72 29.09 67.12 29.12 68.53 29.18 C 68.52 31.50 68.38 33.82 68.59 36.13 C 69.05 38.52 73.14 38.29 72.35 41.17 C 71.49 41.48 70.62 41.73 69.73 41.94 C 67.03 38.05 63.02 35.41 59.47 32.39 C 56.61 35.98 51.97 37.89 49.91 42.12 C 49.37 41.86 48.28 41.33 47.74 41.07 C 46.43 39.45 48.62 38.53 49.56 37.64 C 52.39 35.44 55.15 33.13 57.64 30.54 Z" />
<path fill="#f6faf7" opacity="1.00" d=" M 50.47 41.80 C 53.69 39.28 56.56 36.32 59.94 34.01 C 62.71 36.70 65.70 39.14 68.52 41.77 C 68.53 44.32 68.55 46.86 68.38 49.40 C 66.13 49.38 63.88 49.38 61.63 49.38 C 61.62 47.47 61.61 45.56 61.60 43.65 C 60.48 43.61 59.35 43.57 58.23 43.53 C 57.93 45.43 57.84 47.35 57.90 49.27 C 55.44 49.40 52.97 49.40 50.51 49.36 C 50.50 46.84 50.52 44.32 50.47 41.80 Z" />
<path fill="#f6faf7" opacity="1.00" d=" M 33.84 52.98 C 37.43 49.96 40.98 46.91 44.63 43.98 C 43.82 46.64 43.00 49.30 42.12 51.94 C 46.38 53.04 50.74 51.55 55.03 52.44 C 62.32 51.75 69.65 52.82 76.89 51.97 C 75.98 49.32 75.16 46.65 74.38 43.97 C 78.01 46.93 81.58 49.96 85.17 52.98 C 81.60 56.03 78.02 59.08 74.37 62.04 C 75.17 59.36 75.98 56.69 76.87 54.04 C 69.62 53.10 62.28 54.34 54.99 53.53 C 50.71 54.44 46.38 53.01 42.14 54.05 C 42.98 56.70 43.82 59.34 44.67 61.99 C 40.94 59.14 37.43 56.00 33.84 52.98 Z" />
<path fill="#f6faf7" opacity="1.00" d=" M 50.92 57.19 C 56.66 57.22 62.41 57.13 68.16 57.26 C 67.81 58.41 67.57 59.67 66.67 60.55 C 62.88 64.66 59.21 68.89 55.26 72.85 C 59.59 73.25 63.93 73.06 68.26 73.09 C 68.28 73.69 68.32 74.88 68.34 75.48 C 62.35 75.51 56.36 75.47 50.37 75.50 C 50.12 72.44 52.81 70.61 54.60 68.56 C 57.39 65.48 60.20 62.42 62.99 59.34 C 58.95 59.32 54.92 59.31 50.89 59.32 C 50.90 58.79 50.91 57.72 50.92 57.19 Z" />
</g>
</svg>
