<?xml version="1.0" encoding="UTF-8" ?>
<!DOCTYPE svg PUBLIC "-//W3C//DTD SVG 1.1//EN" "http://www.w3.org/Graphics/SVG/1.1/DTD/svg11.dtd">
<svg width="117px" height="140px" viewBox="0 0 117 140" version="1.1" xmlns="http://www.w3.org/2000/svg">
<g id="#000000ff">
<path fill="#000000" opacity="1.00" d=" M 0.00 0.00 L 117.00 0.00 L 117.00 140.00 L 0.00 140.00 L 0.00 0.00 M 31.87 10.72 C 30.36 11.31 28.75 11.47 27.16 11.64 L 27.99 12.46 C 27.10 12.46 25.33 12.47 24.45 12.48 L 24.57 13.81 C 24.09 13.64 23.13 13.31 22.65 13.14 L 22.61 14.65 C 22.14 14.57 21.20 14.40 20.72 14.32 L 20.52 15.23 C 19.08 15.98 17.74 16.90 16.39 17.79 L 16.80 18.75 L 15.30 18.12 L 15.86 19.83 L 14.44 18.98 L 14.66 20.65 L 13.17 20.37 L 13.82 21.66 L 12.74 21.54 C 11.86 22.83 10.97 24.13 10.24 25.51 L 9.34 25.69 C 9.41 26.18 9.54 27.16 9.61 27.64 L 8.09 27.66 C 8.28 28.13 8.67 29.05 8.86 29.52 L 7.70 29.46 C 6.64 33.57 5.16 37.65 5.38 41.96 C 5.58 62.81 5.01 83.68 5.69 104.51 L 6.49 104.22 C 6.48 105.11 6.46 106.89 6.45 107.79 L 7.50 107.10 C 7.48 107.96 7.45 109.67 7.44 110.53 L 8.85 110.46 C 8.66 110.93 8.29 111.88 8.10 112.35 L 9.64 112.36 C 9.56 112.84 9.41 113.81 9.34 114.29 L 10.21 114.46 C 10.99 115.89 11.91 117.25 12.80 118.62 L 13.91 118.29 L 12.99 119.69 L 14.76 119.06 L 14.03 120.63 L 15.62 120.28 L 15.44 121.93 L 16.74 121.11 L 16.41 122.21 C 17.76 123.09 19.09 124.02 20.52 124.78 C 20.60 125.03 20.76 125.53 20.84 125.78 L 22.52 125.23 L 22.67 126.85 C 23.14 126.68 24.09 126.35 24.57 126.19 L 24.46 127.54 C 25.31 127.53 27.01 127.51 27.86 127.51 L 27.26 128.37 C 30.51 128.75 33.67 129.79 36.97 129.62 C 53.05 129.47 69.15 129.89 85.23 129.39 C 87.96 128.47 90.87 128.24 93.60 127.29 L 93.45 126.13 C 93.93 126.32 94.88 126.72 95.36 126.91 L 95.34 125.38 C 95.83 125.45 96.81 125.60 97.30 125.67 L 97.46 124.80 C 98.90 124.02 100.24 123.08 101.61 122.20 L 101.25 121.07 L 102.58 121.96 L 102.33 120.34 L 103.99 120.59 L 103.17 119.19 L 104.85 119.69 L 104.23 118.20 L 105.16 118.60 C 106.01 117.30 106.91 116.05 107.88 114.84 C 108.09 114.22 108.50 112.98 108.70 112.35 L 109.88 112.35 C 109.70 111.88 109.35 110.93 109.18 110.46 L 110.56 110.52 C 110.54 109.68 110.51 107.98 110.49 107.13 L 111.35 107.74 C 111.78 104.50 112.77 101.32 112.61 98.01 C 112.59 79.01 112.64 60.00 112.59 41.00 C 112.69 38.00 111.64 35.16 111.33 32.20 L 110.49 32.89 C 110.51 32.03 110.53 30.31 110.55 29.45 L 109.16 29.55 C 109.34 29.07 109.71 28.12 109.89 27.65 L 108.72 27.66 C 108.50 27.02 108.06 25.75 107.84 25.12 C 106.89 23.91 105.98 22.67 105.14 21.39 L 104.06 21.80 L 104.99 20.41 L 103.37 20.72 L 103.62 19.09 L 102.25 19.77 L 102.66 18.15 L 101.19 18.77 L 101.62 17.81 C 100.25 16.91 98.90 15.98 97.46 15.20 L 97.32 14.34 C 96.83 14.41 95.84 14.54 95.34 14.61 L 95.36 13.10 C 94.88 13.29 93.93 13.66 93.46 13.85 L 93.57 12.48 C 92.70 12.48 90.97 12.48 90.11 12.49 L 90.76 11.46 C 89.30 11.45 87.85 11.44 86.40 11.44 L 86.59 10.58 C 73.75 10.18 60.89 10.49 48.04 10.39 C 42.65 10.49 37.24 10.11 31.87 10.72 Z" />
<path fill="#000000" opacity="1.00" d=" M 25.44 13.60 C 27.47 13.12 29.48 12.56 31.55 12.26 L 31.40 11.53 C 49.52 11.77 67.64 11.46 85.76 11.69 C 88.56 12.67 91.50 13.27 94.17 14.61 C 94.77 14.88 95.99 15.42 96.59 15.69 L 96.67 16.65 C 97.18 16.56 98.21 16.36 98.72 16.26 L 98.15 17.72 L 99.18 17.31 C 101.40 19.74 104.22 21.67 105.81 24.63 L 106.73 24.33 C 106.63 24.83 106.44 25.84 106.35 26.35 L 107.31 26.36 C 108.97 29.67 110.04 33.21 111.35 36.67 C 111.43 58.89 111.39 81.11 111.36 103.33 C 110.49 105.21 109.89 107.21 109.35 109.21 C 108.57 110.63 107.89 112.10 107.34 113.62 L 106.34 113.67 C 106.44 114.18 106.64 115.20 106.74 115.71 L 105.23 115.15 L 105.75 116.17 C 103.12 118.21 101.45 121.57 98.22 122.71 L 98.71 123.76 C 98.19 123.65 97.17 123.44 96.66 123.33 L 96.68 124.32 C 95.02 124.84 93.46 125.62 92.04 126.61 C 91.64 126.51 90.83 126.31 90.43 126.21 L 90.81 127.42 C 89.06 127.48 87.31 127.59 85.55 127.68 L 85.64 128.49 C 67.65 128.23 49.66 128.52 31.67 128.34 C 28.23 127.02 24.68 125.99 21.37 124.32 L 21.36 123.35 C 20.84 123.45 19.81 123.64 19.29 123.73 L 19.73 122.77 C 16.57 121.10 14.05 118.31 12.18 115.30 L 11.26 115.71 C 11.36 115.19 11.55 114.17 11.65 113.66 L 10.67 113.62 C 10.10 112.10 9.43 110.63 8.67 109.20 C 8.02 106.47 6.47 103.92 6.60 101.04 C 6.66 79.62 6.52 58.20 6.67 36.78 C 7.39 35.33 7.63 33.74 7.72 32.15 L 8.86 32.56 C 8.72 32.17 8.46 31.40 8.32 31.01 C 9.40 29.62 10.12 28.03 10.67 26.37 L 11.65 26.36 C 11.55 25.85 11.36 24.82 11.26 24.30 L 12.17 24.67 C 14.10 21.70 16.57 18.86 19.75 17.22 L 19.27 16.28 C 19.79 16.37 20.83 16.54 21.35 16.63 L 21.44 15.56 C 22.73 15.11 24.03 14.64 25.33 14.21 L 25.44 13.60 M 42.65 40.56 C 39.78 43.06 36.10 44.86 33.98 48.08 C 32.03 53.35 38.44 55.66 41.48 58.56 C 43.42 60.71 46.30 60.76 48.89 59.97 C 49.62 57.37 50.13 54.71 50.09 52.00 C 52.06 52.00 54.03 52.00 56.00 52.00 C 56.00 51.25 56.00 49.75 56.00 49.00 C 54.02 49.00 52.03 49.00 50.05 49.00 C 50.18 45.96 49.77 42.95 48.91 40.04 C 46.83 39.68 44.40 38.87 42.65 40.56 M 67.98 41.23 C 68.01 47.08 68.01 52.92 67.98 58.77 C 70.06 59.60 72.41 61.55 74.64 59.91 C 77.39 57.93 80.10 55.88 82.67 53.67 C 85.00 51.93 84.99 48.07 82.67 46.33 C 80.08 44.11 77.36 42.04 74.59 40.05 C 72.39 38.48 70.04 40.39 67.98 41.23 M 57.00 49.00 C 57.00 49.75 57.00 51.25 57.00 52.00 C 57.75 52.00 59.25 52.00 60.00 52.00 C 60.00 51.25 60.00 49.75 60.00 49.00 C 59.25 49.00 57.75 49.00 57.00 49.00 M 61.00 49.00 C 61.00 49.75 61.00 51.25 61.00 52.00 C 63.00 52.00 65.00 52.00 67.00 52.00 C 67.00 51.25 67.00 49.75 67.00 49.00 C 65.00 49.00 63.00 49.00 61.00 49.00 Z" />
<path fill="#000000" opacity="1.00" d=" M 37.01 50.00 C 40.01 47.67 43.01 45.35 46.00 43.01 C 46.00 47.66 46.00 52.31 46.00 56.97 C 43.00 54.65 40.00 52.33 37.01 50.00 Z" />
<path fill="#000000" opacity="1.00" d=" M 72.00 43.01 C 74.98 45.35 77.99 47.67 80.99 50.00 C 78.00 52.33 75.00 54.65 72.00 56.97 C 72.00 52.31 72.00 47.66 72.00 43.01 Z" />
</g>
<g id="#f6faf7ff">
<path fill="#f6faf7" opacity="1.00" d=" M 31.87 10.72 C 37.24 10.11 42.65 10.49 48.04 10.39 C 60.89 10.49 73.75 10.18 86.59 10.58 L 86.40 11.44 C 87.85 11.44 89.30 11.45 90.76 11.46 L 90.11 12.49 C 90.97 12.48 92.70 12.48 93.57 12.48 L 93.46 13.85 C 93.93 13.66 94.88 13.29 95.36 13.10 L 95.34 14.61 C 95.84 14.54 96.83 14.41 97.32 14.34 L 97.46 15.20 C 98.90 15.98 100.25 16.91 101.62 17.81 L 101.19 18.77 L 102.66 18.15 L 102.25 19.77 L 103.62 19.09 L 103.37 20.72 L 104.99 20.41 L 104.06 21.80 L 105.14 21.39 C 105.98 22.67 106.89 23.91 107.84 25.12 C 108.06 25.75 108.50 27.02 108.72 27.66 L 109.89 27.65 C 109.71 28.12 109.34 29.07 109.16 29.55 L 110.55 29.45 C 110.53 30.31 110.51 32.03 110.49 32.89 L 111.33 32.20 C 111.64 35.16 112.69 38.00 112.59 41.00 C 112.64 60.00 112.59 79.01 112.61 98.01 C 112.77 101.32 111.78 104.50 111.35 107.74 L 110.49 107.13 C 110.51 107.98 110.54 109.68 110.56 110.52 L 109.18 110.46 C 109.35 110.93 109.70 111.88 109.88 112.35 L 108.70 112.35 C 108.50 112.98 108.09 114.22 107.88 114.84 C 106.91 116.05 106.01 117.30 105.16 118.60 L 104.23 118.20 L 104.85 119.69 L 103.17 119.19 L 103.99 120.59 L 102.33 120.34 L 102.58 121.96 L 101.25 121.07 L 101.61 122.20 C 100.24 123.08 98.90 124.02 97.46 124.80 L 97.30 125.67 C 96.81 125.60 95.83 125.45 95.34 125.38 L 95.36 126.91 C 94.88 126.72 93.93 126.32 93.45 126.13 L 93.60 127.29 C 90.87 128.24 87.96 128.47 85.23 129.39 C 69.15 129.89 53.05 129.47 36.97 129.62 C 33.67 129.79 30.51 128.75 27.26 128.37 L 27.86 127.51 C 27.01 127.51 25.31 127.53 24.46 127.54 L 24.57 126.19 C 24.09 126.35 23.14 126.68 22.67 126.85 L 22.52 125.23 L 20.84 125.78 C 20.76 125.53 20.60 125.03 20.52 124.78 C 19.09 124.02 17.76 123.09 16.41 122.21 L 16.74 121.11 L 15.44 121.93 L 15.62 120.28 L 14.03 120.63 L 14.76 119.06 L 12.99 119.69 L 13.91 118.29 L 12.80 118.62 C 11.91 117.25 10.99 115.89 10.21 114.46 L 9.34 114.29 C 9.41 113.81 9.56 112.84 9.64 112.36 L 8.10 112.35 C 8.29 111.88 8.66 110.93 8.85 110.46 L 7.44 110.53 C 7.45 109.67 7.48 107.96 7.50 107.10 L 6.45 107.79 C 6.46 106.89 6.48 105.11 6.49 104.22 L 5.69 104.51 C 5.01 83.68 5.58 62.81 5.38 41.96 C 5.16 37.65 6.64 33.57 7.70 29.46 L 8.86 29.52 C 8.67 29.05 8.28 28.13 8.09 27.66 L 9.61 27.64 C 9.54 27.16 9.41 26.18 9.34 25.69 L 10.24 25.51 C 10.97 24.13 11.86 22.83 12.74 21.54 L 13.82 21.66 L 13.17 20.37 L 14.66 20.65 L 14.44 18.98 L 15.86 19.83 L 15.30 18.12 L 16.80 18.75 L 16.39 17.79 C 17.74 16.90 19.08 15.98 20.52 15.23 L 20.72 14.32 C 21.20 14.40 22.14 14.57 22.61 14.65 L 22.65 13.14 C 23.13 13.31 24.09 13.64 24.57 13.81 L 24.45 12.48 C 25.33 12.47 27.10 12.46 27.99 12.46 L 27.16 11.64 C 28.75 11.47 30.36 11.31 31.87 10.72 M 25.44 13.60 L 25.33 14.21 C 24.03 14.64 22.73 15.11 21.44 15.56 L 21.35 16.63 C 20.83 16.54 19.79 16.37 19.27 16.28 L 19.75 17.22 C 16.57 18.86 14.10 21.70 12.17 24.67 L 11.26 24.30 C 11.36 24.82 11.55 25.85 11.65 26.36 L 10.67 26.37 C 10.12 28.03 9.40 29.62 8.32 31.01 C 8.46 31.40 8.72 32.17 8.86 32.56 L 7.72 32.15 C 7.63 33.74 7.39 35.33 6.67 36.78 C 6.52 58.20 6.66 79.62 6.60 101.04 C 6.47 103.92 8.02 106.47 8.67 109.20 C 9.43 110.63 10.10 112.10 10.67 113.62 L 11.65 113.66 C 11.55 114.17 11.36 115.19 11.26 115.71 L 12.18 115.30 C 14.05 118.31 16.57 121.10 19.73 122.77 L 19.29 123.73 C 19.81 123.64 20.84 123.45 21.36 123.35 L 21.37 124.32 C 24.68 125.99 28.23 127.02 31.67 128.34 C 49.66 128.52 67.65 128.23 85.64 128.49 L 85.55 127.68 C 87.31 127.59 89.06 127.48 90.81 127.42 L 90.43 126.21 C 90.83 126.31 91.64 126.51 92.04 126.61 C 93.46 125.62 95.02 124.84 96.68 124.32 L 96.66 123.33 C 97.17 123.44 98.19 123.65 98.71 123.76 L 98.22 122.71 C 101.45 121.57 103.12 118.21 105.75 116.17 L 105.23 115.15 L 106.74 115.71 C 106.64 115.20 106.44 114.18 106.34 113.67 L 107.34 113.62 C 107.89 112.10 108.57 110.63 109.35 109.21 C 109.89 107.21 110.49 105.21 111.36 103.33 C 111.39 81.11 111.43 58.89 111.35 36.67 C 110.04 33.21 108.97 29.67 107.31 26.36 L 106.35 26.35 C 106.44 25.84 106.63 24.83 106.73 24.33 L 105.81 24.63 C 104.22 21.67 101.40 19.74 99.18 17.31 L 98.15 17.72 L 98.72 16.26 C 98.21 16.36 97.18 16.56 96.67 16.65 L 96.59 15.69 C 95.99 15.42 94.77 14.88 94.17 14.61 C 91.50 13.27 88.56 12.67 85.76 11.69 C 67.64 11.46 49.52 11.77 31.40 11.53 L 31.55 12.26 C 29.48 12.56 27.47 13.12 25.44 13.60 Z" />
<path fill="#f6faf7" opacity="1.00" d=" M 42.65 40.56 C 44.40 38.87 46.83 39.68 48.91 40.04 C 49.77 42.95 50.18 45.96 50.05 49.00 C 52.03 49.00 54.02 49.00 56.00 49.00 C 56.00 49.75 56.00 51.25 56.00 52.00 C 54.03 52.00 52.06 52.00 50.09 52.00 C 50.13 54.71 49.62 57.37 48.89 59.97 C 46.30 60.76 43.42 60.71 41.48 58.56 C 38.44 55.66 32.03 53.35 33.98 48.08 C 36.10 44.86 39.78 43.06 42.65 40.56 M 37.01 50.00 C 40.00 52.33 43.00 54.65 46.00 56.97 C 46.00 52.31 46.00 47.66 46.00 43.01 C 43.01 45.35 40.01 47.67 37.01 50.00 Z" />
<path fill="#f6faf7" opacity="1.00" d=" M 67.98 41.23 C 70.04 40.39 72.39 38.48 74.59 40.05 C 77.36 42.04 80.08 44.11 82.67 46.33 C 84.99 48.07 85.00 51.93 82.67 53.67 C 80.10 55.88 77.39 57.93 74.64 59.91 C 72.41 61.55 70.06 59.60 67.98 58.77 C 68.01 52.92 68.01 47.08 67.98 41.23 M 72.00 43.01 C 72.00 47.66 72.00 52.31 72.00 56.97 C 75.00 54.65 78.00 52.33 80.99 50.00 C 77.99 47.67 74.98 45.35 72.00 43.01 Z" />
<path fill="#f6faf7" opacity="1.00" d=" M 57.00 49.00 C 57.75 49.00 59.25 49.00 60.00 49.00 C 60.00 49.75 60.00 51.25 60.00 52.00 C 59.25 52.00 57.75 52.00 57.00 52.00 C 57.00 51.25 57.00 49.75 57.00 49.00 Z" />
<path fill="#f6faf7" opacity="1.00" d=" M 61.00 49.00 C 63.00 49.00 65.00 49.00 67.00 49.00 C 67.00 49.75 67.00 51.25 67.00 52.00 C 65.00 52.00 63.00 52.00 61.00 52.00 C 61.00 51.25 61.00 49.75 61.00 49.00 Z" />
</g>
</svg>
