<?xml version="1.0" encoding="UTF-8" ?>
<!DOCTYPE svg PUBLIC "-//W3C//DTD SVG 1.1//EN" "http://www.w3.org/Graphics/SVG/1.1/DTD/svg11.dtd">
<svg width="117px" height="140px" viewBox="0 0 117 140" version="1.1" xmlns="http://www.w3.org/2000/svg">
<g id="#000000ff">
<path fill="#000000" opacity="1.00" d=" M 0.00 0.00 L 117.00 0.00 L 117.00 140.00 L 0.00 140.00 L 0.00 0.00 M 31.00 11.19 C 28.79 11.42 26.65 12.03 24.54 12.69 L 24.53 13.67 C 24.04 13.57 23.06 13.36 22.57 13.25 L 22.61 14.34 C 22.00 14.52 20.77 14.87 20.16 15.05 C 19.10 16.05 17.83 16.79 16.83 17.85 C 16.46 18.07 15.72 18.51 15.36 18.73 L 15.60 19.59 L 14.32 19.36 L 14.60 20.62 L 13.68 20.36 C 13.49 20.72 13.12 21.44 12.93 21.80 C 11.42 23.50 9.40 25.20 9.40 27.67 L 8.19 27.60 C 8.33 28.09 8.60 29.05 8.74 29.53 L 7.76 29.52 C 7.42 30.63 7.07 31.73 6.70 32.82 C 6.10 35.50 5.31 38.17 5.40 40.95 C 5.35 59.64 5.41 78.33 5.37 97.02 C 5.36 99.63 5.39 102.30 6.24 104.80 C 6.34 105.39 6.55 106.57 6.66 107.16 C 7.04 108.24 7.40 109.33 7.73 110.43 L 8.69 110.44 C 8.57 110.96 8.34 111.99 8.23 112.51 L 9.27 112.35 C 9.48 112.97 9.91 114.22 10.12 114.84 C 10.98 115.96 11.84 117.07 12.68 118.20 C 13.41 119.15 14.18 120.07 15.14 120.80 C 15.52 121.05 16.29 121.54 16.67 121.79 L 16.42 122.20 C 18.59 123.25 20.06 125.63 22.66 125.67 L 22.58 126.81 C 23.07 126.68 24.05 126.40 24.54 126.26 L 24.53 127.24 C 25.64 127.57 26.74 127.92 27.83 128.31 C 30.53 128.90 33.23 129.67 36.02 129.60 C 50.02 129.64 64.01 129.59 78.01 129.63 C 80.95 129.60 83.98 129.84 86.79 128.84 C 88.30 128.58 89.90 128.55 91.28 127.79 C 91.83 127.70 92.92 127.51 93.46 127.41 L 93.47 126.27 C 93.96 126.40 94.95 126.68 95.44 126.81 L 95.36 125.74 C 95.99 125.52 97.24 125.07 97.86 124.85 C 99.03 124.00 100.23 123.18 101.20 122.09 C 101.56 121.89 102.28 121.49 102.64 121.29 L 102.40 120.39 L 103.75 120.68 L 103.32 119.74 C 103.67 119.39 104.37 118.69 104.72 118.34 L 105.20 118.57 C 106.02 117.29 106.87 116.02 107.90 114.90 C 108.10 114.26 108.51 112.98 108.71 112.34 L 109.80 112.39 C 109.67 111.91 109.41 110.95 109.28 110.47 L 110.32 110.49 C 110.83 108.61 111.41 106.74 111.83 104.83 C 112.60 102.30 112.61 99.63 112.63 97.02 C 112.60 78.69 112.63 60.35 112.61 42.02 C 112.53 39.70 112.72 37.25 111.67 35.11 C 111.63 34.43 111.56 33.07 111.52 32.39 L 110.50 32.53 C 110.52 31.78 110.56 30.28 110.58 29.53 L 109.28 29.56 C 109.41 29.05 109.67 28.04 109.81 27.53 L 108.74 27.67 C 108.52 27.03 108.07 25.75 107.84 25.11 C 106.95 23.97 106.18 22.73 105.07 21.79 C 104.88 21.43 104.50 20.71 104.32 20.35 L 103.39 20.63 L 103.68 19.33 L 102.38 19.61 L 102.65 18.70 C 102.28 18.50 101.55 18.09 101.19 17.88 C 100.21 16.79 98.92 16.07 97.86 15.08 C 97.24 14.89 96.00 14.51 95.38 14.32 L 95.40 13.23 C 94.91 13.35 93.93 13.58 93.44 13.69 L 93.45 12.38 C 92.68 12.43 91.13 12.51 90.36 12.55 L 90.62 11.48 C 89.44 11.43 88.25 11.38 87.07 11.31 C 85.51 10.51 83.76 10.36 82.04 10.38 C 67.01 10.37 51.99 10.39 36.96 10.37 C 34.95 10.38 32.88 10.37 31.00 11.19 Z" />
<path fill="#000000" opacity="1.00" d=" M 27.33 12.53 C 28.61 12.55 29.88 12.47 31.15 12.29 C 33.31 11.35 35.70 11.64 37.99 11.59 C 53.00 11.64 68.02 11.62 83.03 11.60 C 84.36 11.58 85.67 11.75 86.95 12.11 C 94.79 13.66 101.55 18.52 106.32 24.82 C 107.44 27.30 109.07 29.57 109.75 32.24 C 110.26 33.77 110.78 35.31 111.39 36.81 C 111.33 58.93 111.49 81.06 111.30 103.18 C 110.67 104.60 110.41 106.13 110.32 107.68 L 109.69 107.39 C 109.45 109.53 108.36 111.37 107.28 113.19 C 107.02 113.81 106.49 115.04 106.22 115.66 L 105.82 115.39 C 103.91 118.33 101.40 120.97 98.38 122.80 L 98.67 123.29 C 98.06 123.53 96.82 124.01 96.20 124.25 C 94.41 125.34 92.60 126.47 90.45 126.65 L 90.51 127.27 C 87.65 127.53 84.90 128.54 82.01 128.40 C 65.98 128.37 49.94 128.37 33.91 128.40 C 32.55 128.48 31.29 128.18 30.11 127.51 C 29.43 127.51 28.07 127.50 27.39 127.50 L 27.59 126.71 C 26.54 126.46 25.51 126.16 24.48 125.82 C 23.61 125.31 22.73 124.83 21.84 124.37 C 20.87 123.98 20.00 123.42 19.22 122.71 C 16.52 120.63 13.97 118.28 12.17 115.36 L 11.60 115.70 C 11.25 112.66 8.41 110.58 8.32 107.42 L 7.70 107.61 C 7.56 106.06 7.37 104.51 6.70 103.09 C 6.57 81.01 6.56 58.92 6.70 36.84 C 7.32 35.41 7.58 33.89 7.70 32.35 L 8.31 32.61 C 8.54 30.46 9.73 28.67 10.63 26.76 C 11.12 25.88 11.67 25.03 12.27 24.22 C 14.32 21.65 16.53 19.17 19.25 17.29 C 20.05 16.65 20.90 16.09 21.81 15.61 C 23.71 14.74 25.51 13.56 27.62 13.28 L 27.33 12.53 M 40.86 44.97 C 41.40 46.27 42.55 47.17 43.43 48.22 C 46.00 47.12 48.50 45.72 51.30 45.25 C 56.60 44.18 62.11 46.09 66.16 49.54 C 68.07 46.86 70.18 44.21 71.38 41.13 C 67.80 37.90 62.59 37.34 57.95 37.44 C 51.59 37.24 44.81 39.90 40.86 44.97 M 67.15 51.01 C 70.64 54.31 71.28 59.10 71.98 63.59 C 75.73 63.59 79.49 63.59 83.25 63.57 C 84.23 54.98 79.53 46.78 72.87 41.67 C 71.13 44.89 69.24 48.02 67.15 51.01 M 57.14 46.29 C 56.02 51.74 56.65 57.43 55.20 62.83 C 56.83 62.49 58.46 62.41 60.10 62.59 C 59.82 57.16 59.08 51.77 58.93 46.34 C 58.49 46.33 57.59 46.30 57.14 46.29 M 33.77 58.77 C 34.73 59.18 35.69 59.58 36.66 59.98 C 37.55 56.47 39.04 53.16 41.47 50.45 C 43.26 48.64 40.28 47.35 39.09 46.37 C 36.64 50.16 34.46 54.25 33.77 58.77 M 55.07 65.57 C 55.05 66.84 54.51 68.43 55.78 69.32 C 57.48 71.61 61.05 69.68 61.03 67.14 C 60.66 65.66 59.17 64.92 58.11 63.98 C 57.10 64.52 56.09 65.05 55.07 65.57 Z" />
<path fill="#000000" opacity="1.00" d=" M 62.66 41.10 C 64.10 41.44 65.53 41.81 66.97 42.16 C 66.37 43.01 65.79 43.86 65.20 44.71 C 63.86 43.91 62.91 42.68 62.66 41.10 Z" />
<path fill="#000000" opacity="1.00" d=" M 72.66 53.41 C 73.97 52.38 75.25 51.33 76.53 50.27 C 77.06 51.45 77.59 52.62 78.14 53.79 C 76.19 54.73 73.84 56.16 72.66 53.41 Z" />
<path fill="#000000" opacity="1.00" d=" M 74.24 59.94 C 75.64 58.61 77.39 57.76 79.07 56.83 C 79.28 57.89 79.50 58.95 79.73 60.01 C 77.89 60.00 76.06 59.99 74.24 59.94 Z" />
</g>
<g id="#f3f7f5ff">
<path fill="#f3f7f5" opacity="1.00" d=" M 31.00 11.19 C 32.88 10.37 34.95 10.38 36.96 10.37 C 51.99 10.39 67.01 10.37 82.04 10.38 C 83.76 10.36 85.51 10.51 87.07 11.31 C 88.25 11.38 89.44 11.43 90.62 11.48 L 90.36 12.55 C 91.13 12.51 92.68 12.43 93.45 12.38 L 93.44 13.69 C 93.93 13.58 94.91 13.35 95.40 13.23 L 95.38 14.32 C 96.00 14.51 97.24 14.89 97.86 15.08 C 98.92 16.07 100.21 16.79 101.19 17.88 C 101.55 18.09 102.28 18.50 102.65 18.70 L 102.38 19.61 L 103.68 19.33 L 103.39 20.63 L 104.32 20.35 C 104.50 20.71 104.88 21.43 105.07 21.79 C 106.18 22.73 106.95 23.97 107.84 25.11 C 108.07 25.75 108.52 27.03 108.74 27.67 L 109.81 27.53 C 109.67 28.04 109.41 29.05 109.28 29.56 L 110.58 29.53 C 110.56 30.28 110.52 31.78 110.50 32.53 L 111.52 32.39 C 111.56 33.07 111.63 34.43 111.67 35.11 C 112.72 37.25 112.53 39.70 112.61 42.02 C 112.63 60.35 112.60 78.69 112.63 97.02 C 112.61 99.63 112.60 102.30 111.83 104.83 C 111.41 106.74 110.83 108.61 110.32 110.49 L 109.28 110.47 C 109.41 110.95 109.67 111.91 109.80 112.39 L 108.71 112.34 C 108.51 112.98 108.10 114.26 107.90 114.90 C 106.87 116.02 106.02 117.29 105.20 118.57 L 104.72 118.34 C 104.37 118.69 103.67 119.39 103.32 119.74 L 103.75 120.68 L 102.40 120.39 L 102.64 121.29 C 102.28 121.49 101.56 121.89 101.20 122.09 C 100.23 123.18 99.03 124.00 97.86 124.85 C 97.24 125.07 95.99 125.52 95.36 125.74 L 95.44 126.81 C 94.95 126.68 93.96 126.40 93.47 126.27 L 93.46 127.41 C 92.92 127.51 91.83 127.70 91.28 127.79 C 89.90 128.55 88.30 128.58 86.79 128.84 C 83.98 129.84 80.95 129.60 78.01 129.63 C 64.01 129.59 50.02 129.64 36.02 129.60 C 33.23 129.67 30.53 128.90 27.83 128.31 C 26.74 127.92 25.64 127.57 24.53 127.24 L 24.54 126.26 C 24.05 126.40 23.07 126.68 22.58 126.81 L 22.66 125.67 C 20.06 125.63 18.59 123.25 16.42 122.20 L 16.67 121.79 C 16.29 121.54 15.52 121.05 15.14 120.80 C 14.18 120.07 13.41 119.15 12.68 118.20 C 11.84 117.07 10.98 115.96 10.12 114.84 C 9.91 114.22 9.48 112.97 9.27 112.35 L 8.23 112.51 C 8.34 111.99 8.57 110.96 8.69 110.44 L 7.73 110.43 C 7.40 109.33 7.04 108.24 6.66 107.16 C 6.55 106.57 6.34 105.39 6.24 104.80 C 5.39 102.30 5.36 99.63 5.37 97.02 C 5.41 78.33 5.35 59.64 5.40 40.95 C 5.31 38.17 6.10 35.50 6.70 32.82 C 7.07 31.73 7.42 30.63 7.76 29.52 L 8.74 29.53 C 8.60 29.05 8.33 28.09 8.19 27.60 L 9.40 27.67 C 9.40 25.20 11.42 23.50 12.93 21.80 C 13.12 21.44 13.49 20.72 13.68 20.36 L 14.60 20.62 L 14.32 19.36 L 15.60 19.59 L 15.36 18.73 C 15.72 18.51 16.46 18.07 16.83 17.85 C 17.83 16.79 19.10 16.05 20.16 15.05 C 20.77 14.87 22.00 14.52 22.61 14.34 L 22.57 13.25 C 23.06 13.36 24.04 13.57 24.53 13.67 L 24.54 12.69 C 26.65 12.03 28.79 11.42 31.00 11.19 M 27.33 12.53 L 27.62 13.28 C 25.51 13.56 23.71 14.74 21.81 15.61 C 20.90 16.09 20.05 16.65 19.25 17.29 C 16.53 19.17 14.32 21.65 12.27 24.22 C 11.67 25.03 11.12 25.88 10.63 26.76 C 9.73 28.67 8.54 30.46 8.31 32.61 L 7.70 32.35 C 7.58 33.89 7.32 35.41 6.70 36.84 C 6.56 58.92 6.57 81.01 6.70 103.09 C 7.37 104.51 7.56 106.06 7.70 107.61 L 8.32 107.42 C 8.41 110.58 11.25 112.66 11.60 115.70 L 12.17 115.36 C 13.97 118.28 16.52 120.63 19.22 122.71 C 20.00 123.42 20.87 123.98 21.84 124.37 C 22.73 124.83 23.61 125.31 24.48 125.82 C 25.51 126.16 26.54 126.46 27.59 126.71 L 27.39 127.50 C 28.07 127.50 29.43 127.51 30.11 127.51 C 31.29 128.18 32.55 128.48 33.91 128.40 C 49.94 128.37 65.98 128.37 82.01 128.40 C 84.90 128.54 87.65 127.53 90.51 127.27 L 90.45 126.65 C 92.60 126.47 94.41 125.34 96.20 124.25 C 96.82 124.01 98.06 123.53 98.67 123.29 L 98.38 122.80 C 101.40 120.97 103.91 118.33 105.82 115.39 L 106.22 115.66 C 106.49 115.04 107.02 113.81 107.28 113.19 C 108.36 111.37 109.45 109.53 109.69 107.39 L 110.32 107.68 C 110.41 106.13 110.67 104.60 111.30 103.18 C 111.49 81.06 111.33 58.93 111.39 36.81 C 110.78 35.31 110.26 33.77 109.75 32.24 C 109.07 29.57 107.44 27.30 106.32 24.82 C 101.55 18.52 94.79 13.66 86.95 12.11 C 85.67 11.75 84.36 11.58 83.03 11.60 C 68.02 11.62 53.00 11.64 37.99 11.59 C 35.70 11.64 33.31 11.35 31.15 12.29 C 29.88 12.47 28.61 12.55 27.33 12.53 Z" />
<path fill="#f3f7f5" opacity="1.00" d=" M 40.86 44.97 C 44.81 39.90 51.59 37.24 57.95 37.44 C 62.59 37.34 67.80 37.90 71.38 41.13 C 70.18 44.21 68.07 46.86 66.16 49.54 C 62.11 46.09 56.60 44.18 51.30 45.25 C 48.50 45.72 46.00 47.12 43.43 48.22 C 42.55 47.17 41.40 46.27 40.86 44.97 M 62.66 41.10 C 62.91 42.68 63.86 43.91 65.20 44.71 C 65.79 43.86 66.37 43.01 66.97 42.16 C 65.53 41.81 64.10 41.44 62.66 41.10 Z" />
<path fill="#f3f7f5" opacity="1.00" d=" M 67.15 51.01 C 69.24 48.02 71.13 44.89 72.87 41.67 C 79.53 46.78 84.23 54.98 83.25 63.57 C 79.49 63.59 75.73 63.59 71.98 63.59 C 71.28 59.10 70.64 54.31 67.15 51.01 M 72.66 53.41 C 73.84 56.16 76.19 54.73 78.14 53.79 C 77.59 52.62 77.06 51.45 76.53 50.27 C 75.25 51.33 73.97 52.38 72.66 53.41 M 74.24 59.94 C 76.06 59.99 77.89 60.00 79.73 60.01 C 79.50 58.95 79.28 57.89 79.07 56.83 C 77.39 57.76 75.64 58.61 74.24 59.94 Z" />
<path fill="#f3f7f5" opacity="1.00" d=" M 57.14 46.29 C 57.59 46.30 58.49 46.33 58.93 46.34 C 59.08 51.77 59.82 57.16 60.10 62.59 C 58.46 62.41 56.83 62.49 55.20 62.83 C 56.65 57.43 56.02 51.74 57.14 46.29 Z" />
<path fill="#f3f7f5" opacity="1.00" d=" M 33.77 58.77 C 34.46 54.25 36.64 50.16 39.09 46.37 C 40.28 47.35 43.26 48.64 41.47 50.45 C 39.04 53.16 37.55 56.47 36.66 59.98 C 35.69 59.58 34.73 59.18 33.77 58.77 Z" />
<path fill="#f3f7f5" opacity="1.00" d=" M 55.07 65.57 C 56.09 65.05 57.10 64.52 58.11 63.98 C 59.17 64.92 60.66 65.66 61.03 67.14 C 61.05 69.68 57.48 71.61 55.78 69.32 C 54.51 68.43 55.05 66.84 55.07 65.57 Z" />
</g>
</svg>
