<?xml version="1.0" encoding="UTF-8" ?>
<!DOCTYPE svg PUBLIC "-//W3C//DTD SVG 1.1//EN" "http://www.w3.org/Graphics/SVG/1.1/DTD/svg11.dtd">
<svg width="117px" height="140px" viewBox="0 0 117 140" version="1.1" xmlns="http://www.w3.org/2000/svg">
<g id="#000000ff">
<path fill="#000000" opacity="1.00" d=" M 0.00 0.00 L 117.00 0.00 L 117.00 140.00 L 0.00 140.00 L 0.00 0.00 M 31.25 10.57 L 31.77 11.45 C 30.28 11.42 28.80 11.40 27.31 11.38 L 27.73 12.45 C 26.92 12.45 25.29 12.43 24.48 12.42 L 24.50 13.71 C 24.03 13.56 23.08 13.27 22.61 13.12 L 22.63 14.56 C 22.24 14.50 21.45 14.39 21.06 14.33 C 19.64 15.64 18.07 16.76 16.41 17.72 L 16.56 18.15 C 15.02 18.83 13.80 19.99 13.16 21.57 L 12.75 21.43 C 11.76 23.07 10.61 24.62 9.35 26.06 C 9.40 26.45 9.50 27.23 9.56 27.62 L 8.15 27.59 C 8.28 28.07 8.54 29.03 8.67 29.51 L 7.62 29.52 C 7.02 31.55 6.43 33.59 6.27 35.72 L 5.67 35.47 C 5.19 41.31 5.35 47.16 5.34 53.00 C 5.49 70.17 5.02 87.35 5.60 104.51 C 5.78 104.46 6.12 104.37 6.29 104.32 C 6.43 106.42 7.00 108.45 7.59 110.47 L 8.68 110.50 C 8.54 110.98 8.28 111.93 8.14 112.40 L 9.57 112.39 C 9.50 112.85 9.36 113.79 9.30 114.26 L 10.18 114.48 C 10.93 115.93 11.83 117.29 12.73 118.66 L 13.16 118.41 C 13.80 120.00 15.02 121.19 16.59 121.86 L 16.43 122.32 C 18.11 123.26 19.69 124.37 21.09 125.72 C 21.44 125.62 22.15 125.43 22.50 125.34 C 22.54 125.73 22.63 126.50 22.67 126.89 L 24.51 126.28 L 24.48 127.59 C 25.28 127.58 26.89 127.55 27.70 127.54 L 27.33 128.63 C 28.15 128.61 29.81 128.56 30.64 128.54 L 30.52 129.33 C 36.66 129.83 42.83 129.63 48.98 129.66 C 61.57 129.56 74.16 129.90 86.74 129.44 L 86.21 128.66 C 88.72 128.79 91.12 128.15 93.47 127.36 L 93.44 126.43 C 93.98 126.50 95.07 126.65 95.62 126.72 L 95.39 125.35 C 95.77 125.44 96.53 125.61 96.91 125.69 C 98.34 124.40 99.90 123.26 101.56 122.30 L 101.42 121.85 C 102.99 121.16 104.22 120.01 104.84 118.40 L 105.26 118.65 C 106.23 116.97 107.37 115.40 108.65 113.94 C 108.59 113.55 108.47 112.76 108.41 112.37 L 109.77 112.53 C 109.68 112.02 109.49 111.01 109.39 110.50 L 110.39 110.45 C 110.99 108.43 111.58 106.40 111.72 104.29 L 112.33 104.59 C 112.79 98.74 112.65 92.87 112.66 87.01 C 112.48 69.83 113.05 52.63 112.33 35.46 L 111.73 35.71 C 111.54 33.59 110.97 31.55 110.40 29.51 L 109.43 29.60 C 109.51 29.08 109.66 28.03 109.74 27.51 L 108.35 27.59 C 108.44 27.21 108.61 26.46 108.70 26.08 C 107.42 24.71 106.34 23.17 105.35 21.57 L 104.46 21.55 L 104.66 20.29 L 103.90 20.57 C 103.45 19.38 102.64 18.59 101.46 18.17 L 101.62 17.73 C 99.95 16.76 98.36 15.63 96.93 14.33 C 96.55 14.39 95.78 14.52 95.40 14.59 L 95.43 13.19 C 94.94 13.30 93.97 13.53 93.48 13.64 L 93.47 12.64 C 91.14 11.87 88.75 11.25 86.27 11.31 L 86.68 10.55 C 68.21 10.21 49.72 10.17 31.25 10.57 Z" />
<path fill="#000000" opacity="1.00" d=" M 32.14 11.58 C 50.02 11.71 67.92 11.75 85.80 11.56 L 85.25 12.34 C 86.55 12.44 87.84 12.57 89.14 12.71 C 90.25 13.16 91.39 13.51 92.56 13.77 L 92.64 14.64 C 93.09 14.57 93.98 14.42 94.43 14.34 L 94.74 15.64 C 95.18 15.55 96.06 15.38 96.49 15.29 L 96.40 16.28 C 97.46 16.77 98.54 17.24 99.64 17.67 L 99.46 18.16 C 101.64 19.53 103.48 21.37 104.85 23.56 L 105.33 23.35 C 105.74 24.45 106.21 25.53 106.71 26.60 L 107.72 26.52 C 107.62 26.95 107.44 27.82 107.35 28.26 L 108.65 28.56 C 108.58 29.01 108.44 29.91 108.37 30.36 L 109.24 30.46 C 109.50 31.63 109.86 32.78 110.32 33.89 C 110.37 34.62 110.48 36.09 110.54 36.82 L 111.44 36.17 C 111.25 58.40 111.29 80.64 111.42 102.88 L 110.76 102.26 C 110.54 104.74 109.94 107.15 109.32 109.56 L 108.65 109.62 C 108.23 110.92 107.77 112.21 107.35 113.51 L 106.71 113.41 C 106.22 114.48 105.76 115.56 105.33 116.66 L 104.85 116.45 C 103.54 118.58 101.70 120.28 99.74 121.81 L 99.36 122.46 L 98.19 122.39 L 98.62 123.64 C 98.12 123.56 97.13 123.39 96.63 123.31 L 96.38 124.76 L 95.21 124.49 C 94.40 125.01 93.53 125.43 92.62 125.75 L 92.42 126.74 C 91.91 126.57 90.91 126.23 90.40 126.06 L 90.76 127.37 C 88.92 127.43 87.08 127.53 85.24 127.61 L 85.82 128.44 C 67.97 128.26 50.12 128.29 32.27 128.42 L 32.62 127.62 C 31.36 127.54 30.10 127.44 28.85 127.31 C 27.74 126.83 26.60 126.47 25.42 126.23 L 25.37 125.71 C 24.75 125.41 23.49 124.81 22.87 124.52 C 22.53 124.56 21.86 124.65 21.52 124.69 L 21.60 123.72 C 20.53 123.21 19.45 122.75 18.35 122.33 L 18.55 121.85 C 16.37 120.48 14.53 118.64 13.16 116.46 L 12.68 116.64 C 12.24 115.55 11.77 114.47 11.28 113.41 L 10.29 113.47 C 10.38 113.04 10.56 112.17 10.64 111.74 L 9.35 111.43 C 9.42 110.98 9.56 110.08 9.63 109.64 L 8.69 109.57 C 8.09 107.22 7.48 104.87 7.24 102.45 L 6.55 102.64 C 6.75 80.88 6.73 59.11 6.56 37.35 C 6.75 37.40 7.13 37.49 7.32 37.53 C 7.42 36.59 7.63 34.70 7.73 33.75 C 8.11 32.67 8.45 31.57 8.75 30.47 L 9.64 30.34 C 9.57 29.90 9.44 29.00 9.37 28.56 L 10.64 28.25 C 10.56 27.81 10.38 26.94 10.29 26.50 L 11.28 26.62 C 11.81 25.55 12.28 24.45 12.68 23.32 L 13.16 23.61 C 14.50 21.38 16.34 19.53 18.55 18.16 L 18.35 17.67 C 19.45 17.24 20.53 16.78 21.60 16.28 L 21.52 15.30 C 21.86 15.35 22.53 15.44 22.87 15.49 C 23.49 15.18 24.73 14.56 25.35 14.25 L 25.46 13.67 C 27.87 13.08 30.29 12.47 32.77 12.26 L 32.14 11.58 M 46.00 28.14 C 46.00 33.98 46.03 39.81 46.00 45.64 C 43.67 45.65 41.34 45.66 39.01 45.70 C 39.29 50.36 38.76 55.07 39.32 59.71 C 41.41 63.16 46.21 61.30 49.51 61.69 C 52.46 64.52 55.35 67.42 58.28 70.29 C 54.62 70.25 50.96 70.24 47.30 70.30 C 47.32 72.87 47.33 75.44 47.29 78.01 C 55.55 77.88 63.82 78.24 72.07 77.83 C 71.78 77.32 71.20 76.31 70.92 75.80 C 63.97 75.41 57.00 75.80 50.05 75.62 C 50.05 74.99 50.05 73.73 50.05 73.10 C 53.64 73.03 57.24 73.03 60.84 73.05 C 60.86 72.32 60.91 70.86 60.93 70.13 C 63.78 67.30 66.59 64.44 69.51 61.69 C 72.80 61.31 77.52 63.13 79.67 59.76 C 80.25 55.10 79.71 50.38 79.99 45.70 C 77.66 45.66 75.33 45.65 73.00 45.64 C 72.98 39.81 72.98 33.98 73.01 28.15 C 64.00 28.05 55.00 28.06 46.00 28.14 Z" />
<path fill="#000000" opacity="1.00" d=" M 48.82 31.04 C 55.94 31.04 63.06 31.04 70.18 31.04 C 70.17 36.79 70.28 42.54 70.08 48.28 C 72.38 48.34 74.68 48.36 76.98 48.40 C 76.91 51.91 76.92 55.42 76.94 58.93 C 65.31 58.98 53.68 58.98 42.05 58.93 C 42.08 55.42 42.09 51.90 42.02 48.39 C 48.76 48.28 55.50 48.38 62.24 48.35 C 62.24 47.67 62.24 46.33 62.24 45.65 C 57.76 45.65 53.28 45.63 48.81 45.67 C 48.81 43.89 48.82 42.11 48.84 40.33 C 53.30 40.36 57.77 40.35 62.24 40.35 C 62.24 39.67 62.24 38.33 62.24 37.65 C 57.76 37.65 53.29 37.63 48.81 37.68 C 48.81 35.46 48.82 33.25 48.82 31.04 M 57.59 53.13 C 58.94 51.96 60.29 50.67 62.23 50.82 C 61.83 53.71 58.67 54.79 57.62 57.36 C 59.40 57.42 61.19 57.44 62.97 57.45 C 62.98 57.17 63.00 56.59 63.01 56.30 C 62.06 56.30 60.15 56.29 59.19 56.29 C 60.73 54.95 63.68 53.65 62.85 51.10 C 61.23 48.56 57.78 50.49 57.59 53.13 Z" />
<path fill="#000000" opacity="1.00" d=" M 53.39 61.73 C 57.47 61.74 61.54 61.74 65.62 61.73 C 63.58 63.75 61.50 65.71 59.53 67.79 C 57.51 65.74 55.42 63.77 53.39 61.73 Z" />
</g>
<g id="#dee5eaff">
<path fill="#dee5ea" opacity="1.00" d=" M 31.25 10.57 C 49.72 10.17 68.21 10.21 86.68 10.55 L 86.27 11.31 C 88.75 11.25 91.14 11.87 93.47 12.64 L 93.48 13.64 C 93.97 13.53 94.94 13.30 95.43 13.19 L 95.40 14.59 C 95.78 14.52 96.55 14.39 96.93 14.33 C 98.36 15.63 99.95 16.76 101.62 17.73 L 101.46 18.17 C 102.64 18.59 103.45 19.38 103.90 20.57 L 104.66 20.29 L 104.46 21.55 L 105.35 21.57 C 106.34 23.17 107.42 24.71 108.70 26.08 C 108.61 26.46 108.44 27.21 108.35 27.59 L 109.74 27.51 C 109.66 28.03 109.51 29.08 109.43 29.60 L 110.40 29.51 C 110.97 31.55 111.54 33.59 111.73 35.71 L 112.33 35.46 C 113.05 52.63 112.48 69.83 112.66 87.01 C 112.65 92.87 112.79 98.74 112.33 104.59 L 111.72 104.29 C 111.58 106.40 110.99 108.43 110.39 110.45 L 109.39 110.50 C 109.49 111.01 109.68 112.02 109.77 112.53 L 108.41 112.37 C 108.47 112.76 108.59 113.55 108.65 113.94 C 107.37 115.40 106.23 116.97 105.26 118.65 L 104.84 118.40 C 104.22 120.01 102.99 121.16 101.42 121.85 L 101.56 122.30 C 99.90 123.26 98.34 124.40 96.91 125.69 C 96.53 125.61 95.77 125.44 95.39 125.35 L 95.62 126.72 C 95.07 126.65 93.98 126.50 93.44 126.43 L 93.47 127.36 C 91.12 128.15 88.72 128.79 86.21 128.66 L 86.74 129.44 C 74.16 129.90 61.57 129.56 48.98 129.66 C 42.83 129.63 36.66 129.83 30.52 129.33 L 30.64 128.54 C 29.81 128.56 28.15 128.61 27.33 128.63 L 27.70 127.54 C 26.89 127.55 25.28 127.58 24.48 127.59 L 24.51 126.28 L 22.67 126.89 C 22.63 126.50 22.54 125.73 22.50 125.34 C 22.15 125.43 21.44 125.62 21.09 125.72 C 19.69 124.37 18.11 123.26 16.43 122.32 L 16.59 121.86 C 15.02 121.19 13.80 120.00 13.16 118.41 L 12.73 118.66 C 11.83 117.29 10.93 115.93 10.18 114.48 L 9.30 114.26 C 9.36 113.79 9.50 112.85 9.57 112.39 L 8.14 112.40 C 8.28 111.93 8.54 110.98 8.68 110.50 L 7.59 110.47 C 7.00 108.45 6.43 106.42 6.29 104.32 C 6.12 104.37 5.78 104.46 5.60 104.51 C 5.02 87.35 5.49 70.17 5.34 53.00 C 5.35 47.16 5.19 41.31 5.67 35.47 L 6.27 35.72 C 6.43 33.59 7.02 31.55 7.62 29.52 L 8.67 29.51 C 8.54 29.03 8.28 28.07 8.15 27.59 L 9.56 27.62 C 9.50 27.23 9.40 26.45 9.35 26.06 C 10.61 24.62 11.76 23.07 12.75 21.43 L 13.16 21.57 C 13.80 19.99 15.02 18.83 16.56 18.15 L 16.41 17.72 C 18.07 16.76 19.64 15.64 21.06 14.33 C 21.45 14.39 22.24 14.50 22.63 14.56 L 22.61 13.12 C 23.08 13.27 24.03 13.56 24.50 13.71 L 24.48 12.42 C 25.29 12.43 26.92 12.45 27.73 12.45 L 27.31 11.38 C 28.80 11.40 30.28 11.42 31.77 11.45 L 31.25 10.57 M 32.14 11.58 L 32.77 12.26 C 30.29 12.47 27.87 13.08 25.46 13.67 L 25.35 14.25 C 24.73 14.56 23.49 15.18 22.87 15.49 C 22.53 15.44 21.86 15.35 21.52 15.30 L 21.60 16.28 C 20.53 16.78 19.45 17.24 18.35 17.67 L 18.55 18.16 C 16.34 19.53 14.50 21.38 13.16 23.61 L 12.68 23.32 C 12.28 24.45 11.81 25.55 11.28 26.62 L 10.29 26.50 C 10.38 26.94 10.56 27.81 10.64 28.25 L 9.37 28.56 C 9.44 29.00 9.57 29.90 9.64 30.34 L 8.75 30.47 C 8.45 31.57 8.11 32.67 7.73 33.75 C 7.63 34.70 7.42 36.59 7.32 37.53 C 7.13 37.49 6.75 37.40 6.56 37.35 C 6.73 59.11 6.75 80.88 6.55 102.64 L 7.24 102.45 C 7.48 104.87 8.09 107.22 8.69 109.57 L 9.63 109.64 C 9.56 110.08 9.42 110.98 9.35 111.43 L 10.64 111.74 C 10.56 112.17 10.38 113.04 10.29 113.47 L 11.28 113.41 C 11.77 114.47 12.24 115.55 12.68 116.64 L 13.16 116.46 C 14.53 118.64 16.37 120.48 18.55 121.85 L 18.35 122.33 C 19.45 122.75 20.53 123.21 21.60 123.72 L 21.52 124.69 C 21.86 124.65 22.53 124.56 22.87 124.52 C 23.49 124.81 24.75 125.41 25.37 125.71 L 25.42 126.23 C 26.60 126.47 27.74 126.83 28.85 127.31 C 30.10 127.44 31.36 127.54 32.62 127.62 L 32.27 128.42 C 50.12 128.29 67.97 128.26 85.82 128.44 L 85.24 127.61 C 87.08 127.53 88.92 127.43 90.76 127.37 L 90.40 126.06 C 90.91 126.23 91.91 126.57 92.42 126.74 L 92.62 125.75 C 93.53 125.43 94.40 125.01 95.21 124.49 L 96.38 124.76 L 96.63 123.31 C 97.13 123.39 98.12 123.56 98.62 123.64 L 98.19 122.39 L 99.36 122.46 L 99.74 121.81 C 101.70 120.28 103.54 118.58 104.85 116.45 L 105.33 116.66 C 105.76 115.56 106.22 114.48 106.71 113.41 L 107.35 113.51 C 107.77 112.21 108.23 110.92 108.65 109.62 L 109.32 109.56 C 109.94 107.15 110.54 104.74 110.76 102.26 L 111.42 102.88 C 111.29 80.64 111.25 58.40 111.44 36.17 L 110.54 36.82 C 110.48 36.09 110.37 34.62 110.32 33.89 C 109.86 32.78 109.50 31.63 109.24 30.46 L 108.37 30.36 C 108.44 29.91 108.58 29.01 108.65 28.56 L 107.35 28.26 C 107.44 27.82 107.62 26.95 107.72 26.52 L 106.71 26.60 C 106.21 25.53 105.74 24.45 105.33 23.35 L 104.85 23.56 C 103.48 21.37 101.64 19.53 99.46 18.16 L 99.64 17.67 C 98.54 17.24 97.46 16.77 96.40 16.28 L 96.49 15.29 C 96.06 15.38 95.18 15.55 94.74 15.64 L 94.43 14.34 C 93.98 14.42 93.09 14.57 92.64 14.64 L 92.56 13.77 C 91.39 13.51 90.25 13.16 89.14 12.71 C 87.84 12.57 86.55 12.44 85.25 12.34 L 85.80 11.56 C 67.92 11.75 50.02 11.71 32.14 11.58 Z" />
<path fill="#dee5ea" opacity="1.00" d=" M 46.00 28.14 C 55.00 28.06 64.00 28.05 73.01 28.15 C 72.98 33.98 72.98 39.81 73.00 45.64 C 75.33 45.65 77.66 45.66 79.99 45.70 C 79.71 50.38 80.25 55.10 79.67 59.76 C 77.52 63.13 72.80 61.31 69.51 61.69 C 66.59 64.44 63.78 67.30 60.93 70.13 C 60.91 70.86 60.86 72.32 60.84 73.05 C 57.24 73.03 53.64 73.03 50.05 73.10 C 50.05 73.73 50.05 74.99 50.05 75.62 C 57.00 75.80 63.97 75.41 70.92 75.80 C 71.20 76.31 71.78 77.32 72.07 77.83 C 63.82 78.24 55.55 77.88 47.29 78.01 C 47.33 75.44 47.32 72.87 47.30 70.30 C 50.96 70.24 54.62 70.25 58.28 70.29 C 55.35 67.42 52.46 64.52 49.51 61.69 C 46.21 61.30 41.41 63.16 39.32 59.71 C 38.76 55.07 39.29 50.36 39.01 45.70 C 41.34 45.66 43.67 45.65 46.00 45.64 C 46.03 39.81 46.00 33.98 46.00 28.14 M 48.82 31.04 C 48.82 33.25 48.81 35.46 48.81 37.68 C 53.29 37.63 57.76 37.65 62.24 37.65 C 62.24 38.33 62.24 39.67 62.24 40.35 C 57.77 40.35 53.30 40.36 48.84 40.33 C 48.82 42.11 48.81 43.89 48.81 45.67 C 53.28 45.63 57.76 45.65 62.24 45.65 C 62.24 46.33 62.24 47.67 62.24 48.35 C 55.50 48.38 48.76 48.28 42.02 48.39 C 42.09 51.90 42.08 55.42 42.05 58.93 C 53.68 58.98 65.31 58.98 76.94 58.93 C 76.92 55.42 76.91 51.91 76.98 48.40 C 74.68 48.36 72.38 48.34 70.08 48.28 C 70.28 42.54 70.17 36.79 70.18 31.04 C 63.06 31.04 55.94 31.04 48.82 31.04 M 53.39 61.73 C 55.42 63.77 57.51 65.74 59.53 67.79 C 61.50 65.71 63.58 63.75 65.62 61.73 C 61.54 61.74 57.47 61.74 53.39 61.73 Z" />
<path fill="#dee5ea" opacity="1.00" d=" M 57.59 53.13 C 57.78 50.49 61.23 48.56 62.85 51.10 C 63.68 53.65 60.73 54.95 59.19 56.29 C 60.15 56.29 62.06 56.30 63.01 56.30 C 63.00 56.59 62.98 57.17 62.97 57.45 C 61.19 57.44 59.40 57.42 57.62 57.36 C 58.67 54.79 61.83 53.71 62.23 50.82 C 60.29 50.67 58.94 51.96 57.59 53.13 Z" />
</g>
</svg>
