<?xml version="1.0" encoding="UTF-8" ?>
<!DOCTYPE svg PUBLIC "-//W3C//DTD SVG 1.1//EN" "http://www.w3.org/Graphics/SVG/1.1/DTD/svg11.dtd">
<svg width="28px" height="21px" viewBox="0 0 28 21" version="1.1" xmlns="http://www.w3.org/2000/svg">
<g id="#e0e000ff">
<path fill="#e0e000" opacity="1.00" d=" M 0.00 0.00 L 13.43 0.00 C 8.92 4.44 4.44 8.92 0.00 13.44 L 0.00 0.00 Z" />
<path fill="#e0e000" opacity="1.00" d=" M 13.57 0.00 L 28.00 0.00 L 28.00 21.00 L 19.07 21.00 C 19.07 18.50 19.07 16.00 19.08 13.50 C 21.75 13.50 24.42 13.50 27.09 13.50 C 22.58 9.00 18.12 4.45 13.57 0.00 Z" />
<path fill="#e0e000" opacity="1.00" d=" M 13.48 2.82 C 16.39 5.65 19.25 8.55 22.12 11.43 C 20.45 11.43 18.78 11.44 17.11 11.43 C 17.13 13.95 17.09 16.47 17.11 18.99 C 14.70 19.00 12.30 19.00 9.89 18.99 C 9.92 16.47 9.87 13.95 9.88 11.43 C 8.22 11.44 6.55 11.43 4.88 11.43 C 7.74 8.55 10.61 5.68 13.48 2.82 Z" />
<path fill="#e0e000" opacity="1.00" d=" M 0.00 13.51 C 2.64 13.50 5.28 13.50 7.92 13.50 C 7.93 16.00 7.92 18.50 7.93 21.00 L 0.00 21.00 L 0.00 13.51 Z" />
</g>
<g id="#000000ff">
<path fill="#000000" opacity="1.00" d=" M 13.43 0.00 L 13.57 0.00 C 18.12 4.45 22.58 9.00 27.09 13.50 C 24.42 13.50 21.75 13.50 19.08 13.50 C 19.07 16.00 19.07 18.50 19.07 21.00 L 7.93 21.00 C 7.92 18.50 7.93 16.00 7.92 13.50 C 5.28 13.50 2.64 13.50 0.00 13.51 L 0.00 13.44 C 4.44 8.92 8.92 4.44 13.43 0.00 M 13.48 2.82 C 10.61 5.68 7.74 8.55 4.88 11.43 C 6.55 11.43 8.22 11.44 9.88 11.43 C 9.87 13.95 9.92 16.47 9.89 18.99 C 12.30 19.00 14.70 19.00 17.11 18.99 C 17.09 16.47 17.13 13.95 17.11 11.43 C 18.78 11.44 20.45 11.43 22.12 11.43 C 19.25 8.55 16.39 5.65 13.48 2.82 Z" />
</g>
</svg>
