<?xml version="1.0" encoding="UTF-8" ?>
<!DOCTYPE svg PUBLIC "-//W3C//DTD SVG 1.1//EN" "http://www.w3.org/Graphics/SVG/1.1/DTD/svg11.dtd">
<svg width="45px" height="45px" viewBox="0 0 45 45" version="1.1" xmlns="http://www.w3.org/2000/svg">
<g id="#000000ff">
<path fill="#000000" opacity="1.00" d=" M 0.00 0.00 L 45.00 0.00 L 45.00 45.00 L 0.00 45.00 L 0.00 0.00 M 16.80 6.34 C 16.81 9.97 16.81 13.59 16.81 17.21 C 14.81 17.22 12.80 17.22 10.80 17.23 C 10.80 18.76 10.81 20.29 10.81 21.82 C 12.69 21.80 14.57 21.79 16.46 21.77 C 16.27 25.64 18.96 28.35 21.35 31.00 C 21.18 32.40 21.45 34.42 23.24 34.65 C 23.41 29.63 29.87 27.67 29.27 22.44 C 29.99 22.25 31.43 21.86 32.15 21.67 C 32.77 21.91 34.00 22.37 34.62 22.60 C 34.87 20.82 35.07 19.04 35.24 17.25 C 33.21 17.23 31.19 17.22 29.16 17.20 C 29.16 13.60 29.16 9.99 29.16 6.39 C 25.05 6.24 20.92 6.28 16.80 6.34 M 17.49 33.86 C 17.40 34.51 17.23 35.82 17.14 36.47 L 17.82 36.67 C 18.55 35.67 18.43 34.73 17.49 33.86 Z" />
<path fill="#000000" opacity="1.00" d=" M 18.17 8.69 C 20.56 8.71 22.95 8.71 25.33 8.71 C 25.34 8.99 25.35 9.57 25.36 9.85 C 22.97 9.96 20.59 10.10 18.20 10.16 C 18.19 9.79 18.18 9.06 18.17 8.69 Z" />
<path fill="#000000" opacity="1.00" d=" M 17.86 11.34 C 19.79 11.36 21.72 11.42 23.63 11.65 C 21.86 12.61 19.81 12.43 17.87 12.50 C 17.87 12.21 17.86 11.63 17.86 11.34 Z" />
</g>
<g id="#f8fcf8ff">
<path fill="#f8fcf8" opacity="1.00" d=" M 16.80 6.34 C 20.92 6.28 25.05 6.24 29.16 6.39 C 29.16 9.99 29.16 13.60 29.16 17.20 C 31.19 17.22 33.21 17.23 35.24 17.25 C 35.07 19.04 34.87 20.82 34.62 22.60 C 34.00 22.37 32.77 21.91 32.15 21.67 C 31.43 21.86 29.99 22.25 29.27 22.44 C 29.87 27.67 23.41 29.63 23.24 34.65 C 21.45 34.42 21.18 32.40 21.35 31.00 C 18.96 28.35 16.27 25.64 16.46 21.77 C 14.57 21.79 12.69 21.80 10.81 21.82 C 10.81 20.29 10.80 18.76 10.80 17.23 C 12.80 17.22 14.81 17.22 16.81 17.21 C 16.81 13.59 16.81 9.97 16.80 6.34 M 18.17 8.69 C 18.18 9.06 18.19 9.79 18.20 10.16 C 20.59 10.10 22.97 9.96 25.36 9.85 C 25.35 9.57 25.34 8.99 25.33 8.71 C 22.95 8.71 20.56 8.71 18.17 8.69 M 17.86 11.34 C 17.86 11.63 17.87 12.21 17.87 12.50 C 19.81 12.43 21.86 12.61 23.63 11.65 C 21.72 11.42 19.79 11.36 17.86 11.34 Z" />
<path fill="#f8fcf8" opacity="1.00" d=" M 17.49 33.86 C 18.43 34.73 18.55 35.67 17.82 36.67 L 17.14 36.47 C 17.23 35.82 17.40 34.51 17.49 33.86 Z" />
</g>
</svg>
