<?xml version="1.0" encoding="UTF-8" ?>
<!DOCTYPE svg PUBLIC "-//W3C//DTD SVG 1.1//EN" "http://www.w3.org/Graphics/SVG/1.1/DTD/svg11.dtd">
<svg width="117px" height="140px" viewBox="0 0 117 140" version="1.1" xmlns="http://www.w3.org/2000/svg">
<g id="#000000ff">
<path fill="#000000" opacity="1.00" d=" M 0.00 0.00 L 117.00 0.00 L 117.00 140.00 L 0.00 140.00 L 0.00 0.00 M 31.29 10.57 L 31.79 11.42 C 30.29 11.40 28.79 11.39 27.29 11.40 L 27.83 12.45 C 26.99 12.45 25.31 12.44 24.47 12.44 L 24.52 13.77 C 24.05 13.60 23.11 13.27 22.64 13.10 L 22.62 14.61 C 22.15 14.53 21.22 14.36 20.76 14.28 L 20.51 15.12 C 19.10 15.96 17.72 16.86 16.33 17.75 L 16.54 17.96 C 15.20 18.99 14.00 20.18 12.97 21.52 L 12.75 21.38 C 11.81 22.72 11.01 24.13 10.12 25.49 L 9.29 25.76 C 9.37 26.23 9.52 27.16 9.59 27.63 L 8.14 27.60 C 8.28 28.09 8.58 29.05 8.72 29.53 L 7.67 29.50 C 6.90 31.88 6.25 34.31 6.25 36.85 L 5.58 36.16 C 5.20 58.68 5.24 81.21 5.55 103.73 L 6.30 103.13 C 6.25 105.66 6.87 108.10 7.64 110.49 L 8.72 110.47 C 8.58 110.95 8.29 111.91 8.14 112.39 L 9.61 112.38 C 9.54 112.85 9.38 113.79 9.30 114.26 L 10.11 114.48 C 10.97 115.87 11.83 117.26 12.74 118.63 L 12.97 118.48 C 13.99 119.83 15.19 121.01 16.54 122.04 L 16.37 122.27 C 17.73 123.16 19.12 124.00 20.51 124.86 L 20.76 125.71 C 21.23 125.63 22.18 125.48 22.65 125.40 L 22.57 126.86 C 23.07 126.71 24.06 126.42 24.56 126.28 L 24.47 127.59 C 25.28 127.57 26.89 127.54 27.70 127.52 L 27.37 128.36 C 30.89 129.06 34.42 129.82 38.03 129.66 C 54.26 129.52 70.50 129.89 86.72 129.44 L 86.18 128.76 C 88.70 128.76 91.12 128.11 93.50 127.33 L 93.44 126.32 C 93.94 126.44 94.95 126.70 95.45 126.82 L 95.34 125.40 C 95.82 125.47 96.77 125.63 97.24 125.71 L 97.51 124.96 C 98.69 124.16 99.83 123.32 101.01 122.54 C 101.40 122.23 102.18 121.61 102.57 121.30 C 103.43 120.26 104.36 119.28 105.30 118.31 C 106.37 116.82 107.53 115.39 108.61 113.91 C 108.56 113.52 108.46 112.75 108.41 112.37 L 109.83 112.43 C 109.70 111.94 109.44 110.95 109.32 110.46 L 110.35 110.49 C 111.10 108.14 111.74 105.75 111.75 103.26 C 111.92 103.36 112.28 103.58 112.45 103.68 C 112.87 83.10 112.54 62.51 112.64 41.92 C 112.81 37.64 111.51 33.55 110.30 29.51 L 109.29 29.54 C 109.43 29.05 109.71 28.06 109.85 27.57 L 108.40 27.65 C 108.48 27.18 108.63 26.23 108.71 25.75 L 107.88 25.52 C 107.07 24.19 106.21 22.89 105.40 21.56 C 104.44 20.69 103.48 19.82 102.48 19.00 L 102.77 18.66 C 102.35 18.44 101.51 18.00 101.09 17.78 C 99.75 16.57 98.39 15.38 96.89 14.37 C 96.51 14.43 95.76 14.53 95.38 14.58 L 95.38 13.13 C 94.91 13.28 93.96 13.58 93.48 13.73 L 93.50 12.67 C 91.13 11.92 88.71 11.26 86.20 11.23 L 86.71 10.57 C 68.24 10.22 49.76 10.22 31.29 10.57 Z" />
<path fill="#000000" opacity="1.00" d=" M 32.17 11.58 C 50.05 11.69 67.93 11.69 85.81 11.58 C 85.68 11.78 85.42 12.19 85.29 12.39 C 87.11 12.48 88.94 12.56 90.77 12.63 L 90.34 13.82 C 90.88 13.69 91.95 13.43 92.48 13.29 L 92.63 14.64 C 93.09 14.55 94.00 14.38 94.46 14.30 L 94.68 15.60 C 95.14 15.53 96.05 15.39 96.51 15.32 L 96.58 16.68 C 97.11 16.60 98.15 16.42 98.67 16.34 L 98.19 17.40 C 98.65 17.59 99.57 17.95 100.03 18.14 C 101.74 19.86 103.44 21.60 104.99 23.48 L 105.26 23.30 C 105.79 24.39 106.30 25.49 106.77 26.61 L 107.18 26.44 C 107.51 27.09 108.16 28.41 108.49 29.06 C 108.47 29.39 108.44 30.05 108.42 30.38 L 109.71 30.53 C 109.59 31.06 109.33 32.12 109.20 32.65 L 110.42 32.26 C 110.44 33.77 110.46 35.28 110.47 36.80 L 111.41 36.12 C 111.33 58.32 111.30 80.52 111.42 102.72 C 111.22 102.64 110.83 102.49 110.63 102.42 C 110.53 104.20 110.45 105.99 110.36 107.78 L 109.13 107.39 C 109.29 107.90 109.62 108.93 109.78 109.44 L 108.76 109.56 C 108.28 110.89 107.78 112.21 107.33 113.55 L 106.31 113.63 C 106.40 114.14 106.58 115.17 106.67 115.68 L 105.51 115.13 C 105.40 115.58 105.17 116.49 105.06 116.95 C 103.21 118.46 101.59 120.23 99.96 121.97 C 99.51 122.12 98.59 122.43 98.14 122.58 L 98.67 123.69 C 98.16 123.59 97.13 123.39 96.61 123.29 L 96.52 124.67 C 96.07 124.60 95.17 124.47 94.72 124.41 L 94.46 125.68 C 93.99 125.60 93.07 125.46 92.60 125.38 L 92.48 126.75 C 91.96 126.59 90.93 126.27 90.42 126.11 L 90.75 127.37 C 88.91 127.44 87.09 127.54 85.26 127.62 L 85.87 128.42 C 67.62 128.31 49.37 128.31 31.12 128.42 L 31.84 127.78 C 29.66 127.39 27.53 126.81 25.39 126.31 L 25.39 125.36 C 24.93 125.44 24.01 125.61 23.55 125.69 L 23.27 124.38 C 22.82 124.47 21.91 124.64 21.45 124.73 L 21.61 123.79 C 20.51 123.28 19.41 122.78 18.31 122.27 L 18.47 121.99 C 16.59 120.43 14.85 118.73 13.12 117.01 C 12.95 116.56 12.59 115.65 12.41 115.20 L 11.34 115.67 C 11.42 115.15 11.60 114.10 11.68 113.58 L 10.30 113.50 C 10.38 113.05 10.54 112.16 10.62 111.71 L 9.31 111.46 C 9.39 111.00 9.55 110.07 9.63 109.61 L 8.68 109.62 C 8.06 107.21 7.47 104.80 7.13 102.34 L 6.56 102.83 C 6.70 80.94 6.70 59.03 6.56 37.14 L 7.35 37.73 C 7.46 35.90 7.55 34.07 7.64 32.23 L 8.82 32.64 C 8.68 32.11 8.40 31.06 8.26 30.54 L 9.64 30.37 C 9.56 29.91 9.41 28.99 9.33 28.53 L 10.60 28.31 C 10.53 27.85 10.40 26.94 10.33 26.48 L 11.71 26.40 C 11.61 25.88 11.41 24.85 11.32 24.34 L 12.39 24.80 C 12.57 24.36 12.94 23.48 13.13 23.04 C 14.83 21.27 16.59 19.56 18.49 17.99 L 18.31 17.24 L 19.77 17.85 L 19.34 16.33 C 19.85 16.42 20.89 16.61 21.41 16.70 L 21.49 15.31 C 21.94 15.38 22.85 15.54 23.30 15.61 L 23.54 14.32 C 24.00 14.40 24.93 14.55 25.39 14.63 L 25.38 13.69 C 27.79 13.07 30.21 12.48 32.69 12.16 C 32.56 12.01 32.30 11.72 32.17 11.58 M 54.16 28.07 C 49.01 29.15 44.26 31.85 40.54 35.54 C 31.56 44.12 29.86 58.99 36.47 69.46 C 37.25 70.59 38.06 72.23 39.72 71.85 C 41.10 69.95 38.97 68.21 38.34 66.46 C 32.20 55.81 36.19 40.94 46.55 34.47 C 53.51 29.94 62.75 29.12 70.28 32.77 C 80.49 37.15 86.45 49.26 84.01 60.04 C 83.35 63.76 81.27 66.96 79.69 70.32 C 79.52 71.73 81.42 72.53 82.15 71.25 C 90.33 60.94 88.95 44.64 79.47 35.57 C 73.03 28.94 63.16 26.11 54.16 28.07 M 57.41 57.94 C 57.33 60.12 60.13 61.94 61.72 60.03 C 63.85 55.55 65.13 50.72 67.06 46.15 C 63.95 50.17 60.27 53.74 57.41 57.94 Z" />
</g>
<g id="#e6ecefff">
<path fill="#e6ecef" opacity="1.00" d=" M 31.29 10.57 C 49.76 10.22 68.24 10.22 86.71 10.57 L 86.20 11.23 C 88.71 11.26 91.13 11.92 93.50 12.67 L 93.48 13.73 C 93.96 13.58 94.91 13.28 95.38 13.13 L 95.38 14.58 C 95.76 14.53 96.51 14.43 96.89 14.37 C 98.39 15.38 99.75 16.57 101.09 17.78 C 101.51 18.00 102.35 18.44 102.77 18.66 L 102.48 19.00 C 103.48 19.82 104.44 20.69 105.40 21.56 C 106.21 22.89 107.07 24.19 107.88 25.52 L 108.71 25.75 C 108.63 26.23 108.48 27.18 108.40 27.65 L 109.85 27.57 C 109.71 28.06 109.43 29.05 109.29 29.54 L 110.30 29.51 C 111.51 33.55 112.81 37.64 112.64 41.92 C 112.54 62.51 112.87 83.10 112.45 103.68 C 112.28 103.58 111.92 103.36 111.75 103.26 C 111.74 105.75 111.10 108.14 110.35 110.49 L 109.32 110.46 C 109.44 110.95 109.70 111.94 109.83 112.43 L 108.41 112.37 C 108.46 112.75 108.56 113.52 108.61 113.91 C 107.53 115.39 106.37 116.82 105.30 118.31 C 104.36 119.28 103.43 120.26 102.57 121.30 C 102.18 121.61 101.40 122.23 101.01 122.54 C 99.83 123.32 98.69 124.16 97.51 124.96 L 97.24 125.71 C 96.77 125.63 95.82 125.47 95.34 125.40 L 95.45 126.82 C 94.95 126.70 93.94 126.44 93.44 126.32 L 93.50 127.33 C 91.12 128.11 88.70 128.76 86.18 128.76 L 86.72 129.44 C 70.50 129.89 54.26 129.52 38.03 129.66 C 34.42 129.82 30.89 129.06 27.37 128.36 L 27.70 127.52 C 26.89 127.54 25.28 127.57 24.47 127.59 L 24.56 126.28 C 24.06 126.42 23.07 126.71 22.57 126.86 L 22.65 125.40 C 22.18 125.48 21.23 125.63 20.76 125.71 L 20.51 124.86 C 19.12 124.00 17.73 123.16 16.37 122.27 L 16.54 122.04 C 15.19 121.01 13.99 119.83 12.97 118.48 L 12.74 118.63 C 11.83 117.26 10.97 115.87 10.11 114.48 L 9.30 114.26 C 9.38 113.79 9.54 112.85 9.61 112.38 L 8.14 112.39 C 8.29 111.91 8.58 110.95 8.72 110.47 L 7.64 110.49 C 6.87 108.10 6.25 105.66 6.30 103.13 L 5.55 103.73 C 5.24 81.21 5.20 58.68 5.58 36.16 L 6.25 36.85 C 6.25 34.31 6.90 31.88 7.67 29.50 L 8.72 29.53 C 8.58 29.05 8.28 28.09 8.14 27.60 L 9.59 27.63 C 9.52 27.16 9.37 26.23 9.29 25.76 L 10.12 25.49 C 11.01 24.13 11.81 22.72 12.75 21.38 L 12.97 21.52 C 14.00 20.18 15.20 18.99 16.54 17.96 L 16.33 17.75 C 17.72 16.86 19.10 15.96 20.51 15.12 L 20.76 14.28 C 21.22 14.36 22.15 14.53 22.62 14.61 L 22.64 13.10 C 23.11 13.27 24.05 13.60 24.52 13.77 L 24.47 12.44 C 25.31 12.44 26.99 12.45 27.83 12.45 L 27.29 11.40 C 28.79 11.39 30.29 11.40 31.79 11.42 L 31.29 10.57 M 32.17 11.58 C 32.30 11.72 32.56 12.01 32.69 12.16 C 30.21 12.48 27.79 13.07 25.38 13.69 L 25.39 14.63 C 24.93 14.55 24.00 14.40 23.54 14.32 L 23.30 15.61 C 22.85 15.54 21.94 15.38 21.49 15.31 L 21.41 16.70 C 20.89 16.61 19.85 16.42 19.34 16.33 L 19.77 17.85 L 18.31 17.24 L 18.49 17.99 C 16.59 19.56 14.83 21.27 13.13 23.04 C 12.94 23.48 12.57 24.36 12.39 24.80 L 11.32 24.34 C 11.41 24.85 11.61 25.88 11.71 26.40 L 10.33 26.48 C 10.40 26.94 10.53 27.85 10.60 28.31 L 9.33 28.53 C 9.41 28.99 9.56 29.91 9.64 30.37 L 8.26 30.54 C 8.40 31.06 8.68 32.11 8.82 32.64 L 7.64 32.23 C 7.55 34.07 7.46 35.90 7.35 37.73 L 6.56 37.14 C 6.70 59.03 6.70 80.94 6.56 102.83 L 7.13 102.34 C 7.47 104.80 8.06 107.21 8.68 109.62 L 9.63 109.61 C 9.55 110.07 9.39 111.00 9.31 111.46 L 10.62 111.71 C 10.54 112.16 10.38 113.05 10.30 113.50 L 11.68 113.58 C 11.60 114.10 11.42 115.15 11.34 115.67 L 12.41 115.20 C 12.59 115.65 12.95 116.56 13.12 117.01 C 14.85 118.73 16.59 120.43 18.47 121.99 L 18.31 122.27 C 19.41 122.78 20.51 123.28 21.61 123.79 L 21.45 124.73 C 21.91 124.64 22.82 124.47 23.27 124.38 L 23.55 125.69 C 24.01 125.61 24.93 125.44 25.39 125.36 L 25.39 126.31 C 27.53 126.81 29.66 127.39 31.84 127.78 L 31.12 128.42 C 49.37 128.31 67.62 128.31 85.87 128.42 L 85.26 127.62 C 87.09 127.54 88.91 127.44 90.75 127.37 L 90.42 126.11 C 90.93 126.27 91.96 126.59 92.48 126.75 L 92.60 125.38 C 93.07 125.46 93.99 125.60 94.46 125.68 L 94.72 124.41 C 95.17 124.47 96.07 124.60 96.52 124.67 L 96.61 123.29 C 97.13 123.39 98.16 123.59 98.67 123.69 L 98.14 122.58 C 98.59 122.43 99.51 122.12 99.96 121.97 C 101.59 120.23 103.21 118.46 105.06 116.95 C 105.17 116.49 105.40 115.58 105.51 115.13 L 106.67 115.68 C 106.58 115.17 106.40 114.14 106.31 113.63 L 107.33 113.55 C 107.78 112.21 108.28 110.89 108.76 109.56 L 109.78 109.44 C 109.62 108.93 109.29 107.90 109.13 107.39 L 110.36 107.78 C 110.45 105.99 110.53 104.20 110.63 102.42 C 110.83 102.49 111.22 102.64 111.42 102.72 C 111.30 80.52 111.33 58.32 111.41 36.12 L 110.47 36.80 C 110.46 35.28 110.44 33.77 110.42 32.26 L 109.20 32.65 C 109.33 32.12 109.59 31.06 109.71 30.53 L 108.42 30.38 C 108.44 30.05 108.47 29.39 108.49 29.06 C 108.16 28.41 107.51 27.09 107.18 26.44 L 106.77 26.61 C 106.30 25.49 105.79 24.39 105.26 23.30 L 104.99 23.48 C 103.44 21.60 101.74 19.86 100.03 18.14 C 99.57 17.95 98.65 17.59 98.19 17.40 L 98.67 16.34 C 98.15 16.42 97.11 16.60 96.58 16.68 L 96.51 15.32 C 96.05 15.39 95.14 15.53 94.68 15.60 L 94.46 14.30 C 94.00 14.38 93.09 14.55 92.63 14.64 L 92.48 13.29 C 91.95 13.43 90.88 13.69 90.34 13.82 L 90.77 12.63 C 88.94 12.56 87.11 12.48 85.29 12.39 C 85.42 12.19 85.68 11.78 85.81 11.58 C 67.93 11.69 50.05 11.69 32.17 11.58 Z" />
<path fill="#e6ecef" opacity="1.00" d=" M 54.16 28.07 C 63.16 26.11 73.03 28.94 79.47 35.57 C 88.95 44.64 90.33 60.94 82.15 71.25 C 81.42 72.53 79.52 71.73 79.69 70.32 C 81.27 66.96 83.35 63.76 84.01 60.04 C 86.45 49.26 80.49 37.15 70.28 32.77 C 62.75 29.12 53.51 29.94 46.55 34.47 C 36.19 40.94 32.20 55.81 38.34 66.46 C 38.97 68.21 41.10 69.95 39.72 71.85 C 38.06 72.23 37.25 70.59 36.47 69.46 C 29.86 58.99 31.56 44.12 40.54 35.54 C 44.26 31.85 49.01 29.15 54.16 28.07 Z" />
<path fill="#e6ecef" opacity="1.00" d=" M 57.41 57.94 C 60.27 53.74 63.95 50.17 67.06 46.15 C 65.13 50.72 63.85 55.55 61.72 60.03 C 60.13 61.94 57.33 60.12 57.41 57.94 Z" />
</g>
</svg>
