<?xml version="1.0" encoding="UTF-8" ?>
<!DOCTYPE svg PUBLIC "-//W3C//DTD SVG 1.1//EN" "http://www.w3.org/Graphics/SVG/1.1/DTD/svg11.dtd">
<svg width="117px" height="140px" viewBox="0 0 117 140" version="1.1" xmlns="http://www.w3.org/2000/svg">
<g id="#000000ff">
<path fill="#000000" opacity="1.00" d=" M 0.00 0.00 L 117.00 0.00 L 117.00 140.00 L 0.00 140.00 L 0.00 0.00 M 31.27 10.60 L 31.85 11.44 C 30.31 11.43 28.77 11.43 27.23 11.43 L 27.94 12.44 C 27.07 12.45 25.34 12.46 24.48 12.47 L 24.51 13.88 C 24.05 13.68 23.13 13.27 22.67 13.06 L 22.62 14.66 C 22.15 14.56 21.22 14.38 20.76 14.29 L 20.57 15.13 C 19.15 15.96 17.79 16.88 16.41 17.77 L 16.68 18.17 C 16.30 18.59 15.52 19.43 15.14 19.85 L 14.12 19.07 L 14.78 20.77 L 13.19 20.19 L 13.90 21.63 L 12.81 21.37 C 11.91 22.76 10.98 24.12 10.13 25.54 L 9.30 25.77 C 9.39 26.23 9.56 27.17 9.65 27.63 L 8.08 27.66 C 8.27 28.12 8.66 29.05 8.85 29.51 L 7.42 29.53 C 7.44 30.38 7.47 32.09 7.48 32.95 L 6.73 32.18 C 6.26 35.13 5.34 38.01 5.40 41.02 C 5.38 60.34 5.38 79.66 5.39 98.98 C 5.34 101.95 6.25 104.80 6.70 107.70 L 7.49 107.20 C 7.48 108.02 7.45 109.67 7.43 110.49 L 8.86 110.48 C 8.66 110.94 8.28 111.87 8.09 112.33 L 9.66 112.39 C 9.57 112.86 9.40 113.79 9.31 114.25 L 10.13 114.46 C 10.96 115.86 11.88 117.22 12.77 118.58 L 13.20 118.30 C 13.61 118.69 14.43 119.46 14.85 119.85 L 14.06 120.88 L 15.76 120.23 L 15.21 121.81 L 16.62 121.12 L 16.38 122.20 C 17.77 123.11 19.14 124.04 20.57 124.88 L 20.77 125.72 C 21.23 125.62 22.15 125.43 22.61 125.33 L 22.66 126.91 C 23.12 126.72 24.05 126.34 24.51 126.16 L 24.50 127.55 C 25.29 127.54 26.85 127.52 27.64 127.51 L 27.47 128.61 C 28.94 128.59 30.41 128.57 31.88 128.54 L 31.25 129.40 C 46.50 129.87 61.76 129.48 77.01 129.62 C 80.27 129.51 83.70 130.04 86.79 128.72 C 88.06 128.64 89.33 128.57 90.60 128.51 L 90.31 127.51 C 91.11 127.52 92.70 127.54 93.50 127.55 L 93.49 126.15 C 93.95 126.34 94.88 126.72 95.35 126.91 L 95.38 125.33 C 95.84 125.42 96.77 125.62 97.23 125.72 L 97.44 124.88 C 98.88 124.03 100.25 123.08 101.65 122.18 L 101.30 121.08 L 102.71 121.87 L 102.29 120.29 L 103.98 120.79 L 103.08 119.70 L 104.34 119.42 L 104.67 118.24 L 105.21 118.60 C 106.11 117.21 107.05 115.85 107.88 114.42 L 108.71 114.25 C 108.61 113.79 108.41 112.86 108.31 112.40 L 109.88 112.36 C 109.71 111.89 109.36 110.96 109.19 110.49 L 110.27 110.50 C 111.32 106.73 112.68 102.96 112.60 98.98 C 112.63 79.65 112.63 60.32 112.60 40.99 C 112.67 37.02 111.31 33.26 110.27 29.50 L 109.18 29.51 C 109.36 29.05 109.71 28.11 109.89 27.64 L 108.33 27.62 C 108.42 27.15 108.60 26.22 108.69 25.75 L 107.87 25.55 C 107.03 24.12 106.09 22.76 105.19 21.37 L 104.81 21.75 C 104.43 21.34 103.65 20.53 103.27 20.13 L 103.91 19.06 L 102.82 19.77 C 102.43 19.38 101.64 18.61 101.25 18.22 L 101.60 17.78 C 100.22 16.88 98.86 15.96 97.44 15.13 L 97.23 14.28 C 96.77 14.38 95.84 14.58 95.38 14.68 L 95.35 13.11 C 94.88 13.29 93.95 13.65 93.48 13.83 L 93.51 12.72 C 91.12 11.96 88.68 11.27 86.14 11.26 L 86.70 10.59 C 68.23 10.26 49.74 10.24 31.27 10.60 Z" />
<path fill="#000000" opacity="1.00" d=" M 25.78 13.64 C 28.80 12.86 31.77 11.60 34.92 11.61 C 50.61 11.61 66.30 11.63 81.99 11.60 C 84.98 11.46 87.83 12.54 90.79 12.75 C 90.72 13.04 90.58 13.63 90.51 13.92 L 91.85 13.35 C 93.40 14.21 94.99 15.01 96.59 15.79 L 96.74 16.72 C 97.23 16.58 98.19 16.31 98.67 16.17 L 98.13 17.75 L 99.12 17.28 C 101.36 19.43 103.56 21.64 105.72 23.87 L 105.21 24.84 L 106.77 24.32 C 106.66 24.81 106.43 25.79 106.32 26.27 L 107.21 26.41 C 107.99 28.02 108.80 29.61 109.66 31.17 L 109.07 32.48 C 109.41 32.41 110.08 32.28 110.42 32.21 C 110.46 33.71 110.50 35.21 110.55 36.71 L 111.44 36.08 C 111.27 58.45 111.50 80.82 111.33 103.18 C 110.72 104.69 110.41 106.28 110.16 107.88 L 109.14 107.38 C 109.28 107.78 109.54 108.57 109.67 108.97 C 108.62 110.80 107.54 112.60 106.42 114.38 L 106.97 115.61 L 105.35 115.16 L 105.75 116.53 L 105.04 116.63 C 103.21 118.79 101.17 120.76 99.13 122.71 L 98.14 122.24 L 98.68 123.80 C 98.19 123.68 97.23 123.43 96.74 123.30 L 96.59 124.23 C 95.03 124.91 93.55 125.77 92.01 126.50 C 91.79 126.53 91.33 126.57 91.10 126.59 C 88.49 127.37 85.88 128.49 83.10 128.40 C 67.03 128.37 50.96 128.39 34.90 128.39 C 32.13 128.43 29.51 127.40 26.90 126.59 C 26.67 126.57 26.19 126.53 25.96 126.50 C 24.44 125.74 22.95 124.92 21.40 124.23 L 21.24 123.27 C 20.76 123.42 19.80 123.71 19.32 123.86 L 19.92 122.32 L 18.87 122.72 C 16.63 120.55 14.43 118.36 12.27 116.12 L 12.75 115.13 L 11.18 115.66 C 11.31 115.18 11.58 114.22 11.72 113.74 L 10.76 113.61 C 9.97 112.17 9.50 110.57 8.62 109.17 C 8.12 107.15 7.39 105.19 6.62 103.26 C 6.59 83.17 6.64 63.08 6.60 42.99 C 6.65 40.42 6.35 37.78 7.18 35.29 C 7.80 33.48 8.41 31.67 9.09 29.88 C 9.65 28.72 10.20 27.56 10.75 26.39 L 11.75 26.25 C 11.60 25.79 11.30 24.86 11.14 24.39 L 12.05 24.60 C 14.02 21.88 16.48 19.58 18.89 17.26 L 19.88 17.77 L 19.34 16.17 C 19.82 16.31 20.78 16.59 21.27 16.72 L 21.39 15.77 C 22.86 15.08 24.33 14.38 25.78 13.64 M 51.27 28.20 C 46.14 29.13 40.98 32.63 39.90 38.01 C 38.69 42.37 41.80 46.53 45.36 48.69 C 47.83 50.38 50.83 50.79 53.62 51.66 C 53.77 51.96 54.06 52.57 54.21 52.87 C 50.97 55.18 46.83 54.18 43.51 52.64 C 39.39 50.59 34.54 54.75 35.05 59.06 C 35.45 62.36 36.88 65.53 39.12 67.99 C 42.34 71.67 48.56 72.98 52.43 69.56 C 56.50 66.45 57.79 61.30 58.91 56.57 C 61.92 58.90 61.68 63.15 60.16 66.27 C 59.14 68.38 58.44 70.91 59.92 73.01 C 62.22 77.14 67.87 76.49 71.44 74.55 C 76.32 72.37 79.99 66.52 77.95 61.22 C 75.61 55.82 69.66 53.66 64.33 52.54 C 63.62 50.90 65.77 50.43 66.95 50.21 C 69.86 49.49 72.60 50.91 75.28 51.82 C 78.90 53.20 83.18 49.88 83.03 46.08 C 83.23 38.95 76.61 31.15 69.03 32.99 C 62.88 34.98 60.53 41.72 59.30 47.45 C 56.65 45.74 56.52 42.14 57.52 39.42 C 58.18 37.35 59.51 35.30 59.01 33.03 C 58.29 29.69 54.58 27.40 51.27 28.20 Z" />
<path fill="#000000" opacity="1.00" d=" M 42.70 41.05 C 42.06 35.76 47.23 31.74 52.03 31.08 C 54.12 30.56 56.70 32.57 55.98 34.81 C 55.22 37.50 53.75 40.10 53.96 42.98 C 54.17 45.05 54.87 47.02 55.42 49.02 C 50.48 48.02 44.51 46.40 42.70 41.05 Z" />
<path fill="#000000" opacity="1.00" d=" M 69.12 36.10 C 75.63 34.02 80.61 41.52 80.17 47.34 C 78.64 48.79 76.58 49.73 74.60 48.45 C 70.68 46.37 66.29 47.05 62.26 48.38 C 63.18 43.73 64.56 38.47 69.12 36.10 Z" />
<path fill="#000000" opacity="1.00" d=" M 57.44 50.50 C 59.26 47.82 63.18 51.83 60.86 53.86 C 58.85 56.22 54.80 52.36 57.44 50.50 Z" />
<path fill="#000000" opacity="1.00" d=" M 38.20 60.03 C 37.44 57.97 38.70 55.30 41.00 55.06 C 43.71 55.58 46.13 57.24 48.95 57.25 C 51.35 57.39 53.60 56.46 55.86 55.81 C 55.02 60.58 53.60 66.14 48.74 68.33 C 43.48 69.73 39.20 64.71 38.20 60.03 Z" />
<path fill="#000000" opacity="1.00" d=" M 62.80 55.26 C 67.63 56.34 73.53 57.74 75.37 63.01 C 76.47 69.40 69.37 73.65 63.71 73.14 C 63.10 72.11 62.11 71.22 61.98 69.98 C 62.60 67.61 64.07 65.49 64.20 63.00 C 64.51 60.32 63.49 57.78 62.80 55.26 Z" />
</g>
<g id="#f4f8f6ff">
<path fill="#f4f8f6" opacity="1.00" d=" M 31.27 10.60 C 49.74 10.24 68.23 10.26 86.70 10.59 L 86.14 11.26 C 88.68 11.27 91.12 11.96 93.51 12.72 L 93.48 13.83 C 93.95 13.65 94.88 13.29 95.35 13.11 L 95.38 14.68 C 95.84 14.58 96.77 14.38 97.23 14.28 L 97.44 15.13 C 98.86 15.96 100.22 16.88 101.60 17.78 L 101.25 18.22 C 101.64 18.61 102.43 19.38 102.82 19.77 L 103.91 19.06 L 103.27 20.13 C 103.65 20.53 104.43 21.34 104.81 21.75 L 105.19 21.37 C 106.09 22.76 107.03 24.12 107.87 25.55 L 108.69 25.75 C 108.60 26.22 108.42 27.15 108.33 27.62 L 109.89 27.64 C 109.71 28.11 109.36 29.05 109.18 29.51 L 110.27 29.50 C 111.31 33.26 112.67 37.02 112.60 40.99 C 112.63 60.32 112.63 79.65 112.60 98.98 C 112.68 102.96 111.32 106.73 110.27 110.50 L 109.19 110.49 C 109.36 110.96 109.71 111.89 109.88 112.36 L 108.31 112.40 C 108.41 112.86 108.61 113.79 108.71 114.25 L 107.88 114.42 C 107.05 115.85 106.11 117.21 105.21 118.60 L 104.67 118.24 L 104.34 119.42 L 103.08 119.70 L 103.98 120.79 L 102.29 120.29 L 102.71 121.87 L 101.30 121.08 L 101.65 122.18 C 100.25 123.08 98.88 124.03 97.44 124.88 L 97.23 125.72 C 96.77 125.62 95.84 125.42 95.38 125.33 L 95.35 126.91 C 94.88 126.72 93.95 126.34 93.49 126.15 L 93.50 127.55 C 92.70 127.54 91.11 127.52 90.31 127.51 L 90.60 128.51 C 89.33 128.57 88.06 128.64 86.79 128.72 C 83.70 130.04 80.27 129.51 77.01 129.62 C 61.76 129.48 46.50 129.87 31.25 129.40 L 31.88 128.54 C 30.41 128.57 28.94 128.59 27.47 128.61 L 27.64 127.51 C 26.85 127.52 25.29 127.54 24.50 127.55 L 24.51 126.16 C 24.05 126.34 23.12 126.72 22.66 126.91 L 22.61 125.33 C 22.15 125.43 21.23 125.62 20.77 125.72 L 20.57 124.88 C 19.14 124.04 17.77 123.11 16.38 122.20 L 16.62 121.12 L 15.21 121.81 L 15.76 120.23 L 14.06 120.88 L 14.85 119.85 C 14.43 119.46 13.61 118.69 13.20 118.30 L 12.77 118.58 C 11.88 117.22 10.96 115.86 10.13 114.46 L 9.31 114.25 C 9.40 113.79 9.57 112.86 9.66 112.39 L 8.09 112.33 C 8.28 111.87 8.66 110.94 8.86 110.48 L 7.43 110.49 C 7.45 109.67 7.48 108.02 7.49 107.20 L 6.70 107.70 C 6.25 104.80 5.34 101.95 5.39 98.98 C 5.38 79.66 5.38 60.34 5.40 41.02 C 5.34 38.01 6.26 35.13 6.73 32.18 L 7.48 32.95 C 7.47 32.09 7.44 30.38 7.42 29.53 L 8.85 29.51 C 8.66 29.05 8.27 28.12 8.08 27.66 L 9.65 27.63 C 9.56 27.17 9.39 26.23 9.30 25.77 L 10.13 25.54 C 10.98 24.12 11.91 22.76 12.81 21.37 L 13.90 21.63 L 13.19 20.19 L 14.78 20.77 L 14.12 19.07 L 15.14 19.85 C 15.52 19.43 16.30 18.59 16.68 18.17 L 16.41 17.77 C 17.79 16.88 19.15 15.96 20.57 15.13 L 20.76 14.29 C 21.22 14.38 22.15 14.56 22.62 14.66 L 22.67 13.06 C 23.13 13.27 24.05 13.68 24.51 13.88 L 24.48 12.47 C 25.34 12.46 27.07 12.45 27.94 12.44 L 27.23 11.43 C 28.77 11.43 30.31 11.43 31.85 11.44 L 31.27 10.60 M 25.78 13.64 C 24.33 14.38 22.86 15.08 21.39 15.77 L 21.27 16.72 C 20.78 16.59 19.82 16.31 19.34 16.17 L 19.88 17.77 L 18.89 17.26 C 16.48 19.58 14.02 21.88 12.05 24.60 L 11.14 24.39 C 11.30 24.86 11.60 25.79 11.75 26.25 L 10.75 26.39 C 10.20 27.56 9.65 28.72 9.09 29.88 C 8.41 31.67 7.80 33.48 7.18 35.29 C 6.35 37.78 6.65 40.42 6.60 42.99 C 6.64 63.08 6.59 83.17 6.62 103.26 C 7.39 105.19 8.12 107.15 8.62 109.17 C 9.50 110.57 9.97 112.17 10.76 113.61 L 11.72 113.74 C 11.58 114.22 11.31 115.18 11.18 115.66 L 12.75 115.13 L 12.27 116.12 C 14.43 118.36 16.63 120.55 18.87 122.72 L 19.92 122.32 L 19.32 123.86 C 19.80 123.71 20.76 123.42 21.24 123.27 L 21.40 124.23 C 22.95 124.92 24.44 125.74 25.96 126.50 C 26.19 126.53 26.67 126.57 26.90 126.59 C 29.51 127.40 32.13 128.43 34.90 128.39 C 50.96 128.39 67.03 128.37 83.10 128.40 C 85.88 128.49 88.49 127.37 91.10 126.59 C 91.33 126.57 91.79 126.53 92.01 126.50 C 93.55 125.77 95.03 124.91 96.59 124.23 L 96.74 123.30 C 97.23 123.43 98.19 123.68 98.68 123.80 L 98.14 122.24 L 99.13 122.71 C 101.17 120.76 103.21 118.79 105.04 116.63 L 105.75 116.53 L 105.35 115.16 L 106.97 115.61 L 106.42 114.38 C 107.54 112.60 108.62 110.80 109.67 108.97 C 109.54 108.57 109.28 107.78 109.14 107.38 L 110.16 107.88 C 110.41 106.28 110.72 104.69 111.33 103.18 C 111.50 80.82 111.27 58.45 111.44 36.08 L 110.55 36.71 C 110.50 35.21 110.46 33.71 110.42 32.21 C 110.08 32.28 109.41 32.41 109.07 32.48 L 109.66 31.17 C 108.80 29.61 107.99 28.02 107.21 26.41 L 106.32 26.27 C 106.43 25.79 106.66 24.81 106.77 24.32 L 105.21 24.84 L 105.72 23.87 C 103.56 21.64 101.36 19.43 99.12 17.28 L 98.13 17.75 L 98.67 16.17 C 98.19 16.31 97.23 16.58 96.74 16.72 L 96.59 15.79 C 94.99 15.01 93.40 14.21 91.85 13.35 L 90.51 13.92 C 90.58 13.63 90.72 13.04 90.79 12.75 C 87.83 12.54 84.98 11.46 81.99 11.60 C 66.30 11.63 50.61 11.61 34.92 11.61 C 31.77 11.60 28.80 12.86 25.78 13.64 Z" />
<path fill="#f4f8f6" opacity="1.00" d=" M 51.27 28.20 C 54.58 27.40 58.29 29.69 59.01 33.03 C 59.51 35.30 58.18 37.35 57.52 39.42 C 56.52 42.14 56.65 45.74 59.30 47.45 C 60.53 41.72 62.88 34.98 69.03 32.99 C 76.61 31.15 83.23 38.95 83.03 46.08 C 83.18 49.88 78.90 53.20 75.28 51.82 C 72.60 50.91 69.86 49.49 66.95 50.21 C 65.77 50.43 63.62 50.90 64.33 52.54 C 69.66 53.66 75.61 55.82 77.95 61.22 C 79.99 66.52 76.32 72.37 71.44 74.55 C 67.87 76.49 62.22 77.14 59.92 73.01 C 58.44 70.91 59.14 68.38 60.16 66.27 C 61.68 63.15 61.92 58.90 58.91 56.57 C 57.79 61.30 56.50 66.45 52.43 69.56 C 48.56 72.98 42.34 71.67 39.12 67.99 C 36.88 65.53 35.45 62.36 35.05 59.06 C 34.54 54.75 39.39 50.59 43.51 52.64 C 46.83 54.18 50.97 55.18 54.21 52.87 C 54.06 52.57 53.77 51.96 53.62 51.66 C 50.83 50.79 47.83 50.38 45.36 48.69 C 41.80 46.53 38.69 42.37 39.90 38.01 C 40.98 32.63 46.14 29.13 51.27 28.20 M 42.70 41.05 C 44.51 46.40 50.48 48.02 55.42 49.02 C 54.87 47.02 54.17 45.05 53.96 42.98 C 53.75 40.10 55.22 37.50 55.98 34.81 C 56.70 32.57 54.12 30.56 52.03 31.08 C 47.23 31.74 42.06 35.76 42.70 41.05 M 69.12 36.10 C 64.56 38.47 63.18 43.73 62.26 48.38 C 66.29 47.05 70.68 46.37 74.60 48.45 C 76.58 49.73 78.64 48.79 80.17 47.34 C 80.61 41.52 75.63 34.02 69.12 36.10 M 57.44 50.50 C 54.80 52.36 58.85 56.22 60.86 53.86 C 63.18 51.83 59.26 47.82 57.44 50.50 M 38.20 60.03 C 39.20 64.71 43.48 69.73 48.74 68.33 C 53.60 66.14 55.02 60.58 55.86 55.81 C 53.60 56.46 51.35 57.39 48.95 57.25 C 46.13 57.24 43.71 55.58 41.00 55.06 C 38.70 55.30 37.44 57.97 38.20 60.03 M 62.80 55.26 C 63.49 57.78 64.51 60.32 64.20 63.00 C 64.07 65.49 62.60 67.61 61.98 69.98 C 62.11 71.22 63.10 72.11 63.71 73.14 C 69.37 73.65 76.47 69.40 75.37 63.01 C 73.53 57.74 67.63 56.34 62.80 55.26 Z" />
</g>
</svg>
