<?xml version="1.0" encoding="UTF-8" ?>
<!DOCTYPE svg PUBLIC "-//W3C//DTD SVG 1.1//EN" "http://www.w3.org/Graphics/SVG/1.1/DTD/svg11.dtd">
<svg width="117px" height="140px" viewBox="0 0 117 140" version="1.1" xmlns="http://www.w3.org/2000/svg">
<g id="#000000ff">
<path fill="#000000" opacity="1.00" d=" M 0.00 0.00 L 117.00 0.00 L 117.00 140.00 L 0.00 140.00 L 0.00 0.00 M 31.50 10.58 L 31.51 11.47 C 30.14 11.45 28.77 11.44 27.40 11.43 L 27.65 12.50 C 26.86 12.49 25.28 12.47 24.49 12.46 L 24.57 13.80 C 24.08 13.64 23.11 13.31 22.62 13.15 L 22.64 14.63 C 22.14 14.56 21.15 14.41 20.66 14.33 L 20.60 15.17 C 19.18 16.01 17.79 16.90 16.39 17.76 L 16.77 18.34 C 16.34 18.51 15.47 18.85 15.03 19.02 C 14.35 19.85 13.71 20.70 13.10 21.58 L 12.78 21.39 C 11.92 22.79 11.03 24.17 10.17 25.57 L 9.31 25.72 C 9.40 26.20 9.57 27.16 9.66 27.64 L 8.17 27.62 C 8.32 28.11 8.62 29.09 8.78 29.58 L 7.43 29.50 C 7.45 30.30 7.50 31.90 7.52 32.69 L 6.51 32.38 C 6.46 33.07 6.37 34.47 6.33 35.16 C 5.34 37.65 5.39 40.36 5.38 42.99 C 5.41 61.67 5.37 80.36 5.40 99.04 C 5.34 103.00 6.74 106.75 7.73 110.53 L 8.77 110.42 C 8.62 110.91 8.33 111.88 8.18 112.37 L 9.23 112.38 C 9.47 113.00 9.94 114.24 10.18 114.86 C 11.07 116.09 11.96 117.32 12.86 118.55 L 13.79 118.30 L 13.21 119.76 L 14.48 119.13 L 14.38 120.57 L 15.82 120.53 L 15.28 121.79 L 16.74 121.24 L 16.41 122.23 C 17.77 123.10 19.13 123.98 20.52 124.82 C 20.60 125.06 20.77 125.53 20.86 125.77 L 22.54 125.23 L 22.64 126.82 C 23.12 126.67 24.09 126.37 24.57 126.23 L 24.49 127.54 C 25.29 127.53 26.88 127.51 27.68 127.49 L 27.41 128.61 C 28.81 128.58 30.21 128.55 31.62 128.51 L 31.47 129.43 C 46.61 129.83 61.77 129.50 76.92 129.61 C 80.20 129.54 83.59 129.94 86.75 128.85 C 89.06 128.61 91.29 127.95 93.51 127.29 L 93.43 126.24 C 93.92 126.39 94.91 126.68 95.40 126.82 L 95.33 125.76 C 95.94 125.55 97.17 125.12 97.78 124.90 C 99.04 123.99 100.29 123.05 101.55 122.12 L 101.28 121.21 L 102.74 121.80 L 102.17 120.54 L 103.61 120.58 L 103.53 119.14 L 104.79 119.76 L 104.20 118.30 L 105.24 118.61 C 106.11 117.21 106.97 115.82 107.81 114.41 L 108.67 114.31 C 108.59 113.83 108.42 112.86 108.33 112.38 L 109.81 112.41 C 109.67 111.91 109.39 110.92 109.25 110.43 L 110.26 110.52 C 111.29 106.75 112.68 102.99 112.59 99.03 C 112.64 80.00 112.59 60.97 112.61 41.94 C 112.73 38.69 111.86 35.55 111.33 32.37 L 110.49 32.65 C 110.50 31.86 110.54 30.29 110.56 29.50 L 109.22 29.58 C 109.37 29.09 109.68 28.11 109.84 27.62 L 108.76 27.66 C 108.54 27.05 108.11 25.83 107.89 25.23 C 106.98 23.95 106.06 22.69 105.14 21.43 L 104.21 21.72 L 104.79 20.26 L 103.51 20.84 L 103.60 19.37 L 102.14 19.50 L 102.76 18.21 L 101.29 18.80 L 101.56 17.87 C 100.29 16.95 99.04 16.03 97.77 15.12 C 97.16 14.90 95.94 14.45 95.33 14.23 L 95.38 13.17 C 94.90 13.32 93.92 13.63 93.43 13.78 L 93.52 12.73 C 91.03 12.06 88.55 11.37 86.07 10.66 C 67.89 10.17 49.68 10.33 31.50 10.58 Z" />
<path fill="#000000" opacity="1.00" d=" M 27.17 13.17 C 28.45 12.79 29.75 12.47 31.04 12.12 C 34.31 11.22 37.73 11.71 41.08 11.61 C 56.25 11.55 71.43 11.72 86.60 11.52 L 86.47 12.50 C 87.89 12.51 89.32 12.51 90.74 12.51 L 90.39 13.22 C 92.45 13.70 94.35 14.65 96.22 15.60 C 97.06 16.14 97.91 16.67 98.76 17.19 C 101.44 19.36 103.97 21.75 105.91 24.63 L 106.74 24.31 C 106.64 24.83 106.46 25.88 106.37 26.40 L 107.32 26.34 C 108.17 28.26 109.03 30.17 109.75 32.13 C 110.26 33.69 110.78 35.24 111.38 36.76 C 111.42 58.18 111.37 79.60 111.40 101.01 C 111.46 102.37 111.18 103.64 110.57 104.85 C 110.54 105.57 110.47 107.02 110.44 107.75 L 109.80 107.40 C 109.27 109.46 108.37 111.40 107.38 113.27 C 106.85 114.10 106.32 114.94 105.79 115.77 C 103.64 118.47 101.22 120.96 98.37 122.91 L 98.69 123.74 C 98.18 123.65 97.15 123.46 96.63 123.36 L 96.64 124.31 C 94.60 125.25 92.55 126.18 90.38 126.79 L 90.79 127.29 C 87.82 127.43 84.98 128.54 82.00 128.41 C 66.65 128.38 51.30 128.38 35.96 128.41 C 34.33 128.42 32.69 128.33 31.11 127.90 C 29.79 127.54 28.46 127.19 27.15 126.80 C 25.20 126.03 23.29 125.15 21.37 124.31 L 21.34 123.36 C 20.83 123.46 19.82 123.64 19.31 123.73 L 19.65 122.88 C 16.74 121.00 14.37 118.44 12.20 115.77 C 11.67 114.92 11.14 114.08 10.61 113.24 C 9.64 111.36 8.72 109.44 8.20 107.38 L 7.73 107.77 C 7.52 105.15 6.50 102.65 6.59 100.00 C 6.64 78.92 6.56 57.85 6.64 36.77 C 7.23 35.26 7.72 33.71 8.22 32.17 C 8.90 30.34 9.72 28.56 10.59 26.81 C 11.12 25.95 11.65 25.10 12.18 24.24 C 14.26 21.66 16.62 19.31 19.19 17.21 C 20.05 16.69 20.91 16.15 21.76 15.60 C 23.54 14.73 25.33 13.91 27.17 13.17 M 44.34 31.16 C 39.44 34.22 35.15 38.51 32.88 43.88 C 30.40 49.21 30.23 55.31 31.18 61.02 C 33.16 70.14 40.24 77.95 49.12 80.81 C 53.25 82.44 57.75 82.04 62.09 81.95 C 72.78 80.57 82.12 72.19 84.66 61.72 C 85.82 55.82 85.69 49.45 83.14 43.92 C 78.90 34.31 68.63 27.31 58.00 27.96 C 53.21 27.53 48.60 29.13 44.34 31.16 Z" />
<path fill="#000000" opacity="1.00" d=" M 51.75 31.02 C 52.44 31.00 53.83 30.98 54.52 30.96 C 54.68 32.66 55.09 34.34 56.45 35.48 C 56.84 34.86 57.61 33.60 57.99 32.97 C 60.91 31.02 64.39 30.39 67.57 32.18 C 68.04 32.46 69.00 33.04 69.47 33.33 C 69.69 33.94 70.13 35.15 70.35 35.76 C 72.35 35.06 73.97 36.09 75.07 37.75 C 73.82 37.76 72.58 37.76 71.35 37.77 L 72.31 39.96 C 70.84 38.48 69.35 37.01 67.83 35.59 C 67.19 37.77 68.19 38.95 70.31 39.13 C 70.67 40.01 71.39 41.77 71.76 42.65 C 71.08 42.55 69.72 42.34 69.04 42.23 C 69.65 43.51 69.45 45.48 71.23 45.88 C 72.27 44.86 73.11 43.67 74.08 42.60 C 75.27 42.98 76.46 43.38 77.65 43.78 C 77.56 44.12 77.37 44.79 77.28 45.13 C 79.63 45.07 81.44 46.53 82.45 48.54 C 80.95 48.38 79.45 48.15 77.95 48.31 C 77.07 47.44 76.37 46.45 75.85 45.34 C 74.24 45.56 72.63 45.75 71.07 46.18 C 69.71 48.08 68.59 50.15 67.30 52.09 C 67.19 55.12 68.09 57.89 70.26 60.05 C 71.67 59.87 73.09 59.69 74.50 59.48 C 74.93 59.77 75.78 60.34 76.21 60.62 C 76.58 65.32 74.48 69.50 72.79 73.74 C 72.40 74.88 71.64 75.84 70.53 76.36 C 67.37 78.24 63.70 78.69 60.33 79.92 C 58.78 79.97 57.23 79.97 55.68 79.93 C 54.39 79.29 53.03 78.81 51.62 78.51 C 51.98 75.80 54.02 73.81 55.21 71.46 C 58.31 70.16 58.27 66.38 60.09 63.95 C 57.99 63.16 55.87 62.44 53.76 61.66 C 52.65 59.23 49.97 58.50 47.82 57.29 C 45.49 56.07 43.07 57.24 40.76 57.84 C 40.39 56.45 39.96 55.07 38.92 54.02 C 38.99 53.39 39.13 52.13 39.20 51.50 C 38.65 52.20 37.54 53.60 36.99 54.30 C 36.20 52.59 36.30 50.76 36.71 48.96 C 37.66 48.74 39.56 48.31 40.51 48.09 C 40.96 49.41 40.92 50.71 40.41 51.98 C 41.40 52.48 42.37 52.99 43.35 53.51 C 44.73 53.67 46.11 53.79 47.50 53.86 C 45.45 53.20 43.37 52.67 41.30 52.10 C 41.37 50.70 41.45 49.29 41.52 47.89 C 43.91 45.28 45.69 41.26 49.82 41.43 C 49.39 41.06 48.53 40.32 48.10 39.94 C 48.89 39.59 50.48 38.89 51.27 38.53 C 51.40 39.69 51.88 40.68 52.69 41.51 C 52.57 39.22 51.65 37.13 50.69 35.10 C 50.40 35.23 49.81 35.49 49.51 35.62 C 49.10 35.11 48.29 34.09 47.88 33.58 C 46.73 35.42 45.63 37.30 44.62 39.21 C 44.51 37.79 43.98 36.53 43.01 35.45 C 45.20 34.17 47.48 33.07 49.68 31.80 C 49.57 32.50 49.36 33.91 49.25 34.61 C 50.43 33.86 51.62 33.12 52.82 32.40 L 51.75 31.02 Z" />
<path fill="#000000" opacity="1.00" d=" M 33.00 50.57 C 33.93 54.48 38.01 55.22 40.27 58.04 C 40.85 58.16 42.01 58.41 42.60 58.54 C 42.29 60.04 42.02 61.55 41.78 63.06 C 42.40 65.78 44.74 67.56 46.69 69.35 C 47.79 72.40 48.36 75.68 50.20 78.43 C 48.91 77.91 47.65 77.32 46.36 76.80 C 41.15 73.77 36.87 69.06 34.64 63.44 C 34.12 61.75 33.80 59.99 33.10 58.35 C 32.97 55.76 32.97 53.16 33.00 50.57 Z" />
</g>
<g id="#f7fbf8ff">
<path fill="#f7fbf8" opacity="1.00" d=" M 31.50 10.58 C 49.68 10.33 67.89 10.17 86.07 10.66 C 88.55 11.37 91.03 12.06 93.52 12.73 L 93.43 13.78 C 93.92 13.63 94.90 13.32 95.38 13.17 L 95.33 14.23 C 95.94 14.45 97.16 14.90 97.77 15.12 C 99.04 16.03 100.29 16.95 101.56 17.87 L 101.29 18.80 L 102.76 18.21 L 102.14 19.50 L 103.60 19.37 L 103.51 20.84 L 104.79 20.26 L 104.21 21.72 L 105.14 21.43 C 106.06 22.69 106.98 23.95 107.89 25.23 C 108.11 25.83 108.54 27.05 108.76 27.66 L 109.84 27.62 C 109.68 28.11 109.37 29.09 109.22 29.58 L 110.56 29.50 C 110.54 30.29 110.50 31.86 110.49 32.65 L 111.33 32.37 C 111.86 35.55 112.73 38.69 112.61 41.94 C 112.59 60.97 112.64 80.00 112.59 99.03 C 112.68 102.99 111.29 106.75 110.26 110.52 L 109.25 110.43 C 109.39 110.92 109.67 111.91 109.81 112.41 L 108.33 112.38 C 108.42 112.86 108.59 113.83 108.67 114.31 L 107.81 114.41 C 106.97 115.82 106.11 117.21 105.24 118.61 L 104.20 118.30 L 104.79 119.76 L 103.53 119.14 L 103.61 120.58 L 102.17 120.54 L 102.74 121.80 L 101.28 121.21 L 101.55 122.12 C 100.29 123.05 99.04 123.99 97.78 124.90 C 97.17 125.12 95.94 125.55 95.33 125.76 L 95.40 126.82 C 94.91 126.68 93.92 126.39 93.43 126.24 L 93.51 127.29 C 91.29 127.95 89.06 128.61 86.75 128.85 C 83.59 129.94 80.20 129.54 76.92 129.61 C 61.77 129.50 46.61 129.83 31.47 129.43 L 31.62 128.51 C 30.21 128.55 28.81 128.58 27.41 128.61 L 27.68 127.49 C 26.88 127.51 25.29 127.53 24.49 127.54 L 24.57 126.23 C 24.09 126.37 23.12 126.67 22.64 126.82 L 22.54 125.23 L 20.86 125.77 C 20.77 125.53 20.60 125.06 20.52 124.82 C 19.13 123.98 17.77 123.10 16.41 122.23 L 16.74 121.24 L 15.28 121.79 L 15.82 120.53 L 14.38 120.57 L 14.48 119.13 L 13.21 119.76 L 13.79 118.30 L 12.86 118.55 C 11.96 117.32 11.07 116.09 10.18 114.86 C 9.94 114.24 9.47 113.00 9.23 112.38 L 8.18 112.37 C 8.33 111.88 8.62 110.91 8.77 110.42 L 7.73 110.53 C 6.74 106.75 5.34 103.00 5.40 99.04 C 5.37 80.36 5.41 61.67 5.38 42.99 C 5.39 40.36 5.34 37.65 6.33 35.16 C 6.37 34.47 6.46 33.07 6.51 32.38 L 7.52 32.69 C 7.50 31.90 7.45 30.30 7.43 29.50 L 8.78 29.58 C 8.62 29.09 8.32 28.11 8.17 27.62 L 9.66 27.64 C 9.57 27.16 9.40 26.20 9.31 25.72 L 10.17 25.57 C 11.03 24.17 11.92 22.79 12.78 21.39 L 13.10 21.58 C 13.71 20.70 14.35 19.85 15.03 19.02 C 15.47 18.85 16.34 18.51 16.77 18.34 L 16.39 17.76 C 17.79 16.90 19.18 16.01 20.60 15.17 L 20.66 14.33 C 21.15 14.41 22.14 14.56 22.64 14.63 L 22.62 13.15 C 23.11 13.31 24.08 13.64 24.57 13.80 L 24.49 12.46 C 25.28 12.47 26.86 12.49 27.65 12.50 L 27.40 11.43 C 28.77 11.44 30.14 11.45 31.51 11.47 L 31.50 10.58 M 27.17 13.17 C 25.33 13.91 23.54 14.73 21.76 15.60 C 20.91 16.15 20.05 16.69 19.19 17.21 C 16.62 19.31 14.26 21.66 12.18 24.24 C 11.65 25.10 11.12 25.95 10.59 26.81 C 9.72 28.56 8.90 30.34 8.22 32.17 C 7.72 33.71 7.23 35.26 6.64 36.77 C 6.56 57.85 6.64 78.92 6.59 100.00 C 6.50 102.65 7.52 105.15 7.73 107.77 L 8.20 107.38 C 8.72 109.44 9.64 111.36 10.61 113.24 C 11.14 114.08 11.67 114.92 12.20 115.77 C 14.37 118.44 16.74 121.00 19.65 122.88 L 19.31 123.73 C 19.82 123.64 20.83 123.46 21.34 123.36 L 21.37 124.31 C 23.29 125.15 25.20 126.03 27.15 126.80 C 28.46 127.19 29.79 127.54 31.11 127.90 C 32.69 128.33 34.33 128.42 35.96 128.41 C 51.30 128.38 66.65 128.38 82.00 128.41 C 84.98 128.54 87.82 127.43 90.79 127.29 L 90.38 126.79 C 92.55 126.18 94.60 125.25 96.64 124.31 L 96.63 123.36 C 97.15 123.46 98.18 123.65 98.69 123.74 L 98.37 122.91 C 101.22 120.96 103.64 118.47 105.79 115.77 C 106.32 114.94 106.85 114.10 107.38 113.27 C 108.37 111.40 109.27 109.46 109.80 107.40 L 110.44 107.75 C 110.47 107.02 110.54 105.57 110.57 104.85 C 111.18 103.64 111.46 102.37 111.40 101.01 C 111.37 79.60 111.42 58.18 111.38 36.76 C 110.78 35.24 110.26 33.69 109.75 32.13 C 109.03 30.17 108.17 28.26 107.32 26.34 L 106.37 26.40 C 106.46 25.88 106.64 24.83 106.74 24.31 L 105.91 24.63 C 103.97 21.75 101.44 19.36 98.76 17.19 C 97.91 16.67 97.06 16.14 96.22 15.60 C 94.35 14.65 92.45 13.70 90.39 13.22 L 90.74 12.51 C 89.32 12.51 87.89 12.51 86.47 12.50 L 86.60 11.52 C 71.43 11.72 56.25 11.55 41.08 11.61 C 37.73 11.71 34.31 11.22 31.04 12.12 C 29.75 12.47 28.45 12.79 27.17 13.17 Z" />
<path fill="#f7fbf8" opacity="1.00" d=" M 44.34 31.16 C 48.60 29.13 53.21 27.53 58.00 27.96 C 68.63 27.31 78.90 34.31 83.14 43.92 C 85.69 49.45 85.82 55.82 84.66 61.72 C 82.12 72.19 72.78 80.57 62.09 81.95 C 57.75 82.04 53.25 82.44 49.12 80.81 C 40.24 77.95 33.16 70.14 31.18 61.02 C 30.23 55.31 30.40 49.21 32.88 43.88 C 35.15 38.51 39.44 34.22 44.34 31.16 M 51.75 31.02 L 52.82 32.40 C 51.62 33.12 50.43 33.86 49.25 34.61 C 49.36 33.91 49.57 32.50 49.68 31.80 C 47.48 33.07 45.20 34.17 43.01 35.45 C 43.98 36.53 44.51 37.79 44.62 39.21 C 45.63 37.30 46.73 35.42 47.88 33.58 C 48.29 34.09 49.10 35.11 49.51 35.62 C 49.81 35.49 50.40 35.23 50.69 35.10 C 51.65 37.13 52.57 39.22 52.69 41.51 C 51.88 40.68 51.40 39.69 51.27 38.53 C 50.48 38.89 48.89 39.59 48.10 39.94 C 48.53 40.32 49.39 41.06 49.82 41.43 C 45.69 41.26 43.91 45.28 41.52 47.89 C 41.45 49.29 41.37 50.70 41.30 52.10 C 43.37 52.67 45.45 53.20 47.50 53.86 C 46.11 53.79 44.73 53.67 43.35 53.51 C 42.37 52.99 41.40 52.48 40.41 51.98 C 40.92 50.71 40.96 49.41 40.51 48.09 C 39.56 48.31 37.66 48.74 36.71 48.96 C 36.30 50.76 36.20 52.59 36.99 54.30 C 37.54 53.60 38.65 52.20 39.20 51.50 C 39.13 52.13 38.99 53.39 38.92 54.02 C 39.96 55.07 40.39 56.45 40.76 57.84 C 43.07 57.24 45.49 56.07 47.82 57.29 C 49.97 58.50 52.65 59.23 53.76 61.66 C 55.87 62.44 57.99 63.16 60.09 63.95 C 58.27 66.38 58.31 70.16 55.21 71.46 C 54.02 73.81 51.98 75.80 51.62 78.51 C 53.03 78.81 54.39 79.29 55.68 79.93 C 57.23 79.97 58.78 79.97 60.33 79.92 C 63.70 78.69 67.37 78.24 70.53 76.36 C 71.64 75.84 72.40 74.88 72.79 73.74 C 74.48 69.50 76.58 65.32 76.21 60.62 C 75.78 60.34 74.93 59.77 74.50 59.48 C 73.09 59.69 71.67 59.87 70.26 60.05 C 68.09 57.89 67.19 55.12 67.30 52.09 C 68.59 50.15 69.71 48.08 71.07 46.18 C 72.63 45.75 74.24 45.56 75.85 45.34 C 76.37 46.45 77.07 47.44 77.95 48.31 C 79.45 48.15 80.95 48.38 82.45 48.54 C 81.44 46.53 79.63 45.07 77.28 45.13 C 77.37 44.79 77.56 44.12 77.65 43.78 C 76.46 43.38 75.27 42.98 74.08 42.60 C 73.11 43.67 72.27 44.86 71.23 45.88 C 69.45 45.48 69.65 43.51 69.04 42.23 C 69.72 42.34 71.08 42.55 71.76 42.65 C 71.39 41.77 70.67 40.01 70.31 39.13 C 68.19 38.95 67.19 37.77 67.83 35.59 C 69.35 37.01 70.84 38.48 72.31 39.96 L 71.35 37.77 C 72.58 37.76 73.82 37.76 75.07 37.75 C 73.97 36.09 72.35 35.06 70.35 35.76 C 70.13 35.15 69.69 33.94 69.47 33.33 C 69.00 33.04 68.04 32.46 67.57 32.18 C 64.39 30.39 60.91 31.02 57.99 32.97 C 57.61 33.60 56.84 34.86 56.45 35.48 C 55.09 34.34 54.68 32.66 54.52 30.96 C 53.83 30.98 52.44 31.00 51.75 31.02 M 33.00 50.57 C 32.97 53.16 32.97 55.76 33.10 58.35 C 33.80 59.99 34.12 61.75 34.64 63.44 C 36.87 69.06 41.15 73.77 46.36 76.80 C 47.65 77.32 48.91 77.91 50.20 78.43 C 48.36 75.68 47.79 72.40 46.69 69.35 C 44.74 67.56 42.40 65.78 41.78 63.06 C 42.02 61.55 42.29 60.04 42.60 58.54 C 42.01 58.41 40.85 58.16 40.27 58.04 C 38.01 55.22 33.93 54.48 33.00 50.57 Z" />
</g>
</svg>
