<?xml version="1.0" encoding="UTF-8" ?>
<!DOCTYPE svg PUBLIC "-//W3C//DTD SVG 1.1//EN" "http://www.w3.org/Graphics/SVG/1.1/DTD/svg11.dtd">
<svg width="117px" height="140px" viewBox="0 0 117 140" version="1.1" xmlns="http://www.w3.org/2000/svg">
<g id="#000000ff">
<path fill="#000000" opacity="1.00" d=" M 0.00 0.00 L 117.00 0.00 L 117.00 140.00 L 0.00 140.00 L 0.00 0.00 M 31.32 10.55 L 31.73 11.22 C 29.25 11.27 26.85 11.90 24.50 12.64 L 24.51 13.67 C 24.03 13.54 23.08 13.28 22.61 13.15 L 22.60 14.57 C 22.22 14.52 21.48 14.42 21.11 14.37 C 19.57 15.53 18.02 16.67 16.46 17.79 L 16.38 17.96 C 15.56 18.76 14.74 19.57 13.93 20.38 L 13.66 20.29 C 13.41 20.70 12.90 21.50 12.64 21.90 C 11.53 23.29 10.44 24.69 9.33 26.07 C 9.40 26.44 9.53 27.19 9.59 27.56 L 8.21 27.58 C 8.31 28.08 8.52 29.07 8.62 29.56 L 7.60 29.53 C 7.05 31.56 6.48 33.59 6.15 35.68 L 5.67 35.49 C 5.13 42.32 5.39 49.17 5.33 56.01 C 5.52 72.18 4.94 88.37 5.66 104.53 L 6.16 104.31 C 6.48 106.39 7.02 108.43 7.57 110.46 L 8.66 110.48 C 8.54 110.96 8.28 111.92 8.15 112.41 L 9.59 112.39 C 9.51 112.86 9.37 113.79 9.29 114.26 L 10.12 114.51 C 10.94 115.90 11.83 117.26 12.70 118.63 L 12.95 118.62 C 13.76 119.45 14.57 120.27 15.40 121.08 L 15.27 121.36 C 15.67 121.60 16.47 122.08 16.88 122.32 C 18.27 123.43 19.66 124.54 21.05 125.66 C 21.44 125.60 22.22 125.48 22.61 125.42 L 22.52 126.78 C 23.04 126.68 24.07 126.49 24.58 126.39 L 24.49 127.37 C 26.53 127.93 28.57 128.52 30.66 128.86 L 30.50 129.33 C 38.33 129.92 46.18 129.57 54.02 129.66 C 64.91 129.58 75.82 129.87 86.71 129.46 L 86.24 128.77 C 88.73 128.75 91.13 128.13 93.49 127.37 L 93.42 126.41 C 93.94 126.50 94.98 126.67 95.50 126.76 L 95.38 125.42 C 95.76 125.47 96.52 125.58 96.91 125.63 C 98.43 124.47 99.97 123.32 101.53 122.21 L 101.57 122.03 C 102.83 120.98 103.99 119.82 105.03 118.55 L 105.19 118.61 C 106.31 117.03 107.44 115.46 108.59 113.90 C 108.60 113.69 108.62 113.28 108.64 113.07 C 108.96 112.42 109.61 111.13 109.93 110.48 L 110.40 110.46 C 110.96 108.43 111.52 106.40 111.85 104.32 L 112.34 104.51 C 112.78 98.68 112.66 92.84 112.66 87.01 C 112.48 69.83 113.05 52.64 112.34 35.48 L 111.84 35.68 C 111.51 33.59 110.94 31.55 110.40 29.51 L 109.38 29.56 C 109.48 29.05 109.69 28.03 109.80 27.52 L 108.43 27.63 C 108.48 27.25 108.58 26.49 108.63 26.11 C 107.47 24.57 106.32 23.01 105.20 21.44 L 105.03 21.44 C 103.99 20.18 102.83 19.01 101.56 17.97 L 101.58 17.81 C 100.00 16.68 98.44 15.53 96.89 14.37 C 96.53 14.42 95.79 14.52 95.43 14.57 L 95.40 13.18 C 94.92 13.30 93.96 13.53 93.47 13.65 L 93.50 12.64 C 91.15 11.89 88.75 11.27 86.26 11.22 L 86.70 10.55 C 68.24 10.19 49.77 10.20 31.32 10.55 Z" />
<path fill="#000000" opacity="1.00" d=" M 32.25 11.59 C 50.09 11.72 67.93 11.71 85.77 11.59 L 85.31 12.32 C 86.58 12.44 87.86 12.56 89.13 12.68 C 90.27 13.10 91.42 13.49 92.58 13.84 L 92.62 14.66 C 93.07 14.57 93.97 14.41 94.42 14.32 L 94.73 15.65 C 95.18 15.56 96.06 15.37 96.51 15.28 L 96.41 16.24 C 97.47 16.74 98.53 17.24 99.60 17.74 L 99.54 18.07 C 101.57 19.63 103.38 21.45 104.94 23.48 L 105.26 23.39 C 105.76 24.46 106.25 25.52 106.75 26.59 L 107.73 26.50 C 107.63 26.94 107.44 27.83 107.35 28.27 L 108.68 28.57 C 108.59 29.02 108.42 29.92 108.34 30.37 L 109.20 30.41 C 109.51 31.55 109.85 32.69 110.22 33.82 C 110.60 35.85 111.30 37.84 111.33 39.93 C 111.39 60.88 111.24 81.83 111.40 102.77 L 110.61 102.35 C 110.53 104.12 110.43 105.90 110.37 107.67 L 109.21 107.39 C 109.33 107.91 109.57 108.94 109.68 109.46 L 108.83 109.60 C 108.51 110.24 107.86 111.53 107.54 112.18 C 107.56 112.51 107.61 113.17 107.63 113.50 L 106.37 113.52 C 106.42 114.03 106.53 115.04 106.59 115.55 L 105.58 115.31 C 105.39 115.72 105.01 116.53 104.83 116.93 C 103.25 118.60 101.62 120.21 99.98 121.81 C 99.54 122.00 98.67 122.38 98.23 122.58 L 98.62 123.64 C 98.10 123.56 97.07 123.40 96.55 123.32 L 96.51 124.18 C 95.88 124.51 94.61 125.17 93.98 125.50 C 93.64 125.47 92.96 125.42 92.61 125.39 L 92.62 126.29 C 90.21 126.87 87.81 127.48 85.35 127.81 L 85.74 128.41 C 67.56 128.28 49.37 128.30 31.18 128.40 L 31.83 127.55 C 31.10 127.49 29.62 127.38 28.89 127.32 C 27.74 126.90 26.57 126.51 25.40 126.16 L 25.38 125.40 C 25.03 125.42 24.34 125.47 23.99 125.50 C 23.36 125.17 22.11 124.50 21.48 124.17 L 21.58 123.74 C 20.51 123.24 19.45 122.75 18.39 122.26 L 18.46 121.94 C 16.44 120.38 14.63 118.56 13.06 116.54 L 12.74 116.60 C 12.24 115.54 11.75 114.48 11.25 113.42 L 10.28 113.49 C 10.38 113.05 10.56 112.17 10.65 111.73 L 9.33 111.43 C 9.41 110.98 9.57 110.07 9.65 109.61 L 8.70 109.60 C 8.13 107.22 7.51 104.85 7.15 102.42 L 6.57 102.70 C 6.74 80.90 6.69 59.09 6.60 37.29 L 7.17 37.46 C 7.53 35.07 8.14 32.74 8.69 30.40 L 9.67 30.37 C 9.59 29.92 9.43 29.02 9.35 28.56 L 10.66 28.26 C 10.56 27.82 10.36 26.94 10.27 26.50 L 11.24 26.59 C 11.75 25.51 12.25 24.44 12.75 23.36 L 13.07 23.52 C 14.60 21.46 16.42 19.62 18.47 18.06 L 18.39 17.73 C 19.45 17.24 20.51 16.75 21.57 16.26 L 21.49 15.30 C 21.95 15.38 22.85 15.55 23.30 15.63 L 23.57 14.33 C 24.02 14.41 24.93 14.57 25.39 14.65 L 25.39 13.70 C 27.80 13.13 30.20 12.51 32.66 12.19 L 32.25 11.59 M 46.00 28.15 C 46.00 33.98 46.03 39.81 46.00 45.64 C 43.67 45.65 41.35 45.66 39.02 45.69 C 39.28 50.38 38.76 55.10 39.32 59.76 C 41.49 63.14 46.24 61.28 49.56 61.72 C 52.49 64.56 55.36 67.46 58.32 70.27 C 54.65 70.26 50.98 70.24 47.31 70.29 C 47.32 72.86 47.34 75.43 47.29 78.00 C 55.64 77.79 64.04 78.45 72.35 77.65 C 71.97 77.20 71.21 76.30 70.83 75.85 C 63.93 75.35 56.99 75.82 50.08 75.62 C 50.07 74.99 50.05 73.74 50.04 73.11 C 53.64 73.01 57.24 73.04 60.84 73.04 C 60.86 72.31 60.91 70.85 60.94 70.12 C 63.77 67.31 66.58 64.48 69.46 61.71 C 72.76 61.28 77.58 63.16 79.69 59.71 C 80.23 55.07 79.73 50.36 79.98 45.69 C 77.65 45.66 75.33 45.65 73.00 45.64 C 72.97 39.81 72.99 33.98 73.00 28.15 C 64.00 28.05 55.00 28.05 46.00 28.15 Z" />
<path fill="#000000" opacity="1.00" d=" M 48.82 31.04 C 55.94 31.04 63.06 31.04 70.17 31.04 C 70.17 36.79 70.26 42.55 70.10 48.30 C 72.39 48.34 74.68 48.36 76.97 48.39 C 76.91 51.91 76.92 55.42 76.94 58.93 C 65.31 58.98 53.69 58.98 42.06 58.93 C 42.08 55.41 42.08 51.90 42.04 48.38 C 48.77 48.30 55.50 48.37 62.24 48.35 C 62.24 47.67 62.24 46.33 62.24 45.65 C 57.76 45.65 53.28 45.64 48.81 45.67 C 48.81 43.89 48.82 42.11 48.83 40.33 C 53.30 40.36 57.77 40.35 62.24 40.35 C 62.24 39.67 62.24 38.33 62.24 37.65 C 57.76 37.65 53.29 37.64 48.81 37.67 C 48.81 35.46 48.81 33.25 48.82 31.04 Z" />
<path fill="#000000" opacity="1.00" d=" M 53.36 61.74 C 57.46 61.74 61.56 61.74 65.66 61.74 C 63.58 63.73 61.51 65.74 59.46 67.77 C 57.47 65.72 55.41 63.72 53.36 61.74 Z" />
</g>
<g id="#dee5eaff">
<path fill="#dee5ea" opacity="1.00" d=" M 31.32 10.55 C 49.77 10.20 68.24 10.19 86.70 10.55 L 86.26 11.22 C 88.75 11.27 91.15 11.89 93.50 12.64 L 93.47 13.65 C 93.96 13.53 94.92 13.30 95.40 13.18 L 95.43 14.57 C 95.79 14.52 96.53 14.42 96.89 14.37 C 98.44 15.53 100.00 16.68 101.58 17.81 L 101.56 17.97 C 102.83 19.01 103.99 20.18 105.03 21.44 L 105.20 21.44 C 106.32 23.01 107.47 24.57 108.63 26.11 C 108.58 26.49 108.48 27.25 108.43 27.63 L 109.80 27.52 C 109.69 28.03 109.48 29.05 109.38 29.56 L 110.40 29.51 C 110.94 31.55 111.51 33.59 111.84 35.68 L 112.34 35.48 C 113.05 52.64 112.48 69.83 112.66 87.01 C 112.66 92.84 112.78 98.68 112.34 104.51 L 111.85 104.32 C 111.52 106.40 110.96 108.43 110.40 110.46 L 109.93 110.48 C 109.61 111.13 108.96 112.42 108.64 113.07 C 108.62 113.28 108.60 113.69 108.59 113.90 C 107.44 115.46 106.31 117.03 105.19 118.61 L 105.03 118.55 C 103.99 119.82 102.83 120.98 101.57 122.03 L 101.53 122.21 C 99.97 123.32 98.43 124.47 96.91 125.63 C 96.52 125.58 95.76 125.47 95.38 125.42 L 95.50 126.76 C 94.98 126.67 93.94 126.50 93.42 126.41 L 93.49 127.37 C 91.13 128.13 88.73 128.75 86.24 128.77 L 86.71 129.46 C 75.82 129.87 64.91 129.58 54.02 129.66 C 46.18 129.57 38.33 129.92 30.50 129.33 L 30.66 128.86 C 28.57 128.52 26.53 127.93 24.49 127.37 L 24.58 126.39 C 24.07 126.49 23.04 126.68 22.52 126.78 L 22.61 125.42 C 22.22 125.48 21.44 125.60 21.05 125.66 C 19.66 124.54 18.27 123.43 16.88 122.32 C 16.47 122.08 15.67 121.60 15.27 121.36 L 15.40 121.08 C 14.57 120.27 13.76 119.45 12.95 118.62 L 12.70 118.63 C 11.83 117.26 10.94 115.90 10.12 114.51 L 9.29 114.26 C 9.37 113.79 9.51 112.86 9.59 112.39 L 8.15 112.41 C 8.28 111.92 8.54 110.96 8.66 110.48 L 7.57 110.46 C 7.02 108.43 6.48 106.39 6.16 104.31 L 5.66 104.53 C 4.94 88.37 5.52 72.18 5.33 56.01 C 5.39 49.17 5.13 42.32 5.67 35.49 L 6.15 35.68 C 6.48 33.59 7.05 31.56 7.60 29.53 L 8.62 29.56 C 8.52 29.07 8.31 28.08 8.21 27.58 L 9.59 27.56 C 9.53 27.19 9.40 26.44 9.33 26.07 C 10.44 24.69 11.53 23.29 12.64 21.90 C 12.90 21.50 13.41 20.70 13.66 20.29 L 13.93 20.38 C 14.74 19.57 15.56 18.76 16.38 17.96 L 16.46 17.79 C 18.02 16.67 19.57 15.53 21.11 14.37 C 21.48 14.42 22.22 14.52 22.60 14.57 L 22.61 13.15 C 23.08 13.28 24.03 13.54 24.51 13.67 L 24.50 12.64 C 26.85 11.90 29.25 11.27 31.73 11.22 L 31.32 10.55 M 32.25 11.59 L 32.66 12.19 C 30.20 12.51 27.80 13.13 25.39 13.70 L 25.39 14.65 C 24.93 14.57 24.02 14.41 23.57 14.33 L 23.30 15.63 C 22.85 15.55 21.95 15.38 21.49 15.30 L 21.57 16.26 C 20.51 16.75 19.45 17.24 18.39 17.73 L 18.47 18.06 C 16.42 19.62 14.60 21.46 13.07 23.52 L 12.75 23.36 C 12.25 24.44 11.75 25.51 11.24 26.59 L 10.27 26.50 C 10.36 26.94 10.56 27.82 10.66 28.26 L 9.35 28.56 C 9.43 29.02 9.59 29.92 9.67 30.37 L 8.69 30.40 C 8.14 32.74 7.53 35.07 7.17 37.46 L 6.60 37.29 C 6.69 59.09 6.74 80.90 6.57 102.70 L 7.15 102.42 C 7.51 104.85 8.13 107.22 8.70 109.60 L 9.65 109.61 C 9.57 110.07 9.41 110.98 9.33 111.43 L 10.65 111.73 C 10.56 112.17 10.38 113.05 10.28 113.49 L 11.25 113.42 C 11.75 114.48 12.24 115.54 12.74 116.60 L 13.06 116.54 C 14.63 118.56 16.44 120.38 18.46 121.94 L 18.39 122.26 C 19.45 122.75 20.51 123.24 21.58 123.74 L 21.48 124.17 C 22.11 124.50 23.36 125.17 23.99 125.50 C 24.34 125.47 25.03 125.42 25.38 125.40 L 25.40 126.16 C 26.57 126.51 27.74 126.90 28.89 127.32 C 29.62 127.38 31.10 127.49 31.83 127.55 L 31.18 128.40 C 49.37 128.30 67.56 128.28 85.74 128.41 L 85.35 127.81 C 87.81 127.48 90.21 126.87 92.62 126.29 L 92.61 125.39 C 92.96 125.42 93.64 125.47 93.98 125.50 C 94.61 125.17 95.88 124.51 96.51 124.18 L 96.55 123.32 C 97.07 123.40 98.10 123.56 98.62 123.64 L 98.23 122.58 C 98.67 122.38 99.54 122.00 99.98 121.81 C 101.62 120.21 103.25 118.60 104.83 116.93 C 105.01 116.53 105.39 115.72 105.58 115.31 L 106.59 115.55 C 106.53 115.04 106.42 114.03 106.37 113.52 L 107.63 113.50 C 107.61 113.17 107.56 112.51 107.54 112.18 C 107.86 111.53 108.51 110.24 108.83 109.60 L 109.68 109.46 C 109.57 108.94 109.33 107.91 109.21 107.39 L 110.37 107.67 C 110.43 105.90 110.53 104.12 110.61 102.35 L 111.40 102.77 C 111.24 81.83 111.39 60.88 111.33 39.93 C 111.30 37.84 110.60 35.85 110.22 33.82 C 109.85 32.69 109.51 31.55 109.20 30.41 L 108.34 30.37 C 108.42 29.92 108.59 29.02 108.68 28.57 L 107.35 28.27 C 107.44 27.83 107.63 26.94 107.73 26.50 L 106.75 26.59 C 106.25 25.52 105.76 24.46 105.26 23.39 L 104.94 23.48 C 103.38 21.45 101.57 19.63 99.54 18.07 L 99.60 17.74 C 98.53 17.24 97.47 16.74 96.41 16.24 L 96.51 15.28 C 96.06 15.37 95.18 15.56 94.73 15.65 L 94.42 14.32 C 93.97 14.41 93.07 14.57 92.62 14.66 L 92.58 13.84 C 91.42 13.49 90.27 13.10 89.13 12.68 C 87.86 12.56 86.58 12.44 85.31 12.32 L 85.77 11.59 C 67.93 11.71 50.09 11.72 32.25 11.59 Z" />
<path fill="#dee5ea" opacity="1.00" d=" M 46.00 28.15 C 55.00 28.05 64.00 28.05 73.00 28.15 C 72.99 33.98 72.97 39.81 73.00 45.64 C 75.33 45.65 77.65 45.66 79.98 45.69 C 79.73 50.36 80.23 55.07 79.69 59.71 C 77.58 63.16 72.76 61.28 69.46 61.71 C 66.58 64.48 63.77 67.31 60.94 70.12 C 60.91 70.85 60.86 72.31 60.84 73.04 C 57.24 73.04 53.64 73.01 50.04 73.11 C 50.05 73.74 50.07 74.99 50.08 75.62 C 56.99 75.82 63.93 75.35 70.83 75.85 C 71.21 76.30 71.97 77.20 72.35 77.65 C 64.04 78.45 55.64 77.79 47.29 78.00 C 47.34 75.43 47.32 72.86 47.31 70.29 C 50.98 70.24 54.65 70.26 58.32 70.27 C 55.36 67.46 52.49 64.56 49.56 61.72 C 46.24 61.28 41.49 63.14 39.32 59.76 C 38.76 55.10 39.28 50.38 39.02 45.69 C 41.35 45.66 43.67 45.65 46.00 45.64 C 46.03 39.81 46.00 33.98 46.00 28.15 M 48.82 31.04 C 48.81 33.25 48.81 35.46 48.81 37.67 C 53.29 37.64 57.76 37.65 62.24 37.65 C 62.24 38.33 62.24 39.67 62.24 40.35 C 57.77 40.35 53.30 40.36 48.83 40.33 C 48.82 42.11 48.81 43.89 48.81 45.67 C 53.28 45.64 57.76 45.65 62.24 45.65 C 62.24 46.33 62.24 47.67 62.24 48.35 C 55.50 48.37 48.77 48.30 42.04 48.38 C 42.08 51.90 42.08 55.41 42.06 58.93 C 53.69 58.98 65.31 58.98 76.94 58.93 C 76.92 55.42 76.91 51.91 76.97 48.39 C 74.68 48.36 72.39 48.34 70.10 48.30 C 70.26 42.55 70.17 36.79 70.17 31.04 C 63.06 31.04 55.94 31.04 48.82 31.04 M 53.36 61.74 C 55.41 63.72 57.47 65.72 59.46 67.77 C 61.51 65.74 63.58 63.73 65.66 61.74 C 61.56 61.74 57.46 61.74 53.36 61.74 Z" />
</g>
</svg>
