<?xml version="1.0" encoding="UTF-8" ?>
<!DOCTYPE svg PUBLIC "-//W3C//DTD SVG 1.1//EN" "http://www.w3.org/Graphics/SVG/1.1/DTD/svg11.dtd">
<svg width="117px" height="140px" viewBox="0 0 117 140" version="1.1" xmlns="http://www.w3.org/2000/svg">
<g id="#000000ff">
<path fill="#000000" opacity="1.00" d=" M 0.00 0.00 L 117.00 0.00 L 117.00 140.00 L 0.00 140.00 L 0.00 0.00 M 33.39 10.54 C 18.31 12.12 5.63 25.71 5.40 40.92 C 5.39 60.30 5.38 79.69 5.40 99.08 C 5.60 114.81 19.23 128.80 34.91 129.57 C 50.29 129.67 65.68 129.58 81.06 129.61 C 97.50 129.98 112.42 115.52 112.59 99.08 C 112.60 79.36 112.67 59.64 112.56 39.91 C 111.82 24.18 97.74 10.55 81.97 10.39 C 65.78 10.48 49.58 10.19 33.39 10.54 Z" />
<path fill="#000000" opacity="1.00" d=" M 33.21 11.62 C 50.11 11.58 67.01 11.65 83.91 11.59 C 97.93 12.85 110.08 24.87 111.40 38.90 C 111.38 59.63 111.39 80.37 111.40 101.10 C 110.08 115.12 97.93 127.17 83.91 128.41 C 67.30 128.37 50.70 128.38 34.09 128.41 C 18.73 127.10 5.49 112.57 6.60 97.01 C 6.62 77.64 6.61 58.27 6.60 38.90 C 7.92 25.13 19.54 13.43 33.21 11.62 M 34.01 46.00 C 34.03 50.26 33.83 54.53 34.21 58.79 C 40.13 59.24 46.07 58.90 52.00 59.00 C 62.90 58.84 73.83 59.32 84.72 58.76 C 85.22 54.52 84.96 50.25 84.98 46.00 C 67.99 46.00 51.00 46.00 34.01 46.00 Z" />
<path fill="#000000" opacity="1.00" d=" M 37.22 49.13 C 52.02 49.07 66.83 49.07 81.64 49.13 C 81.61 51.33 81.62 53.54 81.64 55.74 C 66.83 55.80 52.02 55.79 37.20 55.74 C 37.23 53.54 37.23 51.34 37.22 49.13 Z" />
</g>
<g id="#f6faf7ff">
<path fill="#f6faf7" opacity="1.00" d=" M 33.39 10.54 C 49.58 10.19 65.78 10.48 81.97 10.39 C 97.74 10.55 111.82 24.18 112.56 39.91 C 112.67 59.64 112.60 79.36 112.59 99.08 C 112.42 115.52 97.50 129.98 81.06 129.61 C 65.68 129.58 50.29 129.67 34.91 129.57 C 19.23 128.80 5.60 114.81 5.40 99.08 C 5.38 79.69 5.39 60.30 5.40 40.92 C 5.63 25.71 18.31 12.12 33.39 10.54 M 33.21 11.62 C 19.54 13.43 7.92 25.13 6.60 38.90 C 6.61 58.27 6.62 77.64 6.60 97.01 C 5.49 112.57 18.73 127.10 34.09 128.41 C 50.70 128.38 67.30 128.37 83.91 128.41 C 97.93 127.17 110.08 115.12 111.40 101.10 C 111.39 80.37 111.38 59.63 111.40 38.90 C 110.08 24.87 97.93 12.85 83.91 11.59 C 67.01 11.65 50.11 11.58 33.21 11.62 Z" />
<path fill="#f6faf7" opacity="1.00" d=" M 34.01 46.00 C 51.00 46.00 67.99 46.00 84.98 46.00 C 84.96 50.25 85.22 54.52 84.72 58.76 C 73.83 59.32 62.90 58.84 52.00 59.00 C 46.07 58.90 40.13 59.24 34.21 58.79 C 33.83 54.53 34.03 50.26 34.01 46.00 M 37.22 49.13 C 37.23 51.34 37.23 53.54 37.20 55.74 C 52.02 55.79 66.83 55.80 81.64 55.74 C 81.62 53.54 81.61 51.33 81.64 49.13 C 66.83 49.07 52.02 49.07 37.22 49.13 Z" />
</g>
</svg>
