<?xml version="1.0" encoding="UTF-8" ?>
<!DOCTYPE svg PUBLIC "-//W3C//DTD SVG 1.1//EN" "http://www.w3.org/Graphics/SVG/1.1/DTD/svg11.dtd">
<svg width="117px" height="140px" viewBox="0 0 117 140" version="1.1" xmlns="http://www.w3.org/2000/svg">
<g id="#000000ff">
<path fill="#000000" opacity="1.00" d=" M 0.00 0.00 L 117.00 0.00 L 117.00 140.00 L 0.00 140.00 L 0.00 0.00 M 32.08 10.48 L 32.99 11.32 C 30.06 11.13 27.22 11.76 24.48 12.72 L 24.52 13.80 C 24.05 13.63 23.11 13.29 22.64 13.12 L 22.62 14.66 C 22.16 14.57 21.24 14.38 20.78 14.29 L 20.51 15.13 C 19.21 15.90 17.97 16.76 16.75 17.64 L 16.46 18.56 L 15.15 18.37 L 15.96 19.78 L 14.44 19.00 L 14.65 20.66 L 13.28 20.30 L 13.69 21.55 L 12.67 21.67 C 11.80 22.93 10.95 24.21 10.17 25.53 L 9.30 25.77 C 9.38 26.23 9.55 27.16 9.64 27.62 L 8.08 27.66 C 8.27 28.13 8.66 29.06 8.86 29.53 L 7.46 29.47 C 7.46 30.33 7.45 32.05 7.45 32.91 L 6.43 32.22 C 6.44 33.11 6.46 34.90 6.48 35.79 L 5.69 35.48 C 5.25 41.30 5.40 47.14 5.38 52.98 C 5.55 70.13 5.02 87.30 5.68 104.44 C 5.88 104.41 6.29 104.34 6.49 104.31 C 6.47 105.18 6.44 106.92 6.42 107.79 L 7.46 107.08 C 7.45 107.93 7.43 109.63 7.42 110.48 L 8.84 110.48 C 8.65 110.95 8.27 111.87 8.08 112.34 L 9.61 112.37 C 9.56 112.76 9.47 113.52 9.43 113.91 C 10.60 115.45 11.77 117.00 12.89 118.58 L 13.62 118.14 L 13.28 119.63 L 14.89 119.31 L 13.97 120.59 L 15.67 120.32 L 15.24 121.55 C 15.65 121.70 16.47 122.02 16.89 122.17 C 18.21 123.42 19.66 124.52 21.10 125.62 C 21.48 125.56 22.25 125.43 22.63 125.37 L 22.61 126.87 C 23.10 126.70 24.08 126.37 24.57 126.21 L 24.48 127.54 C 25.35 127.55 27.09 127.57 27.96 127.58 L 27.20 128.60 C 28.08 128.58 29.83 128.53 30.71 128.51 C 30.67 128.71 30.58 129.11 30.54 129.31 C 38.33 129.86 46.14 129.53 53.94 129.62 C 64.89 129.53 75.85 129.82 86.79 129.42 L 86.05 128.75 C 88.62 128.76 91.09 128.09 93.51 127.29 L 93.45 126.23 C 93.94 126.39 94.91 126.70 95.40 126.85 L 95.36 125.34 C 95.83 125.43 96.75 125.62 97.21 125.71 L 97.49 124.85 C 98.88 124.03 100.22 123.13 101.57 122.26 L 101.37 121.88 C 102.30 121.24 103.24 120.60 104.17 119.96 C 104.27 119.50 104.45 118.58 104.54 118.12 L 105.22 118.62 C 106.11 117.24 107.03 115.89 107.86 114.48 L 108.73 114.21 C 108.62 113.77 108.40 112.90 108.29 112.46 C 108.71 112.41 109.56 112.32 109.98 112.27 L 109.48 111.19 C 110.22 109.93 110.68 108.57 110.87 107.11 L 111.61 107.76 C 111.59 106.89 111.53 105.15 111.50 104.28 C 111.71 104.32 112.12 104.42 112.32 104.46 C 112.73 98.66 112.61 92.85 112.62 87.04 C 112.45 69.84 112.98 52.62 112.31 35.43 L 111.53 35.84 C 111.54 34.92 111.56 33.09 111.57 32.17 L 110.58 32.98 C 110.57 32.11 110.56 30.36 110.55 29.49 L 109.22 29.57 C 109.38 29.08 109.70 28.10 109.86 27.61 L 108.33 27.63 C 108.43 27.17 108.62 26.25 108.72 25.79 L 107.88 25.51 C 107.10 24.21 106.23 22.96 105.34 21.73 L 104.38 21.43 L 104.65 20.26 L 103.33 20.65 L 103.59 18.98 L 102.41 19.85 L 102.52 18.31 L 101.00 18.55 L 101.65 17.81 C 100.27 16.91 98.90 15.99 97.49 15.15 L 97.23 14.30 C 96.77 14.39 95.84 14.56 95.38 14.64 L 95.35 13.09 C 94.88 13.28 93.94 13.65 93.47 13.83 L 93.53 12.48 C 92.64 12.46 90.85 12.43 89.96 12.42 L 90.86 11.56 C 89.50 11.47 88.14 11.37 86.79 11.27 C 84.34 10.19 81.62 10.40 79.02 10.36 C 63.37 10.45 47.73 10.25 32.08 10.48 Z" />
<path fill="#000000" opacity="1.00" d=" M 27.05 12.75 C 30.40 12.67 33.61 11.54 36.96 11.60 C 53.30 11.59 69.64 11.70 85.97 11.55 L 85.21 12.15 C 87.74 12.43 90.21 13.04 92.66 13.68 L 92.64 14.66 C 93.09 14.56 94.00 14.35 94.46 14.24 L 94.69 15.59 C 95.15 15.52 96.07 15.37 96.53 15.29 L 96.63 16.72 C 97.15 16.60 98.18 16.36 98.70 16.24 L 98.15 17.41 C 98.60 17.54 99.50 17.79 99.95 17.92 C 101.66 19.78 103.47 21.57 105.07 23.53 L 106.02 23.38 L 104.94 24.72 L 106.67 24.31 C 106.58 24.83 106.40 25.87 106.31 26.39 L 107.73 26.48 C 107.64 26.93 107.48 27.84 107.39 28.29 L 108.74 28.54 C 108.65 29.00 108.45 29.91 108.35 30.37 L 109.32 30.34 C 109.86 32.51 110.45 34.68 110.82 36.89 L 111.45 35.97 C 111.34 58.28 111.33 80.60 111.45 102.92 L 110.86 102.31 C 110.57 104.80 109.98 107.24 109.33 109.67 L 108.33 109.65 C 108.43 110.09 108.65 110.97 108.76 111.41 C 108.40 111.51 107.69 111.71 107.33 111.81 L 107.81 113.44 L 106.34 113.62 C 106.42 114.14 106.57 115.18 106.65 115.71 L 104.87 115.30 L 106.04 116.64 L 105.07 116.49 C 103.44 118.56 101.57 120.43 99.50 122.06 L 99.58 122.98 L 98.23 122.00 L 98.69 123.71 C 98.17 123.61 97.14 123.40 96.62 123.30 L 96.52 124.72 C 96.07 124.64 95.16 124.48 94.71 124.40 L 94.52 125.68 C 94.04 125.61 93.09 125.49 92.61 125.42 L 92.40 126.90 C 91.89 126.65 90.86 126.17 90.35 125.93 L 90.93 127.36 C 89.01 127.44 87.11 127.56 85.20 127.66 L 85.99 128.44 C 67.65 128.34 49.30 128.34 30.96 128.44 L 31.93 127.82 C 29.70 127.45 27.52 126.84 25.33 126.31 L 25.35 125.35 C 25.00 125.42 24.30 125.56 23.95 125.63 C 23.06 125.05 22.17 124.48 21.27 123.91 C 20.34 123.34 19.40 122.79 18.45 122.25 L 18.35 121.99 C 16.50 120.44 14.79 118.73 13.16 116.95 C 12.43 115.89 11.77 114.79 11.03 113.74 C 10.49 112.82 9.94 111.92 9.38 111.02 C 9.45 110.68 9.59 110.00 9.66 109.66 L 8.67 109.67 C 8.05 107.27 7.45 104.86 7.13 102.39 L 6.54 102.85 C 6.67 80.95 6.67 59.04 6.54 37.13 L 7.13 37.61 C 7.45 35.14 8.05 32.74 8.67 30.33 L 9.66 30.34 C 9.59 29.99 9.47 29.30 9.40 28.95 C 10.55 27.13 11.68 25.30 12.78 23.44 L 13.00 23.40 C 14.63 21.52 16.37 19.74 18.04 17.89 C 18.51 17.80 19.44 17.60 19.90 17.51 L 19.27 16.30 C 19.80 16.40 20.85 16.59 21.38 16.69 L 21.49 15.26 C 21.94 15.35 22.85 15.53 23.30 15.62 L 23.48 14.33 C 23.96 14.39 24.91 14.51 25.39 14.57 L 25.61 13.10 C 26.13 13.34 27.16 13.83 27.68 14.08 L 27.05 12.75 M 60.35 27.13 C 56.35 31.11 52.34 35.08 48.38 39.11 C 50.13 41.00 52.50 41.55 55.00 41.36 C 55.00 43.34 55.00 45.32 55.00 47.30 C 53.08 47.31 51.16 47.32 49.24 47.34 C 49.23 44.89 48.20 42.66 46.87 40.65 C 42.78 44.58 38.84 48.67 34.79 52.64 C 38.75 56.61 42.70 60.57 46.67 64.52 C 47.45 63.66 48.23 62.80 49.00 61.94 C 49.00 60.63 49.00 59.31 49.00 58.00 C 51.00 58.00 53.00 58.00 55.00 58.00 C 55.00 59.96 55.00 61.92 55.00 63.87 C 52.51 63.71 50.17 64.35 48.35 66.11 C 52.26 70.23 56.36 74.17 60.35 78.21 C 64.35 74.16 68.43 70.20 72.37 66.11 C 70.35 64.83 68.15 63.78 65.70 63.76 C 65.72 61.84 65.73 59.92 65.73 58.00 C 67.70 58.00 69.66 58.00 71.63 58.00 C 71.42 60.51 72.00 62.87 73.90 64.62 C 77.92 60.66 81.90 56.64 85.89 52.65 C 81.96 48.72 78.04 44.80 74.11 40.87 C 73.70 41.21 72.87 41.91 72.45 42.26 C 72.08 43.94 71.75 45.63 71.48 47.33 C 69.56 47.32 67.65 47.31 65.73 47.30 C 65.73 45.37 65.72 43.43 65.72 41.49 C 67.40 41.21 69.08 40.90 70.74 40.54 C 71.09 40.13 71.77 39.31 72.11 38.91 C 68.20 34.97 64.30 31.03 60.35 27.13 Z" />
<path fill="#000000" opacity="1.00" d=" M 60.35 30.94 C 62.89 33.51 65.46 36.05 68.02 38.61 C 66.35 38.60 64.67 38.60 63.00 38.60 C 63.00 42.40 63.00 46.20 63.00 50.00 C 66.81 50.00 70.62 50.00 74.43 50.00 C 74.43 48.34 74.42 46.68 74.41 45.02 C 76.97 47.56 79.53 50.11 82.08 52.66 C 79.54 55.21 76.99 57.77 74.41 60.28 C 74.40 58.63 74.41 56.97 74.41 55.32 C 70.61 55.31 66.80 55.31 63.00 55.31 C 63.00 59.12 63.00 62.94 63.00 66.75 C 64.66 66.75 66.32 66.75 67.98 66.76 C 65.45 69.30 62.90 71.84 60.35 74.38 C 57.81 71.85 55.26 69.32 52.75 66.76 C 54.39 66.74 56.03 66.74 57.67 66.73 C 57.66 62.93 57.67 59.12 57.65 55.32 C 53.86 55.31 50.07 55.31 46.28 55.31 C 46.28 56.97 46.27 58.63 46.26 60.28 C 43.70 57.75 41.17 55.21 38.62 52.66 C 41.18 50.12 43.72 47.56 46.28 45.02 C 46.28 46.68 46.27 48.34 46.27 50.00 C 50.07 50.00 53.86 50.00 57.66 50.00 C 57.66 46.20 57.66 42.40 57.66 38.60 C 56.01 38.61 54.37 38.63 52.72 38.64 C 55.22 36.03 57.80 33.50 60.35 30.94 Z" />
</g>
<g id="#f1f6f5ff">
<path fill="#f1f6f5" opacity="1.00" d=" M 32.08 10.48 C 47.73 10.25 63.37 10.45 79.02 10.36 C 81.62 10.40 84.34 10.19 86.79 11.27 C 88.14 11.37 89.50 11.47 90.86 11.56 L 89.96 12.42 C 90.85 12.43 92.64 12.46 93.53 12.48 L 93.47 13.83 C 93.94 13.65 94.88 13.28 95.35 13.09 L 95.38 14.64 C 95.84 14.56 96.77 14.39 97.23 14.30 L 97.49 15.15 C 98.90 15.99 100.27 16.91 101.65 17.81 L 101.00 18.55 L 102.52 18.31 L 102.41 19.85 L 103.59 18.98 L 103.33 20.65 L 104.65 20.26 L 104.38 21.43 L 105.34 21.73 C 106.23 22.96 107.10 24.21 107.88 25.51 L 108.72 25.79 C 108.62 26.25 108.43 27.17 108.33 27.63 L 109.86 27.61 C 109.70 28.10 109.38 29.08 109.22 29.57 L 110.55 29.49 C 110.56 30.36 110.57 32.11 110.58 32.98 L 111.57 32.17 C 111.56 33.09 111.54 34.92 111.53 35.84 L 112.31 35.43 C 112.98 52.62 112.45 69.84 112.62 87.04 C 112.61 92.85 112.73 98.66 112.32 104.46 C 112.12 104.42 111.71 104.32 111.50 104.28 C 111.53 105.15 111.59 106.89 111.61 107.76 L 110.87 107.11 C 110.68 108.57 110.22 109.93 109.48 111.19 L 109.98 112.27 C 109.56 112.32 108.71 112.41 108.29 112.46 C 108.40 112.90 108.62 113.77 108.73 114.21 L 107.86 114.48 C 107.03 115.89 106.11 117.24 105.22 118.62 L 104.54 118.12 C 104.45 118.58 104.27 119.50 104.17 119.96 C 103.24 120.60 102.30 121.24 101.37 121.88 L 101.57 122.26 C 100.22 123.13 98.88 124.03 97.49 124.85 L 97.21 125.71 C 96.75 125.62 95.83 125.43 95.36 125.34 L 95.40 126.85 C 94.91 126.70 93.94 126.39 93.45 126.23 L 93.51 127.29 C 91.09 128.09 88.62 128.76 86.05 128.75 L 86.79 129.42 C 75.85 129.82 64.89 129.53 53.94 129.62 C 46.14 129.53 38.33 129.86 30.54 129.31 C 30.58 129.11 30.67 128.71 30.71 128.51 C 29.83 128.53 28.08 128.58 27.20 128.60 L 27.96 127.58 C 27.09 127.57 25.35 127.55 24.48 127.54 L 24.57 126.21 C 24.08 126.37 23.10 126.70 22.61 126.87 L 22.63 125.37 C 22.25 125.43 21.48 125.56 21.10 125.62 C 19.66 124.52 18.21 123.42 16.89 122.17 C 16.47 122.02 15.65 121.70 15.24 121.55 L 15.67 120.32 L 13.97 120.59 L 14.89 119.31 L 13.28 119.63 L 13.62 118.14 L 12.89 118.58 C 11.77 117.00 10.60 115.45 9.43 113.91 C 9.47 113.52 9.56 112.76 9.61 112.37 L 8.08 112.34 C 8.27 111.87 8.65 110.95 8.84 110.48 L 7.42 110.48 C 7.43 109.63 7.45 107.93 7.46 107.08 L 6.42 107.79 C 6.44 106.92 6.47 105.18 6.49 104.31 C 6.29 104.34 5.88 104.41 5.68 104.44 C 5.02 87.30 5.55 70.13 5.38 52.98 C 5.40 47.14 5.25 41.30 5.69 35.48 L 6.48 35.79 C 6.46 34.90 6.44 33.11 6.43 32.22 L 7.45 32.91 C 7.45 32.05 7.46 30.33 7.46 29.47 L 8.86 29.53 C 8.66 29.06 8.27 28.13 8.08 27.66 L 9.64 27.62 C 9.55 27.16 9.38 26.23 9.30 25.77 L 10.17 25.53 C 10.95 24.21 11.80 22.93 12.67 21.67 L 13.69 21.55 L 13.28 20.30 L 14.65 20.66 L 14.44 19.00 L 15.96 19.78 L 15.15 18.37 L 16.46 18.56 L 16.75 17.64 C 17.97 16.76 19.21 15.90 20.51 15.13 L 20.78 14.29 C 21.24 14.38 22.16 14.57 22.62 14.66 L 22.64 13.12 C 23.11 13.29 24.05 13.63 24.52 13.80 L 24.48 12.72 C 27.22 11.76 30.06 11.13 32.99 11.32 L 32.08 10.48 M 27.05 12.75 L 27.68 14.08 C 27.16 13.83 26.13 13.34 25.61 13.10 L 25.39 14.57 C 24.91 14.51 23.96 14.39 23.48 14.33 L 23.30 15.62 C 22.85 15.53 21.94 15.35 21.49 15.26 L 21.38 16.69 C 20.85 16.59 19.80 16.40 19.27 16.30 L 19.90 17.51 C 19.44 17.60 18.51 17.80 18.04 17.89 C 16.37 19.74 14.63 21.52 13.00 23.40 L 12.78 23.44 C 11.68 25.30 10.55 27.13 9.40 28.95 C 9.47 29.30 9.59 29.99 9.66 30.34 L 8.67 30.33 C 8.05 32.74 7.45 35.14 7.13 37.61 L 6.54 37.13 C 6.67 59.04 6.67 80.95 6.54 102.85 L 7.13 102.39 C 7.45 104.86 8.05 107.27 8.67 109.67 L 9.66 109.66 C 9.59 110.00 9.45 110.68 9.38 111.02 C 9.94 111.92 10.49 112.82 11.03 113.74 C 11.77 114.79 12.43 115.89 13.16 116.95 C 14.79 118.73 16.50 120.44 18.35 121.99 L 18.45 122.25 C 19.40 122.79 20.34 123.34 21.27 123.91 C 22.17 124.48 23.06 125.05 23.95 125.63 C 24.30 125.56 25.00 125.42 25.35 125.35 L 25.33 126.31 C 27.52 126.84 29.70 127.45 31.93 127.82 L 30.96 128.44 C 49.30 128.34 67.65 128.34 85.99 128.44 L 85.20 127.66 C 87.11 127.56 89.01 127.44 90.93 127.36 L 90.35 125.93 C 90.86 126.17 91.89 126.65 92.40 126.90 L 92.61 125.42 C 93.09 125.49 94.04 125.61 94.52 125.68 L 94.71 124.40 C 95.16 124.48 96.07 124.64 96.52 124.72 L 96.62 123.30 C 97.14 123.40 98.17 123.61 98.69 123.71 L 98.23 122.00 L 99.58 122.98 L 99.50 122.06 C 101.57 120.43 103.44 118.56 105.07 116.49 L 106.04 116.64 L 104.87 115.30 L 106.65 115.71 C 106.57 115.18 106.42 114.14 106.34 113.62 L 107.81 113.44 L 107.33 111.81 C 107.69 111.71 108.40 111.51 108.76 111.41 C 108.65 110.97 108.43 110.09 108.33 109.65 L 109.33 109.67 C 109.98 107.24 110.57 104.80 110.86 102.31 L 111.45 102.92 C 111.33 80.60 111.34 58.28 111.45 35.97 L 110.82 36.89 C 110.45 34.68 109.86 32.51 109.32 30.34 L 108.35 30.37 C 108.45 29.91 108.65 29.00 108.74 28.54 L 107.39 28.29 C 107.48 27.84 107.64 26.93 107.73 26.48 L 106.31 26.39 C 106.40 25.87 106.58 24.83 106.67 24.31 L 104.94 24.72 L 106.02 23.38 L 105.07 23.53 C 103.47 21.57 101.66 19.78 99.95 17.92 C 99.50 17.79 98.60 17.54 98.15 17.41 L 98.70 16.24 C 98.18 16.36 97.15 16.60 96.63 16.72 L 96.53 15.29 C 96.07 15.37 95.15 15.52 94.69 15.59 L 94.46 14.24 C 94.00 14.35 93.09 14.56 92.64 14.66 L 92.66 13.68 C 90.21 13.04 87.74 12.43 85.21 12.15 L 85.97 11.55 C 69.64 11.70 53.30 11.59 36.96 11.60 C 33.61 11.54 30.40 12.67 27.05 12.75 Z" />
<path fill="#f1f6f5" opacity="1.00" d=" M 60.35 27.13 C 64.30 31.03 68.20 34.97 72.11 38.91 C 71.77 39.31 71.09 40.13 70.74 40.54 C 69.08 40.90 67.40 41.21 65.72 41.49 C 65.72 43.43 65.73 45.37 65.73 47.30 C 67.65 47.31 69.56 47.32 71.48 47.33 C 71.75 45.63 72.08 43.94 72.45 42.26 C 72.87 41.91 73.70 41.21 74.11 40.87 C 78.04 44.80 81.96 48.72 85.89 52.65 C 81.90 56.64 77.92 60.66 73.90 64.62 C 72.00 62.87 71.42 60.51 71.63 58.00 C 69.66 58.00 67.70 58.00 65.73 58.00 C 65.73 59.92 65.72 61.84 65.70 63.76 C 68.15 63.78 70.35 64.83 72.37 66.11 C 68.43 70.20 64.35 74.16 60.35 78.21 C 56.36 74.17 52.26 70.23 48.35 66.11 C 50.17 64.35 52.51 63.71 55.00 63.87 C 55.00 61.92 55.00 59.96 55.00 58.00 C 53.00 58.00 51.00 58.00 49.00 58.00 C 49.00 59.31 49.00 60.63 49.00 61.94 C 48.23 62.80 47.45 63.66 46.67 64.52 C 42.70 60.57 38.75 56.61 34.79 52.64 C 38.84 48.67 42.78 44.58 46.87 40.65 C 48.20 42.66 49.23 44.89 49.24 47.34 C 51.16 47.32 53.08 47.31 55.00 47.30 C 55.00 45.32 55.00 43.34 55.00 41.36 C 52.50 41.55 50.13 41.00 48.38 39.11 C 52.34 35.08 56.35 31.11 60.35 27.13 M 60.35 30.94 C 57.80 33.50 55.22 36.03 52.72 38.64 C 54.37 38.63 56.01 38.61 57.66 38.60 C 57.66 42.40 57.66 46.20 57.66 50.00 C 53.86 50.00 50.07 50.00 46.27 50.00 C 46.27 48.34 46.28 46.68 46.28 45.02 C 43.72 47.56 41.18 50.12 38.62 52.66 C 41.17 55.21 43.70 57.75 46.26 60.28 C 46.27 58.63 46.28 56.97 46.28 55.31 C 50.07 55.31 53.86 55.31 57.65 55.32 C 57.67 59.12 57.66 62.93 57.67 66.73 C 56.03 66.74 54.39 66.74 52.75 66.76 C 55.26 69.32 57.81 71.85 60.35 74.38 C 62.90 71.84 65.45 69.30 67.98 66.76 C 66.32 66.75 64.66 66.75 63.00 66.75 C 63.00 62.94 63.00 59.12 63.00 55.31 C 66.80 55.31 70.61 55.31 74.41 55.32 C 74.41 56.97 74.40 58.63 74.41 60.28 C 76.99 57.77 79.54 55.21 82.08 52.66 C 79.53 50.11 76.97 47.56 74.41 45.02 C 74.42 46.68 74.43 48.34 74.43 50.00 C 70.62 50.00 66.81 50.00 63.00 50.00 C 63.00 46.20 63.00 42.40 63.00 38.60 C 64.67 38.60 66.35 38.60 68.02 38.61 C 65.46 36.05 62.89 33.51 60.35 30.94 Z" />
</g>
</svg>
