<?xml version="1.0" encoding="UTF-8" ?>
<!DOCTYPE svg PUBLIC "-//W3C//DTD SVG 1.1//EN" "http://www.w3.org/Graphics/SVG/1.1/DTD/svg11.dtd">
<svg width="32px" height="21px" viewBox="0 0 32 21" version="1.1" xmlns="http://www.w3.org/2000/svg">
<g id="#000000ff">
<path fill="#000000" opacity="1.00" d=" M 0.00 0.00 L 10.31 0.00 C 6.84 3.44 3.43 6.95 0.00 10.44 L 0.00 0.00 Z" />
<path fill="#000000" opacity="1.00" d=" M 31.00 0.00 L 32.00 0.00 L 32.00 21.00 L 31.00 21.00 C 31.00 14.00 31.00 7.00 31.00 0.00 Z" />
<path fill="#000000" opacity="1.00" d=" M 11.15 2.00 C 17.10 2.00 23.05 2.00 29.00 2.00 C 29.00 7.67 29.00 13.33 29.00 19.00 C 23.05 19.00 17.10 19.00 11.15 19.00 C 8.39 16.13 5.57 13.33 2.80 10.49 C 5.59 7.67 8.39 4.86 11.15 2.00 M 13.48 6.15 C 14.89 7.61 16.32 9.06 17.77 10.49 C 16.32 11.93 14.90 13.39 13.48 14.85 C 13.84 15.22 14.55 15.95 14.90 16.31 C 16.31 14.87 17.75 13.45 19.13 11.98 C 20.66 13.45 22.11 15.01 23.73 16.39 C 26.26 14.03 21.72 12.41 20.60 10.49 C 22.05 9.06 23.48 7.60 24.89 6.14 C 24.53 5.77 23.81 5.05 23.45 4.68 C 22.05 6.15 20.62 7.59 19.18 9.03 C 17.75 7.58 16.31 6.15 14.89 4.69 C 14.54 5.05 13.83 5.78 13.48 6.15 Z" />
<path fill="#000000" opacity="1.00" d=" M 0.00 10.55 C 3.43 14.04 6.84 17.55 10.31 21.00 L 0.00 21.00 L 0.00 10.55 Z" />
</g>
<g id="#f8fcf8ff">
<path fill="#f8fcf8" opacity="1.00" d=" M 10.31 0.00 L 31.00 0.00 C 31.00 7.00 31.00 14.00 31.00 21.00 L 10.31 21.00 C 6.84 17.55 3.43 14.04 0.00 10.55 L 0.00 10.44 C 3.43 6.95 6.84 3.44 10.31 0.00 M 11.15 2.00 C 8.39 4.86 5.59 7.67 2.80 10.49 C 5.57 13.33 8.39 16.13 11.15 19.00 C 17.10 19.00 23.05 19.00 29.00 19.00 C 29.00 13.33 29.00 7.67 29.00 2.00 C 23.05 2.00 17.10 2.00 11.15 2.00 Z" />
<path fill="#f8fcf8" opacity="1.00" d=" M 13.48 6.15 C 13.83 5.78 14.54 5.05 14.89 4.69 C 16.31 6.15 17.75 7.58 19.18 9.03 C 20.62 7.59 22.05 6.15 23.45 4.68 C 23.81 5.05 24.53 5.77 24.89 6.14 C 23.48 7.60 22.05 9.06 20.60 10.49 C 21.72 12.41 26.26 14.03 23.73 16.39 C 22.11 15.01 20.66 13.45 19.13 11.98 C 17.75 13.45 16.31 14.87 14.90 16.31 C 14.55 15.95 13.84 15.22 13.48 14.85 C 14.90 13.39 16.32 11.93 17.77 10.49 C 16.32 9.06 14.89 7.61 13.48 6.15 Z" />
</g>
</svg>
