<?xml version="1.0" encoding="UTF-8" ?>
<!DOCTYPE svg PUBLIC "-//W3C//DTD SVG 1.1//EN" "http://www.w3.org/Graphics/SVG/1.1/DTD/svg11.dtd">
<svg width="117px" height="140px" viewBox="0 0 117 140" version="1.1" xmlns="http://www.w3.org/2000/svg">
<g id="#000000ff">
<path fill="#000000" opacity="1.00" d=" M 0.00 0.00 L 117.00 0.00 L 117.00 140.00 L 0.00 140.00 L 0.00 0.00 M 29.37 10.46 C 15.69 13.30 4.44 25.85 4.00 39.95 C 4.00 59.98 4.00 80.00 4.00 100.03 C 4.44 115.30 17.69 128.89 32.88 129.97 C 49.57 130.04 66.27 129.98 82.96 130.00 C 98.89 129.38 112.81 115.03 112.94 99.06 C 113.02 79.68 113.03 60.31 112.94 40.93 C 112.80 24.98 98.91 10.64 82.99 10.00 C 66.99 9.99 50.99 10.03 34.99 9.98 C 33.11 10.00 31.21 10.03 29.37 10.46 Z" />
<path fill="#000000" opacity="1.00" d=" M 35.17 12.20 C 49.79 11.86 64.43 12.14 79.06 12.06 C 88.54 12.13 98.19 16.27 103.82 24.08 C 107.93 29.47 109.95 36.21 109.99 42.95 C 110.01 60.97 110.01 79.00 109.99 97.02 C 110.08 107.80 104.37 118.66 94.79 123.86 C 89.46 127.08 83.12 127.90 77.01 127.97 C 64.33 127.94 51.65 127.94 38.97 127.97 C 32.63 127.95 26.14 126.67 20.79 123.13 C 12.33 117.86 6.93 108.01 7.07 98.04 C 7.06 79.00 7.00 59.97 7.10 40.94 C 7.18 25.96 20.25 12.76 35.17 12.20 M 47.62 40.06 C 46.68 40.85 44.76 41.28 45.02 42.87 C 44.99 53.58 44.96 64.29 45.03 75.00 C 44.82 76.56 46.63 77.18 47.88 76.99 C 54.90 76.95 61.93 77.14 68.94 76.90 C 70.38 76.97 71.05 75.32 70.93 74.11 C 70.91 63.74 70.99 53.37 70.89 43.01 C 71.04 41.38 69.16 40.88 68.17 40.03 C 67.90 36.35 69.15 32.29 67.15 28.94 C 61.10 29.16 55.03 28.80 48.98 29.09 C 46.14 31.71 48.16 36.53 47.62 40.06 Z" />
<path fill="#000000" opacity="1.00" d=" M 49.53 30.46 C 54.90 30.34 60.29 30.20 65.66 30.46 C 67.20 33.32 65.93 37.21 66.35 40.46 C 60.70 40.49 55.04 40.48 49.39 40.47 C 49.40 37.13 49.38 33.79 49.53 30.46 M 52.91 32.64 C 52.96 33.54 53.06 35.34 53.11 36.25 C 53.86 36.24 55.38 36.22 56.14 36.21 C 56.14 35.31 56.14 33.52 56.14 32.63 C 55.33 32.63 53.72 32.64 52.91 32.64 M 58.77 32.65 C 58.77 33.54 58.78 35.32 58.79 36.21 C 59.57 36.22 61.14 36.22 61.92 36.23 C 61.90 35.32 61.86 33.51 61.84 32.60 C 61.07 32.61 59.54 32.63 58.77 32.65 Z" />
<path fill="#000000" opacity="1.00" d=" M 56.19 46.25 C 57.17 44.73 59.69 44.80 60.49 46.45 C 61.67 48.12 60.04 49.71 59.01 50.92 C 59.14 57.04 59.04 63.16 59.05 69.29 C 60.71 69.01 63.03 69.58 64.07 67.85 C 64.58 64.74 64.24 61.56 64.37 58.42 C 63.96 58.12 63.14 57.53 62.73 57.23 C 62.74 55.71 62.76 54.19 62.78 52.67 C 64.39 52.67 66.00 52.67 67.62 52.67 C 67.66 54.25 67.69 55.83 67.73 57.41 C 67.26 57.57 66.34 57.91 65.87 58.07 C 65.00 62.07 67.68 67.79 63.35 70.32 C 60.10 70.93 56.66 70.77 53.39 70.38 C 49.28 68.38 51.11 63.12 50.83 59.51 C 50.20 59.48 48.94 59.40 48.31 59.36 C 49.26 57.76 50.20 56.16 51.15 54.55 C 52.02 56.08 52.89 57.61 53.79 59.13 C 53.41 59.31 52.65 59.66 52.27 59.84 C 52.54 62.83 50.83 67.17 53.93 69.07 C 55.16 69.17 56.38 69.18 57.62 69.11 C 57.49 63.00 57.57 56.88 57.57 50.76 C 56.40 49.70 54.60 47.75 56.19 46.25 Z" />
</g>
<g id="#708cc8ff">
<path fill="#708cc8" opacity="1.00" d=" M 29.37 10.46 C 31.21 10.03 33.11 10.00 34.99 9.98 C 50.99 10.03 66.99 9.99 82.99 10.00 C 98.91 10.64 112.80 24.98 112.94 40.93 C 113.03 60.31 113.02 79.68 112.94 99.06 C 112.81 115.03 98.89 129.38 82.96 130.00 C 66.27 129.98 49.57 130.04 32.88 129.97 C 17.69 128.89 4.44 115.30 4.00 100.03 C 4.00 80.00 4.00 59.98 4.00 39.95 C 4.44 25.85 15.69 13.30 29.37 10.46 M 35.17 12.20 C 20.25 12.76 7.18 25.96 7.10 40.94 C 7.00 59.97 7.06 79.00 7.07 98.04 C 6.93 108.01 12.33 117.86 20.79 123.13 C 26.14 126.67 32.63 127.95 38.97 127.97 C 51.65 127.94 64.33 127.94 77.01 127.97 C 83.12 127.90 89.46 127.08 94.79 123.86 C 104.37 118.66 110.08 107.80 109.99 97.02 C 110.01 79.00 110.01 60.97 109.99 42.95 C 109.95 36.21 107.93 29.47 103.82 24.08 C 98.19 16.27 88.54 12.13 79.06 12.06 C 64.43 12.14 49.79 11.86 35.17 12.20 Z" />
</g>
<g id="#10ec50ff">
<path fill="#10ec50" opacity="1.00" d=" M 47.62 40.06 C 48.16 36.53 46.14 31.71 48.98 29.09 C 55.03 28.80 61.10 29.16 67.15 28.94 C 69.15 32.29 67.90 36.35 68.17 40.03 C 69.16 40.88 71.04 41.38 70.89 43.01 C 70.99 53.37 70.91 63.74 70.93 74.11 C 71.05 75.32 70.38 76.97 68.94 76.90 C 61.93 77.14 54.90 76.95 47.88 76.99 C 46.63 77.18 44.82 76.56 45.03 75.00 C 44.96 64.29 44.99 53.58 45.02 42.87 C 44.76 41.28 46.68 40.85 47.62 40.06 M 49.53 30.46 C 49.38 33.79 49.40 37.13 49.39 40.47 C 55.04 40.48 60.70 40.49 66.35 40.46 C 65.93 37.21 67.20 33.32 65.66 30.46 C 60.29 30.20 54.90 30.34 49.53 30.46 M 56.19 46.25 C 54.60 47.75 56.40 49.70 57.57 50.76 C 57.57 56.88 57.49 63.00 57.62 69.11 C 56.38 69.18 55.16 69.17 53.93 69.07 C 50.83 67.17 52.54 62.83 52.27 59.84 C 52.65 59.66 53.41 59.31 53.79 59.13 C 52.89 57.61 52.02 56.08 51.15 54.55 C 50.20 56.16 49.26 57.76 48.31 59.36 C 48.94 59.40 50.20 59.48 50.83 59.51 C 51.11 63.12 49.28 68.38 53.39 70.38 C 56.66 70.77 60.10 70.93 63.35 70.32 C 67.68 67.79 65.00 62.07 65.87 58.07 C 66.34 57.91 67.26 57.57 67.73 57.41 C 67.69 55.83 67.66 54.25 67.62 52.67 C 66.00 52.67 64.39 52.67 62.78 52.67 C 62.76 54.19 62.74 55.71 62.73 57.23 C 63.14 57.53 63.96 58.12 64.37 58.42 C 64.24 61.56 64.58 64.74 64.07 67.85 C 63.03 69.58 60.71 69.01 59.05 69.29 C 59.04 63.16 59.14 57.04 59.01 50.92 C 60.04 49.71 61.67 48.12 60.49 46.45 C 59.69 44.80 57.17 44.73 56.19 46.25 Z" />
<path fill="#10ec50" opacity="1.00" d=" M 52.91 32.64 C 53.72 32.64 55.33 32.63 56.14 32.63 C 56.14 33.52 56.14 35.31 56.14 36.21 C 55.38 36.22 53.86 36.24 53.11 36.25 C 53.06 35.34 52.96 33.54 52.91 32.64 Z" />
<path fill="#10ec50" opacity="1.00" d=" M 58.77 32.65 C 59.54 32.63 61.07 32.61 61.84 32.60 C 61.86 33.51 61.90 35.32 61.92 36.23 C 61.14 36.22 59.57 36.22 58.79 36.21 C 58.78 35.32 58.77 33.54 58.77 32.65 Z" />
</g>
</svg>
