<?xml version="1.0" encoding="UTF-8" ?>
<!DOCTYPE svg PUBLIC "-//W3C//DTD SVG 1.1//EN" "http://www.w3.org/Graphics/SVG/1.1/DTD/svg11.dtd">
<svg width="200px" height="200px" viewBox="0 0 200 200" version="1.1" xmlns="http://www.w3.org/2000/svg">
<g id="#000000ff">
<path fill="#000000" opacity="1.00" d=" M 0.00 0.00 L 200.00 0.00 L 200.00 200.00 L 0.00 200.00 L 0.00 0.00 M 53.46 55.36 C 40.98 65.44 33.23 80.99 32.41 96.99 C 31.57 111.70 36.51 126.71 46.13 137.90 C 56.17 149.79 71.40 157.18 86.99 157.43 C 103.75 157.87 120.43 150.03 130.93 136.98 C 139.97 126.00 144.51 111.64 143.98 97.47 C 143.32 97.53 142.01 97.66 141.35 97.72 C 142.00 97.59 143.30 97.34 143.94 97.22 C 143.60 92.87 142.89 88.57 141.83 84.35 C 128.01 88.37 114.21 92.48 100.41 96.57 C 101.56 100.70 102.72 104.82 103.89 108.95 C 110.21 107.13 116.49 105.14 122.84 103.44 C 122.56 103.77 121.98 104.42 121.70 104.75 C 120.03 118.77 109.13 131.27 95.19 134.12 C 80.52 137.64 64.43 129.47 58.01 115.96 C 50.97 102.25 54.29 84.16 65.97 74.04 C 74.03 66.69 85.73 63.91 96.30 66.46 C 99.92 59.76 103.56 53.07 107.12 46.34 C 89.27 39.66 68.13 43.20 53.46 55.36 M 157.33 140.44 C 151.66 142.07 150.34 150.44 155.05 153.88 C 159.27 157.51 166.52 154.49 167.06 148.99 C 168.17 143.67 162.50 138.48 157.33 140.44 Z" />
</g>
<g id="#708cc8ff">
<path fill="#708cc8" opacity="1.00" d=" M 53.46 55.36 C 68.13 43.20 89.27 39.66 107.12 46.34 C 103.56 53.07 99.92 59.76 96.30 66.46 C 85.73 63.91 74.03 66.69 65.97 74.04 C 54.29 84.16 50.97 102.25 58.01 115.96 C 64.43 129.47 80.52 137.64 95.19 134.12 C 109.13 131.27 120.03 118.77 121.70 104.75 C 121.98 104.42 122.56 103.77 122.84 103.44 C 116.49 105.14 110.21 107.13 103.89 108.95 C 102.72 104.82 101.56 100.70 100.41 96.57 C 114.21 92.48 128.01 88.37 141.83 84.35 C 142.89 88.57 143.60 92.87 143.94 97.22 C 143.30 97.34 142.00 97.59 141.35 97.72 C 142.01 97.66 143.32 97.53 143.98 97.47 C 144.51 111.64 139.97 126.00 130.93 136.98 C 120.43 150.03 103.75 157.87 86.99 157.43 C 71.40 157.18 56.17 149.79 46.13 137.90 C 36.51 126.71 31.57 111.70 32.41 96.99 C 33.23 80.99 40.98 65.44 53.46 55.36 Z" />
<path fill="#708cc8" opacity="1.00" d=" M 157.33 140.44 C 162.50 138.48 168.17 143.67 167.06 148.99 C 166.52 154.49 159.27 157.51 155.05 153.88 C 150.34 150.44 151.66 142.07 157.33 140.44 Z" />
</g>
</svg>
