<?xml version="1.0" encoding="UTF-8" ?>
<!DOCTYPE svg PUBLIC "-//W3C//DTD SVG 1.1//EN" "http://www.w3.org/Graphics/SVG/1.1/DTD/svg11.dtd">
<svg width="117px" height="140px" viewBox="0 0 117 140" version="1.1" xmlns="http://www.w3.org/2000/svg">
<g id="#000000ff">
<path fill="#000000" opacity="1.00" d=" M 0.00 0.00 L 117.00 0.00 L 117.00 140.00 L 0.00 140.00 L 0.00 0.00 M 23.50 12.70 L 23.53 13.81 C 23.06 13.64 22.11 13.30 21.64 13.13 L 21.63 14.66 C 21.14 14.57 20.17 14.38 19.68 14.29 L 19.60 15.21 C 18.12 15.91 16.80 16.88 15.44 17.79 L 15.61 18.20 C 14.34 18.53 13.54 19.32 13.20 20.56 L 12.22 20.32 L 12.69 21.69 L 11.81 21.43 C 10.90 22.79 9.93 24.13 9.19 25.60 C 8.94 25.65 8.45 25.76 8.20 25.81 L 8.79 27.50 L 7.17 27.68 C 7.32 28.14 7.63 29.08 7.79 29.55 L 6.69 29.51 C 5.74 33.28 4.32 37.01 4.41 40.95 C 4.38 60.31 4.39 79.68 4.40 99.04 C 4.29 102.02 5.38 104.85 5.63 107.80 L 6.50 107.09 C 6.48 107.95 6.45 109.66 6.44 110.52 L 7.85 110.46 C 7.66 110.93 7.29 111.87 7.11 112.34 L 8.67 112.38 C 8.58 112.85 8.39 113.79 8.30 114.26 L 9.24 114.46 C 9.96 115.93 10.93 117.25 11.85 118.60 L 12.81 118.35 L 12.21 119.85 L 13.91 119.18 L 12.99 120.68 L 14.66 120.26 L 14.35 121.88 L 15.74 121.11 L 15.36 122.16 C 16.75 123.08 18.09 124.06 19.59 124.79 L 19.74 125.71 C 20.21 125.62 21.16 125.43 21.64 125.34 L 21.65 126.91 C 22.12 126.72 23.05 126.34 23.51 126.15 L 23.47 127.56 C 24.33 127.55 26.06 127.52 26.92 127.51 L 26.20 128.58 C 27.08 128.56 28.85 128.51 29.73 128.49 L 29.56 129.29 C 35.04 129.74 40.53 129.59 46.02 129.61 C 59.09 129.44 72.17 129.95 85.22 129.32 C 87.62 128.57 90.06 127.95 92.50 127.32 L 92.49 126.16 C 92.96 126.34 93.89 126.71 94.35 126.90 L 94.36 125.34 C 94.84 125.43 95.79 125.61 96.27 125.71 L 96.41 124.78 C 97.91 124.07 99.25 123.08 100.63 122.16 L 100.28 121.11 L 101.66 121.88 L 101.32 120.26 L 102.87 120.74 L 102.22 119.13 L 103.92 119.80 L 103.08 118.42 L 104.17 118.60 C 105.09 117.21 106.06 115.86 106.84 114.38 L 107.71 114.28 C 107.61 113.80 107.42 112.85 107.32 112.38 L 108.88 112.36 C 108.70 111.89 108.35 110.95 108.18 110.48 L 109.31 110.50 C 110.25 106.70 111.72 102.97 111.59 99.00 C 111.62 79.65 111.62 60.30 111.59 40.95 C 111.71 36.99 110.25 33.27 109.31 29.50 L 108.20 29.54 C 108.36 29.07 108.68 28.14 108.84 27.68 L 107.22 27.51 L 107.79 25.82 C 107.54 25.76 107.05 25.64 106.80 25.58 C 106.05 24.12 105.09 22.78 104.18 21.43 L 103.31 21.77 L 103.73 20.42 L 102.23 20.51 L 102.69 19.04 L 101.22 19.87 L 101.81 18.22 L 100.32 18.78 L 100.61 17.83 C 99.22 16.91 97.87 15.94 96.39 15.17 L 96.27 14.29 C 95.80 14.38 94.85 14.57 94.37 14.67 L 94.34 13.10 C 93.87 13.29 92.93 13.67 92.46 13.87 L 92.55 12.47 C 91.69 12.47 89.96 12.48 89.10 12.48 L 89.76 11.63 C 86.82 11.40 84.00 10.30 81.02 10.41 C 65.66 10.39 50.30 10.38 34.94 10.41 C 30.99 10.30 27.28 11.78 23.50 12.70 Z" />
<path fill="#000000" opacity="1.00" d=" M 26.12 12.75 C 27.70 12.60 29.29 12.39 30.73 11.69 C 47.50 11.48 64.27 11.69 81.04 11.58 C 82.94 11.62 84.94 11.41 86.73 12.23 C 88.20 12.73 89.67 13.21 91.17 13.64 C 92.57 14.40 94.01 15.12 95.54 15.62 C 95.61 15.91 95.74 16.49 95.80 16.77 L 97.62 16.07 L 97.17 17.71 L 98.16 17.26 C 100.34 19.44 102.52 21.62 104.68 23.81 L 104.38 24.86 L 105.83 24.31 C 105.70 24.81 105.42 25.80 105.29 26.29 L 106.33 26.39 C 106.86 28.04 107.68 29.58 108.65 31.03 C 108.54 31.42 108.31 32.21 108.20 32.60 L 109.26 32.12 C 109.40 33.69 109.60 35.28 110.31 36.72 C 110.45 58.90 110.45 81.09 110.31 103.27 C 109.63 104.71 109.41 106.28 109.26 107.85 L 108.16 107.45 C 108.29 107.85 108.56 108.63 108.70 109.03 C 107.54 110.33 106.89 111.95 106.37 113.58 L 105.29 113.73 C 105.43 114.22 105.69 115.21 105.83 115.70 L 104.31 115.11 L 104.72 116.18 C 102.53 118.36 100.33 120.54 98.16 122.75 L 97.14 122.25 L 97.69 123.80 C 97.20 123.68 96.21 123.43 95.72 123.31 L 95.59 124.36 C 93.96 124.90 92.34 125.54 91.03 126.68 C 90.64 126.55 89.85 126.28 89.45 126.14 L 89.80 127.46 C 88.31 127.47 86.82 127.50 85.33 127.55 L 85.77 128.48 C 67.77 128.25 49.76 128.50 31.76 128.36 C 27.75 127.69 24.05 125.90 20.35 124.31 L 20.29 123.28 C 19.80 123.42 18.84 123.69 18.35 123.83 L 18.67 122.83 C 15.64 120.98 13.00 118.39 11.18 115.33 L 10.19 115.65 C 10.32 115.17 10.57 114.19 10.70 113.71 L 9.58 113.60 C 9.09 112.31 8.65 111.01 8.23 109.70 C 8.08 109.67 7.77 109.61 7.61 109.58 C 7.23 107.42 6.57 105.32 5.63 103.34 C 5.63 81.14 5.51 58.93 5.69 36.73 C 6.39 35.29 6.60 33.71 6.74 32.14 L 7.82 32.56 C 7.70 32.18 7.47 31.42 7.35 31.04 C 8.33 29.60 9.19 28.07 9.63 26.38 L 10.72 26.29 C 10.58 25.79 10.30 24.80 10.16 24.30 L 11.68 24.88 L 11.27 23.80 C 12.64 22.69 13.99 21.47 14.71 19.81 C 16.03 18.95 17.34 18.07 18.66 17.20 L 18.38 16.16 C 18.85 16.30 19.79 16.58 20.27 16.72 L 20.42 15.62 C 22.08 15.18 23.66 14.44 24.98 13.32 C 25.38 13.46 26.19 13.75 26.60 13.89 L 26.12 12.75 M 35.16 42.00 C 35.17 50.67 35.17 59.33 35.16 68.00 C 38.05 68.00 40.95 68.00 43.84 68.00 C 43.84 64.96 43.84 61.93 43.84 58.89 C 45.98 58.94 48.12 59.15 50.19 59.73 C 50.94 62.43 50.79 65.25 51.11 68.01 C 54.03 67.99 56.94 67.98 59.86 68.06 C 58.55 65.51 59.12 62.62 58.86 59.88 C 58.78 57.79 56.74 56.72 55.35 55.51 C 58.99 54.08 59.58 49.65 58.56 46.34 C 57.56 43.79 54.72 42.63 52.18 42.31 C 46.53 41.78 40.83 42.07 35.16 42.00 M 62.58 49.16 C 62.65 53.53 62.44 57.90 62.66 62.26 C 62.84 64.86 64.39 67.50 67.09 68.06 C 70.33 69.24 73.68 67.86 76.27 65.90 C 76.23 66.43 76.16 67.48 76.12 68.00 C 78.55 68.00 80.98 68.00 83.42 68.00 C 83.42 61.72 83.42 55.44 83.42 49.16 C 80.80 49.16 78.19 49.16 75.57 49.16 C 75.53 53.54 75.87 57.95 75.11 62.29 C 73.67 62.41 72.24 62.50 70.79 62.55 C 70.15 58.11 70.48 53.62 70.42 49.16 C 67.81 49.16 65.19 49.16 62.58 49.16 Z" />
<path fill="#000000" opacity="1.00" d=" M 43.82 48.38 C 46.19 48.67 49.43 47.57 51.00 49.96 C 51.88 54.00 46.32 53.10 43.84 53.20 C 43.84 51.59 43.83 49.99 43.82 48.38 Z" />
</g>
<g id="#f7fbf8ff">
<path fill="#f7fbf8" opacity="1.00" d=" M 23.50 12.70 C 27.28 11.78 30.99 10.30 34.94 10.41 C 50.30 10.38 65.66 10.39 81.02 10.41 C 84.00 10.30 86.82 11.40 89.76 11.63 L 89.10 12.48 C 89.96 12.48 91.69 12.47 92.55 12.47 L 92.46 13.87 C 92.93 13.67 93.87 13.29 94.34 13.10 L 94.37 14.67 C 94.85 14.57 95.80 14.38 96.27 14.29 L 96.39 15.17 C 97.87 15.94 99.22 16.91 100.61 17.83 L 100.32 18.78 L 101.81 18.22 L 101.22 19.87 L 102.69 19.04 L 102.23 20.51 L 103.73 20.42 L 103.31 21.77 L 104.18 21.43 C 105.09 22.78 106.05 24.12 106.80 25.58 C 107.05 25.64 107.54 25.76 107.79 25.82 L 107.22 27.51 L 108.84 27.68 C 108.68 28.14 108.36 29.07 108.20 29.54 L 109.31 29.50 C 110.25 33.27 111.71 36.99 111.59 40.95 C 111.62 60.30 111.62 79.65 111.59 99.00 C 111.72 102.97 110.25 106.70 109.31 110.50 L 108.18 110.48 C 108.35 110.95 108.70 111.89 108.88 112.36 L 107.32 112.38 C 107.42 112.85 107.61 113.80 107.71 114.28 L 106.84 114.38 C 106.06 115.86 105.09 117.21 104.17 118.60 L 103.08 118.42 L 103.92 119.80 L 102.22 119.13 L 102.87 120.74 L 101.32 120.26 L 101.66 121.88 L 100.28 121.11 L 100.63 122.16 C 99.25 123.08 97.91 124.07 96.41 124.78 L 96.27 125.71 C 95.79 125.61 94.84 125.43 94.36 125.34 L 94.35 126.90 C 93.89 126.71 92.96 126.34 92.49 126.16 L 92.50 127.32 C 90.06 127.95 87.62 128.57 85.22 129.32 C 72.17 129.95 59.09 129.44 46.02 129.61 C 40.53 129.59 35.04 129.74 29.56 129.29 L 29.73 128.49 C 28.85 128.51 27.08 128.56 26.20 128.58 L 26.92 127.51 C 26.06 127.52 24.33 127.55 23.47 127.56 L 23.51 126.15 C 23.05 126.34 22.12 126.72 21.65 126.91 L 21.64 125.34 C 21.16 125.43 20.21 125.62 19.74 125.71 L 19.59 124.79 C 18.09 124.06 16.75 123.08 15.36 122.16 L 15.74 121.11 L 14.35 121.88 L 14.66 120.26 L 12.99 120.68 L 13.91 119.18 L 12.21 119.85 L 12.81 118.35 L 11.85 118.60 C 10.93 117.25 9.96 115.93 9.24 114.46 L 8.30 114.26 C 8.39 113.79 8.58 112.85 8.67 112.38 L 7.11 112.34 C 7.29 111.87 7.66 110.93 7.85 110.46 L 6.44 110.52 C 6.45 109.66 6.48 107.95 6.50 107.09 L 5.63 107.80 C 5.38 104.85 4.29 102.02 4.40 99.04 C 4.39 79.68 4.38 60.31 4.41 40.95 C 4.32 37.01 5.74 33.28 6.69 29.51 L 7.79 29.55 C 7.63 29.08 7.32 28.14 7.17 27.68 L 8.79 27.50 L 8.20 25.81 C 8.45 25.76 8.94 25.65 9.19 25.60 C 9.93 24.13 10.90 22.79 11.81 21.43 L 12.69 21.69 L 12.22 20.32 L 13.20 20.56 C 13.54 19.32 14.34 18.53 15.61 18.20 L 15.44 17.79 C 16.80 16.88 18.12 15.91 19.60 15.21 L 19.68 14.29 C 20.17 14.38 21.14 14.57 21.63 14.66 L 21.64 13.13 C 22.11 13.30 23.06 13.64 23.53 13.81 L 23.50 12.70 M 26.12 12.75 L 26.60 13.89 C 26.19 13.75 25.38 13.46 24.98 13.32 C 23.66 14.44 22.08 15.18 20.42 15.62 L 20.27 16.72 C 19.79 16.58 18.85 16.30 18.38 16.16 L 18.66 17.20 C 17.34 18.07 16.03 18.95 14.71 19.81 C 13.99 21.47 12.64 22.69 11.27 23.80 L 11.68 24.88 L 10.16 24.30 C 10.30 24.80 10.58 25.79 10.72 26.29 L 9.63 26.38 C 9.19 28.07 8.33 29.60 7.35 31.04 C 7.47 31.42 7.70 32.18 7.82 32.56 L 6.74 32.14 C 6.60 33.71 6.39 35.29 5.69 36.73 C 5.51 58.93 5.63 81.14 5.63 103.34 C 6.57 105.32 7.23 107.42 7.61 109.58 C 7.77 109.61 8.08 109.67 8.23 109.70 C 8.65 111.01 9.09 112.31 9.58 113.60 L 10.70 113.71 C 10.57 114.19 10.32 115.17 10.19 115.65 L 11.18 115.33 C 13.00 118.39 15.64 120.98 18.67 122.83 L 18.35 123.83 C 18.84 123.69 19.80 123.42 20.29 123.28 L 20.35 124.31 C 24.05 125.90 27.75 127.69 31.76 128.36 C 49.76 128.50 67.77 128.25 85.77 128.48 L 85.33 127.55 C 86.82 127.50 88.31 127.47 89.80 127.46 L 89.45 126.14 C 89.85 126.28 90.64 126.55 91.03 126.68 C 92.34 125.54 93.96 124.90 95.59 124.36 L 95.72 123.31 C 96.21 123.43 97.20 123.68 97.69 123.80 L 97.14 122.25 L 98.16 122.75 C 100.33 120.54 102.53 118.36 104.72 116.18 L 104.31 115.11 L 105.83 115.70 C 105.69 115.21 105.43 114.22 105.29 113.73 L 106.37 113.58 C 106.89 111.95 107.54 110.33 108.70 109.03 C 108.56 108.63 108.29 107.85 108.16 107.45 L 109.26 107.85 C 109.41 106.28 109.63 104.71 110.31 103.27 C 110.45 81.09 110.45 58.90 110.31 36.72 C 109.60 35.28 109.40 33.69 109.26 32.12 L 108.20 32.60 C 108.31 32.21 108.54 31.42 108.65 31.03 C 107.68 29.58 106.86 28.04 106.33 26.39 L 105.29 26.29 C 105.42 25.80 105.70 24.81 105.83 24.31 L 104.38 24.86 L 104.68 23.81 C 102.52 21.62 100.34 19.44 98.16 17.26 L 97.17 17.71 L 97.62 16.07 L 95.80 16.77 C 95.74 16.49 95.61 15.91 95.54 15.62 C 94.01 15.12 92.57 14.40 91.17 13.64 C 89.67 13.21 88.20 12.73 86.73 12.23 C 84.94 11.41 82.94 11.62 81.04 11.58 C 64.27 11.69 47.50 11.48 30.73 11.69 C 29.29 12.39 27.70 12.60 26.12 12.75 Z" />
<path fill="#f7fbf8" opacity="1.00" d=" M 35.16 42.00 C 40.83 42.07 46.53 41.78 52.18 42.31 C 54.72 42.63 57.56 43.79 58.56 46.34 C 59.58 49.65 58.99 54.08 55.35 55.51 C 56.74 56.72 58.78 57.79 58.86 59.88 C 59.12 62.62 58.55 65.51 59.86 68.06 C 56.94 67.98 54.03 67.99 51.11 68.01 C 50.79 65.25 50.94 62.43 50.19 59.73 C 48.12 59.15 45.98 58.94 43.84 58.89 C 43.84 61.93 43.84 64.96 43.84 68.00 C 40.95 68.00 38.05 68.00 35.16 68.00 C 35.17 59.33 35.17 50.67 35.16 42.00 M 43.82 48.38 C 43.83 49.99 43.84 51.59 43.84 53.20 C 46.32 53.10 51.88 54.00 51.00 49.96 C 49.43 47.57 46.19 48.67 43.82 48.38 Z" />
<path fill="#f7fbf8" opacity="1.00" d=" M 62.58 49.16 C 65.19 49.16 67.81 49.16 70.42 49.16 C 70.48 53.62 70.15 58.11 70.79 62.55 C 72.24 62.50 73.67 62.41 75.11 62.29 C 75.87 57.95 75.53 53.54 75.57 49.16 C 78.19 49.16 80.80 49.16 83.42 49.16 C 83.42 55.44 83.42 61.72 83.42 68.00 C 80.98 68.00 78.55 68.00 76.12 68.00 C 76.16 67.48 76.23 66.43 76.27 65.90 C 73.68 67.86 70.33 69.24 67.09 68.06 C 64.39 67.50 62.84 64.86 62.66 62.26 C 62.44 57.90 62.65 53.53 62.58 49.16 Z" />
</g>
</svg>
