<?xml version="1.0" encoding="UTF-8" ?>
<!DOCTYPE svg PUBLIC "-//W3C//DTD SVG 1.1//EN" "http://www.w3.org/Graphics/SVG/1.1/DTD/svg11.dtd">
<svg width="117px" height="140px" viewBox="0 0 117 140" version="1.1" xmlns="http://www.w3.org/2000/svg">
<g id="#000000ff">
<path fill="#000000" opacity="1.00" d=" M 0.00 0.00 L 117.00 0.00 L 117.00 140.00 L 0.00 140.00 L 0.00 0.00 M 33.17 10.21 C 17.91 11.77 5.14 25.64 5.01 41.01 C 5.02 60.69 4.93 80.37 5.05 100.04 C 5.71 116.01 19.99 129.86 35.98 129.99 C 51.69 129.97 67.41 130.09 83.11 129.93 C 98.69 129.26 112.30 115.61 112.94 100.03 C 113.09 80.70 112.94 61.37 113.01 42.03 C 113.09 33.36 109.36 24.77 103.06 18.83 C 96.97 12.94 88.45 9.73 79.99 9.98 C 64.39 10.16 48.76 9.71 33.17 10.21 Z" />
<path fill="#000000" opacity="1.00" d=" M 33.18 12.33 C 48.77 11.70 64.40 12.23 80.01 12.05 C 90.33 11.74 100.67 17.05 106.15 25.84 C 109.49 30.89 111.06 36.96 110.94 42.99 C 110.93 61.34 110.98 79.69 110.92 98.04 C 111.07 109.80 103.49 121.12 92.62 125.56 C 85.84 128.66 78.24 127.85 71.01 127.94 C 58.96 127.86 46.91 128.11 34.86 127.83 C 20.07 127.11 7.30 113.89 7.11 99.08 C 7.02 79.69 7.02 60.29 7.11 40.90 C 7.33 26.69 19.07 13.88 33.18 12.33 M 47.53 50.38 C 44.67 51.18 44.01 55.69 46.97 56.75 C 49.70 58.19 53.44 54.21 51.21 51.77 C 50.36 50.69 48.92 49.83 47.53 50.38 M 70.46 50.46 C 65.98 51.84 69.00 58.53 72.96 56.77 C 77.01 55.45 74.23 48.87 70.46 50.46 M 56.95 55.00 C 57.93 57.71 62.16 57.61 63.09 54.91 C 64.25 52.60 62.02 50.62 60.02 49.91 C 57.96 50.59 55.69 52.65 56.95 55.00 Z" />
</g>
<g id="#7185b2ff">
<path fill="#7185b2" opacity="1.00" d=" M 33.17 10.21 C 48.76 9.71 64.39 10.16 79.99 9.98 C 88.45 9.73 96.97 12.94 103.06 18.83 C 109.36 24.77 113.09 33.36 113.01 42.03 C 112.94 61.37 113.09 80.70 112.94 100.03 C 112.30 115.61 98.69 129.26 83.11 129.93 C 67.41 130.09 51.69 129.97 35.98 129.99 C 19.99 129.86 5.71 116.01 5.05 100.04 C 4.93 80.37 5.02 60.69 5.01 41.01 C 5.14 25.64 17.91 11.77 33.17 10.21 M 33.18 12.33 C 19.07 13.88 7.33 26.69 7.11 40.90 C 7.02 60.29 7.02 79.69 7.11 99.08 C 7.30 113.89 20.07 127.11 34.86 127.83 C 46.91 128.11 58.96 127.86 71.01 127.94 C 78.24 127.85 85.84 128.66 92.62 125.56 C 103.49 121.12 111.07 109.80 110.92 98.04 C 110.98 79.69 110.93 61.34 110.94 42.99 C 111.06 36.96 109.49 30.89 106.15 25.84 C 100.67 17.05 90.33 11.74 80.01 12.05 C 64.40 12.23 48.77 11.70 33.18 12.33 Z" />
</g>
<g id="#f8fcf8ff">
<path fill="#f8fcf8" opacity="1.00" d=" M 47.53 50.38 C 48.92 49.83 50.36 50.69 51.21 51.77 C 53.44 54.21 49.70 58.19 46.97 56.75 C 44.01 55.69 44.67 51.18 47.53 50.38 Z" />
<path fill="#f8fcf8" opacity="1.00" d=" M 70.46 50.46 C 74.23 48.87 77.01 55.45 72.96 56.77 C 69.00 58.53 65.98 51.84 70.46 50.46 Z" />
<path fill="#f8fcf8" opacity="1.00" d=" M 56.95 55.00 C 55.69 52.65 57.96 50.59 60.02 49.91 C 62.02 50.62 64.25 52.60 63.09 54.91 C 62.16 57.61 57.93 57.71 56.95 55.00 Z" />
</g>
</svg>
