<?xml version="1.0" encoding="UTF-8" ?>
<!DOCTYPE svg PUBLIC "-//W3C//DTD SVG 1.1//EN" "http://www.w3.org/Graphics/SVG/1.1/DTD/svg11.dtd">
<svg width="45px" height="45px" viewBox="0 0 45 45" version="1.1" xmlns="http://www.w3.org/2000/svg">
<g id="#282c38ff">
<path fill="#282c38" opacity="1.00" d=" M 0.00 0.00 L 45.00 0.00 L 45.00 45.00 L 0.00 45.00 L 0.00 0.00 M 14.21 11.22 C 5.73 15.86 3.44 28.47 10.07 35.62 C 10.53 35.52 11.43 35.32 11.89 35.22 C 9.67 31.90 7.65 28.06 8.23 23.92 C 8.76 16.60 15.72 10.39 23.11 11.03 C 31.70 10.97 38.68 20.10 36.48 28.39 C 36.17 31.22 33.15 33.26 33.82 36.23 C 39.69 31.78 40.23 22.55 36.32 16.63 C 31.98 9.25 21.48 6.66 14.21 11.22 M 20.11 27.12 C 20.87 27.48 22.38 28.18 23.14 28.53 C 25.48 25.60 25.95 21.64 27.50 18.29 C 24.71 20.96 22.24 23.91 20.11 27.12 Z" />
</g>
<g id="#dee2e1ff">
<path fill="#dee2e1" opacity="1.00" d=" M 14.21 11.22 C 21.48 6.66 31.98 9.25 36.32 16.63 C 40.23 22.55 39.69 31.78 33.82 36.23 C 33.15 33.26 36.17 31.22 36.48 28.39 C 38.68 20.10 31.70 10.97 23.11 11.03 C 15.72 10.39 8.76 16.60 8.23 23.92 C 7.65 28.06 9.67 31.90 11.89 35.22 C 11.43 35.32 10.53 35.52 10.07 35.62 C 3.44 28.47 5.73 15.86 14.21 11.22 Z" />
<path fill="#dee2e1" opacity="1.00" d=" M 20.11 27.12 C 22.24 23.91 24.71 20.96 27.50 18.29 C 25.95 21.64 25.48 25.60 23.14 28.53 C 22.38 28.18 20.87 27.48 20.11 27.12 Z" />
</g>
</svg>
