<?xml version="1.0" encoding="UTF-8" ?>
<!DOCTYPE svg PUBLIC "-//W3C//DTD SVG 1.1//EN" "http://www.w3.org/Graphics/SVG/1.1/DTD/svg11.dtd">
<svg width="100px" height="100px" viewBox="0 0 100 100" version="1.1" xmlns="http://www.w3.org/2000/svg">
<g id="#407cc8ff">
<path fill="#407cc8" opacity="1.00" d=" M 0.00 0.00 L 100.00 0.00 L 100.00 100.00 L 0.00 100.00 L 0.00 0.00 M 29.41 19.66 C 29.44 20.04 29.50 20.81 29.53 21.19 C 32.19 22.87 35.12 24.12 37.65 25.99 C 38.77 29.15 36.09 31.68 34.96 34.38 C 34.20 34.40 32.69 34.45 31.94 34.47 C 29.12 32.80 26.45 30.64 23.13 30.10 C 23.87 36.57 30.51 42.35 37.10 39.75 C 40.13 42.49 42.90 45.50 45.85 48.32 C 45.70 48.90 45.42 50.07 45.28 50.66 C 43.69 49.84 41.60 48.51 39.99 50.06 C 34.46 54.80 29.65 60.35 24.37 65.37 C 22.06 67.72 19.38 69.87 18.07 73.00 C 20.65 75.84 23.32 78.60 26.26 81.07 C 27.92 80.18 29.64 79.31 30.93 77.91 C 35.74 73.07 40.53 68.22 45.38 63.42 C 46.84 61.89 48.41 60.39 49.39 58.48 C 50.30 56.73 48.89 54.99 48.38 53.37 C 48.98 53.45 50.18 53.62 50.78 53.70 C 54.30 57.04 57.26 60.92 60.65 64.40 C 59.75 69.90 62.10 75.38 66.74 78.46 C 70.17 78.73 73.61 78.74 77.04 78.36 C 75.04 75.77 71.80 74.80 69.21 72.97 C 68.31 72.29 66.88 71.52 67.39 70.13 C 68.31 67.81 69.87 65.81 70.85 63.52 C 75.50 62.84 78.12 68.61 82.64 67.44 C 81.16 61.62 75.03 55.55 68.73 58.51 C 64.34 54.78 60.37 50.52 56.84 45.96 C 61.39 41.46 65.89 36.92 70.41 32.38 C 72.30 30.27 75.22 29.79 77.72 28.72 C 78.68 26.44 79.73 24.21 80.83 21.99 C 78.97 20.39 77.16 17.17 74.37 19.16 C 68.93 19.87 69.71 26.34 66.09 29.14 C 61.91 33.44 57.47 37.50 53.49 42.01 C 50.10 39.83 47.75 36.46 44.70 33.87 C 44.52 31.18 45.06 28.35 44.19 25.76 C 42.79 23.50 40.96 21.42 38.71 19.98 C 35.73 18.90 32.49 19.52 29.41 19.66 Z" />
</g>
<g id="#f8fcf8ff">
<path fill="#f8fcf8" opacity="1.00" d=" M 29.41 19.66 C 32.49 19.52 35.73 18.90 38.71 19.98 C 40.96 21.42 42.79 23.50 44.19 25.76 C 45.06 28.35 44.52 31.18 44.70 33.87 C 47.75 36.46 50.10 39.83 53.49 42.01 C 57.47 37.50 61.91 33.44 66.09 29.14 C 69.71 26.34 68.93 19.87 74.37 19.16 C 77.16 17.17 78.97 20.39 80.83 21.99 C 79.73 24.21 78.68 26.44 77.72 28.72 C 75.22 29.79 72.30 30.27 70.41 32.38 C 65.89 36.92 61.39 41.46 56.84 45.96 C 60.37 50.52 64.34 54.78 68.73 58.51 C 75.03 55.55 81.16 61.62 82.64 67.44 C 78.12 68.61 75.50 62.84 70.85 63.52 C 69.87 65.81 68.31 67.81 67.39 70.13 C 66.88 71.52 68.31 72.29 69.21 72.97 C 71.80 74.80 75.04 75.77 77.04 78.36 C 73.61 78.74 70.17 78.73 66.74 78.46 C 62.10 75.38 59.75 69.90 60.65 64.40 C 57.26 60.92 54.30 57.04 50.78 53.70 C 50.18 53.62 48.98 53.45 48.38 53.37 C 48.89 54.99 50.30 56.73 49.39 58.48 C 48.41 60.39 46.84 61.89 45.38 63.42 C 40.53 68.22 35.74 73.07 30.93 77.91 C 29.64 79.31 27.92 80.18 26.26 81.07 C 23.32 78.60 20.65 75.84 18.07 73.00 C 19.38 69.87 22.06 67.72 24.37 65.37 C 29.65 60.35 34.46 54.80 39.99 50.06 C 41.60 48.51 43.69 49.84 45.28 50.66 C 45.42 50.07 45.70 48.90 45.85 48.32 C 42.90 45.50 40.13 42.49 37.10 39.75 C 30.51 42.35 23.87 36.57 23.13 30.10 C 26.45 30.64 29.12 32.80 31.94 34.47 C 32.69 34.45 34.20 34.40 34.96 34.38 C 36.09 31.68 38.77 29.15 37.65 25.99 C 35.12 24.12 32.19 22.87 29.53 21.19 C 29.50 20.81 29.44 20.04 29.41 19.66 Z" />
</g>
</svg>
