<?xml version="1.0" encoding="UTF-8" ?>
<!DOCTYPE svg PUBLIC "-//W3C//DTD SVG 1.1//EN" "http://www.w3.org/Graphics/SVG/1.1/DTD/svg11.dtd">
<svg width="117px" height="140px" viewBox="0 0 117 140" version="1.1" xmlns="http://www.w3.org/2000/svg">
<g id="#000000ff">
<path fill="#000000" opacity="1.00" d=" M 0.00 0.00 L 117.00 0.00 L 117.00 140.00 L 0.00 140.00 L 0.00 0.00 M 31.27 11.08 C 28.95 11.42 26.71 12.10 24.46 12.72 L 24.55 13.80 C 24.07 13.64 23.12 13.31 22.64 13.15 L 22.59 14.71 C 22.13 14.59 21.22 14.37 20.76 14.26 L 20.58 15.13 C 19.14 15.97 17.77 16.90 16.38 17.80 L 16.75 18.90 L 15.48 17.98 L 15.77 19.61 L 14.24 19.20 L 14.80 20.60 L 13.71 20.33 C 13.46 20.73 12.95 21.52 12.70 21.92 C 11.76 23.06 10.86 24.23 10.12 25.51 L 9.33 25.74 C 9.40 26.23 9.54 27.20 9.61 27.69 L 8.09 27.62 C 8.28 28.11 8.67 29.08 8.86 29.56 L 7.48 29.43 C 7.47 30.32 7.45 32.09 7.44 32.98 L 6.45 32.17 C 6.45 33.09 6.46 34.95 6.47 35.87 L 5.70 35.43 C 5.25 41.29 5.41 47.17 5.39 53.04 C 5.57 70.22 5.01 87.42 5.70 104.59 L 6.47 104.12 C 6.47 105.03 6.45 106.85 6.45 107.76 L 7.52 107.14 C 7.49 107.98 7.43 109.66 7.39 110.49 L 8.77 110.41 C 8.62 110.90 8.32 111.88 8.17 112.37 L 9.72 112.43 C 9.61 112.88 9.38 113.79 9.27 114.24 L 10.12 114.44 C 10.86 115.74 11.73 116.95 12.68 118.10 C 12.93 118.50 13.43 119.31 13.68 119.71 L 14.75 119.33 L 14.25 120.70 L 15.70 120.45 L 15.54 122.02 L 16.75 121.10 L 16.38 122.20 C 17.75 123.09 19.10 124.01 20.52 124.83 L 20.76 125.70 C 21.24 125.61 22.20 125.42 22.68 125.32 L 22.48 126.79 C 23.02 126.66 24.09 126.40 24.62 126.27 L 24.46 127.54 C 25.33 127.54 27.05 127.54 27.92 127.54 L 27.23 128.59 C 28.14 128.57 29.96 128.53 30.87 128.51 L 30.36 129.28 C 45.57 129.99 60.81 129.43 76.04 129.62 C 79.59 129.47 83.33 130.10 86.73 128.77 C 87.86 128.65 89.00 128.53 90.13 128.41 C 91.26 127.96 92.39 127.54 93.54 127.15 L 93.53 126.07 L 95.30 126.98 C 95.32 126.56 95.37 125.74 95.40 125.32 C 95.86 125.42 96.78 125.62 97.24 125.72 L 97.43 124.85 C 98.87 124.03 100.25 123.10 101.64 122.20 L 101.17 121.68 C 101.64 121.52 102.60 121.22 103.08 121.06 C 103.65 120.16 104.24 119.28 104.86 118.41 L 105.20 118.61 C 106.10 117.22 107.05 115.85 107.88 114.41 L 108.73 114.26 C 108.62 113.80 108.40 112.90 108.29 112.44 C 108.70 112.41 109.52 112.34 109.93 112.30 L 109.12 110.49 L 110.56 110.51 C 110.55 109.65 110.54 107.93 110.53 107.07 L 111.56 107.81 C 111.55 106.88 111.53 105.04 111.53 104.11 L 112.30 104.63 C 112.97 89.44 112.44 74.22 112.61 59.02 C 112.49 51.34 112.93 43.64 112.25 35.98 C 111.87 34.75 111.52 33.50 111.21 32.25 L 110.50 32.88 C 110.52 32.03 110.55 30.34 110.57 29.49 L 109.12 29.52 L 109.93 27.69 C 109.52 27.66 108.71 27.61 108.30 27.58 C 108.41 27.12 108.63 26.22 108.74 25.76 L 107.86 25.58 C 107.03 24.14 106.10 22.75 105.19 21.36 L 104.35 21.97 L 104.79 20.43 L 103.16 20.69 L 104.03 19.42 L 102.35 19.67 L 102.59 18.10 L 101.16 18.91 L 101.66 17.83 C 100.26 16.93 98.89 15.98 97.45 15.14 L 97.26 14.30 C 96.79 14.39 95.85 14.57 95.38 14.66 L 95.35 13.12 C 94.87 13.30 93.92 13.65 93.44 13.83 L 93.54 12.45 C 92.67 12.46 90.93 12.48 90.07 12.49 L 90.83 11.57 C 89.47 11.45 88.10 11.36 86.74 11.28 C 84.94 10.45 82.95 10.37 81.00 10.38 C 66.67 10.39 52.34 10.40 38.01 10.37 C 35.75 10.38 33.45 10.39 31.27 11.08 Z" />
<path fill="#000000" opacity="1.00" d=" M 32.05 11.54 C 50.02 11.66 67.99 11.67 85.95 11.53 L 85.22 12.16 C 87.73 12.42 90.18 13.02 92.62 13.66 L 92.64 14.64 C 93.11 14.54 94.04 14.35 94.50 14.25 L 94.64 15.56 C 95.12 15.50 96.08 15.37 96.57 15.31 L 96.60 16.68 C 97.12 16.59 98.17 16.40 98.70 16.31 L 98.24 17.97 L 99.64 17.03 L 99.47 17.95 C 101.58 19.53 103.45 21.41 105.04 23.52 L 105.90 23.32 L 105.09 24.76 L 106.71 24.32 C 106.61 24.83 106.40 25.87 106.30 26.39 L 107.70 26.43 C 107.63 26.91 107.50 27.86 107.43 28.33 L 108.73 28.50 C 108.64 28.97 108.46 29.91 108.37 30.38 L 109.33 30.35 C 109.73 32.14 110.25 33.91 110.63 35.71 L 111.47 35.35 C 111.33 57.90 111.34 80.44 111.47 102.98 L 110.86 102.21 C 110.59 104.74 109.99 107.22 109.34 109.68 L 108.36 109.62 C 108.45 110.09 108.65 111.01 108.75 111.48 L 107.44 111.69 C 107.50 112.16 107.63 113.08 107.69 113.55 L 106.28 113.63 C 106.40 114.15 106.65 115.18 106.77 115.69 L 105.65 115.16 C 105.49 115.62 105.17 116.55 105.02 117.01 C 103.25 118.62 101.50 120.25 99.96 122.09 C 99.51 122.21 98.59 122.44 98.13 122.56 L 98.70 123.74 C 98.18 123.63 97.13 123.41 96.61 123.30 L 96.55 124.71 C 96.09 124.64 95.16 124.49 94.70 124.42 L 94.54 125.68 C 94.05 125.62 93.08 125.50 92.60 125.43 L 92.41 126.91 C 91.93 126.68 90.96 126.22 90.48 125.99 L 90.79 127.39 C 88.92 127.46 87.06 127.57 85.20 127.66 L 85.93 128.46 C 67.64 128.33 49.35 128.35 31.05 128.45 L 31.82 127.77 C 29.61 127.49 27.49 126.81 25.32 126.33 L 25.37 125.39 C 25.04 125.44 24.38 125.53 24.05 125.57 C 23.40 125.24 22.08 124.57 21.43 124.23 L 21.38 123.33 C 20.85 123.42 19.80 123.61 19.27 123.70 L 19.88 122.53 C 19.42 122.42 18.48 122.19 18.02 122.07 C 16.45 120.25 14.76 118.53 12.92 116.98 C 12.82 116.52 12.60 115.59 12.50 115.12 L 11.33 115.75 C 11.41 115.21 11.57 114.14 11.65 113.60 L 10.19 113.47 L 10.66 111.78 C 10.31 111.69 9.59 111.52 9.24 111.43 C 9.34 110.99 9.56 110.09 9.66 109.64 L 8.67 109.68 C 7.95 107.05 7.33 104.39 7.11 101.66 L 6.55 101.72 C 6.65 80.57 6.66 59.42 6.54 38.27 L 7.11 38.40 C 7.32 35.66 7.94 32.98 8.67 30.33 L 9.68 30.34 C 9.57 29.89 9.35 28.98 9.24 28.53 L 10.56 28.34 C 10.50 27.86 10.38 26.92 10.32 26.44 L 11.80 26.33 C 11.62 25.81 11.27 24.79 11.10 24.27 L 12.70 25.01 L 12.14 23.43 L 13.00 23.53 C 14.56 21.40 16.43 19.51 18.56 17.94 L 18.35 16.98 L 19.77 17.99 L 19.30 16.30 C 19.82 16.40 20.87 16.59 21.39 16.69 L 21.46 15.28 C 21.92 15.36 22.85 15.51 23.32 15.59 L 23.46 14.33 C 23.95 14.38 24.92 14.50 25.41 14.56 L 25.61 13.07 C 26.11 13.32 27.12 13.82 27.62 14.07 L 27.09 12.63 C 29.00 12.55 30.91 12.43 32.82 12.33 L 32.05 11.54 M 56.10 38.01 C 55.24 40.94 54.82 43.95 54.94 47.00 C 52.96 47.00 50.98 47.00 49.00 47.00 C 49.00 47.75 49.00 49.25 49.00 50.00 C 50.96 50.00 52.92 50.00 54.89 50.00 C 54.88 52.71 55.39 55.37 56.10 57.97 C 57.94 58.14 60.01 59.09 61.69 57.87 C 64.47 55.91 67.17 53.83 69.73 51.60 C 71.99 49.89 71.98 46.08 69.71 44.39 C 67.13 42.14 64.41 40.04 61.61 38.07 C 59.94 36.92 57.90 37.86 56.10 38.01 M 42.00 47.00 C 42.00 47.75 42.00 49.25 42.00 50.00 C 44.00 50.00 46.00 50.00 48.00 50.00 C 48.00 49.25 48.00 47.75 48.00 47.00 C 46.00 47.00 44.00 47.00 42.00 47.00 M 57.90 70.62 C 57.74 72.87 57.71 75.12 57.76 77.38 C 52.34 77.39 46.93 77.39 41.52 77.37 C 41.57 75.67 41.62 73.97 41.66 72.27 C 41.00 72.25 39.68 72.20 39.02 72.18 C 39.34 74.61 38.12 77.90 40.43 79.59 C 42.22 80.20 44.17 79.87 46.03 79.96 C 56.33 79.81 66.66 80.17 76.95 79.80 C 80.05 78.74 78.65 74.67 78.99 72.20 C 78.33 72.21 77.00 72.25 76.34 72.26 C 76.38 73.97 76.43 75.67 76.48 77.37 C 71.06 77.39 65.64 77.39 60.23 77.37 C 60.07 74.87 61.41 71.21 57.90 70.62 Z" />
<path fill="#000000" opacity="1.00" d=" M 60.00 41.81 C 62.66 43.87 65.33 45.93 67.99 48.00 C 65.33 50.07 62.66 52.13 60.00 54.19 C 60.00 50.06 60.00 45.94 60.00 41.81 Z" />
</g>
<g id="#f5f9f7ff">
<path fill="#f5f9f7" opacity="1.00" d=" M 31.27 11.08 C 33.45 10.39 35.75 10.38 38.01 10.37 C 52.34 10.40 66.67 10.39 81.00 10.38 C 82.95 10.37 84.94 10.45 86.74 11.28 C 88.10 11.36 89.47 11.45 90.83 11.57 L 90.07 12.49 C 90.93 12.48 92.67 12.46 93.54 12.45 L 93.44 13.83 C 93.92 13.65 94.87 13.30 95.35 13.12 L 95.38 14.66 C 95.85 14.57 96.79 14.39 97.26 14.30 L 97.45 15.14 C 98.89 15.98 100.26 16.93 101.66 17.83 L 101.16 18.91 L 102.59 18.10 L 102.35 19.67 L 104.03 19.42 L 103.16 20.69 L 104.79 20.43 L 104.35 21.97 L 105.19 21.36 C 106.10 22.75 107.03 24.14 107.86 25.58 L 108.74 25.76 C 108.63 26.22 108.41 27.12 108.30 27.58 C 108.71 27.61 109.52 27.66 109.93 27.69 L 109.12 29.52 L 110.57 29.49 C 110.55 30.34 110.52 32.03 110.50 32.88 L 111.21 32.25 C 111.52 33.50 111.87 34.75 112.25 35.98 C 112.93 43.64 112.49 51.34 112.61 59.02 C 112.44 74.22 112.97 89.44 112.30 104.63 L 111.53 104.11 C 111.53 105.04 111.55 106.88 111.56 107.81 L 110.53 107.07 C 110.54 107.93 110.55 109.65 110.56 110.51 L 109.12 110.49 L 109.93 112.30 C 109.52 112.34 108.70 112.41 108.29 112.44 C 108.40 112.90 108.62 113.80 108.73 114.26 L 107.88 114.41 C 107.05 115.85 106.10 117.22 105.20 118.61 L 104.86 118.41 C 104.24 119.28 103.65 120.16 103.08 121.06 C 102.60 121.22 101.64 121.52 101.17 121.68 L 101.64 122.20 C 100.25 123.10 98.87 124.03 97.43 124.85 L 97.24 125.72 C 96.78 125.62 95.86 125.42 95.40 125.32 C 95.37 125.74 95.32 126.56 95.30 126.98 L 93.53 126.07 L 93.54 127.15 C 92.39 127.54 91.26 127.96 90.13 128.41 C 89.00 128.53 87.86 128.65 86.73 128.77 C 83.33 130.10 79.59 129.47 76.04 129.62 C 60.81 129.43 45.57 129.99 30.36 129.28 L 30.87 128.51 C 29.96 128.53 28.14 128.57 27.23 128.59 L 27.92 127.54 C 27.05 127.54 25.33 127.54 24.46 127.54 L 24.62 126.27 C 24.09 126.40 23.02 126.66 22.48 126.79 L 22.68 125.32 C 22.20 125.42 21.24 125.61 20.76 125.70 L 20.52 124.83 C 19.10 124.01 17.75 123.09 16.38 122.20 L 16.75 121.10 L 15.54 122.02 L 15.70 120.45 L 14.25 120.70 L 14.75 119.33 L 13.68 119.71 C 13.43 119.31 12.93 118.50 12.68 118.10 C 11.73 116.95 10.86 115.74 10.12 114.44 L 9.27 114.24 C 9.38 113.79 9.61 112.88 9.72 112.43 L 8.17 112.37 C 8.32 111.88 8.62 110.90 8.77 110.41 L 7.39 110.49 C 7.43 109.66 7.49 107.98 7.52 107.14 L 6.45 107.76 C 6.45 106.85 6.47 105.03 6.47 104.12 L 5.70 104.59 C 5.01 87.42 5.57 70.22 5.39 53.04 C 5.41 47.17 5.25 41.29 5.70 35.43 L 6.47 35.87 C 6.46 34.95 6.45 33.09 6.45 32.17 L 7.44 32.98 C 7.45 32.09 7.47 30.32 7.48 29.43 L 8.86 29.56 C 8.67 29.08 8.28 28.11 8.09 27.62 L 9.61 27.69 C 9.54 27.20 9.40 26.23 9.33 25.74 L 10.12 25.51 C 10.86 24.23 11.76 23.06 12.70 21.92 C 12.95 21.52 13.46 20.73 13.71 20.33 L 14.80 20.60 L 14.24 19.20 L 15.77 19.61 L 15.48 17.98 L 16.75 18.90 L 16.38 17.80 C 17.77 16.90 19.14 15.97 20.58 15.13 L 20.76 14.26 C 21.22 14.37 22.13 14.59 22.59 14.71 L 22.64 13.15 C 23.12 13.31 24.07 13.64 24.55 13.80 L 24.46 12.72 C 26.71 12.10 28.95 11.42 31.27 11.08 M 32.05 11.54 L 32.82 12.33 C 30.91 12.43 29.00 12.55 27.09 12.63 L 27.62 14.07 C 27.12 13.82 26.11 13.32 25.61 13.07 L 25.41 14.56 C 24.92 14.50 23.95 14.38 23.46 14.33 L 23.32 15.59 C 22.85 15.51 21.92 15.36 21.46 15.28 L 21.39 16.69 C 20.87 16.59 19.82 16.40 19.30 16.30 L 19.77 17.99 L 18.35 16.98 L 18.56 17.94 C 16.43 19.51 14.56 21.40 13.00 23.53 L 12.14 23.43 L 12.70 25.01 L 11.10 24.27 C 11.27 24.79 11.62 25.81 11.80 26.33 L 10.32 26.44 C 10.38 26.92 10.50 27.86 10.56 28.34 L 9.24 28.53 C 9.35 28.98 9.57 29.89 9.68 30.34 L 8.67 30.33 C 7.94 32.98 7.32 35.66 7.11 38.40 L 6.54 38.27 C 6.66 59.42 6.65 80.57 6.55 101.72 L 7.11 101.66 C 7.33 104.39 7.95 107.05 8.67 109.68 L 9.66 109.64 C 9.56 110.09 9.34 110.99 9.24 111.43 C 9.59 111.52 10.31 111.69 10.66 111.78 L 10.19 113.47 L 11.65 113.60 C 11.57 114.14 11.41 115.21 11.33 115.75 L 12.50 115.12 C 12.60 115.59 12.82 116.52 12.92 116.98 C 14.76 118.53 16.45 120.25 18.02 122.07 C 18.48 122.19 19.42 122.42 19.88 122.53 L 19.27 123.70 C 19.80 123.61 20.85 123.42 21.38 123.33 L 21.43 124.23 C 22.08 124.57 23.40 125.24 24.05 125.57 C 24.38 125.53 25.04 125.44 25.37 125.39 L 25.32 126.33 C 27.49 126.81 29.61 127.49 31.82 127.77 L 31.05 128.45 C 49.35 128.35 67.64 128.33 85.93 128.46 L 85.20 127.66 C 87.06 127.57 88.92 127.46 90.79 127.39 L 90.48 125.99 C 90.96 126.22 91.93 126.68 92.41 126.91 L 92.60 125.43 C 93.08 125.50 94.05 125.62 94.54 125.68 L 94.70 124.42 C 95.16 124.49 96.09 124.64 96.55 124.71 L 96.61 123.30 C 97.13 123.41 98.18 123.63 98.70 123.74 L 98.13 122.56 C 98.59 122.44 99.51 122.21 99.96 122.09 C 101.50 120.25 103.25 118.62 105.02 117.01 C 105.17 116.55 105.49 115.62 105.65 115.16 L 106.77 115.69 C 106.65 115.18 106.40 114.15 106.28 113.63 L 107.69 113.55 C 107.63 113.08 107.50 112.16 107.44 111.69 L 108.75 111.48 C 108.65 111.01 108.45 110.09 108.36 109.62 L 109.34 109.68 C 109.99 107.22 110.59 104.74 110.86 102.21 L 111.47 102.98 C 111.34 80.44 111.33 57.90 111.47 35.35 L 110.63 35.71 C 110.25 33.91 109.73 32.14 109.33 30.35 L 108.37 30.38 C 108.46 29.91 108.64 28.97 108.73 28.50 L 107.43 28.33 C 107.50 27.86 107.63 26.91 107.70 26.43 L 106.30 26.39 C 106.40 25.87 106.61 24.83 106.71 24.32 L 105.09 24.76 L 105.90 23.32 L 105.04 23.52 C 103.45 21.41 101.58 19.53 99.47 17.95 L 99.64 17.03 L 98.24 17.97 L 98.70 16.31 C 98.17 16.40 97.12 16.59 96.60 16.68 L 96.57 15.31 C 96.08 15.37 95.12 15.50 94.64 15.56 L 94.50 14.25 C 94.04 14.35 93.11 14.54 92.64 14.64 L 92.62 13.66 C 90.18 13.02 87.73 12.42 85.22 12.16 L 85.95 11.53 C 67.99 11.67 50.02 11.66 32.05 11.54 Z" />
<path fill="#f5f9f7" opacity="1.00" d=" M 56.10 38.01 C 57.90 37.86 59.94 36.92 61.61 38.07 C 64.41 40.04 67.13 42.14 69.71 44.39 C 71.98 46.08 71.99 49.89 69.73 51.60 C 67.17 53.83 64.47 55.91 61.69 57.87 C 60.01 59.09 57.94 58.14 56.10 57.97 C 55.39 55.37 54.88 52.71 54.89 50.00 C 52.92 50.00 50.96 50.00 49.00 50.00 C 49.00 49.25 49.00 47.75 49.00 47.00 C 50.98 47.00 52.96 47.00 54.94 47.00 C 54.82 43.95 55.24 40.94 56.10 38.01 M 60.00 41.81 C 60.00 45.94 60.00 50.06 60.00 54.19 C 62.66 52.13 65.33 50.07 67.99 48.00 C 65.33 45.93 62.66 43.87 60.00 41.81 Z" />
<path fill="#f5f9f7" opacity="1.00" d=" M 42.00 47.00 C 44.00 47.00 46.00 47.00 48.00 47.00 C 48.00 47.75 48.00 49.25 48.00 50.00 C 46.00 50.00 44.00 50.00 42.00 50.00 C 42.00 49.25 42.00 47.75 42.00 47.00 Z" />
<path fill="#f5f9f7" opacity="1.00" d=" M 57.90 70.62 C 61.41 71.21 60.07 74.87 60.23 77.37 C 65.64 77.39 71.06 77.39 76.48 77.37 C 76.43 75.67 76.38 73.97 76.34 72.26 C 77.00 72.25 78.33 72.21 78.99 72.20 C 78.65 74.67 80.05 78.74 76.95 79.80 C 66.66 80.17 56.33 79.81 46.03 79.96 C 44.17 79.87 42.22 80.20 40.43 79.59 C 38.12 77.90 39.34 74.61 39.02 72.18 C 39.68 72.20 41.00 72.25 41.66 72.27 C 41.62 73.97 41.57 75.67 41.52 77.37 C 46.93 77.39 52.34 77.39 57.76 77.38 C 57.71 75.12 57.74 72.87 57.90 70.62 Z" />
</g>
</svg>
