<?xml version="1.0" encoding="UTF-8" ?>
<!DOCTYPE svg PUBLIC "-//W3C//DTD SVG 1.1//EN" "http://www.w3.org/Graphics/SVG/1.1/DTD/svg11.dtd">
<svg width="117px" height="140px" viewBox="0 0 117 140" version="1.1" xmlns="http://www.w3.org/2000/svg">
<g id="#000000ff">
<path fill="#000000" opacity="1.00" d=" M 0.00 0.00 L 117.00 0.00 L 117.00 140.00 L 0.00 140.00 L 0.00 0.00 M 31.82 10.68 C 29.40 11.45 26.91 12.03 24.46 12.71 L 24.54 13.81 C 24.06 13.64 23.12 13.30 22.65 13.13 L 22.62 14.67 C 22.15 14.57 21.21 14.38 20.74 14.29 L 20.57 15.21 C 19.09 15.95 17.74 16.91 16.37 17.83 L 16.58 18.42 C 13.08 19.00 11.97 22.99 10.24 25.59 L 9.28 25.74 C 9.38 26.21 9.58 27.14 9.68 27.61 L 8.19 27.62 C 8.33 28.12 8.62 29.11 8.76 29.61 L 7.48 29.46 C 7.46 30.41 7.43 32.30 7.41 33.25 L 6.62 31.66 C 6.50 35.17 5.08 38.50 5.39 42.06 C 5.58 62.92 5.00 83.79 5.71 104.63 L 6.34 104.07 C 6.36 106.27 7.05 108.36 7.60 110.46 L 8.73 110.42 C 8.60 110.91 8.34 111.89 8.21 112.38 L 9.71 112.41 C 9.60 112.88 9.39 113.80 9.28 114.27 L 10.19 114.40 C 12.02 116.92 13.02 121.12 16.61 121.50 L 16.35 122.12 C 17.75 123.06 19.11 124.07 20.62 124.82 L 20.73 125.72 C 21.20 125.62 22.15 125.42 22.62 125.32 L 22.63 126.85 C 23.11 126.69 24.08 126.38 24.56 126.22 L 24.47 127.35 C 26.61 127.91 28.72 128.63 30.96 128.67 L 30.40 129.29 C 36.25 129.75 42.12 129.58 47.98 129.61 C 60.39 129.50 72.81 129.84 85.21 129.42 C 87.85 128.30 90.81 128.40 93.49 127.35 L 93.48 126.19 C 93.94 126.36 94.85 126.69 95.31 126.86 L 95.43 125.54 C 97.83 125.50 99.64 123.68 101.29 122.15 C 104.45 120.60 106.23 117.45 107.73 114.42 L 108.69 114.27 C 108.60 113.80 108.42 112.85 108.33 112.38 L 109.84 112.38 C 109.68 111.90 109.38 110.94 109.22 110.45 L 110.20 110.49 C 111.32 108.42 112.19 106.23 111.49 103.84 L 112.30 104.68 C 112.73 98.81 112.60 92.92 112.61 87.03 C 112.45 69.89 112.96 52.73 112.32 35.60 L 111.49 35.67 C 111.51 34.81 111.55 33.10 111.57 32.24 L 110.51 32.88 C 110.52 32.02 110.54 30.31 110.56 29.45 L 109.24 29.62 C 109.38 29.11 109.67 28.11 109.82 27.61 L 108.30 27.60 C 108.41 27.14 108.63 26.20 108.74 25.74 L 107.78 25.64 C 107.33 23.68 105.95 22.10 104.22 21.15 L 104.93 20.53 L 103.65 20.49 C 103.06 17.16 98.67 16.96 96.94 14.34 C 96.56 14.43 95.79 14.60 95.41 14.68 L 95.36 13.18 C 94.88 13.33 93.92 13.62 93.43 13.77 L 93.53 12.67 C 89.11 11.45 84.64 10.13 80.01 10.38 C 63.95 10.58 47.87 10.03 31.82 10.68 Z" />
<path fill="#000000" opacity="1.00" d=" M 27.14 12.57 C 28.64 12.54 30.13 12.50 31.62 12.47 L 31.30 11.52 C 48.55 11.72 65.81 11.56 83.06 11.60 C 85.76 11.60 88.32 12.61 91.02 12.75 L 90.25 13.78 C 90.70 13.69 91.60 13.49 92.05 13.40 C 92.75 13.85 93.46 14.30 94.17 14.74 C 95.12 15.12 96.08 15.50 97.04 15.87 C 99.07 18.55 102.38 19.97 104.57 22.59 C 105.17 23.74 105.23 25.60 106.96 25.67 L 106.34 26.41 L 107.30 26.35 C 107.54 26.98 108.02 28.23 108.26 28.86 C 108.54 29.34 109.11 30.28 109.39 30.76 C 109.83 32.80 110.40 34.83 111.40 36.67 C 111.38 58.86 111.39 81.05 111.39 103.24 C 110.37 105.09 109.81 107.15 109.43 109.23 C 108.49 110.56 107.79 112.04 107.42 113.64 L 106.36 113.70 C 106.45 114.24 106.64 115.31 106.73 115.85 L 105.32 114.91 L 105.74 116.06 C 105.35 116.58 104.57 117.62 104.18 118.14 C 103.09 118.82 102.02 119.53 101.16 120.50 L 101.26 120.89 C 100.09 121.64 98.82 122.19 97.55 122.74 L 97.87 123.89 L 96.65 123.38 L 96.59 124.34 C 95.98 124.56 94.74 124.98 94.12 125.20 C 93.60 125.57 92.56 126.31 92.04 126.69 C 91.64 126.55 90.84 126.28 90.44 126.14 L 90.85 127.43 C 89.07 127.47 87.30 127.56 85.52 127.61 L 85.68 128.47 C 68.43 128.28 51.17 128.45 33.91 128.38 C 31.54 128.36 29.33 127.32 26.96 127.23 L 27.82 126.48 C 26.35 126.53 24.89 126.25 23.73 125.28 C 23.17 125.05 22.05 124.60 21.48 124.38 C 21.41 124.10 21.26 123.53 21.19 123.25 L 19.59 123.91 L 19.63 122.48 L 18.35 122.59 L 18.64 121.72 C 17.70 121.24 16.75 120.77 15.79 120.33 C 15.19 119.13 14.54 117.94 13.46 117.11 L 13.48 116.52 L 12.19 116.57 L 12.82 115.48 L 11.20 115.41 L 11.75 113.56 L 10.80 113.90 C 10.29 112.60 9.74 111.31 9.12 110.06 C 8.89 109.22 8.42 107.54 8.19 106.69 L 7.61 108.45 C 7.56 106.76 7.50 105.07 7.44 103.38 L 6.49 103.76 C 6.79 81.75 6.49 59.74 6.64 37.73 C 7.15 35.00 8.09 32.34 9.21 29.81 C 9.52 29.30 10.14 28.28 10.45 27.78 C 10.38 27.48 10.24 26.90 10.17 26.61 L 11.64 26.28 C 11.54 25.78 11.36 24.76 11.27 24.25 L 12.71 24.89 L 12.19 23.49 L 13.47 23.47 L 13.51 22.77 C 14.71 22.06 15.23 20.78 15.71 19.55 C 16.81 19.35 17.80 18.90 18.70 18.18 L 18.44 17.08 L 20.06 17.68 L 19.19 16.22 C 19.71 16.33 20.77 16.56 21.29 16.67 L 21.43 15.59 C 23.09 15.14 24.70 14.48 25.96 13.28 C 26.36 13.44 27.16 13.74 27.56 13.89 L 27.14 12.57 M 46.71 40.51 C 43.83 43.02 40.14 44.84 37.99 48.06 C 36.00 53.32 42.41 55.63 45.44 58.54 C 47.68 61.14 51.06 60.43 54.01 59.88 C 54.00 57.26 54.00 54.63 54.00 52.00 C 54.75 52.00 56.25 52.00 57.00 52.00 C 57.00 51.25 57.00 49.75 57.00 49.00 C 56.25 49.00 54.75 49.00 54.00 49.00 C 54.00 46.04 54.00 43.08 54.01 40.12 C 51.60 39.97 48.80 38.69 46.71 40.51 M 63.99 40.12 C 64.00 43.08 64.00 46.04 64.00 49.00 C 62.00 49.00 60.00 49.00 58.00 49.00 C 58.00 49.75 58.00 51.25 58.00 52.00 C 60.00 52.00 62.00 52.00 64.00 52.00 C 64.00 54.63 64.00 57.26 63.99 59.89 C 66.45 60.04 69.31 61.34 71.41 59.40 C 74.26 56.90 77.94 55.13 80.02 51.90 C 81.97 46.56 75.38 44.27 72.34 41.28 C 70.13 38.80 66.83 39.64 63.99 40.12 Z" />
<path fill="#000000" opacity="1.00" d=" M 46.45 45.81 C 47.63 44.87 48.81 43.91 49.98 42.95 C 50.00 47.62 50.00 52.30 50.00 56.97 C 46.99 54.64 44.00 52.31 40.98 50.00 C 42.82 48.61 44.62 47.19 46.45 45.81 Z" />
<path fill="#000000" opacity="1.00" d=" M 68.00 43.01 C 70.99 45.35 73.99 47.67 76.99 49.99 C 74.00 52.34 70.97 54.64 67.98 57.00 C 68.02 52.33 68.00 47.67 68.00 43.01 Z" />
</g>
<g id="#f6fbf7ff">
<path fill="#f6fbf7" opacity="1.00" d=" M 31.82 10.68 C 47.87 10.03 63.95 10.58 80.01 10.38 C 84.64 10.13 89.11 11.45 93.53 12.67 L 93.43 13.77 C 93.92 13.62 94.88 13.33 95.36 13.18 L 95.41 14.68 C 95.79 14.60 96.56 14.43 96.94 14.34 C 98.67 16.96 103.06 17.16 103.65 20.49 L 104.93 20.53 L 104.22 21.15 C 105.95 22.10 107.33 23.68 107.78 25.64 L 108.74 25.74 C 108.63 26.20 108.41 27.14 108.30 27.60 L 109.82 27.61 C 109.67 28.11 109.38 29.11 109.24 29.62 L 110.56 29.45 C 110.54 30.31 110.52 32.02 110.51 32.88 L 111.57 32.24 C 111.55 33.10 111.51 34.81 111.49 35.67 L 112.32 35.60 C 112.96 52.73 112.45 69.89 112.61 87.03 C 112.60 92.92 112.73 98.81 112.30 104.68 L 111.49 103.84 C 112.19 106.23 111.32 108.42 110.20 110.49 L 109.22 110.45 C 109.38 110.94 109.68 111.90 109.84 112.38 L 108.33 112.38 C 108.42 112.85 108.60 113.80 108.69 114.27 L 107.73 114.42 C 106.23 117.45 104.45 120.60 101.29 122.15 C 99.64 123.68 97.83 125.50 95.43 125.54 L 95.31 126.86 C 94.85 126.69 93.94 126.36 93.48 126.19 L 93.49 127.35 C 90.81 128.40 87.85 128.30 85.21 129.42 C 72.81 129.84 60.39 129.50 47.98 129.61 C 42.12 129.58 36.25 129.75 30.40 129.29 L 30.96 128.67 C 28.72 128.63 26.61 127.91 24.47 127.35 L 24.56 126.22 C 24.08 126.38 23.11 126.69 22.63 126.85 L 22.62 125.32 C 22.15 125.42 21.20 125.62 20.73 125.72 L 20.62 124.82 C 19.11 124.07 17.75 123.06 16.35 122.12 L 16.61 121.50 C 13.02 121.12 12.02 116.92 10.19 114.40 L 9.28 114.27 C 9.39 113.80 9.60 112.88 9.71 112.41 L 8.21 112.38 C 8.34 111.89 8.60 110.91 8.73 110.42 L 7.60 110.46 C 7.05 108.36 6.36 106.27 6.34 104.07 L 5.71 104.63 C 5.00 83.79 5.58 62.92 5.39 42.06 C 5.08 38.50 6.50 35.17 6.62 31.66 L 7.41 33.25 C 7.43 32.30 7.46 30.41 7.48 29.46 L 8.76 29.61 C 8.62 29.11 8.33 28.12 8.19 27.62 L 9.68 27.61 C 9.58 27.14 9.38 26.21 9.28 25.74 L 10.24 25.59 C 11.97 22.99 13.08 19.00 16.58 18.42 L 16.37 17.83 C 17.74 16.91 19.09 15.95 20.57 15.21 L 20.74 14.29 C 21.21 14.38 22.15 14.57 22.62 14.67 L 22.65 13.13 C 23.12 13.30 24.06 13.64 24.54 13.81 L 24.46 12.71 C 26.91 12.03 29.40 11.45 31.82 10.68 M 27.14 12.57 L 27.56 13.89 C 27.16 13.74 26.36 13.44 25.96 13.28 C 24.70 14.48 23.09 15.14 21.43 15.59 L 21.29 16.67 C 20.77 16.56 19.71 16.33 19.19 16.22 L 20.06 17.68 L 18.44 17.08 L 18.70 18.18 C 17.80 18.90 16.81 19.35 15.71 19.55 C 15.23 20.78 14.71 22.06 13.51 22.77 L 13.47 23.47 L 12.19 23.49 L 12.71 24.89 L 11.27 24.25 C 11.36 24.76 11.54 25.78 11.64 26.28 L 10.17 26.61 C 10.24 26.90 10.38 27.48 10.45 27.78 C 10.14 28.28 9.52 29.30 9.21 29.81 C 8.09 32.34 7.15 35.00 6.64 37.73 C 6.49 59.74 6.79 81.75 6.49 103.76 L 7.44 103.38 C 7.50 105.07 7.56 106.76 7.61 108.45 L 8.19 106.69 C 8.42 107.54 8.89 109.22 9.12 110.06 C 9.74 111.31 10.29 112.60 10.80 113.90 L 11.75 113.56 L 11.20 115.41 L 12.82 115.48 L 12.19 116.57 L 13.48 116.52 L 13.46 117.11 C 14.54 117.94 15.19 119.13 15.79 120.33 C 16.75 120.77 17.70 121.24 18.64 121.72 L 18.35 122.59 L 19.63 122.48 L 19.59 123.91 L 21.19 123.25 C 21.26 123.53 21.41 124.10 21.48 124.38 C 22.05 124.60 23.17 125.05 23.73 125.28 C 24.89 126.25 26.35 126.53 27.82 126.48 L 26.96 127.23 C 29.33 127.32 31.54 128.36 33.91 128.38 C 51.17 128.45 68.43 128.28 85.68 128.47 L 85.52 127.61 C 87.30 127.56 89.07 127.47 90.85 127.43 L 90.44 126.14 C 90.84 126.28 91.64 126.55 92.04 126.69 C 92.56 126.31 93.60 125.57 94.12 125.20 C 94.74 124.98 95.98 124.56 96.59 124.34 L 96.65 123.38 L 97.87 123.89 L 97.55 122.74 C 98.82 122.19 100.09 121.64 101.26 120.89 L 101.16 120.50 C 102.02 119.53 103.09 118.82 104.18 118.14 C 104.57 117.62 105.35 116.58 105.74 116.06 L 105.32 114.91 L 106.73 115.85 C 106.64 115.31 106.45 114.24 106.36 113.70 L 107.42 113.64 C 107.79 112.04 108.49 110.56 109.43 109.23 C 109.81 107.15 110.37 105.09 111.39 103.24 C 111.39 81.05 111.38 58.86 111.40 36.67 C 110.40 34.83 109.83 32.80 109.39 30.76 C 109.11 30.28 108.54 29.34 108.26 28.86 C 108.02 28.23 107.54 26.98 107.30 26.35 L 106.34 26.41 L 106.96 25.67 C 105.23 25.60 105.17 23.74 104.57 22.59 C 102.38 19.97 99.07 18.55 97.04 15.87 C 96.08 15.50 95.12 15.12 94.17 14.74 C 93.46 14.30 92.75 13.85 92.05 13.40 C 91.60 13.49 90.70 13.69 90.25 13.78 L 91.02 12.75 C 88.32 12.61 85.76 11.60 83.06 11.60 C 65.81 11.56 48.55 11.72 31.30 11.52 L 31.62 12.47 C 30.13 12.50 28.64 12.54 27.14 12.57 Z" />
<path fill="#f6fbf7" opacity="1.00" d=" M 46.71 40.51 C 48.80 38.69 51.60 39.97 54.01 40.12 C 54.00 43.08 54.00 46.04 54.00 49.00 C 54.75 49.00 56.25 49.00 57.00 49.00 C 57.00 49.75 57.00 51.25 57.00 52.00 C 56.25 52.00 54.75 52.00 54.00 52.00 C 54.00 54.63 54.00 57.26 54.01 59.88 C 51.06 60.43 47.68 61.14 45.44 58.54 C 42.41 55.63 36.00 53.32 37.99 48.06 C 40.14 44.84 43.83 43.02 46.71 40.51 M 46.45 45.81 C 44.62 47.19 42.82 48.61 40.98 50.00 C 44.00 52.31 46.99 54.64 50.00 56.97 C 50.00 52.30 50.00 47.62 49.98 42.95 C 48.81 43.91 47.63 44.87 46.45 45.81 Z" />
<path fill="#f6fbf7" opacity="1.00" d=" M 63.99 40.12 C 66.83 39.64 70.13 38.80 72.34 41.28 C 75.38 44.27 81.97 46.56 80.02 51.90 C 77.94 55.13 74.26 56.90 71.41 59.40 C 69.31 61.34 66.45 60.04 63.99 59.89 C 64.00 57.26 64.00 54.63 64.00 52.00 C 62.00 52.00 60.00 52.00 58.00 52.00 C 58.00 51.25 58.00 49.75 58.00 49.00 C 60.00 49.00 62.00 49.00 64.00 49.00 C 64.00 46.04 64.00 43.08 63.99 40.12 M 68.00 43.01 C 68.00 47.67 68.02 52.33 67.98 57.00 C 70.97 54.64 74.00 52.34 76.99 49.99 C 73.99 47.67 70.99 45.35 68.00 43.01 Z" />
</g>
</svg>
