<?xml version="1.0" encoding="UTF-8" ?>
<!DOCTYPE svg PUBLIC "-//W3C//DTD SVG 1.1//EN" "http://www.w3.org/Graphics/SVG/1.1/DTD/svg11.dtd">
<svg width="100px" height="100px" viewBox="0 0 100 100" version="1.1" xmlns="http://www.w3.org/2000/svg">
<g id="#100c28ff">
<path fill="#100c28" opacity="1.00" d=" M 0.00 0.00 L 100.00 0.00 L 100.00 100.00 L 0.00 100.00 L 0.00 0.00 M 27.27 27.98 C 29.48 35.62 32.35 43.13 34.17 50.84 C 31.88 58.25 29.35 65.59 27.00 72.99 C 35.63 65.98 44.39 59.12 52.91 51.98 C 50.51 58.95 48.32 65.99 46.01 72.99 C 55.35 65.48 64.66 57.92 74.00 50.41 C 64.77 42.92 55.54 35.45 46.30 27.98 C 48.46 34.93 50.59 41.90 52.85 48.82 C 44.49 41.67 35.79 34.93 27.27 27.98 Z" />
</g>
<g id="#f8fcf8ff">
<path fill="#f8fcf8" opacity="1.00" d=" M 27.27 27.98 C 35.79 34.93 44.49 41.67 52.85 48.82 C 50.59 41.90 48.46 34.93 46.30 27.98 C 55.54 35.45 64.77 42.92 74.00 50.41 C 64.66 57.92 55.35 65.48 46.01 72.99 C 48.32 65.99 50.51 58.95 52.91 51.98 C 44.39 59.12 35.63 65.98 27.00 72.99 C 29.35 65.59 31.88 58.25 34.17 50.84 C 32.35 43.13 29.48 35.62 27.27 27.98 Z" />
</g>
</svg>
