<?xml version="1.0" encoding="UTF-8" ?>
<!DOCTYPE svg PUBLIC "-//W3C//DTD SVG 1.1//EN" "http://www.w3.org/Graphics/SVG/1.1/DTD/svg11.dtd">
<svg width="117px" height="140px" viewBox="0 0 117 140" version="1.1" xmlns="http://www.w3.org/2000/svg">
<g id="#000000ff">
<path fill="#000000" opacity="1.00" d=" M 0.00 0.00 L 117.00 0.00 L 117.00 140.00 L 0.00 140.00 L 0.00 0.00 M 30.22 10.54 L 30.90 11.34 C 29.19 11.45 27.28 11.23 25.95 12.57 C 25.55 12.40 24.75 12.08 24.36 11.91 L 24.86 13.21 C 21.95 13.40 19.68 15.38 17.34 16.89 L 17.70 17.05 C 15.26 18.28 13.38 20.34 12.04 22.68 L 11.04 22.55 C 11.22 22.96 11.57 23.77 11.75 24.18 C 9.31 23.85 9.71 26.60 9.13 27.97 L 7.94 27.11 C 8.15 27.74 8.56 28.99 8.77 29.62 L 7.01 29.48 C 7.21 30.00 7.62 31.03 7.82 31.55 L 6.46 31.52 C 6.45 32.98 6.45 34.44 6.46 35.90 L 5.52 35.22 C 5.31 58.40 5.32 81.57 5.51 104.75 C 5.75 104.60 6.24 104.31 6.48 104.17 C 6.46 105.60 6.45 107.03 6.45 108.46 L 7.87 108.49 C 7.63 109.02 7.15 110.08 6.91 110.61 L 8.21 110.18 C 8.41 113.08 10.39 115.34 11.89 117.67 L 12.05 117.29 C 13.30 119.73 15.31 121.67 17.72 122.94 L 17.21 123.64 L 18.54 123.33 C 18.63 123.68 18.82 124.38 18.92 124.73 L 20.61 124.23 L 20.47 125.82 C 21.04 125.69 22.18 125.44 22.75 125.31 L 22.31 126.91 C 22.90 126.75 24.08 126.44 24.67 126.29 L 24.47 128.02 C 24.84 127.87 25.58 127.58 25.95 127.44 C 27.28 128.80 29.20 128.55 30.91 128.65 L 30.23 129.47 C 49.41 129.69 68.60 129.69 87.78 129.47 L 87.09 128.66 C 88.78 128.54 90.70 128.80 92.02 127.46 C 92.40 127.59 93.16 127.83 93.53 127.95 L 93.38 126.22 C 93.96 126.42 95.13 126.82 95.72 127.02 L 95.21 125.90 C 97.25 125.44 98.97 124.25 100.73 123.20 L 100.28 122.95 C 102.71 121.70 104.69 119.71 105.95 117.29 L 106.19 117.72 C 107.22 115.94 108.45 114.24 108.90 112.20 L 110.05 112.73 C 109.84 112.15 109.41 111.00 109.20 110.42 L 111.01 110.48 C 110.80 109.98 110.37 108.97 110.15 108.47 L 111.54 108.47 C 111.55 107.00 111.55 105.53 111.54 104.06 L 112.48 104.82 C 112.69 81.62 112.68 58.41 112.48 35.21 L 111.54 35.91 C 111.55 34.46 111.55 33.00 111.55 31.54 L 110.14 31.51 C 110.36 31.00 110.82 29.99 111.05 29.48 L 109.29 29.67 C 109.45 29.08 109.76 27.89 109.92 27.30 L 108.85 27.75 C 108.49 25.70 107.21 24.04 106.19 22.29 L 105.95 22.76 C 105.34 21.24 104.47 19.84 103.04 18.98 C 102.24 18.18 101.32 17.54 100.29 17.07 L 100.70 16.78 C 98.95 15.75 97.24 14.58 95.23 14.10 L 95.69 12.98 C 95.11 13.18 93.95 13.59 93.37 13.79 L 93.56 12.08 C 93.17 12.19 92.40 12.41 92.01 12.52 C 90.67 11.22 88.76 11.47 87.07 11.33 L 87.81 10.53 C 68.62 10.31 49.41 10.30 30.22 10.54 Z" />
<path fill="#000000" opacity="1.00" d=" M 28.26 12.51 C 29.77 12.53 31.28 12.53 32.79 12.53 L 32.08 11.54 C 50.03 11.65 67.97 11.65 85.92 11.54 L 85.20 12.52 C 86.71 12.52 88.22 12.52 89.74 12.52 L 89.59 13.54 C 90.39 13.53 92.01 13.52 92.81 13.52 L 92.53 14.84 C 93.03 14.69 94.04 14.39 94.54 14.24 L 94.64 15.71 C 95.14 15.62 96.15 15.42 96.66 15.32 L 96.54 16.99 C 96.91 16.82 97.65 16.49 98.02 16.33 C 99.03 18.14 100.98 19.04 102.31 20.56 C 103.72 22.08 104.71 24.09 106.70 24.98 C 106.52 25.35 106.16 26.08 105.98 26.44 L 107.68 26.34 C 107.58 26.85 107.39 27.86 107.29 28.36 L 108.78 28.48 C 108.62 28.97 108.30 29.96 108.14 30.46 L 109.47 30.19 C 109.48 31.00 109.49 32.60 109.50 33.41 L 110.48 33.28 C 110.48 34.78 110.49 36.28 110.50 37.79 L 111.46 37.08 C 111.35 59.02 111.35 80.97 111.46 102.92 L 110.50 102.22 C 110.49 103.72 110.48 105.22 110.48 106.72 L 109.50 106.59 C 109.49 107.40 109.48 109.00 109.48 109.80 L 108.17 109.53 C 108.32 110.04 108.61 111.05 108.75 111.55 L 107.27 111.64 C 107.38 112.14 107.59 113.15 107.70 113.65 L 106.04 113.52 C 106.21 113.92 106.54 114.71 106.71 115.11 C 104.47 115.14 104.55 117.26 104.19 118.81 C 103.96 118.68 103.52 118.41 103.29 118.28 C 102.78 118.79 101.76 119.79 101.25 120.30 C 101.41 120.52 101.72 120.96 101.88 121.18 C 100.24 121.50 98.18 121.51 98.08 123.76 C 97.70 123.56 96.94 123.16 96.56 122.96 L 96.67 124.66 C 96.16 124.57 95.14 124.39 94.63 124.30 L 94.52 125.78 C 94.02 125.62 93.03 125.30 92.54 125.14 L 92.81 126.48 C 92.01 126.48 90.42 126.47 89.62 126.46 L 89.72 127.48 C 88.21 127.47 86.71 127.47 85.20 127.48 L 85.92 128.46 C 67.97 128.35 50.02 128.35 32.08 128.46 L 32.80 127.49 C 31.29 127.47 29.78 127.47 28.27 127.48 L 28.39 126.46 C 27.59 126.47 25.99 126.48 25.19 126.48 L 25.46 125.14 C 24.97 125.30 23.98 125.62 23.48 125.78 L 23.37 124.30 C 22.86 124.39 21.84 124.57 21.33 124.66 L 21.43 122.95 C 21.06 123.15 20.33 123.54 19.96 123.74 C 19.53 122.48 18.68 121.63 17.42 121.19 C 16.48 120.26 15.58 119.29 14.69 118.31 C 14.48 118.44 14.04 118.70 13.82 118.83 C 13.43 117.42 13.59 115.49 11.69 115.15 C 11.46 114.17 11.23 113.19 10.99 112.21 L 9.51 112.91 C 9.54 112.04 9.59 110.29 9.62 109.42 L 8.50 109.81 C 8.50 109.00 8.51 107.40 8.52 106.59 L 7.52 106.72 C 7.52 105.22 7.51 103.71 7.50 102.21 L 6.54 102.93 C 6.65 80.98 6.65 59.03 6.54 37.08 L 7.50 37.79 C 7.51 36.28 7.52 34.77 7.52 33.27 L 8.50 33.43 C 8.51 32.62 8.52 30.99 8.53 30.18 L 9.87 30.48 C 9.71 29.98 9.39 28.98 9.23 28.49 L 10.79 28.31 C 10.63 27.80 10.31 26.77 10.16 26.26 L 11.33 26.84 C 11.75 25.58 12.23 24.34 12.78 23.12 L 13.05 23.75 C 13.94 22.14 15.23 20.82 16.66 19.68 C 16.55 19.46 16.32 19.03 16.21 18.81 C 17.60 18.42 19.55 18.57 19.86 16.68 C 20.84 16.46 21.81 16.23 22.79 16.01 L 22.10 14.52 C 22.98 14.54 24.74 14.59 25.62 14.61 L 25.17 13.49 C 25.98 13.51 27.61 13.54 28.42 13.55 L 28.26 12.51 M 45.40 40.81 C 41.77 40.78 37.90 41.62 35.38 44.44 C 30.62 49.14 30.91 57.72 36.00 62.08 C 39.37 65.32 44.38 65.33 48.72 64.86 C 48.99 64.47 49.53 63.69 49.80 63.30 C 55.93 63.29 62.07 63.29 68.20 63.30 C 68.69 64.61 69.60 65.18 70.94 65.01 C 74.15 65.08 77.66 65.31 80.40 63.31 C 85.54 60.03 86.58 52.17 82.56 47.61 C 80.81 45.29 77.90 44.59 75.39 43.46 C 73.28 39.48 70.80 35.32 66.44 33.49 C 58.90 29.67 49.09 33.33 45.40 40.81 Z" />
<path fill="#000000" opacity="1.00" d=" M 40.05 55.20 C 46.35 51.84 52.69 48.56 58.96 45.15 C 65.26 48.56 71.65 51.81 77.95 55.21 C 75.04 56.56 71.76 56.01 68.67 56.11 C 68.70 57.50 68.75 58.88 68.79 60.27 C 62.26 60.31 55.74 60.31 49.21 60.27 C 49.25 58.88 49.30 57.50 49.33 56.11 C 46.24 55.98 42.94 56.62 40.05 55.20 Z" />
</g>
<g id="#f7fcf8ff">
<path fill="#f7fcf8" opacity="1.00" d=" M 30.22 10.54 C 49.41 10.30 68.62 10.31 87.81 10.53 L 87.07 11.33 C 88.76 11.47 90.67 11.22 92.01 12.52 C 92.40 12.41 93.17 12.19 93.56 12.08 L 93.37 13.79 C 93.95 13.59 95.11 13.18 95.69 12.98 L 95.23 14.10 C 97.24 14.58 98.95 15.75 100.70 16.78 L 100.29 17.07 C 101.32 17.54 102.24 18.18 103.04 18.98 C 104.47 19.84 105.34 21.24 105.95 22.76 L 106.19 22.29 C 107.21 24.04 108.49 25.70 108.85 27.75 L 109.92 27.30 C 109.76 27.89 109.45 29.08 109.29 29.67 L 111.05 29.48 C 110.82 29.99 110.36 31.00 110.14 31.51 L 111.55 31.54 C 111.55 33.00 111.55 34.46 111.54 35.91 L 112.48 35.21 C 112.68 58.41 112.69 81.62 112.48 104.82 L 111.54 104.06 C 111.55 105.53 111.55 107.00 111.54 108.47 L 110.15 108.47 C 110.37 108.97 110.80 109.98 111.01 110.48 L 109.20 110.42 C 109.41 111.00 109.84 112.15 110.05 112.73 L 108.90 112.20 C 108.45 114.24 107.22 115.94 106.19 117.72 L 105.95 117.29 C 104.69 119.71 102.71 121.70 100.28 122.95 L 100.73 123.20 C 98.97 124.25 97.25 125.44 95.21 125.90 L 95.72 127.02 C 95.13 126.82 93.96 126.42 93.38 126.22 L 93.53 127.95 C 93.16 127.83 92.40 127.59 92.02 127.46 C 90.70 128.80 88.78 128.54 87.09 128.66 L 87.78 129.47 C 68.60 129.69 49.41 129.69 30.23 129.47 L 30.91 128.65 C 29.20 128.55 27.28 128.80 25.95 127.44 C 25.58 127.58 24.84 127.87 24.47 128.02 L 24.67 126.29 C 24.08 126.44 22.90 126.75 22.31 126.91 L 22.75 125.31 C 22.18 125.44 21.04 125.69 20.47 125.82 L 20.61 124.23 L 18.92 124.73 C 18.82 124.38 18.63 123.68 18.54 123.33 L 17.21 123.64 L 17.72 122.94 C 15.31 121.67 13.30 119.73 12.05 117.29 L 11.89 117.67 C 10.39 115.34 8.41 113.08 8.21 110.18 L 6.91 110.61 C 7.15 110.08 7.63 109.02 7.87 108.49 L 6.45 108.46 C 6.45 107.03 6.46 105.60 6.48 104.17 C 6.24 104.31 5.75 104.60 5.51 104.75 C 5.32 81.57 5.31 58.40 5.52 35.22 L 6.46 35.90 C 6.45 34.44 6.45 32.98 6.46 31.52 L 7.82 31.55 C 7.62 31.03 7.21 30.00 7.01 29.48 L 8.77 29.62 C 8.56 28.99 8.15 27.74 7.94 27.11 L 9.13 27.97 C 9.71 26.60 9.31 23.85 11.75 24.18 C 11.57 23.77 11.22 22.96 11.04 22.55 L 12.04 22.68 C 13.38 20.34 15.26 18.28 17.70 17.05 L 17.34 16.89 C 19.68 15.38 21.95 13.40 24.86 13.21 L 24.36 11.91 C 24.75 12.08 25.55 12.40 25.95 12.57 C 27.28 11.23 29.19 11.45 30.90 11.34 L 30.22 10.54 M 28.26 12.51 L 28.42 13.55 C 27.61 13.54 25.98 13.51 25.17 13.49 L 25.62 14.61 C 24.74 14.59 22.98 14.54 22.10 14.52 L 22.79 16.01 C 21.81 16.23 20.84 16.46 19.86 16.68 C 19.55 18.57 17.60 18.42 16.21 18.81 C 16.32 19.03 16.55 19.46 16.66 19.68 C 15.23 20.82 13.94 22.14 13.05 23.75 L 12.78 23.12 C 12.23 24.34 11.75 25.58 11.33 26.84 L 10.16 26.26 C 10.31 26.77 10.63 27.80 10.79 28.31 L 9.23 28.49 C 9.39 28.98 9.71 29.98 9.87 30.48 L 8.53 30.18 C 8.52 30.99 8.51 32.62 8.50 33.43 L 7.52 33.27 C 7.52 34.77 7.51 36.28 7.50 37.79 L 6.54 37.08 C 6.65 59.03 6.65 80.98 6.54 102.93 L 7.50 102.21 C 7.51 103.71 7.52 105.22 7.52 106.72 L 8.52 106.59 C 8.51 107.40 8.50 109.00 8.50 109.81 L 9.62 109.42 C 9.59 110.29 9.54 112.04 9.51 112.91 L 10.99 112.21 C 11.23 113.19 11.46 114.17 11.69 115.15 C 13.59 115.49 13.43 117.42 13.82 118.83 C 14.04 118.70 14.48 118.44 14.69 118.31 C 15.58 119.29 16.48 120.26 17.42 121.19 C 18.68 121.63 19.53 122.48 19.96 123.74 C 20.33 123.54 21.06 123.15 21.43 122.95 L 21.33 124.66 C 21.84 124.57 22.86 124.39 23.37 124.30 L 23.48 125.78 C 23.98 125.62 24.97 125.30 25.46 125.14 L 25.19 126.48 C 25.99 126.48 27.59 126.47 28.39 126.46 L 28.27 127.48 C 29.78 127.47 31.29 127.47 32.80 127.49 L 32.08 128.46 C 50.02 128.35 67.97 128.35 85.92 128.46 L 85.20 127.48 C 86.71 127.47 88.21 127.47 89.72 127.48 L 89.62 126.46 C 90.42 126.47 92.01 126.48 92.81 126.48 L 92.54 125.14 C 93.03 125.30 94.02 125.62 94.52 125.78 L 94.63 124.30 C 95.14 124.39 96.16 124.57 96.67 124.66 L 96.56 122.96 C 96.94 123.16 97.70 123.56 98.08 123.76 C 98.18 121.51 100.24 121.50 101.88 121.18 C 101.72 120.96 101.41 120.52 101.25 120.30 C 101.76 119.79 102.78 118.79 103.29 118.28 C 103.52 118.41 103.96 118.68 104.19 118.81 C 104.55 117.26 104.47 115.14 106.71 115.11 C 106.54 114.71 106.21 113.92 106.04 113.52 L 107.70 113.65 C 107.59 113.15 107.38 112.14 107.27 111.64 L 108.75 111.55 C 108.61 111.05 108.32 110.04 108.17 109.53 L 109.48 109.80 C 109.48 109.00 109.49 107.40 109.50 106.59 L 110.48 106.72 C 110.48 105.22 110.49 103.72 110.50 102.22 L 111.46 102.92 C 111.35 80.97 111.35 59.02 111.46 37.08 L 110.50 37.79 C 110.49 36.28 110.48 34.78 110.48 33.28 L 109.50 33.41 C 109.49 32.60 109.48 31.00 109.47 30.19 L 108.14 30.46 C 108.30 29.96 108.62 28.97 108.78 28.48 L 107.29 28.36 C 107.39 27.86 107.58 26.85 107.68 26.34 L 105.98 26.44 C 106.16 26.08 106.52 25.35 106.70 24.98 C 104.71 24.09 103.72 22.08 102.31 20.56 C 100.98 19.04 99.03 18.14 98.02 16.33 C 97.65 16.49 96.91 16.82 96.54 16.99 L 96.66 15.32 C 96.15 15.42 95.14 15.62 94.64 15.71 L 94.54 14.24 C 94.04 14.39 93.03 14.69 92.53 14.84 L 92.81 13.52 C 92.01 13.52 90.39 13.53 89.59 13.54 L 89.74 12.52 C 88.22 12.52 86.71 12.52 85.20 12.52 L 85.92 11.54 C 67.97 11.65 50.03 11.65 32.08 11.54 L 32.79 12.53 C 31.28 12.53 29.77 12.53 28.26 12.51 Z" />
<path fill="#f7fcf8" opacity="1.00" d=" M 45.40 40.81 C 49.09 33.33 58.90 29.67 66.44 33.49 C 70.80 35.32 73.28 39.48 75.39 43.46 C 77.90 44.59 80.81 45.29 82.56 47.61 C 86.58 52.17 85.54 60.03 80.40 63.31 C 77.66 65.31 74.15 65.08 70.94 65.01 C 69.60 65.18 68.69 64.61 68.20 63.30 C 62.07 63.29 55.93 63.29 49.80 63.30 C 49.53 63.69 48.99 64.47 48.72 64.86 C 44.38 65.33 39.37 65.32 36.00 62.08 C 30.91 57.72 30.62 49.14 35.38 44.44 C 37.90 41.62 41.77 40.78 45.40 40.81 M 40.05 55.20 C 42.94 56.62 46.24 55.98 49.33 56.11 C 49.30 57.50 49.25 58.88 49.21 60.27 C 55.74 60.31 62.26 60.31 68.79 60.27 C 68.75 58.88 68.70 57.50 68.67 56.11 C 71.76 56.01 75.04 56.56 77.95 55.21 C 71.65 51.81 65.26 48.56 58.96 45.15 C 52.69 48.56 46.35 51.84 40.05 55.20 Z" />
</g>
</svg>
