<?xml version="1.0" encoding="UTF-8" ?>
<!DOCTYPE svg PUBLIC "-//W3C//DTD SVG 1.1//EN" "http://www.w3.org/Graphics/SVG/1.1/DTD/svg11.dtd">
<svg width="117px" height="140px" viewBox="0 0 117 140" version="1.1" xmlns="http://www.w3.org/2000/svg">
<g id="#000000ff">
<path fill="#000000" opacity="1.00" d=" M 0.00 0.00 L 117.00 0.00 L 117.00 140.00 L 0.00 140.00 L 0.00 0.00 M 31.30 10.60 L 31.82 11.41 C 29.29 11.17 26.89 11.96 24.52 12.71 L 24.52 13.83 C 24.05 13.65 23.12 13.30 22.65 13.12 L 22.61 14.67 C 22.14 14.58 21.20 14.38 20.74 14.28 L 20.58 15.17 C 19.14 15.97 17.79 16.89 16.41 17.78 L 16.69 18.78 L 15.29 18.25 L 15.64 19.82 L 14.20 19.17 L 14.81 20.60 L 13.27 20.33 L 13.77 21.72 L 12.80 21.39 C 11.92 22.75 11.01 24.09 10.22 25.51 L 9.28 25.76 C 9.38 26.22 9.58 27.15 9.68 27.61 L 8.16 27.65 C 8.31 28.12 8.63 29.06 8.79 29.54 L 7.68 29.55 C 6.74 33.34 5.28 37.07 5.40 41.03 C 5.40 60.69 5.34 80.35 5.44 100.01 C 5.29 103.65 6.80 107.01 7.72 110.45 L 8.80 110.47 C 8.64 110.94 8.31 111.88 8.15 112.34 L 9.68 112.41 C 9.59 112.87 9.40 113.80 9.30 114.26 L 10.17 114.44 C 10.98 115.87 11.91 117.22 12.81 118.60 L 13.81 118.34 L 13.25 119.78 L 14.91 119.28 L 14.00 120.72 L 15.49 120.21 L 15.43 121.70 L 16.75 121.28 L 16.40 122.20 C 17.78 123.09 19.13 124.01 20.55 124.82 C 20.62 125.07 20.76 125.55 20.83 125.79 L 22.49 125.22 L 22.69 126.87 C 23.15 126.69 24.07 126.34 24.53 126.17 L 24.48 127.53 C 25.36 127.53 27.11 127.54 27.99 127.55 L 27.19 128.58 C 28.73 128.57 30.28 128.54 31.82 128.52 L 31.29 129.40 C 46.54 129.86 61.81 129.49 77.07 129.61 C 80.27 129.51 83.60 129.99 86.67 128.85 C 88.99 128.61 91.24 127.99 93.47 127.31 L 93.49 126.19 C 93.95 126.36 94.89 126.70 95.36 126.87 L 95.39 125.32 C 95.86 125.42 96.79 125.62 97.26 125.72 L 97.45 124.81 C 98.88 124.01 100.24 123.08 101.61 122.19 L 101.33 121.03 L 102.65 121.93 L 102.31 120.29 L 103.96 120.68 L 103.13 119.25 L 104.76 119.78 L 104.22 118.33 L 105.21 118.58 C 106.09 117.21 107.02 115.87 107.82 114.44 C 108.06 114.38 108.53 114.25 108.77 114.18 L 108.21 112.50 L 109.87 112.30 C 109.70 111.85 109.34 110.93 109.16 110.48 L 110.55 110.50 C 110.54 109.65 110.52 107.94 110.51 107.08 L 111.36 107.77 C 111.62 104.83 112.70 102.01 112.59 99.02 C 112.62 79.68 112.62 60.34 112.59 40.99 C 112.71 37.04 111.26 33.31 110.32 29.53 L 109.19 29.52 C 109.36 29.05 109.70 28.11 109.87 27.64 L 108.32 27.61 C 108.41 27.14 108.60 26.21 108.70 25.74 L 107.80 25.54 C 107.01 24.11 106.10 22.77 105.21 21.41 L 104.27 21.73 L 104.71 20.37 L 103.20 20.56 L 103.80 19.11 L 102.35 19.85 L 102.72 18.27 L 101.32 18.77 L 101.58 17.81 C 100.24 16.91 98.91 16.00 97.50 15.23 L 97.24 14.29 C 96.77 14.39 95.84 14.58 95.38 14.67 L 95.35 13.13 C 94.88 13.30 93.94 13.64 93.48 13.81 L 93.47 12.70 C 91.10 11.95 88.71 11.18 86.19 11.41 L 86.70 10.60 C 68.24 10.26 49.76 10.26 31.30 10.60 Z" />
<path fill="#000000" opacity="1.00" d=" M 27.15 12.69 C 29.81 12.68 32.33 11.61 34.98 11.60 C 51.00 11.61 67.02 11.62 83.03 11.60 C 85.69 11.60 88.20 12.71 90.88 12.69 L 90.42 13.85 C 90.82 13.73 91.61 13.50 92.01 13.39 C 93.41 14.30 94.90 15.06 96.45 15.68 L 96.79 16.73 C 97.27 16.57 98.23 16.26 98.70 16.11 L 98.09 17.58 L 99.19 17.33 C 101.37 19.47 103.54 21.63 105.68 23.80 L 105.37 24.83 L 107.00 24.40 L 106.21 26.13 C 106.50 26.24 107.07 26.45 107.35 26.55 C 107.95 28.10 108.69 29.59 109.61 30.98 C 109.50 31.39 109.28 32.22 109.18 32.63 L 110.26 32.09 C 110.29 33.66 110.64 35.16 111.31 36.58 C 111.47 58.83 111.40 81.09 111.34 103.35 C 110.46 105.34 109.81 107.43 109.35 109.55 L 108.79 109.75 C 108.36 111.03 107.90 112.28 107.45 113.55 L 106.29 113.74 C 106.43 114.23 106.70 115.20 106.83 115.68 L 105.33 115.14 L 105.70 116.18 C 103.53 118.37 101.36 120.54 99.17 122.71 L 98.14 122.30 L 98.70 123.82 C 98.21 123.69 97.24 123.43 96.75 123.31 L 96.55 124.36 C 95.95 124.57 94.74 124.99 94.14 125.20 C 93.62 125.57 92.57 126.30 92.05 126.67 C 91.65 126.54 90.83 126.28 90.43 126.15 L 90.86 127.30 C 87.85 127.34 85.00 128.58 81.98 128.41 C 66.31 128.37 50.63 128.39 34.96 128.40 C 31.68 128.43 28.62 127.02 25.46 126.35 C 25.39 126.20 25.26 125.90 25.19 125.75 C 23.96 125.33 22.73 124.90 21.50 124.47 L 21.24 123.32 C 20.76 123.44 19.79 123.68 19.31 123.79 L 19.85 122.28 L 18.83 122.71 C 16.57 120.31 13.84 118.29 12.16 115.39 L 11.17 115.62 C 11.30 115.16 11.57 114.24 11.70 113.78 L 10.67 113.45 C 10.05 111.89 9.29 110.39 8.37 108.99 C 8.48 108.59 8.71 107.79 8.83 107.39 L 7.53 107.89 C 7.55 106.96 7.59 105.09 7.60 104.16 L 6.53 104.89 C 6.77 82.12 6.45 59.35 6.69 36.59 C 7.35 35.17 7.70 33.68 7.73 32.11 L 8.83 32.61 C 8.70 32.19 8.44 31.37 8.31 30.96 C 8.68 30.43 9.42 29.37 9.79 28.84 C 10.00 28.24 10.43 27.03 10.64 26.43 L 11.72 26.25 C 11.58 25.78 11.30 24.85 11.15 24.38 L 12.15 24.62 C 13.82 21.70 16.58 19.70 18.84 17.28 L 19.83 17.74 L 19.33 16.20 C 19.81 16.32 20.78 16.57 21.26 16.69 L 21.44 15.65 C 22.06 15.42 23.29 14.96 23.91 14.73 C 24.43 14.38 25.47 13.68 25.99 13.33 C 26.38 13.46 27.17 13.73 27.56 13.87 L 27.15 12.69 M 41.31 47.14 C 43.36 47.91 45.41 48.65 47.49 49.32 C 48.22 47.69 48.93 46.04 49.78 44.45 C 49.40 47.64 50.99 50.45 51.88 53.39 C 53.67 52.70 55.46 52.00 57.25 51.29 C 56.66 49.13 56.33 46.92 56.16 44.69 C 57.45 45.82 58.78 46.92 60.37 47.60 C 59.67 47.53 58.28 47.40 57.58 47.33 C 57.57 49.22 57.57 51.11 57.58 53.00 C 60.91 53.00 64.25 53.00 67.58 53.00 C 67.45 57.08 67.88 61.20 67.38 65.25 C 66.96 65.55 66.13 66.16 65.71 66.46 C 65.54 62.36 65.63 58.26 65.64 54.15 C 61.15 54.17 56.66 54.15 52.17 54.17 C 52.15 59.11 52.17 64.06 52.16 69.00 C 56.17 69.00 60.19 69.01 64.20 68.99 C 64.65 70.22 65.10 71.46 65.54 72.69 C 68.29 72.48 72.67 73.26 73.76 69.90 C 74.32 62.37 73.84 54.80 74.00 47.25 C 73.36 47.36 72.07 47.56 71.42 47.67 C 71.76 46.88 72.09 46.09 72.41 45.30 C 73.21 45.35 74.80 45.44 75.60 45.48 C 75.61 43.44 75.62 41.40 75.64 39.37 C 72.97 39.39 70.29 39.42 67.63 39.31 C 65.54 37.95 62.97 37.99 60.62 37.44 C 59.97 39.36 59.31 41.27 58.71 43.21 C 58.76 42.25 58.86 40.34 58.90 39.38 C 56.50 39.39 54.09 39.40 51.69 39.34 C 50.01 37.79 47.55 38.02 45.50 37.37 C 44.18 40.66 43.13 44.07 41.31 47.14 M 44.16 49.57 C 44.16 57.18 44.16 64.80 44.16 72.42 C 46.31 72.42 48.46 72.42 50.62 72.42 C 50.59 65.52 50.66 58.62 50.61 51.72 C 50.43 51.33 50.06 50.53 49.88 50.13 C 48.11 49.21 46.07 49.67 44.16 49.57 Z" />
<path fill="#000000" opacity="1.00" d=" M 63.51 47.06 C 62.91 44.74 67.14 44.76 66.36 47.09 C 65.37 48.20 64.42 48.19 63.51 47.06 Z" />
<path fill="#000000" opacity="1.00" d=" M 57.27 64.23 C 58.05 63.18 59.04 63.05 60.23 63.82 C 61.28 65.65 57.25 66.08 57.27 64.23 Z" />
</g>
<g id="#f7fbf8ff">
<path fill="#f7fbf8" opacity="1.00" d=" M 31.30 10.60 C 49.76 10.26 68.24 10.26 86.70 10.60 L 86.19 11.41 C 88.71 11.18 91.10 11.95 93.47 12.70 L 93.48 13.81 C 93.94 13.64 94.88 13.30 95.35 13.13 L 95.38 14.67 C 95.84 14.58 96.77 14.39 97.24 14.29 L 97.50 15.23 C 98.91 16.00 100.24 16.91 101.58 17.81 L 101.32 18.77 L 102.72 18.27 L 102.35 19.85 L 103.80 19.11 L 103.20 20.56 L 104.71 20.37 L 104.27 21.73 L 105.21 21.41 C 106.10 22.77 107.01 24.11 107.80 25.54 L 108.70 25.74 C 108.60 26.21 108.41 27.14 108.32 27.61 L 109.87 27.64 C 109.70 28.11 109.36 29.05 109.19 29.52 L 110.32 29.53 C 111.26 33.31 112.71 37.04 112.59 40.99 C 112.62 60.34 112.62 79.68 112.59 99.02 C 112.70 102.01 111.62 104.83 111.36 107.77 L 110.51 107.08 C 110.52 107.94 110.54 109.65 110.55 110.50 L 109.16 110.48 C 109.34 110.93 109.70 111.85 109.87 112.30 L 108.21 112.50 L 108.77 114.18 C 108.53 114.25 108.06 114.38 107.82 114.44 C 107.02 115.87 106.09 117.21 105.21 118.58 L 104.22 118.33 L 104.76 119.78 L 103.13 119.25 L 103.96 120.68 L 102.31 120.29 L 102.65 121.93 L 101.33 121.03 L 101.61 122.19 C 100.24 123.08 98.88 124.01 97.45 124.81 L 97.26 125.72 C 96.79 125.62 95.86 125.42 95.39 125.32 L 95.36 126.87 C 94.89 126.70 93.95 126.36 93.49 126.19 L 93.47 127.31 C 91.24 127.99 88.99 128.61 86.67 128.85 C 83.60 129.99 80.27 129.51 77.07 129.61 C 61.81 129.49 46.54 129.86 31.29 129.40 L 31.82 128.52 C 30.28 128.54 28.73 128.57 27.19 128.58 L 27.99 127.55 C 27.11 127.54 25.36 127.53 24.48 127.53 L 24.53 126.17 C 24.07 126.34 23.15 126.69 22.69 126.87 L 22.49 125.22 L 20.83 125.79 C 20.76 125.55 20.62 125.07 20.55 124.82 C 19.13 124.01 17.78 123.09 16.40 122.20 L 16.75 121.28 L 15.43 121.70 L 15.49 120.21 L 14.00 120.72 L 14.91 119.28 L 13.25 119.78 L 13.81 118.34 L 12.81 118.60 C 11.91 117.22 10.98 115.87 10.17 114.44 L 9.30 114.26 C 9.40 113.80 9.59 112.87 9.68 112.41 L 8.15 112.34 C 8.31 111.88 8.64 110.94 8.80 110.47 L 7.72 110.45 C 6.80 107.01 5.29 103.65 5.44 100.01 C 5.34 80.35 5.40 60.69 5.40 41.03 C 5.28 37.07 6.74 33.34 7.68 29.55 L 8.79 29.54 C 8.63 29.06 8.31 28.12 8.16 27.65 L 9.68 27.61 C 9.58 27.15 9.38 26.22 9.28 25.76 L 10.22 25.51 C 11.01 24.09 11.92 22.75 12.80 21.39 L 13.77 21.72 L 13.27 20.33 L 14.81 20.60 L 14.20 19.17 L 15.64 19.82 L 15.29 18.25 L 16.69 18.78 L 16.41 17.78 C 17.79 16.89 19.14 15.97 20.58 15.17 L 20.74 14.28 C 21.20 14.38 22.14 14.58 22.61 14.67 L 22.65 13.12 C 23.12 13.30 24.05 13.65 24.52 13.83 L 24.52 12.71 C 26.89 11.96 29.29 11.17 31.82 11.41 L 31.30 10.60 M 27.15 12.69 L 27.56 13.87 C 27.17 13.73 26.38 13.46 25.99 13.33 C 25.47 13.68 24.43 14.38 23.91 14.73 C 23.29 14.96 22.06 15.42 21.44 15.65 L 21.26 16.69 C 20.78 16.57 19.81 16.32 19.33 16.20 L 19.83 17.74 L 18.84 17.28 C 16.58 19.70 13.82 21.70 12.15 24.62 L 11.15 24.38 C 11.30 24.85 11.58 25.78 11.72 26.25 L 10.64 26.43 C 10.43 27.03 10.00 28.24 9.79 28.84 C 9.42 29.37 8.68 30.43 8.31 30.96 C 8.44 31.37 8.70 32.19 8.83 32.61 L 7.73 32.11 C 7.70 33.68 7.35 35.17 6.69 36.59 C 6.45 59.35 6.77 82.12 6.53 104.89 L 7.60 104.16 C 7.59 105.09 7.55 106.96 7.53 107.89 L 8.83 107.39 C 8.71 107.79 8.48 108.59 8.37 108.99 C 9.29 110.39 10.05 111.89 10.67 113.45 L 11.70 113.78 C 11.57 114.24 11.30 115.16 11.17 115.62 L 12.16 115.39 C 13.84 118.29 16.57 120.31 18.83 122.71 L 19.85 122.28 L 19.31 123.79 C 19.79 123.68 20.76 123.44 21.24 123.32 L 21.50 124.47 C 22.73 124.90 23.96 125.33 25.19 125.75 C 25.26 125.90 25.39 126.20 25.46 126.35 C 28.62 127.02 31.68 128.43 34.96 128.40 C 50.63 128.39 66.31 128.37 81.98 128.41 C 85.00 128.58 87.85 127.34 90.86 127.30 L 90.43 126.15 C 90.83 126.28 91.65 126.54 92.05 126.67 C 92.57 126.30 93.62 125.57 94.14 125.20 C 94.74 124.99 95.95 124.57 96.55 124.36 L 96.75 123.31 C 97.24 123.43 98.21 123.69 98.70 123.82 L 98.14 122.30 L 99.17 122.71 C 101.36 120.54 103.53 118.37 105.70 116.18 L 105.33 115.14 L 106.83 115.68 C 106.70 115.20 106.43 114.23 106.29 113.74 L 107.45 113.55 C 107.90 112.28 108.36 111.03 108.79 109.75 L 109.35 109.55 C 109.81 107.43 110.46 105.34 111.34 103.35 C 111.40 81.09 111.47 58.83 111.31 36.58 C 110.64 35.16 110.29 33.66 110.26 32.09 L 109.18 32.63 C 109.28 32.22 109.50 31.39 109.61 30.98 C 108.69 29.59 107.95 28.10 107.35 26.55 C 107.07 26.45 106.50 26.24 106.21 26.13 L 107.00 24.40 L 105.37 24.83 L 105.68 23.80 C 103.54 21.63 101.37 19.47 99.19 17.33 L 98.09 17.58 L 98.70 16.11 C 98.23 16.26 97.27 16.57 96.79 16.73 L 96.45 15.68 C 94.90 15.06 93.41 14.30 92.01 13.39 C 91.61 13.50 90.82 13.73 90.42 13.85 L 90.88 12.69 C 88.20 12.71 85.69 11.60 83.03 11.60 C 67.02 11.62 51.00 11.61 34.98 11.60 C 32.33 11.61 29.81 12.68 27.15 12.69 Z" />
<path fill="#f7fbf8" opacity="1.00" d=" M 41.31 47.14 C 43.13 44.07 44.18 40.66 45.50 37.37 C 47.55 38.02 50.01 37.79 51.69 39.34 C 54.09 39.40 56.50 39.39 58.90 39.38 C 58.86 40.34 58.76 42.25 58.71 43.21 C 59.31 41.27 59.97 39.36 60.62 37.44 C 62.97 37.99 65.54 37.95 67.63 39.31 C 70.29 39.42 72.97 39.39 75.64 39.37 C 75.62 41.40 75.61 43.44 75.60 45.48 C 74.80 45.44 73.21 45.35 72.41 45.30 C 72.09 46.09 71.76 46.88 71.42 47.67 C 72.07 47.56 73.36 47.36 74.00 47.25 C 73.84 54.80 74.32 62.37 73.76 69.90 C 72.67 73.26 68.29 72.48 65.54 72.69 C 65.10 71.46 64.65 70.22 64.20 68.99 C 60.19 69.01 56.17 69.00 52.16 69.00 C 52.17 64.06 52.15 59.11 52.17 54.17 C 56.66 54.15 61.15 54.17 65.64 54.15 C 65.63 58.26 65.54 62.36 65.71 66.46 C 66.13 66.16 66.96 65.55 67.38 65.25 C 67.88 61.20 67.45 57.08 67.58 53.00 C 64.25 53.00 60.91 53.00 57.58 53.00 C 57.57 51.11 57.57 49.22 57.58 47.33 C 58.28 47.40 59.67 47.53 60.37 47.60 C 58.78 46.92 57.45 45.82 56.16 44.69 C 56.33 46.92 56.66 49.13 57.25 51.29 C 55.46 52.00 53.67 52.70 51.88 53.39 C 50.99 50.45 49.40 47.64 49.78 44.45 C 48.93 46.04 48.22 47.69 47.49 49.32 C 45.41 48.65 43.36 47.91 41.31 47.14 M 63.51 47.06 C 64.42 48.19 65.37 48.20 66.36 47.09 C 67.14 44.76 62.91 44.74 63.51 47.06 M 57.27 64.23 C 57.25 66.08 61.28 65.65 60.23 63.82 C 59.04 63.05 58.05 63.18 57.27 64.23 Z" />
<path fill="#f7fbf8" opacity="1.00" d=" M 44.16 49.57 C 46.07 49.67 48.11 49.21 49.88 50.13 C 50.06 50.53 50.43 51.33 50.61 51.72 C 50.66 58.62 50.59 65.52 50.62 72.42 C 48.46 72.42 46.31 72.42 44.16 72.42 C 44.16 64.80 44.16 57.18 44.16 49.57 Z" />
</g>
</svg>
