<?xml version="1.0" encoding="UTF-8" ?>
<!DOCTYPE svg PUBLIC "-//W3C//DTD SVG 1.1//EN" "http://www.w3.org/Graphics/SVG/1.1/DTD/svg11.dtd">
<svg width="117px" height="140px" viewBox="0 0 117 140" version="1.1" xmlns="http://www.w3.org/2000/svg">
<g id="#000000ff">
<path fill="#000000" opacity="1.00" d=" M 0.00 0.00 L 117.00 0.00 L 117.00 140.00 L 0.00 140.00 L 0.00 0.00 M 31.32 10.55 L 31.70 11.32 C 29.24 11.23 26.87 11.87 24.55 12.64 L 24.52 13.64 C 24.04 13.52 23.07 13.29 22.59 13.17 L 22.61 14.57 C 22.22 14.52 21.44 14.42 21.06 14.37 C 19.59 15.57 18.08 16.72 16.47 17.72 L 16.49 18.11 C 15.04 18.90 13.88 20.05 13.11 21.51 L 12.72 21.47 C 11.73 23.08 10.57 24.59 9.38 26.05 C 9.42 26.44 9.51 27.21 9.56 27.59 L 8.18 27.60 C 8.29 28.08 8.53 29.06 8.64 29.54 L 7.61 29.54 C 7.03 31.54 6.46 33.55 6.24 35.63 L 5.66 35.54 C 5.19 41.34 5.36 47.16 5.34 52.98 C 5.53 70.16 4.94 87.36 5.67 104.52 L 6.25 104.32 C 6.45 106.41 7.01 108.43 7.58 110.44 L 8.66 110.49 C 8.54 110.96 8.28 111.91 8.15 112.39 L 9.59 112.41 C 9.51 112.87 9.36 113.79 9.29 114.25 L 10.17 114.53 C 10.96 115.92 11.84 117.25 12.68 118.61 L 13.11 118.49 C 13.89 119.95 15.05 121.12 16.51 121.90 L 16.46 122.27 C 17.73 123.10 18.95 124.02 20.15 124.95 C 20.77 125.16 22.00 125.59 22.62 125.80 L 22.54 126.78 C 23.05 126.69 24.07 126.49 24.58 126.40 L 24.53 127.39 C 26.51 127.95 28.50 128.52 30.55 128.76 C 30.57 128.90 30.60 129.20 30.62 129.35 C 37.74 129.88 44.88 129.59 52.02 129.67 C 63.57 129.57 75.14 129.87 86.69 129.47 L 86.25 128.69 C 88.74 128.80 91.13 128.15 93.46 127.37 L 93.43 126.40 C 93.94 126.49 94.96 126.68 95.47 126.77 L 95.39 125.42 C 95.78 125.48 96.55 125.58 96.94 125.63 C 98.37 124.55 99.76 123.43 101.16 122.31 C 101.52 122.07 102.23 121.60 102.58 121.37 L 102.57 120.90 C 103.64 120.39 104.41 119.59 104.86 118.49 L 105.26 118.56 C 106.29 116.96 107.42 115.43 108.62 113.95 C 108.57 113.56 108.47 112.79 108.42 112.40 L 109.78 112.46 C 109.69 111.95 109.50 110.95 109.40 110.44 L 110.41 110.45 C 110.97 108.45 111.54 106.44 111.76 104.37 L 112.34 104.49 C 112.79 98.67 112.65 92.83 112.66 87.00 C 112.48 69.84 113.05 52.66 112.34 35.51 L 111.76 35.62 C 111.53 33.55 110.98 31.55 110.40 29.56 L 109.69 29.55 C 109.40 28.93 108.82 27.70 108.53 27.08 C 108.58 26.74 108.67 26.07 108.71 25.73 L 107.81 25.46 C 107.03 24.07 106.16 22.75 105.32 21.40 L 104.89 21.52 C 104.13 20.05 102.96 18.89 101.49 18.12 L 101.55 17.74 C 99.93 16.73 98.41 15.58 96.95 14.37 C 96.56 14.42 95.80 14.52 95.42 14.57 L 95.41 13.19 C 94.92 13.30 93.95 13.52 93.46 13.63 L 93.47 12.64 C 91.14 11.87 88.75 11.23 86.27 11.30 L 86.68 10.54 C 68.23 10.21 49.77 10.19 31.32 10.55 Z" />
<path fill="#000000" opacity="1.00" d=" M 32.29 11.56 C 50.09 11.73 67.90 11.74 85.70 11.56 L 85.36 12.26 C 87.80 12.50 90.19 13.09 92.56 13.70 L 92.64 14.65 C 93.09 14.57 93.97 14.41 94.42 14.33 L 94.73 15.64 C 95.17 15.55 96.06 15.38 96.50 15.29 L 96.43 16.29 C 97.48 16.75 98.52 17.22 99.57 17.68 L 99.52 18.15 C 101.63 19.57 103.42 21.39 104.86 23.49 L 105.32 23.43 C 105.78 24.48 106.24 25.53 106.71 26.58 L 107.73 26.51 C 107.63 26.94 107.44 27.81 107.34 28.25 L 108.67 28.58 C 108.59 29.03 108.43 29.91 108.34 30.35 L 109.24 30.44 C 109.52 31.57 109.83 32.69 110.17 33.80 C 111.94 39.03 111.21 44.58 111.33 49.99 C 111.41 67.56 111.20 85.13 111.44 102.70 L 110.77 102.40 C 110.50 104.82 109.92 107.19 109.32 109.55 L 108.40 109.64 C 108.41 109.99 108.44 110.69 108.45 111.04 C 108.15 111.65 107.55 112.87 107.24 113.48 L 106.69 113.45 C 106.24 114.49 105.78 115.53 105.33 116.58 L 104.86 116.51 C 103.43 118.62 101.61 120.42 99.51 121.86 L 99.58 122.34 C 98.53 122.79 97.48 123.24 96.43 123.70 L 96.50 124.70 C 96.07 124.62 95.19 124.45 94.76 124.37 L 94.42 125.66 C 93.97 125.59 93.08 125.43 92.64 125.35 L 92.57 126.31 C 90.19 126.90 87.80 127.51 85.35 127.75 L 85.71 128.44 C 67.92 128.25 50.11 128.29 32.32 128.42 L 32.55 127.72 C 30.13 127.54 27.78 126.92 25.44 126.29 L 25.36 125.35 C 24.92 125.43 24.03 125.59 23.59 125.66 L 23.24 124.37 C 22.81 124.46 21.93 124.62 21.49 124.70 L 21.56 123.70 C 20.52 123.23 19.47 122.78 18.42 122.33 L 18.49 121.87 C 16.40 120.42 14.58 118.62 13.14 116.52 L 12.68 116.57 C 12.22 115.52 11.76 114.48 11.30 113.44 L 10.29 113.48 C 10.38 113.05 10.56 112.18 10.64 111.74 L 9.34 111.43 C 9.42 110.98 9.56 110.08 9.64 109.63 L 8.68 109.55 C 8.18 107.01 7.48 104.50 6.68 102.04 C 6.67 80.61 6.62 59.18 6.70 37.75 C 7.51 35.36 8.20 32.92 8.68 30.44 L 9.66 30.35 C 9.58 29.91 9.43 29.02 9.35 28.57 L 10.64 28.26 C 10.55 27.82 10.38 26.94 10.29 26.50 L 11.30 26.57 C 11.77 25.51 12.23 24.45 12.70 23.39 L 13.15 23.53 C 14.57 21.40 16.38 19.58 18.49 18.13 L 18.42 17.67 C 19.47 17.22 20.52 16.76 21.57 16.30 L 21.51 15.28 C 21.94 15.37 22.82 15.56 23.25 15.65 L 23.58 14.35 C 24.03 14.42 24.93 14.56 25.38 14.62 L 25.54 13.29 C 26.05 13.43 27.05 13.72 27.55 13.86 L 27.36 12.59 C 29.13 12.53 30.90 12.50 32.67 12.42 L 32.29 11.56 M 46.01 28.14 C 46.00 33.98 46.04 39.81 46.00 45.64 C 43.67 45.64 41.34 45.66 39.01 45.70 C 39.28 50.36 38.78 55.05 39.30 59.69 C 41.37 63.16 46.20 61.30 49.50 61.69 C 52.46 64.51 55.33 67.43 58.28 70.27 C 54.62 70.27 50.96 70.23 47.30 70.31 C 47.32 72.87 47.34 75.44 47.29 78.00 C 55.58 77.81 63.90 78.39 72.16 77.70 C 71.84 77.23 71.21 76.29 70.90 75.82 C 63.97 75.39 57.01 75.80 50.07 75.62 C 50.06 74.99 50.03 73.74 50.02 73.12 C 53.63 73.01 57.23 73.04 60.84 73.05 C 60.86 72.32 60.91 70.86 60.93 70.14 C 63.77 67.30 66.59 64.44 69.51 61.69 C 72.80 61.30 77.55 63.14 79.68 59.74 C 80.24 55.09 79.71 50.37 79.99 45.70 C 77.66 45.66 75.33 45.64 73.00 45.64 C 72.96 39.81 73.01 33.98 72.99 28.14 C 64.00 28.06 55.00 28.05 46.01 28.14 Z" />
<path fill="#000000" opacity="1.00" d=" M 48.82 31.04 C 55.94 31.04 63.06 31.04 70.17 31.04 C 70.17 36.79 70.28 42.54 70.08 48.29 C 72.38 48.33 74.68 48.37 76.98 48.40 C 76.91 51.91 76.92 55.42 76.94 58.93 C 65.32 58.98 53.69 58.98 42.06 58.93 C 42.08 55.41 42.08 51.88 42.05 48.36 C 48.78 48.31 55.51 48.37 62.24 48.35 C 62.24 47.67 62.24 46.33 62.24 45.65 C 57.76 45.65 53.28 45.63 48.81 45.67 C 48.81 43.89 48.82 42.11 48.84 40.33 C 53.30 40.36 57.77 40.35 62.24 40.35 C 62.24 39.67 62.24 38.33 62.24 37.65 C 57.76 37.65 53.29 37.63 48.81 37.67 C 48.81 35.46 48.81 33.25 48.82 31.04 M 57.76 51.40 C 60.39 52.65 58.77 56.07 59.96 58.24 C 61.15 55.53 60.62 52.52 60.66 49.65 C 59.68 50.22 58.72 50.81 57.76 51.40 Z" />
<path fill="#000000" opacity="1.00" d=" M 53.37 61.74 C 57.46 61.73 61.54 61.73 65.63 61.74 C 63.57 63.73 61.52 65.73 59.52 67.78 C 57.49 65.75 55.43 63.74 53.37 61.74 Z" />
</g>
<g id="#dee5eaff">
<path fill="#dee5ea" opacity="1.00" d=" M 31.32 10.55 C 49.77 10.19 68.23 10.21 86.68 10.54 L 86.27 11.30 C 88.75 11.23 91.14 11.87 93.47 12.64 L 93.46 13.63 C 93.95 13.52 94.92 13.30 95.41 13.19 L 95.42 14.57 C 95.80 14.52 96.56 14.42 96.95 14.37 C 98.41 15.58 99.93 16.73 101.55 17.74 L 101.49 18.12 C 102.96 18.89 104.13 20.05 104.89 21.52 L 105.32 21.40 C 106.16 22.75 107.03 24.07 107.81 25.46 L 108.71 25.73 C 108.67 26.07 108.58 26.74 108.53 27.08 C 108.82 27.70 109.40 28.93 109.69 29.55 L 110.40 29.56 C 110.98 31.55 111.53 33.55 111.76 35.62 L 112.34 35.51 C 113.05 52.66 112.48 69.84 112.66 87.00 C 112.65 92.83 112.79 98.67 112.34 104.49 L 111.76 104.37 C 111.54 106.44 110.97 108.45 110.41 110.45 L 109.40 110.44 C 109.50 110.95 109.69 111.95 109.78 112.46 L 108.42 112.40 C 108.47 112.79 108.57 113.56 108.62 113.95 C 107.42 115.43 106.29 116.96 105.26 118.56 L 104.86 118.49 C 104.41 119.59 103.64 120.39 102.57 120.90 L 102.58 121.37 C 102.23 121.60 101.52 122.07 101.16 122.31 C 99.76 123.43 98.37 124.55 96.94 125.63 C 96.55 125.58 95.78 125.48 95.39 125.42 L 95.47 126.77 C 94.96 126.68 93.94 126.49 93.43 126.40 L 93.46 127.37 C 91.13 128.15 88.74 128.80 86.25 128.69 L 86.69 129.47 C 75.14 129.87 63.57 129.57 52.02 129.67 C 44.88 129.59 37.74 129.88 30.62 129.35 C 30.60 129.20 30.57 128.90 30.55 128.76 C 28.50 128.52 26.51 127.95 24.53 127.39 L 24.58 126.40 C 24.07 126.49 23.05 126.69 22.54 126.78 L 22.62 125.80 C 22.00 125.59 20.77 125.16 20.15 124.95 C 18.95 124.02 17.73 123.10 16.46 122.27 L 16.51 121.90 C 15.05 121.12 13.89 119.95 13.11 118.49 L 12.68 118.61 C 11.84 117.25 10.96 115.92 10.17 114.53 L 9.29 114.25 C 9.36 113.79 9.51 112.87 9.59 112.41 L 8.15 112.39 C 8.28 111.91 8.54 110.96 8.66 110.49 L 7.58 110.44 C 7.01 108.43 6.45 106.41 6.25 104.32 L 5.67 104.52 C 4.94 87.36 5.53 70.16 5.34 52.98 C 5.36 47.16 5.19 41.34 5.66 35.54 L 6.24 35.63 C 6.46 33.55 7.03 31.54 7.61 29.54 L 8.64 29.54 C 8.53 29.06 8.29 28.08 8.18 27.60 L 9.56 27.59 C 9.51 27.21 9.42 26.44 9.38 26.05 C 10.57 24.59 11.73 23.08 12.72 21.47 L 13.11 21.51 C 13.88 20.05 15.04 18.90 16.49 18.11 L 16.47 17.72 C 18.08 16.72 19.59 15.57 21.06 14.37 C 21.44 14.42 22.22 14.52 22.61 14.57 L 22.59 13.17 C 23.07 13.29 24.04 13.52 24.52 13.64 L 24.55 12.64 C 26.87 11.87 29.24 11.23 31.70 11.32 L 31.32 10.55 M 32.29 11.56 L 32.67 12.42 C 30.90 12.50 29.13 12.53 27.36 12.59 L 27.55 13.86 C 27.05 13.72 26.05 13.43 25.54 13.29 L 25.38 14.62 C 24.93 14.56 24.03 14.42 23.58 14.35 L 23.25 15.65 C 22.82 15.56 21.94 15.37 21.51 15.28 L 21.57 16.30 C 20.52 16.76 19.47 17.22 18.42 17.67 L 18.49 18.13 C 16.38 19.58 14.57 21.40 13.15 23.53 L 12.70 23.39 C 12.23 24.45 11.77 25.51 11.30 26.57 L 10.29 26.50 C 10.38 26.94 10.55 27.82 10.64 28.26 L 9.35 28.57 C 9.43 29.02 9.58 29.91 9.66 30.35 L 8.68 30.44 C 8.20 32.92 7.51 35.36 6.70 37.75 C 6.62 59.18 6.67 80.61 6.68 102.04 C 7.48 104.50 8.18 107.01 8.68 109.55 L 9.64 109.63 C 9.56 110.08 9.42 110.98 9.34 111.43 L 10.64 111.74 C 10.56 112.18 10.38 113.05 10.29 113.48 L 11.30 113.44 C 11.76 114.48 12.22 115.52 12.68 116.57 L 13.14 116.52 C 14.58 118.62 16.40 120.42 18.49 121.87 L 18.42 122.33 C 19.47 122.78 20.52 123.23 21.56 123.70 L 21.49 124.70 C 21.93 124.62 22.81 124.46 23.24 124.37 L 23.59 125.66 C 24.03 125.59 24.92 125.43 25.36 125.35 L 25.44 126.29 C 27.78 126.92 30.13 127.54 32.55 127.72 L 32.32 128.42 C 50.11 128.29 67.92 128.25 85.71 128.44 L 85.35 127.75 C 87.80 127.51 90.19 126.90 92.57 126.31 L 92.64 125.35 C 93.08 125.43 93.97 125.59 94.42 125.66 L 94.76 124.37 C 95.19 124.45 96.07 124.62 96.50 124.70 L 96.43 123.70 C 97.48 123.24 98.53 122.79 99.58 122.34 L 99.51 121.86 C 101.61 120.42 103.43 118.62 104.86 116.51 L 105.33 116.58 C 105.78 115.53 106.24 114.49 106.69 113.45 L 107.24 113.48 C 107.55 112.87 108.15 111.65 108.45 111.04 C 108.44 110.69 108.41 109.99 108.40 109.64 L 109.32 109.55 C 109.92 107.19 110.50 104.82 110.77 102.40 L 111.44 102.70 C 111.20 85.13 111.41 67.56 111.33 49.99 C 111.21 44.58 111.94 39.03 110.17 33.80 C 109.83 32.69 109.52 31.57 109.24 30.44 L 108.34 30.35 C 108.43 29.91 108.59 29.03 108.67 28.58 L 107.34 28.25 C 107.44 27.81 107.63 26.94 107.73 26.51 L 106.71 26.58 C 106.24 25.53 105.78 24.48 105.32 23.43 L 104.86 23.49 C 103.42 21.39 101.63 19.57 99.52 18.15 L 99.57 17.68 C 98.52 17.22 97.48 16.75 96.43 16.29 L 96.50 15.29 C 96.06 15.38 95.17 15.55 94.73 15.64 L 94.42 14.33 C 93.97 14.41 93.09 14.57 92.64 14.65 L 92.56 13.70 C 90.19 13.09 87.80 12.50 85.36 12.26 L 85.70 11.56 C 67.90 11.74 50.09 11.73 32.29 11.56 Z" />
<path fill="#dee5ea" opacity="1.00" d=" M 46.01 28.14 C 55.00 28.05 64.00 28.06 72.99 28.14 C 73.01 33.98 72.96 39.81 73.00 45.64 C 75.33 45.64 77.66 45.66 79.99 45.70 C 79.71 50.37 80.24 55.09 79.68 59.74 C 77.55 63.14 72.80 61.30 69.51 61.69 C 66.59 64.44 63.77 67.30 60.93 70.14 C 60.91 70.86 60.86 72.32 60.84 73.05 C 57.23 73.04 53.63 73.01 50.02 73.12 C 50.03 73.74 50.06 74.99 50.07 75.62 C 57.01 75.80 63.97 75.39 70.90 75.82 C 71.21 76.29 71.84 77.23 72.16 77.70 C 63.90 78.39 55.58 77.81 47.29 78.00 C 47.34 75.44 47.32 72.87 47.30 70.31 C 50.96 70.23 54.62 70.27 58.28 70.27 C 55.33 67.43 52.46 64.51 49.50 61.69 C 46.20 61.30 41.37 63.16 39.30 59.69 C 38.78 55.05 39.28 50.36 39.01 45.70 C 41.34 45.66 43.67 45.64 46.00 45.64 C 46.04 39.81 46.00 33.98 46.01 28.14 M 48.82 31.04 C 48.81 33.25 48.81 35.46 48.81 37.67 C 53.29 37.63 57.76 37.65 62.24 37.65 C 62.24 38.33 62.24 39.67 62.24 40.35 C 57.77 40.35 53.30 40.36 48.84 40.33 C 48.82 42.11 48.81 43.89 48.81 45.67 C 53.28 45.63 57.76 45.65 62.24 45.65 C 62.24 46.33 62.24 47.67 62.24 48.35 C 55.51 48.37 48.78 48.31 42.05 48.36 C 42.08 51.88 42.08 55.41 42.06 58.93 C 53.69 58.98 65.32 58.98 76.94 58.93 C 76.92 55.42 76.91 51.91 76.98 48.40 C 74.68 48.37 72.38 48.33 70.08 48.29 C 70.28 42.54 70.17 36.79 70.17 31.04 C 63.06 31.04 55.94 31.04 48.82 31.04 M 53.37 61.74 C 55.43 63.74 57.49 65.75 59.52 67.78 C 61.52 65.73 63.57 63.73 65.63 61.74 C 61.54 61.73 57.46 61.73 53.37 61.74 Z" />
<path fill="#dee5ea" opacity="1.00" d=" M 57.76 51.40 C 58.72 50.81 59.68 50.22 60.66 49.65 C 60.62 52.52 61.15 55.53 59.96 58.24 C 58.77 56.07 60.39 52.65 57.76 51.40 Z" />
</g>
</svg>
