<?xml version="1.0" encoding="UTF-8" ?>
<!DOCTYPE svg PUBLIC "-//W3C//DTD SVG 1.1//EN" "http://www.w3.org/Graphics/SVG/1.1/DTD/svg11.dtd">
<svg width="117px" height="140px" viewBox="0 0 117 140" version="1.1" xmlns="http://www.w3.org/2000/svg">
<g id="#000000ff">
<path fill="#000000" opacity="1.00" d=" M 0.00 0.00 L 117.00 0.00 L 117.00 140.00 L 0.00 140.00 L 0.00 0.00 M 27.19 11.70 L 27.97 12.46 C 27.10 12.46 25.35 12.47 24.47 12.47 L 24.54 13.84 C 24.07 13.66 23.13 13.29 22.66 13.11 L 22.61 14.68 C 22.15 14.58 21.22 14.38 20.75 14.28 L 20.57 15.16 C 19.15 15.98 17.79 16.90 16.41 17.77 L 16.52 18.93 L 15.18 18.11 L 15.86 19.82 L 14.30 19.14 L 14.67 20.70 L 12.99 20.37 L 14.05 21.66 L 12.82 21.34 C 11.95 22.74 11.02 24.10 10.18 25.52 L 9.30 25.76 C 9.39 26.23 9.57 27.16 9.66 27.62 L 8.13 27.65 C 8.30 28.12 8.64 29.06 8.82 29.54 L 7.73 29.48 C 6.71 33.26 5.28 37.02 5.40 41.00 C 5.37 60.03 5.41 79.05 5.38 98.08 C 5.24 101.38 6.25 104.55 6.69 107.79 L 7.49 107.05 C 7.47 107.91 7.44 109.63 7.42 110.49 L 8.82 110.45 C 8.65 110.92 8.30 111.87 8.13 112.34 L 9.69 112.40 C 9.59 112.87 9.40 113.79 9.30 114.25 L 10.18 114.48 C 11.00 115.87 11.89 117.21 12.75 118.58 L 13.12 118.43 C 13.60 119.56 14.39 120.37 15.50 120.85 L 15.29 121.73 L 16.68 121.33 L 16.42 122.22 C 17.81 123.10 19.17 124.02 20.59 124.87 L 20.74 125.72 C 21.21 125.62 22.15 125.42 22.62 125.32 L 22.64 126.88 C 23.11 126.70 24.06 126.36 24.53 126.18 L 24.49 127.27 C 28.26 128.30 32.02 129.67 35.98 129.60 C 50.99 129.63 66.01 129.60 81.02 129.61 C 85.30 129.72 89.41 128.40 93.50 127.30 L 93.47 126.19 C 93.95 126.36 94.89 126.70 95.36 126.87 L 95.38 125.32 C 95.84 125.42 96.78 125.62 97.25 125.72 L 97.45 124.83 C 98.85 124.01 100.20 123.11 101.59 122.26 L 101.42 121.89 C 102.52 121.40 103.34 120.62 103.88 119.55 L 104.81 119.65 L 104.24 118.32 L 105.22 118.59 C 106.10 117.20 107.03 115.84 107.86 114.42 L 108.71 114.27 C 108.61 113.80 108.41 112.87 108.31 112.40 L 109.87 112.35 C 109.70 111.88 109.36 110.95 109.19 110.48 L 110.31 110.50 C 110.85 108.52 111.45 106.56 111.71 104.53 C 111.89 104.21 112.25 103.56 112.43 103.24 C 112.82 88.83 112.51 74.42 112.61 60.00 C 112.51 52.29 112.86 44.56 112.34 36.85 C 111.57 34.44 110.99 31.98 110.33 29.54 L 109.22 29.54 C 109.38 29.06 109.69 28.11 109.85 27.63 L 108.31 27.61 C 108.41 27.14 108.63 26.21 108.73 25.74 L 107.86 25.58 C 107.01 24.15 106.09 22.77 105.20 21.37 L 104.21 21.72 L 104.84 20.37 L 103.90 20.45 C 103.34 19.39 102.52 18.61 101.43 18.11 L 101.56 17.74 C 100.19 16.88 98.84 15.99 97.45 15.17 L 97.25 14.29 C 96.78 14.38 95.85 14.57 95.39 14.66 L 95.34 13.10 C 94.87 13.29 93.94 13.66 93.47 13.85 L 93.53 12.48 C 92.64 12.47 90.85 12.44 89.96 12.43 L 90.85 11.45 C 89.29 11.45 87.73 11.45 86.18 11.45 L 86.73 10.60 C 70.15 10.13 53.55 10.51 36.96 10.38 C 33.64 10.23 30.45 11.23 27.19 11.70 Z" />
<path fill="#000000" opacity="1.00" d=" M 25.46 13.60 C 27.52 13.08 29.56 12.53 31.67 12.23 L 31.20 11.53 C 48.83 11.73 66.46 11.54 84.08 11.62 C 86.98 11.93 89.75 13.02 92.58 13.68 C 92.64 13.90 92.75 14.33 92.80 14.55 L 94.02 14.42 C 94.65 14.75 95.92 15.42 96.56 15.76 L 96.74 16.72 C 97.23 16.58 98.21 16.29 98.70 16.15 L 98.09 17.68 L 99.14 17.28 C 101.36 19.46 103.56 21.65 105.74 23.88 L 105.23 24.84 L 106.75 24.32 C 106.65 24.80 106.44 25.77 106.34 26.26 L 107.34 26.49 C 107.85 28.11 108.68 29.61 109.64 31.01 C 109.52 31.42 109.29 32.24 109.18 32.65 L 110.21 32.08 C 110.40 33.67 110.64 35.27 111.31 36.73 C 111.44 58.93 111.45 81.14 111.30 103.34 C 110.70 104.78 110.35 106.28 110.23 107.85 L 109.16 107.43 C 109.28 107.81 109.52 108.59 109.65 108.97 C 108.66 110.39 107.95 111.96 107.30 113.55 L 106.30 113.74 C 106.43 114.23 106.68 115.19 106.81 115.68 L 105.27 115.14 L 105.71 116.12 C 104.41 117.35 103.19 118.66 102.12 120.10 C 100.90 121.06 99.65 121.96 98.34 122.79 L 98.61 123.83 C 98.15 123.70 97.22 123.42 96.76 123.28 L 96.59 124.34 C 95.97 124.57 94.74 125.02 94.13 125.24 C 93.60 125.60 92.56 126.32 92.03 126.68 C 91.63 126.54 90.82 126.26 90.42 126.12 L 90.88 127.25 C 88.26 127.37 85.76 128.34 83.14 128.39 C 65.80 128.44 48.45 128.29 31.11 128.46 L 31.75 127.56 C 30.22 127.51 28.68 127.46 27.14 127.41 L 27.57 126.14 C 27.18 126.26 26.41 126.50 26.02 126.62 C 24.59 125.67 23.04 124.91 21.44 124.30 L 21.26 123.30 C 20.78 123.43 19.81 123.69 19.32 123.82 L 19.86 122.28 L 18.87 122.73 C 16.65 120.55 14.44 118.35 12.26 116.12 L 12.76 115.14 L 11.22 115.69 C 11.34 115.20 11.56 114.22 11.68 113.73 L 10.62 113.59 C 10.17 112.29 9.65 111.01 9.17 109.72 L 8.67 109.61 C 8.23 107.44 7.55 105.33 6.65 103.31 C 6.61 81.13 6.53 58.93 6.69 36.75 C 7.36 35.28 7.60 33.68 7.79 32.08 L 8.82 32.64 C 8.69 32.22 8.44 31.38 8.32 30.96 C 8.68 30.43 9.41 29.39 9.78 28.87 C 10.00 28.26 10.44 27.03 10.65 26.42 L 11.69 26.27 C 11.57 25.78 11.33 24.81 11.21 24.32 L 12.74 24.85 L 12.28 23.87 C 14.63 21.48 16.86 18.88 19.72 17.06 L 19.31 16.13 C 19.80 16.28 20.77 16.58 21.26 16.73 L 21.39 15.61 C 22.68 15.17 23.96 14.70 25.22 14.18 C 25.28 14.04 25.40 13.75 25.46 13.60 M 49.82 27.84 C 49.84 37.47 49.82 47.09 49.84 56.71 C 46.85 59.35 44.46 62.93 44.55 67.08 C 44.02 73.98 50.01 80.75 57.05 80.46 C 65.12 80.75 71.51 71.74 69.11 64.18 C 68.44 61.15 66.32 58.80 64.16 56.70 C 64.17 47.08 64.16 37.45 64.17 27.83 C 59.41 27.39 54.59 27.37 49.82 27.84 M 68.46 50.90 C 68.04 51.43 67.20 52.48 66.77 53.01 C 67.19 53.51 68.03 54.50 68.45 55.00 C 69.88 54.92 71.32 54.91 72.73 54.65 C 73.72 53.55 73.74 52.44 72.78 51.32 C 71.36 51.03 69.90 51.01 68.46 50.90 Z" />
<path fill="#000000" opacity="1.00" d=" M 53.44 31.20 C 55.81 31.27 58.19 31.27 60.56 31.20 C 60.21 40.35 60.55 49.50 60.37 58.65 C 64.60 60.97 67.08 66.29 65.17 70.91 C 63.62 76.27 56.41 78.45 52.00 75.15 C 46.18 71.21 47.46 61.62 53.63 58.64 C 53.45 49.50 53.79 40.34 53.44 31.20 M 55.17 51.11 C 54.99 54.15 55.14 57.20 55.06 60.25 C 50.01 62.03 47.73 69.21 52.19 72.81 C 56.07 77.73 64.12 73.65 64.19 67.98 C 64.66 64.42 61.82 61.72 58.94 60.24 C 58.86 57.20 59.01 54.15 58.83 51.11 C 57.61 50.18 56.39 50.17 55.17 51.11 Z" />
</g>
<g id="#f6faf7ff">
<path fill="#f6faf7" opacity="1.00" d=" M 27.19 11.70 C 30.45 11.23 33.64 10.23 36.96 10.38 C 53.55 10.51 70.15 10.13 86.73 10.60 L 86.18 11.45 C 87.73 11.45 89.29 11.45 90.85 11.45 L 89.96 12.43 C 90.85 12.44 92.64 12.47 93.53 12.48 L 93.47 13.85 C 93.94 13.66 94.87 13.29 95.34 13.10 L 95.39 14.66 C 95.85 14.57 96.78 14.38 97.25 14.29 L 97.45 15.17 C 98.84 15.99 100.19 16.88 101.56 17.74 L 101.43 18.11 C 102.52 18.61 103.34 19.39 103.90 20.45 L 104.84 20.37 L 104.21 21.72 L 105.20 21.37 C 106.09 22.77 107.01 24.15 107.86 25.58 L 108.73 25.74 C 108.63 26.21 108.41 27.14 108.31 27.61 L 109.85 27.63 C 109.69 28.11 109.38 29.06 109.22 29.54 L 110.33 29.54 C 110.99 31.98 111.57 34.44 112.34 36.85 C 112.86 44.56 112.51 52.29 112.61 60.00 C 112.51 74.42 112.82 88.83 112.43 103.24 C 112.25 103.56 111.89 104.21 111.71 104.53 C 111.45 106.56 110.85 108.52 110.31 110.50 L 109.19 110.48 C 109.36 110.95 109.70 111.88 109.87 112.35 L 108.31 112.40 C 108.41 112.87 108.61 113.80 108.71 114.27 L 107.86 114.42 C 107.03 115.84 106.10 117.20 105.22 118.59 L 104.24 118.32 L 104.81 119.65 L 103.88 119.55 C 103.34 120.62 102.52 121.40 101.42 121.89 L 101.59 122.26 C 100.20 123.11 98.85 124.01 97.45 124.83 L 97.25 125.72 C 96.78 125.62 95.84 125.42 95.38 125.32 L 95.36 126.87 C 94.89 126.70 93.95 126.36 93.47 126.19 L 93.50 127.30 C 89.41 128.40 85.30 129.72 81.02 129.61 C 66.01 129.60 50.99 129.63 35.98 129.60 C 32.02 129.67 28.26 128.30 24.49 127.27 L 24.53 126.18 C 24.06 126.36 23.11 126.70 22.64 126.88 L 22.62 125.32 C 22.15 125.42 21.21 125.62 20.74 125.72 L 20.59 124.87 C 19.17 124.02 17.81 123.10 16.42 122.22 L 16.68 121.33 L 15.29 121.73 L 15.50 120.85 C 14.39 120.37 13.60 119.56 13.12 118.43 L 12.75 118.58 C 11.89 117.21 11.00 115.87 10.18 114.48 L 9.30 114.25 C 9.40 113.79 9.59 112.87 9.69 112.40 L 8.13 112.34 C 8.30 111.87 8.65 110.92 8.82 110.45 L 7.42 110.49 C 7.44 109.63 7.47 107.91 7.49 107.05 L 6.69 107.79 C 6.25 104.55 5.24 101.38 5.38 98.08 C 5.41 79.05 5.37 60.03 5.40 41.00 C 5.28 37.02 6.71 33.26 7.73 29.48 L 8.82 29.54 C 8.64 29.06 8.30 28.12 8.13 27.65 L 9.66 27.62 C 9.57 27.16 9.39 26.23 9.30 25.76 L 10.18 25.52 C 11.02 24.10 11.95 22.74 12.82 21.34 L 14.05 21.66 L 12.99 20.37 L 14.67 20.70 L 14.30 19.14 L 15.86 19.82 L 15.18 18.11 L 16.52 18.93 L 16.41 17.77 C 17.79 16.90 19.15 15.98 20.57 15.16 L 20.75 14.28 C 21.22 14.38 22.15 14.58 22.61 14.68 L 22.66 13.11 C 23.13 13.29 24.07 13.66 24.54 13.84 L 24.47 12.47 C 25.35 12.47 27.10 12.46 27.97 12.46 L 27.19 11.70 M 25.46 13.60 C 25.40 13.75 25.28 14.04 25.22 14.18 C 23.96 14.70 22.68 15.17 21.39 15.61 L 21.26 16.73 C 20.77 16.58 19.80 16.28 19.31 16.13 L 19.72 17.06 C 16.86 18.88 14.63 21.48 12.28 23.87 L 12.74 24.85 L 11.21 24.32 C 11.33 24.81 11.57 25.78 11.69 26.27 L 10.65 26.42 C 10.44 27.03 10.00 28.26 9.78 28.87 C 9.41 29.39 8.68 30.43 8.32 30.96 C 8.44 31.38 8.69 32.22 8.82 32.64 L 7.79 32.08 C 7.60 33.68 7.36 35.28 6.69 36.75 C 6.53 58.93 6.61 81.13 6.65 103.31 C 7.55 105.33 8.23 107.44 8.67 109.61 L 9.17 109.72 C 9.65 111.01 10.17 112.29 10.62 113.59 L 11.68 113.73 C 11.56 114.22 11.34 115.20 11.22 115.69 L 12.76 115.14 L 12.26 116.12 C 14.44 118.35 16.65 120.55 18.87 122.73 L 19.86 122.28 L 19.32 123.82 C 19.81 123.69 20.78 123.43 21.26 123.30 L 21.44 124.30 C 23.04 124.91 24.59 125.67 26.02 126.62 C 26.41 126.50 27.18 126.26 27.57 126.14 L 27.14 127.41 C 28.68 127.46 30.22 127.51 31.75 127.56 L 31.11 128.46 C 48.45 128.29 65.80 128.44 83.14 128.39 C 85.76 128.34 88.26 127.37 90.88 127.25 L 90.42 126.12 C 90.82 126.26 91.63 126.54 92.03 126.68 C 92.56 126.32 93.60 125.60 94.13 125.24 C 94.74 125.02 95.97 124.57 96.59 124.34 L 96.76 123.28 C 97.22 123.42 98.15 123.70 98.61 123.83 L 98.34 122.79 C 99.65 121.96 100.90 121.06 102.12 120.10 C 103.19 118.66 104.41 117.35 105.71 116.12 L 105.27 115.14 L 106.81 115.68 C 106.68 115.19 106.43 114.23 106.30 113.74 L 107.30 113.55 C 107.95 111.96 108.66 110.39 109.65 108.97 C 109.52 108.59 109.28 107.81 109.16 107.43 L 110.23 107.85 C 110.35 106.28 110.70 104.78 111.30 103.34 C 111.45 81.14 111.44 58.93 111.31 36.73 C 110.64 35.27 110.40 33.67 110.21 32.08 L 109.18 32.65 C 109.29 32.24 109.52 31.42 109.64 31.01 C 108.68 29.61 107.85 28.11 107.34 26.49 L 106.34 26.26 C 106.44 25.77 106.65 24.80 106.75 24.32 L 105.23 24.84 L 105.74 23.88 C 103.56 21.65 101.36 19.46 99.14 17.28 L 98.09 17.68 L 98.70 16.15 C 98.21 16.29 97.23 16.58 96.74 16.72 L 96.56 15.76 C 95.92 15.42 94.65 14.75 94.02 14.42 L 92.80 14.55 C 92.75 14.33 92.64 13.90 92.58 13.68 C 89.75 13.02 86.98 11.93 84.08 11.62 C 66.46 11.54 48.83 11.73 31.20 11.53 L 31.67 12.23 C 29.56 12.53 27.52 13.08 25.46 13.60 Z" />
<path fill="#f6faf7" opacity="1.00" d=" M 49.82 27.84 C 54.59 27.37 59.41 27.39 64.17 27.83 C 64.16 37.45 64.17 47.08 64.16 56.70 C 66.32 58.80 68.44 61.15 69.11 64.18 C 71.51 71.74 65.12 80.75 57.05 80.46 C 50.01 80.75 44.02 73.98 44.55 67.08 C 44.46 62.93 46.85 59.35 49.84 56.71 C 49.82 47.09 49.84 37.47 49.82 27.84 M 53.44 31.20 C 53.79 40.34 53.45 49.50 53.63 58.64 C 47.46 61.62 46.18 71.21 52.00 75.15 C 56.41 78.45 63.62 76.27 65.17 70.91 C 67.08 66.29 64.60 60.97 60.37 58.65 C 60.55 49.50 60.21 40.35 60.56 31.20 C 58.19 31.27 55.81 31.27 53.44 31.20 Z" />
<path fill="#f6faf7" opacity="1.00" d=" M 55.17 51.11 C 56.39 50.17 57.61 50.18 58.83 51.11 C 59.01 54.15 58.86 57.20 58.94 60.24 C 61.82 61.72 64.66 64.42 64.19 67.98 C 64.12 73.65 56.07 77.73 52.19 72.81 C 47.73 69.21 50.01 62.03 55.06 60.25 C 55.14 57.20 54.99 54.15 55.17 51.11 Z" />
<path fill="#f6faf7" opacity="1.00" d=" M 68.46 50.90 C 69.90 51.01 71.36 51.03 72.78 51.32 C 73.74 52.44 73.72 53.55 72.73 54.65 C 71.32 54.91 69.88 54.92 68.45 55.00 C 68.03 54.50 67.19 53.51 66.77 53.01 C 67.20 52.48 68.04 51.43 68.46 50.90 Z" />
</g>
</svg>
