<?xml version="1.0" encoding="UTF-8" ?>
<!DOCTYPE svg PUBLIC "-//W3C//DTD SVG 1.1//EN" "http://www.w3.org/Graphics/SVG/1.1/DTD/svg11.dtd">
<svg width="117px" height="92px" viewBox="0 0 117 92" version="1.1" xmlns="http://www.w3.org/2000/svg">
<g id="#000000ff">
<path fill="#000000" opacity="1.00" d=" M 0.00 0.00 L 117.00 0.00 L 117.00 92.00 L 0.00 92.00 L 0.00 0.00 M 29.50 8.70 L 29.80 9.48 C 28.89 9.47 27.07 9.44 26.16 9.43 L 26.98 10.18 C 25.41 10.17 24.05 10.64 22.90 11.61 C 22.60 11.47 22.00 11.19 21.70 11.04 L 21.62 12.65 C 21.14 12.56 20.20 12.39 19.73 12.30 L 19.56 13.15 C 17.53 15.04 13.83 15.57 13.20 18.60 L 11.94 18.52 L 13.02 19.84 L 11.82 19.37 C 10.94 20.75 10.02 22.11 9.18 23.52 C 8.94 23.60 8.45 23.77 8.21 23.85 L 8.79 25.49 L 7.12 25.69 C 7.31 26.17 7.68 27.11 7.87 27.58 L 6.49 27.36 C 6.47 28.37 6.44 30.39 6.42 31.39 L 5.54 29.75 C 5.51 30.78 5.46 32.82 5.43 33.85 L 4.69 33.46 C 4.24 41.47 4.24 49.52 4.69 57.53 L 5.47 57.18 C 5.47 58.12 5.45 60.00 5.44 60.94 L 6.39 59.83 C 6.42 60.78 6.48 62.67 6.51 63.61 L 7.84 63.40 C 7.67 63.88 7.31 64.84 7.13 65.32 L 8.77 65.48 L 8.22 67.16 C 8.45 67.24 8.91 67.40 9.14 67.48 C 10.04 69.01 11.06 70.47 12.18 71.85 C 12.41 72.10 12.86 72.60 13.08 72.85 C 13.98 73.68 14.85 74.53 15.72 75.38 C 16.99 76.24 18.26 77.09 19.58 77.86 L 19.74 78.73 C 20.22 78.62 21.18 78.41 21.66 78.30 L 21.49 79.74 C 22.02 79.64 23.07 79.43 23.60 79.32 C 23.59 79.64 23.57 80.28 23.56 80.60 C 24.39 80.58 26.05 80.52 26.88 80.50 L 26.25 81.59 C 27.14 81.57 28.92 81.52 29.81 81.50 L 29.48 82.29 C 47.89 82.95 66.34 82.53 84.77 82.52 L 84.39 81.60 C 86.19 81.59 88.00 81.57 89.81 81.55 L 89.05 80.54 C 89.94 80.54 91.70 80.55 92.58 80.56 L 92.21 79.44 C 92.82 79.49 94.05 79.59 94.66 79.64 L 94.21 78.85 C 96.76 78.55 98.56 76.74 100.50 75.28 L 100.12 74.04 L 101.46 75.11 L 101.36 73.35 L 103.04 73.59 L 102.13 72.22 L 103.87 72.70 L 103.19 71.12 L 104.15 71.68 C 105.05 70.27 106.01 68.89 106.86 67.44 L 107.74 67.23 C 107.62 66.77 107.40 65.83 107.28 65.37 L 108.75 65.47 C 108.64 64.94 108.41 63.87 108.29 63.33 L 109.23 63.59 C 110.20 60.14 111.63 56.74 111.56 53.09 C 111.46 44.48 112.62 35.55 109.23 27.38 L 108.23 27.67 C 108.38 27.16 108.67 26.12 108.82 25.61 L 107.34 25.63 C 107.43 25.16 107.61 24.21 107.70 23.73 L 106.86 23.55 C 106.02 22.12 105.07 20.76 104.17 19.37 L 103.89 19.45 C 103.05 17.53 101.55 16.04 99.64 15.21 C 98.74 14.43 97.83 13.67 96.91 12.92 C 96.26 12.77 94.97 12.46 94.33 12.30 L 94.36 11.15 C 94.04 11.25 93.38 11.45 93.06 11.55 C 91.86 10.61 90.45 10.16 88.85 10.18 L 89.94 9.46 C 89.01 9.46 87.16 9.47 86.23 9.47 L 86.46 8.70 C 80.65 8.25 74.83 8.41 69.01 8.39 C 55.84 8.55 42.66 8.04 29.50 8.70 Z" />
<path fill="#000000" opacity="1.00" d=" M 24.81 11.68 C 27.52 10.97 30.10 9.55 32.96 9.60 C 50.54 9.56 68.11 9.72 85.69 9.52 L 85.48 10.21 C 87.43 10.53 89.33 11.07 91.21 11.65 C 92.64 12.39 94.09 13.08 95.56 13.74 L 95.58 14.51 L 96.98 14.34 L 96.56 15.40 C 97.47 15.72 98.38 16.05 99.29 16.38 C 100.04 17.70 101.41 18.36 102.72 18.99 L 101.97 20.03 L 102.90 19.80 C 103.34 20.33 104.23 21.40 104.67 21.94 L 104.24 22.87 L 105.80 22.31 C 105.68 22.81 105.43 23.81 105.31 24.30 L 106.22 24.40 C 106.94 25.95 107.71 27.48 108.55 28.98 C 108.49 29.41 108.37 30.28 108.31 30.71 L 109.47 30.03 C 109.44 30.95 109.39 32.80 109.37 33.72 L 110.46 33.22 C 110.35 41.36 110.34 49.51 110.46 57.66 L 109.35 57.36 C 109.39 58.24 109.46 59.99 109.50 60.87 L 108.19 60.40 C 108.31 60.81 108.55 61.62 108.67 62.03 C 108.33 62.54 107.63 63.57 107.29 64.08 C 107.04 64.73 106.55 66.02 106.30 66.67 L 105.36 66.66 C 105.44 67.16 105.62 68.17 105.71 68.67 L 103.98 68.18 L 104.80 69.04 C 102.10 72.41 98.62 74.82 95.12 77.25 C 94.64 77.53 93.68 78.08 93.20 78.36 C 92.70 78.62 91.70 79.14 91.20 79.40 C 88.95 80.10 86.65 80.62 84.30 80.89 L 84.34 81.40 C 67.21 81.37 50.09 81.39 32.96 81.40 C 30.10 81.49 27.54 80.02 24.84 79.33 C 24.31 79.11 23.26 78.67 22.74 78.45 C 21.79 77.83 20.84 77.20 19.88 76.58 L 18.66 76.69 L 18.46 75.24 L 17.94 75.66 C 16.98 74.73 15.96 73.87 14.89 73.08 C 13.54 71.28 12.20 69.44 10.43 68.03 C 10.48 67.68 10.57 66.98 10.62 66.64 L 9.73 66.59 C 9.45 66.00 8.89 64.81 8.61 64.22 C 7.45 61.31 6.14 58.37 5.65 55.26 C 5.55 48.41 5.60 41.56 5.66 34.70 C 6.54 32.68 7.18 30.56 7.71 28.41 L 8.10 28.27 C 8.85 26.41 9.81 24.65 10.69 22.85 C 10.94 22.56 11.43 21.97 11.67 21.67 C 12.60 20.61 13.52 19.55 14.46 18.52 C 15.67 17.50 16.90 16.50 18.00 15.36 L 18.52 15.81 L 18.61 14.27 C 19.07 14.35 19.99 14.53 20.45 14.61 L 20.35 13.73 C 21.85 13.07 23.34 12.39 24.81 11.68 M 54.97 31.42 L 55.05 31.57 C 51.58 34.98 48.23 38.51 45.24 42.35 C 44.91 42.59 44.23 43.05 43.90 43.28 L 43.97 43.59 C 40.69 46.75 36.57 50.11 37.58 55.28 C 53.19 55.46 68.80 55.46 84.41 55.28 C 84.57 52.58 84.17 49.76 82.32 47.67 C 81.97 47.47 81.28 47.08 80.94 46.89 L 81.06 46.13 L 79.77 46.13 L 80.02 45.43 C 75.45 41.21 71.78 36.13 67.30 31.81 C 65.67 30.12 64.02 28.47 62.35 26.83 C 59.01 26.46 57.12 29.44 54.97 31.42 Z" />
<path fill="#000000" opacity="1.00" d=" M 52.77 39.72 C 55.55 36.73 58.51 33.89 61.00 30.64 C 67.14 37.69 73.45 44.62 79.99 51.33 C 67.35 51.15 54.71 51.16 42.08 51.32 C 42.61 50.78 43.66 49.70 44.19 49.15 C 44.42 48.91 44.86 48.42 45.09 48.17 C 47.76 45.45 50.34 42.66 52.77 39.72 Z" />
</g>
<g id="#f5f9f7ff">
<path fill="#f5f9f7" opacity="1.00" d=" M 29.50 8.70 C 42.66 8.04 55.84 8.55 69.01 8.39 C 74.83 8.41 80.65 8.25 86.46 8.70 L 86.23 9.47 C 87.16 9.47 89.01 9.46 89.94 9.46 L 88.85 10.18 C 90.45 10.16 91.86 10.61 93.06 11.55 C 93.38 11.45 94.04 11.25 94.36 11.15 L 94.33 12.30 C 94.97 12.46 96.26 12.77 96.91 12.92 C 97.83 13.67 98.74 14.43 99.64 15.21 C 101.55 16.04 103.05 17.53 103.89 19.45 L 104.17 19.37 C 105.07 20.76 106.02 22.12 106.86 23.55 L 107.70 23.73 C 107.61 24.21 107.43 25.16 107.34 25.63 L 108.82 25.61 C 108.67 26.12 108.38 27.16 108.23 27.67 L 109.23 27.38 C 112.62 35.55 111.46 44.48 111.56 53.09 C 111.63 56.74 110.20 60.14 109.23 63.59 L 108.29 63.33 C 108.41 63.87 108.64 64.94 108.75 65.47 L 107.28 65.37 C 107.40 65.83 107.62 66.77 107.74 67.23 L 106.86 67.44 C 106.01 68.89 105.05 70.27 104.15 71.68 L 103.19 71.12 L 103.87 72.70 L 102.13 72.22 L 103.04 73.59 L 101.36 73.35 L 101.46 75.11 L 100.12 74.04 L 100.50 75.28 C 98.56 76.74 96.76 78.55 94.21 78.85 L 94.66 79.64 C 94.05 79.59 92.82 79.49 92.21 79.44 L 92.58 80.56 C 91.70 80.55 89.94 80.54 89.05 80.54 L 89.81 81.55 C 88.00 81.57 86.19 81.59 84.39 81.60 L 84.77 82.52 C 66.34 82.53 47.89 82.95 29.48 82.29 L 29.81 81.50 C 28.92 81.52 27.14 81.57 26.25 81.59 L 26.88 80.50 C 26.05 80.52 24.39 80.58 23.56 80.60 C 23.57 80.28 23.59 79.64 23.60 79.32 C 23.07 79.43 22.02 79.64 21.49 79.74 L 21.66 78.30 C 21.18 78.41 20.22 78.62 19.74 78.73 L 19.58 77.86 C 18.26 77.09 16.99 76.24 15.72 75.38 C 14.85 74.53 13.98 73.68 13.08 72.85 C 12.86 72.60 12.41 72.10 12.18 71.85 C 11.06 70.47 10.04 69.01 9.14 67.48 C 8.91 67.40 8.45 67.24 8.22 67.16 L 8.77 65.48 L 7.13 65.32 C 7.31 64.84 7.67 63.88 7.84 63.40 L 6.51 63.61 C 6.48 62.67 6.42 60.78 6.39 59.83 L 5.44 60.94 C 5.45 60.00 5.47 58.12 5.47 57.18 L 4.69 57.53 C 4.24 49.52 4.24 41.47 4.69 33.46 L 5.43 33.85 C 5.46 32.82 5.51 30.78 5.54 29.75 L 6.42 31.39 C 6.44 30.39 6.47 28.37 6.49 27.36 L 7.87 27.58 C 7.68 27.11 7.31 26.17 7.12 25.69 L 8.79 25.49 L 8.21 23.85 C 8.45 23.77 8.94 23.60 9.18 23.52 C 10.02 22.11 10.94 20.75 11.82 19.37 L 13.02 19.84 L 11.94 18.52 L 13.20 18.60 C 13.83 15.57 17.53 15.04 19.56 13.15 L 19.73 12.30 C 20.20 12.39 21.14 12.56 21.62 12.65 L 21.70 11.04 C 22.00 11.19 22.60 11.47 22.90 11.61 C 24.05 10.64 25.41 10.17 26.98 10.18 L 26.16 9.43 C 27.07 9.44 28.89 9.47 29.80 9.48 L 29.50 8.70 M 24.81 11.68 C 23.34 12.39 21.85 13.07 20.35 13.73 L 20.45 14.61 C 19.99 14.53 19.07 14.35 18.61 14.27 L 18.52 15.81 L 18.00 15.36 C 16.90 16.50 15.67 17.50 14.46 18.52 C 13.52 19.55 12.60 20.61 11.67 21.67 C 11.43 21.97 10.94 22.56 10.69 22.85 C 9.81 24.65 8.85 26.41 8.10 28.27 L 7.71 28.41 C 7.18 30.56 6.54 32.68 5.66 34.70 C 5.60 41.56 5.55 48.41 5.65 55.26 C 6.14 58.37 7.45 61.31 8.61 64.22 C 8.89 64.81 9.45 66.00 9.73 66.59 L 10.62 66.64 C 10.57 66.98 10.48 67.68 10.43 68.03 C 12.20 69.44 13.54 71.28 14.89 73.08 C 15.96 73.87 16.98 74.73 17.94 75.66 L 18.46 75.24 L 18.66 76.69 L 19.88 76.58 C 20.84 77.20 21.79 77.83 22.74 78.45 C 23.26 78.67 24.31 79.11 24.84 79.33 C 27.54 80.02 30.10 81.49 32.96 81.40 C 50.09 81.39 67.21 81.37 84.34 81.40 L 84.30 80.89 C 86.65 80.62 88.95 80.10 91.20 79.40 C 91.70 79.14 92.70 78.62 93.20 78.36 C 93.68 78.08 94.64 77.53 95.12 77.25 C 98.62 74.82 102.10 72.41 104.80 69.04 L 103.98 68.18 L 105.71 68.67 C 105.62 68.17 105.44 67.16 105.36 66.66 L 106.30 66.67 C 106.55 66.02 107.04 64.73 107.29 64.08 C 107.63 63.57 108.33 62.54 108.67 62.03 C 108.55 61.62 108.31 60.81 108.19 60.40 L 109.50 60.87 C 109.46 59.99 109.39 58.24 109.35 57.36 L 110.46 57.66 C 110.34 49.51 110.35 41.36 110.46 33.22 L 109.37 33.72 C 109.39 32.80 109.44 30.95 109.47 30.03 L 108.31 30.71 C 108.37 30.28 108.49 29.41 108.55 28.98 C 107.71 27.48 106.94 25.95 106.22 24.40 L 105.31 24.30 C 105.43 23.81 105.68 22.81 105.80 22.31 L 104.24 22.87 L 104.67 21.94 C 104.23 21.40 103.34 20.33 102.90 19.80 L 101.97 20.03 L 102.72 18.99 C 101.41 18.36 100.04 17.70 99.29 16.38 C 98.38 16.05 97.47 15.72 96.56 15.40 L 96.98 14.34 L 95.58 14.51 L 95.56 13.74 C 94.09 13.08 92.64 12.39 91.21 11.65 C 89.33 11.07 87.43 10.53 85.48 10.21 L 85.69 9.52 C 68.11 9.72 50.54 9.56 32.96 9.60 C 30.10 9.55 27.52 10.97 24.81 11.68 Z" />
<path fill="#f5f9f7" opacity="1.00" d=" M 54.97 31.42 C 57.12 29.44 59.01 26.46 62.35 26.83 C 64.02 28.47 65.67 30.12 67.30 31.81 C 71.78 36.13 75.45 41.21 80.02 45.43 L 79.77 46.13 L 81.06 46.13 L 80.94 46.89 C 81.28 47.08 81.97 47.47 82.32 47.67 C 84.17 49.76 84.57 52.58 84.41 55.28 C 68.80 55.46 53.19 55.46 37.58 55.28 C 36.57 50.11 40.69 46.75 43.97 43.59 L 43.90 43.28 C 44.23 43.05 44.91 42.59 45.24 42.35 C 48.23 38.51 51.58 34.98 55.05 31.57 L 54.97 31.42 M 52.77 39.72 C 50.34 42.66 47.76 45.45 45.09 48.17 C 44.86 48.42 44.42 48.91 44.19 49.15 C 43.66 49.70 42.61 50.78 42.08 51.32 C 54.71 51.16 67.35 51.15 79.99 51.33 C 73.45 44.62 67.14 37.69 61.00 30.64 C 58.51 33.89 55.55 36.73 52.77 39.72 Z" />
</g>
</svg>
