<?xml version="1.0" encoding="UTF-8" ?>
<!DOCTYPE svg PUBLIC "-//W3C//DTD SVG 1.1//EN" "http://www.w3.org/Graphics/SVG/1.1/DTD/svg11.dtd">
<svg width="117px" height="140px" viewBox="0 0 117 140" version="1.1" xmlns="http://www.w3.org/2000/svg">
<g id="#000000ff">
<path fill="#000000" opacity="1.00" d=" M 0.00 0.00 L 117.00 0.00 L 117.00 140.00 L 0.00 140.00 L 0.00 0.00 M 32.41 10.54 C 17.61 12.03 5.11 25.05 4.43 39.92 C 4.34 59.29 4.43 78.66 4.39 98.03 C 4.22 104.43 6.43 110.78 10.03 116.03 C 15.90 124.77 26.47 129.97 36.95 129.62 C 51.32 129.59 65.68 129.61 80.05 129.61 C 88.79 129.66 97.44 125.81 103.35 119.39 C 108.50 113.56 111.81 105.88 111.61 98.03 C 111.61 79.34 111.60 60.66 111.61 41.97 C 111.80 33.89 108.32 25.99 102.89 20.10 C 96.74 13.75 87.89 10.09 79.05 10.38 C 63.51 10.51 47.95 10.19 32.41 10.54 Z" />
<path fill="#000000" opacity="1.00" d=" M 32.22 11.68 C 48.82 11.49 65.42 11.68 82.03 11.59 C 96.44 12.36 109.00 24.61 110.40 38.91 C 110.39 59.64 110.39 80.36 110.40 101.09 C 109.01 115.38 96.44 127.65 82.02 128.40 C 66.01 128.39 49.99 128.39 33.98 128.41 C 19.56 127.65 7.01 115.39 5.59 101.09 C 5.61 80.72 5.62 60.35 5.59 39.98 C 6.34 25.77 18.17 13.47 32.22 11.68 M 36.60 42.00 C 36.57 50.67 36.57 59.33 36.60 68.00 C 43.87 68.00 51.14 68.00 58.41 68.00 C 58.41 66.00 58.41 64.00 58.41 62.00 C 54.07 61.99 49.72 62.04 45.38 61.94 C 45.38 60.65 45.38 59.35 45.38 58.06 C 48.92 57.99 52.46 57.99 56.00 58.00 C 56.00 55.87 56.00 53.73 56.00 51.60 C 52.46 51.58 48.92 51.57 45.38 51.59 C 45.39 50.53 45.39 49.47 45.38 48.41 C 49.59 48.42 53.80 48.43 58.00 48.40 C 58.00 46.27 58.00 44.13 58.00 42.00 C 50.87 42.00 43.73 42.00 36.60 42.00 M 61.61 49.14 C 61.56 55.43 61.57 61.71 61.60 68.00 C 64.20 68.00 66.80 68.00 69.40 68.00 C 69.45 63.80 69.29 59.58 69.63 55.39 C 71.19 54.63 72.81 54.63 74.36 55.38 C 74.71 59.58 74.55 63.79 74.60 68.00 C 77.20 68.00 79.80 68.00 82.40 68.00 C 82.11 62.59 83.33 56.87 81.24 51.71 C 78.46 46.98 71.61 47.87 68.37 51.65 C 68.43 51.02 68.57 49.77 68.63 49.14 C 66.29 49.16 63.95 49.16 61.61 49.14 Z" />
</g>
<g id="#f7fbf8ff">
<path fill="#f7fbf8" opacity="1.00" d=" M 32.41 10.54 C 47.95 10.19 63.51 10.51 79.05 10.38 C 87.89 10.09 96.74 13.75 102.89 20.10 C 108.32 25.99 111.80 33.89 111.61 41.97 C 111.60 60.66 111.61 79.34 111.61 98.03 C 111.81 105.88 108.50 113.56 103.35 119.39 C 97.44 125.81 88.79 129.66 80.05 129.61 C 65.68 129.61 51.32 129.59 36.95 129.62 C 26.47 129.97 15.90 124.77 10.03 116.03 C 6.43 110.78 4.22 104.43 4.39 98.03 C 4.43 78.66 4.34 59.29 4.43 39.92 C 5.11 25.05 17.61 12.03 32.41 10.54 M 32.22 11.68 C 18.17 13.47 6.34 25.77 5.59 39.98 C 5.62 60.35 5.61 80.72 5.59 101.09 C 7.01 115.39 19.56 127.65 33.98 128.41 C 49.99 128.39 66.01 128.39 82.02 128.40 C 96.44 127.65 109.01 115.38 110.40 101.09 C 110.39 80.36 110.39 59.64 110.40 38.91 C 109.00 24.61 96.44 12.36 82.03 11.59 C 65.42 11.68 48.82 11.49 32.22 11.68 Z" />
<path fill="#f7fbf8" opacity="1.00" d=" M 36.60 42.00 C 43.73 42.00 50.87 42.00 58.00 42.00 C 58.00 44.13 58.00 46.27 58.00 48.40 C 53.80 48.43 49.59 48.42 45.38 48.41 C 45.39 49.47 45.39 50.53 45.38 51.59 C 48.92 51.57 52.46 51.58 56.00 51.60 C 56.00 53.73 56.00 55.87 56.00 58.00 C 52.46 57.99 48.92 57.99 45.38 58.06 C 45.38 59.35 45.38 60.65 45.38 61.94 C 49.72 62.04 54.07 61.99 58.41 62.00 C 58.41 64.00 58.41 66.00 58.41 68.00 C 51.14 68.00 43.87 68.00 36.60 68.00 C 36.57 59.33 36.57 50.67 36.60 42.00 Z" />
<path fill="#f7fbf8" opacity="1.00" d=" M 61.61 49.14 C 63.95 49.16 66.29 49.16 68.63 49.14 C 68.57 49.77 68.43 51.02 68.37 51.65 C 71.61 47.87 78.46 46.98 81.24 51.71 C 83.33 56.87 82.11 62.59 82.40 68.00 C 79.80 68.00 77.20 68.00 74.60 68.00 C 74.55 63.79 74.71 59.58 74.36 55.38 C 72.81 54.63 71.19 54.63 69.63 55.39 C 69.29 59.58 69.45 63.80 69.40 68.00 C 66.80 68.00 64.20 68.00 61.60 68.00 C 61.57 61.71 61.56 55.43 61.61 49.14 Z" />
</g>
</svg>
