<?xml version="1.0" encoding="UTF-8" ?>
<!DOCTYPE svg PUBLIC "-//W3C//DTD SVG 1.1//EN" "http://www.w3.org/Graphics/SVG/1.1/DTD/svg11.dtd">
<svg width="117px" height="140px" viewBox="0 0 117 140" version="1.1" xmlns="http://www.w3.org/2000/svg">
<g id="#000000ff">
<path fill="#000000" opacity="1.00" d=" M 0.00 0.00 L 117.00 0.00 L 117.00 140.00 L 0.00 140.00 L 0.00 0.00 M 29.42 10.45 C 15.67 13.28 4.38 25.90 4.00 40.06 C 3.99 59.71 4.02 79.35 3.99 98.99 C 3.83 115.02 18.02 129.60 34.02 130.01 C 50.68 129.96 67.35 130.06 84.01 129.96 C 95.50 128.93 106.03 121.08 110.45 110.44 C 112.78 105.30 113.11 99.57 113.01 94.01 C 112.94 76.32 113.08 58.63 112.94 40.93 C 112.81 24.98 98.90 10.64 82.99 10.00 C 67.00 9.99 51.02 10.02 35.03 9.98 C 33.15 10.00 31.26 10.03 29.42 10.45 Z" />
<path fill="#000000" opacity="1.00" d=" M 35.08 12.23 C 49.37 11.81 63.67 12.18 77.97 12.04 C 86.20 11.95 94.55 14.63 100.58 20.37 C 106.68 26.22 110.07 34.62 109.99 43.05 C 110.02 60.69 109.98 78.32 110.01 95.96 C 110.07 102.26 108.66 108.65 105.17 113.96 C 99.95 122.59 90.02 127.67 80.05 127.88 C 66.39 128.05 52.73 127.89 39.07 127.96 C 31.73 128.01 24.22 126.14 18.42 121.49 C 11.31 115.95 6.97 107.04 7.07 98.01 C 7.05 79.00 6.99 59.99 7.11 40.98 C 7.17 26.03 20.17 12.78 35.08 12.23 M 37.26 28.24 C 37.18 32.38 37.12 36.53 37.24 40.67 C 37.63 41.02 38.42 41.72 38.81 42.07 C 38.56 44.84 39.14 47.76 38.44 50.44 C 36.67 52.18 37.29 54.83 37.16 57.05 C 37.34 65.18 36.86 73.34 37.48 81.44 L 38.05 81.89 C 44.71 82.13 51.39 82.05 58.05 81.77 C 64.99 82.08 71.95 82.10 78.89 81.89 C 79.14 71.24 78.92 60.58 79.01 49.93 C 79.10 48.30 78.47 46.76 78.27 45.17 C 79.40 41.67 79.18 37.83 78.75 34.23 C 76.98 32.07 74.84 30.25 72.91 28.23 C 61.03 28.36 49.14 28.41 37.26 28.24 Z" />
<path fill="#000000" opacity="1.00" d=" M 37.96 28.78 C 48.95 28.59 59.96 28.69 70.94 28.70 C 73.41 29.83 74.98 32.26 76.98 34.03 C 76.92 37.71 77.82 41.69 75.83 45.03 C 77.73 48.37 76.92 52.27 77.06 55.92 C 76.93 63.88 77.35 71.86 76.82 79.81 C 70.22 79.87 63.61 80.05 57.02 79.55 C 50.78 80.02 44.52 79.92 38.27 79.77 C 37.42 72.89 38.04 65.94 37.85 59.03 C 37.95 56.29 37.29 53.25 39.03 50.86 C 40.27 52.30 39.73 54.30 39.86 56.02 C 39.84 61.69 39.80 67.35 39.85 73.02 C 39.60 74.83 41.10 76.67 42.95 76.65 C 52.66 76.64 62.37 76.64 72.08 76.65 C 73.96 76.66 75.33 74.79 75.14 72.99 C 75.16 61.00 75.19 49.01 75.16 37.03 C 75.44 35.09 74.19 32.97 72.09 32.93 C 62.37 32.82 52.64 32.83 42.93 32.93 C 39.02 33.17 39.87 37.90 39.83 40.59 C 39.33 40.23 38.33 39.52 37.83 39.16 C 37.82 35.70 37.84 32.24 37.96 28.78 M 44.33 77.80 L 44.90 79.10 C 53.39 79.43 61.87 79.32 70.36 79.17 L 70.40 77.75 C 61.71 77.72 53.02 77.62 44.33 77.80 Z" />
<path fill="#000000" opacity="1.00" d=" M 43.16 34.34 C 52.43 34.15 61.71 34.29 70.98 34.27 C 73.00 33.94 74.28 36.18 74.17 37.94 C 74.21 48.97 74.13 60.00 74.17 71.03 C 74.44 73.02 73.25 75.44 70.98 75.36 C 62.01 75.48 53.02 75.45 44.05 75.37 C 41.76 75.46 40.43 73.00 40.82 70.96 C 40.98 59.98 40.58 49.00 40.81 38.02 C 40.72 36.54 41.55 34.55 43.16 34.34 M 44.32 37.35 C 44.08 37.57 43.59 38.01 43.35 38.23 C 43.14 48.16 43.16 58.10 43.23 68.04 C 43.33 69.64 42.97 71.97 45.01 72.48 C 53.02 72.69 61.04 72.55 69.06 72.56 C 70.37 72.73 71.90 71.58 71.63 70.16 C 71.57 59.80 71.65 49.43 71.75 39.07 C 71.82 37.16 69.39 36.87 67.98 36.81 C 61.64 36.75 55.30 36.86 48.96 36.78 C 47.42 36.85 45.73 36.56 44.32 37.35 Z" />
<path fill="#000000" opacity="1.00" d=" M 44.99 37.82 C 53.02 37.85 61.06 37.72 69.08 37.86 C 71.86 38.64 71.04 41.91 71.03 44.05 C 64.37 43.88 57.67 43.51 50.97 43.69 C 48.66 44.02 46.32 44.45 44.01 43.87 C 43.87 41.80 43.74 39.62 44.99 37.82 M 54.14 41.33 C 50.98 41.24 47.67 42.07 44.86 40.07 C 45.93 42.96 48.84 44.31 51.46 42.49 C 51.83 42.59 52.59 42.79 52.96 42.88 C 55.58 42.21 58.22 43.64 60.89 43.05 C 60.46 41.85 60.02 40.66 59.58 39.46 C 58.46 40.79 56.26 41.93 56.17 39.23 C 55.19 39.62 54.42 40.26 54.14 41.33 M 62.91 39.42 C 63.69 41.07 65.24 42.17 66.29 43.64 C 66.87 42.34 67.36 41.00 67.77 39.64 C 66.15 39.56 64.53 39.48 62.91 39.42 Z" />
<path fill="#000000" opacity="1.00" d=" M 43.77 47.99 C 42.95 44.56 46.92 45.69 48.95 45.47 C 56.33 45.71 63.72 45.26 71.09 45.76 C 70.89 47.80 70.93 49.85 70.80 51.90 C 70.05 53.65 67.69 53.50 66.11 53.46 C 60.52 52.48 56.56 47.49 50.87 46.81 C 48.44 46.30 46.09 47.44 43.77 47.99 Z" />
<path fill="#000000" opacity="1.00" d=" M 43.94 50.08 C 47.05 46.30 54.52 47.07 56.53 51.28 L 56.25 51.95 C 54.66 52.26 53.05 52.48 51.54 53.08 C 50.61 52.54 49.89 51.77 49.34 50.85 C 49.34 52.06 49.42 53.27 49.59 54.46 C 51.38 54.62 53.17 54.43 54.95 54.31 C 56.05 54.24 57.16 54.30 58.26 54.33 C 58.39 53.76 58.66 52.61 58.79 52.04 C 59.77 50.97 61.25 53.38 62.46 53.45 C 65.08 54.96 68.15 54.68 70.98 54.02 C 70.81 58.16 70.78 62.30 71.01 66.44 C 70.22 66.39 68.66 66.29 67.87 66.24 C 67.94 66.65 68.08 67.46 68.15 67.87 L 68.76 66.44 C 70.98 67.39 71.27 69.36 70.67 71.56 C 61.85 71.59 53.01 71.91 44.21 71.39 C 43.57 64.31 43.79 57.17 43.94 50.08 M 46.19 51.09 C 45.63 52.71 46.16 53.28 47.79 52.80 C 48.37 51.18 47.84 50.61 46.19 51.09 M 47.84 62.21 C 48.82 63.70 50.75 63.91 52.17 64.82 C 50.35 64.90 48.54 64.86 46.72 64.79 C 46.44 65.39 45.87 66.59 45.58 67.19 C 48.93 66.75 53.23 68.53 55.88 65.87 C 56.90 62.66 52.31 63.38 50.89 61.44 C 53.16 61.25 55.43 61.30 57.70 61.28 L 57.71 59.76 C 54.48 60.15 49.60 58.52 47.84 62.21 M 58.97 60.93 C 59.91 61.88 61.09 62.19 62.53 61.85 C 61.86 65.66 56.11 62.79 56.52 67.26 C 60.14 67.30 64.10 67.34 67.20 65.19 C 68.39 64.28 68.65 63.09 67.96 61.63 C 66.11 60.77 64.12 59.55 62.01 60.37 C 60.58 59.21 59.57 59.39 58.97 60.93 Z" />
</g>
<g id="#708cc8ff">
<path fill="#708cc8" opacity="1.00" d=" M 29.42 10.45 C 31.26 10.03 33.15 10.00 35.03 9.98 C 51.02 10.02 67.00 9.99 82.99 10.00 C 98.90 10.64 112.81 24.98 112.94 40.93 C 113.08 58.63 112.94 76.32 113.01 94.01 C 113.11 99.57 112.78 105.30 110.45 110.44 C 106.03 121.08 95.50 128.93 84.01 129.96 C 67.35 130.06 50.68 129.96 34.02 130.01 C 18.02 129.60 3.83 115.02 3.99 98.99 C 4.02 79.35 3.99 59.71 4.00 40.06 C 4.38 25.90 15.67 13.28 29.42 10.45 M 35.08 12.23 C 20.17 12.78 7.17 26.03 7.11 40.98 C 6.99 59.99 7.05 79.00 7.07 98.01 C 6.97 107.04 11.31 115.95 18.42 121.49 C 24.22 126.14 31.73 128.01 39.07 127.96 C 52.73 127.89 66.39 128.05 80.05 127.88 C 90.02 127.67 99.95 122.59 105.17 113.96 C 108.66 108.65 110.07 102.26 110.01 95.96 C 109.98 78.32 110.02 60.69 109.99 43.05 C 110.07 34.62 106.68 26.22 100.58 20.37 C 94.55 14.63 86.20 11.95 77.97 12.04 C 63.67 12.18 49.37 11.81 35.08 12.23 Z" />
<path fill="#708cc8" opacity="1.00" d=" M 49.34 50.85 C 49.89 51.77 50.61 52.54 51.54 53.08 C 53.05 52.48 54.66 52.26 56.25 51.95 C 56.66 52.05 57.49 52.26 57.90 52.36 C 57.64 53.81 56.17 54.08 54.95 54.31 C 53.17 54.43 51.38 54.62 49.59 54.46 C 49.42 53.27 49.34 52.06 49.34 50.85 Z" />
</g>
<g id="#f8fcf8ff">
<path fill="#f8fcf8" opacity="1.00" d=" M 37.26 28.24 C 49.14 28.41 61.03 28.36 72.91 28.23 C 74.84 30.25 76.98 32.07 78.75 34.23 C 79.18 37.83 79.40 41.67 78.27 45.17 C 78.47 46.76 79.10 48.30 79.01 49.93 C 78.92 60.58 79.14 71.24 78.89 81.89 C 71.95 82.10 64.99 82.08 58.05 81.77 C 51.39 82.05 44.71 82.13 38.05 81.89 L 37.48 81.44 C 36.86 73.34 37.34 65.18 37.16 57.05 C 37.29 54.83 36.67 52.18 38.44 50.44 C 39.14 47.76 38.56 44.84 38.81 42.07 C 38.42 41.72 37.63 41.02 37.24 40.67 C 37.12 36.53 37.18 32.38 37.26 28.24 M 37.96 28.78 C 37.84 32.24 37.82 35.70 37.83 39.16 C 38.33 39.52 39.33 40.23 39.83 40.59 C 39.87 37.90 39.02 33.17 42.93 32.93 C 52.64 32.83 62.37 32.82 72.09 32.93 C 74.19 32.97 75.44 35.09 75.16 37.03 C 75.19 49.01 75.16 61.00 75.14 72.99 C 75.33 74.79 73.96 76.66 72.08 76.65 C 62.37 76.64 52.66 76.64 42.95 76.65 C 41.10 76.67 39.60 74.83 39.85 73.02 C 39.80 67.35 39.84 61.69 39.86 56.02 C 39.73 54.30 40.27 52.30 39.03 50.86 C 37.29 53.25 37.95 56.29 37.85 59.03 C 38.04 65.94 37.42 72.89 38.27 79.77 C 44.52 79.92 50.78 80.02 57.02 79.55 C 63.61 80.05 70.22 79.87 76.82 79.81 C 77.35 71.86 76.93 63.88 77.06 55.92 C 76.92 52.27 77.73 48.37 75.83 45.03 C 77.82 41.69 76.92 37.71 76.98 34.03 C 74.98 32.26 73.41 29.83 70.94 28.70 C 59.96 28.69 48.95 28.59 37.96 28.78 M 43.16 34.34 C 41.55 34.55 40.72 36.54 40.81 38.02 C 40.58 49.00 40.98 59.98 40.82 70.96 C 40.43 73.00 41.76 75.46 44.05 75.37 C 53.02 75.45 62.01 75.48 70.98 75.36 C 73.25 75.44 74.44 73.02 74.17 71.03 C 74.13 60.00 74.21 48.97 74.17 37.94 C 74.28 36.18 73.00 33.94 70.98 34.27 C 61.71 34.29 52.43 34.15 43.16 34.34 Z" />
<path fill="#f8fcf8" opacity="1.00" d=" M 44.32 37.35 C 45.73 36.56 47.42 36.85 48.96 36.78 C 55.30 36.86 61.64 36.75 67.98 36.81 C 69.39 36.87 71.82 37.16 71.75 39.07 C 71.65 49.43 71.57 59.80 71.63 70.16 C 71.90 71.58 70.37 72.73 69.06 72.56 C 61.04 72.55 53.02 72.69 45.01 72.48 C 42.97 71.97 43.33 69.64 43.23 68.04 C 43.16 58.10 43.14 48.16 43.35 38.23 C 43.59 38.01 44.08 37.57 44.32 37.35 M 44.99 37.82 C 43.74 39.62 43.87 41.80 44.01 43.87 C 46.32 44.45 48.66 44.02 50.97 43.69 C 57.67 43.51 64.37 43.88 71.03 44.05 C 71.04 41.91 71.86 38.64 69.08 37.86 C 61.06 37.72 53.02 37.85 44.99 37.82 M 43.77 47.99 C 46.09 47.44 48.44 46.30 50.87 46.81 C 56.56 47.49 60.52 52.48 66.11 53.46 C 67.69 53.50 70.05 53.65 70.80 51.90 C 70.93 49.85 70.89 47.80 71.09 45.76 C 63.72 45.26 56.33 45.71 48.95 45.47 C 46.92 45.69 42.95 44.56 43.77 47.99 M 43.94 50.08 C 43.79 57.17 43.57 64.31 44.21 71.39 C 53.01 71.91 61.85 71.59 70.67 71.56 C 71.27 69.36 70.98 67.39 68.76 66.44 L 68.15 67.87 C 68.08 67.46 67.94 66.65 67.87 66.24 C 68.66 66.29 70.22 66.39 71.01 66.44 C 70.78 62.30 70.81 58.16 70.98 54.02 C 68.15 54.68 65.08 54.96 62.46 53.45 C 61.25 53.38 59.77 50.97 58.79 52.04 C 58.66 52.61 58.39 53.76 58.26 54.33 C 57.16 54.30 56.05 54.24 54.95 54.31 C 56.17 54.08 57.64 53.81 57.90 52.36 C 57.49 52.26 56.66 52.05 56.25 51.95 L 56.53 51.28 C 54.52 47.07 47.05 46.30 43.94 50.08 Z" />
<path fill="#f8fcf8" opacity="1.00" d=" M 54.14 41.33 C 54.42 40.26 55.19 39.62 56.17 39.23 C 56.26 41.93 58.46 40.79 59.58 39.46 C 60.02 40.66 60.46 41.85 60.89 43.05 C 58.22 43.64 55.58 42.21 52.96 42.88 C 52.59 42.79 51.83 42.59 51.46 42.49 C 48.84 44.31 45.93 42.96 44.86 40.07 C 47.67 42.07 50.98 41.24 54.14 41.33 Z" />
<path fill="#f8fcf8" opacity="1.00" d=" M 62.91 39.42 C 64.53 39.48 66.15 39.56 67.77 39.64 C 67.36 41.00 66.87 42.34 66.29 43.64 C 65.24 42.17 63.69 41.07 62.91 39.42 Z" />
<path fill="#f8fcf8" opacity="1.00" d=" M 58.97 60.93 C 59.57 59.39 60.58 59.21 62.01 60.37 C 61.06 61.01 60.05 61.20 58.97 60.93 Z" />
<path fill="#f8fcf8" opacity="1.00" d=" M 62.53 61.85 C 64.34 61.77 66.15 61.65 67.96 61.63 C 68.65 63.09 68.39 64.28 67.20 65.19 C 64.10 67.34 60.14 67.30 56.52 67.26 C 56.11 62.79 61.86 65.66 62.53 61.85 Z" />
<path fill="#f8fcf8" opacity="1.00" d=" M 44.33 77.80 C 53.02 77.62 61.71 77.72 70.40 77.75 L 70.36 79.17 C 61.87 79.32 53.39 79.43 44.90 79.10 L 44.33 77.80 Z" />
</g>
<g id="#c0c3c0ff">
<path fill="#c0c3c0" opacity="1.00" d=" M 46.19 51.09 C 47.84 50.61 48.37 51.18 47.79 52.80 C 46.16 53.28 45.63 52.71 46.19 51.09 Z" />
</g>
<g id="#f0f3f0ff">
<path fill="#f0f3f0" opacity="1.00" d=" M 47.84 62.21 C 49.60 58.52 54.48 60.15 57.71 59.76 L 57.70 61.28 C 55.43 61.30 53.16 61.25 50.89 61.44 C 52.31 63.38 56.90 62.66 55.88 65.87 C 53.23 68.53 48.93 66.75 45.58 67.19 C 45.87 66.59 46.44 65.39 46.72 64.79 C 48.54 64.86 50.35 64.90 52.17 64.82 C 50.75 63.91 48.82 63.70 47.84 62.21 Z" />
</g>
<g id="#858685ff">
<path fill="#858685" opacity="1.00" d=" M 62.01 60.37 C 64.12 59.55 66.11 60.77 67.96 61.63 C 66.15 61.65 64.34 61.77 62.53 61.85 C 61.09 62.19 59.91 61.88 58.97 60.93 C 60.05 61.20 61.06 61.01 62.01 60.37 Z" />
</g>
</svg>
