<?xml version="1.0" encoding="UTF-8" ?>
<!DOCTYPE svg PUBLIC "-//W3C//DTD SVG 1.1//EN" "http://www.w3.org/Graphics/SVG/1.1/DTD/svg11.dtd">
<svg width="45px" height="45px" viewBox="0 0 45 45" version="1.1" xmlns="http://www.w3.org/2000/svg">
<g id="#000000ff">
<path fill="#000000" opacity="1.00" d=" M 0.00 0.00 L 45.00 0.00 L 45.00 45.00 L 0.00 45.00 L 0.00 0.00 M 18.71 10.73 C 12.95 12.39 10.33 18.27 9.28 23.68 C 10.09 25.58 10.75 27.56 11.69 29.42 C 14.52 34.82 21.60 37.44 27.29 35.28 C 32.74 33.50 36.67 27.76 36.06 22.00 C 36.42 13.43 26.37 7.42 18.71 10.73 Z" />
<path fill="#000000" opacity="1.00" d=" M 19.41 12.65 C 26.16 9.93 34.22 15.80 34.00 22.99 C 34.21 29.94 26.70 35.74 20.04 33.56 C 14.69 32.13 10.99 26.30 12.21 20.86 C 12.99 17.12 15.77 13.88 19.41 12.65 M 20.05 18.31 C 20.02 18.74 19.98 19.59 19.95 20.01 C 21.37 20.13 22.79 20.21 24.22 20.26 C 22.38 22.36 20.27 24.32 19.21 26.97 C 22.24 27.03 25.27 27.05 28.30 26.93 C 28.02 24.28 24.97 25.64 23.26 25.27 C 25.04 23.12 26.95 21.02 28.10 18.44 C 25.41 18.33 22.73 18.33 20.05 18.31 Z" />
</g>
<g id="#e6eae6ff">
<path fill="#e6eae6" opacity="1.00" d=" M 18.71 10.73 C 26.37 7.42 36.42 13.43 36.06 22.00 C 36.67 27.76 32.74 33.50 27.29 35.28 C 21.60 37.44 14.52 34.82 11.69 29.42 C 10.75 27.56 10.09 25.58 9.28 23.68 C 10.33 18.27 12.95 12.39 18.71 10.73 M 19.41 12.65 C 15.77 13.88 12.99 17.12 12.21 20.86 C 10.99 26.30 14.69 32.13 20.04 33.56 C 26.70 35.74 34.21 29.94 34.00 22.99 C 34.22 15.80 26.16 9.93 19.41 12.65 Z" />
<path fill="#e6eae6" opacity="1.00" d=" M 20.05 18.31 C 22.73 18.33 25.41 18.33 28.10 18.44 C 26.95 21.02 25.04 23.12 23.26 25.27 C 24.97 25.64 28.02 24.28 28.30 26.93 C 25.27 27.05 22.24 27.03 19.21 26.97 C 20.27 24.32 22.38 22.36 24.22 20.26 C 22.79 20.21 21.37 20.13 19.95 20.01 C 19.98 19.59 20.02 18.74 20.05 18.31 Z" />
</g>
</svg>
