<?xml version="1.0" encoding="UTF-8" ?>
<!DOCTYPE svg PUBLIC "-//W3C//DTD SVG 1.1//EN" "http://www.w3.org/Graphics/SVG/1.1/DTD/svg11.dtd">
<svg width="117px" height="140px" viewBox="0 0 117 140" version="1.1" xmlns="http://www.w3.org/2000/svg">
<g id="#000000ff">
<path fill="#000000" opacity="1.00" d=" M 0.00 0.00 L 117.00 0.00 L 117.00 140.00 L 0.00 140.00 L 0.00 0.00 M 30.21 11.27 C 28.07 11.44 26.08 12.26 24.18 13.21 C 20.22 14.44 17.03 17.29 14.10 20.11 C 13.89 20.42 13.49 21.03 13.29 21.33 C 10.40 24.32 8.31 28.05 7.08 32.01 C 6.76 33.04 6.46 34.07 6.18 35.12 C 5.60 37.03 5.38 39.02 5.39 41.01 C 5.39 60.02 5.40 79.03 5.38 98.05 C 5.39 100.30 5.46 102.59 6.20 104.74 C 6.76 108.65 8.76 112.14 10.69 115.51 C 12.42 117.71 13.41 120.88 16.37 121.73 C 20.30 125.40 25.47 128.21 30.88 128.67 L 30.60 129.31 C 46.04 129.96 61.51 129.44 76.97 129.61 C 80.30 129.44 83.85 130.14 87.00 128.73 C 88.24 128.63 89.49 128.55 90.74 128.47 L 90.23 127.78 C 91.46 127.55 92.68 127.26 93.89 126.93 C 94.99 126.36 96.09 125.81 97.20 125.26 L 96.42 124.80 C 98.30 125.40 99.47 124.12 99.88 122.55 C 100.18 122.55 100.79 122.55 101.09 122.55 C 104.47 120.56 106.43 117.13 108.05 113.70 L 108.38 114.00 C 109.06 112.49 109.73 110.97 110.45 109.48 C 111.04 107.97 111.51 106.41 111.83 104.83 C 112.85 101.66 112.55 98.29 112.61 95.02 C 112.54 75.67 112.75 56.31 112.49 36.96 C 112.24 36.54 111.74 35.72 111.49 35.30 C 111.51 34.57 111.55 33.11 111.57 32.37 L 110.81 32.40 C 110.42 30.01 109.29 27.85 108.22 25.72 L 108.05 26.36 C 107.29 24.66 106.33 23.06 105.42 21.44 L 104.24 21.75 L 104.76 20.24 L 103.23 20.69 L 103.70 19.23 L 102.49 19.39 L 102.45 18.16 L 101.27 18.72 L 101.52 17.84 C 100.10 16.86 98.69 15.87 97.27 14.90 C 96.00 14.20 94.72 13.45 93.27 13.18 L 93.62 12.55 C 91.63 11.79 89.61 11.06 87.44 11.12 C 85.36 10.49 83.17 10.36 81.01 10.38 C 65.99 10.41 50.96 10.37 35.94 10.40 C 34.00 10.38 32.04 10.55 30.21 11.27 Z" />
<path fill="#000000" opacity="1.00" d=" M 27.23 12.75 C 28.84 12.60 30.44 12.32 31.93 11.65 C 48.95 11.54 65.98 11.67 83.00 11.58 C 85.67 11.66 88.39 12.15 90.84 13.23 C 92.26 13.76 93.68 14.30 95.11 14.81 C 95.48 15.05 96.24 15.53 96.62 15.77 L 96.62 16.14 C 97.12 16.39 98.13 16.90 98.63 17.15 C 99.79 18.11 100.94 19.06 102.12 19.99 C 103.80 22.11 105.59 24.16 106.98 26.50 L 107.32 26.46 C 108.27 28.49 109.31 30.52 109.81 32.73 L 110.24 32.47 C 110.43 34.01 110.60 35.60 111.37 36.99 C 111.39 59.02 111.44 81.05 111.34 103.08 C 110.59 104.54 110.44 106.18 110.27 107.78 L 109.78 107.35 C 109.38 109.42 108.43 111.31 107.34 113.10 C 107.06 113.68 106.50 114.82 106.21 115.40 L 105.97 115.42 C 104.48 117.27 102.62 118.80 101.24 120.74 C 99.44 121.78 97.64 122.83 96.11 124.23 C 95.68 124.52 94.82 125.10 94.39 125.39 C 91.63 126.66 88.67 127.39 85.80 128.33 C 67.86 128.49 49.92 128.32 31.98 128.42 C 30.64 127.37 28.91 127.48 27.32 127.32 C 27.35 127.14 27.42 126.77 27.45 126.59 C 26.70 126.38 25.20 125.98 24.45 125.78 C 23.43 125.28 22.40 124.79 21.36 124.32 L 21.56 123.91 C 20.11 123.23 18.73 122.40 17.43 121.47 C 15.61 118.69 12.43 116.98 11.20 113.81 C 10.81 112.82 10.27 111.92 9.59 111.11 C 8.96 109.82 8.48 108.47 8.11 107.09 L 7.66 107.98 C 7.54 106.29 7.61 104.50 6.63 103.03 C 6.56 82.02 6.66 61.01 6.58 40.00 C 6.33 35.61 8.71 31.69 9.85 27.57 L 10.69 27.73 L 10.27 26.39 L 11.12 26.54 C 11.69 25.36 12.33 24.22 13.00 23.10 C 13.38 22.63 14.15 21.71 14.54 21.24 L 15.25 21.63 C 15.32 21.19 15.46 20.32 15.53 19.88 C 16.99 19.29 18.16 18.25 19.23 17.13 C 19.78 16.89 20.87 16.42 21.42 16.18 L 21.42 15.68 C 23.03 15.09 24.59 14.36 25.99 13.36 C 26.38 13.48 27.16 13.71 27.55 13.82 L 27.23 12.75 M 51.50 35.92 L 51.47 36.18 C 51.03 36.54 50.14 37.27 49.70 37.63 C 48.78 38.32 47.89 39.05 47.05 39.83 C 47.81 40.85 48.74 41.68 49.85 42.34 C 50.57 40.64 51.77 39.26 53.16 38.07 L 52.98 37.38 L 53.74 37.89 C 54.69 36.80 55.72 35.79 56.92 34.98 C 57.29 34.70 58.02 34.16 58.38 33.88 L 58.38 33.48 C 58.66 33.17 59.20 32.56 59.48 32.26 C 60.17 32.91 60.85 33.56 61.54 34.22 L 62.28 34.15 L 62.22 35.14 C 62.44 35.15 62.89 35.19 63.11 35.21 C 64.75 36.62 66.35 38.07 67.97 39.50 C 68.58 40.39 69.18 41.29 69.76 42.20 C 70.90 41.58 71.95 40.80 72.97 40.00 C 71.54 38.95 69.90 38.10 68.78 36.69 C 68.21 34.25 68.60 31.69 68.53 29.20 C 67.17 29.11 65.81 29.05 64.45 29.01 C 64.42 30.06 64.36 32.15 64.33 33.20 C 62.80 31.83 61.66 29.96 59.88 28.90 C 56.74 30.70 54.68 34.05 51.50 35.92 M 54.82 38.31 L 54.23 38.22 L 54.10 39.12 C 53.73 39.28 52.97 39.61 52.59 39.77 C 49.34 41.94 50.78 46.06 50.51 49.34 C 52.87 49.40 55.25 49.56 57.60 49.22 C 58.12 47.36 58.06 45.41 58.20 43.50 C 59.29 43.55 60.38 43.62 61.48 43.72 C 61.73 45.59 61.63 47.49 61.63 49.38 C 63.90 49.39 66.17 49.39 68.44 49.36 C 68.41 46.71 68.92 43.94 68.13 41.37 C 65.42 39.34 63.04 36.97 60.59 34.64 C 58.11 33.81 56.59 37.10 54.82 38.31 M 40.87 47.00 C 40.65 47.23 40.20 47.70 39.98 47.93 C 39.15 48.53 38.32 49.13 37.49 49.74 L 37.48 50.05 C 37.12 50.30 36.39 50.82 36.02 51.08 C 35.27 51.72 34.52 52.36 33.76 53.00 C 34.73 53.77 35.69 54.56 36.63 55.37 C 37.73 56.33 38.87 57.26 40.04 58.13 C 40.91 58.94 41.78 59.76 42.66 60.57 C 43.34 61.04 44.03 61.51 44.71 61.98 C 44.19 60.45 43.68 58.92 43.20 57.37 C 42.84 56.23 42.48 55.09 42.12 53.94 C 51.73 53.75 61.34 53.77 70.94 53.78 C 73.23 53.17 75.46 53.87 77.52 54.85 L 76.24 55.41 C 75.75 57.64 75.06 59.83 74.29 61.98 C 75.05 61.47 75.80 60.96 76.56 60.45 C 76.94 60.02 77.70 59.15 78.08 58.71 L 78.77 58.99 L 78.66 58.29 C 79.25 57.84 80.44 56.94 81.03 56.49 L 81.49 56.50 L 81.71 55.74 C 82.04 55.51 82.70 55.06 83.03 54.84 C 83.77 54.21 84.51 53.59 85.25 52.97 C 84.42 52.28 83.60 51.59 82.80 50.89 C 82.48 50.72 81.84 50.37 81.52 50.20 L 81.57 49.48 L 81.08 49.52 C 80.47 49.07 79.24 48.18 78.63 47.74 L 78.74 46.93 L 78.12 47.16 C 76.94 45.99 75.66 44.93 74.32 43.95 C 75.14 46.64 76.03 49.31 76.89 51.98 C 65.33 52.60 53.67 52.06 42.06 52.07 C 42.23 51.60 42.57 50.66 42.73 50.19 C 43.37 48.10 44.02 46.03 44.65 43.94 C 43.38 44.95 42.12 45.98 40.87 47.00 M 48.85 56.69 C 49.21 57.32 49.95 58.57 50.31 59.20 L 51.11 58.84 L 50.79 59.75 C 51.17 60.16 51.93 60.99 52.31 61.41 C 52.98 62.30 53.65 63.18 54.32 64.06 L 54.31 64.65 L 54.83 64.70 C 55.17 65.07 55.85 65.81 56.20 66.17 L 55.85 67.27 L 57.13 67.13 C 57.25 69.97 57.22 72.81 57.33 75.65 C 58.10 75.58 59.64 75.46 60.40 75.39 C 62.21 72.86 60.05 69.14 62.03 66.57 L 62.04 65.81 L 62.73 65.85 C 63.02 65.44 63.60 64.62 63.89 64.21 L 63.77 63.56 L 64.77 63.55 L 64.79 62.45 L 65.57 62.40 C 65.68 62.08 65.91 61.42 66.03 61.09 C 67.17 59.89 68.21 58.60 69.21 57.28 C 68.14 57.28 66.01 57.29 64.94 57.30 C 62.62 59.56 61.17 62.57 59.13 65.08 C 58.08 63.60 57.03 62.11 55.92 60.67 L 56.00 60.31 C 54.57 57.54 51.83 56.54 48.85 56.69 Z" />
</g>
<g id="#f6faf7ff">
<path fill="#f6faf7" opacity="1.00" d=" M 30.21 11.27 C 32.04 10.55 34.00 10.38 35.94 10.40 C 50.96 10.37 65.99 10.41 81.01 10.38 C 83.17 10.36 85.36 10.49 87.44 11.12 C 89.61 11.06 91.63 11.79 93.62 12.55 L 93.27 13.18 C 94.72 13.45 96.00 14.20 97.27 14.90 C 98.69 15.87 100.10 16.86 101.52 17.84 L 101.27 18.72 L 102.45 18.16 L 102.49 19.39 L 103.70 19.23 L 103.23 20.69 L 104.76 20.24 L 104.24 21.75 L 105.42 21.44 C 106.33 23.06 107.29 24.66 108.05 26.36 L 108.22 25.72 C 109.29 27.85 110.42 30.01 110.81 32.40 L 111.57 32.37 C 111.55 33.11 111.51 34.57 111.49 35.30 C 111.74 35.72 112.24 36.54 112.49 36.96 C 112.75 56.31 112.54 75.67 112.61 95.02 C 112.55 98.29 112.85 101.66 111.83 104.83 C 111.51 106.41 111.04 107.97 110.45 109.48 C 109.73 110.97 109.06 112.49 108.38 114.00 L 108.05 113.70 C 106.43 117.13 104.47 120.56 101.09 122.55 C 100.79 122.55 100.18 122.55 99.88 122.55 C 99.47 124.12 98.30 125.40 96.42 124.80 L 97.20 125.26 C 96.09 125.81 94.99 126.36 93.89 126.93 C 92.68 127.26 91.46 127.55 90.23 127.78 L 90.74 128.47 C 89.49 128.55 88.24 128.63 87.00 128.73 C 83.85 130.14 80.30 129.44 76.97 129.61 C 61.51 129.44 46.04 129.96 30.60 129.31 L 30.88 128.67 C 25.47 128.21 20.30 125.40 16.37 121.73 C 13.41 120.88 12.42 117.71 10.69 115.51 C 8.76 112.14 6.76 108.65 6.20 104.74 C 5.46 102.59 5.39 100.30 5.38 98.05 C 5.40 79.03 5.39 60.02 5.39 41.01 C 5.38 39.02 5.60 37.03 6.18 35.12 C 6.46 34.07 6.76 33.04 7.08 32.01 C 8.31 28.05 10.40 24.32 13.29 21.33 C 13.49 21.03 13.89 20.42 14.10 20.11 C 17.03 17.29 20.22 14.44 24.18 13.21 C 26.08 12.26 28.07 11.44 30.21 11.27 M 27.23 12.75 L 27.55 13.82 C 27.16 13.71 26.38 13.48 25.99 13.36 C 24.59 14.36 23.03 15.09 21.42 15.68 L 21.42 16.18 C 20.87 16.42 19.78 16.89 19.23 17.13 C 18.16 18.25 16.99 19.29 15.53 19.88 C 15.46 20.32 15.32 21.19 15.25 21.63 L 14.54 21.24 C 14.15 21.71 13.38 22.63 13.00 23.10 C 12.33 24.22 11.69 25.36 11.12 26.54 L 10.27 26.39 L 10.69 27.73 L 9.85 27.57 C 8.71 31.69 6.33 35.61 6.58 40.00 C 6.66 61.01 6.56 82.02 6.63 103.03 C 7.61 104.50 7.54 106.29 7.66 107.98 L 8.11 107.09 C 8.48 108.47 8.96 109.82 9.59 111.11 C 10.27 111.92 10.81 112.82 11.20 113.81 C 12.43 116.98 15.61 118.69 17.43 121.47 C 18.73 122.40 20.11 123.23 21.56 123.91 L 21.36 124.32 C 22.40 124.79 23.43 125.28 24.45 125.78 C 25.20 125.98 26.70 126.38 27.45 126.59 C 27.42 126.77 27.35 127.14 27.32 127.32 C 28.91 127.48 30.64 127.37 31.98 128.42 C 49.92 128.32 67.86 128.49 85.80 128.33 C 88.67 127.39 91.63 126.66 94.39 125.39 C 94.82 125.10 95.68 124.52 96.11 124.23 C 97.64 122.83 99.44 121.78 101.24 120.74 C 102.62 118.80 104.48 117.27 105.97 115.42 L 106.21 115.40 C 106.50 114.82 107.06 113.68 107.34 113.10 C 108.43 111.31 109.38 109.42 109.78 107.35 L 110.27 107.78 C 110.44 106.18 110.59 104.54 111.34 103.08 C 111.44 81.05 111.39 59.02 111.37 36.99 C 110.60 35.60 110.43 34.01 110.24 32.47 L 109.81 32.73 C 109.31 30.52 108.27 28.49 107.32 26.46 L 106.98 26.50 C 105.59 24.16 103.80 22.11 102.12 19.99 C 100.94 19.06 99.79 18.11 98.63 17.15 C 98.13 16.90 97.12 16.39 96.62 16.14 L 96.62 15.77 C 96.24 15.53 95.48 15.05 95.11 14.81 C 93.68 14.30 92.26 13.76 90.84 13.23 C 88.39 12.15 85.67 11.66 83.00 11.58 C 65.98 11.67 48.95 11.54 31.93 11.65 C 30.44 12.32 28.84 12.60 27.23 12.75 Z" />
<path fill="#f6faf7" opacity="1.00" d=" M 51.50 35.92 C 54.68 34.05 56.74 30.70 59.88 28.90 C 61.66 29.96 62.80 31.83 64.33 33.20 C 64.36 32.15 64.42 30.06 64.45 29.01 C 65.81 29.05 67.17 29.11 68.53 29.20 C 68.60 31.69 68.21 34.25 68.78 36.69 C 69.90 38.10 71.54 38.95 72.97 40.00 C 71.95 40.80 70.90 41.58 69.76 42.20 C 69.18 41.29 68.58 40.39 67.97 39.50 C 66.35 38.07 64.75 36.62 63.11 35.21 C 62.89 35.19 62.44 35.15 62.22 35.14 L 62.28 34.15 L 61.54 34.22 C 60.85 33.56 60.17 32.91 59.48 32.26 C 59.20 32.56 58.66 33.17 58.38 33.48 L 58.38 33.88 C 58.02 34.16 57.29 34.70 56.92 34.98 C 55.72 35.79 54.69 36.80 53.74 37.89 L 52.98 37.38 L 53.16 38.07 C 51.77 39.26 50.57 40.64 49.85 42.34 C 48.74 41.68 47.81 40.85 47.05 39.83 C 47.89 39.05 48.78 38.32 49.70 37.63 C 50.14 37.27 51.03 36.54 51.47 36.18 L 51.50 35.92 Z" />
<path fill="#f6faf7" opacity="1.00" d=" M 54.82 38.31 C 56.59 37.10 58.11 33.81 60.59 34.64 C 63.04 36.97 65.42 39.34 68.13 41.37 C 68.92 43.94 68.41 46.71 68.44 49.36 C 66.17 49.39 63.90 49.39 61.63 49.38 C 61.63 47.49 61.73 45.59 61.48 43.72 C 60.38 43.62 59.29 43.55 58.20 43.50 C 58.06 45.41 58.12 47.36 57.60 49.22 C 55.25 49.56 52.87 49.40 50.51 49.34 C 50.78 46.06 49.34 41.94 52.59 39.77 C 52.97 39.61 53.73 39.28 54.10 39.12 L 54.23 38.22 L 54.82 38.31 Z" />
<path fill="#f6faf7" opacity="1.00" d=" M 40.87 47.00 C 42.12 45.98 43.38 44.95 44.65 43.94 C 44.02 46.03 43.37 48.10 42.73 50.19 C 42.57 50.66 42.23 51.60 42.06 52.07 C 53.67 52.06 65.33 52.60 76.89 51.98 C 76.03 49.31 75.14 46.64 74.32 43.95 C 75.66 44.93 76.94 45.99 78.12 47.16 L 78.74 46.93 L 78.63 47.74 C 79.24 48.18 80.47 49.07 81.08 49.52 L 81.57 49.48 L 81.52 50.20 C 81.84 50.37 82.48 50.72 82.80 50.89 C 83.60 51.59 84.42 52.28 85.25 52.97 C 84.51 53.59 83.77 54.21 83.03 54.84 C 82.70 55.06 82.04 55.51 81.71 55.74 L 81.49 56.50 L 81.03 56.49 C 80.44 56.94 79.25 57.84 78.66 58.29 L 78.77 58.99 L 78.08 58.71 C 77.70 59.15 76.94 60.02 76.56 60.45 C 75.80 60.96 75.05 61.47 74.29 61.98 C 75.06 59.83 75.75 57.64 76.24 55.41 L 77.52 54.85 C 75.46 53.87 73.23 53.17 70.94 53.78 C 61.34 53.77 51.73 53.75 42.12 53.94 C 42.48 55.09 42.84 56.23 43.20 57.37 C 43.68 58.92 44.19 60.45 44.71 61.98 C 44.03 61.51 43.34 61.04 42.66 60.57 C 41.78 59.76 40.91 58.94 40.04 58.13 C 38.87 57.26 37.73 56.33 36.63 55.37 C 35.69 54.56 34.73 53.77 33.76 53.00 C 34.52 52.36 35.27 51.72 36.02 51.08 C 36.39 50.82 37.12 50.30 37.48 50.05 L 37.49 49.74 C 38.32 49.13 39.15 48.53 39.98 47.93 C 40.20 47.70 40.65 47.23 40.87 47.00 Z" />
<path fill="#f6faf7" opacity="1.00" d=" M 48.85 56.69 C 51.83 56.54 54.57 57.54 56.00 60.31 L 55.92 60.67 C 57.03 62.11 58.08 63.60 59.13 65.08 C 61.17 62.57 62.62 59.56 64.94 57.30 C 66.01 57.29 68.14 57.28 69.21 57.28 C 68.21 58.60 67.17 59.89 66.03 61.09 C 65.91 61.42 65.68 62.08 65.57 62.40 L 64.79 62.45 L 64.77 63.55 L 63.77 63.56 L 63.89 64.21 C 63.60 64.62 63.02 65.44 62.73 65.85 L 62.04 65.81 L 62.03 66.57 C 60.05 69.14 62.21 72.86 60.40 75.39 C 59.64 75.46 58.10 75.58 57.33 75.65 C 57.22 72.81 57.25 69.97 57.13 67.13 L 55.85 67.27 L 56.20 66.17 C 55.85 65.81 55.17 65.07 54.83 64.70 L 54.31 64.65 L 54.32 64.06 C 53.65 63.18 52.98 62.30 52.31 61.41 C 51.93 60.99 51.17 60.16 50.79 59.75 L 51.11 58.84 L 50.31 59.20 C 49.95 58.57 49.21 57.32 48.85 56.69 Z" />
</g>
</svg>
