<?xml version="1.0" encoding="UTF-8" ?>
<!DOCTYPE svg PUBLIC "-//W3C//DTD SVG 1.1//EN" "http://www.w3.org/Graphics/SVG/1.1/DTD/svg11.dtd">
<svg width="117px" height="140px" viewBox="0 0 117 140" version="1.1" xmlns="http://www.w3.org/2000/svg">
<g id="#000000ff">
<path fill="#000000" opacity="1.00" d=" M 0.00 0.00 L 117.00 0.00 L 117.00 140.00 L 0.00 140.00 L 0.00 0.00 M 27.30 11.69 L 27.80 12.48 C 26.97 12.48 25.31 12.46 24.49 12.45 L 24.53 13.83 C 24.06 13.65 23.13 13.28 22.66 13.10 L 22.62 14.67 C 22.15 14.57 21.23 14.38 20.77 14.28 L 20.54 15.14 C 19.13 15.96 17.78 16.88 16.41 17.77 L 16.63 18.81 L 15.15 18.18 L 15.84 19.21 L 14.67 19.67 L 14.20 20.82 L 13.17 20.17 L 13.82 21.64 L 12.79 21.40 C 11.88 22.80 10.94 24.17 10.10 25.61 L 9.26 25.74 C 9.37 26.21 9.58 27.13 9.68 27.59 L 8.13 27.65 C 8.30 28.12 8.64 29.07 8.80 29.54 L 7.74 29.48 C 6.71 33.25 5.31 37.00 5.40 40.97 C 5.37 60.33 5.37 79.69 5.39 99.05 C 5.33 103.00 6.71 106.74 7.71 110.50 L 8.79 110.46 C 8.63 110.93 8.30 111.88 8.14 112.36 L 9.68 112.40 C 9.59 112.86 9.39 113.78 9.29 114.24 L 10.14 114.45 C 10.96 115.86 11.88 117.22 12.76 118.60 L 13.83 118.36 L 13.17 119.85 L 14.21 119.15 L 14.66 120.32 L 15.82 120.80 L 15.18 121.82 L 16.65 121.20 L 16.40 122.22 C 17.80 123.12 19.17 124.06 20.60 124.90 L 20.74 125.73 C 21.21 125.63 22.15 125.43 22.62 125.33 L 22.64 126.89 C 23.11 126.71 24.05 126.36 24.53 126.18 L 24.48 127.26 C 28.57 128.46 32.71 129.84 37.04 129.62 C 53.59 129.51 70.15 129.84 86.70 129.43 L 86.15 128.74 C 88.70 128.77 91.12 128.05 93.52 127.28 L 93.47 126.19 C 93.94 126.37 94.89 126.71 95.37 126.88 L 95.39 125.32 C 95.85 125.42 96.79 125.63 97.26 125.73 L 97.39 124.89 C 98.81 124.06 100.18 123.14 101.57 122.26 L 101.37 121.83 C 102.29 121.24 103.22 120.64 104.14 120.05 C 104.26 119.58 104.50 118.66 104.62 118.19 L 105.23 118.60 C 106.12 117.23 107.03 115.87 107.86 114.46 L 108.70 114.24 C 108.61 113.78 108.42 112.86 108.32 112.40 L 109.87 112.37 C 109.70 111.89 109.37 110.95 109.20 110.47 L 110.27 110.51 C 111.44 106.43 112.83 102.32 112.62 98.01 C 112.50 77.59 112.86 57.16 112.42 36.75 C 112.25 36.42 111.91 35.77 111.75 35.45 C 111.44 33.42 110.83 31.46 110.31 29.49 L 109.19 29.53 C 109.36 29.06 109.71 28.11 109.88 27.63 L 108.32 27.61 C 108.42 27.14 108.63 26.21 108.73 25.74 L 107.90 25.60 C 107.05 24.17 106.11 22.79 105.21 21.39 L 104.17 21.65 L 104.83 20.17 L 103.81 20.81 L 103.31 19.67 L 102.16 19.20 L 102.86 18.17 L 101.36 18.84 L 101.61 17.79 C 100.21 16.88 98.84 15.95 97.41 15.10 L 97.25 14.27 C 96.79 14.37 95.86 14.57 95.40 14.67 L 95.34 13.11 C 94.87 13.29 93.93 13.65 93.47 13.83 L 93.52 12.46 C 92.69 12.46 91.05 12.47 90.23 12.48 L 90.68 11.69 C 87.80 11.28 84.99 10.35 82.05 10.40 C 67.02 10.36 51.99 10.40 36.96 10.38 C 33.67 10.23 30.51 11.18 27.30 11.69 Z" />
<path fill="#000000" opacity="1.00" d=" M 25.47 13.63 C 27.54 13.12 29.59 12.54 31.70 12.19 L 31.14 11.54 C 49.71 11.66 68.29 11.67 86.86 11.54 L 86.30 12.18 C 88.28 12.51 90.22 13.05 92.15 13.60 C 93.63 14.34 95.12 15.08 96.64 15.78 L 96.72 16.74 C 97.21 16.59 98.18 16.30 98.66 16.16 L 98.13 17.72 L 99.14 17.29 C 101.35 19.43 103.53 21.61 105.67 23.82 L 105.37 24.88 L 106.85 24.34 C 106.71 24.82 106.42 25.76 106.27 26.24 L 107.21 26.42 C 107.98 28.03 108.80 29.61 109.66 31.17 L 109.10 32.50 C 109.37 32.43 109.91 32.30 110.18 32.24 C 110.42 33.79 110.72 35.35 111.32 36.82 C 111.51 59.12 111.24 81.43 111.46 103.73 L 110.53 103.44 C 110.49 104.89 110.46 106.34 110.44 107.78 C 110.10 107.71 109.43 107.58 109.10 107.51 L 109.66 108.83 C 108.79 110.43 107.95 112.05 107.16 113.69 L 106.25 113.69 C 106.40 114.19 106.71 115.19 106.86 115.69 L 105.98 115.31 C 104.04 118.06 101.59 120.36 99.18 122.67 L 98.12 122.38 L 98.67 123.87 C 98.19 123.72 97.23 123.41 96.75 123.26 L 96.60 124.21 C 95.02 124.97 93.45 125.77 91.91 126.61 C 91.54 126.49 90.79 126.25 90.41 126.14 L 90.88 127.22 C 88.94 127.41 87.00 127.68 85.17 128.34 C 67.15 128.47 49.14 128.28 31.12 128.44 L 31.72 127.55 C 30.21 127.50 28.70 127.45 27.19 127.42 L 27.56 126.18 C 27.18 126.29 26.43 126.49 26.05 126.60 C 24.54 125.75 23.00 124.97 21.44 124.22 L 21.23 123.28 C 20.76 123.42 19.80 123.70 19.33 123.85 L 19.88 122.36 L 18.83 122.68 C 16.40 120.37 13.95 118.05 12.02 115.29 L 11.12 115.71 C 11.27 115.22 11.58 114.24 11.73 113.75 L 10.80 113.59 C 10.02 111.99 9.20 110.41 8.35 108.85 L 8.87 107.51 C 8.54 107.57 7.89 107.70 7.56 107.76 C 7.53 106.29 7.50 104.82 7.47 103.36 L 6.55 103.84 C 6.66 81.28 6.66 58.71 6.55 36.15 L 7.45 36.67 C 7.50 35.19 7.54 33.71 7.58 32.22 C 7.92 32.29 8.60 32.41 8.94 32.47 L 8.25 31.07 C 8.61 30.55 9.32 29.52 9.67 29.01 C 9.93 28.35 10.44 27.04 10.69 26.38 L 11.74 26.27 C 11.59 25.78 11.30 24.82 11.15 24.34 L 12.61 24.87 L 12.34 23.81 C 14.47 21.62 16.63 19.45 18.82 17.32 L 19.85 17.64 L 19.41 16.01 L 21.18 16.81 C 21.25 16.52 21.38 15.92 21.45 15.62 C 22.70 15.13 23.96 14.64 25.21 14.16 C 25.28 14.03 25.40 13.76 25.47 13.63 M 40.54 45.05 C 41.56 46.11 42.57 47.16 43.59 48.22 C 46.82 46.60 50.23 45.01 53.92 44.99 C 58.46 44.81 62.68 46.96 66.36 49.42 C 68.28 46.69 70.02 43.84 71.72 40.97 C 62.11 34.97 48.08 36.30 40.54 45.05 M 67.19 50.99 C 70.55 54.37 71.33 59.08 71.97 63.59 C 75.74 63.58 79.50 63.62 83.27 63.54 C 84.23 54.94 79.49 46.85 72.92 41.66 C 71.12 44.83 69.25 47.97 67.19 50.99 M 33.74 58.56 C 34.40 58.95 35.73 59.72 36.40 60.11 C 38.05 56.72 38.55 51.72 42.66 50.41 C 42.43 49.83 41.98 48.65 41.75 48.06 C 40.87 47.56 39.97 47.11 39.05 46.69 C 36.38 50.16 34.67 54.30 33.74 58.56 M 42.78 51.16 C 46.51 55.51 49.65 60.31 52.86 65.04 C 53.94 63.99 55.04 62.96 56.20 61.99 C 51.93 57.84 47.60 53.73 43.74 49.19 C 43.41 49.85 43.09 50.51 42.78 51.16 M 55.85 64.87 C 52.84 67.11 56.12 71.14 59.21 70.14 C 59.83 69.02 60.45 67.90 61.07 66.78 C 59.75 65.23 57.92 62.97 55.85 64.87 Z" />
<path fill="#000000" opacity="1.00" d=" M 62.54 41.12 C 64.03 41.45 65.52 41.82 67.01 42.18 C 66.31 43.07 65.61 43.95 64.91 44.84 C 63.90 43.75 63.07 42.51 62.54 41.12 Z" />
<path fill="#000000" opacity="1.00" d=" M 72.84 53.31 C 74.04 52.32 75.23 51.32 76.44 50.33 C 77.00 51.45 77.56 52.57 78.13 53.69 C 76.81 54.28 75.51 54.89 74.20 55.50 C 73.74 54.77 73.29 54.04 72.84 53.31 Z" />
<path fill="#000000" opacity="1.00" d=" M 74.11 59.88 C 75.68 58.74 77.37 57.78 79.04 56.81 C 79.26 57.88 79.50 58.95 79.73 60.02 C 77.86 60.00 75.98 59.97 74.11 59.88 Z" />
</g>
<g id="#f3f7f5ff">
<path fill="#f3f7f5" opacity="1.00" d=" M 27.30 11.69 C 30.51 11.18 33.67 10.23 36.96 10.38 C 51.99 10.40 67.02 10.36 82.05 10.40 C 84.99 10.35 87.80 11.28 90.68 11.69 L 90.23 12.48 C 91.05 12.47 92.69 12.46 93.52 12.46 L 93.47 13.83 C 93.93 13.65 94.87 13.29 95.34 13.11 L 95.40 14.67 C 95.86 14.57 96.79 14.37 97.25 14.27 L 97.41 15.10 C 98.84 15.95 100.21 16.88 101.61 17.79 L 101.36 18.84 L 102.86 18.17 L 102.16 19.20 L 103.31 19.67 L 103.81 20.81 L 104.83 20.17 L 104.17 21.65 L 105.21 21.39 C 106.11 22.79 107.05 24.17 107.90 25.60 L 108.73 25.74 C 108.63 26.21 108.42 27.14 108.32 27.61 L 109.88 27.63 C 109.71 28.11 109.36 29.06 109.19 29.53 L 110.31 29.49 C 110.83 31.46 111.44 33.42 111.75 35.45 C 111.91 35.77 112.25 36.42 112.42 36.75 C 112.86 57.16 112.50 77.59 112.62 98.01 C 112.83 102.32 111.44 106.43 110.27 110.51 L 109.20 110.47 C 109.37 110.95 109.70 111.89 109.87 112.37 L 108.32 112.40 C 108.42 112.86 108.61 113.78 108.70 114.24 L 107.86 114.46 C 107.03 115.87 106.12 117.23 105.23 118.60 L 104.62 118.19 C 104.50 118.66 104.26 119.58 104.14 120.05 C 103.22 120.64 102.29 121.24 101.37 121.83 L 101.57 122.26 C 100.18 123.14 98.81 124.06 97.39 124.89 L 97.26 125.73 C 96.79 125.63 95.85 125.42 95.39 125.32 L 95.37 126.88 C 94.89 126.71 93.94 126.37 93.47 126.19 L 93.52 127.28 C 91.12 128.05 88.70 128.77 86.15 128.74 L 86.70 129.43 C 70.15 129.84 53.59 129.51 37.04 129.62 C 32.71 129.84 28.57 128.46 24.48 127.26 L 24.53 126.18 C 24.05 126.36 23.11 126.71 22.64 126.89 L 22.62 125.33 C 22.15 125.43 21.21 125.63 20.74 125.73 L 20.60 124.90 C 19.17 124.06 17.80 123.12 16.40 122.22 L 16.65 121.20 L 15.18 121.82 L 15.82 120.80 L 14.66 120.32 L 14.21 119.15 L 13.17 119.85 L 13.83 118.36 L 12.76 118.60 C 11.88 117.22 10.96 115.86 10.14 114.45 L 9.29 114.24 C 9.39 113.78 9.59 112.86 9.68 112.40 L 8.14 112.36 C 8.30 111.88 8.63 110.93 8.79 110.46 L 7.71 110.50 C 6.71 106.74 5.33 103.00 5.39 99.05 C 5.37 79.69 5.37 60.33 5.40 40.97 C 5.31 37.00 6.71 33.25 7.74 29.48 L 8.80 29.54 C 8.64 29.07 8.30 28.12 8.13 27.65 L 9.68 27.59 C 9.58 27.13 9.37 26.21 9.26 25.74 L 10.10 25.61 C 10.94 24.17 11.88 22.80 12.79 21.40 L 13.82 21.64 L 13.17 20.17 L 14.20 20.82 L 14.67 19.67 L 15.84 19.21 L 15.15 18.18 L 16.63 18.81 L 16.41 17.77 C 17.78 16.88 19.13 15.96 20.54 15.14 L 20.77 14.28 C 21.23 14.38 22.15 14.57 22.62 14.67 L 22.66 13.10 C 23.13 13.28 24.06 13.65 24.53 13.83 L 24.49 12.45 C 25.31 12.46 26.97 12.48 27.80 12.48 L 27.30 11.69 M 25.47 13.63 C 25.40 13.76 25.28 14.03 25.21 14.16 C 23.96 14.64 22.70 15.13 21.45 15.62 C 21.38 15.92 21.25 16.52 21.18 16.81 L 19.41 16.01 L 19.85 17.64 L 18.82 17.32 C 16.63 19.45 14.47 21.62 12.34 23.81 L 12.61 24.87 L 11.15 24.34 C 11.30 24.82 11.59 25.78 11.74 26.27 L 10.69 26.38 C 10.44 27.04 9.93 28.35 9.67 29.01 C 9.32 29.52 8.61 30.55 8.25 31.07 L 8.94 32.47 C 8.60 32.41 7.92 32.29 7.58 32.22 C 7.54 33.71 7.50 35.19 7.45 36.67 L 6.55 36.15 C 6.66 58.71 6.66 81.28 6.55 103.84 L 7.47 103.36 C 7.50 104.82 7.53 106.29 7.56 107.76 C 7.89 107.70 8.54 107.57 8.87 107.51 L 8.35 108.85 C 9.20 110.41 10.02 111.99 10.80 113.59 L 11.73 113.75 C 11.58 114.24 11.27 115.22 11.12 115.71 L 12.02 115.29 C 13.95 118.05 16.40 120.37 18.83 122.68 L 19.88 122.36 L 19.33 123.85 C 19.80 123.70 20.76 123.42 21.23 123.28 L 21.44 124.22 C 23.00 124.97 24.54 125.75 26.05 126.60 C 26.43 126.49 27.18 126.29 27.56 126.18 L 27.19 127.42 C 28.70 127.45 30.21 127.50 31.72 127.55 L 31.12 128.44 C 49.14 128.28 67.15 128.47 85.17 128.34 C 87.00 127.68 88.94 127.41 90.88 127.22 L 90.41 126.14 C 90.79 126.25 91.54 126.49 91.91 126.61 C 93.45 125.77 95.02 124.97 96.60 124.21 L 96.75 123.26 C 97.23 123.41 98.19 123.72 98.67 123.87 L 98.12 122.38 L 99.18 122.67 C 101.59 120.36 104.04 118.06 105.98 115.31 L 106.86 115.69 C 106.71 115.19 106.40 114.19 106.25 113.69 L 107.16 113.69 C 107.95 112.05 108.79 110.43 109.66 108.83 L 109.10 107.51 C 109.43 107.58 110.10 107.71 110.44 107.78 C 110.46 106.34 110.49 104.89 110.53 103.44 L 111.46 103.73 C 111.24 81.43 111.51 59.12 111.32 36.82 C 110.72 35.35 110.42 33.79 110.18 32.24 C 109.91 32.30 109.37 32.43 109.10 32.50 L 109.66 31.17 C 108.80 29.61 107.98 28.03 107.21 26.42 L 106.27 26.24 C 106.42 25.76 106.71 24.82 106.85 24.34 L 105.37 24.88 L 105.67 23.82 C 103.53 21.61 101.35 19.43 99.14 17.29 L 98.13 17.72 L 98.66 16.16 C 98.18 16.30 97.21 16.59 96.72 16.74 L 96.64 15.78 C 95.12 15.08 93.63 14.34 92.15 13.60 C 90.22 13.05 88.28 12.51 86.30 12.18 L 86.86 11.54 C 68.29 11.67 49.71 11.66 31.14 11.54 L 31.70 12.19 C 29.59 12.54 27.54 13.12 25.47 13.63 Z" />
<path fill="#f3f7f5" opacity="1.00" d=" M 40.54 45.05 C 48.08 36.30 62.11 34.97 71.72 40.97 C 70.02 43.84 68.28 46.69 66.36 49.42 C 62.68 46.96 58.46 44.81 53.92 44.99 C 50.23 45.01 46.82 46.60 43.59 48.22 C 42.57 47.16 41.56 46.11 40.54 45.05 M 62.54 41.12 C 63.07 42.51 63.90 43.75 64.91 44.84 C 65.61 43.95 66.31 43.07 67.01 42.18 C 65.52 41.82 64.03 41.45 62.54 41.12 Z" />
<path fill="#f3f7f5" opacity="1.00" d=" M 67.19 50.99 C 69.25 47.97 71.12 44.83 72.92 41.66 C 79.49 46.85 84.23 54.94 83.27 63.54 C 79.50 63.62 75.74 63.58 71.97 63.59 C 71.33 59.08 70.55 54.37 67.19 50.99 M 72.84 53.31 C 73.29 54.04 73.74 54.77 74.20 55.50 C 75.51 54.89 76.81 54.28 78.13 53.69 C 77.56 52.57 77.00 51.45 76.44 50.33 C 75.23 51.32 74.04 52.32 72.84 53.31 M 74.11 59.88 C 75.98 59.97 77.86 60.00 79.73 60.02 C 79.50 58.95 79.26 57.88 79.04 56.81 C 77.37 57.78 75.68 58.74 74.11 59.88 Z" />
<path fill="#f3f7f5" opacity="1.00" d=" M 33.74 58.56 C 34.67 54.30 36.38 50.16 39.05 46.69 C 39.97 47.11 40.87 47.56 41.75 48.06 C 41.98 48.65 42.43 49.83 42.66 50.41 C 38.55 51.72 38.05 56.72 36.40 60.11 C 35.73 59.72 34.40 58.95 33.74 58.56 Z" />
<path fill="#f3f7f5" opacity="1.00" d=" M 42.78 51.16 C 43.09 50.51 43.41 49.85 43.74 49.19 C 47.60 53.73 51.93 57.84 56.20 61.99 C 55.04 62.96 53.94 63.99 52.86 65.04 C 49.65 60.31 46.51 55.51 42.78 51.16 Z" />
<path fill="#f3f7f5" opacity="1.00" d=" M 55.85 64.87 C 57.92 62.97 59.75 65.23 61.07 66.78 C 60.45 67.90 59.83 69.02 59.21 70.14 C 56.12 71.14 52.84 67.11 55.85 64.87 Z" />
</g>
</svg>
