<?xml version="1.0" encoding="UTF-8" ?>
<!DOCTYPE svg PUBLIC "-//W3C//DTD SVG 1.1//EN" "http://www.w3.org/Graphics/SVG/1.1/DTD/svg11.dtd">
<svg width="117px" height="140px" viewBox="0 0 117 140" version="1.1" xmlns="http://www.w3.org/2000/svg">
<g id="#000000ff">
<path fill="#000000" opacity="1.00" d=" M 0.00 0.00 L 117.00 0.00 L 117.00 140.00 L 0.00 140.00 L 0.00 0.00 M 24.43 12.76 L 24.53 13.83 C 24.06 13.64 23.11 13.27 22.64 13.09 L 22.64 14.63 C 22.17 14.55 21.24 14.38 20.77 14.30 L 20.49 15.05 C 19.24 15.83 18.09 16.76 16.96 17.71 C 16.49 17.93 15.56 18.39 15.10 18.62 L 15.52 18.92 C 14.66 19.75 13.81 20.59 12.99 21.46 L 12.78 21.40 C 11.89 22.78 10.96 24.12 10.11 25.52 L 9.29 25.77 C 9.38 26.23 9.56 27.16 9.65 27.62 L 8.13 27.63 C 8.29 28.10 8.62 29.06 8.78 29.54 L 7.73 29.47 C 6.67 33.22 5.29 36.97 5.39 40.92 C 5.36 60.28 5.37 79.64 5.39 99.00 C 5.28 102.99 6.66 106.77 7.74 110.54 L 8.80 110.47 C 8.63 110.94 8.28 111.90 8.11 112.37 L 9.64 112.37 C 9.56 112.83 9.38 113.76 9.30 114.23 L 10.11 114.49 C 10.97 115.90 11.92 117.26 12.83 118.65 L 13.96 118.23 L 12.95 119.71 L 13.91 119.41 C 14.74 120.28 15.59 121.15 16.46 122.00 L 16.41 122.23 C 17.78 123.12 19.12 124.04 20.52 124.89 L 20.77 125.71 C 21.23 125.62 22.16 125.45 22.63 125.36 L 22.63 126.91 C 23.11 126.73 24.06 126.37 24.53 126.19 L 24.49 127.55 C 25.40 127.56 27.21 127.57 28.12 127.57 L 27.07 128.26 C 30.35 128.85 33.60 129.77 36.97 129.63 C 53.57 129.51 70.17 129.86 86.76 129.43 L 86.07 128.77 C 88.63 128.73 91.10 128.10 93.52 127.31 L 93.48 126.20 C 93.95 126.37 94.89 126.72 95.36 126.89 L 95.39 125.34 C 95.85 125.44 96.78 125.63 97.24 125.73 L 97.43 124.91 C 98.86 124.05 100.24 123.10 101.65 122.19 L 101.20 121.11 L 102.67 121.98 L 102.44 121.09 C 103.31 120.26 104.17 119.42 105.00 118.56 L 105.23 118.59 C 106.12 117.22 107.04 115.88 107.89 114.48 L 108.70 114.23 C 108.62 113.76 108.45 112.83 108.36 112.37 L 109.91 112.37 C 109.73 111.89 109.37 110.94 109.18 110.46 L 110.56 110.51 C 110.56 109.63 110.56 107.87 110.56 106.99 L 111.26 107.90 C 111.92 104.63 112.75 101.37 112.63 98.01 C 112.61 79.01 112.65 60.02 112.61 41.02 C 112.71 37.03 111.34 33.23 110.26 29.45 L 109.19 29.53 C 109.37 29.06 109.72 28.11 109.89 27.63 L 108.36 27.63 C 108.45 27.16 108.62 26.22 108.71 25.75 L 107.91 25.55 C 107.06 24.15 106.13 22.81 105.23 21.44 L 105.02 21.41 C 104.17 20.56 103.31 19.72 102.43 18.91 L 102.66 17.97 L 101.19 18.96 L 101.66 17.83 C 100.25 16.91 98.87 15.95 97.42 15.09 L 97.26 14.27 C 96.79 14.37 95.86 14.56 95.39 14.66 L 95.35 13.10 C 94.88 13.28 93.92 13.63 93.45 13.81 L 93.53 12.47 C 92.65 12.46 90.87 12.44 89.99 12.43 L 90.87 11.74 C 87.60 11.11 84.35 10.25 81.00 10.37 C 65.99 10.39 50.97 10.35 35.96 10.39 C 31.98 10.32 28.20 11.67 24.43 12.76 Z" />
<path fill="#000000" opacity="1.00" d=" M 27.15 12.60 C 28.68 12.56 30.21 12.50 31.74 12.45 L 31.10 11.57 C 48.77 11.70 66.44 11.59 84.11 11.62 C 87.07 11.68 89.78 13.09 92.63 13.75 L 92.70 14.13 C 94.01 14.63 95.31 15.16 96.61 15.67 L 96.69 16.69 C 97.19 16.58 98.19 16.36 98.69 16.25 L 98.08 17.83 L 99.10 17.27 C 101.36 19.43 103.56 21.64 105.73 23.90 L 105.18 24.93 L 106.76 24.30 C 106.65 24.80 106.42 25.80 106.31 26.30 L 107.17 26.37 C 107.95 27.96 108.76 29.53 109.59 31.09 C 109.49 31.48 109.30 32.25 109.20 32.64 L 110.20 32.09 C 110.43 34.77 111.40 37.34 111.38 40.04 C 111.38 60.04 111.35 80.05 111.40 100.05 C 111.64 103.57 110.01 106.80 108.93 110.06 C 108.35 111.23 107.79 112.42 107.24 113.61 L 106.33 113.70 C 106.43 114.20 106.63 115.20 106.73 115.70 L 105.12 115.08 L 105.74 116.09 C 103.57 118.35 101.36 120.57 99.09 122.74 L 98.09 122.16 L 98.69 123.76 C 98.19 123.64 97.20 123.42 96.71 123.31 L 96.63 124.17 C 95.03 124.95 93.45 125.76 91.89 126.61 C 91.51 126.48 90.74 126.20 90.36 126.06 L 90.91 127.21 C 88.25 127.39 85.70 128.31 83.04 128.37 C 65.72 128.43 48.39 128.28 31.07 128.44 L 31.74 127.83 C 29.58 127.44 27.48 126.85 25.36 126.32 L 25.28 125.86 C 23.99 125.37 22.71 124.85 21.43 124.35 L 21.28 123.33 C 20.78 123.43 19.79 123.63 19.29 123.73 L 19.93 122.14 L 18.91 122.74 C 16.64 120.56 14.42 118.34 12.24 116.07 L 12.90 115.07 L 11.26 115.69 C 11.36 115.20 11.57 114.22 11.67 113.73 L 10.81 113.57 C 10.04 112.01 9.24 110.46 8.41 108.94 C 8.51 108.54 8.69 107.74 8.78 107.34 L 7.63 107.95 C 7.57 106.39 7.50 104.83 7.43 103.28 L 6.56 103.87 C 6.67 81.28 6.66 58.70 6.57 36.11 L 7.44 36.72 C 7.50 35.18 7.56 33.65 7.62 32.11 L 8.76 32.62 C 8.68 32.23 8.50 31.45 8.42 31.06 C 9.26 29.52 10.05 27.96 10.82 26.38 L 11.70 26.30 C 11.58 25.80 11.35 24.80 11.23 24.31 L 12.84 24.92 L 12.26 23.91 C 14.44 21.64 16.66 19.42 18.93 17.24 L 19.92 17.92 L 19.30 16.28 C 19.81 16.38 20.82 16.57 21.32 16.67 L 21.39 15.83 C 22.97 15.05 24.53 14.24 26.08 13.41 C 26.46 13.52 27.22 13.74 27.61 13.84 L 27.15 12.60 M 53.63 46.85 C 53.32 46.53 52.71 45.88 52.40 45.56 C 51.56 45.58 49.88 45.62 49.04 45.65 C 43.86 50.50 42.69 57.78 40.33 64.16 C 39.22 68.23 36.32 72.96 39.12 76.95 C 40.83 79.99 44.81 80.18 47.83 79.45 C 53.76 77.34 59.91 75.80 65.63 73.16 C 68.78 71.14 73.62 68.21 71.63 63.79 C 76.98 62.45 81.23 58.96 84.93 55.04 C 77.61 47.27 69.83 39.94 62.38 32.29 C 57.83 36.03 55.45 41.39 53.63 46.85 Z" />
<path fill="#000000" opacity="1.00" d=" M 55.17 52.39 C 57.10 46.92 58.14 40.81 62.27 36.47 C 68.44 42.83 74.86 48.96 81.00 55.37 C 78.06 58.73 73.81 59.91 69.79 61.41 C 68.32 61.62 66.86 61.84 65.40 62.07 C 66.62 63.82 68.06 65.39 69.45 67.00 C 67.89 68.23 66.46 69.67 64.71 70.64 C 58.07 72.90 51.41 75.09 44.77 77.37 C 43.46 76.56 42.01 75.87 41.02 74.64 C 40.52 70.94 42.62 67.66 43.47 64.19 C 45.58 58.71 46.48 52.44 50.76 48.09 C 52.24 49.52 53.70 50.96 55.17 52.39 Z" />
</g>
<g id="#eef3f3ff">
<path fill="#eef3f3" opacity="1.00" d=" M 24.43 12.76 C 28.20 11.67 31.98 10.32 35.96 10.39 C 50.97 10.35 65.99 10.39 81.00 10.37 C 84.35 10.25 87.60 11.11 90.87 11.74 L 89.99 12.43 C 90.87 12.44 92.65 12.46 93.53 12.47 L 93.45 13.81 C 93.92 13.63 94.88 13.28 95.35 13.10 L 95.39 14.66 C 95.86 14.56 96.79 14.37 97.26 14.27 L 97.42 15.09 C 98.87 15.95 100.25 16.91 101.66 17.83 L 101.19 18.96 L 102.66 17.97 L 102.43 18.91 C 103.31 19.72 104.17 20.56 105.02 21.41 L 105.23 21.44 C 106.13 22.81 107.06 24.15 107.91 25.55 L 108.71 25.75 C 108.62 26.22 108.45 27.16 108.36 27.63 L 109.89 27.63 C 109.72 28.11 109.37 29.06 109.19 29.53 L 110.26 29.45 C 111.34 33.23 112.71 37.03 112.61 41.02 C 112.65 60.02 112.61 79.01 112.63 98.01 C 112.75 101.37 111.92 104.63 111.26 107.90 L 110.56 106.99 C 110.56 107.87 110.56 109.63 110.56 110.51 L 109.18 110.46 C 109.37 110.94 109.73 111.89 109.91 112.37 L 108.36 112.37 C 108.45 112.83 108.62 113.76 108.70 114.23 L 107.89 114.48 C 107.04 115.88 106.12 117.22 105.23 118.59 L 105.00 118.56 C 104.17 119.42 103.31 120.26 102.44 121.09 L 102.67 121.98 L 101.20 121.11 L 101.65 122.19 C 100.24 123.10 98.86 124.05 97.43 124.91 L 97.24 125.73 C 96.78 125.63 95.85 125.44 95.39 125.34 L 95.36 126.89 C 94.89 126.72 93.95 126.37 93.48 126.20 L 93.52 127.31 C 91.10 128.10 88.63 128.73 86.07 128.77 L 86.76 129.43 C 70.17 129.86 53.57 129.51 36.97 129.63 C 33.60 129.77 30.35 128.85 27.07 128.26 L 28.12 127.57 C 27.21 127.57 25.40 127.56 24.49 127.55 L 24.53 126.19 C 24.06 126.37 23.11 126.73 22.63 126.91 L 22.63 125.36 C 22.16 125.45 21.23 125.62 20.77 125.71 L 20.52 124.89 C 19.12 124.04 17.78 123.12 16.41 122.23 L 16.46 122.00 C 15.59 121.15 14.74 120.28 13.91 119.41 L 12.95 119.71 L 13.96 118.23 L 12.83 118.65 C 11.92 117.26 10.97 115.90 10.11 114.49 L 9.30 114.23 C 9.38 113.76 9.56 112.83 9.64 112.37 L 8.11 112.37 C 8.28 111.90 8.63 110.94 8.80 110.47 L 7.74 110.54 C 6.66 106.77 5.28 102.99 5.39 99.00 C 5.37 79.64 5.36 60.28 5.39 40.92 C 5.29 36.97 6.67 33.22 7.73 29.47 L 8.78 29.54 C 8.62 29.06 8.29 28.10 8.13 27.63 L 9.65 27.62 C 9.56 27.16 9.38 26.23 9.29 25.77 L 10.11 25.52 C 10.96 24.12 11.89 22.78 12.78 21.40 L 12.99 21.46 C 13.81 20.59 14.66 19.75 15.52 18.92 L 15.10 18.62 C 15.56 18.39 16.49 17.93 16.96 17.71 C 18.09 16.76 19.24 15.83 20.49 15.05 L 20.77 14.30 C 21.24 14.38 22.17 14.55 22.64 14.63 L 22.64 13.09 C 23.11 13.27 24.06 13.64 24.53 13.83 L 24.43 12.76 M 27.15 12.60 L 27.61 13.84 C 27.22 13.74 26.46 13.52 26.08 13.41 C 24.53 14.24 22.97 15.05 21.39 15.83 L 21.32 16.67 C 20.82 16.57 19.81 16.38 19.30 16.28 L 19.92 17.92 L 18.93 17.24 C 16.66 19.42 14.44 21.64 12.26 23.91 L 12.84 24.92 L 11.23 24.31 C 11.35 24.80 11.58 25.80 11.70 26.30 L 10.82 26.38 C 10.05 27.96 9.26 29.52 8.42 31.06 C 8.50 31.45 8.68 32.23 8.76 32.62 L 7.62 32.11 C 7.56 33.65 7.50 35.18 7.44 36.72 L 6.57 36.11 C 6.66 58.70 6.67 81.28 6.56 103.87 L 7.43 103.28 C 7.50 104.83 7.57 106.39 7.63 107.95 L 8.78 107.34 C 8.69 107.74 8.51 108.54 8.41 108.94 C 9.24 110.46 10.04 112.01 10.81 113.57 L 11.67 113.73 C 11.57 114.22 11.36 115.20 11.26 115.69 L 12.90 115.07 L 12.24 116.07 C 14.42 118.34 16.64 120.56 18.91 122.74 L 19.93 122.14 L 19.29 123.73 C 19.79 123.63 20.78 123.43 21.28 123.33 L 21.43 124.35 C 22.71 124.85 23.99 125.37 25.28 125.86 L 25.36 126.32 C 27.48 126.85 29.58 127.44 31.74 127.83 L 31.07 128.44 C 48.39 128.28 65.72 128.43 83.04 128.37 C 85.70 128.31 88.25 127.39 90.91 127.21 L 90.36 126.06 C 90.74 126.20 91.51 126.48 91.89 126.61 C 93.45 125.76 95.03 124.95 96.63 124.17 L 96.71 123.31 C 97.20 123.42 98.19 123.64 98.69 123.76 L 98.09 122.16 L 99.09 122.74 C 101.36 120.57 103.57 118.35 105.74 116.09 L 105.12 115.08 L 106.73 115.70 C 106.63 115.20 106.43 114.20 106.33 113.70 L 107.24 113.61 C 107.79 112.42 108.35 111.23 108.93 110.06 C 110.01 106.80 111.64 103.57 111.40 100.05 C 111.35 80.05 111.38 60.04 111.38 40.04 C 111.40 37.34 110.43 34.77 110.20 32.09 L 109.20 32.64 C 109.30 32.25 109.49 31.48 109.59 31.09 C 108.76 29.53 107.95 27.96 107.17 26.37 L 106.31 26.30 C 106.42 25.80 106.65 24.80 106.76 24.30 L 105.18 24.93 L 105.73 23.90 C 103.56 21.64 101.36 19.43 99.10 17.27 L 98.08 17.83 L 98.69 16.25 C 98.19 16.36 97.19 16.58 96.69 16.69 L 96.61 15.67 C 95.31 15.16 94.01 14.63 92.70 14.13 L 92.63 13.75 C 89.78 13.09 87.07 11.68 84.11 11.62 C 66.44 11.59 48.77 11.70 31.10 11.57 L 31.74 12.45 C 30.21 12.50 28.68 12.56 27.15 12.60 Z" />
<path fill="#eef3f3" opacity="1.00" d=" M 53.63 46.85 C 55.45 41.39 57.83 36.03 62.38 32.29 C 69.83 39.94 77.61 47.27 84.93 55.04 C 81.23 58.96 76.98 62.45 71.63 63.79 C 73.62 68.21 68.78 71.14 65.63 73.16 C 59.91 75.80 53.76 77.34 47.83 79.45 C 44.81 80.18 40.83 79.99 39.12 76.95 C 36.32 72.96 39.22 68.23 40.33 64.16 C 42.69 57.78 43.86 50.50 49.04 45.65 C 49.88 45.62 51.56 45.58 52.40 45.56 C 52.71 45.88 53.32 46.53 53.63 46.85 M 55.17 52.39 C 53.70 50.96 52.24 49.52 50.76 48.09 C 46.48 52.44 45.58 58.71 43.47 64.19 C 42.62 67.66 40.52 70.94 41.02 74.64 C 42.01 75.87 43.46 76.56 44.77 77.37 C 51.41 75.09 58.07 72.90 64.71 70.64 C 66.46 69.67 67.89 68.23 69.45 67.00 C 68.06 65.39 66.62 63.82 65.40 62.07 C 66.86 61.84 68.32 61.62 69.79 61.41 C 73.81 59.91 78.06 58.73 81.00 55.37 C 74.86 48.96 68.44 42.83 62.27 36.47 C 58.14 40.81 57.10 46.92 55.17 52.39 Z" />
</g>
</svg>
