<?xml version="1.0" encoding="UTF-8" ?>
<!DOCTYPE svg PUBLIC "-//W3C//DTD SVG 1.1//EN" "http://www.w3.org/Graphics/SVG/1.1/DTD/svg11.dtd">
<svg width="117px" height="140px" viewBox="0 0 117 140" version="1.1" xmlns="http://www.w3.org/2000/svg">
<g id="#000000ff">
<path fill="#000000" opacity="1.00" d=" M 0.00 0.00 L 117.00 0.00 L 117.00 140.00 L 0.00 140.00 L 0.00 0.00 M 31.33 11.19 C 29.00 11.41 26.75 12.02 24.52 12.67 L 24.53 13.79 C 24.06 13.63 23.12 13.31 22.65 13.15 L 22.61 14.68 C 22.14 14.58 21.21 14.38 20.75 14.28 L 20.56 15.27 C 19.08 15.95 17.75 16.89 16.41 17.79 L 16.69 18.74 L 15.31 18.27 L 15.63 19.79 L 14.15 19.23 L 14.82 20.71 L 13.24 20.21 L 13.82 21.65 L 12.84 21.40 C 11.92 22.75 10.89 24.05 10.27 25.57 L 9.30 25.74 C 9.39 26.21 9.56 27.16 9.65 27.63 L 8.11 27.65 C 8.30 28.13 8.66 29.08 8.85 29.55 L 7.47 29.45 C 7.47 30.33 7.47 32.10 7.47 32.99 L 6.45 32.17 C 6.47 33.76 6.48 35.36 6.50 36.96 L 5.60 36.20 C 5.26 58.71 5.27 81.25 5.59 103.77 L 6.51 103.07 C 6.48 104.65 6.47 106.22 6.44 107.80 L 7.49 107.06 C 7.48 107.92 7.44 109.65 7.43 110.52 L 8.82 110.45 C 8.65 110.92 8.31 111.85 8.14 112.32 L 9.76 112.47 L 9.20 114.13 C 9.48 114.23 10.05 114.42 10.33 114.51 C 10.93 116.00 11.93 117.27 12.83 118.59 L 13.79 118.36 L 13.31 119.79 L 14.88 119.35 L 14.16 120.85 L 15.69 120.16 L 15.23 121.70 L 16.64 121.25 L 16.43 122.20 C 18.09 123.17 19.66 124.31 21.06 125.63 C 21.46 125.56 22.26 125.42 22.66 125.36 L 22.62 126.87 C 23.10 126.70 24.07 126.35 24.56 126.18 L 24.47 127.53 C 25.33 127.53 27.07 127.53 27.94 127.53 L 27.23 128.40 C 30.17 128.56 32.97 129.68 35.93 129.60 C 50.60 129.63 65.27 129.59 79.94 129.62 C 84.57 129.82 89.05 128.48 93.49 127.34 L 93.45 126.22 C 93.93 126.37 94.90 126.69 95.39 126.84 L 95.36 125.33 C 95.83 125.43 96.79 125.61 97.26 125.71 L 97.42 124.77 C 98.91 124.09 100.23 123.09 101.58 122.19 L 101.41 121.11 L 102.79 121.76 L 102.34 120.15 L 103.94 120.79 L 103.14 119.14 L 104.86 119.86 L 104.04 118.46 L 105.16 118.58 C 106.08 117.23 107.11 115.93 107.77 114.42 L 108.68 114.27 C 108.60 113.79 108.43 112.83 108.34 112.35 L 109.87 112.38 C 109.70 111.90 109.36 110.94 109.19 110.47 L 110.56 110.50 C 110.55 109.63 110.53 107.89 110.52 107.02 L 111.58 107.81 C 111.54 106.25 111.49 104.68 111.44 103.12 L 112.39 103.85 C 112.87 83.25 112.48 62.64 112.61 42.03 C 112.85 38.67 111.63 35.49 111.38 32.17 L 110.53 32.99 C 110.54 32.12 110.54 30.36 110.55 29.49 L 109.19 29.55 C 109.36 29.07 109.70 28.11 109.87 27.63 L 108.34 27.64 C 108.43 27.17 108.61 26.22 108.71 25.74 L 107.74 25.58 C 107.09 24.07 106.10 22.75 105.18 21.40 L 104.11 21.59 L 104.73 20.15 L 103.13 20.70 L 103.84 19.12 L 102.21 19.84 L 102.83 18.15 L 101.47 18.95 L 101.57 17.82 C 99.91 16.84 98.35 15.69 96.95 14.35 C 96.56 14.43 95.78 14.59 95.39 14.67 L 95.35 13.15 C 94.88 13.31 93.94 13.63 93.47 13.79 L 93.49 12.67 C 91.26 12.01 89.00 11.41 86.67 11.19 C 84.26 10.16 81.59 10.41 79.03 10.38 C 64.68 10.40 50.32 10.39 35.97 10.39 C 34.38 10.36 32.80 10.59 31.33 11.19 Z" />
<path fill="#000000" opacity="1.00" d=" M 32.20 11.49 C 50.06 11.68 67.93 11.70 85.79 11.48 C 85.68 11.71 85.46 12.15 85.35 12.37 C 87.20 12.46 89.05 12.54 90.90 12.59 L 90.39 14.04 C 90.89 13.80 91.87 13.33 92.36 13.09 L 92.66 14.59 C 93.02 14.54 93.75 14.44 94.11 14.39 C 94.90 15.10 95.82 15.61 96.85 15.93 C 97.80 16.70 98.75 17.48 99.76 18.19 C 101.79 19.66 103.63 21.39 104.90 23.57 L 105.97 23.47 L 105.09 24.86 L 106.75 24.29 C 106.63 24.81 106.40 25.84 106.29 26.36 L 107.71 26.46 C 107.64 26.92 107.50 27.85 107.43 28.31 L 108.77 28.54 C 108.66 28.99 108.46 29.90 108.35 30.35 L 109.38 30.38 C 109.90 32.50 110.46 34.62 110.70 36.79 L 111.48 36.09 C 111.28 57.44 111.44 78.79 111.40 100.14 C 111.46 103.43 109.73 106.39 109.43 109.64 L 108.37 109.64 C 108.46 110.10 108.65 111.01 108.75 111.46 L 107.45 111.71 C 107.51 112.17 107.63 113.08 107.69 113.54 L 106.30 113.64 C 106.41 114.16 106.64 115.21 106.75 115.74 L 105.07 115.09 L 106.00 116.51 L 104.92 116.41 C 103.56 118.65 101.71 120.55 99.46 121.89 L 99.51 122.93 L 98.09 122.13 L 98.75 123.74 C 98.22 123.63 97.18 123.42 96.65 123.31 L 96.47 124.80 L 94.80 124.36 C 94.72 124.70 94.56 125.37 94.48 125.70 C 94.02 125.63 93.09 125.49 92.63 125.42 L 92.38 126.92 C 91.89 126.68 90.90 126.19 90.41 125.95 L 90.88 127.34 C 88.99 127.45 87.01 127.40 85.30 128.33 C 67.22 128.52 49.14 128.25 31.06 128.47 L 31.84 127.69 C 29.64 127.46 27.50 126.89 25.35 126.38 L 25.34 125.33 C 24.98 125.42 24.27 125.58 23.91 125.67 C 22.16 124.44 20.37 123.24 18.45 122.30 L 18.50 121.85 C 16.26 120.53 14.43 118.65 13.09 116.43 L 12.01 116.50 L 12.93 115.08 L 11.27 115.75 C 11.37 115.22 11.58 114.16 11.69 113.63 L 10.30 113.53 C 10.36 113.07 10.50 112.15 10.57 111.69 L 9.24 111.47 C 9.34 111.01 9.54 110.10 9.64 109.65 L 8.61 109.63 C 8.05 107.22 7.41 104.81 7.20 102.33 L 6.47 102.86 C 6.71 80.94 6.68 59.02 6.48 37.10 L 7.20 37.70 C 7.40 35.21 8.04 32.79 8.61 30.37 L 9.64 30.35 C 9.55 29.89 9.36 28.98 9.27 28.52 L 10.58 28.29 C 10.50 27.83 10.36 26.92 10.28 26.46 L 11.69 26.37 C 11.59 25.85 11.38 24.82 11.27 24.30 L 12.96 24.79 L 12.00 23.43 L 13.09 23.61 C 14.43 21.34 16.30 19.43 18.59 18.09 L 18.47 16.98 L 19.89 17.96 L 19.26 16.28 C 19.78 16.38 20.84 16.59 21.37 16.69 L 21.48 15.27 C 21.93 15.35 22.84 15.51 23.29 15.59 L 23.47 14.33 C 23.95 14.38 24.91 14.49 25.39 14.55 L 25.62 13.07 C 26.11 13.31 27.10 13.80 27.59 14.05 L 27.12 12.58 C 28.96 12.53 30.81 12.46 32.65 12.38 C 32.54 12.15 32.31 11.71 32.20 11.49 M 60.36 28.56 C 59.96 32.93 60.27 37.33 60.38 41.71 C 55.36 42.05 51.03 45.56 49.80 50.45 C 45.89 50.55 41.97 50.29 38.07 50.49 C 37.01 50.49 36.44 51.03 36.35 52.11 C 35.39 65.08 48.43 78.15 61.63 74.55 C 61.55 70.56 61.59 66.58 61.58 62.60 C 66.95 61.81 70.76 57.19 71.36 51.93 C 75.72 51.70 80.10 51.82 84.47 51.67 C 80.09 50.72 75.59 51.36 71.16 51.42 C 70.38 46.19 66.05 42.38 60.93 41.60 C 60.67 37.26 61.09 32.86 60.36 28.56 Z" />
<path fill="#000000" opacity="1.00" d=" M 52.92 45.95 C 56.92 42.24 63.29 41.87 67.42 45.58 C 70.91 49.49 70.87 56.26 66.45 59.45 C 61.88 63.11 54.37 61.62 51.78 56.29 C 50.15 52.93 50.95 48.97 52.92 45.95 Z" />
</g>
<g id="#f7fbf8ff">
<path fill="#f7fbf8" opacity="1.00" d=" M 31.33 11.19 C 32.80 10.59 34.38 10.36 35.97 10.39 C 50.32 10.39 64.68 10.40 79.03 10.38 C 81.59 10.41 84.26 10.16 86.67 11.19 C 89.00 11.41 91.26 12.01 93.49 12.67 L 93.47 13.79 C 93.94 13.63 94.88 13.31 95.35 13.15 L 95.39 14.67 C 95.78 14.59 96.56 14.43 96.95 14.35 C 98.35 15.69 99.91 16.84 101.57 17.82 L 101.47 18.95 L 102.83 18.15 L 102.21 19.84 L 103.84 19.12 L 103.13 20.70 L 104.73 20.15 L 104.11 21.59 L 105.18 21.40 C 106.10 22.75 107.09 24.07 107.74 25.58 L 108.71 25.74 C 108.61 26.22 108.43 27.17 108.34 27.64 L 109.87 27.63 C 109.70 28.11 109.36 29.07 109.19 29.55 L 110.55 29.49 C 110.54 30.36 110.54 32.12 110.53 32.99 L 111.38 32.17 C 111.63 35.49 112.85 38.67 112.61 42.03 C 112.48 62.64 112.87 83.25 112.39 103.85 L 111.44 103.12 C 111.49 104.68 111.54 106.25 111.58 107.81 L 110.52 107.02 C 110.53 107.89 110.55 109.63 110.56 110.50 L 109.19 110.47 C 109.36 110.94 109.70 111.90 109.87 112.38 L 108.34 112.35 C 108.43 112.83 108.60 113.79 108.68 114.27 L 107.77 114.42 C 107.11 115.93 106.08 117.23 105.16 118.58 L 104.04 118.46 L 104.86 119.86 L 103.14 119.14 L 103.94 120.79 L 102.34 120.15 L 102.79 121.76 L 101.41 121.11 L 101.58 122.19 C 100.23 123.09 98.91 124.09 97.42 124.77 L 97.26 125.71 C 96.79 125.61 95.83 125.43 95.36 125.33 L 95.39 126.84 C 94.90 126.69 93.93 126.37 93.45 126.22 L 93.49 127.34 C 89.05 128.48 84.57 129.82 79.94 129.62 C 65.27 129.59 50.60 129.63 35.93 129.60 C 32.97 129.68 30.17 128.56 27.23 128.40 L 27.94 127.53 C 27.07 127.53 25.33 127.53 24.47 127.53 L 24.56 126.18 C 24.07 126.35 23.10 126.70 22.62 126.87 L 22.66 125.36 C 22.26 125.42 21.46 125.56 21.06 125.63 C 19.66 124.31 18.09 123.17 16.43 122.20 L 16.64 121.25 L 15.23 121.70 L 15.69 120.16 L 14.16 120.85 L 14.88 119.35 L 13.31 119.79 L 13.79 118.36 L 12.83 118.59 C 11.93 117.27 10.93 116.00 10.33 114.51 C 10.05 114.42 9.48 114.23 9.20 114.13 L 9.76 112.47 L 8.14 112.32 C 8.31 111.85 8.65 110.92 8.82 110.45 L 7.43 110.52 C 7.44 109.65 7.48 107.92 7.49 107.06 L 6.44 107.80 C 6.47 106.22 6.48 104.65 6.51 103.07 L 5.59 103.77 C 5.27 81.25 5.26 58.71 5.60 36.20 L 6.50 36.96 C 6.48 35.36 6.47 33.76 6.45 32.17 L 7.47 32.99 C 7.47 32.10 7.47 30.33 7.47 29.45 L 8.85 29.55 C 8.66 29.08 8.30 28.13 8.11 27.65 L 9.65 27.63 C 9.56 27.16 9.39 26.21 9.30 25.74 L 10.27 25.57 C 10.89 24.05 11.92 22.75 12.84 21.40 L 13.82 21.65 L 13.24 20.21 L 14.82 20.71 L 14.15 19.23 L 15.63 19.79 L 15.31 18.27 L 16.69 18.74 L 16.41 17.79 C 17.75 16.89 19.08 15.95 20.56 15.27 L 20.75 14.28 C 21.21 14.38 22.14 14.58 22.61 14.68 L 22.65 13.15 C 23.12 13.31 24.06 13.63 24.53 13.79 L 24.52 12.67 C 26.75 12.02 29.00 11.41 31.33 11.19 M 32.20 11.49 C 32.31 11.71 32.54 12.15 32.65 12.38 C 30.81 12.46 28.96 12.53 27.12 12.58 L 27.59 14.05 C 27.10 13.80 26.11 13.31 25.62 13.07 L 25.39 14.55 C 24.91 14.49 23.95 14.38 23.47 14.33 L 23.29 15.59 C 22.84 15.51 21.93 15.35 21.48 15.27 L 21.37 16.69 C 20.84 16.59 19.78 16.38 19.26 16.28 L 19.89 17.96 L 18.47 16.98 L 18.59 18.09 C 16.30 19.43 14.43 21.34 13.09 23.61 L 12.00 23.43 L 12.96 24.79 L 11.27 24.30 C 11.38 24.82 11.59 25.85 11.69 26.37 L 10.28 26.46 C 10.36 26.92 10.50 27.83 10.58 28.29 L 9.27 28.52 C 9.36 28.98 9.55 29.89 9.64 30.35 L 8.61 30.37 C 8.04 32.79 7.40 35.21 7.20 37.70 L 6.48 37.10 C 6.68 59.02 6.71 80.94 6.47 102.86 L 7.20 102.33 C 7.41 104.81 8.05 107.22 8.61 109.63 L 9.64 109.65 C 9.54 110.10 9.34 111.01 9.24 111.47 L 10.57 111.69 C 10.50 112.15 10.36 113.07 10.30 113.53 L 11.69 113.63 C 11.58 114.16 11.37 115.22 11.27 115.75 L 12.93 115.08 L 12.01 116.50 L 13.09 116.43 C 14.43 118.65 16.26 120.53 18.50 121.85 L 18.45 122.30 C 20.37 123.24 22.16 124.44 23.91 125.67 C 24.27 125.58 24.98 125.42 25.34 125.33 L 25.35 126.38 C 27.50 126.89 29.64 127.46 31.84 127.69 L 31.06 128.47 C 49.14 128.25 67.22 128.52 85.30 128.33 C 87.01 127.40 88.99 127.45 90.88 127.34 L 90.41 125.95 C 90.90 126.19 91.89 126.68 92.38 126.92 L 92.63 125.42 C 93.09 125.49 94.02 125.63 94.48 125.70 C 94.56 125.37 94.72 124.70 94.80 124.36 L 96.47 124.80 L 96.65 123.31 C 97.18 123.42 98.22 123.63 98.75 123.74 L 98.09 122.13 L 99.51 122.93 L 99.46 121.89 C 101.71 120.55 103.56 118.65 104.92 116.41 L 106.00 116.51 L 105.07 115.09 L 106.75 115.74 C 106.64 115.21 106.41 114.16 106.30 113.64 L 107.69 113.54 C 107.63 113.08 107.51 112.17 107.45 111.71 L 108.75 111.46 C 108.65 111.01 108.46 110.10 108.37 109.64 L 109.43 109.64 C 109.73 106.39 111.46 103.43 111.40 100.14 C 111.44 78.79 111.28 57.44 111.48 36.09 L 110.70 36.79 C 110.46 34.62 109.90 32.50 109.38 30.38 L 108.35 30.35 C 108.46 29.90 108.66 28.99 108.77 28.54 L 107.43 28.31 C 107.50 27.85 107.64 26.92 107.71 26.46 L 106.29 26.36 C 106.40 25.84 106.63 24.81 106.75 24.29 L 105.09 24.86 L 105.97 23.47 L 104.90 23.57 C 103.63 21.39 101.79 19.66 99.76 18.19 C 98.75 17.48 97.80 16.70 96.85 15.93 C 95.82 15.61 94.90 15.10 94.11 14.39 C 93.75 14.44 93.02 14.54 92.66 14.59 L 92.36 13.09 C 91.87 13.33 90.89 13.80 90.39 14.04 L 90.90 12.59 C 89.05 12.54 87.20 12.46 85.35 12.37 C 85.46 12.15 85.68 11.71 85.79 11.48 C 67.93 11.70 50.06 11.68 32.20 11.49 Z" />
<path fill="#f7fbf8" opacity="1.00" d=" M 60.36 28.56 C 61.09 32.86 60.67 37.26 60.93 41.60 C 66.05 42.38 70.38 46.19 71.16 51.42 C 75.59 51.36 80.09 50.72 84.47 51.67 C 80.10 51.82 75.72 51.70 71.36 51.93 C 70.76 57.19 66.95 61.81 61.58 62.60 C 61.59 66.58 61.55 70.56 61.63 74.55 C 48.43 78.15 35.39 65.08 36.35 52.11 C 36.44 51.03 37.01 50.49 38.07 50.49 C 41.97 50.29 45.89 50.55 49.80 50.45 C 51.03 45.56 55.36 42.05 60.38 41.71 C 60.27 37.33 59.96 32.93 60.36 28.56 M 52.92 45.95 C 50.95 48.97 50.15 52.93 51.78 56.29 C 54.37 61.62 61.88 63.11 66.45 59.45 C 70.87 56.26 70.91 49.49 67.42 45.58 C 63.29 41.87 56.92 42.24 52.92 45.95 Z" />
</g>
</svg>
