<?xml version="1.0" encoding="UTF-8" ?>
<!DOCTYPE svg PUBLIC "-//W3C//DTD SVG 1.1//EN" "http://www.w3.org/Graphics/SVG/1.1/DTD/svg11.dtd">
<svg width="150px" height="80px" viewBox="0 0 150 80" version="1.1" xmlns="http://www.w3.org/2000/svg">
<g id="#000000ff">
<path fill="#000000" opacity="1.00" d=" M 0.00 0.00 L 150.00 0.00 L 150.00 80.00 L 0.00 80.00 L 0.00 0.00 M 6.48 5.74 C 3.53 6.83 1.23 9.75 1.40 12.97 C 1.39 30.99 1.39 49.01 1.40 67.03 C 1.19 71.08 4.93 74.80 8.97 74.60 C 52.99 74.61 97.01 74.62 141.03 74.59 C 145.08 74.80 148.81 71.08 148.59 67.03 C 148.62 49.01 148.61 30.99 148.60 12.97 C 148.80 8.92 145.07 5.20 141.04 5.40 C 98.35 5.37 55.66 5.42 12.98 5.38 C 10.82 5.44 8.59 5.17 6.48 5.74 Z" />
<path fill="#000000" opacity="1.00" d=" M 7.09 6.68 C 51.74 6.50 96.40 6.68 141.05 6.59 C 143.91 6.26 146.13 8.76 147.32 11.09 C 147.51 29.74 147.32 48.40 147.41 67.05 C 147.68 70.04 144.84 72.98 142.01 73.39 C 97.66 73.42 53.30 73.37 8.95 73.41 C 6.08 73.75 3.87 71.23 2.68 68.91 C 2.49 50.26 2.68 31.60 2.59 12.94 C 2.26 10.08 4.76 7.87 7.09 6.68 M 42.00 28.99 C 42.00 36.33 42.00 43.67 41.99 51.01 C 49.00 51.00 56.00 51.00 63.01 51.01 C 63.00 43.67 63.00 36.33 63.01 28.99 C 56.00 29.00 49.00 29.00 42.00 28.99 Z" />
</g>
<g id="#f7fbf8ff">
<path fill="#f7fbf8" opacity="1.00" d=" M 6.48 5.74 C 8.59 5.17 10.82 5.44 12.98 5.38 C 55.66 5.42 98.35 5.37 141.04 5.40 C 145.07 5.20 148.80 8.92 148.60 12.97 C 148.61 30.99 148.62 49.01 148.59 67.03 C 148.81 71.08 145.08 74.80 141.03 74.59 C 97.01 74.62 52.99 74.61 8.97 74.60 C 4.93 74.80 1.19 71.08 1.40 67.03 C 1.39 49.01 1.39 30.99 1.40 12.97 C 1.23 9.75 3.53 6.83 6.48 5.74 M 7.09 6.68 C 4.76 7.87 2.26 10.08 2.59 12.94 C 2.68 31.60 2.49 50.26 2.68 68.91 C 3.87 71.23 6.08 73.75 8.95 73.41 C 53.30 73.37 97.66 73.42 142.01 73.39 C 144.84 72.98 147.68 70.04 147.41 67.05 C 147.32 48.40 147.51 29.74 147.32 11.09 C 146.13 8.76 143.91 6.26 141.05 6.59 C 96.40 6.68 51.74 6.50 7.09 6.68 Z" />
<path fill="#f7fbf8" opacity="1.00" d=" M 42.00 28.99 C 49.00 29.00 56.00 29.00 63.01 28.99 C 63.00 36.33 63.00 43.67 63.01 51.01 C 56.00 51.00 49.00 51.00 41.99 51.01 C 42.00 43.67 42.00 36.33 42.00 28.99 Z" />
</g>
</svg>
