<?xml version="1.0" encoding="UTF-8" ?>
<!DOCTYPE svg PUBLIC "-//W3C//DTD SVG 1.1//EN" "http://www.w3.org/Graphics/SVG/1.1/DTD/svg11.dtd">
<svg width="50px" height="50px" viewBox="0 0 50 50" version="1.1" xmlns="http://www.w3.org/2000/svg">
<g id="#000000ff">
<path fill="#000000" opacity="1.00" d=" M 0.00 0.00 L 11.15 0.00 C 11.02 5.89 11.13 11.77 11.09 17.66 C 8.75 17.68 6.42 17.68 4.09 17.71 C 4.46 22.53 3.60 27.49 4.58 32.23 C 7.19 34.81 11.25 33.31 14.51 33.63 C 17.50 36.50 20.41 39.46 23.40 42.34 C 19.72 42.32 16.03 42.31 12.35 42.34 C 12.38 44.89 12.38 47.45 12.35 50.00 L 0.00 50.00 L 0.00 0.00 Z" />
<path fill="#000000" opacity="1.00" d=" M 37.75 0.00 L 50.00 0.00 L 50.00 50.00 L 36.85 50.00 C 36.62 49.45 36.15 48.36 35.92 47.82 C 28.98 47.44 22.02 47.83 15.07 47.64 C 15.04 47.01 15.00 45.75 14.97 45.13 C 18.57 44.98 22.17 44.99 25.76 45.05 C 25.79 44.33 25.84 42.88 25.86 42.16 C 28.68 39.33 31.53 36.54 34.33 33.70 C 37.66 33.31 41.80 34.82 44.46 32.19 C 45.34 27.44 44.56 22.53 44.91 17.71 C 42.58 17.68 40.24 17.68 37.91 17.66 C 37.80 11.78 38.12 5.88 37.75 0.00 Z" />
<path fill="#000000" opacity="1.00" d=" M 13.75 3.04 C 20.92 3.04 28.08 3.00 35.25 3.04 C 35.21 8.78 35.37 14.53 35.14 20.27 C 37.41 20.31 39.67 20.33 41.94 20.34 C 41.94 23.89 41.95 27.45 41.90 31.00 C 30.28 31.00 18.67 31.01 7.05 30.93 C 7.07 27.40 7.08 23.88 7.03 20.35 C 13.76 20.27 20.49 20.35 27.22 20.32 C 27.22 19.66 27.22 18.34 27.22 17.68 C 22.72 17.68 18.23 17.67 13.73 17.70 C 13.74 15.90 13.75 14.10 13.77 12.30 C 18.25 12.34 22.74 12.32 27.22 12.32 C 27.22 11.66 27.22 10.34 27.22 9.68 C 22.73 9.68 18.23 9.67 13.73 9.70 C 13.74 7.48 13.75 5.26 13.75 3.04 M 22.74 25.14 C 23.95 23.96 25.10 22.48 27.01 22.81 C 27.42 25.96 23.42 26.52 22.69 29.29 C 24.45 29.35 26.20 29.42 27.95 29.42 C 27.97 29.16 28.01 28.64 28.03 28.37 C 27.03 28.36 25.03 28.33 24.02 28.31 C 25.57 26.96 28.74 25.72 27.75 23.10 C 26.36 20.59 22.62 22.51 22.74 25.14 Z" />
<path fill="#000000" opacity="1.00" d=" M 18.19 33.73 C 22.40 33.65 26.60 33.65 30.81 33.73 C 28.66 35.71 26.55 37.74 24.49 39.83 C 22.45 37.73 20.34 35.71 18.19 33.73 Z" />
</g>
<g id="#f7fbf7ff">
<path fill="#f7fbf7" opacity="1.00" d=" M 11.15 0.00 L 37.75 0.00 C 38.12 5.88 37.80 11.78 37.91 17.66 C 40.24 17.68 42.58 17.68 44.91 17.71 C 44.56 22.53 45.34 27.44 44.46 32.19 C 41.80 34.82 37.66 33.31 34.33 33.70 C 31.53 36.54 28.68 39.33 25.86 42.16 C 25.84 42.88 25.79 44.33 25.76 45.05 C 22.17 44.99 18.57 44.98 14.97 45.13 C 15.00 45.75 15.04 47.01 15.07 47.64 C 22.02 47.83 28.98 47.44 35.92 47.82 C 36.15 48.36 36.62 49.45 36.85 50.00 L 12.35 50.00 C 12.38 47.45 12.38 44.89 12.35 42.34 C 16.03 42.31 19.72 42.32 23.40 42.34 C 20.41 39.46 17.50 36.50 14.51 33.63 C 11.25 33.31 7.19 34.81 4.58 32.23 C 3.60 27.49 4.46 22.53 4.09 17.71 C 6.42 17.68 8.75 17.68 11.09 17.66 C 11.13 11.77 11.02 5.89 11.15 0.00 M 13.75 3.04 C 13.75 5.26 13.74 7.48 13.73 9.70 C 18.23 9.67 22.73 9.68 27.22 9.68 C 27.22 10.34 27.22 11.66 27.22 12.32 C 22.74 12.32 18.25 12.34 13.77 12.30 C 13.75 14.10 13.74 15.90 13.73 17.70 C 18.23 17.67 22.72 17.68 27.22 17.68 C 27.22 18.34 27.22 19.66 27.22 20.32 C 20.49 20.35 13.76 20.27 7.03 20.35 C 7.08 23.88 7.07 27.40 7.05 30.93 C 18.67 31.01 30.28 31.00 41.90 31.00 C 41.95 27.45 41.94 23.89 41.94 20.34 C 39.67 20.33 37.41 20.31 35.14 20.27 C 35.37 14.53 35.21 8.78 35.25 3.04 C 28.08 3.00 20.92 3.04 13.75 3.04 M 18.19 33.73 C 20.34 35.71 22.45 37.73 24.49 39.83 C 26.55 37.74 28.66 35.71 30.81 33.73 C 26.60 33.65 22.40 33.65 18.19 33.73 Z" />
<path fill="#f7fbf7" opacity="1.00" d=" M 22.74 25.14 C 22.62 22.51 26.36 20.59 27.75 23.10 C 28.74 25.72 25.57 26.96 24.02 28.31 C 25.03 28.33 27.03 28.36 28.03 28.37 C 28.01 28.64 27.97 29.16 27.95 29.42 C 26.20 29.42 24.45 29.35 22.69 29.29 C 23.42 26.52 27.42 25.96 27.01 22.81 C 25.10 22.48 23.95 23.96 22.74 25.14 Z" />
</g>
</svg>
