<?xml version="1.0" encoding="UTF-8" ?>
<!DOCTYPE svg PUBLIC "-//W3C//DTD SVG 1.1//EN" "http://www.w3.org/Graphics/SVG/1.1/DTD/svg11.dtd">
<svg width="50px" height="50px" viewBox="0 0 50 50" version="1.1" xmlns="http://www.w3.org/2000/svg">
<g id="#000000ff">
<path fill="#000000" opacity="1.00" d=" M 0.00 0.00 L 50.00 0.00 L 50.00 50.00 L 0.00 50.00 L 0.00 0.00 M 8.73 5.65 C 5.72 8.79 4.44 14.09 7.22 17.78 C 9.99 22.01 15.02 23.62 19.69 24.66 C 20.94 26.09 18.98 26.49 17.97 26.97 C 14.46 28.09 11.22 26.10 7.95 25.17 C 3.78 24.55 0.13 29.03 1.21 33.01 C 2.17 39.52 8.19 45.98 15.23 44.31 C 21.36 42.17 23.77 35.44 24.85 29.61 C 28.49 32.21 27.33 37.08 25.68 40.51 C 23.64 44.13 26.87 49.15 30.96 49.01 C 38.18 49.43 46.02 42.74 44.26 35.11 C 42.22 28.70 35.19 26.69 29.42 25.11 C 32.44 22.06 37.05 22.91 40.55 24.58 C 44.29 26.50 49.22 23.19 49.02 19.05 C 49.15 12.23 43.27 4.92 36.01 5.77 C 29.48 7.14 26.45 14.14 25.56 20.12 C 22.82 19.50 22.75 16.21 23.11 13.97 C 23.48 11.59 25.06 9.53 25.11 7.09 C 25.09 3.56 21.56 0.75 18.14 1.07 C 14.62 1.54 11.22 3.10 8.73 5.65 Z" />
<path fill="#000000" opacity="1.00" d=" M 9.66 14.10 C 9.10 9.01 14.33 5.18 18.99 5.04 C 20.88 5.18 21.54 7.33 20.61 8.80 C 18.91 12.56 18.51 16.72 19.84 20.68 C 15.78 19.91 11.54 18.01 9.66 14.10 Z" />
<path fill="#000000" opacity="1.00" d=" M 29.47 20.40 C 30.39 16.13 32.12 10.72 36.98 9.64 C 41.94 9.77 45.44 15.16 44.97 19.80 C 43.74 22.23 41.06 20.33 39.21 19.89 C 36.04 18.58 32.51 18.85 29.47 20.40 Z" />
<path fill="#000000" opacity="1.00" d=" M 22.78 25.91 C 21.83 24.21 24.23 23.22 25.03 22.11 C 25.82 23.23 28.54 24.23 27.33 25.94 C 26.72 28.19 23.51 27.98 22.78 25.91 Z" />
<path fill="#000000" opacity="1.00" d=" M 5.02 31.92 C 4.77 29.97 6.86 28.35 8.59 29.54 C 12.37 31.31 16.65 31.81 20.62 30.32 C 19.81 34.27 18.14 38.64 14.23 40.48 C 9.27 41.39 5.61 36.30 5.02 31.92 Z" />
<path fill="#000000" opacity="1.00" d=" M 30.45 29.65 C 34.34 30.46 38.50 32.14 40.40 35.89 C 41.46 41.61 35.13 45.59 30.02 45.10 C 29.75 44.57 29.21 43.52 28.95 42.99 C 31.13 38.88 31.88 34.16 30.45 29.65 Z" />
</g>
<g id="#f8fcf8ff">
<path fill="#f8fcf8" opacity="1.00" d=" M 8.73 5.65 C 11.22 3.10 14.62 1.54 18.14 1.07 C 21.56 0.75 25.09 3.56 25.11 7.09 C 25.06 9.53 23.48 11.59 23.11 13.97 C 22.75 16.21 22.82 19.50 25.56 20.12 C 26.45 14.14 29.48 7.14 36.01 5.77 C 43.27 4.92 49.15 12.23 49.02 19.05 C 49.22 23.19 44.29 26.50 40.55 24.58 C 37.05 22.91 32.44 22.06 29.42 25.11 C 35.19 26.69 42.22 28.70 44.26 35.11 C 46.02 42.74 38.18 49.43 30.96 49.01 C 26.87 49.15 23.64 44.13 25.68 40.51 C 27.33 37.08 28.49 32.21 24.85 29.61 C 23.77 35.44 21.36 42.17 15.23 44.31 C 8.19 45.98 2.17 39.52 1.21 33.01 C 0.13 29.03 3.78 24.55 7.95 25.17 C 11.22 26.10 14.46 28.09 17.97 26.97 C 18.98 26.49 20.94 26.09 19.69 24.66 C 15.02 23.62 9.99 22.01 7.22 17.78 C 4.44 14.09 5.72 8.79 8.73 5.65 M 9.66 14.10 C 11.54 18.01 15.78 19.91 19.84 20.68 C 18.51 16.72 18.91 12.56 20.61 8.80 C 21.54 7.33 20.88 5.18 18.99 5.04 C 14.33 5.18 9.10 9.01 9.66 14.10 M 29.47 20.40 C 32.51 18.85 36.04 18.58 39.21 19.89 C 41.06 20.33 43.74 22.23 44.97 19.80 C 45.44 15.16 41.94 9.77 36.98 9.64 C 32.12 10.72 30.39 16.13 29.47 20.40 M 22.78 25.91 C 23.51 27.98 26.72 28.19 27.33 25.94 C 28.54 24.23 25.82 23.23 25.03 22.11 C 24.23 23.22 21.83 24.21 22.78 25.91 M 5.02 31.92 C 5.61 36.30 9.27 41.39 14.23 40.48 C 18.14 38.64 19.81 34.27 20.62 30.32 C 16.65 31.81 12.37 31.31 8.59 29.54 C 6.86 28.35 4.77 29.97 5.02 31.92 M 30.45 29.65 C 31.88 34.16 31.13 38.88 28.95 42.99 C 29.21 43.52 29.75 44.57 30.02 45.10 C 35.13 45.59 41.46 41.61 40.40 35.89 C 38.50 32.14 34.34 30.46 30.45 29.65 Z" />
</g>
</svg>
