<?xml version="1.0" encoding="UTF-8" ?>
<!DOCTYPE svg PUBLIC "-//W3C//DTD SVG 1.1//EN" "http://www.w3.org/Graphics/SVG/1.1/DTD/svg11.dtd">
<svg width="150px" height="80px" viewBox="0 0 150 80" version="1.1" xmlns="http://www.w3.org/2000/svg">
<g id="#000000ff">
<path fill="#000000" opacity="1.00" d=" M 0.00 0.00 L 150.00 0.00 L 150.00 80.00 L 0.00 80.00 L 0.00 0.00 M 4.48 6.51 L 4.65 7.70 L 3.22 7.22 L 3.69 8.62 L 2.59 8.37 C 1.84 10.13 1.23 11.97 1.38 13.92 C 1.42 31.66 1.35 49.40 1.41 67.14 C 1.46 69.29 2.13 72.33 4.68 72.69 L 4.30 73.36 C 6.11 74.15 8.00 74.78 10.01 74.62 C 53.68 74.58 97.36 74.65 141.03 74.59 C 144.01 74.72 146.88 72.89 148.04 70.14 C 148.48 68.80 148.65 67.40 148.62 65.99 C 148.60 50.30 148.61 34.62 148.62 18.93 C 148.55 15.36 149.11 11.60 147.38 8.31 L 146.64 8.75 C 146.74 6.84 144.62 6.46 143.45 5.53 C 99.30 5.19 55.14 5.51 10.99 5.37 C 8.75 5.25 6.53 5.59 4.48 6.51 Z" />
<path fill="#000000" opacity="1.00" d=" M 6.23 6.48 C 52.05 6.73 97.88 6.63 143.70 6.53 L 143.53 7.94 C 143.98 7.77 144.88 7.43 145.32 7.26 C 145.74 8.44 146.19 9.61 146.66 10.76 L 147.50 10.17 C 147.28 29.98 147.37 49.80 147.46 69.62 L 146.14 69.54 C 146.27 69.97 146.52 70.83 146.65 71.26 C 145.52 71.73 144.38 72.20 143.26 72.67 L 143.79 73.55 C 100.18 73.16 56.56 73.52 12.95 73.37 C 10.71 73.36 8.46 73.41 6.21 73.57 L 6.77 72.71 C 5.61 72.21 4.43 71.74 3.24 71.32 C 3.43 70.86 3.80 69.95 3.99 69.49 L 2.54 69.80 C 2.62 49.96 2.74 30.11 2.48 10.27 L 3.29 10.61 C 3.81 8.92 4.92 7.70 6.67 7.28 L 6.23 6.48 M 37.48 35.50 C 36.53 36.26 35.61 37.06 34.70 37.87 C 36.07 39.09 37.42 40.33 38.79 41.56 C 40.16 40.08 41.64 38.71 43.22 37.47 C 44.17 38.40 45.13 39.33 46.08 40.27 C 46.93 39.47 47.79 38.67 48.64 37.87 C 47.71 36.98 46.78 36.08 45.85 35.18 C 47.47 33.11 47.12 30.23 49.63 28.67 C 44.34 27.48 40.43 31.82 37.48 35.50 M 51.47 36.36 C 47.59 40.22 43.46 43.82 39.67 47.76 C 37.89 49.50 40.86 52.08 42.50 50.35 C 46.56 46.74 50.36 42.84 54.34 39.13 C 58.73 40.84 64.15 36.16 62.24 31.57 C 60.86 32.76 59.53 34.00 58.18 35.23 C 57.31 34.36 56.44 33.48 55.57 32.60 C 56.84 31.40 58.09 30.19 59.34 28.97 C 54.99 26.91 49.62 31.86 51.47 36.36 M 49.71 44.74 C 51.79 46.92 53.89 49.08 56.03 51.19 C 57.38 49.90 58.72 48.60 60.04 47.29 C 57.83 45.29 55.59 43.31 53.37 41.31 C 52.15 42.45 50.93 43.60 49.71 44.74 Z" />
<path fill="#000000" opacity="1.00" d=" M 40.75 48.26 C 44.16 48.35 39.22 51.31 40.75 48.26 Z" />
</g>
<g id="#f4f9f7ff">
<path fill="#f4f9f7" opacity="1.00" d=" M 4.48 6.51 C 6.53 5.59 8.75 5.25 10.99 5.37 C 55.14 5.51 99.30 5.19 143.45 5.53 C 144.62 6.46 146.74 6.84 146.64 8.75 L 147.38 8.31 C 149.11 11.60 148.55 15.36 148.62 18.93 C 148.61 34.62 148.60 50.30 148.62 65.99 C 148.65 67.40 148.48 68.80 148.04 70.14 C 146.88 72.89 144.01 74.72 141.03 74.59 C 97.36 74.65 53.68 74.58 10.01 74.62 C 8.00 74.78 6.11 74.15 4.30 73.36 L 4.68 72.69 C 2.13 72.33 1.46 69.29 1.41 67.14 C 1.35 49.40 1.42 31.66 1.38 13.92 C 1.23 11.97 1.84 10.13 2.59 8.37 L 3.69 8.62 L 3.22 7.22 L 4.65 7.70 L 4.48 6.51 M 6.23 6.48 L 6.67 7.28 C 4.92 7.70 3.81 8.92 3.29 10.61 L 2.48 10.27 C 2.74 30.11 2.62 49.96 2.54 69.80 L 3.99 69.49 C 3.80 69.95 3.43 70.86 3.24 71.32 C 4.43 71.74 5.61 72.21 6.77 72.71 L 6.21 73.57 C 8.46 73.41 10.71 73.36 12.95 73.37 C 56.56 73.52 100.18 73.16 143.79 73.55 L 143.26 72.67 C 144.38 72.20 145.52 71.73 146.65 71.26 C 146.52 70.83 146.27 69.97 146.14 69.54 L 147.46 69.62 C 147.37 49.80 147.28 29.98 147.50 10.17 L 146.66 10.76 C 146.19 9.61 145.74 8.44 145.32 7.26 C 144.88 7.43 143.98 7.77 143.53 7.94 L 143.70 6.53 C 97.88 6.63 52.05 6.73 6.23 6.48 Z" />
<path fill="#f4f9f7" opacity="1.00" d=" M 37.48 35.50 C 40.43 31.82 44.34 27.48 49.63 28.67 C 47.12 30.23 47.47 33.11 45.85 35.18 C 46.78 36.08 47.71 36.98 48.64 37.87 C 47.79 38.67 46.93 39.47 46.08 40.27 C 45.13 39.33 44.17 38.40 43.22 37.47 C 41.64 38.71 40.16 40.08 38.79 41.56 C 37.42 40.33 36.07 39.09 34.70 37.87 C 35.61 37.06 36.53 36.26 37.48 35.50 Z" />
<path fill="#f4f9f7" opacity="1.00" d=" M 51.47 36.36 C 49.62 31.86 54.99 26.91 59.34 28.97 C 58.09 30.19 56.84 31.40 55.57 32.60 C 56.44 33.48 57.31 34.36 58.18 35.23 C 59.53 34.00 60.86 32.76 62.24 31.57 C 64.15 36.16 58.73 40.84 54.34 39.13 C 50.36 42.84 46.56 46.74 42.50 50.35 C 40.86 52.08 37.89 49.50 39.67 47.76 C 43.46 43.82 47.59 40.22 51.47 36.36 M 40.75 48.26 C 39.22 51.31 44.16 48.35 40.75 48.26 Z" />
<path fill="#f4f9f7" opacity="1.00" d=" M 49.71 44.74 C 50.93 43.60 52.15 42.45 53.37 41.31 C 55.59 43.31 57.83 45.29 60.04 47.29 C 58.72 48.60 57.38 49.90 56.03 51.19 C 53.89 49.08 51.79 46.92 49.71 44.74 Z" />
</g>
</svg>
