<?xml version="1.0" encoding="UTF-8" ?>
<!DOCTYPE svg PUBLIC "-//W3C//DTD SVG 1.1//EN" "http://www.w3.org/Graphics/SVG/1.1/DTD/svg11.dtd">
<svg width="117px" height="140px" viewBox="0 0 117 140" version="1.1" xmlns="http://www.w3.org/2000/svg">
<g id="#384450ff">
<path fill="#384450" opacity="1.00" d=" M 0.00 0.00 L 117.00 0.00 L 117.00 140.00 L 0.00 140.00 L 0.00 0.00 M 41.26 53.13 C 39.00 54.25 38.55 57.76 40.56 59.33 C 42.22 61.12 45.33 60.72 46.51 58.60 C 49.13 55.52 44.42 50.71 41.26 53.13 M 56.45 53.53 C 54.80 54.82 54.51 57.46 56.00 58.99 C 57.69 61.53 61.78 60.58 62.72 57.83 C 64.29 54.33 59.15 50.57 56.45 53.53 M 72.46 53.34 C 70.56 54.64 70.06 57.56 71.91 59.14 C 73.90 61.86 78.56 60.01 78.69 56.85 C 79.18 53.72 74.84 51.09 72.46 53.34 Z" />
</g>
<g id="#f8fcf8ff">
<path fill="#f8fcf8" opacity="1.00" d=" M 41.26 53.13 C 44.42 50.71 49.13 55.52 46.51 58.60 C 45.33 60.72 42.22 61.12 40.56 59.33 C 38.55 57.76 39.00 54.25 41.26 53.13 Z" />
<path fill="#f8fcf8" opacity="1.00" d=" M 56.45 53.53 C 59.15 50.57 64.29 54.33 62.72 57.83 C 61.78 60.58 57.69 61.53 56.00 58.99 C 54.51 57.46 54.80 54.82 56.45 53.53 Z" />
<path fill="#f8fcf8" opacity="1.00" d=" M 72.46 53.34 C 74.84 51.09 79.18 53.72 78.69 56.85 C 78.56 60.01 73.90 61.86 71.91 59.14 C 70.06 57.56 70.56 54.64 72.46 53.34 Z" />
</g>
</svg>
