<?xml version="1.0" encoding="UTF-8" ?>
<!DOCTYPE svg PUBLIC "-//W3C//DTD SVG 1.1//EN" "http://www.w3.org/Graphics/SVG/1.1/DTD/svg11.dtd">
<svg width="117px" height="140px" viewBox="0 0 117 140" version="1.1" xmlns="http://www.w3.org/2000/svg">
<g id="#000000ff">
<path fill="#000000" opacity="1.00" d=" M 0.00 0.00 L 117.00 0.00 L 117.00 140.00 L 0.00 140.00 L 0.00 0.00 M 32.26 10.46 L 32.75 11.44 C 31.10 11.42 29.45 11.45 27.81 11.56 C 26.76 12.11 25.66 12.51 24.50 12.76 L 24.54 13.80 C 24.08 13.64 23.14 13.31 22.68 13.15 L 22.53 14.76 L 20.83 14.23 C 20.75 14.49 20.60 15.02 20.53 15.28 C 19.06 15.95 17.75 16.90 16.42 17.80 L 16.63 18.83 L 15.21 18.22 L 15.82 19.66 L 14.27 19.26 L 14.65 20.80 L 13.21 20.22 L 13.85 21.65 L 12.84 21.39 C 11.93 22.73 10.94 24.04 10.29 25.52 C 10.02 25.60 9.49 25.76 9.22 25.83 L 9.76 27.51 L 8.16 27.68 C 8.32 28.15 8.64 29.09 8.80 29.57 L 7.44 29.47 C 7.46 30.31 7.49 31.99 7.51 32.83 L 6.42 32.27 C 6.44 33.77 6.47 35.26 6.53 36.75 C 6.29 36.65 5.80 36.44 5.56 36.34 C 5.29 58.78 5.26 81.23 5.57 103.68 C 5.82 103.58 6.32 103.38 6.56 103.28 C 6.49 104.76 6.44 106.25 6.42 107.74 L 7.53 107.14 C 7.50 107.98 7.44 109.67 7.41 110.51 L 8.81 110.46 C 8.64 110.93 8.30 111.88 8.13 112.36 L 9.64 112.37 C 9.57 112.85 9.41 113.81 9.33 114.29 L 10.27 114.45 C 10.97 115.91 11.89 117.26 12.79 118.60 L 13.69 118.29 L 13.33 119.69 L 14.85 119.37 L 14.14 120.80 L 15.74 120.22 L 15.24 121.80 L 16.65 121.16 L 16.40 122.17 C 17.73 123.08 19.02 124.05 20.50 124.70 C 20.59 124.98 20.76 125.52 20.84 125.79 L 22.53 125.23 L 22.65 126.84 C 23.13 126.68 24.09 126.37 24.57 126.21 L 24.47 127.55 C 25.31 127.54 27.00 127.51 27.84 127.50 L 27.30 128.42 C 30.22 128.61 33.03 129.66 35.99 129.60 C 50.98 129.63 65.98 129.60 80.98 129.62 C 82.86 129.60 84.83 129.69 86.53 128.72 C 87.87 128.64 89.21 128.58 90.55 128.52 L 90.52 127.57 C 91.27 127.55 92.76 127.52 93.50 127.51 L 93.46 126.19 C 93.94 126.36 94.90 126.71 95.38 126.88 L 95.35 125.37 C 95.75 125.43 96.57 125.56 96.97 125.62 C 98.32 124.23 99.99 123.22 101.61 122.18 L 101.27 121.31 L 102.65 121.69 L 102.41 120.20 L 103.82 120.83 L 103.19 119.41 L 104.68 119.65 L 104.32 118.26 L 105.23 118.60 C 106.15 116.91 107.30 115.35 108.62 113.95 C 108.55 113.55 108.43 112.76 108.36 112.37 L 109.86 112.39 C 109.70 111.90 109.37 110.94 109.20 110.46 L 110.57 110.52 C 110.55 109.68 110.51 107.99 110.48 107.15 L 111.59 107.73 C 111.56 106.25 111.52 104.78 111.46 103.30 C 111.71 103.37 112.22 103.50 112.47 103.57 C 112.70 81.30 112.71 59.02 112.46 36.76 C 112.22 36.41 111.74 35.71 111.50 35.36 C 111.52 34.59 111.54 33.05 111.56 32.28 L 110.49 32.85 C 110.51 32.01 110.55 30.32 110.57 29.48 L 109.17 29.53 C 109.35 29.06 109.71 28.10 109.89 27.63 L 108.35 27.65 C 108.44 27.17 108.61 26.22 108.70 25.74 L 107.74 25.58 C 107.11 24.06 106.08 22.75 105.18 21.39 L 104.31 21.74 L 104.69 20.35 L 103.19 20.59 L 103.82 19.19 L 102.41 19.80 L 102.64 18.31 L 101.26 18.68 L 101.60 17.77 C 100.25 16.88 98.91 15.98 97.47 15.26 L 97.29 14.33 C 96.81 14.40 95.86 14.55 95.38 14.63 L 95.34 13.12 C 94.87 13.30 93.93 13.65 93.46 13.83 L 93.56 12.45 C 92.70 12.47 91.00 12.50 90.14 12.51 L 90.71 11.44 C 88.87 11.44 87.04 11.43 85.20 11.47 L 85.77 10.46 C 67.94 10.34 50.10 10.35 32.26 10.46 Z" />
<path fill="#000000" opacity="1.00" d=" M 32.22 12.22 C 33.72 11.58 35.36 11.59 36.97 11.58 C 51.98 11.66 66.99 11.59 82.00 11.61 C 85.62 11.60 89.01 13.07 92.56 13.56 C 92.59 13.83 92.64 14.37 92.67 14.63 L 94.46 14.25 L 94.70 15.57 C 95.16 15.50 96.09 15.37 96.55 15.30 L 96.65 16.73 C 97.16 16.60 98.17 16.35 98.68 16.22 L 98.20 17.83 L 99.61 17.14 L 99.44 18.11 C 101.68 19.45 103.55 21.32 104.89 23.56 L 105.87 23.40 L 105.15 24.79 L 106.75 24.32 C 106.63 24.83 106.40 25.86 106.28 26.37 L 107.69 26.45 C 107.63 26.91 107.50 27.84 107.43 28.31 L 108.74 28.53 C 108.65 28.98 108.46 29.89 108.37 30.34 L 109.38 30.40 C 109.87 32.50 110.48 34.57 110.69 36.73 L 111.50 36.16 C 111.22 58.20 111.51 80.25 111.35 102.29 C 110.48 104.65 109.86 107.11 109.42 109.58 C 109.21 109.60 108.79 109.63 108.58 109.64 C 108.69 112.44 106.23 114.18 105.27 116.59 L 104.76 116.47 C 103.06 119.81 99.72 121.86 96.80 124.04 C 95.85 124.49 94.94 125.00 94.06 125.57 C 93.71 125.53 93.00 125.45 92.65 125.41 L 92.46 126.80 C 92.09 126.69 91.36 126.46 90.99 126.35 C 89.47 127.87 87.34 127.60 85.38 127.63 C 85.47 127.85 85.65 128.30 85.73 128.52 C 67.55 128.27 49.35 128.35 31.16 128.48 L 31.76 127.65 C 29.60 127.49 27.53 126.85 25.42 126.41 C 25.40 126.14 25.34 125.61 25.32 125.34 L 23.56 125.77 L 23.29 124.45 C 22.83 124.51 21.90 124.62 21.44 124.68 L 21.36 123.28 C 20.85 123.40 19.81 123.64 19.30 123.76 L 19.86 122.14 L 18.44 122.88 L 18.54 121.89 C 16.33 120.53 14.44 118.68 13.11 116.44 L 12.12 116.59 L 12.85 115.19 L 11.24 115.69 C 11.36 115.18 11.60 114.15 11.72 113.64 L 10.31 113.55 C 10.37 113.09 10.50 112.17 10.56 111.71 L 9.20 111.42 L 9.68 109.70 C 9.41 109.67 8.87 109.61 8.60 109.58 C 8.11 107.20 7.32 104.87 7.25 102.41 L 6.49 102.80 C 6.69 80.93 6.69 59.06 6.49 37.20 L 7.22 37.59 C 7.37 35.14 8.03 32.78 8.60 30.41 L 9.63 30.35 C 9.54 29.89 9.37 28.97 9.29 28.51 L 10.57 28.29 C 10.50 27.83 10.37 26.91 10.30 26.45 L 11.71 26.37 C 11.60 25.86 11.37 24.84 11.26 24.32 L 12.88 24.76 L 12.11 23.35 L 13.10 23.62 C 14.42 21.36 16.29 19.46 18.54 18.12 L 18.45 17.12 L 19.89 17.82 L 19.28 16.21 C 19.80 16.34 20.83 16.61 21.34 16.74 L 21.46 15.30 C 21.93 15.37 22.86 15.50 23.32 15.57 L 23.51 14.29 C 23.97 14.36 24.89 14.52 25.36 14.60 L 25.56 13.17 C 26.04 13.34 26.99 13.69 27.47 13.86 L 27.41 12.62 C 29.02 12.54 30.62 12.42 32.22 12.22 M 71.10 38.04 C 70.21 40.95 69.84 43.96 69.95 47.00 C 67.97 47.00 65.98 47.00 64.00 47.00 C 64.00 47.75 64.00 49.25 64.00 50.00 C 65.97 50.00 67.94 50.00 69.91 50.00 C 69.90 52.70 70.34 55.37 71.11 57.95 C 72.93 58.21 75.01 59.07 76.70 57.86 C 79.46 55.90 82.15 53.82 84.73 51.63 C 86.99 49.85 86.96 46.10 84.69 44.34 C 82.09 42.15 79.40 40.04 76.62 38.08 C 74.94 36.93 72.90 37.81 71.10 38.04 M 42.00 47.00 C 42.00 47.75 42.00 49.25 42.00 50.00 C 45.33 50.00 48.67 50.00 52.00 50.00 C 52.00 49.25 52.00 47.75 52.00 47.00 C 48.67 47.00 45.33 47.00 42.00 47.00 M 53.00 47.00 C 53.00 47.75 53.00 49.25 53.00 50.00 C 53.75 50.00 55.25 50.00 56.00 50.00 C 56.00 49.25 56.00 47.75 56.00 47.00 C 55.25 47.00 53.75 47.00 53.00 47.00 M 57.00 47.00 C 57.00 47.75 57.00 49.25 57.00 50.00 C 59.00 50.00 61.00 50.00 63.00 50.00 C 63.00 49.25 63.00 47.75 63.00 47.00 C 61.00 47.00 59.00 47.00 57.00 47.00 M 57.90 70.87 C 57.72 73.03 57.74 75.19 57.78 77.36 C 52.36 77.40 46.94 77.39 41.51 77.37 C 41.57 75.68 41.62 73.99 41.67 72.30 C 41.02 72.25 39.74 72.15 39.09 72.10 C 39.12 74.27 38.60 76.60 39.51 78.64 C 40.36 80.25 42.42 79.86 43.92 79.97 C 54.91 79.81 65.92 80.16 76.90 79.80 C 80.05 78.76 78.72 74.62 78.94 72.13 C 78.29 72.17 76.98 72.25 76.33 72.29 C 76.38 73.98 76.43 75.68 76.49 77.37 C 71.06 77.39 65.63 77.40 60.20 77.36 C 60.02 75.05 61.52 70.96 57.90 70.87 Z" />
<path fill="#000000" opacity="1.00" d=" M 75.00 41.81 C 77.66 43.87 80.33 45.93 82.99 48.00 C 80.33 50.07 77.67 52.13 75.00 54.19 C 75.00 50.06 75.00 45.94 75.00 41.81 Z" />
</g>
<g id="#f5faf7ff">
<path fill="#f5faf7" opacity="1.00" d=" M 32.26 10.46 C 50.10 10.35 67.94 10.34 85.77 10.46 L 85.20 11.47 C 87.04 11.43 88.87 11.44 90.71 11.44 L 90.14 12.51 C 91.00 12.50 92.70 12.47 93.56 12.45 L 93.46 13.83 C 93.93 13.65 94.87 13.30 95.34 13.12 L 95.38 14.63 C 95.86 14.55 96.81 14.40 97.29 14.33 L 97.47 15.26 C 98.91 15.98 100.25 16.88 101.60 17.77 L 101.26 18.68 L 102.64 18.31 L 102.41 19.80 L 103.82 19.19 L 103.19 20.59 L 104.69 20.35 L 104.31 21.74 L 105.18 21.39 C 106.08 22.75 107.11 24.06 107.74 25.58 L 108.70 25.74 C 108.61 26.22 108.44 27.17 108.35 27.65 L 109.89 27.63 C 109.71 28.10 109.35 29.06 109.17 29.53 L 110.57 29.48 C 110.55 30.32 110.51 32.01 110.49 32.85 L 111.56 32.28 C 111.54 33.05 111.52 34.59 111.50 35.36 C 111.74 35.71 112.22 36.41 112.46 36.76 C 112.71 59.02 112.70 81.30 112.47 103.57 C 112.22 103.50 111.71 103.37 111.46 103.30 C 111.52 104.78 111.56 106.25 111.59 107.73 L 110.48 107.15 C 110.51 107.99 110.55 109.68 110.57 110.52 L 109.20 110.46 C 109.37 110.94 109.70 111.90 109.86 112.39 L 108.36 112.37 C 108.43 112.76 108.55 113.55 108.62 113.95 C 107.30 115.35 106.15 116.91 105.23 118.60 L 104.32 118.26 L 104.68 119.65 L 103.19 119.41 L 103.82 120.83 L 102.41 120.20 L 102.65 121.69 L 101.27 121.31 L 101.61 122.18 C 99.99 123.22 98.32 124.23 96.97 125.62 C 96.57 125.56 95.75 125.43 95.35 125.37 L 95.38 126.88 C 94.90 126.71 93.94 126.36 93.46 126.19 L 93.50 127.51 C 92.76 127.52 91.27 127.55 90.52 127.57 L 90.55 128.52 C 89.21 128.58 87.87 128.64 86.53 128.72 C 84.83 129.69 82.86 129.60 80.98 129.62 C 65.98 129.60 50.98 129.63 35.99 129.60 C 33.03 129.66 30.22 128.61 27.30 128.42 L 27.84 127.50 C 27.00 127.51 25.31 127.54 24.47 127.55 L 24.57 126.21 C 24.09 126.37 23.13 126.68 22.65 126.84 L 22.53 125.23 L 20.84 125.79 C 20.76 125.52 20.59 124.98 20.50 124.70 C 19.02 124.05 17.73 123.08 16.40 122.17 L 16.65 121.16 L 15.24 121.80 L 15.74 120.22 L 14.14 120.80 L 14.85 119.37 L 13.33 119.69 L 13.69 118.29 L 12.79 118.60 C 11.89 117.26 10.97 115.91 10.27 114.45 L 9.33 114.29 C 9.41 113.81 9.57 112.85 9.64 112.37 L 8.13 112.36 C 8.30 111.88 8.64 110.93 8.81 110.46 L 7.41 110.51 C 7.44 109.67 7.50 107.98 7.53 107.14 L 6.42 107.74 C 6.44 106.25 6.49 104.76 6.56 103.28 C 6.32 103.38 5.82 103.58 5.57 103.68 C 5.26 81.23 5.29 58.78 5.56 36.34 C 5.80 36.44 6.29 36.65 6.53 36.75 C 6.47 35.26 6.44 33.77 6.42 32.27 L 7.51 32.83 C 7.49 31.99 7.46 30.31 7.44 29.47 L 8.80 29.57 C 8.64 29.09 8.32 28.15 8.16 27.68 L 9.76 27.51 L 9.22 25.83 C 9.49 25.76 10.02 25.60 10.29 25.52 C 10.94 24.04 11.93 22.73 12.84 21.39 L 13.85 21.65 L 13.21 20.22 L 14.65 20.80 L 14.27 19.26 L 15.82 19.66 L 15.21 18.22 L 16.63 18.83 L 16.42 17.80 C 17.75 16.90 19.06 15.95 20.53 15.28 C 20.60 15.02 20.75 14.49 20.83 14.23 L 22.53 14.76 L 22.68 13.15 C 23.14 13.31 24.08 13.64 24.54 13.80 L 24.50 12.76 C 25.66 12.51 26.76 12.11 27.81 11.56 C 29.45 11.45 31.10 11.42 32.75 11.44 L 32.26 10.46 M 32.22 12.22 C 30.62 12.42 29.02 12.54 27.41 12.62 L 27.47 13.86 C 26.99 13.69 26.04 13.34 25.56 13.17 L 25.36 14.60 C 24.89 14.52 23.97 14.36 23.51 14.29 L 23.32 15.57 C 22.86 15.50 21.93 15.37 21.46 15.30 L 21.34 16.74 C 20.83 16.61 19.80 16.34 19.28 16.21 L 19.89 17.82 L 18.45 17.12 L 18.54 18.12 C 16.29 19.46 14.42 21.36 13.10 23.62 L 12.11 23.35 L 12.88 24.76 L 11.26 24.32 C 11.37 24.84 11.60 25.86 11.71 26.37 L 10.30 26.45 C 10.37 26.91 10.50 27.83 10.57 28.29 L 9.29 28.51 C 9.37 28.97 9.54 29.89 9.63 30.35 L 8.60 30.41 C 8.03 32.78 7.37 35.14 7.22 37.59 L 6.49 37.20 C 6.69 59.06 6.69 80.93 6.49 102.80 L 7.25 102.41 C 7.32 104.87 8.11 107.20 8.60 109.58 C 8.87 109.61 9.41 109.67 9.68 109.70 L 9.20 111.42 L 10.56 111.71 C 10.50 112.17 10.37 113.09 10.31 113.55 L 11.72 113.64 C 11.60 114.15 11.36 115.18 11.24 115.69 L 12.85 115.19 L 12.12 116.59 L 13.11 116.44 C 14.44 118.68 16.33 120.53 18.54 121.89 L 18.44 122.88 L 19.86 122.14 L 19.30 123.76 C 19.81 123.64 20.85 123.40 21.36 123.28 L 21.44 124.68 C 21.90 124.62 22.83 124.51 23.29 124.45 L 23.56 125.77 L 25.32 125.34 C 25.34 125.61 25.40 126.14 25.42 126.41 C 27.53 126.85 29.60 127.49 31.76 127.65 L 31.16 128.48 C 49.35 128.35 67.55 128.27 85.73 128.52 C 85.65 128.30 85.47 127.85 85.38 127.63 C 87.34 127.60 89.47 127.87 90.99 126.35 C 91.36 126.46 92.09 126.69 92.46 126.80 L 92.65 125.41 C 93.00 125.45 93.71 125.53 94.06 125.57 C 94.94 125.00 95.85 124.49 96.80 124.04 C 99.72 121.86 103.06 119.81 104.76 116.47 L 105.27 116.59 C 106.23 114.18 108.69 112.44 108.58 109.64 C 108.79 109.63 109.21 109.60 109.42 109.58 C 109.86 107.11 110.48 104.65 111.35 102.29 C 111.51 80.25 111.22 58.20 111.50 36.16 L 110.69 36.73 C 110.48 34.57 109.87 32.50 109.38 30.40 L 108.37 30.34 C 108.46 29.89 108.65 28.98 108.74 28.53 L 107.43 28.31 C 107.50 27.84 107.63 26.91 107.69 26.45 L 106.28 26.37 C 106.40 25.86 106.63 24.83 106.75 24.32 L 105.15 24.79 L 105.87 23.40 L 104.89 23.56 C 103.55 21.32 101.68 19.45 99.44 18.11 L 99.61 17.14 L 98.20 17.83 L 98.68 16.22 C 98.17 16.35 97.16 16.60 96.65 16.73 L 96.55 15.30 C 96.09 15.37 95.16 15.50 94.70 15.57 L 94.46 14.25 L 92.67 14.63 C 92.64 14.37 92.59 13.83 92.56 13.56 C 89.01 13.07 85.62 11.60 82.00 11.61 C 66.99 11.59 51.98 11.66 36.97 11.58 C 35.36 11.59 33.72 11.58 32.22 12.22 Z" />
<path fill="#f5faf7" opacity="1.00" d=" M 71.10 38.04 C 72.90 37.81 74.94 36.93 76.62 38.08 C 79.40 40.04 82.09 42.15 84.69 44.34 C 86.96 46.10 86.99 49.85 84.73 51.63 C 82.15 53.82 79.46 55.90 76.70 57.86 C 75.01 59.07 72.93 58.21 71.11 57.95 C 70.34 55.37 69.90 52.70 69.91 50.00 C 67.94 50.00 65.97 50.00 64.00 50.00 C 64.00 49.25 64.00 47.75 64.00 47.00 C 65.98 47.00 67.97 47.00 69.95 47.00 C 69.84 43.96 70.21 40.95 71.10 38.04 M 75.00 41.81 C 75.00 45.94 75.00 50.06 75.00 54.19 C 77.67 52.13 80.33 50.07 82.99 48.00 C 80.33 45.93 77.66 43.87 75.00 41.81 Z" />
<path fill="#f5faf7" opacity="1.00" d=" M 42.00 47.00 C 45.33 47.00 48.67 47.00 52.00 47.00 C 52.00 47.75 52.00 49.25 52.00 50.00 C 48.67 50.00 45.33 50.00 42.00 50.00 C 42.00 49.25 42.00 47.75 42.00 47.00 Z" />
<path fill="#f5faf7" opacity="1.00" d=" M 53.00 47.00 C 53.75 47.00 55.25 47.00 56.00 47.00 C 56.00 47.75 56.00 49.25 56.00 50.00 C 55.25 50.00 53.75 50.00 53.00 50.00 C 53.00 49.25 53.00 47.75 53.00 47.00 Z" />
<path fill="#f5faf7" opacity="1.00" d=" M 57.00 47.00 C 59.00 47.00 61.00 47.00 63.00 47.00 C 63.00 47.75 63.00 49.25 63.00 50.00 C 61.00 50.00 59.00 50.00 57.00 50.00 C 57.00 49.25 57.00 47.75 57.00 47.00 Z" />
<path fill="#f5faf7" opacity="1.00" d=" M 57.90 70.87 C 61.52 70.96 60.02 75.05 60.20 77.36 C 65.63 77.40 71.06 77.39 76.49 77.37 C 76.43 75.68 76.38 73.98 76.33 72.29 C 76.98 72.25 78.29 72.17 78.94 72.13 C 78.72 74.62 80.05 78.76 76.90 79.80 C 65.92 80.16 54.91 79.81 43.92 79.97 C 42.42 79.86 40.36 80.25 39.51 78.64 C 38.60 76.60 39.12 74.27 39.09 72.10 C 39.74 72.15 41.02 72.25 41.67 72.30 C 41.62 73.99 41.57 75.68 41.51 77.37 C 46.94 77.39 52.36 77.40 57.78 77.36 C 57.74 75.19 57.72 73.03 57.90 70.87 Z" />
</g>
</svg>
