<?xml version="1.0" encoding="UTF-8" ?>
<!DOCTYPE svg PUBLIC "-//W3C//DTD SVG 1.1//EN" "http://www.w3.org/Graphics/SVG/1.1/DTD/svg11.dtd">
<svg width="117px" height="140px" viewBox="0 0 117 140" version="1.1" xmlns="http://www.w3.org/2000/svg">
<g id="#000000ff">
<path fill="#000000" opacity="1.00" d=" M 0.00 0.00 L 117.00 0.00 L 117.00 140.00 L 0.00 140.00 L 0.00 0.00 M 29.50 10.79 C 14.75 13.61 3.34 27.96 4.17 43.01 C 4.23 62.00 4.09 81.00 4.24 99.99 C 4.76 115.88 19.06 129.76 34.97 129.80 C 50.63 129.81 66.30 129.90 81.97 129.75 C 97.84 129.26 111.74 114.99 111.79 99.10 C 111.85 79.73 111.84 60.37 111.79 41.00 C 111.80 25.08 97.89 10.78 82.00 10.25 C 68.35 10.08 54.69 10.23 41.04 10.17 C 37.19 10.18 33.30 10.02 29.50 10.79 Z" />
<path fill="#000000" opacity="1.00" d=" M 29.41 12.58 C 31.90 12.00 34.45 11.75 37.00 11.80 C 52.02 11.89 67.05 11.73 82.06 11.88 C 96.69 12.70 109.37 25.36 110.13 40.01 C 110.26 59.33 110.12 78.66 110.20 97.98 C 110.24 105.69 107.04 113.22 101.82 118.84 C 96.16 124.68 88.15 128.17 80.00 128.19 C 65.35 128.18 50.70 128.16 36.05 128.20 C 26.02 128.18 16.06 122.90 10.72 114.36 C 7.50 109.54 5.86 103.77 5.81 98.00 C 5.83 78.99 5.81 59.97 5.82 40.95 C 6.16 27.61 16.32 15.31 29.41 12.58 M 46.61 42.00 C 46.60 50.67 46.60 59.33 46.61 68.00 C 49.53 68.00 52.46 68.00 55.39 68.00 C 55.40 59.33 55.40 50.67 55.39 42.00 C 52.46 42.00 49.54 42.00 46.61 42.00 M 61.19 43.19 C 61.19 45.19 61.18 47.18 61.18 49.17 C 60.47 49.18 59.07 49.18 58.37 49.19 C 58.38 50.66 58.39 52.13 58.40 53.60 C 59.09 53.60 60.49 53.61 61.18 53.62 C 61.30 57.61 60.90 61.64 61.42 65.62 C 63.35 69.61 68.88 67.44 72.40 67.99 C 72.39 66.25 72.38 64.51 72.39 62.76 C 71.20 62.60 70.01 62.44 68.82 62.27 C 68.81 59.39 68.81 56.51 68.82 53.63 C 70.02 53.61 71.21 53.58 72.41 53.56 C 72.40 52.10 72.39 50.64 72.38 49.18 C 71.49 49.18 69.71 49.18 68.82 49.18 C 68.82 47.18 68.81 45.19 68.81 43.19 C 66.27 43.18 63.73 43.18 61.19 43.19 Z" />
</g>
<g id="#11eb51ff">
<path fill="#11eb51" opacity="1.00" d=" M 29.50 10.79 C 33.30 10.02 37.19 10.18 41.04 10.17 C 54.69 10.23 68.35 10.08 82.00 10.25 C 97.89 10.78 111.80 25.08 111.79 41.00 C 111.84 60.37 111.85 79.73 111.79 99.10 C 111.74 114.99 97.84 129.26 81.97 129.75 C 66.30 129.90 50.63 129.81 34.97 129.80 C 19.06 129.76 4.76 115.88 4.24 99.99 C 4.09 81.00 4.23 62.00 4.17 43.01 C 3.34 27.96 14.75 13.61 29.50 10.79 M 29.41 12.58 C 16.32 15.31 6.16 27.61 5.82 40.95 C 5.81 59.97 5.83 78.99 5.81 98.00 C 5.86 103.77 7.50 109.54 10.72 114.36 C 16.06 122.90 26.02 128.18 36.05 128.20 C 50.70 128.16 65.35 128.18 80.00 128.19 C 88.15 128.17 96.16 124.68 101.82 118.84 C 107.04 113.22 110.24 105.69 110.20 97.98 C 110.12 78.66 110.26 59.33 110.13 40.01 C 109.37 25.36 96.69 12.70 82.06 11.88 C 67.05 11.73 52.02 11.89 37.00 11.80 C 34.45 11.75 31.90 12.00 29.41 12.58 Z" />
<path fill="#11eb51" opacity="1.00" d=" M 46.61 42.00 C 49.54 42.00 52.46 42.00 55.39 42.00 C 55.40 50.67 55.40 59.33 55.39 68.00 C 52.46 68.00 49.53 68.00 46.61 68.00 C 46.60 59.33 46.60 50.67 46.61 42.00 Z" />
<path fill="#11eb51" opacity="1.00" d=" M 61.19 43.19 C 63.73 43.18 66.27 43.18 68.81 43.19 C 68.81 45.19 68.82 47.18 68.82 49.18 C 69.71 49.18 71.49 49.18 72.38 49.18 C 72.39 50.64 72.40 52.10 72.41 53.56 C 71.21 53.58 70.02 53.61 68.82 53.63 C 68.81 56.51 68.81 59.39 68.82 62.27 C 70.01 62.44 71.20 62.60 72.39 62.76 C 72.38 64.51 72.39 66.25 72.40 67.99 C 68.88 67.44 63.35 69.61 61.42 65.62 C 60.90 61.64 61.30 57.61 61.18 53.62 C 60.49 53.61 59.09 53.60 58.40 53.60 C 58.39 52.13 58.38 50.66 58.37 49.19 C 59.07 49.18 60.47 49.18 61.18 49.17 C 61.18 47.18 61.19 45.19 61.19 43.19 Z" />
</g>
</svg>
