<?xml version="1.0" encoding="UTF-8" ?>
<!DOCTYPE svg PUBLIC "-//W3C//DTD SVG 1.1//EN" "http://www.w3.org/Graphics/SVG/1.1/DTD/svg11.dtd">
<svg width="117px" height="140px" viewBox="0 0 117 140" version="1.1" xmlns="http://www.w3.org/2000/svg">
<g id="#000000ff">
<path fill="#000000" opacity="1.00" d=" M 0.00 0.00 L 117.00 0.00 L 117.00 140.00 L 0.00 140.00 L 0.00 0.00 M 31.72 10.70 C 29.35 11.41 26.95 12.02 24.55 12.64 L 24.52 13.77 C 24.05 13.61 23.10 13.29 22.63 13.14 L 22.61 14.64 C 22.14 14.55 21.21 14.37 20.74 14.28 L 20.54 15.18 C 19.09 15.97 17.74 16.91 16.36 17.83 L 16.84 18.93 L 15.36 17.94 L 15.73 19.15 C 14.36 19.44 13.53 20.27 13.25 21.63 L 12.79 21.50 C 11.75 23.11 10.58 24.64 9.35 26.12 L 9.72 27.54 L 8.14 27.67 C 8.30 28.13 8.62 29.05 8.77 29.51 L 7.64 29.55 C 6.76 33.34 5.28 37.05 5.39 41.00 C 5.36 60.34 5.37 79.67 5.39 99.00 C 5.28 102.95 6.74 106.67 7.65 110.45 L 8.77 110.48 C 8.61 110.95 8.30 111.89 8.14 112.36 L 9.64 112.39 C 9.55 112.86 9.39 113.80 9.31 114.26 L 10.19 114.48 C 10.98 115.92 11.92 117.27 12.82 118.64 L 13.93 118.16 L 12.95 119.63 L 14.14 119.29 C 14.45 120.66 15.28 121.47 16.63 121.74 L 16.47 122.26 C 17.80 123.14 19.12 124.05 20.53 124.81 L 20.74 125.70 C 21.21 125.62 22.16 125.46 22.63 125.38 L 22.65 126.92 C 23.11 126.73 24.04 126.36 24.50 126.17 L 24.48 127.55 C 25.34 127.54 27.06 127.54 27.92 127.54 L 27.23 128.59 C 28.71 128.58 30.18 128.56 31.65 128.52 L 31.40 129.44 C 49.82 129.74 68.26 129.75 86.68 129.43 L 86.22 128.51 C 87.70 128.55 89.18 128.59 90.67 128.62 L 90.22 127.53 C 91.05 127.53 92.71 127.54 93.53 127.54 L 93.48 126.19 C 93.95 126.37 94.89 126.72 95.36 126.90 L 95.37 125.36 C 95.84 125.45 96.79 125.63 97.26 125.71 L 97.46 124.81 C 98.87 124.04 100.19 123.13 101.53 122.26 L 101.38 121.74 C 102.70 121.44 103.54 120.62 103.89 119.26 L 105.06 119.68 L 104.08 118.16 L 105.17 118.65 C 106.08 117.28 107.03 115.93 107.80 114.48 L 108.68 114.28 C 108.60 113.80 108.45 112.84 108.38 112.37 L 109.91 112.35 C 109.73 111.90 109.37 110.98 109.19 110.52 L 110.34 110.48 C 110.95 108.48 111.59 106.47 111.62 104.37 C 111.79 104.39 112.15 104.44 112.32 104.46 C 112.74 98.67 112.61 92.85 112.63 87.05 C 112.41 69.99 113.07 52.91 112.26 35.88 C 111.51 33.80 110.84 31.70 110.34 29.55 L 109.19 29.48 C 109.37 29.03 109.73 28.11 109.90 27.65 L 108.37 27.62 C 108.45 27.14 108.61 26.20 108.69 25.72 L 107.80 25.53 C 107.02 24.08 106.09 22.73 105.19 21.37 L 104.09 21.79 L 104.97 20.42 L 103.37 20.67 L 103.56 18.96 L 102.10 19.78 L 102.72 18.04 L 101.14 18.81 L 101.67 17.81 C 100.29 16.90 98.92 15.97 97.47 15.20 L 97.26 14.29 C 96.79 14.38 95.85 14.55 95.37 14.63 L 95.35 13.11 C 94.88 13.29 93.93 13.64 93.46 13.81 L 93.54 12.45 C 92.69 12.46 91.00 12.48 90.15 12.50 L 90.74 11.43 C 89.23 11.43 87.73 11.45 86.23 11.48 L 86.69 10.58 C 73.79 10.14 60.87 10.48 47.96 10.37 C 42.55 10.46 37.12 10.13 31.72 10.70 Z" />
<path fill="#000000" opacity="1.00" d=" M 27.13 12.58 C 28.63 12.55 30.13 12.52 31.63 12.48 L 31.28 11.52 C 48.89 11.78 66.52 11.53 84.13 11.65 C 87.01 11.89 89.71 13.09 92.53 13.65 L 92.75 14.24 C 94.01 14.69 95.26 15.18 96.53 15.62 L 96.72 16.66 C 97.22 16.57 98.21 16.37 98.71 16.27 L 98.11 17.82 L 99.13 17.26 C 101.33 19.47 103.53 21.69 105.76 23.88 L 105.17 24.90 L 106.72 24.28 C 106.63 24.78 106.44 25.77 106.35 26.27 L 107.35 26.54 C 107.86 28.13 108.61 29.64 109.62 30.97 C 109.50 31.38 109.27 32.20 109.15 32.61 L 110.47 32.12 C 110.44 33.00 110.38 34.77 110.35 35.65 L 111.46 35.45 C 111.33 58.25 111.31 81.06 111.46 103.87 L 110.55 103.27 C 110.50 104.78 110.46 106.29 110.43 107.80 L 109.20 107.42 C 109.31 107.83 109.54 108.65 109.65 109.05 C 109.28 109.57 108.55 110.61 108.19 111.12 C 107.98 111.73 107.57 112.93 107.37 113.53 L 106.32 113.73 C 106.43 114.22 106.65 115.20 106.76 115.70 L 105.28 115.13 L 105.68 116.17 C 103.51 118.36 101.33 120.52 99.16 122.70 L 98.12 122.27 L 98.69 123.77 C 98.20 123.66 97.22 123.42 96.73 123.31 L 96.52 124.33 C 95.05 124.90 93.61 125.56 92.22 126.30 C 90.07 127.18 87.79 127.61 85.48 127.78 L 85.74 128.48 C 68.84 128.25 51.94 128.42 35.04 128.39 C 33.75 128.40 32.49 128.23 31.26 127.87 C 29.33 127.37 27.40 126.82 25.46 126.36 L 25.26 125.75 C 24.00 125.33 22.75 124.88 21.49 124.44 L 21.27 123.34 C 20.78 123.44 19.80 123.62 19.31 123.72 L 19.86 122.17 L 18.87 122.74 C 16.68 120.53 14.48 118.33 12.27 116.14 L 12.78 115.11 L 11.29 115.70 C 11.35 115.30 11.46 114.48 11.52 114.08 C 10.88 113.13 10.26 112.17 9.68 111.20 C 9.35 110.65 8.69 109.55 8.36 109.00 C 8.50 108.56 8.77 107.68 8.90 107.24 L 7.77 108.05 C 7.63 106.43 7.50 104.77 6.70 103.31 C 6.47 80.95 6.80 58.58 6.53 36.22 L 7.47 36.66 C 7.51 35.14 7.54 33.63 7.57 32.12 L 8.79 32.63 C 8.68 32.21 8.47 31.36 8.36 30.94 C 8.73 30.42 9.47 29.38 9.83 28.86 C 10.04 28.26 10.44 27.06 10.65 26.46 L 11.67 26.29 C 11.57 25.79 11.36 24.80 11.26 24.30 L 12.78 24.86 L 12.28 23.85 C 14.46 21.67 16.65 19.50 18.82 17.31 L 19.85 17.74 L 19.32 16.26 C 19.81 16.36 20.78 16.57 21.27 16.67 L 21.55 15.66 C 23.14 15.15 24.66 14.41 25.98 13.38 C 26.39 13.50 27.19 13.76 27.60 13.88 L 27.13 12.58 M 57.19 27.05 C 57.20 34.32 57.24 41.60 57.16 48.87 C 57.95 48.89 59.54 48.93 60.33 48.95 C 60.34 41.63 60.33 34.31 60.34 26.99 C 59.55 27.01 57.98 27.04 57.19 27.05 M 37.14 42.17 C 31.62 50.29 31.63 61.75 37.21 69.84 C 41.35 76.10 48.39 80.38 55.91 80.89 C 63.89 81.64 72.09 78.23 77.16 72.01 C 82.88 65.42 84.46 55.74 81.58 47.57 C 79.74 42.18 75.81 37.80 71.23 34.55 C 70.44 35.33 69.64 36.12 68.85 36.91 C 77.04 41.56 81.58 51.71 79.29 60.89 C 77.67 68.27 71.93 74.52 64.72 76.77 C 57.57 79.21 49.25 77.43 43.62 72.43 C 37.08 66.87 34.43 57.22 37.26 49.11 C 38.85 43.95 42.58 39.69 47.15 36.91 C 46.35 36.12 45.55 35.33 44.76 34.55 C 41.89 36.72 39.09 39.11 37.14 42.17 Z" />
</g>
<g id="#eff4f4ff">
<path fill="#eff4f4" opacity="1.00" d=" M 31.72 10.70 C 37.12 10.13 42.55 10.46 47.96 10.37 C 60.87 10.48 73.79 10.14 86.69 10.58 L 86.23 11.48 C 87.73 11.45 89.23 11.43 90.74 11.43 L 90.15 12.50 C 91.00 12.48 92.69 12.46 93.54 12.45 L 93.46 13.81 C 93.93 13.64 94.88 13.29 95.35 13.11 L 95.37 14.63 C 95.85 14.55 96.79 14.38 97.26 14.29 L 97.47 15.20 C 98.92 15.97 100.29 16.90 101.67 17.81 L 101.14 18.81 L 102.72 18.04 L 102.10 19.78 L 103.56 18.96 L 103.37 20.67 L 104.97 20.42 L 104.09 21.79 L 105.19 21.37 C 106.09 22.73 107.02 24.08 107.80 25.53 L 108.69 25.72 C 108.61 26.20 108.45 27.14 108.37 27.62 L 109.90 27.65 C 109.73 28.11 109.37 29.03 109.19 29.48 L 110.34 29.55 C 110.84 31.70 111.51 33.80 112.26 35.88 C 113.07 52.91 112.41 69.99 112.63 87.05 C 112.61 92.85 112.74 98.67 112.32 104.46 C 112.15 104.44 111.79 104.39 111.62 104.37 C 111.59 106.47 110.95 108.48 110.34 110.48 L 109.19 110.52 C 109.37 110.98 109.73 111.90 109.91 112.35 L 108.38 112.37 C 108.45 112.84 108.60 113.80 108.68 114.28 L 107.80 114.48 C 107.03 115.93 106.08 117.28 105.17 118.65 L 104.08 118.16 L 105.06 119.68 L 103.89 119.26 C 103.54 120.62 102.70 121.44 101.38 121.74 L 101.53 122.26 C 100.19 123.13 98.87 124.04 97.46 124.81 L 97.26 125.71 C 96.79 125.63 95.84 125.45 95.37 125.36 L 95.36 126.90 C 94.89 126.72 93.95 126.37 93.48 126.19 L 93.53 127.54 C 92.71 127.54 91.05 127.53 90.22 127.53 L 90.67 128.62 C 89.18 128.59 87.70 128.55 86.22 128.51 L 86.68 129.43 C 68.26 129.75 49.82 129.74 31.40 129.44 L 31.65 128.52 C 30.18 128.56 28.71 128.58 27.23 128.59 L 27.92 127.54 C 27.06 127.54 25.34 127.54 24.48 127.55 L 24.50 126.17 C 24.04 126.36 23.11 126.73 22.65 126.92 L 22.63 125.38 C 22.16 125.46 21.21 125.62 20.74 125.70 L 20.53 124.81 C 19.12 124.05 17.80 123.14 16.47 122.26 L 16.63 121.74 C 15.28 121.47 14.45 120.66 14.14 119.29 L 12.95 119.63 L 13.93 118.16 L 12.82 118.64 C 11.92 117.27 10.98 115.92 10.19 114.48 L 9.31 114.26 C 9.39 113.80 9.55 112.86 9.64 112.39 L 8.14 112.36 C 8.30 111.89 8.61 110.95 8.77 110.48 L 7.65 110.45 C 6.74 106.67 5.28 102.95 5.39 99.00 C 5.37 79.67 5.36 60.34 5.39 41.00 C 5.28 37.05 6.76 33.34 7.64 29.55 L 8.77 29.51 C 8.62 29.05 8.30 28.13 8.14 27.67 L 9.72 27.54 L 9.35 26.12 C 10.58 24.64 11.75 23.11 12.79 21.50 L 13.25 21.63 C 13.53 20.27 14.36 19.44 15.73 19.15 L 15.36 17.94 L 16.84 18.93 L 16.36 17.83 C 17.74 16.91 19.09 15.97 20.54 15.18 L 20.74 14.28 C 21.21 14.37 22.14 14.55 22.61 14.64 L 22.63 13.14 C 23.10 13.29 24.05 13.61 24.52 13.77 L 24.55 12.64 C 26.95 12.02 29.35 11.41 31.72 10.70 M 27.13 12.58 L 27.60 13.88 C 27.19 13.76 26.39 13.50 25.98 13.38 C 24.66 14.41 23.14 15.15 21.55 15.66 L 21.27 16.67 C 20.78 16.57 19.81 16.36 19.32 16.26 L 19.85 17.74 L 18.82 17.31 C 16.65 19.50 14.46 21.67 12.28 23.85 L 12.78 24.86 L 11.26 24.30 C 11.36 24.80 11.57 25.79 11.67 26.29 L 10.65 26.46 C 10.44 27.06 10.04 28.26 9.83 28.86 C 9.47 29.38 8.73 30.42 8.36 30.94 C 8.47 31.36 8.68 32.21 8.79 32.63 L 7.57 32.12 C 7.54 33.63 7.51 35.14 7.47 36.66 L 6.53 36.22 C 6.80 58.58 6.47 80.95 6.70 103.31 C 7.50 104.77 7.63 106.43 7.77 108.05 L 8.90 107.24 C 8.77 107.68 8.50 108.56 8.36 109.00 C 8.69 109.55 9.35 110.65 9.68 111.20 C 10.26 112.17 10.88 113.13 11.52 114.08 C 11.46 114.48 11.35 115.30 11.29 115.70 L 12.78 115.11 L 12.27 116.14 C 14.48 118.33 16.68 120.53 18.87 122.74 L 19.86 122.17 L 19.31 123.72 C 19.80 123.62 20.78 123.44 21.27 123.34 L 21.49 124.44 C 22.75 124.88 24.00 125.33 25.26 125.75 L 25.46 126.36 C 27.40 126.82 29.33 127.37 31.26 127.87 C 32.49 128.23 33.75 128.40 35.04 128.39 C 51.94 128.42 68.84 128.25 85.74 128.48 L 85.48 127.78 C 87.79 127.61 90.07 127.18 92.22 126.30 C 93.61 125.56 95.05 124.90 96.52 124.33 L 96.73 123.31 C 97.22 123.42 98.20 123.66 98.69 123.77 L 98.12 122.27 L 99.16 122.70 C 101.33 120.52 103.51 118.36 105.68 116.17 L 105.28 115.13 L 106.76 115.70 C 106.65 115.20 106.43 114.22 106.32 113.73 L 107.37 113.53 C 107.57 112.93 107.98 111.73 108.19 111.12 C 108.55 110.61 109.28 109.57 109.65 109.05 C 109.54 108.65 109.31 107.83 109.20 107.42 L 110.43 107.80 C 110.46 106.29 110.50 104.78 110.55 103.27 L 111.46 103.87 C 111.31 81.06 111.33 58.25 111.46 35.45 L 110.35 35.65 C 110.38 34.77 110.44 33.00 110.47 32.12 L 109.15 32.61 C 109.27 32.20 109.50 31.38 109.62 30.97 C 108.61 29.64 107.86 28.13 107.35 26.54 L 106.35 26.27 C 106.44 25.77 106.63 24.78 106.72 24.28 L 105.17 24.90 L 105.76 23.88 C 103.53 21.69 101.33 19.47 99.13 17.26 L 98.11 17.82 L 98.71 16.27 C 98.21 16.37 97.22 16.57 96.72 16.66 L 96.53 15.62 C 95.26 15.18 94.01 14.69 92.75 14.24 L 92.53 13.65 C 89.71 13.09 87.01 11.89 84.13 11.65 C 66.52 11.53 48.89 11.78 31.28 11.52 L 31.63 12.48 C 30.13 12.52 28.63 12.55 27.13 12.58 Z" />
<path fill="#eff4f4" opacity="1.00" d=" M 57.19 27.05 C 57.98 27.04 59.55 27.01 60.34 26.99 C 60.33 34.31 60.34 41.63 60.33 48.95 C 59.54 48.93 57.95 48.89 57.16 48.87 C 57.24 41.60 57.20 34.32 57.19 27.05 Z" />
<path fill="#eff4f4" opacity="1.00" d=" M 37.14 42.17 C 39.09 39.11 41.89 36.72 44.76 34.55 C 45.55 35.33 46.35 36.12 47.15 36.91 C 42.58 39.69 38.85 43.95 37.26 49.11 C 34.43 57.22 37.08 66.87 43.62 72.43 C 49.25 77.43 57.57 79.21 64.72 76.77 C 71.93 74.52 77.67 68.27 79.29 60.89 C 81.58 51.71 77.04 41.56 68.85 36.91 C 69.64 36.12 70.44 35.33 71.23 34.55 C 75.81 37.80 79.74 42.18 81.58 47.57 C 84.46 55.74 82.88 65.42 77.16 72.01 C 72.09 78.23 63.89 81.64 55.91 80.89 C 48.39 80.38 41.35 76.10 37.21 69.84 C 31.63 61.75 31.62 50.29 37.14 42.17 Z" />
</g>
</svg>
