<?xml version="1.0" encoding="UTF-8" ?>
<!DOCTYPE svg PUBLIC "-//W3C//DTD SVG 1.1//EN" "http://www.w3.org/Graphics/SVG/1.1/DTD/svg11.dtd">
<svg width="117px" height="140px" viewBox="0 0 117 140" version="1.1" xmlns="http://www.w3.org/2000/svg">
<g id="#000000ff">
<path fill="#000000" opacity="1.00" d=" M 0.00 0.00 L 117.00 0.00 L 117.00 140.00 L 0.00 140.00 L 0.00 0.00 M 31.27 10.60 L 31.83 11.45 C 30.28 11.44 28.73 11.44 27.18 11.44 L 27.99 12.45 C 27.11 12.45 25.35 12.46 24.47 12.46 L 24.54 13.83 C 24.08 13.66 23.16 13.30 22.70 13.13 L 22.50 14.78 L 20.85 14.21 C 20.77 14.45 20.59 14.93 20.51 15.17 C 19.57 15.74 18.65 16.33 17.74 16.94 C 15.72 17.96 13.81 19.38 13.21 21.68 L 12.89 21.29 C 11.94 22.68 10.95 24.06 10.21 25.58 L 9.27 25.75 C 9.37 26.21 9.58 27.14 9.68 27.60 L 8.13 27.65 C 8.30 28.12 8.64 29.06 8.81 29.53 L 7.72 29.49 C 7.09 31.55 6.41 33.61 6.31 35.78 L 5.69 35.50 C 5.19 42.32 5.44 49.15 5.39 55.98 C 5.55 72.16 5.05 88.35 5.67 104.51 C 5.84 104.45 6.16 104.33 6.32 104.27 C 6.45 106.40 7.08 108.45 7.68 110.49 L 8.79 110.47 C 8.63 110.94 8.31 111.88 8.15 112.35 L 9.69 112.41 C 9.59 112.87 9.38 113.80 9.28 114.27 L 10.15 114.38 C 10.94 115.88 11.92 117.26 12.86 118.67 L 14.01 118.30 L 13.01 119.63 L 14.69 119.29 L 14.29 120.88 L 15.68 120.20 L 15.31 121.84 L 16.71 121.18 L 16.35 122.15 C 17.75 123.08 19.14 124.05 20.63 124.85 L 20.73 125.73 C 21.20 125.63 22.14 125.42 22.61 125.32 L 22.66 126.90 C 23.13 126.71 24.06 126.34 24.53 126.15 L 24.48 127.54 C 25.35 127.54 27.10 127.56 27.98 127.56 L 27.20 128.60 C 28.10 128.58 29.89 128.53 30.78 128.51 L 30.48 129.29 C 37.99 129.85 45.52 129.53 53.04 129.61 C 64.26 129.53 75.48 129.81 86.69 129.42 L 86.18 128.62 C 88.72 128.83 91.13 128.07 93.51 127.29 L 93.46 126.20 C 93.93 126.36 94.86 126.69 95.32 126.85 L 95.50 125.21 L 97.18 125.81 C 97.24 125.56 97.34 125.07 97.39 124.82 C 98.89 124.04 100.27 123.07 101.68 122.15 L 101.25 121.01 L 102.59 121.97 L 102.34 120.33 L 104.00 120.61 L 103.09 119.16 L 104.79 119.86 L 104.19 118.37 L 105.20 118.61 C 106.11 117.25 107.03 115.89 107.81 114.45 L 108.70 114.25 C 108.61 113.79 108.42 112.86 108.33 112.39 L 109.90 112.34 C 109.71 111.88 109.35 110.95 109.16 110.48 L 110.55 110.51 C 110.55 109.64 110.55 107.89 110.54 107.02 L 111.32 107.81 C 113.14 101.35 112.51 94.60 112.61 87.98 C 112.44 70.48 112.97 52.96 112.31 35.47 L 111.70 35.80 C 111.58 33.63 110.92 31.56 110.30 29.49 L 109.20 29.53 C 109.36 29.06 109.69 28.14 109.86 27.67 L 108.23 27.52 L 108.78 25.84 C 108.53 25.76 108.02 25.60 107.76 25.53 C 107.01 24.05 106.06 22.69 105.13 21.33 L 103.96 21.69 L 105.00 20.40 L 103.33 20.67 L 103.62 19.03 L 102.20 19.85 L 102.80 18.15 L 101.31 18.85 L 101.66 17.86 C 100.25 16.92 98.87 15.94 97.38 15.15 L 97.26 14.26 C 96.80 14.37 95.87 14.58 95.41 14.68 L 95.34 13.13 C 94.87 13.30 93.94 13.64 93.47 13.81 L 93.53 12.73 C 89.46 11.60 85.37 10.18 81.09 10.39 C 64.48 10.51 47.87 10.13 31.27 10.60 Z" />
<path fill="#000000" opacity="1.00" d=" M 25.38 13.67 C 28.24 13.10 30.99 11.89 33.91 11.62 C 51.56 11.55 69.21 11.72 86.87 11.54 L 86.25 12.44 C 87.78 12.50 89.31 12.54 90.85 12.58 L 90.44 13.86 C 90.83 13.73 91.62 13.46 92.01 13.33 C 93.33 14.41 94.88 15.14 96.50 15.62 L 96.75 16.70 C 97.24 16.57 98.21 16.32 98.70 16.19 L 98.12 17.70 L 99.13 17.25 C 101.33 19.45 103.51 21.66 105.73 23.84 L 105.34 24.89 L 106.83 24.32 C 106.70 24.80 106.43 25.76 106.29 26.24 L 107.36 26.48 C 107.90 28.10 108.61 29.66 109.67 31.01 C 109.54 31.41 109.29 32.22 109.16 32.63 L 110.21 32.11 C 110.41 33.68 110.65 35.28 111.30 36.74 C 111.56 59.43 111.23 82.12 111.46 104.81 L 110.59 104.23 C 110.30 106.05 109.80 107.83 109.38 109.62 L 108.80 109.68 C 108.37 110.97 107.90 112.25 107.45 113.53 L 106.32 113.75 C 106.44 114.23 106.67 115.20 106.78 115.69 L 105.23 115.14 L 105.78 116.14 C 103.55 118.30 101.35 120.50 99.17 122.72 L 98.09 122.39 L 98.69 123.89 C 98.21 123.73 97.26 123.42 96.78 123.26 L 96.53 124.38 C 94.91 124.90 93.35 125.60 92.00 126.67 C 91.62 126.54 90.84 126.26 90.45 126.13 L 90.84 127.39 C 89.03 127.46 87.21 127.59 85.40 127.70 L 85.79 128.47 C 67.76 128.27 49.72 128.47 31.68 128.36 C 29.72 127.39 27.62 126.72 25.45 126.40 C 25.40 126.24 25.30 125.93 25.25 125.78 C 23.98 125.33 22.72 124.88 21.46 124.42 C 21.39 124.12 21.25 123.53 21.18 123.23 L 19.67 123.93 L 19.59 122.62 L 18.69 122.47 C 16.47 120.44 14.40 118.25 12.27 116.14 L 12.66 115.10 L 11.16 115.69 C 11.30 115.21 11.57 114.25 11.71 113.77 L 10.64 113.52 C 10.10 111.90 9.38 110.35 8.33 109.00 C 8.46 108.59 8.71 107.79 8.84 107.38 L 7.79 107.90 C 7.58 106.31 7.36 104.72 6.71 103.26 C 6.55 81.09 6.55 58.92 6.71 36.75 C 7.36 35.27 7.59 33.67 7.79 32.09 L 8.86 32.63 C 8.72 32.22 8.43 31.41 8.29 31.00 C 8.66 30.47 9.40 29.42 9.77 28.89 C 10.00 28.27 10.44 27.02 10.67 26.40 L 11.71 26.26 C 11.58 25.77 11.31 24.80 11.18 24.31 L 12.69 24.89 L 12.25 23.86 C 13.82 22.26 15.44 20.69 17.09 19.16 C 17.89 18.43 18.71 17.72 19.57 17.06 L 19.50 16.03 L 21.16 16.81 C 21.24 16.49 21.42 15.86 21.50 15.54 C 22.78 15.09 24.04 14.63 25.32 14.20 L 25.38 13.67 M 48.44 32.61 C 45.85 32.32 47.04 35.77 49.03 35.24 C 55.70 35.23 62.38 35.08 69.05 35.23 C 70.56 35.12 72.25 35.60 73.63 34.80 C 75.40 32.35 71.62 32.49 70.08 32.45 C 62.87 32.61 55.64 32.27 48.44 32.61 M 46.75 36.09 C 46.91 36.74 47.22 38.06 47.38 38.71 C 56.08 39.19 64.90 39.13 73.60 38.74 C 73.76 38.08 74.09 36.75 74.25 36.08 C 65.10 35.66 55.91 35.70 46.75 36.09 M 47.12 40.23 C 47.23 41.83 46.33 44.63 48.95 44.24 C 56.90 44.26 64.88 44.49 72.82 44.12 C 74.79 44.09 73.54 41.47 73.94 40.27 C 65.01 40.06 56.06 40.14 47.12 40.23 M 46.84 45.99 C 46.91 47.25 47.04 48.52 47.21 49.77 C 48.53 50.95 50.38 50.40 51.96 50.55 C 58.87 50.39 65.80 50.73 72.71 50.41 C 74.75 49.91 73.68 47.41 74.14 45.97 C 65.08 45.38 55.90 45.36 46.84 45.99 M 47.12 51.90 C 47.04 53.62 47.00 55.34 46.97 57.06 C 44.24 57.06 41.51 57.06 38.79 57.04 C 37.76 57.67 36.73 58.29 35.69 58.90 C 36.36 60.26 37.16 61.65 38.69 62.16 C 44.99 65.11 50.97 68.65 57.13 71.87 C 58.57 72.55 60.22 73.83 61.82 72.84 C 68.70 69.39 75.33 65.47 82.29 62.17 C 83.83 61.64 84.65 60.22 85.44 58.91 C 82.17 56.30 77.90 57.14 74.03 57.07 C 74.00 55.35 73.96 53.63 73.88 51.91 C 64.97 51.62 56.03 51.63 47.12 51.90 Z" />
<path fill="#000000" opacity="1.00" d=" M 51.03 55.87 C 57.34 55.88 63.66 55.88 69.97 55.87 C 69.94 57.61 69.92 59.36 69.93 61.10 C 71.86 61.12 73.80 61.06 75.73 60.99 C 70.52 63.34 65.66 66.38 60.56 68.95 C 55.41 66.48 50.53 63.49 45.34 61.11 C 47.25 61.12 49.17 61.12 51.08 61.06 C 51.08 59.33 51.05 57.60 51.03 55.87 Z" />
</g>
<g id="#f5f9f6ff">
<path fill="#f5f9f6" opacity="1.00" d=" M 31.27 10.60 C 47.87 10.13 64.48 10.51 81.09 10.39 C 85.37 10.18 89.46 11.60 93.53 12.73 L 93.47 13.81 C 93.94 13.64 94.87 13.30 95.34 13.13 L 95.41 14.68 C 95.87 14.58 96.80 14.37 97.26 14.26 L 97.38 15.15 C 98.87 15.94 100.25 16.92 101.66 17.86 L 101.31 18.85 L 102.80 18.15 L 102.20 19.85 L 103.62 19.03 L 103.33 20.67 L 105.00 20.40 L 103.96 21.69 L 105.13 21.33 C 106.06 22.69 107.01 24.05 107.76 25.53 C 108.02 25.60 108.53 25.76 108.78 25.84 L 108.23 27.52 L 109.86 27.67 C 109.69 28.14 109.36 29.06 109.20 29.53 L 110.30 29.49 C 110.92 31.56 111.58 33.63 111.70 35.80 L 112.31 35.47 C 112.97 52.96 112.44 70.48 112.61 87.98 C 112.51 94.60 113.14 101.35 111.32 107.81 L 110.54 107.02 C 110.55 107.89 110.55 109.64 110.55 110.51 L 109.16 110.48 C 109.35 110.95 109.71 111.88 109.90 112.34 L 108.33 112.39 C 108.42 112.86 108.61 113.79 108.70 114.25 L 107.81 114.45 C 107.03 115.89 106.11 117.25 105.20 118.61 L 104.19 118.37 L 104.79 119.86 L 103.09 119.16 L 104.00 120.61 L 102.34 120.33 L 102.59 121.97 L 101.25 121.01 L 101.68 122.15 C 100.27 123.07 98.89 124.04 97.39 124.82 C 97.34 125.07 97.24 125.56 97.18 125.81 L 95.50 125.21 L 95.32 126.85 C 94.86 126.69 93.93 126.36 93.46 126.20 L 93.51 127.29 C 91.13 128.07 88.72 128.83 86.18 128.62 L 86.69 129.42 C 75.48 129.81 64.26 129.53 53.04 129.61 C 45.52 129.53 37.99 129.85 30.48 129.29 L 30.78 128.51 C 29.89 128.53 28.10 128.58 27.20 128.60 L 27.98 127.56 C 27.10 127.56 25.35 127.54 24.48 127.54 L 24.53 126.15 C 24.06 126.34 23.13 126.71 22.66 126.90 L 22.61 125.32 C 22.14 125.42 21.20 125.63 20.73 125.73 L 20.63 124.85 C 19.14 124.05 17.75 123.08 16.35 122.15 L 16.71 121.18 L 15.31 121.84 L 15.68 120.20 L 14.29 120.88 L 14.69 119.29 L 13.01 119.63 L 14.01 118.30 L 12.86 118.67 C 11.92 117.26 10.94 115.88 10.15 114.38 L 9.28 114.27 C 9.38 113.80 9.59 112.87 9.69 112.41 L 8.15 112.35 C 8.31 111.88 8.63 110.94 8.79 110.47 L 7.68 110.49 C 7.08 108.45 6.45 106.40 6.32 104.27 C 6.16 104.33 5.84 104.45 5.67 104.51 C 5.05 88.35 5.55 72.16 5.39 55.98 C 5.44 49.15 5.19 42.32 5.69 35.50 L 6.31 35.78 C 6.41 33.61 7.09 31.55 7.72 29.49 L 8.81 29.53 C 8.64 29.06 8.30 28.12 8.13 27.65 L 9.68 27.60 C 9.58 27.14 9.37 26.21 9.27 25.75 L 10.21 25.58 C 10.95 24.06 11.94 22.68 12.89 21.29 L 13.21 21.68 C 13.81 19.38 15.72 17.96 17.74 16.94 C 18.65 16.33 19.57 15.74 20.51 15.17 C 20.59 14.93 20.77 14.45 20.85 14.21 L 22.50 14.78 L 22.70 13.13 C 23.16 13.30 24.08 13.66 24.54 13.83 L 24.47 12.46 C 25.35 12.46 27.11 12.45 27.99 12.45 L 27.18 11.44 C 28.73 11.44 30.28 11.44 31.83 11.45 L 31.27 10.60 M 25.38 13.67 L 25.32 14.20 C 24.04 14.63 22.78 15.09 21.50 15.54 C 21.42 15.86 21.24 16.49 21.16 16.81 L 19.50 16.03 L 19.57 17.06 C 18.71 17.72 17.89 18.43 17.09 19.16 C 15.44 20.69 13.82 22.26 12.25 23.86 L 12.69 24.89 L 11.18 24.31 C 11.31 24.80 11.58 25.77 11.71 26.26 L 10.67 26.40 C 10.44 27.02 10.00 28.27 9.77 28.89 C 9.40 29.42 8.66 30.47 8.29 31.00 C 8.43 31.41 8.72 32.22 8.86 32.63 L 7.79 32.09 C 7.59 33.67 7.36 35.27 6.71 36.75 C 6.55 58.92 6.55 81.09 6.71 103.26 C 7.36 104.72 7.58 106.31 7.79 107.90 L 8.84 107.38 C 8.71 107.79 8.46 108.59 8.33 109.00 C 9.38 110.35 10.10 111.90 10.64 113.52 L 11.71 113.77 C 11.57 114.25 11.30 115.21 11.16 115.69 L 12.66 115.10 L 12.27 116.14 C 14.40 118.25 16.47 120.44 18.69 122.47 L 19.59 122.62 L 19.67 123.93 L 21.18 123.23 C 21.25 123.53 21.39 124.12 21.46 124.42 C 22.72 124.88 23.98 125.33 25.25 125.78 C 25.30 125.93 25.40 126.24 25.45 126.40 C 27.62 126.72 29.72 127.39 31.68 128.36 C 49.72 128.47 67.76 128.27 85.79 128.47 L 85.40 127.70 C 87.21 127.59 89.03 127.46 90.84 127.39 L 90.45 126.13 C 90.84 126.26 91.62 126.54 92.00 126.67 C 93.35 125.60 94.91 124.90 96.53 124.38 L 96.78 123.26 C 97.26 123.42 98.21 123.73 98.69 123.89 L 98.09 122.39 L 99.17 122.72 C 101.35 120.50 103.55 118.30 105.78 116.14 L 105.23 115.14 L 106.78 115.69 C 106.67 115.20 106.44 114.23 106.32 113.75 L 107.45 113.53 C 107.90 112.25 108.37 110.97 108.80 109.68 L 109.38 109.62 C 109.80 107.83 110.30 106.05 110.59 104.23 L 111.46 104.81 C 111.23 82.12 111.56 59.43 111.30 36.74 C 110.65 35.28 110.41 33.68 110.21 32.11 L 109.16 32.63 C 109.29 32.22 109.54 31.41 109.67 31.01 C 108.61 29.66 107.90 28.10 107.36 26.48 L 106.29 26.24 C 106.43 25.76 106.70 24.80 106.83 24.32 L 105.34 24.89 L 105.73 23.84 C 103.51 21.66 101.33 19.45 99.13 17.25 L 98.12 17.70 L 98.70 16.19 C 98.21 16.32 97.24 16.57 96.75 16.70 L 96.50 15.62 C 94.88 15.14 93.33 14.41 92.01 13.33 C 91.62 13.46 90.83 13.73 90.44 13.86 L 90.85 12.58 C 89.31 12.54 87.78 12.50 86.25 12.44 L 86.87 11.54 C 69.21 11.72 51.56 11.55 33.91 11.62 C 30.99 11.89 28.24 13.10 25.38 13.67 Z" />
<path fill="#f5f9f6" opacity="1.00" d=" M 48.44 32.61 C 55.64 32.27 62.87 32.61 70.08 32.45 C 71.62 32.49 75.40 32.35 73.63 34.80 C 72.25 35.60 70.56 35.12 69.05 35.23 C 62.38 35.08 55.70 35.23 49.03 35.24 C 47.04 35.77 45.85 32.32 48.44 32.61 Z" />
<path fill="#f5f9f6" opacity="1.00" d=" M 46.75 36.09 C 55.91 35.70 65.10 35.66 74.25 36.08 C 74.09 36.75 73.76 38.08 73.60 38.74 C 64.90 39.13 56.08 39.19 47.38 38.71 C 47.22 38.06 46.91 36.74 46.75 36.09 Z" />
<path fill="#f5f9f6" opacity="1.00" d=" M 47.12 40.23 C 56.06 40.14 65.01 40.06 73.94 40.27 C 73.54 41.47 74.79 44.09 72.82 44.12 C 64.88 44.49 56.90 44.26 48.95 44.24 C 46.33 44.63 47.23 41.83 47.12 40.23 Z" />
<path fill="#f5f9f6" opacity="1.00" d=" M 46.84 45.99 C 55.90 45.36 65.08 45.38 74.14 45.97 C 73.68 47.41 74.75 49.91 72.71 50.41 C 65.80 50.73 58.87 50.39 51.96 50.55 C 50.38 50.40 48.53 50.95 47.21 49.77 C 47.04 48.52 46.91 47.25 46.84 45.99 Z" />
<path fill="#f5f9f6" opacity="1.00" d=" M 47.12 51.90 C 56.03 51.63 64.97 51.62 73.88 51.91 C 73.96 53.63 74.00 55.35 74.03 57.07 C 77.90 57.14 82.17 56.30 85.44 58.91 C 84.65 60.22 83.83 61.64 82.29 62.17 C 75.33 65.47 68.70 69.39 61.82 72.84 C 60.22 73.83 58.57 72.55 57.13 71.87 C 50.97 68.65 44.99 65.11 38.69 62.16 C 37.16 61.65 36.36 60.26 35.69 58.90 C 36.73 58.29 37.76 57.67 38.79 57.04 C 41.51 57.06 44.24 57.06 46.97 57.06 C 47.00 55.34 47.04 53.62 47.12 51.90 M 51.03 55.87 C 51.05 57.60 51.08 59.33 51.08 61.06 C 49.17 61.12 47.25 61.12 45.34 61.11 C 50.53 63.49 55.41 66.48 60.56 68.95 C 65.66 66.38 70.52 63.34 75.73 60.99 C 73.80 61.06 71.86 61.12 69.93 61.10 C 69.92 59.36 69.94 57.61 69.97 55.87 C 63.66 55.88 57.34 55.88 51.03 55.87 Z" />
</g>
</svg>
