<?xml version="1.0" encoding="UTF-8" ?>
<!DOCTYPE svg PUBLIC "-//W3C//DTD SVG 1.1//EN" "http://www.w3.org/Graphics/SVG/1.1/DTD/svg11.dtd">
<svg width="28px" height="21px" viewBox="0 0 28 21" version="1.1" xmlns="http://www.w3.org/2000/svg">
<g id="#000000ff">
<path fill="#000000" opacity="1.00" d=" M 0.00 0.00 L 7.94 0.00 C 7.94 2.49 7.93 4.99 7.93 7.48 C 5.29 7.49 2.64 7.49 0.00 7.49 L 0.00 0.00 Z" />
<path fill="#000000" opacity="1.00" d=" M 19.06 0.00 L 28.00 0.00 L 28.00 21.00 L 13.58 21.00 C 18.08 16.51 22.60 12.03 27.06 7.50 C 24.39 7.48 21.73 7.49 19.07 7.48 C 19.07 4.99 19.06 2.49 19.06 0.00 Z" />
<path fill="#000000" opacity="1.00" d=" M 9.90 2.01 C 12.30 2.00 14.70 2.00 17.10 2.01 C 17.11 4.52 17.09 7.04 17.13 9.56 C 18.79 9.58 20.46 9.58 22.12 9.57 C 19.25 12.46 16.41 15.39 13.46 18.20 C 10.61 15.30 7.71 12.47 4.88 9.57 C 6.51 9.57 8.15 9.58 9.79 9.60 C 10.01 7.08 9.85 4.54 9.90 2.01 Z" />
<path fill="#000000" opacity="1.00" d=" M 0.00 7.56 C 4.45 12.07 8.94 16.53 13.42 21.00 L 0.00 21.00 L 0.00 7.56 Z" />
</g>
<g id="#f8fcf8ff">
<path fill="#f8fcf8" opacity="1.00" d=" M 7.94 0.00 L 19.06 0.00 C 19.06 2.49 19.07 4.99 19.07 7.48 C 21.73 7.49 24.39 7.48 27.06 7.50 C 22.60 12.03 18.08 16.51 13.58 21.00 L 13.42 21.00 C 8.94 16.53 4.45 12.07 0.00 7.56 L 0.00 7.49 C 2.64 7.49 5.29 7.49 7.93 7.48 C 7.93 4.99 7.94 2.49 7.94 0.00 M 9.90 2.01 C 9.85 4.54 10.01 7.08 9.79 9.60 C 8.15 9.58 6.51 9.57 4.88 9.57 C 7.71 12.47 10.61 15.30 13.46 18.20 C 16.41 15.39 19.25 12.46 22.12 9.57 C 20.46 9.58 18.79 9.58 17.13 9.56 C 17.09 7.04 17.11 4.52 17.10 2.01 C 14.70 2.00 12.30 2.00 9.90 2.01 Z" />
</g>
</svg>
