<?xml version="1.0" encoding="UTF-8" ?>
<!DOCTYPE svg PUBLIC "-//W3C//DTD SVG 1.1//EN" "http://www.w3.org/Graphics/SVG/1.1/DTD/svg11.dtd">
<svg width="117px" height="140px" viewBox="0 0 117 140" version="1.1" xmlns="http://www.w3.org/2000/svg">
<g id="#000000ff">
<path fill="#000000" opacity="1.00" d=" M 0.00 0.00 L 117.00 0.00 L 117.00 140.00 L 0.00 140.00 L 0.00 0.00 M 29.52 10.71 C 15.42 13.41 4.20 26.63 4.09 41.04 C 4.03 60.37 4.03 79.71 4.09 99.04 C 4.19 114.97 18.04 129.26 33.96 129.86 C 49.67 130.03 65.39 129.95 81.10 129.89 C 97.38 129.80 111.86 115.29 111.90 99.01 C 111.97 79.66 111.97 60.31 111.90 40.96 C 111.82 25.00 97.92 10.72 81.98 10.15 C 68.33 9.92 54.67 10.14 41.02 10.05 C 37.18 10.03 33.30 9.95 29.52 10.71 Z" />
<path fill="#000000" opacity="1.00" d=" M 29.44 12.66 C 32.91 11.94 36.46 11.91 39.99 11.93 C 53.98 12.05 67.97 11.77 81.96 12.06 C 97.27 12.62 110.45 26.69 110.03 42.01 C 110.05 61.00 110.13 80.00 109.99 98.99 C 109.96 114.31 96.30 127.92 81.00 127.99 C 65.98 128.14 50.96 128.03 35.94 128.04 C 25.17 128.14 14.67 121.87 9.63 112.37 C 6.93 107.72 5.87 102.32 5.94 96.98 C 5.99 78.33 5.87 59.68 5.99 41.03 C 6.12 27.66 16.42 15.41 29.44 12.66 M 43.56 29.52 C 43.46 33.14 43.43 36.77 43.49 40.39 C 53.16 40.62 62.84 40.60 72.51 40.40 C 72.54 36.80 72.54 33.20 72.51 29.60 C 62.86 29.34 53.21 29.49 43.56 29.52 M 32.53 41.00 C 32.44 47.46 32.30 53.94 32.71 60.40 C 41.46 60.67 50.21 60.02 58.97 60.30 C 67.08 60.03 75.19 60.68 83.30 60.39 C 83.69 53.97 83.56 47.52 83.48 41.09 C 82.69 36.91 79.18 33.77 75.70 31.64 C 75.38 31.74 74.76 31.96 74.45 32.07 C 74.24 35.73 74.43 39.41 74.45 43.08 C 63.48 43.08 52.52 43.08 41.55 43.08 C 41.56 39.41 41.76 35.73 41.55 32.06 C 41.24 31.95 40.61 31.74 40.30 31.64 C 36.84 33.77 33.36 36.87 32.53 41.00 M 42.48 60.88 C 42.60 65.54 42.17 70.22 42.68 74.85 C 43.63 76.79 46.15 76.44 47.93 76.56 C 55.61 76.39 63.29 76.76 70.95 76.39 C 71.41 76.21 72.33 75.84 72.79 75.65 C 74.46 71.05 73.11 65.73 73.52 60.86 C 63.18 60.69 52.82 60.63 42.48 60.88 Z" />
<path fill="#000000" opacity="1.00" d=" M 46.44 32.41 C 54.14 32.61 61.86 32.61 69.56 32.41 C 69.55 34.14 69.55 35.86 69.56 37.59 C 61.85 37.40 54.14 37.39 46.44 37.59 C 46.45 35.86 46.45 34.14 46.44 32.41 Z" />
<path fill="#000000" opacity="1.00" d=" M 35.61 41.95 C 35.60 39.68 37.40 38.03 38.51 36.22 C 38.42 39.22 38.38 42.22 38.40 45.22 C 40.17 45.96 42.07 46.35 43.99 46.27 C 53.65 46.22 63.30 46.26 72.96 46.26 C 74.57 46.33 76.09 45.79 77.58 45.28 C 77.62 42.26 77.59 39.23 77.49 36.22 C 78.61 38.05 80.43 39.71 80.39 42.00 C 80.49 47.11 80.28 52.23 80.48 57.34 C 70.65 57.86 60.85 56.26 51.05 57.23 C 45.88 57.55 40.70 57.25 35.52 57.35 C 35.72 52.22 35.51 47.08 35.61 41.95 M 42.08 56.41 C 52.72 56.40 63.36 56.35 74.00 56.40 C 79.54 56.52 77.28 49.83 77.30 46.39 C 71.62 47.69 65.78 46.98 60.01 47.14 C 52.95 47.01 45.86 47.57 38.85 46.56 C 38.34 49.94 36.67 56.63 42.08 56.41 Z" />
<path fill="#000000" opacity="1.00" d=" M 41.41 50.28 C 52.47 50.35 63.52 50.35 74.58 50.28 C 74.54 51.03 74.46 52.52 74.42 53.26 C 63.47 53.22 52.53 53.22 41.58 53.26 C 41.54 52.52 41.46 51.03 41.41 50.28 Z" />
<path fill="#000000" opacity="1.00" d=" M 45.41 63.41 C 53.80 63.61 62.20 63.60 70.59 63.41 C 70.42 66.80 70.43 70.20 70.59 73.59 C 62.20 73.39 53.80 73.40 45.41 73.59 C 45.58 70.20 45.57 66.80 45.41 63.41 M 47.00 67.05 C 46.99 67.52 46.99 68.48 46.99 68.96 C 50.54 70.09 54.35 69.33 58.01 69.56 C 60.32 69.39 64.39 70.40 64.34 66.87 C 58.61 66.42 52.64 65.88 47.00 67.05 Z" />
</g>
<g id="#1bd45aff">
<path fill="#1bd45a" opacity="1.00" d=" M 29.52 10.71 C 33.30 9.95 37.18 10.03 41.02 10.05 C 54.67 10.14 68.33 9.92 81.98 10.15 C 97.92 10.72 111.82 25.00 111.90 40.96 C 111.97 60.31 111.97 79.66 111.90 99.01 C 111.86 115.29 97.38 129.80 81.10 129.89 C 65.39 129.95 49.67 130.03 33.96 129.86 C 18.04 129.26 4.19 114.97 4.09 99.04 C 4.03 79.71 4.03 60.37 4.09 41.04 C 4.20 26.63 15.42 13.41 29.52 10.71 M 29.44 12.66 C 16.42 15.41 6.12 27.66 5.99 41.03 C 5.87 59.68 5.99 78.33 5.94 96.98 C 5.87 102.32 6.93 107.72 9.63 112.37 C 14.67 121.87 25.17 128.14 35.94 128.04 C 50.96 128.03 65.98 128.14 81.00 127.99 C 96.30 127.92 109.96 114.31 109.99 98.99 C 110.13 80.00 110.05 61.00 110.03 42.01 C 110.45 26.69 97.27 12.62 81.96 12.06 C 67.97 11.77 53.98 12.05 39.99 11.93 C 36.46 11.91 32.91 11.94 29.44 12.66 Z" />
<path fill="#1bd45a" opacity="1.00" d=" M 43.56 29.52 C 53.21 29.49 62.86 29.34 72.51 29.60 C 72.54 33.20 72.54 36.80 72.51 40.40 C 62.84 40.60 53.16 40.62 43.49 40.39 C 43.43 36.77 43.46 33.14 43.56 29.52 M 46.44 32.41 C 46.45 34.14 46.45 35.86 46.44 37.59 C 54.14 37.39 61.85 37.40 69.56 37.59 C 69.55 35.86 69.55 34.14 69.56 32.41 C 61.86 32.61 54.14 32.61 46.44 32.41 Z" />
<path fill="#1bd45a" opacity="1.00" d=" M 32.53 41.00 C 33.36 36.87 36.84 33.77 40.30 31.64 C 40.61 31.74 41.24 31.95 41.55 32.06 C 41.76 35.73 41.56 39.41 41.55 43.08 C 52.52 43.08 63.48 43.08 74.45 43.08 C 74.43 39.41 74.24 35.73 74.45 32.07 C 74.76 31.96 75.38 31.74 75.70 31.64 C 79.18 33.77 82.69 36.91 83.48 41.09 C 83.56 47.52 83.69 53.97 83.30 60.39 C 75.19 60.68 67.08 60.03 58.97 60.30 C 50.21 60.02 41.46 60.67 32.71 60.40 C 32.30 53.94 32.44 47.46 32.53 41.00 M 35.61 41.95 C 35.51 47.08 35.72 52.22 35.52 57.35 C 40.70 57.25 45.88 57.55 51.05 57.23 C 60.85 56.26 70.65 57.86 80.48 57.34 C 80.28 52.23 80.49 47.11 80.39 42.00 C 80.43 39.71 78.61 38.05 77.49 36.22 C 77.59 39.23 77.62 42.26 77.58 45.28 C 76.09 45.79 74.57 46.33 72.96 46.26 C 63.30 46.26 53.65 46.22 43.99 46.27 C 42.07 46.35 40.17 45.96 38.40 45.22 C 38.38 42.22 38.42 39.22 38.51 36.22 C 37.40 38.03 35.60 39.68 35.61 41.95 Z" />
<path fill="#1bd45a" opacity="1.00" d=" M 42.08 56.41 C 36.67 56.63 38.34 49.94 38.85 46.56 C 45.86 47.57 52.95 47.01 60.01 47.14 C 65.78 46.98 71.62 47.69 77.30 46.39 C 77.28 49.83 79.54 56.52 74.00 56.40 C 63.36 56.35 52.72 56.40 42.08 56.41 M 41.41 50.28 C 41.46 51.03 41.54 52.52 41.58 53.26 C 52.53 53.22 63.47 53.22 74.42 53.26 C 74.46 52.52 74.54 51.03 74.58 50.28 C 63.52 50.35 52.47 50.35 41.41 50.28 Z" />
<path fill="#1bd45a" opacity="1.00" d=" M 42.48 60.88 C 52.82 60.63 63.18 60.69 73.52 60.86 C 73.11 65.73 74.46 71.05 72.79 75.65 C 72.33 75.84 71.41 76.21 70.95 76.39 C 63.29 76.76 55.61 76.39 47.93 76.56 C 46.15 76.44 43.63 76.79 42.68 74.85 C 42.17 70.22 42.60 65.54 42.48 60.88 M 45.41 63.41 C 45.57 66.80 45.58 70.20 45.41 73.59 C 53.80 73.40 62.20 73.39 70.59 73.59 C 70.43 70.20 70.42 66.80 70.59 63.41 C 62.20 63.60 53.80 63.61 45.41 63.41 Z" />
<path fill="#1bd45a" opacity="1.00" d=" M 47.00 67.05 C 52.64 65.88 58.61 66.42 64.34 66.87 C 64.39 70.40 60.32 69.39 58.01 69.56 C 54.35 69.33 50.54 70.09 46.99 68.96 C 46.99 68.48 46.99 67.52 47.00 67.05 Z" />
</g>
</svg>
