<?xml version="1.0" encoding="UTF-8" ?>
<!DOCTYPE svg PUBLIC "-//W3C//DTD SVG 1.1//EN" "http://www.w3.org/Graphics/SVG/1.1/DTD/svg11.dtd">
<svg width="117px" height="140px" viewBox="0 0 117 140" version="1.1" xmlns="http://www.w3.org/2000/svg">
<g id="#000000ff">
<path fill="#000000" opacity="1.00" d=" M 0.00 0.00 L 117.00 0.00 L 117.00 140.00 L 0.00 140.00 L 0.00 0.00 M 33.31 10.36 C 18.09 11.81 5.26 25.63 5.20 40.95 C 5.16 60.31 5.16 79.66 5.20 99.01 C 5.22 114.89 19.04 129.17 34.90 129.75 C 50.61 129.90 66.32 129.82 82.03 129.79 C 98.27 129.79 112.77 115.30 112.79 99.07 C 112.86 80.04 112.82 61.01 112.81 41.98 C 113.02 31.22 107.09 20.66 97.96 15.03 C 92.64 11.64 86.30 9.97 79.99 10.17 C 64.43 10.30 48.86 9.93 33.31 10.36 Z" />
<path fill="#000000" opacity="1.00" d=" M 30.39 12.60 C 33.86 11.81 37.44 11.74 40.99 11.80 C 55.01 11.93 69.05 11.68 83.07 11.92 C 97.69 12.66 110.36 25.37 111.13 39.97 C 111.27 59.30 111.11 78.64 111.20 97.98 C 111.23 108.29 105.56 118.44 96.68 123.71 C 91.72 126.85 85.81 128.25 79.97 128.19 C 64.96 128.10 49.94 128.29 34.93 128.11 C 19.97 127.32 7.06 114.02 6.85 99.02 C 6.78 79.66 6.84 60.30 6.82 40.93 C 7.17 27.61 17.32 15.32 30.39 12.60 M 47.23 40.20 C 44.49 42.11 41.88 44.20 39.32 46.35 C 37.01 48.10 37.03 51.93 39.34 53.67 C 41.91 55.82 44.52 57.92 47.28 59.82 C 48.94 61.12 51.04 60.15 52.88 59.98 C 53.65 57.40 54.06 54.74 54.09 52.05 C 54.57 52.02 55.52 51.97 56.00 51.95 C 56.00 51.22 56.00 49.78 56.00 49.05 C 55.51 49.03 54.54 48.97 54.05 48.95 C 54.14 45.92 53.77 42.91 52.88 40.02 C 51.02 39.85 48.91 38.87 47.23 40.20 M 63.99 41.23 C 64.00 43.81 64.00 46.40 64.00 48.98 C 63.25 48.99 61.75 49.01 61.00 49.01 C 61.00 49.76 61.00 51.25 61.00 51.99 C 61.75 52.00 63.25 52.01 64.00 52.01 C 64.00 54.27 64.00 56.52 63.99 58.78 C 66.08 59.60 68.54 61.58 70.72 59.83 C 73.30 58.07 75.71 56.06 78.16 54.12 C 80.58 52.59 81.27 48.91 79.16 46.82 C 76.51 44.42 73.64 42.24 70.73 40.17 C 68.54 38.44 66.08 40.38 63.99 41.23 M 57.00 49.00 C 57.00 49.75 57.00 51.25 57.00 52.00 C 57.75 52.00 59.25 52.00 60.00 52.00 C 60.00 51.25 60.00 49.75 60.00 49.00 C 59.25 49.00 57.75 49.00 57.00 49.00 Z" />
<path fill="#000000" opacity="1.00" d=" M 41.00 50.00 C 43.99 47.67 46.99 45.35 49.99 43.03 C 50.01 47.68 50.00 52.33 49.99 56.98 C 46.99 54.65 43.99 52.33 41.00 50.00 Z" />
<path fill="#000000" opacity="1.00" d=" M 68.02 43.02 C 71.01 45.35 74.01 47.67 76.99 50.00 C 74.01 52.33 71.01 54.66 68.01 56.97 C 67.99 52.32 67.99 47.67 68.02 43.02 Z" />
</g>
<g id="#11ea52ff">
<path fill="#11ea52" opacity="1.00" d=" M 33.31 10.36 C 48.86 9.93 64.43 10.30 79.99 10.17 C 86.30 9.97 92.64 11.64 97.96 15.03 C 107.09 20.66 113.02 31.22 112.81 41.98 C 112.82 61.01 112.86 80.04 112.79 99.07 C 112.77 115.30 98.27 129.79 82.03 129.79 C 66.32 129.82 50.61 129.90 34.90 129.75 C 19.04 129.17 5.22 114.89 5.20 99.01 C 5.16 79.66 5.16 60.31 5.20 40.95 C 5.26 25.63 18.09 11.81 33.31 10.36 M 30.39 12.60 C 17.32 15.32 7.17 27.61 6.82 40.93 C 6.84 60.30 6.78 79.66 6.85 99.02 C 7.06 114.02 19.97 127.32 34.93 128.11 C 49.94 128.29 64.96 128.10 79.97 128.19 C 85.81 128.25 91.72 126.85 96.68 123.71 C 105.56 118.44 111.23 108.29 111.20 97.98 C 111.11 78.64 111.27 59.30 111.13 39.97 C 110.36 25.37 97.69 12.66 83.07 11.92 C 69.05 11.68 55.01 11.93 40.99 11.80 C 37.44 11.74 33.86 11.81 30.39 12.60 Z" />
<path fill="#11ea52" opacity="1.00" d=" M 47.23 40.20 C 48.91 38.87 51.02 39.85 52.88 40.02 C 53.77 42.91 54.14 45.92 54.05 48.95 C 54.54 48.97 55.51 49.03 56.00 49.05 C 56.00 49.78 56.00 51.22 56.00 51.95 C 55.52 51.97 54.57 52.02 54.09 52.05 C 54.06 54.74 53.65 57.40 52.88 59.98 C 51.04 60.15 48.94 61.12 47.28 59.82 C 44.52 57.92 41.91 55.82 39.34 53.67 C 37.03 51.93 37.01 48.10 39.32 46.35 C 41.88 44.20 44.49 42.11 47.23 40.20 M 41.00 50.00 C 43.99 52.33 46.99 54.65 49.99 56.98 C 50.00 52.33 50.01 47.68 49.99 43.03 C 46.99 45.35 43.99 47.67 41.00 50.00 Z" />
<path fill="#11ea52" opacity="1.00" d=" M 63.99 41.23 C 66.08 40.38 68.54 38.44 70.73 40.17 C 73.64 42.24 76.51 44.42 79.16 46.82 C 81.27 48.91 80.58 52.59 78.16 54.12 C 75.71 56.06 73.30 58.07 70.72 59.83 C 68.54 61.58 66.08 59.60 63.99 58.78 C 64.00 56.52 64.00 54.27 64.00 52.01 C 63.25 52.01 61.75 52.00 61.00 51.99 C 61.00 51.25 61.00 49.76 61.00 49.01 C 61.75 49.01 63.25 48.99 64.00 48.98 C 64.00 46.40 64.00 43.81 63.99 41.23 M 68.02 43.02 C 67.99 47.67 67.99 52.32 68.01 56.97 C 71.01 54.66 74.01 52.33 76.99 50.00 C 74.01 47.67 71.01 45.35 68.02 43.02 Z" />
<path fill="#11ea52" opacity="1.00" d=" M 57.00 49.00 C 57.75 49.00 59.25 49.00 60.00 49.00 C 60.00 49.75 60.00 51.25 60.00 52.00 C 59.25 52.00 57.75 52.00 57.00 52.00 C 57.00 51.25 57.00 49.75 57.00 49.00 Z" />
</g>
</svg>
