<?xml version="1.0" encoding="UTF-8" ?>
<!DOCTYPE svg PUBLIC "-//W3C//DTD SVG 1.1//EN" "http://www.w3.org/Graphics/SVG/1.1/DTD/svg11.dtd">
<svg width="117px" height="140px" viewBox="0 0 117 140" version="1.1" xmlns="http://www.w3.org/2000/svg">
<g id="#000000ff">
<path fill="#000000" opacity="1.00" d=" M 0.00 0.00 L 117.00 0.00 L 117.00 140.00 L 0.00 140.00 L 0.00 0.00 M 27.22 11.66 L 27.93 12.46 C 27.07 12.46 25.34 12.46 24.48 12.46 L 24.52 13.84 C 24.07 13.66 23.16 13.29 22.70 13.11 L 22.51 14.74 L 20.84 14.23 C 20.76 14.48 20.58 14.99 20.50 15.24 C 19.07 16.01 17.72 16.91 16.37 17.82 L 16.56 18.82 L 14.99 18.25 L 15.92 19.89 L 14.35 19.06 L 14.70 20.56 L 13.14 20.37 L 13.87 21.70 L 12.84 21.35 C 11.92 22.71 11.01 24.09 10.22 25.54 L 9.28 25.77 C 9.37 26.23 9.57 27.15 9.66 27.61 L 8.13 27.65 C 8.30 28.12 8.63 29.06 8.80 29.53 L 7.72 29.49 C 4.20 38.60 5.67 48.44 5.38 57.97 C 5.55 73.48 5.02 89.01 5.69 104.51 L 6.30 104.23 C 6.42 106.38 7.10 108.42 7.67 110.48 L 8.77 110.46 C 8.62 110.94 8.31 111.88 8.15 112.35 L 9.69 112.41 C 9.59 112.88 9.38 113.80 9.28 114.27 L 10.16 114.40 C 10.96 115.86 11.90 117.25 12.82 118.64 L 13.87 118.34 L 13.11 119.67 L 14.72 119.38 L 14.28 120.86 L 15.78 120.20 L 15.12 121.83 L 16.59 121.15 L 16.36 122.17 C 17.74 123.12 19.12 124.05 20.60 124.84 L 20.75 125.73 C 21.22 125.63 22.15 125.43 22.62 125.34 L 22.66 126.91 C 23.12 126.72 24.06 126.35 24.53 126.16 L 24.49 127.54 C 25.35 127.55 27.08 127.55 27.94 127.55 L 27.22 128.61 C 28.11 128.58 29.87 128.52 30.76 128.50 L 30.51 129.30 C 45.97 129.99 61.47 129.44 76.94 129.62 C 80.22 129.49 83.70 130.08 86.80 128.72 C 88.12 128.64 89.44 128.57 90.77 128.51 L 90.07 127.54 C 90.93 127.54 92.66 127.55 93.52 127.55 L 93.47 126.16 C 93.94 126.35 94.87 126.72 95.34 126.90 L 95.39 125.33 C 95.86 125.43 96.79 125.63 97.26 125.73 L 97.39 124.85 C 98.87 124.06 100.25 123.11 101.64 122.17 L 101.31 121.14 L 102.65 121.86 L 102.42 120.29 L 103.91 120.68 L 103.16 119.16 L 104.82 119.95 L 104.15 118.46 L 105.23 118.57 C 106.14 117.24 107.01 115.88 107.78 114.46 L 108.71 114.24 C 108.61 113.78 108.42 112.86 108.32 112.40 L 109.86 112.36 C 109.70 111.89 109.38 110.95 109.21 110.48 L 110.29 110.50 C 111.29 106.73 112.70 102.98 112.60 99.02 C 112.63 79.69 112.64 60.36 112.59 41.03 C 112.73 37.04 111.29 33.28 110.29 29.49 L 109.20 29.53 C 109.37 29.06 109.70 28.11 109.87 27.64 L 108.32 27.61 C 108.43 27.14 108.63 26.22 108.73 25.75 L 107.83 25.61 C 107.03 24.13 106.10 22.74 105.17 21.35 L 104.09 21.59 L 104.89 20.12 L 103.24 20.78 L 103.84 19.29 L 102.37 19.70 L 102.68 18.08 L 101.37 18.88 L 101.59 17.78 C 100.25 16.87 98.88 15.99 97.45 15.22 L 97.24 14.29 C 96.77 14.38 95.85 14.56 95.38 14.65 L 95.33 13.10 C 94.87 13.28 93.94 13.65 93.48 13.84 L 93.52 12.46 C 92.64 12.46 90.88 12.45 90.00 12.44 L 90.84 11.44 C 89.28 11.43 87.72 11.44 86.16 11.45 L 86.76 10.60 C 70.17 10.12 53.57 10.51 36.98 10.38 C 33.66 10.20 30.49 11.27 27.22 11.66 Z" />
<path fill="#000000" opacity="1.00" d=" M 25.36 13.65 C 27.48 13.10 29.60 12.50 31.78 12.23 L 31.09 11.54 C 48.72 11.73 66.35 11.56 83.99 11.62 C 87.13 11.98 90.24 12.93 93.15 14.18 C 94.26 14.67 95.38 15.15 96.51 15.61 L 96.74 16.68 C 97.24 16.57 98.22 16.35 98.71 16.24 L 98.11 17.77 L 99.11 17.23 C 101.31 19.45 103.52 21.67 105.76 23.87 L 105.27 24.91 L 106.77 24.29 C 106.66 24.79 106.43 25.77 106.32 26.27 L 107.33 26.41 C 107.56 27.02 108.03 28.26 108.26 28.87 C 108.62 29.41 109.34 30.47 109.70 31.00 C 109.56 31.40 109.28 32.20 109.14 32.60 L 110.22 32.13 C 110.41 33.70 110.63 35.28 111.30 36.73 C 111.55 59.11 111.22 81.50 111.46 103.89 L 110.57 103.26 C 110.51 104.79 110.46 106.33 110.41 107.86 L 109.16 107.41 C 109.29 107.81 109.55 108.60 109.68 108.99 C 108.64 110.35 107.88 111.88 107.39 113.51 L 106.33 113.75 C 106.44 114.24 106.65 115.23 106.75 115.72 L 105.22 115.09 L 105.79 116.12 C 103.54 118.30 101.34 120.53 99.13 122.75 L 98.07 122.31 L 98.72 123.80 C 98.23 123.68 97.23 123.43 96.74 123.30 L 96.63 124.37 C 95.34 124.85 94.05 125.32 92.75 125.78 C 92.70 125.93 92.60 126.24 92.55 126.39 C 89.38 126.85 86.44 128.48 83.19 128.39 C 65.81 128.43 48.43 128.28 31.05 128.46 L 31.81 127.79 C 29.66 127.47 27.56 126.91 25.45 126.40 C 25.39 126.24 25.29 125.92 25.24 125.75 C 23.97 125.34 22.71 124.91 21.46 124.46 L 21.24 123.32 C 20.75 123.43 19.77 123.67 19.28 123.78 L 19.92 122.29 L 18.87 122.76 C 16.67 120.54 14.47 118.32 12.25 116.13 L 12.71 115.09 L 11.22 115.72 C 11.34 115.22 11.57 114.23 11.68 113.74 L 10.67 113.59 C 10.44 112.97 9.97 111.74 9.73 111.12 C 9.38 110.59 8.66 109.53 8.30 109.00 C 8.44 108.60 8.73 107.79 8.87 107.39 L 7.78 107.89 C 7.59 106.32 7.38 104.73 6.71 103.28 C 6.55 81.10 6.56 58.91 6.71 36.74 C 7.38 35.28 7.60 33.69 7.78 32.11 L 8.86 32.61 C 8.72 32.21 8.46 31.41 8.32 31.01 C 9.37 29.65 10.14 28.12 10.61 26.47 L 11.70 26.25 C 11.57 25.75 11.32 24.77 11.20 24.27 L 12.69 24.94 L 12.25 23.87 C 14.47 21.67 16.67 19.46 18.87 17.25 L 19.94 17.70 L 19.27 16.20 C 19.77 16.32 20.75 16.57 21.25 16.70 L 21.46 15.55 C 22.73 15.09 24.00 14.61 25.29 14.20 L 25.36 13.65 M 40.60 45.21 C 41.58 46.19 42.54 47.18 43.49 48.19 C 45.78 47.19 48.01 45.99 50.47 45.44 C 55.97 44.01 61.84 46.03 66.17 49.49 C 68.13 46.95 69.90 44.26 71.41 41.42 C 68.53 38.03 63.27 37.50 59.02 37.44 C 52.15 36.97 44.91 39.74 40.60 45.21 M 58.16 62.67 C 59.59 63.17 61.00 63.70 62.43 64.20 C 64.14 59.95 66.41 55.96 68.41 51.85 C 70.57 55.43 71.38 59.51 71.98 63.59 C 75.72 63.58 79.46 63.60 83.21 63.57 C 84.28 54.99 79.52 46.80 72.90 41.69 C 68.62 49.10 62.92 55.57 58.16 62.67 M 38.22 47.73 C 36.10 51.06 34.46 54.74 33.80 58.65 C 34.45 59.01 35.74 59.75 36.38 60.12 C 37.64 56.71 38.92 53.25 41.41 50.52 C 43.44 48.89 39.59 45.19 38.22 47.73 M 55.08 65.26 C 54.97 66.82 55.02 68.37 55.19 69.92 C 56.86 70.18 59.25 71.10 60.26 69.09 C 61.34 67.99 60.78 66.06 59.55 65.31 C 58.25 64.21 56.53 65.15 55.08 65.26 Z" />
<path fill="#000000" opacity="1.00" d=" M 62.66 41.10 C 64.10 41.45 65.54 41.82 66.99 42.17 C 66.35 43.03 65.72 43.89 65.08 44.75 C 63.85 43.85 62.93 42.64 62.66 41.10 Z" />
<path fill="#000000" opacity="1.00" d=" M 76.46 50.33 C 77.01 51.46 77.57 52.58 78.13 53.71 C 76.85 54.28 75.58 54.88 74.32 55.49 C 73.81 54.76 73.30 54.03 72.78 53.30 C 74.01 52.31 75.23 51.31 76.46 50.33 Z" />
<path fill="#000000" opacity="1.00" d=" M 74.19 59.91 C 75.68 58.68 77.38 57.74 79.07 56.81 C 79.28 57.88 79.50 58.95 79.72 60.02 C 77.88 60.00 76.04 59.99 74.19 59.91 Z" />
</g>
<g id="#f3f7f5ff">
<path fill="#f3f7f5" opacity="1.00" d=" M 27.22 11.66 C 30.49 11.27 33.66 10.20 36.98 10.38 C 53.57 10.51 70.17 10.12 86.76 10.60 L 86.16 11.45 C 87.72 11.44 89.28 11.43 90.84 11.44 L 90.00 12.44 C 90.88 12.45 92.64 12.46 93.52 12.46 L 93.48 13.84 C 93.94 13.65 94.87 13.28 95.33 13.10 L 95.38 14.65 C 95.85 14.56 96.77 14.38 97.24 14.29 L 97.45 15.22 C 98.88 15.99 100.25 16.87 101.59 17.78 L 101.37 18.88 L 102.68 18.08 L 102.37 19.70 L 103.84 19.29 L 103.24 20.78 L 104.89 20.12 L 104.09 21.59 L 105.17 21.35 C 106.10 22.74 107.03 24.13 107.83 25.61 L 108.73 25.75 C 108.63 26.22 108.43 27.14 108.32 27.61 L 109.87 27.64 C 109.70 28.11 109.37 29.06 109.20 29.53 L 110.29 29.49 C 111.29 33.28 112.73 37.04 112.59 41.03 C 112.64 60.36 112.63 79.69 112.60 99.02 C 112.70 102.98 111.29 106.73 110.29 110.50 L 109.21 110.48 C 109.38 110.95 109.70 111.89 109.86 112.36 L 108.32 112.40 C 108.42 112.86 108.61 113.78 108.71 114.24 L 107.78 114.46 C 107.01 115.88 106.14 117.24 105.23 118.57 L 104.15 118.46 L 104.82 119.95 L 103.16 119.16 L 103.91 120.68 L 102.42 120.29 L 102.65 121.86 L 101.31 121.14 L 101.64 122.17 C 100.25 123.11 98.87 124.06 97.39 124.85 L 97.26 125.73 C 96.79 125.63 95.86 125.43 95.39 125.33 L 95.34 126.90 C 94.87 126.72 93.94 126.35 93.47 126.16 L 93.52 127.55 C 92.66 127.55 90.93 127.54 90.07 127.54 L 90.77 128.51 C 89.44 128.57 88.12 128.64 86.80 128.72 C 83.70 130.08 80.22 129.49 76.94 129.62 C 61.47 129.44 45.97 129.99 30.51 129.30 L 30.76 128.50 C 29.87 128.52 28.11 128.58 27.22 128.61 L 27.94 127.55 C 27.08 127.55 25.35 127.55 24.49 127.54 L 24.53 126.16 C 24.06 126.35 23.12 126.72 22.66 126.91 L 22.62 125.34 C 22.15 125.43 21.22 125.63 20.75 125.73 L 20.60 124.84 C 19.12 124.05 17.74 123.12 16.36 122.17 L 16.59 121.15 L 15.12 121.83 L 15.78 120.20 L 14.28 120.86 L 14.72 119.38 L 13.11 119.67 L 13.87 118.34 L 12.82 118.64 C 11.90 117.25 10.96 115.86 10.16 114.40 L 9.28 114.27 C 9.38 113.80 9.59 112.88 9.69 112.41 L 8.15 112.35 C 8.31 111.88 8.62 110.94 8.77 110.46 L 7.67 110.48 C 7.10 108.42 6.42 106.38 6.30 104.23 L 5.69 104.51 C 5.02 89.01 5.55 73.48 5.38 57.97 C 5.67 48.44 4.20 38.60 7.72 29.49 L 8.80 29.53 C 8.63 29.06 8.30 28.12 8.13 27.65 L 9.66 27.61 C 9.57 27.15 9.37 26.23 9.28 25.77 L 10.22 25.54 C 11.01 24.09 11.92 22.71 12.84 21.35 L 13.87 21.70 L 13.14 20.37 L 14.70 20.56 L 14.35 19.06 L 15.92 19.89 L 14.99 18.25 L 16.56 18.82 L 16.37 17.82 C 17.72 16.91 19.07 16.01 20.50 15.24 C 20.58 14.99 20.76 14.48 20.84 14.23 L 22.51 14.74 L 22.70 13.11 C 23.16 13.29 24.07 13.66 24.52 13.84 L 24.48 12.46 C 25.34 12.46 27.07 12.46 27.93 12.46 L 27.22 11.66 M 25.36 13.65 L 25.29 14.20 C 24.00 14.61 22.73 15.09 21.46 15.55 L 21.25 16.70 C 20.75 16.57 19.77 16.32 19.27 16.20 L 19.94 17.70 L 18.87 17.25 C 16.67 19.46 14.47 21.67 12.25 23.87 L 12.69 24.94 L 11.20 24.27 C 11.32 24.77 11.57 25.75 11.70 26.25 L 10.61 26.47 C 10.14 28.12 9.37 29.65 8.32 31.01 C 8.46 31.41 8.72 32.21 8.86 32.61 L 7.78 32.11 C 7.60 33.69 7.38 35.28 6.71 36.74 C 6.56 58.91 6.55 81.10 6.71 103.28 C 7.38 104.73 7.59 106.32 7.78 107.89 L 8.87 107.39 C 8.73 107.79 8.44 108.60 8.30 109.00 C 8.66 109.53 9.38 110.59 9.73 111.12 C 9.97 111.74 10.44 112.97 10.67 113.59 L 11.68 113.74 C 11.57 114.23 11.34 115.22 11.22 115.72 L 12.71 115.09 L 12.25 116.13 C 14.47 118.32 16.67 120.54 18.87 122.76 L 19.92 122.29 L 19.28 123.78 C 19.77 123.67 20.75 123.43 21.24 123.32 L 21.46 124.46 C 22.71 124.91 23.97 125.34 25.24 125.75 C 25.29 125.92 25.39 126.24 25.45 126.40 C 27.56 126.91 29.66 127.47 31.81 127.79 L 31.05 128.46 C 48.43 128.28 65.81 128.43 83.19 128.39 C 86.44 128.48 89.38 126.85 92.55 126.39 C 92.60 126.24 92.70 125.93 92.75 125.78 C 94.05 125.32 95.34 124.85 96.63 124.37 L 96.74 123.30 C 97.23 123.43 98.23 123.68 98.72 123.80 L 98.07 122.31 L 99.13 122.75 C 101.34 120.53 103.54 118.30 105.79 116.12 L 105.22 115.09 L 106.75 115.72 C 106.65 115.23 106.44 114.24 106.33 113.75 L 107.39 113.51 C 107.88 111.88 108.64 110.35 109.68 108.99 C 109.55 108.60 109.29 107.81 109.16 107.41 L 110.41 107.86 C 110.46 106.33 110.51 104.79 110.57 103.26 L 111.46 103.89 C 111.22 81.50 111.55 59.11 111.30 36.73 C 110.63 35.28 110.41 33.70 110.22 32.13 L 109.14 32.60 C 109.28 32.20 109.56 31.40 109.70 31.00 C 109.34 30.47 108.62 29.41 108.26 28.87 C 108.03 28.26 107.56 27.02 107.33 26.41 L 106.32 26.27 C 106.43 25.77 106.66 24.79 106.77 24.29 L 105.27 24.91 L 105.76 23.87 C 103.52 21.67 101.31 19.45 99.11 17.23 L 98.11 17.77 L 98.71 16.24 C 98.22 16.35 97.24 16.57 96.74 16.68 L 96.51 15.61 C 95.38 15.15 94.26 14.67 93.15 14.18 C 90.24 12.93 87.13 11.98 83.99 11.62 C 66.35 11.56 48.72 11.73 31.09 11.54 L 31.78 12.23 C 29.60 12.50 27.48 13.10 25.36 13.65 Z" />
<path fill="#f3f7f5" opacity="1.00" d=" M 40.60 45.21 C 44.91 39.74 52.15 36.97 59.02 37.44 C 63.27 37.50 68.53 38.03 71.41 41.42 C 69.90 44.26 68.13 46.95 66.17 49.49 C 61.84 46.03 55.97 44.01 50.47 45.44 C 48.01 45.99 45.78 47.19 43.49 48.19 C 42.54 47.18 41.58 46.19 40.60 45.21 M 62.66 41.10 C 62.93 42.64 63.85 43.85 65.08 44.75 C 65.72 43.89 66.35 43.03 66.99 42.17 C 65.54 41.82 64.10 41.45 62.66 41.10 Z" />
<path fill="#f3f7f5" opacity="1.00" d=" M 58.16 62.67 C 62.92 55.57 68.62 49.10 72.90 41.69 C 79.52 46.80 84.28 54.99 83.21 63.57 C 79.46 63.60 75.72 63.58 71.98 63.59 C 71.38 59.51 70.57 55.43 68.41 51.85 C 66.41 55.96 64.14 59.95 62.43 64.20 C 61.00 63.70 59.59 63.17 58.16 62.67 M 76.46 50.33 C 75.23 51.31 74.01 52.31 72.78 53.30 C 73.30 54.03 73.81 54.76 74.32 55.49 C 75.58 54.88 76.85 54.28 78.13 53.71 C 77.57 52.58 77.01 51.46 76.46 50.33 M 74.19 59.91 C 76.04 59.99 77.88 60.00 79.72 60.02 C 79.50 58.95 79.28 57.88 79.07 56.81 C 77.38 57.74 75.68 58.68 74.19 59.91 Z" />
<path fill="#f3f7f5" opacity="1.00" d=" M 38.22 47.73 C 39.59 45.19 43.44 48.89 41.41 50.52 C 38.92 53.25 37.64 56.71 36.38 60.12 C 35.74 59.75 34.45 59.01 33.80 58.65 C 34.46 54.74 36.10 51.06 38.22 47.73 Z" />
<path fill="#f3f7f5" opacity="1.00" d=" M 55.08 65.26 C 56.53 65.15 58.25 64.21 59.55 65.31 C 60.78 66.06 61.34 67.99 60.26 69.09 C 59.25 71.10 56.86 70.18 55.19 69.92 C 55.02 68.37 54.97 66.82 55.08 65.26 Z" />
</g>
</svg>
