<?xml version="1.0" encoding="UTF-8" ?>
<!DOCTYPE svg PUBLIC "-//W3C//DTD SVG 1.1//EN" "http://www.w3.org/Graphics/SVG/1.1/DTD/svg11.dtd">
<svg width="117px" height="140px" viewBox="0 0 117 140" version="1.1" xmlns="http://www.w3.org/2000/svg">
<g id="#000000ff">
<path fill="#000000" opacity="1.00" d=" M 0.00 0.00 L 117.00 0.00 L 117.00 140.00 L 0.00 140.00 L 0.00 0.00 M 31.47 11.27 C 30.04 11.39 28.61 11.47 27.17 11.52 L 28.01 12.46 C 27.12 12.46 25.35 12.47 24.47 12.47 L 24.53 13.85 C 24.06 13.66 23.13 13.29 22.66 13.11 L 22.62 14.66 C 22.15 14.57 21.21 14.39 20.74 14.30 L 20.53 15.29 C 19.06 15.98 17.73 16.90 16.41 17.81 L 16.67 18.76 L 15.26 18.28 L 15.67 19.83 L 14.21 19.16 L 14.80 20.63 L 13.26 20.28 L 13.80 21.68 L 12.86 21.40 C 11.92 22.73 10.91 24.02 10.30 25.54 L 9.31 25.74 C 9.39 26.21 9.56 27.16 9.64 27.63 L 8.10 27.66 C 8.29 28.13 8.67 29.07 8.86 29.53 L 7.47 29.46 C 7.47 30.34 7.46 32.12 7.46 33.01 L 6.45 32.14 C 6.47 33.70 6.50 35.27 6.52 36.84 C 6.29 36.68 5.83 36.38 5.60 36.23 C 5.26 58.74 5.25 81.27 5.60 103.77 C 5.84 103.62 6.32 103.32 6.56 103.17 C 6.51 104.71 6.46 106.25 6.42 107.79 L 7.50 107.07 C 7.48 107.93 7.45 109.66 7.43 110.52 L 8.82 110.45 C 8.65 110.92 8.32 111.84 8.15 112.31 L 9.77 112.49 L 9.24 114.18 C 9.51 114.25 10.06 114.40 10.33 114.47 C 10.92 115.98 11.93 117.27 12.84 118.61 L 13.81 118.31 L 13.21 119.72 L 14.77 119.32 L 14.20 120.79 L 15.66 120.20 L 15.28 121.71 L 16.68 121.27 L 16.41 122.18 C 17.75 123.10 19.06 124.10 20.58 124.73 L 20.74 125.70 C 21.22 125.61 22.18 125.44 22.66 125.35 L 22.62 126.87 C 23.10 126.70 24.07 126.35 24.56 126.18 L 24.46 127.54 C 25.33 127.54 27.08 127.53 27.95 127.53 L 27.22 128.40 C 30.18 128.59 33.01 129.66 35.99 129.61 C 50.68 129.62 65.37 129.59 80.06 129.62 C 84.65 129.79 89.10 128.46 93.50 127.34 L 93.44 126.23 C 93.93 126.38 94.91 126.68 95.40 126.83 L 95.35 125.33 C 95.83 125.43 96.78 125.62 97.26 125.71 L 97.40 124.75 C 98.93 124.10 100.24 123.08 101.61 122.16 L 101.27 121.23 L 102.62 121.74 L 102.46 120.24 L 103.94 120.67 L 103.15 119.20 L 104.81 119.82 L 104.15 118.35 L 105.15 118.61 C 106.24 116.96 107.25 115.23 108.71 113.86 L 108.19 112.49 L 109.78 112.38 C 109.65 111.89 109.39 110.89 109.27 110.39 L 110.57 110.53 C 110.55 109.67 110.52 107.95 110.50 107.08 L 111.59 107.77 C 111.54 106.25 111.49 104.73 111.45 103.22 C 111.69 103.34 112.17 103.59 112.41 103.72 C 112.85 83.17 112.49 62.61 112.61 42.05 C 112.84 38.67 111.70 35.46 111.35 32.14 L 110.56 33.04 C 110.55 32.15 110.54 30.37 110.54 29.48 L 109.19 29.56 C 109.36 29.07 109.69 28.10 109.86 27.62 L 108.34 27.65 C 108.43 27.17 108.61 26.22 108.70 25.74 L 107.72 25.58 C 107.10 24.05 106.10 22.75 105.16 21.41 L 104.20 21.65 L 104.81 20.22 L 103.73 20.66 C 103.51 19.27 102.71 18.49 101.34 18.30 L 101.57 17.81 C 100.24 16.88 98.91 15.93 97.43 15.26 L 97.25 14.29 C 96.79 14.38 95.86 14.57 95.39 14.67 L 95.34 13.12 C 94.87 13.30 93.94 13.66 93.47 13.84 L 93.53 12.48 C 92.61 12.47 90.77 12.44 89.85 12.42 L 90.90 11.51 C 89.49 11.50 88.08 11.42 86.67 11.26 C 85.22 10.59 83.61 10.35 82.02 10.39 C 66.67 10.39 51.32 10.39 35.97 10.39 C 34.43 10.37 32.85 10.53 31.47 11.27 Z" />
<path fill="#000000" opacity="1.00" d=" M 32.21 11.50 C 50.06 11.67 67.92 11.70 85.77 11.48 C 85.68 11.69 85.49 12.10 85.40 12.30 C 87.88 12.34 90.25 13.08 92.65 13.63 L 92.65 14.65 C 93.10 14.54 94.01 14.34 94.46 14.24 L 94.69 15.58 C 95.16 15.50 96.08 15.36 96.54 15.28 L 96.62 16.67 C 97.15 16.58 98.21 16.38 98.74 16.29 L 98.12 17.95 L 99.52 17.01 L 99.41 18.08 C 101.69 19.43 103.54 21.34 104.93 23.59 L 106.00 23.50 L 105.07 24.93 L 106.72 24.25 C 106.62 24.78 106.41 25.84 106.31 26.37 L 107.72 26.46 C 107.64 26.92 107.50 27.84 107.42 28.30 L 108.76 28.54 C 108.66 28.99 108.46 29.90 108.36 30.35 L 109.38 30.37 C 109.93 32.49 110.43 34.62 110.70 36.79 L 111.48 36.08 C 111.36 58.30 111.29 80.52 111.51 102.73 C 111.32 102.67 110.94 102.53 110.74 102.47 C 110.57 104.91 109.97 107.28 109.38 109.64 L 108.36 109.64 C 108.46 110.10 108.66 111.00 108.76 111.45 L 107.44 111.71 C 107.51 112.17 107.63 113.08 107.70 113.54 L 106.31 113.63 C 106.42 114.16 106.63 115.22 106.74 115.76 L 105.06 115.04 L 106.02 116.50 L 104.93 116.41 C 103.56 118.67 101.68 120.55 99.42 121.92 L 99.52 122.99 L 98.10 122.07 L 98.74 123.74 C 98.21 123.63 97.16 123.41 96.64 123.31 L 96.53 124.72 C 96.08 124.64 95.17 124.50 94.71 124.42 L 94.52 125.69 C 94.04 125.63 93.10 125.50 92.63 125.43 L 92.40 126.90 C 91.90 126.67 90.91 126.21 90.41 125.97 L 90.88 127.41 C 89.04 127.46 87.21 127.54 85.38 127.64 C 85.47 127.86 85.64 128.31 85.73 128.54 C 67.51 128.26 49.27 128.37 31.05 128.48 L 31.87 127.72 C 29.66 127.43 27.51 126.90 25.35 126.38 L 25.37 125.36 C 24.91 125.46 24.00 125.66 23.55 125.76 L 23.28 124.43 C 22.82 124.50 21.91 124.64 21.46 124.71 L 21.38 123.32 C 20.85 123.42 19.78 123.62 19.24 123.72 L 19.93 122.01 L 18.50 123.02 L 18.58 121.92 C 16.30 120.58 14.46 118.65 13.07 116.40 L 12.01 116.53 L 12.92 115.10 L 11.26 115.74 C 11.37 115.21 11.59 114.16 11.70 113.64 L 10.30 113.53 C 10.36 113.07 10.50 112.15 10.57 111.69 L 9.24 111.47 C 9.34 111.01 9.54 110.10 9.65 109.65 L 8.63 109.64 C 7.98 107.24 7.45 104.80 7.20 102.32 L 6.49 102.87 C 6.68 80.95 6.69 59.01 6.48 37.09 L 7.19 37.71 C 7.40 35.21 7.96 32.78 8.62 30.37 L 9.64 30.35 C 9.55 29.90 9.36 28.98 9.27 28.52 L 10.58 28.29 C 10.51 27.84 10.36 26.92 10.28 26.47 L 11.70 26.36 C 11.59 25.84 11.37 24.81 11.25 24.30 L 12.92 24.81 L 12.03 23.42 L 13.08 23.62 C 14.43 21.32 16.33 19.44 18.61 18.07 L 18.46 16.98 L 19.90 17.96 L 19.25 16.29 C 19.78 16.38 20.83 16.58 21.36 16.68 L 21.53 15.20 L 23.22 15.64 C 23.31 15.29 23.50 14.58 23.59 14.23 C 24.03 14.34 24.91 14.55 25.35 14.66 L 25.35 13.62 C 27.75 13.08 30.12 12.33 32.61 12.31 C 32.51 12.11 32.31 11.70 32.21 11.50 M 60.07 41.56 C 54.97 42.44 50.64 46.17 49.83 51.41 C 45.41 51.39 40.91 50.77 36.53 51.68 C 40.90 51.86 45.28 51.76 49.65 51.91 C 50.20 57.20 54.08 61.78 59.42 62.62 C 59.41 66.59 59.46 70.57 59.36 74.54 C 70.16 77.56 81.01 69.16 83.88 58.99 C 84.51 56.35 85.34 53.39 84.18 50.79 C 79.93 49.93 75.52 50.71 71.21 50.44 C 69.94 45.60 65.66 41.99 60.63 41.74 C 60.73 37.35 61.07 32.94 60.69 28.55 C 59.95 32.84 60.33 37.23 60.07 41.56 Z" />
<path fill="#000000" opacity="1.00" d=" M 58.16 43.17 C 64.55 41.32 71.66 47.32 69.92 54.02 C 68.79 61.41 58.35 63.98 53.51 58.52 C 48.54 53.68 51.63 44.69 58.16 43.17 Z" />
</g>
<g id="#f7fbf8ff">
<path fill="#f7fbf8" opacity="1.00" d=" M 31.47 11.27 C 32.85 10.53 34.43 10.37 35.97 10.39 C 51.32 10.39 66.67 10.39 82.02 10.39 C 83.61 10.35 85.22 10.59 86.67 11.26 C 88.08 11.42 89.49 11.50 90.90 11.51 L 89.85 12.42 C 90.77 12.44 92.61 12.47 93.53 12.48 L 93.47 13.84 C 93.94 13.66 94.87 13.30 95.34 13.12 L 95.39 14.67 C 95.86 14.57 96.79 14.38 97.25 14.29 L 97.43 15.26 C 98.91 15.93 100.24 16.88 101.57 17.81 L 101.34 18.30 C 102.71 18.49 103.51 19.27 103.73 20.66 L 104.81 20.22 L 104.20 21.65 L 105.16 21.41 C 106.10 22.75 107.10 24.05 107.72 25.58 L 108.70 25.74 C 108.61 26.22 108.43 27.17 108.34 27.65 L 109.86 27.62 C 109.69 28.10 109.36 29.07 109.19 29.56 L 110.54 29.48 C 110.54 30.37 110.55 32.15 110.56 33.04 L 111.35 32.14 C 111.70 35.46 112.84 38.67 112.61 42.05 C 112.49 62.61 112.85 83.17 112.41 103.72 C 112.17 103.59 111.69 103.34 111.45 103.22 C 111.49 104.73 111.54 106.25 111.59 107.77 L 110.50 107.08 C 110.52 107.95 110.55 109.67 110.57 110.53 L 109.27 110.39 C 109.39 110.89 109.65 111.89 109.78 112.38 L 108.19 112.49 L 108.71 113.86 C 107.25 115.23 106.24 116.96 105.15 118.61 L 104.15 118.35 L 104.81 119.82 L 103.15 119.20 L 103.94 120.67 L 102.46 120.24 L 102.62 121.74 L 101.27 121.23 L 101.61 122.16 C 100.24 123.08 98.93 124.10 97.40 124.75 L 97.26 125.71 C 96.78 125.62 95.83 125.43 95.35 125.33 L 95.40 126.83 C 94.91 126.68 93.93 126.38 93.44 126.23 L 93.50 127.34 C 89.10 128.46 84.65 129.79 80.06 129.62 C 65.37 129.59 50.68 129.62 35.99 129.61 C 33.01 129.66 30.18 128.59 27.22 128.40 L 27.95 127.53 C 27.08 127.53 25.33 127.54 24.46 127.54 L 24.56 126.18 C 24.07 126.35 23.10 126.70 22.62 126.87 L 22.66 125.35 C 22.18 125.44 21.22 125.61 20.74 125.70 L 20.58 124.73 C 19.06 124.10 17.75 123.10 16.41 122.18 L 16.68 121.27 L 15.28 121.71 L 15.66 120.20 L 14.20 120.79 L 14.77 119.32 L 13.21 119.72 L 13.81 118.31 L 12.84 118.61 C 11.93 117.27 10.92 115.98 10.33 114.47 C 10.06 114.40 9.51 114.25 9.24 114.18 L 9.77 112.49 L 8.15 112.31 C 8.32 111.84 8.65 110.92 8.82 110.45 L 7.43 110.52 C 7.45 109.66 7.48 107.93 7.50 107.07 L 6.42 107.79 C 6.46 106.25 6.51 104.71 6.56 103.17 C 6.32 103.32 5.84 103.62 5.60 103.77 C 5.25 81.27 5.26 58.74 5.60 36.23 C 5.83 36.38 6.29 36.68 6.52 36.84 C 6.50 35.27 6.47 33.70 6.45 32.14 L 7.46 33.01 C 7.46 32.12 7.47 30.34 7.47 29.46 L 8.86 29.53 C 8.67 29.07 8.29 28.13 8.10 27.66 L 9.64 27.63 C 9.56 27.16 9.39 26.21 9.31 25.74 L 10.30 25.54 C 10.91 24.02 11.92 22.73 12.86 21.40 L 13.80 21.68 L 13.26 20.28 L 14.80 20.63 L 14.21 19.16 L 15.67 19.83 L 15.26 18.28 L 16.67 18.76 L 16.41 17.81 C 17.73 16.90 19.06 15.98 20.53 15.29 L 20.74 14.30 C 21.21 14.39 22.15 14.57 22.62 14.66 L 22.66 13.11 C 23.13 13.29 24.06 13.66 24.53 13.85 L 24.47 12.47 C 25.35 12.47 27.12 12.46 28.01 12.46 L 27.17 11.52 C 28.61 11.47 30.04 11.39 31.47 11.27 M 32.21 11.50 C 32.31 11.70 32.51 12.11 32.61 12.31 C 30.12 12.33 27.75 13.08 25.35 13.62 L 25.35 14.66 C 24.91 14.55 24.03 14.34 23.59 14.23 C 23.50 14.58 23.31 15.29 23.22 15.64 L 21.53 15.20 L 21.36 16.68 C 20.83 16.58 19.78 16.38 19.25 16.29 L 19.90 17.96 L 18.46 16.98 L 18.61 18.07 C 16.33 19.44 14.43 21.32 13.08 23.62 L 12.03 23.42 L 12.92 24.81 L 11.25 24.30 C 11.37 24.81 11.59 25.84 11.70 26.36 L 10.28 26.47 C 10.36 26.92 10.51 27.84 10.58 28.29 L 9.27 28.52 C 9.36 28.98 9.55 29.90 9.64 30.35 L 8.62 30.37 C 7.96 32.78 7.40 35.21 7.19 37.71 L 6.48 37.09 C 6.69 59.01 6.68 80.95 6.49 102.87 L 7.20 102.32 C 7.45 104.80 7.98 107.24 8.63 109.64 L 9.65 109.65 C 9.54 110.10 9.34 111.01 9.24 111.47 L 10.57 111.69 C 10.50 112.15 10.36 113.07 10.30 113.53 L 11.70 113.64 C 11.59 114.16 11.37 115.21 11.26 115.74 L 12.92 115.10 L 12.01 116.53 L 13.07 116.40 C 14.46 118.65 16.30 120.58 18.58 121.92 L 18.50 123.02 L 19.93 122.01 L 19.24 123.72 C 19.78 123.62 20.85 123.42 21.38 123.32 L 21.46 124.71 C 21.91 124.64 22.82 124.50 23.28 124.43 L 23.55 125.76 C 24.00 125.66 24.91 125.46 25.37 125.36 L 25.35 126.38 C 27.51 126.90 29.66 127.43 31.87 127.72 L 31.05 128.48 C 49.27 128.37 67.51 128.26 85.73 128.54 C 85.64 128.31 85.47 127.86 85.38 127.64 C 87.21 127.54 89.04 127.46 90.88 127.41 L 90.41 125.97 C 90.91 126.21 91.90 126.67 92.40 126.90 L 92.63 125.43 C 93.10 125.50 94.04 125.63 94.52 125.69 L 94.71 124.42 C 95.17 124.50 96.08 124.64 96.53 124.72 L 96.64 123.31 C 97.16 123.41 98.21 123.63 98.74 123.74 L 98.10 122.07 L 99.52 122.99 L 99.42 121.92 C 101.68 120.55 103.56 118.67 104.93 116.41 L 106.02 116.50 L 105.06 115.04 L 106.74 115.76 C 106.63 115.22 106.42 114.16 106.31 113.63 L 107.70 113.54 C 107.63 113.08 107.51 112.17 107.44 111.71 L 108.76 111.45 C 108.66 111.00 108.46 110.10 108.36 109.64 L 109.38 109.64 C 109.97 107.28 110.57 104.91 110.74 102.47 C 110.94 102.53 111.32 102.67 111.51 102.73 C 111.29 80.52 111.36 58.30 111.48 36.08 L 110.70 36.79 C 110.43 34.62 109.93 32.49 109.38 30.37 L 108.36 30.35 C 108.46 29.90 108.66 28.99 108.76 28.54 L 107.42 28.30 C 107.50 27.84 107.64 26.92 107.72 26.46 L 106.31 26.37 C 106.41 25.84 106.62 24.78 106.72 24.25 L 105.07 24.93 L 106.00 23.50 L 104.93 23.59 C 103.54 21.34 101.69 19.43 99.41 18.08 L 99.52 17.01 L 98.12 17.95 L 98.74 16.29 C 98.21 16.38 97.15 16.58 96.62 16.67 L 96.54 15.28 C 96.08 15.36 95.16 15.50 94.69 15.58 L 94.46 14.24 C 94.01 14.34 93.10 14.54 92.65 14.65 L 92.65 13.63 C 90.25 13.08 87.88 12.34 85.40 12.30 C 85.49 12.10 85.68 11.69 85.77 11.48 C 67.92 11.70 50.06 11.67 32.21 11.50 Z" />
<path fill="#f7fbf8" opacity="1.00" d=" M 60.07 41.56 C 60.33 37.23 59.95 32.84 60.69 28.55 C 61.07 32.94 60.73 37.35 60.63 41.74 C 65.66 41.99 69.94 45.60 71.21 50.44 C 75.52 50.71 79.93 49.93 84.18 50.79 C 85.34 53.39 84.51 56.35 83.88 58.99 C 81.01 69.16 70.16 77.56 59.36 74.54 C 59.46 70.57 59.41 66.59 59.42 62.62 C 54.08 61.78 50.20 57.20 49.65 51.91 C 45.28 51.76 40.90 51.86 36.53 51.68 C 40.91 50.77 45.41 51.39 49.83 51.41 C 50.64 46.17 54.97 42.44 60.07 41.56 M 58.16 43.17 C 51.63 44.69 48.54 53.68 53.51 58.52 C 58.35 63.98 68.79 61.41 69.92 54.02 C 71.66 47.32 64.55 41.32 58.16 43.17 Z" />
</g>
</svg>
