<?xml version="1.0" encoding="UTF-8" ?>
<!DOCTYPE svg PUBLIC "-//W3C//DTD SVG 1.1//EN" "http://www.w3.org/Graphics/SVG/1.1/DTD/svg11.dtd">
<svg width="117px" height="140px" viewBox="0 0 117 140" version="1.1" xmlns="http://www.w3.org/2000/svg">
<g id="#000000ff">
<path fill="#000000" opacity="1.00" d=" M 0.00 0.00 L 117.00 0.00 L 117.00 140.00 L 0.00 140.00 L 0.00 0.00 M 31.36 10.59 L 31.80 11.27 C 29.27 11.27 26.85 12.00 24.46 12.74 L 24.54 13.84 C 24.07 13.66 23.12 13.30 22.64 13.12 L 22.61 14.69 C 22.14 14.58 21.21 14.38 20.74 14.27 L 20.63 15.10 C 19.18 15.95 17.80 16.89 16.39 17.80 L 16.74 18.23 C 16.36 18.64 15.61 19.46 15.23 19.87 L 14.12 19.01 L 14.78 20.16 C 14.38 20.57 13.59 21.37 13.19 21.78 L 12.82 21.36 C 11.91 22.78 10.95 24.18 10.10 25.64 L 9.27 25.73 C 9.37 26.20 9.59 27.14 9.69 27.61 L 8.13 27.65 C 8.30 28.12 8.65 29.07 8.83 29.55 L 7.74 29.47 C 6.72 33.24 5.33 37.00 5.40 40.96 C 5.38 60.32 5.38 79.67 5.40 99.02 C 5.33 103.00 6.73 106.76 7.75 110.54 L 8.82 110.44 C 8.66 110.91 8.32 111.85 8.15 112.32 L 9.78 112.49 L 9.24 114.18 C 9.46 114.24 9.90 114.37 10.12 114.43 C 10.97 115.86 11.92 117.23 12.82 118.63 L 13.47 118.19 C 13.55 118.65 13.71 119.57 13.80 120.03 C 14.74 120.63 15.70 121.22 16.67 121.78 L 16.40 122.21 C 17.80 123.11 19.18 124.06 20.62 124.90 L 20.74 125.72 C 21.21 125.62 22.15 125.42 22.62 125.33 L 22.66 126.91 C 23.12 126.72 24.06 126.33 24.52 126.14 L 24.49 127.54 C 25.31 127.53 26.94 127.52 27.76 127.51 L 27.37 128.59 C 28.80 128.58 30.24 128.58 31.67 128.57 L 31.37 129.41 C 46.91 129.85 62.46 129.48 78.00 129.62 C 80.94 129.54 84.04 129.93 86.81 128.71 C 88.12 128.63 89.43 128.55 90.74 128.48 L 90.11 127.53 C 90.96 127.53 92.66 127.53 93.51 127.54 L 93.47 126.14 C 93.94 126.33 94.88 126.72 95.34 126.91 L 95.38 125.32 C 95.85 125.42 96.80 125.62 97.28 125.73 L 97.36 124.91 C 98.81 124.06 100.20 123.11 101.61 122.20 L 101.32 121.91 C 101.72 121.50 102.51 120.66 102.91 120.24 L 103.85 120.99 L 103.35 119.93 C 103.73 119.51 104.49 118.67 104.87 118.25 L 105.18 118.63 C 106.08 117.23 107.04 115.85 107.88 114.41 C 108.11 114.35 108.56 114.24 108.78 114.18 L 108.20 112.51 L 109.86 112.32 C 109.69 111.85 109.35 110.92 109.18 110.45 L 110.55 110.50 C 110.54 109.63 110.53 107.90 110.52 107.03 L 111.26 107.84 C 111.83 104.58 112.76 101.37 112.61 98.03 C 112.60 79.02 112.63 60.01 112.59 41.00 C 112.67 37.02 111.29 33.24 110.24 29.46 L 109.16 29.54 C 109.34 29.06 109.71 28.12 109.89 27.64 L 108.31 27.62 C 108.41 27.15 108.60 26.21 108.70 25.74 L 107.88 25.58 C 107.03 24.15 106.10 22.77 105.20 21.37 L 104.84 21.69 C 104.16 20.76 103.56 19.79 103.02 18.78 C 102.57 18.70 101.66 18.54 101.21 18.46 L 101.62 17.81 C 100.21 16.90 98.82 15.95 97.37 15.10 L 97.26 14.27 C 96.79 14.38 95.85 14.59 95.38 14.69 L 95.36 13.12 C 94.88 13.30 93.93 13.66 93.45 13.83 L 93.54 12.76 C 89.47 11.60 85.37 10.22 81.08 10.39 C 64.51 10.51 47.93 10.16 31.36 10.59 Z" />
<path fill="#000000" opacity="1.00" d=" M 27.18 12.67 C 28.48 12.56 29.77 12.44 31.06 12.29 C 33.57 11.25 36.33 11.68 38.97 11.60 C 54.95 11.58 70.93 11.68 86.92 11.55 L 86.27 12.43 C 87.81 12.49 89.35 12.54 90.90 12.59 L 90.40 13.84 C 90.77 13.72 91.53 13.50 91.91 13.38 C 93.45 14.22 95.01 15.02 96.59 15.78 L 96.76 16.72 C 97.24 16.58 98.20 16.29 98.68 16.14 L 98.11 17.68 L 99.15 17.29 C 101.38 19.45 103.57 21.64 105.73 23.87 L 105.21 24.84 L 106.79 24.33 C 106.67 24.82 106.43 25.80 106.32 26.29 L 107.21 26.38 C 107.98 28.00 108.80 29.59 109.66 31.16 L 109.08 32.53 C 109.35 32.44 109.89 32.26 110.16 32.17 C 110.39 33.74 110.78 35.26 111.34 36.73 C 111.47 58.91 111.35 81.10 111.39 103.28 C 110.09 106.79 108.91 110.36 107.26 113.73 L 106.23 113.70 C 106.39 114.18 106.72 115.14 106.88 115.62 L 105.96 115.39 C 104.01 118.10 101.57 120.39 99.17 122.69 L 98.12 122.36 L 98.68 123.87 C 98.20 123.72 97.24 123.42 96.76 123.27 L 96.58 124.37 C 95.30 124.87 94.02 125.39 92.73 125.88 L 92.64 126.30 C 89.14 127.13 85.73 128.66 82.06 128.41 C 65.10 128.17 48.11 128.80 31.18 128.10 C 29.76 127.56 28.32 127.07 26.91 126.51 C 26.65 126.53 26.14 126.57 25.88 126.58 C 25.38 126.27 24.39 125.64 23.89 125.32 C 23.26 125.07 22.00 124.55 21.37 124.30 L 21.25 123.27 C 20.78 123.41 19.85 123.71 19.38 123.85 L 19.61 122.96 C 16.70 120.86 14.14 118.31 12.05 115.40 L 11.15 115.61 C 11.30 115.15 11.59 114.21 11.73 113.75 L 10.71 113.65 C 10.44 113.00 9.92 111.71 9.66 111.07 C 9.32 110.53 8.62 109.47 8.28 108.93 L 8.92 107.44 C 8.64 107.54 8.10 107.74 7.82 107.84 C 7.58 106.24 7.26 104.66 6.65 103.16 C 6.58 81.05 6.58 58.95 6.65 36.85 C 7.29 35.33 7.59 33.70 7.83 32.08 L 8.85 32.65 C 8.73 32.27 8.49 31.51 8.36 31.13 C 9.22 29.55 10.04 27.96 10.81 26.34 L 11.74 26.28 C 11.59 25.80 11.29 24.83 11.14 24.34 L 12.72 24.86 L 12.27 23.86 C 14.44 21.62 16.65 19.42 18.88 17.25 L 19.83 17.81 L 19.34 16.22 C 19.83 16.33 20.81 16.57 21.30 16.69 L 21.36 15.70 C 22.01 15.44 23.31 14.92 23.96 14.65 C 24.48 14.31 25.54 13.62 26.06 13.27 L 27.49 13.97 C 27.41 13.64 27.26 12.99 27.18 12.67 M 33.22 39.57 C 34.24 40.57 35.25 41.57 36.27 42.57 C 47.30 31.55 66.77 31.57 77.87 42.48 C 78.85 41.42 79.84 40.37 80.83 39.31 C 74.82 34.02 67.19 30.38 59.10 30.14 C 49.62 29.46 40.05 32.99 33.22 39.57 M 39.90 46.07 C 41.05 47.23 42.20 48.40 43.33 49.58 C 50.72 42.46 63.21 42.52 70.72 49.41 C 71.90 48.25 73.09 47.09 74.28 45.93 C 71.02 43.49 67.57 41.12 63.52 40.23 C 55.28 37.91 46.20 40.39 39.90 46.07 M 47.00 53.02 C 48.10 54.14 49.18 55.27 50.26 56.41 C 54.30 53.30 59.73 53.35 63.84 56.29 C 64.97 55.14 66.12 54.01 67.28 52.88 C 61.40 48.29 52.73 48.04 47.00 53.02 M 74.05 51.34 C 72.93 56.54 73.79 62.00 73.61 67.31 C 62.38 67.36 51.15 67.28 39.92 67.34 C 36.88 67.14 34.09 70.01 34.34 73.04 C 34.56 75.80 37.13 78.12 39.92 77.94 C 52.60 77.96 65.29 78.03 77.98 77.91 C 81.56 77.94 84.10 73.74 82.54 70.56 C 81.56 67.96 78.61 67.32 76.17 67.05 C 76.15 61.86 76.64 56.61 75.93 51.46 C 75.46 51.43 74.52 51.37 74.05 51.34 M 53.09 58.98 C 54.42 60.55 55.80 62.09 57.28 63.52 C 58.81 62.18 60.08 60.59 61.29 58.97 C 59.90 58.43 58.61 57.44 57.08 57.33 C 55.70 57.76 54.41 58.42 53.09 58.98 Z" />
<path fill="#000000" opacity="1.00" d=" M 61.85 72.83 C 62.44 70.36 64.65 71.64 65.59 73.11 C 64.26 73.49 62.60 74.72 61.85 72.83 Z" />
<path fill="#000000" opacity="1.00" d=" M 65.98 71.81 C 67.08 71.28 68.23 71.34 69.24 72.06 C 68.54 73.02 67.78 73.92 66.94 74.76 C 66.70 74.02 66.22 72.55 65.98 71.81 Z" />
<path fill="#000000" opacity="1.00" d=" M 70.64 71.63 C 71.38 70.32 74.31 72.78 72.54 73.49 C 71.69 75.43 68.82 72.45 70.64 71.63 Z" />
</g>
<g id="#f7fbf8ff">
<path fill="#f7fbf8" opacity="1.00" d=" M 31.36 10.59 C 47.93 10.16 64.51 10.51 81.08 10.39 C 85.37 10.22 89.47 11.60 93.54 12.76 L 93.45 13.83 C 93.93 13.66 94.88 13.30 95.36 13.12 L 95.38 14.69 C 95.85 14.59 96.79 14.38 97.26 14.27 L 97.37 15.10 C 98.82 15.95 100.21 16.90 101.62 17.81 L 101.21 18.46 C 101.66 18.54 102.57 18.70 103.02 18.78 C 103.56 19.79 104.16 20.76 104.84 21.69 L 105.20 21.37 C 106.10 22.77 107.03 24.15 107.88 25.58 L 108.70 25.74 C 108.60 26.21 108.41 27.15 108.31 27.62 L 109.89 27.64 C 109.71 28.12 109.34 29.06 109.16 29.54 L 110.24 29.46 C 111.29 33.24 112.67 37.02 112.59 41.00 C 112.63 60.01 112.60 79.02 112.61 98.03 C 112.76 101.37 111.83 104.58 111.26 107.84 L 110.52 107.03 C 110.53 107.90 110.54 109.63 110.55 110.50 L 109.18 110.45 C 109.35 110.92 109.69 111.85 109.86 112.32 L 108.20 112.51 L 108.78 114.18 C 108.56 114.24 108.11 114.35 107.88 114.41 C 107.04 115.85 106.08 117.23 105.18 118.63 L 104.87 118.25 C 104.49 118.67 103.73 119.51 103.35 119.93 L 103.85 120.99 L 102.91 120.24 C 102.51 120.66 101.72 121.50 101.32 121.91 L 101.61 122.20 C 100.20 123.11 98.81 124.06 97.36 124.91 L 97.28 125.73 C 96.80 125.62 95.85 125.42 95.38 125.32 L 95.34 126.91 C 94.88 126.72 93.94 126.33 93.47 126.14 L 93.51 127.54 C 92.66 127.53 90.96 127.53 90.11 127.53 L 90.74 128.48 C 89.43 128.55 88.12 128.63 86.81 128.71 C 84.04 129.93 80.94 129.54 78.00 129.62 C 62.46 129.48 46.91 129.85 31.37 129.41 L 31.67 128.57 C 30.24 128.58 28.80 128.58 27.37 128.59 L 27.76 127.51 C 26.94 127.52 25.31 127.53 24.49 127.54 L 24.52 126.14 C 24.06 126.33 23.12 126.72 22.66 126.91 L 22.62 125.33 C 22.15 125.42 21.21 125.62 20.74 125.72 L 20.62 124.90 C 19.18 124.06 17.80 123.11 16.40 122.21 L 16.67 121.78 C 15.70 121.22 14.74 120.63 13.80 120.03 C 13.71 119.57 13.55 118.65 13.47 118.19 L 12.82 118.63 C 11.92 117.23 10.97 115.86 10.12 114.43 C 9.90 114.37 9.46 114.24 9.24 114.18 L 9.78 112.49 L 8.15 112.32 C 8.32 111.85 8.66 110.91 8.82 110.44 L 7.75 110.54 C 6.73 106.76 5.33 103.00 5.40 99.02 C 5.38 79.67 5.38 60.32 5.40 40.96 C 5.33 37.00 6.72 33.24 7.74 29.47 L 8.83 29.55 C 8.65 29.07 8.30 28.12 8.13 27.65 L 9.69 27.61 C 9.59 27.14 9.37 26.20 9.27 25.73 L 10.10 25.64 C 10.95 24.18 11.91 22.78 12.82 21.36 L 13.19 21.78 C 13.59 21.37 14.38 20.57 14.78 20.16 L 14.12 19.01 L 15.23 19.87 C 15.61 19.46 16.36 18.64 16.74 18.23 L 16.39 17.80 C 17.80 16.89 19.18 15.95 20.63 15.10 L 20.74 14.27 C 21.21 14.38 22.14 14.58 22.61 14.69 L 22.64 13.12 C 23.12 13.30 24.07 13.66 24.54 13.84 L 24.46 12.74 C 26.85 12.00 29.27 11.27 31.80 11.27 L 31.36 10.59 M 27.18 12.67 C 27.26 12.99 27.41 13.64 27.49 13.97 L 26.06 13.27 C 25.54 13.62 24.48 14.31 23.96 14.65 C 23.31 14.92 22.01 15.44 21.36 15.70 L 21.30 16.69 C 20.81 16.57 19.83 16.33 19.34 16.22 L 19.83 17.81 L 18.88 17.25 C 16.65 19.42 14.44 21.62 12.27 23.86 L 12.72 24.86 L 11.14 24.34 C 11.29 24.83 11.59 25.80 11.74 26.28 L 10.81 26.34 C 10.04 27.96 9.22 29.55 8.36 31.13 C 8.49 31.51 8.73 32.27 8.85 32.65 L 7.83 32.08 C 7.59 33.70 7.29 35.33 6.65 36.85 C 6.58 58.95 6.58 81.05 6.65 103.16 C 7.26 104.66 7.58 106.24 7.82 107.84 C 8.10 107.74 8.64 107.54 8.92 107.44 L 8.28 108.93 C 8.62 109.47 9.32 110.53 9.66 111.07 C 9.92 111.71 10.44 113.00 10.71 113.65 L 11.73 113.75 C 11.59 114.21 11.30 115.15 11.15 115.61 L 12.05 115.40 C 14.14 118.31 16.70 120.86 19.61 122.96 L 19.38 123.85 C 19.85 123.71 20.78 123.41 21.25 123.27 L 21.37 124.30 C 22.00 124.55 23.26 125.07 23.89 125.32 C 24.39 125.64 25.38 126.27 25.88 126.58 C 26.14 126.57 26.65 126.53 26.91 126.51 C 28.32 127.07 29.76 127.56 31.18 128.10 C 48.11 128.80 65.10 128.17 82.06 128.41 C 85.73 128.66 89.14 127.13 92.64 126.30 L 92.73 125.88 C 94.02 125.39 95.30 124.87 96.58 124.37 L 96.76 123.27 C 97.24 123.42 98.20 123.72 98.68 123.87 L 98.12 122.36 L 99.17 122.69 C 101.57 120.39 104.01 118.10 105.96 115.39 L 106.88 115.62 C 106.72 115.14 106.39 114.18 106.23 113.70 L 107.26 113.73 C 108.91 110.36 110.09 106.79 111.39 103.28 C 111.35 81.10 111.47 58.91 111.34 36.73 C 110.78 35.26 110.39 33.74 110.16 32.17 C 109.89 32.26 109.35 32.44 109.08 32.53 L 109.66 31.16 C 108.80 29.59 107.98 28.00 107.21 26.38 L 106.32 26.29 C 106.43 25.80 106.67 24.82 106.79 24.33 L 105.21 24.84 L 105.73 23.87 C 103.57 21.64 101.38 19.45 99.15 17.29 L 98.11 17.68 L 98.68 16.14 C 98.20 16.29 97.24 16.58 96.76 16.72 L 96.59 15.78 C 95.01 15.02 93.45 14.22 91.91 13.38 C 91.53 13.50 90.77 13.72 90.40 13.84 L 90.90 12.59 C 89.35 12.54 87.81 12.49 86.27 12.43 L 86.92 11.55 C 70.93 11.68 54.95 11.58 38.97 11.60 C 36.33 11.68 33.57 11.25 31.06 12.29 C 29.77 12.44 28.48 12.56 27.18 12.67 Z" />
<path fill="#f7fbf8" opacity="1.00" d=" M 33.22 39.57 C 40.05 32.99 49.62 29.46 59.10 30.14 C 67.19 30.38 74.82 34.02 80.83 39.31 C 79.84 40.37 78.85 41.42 77.87 42.48 C 66.77 31.57 47.30 31.55 36.27 42.57 C 35.25 41.57 34.24 40.57 33.22 39.57 Z" />
<path fill="#f7fbf8" opacity="1.00" d=" M 39.90 46.07 C 46.20 40.39 55.28 37.91 63.52 40.23 C 67.57 41.12 71.02 43.49 74.28 45.93 C 73.09 47.09 71.90 48.25 70.72 49.41 C 63.21 42.52 50.72 42.46 43.33 49.58 C 42.20 48.40 41.05 47.23 39.90 46.07 Z" />
<path fill="#f7fbf8" opacity="1.00" d=" M 47.00 53.02 C 52.73 48.04 61.40 48.29 67.28 52.88 C 66.12 54.01 64.97 55.14 63.84 56.29 C 59.73 53.35 54.30 53.30 50.26 56.41 C 49.18 55.27 48.10 54.14 47.00 53.02 Z" />
<path fill="#f7fbf8" opacity="1.00" d=" M 74.05 51.34 C 74.52 51.37 75.46 51.43 75.93 51.46 C 76.64 56.61 76.15 61.86 76.17 67.05 C 78.61 67.32 81.56 67.96 82.54 70.56 C 84.10 73.74 81.56 77.94 77.98 77.91 C 65.29 78.03 52.60 77.96 39.92 77.94 C 37.13 78.12 34.56 75.80 34.34 73.04 C 34.09 70.01 36.88 67.14 39.92 67.34 C 51.15 67.28 62.38 67.36 73.61 67.31 C 73.79 62.00 72.93 56.54 74.05 51.34 M 61.85 72.83 C 62.60 74.72 64.26 73.49 65.59 73.11 C 64.65 71.64 62.44 70.36 61.85 72.83 M 65.98 71.81 C 66.22 72.55 66.70 74.02 66.94 74.76 C 67.78 73.92 68.54 73.02 69.24 72.06 C 68.23 71.34 67.08 71.28 65.98 71.81 M 70.64 71.63 C 68.82 72.45 71.69 75.43 72.54 73.49 C 74.31 72.78 71.38 70.32 70.64 71.63 Z" />
<path fill="#f7fbf8" opacity="1.00" d=" M 53.09 58.98 C 54.41 58.42 55.70 57.76 57.08 57.33 C 58.61 57.44 59.90 58.43 61.29 58.97 C 60.08 60.59 58.81 62.18 57.28 63.52 C 55.80 62.09 54.42 60.55 53.09 58.98 Z" />
</g>
</svg>
