<?xml version="1.0" encoding="UTF-8" ?>
<!DOCTYPE svg PUBLIC "-//W3C//DTD SVG 1.1//EN" "http://www.w3.org/Graphics/SVG/1.1/DTD/svg11.dtd">
<svg width="117px" height="140px" viewBox="0 0 117 140" version="1.1" xmlns="http://www.w3.org/2000/svg">
<g id="#000000ff">
<path fill="#000000" opacity="1.00" d=" M 0.00 0.00 L 117.00 0.00 L 117.00 140.00 L 0.00 140.00 L 0.00 0.00 M 32.05 10.49 L 33.04 11.32 C 30.10 11.15 27.24 11.76 24.48 12.73 L 24.53 13.81 C 24.06 13.64 23.12 13.30 22.65 13.13 L 22.61 14.68 C 22.15 14.58 21.24 14.38 20.78 14.28 L 20.54 15.14 C 19.15 15.95 17.80 16.85 16.45 17.73 L 16.58 18.11 C 15.69 18.79 14.77 19.44 13.82 20.04 C 13.74 20.49 13.58 21.39 13.50 21.84 L 12.91 21.44 C 11.74 23.06 10.54 24.65 9.35 26.25 L 9.75 27.51 L 8.11 27.70 C 8.30 28.16 8.67 29.08 8.85 29.54 L 7.47 29.48 C 7.46 30.35 7.45 32.10 7.44 32.98 L 6.44 32.19 C 6.43 33.78 6.43 35.38 6.43 36.97 L 5.60 36.12 C 5.24 58.65 5.27 81.20 5.58 103.73 C 5.80 103.59 6.24 103.31 6.46 103.17 C 6.44 104.85 6.43 106.54 6.42 108.22 L 7.36 106.27 C 7.39 107.32 7.44 109.44 7.47 110.49 L 8.82 110.46 C 8.65 110.93 8.30 111.87 8.12 112.34 L 9.69 112.41 C 9.59 112.86 9.39 113.78 9.29 114.24 L 10.14 114.45 C 10.97 115.87 11.89 117.23 12.79 118.61 L 13.77 118.33 L 13.26 119.82 L 14.92 119.24 L 13.98 120.69 L 15.20 120.25 L 15.68 121.39 L 16.86 121.58 L 16.34 122.18 C 17.74 123.08 19.10 124.01 20.53 124.86 L 20.78 125.71 C 21.24 125.61 22.17 125.43 22.63 125.33 L 22.65 126.91 C 23.12 126.72 24.06 126.34 24.53 126.14 L 24.47 127.47 C 25.72 127.54 28.22 127.66 29.47 127.72 L 26.29 128.31 C 29.87 128.55 33.32 129.77 36.94 129.62 C 53.28 129.55 69.63 129.73 85.97 129.51 L 84.96 128.67 C 87.91 128.86 90.77 128.27 93.52 127.27 L 93.45 126.19 C 93.93 126.36 94.89 126.70 95.37 126.87 L 95.38 125.32 C 95.84 125.42 96.77 125.62 97.24 125.73 L 97.42 124.88 C 98.85 124.04 100.23 123.09 101.64 122.19 L 101.40 121.06 L 102.79 121.82 L 102.28 120.19 L 103.66 120.90 L 103.34 119.36 L 104.93 119.60 L 104.04 118.44 L 105.21 118.60 C 106.11 117.21 107.05 115.84 107.89 114.41 L 108.70 114.26 C 108.61 113.79 108.42 112.85 108.32 112.38 L 109.90 112.35 C 109.72 111.88 109.35 110.94 109.16 110.47 L 110.55 110.50 C 110.55 109.64 110.55 107.93 110.55 107.07 L 111.59 107.76 C 111.58 106.23 111.56 104.69 111.53 103.16 C 111.75 103.30 112.20 103.59 112.42 103.73 C 112.85 83.49 112.49 63.24 112.62 43.00 C 112.83 39.30 111.93 35.72 111.26 32.12 L 110.90 33.02 C 110.68 31.51 110.20 30.11 109.44 28.80 L 110.03 27.76 C 109.59 27.70 108.72 27.59 108.28 27.54 C 108.37 27.20 108.55 26.53 108.64 26.20 C 107.47 24.63 106.28 23.08 105.13 21.50 L 104.89 21.59 C 104.22 20.68 103.58 19.75 102.97 18.80 C 102.52 18.73 101.63 18.60 101.18 18.53 L 101.60 17.78 C 100.23 16.89 98.87 15.97 97.46 15.14 L 97.22 14.29 C 96.76 14.38 95.84 14.57 95.38 14.66 L 95.34 13.09 C 94.87 13.28 93.94 13.66 93.48 13.85 L 93.54 12.52 C 92.44 12.47 90.23 12.38 89.13 12.34 L 91.24 11.44 C 89.16 11.43 87.07 11.40 84.99 11.40 L 85.96 10.50 C 67.99 10.31 50.02 10.33 32.05 10.49 Z" />
<path fill="#000000" opacity="1.00" d=" M 27.10 12.73 C 30.46 12.67 33.69 11.51 37.06 11.60 C 51.69 11.62 66.33 11.63 80.96 11.59 C 85.00 11.41 88.81 12.91 92.71 13.72 L 92.63 14.67 C 93.09 14.56 94.01 14.34 94.46 14.23 L 94.71 15.60 C 95.17 15.52 96.09 15.35 96.54 15.27 L 96.60 16.67 C 97.13 16.58 98.18 16.41 98.71 16.32 L 98.23 18.25 L 99.49 16.84 L 99.48 17.93 C 101.52 19.52 103.36 21.37 105.01 23.36 L 105.21 23.42 C 105.77 24.36 106.35 25.31 106.92 26.25 C 107.49 27.17 108.07 28.09 108.66 29.00 C 108.57 29.33 108.39 29.99 108.31 30.33 L 109.32 30.32 C 109.85 32.50 110.46 34.66 110.82 36.88 L 111.46 35.97 C 111.30 57.36 111.43 78.76 111.39 100.15 C 111.31 103.44 110.00 106.53 109.28 109.70 L 108.30 109.66 C 108.42 110.10 108.67 110.97 108.80 111.41 C 108.44 111.50 107.72 111.69 107.36 111.79 L 107.79 113.47 L 106.30 113.64 C 106.41 114.16 106.62 115.19 106.73 115.71 L 104.99 115.15 L 106.03 116.51 L 105.07 116.50 C 103.45 118.57 101.58 120.43 99.51 122.06 L 99.51 122.99 L 98.14 122.04 L 98.71 123.75 C 98.19 123.63 97.15 123.40 96.63 123.29 L 96.54 124.72 C 96.09 124.64 95.18 124.49 94.72 124.41 L 94.51 125.71 C 94.04 125.63 93.10 125.48 92.64 125.40 L 92.41 126.88 C 91.90 126.66 90.88 126.20 90.37 125.98 L 90.90 127.27 C 87.56 127.32 84.36 128.50 81.02 128.40 C 64.30 128.41 47.58 128.32 30.86 128.44 L 31.96 127.82 C 29.71 127.36 27.50 126.73 25.25 126.28 L 25.38 125.32 C 24.92 125.43 24.01 125.66 23.55 125.78 L 23.27 124.41 C 22.81 124.49 21.90 124.64 21.44 124.72 L 21.40 123.33 C 20.88 123.41 19.83 123.59 19.30 123.68 L 19.75 121.75 L 18.46 123.15 L 18.51 122.08 C 16.43 120.45 14.56 118.57 12.93 116.49 L 11.97 116.52 L 13.02 115.20 L 11.26 115.69 C 11.38 115.17 11.60 114.14 11.71 113.63 L 10.29 113.54 C 10.36 113.08 10.51 112.16 10.59 111.70 L 9.23 111.47 C 9.34 111.01 9.56 110.10 9.67 109.64 L 8.67 109.70 C 8.10 107.23 7.45 104.79 7.11 102.28 L 6.54 102.97 C 6.67 80.99 6.66 59.00 6.54 37.02 L 7.12 37.69 C 7.42 35.19 8.04 32.75 8.67 30.31 L 9.71 30.32 C 9.62 29.99 9.44 29.33 9.35 28.99 C 9.93 28.08 10.51 27.16 11.08 26.24 C 11.66 25.29 12.23 24.33 12.81 23.37 L 13.00 23.43 C 14.61 21.38 16.46 19.53 18.51 17.93 L 18.50 16.86 L 19.80 18.22 L 19.28 16.32 C 19.81 16.41 20.86 16.59 21.39 16.67 L 21.47 15.26 C 21.92 15.35 22.84 15.52 23.29 15.61 L 23.48 14.30 C 23.95 14.37 24.89 14.52 25.37 14.59 L 25.60 13.11 C 26.11 13.34 27.12 13.80 27.63 14.02 L 27.10 12.73 M 50.31 28.04 C 50.31 37.67 50.32 47.30 50.30 56.93 C 44.51 61.29 43.13 70.40 48.09 75.90 C 52.76 81.73 62.82 81.13 66.76 74.79 C 70.79 69.18 69.04 61.04 63.70 56.92 C 63.67 47.29 63.69 37.67 63.69 28.04 C 59.23 28.02 54.77 28.02 50.31 28.04 M 67.82 30.89 C 66.50 34.89 71.29 33.24 73.50 33.24 C 73.17 30.13 70.06 30.65 67.82 30.89 M 67.82 37.87 C 66.49 41.80 71.34 40.16 73.49 40.19 C 73.18 37.09 70.05 37.56 67.82 37.87 M 67.79 44.83 C 66.52 48.71 71.27 47.03 73.43 47.19 C 73.29 44.00 70.01 44.49 67.79 44.83 M 67.77 54.19 C 69.64 54.37 71.52 54.27 73.39 54.16 C 73.78 50.56 66.20 50.34 67.77 54.19 Z" />
<path fill="#000000" opacity="1.00" d=" M 52.95 30.78 C 55.65 30.78 58.35 30.78 61.05 30.78 C 60.86 39.99 61.01 49.20 60.96 58.41 C 62.92 60.01 64.97 61.75 65.78 64.24 C 67.75 69.33 64.54 75.76 59.15 76.96 C 53.58 78.58 47.77 73.67 47.67 68.05 C 47.29 64.07 49.91 60.66 52.98 58.48 C 53.06 49.25 53.10 40.01 52.95 30.78 M 55.65 46.74 C 55.70 51.27 55.63 55.81 55.74 60.34 C 53.64 61.53 51.29 62.90 50.62 65.41 C 49.13 69.56 52.54 74.49 56.96 74.50 C 61.41 74.57 64.90 69.58 63.39 65.42 C 62.71 62.91 60.39 61.50 58.26 60.34 C 58.37 55.81 58.30 51.27 58.35 46.74 C 57.67 46.74 56.33 46.74 55.65 46.74 Z" />
</g>
<g id="#f5f9f6ff">
<path fill="#f5f9f6" opacity="1.00" d=" M 32.05 10.49 C 50.02 10.33 67.99 10.31 85.96 10.50 L 84.99 11.40 C 87.07 11.40 89.16 11.43 91.24 11.44 L 89.13 12.34 C 90.23 12.38 92.44 12.47 93.54 12.52 L 93.48 13.85 C 93.94 13.66 94.87 13.28 95.34 13.09 L 95.38 14.66 C 95.84 14.57 96.76 14.38 97.22 14.29 L 97.46 15.14 C 98.87 15.97 100.23 16.89 101.60 17.78 L 101.18 18.53 C 101.63 18.60 102.52 18.73 102.97 18.80 C 103.58 19.75 104.22 20.68 104.89 21.59 L 105.13 21.50 C 106.28 23.08 107.47 24.63 108.64 26.20 C 108.55 26.53 108.37 27.20 108.28 27.54 C 108.72 27.59 109.59 27.70 110.03 27.76 L 109.44 28.80 C 110.20 30.11 110.68 31.51 110.90 33.02 L 111.26 32.12 C 111.93 35.72 112.83 39.30 112.62 43.00 C 112.49 63.24 112.85 83.49 112.42 103.73 C 112.20 103.59 111.75 103.30 111.53 103.16 C 111.56 104.69 111.58 106.23 111.59 107.76 L 110.55 107.07 C 110.55 107.93 110.55 109.64 110.55 110.50 L 109.16 110.47 C 109.35 110.94 109.72 111.88 109.90 112.35 L 108.32 112.38 C 108.42 112.85 108.61 113.79 108.70 114.26 L 107.89 114.41 C 107.05 115.84 106.11 117.21 105.21 118.60 L 104.04 118.44 L 104.93 119.60 L 103.34 119.36 L 103.66 120.90 L 102.28 120.19 L 102.79 121.82 L 101.40 121.06 L 101.64 122.19 C 100.23 123.09 98.85 124.04 97.42 124.88 L 97.24 125.73 C 96.77 125.62 95.84 125.42 95.38 125.32 L 95.37 126.87 C 94.89 126.70 93.93 126.36 93.45 126.19 L 93.52 127.27 C 90.77 128.27 87.91 128.86 84.96 128.67 L 85.97 129.51 C 69.63 129.73 53.28 129.55 36.94 129.62 C 33.32 129.77 29.87 128.55 26.29 128.31 L 29.47 127.72 C 28.22 127.66 25.72 127.54 24.47 127.47 L 24.53 126.14 C 24.06 126.34 23.12 126.72 22.65 126.91 L 22.63 125.33 C 22.17 125.43 21.24 125.61 20.78 125.71 L 20.53 124.86 C 19.10 124.01 17.74 123.08 16.34 122.18 L 16.86 121.58 L 15.68 121.39 L 15.20 120.25 L 13.98 120.69 L 14.92 119.24 L 13.26 119.82 L 13.77 118.33 L 12.79 118.61 C 11.89 117.23 10.97 115.87 10.14 114.45 L 9.29 114.24 C 9.39 113.78 9.59 112.86 9.69 112.41 L 8.12 112.34 C 8.30 111.87 8.65 110.93 8.82 110.46 L 7.47 110.49 C 7.44 109.44 7.39 107.32 7.36 106.27 L 6.42 108.22 C 6.43 106.54 6.44 104.85 6.46 103.17 C 6.24 103.31 5.80 103.59 5.58 103.73 C 5.27 81.20 5.24 58.65 5.60 36.12 L 6.43 36.97 C 6.43 35.38 6.43 33.78 6.44 32.19 L 7.44 32.98 C 7.45 32.10 7.46 30.35 7.47 29.48 L 8.85 29.54 C 8.67 29.08 8.30 28.16 8.11 27.70 L 9.75 27.51 L 9.35 26.25 C 10.54 24.65 11.74 23.06 12.91 21.44 L 13.50 21.84 C 13.58 21.39 13.74 20.49 13.82 20.04 C 14.77 19.44 15.69 18.79 16.58 18.11 L 16.45 17.73 C 17.80 16.85 19.15 15.95 20.54 15.14 L 20.78 14.28 C 21.24 14.38 22.15 14.58 22.61 14.68 L 22.65 13.13 C 23.12 13.30 24.06 13.64 24.53 13.81 L 24.48 12.73 C 27.24 11.76 30.10 11.15 33.04 11.32 L 32.05 10.49 M 27.10 12.73 L 27.63 14.02 C 27.12 13.80 26.11 13.34 25.60 13.11 L 25.37 14.59 C 24.89 14.52 23.95 14.37 23.48 14.30 L 23.29 15.61 C 22.84 15.52 21.92 15.35 21.47 15.26 L 21.39 16.67 C 20.86 16.59 19.81 16.41 19.28 16.32 L 19.80 18.22 L 18.50 16.86 L 18.51 17.93 C 16.46 19.53 14.61 21.38 13.00 23.43 L 12.81 23.37 C 12.23 24.33 11.66 25.29 11.08 26.24 C 10.51 27.16 9.93 28.08 9.35 28.99 C 9.44 29.33 9.62 29.99 9.71 30.32 L 8.67 30.31 C 8.04 32.75 7.42 35.19 7.12 37.69 L 6.54 37.02 C 6.66 59.00 6.67 80.99 6.54 102.97 L 7.11 102.28 C 7.45 104.79 8.10 107.23 8.67 109.70 L 9.67 109.64 C 9.56 110.10 9.34 111.01 9.23 111.47 L 10.59 111.70 C 10.51 112.16 10.36 113.08 10.29 113.54 L 11.71 113.63 C 11.60 114.14 11.38 115.17 11.26 115.69 L 13.02 115.20 L 11.97 116.52 L 12.93 116.49 C 14.56 118.57 16.43 120.45 18.51 122.08 L 18.46 123.15 L 19.75 121.75 L 19.30 123.68 C 19.83 123.59 20.88 123.41 21.40 123.33 L 21.44 124.72 C 21.90 124.64 22.81 124.49 23.27 124.41 L 23.55 125.78 C 24.01 125.66 24.92 125.43 25.38 125.32 L 25.25 126.28 C 27.50 126.73 29.71 127.36 31.96 127.82 L 30.86 128.44 C 47.58 128.32 64.30 128.41 81.02 128.40 C 84.36 128.50 87.56 127.32 90.90 127.27 L 90.37 125.98 C 90.88 126.20 91.90 126.66 92.41 126.88 L 92.64 125.40 C 93.10 125.48 94.04 125.63 94.51 125.71 L 94.72 124.41 C 95.18 124.49 96.09 124.64 96.54 124.72 L 96.63 123.29 C 97.15 123.40 98.19 123.63 98.71 123.75 L 98.14 122.04 L 99.51 122.99 L 99.51 122.06 C 101.58 120.43 103.45 118.57 105.07 116.50 L 106.03 116.51 L 104.99 115.15 L 106.73 115.71 C 106.62 115.19 106.41 114.16 106.30 113.64 L 107.79 113.47 L 107.36 111.79 C 107.72 111.69 108.44 111.50 108.80 111.41 C 108.67 110.97 108.42 110.10 108.30 109.66 L 109.28 109.70 C 110.00 106.53 111.31 103.44 111.39 100.15 C 111.43 78.76 111.30 57.36 111.46 35.97 L 110.82 36.88 C 110.46 34.66 109.85 32.50 109.32 30.32 L 108.31 30.33 C 108.39 29.99 108.57 29.33 108.66 29.00 C 108.07 28.09 107.49 27.17 106.92 26.25 C 106.35 25.31 105.77 24.36 105.21 23.42 L 105.01 23.36 C 103.36 21.37 101.52 19.52 99.48 17.93 L 99.49 16.84 L 98.23 18.25 L 98.71 16.32 C 98.18 16.41 97.13 16.58 96.60 16.67 L 96.54 15.27 C 96.09 15.35 95.17 15.52 94.71 15.60 L 94.46 14.23 C 94.01 14.34 93.09 14.56 92.63 14.67 L 92.71 13.72 C 88.81 12.91 85.00 11.41 80.96 11.59 C 66.33 11.63 51.69 11.62 37.06 11.60 C 33.69 11.51 30.46 12.67 27.10 12.73 Z" />
<path fill="#f5f9f6" opacity="1.00" d=" M 50.31 28.04 C 54.77 28.02 59.23 28.02 63.69 28.04 C 63.69 37.67 63.67 47.29 63.70 56.92 C 69.04 61.04 70.79 69.18 66.76 74.79 C 62.82 81.13 52.76 81.73 48.09 75.90 C 43.13 70.40 44.51 61.29 50.30 56.93 C 50.32 47.30 50.31 37.67 50.31 28.04 M 52.95 30.78 C 53.10 40.01 53.06 49.25 52.98 58.48 C 49.91 60.66 47.29 64.07 47.67 68.05 C 47.77 73.67 53.58 78.58 59.15 76.96 C 64.54 75.76 67.75 69.33 65.78 64.24 C 64.97 61.75 62.92 60.01 60.96 58.41 C 61.01 49.20 60.86 39.99 61.05 30.78 C 58.35 30.78 55.65 30.78 52.95 30.78 Z" />
<path fill="#f5f9f6" opacity="1.00" d=" M 67.82 30.89 C 70.06 30.65 73.17 30.13 73.50 33.24 C 71.29 33.24 66.50 34.89 67.82 30.89 Z" />
<path fill="#f5f9f6" opacity="1.00" d=" M 67.82 37.87 C 70.05 37.56 73.18 37.09 73.49 40.19 C 71.34 40.16 66.49 41.80 67.82 37.87 Z" />
<path fill="#f5f9f6" opacity="1.00" d=" M 67.79 44.83 C 70.01 44.49 73.29 44.00 73.43 47.19 C 71.27 47.03 66.52 48.71 67.79 44.83 Z" />
<path fill="#f5f9f6" opacity="1.00" d=" M 55.65 46.74 C 56.33 46.74 57.67 46.74 58.35 46.74 C 58.30 51.27 58.37 55.81 58.26 60.34 C 60.39 61.50 62.71 62.91 63.39 65.42 C 64.90 69.58 61.41 74.57 56.96 74.50 C 52.54 74.49 49.13 69.56 50.62 65.41 C 51.29 62.90 53.64 61.53 55.74 60.34 C 55.63 55.81 55.70 51.27 55.65 46.74 Z" />
<path fill="#f5f9f6" opacity="1.00" d=" M 67.77 54.19 C 66.20 50.34 73.78 50.56 73.39 54.16 C 71.52 54.27 69.64 54.37 67.77 54.19 Z" />
</g>
</svg>
