<?xml version="1.0" encoding="UTF-8" ?>
<!DOCTYPE svg PUBLIC "-//W3C//DTD SVG 1.1//EN" "http://www.w3.org/Graphics/SVG/1.1/DTD/svg11.dtd">
<svg width="117px" height="140px" viewBox="0 0 117 140" version="1.1" xmlns="http://www.w3.org/2000/svg">
<g id="#000000ff">
<path fill="#000000" opacity="1.00" d=" M 0.00 0.00 L 117.00 0.00 L 117.00 140.00 L 0.00 140.00 L 0.00 0.00 M 29.52 10.79 C 15.50 13.49 4.29 26.61 4.21 40.94 C 4.16 60.29 4.16 79.65 4.20 99.00 C 4.21 114.93 18.13 129.25 34.04 129.75 C 50.04 129.86 66.04 129.88 82.03 129.74 C 97.93 129.22 111.82 114.88 111.79 98.97 C 111.84 79.62 111.85 60.27 111.79 40.93 C 111.76 25.07 97.94 10.85 82.12 10.26 C 69.06 10.06 56.00 10.24 42.94 10.18 C 38.47 10.22 33.94 9.92 29.52 10.79 Z" />
<path fill="#000000" opacity="1.00" d=" M 29.44 12.56 C 31.92 12.02 34.45 11.78 36.99 11.80 C 50.98 11.84 64.98 11.83 78.97 11.80 C 84.82 11.74 90.74 13.17 95.71 16.31 C 104.57 21.56 110.20 31.69 110.18 41.97 C 110.18 60.65 110.18 79.33 110.18 98.00 C 110.21 108.28 104.60 118.40 95.76 123.67 C 90.76 126.83 84.80 128.27 78.92 128.20 C 64.62 128.16 50.32 128.19 36.03 128.18 C 28.11 128.17 20.33 124.90 14.70 119.36 C 9.15 113.73 5.79 105.95 5.82 98.01 C 5.83 79.01 5.80 60.00 5.83 41.01 C 6.11 27.61 16.33 15.31 29.44 12.56 M 45.21 37.58 C 44.31 40.90 43.03 44.11 41.37 47.13 C 43.38 47.86 45.38 48.60 47.36 49.38 C 48.10 47.73 48.85 46.08 49.82 44.54 C 49.49 47.66 50.82 50.52 51.90 53.36 C 53.69 52.67 55.46 51.96 57.23 51.23 C 56.65 49.10 56.26 46.92 56.16 44.71 C 57.51 45.78 58.84 46.86 60.29 47.80 C 59.62 47.67 58.29 47.41 57.62 47.27 C 57.61 49.18 57.59 51.09 57.58 52.99 C 60.92 53.00 64.26 53.00 67.61 53.01 C 67.46 57.09 67.92 61.21 67.40 65.26 C 66.97 65.55 66.10 66.11 65.66 66.39 C 65.55 62.32 65.60 58.25 65.63 54.18 C 61.15 54.19 56.67 54.18 52.19 54.19 C 52.18 59.12 52.19 64.06 52.18 68.99 C 56.16 69.01 60.13 69.04 64.11 68.94 C 64.62 70.17 65.10 71.43 65.59 72.68 C 67.95 72.51 70.55 72.90 72.65 71.58 C 74.12 70.57 73.83 68.60 73.99 67.07 C 74.03 60.48 74.02 53.89 73.95 47.31 C 73.31 47.35 72.02 47.45 71.37 47.50 C 71.77 45.17 73.65 45.13 75.58 45.33 C 75.59 43.35 75.60 41.36 75.62 39.38 C 73.00 39.43 70.39 39.42 67.77 39.32 C 65.58 38.14 63.08 37.85 60.65 37.48 C 60.01 39.35 59.36 41.21 58.71 43.08 C 58.76 41.84 58.82 40.60 58.87 39.37 C 56.04 39.29 52.95 40.02 50.34 38.57 C 48.72 37.86 46.94 37.74 45.21 37.58 M 44.18 49.61 C 44.19 57.20 44.19 64.79 44.18 72.39 C 46.32 72.39 48.46 72.39 50.59 72.40 C 50.54 64.81 50.74 57.21 50.47 49.62 C 48.37 49.62 46.27 49.63 44.18 49.61 Z" />
<path fill="#000000" opacity="1.00" d=" M 63.54 47.10 C 62.76 44.85 67.09 44.72 66.39 47.02 C 65.47 48.26 64.52 48.29 63.54 47.10 Z" />
<path fill="#000000" opacity="1.00" d=" M 57.72 64.07 C 58.96 63.20 59.71 63.42 59.98 64.72 C 58.75 65.59 58.00 65.37 57.72 64.07 Z" />
</g>
<g id="#10eb51ff">
<path fill="#10eb51" opacity="1.00" d=" M 29.52 10.79 C 33.94 9.92 38.47 10.22 42.94 10.18 C 56.00 10.24 69.06 10.06 82.12 10.26 C 97.94 10.85 111.76 25.07 111.79 40.93 C 111.85 60.27 111.84 79.62 111.79 98.97 C 111.82 114.88 97.93 129.22 82.03 129.74 C 66.04 129.88 50.04 129.86 34.04 129.75 C 18.13 129.25 4.21 114.93 4.20 99.00 C 4.16 79.65 4.16 60.29 4.21 40.94 C 4.29 26.61 15.50 13.49 29.52 10.79 M 29.44 12.56 C 16.33 15.31 6.11 27.61 5.83 41.01 C 5.80 60.00 5.83 79.01 5.82 98.01 C 5.79 105.95 9.15 113.73 14.70 119.36 C 20.33 124.90 28.11 128.17 36.03 128.18 C 50.32 128.19 64.62 128.16 78.92 128.20 C 84.80 128.27 90.76 126.83 95.76 123.67 C 104.60 118.40 110.21 108.28 110.18 98.00 C 110.18 79.33 110.18 60.65 110.18 41.97 C 110.20 31.69 104.57 21.56 95.71 16.31 C 90.74 13.17 84.82 11.74 78.97 11.80 C 64.98 11.83 50.98 11.84 36.99 11.80 C 34.45 11.78 31.92 12.02 29.44 12.56 Z" />
<path fill="#10eb51" opacity="1.00" d=" M 45.21 37.58 C 46.94 37.74 48.72 37.86 50.34 38.57 C 52.95 40.02 56.04 39.29 58.87 39.37 C 58.82 40.60 58.76 41.84 58.71 43.08 C 59.36 41.21 60.01 39.35 60.65 37.48 C 63.08 37.85 65.58 38.14 67.77 39.32 C 70.39 39.42 73.00 39.43 75.62 39.38 C 75.60 41.36 75.59 43.35 75.58 45.33 C 73.65 45.13 71.77 45.17 71.37 47.50 C 72.02 47.45 73.31 47.35 73.95 47.31 C 74.02 53.89 74.03 60.48 73.99 67.07 C 73.83 68.60 74.12 70.57 72.65 71.58 C 70.55 72.90 67.95 72.51 65.59 72.68 C 65.10 71.43 64.62 70.17 64.11 68.94 C 60.13 69.04 56.16 69.01 52.18 68.99 C 52.19 64.06 52.18 59.12 52.19 54.19 C 56.67 54.18 61.15 54.19 65.63 54.18 C 65.60 58.25 65.55 62.32 65.66 66.39 C 66.10 66.11 66.97 65.55 67.40 65.26 C 67.92 61.21 67.46 57.09 67.61 53.01 C 64.26 53.00 60.92 53.00 57.58 52.99 C 57.59 51.09 57.61 49.18 57.62 47.27 C 58.29 47.41 59.62 47.67 60.29 47.80 C 58.84 46.86 57.51 45.78 56.16 44.71 C 56.26 46.92 56.65 49.10 57.23 51.23 C 55.46 51.96 53.69 52.67 51.90 53.36 C 50.82 50.52 49.49 47.66 49.82 44.54 C 48.85 46.08 48.10 47.73 47.36 49.38 C 45.38 48.60 43.38 47.86 41.37 47.13 C 43.03 44.11 44.31 40.90 45.21 37.58 M 63.54 47.10 C 64.52 48.29 65.47 48.26 66.39 47.02 C 67.09 44.72 62.76 44.85 63.54 47.10 M 57.72 64.07 C 58.00 65.37 58.75 65.59 59.98 64.72 C 59.71 63.42 58.96 63.20 57.72 64.07 Z" />
<path fill="#10eb51" opacity="1.00" d=" M 44.18 49.61 C 46.27 49.63 48.37 49.62 50.47 49.62 C 50.74 57.21 50.54 64.81 50.59 72.40 C 48.46 72.39 46.32 72.39 44.18 72.39 C 44.19 64.79 44.19 57.20 44.18 49.61 Z" />
</g>
</svg>
