<?xml version="1.0" encoding="UTF-8" ?>
<!DOCTYPE svg PUBLIC "-//W3C//DTD SVG 1.1//EN" "http://www.w3.org/Graphics/SVG/1.1/DTD/svg11.dtd">
<svg width="117px" height="140px" viewBox="0 0 117 140" version="1.1" xmlns="http://www.w3.org/2000/svg">
<g id="#384450ff">
<path fill="#384450" opacity="1.00" d=" M 0.00 0.00 L 117.00 0.00 L 117.00 140.00 L 0.00 140.00 L 0.00 0.00 M 41.19 53.18 C 37.77 54.90 39.37 60.56 43.11 60.42 C 44.77 60.79 46.11 59.31 46.86 58.03 C 48.65 54.86 44.06 50.80 41.19 53.18 M 56.50 53.49 C 54.31 55.10 54.72 58.57 56.98 59.90 C 59.56 61.80 63.39 59.05 62.95 56.03 C 62.65 53.11 58.65 51.20 56.50 53.49 M 72.46 53.35 C 70.57 54.60 70.02 57.61 71.91 59.12 C 73.87 61.87 78.55 60.02 78.69 56.86 C 79.19 53.75 74.84 51.05 72.46 53.35 Z" />
</g>
<g id="#f8fcf8ff">
<path fill="#f8fcf8" opacity="1.00" d=" M 41.19 53.18 C 44.06 50.80 48.65 54.86 46.86 58.03 C 46.11 59.31 44.77 60.79 43.11 60.42 C 39.37 60.56 37.77 54.90 41.19 53.18 Z" />
<path fill="#f8fcf8" opacity="1.00" d=" M 56.50 53.49 C 58.65 51.20 62.65 53.11 62.95 56.03 C 63.39 59.05 59.56 61.80 56.98 59.90 C 54.72 58.57 54.31 55.10 56.50 53.49 Z" />
<path fill="#f8fcf8" opacity="1.00" d=" M 72.46 53.35 C 74.84 51.05 79.19 53.75 78.69 56.86 C 78.55 60.02 73.87 61.87 71.91 59.12 C 70.02 57.61 70.57 54.60 72.46 53.35 Z" />
</g>
</svg>
