<?xml version="1.0" encoding="UTF-8" ?>
<!DOCTYPE svg PUBLIC "-//W3C//DTD SVG 1.1//EN" "http://www.w3.org/Graphics/SVG/1.1/DTD/svg11.dtd">
<svg width="117px" height="140px" viewBox="0 0 117 140" version="1.1" xmlns="http://www.w3.org/2000/svg">
<g id="#000000ff">
<path fill="#000000" opacity="1.00" d=" M 0.00 0.00 L 117.00 0.00 L 117.00 140.00 L 0.00 140.00 L 0.00 0.00 M 31.33 10.56 L 31.77 11.19 C 29.25 11.28 26.83 11.94 24.45 12.68 L 24.56 13.71 C 24.06 13.57 23.08 13.29 22.59 13.15 L 22.64 14.59 C 22.16 14.52 21.20 14.37 20.72 14.30 L 20.53 15.11 C 19.12 15.95 17.74 16.86 16.35 17.74 L 16.46 17.92 C 15.25 19.06 14.07 20.24 12.93 21.45 L 12.85 21.41 C 11.94 22.68 10.99 23.93 10.03 25.17 C 9.81 25.80 9.37 27.05 9.14 27.68 L 8.17 27.55 C 8.30 28.05 8.55 29.07 8.68 29.58 L 7.72 29.47 C 6.61 33.24 5.26 37.03 5.36 41.03 C 5.32 59.69 5.38 78.35 5.34 97.00 C 5.32 99.70 5.46 102.41 6.11 105.04 C 6.62 106.87 7.18 108.68 7.69 110.51 L 8.70 110.45 C 8.56 110.94 8.29 111.93 8.16 112.42 L 9.59 112.36 C 9.52 112.84 9.39 113.81 9.32 114.29 L 10.12 114.48 C 10.96 115.89 11.86 117.26 12.74 118.65 L 12.93 118.54 C 14.07 119.75 15.24 120.93 16.45 122.08 L 16.40 122.16 C 17.63 123.06 18.87 123.96 20.09 124.88 C 21.59 125.64 23.12 126.31 24.66 126.97 L 24.47 127.62 C 25.27 127.60 26.87 127.54 27.66 127.52 L 27.35 128.35 C 30.84 129.11 34.37 129.81 37.96 129.66 C 54.20 129.53 70.44 129.88 86.68 129.45 L 86.21 128.79 C 88.74 128.75 91.16 128.08 93.55 127.32 L 93.38 126.36 C 93.92 126.47 95.02 126.68 95.57 126.79 L 95.27 125.87 C 95.91 125.64 97.20 125.18 97.84 124.96 C 99.09 124.01 100.32 123.04 101.60 122.15 L 101.56 122.07 C 102.76 120.93 103.94 119.74 105.08 118.53 L 105.26 118.66 C 106.14 117.27 107.05 115.89 107.89 114.48 L 108.68 114.28 C 108.61 113.80 108.47 112.83 108.40 112.34 L 109.79 112.48 C 109.68 111.97 109.46 110.93 109.35 110.41 L 110.28 110.53 C 110.81 108.67 111.40 106.82 111.95 104.97 C 112.83 101.05 112.63 97.01 112.65 93.03 C 112.64 76.35 112.65 59.67 112.65 42.99 C 112.66 40.30 112.54 37.59 111.90 34.96 C 111.38 33.12 110.81 31.30 110.29 29.46 L 109.35 29.61 C 109.46 29.08 109.69 28.02 109.80 27.49 L 108.85 27.70 C 108.63 27.07 108.18 25.80 107.96 25.16 C 107.00 23.92 106.06 22.67 105.14 21.40 L 105.07 21.45 C 103.93 20.24 102.75 19.07 101.54 17.93 L 101.60 17.85 C 100.32 16.94 99.07 15.99 97.83 15.04 C 97.21 14.81 95.95 14.37 95.33 14.15 L 95.42 13.15 C 94.92 13.29 93.94 13.56 93.45 13.70 L 93.54 12.67 C 91.15 11.94 88.74 11.28 86.24 11.20 L 86.66 10.56 C 68.23 10.22 49.77 10.22 31.33 10.56 Z" />
<path fill="#000000" opacity="1.00" d=" M 32.22 11.59 C 50.08 11.69 67.93 11.70 85.78 11.58 L 85.33 12.16 C 87.79 12.50 90.21 13.09 92.61 13.71 L 92.63 14.10 C 93.53 14.57 94.43 15.05 95.33 15.54 L 96.52 15.18 L 96.37 16.17 C 97.47 16.70 98.57 17.24 99.67 17.77 L 99.56 18.00 C 101.55 19.63 103.37 21.46 105.00 23.44 L 105.20 23.34 C 105.72 24.34 106.23 25.35 106.75 26.35 C 107.37 27.20 107.99 28.05 108.61 28.90 C 108.55 29.28 108.43 30.02 108.36 30.40 L 109.29 30.36 C 109.79 32.49 110.38 34.60 110.78 36.76 L 111.42 36.16 C 111.31 58.36 111.31 80.57 111.41 102.78 L 110.64 102.33 C 110.55 104.12 110.44 105.91 110.36 107.70 L 109.16 107.44 C 109.31 107.95 109.61 108.97 109.75 109.47 L 108.39 109.59 C 108.44 109.96 108.56 110.71 108.61 111.08 C 107.98 111.95 107.35 112.82 106.73 113.70 C 106.21 114.69 105.70 115.68 105.19 116.68 L 105.01 116.56 C 103.37 118.55 101.55 120.37 99.56 122.00 L 99.67 122.21 C 98.67 122.71 97.68 123.23 96.68 123.74 C 95.82 124.36 94.96 124.98 94.11 125.60 C 93.73 125.55 92.96 125.44 92.58 125.39 L 92.52 126.73 C 92.01 126.59 91.01 126.29 90.50 126.14 L 90.63 127.38 C 88.86 127.44 87.09 127.54 85.32 127.62 L 85.78 128.42 C 67.57 128.31 49.35 128.31 31.13 128.41 L 31.81 127.78 C 29.63 127.38 27.50 126.78 25.34 126.27 L 25.45 125.38 C 25.06 125.44 24.30 125.55 23.92 125.61 C 23.05 124.98 22.18 124.36 21.32 123.74 C 20.32 123.22 19.33 122.71 18.34 122.20 L 18.43 122.00 C 16.45 120.37 14.63 118.55 13.00 116.56 L 12.80 116.66 C 12.28 115.66 11.77 114.67 11.25 113.67 C 10.63 112.81 10.02 111.95 9.40 111.09 C 9.45 110.72 9.56 109.96 9.61 109.58 L 8.70 109.65 C 8.11 107.27 7.51 104.90 7.14 102.48 L 6.59 102.80 C 6.68 80.94 6.70 59.08 6.58 37.22 L 7.13 37.55 C 7.50 35.12 8.11 32.74 8.70 30.35 L 9.60 30.39 C 9.57 30.04 9.51 29.35 9.47 29.00 C 9.82 28.36 10.51 27.08 10.86 26.44 L 11.18 26.61 C 11.72 25.50 12.26 24.40 12.79 23.29 L 13.00 23.50 C 14.61 21.48 16.43 19.63 18.43 18.00 L 18.35 17.82 C 19.34 17.27 20.33 16.72 21.31 16.17 C 22.18 15.68 23.05 15.19 23.92 14.70 C 24.44 14.37 25.48 13.71 26.00 13.37 C 26.38 13.51 27.14 13.79 27.52 13.93 L 27.30 12.63 C 29.09 12.56 30.88 12.47 32.67 12.39 L 32.22 11.59 M 40.00 28.17 C 40.05 34.00 40.04 39.82 40.03 45.65 C 37.70 45.65 35.37 45.66 33.04 45.69 C 33.29 50.37 32.80 55.08 33.33 59.74 C 35.53 63.39 40.57 60.74 43.80 62.09 C 46.83 64.63 49.43 67.63 52.35 70.30 C 48.67 70.28 45.00 70.26 41.33 70.30 C 41.34 72.87 41.35 75.43 41.31 78.00 C 49.70 77.72 58.17 78.59 66.50 77.52 C 65.53 76.58 64.59 75.34 63.04 75.67 C 56.71 75.59 50.38 75.73 44.05 75.62 C 44.05 74.98 44.06 73.72 44.07 73.09 C 47.65 73.02 51.23 73.04 54.81 73.04 C 54.84 72.31 54.90 70.84 54.93 70.11 C 57.77 67.30 60.58 64.46 63.46 61.69 C 66.77 61.26 71.52 63.13 73.67 59.75 C 74.21 55.09 73.71 50.37 73.96 45.69 C 71.63 45.66 69.30 45.65 66.97 45.65 C 66.97 39.82 66.93 34.00 67.01 28.18 C 58.01 28.07 49.01 28.07 40.00 28.17 M 77.81 28.00 C 77.85 39.57 77.78 51.15 77.84 62.72 C 77.20 62.77 75.91 62.87 75.26 62.92 C 74.93 63.47 74.28 64.57 73.95 65.12 C 76.30 69.09 78.63 73.08 81.00 77.04 C 83.46 72.92 85.91 68.79 88.30 64.63 C 86.97 63.75 85.57 62.96 84.13 62.28 C 84.25 50.85 84.13 39.43 84.19 28.00 C 82.06 28.00 79.94 28.00 77.81 28.00 Z" />
<path fill="#000000" opacity="1.00" d=" M 42.81 31.04 C 49.94 31.04 57.07 31.04 64.19 31.04 C 64.19 36.79 64.28 42.55 64.12 48.30 C 66.40 48.34 68.68 48.35 70.96 48.38 C 70.92 51.90 70.92 55.42 70.94 58.94 C 59.31 58.98 47.69 58.97 36.06 58.94 C 36.08 55.41 36.08 51.89 36.04 48.37 C 42.77 48.29 49.50 48.37 56.23 48.34 C 56.23 47.67 56.23 46.33 56.23 45.66 C 51.75 45.66 47.27 45.65 42.79 45.68 C 42.79 43.89 42.79 42.11 42.81 40.33 C 47.29 40.35 51.76 40.34 56.23 40.34 C 56.23 39.67 56.23 38.33 56.23 37.66 C 51.75 37.66 47.27 37.65 42.79 37.67 C 42.79 35.46 42.80 33.25 42.81 31.04 Z" />
<path fill="#000000" opacity="1.00" d=" M 79.40 31.06 C 80.46 31.05 81.53 31.05 82.60 31.04 C 82.54 42.53 82.54 54.02 82.57 65.51 C 83.30 65.49 84.77 65.47 85.51 65.45 C 84.03 68.02 82.51 70.57 81.00 73.12 C 79.47 70.55 77.95 67.99 76.47 65.39 C 77.21 65.43 78.69 65.50 79.43 65.53 C 79.46 54.04 79.46 42.55 79.40 31.06 Z" />
<path fill="#000000" opacity="1.00" d=" M 47.28 61.72 C 51.43 61.72 55.57 61.72 59.71 61.72 C 57.62 63.70 55.55 65.72 53.52 67.78 C 51.46 65.73 49.39 63.71 47.28 61.72 Z" />
</g>
<g id="#e4ebeeff">
<path fill="#e4ebee" opacity="1.00" d=" M 31.33 10.56 C 49.77 10.22 68.23 10.22 86.66 10.56 L 86.24 11.20 C 88.74 11.28 91.15 11.94 93.54 12.67 L 93.45 13.70 C 93.94 13.56 94.92 13.29 95.42 13.15 L 95.33 14.15 C 95.95 14.37 97.21 14.81 97.83 15.04 C 99.07 15.99 100.32 16.94 101.60 17.85 L 101.54 17.93 C 102.75 19.07 103.93 20.24 105.07 21.45 L 105.14 21.40 C 106.06 22.67 107.00 23.92 107.96 25.16 C 108.18 25.80 108.63 27.07 108.85 27.70 L 109.80 27.49 C 109.69 28.02 109.46 29.08 109.35 29.61 L 110.29 29.46 C 110.81 31.30 111.38 33.12 111.90 34.96 C 112.54 37.59 112.66 40.30 112.65 42.99 C 112.65 59.67 112.64 76.35 112.65 93.03 C 112.63 97.01 112.83 101.05 111.95 104.97 C 111.40 106.82 110.81 108.67 110.28 110.53 L 109.35 110.41 C 109.46 110.93 109.68 111.97 109.79 112.48 L 108.40 112.34 C 108.47 112.83 108.61 113.80 108.68 114.28 L 107.89 114.48 C 107.05 115.89 106.14 117.27 105.26 118.66 L 105.08 118.53 C 103.94 119.74 102.76 120.93 101.56 122.07 L 101.60 122.15 C 100.32 123.04 99.09 124.01 97.84 124.96 C 97.20 125.18 95.91 125.64 95.27 125.87 L 95.57 126.79 C 95.02 126.68 93.92 126.47 93.38 126.36 L 93.55 127.32 C 91.16 128.08 88.74 128.75 86.21 128.79 L 86.68 129.45 C 70.44 129.88 54.20 129.53 37.96 129.66 C 34.37 129.81 30.84 129.11 27.35 128.35 L 27.66 127.52 C 26.87 127.54 25.27 127.60 24.47 127.62 L 24.66 126.97 C 23.12 126.31 21.59 125.64 20.09 124.88 C 18.87 123.96 17.63 123.06 16.40 122.16 L 16.45 122.08 C 15.24 120.93 14.07 119.75 12.93 118.54 L 12.74 118.65 C 11.86 117.26 10.96 115.89 10.12 114.48 L 9.32 114.29 C 9.39 113.81 9.52 112.84 9.59 112.36 L 8.16 112.42 C 8.29 111.93 8.56 110.94 8.70 110.45 L 7.69 110.51 C 7.18 108.68 6.62 106.87 6.11 105.04 C 5.46 102.41 5.32 99.70 5.34 97.00 C 5.38 78.35 5.32 59.69 5.36 41.03 C 5.26 37.03 6.61 33.24 7.72 29.47 L 8.68 29.58 C 8.55 29.07 8.30 28.05 8.17 27.55 L 9.14 27.68 C 9.37 27.05 9.81 25.80 10.03 25.17 C 10.99 23.93 11.94 22.68 12.85 21.41 L 12.93 21.45 C 14.07 20.24 15.25 19.06 16.46 17.92 L 16.35 17.74 C 17.74 16.86 19.12 15.95 20.53 15.11 L 20.72 14.30 C 21.20 14.37 22.16 14.52 22.64 14.59 L 22.59 13.15 C 23.08 13.29 24.06 13.57 24.56 13.71 L 24.45 12.68 C 26.83 11.94 29.25 11.28 31.77 11.19 L 31.33 10.56 M 32.22 11.59 L 32.67 12.39 C 30.88 12.47 29.09 12.56 27.30 12.63 L 27.52 13.93 C 27.14 13.79 26.38 13.51 26.00 13.37 C 25.48 13.71 24.44 14.37 23.92 14.70 C 23.05 15.19 22.18 15.68 21.31 16.17 C 20.33 16.72 19.34 17.27 18.35 17.82 L 18.43 18.00 C 16.43 19.63 14.61 21.48 13.00 23.50 L 12.79 23.29 C 12.26 24.40 11.72 25.50 11.18 26.61 L 10.86 26.44 C 10.51 27.08 9.82 28.36 9.47 29.00 C 9.51 29.35 9.57 30.04 9.60 30.39 L 8.70 30.35 C 8.11 32.74 7.50 35.12 7.13 37.55 L 6.58 37.22 C 6.70 59.08 6.68 80.94 6.59 102.80 L 7.14 102.48 C 7.51 104.90 8.11 107.27 8.70 109.65 L 9.61 109.58 C 9.56 109.96 9.45 110.72 9.40 111.09 C 10.02 111.95 10.63 112.81 11.25 113.67 C 11.77 114.67 12.28 115.66 12.80 116.66 L 13.00 116.56 C 14.63 118.55 16.45 120.37 18.43 122.00 L 18.34 122.20 C 19.33 122.71 20.32 123.22 21.32 123.74 C 22.18 124.36 23.05 124.98 23.92 125.61 C 24.30 125.55 25.06 125.44 25.45 125.38 L 25.34 126.27 C 27.50 126.78 29.63 127.38 31.81 127.78 L 31.13 128.41 C 49.35 128.31 67.57 128.31 85.78 128.42 L 85.32 127.62 C 87.09 127.54 88.86 127.44 90.63 127.38 L 90.50 126.14 C 91.01 126.29 92.01 126.59 92.52 126.73 L 92.58 125.39 C 92.96 125.44 93.73 125.55 94.11 125.60 C 94.96 124.98 95.82 124.36 96.68 123.74 C 97.68 123.23 98.67 122.71 99.67 122.21 L 99.56 122.00 C 101.55 120.37 103.37 118.55 105.01 116.56 L 105.19 116.68 C 105.70 115.68 106.21 114.69 106.73 113.70 C 107.35 112.82 107.98 111.95 108.61 111.08 C 108.56 110.71 108.44 109.96 108.39 109.59 L 109.75 109.47 C 109.61 108.97 109.31 107.95 109.16 107.44 L 110.36 107.70 C 110.44 105.91 110.55 104.12 110.64 102.33 L 111.41 102.78 C 111.31 80.57 111.31 58.36 111.42 36.16 L 110.78 36.76 C 110.38 34.60 109.79 32.49 109.29 30.36 L 108.36 30.40 C 108.43 30.02 108.55 29.28 108.61 28.90 C 107.99 28.05 107.37 27.20 106.75 26.35 C 106.23 25.35 105.72 24.34 105.20 23.34 L 105.00 23.44 C 103.37 21.46 101.55 19.63 99.56 18.00 L 99.67 17.77 C 98.57 17.24 97.47 16.70 96.37 16.17 L 96.52 15.18 L 95.33 15.54 C 94.43 15.05 93.53 14.57 92.63 14.10 L 92.61 13.71 C 90.21 13.09 87.79 12.50 85.33 12.16 L 85.78 11.58 C 67.93 11.70 50.08 11.69 32.22 11.59 Z" />
<path fill="#e4ebee" opacity="1.00" d=" M 40.00 28.17 C 49.01 28.07 58.01 28.07 67.01 28.18 C 66.93 34.00 66.97 39.82 66.97 45.65 C 69.30 45.65 71.63 45.66 73.96 45.69 C 73.71 50.37 74.21 55.09 73.67 59.75 C 71.52 63.13 66.77 61.26 63.46 61.69 C 60.58 64.46 57.77 67.30 54.93 70.11 C 54.90 70.84 54.84 72.31 54.81 73.04 C 51.23 73.04 47.65 73.02 44.07 73.09 C 44.06 73.72 44.05 74.98 44.05 75.62 C 50.38 75.73 56.71 75.59 63.04 75.67 C 64.59 75.34 65.53 76.58 66.50 77.52 C 58.17 78.59 49.70 77.72 41.31 78.00 C 41.35 75.43 41.34 72.87 41.33 70.30 C 45.00 70.26 48.67 70.28 52.35 70.30 C 49.43 67.63 46.83 64.63 43.80 62.09 C 40.57 60.74 35.53 63.39 33.33 59.74 C 32.80 55.08 33.29 50.37 33.04 45.69 C 35.37 45.66 37.70 45.65 40.03 45.65 C 40.04 39.82 40.05 34.00 40.00 28.17 M 42.81 31.04 C 42.80 33.25 42.79 35.46 42.79 37.67 C 47.27 37.65 51.75 37.66 56.23 37.66 C 56.23 38.33 56.23 39.67 56.23 40.34 C 51.76 40.34 47.29 40.35 42.81 40.33 C 42.79 42.11 42.79 43.89 42.79 45.68 C 47.27 45.65 51.75 45.66 56.23 45.66 C 56.23 46.33 56.23 47.67 56.23 48.34 C 49.50 48.37 42.77 48.29 36.04 48.37 C 36.08 51.89 36.08 55.41 36.06 58.94 C 47.69 58.97 59.31 58.98 70.94 58.94 C 70.92 55.42 70.92 51.90 70.96 48.38 C 68.68 48.35 66.40 48.34 64.12 48.30 C 64.28 42.55 64.19 36.79 64.19 31.04 C 57.07 31.04 49.94 31.04 42.81 31.04 M 47.28 61.72 C 49.39 63.71 51.46 65.73 53.52 67.78 C 55.55 65.72 57.62 63.70 59.71 61.72 C 55.57 61.72 51.43 61.72 47.28 61.72 Z" />
<path fill="#e4ebee" opacity="1.00" d=" M 77.81 28.00 C 79.94 28.00 82.06 28.00 84.19 28.00 C 84.13 39.43 84.25 50.85 84.13 62.28 C 85.57 62.96 86.97 63.75 88.30 64.63 C 85.91 68.79 83.46 72.92 81.00 77.04 C 78.63 73.08 76.30 69.09 73.95 65.12 C 74.28 64.57 74.93 63.47 75.26 62.92 C 75.91 62.87 77.20 62.77 77.84 62.72 C 77.78 51.15 77.85 39.57 77.81 28.00 M 79.40 31.06 C 79.46 42.55 79.46 54.04 79.43 65.53 C 78.69 65.50 77.21 65.43 76.47 65.39 C 77.95 67.99 79.47 70.55 81.00 73.12 C 82.51 70.57 84.03 68.02 85.51 65.45 C 84.77 65.47 83.30 65.49 82.57 65.51 C 82.54 54.02 82.54 42.53 82.60 31.04 C 81.53 31.05 80.46 31.05 79.40 31.06 Z" />
</g>
</svg>
