<?xml version="1.0" encoding="UTF-8" ?>
<!DOCTYPE svg PUBLIC "-//W3C//DTD SVG 1.1//EN" "http://www.w3.org/Graphics/SVG/1.1/DTD/svg11.dtd">
<svg width="117px" height="140px" viewBox="0 0 117 140" version="1.1" xmlns="http://www.w3.org/2000/svg">
<g id="#000000ff">
<path fill="#000000" opacity="1.00" d=" M 0.00 0.00 L 117.00 0.00 L 117.00 140.00 L 0.00 140.00 L 0.00 0.00 M 29.51 10.79 C 15.50 13.50 4.30 26.60 4.20 40.93 C 4.16 60.30 4.16 79.68 4.20 99.05 C 4.24 114.92 18.08 129.18 33.93 129.75 C 49.95 129.87 65.98 129.87 82.01 129.75 C 97.90 129.23 111.80 114.91 111.79 99.00 C 111.84 79.65 111.85 60.30 111.79 40.95 C 111.77 25.04 97.87 10.78 81.99 10.25 C 68.67 10.07 55.35 10.24 42.02 10.17 C 37.85 10.20 33.63 9.97 29.51 10.79 Z" />
<path fill="#000000" opacity="1.00" d=" M 29.39 12.58 C 31.87 12.03 34.42 11.76 36.97 11.80 C 51.32 11.85 65.68 11.81 80.03 11.82 C 90.32 11.84 100.48 17.43 105.72 26.33 C 108.65 30.97 110.11 36.45 110.18 41.92 C 110.17 60.63 110.18 79.34 110.18 98.05 C 110.13 104.03 108.34 109.99 104.92 114.92 C 99.51 123.13 89.78 128.16 79.98 128.18 C 65.31 128.18 50.65 128.18 35.98 128.18 C 27.83 128.16 19.81 124.67 14.16 118.81 C 8.95 113.21 5.78 105.70 5.81 98.02 C 5.85 79.00 5.80 59.99 5.83 40.98 C 6.14 27.62 16.31 15.34 29.39 12.58 M 37.61 42.00 C 37.60 50.67 37.60 59.33 37.61 68.00 C 44.87 68.00 52.13 68.00 59.39 68.00 C 59.39 66.00 59.39 64.00 59.39 62.00 C 55.06 62.00 50.72 62.01 46.39 61.97 C 46.37 60.67 46.36 59.37 46.35 58.06 C 49.90 57.99 53.45 57.98 57.00 58.00 C 57.00 55.87 57.00 53.74 57.00 51.61 C 53.46 51.60 49.92 51.60 46.38 51.62 C 46.38 50.54 46.38 49.46 46.38 48.39 C 50.59 48.40 54.80 48.40 59.00 48.39 C 59.00 46.26 59.00 44.13 59.00 42.00 C 51.87 42.00 44.74 42.00 37.61 42.00 M 62.35 54.86 C 63.56 60.38 69.83 60.44 74.09 62.14 C 75.03 64.90 71.52 64.40 69.91 64.12 C 69.76 63.58 69.45 62.51 69.30 61.98 C 66.82 61.99 64.34 62.01 61.86 62.09 C 62.35 64.03 63.18 66.03 65.07 66.99 C 69.18 68.96 74.10 68.77 78.31 67.20 C 81.36 66.06 83.10 61.77 80.86 59.13 C 78.21 56.23 73.91 56.33 70.53 54.78 C 70.36 54.33 70.00 53.44 69.82 52.99 C 70.64 52.94 72.27 52.85 73.09 52.80 C 73.43 53.26 74.10 54.17 74.44 54.63 C 76.70 54.61 78.97 54.60 81.23 54.57 C 80.85 52.18 79.48 49.89 76.97 49.33 C 71.77 47.43 63.52 48.29 62.35 54.86 Z" />
</g>
<g id="#11eb51ff">
<path fill="#11eb51" opacity="1.00" d=" M 29.51 10.79 C 33.63 9.97 37.85 10.20 42.02 10.17 C 55.35 10.24 68.67 10.07 81.99 10.25 C 97.87 10.78 111.77 25.04 111.79 40.95 C 111.85 60.30 111.84 79.65 111.79 99.00 C 111.80 114.91 97.90 129.23 82.01 129.75 C 65.98 129.87 49.95 129.87 33.93 129.75 C 18.08 129.18 4.24 114.92 4.20 99.05 C 4.16 79.68 4.16 60.30 4.20 40.93 C 4.30 26.60 15.50 13.50 29.51 10.79 M 29.39 12.58 C 16.31 15.34 6.14 27.62 5.83 40.98 C 5.80 59.99 5.85 79.00 5.81 98.02 C 5.78 105.70 8.95 113.21 14.16 118.81 C 19.81 124.67 27.83 128.16 35.98 128.18 C 50.65 128.18 65.31 128.18 79.98 128.18 C 89.78 128.16 99.51 123.13 104.92 114.92 C 108.34 109.99 110.13 104.03 110.18 98.05 C 110.18 79.34 110.17 60.63 110.18 41.92 C 110.11 36.45 108.65 30.97 105.72 26.33 C 100.48 17.43 90.32 11.84 80.03 11.82 C 65.68 11.81 51.32 11.85 36.97 11.80 C 34.42 11.76 31.87 12.03 29.39 12.58 Z" />
<path fill="#11eb51" opacity="1.00" d=" M 37.61 42.00 C 44.74 42.00 51.87 42.00 59.00 42.00 C 59.00 44.13 59.00 46.26 59.00 48.39 C 54.80 48.40 50.59 48.40 46.38 48.39 C 46.38 49.46 46.38 50.54 46.38 51.62 C 49.92 51.60 53.46 51.60 57.00 51.61 C 57.00 53.74 57.00 55.87 57.00 58.00 C 53.45 57.98 49.90 57.99 46.35 58.06 C 46.36 59.37 46.37 60.67 46.39 61.97 C 50.72 62.01 55.06 62.00 59.39 62.00 C 59.39 64.00 59.39 66.00 59.39 68.00 C 52.13 68.00 44.87 68.00 37.61 68.00 C 37.60 59.33 37.60 50.67 37.61 42.00 Z" />
<path fill="#11eb51" opacity="1.00" d=" M 62.35 54.86 C 63.52 48.29 71.77 47.43 76.97 49.33 C 79.48 49.89 80.85 52.18 81.23 54.57 C 78.97 54.60 76.70 54.61 74.44 54.63 C 74.10 54.17 73.43 53.26 73.09 52.80 C 72.27 52.85 70.64 52.94 69.82 52.99 C 70.00 53.44 70.36 54.33 70.53 54.78 C 73.91 56.33 78.21 56.23 80.86 59.13 C 83.10 61.77 81.36 66.06 78.31 67.20 C 74.10 68.77 69.18 68.96 65.07 66.99 C 63.18 66.03 62.35 64.03 61.86 62.09 C 64.34 62.01 66.82 61.99 69.30 61.98 C 69.45 62.51 69.76 63.58 69.91 64.12 C 71.52 64.40 75.03 64.90 74.09 62.14 C 69.83 60.44 63.56 60.38 62.35 54.86 Z" />
</g>
</svg>
