<?xml version="1.0" encoding="UTF-8" ?>
<!DOCTYPE svg PUBLIC "-//W3C//DTD SVG 1.1//EN" "http://www.w3.org/Graphics/SVG/1.1/DTD/svg11.dtd">
<svg width="117px" height="140px" viewBox="0 0 117 140" version="1.1" xmlns="http://www.w3.org/2000/svg">
<g id="#000000ff">
<path fill="#000000" opacity="1.00" d=" M 0.00 0.00 L 117.00 0.00 L 117.00 140.00 L 0.00 140.00 L 0.00 0.00 M 31.46 10.59 L 31.43 11.41 C 30.02 11.43 28.62 11.45 27.22 11.48 L 27.92 12.48 C 27.05 12.48 25.31 12.47 24.45 12.46 L 24.56 13.83 C 24.08 13.65 23.13 13.30 22.65 13.12 L 22.67 14.24 C 22.04 14.45 20.79 14.88 20.17 15.10 C 18.92 16.04 17.70 17.01 16.40 17.89 L 16.82 18.71 L 15.32 18.20 L 15.79 19.86 L 14.42 18.98 L 14.67 20.66 L 13.06 20.42 L 13.91 21.76 L 12.80 21.37 C 11.92 22.77 10.99 24.14 10.17 25.57 L 9.33 25.67 C 9.40 26.16 9.55 27.15 9.62 27.64 L 8.11 27.65 C 8.29 28.13 8.66 29.08 8.85 29.55 L 7.74 29.43 C 6.45 33.82 5.07 38.29 5.38 42.93 C 5.59 63.47 5.00 84.03 5.70 104.55 L 6.48 104.17 C 6.47 105.09 6.46 106.91 6.46 107.83 L 7.49 107.06 C 7.47 107.93 7.44 109.66 7.43 110.53 L 8.81 110.42 C 8.64 110.91 8.31 111.88 8.14 112.36 L 9.66 112.37 C 9.57 112.85 9.40 113.82 9.31 114.30 L 10.15 114.43 C 10.99 115.86 11.93 117.24 12.82 118.64 L 13.72 118.20 L 13.22 119.68 L 14.87 119.25 L 13.98 120.62 L 15.65 120.29 L 15.38 121.88 L 16.72 121.14 L 16.42 122.13 C 17.70 123.01 18.93 123.97 20.17 124.90 C 20.80 125.12 22.06 125.55 22.69 125.77 L 22.63 126.90 C 23.11 126.71 24.07 126.34 24.55 126.16 L 24.44 127.26 C 28.22 128.29 31.98 129.67 35.94 129.60 C 50.31 129.64 64.67 129.58 79.04 129.62 C 81.61 129.59 84.25 129.75 86.71 128.86 C 89.05 128.64 91.27 127.94 93.51 127.30 L 93.44 126.22 C 93.92 126.38 94.89 126.69 95.38 126.84 L 95.38 125.34 C 95.86 125.43 96.82 125.61 97.30 125.69 L 97.44 124.85 C 98.87 124.00 100.24 123.07 101.65 122.18 L 101.25 121.08 L 102.63 121.94 L 102.28 120.34 L 103.87 120.68 L 103.22 119.33 L 104.78 119.61 L 104.30 118.15 L 105.18 118.64 C 106.06 117.25 106.99 115.89 107.82 114.48 L 108.66 114.28 C 108.59 113.80 108.44 112.83 108.36 112.34 L 109.88 112.38 C 109.71 111.90 109.36 110.95 109.18 110.47 L 110.28 110.53 C 111.41 106.43 112.85 102.33 112.60 98.01 C 112.44 77.18 112.97 56.33 112.31 35.50 L 111.49 35.76 C 111.52 34.92 111.56 33.24 111.58 32.40 L 110.55 32.56 C 110.54 31.79 110.52 30.24 110.51 29.46 L 109.16 29.55 C 109.34 29.07 109.71 28.11 109.90 27.63 L 108.36 27.66 C 108.44 27.17 108.60 26.20 108.68 25.72 L 107.81 25.53 C 107.04 24.17 106.16 22.89 105.29 21.60 L 104.28 21.52 L 104.68 20.28 L 103.30 20.66 L 103.62 19.02 L 102.25 19.81 L 102.65 18.19 L 101.15 18.71 L 101.59 17.88 C 100.30 17.00 99.07 16.03 97.82 15.09 C 97.20 14.88 95.96 14.45 95.34 14.23 L 95.35 13.12 C 94.87 13.30 93.92 13.65 93.44 13.83 L 93.55 12.48 C 92.67 12.47 90.91 12.45 90.03 12.45 L 90.82 11.47 C 89.35 11.45 87.89 11.43 86.43 11.42 L 86.58 10.58 C 68.22 10.27 49.83 10.26 31.46 10.59 Z" />
<path fill="#000000" opacity="1.00" d=" M 25.79 13.67 C 27.92 13.05 30.06 12.42 32.15 11.68 C 50.01 11.57 67.88 11.56 85.74 11.68 C 89.46 12.79 93.20 13.91 96.65 15.73 L 96.66 16.69 C 97.17 16.57 98.18 16.34 98.69 16.22 L 98.19 17.64 L 99.24 17.37 C 101.54 19.70 104.14 21.80 105.86 24.63 L 106.75 24.33 C 106.65 24.82 106.44 25.81 106.34 26.30 L 107.32 26.39 C 107.55 27.02 108.02 28.28 108.25 28.91 C 108.60 29.42 109.29 30.44 109.64 30.95 C 109.61 31.19 109.54 31.68 109.50 31.93 C 109.96 33.03 110.42 34.13 110.88 35.23 C 111.46 37.11 111.41 39.09 111.42 41.03 C 111.32 61.76 111.49 82.48 111.33 103.20 C 110.66 104.68 110.41 106.28 110.24 107.88 L 109.68 107.31 C 109.40 108.65 109.02 109.98 108.56 111.28 C 107.80 112.22 107.10 113.20 106.40 114.18 L 106.86 115.66 L 105.85 115.29 C 104.04 118.40 101.31 120.87 98.35 122.88 L 98.68 123.77 C 98.18 123.66 97.19 123.44 96.69 123.33 L 96.59 124.31 C 94.95 124.87 93.39 125.65 91.98 126.65 C 91.59 126.52 90.81 126.25 90.43 126.11 L 90.88 127.27 C 87.88 127.40 85.02 128.55 82.01 128.41 C 66.00 128.38 50.00 128.38 34.00 128.41 C 32.61 128.49 31.32 128.20 30.10 127.54 C 29.35 127.50 27.84 127.43 27.09 127.39 L 27.63 126.14 C 27.23 126.26 26.44 126.50 26.04 126.61 C 24.56 125.69 22.98 124.91 21.36 124.27 L 21.34 123.34 C 20.83 123.44 19.80 123.65 19.29 123.76 L 19.69 122.86 C 16.66 120.94 13.98 118.37 12.14 115.28 L 11.13 115.66 L 11.73 113.80 C 11.47 113.73 10.94 113.60 10.68 113.53 C 8.99 110.27 7.93 106.74 6.66 103.30 C 6.61 81.05 6.51 58.80 6.71 36.56 C 7.31 35.14 7.66 33.67 7.78 32.13 L 8.85 32.59 C 8.71 32.20 8.44 31.41 8.30 31.02 C 8.67 30.49 9.41 29.44 9.79 28.91 C 10.01 28.28 10.45 27.02 10.67 26.39 L 11.68 26.30 C 11.56 25.80 11.34 24.80 11.23 24.30 L 12.72 24.85 L 12.29 23.86 C 14.68 21.53 16.78 18.81 19.71 17.11 L 19.29 16.21 C 19.80 16.33 20.82 16.57 21.32 16.68 L 21.37 15.72 C 22.87 15.09 24.34 14.41 25.79 13.67 M 52.59 27.00 C 52.64 33.19 52.55 39.39 52.66 45.58 C 46.44 45.63 40.22 45.60 34.00 45.61 C 34.07 49.75 33.83 53.89 34.10 58.03 C 34.34 58.30 34.81 58.86 35.05 59.14 C 40.91 59.45 46.78 59.15 52.65 59.28 C 52.68 65.21 52.40 71.15 52.75 77.07 C 56.36 78.97 60.93 77.73 64.91 77.86 C 65.21 77.62 65.82 77.14 66.12 76.90 C 66.45 71.04 66.21 65.16 66.20 59.29 C 72.08 59.13 77.98 59.48 83.85 59.13 C 84.11 58.83 84.61 58.24 84.87 57.95 C 85.20 53.85 84.87 49.72 84.99 45.61 C 78.72 45.59 72.45 45.64 66.17 45.58 C 66.34 39.39 66.23 33.19 66.26 27.00 C 61.70 27.00 57.15 27.00 52.59 27.00 Z" />
<path fill="#000000" opacity="1.00" d=" M 55.98 30.26 C 58.28 30.23 60.58 30.23 62.88 30.25 C 62.79 36.52 62.84 42.79 62.84 49.06 C 69.10 49.07 75.36 49.06 81.62 49.07 C 81.62 51.32 81.63 53.57 81.65 55.82 C 75.38 55.85 69.10 55.83 62.83 55.83 C 62.85 62.09 62.79 68.35 62.89 74.61 C 60.60 74.62 58.30 74.61 56.01 74.60 C 56.11 68.34 56.05 62.09 56.06 55.84 C 49.77 55.82 43.48 55.86 37.19 55.81 C 37.21 53.57 37.22 51.32 37.23 49.08 C 43.50 49.05 49.78 49.07 56.06 49.06 C 56.03 42.80 56.14 36.53 55.98 30.26 Z" />
</g>
<g id="#f6faf7ff">
<path fill="#f6faf7" opacity="1.00" d=" M 31.46 10.59 C 49.83 10.26 68.22 10.27 86.58 10.58 L 86.43 11.42 C 87.89 11.43 89.35 11.45 90.82 11.47 L 90.03 12.45 C 90.91 12.45 92.67 12.47 93.55 12.48 L 93.44 13.83 C 93.92 13.65 94.87 13.30 95.35 13.12 L 95.34 14.23 C 95.96 14.45 97.20 14.88 97.82 15.09 C 99.07 16.03 100.30 17.00 101.59 17.88 L 101.15 18.71 L 102.65 18.19 L 102.25 19.81 L 103.62 19.02 L 103.30 20.66 L 104.68 20.28 L 104.28 21.52 L 105.29 21.60 C 106.16 22.89 107.04 24.17 107.81 25.53 L 108.68 25.72 C 108.60 26.20 108.44 27.17 108.36 27.66 L 109.90 27.63 C 109.71 28.11 109.34 29.07 109.16 29.55 L 110.51 29.46 C 110.52 30.24 110.54 31.79 110.55 32.56 L 111.58 32.40 C 111.56 33.24 111.52 34.92 111.49 35.76 L 112.31 35.50 C 112.97 56.33 112.44 77.18 112.60 98.01 C 112.85 102.33 111.41 106.43 110.28 110.53 L 109.18 110.47 C 109.36 110.95 109.71 111.90 109.88 112.38 L 108.36 112.34 C 108.44 112.83 108.59 113.80 108.66 114.28 L 107.82 114.48 C 106.99 115.89 106.06 117.25 105.18 118.64 L 104.30 118.15 L 104.78 119.61 L 103.22 119.33 L 103.87 120.68 L 102.28 120.34 L 102.63 121.94 L 101.25 121.08 L 101.65 122.18 C 100.24 123.07 98.87 124.00 97.44 124.85 L 97.30 125.69 C 96.82 125.61 95.86 125.43 95.38 125.34 L 95.38 126.84 C 94.89 126.69 93.92 126.38 93.44 126.22 L 93.51 127.30 C 91.27 127.94 89.05 128.64 86.71 128.86 C 84.25 129.75 81.61 129.59 79.04 129.62 C 64.67 129.58 50.31 129.64 35.94 129.60 C 31.98 129.67 28.22 128.29 24.44 127.26 L 24.55 126.16 C 24.07 126.34 23.11 126.71 22.63 126.90 L 22.69 125.77 C 22.06 125.55 20.80 125.12 20.17 124.90 C 18.93 123.97 17.70 123.01 16.42 122.13 L 16.72 121.14 L 15.38 121.88 L 15.65 120.29 L 13.98 120.62 L 14.87 119.25 L 13.22 119.68 L 13.72 118.20 L 12.82 118.64 C 11.93 117.24 10.99 115.86 10.15 114.43 L 9.31 114.30 C 9.40 113.82 9.57 112.85 9.66 112.37 L 8.14 112.36 C 8.31 111.88 8.64 110.91 8.81 110.42 L 7.43 110.53 C 7.44 109.66 7.47 107.93 7.49 107.06 L 6.46 107.83 C 6.46 106.91 6.47 105.09 6.48 104.17 L 5.70 104.55 C 5.00 84.03 5.59 63.47 5.38 42.93 C 5.07 38.29 6.45 33.82 7.74 29.43 L 8.85 29.55 C 8.66 29.08 8.29 28.13 8.11 27.65 L 9.62 27.64 C 9.55 27.15 9.40 26.16 9.33 25.67 L 10.17 25.57 C 10.99 24.14 11.92 22.77 12.80 21.37 L 13.91 21.76 L 13.06 20.42 L 14.67 20.66 L 14.42 18.98 L 15.79 19.86 L 15.32 18.20 L 16.82 18.71 L 16.40 17.89 C 17.70 17.01 18.92 16.04 20.17 15.10 C 20.79 14.88 22.04 14.45 22.67 14.24 L 22.65 13.12 C 23.13 13.30 24.08 13.65 24.56 13.83 L 24.45 12.46 C 25.31 12.47 27.05 12.48 27.92 12.48 L 27.22 11.48 C 28.62 11.45 30.02 11.43 31.43 11.41 L 31.46 10.59 M 25.79 13.67 C 24.34 14.41 22.87 15.09 21.37 15.72 L 21.32 16.68 C 20.82 16.57 19.80 16.33 19.29 16.21 L 19.71 17.11 C 16.78 18.81 14.68 21.53 12.29 23.86 L 12.72 24.85 L 11.23 24.30 C 11.34 24.80 11.56 25.80 11.68 26.30 L 10.67 26.39 C 10.45 27.02 10.01 28.28 9.79 28.91 C 9.41 29.44 8.67 30.49 8.30 31.02 C 8.44 31.41 8.71 32.20 8.85 32.59 L 7.78 32.13 C 7.66 33.67 7.31 35.14 6.71 36.56 C 6.51 58.80 6.61 81.05 6.66 103.30 C 7.93 106.74 8.99 110.27 10.68 113.53 C 10.94 113.60 11.47 113.73 11.73 113.80 L 11.13 115.66 L 12.14 115.28 C 13.98 118.37 16.66 120.94 19.69 122.86 L 19.29 123.76 C 19.80 123.65 20.83 123.44 21.34 123.34 L 21.36 124.27 C 22.98 124.91 24.56 125.69 26.04 126.61 C 26.44 126.50 27.23 126.26 27.63 126.14 L 27.09 127.39 C 27.84 127.43 29.35 127.50 30.10 127.54 C 31.32 128.20 32.61 128.49 34.00 128.41 C 50.00 128.38 66.00 128.38 82.01 128.41 C 85.02 128.55 87.88 127.40 90.88 127.27 L 90.43 126.11 C 90.81 126.25 91.59 126.52 91.98 126.65 C 93.39 125.65 94.95 124.87 96.59 124.31 L 96.69 123.33 C 97.19 123.44 98.18 123.66 98.68 123.77 L 98.35 122.88 C 101.31 120.87 104.04 118.40 105.85 115.29 L 106.86 115.66 L 106.40 114.18 C 107.10 113.20 107.80 112.22 108.56 111.28 C 109.02 109.98 109.40 108.65 109.68 107.31 L 110.24 107.88 C 110.41 106.28 110.66 104.68 111.33 103.20 C 111.49 82.48 111.32 61.76 111.42 41.03 C 111.41 39.09 111.46 37.11 110.88 35.23 C 110.42 34.13 109.96 33.03 109.50 31.93 C 109.54 31.68 109.61 31.19 109.64 30.95 C 109.29 30.44 108.60 29.42 108.25 28.91 C 108.02 28.28 107.55 27.02 107.32 26.39 L 106.34 26.30 C 106.44 25.81 106.65 24.82 106.75 24.33 L 105.86 24.63 C 104.14 21.80 101.54 19.70 99.24 17.37 L 98.19 17.64 L 98.69 16.22 C 98.18 16.34 97.17 16.57 96.66 16.69 L 96.65 15.73 C 93.20 13.91 89.46 12.79 85.74 11.68 C 67.88 11.56 50.01 11.57 32.15 11.68 C 30.06 12.42 27.92 13.05 25.79 13.67 Z" />
<path fill="#f6faf7" opacity="1.00" d=" M 52.59 27.00 C 57.15 27.00 61.70 27.00 66.26 27.00 C 66.23 33.19 66.34 39.39 66.17 45.58 C 72.45 45.64 78.72 45.59 84.99 45.61 C 84.87 49.72 85.20 53.85 84.87 57.95 C 84.61 58.24 84.11 58.83 83.85 59.13 C 77.98 59.48 72.08 59.13 66.20 59.29 C 66.21 65.16 66.45 71.04 66.12 76.90 C 65.82 77.14 65.21 77.62 64.91 77.86 C 60.93 77.73 56.36 78.97 52.75 77.07 C 52.40 71.15 52.68 65.21 52.65 59.28 C 46.78 59.15 40.91 59.45 35.05 59.14 C 34.81 58.86 34.34 58.30 34.10 58.03 C 33.83 53.89 34.07 49.75 34.00 45.61 C 40.22 45.60 46.44 45.63 52.66 45.58 C 52.55 39.39 52.64 33.19 52.59 27.00 M 55.98 30.26 C 56.14 36.53 56.03 42.80 56.06 49.06 C 49.78 49.07 43.50 49.05 37.23 49.08 C 37.22 51.32 37.21 53.57 37.19 55.81 C 43.48 55.86 49.77 55.82 56.06 55.84 C 56.05 62.09 56.11 68.34 56.01 74.60 C 58.30 74.61 60.60 74.62 62.89 74.61 C 62.79 68.35 62.85 62.09 62.83 55.83 C 69.10 55.83 75.38 55.85 81.65 55.82 C 81.63 53.57 81.62 51.32 81.62 49.07 C 75.36 49.06 69.10 49.07 62.84 49.06 C 62.84 42.79 62.79 36.52 62.88 30.25 C 60.58 30.23 58.28 30.23 55.98 30.26 Z" />
</g>
</svg>
