<?xml version="1.0" encoding="UTF-8" ?>
<!DOCTYPE svg PUBLIC "-//W3C//DTD SVG 1.1//EN" "http://www.w3.org/Graphics/SVG/1.1/DTD/svg11.dtd">
<svg width="18px" height="14px" viewBox="0 0 18 14" version="1.1" xmlns="http://www.w3.org/2000/svg">
<g id="#e0e000ff">
<path fill="#e0e000" opacity="1.00" d=" M 0.00 0.00 L 18.00 0.00 L 18.00 2.84 C 17.25 2.22 16.50 1.60 15.76 0.98 C 12.56 3.98 9.35 6.98 6.11 9.94 C 4.79 8.73 3.47 7.52 2.16 6.30 C 1.62 6.78 0.54 7.74 0.00 8.22 L 0.00 0.00 Z" />
<path fill="#e0e000" opacity="1.00" d=" M 6.19 14.00 C 10.14 10.37 14.07 6.71 18.00 3.05 L 18.00 14.00 L 6.19 14.00 Z" />
<path fill="#e0e000" opacity="1.00" d=" M 0.00 8.41 C 1.99 10.30 4.02 12.15 6.06 14.00 L 0.00 14.00 L 0.00 8.41 Z" />
</g>
<g id="#000000ff">
<path fill="#000000" opacity="1.00" d=" M 15.76 0.98 C 16.50 1.60 17.25 2.22 18.00 2.84 L 18.00 3.05 C 14.07 6.71 10.14 10.37 6.19 14.00 L 6.06 14.00 C 4.02 12.15 1.99 10.30 0.00 8.41 L 0.00 8.22 C 0.54 7.74 1.62 6.78 2.16 6.30 C 3.47 7.52 4.79 8.73 6.11 9.94 C 9.35 6.98 12.56 3.98 15.76 0.98 Z" />
</g>
</svg>
