<?xml version="1.0" encoding="UTF-8" ?>
<!DOCTYPE svg PUBLIC "-//W3C//DTD SVG 1.1//EN" "http://www.w3.org/Graphics/SVG/1.1/DTD/svg11.dtd">
<svg width="117px" height="140px" viewBox="0 0 117 140" version="1.1" xmlns="http://www.w3.org/2000/svg">
<g id="#000000ff">
<path fill="#000000" opacity="1.00" d=" M 0.00 0.00 L 117.00 0.00 L 117.00 140.00 L 0.00 140.00 L 0.00 0.00 M 27.23 11.68 L 27.93 12.45 C 27.06 12.45 25.34 12.45 24.48 12.46 L 24.52 13.83 C 24.06 13.64 23.12 13.27 22.65 13.09 L 22.62 14.64 C 22.16 14.55 21.22 14.37 20.75 14.28 L 20.54 15.15 C 19.15 15.96 17.81 16.85 16.45 17.71 L 16.51 18.06 C 15.52 18.64 14.70 19.41 14.06 20.36 L 13.19 20.39 L 13.70 21.71 L 12.79 21.40 C 11.90 22.76 10.99 24.10 10.16 25.50 L 9.28 25.77 C 9.37 26.23 9.57 27.14 9.66 27.60 L 8.14 27.64 C 8.30 28.11 8.61 29.06 8.77 29.53 L 7.70 29.51 C 6.68 33.27 5.32 37.03 5.39 40.98 C 5.37 60.32 5.37 79.66 5.39 99.00 C 5.27 102.96 6.66 106.72 7.70 110.48 L 8.77 110.48 C 8.61 110.95 8.29 111.89 8.13 112.36 L 9.66 112.39 C 9.56 112.86 9.37 113.78 9.28 114.24 L 10.13 114.47 C 10.96 115.85 11.87 117.19 12.75 118.55 L 13.05 118.49 C 13.68 119.41 14.41 120.24 15.24 120.99 L 15.55 121.75 L 16.81 121.35 L 16.39 122.22 C 17.76 123.11 19.12 124.01 20.52 124.85 L 20.76 125.72 C 21.22 125.63 22.15 125.44 22.61 125.35 L 22.65 126.91 C 23.12 126.73 24.05 126.36 24.52 126.18 L 24.50 127.56 C 25.37 127.56 27.11 127.56 27.98 127.56 L 27.15 128.32 C 30.10 128.72 32.98 129.65 35.98 129.62 C 51.01 129.64 66.03 129.62 81.05 129.62 C 84.40 129.75 87.63 128.82 90.91 128.30 L 89.90 127.59 C 90.80 127.58 92.60 127.56 93.50 127.55 L 93.48 126.18 C 93.95 126.36 94.89 126.73 95.35 126.91 L 95.38 125.36 C 95.84 125.45 96.77 125.63 97.23 125.72 L 97.51 124.83 C 98.88 124.01 100.21 123.12 101.56 122.26 L 101.50 121.92 C 102.61 121.35 103.44 120.51 103.98 119.39 L 104.83 119.83 L 104.26 118.53 L 105.31 118.37 C 106.19 117.10 107.06 115.83 107.85 114.50 L 108.71 114.24 C 108.62 113.77 108.44 112.85 108.35 112.38 L 109.88 112.37 C 109.71 111.90 109.39 110.95 109.22 110.48 L 110.30 110.49 C 111.32 106.74 112.69 102.99 112.61 99.05 C 112.64 79.69 112.64 60.32 112.61 40.96 C 112.70 37.01 111.32 33.27 110.30 29.52 L 109.22 29.52 C 109.39 29.05 109.71 28.11 109.87 27.64 L 108.35 27.61 C 108.44 27.15 108.62 26.23 108.71 25.77 L 107.84 25.49 C 107.01 24.12 106.12 22.79 105.25 21.44 L 104.94 21.49 C 104.29 20.45 103.44 19.62 102.38 19.00 L 102.84 18.16 L 101.51 18.74 L 101.39 17.70 C 100.12 16.82 98.84 15.95 97.51 15.15 L 97.24 14.29 C 96.77 14.38 95.84 14.55 95.38 14.64 L 95.34 13.08 C 94.87 13.27 93.95 13.65 93.48 13.84 L 93.53 12.46 C 92.67 12.46 90.94 12.45 90.07 12.45 L 90.77 11.68 C 87.54 11.12 84.33 10.26 81.02 10.37 C 66.03 10.39 51.04 10.35 36.05 10.39 C 33.05 10.36 30.17 11.22 27.23 11.68 Z" />
<path fill="#000000" opacity="1.00" d=" M 24.84 14.16 C 27.81 13.13 30.74 11.65 33.94 11.62 C 51.58 11.58 69.23 11.73 86.87 11.55 L 86.27 12.20 C 88.40 12.57 90.49 13.13 92.59 13.65 L 92.72 14.20 C 93.99 14.65 95.24 15.13 96.51 15.59 L 96.73 16.67 C 97.22 16.57 98.21 16.37 98.70 16.27 L 98.10 17.87 L 99.09 17.24 C 101.33 19.43 103.54 21.65 105.73 23.88 L 105.21 24.91 L 106.76 24.31 C 106.65 24.79 106.43 25.77 106.32 26.25 L 107.26 26.50 C 107.94 28.05 108.71 29.57 109.58 31.03 C 109.47 31.45 109.27 32.29 109.16 32.70 L 110.17 32.03 C 110.38 33.63 110.63 35.25 111.29 36.74 C 111.43 58.91 111.43 81.09 111.29 103.26 C 110.66 104.71 110.40 106.27 110.19 107.83 C 109.91 107.75 109.33 107.57 109.04 107.48 L 109.63 108.86 C 108.80 110.39 107.96 111.92 107.25 113.51 L 106.33 113.73 C 106.43 114.22 106.63 115.20 106.73 115.69 L 105.12 115.09 L 105.77 116.08 C 103.57 118.32 101.34 120.55 99.10 122.75 L 98.11 122.16 L 98.68 123.75 C 98.19 123.64 97.21 123.42 96.72 123.31 L 96.56 124.31 C 95.42 124.81 94.29 125.32 93.16 125.85 C 90.95 126.79 88.65 127.52 86.26 127.79 L 86.87 128.45 C 68.30 128.32 49.72 128.32 31.15 128.45 L 31.73 127.78 C 29.34 127.53 27.05 126.79 24.84 125.86 C 23.73 125.33 22.62 124.82 21.50 124.33 L 21.25 123.32 C 20.76 123.43 19.79 123.65 19.30 123.76 L 19.91 122.24 L 18.86 122.71 C 16.63 120.53 14.43 118.32 12.25 116.09 L 12.84 115.10 L 11.25 115.68 C 11.36 115.19 11.57 114.22 11.68 113.73 L 10.76 113.53 C 10.05 111.97 9.28 110.44 8.42 108.96 C 8.53 108.56 8.73 107.76 8.83 107.36 L 7.82 107.92 C 7.61 106.33 7.35 104.74 6.71 103.26 C 6.57 81.09 6.57 58.92 6.71 36.75 C 7.35 35.27 7.61 33.68 7.82 32.10 L 8.83 32.63 C 8.73 32.23 8.52 31.43 8.42 31.04 C 9.30 29.59 10.07 28.07 10.74 26.52 L 11.68 26.26 C 11.57 25.78 11.36 24.80 11.25 24.32 L 12.84 24.89 L 12.25 23.90 C 14.45 21.65 16.67 19.43 18.92 17.23 L 19.91 17.87 L 19.31 16.27 C 19.80 16.37 20.78 16.57 21.27 16.67 L 21.49 15.67 C 22.62 15.18 23.73 14.67 24.84 14.16 M 39.15 31.95 C 36.29 35.96 39.18 40.72 40.34 44.79 C 42.70 51.26 43.92 58.62 49.20 63.52 C 50.78 63.42 52.29 63.04 53.72 62.38 C 55.52 67.75 57.91 73.00 62.39 76.67 C 69.80 68.99 77.60 61.69 84.93 53.93 C 81.21 50.03 77.00 46.38 71.58 45.20 C 71.83 43.61 72.81 41.78 71.28 40.51 C 68.72 37.23 64.95 35.24 61.10 33.85 C 56.31 32.50 51.70 30.60 46.91 29.28 C 44.10 29.02 40.68 29.16 39.15 31.95 Z" />
<path fill="#000000" opacity="1.00" d=" M 41.02 34.36 C 41.92 32.97 43.50 32.36 44.90 31.61 C 48.19 33.00 51.77 33.61 54.97 35.26 C 55.96 35.43 56.95 35.60 57.94 35.77 C 60.02 36.97 62.34 37.61 64.63 38.28 C 66.42 39.30 67.90 40.75 69.54 41.99 C 68.19 43.47 66.79 44.90 65.42 46.36 C 70.83 48.17 76.83 49.17 81.00 53.42 C 75.05 60.05 68.42 66.02 62.30 72.49 C 58.09 68.20 57.11 62.03 55.17 56.57 C 53.72 58.00 52.26 59.44 50.80 60.87 C 46.40 56.58 45.61 50.19 43.45 44.71 C 42.61 41.27 40.53 38.03 41.02 34.36 Z" />
</g>
<g id="#eef3f3ff">
<path fill="#eef3f3" opacity="1.00" d=" M 27.23 11.68 C 30.17 11.22 33.05 10.36 36.05 10.39 C 51.04 10.35 66.03 10.39 81.02 10.37 C 84.33 10.26 87.54 11.12 90.77 11.68 L 90.07 12.45 C 90.94 12.45 92.67 12.46 93.53 12.46 L 93.48 13.84 C 93.95 13.65 94.87 13.27 95.34 13.08 L 95.38 14.64 C 95.84 14.55 96.77 14.38 97.24 14.29 L 97.51 15.15 C 98.84 15.95 100.12 16.82 101.39 17.70 L 101.51 18.74 L 102.84 18.16 L 102.38 19.00 C 103.44 19.62 104.29 20.45 104.94 21.49 L 105.25 21.44 C 106.12 22.79 107.01 24.12 107.84 25.49 L 108.71 25.77 C 108.62 26.23 108.44 27.15 108.35 27.61 L 109.87 27.64 C 109.71 28.11 109.39 29.05 109.22 29.52 L 110.30 29.52 C 111.32 33.27 112.70 37.01 112.61 40.96 C 112.64 60.32 112.64 79.69 112.61 99.05 C 112.69 102.99 111.32 106.74 110.30 110.49 L 109.22 110.48 C 109.39 110.95 109.71 111.90 109.88 112.37 L 108.35 112.38 C 108.44 112.85 108.62 113.77 108.71 114.24 L 107.85 114.50 C 107.06 115.83 106.19 117.10 105.31 118.37 L 104.26 118.53 L 104.83 119.83 L 103.98 119.39 C 103.44 120.51 102.61 121.35 101.50 121.92 L 101.56 122.26 C 100.21 123.12 98.88 124.01 97.51 124.83 L 97.23 125.72 C 96.77 125.63 95.84 125.45 95.38 125.36 L 95.35 126.91 C 94.89 126.73 93.95 126.36 93.48 126.18 L 93.50 127.55 C 92.60 127.56 90.80 127.58 89.90 127.59 L 90.91 128.30 C 87.63 128.82 84.40 129.75 81.05 129.62 C 66.03 129.62 51.01 129.64 35.98 129.62 C 32.98 129.65 30.10 128.72 27.15 128.32 L 27.98 127.56 C 27.11 127.56 25.37 127.56 24.50 127.56 L 24.52 126.18 C 24.05 126.36 23.12 126.73 22.65 126.91 L 22.61 125.35 C 22.15 125.44 21.22 125.63 20.76 125.72 L 20.52 124.85 C 19.12 124.01 17.76 123.11 16.39 122.22 L 16.81 121.35 L 15.55 121.75 L 15.24 120.99 C 14.41 120.24 13.68 119.41 13.05 118.49 L 12.75 118.55 C 11.87 117.19 10.96 115.85 10.13 114.47 L 9.28 114.24 C 9.37 113.78 9.56 112.86 9.66 112.39 L 8.13 112.36 C 8.29 111.89 8.61 110.95 8.77 110.48 L 7.70 110.48 C 6.66 106.72 5.27 102.96 5.39 99.00 C 5.37 79.66 5.37 60.32 5.39 40.98 C 5.32 37.03 6.68 33.27 7.70 29.51 L 8.77 29.53 C 8.61 29.06 8.30 28.11 8.14 27.64 L 9.66 27.60 C 9.57 27.14 9.37 26.23 9.28 25.77 L 10.16 25.50 C 10.99 24.10 11.90 22.76 12.79 21.40 L 13.70 21.71 L 13.19 20.39 L 14.06 20.36 C 14.70 19.41 15.52 18.64 16.51 18.06 L 16.45 17.71 C 17.81 16.85 19.15 15.96 20.54 15.15 L 20.75 14.28 C 21.22 14.37 22.16 14.55 22.62 14.64 L 22.65 13.09 C 23.12 13.27 24.06 13.64 24.52 13.83 L 24.48 12.46 C 25.34 12.45 27.06 12.45 27.93 12.45 L 27.23 11.68 M 24.84 14.16 C 23.73 14.67 22.62 15.18 21.49 15.67 L 21.27 16.67 C 20.78 16.57 19.80 16.37 19.31 16.27 L 19.91 17.87 L 18.92 17.23 C 16.67 19.43 14.45 21.65 12.25 23.90 L 12.84 24.89 L 11.25 24.32 C 11.36 24.80 11.57 25.78 11.68 26.26 L 10.74 26.52 C 10.07 28.07 9.30 29.59 8.42 31.04 C 8.52 31.43 8.73 32.23 8.83 32.63 L 7.82 32.10 C 7.61 33.68 7.35 35.27 6.71 36.75 C 6.57 58.92 6.57 81.09 6.71 103.26 C 7.35 104.74 7.61 106.33 7.82 107.92 L 8.83 107.36 C 8.73 107.76 8.53 108.56 8.42 108.96 C 9.28 110.44 10.05 111.97 10.76 113.53 L 11.68 113.73 C 11.57 114.22 11.36 115.19 11.25 115.68 L 12.84 115.10 L 12.25 116.09 C 14.43 118.32 16.63 120.53 18.86 122.71 L 19.91 122.24 L 19.30 123.76 C 19.79 123.65 20.76 123.43 21.25 123.32 L 21.50 124.33 C 22.62 124.82 23.73 125.33 24.84 125.86 C 27.05 126.79 29.34 127.53 31.73 127.78 L 31.15 128.45 C 49.72 128.32 68.30 128.32 86.87 128.45 L 86.26 127.79 C 88.65 127.52 90.95 126.79 93.16 125.85 C 94.29 125.32 95.42 124.81 96.56 124.31 L 96.72 123.31 C 97.21 123.42 98.19 123.64 98.68 123.75 L 98.11 122.16 L 99.10 122.75 C 101.34 120.55 103.57 118.32 105.77 116.08 L 105.12 115.09 L 106.73 115.69 C 106.63 115.20 106.43 114.22 106.33 113.73 L 107.25 113.51 C 107.96 111.92 108.80 110.39 109.63 108.86 L 109.04 107.48 C 109.33 107.57 109.91 107.75 110.19 107.83 C 110.40 106.27 110.66 104.71 111.29 103.26 C 111.43 81.09 111.43 58.91 111.29 36.74 C 110.63 35.25 110.38 33.63 110.17 32.03 L 109.16 32.70 C 109.27 32.29 109.47 31.45 109.58 31.03 C 108.71 29.57 107.94 28.05 107.26 26.50 L 106.32 26.25 C 106.43 25.77 106.65 24.79 106.76 24.31 L 105.21 24.91 L 105.73 23.88 C 103.54 21.65 101.33 19.43 99.09 17.24 L 98.10 17.87 L 98.70 16.27 C 98.21 16.37 97.22 16.57 96.73 16.67 L 96.51 15.59 C 95.24 15.13 93.99 14.65 92.72 14.20 L 92.59 13.65 C 90.49 13.13 88.40 12.57 86.27 12.20 L 86.87 11.55 C 69.23 11.73 51.58 11.58 33.94 11.62 C 30.74 11.65 27.81 13.13 24.84 14.16 Z" />
<path fill="#eef3f3" opacity="1.00" d=" M 39.15 31.95 C 40.68 29.16 44.10 29.02 46.91 29.28 C 51.70 30.60 56.31 32.50 61.10 33.85 C 64.95 35.24 68.72 37.23 71.28 40.51 C 72.81 41.78 71.83 43.61 71.58 45.20 C 77.00 46.38 81.21 50.03 84.93 53.93 C 77.60 61.69 69.80 68.99 62.39 76.67 C 57.91 73.00 55.52 67.75 53.72 62.38 C 52.29 63.04 50.78 63.42 49.20 63.52 C 43.92 58.62 42.70 51.26 40.34 44.79 C 39.18 40.72 36.29 35.96 39.15 31.95 M 41.02 34.36 C 40.53 38.03 42.61 41.27 43.45 44.71 C 45.61 50.19 46.40 56.58 50.80 60.87 C 52.26 59.44 53.72 58.00 55.17 56.57 C 57.11 62.03 58.09 68.20 62.30 72.49 C 68.42 66.02 75.05 60.05 81.00 53.42 C 76.83 49.17 70.83 48.17 65.42 46.36 C 66.79 44.90 68.19 43.47 69.54 41.99 C 67.90 40.75 66.42 39.30 64.63 38.28 C 62.34 37.61 60.02 36.97 57.94 35.77 C 56.95 35.60 55.96 35.43 54.97 35.26 C 51.77 33.61 48.19 33.00 44.90 31.61 C 43.50 32.36 41.92 32.97 41.02 34.36 Z" />
</g>
</svg>
