<?xml version="1.0" encoding="UTF-8" ?>
<!DOCTYPE svg PUBLIC "-//W3C//DTD SVG 1.1//EN" "http://www.w3.org/Graphics/SVG/1.1/DTD/svg11.dtd">
<svg width="117px" height="140px" viewBox="0 0 117 140" version="1.1" xmlns="http://www.w3.org/2000/svg">
<g id="#000000ff">
<path fill="#000000" opacity="1.00" d=" M 0.00 0.00 L 117.00 0.00 L 117.00 140.00 L 0.00 140.00 L 0.00 0.00 M 31.92 10.68 C 29.48 11.46 26.96 12.00 24.49 12.68 L 24.53 13.80 C 24.06 13.63 23.11 13.30 22.64 13.14 L 22.64 14.64 C 22.16 14.56 21.20 14.40 20.73 14.32 L 20.51 15.28 C 19.05 15.98 17.72 16.90 16.40 17.80 L 16.75 18.68 L 15.34 18.28 L 15.66 19.80 L 14.27 19.15 L 14.74 20.54 L 13.29 20.44 L 13.66 21.80 L 12.80 21.40 C 11.91 22.76 10.98 24.10 10.22 25.54 C 9.97 25.62 9.46 25.77 9.20 25.84 L 9.79 27.49 L 8.19 27.67 C 8.33 28.14 8.62 29.09 8.76 29.57 L 7.68 29.50 C 7.11 31.54 6.46 33.57 6.35 35.71 L 5.69 35.55 C 5.01 56.36 5.58 77.20 5.38 98.02 C 5.15 102.32 6.65 106.38 7.65 110.49 L 8.79 110.46 C 8.63 110.94 8.31 111.89 8.15 112.37 L 9.65 112.38 C 9.57 112.85 9.40 113.81 9.32 114.28 L 10.20 114.44 C 10.96 115.90 11.92 117.24 12.83 118.61 L 13.74 118.28 L 13.25 119.73 L 14.85 119.26 L 14.05 120.70 L 15.66 120.25 L 15.34 121.82 L 16.72 121.19 L 16.39 122.20 C 17.74 123.09 19.06 124.04 20.52 124.74 C 20.60 125.01 20.76 125.53 20.84 125.79 L 22.51 125.22 L 22.67 126.84 C 23.13 126.68 24.07 126.37 24.54 126.21 L 24.50 127.32 C 28.28 128.26 32.02 129.68 35.98 129.60 C 51.00 129.64 66.02 129.59 81.03 129.62 C 82.96 129.64 84.94 129.58 86.70 128.71 C 88.03 128.64 89.37 128.58 90.70 128.53 L 90.17 127.51 C 91.02 127.52 92.71 127.53 93.56 127.54 L 93.46 126.16 C 93.93 126.34 94.88 126.71 95.36 126.90 L 95.36 125.37 C 95.84 125.45 96.80 125.59 97.28 125.67 L 97.50 124.71 C 98.97 124.04 100.28 123.09 101.62 122.19 L 101.24 121.17 L 102.61 121.86 L 102.36 120.28 L 103.97 120.65 L 103.16 119.24 L 104.78 119.71 L 104.27 118.25 L 105.20 118.60 C 106.11 117.26 107.03 115.92 107.74 114.46 L 108.66 114.31 C 108.58 113.83 108.43 112.87 108.35 112.39 L 109.86 112.36 C 109.69 111.89 109.37 110.94 109.21 110.47 L 110.33 110.50 C 111.23 106.72 112.69 103.00 112.59 99.05 C 112.63 80.38 112.60 61.72 112.61 43.05 C 112.51 40.40 112.80 37.63 111.82 35.10 C 111.38 33.21 110.81 31.35 110.32 29.48 L 109.16 29.52 C 109.35 29.04 109.72 28.09 109.91 27.62 L 108.38 27.69 C 108.46 27.20 108.60 26.22 108.67 25.73 L 107.75 25.54 C 107.04 24.08 106.09 22.75 105.18 21.41 L 104.38 21.73 L 104.65 20.37 L 103.74 20.49 C 103.36 19.23 102.22 18.54 101.29 17.73 C 100.07 16.80 98.85 15.85 97.44 15.21 L 97.28 14.32 C 96.80 14.40 95.84 14.55 95.36 14.63 L 95.35 13.10 C 94.88 13.29 93.94 13.66 93.47 13.85 L 93.55 12.46 C 92.70 12.47 90.99 12.50 90.13 12.51 L 90.72 11.65 C 89.17 11.45 87.60 11.28 86.12 10.73 C 79.75 10.06 73.33 10.52 66.94 10.39 C 55.27 10.55 43.57 10.04 31.92 10.68 Z" />
<path fill="#000000" opacity="1.00" d=" M 27.18 12.55 C 28.63 12.53 30.09 12.50 31.54 12.48 L 31.51 11.54 C 49.89 11.64 68.27 11.68 86.64 11.53 L 86.42 12.27 C 88.41 12.54 90.35 13.03 92.27 13.60 C 93.56 14.58 95.09 15.15 96.63 15.58 L 96.69 16.66 C 97.19 16.56 98.20 16.36 98.71 16.26 L 98.17 17.76 L 99.20 17.22 C 101.25 19.85 104.33 21.58 105.81 24.68 L 106.74 24.33 C 106.64 24.82 106.44 25.82 106.34 26.32 L 107.43 26.35 C 107.65 28.12 108.62 29.63 109.69 31.00 C 109.57 31.40 109.32 32.19 109.20 32.58 L 110.44 32.18 C 110.46 32.92 110.50 34.40 110.52 35.14 C 111.62 36.55 111.41 38.32 111.42 39.98 C 111.29 61.08 111.53 82.19 111.30 103.29 C 110.59 104.70 110.39 106.27 110.31 107.83 L 109.58 107.35 C 109.37 108.69 109.20 110.08 108.33 111.17 C 108.07 111.76 107.56 112.94 107.30 113.53 L 106.35 113.72 C 106.45 114.22 106.64 115.21 106.74 115.71 L 105.83 115.28 C 104.34 118.39 101.28 120.14 99.20 122.78 L 98.17 122.25 L 98.71 123.75 C 98.21 123.65 97.21 123.44 96.71 123.34 L 96.58 124.37 C 96.01 124.60 94.86 125.05 94.29 125.27 C 91.68 126.90 88.60 127.53 85.58 127.80 C 85.60 127.98 85.64 128.32 85.65 128.49 C 67.51 128.31 49.37 128.33 31.23 128.48 L 31.65 127.52 C 30.16 127.49 28.66 127.47 27.17 127.46 L 27.66 126.53 C 26.33 126.37 24.92 126.25 23.85 125.35 C 23.24 125.09 22.04 124.59 21.43 124.33 L 21.29 123.34 C 20.79 123.44 19.80 123.66 19.30 123.76 L 19.73 122.81 C 16.60 121.36 14.86 118.28 12.24 116.19 L 12.75 115.17 L 11.27 115.71 C 11.36 115.21 11.56 114.20 11.65 113.69 L 10.57 113.63 C 10.14 111.96 9.50 110.32 8.29 109.06 C 8.42 108.65 8.68 107.83 8.81 107.42 L 7.55 107.85 C 7.53 106.36 7.50 104.87 7.47 103.39 L 6.51 103.76 C 6.80 81.41 6.42 59.06 6.70 36.72 C 7.42 35.29 7.60 33.71 7.72 32.15 L 8.87 32.57 C 8.72 32.17 8.42 31.37 8.27 30.97 C 9.51 29.71 10.19 28.05 10.57 26.35 L 11.65 26.33 C 11.56 25.82 11.37 24.80 11.27 24.29 L 12.73 24.82 L 12.26 23.80 C 14.44 22.01 16.01 19.57 18.45 18.07 L 18.47 17.16 L 19.81 17.78 L 19.29 16.29 C 19.80 16.38 20.83 16.54 21.35 16.63 L 21.40 15.54 C 23.14 15.33 24.70 14.54 25.91 13.29 C 26.32 13.43 27.15 13.70 27.56 13.84 L 27.18 12.55 M 49.80 27.86 C 49.87 37.48 49.82 47.10 49.83 56.72 C 47.16 59.18 44.76 62.26 44.63 66.06 C 43.51 73.25 49.58 80.76 57.01 80.45 C 65.11 80.79 71.49 71.77 69.13 64.19 C 68.45 61.16 66.32 58.81 64.17 56.71 C 64.19 47.12 64.12 37.52 64.21 27.92 C 59.44 27.29 54.58 27.39 49.80 27.86 M 68.38 37.09 C 67.98 37.56 67.17 38.51 66.77 38.98 C 67.19 39.51 68.01 40.57 68.43 41.10 C 70.31 40.84 73.16 41.64 73.64 39.09 C 73.18 36.42 70.32 37.31 68.38 37.09 M 68.41 44.03 C 68.00 44.51 67.18 45.49 66.77 45.98 C 67.18 46.49 67.99 47.52 68.40 48.03 C 70.31 47.79 73.17 48.65 73.63 46.04 C 73.19 43.41 70.31 44.27 68.41 44.03 M 68.41 50.95 C 68.00 51.46 67.19 52.48 66.78 53.00 C 67.19 53.49 68.01 54.49 68.42 54.99 C 70.30 54.76 73.15 55.54 73.64 52.99 C 73.21 50.37 70.30 51.21 68.41 50.95 Z" />
<path fill="#000000" opacity="1.00" d=" M 53.42 31.20 C 55.81 31.27 58.20 31.27 60.60 31.21 C 60.15 40.35 60.60 49.51 60.35 58.66 C 66.01 61.43 67.67 69.63 63.21 74.19 C 59.22 78.37 51.30 77.13 49.13 71.67 C 46.77 66.96 49.08 61.04 53.65 58.66 C 53.41 49.51 53.83 40.35 53.42 31.20 M 55.00 37.00 C 54.83 44.61 55.31 52.24 54.99 59.84 C 53.38 61.82 50.21 62.97 49.96 65.97 C 49.01 69.73 51.67 73.43 55.07 74.76 C 60.47 76.49 65.88 70.17 63.81 65.03 C 63.13 62.55 60.37 61.68 59.02 59.82 C 58.67 52.23 59.18 44.60 59.00 37.00 C 57.67 37.00 56.33 37.00 55.00 37.00 Z" />
</g>
<g id="#f6faf7ff">
<path fill="#f6faf7" opacity="1.00" d=" M 31.92 10.68 C 43.57 10.04 55.27 10.55 66.94 10.39 C 73.33 10.52 79.75 10.06 86.12 10.73 C 87.60 11.28 89.17 11.45 90.72 11.65 L 90.13 12.51 C 90.99 12.50 92.70 12.47 93.55 12.46 L 93.47 13.85 C 93.94 13.66 94.88 13.29 95.35 13.10 L 95.36 14.63 C 95.84 14.55 96.80 14.40 97.28 14.32 L 97.44 15.21 C 98.85 15.85 100.07 16.80 101.29 17.73 C 102.22 18.54 103.36 19.23 103.74 20.49 L 104.65 20.37 L 104.38 21.73 L 105.18 21.41 C 106.09 22.75 107.04 24.08 107.75 25.54 L 108.67 25.73 C 108.60 26.22 108.46 27.20 108.38 27.69 L 109.91 27.62 C 109.72 28.09 109.35 29.04 109.16 29.52 L 110.32 29.48 C 110.81 31.35 111.38 33.21 111.82 35.10 C 112.80 37.63 112.51 40.40 112.61 43.05 C 112.60 61.72 112.63 80.38 112.59 99.05 C 112.69 103.00 111.23 106.72 110.33 110.50 L 109.21 110.47 C 109.37 110.94 109.69 111.89 109.86 112.36 L 108.35 112.39 C 108.43 112.87 108.58 113.83 108.66 114.31 L 107.74 114.46 C 107.03 115.92 106.11 117.26 105.20 118.60 L 104.27 118.25 L 104.78 119.71 L 103.16 119.24 L 103.97 120.65 L 102.36 120.28 L 102.61 121.86 L 101.24 121.17 L 101.62 122.19 C 100.28 123.09 98.97 124.04 97.50 124.71 L 97.28 125.67 C 96.80 125.59 95.84 125.45 95.36 125.37 L 95.36 126.90 C 94.88 126.71 93.93 126.34 93.46 126.16 L 93.56 127.54 C 92.71 127.53 91.02 127.52 90.17 127.51 L 90.70 128.53 C 89.37 128.58 88.03 128.64 86.70 128.71 C 84.94 129.58 82.96 129.64 81.03 129.62 C 66.02 129.59 51.00 129.64 35.98 129.60 C 32.02 129.68 28.28 128.26 24.50 127.32 L 24.54 126.21 C 24.07 126.37 23.13 126.68 22.67 126.84 L 22.51 125.22 L 20.84 125.79 C 20.76 125.53 20.60 125.01 20.52 124.74 C 19.06 124.04 17.74 123.09 16.39 122.20 L 16.72 121.19 L 15.34 121.82 L 15.66 120.25 L 14.05 120.70 L 14.85 119.26 L 13.25 119.73 L 13.74 118.28 L 12.83 118.61 C 11.92 117.24 10.96 115.90 10.20 114.44 L 9.32 114.28 C 9.40 113.81 9.57 112.85 9.65 112.38 L 8.15 112.37 C 8.31 111.89 8.63 110.94 8.79 110.46 L 7.65 110.49 C 6.65 106.38 5.15 102.32 5.38 98.02 C 5.58 77.20 5.01 56.36 5.69 35.55 L 6.35 35.71 C 6.46 33.57 7.11 31.54 7.68 29.50 L 8.76 29.57 C 8.62 29.09 8.33 28.14 8.19 27.67 L 9.79 27.49 L 9.20 25.84 C 9.46 25.77 9.97 25.62 10.22 25.54 C 10.98 24.10 11.91 22.76 12.80 21.40 L 13.66 21.80 L 13.29 20.44 L 14.74 20.54 L 14.27 19.15 L 15.66 19.80 L 15.34 18.28 L 16.75 18.68 L 16.40 17.80 C 17.72 16.90 19.05 15.98 20.51 15.28 L 20.73 14.32 C 21.20 14.40 22.16 14.56 22.64 14.64 L 22.64 13.14 C 23.11 13.30 24.06 13.63 24.53 13.80 L 24.49 12.68 C 26.96 12.00 29.48 11.46 31.92 10.68 M 27.18 12.55 L 27.56 13.84 C 27.15 13.70 26.32 13.43 25.91 13.29 C 24.70 14.54 23.14 15.33 21.40 15.54 L 21.35 16.63 C 20.83 16.54 19.80 16.38 19.29 16.29 L 19.81 17.78 L 18.47 17.16 L 18.45 18.07 C 16.01 19.57 14.44 22.01 12.26 23.80 L 12.73 24.82 L 11.27 24.29 C 11.37 24.80 11.56 25.82 11.65 26.33 L 10.57 26.35 C 10.19 28.05 9.51 29.71 8.27 30.97 C 8.42 31.37 8.72 32.17 8.87 32.57 L 7.72 32.15 C 7.60 33.71 7.42 35.29 6.70 36.72 C 6.42 59.06 6.80 81.41 6.51 103.76 L 7.47 103.39 C 7.50 104.87 7.53 106.36 7.55 107.85 L 8.81 107.42 C 8.68 107.83 8.42 108.65 8.29 109.06 C 9.50 110.32 10.14 111.96 10.57 113.63 L 11.65 113.69 C 11.56 114.20 11.36 115.21 11.27 115.71 L 12.75 115.17 L 12.24 116.19 C 14.86 118.28 16.60 121.36 19.73 122.81 L 19.30 123.76 C 19.80 123.66 20.79 123.44 21.29 123.34 L 21.43 124.33 C 22.04 124.59 23.24 125.09 23.85 125.35 C 24.92 126.25 26.33 126.37 27.66 126.53 L 27.17 127.46 C 28.66 127.47 30.16 127.49 31.65 127.52 L 31.23 128.48 C 49.37 128.33 67.51 128.31 85.65 128.49 C 85.64 128.32 85.60 127.98 85.58 127.80 C 88.60 127.53 91.68 126.90 94.29 125.27 C 94.86 125.05 96.01 124.60 96.58 124.37 L 96.71 123.34 C 97.21 123.44 98.21 123.65 98.71 123.75 L 98.17 122.25 L 99.20 122.78 C 101.28 120.14 104.34 118.39 105.83 115.28 L 106.74 115.71 C 106.64 115.21 106.45 114.22 106.35 113.72 L 107.30 113.53 C 107.56 112.94 108.07 111.76 108.33 111.17 C 109.20 110.08 109.37 108.69 109.58 107.35 L 110.31 107.83 C 110.39 106.27 110.59 104.70 111.30 103.29 C 111.53 82.19 111.29 61.08 111.42 39.98 C 111.41 38.32 111.62 36.55 110.52 35.14 C 110.50 34.40 110.46 32.92 110.44 32.18 L 109.20 32.58 C 109.32 32.19 109.57 31.40 109.69 31.00 C 108.62 29.63 107.65 28.12 107.43 26.35 L 106.34 26.32 C 106.44 25.82 106.64 24.82 106.74 24.33 L 105.81 24.68 C 104.33 21.58 101.25 19.85 99.20 17.22 L 98.17 17.76 L 98.71 16.26 C 98.20 16.36 97.19 16.56 96.69 16.66 L 96.63 15.58 C 95.09 15.15 93.56 14.58 92.27 13.60 C 90.35 13.03 88.41 12.54 86.42 12.27 L 86.64 11.53 C 68.27 11.68 49.89 11.64 31.51 11.54 L 31.54 12.48 C 30.09 12.50 28.63 12.53 27.18 12.55 Z" />
<path fill="#f6faf7" opacity="1.00" d=" M 49.80 27.86 C 54.58 27.39 59.44 27.29 64.21 27.92 C 64.12 37.52 64.19 47.12 64.17 56.71 C 66.32 58.81 68.45 61.16 69.13 64.19 C 71.49 71.77 65.11 80.79 57.01 80.45 C 49.58 80.76 43.51 73.25 44.63 66.06 C 44.76 62.26 47.16 59.18 49.83 56.72 C 49.82 47.10 49.87 37.48 49.80 27.86 M 53.42 31.20 C 53.83 40.35 53.41 49.51 53.65 58.66 C 49.08 61.04 46.77 66.96 49.13 71.67 C 51.30 77.13 59.22 78.37 63.21 74.19 C 67.67 69.63 66.01 61.43 60.35 58.66 C 60.60 49.51 60.15 40.35 60.60 31.21 C 58.20 31.27 55.81 31.27 53.42 31.20 Z" />
<path fill="#f6faf7" opacity="1.00" d=" M 55.00 37.00 C 56.33 37.00 57.67 37.00 59.00 37.00 C 59.18 44.60 58.67 52.23 59.02 59.82 C 60.37 61.68 63.13 62.55 63.81 65.03 C 65.88 70.17 60.47 76.49 55.07 74.76 C 51.67 73.43 49.01 69.73 49.96 65.97 C 50.21 62.97 53.38 61.82 54.99 59.84 C 55.31 52.24 54.83 44.61 55.00 37.00 Z" />
<path fill="#f6faf7" opacity="1.00" d=" M 68.38 37.09 C 70.32 37.31 73.18 36.42 73.64 39.09 C 73.16 41.64 70.31 40.84 68.43 41.10 C 68.01 40.57 67.19 39.51 66.77 38.98 C 67.17 38.51 67.98 37.56 68.38 37.09 Z" />
<path fill="#f6faf7" opacity="1.00" d=" M 68.41 44.03 C 70.31 44.27 73.19 43.41 73.63 46.04 C 73.17 48.65 70.31 47.79 68.40 48.03 C 67.99 47.52 67.18 46.49 66.77 45.98 C 67.18 45.49 68.00 44.51 68.41 44.03 Z" />
<path fill="#f6faf7" opacity="1.00" d=" M 68.41 50.95 C 70.30 51.21 73.21 50.37 73.64 52.99 C 73.15 55.54 70.30 54.76 68.42 54.99 C 68.01 54.49 67.19 53.49 66.78 53.00 C 67.19 52.48 68.00 51.46 68.41 50.95 Z" />
</g>
</svg>
