<?xml version="1.0" encoding="UTF-8" ?>
<!DOCTYPE svg PUBLIC "-//W3C//DTD SVG 1.1//EN" "http://www.w3.org/Graphics/SVG/1.1/DTD/svg11.dtd">
<svg width="117px" height="92px" viewBox="0 0 117 92" version="1.1" xmlns="http://www.w3.org/2000/svg">
<g id="#000000ff">
<path fill="#000000" opacity="1.00" d=" M 0.00 0.00 L 117.00 0.00 L 117.00 92.00 L 0.00 92.00 L 0.00 0.00 M 29.56 8.75 C 19.43 10.79 10.58 18.05 6.61 27.60 C 3.11 35.25 4.32 43.86 4.17 52.01 C 4.20 67.93 18.08 82.23 33.98 82.79 C 49.33 82.95 64.67 82.83 80.02 82.85 C 92.29 83.08 104.15 75.33 109.07 64.13 C 112.93 56.31 111.69 47.38 111.82 38.97 C 111.80 23.07 97.95 8.81 82.08 8.22 C 68.71 8.02 55.33 8.21 41.96 8.14 C 37.82 8.15 33.64 7.95 29.56 8.75 Z" />
<path fill="#000000" opacity="1.00" d=" M 29.40 10.62 C 32.23 10.02 35.12 9.80 38.01 9.84 C 52.36 9.92 66.71 9.79 81.06 9.89 C 92.25 10.21 102.87 17.31 107.41 27.55 C 111.03 34.83 110.03 43.16 110.14 51.01 C 110.19 61.29 104.54 71.41 95.69 76.67 C 90.73 79.79 84.83 81.22 79.00 81.15 C 64.68 81.12 50.35 81.15 36.03 81.14 C 26.03 81.15 16.13 75.88 10.78 67.40 C 6.68 61.45 5.48 54.07 5.85 46.97 C 5.62 39.49 5.79 31.54 9.93 25.00 C 13.99 17.72 21.30 12.46 29.40 10.62 M 54.55 16.53 C 47.73 20.81 41.17 25.49 34.36 29.79 C 34.24 30.38 34.00 31.55 33.88 32.14 C 39.61 36.85 46.15 40.43 52.18 44.74 C 53.78 45.71 55.79 47.63 57.70 46.23 C 58.77 43.20 57.93 39.86 58.76 36.76 C 66.67 36.95 74.77 41.26 77.88 48.80 C 78.46 42.65 77.47 35.78 72.61 31.46 C 69.07 27.28 63.56 26.09 58.40 25.37 C 58.29 22.59 58.43 19.80 58.07 17.04 C 57.26 15.90 55.64 15.64 54.55 16.53 Z" />
</g>
<g id="#68e868ff">
<path fill="#68e868" opacity="1.00" d=" M 29.56 8.75 C 33.64 7.95 37.82 8.15 41.96 8.14 C 55.33 8.21 68.71 8.02 82.08 8.22 C 97.95 8.81 111.80 23.07 111.82 38.97 C 111.69 47.38 112.93 56.31 109.07 64.13 C 104.15 75.33 92.29 83.08 80.02 82.85 C 64.67 82.83 49.33 82.95 33.98 82.79 C 18.08 82.23 4.20 67.93 4.17 52.01 C 4.32 43.86 3.11 35.25 6.61 27.60 C 10.58 18.05 19.43 10.79 29.56 8.75 M 29.40 10.62 C 21.30 12.46 13.99 17.72 9.93 25.00 C 5.79 31.54 5.62 39.49 5.85 46.97 C 5.48 54.07 6.68 61.45 10.78 67.40 C 16.13 75.88 26.03 81.15 36.03 81.14 C 50.35 81.15 64.68 81.12 79.00 81.15 C 84.83 81.22 90.73 79.79 95.69 76.67 C 104.54 71.41 110.19 61.29 110.14 51.01 C 110.03 43.16 111.03 34.83 107.41 27.55 C 102.87 17.31 92.25 10.21 81.06 9.89 C 66.71 9.79 52.36 9.92 38.01 9.84 C 35.12 9.80 32.23 10.02 29.40 10.62 Z" />
<path fill="#68e868" opacity="1.00" d=" M 54.55 16.53 C 55.64 15.64 57.26 15.90 58.07 17.04 C 58.43 19.80 58.29 22.59 58.40 25.37 C 63.56 26.09 69.07 27.28 72.61 31.46 C 77.47 35.78 78.46 42.65 77.88 48.80 C 74.77 41.26 66.67 36.95 58.76 36.76 C 57.93 39.86 58.77 43.20 57.70 46.23 C 55.79 47.63 53.78 45.71 52.18 44.74 C 46.15 40.43 39.61 36.85 33.88 32.14 C 34.00 31.55 34.24 30.38 34.36 29.79 C 41.17 25.49 47.73 20.81 54.55 16.53 Z" />
</g>
</svg>
