<?xml version="1.0" encoding="UTF-8" ?>
<!DOCTYPE svg PUBLIC "-//W3C//DTD SVG 1.1//EN" "http://www.w3.org/Graphics/SVG/1.1/DTD/svg11.dtd">
<svg width="117px" height="140px" viewBox="0 0 117 140" version="1.1" xmlns="http://www.w3.org/2000/svg">
<g id="#000000ff">
<path fill="#000000" opacity="1.00" d=" M 0.00 0.00 L 117.00 0.00 L 117.00 140.00 L 0.00 140.00 L 0.00 0.00 M 31.18 11.28 C 29.93 11.36 28.68 11.44 27.43 11.51 L 27.61 12.48 C 26.83 12.48 25.25 12.47 24.47 12.47 L 24.50 13.87 C 24.03 13.66 23.10 13.25 22.63 13.04 L 22.76 14.18 C 22.07 14.42 20.69 14.90 20.00 15.14 C 18.97 16.00 17.96 16.89 16.96 17.78 C 16.52 17.98 15.66 18.39 15.22 18.59 L 15.94 19.70 L 14.38 19.09 L 14.69 20.64 L 13.69 20.32 C 13.44 20.74 12.95 21.57 12.70 21.99 C 11.86 23.01 10.99 24.01 10.12 25.01 C 9.89 25.70 9.42 27.06 9.19 27.74 L 8.02 27.67 C 8.15 27.96 8.42 28.55 8.55 28.84 C 7.74 30.06 7.28 31.42 7.16 32.91 L 6.56 32.19 C 6.49 32.97 6.36 34.54 6.30 35.33 C 5.35 37.78 5.37 40.43 5.37 43.01 C 5.41 61.67 5.35 80.32 5.39 98.98 C 5.30 102.96 6.68 106.74 7.72 110.53 L 8.87 110.53 C 8.67 110.98 8.25 111.88 8.05 112.34 L 9.19 112.28 C 9.44 112.96 9.95 114.32 10.20 115.00 C 11.02 116.04 11.84 117.08 12.70 118.10 C 12.88 118.52 13.23 119.38 13.41 119.80 L 14.68 119.10 L 14.13 120.67 L 15.71 120.31 L 15.29 121.39 C 15.69 121.64 16.50 122.13 16.91 122.37 C 18.04 123.29 19.24 124.12 20.49 124.87 L 20.75 125.68 C 21.24 125.60 22.24 125.46 22.74 125.38 L 22.52 126.90 C 23.04 126.72 24.08 126.36 24.60 126.18 L 24.40 127.54 C 25.26 127.53 26.96 127.53 27.81 127.53 L 27.28 128.32 C 30.18 128.76 33.02 129.65 35.98 129.61 C 50.30 129.65 64.63 129.59 78.95 129.63 C 81.62 129.62 84.34 129.67 86.95 128.99 C 89.19 128.53 91.38 127.90 93.58 127.27 L 93.46 126.16 C 93.82 126.30 94.52 126.58 94.88 126.72 C 95.86 126.03 96.85 125.35 97.84 124.69 C 98.98 123.99 100.07 123.20 101.10 122.35 C 101.50 122.12 102.31 121.67 102.71 121.45 L 102.30 120.34 L 103.91 120.63 L 103.29 119.07 L 104.55 119.83 L 104.59 118.63 L 105.40 118.14 C 106.28 116.98 107.12 115.78 107.86 114.52 L 108.66 114.26 C 108.59 113.76 108.45 112.76 108.38 112.27 L 109.88 112.50 C 109.71 111.98 109.37 110.95 109.21 110.43 L 110.50 110.56 C 110.53 109.80 110.59 108.29 110.62 107.53 L 111.51 107.60 C 111.56 106.39 111.62 105.18 111.69 103.97 C 112.72 101.82 112.58 99.39 112.63 97.07 C 112.59 78.39 112.66 59.71 112.60 41.03 C 112.67 38.06 111.78 35.21 111.30 32.31 L 110.53 32.77 C 110.53 31.93 110.54 30.24 110.54 29.39 L 109.17 29.60 C 109.35 29.08 109.72 28.04 109.90 27.52 L 108.38 27.74 C 108.45 27.24 108.61 26.25 108.68 25.75 L 107.86 25.50 C 107.12 24.24 106.29 23.03 105.39 21.88 C 105.16 21.48 104.69 20.68 104.46 20.28 L 103.33 20.70 L 103.65 19.13 L 102.10 19.67 L 102.80 18.45 C 102.37 18.27 101.50 17.91 101.07 17.73 C 100.06 16.84 99.02 15.99 97.97 15.15 C 97.29 14.91 95.95 14.42 95.27 14.17 L 95.38 13.09 C 94.90 13.27 93.94 13.64 93.46 13.82 L 93.52 12.43 C 92.69 12.45 91.02 12.48 90.19 12.49 L 90.71 11.52 C 89.45 11.45 88.20 11.37 86.94 11.29 C 85.07 10.47 83.02 10.35 81.01 10.37 C 66.31 10.38 51.62 10.38 36.93 10.37 C 34.97 10.35 32.99 10.49 31.18 11.28 Z" />
<path fill="#000000" opacity="1.00" d=" M 32.12 11.54 C 50.04 11.64 67.96 11.73 85.87 11.50 L 85.19 12.16 C 87.73 12.41 90.20 13.03 92.66 13.69 L 92.57 14.56 C 92.92 14.53 93.62 14.47 93.97 14.43 C 94.63 14.77 95.94 15.46 96.60 15.80 L 96.61 16.67 C 97.14 16.59 98.19 16.42 98.72 16.33 L 98.27 17.96 L 99.69 17.12 L 99.51 17.96 C 101.44 19.54 103.19 21.31 105.02 22.99 C 105.16 23.46 105.44 24.39 105.58 24.85 L 106.68 24.29 C 106.59 24.82 106.42 25.87 106.33 26.40 L 107.20 26.39 C 107.54 27.05 108.22 28.36 108.56 29.02 C 108.53 29.37 108.47 30.07 108.44 30.41 L 109.33 30.36 C 109.85 32.47 110.44 34.57 110.77 36.73 L 111.45 36.15 C 111.33 58.37 111.33 80.58 111.45 102.80 L 110.68 102.37 C 110.57 104.06 110.45 105.75 110.34 107.45 L 109.23 107.55 C 109.32 107.89 109.50 108.58 109.59 108.93 C 108.72 110.43 107.92 111.97 107.19 113.55 L 106.35 113.61 C 106.42 114.14 106.57 115.19 106.65 115.72 L 105.01 115.28 L 105.90 116.71 L 105.04 116.52 C 103.43 118.58 101.57 120.43 99.51 122.04 L 99.69 122.89 L 98.26 122.04 L 98.72 123.66 C 98.19 123.58 97.13 123.42 96.60 123.34 L 96.60 124.33 C 95.96 124.53 94.69 124.93 94.06 125.13 C 93.53 125.54 92.49 126.36 91.97 126.76 C 91.56 126.53 90.74 126.06 90.33 125.83 L 90.96 127.35 C 89.04 127.44 87.12 127.56 85.20 127.67 L 85.88 128.46 C 67.63 128.32 49.38 128.34 31.14 128.45 L 31.77 127.75 C 28.06 127.46 24.75 125.71 21.40 124.26 L 21.40 123.34 C 20.87 123.42 19.80 123.59 19.27 123.67 L 19.86 122.51 C 19.40 122.39 18.48 122.17 18.01 122.06 C 16.34 120.21 14.56 118.45 12.96 116.53 L 12.13 116.73 L 12.97 115.29 L 11.36 115.72 C 11.43 115.19 11.58 114.13 11.65 113.60 L 10.83 113.55 C 10.07 111.94 9.23 110.38 8.35 108.84 C 8.53 108.47 8.89 107.72 9.07 107.35 L 7.65 107.95 C 7.55 106.08 7.45 104.22 7.33 102.36 L 6.53 102.82 C 6.66 80.94 6.70 59.06 6.51 37.18 L 7.17 37.66 C 7.24 33.59 9.17 30.00 10.76 26.38 L 11.66 26.42 C 11.57 25.89 11.41 24.83 11.33 24.30 L 12.45 24.79 C 12.59 24.35 12.88 23.45 13.02 23.01 C 14.82 21.30 16.56 19.53 18.48 17.95 L 18.32 17.10 L 19.75 17.96 L 19.28 16.33 C 19.81 16.42 20.86 16.59 21.38 16.68 L 21.41 15.79 C 22.07 15.45 23.38 14.78 24.04 14.44 C 24.38 14.47 25.07 14.52 25.42 14.55 L 25.49 13.27 C 25.83 13.33 26.51 13.43 26.85 13.49 C 28.71 12.62 30.76 12.42 32.78 12.19 L 32.12 11.54 M 60.34 27.13 C 56.35 31.11 52.33 35.08 48.38 39.11 C 50.13 41.00 52.50 41.53 55.00 41.36 C 55.00 43.34 55.00 45.32 55.00 47.30 C 53.08 47.31 51.16 47.32 49.25 47.34 C 49.18 44.90 48.20 42.66 46.93 40.61 C 42.81 44.55 38.85 48.65 34.79 52.66 C 38.77 56.61 42.71 60.60 46.70 64.53 C 47.47 63.66 48.24 62.79 49.00 61.92 C 49.00 60.62 49.00 59.31 49.00 58.00 C 51.00 58.00 53.00 58.00 55.00 58.00 C 55.00 59.96 55.00 61.91 55.00 63.87 C 52.51 63.71 50.17 64.35 48.35 66.11 C 52.27 70.23 56.36 74.18 60.37 78.21 C 64.26 74.29 68.15 70.37 72.09 66.50 C 71.79 66.09 71.19 65.26 70.90 64.85 C 69.18 64.39 67.45 64.00 65.70 63.75 C 65.72 61.83 65.73 59.91 65.73 58.00 C 67.70 58.00 69.66 58.00 71.63 58.00 C 71.43 60.50 72.00 62.87 73.90 64.62 C 77.93 60.66 81.90 56.64 85.89 52.65 C 81.97 48.73 78.05 44.80 74.12 40.88 C 73.72 41.20 72.92 41.83 72.51 42.15 C 72.09 43.87 71.73 45.60 71.49 47.35 C 69.57 47.32 67.65 47.30 65.73 47.29 C 65.73 45.35 65.72 43.42 65.71 41.49 C 67.42 41.22 69.12 40.89 70.81 40.51 C 71.14 40.11 71.78 39.30 72.10 38.90 C 68.20 34.96 64.29 31.02 60.34 27.13 Z" />
<path fill="#000000" opacity="1.00" d=" M 60.33 30.94 C 62.89 33.50 65.46 36.05 68.02 38.61 C 66.35 38.60 64.67 38.60 63.00 38.60 C 63.00 42.40 63.00 46.20 63.00 50.00 C 66.81 50.00 70.62 50.00 74.43 50.00 C 74.43 48.34 74.42 46.68 74.41 45.02 C 76.96 47.56 79.51 50.10 82.07 52.62 C 79.56 55.21 77.01 57.77 74.39 60.25 C 74.40 58.61 74.41 56.97 74.42 55.33 C 70.62 55.30 66.81 55.31 63.00 55.31 C 63.00 59.12 63.00 62.94 63.00 66.75 C 64.66 66.75 66.32 66.75 67.98 66.76 C 65.45 69.30 62.90 71.84 60.36 74.38 C 57.80 71.85 55.25 69.30 52.72 66.74 C 54.37 66.73 56.02 66.74 57.67 66.74 C 57.66 62.94 57.67 59.13 57.65 55.32 C 53.86 55.31 50.07 55.31 46.29 55.31 C 46.28 56.97 46.27 58.63 46.26 60.29 C 43.71 57.75 41.16 55.21 38.62 52.66 C 41.18 50.12 43.72 47.56 46.28 45.02 C 46.28 46.68 46.27 48.34 46.27 50.00 C 50.07 50.00 53.86 50.00 57.66 50.00 C 57.66 46.20 57.66 42.39 57.66 38.59 C 56.01 38.61 54.37 38.63 52.73 38.65 C 55.22 36.03 57.80 33.51 60.33 30.94 Z" />
</g>
<g id="#f1f6f5ff">
<path fill="#f1f6f5" opacity="1.00" d=" M 31.18 11.28 C 32.99 10.49 34.97 10.35 36.93 10.37 C 51.62 10.38 66.31 10.38 81.01 10.37 C 83.02 10.35 85.07 10.47 86.94 11.29 C 88.20 11.37 89.45 11.45 90.71 11.52 L 90.19 12.49 C 91.02 12.48 92.69 12.45 93.52 12.43 L 93.46 13.82 C 93.94 13.64 94.90 13.27 95.38 13.09 L 95.27 14.17 C 95.95 14.42 97.29 14.91 97.97 15.15 C 99.02 15.99 100.06 16.84 101.07 17.73 C 101.50 17.91 102.37 18.27 102.80 18.45 L 102.10 19.67 L 103.65 19.13 L 103.33 20.70 L 104.46 20.28 C 104.69 20.68 105.16 21.48 105.39 21.88 C 106.29 23.03 107.12 24.24 107.86 25.50 L 108.68 25.75 C 108.61 26.25 108.45 27.24 108.38 27.74 L 109.90 27.52 C 109.72 28.04 109.35 29.08 109.17 29.60 L 110.54 29.39 C 110.54 30.24 110.53 31.93 110.53 32.77 L 111.30 32.31 C 111.78 35.21 112.67 38.06 112.60 41.03 C 112.66 59.71 112.59 78.39 112.63 97.07 C 112.58 99.39 112.72 101.82 111.69 103.97 C 111.62 105.18 111.56 106.39 111.51 107.60 L 110.62 107.53 C 110.59 108.29 110.53 109.80 110.50 110.56 L 109.21 110.43 C 109.37 110.95 109.71 111.98 109.88 112.50 L 108.38 112.27 C 108.45 112.76 108.59 113.76 108.66 114.26 L 107.86 114.52 C 107.12 115.78 106.28 116.98 105.40 118.14 L 104.59 118.63 L 104.55 119.83 L 103.29 119.07 L 103.91 120.63 L 102.30 120.34 L 102.71 121.45 C 102.31 121.67 101.50 122.12 101.10 122.35 C 100.07 123.20 98.98 123.99 97.84 124.69 C 96.85 125.35 95.86 126.03 94.88 126.72 C 94.52 126.58 93.82 126.30 93.46 126.16 L 93.58 127.27 C 91.38 127.90 89.19 128.53 86.95 128.99 C 84.34 129.67 81.62 129.62 78.95 129.63 C 64.63 129.59 50.30 129.65 35.98 129.61 C 33.02 129.65 30.18 128.76 27.28 128.32 L 27.81 127.53 C 26.96 127.53 25.26 127.53 24.40 127.54 L 24.60 126.18 C 24.08 126.36 23.04 126.72 22.52 126.90 L 22.74 125.38 C 22.24 125.46 21.24 125.60 20.75 125.68 L 20.49 124.87 C 19.24 124.12 18.04 123.29 16.91 122.37 C 16.50 122.13 15.69 121.64 15.29 121.39 L 15.71 120.31 L 14.13 120.67 L 14.68 119.10 L 13.41 119.80 C 13.23 119.38 12.88 118.52 12.70 118.10 C 11.84 117.08 11.02 116.04 10.20 115.00 C 9.95 114.32 9.44 112.96 9.19 112.28 L 8.05 112.34 C 8.25 111.88 8.67 110.98 8.87 110.53 L 7.72 110.53 C 6.68 106.74 5.30 102.96 5.39 98.98 C 5.35 80.32 5.41 61.67 5.37 43.01 C 5.37 40.43 5.35 37.78 6.30 35.33 C 6.36 34.54 6.49 32.97 6.56 32.19 L 7.16 32.91 C 7.28 31.42 7.74 30.06 8.55 28.84 C 8.42 28.55 8.15 27.96 8.02 27.67 L 9.19 27.74 C 9.42 27.06 9.89 25.70 10.12 25.01 C 10.99 24.01 11.86 23.01 12.70 21.99 C 12.95 21.57 13.44 20.74 13.69 20.32 L 14.69 20.64 L 14.38 19.09 L 15.94 19.70 L 15.22 18.59 C 15.66 18.39 16.52 17.98 16.96 17.78 C 17.96 16.89 18.97 16.00 20.00 15.14 C 20.69 14.90 22.07 14.42 22.76 14.18 L 22.63 13.04 C 23.10 13.25 24.03 13.66 24.50 13.87 L 24.47 12.47 C 25.25 12.47 26.83 12.48 27.61 12.48 L 27.43 11.51 C 28.68 11.44 29.93 11.36 31.18 11.28 M 32.12 11.54 L 32.78 12.19 C 30.76 12.42 28.71 12.62 26.85 13.49 C 26.51 13.43 25.83 13.33 25.49 13.27 L 25.42 14.55 C 25.07 14.52 24.38 14.47 24.04 14.44 C 23.38 14.78 22.07 15.45 21.41 15.79 L 21.38 16.68 C 20.86 16.59 19.81 16.42 19.28 16.33 L 19.75 17.96 L 18.32 17.10 L 18.48 17.95 C 16.56 19.53 14.82 21.30 13.02 23.01 C 12.88 23.45 12.59 24.35 12.45 24.79 L 11.33 24.30 C 11.41 24.83 11.57 25.89 11.66 26.42 L 10.76 26.38 C 9.17 30.00 7.24 33.59 7.17 37.66 L 6.51 37.18 C 6.70 59.06 6.66 80.94 6.53 102.82 L 7.33 102.36 C 7.45 104.22 7.55 106.08 7.65 107.95 L 9.07 107.35 C 8.89 107.72 8.53 108.47 8.35 108.84 C 9.23 110.38 10.07 111.94 10.83 113.55 L 11.65 113.60 C 11.58 114.13 11.43 115.19 11.36 115.72 L 12.97 115.29 L 12.13 116.73 L 12.96 116.53 C 14.56 118.45 16.34 120.21 18.01 122.06 C 18.48 122.17 19.40 122.39 19.86 122.51 L 19.27 123.67 C 19.80 123.59 20.87 123.42 21.40 123.34 L 21.40 124.26 C 24.75 125.71 28.06 127.46 31.77 127.75 L 31.14 128.45 C 49.38 128.34 67.63 128.32 85.88 128.46 L 85.20 127.67 C 87.12 127.56 89.04 127.44 90.96 127.35 L 90.33 125.83 C 90.74 126.06 91.56 126.53 91.97 126.76 C 92.49 126.36 93.53 125.54 94.06 125.13 C 94.69 124.93 95.96 124.53 96.60 124.33 L 96.60 123.34 C 97.13 123.42 98.19 123.58 98.72 123.66 L 98.26 122.04 L 99.69 122.89 L 99.51 122.04 C 101.57 120.43 103.43 118.58 105.04 116.52 L 105.90 116.71 L 105.01 115.28 L 106.65 115.72 C 106.57 115.19 106.42 114.14 106.35 113.61 L 107.19 113.55 C 107.92 111.97 108.72 110.43 109.59 108.93 C 109.50 108.58 109.32 107.89 109.23 107.55 L 110.34 107.45 C 110.45 105.75 110.57 104.06 110.68 102.37 L 111.45 102.80 C 111.33 80.58 111.33 58.37 111.45 36.15 L 110.77 36.73 C 110.44 34.57 109.85 32.47 109.33 30.36 L 108.44 30.41 C 108.47 30.07 108.53 29.37 108.56 29.02 C 108.22 28.36 107.54 27.05 107.20 26.39 L 106.33 26.40 C 106.42 25.87 106.59 24.82 106.68 24.29 L 105.58 24.85 C 105.44 24.39 105.16 23.46 105.02 22.99 C 103.19 21.31 101.44 19.54 99.51 17.96 L 99.69 17.12 L 98.27 17.96 L 98.72 16.33 C 98.19 16.42 97.14 16.59 96.61 16.67 L 96.60 15.80 C 95.94 15.46 94.63 14.77 93.97 14.43 C 93.62 14.47 92.92 14.53 92.57 14.56 L 92.66 13.69 C 90.20 13.03 87.73 12.41 85.19 12.16 L 85.87 11.50 C 67.96 11.73 50.04 11.64 32.12 11.54 Z" />
<path fill="#f1f6f5" opacity="1.00" d=" M 60.34 27.13 C 64.29 31.02 68.20 34.96 72.10 38.90 C 71.78 39.30 71.14 40.11 70.81 40.51 C 69.12 40.89 67.42 41.22 65.71 41.49 C 65.72 43.42 65.73 45.35 65.73 47.29 C 67.65 47.30 69.57 47.32 71.49 47.35 C 71.73 45.60 72.09 43.87 72.51 42.15 C 72.92 41.83 73.72 41.20 74.12 40.88 C 78.05 44.80 81.97 48.73 85.89 52.65 C 81.90 56.64 77.93 60.66 73.90 64.62 C 72.00 62.87 71.43 60.50 71.63 58.00 C 69.66 58.00 67.70 58.00 65.73 58.00 C 65.73 59.91 65.72 61.83 65.70 63.75 C 67.45 64.00 69.18 64.39 70.90 64.85 C 71.19 65.26 71.79 66.09 72.09 66.50 C 68.15 70.37 64.26 74.29 60.37 78.21 C 56.36 74.18 52.27 70.23 48.35 66.11 C 50.17 64.35 52.51 63.71 55.00 63.87 C 55.00 61.91 55.00 59.96 55.00 58.00 C 53.00 58.00 51.00 58.00 49.00 58.00 C 49.00 59.31 49.00 60.62 49.00 61.92 C 48.24 62.79 47.47 63.66 46.70 64.53 C 42.71 60.60 38.77 56.61 34.79 52.66 C 38.85 48.65 42.81 44.55 46.93 40.61 C 48.20 42.66 49.18 44.90 49.25 47.34 C 51.16 47.32 53.08 47.31 55.00 47.30 C 55.00 45.32 55.00 43.34 55.00 41.36 C 52.50 41.53 50.13 41.00 48.38 39.11 C 52.33 35.08 56.35 31.11 60.34 27.13 M 60.33 30.94 C 57.80 33.51 55.22 36.03 52.73 38.65 C 54.37 38.63 56.01 38.61 57.66 38.59 C 57.66 42.39 57.66 46.20 57.66 50.00 C 53.86 50.00 50.07 50.00 46.27 50.00 C 46.27 48.34 46.28 46.68 46.28 45.02 C 43.72 47.56 41.18 50.12 38.62 52.66 C 41.16 55.21 43.71 57.75 46.26 60.29 C 46.27 58.63 46.28 56.97 46.29 55.31 C 50.07 55.31 53.86 55.31 57.65 55.32 C 57.67 59.13 57.66 62.94 57.67 66.74 C 56.02 66.74 54.37 66.73 52.72 66.74 C 55.25 69.30 57.80 71.85 60.36 74.38 C 62.90 71.84 65.45 69.30 67.98 66.76 C 66.32 66.75 64.66 66.75 63.00 66.75 C 63.00 62.94 63.00 59.12 63.00 55.31 C 66.81 55.31 70.62 55.30 74.42 55.33 C 74.41 56.97 74.40 58.61 74.39 60.25 C 77.01 57.77 79.56 55.21 82.07 52.62 C 79.51 50.10 76.96 47.56 74.41 45.02 C 74.42 46.68 74.43 48.34 74.43 50.00 C 70.62 50.00 66.81 50.00 63.00 50.00 C 63.00 46.20 63.00 42.40 63.00 38.60 C 64.67 38.60 66.35 38.60 68.02 38.61 C 65.46 36.05 62.89 33.50 60.33 30.94 Z" />
</g>
</svg>
