<?xml version="1.0" encoding="UTF-8" ?>
<!DOCTYPE svg PUBLIC "-//W3C//DTD SVG 1.1//EN" "http://www.w3.org/Graphics/SVG/1.1/DTD/svg11.dtd">
<svg width="50px" height="50px" viewBox="0 0 50 50" version="1.1" xmlns="http://www.w3.org/2000/svg">
<g id="#000000ff">
<path fill="#000000" opacity="1.00" d=" M 0.00 0.00 L 11.13 0.00 C 11.06 5.89 11.11 11.78 11.10 17.67 C 8.77 17.69 6.43 17.67 4.10 17.71 C 4.42 22.53 3.67 27.45 4.55 32.21 C 7.17 34.79 11.22 33.33 14.49 33.63 C 17.49 36.50 20.41 39.46 23.41 42.33 C 19.73 42.32 16.04 42.31 12.35 42.34 C 12.37 44.89 12.39 47.45 12.36 50.00 L 0.00 50.00 L 0.00 0.00 Z" />
<path fill="#000000" opacity="1.00" d=" M 37.78 0.00 L 50.00 0.00 L 50.00 50.00 L 36.95 50.00 C 36.69 49.46 36.16 48.38 35.89 47.84 C 28.96 47.42 22.00 47.84 15.06 47.64 C 15.04 47.01 14.99 45.76 14.97 45.13 C 18.49 44.97 22.02 44.93 25.54 44.96 C 26.04 39.82 31.43 37.46 34.31 33.71 C 37.64 33.30 41.77 34.81 44.45 32.20 C 45.33 27.44 44.58 22.53 44.90 17.71 C 42.57 17.67 40.24 17.69 37.91 17.67 C 37.82 11.78 38.08 5.88 37.78 0.00 Z" />
<path fill="#000000" opacity="1.00" d=" M 13.76 3.06 C 20.92 2.87 28.08 3.15 35.24 2.95 C 35.24 8.72 35.35 14.51 35.15 20.28 C 37.42 20.30 39.68 20.33 41.94 20.33 C 41.93 23.86 41.93 27.39 41.96 30.92 C 30.32 31.07 18.68 31.08 7.04 30.91 C 7.06 27.38 7.07 23.84 7.08 20.30 C 13.79 20.32 20.51 20.32 27.22 20.32 C 27.22 19.66 27.22 18.34 27.22 17.68 C 22.73 17.68 18.24 17.67 13.75 17.70 C 13.74 15.91 13.73 14.13 13.71 12.36 C 18.21 12.29 22.72 12.33 27.22 12.32 C 27.22 11.66 27.22 10.34 27.22 9.68 C 22.72 9.68 18.21 9.68 13.71 9.68 C 13.74 7.47 13.74 5.26 13.76 3.06 M 22.77 23.44 C 25.70 24.44 23.65 28.14 24.99 30.30 C 26.04 27.55 25.57 24.57 25.61 21.71 C 24.65 22.26 23.70 22.84 22.77 23.44 Z" />
<path fill="#000000" opacity="1.00" d=" M 18.18 33.71 C 22.39 33.66 26.61 33.65 30.82 33.71 C 28.67 35.70 26.56 37.74 24.49 39.82 C 22.43 37.73 20.33 35.69 18.18 33.71 Z" />
</g>
<g id="#f8fcf8ff">
<path fill="#f8fcf8" opacity="1.00" d=" M 11.13 0.00 L 37.78 0.00 C 38.08 5.88 37.82 11.78 37.91 17.67 C 40.24 17.69 42.57 17.67 44.90 17.71 C 44.58 22.53 45.33 27.44 44.45 32.20 C 41.77 34.81 37.64 33.30 34.31 33.71 C 31.43 37.46 26.04 39.82 25.54 44.96 C 22.02 44.93 18.49 44.97 14.97 45.13 C 14.99 45.76 15.04 47.01 15.06 47.64 C 22.00 47.84 28.96 47.42 35.89 47.84 C 36.16 48.38 36.69 49.46 36.95 50.00 L 12.36 50.00 C 12.39 47.45 12.37 44.89 12.35 42.34 C 16.04 42.31 19.73 42.32 23.41 42.33 C 20.41 39.46 17.49 36.50 14.49 33.63 C 11.22 33.33 7.17 34.79 4.55 32.21 C 3.67 27.45 4.42 22.53 4.10 17.71 C 6.43 17.67 8.77 17.69 11.10 17.67 C 11.11 11.78 11.06 5.89 11.13 0.00 M 13.76 3.06 C 13.74 5.26 13.74 7.47 13.71 9.68 C 18.21 9.68 22.72 9.68 27.22 9.68 C 27.22 10.34 27.22 11.66 27.22 12.32 C 22.72 12.33 18.21 12.29 13.71 12.36 C 13.73 14.13 13.74 15.91 13.75 17.70 C 18.24 17.67 22.73 17.68 27.22 17.68 C 27.22 18.34 27.22 19.66 27.22 20.32 C 20.51 20.32 13.79 20.32 7.08 20.30 C 7.07 23.84 7.06 27.38 7.04 30.91 C 18.68 31.08 30.32 31.07 41.96 30.92 C 41.93 27.39 41.93 23.86 41.94 20.33 C 39.68 20.33 37.42 20.30 35.15 20.28 C 35.35 14.51 35.24 8.72 35.24 2.95 C 28.08 3.15 20.92 2.87 13.76 3.06 M 18.18 33.71 C 20.33 35.69 22.43 37.73 24.49 39.82 C 26.56 37.74 28.67 35.70 30.82 33.71 C 26.61 33.65 22.39 33.66 18.18 33.71 Z" />
<path fill="#f8fcf8" opacity="1.00" d=" M 22.77 23.44 C 23.70 22.84 24.65 22.26 25.61 21.71 C 25.57 24.57 26.04 27.55 24.99 30.30 C 23.65 28.14 25.70 24.44 22.77 23.44 Z" />
</g>
</svg>
