<?xml version="1.0" encoding="UTF-8" ?>
<!DOCTYPE svg PUBLIC "-//W3C//DTD SVG 1.1//EN" "http://www.w3.org/Graphics/SVG/1.1/DTD/svg11.dtd">
<svg width="18px" height="14px" viewBox="0 0 18 14" version="1.1" xmlns="http://www.w3.org/2000/svg">
<g id="#000000ff">
<path fill="#000000" opacity="1.00" d=" M 0.00 0.00 L 18.00 0.00 L 18.00 2.88 C 17.46 2.40 16.38 1.44 15.84 0.96 C 12.61 3.97 9.35 6.95 6.12 9.97 C 4.83 8.72 3.41 7.59 2.14 6.32 C 1.60 6.82 0.53 7.84 0.00 8.34 L 0.00 0.00 Z" />
<path fill="#000000" opacity="1.00" d=" M 6.13 14.00 C 10.11 10.36 14.09 6.71 18.00 2.99 L 18.00 14.00 L 6.13 14.00 Z" />
<path fill="#000000" opacity="1.00" d=" M 0.00 8.65 C 2.21 10.22 4.06 12.21 6.07 14.00 L 0.00 14.00 L 0.00 8.65 Z" />
</g>
<g id="#e0e000ff">
<path fill="#e0e000" opacity="1.00" d=" M 6.12 9.97 C 9.35 6.95 12.61 3.97 15.84 0.96 C 16.38 1.44 17.46 2.40 18.00 2.88 L 18.00 2.99 C 14.09 6.71 10.11 10.36 6.13 14.00 L 6.07 14.00 C 4.06 12.21 2.21 10.22 0.00 8.65 L 0.00 8.34 C 0.53 7.84 1.60 6.82 2.14 6.32 C 3.41 7.59 4.83 8.72 6.12 9.97 Z" />
</g>
</svg>
