<?xml version="1.0" encoding="UTF-8" ?>
<!DOCTYPE svg PUBLIC "-//W3C//DTD SVG 1.1//EN" "http://www.w3.org/Graphics/SVG/1.1/DTD/svg11.dtd">
<svg width="32px" height="21px" viewBox="0 0 32 21" version="1.1" xmlns="http://www.w3.org/2000/svg">
<g id="#e0e000ff">
<path fill="#e0e000" opacity="1.00" d=" M 0.00 0.00 L 10.29 0.00 C 6.82 3.44 3.41 6.94 0.00 10.44 L 0.00 0.00 Z" />
<path fill="#e0e000" opacity="1.00" d=" M 31.00 0.00 L 32.00 0.00 L 32.00 21.00 L 31.00 21.00 C 31.00 14.00 31.00 7.00 31.00 0.00 Z" />
<path fill="#e0e000" opacity="1.00" d=" M 11.17 2.02 C 17.11 1.98 23.06 2.00 29.00 2.00 C 29.00 7.67 29.00 13.33 29.00 19.00 C 23.05 18.99 17.11 19.02 11.17 18.98 C 8.42 16.10 5.49 13.39 2.86 10.39 C 5.68 7.65 8.40 4.81 11.17 2.02 M 13.43 6.11 C 14.88 7.58 16.29 9.09 17.75 10.54 C 16.27 11.95 14.85 13.41 13.43 14.89 C 13.80 15.25 14.54 15.97 14.91 16.33 C 16.33 14.86 17.78 13.43 19.21 11.98 C 20.66 13.54 22.15 15.09 23.83 16.41 C 26.11 13.96 21.78 12.40 20.63 10.48 C 22.09 9.07 23.49 7.59 24.91 6.13 C 24.55 5.77 23.81 5.03 23.45 4.67 C 22.05 6.14 20.62 7.58 19.20 9.02 C 17.77 7.57 16.33 6.14 14.91 4.68 C 14.54 5.04 13.80 5.75 13.43 6.11 Z" />
<path fill="#e0e000" opacity="1.00" d=" M 0.00 10.55 C 3.41 14.05 6.82 17.55 10.29 21.00 L 0.00 21.00 L 0.00 10.55 Z" />
</g>
<g id="#000000ff">
<path fill="#000000" opacity="1.00" d=" M 10.29 0.00 L 31.00 0.00 C 31.00 7.00 31.00 14.00 31.00 21.00 L 10.29 21.00 C 6.82 17.55 3.41 14.05 0.00 10.55 L 0.00 10.44 C 3.41 6.94 6.82 3.44 10.29 0.00 M 11.17 2.02 C 8.40 4.81 5.68 7.65 2.86 10.39 C 5.49 13.39 8.42 16.10 11.17 18.98 C 17.11 19.02 23.05 18.99 29.00 19.00 C 29.00 13.33 29.00 7.67 29.00 2.00 C 23.06 2.00 17.11 1.98 11.17 2.02 Z" />
<path fill="#000000" opacity="1.00" d=" M 13.43 6.11 C 13.80 5.75 14.54 5.04 14.91 4.68 C 16.33 6.14 17.77 7.57 19.20 9.02 C 20.62 7.58 22.05 6.14 23.45 4.67 C 23.81 5.03 24.55 5.77 24.91 6.13 C 23.49 7.59 22.09 9.07 20.63 10.48 C 21.78 12.40 26.11 13.96 23.83 16.41 C 22.15 15.09 20.66 13.54 19.21 11.98 C 17.78 13.43 16.33 14.86 14.91 16.33 C 14.54 15.97 13.80 15.25 13.43 14.89 C 14.85 13.41 16.27 11.95 17.75 10.54 C 16.29 9.09 14.88 7.58 13.43 6.11 Z" />
</g>
</svg>
