<?xml version="1.0" encoding="UTF-8" ?>
<!DOCTYPE svg PUBLIC "-//W3C//DTD SVG 1.1//EN" "http://www.w3.org/Graphics/SVG/1.1/DTD/svg11.dtd">
<svg width="117px" height="140px" viewBox="0 0 117 140" version="1.1" xmlns="http://www.w3.org/2000/svg">
<g id="#000000ff">
<path fill="#000000" opacity="1.00" d=" M 0.00 0.00 L 117.00 0.00 L 117.00 140.00 L 0.00 140.00 L 0.00 0.00 M 31.27 11.27 C 29.90 11.37 28.54 11.47 27.17 11.56 L 28.00 12.45 C 27.12 12.45 25.36 12.47 24.48 12.48 L 24.53 13.85 C 24.06 13.66 23.12 13.29 22.65 13.10 L 22.64 14.66 C 22.17 14.57 21.22 14.39 20.75 14.30 L 20.56 15.12 C 19.15 15.98 17.78 16.92 16.38 17.81 L 16.71 18.77 L 15.14 18.20 L 15.96 19.92 L 14.44 18.95 L 14.67 20.64 L 13.00 20.46 L 14.02 21.78 L 12.82 21.35 C 11.93 22.77 10.98 24.15 10.12 25.59 L 9.29 25.73 C 9.38 26.20 9.57 27.15 9.67 27.62 L 8.12 27.65 C 8.30 28.12 8.65 29.06 8.83 29.53 L 7.74 29.49 C 6.70 33.26 5.34 37.02 5.40 40.98 C 5.38 60.32 5.38 79.67 5.40 99.02 C 5.34 102.96 6.70 106.71 7.71 110.47 L 8.79 110.47 C 8.63 110.94 8.31 111.89 8.15 112.36 L 9.69 112.39 C 9.59 112.86 9.40 113.79 9.30 114.25 L 10.15 114.46 C 11.00 115.87 11.92 117.23 12.80 118.63 L 13.74 118.31 L 13.33 119.77 L 14.96 119.31 L 13.98 120.76 L 15.68 120.16 L 15.20 121.74 L 16.60 121.14 L 16.39 122.22 C 17.78 123.10 19.15 124.01 20.56 124.86 L 20.74 125.70 C 21.22 125.61 22.16 125.43 22.64 125.34 L 22.63 126.88 C 23.11 126.71 24.05 126.35 24.53 126.17 L 24.50 127.26 C 28.27 128.31 32.04 129.65 36.01 129.60 C 50.67 129.63 65.33 129.58 79.99 129.62 C 82.27 129.60 84.63 129.70 86.75 128.72 C 88.08 128.63 89.42 128.56 90.76 128.49 L 90.08 127.54 C 90.94 127.54 92.66 127.54 93.52 127.54 L 93.47 126.14 C 93.94 126.33 94.88 126.72 95.35 126.91 L 95.36 125.34 C 95.83 125.43 96.78 125.61 97.25 125.70 L 97.47 124.85 C 98.87 123.99 100.23 123.07 101.63 122.20 L 101.40 121.09 L 102.79 121.77 L 102.34 120.16 L 104.02 120.76 L 103.04 119.29 L 104.68 119.81 L 104.24 118.33 L 105.21 118.63 C 106.08 117.24 106.99 115.89 107.84 114.49 L 108.69 114.26 C 108.60 113.79 108.42 112.85 108.33 112.39 L 109.87 112.36 C 109.70 111.89 109.36 110.95 109.19 110.48 L 110.28 110.49 C 111.30 106.72 112.67 102.96 112.59 99.00 C 112.62 79.66 112.62 60.32 112.59 40.99 C 112.66 37.03 111.30 33.26 110.27 29.49 L 109.15 29.51 C 109.34 29.04 109.72 28.11 109.91 27.65 L 108.34 27.64 C 108.43 27.17 108.61 26.23 108.70 25.75 L 107.85 25.54 C 107.00 24.13 106.07 22.77 105.20 21.38 L 104.07 21.64 L 104.86 20.29 L 103.23 20.70 L 103.84 19.28 L 102.32 19.69 L 102.63 18.09 L 101.41 18.96 L 101.63 17.80 C 100.24 16.92 98.89 16.01 97.49 15.16 L 97.23 14.30 C 96.77 14.39 95.84 14.57 95.38 14.66 L 95.35 13.11 C 94.87 13.30 93.93 13.66 93.46 13.84 L 93.52 12.47 C 92.67 12.47 90.97 12.47 90.11 12.47 L 90.74 11.44 C 89.22 11.44 87.70 11.44 86.18 11.45 L 86.71 10.60 C 71.16 10.14 55.59 10.52 40.03 10.38 C 37.11 10.45 34.03 10.06 31.27 11.27 Z" />
<path fill="#000000" opacity="1.00" d=" M 25.83 13.64 C 28.81 12.83 31.75 11.57 34.89 11.60 C 50.94 11.61 66.99 11.62 83.04 11.60 C 86.20 11.59 89.18 12.82 92.18 13.65 C 93.66 14.34 95.13 15.05 96.61 15.75 L 96.70 16.70 C 97.20 16.57 98.20 16.33 98.69 16.20 L 98.13 17.77 L 99.12 17.26 C 101.35 19.40 103.51 21.61 105.68 23.81 L 105.37 24.83 L 106.96 24.41 L 106.21 26.18 C 106.47 26.24 106.98 26.37 107.23 26.44 C 108.00 28.01 108.80 29.57 109.61 31.11 L 109.17 32.56 C 109.43 32.47 109.95 32.28 110.21 32.19 C 110.42 33.75 110.68 35.31 111.32 36.76 C 111.44 58.92 111.43 81.08 111.32 103.24 C 110.66 104.70 110.42 106.28 110.23 107.86 C 110.12 107.74 109.90 107.52 109.79 107.40 C 109.21 109.54 108.33 111.58 107.29 113.53 L 106.33 113.75 C 106.44 114.23 106.67 115.21 106.78 115.70 L 105.20 115.10 L 105.74 116.09 C 103.47 118.56 101.11 120.96 98.40 122.94 L 98.63 123.84 C 98.16 123.70 97.20 123.41 96.72 123.27 L 96.63 124.24 C 95.15 124.94 93.68 125.65 92.20 126.35 C 88.87 127.28 85.56 128.66 82.03 128.41 C 65.28 128.32 48.52 128.50 31.76 128.32 C 30.32 127.67 28.76 127.41 27.21 127.22 C 27.29 126.94 27.44 126.38 27.51 126.10 L 26.08 126.61 C 24.60 125.77 23.08 124.98 21.53 124.25 C 21.43 124.00 21.23 123.48 21.13 123.23 L 19.40 123.97 L 19.66 122.96 C 16.91 121.03 14.58 118.59 12.31 116.13 L 12.74 115.13 L 11.22 115.70 C 11.33 115.21 11.56 114.23 11.67 113.74 L 10.77 113.52 C 10.02 111.98 9.22 110.46 8.41 108.96 C 8.50 108.53 8.68 107.67 8.77 107.25 L 7.82 107.99 C 7.60 106.37 7.35 104.75 6.68 103.24 C 6.56 81.09 6.56 58.93 6.68 36.77 C 7.35 35.28 7.60 33.66 7.81 32.06 L 8.75 32.72 C 8.66 32.30 8.50 31.47 8.42 31.06 C 9.22 29.51 10.03 27.96 10.79 26.38 L 11.72 26.30 C 11.58 25.80 11.31 24.82 11.17 24.32 L 12.69 24.86 L 12.32 23.85 C 14.60 21.39 16.93 18.95 19.69 17.02 L 19.34 16.07 C 19.83 16.25 20.82 16.61 21.31 16.80 L 21.27 15.81 C 22.79 15.09 24.31 14.36 25.83 13.64 M 38.65 41.56 C 35.98 43.62 33.21 45.57 30.77 47.90 C 28.98 49.69 29.23 53.06 31.26 54.58 C 33.59 56.67 36.12 58.51 38.61 60.40 C 40.69 62.35 43.56 61.00 46.00 60.89 C 46.00 58.26 46.00 55.63 46.00 53.00 C 48.00 53.00 50.00 53.00 52.00 53.00 C 52.00 52.25 52.00 50.75 52.00 50.00 C 50.00 50.00 48.00 50.00 46.00 50.00 C 46.00 47.04 46.00 44.07 46.00 41.11 C 43.58 41.00 40.72 39.64 38.65 41.56 M 71.00 41.03 C 71.00 44.02 71.00 47.01 71.00 50.00 C 68.67 50.00 66.33 50.00 64.00 50.00 C 64.00 50.75 64.00 52.25 64.00 53.00 C 66.33 53.00 68.67 53.00 71.00 53.00 C 71.00 55.65 71.00 58.30 71.00 60.95 C 72.84 61.10 74.91 62.10 76.62 60.92 C 79.40 58.94 82.13 56.88 84.68 54.63 C 86.99 52.97 87.01 49.08 84.72 47.41 C 82.14 45.13 79.38 43.04 76.57 41.04 C 74.86 39.92 72.83 40.89 71.00 41.03 M 53.00 50.00 C 53.00 50.75 53.00 52.25 53.00 53.00 C 53.75 53.00 55.25 53.00 56.00 53.00 C 56.00 52.25 56.00 50.75 56.00 50.00 C 55.25 50.00 53.75 50.00 53.00 50.00 M 57.00 50.00 C 57.00 50.75 57.00 52.25 57.00 53.00 C 59.00 53.00 61.00 53.00 63.00 53.00 C 63.00 52.25 63.00 50.75 63.00 50.00 C 61.00 50.00 59.00 50.00 57.00 50.00 Z" />
<path fill="#000000" opacity="1.00" d=" M 33.01 51.00 C 36.01 48.67 39.01 46.35 42.00 44.01 C 42.00 48.66 42.00 53.32 42.00 57.97 C 39.00 55.65 36.00 53.33 33.01 51.00 Z" />
<path fill="#000000" opacity="1.00" d=" M 75.00 44.81 C 77.66 46.87 80.33 48.93 82.99 51.00 C 80.33 53.07 77.66 55.13 75.00 57.19 C 75.00 53.06 75.00 48.94 75.00 44.81 Z" />
</g>
<g id="#f6fbf7ff">
<path fill="#f6fbf7" opacity="1.00" d=" M 31.27 11.27 C 34.03 10.06 37.11 10.45 40.03 10.38 C 55.59 10.52 71.16 10.14 86.71 10.60 L 86.18 11.45 C 87.70 11.44 89.22 11.44 90.74 11.44 L 90.11 12.47 C 90.97 12.47 92.67 12.47 93.52 12.47 L 93.46 13.84 C 93.93 13.66 94.87 13.30 95.35 13.11 L 95.38 14.66 C 95.84 14.57 96.77 14.39 97.23 14.30 L 97.49 15.16 C 98.89 16.01 100.24 16.92 101.63 17.80 L 101.41 18.96 L 102.63 18.09 L 102.32 19.69 L 103.84 19.28 L 103.23 20.70 L 104.86 20.29 L 104.07 21.64 L 105.20 21.38 C 106.07 22.77 107.00 24.13 107.85 25.54 L 108.70 25.75 C 108.61 26.23 108.43 27.17 108.34 27.64 L 109.91 27.65 C 109.72 28.11 109.34 29.04 109.15 29.51 L 110.27 29.49 C 111.30 33.26 112.66 37.03 112.59 40.99 C 112.62 60.32 112.62 79.66 112.59 99.00 C 112.67 102.96 111.30 106.72 110.28 110.49 L 109.19 110.48 C 109.36 110.95 109.70 111.89 109.87 112.36 L 108.33 112.39 C 108.42 112.85 108.60 113.79 108.69 114.26 L 107.84 114.49 C 106.99 115.89 106.08 117.24 105.21 118.63 L 104.24 118.33 L 104.68 119.81 L 103.04 119.29 L 104.02 120.76 L 102.34 120.16 L 102.79 121.77 L 101.40 121.09 L 101.63 122.20 C 100.23 123.07 98.87 123.99 97.47 124.85 L 97.25 125.70 C 96.78 125.61 95.83 125.43 95.36 125.34 L 95.35 126.91 C 94.88 126.72 93.94 126.33 93.47 126.14 L 93.52 127.54 C 92.66 127.54 90.94 127.54 90.08 127.54 L 90.76 128.49 C 89.42 128.56 88.08 128.63 86.75 128.72 C 84.63 129.70 82.27 129.60 79.99 129.62 C 65.33 129.58 50.67 129.63 36.01 129.60 C 32.04 129.65 28.27 128.31 24.50 127.26 L 24.53 126.17 C 24.05 126.35 23.11 126.71 22.63 126.88 L 22.64 125.34 C 22.16 125.43 21.22 125.61 20.74 125.70 L 20.56 124.86 C 19.15 124.01 17.78 123.10 16.39 122.22 L 16.60 121.14 L 15.20 121.74 L 15.68 120.16 L 13.98 120.76 L 14.96 119.31 L 13.33 119.77 L 13.74 118.31 L 12.80 118.63 C 11.92 117.23 11.00 115.87 10.15 114.46 L 9.30 114.25 C 9.40 113.79 9.59 112.86 9.69 112.39 L 8.15 112.36 C 8.31 111.89 8.63 110.94 8.79 110.47 L 7.71 110.47 C 6.70 106.71 5.34 102.96 5.40 99.02 C 5.38 79.67 5.38 60.32 5.40 40.98 C 5.34 37.02 6.70 33.26 7.74 29.49 L 8.83 29.53 C 8.65 29.06 8.30 28.12 8.12 27.65 L 9.67 27.62 C 9.57 27.15 9.38 26.20 9.29 25.73 L 10.12 25.59 C 10.98 24.15 11.93 22.77 12.82 21.35 L 14.02 21.78 L 13.00 20.46 L 14.67 20.64 L 14.44 18.95 L 15.96 19.92 L 15.14 18.20 L 16.71 18.77 L 16.38 17.81 C 17.78 16.92 19.15 15.98 20.56 15.12 L 20.75 14.30 C 21.22 14.39 22.17 14.57 22.64 14.66 L 22.65 13.10 C 23.12 13.29 24.06 13.66 24.53 13.85 L 24.48 12.48 C 25.36 12.47 27.12 12.45 28.00 12.45 L 27.17 11.56 C 28.54 11.47 29.90 11.37 31.27 11.27 M 25.83 13.64 C 24.31 14.36 22.79 15.09 21.27 15.81 L 21.31 16.80 C 20.82 16.61 19.83 16.25 19.34 16.07 L 19.69 17.02 C 16.93 18.95 14.60 21.39 12.32 23.85 L 12.69 24.86 L 11.17 24.32 C 11.31 24.82 11.58 25.80 11.72 26.30 L 10.79 26.38 C 10.03 27.96 9.22 29.51 8.42 31.06 C 8.50 31.47 8.66 32.30 8.75 32.72 L 7.81 32.06 C 7.60 33.66 7.35 35.28 6.68 36.77 C 6.56 58.93 6.56 81.09 6.68 103.24 C 7.35 104.75 7.60 106.37 7.82 107.99 L 8.77 107.25 C 8.68 107.67 8.50 108.53 8.41 108.96 C 9.22 110.46 10.02 111.98 10.77 113.52 L 11.67 113.74 C 11.56 114.23 11.33 115.21 11.22 115.70 L 12.74 115.13 L 12.31 116.13 C 14.58 118.59 16.91 121.03 19.66 122.96 L 19.40 123.97 L 21.13 123.23 C 21.23 123.48 21.43 124.00 21.53 124.25 C 23.08 124.98 24.60 125.77 26.08 126.61 L 27.51 126.10 C 27.44 126.38 27.29 126.94 27.21 127.22 C 28.76 127.41 30.32 127.67 31.76 128.32 C 48.52 128.50 65.28 128.32 82.03 128.41 C 85.56 128.66 88.87 127.28 92.20 126.35 C 93.68 125.65 95.15 124.94 96.63 124.24 L 96.72 123.27 C 97.20 123.41 98.16 123.70 98.63 123.84 L 98.40 122.94 C 101.11 120.96 103.47 118.56 105.74 116.09 L 105.20 115.10 L 106.78 115.70 C 106.67 115.21 106.44 114.23 106.33 113.75 L 107.29 113.53 C 108.33 111.58 109.21 109.54 109.79 107.40 C 109.90 107.52 110.12 107.74 110.23 107.86 C 110.42 106.28 110.66 104.70 111.32 103.24 C 111.43 81.08 111.44 58.92 111.32 36.76 C 110.68 35.31 110.42 33.75 110.21 32.19 C 109.95 32.28 109.43 32.47 109.17 32.56 L 109.61 31.11 C 108.80 29.57 108.00 28.01 107.23 26.44 C 106.98 26.37 106.47 26.24 106.21 26.18 L 106.96 24.41 L 105.37 24.83 L 105.68 23.81 C 103.51 21.61 101.35 19.40 99.12 17.26 L 98.13 17.77 L 98.69 16.20 C 98.20 16.33 97.20 16.57 96.70 16.70 L 96.61 15.75 C 95.13 15.05 93.66 14.34 92.18 13.65 C 89.18 12.82 86.20 11.59 83.04 11.60 C 66.99 11.62 50.94 11.61 34.89 11.60 C 31.75 11.57 28.81 12.83 25.83 13.64 Z" />
<path fill="#f6fbf7" opacity="1.00" d=" M 38.65 41.56 C 40.72 39.64 43.58 41.00 46.00 41.11 C 46.00 44.07 46.00 47.04 46.00 50.00 C 48.00 50.00 50.00 50.00 52.00 50.00 C 52.00 50.75 52.00 52.25 52.00 53.00 C 50.00 53.00 48.00 53.00 46.00 53.00 C 46.00 55.63 46.00 58.26 46.00 60.89 C 43.56 61.00 40.69 62.35 38.61 60.40 C 36.12 58.51 33.59 56.67 31.26 54.58 C 29.23 53.06 28.98 49.69 30.77 47.90 C 33.21 45.57 35.98 43.62 38.65 41.56 M 33.01 51.00 C 36.00 53.33 39.00 55.65 42.00 57.97 C 42.00 53.32 42.00 48.66 42.00 44.01 C 39.01 46.35 36.01 48.67 33.01 51.00 Z" />
<path fill="#f6fbf7" opacity="1.00" d=" M 71.00 41.03 C 72.83 40.89 74.86 39.92 76.57 41.04 C 79.38 43.04 82.14 45.13 84.72 47.41 C 87.01 49.08 86.99 52.97 84.68 54.63 C 82.13 56.88 79.40 58.94 76.62 60.92 C 74.91 62.10 72.84 61.10 71.00 60.95 C 71.00 58.30 71.00 55.65 71.00 53.00 C 68.67 53.00 66.33 53.00 64.00 53.00 C 64.00 52.25 64.00 50.75 64.00 50.00 C 66.33 50.00 68.67 50.00 71.00 50.00 C 71.00 47.01 71.00 44.02 71.00 41.03 M 75.00 44.81 C 75.00 48.94 75.00 53.06 75.00 57.19 C 77.66 55.13 80.33 53.07 82.99 51.00 C 80.33 48.93 77.66 46.87 75.00 44.81 Z" />
<path fill="#f6fbf7" opacity="1.00" d=" M 53.00 50.00 C 53.75 50.00 55.25 50.00 56.00 50.00 C 56.00 50.75 56.00 52.25 56.00 53.00 C 55.25 53.00 53.75 53.00 53.00 53.00 C 53.00 52.25 53.00 50.75 53.00 50.00 Z" />
<path fill="#f6fbf7" opacity="1.00" d=" M 57.00 50.00 C 59.00 50.00 61.00 50.00 63.00 50.00 C 63.00 50.75 63.00 52.25 63.00 53.00 C 61.00 53.00 59.00 53.00 57.00 53.00 C 57.00 52.25 57.00 50.75 57.00 50.00 Z" />
</g>
</svg>
