<?xml version="1.0" encoding="UTF-8" ?>
<!DOCTYPE svg PUBLIC "-//W3C//DTD SVG 1.1//EN" "http://www.w3.org/Graphics/SVG/1.1/DTD/svg11.dtd">
<svg width="117px" height="140px" viewBox="0 0 117 140" version="1.1" xmlns="http://www.w3.org/2000/svg">
<g id="#000000ff">
<path fill="#000000" opacity="1.00" d=" M 0.00 0.00 L 117.00 0.00 L 117.00 140.00 L 0.00 140.00 L 0.00 0.00 M 31.32 10.59 L 31.77 11.48 C 30.24 11.46 28.71 11.45 27.19 11.45 L 27.97 12.47 C 27.09 12.47 25.34 12.47 24.47 12.47 L 24.56 13.80 C 24.08 13.64 23.13 13.31 22.65 13.15 L 22.61 14.67 C 22.14 14.58 21.20 14.38 20.73 14.29 L 20.55 15.28 C 17.78 16.91 14.01 18.25 13.26 21.77 L 12.85 21.32 C 11.94 22.71 10.94 24.05 10.24 25.57 L 9.29 25.73 C 9.38 26.21 9.57 27.15 9.66 27.62 L 8.10 27.66 C 8.29 28.13 8.67 29.06 8.85 29.53 L 7.47 29.47 C 7.46 30.35 7.46 32.12 7.46 33.00 L 6.45 32.15 C 6.46 33.07 6.48 34.91 6.49 35.84 L 5.70 35.46 C 5.25 41.30 5.41 47.15 5.39 53.00 C 5.56 70.16 5.03 87.33 5.69 104.47 L 6.38 104.29 C 6.37 106.42 7.16 108.41 7.64 110.45 L 8.77 110.46 C 8.62 110.92 8.33 111.86 8.18 112.32 L 9.79 112.50 L 9.22 114.16 C 9.49 114.25 10.02 114.41 10.29 114.49 C 10.96 115.97 11.93 117.28 12.84 118.61 L 13.94 118.38 L 13.06 119.78 L 14.81 119.07 L 14.04 120.64 L 15.62 120.28 L 15.43 121.94 L 16.69 121.04 L 16.39 122.17 C 17.77 123.08 19.12 124.04 20.59 124.81 L 20.73 125.72 C 21.20 125.62 22.15 125.42 22.62 125.33 L 22.64 126.87 C 23.11 126.70 24.06 126.36 24.53 126.19 L 24.50 127.33 C 28.29 128.22 32.00 129.70 35.96 129.59 C 50.97 129.63 65.98 129.59 80.99 129.62 C 82.86 129.55 84.86 129.73 86.54 128.70 C 87.94 128.62 89.35 128.57 90.76 128.52 L 90.07 127.54 C 90.94 127.54 92.66 127.53 93.53 127.53 L 93.47 126.15 C 93.94 126.34 94.88 126.71 95.34 126.90 L 95.38 125.36 C 95.86 125.44 96.82 125.61 97.30 125.70 L 97.42 124.78 C 98.88 124.05 100.22 123.11 101.58 122.21 L 101.32 121.75 C 104.76 120.88 106.10 117.23 107.72 114.47 C 107.99 114.40 108.52 114.25 108.78 114.17 L 108.21 112.50 L 109.82 112.34 C 109.67 111.87 109.38 110.93 109.23 110.46 L 110.34 110.48 C 111.35 106.38 112.86 102.33 112.61 98.04 C 112.44 77.23 112.97 56.40 112.32 35.60 L 111.52 35.59 C 111.52 34.73 111.53 33.02 111.53 32.17 L 110.54 32.97 C 110.54 32.10 110.54 30.35 110.54 29.47 L 109.15 29.53 C 109.34 29.06 109.71 28.12 109.90 27.65 L 108.34 27.62 C 108.43 27.15 108.62 26.21 108.71 25.74 L 107.75 25.56 C 107.02 24.07 106.08 22.71 105.15 21.35 L 104.10 21.81 L 104.96 20.35 L 103.24 20.76 L 103.92 19.41 L 102.27 19.61 L 102.67 18.05 L 101.34 18.96 L 101.53 17.81 C 100.21 16.87 98.90 15.93 97.45 15.23 L 97.25 14.28 C 96.79 14.38 95.86 14.57 95.40 14.67 L 95.34 13.13 C 94.87 13.30 93.93 13.65 93.46 13.83 L 93.54 12.47 C 92.65 12.47 90.87 12.45 89.99 12.45 L 90.84 11.46 C 89.29 11.45 87.74 11.46 86.20 11.47 L 86.70 10.59 C 68.25 10.26 49.77 10.27 31.32 10.59 Z" />
<path fill="#000000" opacity="1.00" d=" M 25.41 13.59 C 28.65 13.13 31.65 11.44 34.98 11.60 C 51.00 11.61 67.02 11.62 83.04 11.60 C 86.21 11.50 89.15 12.91 92.19 13.61 C 93.59 14.48 95.12 15.11 96.68 15.64 L 96.70 16.73 C 97.19 16.59 98.17 16.29 98.66 16.15 L 98.26 17.18 C 101.35 18.97 104.06 21.64 105.82 24.76 L 106.82 24.32 C 106.69 24.82 106.42 25.81 106.29 26.30 L 107.39 26.32 C 107.92 27.64 108.41 28.97 108.74 30.36 L 109.40 30.42 C 109.70 32.05 110.21 33.63 110.70 35.22 C 111.53 36.69 111.42 38.38 111.42 40.00 C 111.30 61.10 111.52 82.21 111.31 103.31 C 110.53 104.73 110.41 106.35 110.27 107.93 L 109.15 107.36 C 109.32 107.86 109.66 108.85 109.83 109.35 C 109.48 109.47 108.77 109.70 108.41 109.82 L 108.59 111.05 C 108.27 111.67 107.62 112.90 107.30 113.52 L 106.31 113.74 C 106.43 114.22 106.68 115.17 106.80 115.65 L 105.80 115.35 C 104.26 118.31 101.26 120.16 99.22 122.75 L 98.13 122.34 L 98.69 123.84 C 98.19 123.70 97.19 123.41 96.69 123.27 L 96.75 124.35 C 95.40 124.88 94.06 125.44 92.65 125.77 L 92.58 126.39 C 90.21 127.02 87.84 127.64 85.39 127.79 L 85.77 128.50 C 67.71 128.19 49.63 128.58 31.57 128.30 C 30.17 127.62 28.69 127.28 27.11 127.28 L 27.60 126.14 C 27.18 126.28 26.34 126.55 25.92 126.68 C 24.89 125.95 23.87 125.23 22.84 124.51 L 21.59 124.77 C 21.49 124.40 21.30 123.65 21.20 123.27 L 19.52 123.89 L 19.72 122.42 L 18.72 122.63 C 16.60 120.10 13.59 118.32 12.16 115.24 L 11.15 115.69 C 11.29 115.20 11.57 114.22 11.71 113.74 L 10.59 113.61 C 10.10 111.97 9.59 110.21 8.26 109.02 C 8.42 108.62 8.73 107.81 8.88 107.41 L 7.72 107.89 C 7.73 106.34 7.39 104.88 6.72 103.52 C 6.46 82.00 6.69 60.47 6.60 38.95 C 6.41 35.95 8.37 33.38 8.56 30.43 C 8.73 30.40 9.08 30.35 9.26 30.33 C 9.69 29.05 10.13 27.78 10.57 26.50 C 10.86 26.43 11.43 26.28 11.72 26.21 L 11.16 24.41 L 12.24 24.63 C 13.04 23.32 13.92 22.07 14.82 20.83 C 16.72 19.99 17.74 18.00 19.64 17.19 L 19.35 16.20 C 19.84 16.32 20.80 16.57 21.28 16.69 L 21.42 15.56 C 22.71 15.10 24.00 14.64 25.32 14.25 L 25.41 13.59 M 38.47 41.44 C 35.74 44.13 30.95 45.70 30.53 50.03 C 31.00 54.32 35.75 55.88 38.49 58.57 C 40.43 60.67 43.32 60.80 45.89 59.95 C 46.64 57.36 47.12 54.71 47.09 52.00 C 49.06 52.00 51.03 52.00 53.00 52.00 C 53.00 51.25 53.00 49.75 53.00 49.00 C 51.01 49.00 49.03 49.00 47.04 49.00 C 47.19 45.96 46.77 42.96 45.91 40.05 C 43.31 39.18 40.43 39.28 38.47 41.44 M 72.95 39.77 C 70.94 42.44 70.83 45.80 70.96 49.00 C 68.97 49.00 66.99 49.00 65.00 49.00 C 65.00 49.75 65.00 51.25 65.00 52.00 C 66.97 52.00 68.95 52.00 70.92 52.00 C 70.78 55.35 71.13 60.78 75.74 60.59 C 79.20 59.59 81.62 56.62 84.55 54.65 C 86.95 53.19 88.44 49.90 86.64 47.39 C 84.25 44.71 81.11 42.82 78.34 40.55 C 76.87 39.12 74.76 39.55 72.95 39.77 M 54.00 49.00 C 54.00 49.75 54.00 51.25 54.00 52.00 C 54.75 52.00 56.25 52.00 57.00 52.00 C 57.00 51.25 57.00 49.75 57.00 49.00 C 56.25 49.00 54.75 49.00 54.00 49.00 M 58.00 49.00 C 58.00 49.75 58.00 51.25 58.00 52.00 C 60.00 52.00 62.00 52.00 64.00 52.00 C 64.00 51.25 64.00 49.75 64.00 49.00 C 62.00 49.00 60.00 49.00 58.00 49.00 Z" />
<path fill="#000000" opacity="1.00" d=" M 34.01 50.00 C 37.01 47.67 40.01 45.35 43.00 43.01 C 43.00 47.66 43.00 52.31 43.00 56.97 C 40.00 54.65 37.00 52.33 34.01 50.00 Z" />
<path fill="#000000" opacity="1.00" d=" M 76.00 43.81 C 78.67 45.87 81.33 47.93 83.99 50.00 C 81.33 52.07 78.67 54.13 76.00 56.19 C 76.00 52.06 76.00 47.94 76.00 43.81 Z" />
</g>
<g id="#f6fbf7ff">
<path fill="#f6fbf7" opacity="1.00" d=" M 31.32 10.59 C 49.77 10.27 68.25 10.26 86.70 10.59 L 86.20 11.47 C 87.74 11.46 89.29 11.45 90.84 11.46 L 89.99 12.45 C 90.87 12.45 92.65 12.47 93.54 12.47 L 93.46 13.83 C 93.93 13.65 94.87 13.30 95.34 13.13 L 95.40 14.67 C 95.86 14.57 96.79 14.38 97.25 14.28 L 97.45 15.23 C 98.90 15.93 100.21 16.87 101.53 17.81 L 101.34 18.96 L 102.67 18.05 L 102.27 19.61 L 103.92 19.41 L 103.24 20.76 L 104.96 20.35 L 104.10 21.81 L 105.15 21.35 C 106.08 22.71 107.02 24.07 107.75 25.56 L 108.71 25.74 C 108.62 26.21 108.43 27.15 108.34 27.62 L 109.90 27.65 C 109.71 28.12 109.34 29.06 109.15 29.53 L 110.54 29.47 C 110.54 30.35 110.54 32.10 110.54 32.97 L 111.53 32.17 C 111.53 33.02 111.52 34.73 111.52 35.59 L 112.32 35.60 C 112.97 56.40 112.44 77.23 112.61 98.04 C 112.86 102.33 111.35 106.38 110.34 110.48 L 109.23 110.46 C 109.38 110.93 109.67 111.87 109.82 112.34 L 108.21 112.50 L 108.78 114.17 C 108.52 114.25 107.99 114.40 107.72 114.47 C 106.10 117.23 104.76 120.88 101.32 121.75 L 101.58 122.21 C 100.22 123.11 98.88 124.05 97.42 124.78 L 97.30 125.70 C 96.82 125.61 95.86 125.44 95.38 125.36 L 95.34 126.90 C 94.88 126.71 93.94 126.34 93.47 126.15 L 93.53 127.53 C 92.66 127.53 90.94 127.54 90.07 127.54 L 90.76 128.52 C 89.35 128.57 87.94 128.62 86.54 128.70 C 84.86 129.73 82.86 129.55 80.99 129.62 C 65.98 129.59 50.97 129.63 35.96 129.59 C 32.00 129.70 28.29 128.22 24.50 127.33 L 24.53 126.19 C 24.06 126.36 23.11 126.70 22.64 126.87 L 22.62 125.33 C 22.15 125.42 21.20 125.62 20.73 125.72 L 20.59 124.81 C 19.12 124.04 17.77 123.08 16.39 122.17 L 16.69 121.04 L 15.43 121.94 L 15.62 120.28 L 14.04 120.64 L 14.81 119.07 L 13.06 119.78 L 13.94 118.38 L 12.84 118.61 C 11.93 117.28 10.96 115.97 10.29 114.49 C 10.02 114.41 9.49 114.25 9.22 114.16 L 9.79 112.50 L 8.18 112.32 C 8.33 111.86 8.62 110.92 8.77 110.46 L 7.64 110.45 C 7.16 108.41 6.37 106.42 6.38 104.29 L 5.69 104.47 C 5.03 87.33 5.56 70.16 5.39 53.00 C 5.41 47.15 5.25 41.30 5.70 35.46 L 6.49 35.84 C 6.48 34.91 6.46 33.07 6.45 32.15 L 7.46 33.00 C 7.46 32.12 7.46 30.35 7.47 29.47 L 8.85 29.53 C 8.67 29.06 8.29 28.13 8.10 27.66 L 9.66 27.62 C 9.57 27.15 9.38 26.21 9.29 25.73 L 10.24 25.57 C 10.94 24.05 11.94 22.71 12.85 21.32 L 13.26 21.77 C 14.01 18.25 17.78 16.91 20.55 15.28 L 20.73 14.29 C 21.20 14.38 22.14 14.58 22.61 14.67 L 22.65 13.15 C 23.13 13.31 24.08 13.64 24.56 13.80 L 24.47 12.47 C 25.34 12.47 27.09 12.47 27.97 12.47 L 27.19 11.45 C 28.71 11.45 30.24 11.46 31.77 11.48 L 31.32 10.59 M 25.41 13.59 L 25.32 14.25 C 24.00 14.64 22.71 15.10 21.42 15.56 L 21.28 16.69 C 20.80 16.57 19.84 16.32 19.35 16.20 L 19.64 17.19 C 17.74 18.00 16.72 19.99 14.82 20.83 C 13.92 22.07 13.04 23.32 12.24 24.63 L 11.16 24.41 L 11.72 26.21 C 11.43 26.28 10.86 26.43 10.57 26.50 C 10.13 27.78 9.69 29.05 9.26 30.33 C 9.08 30.35 8.73 30.40 8.56 30.43 C 8.37 33.38 6.41 35.95 6.60 38.95 C 6.69 60.47 6.46 82.00 6.72 103.52 C 7.39 104.88 7.73 106.34 7.72 107.89 L 8.88 107.41 C 8.73 107.81 8.42 108.62 8.26 109.02 C 9.59 110.21 10.10 111.97 10.59 113.61 L 11.71 113.74 C 11.57 114.22 11.29 115.20 11.15 115.69 L 12.16 115.24 C 13.59 118.32 16.60 120.10 18.72 122.63 L 19.72 122.42 L 19.52 123.89 L 21.20 123.27 C 21.30 123.65 21.49 124.40 21.59 124.77 L 22.84 124.51 C 23.87 125.23 24.89 125.95 25.92 126.68 C 26.34 126.55 27.18 126.28 27.60 126.14 L 27.11 127.28 C 28.69 127.28 30.17 127.62 31.57 128.30 C 49.63 128.58 67.71 128.19 85.77 128.50 L 85.39 127.79 C 87.84 127.64 90.21 127.02 92.58 126.39 L 92.65 125.77 C 94.06 125.44 95.40 124.88 96.75 124.35 L 96.69 123.27 C 97.19 123.41 98.19 123.70 98.69 123.84 L 98.13 122.34 L 99.22 122.75 C 101.26 120.16 104.26 118.31 105.80 115.35 L 106.80 115.65 C 106.68 115.17 106.43 114.22 106.31 113.74 L 107.30 113.52 C 107.62 112.90 108.27 111.67 108.59 111.05 L 108.41 109.82 C 108.77 109.70 109.48 109.47 109.83 109.35 C 109.66 108.85 109.32 107.86 109.15 107.36 L 110.27 107.93 C 110.41 106.35 110.53 104.73 111.31 103.31 C 111.52 82.21 111.30 61.10 111.42 40.00 C 111.42 38.38 111.53 36.69 110.70 35.22 C 110.21 33.63 109.70 32.05 109.40 30.42 L 108.74 30.36 C 108.41 28.97 107.92 27.64 107.39 26.32 L 106.29 26.30 C 106.42 25.81 106.69 24.82 106.82 24.32 L 105.82 24.76 C 104.06 21.64 101.35 18.97 98.26 17.18 L 98.66 16.15 C 98.17 16.29 97.19 16.59 96.70 16.73 L 96.68 15.64 C 95.12 15.11 93.59 14.48 92.19 13.61 C 89.15 12.91 86.21 11.50 83.04 11.60 C 67.02 11.62 51.00 11.61 34.98 11.60 C 31.65 11.44 28.65 13.13 25.41 13.59 Z" />
<path fill="#f6fbf7" opacity="1.00" d=" M 38.47 41.44 C 40.43 39.28 43.31 39.18 45.91 40.05 C 46.77 42.96 47.19 45.96 47.04 49.00 C 49.03 49.00 51.01 49.00 53.00 49.00 C 53.00 49.75 53.00 51.25 53.00 52.00 C 51.03 52.00 49.06 52.00 47.09 52.00 C 47.12 54.71 46.64 57.36 45.89 59.95 C 43.32 60.80 40.43 60.67 38.49 58.57 C 35.75 55.88 31.00 54.32 30.53 50.03 C 30.95 45.70 35.74 44.13 38.47 41.44 M 34.01 50.00 C 37.00 52.33 40.00 54.65 43.00 56.97 C 43.00 52.31 43.00 47.66 43.00 43.01 C 40.01 45.35 37.01 47.67 34.01 50.00 Z" />
<path fill="#f6fbf7" opacity="1.00" d=" M 72.95 39.77 C 74.76 39.55 76.87 39.12 78.34 40.55 C 81.11 42.82 84.25 44.71 86.64 47.39 C 88.44 49.90 86.95 53.19 84.55 54.65 C 81.62 56.62 79.20 59.59 75.74 60.59 C 71.13 60.78 70.78 55.35 70.92 52.00 C 68.95 52.00 66.97 52.00 65.00 52.00 C 65.00 51.25 65.00 49.75 65.00 49.00 C 66.99 49.00 68.97 49.00 70.96 49.00 C 70.83 45.80 70.94 42.44 72.95 39.77 M 76.00 43.81 C 76.00 47.94 76.00 52.06 76.00 56.19 C 78.67 54.13 81.33 52.07 83.99 50.00 C 81.33 47.93 78.67 45.87 76.00 43.81 Z" />
<path fill="#f6fbf7" opacity="1.00" d=" M 54.00 49.00 C 54.75 49.00 56.25 49.00 57.00 49.00 C 57.00 49.75 57.00 51.25 57.00 52.00 C 56.25 52.00 54.75 52.00 54.00 52.00 C 54.00 51.25 54.00 49.75 54.00 49.00 Z" />
<path fill="#f6fbf7" opacity="1.00" d=" M 58.00 49.00 C 60.00 49.00 62.00 49.00 64.00 49.00 C 64.00 49.75 64.00 51.25 64.00 52.00 C 62.00 52.00 60.00 52.00 58.00 52.00 C 58.00 51.25 58.00 49.75 58.00 49.00 Z" />
</g>
</svg>
