<?xml version="1.0" encoding="UTF-8" ?>
<!DOCTYPE svg PUBLIC "-//W3C//DTD SVG 1.1//EN" "http://www.w3.org/Graphics/SVG/1.1/DTD/svg11.dtd">
<svg width="117px" height="140px" viewBox="0 0 117 140" version="1.1" xmlns="http://www.w3.org/2000/svg">
<g id="#000000ff">
<path fill="#000000" opacity="1.00" d=" M 0.00 0.00 L 117.00 0.00 L 117.00 140.00 L 0.00 140.00 L 0.00 0.00 M 27.58 11.43 C 26.57 11.93 25.56 12.43 24.55 12.90 L 24.50 13.84 C 24.04 13.66 23.12 13.29 22.66 13.10 L 22.63 14.65 C 22.15 14.57 21.20 14.40 20.72 14.31 L 20.57 15.19 C 19.10 15.96 17.74 16.92 16.37 17.84 L 16.60 18.90 L 15.45 18.15 L 15.58 19.62 L 14.10 19.40 L 14.84 20.43 L 13.48 20.45 L 13.56 21.75 L 12.84 21.32 C 11.93 22.73 10.99 24.11 10.18 25.57 L 9.32 25.70 C 9.40 26.19 9.55 27.16 9.63 27.65 L 8.05 27.66 C 8.27 28.13 8.70 29.05 8.91 29.51 L 7.79 29.40 C 6.74 31.56 6.28 33.92 5.39 36.14 L 5.35 36.88 C 5.59 59.19 5.10 81.51 5.60 103.82 C 5.83 103.64 6.29 103.28 6.52 103.10 C 6.47 104.67 6.43 106.23 6.40 107.80 L 7.45 107.03 C 7.45 107.91 7.45 109.68 7.46 110.57 L 8.83 110.41 C 8.66 110.88 8.32 111.84 8.15 112.31 L 9.85 112.54 L 9.18 114.14 C 9.43 114.22 9.94 114.38 10.19 114.46 C 10.99 115.91 11.93 117.28 12.84 118.66 L 13.95 118.41 L 13.10 119.69 L 14.78 119.24 L 14.12 120.81 L 15.66 120.15 L 15.23 121.74 L 16.62 121.11 L 16.35 122.10 C 18.97 123.93 21.56 126.01 24.72 126.84 L 24.40 127.53 C 25.28 127.53 27.06 127.54 27.95 127.54 L 27.20 128.34 C 30.48 128.78 33.68 129.76 37.02 129.62 C 52.01 129.59 67.00 129.64 81.99 129.59 C 84.86 129.73 87.53 128.32 90.40 128.58 C 91.43 128.08 92.46 127.58 93.50 127.10 L 93.28 126.73 C 93.93 126.55 95.24 126.19 95.89 126.01 C 96.38 125.69 97.37 125.05 97.86 124.73 C 99.05 123.95 100.19 123.08 101.23 122.10 C 101.61 121.92 102.38 121.54 102.76 121.35 L 102.34 120.26 L 103.94 120.67 L 103.17 119.17 L 104.94 119.72 L 104.03 118.45 L 105.08 118.59 C 106.44 116.59 108.39 114.81 108.76 112.30 L 109.85 112.41 C 109.69 111.91 109.36 110.92 109.19 110.42 L 110.21 110.59 C 110.93 108.87 111.90 107.19 111.60 105.23 L 112.67 105.55 C 112.46 83.69 112.75 61.81 112.54 39.95 C 111.98 36.57 112.13 32.84 110.18 29.88 C 109.49 28.50 108.85 27.10 108.26 25.67 L 107.84 25.57 C 107.02 24.11 106.07 22.74 105.16 21.34 L 104.20 21.63 L 104.78 20.27 L 103.89 20.42 C 103.06 19.45 102.16 18.54 101.25 17.65 C 100.07 16.84 98.95 15.96 97.83 15.08 C 97.20 14.86 95.94 14.43 95.31 14.22 L 95.33 13.06 C 94.87 13.27 93.95 13.69 93.49 13.90 L 93.60 12.81 C 91.04 11.03 87.85 11.84 85.14 10.59 C 69.10 10.13 53.04 10.53 37.00 10.38 C 33.78 10.09 30.78 11.67 27.58 11.43 Z" />
<path fill="#000000" opacity="1.00" d=" M 32.97 11.62 C 50.55 11.52 68.13 11.76 85.71 11.50 C 85.64 11.72 85.49 12.16 85.41 12.38 C 86.55 12.43 88.82 12.53 89.96 12.58 C 90.03 12.94 90.19 13.68 90.26 14.05 L 92.36 13.01 L 92.56 14.52 C 92.95 14.49 93.75 14.42 94.14 14.39 C 94.61 14.76 95.53 15.51 96.00 15.88 C 96.62 16.07 97.86 16.45 98.48 16.64 L 98.32 17.73 L 99.68 17.29 L 99.47 18.01 C 101.62 19.51 103.50 21.38 104.99 23.54 L 105.90 23.44 L 105.12 24.95 L 106.62 24.18 C 106.56 24.75 106.44 25.88 106.38 26.44 L 107.30 26.41 C 107.74 28.01 108.56 29.47 109.34 30.93 C 109.49 32.92 110.36 34.75 110.81 36.69 L 111.47 36.16 C 111.32 58.08 111.39 80.01 111.43 101.93 L 110.29 101.43 C 110.87 104.12 109.76 106.59 109.31 109.18 C 108.50 110.59 107.72 112.02 107.30 113.60 L 106.39 113.55 C 106.45 114.12 106.56 115.26 106.61 115.83 L 105.10 115.09 L 105.89 116.60 L 104.97 116.47 C 103.51 118.64 101.64 120.50 99.47 121.96 L 99.69 122.76 L 98.28 122.20 L 98.55 123.31 C 97.94 123.54 96.71 123.99 96.09 124.22 C 95.60 124.48 94.61 125.02 94.12 125.28 C 93.67 125.56 92.77 126.11 92.32 126.39 C 90.01 126.97 87.68 127.52 85.45 128.36 C 67.33 128.48 49.21 128.28 31.09 128.46 L 31.81 127.72 C 29.60 127.47 27.47 126.86 25.32 126.35 L 25.47 125.50 C 25.09 125.50 24.34 125.51 23.97 125.51 C 23.33 125.19 22.06 124.55 21.43 124.23 L 21.44 123.39 C 20.88 123.45 19.77 123.57 19.21 123.63 L 19.91 122.01 L 18.43 122.99 L 18.56 122.00 C 16.38 120.51 14.50 118.62 13.01 116.44 L 12.02 116.52 L 12.93 115.05 L 11.32 115.79 C 11.40 115.23 11.57 114.13 11.65 113.58 L 10.60 113.59 C 10.16 112.24 9.66 110.91 9.24 109.56 L 8.65 109.66 C 8.01 107.24 7.40 104.80 7.16 102.31 L 6.50 102.87 C 6.74 82.92 6.55 62.96 6.59 43.00 C 6.76 41.24 6.03 39.17 7.34 37.72 L 7.53 37.03 C 7.44 34.73 8.19 32.55 8.64 30.33 L 9.52 30.41 C 9.52 30.05 9.52 29.32 9.51 28.95 C 9.83 28.32 10.46 27.05 10.77 26.42 L 11.62 26.47 C 11.55 25.91 11.42 24.78 11.35 24.22 L 12.90 24.90 L 12.05 23.41 L 13.01 23.58 C 14.49 21.39 16.38 19.50 18.56 17.99 L 18.42 17.05 L 19.93 17.92 L 19.19 16.36 C 19.75 16.43 20.87 16.57 21.43 16.64 L 21.37 15.67 C 22.01 15.47 23.28 15.07 23.91 14.87 C 24.35 14.54 25.23 13.88 25.67 13.55 C 28.12 13.00 30.59 12.48 32.97 11.62 M 48.23 31.44 C 49.56 34.85 50.90 38.25 52.18 41.67 C 56.48 39.49 61.54 39.53 65.85 41.67 C 67.09 38.23 68.45 34.83 69.77 31.42 C 63.01 28.24 54.96 28.17 48.23 31.44 M 37.79 44.90 C 37.36 46.28 36.93 47.66 36.49 49.04 C 36.27 50.66 36.08 52.29 35.91 53.92 C 36.37 53.67 37.28 53.16 37.74 52.91 C 38.64 48.16 40.07 43.26 43.58 39.74 C 44.97 38.20 47.36 37.08 46.99 34.61 C 42.77 36.78 39.85 40.72 37.79 44.90 M 70.80 34.72 C 70.94 37.52 73.82 38.67 75.28 40.71 C 78.24 44.12 79.40 48.55 80.25 52.88 C 80.70 53.14 81.62 53.66 82.07 53.92 C 81.90 52.17 81.71 50.43 81.50 48.68 L 81.35 48.56 C 79.81 42.87 76.39 37.16 70.80 34.72 M 42.19 53.25 C 44.46 51.90 44.63 49.10 45.79 46.97 C 46.91 44.69 49.42 43.03 49.17 40.22 C 44.95 43.14 42.11 48.07 42.19 53.25 M 68.83 40.22 C 68.91 40.80 69.09 41.94 69.17 42.52 C 71.36 45.43 73.43 48.50 74.06 52.17 C 74.54 52.32 75.50 52.62 75.98 52.77 C 75.54 47.80 73.01 43.04 68.83 40.22 M 55.33 47.23 C 50.45 49.59 50.31 57.31 55.08 59.85 C 59.55 62.82 66.43 59.44 66.46 53.97 C 67.00 48.34 60.05 44.32 55.33 47.23 M 73.16 55.10 C 72.77 59.81 70.32 64.16 66.23 66.61 C 68.08 68.78 69.89 70.98 71.70 73.18 C 72.33 73.82 72.96 74.47 73.59 75.11 C 79.39 70.91 83.64 64.41 84.03 57.14 C 80.57 55.85 76.74 55.97 73.16 55.10 M 33.83 56.88 C 34.45 64.24 38.47 71.05 44.60 75.16 C 46.68 72.70 48.73 70.22 50.80 67.76 C 51.03 67.44 51.50 66.79 51.74 66.46 C 47.56 64.19 45.27 59.73 44.82 55.12 C 41.17 55.74 37.50 56.29 33.83 56.88 M 52.62 69.86 C 56.76 71.33 61.27 71.31 65.42 69.87 C 65.00 69.54 64.16 68.90 63.74 68.57 C 60.58 68.97 57.42 68.98 54.27 68.57 C 53.86 68.89 53.03 69.53 52.62 69.86 M 50.23 73.25 C 49.89 73.63 49.20 74.39 48.86 74.77 C 55.36 77.66 63.10 77.85 69.44 74.44 C 68.35 73.80 67.13 73.16 65.88 73.84 C 60.79 75.64 55.20 75.19 50.23 73.25 Z" />
</g>
<g id="#f7fbf8ff">
<path fill="#f7fbf8" opacity="1.00" d=" M 27.58 11.43 C 30.78 11.67 33.78 10.09 37.00 10.38 C 53.04 10.53 69.10 10.13 85.14 10.59 C 87.85 11.84 91.04 11.03 93.60 12.81 L 93.49 13.90 C 93.95 13.69 94.87 13.27 95.33 13.06 L 95.31 14.22 C 95.94 14.43 97.20 14.86 97.83 15.08 C 98.95 15.96 100.07 16.84 101.25 17.65 C 102.16 18.54 103.06 19.45 103.89 20.42 L 104.78 20.27 L 104.20 21.63 L 105.16 21.34 C 106.07 22.74 107.02 24.11 107.84 25.57 L 108.26 25.67 C 108.85 27.10 109.49 28.50 110.18 29.88 C 112.13 32.84 111.98 36.57 112.54 39.95 C 112.75 61.81 112.46 83.69 112.67 105.55 L 111.60 105.23 C 111.90 107.19 110.93 108.87 110.21 110.59 L 109.19 110.42 C 109.36 110.92 109.69 111.91 109.85 112.41 L 108.76 112.30 C 108.39 114.81 106.44 116.59 105.08 118.59 L 104.03 118.45 L 104.94 119.72 L 103.17 119.17 L 103.94 120.67 L 102.34 120.26 L 102.76 121.35 C 102.38 121.54 101.61 121.92 101.23 122.10 C 100.19 123.08 99.05 123.95 97.86 124.73 C 97.37 125.05 96.38 125.69 95.89 126.01 C 95.24 126.19 93.93 126.55 93.28 126.73 L 93.50 127.10 C 92.46 127.58 91.43 128.08 90.40 128.58 C 87.53 128.32 84.86 129.73 81.99 129.59 C 67.00 129.64 52.01 129.59 37.02 129.62 C 33.68 129.76 30.48 128.78 27.20 128.34 L 27.95 127.54 C 27.06 127.54 25.28 127.53 24.40 127.53 L 24.72 126.84 C 21.56 126.01 18.97 123.93 16.35 122.10 L 16.62 121.11 L 15.23 121.74 L 15.66 120.15 L 14.12 120.81 L 14.78 119.24 L 13.10 119.69 L 13.95 118.41 L 12.84 118.66 C 11.93 117.28 10.99 115.91 10.19 114.46 C 9.94 114.38 9.43 114.22 9.18 114.14 L 9.85 112.54 L 8.15 112.31 C 8.32 111.84 8.66 110.88 8.83 110.41 L 7.46 110.57 C 7.45 109.68 7.45 107.91 7.45 107.03 L 6.40 107.80 C 6.43 106.23 6.47 104.67 6.52 103.10 C 6.29 103.28 5.83 103.64 5.60 103.82 C 5.10 81.51 5.59 59.19 5.35 36.88 L 5.39 36.14 C 6.28 33.92 6.74 31.56 7.79 29.40 L 8.91 29.51 C 8.70 29.05 8.27 28.13 8.05 27.66 L 9.63 27.65 C 9.55 27.16 9.40 26.19 9.32 25.70 L 10.18 25.57 C 10.99 24.11 11.93 22.73 12.84 21.32 L 13.56 21.75 L 13.48 20.45 L 14.84 20.43 L 14.10 19.40 L 15.58 19.62 L 15.45 18.15 L 16.60 18.90 L 16.37 17.84 C 17.74 16.92 19.10 15.96 20.57 15.19 L 20.72 14.31 C 21.20 14.40 22.15 14.57 22.63 14.65 L 22.66 13.10 C 23.12 13.29 24.04 13.66 24.50 13.84 L 24.55 12.90 C 25.56 12.43 26.57 11.93 27.58 11.43 M 32.97 11.62 C 30.59 12.48 28.12 13.00 25.67 13.55 C 25.23 13.88 24.35 14.54 23.91 14.87 C 23.28 15.07 22.01 15.47 21.37 15.67 L 21.43 16.64 C 20.87 16.57 19.75 16.43 19.19 16.36 L 19.93 17.92 L 18.42 17.05 L 18.56 17.99 C 16.38 19.50 14.49 21.39 13.01 23.58 L 12.05 23.41 L 12.90 24.90 L 11.35 24.22 C 11.42 24.78 11.55 25.91 11.62 26.47 L 10.77 26.42 C 10.46 27.05 9.83 28.32 9.51 28.95 C 9.52 29.32 9.52 30.05 9.52 30.41 L 8.64 30.33 C 8.19 32.55 7.44 34.73 7.53 37.03 L 7.34 37.72 C 6.03 39.17 6.76 41.24 6.59 43.00 C 6.55 62.96 6.74 82.92 6.50 102.87 L 7.16 102.31 C 7.40 104.80 8.01 107.24 8.65 109.66 L 9.24 109.56 C 9.66 110.91 10.16 112.24 10.60 113.59 L 11.65 113.58 C 11.57 114.13 11.40 115.23 11.32 115.79 L 12.93 115.05 L 12.02 116.52 L 13.01 116.44 C 14.50 118.62 16.38 120.51 18.56 122.00 L 18.43 122.99 L 19.91 122.01 L 19.21 123.63 C 19.77 123.57 20.88 123.45 21.44 123.39 L 21.43 124.23 C 22.06 124.55 23.33 125.19 23.97 125.51 C 24.34 125.51 25.09 125.50 25.47 125.50 L 25.32 126.35 C 27.47 126.86 29.60 127.47 31.81 127.72 L 31.09 128.46 C 49.21 128.28 67.33 128.48 85.45 128.36 C 87.68 127.52 90.01 126.97 92.32 126.39 C 92.77 126.11 93.67 125.56 94.12 125.28 C 94.61 125.02 95.60 124.48 96.09 124.22 C 96.71 123.99 97.94 123.54 98.55 123.31 L 98.28 122.20 L 99.69 122.76 L 99.47 121.96 C 101.64 120.50 103.51 118.64 104.97 116.47 L 105.89 116.60 L 105.10 115.09 L 106.61 115.83 C 106.56 115.26 106.45 114.12 106.39 113.55 L 107.30 113.60 C 107.72 112.02 108.50 110.59 109.31 109.18 C 109.76 106.59 110.87 104.12 110.29 101.43 L 111.43 101.93 C 111.39 80.01 111.32 58.08 111.47 36.16 L 110.81 36.69 C 110.36 34.75 109.49 32.92 109.34 30.93 C 108.56 29.47 107.74 28.01 107.30 26.41 L 106.38 26.44 C 106.44 25.88 106.56 24.75 106.62 24.18 L 105.12 24.95 L 105.90 23.44 L 104.99 23.54 C 103.50 21.38 101.62 19.51 99.47 18.01 L 99.68 17.29 L 98.32 17.73 L 98.48 16.64 C 97.86 16.45 96.62 16.07 96.00 15.88 C 95.53 15.51 94.61 14.76 94.14 14.39 C 93.75 14.42 92.95 14.49 92.56 14.52 L 92.36 13.01 L 90.26 14.05 C 90.19 13.68 90.03 12.94 89.96 12.58 C 88.82 12.53 86.55 12.43 85.41 12.38 C 85.49 12.16 85.64 11.72 85.71 11.50 C 68.13 11.76 50.55 11.52 32.97 11.62 Z" />
<path fill="#f7fbf8" opacity="1.00" d=" M 48.23 31.44 C 54.96 28.17 63.01 28.24 69.77 31.42 C 68.45 34.83 67.09 38.23 65.85 41.67 C 61.54 39.53 56.48 39.49 52.18 41.67 C 50.90 38.25 49.56 34.85 48.23 31.44 Z" />
<path fill="#f7fbf8" opacity="1.00" d=" M 37.79 44.90 C 39.85 40.72 42.77 36.78 46.99 34.61 C 47.36 37.08 44.97 38.20 43.58 39.74 C 40.07 43.26 38.64 48.16 37.74 52.91 C 37.28 53.16 36.37 53.67 35.91 53.92 C 36.08 52.29 36.27 50.66 36.49 49.04 C 36.93 47.66 37.36 46.28 37.79 44.90 Z" />
<path fill="#f7fbf8" opacity="1.00" d=" M 70.80 34.72 C 76.39 37.16 79.81 42.87 81.35 48.56 L 81.50 48.68 C 81.71 50.43 81.90 52.17 82.07 53.92 C 81.62 53.66 80.70 53.14 80.25 52.88 C 79.40 48.55 78.24 44.12 75.28 40.71 C 73.82 38.67 70.94 37.52 70.80 34.72 Z" />
<path fill="#f7fbf8" opacity="1.00" d=" M 42.19 53.25 C 42.11 48.07 44.95 43.14 49.17 40.22 C 49.42 43.03 46.91 44.69 45.79 46.97 C 44.63 49.10 44.46 51.90 42.19 53.25 Z" />
<path fill="#f7fbf8" opacity="1.00" d=" M 68.83 40.22 C 73.01 43.04 75.54 47.80 75.98 52.77 C 75.50 52.62 74.54 52.32 74.06 52.17 C 73.43 48.50 71.36 45.43 69.17 42.52 C 69.09 41.94 68.91 40.80 68.83 40.22 Z" />
<path fill="#f7fbf8" opacity="1.00" d=" M 55.33 47.23 C 60.05 44.32 67.00 48.34 66.46 53.97 C 66.43 59.44 59.55 62.82 55.08 59.85 C 50.31 57.31 50.45 49.59 55.33 47.23 Z" />
<path fill="#f7fbf8" opacity="1.00" d=" M 73.16 55.10 C 76.74 55.97 80.57 55.85 84.03 57.14 C 83.64 64.41 79.39 70.91 73.59 75.11 C 72.96 74.47 72.33 73.82 71.70 73.18 C 69.89 70.98 68.08 68.78 66.23 66.61 C 70.32 64.16 72.77 59.81 73.16 55.10 Z" />
<path fill="#f7fbf8" opacity="1.00" d=" M 33.83 56.88 C 37.50 56.29 41.17 55.74 44.82 55.12 C 45.27 59.73 47.56 64.19 51.74 66.46 C 51.50 66.79 51.03 67.44 50.80 67.76 C 48.73 70.22 46.68 72.70 44.60 75.16 C 38.47 71.05 34.45 64.24 33.83 56.88 Z" />
<path fill="#f7fbf8" opacity="1.00" d=" M 52.62 69.86 C 53.03 69.53 53.86 68.89 54.27 68.57 C 57.42 68.98 60.58 68.97 63.74 68.57 C 64.16 68.90 65.00 69.54 65.42 69.87 C 61.27 71.31 56.76 71.33 52.62 69.86 Z" />
<path fill="#f7fbf8" opacity="1.00" d=" M 50.23 73.25 C 55.20 75.19 60.79 75.64 65.88 73.84 C 67.13 73.16 68.35 73.80 69.44 74.44 C 63.10 77.85 55.36 77.66 48.86 74.77 C 49.20 74.39 49.89 73.63 50.23 73.25 Z" />
</g>
</svg>
