<?xml version="1.0" encoding="UTF-8" ?>
<!DOCTYPE svg PUBLIC "-//W3C//DTD SVG 1.1//EN" "http://www.w3.org/Graphics/SVG/1.1/DTD/svg11.dtd">
<svg width="45px" height="45px" viewBox="0 0 45 45" version="1.1" xmlns="http://www.w3.org/2000/svg">
<g id="#000000ff">
<path fill="#000000" opacity="1.00" d=" M 0.00 0.00 L 45.00 0.00 L 45.00 45.00 L 0.00 45.00 L 0.00 0.00 M 19.32 16.57 C 21.11 19.07 21.66 22.03 21.61 25.06 C 23.52 22.69 24.72 19.02 22.48 16.47 C 20.48 14.52 21.27 11.69 21.30 9.23 C 19.60 11.19 17.58 13.99 19.32 16.57 M 26.62 22.42 C 28.31 24.69 28.56 27.46 28.51 30.20 C 31.62 27.44 31.39 22.46 28.06 20.01 C 28.12 18.14 27.52 15.86 29.22 14.47 C 26.18 15.02 24.51 19.98 26.62 22.42 M 14.29 21.71 C 16.05 24.22 16.75 27.15 16.44 30.19 C 18.86 28.04 19.89 24.03 17.39 21.52 C 15.59 19.75 16.34 17.09 16.11 14.86 C 14.37 16.55 12.61 19.38 14.29 21.71 M 8.05 33.16 C 8.03 33.87 7.99 35.29 7.96 36.00 C 17.66 36.00 27.35 36.00 37.04 36.00 C 37.01 35.29 36.97 33.87 36.95 33.16 C 27.32 33.13 17.68 33.13 8.05 33.16 Z" />
</g>
<g id="#cccfccff">
<path fill="#cccfcc" opacity="1.00" d=" M 19.32 16.57 C 17.58 13.99 19.60 11.19 21.30 9.23 C 21.27 11.69 20.48 14.52 22.48 16.47 C 24.72 19.02 23.52 22.69 21.61 25.06 C 21.66 22.03 21.11 19.07 19.32 16.57 Z" />
<path fill="#cccfcc" opacity="1.00" d=" M 26.62 22.42 C 24.51 19.98 26.18 15.02 29.22 14.47 C 27.52 15.86 28.12 18.14 28.06 20.01 C 31.39 22.46 31.62 27.44 28.51 30.20 C 28.56 27.46 28.31 24.69 26.62 22.42 Z" />
<path fill="#cccfcc" opacity="1.00" d=" M 14.29 21.71 C 12.61 19.38 14.37 16.55 16.11 14.86 C 16.34 17.09 15.59 19.75 17.39 21.52 C 19.89 24.03 18.86 28.04 16.44 30.19 C 16.75 27.15 16.05 24.22 14.29 21.71 Z" />
<path fill="#cccfcc" opacity="1.00" d=" M 8.05 33.16 C 17.68 33.13 27.32 33.13 36.95 33.16 C 36.97 33.87 37.01 35.29 37.04 36.00 C 27.35 36.00 17.66 36.00 7.96 36.00 C 7.99 35.29 8.03 33.87 8.05 33.16 Z" />
</g>
</svg>
