<?xml version="1.0" encoding="UTF-8" ?>
<!DOCTYPE svg PUBLIC "-//W3C//DTD SVG 1.1//EN" "http://www.w3.org/Graphics/SVG/1.1/DTD/svg11.dtd">
<svg width="117px" height="140px" viewBox="0 0 117 140" version="1.1" xmlns="http://www.w3.org/2000/svg">
<g id="#000000ff">
<path fill="#000000" opacity="1.00" d=" M 0.00 0.00 L 117.00 0.00 L 117.00 140.00 L 0.00 140.00 L 0.00 0.00 M 31.22 10.98 C 28.93 11.49 26.68 12.13 24.42 12.75 L 24.55 13.85 C 24.08 13.66 23.12 13.30 22.64 13.11 L 22.63 14.66 C 22.16 14.57 21.20 14.39 20.72 14.30 L 20.60 15.11 C 19.16 15.96 17.78 16.90 16.39 17.81 L 16.59 18.88 L 15.13 18.28 L 15.76 19.91 L 14.09 19.08 L 14.54 19.98 C 12.99 21.62 11.52 23.35 10.07 25.07 C 9.85 25.74 9.42 27.07 9.21 27.73 L 8.09 27.63 C 8.28 28.11 8.66 29.08 8.86 29.57 L 7.47 29.46 C 7.47 30.32 7.46 32.03 7.46 32.89 L 6.42 32.28 C 6.43 33.79 6.45 35.29 6.47 36.80 C 6.25 36.68 5.80 36.45 5.57 36.34 C 5.28 58.78 5.26 81.25 5.58 103.70 C 5.81 103.57 6.26 103.32 6.49 103.20 C 6.45 104.71 6.43 106.22 6.41 107.73 L 7.47 107.08 C 7.46 107.94 7.44 109.64 7.43 110.50 L 8.80 110.42 C 8.64 110.91 8.30 111.89 8.14 112.38 L 9.21 112.30 C 9.43 112.92 9.88 114.17 10.10 114.79 C 11.04 116.05 11.99 117.30 12.91 118.58 L 13.11 118.17 C 13.50 118.59 14.29 119.44 14.68 119.87 L 14.13 120.89 L 15.13 120.32 C 15.54 120.72 16.37 121.51 16.79 121.91 L 16.35 122.18 C 17.76 123.09 19.14 124.03 20.59 124.88 L 20.71 125.67 C 21.20 125.60 22.19 125.45 22.68 125.37 L 22.60 126.88 C 23.10 126.70 24.10 126.35 24.60 126.17 L 24.44 127.53 C 25.30 127.53 27.02 127.52 27.88 127.52 L 27.25 128.29 C 30.17 128.72 33.03 129.65 36.01 129.60 C 50.35 129.63 64.69 129.58 79.03 129.62 C 81.62 129.62 84.24 129.63 86.78 129.02 C 89.06 128.53 91.31 127.90 93.55 127.26 L 93.43 126.19 C 93.93 126.36 94.92 126.69 95.42 126.86 L 95.31 125.36 C 95.80 125.44 96.78 125.60 97.27 125.69 L 97.41 124.88 C 98.84 124.04 100.22 123.09 101.62 122.19 L 101.34 121.15 L 102.86 121.81 L 102.24 120.90 C 102.65 120.47 103.48 119.61 103.89 119.17 L 104.84 119.89 L 104.14 118.33 L 105.18 118.63 C 106.09 117.22 107.04 115.85 107.89 114.41 L 108.67 114.30 C 108.59 113.81 108.43 112.83 108.35 112.34 L 109.86 112.41 C 109.69 111.91 109.37 110.92 109.21 110.42 L 110.55 110.52 C 110.54 109.72 110.51 108.11 110.50 107.31 L 111.60 107.57 C 111.58 106.12 111.56 104.67 111.53 103.22 C 111.75 103.34 112.20 103.57 112.42 103.69 C 112.83 84.47 112.49 65.25 112.61 46.03 C 112.51 42.50 112.97 38.83 111.72 35.46 C 111.62 34.43 111.53 33.40 111.44 32.37 L 110.50 32.68 C 110.51 31.88 110.54 30.28 110.55 29.48 L 109.19 29.58 C 109.36 29.08 109.70 28.08 109.87 27.58 L 108.97 27.67 C 107.90 25.45 106.55 23.38 105.17 21.35 L 104.09 21.71 L 104.86 20.31 L 103.31 20.72 L 103.73 19.04 L 102.88 19.77 C 102.46 19.35 101.62 18.52 101.20 18.11 L 101.55 17.91 C 100.27 16.99 99.03 16.01 97.77 15.05 C 97.15 14.83 95.90 14.41 95.27 14.20 L 95.38 13.10 C 94.89 13.29 93.92 13.65 93.44 13.84 L 93.53 12.47 C 92.66 12.47 90.92 12.47 90.05 12.47 L 90.82 11.68 C 88.86 11.48 86.88 11.28 85.03 10.57 C 71.36 10.17 57.67 10.50 43.99 10.39 C 39.73 10.49 35.40 10.02 31.22 10.98 Z" />
<path fill="#000000" opacity="1.00" d=" M 32.88 11.63 C 50.50 11.53 68.12 11.73 85.74 11.53 L 85.44 12.17 C 87.92 12.44 90.33 13.06 92.73 13.70 L 92.58 14.64 C 93.05 14.54 93.99 14.36 94.47 14.26 C 94.54 14.62 94.70 15.33 94.78 15.68 L 96.48 15.16 L 96.58 16.65 C 97.12 16.57 98.21 16.40 98.75 16.32 L 98.19 17.92 L 99.59 17.14 L 99.57 17.94 C 101.55 19.57 103.37 21.39 105.03 23.34 L 105.29 23.35 C 106.65 25.64 107.97 27.96 108.99 30.42 L 109.78 30.54 C 109.70 30.87 109.54 31.54 109.47 31.87 C 110.29 34.17 111.54 36.43 111.40 38.95 C 111.39 60.03 111.38 81.12 111.40 102.20 C 110.73 104.18 110.18 106.19 109.48 108.15 C 109.53 108.38 109.61 108.83 109.65 109.05 C 109.31 109.55 108.63 110.54 108.29 111.03 C 108.03 111.69 107.52 113.00 107.27 113.66 L 106.29 113.62 C 106.40 114.14 106.63 115.19 106.74 115.71 L 105.12 115.18 L 105.87 116.59 L 105.05 116.56 C 103.13 118.98 100.90 121.14 98.37 122.92 L 98.74 123.70 C 98.19 123.61 97.09 123.43 96.54 123.34 L 96.66 124.17 C 96.00 124.52 94.66 125.22 93.99 125.57 C 93.64 125.55 92.94 125.49 92.59 125.47 L 92.43 126.90 C 91.92 126.67 90.90 126.21 90.39 125.98 L 90.89 127.38 C 89.05 127.46 87.20 127.55 85.36 127.65 C 85.47 127.85 85.70 128.26 85.82 128.47 C 67.58 128.34 49.34 128.35 31.11 128.46 L 31.77 127.79 C 29.57 127.45 27.43 126.83 25.28 126.30 L 25.41 125.41 C 25.07 125.45 24.37 125.55 24.03 125.59 C 23.36 125.24 22.02 124.53 21.35 124.18 L 21.40 123.31 C 20.86 123.41 19.80 123.61 19.27 123.71 L 19.83 122.06 L 18.40 122.90 L 18.45 122.08 C 16.43 120.43 14.58 118.58 12.93 116.56 L 12.13 116.57 L 12.90 115.16 L 11.29 115.75 C 11.39 115.21 11.58 114.14 11.68 113.61 L 10.80 113.61 C 10.45 112.95 9.75 111.62 9.39 110.96 C 9.45 110.63 9.55 109.95 9.61 109.61 L 8.68 109.71 C 8.04 107.29 7.42 104.85 7.13 102.36 L 6.53 102.92 C 6.65 80.95 6.67 58.98 6.52 37.01 L 7.13 37.74 C 7.38 35.39 7.90 33.09 8.61 30.83 C 8.90 30.22 9.48 29.01 9.77 28.40 L 10.57 28.32 C 10.50 27.85 10.36 26.90 10.30 26.43 L 11.68 26.41 C 11.58 25.87 11.39 24.79 11.30 24.25 L 12.90 24.82 L 12.14 23.38 L 13.73 23.50 C 13.69 23.16 13.61 22.49 13.57 22.16 C 15.23 20.79 16.81 19.35 18.50 18.02 L 18.38 17.11 L 19.81 17.92 L 19.26 16.31 C 19.80 16.40 20.87 16.59 21.40 16.68 L 21.34 15.70 C 22.01 15.47 23.35 15.01 24.02 14.79 C 24.51 14.40 25.47 13.64 25.95 13.25 C 26.37 13.45 27.21 13.85 27.62 14.05 L 27.09 12.76 C 29.06 12.60 31.03 12.36 32.88 11.63 M 58.69 28.77 C 58.13 33.06 58.57 37.41 58.49 41.72 C 53.62 43.08 50.06 47.28 49.66 52.35 C 45.27 52.33 40.86 51.97 36.48 52.40 C 40.79 53.14 45.19 52.77 49.55 52.90 C 50.37 58.07 54.18 62.25 59.37 63.23 C 59.34 67.69 58.95 72.18 59.57 76.61 C 59.97 72.22 59.72 67.80 59.82 63.40 C 65.13 62.70 69.76 58.99 70.68 53.56 C 74.71 53.58 78.74 53.63 82.77 53.51 C 85.98 39.96 72.07 26.11 58.69 28.77 Z" />
<path fill="#000000" opacity="1.00" d=" M 51.81 48.19 C 53.99 42.49 62.38 41.13 66.52 45.44 C 71.74 49.89 69.70 59.76 62.97 61.51 C 59.66 62.79 56.32 61.28 53.54 59.52 C 51.15 56.32 49.94 51.94 51.81 48.19 Z" />
</g>
<g id="#f7fbf8ff">
<path fill="#f7fbf8" opacity="1.00" d=" M 31.22 10.98 C 35.40 10.02 39.73 10.49 43.99 10.39 C 57.67 10.50 71.36 10.17 85.03 10.57 C 86.88 11.28 88.86 11.48 90.82 11.68 L 90.05 12.47 C 90.92 12.47 92.66 12.47 93.53 12.47 L 93.44 13.84 C 93.92 13.65 94.89 13.29 95.38 13.10 L 95.27 14.20 C 95.90 14.41 97.15 14.83 97.77 15.05 C 99.03 16.01 100.27 16.99 101.55 17.91 L 101.20 18.11 C 101.62 18.52 102.46 19.35 102.88 19.77 L 103.73 19.04 L 103.31 20.72 L 104.86 20.31 L 104.09 21.71 L 105.17 21.35 C 106.55 23.38 107.90 25.45 108.97 27.67 L 109.87 27.58 C 109.70 28.08 109.36 29.08 109.19 29.58 L 110.55 29.48 C 110.54 30.28 110.51 31.88 110.50 32.68 L 111.44 32.37 C 111.53 33.40 111.62 34.43 111.72 35.46 C 112.97 38.83 112.51 42.50 112.61 46.03 C 112.49 65.25 112.83 84.47 112.42 103.69 C 112.20 103.57 111.75 103.34 111.53 103.22 C 111.56 104.67 111.58 106.12 111.60 107.57 L 110.50 107.31 C 110.51 108.11 110.54 109.72 110.55 110.52 L 109.21 110.42 C 109.37 110.92 109.69 111.91 109.86 112.41 L 108.35 112.34 C 108.43 112.83 108.59 113.81 108.67 114.30 L 107.89 114.41 C 107.04 115.85 106.09 117.22 105.18 118.63 L 104.14 118.33 L 104.84 119.89 L 103.89 119.17 C 103.48 119.61 102.65 120.47 102.24 120.90 L 102.86 121.81 L 101.34 121.15 L 101.62 122.19 C 100.22 123.09 98.84 124.04 97.41 124.88 L 97.27 125.69 C 96.78 125.60 95.80 125.44 95.31 125.36 L 95.42 126.86 C 94.92 126.69 93.93 126.36 93.43 126.19 L 93.55 127.26 C 91.31 127.90 89.06 128.53 86.78 129.02 C 84.24 129.63 81.62 129.62 79.03 129.62 C 64.69 129.58 50.35 129.63 36.01 129.60 C 33.03 129.65 30.17 128.72 27.25 128.29 L 27.88 127.52 C 27.02 127.52 25.30 127.53 24.44 127.53 L 24.60 126.17 C 24.10 126.35 23.10 126.70 22.60 126.88 L 22.68 125.37 C 22.19 125.45 21.20 125.60 20.71 125.67 L 20.59 124.88 C 19.14 124.03 17.76 123.09 16.35 122.18 L 16.79 121.91 C 16.37 121.51 15.54 120.72 15.13 120.32 L 14.13 120.89 L 14.68 119.87 C 14.29 119.44 13.50 118.59 13.11 118.17 L 12.91 118.58 C 11.99 117.30 11.04 116.05 10.10 114.79 C 9.88 114.17 9.43 112.92 9.21 112.30 L 8.14 112.38 C 8.30 111.89 8.64 110.91 8.80 110.42 L 7.43 110.50 C 7.44 109.64 7.46 107.94 7.47 107.08 L 6.41 107.73 C 6.43 106.22 6.45 104.71 6.49 103.20 C 6.26 103.32 5.81 103.57 5.58 103.70 C 5.26 81.25 5.28 58.78 5.57 36.34 C 5.80 36.45 6.25 36.68 6.47 36.80 C 6.45 35.29 6.43 33.79 6.42 32.28 L 7.46 32.89 C 7.46 32.03 7.47 30.32 7.47 29.46 L 8.86 29.57 C 8.66 29.08 8.28 28.11 8.09 27.63 L 9.21 27.73 C 9.42 27.07 9.85 25.74 10.07 25.07 C 11.52 23.35 12.99 21.62 14.54 19.98 L 14.09 19.08 L 15.76 19.91 L 15.13 18.28 L 16.59 18.88 L 16.39 17.81 C 17.78 16.90 19.16 15.96 20.60 15.11 L 20.72 14.30 C 21.20 14.39 22.16 14.57 22.63 14.66 L 22.64 13.11 C 23.12 13.30 24.08 13.66 24.55 13.85 L 24.42 12.75 C 26.68 12.13 28.93 11.49 31.22 10.98 M 32.88 11.63 C 31.03 12.36 29.06 12.60 27.09 12.76 L 27.62 14.05 C 27.21 13.85 26.37 13.45 25.95 13.25 C 25.47 13.64 24.51 14.40 24.02 14.79 C 23.35 15.01 22.01 15.47 21.34 15.70 L 21.40 16.68 C 20.87 16.59 19.80 16.40 19.26 16.31 L 19.81 17.92 L 18.38 17.11 L 18.50 18.02 C 16.81 19.35 15.23 20.79 13.57 22.16 C 13.61 22.49 13.69 23.16 13.73 23.50 L 12.14 23.38 L 12.90 24.82 L 11.30 24.25 C 11.39 24.79 11.58 25.87 11.68 26.41 L 10.30 26.43 C 10.36 26.90 10.50 27.85 10.57 28.32 L 9.77 28.40 C 9.48 29.01 8.90 30.22 8.61 30.83 C 7.90 33.09 7.38 35.39 7.13 37.74 L 6.52 37.01 C 6.67 58.98 6.65 80.95 6.53 102.92 L 7.13 102.36 C 7.42 104.85 8.04 107.29 8.68 109.71 L 9.61 109.61 C 9.55 109.95 9.45 110.63 9.39 110.96 C 9.75 111.62 10.45 112.95 10.80 113.61 L 11.68 113.61 C 11.58 114.14 11.39 115.21 11.29 115.75 L 12.90 115.16 L 12.13 116.57 L 12.93 116.56 C 14.58 118.58 16.43 120.43 18.45 122.08 L 18.40 122.90 L 19.83 122.06 L 19.27 123.71 C 19.80 123.61 20.86 123.41 21.40 123.31 L 21.35 124.18 C 22.02 124.53 23.36 125.24 24.03 125.59 C 24.37 125.55 25.07 125.45 25.41 125.41 L 25.28 126.30 C 27.43 126.83 29.57 127.45 31.77 127.79 L 31.11 128.46 C 49.34 128.35 67.58 128.34 85.82 128.47 C 85.70 128.26 85.47 127.85 85.36 127.65 C 87.20 127.55 89.05 127.46 90.89 127.38 L 90.39 125.98 C 90.90 126.21 91.92 126.67 92.43 126.90 L 92.59 125.47 C 92.94 125.49 93.64 125.55 93.99 125.57 C 94.66 125.22 96.00 124.52 96.66 124.17 L 96.54 123.34 C 97.09 123.43 98.19 123.61 98.74 123.70 L 98.37 122.92 C 100.90 121.14 103.13 118.98 105.05 116.56 L 105.87 116.59 L 105.12 115.18 L 106.74 115.71 C 106.63 115.19 106.40 114.14 106.29 113.62 L 107.27 113.66 C 107.52 113.00 108.03 111.69 108.29 111.03 C 108.63 110.54 109.31 109.55 109.65 109.05 C 109.61 108.83 109.53 108.38 109.48 108.15 C 110.18 106.19 110.73 104.18 111.40 102.20 C 111.38 81.12 111.39 60.03 111.40 38.95 C 111.54 36.43 110.29 34.17 109.47 31.87 C 109.54 31.54 109.70 30.87 109.78 30.54 L 108.99 30.42 C 107.97 27.96 106.65 25.64 105.29 23.35 L 105.03 23.34 C 103.37 21.39 101.55 19.57 99.57 17.94 L 99.59 17.14 L 98.19 17.92 L 98.75 16.32 C 98.21 16.40 97.12 16.57 96.58 16.65 L 96.48 15.16 L 94.78 15.68 C 94.70 15.33 94.54 14.62 94.47 14.26 C 93.99 14.36 93.05 14.54 92.58 14.64 L 92.73 13.70 C 90.33 13.06 87.92 12.44 85.44 12.17 L 85.74 11.53 C 68.12 11.73 50.50 11.53 32.88 11.63 Z" />
<path fill="#f7fbf8" opacity="1.00" d=" M 58.69 28.77 C 72.07 26.11 85.98 39.96 82.77 53.51 C 78.74 53.63 74.71 53.58 70.68 53.56 C 69.76 58.99 65.13 62.70 59.82 63.40 C 59.72 67.80 59.97 72.22 59.57 76.61 C 58.95 72.18 59.34 67.69 59.37 63.23 C 54.18 62.25 50.37 58.07 49.55 52.90 C 45.19 52.77 40.79 53.14 36.48 52.40 C 40.86 51.97 45.27 52.33 49.66 52.35 C 50.06 47.28 53.62 43.08 58.49 41.72 C 58.57 37.41 58.13 33.06 58.69 28.77 M 51.81 48.19 C 49.94 51.94 51.15 56.32 53.54 59.52 C 56.32 61.28 59.66 62.79 62.97 61.51 C 69.70 59.76 71.74 49.89 66.52 45.44 C 62.38 41.13 53.99 42.49 51.81 48.19 Z" />
</g>
</svg>
