<?xml version="1.0" encoding="UTF-8" ?>
<!DOCTYPE svg PUBLIC "-//W3C//DTD SVG 1.1//EN" "http://www.w3.org/Graphics/SVG/1.1/DTD/svg11.dtd">
<svg width="117px" height="140px" viewBox="0 0 117 140" version="1.1" xmlns="http://www.w3.org/2000/svg">
<g id="#000000ff">
<path fill="#000000" opacity="1.00" d=" M 0.00 0.00 L 117.00 0.00 L 117.00 140.00 L 0.00 140.00 L 0.00 0.00 M 27.22 11.70 L 27.92 12.45 C 27.05 12.45 25.31 12.46 24.45 12.47 L 24.56 13.81 C 24.07 13.63 23.09 13.27 22.60 13.10 L 22.70 14.59 C 22.21 14.52 21.23 14.39 20.74 14.33 L 20.50 15.14 C 19.10 15.98 17.74 16.90 16.37 17.79 L 16.91 18.39 C 16.44 18.50 15.51 18.72 15.04 18.83 C 14.39 19.73 13.75 20.65 13.12 21.58 L 12.78 21.42 C 11.89 22.78 10.97 24.11 10.13 25.50 L 9.31 25.74 C 9.39 26.21 9.55 27.15 9.64 27.62 L 8.14 27.63 C 8.30 28.11 8.61 29.07 8.77 29.54 L 7.72 29.49 C 6.67 33.24 5.29 37.00 5.39 40.97 C 5.37 60.33 5.37 79.69 5.39 99.05 C 5.30 103.02 6.68 106.78 7.73 110.55 L 8.81 110.47 C 8.63 110.94 8.28 111.89 8.11 112.36 L 9.63 112.37 C 9.55 112.84 9.39 113.79 9.31 114.27 L 10.12 114.47 C 10.97 115.89 11.91 117.25 12.81 118.63 L 13.94 118.18 L 12.90 119.69 L 13.88 119.41 C 14.72 120.30 15.56 121.17 16.42 122.03 L 16.42 122.24 C 17.79 123.12 19.13 124.04 20.52 124.87 L 20.74 125.68 C 21.23 125.61 22.20 125.47 22.69 125.40 L 22.59 126.90 C 23.09 126.72 24.07 126.37 24.57 126.20 L 24.45 127.53 C 25.35 127.54 27.16 127.58 28.07 127.59 L 27.12 128.29 C 30.72 128.95 34.31 129.84 38.01 129.64 C 54.03 129.42 70.08 130.01 86.09 129.33 C 87.68 128.86 89.30 128.54 90.92 128.24 L 89.88 127.58 C 90.79 127.57 92.62 127.55 93.54 127.54 L 93.45 126.19 C 93.93 126.37 94.89 126.72 95.38 126.90 L 95.35 125.39 C 95.84 125.46 96.81 125.61 97.29 125.68 L 97.50 124.88 C 98.78 124.10 100.01 123.24 101.22 122.35 L 101.58 121.46 L 102.84 121.73 L 102.40 121.02 C 103.41 120.15 104.40 119.25 105.40 118.36 C 106.23 117.06 107.09 115.79 107.87 114.47 L 108.68 114.27 C 108.61 113.78 108.47 112.81 108.39 112.33 L 109.90 112.40 C 109.72 111.91 109.37 110.93 109.20 110.44 L 110.55 110.52 C 110.55 109.65 110.56 107.89 110.56 107.02 L 111.28 107.86 C 111.88 104.60 112.75 101.36 112.63 98.01 C 112.61 79.01 112.65 60.01 112.61 41.01 C 112.70 37.04 111.34 33.26 110.28 29.49 L 109.24 29.55 C 109.39 29.06 109.70 28.09 109.86 27.61 L 108.38 27.65 C 108.46 27.17 108.61 26.22 108.68 25.75 L 107.86 25.50 C 107.03 24.12 106.11 22.78 105.23 21.42 L 105.04 21.50 C 104.21 20.64 103.37 19.79 102.53 18.94 L 102.74 18.70 C 102.33 18.44 101.52 17.91 101.11 17.65 C 99.93 16.78 98.77 15.89 97.55 15.08 L 97.23 14.31 C 96.76 14.39 95.82 14.54 95.35 14.62 L 95.36 13.09 C 94.89 13.27 93.96 13.64 93.49 13.82 L 93.54 12.74 C 89.76 11.66 85.96 10.33 81.97 10.39 C 66.97 10.35 51.96 10.39 36.96 10.37 C 33.65 10.25 30.45 11.15 27.22 11.70 Z" />
<path fill="#000000" opacity="1.00" d=" M 25.79 13.63 C 27.73 13.08 29.68 12.54 31.67 12.18 L 31.15 11.56 C 49.73 11.68 68.32 11.65 86.90 11.57 L 86.31 12.49 C 87.86 12.52 89.42 12.55 90.97 12.57 L 90.23 13.15 C 92.45 13.81 94.57 14.79 96.68 15.73 L 96.66 16.70 C 97.17 16.59 98.19 16.36 98.70 16.24 L 98.05 17.84 L 99.08 17.25 C 101.34 19.41 103.55 21.63 105.72 23.88 L 105.21 24.92 L 106.74 24.29 C 106.63 24.80 106.42 25.83 106.32 26.34 L 107.26 26.30 C 108.19 28.41 109.16 30.50 109.86 32.70 L 110.41 32.04 C 110.45 33.58 110.49 35.12 110.54 36.66 L 111.44 36.19 C 111.34 58.73 111.33 81.28 111.45 103.82 L 110.81 103.35 C 110.45 106.11 109.53 108.74 108.39 111.26 C 108.10 111.85 107.53 113.02 107.24 113.60 L 106.33 113.69 C 106.43 114.19 106.63 115.20 106.74 115.71 L 105.14 115.05 L 105.76 116.08 C 103.58 118.34 101.35 120.57 99.09 122.75 L 98.09 122.16 L 98.67 123.78 C 98.18 123.66 97.20 123.42 96.70 123.30 L 96.63 124.33 C 95.32 124.83 94.02 125.35 92.71 125.84 L 92.60 126.34 C 90.53 126.84 88.48 127.42 86.38 127.80 L 86.71 128.45 C 68.16 128.32 49.60 128.34 31.05 128.44 L 31.76 127.82 C 29.61 127.45 27.51 126.86 25.40 126.34 L 25.29 125.84 C 23.99 125.36 22.71 124.84 21.42 124.35 L 21.30 123.34 C 20.80 123.43 19.79 123.62 19.29 123.72 L 19.93 122.15 L 18.91 122.74 C 16.64 120.57 14.42 118.34 12.24 116.07 L 12.88 115.06 L 11.27 115.71 C 11.37 115.19 11.58 114.17 11.68 113.66 L 10.73 113.69 C 9.79 111.58 8.83 109.47 8.14 107.26 L 7.60 108.00 C 7.56 106.44 7.50 104.89 7.45 103.34 L 6.56 103.80 C 6.67 81.25 6.66 58.70 6.56 36.15 L 7.46 36.68 C 7.51 35.13 7.55 33.58 7.60 32.03 L 8.17 32.71 C 8.60 31.37 9.10 30.05 9.60 28.73 C 9.89 28.15 10.47 26.99 10.76 26.42 L 11.68 26.30 C 11.57 25.80 11.37 24.80 11.26 24.30 L 12.81 24.91 L 12.28 23.88 C 14.45 21.62 16.67 19.41 18.93 17.23 L 19.96 17.88 L 19.29 16.27 C 19.80 16.37 20.83 16.58 21.35 16.68 L 21.35 15.80 C 22.84 15.10 24.32 14.39 25.79 13.63 M 57.15 35.23 C 53.55 36.79 49.36 38.17 47.42 41.88 C 47.65 43.27 47.96 44.65 48.32 46.01 C 43.05 47.40 38.09 50.01 34.50 54.21 C 41.64 62.08 49.48 69.30 56.93 76.89 C 61.11 73.24 64.56 68.78 65.99 63.33 C 67.17 63.61 68.61 64.87 69.75 63.78 C 76.03 59.53 77.31 51.66 79.69 45.02 C 80.42 42.03 82.17 39.22 81.90 36.04 C 81.88 33.96 80.25 32.40 79.05 30.87 C 78.01 30.47 76.99 30.06 75.98 29.61 C 69.47 30.62 63.45 33.43 57.15 35.23 Z" />
<path fill="#000000" opacity="1.00" d=" M 68.88 34.52 C 71.71 33.73 75.37 31.32 77.84 34.06 C 80.49 36.82 77.61 40.46 77.06 43.51 C 74.57 49.62 73.98 56.83 68.90 61.54 C 67.43 60.12 65.97 58.69 64.52 57.26 C 62.96 62.59 62.01 68.55 57.86 72.60 C 56.44 72.69 55.65 71.14 54.64 70.39 C 49.46 64.91 43.74 59.92 38.82 54.20 C 42.87 49.93 49.08 49.16 54.37 47.20 C 52.92 45.66 51.46 44.13 50.04 42.57 C 55.38 38.07 62.53 36.96 68.88 34.52 Z" />
</g>
<g id="#eef4f4ff">
<path fill="#eef4f4" opacity="1.00" d=" M 27.22 11.70 C 30.45 11.15 33.65 10.25 36.96 10.37 C 51.96 10.39 66.97 10.35 81.97 10.39 C 85.96 10.33 89.76 11.66 93.54 12.74 L 93.49 13.82 C 93.96 13.64 94.89 13.27 95.36 13.09 L 95.35 14.62 C 95.82 14.54 96.76 14.39 97.23 14.31 L 97.55 15.08 C 98.77 15.89 99.93 16.78 101.11 17.65 C 101.52 17.91 102.33 18.44 102.74 18.70 L 102.53 18.94 C 103.37 19.79 104.21 20.64 105.04 21.50 L 105.23 21.42 C 106.11 22.78 107.03 24.12 107.86 25.50 L 108.68 25.75 C 108.61 26.22 108.46 27.17 108.38 27.65 L 109.86 27.61 C 109.70 28.09 109.39 29.06 109.24 29.55 L 110.28 29.49 C 111.34 33.26 112.70 37.04 112.61 41.01 C 112.65 60.01 112.61 79.01 112.63 98.01 C 112.75 101.36 111.88 104.60 111.28 107.86 L 110.56 107.02 C 110.56 107.89 110.55 109.65 110.55 110.52 L 109.20 110.44 C 109.37 110.93 109.72 111.91 109.90 112.40 L 108.39 112.33 C 108.47 112.81 108.61 113.78 108.68 114.27 L 107.87 114.47 C 107.09 115.79 106.23 117.06 105.40 118.36 C 104.40 119.25 103.41 120.15 102.40 121.02 L 102.84 121.73 L 101.58 121.46 L 101.22 122.35 C 100.01 123.24 98.78 124.10 97.50 124.88 L 97.29 125.68 C 96.81 125.61 95.84 125.46 95.35 125.39 L 95.38 126.90 C 94.89 126.72 93.93 126.37 93.45 126.19 L 93.54 127.54 C 92.62 127.55 90.79 127.57 89.88 127.58 L 90.92 128.24 C 89.30 128.54 87.68 128.86 86.09 129.33 C 70.08 130.01 54.03 129.42 38.01 129.64 C 34.31 129.84 30.72 128.95 27.12 128.29 L 28.07 127.59 C 27.16 127.58 25.35 127.54 24.45 127.53 L 24.57 126.20 C 24.07 126.37 23.09 126.72 22.59 126.90 L 22.69 125.40 C 22.20 125.47 21.23 125.61 20.74 125.68 L 20.52 124.87 C 19.13 124.04 17.79 123.12 16.42 122.24 L 16.42 122.03 C 15.56 121.17 14.72 120.30 13.88 119.41 L 12.90 119.69 L 13.94 118.18 L 12.81 118.63 C 11.91 117.25 10.97 115.89 10.12 114.47 L 9.31 114.27 C 9.39 113.79 9.55 112.84 9.63 112.37 L 8.11 112.36 C 8.28 111.89 8.63 110.94 8.81 110.47 L 7.73 110.55 C 6.68 106.78 5.30 103.02 5.39 99.05 C 5.37 79.69 5.37 60.33 5.39 40.97 C 5.29 37.00 6.67 33.24 7.72 29.49 L 8.77 29.54 C 8.61 29.07 8.30 28.11 8.14 27.63 L 9.64 27.62 C 9.55 27.15 9.39 26.21 9.31 25.74 L 10.13 25.50 C 10.97 24.11 11.89 22.78 12.78 21.42 L 13.12 21.58 C 13.75 20.65 14.39 19.73 15.04 18.83 C 15.51 18.72 16.44 18.50 16.91 18.39 L 16.37 17.79 C 17.74 16.90 19.10 15.98 20.50 15.14 L 20.74 14.33 C 21.23 14.39 22.21 14.52 22.70 14.59 L 22.60 13.10 C 23.09 13.27 24.07 13.63 24.56 13.81 L 24.45 12.47 C 25.31 12.46 27.05 12.45 27.92 12.45 L 27.22 11.70 M 25.79 13.63 C 24.32 14.39 22.84 15.10 21.35 15.80 L 21.35 16.68 C 20.83 16.58 19.80 16.37 19.29 16.27 L 19.96 17.88 L 18.93 17.23 C 16.67 19.41 14.45 21.62 12.28 23.88 L 12.81 24.91 L 11.26 24.30 C 11.37 24.80 11.57 25.80 11.68 26.30 L 10.76 26.42 C 10.47 26.99 9.89 28.15 9.60 28.73 C 9.10 30.05 8.60 31.37 8.17 32.71 L 7.60 32.03 C 7.55 33.58 7.51 35.13 7.46 36.68 L 6.56 36.15 C 6.66 58.70 6.67 81.25 6.56 103.80 L 7.45 103.34 C 7.50 104.89 7.56 106.44 7.60 108.00 L 8.14 107.26 C 8.83 109.47 9.79 111.58 10.73 113.69 L 11.68 113.66 C 11.58 114.17 11.37 115.19 11.27 115.71 L 12.88 115.06 L 12.24 116.07 C 14.42 118.34 16.64 120.57 18.91 122.74 L 19.93 122.15 L 19.29 123.72 C 19.79 123.62 20.80 123.43 21.30 123.34 L 21.42 124.35 C 22.71 124.84 23.99 125.36 25.29 125.84 L 25.40 126.34 C 27.51 126.86 29.61 127.45 31.76 127.82 L 31.05 128.44 C 49.60 128.34 68.16 128.32 86.71 128.45 L 86.38 127.80 C 88.48 127.42 90.53 126.84 92.60 126.34 L 92.71 125.84 C 94.02 125.35 95.32 124.83 96.63 124.33 L 96.70 123.30 C 97.20 123.42 98.18 123.66 98.67 123.78 L 98.09 122.16 L 99.09 122.75 C 101.35 120.57 103.58 118.34 105.76 116.08 L 105.14 115.05 L 106.74 115.71 C 106.63 115.20 106.43 114.19 106.33 113.69 L 107.24 113.60 C 107.53 113.02 108.10 111.85 108.39 111.26 C 109.53 108.74 110.45 106.11 110.81 103.35 L 111.45 103.82 C 111.33 81.28 111.34 58.73 111.44 36.19 L 110.54 36.66 C 110.49 35.12 110.45 33.58 110.41 32.04 L 109.86 32.70 C 109.16 30.50 108.19 28.41 107.26 26.30 L 106.32 26.34 C 106.42 25.83 106.63 24.80 106.74 24.29 L 105.21 24.92 L 105.72 23.88 C 103.55 21.63 101.34 19.41 99.08 17.25 L 98.05 17.84 L 98.70 16.24 C 98.19 16.36 97.17 16.59 96.66 16.70 L 96.68 15.73 C 94.57 14.79 92.45 13.81 90.23 13.15 L 90.97 12.57 C 89.42 12.55 87.86 12.52 86.31 12.49 L 86.90 11.57 C 68.32 11.65 49.73 11.68 31.15 11.56 L 31.67 12.18 C 29.68 12.54 27.73 13.08 25.79 13.63 Z" />
<path fill="#eef4f4" opacity="1.00" d=" M 57.15 35.23 C 63.45 33.43 69.47 30.62 75.98 29.61 C 76.99 30.06 78.01 30.47 79.05 30.87 C 80.25 32.40 81.88 33.96 81.90 36.04 C 82.17 39.22 80.42 42.03 79.69 45.02 C 77.31 51.66 76.03 59.53 69.75 63.78 C 68.61 64.87 67.17 63.61 65.99 63.33 C 64.56 68.78 61.11 73.24 56.93 76.89 C 49.48 69.30 41.64 62.08 34.50 54.21 C 38.09 50.01 43.05 47.40 48.32 46.01 C 47.96 44.65 47.65 43.27 47.42 41.88 C 49.36 38.17 53.55 36.79 57.15 35.23 M 68.88 34.52 C 62.53 36.96 55.38 38.07 50.04 42.57 C 51.46 44.13 52.92 45.66 54.37 47.20 C 49.08 49.16 42.87 49.93 38.82 54.20 C 43.74 59.92 49.46 64.91 54.64 70.39 C 55.65 71.14 56.44 72.69 57.86 72.60 C 62.01 68.55 62.96 62.59 64.52 57.26 C 65.97 58.69 67.43 60.12 68.90 61.54 C 73.98 56.83 74.57 49.62 77.06 43.51 C 77.61 40.46 80.49 36.82 77.84 34.06 C 75.37 31.32 71.71 33.73 68.88 34.52 Z" />
</g>
</svg>
