<?xml version="1.0" encoding="UTF-8" ?>
<!DOCTYPE svg PUBLIC "-//W3C//DTD SVG 1.1//EN" "http://www.w3.org/Graphics/SVG/1.1/DTD/svg11.dtd">
<svg width="117px" height="140px" viewBox="0 0 117 140" version="1.1" xmlns="http://www.w3.org/2000/svg">
<g id="#000000ff">
<path fill="#000000" opacity="1.00" d=" M 0.00 0.00 L 117.00 0.00 L 117.00 140.00 L 0.00 140.00 L 0.00 0.00 M 31.31 10.60 L 31.81 11.45 C 30.28 11.44 28.75 11.44 27.22 11.44 L 27.95 12.45 C 27.08 12.46 25.35 12.47 24.48 12.47 L 24.54 13.85 C 24.07 13.66 23.13 13.29 22.66 13.11 L 22.62 14.68 C 22.15 14.58 21.22 14.38 20.76 14.28 L 20.56 15.14 C 19.14 15.98 17.78 16.90 16.39 17.79 L 16.83 18.44 L 15.59 18.54 L 15.32 19.80 L 14.11 19.22 L 14.85 20.50 L 13.42 20.42 L 13.58 21.80 L 12.80 21.39 C 11.91 22.77 10.99 24.12 10.16 25.54 C 9.92 25.61 9.45 25.77 9.22 25.84 L 9.78 27.50 L 8.16 27.68 C 8.32 28.15 8.65 29.09 8.81 29.55 L 7.75 29.48 C 6.70 33.26 5.31 37.04 5.40 41.02 C 5.38 60.33 5.39 79.64 5.40 98.95 C 5.31 102.93 6.68 106.72 7.73 110.50 L 8.81 110.46 C 8.64 110.94 8.31 111.88 8.14 112.35 L 9.69 112.40 C 9.59 112.87 9.39 113.81 9.30 114.27 L 10.12 114.40 C 10.94 115.82 11.87 117.18 12.76 118.56 L 13.00 118.53 C 13.83 119.41 14.69 120.26 15.60 121.06 L 15.22 121.92 L 16.66 121.13 L 16.40 122.21 C 17.80 123.11 19.17 124.04 20.61 124.88 L 20.67 125.69 C 21.15 125.60 22.13 125.43 22.61 125.34 L 22.65 126.88 C 23.12 126.70 24.06 126.35 24.53 126.17 L 24.48 127.25 C 28.24 128.31 32.00 129.67 35.95 129.60 C 50.29 129.64 64.62 129.58 78.95 129.62 C 81.56 129.60 84.22 129.71 86.74 128.91 C 89.05 128.58 91.29 127.93 93.52 127.28 L 93.48 126.16 C 93.95 126.34 94.89 126.71 95.36 126.89 L 95.37 125.33 C 95.84 125.42 96.79 125.62 97.26 125.71 L 97.40 124.88 C 98.84 124.04 100.20 123.11 101.60 122.21 L 101.14 121.57 L 102.38 121.46 L 102.71 120.23 L 103.91 120.75 L 103.14 119.45 L 104.62 119.60 L 104.40 118.21 L 105.22 118.60 C 106.10 117.23 107.02 115.88 107.84 114.47 L 108.69 114.24 C 108.60 113.78 108.41 112.86 108.31 112.39 L 109.88 112.35 C 109.71 111.88 109.35 110.93 109.17 110.46 L 110.56 110.50 C 110.55 109.64 110.53 107.92 110.52 107.07 L 111.28 107.77 C 111.88 104.53 112.75 101.31 112.61 97.98 C 112.61 79.30 112.62 60.61 112.61 41.93 C 112.74 38.62 111.87 35.42 111.26 32.20 L 110.53 32.95 C 110.53 32.09 110.55 30.36 110.56 29.50 L 109.17 29.55 C 109.34 29.08 109.70 28.15 109.87 27.68 L 108.21 27.51 L 108.79 25.83 C 108.56 25.76 108.10 25.64 107.87 25.58 C 107.02 24.14 106.08 22.76 105.18 21.37 L 104.04 21.69 L 104.93 20.33 L 103.31 20.71 L 103.70 19.08 L 102.43 19.89 L 102.64 18.37 L 101.23 18.62 L 101.54 17.90 C 99.93 16.75 98.37 15.53 96.77 14.36 L 95.48 14.75 L 95.30 13.12 C 94.84 13.30 93.92 13.67 93.46 13.85 L 93.53 12.47 C 92.66 12.47 90.93 12.45 90.06 12.45 L 90.77 11.44 C 89.24 11.44 87.71 11.44 86.18 11.45 L 86.70 10.60 C 68.25 10.26 49.77 10.26 31.31 10.60 Z" />
<path fill="#000000" opacity="1.00" d=" M 25.36 13.70 C 28.87 12.85 32.32 11.38 36.01 11.59 C 51.35 11.62 66.69 11.63 82.03 11.59 C 85.68 11.39 89.12 12.85 92.61 13.70 L 92.74 14.14 C 94.03 14.63 95.32 15.16 96.62 15.64 L 96.72 16.71 C 97.23 16.57 98.23 16.28 98.73 16.14 L 98.29 17.01 C 101.27 19.10 103.87 21.68 105.96 24.66 L 106.86 24.35 C 106.71 24.83 106.41 25.78 106.27 26.26 L 107.33 26.37 C 107.75 27.55 108.26 28.68 108.85 29.78 C 109.73 32.07 110.42 34.44 111.42 36.69 C 111.34 58.88 111.45 81.08 111.36 103.27 C 110.53 105.34 109.86 107.47 109.26 109.61 L 108.86 109.72 C 108.38 111.02 107.87 112.30 107.37 113.60 L 106.27 113.75 C 106.42 114.22 106.70 115.17 106.85 115.64 L 105.96 115.39 C 103.83 118.34 101.26 120.92 98.28 123.00 L 98.71 123.89 C 98.23 123.74 97.25 123.43 96.77 123.28 L 96.55 124.21 C 95.01 125.01 93.47 125.81 91.92 126.58 C 91.55 126.47 90.80 126.26 90.42 126.15 L 90.87 127.23 C 87.89 127.45 85.02 128.54 82.00 128.41 C 65.26 128.33 48.52 128.48 31.79 128.33 C 30.30 127.68 28.70 127.40 27.11 127.18 L 27.61 126.15 C 27.23 126.25 26.46 126.47 26.08 126.57 C 24.53 125.82 23.00 125.02 21.49 124.20 L 21.24 123.31 C 20.76 123.44 19.79 123.69 19.31 123.82 L 19.88 122.31 L 18.85 122.69 C 16.61 120.56 14.42 118.37 12.30 116.12 L 12.73 115.14 L 11.19 115.68 C 11.32 115.19 11.57 114.22 11.70 113.74 L 10.66 113.61 C 10.43 112.99 9.95 111.74 9.71 111.12 C 9.36 110.59 8.66 109.55 8.32 109.02 C 8.45 108.61 8.71 107.79 8.84 107.38 L 7.83 107.90 C 7.59 106.31 7.31 104.71 6.67 103.22 C 6.57 81.08 6.57 58.93 6.67 36.79 C 7.32 35.30 7.59 33.69 7.83 32.08 L 8.83 32.64 C 8.72 32.25 8.52 31.48 8.41 31.10 C 9.19 29.54 9.99 27.99 10.81 26.45 L 11.73 26.25 C 11.58 25.77 11.28 24.81 11.13 24.33 L 12.03 24.67 C 14.13 21.71 16.71 19.11 19.68 17.02 L 19.31 16.13 C 19.80 16.28 20.77 16.58 21.26 16.73 L 21.39 15.64 C 22.70 15.15 24.00 14.63 25.31 14.14 L 25.36 13.70 M 46.70 40.53 C 44.00 42.59 41.22 44.57 38.75 46.92 C 36.97 48.73 37.24 52.10 39.30 53.61 C 41.61 55.69 44.13 57.52 46.61 59.40 C 48.69 61.35 51.56 60.00 54.00 59.89 C 54.00 57.26 54.00 54.63 54.00 52.00 C 54.75 52.00 56.25 52.00 57.00 52.00 C 57.00 51.25 57.00 49.75 57.00 49.00 C 56.25 49.00 54.75 49.00 54.00 49.00 C 54.00 46.03 54.00 43.07 54.00 40.11 C 51.59 40.01 48.77 38.65 46.70 40.53 M 64.00 40.11 C 64.00 43.07 64.00 46.03 64.00 49.00 C 62.00 49.00 60.00 49.00 58.00 49.00 C 58.00 49.75 58.00 51.25 58.00 52.00 C 60.00 52.00 62.00 52.00 64.00 52.00 C 64.00 54.63 64.00 57.26 64.00 59.89 C 66.45 60.00 69.33 61.35 71.41 59.39 C 74.07 57.34 76.84 55.39 79.27 53.06 C 81.03 51.24 80.75 47.89 78.70 46.39 C 76.36 44.29 73.81 42.43 71.31 40.53 C 69.24 38.65 66.41 40.01 64.00 40.11 Z" />
<path fill="#000000" opacity="1.00" d=" M 41.01 50.00 C 44.01 47.67 47.01 45.35 50.00 43.01 C 50.00 47.66 50.00 52.32 50.00 56.97 C 47.00 54.65 44.00 52.33 41.01 50.00 Z" />
<path fill="#000000" opacity="1.00" d=" M 68.00 43.01 C 70.99 45.35 73.99 47.67 76.99 50.00 C 74.00 52.33 71.00 54.65 68.00 56.97 C 68.00 52.32 68.00 47.66 68.00 43.01 Z" />
</g>
<g id="#f6fbf7ff">
<path fill="#f6fbf7" opacity="1.00" d=" M 31.31 10.60 C 49.77 10.26 68.25 10.26 86.70 10.60 L 86.18 11.45 C 87.71 11.44 89.24 11.44 90.77 11.44 L 90.06 12.45 C 90.93 12.45 92.66 12.47 93.53 12.47 L 93.46 13.85 C 93.92 13.67 94.84 13.30 95.30 13.12 L 95.48 14.75 L 96.77 14.36 C 98.37 15.53 99.93 16.75 101.54 17.90 L 101.23 18.62 L 102.64 18.37 L 102.43 19.89 L 103.70 19.08 L 103.31 20.71 L 104.93 20.33 L 104.04 21.69 L 105.18 21.37 C 106.08 22.76 107.02 24.14 107.87 25.58 C 108.10 25.64 108.56 25.76 108.79 25.83 L 108.21 27.51 L 109.87 27.68 C 109.70 28.15 109.34 29.08 109.17 29.55 L 110.56 29.50 C 110.55 30.36 110.53 32.09 110.53 32.95 L 111.26 32.20 C 111.87 35.42 112.74 38.62 112.61 41.93 C 112.62 60.61 112.61 79.30 112.61 97.98 C 112.75 101.31 111.88 104.53 111.28 107.77 L 110.52 107.07 C 110.53 107.92 110.55 109.64 110.56 110.50 L 109.17 110.46 C 109.35 110.93 109.71 111.88 109.88 112.35 L 108.31 112.39 C 108.41 112.86 108.60 113.78 108.69 114.24 L 107.84 114.47 C 107.02 115.88 106.10 117.23 105.22 118.60 L 104.40 118.21 L 104.62 119.60 L 103.14 119.45 L 103.91 120.75 L 102.71 120.23 L 102.38 121.46 L 101.14 121.57 L 101.60 122.21 C 100.20 123.11 98.84 124.04 97.40 124.88 L 97.26 125.71 C 96.79 125.62 95.84 125.42 95.37 125.33 L 95.36 126.89 C 94.89 126.71 93.95 126.34 93.48 126.16 L 93.52 127.28 C 91.29 127.93 89.05 128.58 86.74 128.91 C 84.22 129.71 81.56 129.60 78.95 129.62 C 64.62 129.58 50.29 129.64 35.95 129.60 C 32.00 129.67 28.24 128.31 24.48 127.25 L 24.53 126.17 C 24.06 126.35 23.12 126.70 22.65 126.88 L 22.61 125.34 C 22.13 125.43 21.15 125.60 20.67 125.69 L 20.61 124.88 C 19.17 124.04 17.80 123.11 16.40 122.21 L 16.66 121.13 L 15.22 121.92 L 15.60 121.06 C 14.69 120.26 13.83 119.41 13.00 118.53 L 12.76 118.56 C 11.87 117.18 10.94 115.82 10.12 114.40 L 9.30 114.27 C 9.39 113.81 9.59 112.87 9.69 112.40 L 8.14 112.35 C 8.31 111.88 8.64 110.94 8.81 110.46 L 7.73 110.50 C 6.68 106.72 5.31 102.93 5.40 98.95 C 5.39 79.64 5.38 60.33 5.40 41.02 C 5.31 37.04 6.70 33.26 7.75 29.48 L 8.81 29.55 C 8.65 29.09 8.32 28.15 8.16 27.68 L 9.78 27.50 L 9.22 25.84 C 9.45 25.77 9.92 25.61 10.16 25.54 C 10.99 24.12 11.91 22.77 12.80 21.39 L 13.58 21.80 L 13.42 20.42 L 14.85 20.50 L 14.11 19.22 L 15.32 19.80 L 15.59 18.54 L 16.83 18.44 L 16.39 17.79 C 17.78 16.90 19.14 15.98 20.56 15.14 L 20.76 14.28 C 21.22 14.38 22.15 14.58 22.62 14.68 L 22.66 13.11 C 23.13 13.29 24.07 13.66 24.54 13.85 L 24.48 12.47 C 25.35 12.47 27.08 12.46 27.95 12.45 L 27.22 11.44 C 28.75 11.44 30.28 11.44 31.81 11.45 L 31.31 10.60 M 25.36 13.70 L 25.31 14.14 C 24.00 14.63 22.70 15.15 21.39 15.64 L 21.26 16.73 C 20.77 16.58 19.80 16.28 19.31 16.13 L 19.68 17.02 C 16.71 19.11 14.13 21.71 12.03 24.67 L 11.13 24.33 C 11.28 24.81 11.58 25.77 11.73 26.25 L 10.81 26.45 C 9.99 27.99 9.19 29.54 8.41 31.10 C 8.52 31.48 8.72 32.25 8.83 32.64 L 7.83 32.08 C 7.59 33.69 7.32 35.30 6.67 36.79 C 6.57 58.93 6.57 81.08 6.67 103.22 C 7.31 104.71 7.59 106.31 7.83 107.90 L 8.84 107.38 C 8.71 107.79 8.45 108.61 8.32 109.02 C 8.66 109.55 9.36 110.59 9.71 111.12 C 9.95 111.74 10.43 112.99 10.66 113.61 L 11.70 113.74 C 11.57 114.22 11.32 115.19 11.19 115.68 L 12.73 115.14 L 12.30 116.12 C 14.42 118.37 16.61 120.56 18.85 122.69 L 19.88 122.31 L 19.31 123.82 C 19.79 123.69 20.76 123.44 21.24 123.31 L 21.49 124.20 C 23.00 125.02 24.53 125.82 26.08 126.57 C 26.46 126.47 27.23 126.25 27.61 126.15 L 27.11 127.18 C 28.70 127.40 30.30 127.68 31.79 128.33 C 48.52 128.48 65.26 128.33 82.00 128.41 C 85.02 128.54 87.89 127.45 90.87 127.23 L 90.42 126.15 C 90.80 126.26 91.55 126.47 91.92 126.58 C 93.47 125.81 95.01 125.01 96.55 124.21 L 96.77 123.28 C 97.25 123.43 98.23 123.74 98.71 123.89 L 98.28 123.00 C 101.26 120.92 103.83 118.34 105.96 115.39 L 106.85 115.64 C 106.70 115.17 106.42 114.22 106.27 113.75 L 107.37 113.60 C 107.87 112.30 108.38 111.02 108.86 109.72 L 109.26 109.61 C 109.86 107.47 110.53 105.34 111.36 103.27 C 111.45 81.08 111.34 58.88 111.42 36.69 C 110.42 34.44 109.73 32.07 108.85 29.78 C 108.26 28.68 107.75 27.55 107.33 26.37 L 106.27 26.26 C 106.41 25.78 106.71 24.83 106.86 24.35 L 105.96 24.66 C 103.87 21.68 101.27 19.10 98.29 17.01 L 98.73 16.14 C 98.23 16.28 97.23 16.57 96.72 16.71 L 96.62 15.64 C 95.32 15.16 94.03 14.63 92.74 14.14 L 92.61 13.70 C 89.12 12.85 85.68 11.39 82.03 11.59 C 66.69 11.63 51.35 11.62 36.01 11.59 C 32.32 11.38 28.87 12.85 25.36 13.70 Z" />
<path fill="#f6fbf7" opacity="1.00" d=" M 46.70 40.53 C 48.77 38.65 51.59 40.01 54.00 40.11 C 54.00 43.07 54.00 46.03 54.00 49.00 C 54.75 49.00 56.25 49.00 57.00 49.00 C 57.00 49.75 57.00 51.25 57.00 52.00 C 56.25 52.00 54.75 52.00 54.00 52.00 C 54.00 54.63 54.00 57.26 54.00 59.89 C 51.56 60.00 48.69 61.35 46.61 59.40 C 44.13 57.52 41.61 55.69 39.30 53.61 C 37.24 52.10 36.97 48.73 38.75 46.92 C 41.22 44.57 44.00 42.59 46.70 40.53 M 41.01 50.00 C 44.00 52.33 47.00 54.65 50.00 56.97 C 50.00 52.32 50.00 47.66 50.00 43.01 C 47.01 45.35 44.01 47.67 41.01 50.00 Z" />
<path fill="#f6fbf7" opacity="1.00" d=" M 64.00 40.11 C 66.41 40.01 69.24 38.65 71.31 40.53 C 73.81 42.43 76.36 44.29 78.70 46.39 C 80.75 47.89 81.03 51.24 79.27 53.06 C 76.84 55.39 74.07 57.34 71.41 59.39 C 69.33 61.35 66.45 60.00 64.00 59.89 C 64.00 57.26 64.00 54.63 64.00 52.00 C 62.00 52.00 60.00 52.00 58.00 52.00 C 58.00 51.25 58.00 49.75 58.00 49.00 C 60.00 49.00 62.00 49.00 64.00 49.00 C 64.00 46.03 64.00 43.07 64.00 40.11 M 68.00 43.01 C 68.00 47.66 68.00 52.32 68.00 56.97 C 71.00 54.65 74.00 52.33 76.99 50.00 C 73.99 47.67 70.99 45.35 68.00 43.01 Z" />
</g>
</svg>
