<?xml version="1.0" encoding="UTF-8" ?>
<!DOCTYPE svg PUBLIC "-//W3C//DTD SVG 1.1//EN" "http://www.w3.org/Graphics/SVG/1.1/DTD/svg11.dtd">
<svg width="45px" height="45px" viewBox="0 0 45 45" version="1.1" xmlns="http://www.w3.org/2000/svg">
<g id="#000000ff">
<path fill="#000000" opacity="1.00" d=" M 0.00 0.00 L 45.00 0.00 L 45.00 45.00 L 0.00 45.00 L 0.00 0.00 M 16.80 6.35 C 16.81 9.97 16.81 13.59 16.81 17.22 C 14.81 17.22 12.81 17.22 10.80 17.22 C 10.80 18.75 10.81 20.29 10.81 21.82 C 12.69 21.80 14.58 21.79 16.47 21.75 C 16.28 25.64 18.95 28.38 21.38 31.01 C 21.41 32.19 21.58 33.37 21.77 34.53 L 24.48 33.31 L 23.29 32.29 C 25.88 29.29 29.53 26.57 29.39 22.18 C 31.19 22.22 32.99 22.25 34.79 22.28 C 34.94 20.60 35.07 18.92 35.19 17.24 C 33.18 17.23 31.16 17.22 29.14 17.20 C 29.16 13.61 29.15 10.02 29.19 6.43 C 25.06 6.22 20.93 6.27 16.80 6.35 M 17.46 33.99 C 17.41 34.66 17.32 36.00 17.27 36.67 L 17.94 36.84 C 18.58 35.76 18.42 34.81 17.46 33.99 Z" />
<path fill="#000000" opacity="1.00" d=" M 17.19 8.94 C 19.86 8.64 22.56 8.70 25.25 8.69 C 25.30 8.98 25.41 9.56 25.46 9.84 C 22.70 9.91 19.57 10.81 17.19 8.94 Z" />
<path fill="#000000" opacity="1.00" d=" M 17.20 11.62 C 19.30 11.36 21.43 11.35 23.54 11.54 C 21.70 12.94 19.14 12.71 17.20 11.62 Z" />
<path fill="#000000" opacity="1.00" d=" M 20.90 21.25 C 21.65 20.69 22.40 20.13 23.15 19.56 C 23.43 19.61 24.00 19.70 24.29 19.74 C 24.29 22.12 24.29 24.49 24.33 26.87 C 23.95 26.81 23.17 26.70 22.79 26.65 C 22.82 24.82 22.85 23.00 22.87 21.18 C 22.37 21.19 21.39 21.23 20.90 21.25 Z" />
</g>
<g id="#f8fcf8ff">
<path fill="#f8fcf8" opacity="1.00" d=" M 16.80 6.35 C 20.93 6.27 25.06 6.22 29.19 6.43 C 29.15 10.02 29.16 13.61 29.14 17.20 C 31.16 17.22 33.18 17.23 35.19 17.24 C 35.07 18.92 34.94 20.60 34.79 22.28 C 32.99 22.25 31.19 22.22 29.39 22.18 C 29.53 26.57 25.88 29.29 23.29 32.29 L 24.48 33.31 L 21.77 34.53 C 21.58 33.37 21.41 32.19 21.38 31.01 C 18.95 28.38 16.28 25.64 16.47 21.75 C 14.58 21.79 12.69 21.80 10.81 21.82 C 10.81 20.29 10.80 18.75 10.80 17.22 C 12.81 17.22 14.81 17.22 16.81 17.22 C 16.81 13.59 16.81 9.97 16.80 6.35 M 17.19 8.94 C 19.57 10.81 22.70 9.91 25.46 9.84 C 25.41 9.56 25.30 8.98 25.25 8.69 C 22.56 8.70 19.86 8.64 17.19 8.94 M 17.20 11.62 C 19.14 12.71 21.70 12.94 23.54 11.54 C 21.43 11.35 19.30 11.36 17.20 11.62 M 20.90 21.25 C 21.39 21.23 22.37 21.19 22.87 21.18 C 22.85 23.00 22.82 24.82 22.79 26.65 C 23.17 26.70 23.95 26.81 24.33 26.87 C 24.29 24.49 24.29 22.12 24.29 19.74 C 24.00 19.70 23.43 19.61 23.15 19.56 C 22.40 20.13 21.65 20.69 20.90 21.25 Z" />
<path fill="#f8fcf8" opacity="1.00" d=" M 17.46 33.99 C 18.42 34.81 18.58 35.76 17.94 36.84 L 17.27 36.67 C 17.32 36.00 17.41 34.66 17.46 33.99 Z" />
</g>
</svg>
