<?xml version="1.0" encoding="UTF-8" ?>
<!DOCTYPE svg PUBLIC "-//W3C//DTD SVG 1.1//EN" "http://www.w3.org/Graphics/SVG/1.1/DTD/svg11.dtd">
<svg width="150px" height="80px" viewBox="0 0 150 80" version="1.1" xmlns="http://www.w3.org/2000/svg">
<g id="#000000ff">
<path fill="#000000" opacity="1.00" d=" M 0.00 0.00 L 150.00 0.00 L 150.00 80.00 L 0.00 80.00 L 0.00 0.00 M 6.47 5.78 C 2.90 6.67 1.12 10.49 1.38 13.93 C 1.36 30.64 1.45 47.35 1.34 64.06 C 1.39 66.76 1.21 69.79 3.06 72.00 C 4.68 74.07 7.43 74.66 9.93 74.62 C 53.31 74.60 96.69 74.60 140.07 74.62 C 142.57 74.65 145.33 74.07 146.95 71.99 C 148.78 69.78 148.60 66.75 148.66 64.06 C 148.57 47.68 148.60 31.30 148.65 14.93 C 148.62 12.54 148.56 9.93 146.94 8.01 C 145.33 5.93 142.57 5.34 140.07 5.38 C 96.69 5.40 53.31 5.40 9.93 5.38 C 8.76 5.38 7.61 5.51 6.47 5.78 Z" />
<path fill="#000000" opacity="1.00" d=" M 7.22 6.95 C 11.10 6.24 15.08 6.69 19.00 6.60 C 59.03 6.61 99.05 6.64 139.07 6.58 C 141.55 6.56 144.43 6.90 146.01 9.07 C 147.68 11.34 147.36 14.31 147.44 16.96 C 147.31 33.33 147.45 49.70 147.39 66.07 C 147.54 69.07 145.91 72.35 142.78 73.05 C 138.90 73.76 134.92 73.31 131.00 73.40 C 90.98 73.39 50.95 73.36 10.93 73.42 C 8.45 73.44 5.57 73.10 3.99 70.94 C 2.14 68.35 2.68 65.00 2.56 62.02 C 2.69 45.99 2.54 29.96 2.61 13.94 C 2.47 10.94 4.08 7.64 7.22 6.95 M 42.14 28.98 C 41.96 36.60 41.67 44.27 42.34 51.88 C 44.05 51.98 45.77 51.92 47.47 51.65 C 47.97 44.14 47.72 36.60 47.65 29.09 C 45.82 28.99 43.98 28.96 42.14 28.98 M 52.53 29.20 C 51.79 36.76 51.31 44.60 52.87 52.08 C 57.67 48.64 61.95 44.47 65.75 39.96 C 61.85 35.86 57.66 31.71 52.53 29.20 Z" />
</g>
<g id="#f6faf7ff">
<path fill="#f6faf7" opacity="1.00" d=" M 6.47 5.78 C 7.61 5.51 8.76 5.38 9.93 5.38 C 53.31 5.40 96.69 5.40 140.07 5.38 C 142.57 5.34 145.33 5.93 146.94 8.01 C 148.56 9.93 148.62 12.54 148.65 14.93 C 148.60 31.30 148.57 47.68 148.66 64.06 C 148.60 66.75 148.78 69.78 146.95 71.99 C 145.33 74.07 142.57 74.65 140.07 74.62 C 96.69 74.60 53.31 74.60 9.93 74.62 C 7.43 74.66 4.68 74.07 3.06 72.00 C 1.21 69.79 1.39 66.76 1.34 64.06 C 1.45 47.35 1.36 30.64 1.38 13.93 C 1.12 10.49 2.90 6.67 6.47 5.78 M 7.22 6.95 C 4.08 7.64 2.47 10.94 2.61 13.94 C 2.54 29.96 2.69 45.99 2.56 62.02 C 2.68 65.00 2.14 68.35 3.99 70.94 C 5.57 73.10 8.45 73.44 10.93 73.42 C 50.95 73.36 90.98 73.39 131.00 73.40 C 134.92 73.31 138.90 73.76 142.78 73.05 C 145.91 72.35 147.54 69.07 147.39 66.07 C 147.45 49.70 147.31 33.33 147.44 16.96 C 147.36 14.31 147.68 11.34 146.01 9.07 C 144.43 6.90 141.55 6.56 139.07 6.58 C 99.05 6.64 59.03 6.61 19.00 6.60 C 15.08 6.69 11.10 6.24 7.22 6.95 Z" />
<path fill="#f6faf7" opacity="1.00" d=" M 42.14 28.98 C 43.98 28.96 45.82 28.99 47.65 29.09 C 47.72 36.60 47.97 44.14 47.47 51.65 C 45.77 51.92 44.05 51.98 42.34 51.88 C 41.67 44.27 41.96 36.60 42.14 28.98 Z" />
<path fill="#f6faf7" opacity="1.00" d=" M 52.53 29.20 C 57.66 31.71 61.85 35.86 65.75 39.96 C 61.95 44.47 57.67 48.64 52.87 52.08 C 51.31 44.60 51.79 36.76 52.53 29.20 Z" />
</g>
</svg>
