<?xml version="1.0" encoding="UTF-8" ?>
<!DOCTYPE svg PUBLIC "-//W3C//DTD SVG 1.1//EN" "http://www.w3.org/Graphics/SVG/1.1/DTD/svg11.dtd">
<svg width="117px" height="140px" viewBox="0 0 117 140" version="1.1" xmlns="http://www.w3.org/2000/svg">
<g id="#000000ff">
<path fill="#000000" opacity="1.00" d=" M 0.00 0.00 L 117.00 0.00 L 117.00 140.00 L 0.00 140.00 L 0.00 0.00 M 27.18 11.62 L 27.97 12.44 C 27.09 12.44 25.35 12.46 24.47 12.46 L 24.52 13.83 C 24.05 13.64 23.12 13.28 22.66 13.09 L 22.60 14.64 C 22.14 14.55 21.21 14.37 20.75 14.28 L 20.56 15.24 C 19.05 15.90 17.74 16.90 16.40 17.83 L 16.69 18.81 L 15.35 18.13 L 15.55 19.23 C 14.27 19.51 13.51 20.29 13.26 21.58 L 12.74 21.47 C 11.86 22.82 10.96 24.16 10.17 25.57 L 9.26 25.75 C 9.36 26.21 9.56 27.13 9.67 27.59 L 8.15 27.64 C 8.30 28.11 8.61 29.06 8.76 29.53 L 7.63 29.52 C 6.79 33.32 5.23 37.01 5.39 40.97 C 5.36 60.32 5.36 79.68 5.39 99.03 C 5.22 103.00 6.80 106.69 7.63 110.50 L 8.80 110.50 C 8.63 110.96 8.28 111.88 8.11 112.34 L 9.64 112.40 C 9.55 112.86 9.39 113.80 9.31 114.27 L 10.19 114.46 C 10.94 115.88 11.87 117.20 12.76 118.54 L 13.26 118.42 C 13.52 119.73 14.30 120.51 15.60 120.78 L 15.30 121.85 L 16.67 121.24 L 16.40 122.20 C 17.73 123.10 19.05 124.02 20.49 124.75 L 20.76 125.70 C 21.23 125.62 22.16 125.46 22.63 125.38 L 22.65 126.91 C 23.11 126.73 24.04 126.36 24.51 126.17 L 24.46 127.54 C 25.32 127.54 27.04 127.54 27.90 127.54 L 27.24 128.60 C 28.77 128.58 30.30 128.55 31.83 128.51 L 31.27 129.41 C 49.74 129.76 68.24 129.75 86.72 129.41 L 86.19 128.52 C 87.72 128.55 89.25 128.58 90.79 128.59 L 90.08 127.55 C 90.94 127.55 92.66 127.54 93.53 127.54 L 93.51 126.16 C 93.97 126.35 94.89 126.74 95.34 126.93 L 95.37 125.37 C 95.84 125.46 96.79 125.63 97.26 125.71 L 97.44 124.82 C 98.89 124.04 100.24 123.10 101.61 122.20 L 101.34 121.16 L 102.70 121.82 L 102.36 120.27 L 103.98 120.67 L 103.24 119.15 L 104.94 119.81 L 104.12 118.33 L 105.19 118.64 C 106.10 117.29 107.00 115.94 107.74 114.49 L 108.70 114.25 C 108.61 113.79 108.44 112.86 108.36 112.39 L 109.90 112.35 C 109.72 111.88 109.37 110.96 109.19 110.49 L 110.56 110.51 C 110.56 109.66 110.54 107.96 110.53 107.10 L 111.40 107.77 C 111.58 104.81 112.72 101.99 112.61 99.01 C 112.63 79.66 112.64 60.31 112.60 40.96 C 112.74 37.00 111.22 33.30 110.35 29.51 L 109.23 29.53 C 109.39 29.06 109.70 28.11 109.86 27.64 L 108.33 27.59 C 108.43 27.13 108.62 26.21 108.72 25.75 L 107.77 25.55 C 107.07 24.05 106.08 22.71 105.15 21.34 L 104.11 21.71 L 104.95 20.26 L 103.28 20.77 L 103.88 19.27 L 102.31 19.72 L 102.70 18.15 L 101.30 18.85 L 101.63 17.82 C 100.26 16.90 98.90 15.97 97.44 15.19 L 97.26 14.28 C 96.79 14.37 95.85 14.55 95.38 14.64 L 95.35 13.12 C 94.89 13.29 93.96 13.62 93.50 13.79 L 93.48 12.68 C 91.11 11.95 88.74 11.16 86.22 11.42 L 86.70 10.59 C 70.14 10.12 53.57 10.50 37.01 10.37 C 33.66 10.15 30.48 11.32 27.18 11.62 Z" />
<path fill="#000000" opacity="1.00" d=" M 25.41 13.63 C 27.50 13.10 29.58 12.52 31.73 12.27 L 31.16 11.52 C 48.82 11.79 66.49 11.51 84.15 11.66 C 86.42 11.92 88.60 12.75 90.92 12.69 L 90.34 13.84 C 90.77 13.72 91.62 13.47 92.04 13.35 C 93.31 14.41 94.79 15.36 96.48 15.54 L 96.74 16.67 C 97.23 16.57 98.21 16.36 98.70 16.26 L 98.13 17.77 L 99.16 17.22 C 101.33 19.48 103.48 21.78 105.84 23.84 L 105.16 24.86 L 106.73 24.30 C 106.63 24.79 106.43 25.77 106.33 26.26 L 107.45 26.48 C 107.71 28.16 108.57 29.65 109.65 30.93 C 109.53 31.34 109.30 32.17 109.18 32.58 L 110.43 32.17 C 110.46 33.68 110.50 35.19 110.55 36.70 L 111.48 36.17 C 111.31 58.71 111.31 81.27 111.48 103.81 L 110.75 103.32 C 110.46 105.45 109.87 107.53 109.40 109.63 L 108.71 109.72 C 108.36 111.02 107.94 112.30 107.44 113.56 L 106.32 113.72 C 106.43 114.22 106.64 115.20 106.75 115.69 L 105.19 115.13 L 105.83 116.16 C 103.48 118.23 101.32 120.52 99.15 122.78 L 98.14 122.22 L 98.70 123.74 C 98.21 123.64 97.23 123.44 96.75 123.34 L 96.48 124.46 C 95.23 124.89 93.98 125.34 92.72 125.75 L 92.58 126.38 C 89.39 126.84 86.42 128.47 83.15 128.38 C 67.78 128.39 52.41 128.35 37.04 128.39 C 32.88 128.55 28.59 127.61 24.89 125.72 C 23.77 125.27 22.64 124.84 21.50 124.44 L 21.26 123.34 C 20.78 123.44 19.80 123.62 19.31 123.72 L 19.84 122.17 L 18.84 122.82 C 16.75 120.48 14.48 118.29 12.19 116.14 L 12.83 115.15 L 11.29 115.69 C 11.38 115.20 11.56 114.21 11.65 113.72 L 10.63 113.55 C 10.25 111.88 9.44 110.31 8.33 109.01 C 8.46 108.60 8.70 107.80 8.83 107.39 L 7.58 107.87 C 7.54 106.35 7.50 104.82 7.44 103.31 L 6.52 103.81 C 6.69 81.27 6.69 58.72 6.52 36.18 L 7.43 36.70 C 7.50 35.12 7.57 33.55 7.63 31.97 L 8.83 32.76 C 8.71 32.32 8.49 31.44 8.37 31.00 C 9.85 28.64 11.01 26.08 12.57 23.76 C 14.46 21.38 16.90 19.52 18.84 17.19 L 19.86 17.80 L 19.31 16.27 C 19.80 16.37 20.79 16.57 21.28 16.67 L 21.46 15.62 C 22.74 15.17 24.01 14.69 25.29 14.24 L 25.41 13.63 M 57.19 27.05 C 57.20 34.32 57.24 41.60 57.15 48.87 C 57.95 48.89 59.54 48.93 60.34 48.95 C 60.34 41.63 60.33 34.31 60.34 26.99 C 59.55 27.01 57.97 27.04 57.19 27.05 M 33.25 59.51 C 34.60 70.11 43.53 79.22 54.13 80.69 C 62.63 82.09 71.70 78.73 77.14 72.04 C 82.70 65.64 84.37 56.34 81.83 48.31 C 80.09 42.61 76.03 37.95 71.24 34.54 C 70.44 35.33 69.64 36.12 68.85 36.91 C 75.53 40.79 79.96 48.24 79.85 56.00 C 79.96 64.95 73.97 73.54 65.53 76.50 C 58.19 79.31 49.44 77.63 43.59 72.41 C 37.08 66.85 34.44 57.24 37.25 49.14 C 38.83 43.97 42.57 39.69 47.15 36.90 C 46.35 36.12 45.55 35.33 44.76 34.54 C 36.65 39.90 31.68 49.78 33.25 59.51 Z" />
</g>
<g id="#eff4f4ff">
<path fill="#eff4f4" opacity="1.00" d=" M 27.18 11.62 C 30.48 11.32 33.66 10.15 37.01 10.37 C 53.57 10.50 70.14 10.12 86.70 10.59 L 86.22 11.42 C 88.74 11.16 91.11 11.95 93.48 12.68 L 93.50 13.79 C 93.96 13.62 94.89 13.29 95.35 13.12 L 95.38 14.64 C 95.85 14.55 96.79 14.37 97.26 14.28 L 97.44 15.19 C 98.90 15.97 100.26 16.90 101.63 17.82 L 101.30 18.85 L 102.70 18.15 L 102.31 19.72 L 103.88 19.27 L 103.28 20.77 L 104.95 20.26 L 104.11 21.71 L 105.15 21.34 C 106.08 22.71 107.07 24.05 107.77 25.55 L 108.72 25.75 C 108.62 26.21 108.43 27.13 108.33 27.59 L 109.86 27.64 C 109.70 28.11 109.39 29.06 109.23 29.53 L 110.35 29.51 C 111.22 33.30 112.74 37.00 112.60 40.96 C 112.64 60.31 112.63 79.66 112.61 99.01 C 112.72 101.99 111.58 104.81 111.40 107.77 L 110.53 107.10 C 110.54 107.96 110.56 109.66 110.56 110.51 L 109.19 110.49 C 109.37 110.96 109.72 111.88 109.90 112.35 L 108.36 112.39 C 108.44 112.86 108.61 113.79 108.70 114.25 L 107.74 114.49 C 107.00 115.94 106.10 117.29 105.19 118.64 L 104.12 118.33 L 104.94 119.81 L 103.24 119.15 L 103.98 120.67 L 102.36 120.27 L 102.70 121.82 L 101.34 121.16 L 101.61 122.20 C 100.24 123.10 98.89 124.04 97.44 124.82 L 97.26 125.71 C 96.79 125.63 95.84 125.46 95.37 125.37 L 95.34 126.93 C 94.89 126.74 93.97 126.35 93.51 126.16 L 93.53 127.54 C 92.66 127.54 90.94 127.55 90.08 127.55 L 90.79 128.59 C 89.25 128.58 87.72 128.55 86.19 128.52 L 86.72 129.41 C 68.24 129.75 49.74 129.76 31.27 129.41 L 31.83 128.51 C 30.30 128.55 28.77 128.58 27.24 128.60 L 27.90 127.54 C 27.04 127.54 25.32 127.54 24.46 127.54 L 24.51 126.17 C 24.04 126.36 23.11 126.73 22.65 126.91 L 22.63 125.38 C 22.16 125.46 21.23 125.62 20.76 125.70 L 20.49 124.75 C 19.05 124.02 17.73 123.10 16.40 122.20 L 16.67 121.24 L 15.30 121.85 L 15.60 120.78 C 14.30 120.51 13.52 119.73 13.26 118.42 L 12.76 118.54 C 11.87 117.20 10.94 115.88 10.19 114.46 L 9.31 114.27 C 9.39 113.80 9.55 112.86 9.64 112.40 L 8.11 112.34 C 8.28 111.88 8.63 110.96 8.80 110.50 L 7.63 110.50 C 6.80 106.69 5.22 103.00 5.39 99.03 C 5.36 79.68 5.36 60.32 5.39 40.97 C 5.23 37.01 6.79 33.32 7.63 29.52 L 8.76 29.53 C 8.61 29.06 8.30 28.11 8.15 27.64 L 9.67 27.59 C 9.56 27.13 9.36 26.21 9.26 25.75 L 10.17 25.57 C 10.96 24.16 11.86 22.82 12.74 21.47 L 13.26 21.58 C 13.51 20.29 14.27 19.51 15.55 19.23 L 15.35 18.13 L 16.69 18.81 L 16.40 17.83 C 17.74 16.90 19.05 15.90 20.56 15.24 L 20.75 14.28 C 21.21 14.37 22.14 14.55 22.60 14.64 L 22.66 13.09 C 23.12 13.28 24.05 13.64 24.52 13.83 L 24.47 12.46 C 25.35 12.46 27.09 12.44 27.97 12.44 L 27.18 11.62 M 25.41 13.63 L 25.29 14.24 C 24.01 14.69 22.74 15.17 21.46 15.62 L 21.28 16.67 C 20.79 16.57 19.80 16.37 19.31 16.27 L 19.86 17.80 L 18.84 17.19 C 16.90 19.52 14.46 21.38 12.57 23.76 C 11.01 26.08 9.85 28.64 8.37 31.00 C 8.49 31.44 8.71 32.32 8.83 32.76 L 7.63 31.97 C 7.57 33.55 7.50 35.12 7.43 36.70 L 6.52 36.18 C 6.69 58.72 6.69 81.27 6.52 103.81 L 7.44 103.31 C 7.50 104.82 7.54 106.35 7.58 107.87 L 8.83 107.39 C 8.70 107.80 8.46 108.60 8.33 109.01 C 9.44 110.31 10.25 111.88 10.63 113.55 L 11.65 113.72 C 11.56 114.21 11.38 115.20 11.29 115.69 L 12.83 115.15 L 12.19 116.14 C 14.48 118.29 16.75 120.48 18.84 122.82 L 19.84 122.17 L 19.31 123.72 C 19.80 123.62 20.78 123.44 21.26 123.34 L 21.50 124.44 C 22.64 124.84 23.77 125.27 24.89 125.72 C 28.59 127.61 32.88 128.55 37.04 128.39 C 52.41 128.35 67.78 128.39 83.15 128.38 C 86.42 128.47 89.39 126.84 92.58 126.38 L 92.72 125.75 C 93.98 125.34 95.23 124.89 96.48 124.46 L 96.75 123.34 C 97.23 123.44 98.21 123.64 98.70 123.74 L 98.14 122.22 L 99.15 122.78 C 101.32 120.52 103.48 118.23 105.83 116.16 L 105.19 115.13 L 106.75 115.69 C 106.64 115.20 106.43 114.22 106.32 113.72 L 107.44 113.56 C 107.94 112.30 108.36 111.02 108.71 109.72 L 109.40 109.63 C 109.87 107.53 110.46 105.45 110.75 103.32 L 111.48 103.81 C 111.31 81.27 111.31 58.71 111.48 36.17 L 110.55 36.70 C 110.50 35.19 110.46 33.68 110.43 32.17 L 109.18 32.58 C 109.30 32.17 109.53 31.34 109.65 30.93 C 108.57 29.65 107.71 28.16 107.45 26.48 L 106.33 26.26 C 106.43 25.77 106.63 24.79 106.73 24.30 L 105.16 24.86 L 105.84 23.84 C 103.48 21.78 101.33 19.48 99.16 17.22 L 98.13 17.77 L 98.70 16.26 C 98.21 16.36 97.23 16.57 96.74 16.67 L 96.48 15.54 C 94.79 15.36 93.31 14.41 92.04 13.35 C 91.62 13.47 90.77 13.72 90.34 13.84 L 90.92 12.69 C 88.60 12.75 86.42 11.92 84.15 11.66 C 66.49 11.51 48.82 11.79 31.16 11.52 L 31.73 12.27 C 29.58 12.52 27.50 13.10 25.41 13.63 Z" />
<path fill="#eff4f4" opacity="1.00" d=" M 57.19 27.05 C 57.97 27.04 59.55 27.01 60.34 26.99 C 60.33 34.31 60.34 41.63 60.34 48.95 C 59.54 48.93 57.95 48.89 57.15 48.87 C 57.24 41.60 57.20 34.32 57.19 27.05 Z" />
<path fill="#eff4f4" opacity="1.00" d=" M 33.25 59.51 C 31.68 49.78 36.65 39.90 44.76 34.54 C 45.55 35.33 46.35 36.12 47.15 36.90 C 42.57 39.69 38.83 43.97 37.25 49.14 C 34.44 57.24 37.08 66.85 43.59 72.41 C 49.44 77.63 58.19 79.31 65.53 76.50 C 73.97 73.54 79.96 64.95 79.85 56.00 C 79.96 48.24 75.53 40.79 68.85 36.91 C 69.64 36.12 70.44 35.33 71.24 34.54 C 76.03 37.95 80.09 42.61 81.83 48.31 C 84.37 56.34 82.70 65.64 77.14 72.04 C 71.70 78.73 62.63 82.09 54.13 80.69 C 43.53 79.22 34.60 70.11 33.25 59.51 Z" />
</g>
</svg>
