<?xml version="1.0" encoding="UTF-8" ?>
<!DOCTYPE svg PUBLIC "-//W3C//DTD SVG 1.1//EN" "http://www.w3.org/Graphics/SVG/1.1/DTD/svg11.dtd">
<svg width="117px" height="140px" viewBox="0 0 117 140" version="1.1" xmlns="http://www.w3.org/2000/svg">
<g id="#000000ff">
<path fill="#000000" opacity="1.00" d=" M 0.00 0.00 L 117.00 0.00 L 117.00 140.00 L 0.00 140.00 L 0.00 0.00 M 32.13 10.48 L 32.97 11.32 C 30.03 11.15 27.19 11.79 24.44 12.76 L 24.55 13.83 C 24.08 13.66 23.14 13.31 22.67 13.14 L 22.53 14.78 L 20.86 14.23 C 20.78 14.45 20.61 14.90 20.53 15.13 C 19.11 15.98 17.75 16.92 16.37 17.83 L 16.78 18.07 C 16.36 18.49 15.52 19.32 15.10 19.74 L 14.12 19.01 L 14.66 20.10 C 14.27 20.53 13.48 21.40 13.09 21.83 L 12.85 21.35 C 11.93 22.74 10.99 24.11 10.13 25.54 C 9.90 25.62 9.45 25.78 9.23 25.85 L 9.77 27.52 L 8.11 27.69 C 8.30 28.16 8.67 29.08 8.86 29.55 L 7.47 29.48 C 7.47 30.36 7.45 32.11 7.44 32.98 L 6.44 32.21 C 6.43 33.76 6.44 35.31 6.46 36.87 C 6.24 36.72 5.80 36.42 5.58 36.27 C 5.27 58.77 5.26 81.28 5.58 103.78 L 6.45 103.05 C 6.43 104.63 6.43 106.21 6.45 107.79 L 7.46 107.04 C 7.45 107.90 7.44 109.61 7.43 110.47 L 8.84 110.46 C 8.66 110.93 8.29 111.87 8.11 112.34 L 9.69 112.40 C 9.59 112.87 9.39 113.81 9.29 114.28 L 10.09 114.36 C 10.94 115.82 11.90 117.21 12.81 118.63 L 13.10 118.23 C 13.51 118.64 14.33 119.47 14.75 119.88 L 13.99 120.86 L 15.09 120.31 C 15.53 120.72 16.40 121.53 16.83 121.94 L 16.34 122.17 C 17.77 123.09 19.17 124.05 20.64 124.91 L 20.74 125.73 C 21.21 125.63 22.16 125.41 22.63 125.31 L 22.63 126.89 C 23.11 126.71 24.08 126.35 24.56 126.17 L 24.48 127.54 C 25.35 127.54 27.08 127.53 27.94 127.53 L 27.19 128.27 C 30.43 128.83 33.64 129.75 36.96 129.61 C 53.29 129.55 69.61 129.72 85.93 129.51 L 84.99 128.68 C 87.94 128.86 90.80 128.24 93.55 127.24 L 93.44 126.17 C 93.92 126.35 94.89 126.70 95.38 126.87 L 95.37 125.31 C 95.85 125.41 96.79 125.63 97.26 125.73 L 97.36 124.92 C 98.82 124.06 100.22 123.10 101.64 122.18 L 101.32 121.10 L 102.77 121.81 L 102.24 120.27 L 104.00 120.87 L 103.16 119.94 C 103.60 119.52 104.48 118.69 104.92 118.27 L 105.18 118.62 C 106.10 117.21 107.06 115.83 107.91 114.38 L 108.71 114.26 C 108.61 113.79 108.41 112.85 108.31 112.37 L 109.88 112.37 C 109.71 111.89 109.35 110.93 109.18 110.45 L 110.54 110.50 C 110.55 109.64 110.55 107.91 110.55 107.05 L 111.57 107.77 C 111.57 106.22 111.56 104.67 111.53 103.12 C 111.75 103.27 112.20 103.57 112.42 103.72 C 112.83 83.48 112.49 63.22 112.62 42.98 C 112.81 39.30 111.98 35.72 111.24 32.15 L 110.52 32.98 C 110.53 32.11 110.55 30.38 110.56 29.51 L 109.18 29.56 C 109.35 29.08 109.70 28.11 109.88 27.62 L 108.31 27.63 C 108.41 27.16 108.62 26.22 108.73 25.75 L 107.91 25.62 C 107.05 24.16 106.09 22.77 105.16 21.34 L 104.05 21.73 L 104.88 20.30 L 103.32 20.73 L 103.76 19.01 L 102.92 19.83 C 102.51 19.39 101.68 18.52 101.27 18.08 L 101.61 17.81 C 100.21 16.89 98.83 15.94 97.39 15.09 L 97.26 14.29 C 96.79 14.38 95.85 14.57 95.38 14.67 L 95.33 13.08 C 94.87 13.28 93.94 13.67 93.47 13.87 L 93.52 12.48 C 92.64 12.47 90.89 12.45 90.01 12.44 L 90.84 11.57 C 89.50 11.48 88.16 11.39 86.83 11.29 C 84.37 10.18 81.63 10.41 79.00 10.38 C 63.38 10.46 47.75 10.28 32.13 10.48 Z" />
<path fill="#000000" opacity="1.00" d=" M 27.06 12.73 C 30.07 12.70 32.96 11.70 35.95 11.61 C 52.63 11.56 69.31 11.70 85.98 11.54 L 85.27 12.14 C 87.81 12.42 90.29 13.05 92.75 13.70 L 92.62 14.68 C 93.08 14.57 94.01 14.33 94.47 14.22 L 94.69 15.59 C 95.15 15.51 96.09 15.35 96.55 15.28 L 96.63 16.73 C 97.15 16.60 98.18 16.34 98.70 16.21 L 98.15 17.87 L 99.54 17.13 L 99.57 17.91 C 101.57 19.58 103.42 21.43 105.09 23.43 L 105.86 23.43 L 105.12 24.79 L 106.78 24.33 C 106.65 24.84 106.39 25.85 106.26 26.36 L 107.72 26.45 C 107.64 26.91 107.49 27.85 107.41 28.31 L 108.78 28.53 C 108.67 28.99 108.44 29.91 108.32 30.38 L 109.30 30.26 C 109.84 32.44 110.46 34.60 110.82 36.83 L 111.46 35.99 C 111.35 58.29 111.35 80.59 111.46 102.88 C 111.31 102.76 111.01 102.53 110.86 102.41 C 110.59 104.91 109.94 107.33 109.31 109.75 L 108.33 109.61 C 108.44 110.07 108.66 111.00 108.77 111.47 L 107.42 111.71 C 107.49 112.17 107.64 113.09 107.72 113.55 L 106.28 113.62 C 106.40 114.14 106.65 115.18 106.77 115.70 L 105.11 115.16 L 105.88 116.53 L 105.10 116.57 C 103.42 118.57 101.58 120.41 99.59 122.09 L 99.53 122.87 L 98.14 122.14 L 98.70 123.78 C 98.18 123.65 97.15 123.40 96.63 123.27 L 96.55 124.72 C 96.09 124.65 95.16 124.49 94.70 124.41 L 94.52 125.72 C 94.05 125.64 93.10 125.48 92.63 125.39 L 92.43 126.89 C 91.91 126.66 90.87 126.20 90.35 125.97 L 90.93 127.27 C 87.94 127.30 85.07 128.30 82.09 128.39 C 65.05 128.44 48.01 128.30 30.98 128.46 L 31.88 127.82 C 29.63 127.46 27.45 126.83 25.24 126.29 L 25.38 125.32 C 24.92 125.43 24.00 125.66 23.53 125.78 L 23.29 124.42 C 22.83 124.49 21.90 124.64 21.44 124.72 L 21.37 123.27 C 20.86 123.40 19.83 123.65 19.31 123.78 L 19.82 122.08 L 18.44 122.89 L 18.43 122.10 C 16.43 120.42 14.58 118.57 12.91 116.57 L 12.13 116.54 L 12.88 115.16 L 11.23 115.70 C 11.35 115.19 11.60 114.16 11.72 113.65 L 10.20 113.47 L 10.65 111.76 C 10.29 111.67 9.55 111.50 9.19 111.42 C 9.32 110.97 9.58 110.09 9.72 109.65 L 8.69 109.74 C 8.05 107.31 7.41 104.87 7.13 102.36 L 6.55 102.97 C 6.65 80.99 6.65 59.01 6.54 37.03 L 7.12 37.63 C 7.42 35.13 8.06 32.69 8.69 30.25 L 9.69 30.37 C 9.58 29.91 9.35 28.98 9.24 28.52 L 10.60 28.31 C 10.52 27.84 10.35 26.91 10.27 26.44 L 11.70 26.40 C 11.59 25.89 11.37 24.86 11.26 24.34 L 12.95 24.71 L 12.06 23.33 L 12.91 23.50 C 14.57 21.46 16.41 19.58 18.44 17.89 L 18.43 17.12 L 19.83 17.88 L 19.30 16.22 C 19.82 16.35 20.85 16.61 21.36 16.74 L 21.46 15.27 C 21.92 15.35 22.85 15.52 23.31 15.60 L 23.48 14.29 C 23.96 14.36 24.90 14.52 25.38 14.60 L 25.59 13.09 C 26.10 13.33 27.14 13.81 27.65 14.04 L 27.06 12.73 M 60.07 41.55 C 54.91 42.45 50.68 46.27 49.73 51.50 C 45.25 51.52 40.78 51.29 36.30 51.37 C 40.70 52.47 45.26 52.21 49.76 52.14 C 50.25 57.57 54.47 61.95 59.86 62.70 C 59.99 67.07 59.29 71.57 60.59 75.83 C 60.67 71.45 60.55 67.08 60.56 62.70 C 66.44 62.41 70.98 57.64 71.50 51.87 C 75.93 51.74 80.36 51.97 84.78 51.62 C 80.36 50.89 75.85 51.34 71.39 51.40 C 70.45 46.09 65.99 42.03 60.59 41.67 C 60.69 37.24 61.08 32.79 60.66 28.36 C 59.97 32.72 60.26 37.15 60.07 41.55 Z" />
</g>
<g id="#f7fbf7ff">
<path fill="#f7fbf7" opacity="1.00" d=" M 32.13 10.48 C 47.75 10.28 63.38 10.46 79.00 10.38 C 81.63 10.41 84.37 10.18 86.83 11.29 C 88.16 11.39 89.50 11.48 90.84 11.57 L 90.01 12.44 C 90.89 12.45 92.64 12.47 93.52 12.48 L 93.47 13.87 C 93.94 13.67 94.87 13.28 95.33 13.08 L 95.38 14.67 C 95.85 14.57 96.79 14.38 97.26 14.29 L 97.39 15.09 C 98.83 15.94 100.21 16.89 101.61 17.81 L 101.27 18.08 C 101.68 18.52 102.51 19.39 102.92 19.83 L 103.76 19.01 L 103.32 20.73 L 104.88 20.30 L 104.05 21.73 L 105.16 21.34 C 106.09 22.77 107.05 24.16 107.91 25.62 L 108.73 25.75 C 108.62 26.22 108.41 27.16 108.31 27.63 L 109.88 27.62 C 109.70 28.11 109.35 29.08 109.18 29.56 L 110.56 29.51 C 110.55 30.38 110.53 32.11 110.52 32.98 L 111.24 32.15 C 111.98 35.72 112.81 39.30 112.62 42.98 C 112.49 63.22 112.83 83.48 112.42 103.72 C 112.20 103.57 111.75 103.27 111.53 103.12 C 111.56 104.67 111.57 106.22 111.57 107.77 L 110.55 107.05 C 110.55 107.91 110.55 109.64 110.54 110.50 L 109.18 110.45 C 109.35 110.93 109.71 111.89 109.88 112.37 L 108.31 112.37 C 108.41 112.85 108.61 113.79 108.71 114.26 L 107.91 114.38 C 107.06 115.83 106.10 117.21 105.18 118.62 L 104.92 118.27 C 104.48 118.69 103.60 119.52 103.16 119.94 L 104.00 120.87 L 102.24 120.27 L 102.77 121.81 L 101.32 121.10 L 101.64 122.18 C 100.22 123.10 98.82 124.06 97.36 124.92 L 97.26 125.73 C 96.79 125.63 95.85 125.41 95.37 125.31 L 95.38 126.87 C 94.89 126.70 93.92 126.35 93.44 126.17 L 93.55 127.24 C 90.80 128.24 87.94 128.86 84.99 128.68 L 85.93 129.51 C 69.61 129.72 53.29 129.55 36.96 129.61 C 33.64 129.75 30.43 128.83 27.19 128.27 L 27.94 127.53 C 27.08 127.53 25.35 127.54 24.48 127.54 L 24.56 126.17 C 24.08 126.35 23.11 126.71 22.63 126.89 L 22.63 125.31 C 22.16 125.41 21.21 125.63 20.74 125.73 L 20.64 124.91 C 19.17 124.05 17.77 123.09 16.34 122.17 L 16.83 121.94 C 16.40 121.53 15.53 120.72 15.09 120.31 L 13.99 120.86 L 14.75 119.88 C 14.33 119.47 13.51 118.64 13.10 118.23 L 12.81 118.63 C 11.90 117.21 10.94 115.82 10.09 114.36 L 9.29 114.28 C 9.39 113.81 9.59 112.87 9.69 112.40 L 8.11 112.34 C 8.29 111.87 8.66 110.93 8.84 110.46 L 7.43 110.47 C 7.44 109.61 7.45 107.90 7.46 107.04 L 6.45 107.79 C 6.43 106.21 6.43 104.63 6.45 103.05 L 5.58 103.78 C 5.26 81.28 5.27 58.77 5.58 36.27 C 5.80 36.42 6.24 36.72 6.46 36.87 C 6.44 35.31 6.43 33.76 6.44 32.21 L 7.44 32.98 C 7.45 32.11 7.47 30.36 7.47 29.48 L 8.86 29.55 C 8.67 29.08 8.30 28.16 8.11 27.69 L 9.77 27.52 L 9.23 25.85 C 9.45 25.78 9.90 25.62 10.13 25.54 C 10.99 24.11 11.93 22.74 12.85 21.35 L 13.09 21.83 C 13.48 21.40 14.27 20.53 14.66 20.10 L 14.12 19.01 L 15.10 19.74 C 15.52 19.32 16.36 18.49 16.78 18.07 L 16.37 17.83 C 17.75 16.92 19.11 15.98 20.53 15.13 C 20.61 14.90 20.78 14.45 20.86 14.23 L 22.53 14.78 L 22.67 13.14 C 23.14 13.31 24.08 13.66 24.55 13.83 L 24.44 12.76 C 27.19 11.79 30.03 11.15 32.97 11.32 L 32.13 10.48 M 27.06 12.73 L 27.65 14.04 C 27.14 13.81 26.10 13.33 25.59 13.09 L 25.38 14.60 C 24.90 14.52 23.96 14.36 23.48 14.29 L 23.31 15.60 C 22.85 15.52 21.92 15.35 21.46 15.27 L 21.36 16.74 C 20.85 16.61 19.82 16.35 19.30 16.22 L 19.83 17.88 L 18.43 17.12 L 18.44 17.89 C 16.41 19.58 14.57 21.46 12.91 23.50 L 12.06 23.33 L 12.95 24.71 L 11.26 24.34 C 11.37 24.86 11.59 25.89 11.70 26.40 L 10.27 26.44 C 10.35 26.91 10.52 27.84 10.60 28.31 L 9.24 28.52 C 9.35 28.98 9.58 29.91 9.69 30.37 L 8.69 30.25 C 8.06 32.69 7.42 35.13 7.12 37.63 L 6.54 37.03 C 6.65 59.01 6.65 80.99 6.55 102.97 L 7.13 102.36 C 7.41 104.87 8.05 107.31 8.69 109.74 L 9.72 109.65 C 9.58 110.09 9.32 110.97 9.19 111.42 C 9.55 111.50 10.29 111.67 10.65 111.76 L 10.20 113.47 L 11.72 113.65 C 11.60 114.16 11.35 115.19 11.23 115.70 L 12.88 115.16 L 12.13 116.54 L 12.91 116.57 C 14.58 118.57 16.43 120.42 18.43 122.10 L 18.44 122.89 L 19.82 122.08 L 19.31 123.78 C 19.83 123.65 20.86 123.40 21.37 123.27 L 21.44 124.72 C 21.90 124.64 22.83 124.49 23.29 124.42 L 23.53 125.78 C 24.00 125.66 24.92 125.43 25.38 125.32 L 25.24 126.29 C 27.45 126.83 29.63 127.46 31.88 127.82 L 30.98 128.46 C 48.01 128.30 65.05 128.44 82.09 128.39 C 85.07 128.30 87.94 127.30 90.93 127.27 L 90.35 125.97 C 90.87 126.20 91.91 126.66 92.43 126.89 L 92.63 125.39 C 93.10 125.48 94.05 125.64 94.52 125.72 L 94.70 124.41 C 95.16 124.49 96.09 124.65 96.55 124.72 L 96.63 123.27 C 97.15 123.40 98.18 123.65 98.70 123.78 L 98.14 122.14 L 99.53 122.87 L 99.59 122.09 C 101.58 120.41 103.42 118.57 105.10 116.57 L 105.88 116.53 L 105.11 115.16 L 106.77 115.70 C 106.65 115.18 106.40 114.14 106.28 113.62 L 107.72 113.55 C 107.64 113.09 107.49 112.17 107.42 111.71 L 108.77 111.47 C 108.66 111.00 108.44 110.07 108.33 109.61 L 109.31 109.75 C 109.94 107.33 110.59 104.91 110.86 102.41 C 111.01 102.53 111.31 102.76 111.46 102.88 C 111.35 80.59 111.35 58.29 111.46 35.99 L 110.82 36.83 C 110.46 34.60 109.84 32.44 109.30 30.26 L 108.32 30.38 C 108.44 29.91 108.67 28.99 108.78 28.53 L 107.41 28.31 C 107.49 27.85 107.64 26.91 107.72 26.45 L 106.26 26.36 C 106.39 25.85 106.65 24.84 106.78 24.33 L 105.12 24.79 L 105.86 23.43 L 105.09 23.43 C 103.42 21.43 101.57 19.58 99.57 17.91 L 99.54 17.13 L 98.15 17.87 L 98.70 16.21 C 98.18 16.34 97.15 16.60 96.63 16.73 L 96.55 15.28 C 96.09 15.35 95.15 15.51 94.69 15.59 L 94.47 14.22 C 94.01 14.33 93.08 14.57 92.62 14.68 L 92.75 13.70 C 90.29 13.05 87.81 12.42 85.27 12.14 L 85.98 11.54 C 69.31 11.70 52.63 11.56 35.95 11.61 C 32.96 11.70 30.07 12.70 27.06 12.73 Z" />
<path fill="#f7fbf7" opacity="1.00" d=" M 60.07 41.55 C 60.26 37.15 59.97 32.72 60.66 28.36 C 61.08 32.79 60.69 37.24 60.59 41.67 C 65.99 42.03 70.45 46.09 71.39 51.40 C 75.85 51.34 80.36 50.89 84.78 51.62 C 80.36 51.97 75.93 51.74 71.50 51.87 C 70.98 57.64 66.44 62.41 60.56 62.70 C 60.55 67.08 60.67 71.45 60.59 75.83 C 59.29 71.57 59.99 67.07 59.86 62.70 C 54.47 61.95 50.25 57.57 49.76 52.14 C 45.26 52.21 40.70 52.47 36.30 51.37 C 40.78 51.29 45.25 51.52 49.73 51.50 C 50.68 46.27 54.91 42.45 60.07 41.55 Z" />
</g>
</svg>
