<?xml version="1.0" encoding="UTF-8" ?>
<!DOCTYPE svg PUBLIC "-//W3C//DTD SVG 1.1//EN" "http://www.w3.org/Graphics/SVG/1.1/DTD/svg11.dtd">
<svg width="117px" height="140px" viewBox="0 0 117 140" version="1.1" xmlns="http://www.w3.org/2000/svg">
<g id="#000000ff">
<path fill="#000000" opacity="1.00" d=" M 0.00 0.00 L 117.00 0.00 L 117.00 140.00 L 0.00 140.00 L 0.00 0.00 M 31.42 10.90 C 29.09 11.48 26.77 12.09 24.45 12.73 L 24.54 13.82 C 24.07 13.64 23.12 13.30 22.65 13.13 L 22.60 14.70 C 22.13 14.59 21.21 14.37 20.74 14.26 L 20.63 15.08 C 19.19 15.93 17.80 16.87 16.40 17.79 L 16.60 18.96 L 15.59 17.99 L 15.56 19.46 L 14.18 19.50 L 14.78 20.74 L 13.77 20.28 C 13.49 20.69 12.93 21.50 12.65 21.91 C 11.76 23.09 10.87 24.28 10.06 25.52 C 9.86 25.60 9.44 25.77 9.23 25.85 L 9.75 27.52 L 8.11 27.69 C 8.30 28.16 8.66 29.09 8.85 29.56 L 7.49 29.46 C 7.46 30.42 7.41 32.35 7.38 33.31 L 6.45 32.08 C 6.43 33.78 6.41 35.48 6.40 37.18 L 5.60 36.05 C 5.24 58.61 5.27 81.20 5.58 103.76 C 5.80 103.60 6.24 103.29 6.46 103.13 C 6.44 104.73 6.43 106.32 6.42 107.92 L 7.39 106.68 C 7.41 107.63 7.44 109.54 7.45 110.49 L 8.80 110.44 C 8.64 110.92 8.30 111.87 8.13 112.35 L 9.70 112.41 C 9.59 112.87 9.38 113.80 9.27 114.26 L 10.09 114.38 C 10.94 115.82 11.88 117.21 12.78 118.62 L 13.15 118.32 C 13.77 119.27 14.39 120.23 15.01 121.20 C 15.44 121.29 16.30 121.49 16.73 121.59 L 16.40 122.22 C 17.80 123.13 19.19 124.06 20.63 124.92 L 20.74 125.72 C 21.21 125.63 22.17 125.43 22.64 125.34 L 22.63 126.90 C 23.11 126.72 24.07 126.35 24.55 126.16 L 24.47 127.51 C 25.45 127.53 27.42 127.58 28.41 127.60 L 27.02 128.25 C 30.00 128.70 32.92 129.64 35.96 129.60 C 50.30 129.64 64.63 129.59 78.97 129.63 C 81.58 129.64 84.21 129.58 86.79 129.11 C 89.05 128.52 91.31 127.90 93.56 127.26 L 93.44 126.18 C 93.93 126.36 94.90 126.70 95.39 126.88 L 95.35 125.35 C 95.72 125.42 96.45 125.55 96.82 125.62 C 98.40 124.42 99.99 123.23 101.61 122.08 L 101.28 121.05 L 102.64 121.92 L 102.33 120.32 L 104.05 120.66 L 102.98 119.57 L 104.42 119.53 L 104.61 118.20 L 105.20 118.62 C 106.10 117.24 107.03 115.87 107.88 114.46 L 108.69 114.23 C 108.60 113.76 108.42 112.83 108.34 112.36 L 109.87 112.39 C 109.70 111.90 109.36 110.93 109.19 110.45 L 110.28 110.56 C 111.04 108.15 111.74 105.71 111.73 103.16 C 111.90 103.31 112.25 103.61 112.42 103.76 C 112.85 83.51 112.49 63.24 112.62 42.99 C 112.81 39.31 112.00 35.73 111.25 32.16 L 110.54 32.97 C 110.54 32.10 110.55 30.35 110.55 29.48 L 109.15 29.55 C 109.34 29.07 109.72 28.11 109.91 27.63 L 108.35 27.65 C 108.44 27.18 108.61 26.24 108.70 25.77 L 107.88 25.55 C 107.03 24.12 106.09 22.75 105.18 21.35 L 104.83 21.79 C 104.45 21.37 103.69 20.53 103.30 20.11 L 103.87 19.14 L 102.89 19.67 C 102.46 19.30 101.61 18.56 101.18 18.18 L 101.63 17.81 C 100.23 16.90 98.85 15.96 97.42 15.10 L 97.24 14.28 C 96.78 14.38 95.86 14.57 95.40 14.67 L 95.34 13.10 C 94.87 13.29 93.93 13.66 93.46 13.84 L 93.53 12.48 C 92.64 12.47 90.85 12.44 89.96 12.43 L 90.87 11.72 C 88.92 11.48 86.97 11.16 85.09 10.56 C 72.09 10.16 59.07 10.49 46.06 10.38 C 41.18 10.51 36.24 9.99 31.42 10.90 Z" />
<path fill="#000000" opacity="1.00" d=" M 32.10 11.55 C 50.00 11.65 67.90 11.67 85.80 11.54 L 85.39 12.17 C 87.86 12.43 90.26 13.05 92.66 13.68 C 92.67 13.94 92.69 14.47 92.70 14.73 L 94.40 14.16 L 94.70 15.59 C 95.16 15.51 96.09 15.36 96.55 15.28 L 96.63 16.73 C 97.15 16.60 98.18 16.36 98.69 16.24 L 98.16 17.94 L 99.54 17.04 L 99.50 17.91 C 101.57 19.56 103.44 21.44 105.10 23.51 L 105.98 23.45 L 105.01 24.80 L 106.72 24.31 C 106.61 24.83 106.40 25.86 106.29 26.38 L 107.73 26.46 C 107.65 26.92 107.48 27.84 107.40 28.30 L 108.77 28.55 C 108.66 29.01 108.43 29.93 108.32 30.39 L 109.30 30.27 C 109.85 32.46 110.46 34.64 110.82 36.88 L 111.45 35.95 C 111.27 58.01 111.48 80.08 111.34 102.15 C 110.64 104.01 110.39 105.98 110.22 107.95 L 109.03 107.30 C 109.24 107.83 109.65 108.90 109.86 109.43 L 108.39 109.63 C 108.47 110.10 108.64 111.03 108.72 111.50 L 107.40 111.71 C 107.48 112.16 107.64 113.07 107.72 113.53 L 106.29 113.63 C 106.40 114.15 106.63 115.20 106.74 115.72 L 105.03 115.12 L 106.00 116.51 L 105.10 116.49 C 103.47 118.51 101.63 120.35 99.65 122.04 L 99.61 122.21 C 97.74 123.31 95.89 124.44 94.06 125.60 C 93.71 125.56 93.00 125.46 92.64 125.42 L 92.40 126.89 C 91.88 126.65 90.85 126.17 90.33 125.93 L 90.94 127.22 C 88.97 127.39 86.99 127.65 85.14 128.36 C 67.07 128.46 49.00 128.29 30.93 128.45 L 31.93 127.82 C 29.68 127.43 27.48 126.82 25.26 126.29 L 25.38 125.32 C 24.92 125.43 24.00 125.66 23.54 125.77 L 23.29 124.41 C 22.83 124.49 21.91 124.64 21.45 124.72 L 21.38 123.29 C 20.86 123.40 19.82 123.63 19.30 123.74 L 19.91 121.93 L 19.00 122.71 C 17.55 121.37 16.08 120.05 14.54 118.82 C 14.56 118.69 14.61 118.43 14.63 118.30 C 14.23 117.82 13.43 116.88 13.04 116.40 L 11.99 116.52 L 12.95 115.08 L 11.28 115.74 C 11.38 115.21 11.59 114.14 11.70 113.61 L 10.27 113.53 C 10.36 113.07 10.52 112.16 10.60 111.70 L 9.22 111.45 C 9.34 110.99 9.57 110.06 9.68 109.60 L 8.70 109.75 C 8.08 107.31 7.44 104.88 7.13 102.38 L 6.55 102.91 C 6.66 80.96 6.65 59.01 6.55 37.07 L 7.13 37.64 C 7.43 35.14 8.08 32.70 8.69 30.26 L 9.69 30.38 C 9.58 29.92 9.36 28.99 9.25 28.53 L 10.61 28.30 C 10.52 27.85 10.35 26.93 10.26 26.47 L 11.70 26.39 C 11.59 25.87 11.39 24.83 11.29 24.32 L 13.03 24.75 L 11.95 23.37 L 12.90 23.56 C 14.54 21.46 16.42 19.57 18.49 17.90 L 18.44 17.04 L 19.83 17.96 L 19.29 16.27 C 19.81 16.38 20.85 16.60 21.37 16.71 L 21.48 15.26 C 21.93 15.35 22.84 15.53 23.30 15.62 L 23.48 14.31 C 23.96 14.38 24.92 14.51 25.40 14.58 L 25.61 13.08 C 26.11 13.32 27.13 13.82 27.64 14.07 L 27.08 12.63 C 28.96 12.55 30.83 12.44 32.71 12.35 L 32.10 11.55 M 39.00 33.00 C 38.85 41.40 38.96 49.81 38.93 58.21 C 38.21 58.40 36.76 58.77 36.03 58.95 C 37.26 62.63 40.67 64.87 43.35 67.43 C 46.24 65.73 48.74 63.38 50.78 60.73 C 50.98 59.26 49.86 58.41 48.65 57.89 C 48.59 49.63 48.61 41.36 48.69 33.10 C 45.47 32.74 42.23 32.81 39.00 33.00 M 68.36 33.08 C 68.49 41.36 68.45 49.65 68.42 57.94 C 67.15 58.42 66.03 59.25 66.24 60.75 C 68.27 63.37 70.70 65.75 73.59 67.42 C 76.03 65.24 78.59 63.11 80.57 60.48 C 81.10 58.82 79.24 58.50 78.14 57.94 C 78.06 49.62 78.29 41.31 78.00 33.00 C 74.79 32.81 71.56 32.75 68.36 33.08 M 33.03 71.11 C 32.95 73.66 32.55 76.29 33.23 78.80 C 36.16 80.05 39.43 79.38 42.52 79.50 C 42.47 80.11 42.38 81.34 42.33 81.95 C 43.03 81.97 44.43 82.01 45.13 82.03 C 45.05 81.40 44.90 80.14 44.82 79.51 C 53.87 79.53 62.92 79.52 71.96 79.51 C 71.96 80.14 71.96 81.40 71.96 82.02 C 72.64 82.01 73.99 81.98 74.66 81.96 C 74.62 81.35 74.53 80.11 74.49 79.50 C 77.58 79.38 80.85 80.06 83.78 78.79 C 84.45 76.28 84.05 73.66 83.97 71.11 C 66.99 70.93 50.01 70.93 33.03 71.11 Z" />
<path fill="#000000" opacity="1.00" d=" M 41.94 35.98 C 43.17 35.98 44.39 35.97 45.61 35.97 C 45.80 44.43 45.19 52.93 45.98 61.36 C 45.21 62.19 44.43 63.02 43.66 63.85 C 42.90 63.05 42.14 62.26 41.38 61.48 C 42.62 53.06 41.63 44.47 41.94 35.98 Z" />
<path fill="#000000" opacity="1.00" d=" M 71.45 35.97 C 72.68 35.97 73.90 35.97 75.12 35.98 C 75.41 44.45 74.51 53.00 75.64 61.42 C 74.85 62.22 74.06 63.03 73.28 63.83 C 72.53 63.04 71.78 62.25 71.04 61.46 C 71.92 53.00 71.24 44.46 71.45 35.97 Z" />
<path fill="#000000" opacity="1.00" d=" M 35.90 74.10 C 50.97 74.10 66.03 74.10 81.10 74.10 C 81.12 74.69 81.17 75.89 81.19 76.49 C 66.06 76.48 50.94 76.48 35.81 76.49 C 35.83 75.89 35.88 74.69 35.90 74.10 Z" />
</g>
<g id="#f4f8f6ff">
<path fill="#f4f8f6" opacity="1.00" d=" M 31.42 10.90 C 36.24 9.99 41.18 10.51 46.06 10.38 C 59.07 10.49 72.09 10.16 85.09 10.56 C 86.97 11.16 88.92 11.48 90.87 11.72 L 89.96 12.43 C 90.85 12.44 92.64 12.47 93.53 12.48 L 93.46 13.84 C 93.93 13.66 94.87 13.29 95.34 13.10 L 95.40 14.67 C 95.86 14.57 96.78 14.38 97.24 14.28 L 97.42 15.10 C 98.85 15.96 100.23 16.90 101.63 17.81 L 101.18 18.18 C 101.61 18.56 102.46 19.30 102.89 19.67 L 103.87 19.14 L 103.30 20.11 C 103.69 20.53 104.45 21.37 104.83 21.79 L 105.18 21.35 C 106.09 22.75 107.03 24.12 107.88 25.55 L 108.70 25.77 C 108.61 26.24 108.44 27.18 108.35 27.65 L 109.91 27.63 C 109.72 28.11 109.34 29.07 109.15 29.55 L 110.55 29.48 C 110.55 30.35 110.54 32.10 110.54 32.97 L 111.25 32.16 C 112.00 35.73 112.81 39.31 112.62 42.99 C 112.49 63.24 112.85 83.51 112.42 103.76 C 112.25 103.61 111.90 103.31 111.73 103.16 C 111.74 105.71 111.04 108.15 110.28 110.56 L 109.19 110.45 C 109.36 110.93 109.70 111.90 109.87 112.39 L 108.34 112.36 C 108.42 112.83 108.60 113.76 108.69 114.23 L 107.88 114.46 C 107.03 115.87 106.10 117.24 105.20 118.62 L 104.61 118.20 L 104.42 119.53 L 102.98 119.57 L 104.05 120.66 L 102.33 120.32 L 102.64 121.92 L 101.28 121.05 L 101.61 122.08 C 99.99 123.23 98.40 124.42 96.82 125.62 C 96.45 125.55 95.72 125.42 95.35 125.35 L 95.39 126.88 C 94.90 126.70 93.93 126.36 93.44 126.18 L 93.56 127.26 C 91.31 127.90 89.05 128.52 86.79 129.11 C 84.21 129.58 81.58 129.64 78.97 129.63 C 64.63 129.59 50.30 129.64 35.96 129.60 C 32.92 129.64 30.00 128.70 27.02 128.25 L 28.41 127.60 C 27.42 127.58 25.45 127.53 24.47 127.51 L 24.55 126.16 C 24.07 126.35 23.11 126.72 22.63 126.90 L 22.64 125.34 C 22.17 125.43 21.21 125.63 20.74 125.72 L 20.63 124.92 C 19.19 124.06 17.80 123.13 16.40 122.22 L 16.73 121.59 C 16.30 121.49 15.44 121.29 15.01 121.20 C 14.39 120.23 13.77 119.27 13.15 118.32 L 12.78 118.62 C 11.88 117.21 10.94 115.82 10.09 114.38 L 9.27 114.26 C 9.38 113.80 9.59 112.87 9.70 112.41 L 8.13 112.35 C 8.30 111.87 8.64 110.92 8.80 110.44 L 7.45 110.49 C 7.44 109.54 7.41 107.63 7.39 106.68 L 6.42 107.92 C 6.43 106.32 6.44 104.73 6.46 103.13 C 6.24 103.29 5.80 103.60 5.58 103.76 C 5.27 81.20 5.24 58.61 5.60 36.05 L 6.40 37.18 C 6.41 35.48 6.43 33.78 6.45 32.08 L 7.38 33.31 C 7.41 32.35 7.46 30.42 7.49 29.46 L 8.85 29.56 C 8.66 29.09 8.30 28.16 8.11 27.69 L 9.75 27.52 L 9.23 25.85 C 9.44 25.77 9.86 25.60 10.06 25.52 C 10.87 24.28 11.76 23.09 12.65 21.91 C 12.93 21.50 13.49 20.69 13.77 20.28 L 14.78 20.74 L 14.18 19.50 L 15.56 19.46 L 15.59 17.99 L 16.60 18.96 L 16.40 17.79 C 17.80 16.87 19.19 15.93 20.63 15.08 L 20.74 14.26 C 21.21 14.37 22.13 14.59 22.60 14.70 L 22.65 13.13 C 23.12 13.30 24.07 13.64 24.54 13.82 L 24.45 12.73 C 26.77 12.09 29.09 11.48 31.42 10.90 M 32.10 11.55 L 32.71 12.35 C 30.83 12.44 28.96 12.55 27.08 12.63 L 27.64 14.07 C 27.13 13.82 26.11 13.32 25.61 13.08 L 25.40 14.58 C 24.92 14.51 23.96 14.38 23.48 14.31 L 23.30 15.62 C 22.84 15.53 21.93 15.35 21.48 15.26 L 21.37 16.71 C 20.85 16.60 19.81 16.38 19.29 16.27 L 19.83 17.96 L 18.44 17.04 L 18.49 17.90 C 16.42 19.57 14.54 21.46 12.90 23.56 L 11.95 23.37 L 13.03 24.75 L 11.29 24.32 C 11.39 24.83 11.59 25.87 11.70 26.39 L 10.26 26.47 C 10.35 26.93 10.52 27.85 10.61 28.30 L 9.25 28.53 C 9.36 28.99 9.58 29.92 9.69 30.38 L 8.69 30.26 C 8.08 32.70 7.43 35.14 7.13 37.64 L 6.55 37.07 C 6.65 59.01 6.66 80.96 6.55 102.91 L 7.13 102.38 C 7.44 104.88 8.08 107.31 8.70 109.75 L 9.68 109.60 C 9.57 110.06 9.34 110.99 9.22 111.45 L 10.60 111.70 C 10.52 112.16 10.36 113.07 10.27 113.53 L 11.70 113.61 C 11.59 114.14 11.38 115.21 11.28 115.74 L 12.95 115.08 L 11.99 116.52 L 13.04 116.40 C 13.43 116.88 14.23 117.82 14.63 118.30 C 14.61 118.43 14.56 118.69 14.54 118.82 C 16.08 120.05 17.55 121.37 19.00 122.71 L 19.91 121.93 L 19.30 123.74 C 19.82 123.63 20.86 123.40 21.38 123.29 L 21.45 124.72 C 21.91 124.64 22.83 124.49 23.29 124.41 L 23.54 125.77 C 24.00 125.66 24.92 125.43 25.38 125.32 L 25.26 126.29 C 27.48 126.82 29.68 127.43 31.93 127.82 L 30.93 128.45 C 49.00 128.29 67.07 128.46 85.14 128.36 C 86.99 127.65 88.97 127.39 90.94 127.22 L 90.33 125.93 C 90.85 126.17 91.88 126.65 92.40 126.89 L 92.64 125.42 C 93.00 125.46 93.71 125.56 94.06 125.60 C 95.89 124.44 97.74 123.31 99.61 122.21 L 99.65 122.04 C 101.63 120.35 103.47 118.51 105.10 116.49 L 106.00 116.51 L 105.03 115.12 L 106.74 115.72 C 106.63 115.20 106.40 114.15 106.29 113.63 L 107.72 113.53 C 107.64 113.07 107.48 112.16 107.40 111.71 L 108.72 111.50 C 108.64 111.03 108.47 110.10 108.39 109.63 L 109.86 109.43 C 109.65 108.90 109.24 107.83 109.03 107.30 L 110.22 107.95 C 110.39 105.98 110.64 104.01 111.34 102.15 C 111.48 80.08 111.27 58.01 111.45 35.95 L 110.82 36.88 C 110.46 34.64 109.85 32.46 109.30 30.27 L 108.32 30.39 C 108.43 29.93 108.66 29.01 108.77 28.55 L 107.40 28.30 C 107.48 27.84 107.65 26.92 107.73 26.46 L 106.29 26.38 C 106.40 25.86 106.61 24.83 106.72 24.31 L 105.01 24.80 L 105.98 23.45 L 105.10 23.51 C 103.44 21.44 101.57 19.56 99.50 17.91 L 99.54 17.04 L 98.16 17.94 L 98.69 16.24 C 98.18 16.36 97.15 16.60 96.63 16.73 L 96.55 15.28 C 96.09 15.36 95.16 15.51 94.70 15.59 L 94.40 14.16 L 92.70 14.73 C 92.69 14.47 92.67 13.94 92.66 13.68 C 90.26 13.05 87.86 12.43 85.39 12.17 L 85.80 11.54 C 67.90 11.67 50.00 11.65 32.10 11.55 Z" />
<path fill="#f4f8f6" opacity="1.00" d=" M 39.00 33.00 C 42.23 32.81 45.47 32.74 48.69 33.10 C 48.61 41.36 48.59 49.63 48.65 57.89 C 49.86 58.41 50.98 59.26 50.78 60.73 C 48.74 63.38 46.24 65.73 43.35 67.43 C 40.67 64.87 37.26 62.63 36.03 58.95 C 36.76 58.77 38.21 58.40 38.93 58.21 C 38.96 49.81 38.85 41.40 39.00 33.00 M 41.94 35.98 C 41.63 44.47 42.62 53.06 41.38 61.48 C 42.14 62.26 42.90 63.05 43.66 63.85 C 44.43 63.02 45.21 62.19 45.98 61.36 C 45.19 52.93 45.80 44.43 45.61 35.97 C 44.39 35.97 43.17 35.98 41.94 35.98 Z" />
<path fill="#f4f8f6" opacity="1.00" d=" M 68.36 33.08 C 71.56 32.75 74.79 32.81 78.00 33.00 C 78.29 41.31 78.06 49.62 78.14 57.94 C 79.24 58.50 81.10 58.82 80.57 60.48 C 78.59 63.11 76.03 65.24 73.59 67.42 C 70.70 65.75 68.27 63.37 66.24 60.75 C 66.03 59.25 67.15 58.42 68.42 57.94 C 68.45 49.65 68.49 41.36 68.36 33.08 M 71.45 35.97 C 71.24 44.46 71.92 53.00 71.04 61.46 C 71.78 62.25 72.53 63.04 73.28 63.83 C 74.06 63.03 74.85 62.22 75.64 61.42 C 74.51 53.00 75.41 44.45 75.12 35.98 C 73.90 35.97 72.68 35.97 71.45 35.97 Z" />
<path fill="#f4f8f6" opacity="1.00" d=" M 33.03 71.11 C 50.01 70.93 66.99 70.93 83.97 71.11 C 84.05 73.66 84.45 76.28 83.78 78.79 C 80.85 80.06 77.58 79.38 74.49 79.50 C 74.53 80.11 74.62 81.35 74.66 81.96 C 73.99 81.98 72.64 82.01 71.96 82.02 C 71.96 81.40 71.96 80.14 71.96 79.51 C 62.92 79.52 53.87 79.53 44.82 79.51 C 44.90 80.14 45.05 81.40 45.13 82.03 C 44.43 82.01 43.03 81.97 42.33 81.95 C 42.38 81.34 42.47 80.11 42.52 79.50 C 39.43 79.38 36.16 80.05 33.23 78.80 C 32.55 76.29 32.95 73.66 33.03 71.11 M 35.90 74.10 C 35.88 74.69 35.83 75.89 35.81 76.49 C 50.94 76.48 66.06 76.48 81.19 76.49 C 81.17 75.89 81.12 74.69 81.10 74.10 C 66.03 74.10 50.97 74.10 35.90 74.10 Z" />
</g>
</svg>
