<?xml version="1.0" encoding="UTF-8" ?>
<!DOCTYPE svg PUBLIC "-//W3C//DTD SVG 1.1//EN" "http://www.w3.org/Graphics/SVG/1.1/DTD/svg11.dtd">
<svg width="117px" height="140px" viewBox="0 0 117 140" version="1.1" xmlns="http://www.w3.org/2000/svg">
<g id="#000000ff">
<path fill="#000000" opacity="1.00" d=" M 0.00 0.00 L 117.00 0.00 L 117.00 140.00 L 0.00 140.00 L 0.00 0.00 M 33.32 10.39 C 18.10 11.85 5.26 25.68 5.24 41.02 C 5.20 60.34 5.20 79.67 5.24 98.99 C 5.26 114.88 19.08 129.15 34.95 129.72 C 50.32 129.87 65.69 129.76 81.06 129.77 C 93.83 130.03 106.12 121.56 110.63 109.64 C 112.60 105.01 112.91 99.95 112.79 94.99 C 112.75 76.98 112.84 58.98 112.75 40.97 C 112.64 28.25 103.84 16.24 91.85 12.09 C 85.19 9.43 77.93 10.38 70.95 10.22 C 58.40 10.33 45.85 9.98 33.32 10.39 Z" />
<path fill="#000000" opacity="1.00" d=" M 30.37 12.55 C 32.55 12.07 34.78 11.73 37.02 11.76 C 52.36 11.84 67.70 11.71 83.03 11.83 C 97.66 12.61 110.37 25.29 111.18 39.92 C 111.27 59.61 111.18 79.30 111.22 98.99 C 111.01 114.02 98.08 127.32 83.11 128.18 C 70.08 128.27 57.04 128.19 44.01 128.21 C 39.46 128.14 34.85 128.60 30.39 127.46 C 17.29 124.73 7.03 112.35 6.78 98.97 C 6.79 79.64 6.79 60.32 6.77 40.99 C 7.06 27.63 17.29 15.29 30.37 12.55 M 56.04 29.07 C 49.15 30.08 42.30 33.53 38.45 39.50 C 34.72 45.15 32.64 52.48 34.98 59.08 C 37.07 66.90 43.24 73.47 51.06 75.73 C 57.65 78.38 65.13 76.56 70.96 72.93 C 77.43 68.93 81.28 61.50 81.99 54.05 C 82.17 47.46 79.35 40.90 74.85 36.13 C 69.89 31.43 62.91 28.57 56.04 29.07 Z" />
<path fill="#000000" opacity="1.00" d=" M 52.55 32.82 C 62.56 29.77 74.08 35.84 77.59 45.62 C 80.67 53.36 78.38 62.74 72.24 68.33 C 67.22 72.96 59.83 75.11 53.16 73.34 C 45.05 71.52 38.49 64.43 37.31 56.20 C 35.46 46.02 42.54 35.30 52.55 32.82 M 57.18 39.73 C 57.18 40.68 57.18 41.64 57.20 42.59 C 57.84 42.62 59.13 42.69 59.77 42.72 C 59.86 42.00 60.05 40.55 60.14 39.83 C 59.16 39.80 58.17 39.77 57.18 39.73 M 57.16 48.13 C 57.14 53.72 57.10 59.32 57.16 64.91 C 59.08 65.03 61.01 65.01 62.93 64.85 C 63.43 62.65 62.11 61.73 60.01 61.84 C 60.07 56.23 60.03 50.61 60.04 45.00 C 58.25 45.00 56.47 45.00 54.68 44.99 C 54.22 46.89 54.84 48.51 57.16 48.13 Z" />
</g>
<g id="#b4bfd3ff">
<path fill="#b4bfd3" opacity="1.00" d=" M 33.32 10.39 C 45.85 9.98 58.40 10.33 70.95 10.22 C 77.93 10.38 85.19 9.43 91.85 12.09 C 103.84 16.24 112.64 28.25 112.75 40.97 C 112.84 58.98 112.75 76.98 112.79 94.99 C 112.91 99.95 112.60 105.01 110.63 109.64 C 106.12 121.56 93.83 130.03 81.06 129.77 C 65.69 129.76 50.32 129.87 34.95 129.72 C 19.08 129.15 5.26 114.88 5.24 98.99 C 5.20 79.67 5.20 60.34 5.24 41.02 C 5.26 25.68 18.10 11.85 33.32 10.39 M 30.37 12.55 C 17.29 15.29 7.06 27.63 6.77 40.99 C 6.79 60.32 6.79 79.64 6.78 98.97 C 7.03 112.35 17.29 124.73 30.39 127.46 C 34.85 128.60 39.46 128.14 44.01 128.21 C 57.04 128.19 70.08 128.27 83.11 128.18 C 98.08 127.32 111.01 114.02 111.22 98.99 C 111.18 79.30 111.27 59.61 111.18 39.92 C 110.37 25.29 97.66 12.61 83.03 11.83 C 67.70 11.71 52.36 11.84 37.02 11.76 C 34.78 11.73 32.55 12.07 30.37 12.55 Z" />
<path fill="#b4bfd3" opacity="1.00" d=" M 56.04 29.07 C 62.91 28.57 69.89 31.43 74.85 36.13 C 79.35 40.90 82.17 47.46 81.99 54.05 C 81.28 61.50 77.43 68.93 70.96 72.93 C 65.13 76.56 57.65 78.38 51.06 75.73 C 43.24 73.47 37.07 66.90 34.98 59.08 C 32.64 52.48 34.72 45.15 38.45 39.50 C 42.30 33.53 49.15 30.08 56.04 29.07 M 52.55 32.82 C 42.54 35.30 35.46 46.02 37.31 56.20 C 38.49 64.43 45.05 71.52 53.16 73.34 C 59.83 75.11 67.22 72.96 72.24 68.33 C 78.38 62.74 80.67 53.36 77.59 45.62 C 74.08 35.84 62.56 29.77 52.55 32.82 Z" />
<path fill="#b4bfd3" opacity="1.00" d=" M 57.18 39.73 C 58.17 39.77 59.16 39.80 60.14 39.83 C 60.05 40.55 59.86 42.00 59.77 42.72 C 59.13 42.69 57.84 42.62 57.20 42.59 C 57.18 41.64 57.18 40.68 57.18 39.73 Z" />
<path fill="#b4bfd3" opacity="1.00" d=" M 57.16 48.13 C 54.84 48.51 54.22 46.89 54.68 44.99 C 56.47 45.00 58.25 45.00 60.04 45.00 C 60.03 50.61 60.07 56.23 60.01 61.84 C 62.11 61.73 63.43 62.65 62.93 64.85 C 61.01 65.01 59.08 65.03 57.16 64.91 C 57.10 59.32 57.14 53.72 57.16 48.13 Z" />
</g>
</svg>
