<?xml version="1.0" encoding="UTF-8" ?>
<!DOCTYPE svg PUBLIC "-//W3C//DTD SVG 1.1//EN" "http://www.w3.org/Graphics/SVG/1.1/DTD/svg11.dtd">
<svg width="117px" height="140px" viewBox="0 0 117 140" version="1.1" xmlns="http://www.w3.org/2000/svg">
<g id="#384450ff">
<path fill="#384450" opacity="1.00" d=" M 0.00 0.00 L 117.00 0.00 L 117.00 140.00 L 0.00 140.00 L 0.00 0.00 M 41.16 53.20 C 38.66 54.50 38.67 58.53 41.20 59.80 C 43.12 61.34 45.93 60.13 46.85 58.04 C 48.67 54.86 44.03 50.78 41.16 53.20 M 56.50 53.46 C 54.62 54.92 54.53 57.96 56.43 59.46 C 58.60 61.81 62.68 59.87 62.95 56.90 C 63.41 53.62 58.92 50.97 56.50 53.46 M 72.50 53.31 C 70.23 54.73 70.19 58.16 72.43 59.62 C 74.81 61.92 79.22 59.26 78.69 56.10 C 78.54 53.31 74.64 51.30 72.50 53.31 Z" />
</g>
<g id="#f8fcf8ff">
<path fill="#f8fcf8" opacity="1.00" d=" M 41.16 53.20 C 44.03 50.78 48.67 54.86 46.85 58.04 C 45.93 60.13 43.12 61.34 41.20 59.80 C 38.67 58.53 38.66 54.50 41.16 53.20 Z" />
<path fill="#f8fcf8" opacity="1.00" d=" M 56.50 53.46 C 58.92 50.97 63.41 53.62 62.95 56.90 C 62.68 59.87 58.60 61.81 56.43 59.46 C 54.53 57.96 54.62 54.92 56.50 53.46 Z" />
<path fill="#f8fcf8" opacity="1.00" d=" M 72.50 53.31 C 74.64 51.30 78.54 53.31 78.69 56.10 C 79.22 59.26 74.81 61.92 72.43 59.62 C 70.19 58.16 70.23 54.73 72.50 53.31 Z" />
</g>
</svg>
