<?xml version="1.0" encoding="UTF-8" ?>
<!DOCTYPE svg PUBLIC "-//W3C//DTD SVG 1.1//EN" "http://www.w3.org/Graphics/SVG/1.1/DTD/svg11.dtd">
<svg width="117px" height="140px" viewBox="0 0 117 140" version="1.1" xmlns="http://www.w3.org/2000/svg">
<g id="#000000ff">
<path fill="#000000" opacity="1.00" d=" M 0.00 0.00 L 117.00 0.00 L 117.00 140.00 L 0.00 140.00 L 0.00 0.00 M 31.32 10.55 L 31.72 11.29 C 29.24 11.24 26.85 11.88 24.52 12.64 L 24.52 13.65 C 24.04 13.53 23.07 13.29 22.59 13.16 L 22.61 14.57 C 22.23 14.52 21.47 14.41 21.09 14.35 C 19.59 15.58 18.04 16.74 16.39 17.76 L 16.52 18.07 C 15.05 18.89 13.87 20.08 13.07 21.56 L 12.69 21.38 C 11.84 22.74 10.97 24.10 10.17 25.49 L 9.27 25.75 C 9.35 26.21 9.50 27.13 9.58 27.59 L 8.18 27.59 C 8.30 28.08 8.53 29.06 8.64 29.55 L 7.61 29.51 C 7.04 31.54 6.46 33.58 6.22 35.68 L 5.67 35.49 C 5.13 42.34 5.40 49.20 5.33 56.06 C 5.49 72.17 5.02 88.30 5.61 104.40 C 5.77 104.40 6.08 104.40 6.24 104.40 C 6.48 106.47 7.03 108.47 7.59 110.47 L 8.66 110.48 C 8.54 110.96 8.28 111.92 8.16 112.40 L 9.59 112.40 C 9.51 112.86 9.36 113.79 9.29 114.26 L 10.14 114.50 C 10.90 115.82 11.74 117.09 12.56 118.38 C 13.48 119.30 14.40 120.23 15.51 120.93 L 15.31 121.37 C 15.69 121.59 16.45 122.05 16.83 122.27 C 17.90 123.22 19.01 124.10 20.14 124.97 C 20.76 125.18 22.01 125.59 22.63 125.80 L 22.52 126.77 C 23.04 126.68 24.07 126.50 24.59 126.41 L 24.51 127.38 C 26.52 127.95 28.54 128.53 30.63 128.79 L 30.53 129.33 C 37.03 129.86 43.55 129.61 50.07 129.66 C 62.27 129.57 74.49 129.87 86.69 129.47 L 86.24 128.72 C 88.74 128.79 91.14 128.14 93.49 127.37 L 93.42 126.42 C 93.94 126.50 94.99 126.66 95.51 126.74 L 95.38 125.80 C 95.99 125.59 97.22 125.16 97.84 124.95 C 99.06 124.01 100.30 123.10 101.57 122.23 L 101.46 121.92 C 102.94 121.11 104.13 119.94 104.92 118.45 L 105.23 118.64 C 106.25 116.98 107.41 115.42 108.63 113.92 C 108.58 113.53 108.47 112.77 108.41 112.39 L 109.79 112.46 C 109.69 111.95 109.49 110.94 109.39 110.44 L 110.40 110.49 C 110.96 108.46 111.53 106.42 111.78 104.33 L 112.34 104.51 C 112.78 98.69 112.66 92.84 112.66 87.01 C 112.48 69.83 113.05 52.64 112.34 35.48 L 111.78 35.68 C 111.52 33.58 110.96 31.55 110.40 29.51 L 109.42 29.59 C 109.50 29.07 109.67 28.04 109.76 27.52 L 108.81 27.62 C 108.60 27.01 108.17 25.78 107.95 25.17 C 107.01 23.94 106.09 22.69 105.23 21.40 L 104.93 21.56 C 104.12 20.07 102.94 18.88 101.46 18.08 L 101.62 17.76 C 99.96 16.74 98.40 15.58 96.91 14.35 C 96.53 14.40 95.79 14.52 95.41 14.58 L 95.40 13.17 C 94.92 13.29 93.95 13.53 93.47 13.65 L 93.49 12.64 C 91.14 11.88 88.75 11.23 86.26 11.28 L 86.68 10.54 C 68.23 10.21 49.77 10.20 31.32 10.55 Z" />
<path fill="#000000" opacity="1.00" d=" M 32.30 11.56 C 50.10 11.74 67.90 11.74 85.70 11.56 L 85.36 12.26 C 87.82 12.49 90.21 13.10 92.58 13.71 L 92.64 14.65 C 93.08 14.57 93.97 14.41 94.42 14.33 L 94.73 15.64 C 95.18 15.55 96.06 15.38 96.51 15.29 L 96.38 16.26 C 97.46 16.74 98.54 17.22 99.62 17.70 L 99.48 18.12 C 101.62 19.56 103.44 21.40 104.89 23.54 L 105.30 23.38 C 105.78 24.46 106.25 25.54 106.73 26.62 L 107.70 26.49 C 107.62 26.94 107.45 27.83 107.37 28.28 L 108.68 28.58 C 108.59 29.02 108.43 29.91 108.34 30.35 L 109.28 30.42 C 109.89 33.63 111.31 36.70 111.34 40.01 C 111.40 60.91 111.21 81.81 111.43 102.70 L 110.62 102.38 C 110.54 104.15 110.43 105.92 110.38 107.70 L 109.19 107.39 C 109.32 107.90 109.58 108.93 109.70 109.44 L 108.37 109.63 C 108.44 110.08 108.58 110.98 108.65 111.43 L 107.38 111.75 C 107.46 112.19 107.61 113.06 107.69 113.50 L 106.73 113.39 C 106.25 114.47 105.78 115.55 105.31 116.64 L 104.89 116.47 C 103.44 118.61 101.61 120.45 99.46 121.89 L 99.64 122.30 C 98.55 122.78 97.47 123.25 96.38 123.73 L 96.49 124.20 C 95.86 124.52 94.61 125.14 93.99 125.46 C 93.65 125.44 92.98 125.40 92.64 125.39 L 92.60 126.29 C 90.21 126.90 87.81 127.51 85.35 127.75 L 85.71 128.44 C 67.91 128.25 50.11 128.30 32.31 128.41 L 32.57 127.72 C 30.12 127.54 27.76 126.90 25.41 126.28 L 25.37 125.39 C 25.03 125.41 24.34 125.43 24.00 125.45 C 23.37 125.14 22.12 124.51 21.50 124.20 L 21.62 123.73 C 20.54 123.25 19.46 122.78 18.37 122.31 L 18.53 121.89 C 16.40 120.45 14.56 118.61 13.12 116.48 L 12.70 116.62 C 12.22 115.54 11.74 114.46 11.26 113.38 L 10.28 113.49 C 10.37 113.05 10.56 112.18 10.65 111.74 L 9.34 111.43 C 9.41 110.98 9.57 110.08 9.65 109.63 L 8.70 109.59 C 8.18 107.03 7.49 104.52 6.68 102.05 C 6.64 81.29 6.69 60.53 6.65 39.77 C 6.67 38.77 6.83 37.79 7.13 36.84 C 7.29 36.10 7.62 34.63 7.79 33.89 C 8.14 32.75 8.47 31.60 8.77 30.43 L 9.67 30.34 C 9.59 29.90 9.42 29.02 9.34 28.58 L 10.65 28.26 C 10.56 27.82 10.37 26.94 10.28 26.50 L 11.27 26.63 C 11.75 25.53 12.24 24.43 12.72 23.33 L 13.12 23.58 C 14.54 21.41 16.38 19.55 18.54 18.11 L 18.36 17.70 C 19.45 17.22 20.54 16.75 21.63 16.27 L 21.51 15.25 C 21.94 15.36 22.81 15.56 23.24 15.67 L 23.57 14.35 C 24.02 14.42 24.92 14.56 25.37 14.64 L 25.41 13.70 C 27.79 13.09 30.18 12.49 32.64 12.25 L 32.30 11.56 M 46.01 28.14 C 45.99 33.97 46.04 39.81 46.00 45.64 C 43.67 45.65 41.34 45.66 39.02 45.70 C 39.29 50.39 38.74 55.14 39.34 59.81 C 41.61 63.38 46.57 60.78 49.81 62.10 C 52.84 64.63 55.39 67.69 58.38 70.27 C 54.69 70.25 51.00 70.25 47.31 70.29 C 47.32 72.86 47.34 75.43 47.29 78.01 C 55.45 78.00 63.62 77.98 71.78 78.03 C 71.35 77.26 71.67 75.35 70.23 75.73 C 63.52 75.51 56.80 75.74 50.08 75.63 C 50.07 75.00 50.05 73.73 50.04 73.10 C 53.64 73.02 57.24 73.04 60.84 73.05 C 60.86 72.32 60.91 70.86 60.94 70.13 C 63.78 67.30 66.59 64.44 69.51 61.69 C 72.80 61.31 77.54 63.13 79.67 59.75 C 80.25 55.10 79.71 50.37 79.98 45.70 C 77.65 45.66 75.33 45.65 73.00 45.64 C 72.96 39.81 73.01 33.97 72.99 28.14 C 64.00 28.05 55.00 28.06 46.01 28.14 Z" />
<path fill="#000000" opacity="1.00" d=" M 48.82 31.04 C 55.94 31.04 63.05 31.04 70.17 31.04 C 70.17 36.79 70.27 42.54 70.09 48.29 C 72.38 48.34 74.68 48.36 76.97 48.39 C 76.91 51.91 76.92 55.42 76.94 58.93 C 65.31 58.98 53.69 58.98 42.06 58.93 C 42.08 55.41 42.09 51.90 42.03 48.39 C 48.76 48.29 55.50 48.38 62.24 48.35 C 62.24 47.67 62.24 46.33 62.24 45.65 C 57.76 45.65 53.28 45.63 48.81 45.67 C 48.81 43.89 48.82 42.11 48.83 40.33 C 53.30 40.36 57.77 40.35 62.24 40.35 C 62.24 39.67 62.24 38.33 62.24 37.66 C 57.77 37.65 53.29 37.60 48.82 37.72 C 48.82 35.49 48.82 33.27 48.82 31.04 Z" />
<path fill="#000000" opacity="1.00" d=" M 53.35 61.73 C 57.45 61.74 61.55 61.74 65.65 61.73 C 63.58 63.73 61.52 65.74 59.48 67.78 C 57.48 65.72 55.42 63.72 53.35 61.73 Z" />
</g>
<g id="#dee5eaff">
<path fill="#dee5ea" opacity="1.00" d=" M 31.32 10.55 C 49.77 10.20 68.23 10.21 86.68 10.54 L 86.26 11.28 C 88.75 11.23 91.14 11.88 93.49 12.64 L 93.47 13.65 C 93.95 13.53 94.92 13.29 95.40 13.17 L 95.41 14.58 C 95.79 14.52 96.53 14.40 96.91 14.35 C 98.40 15.58 99.96 16.74 101.62 17.76 L 101.46 18.08 C 102.94 18.88 104.12 20.07 104.93 21.56 L 105.23 21.40 C 106.09 22.69 107.01 23.94 107.95 25.17 C 108.17 25.78 108.60 27.01 108.81 27.62 L 109.76 27.52 C 109.67 28.04 109.50 29.07 109.42 29.59 L 110.40 29.51 C 110.96 31.55 111.52 33.58 111.78 35.68 L 112.34 35.48 C 113.05 52.64 112.48 69.83 112.66 87.01 C 112.66 92.84 112.78 98.69 112.34 104.51 L 111.78 104.33 C 111.53 106.42 110.96 108.46 110.40 110.49 L 109.39 110.44 C 109.49 110.94 109.69 111.95 109.79 112.46 L 108.41 112.39 C 108.47 112.77 108.58 113.53 108.63 113.92 C 107.41 115.42 106.25 116.98 105.23 118.64 L 104.92 118.45 C 104.13 119.94 102.94 121.11 101.46 121.92 L 101.57 122.23 C 100.30 123.10 99.06 124.01 97.84 124.95 C 97.22 125.16 95.99 125.59 95.38 125.80 L 95.51 126.74 C 94.99 126.66 93.94 126.50 93.42 126.42 L 93.49 127.37 C 91.14 128.14 88.74 128.79 86.24 128.72 L 86.69 129.47 C 74.49 129.87 62.27 129.57 50.07 129.66 C 43.55 129.61 37.03 129.86 30.53 129.33 L 30.63 128.79 C 28.54 128.53 26.52 127.95 24.51 127.38 L 24.59 126.41 C 24.07 126.50 23.04 126.68 22.52 126.77 L 22.63 125.80 C 22.01 125.59 20.76 125.18 20.14 124.97 C 19.01 124.10 17.90 123.22 16.83 122.27 C 16.45 122.05 15.69 121.59 15.31 121.37 L 15.51 120.93 C 14.40 120.23 13.48 119.30 12.56 118.38 C 11.74 117.09 10.90 115.82 10.14 114.50 L 9.29 114.26 C 9.36 113.79 9.51 112.86 9.59 112.40 L 8.16 112.40 C 8.28 111.92 8.54 110.96 8.66 110.48 L 7.59 110.47 C 7.03 108.47 6.48 106.47 6.24 104.40 C 6.08 104.40 5.77 104.40 5.61 104.40 C 5.02 88.30 5.49 72.17 5.33 56.06 C 5.40 49.20 5.13 42.34 5.67 35.49 L 6.22 35.68 C 6.46 33.58 7.04 31.54 7.61 29.51 L 8.64 29.55 C 8.53 29.06 8.30 28.08 8.18 27.59 L 9.58 27.59 C 9.50 27.13 9.35 26.21 9.27 25.75 L 10.17 25.49 C 10.97 24.10 11.84 22.74 12.69 21.38 L 13.07 21.56 C 13.87 20.08 15.05 18.89 16.52 18.07 L 16.39 17.76 C 18.04 16.74 19.59 15.58 21.09 14.35 C 21.47 14.41 22.23 14.52 22.61 14.57 L 22.59 13.16 C 23.07 13.29 24.04 13.53 24.52 13.65 L 24.52 12.64 C 26.85 11.88 29.24 11.24 31.72 11.29 L 31.32 10.55 M 32.30 11.56 L 32.64 12.25 C 30.18 12.49 27.79 13.09 25.41 13.70 L 25.37 14.64 C 24.92 14.56 24.02 14.42 23.57 14.35 L 23.24 15.67 C 22.81 15.56 21.94 15.36 21.51 15.25 L 21.63 16.27 C 20.54 16.75 19.45 17.22 18.36 17.70 L 18.54 18.11 C 16.38 19.55 14.54 21.41 13.12 23.58 L 12.72 23.33 C 12.24 24.43 11.75 25.53 11.27 26.63 L 10.28 26.50 C 10.37 26.94 10.56 27.82 10.65 28.26 L 9.34 28.58 C 9.42 29.02 9.59 29.90 9.67 30.34 L 8.77 30.43 C 8.47 31.60 8.14 32.75 7.79 33.89 C 7.62 34.63 7.29 36.10 7.13 36.84 C 6.83 37.79 6.67 38.77 6.65 39.77 C 6.69 60.53 6.64 81.29 6.68 102.05 C 7.49 104.52 8.18 107.03 8.70 109.59 L 9.65 109.63 C 9.57 110.08 9.41 110.98 9.34 111.43 L 10.65 111.74 C 10.56 112.18 10.37 113.05 10.28 113.49 L 11.26 113.38 C 11.74 114.46 12.22 115.54 12.70 116.62 L 13.12 116.48 C 14.56 118.61 16.40 120.45 18.53 121.89 L 18.37 122.31 C 19.46 122.78 20.54 123.25 21.62 123.73 L 21.50 124.20 C 22.12 124.51 23.37 125.14 24.00 125.45 C 24.34 125.43 25.03 125.41 25.37 125.39 L 25.41 126.28 C 27.76 126.90 30.12 127.54 32.57 127.72 L 32.31 128.41 C 50.11 128.30 67.91 128.25 85.71 128.44 L 85.35 127.75 C 87.81 127.51 90.21 126.90 92.60 126.29 L 92.64 125.39 C 92.98 125.40 93.65 125.44 93.99 125.46 C 94.61 125.14 95.86 124.52 96.49 124.20 L 96.38 123.73 C 97.47 123.25 98.55 122.78 99.64 122.30 L 99.46 121.89 C 101.61 120.45 103.44 118.61 104.89 116.47 L 105.31 116.64 C 105.78 115.55 106.25 114.47 106.73 113.39 L 107.69 113.50 C 107.61 113.06 107.46 112.19 107.38 111.75 L 108.65 111.43 C 108.58 110.98 108.44 110.08 108.37 109.63 L 109.70 109.44 C 109.58 108.93 109.32 107.90 109.19 107.39 L 110.38 107.70 C 110.43 105.92 110.54 104.15 110.62 102.38 L 111.43 102.70 C 111.21 81.81 111.40 60.91 111.34 40.01 C 111.31 36.70 109.89 33.63 109.28 30.42 L 108.34 30.35 C 108.43 29.91 108.59 29.02 108.68 28.58 L 107.37 28.28 C 107.45 27.83 107.62 26.94 107.70 26.49 L 106.73 26.62 C 106.25 25.54 105.78 24.46 105.30 23.38 L 104.89 23.54 C 103.44 21.40 101.62 19.56 99.48 18.12 L 99.62 17.70 C 98.54 17.22 97.46 16.74 96.38 16.26 L 96.51 15.29 C 96.06 15.38 95.18 15.55 94.73 15.64 L 94.42 14.33 C 93.97 14.41 93.08 14.57 92.64 14.65 L 92.58 13.71 C 90.21 13.10 87.82 12.49 85.36 12.26 L 85.70 11.56 C 67.90 11.74 50.10 11.74 32.30 11.56 Z" />
<path fill="#dee5ea" opacity="1.00" d=" M 46.01 28.14 C 55.00 28.06 64.00 28.05 72.99 28.14 C 73.01 33.97 72.96 39.81 73.00 45.64 C 75.33 45.65 77.65 45.66 79.98 45.70 C 79.71 50.37 80.25 55.10 79.67 59.75 C 77.54 63.13 72.80 61.31 69.51 61.69 C 66.59 64.44 63.78 67.30 60.94 70.13 C 60.91 70.86 60.86 72.32 60.84 73.05 C 57.24 73.04 53.64 73.02 50.04 73.10 C 50.05 73.73 50.07 75.00 50.08 75.63 C 56.80 75.74 63.52 75.51 70.23 75.73 C 71.67 75.35 71.35 77.26 71.78 78.03 C 63.62 77.98 55.45 78.00 47.29 78.01 C 47.34 75.43 47.32 72.86 47.31 70.29 C 51.00 70.25 54.69 70.25 58.38 70.27 C 55.39 67.69 52.84 64.63 49.81 62.10 C 46.57 60.78 41.61 63.38 39.34 59.81 C 38.74 55.14 39.29 50.39 39.02 45.70 C 41.34 45.66 43.67 45.65 46.00 45.64 C 46.04 39.81 45.99 33.97 46.01 28.14 M 48.82 31.04 C 48.82 33.27 48.82 35.49 48.82 37.72 C 53.29 37.60 57.77 37.65 62.24 37.66 C 62.24 38.33 62.24 39.67 62.24 40.35 C 57.77 40.35 53.30 40.36 48.83 40.33 C 48.82 42.11 48.81 43.89 48.81 45.67 C 53.28 45.63 57.76 45.65 62.24 45.65 C 62.24 46.33 62.24 47.67 62.24 48.35 C 55.50 48.38 48.76 48.29 42.03 48.39 C 42.09 51.90 42.08 55.41 42.06 58.93 C 53.69 58.98 65.31 58.98 76.94 58.93 C 76.92 55.42 76.91 51.91 76.97 48.39 C 74.68 48.36 72.38 48.34 70.09 48.29 C 70.27 42.54 70.17 36.79 70.17 31.04 C 63.05 31.04 55.94 31.04 48.82 31.04 M 53.35 61.73 C 55.42 63.72 57.48 65.72 59.48 67.78 C 61.52 65.74 63.58 63.73 65.65 61.73 C 61.55 61.74 57.45 61.74 53.35 61.73 Z" />
</g>
</svg>
