<?xml version="1.0" encoding="UTF-8" ?>
<!DOCTYPE svg PUBLIC "-//W3C//DTD SVG 1.1//EN" "http://www.w3.org/Graphics/SVG/1.1/DTD/svg11.dtd">
<svg width="117px" height="140px" viewBox="0 0 117 140" version="1.1" xmlns="http://www.w3.org/2000/svg">
<g id="#000000ff">
<path fill="#000000" opacity="1.00" d=" M 0.00 0.00 L 117.00 0.00 L 117.00 140.00 L 0.00 140.00 L 0.00 0.00 M 26.12 11.75 L 27.07 12.45 C 26.17 12.46 24.37 12.47 23.47 12.48 L 23.55 13.86 C 23.08 13.67 22.14 13.29 21.67 13.10 L 21.60 14.70 C 21.14 14.59 20.20 14.37 19.73 14.26 L 19.66 15.07 C 18.20 15.94 16.80 16.90 15.38 17.82 L 15.73 18.07 C 15.32 18.50 14.51 19.37 14.11 19.80 L 13.19 18.87 L 13.65 20.10 C 13.26 20.54 12.47 21.41 12.07 21.84 L 11.87 21.33 C 10.94 22.75 9.97 24.15 9.09 25.61 C 8.87 25.66 8.43 25.76 8.21 25.81 L 8.80 27.51 L 7.14 27.68 C 7.32 28.15 7.66 29.10 7.84 29.57 L 6.77 29.43 C 5.70 33.22 4.31 37.00 4.40 41.00 C 4.39 60.32 4.39 79.65 4.40 98.97 C 4.32 102.00 5.26 104.89 5.74 107.85 L 6.49 107.03 C 6.48 107.90 6.45 109.63 6.44 110.50 L 7.84 110.44 C 7.66 110.91 7.31 111.84 7.13 112.31 L 8.80 112.50 L 8.21 114.16 C 8.44 114.23 8.88 114.36 9.11 114.43 C 9.97 115.85 10.92 117.21 11.83 118.60 L 12.16 118.24 C 12.58 118.64 13.41 119.44 13.83 119.84 L 12.97 120.85 L 14.10 120.34 C 14.53 120.73 15.39 121.51 15.82 121.89 L 15.33 122.14 C 16.73 123.05 18.10 124.00 19.54 124.86 C 19.61 125.09 19.77 125.54 19.85 125.77 L 21.54 125.23 L 21.67 126.87 C 22.14 126.69 23.09 126.33 23.56 126.15 L 23.43 127.23 C 27.52 128.42 31.65 129.80 35.97 129.62 C 52.57 129.49 69.18 129.84 85.78 129.41 L 85.00 128.76 C 87.62 128.75 90.13 128.04 92.59 127.25 L 92.44 126.12 C 92.91 126.31 93.84 126.70 94.31 126.90 L 94.49 125.21 L 96.18 125.80 C 96.24 125.57 96.34 125.13 96.39 124.90 C 97.84 124.04 99.23 123.08 100.64 122.16 L 100.14 121.59 C 100.61 121.49 101.57 121.30 102.05 121.21 C 102.63 120.22 103.21 119.24 103.78 118.25 L 104.18 118.62 C 105.09 117.21 106.05 115.82 106.91 114.38 C 107.13 114.33 107.58 114.23 107.81 114.18 L 107.19 112.51 L 108.86 112.33 C 108.69 111.85 108.34 110.90 108.16 110.43 L 109.23 110.56 C 110.29 106.78 111.68 103.00 111.59 99.02 C 111.62 79.67 111.62 60.33 111.59 40.98 C 111.69 36.99 110.28 33.22 109.24 29.44 L 108.16 29.56 C 108.33 29.09 108.69 28.15 108.86 27.68 L 107.21 27.52 L 107.77 25.85 C 107.55 25.77 107.11 25.63 106.88 25.55 C 106.02 24.13 105.07 22.76 104.15 21.38 L 103.92 21.73 C 103.50 21.33 102.66 20.52 102.23 20.12 L 103.06 19.11 L 101.88 19.66 C 101.46 19.27 100.62 18.48 100.21 18.09 L 100.64 17.84 C 99.25 16.93 97.88 15.99 96.46 15.13 C 96.38 14.91 96.23 14.45 96.15 14.23 L 94.47 14.78 L 94.32 13.14 C 93.85 13.31 92.90 13.67 92.42 13.85 L 92.58 12.78 C 88.80 11.72 85.02 10.34 81.03 10.41 C 65.69 10.38 50.34 10.38 34.99 10.41 C 31.97 10.35 29.08 11.31 26.12 11.75 Z" />
<path fill="#000000" opacity="1.00" d=" M 29.31 12.21 C 31.14 11.50 33.12 11.59 35.04 11.58 C 51.78 11.66 68.52 11.53 85.25 11.65 C 86.76 12.23 88.32 12.63 89.93 12.85 L 89.33 13.94 C 89.72 13.80 90.49 13.50 90.87 13.36 C 92.46 14.22 94.07 15.05 95.70 15.83 L 95.72 16.76 C 96.21 16.60 97.19 16.27 97.68 16.10 L 97.07 17.69 L 98.14 17.27 C 100.39 19.44 102.59 21.65 104.76 23.90 L 104.15 24.89 L 105.79 24.31 C 105.67 24.80 105.43 25.78 105.31 26.27 L 106.20 26.35 C 106.96 27.95 107.77 29.54 108.63 31.09 C 108.52 31.48 108.29 32.24 108.17 32.63 L 109.16 32.09 C 109.40 33.72 109.75 35.34 110.37 36.88 C 110.41 58.97 110.42 81.05 110.36 103.14 C 109.74 104.69 109.41 106.32 109.15 107.96 L 108.14 107.32 C 108.26 107.71 108.51 108.49 108.63 108.88 C 107.77 110.47 106.95 112.07 106.17 113.70 L 105.27 113.71 C 105.41 114.20 105.70 115.18 105.85 115.68 L 104.25 115.11 L 104.73 116.14 C 102.57 118.38 100.37 120.57 98.14 122.73 L 97.11 122.24 L 97.68 123.84 C 97.20 123.70 96.23 123.42 95.75 123.29 L 95.64 124.20 C 94.03 124.97 92.44 125.79 90.86 126.65 C 90.50 126.50 89.77 126.22 89.41 126.08 L 89.89 127.24 C 86.90 127.43 84.04 128.57 81.02 128.41 C 64.31 128.35 47.60 128.44 30.89 128.36 C 29.34 127.74 27.71 127.40 26.06 127.16 L 26.68 126.07 C 26.29 126.21 25.51 126.50 25.12 126.64 C 23.52 125.76 21.90 124.93 20.26 124.15 L 20.32 123.25 C 19.82 123.40 18.82 123.70 18.32 123.85 L 18.90 122.24 L 17.87 122.73 C 15.63 120.57 13.43 118.37 11.26 116.13 L 11.77 115.10 L 10.16 115.69 C 10.30 115.20 10.58 114.21 10.72 113.72 L 9.78 113.69 C 9.09 112.17 8.37 110.67 7.65 109.17 C 7.07 107.20 6.40 105.27 5.62 103.38 C 5.62 81.17 5.56 58.96 5.65 36.75 C 6.21 35.26 6.61 33.73 6.84 32.15 C 7.10 32.25 7.62 32.46 7.87 32.56 L 7.34 31.16 C 8.21 29.60 9.01 28.02 9.77 26.41 C 10.03 26.35 10.54 26.23 10.80 26.17 L 9.99 24.39 L 11.65 24.89 L 11.30 23.83 C 13.44 21.62 15.61 19.44 17.82 17.31 L 18.91 17.65 L 18.33 16.08 C 18.81 16.25 19.78 16.60 20.26 16.77 L 20.35 15.68 C 21.65 15.15 22.94 14.62 24.25 14.11 L 24.29 13.76 C 25.98 13.30 27.64 12.75 29.31 12.21 M 37.58 42.00 C 37.58 50.67 37.58 59.33 37.58 68.00 C 44.86 68.00 52.14 68.00 59.42 68.00 C 59.42 66.00 59.42 64.00 59.42 62.00 C 55.08 62.00 50.75 62.00 46.42 62.00 C 46.42 60.67 46.42 59.33 46.42 58.00 C 49.94 58.00 53.47 58.00 57.00 58.00 C 57.00 55.86 57.00 53.72 57.00 51.58 C 53.47 51.58 49.93 51.57 46.40 51.60 C 46.40 50.53 46.40 49.47 46.40 48.40 C 50.60 48.43 54.80 48.41 59.00 48.42 C 59.00 46.28 59.00 44.14 59.00 42.00 C 51.86 42.00 44.72 42.00 37.58 42.00 M 62.34 54.89 C 63.58 60.44 69.90 60.44 74.16 62.21 C 74.92 65.03 71.67 64.10 69.99 64.28 C 69.83 63.70 69.51 62.55 69.35 61.97 C 66.78 61.98 64.22 62.00 61.66 62.17 C 63.23 68.83 71.54 69.28 76.95 67.69 C 80.71 67.14 83.50 62.24 80.86 59.08 C 77.86 55.68 72.46 56.73 69.32 53.56 C 70.24 53.33 72.09 52.88 73.02 52.65 C 73.35 53.15 74.01 54.14 74.33 54.64 C 76.70 54.63 79.08 54.62 81.45 54.53 C 80.70 52.49 79.87 50.14 77.52 49.52 C 72.24 47.35 63.54 48.07 62.34 54.89 Z" />
</g>
<g id="#f7fbf8ff">
<path fill="#f7fbf8" opacity="1.00" d=" M 26.12 11.75 C 29.08 11.31 31.97 10.35 34.99 10.41 C 50.34 10.38 65.69 10.38 81.03 10.41 C 85.02 10.34 88.80 11.72 92.58 12.78 L 92.42 13.85 C 92.90 13.67 93.85 13.31 94.32 13.14 L 94.47 14.78 L 96.15 14.23 C 96.23 14.45 96.38 14.91 96.46 15.13 C 97.88 15.99 99.25 16.93 100.64 17.84 L 100.21 18.09 C 100.62 18.48 101.46 19.27 101.88 19.66 L 103.06 19.11 L 102.23 20.12 C 102.66 20.52 103.50 21.33 103.92 21.73 L 104.15 21.38 C 105.07 22.76 106.02 24.13 106.88 25.55 C 107.11 25.63 107.55 25.77 107.77 25.85 L 107.21 27.52 L 108.86 27.68 C 108.69 28.15 108.33 29.09 108.16 29.56 L 109.24 29.44 C 110.28 33.22 111.69 36.99 111.59 40.98 C 111.62 60.33 111.62 79.67 111.59 99.02 C 111.68 103.00 110.29 106.78 109.23 110.56 L 108.16 110.43 C 108.34 110.90 108.69 111.85 108.86 112.33 L 107.19 112.51 L 107.81 114.18 C 107.58 114.23 107.13 114.33 106.91 114.38 C 106.05 115.82 105.09 117.21 104.18 118.62 L 103.78 118.25 C 103.21 119.24 102.63 120.22 102.05 121.21 C 101.57 121.30 100.61 121.49 100.14 121.59 L 100.64 122.16 C 99.23 123.08 97.84 124.04 96.39 124.90 C 96.34 125.13 96.24 125.57 96.18 125.80 L 94.49 125.21 L 94.31 126.90 C 93.84 126.70 92.91 126.31 92.44 126.12 L 92.59 127.25 C 90.13 128.04 87.62 128.75 85.00 128.76 L 85.78 129.41 C 69.18 129.84 52.57 129.49 35.97 129.62 C 31.65 129.80 27.52 128.42 23.43 127.23 L 23.56 126.15 C 23.09 126.33 22.14 126.69 21.67 126.87 L 21.54 125.23 L 19.85 125.77 C 19.77 125.54 19.61 125.09 19.54 124.86 C 18.10 124.00 16.73 123.05 15.33 122.14 L 15.82 121.89 C 15.39 121.51 14.53 120.73 14.10 120.34 L 12.97 120.85 L 13.83 119.84 C 13.41 119.44 12.58 118.64 12.16 118.24 L 11.83 118.60 C 10.92 117.21 9.97 115.85 9.11 114.43 C 8.88 114.36 8.44 114.23 8.21 114.16 L 8.80 112.50 L 7.13 112.31 C 7.31 111.84 7.66 110.91 7.84 110.44 L 6.44 110.50 C 6.45 109.63 6.48 107.90 6.49 107.03 L 5.74 107.85 C 5.26 104.89 4.32 102.00 4.40 98.97 C 4.39 79.65 4.39 60.32 4.40 41.00 C 4.31 37.00 5.70 33.22 6.77 29.43 L 7.84 29.57 C 7.66 29.10 7.32 28.15 7.14 27.68 L 8.80 27.51 L 8.21 25.81 C 8.43 25.76 8.87 25.66 9.09 25.61 C 9.97 24.15 10.94 22.75 11.87 21.33 L 12.07 21.84 C 12.47 21.41 13.26 20.54 13.65 20.10 L 13.19 18.87 L 14.11 19.80 C 14.51 19.37 15.32 18.50 15.73 18.07 L 15.38 17.82 C 16.80 16.90 18.20 15.94 19.66 15.07 L 19.73 14.26 C 20.20 14.37 21.14 14.59 21.60 14.70 L 21.67 13.10 C 22.14 13.29 23.08 13.67 23.55 13.86 L 23.47 12.48 C 24.37 12.47 26.17 12.46 27.07 12.45 L 26.12 11.75 M 29.31 12.21 C 27.64 12.75 25.98 13.30 24.29 13.76 L 24.25 14.11 C 22.94 14.62 21.65 15.15 20.35 15.68 L 20.26 16.77 C 19.78 16.60 18.81 16.25 18.33 16.08 L 18.91 17.65 L 17.82 17.31 C 15.61 19.44 13.44 21.62 11.30 23.83 L 11.65 24.89 L 9.99 24.39 L 10.80 26.17 C 10.54 26.23 10.03 26.35 9.77 26.41 C 9.01 28.02 8.21 29.60 7.34 31.16 L 7.87 32.56 C 7.62 32.46 7.10 32.25 6.84 32.15 C 6.61 33.73 6.21 35.26 5.65 36.75 C 5.56 58.96 5.62 81.17 5.62 103.38 C 6.40 105.27 7.07 107.20 7.65 109.17 C 8.37 110.67 9.09 112.17 9.78 113.69 L 10.72 113.72 C 10.58 114.21 10.30 115.20 10.16 115.69 L 11.77 115.10 L 11.26 116.13 C 13.43 118.37 15.63 120.57 17.87 122.73 L 18.90 122.24 L 18.32 123.85 C 18.82 123.70 19.82 123.40 20.32 123.25 L 20.26 124.15 C 21.90 124.93 23.52 125.76 25.12 126.64 C 25.51 126.50 26.29 126.21 26.68 126.07 L 26.06 127.16 C 27.71 127.40 29.34 127.74 30.89 128.36 C 47.60 128.44 64.31 128.35 81.02 128.41 C 84.04 128.57 86.90 127.43 89.89 127.24 L 89.41 126.08 C 89.77 126.22 90.50 126.50 90.86 126.65 C 92.44 125.79 94.03 124.97 95.64 124.20 L 95.75 123.29 C 96.23 123.42 97.20 123.70 97.68 123.84 L 97.11 122.24 L 98.14 122.73 C 100.37 120.57 102.57 118.38 104.73 116.14 L 104.25 115.11 L 105.85 115.68 C 105.70 115.18 105.41 114.20 105.27 113.71 L 106.17 113.70 C 106.95 112.07 107.77 110.47 108.63 108.88 C 108.51 108.49 108.26 107.71 108.14 107.32 L 109.15 107.96 C 109.41 106.32 109.74 104.69 110.36 103.14 C 110.42 81.05 110.41 58.97 110.37 36.88 C 109.75 35.34 109.40 33.72 109.16 32.09 L 108.17 32.63 C 108.29 32.24 108.52 31.48 108.63 31.09 C 107.77 29.54 106.96 27.95 106.20 26.35 L 105.31 26.27 C 105.43 25.78 105.67 24.80 105.79 24.31 L 104.15 24.89 L 104.76 23.90 C 102.59 21.65 100.39 19.44 98.14 17.27 L 97.07 17.69 L 97.68 16.10 C 97.19 16.27 96.21 16.60 95.72 16.76 L 95.70 15.83 C 94.07 15.05 92.46 14.22 90.87 13.36 C 90.49 13.50 89.72 13.80 89.33 13.94 L 89.93 12.85 C 88.32 12.63 86.76 12.23 85.25 11.65 C 68.52 11.53 51.78 11.66 35.04 11.58 C 33.12 11.59 31.14 11.50 29.31 12.21 Z" />
<path fill="#f7fbf8" opacity="1.00" d=" M 37.58 42.00 C 44.72 42.00 51.86 42.00 59.00 42.00 C 59.00 44.14 59.00 46.28 59.00 48.42 C 54.80 48.41 50.60 48.43 46.40 48.40 C 46.40 49.47 46.40 50.53 46.40 51.60 C 49.93 51.57 53.47 51.58 57.00 51.58 C 57.00 53.72 57.00 55.86 57.00 58.00 C 53.47 58.00 49.94 58.00 46.42 58.00 C 46.42 59.33 46.42 60.67 46.42 62.00 C 50.75 62.00 55.08 62.00 59.42 62.00 C 59.42 64.00 59.42 66.00 59.42 68.00 C 52.14 68.00 44.86 68.00 37.58 68.00 C 37.58 59.33 37.58 50.67 37.58 42.00 Z" />
<path fill="#f7fbf8" opacity="1.00" d=" M 62.34 54.89 C 63.54 48.07 72.24 47.35 77.52 49.52 C 79.87 50.14 80.70 52.49 81.45 54.53 C 79.08 54.62 76.70 54.63 74.33 54.64 C 74.01 54.14 73.35 53.15 73.02 52.65 C 72.09 52.88 70.24 53.33 69.32 53.56 C 72.46 56.73 77.86 55.68 80.86 59.08 C 83.50 62.24 80.71 67.14 76.95 67.69 C 71.54 69.28 63.23 68.83 61.66 62.17 C 64.22 62.00 66.78 61.98 69.35 61.97 C 69.51 62.55 69.83 63.70 69.99 64.28 C 71.67 64.10 74.92 65.03 74.16 62.21 C 69.90 60.44 63.58 60.44 62.34 54.89 Z" />
</g>
</svg>
