<?xml version="1.0" encoding="UTF-8" ?>
<!DOCTYPE svg PUBLIC "-//W3C//DTD SVG 1.1//EN" "http://www.w3.org/Graphics/SVG/1.1/DTD/svg11.dtd">
<svg width="117px" height="140px" viewBox="0 0 117 140" version="1.1" xmlns="http://www.w3.org/2000/svg">
<g id="#000000ff">
<path fill="#000000" opacity="1.00" d=" M 0.00 0.00 L 117.00 0.00 L 117.00 140.00 L 0.00 140.00 L 0.00 0.00 M 29.55 10.78 C 15.51 13.47 4.27 26.62 4.20 40.98 C 4.16 60.33 4.16 79.67 4.20 99.01 C 4.22 114.90 18.06 129.18 33.93 129.75 C 49.96 129.86 65.99 129.87 82.01 129.75 C 97.89 129.23 111.78 114.93 111.79 99.03 C 111.84 79.67 111.84 60.31 111.79 40.95 C 111.77 25.07 97.91 10.82 82.06 10.25 C 68.70 10.08 55.34 10.23 41.98 10.18 C 37.84 10.21 33.64 9.96 29.55 10.78 Z" />
<path fill="#000000" opacity="1.00" d=" M 29.35 12.60 C 32.20 11.97 35.12 11.74 38.03 11.80 C 52.67 11.89 67.32 11.72 81.96 11.88 C 96.62 12.63 109.36 25.32 110.13 39.98 C 110.26 59.33 110.12 78.69 110.20 98.04 C 110.21 108.31 104.57 118.42 95.73 123.69 C 90.78 126.80 84.90 128.25 79.08 128.20 C 64.72 128.16 50.36 128.17 36.00 128.20 C 28.30 128.19 20.75 125.04 15.15 119.80 C 9.33 114.13 5.79 106.15 5.81 97.99 C 5.83 78.98 5.81 59.97 5.82 40.97 C 6.15 27.64 16.29 15.34 29.35 12.60 M 35.18 42.01 C 35.19 50.67 35.19 59.33 35.18 67.99 C 38.06 68.00 40.94 68.00 43.82 67.99 C 43.81 64.98 43.82 61.97 43.82 58.96 C 45.89 59.13 48.36 58.54 50.06 60.07 C 51.37 62.48 50.62 65.39 51.11 68.00 C 54.04 67.99 56.97 67.99 59.90 68.04 C 57.65 64.04 60.90 57.66 55.26 55.64 C 58.85 54.09 59.62 49.77 58.55 46.37 C 57.47 43.67 54.39 42.51 51.70 42.27 C 46.20 41.83 40.69 42.04 35.18 42.01 M 62.62 49.18 C 63.01 54.60 61.61 60.33 63.62 65.50 C 66.46 69.74 72.67 68.89 76.20 65.99 C 76.21 66.50 76.23 67.51 76.25 68.01 C 78.63 68.00 81.01 68.00 83.39 68.00 C 83.36 61.71 83.48 55.42 83.32 49.13 C 80.75 49.18 78.18 49.20 75.61 49.19 C 75.48 52.97 75.90 56.79 75.39 60.56 C 75.54 63.22 70.55 63.53 70.53 60.89 C 70.20 56.99 70.48 53.08 70.38 49.18 C 67.79 49.18 65.21 49.18 62.62 49.18 Z" />
<path fill="#000000" opacity="1.00" d=" M 43.73 48.50 C 46.68 48.25 51.46 47.58 51.31 51.94 C 49.10 53.48 46.40 53.24 43.84 53.20 C 43.81 51.63 43.77 50.06 43.73 48.50 Z" />
</g>
<g id="#10eb51ff">
<path fill="#10eb51" opacity="1.00" d=" M 29.55 10.78 C 33.64 9.96 37.84 10.21 41.98 10.18 C 55.34 10.23 68.70 10.08 82.06 10.25 C 97.91 10.82 111.77 25.07 111.79 40.95 C 111.84 60.31 111.84 79.67 111.79 99.03 C 111.78 114.93 97.89 129.23 82.01 129.75 C 65.99 129.87 49.96 129.86 33.93 129.75 C 18.06 129.18 4.22 114.90 4.20 99.01 C 4.16 79.67 4.16 60.33 4.20 40.98 C 4.27 26.62 15.51 13.47 29.55 10.78 M 29.35 12.60 C 16.29 15.34 6.15 27.64 5.82 40.97 C 5.81 59.97 5.83 78.98 5.81 97.99 C 5.79 106.15 9.33 114.13 15.15 119.80 C 20.75 125.04 28.30 128.19 36.00 128.20 C 50.36 128.17 64.72 128.16 79.08 128.20 C 84.90 128.25 90.78 126.80 95.73 123.69 C 104.57 118.42 110.21 108.31 110.20 98.04 C 110.12 78.69 110.26 59.33 110.13 39.98 C 109.36 25.32 96.62 12.63 81.96 11.88 C 67.32 11.72 52.67 11.89 38.03 11.80 C 35.12 11.74 32.20 11.97 29.35 12.60 Z" />
<path fill="#10eb51" opacity="1.00" d=" M 35.18 42.01 C 40.69 42.04 46.20 41.83 51.70 42.27 C 54.39 42.51 57.47 43.67 58.55 46.37 C 59.62 49.77 58.85 54.09 55.26 55.64 C 60.90 57.66 57.65 64.04 59.90 68.04 C 56.97 67.99 54.04 67.99 51.11 68.00 C 50.62 65.39 51.37 62.48 50.06 60.07 C 48.36 58.54 45.89 59.13 43.82 58.96 C 43.82 61.97 43.81 64.98 43.82 67.99 C 40.94 68.00 38.06 68.00 35.18 67.99 C 35.19 59.33 35.19 50.67 35.18 42.01 M 43.73 48.50 C 43.77 50.06 43.81 51.63 43.84 53.20 C 46.40 53.24 49.10 53.48 51.31 51.94 C 51.46 47.58 46.68 48.25 43.73 48.50 Z" />
<path fill="#10eb51" opacity="1.00" d=" M 62.62 49.18 C 65.21 49.18 67.79 49.18 70.38 49.18 C 70.48 53.08 70.20 56.99 70.53 60.89 C 70.55 63.53 75.54 63.22 75.39 60.56 C 75.90 56.79 75.48 52.97 75.61 49.19 C 78.18 49.20 80.75 49.18 83.32 49.13 C 83.48 55.42 83.36 61.71 83.39 68.00 C 81.01 68.00 78.63 68.00 76.25 68.01 C 76.23 67.51 76.21 66.50 76.20 65.99 C 72.67 68.89 66.46 69.74 63.62 65.50 C 61.61 60.33 63.01 54.60 62.62 49.18 Z" />
</g>
</svg>
