<?xml version="1.0" encoding="UTF-8" ?>
<!DOCTYPE svg PUBLIC "-//W3C//DTD SVG 1.1//EN" "http://www.w3.org/Graphics/SVG/1.1/DTD/svg11.dtd">
<svg width="117px" height="140px" viewBox="0 0 117 140" version="1.1" xmlns="http://www.w3.org/2000/svg">
<g id="#000000ff">
<path fill="#000000" opacity="1.00" d=" M 0.00 0.00 L 117.00 0.00 L 117.00 140.00 L 0.00 140.00 L 0.00 0.00 M 31.34 10.59 L 31.79 11.44 C 30.25 11.44 28.72 11.44 27.18 11.45 L 27.98 12.44 C 27.10 12.45 25.34 12.47 24.45 12.48 L 24.60 13.80 C 24.10 13.63 23.12 13.31 22.63 13.14 L 22.69 14.21 C 22.06 14.43 20.80 14.86 20.17 15.08 C 18.94 16.03 17.72 16.98 16.47 17.89 L 16.63 18.08 C 15.75 18.78 14.83 19.42 13.87 20.01 C 13.75 20.47 13.51 21.40 13.39 21.86 L 12.81 21.39 C 11.91 22.77 10.97 24.13 10.14 25.55 C 9.90 25.62 9.44 25.77 9.21 25.84 L 9.78 27.51 L 8.15 27.67 C 8.32 28.15 8.64 29.10 8.81 29.58 L 7.47 29.48 C 7.46 30.36 7.44 32.14 7.43 33.02 L 6.45 32.15 C 6.46 33.07 6.46 34.91 6.47 35.84 L 5.69 35.47 C 5.02 52.97 5.56 70.51 5.39 88.02 C 5.59 93.64 4.80 99.37 6.18 104.88 C 6.64 106.77 7.22 108.63 7.72 110.51 L 8.79 110.44 C 8.63 110.92 8.32 111.89 8.16 112.37 L 9.69 112.40 C 9.59 112.87 9.39 113.80 9.29 114.27 L 10.12 114.41 C 10.96 115.85 11.90 117.23 12.81 118.63 L 13.64 118.08 L 13.27 119.60 L 14.92 119.31 L 13.93 120.58 L 15.64 120.32 L 15.46 122.00 L 16.75 120.99 L 16.36 122.18 C 17.77 123.09 19.14 124.03 20.58 124.88 L 20.75 125.71 C 21.22 125.61 22.17 125.43 22.64 125.34 L 22.64 126.90 C 23.11 126.71 24.07 126.34 24.55 126.15 L 24.47 127.54 C 25.28 127.53 26.89 127.51 27.69 127.51 L 27.36 128.31 C 30.22 128.79 33.04 129.64 35.96 129.59 C 50.31 129.64 64.66 129.58 79.01 129.62 C 81.60 129.60 84.23 129.67 86.74 128.96 C 89.05 128.55 91.31 127.92 93.56 127.27 L 93.42 126.19 C 93.91 126.36 94.89 126.69 95.37 126.86 L 95.39 125.31 C 95.85 125.41 96.78 125.62 97.24 125.72 L 97.43 124.88 C 98.84 124.04 100.20 123.11 101.58 122.22 L 101.21 121.68 C 101.67 121.52 102.59 121.19 103.04 121.03 C 103.66 120.13 104.28 119.24 104.91 118.35 L 105.21 118.59 C 106.11 117.21 107.04 115.85 107.88 114.44 L 108.67 114.27 C 108.59 113.80 108.43 112.84 108.35 112.36 L 109.91 112.36 C 109.71 111.88 109.33 110.93 109.14 110.46 L 110.27 110.58 C 110.83 108.51 111.47 106.45 111.81 104.33 C 111.93 104.35 112.19 104.40 112.32 104.42 C 112.72 98.62 112.60 92.79 112.61 86.98 C 112.45 69.84 112.96 52.69 112.32 35.56 C 112.11 35.60 111.71 35.68 111.51 35.72 C 111.52 34.83 111.55 33.05 111.56 32.16 L 110.58 32.99 C 110.57 32.11 110.54 30.33 110.52 29.45 L 109.14 29.57 C 109.33 29.08 109.71 28.12 109.90 27.64 L 108.35 27.63 C 108.43 27.15 108.61 26.19 108.70 25.71 L 107.89 25.60 C 107.04 24.15 106.10 22.77 105.19 21.37 L 104.10 21.76 L 104.89 20.38 L 103.30 20.67 L 103.70 19.00 L 102.63 19.92 L 102.45 18.55 L 101.15 18.42 L 101.61 17.80 C 100.23 16.90 98.86 15.97 97.44 15.13 L 97.25 14.30 C 96.78 14.39 95.84 14.57 95.37 14.65 L 95.34 13.10 C 94.87 13.29 93.92 13.67 93.45 13.86 L 93.55 12.49 C 92.65 12.47 90.85 12.43 89.96 12.41 L 90.85 11.47 C 89.37 11.45 87.88 11.43 86.40 11.42 L 86.59 10.59 C 68.18 10.26 49.75 10.26 31.34 10.59 Z" />
<path fill="#000000" opacity="1.00" d=" M 25.38 13.70 C 27.35 13.20 29.30 12.60 31.25 12.03 C 33.46 11.52 35.74 11.59 38.00 11.59 C 53.90 11.67 69.81 11.53 85.71 11.66 C 87.99 12.44 90.30 13.10 92.62 13.72 L 92.74 14.14 C 94.04 14.62 95.32 15.14 96.62 15.63 L 96.65 16.64 C 97.16 16.55 98.18 16.37 98.70 16.28 L 98.16 17.79 L 99.14 17.29 C 101.37 19.43 103.56 21.61 105.69 23.84 L 105.30 24.87 L 106.79 24.31 C 106.67 24.81 106.42 25.81 106.30 26.32 L 107.26 26.30 C 109.30 30.97 111.82 35.80 111.41 41.05 C 111.36 61.06 111.40 81.07 111.39 101.07 C 111.41 102.39 111.14 103.66 110.58 104.86 C 110.52 105.63 110.41 107.17 110.35 107.94 L 109.18 107.35 C 109.29 107.74 109.51 108.52 109.62 108.91 C 108.78 110.48 107.96 112.05 107.18 113.65 L 106.30 113.70 C 106.43 114.20 106.68 115.20 106.80 115.70 L 105.30 115.12 L 105.70 116.15 C 103.41 118.57 101.08 120.99 98.37 122.97 L 98.69 123.81 C 98.19 123.68 97.18 123.42 96.68 123.29 L 96.69 124.16 C 95.09 124.93 93.52 125.76 91.95 126.60 C 91.56 126.50 90.78 126.30 90.39 126.20 L 90.89 127.37 C 89.12 127.47 87.35 127.57 85.59 127.69 C 85.62 127.88 85.69 128.27 85.72 128.46 C 67.72 128.29 49.72 128.44 31.72 128.38 C 30.20 127.76 28.64 127.25 27.10 126.70 C 25.96 126.30 24.85 125.84 23.74 125.40 C 23.15 125.11 21.98 124.54 21.39 124.25 L 21.28 123.32 C 20.78 123.44 19.80 123.67 19.31 123.78 L 19.85 122.36 L 18.79 122.66 C 16.59 120.53 14.42 118.36 12.30 116.15 L 12.74 115.13 L 11.23 115.71 C 11.34 115.21 11.56 114.21 11.68 113.72 L 10.69 113.62 C 10.45 112.99 9.95 111.73 9.71 111.10 C 9.36 110.59 8.67 109.56 8.33 109.05 C 8.45 108.61 8.69 107.75 8.82 107.31 L 7.84 107.94 C 7.59 106.32 7.29 104.71 6.66 103.19 C 6.56 81.05 6.60 58.91 6.65 36.77 C 7.47 34.70 8.14 32.56 8.73 30.40 L 9.14 30.25 C 9.63 28.95 10.16 27.66 10.65 26.37 L 11.69 26.31 C 11.57 25.81 11.33 24.81 11.21 24.31 L 12.04 24.63 C 14.13 21.72 16.69 19.17 19.58 17.06 L 19.37 16.16 L 21.22 16.72 C 21.28 16.44 21.40 15.89 21.46 15.61 C 22.72 15.12 23.99 14.61 25.26 14.14 L 25.38 13.70 M 49.86 27.78 C 49.81 37.41 49.83 47.04 49.85 56.68 C 47.17 59.17 44.76 62.29 44.62 66.11 C 43.62 72.93 49.01 80.11 56.02 80.42 C 62.04 81.12 67.74 76.56 69.13 70.81 C 70.81 65.59 68.11 60.08 64.15 56.67 C 64.17 47.04 64.19 37.41 64.14 27.78 C 59.39 27.42 54.61 27.42 49.86 27.78 M 68.50 43.99 C 68.06 44.49 67.20 45.49 66.77 45.99 C 67.21 46.52 68.08 47.58 68.52 48.11 C 70.40 47.80 73.20 48.60 73.63 46.03 C 73.19 43.43 70.38 44.27 68.50 43.99 M 68.48 50.88 C 68.05 51.42 67.20 52.49 66.78 53.03 C 67.21 53.53 68.08 54.52 68.51 55.02 C 69.91 54.93 71.32 54.91 72.70 54.67 C 73.72 53.56 73.74 52.44 72.76 51.30 C 71.35 51.03 69.91 51.00 68.48 50.88 Z" />
<path fill="#000000" opacity="1.00" d=" M 53.46 31.20 C 55.82 31.27 58.18 31.27 60.54 31.20 C 60.24 40.35 60.53 49.50 60.38 58.65 C 65.19 61.21 67.39 67.62 64.51 72.40 C 61.63 78.06 52.45 78.09 49.52 72.46 C 46.60 67.67 48.77 61.22 53.62 58.66 C 53.48 49.51 53.76 40.35 53.46 31.20 M 54.99 44.00 C 54.91 49.27 55.34 54.56 54.99 59.82 C 53.37 61.81 50.27 63.02 49.96 65.93 C 48.59 71.10 54.42 76.80 59.52 74.56 C 62.17 73.04 64.65 70.29 64.18 67.00 C 64.33 63.62 61.08 61.88 58.94 59.90 C 58.75 54.60 59.05 49.30 59.01 44.00 C 57.67 44.00 56.33 44.00 54.99 44.00 Z" />
</g>
<g id="#f6faf7ff">
<path fill="#f6faf7" opacity="1.00" d=" M 31.34 10.59 C 49.75 10.26 68.18 10.26 86.59 10.59 L 86.40 11.42 C 87.88 11.43 89.37 11.45 90.85 11.47 L 89.96 12.41 C 90.85 12.43 92.65 12.47 93.55 12.49 L 93.45 13.86 C 93.92 13.67 94.87 13.29 95.34 13.10 L 95.37 14.65 C 95.84 14.57 96.78 14.39 97.25 14.30 L 97.44 15.13 C 98.86 15.97 100.23 16.90 101.61 17.80 L 101.15 18.42 L 102.45 18.55 L 102.63 19.92 L 103.70 19.00 L 103.30 20.67 L 104.89 20.38 L 104.10 21.76 L 105.19 21.37 C 106.10 22.77 107.04 24.15 107.89 25.60 L 108.70 25.71 C 108.61 26.19 108.43 27.15 108.35 27.63 L 109.90 27.64 C 109.71 28.12 109.33 29.08 109.14 29.57 L 110.52 29.45 C 110.54 30.33 110.57 32.11 110.58 32.99 L 111.56 32.16 C 111.55 33.05 111.52 34.83 111.51 35.72 C 111.71 35.68 112.11 35.60 112.32 35.56 C 112.96 52.69 112.45 69.84 112.61 86.98 C 112.60 92.79 112.72 98.62 112.32 104.42 C 112.19 104.40 111.93 104.35 111.81 104.33 C 111.47 106.45 110.83 108.51 110.27 110.58 L 109.14 110.46 C 109.33 110.93 109.71 111.88 109.91 112.36 L 108.35 112.36 C 108.43 112.84 108.59 113.80 108.67 114.27 L 107.88 114.44 C 107.04 115.85 106.11 117.21 105.21 118.59 L 104.91 118.35 C 104.28 119.24 103.66 120.13 103.04 121.03 C 102.59 121.19 101.67 121.52 101.21 121.68 L 101.58 122.22 C 100.20 123.11 98.84 124.04 97.43 124.88 L 97.24 125.72 C 96.78 125.62 95.85 125.41 95.39 125.31 L 95.37 126.86 C 94.89 126.69 93.91 126.36 93.42 126.19 L 93.56 127.27 C 91.31 127.92 89.05 128.55 86.74 128.96 C 84.23 129.67 81.60 129.60 79.01 129.62 C 64.66 129.58 50.31 129.64 35.96 129.59 C 33.04 129.64 30.22 128.79 27.36 128.31 L 27.69 127.51 C 26.89 127.51 25.28 127.53 24.47 127.54 L 24.55 126.15 C 24.07 126.34 23.11 126.71 22.64 126.90 L 22.64 125.34 C 22.17 125.43 21.22 125.61 20.75 125.71 L 20.58 124.88 C 19.14 124.03 17.77 123.09 16.36 122.18 L 16.75 120.99 L 15.46 122.00 L 15.64 120.32 L 13.93 120.58 L 14.92 119.31 L 13.27 119.60 L 13.64 118.08 L 12.81 118.63 C 11.90 117.23 10.96 115.85 10.12 114.41 L 9.29 114.27 C 9.39 113.80 9.59 112.87 9.69 112.40 L 8.16 112.37 C 8.32 111.89 8.63 110.92 8.79 110.44 L 7.72 110.51 C 7.22 108.63 6.64 106.77 6.18 104.88 C 4.80 99.37 5.59 93.64 5.39 88.02 C 5.56 70.51 5.02 52.97 5.69 35.47 L 6.47 35.84 C 6.46 34.91 6.46 33.07 6.45 32.15 L 7.43 33.02 C 7.44 32.14 7.46 30.36 7.47 29.48 L 8.81 29.58 C 8.64 29.10 8.32 28.15 8.15 27.67 L 9.78 27.51 L 9.21 25.84 C 9.44 25.77 9.90 25.62 10.14 25.55 C 10.97 24.13 11.91 22.77 12.81 21.39 L 13.39 21.86 C 13.51 21.40 13.75 20.47 13.87 20.01 C 14.83 19.42 15.75 18.78 16.63 18.08 L 16.47 17.89 C 17.72 16.98 18.94 16.03 20.17 15.08 C 20.80 14.86 22.06 14.43 22.69 14.21 L 22.63 13.14 C 23.12 13.31 24.10 13.63 24.60 13.80 L 24.45 12.48 C 25.34 12.47 27.10 12.45 27.98 12.44 L 27.18 11.45 C 28.72 11.44 30.25 11.44 31.79 11.44 L 31.34 10.59 M 25.38 13.70 L 25.26 14.14 C 23.99 14.61 22.72 15.12 21.46 15.61 C 21.40 15.89 21.28 16.44 21.22 16.72 L 19.37 16.16 L 19.58 17.06 C 16.69 19.17 14.13 21.72 12.04 24.63 L 11.21 24.31 C 11.33 24.81 11.57 25.81 11.69 26.31 L 10.65 26.37 C 10.16 27.66 9.63 28.95 9.14 30.25 L 8.73 30.40 C 8.14 32.56 7.47 34.70 6.65 36.77 C 6.60 58.91 6.56 81.05 6.66 103.19 C 7.29 104.71 7.59 106.32 7.84 107.94 L 8.82 107.31 C 8.69 107.75 8.45 108.61 8.33 109.05 C 8.67 109.56 9.36 110.59 9.71 111.10 C 9.95 111.73 10.45 112.99 10.69 113.62 L 11.68 113.72 C 11.56 114.21 11.34 115.21 11.23 115.71 L 12.74 115.13 L 12.30 116.15 C 14.42 118.36 16.59 120.53 18.79 122.66 L 19.85 122.36 L 19.31 123.78 C 19.80 123.67 20.78 123.44 21.28 123.32 L 21.39 124.25 C 21.98 124.54 23.15 125.11 23.74 125.40 C 24.85 125.84 25.96 126.30 27.10 126.70 C 28.64 127.25 30.20 127.76 31.72 128.38 C 49.72 128.44 67.72 128.29 85.72 128.46 C 85.69 128.27 85.62 127.88 85.59 127.69 C 87.35 127.57 89.12 127.47 90.89 127.37 L 90.39 126.20 C 90.78 126.30 91.56 126.50 91.95 126.60 C 93.52 125.76 95.09 124.93 96.69 124.16 L 96.68 123.29 C 97.18 123.42 98.19 123.68 98.69 123.81 L 98.37 122.97 C 101.08 120.99 103.41 118.57 105.70 116.15 L 105.30 115.12 L 106.80 115.70 C 106.68 115.20 106.43 114.20 106.30 113.70 L 107.18 113.65 C 107.96 112.05 108.78 110.48 109.62 108.91 C 109.51 108.52 109.29 107.74 109.18 107.35 L 110.35 107.94 C 110.41 107.17 110.52 105.63 110.58 104.86 C 111.14 103.66 111.41 102.39 111.39 101.07 C 111.40 81.07 111.36 61.06 111.41 41.05 C 111.82 35.80 109.30 30.97 107.26 26.30 L 106.30 26.32 C 106.42 25.81 106.67 24.81 106.79 24.31 L 105.30 24.87 L 105.69 23.84 C 103.56 21.61 101.37 19.43 99.14 17.29 L 98.16 17.79 L 98.70 16.28 C 98.18 16.37 97.16 16.55 96.65 16.64 L 96.62 15.63 C 95.32 15.14 94.04 14.62 92.74 14.14 L 92.62 13.72 C 90.30 13.10 87.99 12.44 85.71 11.66 C 69.81 11.53 53.90 11.67 38.00 11.59 C 35.74 11.59 33.46 11.52 31.25 12.03 C 29.30 12.60 27.35 13.20 25.38 13.70 Z" />
<path fill="#f6faf7" opacity="1.00" d=" M 49.86 27.78 C 54.61 27.42 59.39 27.42 64.14 27.78 C 64.19 37.41 64.17 47.04 64.15 56.67 C 68.11 60.08 70.81 65.59 69.13 70.81 C 67.74 76.56 62.04 81.12 56.02 80.42 C 49.01 80.11 43.62 72.93 44.62 66.11 C 44.76 62.29 47.17 59.17 49.85 56.68 C 49.83 47.04 49.81 37.41 49.86 27.78 M 53.46 31.20 C 53.76 40.35 53.48 49.51 53.62 58.66 C 48.77 61.22 46.60 67.67 49.52 72.46 C 52.45 78.09 61.63 78.06 64.51 72.40 C 67.39 67.62 65.19 61.21 60.38 58.65 C 60.53 49.50 60.24 40.35 60.54 31.20 C 58.18 31.27 55.82 31.27 53.46 31.20 Z" />
<path fill="#f6faf7" opacity="1.00" d=" M 54.99 44.00 C 56.33 44.00 57.67 44.00 59.01 44.00 C 59.05 49.30 58.75 54.60 58.94 59.90 C 61.08 61.88 64.33 63.62 64.18 67.00 C 64.65 70.29 62.17 73.04 59.52 74.56 C 54.42 76.80 48.59 71.10 49.96 65.93 C 50.27 63.02 53.37 61.81 54.99 59.82 C 55.34 54.56 54.91 49.27 54.99 44.00 Z" />
<path fill="#f6faf7" opacity="1.00" d=" M 68.50 43.99 C 70.38 44.27 73.19 43.43 73.63 46.03 C 73.20 48.60 70.40 47.80 68.52 48.11 C 68.08 47.58 67.21 46.52 66.77 45.99 C 67.20 45.49 68.06 44.49 68.50 43.99 Z" />
<path fill="#f6faf7" opacity="1.00" d=" M 68.48 50.88 C 69.91 51.00 71.35 51.03 72.76 51.30 C 73.74 52.44 73.72 53.56 72.70 54.67 C 71.32 54.91 69.91 54.93 68.51 55.02 C 68.08 54.52 67.21 53.53 66.78 53.03 C 67.20 52.49 68.05 51.42 68.48 50.88 Z" />
</g>
</svg>
