<?xml version="1.0" encoding="UTF-8" ?>
<!DOCTYPE svg PUBLIC "-//W3C//DTD SVG 1.1//EN" "http://www.w3.org/Graphics/SVG/1.1/DTD/svg11.dtd">
<svg width="117px" height="140px" viewBox="0 0 117 140" version="1.1" xmlns="http://www.w3.org/2000/svg">
<g id="#000000ff">
<path fill="#000000" opacity="1.00" d=" M 0.00 0.00 L 117.00 0.00 L 117.00 140.00 L 0.00 140.00 L 0.00 0.00 M 32.41 10.54 C 17.61 12.03 5.12 25.05 4.43 39.92 C 4.34 59.29 4.43 78.66 4.39 98.03 C 4.22 105.87 7.49 113.57 12.65 119.39 C 18.79 126.07 27.88 129.92 36.95 129.62 C 51.93 129.56 66.92 129.68 81.90 129.56 C 97.36 128.97 110.90 115.53 111.56 100.08 C 111.67 80.71 111.58 61.34 111.61 41.97 C 111.78 34.12 108.51 26.43 103.34 20.61 C 97.21 13.92 88.11 10.09 79.05 10.38 C 63.51 10.51 47.95 10.18 32.41 10.54 Z" />
<path fill="#000000" opacity="1.00" d=" M 32.21 11.68 C 48.81 11.49 65.42 11.68 82.02 11.59 C 96.44 12.35 109.00 24.61 110.40 38.91 C 110.39 59.64 110.39 80.36 110.40 101.09 C 109.01 115.39 96.44 127.65 82.02 128.41 C 66.01 128.39 50.00 128.38 33.98 128.41 C 19.56 127.65 7.00 115.39 5.59 101.09 C 5.61 80.72 5.62 60.35 5.59 39.98 C 6.34 25.78 18.17 13.48 32.21 11.68 M 41.60 42.00 C 41.57 50.67 41.57 59.34 41.60 68.01 C 44.40 67.99 47.20 67.99 50.00 68.01 C 50.00 64.95 49.99 61.90 50.00 58.84 C 53.19 58.82 56.38 58.82 59.57 58.92 C 59.60 56.81 59.61 54.70 59.60 52.59 C 56.41 52.57 53.22 52.58 50.03 52.61 C 50.02 51.20 50.02 49.80 50.03 48.39 C 53.98 48.44 57.92 48.43 61.87 48.37 C 61.84 46.25 61.84 44.14 61.85 42.02 C 55.10 41.98 48.35 42.01 41.60 42.00 M 72.46 50.82 C 71.01 47.92 67.18 49.61 64.62 49.12 C 64.55 55.42 64.58 61.71 64.59 68.01 C 67.28 68.00 69.97 68.00 72.66 67.96 C 72.72 64.73 72.24 61.42 72.98 58.25 C 74.00 55.99 76.63 56.04 78.71 55.72 C 78.62 53.22 78.60 50.72 78.50 48.22 C 76.22 48.37 74.11 49.23 72.46 50.82 Z" />
</g>
<g id="#f7fbf8ff">
<path fill="#f7fbf8" opacity="1.00" d=" M 32.41 10.54 C 47.95 10.18 63.51 10.51 79.05 10.38 C 88.11 10.09 97.21 13.92 103.34 20.61 C 108.51 26.43 111.78 34.12 111.61 41.97 C 111.58 61.34 111.67 80.71 111.56 100.08 C 110.90 115.53 97.36 128.97 81.90 129.56 C 66.92 129.68 51.93 129.56 36.95 129.62 C 27.88 129.92 18.79 126.07 12.65 119.39 C 7.49 113.57 4.22 105.87 4.39 98.03 C 4.43 78.66 4.34 59.29 4.43 39.92 C 5.12 25.05 17.61 12.03 32.41 10.54 M 32.21 11.68 C 18.17 13.48 6.34 25.78 5.59 39.98 C 5.62 60.35 5.61 80.72 5.59 101.09 C 7.00 115.39 19.56 127.65 33.98 128.41 C 50.00 128.38 66.01 128.39 82.02 128.41 C 96.44 127.65 109.01 115.39 110.40 101.09 C 110.39 80.36 110.39 59.64 110.40 38.91 C 109.00 24.61 96.44 12.35 82.02 11.59 C 65.42 11.68 48.81 11.49 32.21 11.68 Z" />
<path fill="#f7fbf8" opacity="1.00" d=" M 41.60 42.00 C 48.35 42.01 55.10 41.98 61.85 42.02 C 61.84 44.14 61.84 46.25 61.87 48.37 C 57.92 48.43 53.98 48.44 50.03 48.39 C 50.02 49.80 50.02 51.20 50.03 52.61 C 53.22 52.58 56.41 52.57 59.60 52.59 C 59.61 54.70 59.60 56.81 59.57 58.92 C 56.38 58.82 53.19 58.82 50.00 58.84 C 49.99 61.90 50.00 64.95 50.00 68.01 C 47.20 67.99 44.40 67.99 41.60 68.01 C 41.57 59.34 41.57 50.67 41.60 42.00 Z" />
<path fill="#f7fbf8" opacity="1.00" d=" M 72.46 50.82 C 74.11 49.23 76.22 48.37 78.50 48.22 C 78.60 50.72 78.62 53.22 78.71 55.72 C 76.63 56.04 74.00 55.99 72.98 58.25 C 72.24 61.42 72.72 64.73 72.66 67.96 C 69.97 68.00 67.28 68.00 64.59 68.01 C 64.58 61.71 64.55 55.42 64.62 49.12 C 67.18 49.61 71.01 47.92 72.46 50.82 Z" />
</g>
</svg>
