<?xml version="1.0" encoding="UTF-8" ?>
<!DOCTYPE svg PUBLIC "-//W3C//DTD SVG 1.1//EN" "http://www.w3.org/Graphics/SVG/1.1/DTD/svg11.dtd">
<svg width="117px" height="140px" viewBox="0 0 117 140" version="1.1" xmlns="http://www.w3.org/2000/svg">
<g id="#000000ff">
<path fill="#000000" opacity="1.00" d=" M 0.00 0.00 L 117.00 0.00 L 117.00 140.00 L 0.00 140.00 L 0.00 0.00 M 32.23 10.45 L 32.80 11.46 C 29.95 11.04 27.21 11.83 24.52 12.67 L 24.51 13.80 C 24.05 13.63 23.13 13.30 22.66 13.14 L 22.62 14.41 C 22.01 14.62 20.78 15.03 20.17 15.24 C 18.99 16.00 17.85 16.85 16.76 17.75 C 15.77 18.52 14.42 19.12 14.37 20.59 L 13.32 20.31 L 13.68 21.71 L 12.80 21.43 C 11.95 22.77 10.87 23.99 10.35 25.52 L 9.33 25.71 C 9.40 26.18 9.56 27.12 9.64 27.60 L 8.11 27.68 C 8.29 28.14 8.66 29.06 8.84 29.52 L 7.74 29.50 C 7.50 30.65 7.11 31.76 6.56 32.80 C 6.48 34.10 6.48 35.39 6.54 36.69 C 6.29 36.61 5.80 36.45 5.56 36.38 C 5.28 58.78 5.27 81.20 5.56 103.61 C 5.84 103.55 6.41 103.44 6.69 103.38 C 5.80 105.86 6.59 108.32 7.75 110.53 L 8.81 110.45 C 8.64 110.92 8.31 111.87 8.14 112.34 L 9.67 112.41 C 9.58 112.87 9.40 113.80 9.32 114.27 L 10.35 114.48 C 10.88 116.00 11.92 117.24 12.78 118.58 L 13.73 118.28 L 13.24 119.70 L 14.77 119.31 L 14.18 120.78 L 15.64 120.22 L 15.32 121.73 L 16.71 121.28 L 16.43 122.18 C 17.77 123.05 18.98 124.18 20.54 124.67 L 20.73 125.68 C 21.22 125.60 22.18 125.45 22.66 125.38 L 22.62 126.88 C 23.10 126.70 24.07 126.36 24.56 126.19 L 24.46 127.54 C 25.30 127.53 26.99 127.50 27.83 127.48 L 27.29 128.44 C 30.25 128.55 33.05 129.81 36.05 129.60 C 52.58 129.59 69.11 129.69 85.64 129.53 L 85.64 128.67 C 88.35 128.83 90.93 128.15 93.48 127.33 L 93.46 126.24 C 93.95 126.38 94.94 126.67 95.43 126.82 L 95.36 125.33 C 95.83 125.43 96.78 125.62 97.25 125.72 L 97.42 124.73 C 98.96 124.18 100.19 123.08 101.54 122.20 L 101.35 121.28 L 102.74 121.70 L 102.40 120.65 C 103.85 120.52 104.49 119.24 105.26 118.24 C 106.32 116.78 107.41 115.34 108.59 113.97 C 108.53 113.57 108.42 112.76 108.36 112.35 L 109.83 112.41 C 109.68 111.92 109.39 110.95 109.24 110.46 L 110.34 110.48 C 110.92 108.14 112.02 105.80 111.43 103.33 C 111.68 103.41 112.19 103.56 112.44 103.63 C 112.81 82.75 112.54 61.87 112.59 40.99 C 112.79 38.00 111.56 35.22 111.41 32.28 L 110.48 32.83 C 110.50 31.99 110.53 30.29 110.55 29.44 L 109.40 29.63 C 109.71 26.40 106.49 24.19 105.18 21.42 L 104.24 21.74 L 104.79 20.32 L 103.23 20.68 L 103.84 19.28 L 102.26 19.67 L 102.72 18.22 L 101.36 18.77 L 101.45 17.74 C 100.18 16.88 98.96 15.88 97.50 15.34 L 97.26 14.32 C 96.78 14.40 95.83 14.55 95.36 14.62 L 95.33 13.08 C 94.87 13.28 93.95 13.67 93.49 13.87 L 93.56 12.47 C 92.71 12.48 91.02 12.51 90.17 12.52 L 90.72 11.45 C 88.90 11.44 87.07 11.43 85.26 11.47 L 85.73 10.44 C 67.90 10.35 50.06 10.34 32.23 10.45 Z" />
<path fill="#000000" opacity="1.00" d=" M 27.17 12.58 C 30.52 12.98 33.62 11.33 36.96 11.59 C 51.97 11.64 66.98 11.62 82.00 11.60 C 83.29 11.54 84.55 11.72 85.77 12.15 C 88.07 12.50 90.32 13.08 92.58 13.61 L 92.65 14.62 C 93.11 14.53 94.03 14.35 94.49 14.26 L 94.65 15.56 C 95.12 15.49 96.05 15.36 96.52 15.30 L 96.63 16.68 C 97.15 16.58 98.19 16.39 98.72 16.30 L 98.21 17.91 L 99.60 17.10 L 99.45 18.14 C 101.69 19.44 103.57 21.31 104.86 23.56 L 105.88 23.40 L 105.09 24.76 L 106.71 24.31 C 106.61 24.82 106.41 25.85 106.31 26.36 L 107.70 26.47 C 107.63 26.93 107.50 27.85 107.43 28.31 L 108.72 28.50 C 108.64 28.97 108.47 29.89 108.38 30.36 L 109.39 30.41 C 109.89 32.49 110.50 34.56 110.65 36.71 L 111.53 36.20 C 111.17 58.24 111.55 80.29 111.33 102.32 C 110.41 104.00 110.38 105.93 110.42 107.79 L 109.10 107.45 C 109.29 107.94 109.67 108.93 109.86 109.43 L 108.45 109.60 C 108.48 109.98 108.53 110.75 108.56 111.13 C 107.90 111.95 107.40 112.85 107.06 113.84 C 106.25 114.76 105.52 115.74 104.83 116.75 C 103.36 118.74 101.66 120.60 99.49 121.84 L 99.53 122.84 L 98.15 122.17 L 98.72 123.75 C 98.20 123.64 97.16 123.41 96.65 123.29 L 96.52 124.73 L 94.77 124.41 C 94.69 124.73 94.53 125.38 94.45 125.70 C 93.99 125.63 93.07 125.50 92.61 125.43 L 92.39 126.92 C 91.90 126.68 90.92 126.19 90.43 125.95 L 90.85 127.42 C 89.05 127.46 87.26 127.54 85.47 127.62 L 85.42 128.43 C 67.35 128.43 49.26 128.23 31.19 128.52 L 31.75 127.64 C 29.58 127.51 27.51 126.83 25.40 126.39 L 25.36 125.39 C 24.97 125.45 24.20 125.58 23.81 125.64 L 23.06 124.70 C 22.66 124.64 21.85 124.52 21.45 124.46 L 21.36 123.32 C 20.84 123.42 19.81 123.61 19.29 123.71 L 19.78 122.05 L 18.39 122.91 L 18.56 121.87 C 16.31 120.57 14.44 118.68 13.14 116.44 L 12.09 116.56 L 12.88 115.15 L 11.27 115.72 C 11.37 115.20 11.59 114.16 11.69 113.64 L 10.31 113.52 C 10.37 113.06 10.50 112.14 10.56 111.68 L 9.30 111.51 C 9.37 111.05 9.51 110.13 9.58 109.67 L 8.01 109.27 L 9.25 106.40 C 8.84 106.74 8.03 107.42 7.63 107.76 C 7.54 106.37 7.37 103.60 7.29 102.21 L 6.16 102.90 C 6.48 101.67 6.64 100.41 6.63 99.13 C 6.65 79.33 6.50 59.52 6.71 39.72 C 8.47 37.65 7.24 34.76 7.50 32.34 L 8.90 32.48 C 8.70 32.01 8.32 31.07 8.12 30.60 L 9.58 30.37 C 9.52 29.90 9.39 28.96 9.32 28.49 L 10.56 28.31 C 10.50 27.85 10.37 26.93 10.30 26.47 L 11.70 26.36 C 11.59 25.85 11.38 24.84 11.28 24.33 L 12.93 24.70 L 12.09 23.29 L 13.11 23.60 C 14.43 21.35 16.26 19.41 18.57 18.14 L 18.38 17.09 L 19.78 17.91 L 19.29 16.28 C 19.81 16.39 20.85 16.59 21.36 16.70 L 21.47 15.30 C 21.93 15.37 22.85 15.50 23.31 15.57 L 23.48 14.32 C 23.96 14.38 24.90 14.50 25.38 14.56 L 25.61 13.10 C 26.10 13.33 27.08 13.77 27.57 14.00 L 27.17 12.58 M 57.00 28.90 C 49.32 36.59 41.67 44.30 33.99 51.99 C 34.07 52.64 34.24 53.93 34.32 54.57 C 37.82 54.58 42.34 56.02 44.88 52.80 C 49.54 48.03 54.27 43.33 58.99 38.62 C 64.32 43.76 69.31 49.27 74.78 54.25 C 77.56 55.37 80.73 54.65 83.65 54.58 C 83.74 53.94 83.92 52.67 84.00 52.03 C 76.39 44.32 68.70 36.69 61.08 28.99 C 60.12 27.65 57.98 27.54 57.00 28.90 M 57.11 43.06 C 52.80 47.46 48.45 51.83 44.22 56.32 C 42.68 57.82 43.21 60.12 43.10 62.04 C 43.25 66.65 42.92 71.28 43.23 75.88 C 43.79 77.90 46.31 77.46 47.90 77.55 C 50.56 77.34 53.44 78.04 55.96 77.03 C 57.31 73.54 56.23 69.51 56.54 65.81 C 58.41 65.83 60.28 65.84 62.15 65.85 C 62.19 69.21 61.93 72.58 62.23 75.93 C 63.12 78.22 66.06 77.34 67.94 77.56 C 70.15 77.22 73.51 78.47 74.77 75.98 C 74.85 69.87 75.17 63.66 74.61 57.58 C 70.68 52.50 65.69 48.28 61.35 43.52 C 60.40 42.13 58.24 41.53 57.11 43.06 Z" />
<path fill="#000000" opacity="1.00" d=" M 38.14 51.81 C 45.31 45.14 52.01 37.99 58.99 31.11 C 65.97 37.97 72.64 45.14 79.82 51.79 C 78.69 51.79 77.57 51.80 76.44 51.81 C 71.07 46.41 65.79 40.89 60.24 35.67 C 58.43 34.28 56.77 36.47 55.59 37.62 C 50.97 42.40 46.18 47.01 41.56 51.80 C 40.42 51.80 39.28 51.80 38.14 51.81 Z" />
<path fill="#000000" opacity="1.00" d=" M 46.17 58.55 C 50.53 54.28 54.73 49.85 58.99 45.48 C 62.69 49.28 66.34 53.13 70.13 56.85 C 70.88 57.72 72.08 58.53 71.85 59.87 C 71.94 64.75 71.81 69.63 71.88 74.51 C 69.62 74.49 67.36 74.49 65.11 74.51 C 65.14 70.73 65.34 66.93 64.74 63.18 C 61.29 62.92 57.63 62.27 54.28 63.31 C 52.83 66.87 53.74 70.88 53.67 74.62 C 51.16 74.45 48.64 74.46 46.12 74.52 C 46.16 69.20 46.09 63.87 46.17 58.55 Z" />
</g>
<g id="#f5f9f6ff">
<path fill="#f5f9f6" opacity="1.00" d=" M 32.23 10.45 C 50.06 10.34 67.90 10.35 85.73 10.44 L 85.26 11.47 C 87.07 11.43 88.90 11.44 90.72 11.45 L 90.17 12.52 C 91.02 12.51 92.71 12.48 93.56 12.47 L 93.49 13.87 C 93.95 13.67 94.87 13.28 95.33 13.08 L 95.36 14.62 C 95.83 14.55 96.78 14.40 97.26 14.32 L 97.50 15.34 C 98.96 15.88 100.18 16.88 101.45 17.74 L 101.36 18.77 L 102.72 18.22 L 102.26 19.67 L 103.84 19.28 L 103.23 20.68 L 104.79 20.32 L 104.24 21.74 L 105.18 21.42 C 106.49 24.19 109.71 26.40 109.40 29.63 L 110.55 29.44 C 110.53 30.29 110.50 31.99 110.48 32.83 L 111.41 32.28 C 111.56 35.22 112.79 38.00 112.59 40.99 C 112.54 61.87 112.81 82.75 112.44 103.63 C 112.19 103.56 111.68 103.41 111.43 103.33 C 112.02 105.80 110.92 108.14 110.34 110.48 L 109.24 110.46 C 109.39 110.95 109.68 111.92 109.83 112.41 L 108.36 112.35 C 108.42 112.76 108.53 113.57 108.59 113.97 C 107.41 115.34 106.32 116.78 105.26 118.24 C 104.49 119.24 103.85 120.52 102.40 120.65 L 102.74 121.70 L 101.35 121.28 L 101.54 122.20 C 100.19 123.08 98.96 124.18 97.42 124.73 L 97.25 125.72 C 96.78 125.62 95.83 125.43 95.36 125.33 L 95.43 126.82 C 94.94 126.67 93.95 126.38 93.46 126.24 L 93.48 127.33 C 90.93 128.15 88.35 128.83 85.64 128.67 L 85.64 129.53 C 69.11 129.69 52.58 129.59 36.05 129.60 C 33.05 129.81 30.25 128.55 27.29 128.44 L 27.83 127.48 C 26.99 127.50 25.30 127.53 24.46 127.54 L 24.56 126.19 C 24.07 126.36 23.10 126.70 22.62 126.88 L 22.66 125.38 C 22.18 125.45 21.22 125.60 20.73 125.68 L 20.54 124.67 C 18.98 124.18 17.77 123.05 16.43 122.18 L 16.71 121.28 L 15.32 121.73 L 15.64 120.22 L 14.18 120.78 L 14.77 119.31 L 13.24 119.70 L 13.73 118.28 L 12.78 118.58 C 11.92 117.24 10.88 116.00 10.35 114.48 L 9.32 114.27 C 9.40 113.80 9.58 112.87 9.67 112.41 L 8.14 112.34 C 8.31 111.87 8.64 110.92 8.81 110.45 L 7.75 110.53 C 6.59 108.32 5.80 105.86 6.69 103.38 C 6.41 103.44 5.84 103.55 5.56 103.61 C 5.27 81.20 5.28 58.78 5.56 36.38 C 5.80 36.45 6.29 36.61 6.54 36.69 C 6.48 35.39 6.48 34.10 6.56 32.80 C 7.11 31.76 7.50 30.65 7.74 29.50 L 8.84 29.52 C 8.66 29.06 8.29 28.14 8.11 27.68 L 9.64 27.60 C 9.56 27.12 9.40 26.18 9.33 25.71 L 10.35 25.52 C 10.87 23.99 11.95 22.77 12.80 21.43 L 13.68 21.71 L 13.32 20.31 L 14.37 20.59 C 14.42 19.12 15.77 18.52 16.76 17.75 C 17.85 16.85 18.99 16.00 20.17 15.24 C 20.78 15.03 22.01 14.62 22.62 14.41 L 22.66 13.14 C 23.13 13.30 24.05 13.63 24.51 13.80 L 24.52 12.67 C 27.21 11.83 29.95 11.04 32.80 11.46 L 32.23 10.45 M 27.17 12.58 L 27.57 14.00 C 27.08 13.77 26.10 13.33 25.61 13.10 L 25.38 14.56 C 24.90 14.50 23.96 14.38 23.48 14.32 L 23.31 15.57 C 22.85 15.50 21.93 15.37 21.47 15.30 L 21.36 16.70 C 20.85 16.59 19.81 16.39 19.29 16.28 L 19.78 17.91 L 18.38 17.09 L 18.57 18.14 C 16.26 19.41 14.43 21.35 13.11 23.60 L 12.09 23.29 L 12.93 24.70 L 11.28 24.33 C 11.38 24.84 11.59 25.85 11.70 26.36 L 10.30 26.47 C 10.37 26.93 10.50 27.85 10.56 28.31 L 9.32 28.49 C 9.39 28.96 9.52 29.90 9.58 30.37 L 8.12 30.60 C 8.32 31.07 8.70 32.01 8.90 32.48 L 7.50 32.34 C 7.24 34.76 8.47 37.65 6.71 39.72 C 6.50 59.52 6.65 79.33 6.63 99.13 C 6.64 100.41 6.48 101.67 6.16 102.90 L 7.29 102.21 C 7.37 103.60 7.54 106.37 7.63 107.76 C 8.03 107.42 8.84 106.74 9.25 106.40 L 8.01 109.27 L 9.58 109.67 C 9.51 110.13 9.37 111.05 9.30 111.51 L 10.56 111.68 C 10.50 112.14 10.37 113.06 10.31 113.52 L 11.69 113.64 C 11.59 114.16 11.37 115.20 11.27 115.72 L 12.88 115.15 L 12.09 116.56 L 13.14 116.44 C 14.44 118.68 16.31 120.57 18.56 121.87 L 18.39 122.91 L 19.78 122.05 L 19.29 123.71 C 19.81 123.61 20.84 123.42 21.36 123.32 L 21.45 124.46 C 21.85 124.52 22.66 124.64 23.06 124.70 L 23.81 125.64 C 24.20 125.58 24.97 125.45 25.36 125.39 L 25.40 126.39 C 27.51 126.83 29.58 127.51 31.75 127.64 L 31.19 128.52 C 49.26 128.23 67.35 128.43 85.42 128.43 L 85.47 127.62 C 87.26 127.54 89.05 127.46 90.85 127.42 L 90.43 125.95 C 90.92 126.19 91.90 126.68 92.39 126.92 L 92.61 125.43 C 93.07 125.50 93.99 125.63 94.45 125.70 C 94.53 125.38 94.69 124.73 94.77 124.41 L 96.52 124.73 L 96.65 123.29 C 97.16 123.41 98.20 123.64 98.72 123.75 L 98.15 122.17 L 99.53 122.84 L 99.49 121.84 C 101.66 120.60 103.36 118.74 104.83 116.75 C 105.52 115.74 106.25 114.76 107.06 113.84 C 107.40 112.85 107.90 111.95 108.56 111.13 C 108.53 110.75 108.48 109.98 108.45 109.60 L 109.86 109.43 C 109.67 108.93 109.29 107.94 109.10 107.45 L 110.42 107.79 C 110.38 105.93 110.41 104.00 111.33 102.32 C 111.55 80.29 111.17 58.24 111.53 36.20 L 110.65 36.71 C 110.50 34.56 109.89 32.49 109.39 30.41 L 108.38 30.36 C 108.47 29.89 108.64 28.97 108.72 28.50 L 107.43 28.31 C 107.50 27.85 107.63 26.93 107.70 26.47 L 106.31 26.36 C 106.41 25.85 106.61 24.82 106.71 24.31 L 105.09 24.76 L 105.88 23.40 L 104.86 23.56 C 103.57 21.31 101.69 19.44 99.45 18.14 L 99.60 17.10 L 98.21 17.91 L 98.72 16.30 C 98.19 16.39 97.15 16.58 96.63 16.68 L 96.52 15.30 C 96.05 15.36 95.12 15.49 94.65 15.56 L 94.49 14.26 C 94.03 14.35 93.11 14.53 92.65 14.62 L 92.58 13.61 C 90.32 13.08 88.07 12.50 85.77 12.15 C 84.55 11.72 83.29 11.54 82.00 11.60 C 66.98 11.62 51.97 11.64 36.96 11.59 C 33.62 11.33 30.52 12.98 27.17 12.58 Z" />
<path fill="#f5f9f6" opacity="1.00" d=" M 57.00 28.90 C 57.98 27.54 60.12 27.65 61.08 28.99 C 68.70 36.69 76.39 44.32 84.00 52.03 C 83.92 52.67 83.74 53.94 83.65 54.58 C 80.73 54.65 77.56 55.37 74.78 54.25 C 69.31 49.27 64.32 43.76 58.99 38.62 C 54.27 43.33 49.54 48.03 44.88 52.80 C 42.34 56.02 37.82 54.58 34.32 54.57 C 34.24 53.93 34.07 52.64 33.99 51.99 C 41.67 44.30 49.32 36.59 57.00 28.90 M 38.14 51.81 C 39.28 51.80 40.42 51.80 41.56 51.80 C 46.18 47.01 50.97 42.40 55.59 37.62 C 56.77 36.47 58.43 34.28 60.24 35.67 C 65.79 40.89 71.07 46.41 76.44 51.81 C 77.57 51.80 78.69 51.79 79.82 51.79 C 72.64 45.14 65.97 37.97 58.99 31.11 C 52.01 37.99 45.31 45.14 38.14 51.81 Z" />
<path fill="#f5f9f6" opacity="1.00" d=" M 57.11 43.06 C 58.24 41.53 60.40 42.13 61.35 43.52 C 65.69 48.28 70.68 52.50 74.61 57.58 C 75.17 63.66 74.85 69.87 74.77 75.98 C 73.51 78.47 70.15 77.22 67.94 77.56 C 66.06 77.34 63.12 78.22 62.23 75.93 C 61.93 72.58 62.19 69.21 62.15 65.85 C 60.28 65.84 58.41 65.83 56.54 65.81 C 56.23 69.51 57.31 73.54 55.96 77.03 C 53.44 78.04 50.56 77.34 47.90 77.55 C 46.31 77.46 43.79 77.90 43.23 75.88 C 42.92 71.28 43.25 66.65 43.10 62.04 C 43.21 60.12 42.68 57.82 44.22 56.32 C 48.45 51.83 52.80 47.46 57.11 43.06 M 46.17 58.55 C 46.09 63.87 46.16 69.20 46.12 74.52 C 48.64 74.46 51.16 74.45 53.67 74.62 C 53.74 70.88 52.83 66.87 54.28 63.31 C 57.63 62.27 61.29 62.92 64.74 63.18 C 65.34 66.93 65.14 70.73 65.11 74.51 C 67.36 74.49 69.62 74.49 71.88 74.51 C 71.81 69.63 71.94 64.75 71.85 59.87 C 72.08 58.53 70.88 57.72 70.13 56.85 C 66.34 53.13 62.69 49.28 58.99 45.48 C 54.73 49.85 50.53 54.28 46.17 58.55 Z" />
</g>
</svg>
