<?xml version="1.0" encoding="UTF-8" ?>
<!DOCTYPE svg PUBLIC "-//W3C//DTD SVG 1.1//EN" "http://www.w3.org/Graphics/SVG/1.1/DTD/svg11.dtd">
<svg width="117px" height="140px" viewBox="0 0 117 140" version="1.1" xmlns="http://www.w3.org/2000/svg">
<g id="#000000ff">
<path fill="#000000" opacity="1.00" d=" M 0.00 0.00 L 117.00 0.00 L 117.00 140.00 L 0.00 140.00 L 0.00 0.00 M 31.29 10.60 L 31.86 11.45 C 30.31 11.44 28.76 11.43 27.21 11.44 L 27.98 12.42 C 27.10 12.44 25.33 12.48 24.44 12.50 L 24.55 13.88 C 24.08 13.68 23.13 13.28 22.66 13.08 L 22.61 14.67 C 22.14 14.57 21.21 14.38 20.74 14.28 L 20.62 15.10 C 19.18 15.93 17.82 16.89 16.42 17.79 L 16.75 18.24 C 16.36 18.64 15.60 19.44 15.22 19.84 L 14.14 19.06 L 14.68 20.08 C 14.29 20.50 13.51 21.33 13.11 21.75 L 12.80 21.39 C 11.89 22.78 10.96 24.16 10.11 25.60 L 9.27 25.76 C 9.37 26.22 9.59 27.15 9.70 27.61 L 8.14 27.64 C 8.31 28.12 8.64 29.07 8.81 29.54 L 7.73 29.49 C 6.71 33.27 5.30 37.02 5.40 41.00 C 5.38 60.32 5.38 79.65 5.40 98.97 C 5.33 101.99 6.28 104.87 6.74 107.82 L 7.47 107.03 C 7.47 107.90 7.46 109.64 7.45 110.51 L 8.85 110.45 C 8.66 110.92 8.29 111.86 8.11 112.33 L 9.68 112.41 C 9.59 112.87 9.39 113.80 9.30 114.26 L 10.10 114.40 C 10.95 115.84 11.91 117.22 12.82 118.63 L 13.57 118.21 L 13.45 119.61 L 14.96 119.50 L 14.00 120.68 L 15.76 120.30 L 15.17 121.31 C 15.61 121.54 16.49 122.01 16.93 122.24 C 18.05 123.22 19.23 124.14 20.50 124.92 L 20.78 125.70 C 21.24 125.61 22.16 125.42 22.62 125.33 L 22.64 126.89 C 23.11 126.71 24.05 126.35 24.52 126.17 L 24.47 127.26 C 26.87 128.05 29.31 128.75 31.87 128.74 L 31.31 129.41 C 46.87 129.85 62.44 129.49 78.00 129.62 C 80.93 129.54 84.03 129.94 86.79 128.71 C 88.13 128.62 89.46 128.55 90.80 128.48 L 90.03 127.56 C 90.90 127.55 92.64 127.54 93.51 127.53 L 93.47 126.14 C 93.94 126.34 94.88 126.72 95.34 126.91 L 95.38 125.33 C 95.84 125.42 96.77 125.61 97.23 125.71 L 97.45 124.87 C 98.87 124.02 100.24 123.09 101.62 122.19 L 101.14 121.54 C 101.62 121.45 102.58 121.27 103.06 121.18 C 103.64 120.23 104.23 119.27 104.82 118.32 L 105.24 118.57 C 106.13 117.18 107.05 115.82 107.89 114.40 L 108.70 114.27 C 108.61 113.80 108.41 112.86 108.31 112.39 L 109.89 112.35 C 109.71 111.89 109.35 110.95 109.17 110.48 L 110.25 110.52 C 111.30 106.75 112.69 103.00 112.59 99.03 C 112.63 79.70 112.62 60.37 112.59 41.04 C 112.71 37.06 111.31 33.29 110.27 29.51 L 109.21 29.54 C 109.37 29.06 109.69 28.11 109.85 27.63 L 108.29 27.60 C 108.40 27.13 108.61 26.20 108.72 25.73 L 107.90 25.62 C 107.05 24.16 106.08 22.77 105.17 21.35 L 103.93 21.70 L 105.04 20.38 L 103.35 20.72 L 103.65 18.98 L 102.41 20.02 L 102.66 18.49 L 101.25 18.53 L 101.60 17.80 C 100.21 16.90 98.85 15.96 97.42 15.12 C 97.36 14.89 97.23 14.43 97.17 14.21 L 95.49 14.79 L 95.31 13.13 C 94.85 13.31 93.91 13.66 93.45 13.84 L 93.55 12.76 C 89.46 11.59 85.33 10.20 81.01 10.38 C 64.44 10.51 47.85 10.14 31.29 10.60 Z" />
<path fill="#000000" opacity="1.00" d=" M 25.43 13.67 C 28.61 12.95 31.70 11.59 35.00 11.60 C 52.28 11.58 69.57 11.69 86.85 11.54 L 86.33 12.45 C 87.83 12.50 89.34 12.54 90.84 12.58 L 90.46 13.89 C 90.84 13.75 91.58 13.47 91.96 13.32 C 92.49 13.66 93.56 14.34 94.09 14.67 C 94.73 14.93 96.00 15.44 96.63 15.69 L 96.75 16.74 C 97.24 16.59 98.21 16.27 98.69 16.12 L 98.09 17.61 L 99.18 17.31 C 101.28 19.34 103.35 21.40 105.31 23.57 C 105.68 23.91 106.43 24.58 106.80 24.92 L 106.18 26.16 C 106.47 26.23 107.04 26.37 107.33 26.43 C 107.57 27.04 108.04 28.25 108.28 28.86 C 108.62 29.39 109.32 30.44 109.67 30.97 C 109.53 31.40 109.27 32.27 109.13 32.71 L 110.14 32.04 C 110.36 33.64 110.76 35.20 111.33 36.71 C 111.44 58.87 111.42 81.02 111.34 103.18 C 110.71 104.70 110.41 106.31 110.15 107.93 L 109.16 107.32 C 109.29 107.74 109.55 108.59 109.68 109.02 C 109.33 109.54 108.65 110.59 108.31 111.12 C 108.06 111.74 107.57 112.99 107.32 113.62 L 106.30 113.74 C 106.43 114.23 106.69 115.20 106.82 115.69 L 105.29 115.12 L 105.71 116.15 C 103.67 118.27 101.60 120.37 99.39 122.32 C 99.07 122.69 98.42 123.43 98.09 123.80 L 96.86 123.20 C 96.77 123.50 96.58 124.11 96.49 124.42 C 95.25 124.90 94.01 125.39 92.77 125.86 L 92.63 126.34 C 90.27 126.97 87.91 127.59 85.48 127.90 L 85.88 128.46 C 68.92 128.30 51.96 128.44 35.00 128.39 C 32.34 128.35 29.81 127.39 27.16 127.24 C 27.25 126.95 27.43 126.36 27.52 126.06 L 26.14 126.66 C 24.60 125.80 23.05 124.99 21.46 124.24 L 21.23 123.33 C 20.75 123.44 19.79 123.67 19.31 123.78 L 19.87 122.23 L 18.86 122.73 C 16.63 120.56 14.44 118.37 12.28 116.13 L 12.78 115.15 L 11.22 115.68 C 11.34 115.19 11.57 114.21 11.68 113.73 L 10.66 113.61 C 10.16 112.33 9.62 111.06 9.13 109.77 L 8.73 109.62 C 8.16 107.46 7.47 105.32 6.62 103.25 C 6.63 81.11 6.55 58.97 6.66 36.83 C 7.30 35.31 7.59 33.68 7.84 32.05 L 8.82 32.69 C 8.71 32.29 8.49 31.49 8.38 31.08 C 9.24 29.56 10.03 27.99 10.78 26.41 L 11.75 26.23 C 11.59 25.75 11.26 24.81 11.09 24.33 L 12.02 24.67 C 13.95 21.93 16.41 19.64 18.81 17.32 L 19.89 17.60 L 19.34 16.11 C 19.82 16.27 20.77 16.59 21.25 16.75 L 21.38 15.66 C 22.65 15.15 23.92 14.64 25.19 14.13 C 25.25 14.02 25.37 13.79 25.43 13.67 M 53.90 47.71 C 55.61 47.68 57.32 47.66 59.02 47.64 C 58.94 42.79 59.53 37.85 58.44 33.07 C 57.46 33.04 55.49 32.99 54.51 32.97 C 53.31 37.78 54.05 42.80 53.90 47.71 M 37.51 42.28 C 36.30 45.70 36.00 49.37 36.04 52.97 C 36.08 60.34 36.04 67.71 36.07 75.08 C 38.93 75.10 41.80 75.10 44.66 75.09 C 44.91 75.57 45.40 76.53 45.65 77.01 C 50.21 77.00 54.77 77.00 59.32 77.01 C 59.21 76.25 58.99 74.74 58.88 73.98 C 55.17 73.94 51.45 74.16 47.75 73.88 C 47.45 73.41 46.86 72.47 46.57 72.00 C 44.04 71.99 41.52 72.00 39.00 72.00 C 39.00 67.33 39.00 62.67 39.00 58.00 C 50.60 58.00 62.20 58.00 73.80 58.00 C 74.49 58.44 75.87 59.31 76.56 59.75 C 77.35 57.95 78.48 56.08 77.79 54.05 C 76.92 50.03 76.74 45.74 75.10 41.96 C 72.20 39.22 67.42 40.01 63.86 40.83 C 60.71 41.66 61.38 45.11 62.40 47.38 C 58.59 48.85 54.38 48.83 50.56 47.41 C 50.98 45.66 51.31 43.89 51.42 42.10 C 49.71 41.30 48.04 40.18 46.08 40.22 C 43.20 40.24 39.46 39.59 37.51 42.28 M 68.26 62.08 C 62.44 63.29 59.52 70.96 63.21 75.69 C 66.88 81.44 76.70 80.25 78.83 73.74 C 81.72 67.40 74.78 59.95 68.26 62.08 Z" />
<path fill="#000000" opacity="1.00" d=" M 38.72 54.77 C 39.47 51.21 40.15 47.64 40.78 44.05 C 42.94 44.08 45.09 44.12 47.25 44.13 C 46.24 45.86 45.61 48.11 47.52 49.50 C 52.58 53.31 60.53 53.31 65.51 49.37 C 67.41 47.93 66.51 45.78 65.53 44.08 C 67.72 44.11 69.92 44.08 72.11 44.07 C 72.70 47.64 73.44 51.19 74.17 54.75 C 62.35 54.80 50.53 54.76 38.72 54.77 Z" />
<path fill="#000000" opacity="1.00" d=" M 66.93 64.82 C 69.29 64.23 71.71 64.26 74.06 64.81 C 72.88 66.03 71.70 67.24 70.50 68.45 C 69.30 67.25 68.11 66.03 66.93 64.82 Z" />
<path fill="#000000" opacity="1.00" d=" M 64.68 67.05 C 65.90 68.22 67.11 69.40 68.32 70.59 C 67.11 71.80 65.89 73.01 64.66 74.21 C 64.14 71.84 64.08 69.41 64.68 67.05 Z" />
<path fill="#000000" opacity="1.00" d=" M 72.69 70.59 C 73.89 69.40 75.09 68.21 76.31 67.04 C 76.94 69.40 76.86 71.83 76.31 74.20 C 75.10 73.00 73.89 71.80 72.69 70.59 Z" />
<path fill="#000000" opacity="1.00" d=" M 66.87 76.30 C 68.09 75.13 69.31 73.97 70.55 72.83 C 71.73 73.99 72.91 75.15 74.08 76.32 C 71.70 76.95 69.25 76.95 66.87 76.30 Z" />
</g>
<g id="#f6faf7ff">
<path fill="#f6faf7" opacity="1.00" d=" M 31.29 10.60 C 47.85 10.14 64.44 10.51 81.01 10.38 C 85.33 10.20 89.46 11.59 93.55 12.76 L 93.45 13.84 C 93.91 13.66 94.85 13.31 95.31 13.13 L 95.49 14.79 L 97.17 14.21 C 97.23 14.43 97.36 14.89 97.42 15.12 C 98.85 15.96 100.21 16.90 101.60 17.80 L 101.25 18.53 L 102.66 18.49 L 102.41 20.02 L 103.65 18.98 L 103.35 20.72 L 105.04 20.38 L 103.93 21.70 L 105.17 21.35 C 106.08 22.77 107.05 24.16 107.90 25.62 L 108.72 25.73 C 108.61 26.20 108.40 27.13 108.29 27.60 L 109.85 27.63 C 109.69 28.11 109.37 29.06 109.21 29.54 L 110.27 29.51 C 111.31 33.29 112.71 37.06 112.59 41.04 C 112.62 60.37 112.63 79.70 112.59 99.03 C 112.69 103.00 111.30 106.75 110.25 110.52 L 109.17 110.48 C 109.35 110.95 109.71 111.89 109.89 112.35 L 108.31 112.39 C 108.41 112.86 108.61 113.80 108.70 114.27 L 107.89 114.40 C 107.05 115.82 106.13 117.18 105.24 118.57 L 104.82 118.32 C 104.23 119.27 103.64 120.23 103.06 121.18 C 102.58 121.27 101.62 121.45 101.14 121.54 L 101.62 122.19 C 100.24 123.09 98.87 124.02 97.45 124.87 L 97.23 125.71 C 96.77 125.61 95.84 125.42 95.38 125.33 L 95.34 126.91 C 94.88 126.72 93.94 126.34 93.47 126.14 L 93.51 127.53 C 92.64 127.54 90.90 127.55 90.03 127.56 L 90.80 128.48 C 89.46 128.55 88.13 128.62 86.79 128.71 C 84.03 129.94 80.93 129.54 78.00 129.62 C 62.44 129.49 46.87 129.85 31.31 129.41 L 31.87 128.74 C 29.31 128.75 26.87 128.05 24.47 127.26 L 24.52 126.17 C 24.05 126.35 23.11 126.71 22.64 126.89 L 22.62 125.33 C 22.16 125.42 21.24 125.61 20.78 125.70 L 20.50 124.92 C 19.23 124.14 18.05 123.22 16.93 122.24 C 16.49 122.01 15.61 121.54 15.17 121.31 L 15.76 120.30 L 14.00 120.68 L 14.96 119.50 L 13.45 119.61 L 13.57 118.21 L 12.82 118.63 C 11.91 117.22 10.95 115.84 10.10 114.40 L 9.30 114.26 C 9.39 113.80 9.59 112.87 9.68 112.41 L 8.11 112.33 C 8.29 111.86 8.66 110.92 8.85 110.45 L 7.45 110.51 C 7.46 109.64 7.47 107.90 7.47 107.03 L 6.74 107.82 C 6.28 104.87 5.33 101.99 5.40 98.97 C 5.38 79.65 5.38 60.32 5.40 41.00 C 5.30 37.02 6.71 33.27 7.73 29.49 L 8.81 29.54 C 8.64 29.07 8.31 28.12 8.14 27.64 L 9.70 27.61 C 9.59 27.15 9.37 26.22 9.27 25.76 L 10.11 25.60 C 10.96 24.16 11.89 22.78 12.80 21.39 L 13.11 21.75 C 13.51 21.33 14.29 20.50 14.68 20.08 L 14.14 19.06 L 15.22 19.84 C 15.60 19.44 16.36 18.64 16.75 18.24 L 16.42 17.79 C 17.82 16.89 19.18 15.93 20.62 15.10 L 20.74 14.28 C 21.21 14.38 22.14 14.57 22.61 14.67 L 22.66 13.08 C 23.13 13.28 24.08 13.68 24.55 13.88 L 24.44 12.50 C 25.33 12.48 27.10 12.44 27.98 12.42 L 27.21 11.44 C 28.76 11.43 30.31 11.44 31.86 11.45 L 31.29 10.60 M 25.43 13.67 C 25.37 13.79 25.25 14.02 25.19 14.13 C 23.92 14.64 22.65 15.15 21.38 15.66 L 21.25 16.75 C 20.77 16.59 19.82 16.27 19.34 16.11 L 19.89 17.60 L 18.81 17.32 C 16.41 19.64 13.95 21.93 12.02 24.67 L 11.09 24.33 C 11.26 24.81 11.59 25.75 11.75 26.23 L 10.78 26.41 C 10.03 27.99 9.24 29.56 8.38 31.08 C 8.49 31.49 8.71 32.29 8.82 32.69 L 7.84 32.05 C 7.59 33.68 7.30 35.31 6.66 36.83 C 6.55 58.97 6.63 81.11 6.62 103.25 C 7.47 105.32 8.16 107.46 8.73 109.62 L 9.13 109.77 C 9.62 111.06 10.16 112.33 10.66 113.61 L 11.68 113.73 C 11.57 114.21 11.34 115.19 11.22 115.68 L 12.78 115.15 L 12.28 116.13 C 14.44 118.37 16.63 120.56 18.86 122.73 L 19.87 122.23 L 19.31 123.78 C 19.79 123.67 20.75 123.44 21.23 123.33 L 21.46 124.24 C 23.05 124.99 24.60 125.80 26.14 126.66 L 27.52 126.06 C 27.43 126.36 27.25 126.95 27.16 127.24 C 29.81 127.39 32.34 128.35 35.00 128.39 C 51.96 128.44 68.92 128.30 85.88 128.46 L 85.48 127.90 C 87.91 127.59 90.27 126.97 92.63 126.34 L 92.77 125.86 C 94.01 125.39 95.25 124.90 96.49 124.42 C 96.58 124.11 96.77 123.50 96.86 123.20 L 98.09 123.80 C 98.42 123.43 99.07 122.69 99.39 122.32 C 101.60 120.37 103.67 118.27 105.71 116.15 L 105.29 115.12 L 106.82 115.69 C 106.69 115.20 106.43 114.23 106.30 113.74 L 107.32 113.62 C 107.57 112.99 108.06 111.74 108.31 111.12 C 108.65 110.59 109.33 109.54 109.68 109.02 C 109.55 108.59 109.29 107.74 109.16 107.32 L 110.15 107.93 C 110.41 106.31 110.71 104.70 111.34 103.18 C 111.42 81.02 111.44 58.87 111.33 36.71 C 110.76 35.20 110.36 33.64 110.14 32.04 L 109.13 32.71 C 109.27 32.27 109.53 31.40 109.67 30.97 C 109.32 30.44 108.62 29.39 108.28 28.86 C 108.04 28.25 107.57 27.04 107.33 26.43 C 107.04 26.37 106.47 26.23 106.18 26.16 L 106.80 24.92 C 106.43 24.58 105.68 23.91 105.31 23.57 C 103.35 21.40 101.28 19.34 99.18 17.31 L 98.09 17.61 L 98.69 16.12 C 98.21 16.27 97.24 16.59 96.75 16.74 L 96.63 15.69 C 96.00 15.44 94.73 14.93 94.09 14.67 C 93.56 14.34 92.49 13.66 91.96 13.32 C 91.58 13.47 90.84 13.75 90.46 13.89 L 90.84 12.58 C 89.34 12.54 87.83 12.50 86.33 12.45 L 86.85 11.54 C 69.57 11.69 52.28 11.58 35.00 11.60 C 31.70 11.59 28.61 12.95 25.43 13.67 Z" />
<path fill="#f6faf7" opacity="1.00" d=" M 53.90 47.71 C 54.05 42.80 53.31 37.78 54.51 32.97 C 55.49 32.99 57.46 33.04 58.44 33.07 C 59.53 37.85 58.94 42.79 59.02 47.64 C 57.32 47.66 55.61 47.68 53.90 47.71 Z" />
<path fill="#f6faf7" opacity="1.00" d=" M 37.51 42.28 C 39.46 39.59 43.20 40.24 46.08 40.22 C 48.04 40.18 49.71 41.30 51.42 42.10 C 51.31 43.89 50.98 45.66 50.56 47.41 C 54.38 48.83 58.59 48.85 62.40 47.38 C 61.38 45.11 60.71 41.66 63.86 40.83 C 67.42 40.01 72.20 39.22 75.10 41.96 C 76.74 45.74 76.92 50.03 77.79 54.05 C 78.48 56.08 77.35 57.95 76.56 59.75 C 75.87 59.31 74.49 58.44 73.80 58.00 C 62.20 58.00 50.60 58.00 39.00 58.00 C 39.00 62.67 39.00 67.33 39.00 72.00 C 41.52 72.00 44.04 71.99 46.57 72.00 C 46.86 72.47 47.45 73.41 47.75 73.88 C 51.45 74.16 55.17 73.94 58.88 73.98 C 58.99 74.74 59.21 76.25 59.32 77.01 C 54.77 77.00 50.21 77.00 45.65 77.01 C 45.40 76.53 44.91 75.57 44.66 75.09 C 41.80 75.10 38.93 75.10 36.07 75.08 C 36.04 67.71 36.08 60.34 36.04 52.97 C 36.00 49.37 36.30 45.70 37.51 42.28 M 38.72 54.77 C 50.53 54.76 62.35 54.80 74.17 54.75 C 73.44 51.19 72.70 47.64 72.11 44.07 C 69.92 44.08 67.72 44.11 65.53 44.08 C 66.51 45.78 67.41 47.93 65.51 49.37 C 60.53 53.31 52.58 53.31 47.52 49.50 C 45.61 48.11 46.24 45.86 47.25 44.13 C 45.09 44.12 42.94 44.08 40.78 44.05 C 40.15 47.64 39.47 51.21 38.72 54.77 Z" />
<path fill="#f6faf7" opacity="1.00" d=" M 68.26 62.08 C 74.78 59.95 81.72 67.40 78.83 73.74 C 76.70 80.25 66.88 81.44 63.21 75.69 C 59.52 70.96 62.44 63.29 68.26 62.08 M 66.93 64.82 C 68.11 66.03 69.30 67.25 70.50 68.45 C 71.70 67.24 72.88 66.03 74.06 64.81 C 71.71 64.26 69.29 64.23 66.93 64.82 M 64.68 67.05 C 64.08 69.41 64.14 71.84 64.66 74.21 C 65.89 73.01 67.11 71.80 68.32 70.59 C 67.11 69.40 65.90 68.22 64.68 67.05 M 72.69 70.59 C 73.89 71.80 75.10 73.00 76.31 74.20 C 76.86 71.83 76.94 69.40 76.31 67.04 C 75.09 68.21 73.89 69.40 72.69 70.59 M 66.87 76.30 C 69.25 76.95 71.70 76.95 74.08 76.32 C 72.91 75.15 71.73 73.99 70.55 72.83 C 69.31 73.97 68.09 75.13 66.87 76.30 Z" />
</g>
</svg>
