<?xml version="1.0" encoding="UTF-8" ?>
<!DOCTYPE svg PUBLIC "-//W3C//DTD SVG 1.1//EN" "http://www.w3.org/Graphics/SVG/1.1/DTD/svg11.dtd">
<svg width="117px" height="140px" viewBox="0 0 117 140" version="1.1" xmlns="http://www.w3.org/2000/svg">
<g id="#000000ff">
<path fill="#000000" opacity="1.00" d=" M 0.00 0.00 L 117.00 0.00 L 117.00 140.00 L 0.00 140.00 L 0.00 0.00 M 31.39 10.57 L 31.64 11.46 C 30.16 11.46 28.69 11.46 27.22 11.46 L 27.91 12.51 C 27.04 12.50 25.31 12.47 24.44 12.45 L 24.57 13.81 C 24.09 13.64 23.11 13.31 22.63 13.14 L 22.63 14.67 C 22.15 14.58 21.19 14.38 20.71 14.29 L 20.57 15.26 C 19.05 15.91 17.73 16.93 16.37 17.85 L 16.82 18.80 L 15.31 18.10 L 15.84 19.82 L 14.42 18.99 L 14.66 20.65 L 12.99 20.48 L 13.97 21.83 L 12.84 21.38 C 11.93 22.72 10.91 24.02 10.30 25.54 L 9.31 25.71 C 9.39 26.19 9.56 27.16 9.64 27.65 L 8.13 27.62 C 8.30 28.11 8.64 29.07 8.81 29.55 L 7.68 29.47 C 7.07 31.57 6.41 33.66 6.34 35.86 L 5.70 35.44 C 5.25 41.29 5.41 47.17 5.39 53.04 C 5.57 70.22 5.01 87.43 5.71 104.60 L 6.48 104.13 C 6.47 105.06 6.46 106.91 6.45 107.84 L 7.48 107.02 C 7.47 107.91 7.45 109.68 7.44 110.56 L 8.81 110.40 C 8.65 110.88 8.32 111.85 8.16 112.34 L 9.83 112.51 L 9.19 114.17 C 9.45 114.24 9.97 114.38 10.23 114.44 C 10.98 115.91 11.93 117.27 12.83 118.65 L 13.81 118.11 L 13.07 119.68 L 14.83 119.12 L 13.93 120.59 L 15.59 120.26 L 15.47 121.94 L 16.77 121.09 L 16.41 122.17 C 17.74 123.08 19.05 124.05 20.53 124.73 C 20.60 124.99 20.75 125.52 20.82 125.78 L 22.55 125.24 L 22.65 126.88 C 23.14 126.69 24.12 126.33 24.60 126.15 L 24.37 127.51 C 25.26 127.51 27.02 127.52 27.91 127.53 L 27.26 128.34 C 28.53 128.53 29.78 128.82 31.00 129.20 C 35.00 129.76 39.04 129.59 43.06 129.61 C 57.33 129.56 71.60 129.70 85.87 129.52 L 85.10 128.54 C 86.93 128.57 88.77 128.58 90.60 128.59 L 90.36 127.54 C 91.17 127.53 92.77 127.52 93.58 127.51 L 93.41 126.18 C 93.91 126.35 94.90 126.70 95.39 126.87 L 95.35 125.32 C 95.83 125.42 96.79 125.63 97.27 125.73 L 97.43 124.76 C 98.92 124.05 100.26 123.08 101.63 122.16 L 101.11 121.02 L 102.56 122.08 L 102.24 120.42 L 103.82 120.63 L 103.36 119.12 L 104.99 119.68 L 104.12 118.15 L 105.26 118.55 C 106.13 117.22 107.02 115.89 107.74 114.47 C 108.01 114.39 108.54 114.24 108.81 114.17 L 108.17 112.50 L 109.82 112.37 C 109.67 111.88 109.37 110.90 109.22 110.41 L 110.34 110.57 C 110.89 108.45 111.55 106.35 111.66 104.14 L 112.30 104.59 C 112.72 98.75 112.60 92.89 112.61 87.03 C 112.44 69.83 112.97 52.60 112.30 35.40 L 111.65 35.86 C 111.60 33.66 110.91 31.58 110.34 29.49 L 109.18 29.54 C 109.36 29.06 109.71 28.10 109.89 27.62 L 108.33 27.66 C 108.43 27.18 108.62 26.23 108.72 25.75 L 107.70 25.52 C 107.07 24.01 106.07 22.71 105.16 21.37 L 103.99 21.86 L 105.04 20.52 L 103.38 20.64 L 103.50 18.95 L 102.09 19.82 L 102.69 18.03 L 101.11 18.83 L 101.64 17.84 C 100.27 16.94 98.94 15.96 97.47 15.23 C 97.39 14.98 97.25 14.49 97.18 14.24 L 95.43 14.74 L 95.34 13.12 C 94.87 13.30 93.93 13.66 93.46 13.84 L 93.55 12.47 C 92.68 12.47 90.93 12.48 90.06 12.48 L 90.80 11.46 C 89.32 11.46 87.85 11.46 86.38 11.47 L 86.60 10.57 C 68.20 10.27 49.79 10.27 31.39 10.57 Z" />
<path fill="#000000" opacity="1.00" d=" M 25.41 13.61 C 27.74 13.09 30.08 12.57 32.29 11.68 C 48.54 11.50 64.79 11.69 81.04 11.58 C 82.98 11.58 84.98 11.49 86.84 12.15 C 88.75 12.63 90.64 13.18 92.55 13.62 L 92.77 14.50 C 93.10 14.49 93.76 14.46 94.09 14.44 C 94.71 14.76 95.94 15.38 96.56 15.70 L 96.67 16.62 C 97.19 16.54 98.23 16.40 98.75 16.33 L 98.19 17.81 L 99.21 17.22 C 101.14 19.93 104.48 21.45 105.72 24.67 L 106.71 24.33 C 106.63 24.82 106.46 25.80 106.37 26.30 L 107.48 26.49 C 107.70 28.15 108.50 29.69 109.66 30.89 C 109.56 31.35 109.36 32.27 109.26 32.72 L 110.28 32.05 C 110.40 33.64 110.55 35.25 111.30 36.68 C 111.45 58.89 111.45 81.11 111.30 103.31 C 110.54 104.72 110.40 106.32 110.30 107.89 L 109.17 107.39 C 109.30 107.80 109.56 108.62 109.68 109.03 C 109.31 109.55 108.55 110.60 108.18 111.12 C 107.97 111.73 107.56 112.94 107.35 113.55 L 106.36 113.62 C 106.45 114.14 106.62 115.18 106.70 115.70 L 105.70 115.34 C 104.48 118.57 101.11 120.08 99.19 122.80 L 98.18 122.19 L 98.73 123.71 C 98.22 123.63 97.22 123.45 96.72 123.36 L 96.57 124.39 C 94.99 124.74 93.51 125.44 92.22 126.41 C 88.87 127.27 85.50 128.35 82.01 128.39 C 64.86 128.42 47.72 128.33 30.58 128.44 L 30.57 127.55 C 28.93 127.28 27.32 126.85 25.73 126.39 C 24.45 125.38 22.87 124.89 21.33 124.42 L 21.31 123.34 C 20.80 123.44 19.78 123.64 19.26 123.74 L 19.85 122.22 L 18.82 122.81 C 16.78 120.54 14.57 118.43 12.38 116.30 L 12.57 115.30 L 11.14 115.50 L 11.58 114.14 C 10.40 113.02 9.72 111.56 9.22 110.05 C 7.89 108.01 7.91 105.44 6.62 103.37 C 6.52 81.00 6.76 58.62 6.50 36.25 L 7.46 36.62 C 7.50 35.11 7.53 33.59 7.56 32.07 L 8.78 32.66 C 8.66 32.22 8.42 31.33 8.30 30.89 C 9.64 29.74 10.13 28.02 10.56 26.38 L 11.69 26.31 C 11.57 25.81 11.33 24.81 11.21 24.31 L 12.22 24.72 C 13.56 21.92 16.03 19.93 18.43 18.07 L 18.47 17.20 L 19.82 17.75 L 19.27 16.25 C 19.77 16.36 20.78 16.56 21.28 16.66 L 21.46 15.69 C 22.08 15.37 23.33 14.75 23.95 14.44 C 24.27 14.46 24.92 14.49 25.24 14.51 L 25.41 13.61 M 38.52 41.39 C 35.79 44.12 30.97 45.67 30.53 50.01 C 30.97 54.31 35.73 55.86 38.46 58.55 C 40.42 60.66 43.31 60.85 45.91 59.93 C 46.64 57.34 47.09 54.69 47.10 52.00 C 49.06 52.00 51.03 52.00 53.00 52.00 C 53.00 51.25 53.00 49.75 53.00 49.00 C 51.02 49.00 49.03 49.00 47.05 49.00 C 47.17 45.96 46.78 42.95 45.90 40.05 C 43.34 39.21 40.46 39.30 38.52 41.39 M 72.95 39.76 C 70.94 42.43 70.83 45.79 70.96 49.00 C 68.97 49.00 66.99 49.00 65.00 49.00 C 65.00 49.75 65.00 51.25 65.00 52.00 C 66.97 52.00 68.94 52.00 70.92 52.00 C 71.05 54.71 70.75 58.03 73.11 59.94 C 76.48 61.96 79.33 58.57 81.83 56.76 C 84.05 54.88 87.33 53.34 87.47 50.03 C 87.14 45.90 82.67 44.37 80.05 41.84 C 78.16 39.94 75.60 39.01 72.95 39.76 M 54.00 49.00 C 54.00 49.75 54.00 51.25 54.00 52.00 C 54.75 52.00 56.25 52.00 57.00 52.00 C 57.00 51.25 57.00 49.75 57.00 49.00 C 56.25 49.00 54.75 49.00 54.00 49.00 M 58.00 49.00 C 58.00 49.75 58.00 51.25 58.00 52.00 C 60.00 52.00 62.00 52.00 64.00 52.00 C 64.00 51.25 64.00 49.75 64.00 49.00 C 62.00 49.00 60.00 49.00 58.00 49.00 Z" />
<path fill="#000000" opacity="1.00" d=" M 34.01 50.00 C 37.01 47.67 40.02 45.35 43.00 43.01 C 43.00 47.66 43.00 52.32 43.00 56.97 C 40.00 54.65 37.00 52.33 34.01 50.00 Z" />
<path fill="#000000" opacity="1.00" d=" M 76.00 43.81 C 78.66 45.87 81.33 47.93 83.99 50.00 C 81.33 52.07 78.66 54.13 76.00 56.20 C 76.00 52.07 76.00 47.94 76.00 43.81 Z" />
</g>
<g id="#f6fbf7ff">
<path fill="#f6fbf7" opacity="1.00" d=" M 31.39 10.57 C 49.79 10.27 68.20 10.27 86.60 10.57 L 86.38 11.47 C 87.85 11.46 89.32 11.46 90.80 11.46 L 90.06 12.48 C 90.93 12.48 92.68 12.47 93.55 12.47 L 93.46 13.84 C 93.93 13.66 94.87 13.30 95.34 13.12 L 95.43 14.74 L 97.18 14.24 C 97.25 14.49 97.39 14.98 97.47 15.23 C 98.94 15.96 100.27 16.94 101.64 17.84 L 101.11 18.83 L 102.69 18.03 L 102.09 19.82 L 103.50 18.95 L 103.38 20.64 L 105.04 20.52 L 103.99 21.86 L 105.16 21.37 C 106.07 22.71 107.07 24.01 107.70 25.52 L 108.72 25.75 C 108.62 26.23 108.43 27.18 108.33 27.66 L 109.89 27.62 C 109.71 28.10 109.36 29.06 109.18 29.54 L 110.34 29.49 C 110.91 31.58 111.60 33.66 111.65 35.86 L 112.30 35.40 C 112.97 52.60 112.44 69.83 112.61 87.03 C 112.60 92.89 112.72 98.75 112.30 104.59 L 111.66 104.14 C 111.55 106.35 110.89 108.45 110.34 110.57 L 109.22 110.41 C 109.37 110.90 109.67 111.88 109.82 112.37 L 108.17 112.50 L 108.81 114.17 C 108.54 114.24 108.01 114.39 107.74 114.47 C 107.02 115.89 106.13 117.22 105.26 118.55 L 104.12 118.15 L 104.99 119.68 L 103.36 119.12 L 103.82 120.63 L 102.24 120.42 L 102.56 122.08 L 101.11 121.02 L 101.63 122.16 C 100.26 123.08 98.92 124.05 97.43 124.76 L 97.27 125.73 C 96.79 125.63 95.83 125.42 95.35 125.32 L 95.39 126.87 C 94.90 126.70 93.91 126.35 93.41 126.18 L 93.58 127.51 C 92.77 127.52 91.17 127.53 90.36 127.54 L 90.60 128.59 C 88.77 128.58 86.93 128.57 85.10 128.54 L 85.87 129.52 C 71.60 129.70 57.33 129.56 43.06 129.61 C 39.04 129.59 35.00 129.76 31.00 129.20 C 29.78 128.82 28.53 128.53 27.26 128.34 L 27.91 127.53 C 27.02 127.52 25.26 127.51 24.37 127.51 L 24.60 126.15 C 24.12 126.33 23.14 126.69 22.65 126.88 L 22.55 125.24 L 20.82 125.78 C 20.75 125.52 20.60 124.99 20.53 124.73 C 19.05 124.05 17.74 123.08 16.41 122.17 L 16.77 121.09 L 15.47 121.94 L 15.59 120.26 L 13.93 120.59 L 14.83 119.12 L 13.07 119.68 L 13.81 118.11 L 12.83 118.65 C 11.93 117.27 10.98 115.91 10.23 114.44 C 9.97 114.38 9.45 114.24 9.19 114.17 L 9.83 112.51 L 8.16 112.34 C 8.32 111.85 8.65 110.88 8.81 110.40 L 7.44 110.56 C 7.45 109.68 7.47 107.91 7.48 107.02 L 6.45 107.84 C 6.46 106.91 6.47 105.06 6.48 104.13 L 5.71 104.60 C 5.01 87.43 5.57 70.22 5.39 53.04 C 5.41 47.17 5.25 41.29 5.70 35.44 L 6.34 35.86 C 6.41 33.66 7.07 31.57 7.68 29.47 L 8.81 29.55 C 8.64 29.07 8.30 28.11 8.13 27.62 L 9.64 27.65 C 9.56 27.16 9.39 26.19 9.31 25.71 L 10.30 25.54 C 10.91 24.02 11.93 22.72 12.84 21.38 L 13.97 21.83 L 12.99 20.48 L 14.66 20.65 L 14.42 18.99 L 15.84 19.82 L 15.31 18.10 L 16.82 18.80 L 16.37 17.85 C 17.73 16.93 19.05 15.91 20.57 15.26 L 20.71 14.29 C 21.19 14.38 22.15 14.58 22.63 14.67 L 22.63 13.14 C 23.11 13.31 24.09 13.64 24.57 13.81 L 24.44 12.45 C 25.31 12.47 27.04 12.50 27.91 12.51 L 27.22 11.46 C 28.69 11.46 30.16 11.46 31.64 11.46 L 31.39 10.57 M 25.41 13.61 L 25.24 14.51 C 24.92 14.49 24.27 14.46 23.95 14.44 C 23.33 14.75 22.08 15.37 21.46 15.69 L 21.28 16.66 C 20.78 16.56 19.77 16.36 19.27 16.25 L 19.82 17.75 L 18.47 17.20 L 18.43 18.07 C 16.03 19.93 13.56 21.92 12.22 24.72 L 11.21 24.31 C 11.33 24.81 11.57 25.81 11.69 26.31 L 10.56 26.38 C 10.13 28.02 9.64 29.74 8.30 30.89 C 8.42 31.33 8.66 32.22 8.78 32.66 L 7.56 32.07 C 7.53 33.59 7.50 35.11 7.46 36.62 L 6.50 36.25 C 6.76 58.62 6.52 81.00 6.62 103.37 C 7.91 105.44 7.89 108.01 9.22 110.05 C 9.72 111.56 10.40 113.02 11.58 114.14 L 11.14 115.50 L 12.57 115.30 L 12.38 116.30 C 14.57 118.43 16.78 120.54 18.82 122.81 L 19.85 122.22 L 19.26 123.74 C 19.78 123.64 20.80 123.44 21.31 123.34 L 21.33 124.42 C 22.87 124.89 24.45 125.38 25.73 126.39 C 27.32 126.85 28.93 127.28 30.57 127.55 L 30.58 128.44 C 47.72 128.33 64.86 128.42 82.01 128.39 C 85.50 128.35 88.87 127.27 92.22 126.41 C 93.51 125.44 94.99 124.74 96.57 124.39 L 96.72 123.36 C 97.22 123.45 98.22 123.63 98.73 123.71 L 98.18 122.19 L 99.19 122.80 C 101.11 120.08 104.48 118.57 105.70 115.34 L 106.70 115.70 C 106.62 115.18 106.45 114.14 106.36 113.62 L 107.35 113.55 C 107.56 112.94 107.97 111.73 108.18 111.12 C 108.55 110.60 109.31 109.55 109.68 109.03 C 109.56 108.62 109.30 107.80 109.17 107.39 L 110.30 107.89 C 110.40 106.32 110.54 104.72 111.30 103.31 C 111.45 81.11 111.45 58.89 111.30 36.68 C 110.55 35.25 110.40 33.64 110.28 32.05 L 109.26 32.72 C 109.36 32.27 109.56 31.35 109.66 30.89 C 108.50 29.69 107.70 28.15 107.48 26.49 L 106.37 26.30 C 106.46 25.80 106.63 24.82 106.71 24.33 L 105.72 24.67 C 104.48 21.45 101.14 19.93 99.21 17.22 L 98.19 17.81 L 98.75 16.33 C 98.23 16.40 97.19 16.54 96.67 16.62 L 96.56 15.70 C 95.94 15.38 94.71 14.76 94.09 14.44 C 93.76 14.46 93.10 14.49 92.77 14.50 L 92.55 13.62 C 90.64 13.18 88.75 12.63 86.84 12.15 C 84.98 11.49 82.98 11.58 81.04 11.58 C 64.79 11.69 48.54 11.50 32.29 11.68 C 30.08 12.57 27.74 13.09 25.41 13.61 Z" />
<path fill="#f6fbf7" opacity="1.00" d=" M 38.52 41.39 C 40.46 39.30 43.34 39.21 45.90 40.05 C 46.78 42.95 47.17 45.96 47.05 49.00 C 49.03 49.00 51.02 49.00 53.00 49.00 C 53.00 49.75 53.00 51.25 53.00 52.00 C 51.03 52.00 49.06 52.00 47.10 52.00 C 47.09 54.69 46.64 57.34 45.91 59.93 C 43.31 60.85 40.42 60.66 38.46 58.55 C 35.73 55.86 30.97 54.31 30.53 50.01 C 30.97 45.67 35.79 44.12 38.52 41.39 M 34.01 50.00 C 37.00 52.33 40.00 54.65 43.00 56.97 C 43.00 52.32 43.00 47.66 43.00 43.01 C 40.02 45.35 37.01 47.67 34.01 50.00 Z" />
<path fill="#f6fbf7" opacity="1.00" d=" M 72.95 39.76 C 75.60 39.01 78.16 39.94 80.05 41.84 C 82.67 44.37 87.14 45.90 87.47 50.03 C 87.33 53.34 84.05 54.88 81.83 56.76 C 79.33 58.57 76.48 61.96 73.11 59.94 C 70.75 58.03 71.05 54.71 70.92 52.00 C 68.94 52.00 66.97 52.00 65.00 52.00 C 65.00 51.25 65.00 49.75 65.00 49.00 C 66.99 49.00 68.97 49.00 70.96 49.00 C 70.83 45.79 70.94 42.43 72.95 39.76 M 76.00 43.81 C 76.00 47.94 76.00 52.07 76.00 56.20 C 78.66 54.13 81.33 52.07 83.99 50.00 C 81.33 47.93 78.66 45.87 76.00 43.81 Z" />
<path fill="#f6fbf7" opacity="1.00" d=" M 54.00 49.00 C 54.75 49.00 56.25 49.00 57.00 49.00 C 57.00 49.75 57.00 51.25 57.00 52.00 C 56.25 52.00 54.75 52.00 54.00 52.00 C 54.00 51.25 54.00 49.75 54.00 49.00 Z" />
<path fill="#f6fbf7" opacity="1.00" d=" M 58.00 49.00 C 60.00 49.00 62.00 49.00 64.00 49.00 C 64.00 49.75 64.00 51.25 64.00 52.00 C 62.00 52.00 60.00 52.00 58.00 52.00 C 58.00 51.25 58.00 49.75 58.00 49.00 Z" />
</g>
</svg>
