<?xml version="1.0" encoding="UTF-8" ?>
<!DOCTYPE svg PUBLIC "-//W3C//DTD SVG 1.1//EN" "http://www.w3.org/Graphics/SVG/1.1/DTD/svg11.dtd">
<svg width="117px" height="140px" viewBox="0 0 117 140" version="1.1" xmlns="http://www.w3.org/2000/svg">
<g id="#000000ff">
<path fill="#000000" opacity="1.00" d=" M 0.00 0.00 L 117.00 0.00 L 117.00 140.00 L 0.00 140.00 L 0.00 0.00 M 31.49 10.57 L 31.57 11.30 C 29.09 11.31 26.72 12.01 24.39 12.76 L 24.56 13.86 C 24.10 13.68 23.16 13.30 22.70 13.11 L 22.60 14.13 C 20.35 15.01 18.35 16.36 16.45 17.84 L 16.87 18.63 L 15.38 18.22 L 15.72 19.82 L 14.32 19.04 L 14.72 20.71 L 13.28 20.29 L 13.65 21.59 L 12.62 21.67 C 11.83 22.93 11.05 24.20 10.20 25.42 C 9.97 25.54 9.50 25.78 9.27 25.89 L 9.73 27.49 L 8.18 27.70 C 8.33 28.17 8.63 29.10 8.78 29.56 L 7.40 29.51 C 7.44 30.33 7.52 31.97 7.56 32.78 L 6.42 32.28 C 6.44 33.15 6.49 34.88 6.51 35.75 L 5.69 35.51 C 5.12 44.66 5.49 53.84 5.39 63.01 C 5.60 76.71 4.95 90.44 5.76 104.12 C 6.47 106.23 7.15 108.35 7.74 110.50 L 8.79 110.46 C 8.64 110.92 8.33 111.83 8.18 112.29 L 9.14 112.49 C 10.11 114.66 11.36 116.69 12.82 118.56 L 13.65 118.11 L 13.21 119.62 L 14.84 119.25 L 13.99 120.67 L 15.68 120.26 L 15.40 121.93 L 16.84 121.18 L 16.47 122.15 C 18.29 123.69 20.37 124.88 22.52 125.88 L 22.69 126.82 C 23.17 126.67 24.11 126.37 24.58 126.22 L 24.46 127.54 C 25.30 127.53 26.98 127.52 27.82 127.51 L 27.30 128.49 C 28.00 128.53 29.38 128.61 30.08 128.64 C 32.83 129.88 36.03 129.53 39.00 129.62 C 54.38 129.47 69.78 129.87 85.16 129.41 C 86.87 128.50 88.83 128.58 90.71 128.45 L 90.22 127.47 C 91.05 127.49 92.73 127.53 93.56 127.55 L 93.43 126.15 C 93.90 126.33 94.83 126.70 95.30 126.88 L 95.43 125.84 C 96.06 125.58 97.31 125.07 97.94 124.82 C 99.15 123.94 100.31 123.00 101.54 122.15 L 101.14 121.15 L 102.63 121.99 L 102.22 120.31 L 103.85 120.76 L 103.26 119.16 L 104.74 119.77 L 104.35 118.45 L 105.30 118.27 C 106.78 116.53 107.96 114.56 108.86 112.46 L 109.81 112.33 C 109.67 111.85 109.38 110.90 109.24 110.42 L 110.57 110.51 C 110.55 109.68 110.50 108.00 110.47 107.16 L 111.45 107.77 C 111.52 107.04 111.65 105.57 111.71 104.83 C 112.77 102.03 112.58 98.99 112.62 96.05 C 112.58 77.69 112.65 59.34 112.59 40.98 C 112.66 38.03 111.97 35.16 111.32 32.31 L 110.50 32.77 C 110.51 31.93 110.53 30.25 110.54 29.41 L 109.14 29.57 C 109.33 29.10 109.70 28.16 109.89 27.69 L 108.86 27.59 C 108.63 26.98 108.16 25.76 107.92 25.16 C 107.06 24.01 106.15 22.89 105.26 21.76 L 104.38 21.53 L 104.68 20.25 L 103.28 20.75 L 103.74 19.11 L 102.36 19.80 L 102.59 18.24 L 101.12 18.64 L 101.54 17.87 C 100.27 16.97 99.08 15.98 97.80 15.12 C 97.19 14.88 95.97 14.40 95.36 14.15 L 95.33 13.12 C 94.87 13.29 93.94 13.65 93.47 13.83 L 93.56 12.70 C 91.02 12.20 88.59 11.24 86.06 10.68 C 80.71 10.17 75.33 10.46 69.97 10.39 C 57.14 10.49 44.31 10.18 31.49 10.57 Z" />
<path fill="#000000" opacity="1.00" d=" M 27.22 12.63 C 28.50 12.55 29.79 12.44 31.07 12.32 C 32.31 11.79 33.61 11.55 34.96 11.60 C 50.98 11.61 66.99 11.64 83.01 11.59 C 84.38 11.54 85.71 11.79 86.98 12.34 C 88.25 12.41 89.52 12.51 90.79 12.64 L 90.37 13.27 C 93.24 13.81 95.72 15.42 98.26 16.75 L 98.53 17.47 L 99.64 17.50 L 99.61 18.03 C 101.95 19.80 103.90 21.98 105.84 24.16 C 106.88 26.46 108.48 28.47 109.40 30.85 C 109.80 32.44 110.30 34.01 110.66 35.63 L 111.47 35.34 C 111.25 57.99 111.52 80.64 111.33 103.29 C 110.60 105.23 109.95 107.19 109.28 109.15 C 108.67 110.65 108.04 112.13 107.24 113.54 L 106.41 113.62 C 106.48 114.14 106.61 115.17 106.68 115.68 L 105.26 115.23 L 105.68 116.19 C 103.62 118.27 101.63 120.42 99.38 122.30 C 99.06 122.53 98.43 122.97 98.12 123.19 C 96.34 124.56 94.07 125.11 92.22 126.41 C 90.05 127.06 87.85 127.57 85.59 127.83 L 85.61 128.47 C 70.07 128.28 54.54 128.44 39.00 128.39 C 36.06 128.28 32.98 128.84 30.17 127.73 C 27.20 126.75 24.10 125.86 21.44 124.20 L 21.42 123.42 C 20.90 123.48 19.85 123.61 19.33 123.67 L 19.75 122.25 L 18.82 122.67 C 16.62 120.53 14.43 118.38 12.32 116.16 L 12.76 115.22 L 11.29 115.67 C 11.37 115.17 11.53 114.16 11.61 113.65 L 10.73 113.56 C 10.43 112.99 9.84 111.86 9.55 111.29 C 9.14 109.97 8.56 108.70 8.22 107.35 L 7.43 107.76 C 7.49 106.93 7.62 105.25 7.69 104.42 L 6.53 104.52 C 6.74 82.30 6.50 60.07 6.65 37.85 C 7.38 34.03 8.66 30.22 10.74 26.91 C 11.00 26.27 11.53 24.99 11.79 24.34 L 12.11 24.60 C 14.02 21.89 16.39 19.56 18.83 17.34 L 19.77 17.75 L 19.32 16.33 C 19.84 16.39 20.88 16.52 21.40 16.59 L 21.43 15.75 C 22.99 15.03 24.53 14.25 26.04 13.43 C 26.41 13.52 27.16 13.71 27.54 13.81 L 27.22 12.63 M 43.35 40.09 C 40.60 42.08 37.87 44.12 35.32 46.37 C 33.23 47.88 32.97 51.29 34.77 53.11 C 37.21 55.43 39.97 57.37 42.63 59.42 C 44.71 61.37 47.56 59.98 50.00 59.90 C 50.00 57.26 50.00 54.63 50.00 52.00 C 50.75 52.00 52.25 52.00 53.00 52.00 C 53.00 51.25 53.00 49.75 53.00 49.00 C 52.25 49.00 50.75 49.00 50.00 49.00 C 50.00 46.03 50.00 43.07 50.00 40.10 C 47.81 40.08 45.38 38.83 43.35 40.09 M 69.10 40.00 C 68.25 42.93 67.81 45.95 67.95 49.00 C 67.21 49.00 65.74 49.00 65.00 49.00 C 65.00 49.75 65.00 51.25 65.00 52.00 C 65.72 52.00 67.17 52.00 67.90 52.00 C 67.86 54.71 68.41 57.37 69.10 59.97 C 70.96 60.13 73.06 61.12 74.74 59.84 C 77.47 57.87 80.17 55.85 82.69 53.62 C 85.01 51.95 85.00 48.04 82.68 46.37 C 80.14 44.14 77.43 42.10 74.70 40.12 C 73.02 38.85 70.95 39.91 69.10 40.00 M 54.00 49.00 C 54.00 49.75 54.00 51.25 54.00 52.00 C 54.75 52.00 56.25 52.00 57.00 52.00 C 57.00 51.25 57.00 49.75 57.00 49.00 C 56.25 49.00 54.75 49.00 54.00 49.00 M 58.00 49.00 C 58.00 49.75 58.00 51.25 58.00 52.00 C 60.00 52.00 62.00 52.00 64.00 52.00 C 64.00 51.25 64.00 49.75 64.00 49.00 C 62.00 49.00 60.00 49.00 58.00 49.00 Z" />
<path fill="#000000" opacity="1.00" d=" M 37.01 50.00 C 40.01 47.67 43.02 45.35 46.00 43.01 C 46.00 47.66 46.01 52.32 45.99 56.98 C 43.00 54.64 40.00 52.32 37.01 50.00 Z" />
<path fill="#000000" opacity="1.00" d=" M 72.00 43.01 C 74.98 45.35 77.99 47.67 80.99 50.00 C 78.00 52.33 75.00 54.65 72.00 56.97 C 72.00 52.31 72.00 47.66 72.00 43.01 Z" />
</g>
<g id="#f6faf7ff">
<path fill="#f6faf7" opacity="1.00" d=" M 31.49 10.57 C 44.31 10.18 57.14 10.49 69.97 10.39 C 75.33 10.46 80.71 10.17 86.06 10.68 C 88.59 11.24 91.02 12.20 93.56 12.70 L 93.47 13.83 C 93.94 13.65 94.87 13.29 95.33 13.12 L 95.36 14.15 C 95.97 14.40 97.19 14.88 97.80 15.12 C 99.08 15.98 100.27 16.97 101.54 17.87 L 101.12 18.64 L 102.59 18.24 L 102.36 19.80 L 103.74 19.11 L 103.28 20.75 L 104.68 20.25 L 104.38 21.53 L 105.26 21.76 C 106.15 22.89 107.06 24.01 107.92 25.16 C 108.16 25.76 108.63 26.98 108.86 27.59 L 109.89 27.69 C 109.70 28.16 109.33 29.10 109.14 29.57 L 110.54 29.41 C 110.53 30.25 110.51 31.93 110.50 32.77 L 111.32 32.31 C 111.97 35.16 112.66 38.03 112.59 40.98 C 112.65 59.34 112.58 77.69 112.62 96.05 C 112.58 98.99 112.77 102.03 111.71 104.83 C 111.65 105.57 111.52 107.04 111.45 107.77 L 110.47 107.16 C 110.50 108.00 110.55 109.68 110.57 110.51 L 109.24 110.42 C 109.38 110.90 109.67 111.85 109.81 112.33 L 108.86 112.46 C 107.96 114.56 106.78 116.53 105.30 118.27 L 104.35 118.45 L 104.74 119.77 L 103.26 119.16 L 103.85 120.76 L 102.22 120.31 L 102.63 121.99 L 101.14 121.15 L 101.54 122.15 C 100.31 123.00 99.15 123.94 97.94 124.82 C 97.31 125.07 96.06 125.58 95.43 125.84 L 95.30 126.88 C 94.83 126.70 93.90 126.33 93.43 126.15 L 93.56 127.55 C 92.73 127.53 91.05 127.49 90.22 127.47 L 90.71 128.45 C 88.83 128.58 86.87 128.50 85.16 129.41 C 69.78 129.87 54.38 129.47 39.00 129.62 C 36.03 129.53 32.83 129.88 30.08 128.64 C 29.38 128.61 28.00 128.53 27.30 128.49 L 27.82 127.51 C 26.98 127.52 25.30 127.53 24.46 127.54 L 24.58 126.22 C 24.11 126.37 23.17 126.67 22.69 126.82 L 22.52 125.88 C 20.37 124.88 18.29 123.69 16.47 122.15 L 16.84 121.18 L 15.40 121.93 L 15.68 120.26 L 13.99 120.67 L 14.84 119.25 L 13.21 119.62 L 13.65 118.11 L 12.82 118.56 C 11.36 116.69 10.11 114.66 9.14 112.49 L 8.18 112.29 C 8.33 111.83 8.64 110.92 8.79 110.46 L 7.74 110.50 C 7.15 108.35 6.47 106.23 5.76 104.12 C 4.95 90.44 5.60 76.71 5.39 63.01 C 5.49 53.84 5.12 44.66 5.69 35.51 L 6.51 35.75 C 6.49 34.88 6.44 33.15 6.42 32.28 L 7.56 32.78 C 7.52 31.97 7.44 30.33 7.40 29.51 L 8.78 29.56 C 8.63 29.10 8.33 28.17 8.18 27.70 L 9.73 27.49 L 9.27 25.89 C 9.50 25.78 9.97 25.54 10.20 25.42 C 11.05 24.20 11.83 22.93 12.62 21.67 L 13.65 21.59 L 13.28 20.29 L 14.72 20.71 L 14.32 19.04 L 15.72 19.82 L 15.38 18.22 L 16.87 18.63 L 16.45 17.84 C 18.35 16.36 20.35 15.01 22.60 14.13 L 22.70 13.11 C 23.16 13.30 24.10 13.68 24.56 13.86 L 24.39 12.76 C 26.72 12.01 29.09 11.31 31.57 11.30 L 31.49 10.57 M 27.22 12.63 L 27.54 13.81 C 27.16 13.71 26.41 13.52 26.04 13.43 C 24.53 14.25 22.99 15.03 21.43 15.75 L 21.40 16.59 C 20.88 16.52 19.84 16.39 19.32 16.33 L 19.77 17.75 L 18.83 17.34 C 16.39 19.56 14.02 21.89 12.11 24.60 L 11.79 24.34 C 11.53 24.99 11.00 26.27 10.74 26.91 C 8.66 30.22 7.38 34.03 6.65 37.85 C 6.50 60.07 6.74 82.30 6.53 104.52 L 7.69 104.42 C 7.62 105.25 7.49 106.93 7.43 107.76 L 8.22 107.35 C 8.56 108.70 9.14 109.97 9.55 111.29 C 9.84 111.86 10.43 112.99 10.73 113.56 L 11.61 113.65 C 11.53 114.16 11.37 115.17 11.29 115.67 L 12.76 115.22 L 12.32 116.16 C 14.43 118.38 16.62 120.53 18.82 122.67 L 19.75 122.25 L 19.33 123.67 C 19.85 123.61 20.90 123.48 21.42 123.42 L 21.44 124.20 C 24.10 125.86 27.20 126.75 30.17 127.73 C 32.98 128.84 36.06 128.28 39.00 128.39 C 54.54 128.44 70.07 128.28 85.61 128.47 L 85.59 127.83 C 87.85 127.57 90.05 127.06 92.22 126.41 C 94.07 125.11 96.34 124.56 98.12 123.19 C 98.43 122.97 99.06 122.53 99.38 122.30 C 101.63 120.42 103.62 118.27 105.68 116.19 L 105.26 115.23 L 106.68 115.68 C 106.61 115.17 106.48 114.14 106.41 113.62 L 107.24 113.54 C 108.04 112.13 108.67 110.65 109.28 109.15 C 109.95 107.19 110.60 105.23 111.33 103.29 C 111.52 80.64 111.25 57.99 111.47 35.34 L 110.66 35.63 C 110.30 34.01 109.80 32.44 109.40 30.85 C 108.48 28.47 106.88 26.46 105.84 24.16 C 103.90 21.98 101.95 19.80 99.61 18.03 L 99.64 17.50 L 98.53 17.47 L 98.26 16.75 C 95.72 15.42 93.24 13.81 90.37 13.27 L 90.79 12.64 C 89.52 12.51 88.25 12.41 86.98 12.34 C 85.71 11.79 84.38 11.54 83.01 11.59 C 66.99 11.64 50.98 11.61 34.96 11.60 C 33.61 11.55 32.31 11.79 31.07 12.32 C 29.79 12.44 28.50 12.55 27.22 12.63 Z" />
<path fill="#f6faf7" opacity="1.00" d=" M 43.35 40.09 C 45.38 38.83 47.81 40.08 50.00 40.10 C 50.00 43.07 50.00 46.03 50.00 49.00 C 50.75 49.00 52.25 49.00 53.00 49.00 C 53.00 49.75 53.00 51.25 53.00 52.00 C 52.25 52.00 50.75 52.00 50.00 52.00 C 50.00 54.63 50.00 57.26 50.00 59.90 C 47.56 59.98 44.71 61.37 42.63 59.42 C 39.97 57.37 37.21 55.43 34.77 53.11 C 32.97 51.29 33.23 47.88 35.32 46.37 C 37.87 44.12 40.60 42.08 43.35 40.09 M 37.01 50.00 C 40.00 52.32 43.00 54.64 45.99 56.98 C 46.01 52.32 46.00 47.66 46.00 43.01 C 43.02 45.35 40.01 47.67 37.01 50.00 Z" />
<path fill="#f6faf7" opacity="1.00" d=" M 69.10 40.00 C 70.95 39.91 73.02 38.85 74.70 40.12 C 77.43 42.10 80.14 44.14 82.68 46.37 C 85.00 48.04 85.01 51.95 82.69 53.62 C 80.17 55.85 77.47 57.87 74.74 59.84 C 73.06 61.12 70.96 60.13 69.10 59.97 C 68.41 57.37 67.86 54.71 67.90 52.00 C 67.17 52.00 65.72 52.00 65.00 52.00 C 65.00 51.25 65.00 49.75 65.00 49.00 C 65.74 49.00 67.21 49.00 67.95 49.00 C 67.81 45.95 68.25 42.93 69.10 40.00 M 72.00 43.01 C 72.00 47.66 72.00 52.31 72.00 56.97 C 75.00 54.65 78.00 52.33 80.99 50.00 C 77.99 47.67 74.98 45.35 72.00 43.01 Z" />
<path fill="#f6faf7" opacity="1.00" d=" M 54.00 49.00 C 54.75 49.00 56.25 49.00 57.00 49.00 C 57.00 49.75 57.00 51.25 57.00 52.00 C 56.25 52.00 54.75 52.00 54.00 52.00 C 54.00 51.25 54.00 49.75 54.00 49.00 Z" />
<path fill="#f6faf7" opacity="1.00" d=" M 58.00 49.00 C 60.00 49.00 62.00 49.00 64.00 49.00 C 64.00 49.75 64.00 51.25 64.00 52.00 C 62.00 52.00 60.00 52.00 58.00 52.00 C 58.00 51.25 58.00 49.75 58.00 49.00 Z" />
</g>
</svg>
