<?xml version="1.0" encoding="UTF-8" ?>
<!DOCTYPE svg PUBLIC "-//W3C//DTD SVG 1.1//EN" "http://www.w3.org/Graphics/SVG/1.1/DTD/svg11.dtd">
<svg width="117px" height="140px" viewBox="0 0 117 140" version="1.1" xmlns="http://www.w3.org/2000/svg">
<g id="#000000ff">
<path fill="#000000" opacity="1.00" d=" M 0.00 0.00 L 117.00 0.00 L 117.00 140.00 L 0.00 140.00 L 0.00 0.00 M 31.27 10.57 L 31.79 11.25 C 29.28 11.25 26.86 11.91 24.49 12.67 L 24.49 13.75 C 24.03 13.59 23.11 13.27 22.65 13.11 L 22.59 14.61 C 22.23 14.55 21.50 14.42 21.14 14.36 C 19.61 15.52 18.07 16.67 16.49 17.77 L 16.46 18.01 C 15.14 19.00 13.98 20.17 13.01 21.49 L 12.82 21.44 C 11.70 23.03 10.53 24.58 9.36 26.14 C 9.42 26.50 9.54 27.22 9.60 27.58 L 8.11 27.65 C 8.27 28.11 8.59 29.04 8.75 29.50 L 7.65 29.49 C 7.10 31.52 6.50 33.55 6.19 35.64 C 6.06 35.61 5.80 35.57 5.67 35.54 C 5.19 41.69 5.38 47.85 5.35 54.01 C 5.53 70.83 4.97 87.67 5.67 104.48 C 5.80 104.45 6.07 104.39 6.20 104.37 C 6.50 106.44 7.08 108.46 7.62 110.48 L 8.73 110.50 C 8.58 110.96 8.28 111.89 8.12 112.36 L 9.62 112.42 C 9.56 112.78 9.44 113.51 9.38 113.87 C 10.53 115.40 11.67 116.94 12.77 118.51 L 13.01 118.53 C 13.99 119.84 15.15 121.00 16.46 122.00 L 16.50 122.22 C 18.07 123.33 19.61 124.47 21.15 125.63 C 21.51 125.57 22.23 125.45 22.60 125.39 L 22.64 126.90 C 23.10 126.74 24.03 126.41 24.49 126.24 L 24.49 127.30 C 28.55 128.52 32.66 129.85 36.96 129.65 C 53.56 129.53 70.16 129.90 86.75 129.44 L 86.18 128.74 C 88.71 128.78 91.13 128.11 93.51 127.33 L 93.51 126.24 C 93.97 126.41 94.90 126.74 95.36 126.90 L 95.40 125.39 C 95.77 125.45 96.50 125.58 96.86 125.64 C 98.41 124.46 99.96 123.30 101.55 122.19 L 101.46 121.12 L 102.76 121.99 L 102.47 121.04 C 103.47 120.15 104.44 119.21 105.41 118.29 C 106.44 116.79 107.52 115.32 108.62 113.87 C 108.56 113.51 108.44 112.78 108.38 112.41 L 109.89 112.37 C 109.73 111.90 109.42 110.97 109.26 110.51 L 110.36 110.49 C 110.91 108.47 111.50 106.45 111.81 104.37 C 111.94 104.40 112.20 104.45 112.34 104.48 C 113.03 83.98 112.46 63.46 112.66 42.96 C 112.95 38.33 111.67 33.86 110.31 29.50 L 109.25 29.49 C 109.41 29.03 109.74 28.10 109.90 27.64 L 108.39 27.60 C 108.45 27.23 108.58 26.51 108.64 26.14 C 107.48 24.61 106.33 23.07 105.23 21.50 L 104.88 21.47 C 104.26 20.58 103.63 19.69 102.99 18.82 C 102.57 18.72 101.72 18.53 101.29 18.43 L 101.55 17.81 C 99.96 16.69 98.41 15.53 96.86 14.36 C 96.50 14.42 95.78 14.55 95.42 14.61 L 95.35 13.11 C 94.89 13.27 93.97 13.59 93.51 13.75 L 93.51 12.67 C 91.14 11.90 88.72 11.25 86.21 11.25 L 86.73 10.57 C 68.25 10.21 49.75 10.21 31.27 10.57 Z" />
<path fill="#000000" opacity="1.00" d=" M 32.17 11.58 C 50.06 11.70 67.95 11.70 85.83 11.58 L 85.28 12.38 C 87.12 12.47 88.97 12.58 90.81 12.65 L 90.38 13.98 C 90.88 13.78 91.88 13.39 92.38 13.20 L 92.65 14.61 C 93.10 14.54 94.02 14.41 94.48 14.34 L 94.71 15.62 C 95.17 15.54 96.08 15.39 96.54 15.31 L 96.55 16.71 C 97.09 16.61 98.16 16.41 98.70 16.30 L 98.12 17.86 L 99.54 17.16 L 99.46 18.01 C 101.55 19.56 103.40 21.41 104.96 23.50 L 105.26 23.32 C 105.76 24.42 106.26 25.51 106.77 26.61 L 107.77 26.48 C 107.66 26.92 107.44 27.80 107.33 28.24 L 108.71 28.58 C 108.62 29.03 108.42 29.92 108.32 30.36 L 109.18 30.37 C 109.54 31.56 109.93 32.73 110.36 33.89 C 110.41 34.63 110.51 36.10 110.56 36.83 L 111.42 36.10 C 111.31 58.33 111.30 80.55 111.42 102.77 L 110.63 102.38 C 110.54 104.19 110.43 106.00 110.35 107.81 L 109.04 107.40 C 109.24 107.89 109.62 108.88 109.82 109.37 L 108.44 109.64 C 108.46 110.00 108.49 110.71 108.50 111.07 C 108.17 111.68 107.51 112.90 107.19 113.51 L 106.26 113.67 C 106.37 114.17 106.60 115.16 106.71 115.66 L 105.10 115.18 L 105.86 116.59 L 104.99 116.46 C 103.47 118.43 101.72 120.18 99.94 121.91 C 99.52 122.08 98.67 122.42 98.24 122.59 L 98.70 123.63 C 98.16 123.56 97.08 123.42 96.54 123.35 L 96.50 124.69 C 96.18 124.65 95.54 124.58 95.22 124.54 C 94.57 124.87 93.28 125.53 92.64 125.86 L 92.38 126.79 C 91.88 126.60 90.89 126.20 90.40 126.01 L 90.81 127.35 C 88.96 127.42 87.11 127.54 85.26 127.63 L 85.85 128.42 C 67.59 128.29 49.32 128.32 31.05 128.40 L 31.92 127.51 C 30.34 127.46 28.76 127.41 27.18 127.38 L 27.63 126.00 C 27.13 126.20 26.13 126.60 25.64 126.80 L 25.36 125.87 C 24.72 125.53 23.42 124.87 22.78 124.53 C 22.45 124.58 21.80 124.68 21.48 124.73 L 21.61 123.77 C 20.51 123.26 19.41 122.76 18.31 122.26 L 18.50 121.96 C 16.43 120.42 14.59 118.59 13.05 116.51 L 12.74 116.68 C 12.23 115.58 11.73 114.48 11.22 113.39 L 10.22 113.50 C 10.33 113.06 10.56 112.19 10.68 111.75 L 9.35 111.49 C 9.41 111.02 9.54 110.10 9.60 109.64 L 8.18 109.38 C 8.38 108.88 8.77 107.87 8.96 107.37 L 7.65 107.83 C 7.57 106.02 7.47 104.21 7.37 102.41 L 6.57 102.75 C 6.70 80.91 6.70 59.06 6.57 37.22 L 7.37 37.61 C 7.47 35.79 7.57 33.98 7.65 32.17 L 8.96 32.63 C 8.76 32.13 8.38 31.13 8.19 30.62 L 9.63 30.34 C 9.56 29.88 9.42 28.98 9.35 28.52 L 10.60 28.29 C 10.54 27.84 10.41 26.93 10.34 26.48 L 11.76 26.35 C 11.64 25.85 11.39 24.85 11.27 24.35 L 12.89 24.85 L 12.12 23.43 L 13.02 23.59 C 14.54 21.46 16.39 19.60 18.50 18.05 L 18.31 17.74 C 19.41 17.24 20.50 16.74 21.60 16.24 L 21.57 15.15 L 22.69 15.51 C 23.57 15.03 24.45 14.57 25.34 14.13 L 25.64 13.21 C 26.13 13.40 27.12 13.79 27.61 13.98 L 27.19 12.64 C 29.03 12.57 30.87 12.47 32.72 12.38 L 32.17 11.58 M 46.05 30.06 C 46.06 35.65 46.08 41.25 46.06 46.85 C 43.91 46.86 41.77 46.86 39.62 46.86 C 39.62 52.07 39.64 57.27 39.60 62.48 C 42.90 62.49 46.19 62.48 49.48 62.50 C 52.29 65.36 55.14 68.17 57.95 71.02 C 57.73 73.12 57.71 75.23 57.71 77.33 C 52.33 77.35 46.94 77.36 41.56 77.33 C 41.60 75.64 41.65 73.96 41.69 72.27 C 41.03 72.23 39.71 72.14 39.05 72.09 C 39.00 74.17 38.99 76.26 38.94 78.34 C 39.92 78.90 40.72 80.02 41.95 79.95 C 51.62 80.10 61.29 79.93 70.95 80.02 C 73.73 79.91 76.98 80.67 79.06 78.32 C 79.01 76.24 79.00 74.17 78.95 72.09 C 78.29 72.14 76.96 72.23 76.30 72.27 C 76.35 73.96 76.40 75.64 76.44 77.33 C 71.06 77.36 65.67 77.35 60.29 77.33 C 60.29 75.22 60.27 73.12 60.05 71.02 C 62.87 68.17 65.71 65.36 68.52 62.50 C 71.81 62.48 75.11 62.49 78.40 62.48 C 78.36 57.27 78.38 52.07 78.38 46.86 C 76.23 46.86 74.09 46.86 71.94 46.85 C 71.92 41.25 71.94 35.65 71.95 30.06 C 63.32 29.96 54.68 29.96 46.05 30.06 Z" />
<path fill="#000000" opacity="1.00" d=" M 48.71 32.66 C 55.57 32.65 62.43 32.65 69.29 32.66 C 69.23 38.26 69.36 43.85 69.18 49.45 C 71.40 49.50 73.63 49.53 75.86 49.58 C 75.73 52.98 75.75 56.39 75.80 59.80 C 64.60 59.85 53.40 59.85 42.20 59.80 C 42.25 56.39 42.26 52.97 42.14 49.56 C 48.70 49.41 55.26 49.62 61.82 49.44 C 61.75 48.58 61.67 47.72 61.59 46.86 C 57.31 46.85 53.03 46.86 48.75 46.86 C 48.73 45.15 48.72 43.44 48.70 41.74 C 53.00 41.67 57.32 41.99 61.61 41.56 C 61.66 40.96 61.76 39.75 61.80 39.14 C 57.45 39.01 53.09 39.07 48.73 39.09 C 48.73 36.94 48.72 34.80 48.71 32.66 Z" />
<path fill="#000000" opacity="1.00" d=" M 53.04 62.52 C 57.01 62.46 60.98 62.46 64.96 62.51 C 62.96 64.48 60.95 66.44 59.00 68.45 C 57.05 66.44 55.04 64.48 53.04 62.52 Z" />
</g>
<g id="#e4eaedff">
<path fill="#e4eaed" opacity="1.00" d=" M 31.27 10.57 C 49.75 10.21 68.25 10.21 86.73 10.57 L 86.21 11.25 C 88.72 11.25 91.14 11.90 93.51 12.67 L 93.51 13.75 C 93.97 13.59 94.89 13.27 95.35 13.11 L 95.42 14.61 C 95.78 14.55 96.50 14.42 96.86 14.36 C 98.41 15.53 99.96 16.69 101.55 17.81 L 101.29 18.43 C 101.72 18.53 102.57 18.72 102.99 18.82 C 103.63 19.69 104.26 20.58 104.88 21.47 L 105.23 21.50 C 106.33 23.07 107.48 24.61 108.64 26.14 C 108.58 26.51 108.45 27.23 108.39 27.60 L 109.90 27.64 C 109.74 28.10 109.41 29.03 109.25 29.49 L 110.31 29.50 C 111.67 33.86 112.95 38.33 112.66 42.96 C 112.46 63.46 113.03 83.98 112.34 104.48 C 112.20 104.45 111.94 104.40 111.81 104.37 C 111.50 106.45 110.91 108.47 110.36 110.49 L 109.26 110.51 C 109.42 110.97 109.73 111.90 109.89 112.37 L 108.38 112.41 C 108.44 112.78 108.56 113.51 108.62 113.87 C 107.52 115.32 106.44 116.79 105.41 118.29 C 104.44 119.21 103.47 120.15 102.47 121.04 L 102.76 121.99 L 101.46 121.12 L 101.55 122.19 C 99.96 123.30 98.41 124.46 96.86 125.64 C 96.50 125.58 95.77 125.45 95.40 125.39 L 95.36 126.90 C 94.90 126.74 93.97 126.41 93.51 126.24 L 93.51 127.33 C 91.13 128.11 88.71 128.78 86.18 128.74 L 86.75 129.44 C 70.16 129.90 53.56 129.53 36.96 129.65 C 32.66 129.85 28.55 128.52 24.49 127.30 L 24.49 126.24 C 24.03 126.41 23.10 126.74 22.64 126.90 L 22.60 125.39 C 22.23 125.45 21.51 125.57 21.15 125.63 C 19.61 124.47 18.07 123.33 16.50 122.22 L 16.46 122.00 C 15.15 121.00 13.99 119.84 13.01 118.53 L 12.77 118.51 C 11.67 116.94 10.53 115.40 9.38 113.87 C 9.44 113.51 9.56 112.78 9.62 112.42 L 8.12 112.36 C 8.28 111.89 8.58 110.96 8.73 110.50 L 7.62 110.48 C 7.08 108.46 6.50 106.44 6.20 104.37 C 6.07 104.39 5.80 104.45 5.67 104.48 C 4.97 87.67 5.53 70.83 5.35 54.01 C 5.38 47.85 5.19 41.69 5.67 35.54 C 5.80 35.57 6.06 35.61 6.19 35.64 C 6.50 33.55 7.10 31.52 7.65 29.49 L 8.75 29.50 C 8.59 29.04 8.27 28.11 8.11 27.65 L 9.60 27.58 C 9.54 27.22 9.42 26.50 9.36 26.14 C 10.53 24.58 11.70 23.03 12.82 21.44 L 13.01 21.49 C 13.98 20.17 15.14 19.00 16.46 18.01 L 16.49 17.77 C 18.07 16.67 19.61 15.52 21.14 14.36 C 21.50 14.42 22.23 14.55 22.59 14.61 L 22.65 13.11 C 23.11 13.27 24.03 13.59 24.49 13.75 L 24.49 12.67 C 26.86 11.91 29.28 11.25 31.79 11.25 L 31.27 10.57 M 32.17 11.58 L 32.72 12.38 C 30.87 12.47 29.03 12.57 27.19 12.64 L 27.61 13.98 C 27.12 13.79 26.13 13.40 25.64 13.21 L 25.34 14.13 C 24.45 14.57 23.57 15.03 22.69 15.51 L 21.57 15.15 L 21.60 16.24 C 20.50 16.74 19.41 17.24 18.31 17.74 L 18.50 18.05 C 16.39 19.60 14.54 21.46 13.02 23.59 L 12.12 23.43 L 12.89 24.85 L 11.27 24.35 C 11.39 24.85 11.64 25.85 11.76 26.35 L 10.34 26.48 C 10.41 26.93 10.54 27.84 10.60 28.29 L 9.35 28.52 C 9.42 28.98 9.56 29.88 9.63 30.34 L 8.19 30.62 C 8.38 31.13 8.76 32.13 8.96 32.63 L 7.65 32.17 C 7.57 33.98 7.47 35.79 7.37 37.61 L 6.57 37.22 C 6.70 59.06 6.70 80.91 6.57 102.75 L 7.37 102.41 C 7.47 104.21 7.57 106.02 7.65 107.83 L 8.96 107.37 C 8.77 107.87 8.38 108.88 8.18 109.38 L 9.60 109.64 C 9.54 110.10 9.41 111.02 9.35 111.49 L 10.68 111.75 C 10.56 112.19 10.33 113.06 10.22 113.50 L 11.22 113.39 C 11.73 114.48 12.23 115.58 12.74 116.68 L 13.05 116.51 C 14.59 118.59 16.43 120.42 18.50 121.96 L 18.31 122.26 C 19.41 122.76 20.51 123.26 21.61 123.77 L 21.48 124.73 C 21.80 124.68 22.45 124.58 22.78 124.53 C 23.42 124.87 24.72 125.53 25.36 125.87 L 25.64 126.80 C 26.13 126.60 27.13 126.20 27.63 126.00 L 27.18 127.38 C 28.76 127.41 30.34 127.46 31.92 127.51 L 31.05 128.40 C 49.32 128.32 67.59 128.29 85.85 128.42 L 85.26 127.63 C 87.11 127.54 88.96 127.42 90.81 127.35 L 90.40 126.01 C 90.89 126.20 91.88 126.60 92.38 126.79 L 92.64 125.86 C 93.28 125.53 94.57 124.87 95.22 124.54 C 95.54 124.58 96.18 124.65 96.50 124.69 L 96.54 123.35 C 97.08 123.42 98.16 123.56 98.70 123.63 L 98.24 122.59 C 98.67 122.42 99.52 122.08 99.94 121.91 C 101.72 120.18 103.47 118.43 104.99 116.46 L 105.86 116.59 L 105.10 115.18 L 106.71 115.66 C 106.60 115.16 106.37 114.17 106.26 113.67 L 107.19 113.51 C 107.51 112.90 108.17 111.68 108.50 111.07 C 108.49 110.71 108.46 110.00 108.44 109.64 L 109.82 109.37 C 109.62 108.88 109.24 107.89 109.04 107.40 L 110.35 107.81 C 110.43 106.00 110.54 104.19 110.63 102.38 L 111.42 102.77 C 111.30 80.55 111.31 58.33 111.42 36.10 L 110.56 36.83 C 110.51 36.10 110.41 34.63 110.36 33.89 C 109.93 32.73 109.54 31.56 109.18 30.37 L 108.32 30.36 C 108.42 29.92 108.62 29.03 108.71 28.58 L 107.33 28.24 C 107.44 27.80 107.66 26.92 107.77 26.48 L 106.77 26.61 C 106.26 25.51 105.76 24.42 105.26 23.32 L 104.96 23.50 C 103.40 21.41 101.55 19.56 99.46 18.01 L 99.54 17.16 L 98.12 17.86 L 98.70 16.30 C 98.16 16.41 97.09 16.61 96.55 16.71 L 96.54 15.31 C 96.08 15.39 95.17 15.54 94.71 15.62 L 94.48 14.34 C 94.02 14.41 93.10 14.54 92.65 14.61 L 92.38 13.20 C 91.88 13.39 90.88 13.78 90.38 13.98 L 90.81 12.65 C 88.97 12.58 87.12 12.47 85.28 12.38 L 85.83 11.58 C 67.95 11.70 50.06 11.70 32.17 11.58 Z" />
<path fill="#e4eaed" opacity="1.00" d=" M 46.05 30.06 C 54.68 29.96 63.32 29.96 71.95 30.06 C 71.94 35.65 71.92 41.25 71.94 46.85 C 74.09 46.86 76.23 46.86 78.38 46.86 C 78.38 52.07 78.36 57.27 78.40 62.48 C 75.11 62.49 71.81 62.48 68.52 62.50 C 65.71 65.36 62.87 68.17 60.05 71.02 C 60.27 73.12 60.29 75.22 60.29 77.33 C 65.67 77.35 71.06 77.36 76.44 77.33 C 76.40 75.64 76.35 73.96 76.30 72.27 C 76.96 72.23 78.29 72.14 78.95 72.09 C 79.00 74.17 79.01 76.24 79.06 78.32 C 76.98 80.67 73.73 79.91 70.95 80.02 C 61.29 79.93 51.62 80.10 41.95 79.95 C 40.72 80.02 39.92 78.90 38.94 78.34 C 38.99 76.26 39.00 74.17 39.05 72.09 C 39.71 72.14 41.03 72.23 41.69 72.27 C 41.65 73.96 41.60 75.64 41.56 77.33 C 46.94 77.36 52.33 77.35 57.71 77.33 C 57.71 75.23 57.73 73.12 57.95 71.02 C 55.14 68.17 52.29 65.36 49.48 62.50 C 46.19 62.48 42.90 62.49 39.60 62.48 C 39.64 57.27 39.62 52.07 39.62 46.86 C 41.77 46.86 43.91 46.86 46.06 46.85 C 46.08 41.25 46.06 35.65 46.05 30.06 M 48.71 32.66 C 48.72 34.80 48.73 36.94 48.73 39.09 C 53.09 39.07 57.45 39.01 61.80 39.14 C 61.76 39.75 61.66 40.96 61.61 41.56 C 57.32 41.99 53.00 41.67 48.70 41.74 C 48.72 43.44 48.73 45.15 48.75 46.86 C 53.03 46.86 57.31 46.85 61.59 46.86 C 61.67 47.72 61.75 48.58 61.82 49.44 C 55.26 49.62 48.70 49.41 42.14 49.56 C 42.26 52.97 42.25 56.39 42.20 59.80 C 53.40 59.85 64.60 59.85 75.80 59.80 C 75.75 56.39 75.73 52.98 75.86 49.58 C 73.63 49.53 71.40 49.50 69.18 49.45 C 69.36 43.85 69.23 38.26 69.29 32.66 C 62.43 32.65 55.57 32.65 48.71 32.66 M 53.04 62.52 C 55.04 64.48 57.05 66.44 59.00 68.45 C 60.95 66.44 62.96 64.48 64.96 62.51 C 60.98 62.46 57.01 62.46 53.04 62.52 Z" />
</g>
</svg>
