<?xml version="1.0" encoding="UTF-8" ?>
<!DOCTYPE svg PUBLIC "-//W3C//DTD SVG 1.1//EN" "http://www.w3.org/Graphics/SVG/1.1/DTD/svg11.dtd">
<svg width="117px" height="92px" viewBox="0 0 117 92" version="1.1" xmlns="http://www.w3.org/2000/svg">
<g id="#000000ff">
<path fill="#000000" opacity="1.00" d=" M 0.00 0.00 L 117.00 0.00 L 117.00 92.00 L 0.00 92.00 L 0.00 0.00 M 23.47 10.74 L 23.55 11.82 C 23.07 11.64 22.11 11.30 21.63 11.13 L 21.63 12.66 C 21.15 12.57 20.19 12.39 19.71 12.30 L 19.54 13.15 C 18.12 13.99 16.77 14.92 15.38 15.80 L 15.84 16.72 L 14.39 16.16 L 14.46 17.09 C 13.41 17.69 12.62 18.53 12.09 19.61 L 11.77 19.42 C 10.90 20.79 9.98 22.14 9.15 23.54 L 8.29 23.73 C 8.39 24.21 8.58 25.15 8.67 25.63 L 7.12 25.63 C 7.30 26.11 7.64 27.06 7.81 27.54 L 6.71 27.51 C 5.79 30.94 4.51 34.35 4.44 37.95 C 4.44 46.51 3.55 55.32 6.72 63.49 L 7.77 63.44 C 7.62 63.92 7.32 64.88 7.17 65.36 L 8.79 65.47 L 8.22 67.15 C 8.46 67.24 8.94 67.42 9.18 67.51 C 10.00 68.89 10.91 70.21 11.78 71.57 L 12.09 71.43 C 12.59 72.50 13.35 73.32 14.37 73.90 L 14.48 74.78 L 15.85 74.34 L 15.40 75.21 C 16.77 76.08 18.11 77.00 19.52 77.83 C 19.60 78.08 19.78 78.58 19.87 78.83 L 20.88 78.45 C 21.57 78.81 22.96 79.53 23.66 79.89 L 23.48 80.33 C 25.55 80.88 27.61 81.50 29.75 81.78 L 29.55 82.30 C 47.91 82.94 66.30 82.53 84.66 82.52 L 84.56 81.61 C 86.31 81.59 88.06 81.57 89.82 81.54 L 89.08 80.52 C 89.94 80.53 91.66 80.56 92.52 80.57 L 92.39 79.22 C 92.90 79.38 93.92 79.69 94.43 79.85 L 94.34 78.31 C 94.83 78.41 95.79 78.62 96.27 78.72 L 96.46 77.82 C 97.85 76.98 99.20 76.07 100.57 75.20 L 100.24 74.02 L 101.53 75.10 L 101.32 73.34 L 102.95 73.63 L 102.25 72.05 L 104.07 72.72 L 103.03 71.28 L 104.17 71.64 C 105.06 70.24 106.01 68.87 106.87 67.43 L 107.70 67.29 C 107.61 66.81 107.43 65.84 107.35 65.35 L 108.85 65.40 C 108.69 64.91 108.37 63.92 108.21 63.43 L 109.56 63.51 C 109.55 62.65 109.53 60.93 109.52 60.07 L 110.27 60.89 C 112.30 53.77 111.46 46.31 111.59 39.01 C 111.69 35.03 110.30 31.27 109.28 27.49 L 108.18 27.55 C 108.36 27.07 108.70 26.11 108.88 25.63 L 107.33 25.63 C 107.43 25.16 107.61 24.20 107.70 23.73 L 106.86 23.55 C 106.01 22.13 105.08 20.77 104.19 19.38 L 103.31 19.82 L 103.72 18.42 L 102.19 18.49 L 102.75 16.99 L 101.32 17.91 L 101.71 16.25 L 100.21 16.73 L 100.63 15.81 C 99.23 14.93 97.88 13.99 96.46 13.15 L 96.28 12.30 C 95.79 12.39 94.82 12.56 94.33 12.64 L 94.39 11.12 C 93.90 11.30 92.92 11.65 92.44 11.82 L 92.54 10.74 C 88.77 9.70 85.00 8.34 81.03 8.40 C 65.69 8.38 50.35 8.38 35.02 8.40 C 31.03 8.33 27.26 9.70 23.47 10.74 Z" />
<path fill="#000000" opacity="1.00" d=" M 26.10 10.80 C 27.68 10.60 29.28 10.34 30.75 9.68 C 48.96 9.57 67.18 9.55 85.39 9.69 C 86.84 10.28 88.34 10.65 89.90 10.82 L 89.28 11.23 C 91.53 11.73 93.60 12.78 95.69 13.73 L 95.64 14.71 C 96.16 14.58 97.18 14.33 97.69 14.20 L 97.14 15.64 L 98.24 15.38 C 100.63 17.66 103.09 19.92 104.93 22.68 L 105.83 22.30 C 105.69 22.80 105.42 23.80 105.29 24.30 L 106.22 24.39 C 106.95 25.95 107.72 27.50 108.56 29.00 C 108.49 29.44 108.35 30.31 108.29 30.74 L 109.20 30.06 C 109.39 31.65 109.66 33.26 110.32 34.74 C 110.51 42.37 110.26 50.00 110.46 57.64 L 109.69 57.38 C 109.06 60.50 107.97 63.53 106.23 66.21 C 105.97 66.85 105.47 68.13 105.22 68.76 L 104.26 68.11 L 104.64 69.23 C 102.78 71.15 100.90 73.05 98.96 74.88 C 96.50 76.61 93.90 78.11 91.19 79.41 C 88.77 80.07 86.33 80.66 83.92 81.34 C 66.19 81.41 48.47 81.45 30.75 81.32 C 29.28 80.65 27.68 80.39 26.09 80.20 L 26.65 79.13 C 26.23 79.26 25.41 79.52 25.00 79.66 C 23.24 78.62 21.47 77.61 19.77 76.49 L 18.26 76.79 L 18.71 75.88 C 17.05 74.67 15.45 73.39 13.79 72.19 C 12.94 70.85 12.05 69.54 11.20 68.20 L 10.18 68.74 C 10.31 68.22 10.58 67.18 10.71 66.67 L 9.72 66.68 C 8.76 64.60 7.78 62.50 7.18 60.28 L 6.80 60.94 C 6.60 59.34 6.34 57.74 5.68 56.26 C 5.56 49.09 5.57 41.92 5.67 34.75 C 6.33 33.27 6.61 31.68 6.81 30.08 L 7.79 30.64 C 7.69 30.25 7.51 29.45 7.42 29.06 C 8.27 27.50 9.06 25.91 9.82 24.31 L 10.71 24.36 C 10.59 23.85 10.33 22.83 10.20 22.32 L 11.18 22.68 C 12.05 21.40 12.97 20.14 13.86 18.87 C 15.43 17.56 17.03 16.27 18.73 15.13 L 18.26 14.22 L 19.79 14.52 C 21.47 13.39 23.24 12.40 24.98 11.35 C 25.39 11.48 26.23 11.74 26.65 11.87 L 26.10 10.80 M 37.57 33.73 C 36.48 39.64 41.85 42.97 45.23 46.78 C 49.36 51.65 53.73 56.32 58.27 60.80 C 59.41 62.25 61.82 62.64 63.17 61.28 C 69.97 55.02 75.63 47.67 82.19 41.17 C 84.44 39.37 84.43 36.34 84.42 33.72 C 68.81 33.54 53.18 33.53 37.57 33.73 Z" />
<path fill="#000000" opacity="1.00" d=" M 42.08 37.67 C 54.70 37.85 67.33 37.83 79.94 37.68 C 73.45 44.40 67.15 51.31 61.00 58.34 C 54.85 51.32 48.56 44.40 42.08 37.67 Z" />
</g>
<g id="#f5f9f7ff">
<path fill="#f5f9f7" opacity="1.00" d=" M 23.47 10.74 C 27.26 9.70 31.03 8.33 35.02 8.40 C 50.35 8.38 65.69 8.38 81.03 8.40 C 85.00 8.34 88.77 9.70 92.54 10.74 L 92.44 11.82 C 92.92 11.65 93.90 11.30 94.39 11.12 L 94.33 12.64 C 94.82 12.56 95.79 12.39 96.28 12.30 L 96.46 13.15 C 97.88 13.99 99.23 14.93 100.63 15.81 L 100.21 16.73 L 101.71 16.25 L 101.32 17.91 L 102.75 16.99 L 102.19 18.49 L 103.72 18.42 L 103.31 19.82 L 104.19 19.38 C 105.08 20.77 106.01 22.13 106.86 23.55 L 107.70 23.73 C 107.61 24.20 107.43 25.16 107.33 25.63 L 108.88 25.63 C 108.70 26.11 108.36 27.07 108.18 27.55 L 109.28 27.49 C 110.30 31.27 111.69 35.03 111.59 39.01 C 111.46 46.31 112.30 53.77 110.27 60.89 L 109.52 60.07 C 109.53 60.93 109.55 62.65 109.56 63.51 L 108.21 63.43 C 108.37 63.92 108.69 64.91 108.85 65.40 L 107.35 65.35 C 107.43 65.84 107.61 66.81 107.70 67.29 L 106.87 67.43 C 106.01 68.87 105.06 70.24 104.17 71.64 L 103.03 71.28 L 104.07 72.72 L 102.25 72.05 L 102.95 73.63 L 101.32 73.34 L 101.53 75.10 L 100.24 74.02 L 100.57 75.20 C 99.20 76.07 97.85 76.98 96.46 77.82 L 96.27 78.72 C 95.79 78.62 94.83 78.41 94.34 78.31 L 94.43 79.85 C 93.92 79.69 92.90 79.38 92.39 79.22 L 92.52 80.57 C 91.66 80.56 89.94 80.53 89.08 80.52 L 89.82 81.54 C 88.06 81.57 86.31 81.59 84.56 81.61 L 84.66 82.52 C 66.30 82.53 47.91 82.94 29.55 82.30 L 29.75 81.78 C 27.61 81.50 25.55 80.88 23.48 80.33 L 23.66 79.89 C 22.96 79.53 21.57 78.81 20.88 78.45 L 19.87 78.83 C 19.78 78.58 19.60 78.08 19.52 77.83 C 18.11 77.00 16.77 76.08 15.40 75.21 L 15.85 74.34 L 14.48 74.78 L 14.37 73.90 C 13.35 73.32 12.59 72.50 12.09 71.43 L 11.78 71.57 C 10.91 70.21 10.00 68.89 9.18 67.51 C 8.94 67.42 8.46 67.24 8.22 67.15 L 8.79 65.47 L 7.17 65.36 C 7.32 64.88 7.62 63.92 7.77 63.44 L 6.72 63.49 C 3.55 55.32 4.44 46.51 4.44 37.95 C 4.51 34.35 5.79 30.94 6.71 27.51 L 7.81 27.54 C 7.64 27.06 7.30 26.11 7.12 25.63 L 8.67 25.63 C 8.58 25.15 8.39 24.21 8.29 23.73 L 9.15 23.54 C 9.98 22.14 10.90 20.79 11.77 19.42 L 12.09 19.61 C 12.62 18.53 13.41 17.69 14.46 17.09 L 14.39 16.16 L 15.84 16.72 L 15.38 15.80 C 16.77 14.92 18.12 13.99 19.54 13.15 L 19.71 12.30 C 20.19 12.39 21.15 12.57 21.63 12.66 L 21.63 11.13 C 22.11 11.30 23.07 11.64 23.55 11.82 L 23.47 10.74 M 26.10 10.80 L 26.65 11.87 C 26.23 11.74 25.39 11.48 24.98 11.35 C 23.24 12.40 21.47 13.39 19.79 14.52 L 18.26 14.22 L 18.73 15.13 C 17.03 16.27 15.43 17.56 13.86 18.87 C 12.97 20.14 12.05 21.40 11.18 22.68 L 10.20 22.32 C 10.33 22.83 10.59 23.85 10.71 24.36 L 9.82 24.31 C 9.06 25.91 8.27 27.50 7.42 29.06 C 7.51 29.45 7.69 30.25 7.79 30.64 L 6.81 30.08 C 6.61 31.68 6.33 33.27 5.67 34.75 C 5.57 41.92 5.56 49.09 5.68 56.26 C 6.34 57.74 6.60 59.34 6.80 60.94 L 7.18 60.28 C 7.78 62.50 8.76 64.60 9.72 66.68 L 10.71 66.67 C 10.58 67.18 10.31 68.22 10.18 68.74 L 11.20 68.20 C 12.05 69.54 12.94 70.85 13.79 72.19 C 15.45 73.39 17.05 74.67 18.71 75.88 L 18.26 76.79 L 19.77 76.49 C 21.47 77.61 23.24 78.62 25.00 79.66 C 25.41 79.52 26.23 79.26 26.65 79.13 L 26.09 80.20 C 27.68 80.39 29.28 80.65 30.75 81.32 C 48.47 81.45 66.19 81.41 83.92 81.34 C 86.33 80.66 88.77 80.07 91.19 79.41 C 93.90 78.11 96.50 76.61 98.96 74.88 C 100.90 73.05 102.78 71.15 104.64 69.23 L 104.26 68.11 L 105.22 68.76 C 105.47 68.13 105.97 66.85 106.23 66.21 C 107.97 63.53 109.06 60.50 109.69 57.38 L 110.46 57.64 C 110.26 50.00 110.51 42.37 110.32 34.74 C 109.66 33.26 109.39 31.65 109.20 30.06 L 108.29 30.74 C 108.35 30.31 108.49 29.44 108.56 29.00 C 107.72 27.50 106.95 25.95 106.22 24.39 L 105.29 24.30 C 105.42 23.80 105.69 22.80 105.83 22.30 L 104.93 22.68 C 103.09 19.92 100.63 17.66 98.24 15.38 L 97.14 15.64 L 97.69 14.20 C 97.18 14.33 96.16 14.58 95.64 14.71 L 95.69 13.73 C 93.60 12.78 91.53 11.73 89.28 11.23 L 89.90 10.82 C 88.34 10.65 86.84 10.28 85.39 9.69 C 67.18 9.55 48.96 9.57 30.75 9.68 C 29.28 10.34 27.68 10.60 26.10 10.80 Z" />
<path fill="#f5f9f7" opacity="1.00" d=" M 37.57 33.73 C 53.18 33.53 68.81 33.54 84.42 33.72 C 84.43 36.34 84.44 39.37 82.19 41.17 C 75.63 47.67 69.97 55.02 63.17 61.28 C 61.82 62.64 59.41 62.25 58.27 60.80 C 53.73 56.32 49.36 51.65 45.23 46.78 C 41.85 42.97 36.48 39.64 37.57 33.73 M 42.08 37.67 C 48.56 44.40 54.85 51.32 61.00 58.34 C 67.15 51.31 73.45 44.40 79.94 37.68 C 67.33 37.83 54.70 37.85 42.08 37.67 Z" />
</g>
</svg>
