<?xml version="1.0" encoding="UTF-8" ?>
<!DOCTYPE svg PUBLIC "-//W3C//DTD SVG 1.1//EN" "http://www.w3.org/Graphics/SVG/1.1/DTD/svg11.dtd">
<svg width="117px" height="140px" viewBox="0 0 117 140" version="1.1" xmlns="http://www.w3.org/2000/svg">
<g id="#000000ff">
<path fill="#000000" opacity="1.00" d=" M 0.00 0.00 L 117.00 0.00 L 117.00 140.00 L 0.00 140.00 L 0.00 0.00 M 32.40 10.54 C 17.63 12.08 5.17 25.06 4.43 39.91 C 4.34 58.95 4.44 77.98 4.38 97.01 C 4.08 104.93 7.02 112.89 12.25 118.84 C 18.33 125.86 27.67 129.94 36.95 129.62 C 51.93 129.56 66.91 129.67 81.89 129.57 C 97.33 128.95 110.84 115.51 111.56 100.08 C 111.67 81.05 111.56 62.02 111.62 42.98 C 111.90 35.30 109.16 27.56 104.20 21.70 C 98.15 14.34 88.56 10.07 79.05 10.38 C 63.50 10.51 47.94 10.19 32.40 10.54 Z" />
<path fill="#000000" opacity="1.00" d=" M 32.21 11.62 C 49.11 11.57 66.02 11.64 82.92 11.59 C 96.95 12.87 109.06 24.87 110.40 38.91 C 110.39 59.64 110.39 80.37 110.40 101.09 C 109.07 115.11 96.95 127.14 82.92 128.41 C 66.30 128.39 49.69 128.38 33.08 128.41 C 17.71 127.07 4.51 112.56 5.59 97.01 C 5.62 77.70 5.61 58.39 5.59 39.08 C 6.83 25.22 18.48 13.46 32.21 11.62 M 46.58 41.99 C 46.58 50.66 46.58 59.34 46.58 68.01 C 49.53 67.99 52.47 67.99 55.42 68.01 C 55.42 59.34 55.42 50.66 55.42 41.99 C 52.47 42.01 49.53 42.01 46.58 41.99 M 61.20 43.14 C 61.17 45.02 61.16 46.90 61.17 48.78 C 60.44 48.95 58.99 49.31 58.27 49.48 C 58.32 50.77 58.35 52.06 58.36 53.35 C 59.07 53.48 60.48 53.76 61.19 53.90 C 61.24 57.80 60.89 61.73 61.40 65.60 C 63.28 69.64 68.91 67.42 72.43 67.99 C 72.42 66.30 72.42 64.61 72.40 62.92 C 71.19 62.64 69.98 62.35 68.78 62.06 C 68.83 59.78 68.79 57.49 68.84 55.21 C 68.54 53.14 71.25 53.74 72.45 53.31 C 72.42 51.95 72.40 50.60 72.38 49.24 C 71.49 49.16 69.71 49.01 68.82 48.93 C 68.84 47.00 68.83 45.07 68.81 43.14 C 66.27 43.18 63.73 43.18 61.20 43.14 Z" />
</g>
<g id="#f7fbf8ff">
<path fill="#f7fbf8" opacity="1.00" d=" M 32.40 10.54 C 47.94 10.19 63.50 10.51 79.05 10.38 C 88.56 10.07 98.15 14.34 104.20 21.70 C 109.16 27.56 111.90 35.30 111.62 42.98 C 111.56 62.02 111.67 81.05 111.56 100.08 C 110.84 115.51 97.33 128.95 81.89 129.57 C 66.91 129.67 51.93 129.56 36.95 129.62 C 27.67 129.94 18.33 125.86 12.25 118.84 C 7.02 112.89 4.08 104.93 4.38 97.01 C 4.44 77.98 4.34 58.95 4.43 39.91 C 5.17 25.06 17.63 12.08 32.40 10.54 M 32.21 11.62 C 18.48 13.46 6.83 25.22 5.59 39.08 C 5.61 58.39 5.62 77.70 5.59 97.01 C 4.51 112.56 17.71 127.07 33.08 128.41 C 49.69 128.38 66.30 128.39 82.92 128.41 C 96.95 127.14 109.07 115.11 110.40 101.09 C 110.39 80.37 110.39 59.64 110.40 38.91 C 109.06 24.87 96.95 12.87 82.92 11.59 C 66.02 11.64 49.11 11.57 32.21 11.62 Z" />
<path fill="#f7fbf8" opacity="1.00" d=" M 46.58 41.99 C 49.53 42.01 52.47 42.01 55.42 41.99 C 55.42 50.66 55.42 59.34 55.42 68.01 C 52.47 67.99 49.53 67.99 46.58 68.01 C 46.58 59.34 46.58 50.66 46.58 41.99 Z" />
<path fill="#f7fbf8" opacity="1.00" d=" M 61.20 43.14 C 63.73 43.18 66.27 43.18 68.81 43.14 C 68.83 45.07 68.84 47.00 68.82 48.93 C 69.71 49.01 71.49 49.16 72.38 49.24 C 72.40 50.60 72.42 51.95 72.45 53.31 C 71.25 53.74 68.54 53.14 68.84 55.21 C 68.79 57.49 68.83 59.78 68.78 62.06 C 69.98 62.35 71.19 62.64 72.40 62.92 C 72.42 64.61 72.42 66.30 72.43 67.99 C 68.91 67.42 63.28 69.64 61.40 65.60 C 60.89 61.73 61.24 57.80 61.19 53.90 C 60.48 53.76 59.07 53.48 58.36 53.35 C 58.35 52.06 58.32 50.77 58.27 49.48 C 58.99 49.31 60.44 48.95 61.17 48.78 C 61.16 46.90 61.17 45.02 61.20 43.14 Z" />
</g>
</svg>
