<?xml version="1.0" encoding="UTF-8" ?>
<!DOCTYPE svg PUBLIC "-//W3C//DTD SVG 1.1//EN" "http://www.w3.org/Graphics/SVG/1.1/DTD/svg11.dtd">
<svg width="117px" height="140px" viewBox="0 0 117 140" version="1.1" xmlns="http://www.w3.org/2000/svg">
<g id="#000000ff">
<path fill="#000000" opacity="1.00" d=" M 0.00 0.00 L 117.00 0.00 L 117.00 140.00 L 0.00 140.00 L 0.00 0.00 M 27.22 11.59 L 27.98 12.42 C 27.10 12.44 25.32 12.48 24.43 12.50 L 24.60 13.80 C 24.11 13.64 23.13 13.31 22.64 13.15 L 22.66 14.28 C 20.15 14.53 18.48 16.61 16.46 17.88 L 16.57 18.24 C 13.17 19.13 12.28 22.83 10.14 25.16 C 9.92 25.79 9.47 27.04 9.24 27.67 L 8.18 27.61 C 8.32 28.10 8.61 29.08 8.75 29.57 L 7.67 29.49 C 7.11 31.56 6.53 33.63 6.07 35.73 C 5.34 38.08 5.40 40.56 5.38 43.00 C 5.42 61.67 5.36 80.33 5.40 99.00 C 5.27 102.99 6.72 106.74 7.72 110.54 L 8.74 110.38 C 8.60 110.89 8.34 111.89 8.21 112.39 L 9.67 112.40 C 9.58 112.88 9.40 113.84 9.31 114.32 L 10.16 114.41 C 10.97 115.85 11.92 117.21 12.83 118.58 L 13.85 118.35 L 13.16 119.76 L 14.73 119.14 L 14.11 120.63 L 15.75 120.40 L 15.25 121.84 L 16.65 121.11 L 16.42 122.12 C 18.48 123.32 20.13 125.51 22.67 125.70 L 22.62 126.84 C 23.11 126.68 24.09 126.38 24.58 126.23 L 24.47 127.32 C 26.35 127.82 28.21 128.40 30.13 128.79 C 34.30 130.03 38.70 129.51 42.99 129.61 C 57.50 129.51 72.01 129.82 86.51 129.43 L 86.48 128.69 C 88.91 128.71 91.22 128.01 93.52 127.30 L 93.41 126.26 C 93.91 126.39 94.92 126.66 95.42 126.80 L 95.38 125.33 C 95.85 125.42 96.80 125.61 97.27 125.70 L 97.47 124.83 C 98.41 124.26 99.35 123.65 100.26 123.03 C 102.29 122.07 104.15 120.65 104.77 118.38 L 105.18 118.60 C 106.09 117.22 107.04 115.86 107.83 114.40 L 108.68 114.35 C 108.60 113.85 108.43 112.87 108.34 112.38 L 109.83 112.39 C 109.68 111.90 109.38 110.92 109.24 110.43 L 110.33 110.50 C 110.84 108.58 111.41 106.68 111.85 104.74 C 112.70 101.91 112.59 98.92 112.62 96.00 C 112.58 77.66 112.64 59.32 112.59 40.99 C 112.65 38.03 111.70 35.20 111.37 32.29 L 110.44 32.74 C 110.48 31.93 110.56 30.29 110.59 29.48 L 109.24 29.61 C 109.39 29.11 109.67 28.11 109.81 27.61 L 108.68 27.66 C 108.52 25.13 106.36 23.48 105.12 21.44 L 104.35 21.71 L 104.66 20.28 L 103.22 20.62 L 103.75 19.07 L 102.45 19.87 L 102.61 18.33 L 101.22 18.63 L 101.57 17.87 C 100.28 17.00 99.03 16.07 97.83 15.08 C 97.21 14.88 95.96 14.48 95.34 14.27 L 95.39 13.19 C 94.89 13.33 93.88 13.62 93.38 13.76 L 93.55 12.43 C 92.73 12.46 91.08 12.52 90.26 12.54 L 90.68 11.63 C 87.77 11.30 84.95 10.36 82.00 10.40 C 66.66 10.38 51.31 10.38 35.97 10.40 C 33.00 10.36 30.16 11.39 27.22 11.59 Z" />
<path fill="#000000" opacity="1.00" d=" M 21.34 15.71 C 25.04 14.06 28.80 12.31 32.82 11.65 C 50.28 11.58 67.75 11.58 85.22 11.64 C 89.22 12.35 93.00 14.05 96.69 15.72 L 96.56 16.64 C 97.10 16.55 98.17 16.37 98.71 16.28 L 98.18 17.74 L 99.53 17.23 L 99.56 18.11 C 102.00 19.56 103.62 21.94 105.69 23.82 L 105.28 24.82 L 106.76 24.31 C 106.65 24.82 106.43 25.83 106.32 26.34 L 107.28 26.31 C 107.89 27.86 108.59 29.38 109.38 30.85 C 109.91 32.84 110.51 34.81 111.37 36.69 C 111.43 57.81 111.35 78.92 111.41 100.04 C 111.52 102.72 110.47 105.25 110.27 107.90 L 109.76 107.26 C 109.49 108.67 109.01 110.02 108.37 111.31 C 108.10 111.89 107.54 113.05 107.26 113.63 L 106.35 113.62 C 106.45 114.14 106.64 115.19 106.73 115.71 L 105.27 115.16 L 105.70 116.17 C 103.49 118.48 101.14 120.64 98.79 122.80 C 97.93 123.31 97.07 123.82 96.22 124.33 C 94.77 125.02 93.36 125.77 92.01 126.62 C 91.62 126.52 90.83 126.31 90.43 126.20 L 90.76 127.41 C 89.48 127.47 88.19 127.56 86.92 127.68 C 84.44 128.83 81.65 128.29 79.02 128.40 C 63.12 128.44 47.23 128.27 31.33 128.49 L 31.58 127.52 C 30.11 127.50 28.64 127.48 27.17 127.48 L 27.69 126.66 C 25.41 126.35 23.38 125.19 21.31 124.27 L 21.34 123.32 C 20.83 123.43 19.81 123.65 19.30 123.76 L 19.83 122.27 L 18.48 122.79 L 18.45 121.90 C 16.33 120.50 14.45 118.73 13.13 116.55 L 12.24 116.52 L 12.71 115.18 L 11.26 115.70 C 11.36 115.19 11.56 114.16 11.66 113.64 L 10.73 113.68 C 9.78 111.63 8.71 109.60 8.28 107.36 L 7.53 107.80 C 7.52 107.08 7.49 105.65 7.48 104.93 C 6.08 102.85 6.74 100.26 6.59 97.92 C 6.58 77.40 6.70 56.89 6.53 36.37 L 7.48 36.57 C 7.50 35.12 7.51 33.66 7.51 32.20 L 8.28 32.66 C 8.73 29.54 10.68 26.97 12.12 24.25 C 12.83 23.53 13.55 22.81 14.28 22.11 C 15.40 20.54 16.69 19.07 18.43 18.16 L 18.46 17.22 L 19.81 17.74 L 19.31 16.26 C 19.82 16.36 20.85 16.56 21.37 16.67 L 21.34 15.71 M 47.14 39.40 C 47.55 40.83 48.68 41.66 49.94 42.32 C 51.12 39.44 53.61 37.46 56.16 35.83 L 56.31 35.37 C 56.67 35.06 57.38 34.43 57.73 34.12 L 57.97 34.15 C 58.54 33.53 59.12 32.90 59.69 32.28 C 60.57 33.18 61.44 34.07 62.32 34.97 L 63.03 34.42 L 62.83 35.14 C 65.39 37.20 67.97 39.33 69.84 42.07 C 71.01 41.61 71.95 40.75 72.94 39.99 C 71.39 38.89 69.85 37.77 68.43 36.49 C 68.51 34.05 68.54 31.62 68.53 29.18 C 67.15 29.12 65.77 29.07 64.39 29.06 C 64.39 30.09 64.37 32.16 64.37 33.20 C 62.59 32.06 61.57 28.94 59.26 29.07 C 55.38 32.69 51.60 36.47 47.14 39.40 M 57.11 36.11 C 56.85 36.35 56.33 36.82 56.06 37.06 C 54.33 38.79 52.02 39.98 50.68 42.07 C 50.30 44.48 50.54 46.93 50.52 49.36 C 52.86 49.39 55.20 49.50 57.53 49.28 C 58.17 47.44 58.04 45.46 58.21 43.55 C 59.34 43.58 60.47 43.61 61.60 43.65 C 61.61 45.56 61.61 47.47 61.63 49.37 C 63.89 49.39 66.16 49.39 68.42 49.38 C 68.52 46.84 68.53 44.30 68.53 41.77 C 65.67 39.16 62.72 36.64 59.88 34.01 C 58.95 34.71 58.03 35.41 57.11 36.11 M 33.83 52.97 C 37.41 56.03 40.99 59.10 44.68 62.04 C 43.85 59.37 42.96 56.71 42.14 54.04 C 46.40 53.14 50.73 54.24 55.03 53.66 C 62.30 54.11 69.62 53.30 76.86 54.02 C 76.03 56.70 75.14 59.36 74.34 62.04 C 78.01 59.11 81.57 56.03 85.17 52.99 C 84.72 52.60 83.82 51.81 83.37 51.42 C 80.30 48.98 77.39 46.34 74.30 43.92 C 75.14 46.61 76.03 49.28 76.88 51.97 C 75.01 52.19 73.13 52.56 71.25 52.28 C 61.55 51.94 51.79 52.68 42.12 51.97 C 42.96 49.30 43.85 46.64 44.66 43.96 C 40.99 46.88 37.44 49.97 33.83 52.97 M 49.20 56.70 C 51.59 59.82 53.94 62.97 56.45 66.00 C 53.88 69.09 51.18 72.08 48.90 75.40 C 50.02 75.44 52.24 75.52 53.35 75.57 C 55.23 73.08 57.16 70.65 59.03 68.17 C 60.94 70.62 62.88 73.06 64.73 75.56 C 65.85 75.52 68.10 75.43 69.22 75.38 C 66.92 72.08 64.21 69.10 61.58 66.06 C 64.07 63.01 66.40 59.83 68.76 56.68 C 66.21 56.58 63.41 56.36 62.30 59.19 L 62.34 59.06 C 61.28 60.76 60.16 62.44 59.03 64.09 C 57.61 62.02 56.27 59.89 54.74 57.90 C 53.58 55.96 51.00 57.01 49.20 56.70 Z" />
</g>
<g id="#f6faf7ff">
<path fill="#f6faf7" opacity="1.00" d=" M 27.22 11.59 C 30.16 11.39 33.00 10.36 35.97 10.40 C 51.31 10.38 66.66 10.38 82.00 10.40 C 84.95 10.36 87.77 11.30 90.68 11.63 L 90.26 12.54 C 91.08 12.52 92.73 12.46 93.55 12.43 L 93.38 13.76 C 93.88 13.62 94.89 13.33 95.39 13.19 L 95.34 14.27 C 95.96 14.48 97.21 14.88 97.83 15.08 C 99.03 16.07 100.28 17.00 101.57 17.87 L 101.22 18.63 L 102.61 18.33 L 102.45 19.87 L 103.75 19.07 L 103.22 20.62 L 104.66 20.28 L 104.35 21.71 L 105.12 21.44 C 106.36 23.48 108.52 25.13 108.68 27.66 L 109.81 27.61 C 109.67 28.11 109.39 29.11 109.24 29.61 L 110.59 29.48 C 110.56 30.29 110.48 31.93 110.44 32.74 L 111.37 32.29 C 111.70 35.20 112.65 38.03 112.59 40.99 C 112.64 59.32 112.58 77.66 112.62 96.00 C 112.59 98.92 112.70 101.91 111.85 104.74 C 111.41 106.68 110.84 108.58 110.33 110.50 L 109.24 110.43 C 109.38 110.92 109.68 111.90 109.83 112.39 L 108.34 112.38 C 108.43 112.87 108.60 113.85 108.68 114.35 L 107.83 114.40 C 107.04 115.86 106.09 117.22 105.18 118.60 L 104.77 118.38 C 104.15 120.65 102.29 122.07 100.26 123.03 C 99.35 123.65 98.41 124.26 97.47 124.83 L 97.27 125.70 C 96.80 125.61 95.85 125.42 95.38 125.33 L 95.42 126.80 C 94.92 126.66 93.91 126.39 93.41 126.26 L 93.52 127.30 C 91.22 128.01 88.91 128.71 86.48 128.69 L 86.51 129.43 C 72.01 129.82 57.50 129.51 42.99 129.61 C 38.70 129.51 34.30 130.03 30.13 128.79 C 28.21 128.40 26.35 127.82 24.47 127.32 L 24.58 126.23 C 24.09 126.38 23.11 126.68 22.62 126.84 L 22.67 125.70 C 20.13 125.51 18.48 123.32 16.42 122.12 L 16.65 121.11 L 15.25 121.84 L 15.75 120.40 L 14.11 120.63 L 14.73 119.14 L 13.16 119.76 L 13.85 118.35 L 12.83 118.58 C 11.92 117.21 10.97 115.85 10.16 114.41 L 9.31 114.32 C 9.40 113.84 9.58 112.88 9.67 112.40 L 8.21 112.39 C 8.34 111.89 8.60 110.89 8.74 110.38 L 7.72 110.54 C 6.72 106.74 5.27 102.99 5.40 99.00 C 5.36 80.33 5.42 61.67 5.38 43.00 C 5.40 40.56 5.34 38.08 6.07 35.73 C 6.53 33.63 7.11 31.56 7.67 29.49 L 8.75 29.57 C 8.61 29.08 8.32 28.10 8.18 27.61 L 9.24 27.67 C 9.47 27.04 9.92 25.79 10.14 25.16 C 12.28 22.83 13.17 19.13 16.57 18.24 L 16.46 17.88 C 18.48 16.61 20.15 14.53 22.66 14.28 L 22.64 13.15 C 23.13 13.31 24.11 13.64 24.60 13.80 L 24.43 12.50 C 25.32 12.48 27.10 12.44 27.98 12.42 L 27.22 11.59 M 21.34 15.71 L 21.37 16.67 C 20.85 16.56 19.82 16.36 19.31 16.26 L 19.81 17.74 L 18.46 17.22 L 18.43 18.16 C 16.69 19.07 15.40 20.54 14.28 22.11 C 13.55 22.81 12.83 23.53 12.12 24.25 C 10.68 26.97 8.73 29.54 8.28 32.66 L 7.51 32.20 C 7.51 33.66 7.50 35.12 7.48 36.57 L 6.53 36.37 C 6.70 56.89 6.58 77.40 6.59 97.92 C 6.74 100.26 6.08 102.85 7.48 104.93 C 7.49 105.65 7.52 107.08 7.53 107.80 L 8.28 107.36 C 8.71 109.60 9.78 111.63 10.73 113.68 L 11.66 113.64 C 11.56 114.16 11.36 115.19 11.26 115.70 L 12.71 115.18 L 12.24 116.52 L 13.13 116.55 C 14.45 118.73 16.33 120.50 18.45 121.90 L 18.48 122.79 L 19.83 122.27 L 19.30 123.76 C 19.81 123.65 20.83 123.43 21.34 123.32 L 21.31 124.27 C 23.38 125.19 25.41 126.35 27.69 126.66 L 27.17 127.48 C 28.64 127.48 30.11 127.50 31.58 127.52 L 31.33 128.49 C 47.23 128.27 63.12 128.44 79.02 128.40 C 81.65 128.29 84.44 128.83 86.92 127.68 C 88.19 127.56 89.48 127.47 90.76 127.41 L 90.43 126.20 C 90.83 126.31 91.62 126.52 92.01 126.62 C 93.36 125.77 94.77 125.02 96.22 124.33 C 97.07 123.82 97.93 123.31 98.79 122.80 C 101.14 120.64 103.49 118.48 105.70 116.17 L 105.27 115.16 L 106.73 115.71 C 106.64 115.19 106.45 114.14 106.35 113.62 L 107.26 113.63 C 107.54 113.05 108.10 111.89 108.37 111.31 C 109.01 110.02 109.49 108.67 109.76 107.26 L 110.27 107.90 C 110.47 105.25 111.52 102.72 111.41 100.04 C 111.35 78.92 111.43 57.81 111.37 36.69 C 110.51 34.81 109.91 32.84 109.38 30.85 C 108.59 29.38 107.89 27.86 107.28 26.31 L 106.32 26.34 C 106.43 25.83 106.65 24.82 106.76 24.31 L 105.28 24.82 L 105.69 23.82 C 103.62 21.94 102.00 19.56 99.56 18.11 L 99.53 17.23 L 98.18 17.74 L 98.71 16.28 C 98.17 16.37 97.10 16.55 96.56 16.64 L 96.69 15.72 C 93.00 14.05 89.22 12.35 85.22 11.64 C 67.75 11.58 50.28 11.58 32.82 11.65 C 28.80 12.31 25.04 14.06 21.34 15.71 Z" />
<path fill="#f6faf7" opacity="1.00" d=" M 47.14 39.40 C 51.60 36.47 55.38 32.69 59.26 29.07 C 61.57 28.94 62.59 32.06 64.37 33.20 C 64.37 32.16 64.39 30.09 64.39 29.06 C 65.77 29.07 67.15 29.12 68.53 29.18 C 68.54 31.62 68.51 34.05 68.43 36.49 C 69.85 37.77 71.39 38.89 72.94 39.99 C 71.95 40.75 71.01 41.61 69.84 42.07 C 67.97 39.33 65.39 37.20 62.83 35.14 L 63.03 34.42 L 62.32 34.97 C 61.44 34.07 60.57 33.18 59.69 32.28 C 59.12 32.90 58.54 33.53 57.97 34.15 L 57.73 34.12 C 57.38 34.43 56.67 35.06 56.31 35.37 L 56.16 35.83 C 53.61 37.46 51.12 39.44 49.94 42.32 C 48.68 41.66 47.55 40.83 47.14 39.40 Z" />
<path fill="#f6faf7" opacity="1.00" d=" M 57.11 36.11 C 58.03 35.41 58.95 34.71 59.88 34.01 C 62.72 36.64 65.67 39.16 68.53 41.77 C 68.53 44.30 68.52 46.84 68.42 49.38 C 66.16 49.39 63.89 49.39 61.63 49.37 C 61.61 47.47 61.61 45.56 61.60 43.65 C 60.47 43.61 59.34 43.58 58.21 43.55 C 58.04 45.46 58.17 47.44 57.53 49.28 C 55.20 49.50 52.86 49.39 50.52 49.36 C 50.54 46.93 50.30 44.48 50.68 42.07 C 52.02 39.98 54.33 38.79 56.06 37.06 C 56.33 36.82 56.85 36.35 57.11 36.11 Z" />
<path fill="#f6faf7" opacity="1.00" d=" M 33.83 52.97 C 37.44 49.97 40.99 46.88 44.66 43.96 C 43.85 46.64 42.96 49.30 42.12 51.97 C 51.79 52.68 61.55 51.94 71.25 52.28 C 73.13 52.56 75.01 52.19 76.88 51.97 C 76.03 49.28 75.14 46.61 74.30 43.92 C 77.39 46.34 80.30 48.98 83.37 51.42 C 83.82 51.81 84.72 52.60 85.17 52.99 C 81.57 56.03 78.01 59.11 74.34 62.04 C 75.14 59.36 76.03 56.70 76.86 54.02 C 69.62 53.30 62.30 54.11 55.03 53.66 C 50.73 54.24 46.40 53.14 42.14 54.04 C 42.96 56.71 43.85 59.37 44.68 62.04 C 40.99 59.10 37.41 56.03 33.83 52.97 Z" />
<path fill="#f6faf7" opacity="1.00" d=" M 49.20 56.70 C 51.00 57.01 53.58 55.96 54.74 57.90 C 56.27 59.89 57.61 62.02 59.03 64.09 C 60.16 62.44 61.28 60.76 62.34 59.06 L 62.30 59.19 C 63.41 56.36 66.21 56.58 68.76 56.68 C 66.40 59.83 64.07 63.01 61.58 66.06 C 64.21 69.10 66.92 72.08 69.22 75.38 C 68.10 75.43 65.85 75.52 64.73 75.56 C 62.88 73.06 60.94 70.62 59.03 68.17 C 57.16 70.65 55.23 73.08 53.35 75.57 C 52.24 75.52 50.02 75.44 48.90 75.40 C 51.18 72.08 53.88 69.09 56.45 66.00 C 53.94 62.97 51.59 59.82 49.20 56.70 Z" />
</g>
</svg>
