<?xml version="1.0" encoding="UTF-8" ?>
<!DOCTYPE svg PUBLIC "-//W3C//DTD SVG 1.1//EN" "http://www.w3.org/Graphics/SVG/1.1/DTD/svg11.dtd">
<svg width="117px" height="140px" viewBox="0 0 117 140" version="1.1" xmlns="http://www.w3.org/2000/svg">
<g id="#000000ff">
<path fill="#000000" opacity="1.00" d=" M 0.00 0.00 L 117.00 0.00 L 117.00 140.00 L 0.00 140.00 L 0.00 0.00 M 29.55 10.78 C 15.49 13.47 4.26 26.64 4.20 41.02 C 4.19 60.68 4.11 80.36 4.24 100.02 C 4.78 115.89 19.04 129.73 34.93 129.80 C 50.64 129.80 66.35 129.91 82.06 129.75 C 97.92 129.20 111.77 114.92 111.79 99.04 C 111.84 79.68 111.84 60.31 111.79 40.95 C 111.77 25.04 97.86 10.77 81.97 10.25 C 68.32 10.08 54.66 10.23 41.01 10.17 C 37.19 10.19 33.32 10.01 29.55 10.78 Z" />
<path fill="#000000" opacity="1.00" d=" M 29.40 12.59 C 34.17 11.39 39.11 11.92 43.96 11.82 C 56.68 11.89 69.40 11.69 82.11 11.91 C 96.71 12.69 109.35 25.37 110.13 39.96 C 110.26 59.30 110.12 78.64 110.20 97.98 C 110.24 108.55 104.26 118.94 95.02 124.11 C 90.19 126.93 84.57 128.31 78.99 128.20 C 64.67 128.16 50.34 128.17 36.02 128.20 C 26.22 128.17 16.47 123.12 11.07 114.89 C 7.67 109.97 5.83 104.03 5.80 98.06 C 5.85 79.01 5.80 59.97 5.82 40.93 C 6.17 27.59 16.33 15.32 29.40 12.59 M 41.61 42.00 C 41.60 50.67 41.60 59.33 41.61 68.00 C 44.41 68.00 47.20 68.00 50.00 68.00 C 50.00 64.94 50.00 61.88 50.01 58.82 C 53.21 58.81 56.42 58.81 59.63 58.83 C 59.61 56.75 59.59 54.67 59.57 52.60 C 56.39 52.60 53.20 52.60 50.02 52.63 C 50.24 51.31 49.48 49.46 50.38 48.45 C 54.18 48.23 58.00 48.50 61.81 48.38 C 61.81 46.25 61.81 44.13 61.82 42.01 C 55.08 41.99 48.35 42.00 41.61 42.00 M 64.63 49.19 C 64.58 55.46 64.61 61.73 64.61 68.00 C 67.30 68.04 69.99 68.01 72.67 67.89 C 72.62 64.91 72.42 61.92 72.74 58.95 C 73.33 56.36 76.30 55.51 78.60 56.26 C 78.65 53.57 78.63 50.89 78.42 48.21 C 75.71 48.27 73.46 49.65 71.86 51.77 C 71.82 51.12 71.75 49.81 71.72 49.16 C 69.35 49.18 66.99 49.19 64.63 49.19 Z" />
</g>
<g id="#11eb51ff">
<path fill="#11eb51" opacity="1.00" d=" M 29.55 10.78 C 33.32 10.01 37.19 10.19 41.01 10.17 C 54.66 10.23 68.32 10.08 81.97 10.25 C 97.86 10.77 111.77 25.04 111.79 40.95 C 111.84 60.31 111.84 79.68 111.79 99.04 C 111.77 114.92 97.92 129.20 82.06 129.75 C 66.35 129.91 50.64 129.80 34.93 129.80 C 19.04 129.73 4.78 115.89 4.24 100.02 C 4.11 80.36 4.19 60.68 4.20 41.02 C 4.26 26.64 15.49 13.47 29.55 10.78 M 29.40 12.59 C 16.33 15.32 6.17 27.59 5.82 40.93 C 5.80 59.97 5.85 79.01 5.80 98.06 C 5.83 104.03 7.67 109.97 11.07 114.89 C 16.47 123.12 26.22 128.17 36.02 128.20 C 50.34 128.17 64.67 128.16 78.99 128.20 C 84.57 128.31 90.19 126.93 95.02 124.11 C 104.26 118.94 110.24 108.55 110.20 97.98 C 110.12 78.64 110.26 59.30 110.13 39.96 C 109.35 25.37 96.71 12.69 82.11 11.91 C 69.40 11.69 56.68 11.89 43.96 11.82 C 39.11 11.92 34.17 11.39 29.40 12.59 Z" />
<path fill="#11eb51" opacity="1.00" d=" M 41.61 42.00 C 48.35 42.00 55.08 41.99 61.82 42.01 C 61.81 44.13 61.81 46.25 61.81 48.38 C 58.00 48.50 54.18 48.23 50.38 48.45 C 49.48 49.46 50.24 51.31 50.02 52.63 C 53.20 52.60 56.39 52.60 59.57 52.60 C 59.59 54.67 59.61 56.75 59.63 58.83 C 56.42 58.81 53.21 58.81 50.01 58.82 C 50.00 61.88 50.00 64.94 50.00 68.00 C 47.20 68.00 44.41 68.00 41.61 68.00 C 41.60 59.33 41.60 50.67 41.61 42.00 Z" />
<path fill="#11eb51" opacity="1.00" d=" M 64.63 49.19 C 66.99 49.19 69.35 49.18 71.72 49.16 C 71.75 49.81 71.82 51.12 71.86 51.77 C 73.46 49.65 75.71 48.27 78.42 48.21 C 78.63 50.89 78.65 53.57 78.60 56.26 C 76.30 55.51 73.33 56.36 72.74 58.95 C 72.42 61.92 72.62 64.91 72.67 67.89 C 69.99 68.01 67.30 68.04 64.61 68.00 C 64.61 61.73 64.58 55.46 64.63 49.19 Z" />
</g>
</svg>
