<?xml version="1.0" encoding="UTF-8" ?>
<!DOCTYPE svg PUBLIC "-//W3C//DTD SVG 1.1//EN" "http://www.w3.org/Graphics/SVG/1.1/DTD/svg11.dtd">
<svg width="150px" height="80px" viewBox="0 0 150 80" version="1.1" xmlns="http://www.w3.org/2000/svg">
<g id="#000000ff">
<path fill="#000000" opacity="1.00" d=" M 0.00 0.00 L 150.00 0.00 L 150.00 80.00 L 0.00 80.00 L 0.00 0.00 M 6.42 5.61 C 3.38 6.61 1.06 9.70 1.35 12.97 C 1.34 28.98 1.39 44.98 1.35 60.99 C 1.38 63.85 1.12 66.75 1.62 69.59 C 2.62 72.62 5.70 74.95 8.97 74.65 C 50.64 74.64 92.32 74.63 133.99 74.65 C 137.18 74.60 140.42 74.91 143.58 74.38 C 146.63 73.40 148.94 70.29 148.65 67.03 C 148.64 49.01 148.64 30.99 148.65 12.97 C 148.81 10.67 147.83 8.44 146.02 7.01 C 143.62 4.69 140.02 5.48 137.01 5.33 C 97.01 5.41 57.01 5.33 17.00 5.36 C 13.48 5.43 9.91 5.06 6.42 5.61 Z" />
<path fill="#000000" opacity="1.00" d=" M 7.23 7.03 C 10.09 6.30 13.09 6.70 16.01 6.62 C 57.36 6.66 98.71 6.63 140.06 6.64 C 143.72 6.38 147.26 9.20 147.30 12.98 C 147.47 30.33 147.27 47.70 147.39 65.05 C 147.47 67.52 146.96 70.33 144.87 71.91 C 142.01 74.01 138.29 73.26 134.99 73.39 C 93.31 73.33 51.63 73.38 9.94 73.36 C 5.85 73.72 2.29 70.14 2.64 66.06 C 2.64 48.69 2.64 31.31 2.64 13.94 C 2.53 10.98 4.19 7.79 7.23 7.03 M 44.02 28.96 C 44.08 36.61 43.75 44.27 44.23 51.91 C 46.01 51.88 47.79 51.81 49.57 51.69 C 49.86 44.17 49.55 36.64 49.77 29.12 C 47.86 29.05 45.94 29.00 44.02 28.96 M 53.22 29.12 C 53.46 36.64 53.14 44.17 53.43 51.70 C 55.21 51.80 56.99 51.88 58.77 51.92 C 59.26 44.28 58.92 36.61 58.98 28.96 C 57.06 29.00 55.14 29.05 53.22 29.12 Z" />
</g>
<g id="#f5faf7ff">
<path fill="#f5faf7" opacity="1.00" d=" M 6.42 5.61 C 9.91 5.06 13.48 5.43 17.00 5.36 C 57.01 5.33 97.01 5.41 137.01 5.33 C 140.02 5.48 143.62 4.69 146.02 7.01 C 147.83 8.44 148.81 10.67 148.65 12.97 C 148.64 30.99 148.64 49.01 148.65 67.03 C 148.94 70.29 146.63 73.40 143.58 74.38 C 140.42 74.91 137.18 74.60 133.99 74.65 C 92.32 74.63 50.64 74.64 8.97 74.65 C 5.70 74.95 2.62 72.62 1.62 69.59 C 1.12 66.75 1.38 63.85 1.35 60.99 C 1.39 44.98 1.34 28.98 1.35 12.97 C 1.06 9.70 3.38 6.61 6.42 5.61 M 7.23 7.03 C 4.19 7.79 2.53 10.98 2.64 13.94 C 2.64 31.31 2.64 48.69 2.64 66.06 C 2.29 70.14 5.85 73.72 9.94 73.36 C 51.63 73.38 93.31 73.33 134.99 73.39 C 138.29 73.26 142.01 74.01 144.87 71.91 C 146.96 70.33 147.47 67.52 147.39 65.05 C 147.27 47.70 147.47 30.33 147.30 12.98 C 147.26 9.20 143.72 6.38 140.06 6.64 C 98.71 6.63 57.36 6.66 16.01 6.62 C 13.09 6.70 10.09 6.30 7.23 7.03 Z" />
<path fill="#f5faf7" opacity="1.00" d=" M 44.02 28.96 C 45.94 29.00 47.86 29.05 49.77 29.12 C 49.55 36.64 49.86 44.17 49.57 51.69 C 47.79 51.81 46.01 51.88 44.23 51.91 C 43.75 44.27 44.08 36.61 44.02 28.96 Z" />
<path fill="#f5faf7" opacity="1.00" d=" M 53.22 29.12 C 55.14 29.05 57.06 29.00 58.98 28.96 C 58.92 36.61 59.26 44.28 58.77 51.92 C 56.99 51.88 55.21 51.80 53.43 51.70 C 53.14 44.17 53.46 36.64 53.22 29.12 Z" />
</g>
</svg>
