<?xml version="1.0" encoding="UTF-8" ?>
<!DOCTYPE svg PUBLIC "-//W3C//DTD SVG 1.1//EN" "http://www.w3.org/Graphics/SVG/1.1/DTD/svg11.dtd">
<svg width="117px" height="140px" viewBox="0 0 117 140" version="1.1" xmlns="http://www.w3.org/2000/svg">
<g id="#000000ff">
<path fill="#000000" opacity="1.00" d=" M 0.00 0.00 L 117.00 0.00 L 117.00 140.00 L 0.00 140.00 L 0.00 0.00 M 31.22 10.92 C 28.95 11.50 26.70 12.13 24.44 12.74 L 24.58 13.80 C 24.10 13.64 23.14 13.33 22.66 13.17 L 22.50 14.81 L 20.85 14.20 C 20.78 14.43 20.64 14.89 20.56 15.12 C 19.14 15.97 17.78 16.91 16.39 17.81 L 16.74 18.21 C 15.78 18.77 14.82 19.33 13.86 19.91 C 13.73 20.42 13.48 21.42 13.36 21.93 L 12.82 21.37 C 11.92 22.76 10.97 24.13 10.12 25.57 C 9.90 25.63 9.45 25.77 9.22 25.84 L 9.77 27.52 L 8.14 27.67 C 8.31 28.15 8.66 29.10 8.83 29.58 L 7.47 29.47 C 7.47 30.33 7.46 32.05 7.46 32.91 L 6.41 32.28 C 6.43 33.79 6.45 35.30 6.48 36.81 C 6.26 36.68 5.81 36.42 5.58 36.29 C 5.27 58.76 5.27 81.25 5.58 103.72 C 5.81 103.58 6.26 103.31 6.48 103.17 C 6.45 104.69 6.43 106.21 6.42 107.73 L 7.47 107.08 C 7.46 107.93 7.44 109.65 7.43 110.50 L 8.80 110.41 C 8.64 110.89 8.32 111.85 8.16 112.33 L 9.81 112.50 L 9.22 114.13 C 9.45 114.22 9.91 114.39 10.14 114.47 C 10.99 115.89 11.92 117.25 12.82 118.64 L 13.12 118.25 C 13.52 118.66 14.32 119.46 14.72 119.87 L 14.02 120.89 L 15.13 120.32 C 15.54 120.71 16.36 121.50 16.77 121.90 L 16.35 122.18 C 17.76 123.09 19.15 124.04 20.60 124.89 L 20.71 125.68 C 21.20 125.60 22.18 125.44 22.67 125.36 L 22.61 126.89 C 23.10 126.71 24.08 126.35 24.57 126.16 L 24.47 127.54 C 25.33 127.53 27.05 127.52 27.91 127.52 L 27.21 128.28 C 30.13 128.72 32.99 129.65 35.97 129.59 C 50.31 129.64 64.64 129.58 78.98 129.62 C 81.58 129.63 84.20 129.57 86.78 129.11 C 89.04 128.51 91.30 127.88 93.56 127.25 L 93.43 126.18 C 93.92 126.35 94.91 126.70 95.40 126.87 L 95.32 125.34 C 95.81 125.43 96.77 125.61 97.26 125.70 L 97.40 124.89 C 98.85 124.04 100.24 123.09 101.66 122.18 L 101.20 121.91 C 101.62 121.51 102.47 120.73 102.89 120.33 L 103.99 120.83 L 103.28 119.86 C 103.69 119.46 104.49 118.65 104.90 118.25 L 105.19 118.62 C 106.09 117.24 107.03 115.88 107.87 114.46 C 108.08 114.39 108.51 114.25 108.73 114.18 L 108.26 112.43 L 109.87 112.35 C 109.69 111.87 109.35 110.91 109.18 110.43 L 110.54 110.53 C 110.54 109.66 110.55 107.92 110.55 107.05 L 111.59 107.74 C 111.57 106.22 111.55 104.70 111.52 103.18 C 111.74 103.32 112.19 103.59 112.42 103.72 C 112.84 83.17 112.50 62.60 112.61 42.04 C 112.77 38.69 111.83 35.46 111.26 32.19 L 110.52 32.93 C 110.53 32.06 110.55 30.34 110.56 29.48 L 109.21 29.59 C 109.37 29.09 109.69 28.09 109.85 27.59 L 108.33 27.66 C 108.42 27.18 108.62 26.22 108.71 25.74 L 107.90 25.61 C 107.05 24.15 106.08 22.76 105.17 21.34 L 104.89 21.80 C 104.50 21.38 103.73 20.53 103.34 20.11 L 103.85 19.04 L 102.87 19.69 C 102.46 19.29 101.64 18.50 101.23 18.11 L 101.63 17.81 C 100.22 16.90 98.84 15.96 97.40 15.11 L 97.27 14.30 C 96.79 14.39 95.84 14.57 95.37 14.65 L 95.36 13.11 C 94.88 13.29 93.92 13.66 93.44 13.84 L 93.54 12.48 C 92.67 12.47 90.92 12.45 90.05 12.44 L 90.75 11.45 C 88.87 11.43 86.99 11.41 85.11 11.42 L 85.85 10.49 C 71.90 10.28 57.95 10.44 44.00 10.39 C 39.74 10.46 35.43 10.10 31.22 10.92 Z" />
<path fill="#000000" opacity="1.00" d=" M 32.13 11.54 C 48.75 11.69 65.37 11.58 81.99 11.60 C 85.65 11.64 89.15 12.88 92.68 13.70 C 92.69 13.95 92.70 14.46 92.70 14.72 L 93.91 14.35 C 94.59 14.72 95.96 15.47 96.65 15.84 L 96.61 16.71 C 97.14 16.60 98.20 16.37 98.72 16.25 L 98.14 17.89 L 99.54 17.10 L 99.55 17.91 C 101.57 19.57 103.42 21.42 105.08 23.44 L 105.88 23.45 L 105.11 24.82 L 106.74 24.29 C 106.63 24.82 106.40 25.86 106.29 26.38 L 107.71 26.44 C 107.64 26.91 107.49 27.86 107.42 28.33 L 108.76 28.51 C 108.66 28.98 108.45 29.93 108.35 30.41 L 109.31 30.27 C 109.84 32.43 110.45 34.57 110.80 36.77 L 111.46 36.06 C 111.30 57.41 111.44 78.77 111.40 100.12 C 111.35 103.41 109.99 106.49 109.30 109.67 C 109.04 109.68 108.52 109.70 108.26 109.71 L 108.85 111.37 C 108.48 111.47 107.74 111.68 107.37 111.79 L 107.78 113.50 L 106.29 113.63 C 106.41 114.15 106.64 115.19 106.76 115.71 L 105.10 115.16 L 105.91 116.56 L 105.09 116.55 C 103.43 118.57 101.58 120.42 99.56 122.09 L 99.57 122.89 L 98.16 122.09 L 98.73 123.71 C 98.20 123.61 97.14 123.42 96.60 123.32 L 96.51 124.80 L 94.77 124.36 C 94.70 124.70 94.56 125.37 94.50 125.71 C 94.02 125.63 93.07 125.49 92.60 125.42 L 92.43 126.92 C 91.92 126.68 90.90 126.20 90.39 125.96 L 90.90 127.38 C 89.08 127.46 87.25 127.55 85.43 127.64 C 85.51 127.85 85.68 128.26 85.76 128.47 C 67.53 128.33 49.28 128.35 31.05 128.46 L 31.82 127.80 C 29.60 127.45 27.44 126.83 25.26 126.30 L 25.39 125.34 C 24.92 125.45 23.98 125.66 23.51 125.76 L 23.31 124.43 C 22.84 124.50 21.90 124.64 21.43 124.71 L 21.39 123.30 C 20.86 123.41 19.80 123.63 19.27 123.74 L 19.87 122.08 L 18.46 122.90 L 18.44 122.09 C 16.42 120.42 14.57 118.57 12.91 116.55 L 12.11 116.57 L 12.90 115.16 L 11.28 115.73 C 11.38 115.20 11.59 114.13 11.69 113.60 L 10.28 113.55 C 10.36 113.08 10.51 112.14 10.58 111.67 L 9.23 111.49 C 9.34 111.02 9.55 110.08 9.66 109.61 L 8.68 109.74 C 8.05 107.30 7.42 104.87 7.13 102.37 L 6.54 102.91 C 6.65 80.95 6.66 58.98 6.53 37.02 L 7.13 37.70 C 7.40 35.18 8.04 32.73 8.68 30.29 L 9.65 30.38 C 9.55 29.91 9.37 28.96 9.27 28.48 L 10.59 28.32 C 10.51 27.85 10.35 26.91 10.27 26.44 L 11.68 26.41 C 11.58 25.88 11.39 24.83 11.29 24.31 L 12.93 24.74 L 12.09 23.31 L 12.92 23.49 C 14.56 21.44 16.41 19.58 18.43 17.91 L 18.43 17.11 L 19.81 17.92 L 19.28 16.28 C 19.81 16.38 20.87 16.59 21.39 16.70 L 21.44 15.28 C 21.91 15.36 22.86 15.51 23.33 15.59 L 23.45 14.32 C 23.94 14.38 24.93 14.50 25.42 14.56 L 25.61 13.04 C 26.11 13.30 27.12 13.83 27.62 14.10 L 27.09 12.62 C 28.95 12.54 30.80 12.45 32.66 12.35 C 32.53 12.15 32.27 11.74 32.13 11.54 M 36.29 53.48 C 40.50 53.66 44.72 53.55 48.93 53.58 C 49.96 58.83 54.32 62.65 59.58 63.31 C 59.56 67.74 59.41 72.16 59.17 76.58 C 59.90 73.50 60.31 70.36 60.35 67.19 C 60.31 65.88 60.26 64.56 60.22 63.25 C 65.37 62.30 69.40 58.35 70.25 53.15 C 74.70 53.10 79.23 53.63 83.62 52.61 C 79.20 52.20 74.75 52.41 70.31 52.44 C 69.76 47.13 65.91 42.70 60.64 41.64 C 60.70 37.34 60.73 33.04 60.63 28.74 C 47.15 26.51 34.71 40.35 36.29 53.48 Z" />
<path fill="#000000" opacity="1.00" d=" M 50.15 52.94 C 49.71 47.64 54.61 42.42 60.00 42.93 C 62.46 42.82 64.48 44.36 66.48 45.55 C 67.57 47.59 69.05 49.63 68.98 52.06 C 69.30 57.04 64.96 61.74 60.00 61.94 C 55.01 62.28 50.26 57.94 50.15 52.94 Z" />
</g>
<g id="#f7fbf8ff">
<path fill="#f7fbf8" opacity="1.00" d=" M 31.22 10.92 C 35.43 10.10 39.74 10.46 44.00 10.39 C 57.95 10.44 71.90 10.28 85.85 10.49 L 85.11 11.42 C 86.99 11.41 88.87 11.43 90.75 11.45 L 90.05 12.44 C 90.92 12.45 92.67 12.47 93.54 12.48 L 93.44 13.84 C 93.92 13.66 94.88 13.29 95.36 13.11 L 95.37 14.65 C 95.84 14.57 96.79 14.39 97.27 14.30 L 97.40 15.11 C 98.84 15.96 100.22 16.90 101.63 17.81 L 101.23 18.11 C 101.64 18.50 102.46 19.29 102.87 19.69 L 103.85 19.04 L 103.34 20.11 C 103.73 20.53 104.50 21.38 104.89 21.80 L 105.17 21.34 C 106.08 22.76 107.05 24.15 107.90 25.61 L 108.71 25.74 C 108.62 26.22 108.42 27.18 108.33 27.66 L 109.85 27.59 C 109.69 28.09 109.37 29.09 109.21 29.59 L 110.56 29.48 C 110.55 30.34 110.53 32.06 110.52 32.93 L 111.26 32.19 C 111.83 35.46 112.77 38.69 112.61 42.04 C 112.50 62.60 112.84 83.17 112.42 103.72 C 112.19 103.59 111.74 103.32 111.52 103.18 C 111.55 104.70 111.57 106.22 111.59 107.74 L 110.55 107.05 C 110.55 107.92 110.54 109.66 110.54 110.53 L 109.18 110.43 C 109.35 110.91 109.69 111.87 109.87 112.35 L 108.26 112.43 L 108.73 114.18 C 108.51 114.25 108.08 114.39 107.87 114.46 C 107.03 115.88 106.09 117.24 105.19 118.62 L 104.90 118.25 C 104.49 118.65 103.69 119.46 103.28 119.86 L 103.99 120.83 L 102.89 120.33 C 102.47 120.73 101.62 121.51 101.20 121.91 L 101.66 122.18 C 100.24 123.09 98.85 124.04 97.40 124.89 L 97.26 125.70 C 96.77 125.61 95.81 125.43 95.32 125.34 L 95.40 126.87 C 94.91 126.70 93.92 126.35 93.43 126.18 L 93.56 127.25 C 91.30 127.88 89.04 128.51 86.78 129.11 C 84.20 129.57 81.58 129.63 78.98 129.62 C 64.64 129.58 50.31 129.64 35.97 129.59 C 32.99 129.65 30.13 128.72 27.21 128.28 L 27.91 127.52 C 27.05 127.52 25.33 127.53 24.47 127.54 L 24.57 126.16 C 24.08 126.35 23.10 126.71 22.61 126.89 L 22.67 125.36 C 22.18 125.44 21.20 125.60 20.71 125.68 L 20.60 124.89 C 19.15 124.04 17.76 123.09 16.35 122.18 L 16.77 121.90 C 16.36 121.50 15.54 120.71 15.13 120.32 L 14.02 120.89 L 14.72 119.87 C 14.32 119.46 13.52 118.66 13.12 118.25 L 12.82 118.64 C 11.92 117.25 10.99 115.89 10.14 114.47 C 9.91 114.39 9.45 114.22 9.22 114.13 L 9.81 112.50 L 8.16 112.33 C 8.32 111.85 8.64 110.89 8.80 110.41 L 7.43 110.50 C 7.44 109.65 7.46 107.93 7.47 107.08 L 6.42 107.73 C 6.43 106.21 6.45 104.69 6.48 103.17 C 6.26 103.31 5.81 103.58 5.58 103.72 C 5.27 81.25 5.27 58.76 5.58 36.29 C 5.81 36.42 6.26 36.68 6.48 36.81 C 6.45 35.30 6.43 33.79 6.41 32.28 L 7.46 32.91 C 7.46 32.05 7.47 30.33 7.47 29.47 L 8.83 29.58 C 8.66 29.10 8.31 28.15 8.14 27.67 L 9.77 27.52 L 9.22 25.84 C 9.45 25.77 9.90 25.63 10.12 25.57 C 10.97 24.13 11.92 22.76 12.82 21.37 L 13.36 21.93 C 13.48 21.42 13.73 20.42 13.86 19.91 C 14.82 19.33 15.78 18.77 16.74 18.21 L 16.39 17.81 C 17.78 16.91 19.14 15.97 20.56 15.12 C 20.64 14.89 20.78 14.43 20.85 14.20 L 22.50 14.81 L 22.66 13.17 C 23.14 13.33 24.10 13.64 24.58 13.80 L 24.44 12.74 C 26.70 12.13 28.95 11.50 31.22 10.92 M 32.13 11.54 C 32.27 11.74 32.53 12.15 32.66 12.35 C 30.80 12.45 28.95 12.54 27.09 12.62 L 27.62 14.10 C 27.12 13.83 26.11 13.30 25.61 13.04 L 25.42 14.56 C 24.93 14.50 23.94 14.38 23.45 14.32 L 23.33 15.59 C 22.86 15.51 21.91 15.36 21.44 15.28 L 21.39 16.70 C 20.87 16.59 19.81 16.38 19.28 16.28 L 19.81 17.92 L 18.43 17.11 L 18.43 17.91 C 16.41 19.58 14.56 21.44 12.92 23.49 L 12.09 23.31 L 12.93 24.74 L 11.29 24.31 C 11.39 24.83 11.58 25.88 11.68 26.41 L 10.27 26.44 C 10.35 26.91 10.51 27.85 10.59 28.32 L 9.27 28.48 C 9.37 28.96 9.55 29.91 9.65 30.38 L 8.68 30.29 C 8.04 32.73 7.40 35.18 7.13 37.70 L 6.53 37.02 C 6.66 58.98 6.65 80.95 6.54 102.91 L 7.13 102.37 C 7.42 104.87 8.05 107.30 8.68 109.74 L 9.66 109.61 C 9.55 110.08 9.34 111.02 9.23 111.49 L 10.58 111.67 C 10.51 112.14 10.36 113.08 10.28 113.55 L 11.69 113.60 C 11.59 114.13 11.38 115.20 11.28 115.73 L 12.90 115.16 L 12.11 116.57 L 12.91 116.55 C 14.57 118.57 16.42 120.42 18.44 122.09 L 18.46 122.90 L 19.87 122.08 L 19.27 123.74 C 19.80 123.63 20.86 123.41 21.39 123.30 L 21.43 124.71 C 21.90 124.64 22.84 124.50 23.31 124.43 L 23.51 125.76 C 23.98 125.66 24.92 125.45 25.39 125.34 L 25.26 126.30 C 27.44 126.83 29.60 127.45 31.82 127.80 L 31.05 128.46 C 49.28 128.35 67.53 128.33 85.76 128.47 C 85.68 128.26 85.51 127.85 85.43 127.64 C 87.25 127.55 89.08 127.46 90.90 127.38 L 90.39 125.96 C 90.90 126.20 91.92 126.68 92.43 126.92 L 92.60 125.42 C 93.07 125.49 94.02 125.63 94.50 125.71 C 94.56 125.37 94.70 124.70 94.77 124.36 L 96.51 124.80 L 96.60 123.32 C 97.14 123.42 98.20 123.61 98.73 123.71 L 98.16 122.09 L 99.57 122.89 L 99.56 122.09 C 101.58 120.42 103.43 118.57 105.09 116.55 L 105.91 116.56 L 105.10 115.16 L 106.76 115.71 C 106.64 115.19 106.41 114.15 106.29 113.63 L 107.78 113.50 L 107.37 111.79 C 107.74 111.68 108.48 111.47 108.85 111.37 L 108.26 109.71 C 108.52 109.70 109.04 109.68 109.30 109.67 C 109.99 106.49 111.35 103.41 111.40 100.12 C 111.44 78.77 111.30 57.41 111.46 36.06 L 110.80 36.77 C 110.45 34.57 109.84 32.43 109.31 30.27 L 108.35 30.41 C 108.45 29.93 108.66 28.98 108.76 28.51 L 107.42 28.33 C 107.49 27.86 107.64 26.91 107.71 26.44 L 106.29 26.38 C 106.40 25.86 106.63 24.82 106.74 24.29 L 105.11 24.82 L 105.88 23.45 L 105.08 23.44 C 103.42 21.42 101.57 19.57 99.55 17.91 L 99.54 17.10 L 98.14 17.89 L 98.72 16.25 C 98.20 16.37 97.14 16.60 96.61 16.71 L 96.65 15.84 C 95.96 15.47 94.59 14.72 93.91 14.35 L 92.70 14.72 C 92.70 14.46 92.69 13.95 92.68 13.70 C 89.15 12.88 85.65 11.64 81.99 11.60 C 65.37 11.58 48.75 11.69 32.13 11.54 Z" />
<path fill="#f7fbf8" opacity="1.00" d=" M 36.29 53.48 C 34.71 40.35 47.15 26.51 60.63 28.74 C 60.73 33.04 60.70 37.34 60.64 41.64 C 65.91 42.70 69.76 47.13 70.31 52.44 C 74.75 52.41 79.20 52.20 83.62 52.61 C 79.23 53.63 74.70 53.10 70.25 53.15 C 69.40 58.35 65.37 62.30 60.22 63.25 C 60.26 64.56 60.31 65.88 60.35 67.19 C 60.31 70.36 59.90 73.50 59.17 76.58 C 59.41 72.16 59.56 67.74 59.58 63.31 C 54.32 62.65 49.96 58.83 48.93 53.58 C 44.72 53.55 40.50 53.66 36.29 53.48 M 50.15 52.94 C 50.26 57.94 55.01 62.28 60.00 61.94 C 64.96 61.74 69.30 57.04 68.98 52.06 C 69.05 49.63 67.57 47.59 66.48 45.55 C 64.48 44.36 62.46 42.82 60.00 42.93 C 54.61 42.42 49.71 47.64 50.15 52.94 Z" />
</g>
</svg>
