<?xml version="1.0" encoding="UTF-8" ?>
<!DOCTYPE svg PUBLIC "-//W3C//DTD SVG 1.1//EN" "http://www.w3.org/Graphics/SVG/1.1/DTD/svg11.dtd">
<svg width="150px" height="80px" viewBox="0 0 150 80" version="1.1" xmlns="http://www.w3.org/2000/svg">
<g id="#000000ff">
<path fill="#000000" opacity="1.00" d=" M 0.00 0.00 L 150.00 0.00 L 150.00 80.00 L 0.00 80.00 L 0.00 0.00 M 6.37 5.46 C 2.87 6.63 0.67 10.32 0.99 13.94 C 1.03 31.65 0.95 49.36 1.03 67.07 C 0.93 71.28 4.73 75.06 8.94 74.97 C 52.65 75.04 96.36 74.98 140.07 75.00 C 144.60 75.49 149.10 71.72 148.95 67.06 C 149.04 49.01 149.01 30.94 148.97 12.88 C 149.06 8.26 144.58 4.51 140.06 4.99 C 96.72 5.00 53.37 5.01 10.03 4.99 C 8.78 4.95 7.56 5.11 6.37 5.46 Z" />
<path fill="#000000" opacity="1.00" d=" M 7.17 7.31 C 9.06 6.82 11.04 7.03 12.97 6.98 C 55.66 7.05 98.35 6.94 141.04 7.04 C 144.23 6.96 147.04 9.76 146.96 12.95 C 147.02 30.98 147.03 49.01 146.96 67.03 C 147.09 70.71 143.48 73.50 139.94 73.00 C 96.29 72.98 52.63 73.04 8.98 72.97 C 5.78 73.08 2.97 70.24 3.04 67.06 C 2.95 49.38 3.03 31.70 3.00 14.02 C 2.73 11.18 4.29 8.09 7.17 7.31 M 34.65 36.03 C 38.03 38.92 41.95 41.06 45.53 43.67 C 46.49 44.43 47.69 44.70 48.83 45.07 C 49.22 43.12 48.26 40.44 49.92 38.99 C 54.48 38.82 58.28 41.71 61.13 44.97 C 61.57 38.25 55.68 33.00 49.30 32.58 C 48.87 30.71 48.92 28.77 48.77 26.87 C 43.61 29.04 39.09 32.65 34.65 36.03 Z" />
</g>
<g id="#6e8ac5ff">
<path fill="#6e8ac5" opacity="1.00" d=" M 6.37 5.46 C 7.56 5.11 8.78 4.95 10.03 4.99 C 53.37 5.01 96.72 5.00 140.06 4.99 C 144.58 4.51 149.06 8.26 148.97 12.88 C 149.01 30.94 149.04 49.01 148.95 67.06 C 149.10 71.72 144.60 75.49 140.07 75.00 C 96.36 74.98 52.65 75.04 8.94 74.97 C 4.73 75.06 0.93 71.28 1.03 67.07 C 0.95 49.36 1.03 31.65 0.99 13.94 C 0.67 10.32 2.87 6.63 6.37 5.46 M 7.17 7.31 C 4.29 8.09 2.73 11.18 3.00 14.02 C 3.03 31.70 2.95 49.38 3.04 67.06 C 2.97 70.24 5.78 73.08 8.98 72.97 C 52.63 73.04 96.29 72.98 139.94 73.00 C 143.48 73.50 147.09 70.71 146.96 67.03 C 147.03 49.01 147.02 30.98 146.96 12.95 C 147.04 9.76 144.23 6.96 141.04 7.04 C 98.35 6.94 55.66 7.05 12.97 6.98 C 11.04 7.03 9.06 6.82 7.17 7.31 Z" />
</g>
<g id="#68e868ff">
<path fill="#68e868" opacity="1.00" d=" M 34.65 36.03 C 39.09 32.65 43.61 29.04 48.77 26.87 C 48.92 28.77 48.87 30.71 49.30 32.58 C 55.68 33.00 61.57 38.25 61.13 44.97 C 58.28 41.71 54.48 38.82 49.92 38.99 C 48.26 40.44 49.22 43.12 48.83 45.07 C 47.69 44.70 46.49 44.43 45.53 43.67 C 41.95 41.06 38.03 38.92 34.65 36.03 Z" />
</g>
</svg>
