<?xml version="1.0" encoding="UTF-8" ?>
<!DOCTYPE svg PUBLIC "-//W3C//DTD SVG 1.1//EN" "http://www.w3.org/Graphics/SVG/1.1/DTD/svg11.dtd">
<svg width="117px" height="140px" viewBox="0 0 117 140" version="1.1" xmlns="http://www.w3.org/2000/svg">
<g id="#181818ff">
<path fill="#181818" opacity="1.00" d=" M 0.00 0.00 L 117.00 0.00 L 117.00 140.00 L 0.00 140.00 L 0.00 0.00 M 54.51 20.33 C 50.38 20.38 46.24 20.10 42.12 20.43 C 38.69 20.76 36.02 24.68 37.26 27.97 C 38.46 31.23 40.29 34.21 41.77 37.35 C 43.68 41.33 45.67 45.27 47.67 49.21 C 44.36 49.35 40.11 48.67 38.04 51.98 C 35.23 56.12 39.12 60.53 40.73 64.32 C 44.26 71.61 47.99 78.81 51.61 86.05 C 52.86 88.51 53.84 91.19 55.74 93.23 C 58.30 95.75 63.13 95.12 64.78 91.85 C 66.42 88.79 68.63 85.62 68.65 82.04 C 69.03 82.37 69.80 83.01 70.18 83.34 C 71.72 83.51 73.53 84.09 74.80 82.83 C 76.67 81.67 75.91 79.18 76.19 77.38 L 75.83 77.72 C 74.87 76.96 73.88 76.24 72.86 75.57 C 75.16 71.63 77.08 67.49 79.12 63.42 C 80.63 60.00 83.81 56.19 81.62 52.36 C 79.73 48.76 75.22 49.27 71.81 49.19 C 72.28 48.20 72.74 47.21 73.21 46.22 C 75.42 41.83 77.63 37.43 79.82 33.03 C 80.77 31.09 81.86 29.18 82.38 27.06 C 82.82 23.83 80.19 20.53 76.90 20.39 C 72.58 20.15 68.25 20.33 63.93 20.35 C 63.25 19.52 62.49 18.76 61.76 17.97 C 59.21 17.79 55.91 17.73 54.51 20.33 M 31.04 41.02 C 29.37 42.32 30.27 44.36 30.76 46.00 L 30.60 46.16 C 32.31 46.52 34.48 47.61 35.87 45.96 C 37.69 44.52 36.55 42.29 36.06 40.51 C 34.40 40.34 32.32 39.44 31.04 41.02 Z" />
</g>
<g id="#68c0a8ff">
<path fill="#68c0a8" opacity="1.00" d=" M 54.51 20.33 C 55.91 17.73 59.21 17.79 61.76 17.97 C 59.46 21.02 56.78 23.77 53.87 26.24 C 53.33 25.76 52.26 24.80 51.73 24.32 C 48.28 24.30 44.83 24.39 41.38 24.38 C 45.18 24.04 49.01 24.08 52.82 23.96 C 53.37 22.75 53.91 21.52 54.51 20.33 Z" />
</g>
<g id="#4c9793ff">
<path fill="#4c9793" opacity="1.00" d=" M 61.76 17.97 C 62.49 18.76 63.25 19.52 63.93 20.35 L 64.27 20.85 C 61.34 23.75 58.25 26.48 55.32 29.39 C 54.85 28.33 54.37 27.28 53.87 26.24 C 56.78 23.77 59.46 21.02 61.76 17.97 Z" />
</g>
<g id="#9864f8ff">
<path fill="#9864f8" opacity="1.00" d=" M 37.26 27.97 C 36.02 24.68 38.69 20.76 42.12 20.43 C 46.24 20.10 50.38 20.38 54.51 20.33 C 53.91 21.52 53.37 22.75 52.82 23.96 C 49.01 24.08 45.18 24.04 41.38 24.38 C 40.69 29.21 44.54 33.08 46.16 37.35 L 46.29 37.61 C 44.78 37.52 43.27 37.43 41.77 37.35 C 40.29 34.21 38.46 31.23 37.26 27.97 Z" />
<path fill="#9864f8" opacity="1.00" d=" M 63.93 20.35 C 68.25 20.33 72.58 20.15 76.90 20.39 C 80.19 20.53 82.82 23.83 82.38 27.06 C 81.86 29.18 80.77 31.09 79.82 33.03 C 78.80 32.86 76.76 32.51 75.74 32.34 C 76.69 30.51 77.69 28.71 78.56 26.84 L 78.95 25.98 C 78.39 25.41 77.97 24.60 77.15 24.37 C 73.39 23.73 69.54 23.98 65.74 23.84 C 65.27 22.83 64.78 21.83 64.27 20.85 L 63.93 20.35 Z" />
</g>
<g id="#286480ff">
<path fill="#286480" opacity="1.00" d=" M 55.32 29.39 C 58.25 26.48 61.34 23.75 64.27 20.85 C 64.78 21.83 65.27 22.83 65.74 23.84 C 69.54 23.98 73.39 23.73 77.15 24.37 C 77.97 24.60 78.39 25.41 78.95 25.98 L 78.56 26.84 C 78.41 25.24 77.55 24.44 75.98 24.45 C 72.60 24.05 69.18 24.30 65.79 24.32 C 64.75 26.44 63.70 28.56 62.66 30.68 C 60.37 30.62 58.09 30.58 55.80 30.42 C 55.68 30.16 55.44 29.65 55.32 29.39 Z" />
</g>
<g id="#f8dc78ff">
<path fill="#f8dc78" opacity="1.00" d=" M 46.16 37.35 C 44.54 33.08 40.69 29.21 41.38 24.38 C 44.83 24.39 48.28 24.30 51.73 24.32 C 51.36 28.07 51.67 31.96 50.58 35.61 C 49.19 36.38 47.65 36.83 46.16 37.35 Z" />
</g>
<g id="#f8c468ff">
<path fill="#f8c468" opacity="1.00" d=" M 51.73 24.32 C 52.26 24.80 53.33 25.76 53.87 26.24 C 54.37 27.28 54.85 28.33 55.32 29.39 C 55.44 29.65 55.68 30.16 55.80 30.42 C 58.09 30.58 60.37 30.62 62.66 30.68 C 63.70 28.56 64.75 26.44 65.79 24.32 C 69.18 24.30 72.60 24.05 75.98 24.45 C 77.55 24.44 78.41 25.24 78.56 26.84 C 77.69 28.71 76.69 30.51 75.74 32.34 C 74.61 34.50 73.53 36.68 72.45 38.86 C 65.47 41.86 59.20 46.24 52.23 49.26 C 50.21 45.40 48.18 41.54 46.29 37.61 L 46.16 37.35 C 47.65 36.83 49.19 36.38 50.58 35.61 C 51.67 31.96 51.36 28.07 51.73 24.32 Z" />
</g>
<g id="#7858e8ff">
<path fill="#7858e8" opacity="1.00" d=" M 72.45 38.86 C 73.53 36.68 74.61 34.50 75.74 32.34 C 76.76 32.51 78.80 32.86 79.82 33.03 C 77.63 37.43 75.42 41.83 73.21 46.22 C 71.79 46.06 70.38 45.90 68.96 45.74 C 70.14 43.46 71.31 41.17 72.45 38.86 Z" />
</g>
<g id="#6050e8ff">
<path fill="#6050e8" opacity="1.00" d=" M 41.77 37.35 C 43.27 37.43 44.78 37.52 46.29 37.61 C 48.18 41.54 50.21 45.40 52.23 49.26 C 52.53 50.36 52.75 51.48 52.73 52.62 C 49.16 53.70 45.34 52.81 41.74 53.65 C 41.53 53.98 41.10 54.64 40.89 54.98 C 41.70 58.02 43.36 60.73 44.74 63.53 C 43.40 63.79 42.07 64.06 40.73 64.32 C 39.12 60.53 35.23 56.12 38.04 51.98 C 40.11 48.67 44.36 49.35 47.67 49.21 C 45.67 45.27 43.68 41.33 41.77 37.35 Z" />
</g>
<g id="#f8b460ff">
<path fill="#f8b460" opacity="1.00" d=" M 52.23 49.26 C 59.20 46.24 65.47 41.86 72.45 38.86 C 71.31 41.17 70.14 43.46 68.96 45.74 C 68.08 48.00 66.03 50.34 66.92 52.89 C 70.85 53.39 74.84 52.99 78.77 53.62 C 76.15 53.99 73.36 53.74 70.88 54.81 C 62.89 59.17 54.78 63.30 47.06 68.14 C 46.29 66.60 45.52 65.06 44.74 63.53 C 43.36 60.73 41.70 58.02 40.89 54.98 C 41.10 54.64 41.53 53.98 41.74 53.65 C 45.34 52.81 49.16 53.70 52.73 52.62 C 52.75 51.48 52.53 50.36 52.23 49.26 Z" />
</g>
<g id="#b4aa97ff">
<path fill="#b4aa97" opacity="1.00" d=" M 31.04 41.02 C 32.32 39.44 34.40 40.34 36.06 40.51 C 34.30 42.34 32.52 44.16 30.76 46.00 C 30.27 44.36 29.37 42.32 31.04 41.02 Z" />
</g>
<g id="#8098c8ff">
<path fill="#8098c8" opacity="1.00" d=" M 36.06 40.51 C 36.55 42.29 37.69 44.52 35.87 45.96 C 34.48 47.61 32.31 46.52 30.60 46.16 L 30.76 46.00 C 32.52 44.16 34.30 42.34 36.06 40.51 Z" />
</g>
<g id="#6050e0ff">
<path fill="#6050e0" opacity="1.00" d=" M 68.96 45.74 C 70.38 45.90 71.79 46.06 73.21 46.22 C 72.74 47.21 72.28 48.20 71.81 49.19 C 75.22 49.27 79.73 48.76 81.62 52.36 C 83.81 56.19 80.63 60.00 79.12 63.42 C 77.68 63.38 76.23 63.35 74.78 63.31 C 76.47 60.24 77.83 57.00 78.77 53.62 C 74.84 52.99 70.85 53.39 66.92 52.89 C 66.03 50.34 68.08 48.00 68.96 45.74 Z" />
</g>
<g id="#f8a050ff">
<path fill="#f8a050" opacity="1.00" d=" M 70.88 54.81 C 73.36 53.74 76.15 53.99 78.77 53.62 C 77.83 57.00 76.47 60.24 74.78 63.31 C 73.56 65.64 72.40 67.99 71.21 70.33 C 64.59 72.50 59.31 77.21 53.12 80.25 C 51.10 76.21 49.06 72.19 47.06 68.14 C 54.78 63.30 62.89 59.17 70.88 54.81 Z" />
</g>
<g id="#4044d8ff">
<path fill="#4044d8" opacity="1.00" d=" M 71.21 70.33 C 72.40 67.99 73.56 65.64 74.78 63.31 C 76.23 63.35 77.68 63.38 79.12 63.42 C 77.08 67.49 75.16 71.63 72.86 75.57 C 71.27 76.23 69.72 77.00 68.19 77.79 L 68.09 76.70 C 69.09 74.56 70.16 72.45 71.21 70.33 Z" />
</g>
<g id="#3840d0ff">
<path fill="#3840d0" opacity="1.00" d=" M 40.73 64.32 C 42.07 64.06 43.40 63.79 44.74 63.53 C 45.52 65.06 46.29 66.60 47.06 68.14 C 49.06 72.19 51.10 76.21 53.12 80.25 C 53.80 81.62 54.47 83.00 55.14 84.38 C 53.96 84.94 52.78 85.50 51.61 86.05 C 47.99 78.81 44.26 71.61 40.73 64.32 Z" />
</g>
<g id="#f88c40ff">
<path fill="#f88c40" opacity="1.00" d=" M 53.12 80.25 C 59.31 77.21 64.59 72.50 71.21 70.33 C 70.16 72.45 69.09 74.56 68.09 76.70 C 65.53 81.31 63.79 86.42 60.61 90.65 C 60.20 90.73 59.37 90.88 58.96 90.95 C 57.32 89.00 56.27 86.64 55.14 84.38 C 54.47 83.00 53.80 81.62 53.12 80.25 Z" />
</g>
<g id="#c06098ff">
<path fill="#c06098" opacity="1.00" d=" M 68.19 77.79 C 69.72 77.00 71.27 76.23 72.86 75.57 C 73.88 76.24 74.87 76.96 75.83 77.72 C 73.89 79.54 72.01 81.41 70.18 83.34 C 69.80 83.01 69.03 82.37 68.65 82.04 C 68.52 80.62 68.34 79.21 68.19 77.79 Z" />
</g>
<g id="#2038c8ff">
<path fill="#2038c8" opacity="1.00" d=" M 60.61 90.65 C 63.79 86.42 65.53 81.31 68.09 76.70 L 68.19 77.79 C 68.34 79.21 68.52 80.62 68.65 82.04 C 68.63 85.62 66.42 88.79 64.78 91.85 C 63.13 95.12 58.30 95.75 55.74 93.23 C 53.84 91.19 52.86 88.51 51.61 86.05 C 52.78 85.50 53.96 84.94 55.14 84.38 C 56.27 86.64 57.32 89.00 58.96 90.95 C 59.37 90.88 60.20 90.73 60.61 90.65 Z" />
</g>
<g id="#854893ff">
<path fill="#854893" opacity="1.00" d=" M 75.83 77.72 L 76.19 77.38 C 75.91 79.18 76.67 81.67 74.80 82.83 C 73.53 84.09 71.72 83.51 70.18 83.34 C 72.01 81.41 73.89 79.54 75.83 77.72 Z" />
</g>
</svg>
