<?xml version="1.0" encoding="UTF-8" ?>
<!DOCTYPE svg PUBLIC "-//W3C//DTD SVG 1.1//EN" "http://www.w3.org/Graphics/SVG/1.1/DTD/svg11.dtd">
<svg width="117px" height="140px" viewBox="0 0 117 140" version="1.1" xmlns="http://www.w3.org/2000/svg">
<g id="#181818ff">
<path fill="#181818" opacity="1.00" d=" M 0.00 0.00 L 117.00 0.00 L 117.00 140.00 L 0.00 140.00 L 0.00 0.00 M 29.47 28.10 C 26.71 27.12 23.78 30.05 25.48 32.73 C 24.96 33.72 24.43 34.71 23.89 35.70 C 21.63 40.16 19.92 44.93 19.30 49.91 C 18.73 54.64 19.08 59.42 20.00 64.08 C 21.06 68.09 22.60 71.95 24.64 75.56 C 26.63 78.48 28.61 81.50 31.38 83.74 C 32.90 84.36 34.95 82.60 33.86 81.06 C 32.21 78.65 30.13 76.56 28.54 74.10 C 28.13 73.42 27.32 72.07 26.92 71.40 C 28.67 70.29 32.68 69.62 31.40 66.77 C 29.71 64.60 27.18 67.14 25.17 67.45 C 24.87 66.41 24.56 65.37 24.22 64.34 C 23.93 62.91 23.64 61.48 23.35 60.05 C 24.99 59.82 26.67 59.75 28.28 59.32 C 29.45 58.43 29.36 56.30 27.90 55.78 C 26.35 55.56 24.80 55.86 23.26 56.01 L 22.82 55.68 C 23.07 53.18 23.33 50.67 23.61 48.17 C 25.08 48.50 26.54 48.89 28.03 49.05 C 29.81 49.16 30.68 46.74 29.33 45.66 C 27.89 44.89 26.24 44.63 24.68 44.17 C 25.49 42.00 26.36 39.86 27.10 37.66 C 27.54 37.65 28.44 37.63 28.89 37.62 C 29.68 38.13 31.24 39.13 32.03 39.64 C 35.83 39.24 33.82 35.30 31.51 34.30 C 31.08 34.28 30.21 34.23 29.78 34.20 C 31.28 31.80 33.23 29.72 35.36 27.87 C 36.75 29.32 37.67 31.90 40.07 31.74 C 43.02 29.83 39.68 27.27 38.52 25.39 C 40.69 23.98 42.96 22.74 45.28 21.62 C 46.32 23.36 46.37 27.01 49.11 26.68 C 52.06 25.57 49.58 22.40 49.26 20.41 C 51.77 19.75 54.34 19.26 56.93 19.02 C 57.11 21.15 56.23 25.60 59.74 24.89 C 61.76 23.69 60.69 20.94 61.08 19.01 C 63.62 19.33 66.15 19.74 68.67 20.22 C 68.32 22.45 66.08 25.39 68.92 26.84 C 71.69 26.71 71.67 23.52 72.65 21.61 C 74.99 22.74 77.28 23.97 79.51 25.31 C 78.33 27.23 75.01 29.80 77.94 31.75 C 80.30 31.86 81.09 29.24 82.79 28.12 C 84.77 30.03 86.62 32.07 88.26 34.28 C 86.12 34.26 82.62 36.36 84.18 38.83 C 86.31 40.68 88.34 37.85 90.28 37.07 C 91.40 39.39 92.44 41.75 93.36 44.15 C 91.43 44.92 87.56 44.75 88.06 47.76 C 89.37 50.20 92.33 48.41 94.37 48.19 C 94.64 50.49 94.95 52.79 95.26 55.09 C 95.10 55.30 94.77 55.71 94.60 55.91 C 92.62 55.87 88.86 54.72 88.88 57.86 C 89.41 60.44 92.84 59.45 94.67 60.05 C 94.23 62.11 93.78 64.17 93.32 66.22 C 93.12 66.54 92.71 67.17 92.50 67.48 C 90.63 67.04 88.14 64.54 86.59 66.79 C 85.32 69.64 89.32 70.29 91.05 71.31 C 90.52 72.25 89.99 73.19 89.46 74.13 C 87.85 76.58 85.76 78.68 84.12 81.10 C 83.07 82.66 85.17 84.41 86.67 83.70 C 89.41 81.47 91.37 78.47 93.35 75.57 C 94.89 72.78 96.17 69.86 97.24 66.86 C 98.77 61.43 99.30 55.77 98.82 50.14 C 97.88 44.70 96.31 39.33 93.38 34.61 L 93.17 34.59 C 92.33 33.37 91.78 31.86 90.42 31.09 C 94.05 31.08 97.53 27.76 96.87 24.01 C 96.63 21.74 94.73 20.31 92.99 19.12 C 89.29 18.22 85.20 20.75 85.05 24.70 C 76.62 17.33 64.96 13.83 53.86 15.35 C 44.55 16.49 35.75 21.13 29.47 28.10 M 55.50 53.51 C 52.92 55.91 54.09 60.20 57.06 61.72 C 59.08 62.27 61.05 63.24 63.16 63.30 L 63.68 63.00 L 63.99 63.69 C 68.01 65.13 72.22 65.95 76.34 67.04 C 73.01 63.31 69.34 59.90 65.84 56.33 C 64.27 54.87 62.63 53.50 60.94 52.19 C 59.04 52.11 56.87 51.89 55.50 53.51 M 52.20 82.83 C 53.03 83.42 53.85 84.03 54.67 84.65 L 54.10 85.12 C 57.60 85.76 61.01 82.86 59.85 79.25 C 59.16 78.61 58.49 77.95 57.84 77.27 C 54.33 75.77 50.85 79.34 52.20 82.83 Z" />
</g>
<g id="#9060f8ff">
<path fill="#9060f8" opacity="1.00" d=" M 29.47 28.10 C 35.75 21.13 44.55 16.49 53.86 15.35 C 64.96 13.83 76.62 17.33 85.05 24.70 C 84.92 25.22 84.66 26.27 84.52 26.79 C 83.95 27.24 83.37 27.68 82.79 28.12 C 81.09 29.24 80.30 31.86 77.94 31.75 C 75.01 29.80 78.33 27.23 79.51 25.31 C 77.28 23.97 74.99 22.74 72.65 21.61 C 71.67 23.52 71.69 26.71 68.92 26.84 C 66.08 25.39 68.32 22.45 68.67 20.22 C 66.15 19.74 63.62 19.33 61.08 19.01 C 60.69 20.94 61.76 23.69 59.74 24.89 C 56.23 25.60 57.11 21.15 56.93 19.02 C 54.34 19.26 51.77 19.75 49.26 20.41 C 49.58 22.40 52.06 25.57 49.11 26.68 C 46.37 27.01 46.32 23.36 45.28 21.62 C 42.96 22.74 40.69 23.98 38.52 25.39 C 39.68 27.27 43.02 29.83 40.07 31.74 C 37.67 31.90 36.75 29.32 35.36 27.87 C 33.23 29.72 31.28 31.80 29.78 34.20 C 28.40 33.98 26.96 33.94 25.69 33.31 C 27.24 33.19 28.79 33.10 30.35 33.05 C 30.58 31.28 30.96 29.47 29.47 28.10 Z" />
</g>
<g id="#d058d0ff">
<path fill="#d058d0" opacity="1.00" d=" M 85.05 24.70 C 85.20 20.75 89.29 18.22 92.99 19.12 C 90.73 22.16 88.71 26.20 84.52 26.79 C 84.66 26.27 84.92 25.22 85.05 24.70 Z" />
</g>
<g id="#8838c8ff">
<path fill="#8838c8" opacity="1.00" d=" M 92.99 19.12 C 94.73 20.31 96.63 21.74 96.87 24.01 C 97.53 27.76 94.05 31.08 90.42 31.09 C 88.11 30.16 86.05 28.78 84.52 26.79 C 88.71 26.20 90.73 22.16 92.99 19.12 Z" />
</g>
<g id="#513998ff">
<path fill="#513998" opacity="1.00" d=" M 82.79 28.12 C 83.37 27.68 83.95 27.24 84.52 26.79 C 86.05 28.78 88.11 30.16 90.42 31.09 C 91.78 31.86 92.33 33.37 93.17 34.59 C 91.53 34.49 89.90 34.35 88.26 34.28 C 86.62 32.07 84.77 30.03 82.79 28.12 Z" />
</g>
<g id="#f8c098ff">
<path fill="#f8c098" opacity="1.00" d=" M 25.48 32.73 C 23.78 30.05 26.71 27.12 29.47 28.10 C 30.96 29.47 30.58 31.28 30.35 33.05 C 28.79 33.10 27.24 33.19 25.69 33.31 L 25.48 32.73 Z" />
</g>
<g id="#503ca0ff">
<path fill="#503ca0" opacity="1.00" d=" M 25.48 32.73 L 25.69 33.31 C 26.96 33.94 28.40 33.98 29.78 34.20 C 30.21 34.23 31.08 34.28 31.51 34.30 C 30.65 35.41 29.77 36.52 28.89 37.62 C 28.44 37.63 27.54 37.65 27.10 37.66 C 26.03 37.01 24.96 36.36 23.89 35.70 C 24.43 34.71 24.96 33.72 25.48 32.73 Z" />
</g>
<g id="#6050e0ff">
<path fill="#6050e0" opacity="1.00" d=" M 88.26 34.28 C 89.90 34.35 91.53 34.49 93.17 34.59 L 93.38 34.61 C 96.31 39.33 97.88 44.70 98.82 50.14 C 97.75 51.87 96.62 53.57 95.26 55.09 C 94.95 52.79 94.64 50.49 94.37 48.19 C 92.33 48.41 89.37 50.20 88.06 47.76 C 87.56 44.75 91.43 44.92 93.36 44.15 C 92.44 41.75 91.40 39.39 90.28 37.07 C 88.34 37.85 86.31 40.68 84.18 38.83 C 82.62 36.36 86.12 34.26 88.26 34.28 Z" />
<path fill="#6050e0" opacity="1.00" d=" M 23.89 35.70 C 24.96 36.36 26.03 37.01 27.10 37.66 C 26.36 39.86 25.49 42.00 24.68 44.17 C 26.24 44.63 27.89 44.89 29.33 45.66 C 30.68 46.74 29.81 49.16 28.03 49.05 C 26.54 48.89 25.08 48.50 23.61 48.17 C 23.33 50.67 23.07 53.18 22.82 55.68 C 20.54 54.60 19.84 52.17 19.30 49.91 C 19.92 44.93 21.63 40.16 23.89 35.70 Z" />
</g>
<g id="#614bcbff">
<path fill="#614bcb" opacity="1.00" d=" M 31.51 34.30 C 33.82 35.30 35.83 39.24 32.03 39.64 C 31.24 39.13 29.68 38.13 28.89 37.62 C 29.77 36.52 30.65 35.41 31.51 34.30 Z" />
</g>
<g id="#4848d8ff">
<path fill="#4848d8" opacity="1.00" d=" M 20.00 64.08 C 19.08 59.42 18.73 54.64 19.30 49.91 C 19.84 52.17 20.54 54.60 22.82 55.68 L 23.26 56.01 C 24.80 55.86 26.35 55.56 27.90 55.78 C 29.36 56.30 29.45 58.43 28.28 59.32 C 26.67 59.75 24.99 59.82 23.35 60.05 C 23.64 61.48 23.93 62.91 24.22 64.34 C 22.81 64.26 21.40 64.16 20.00 64.08 Z" />
</g>
<g id="#4844d8ff">
<path fill="#4844d8" opacity="1.00" d=" M 98.82 50.14 C 99.30 55.77 98.77 61.43 97.24 66.86 C 95.93 66.65 94.63 66.43 93.32 66.22 C 93.78 64.17 94.23 62.11 94.67 60.05 C 92.84 59.45 89.41 60.44 88.88 57.86 C 88.86 54.72 92.62 55.87 94.60 55.91 C 94.77 55.71 95.10 55.30 95.26 55.09 C 96.62 53.57 97.75 51.87 98.82 50.14 Z" />
</g>
<g id="#f88438ff">
<path fill="#f88438" opacity="1.00" d=" M 55.50 53.51 C 56.87 51.89 59.04 52.11 60.94 52.19 C 60.42 52.56 59.38 53.29 58.86 53.65 C 58.28 56.35 57.69 59.04 57.06 61.72 C 54.09 60.20 52.92 55.91 55.50 53.51 Z" />
</g>
<g id="#f89c48ff">
<path fill="#f89c48" opacity="1.00" d=" M 58.86 53.65 C 59.38 53.29 60.42 52.56 60.94 52.19 C 62.63 53.50 64.27 54.87 65.84 56.33 C 65.08 58.54 64.27 60.74 63.68 63.00 L 63.16 63.30 C 61.05 63.24 59.08 62.27 57.06 61.72 C 57.69 59.04 58.28 56.35 58.86 53.65 Z" />
</g>
<g id="#f8b860ff">
<path fill="#f8b860" opacity="1.00" d=" M 63.68 63.00 C 64.27 60.74 65.08 58.54 65.84 56.33 C 69.34 59.90 73.01 63.31 76.34 67.04 C 72.22 65.95 68.01 65.13 63.99 63.69 L 63.68 63.00 Z" />
</g>
<g id="#3040d0ff">
<path fill="#3040d0" opacity="1.00" d=" M 20.00 64.08 C 21.40 64.16 22.81 64.26 24.22 64.34 C 24.56 65.37 24.87 66.41 25.17 67.45 C 27.18 67.14 29.71 64.60 31.40 66.77 C 32.68 69.62 28.67 70.29 26.92 71.40 C 27.32 72.07 28.13 73.42 28.54 74.10 C 27.24 74.58 25.94 75.07 24.64 75.56 C 22.60 71.95 21.06 68.09 20.00 64.08 Z" />
</g>
<g id="#303cd0ff">
<path fill="#303cd0" opacity="1.00" d=" M 86.59 66.79 C 88.14 64.54 90.63 67.04 92.50 67.48 C 92.71 67.17 93.12 66.54 93.32 66.22 C 94.63 66.43 95.93 66.65 97.24 66.86 C 96.17 69.86 94.89 72.78 93.35 75.57 C 92.05 75.09 90.76 74.61 89.46 74.13 C 89.99 73.19 90.52 72.25 91.05 71.31 C 89.32 70.29 85.32 69.64 86.59 66.79 Z" />
</g>
<g id="#1838c8ff">
<path fill="#1838c8" opacity="1.00" d=" M 28.54 74.10 C 30.13 76.56 32.21 78.65 33.86 81.06 C 34.95 82.60 32.90 84.36 31.38 83.74 C 28.61 81.50 26.63 78.48 24.64 75.56 C 25.94 75.07 27.24 74.58 28.54 74.10 Z" />
<path fill="#1838c8" opacity="1.00" d=" M 84.12 81.10 C 85.76 78.68 87.85 76.58 89.46 74.13 C 90.76 74.61 92.05 75.09 93.35 75.57 C 91.37 78.47 89.41 81.47 86.67 83.70 C 85.17 84.41 83.07 82.66 84.12 81.10 Z" />
</g>
<g id="#ac77e7ff">
<path fill="#ac77e7" opacity="1.00" d=" M 52.20 82.83 C 50.85 79.34 54.33 75.77 57.84 77.27 C 56.39 79.52 54.46 81.39 52.20 82.83 Z" />
</g>
<g id="#8155e8ff">
<path fill="#8155e8" opacity="1.00" d=" M 57.84 77.27 C 58.49 77.95 59.16 78.61 59.85 79.25 C 58.34 81.24 56.66 83.12 54.67 84.65 C 53.85 84.03 53.03 83.42 52.20 82.83 C 54.46 81.39 56.39 79.52 57.84 77.27 Z" />
</g>
<g id="#4d2fcfff">
<path fill="#4d2fcf" opacity="1.00" d=" M 59.85 79.25 C 61.01 82.86 57.60 85.76 54.10 85.12 L 54.67 84.65 C 56.66 83.12 58.34 81.24 59.85 79.25 Z" />
</g>
</svg>
