<?xml version="1.0" encoding="UTF-8" ?>
<!DOCTYPE svg PUBLIC "-//W3C//DTD SVG 1.1//EN" "http://www.w3.org/Graphics/SVG/1.1/DTD/svg11.dtd">
<svg width="117px" height="140px" viewBox="0 0 117 140" version="1.1" xmlns="http://www.w3.org/2000/svg">
<g id="#181818ff">
<path fill="#181818" opacity="1.00" d=" M 0.00 0.00 L 117.00 0.00 L 117.00 140.00 L 0.00 140.00 L 0.00 0.00 M 61.19 21.23 C 57.71 22.34 55.61 26.93 57.91 30.03 C 60.00 33.83 65.95 33.78 68.03 30.00 C 71.10 25.70 66.05 19.39 61.19 21.23 M 33.07 46.16 C 31.48 47.50 30.07 49.07 28.63 50.56 C 27.32 51.73 28.39 53.86 29.74 54.41 C 30.90 55.83 32.24 57.10 33.58 58.35 C 35.27 59.94 36.65 62.04 38.78 63.04 C 37.23 63.93 35.68 67.16 38.07 67.87 L 37.83 68.10 C 40.37 71.20 45.21 66.35 42.10 63.82 L 40.84 62.98 C 41.51 61.36 41.32 59.58 41.27 57.88 C 41.37 56.30 41.38 54.71 41.30 53.13 C 41.32 50.82 41.38 48.51 41.29 46.20 C 41.24 44.27 42.15 40.52 39.05 40.68 C 36.59 41.81 35.11 44.42 33.07 46.16 M 76.04 41.95 C 75.91 44.54 76.08 47.14 76.05 49.73 C 75.93 51.39 76.02 53.05 76.05 54.71 C 76.52 57.50 74.48 62.24 78.02 63.43 C 81.48 61.29 84.06 57.91 86.99 55.09 C 87.94 54.21 88.98 53.34 89.43 52.07 C 89.10 50.95 88.38 49.80 87.31 49.27 C 84.78 46.61 82.17 44.02 79.59 41.40 C 78.59 40.11 76.71 40.64 76.04 41.95 M 45.33 49.51 C 43.30 50.54 43.61 54.44 46.04 54.55 L 45.61 55.00 C 48.31 55.83 50.84 53.23 50.00 50.54 L 49.52 51.02 C 49.57 49.11 46.62 48.37 45.33 49.51 M 53.30 49.53 C 51.37 50.64 51.64 53.85 53.72 54.64 C 55.97 56.30 58.98 53.04 58.00 50.59 L 57.57 51.01 C 57.49 49.10 54.61 48.36 53.30 49.53 M 60.50 50.34 C 59.36 51.69 60.12 54.24 61.88 54.61 L 61.66 55.00 C 64.37 55.84 66.83 53.15 66.01 50.50 L 65.58 50.90 C 65.12 48.58 61.56 48.35 60.50 50.34 M 69.28 49.55 C 67.34 50.66 67.62 54.07 69.87 54.61 L 69.63 55.00 C 72.29 55.82 74.82 53.24 74.00 50.60 L 73.58 51.00 C 73.47 49.09 70.59 48.34 69.28 49.55 M 76.33 71.29 C 74.12 72.20 73.06 75.39 74.78 77.23 C 76.43 79.89 81.03 78.96 81.66 75.95 C 82.78 72.92 79.14 69.78 76.33 71.29 Z" />
<path fill="#181818" opacity="1.00" d=" M 32.94 51.97 C 34.28 50.48 35.73 49.10 37.21 47.74 C 37.31 49.57 37.32 51.40 37.33 53.22 C 37.30 53.95 37.24 55.40 37.21 56.13 C 36.07 55.40 35.20 54.34 34.22 53.43 C 33.90 53.06 33.26 52.34 32.94 51.97 Z" />
</g>
<g id="#60dc48ff">
<path fill="#60dc48" opacity="1.00" d=" M 61.19 21.23 C 66.05 19.39 71.10 25.70 68.03 30.00 C 65.95 33.78 60.00 33.83 57.91 30.03 C 55.61 26.93 57.71 22.34 61.19 21.23 Z" />
</g>
<g id="#8860f0ff">
<path fill="#8860f0" opacity="1.00" d=" M 33.07 46.16 C 35.11 44.42 36.59 41.81 39.05 40.68 C 42.15 40.52 41.24 44.27 41.29 46.20 C 38.57 46.67 35.78 46.71 33.07 46.16 Z" />
</g>
<g id="#8058f0ff">
<path fill="#8058f0" opacity="1.00" d=" M 76.04 41.95 C 76.71 40.64 78.59 40.11 79.59 41.40 C 82.17 44.02 84.78 46.61 87.31 49.27 C 85.78 49.48 84.27 49.76 82.77 50.14 C 81.84 49.21 80.90 48.30 79.94 47.42 C 79.94 47.98 79.96 49.12 79.97 49.68 C 78.66 49.69 77.36 49.70 76.05 49.73 C 76.08 47.14 75.91 44.54 76.04 41.95 Z" />
</g>
<g id="#6050e0ff">
<path fill="#6050e0" opacity="1.00" d=" M 28.63 50.56 C 30.07 49.07 31.48 47.50 33.07 46.16 C 35.78 46.71 38.57 46.67 41.29 46.20 C 41.38 48.51 41.32 50.82 41.30 53.13 C 40.30 53.16 38.32 53.20 37.33 53.22 C 37.32 51.40 37.31 49.57 37.21 47.74 C 35.73 49.10 34.28 50.48 32.94 51.97 C 33.26 52.34 33.90 53.06 34.22 53.43 C 32.72 53.74 31.23 54.07 29.74 54.41 C 28.39 53.86 27.32 51.73 28.63 50.56 Z" />
</g>
<g id="#1c1b22ff">
<path fill="#1c1b22" opacity="1.00" d=" M 79.94 47.42 C 80.90 48.30 81.84 49.21 82.77 50.14 C 83.19 50.61 84.02 51.55 84.43 52.03 C 83.93 52.56 82.92 53.64 82.41 54.18 C 81.80 54.76 81.20 55.37 80.56 55.92 L 79.93 55.83 C 79.97 53.78 80.04 51.73 79.97 49.68 C 79.96 49.12 79.94 47.98 79.94 47.42 Z" />
</g>
<g id="#f8b860ff">
<path fill="#f8b860" opacity="1.00" d=" M 45.33 49.51 C 46.62 48.37 49.57 49.11 49.52 51.02 C 48.39 52.23 47.23 53.41 46.04 54.55 C 43.61 54.44 43.30 50.54 45.33 49.51 Z" />
<path fill="#f8b860" opacity="1.00" d=" M 53.30 49.53 C 54.61 48.36 57.49 49.10 57.57 51.01 C 56.34 52.27 55.04 53.46 53.72 54.64 C 51.64 53.85 51.37 50.64 53.30 49.53 Z" />
<path fill="#f8b860" opacity="1.00" d=" M 60.50 50.34 C 61.56 48.35 65.12 48.58 65.58 50.90 C 64.35 52.14 63.10 53.36 61.88 54.61 C 60.12 54.24 59.36 51.69 60.50 50.34 Z" />
<path fill="#f8b860" opacity="1.00" d=" M 69.28 49.55 C 70.59 48.34 73.47 49.09 73.58 51.00 C 72.35 52.22 71.12 53.42 69.87 54.61 C 67.62 54.07 67.34 50.66 69.28 49.55 Z" />
</g>
<g id="#584ce0ff">
<path fill="#584ce0" opacity="1.00" d=" M 87.31 49.27 C 88.38 49.80 89.10 50.95 89.43 52.07 C 88.98 53.34 87.94 54.21 86.99 55.09 C 85.46 54.79 83.94 54.48 82.41 54.18 C 82.92 53.64 83.93 52.56 84.43 52.03 C 84.02 51.55 83.19 50.61 82.77 50.14 C 84.27 49.76 85.78 49.48 87.31 49.27 Z" />
<path fill="#584ce0" opacity="1.00" d=" M 76.05 49.73 C 77.36 49.70 78.66 49.69 79.97 49.68 C 80.04 51.73 79.97 53.78 79.93 55.83 C 78.63 55.49 77.33 55.12 76.05 54.71 C 76.02 53.05 75.93 51.39 76.05 49.73 Z" />
</g>
<g id="#da823cff">
<path fill="#da823c" opacity="1.00" d=" M 49.52 51.02 L 50.00 50.54 C 50.84 53.23 48.31 55.83 45.61 55.00 L 46.04 54.55 C 47.23 53.41 48.39 52.23 49.52 51.02 Z" />
<path fill="#da823c" opacity="1.00" d=" M 57.57 51.01 L 58.00 50.59 C 58.98 53.04 55.97 56.30 53.72 54.64 C 55.04 53.46 56.34 52.27 57.57 51.01 Z" />
<path fill="#da823c" opacity="1.00" d=" M 65.58 50.90 L 66.01 50.50 C 66.83 53.15 64.37 55.84 61.66 55.00 L 61.88 54.61 C 63.10 53.36 64.35 52.14 65.58 50.90 Z" />
<path fill="#da823c" opacity="1.00" d=" M 73.58 51.00 L 74.00 50.60 C 74.82 53.24 72.29 55.82 69.63 55.00 L 69.87 54.61 C 71.12 53.42 72.35 52.22 73.58 51.00 Z" />
</g>
<g id="#4044d8ff">
<path fill="#4044d8" opacity="1.00" d=" M 37.33 53.22 C 38.32 53.20 40.30 53.16 41.30 53.13 C 41.38 54.71 41.37 56.30 41.27 57.88 C 38.70 57.87 36.14 58.08 33.58 58.35 C 32.24 57.10 30.90 55.83 29.74 54.41 C 31.23 54.07 32.72 53.74 34.22 53.43 C 35.20 54.34 36.07 55.40 37.21 56.13 C 37.24 55.40 37.30 53.95 37.33 53.22 Z" />
</g>
<g id="#3040d0ff">
<path fill="#3040d0" opacity="1.00" d=" M 80.56 55.92 C 81.20 55.37 81.80 54.76 82.41 54.18 C 83.94 54.48 85.46 54.79 86.99 55.09 C 84.06 57.91 81.48 61.29 78.02 63.43 C 74.48 62.24 76.52 57.50 76.05 54.71 C 77.33 55.12 78.63 55.49 79.93 55.83 L 80.56 55.92 Z" />
</g>
<g id="#283cd0ff">
<path fill="#283cd0" opacity="1.00" d=" M 33.58 58.35 C 36.14 58.08 38.70 57.87 41.27 57.88 C 41.32 59.58 41.51 61.36 40.84 62.98 C 40.33 63.00 39.30 63.02 38.78 63.04 C 36.65 62.04 35.27 59.94 33.58 58.35 Z" />
</g>
<g id="#e0b988ff">
<path fill="#e0b988" opacity="1.00" d=" M 38.78 63.04 C 39.30 63.02 40.33 63.00 40.84 62.98 L 42.10 63.82 C 40.81 65.22 39.48 66.58 38.07 67.87 C 35.68 67.16 37.23 63.93 38.78 63.04 Z" />
</g>
<g id="#da9192ff">
<path fill="#da9192" opacity="1.00" d=" M 42.10 63.82 C 45.21 66.35 40.37 71.20 37.83 68.10 L 38.07 67.87 C 39.48 66.58 40.81 65.22 42.10 63.82 Z" />
</g>
<g id="#3078d0ff">
<path fill="#3078d0" opacity="1.00" d=" M 76.33 71.29 C 79.14 69.78 82.78 72.92 81.66 75.95 C 81.03 78.96 76.43 79.89 74.78 77.23 C 73.06 75.39 74.12 72.20 76.33 71.29 Z" />
</g>
</svg>
