<?xml version="1.0" encoding="UTF-8" ?>
<!DOCTYPE svg PUBLIC "-//W3C//DTD SVG 1.1//EN" "http://www.w3.org/Graphics/SVG/1.1/DTD/svg11.dtd">
<svg width="117px" height="140px" viewBox="0 0 117 140" version="1.1" xmlns="http://www.w3.org/2000/svg">
<g id="#181818ff">
<path fill="#181818" opacity="1.00" d=" M 0.00 0.00 L 117.00 0.00 L 117.00 140.00 L 0.00 140.00 L 0.00 0.00 M 36.93 16.69 C 41.95 21.67 46.99 26.63 51.94 31.69 C 52.63 32.35 53.33 33.01 54.02 33.67 C 57.32 32.90 60.71 32.91 64.01 33.66 C 69.74 28.02 75.37 22.30 81.07 16.64 C 78.05 14.78 74.86 13.21 71.52 11.99 C 60.04 8.31 46.96 9.91 36.93 16.69 M 23.09 20.02 C 24.24 21.49 25.40 23.18 27.33 23.62 C 31.24 24.67 35.47 20.87 34.73 16.86 C 34.54 14.56 32.58 13.16 30.86 11.93 C 26.16 11.08 21.92 15.30 23.09 20.02 M 50.43 44.58 C 50.03 45.74 49.64 46.90 49.25 48.07 L 48.98 48.06 C 49.09 50.03 49.28 51.99 49.57 53.94 C 51.58 57.23 54.90 60.14 58.99 59.93 C 63.08 60.08 66.50 57.31 68.44 53.91 C 68.53 51.98 69.44 49.87 68.75 48.03 L 68.06 47.84 L 68.35 47.20 C 68.16 46.53 67.76 45.18 67.57 44.51 C 65.58 42.36 63.20 40.24 60.12 40.04 C 56.28 39.47 52.75 41.69 50.43 44.58 M 19.03 47.56 C 18.82 53.38 19.76 59.19 21.78 64.65 C 25.42 73.74 32.42 81.32 41.14 85.76 C 43.20 78.05 45.23 70.33 47.39 62.64 C 45.10 60.05 43.35 57.04 42.29 53.75 C 39.64 53.07 36.99 52.37 34.35 51.66 C 29.24 50.32 24.15 48.90 19.03 47.56 M 75.77 53.71 C 74.66 57.01 72.89 60.03 70.62 62.67 C 72.79 70.35 74.80 78.07 76.86 85.78 C 83.59 82.25 89.54 77.02 93.28 70.36 C 93.83 69.14 94.87 67.86 94.39 66.45 C 97.04 67.84 100.92 66.22 100.90 63.02 C 101.17 61.06 99.26 59.94 98.18 58.62 C 98.67 54.96 99.03 51.27 98.97 47.57 C 91.23 49.59 83.53 51.77 75.77 53.71 M 29.30 80.56 C 27.74 81.53 27.52 83.89 28.93 85.08 C 30.56 86.93 34.07 85.52 33.92 83.04 C 34.19 80.77 31.01 78.98 29.30 80.56 Z" />
</g>
<g id="#f8c868ff">
<path fill="#f8c868" opacity="1.00" d=" M 36.93 16.69 C 46.96 9.91 60.04 8.31 71.52 11.99 C 68.14 16.42 63.86 20.05 60.36 24.39 C 57.91 27.20 55.62 30.41 51.94 31.69 C 46.99 26.63 41.95 21.67 36.93 16.69 Z" />
</g>
<g id="#70c8a8ff">
<path fill="#70c8a8" opacity="1.00" d=" M 23.09 20.02 C 21.92 15.30 26.16 11.08 30.86 11.93 C 28.96 15.21 26.69 18.47 23.09 20.02 Z" />
</g>
<g id="#408088ff">
<path fill="#408088" opacity="1.00" d=" M 30.86 11.93 C 32.58 13.16 34.54 14.56 34.73 16.86 C 35.47 20.87 31.24 24.67 27.33 23.62 C 25.40 23.18 24.24 21.49 23.09 20.02 C 26.69 18.47 28.96 15.21 30.86 11.93 Z" />
</g>
<g id="#f8b860ff">
<path fill="#f8b860" opacity="1.00" d=" M 71.52 11.99 C 74.86 13.21 78.05 14.78 81.07 16.64 C 75.37 22.30 69.74 28.02 64.01 33.66 C 60.71 32.91 57.32 32.90 54.02 33.67 C 53.33 33.01 52.63 32.35 51.94 31.69 C 55.62 30.41 57.91 27.20 60.36 24.39 C 63.86 20.05 68.14 16.42 71.52 11.99 Z" />
</g>
<g id="#8860f0ff">
<path fill="#8860f0" opacity="1.00" d=" M 50.43 44.58 C 52.75 41.69 56.28 39.47 60.12 40.04 C 63.20 40.24 65.58 42.36 67.57 44.51 C 61.87 45.17 56.13 45.04 50.43 44.58 Z" />
</g>
<g id="#7054e8ff">
<path fill="#7054e8" opacity="1.00" d=" M 49.25 48.07 C 49.64 46.90 50.03 45.74 50.43 44.58 C 56.13 45.04 61.87 45.17 67.57 44.51 C 67.76 45.18 68.16 46.53 68.35 47.20 L 68.06 47.84 C 61.82 48.62 55.52 48.19 49.25 48.07 Z" />
</g>
<g id="#f8c468ff">
<path fill="#f8c468" opacity="1.00" d=" M 19.03 47.56 C 24.15 48.90 29.24 50.32 34.35 51.66 C 30.12 55.95 26.49 60.83 21.78 64.65 C 19.76 59.19 18.82 53.38 19.03 47.56 Z" />
</g>
<g id="#504ce0ff">
<path fill="#504ce0" opacity="1.00" d=" M 48.98 48.06 L 49.25 48.07 C 55.52 48.19 61.82 48.62 68.06 47.84 L 68.75 48.03 C 69.44 49.87 68.53 51.98 68.44 53.91 C 62.15 53.73 55.86 53.74 49.57 53.94 C 49.28 51.99 49.09 50.03 48.98 48.06 Z" />
</g>
<g id="#f89040ff">
<path fill="#f89040" opacity="1.00" d=" M 75.77 53.71 C 83.53 51.77 91.23 49.59 98.97 47.57 C 99.03 51.27 98.67 54.96 98.18 58.62 C 94.99 58.88 91.54 61.77 93.65 65.12 C 93.84 65.45 94.21 66.12 94.39 66.45 C 94.87 67.86 93.83 69.14 93.28 70.36 C 89.54 77.02 83.59 82.25 76.86 85.78 C 74.80 78.07 72.79 70.35 70.62 62.67 C 72.89 60.03 74.66 57.01 75.77 53.71 Z" />
</g>
<g id="#f8b458ff">
<path fill="#f8b458" opacity="1.00" d=" M 34.35 51.66 C 36.99 52.37 39.64 53.07 42.29 53.75 C 43.35 57.04 45.10 60.05 47.39 62.64 C 45.23 70.33 43.20 78.05 41.14 85.76 C 32.42 81.32 25.42 73.74 21.78 64.65 C 26.49 60.83 30.12 55.95 34.35 51.66 Z" />
</g>
<g id="#283cd0ff">
<path fill="#283cd0" opacity="1.00" d=" M 49.57 53.94 C 55.86 53.74 62.15 53.73 68.44 53.91 C 66.50 57.31 63.08 60.08 58.99 59.93 C 54.90 60.14 51.58 57.23 49.57 53.94 Z" />
</g>
<g id="#c7e318ff">
<path fill="#c7e318" opacity="1.00" d=" M 93.65 65.12 C 91.54 61.77 94.99 58.88 98.18 58.62 C 97.62 61.36 95.68 63.35 93.65 65.12 Z" />
</g>
<g id="#88e008ff">
<path fill="#88e008" opacity="1.00" d=" M 98.18 58.62 C 99.26 59.94 101.17 61.06 100.90 63.02 C 100.92 66.22 97.04 67.84 94.39 66.45 C 94.21 66.12 93.84 65.45 93.65 65.12 C 95.68 63.35 97.62 61.36 98.18 58.62 Z" />
</g>
<g id="#f8a498ff">
<path fill="#f8a498" opacity="1.00" d=" M 29.30 80.56 C 31.01 78.98 34.19 80.77 33.92 83.04 C 34.07 85.52 30.56 86.93 28.93 85.08 C 27.52 83.89 27.74 81.53 29.30 80.56 Z" />
</g>
</svg>
