<?xml version="1.0" encoding="UTF-8" ?>
<!DOCTYPE svg PUBLIC "-//W3C//DTD SVG 1.1//EN" "http://www.w3.org/Graphics/SVG/1.1/DTD/svg11.dtd">
<svg width="117px" height="140px" viewBox="0 0 117 140" version="1.1" xmlns="http://www.w3.org/2000/svg">
<g id="#181818ff">
<path fill="#181818" opacity="1.00" d=" M 0.00 0.00 L 117.00 0.00 L 117.00 140.00 L 0.00 140.00 L 0.00 0.00 M 43.29 23.18 C 43.15 16.02 32.15 14.84 31.02 22.08 C 29.81 28.28 39.30 31.77 42.09 25.99 C 48.92 27.39 56.56 25.42 53.10 36.00 C 52.96 38.64 52.89 41.29 52.91 43.94 C 47.31 44.20 41.70 44.03 36.10 43.95 C 36.05 41.45 35.96 36.47 35.91 33.98 C 30.15 33.02 27.83 39.98 23.73 42.73 C 21.54 44.87 15.38 49.75 18.97 52.28 C 23.61 56.88 27.75 62.18 33.10 65.94 C 39.07 67.97 34.48 58.65 36.08 56.06 C 41.68 55.80 47.30 55.97 52.91 56.05 C 53.20 60.70 52.86 65.37 53.20 70.03 C 54.41 77.09 41.23 69.19 42.25 75.71 C 47.89 80.57 52.45 87.95 58.99 91.04 C 65.80 88.28 69.89 80.25 75.82 75.75 C 76.37 69.07 62.60 77.25 64.84 69.01 C 65.24 64.71 64.88 60.37 65.06 56.06 C 70.67 55.80 76.29 55.97 81.90 56.05 C 81.95 58.55 82.04 63.53 82.09 66.02 C 89.33 66.39 92.28 57.24 97.78 53.79 C 104.86 50.20 97.10 45.71 94.10 42.76 C 93.46 41.86 92.71 41.00 91.72 40.46 C 100.32 37.33 89.80 26.66 86.95 35.20 C 81.56 28.66 81.07 40.08 81.90 43.93 C 75.01 42.94 60.61 48.67 64.89 36.00 C 65.93 32.18 61.77 23.54 70.01 27.00 C 76.04 30.59 75.22 25.84 74.76 23.29 C 69.54 18.14 64.64 12.57 58.97 7.94 C 53.33 12.45 48.58 18.21 43.29 23.18 M 38.22 81.12 C 35.87 82.59 36.62 87.80 40.00 87.03 C 45.31 87.50 43.13 78.40 38.22 81.12 Z" />
</g>
<g id="#7e59e7ff">
<path fill="#7e59e7" opacity="1.00" d=" M 43.29 23.18 C 48.58 18.21 53.33 12.45 58.97 7.94 C 64.64 12.57 69.54 18.14 74.76 23.29 C 75.22 25.84 76.04 30.59 70.01 27.00 C 61.77 23.54 65.93 32.18 64.89 36.00 C 63.59 36.00 62.28 36.00 60.98 36.00 C 61.08 29.61 57.91 19.71 68.08 22.84 C 65.18 19.71 62.42 16.37 58.96 13.84 C 55.70 16.60 52.64 19.61 49.84 22.84 C 60.23 19.39 56.50 29.98 57.01 36.00 C 55.71 36.00 54.40 36.00 53.10 36.00 C 56.56 25.42 48.92 27.39 42.09 25.99 C 42.49 25.05 42.89 24.12 43.29 23.18 Z" />
</g>
<g id="#181819ff">
<path fill="#181819" opacity="1.00" d=" M 49.84 22.84 C 52.64 19.61 55.70 16.60 58.96 13.84 C 62.42 16.37 65.18 19.71 68.08 22.84 C 57.91 19.71 61.08 29.61 60.98 36.00 C 60.93 39.98 60.96 43.96 61.07 47.93 C 69.27 48.13 77.47 48.16 85.67 47.88 C 85.85 46.16 86.19 42.71 86.36 40.98 C 87.77 42.37 89.22 43.72 90.68 45.05 C 92.23 46.65 93.87 48.20 95.16 50.04 C 92.39 53.30 89.39 56.36 86.16 59.16 C 86.08 57.39 85.92 53.85 85.85 52.07 C 77.59 51.86 69.34 51.87 61.09 52.09 C 60.92 57.73 60.93 63.36 60.98 69.00 C 58.72 76.12 61.88 78.15 68.08 77.16 C 65.18 80.29 62.42 83.63 58.96 86.16 C 55.70 83.40 52.64 80.39 49.84 77.16 C 56.91 79.46 57.75 75.32 57.02 70.00 C 57.00 64.02 57.22 58.04 56.91 52.07 C 48.69 51.87 40.47 51.85 32.25 52.10 C 34.40 65.01 27.48 54.06 23.17 51.01 C 24.75 46.74 28.60 43.96 31.75 40.89 C 31.85 42.64 32.06 46.16 32.16 47.92 C 40.41 48.14 48.67 48.13 56.92 47.91 C 57.02 43.94 57.05 39.97 57.01 36.00 C 56.50 29.98 60.23 19.39 49.84 22.84 Z" />
</g>
<g id="#efaf98ff">
<path fill="#efaf98" opacity="1.00" d=" M 31.02 22.08 C 32.15 14.84 43.15 16.02 43.29 23.18 C 42.89 24.12 42.49 25.05 42.09 25.99 C 39.30 31.77 29.81 28.28 31.02 22.08 Z" />
</g>
<g id="#95d712ff">
<path fill="#95d712" opacity="1.00" d=" M 86.95 35.20 C 89.80 26.66 100.32 37.33 91.72 40.46 C 90.05 39.74 88.43 38.90 86.86 37.98 C 86.88 37.29 86.92 35.90 86.95 35.20 Z" />
</g>
<g id="#6150dfff">
<path fill="#6150df" opacity="1.00" d=" M 81.90 43.93 C 81.07 40.08 81.56 28.66 86.95 35.20 C 86.92 35.90 86.88 37.29 86.86 37.98 C 86.68 38.98 86.51 39.98 86.36 40.98 C 86.19 42.71 85.85 46.16 85.67 47.88 C 77.47 48.16 69.27 48.13 61.07 47.93 C 60.96 43.96 60.93 39.98 60.98 36.00 C 62.28 36.00 63.59 36.00 64.89 36.00 C 60.61 48.67 75.01 42.94 81.90 43.93 Z" />
</g>
<g id="#604fdeff">
<path fill="#604fde" opacity="1.00" d=" M 23.73 42.73 C 27.83 39.98 30.15 33.02 35.91 33.98 C 35.96 36.47 36.05 41.45 36.10 43.95 C 41.70 44.03 47.31 44.20 52.91 43.94 C 52.89 41.29 52.96 38.64 53.10 36.00 C 54.40 36.00 55.71 36.00 57.01 36.00 C 57.05 39.97 57.02 43.94 56.92 47.91 C 48.67 48.13 40.41 48.14 32.16 47.92 C 32.06 46.16 31.85 42.64 31.75 40.89 C 28.60 43.96 24.75 46.74 23.17 51.01 C 21.81 51.56 20.40 51.95 18.97 52.28 C 15.38 49.75 21.54 44.87 23.73 42.73 Z" />
</g>
<g id="#433796ff">
<path fill="#433796" opacity="1.00" d=" M 86.86 37.98 C 88.43 38.90 90.05 39.74 91.72 40.46 C 92.71 41.00 93.46 41.86 94.10 42.76 C 92.95 43.51 91.81 44.27 90.68 45.05 C 89.22 43.72 87.77 42.37 86.36 40.98 C 86.51 39.98 86.68 38.98 86.86 37.98 Z" />
</g>
<g id="#4b47d5ff">
<path fill="#4b47d5" opacity="1.00" d=" M 90.68 45.05 C 91.81 44.27 92.95 43.51 94.10 42.76 C 97.10 45.71 104.86 50.20 97.78 53.79 C 92.28 57.24 89.33 66.39 82.09 66.02 C 82.04 63.53 81.95 58.55 81.90 56.05 C 76.29 55.97 70.67 55.80 65.06 56.06 C 64.88 60.37 65.24 64.71 64.84 69.01 C 63.55 69.01 62.27 69.00 60.98 69.00 C 60.93 63.36 60.92 57.73 61.09 52.09 C 69.34 51.87 77.59 51.86 85.85 52.07 C 85.92 53.85 86.08 57.39 86.16 59.16 C 89.39 56.36 92.39 53.30 95.16 50.04 C 93.87 48.20 92.23 46.65 90.68 45.05 Z" />
</g>
<g id="#4947d7ff">
<path fill="#4947d7" opacity="1.00" d=" M 23.17 51.01 C 27.48 54.06 34.40 65.01 32.25 52.10 C 40.47 51.85 48.69 51.87 56.91 52.07 C 57.22 58.04 57.00 64.02 57.02 70.00 C 55.74 70.00 54.47 70.02 53.20 70.03 C 52.86 65.37 53.20 60.70 52.91 56.05 C 47.30 55.97 41.68 55.80 36.08 56.06 C 34.48 58.65 39.07 67.97 33.10 65.94 C 27.75 62.18 23.61 56.88 18.97 52.28 C 20.40 51.95 21.81 51.56 23.17 51.01 Z" />
</g>
<g id="#293ac6ff">
<path fill="#293ac6" opacity="1.00" d=" M 60.98 69.00 C 62.27 69.00 63.55 69.01 64.84 69.01 C 62.60 77.25 76.37 69.07 75.82 75.75 C 69.89 80.25 65.80 88.28 58.99 91.04 C 52.45 87.95 47.89 80.57 42.25 75.71 C 41.23 69.19 54.41 77.09 53.20 70.03 C 54.47 70.02 55.74 70.00 57.02 70.00 C 57.75 75.32 56.91 79.46 49.84 77.16 C 52.64 80.39 55.70 83.40 58.96 86.16 C 62.42 83.63 65.18 80.29 68.08 77.16 C 61.88 78.15 58.72 76.12 60.98 69.00 Z" />
</g>
<g id="#303adbff">
<path fill="#303adb" opacity="1.00" d=" M 38.22 81.12 C 43.13 78.40 45.31 87.50 40.00 87.03 C 36.62 87.80 35.87 82.59 38.22 81.12 Z" />
</g>
</svg>
