<?xml version="1.0" encoding="UTF-8" ?>
<!DOCTYPE svg PUBLIC "-//W3C//DTD SVG 1.1//EN" "http://www.w3.org/Graphics/SVG/1.1/DTD/svg11.dtd">
<svg width="117px" height="140px" viewBox="0 0 117 140" version="1.1" xmlns="http://www.w3.org/2000/svg">
<g id="#181818ff">
<path fill="#181818" opacity="1.00" d=" M 0.00 0.00 L 117.00 0.00 L 117.00 140.00 L 0.00 140.00 L 0.00 0.00 M 58.28 23.35 C 55.64 26.29 57.44 30.37 60.18 32.48 C 65.04 34.66 70.25 29.80 68.89 24.79 L 68.63 25.01 C 67.10 20.74 60.95 19.49 58.28 23.35 M 31.56 47.58 C 29.93 49.30 26.92 51.13 28.76 53.83 C 30.87 55.54 32.69 57.55 34.62 59.46 C 35.83 60.69 37.10 61.86 38.48 62.91 C 36.77 64.60 36.70 66.86 38.05 68.77 C 41.21 70.03 44.06 67.10 42.76 63.97 C 42.26 63.79 41.26 63.44 40.76 63.27 C 41.01 61.80 41.23 60.32 41.42 58.84 C 41.31 56.70 41.28 54.55 41.28 52.40 C 41.15 48.65 41.77 44.80 40.89 41.12 C 40.43 40.99 39.50 40.75 39.03 40.62 C 36.10 42.41 34.10 45.33 31.56 47.58 M 76.10 41.92 C 75.86 44.28 75.99 46.65 76.02 49.01 C 76.02 50.94 76.02 52.87 76.02 54.80 C 76.01 57.22 75.86 59.67 76.23 62.07 C 76.67 63.56 78.65 63.57 79.53 62.48 C 83.02 59.11 86.65 55.83 89.73 52.06 C 86.63 48.27 83.08 44.86 79.58 41.46 C 78.60 40.18 76.76 40.59 76.10 41.92 M 44.88 49.87 C 43.19 51.37 44.48 53.50 45.31 55.06 C 48.13 55.59 50.58 53.56 50.22 50.59 L 49.90 50.88 C 48.79 49.27 46.43 48.16 44.88 49.87 M 52.86 49.90 C 51.14 51.44 52.32 53.74 53.82 54.91 L 53.56 55.18 C 56.38 55.55 58.55 53.35 58.19 50.55 L 57.89 50.83 C 56.74 49.28 54.39 48.14 52.86 49.90 M 60.91 49.84 C 59.14 51.39 60.28 53.78 61.86 54.93 L 61.63 55.18 C 64.44 55.55 66.56 53.28 66.18 50.51 L 65.85 50.83 C 64.75 49.25 62.44 48.19 60.91 49.84 M 68.92 49.85 C 67.13 51.37 68.27 53.79 69.87 54.91 L 69.60 55.20 C 72.42 55.53 74.57 53.30 74.19 50.50 L 73.86 50.82 C 72.74 49.28 70.43 48.17 68.92 49.85 M 75.05 77.41 L 74.46 78.01 C 76.47 78.49 79.08 79.67 80.70 77.68 C 82.66 76.06 81.50 73.47 81.04 71.46 L 80.46 72.04 C 77.01 68.82 71.80 73.94 75.05 77.41 Z" />
<path fill="#181818" opacity="1.00" d=" M 36.54 48.29 C 36.76 48.27 37.22 48.24 37.45 48.23 C 37.41 49.69 37.36 51.15 37.32 52.61 C 37.30 53.53 37.25 55.36 37.23 56.28 C 35.74 54.86 34.26 53.42 32.77 52.00 C 34.08 50.82 35.26 49.51 36.54 48.29 Z" />
</g>
<g id="#60e050ff">
<path fill="#60e050" opacity="1.00" d=" M 58.28 23.35 C 60.95 19.49 67.10 20.74 68.63 25.01 C 65.73 27.41 62.95 29.94 60.18 32.48 C 57.44 30.37 55.64 26.29 58.28 23.35 Z" />
</g>
<g id="#50d038ff">
<path fill="#50d038" opacity="1.00" d=" M 68.63 25.01 L 68.89 24.79 C 70.25 29.80 65.04 34.66 60.18 32.48 C 62.95 29.94 65.73 27.41 68.63 25.01 Z" />
</g>
<g id="#7858e8ff">
<path fill="#7858e8" opacity="1.00" d=" M 31.56 47.58 C 34.10 45.33 36.10 42.41 39.03 40.62 C 39.50 40.75 40.43 40.99 40.89 41.12 C 41.77 44.80 41.15 48.65 41.28 52.40 C 40.29 52.45 38.31 52.56 37.32 52.61 C 37.36 51.15 37.41 49.69 37.45 48.23 C 37.22 48.24 36.76 48.27 36.54 48.29 C 34.87 48.07 33.21 47.84 31.56 47.58 Z" />
<path fill="#7858e8" opacity="1.00" d=" M 76.10 41.92 C 76.76 40.59 78.60 40.18 79.58 41.46 C 83.08 44.86 86.63 48.27 89.73 52.06 C 87.97 51.90 86.22 51.76 84.46 51.63 C 83.04 50.30 81.63 48.97 80.21 47.65 L 80.07 48.47 C 78.72 48.67 77.37 48.85 76.02 49.01 C 75.99 46.65 75.86 44.28 76.10 41.92 Z" />
</g>
<g id="#6050e0ff">
<path fill="#6050e0" opacity="1.00" d=" M 28.76 53.83 C 26.92 51.13 29.93 49.30 31.56 47.58 C 33.21 47.84 34.87 48.07 36.54 48.29 C 35.26 49.51 34.08 50.82 32.77 52.00 C 31.45 52.64 30.11 53.25 28.76 53.83 Z" />
</g>
<g id="#1b1b22ff">
<path fill="#1b1b22" opacity="1.00" d=" M 80.21 47.65 C 81.63 48.97 83.04 50.30 84.46 51.63 C 83.17 53.13 81.89 54.63 80.59 56.12 L 79.95 55.71 C 79.86 53.30 79.89 50.88 80.07 48.47 L 80.21 47.65 Z" />
</g>
<g id="#f8b860ff">
<path fill="#f8b860" opacity="1.00" d=" M 44.88 49.87 C 46.43 48.16 48.79 49.27 49.90 50.88 C 48.36 52.26 46.83 53.65 45.31 55.06 C 44.48 53.50 43.19 51.37 44.88 49.87 Z" />
<path fill="#f8b860" opacity="1.00" d=" M 52.86 49.90 C 54.39 48.14 56.74 49.28 57.89 50.83 C 56.48 52.14 55.13 53.51 53.82 54.91 C 52.32 53.74 51.14 51.44 52.86 49.90 Z" />
<path fill="#f8b860" opacity="1.00" d=" M 60.91 49.84 C 62.44 48.19 64.75 49.25 65.85 50.83 C 64.47 52.15 63.14 53.52 61.86 54.93 C 60.28 53.78 59.14 51.39 60.91 49.84 Z" />
<path fill="#f8b860" opacity="1.00" d=" M 68.92 49.85 C 70.43 48.17 72.74 49.28 73.86 50.82 C 72.48 52.13 71.15 53.50 69.87 54.91 C 68.27 53.79 67.13 51.37 68.92 49.85 Z" />
</g>
<g id="#584ce0ff">
<path fill="#584ce0" opacity="1.00" d=" M 76.02 49.01 C 77.37 48.85 78.72 48.67 80.07 48.47 C 79.89 50.88 79.86 53.30 79.95 55.71 C 78.64 55.38 77.34 55.08 76.02 54.80 C 76.02 52.87 76.02 50.94 76.02 49.01 Z" />
</g>
<g id="#d6813bff">
<path fill="#d6813b" opacity="1.00" d=" M 49.90 50.88 L 50.22 50.59 C 50.58 53.56 48.13 55.59 45.31 55.06 C 46.83 53.65 48.36 52.26 49.90 50.88 Z" />
<path fill="#d6813b" opacity="1.00" d=" M 57.89 50.83 L 58.19 50.55 C 58.55 53.35 56.38 55.55 53.56 55.18 L 53.82 54.91 C 55.13 53.51 56.48 52.14 57.89 50.83 Z" />
<path fill="#d6813b" opacity="1.00" d=" M 65.85 50.83 L 66.18 50.51 C 66.56 53.28 64.44 55.55 61.63 55.18 L 61.86 54.93 C 63.14 53.52 64.47 52.15 65.85 50.83 Z" />
<path fill="#d6813b" opacity="1.00" d=" M 73.86 50.82 L 74.19 50.50 C 74.57 53.30 72.42 55.53 69.60 55.20 L 69.87 54.91 C 71.15 53.50 72.48 52.13 73.86 50.82 Z" />
</g>
<g id="#3040d0ff">
<path fill="#3040d0" opacity="1.00" d=" M 84.46 51.63 C 86.22 51.76 87.97 51.90 89.73 52.06 C 86.65 55.83 83.02 59.11 79.53 62.48 C 78.65 63.57 76.67 63.56 76.23 62.07 C 75.86 59.67 76.01 57.22 76.02 54.80 C 77.34 55.08 78.64 55.38 79.95 55.71 L 80.59 56.12 C 81.89 54.63 83.17 53.13 84.46 51.63 Z" />
</g>
<g id="#3840d0ff">
<path fill="#3840d0" opacity="1.00" d=" M 28.76 53.83 C 30.11 53.25 31.45 52.64 32.77 52.00 C 34.26 53.42 35.74 54.86 37.23 56.28 C 37.25 55.36 37.30 53.53 37.32 52.61 C 38.31 52.56 40.29 52.45 41.28 52.40 C 41.28 54.55 41.31 56.70 41.42 58.84 C 39.15 59.04 36.88 59.24 34.62 59.46 C 32.69 57.55 30.87 55.54 28.76 53.83 Z" />
</g>
<g id="#2038c8ff">
<path fill="#2038c8" opacity="1.00" d=" M 34.62 59.46 C 36.88 59.24 39.15 59.04 41.42 58.84 C 41.23 60.32 41.01 61.80 40.76 63.27 C 40.19 63.18 39.05 63.00 38.48 62.91 C 37.10 61.86 35.83 60.69 34.62 59.46 Z" />
</g>
<g id="#dab084ff">
<path fill="#dab084" opacity="1.00" d=" M 38.48 62.91 C 39.05 63.00 40.19 63.18 40.76 63.27 C 41.26 63.44 42.26 63.79 42.76 63.97 C 41.19 65.57 39.62 67.17 38.05 68.77 C 36.70 66.86 36.77 64.60 38.48 62.91 Z" />
</g>
<g id="#d78b93ff">
<path fill="#d78b93" opacity="1.00" d=" M 38.05 68.77 C 39.62 67.17 41.19 65.57 42.76 63.97 C 44.06 67.10 41.21 70.03 38.05 68.77 Z" />
</g>
<g id="#38a0d8ff">
<path fill="#38a0d8" opacity="1.00" d=" M 75.05 77.41 C 71.80 73.94 77.01 68.82 80.46 72.04 C 78.63 73.80 76.81 75.58 75.05 77.41 Z" />
</g>
<g id="#285cc8ff">
<path fill="#285cc8" opacity="1.00" d=" M 80.46 72.04 L 81.04 71.46 C 81.50 73.47 82.66 76.06 80.70 77.68 C 79.08 79.67 76.47 78.49 74.46 78.01 L 75.05 77.41 C 76.81 75.58 78.63 73.80 80.46 72.04 Z" />
</g>
</svg>
