<?xml version="1.0" encoding="UTF-8" ?>
<!DOCTYPE svg PUBLIC "-//W3C//DTD SVG 1.1//EN" "http://www.w3.org/Graphics/SVG/1.1/DTD/svg11.dtd">
<svg width="117px" height="140px" viewBox="0 0 117 140" version="1.1" xmlns="http://www.w3.org/2000/svg">
<g id="#181818ff">
<path fill="#181818" opacity="1.00" d=" M 0.00 0.00 L 117.00 0.00 L 117.00 140.00 L 0.00 140.00 L 0.00 0.00 M 33.70 35.44 C 33.72 47.25 33.69 59.07 33.76 70.89 C 41.15 70.93 48.54 70.85 55.93 70.93 C 55.92 68.98 55.92 67.04 55.93 65.09 C 50.89 65.16 45.84 65.12 40.80 65.13 C 40.79 61.94 40.80 58.75 40.84 55.55 C 45.00 55.50 49.16 55.58 53.32 55.51 C 53.32 53.54 53.33 51.57 53.32 49.60 C 49.23 49.58 45.14 49.55 41.06 49.64 C 40.75 46.91 40.85 44.16 40.98 41.42 C 45.84 41.42 50.70 41.44 55.55 41.41 C 55.60 39.42 55.60 37.43 55.57 35.44 C 48.28 35.38 40.99 35.38 33.70 35.44 M 62.65 44.04 C 62.64 52.99 62.70 61.94 62.68 70.89 C 65.00 70.90 67.33 70.90 69.66 70.91 C 69.71 64.71 69.43 58.48 69.88 52.30 C 71.70 50.53 74.30 48.78 76.93 49.87 C 78.89 50.72 79.01 53.18 79.07 55.01 C 79.16 60.31 79.11 65.62 79.15 70.93 C 81.48 70.90 83.80 70.90 86.12 70.88 C 86.02 64.58 86.34 58.26 86.02 51.97 C 85.90 48.33 83.81 44.23 79.88 43.64 C 75.78 42.66 71.90 44.95 68.99 47.63 C 68.85 46.74 68.56 44.96 68.42 44.07 C 66.50 44.04 64.57 44.05 62.65 44.04 Z" />
</g>
<g id="#4f49dcff">
<path fill="#4f49dc" opacity="1.00" d=" M 33.70 35.44 C 40.99 35.38 48.28 35.38 55.57 35.44 C 55.60 37.43 55.60 39.42 55.55 41.41 C 50.70 41.44 45.84 41.42 40.98 41.42 C 40.85 44.16 40.75 46.91 41.06 49.64 C 45.14 49.55 49.23 49.58 53.32 49.60 C 53.33 51.57 53.32 53.54 53.32 55.51 C 49.16 55.58 45.00 55.50 40.84 55.55 C 40.80 58.75 40.79 61.94 40.80 65.13 C 45.84 65.12 50.89 65.16 55.93 65.09 C 55.92 67.04 55.92 68.98 55.93 70.93 C 48.54 70.85 41.15 70.93 33.76 70.89 C 33.69 59.07 33.72 47.25 33.70 35.44 Z" />
<path fill="#4f49dc" opacity="1.00" d=" M 62.65 44.04 C 64.57 44.05 66.50 44.04 68.42 44.07 C 68.56 44.96 68.85 46.74 68.99 47.63 C 71.90 44.95 75.78 42.66 79.88 43.64 C 83.81 44.23 85.90 48.33 86.02 51.97 C 86.34 58.26 86.02 64.58 86.12 70.88 C 83.80 70.90 81.48 70.90 79.15 70.93 C 79.11 65.62 79.16 60.31 79.07 55.01 C 79.01 53.18 78.89 50.72 76.93 49.87 C 74.30 48.78 71.70 50.53 69.88 52.30 C 69.43 58.48 69.71 64.71 69.66 70.91 C 67.33 70.90 65.00 70.90 62.68 70.89 C 62.70 61.94 62.64 52.99 62.65 44.04 Z" />
</g>
</svg>
