<?xml version="1.0" encoding="UTF-8" ?>
<!DOCTYPE svg PUBLIC "-//W3C//DTD SVG 1.1//EN" "http://www.w3.org/Graphics/SVG/1.1/DTD/svg11.dtd">
<svg width="117px" height="140px" viewBox="0 0 117 140" version="1.1" xmlns="http://www.w3.org/2000/svg">
<g id="#f8a04aff">
<path fill="#f8a04a" opacity="1.00" d=" M 0.00 0.00 L 0.31 0.00 C 0.23 0.08 0.08 0.24 0.00 0.32 L 0.00 0.00 Z" />
<path fill="#f8a04a" opacity="1.00" d=" M 59.09 32.68 C 72.36 32.49 85.63 32.59 98.91 32.67 C 97.71 36.52 94.17 38.76 91.58 41.59 C 88.18 44.86 85.01 48.38 81.49 51.51 C 79.92 53.09 77.33 52.62 75.95 51.04 C 71.19 46.45 66.60 41.69 61.85 37.09 C 60.52 35.91 59.73 34.31 59.09 32.68 Z" />
</g>
<g id="#181818ff">
<path fill="#181818" opacity="1.00" d=" M 0.31 0.00 L 117.00 0.00 L 117.00 140.00 L 0.00 140.00 L 0.00 0.32 C 0.08 0.24 0.23 0.08 0.31 0.00 M 76.40 14.47 C 73.22 17.24 70.43 20.43 67.40 23.37 C 64.57 26.41 61.17 29.01 59.09 32.68 C 59.73 34.31 60.52 35.91 61.85 37.09 C 66.60 41.69 71.19 46.45 75.95 51.04 C 77.33 52.62 79.92 53.09 81.49 51.51 C 85.01 48.38 88.18 44.86 91.58 41.59 C 94.17 38.76 97.71 36.52 98.91 32.67 C 96.82 29.01 93.44 26.42 90.61 23.39 C 87.55 20.44 84.75 17.21 81.54 14.42 C 80.14 13.09 77.78 13.12 76.40 14.47 M 22.33 18.32 C 19.82 21.06 21.09 25.70 24.31 27.26 C 24.29 27.91 24.27 29.21 24.25 29.87 C 24.01 34.60 23.80 39.36 24.09 44.10 C 24.04 46.11 25.83 47.94 27.86 47.89 C 34.91 48.09 41.98 47.95 49.04 47.96 C 51.37 48.28 53.97 46.68 53.90 44.15 C 54.18 38.89 53.92 33.61 54.00 28.34 C 53.67 25.00 55.37 19.53 51.07 18.20 C 44.54 17.70 37.96 18.13 31.40 18.01 C 29.10 15.26 24.43 15.36 22.33 18.32 M 90.10 58.06 C 82.40 58.07 74.67 57.76 66.99 58.17 C 63.71 58.86 63.98 62.74 63.93 65.30 C 64.16 71.54 63.79 77.80 64.10 84.04 C 64.02 86.08 65.82 87.96 67.88 87.87 C 75.29 88.02 82.71 88.03 90.12 87.87 C 92.63 87.99 94.26 85.41 93.97 83.11 C 93.99 76.13 94.29 69.13 93.46 62.19 C 96.64 62.28 99.34 58.56 97.29 55.79 C 95.34 52.56 89.85 54.27 90.10 58.06 M 23.99 66.97 C 24.15 72.98 23.69 79.01 24.22 85.00 C 24.86 88.07 28.48 88.19 30.98 87.88 C 37.64 87.17 44.32 88.53 50.97 87.77 C 52.67 87.49 53.94 85.76 53.92 84.07 C 54.18 78.05 53.87 72.01 54.05 65.99 C 53.85 63.94 54.35 61.67 53.33 59.80 C 51.73 57.36 48.49 58.12 46.02 57.97 C 39.70 58.17 33.35 57.72 27.03 58.17 C 23.11 59.13 24.11 63.96 23.99 66.97 Z" />
<path fill="#181818" opacity="1.00" d=" M 33.13 21.96 C 38.76 22.00 44.39 22.00 50.01 22.00 C 49.99 24.11 50.01 26.22 50.00 28.33 C 50.00 33.56 49.99 38.78 50.00 44.01 C 42.66 44.02 35.33 44.01 27.99 44.01 C 28.09 39.66 28.01 35.31 27.78 30.96 C 27.74 30.32 27.65 29.04 27.60 28.40 C 30.24 27.05 32.78 25.13 33.13 21.96 Z" />
<path fill="#181818" opacity="1.00" d=" M 27.99 62.00 C 35.33 62.00 42.66 62.00 50.00 62.00 C 50.00 62.81 49.99 64.42 49.99 65.23 C 50.00 71.48 50.00 77.74 50.00 84.00 C 46.43 83.92 42.85 84.00 39.29 84.25 C 38.76 82.55 38.35 79.80 35.97 79.96 C 33.60 79.73 33.12 82.59 32.51 84.24 C 31.00 84.12 29.50 84.02 28.00 83.93 C 28.00 78.00 28.00 72.07 28.00 66.14 C 28.01 64.76 28.00 63.38 27.99 62.00 Z" />
<path fill="#181818" opacity="1.00" d=" M 68.00 62.00 C 75.17 62.11 82.34 61.83 89.50 62.06 L 90.14 62.17 C 89.97 69.45 89.98 76.72 89.99 84.00 C 82.66 84.00 75.33 84.00 68.00 84.00 C 68.00 77.76 67.99 71.51 68.01 65.27 C 68.01 64.45 68.01 62.82 68.00 62.00 Z" />
</g>
<g id="#f8be6eff">
<path fill="#f8be6e" opacity="1.00" d=" M 76.40 14.47 C 77.78 13.12 80.14 13.09 81.54 14.42 C 84.75 17.21 87.55 20.44 90.61 23.39 C 93.44 26.42 96.82 29.01 98.91 32.67 C 85.63 32.59 72.36 32.49 59.09 32.68 C 61.17 29.01 64.57 26.41 67.40 23.37 C 70.43 20.43 73.22 17.24 76.40 14.47 Z" />
<path fill="#f8be6e" opacity="1.00" d=" M 22.33 18.32 C 24.43 15.36 29.10 15.26 31.40 18.01 C 32.03 19.30 32.63 20.61 33.13 21.96 C 32.78 25.13 30.24 27.05 27.60 28.40 C 26.50 28.02 25.39 27.67 24.31 27.26 C 21.09 25.70 19.82 21.06 22.33 18.32 Z" />
</g>
<g id="#8e60f3ff">
<path fill="#8e60f3" opacity="1.00" d=" M 31.40 18.01 C 37.96 18.13 44.54 17.70 51.07 18.20 C 55.37 19.53 53.67 25.00 54.00 28.34 C 52.67 28.33 51.33 28.32 50.00 28.33 C 50.01 26.22 49.99 24.11 50.01 22.00 C 44.39 22.00 38.76 22.00 33.13 21.96 C 32.63 20.61 32.03 19.30 31.40 18.01 Z" />
<path fill="#8e60f3" opacity="1.00" d=" M 32.51 84.24 C 33.12 82.59 33.60 79.73 35.97 79.96 C 38.35 79.80 38.76 82.55 39.29 84.25 C 38.22 84.87 37.20 85.60 36.03 86.02 C 34.72 85.74 33.65 84.87 32.51 84.24 Z" />
</g>
<g id="#1e37c7ff">
<path fill="#1e37c7" opacity="1.00" d=" M 24.31 27.26 C 25.39 27.67 26.50 28.02 27.60 28.40 C 27.65 29.04 27.74 30.32 27.78 30.96 C 26.61 30.57 25.44 30.20 24.25 29.87 C 24.27 29.21 24.29 27.91 24.31 27.26 Z" />
<path fill="#1e37c7" opacity="1.00" d=" M 89.50 62.06 C 89.60 61.43 89.79 60.18 89.88 59.56 C 91.04 60.49 92.22 61.39 93.46 62.19 C 94.29 69.13 93.99 76.13 93.97 83.11 C 94.26 85.41 92.63 87.99 90.12 87.87 C 82.71 88.03 75.29 88.02 67.88 87.87 C 65.82 87.96 64.02 86.08 64.10 84.04 C 63.79 77.80 64.16 71.54 63.93 65.30 C 64.47 65.53 65.53 65.98 66.07 66.20 C 66.55 65.97 67.52 65.50 68.01 65.27 C 67.99 71.51 68.00 77.76 68.00 84.00 C 75.33 84.00 82.66 84.00 89.99 84.00 C 89.98 76.72 89.97 69.45 90.14 62.17 L 89.50 62.06 Z" />
<path fill="#1e37c7" opacity="1.00" d=" M 49.99 65.23 C 51.34 65.48 52.70 65.73 54.05 65.99 C 53.87 72.01 54.18 78.05 53.92 84.07 C 53.94 85.76 52.67 87.49 50.97 87.77 C 44.32 88.53 37.64 87.17 30.98 87.88 C 28.48 88.19 24.86 88.07 24.22 85.00 C 23.69 79.01 24.15 72.98 23.99 66.97 C 25.32 66.70 26.66 66.42 28.00 66.14 C 28.00 72.07 28.00 78.00 28.00 83.93 C 29.50 84.02 31.00 84.12 32.51 84.24 C 33.65 84.87 34.72 85.74 36.03 86.02 C 37.20 85.60 38.22 84.87 39.29 84.25 C 42.85 84.00 46.43 83.92 50.00 84.00 C 50.00 77.74 50.00 71.48 49.99 65.23 Z" />
</g>
<g id="#6752e3ff">
<path fill="#6752e3" opacity="1.00" d=" M 50.00 28.33 C 51.33 28.32 52.67 28.33 54.00 28.34 C 53.92 33.61 54.18 38.89 53.90 44.15 C 53.97 46.68 51.37 48.28 49.04 47.96 C 41.98 47.95 34.91 48.09 27.86 47.89 C 25.83 47.94 24.04 46.11 24.09 44.10 C 23.80 39.36 24.01 34.60 24.25 29.87 C 25.44 30.20 26.61 30.57 27.78 30.96 C 28.01 35.31 28.09 39.66 27.99 44.01 C 35.33 44.01 42.66 44.02 50.00 44.01 C 49.99 38.78 50.00 33.56 50.00 28.33 Z" />
</g>
<g id="#2eedcaff">
<path fill="#2eedca" opacity="1.00" d=" M 90.10 58.06 C 89.85 54.27 95.34 52.56 97.29 55.79 C 99.34 58.56 96.64 62.28 93.46 62.19 C 92.22 61.39 91.04 60.49 89.88 59.56 C 89.94 59.19 90.05 58.44 90.10 58.06 Z" />
</g>
<g id="#4245d6ff">
<path fill="#4245d6" opacity="1.00" d=" M 23.99 66.97 C 24.11 63.96 23.11 59.13 27.03 58.17 C 33.35 57.72 39.70 58.17 46.02 57.97 C 48.49 58.12 51.73 57.36 53.33 59.80 C 54.35 61.67 53.85 63.94 54.05 65.99 C 52.70 65.73 51.34 65.48 49.99 65.23 C 49.99 64.42 50.00 62.81 50.00 62.00 C 42.66 62.00 35.33 62.00 27.99 62.00 C 28.00 63.38 28.01 64.76 28.00 66.14 C 26.66 66.42 25.32 66.70 23.99 66.97 Z" />
<path fill="#4245d6" opacity="1.00" d=" M 63.93 65.30 C 63.98 62.74 63.71 58.86 66.99 58.17 C 74.67 57.76 82.40 58.07 90.10 58.06 C 90.05 58.44 89.94 59.19 89.88 59.56 C 89.79 60.18 89.60 61.43 89.50 62.06 C 82.34 61.83 75.17 62.11 68.00 62.00 C 68.01 62.82 68.01 64.45 68.01 65.27 C 67.52 65.50 66.55 65.97 66.07 66.20 C 65.53 65.98 64.47 65.53 63.93 65.30 Z" />
</g>
</svg>
