<?xml version="1.0" encoding="UTF-8" ?>
<!DOCTYPE svg PUBLIC "-//W3C//DTD SVG 1.1//EN" "http://www.w3.org/Graphics/SVG/1.1/DTD/svg11.dtd">
<svg width="117px" height="140px" viewBox="0 0 117 140" version="1.1" xmlns="http://www.w3.org/2000/svg">
<g id="#181818ff">
<path fill="#181818" opacity="1.00" d=" M 0.00 0.00 L 117.00 0.00 L 117.00 140.00 L 0.00 140.00 L 0.00 0.00 M 25.74 16.82 C 23.12 19.18 23.91 22.95 25.73 25.53 C 28.31 27.08 31.90 27.69 34.11 25.18 C 36.70 22.99 36.11 19.36 34.58 16.74 C 31.97 14.89 28.10 14.11 25.74 16.82 M 37.64 25.75 C 32.93 29.82 29.35 35.12 28.12 41.29 C 28.06 42.85 28.01 44.41 27.94 45.96 C 22.84 48.15 19.11 52.54 17.35 57.76 C 16.40 62.94 17.54 68.25 20.53 72.58 C 22.58 74.50 24.65 76.52 27.31 77.58 C 30.71 79.14 34.53 78.88 38.18 79.11 C 39.94 79.73 41.79 79.86 43.50 78.99 C 56.67 78.96 69.84 79.05 83.01 78.99 C 88.55 79.25 93.74 76.67 97.42 72.64 C 100.48 68.26 101.62 62.86 100.61 57.61 C 98.83 52.49 95.17 48.26 90.23 45.97 C 89.53 43.99 88.75 42.03 87.88 40.11 C 87.61 39.93 87.06 39.56 86.79 39.37 C 88.32 37.28 87.96 34.77 86.79 32.63 C 84.11 31.60 80.98 32.11 79.87 35.07 C 77.88 35.16 75.89 35.22 73.90 35.42 C 73.54 34.59 73.18 33.77 72.82 32.95 C 69.26 27.32 63.66 22.85 57.03 21.55 C 50.32 19.96 43.22 21.85 37.64 25.75 Z" />
<path fill="#181818" opacity="1.00" d=" M 37.94 30.74 C 41.49 27.52 46.04 25.27 50.89 25.10 C 57.96 24.56 65.01 28.27 68.84 34.19 C 69.96 36.23 70.91 38.35 71.89 40.46 C 74.48 39.83 77.10 38.75 79.81 39.01 C 82.80 39.78 84.74 42.25 85.88 44.97 C 85.98 46.23 86.07 47.49 86.18 48.75 C 90.80 50.40 94.92 53.57 96.67 58.29 C 97.47 62.76 96.51 67.41 93.61 70.96 C 90.20 74.13 85.56 75.35 80.97 75.03 C 68.56 74.74 56.12 75.49 43.73 74.64 C 41.81 74.32 39.87 74.40 37.95 74.71 C 33.10 75.73 28.03 74.27 24.38 70.95 C 21.51 67.42 20.53 62.81 21.32 58.36 C 23.06 53.51 27.31 50.34 32.02 48.67 C 31.98 47.69 31.95 46.71 31.94 45.72 C 31.96 40.17 34.11 34.76 37.94 30.74 M 53.40 44.42 C 51.43 46.61 48.81 48.34 47.55 51.07 C 47.89 53.30 50.29 52.81 51.92 53.15 C 52.44 53.10 53.48 53.02 54.00 52.97 C 54.00 55.06 54.01 57.14 54.00 59.23 C 53.98 61.72 54.04 64.22 54.23 66.71 L 55.16 65.95 L 54.27 66.71 C 57.14 66.96 60.06 67.28 62.92 66.77 C 64.97 64.83 63.63 61.40 63.99 58.86 C 64.00 56.93 63.99 55.00 64.00 53.08 C 65.82 52.80 68.02 53.47 69.61 52.44 C 71.63 50.71 68.81 48.94 67.81 47.54 C 66.33 46.18 64.91 44.78 63.52 43.34 C 62.12 41.98 60.86 40.38 59.04 39.56 C 56.71 40.55 55.22 42.75 53.40 44.42 Z" />
</g>
<g id="#e89ce0ff">
<path fill="#e89ce0" opacity="1.00" d=" M 25.74 16.82 C 28.10 14.11 31.97 14.89 34.58 16.74 C 31.70 19.74 28.75 22.67 25.73 25.53 C 23.91 22.95 23.12 19.18 25.74 16.82 Z" />
</g>
<g id="#e06cd8ff">
<path fill="#e06cd8" opacity="1.00" d=" M 34.58 16.74 C 36.11 19.36 36.70 22.99 34.11 25.18 C 31.90 27.69 28.31 27.08 25.73 25.53 C 28.75 22.67 31.70 19.74 34.58 16.74 Z" />
</g>
<g id="#9060f8ff">
<path fill="#9060f8" opacity="1.00" d=" M 37.64 25.75 C 43.22 21.85 50.32 19.96 57.03 21.55 C 63.66 22.85 69.26 27.32 72.82 32.95 C 71.49 33.36 70.17 33.77 68.84 34.19 C 65.01 28.27 57.96 24.56 50.89 25.10 C 46.04 25.27 41.49 27.52 37.94 30.74 C 37.84 29.08 37.74 27.41 37.64 25.75 Z" />
</g>
<g id="#7858e8ff">
<path fill="#7858e8" opacity="1.00" d=" M 28.12 41.29 C 29.35 35.12 32.93 29.82 37.64 25.75 C 37.74 27.41 37.84 29.08 37.94 30.74 C 34.11 34.76 31.96 40.17 31.94 45.72 C 30.62 44.29 29.35 42.80 28.12 41.29 Z" />
<path fill="#7858e8" opacity="1.00" d=" M 72.82 32.95 C 73.18 33.77 73.54 34.59 73.90 35.42 C 75.89 35.22 77.88 35.16 79.87 35.07 C 80.14 36.23 80.46 37.37 80.84 38.50 L 81.13 39.22 L 79.81 39.01 C 77.10 38.75 74.48 39.83 71.89 40.46 C 70.91 38.35 69.96 36.23 68.84 34.19 C 70.17 33.77 71.49 33.36 72.82 32.95 Z" />
</g>
<g id="#f8cc98ff">
<path fill="#f8cc98" opacity="1.00" d=" M 79.87 35.07 C 80.98 32.11 84.11 31.60 86.79 32.63 C 84.82 34.60 82.83 36.55 80.84 38.50 C 80.46 37.37 80.14 36.23 79.87 35.07 Z" />
</g>
<g id="#f8a4a0ff">
<path fill="#f8a4a0" opacity="1.00" d=" M 86.79 32.63 C 87.96 34.77 88.32 37.28 86.79 39.37 C 84.90 39.51 82.99 39.58 81.13 39.22 L 80.84 38.50 C 82.83 36.55 84.82 34.60 86.79 32.63 Z" />
</g>
<g id="#5f438eff">
<path fill="#5f438e" opacity="1.00" d=" M 79.81 39.01 L 81.13 39.22 C 82.99 39.58 84.90 39.51 86.79 39.37 C 87.06 39.56 87.61 39.93 87.88 40.11 C 87.22 41.73 86.50 43.33 85.88 44.97 C 84.74 42.25 82.80 39.78 79.81 39.01 Z" />
</g>
<g id="#f8c868ff">
<path fill="#f8c868" opacity="1.00" d=" M 53.40 44.42 C 55.22 42.75 56.71 40.55 59.04 39.56 C 60.86 40.38 62.12 41.98 63.52 43.34 C 59.52 46.45 55.67 49.74 51.92 53.15 C 50.29 52.81 47.89 53.30 47.55 51.07 C 48.81 48.34 51.43 46.61 53.40 44.42 Z" />
</g>
<g id="#584ce0ff">
<path fill="#584ce0" opacity="1.00" d=" M 27.94 45.96 C 28.01 44.41 28.06 42.85 28.12 41.29 C 29.35 42.80 30.62 44.29 31.94 45.72 C 31.95 46.71 31.98 47.69 32.02 48.67 C 27.31 50.34 23.06 53.51 21.32 58.36 C 20.33 58.21 18.34 57.91 17.35 57.76 C 19.11 52.54 22.84 48.15 27.94 45.96 Z" />
<path fill="#584ce0" opacity="1.00" d=" M 85.88 44.97 C 86.50 43.33 87.22 41.73 87.88 40.11 C 88.75 42.03 89.53 43.99 90.23 45.97 C 95.17 48.26 98.83 52.49 100.61 57.61 C 99.63 57.78 97.65 58.12 96.67 58.29 C 94.92 53.57 90.80 50.40 86.18 48.75 C 86.07 47.49 85.98 46.23 85.88 44.97 Z" />
</g>
<g id="#f8b458ff">
<path fill="#f8b458" opacity="1.00" d=" M 51.92 53.15 C 55.67 49.74 59.52 46.45 63.52 43.34 C 64.91 44.78 66.33 46.18 67.81 47.54 C 63.15 51.37 58.92 55.72 54.00 59.23 C 54.01 57.14 54.00 55.06 54.00 52.97 C 53.48 53.02 52.44 53.10 51.92 53.15 Z" />
</g>
<g id="#f8a050ff">
<path fill="#f8a050" opacity="1.00" d=" M 67.81 47.54 C 68.81 48.94 71.63 50.71 69.61 52.44 C 68.02 53.47 65.82 52.80 64.00 53.08 C 63.99 55.00 64.00 56.93 63.99 58.86 C 60.95 61.10 58.05 63.51 55.16 65.95 L 54.23 66.71 C 54.04 64.22 53.98 61.72 54.00 59.23 C 58.92 55.72 63.15 51.37 67.81 47.54 Z" />
</g>
<g id="#3840d0ff">
<path fill="#3840d0" opacity="1.00" d=" M 17.35 57.76 C 18.34 57.91 20.33 58.21 21.32 58.36 C 20.53 62.81 21.51 67.42 24.38 70.95 C 23.10 71.49 21.81 72.04 20.53 72.58 C 17.54 68.25 16.40 62.94 17.35 57.76 Z" />
<path fill="#3840d0" opacity="1.00" d=" M 96.67 58.29 C 97.65 58.12 99.63 57.78 100.61 57.61 C 101.62 62.86 100.48 68.26 97.42 72.64 C 96.15 72.08 94.88 71.52 93.61 70.96 C 96.51 67.41 97.47 62.76 96.67 58.29 Z" />
</g>
<g id="#f89040ff">
<path fill="#f89040" opacity="1.00" d=" M 55.16 65.95 C 58.05 63.51 60.95 61.10 63.99 58.86 C 63.63 61.40 64.97 64.83 62.92 66.77 C 60.06 67.28 57.14 66.96 54.27 66.71 L 55.16 65.95 Z" />
</g>
<g id="#1834c8ff">
<path fill="#1834c8" opacity="1.00" d=" M 24.38 70.95 C 28.03 74.27 33.10 75.73 37.95 74.71 C 38.06 76.17 38.14 77.64 38.18 79.11 C 34.53 78.88 30.71 79.14 27.31 77.58 C 24.65 76.52 22.58 74.50 20.53 72.58 C 21.81 72.04 23.10 71.49 24.38 70.95 Z" />
<path fill="#1834c8" opacity="1.00" d=" M 80.97 75.03 C 85.56 75.35 90.20 74.13 93.61 70.96 C 94.88 71.52 96.15 72.08 97.42 72.64 C 93.74 76.67 88.55 79.25 83.01 78.99 C 69.84 79.05 56.67 78.96 43.50 78.99 C 43.58 77.54 43.66 76.09 43.73 74.64 C 56.12 75.49 68.56 74.74 80.97 75.03 Z" />
</g>
<g id="#40b4c8ff">
<path fill="#40b4c8" opacity="1.00" d=" M 37.95 74.71 C 39.87 74.40 41.81 74.32 43.73 74.64 C 43.66 76.09 43.58 77.54 43.50 78.99 C 41.79 79.86 39.94 79.73 38.18 79.11 C 38.14 77.64 38.06 76.17 37.95 74.71 Z" />
</g>
</svg>
