<?xml version="1.0" encoding="UTF-8" ?>
<!DOCTYPE svg PUBLIC "-//W3C//DTD SVG 1.1//EN" "http://www.w3.org/Graphics/SVG/1.1/DTD/svg11.dtd">
<svg width="117px" height="140px" viewBox="0 0 117 140" version="1.1" xmlns="http://www.w3.org/2000/svg">
<g id="#181818ff">
<path fill="#181818" opacity="1.00" d=" M 0.00 0.00 L 117.00 0.00 L 117.00 140.00 L 0.00 140.00 L 0.00 0.00 M 66.41 9.38 C 60.11 11.96 55.10 17.54 54.49 24.50 C 50.24 24.63 45.95 24.16 41.73 24.75 C 39.17 25.40 39.04 28.38 38.92 30.52 C 39.05 34.94 39.05 39.36 39.03 43.78 C 38.99 46.94 39.01 50.09 38.99 53.25 C 39.17 56.30 38.00 61.17 41.92 62.27 C 44.73 62.44 48.15 63.23 50.62 61.71 C 52.17 57.15 45.63 58.74 43.05 58.50 C 43.02 56.73 42.99 54.96 42.97 53.20 C 43.00 50.07 43.02 46.94 42.97 43.81 C 42.86 39.06 43.24 34.30 42.78 29.56 C 42.97 29.30 43.37 28.77 43.57 28.50 C 47.07 28.47 50.58 28.51 54.08 28.50 C 53.73 35.03 53.14 41.61 53.81 48.14 C 55.20 48.06 56.77 47.55 56.46 45.84 C 56.61 40.06 56.64 34.27 57.13 28.50 C 60.42 28.50 63.71 28.50 67.01 28.49 C 67.05 31.00 67.08 33.52 67.03 36.03 C 66.94 40.62 67.08 45.20 67.02 49.79 C 66.99 52.64 67.00 55.49 67.02 58.34 C 64.52 58.75 61.60 57.88 59.40 59.21 C 58.65 61.58 59.08 64.12 59.02 66.56 C 57.60 66.84 56.33 67.59 55.01 68.15 C 53.37 67.41 51.76 66.53 50.02 66.05 C 48.47 66.04 47.35 68.28 48.64 69.31 C 50.59 70.75 52.86 71.66 55.01 72.76 C 57.99 71.02 62.35 70.20 63.17 66.29 C 63.11 65.05 63.06 63.82 63.01 62.58 C 64.99 62.47 67.03 62.63 68.94 62.03 C 70.43 61.23 70.69 59.48 71.16 58.04 C 70.98 55.28 70.98 52.51 70.97 49.74 C 70.94 44.87 71.05 39.99 70.97 35.11 C 70.55 31.81 72.22 27.27 68.97 25.02 C 65.25 23.97 61.27 24.68 57.44 24.50 C 58.26 21.34 59.30 17.99 61.90 15.82 C 64.64 13.13 68.55 12.27 71.55 9.97 C 71.55 6.73 68.01 8.58 66.41 9.38 M 25.18 18.16 C 23.39 19.73 24.08 22.19 25.09 23.98 L 24.96 24.09 C 26.85 24.76 29.20 25.58 30.79 23.81 C 32.66 22.25 31.75 19.82 31.06 17.93 C 29.18 17.21 26.77 16.36 25.18 18.16 M 83.25 40.39 C 80.64 43.33 82.44 47.39 85.17 49.49 C 90.18 51.69 95.34 46.68 93.87 41.57 L 93.59 41.78 C 91.84 37.67 85.88 36.55 83.25 40.39 M 54.62 53.04 C 55.56 51.88 56.40 50.57 55.12 49.24 C 53.52 50.04 53.71 51.73 54.62 53.04 M 54.33 54.71 C 53.22 54.90 53.91 56.68 54.14 57.43 C 56.22 58.25 56.31 53.73 54.33 54.71 M 54.70 58.95 C 53.78 60.22 53.74 61.47 54.58 62.70 C 56.43 61.98 55.66 60.10 54.70 58.95 M 31.77 68.77 L 33.21 68.47 L 32.42 69.22 C 33.94 69.65 35.98 70.82 37.15 69.08 C 38.77 67.92 37.70 66.00 37.23 64.52 C 34.11 62.70 31.24 65.50 31.77 68.77 M 54.25 64.69 C 52.92 65.70 54.41 68.41 55.89 67.16 C 57.16 66.14 55.72 63.48 54.25 64.69 M 56.46 74.30 C 55.20 75.59 57.22 78.06 58.66 76.80 C 59.88 75.54 57.86 73.01 56.46 74.30 M 57.17 79.26 C 55.86 80.18 57.00 83.08 58.59 81.85 C 59.90 80.94 58.74 78.06 57.17 79.26 M 56.27 83.97 C 54.59 84.46 54.94 87.66 56.89 87.01 C 58.69 86.56 58.29 83.23 56.27 83.97 M 54.39 88.79 C 52.90 89.22 53.02 92.19 54.85 91.58 C 56.52 91.21 56.37 87.99 54.39 88.79 Z" />
</g>
<g id="#f8e080ff">
<path fill="#f8e080" opacity="1.00" d=" M 66.41 9.38 C 68.01 8.58 71.55 6.73 71.55 9.97 C 68.55 12.27 64.64 13.13 61.90 15.82 C 59.30 17.99 58.26 21.34 57.44 24.50 C 56.71 24.50 55.23 24.50 54.49 24.50 C 55.10 17.54 60.11 11.96 66.41 9.38 Z" />
</g>
<g id="#404cf8ff">
<path fill="#404cf8" opacity="1.00" d=" M 25.18 18.16 C 26.77 16.36 29.18 17.21 31.06 17.93 C 29.27 20.13 27.28 22.17 25.09 23.98 C 24.08 22.19 23.39 19.73 25.18 18.16 Z" />
</g>
<g id="#202cf8ff">
<path fill="#202cf8" opacity="1.00" d=" M 31.06 17.93 C 31.75 19.82 32.66 22.25 30.79 23.81 C 29.20 25.58 26.85 24.76 24.96 24.09 L 25.09 23.98 C 27.28 22.17 29.27 20.13 31.06 17.93 Z" />
</g>
<g id="#9864f8ff">
<path fill="#9864f8" opacity="1.00" d=" M 41.73 24.75 C 45.95 24.16 50.24 24.63 54.49 24.50 C 55.23 24.50 56.71 24.50 57.44 24.50 C 61.27 24.68 65.25 23.97 68.97 25.02 C 72.22 27.27 70.55 31.81 70.97 35.11 C 69.66 35.42 68.34 35.72 67.03 36.03 C 67.08 33.52 67.05 31.00 67.01 28.49 C 63.71 28.50 60.42 28.50 57.13 28.50 C 56.37 28.50 54.84 28.50 54.08 28.50 C 50.58 28.51 47.07 28.47 43.57 28.50 C 43.37 28.77 42.97 29.30 42.78 29.56 C 41.50 29.91 40.21 30.23 38.92 30.52 C 39.04 28.38 39.17 25.40 41.73 24.75 Z" />
</g>
<g id="#f8c068ff">
<path fill="#f8c068" opacity="1.00" d=" M 54.08 28.50 C 54.84 28.50 56.37 28.50 57.13 28.50 C 56.64 34.27 56.61 40.06 56.46 45.84 C 56.77 47.55 55.20 48.06 53.81 48.14 C 53.14 41.61 53.73 35.03 54.08 28.50 Z" />
<path fill="#f8c068" opacity="1.00" d=" M 54.62 53.04 C 53.71 51.73 53.52 50.04 55.12 49.24 C 56.40 50.57 55.56 51.88 54.62 53.04 Z" />
<path fill="#f8c068" opacity="1.00" d=" M 54.33 54.71 C 56.31 53.73 56.22 58.25 54.14 57.43 C 53.91 56.68 53.22 54.90 54.33 54.71 Z" />
<path fill="#f8c068" opacity="1.00" d=" M 54.70 58.95 C 55.66 60.10 56.43 61.98 54.58 62.70 C 53.74 61.47 53.78 60.22 54.70 58.95 Z" />
<path fill="#f8c068" opacity="1.00" d=" M 54.25 64.69 C 55.72 63.48 57.16 66.14 55.89 67.16 C 54.41 68.41 52.92 65.70 54.25 64.69 Z" />
</g>
<g id="#7858f0ff">
<path fill="#7858f0" opacity="1.00" d=" M 38.92 30.52 C 40.21 30.23 41.50 29.91 42.78 29.56 C 43.24 34.30 42.86 39.06 42.97 43.81 C 41.66 43.80 40.34 43.79 39.03 43.78 C 39.05 39.36 39.05 34.94 38.92 30.52 Z" />
</g>
<g id="#6854e8ff">
<path fill="#6854e8" opacity="1.00" d=" M 67.03 36.03 C 68.34 35.72 69.66 35.42 70.97 35.11 C 71.05 39.99 70.94 44.87 70.97 49.74 C 69.65 49.76 68.34 49.77 67.02 49.79 C 67.08 45.20 66.94 40.62 67.03 36.03 Z" />
</g>
<g id="#f8a498ff">
<path fill="#f8a498" opacity="1.00" d=" M 83.25 40.39 C 85.88 36.55 91.84 37.67 93.59 41.78 C 90.45 43.96 87.68 46.62 85.17 49.49 C 82.44 47.39 80.64 43.33 83.25 40.39 Z" />
</g>
<g id="#f88490ff">
<path fill="#f88490" opacity="1.00" d=" M 93.59 41.78 L 93.87 41.57 C 95.34 46.68 90.18 51.69 85.17 49.49 C 87.68 46.62 90.45 43.96 93.59 41.78 Z" />
</g>
<g id="#584ce0ff">
<path fill="#584ce0" opacity="1.00" d=" M 39.03 43.78 C 40.34 43.79 41.66 43.80 42.97 43.81 C 43.02 46.94 43.00 50.07 42.97 53.20 C 41.65 53.21 40.32 53.23 38.99 53.25 C 39.01 50.09 38.99 46.94 39.03 43.78 Z" />
</g>
<g id="#4848d8ff">
<path fill="#4848d8" opacity="1.00" d=" M 67.02 49.79 C 68.34 49.77 69.65 49.76 70.97 49.74 C 70.98 52.51 70.98 55.28 71.16 58.04 C 69.78 58.14 68.40 58.25 67.02 58.34 C 67.00 55.49 66.99 52.64 67.02 49.79 Z" />
</g>
<g id="#3844d8ff">
<path fill="#3844d8" opacity="1.00" d=" M 38.99 53.25 C 40.32 53.23 41.65 53.21 42.97 53.20 C 42.99 54.96 43.02 56.73 43.05 58.50 C 45.63 58.74 52.17 57.15 50.62 61.71 C 48.15 63.23 44.73 62.44 41.92 62.27 C 38.00 61.17 39.17 56.30 38.99 53.25 Z" />
</g>
<g id="#3840d0ff">
<path fill="#3840d0" opacity="1.00" d=" M 67.02 58.34 C 68.40 58.25 69.78 58.14 71.16 58.04 C 70.69 59.48 70.43 61.23 68.94 62.03 C 67.03 62.63 64.99 62.47 63.01 62.58 C 63.06 63.82 63.11 65.05 63.17 66.29 C 61.78 66.36 60.40 66.43 59.02 66.56 C 59.08 64.12 58.65 61.58 59.40 59.21 C 61.60 57.88 64.52 58.75 67.02 58.34 Z" />
</g>
<g id="#aed849ff">
<path fill="#aed849" opacity="1.00" d=" M 31.77 68.77 C 31.24 65.50 34.11 62.70 37.23 64.52 C 35.91 65.86 34.59 67.20 33.21 68.47 L 31.77 68.77 Z" />
</g>
<g id="#80c88cff">
<path fill="#80c88c" opacity="1.00" d=" M 37.23 64.52 C 37.70 66.00 38.77 67.92 37.15 69.08 C 35.98 70.82 33.94 69.65 32.42 69.22 L 33.21 68.47 C 34.59 67.20 35.91 65.86 37.23 64.52 Z" />
</g>
<g id="#1838c8ff">
<path fill="#1838c8" opacity="1.00" d=" M 48.64 69.31 C 47.35 68.28 48.47 66.04 50.02 66.05 C 51.76 66.53 53.37 67.41 55.01 68.15 C 56.33 67.59 57.60 66.84 59.02 66.56 C 60.40 66.43 61.78 66.36 63.17 66.29 C 62.35 70.20 57.99 71.02 55.01 72.76 C 52.86 71.66 50.59 70.75 48.64 69.31 Z" />
</g>
<g id="#ad6533ff">
<path fill="#ad6533" opacity="1.00" d=" M 56.46 74.30 C 57.86 73.01 59.88 75.54 58.66 76.80 C 57.22 78.06 55.20 75.59 56.46 74.30 Z" />
</g>
<g id="#c76d33ff">
<path fill="#c76d33" opacity="1.00" d=" M 57.17 79.26 C 58.74 78.06 59.90 80.94 58.59 81.85 C 57.00 83.08 55.86 80.18 57.17 79.26 Z" />
</g>
<g id="#aa5b2bff">
<path fill="#aa5b2b" opacity="1.00" d=" M 56.27 83.97 C 58.29 83.23 58.69 86.56 56.89 87.01 C 54.94 87.66 54.59 84.46 56.27 83.97 Z" />
</g>
<g id="#b85d28ff">
<path fill="#b85d28" opacity="1.00" d=" M 54.39 88.79 C 56.37 87.99 56.52 91.21 54.85 91.58 C 53.02 92.19 52.90 89.22 54.39 88.79 Z" />
</g>
</svg>
