<?xml version="1.0" encoding="UTF-8" ?>
<!DOCTYPE svg PUBLIC "-//W3C//DTD SVG 1.1//EN" "http://www.w3.org/Graphics/SVG/1.1/DTD/svg11.dtd">
<svg width="90px" height="30px" viewBox="0 0 90 30" version="1.1" xmlns="http://www.w3.org/2000/svg">
<g id="#181818ff">
<path fill="#181818" opacity="1.00" d=" M 0.00 0.00 L 14.38 0.00 C 6.99 0.21 0.61 6.40 0.00 13.74 L 0.00 0.00 Z" />
<path fill="#181818" opacity="1.00" d=" M 75.52 0.00 L 90.00 0.00 L 90.00 13.54 C 89.26 6.25 82.89 0.15 75.52 0.00 Z" />
<path fill="#181818" opacity="1.00" d=" M 11.34 2.53 C 13.18 2.00 15.13 2.02 17.03 1.98 C 36.39 2.04 55.76 1.95 75.12 2.03 C 82.02 1.88 88.16 8.08 87.98 14.97 C 88.20 21.91 81.99 28.16 75.04 27.97 C 55.01 28.02 34.98 28.02 14.96 27.97 C 9.32 28.07 3.98 24.03 2.51 18.60 C 0.43 11.99 4.65 4.31 11.34 2.53 M 12.38 4.61 C 8.75 5.88 5.94 9.15 5.19 12.92 C 3.96 18.68 8.13 24.81 13.92 25.81 C 20.43 27.30 27.22 21.62 26.99 14.98 C 27.23 7.74 19.17 1.92 12.38 4.61 Z" />
<path fill="#181818" opacity="1.00" d=" M 0.00 16.49 C 0.75 23.53 6.68 29.43 13.76 30.00 L 0.00 30.00 L 0.00 16.49 Z" />
<path fill="#181818" opacity="1.00" d=" M 76.43 30.00 C 83.49 29.29 89.42 23.35 90.00 16.26 L 90.00 30.00 L 76.43 30.00 Z" />
</g>
<g id="#f8f8f8ff">
<path fill="#f8f8f8" opacity="1.00" d=" M 14.38 0.00 L 75.52 0.00 C 82.89 0.15 89.26 6.25 90.00 13.54 L 90.00 16.26 C 89.42 23.35 83.49 29.29 76.43 30.00 L 13.76 30.00 C 6.68 29.43 0.75 23.53 0.00 16.49 L 0.00 13.74 C 0.61 6.40 6.99 0.21 14.38 0.00 M 11.34 2.53 C 4.65 4.31 0.43 11.99 2.51 18.60 C 3.98 24.03 9.32 28.07 14.96 27.97 C 34.98 28.02 55.01 28.02 75.04 27.97 C 81.99 28.16 88.20 21.91 87.98 14.97 C 88.16 8.08 82.02 1.88 75.12 2.03 C 55.76 1.95 36.39 2.04 17.03 1.98 C 15.13 2.02 13.18 2.00 11.34 2.53 Z" />
<path fill="#f8f8f8" opacity="1.00" d=" M 12.38 4.61 C 19.17 1.92 27.23 7.74 26.99 14.98 C 27.22 21.62 20.43 27.30 13.92 25.81 C 8.13 24.81 3.96 18.68 5.19 12.92 C 5.94 9.15 8.75 5.88 12.38 4.61 Z" />
</g>
</svg>
