<?xml version="1.0" encoding="UTF-8" ?>
<!DOCTYPE svg PUBLIC "-//W3C//DTD SVG 1.1//EN" "http://www.w3.org/Graphics/SVG/1.1/DTD/svg11.dtd">
<svg width="70px" height="28px" viewBox="0 0 70 28" version="1.1" xmlns="http://www.w3.org/2000/svg">
<g id="#878b87ff">
<path fill="#878b87" opacity="1.00" d=" M 0.00 0.00 L 70.00 0.00 L 70.00 28.00 L 0.00 28.00 L 0.00 0.00 M 1.77 1.84 C 0.43 4.30 1.04 7.30 0.90 10.00 C 1.15 15.05 0.45 20.16 1.27 25.17 C 1.76 27.21 4.35 26.93 5.95 27.09 C 25.30 27.08 44.64 27.07 63.98 27.09 C 65.99 27.12 69.09 26.90 68.93 24.13 C 69.20 17.40 69.20 10.62 68.93 3.89 C 69.11 1.12 66.02 0.87 64.01 0.91 C 44.68 0.93 25.34 0.93 6.01 0.91 C 4.59 1.04 2.96 0.89 1.77 1.84 Z" />
</g>
<g id="#f8fcf8ff">
<path fill="#f8fcf8" opacity="1.00" d=" M 1.77 1.84 C 2.96 0.89 4.59 1.04 6.01 0.91 C 25.34 0.93 44.68 0.93 64.01 0.91 C 66.02 0.87 69.11 1.12 68.93 3.89 C 69.20 10.62 69.20 17.40 68.93 24.13 C 69.09 26.90 65.99 27.12 63.98 27.09 C 44.64 27.07 25.30 27.08 5.95 27.09 C 4.35 26.93 1.76 27.21 1.27 25.17 C 0.45 20.16 1.15 15.05 0.90 10.00 C 1.04 7.30 0.43 4.30 1.77 1.84 Z" />
</g>
</svg>
