<?xml version="1.0" encoding="UTF-8" ?>
<!DOCTYPE svg PUBLIC "-//W3C//DTD SVG 1.1//EN" "http://www.w3.org/Graphics/SVG/1.1/DTD/svg11.dtd">
<svg width="117px" height="140px" viewBox="0 0 117 140" version="1.1" xmlns="http://www.w3.org/2000/svg">
<g id="#181818ff">
<path fill="#181818" opacity="1.00" d=" M 0.00 0.00 L 117.00 0.00 L 117.00 140.00 L 0.00 140.00 L 0.00 0.00 M 56.22 7.13 C 52.44 10.92 48.55 14.62 44.93 18.57 C 44.66 17.93 44.12 16.67 43.86 16.03 L 43.73 16.19 C 40.37 12.33 34.30 18.32 38.19 21.70 L 38.02 21.83 C 38.70 22.15 40.06 22.80 40.74 23.13 C 39.71 23.93 38.45 24.58 37.76 25.73 C 32.03 31.03 26.72 36.76 21.16 42.23 C 20.19 43.25 19.03 44.14 18.44 45.46 L 18.22 45.34 C 17.49 47.56 18.61 50.26 20.97 50.85 C 23.62 51.19 26.31 50.89 28.98 51.02 C 29.10 54.92 29.06 58.84 29.04 62.75 C 28.94 67.91 29.03 73.08 29.01 78.24 C 29.00 82.17 28.96 86.10 29.03 90.03 C 28.93 91.87 30.31 93.58 32.05 94.03 C 38.36 94.87 44.68 93.17 50.93 94.25 C 50.83 91.78 50.61 89.32 50.58 86.85 C 51.82 85.16 52.65 82.60 51.41 80.71 C 51.28 80.42 51.02 79.84 50.89 79.55 C 51.48 75.89 49.31 69.89 54.03 68.35 C 57.53 68.22 61.17 67.87 64.61 68.57 C 68.28 70.31 66.72 75.07 67.03 78.27 C 66.97 83.57 66.98 88.86 67.03 94.16 C 72.68 94.12 78.35 94.38 83.99 94.02 C 88.58 92.47 86.62 86.75 86.97 83.12 C 87.02 79.72 87.03 76.31 86.97 72.90 C 87.07 67.85 87.03 62.80 86.60 57.77 C 88.48 58.36 90.96 57.27 90.88 55.07 C 91.16 52.74 88.57 51.63 86.63 51.85 L 87.29 51.01 C 91.28 50.28 97.06 52.84 99.62 48.68 C 101.16 45.43 97.75 43.10 95.78 41.09 L 95.71 41.12 C 92.90 38.04 89.69 35.30 87.01 32.12 C 86.97 30.03 87.05 27.93 86.98 25.84 C 86.94 21.19 87.00 16.54 87.01 11.89 C 87.31 10.59 86.53 8.88 85.02 9.00 C 82.05 9.07 79.06 8.84 76.11 9.12 C 73.66 12.10 75.67 16.71 75.01 20.33 C 70.57 15.99 66.28 11.50 61.83 7.17 C 60.35 5.61 57.74 5.62 56.22 7.13 Z" />
<path fill="#181818" opacity="1.00" d=" M 45.83 23.20 C 50.18 18.78 54.59 14.42 59.00 10.06 C 65.68 16.65 72.35 23.25 78.92 29.94 C 79.00 24.30 78.94 18.66 79.03 13.02 C 80.34 12.99 81.66 12.99 82.98 13.02 C 83.04 17.28 83.03 21.54 83.02 25.80 C 83.00 28.52 82.94 31.25 83.05 33.96 C 85.83 36.93 88.79 39.73 91.64 42.63 C 93.07 44.09 94.56 45.50 95.98 46.98 C 91.66 47.05 87.34 46.94 83.02 47.02 C 82.94 49.71 83.05 52.39 83.03 55.07 C 83.03 61.03 82.98 66.98 83.01 72.94 C 82.96 76.31 83.05 79.69 83.03 83.06 C 82.96 85.42 83.05 87.78 82.96 90.14 C 78.99 90.21 75.01 90.21 71.04 90.14 C 70.93 86.17 71.06 82.19 70.98 78.21 C 70.74 74.24 71.92 69.42 68.54 66.42 C 65.19 63.10 60.16 64.40 55.95 64.19 C 52.89 63.94 49.67 65.39 48.15 68.12 C 46.51 70.76 47.17 74.01 47.05 76.95 C 43.83 76.53 40.65 78.84 40.02 82.01 C 39.57 84.60 41.18 87.17 43.45 88.34 C 44.78 89.00 46.20 89.18 47.71 88.86 L 47.50 90.64 C 42.67 90.62 37.86 90.08 33.03 90.14 C 32.94 86.17 33.04 82.20 33.00 78.23 C 32.97 73.10 33.05 67.97 32.98 62.84 C 32.86 57.57 33.09 52.29 32.98 47.02 C 29.31 46.91 25.64 47.14 21.98 46.90 C 28.49 40.65 34.77 34.16 41.21 27.83 C 42.80 26.34 44.36 24.81 45.83 23.20 M 52.95 35.01 C 53.91 37.03 54.88 39.04 55.83 41.06 C 56.46 42.74 57.67 44.24 57.54 46.13 C 57.38 47.39 57.37 48.65 57.52 49.92 C 58.39 49.91 60.14 49.88 61.02 49.87 C 61.05 48.19 61.10 46.52 60.96 44.85 C 62.40 41.53 64.07 38.32 65.54 35.01 C 64.61 35.01 62.75 35.00 61.82 35.00 C 61.00 36.92 60.20 38.86 59.80 40.91 C 59.52 40.79 58.97 40.53 58.69 40.41 C 58.24 38.55 57.46 36.81 56.83 35.01 C 55.54 34.98 54.24 34.98 52.95 35.01 Z" />
</g>
<g id="#9060f0ff">
<path fill="#9060f0" opacity="1.00" d=" M 56.22 7.13 C 57.74 5.62 60.35 5.61 61.83 7.17 C 66.28 11.50 70.57 15.99 75.01 20.33 C 75.67 16.71 73.66 12.10 76.11 9.12 C 79.06 8.84 82.05 9.07 85.02 9.00 C 86.53 8.88 87.31 10.59 87.01 11.89 C 87.00 16.54 86.94 21.19 86.98 25.84 C 85.66 25.82 84.34 25.81 83.02 25.80 C 83.03 21.54 83.04 17.28 82.98 13.02 C 81.66 12.99 80.34 12.99 79.03 13.02 C 78.94 18.66 79.00 24.30 78.92 29.94 C 72.35 23.25 65.68 16.65 59.00 10.06 C 54.59 14.42 50.18 18.78 45.83 23.20 C 45.61 22.62 45.17 21.44 44.96 20.86 C 44.95 20.28 44.94 19.14 44.93 18.57 C 48.55 14.62 52.44 10.92 56.22 7.13 Z" />
</g>
<g id="#e894e0ff">
<path fill="#e894e0" opacity="1.00" d=" M 38.19 21.70 C 34.30 18.32 40.37 12.33 43.73 16.19 C 42.24 18.35 40.35 20.21 38.19 21.70 Z" />
</g>
<g id="#e068d8ff">
<path fill="#e068d8" opacity="1.00" d=" M 43.73 16.19 L 43.86 16.03 C 44.12 16.67 44.66 17.93 44.93 18.57 C 44.94 19.14 44.95 20.28 44.96 20.86 C 43.79 22.02 42.31 22.72 40.74 23.13 C 40.06 22.80 38.70 22.15 38.02 21.83 L 38.19 21.70 C 40.35 20.21 42.24 18.35 43.73 16.19 Z" />
</g>
<g id="#503ca0ff">
<path fill="#503ca0" opacity="1.00" d=" M 40.74 23.13 C 42.31 22.72 43.79 22.02 44.96 20.86 C 45.17 21.44 45.61 22.62 45.83 23.20 C 44.36 24.81 42.80 26.34 41.21 27.83 C 40.06 27.13 38.91 26.43 37.76 25.73 C 38.45 24.58 39.71 23.93 40.74 23.13 Z" />
</g>
<g id="#7054e8ff">
<path fill="#7054e8" opacity="1.00" d=" M 21.16 42.23 C 26.72 36.76 32.03 31.03 37.76 25.73 C 38.91 26.43 40.06 27.13 41.21 27.83 C 34.77 34.16 28.49 40.65 21.98 46.90 C 20.68 46.76 19.55 46.08 18.44 45.46 C 19.03 44.14 20.19 43.25 21.16 42.23 Z" />
</g>
<g id="#7058e8ff">
<path fill="#7058e8" opacity="1.00" d=" M 83.02 25.80 C 84.34 25.81 85.66 25.82 86.98 25.84 C 87.05 27.93 86.97 30.03 87.01 32.12 C 89.69 35.30 92.90 38.04 95.71 41.12 C 94.35 41.62 93.00 42.12 91.64 42.63 C 88.79 39.73 85.83 36.93 83.05 33.96 C 82.94 31.25 83.00 28.52 83.02 25.80 Z" />
</g>
<g id="#f8d070ff">
<path fill="#f8d070" opacity="1.00" d=" M 52.95 35.01 C 54.24 34.98 55.54 34.98 56.83 35.01 C 57.46 36.81 58.24 38.55 58.69 40.41 C 57.98 40.57 56.55 40.90 55.83 41.06 C 54.88 39.04 53.91 37.03 52.95 35.01 Z" />
</g>
<g id="#f8b058ff">
<path fill="#f8b058" opacity="1.00" d=" M 61.82 35.00 C 62.75 35.00 64.61 35.01 65.54 35.01 C 64.07 38.32 62.40 41.53 60.96 44.85 C 59.83 45.29 58.68 45.72 57.54 46.13 C 57.67 44.24 56.46 42.74 55.83 41.06 C 56.55 40.90 57.98 40.57 58.69 40.41 C 58.97 40.53 59.52 40.79 59.80 40.91 C 60.20 38.86 61.00 36.92 61.82 35.00 Z" />
</g>
<g id="#584ce0ff">
<path fill="#584ce0" opacity="1.00" d=" M 95.71 41.12 L 95.78 41.09 C 97.75 43.10 101.16 45.43 99.62 48.68 C 97.06 52.84 91.28 50.28 87.29 51.01 L 86.63 51.85 C 85.80 52.83 85.13 53.91 84.50 55.02 C 84.13 55.03 83.40 55.06 83.03 55.07 C 83.05 52.39 82.94 49.71 83.02 47.02 C 87.34 46.94 91.66 47.05 95.98 46.98 C 94.56 45.50 93.07 44.09 91.64 42.63 C 93.00 42.12 94.35 41.62 95.71 41.12 Z" />
<path fill="#584ce0" opacity="1.00" d=" M 18.22 45.34 L 18.44 45.46 C 19.55 46.08 20.68 46.76 21.98 46.90 C 25.64 47.14 29.31 46.91 32.98 47.02 C 33.09 52.29 32.86 57.57 32.98 62.84 C 31.66 62.80 30.35 62.77 29.04 62.75 C 29.06 58.84 29.10 54.92 28.98 51.02 C 26.31 50.89 23.62 51.19 20.97 50.85 C 18.61 50.26 17.49 47.56 18.22 45.34 Z" />
</g>
<g id="#f29142ff">
<path fill="#f29142" opacity="1.00" d=" M 57.54 46.13 C 58.68 45.72 59.83 45.29 60.96 44.85 C 61.10 46.52 61.05 48.19 61.02 49.87 C 60.14 49.88 58.39 49.91 57.52 49.92 C 57.37 48.65 57.38 47.39 57.54 46.13 Z" />
</g>
<g id="#60a0e8ff">
<path fill="#60a0e8" opacity="1.00" d=" M 84.50 55.02 C 85.13 53.91 85.80 52.83 86.63 51.85 C 88.57 51.63 91.16 52.74 90.88 55.07 C 90.96 57.27 88.48 58.36 86.60 57.77 C 85.87 56.88 85.17 55.95 84.50 55.02 Z" />
</g>
<g id="#4040d0ff">
<path fill="#4040d0" opacity="1.00" d=" M 83.03 55.07 C 83.40 55.06 84.13 55.03 84.50 55.02 C 85.17 55.95 85.87 56.88 86.60 57.77 C 87.03 62.80 87.07 67.85 86.97 72.90 C 85.65 72.91 84.33 72.92 83.01 72.94 C 82.98 66.98 83.03 61.03 83.03 55.07 Z" />
</g>
<g id="#3840d0ff">
<path fill="#3840d0" opacity="1.00" d=" M 29.04 62.75 C 30.35 62.77 31.66 62.80 32.98 62.84 C 33.05 67.97 32.97 73.10 33.00 78.23 C 31.67 78.24 30.34 78.24 29.01 78.24 C 29.03 73.08 28.94 67.91 29.04 62.75 Z" />
</g>
<g id="#3840d8ff">
<path fill="#3840d8" opacity="1.00" d=" M 48.15 68.12 C 49.67 65.39 52.89 63.94 55.95 64.19 C 60.16 64.40 65.19 63.10 68.54 66.42 C 71.92 69.42 70.74 74.24 70.98 78.21 C 69.66 78.24 68.35 78.26 67.03 78.27 C 66.72 75.07 68.28 70.31 64.61 68.57 C 61.17 67.87 57.53 68.22 54.03 68.35 C 49.31 69.89 51.48 75.89 50.89 79.55 C 49.86 78.35 48.51 77.53 47.05 76.95 C 47.17 74.01 46.51 70.76 48.15 68.12 Z" />
</g>
<g id="#303cd0ff">
<path fill="#303cd0" opacity="1.00" d=" M 83.01 72.94 C 84.33 72.92 85.65 72.91 86.97 72.90 C 87.03 76.31 87.02 79.72 86.97 83.12 C 85.65 83.11 84.34 83.09 83.03 83.06 C 83.05 79.69 82.96 76.31 83.01 72.94 Z" />
</g>
<g id="#f8a498ff">
<path fill="#f8a498" opacity="1.00" d=" M 40.02 82.01 C 40.65 78.84 43.83 76.53 47.05 76.95 C 48.51 77.53 49.86 78.35 50.89 79.55 C 51.02 79.84 51.28 80.42 51.41 80.71 C 48.35 82.80 45.86 85.56 43.45 88.34 C 41.18 87.17 39.57 84.60 40.02 82.01 Z" />
</g>
<g id="#1834c8ff">
<path fill="#1834c8" opacity="1.00" d=" M 29.01 78.24 C 30.34 78.24 31.67 78.24 33.00 78.23 C 33.04 82.20 32.94 86.17 33.03 90.14 C 37.86 90.08 42.67 90.62 47.50 90.64 L 47.71 88.86 C 48.74 88.31 49.72 87.65 50.58 86.85 C 50.61 89.32 50.83 91.78 50.93 94.25 C 44.68 93.17 38.36 94.87 32.05 94.03 C 30.31 93.58 28.93 91.87 29.03 90.03 C 28.96 86.10 29.00 82.17 29.01 78.24 Z" />
<path fill="#1834c8" opacity="1.00" d=" M 67.03 78.27 C 68.35 78.26 69.66 78.24 70.98 78.21 C 71.06 82.19 70.93 86.17 71.04 90.14 C 75.01 90.21 78.99 90.21 82.96 90.14 C 83.05 87.78 82.96 85.42 83.03 83.06 C 84.34 83.09 85.65 83.11 86.97 83.12 C 86.62 86.75 88.58 92.47 83.99 94.02 C 78.35 94.38 72.68 94.12 67.03 94.16 C 66.98 88.86 66.97 83.57 67.03 78.27 Z" />
</g>
<g id="#f88490ff">
<path fill="#f88490" opacity="1.00" d=" M 51.41 80.71 C 52.65 82.60 51.82 85.16 50.58 86.85 C 49.72 87.65 48.74 88.31 47.71 88.86 C 46.20 89.18 44.78 89.00 43.45 88.34 C 45.86 85.56 48.35 82.80 51.41 80.71 Z" />
</g>
</svg>
