<?xml version="1.0" encoding="UTF-8" ?>
<!DOCTYPE svg PUBLIC "-//W3C//DTD SVG 1.1//EN" "http://www.w3.org/Graphics/SVG/1.1/DTD/svg11.dtd">
<svg width="117px" height="140px" viewBox="0 0 117 140" version="1.1" xmlns="http://www.w3.org/2000/svg">
<g id="#181818ff">
<path fill="#181818" opacity="1.00" d=" M 0.00 0.00 L 117.00 0.00 L 117.00 140.00 L 0.00 140.00 L 0.00 0.00 M 61.55 17.44 L 62.36 17.65 C 58.99 17.66 55.72 20.59 55.98 24.07 C 56.00 25.82 57.31 27.14 58.15 28.56 L 58.04 28.65 C 57.60 29.76 57.17 30.88 56.75 31.99 C 55.80 34.91 54.81 37.82 53.86 40.74 C 51.38 38.51 48.85 34.83 44.99 35.83 C 40.45 36.83 39.49 42.26 38.76 46.11 L 38.92 46.68 L 38.30 46.96 C 36.15 51.70 35.00 56.84 33.19 61.72 C 31.81 65.74 30.44 69.77 29.27 73.86 L 28.83 73.80 C 27.17 78.06 29.97 83.91 35.07 83.08 C 42.83 81.04 50.33 78.08 57.99 75.68 C 62.84 73.90 67.88 72.64 72.64 70.62 C 75.48 69.44 75.90 66.18 75.90 63.50 C 74.29 61.50 72.61 59.57 70.84 57.71 C 74.11 56.62 77.37 55.55 80.64 54.48 L 80.84 53.61 C 81.12 54.14 81.69 55.20 81.97 55.73 L 81.75 55.96 C 84.12 57.18 86.72 57.00 88.73 55.17 C 88.88 53.98 89.03 52.78 89.18 51.59 C 91.32 50.78 93.94 50.37 95.26 48.28 C 96.71 46.45 96.14 44.05 96.04 41.93 L 95.71 42.06 C 92.72 38.40 89.21 35.22 85.89 31.87 C 80.68 26.84 75.79 21.45 70.45 16.54 C 67.83 13.98 64.00 15.43 61.55 17.44 Z" />
</g>
<g id="#8860f0ff">
<path fill="#8860f0" opacity="1.00" d=" M 61.55 17.44 C 64.00 15.43 67.83 13.98 70.45 16.54 C 75.79 21.45 80.68 26.84 85.89 31.87 C 84.45 32.29 83.00 32.71 81.56 33.13 C 76.34 28.44 72.13 22.56 66.19 18.74 C 64.93 18.34 63.65 17.98 62.36 17.65 L 61.55 17.44 Z" />
</g>
<g id="#e86cd8ff">
<path fill="#e86cd8" opacity="1.00" d=" M 55.98 24.07 C 55.72 20.59 58.99 17.66 62.36 17.65 C 63.65 17.98 64.93 18.34 66.19 18.74 C 66.40 19.26 66.80 20.29 67.01 20.81 C 64.18 23.53 61.27 26.17 58.15 28.56 C 57.31 27.14 56.00 25.82 55.98 24.07 Z" />
</g>
<g id="#f8b458ff">
<path fill="#f8b458" opacity="1.00" d=" M 66.19 18.74 C 72.13 22.56 76.34 28.44 81.56 33.13 L 82.22 33.79 C 76.29 39.63 70.61 45.73 64.58 51.49 C 59.83 55.96 55.80 61.27 50.21 64.78 C 48.32 64.00 45.79 62.10 44.00 64.10 C 42.46 65.66 43.78 67.84 44.11 69.62 L 43.15 69.66 C 43.24 70.61 43.42 72.49 43.52 73.43 L 44.59 73.85 C 45.49 74.23 46.39 74.62 47.29 75.02 C 42.85 76.37 38.59 78.40 34.00 79.18 C 31.40 78.81 32.78 76.08 33.06 74.42 C 34.25 70.93 35.48 67.46 36.63 63.95 C 38.72 57.69 40.82 51.43 42.85 45.14 C 43.63 43.10 44.03 40.64 45.98 39.34 C 49.15 41.13 51.21 44.26 54.14 46.36 C 54.58 46.31 55.46 46.22 55.90 46.18 C 57.41 43.39 58.12 40.27 59.15 37.30 C 59.60 36.46 60.07 35.63 60.54 34.81 C 62.89 33.89 65.76 33.47 67.29 31.25 C 68.50 29.63 68.36 27.50 68.56 25.60 C 68.12 23.98 67.60 22.38 67.01 20.81 C 66.80 20.29 66.40 19.26 66.19 18.74 Z" />
</g>
<g id="#d048c0ff">
<path fill="#d048c0" opacity="1.00" d=" M 58.15 28.56 C 61.27 26.17 64.18 23.53 67.01 20.81 C 67.60 22.38 68.12 23.98 68.56 25.60 C 66.64 27.58 64.40 29.23 61.77 30.14 C 60.53 29.64 59.28 29.14 58.04 28.65 L 58.15 28.56 Z" />
</g>
<g id="#a07840ff">
<path fill="#a07840" opacity="1.00" d=" M 61.77 30.14 C 64.40 29.23 66.64 27.58 68.56 25.60 C 68.36 27.50 68.50 29.63 67.29 31.25 C 65.76 33.47 62.89 33.89 60.54 34.81 C 60.07 35.63 59.60 36.46 59.15 37.30 C 59.52 36.12 59.88 34.95 60.29 33.79 C 60.77 32.57 61.26 31.35 61.77 30.14 Z" />
</g>
<g id="#523a95ff">
<path fill="#523a95" opacity="1.00" d=" M 58.04 28.65 C 59.28 29.14 60.53 29.64 61.77 30.14 C 61.26 31.35 60.77 32.57 60.29 33.79 C 59.11 33.19 57.93 32.59 56.75 31.99 C 57.17 30.88 57.60 29.76 58.04 28.65 Z" />
</g>
<g id="#6854e8ff">
<path fill="#6854e8" opacity="1.00" d=" M 56.75 31.99 C 57.93 32.59 59.11 33.19 60.29 33.79 C 59.88 34.95 59.52 36.12 59.15 37.30 C 58.12 40.27 57.41 43.39 55.90 46.18 C 55.46 46.22 54.58 46.31 54.14 46.36 C 51.21 44.26 49.15 41.13 45.98 39.34 C 44.03 40.64 43.63 43.10 42.85 45.14 C 41.54 45.66 40.23 46.18 38.92 46.68 L 38.76 46.11 C 39.49 42.26 40.45 36.83 44.99 35.83 C 48.85 34.83 51.38 38.51 53.86 40.74 C 54.81 37.82 55.80 34.91 56.75 31.99 Z" />
</g>
<g id="#7054e8ff">
<path fill="#7054e8" opacity="1.00" d=" M 81.56 33.13 C 83.00 32.71 84.45 32.29 85.89 31.87 C 89.21 35.22 92.72 38.40 95.71 42.06 C 94.51 42.54 93.30 43.03 92.11 43.52 C 88.78 40.31 85.49 37.06 82.22 33.79 L 81.56 33.13 Z" />
</g>
<g id="#f8a050ff">
<path fill="#f8a050" opacity="1.00" d=" M 82.22 33.79 C 85.49 37.06 88.78 40.31 92.11 43.52 C 93.23 47.71 87.39 47.66 84.80 48.87 C 84.38 49.00 83.54 49.26 83.12 49.39 C 76.92 51.71 70.47 53.34 64.43 56.07 C 66.38 59.14 68.99 61.69 71.67 64.12 C 71.95 65.32 71.98 66.69 70.59 67.16 C 64.69 69.56 58.49 71.18 52.49 73.34 C 50.76 73.90 49.02 74.45 47.29 75.02 C 46.39 74.62 45.49 74.23 44.59 73.85 C 46.28 73.56 48.46 73.98 49.55 72.29 C 49.43 71.55 49.20 70.07 49.08 69.33 C 49.42 67.81 49.81 66.29 50.21 64.78 C 55.80 61.27 59.83 55.96 64.58 51.49 C 70.61 45.73 76.29 39.63 82.22 33.79 Z" />
</g>
<g id="#6050e0ff">
<path fill="#6050e0" opacity="1.00" d=" M 95.71 42.06 L 96.04 41.93 C 96.14 44.05 96.71 46.45 95.26 48.28 C 93.94 50.37 91.32 50.78 89.18 51.59 C 89.03 52.78 88.88 53.98 88.73 55.17 C 88.46 53.38 88.22 51.59 87.88 49.81 C 87.11 49.57 85.57 49.10 84.80 48.87 C 87.39 47.66 93.23 47.71 92.11 43.52 C 93.30 43.03 94.51 42.54 95.71 42.06 Z" />
</g>
<g id="#5048d8ff">
<path fill="#5048d8" opacity="1.00" d=" M 38.92 46.68 C 40.23 46.18 41.54 45.66 42.85 45.14 C 40.82 51.43 38.72 57.69 36.63 63.95 C 35.48 63.21 34.34 62.46 33.19 61.72 C 35.00 56.84 36.15 51.70 38.30 46.96 L 38.92 46.68 Z" />
</g>
<g id="#4848d8ff">
<path fill="#4848d8" opacity="1.00" d=" M 64.43 56.07 C 70.47 53.34 76.92 51.71 83.12 49.39 C 81.80 50.44 81.03 51.94 80.84 53.61 L 80.64 54.48 C 77.37 55.55 74.11 56.62 70.84 57.71 C 72.61 59.57 74.29 61.50 75.90 63.50 C 74.49 63.70 73.08 63.90 71.67 64.12 C 68.99 61.69 66.38 59.14 64.43 56.07 Z" />
</g>
<g id="#91c0e2ff">
<path fill="#91c0e2" opacity="1.00" d=" M 83.12 49.39 C 83.54 49.26 84.38 49.00 84.80 48.87 C 85.57 49.10 87.11 49.57 87.88 49.81 C 85.91 51.78 83.92 53.73 81.97 55.73 C 81.69 55.20 81.12 54.14 80.84 53.61 C 81.03 51.94 81.80 50.44 83.12 49.39 Z" />
</g>
<g id="#7098f0ff">
<path fill="#7098f0" opacity="1.00" d=" M 87.88 49.81 C 88.22 51.59 88.46 53.38 88.73 55.17 C 86.72 57.00 84.12 57.18 81.75 55.96 L 81.97 55.73 C 83.92 53.73 85.91 51.78 87.88 49.81 Z" />
</g>
<g id="#3040d0ff">
<path fill="#3040d0" opacity="1.00" d=" M 29.27 73.86 C 30.44 69.77 31.81 65.74 33.19 61.72 C 34.34 62.46 35.48 63.21 36.63 63.95 C 35.48 67.46 34.25 70.93 33.06 74.42 C 31.80 74.24 30.53 74.05 29.27 73.86 Z" />
</g>
<g id="#f89c98ff">
<path fill="#f89c98" opacity="1.00" d=" M 44.00 64.10 C 45.79 62.10 48.32 64.00 50.21 64.78 C 49.81 66.29 49.42 67.81 49.08 69.33 C 47.84 69.40 45.36 69.55 44.11 69.62 C 43.78 67.84 42.46 65.66 44.00 64.10 Z" />
</g>
<g id="#303cd0ff">
<path fill="#303cd0" opacity="1.00" d=" M 71.67 64.12 C 73.08 63.90 74.49 63.70 75.90 63.50 C 75.90 66.18 75.48 69.44 72.64 70.62 C 67.88 72.64 62.84 73.90 57.99 75.68 C 56.15 74.90 54.32 74.12 52.49 73.34 C 58.49 71.18 64.69 69.56 70.59 67.16 C 71.98 66.69 71.95 65.32 71.67 64.12 Z" />
</g>
<g id="#a06830ff">
<path fill="#a06830" opacity="1.00" d=" M 43.15 69.66 L 44.11 69.62 C 45.36 69.55 47.84 69.40 49.08 69.33 C 49.20 70.07 49.43 71.55 49.55 72.29 C 48.46 73.98 46.28 73.56 44.59 73.85 L 43.52 73.43 C 43.42 72.49 43.24 70.61 43.15 69.66 Z" />
</g>
<g id="#1838c8ff">
<path fill="#1838c8" opacity="1.00" d=" M 28.83 73.80 L 29.27 73.86 C 30.53 74.05 31.80 74.24 33.06 74.42 C 32.78 76.08 31.40 78.81 34.00 79.18 C 38.59 78.40 42.85 76.37 47.29 75.02 C 49.02 74.45 50.76 73.90 52.49 73.34 C 54.32 74.12 56.15 74.90 57.99 75.68 C 50.33 78.08 42.83 81.04 35.07 83.08 C 29.97 83.91 27.17 78.06 28.83 73.80 Z" />
</g>
</svg>
