<?xml version="1.0" encoding="UTF-8" ?>
<!DOCTYPE svg PUBLIC "-//W3C//DTD SVG 1.1//EN" "http://www.w3.org/Graphics/SVG/1.1/DTD/svg11.dtd">
<svg width="117px" height="140px" viewBox="0 0 117 140" version="1.1" xmlns="http://www.w3.org/2000/svg">
<g id="#f8a04aff">
<path fill="#f8a04a" opacity="1.00" d=" M 0.00 0.00 L 0.24 0.00 C 0.18 0.06 0.06 0.19 0.00 0.25 L 0.00 0.00 Z" />
<path fill="#f8a04a" opacity="1.00" d=" M 59.07 32.58 C 72.36 32.45 85.64 32.49 98.93 32.56 C 98.21 34.76 96.83 36.60 95.12 38.12 C 90.50 42.49 86.21 47.20 81.51 51.48 C 79.95 53.08 77.35 52.63 75.96 51.04 C 71.36 46.65 66.97 42.03 62.38 37.62 C 60.83 36.27 59.77 34.50 59.07 32.58 Z" />
</g>
<g id="#181818ff">
<path fill="#181818" opacity="1.00" d=" M 0.24 0.00 L 117.00 0.00 L 117.00 140.00 L 0.00 140.00 L 0.00 0.25 C 0.06 0.19 0.18 0.06 0.24 0.00 M 73.35 17.35 C 68.67 22.50 63.08 26.86 59.07 32.58 C 59.77 34.50 60.83 36.27 62.38 37.62 C 66.97 42.03 71.36 46.65 75.96 51.04 C 77.35 52.63 79.95 53.08 81.51 51.48 C 86.21 47.20 90.50 42.49 95.12 38.12 C 96.83 36.60 98.21 34.76 98.93 32.56 C 96.25 28.45 92.37 25.36 89.04 21.81 C 86.30 19.21 83.92 16.20 80.88 13.95 C 77.80 12.16 75.31 15.44 73.35 17.35 M 22.31 18.34 C 19.84 21.07 21.07 25.70 24.30 27.23 C 24.30 27.87 24.28 29.14 24.28 29.78 C 24.00 34.56 23.79 39.35 24.10 44.13 C 24.07 46.14 25.84 47.94 27.86 47.89 C 34.93 48.10 42.00 47.96 49.07 47.96 C 51.06 48.13 53.40 47.16 53.78 45.00 C 54.32 39.51 53.85 33.98 54.01 28.47 C 53.66 25.09 55.42 19.37 50.93 18.18 C 44.44 17.71 37.90 18.13 31.40 18.01 C 29.08 15.25 24.41 15.37 22.31 18.34 M 90.05 58.06 C 82.39 58.07 74.70 57.75 67.05 58.18 C 63.55 58.84 64.03 63.07 63.93 65.73 C 64.16 71.86 63.77 78.00 64.11 84.12 C 64.05 86.15 65.86 87.95 67.89 87.87 C 74.95 88.08 82.02 87.94 89.08 87.94 C 91.42 88.24 94.00 86.63 93.89 84.08 C 94.09 76.78 94.25 69.44 93.47 62.17 C 96.64 62.29 99.38 58.52 97.27 55.78 C 95.31 52.54 89.88 54.30 90.05 58.06 M 23.97 66.98 C 24.18 72.98 23.65 79.00 24.23 84.98 C 24.82 88.12 28.54 88.15 31.04 87.87 C 37.38 87.25 43.72 88.37 50.06 87.87 C 52.09 87.97 53.92 86.18 53.90 84.16 C 54.21 78.15 53.86 72.13 54.05 66.12 C 53.98 64.18 54.10 62.18 53.61 60.28 C 52.23 57.35 48.58 58.09 45.96 57.97 C 39.63 58.17 33.27 57.69 26.95 58.19 C 23.09 59.22 24.15 64.00 23.97 66.98 Z" />
<path fill="#181818" opacity="1.00" d=" M 33.17 21.97 C 38.78 21.99 44.40 22.00 50.01 21.99 C 50.01 24.13 50.01 26.26 50.00 28.40 C 49.99 33.60 50.00 38.81 49.99 44.01 C 42.67 44.02 35.34 44.02 28.01 44.01 C 28.03 39.63 28.06 35.26 27.76 30.89 C 27.73 30.28 27.65 29.06 27.62 28.45 C 30.21 27.02 32.72 25.11 33.17 21.97 Z" />
<path fill="#181818" opacity="1.00" d=" M 28.00 62.01 C 35.33 62.00 42.66 62.00 49.99 62.00 C 49.99 62.81 49.99 64.42 49.99 65.22 C 50.00 71.47 50.00 77.72 50.00 83.97 C 46.47 83.96 42.94 84.00 39.42 84.26 C 38.66 82.68 38.37 79.81 36.00 79.97 C 33.59 79.67 33.23 82.72 32.38 84.27 C 30.92 84.14 29.46 84.03 28.00 83.92 C 28.00 78.00 28.00 72.09 28.00 66.18 C 28.00 64.79 28.00 63.40 28.00 62.01 Z" />
<path fill="#181818" opacity="1.00" d=" M 68.01 62.00 C 75.34 61.96 82.68 62.14 90.01 61.82 C 90.09 69.21 89.93 76.61 90.00 84.00 C 82.67 84.00 75.33 84.00 68.00 84.00 C 68.00 77.86 68.00 71.73 68.01 65.59 C 68.01 64.70 68.01 62.90 68.01 62.00 Z" />
</g>
<g id="#f8be6eff">
<path fill="#f8be6e" opacity="1.00" d=" M 73.35 17.35 C 75.31 15.44 77.80 12.16 80.88 13.95 C 83.92 16.20 86.30 19.21 89.04 21.81 C 92.37 25.36 96.25 28.45 98.93 32.56 C 85.64 32.49 72.36 32.45 59.07 32.58 C 63.08 26.86 68.67 22.50 73.35 17.35 Z" />
<path fill="#f8be6e" opacity="1.00" d=" M 22.31 18.34 C 24.41 15.37 29.08 15.25 31.40 18.01 C 32.04 19.30 32.62 20.63 33.17 21.97 C 32.72 25.11 30.21 27.02 27.62 28.45 C 26.51 28.05 25.40 27.67 24.30 27.23 C 21.07 25.70 19.84 21.07 22.31 18.34 Z" />
</g>
<g id="#8e60f3ff">
<path fill="#8e60f3" opacity="1.00" d=" M 31.40 18.01 C 37.90 18.13 44.44 17.71 50.93 18.18 C 55.42 19.37 53.66 25.09 54.01 28.47 C 52.67 28.45 51.34 28.42 50.00 28.40 C 50.01 26.26 50.01 24.13 50.01 21.99 C 44.40 22.00 38.78 21.99 33.17 21.97 C 32.62 20.63 32.04 19.30 31.40 18.01 Z" />
<path fill="#8e60f3" opacity="1.00" d=" M 32.38 84.27 C 33.23 82.72 33.59 79.67 36.00 79.97 C 38.37 79.81 38.66 82.68 39.42 84.26 C 38.28 84.87 37.15 85.51 35.96 86.01 C 34.71 85.54 33.56 84.87 32.38 84.27 Z" />
</g>
<g id="#1e37c7ff">
<path fill="#1e37c7" opacity="1.00" d=" M 24.30 27.23 C 25.40 27.67 26.51 28.05 27.62 28.45 C 27.65 29.06 27.73 30.28 27.76 30.89 C 26.60 30.51 25.44 30.14 24.28 29.78 C 24.28 29.14 24.30 27.87 24.30 27.23 Z" />
<path fill="#1e37c7" opacity="1.00" d=" M 90.01 61.82 C 90.00 61.28 89.99 60.20 89.99 59.67 C 91.13 60.51 92.28 61.37 93.47 62.17 C 94.25 69.44 94.09 76.78 93.89 84.08 C 94.00 86.63 91.42 88.24 89.08 87.94 C 82.02 87.94 74.95 88.08 67.89 87.87 C 65.86 87.95 64.05 86.15 64.11 84.12 C 63.77 78.00 64.16 71.86 63.93 65.73 C 65.29 65.67 66.65 65.62 68.01 65.59 C 68.00 71.73 68.00 77.86 68.00 84.00 C 75.33 84.00 82.67 84.00 90.00 84.00 C 89.93 76.61 90.09 69.21 90.01 61.82 Z" />
<path fill="#1e37c7" opacity="1.00" d=" M 49.99 65.22 C 51.35 65.52 52.70 65.82 54.05 66.12 C 53.86 72.13 54.21 78.15 53.90 84.16 C 53.92 86.18 52.09 87.97 50.06 87.87 C 43.72 88.37 37.38 87.25 31.04 87.87 C 28.54 88.15 24.82 88.12 24.23 84.98 C 23.65 79.00 24.18 72.98 23.97 66.98 C 25.32 66.72 26.66 66.45 28.00 66.18 C 28.00 72.09 28.00 78.00 28.00 83.92 C 29.46 84.03 30.92 84.14 32.38 84.27 C 33.56 84.87 34.71 85.54 35.96 86.01 C 37.15 85.51 38.28 84.87 39.42 84.26 C 42.94 84.00 46.47 83.96 50.00 83.97 C 50.00 77.72 50.00 71.47 49.99 65.22 Z" />
</g>
<g id="#6752e3ff">
<path fill="#6752e3" opacity="1.00" d=" M 50.00 28.40 C 51.34 28.42 52.67 28.45 54.01 28.47 C 53.85 33.98 54.32 39.51 53.78 45.00 C 53.40 47.16 51.06 48.13 49.07 47.96 C 42.00 47.96 34.93 48.10 27.86 47.89 C 25.84 47.94 24.07 46.14 24.10 44.13 C 23.79 39.35 24.00 34.56 24.28 29.78 C 25.44 30.14 26.60 30.51 27.76 30.89 C 28.06 35.26 28.03 39.63 28.01 44.01 C 35.34 44.02 42.67 44.02 49.99 44.01 C 50.00 38.81 49.99 33.60 50.00 28.40 Z" />
</g>
<g id="#2eedcaff">
<path fill="#2eedca" opacity="1.00" d=" M 90.05 58.06 C 89.88 54.30 95.31 52.54 97.27 55.78 C 99.38 58.52 96.64 62.29 93.47 62.17 C 92.28 61.37 91.13 60.51 89.99 59.67 C 90.00 59.26 90.03 58.46 90.05 58.06 Z" />
</g>
<g id="#4245d6ff">
<path fill="#4245d6" opacity="1.00" d=" M 23.97 66.98 C 24.15 64.00 23.09 59.22 26.95 58.19 C 33.27 57.69 39.63 58.17 45.96 57.97 C 48.58 58.09 52.23 57.35 53.61 60.28 C 54.10 62.18 53.98 64.18 54.05 66.12 C 52.70 65.82 51.35 65.52 49.99 65.22 C 49.99 64.42 49.99 62.81 49.99 62.00 C 42.66 62.00 35.33 62.00 28.00 62.01 C 28.00 63.40 28.00 64.79 28.00 66.18 C 26.66 66.45 25.32 66.72 23.97 66.98 Z" />
<path fill="#4245d6" opacity="1.00" d=" M 63.93 65.73 C 64.03 63.07 63.55 58.84 67.05 58.18 C 74.70 57.75 82.39 58.07 90.05 58.06 C 90.03 58.46 90.00 59.26 89.99 59.67 C 89.99 60.20 90.00 61.28 90.01 61.82 C 82.68 62.14 75.34 61.96 68.01 62.00 C 68.01 62.90 68.01 64.70 68.01 65.59 C 66.65 65.62 65.29 65.67 63.93 65.73 Z" />
</g>
</svg>
