<?xml version="1.0" encoding="UTF-8" ?>
<!DOCTYPE svg PUBLIC "-//W3C//DTD SVG 1.1//EN" "http://www.w3.org/Graphics/SVG/1.1/DTD/svg11.dtd">
<svg width="117px" height="140px" viewBox="0 0 117 140" version="1.1" xmlns="http://www.w3.org/2000/svg">
<g id="#181818ff">
<path fill="#181818" opacity="1.00" d=" M 0.00 0.00 L 117.00 0.00 L 117.00 140.00 L 0.00 140.00 L 0.00 0.00 M 29.91 12.85 C 27.73 12.96 25.53 12.93 23.38 13.40 C 22.41 19.63 23.39 25.98 23.02 32.27 C 23.06 42.42 22.74 52.58 23.27 62.73 C 25.84 62.86 28.42 62.95 30.99 62.98 C 31.00 64.33 31.00 65.67 31.00 67.01 C 34.97 67.02 38.94 66.93 42.91 66.90 C 42.91 65.60 42.90 64.29 42.91 62.99 C 53.27 62.90 63.63 62.90 74.00 62.99 C 74.00 64.98 74.00 66.97 74.00 68.96 C 72.01 68.98 70.02 69.00 68.03 69.06 C 67.97 72.97 67.98 76.89 68.03 80.80 C 70.20 80.99 72.44 80.80 74.55 81.41 C 76.53 82.91 78.21 84.77 80.00 86.48 C 81.78 84.75 83.45 82.88 85.44 81.37 C 87.52 80.77 89.72 80.88 91.86 80.69 C 91.91 76.85 91.96 73.01 91.89 69.17 C 89.93 69.08 87.97 69.02 86.00 68.96 C 86.00 66.97 86.00 64.98 86.00 62.99 C 88.93 62.97 91.86 62.88 94.78 62.72 C 94.96 58.88 94.76 55.05 94.77 51.21 C 95.99 49.99 98.08 49.02 97.90 47.00 C 97.99 45.28 96.65 43.28 94.83 43.26 C 94.49 33.33 95.65 23.29 94.58 13.42 C 91.78 12.68 88.85 13.04 85.99 12.98 C 71.37 13.01 56.74 13.02 42.11 12.97 C 40.38 11.29 38.69 8.91 36.00 9.00 C 33.36 8.94 31.67 11.23 29.91 12.85 M 35.44 75.31 C 33.19 76.15 32.17 79.31 33.75 81.20 C 35.45 84.08 40.31 83.04 40.82 79.78 C 41.61 76.83 38.21 73.91 35.44 75.31 Z" />
<path fill="#181818" opacity="1.00" d=" M 27.24 16.35 C 30.22 17.80 32.77 20.13 36.00 21.01 C 39.30 20.45 41.42 16.90 44.92 17.03 C 60.27 16.95 75.63 17.03 90.99 17.00 C 90.85 25.94 91.64 34.90 90.74 43.81 C 90.46 45.89 90.49 47.99 90.77 50.07 C 91.09 53.04 91.16 56.02 91.18 59.01 C 69.79 59.09 48.40 59.03 27.02 59.02 C 26.98 50.07 27.05 41.12 26.98 32.17 C 26.88 26.89 26.88 21.61 27.24 16.35 M 51.84 32.13 C 52.52 32.97 53.22 33.80 53.91 34.63 C 55.71 33.81 59.18 31.93 59.62 35.16 C 59.43 40.58 53.25 42.89 51.58 47.72 C 55.87 48.01 60.17 47.86 64.46 47.92 C 64.46 47.06 64.47 45.35 64.48 44.50 C 62.60 44.49 60.72 44.50 58.84 44.50 C 60.59 42.11 62.59 39.80 63.52 36.95 C 64.49 33.84 62.28 30.08 58.91 29.92 C 56.29 29.40 54.00 30.90 51.84 32.13 M 33.32 44.19 C 29.47 45.30 27.46 50.59 30.35 53.66 C 32.89 57.26 38.77 56.36 40.48 52.43 C 42.79 48.11 37.88 42.65 33.32 44.19 Z" />
<path fill="#181818" opacity="1.00" d=" M 32.40 49.41 C 33.15 48.36 34.11 47.49 34.99 46.55 C 35.89 47.83 38.11 48.76 37.58 50.61 C 36.85 51.68 35.88 52.56 35.00 53.51 C 34.11 52.22 31.97 51.25 32.40 49.41 Z" />
</g>
<g id="#7c69ecff">
<path fill="#7c69ec" opacity="1.00" d=" M 29.91 12.85 C 31.67 11.23 33.36 8.94 36.00 9.00 C 38.69 8.91 40.38 11.29 42.11 12.97 C 56.74 13.02 71.37 13.01 85.99 12.98 C 88.85 13.04 91.78 12.68 94.58 13.42 C 95.65 23.29 94.49 33.33 94.83 43.26 C 93.46 43.40 92.10 43.61 90.74 43.81 C 91.64 34.90 90.85 25.94 90.99 17.00 C 75.63 17.03 60.27 16.95 44.92 17.03 C 41.42 16.90 39.30 20.45 36.00 21.01 C 32.77 20.13 30.22 17.80 27.24 16.35 C 26.88 21.61 26.88 26.89 26.98 32.17 C 25.66 32.20 24.34 32.24 23.02 32.27 C 23.39 25.98 22.41 19.63 23.38 13.40 C 25.53 12.93 27.73 12.96 29.91 12.85 Z" />
</g>
<g id="#f8af5aff">
<path fill="#f8af5a" opacity="1.00" d=" M 51.84 32.13 C 54.00 30.90 56.29 29.40 58.91 29.92 C 62.28 30.08 64.49 33.84 63.52 36.95 C 62.59 39.80 60.59 42.11 58.84 44.50 C 60.72 44.50 62.60 44.49 64.48 44.50 C 64.47 45.35 64.46 47.06 64.46 47.92 C 60.17 47.86 55.87 48.01 51.58 47.72 C 53.25 42.89 59.43 40.58 59.62 35.16 C 59.18 31.93 55.71 33.81 53.91 34.63 C 53.22 33.80 52.52 32.97 51.84 32.13 Z" />
<path fill="#f8af5a" opacity="1.00" d=" M 90.74 43.81 C 92.10 43.61 93.46 43.40 94.83 43.26 C 96.65 43.28 97.99 45.28 97.90 47.00 C 98.08 49.02 95.99 49.99 94.77 51.21 C 93.43 50.82 92.10 50.44 90.77 50.07 C 90.49 47.99 90.46 45.89 90.74 43.81 Z" />
<path fill="#f8af5a" opacity="1.00" d=" M 30.99 62.98 C 34.96 63.02 38.93 63.02 42.91 62.99 C 42.90 64.29 42.91 65.60 42.91 66.90 C 38.94 66.93 34.97 67.02 31.00 67.01 C 31.00 65.67 31.00 64.33 30.99 62.98 Z" />
<path fill="#f8af5a" opacity="1.00" d=" M 74.00 62.99 C 78.00 63.01 82.00 63.01 86.00 62.99 C 86.00 64.98 86.00 66.97 86.00 68.96 C 87.97 69.02 89.93 69.08 91.89 69.17 C 91.96 73.01 91.91 76.85 91.86 80.69 C 89.72 80.88 87.52 80.77 85.44 81.37 C 83.45 82.88 81.78 84.75 80.00 86.48 C 78.21 84.77 76.53 82.91 74.55 81.41 C 72.44 80.80 70.20 80.99 68.03 80.80 C 67.98 76.89 67.97 72.97 68.03 69.06 C 70.02 69.00 72.01 68.98 74.00 68.96 C 74.00 66.97 74.00 64.98 74.00 62.99 Z" />
<path fill="#f8af5a" opacity="1.00" d=" M 35.44 75.31 C 38.21 73.91 41.61 76.83 40.82 79.78 C 40.31 83.04 35.45 84.08 33.75 81.20 C 32.17 79.31 33.19 76.15 35.44 75.31 Z" />
</g>
<g id="#293bc8ff">
<path fill="#293bc8" opacity="1.00" d=" M 23.02 32.27 C 24.34 32.24 25.66 32.20 26.98 32.17 C 27.05 41.12 26.98 50.07 27.02 59.02 C 48.40 59.03 69.79 59.09 91.18 59.01 C 91.16 56.02 91.09 53.04 90.77 50.07 C 92.10 50.44 93.43 50.82 94.77 51.21 C 94.76 55.05 94.96 58.88 94.78 62.72 C 91.86 62.88 88.93 62.97 86.00 62.99 C 82.00 63.01 78.00 63.01 74.00 62.99 C 63.63 62.90 53.27 62.90 42.91 62.99 C 38.93 63.02 34.96 63.02 30.99 62.98 C 28.42 62.95 25.84 62.86 23.27 62.73 C 22.74 52.58 23.06 42.42 23.02 32.27 Z" />
<path fill="#293bc8" opacity="1.00" d=" M 33.32 44.19 C 37.88 42.65 42.79 48.11 40.48 52.43 C 38.77 56.36 32.89 57.26 30.35 53.66 C 27.46 50.59 29.47 45.30 33.32 44.19 M 32.40 49.41 C 31.97 51.25 34.11 52.22 35.00 53.51 C 35.88 52.56 36.85 51.68 37.58 50.61 C 38.11 48.76 35.89 47.83 34.99 46.55 C 34.11 47.49 33.15 48.36 32.40 49.41 Z" />
</g>
</svg>
