<?xml version="1.0" encoding="UTF-8" ?>
<!DOCTYPE svg PUBLIC "-//W3C//DTD SVG 1.1//EN" "http://www.w3.org/Graphics/SVG/1.1/DTD/svg11.dtd">
<svg width="117px" height="140px" viewBox="0 0 117 140" version="1.1" xmlns="http://www.w3.org/2000/svg">
<g id="#181818ff">
<path fill="#181818" opacity="1.00" d=" M 0.00 0.00 L 117.00 0.00 L 117.00 140.00 L 0.00 140.00 L 0.00 0.00 M 31.86 14.86 C 29.43 17.08 29.87 20.88 31.84 23.24 C 34.14 25.33 37.95 25.51 40.11 23.11 C 42.53 20.95 42.39 17.11 40.26 14.82 C 37.89 12.86 34.08 12.43 31.86 14.86 M 83.88 37.04 C 65.89 36.94 47.91 36.99 29.92 37.01 C 23.56 36.98 16.75 41.58 16.00 48.19 L 15.15 48.23 C 14.89 51.67 14.75 55.30 16.45 58.42 C 18.91 63.94 24.99 67.29 30.95 66.96 C 49.99 66.97 69.04 67.02 88.08 66.94 C 96.12 67.14 103.03 60.03 103.12 52.08 C 102.86 45.59 98.61 39.28 92.15 37.63 C 91.68 36.04 91.45 33.98 89.61 33.37 C 86.99 32.17 83.98 34.22 83.88 37.04 M 47.41 76.43 C 47.21 77.62 47.13 78.82 47.18 80.03 L 47.73 79.40 L 47.89 80.55 C 49.42 80.42 51.69 81.37 52.57 79.58 C 52.67 78.35 52.67 77.12 52.55 75.89 L 51.40 75.74 L 52.03 75.19 C 50.50 75.37 48.26 74.66 47.41 76.43 Z" />
<path fill="#181818" opacity="1.00" d=" M 19.63 47.93 C 21.48 43.97 25.48 41.01 29.94 41.07 C 48.65 40.81 67.37 41.29 86.07 40.80 C 87.31 40.78 88.54 40.78 89.78 40.79 C 95.28 42.27 99.35 47.28 99.27 53.05 C 97.98 58.23 93.77 63.07 88.06 62.94 C 69.36 63.14 50.65 62.95 31.94 63.03 C 27.97 63.22 23.72 61.96 21.33 58.59 C 18.85 55.62 18.82 51.52 19.63 47.93 M 23.00 52.00 C 22.87 55.65 26.27 59.06 29.92 58.97 C 34.93 59.09 39.94 58.92 44.96 58.96 C 44.95 54.32 44.96 49.68 44.97 45.03 C 39.95 45.06 34.93 44.91 29.92 45.03 C 26.26 44.92 22.87 48.36 23.00 52.00 M 48.00 45.00 C 47.98 49.67 47.98 54.33 48.00 59.00 C 55.32 59.03 62.64 58.97 69.95 58.95 C 69.94 54.31 69.95 49.67 69.97 45.04 C 62.64 45.02 55.32 44.97 48.00 45.00 M 73.00 45.00 C 72.98 49.67 72.98 54.33 73.00 59.00 C 78.34 58.95 83.70 59.17 89.04 58.86 C 91.32 58.78 93.08 56.95 94.16 55.10 C 96.24 51.43 93.87 46.16 89.69 45.43 C 84.15 44.77 78.56 45.05 73.00 45.00 Z" />
</g>
<g id="#8660f3ff">
<path fill="#8660f3" opacity="1.00" d=" M 31.86 14.86 C 34.08 12.43 37.89 12.86 40.26 14.82 C 37.57 17.75 34.76 20.56 31.84 23.24 C 29.87 20.88 29.43 17.08 31.86 14.86 Z" />
<path fill="#8660f3" opacity="1.00" d=" M 16.00 48.19 C 16.75 41.58 23.56 36.98 29.92 37.01 C 47.91 36.99 65.89 36.94 83.88 37.04 C 84.54 38.33 85.31 39.57 86.07 40.80 C 67.37 41.29 48.65 40.81 29.94 41.07 C 25.48 41.01 21.48 43.97 19.63 47.93 C 18.42 48.02 17.21 48.11 16.00 48.19 Z" />
<path fill="#8660f3" opacity="1.00" d=" M 92.15 37.63 C 98.61 39.28 102.86 45.59 103.12 52.08 C 101.85 52.44 100.56 52.77 99.27 53.05 C 99.35 47.28 95.28 42.27 89.78 40.79 C 90.56 39.73 91.35 38.68 92.15 37.63 Z" />
</g>
<g id="#213acaff">
<path fill="#213aca" opacity="1.00" d=" M 40.26 14.82 C 42.39 17.11 42.53 20.95 40.11 23.11 C 37.95 25.51 34.14 25.33 31.84 23.24 C 34.76 20.56 37.57 17.75 40.26 14.82 Z" />
<path fill="#213aca" opacity="1.00" d=" M 15.15 48.23 L 16.00 48.19 C 17.21 48.11 18.42 48.02 19.63 47.93 C 18.82 51.52 18.85 55.62 21.33 58.59 C 23.72 61.96 27.97 63.22 31.94 63.03 C 50.65 62.95 69.36 63.14 88.06 62.94 C 93.77 63.07 97.98 58.23 99.27 53.05 C 100.56 52.77 101.85 52.44 103.12 52.08 C 103.03 60.03 96.12 67.14 88.08 66.94 C 69.04 67.02 49.99 66.97 30.95 66.96 C 24.99 67.29 18.91 63.94 16.45 58.42 C 14.75 55.30 14.89 51.67 15.15 48.23 Z" />
</g>
<g id="#f8d375ff">
<path fill="#f8d375" opacity="1.00" d=" M 83.88 37.04 C 83.98 34.22 86.99 32.17 89.61 33.37 C 91.45 33.98 91.68 36.04 92.15 37.63 C 91.35 38.68 90.56 39.73 89.78 40.79 C 88.54 40.78 87.31 40.78 86.07 40.80 C 85.31 39.57 84.54 38.33 83.88 37.04 Z" />
<path fill="#f8d375" opacity="1.00" d=" M 23.00 52.00 C 22.87 48.36 26.26 44.92 29.92 45.03 C 34.93 44.91 39.95 45.06 44.97 45.03 C 44.96 49.68 44.95 54.32 44.96 58.96 C 39.94 58.92 34.93 59.09 29.92 58.97 C 26.27 59.06 22.87 55.65 23.00 52.00 Z" />
<path fill="#f8d375" opacity="1.00" d=" M 47.73 79.40 C 48.87 78.09 50.09 76.86 51.40 75.74 L 52.55 75.89 C 52.67 77.12 52.67 78.35 52.57 79.58 C 51.69 81.37 49.42 80.42 47.89 80.55 L 47.73 79.40 Z" />
</g>
<g id="#f8ae57ff">
<path fill="#f8ae57" opacity="1.00" d=" M 48.00 45.00 C 55.32 44.97 62.64 45.02 69.97 45.04 C 69.95 49.67 69.94 54.31 69.95 58.95 C 62.64 58.97 55.32 59.03 48.00 59.00 C 47.98 54.33 47.98 49.67 48.00 45.00 Z" />
<path fill="#f8ae57" opacity="1.00" d=" M 47.41 76.43 C 48.26 74.66 50.50 75.37 52.03 75.19 L 51.40 75.74 C 50.09 76.86 48.87 78.09 47.73 79.40 L 47.18 80.03 C 47.13 78.82 47.21 77.62 47.41 76.43 Z" />
</g>
<g id="#f8883aff">
<path fill="#f8883a" opacity="1.00" d=" M 73.00 45.00 C 78.56 45.05 84.15 44.77 89.69 45.43 C 93.87 46.16 96.24 51.43 94.16 55.10 C 93.08 56.95 91.32 58.78 89.04 58.86 C 83.70 59.17 78.34 58.95 73.00 59.00 C 72.98 54.33 72.98 49.67 73.00 45.00 Z" />
</g>
</svg>
