<?xml version="1.0" encoding="UTF-8" ?>
<!DOCTYPE svg PUBLIC "-//W3C//DTD SVG 1.1//EN" "http://www.w3.org/Graphics/SVG/1.1/DTD/svg11.dtd">
<svg width="117px" height="140px" viewBox="0 0 117 140" version="1.1" xmlns="http://www.w3.org/2000/svg">
<g id="#181818ff">
<path fill="#181818" opacity="1.00" d=" M 0.00 0.00 L 117.00 0.00 L 117.00 140.00 L 0.00 140.00 L 0.00 0.00 M 56.22 7.20 C 52.24 10.86 48.62 14.88 44.71 18.60 C 44.83 14.91 39.46 13.68 37.68 16.74 C 35.74 19.28 38.00 22.64 40.79 23.18 C 39.68 23.88 38.70 24.75 37.71 25.60 C 31.25 32.27 24.37 38.54 18.27 45.54 L 17.96 45.41 C 18.05 47.37 18.21 49.76 20.33 50.62 C 23.16 51.31 26.12 50.94 29.00 51.00 C 29.06 54.95 29.09 58.90 29.02 62.85 C 28.96 67.67 29.03 72.50 28.98 77.33 C 26.43 76.04 23.72 79.46 25.54 81.62 C 26.40 83.00 28.23 82.64 29.58 83.03 C 29.37 86.59 27.39 92.54 32.04 93.98 C 38.34 94.48 44.68 94.04 50.99 94.18 C 50.99 88.88 51.04 83.57 50.97 78.27 C 51.25 75.07 49.81 70.36 53.39 68.57 C 57.07 67.95 60.94 67.95 64.62 68.57 C 68.21 70.30 66.75 75.04 67.03 78.21 C 66.96 83.53 67.01 88.86 67.01 94.18 C 72.67 94.05 78.35 94.49 84.00 93.97 C 88.56 92.50 86.63 86.66 86.99 83.07 C 87.02 79.01 86.99 74.94 86.93 70.88 C 86.91 69.55 86.88 68.23 86.86 66.91 C 91.32 67.83 94.92 63.12 94.01 58.92 L 93.76 59.19 C 92.96 58.02 92.13 56.86 91.31 55.71 C 89.87 55.41 88.43 54.94 86.95 55.00 C 86.98 53.67 87.01 52.33 87.05 51.00 C 90.38 50.96 93.73 51.21 97.04 50.80 C 99.36 50.35 100.71 47.45 99.62 45.37 C 98.62 43.67 97.08 42.38 95.69 41.01 C 92.88 37.99 89.56 35.40 87.12 32.07 C 86.89 30.02 86.99 27.95 86.99 25.88 C 86.82 20.62 87.28 15.34 86.84 10.09 C 85.52 8.24 82.88 9.25 80.97 8.94 C 79.08 9.25 76.46 8.23 75.19 10.10 C 74.77 13.49 75.07 16.93 75.02 20.34 C 70.54 16.03 66.35 11.44 61.81 7.20 C 60.34 5.60 57.68 5.61 56.22 7.20 Z" />
<path fill="#181818" opacity="1.00" d=" M 45.71 23.32 C 50.10 18.85 54.57 14.47 59.00 10.03 C 65.66 16.65 72.33 23.25 78.93 29.92 C 78.97 24.28 78.98 18.64 79.01 13.00 C 80.34 13.00 81.67 13.00 83.00 13.01 C 83.02 17.28 83.04 21.54 83.01 25.81 C 83.00 28.53 83.00 31.26 83.00 33.98 C 85.88 36.87 88.77 39.76 91.66 42.65 C 93.11 44.10 94.55 45.54 96.00 46.99 C 91.66 47.00 87.32 47.01 82.97 47.00 C 83.03 50.34 83.18 53.70 82.84 57.03 C 82.28 59.39 81.81 61.85 82.77 64.18 L 82.94 64.80 C 83.05 66.53 83.06 68.26 83.05 69.98 C 82.96 74.30 83.04 78.61 83.02 82.92 C 83.01 85.34 83.00 87.76 82.98 90.17 C 78.99 90.19 75.00 90.19 71.01 90.17 C 71.01 86.17 70.99 82.18 71.01 78.18 C 71.01 73.62 71.72 67.51 66.76 65.13 C 62.09 63.50 56.74 63.83 51.96 64.82 C 46.44 66.84 46.85 73.43 46.99 78.21 C 47.02 82.20 46.99 86.18 46.99 90.17 C 42.32 90.19 37.66 90.19 33.00 90.17 C 32.95 86.09 32.96 82.02 32.99 77.94 C 33.01 72.90 33.02 67.86 32.98 62.82 C 32.92 57.55 33.00 52.27 33.01 47.00 C 29.33 46.97 25.65 47.11 21.97 46.93 C 28.45 40.65 34.76 34.18 41.20 27.86 C 42.72 26.37 44.22 24.85 45.71 23.32 M 54.58 35.00 C 54.58 35.74 54.59 37.22 54.60 37.96 C 56.47 38.04 58.40 37.81 60.23 38.32 C 57.84 42.02 54.90 45.46 53.43 49.67 C 57.24 50.11 61.06 49.86 64.88 49.85 C 64.88 49.11 64.87 47.62 64.87 46.87 C 62.76 46.88 60.65 46.90 58.54 46.93 C 60.01 44.30 61.70 41.79 63.48 39.35 C 64.23 38.02 64.77 36.59 65.17 35.12 C 61.64 34.96 58.11 34.98 54.58 35.00 Z" />
</g>
<g id="#9060f0ff">
<path fill="#9060f0" opacity="1.00" d=" M 56.22 7.20 C 57.68 5.61 60.34 5.60 61.81 7.20 C 66.35 11.44 70.54 16.03 75.02 20.34 C 75.07 16.93 74.77 13.49 75.19 10.10 C 76.46 8.23 79.08 9.25 80.97 8.94 C 82.88 9.25 85.52 8.24 86.84 10.09 C 87.28 15.34 86.82 20.62 86.99 25.88 C 85.66 25.86 84.34 25.84 83.01 25.81 C 83.04 21.54 83.02 17.28 83.00 13.01 C 81.67 13.00 80.34 13.00 79.01 13.00 C 78.98 18.64 78.97 24.28 78.93 29.92 C 72.33 23.25 65.66 16.65 59.00 10.03 C 54.57 14.47 50.10 18.85 45.71 23.32 C 45.57 22.69 45.29 21.44 45.15 20.81 C 45.04 20.26 44.82 19.15 44.71 18.60 C 48.62 14.88 52.24 10.86 56.22 7.20 Z" />
</g>
<g id="#e07470ff">
<path fill="#e07470" opacity="1.00" d=" M 37.68 16.74 C 39.46 13.68 44.83 14.91 44.71 18.60 C 44.82 19.15 45.04 20.26 45.15 20.81 C 43.70 21.61 42.25 22.40 40.79 23.18 C 38.00 22.64 35.74 19.28 37.68 16.74 Z" />
</g>
<g id="#503ca0ff">
<path fill="#503ca0" opacity="1.00" d=" M 40.79 23.18 C 42.25 22.40 43.70 21.61 45.15 20.81 C 45.29 21.44 45.57 22.69 45.71 23.32 C 44.22 24.85 42.72 26.37 41.20 27.86 C 40.04 27.11 38.87 26.36 37.71 25.60 C 38.70 24.75 39.68 23.88 40.79 23.18 Z" />
</g>
<g id="#7054e8ff">
<path fill="#7054e8" opacity="1.00" d=" M 18.27 45.54 C 24.37 38.54 31.25 32.27 37.71 25.60 C 38.87 26.36 40.04 27.11 41.20 27.86 C 34.76 34.18 28.45 40.65 21.97 46.93 C 20.72 46.51 19.49 46.03 18.27 45.54 Z" />
</g>
<g id="#7058e8ff">
<path fill="#7058e8" opacity="1.00" d=" M 83.01 25.81 C 84.34 25.84 85.66 25.86 86.99 25.88 C 86.99 27.95 86.89 30.02 87.12 32.07 C 89.56 35.40 92.88 37.99 95.69 41.01 C 94.35 41.55 93.00 42.10 91.66 42.65 C 88.77 39.76 85.88 36.87 83.00 33.98 C 83.00 31.26 83.00 28.53 83.01 25.81 Z" />
</g>
<g id="#f8c868ff">
<path fill="#f8c868" opacity="1.00" d=" M 54.58 35.00 C 58.11 34.98 61.64 34.96 65.17 35.12 C 64.77 36.59 64.23 38.02 63.48 39.35 C 62.40 38.99 61.32 38.64 60.23 38.32 C 58.40 37.81 56.47 38.04 54.60 37.96 C 54.59 37.22 54.58 35.74 54.58 35.00 Z" />
</g>
<g id="#f8a450ff">
<path fill="#f8a450" opacity="1.00" d=" M 60.23 38.32 C 61.32 38.64 62.40 38.99 63.48 39.35 C 61.70 41.79 60.01 44.30 58.54 46.93 C 58.30 47.35 57.83 48.20 57.60 48.62 C 56.21 48.97 54.82 49.32 53.43 49.67 C 54.90 45.46 57.84 42.02 60.23 38.32 Z" />
</g>
<g id="#584ce0ff">
<path fill="#584ce0" opacity="1.00" d=" M 95.69 41.01 C 97.08 42.38 98.62 43.67 99.62 45.37 C 100.71 47.45 99.36 50.35 97.04 50.80 C 93.73 51.21 90.38 50.96 87.05 51.00 C 87.01 52.33 86.98 53.67 86.95 55.00 C 85.55 55.62 84.20 56.33 82.84 57.03 C 83.18 53.70 83.03 50.34 82.97 47.00 C 87.32 47.01 91.66 47.00 96.00 46.99 C 94.55 45.54 93.11 44.10 91.66 42.65 C 93.00 42.10 94.35 41.55 95.69 41.01 Z" />
<path fill="#584ce0" opacity="1.00" d=" M 17.96 45.41 L 18.27 45.54 C 19.49 46.03 20.72 46.51 21.97 46.93 C 25.65 47.11 29.33 46.97 33.01 47.00 C 33.00 52.27 32.92 57.55 32.98 62.82 C 31.66 62.83 30.34 62.84 29.02 62.85 C 29.09 58.90 29.06 54.95 29.00 51.00 C 26.12 50.94 23.16 51.31 20.33 50.62 C 18.21 49.76 18.05 47.37 17.96 45.41 Z" />
</g>
<g id="#f88838ff">
<path fill="#f88838" opacity="1.00" d=" M 58.54 46.93 C 60.65 46.90 62.76 46.88 64.87 46.87 C 64.87 47.62 64.88 49.11 64.88 49.85 C 61.06 49.86 57.24 50.11 53.43 49.67 C 54.82 49.32 56.21 48.97 57.60 48.62 C 57.83 48.20 58.30 47.35 58.54 46.93 Z" />
</g>
<g id="#b880f8ff">
<path fill="#b880f8" opacity="1.00" d=" M 82.84 57.03 C 84.20 56.33 85.55 55.62 86.95 55.00 C 88.43 54.94 89.87 55.41 91.31 55.71 C 88.56 58.63 85.72 61.47 82.77 64.18 C 81.81 61.85 82.28 59.39 82.84 57.03 Z" />
</g>
<g id="#8054f0ff">
<path fill="#8054f0" opacity="1.00" d=" M 91.31 55.71 C 92.13 56.86 92.96 58.02 93.76 59.19 C 91.38 61.87 88.84 64.41 86.03 66.66 C 84.98 66.07 83.95 65.45 82.94 64.80 L 82.77 64.18 C 85.72 61.47 88.56 58.63 91.31 55.71 Z" />
</g>
<g id="#4d2edcff">
<path fill="#4d2edc" opacity="1.00" d=" M 93.76 59.19 L 94.01 58.92 C 94.92 63.12 91.32 67.83 86.86 66.91 C 86.65 66.85 86.24 66.72 86.03 66.66 C 88.84 64.41 91.38 61.87 93.76 59.19 Z" />
</g>
<g id="#3840d0ff">
<path fill="#3840d0" opacity="1.00" d=" M 29.02 62.85 C 30.34 62.84 31.66 62.83 32.98 62.82 C 33.02 67.86 33.01 72.90 32.99 77.94 C 32.28 77.83 31.56 77.72 30.85 77.61 C 30.39 77.54 29.45 77.40 28.98 77.33 C 29.03 72.50 28.96 67.67 29.02 62.85 Z" />
</g>
<g id="#3840d8ff">
<path fill="#3840d8" opacity="1.00" d=" M 51.96 64.82 C 56.74 63.83 62.09 63.50 66.76 65.13 C 71.72 67.51 71.01 73.62 71.01 78.18 C 69.68 78.19 68.36 78.20 67.03 78.21 C 66.75 75.04 68.21 70.30 64.62 68.57 C 60.94 67.95 57.07 67.95 53.39 68.57 C 49.81 70.36 51.25 75.07 50.97 78.27 C 49.64 78.25 48.32 78.23 46.99 78.21 C 46.85 73.43 46.44 66.84 51.96 64.82 Z" />
</g>
<g id="#282888ff">
<path fill="#282888" opacity="1.00" d=" M 82.94 64.80 C 83.95 65.45 84.98 66.07 86.03 66.66 C 86.24 66.72 86.65 66.85 86.86 66.91 C 86.88 68.23 86.91 69.55 86.93 70.88 C 85.63 70.58 84.34 70.28 83.05 69.98 C 83.06 68.26 83.05 66.53 82.94 64.80 Z" />
</g>
<g id="#303cd0ff">
<path fill="#303cd0" opacity="1.00" d=" M 83.05 69.98 C 84.34 70.28 85.63 70.58 86.93 70.88 C 86.99 74.94 87.02 79.01 86.99 83.07 C 85.67 83.02 84.34 82.97 83.02 82.92 C 83.04 78.61 82.96 74.30 83.05 69.98 Z" />
</g>
<g id="#c844a8ff">
<path fill="#c844a8" opacity="1.00" d=" M 25.54 81.62 C 23.72 79.46 26.43 76.04 28.98 77.33 C 29.45 77.40 30.39 77.54 30.85 77.61 C 30.67 79.46 30.33 81.31 29.58 83.03 C 28.23 82.64 26.40 83.00 25.54 81.62 Z" />
</g>
<g id="#1834c8ff">
<path fill="#1834c8" opacity="1.00" d=" M 30.85 77.61 C 31.56 77.72 32.28 77.83 32.99 77.94 C 32.96 82.02 32.95 86.09 33.00 90.17 C 37.66 90.19 42.32 90.19 46.99 90.17 C 46.99 86.18 47.02 82.20 46.99 78.21 C 48.32 78.23 49.64 78.25 50.97 78.27 C 51.04 83.57 50.99 88.88 50.99 94.18 C 44.68 94.04 38.34 94.48 32.04 93.98 C 27.39 92.54 29.37 86.59 29.58 83.03 C 30.33 81.31 30.67 79.46 30.85 77.61 Z" />
<path fill="#1834c8" opacity="1.00" d=" M 67.03 78.21 C 68.36 78.20 69.68 78.19 71.01 78.18 C 70.99 82.18 71.01 86.17 71.01 90.17 C 75.00 90.19 78.99 90.19 82.98 90.17 C 83.00 87.76 83.01 85.34 83.02 82.92 C 84.34 82.97 85.67 83.02 86.99 83.07 C 86.63 86.66 88.56 92.50 84.00 93.97 C 78.35 94.49 72.67 94.05 67.01 94.18 C 67.01 88.86 66.96 83.53 67.03 78.21 Z" />
</g>
</svg>
