<?xml version="1.0" encoding="UTF-8" ?>
<!DOCTYPE svg PUBLIC "-//W3C//DTD SVG 1.1//EN" "http://www.w3.org/Graphics/SVG/1.1/DTD/svg11.dtd">
<svg width="117px" height="140px" viewBox="0 0 117 140" version="1.1" xmlns="http://www.w3.org/2000/svg">
<g id="#181818ff">
<path fill="#181818" opacity="1.00" d=" M 0.00 0.00 L 117.00 0.00 L 117.00 140.00 L 0.00 140.00 L 0.00 0.00 M 24.31 19.40 C 21.18 20.46 18.88 23.62 18.99 26.94 C 19.02 42.33 18.97 57.73 19.02 73.12 C 18.91 77.31 22.67 81.06 26.86 80.97 C 48.26 81.02 69.67 80.93 91.08 80.84 C 95.26 81.03 99.05 77.21 98.84 73.03 C 98.90 59.65 98.95 46.26 98.90 32.88 C 99.06 28.69 95.25 24.95 91.08 25.06 C 77.70 24.90 64.32 25.10 50.94 24.95 C 45.78 25.07 43.24 18.76 38.06 18.99 C 33.49 19.19 28.80 18.50 24.31 19.40 Z" />
</g>
<g id="#f8ad57ff">
<path fill="#f8ad57" opacity="1.00" d=" M 24.31 19.40 C 28.80 18.50 33.49 19.19 38.06 18.99 C 43.24 18.76 45.78 25.07 50.94 24.95 C 64.32 25.10 77.70 24.90 91.08 25.06 C 95.25 24.95 99.06 28.69 98.90 32.88 C 98.95 46.26 98.90 59.65 98.84 73.03 C 99.05 77.21 95.26 81.03 91.08 80.84 C 69.67 80.93 48.26 81.02 26.86 80.97 C 22.67 81.06 18.91 77.31 19.02 73.12 C 18.97 57.73 19.02 42.33 18.99 26.94 C 18.88 23.62 21.18 20.46 24.31 19.40 Z" />
</g>
</svg>
