<?xml version="1.0" encoding="UTF-8" ?>
<!DOCTYPE svg PUBLIC "-//W3C//DTD SVG 1.1//EN" "http://www.w3.org/Graphics/SVG/1.1/DTD/svg11.dtd">
<svg width="117px" height="140px" viewBox="0 0 117 140" version="1.1" xmlns="http://www.w3.org/2000/svg">
<g id="#181818ff">
<path fill="#181818" opacity="1.00" d=" M 0.00 0.00 L 117.00 0.00 L 117.00 140.00 L 0.00 140.00 L 0.00 0.00 M 55.68 7.68 C 50.25 13.02 44.96 18.50 39.52 23.84 C 32.42 31.02 24.99 37.92 18.33 45.51 L 18.04 45.36 C 17.91 47.39 18.25 49.77 20.38 50.66 C 23.19 51.31 26.12 50.92 28.97 51.00 C 29.01 52.34 29.05 53.68 29.08 55.03 C 27.17 56.80 26.20 59.57 28.08 61.79 L 27.96 61.88 C 28.30 62.08 28.98 62.49 29.31 62.69 C 29.15 64.21 29.04 65.73 28.98 67.25 C 29.04 72.49 28.97 77.74 29.04 82.98 C 29.39 86.59 27.43 92.35 31.91 93.97 C 38.25 94.47 44.63 94.06 50.99 94.17 C 51.00 88.85 51.03 83.53 50.98 78.21 C 51.22 75.02 49.83 70.34 53.39 68.57 C 57.04 67.96 60.91 67.98 64.56 68.55 C 68.17 70.18 66.79 74.86 67.02 77.98 C 66.97 83.38 67.00 88.78 67.02 94.18 C 69.90 94.19 72.78 94.20 75.66 94.15 C 78.06 94.24 80.46 94.24 82.86 94.31 C 88.56 93.55 86.79 86.89 86.99 82.90 C 87.00 78.20 87.01 73.51 86.99 68.81 C 86.99 65.18 87.02 61.54 86.98 57.91 C 86.98 55.61 86.99 53.31 87.02 51.02 C 90.37 50.93 93.73 51.20 97.07 50.82 C 99.38 50.30 100.71 47.43 99.62 45.33 C 98.60 43.70 97.12 42.42 95.82 41.03 L 95.66 41.09 C 92.93 37.97 89.60 35.38 87.08 32.09 C 86.92 30.01 87.00 27.91 86.98 25.82 C 86.77 20.59 87.25 15.35 86.85 10.14 C 86.62 9.90 86.18 9.42 85.96 9.19 C 82.67 8.85 79.33 8.86 76.04 9.18 C 74.25 10.67 75.30 13.34 75.02 15.34 C 73.48 14.84 71.70 14.84 70.25 15.61 C 67.21 12.68 64.44 9.47 61.23 6.74 C 59.51 5.35 57.00 6.11 55.68 7.68 Z" />
<path fill="#181818" opacity="1.00" d=" M 42.40 26.57 C 47.93 21.05 53.47 15.53 59.00 10.02 C 61.75 12.78 64.57 15.47 67.25 18.29 C 67.07 20.26 67.03 22.29 67.79 24.16 C 68.69 24.99 69.61 25.79 70.55 26.55 C 72.18 27.00 73.87 26.94 75.49 26.52 C 76.67 27.71 77.84 28.91 79.00 30.11 C 79.01 27.72 79.03 25.33 79.01 22.93 C 78.99 21.57 78.98 20.21 78.96 18.85 C 78.99 16.90 78.99 14.95 79.01 13.00 C 80.34 13.00 81.68 13.00 83.02 13.01 C 83.04 17.29 83.08 21.58 83.02 25.86 C 82.99 28.58 83.00 31.29 83.01 34.00 C 85.88 36.87 88.76 39.75 91.63 42.62 C 93.08 44.07 94.54 45.52 96.00 46.96 C 91.67 47.01 87.33 47.00 83.00 47.00 C 83.01 50.65 83.04 54.30 83.02 57.95 C 83.00 61.35 83.01 64.75 83.01 68.16 C 82.99 73.07 83.00 77.99 83.03 82.91 C 83.04 85.34 83.08 87.77 83.02 90.20 C 79.03 90.33 75.03 90.25 71.05 89.93 C 70.97 85.91 71.00 81.89 71.00 77.87 C 71.31 72.96 71.28 66.18 65.44 64.58 C 60.79 64.01 55.68 63.48 51.22 65.16 C 46.32 67.55 46.97 73.60 47.00 78.15 C 47.01 82.16 46.99 86.16 46.99 90.17 C 42.33 90.19 37.67 90.19 33.02 90.17 C 33.01 87.82 33.00 85.46 32.99 83.11 C 33.00 77.77 33.00 72.42 32.98 67.07 C 32.99 65.60 33.02 64.12 33.08 62.65 C 34.82 60.82 35.72 58.12 33.83 56.04 L 32.96 55.33 C 32.99 52.56 33.00 49.78 33.00 47.00 C 29.31 46.99 25.62 47.03 21.92 46.99 C 28.81 40.24 35.62 33.42 42.40 26.57 M 53.19 35.04 C 54.45 37.39 55.69 39.76 57.21 41.96 C 55.75 44.56 54.51 47.29 53.03 49.89 C 54.28 49.87 55.53 49.86 56.78 49.84 C 57.50 48.07 58.24 46.29 59.34 44.71 L 60.17 46.57 C 60.60 47.65 61.04 48.72 61.48 49.79 C 62.85 49.86 64.23 49.91 65.61 49.97 C 64.61 47.92 63.61 45.85 62.26 44.00 C 61.03 40.70 64.35 37.99 65.38 35.03 C 64.47 35.01 62.65 34.96 61.74 34.93 C 60.93 36.61 60.42 38.51 59.12 39.91 C 58.69 38.18 57.99 36.55 57.21 34.96 C 55.87 34.98 54.53 35.01 53.19 35.04 M 77.31 83.50 C 74.07 85.42 77.39 90.55 80.53 88.48 C 83.83 86.56 80.50 81.09 77.31 83.50 Z" />
</g>
<g id="#9060f8ff">
<path fill="#9060f8" opacity="1.00" d=" M 55.68 7.68 C 57.00 6.11 59.51 5.35 61.23 6.74 C 64.44 9.47 67.21 12.68 70.25 15.61 C 69.22 16.47 68.25 17.39 67.25 18.29 C 64.57 15.47 61.75 12.78 59.00 10.02 C 53.47 15.53 47.93 21.05 42.40 26.57 C 41.44 25.66 40.48 24.75 39.52 23.84 C 44.96 18.50 50.25 13.02 55.68 7.68 Z" />
<path fill="#9060f8" opacity="1.00" d=" M 76.04 9.18 C 79.33 8.86 82.67 8.85 85.96 9.19 C 86.18 9.42 86.62 9.90 86.85 10.14 C 87.25 15.35 86.77 20.59 86.98 25.82 C 85.66 25.83 84.34 25.85 83.02 25.86 C 83.08 21.58 83.04 17.29 83.02 13.01 C 81.68 13.00 80.34 13.00 79.01 13.00 C 78.99 14.95 78.99 16.90 78.96 18.85 L 78.92 19.24 C 78.11 18.19 77.34 17.14 76.49 16.13 C 76.13 15.93 75.39 15.54 75.02 15.34 C 75.30 13.34 74.25 10.67 76.04 9.18 Z" />
</g>
<g id="#50d4d8ff">
<path fill="#50d4d8" opacity="1.00" d=" M 70.25 15.61 C 71.70 14.84 73.48 14.84 75.02 15.34 C 75.39 15.54 76.13 15.93 76.49 16.13 C 74.10 19.31 70.84 21.65 67.79 24.16 C 67.03 22.29 67.07 20.26 67.25 18.29 C 68.25 17.39 69.22 16.47 70.25 15.61 Z" />
</g>
<g id="#40acc0ff">
<path fill="#40acc0" opacity="1.00" d=" M 76.49 16.13 C 77.34 17.14 78.11 18.19 78.92 19.24 C 76.37 21.94 73.32 24.10 70.55 26.55 C 69.61 25.79 68.69 24.99 67.79 24.16 C 70.84 21.65 74.10 19.31 76.49 16.13 Z" />
</g>
<g id="#2f8cb1ff">
<path fill="#2f8cb1" opacity="1.00" d=" M 78.92 19.24 L 78.96 18.85 C 78.98 20.21 78.99 21.57 79.01 22.93 C 77.86 24.15 76.72 25.38 75.49 26.52 C 73.87 26.94 72.18 27.00 70.55 26.55 C 73.32 24.10 76.37 21.94 78.92 19.24 Z" />
</g>
<g id="#4c3e9aff">
<path fill="#4c3e9a" opacity="1.00" d=" M 75.49 26.52 C 76.72 25.38 77.86 24.15 79.01 22.93 C 79.03 25.33 79.01 27.72 79.00 30.11 C 77.84 28.91 76.67 27.71 75.49 26.52 Z" />
</g>
<g id="#7054e8ff">
<path fill="#7054e8" opacity="1.00" d=" M 18.33 45.51 C 24.99 37.92 32.42 31.02 39.52 23.84 C 40.48 24.75 41.44 25.66 42.40 26.57 C 35.62 33.42 28.81 40.24 21.92 46.99 C 20.68 46.62 19.48 46.10 18.33 45.51 Z" />
</g>
<g id="#7058e8ff">
<path fill="#7058e8" opacity="1.00" d=" M 83.02 25.86 C 84.34 25.85 85.66 25.83 86.98 25.82 C 87.00 27.91 86.92 30.01 87.08 32.09 C 89.60 35.38 92.93 37.97 95.66 41.09 C 94.31 41.60 92.97 42.11 91.63 42.62 C 88.76 39.75 85.88 36.87 83.01 34.00 C 83.00 31.29 82.99 28.58 83.02 25.86 Z" />
</g>
<g id="#ebc36cff">
<path fill="#ebc36c" opacity="1.00" d=" M 53.19 35.04 C 54.53 35.01 55.87 34.98 57.21 34.96 C 57.99 36.55 58.69 38.18 59.12 39.91 C 58.65 40.42 57.69 41.44 57.21 41.96 C 55.69 39.76 54.45 37.39 53.19 35.04 Z" />
</g>
<g id="#f8ac58ff">
<path fill="#f8ac58" opacity="1.00" d=" M 59.12 39.91 C 60.42 38.51 60.93 36.61 61.74 34.93 C 62.65 34.96 64.47 35.01 65.38 35.03 C 64.35 37.99 61.03 40.70 62.26 44.00 C 61.58 44.88 60.89 45.73 60.17 46.57 L 59.34 44.71 C 58.24 46.29 57.50 48.07 56.78 49.84 C 55.53 49.86 54.28 49.87 53.03 49.89 C 54.51 47.29 55.75 44.56 57.21 41.96 C 57.69 41.44 58.65 40.42 59.12 39.91 Z" />
</g>
<g id="#584ce0ff">
<path fill="#584ce0" opacity="1.00" d=" M 95.66 41.09 L 95.82 41.03 C 97.12 42.42 98.60 43.70 99.62 45.33 C 100.71 47.43 99.38 50.30 97.07 50.82 C 93.73 51.20 90.37 50.93 87.02 51.02 C 86.99 53.31 86.98 55.61 86.98 57.91 C 85.66 57.92 84.34 57.93 83.02 57.95 C 83.04 54.30 83.01 50.65 83.00 47.00 C 87.33 47.00 91.67 47.01 96.00 46.96 C 94.54 45.52 93.08 44.07 91.63 42.62 C 92.97 42.11 94.31 41.60 95.66 41.09 Z" />
<path fill="#584ce0" opacity="1.00" d=" M 18.04 45.36 L 18.33 45.51 C 19.48 46.10 20.68 46.62 21.92 46.99 C 25.62 47.03 29.31 46.99 33.00 47.00 C 33.00 49.78 32.99 52.56 32.96 55.33 C 31.66 55.21 30.37 55.11 29.08 55.03 C 29.05 53.68 29.01 52.34 28.97 51.00 C 26.12 50.92 23.19 51.31 20.38 50.66 C 18.25 49.77 17.91 47.39 18.04 45.36 Z" />
</g>
<g id="#e98239ff">
<path fill="#e98239" opacity="1.00" d=" M 62.26 44.00 C 63.61 45.85 64.61 47.92 65.61 49.97 C 64.23 49.91 62.85 49.86 61.48 49.79 C 61.04 48.72 60.60 47.65 60.17 46.57 C 60.89 45.73 61.58 44.88 62.26 44.00 Z" />
</g>
<g id="#b84cd0ff">
<path fill="#b84cd0" opacity="1.00" d=" M 29.08 55.03 C 30.37 55.11 31.66 55.21 32.96 55.33 L 33.83 56.04 C 32.23 58.25 30.30 60.19 28.08 61.79 C 26.20 59.57 27.17 56.80 29.08 55.03 Z" />
</g>
<g id="#7731bfff">
<path fill="#7731bf" opacity="1.00" d=" M 33.83 56.04 C 35.72 58.12 34.82 60.82 33.08 62.65 C 31.82 62.68 30.57 62.72 29.31 62.69 C 28.98 62.49 28.30 62.08 27.96 61.88 L 28.08 61.79 C 30.30 60.19 32.23 58.25 33.83 56.04 Z" />
</g>
<g id="#4844d8ff">
<path fill="#4844d8" opacity="1.00" d=" M 83.02 57.95 C 84.34 57.93 85.66 57.92 86.98 57.91 C 87.02 61.54 86.99 65.18 86.99 68.81 C 85.67 68.59 84.34 68.37 83.01 68.16 C 83.01 64.75 83.00 61.35 83.02 57.95 Z" />
</g>
<g id="#282c90ff">
<path fill="#282c90" opacity="1.00" d=" M 29.31 62.69 C 30.57 62.72 31.82 62.68 33.08 62.65 C 33.02 64.12 32.99 65.60 32.98 67.07 C 31.65 67.13 30.31 67.19 28.98 67.25 C 29.04 65.73 29.15 64.21 29.31 62.69 Z" />
</g>
<g id="#3840d8ff">
<path fill="#3840d8" opacity="1.00" d=" M 51.22 65.16 C 55.68 63.48 60.79 64.01 65.44 64.58 C 71.28 66.18 71.31 72.96 71.00 77.87 C 69.67 77.90 68.35 77.94 67.02 77.98 C 66.79 74.86 68.17 70.18 64.56 68.55 C 60.91 67.98 57.04 67.96 53.39 68.57 C 49.83 70.34 51.22 75.02 50.98 78.21 C 49.65 78.19 48.33 78.17 47.00 78.15 C 46.97 73.60 46.32 67.55 51.22 65.16 Z" />
</g>
<g id="#303cd0ff">
<path fill="#303cd0" opacity="1.00" d=" M 28.98 67.25 C 30.31 67.19 31.65 67.13 32.98 67.07 C 33.00 72.42 33.00 77.77 32.99 83.11 C 31.67 83.07 30.36 83.02 29.04 82.98 C 28.97 77.74 29.04 72.49 28.98 67.25 Z" />
<path fill="#303cd0" opacity="1.00" d=" M 83.01 68.16 C 84.34 68.37 85.67 68.59 86.99 68.81 C 87.01 73.51 87.00 78.20 86.99 82.90 C 85.67 82.91 84.35 82.91 83.03 82.91 C 83.00 77.99 82.99 73.07 83.01 68.16 Z" />
</g>
<g id="#1834c8ff">
<path fill="#1834c8" opacity="1.00" d=" M 47.00 78.15 C 48.33 78.17 49.65 78.19 50.98 78.21 C 51.03 83.53 51.00 88.85 50.99 94.17 C 44.63 94.06 38.25 94.47 31.91 93.97 C 27.43 92.35 29.39 86.59 29.04 82.98 C 30.36 83.02 31.67 83.07 32.99 83.11 C 33.00 85.46 33.01 87.82 33.02 90.17 C 37.67 90.19 42.33 90.19 46.99 90.17 C 46.99 86.16 47.01 82.16 47.00 78.15 Z" />
</g>
<g id="#2038c8ff">
<path fill="#2038c8" opacity="1.00" d=" M 67.02 77.98 C 68.35 77.94 69.67 77.90 71.00 77.87 C 71.00 81.89 70.97 85.91 71.05 89.93 C 72.97 90.88 74.75 92.13 75.66 94.15 C 72.78 94.20 69.90 94.19 67.02 94.18 C 67.00 88.78 66.97 83.38 67.02 77.98 Z" />
</g>
<g id="#e07c70ff">
<path fill="#e07c70" opacity="1.00" d=" M 77.31 83.50 C 80.50 81.09 83.83 86.56 80.53 88.48 C 77.39 90.55 74.07 85.42 77.31 83.50 Z" />
</g>
<g id="#2034c8ff">
<path fill="#2034c8" opacity="1.00" d=" M 83.03 82.91 C 84.35 82.91 85.67 82.91 86.99 82.90 C 86.79 86.89 88.56 93.55 82.86 94.31 C 82.92 92.94 82.97 91.57 83.02 90.20 C 83.08 87.77 83.04 85.34 83.03 82.91 Z" />
</g>
<g id="#102ca0ff">
<path fill="#102ca0" opacity="1.00" d=" M 71.05 89.93 C 75.03 90.25 79.03 90.33 83.02 90.20 C 82.97 91.57 82.92 92.94 82.86 94.31 C 80.46 94.24 78.06 94.24 75.66 94.15 C 74.75 92.13 72.97 90.88 71.05 89.93 Z" />
</g>
</svg>
