<?xml version="1.0" encoding="UTF-8" ?>
<!DOCTYPE svg PUBLIC "-//W3C//DTD SVG 1.1//EN" "http://www.w3.org/Graphics/SVG/1.1/DTD/svg11.dtd">
<svg width="117px" height="140px" viewBox="0 0 117 140" version="1.1" xmlns="http://www.w3.org/2000/svg">
<g id="#181818ff">
<path fill="#181818" opacity="1.00" d=" M 0.00 0.00 L 117.00 0.00 L 117.00 140.00 L 0.00 140.00 L 0.00 0.00 M 37.95 19.88 C 35.70 18.42 32.69 17.41 30.34 19.29 C 25.66 21.91 27.51 30.28 33.05 30.20 C 37.08 30.76 39.58 26.87 40.06 23.36 C 45.63 20.34 51.03 17.01 56.59 13.97 C 56.64 19.97 56.40 25.99 56.75 31.99 C 51.68 37.49 46.07 42.48 41.05 48.01 C 39.24 50.67 43.07 51.53 44.99 51.26 C 44.99 51.92 45.00 53.25 45.00 53.92 C 38.60 57.47 32.39 61.34 25.95 64.82 C 25.95 54.87 26.06 44.92 25.98 34.98 C 26.19 33.59 25.45 31.54 27.09 30.79 C 27.17 29.19 27.20 27.59 27.26 26.00 C 25.52 27.05 23.76 28.09 22.00 29.11 C 22.05 43.29 21.87 57.47 22.21 71.65 C 27.70 74.50 32.94 77.81 38.38 80.74 C 40.30 81.62 39.51 84.55 41.40 85.50 C 43.12 86.77 45.21 85.62 47.05 85.37 C 50.10 87.62 53.39 89.49 56.68 91.35 C 58.29 92.31 60.26 91.70 61.71 90.74 C 72.85 84.10 84.30 77.97 95.34 71.19 C 95.15 57.14 95.40 43.09 95.27 29.04 C 83.10 22.03 70.90 15.06 58.82 7.89 C 51.77 11.71 44.91 15.88 37.95 19.88 Z" />
<path fill="#181818" opacity="1.00" d=" M 60.80 14.01 C 70.91 19.71 80.87 25.68 91.03 31.28 C 91.49 42.44 91.16 53.62 91.34 64.79 C 85.12 61.50 79.16 57.73 73.00 54.35 C 72.99 53.36 72.97 52.37 72.96 51.39 C 74.55 50.86 77.47 51.43 77.46 48.98 C 76.14 46.57 73.90 44.87 72.01 42.93 C 71.93 39.00 72.36 35.04 71.76 31.14 C 70.32 29.85 67.60 29.76 66.26 31.24 C 65.87 33.08 65.99 34.97 65.91 36.84 C 64.19 35.04 62.49 33.22 60.68 31.50 C 60.75 25.67 60.74 19.84 60.80 14.01 M 83.43 33.55 C 81.23 34.28 81.01 37.81 83.09 38.83 C 84.96 40.09 87.93 38.38 87.58 36.12 C 87.68 34.08 85.18 32.65 83.43 33.55 Z" />
<path fill="#181818" opacity="1.00" d=" M 26.20 69.27 C 32.48 65.70 38.72 62.06 45.00 58.50 C 45.06 61.99 44.78 65.51 45.20 68.99 C 45.73 70.68 47.68 70.18 49.02 70.37 C 50.84 70.25 52.96 70.71 54.54 69.64 C 55.34 66.91 54.70 63.97 55.28 61.19 C 57.18 59.67 60.01 60.17 62.21 60.66 C 64.27 63.21 61.78 67.64 64.11 70.07 C 67.06 70.56 70.16 70.58 72.98 69.45 C 72.82 65.93 72.90 62.40 72.96 58.88 C 78.99 62.37 85.10 65.73 91.03 69.39 C 80.22 75.45 69.68 82.06 58.74 87.88 C 54.00 85.66 48.89 83.35 45.68 79.02 C 38.39 77.68 32.62 72.66 26.20 69.27 Z" />
</g>
<g id="#524ae1ff">
<path fill="#524ae1" opacity="1.00" d=" M 37.95 19.88 C 44.91 15.88 51.77 11.71 58.82 7.89 C 70.90 15.06 83.10 22.03 95.27 29.04 C 95.40 43.09 95.15 57.14 95.34 71.19 C 84.30 77.97 72.85 84.10 61.71 90.74 C 60.26 91.70 58.29 92.31 56.68 91.35 C 53.39 89.49 50.10 87.62 47.05 85.37 C 45.21 85.62 43.12 86.77 41.40 85.50 C 39.51 84.55 40.30 81.62 38.38 80.74 C 32.94 77.81 27.70 74.50 22.21 71.65 C 21.87 57.47 22.05 43.29 22.00 29.11 C 23.76 28.09 25.52 27.05 27.26 26.00 C 27.20 27.59 27.17 29.19 27.09 30.79 C 25.45 31.54 26.19 33.59 25.98 34.98 C 26.06 44.92 25.95 54.87 25.95 64.82 C 32.39 61.34 38.60 57.47 45.00 53.92 C 45.00 55.44 45.01 56.97 45.00 58.50 C 38.72 62.06 32.48 65.70 26.20 69.27 C 32.62 72.66 38.39 77.68 45.68 79.02 C 48.89 83.35 54.00 85.66 58.74 87.88 C 69.68 82.06 80.22 75.45 91.03 69.39 C 85.10 65.73 78.99 62.37 72.96 58.88 C 72.99 57.37 73.00 55.86 73.00 54.35 C 79.16 57.73 85.12 61.50 91.34 64.79 C 91.16 53.62 91.49 42.44 91.03 31.28 C 80.87 25.68 70.91 19.71 60.80 14.01 C 60.74 19.84 60.75 25.67 60.68 31.50 C 60.25 31.25 59.40 30.73 58.97 30.48 C 58.41 30.85 57.30 31.61 56.75 31.99 C 56.40 25.99 56.64 19.97 56.59 13.97 C 51.03 17.01 45.63 20.34 40.06 23.36 C 39.58 26.87 37.08 30.76 33.05 30.20 C 27.51 30.28 25.66 21.91 30.34 19.29 C 32.69 17.41 35.70 18.42 37.95 19.88 Z" />
</g>
<g id="#f8ac56ff">
<path fill="#f8ac56" opacity="1.00" d=" M 66.26 31.24 C 67.60 29.76 70.32 29.85 71.76 31.14 C 72.36 35.04 71.93 39.00 72.01 42.93 C 73.90 44.87 76.14 46.57 77.46 48.98 C 77.47 51.43 74.55 50.86 72.96 51.39 C 72.97 52.37 72.99 53.36 73.00 54.35 C 73.00 55.86 72.99 57.37 72.96 58.88 C 72.90 62.40 72.82 65.93 72.98 69.45 C 70.16 70.58 67.06 70.56 64.11 70.07 C 61.78 67.64 64.27 63.21 62.21 60.66 C 60.01 60.17 57.18 59.67 55.28 61.19 C 54.70 63.97 55.34 66.91 54.54 69.64 C 52.96 70.71 50.84 70.25 49.02 70.37 C 47.68 70.18 45.73 70.68 45.20 68.99 C 44.78 65.51 45.06 61.99 45.00 58.50 C 45.01 56.97 45.00 55.44 45.00 53.92 C 45.00 53.25 44.99 51.92 44.99 51.26 C 43.07 51.53 39.24 50.67 41.05 48.01 C 46.07 42.48 51.68 37.49 56.75 31.99 C 57.30 31.61 58.41 30.85 58.97 30.48 C 59.40 30.73 60.25 31.25 60.68 31.50 C 62.49 33.22 64.19 35.04 65.91 36.84 C 65.99 34.97 65.87 33.08 66.26 31.24 Z" />
<path fill="#f8ac56" opacity="1.00" d=" M 83.43 33.55 C 85.18 32.65 87.68 34.08 87.58 36.12 C 87.93 38.38 84.96 40.09 83.09 38.83 C 81.01 37.81 81.23 34.28 83.43 33.55 Z" />
</g>
</svg>
