<?xml version="1.0" encoding="UTF-8" ?>
<!DOCTYPE svg PUBLIC "-//W3C//DTD SVG 1.1//EN" "http://www.w3.org/Graphics/SVG/1.1/DTD/svg11.dtd">
<svg width="117px" height="140px" viewBox="0 0 117 140" version="1.1" xmlns="http://www.w3.org/2000/svg">
<g id="#181818ff">
<path fill="#181818" opacity="1.00" d=" M 0.00 0.00 L 117.00 0.00 L 117.00 140.00 L 0.00 140.00 L 0.00 0.00 M 26.03 13.17 C 24.09 15.15 25.34 18.35 25.01 20.85 C 24.97 25.36 25.03 29.88 25.02 34.40 C 25.00 36.24 25.02 38.08 25.06 39.91 C 22.24 39.45 19.28 42.02 20.08 44.95 C 20.78 47.45 23.56 48.27 25.88 47.93 C 24.59 52.37 24.92 57.25 25.18 61.85 C 27.62 64.20 31.83 62.51 34.98 62.99 C 35.00 64.32 35.02 65.65 35.05 66.98 C 39.03 66.97 43.01 66.96 46.99 66.97 C 47.00 65.65 47.00 64.32 47.01 63.00 C 56.67 63.00 66.33 63.00 75.99 63.00 C 76.01 64.99 76.04 66.98 76.07 68.96 C 74.08 69.00 72.10 69.04 70.11 69.10 C 70.02 72.07 69.95 75.04 69.98 78.01 C 70.02 78.73 70.10 80.17 70.13 80.89 C 72.12 80.92 74.12 80.88 76.10 81.13 C 78.37 82.59 80.02 84.85 82.01 86.67 C 83.82 84.91 85.47 82.98 87.41 81.37 C 89.44 80.64 91.71 81.05 93.84 80.91 C 93.88 80.10 93.98 78.49 94.02 77.69 C 94.05 74.83 93.97 71.97 93.91 69.11 C 91.91 69.05 89.92 69.00 87.93 68.96 C 87.95 66.97 87.99 64.98 88.02 63.00 C 90.77 62.75 93.99 63.67 96.45 62.35 C 97.65 59.25 96.75 55.61 96.99 52.30 C 96.97 46.19 97.04 40.08 96.99 33.97 C 96.97 29.69 97.03 25.42 96.99 21.15 C 96.59 18.57 98.03 15.09 95.88 13.16 C 91.14 12.74 86.38 13.19 81.64 12.92 C 80.66 12.95 79.69 12.97 78.71 13.00 C 61.15 13.12 43.57 12.77 26.03 13.17 M 60.33 72.49 C 57.06 74.39 60.38 79.56 63.52 77.48 C 66.84 75.58 63.52 70.09 60.33 72.49 Z" />
<path fill="#181818" opacity="1.00" d=" M 28.98 17.01 C 43.97 16.98 58.96 17.02 73.95 16.97 C 73.26 21.07 76.47 25.69 80.92 24.89 C 84.74 24.31 86.29 20.34 86.12 16.89 C 88.42 16.97 90.72 17.01 93.02 17.03 C 93.01 18.38 93.01 19.74 93.01 21.10 C 92.98 25.74 93.03 30.38 93.01 35.02 C 92.97 40.77 93.03 46.51 93.00 52.26 C 93.00 54.51 93.00 56.75 92.99 58.99 C 71.67 59.00 50.34 59.00 29.02 58.99 C 29.00 54.20 28.92 49.41 28.92 44.62 C 28.93 41.18 29.02 37.74 28.99 34.30 C 28.98 29.90 29.01 25.50 28.99 21.09 C 28.99 19.73 28.98 18.37 28.98 17.01 M 35.20 44.27 C 31.39 45.40 29.62 50.66 32.37 53.68 C 34.87 57.20 40.76 56.39 42.42 52.47 C 44.80 48.10 39.81 42.51 35.20 44.27 Z" />
<path fill="#181818" opacity="1.00" d=" M 34.35 49.99 C 33.85 48.21 36.00 47.79 36.99 46.88 C 38.85 47.69 40.08 49.16 39.79 51.31 C 38.85 51.91 37.90 52.51 36.94 53.09 C 36.02 52.11 33.72 51.81 34.35 49.99 Z" />
<path fill="#181818" opacity="1.00" d=" M 80.00 66.97 C 81.33 66.96 82.67 66.96 84.00 66.95 C 84.00 67.45 84.00 68.43 84.00 68.93 C 84.00 70.28 84.00 71.63 84.01 72.98 C 86.01 73.00 88.01 73.00 90.00 73.02 C 90.00 74.27 90.00 75.53 90.00 76.78 C 88.49 77.00 86.98 77.17 85.48 77.45 C 84.28 78.58 83.16 79.79 82.01 80.99 C 80.66 79.65 79.31 78.31 77.97 76.97 C 76.64 76.98 75.31 77.01 73.99 77.07 C 74.00 75.72 74.00 74.36 74.01 73.01 C 76.00 73.00 77.99 73.00 79.99 72.99 C 79.99 71.63 80.00 70.28 80.00 68.93 C 80.00 68.44 80.00 67.46 80.00 66.97 Z" />
</g>
<g id="#9864f8ff">
<path fill="#9864f8" opacity="1.00" d=" M 26.03 13.17 C 43.57 12.77 61.15 13.12 78.71 13.00 C 77.14 14.34 75.56 15.68 73.95 16.97 C 58.96 17.02 43.97 16.98 28.98 17.01 C 28.98 18.37 28.99 19.73 28.99 21.09 C 27.67 21.01 26.34 20.93 25.01 20.85 C 25.34 18.35 24.09 15.15 26.03 13.17 Z" />
<path fill="#9864f8" opacity="1.00" d=" M 81.64 12.92 C 86.38 13.19 91.14 12.74 95.88 13.16 C 98.03 15.09 96.59 18.57 96.99 21.15 C 95.66 21.13 94.33 21.11 93.01 21.10 C 93.01 19.74 93.01 18.38 93.02 17.03 C 90.72 17.01 88.42 16.97 86.12 16.89 C 84.67 15.52 83.17 14.20 81.64 12.92 Z" />
</g>
<g id="#3840f8ff">
<path fill="#3840f8" opacity="1.00" d=" M 78.71 13.00 C 79.69 12.97 80.66 12.95 81.64 12.92 C 83.17 14.20 84.67 15.52 86.12 16.89 C 86.29 20.34 84.74 24.31 80.92 24.89 C 76.47 25.69 73.26 21.07 73.95 16.97 C 75.56 15.68 77.14 14.34 78.71 13.00 Z" />
</g>
<g id="#805cf0ff">
<path fill="#805cf0" opacity="1.00" d=" M 25.01 20.85 C 26.34 20.93 27.67 21.01 28.99 21.09 C 29.01 25.50 28.98 29.90 28.99 34.30 C 27.66 34.34 26.34 34.37 25.02 34.40 C 25.03 29.88 24.97 25.36 25.01 20.85 Z" />
<path fill="#805cf0" opacity="1.00" d=" M 93.01 21.10 C 94.33 21.11 95.66 21.13 96.99 21.15 C 97.03 25.42 96.97 29.69 96.99 33.97 C 95.66 34.32 94.33 34.67 93.01 35.02 C 93.03 30.38 92.98 25.74 93.01 21.10 Z" />
</g>
<g id="#7054e8ff">
<path fill="#7054e8" opacity="1.00" d=" M 25.02 34.40 C 26.34 34.37 27.66 34.34 28.99 34.30 C 29.02 37.74 28.93 41.18 28.92 44.62 L 28.55 43.59 C 27.55 42.21 26.38 40.98 25.06 39.91 C 25.02 38.08 25.00 36.24 25.02 34.40 Z" />
</g>
<g id="#6050e0ff">
<path fill="#6050e0" opacity="1.00" d=" M 93.01 35.02 C 94.33 34.67 95.66 34.32 96.99 33.97 C 97.04 40.08 96.97 46.19 96.99 52.30 C 95.66 52.29 94.33 52.28 93.00 52.26 C 93.03 46.51 92.97 40.77 93.01 35.02 Z" />
</g>
<g id="#60dc48ff">
<path fill="#60dc48" opacity="1.00" d=" M 20.08 44.95 C 19.28 42.02 22.24 39.45 25.06 39.91 C 26.38 40.98 27.55 42.21 28.55 43.59 C 27.78 45.11 26.92 46.58 25.88 47.93 C 23.56 48.27 20.78 47.45 20.08 44.95 Z" />
</g>
<g id="#4044d8ff">
<path fill="#4044d8" opacity="1.00" d=" M 28.55 43.59 L 28.92 44.62 C 28.92 49.41 29.00 54.20 29.02 58.99 C 50.34 59.00 71.67 59.00 92.99 58.99 C 93.00 56.75 93.00 54.51 93.00 52.26 C 94.33 52.28 95.66 52.29 96.99 52.30 C 96.75 55.61 97.65 59.25 96.45 62.35 C 93.99 63.67 90.77 62.75 88.02 63.00 C 87.99 64.98 87.95 66.97 87.93 68.96 C 86.62 68.94 85.31 68.93 84.00 68.93 C 84.00 68.43 84.00 67.45 84.00 66.95 C 82.67 66.96 81.33 66.96 80.00 66.97 C 80.00 67.46 80.00 68.44 80.00 68.93 C 78.69 68.93 77.38 68.94 76.07 68.96 C 76.04 66.98 76.01 64.99 75.99 63.00 C 66.33 63.00 56.67 63.00 47.01 63.00 C 47.00 64.32 47.00 65.65 46.99 66.97 C 43.01 66.96 39.03 66.97 35.05 66.98 C 35.02 65.65 35.00 64.32 34.98 62.99 C 31.83 62.51 27.62 64.20 25.18 61.85 C 24.92 57.25 24.59 52.37 25.88 47.93 C 26.92 46.58 27.78 45.11 28.55 43.59 Z" />
</g>
<g id="#584ce0ff">
<path fill="#584ce0" opacity="1.00" d=" M 35.20 44.27 C 39.81 42.51 44.80 48.10 42.42 52.47 C 40.76 56.39 34.87 57.20 32.37 53.68 C 29.62 50.66 31.39 45.40 35.20 44.27 M 34.35 49.99 C 33.72 51.81 36.02 52.11 36.94 53.09 C 37.90 52.51 38.85 51.91 39.79 51.31 C 40.08 49.16 38.85 47.69 36.99 46.88 C 36.00 47.79 33.85 48.21 34.35 49.99 Z" />
</g>
<g id="#303cd0ff">
<path fill="#303cd0" opacity="1.00" d=" M 70.11 69.10 C 72.10 69.04 74.08 69.00 76.07 68.96 C 77.38 68.94 78.69 68.93 80.00 68.93 C 80.00 70.28 79.99 71.63 79.99 72.99 C 77.99 73.00 76.00 73.00 74.01 73.01 C 74.00 74.36 74.00 75.72 73.99 77.07 C 72.64 77.32 71.31 77.68 69.98 78.01 C 69.95 75.04 70.02 72.07 70.11 69.10 Z" />
<path fill="#303cd0" opacity="1.00" d=" M 84.00 68.93 C 85.31 68.93 86.62 68.94 87.93 68.96 C 89.92 69.00 91.91 69.05 93.91 69.11 C 93.97 71.97 94.05 74.83 94.02 77.69 C 91.17 77.66 88.33 77.55 85.48 77.45 C 86.98 77.17 88.49 77.00 90.00 76.78 C 90.00 75.53 90.00 74.27 90.00 73.02 C 88.01 73.00 86.01 73.00 84.01 72.98 C 84.00 71.63 84.00 70.28 84.00 68.93 Z" />
</g>
<g id="#e07c70ff">
<path fill="#e07c70" opacity="1.00" d=" M 60.33 72.49 C 63.52 70.09 66.84 75.58 63.52 77.48 C 60.38 79.56 57.06 74.39 60.33 72.49 Z" />
</g>
<g id="#2038c8ff">
<path fill="#2038c8" opacity="1.00" d=" M 69.98 78.01 C 71.31 77.68 72.64 77.32 73.99 77.07 C 75.31 77.01 76.64 76.98 77.97 76.97 C 79.31 78.31 80.66 79.65 82.01 80.99 C 83.16 79.79 84.28 78.58 85.48 77.45 C 88.33 77.55 91.17 77.66 94.02 77.69 C 93.98 78.49 93.88 80.10 93.84 80.91 C 91.71 81.05 89.44 80.64 87.41 81.37 C 85.47 82.98 83.82 84.91 82.01 86.67 C 80.02 84.85 78.37 82.59 76.10 81.13 C 74.12 80.88 72.12 80.92 70.13 80.89 C 70.10 80.17 70.02 78.73 69.98 78.01 Z" />
</g>
</svg>
