<?xml version="1.0" encoding="UTF-8" ?>
<!DOCTYPE svg PUBLIC "-//W3C//DTD SVG 1.1//EN" "http://www.w3.org/Graphics/SVG/1.1/DTD/svg11.dtd">
<svg width="45px" height="45px" viewBox="0 0 45 45" version="1.1" xmlns="http://www.w3.org/2000/svg">
<g id="#181818ff">
<path fill="#181818" opacity="1.00" d=" M 0.00 0.00 L 45.00 0.00 L 45.00 45.00 L 0.00 45.00 L 0.00 0.00 M 19.33 8.39 C 12.45 10.04 7.31 17.00 8.00 24.08 C 8.40 32.07 16.11 38.75 24.09 37.90 C 32.44 37.53 39.18 29.16 37.81 20.92 C 36.90 12.37 27.63 6.05 19.33 8.39 Z" />
<path fill="#181818" opacity="1.00" d=" M 19.47 10.61 C 26.55 8.25 34.77 13.56 35.79 20.90 C 37.11 27.73 31.96 34.90 25.06 35.80 C 18.54 37.01 11.75 32.34 10.41 25.88 C 8.77 19.45 13.05 12.28 19.47 10.61 M 18.84 16.65 C 18.84 17.24 18.84 18.41 18.84 19.00 C 20.67 19.00 22.49 19.00 24.31 19.00 C 22.17 22.64 19.33 25.89 17.81 29.88 C 21.16 30.03 24.51 30.05 27.86 29.97 C 27.85 29.42 27.82 28.32 27.80 27.77 C 25.74 27.76 23.67 27.75 21.61 27.72 C 23.77 24.05 26.72 20.80 28.15 16.73 C 25.04 16.65 21.94 16.61 18.84 16.65 Z" />
</g>
<g id="#eca552ff">
<path fill="#eca552" opacity="1.00" d=" M 19.33 8.39 C 27.63 6.05 36.90 12.37 37.81 20.92 C 39.18 29.16 32.44 37.53 24.09 37.90 C 16.11 38.75 8.40 32.07 8.00 24.08 C 7.31 17.00 12.45 10.04 19.33 8.39 M 19.47 10.61 C 13.05 12.28 8.77 19.45 10.41 25.88 C 11.75 32.34 18.54 37.01 25.06 35.80 C 31.96 34.90 37.11 27.73 35.79 20.90 C 34.77 13.56 26.55 8.25 19.47 10.61 Z" />
<path fill="#eca552" opacity="1.00" d=" M 18.84 16.65 C 21.94 16.61 25.04 16.65 28.15 16.73 C 26.72 20.80 23.77 24.05 21.61 27.72 C 23.67 27.75 25.74 27.76 27.80 27.77 C 27.82 28.32 27.85 29.42 27.86 29.97 C 24.51 30.05 21.16 30.03 17.81 29.88 C 19.33 25.89 22.17 22.64 24.31 19.00 C 22.49 19.00 20.67 19.00 18.84 19.00 C 18.84 18.41 18.84 17.24 18.84 16.65 Z" />
</g>
</svg>
