<?xml version="1.0" encoding="UTF-8" ?>
<!DOCTYPE svg PUBLIC "-//W3C//DTD SVG 1.1//EN" "http://www.w3.org/Graphics/SVG/1.1/DTD/svg11.dtd">
<svg width="45px" height="45px" viewBox="0 0 45 45" version="1.1" xmlns="http://www.w3.org/2000/svg">
<g id="#181818ff">
<path fill="#181818" opacity="1.00" d=" M 0.00 0.00 L 45.00 0.00 L 45.00 45.00 L 0.00 45.00 L 0.00 0.00 M 20.13 8.19 C 12.48 9.52 6.77 17.43 8.09 25.11 C 9.05 33.04 17.14 39.18 25.05 37.85 C 32.97 36.92 39.10 28.90 37.87 21.00 C 36.99 12.70 28.30 6.39 20.13 8.19 Z" />
<path fill="#181818" opacity="1.00" d=" M 19.46 10.64 C 26.24 8.37 34.14 13.15 35.59 20.09 C 37.62 27.48 31.61 35.52 24.02 35.92 C 16.35 36.73 9.31 29.52 10.12 21.90 C 10.67 16.72 14.37 12.00 19.46 10.64 M 22.00 13.12 C 22.63 17.31 20.18 22.91 24.26 25.83 C 24.89 26.70 26.50 27.42 26.90 25.91 C 26.41 24.53 25.06 23.71 24.11 22.67 C 24.02 19.48 23.99 16.28 23.97 13.09 C 23.48 13.10 22.50 13.11 22.00 13.12 Z" />
</g>
<g id="#db984eff">
<path fill="#db984e" opacity="1.00" d=" M 20.13 8.19 C 28.30 6.39 36.99 12.70 37.87 21.00 C 39.10 28.90 32.97 36.92 25.05 37.85 C 17.14 39.18 9.05 33.04 8.09 25.11 C 6.77 17.43 12.48 9.52 20.13 8.19 M 19.46 10.64 C 14.37 12.00 10.67 16.72 10.12 21.90 C 9.31 29.52 16.35 36.73 24.02 35.92 C 31.61 35.52 37.62 27.48 35.59 20.09 C 34.14 13.15 26.24 8.37 19.46 10.64 Z" />
<path fill="#db984e" opacity="1.00" d=" M 22.00 13.12 C 22.50 13.11 23.48 13.10 23.97 13.09 C 23.99 16.28 24.02 19.48 24.11 22.67 C 25.06 23.71 26.41 24.53 26.90 25.91 C 26.50 27.42 24.89 26.70 24.26 25.83 C 20.18 22.91 22.63 17.31 22.00 13.12 Z" />
</g>
</svg>
