<?xml version="1.0" encoding="UTF-8" ?>
<!DOCTYPE svg PUBLIC "-//W3C//DTD SVG 1.1//EN" "http://www.w3.org/Graphics/SVG/1.1/DTD/svg11.dtd">
<svg width="117px" height="140px" viewBox="0 0 117 140" version="1.1" xmlns="http://www.w3.org/2000/svg">
<g id="#181818ff">
<path fill="#181818" opacity="1.00" d=" M 0.00 0.00 L 117.00 0.00 L 117.00 140.00 L 0.00 140.00 L 0.00 0.00 M 58.00 5.99 C 57.99 10.94 58.02 15.88 58.01 20.82 C 57.96 31.11 58.04 41.39 58.08 51.68 C 57.88 59.78 58.07 67.90 58.01 76.01 C 58.00 79.46 57.78 83.02 58.97 86.33 C 60.24 91.03 65.95 90.68 69.81 90.28 C 69.91 90.62 70.10 91.29 70.20 91.62 C 67.32 93.81 63.52 93.65 60.11 94.12 C 60.11 94.58 60.13 95.50 60.14 95.96 C 64.20 96.05 68.91 95.82 71.97 92.79 C 73.28 90.65 71.50 87.67 68.95 88.13 C 65.73 88.59 61.43 88.65 60.44 84.75 C 59.47 75.03 60.41 65.21 60.03 55.45 C 60.13 44.81 59.99 34.15 60.04 23.51 C 60.04 17.67 59.99 11.83 60.00 5.99 C 59.50 5.99 58.50 5.99 58.00 5.99 M 41.25 12.28 C 36.95 14.45 38.24 19.90 38.03 23.81 C 37.76 27.44 37.70 32.82 42.10 33.97 C 47.11 33.43 52.05 32.23 57.02 31.35 C 57.01 30.35 57.00 28.36 57.00 27.36 C 52.09 28.10 47.26 29.33 42.33 29.89 C 41.88 27.88 42.01 25.81 41.97 23.77 C 41.93 21.21 41.82 18.63 42.34 16.11 C 47.22 15.84 52.11 16.05 56.99 16.00 C 57.00 14.67 57.00 13.34 56.99 12.01 C 51.75 12.17 46.43 11.64 41.25 12.28 M 61.00 12.01 C 61.00 13.34 61.00 14.67 61.01 16.00 C 65.91 16.11 70.83 15.75 75.71 16.16 C 75.83 18.41 75.79 23.52 79.36 21.45 C 80.91 18.40 79.84 13.05 76.03 12.07 C 71.02 11.91 66.01 12.03 61.00 12.01 M 80.97 29.72 C 82.40 30.93 84.64 31.50 86.21 30.15 C 88.30 28.84 88.42 25.82 86.80 24.09 C 83.17 20.64 77.70 25.98 80.97 29.72 M 61.10 26.53 C 60.97 27.89 60.92 29.26 60.96 30.63 C 65.82 29.84 70.66 28.85 75.51 28.00 C 75.88 29.68 76.28 32.68 78.75 31.79 C 81.43 29.42 78.64 23.53 74.96 24.05 C 70.33 24.80 65.74 25.81 61.10 26.53 M 61.06 35.55 C 60.98 36.91 60.95 38.28 60.98 39.64 C 65.84 38.82 70.67 37.83 75.53 37.03 C 76.01 38.31 75.82 40.18 77.24 40.88 C 78.53 41.30 80.20 40.38 79.93 38.89 C 80.00 36.19 78.07 32.78 75.04 33.04 C 70.36 33.77 65.73 34.79 61.06 35.55 M 38.03 37.04 C 37.98 39.76 39.88 43.25 42.99 42.93 C 47.64 42.23 52.23 41.16 56.88 40.50 C 57.00 39.12 57.04 37.74 57.01 36.36 C 52.14 37.14 47.33 38.19 42.46 38.96 C 41.98 37.69 42.23 35.74 40.76 35.09 C 39.48 34.69 37.83 35.54 38.03 37.04 M 22.28 52.01 C 23.43 54.64 26.72 56.88 29.56 55.51 C 30.70 57.03 29.78 58.93 30.05 60.64 C 30.46 64.22 28.47 69.41 32.32 71.61 C 36.37 72.52 40.63 71.66 44.76 72.09 C 45.74 73.18 46.85 74.15 47.88 75.20 C 50.83 78.35 53.96 81.31 56.98 84.39 C 57.03 82.56 56.97 80.72 57.02 78.89 C 55.65 77.20 54.04 75.71 52.47 74.21 C 50.31 72.19 48.45 69.80 46.08 68.03 C 42.06 67.94 38.03 68.04 34.01 67.99 C 34.02 64.32 33.96 60.66 34.00 57.00 C 34.05 55.26 34.02 53.53 33.92 51.81 C 33.91 50.52 33.92 49.24 33.94 47.96 C 41.63 48.04 49.31 47.99 57.00 47.99 C 57.01 46.66 57.01 45.33 57.00 44.00 C 49.02 44.07 41.02 43.84 33.05 44.12 C 32.67 44.34 31.92 44.79 31.54 45.01 C 30.97 44.74 30.39 44.47 29.82 44.21 C 25.32 42.73 20.64 47.55 22.28 52.01 M 60.99 44.00 C 60.98 45.33 60.98 46.66 60.99 47.99 C 68.66 48.03 76.32 47.98 83.99 48.01 C 83.99 49.96 84.03 51.91 84.02 53.86 C 83.91 58.57 84.11 63.27 83.99 67.97 C 80.00 68.09 75.99 67.91 72.00 68.03 C 68.49 70.75 65.63 74.34 62.35 77.38 C 60.07 79.00 61.40 82.05 61.06 84.37 C 65.04 80.19 69.19 76.18 73.27 72.09 C 77.15 71.77 81.06 72.26 84.94 71.85 C 87.25 71.37 88.36 68.80 87.97 66.63 C 87.96 62.44 88.06 58.26 87.97 54.07 C 87.73 50.73 89.31 45.31 84.93 44.12 C 76.96 43.83 68.97 44.08 60.99 44.00 M 75.34 76.47 C 71.96 78.40 75.44 83.55 78.60 81.36 C 81.67 79.41 78.39 74.12 75.34 76.47 Z" />
</g>
<g id="#f8dd7cff">
<path fill="#f8dd7c" opacity="1.00" d=" M 58.00 5.99 C 58.50 5.99 59.50 5.99 60.00 5.99 C 59.99 11.83 60.04 17.67 60.04 23.51 C 59.36 22.61 58.69 21.72 58.01 20.82 C 58.02 15.88 57.99 10.94 58.00 5.99 Z" />
</g>
<g id="#9864f8ff">
<path fill="#9864f8" opacity="1.00" d=" M 41.25 12.28 C 46.43 11.64 51.75 12.17 56.99 12.01 C 57.00 13.34 57.00 14.67 56.99 16.00 C 52.11 16.05 47.22 15.84 42.34 16.11 C 41.82 18.63 41.93 21.21 41.97 23.77 C 40.66 23.78 39.35 23.80 38.03 23.81 C 38.24 19.90 36.95 14.45 41.25 12.28 Z" />
<path fill="#9864f8" opacity="1.00" d=" M 61.00 12.01 C 66.01 12.03 71.02 11.91 76.03 12.07 C 79.84 13.05 80.91 18.40 79.36 21.45 C 75.79 23.52 75.83 18.41 75.71 16.16 C 70.83 15.75 65.91 16.11 61.01 16.00 C 61.00 14.67 61.00 13.34 61.00 12.01 Z" />
</g>
<g id="#f6bc64ff">
<path fill="#f6bc64" opacity="1.00" d=" M 58.01 20.82 C 58.69 21.72 59.36 22.61 60.04 23.51 C 59.99 34.15 60.13 44.81 60.03 55.45 C 59.40 54.18 58.70 52.95 58.08 51.68 C 58.04 41.39 57.96 31.11 58.01 20.82 Z" />
</g>
<g id="#e0c0b8ff">
<path fill="#e0c0b8" opacity="1.00" d=" M 80.97 29.72 C 77.70 25.98 83.17 20.64 86.80 24.09 C 85.01 26.12 83.03 27.98 80.97 29.72 Z" />
</g>
<g id="#7858f0ff">
<path fill="#7858f0" opacity="1.00" d=" M 38.03 23.81 C 39.35 23.80 40.66 23.78 41.97 23.77 C 42.01 25.81 41.88 27.88 42.33 29.89 C 47.26 29.33 52.09 28.10 57.00 27.36 C 57.00 28.36 57.01 30.35 57.02 31.35 C 52.05 32.23 47.11 33.43 42.10 33.97 C 37.70 32.82 37.76 27.44 38.03 23.81 Z" />
</g>
<g id="#805cf0ff">
<path fill="#805cf0" opacity="1.00" d=" M 61.10 26.53 C 65.74 25.81 70.33 24.80 74.96 24.05 C 78.64 23.53 81.43 29.42 78.75 31.79 C 76.28 32.68 75.88 29.68 75.51 28.00 C 70.66 28.85 65.82 29.84 60.96 30.63 C 60.92 29.26 60.97 27.89 61.10 26.53 Z" />
</g>
<g id="#b884b0ff">
<path fill="#b884b0" opacity="1.00" d=" M 86.80 24.09 C 88.42 25.82 88.30 28.84 86.21 30.15 C 84.64 31.50 82.40 30.93 80.97 29.72 C 83.03 27.98 85.01 26.12 86.80 24.09 Z" />
</g>
<g id="#7054e8ff">
<path fill="#7054e8" opacity="1.00" d=" M 61.06 35.55 C 65.73 34.79 70.36 33.77 75.04 33.04 C 78.07 32.78 80.00 36.19 79.93 38.89 C 80.20 40.38 78.53 41.30 77.24 40.88 C 75.82 40.18 76.01 38.31 75.53 37.03 C 70.67 37.83 65.84 38.82 60.98 39.64 C 60.95 38.28 60.98 36.91 61.06 35.55 Z" />
</g>
<g id="#6850e8ff">
<path fill="#6850e8" opacity="1.00" d=" M 38.03 37.04 C 37.83 35.54 39.48 34.69 40.76 35.09 C 42.23 35.74 41.98 37.69 42.46 38.96 C 47.33 38.19 52.14 37.14 57.01 36.36 C 57.04 37.74 57.00 39.12 56.88 40.50 C 52.23 41.16 47.64 42.23 42.99 42.93 C 39.88 43.25 37.98 39.76 38.03 37.04 Z" />
</g>
<g id="#d058d0ff">
<path fill="#d058d0" opacity="1.00" d=" M 22.28 52.01 C 20.64 47.55 25.32 42.73 29.82 44.21 C 27.88 47.28 25.73 50.50 22.28 52.01 Z" />
</g>
<g id="#8838c8ff">
<path fill="#8838c8" opacity="1.00" d=" M 29.82 44.21 C 30.39 44.47 30.97 44.74 31.54 45.01 C 32.37 45.97 33.15 46.97 33.94 47.96 C 33.92 49.24 33.91 50.52 33.92 51.81 C 32.49 53.06 31.11 54.39 29.56 55.51 C 26.72 56.88 23.43 54.64 22.28 52.01 C 25.73 50.50 27.88 47.28 29.82 44.21 Z" />
</g>
<g id="#584ce0ff">
<path fill="#584ce0" opacity="1.00" d=" M 31.54 45.01 C 31.92 44.79 32.67 44.34 33.05 44.12 C 41.02 43.84 49.02 44.07 57.00 44.00 C 57.01 45.33 57.01 46.66 57.00 47.99 C 49.31 47.99 41.63 48.04 33.94 47.96 C 33.15 46.97 32.37 45.97 31.54 45.01 Z" />
<path fill="#584ce0" opacity="1.00" d=" M 60.99 44.00 C 68.97 44.08 76.96 43.83 84.93 44.12 C 89.31 45.31 87.73 50.73 87.97 54.07 C 86.66 54.00 85.34 53.93 84.02 53.86 C 84.03 51.91 83.99 49.96 83.99 48.01 C 76.32 47.98 68.66 48.03 60.99 47.99 C 60.98 46.66 60.98 45.33 60.99 44.00 Z" />
</g>
<g id="#35309aff">
<path fill="#35309a" opacity="1.00" d=" M 29.56 55.51 C 31.11 54.39 32.49 53.06 33.92 51.81 C 34.02 53.53 34.05 55.26 34.00 57.00 C 32.71 58.23 31.41 59.47 30.05 60.64 C 29.78 58.93 30.70 57.03 29.56 55.51 Z" />
</g>
<g id="#f29445ff">
<path fill="#f29445" opacity="1.00" d=" M 58.08 51.68 C 58.70 52.95 59.40 54.18 60.03 55.45 C 60.41 65.21 59.47 75.03 60.44 84.75 C 60.07 85.15 59.34 85.93 58.97 86.33 C 57.78 83.02 58.00 79.46 58.01 76.01 C 58.07 67.90 57.88 59.78 58.08 51.68 Z" />
</g>
<g id="#4044d8ff">
<path fill="#4044d8" opacity="1.00" d=" M 84.02 53.86 C 85.34 53.93 86.66 54.00 87.97 54.07 C 88.06 58.26 87.96 62.44 87.97 66.63 C 86.66 67.11 85.33 67.56 83.99 67.97 C 84.11 63.27 83.91 58.57 84.02 53.86 Z" />
</g>
<g id="#303cd0ff">
<path fill="#303cd0" opacity="1.00" d=" M 30.05 60.64 C 31.41 59.47 32.71 58.23 34.00 57.00 C 33.96 60.66 34.02 64.32 34.01 67.99 C 38.03 68.04 42.06 67.94 46.08 68.03 C 48.45 69.80 50.31 72.19 52.47 74.21 C 50.94 74.54 49.40 74.86 47.88 75.20 C 46.85 74.15 45.74 73.18 44.76 72.09 C 40.63 71.66 36.37 72.52 32.32 71.61 C 28.47 69.41 30.46 64.22 30.05 60.64 Z" />
<path fill="#303cd0" opacity="1.00" d=" M 83.99 67.97 C 85.33 67.56 86.66 67.11 87.97 66.63 C 88.36 68.80 87.25 71.37 84.94 71.85 C 81.06 72.26 77.15 71.77 73.27 72.09 C 69.19 76.18 65.04 80.19 61.06 84.37 C 61.40 82.05 60.07 79.00 62.35 77.38 C 65.63 74.34 68.49 70.75 72.00 68.03 C 75.99 67.91 80.00 68.09 83.99 67.97 Z" />
</g>
<g id="#2038c8ff">
<path fill="#2038c8" opacity="1.00" d=" M 52.47 74.21 C 54.04 75.71 55.65 77.20 57.02 78.89 C 56.97 80.72 57.03 82.56 56.98 84.39 C 53.96 81.31 50.83 78.35 47.88 75.20 C 49.40 74.86 50.94 74.54 52.47 74.21 Z" />
</g>
<g id="#48c0d0ff">
<path fill="#48c0d0" opacity="1.00" d=" M 75.34 76.47 C 78.39 74.12 81.67 79.41 78.60 81.36 C 75.44 83.55 71.96 78.40 75.34 76.47 Z" />
</g>
<g id="#d96d2dff">
<path fill="#d96d2d" opacity="1.00" d=" M 60.44 84.75 C 61.43 88.65 65.73 88.59 68.95 88.13 C 71.50 87.67 73.28 90.65 71.97 92.79 C 68.91 95.82 64.20 96.05 60.14 95.96 C 60.13 95.50 60.11 94.58 60.11 94.12 C 63.52 93.65 67.32 93.81 70.20 91.62 C 70.10 91.29 69.91 90.62 69.81 90.28 C 65.95 90.68 60.24 91.03 58.97 86.33 C 59.34 85.93 60.07 85.15 60.44 84.75 Z" />
</g>
</svg>
