<?xml version="1.0" encoding="UTF-8" ?>
<!DOCTYPE svg PUBLIC "-//W3C//DTD SVG 1.1//EN" "http://www.w3.org/Graphics/SVG/1.1/DTD/svg11.dtd">
<svg width="117px" height="140px" viewBox="0 0 117 140" version="1.1" xmlns="http://www.w3.org/2000/svg">
<g id="#181818ff">
<path fill="#181818" opacity="1.00" d=" M 0.00 0.00 L 117.00 0.00 L 117.00 140.00 L 0.00 140.00 L 0.00 0.00 M 51.36 14.83 C 47.72 14.92 44.42 18.30 45.02 22.03 L 43.79 21.24 L 43.73 22.62 C 40.21 25.98 36.50 29.22 33.49 33.05 C 33.62 33.53 33.89 34.50 34.02 34.99 C 38.70 36.02 43.62 35.30 48.39 35.32 C 48.54 35.50 48.83 35.85 48.98 36.02 C 49.01 42.14 49.00 48.26 49.03 54.39 C 48.98 57.63 49.00 60.87 49.00 64.12 C 49.07 68.11 48.79 72.11 49.14 76.10 C 49.35 77.96 51.11 79.51 53.01 79.38 C 56.98 79.53 60.96 79.54 64.92 79.38 C 67.27 79.57 69.10 77.34 68.93 75.10 C 69.07 67.02 68.98 58.94 68.99 50.86 C 69.01 47.76 69.02 44.65 68.95 41.55 C 68.96 39.50 69.03 37.45 69.07 35.39 C 73.95 35.15 79.13 36.18 83.81 34.87 C 83.96 34.38 84.25 33.41 84.39 32.92 C 80.49 28.18 75.78 24.16 71.55 19.71 C 67.57 15.92 63.95 11.74 59.79 8.15 L 58.95 7.95 C 55.84 9.39 53.90 12.59 51.36 14.83 M 22.12 50.18 C 21.85 52.80 22.01 55.43 22.00 58.06 C 22.00 61.33 22.03 64.61 22.02 67.88 C 21.99 70.94 21.99 74.00 22.00 77.07 C 22.02 79.38 22.01 81.70 21.91 84.01 C 22.98 87.34 26.07 89.38 29.56 89.08 C 31.83 89.00 34.11 88.98 36.38 88.97 C 54.30 88.99 72.22 89.08 90.13 88.94 C 93.34 89.02 95.61 86.12 96.14 83.20 C 95.98 80.50 95.98 77.80 95.98 75.11 C 95.98 72.69 95.98 70.27 95.97 67.85 C 95.98 64.59 96.00 61.33 96.00 58.08 C 95.99 55.41 96.15 52.74 95.86 50.09 C 95.09 48.64 92.92 48.58 92.16 50.07 C 91.84 52.72 92.01 55.39 92.00 58.05 C 92.00 61.30 92.03 64.55 92.03 67.80 C 92.01 70.27 92.02 72.75 92.01 75.22 C 91.98 78.25 91.99 81.27 92.04 84.30 C 90.40 84.75 88.70 85.03 86.99 85.02 C 70.05 84.99 53.10 84.98 36.16 85.02 L 35.41 85.25 C 36.28 83.18 35.84 79.91 32.99 79.96 C 30.19 79.91 29.42 83.20 30.58 85.30 C 29.04 84.97 27.50 84.58 25.94 84.37 C 25.99 81.94 26.01 79.51 26.01 77.08 C 26.00 74.13 26.01 71.17 25.98 68.22 C 25.96 64.85 26.00 61.47 26.00 58.10 C 25.99 55.45 26.15 52.79 25.87 50.15 C 25.14 48.56 22.83 48.56 22.12 50.18 M 81.27 67.37 C 78.79 68.45 78.15 72.11 80.29 73.85 C 82.53 76.12 87.01 74.30 86.85 71.07 C 87.18 68.23 83.74 66.00 81.27 67.37 Z" />
</g>
<g id="#f8c868ff">
<path fill="#f8c868" opacity="1.00" d=" M 51.36 14.83 C 53.90 12.59 55.84 9.39 58.95 7.95 L 59.79 8.15 C 63.95 11.74 67.57 15.92 71.55 19.71 C 68.22 21.96 65.02 24.40 61.97 27.03 C 60.60 24.88 59.04 22.86 57.21 21.07 C 56.72 19.46 56.05 17.91 55.21 16.44 C 53.96 15.84 52.66 15.32 51.36 14.83 Z" />
</g>
<g id="#48f4b8ff">
<path fill="#48f4b8" opacity="1.00" d=" M 45.02 22.03 C 44.42 18.30 47.72 14.92 51.36 14.83 C 52.66 15.32 53.96 15.84 55.21 16.44 C 52.65 19.66 49.88 22.73 46.58 25.21 L 45.53 24.13 C 45.36 23.43 45.19 22.73 45.02 22.03 Z" />
</g>
<g id="#20ecd8ff">
<path fill="#20ecd8" opacity="1.00" d=" M 46.58 25.21 C 49.88 22.73 52.65 19.66 55.21 16.44 C 56.05 17.91 56.72 19.46 57.21 21.07 C 57.13 21.70 56.96 22.97 56.87 23.60 C 55.42 24.93 54.01 26.62 51.96 26.96 C 49.97 27.38 48.19 26.18 46.58 25.21 Z" />
</g>
<g id="#f8b460ff">
<path fill="#f8b460" opacity="1.00" d=" M 71.55 19.71 C 75.78 24.16 80.49 28.18 84.39 32.92 C 84.25 33.41 83.96 34.38 83.81 34.87 C 79.13 36.18 73.95 35.15 69.07 35.39 C 69.03 37.45 68.96 39.50 68.95 41.55 C 61.44 44.44 56.20 50.93 49.03 54.39 C 49.00 48.26 49.01 42.14 48.98 36.02 C 48.83 35.85 48.54 35.50 48.39 35.32 C 44.95 32.00 42.89 27.47 43.73 22.62 L 43.79 21.24 L 45.02 22.03 C 45.19 22.73 45.36 23.43 45.53 24.13 C 45.50 25.21 45.45 26.30 45.38 27.39 C 47.30 30.04 50.75 31.82 53.89 30.12 C 56.37 28.89 56.62 26.03 56.87 23.60 C 56.96 22.97 57.13 21.70 57.21 21.07 C 59.04 22.86 60.60 24.88 61.97 27.03 C 65.02 24.40 68.22 21.96 71.55 19.71 Z" />
</g>
<g id="#f8c870ff">
<path fill="#f8c870" opacity="1.00" d=" M 33.49 33.05 C 36.50 29.22 40.21 25.98 43.73 22.62 C 42.89 27.47 44.95 32.00 48.39 35.32 C 43.62 35.30 38.70 36.02 34.02 34.99 C 33.89 34.50 33.62 33.53 33.49 33.05 Z" />
</g>
<g id="#987440ff">
<path fill="#987440" opacity="1.00" d=" M 51.96 26.96 C 54.01 26.62 55.42 24.93 56.87 23.60 C 56.62 26.03 56.37 28.89 53.89 30.12 C 50.75 31.82 47.30 30.04 45.38 27.39 C 45.45 26.30 45.50 25.21 45.53 24.13 L 46.58 25.21 C 48.19 26.18 49.97 27.38 51.96 26.96 Z" />
</g>
<g id="#f8a450ff">
<path fill="#f8a450" opacity="1.00" d=" M 49.03 54.39 C 56.20 50.93 61.44 44.44 68.95 41.55 C 69.02 44.65 69.01 47.76 68.99 50.86 C 61.94 54.73 56.61 61.16 49.00 64.12 C 49.00 60.87 48.98 57.63 49.03 54.39 Z" />
</g>
<g id="#8860f0ff">
<path fill="#8860f0" opacity="1.00" d=" M 22.12 50.18 C 22.83 48.56 25.14 48.56 25.87 50.15 C 26.15 52.79 25.99 55.45 26.00 58.10 C 24.67 58.08 23.33 58.07 22.00 58.06 C 22.01 55.43 21.85 52.80 22.12 50.18 Z" />
<path fill="#8860f0" opacity="1.00" d=" M 92.16 50.07 C 92.92 48.58 95.09 48.64 95.86 50.09 C 96.15 52.74 95.99 55.41 96.00 58.08 C 94.67 58.07 93.33 58.06 92.00 58.05 C 92.01 55.39 91.84 52.72 92.16 50.07 Z" />
</g>
<g id="#f89440ff">
<path fill="#f89440" opacity="1.00" d=" M 49.00 64.12 C 56.61 61.16 61.94 54.73 68.99 50.86 C 68.98 58.94 69.07 67.02 68.93 75.10 C 69.10 77.34 67.27 79.57 64.92 79.38 C 60.96 79.54 56.98 79.53 53.01 79.38 C 51.11 79.51 49.35 77.96 49.14 76.10 C 48.79 72.11 49.07 68.11 49.00 64.12 Z" />
</g>
<g id="#7054e8ff">
<path fill="#7054e8" opacity="1.00" d=" M 22.00 58.06 C 23.33 58.07 24.67 58.08 26.00 58.10 C 26.00 61.47 25.96 64.85 25.98 68.22 C 24.66 68.11 23.34 67.99 22.02 67.88 C 22.03 64.61 22.00 61.33 22.00 58.06 Z" />
<path fill="#7054e8" opacity="1.00" d=" M 92.00 58.05 C 93.33 58.06 94.67 58.07 96.00 58.08 C 96.00 61.33 95.98 64.59 95.97 67.85 C 94.66 67.83 93.34 67.82 92.03 67.80 C 92.03 64.55 92.00 61.30 92.00 58.05 Z" />
</g>
<g id="#e068d8ff">
<path fill="#e068d8" opacity="1.00" d=" M 81.27 67.37 C 83.74 66.00 87.18 68.23 86.85 71.07 C 87.01 74.30 82.53 76.12 80.29 73.85 C 78.15 72.11 78.79 68.45 81.27 67.37 Z" />
</g>
<g id="#4848d8ff">
<path fill="#4848d8" opacity="1.00" d=" M 22.02 67.88 C 23.34 67.99 24.66 68.11 25.98 68.22 C 26.01 71.17 26.00 74.13 26.01 77.08 C 24.67 77.07 23.34 77.07 22.00 77.07 C 21.99 74.00 21.99 70.94 22.02 67.88 Z" />
</g>
<g id="#5048e0ff">
<path fill="#5048e0" opacity="1.00" d=" M 92.03 67.80 C 93.34 67.82 94.66 67.83 95.97 67.85 C 95.98 70.27 95.98 72.69 95.98 75.11 C 94.66 75.15 93.33 75.18 92.01 75.22 C 92.02 72.75 92.01 70.27 92.03 67.80 Z" />
</g>
<g id="#3040d0ff">
<path fill="#3040d0" opacity="1.00" d=" M 92.01 75.22 C 93.33 75.18 94.66 75.15 95.98 75.11 C 95.98 77.80 95.98 80.50 96.14 83.20 C 94.77 83.55 93.41 83.93 92.04 84.30 C 91.99 81.27 91.98 78.25 92.01 75.22 Z" />
</g>
<g id="#303cd0ff">
<path fill="#303cd0" opacity="1.00" d=" M 22.00 77.07 C 23.34 77.07 24.67 77.07 26.01 77.08 C 26.01 79.51 25.99 81.94 25.94 84.37 C 24.60 84.23 23.25 84.11 21.91 84.01 C 22.01 81.70 22.02 79.38 22.00 77.07 Z" />
</g>
<g id="#f0a088ff">
<path fill="#f0a088" opacity="1.00" d=" M 30.58 85.30 C 29.42 83.20 30.19 79.91 32.99 79.96 C 35.84 79.91 36.28 83.18 35.41 85.25 C 34.81 85.44 33.61 85.80 33.01 85.98 C 32.20 85.75 31.39 85.53 30.58 85.30 Z" />
</g>
<g id="#1834c8ff">
<path fill="#1834c8" opacity="1.00" d=" M 92.04 84.30 C 93.41 83.93 94.77 83.55 96.14 83.20 C 95.61 86.12 93.34 89.02 90.13 88.94 C 72.22 89.08 54.30 88.99 36.38 88.97 C 36.31 87.65 36.23 86.34 36.16 85.02 C 53.10 84.98 70.05 84.99 86.99 85.02 C 88.70 85.03 90.40 84.75 92.04 84.30 Z" />
<path fill="#1834c8" opacity="1.00" d=" M 21.91 84.01 C 23.25 84.11 24.60 84.23 25.94 84.37 C 27.50 84.58 29.04 84.97 30.58 85.30 C 30.25 86.56 29.90 87.82 29.56 89.08 C 26.07 89.38 22.98 87.34 21.91 84.01 Z" />
</g>
<g id="#102488ff">
<path fill="#102488" opacity="1.00" d=" M 30.58 85.30 C 31.39 85.53 32.20 85.75 33.01 85.98 C 33.61 85.80 34.81 85.44 35.41 85.25 L 36.16 85.02 C 36.23 86.34 36.31 87.65 36.38 88.97 C 34.11 88.98 31.83 89.00 29.56 89.08 C 29.90 87.82 30.25 86.56 30.58 85.30 Z" />
</g>
</svg>
