<?xml version="1.0" encoding="UTF-8" ?>
<!DOCTYPE svg PUBLIC "-//W3C//DTD SVG 1.1//EN" "http://www.w3.org/Graphics/SVG/1.1/DTD/svg11.dtd">
<svg width="117px" height="140px" viewBox="0 0 117 140" version="1.1" xmlns="http://www.w3.org/2000/svg">
<g id="#181818ff">
<path fill="#181818" opacity="1.00" d=" M 0.00 0.00 L 117.00 0.00 L 117.00 140.00 L 0.00 140.00 L 0.00 0.00 M 26.07 14.97 C 25.87 18.64 26.13 22.31 26.04 25.98 C 26.00 28.84 26.00 31.70 25.99 34.56 C 25.99 36.30 26.01 38.05 26.06 39.80 C 23.63 39.69 20.89 41.32 20.98 44.00 C 20.95 46.83 24.05 48.41 26.58 47.94 C 25.92 52.67 25.97 57.45 26.00 62.21 C 29.19 63.46 32.66 62.92 36.00 63.00 C 36.00 64.34 36.00 65.67 36.00 67.01 C 39.97 67.02 43.95 66.94 47.92 66.90 C 47.90 65.60 47.89 64.30 47.87 63.00 C 57.58 62.99 67.29 62.99 77.00 63.00 C 77.00 64.99 77.00 66.98 77.00 68.97 C 75.02 68.99 73.05 69.01 71.07 69.06 C 70.93 73.01 70.93 76.96 71.11 80.90 C 73.12 80.96 75.14 80.90 77.15 81.12 C 79.37 82.63 81.06 84.78 82.99 86.61 C 84.89 84.69 86.81 82.78 88.76 80.91 C 90.77 80.90 92.79 80.88 94.80 80.84 C 94.96 76.94 95.00 73.02 94.84 69.11 C 92.89 69.06 90.95 69.02 89.00 68.98 C 89.00 66.99 89.00 65.00 89.00 63.01 C 92.00 63.02 95.08 63.26 97.97 62.29 C 97.99 57.67 98.02 53.05 98.00 48.44 C 98.01 45.54 98.01 42.65 97.96 39.75 C 97.88 34.20 98.08 28.65 97.98 23.10 C 97.49 19.90 99.16 15.76 96.94 13.18 C 92.25 12.73 87.53 13.13 82.83 12.96 C 81.66 12.96 80.49 12.95 79.32 12.94 C 62.53 13.09 45.74 12.94 28.95 13.01 C 27.68 12.84 25.88 13.36 26.07 14.97 M 61.40 72.51 C 58.69 74.04 60.62 78.80 63.71 77.65 C 67.78 76.79 65.07 70.03 61.40 72.51 Z" />
<path fill="#181818" opacity="1.00" d=" M 77.06 23.95 C 78.36 24.45 79.66 24.93 80.97 25.40 C 82.30 24.94 83.63 24.47 84.96 23.99 C 84.50 24.63 83.59 25.89 83.13 26.52 C 81.70 26.52 80.28 26.51 78.86 26.52 C 78.41 25.88 77.51 24.59 77.06 23.95 Z" />
<path fill="#181818" opacity="1.00" d=" M 35.32 49.96 C 34.89 48.22 37.05 47.76 38.01 46.80 C 40.13 47.80 41.20 49.52 40.50 51.87 C 39.85 52.16 38.54 52.74 37.89 53.03 C 36.83 52.23 34.87 51.70 35.32 49.96 Z" />
</g>
<g id="#9665f7ff">
<path fill="#9665f7" opacity="1.00" d=" M 26.07 14.97 C 25.88 13.36 27.68 12.84 28.95 13.01 C 45.74 12.94 62.53 13.09 79.32 12.94 C 77.73 14.49 76.24 16.16 75.07 18.05 L 75.02 17.02 C 60.04 16.99 45.05 17.07 30.06 17.05 C 30.06 19.74 30.05 22.42 30.04 25.11 C 28.71 25.40 27.37 25.69 26.04 25.98 C 26.13 22.31 25.87 18.64 26.07 14.97 Z" />
<path fill="#9665f7" opacity="1.00" d=" M 82.83 12.96 C 87.53 13.13 92.25 12.73 96.94 13.18 C 99.16 15.76 97.49 19.90 97.98 23.10 C 96.65 23.11 95.33 23.12 94.01 23.13 C 94.01 21.09 94.00 19.05 94.00 17.01 C 91.73 16.99 89.47 16.97 87.21 16.95 C 85.73 15.64 84.28 14.30 82.83 12.96 Z" />
</g>
<g id="#3641f8ff">
<path fill="#3641f8" opacity="1.00" d=" M 79.32 12.94 C 80.49 12.95 81.66 12.96 82.83 12.96 C 84.28 14.30 85.73 15.64 87.21 16.95 C 87.15 19.48 86.74 22.06 84.96 23.99 C 83.63 24.47 82.30 24.94 80.97 25.40 C 79.66 24.93 78.36 24.45 77.06 23.95 C 75.72 22.27 74.90 20.23 75.07 18.05 C 76.24 16.16 77.73 14.49 79.32 12.94 Z" />
</g>
<g id="#f8ae57ff">
<path fill="#f8ae57" opacity="1.00" d=" M 30.06 17.05 C 45.05 17.07 60.04 16.99 75.02 17.02 L 75.07 18.05 C 74.90 20.23 75.72 22.27 77.06 23.95 C 77.51 24.59 78.41 25.88 78.86 26.52 C 80.28 26.51 81.70 26.52 83.13 26.52 C 83.59 25.89 84.50 24.63 84.96 23.99 C 86.74 22.06 87.15 19.48 87.21 16.95 C 89.47 16.97 91.73 16.99 94.00 17.01 C 94.00 19.05 94.01 21.09 94.01 23.13 C 94.03 28.67 93.98 34.20 94.00 39.73 C 94.01 42.59 94.01 45.44 94.04 48.29 C 94.08 51.85 94.05 55.41 94.01 58.97 C 72.68 59.06 51.34 59.01 30.00 59.02 C 29.93 54.02 29.85 49.02 29.96 44.02 C 29.97 40.81 29.94 37.59 29.98 34.38 C 30.02 31.29 30.03 28.20 30.04 25.11 C 30.05 22.42 30.06 19.74 30.06 17.05 M 35.45 44.44 C 31.71 46.06 30.60 51.59 33.72 54.31 C 36.83 57.89 43.45 55.76 44.00 51.10 C 45.09 46.45 39.68 42.32 35.45 44.44 Z" />
<path fill="#f8ae57" opacity="1.00" d=" M 36.00 63.00 C 39.96 62.99 43.91 63.01 47.87 63.00 C 47.89 64.30 47.90 65.60 47.92 66.90 C 43.95 66.94 39.97 67.02 36.00 67.01 C 36.00 65.67 36.00 64.34 36.00 63.00 Z" />
<path fill="#f8ae57" opacity="1.00" d=" M 77.00 63.00 C 81.00 63.01 85.00 62.99 89.00 63.01 C 89.00 65.00 89.00 66.99 89.00 68.98 C 90.95 69.02 92.89 69.06 94.84 69.11 C 95.00 73.02 94.96 76.94 94.80 80.84 C 92.79 80.88 90.77 80.90 88.76 80.91 C 86.81 82.78 84.89 84.69 82.99 86.61 C 81.06 84.78 79.37 82.63 77.15 81.12 C 75.14 80.90 73.12 80.96 71.11 80.90 C 70.93 76.96 70.93 73.01 71.07 69.06 C 73.05 69.01 75.02 68.99 77.00 68.97 C 77.00 66.98 77.00 64.99 77.00 63.00 Z" />
<path fill="#f8ae57" opacity="1.00" d=" M 61.40 72.51 C 65.07 70.03 67.78 76.79 63.71 77.65 C 60.62 78.80 58.69 74.04 61.40 72.51 Z" />
</g>
<g id="#7056e9ff">
<path fill="#7056e9" opacity="1.00" d=" M 94.01 23.13 C 95.33 23.12 96.65 23.11 97.98 23.10 C 98.08 28.65 97.88 34.20 97.96 39.75 C 96.64 39.75 95.32 39.74 94.00 39.73 C 93.98 34.20 94.03 28.67 94.01 23.13 Z" />
<path fill="#7056e9" opacity="1.00" d=" M 26.04 25.98 C 27.37 25.69 28.71 25.40 30.04 25.11 C 30.03 28.20 30.02 31.29 29.98 34.38 C 28.65 34.44 27.32 34.50 25.99 34.56 C 26.00 31.70 26.00 28.84 26.04 25.98 Z" />
</g>
<g id="#4647d9ff">
<path fill="#4647d9" opacity="1.00" d=" M 25.99 34.56 C 27.32 34.50 28.65 34.44 29.98 34.38 C 29.94 37.59 29.97 40.81 29.96 44.02 L 29.84 44.14 C 28.64 42.64 27.46 41.12 26.06 39.80 C 26.01 38.05 25.99 36.30 25.99 34.56 Z" />
<path fill="#4647d9" opacity="1.00" d=" M 94.00 39.73 C 95.32 39.74 96.64 39.75 97.96 39.75 C 98.01 42.65 98.01 45.54 98.00 48.44 C 96.68 48.39 95.36 48.34 94.04 48.29 C 94.01 45.44 94.01 42.59 94.00 39.73 Z" />
<path fill="#4647d9" opacity="1.00" d=" M 35.45 44.44 C 39.68 42.32 45.09 46.45 44.00 51.10 C 43.45 55.76 36.83 57.89 33.72 54.31 C 30.60 51.59 31.71 46.06 35.45 44.44 M 35.32 49.96 C 34.87 51.70 36.83 52.23 37.89 53.03 C 38.54 52.74 39.85 52.16 40.50 51.87 C 41.20 49.52 40.13 47.80 38.01 46.80 C 37.05 47.76 34.89 48.22 35.32 49.96 Z" />
</g>
<g id="#5cdd4cff">
<path fill="#5cdd4c" opacity="1.00" d=" M 20.98 44.00 C 20.89 41.32 23.63 39.69 26.06 39.80 C 27.46 41.12 28.64 42.64 29.84 44.14 C 28.70 45.36 27.71 46.71 26.58 47.94 C 24.05 48.41 20.95 46.83 20.98 44.00 Z" />
</g>
<g id="#1b35c9ff">
<path fill="#1b35c9" opacity="1.00" d=" M 29.84 44.14 L 29.96 44.02 C 29.85 49.02 29.93 54.02 30.00 59.02 C 51.34 59.01 72.68 59.06 94.01 58.97 C 94.05 55.41 94.08 51.85 94.04 48.29 C 95.36 48.34 96.68 48.39 98.00 48.44 C 98.02 53.05 97.99 57.67 97.97 62.29 C 95.08 63.26 92.00 63.02 89.00 63.01 C 85.00 62.99 81.00 63.01 77.00 63.00 C 67.29 62.99 57.58 62.99 47.87 63.00 C 43.91 63.01 39.96 62.99 36.00 63.00 C 32.66 62.92 29.19 63.46 26.00 62.21 C 25.97 57.45 25.92 52.67 26.58 47.94 C 27.71 46.71 28.70 45.36 29.84 44.14 Z" />
</g>
</svg>
