<?xml version="1.0" encoding="UTF-8" ?>
<!DOCTYPE svg PUBLIC "-//W3C//DTD SVG 1.1//EN" "http://www.w3.org/Graphics/SVG/1.1/DTD/svg11.dtd">
<svg width="117px" height="140px" viewBox="0 0 117 140" version="1.1" xmlns="http://www.w3.org/2000/svg">
<g id="#181818ff">
<path fill="#181818" opacity="1.00" d=" M 0.00 0.00 L 117.00 0.00 L 117.00 140.00 L 0.00 140.00 L 0.00 0.00 M 42.76 29.98 C 41.09 33.01 38.82 35.63 36.18 37.84 C 37.73 38.68 39.29 39.52 40.86 40.34 C 40.80 40.99 40.69 42.29 40.64 42.94 C 39.40 42.95 38.15 42.98 36.91 43.02 C 36.91 43.83 36.91 45.44 36.91 46.25 C 37.73 46.25 39.35 46.26 40.17 46.27 C 39.91 48.26 39.65 50.26 39.38 52.26 C 43.56 52.25 47.73 52.21 51.90 52.32 C 49.17 53.65 46.35 54.79 43.46 55.75 C 43.85 57.01 44.24 58.26 44.62 59.52 C 47.01 59.26 49.41 59.07 51.81 58.97 C 48.10 60.51 44.23 61.60 40.32 62.48 C 40.72 63.87 41.12 65.26 41.52 66.65 C 46.69 65.86 51.92 65.53 57.14 65.20 C 56.94 66.90 57.39 68.83 56.60 70.37 C 54.73 70.59 52.84 70.50 50.96 70.53 C 51.62 72.10 52.30 73.67 52.95 75.25 C 55.95 74.77 59.73 75.55 62.03 73.14 C 63.26 70.58 62.59 67.54 62.80 64.79 C 66.21 64.56 69.61 64.37 73.02 64.11 C 73.95 64.99 74.90 65.85 75.87 66.70 C 77.18 65.70 78.49 64.71 79.80 63.71 C 76.65 61.00 73.23 58.64 69.67 56.52 C 68.43 57.41 67.20 58.28 65.96 59.16 C 66.50 59.52 67.57 60.24 68.11 60.60 C 64.64 60.76 61.17 60.93 57.70 60.95 C 61.51 59.49 65.26 57.91 68.91 56.09 C 67.90 54.92 66.90 53.76 65.90 52.59 C 62.58 54.78 58.66 55.38 54.76 54.83 C 55.52 54.56 57.02 54.04 57.78 53.78 L 57.63 52.90 C 58.87 52.06 59.62 50.90 59.89 49.41 C 59.20 49.39 57.81 49.36 57.12 49.35 C 57.21 48.32 57.30 47.30 57.40 46.28 C 58.60 46.26 59.81 46.25 61.01 46.23 C 61.02 45.43 61.05 43.83 61.06 43.03 C 60.25 43.02 58.63 43.01 57.82 43.00 C 57.95 41.05 58.07 39.10 58.19 37.14 C 53.15 37.07 48.09 37.36 43.07 36.87 C 48.38 34.78 54.33 36.36 59.90 35.84 C 59.91 34.67 59.92 33.50 59.93 32.33 C 55.90 32.30 51.87 32.37 47.85 32.21 C 46.35 31.06 44.55 30.49 42.76 29.98 M 64.88 30.35 C 63.64 34.09 61.72 37.59 58.86 40.34 C 60.03 41.50 61.20 42.66 62.38 43.82 C 62.86 43.29 63.83 42.22 64.31 41.68 C 65.19 43.00 66.06 44.32 66.93 45.65 C 64.64 46.93 62.30 48.12 59.92 49.23 C 60.87 50.48 61.82 51.74 62.77 52.99 C 65.26 51.71 67.69 50.33 70.05 48.84 C 72.72 50.69 75.58 52.26 78.57 53.53 C 79.60 52.12 80.64 50.73 81.69 49.35 C 78.85 48.36 76.11 47.10 73.49 45.62 C 75.14 43.05 76.61 40.37 77.84 37.57 C 78.52 37.54 79.89 37.48 80.57 37.46 C 80.57 36.47 80.57 34.49 80.57 33.50 C 76.72 33.49 72.86 33.49 69.01 33.50 C 69.12 32.92 69.36 31.75 69.47 31.17 C 67.94 30.89 66.41 30.62 64.88 30.35 M 65.00 68.62 C 68.79 70.26 72.52 72.07 76.13 74.10 C 77.58 73.12 79.02 72.14 80.47 71.15 C 76.77 69.19 72.95 67.47 69.05 65.94 C 67.70 66.83 66.35 67.73 65.00 68.62 M 37.19 70.68 C 38.56 71.93 39.93 73.20 41.29 74.46 C 45.50 72.79 49.56 70.73 53.25 68.09 C 51.56 67.44 49.87 66.80 48.18 66.17 C 44.72 68.13 41.00 69.58 37.19 70.68 Z" />
<path fill="#181818" opacity="1.00" d=" M 66.77 37.51 C 68.82 37.51 70.87 37.52 72.93 37.54 C 72.01 39.25 71.06 40.95 70.09 42.63 C 68.94 40.95 67.85 39.24 66.77 37.51 Z" />
<path fill="#181818" opacity="1.00" d=" M 45.07 40.22 C 45.73 40.17 47.05 40.05 47.71 40.00 C 47.38 40.33 46.74 41.00 46.41 41.34 C 47.52 41.99 48.61 42.67 49.69 43.39 C 48.11 43.37 46.53 43.34 44.94 43.34 C 44.98 42.56 45.04 41.00 45.07 40.22 Z" />
<path fill="#181818" opacity="1.00" d=" M 48.88 40.14 C 50.46 40.14 52.04 40.14 53.63 40.14 C 53.59 40.78 53.51 42.06 53.47 42.70 C 53.02 43.02 52.12 43.66 51.67 43.98 C 51.57 43.11 51.47 42.24 51.38 41.37 C 50.75 41.06 49.50 40.45 48.88 40.14 Z" />
<path fill="#181818" opacity="1.00" d=" M 43.92 49.14 C 44.38 47.94 44.84 46.74 45.29 45.53 C 46.93 47.78 49.17 49.35 52.00 49.56 C 51.37 48.62 50.12 46.72 49.49 45.77 C 50.43 45.84 52.32 45.98 53.27 46.05 C 52.90 47.36 52.53 48.67 52.16 49.97 C 49.41 49.69 46.66 49.44 43.92 49.14 Z" />
</g>
<g id="#f8ab55ff">
<path fill="#f8ab55" opacity="1.00" d=" M 42.76 29.98 C 44.55 30.49 46.35 31.06 47.85 32.21 C 51.87 32.37 55.90 32.30 59.93 32.33 C 59.92 33.50 59.91 34.67 59.90 35.84 C 54.33 36.36 48.38 34.78 43.07 36.87 C 48.09 37.36 53.15 37.07 58.19 37.14 C 58.07 39.10 57.95 41.05 57.82 43.00 C 58.63 43.01 60.25 43.02 61.06 43.03 C 61.05 43.83 61.02 45.43 61.01 46.23 C 59.81 46.25 58.60 46.26 57.40 46.28 C 57.30 47.30 57.21 48.32 57.12 49.35 C 57.81 49.36 59.20 49.39 59.89 49.41 C 59.62 50.90 58.87 52.06 57.63 52.90 L 57.78 53.78 C 57.02 54.04 55.52 54.56 54.76 54.83 C 58.66 55.38 62.58 54.78 65.90 52.59 C 66.90 53.76 67.90 54.92 68.91 56.09 C 65.26 57.91 61.51 59.49 57.70 60.95 C 61.17 60.93 64.64 60.76 68.11 60.60 C 67.57 60.24 66.50 59.52 65.96 59.16 C 67.20 58.28 68.43 57.41 69.67 56.52 C 73.23 58.64 76.65 61.00 79.80 63.71 C 78.49 64.71 77.18 65.70 75.87 66.70 C 74.90 65.85 73.95 64.99 73.02 64.11 C 69.61 64.37 66.21 64.56 62.80 64.79 C 62.59 67.54 63.26 70.58 62.03 73.14 C 59.73 75.55 55.95 74.77 52.95 75.25 C 52.30 73.67 51.62 72.10 50.96 70.53 C 52.84 70.50 54.73 70.59 56.60 70.37 C 57.39 68.83 56.94 66.90 57.14 65.20 C 51.92 65.53 46.69 65.86 41.52 66.65 C 41.12 65.26 40.72 63.87 40.32 62.48 C 44.23 61.60 48.10 60.51 51.81 58.97 C 49.41 59.07 47.01 59.26 44.62 59.52 C 44.24 58.26 43.85 57.01 43.46 55.75 C 46.35 54.79 49.17 53.65 51.90 52.32 C 47.73 52.21 43.56 52.25 39.38 52.26 C 39.65 50.26 39.91 48.26 40.17 46.27 C 39.35 46.26 37.73 46.25 36.91 46.25 C 36.91 45.44 36.91 43.83 36.91 43.02 C 38.15 42.98 39.40 42.95 40.64 42.94 C 40.69 42.29 40.80 40.99 40.86 40.34 C 39.29 39.52 37.73 38.68 36.18 37.84 C 38.82 35.63 41.09 33.01 42.76 29.98 M 45.07 40.22 C 45.04 41.00 44.98 42.56 44.94 43.34 C 46.53 43.34 48.11 43.37 49.69 43.39 C 48.61 42.67 47.52 41.99 46.41 41.34 C 46.74 41.00 47.38 40.33 47.71 40.00 C 47.05 40.05 45.73 40.17 45.07 40.22 M 48.88 40.14 C 49.50 40.45 50.75 41.06 51.38 41.37 C 51.47 42.24 51.57 43.11 51.67 43.98 C 52.12 43.66 53.02 43.02 53.47 42.70 C 53.51 42.06 53.59 40.78 53.63 40.14 C 52.04 40.14 50.46 40.14 48.88 40.14 M 43.92 49.14 C 46.66 49.44 49.41 49.69 52.16 49.97 C 52.53 48.67 52.90 47.36 53.27 46.05 C 52.32 45.98 50.43 45.84 49.49 45.77 C 50.12 46.72 51.37 48.62 52.00 49.56 C 49.17 49.35 46.93 47.78 45.29 45.53 C 44.84 46.74 44.38 47.94 43.92 49.14 Z" />
<path fill="#f8ab55" opacity="1.00" d=" M 64.88 30.35 C 66.41 30.62 67.94 30.89 69.47 31.17 C 69.36 31.75 69.12 32.92 69.01 33.50 C 72.86 33.49 76.72 33.49 80.57 33.50 C 80.57 34.49 80.57 36.47 80.57 37.46 C 79.89 37.48 78.52 37.54 77.84 37.57 C 76.61 40.37 75.14 43.05 73.49 45.62 C 76.11 47.10 78.85 48.36 81.69 49.35 C 80.64 50.73 79.60 52.12 78.57 53.53 C 75.58 52.26 72.72 50.69 70.05 48.84 C 67.69 50.33 65.26 51.71 62.77 52.99 C 61.82 51.74 60.87 50.48 59.92 49.23 C 62.30 48.12 64.64 46.93 66.93 45.65 C 66.06 44.32 65.19 43.00 64.31 41.68 C 63.83 42.22 62.86 43.29 62.38 43.82 C 61.20 42.66 60.03 41.50 58.86 40.34 C 61.72 37.59 63.64 34.09 64.88 30.35 M 66.77 37.51 C 67.85 39.24 68.94 40.95 70.09 42.63 C 71.06 40.95 72.01 39.25 72.93 37.54 C 70.87 37.52 68.82 37.51 66.77 37.51 Z" />
<path fill="#f8ab55" opacity="1.00" d=" M 65.00 68.62 C 66.35 67.73 67.70 66.83 69.05 65.94 C 72.95 67.47 76.77 69.19 80.47 71.15 C 79.02 72.14 77.58 73.12 76.13 74.10 C 72.52 72.07 68.79 70.26 65.00 68.62 Z" />
<path fill="#f8ab55" opacity="1.00" d=" M 37.19 70.68 C 41.00 69.58 44.72 68.13 48.18 66.17 C 49.87 66.80 51.56 67.44 53.25 68.09 C 49.56 70.73 45.50 72.79 41.29 74.46 C 39.93 73.20 38.56 71.93 37.19 70.68 Z" />
</g>
</svg>
