<?xml version="1.0" encoding="UTF-8" ?>
<!DOCTYPE svg PUBLIC "-//W3C//DTD SVG 1.1//EN" "http://www.w3.org/Graphics/SVG/1.1/DTD/svg11.dtd">
<svg width="117px" height="140px" viewBox="0 0 117 140" version="1.1" xmlns="http://www.w3.org/2000/svg">
<g id="#181818ff">
<path fill="#181818" opacity="1.00" d=" M 0.00 0.00 L 117.00 0.00 L 117.00 140.00 L 0.00 140.00 L 0.00 0.00 M 49.15 13.13 C 48.90 13.39 48.38 13.91 48.13 14.17 C 47.81 17.48 48.06 20.81 48.02 24.12 C 48.02 25.07 48.02 26.97 48.02 27.92 C 48.01 30.71 48.04 33.51 47.82 36.30 C 48.26 40.46 53.15 38.62 55.98 38.98 C 55.55 40.80 57.03 42.01 58.04 43.26 C 59.05 41.99 59.91 40.61 60.35 39.03 C 62.53 39.00 64.73 39.10 66.89 38.79 C 68.99 36.82 67.61 33.35 68.00 30.78 C 67.99 28.18 68.00 25.58 67.99 22.99 C 67.97 20.59 67.98 18.19 68.17 15.80 C 68.11 13.61 66.37 12.77 64.40 12.91 C 59.32 13.22 54.22 12.73 49.15 13.13 M 33.10 25.16 C 33.49 27.14 35.23 28.35 36.55 29.71 C 41.46 31.36 46.31 26.60 44.79 21.65 C 43.40 20.25 42.13 18.38 40.03 18.06 C 36.12 17.20 32.13 21.26 33.10 25.16 M 78.70 32.73 C 77.44 34.22 78.33 36.11 78.94 37.65 L 78.63 37.99 C 80.59 38.60 83.14 39.64 84.73 37.71 C 86.62 36.08 85.75 33.50 84.79 31.63 C 82.73 31.12 79.99 30.49 78.70 32.73 M 18.00 48.21 L 17.95 48.20 C 18.00 50.35 18.03 52.50 18.04 54.64 C 18.03 56.89 18.03 59.13 17.97 61.38 C 18.00 62.91 17.99 64.44 18.18 65.96 C 19.34 67.41 21.40 66.84 23.01 67.03 C 34.37 66.92 45.73 67.07 57.09 66.97 C 58.25 67.04 60.33 66.57 59.94 64.96 C 60.27 63.35 58.25 62.89 57.07 63.01 C 45.52 62.87 33.94 63.20 22.39 62.87 C 22.23 62.50 21.92 61.77 21.76 61.41 C 21.95 59.16 21.99 56.90 22.00 54.65 C 21.99 53.43 21.98 52.22 21.98 51.00 C 22.48 51.00 23.48 51.00 23.98 51.00 C 24.02 52.33 24.06 53.67 24.10 55.00 C 24.55 55.00 25.45 55.00 25.90 55.00 C 25.94 53.67 25.98 52.33 26.02 51.00 C 26.51 51.00 27.49 51.00 27.98 51.00 C 28.02 52.33 28.06 53.67 28.10 55.00 C 28.55 55.00 29.45 55.00 29.90 55.00 C 29.94 53.67 29.98 52.33 30.01 51.00 C 30.51 51.00 31.50 51.00 31.99 51.00 C 32.06 53.67 32.13 56.34 32.20 59.01 C 32.60 59.00 33.41 58.99 33.81 58.98 C 33.87 56.32 33.94 53.66 34.01 51.00 C 34.50 51.00 35.49 51.00 35.98 51.00 C 36.02 52.33 36.06 53.67 36.10 55.00 C 36.55 55.00 37.45 55.00 37.90 55.00 C 37.94 53.67 37.98 52.33 38.02 51.00 C 38.51 51.00 39.49 51.00 39.98 51.00 C 40.02 52.33 40.06 53.67 40.10 55.00 C 40.55 55.00 41.45 55.00 41.90 55.00 C 41.94 53.67 41.98 52.33 42.01 51.00 C 42.51 51.00 43.50 51.00 43.99 51.00 C 44.06 53.67 44.13 56.33 44.20 59.00 C 44.60 59.00 45.42 59.00 45.82 59.00 C 45.87 56.33 45.94 53.67 46.01 51.00 C 46.50 51.00 47.49 51.00 47.98 51.00 C 48.02 52.33 48.06 53.67 48.10 55.00 C 48.55 55.00 49.45 55.00 49.90 55.00 C 49.94 53.67 49.98 52.33 50.01 51.00 C 50.51 51.00 51.49 51.00 51.99 51.00 C 52.02 52.33 52.06 53.67 52.10 55.00 C 52.55 55.00 53.45 55.00 53.90 55.00 C 53.94 53.67 53.98 52.33 54.02 51.00 C 54.51 51.00 55.50 51.00 55.99 51.00 C 56.06 53.67 56.13 56.34 56.20 59.00 C 56.60 59.00 57.41 59.00 57.81 58.99 C 57.87 56.33 57.94 53.66 58.01 51.00 C 58.50 51.00 59.49 51.00 59.99 51.00 C 60.02 52.33 60.06 53.67 60.10 55.00 C 60.55 55.00 61.45 55.00 61.90 55.00 C 61.93 53.67 61.98 52.33 62.02 51.00 C 62.51 51.00 63.49 51.00 63.98 51.00 C 64.02 52.33 64.06 53.67 64.10 55.00 C 64.55 55.00 65.45 55.00 65.90 55.00 C 65.94 53.67 65.98 52.33 66.02 51.00 C 66.51 51.00 67.50 51.00 67.99 51.00 C 68.06 53.67 68.13 56.33 68.20 59.00 C 68.60 59.00 69.41 58.99 69.81 58.99 C 69.87 56.33 69.94 53.66 70.01 51.00 C 70.50 51.00 71.49 51.00 71.98 51.00 C 72.02 52.33 72.06 53.67 72.10 55.00 C 72.55 55.00 73.45 55.00 73.90 55.00 C 73.94 53.67 73.98 52.33 74.02 51.00 C 74.51 51.00 75.49 51.00 75.98 51.00 C 76.02 52.33 76.06 53.67 76.10 55.00 C 76.55 55.00 77.45 55.00 77.90 55.00 C 77.94 53.67 77.98 52.33 78.02 51.00 C 78.51 51.00 79.50 51.00 79.99 51.00 C 80.06 53.66 80.13 56.33 80.20 58.99 C 80.60 59.00 81.40 59.00 81.81 59.00 C 81.87 56.34 81.94 53.67 82.01 51.00 C 82.50 51.00 83.49 51.00 83.98 51.00 C 84.02 52.33 84.06 53.67 84.10 55.00 C 84.55 55.00 85.45 55.00 85.90 55.00 C 85.94 53.67 85.97 52.33 86.01 51.00 C 86.51 51.00 87.49 51.00 87.98 51.00 C 88.02 52.33 88.06 53.67 88.10 55.00 C 88.55 55.00 89.45 55.00 89.90 55.00 C 89.93 53.67 89.98 52.33 90.02 51.00 C 90.51 51.00 91.50 51.00 91.99 51.00 C 92.06 53.66 92.13 56.33 92.19 58.99 C 92.59 58.99 93.40 59.00 93.80 59.01 C 93.87 56.34 93.94 53.67 94.01 51.00 C 94.51 51.00 95.52 51.00 96.02 51.00 C 96.02 52.23 96.01 53.45 96.00 54.68 C 96.00 57.00 96.05 59.32 96.25 61.63 C 96.08 61.97 95.73 62.63 95.56 62.97 C 88.36 63.12 81.15 62.83 73.95 63.07 C 71.40 62.84 71.37 67.12 73.97 66.89 C 81.97 67.09 90.00 67.07 98.00 66.90 C 100.90 66.75 99.75 63.11 100.03 61.20 C 99.98 59.02 99.98 56.85 99.96 54.67 C 99.97 52.52 100.01 50.37 100.07 48.22 L 100.01 48.24 C 98.87 47.25 97.55 46.84 96.05 46.98 C 71.69 47.00 47.34 47.03 22.98 46.97 C 21.26 47.02 19.31 46.81 18.00 48.21 M 65.17 63.03 C 62.78 64.10 64.30 67.86 66.75 66.87 C 69.35 65.99 67.64 62.01 65.17 63.03 M 42.89 73.88 L 44.12 73.17 L 43.10 74.08 L 44.07 74.46 C 43.50 74.85 42.36 75.64 41.79 76.04 C 40.67 77.56 37.52 79.47 39.57 81.51 C 41.89 83.74 43.85 86.69 46.89 87.94 C 49.44 85.94 45.22 83.62 44.00 81.97 C 45.71 81.98 47.41 81.98 49.12 81.98 C 52.71 82.13 56.31 81.93 59.91 81.98 C 63.74 82.02 67.57 81.99 71.41 81.97 C 72.16 81.98 73.66 82.01 74.41 82.03 C 73.17 83.82 69.46 85.36 71.21 87.85 C 73.70 87.79 75.02 85.20 76.79 83.78 C 78.07 82.34 81.03 80.24 78.74 78.32 C 76.36 76.21 74.52 72.61 71.20 72.14 C 69.42 74.42 72.73 75.82 73.92 77.41 C 73.82 77.58 73.64 77.92 73.54 78.09 C 69.72 77.99 65.91 77.98 62.09 78.01 C 56.13 78.00 50.17 77.95 44.21 78.23 C 44.78 77.22 45.29 76.18 45.73 75.11 L 46.92 75.58 C 48.78 73.95 49.44 71.64 48.20 69.41 C 45.05 67.81 42.11 70.55 42.89 73.88 Z" />
</g>
<g id="#f8d478ff">
<path fill="#f8d478" opacity="1.00" d=" M 49.15 13.13 C 54.22 12.73 59.32 13.22 64.40 12.91 C 59.11 16.90 53.60 20.57 48.02 24.12 C 48.06 20.81 47.81 17.48 48.13 14.17 C 48.38 13.91 48.90 13.39 49.15 13.13 Z" />
<path fill="#f8d478" opacity="1.00" d=" M 41.79 76.04 C 43.29 79.02 45.73 81.40 49.12 81.98 C 47.41 81.98 45.71 81.98 44.00 81.97 C 45.22 83.62 49.44 85.94 46.89 87.94 C 43.85 86.69 41.89 83.74 39.57 81.51 C 37.52 79.47 40.67 77.56 41.79 76.04 Z" />
</g>
<g id="#f8c468ff">
<path fill="#f8c468" opacity="1.00" d=" M 64.40 12.91 C 66.37 12.77 68.11 13.61 68.17 15.80 C 63.68 18.37 59.24 21.05 55.14 24.21 C 53.02 25.89 50.58 27.10 48.02 27.92 C 48.02 26.97 48.02 25.07 48.02 24.12 C 53.60 20.57 59.11 16.90 64.40 12.91 Z" />
</g>
<g id="#f8b458ff">
<path fill="#f8b458" opacity="1.00" d=" M 55.14 24.21 C 59.24 21.05 63.68 18.37 68.17 15.80 C 67.98 18.19 67.97 20.59 67.99 22.99 C 61.25 27.40 54.67 32.06 47.82 36.30 C 48.04 33.51 48.01 30.71 48.02 27.92 C 50.58 27.10 53.02 25.89 55.14 24.21 Z" />
</g>
<g id="#68e4d8ff">
<path fill="#68e4d8" opacity="1.00" d=" M 33.10 25.16 C 32.13 21.26 36.12 17.20 40.03 18.06 C 42.13 18.38 43.40 20.25 44.79 21.65 C 41.98 24.28 39.23 26.96 36.55 29.71 C 35.23 28.35 33.49 27.14 33.10 25.16 Z" />
</g>
<g id="#48d4c8ff">
<path fill="#48d4c8" opacity="1.00" d=" M 44.79 21.65 C 46.31 26.60 41.46 31.36 36.55 29.71 C 39.23 26.96 41.98 24.28 44.79 21.65 Z" />
</g>
<g id="#f8a050ff">
<path fill="#f8a050" opacity="1.00" d=" M 47.82 36.30 C 54.67 32.06 61.25 27.40 67.99 22.99 C 68.00 25.58 67.99 28.18 68.00 30.78 C 63.95 33.44 59.71 35.87 55.98 38.98 C 53.15 38.62 48.26 40.46 47.82 36.30 Z" />
</g>
<g id="#f88c40ff">
<path fill="#f88c40" opacity="1.00" d=" M 55.98 38.98 C 59.71 35.87 63.95 33.44 68.00 30.78 C 67.61 33.35 68.99 36.82 66.89 38.79 C 64.73 39.10 62.53 39.00 60.35 39.03 C 59.91 40.61 59.05 41.99 58.04 43.26 C 57.03 42.01 55.55 40.80 55.98 38.98 Z" />
</g>
<g id="#c050d0ff">
<path fill="#c050d0" opacity="1.00" d=" M 78.70 32.73 C 79.99 30.49 82.73 31.12 84.79 31.63 C 82.82 33.62 80.87 35.62 78.94 37.65 C 78.33 36.11 77.44 34.22 78.70 32.73 Z" />
</g>
<g id="#8034c8ff">
<path fill="#8034c8" opacity="1.00" d=" M 84.79 31.63 C 85.75 33.50 86.62 36.08 84.73 37.71 C 83.14 39.64 80.59 38.60 78.63 37.99 L 78.94 37.65 C 80.87 35.62 82.82 33.62 84.79 31.63 Z" />
</g>
<g id="#9462f8ff">
<path fill="#9462f8" opacity="1.00" d=" M 18.00 48.21 C 19.31 46.81 21.26 47.02 22.98 46.97 C 47.34 47.03 71.69 47.00 96.05 46.98 C 97.55 46.84 98.87 47.25 100.01 48.24 C 97.39 48.78 94.73 49.20 92.05 49.23 C 73.36 49.20 54.68 49.18 35.99 49.19 C 29.99 49.15 23.87 49.81 18.00 48.21 Z" />
</g>
<g id="#8058f0ff">
<path fill="#8058f0" opacity="1.00" d=" M 17.95 48.20 L 18.00 48.21 C 23.87 49.81 29.99 49.15 35.99 49.19 C 54.68 49.18 73.36 49.20 92.05 49.23 C 94.73 49.20 97.39 48.78 100.01 48.24 L 100.07 48.22 C 100.01 50.37 99.97 52.52 99.96 54.67 C 98.64 54.68 97.32 54.68 96.00 54.68 C 96.01 53.45 96.02 52.23 96.02 51.00 C 95.52 51.00 94.51 51.00 94.01 51.00 C 93.94 53.67 93.87 56.34 93.80 59.01 C 93.40 59.00 92.59 58.99 92.19 58.99 C 92.13 56.33 92.06 53.66 91.99 51.00 C 91.50 51.00 90.51 51.00 90.02 51.00 C 89.98 52.33 89.93 53.67 89.90 55.00 C 89.45 55.00 88.55 55.00 88.10 55.00 C 88.06 53.67 88.02 52.33 87.98 51.00 C 87.49 51.00 86.51 51.00 86.01 51.00 C 85.97 52.33 85.94 53.67 85.90 55.00 C 85.45 55.00 84.55 55.00 84.10 55.00 C 84.06 53.67 84.02 52.33 83.98 51.00 C 83.49 51.00 82.50 51.00 82.01 51.00 C 81.94 53.67 81.87 56.34 81.81 59.00 C 81.40 59.00 80.60 59.00 80.20 58.99 C 80.13 56.33 80.06 53.66 79.99 51.00 C 79.50 51.00 78.51 51.00 78.02 51.00 C 77.98 52.33 77.94 53.67 77.90 55.00 C 77.45 55.00 76.55 55.00 76.10 55.00 C 76.06 53.67 76.02 52.33 75.98 51.00 C 75.49 51.00 74.51 51.00 74.02 51.00 C 73.98 52.33 73.94 53.67 73.90 55.00 C 73.45 55.00 72.55 55.00 72.10 55.00 C 72.06 53.67 72.02 52.33 71.98 51.00 C 71.49 51.00 70.50 51.00 70.01 51.00 C 69.94 53.66 69.87 56.33 69.81 58.99 C 69.41 58.99 68.60 59.00 68.20 59.00 C 68.13 56.33 68.06 53.67 67.99 51.00 C 67.50 51.00 66.51 51.00 66.02 51.00 C 65.98 52.33 65.94 53.67 65.90 55.00 C 65.45 55.00 64.55 55.00 64.10 55.00 C 64.06 53.67 64.02 52.33 63.98 51.00 C 63.49 51.00 62.51 51.00 62.02 51.00 C 61.98 52.33 61.93 53.67 61.90 55.00 C 61.45 55.00 60.55 55.00 60.10 55.00 C 60.06 53.67 60.02 52.33 59.99 51.00 C 59.49 51.00 58.50 51.00 58.01 51.00 C 57.94 53.66 57.87 56.33 57.81 58.99 C 57.41 59.00 56.60 59.00 56.20 59.00 C 56.13 56.34 56.06 53.67 55.99 51.00 C 55.50 51.00 54.51 51.00 54.02 51.00 C 53.98 52.33 53.94 53.67 53.90 55.00 C 53.45 55.00 52.55 55.00 52.10 55.00 C 52.06 53.67 52.02 52.33 51.99 51.00 C 51.49 51.00 50.51 51.00 50.01 51.00 C 49.98 52.33 49.94 53.67 49.90 55.00 C 49.45 55.00 48.55 55.00 48.10 55.00 C 48.06 53.67 48.02 52.33 47.98 51.00 C 47.49 51.00 46.50 51.00 46.01 51.00 C 45.94 53.67 45.87 56.33 45.82 59.00 C 45.42 59.00 44.60 59.00 44.20 59.00 C 44.13 56.33 44.06 53.67 43.99 51.00 C 43.50 51.00 42.51 51.00 42.01 51.00 C 41.98 52.33 41.94 53.67 41.90 55.00 C 41.45 55.00 40.55 55.00 40.10 55.00 C 40.06 53.67 40.02 52.33 39.98 51.00 C 39.49 51.00 38.51 51.00 38.02 51.00 C 37.98 52.33 37.94 53.67 37.90 55.00 C 37.45 55.00 36.55 55.00 36.10 55.00 C 36.06 53.67 36.02 52.33 35.98 51.00 C 35.49 51.00 34.50 51.00 34.01 51.00 C 33.94 53.66 33.87 56.32 33.81 58.98 C 33.41 58.99 32.60 59.00 32.20 59.01 C 32.13 56.34 32.06 53.67 31.99 51.00 C 31.50 51.00 30.51 51.00 30.01 51.00 C 29.98 52.33 29.94 53.67 29.90 55.00 C 29.45 55.00 28.55 55.00 28.10 55.00 C 28.06 53.67 28.02 52.33 27.98 51.00 C 27.49 51.00 26.51 51.00 26.02 51.00 C 25.98 52.33 25.94 53.67 25.90 55.00 C 25.45 55.00 24.55 55.00 24.10 55.00 C 24.06 53.67 24.02 52.33 23.98 51.00 C 23.48 51.00 22.48 51.00 21.98 51.00 C 21.98 52.22 21.99 53.43 22.00 54.65 C 20.68 54.65 19.36 54.65 18.04 54.64 C 18.03 52.50 18.00 50.35 17.95 48.20 Z" />
</g>
<g id="#584ce0ff">
<path fill="#584ce0" opacity="1.00" d=" M 18.04 54.64 C 19.36 54.65 20.68 54.65 22.00 54.65 C 21.99 56.90 21.95 59.16 21.76 61.41 C 20.50 61.39 19.23 61.38 17.97 61.38 C 18.03 59.13 18.03 56.89 18.04 54.64 Z" />
</g>
<g id="#504ce0ff">
<path fill="#504ce0" opacity="1.00" d=" M 96.00 54.68 C 97.32 54.68 98.64 54.68 99.96 54.67 C 99.98 56.85 99.98 59.02 100.03 61.20 C 98.77 61.32 97.51 61.46 96.25 61.63 C 96.05 59.32 96.00 57.00 96.00 54.68 Z" />
</g>
<g id="#2038c8ff">
<path fill="#2038c8" opacity="1.00" d=" M 17.97 61.38 C 19.23 61.38 20.50 61.39 21.76 61.41 C 21.92 61.77 22.23 62.50 22.39 62.87 C 33.94 63.20 45.52 62.87 57.07 63.01 C 58.25 62.89 60.27 63.35 59.94 64.96 C 60.33 66.57 58.25 67.04 57.09 66.97 C 45.73 67.07 34.37 66.92 23.01 67.03 C 21.40 66.84 19.34 67.41 18.18 65.96 C 17.99 64.44 18.00 62.91 17.97 61.38 Z" />
<path fill="#2038c8" opacity="1.00" d=" M 96.25 61.63 C 97.51 61.46 98.77 61.32 100.03 61.20 C 99.75 63.11 100.90 66.75 98.00 66.90 C 90.00 67.07 81.97 67.09 73.97 66.89 C 71.37 67.12 71.40 62.84 73.95 63.07 C 81.15 62.83 88.36 63.12 95.56 62.97 C 95.73 62.63 96.08 61.97 96.25 61.63 Z" />
</g>
<g id="#2035bdff">
<path fill="#2035bd" opacity="1.00" d=" M 65.17 63.03 C 67.64 62.01 69.35 65.99 66.75 66.87 C 64.30 67.86 62.78 64.10 65.17 63.03 Z" />
</g>
<g id="#aed849ff">
<path fill="#aed849" opacity="1.00" d=" M 42.89 73.88 C 42.11 70.55 45.05 67.81 48.20 69.41 C 46.87 70.69 45.53 71.97 44.12 73.17 L 42.89 73.88 Z" />
</g>
<g id="#8ad393ff">
<path fill="#8ad393" opacity="1.00" d=" M 48.20 69.41 C 49.44 71.64 48.78 73.95 46.92 75.58 L 45.73 75.11 C 45.32 74.95 44.49 74.62 44.07 74.46 L 43.10 74.08 L 44.12 73.17 C 45.53 71.97 46.87 70.69 48.20 69.41 Z" />
</g>
<g id="#f88438ff">
<path fill="#f88438" opacity="1.00" d=" M 71.20 72.14 C 74.52 72.61 76.36 76.21 78.74 78.32 C 81.03 80.24 78.07 82.34 76.79 83.78 C 75.02 85.20 73.70 87.79 71.21 87.85 C 69.46 85.36 73.17 83.82 74.41 82.03 C 73.66 82.01 72.16 81.98 71.41 81.97 C 72.12 80.67 72.83 79.38 73.54 78.09 C 73.64 77.92 73.82 77.58 73.92 77.41 C 72.73 75.82 69.42 74.42 71.20 72.14 Z" />
</g>
<g id="#f8b860ff">
<path fill="#f8b860" opacity="1.00" d=" M 41.79 76.04 C 42.36 75.64 43.50 74.85 44.07 74.46 C 44.49 74.62 45.32 74.95 45.73 75.11 C 45.29 76.18 44.78 77.22 44.21 78.23 C 50.17 77.95 56.13 78.00 62.09 78.01 C 61.36 79.33 60.64 80.66 59.91 81.98 C 56.31 81.93 52.71 82.13 49.12 81.98 C 45.73 81.40 43.29 79.02 41.79 76.04 Z" />
</g>
<g id="#f89c48ff">
<path fill="#f89c48" opacity="1.00" d=" M 62.09 78.01 C 65.91 77.98 69.72 77.99 73.54 78.09 C 72.83 79.38 72.12 80.67 71.41 81.97 C 67.57 81.99 63.74 82.02 59.91 81.98 C 60.64 80.66 61.36 79.33 62.09 78.01 Z" />
</g>
</svg>
