<?xml version="1.0" encoding="UTF-8" ?>
<!DOCTYPE svg PUBLIC "-//W3C//DTD SVG 1.1//EN" "http://www.w3.org/Graphics/SVG/1.1/DTD/svg11.dtd">
<svg width="117px" height="140px" viewBox="0 0 117 140" version="1.1" xmlns="http://www.w3.org/2000/svg">
<g id="#181818ff">
<path fill="#181818" opacity="1.00" d=" M 0.00 0.00 L 117.00 0.00 L 117.00 140.00 L 0.00 140.00 L 0.00 0.00 M 35.83 13.73 C 33.90 14.50 32.44 16.03 30.96 17.44 C 22.83 24.45 17.35 34.59 16.43 45.33 L 16.11 45.19 C 15.51 53.51 16.93 61.92 20.60 69.42 C 25.56 79.00 34.11 86.91 44.41 90.30 C 49.95 91.11 55.29 93.43 60.97 92.88 C 74.80 92.42 88.07 84.67 95.36 72.93 C 101.07 63.74 103.28 52.47 101.25 41.83 C 98.43 27.74 88.40 15.29 74.94 10.06 C 62.30 4.88 47.32 6.39 35.83 13.73 Z" />
<path fill="#181818" opacity="1.00" d=" M 41.03 15.25 C 51.03 10.47 62.95 9.54 73.31 13.76 C 85.00 18.29 94.20 28.80 96.97 41.06 C 99.32 51.52 97.46 62.95 91.33 71.82 C 85.83 79.79 77.43 85.78 67.95 87.95 C 63.15 89.18 58.16 88.95 53.26 88.83 L 53.71 87.24 C 54.00 86.04 53.94 84.84 53.53 83.63 C 52.04 82.58 50.17 81.24 48.30 82.31 C 46.39 83.05 46.18 85.27 45.55 86.93 C 36.76 82.99 28.85 76.72 24.41 68.01 C 20.94 61.57 19.67 54.13 20.11 46.87 C 20.58 37.57 25.30 29.24 31.08 22.21 C 33.05 25.01 36.83 27.34 40.08 25.02 C 43.67 22.99 43.57 18.09 41.03 15.25 M 57.77 20.79 C 53.72 22.00 50.60 25.67 50.15 29.89 C 49.86 32.60 50.37 35.28 51.15 37.86 L 51.91 37.53 C 52.19 38.62 52.53 39.71 52.91 40.77 C 50.34 42.51 48.72 45.34 47.99 48.32 C 46.32 47.30 44.57 46.43 42.80 45.59 C 42.41 45.14 42.00 44.70 41.59 44.27 C 39.88 42.32 38.55 40.08 36.79 38.18 C 34.74 36.16 30.85 35.42 28.80 37.84 C 26.11 41.20 26.24 45.88 26.71 49.93 C 27.69 56.36 30.45 63.07 35.98 66.87 C 38.66 68.82 42.10 68.72 45.21 68.18 C 46.91 67.24 48.58 66.23 50.26 65.23 C 51.76 63.60 52.98 61.75 53.96 59.76 C 56.12 60.89 58.67 61.26 61.06 60.82 C 61.62 60.72 62.74 60.52 63.30 60.42 C 63.26 63.23 63.06 66.04 62.61 68.81 C 61.49 71.12 60.20 73.41 59.73 75.96 C 59.23 78.73 61.05 82.03 64.04 82.29 C 69.10 82.56 73.56 79.41 77.16 76.17 C 81.53 71.96 85.42 66.29 85.10 59.97 C 84.96 56.12 82.12 53.18 79.14 51.12 C 76.32 49.78 73.24 49.14 70.13 49.52 C 69.87 47.11 68.76 44.95 67.57 42.88 C 67.16 42.53 66.35 41.82 65.94 41.47 C 67.13 40.62 68.30 39.74 69.43 38.82 C 71.07 38.28 72.72 37.80 74.39 37.37 C 76.69 37.17 79.09 37.16 81.26 36.28 C 83.85 35.27 85.61 32.12 84.43 29.45 C 82.86 26.16 79.55 24.13 76.37 22.60 C 70.62 20.01 63.89 18.94 57.77 20.79 M 88.44 44.43 L 87.99 45.02 C 91.21 46.00 94.03 43.17 93.02 39.96 L 92.38 40.43 C 92.03 40.09 91.33 39.41 90.97 39.07 C 87.76 37.89 85.32 42.76 88.44 44.43 Z" />
</g>
<g id="#885ef2ff">
<path fill="#885ef2" opacity="1.00" d=" M 35.83 13.73 C 47.32 6.39 62.30 4.88 74.94 10.06 C 88.40 15.29 98.43 27.74 101.25 41.83 C 99.82 41.57 98.40 41.31 96.97 41.06 C 94.20 28.80 85.00 18.29 73.31 13.76 C 62.95 9.54 51.03 10.47 41.03 15.25 C 39.38 14.48 37.63 14.00 35.83 13.73 Z" />
<path fill="#885ef2" opacity="1.00" d=" M 16.43 45.33 C 17.35 34.59 22.83 24.45 30.96 17.44 C 31.00 19.03 31.04 20.62 31.08 22.21 C 25.30 29.24 20.58 37.57 20.11 46.87 C 18.88 46.36 17.66 45.84 16.43 45.33 Z" />
<path fill="#885ef2" opacity="1.00" d=" M 48.30 82.31 C 50.17 81.24 52.04 82.58 53.53 83.63 C 51.67 85.47 49.82 87.32 47.96 89.17 C 47.16 88.42 46.36 87.67 45.55 86.93 C 46.18 85.27 46.39 83.05 48.30 82.31 Z" />
</g>
<g id="#3ac0eeff">
<path fill="#3ac0ee" opacity="1.00" d=" M 30.96 17.44 C 32.44 16.03 33.90 14.50 35.83 13.73 C 37.63 14.00 39.38 14.48 41.03 15.25 C 43.57 18.09 43.67 22.99 40.08 25.02 C 36.83 27.34 33.05 25.01 31.08 22.21 C 31.04 20.62 31.00 19.03 30.96 17.44 Z" />
</g>
<g id="#f7b960ff">
<path fill="#f7b960" opacity="1.00" d=" M 57.77 20.79 C 63.89 18.94 70.62 20.01 76.37 22.60 C 79.55 24.13 82.86 26.16 84.43 29.45 C 85.61 32.12 83.85 35.27 81.26 36.28 C 79.09 37.16 76.69 37.17 74.39 37.37 C 70.33 33.30 64.77 30.59 58.95 30.74 C 56.05 30.96 53.33 32.06 50.56 32.87 C 50.46 32.12 50.26 30.63 50.15 29.89 C 50.60 25.67 53.72 22.00 57.77 20.79 Z" />
<path fill="#f7b960" opacity="1.00" d=" M 28.80 37.84 C 30.85 35.42 34.74 36.16 36.79 38.18 C 38.55 40.08 39.88 42.32 41.59 44.27 C 41.18 47.77 40.37 51.28 40.69 54.82 C 41.38 59.51 43.39 63.85 45.21 68.18 C 42.10 68.72 38.66 68.82 35.98 66.87 C 30.45 63.07 27.69 56.36 26.71 49.93 C 26.24 45.88 26.11 41.20 28.80 37.84 Z" />
<path fill="#f7b960" opacity="1.00" d=" M 52.91 40.77 C 56.95 38.12 62.11 38.78 65.94 41.47 C 66.35 41.82 67.16 42.53 67.57 42.88 C 62.81 48.42 57.50 53.46 52.14 58.43 C 49.34 55.84 47.64 52.17 47.99 48.32 C 48.72 45.34 50.34 42.51 52.91 40.77 Z" />
</g>
<g id="#f58c3fff">
<path fill="#f58c3f" opacity="1.00" d=" M 50.15 29.89 C 50.26 30.63 50.46 32.12 50.56 32.87 C 53.33 32.06 56.05 30.96 58.95 30.74 C 64.77 30.59 70.33 33.30 74.39 37.37 C 72.72 37.80 71.07 38.28 69.43 38.82 C 66.76 37.40 64.17 35.58 61.11 35.13 C 57.86 34.84 54.82 36.29 51.91 37.53 L 51.15 37.86 C 50.37 35.28 49.86 32.60 50.15 29.89 Z" />
<path fill="#f58c3f" opacity="1.00" d=" M 67.57 42.88 C 68.76 44.95 69.87 47.11 70.13 49.52 C 69.69 54.77 66.24 59.44 61.06 60.82 C 58.67 61.26 56.12 60.89 53.96 59.76 C 53.34 59.34 52.73 58.89 52.14 58.43 C 57.50 53.46 62.81 48.42 67.57 42.88 Z" />
<path fill="#f58c3f" opacity="1.00" d=" M 41.59 44.27 C 42.00 44.70 42.41 45.14 42.80 45.59 C 41.56 52.98 44.57 60.46 50.26 65.23 C 48.58 66.23 46.91 67.24 45.21 68.18 C 43.39 63.85 41.38 59.51 40.69 54.82 C 40.37 51.28 41.18 47.77 41.59 44.27 Z" />
<path fill="#f58c3f" opacity="1.00" d=" M 79.14 51.12 C 82.12 53.18 84.96 56.12 85.10 59.97 C 85.42 66.29 81.53 71.96 77.16 76.17 C 73.56 79.41 69.10 82.56 64.04 82.29 C 61.05 82.03 59.23 78.73 59.73 75.96 C 60.20 73.41 61.49 71.12 62.61 68.81 C 65.49 68.27 68.58 67.80 70.91 65.85 C 75.76 62.41 77.43 56.49 79.14 51.12 Z" />
</g>
<g id="#c27f3eff">
<path fill="#c27f3e" opacity="1.00" d=" M 51.91 37.53 C 54.82 36.29 57.86 34.84 61.11 35.13 C 64.17 35.58 66.76 37.40 69.43 38.82 C 68.30 39.74 67.13 40.62 65.94 41.47 C 62.11 38.78 56.95 38.12 52.91 40.77 C 52.53 39.71 52.19 38.62 51.91 37.53 Z" />
<path fill="#c27f3e" opacity="1.00" d=" M 42.80 45.59 C 44.57 46.43 46.32 47.30 47.99 48.32 C 47.64 52.17 49.34 55.84 52.14 58.43 C 52.73 58.89 53.34 59.34 53.96 59.76 C 52.98 61.75 51.76 63.60 50.26 65.23 C 44.57 60.46 41.56 52.98 42.80 45.59 Z" />
<path fill="#c27f3e" opacity="1.00" d=" M 70.13 49.52 C 73.24 49.14 76.32 49.78 79.14 51.12 C 77.43 56.49 75.76 62.41 70.91 65.85 C 68.58 67.80 65.49 68.27 62.61 68.81 C 63.06 66.04 63.26 63.23 63.30 60.42 C 62.74 60.52 61.62 60.72 61.06 60.82 C 66.24 59.44 69.69 54.77 70.13 49.52 Z" />
</g>
<g id="#534bdeff">
<path fill="#534bde" opacity="1.00" d=" M 88.44 44.43 C 85.32 42.76 87.76 37.89 90.97 39.07 C 91.33 39.41 92.03 40.09 92.38 40.43 C 90.81 41.48 89.52 42.89 88.44 44.43 Z" />
<path fill="#534bde" opacity="1.00" d=" M 96.97 41.06 C 98.40 41.31 99.82 41.57 101.25 41.83 C 103.28 52.47 101.07 63.74 95.36 72.93 C 94.02 72.55 92.67 72.18 91.33 71.82 C 97.46 62.95 99.32 51.52 96.97 41.06 Z" />
<path fill="#534bde" opacity="1.00" d=" M 16.11 45.19 L 16.43 45.33 C 17.66 45.84 18.88 46.36 20.11 46.87 C 19.67 54.13 20.94 61.57 24.41 68.01 C 23.14 68.48 21.87 68.95 20.60 69.42 C 16.93 61.92 15.51 53.51 16.11 45.19 Z" />
<path fill="#534bde" opacity="1.00" d=" M 47.96 89.17 C 49.82 87.32 51.67 85.47 53.53 83.63 C 53.94 84.84 54.00 86.04 53.71 87.24 C 52.25 88.83 50.15 90.65 47.96 89.17 Z" />
</g>
<g id="#253acbff">
<path fill="#253acb" opacity="1.00" d=" M 88.44 44.43 C 89.52 42.89 90.81 41.48 92.38 40.43 L 93.02 39.96 C 94.03 43.17 91.21 46.00 87.99 45.02 L 88.44 44.43 Z" />
<path fill="#253acb" opacity="1.00" d=" M 24.41 68.01 C 28.85 76.72 36.76 82.99 45.55 86.93 C 46.36 87.67 47.16 88.42 47.96 89.17 C 50.15 90.65 52.25 88.83 53.71 87.24 L 53.26 88.83 C 58.16 88.95 63.15 89.18 67.95 87.95 C 77.43 85.78 85.83 79.79 91.33 71.82 C 92.67 72.18 94.02 72.55 95.36 72.93 C 88.07 84.67 74.80 92.42 60.97 92.88 C 55.29 93.43 49.95 91.11 44.41 90.30 C 34.11 86.91 25.56 79.00 20.60 69.42 C 21.87 68.95 23.14 68.48 24.41 68.01 Z" />
</g>
</svg>
