<?xml version="1.0" encoding="UTF-8" ?>
<!DOCTYPE svg PUBLIC "-//W3C//DTD SVG 1.1//EN" "http://www.w3.org/Graphics/SVG/1.1/DTD/svg11.dtd">
<svg width="117px" height="140px" viewBox="0 0 117 140" version="1.1" xmlns="http://www.w3.org/2000/svg">
<g id="#181818ff">
<path fill="#181818" opacity="1.00" d=" M 0.00 0.00 L 117.00 0.00 L 117.00 140.00 L 0.00 140.00 L 0.00 0.00 M 57.00 8.92 C 56.96 17.61 57.04 26.29 56.98 34.98 C 50.42 36.07 45.05 41.40 44.01 47.99 C 35.32 48.07 26.61 47.87 17.92 48.08 C 15.43 47.85 15.44 52.19 17.96 51.92 C 26.65 52.13 35.35 51.92 44.04 52.01 C 45.13 58.56 50.46 63.93 57.05 64.91 C 57.31 74.14 56.88 83.38 57.45 92.59 C 58.48 92.60 59.51 92.60 60.54 92.61 C 61.13 83.40 60.69 74.16 60.94 64.94 C 67.52 63.91 72.87 58.58 73.96 52.02 C 82.66 51.89 91.36 52.15 100.05 51.92 C 102.10 52.09 102.73 48.97 100.86 48.18 C 91.90 47.58 82.90 48.41 73.93 48.01 C 72.95 41.41 67.59 36.06 61.02 34.98 C 61.00 26.98 60.97 18.99 61.03 11.00 C 60.96 9.59 61.39 7.80 59.86 7.01 C 58.57 6.60 56.82 7.39 57.00 8.92 M 37.37 20.53 C 35.88 21.29 35.65 23.99 36.96 24.88 C 39.19 28.27 44.27 23.16 40.89 21.00 L 41.15 20.73 C 39.93 20.50 38.52 19.68 37.37 20.53 M 77.23 36.29 C 74.28 37.53 74.12 42.25 77.14 43.50 C 79.57 45.04 83.09 42.80 82.98 40.00 C 83.19 37.11 79.76 34.95 77.23 36.29 M 77.08 56.00 C 74.97 61.52 70.51 65.97 65.00 68.08 C 65.00 76.25 65.00 84.43 65.00 92.60 C 83.50 90.16 99.14 74.49 101.61 56.01 C 93.43 55.99 85.25 56.00 77.08 56.00 M 34.24 74.31 C 30.19 75.43 28.55 81.26 31.89 84.03 C 34.78 87.34 41.03 85.32 41.56 81.02 C 42.72 76.91 38.19 72.97 34.24 74.31 Z" />
<path fill="#181818" opacity="1.00" d=" M 55.44 38.60 C 62.37 36.15 70.44 41.63 70.91 48.91 C 71.75 55.64 65.83 62.22 59.02 61.96 C 52.19 62.25 46.24 55.65 47.09 48.90 C 47.50 44.21 50.93 39.97 55.44 38.60 Z" />
</g>
<g id="#574cdfff">
<path fill="#574cdf" opacity="1.00" d=" M 57.00 8.92 C 56.82 7.39 58.57 6.60 59.86 7.01 C 61.39 7.80 60.96 9.59 61.03 11.00 C 60.97 18.99 61.00 26.98 61.02 34.98 C 67.59 36.06 72.95 41.41 73.93 48.01 C 82.90 48.41 91.90 47.58 100.86 48.18 C 102.73 48.97 102.10 52.09 100.05 51.92 C 91.36 52.15 82.66 51.89 73.96 52.02 C 72.87 58.58 67.52 63.91 60.94 64.94 C 60.69 74.16 61.13 83.40 60.54 92.61 C 59.51 92.60 58.48 92.60 57.45 92.59 C 56.88 83.38 57.31 74.14 57.05 64.91 C 50.46 63.93 45.13 58.56 44.04 52.01 C 35.35 51.92 26.65 52.13 17.96 51.92 C 15.44 52.19 15.43 47.85 17.92 48.08 C 26.61 47.87 35.32 48.07 44.01 47.99 C 45.05 41.40 50.42 36.07 56.98 34.98 C 57.04 26.29 56.96 17.61 57.00 8.92 M 55.44 38.60 C 50.93 39.97 47.50 44.21 47.09 48.90 C 46.24 55.65 52.19 62.25 59.02 61.96 C 65.83 62.22 71.75 55.64 70.91 48.91 C 70.44 41.63 62.37 36.15 55.44 38.60 Z" />
<path fill="#574cdf" opacity="1.00" d=" M 36.96 24.88 C 38.35 23.67 39.64 22.35 40.89 21.00 C 44.27 23.16 39.19 28.27 36.96 24.88 Z" />
<path fill="#574cdf" opacity="1.00" d=" M 77.23 36.29 C 79.76 34.95 83.19 37.11 82.98 40.00 C 83.09 42.80 79.57 45.04 77.14 43.50 C 74.12 42.25 74.28 37.53 77.23 36.29 Z" />
</g>
<g id="#f7b35fff">
<path fill="#f7b35f" opacity="1.00" d=" M 37.37 20.53 C 38.52 19.68 39.93 20.50 41.15 20.73 L 40.89 21.00 C 39.64 22.35 38.35 23.67 36.96 24.88 C 35.65 23.99 35.88 21.29 37.37 20.53 Z" />
<path fill="#f7b35f" opacity="1.00" d=" M 77.08 56.00 C 85.25 56.00 93.43 55.99 101.61 56.01 C 99.14 74.49 83.50 90.16 65.00 92.60 C 65.00 84.43 65.00 76.25 65.00 68.08 C 70.51 65.97 74.97 61.52 77.08 56.00 Z" />
<path fill="#f7b35f" opacity="1.00" d=" M 34.24 74.31 C 38.19 72.97 42.72 76.91 41.56 81.02 C 41.03 85.32 34.78 87.34 31.89 84.03 C 28.55 81.26 30.19 75.43 34.24 74.31 Z" />
</g>
</svg>
