<?xml version="1.0" encoding="UTF-8" ?>
<!DOCTYPE svg PUBLIC "-//W3C//DTD SVG 1.1//EN" "http://www.w3.org/Graphics/SVG/1.1/DTD/svg11.dtd">
<svg width="117px" height="140px" viewBox="0 0 117 140" version="1.1" xmlns="http://www.w3.org/2000/svg">
<g id="#181818ff">
<path fill="#181818" opacity="1.00" d=" M 0.00 0.00 L 117.00 0.00 L 117.00 140.00 L 0.00 140.00 L 0.00 0.00 M 61.13 21.26 C 57.04 22.52 55.46 28.28 58.81 31.17 C 61.93 34.65 68.18 32.47 68.83 27.97 C 69.77 23.81 65.12 19.72 61.13 21.26 M 33.00 46.22 C 31.43 47.57 30.02 49.11 28.58 50.60 C 27.32 51.79 28.41 53.86 29.74 54.39 C 30.91 55.86 32.30 57.13 33.66 58.42 C 35.32 59.99 36.68 62.10 38.80 63.04 C 37.21 63.94 35.69 67.12 38.08 67.91 L 37.84 68.14 C 40.49 71.12 45.08 66.41 42.16 63.78 L 40.64 62.98 C 41.69 61.42 41.26 59.49 41.27 57.74 C 41.38 56.22 41.37 54.70 41.30 53.18 C 41.32 50.90 41.38 48.62 41.29 46.34 C 41.24 44.38 42.18 40.34 38.93 40.71 C 36.53 41.94 35.04 44.47 33.00 46.22 M 76.05 49.69 C 75.92 51.50 76.05 53.31 76.04 55.13 C 75.94 57.41 75.94 59.72 76.16 62.00 C 76.68 63.41 78.58 63.76 79.57 62.55 C 82.02 59.98 84.72 57.64 87.07 54.98 C 88.03 54.16 89.03 53.28 89.43 52.04 C 89.07 50.90 88.35 49.82 87.29 49.24 C 84.14 46.43 81.68 42.53 77.94 40.57 C 74.23 41.88 76.72 46.76 76.05 49.69 M 45.35 49.50 C 43.30 50.52 43.60 54.38 46.02 54.55 L 45.54 55.01 C 48.25 55.84 50.84 53.27 50.01 50.55 L 49.61 50.96 C 49.33 49.14 46.71 48.34 45.35 49.50 M 53.30 49.53 C 51.31 50.64 51.63 54.16 53.95 54.64 L 53.59 55.00 C 56.23 55.83 58.82 53.30 58.00 50.64 L 57.64 51.00 C 57.39 49.14 54.66 48.32 53.30 49.53 M 61.30 49.53 C 59.30 50.60 59.63 54.38 62.02 54.56 L 61.55 55.01 C 64.26 55.84 66.84 53.27 66.01 50.55 L 65.62 50.98 C 65.35 49.12 62.66 48.32 61.30 49.53 M 68.50 50.35 C 67.27 51.81 68.26 53.88 69.71 54.75 C 72.25 56.12 74.88 53.04 74.01 50.54 L 73.66 50.90 C 73.02 48.62 69.62 48.32 68.50 50.35 M 76.29 71.31 C 74.11 72.23 73.06 75.40 74.77 77.22 C 76.41 79.89 81.04 78.97 81.65 75.95 C 82.80 72.91 79.09 69.74 76.29 71.31 Z" />
<path fill="#181818" opacity="1.00" d=" M 32.92 51.99 C 34.33 50.81 35.57 48.53 37.26 48.16 C 37.32 49.86 37.31 51.57 37.33 53.27 C 37.31 54.31 37.28 55.36 37.24 56.40 C 36.22 55.42 35.24 54.40 34.23 53.41 C 33.90 53.06 33.25 52.34 32.92 51.99 Z" />
</g>
<g id="#60dc48ff">
<path fill="#60dc48" opacity="1.00" d=" M 61.13 21.26 C 65.12 19.72 69.77 23.81 68.83 27.97 C 68.18 32.47 61.93 34.65 58.81 31.17 C 55.46 28.28 57.04 22.52 61.13 21.26 Z" />
</g>
<g id="#8860f0ff">
<path fill="#8860f0" opacity="1.00" d=" M 33.00 46.22 C 35.04 44.47 36.53 41.94 38.93 40.71 C 42.18 40.34 41.24 44.38 41.29 46.34 C 38.53 46.59 35.75 46.67 33.00 46.22 Z" />
</g>
<g id="#8058f0ff">
<path fill="#8058f0" opacity="1.00" d=" M 76.05 49.69 C 76.72 46.76 74.23 41.88 77.94 40.57 C 81.68 42.53 84.14 46.43 87.29 49.24 C 85.74 49.46 84.19 49.73 82.64 50.01 C 81.75 49.13 80.85 48.26 79.93 47.41 C 79.94 47.98 79.96 49.11 79.97 49.68 C 78.66 49.67 77.35 49.67 76.05 49.69 Z" />
</g>
<g id="#6050e0ff">
<path fill="#6050e0" opacity="1.00" d=" M 28.58 50.60 C 30.02 49.11 31.43 47.57 33.00 46.22 C 35.75 46.67 38.53 46.59 41.29 46.34 C 41.38 48.62 41.32 50.90 41.30 53.18 C 40.31 53.20 38.32 53.25 37.33 53.27 C 37.31 51.57 37.32 49.86 37.26 48.16 C 35.57 48.53 34.33 50.81 32.92 51.99 C 33.25 52.34 33.90 53.06 34.23 53.41 C 32.73 53.73 31.23 54.06 29.74 54.39 C 28.41 53.86 27.32 51.79 28.58 50.60 Z" />
</g>
<g id="#1c1b22ff">
<path fill="#1c1b22" opacity="1.00" d=" M 79.93 47.41 C 80.85 48.26 81.75 49.13 82.64 50.01 C 83.09 50.51 83.99 51.53 84.44 52.04 C 83.92 52.58 82.88 53.68 82.36 54.22 C 81.68 54.87 81.02 55.53 80.35 56.18 L 79.90 55.45 C 79.99 53.53 80.04 51.60 79.97 49.68 C 79.96 49.11 79.94 47.98 79.93 47.41 Z" />
</g>
<g id="#f8b860ff">
<path fill="#f8b860" opacity="1.00" d=" M 45.35 49.50 C 46.71 48.34 49.33 49.14 49.61 50.96 C 48.47 52.21 47.28 53.41 46.02 54.55 C 43.60 54.38 43.30 50.52 45.35 49.50 Z" />
<path fill="#f8b860" opacity="1.00" d=" M 53.30 49.53 C 54.66 48.32 57.39 49.14 57.64 51.00 C 56.43 52.23 55.20 53.44 53.95 54.64 C 51.63 54.16 51.31 50.64 53.30 49.53 Z" />
<path fill="#f8b860" opacity="1.00" d=" M 61.30 49.53 C 62.66 48.32 65.35 49.12 65.62 50.98 C 64.49 52.24 63.29 53.44 62.02 54.56 C 59.63 54.38 59.30 50.60 61.30 49.53 Z" />
<path fill="#f8b860" opacity="1.00" d=" M 68.50 50.35 C 69.62 48.32 73.02 48.62 73.66 50.90 C 72.42 52.26 71.08 53.53 69.71 54.75 C 68.26 53.88 67.27 51.81 68.50 50.35 Z" />
</g>
<g id="#584ce0ff">
<path fill="#584ce0" opacity="1.00" d=" M 87.29 49.24 C 88.35 49.82 89.07 50.90 89.43 52.04 C 89.03 53.28 88.03 54.16 87.07 54.98 C 85.50 54.74 83.93 54.48 82.36 54.22 C 82.88 53.68 83.92 52.58 84.44 52.04 C 83.99 51.53 83.09 50.51 82.64 50.01 C 84.19 49.73 85.74 49.46 87.29 49.24 Z" />
<path fill="#584ce0" opacity="1.00" d=" M 76.05 49.69 C 77.35 49.67 78.66 49.67 79.97 49.68 C 80.04 51.60 79.99 53.53 79.90 55.45 C 78.61 55.34 77.33 55.23 76.04 55.13 C 76.05 53.31 75.92 51.50 76.05 49.69 Z" />
</g>
<g id="#da823cff">
<path fill="#da823c" opacity="1.00" d=" M 49.61 50.96 L 50.01 50.55 C 50.84 53.27 48.25 55.84 45.54 55.01 L 46.02 54.55 C 47.28 53.41 48.47 52.21 49.61 50.96 Z" />
<path fill="#da823c" opacity="1.00" d=" M 57.64 51.00 L 58.00 50.64 C 58.82 53.30 56.23 55.83 53.59 55.00 L 53.95 54.64 C 55.20 53.44 56.43 52.23 57.64 51.00 Z" />
<path fill="#da823c" opacity="1.00" d=" M 65.62 50.98 L 66.01 50.55 C 66.84 53.27 64.26 55.84 61.55 55.01 L 62.02 54.56 C 63.29 53.44 64.49 52.24 65.62 50.98 Z" />
<path fill="#da823c" opacity="1.00" d=" M 73.66 50.90 L 74.01 50.54 C 74.88 53.04 72.25 56.12 69.71 54.75 C 71.08 53.53 72.42 52.26 73.66 50.90 Z" />
</g>
<g id="#4044d8ff">
<path fill="#4044d8" opacity="1.00" d=" M 37.33 53.27 C 38.32 53.25 40.31 53.20 41.30 53.18 C 41.37 54.70 41.38 56.22 41.27 57.74 C 38.73 57.92 36.19 58.18 33.66 58.42 C 32.30 57.13 30.91 55.86 29.74 54.39 C 31.23 54.06 32.73 53.73 34.23 53.41 C 35.24 54.40 36.22 55.42 37.24 56.40 C 37.28 55.36 37.31 54.31 37.33 53.27 Z" />
</g>
<g id="#3040d0ff">
<path fill="#3040d0" opacity="1.00" d=" M 80.35 56.18 C 81.02 55.53 81.68 54.87 82.36 54.22 C 83.93 54.48 85.50 54.74 87.07 54.98 C 84.72 57.64 82.02 59.98 79.57 62.55 C 78.58 63.76 76.68 63.41 76.16 62.00 C 75.94 59.72 75.94 57.41 76.04 55.13 C 77.33 55.23 78.61 55.34 79.90 55.45 L 80.35 56.18 Z" />
</g>
<g id="#283cd0ff">
<path fill="#283cd0" opacity="1.00" d=" M 33.66 58.42 C 36.19 58.18 38.73 57.92 41.27 57.74 C 41.26 59.49 41.69 61.42 40.64 62.98 C 40.18 62.99 39.26 63.02 38.80 63.04 C 36.68 62.10 35.32 59.99 33.66 58.42 Z" />
</g>
<g id="#e0b988ff">
<path fill="#e0b988" opacity="1.00" d=" M 38.80 63.04 C 39.26 63.02 40.18 62.99 40.64 62.98 L 42.16 63.78 C 40.88 65.23 39.52 66.62 38.08 67.91 C 35.69 67.12 37.21 63.94 38.80 63.04 Z" />
</g>
<g id="#da9192ff">
<path fill="#da9192" opacity="1.00" d=" M 42.16 63.78 C 45.08 66.41 40.49 71.12 37.84 68.14 L 38.08 67.91 C 39.52 66.62 40.88 65.23 42.16 63.78 Z" />
</g>
<g id="#3078d0ff">
<path fill="#3078d0" opacity="1.00" d=" M 76.29 71.31 C 79.09 69.74 82.80 72.91 81.65 75.95 C 81.04 78.97 76.41 79.89 74.77 77.22 C 73.06 75.40 74.11 72.23 76.29 71.31 Z" />
</g>
</svg>
