<?xml version="1.0" encoding="UTF-8" ?>
<!DOCTYPE svg PUBLIC "-//W3C//DTD SVG 1.1//EN" "http://www.w3.org/Graphics/SVG/1.1/DTD/svg11.dtd">
<svg width="117px" height="140px" viewBox="0 0 117 140" version="1.1" xmlns="http://www.w3.org/2000/svg">
<g id="#181818ff">
<path fill="#181818" opacity="1.00" d=" M 0.00 0.00 L 117.00 0.00 L 117.00 140.00 L 0.00 140.00 L 0.00 0.00 M 24.20 13.10 C 23.92 13.37 23.37 13.93 23.10 14.20 C 22.75 22.75 23.39 31.31 23.10 39.86 C 21.27 40.17 19.59 40.94 18.32 42.32 C 18.34 43.43 18.35 44.55 18.35 45.66 C 19.66 47.03 21.38 47.79 23.23 48.14 C 23.54 52.88 22.34 57.83 23.55 62.45 C 26.57 63.40 29.87 62.75 32.99 62.98 C 32.98 64.32 32.98 65.67 32.99 67.01 C 36.95 67.03 40.92 66.96 44.88 66.89 C 44.91 65.58 44.93 64.28 44.95 62.98 C 54.63 62.87 64.32 62.89 74.00 62.98 C 73.99 64.97 73.99 66.97 73.99 68.96 C 72.01 68.98 70.04 69.01 68.07 69.07 C 67.93 73.00 67.94 76.94 68.09 80.87 C 70.27 81.01 72.50 80.81 74.63 81.37 C 76.48 83.00 78.13 84.84 80.00 86.45 C 81.86 84.82 83.50 82.96 85.35 81.33 C 87.43 80.67 89.66 80.92 91.82 80.78 C 91.95 76.91 91.98 73.03 91.86 69.16 C 89.91 69.08 87.96 69.02 86.02 68.96 C 86.01 66.97 86.00 64.98 86.00 62.98 C 88.79 62.78 91.76 63.37 94.44 62.43 C 95.56 55.39 94.88 48.02 94.88 40.85 C 94.61 31.97 95.22 23.08 94.91 14.20 C 94.63 13.92 94.08 13.37 93.80 13.09 C 89.13 12.79 84.45 13.09 79.77 13.00 C 78.60 12.96 77.44 13.00 76.28 13.12 C 58.93 12.90 41.55 12.93 24.20 13.10 M 58.44 72.38 C 56.85 73.15 57.12 75.16 57.41 76.57 C 58.70 78.69 63.34 78.02 62.73 75.01 C 63.27 72.47 60.34 71.69 58.44 72.38 Z" />
<path fill="#181818" opacity="1.00" d=" M 27.02 17.02 C 41.99 17.09 56.97 16.82 71.94 17.17 C 71.29 21.22 74.45 25.73 78.85 24.96 C 82.70 24.51 84.28 20.51 84.19 17.09 C 86.45 17.04 88.72 17.01 90.98 16.99 C 91.00 24.96 91.31 32.93 91.10 40.90 C 90.86 46.94 91.06 52.99 91.03 59.04 C 69.69 59.09 48.34 59.11 27.01 59.03 C 26.88 54.02 26.81 49.01 26.85 44.00 C 26.69 35.01 26.98 26.01 27.02 17.02 M 53.63 32.10 C 53.00 34.40 55.13 34.31 56.75 34.42 C 56.86 37.84 56.86 41.26 56.77 44.67 C 55.55 44.69 54.33 44.73 53.11 44.79 C 53.09 45.58 53.06 47.15 53.04 47.94 C 56.75 47.92 60.45 47.87 64.16 47.87 C 64.15 47.12 64.14 45.62 64.13 44.86 C 63.40 44.81 61.94 44.72 61.21 44.67 C 61.06 39.74 61.32 34.81 61.04 29.88 C 58.49 30.18 55.69 30.41 53.63 32.10 M 33.30 44.27 C 29.14 45.37 27.54 51.27 30.84 54.16 C 33.93 57.74 40.37 55.47 40.88 50.88 C 41.72 46.81 37.23 42.84 33.30 44.27 Z" />
<path fill="#181818" opacity="1.00" d=" M 34.32 47.40 C 36.70 46.55 39.06 50.22 36.87 51.84 C 35.39 53.71 32.21 52.19 32.30 50.00 C 32.16 48.74 33.28 47.83 34.32 47.40 Z" />
</g>
<g id="#8a5ff3ff">
<path fill="#8a5ff3" opacity="1.00" d=" M 24.20 13.10 C 41.55 12.93 58.93 12.90 76.28 13.12 C 74.81 14.44 73.40 15.83 71.94 17.17 C 56.97 16.82 41.99 17.09 27.02 17.02 C 26.98 26.01 26.69 35.01 26.85 44.00 L 26.36 43.91 C 25.27 42.56 24.21 41.18 23.10 39.86 C 23.39 31.31 22.75 22.75 23.10 14.20 C 23.37 13.93 23.92 13.37 24.20 13.10 Z" />
<path fill="#8a5ff3" opacity="1.00" d=" M 79.77 13.00 C 84.45 13.09 89.13 12.79 93.80 13.09 C 94.08 13.37 94.63 13.92 94.91 14.20 C 95.22 23.08 94.61 31.97 94.88 40.85 C 93.62 40.86 92.36 40.88 91.10 40.90 C 91.31 32.93 91.00 24.96 90.98 16.99 C 88.72 17.01 86.45 17.04 84.19 17.09 C 82.68 15.76 81.21 14.40 79.77 13.00 Z" />
</g>
<g id="#273ad2ff">
<path fill="#273ad2" opacity="1.00" d=" M 76.28 13.12 C 77.44 13.00 78.60 12.96 79.77 13.00 C 81.21 14.40 82.68 15.76 84.19 17.09 C 84.28 20.51 82.70 24.51 78.85 24.96 C 74.45 25.73 71.29 21.22 71.94 17.17 C 73.40 15.83 74.81 14.44 76.28 13.12 Z" />
<path fill="#273ad2" opacity="1.00" d=" M 91.10 40.90 C 92.36 40.88 93.62 40.86 94.88 40.85 C 94.88 48.02 95.56 55.39 94.44 62.43 C 91.76 63.37 88.79 62.78 86.00 62.98 C 82.00 63.01 78.00 63.02 74.00 62.98 C 64.32 62.89 54.63 62.87 44.95 62.98 C 40.96 63.02 36.98 63.01 32.99 62.98 C 29.87 62.75 26.57 63.40 23.55 62.45 C 22.34 57.83 23.54 52.88 23.23 48.14 C 24.32 46.76 25.35 45.34 26.36 43.91 L 26.85 44.00 C 26.81 49.01 26.88 54.02 27.01 59.03 C 48.34 59.11 69.69 59.09 91.03 59.04 C 91.06 52.99 90.86 46.94 91.10 40.90 Z" />
<path fill="#273ad2" opacity="1.00" d=" M 33.30 44.27 C 37.23 42.84 41.72 46.81 40.88 50.88 C 40.37 55.47 33.93 57.74 30.84 54.16 C 27.54 51.27 29.14 45.37 33.30 44.27 M 34.32 47.40 C 33.28 47.83 32.16 48.74 32.30 50.00 C 32.21 52.19 35.39 53.71 36.87 51.84 C 39.06 50.22 36.70 46.55 34.32 47.40 Z" />
</g>
<g id="#f4b058ff">
<path fill="#f4b058" opacity="1.00" d=" M 53.63 32.10 C 55.69 30.41 58.49 30.18 61.04 29.88 C 61.32 34.81 61.06 39.74 61.21 44.67 C 61.94 44.72 63.40 44.81 64.13 44.86 C 64.14 45.62 64.15 47.12 64.16 47.87 C 60.45 47.87 56.75 47.92 53.04 47.94 C 53.06 47.15 53.09 45.58 53.11 44.79 C 54.33 44.73 55.55 44.69 56.77 44.67 C 56.86 41.26 56.86 37.84 56.75 34.42 C 55.13 34.31 53.00 34.40 53.63 32.10 Z" />
<path fill="#f4b058" opacity="1.00" d=" M 18.32 42.32 C 19.59 40.94 21.27 40.17 23.10 39.86 C 24.21 41.18 25.27 42.56 26.36 43.91 C 25.35 45.34 24.32 46.76 23.23 48.14 C 21.38 47.79 19.66 47.03 18.35 45.66 C 18.35 44.55 18.34 43.43 18.32 42.32 Z" />
<path fill="#f4b058" opacity="1.00" d=" M 32.99 62.98 C 36.98 63.01 40.96 63.02 44.95 62.98 C 44.93 64.28 44.91 65.58 44.88 66.89 C 40.92 66.96 36.95 67.03 32.99 67.01 C 32.98 65.67 32.98 64.32 32.99 62.98 Z" />
<path fill="#f4b058" opacity="1.00" d=" M 74.00 62.98 C 78.00 63.02 82.00 63.01 86.00 62.98 C 86.00 64.98 86.01 66.97 86.02 68.96 C 87.96 69.02 89.91 69.08 91.86 69.16 C 91.98 73.03 91.95 76.91 91.82 80.78 C 89.66 80.92 87.43 80.67 85.35 81.33 C 83.50 82.96 81.86 84.82 80.00 86.45 C 78.13 84.84 76.48 83.00 74.63 81.37 C 72.50 80.81 70.27 81.01 68.09 80.87 C 67.94 76.94 67.93 73.00 68.07 69.07 C 70.04 69.01 72.01 68.98 73.99 68.96 C 73.99 66.97 73.99 64.97 74.00 62.98 Z" />
<path fill="#f4b058" opacity="1.00" d=" M 58.44 72.38 C 60.34 71.69 63.27 72.47 62.73 75.01 C 63.34 78.02 58.70 78.69 57.41 76.57 C 57.12 75.16 56.85 73.15 58.44 72.38 Z" />
</g>
</svg>
