<?xml version="1.0" encoding="UTF-8" ?>
<!DOCTYPE svg PUBLIC "-//W3C//DTD SVG 1.1//EN" "http://www.w3.org/Graphics/SVG/1.1/DTD/svg11.dtd">
<svg width="45px" height="45px" viewBox="0 0 45 45" version="1.1" xmlns="http://www.w3.org/2000/svg">
<g id="#181818ff">
<path fill="#181818" opacity="1.00" d=" M 0.00 0.00 L 45.00 0.00 L 45.00 45.00 L 0.00 45.00 L 0.00 0.00 M 15.07 8.03 C 15.07 8.76 15.07 10.22 15.08 10.95 C 20.45 10.86 25.80 10.37 31.15 9.88 C 31.00 9.45 30.70 8.59 30.54 8.16 C 25.40 7.76 20.22 8.06 15.07 8.03 M 14.86 13.07 C 15.00 13.51 15.27 14.39 15.41 14.83 C 20.47 14.90 25.56 14.48 30.58 13.84 C 30.71 13.41 30.98 12.54 31.11 12.11 C 25.69 12.18 20.27 12.62 14.86 13.07 M 14.81 17.10 C 14.98 17.54 15.30 18.42 15.46 18.87 C 20.50 18.82 25.57 18.50 30.56 17.84 C 30.70 17.41 30.99 16.56 31.13 16.13 C 25.68 16.20 20.24 16.61 14.81 17.10 M 15.19 21.00 C 15.21 21.49 15.23 22.48 15.25 22.98 C 13.21 22.99 11.15 22.87 9.13 23.13 C 7.01 24.96 8.06 28.35 8.28 30.79 C 12.83 33.78 18.13 35.47 22.98 37.96 C 27.81 35.47 33.08 33.74 37.64 30.77 C 38.03 28.43 38.39 25.79 37.41 23.57 C 35.33 22.63 32.91 23.16 30.69 23.00 C 30.76 22.28 30.89 20.84 30.96 20.12 C 25.69 20.20 20.45 20.67 15.19 21.00 Z" />
<path fill="#181818" opacity="1.00" d=" M 19.58 26.93 C 20.72 25.16 23.54 24.07 25.04 26.05 C 26.49 28.40 24.14 30.70 22.88 32.49 C 24.54 32.07 25.73 32.54 26.47 33.88 C 24.16 33.99 21.86 34.02 19.55 34.01 C 21.01 31.56 24.53 29.55 23.41 26.28 C 22.45 26.44 20.54 26.77 19.58 26.93 Z" />
</g>
<g id="#f8a14fff">
<path fill="#f8a14f" opacity="1.00" d=" M 15.07 8.03 C 20.22 8.06 25.40 7.76 30.54 8.16 C 30.70 8.59 31.00 9.45 31.15 9.88 C 25.80 10.37 20.45 10.86 15.08 10.95 C 15.07 10.22 15.07 8.76 15.07 8.03 Z" />
<path fill="#f8a14f" opacity="1.00" d=" M 14.86 13.07 C 20.27 12.62 25.69 12.18 31.11 12.11 C 30.98 12.54 30.71 13.41 30.58 13.84 C 25.56 14.48 20.47 14.90 15.41 14.83 C 15.27 14.39 15.00 13.51 14.86 13.07 Z" />
<path fill="#f8a14f" opacity="1.00" d=" M 14.81 17.10 C 20.24 16.61 25.68 16.20 31.13 16.13 C 30.99 16.56 30.70 17.41 30.56 17.84 C 25.57 18.50 20.50 18.82 15.46 18.87 C 15.30 18.42 14.98 17.54 14.81 17.10 Z" />
<path fill="#f8a14f" opacity="1.00" d=" M 15.19 21.00 C 20.45 20.67 25.69 20.20 30.96 20.12 C 30.89 20.84 30.76 22.28 30.69 23.00 C 32.91 23.16 35.33 22.63 37.41 23.57 C 38.39 25.79 38.03 28.43 37.64 30.77 C 33.08 33.74 27.81 35.47 22.98 37.96 C 18.13 35.47 12.83 33.78 8.28 30.79 C 8.06 28.35 7.01 24.96 9.13 23.13 C 11.15 22.87 13.21 22.99 15.25 22.98 C 15.23 22.48 15.21 21.49 15.19 21.00 M 19.58 26.93 C 20.54 26.77 22.45 26.44 23.41 26.28 C 24.53 29.55 21.01 31.56 19.55 34.01 C 21.86 34.02 24.16 33.99 26.47 33.88 C 25.73 32.54 24.54 32.07 22.88 32.49 C 24.14 30.70 26.49 28.40 25.04 26.05 C 23.54 24.07 20.72 25.16 19.58 26.93 Z" />
</g>
</svg>
