<?xml version="1.0" encoding="UTF-8" ?>
<!DOCTYPE svg PUBLIC "-//W3C//DTD SVG 1.1//EN" "http://www.w3.org/Graphics/SVG/1.1/DTD/svg11.dtd">
<svg width="117px" height="92px" viewBox="0 0 117 92" version="1.1" xmlns="http://www.w3.org/2000/svg">
<g id="#181818ff">
<path fill="#181818" opacity="1.00" d=" M 0.00 0.00 L 117.00 0.00 L 117.00 92.00 L 0.00 92.00 L 0.00 0.00 M 51.14 10.09 C 40.12 21.10 29.09 32.10 18.15 43.19 C 16.44 44.91 16.82 47.84 18.64 49.33 C 29.76 60.25 40.72 71.32 51.87 82.21 C 54.20 83.76 57.95 82.06 57.75 79.10 C 57.91 72.72 57.81 66.33 57.93 59.94 C 70.98 59.86 84.03 59.98 97.08 59.88 C 99.16 59.97 100.90 58.11 100.92 56.08 C 101.03 49.35 100.99 42.62 101.00 35.89 C 101.05 33.83 99.13 31.92 97.07 32.00 C 84.05 31.99 71.04 32.02 58.02 31.98 C 57.97 25.32 58.02 18.65 58.00 11.99 C 57.24 9.08 53.26 7.85 51.14 10.09 Z" />
</g>
<g id="#554adaff">
<path fill="#554ada" opacity="1.00" d=" M 51.14 10.09 C 53.26 7.85 57.24 9.08 58.00 11.99 C 58.02 18.65 57.97 25.32 58.02 31.98 C 71.04 32.02 84.05 31.99 97.07 32.00 C 99.13 31.92 101.05 33.83 101.00 35.89 C 100.99 42.62 101.03 49.35 100.92 56.08 C 100.90 58.11 99.16 59.97 97.08 59.88 C 84.03 59.98 70.98 59.86 57.93 59.94 C 57.81 66.33 57.91 72.72 57.75 79.10 C 57.95 82.06 54.20 83.76 51.87 82.21 C 40.72 71.32 29.76 60.25 18.64 49.33 C 16.82 47.84 16.44 44.91 18.15 43.19 C 29.09 32.10 40.12 21.10 51.14 10.09 Z" />
</g>
</svg>
