<?xml version="1.0" encoding="UTF-8" ?>
<!DOCTYPE svg PUBLIC "-//W3C//DTD SVG 1.1//EN" "http://www.w3.org/Graphics/SVG/1.1/DTD/svg11.dtd">
<svg width="117px" height="140px" viewBox="0 0 117 140" version="1.1" xmlns="http://www.w3.org/2000/svg">
<g id="#181818ff">
<path fill="#181818" opacity="1.00" d=" M 0.00 0.00 L 117.00 0.00 L 117.00 140.00 L 0.00 140.00 L 0.00 0.00 M 44.10 29.98 C 42.34 34.03 39.94 37.80 36.66 40.78 C 38.25 41.83 39.82 42.88 41.40 43.94 C 43.31 41.92 44.65 39.24 47.17 37.90 C 48.20 39.86 49.16 41.86 50.12 43.87 C 51.74 43.17 53.36 42.47 54.98 41.78 C 54.43 40.61 53.87 39.44 53.31 38.28 C 55.20 38.28 57.10 38.25 58.99 38.26 C 59.00 36.71 59.00 35.16 59.00 33.61 C 55.68 33.56 52.36 33.55 49.05 33.60 C 49.09 33.04 49.18 31.91 49.23 31.35 C 47.52 30.89 45.81 30.45 44.10 29.98 M 57.65 40.25 C 59.27 41.24 60.85 42.31 62.51 43.27 C 63.73 41.60 64.82 39.82 66.21 38.27 C 69.13 37.68 69.70 41.66 71.07 43.48 C 64.71 43.54 58.34 43.45 51.98 43.55 C 52.00 45.25 52.03 46.95 52.05 48.64 C 59.10 48.66 66.15 48.63 73.21 48.66 C 73.27 55.84 73.40 63.02 73.24 70.20 C 70.50 70.31 67.76 70.30 65.02 70.17 C 65.62 71.73 66.19 73.30 66.77 74.86 C 70.28 74.60 74.23 75.37 77.34 73.32 C 78.97 72.08 78.65 69.84 78.80 68.05 C 78.81 59.88 78.92 51.70 78.90 43.53 C 76.54 43.51 74.19 43.52 71.83 43.52 C 73.25 42.86 74.66 42.19 76.08 41.53 C 75.49 40.43 74.90 39.32 74.31 38.22 C 76.38 38.24 78.46 38.24 80.54 38.25 C 80.54 36.69 80.53 35.13 80.54 33.58 C 76.51 33.57 72.49 33.56 68.46 33.61 C 68.54 33.02 68.70 31.85 68.78 31.26 C 67.05 30.89 65.32 30.52 63.59 30.15 C 62.27 33.86 60.34 37.35 57.65 40.25 M 42.12 44.81 C 43.75 46.75 45.30 48.76 46.75 50.84 C 48.27 49.84 49.79 48.82 51.31 47.82 C 49.82 45.83 48.21 43.93 46.54 42.09 C 45.07 43.00 43.59 43.90 42.12 44.81 M 39.36 49.64 C 39.43 58.15 39.38 66.65 39.48 75.16 C 41.25 75.16 43.01 75.16 44.77 75.17 C 44.85 66.65 44.92 58.13 44.93 49.62 C 43.07 49.63 41.21 49.63 39.36 49.64 M 49.13 51.36 C 49.10 57.75 49.23 64.14 49.19 70.53 C 50.85 70.52 52.50 70.51 54.16 70.50 C 54.22 69.96 54.33 68.89 54.38 68.36 C 59.21 68.41 64.05 68.37 68.88 68.41 C 68.94 62.73 68.95 57.04 69.05 51.36 C 62.41 51.35 55.77 51.35 49.13 51.36 Z" />
<path fill="#181818" opacity="1.00" d=" M 54.15 57.81 C 54.21 57.25 54.34 56.14 54.40 55.58 C 57.48 55.60 60.55 55.60 63.62 55.58 C 63.67 56.14 63.78 57.26 63.83 57.82 C 60.61 57.91 57.37 57.90 54.15 57.81 Z" />
<path fill="#181818" opacity="1.00" d=" M 54.15 64.19 C 54.21 63.57 54.32 62.31 54.37 61.68 C 57.47 61.71 60.57 61.71 63.67 61.69 C 63.69 62.33 63.74 63.62 63.77 64.27 C 60.56 64.33 57.36 64.34 54.15 64.19 Z" />
</g>
<g id="#564cdeff">
<path fill="#564cde" opacity="1.00" d=" M 44.10 29.98 C 45.81 30.45 47.52 30.89 49.23 31.35 C 49.18 31.91 49.09 33.04 49.05 33.60 C 52.36 33.55 55.68 33.56 59.00 33.61 C 59.00 35.16 59.00 36.71 58.99 38.26 C 57.10 38.25 55.20 38.28 53.31 38.28 C 53.87 39.44 54.43 40.61 54.98 41.78 C 53.36 42.47 51.74 43.17 50.12 43.87 C 49.16 41.86 48.20 39.86 47.17 37.90 C 44.65 39.24 43.31 41.92 41.40 43.94 C 39.82 42.88 38.25 41.83 36.66 40.78 C 39.94 37.80 42.34 34.03 44.10 29.98 Z" />
<path fill="#564cde" opacity="1.00" d=" M 57.65 40.25 C 60.34 37.35 62.27 33.86 63.59 30.15 C 65.32 30.52 67.05 30.89 68.78 31.26 C 68.70 31.85 68.54 33.02 68.46 33.61 C 72.49 33.56 76.51 33.57 80.54 33.58 C 80.53 35.13 80.54 36.69 80.54 38.25 C 78.46 38.24 76.38 38.24 74.31 38.22 C 74.90 39.32 75.49 40.43 76.08 41.53 C 74.66 42.19 73.25 42.86 71.83 43.52 C 74.19 43.52 76.54 43.51 78.90 43.53 C 78.92 51.70 78.81 59.88 78.80 68.05 C 78.65 69.84 78.97 72.08 77.34 73.32 C 74.23 75.37 70.28 74.60 66.77 74.86 C 66.19 73.30 65.62 71.73 65.02 70.17 C 67.76 70.30 70.50 70.31 73.24 70.20 C 73.40 63.02 73.27 55.84 73.21 48.66 C 66.15 48.63 59.10 48.66 52.05 48.64 C 52.03 46.95 52.00 45.25 51.98 43.55 C 58.34 43.45 64.71 43.54 71.07 43.48 C 69.70 41.66 69.13 37.68 66.21 38.27 C 64.82 39.82 63.73 41.60 62.51 43.27 C 60.85 42.31 59.27 41.24 57.65 40.25 Z" />
<path fill="#564cde" opacity="1.00" d=" M 42.12 44.81 C 43.59 43.90 45.07 43.00 46.54 42.09 C 48.21 43.93 49.82 45.83 51.31 47.82 C 49.79 48.82 48.27 49.84 46.75 50.84 C 45.30 48.76 43.75 46.75 42.12 44.81 Z" />
<path fill="#564cde" opacity="1.00" d=" M 39.36 49.64 C 41.21 49.63 43.07 49.63 44.93 49.62 C 44.92 58.13 44.85 66.65 44.77 75.17 C 43.01 75.16 41.25 75.16 39.48 75.16 C 39.38 66.65 39.43 58.15 39.36 49.64 Z" />
<path fill="#564cde" opacity="1.00" d=" M 49.13 51.36 C 55.77 51.35 62.41 51.35 69.05 51.36 C 68.95 57.04 68.94 62.73 68.88 68.41 C 64.05 68.37 59.21 68.41 54.38 68.36 C 54.33 68.89 54.22 69.96 54.16 70.50 C 52.50 70.51 50.85 70.52 49.19 70.53 C 49.23 64.14 49.10 57.75 49.13 51.36 M 54.15 57.81 C 57.37 57.90 60.61 57.91 63.83 57.82 C 63.78 57.26 63.67 56.14 63.62 55.58 C 60.55 55.60 57.48 55.60 54.40 55.58 C 54.34 56.14 54.21 57.25 54.15 57.81 M 54.15 64.19 C 57.36 64.34 60.56 64.33 63.77 64.27 C 63.74 63.62 63.69 62.33 63.67 61.69 C 60.57 61.71 57.47 61.71 54.37 61.68 C 54.32 62.31 54.21 63.57 54.15 64.19 Z" />
</g>
</svg>
