<?xml version="1.0" encoding="UTF-8" ?>
<!DOCTYPE svg PUBLIC "-//W3C//DTD SVG 1.1//EN" "http://www.w3.org/Graphics/SVG/1.1/DTD/svg11.dtd">
<svg width="117px" height="140px" viewBox="0 0 117 140" version="1.1" xmlns="http://www.w3.org/2000/svg">
<g id="#181818ff">
<path fill="#181818" opacity="1.00" d=" M 0.00 0.00 L 117.00 0.00 L 117.00 140.00 L 0.00 140.00 L 0.00 0.00 M 38.77 35.54 C 39.00 47.31 38.81 59.09 38.87 70.86 C 41.22 70.89 43.56 70.91 45.90 70.95 C 45.86 66.16 45.91 61.38 45.97 56.60 C 50.18 56.58 54.38 56.59 58.59 56.58 C 58.57 54.59 58.57 52.60 58.56 50.62 C 54.38 50.63 50.20 50.62 46.02 50.63 C 45.99 47.56 46.00 44.49 46.03 41.42 C 50.96 41.43 55.90 41.47 60.84 41.39 C 60.82 39.41 60.81 37.43 60.81 35.45 C 53.46 35.47 46.11 35.30 38.77 35.54 M 66.35 44.07 C 66.36 53.01 66.40 61.95 66.43 70.89 C 68.74 70.89 71.05 70.90 73.36 70.91 C 73.46 65.62 73.17 60.32 73.49 55.04 C 74.44 51.04 78.65 48.99 82.53 49.83 C 82.89 47.80 83.24 45.76 83.58 43.72 C 79.03 42.38 74.87 45.17 72.60 48.93 C 72.45 47.31 72.30 45.68 72.14 44.06 C 70.21 44.07 68.28 44.07 66.35 44.07 Z" />
</g>
<g id="#5148d8ff">
<path fill="#5148d8" opacity="1.00" d=" M 38.77 35.54 C 46.11 35.30 53.46 35.47 60.81 35.45 C 60.81 37.43 60.82 39.41 60.84 41.39 C 55.90 41.47 50.96 41.43 46.03 41.42 C 46.00 44.49 45.99 47.56 46.02 50.63 C 50.20 50.62 54.38 50.63 58.56 50.62 C 58.57 52.60 58.57 54.59 58.59 56.58 C 54.38 56.59 50.18 56.58 45.97 56.60 C 45.91 61.38 45.86 66.16 45.90 70.95 C 43.56 70.91 41.22 70.89 38.87 70.86 C 38.81 59.09 39.00 47.31 38.77 35.54 Z" />
<path fill="#5148d8" opacity="1.00" d=" M 66.35 44.07 C 68.28 44.07 70.21 44.07 72.14 44.06 C 72.30 45.68 72.45 47.31 72.60 48.93 C 74.87 45.17 79.03 42.38 83.58 43.72 C 83.24 45.76 82.89 47.80 82.53 49.83 C 78.65 48.99 74.44 51.04 73.49 55.04 C 73.17 60.32 73.46 65.62 73.36 70.91 C 71.05 70.90 68.74 70.89 66.43 70.89 C 66.40 61.95 66.36 53.01 66.35 44.07 Z" />
</g>
</svg>
