<?xml version="1.0" encoding="UTF-8" ?>
<!DOCTYPE svg PUBLIC "-//W3C//DTD SVG 1.1//EN" "http://www.w3.org/Graphics/SVG/1.1/DTD/svg11.dtd">
<svg width="117px" height="140px" viewBox="0 0 117 140" version="1.1" xmlns="http://www.w3.org/2000/svg">
<g id="#181818ff">
<path fill="#181818" opacity="1.00" d=" M 0.00 0.00 L 117.00 0.00 L 117.00 140.00 L 0.00 140.00 L 0.00 0.00 M 61.18 21.24 C 57.06 22.45 55.43 28.29 58.82 31.16 C 61.93 34.65 68.16 32.46 68.83 27.99 C 69.76 23.84 65.18 19.75 61.18 21.24 M 25.08 46.27 L 24.91 46.25 C 23.28 47.84 21.53 49.35 20.21 51.22 C 19.67 52.53 20.94 53.52 21.54 54.53 C 22.97 55.76 24.31 57.09 25.63 58.44 C 27.40 60.27 29.26 62.00 31.09 63.76 C 33.61 62.65 33.40 60.03 33.37 57.70 C 33.34 56.20 33.33 54.70 33.31 53.19 C 33.31 50.94 33.32 48.69 33.37 46.44 C 33.10 44.47 34.20 40.52 31.01 40.66 C 28.60 41.99 26.96 44.32 25.08 46.27 M 84.04 49.70 C 84.03 51.39 84.01 53.09 83.99 54.79 C 84.50 57.55 82.58 62.23 85.99 63.44 C 89.50 61.37 91.87 57.93 94.93 55.31 C 95.80 54.15 96.76 53.05 97.79 52.02 C 96.93 51.19 96.39 49.90 95.33 49.31 C 92.28 46.16 89.34 42.88 85.90 40.13 C 82.72 42.29 84.36 46.49 84.04 49.70 M 36.86 49.89 C 35.10 51.38 36.47 53.53 37.45 55.01 C 40.32 55.73 42.57 53.29 42.21 50.47 L 41.92 50.74 C 40.68 49.32 38.37 48.09 36.86 49.89 M 44.85 49.90 C 43.08 51.42 44.35 53.70 45.75 54.94 L 45.51 55.19 C 48.36 55.55 50.55 53.34 50.19 50.49 L 49.89 50.78 C 48.69 49.30 46.37 48.08 44.85 49.90 M 52.91 49.83 C 51.09 51.35 52.29 53.68 53.77 54.90 L 53.49 55.19 C 56.33 55.56 58.55 53.36 58.20 50.52 L 57.91 50.80 C 56.71 49.34 54.47 48.09 52.91 49.83 M 60.90 49.86 C 59.09 51.36 60.30 53.66 61.73 54.88 L 61.44 55.18 C 64.30 55.58 66.55 53.39 66.18 50.52 L 65.92 50.77 C 64.70 49.34 62.43 48.08 60.90 49.86 M 68.90 49.84 C 67.09 51.36 68.29 53.70 69.79 54.90 L 69.50 55.20 C 72.31 55.54 74.52 53.41 74.20 50.58 L 73.96 50.80 C 72.72 49.38 70.47 48.07 68.90 49.84 M 76.87 49.87 C 75.07 51.41 76.33 53.70 77.78 54.92 L 77.51 55.20 C 80.37 55.54 82.56 53.33 82.19 50.47 L 81.91 50.75 C 80.68 49.33 78.39 48.09 76.87 49.87 M 36.78 67.84 L 38.30 67.54 L 37.52 68.26 C 38.98 68.63 40.94 69.75 42.04 68.11 C 43.70 67.09 42.67 65.15 42.45 63.66 L 42.27 63.84 C 39.32 61.33 36.14 64.63 36.78 67.84 M 76.25 71.33 C 74.09 72.28 73.10 75.40 74.75 77.23 C 76.47 79.88 81.04 78.97 81.68 75.91 C 82.75 72.86 79.06 69.73 76.25 71.33 Z" />
<path fill="#181818" opacity="1.00" d=" M 24.82 51.97 C 26.31 50.57 27.78 49.15 29.24 47.72 C 29.26 49.57 29.28 51.41 29.29 53.26 C 29.29 54.31 29.29 55.37 29.28 56.43 C 28.28 55.43 27.28 54.42 26.28 53.42 C 25.92 53.06 25.19 52.33 24.82 51.97 Z" />
</g>
<g id="#60dc48ff">
<path fill="#60dc48" opacity="1.00" d=" M 61.18 21.24 C 65.18 19.75 69.76 23.84 68.83 27.99 C 68.16 32.46 61.93 34.65 58.82 31.16 C 55.43 28.29 57.06 22.45 61.18 21.24 Z" />
</g>
<g id="#8860f0ff">
<path fill="#8860f0" opacity="1.00" d=" M 25.08 46.27 C 26.96 44.32 28.60 41.99 31.01 40.66 C 34.20 40.52 33.10 44.47 33.37 46.44 C 30.61 46.51 27.84 46.54 25.08 46.27 Z" />
</g>
<g id="#8058f0ff">
<path fill="#8058f0" opacity="1.00" d=" M 84.04 49.70 C 84.36 46.49 82.72 42.29 85.90 40.13 C 89.34 42.88 92.28 46.16 95.33 49.31 C 93.73 49.48 92.14 49.74 90.55 49.98 C 89.69 49.11 88.84 48.24 87.99 47.37 C 87.98 47.95 87.98 49.11 87.97 49.70 C 86.66 49.70 85.35 49.70 84.04 49.70 Z" />
</g>
<g id="#6050e0ff">
<path fill="#6050e0" opacity="1.00" d=" M 24.91 46.25 L 25.08 46.27 C 27.84 46.54 30.61 46.51 33.37 46.44 C 33.32 48.69 33.31 50.94 33.31 53.19 C 32.31 53.21 30.29 53.24 29.29 53.26 C 29.28 51.41 29.26 49.57 29.24 47.72 C 27.78 49.15 26.31 50.57 24.82 51.97 C 25.19 52.33 25.92 53.06 26.28 53.42 C 24.70 53.79 23.12 54.15 21.54 54.53 C 20.94 53.52 19.67 52.53 20.21 51.22 C 21.53 49.35 23.28 47.84 24.91 46.25 Z" />
</g>
<g id="#1c1b22ff">
<path fill="#1c1b22" opacity="1.00" d=" M 87.99 47.37 C 88.84 48.24 89.69 49.11 90.55 49.98 C 91.05 50.49 92.05 51.51 92.56 52.02 C 92.03 52.55 90.97 53.61 90.44 54.14 C 89.85 54.71 89.24 55.27 88.62 55.81 C 88.45 55.79 88.12 55.73 87.96 55.71 C 87.96 53.70 87.96 51.70 87.97 49.70 C 87.98 49.11 87.98 47.95 87.99 47.37 Z" />
</g>
<g id="#f8b860ff">
<path fill="#f8b860" opacity="1.00" d=" M 36.86 49.89 C 38.37 48.09 40.68 49.32 41.92 50.74 C 40.41 52.15 38.92 53.57 37.45 55.01 C 36.47 53.53 35.10 51.38 36.86 49.89 Z" />
<path fill="#f8b860" opacity="1.00" d=" M 44.85 49.90 C 46.37 48.08 48.69 49.30 49.89 50.78 C 48.47 52.13 47.10 53.52 45.75 54.94 C 44.35 53.70 43.08 51.42 44.85 49.90 Z" />
<path fill="#f8b860" opacity="1.00" d=" M 52.91 49.83 C 54.47 48.09 56.71 49.34 57.91 50.80 C 56.49 52.13 55.11 53.50 53.77 54.90 C 52.29 53.68 51.09 51.35 52.91 49.83 Z" />
<path fill="#f8b860" opacity="1.00" d=" M 60.90 49.86 C 62.43 48.08 64.70 49.34 65.92 50.77 C 64.49 52.11 63.10 53.48 61.73 54.88 C 60.30 53.66 59.09 51.36 60.90 49.86 Z" />
<path fill="#f8b860" opacity="1.00" d=" M 68.90 49.84 C 70.47 48.07 72.72 49.38 73.96 50.80 C 72.54 52.14 71.14 53.50 69.79 54.90 C 68.29 53.70 67.09 51.36 68.90 49.84 Z" />
<path fill="#f8b860" opacity="1.00" d=" M 76.87 49.87 C 78.39 48.09 80.68 49.33 81.91 50.75 C 80.50 52.10 79.12 53.49 77.78 54.92 C 76.33 53.70 75.07 51.41 76.87 49.87 Z" />
</g>
<g id="#584ce0ff">
<path fill="#584ce0" opacity="1.00" d=" M 95.33 49.31 C 96.39 49.90 96.93 51.19 97.79 52.02 C 96.76 53.05 95.80 54.15 94.93 55.31 C 93.43 54.93 91.94 54.53 90.44 54.14 C 90.97 53.61 92.03 52.55 92.56 52.02 C 92.05 51.51 91.05 50.49 90.55 49.98 C 92.14 49.74 93.73 49.48 95.33 49.31 Z" />
<path fill="#584ce0" opacity="1.00" d=" M 84.04 49.70 C 85.35 49.70 86.66 49.70 87.97 49.70 C 87.96 51.70 87.96 53.70 87.96 55.71 C 86.63 55.42 85.31 55.11 83.99 54.79 C 84.01 53.09 84.03 51.39 84.04 49.70 Z" />
</g>
<g id="#da823cff">
<path fill="#da823c" opacity="1.00" d=" M 41.92 50.74 L 42.21 50.47 C 42.57 53.29 40.32 55.73 37.45 55.01 C 38.92 53.57 40.41 52.15 41.92 50.74 Z" />
<path fill="#da823c" opacity="1.00" d=" M 49.89 50.78 L 50.19 50.49 C 50.55 53.34 48.36 55.55 45.51 55.19 L 45.75 54.94 C 47.10 53.52 48.47 52.13 49.89 50.78 Z" />
<path fill="#da823c" opacity="1.00" d=" M 57.91 50.80 L 58.20 50.52 C 58.55 53.36 56.33 55.56 53.49 55.19 L 53.77 54.90 C 55.11 53.50 56.49 52.13 57.91 50.80 Z" />
<path fill="#da823c" opacity="1.00" d=" M 65.92 50.77 L 66.18 50.52 C 66.55 53.39 64.30 55.58 61.44 55.18 L 61.73 54.88 C 63.10 53.48 64.49 52.11 65.92 50.77 Z" />
<path fill="#da823c" opacity="1.00" d=" M 73.96 50.80 L 74.20 50.58 C 74.52 53.41 72.31 55.54 69.50 55.20 L 69.79 54.90 C 71.14 53.50 72.54 52.14 73.96 50.80 Z" />
<path fill="#da823c" opacity="1.00" d=" M 81.91 50.75 L 82.19 50.47 C 82.56 53.33 80.37 55.54 77.51 55.20 L 77.78 54.92 C 79.12 53.49 80.50 52.10 81.91 50.75 Z" />
</g>
<g id="#4044d8ff">
<path fill="#4044d8" opacity="1.00" d=" M 29.29 53.26 C 30.29 53.24 32.31 53.21 33.31 53.19 C 33.33 54.70 33.34 56.20 33.37 57.70 C 30.79 57.96 28.21 58.20 25.63 58.44 C 24.31 57.09 22.97 55.76 21.54 54.53 C 23.12 54.15 24.70 53.79 26.28 53.42 C 27.28 54.42 28.28 55.43 29.28 56.43 C 29.29 55.37 29.29 54.31 29.29 53.26 Z" />
</g>
<g id="#3040d0ff">
<path fill="#3040d0" opacity="1.00" d=" M 88.62 55.81 C 89.24 55.27 89.85 54.71 90.44 54.14 C 91.94 54.53 93.43 54.93 94.93 55.31 C 91.87 57.93 89.50 61.37 85.99 63.44 C 82.58 62.23 84.50 57.55 83.99 54.79 C 85.31 55.11 86.63 55.42 87.96 55.71 C 88.12 55.73 88.45 55.79 88.62 55.81 Z" />
</g>
<g id="#283cd0ff">
<path fill="#283cd0" opacity="1.00" d=" M 25.63 58.44 C 28.21 58.20 30.79 57.96 33.37 57.70 C 33.40 60.03 33.61 62.65 31.09 63.76 C 29.26 62.00 27.40 60.27 25.63 58.44 Z" />
</g>
<g id="#e0b987ff">
<path fill="#e0b987" opacity="1.00" d=" M 36.78 67.84 C 36.14 64.63 39.32 61.33 42.27 63.84 C 40.97 65.09 39.66 66.34 38.30 67.54 L 36.78 67.84 Z" />
</g>
<g id="#da9192ff">
<path fill="#da9192" opacity="1.00" d=" M 42.27 63.84 L 42.45 63.66 C 42.67 65.15 43.70 67.09 42.04 68.11 C 40.94 69.75 38.98 68.63 37.52 68.26 L 38.30 67.54 C 39.66 66.34 40.97 65.09 42.27 63.84 Z" />
</g>
<g id="#3078d0ff">
<path fill="#3078d0" opacity="1.00" d=" M 76.25 71.33 C 79.06 69.73 82.75 72.86 81.68 75.91 C 81.04 78.97 76.47 79.88 74.75 77.23 C 73.10 75.40 74.09 72.28 76.25 71.33 Z" />
</g>
</svg>
