<?xml version="1.0" encoding="UTF-8" ?>
<!DOCTYPE svg PUBLIC "-//W3C//DTD SVG 1.1//EN" "http://www.w3.org/Graphics/SVG/1.1/DTD/svg11.dtd">
<svg width="117px" height="140px" viewBox="0 0 117 140" version="1.1" xmlns="http://www.w3.org/2000/svg">
<g id="#181818ff">
<path fill="#181818" opacity="1.00" d=" M 0.00 0.00 L 117.00 0.00 L 117.00 140.00 L 0.00 140.00 L 0.00 0.00 M 54.86 4.66 C 49.67 6.31 45.95 11.49 46.01 16.92 C 45.91 25.13 46.13 33.35 46.01 41.56 C 45.99 46.42 45.99 51.28 46.01 56.13 C 42.30 59.29 39.00 63.19 37.83 68.04 C 35.34 76.66 38.82 86.65 46.23 91.75 C 53.55 97.21 64.40 97.21 71.74 91.79 C 79.15 86.69 82.66 76.71 80.18 68.08 C 79.02 63.23 75.73 59.31 72.00 56.16 C 72.00 51.61 72.03 47.06 71.98 42.51 C 71.90 35.32 72.02 28.13 72.01 20.94 C 72.01 17.70 72.25 14.25 70.68 11.29 C 68.05 5.54 60.80 2.47 54.86 4.66 M 29.87 25.93 C 28.33 28.03 29.06 30.78 30.30 32.82 C 32.59 35.26 36.73 35.80 39.09 33.16 C 41.77 30.84 41.32 26.65 38.89 24.32 C 36.06 22.18 31.63 22.71 29.87 25.93 M 83.36 48.38 C 80.89 49.35 80.19 53.04 82.29 54.74 C 84.41 57.10 88.98 55.27 88.77 52.05 C 89.12 49.28 85.80 47.13 83.36 48.38 M 34.34 86.42 C 32.40 87.55 32.47 90.54 34.45 91.59 C 36.84 93.47 40.51 89.77 38.57 87.40 C 37.73 85.96 35.70 85.37 34.34 86.42 Z" />
<path fill="#181818" opacity="1.00" d=" M 50.05 16.92 C 49.96 11.83 54.93 7.44 59.96 8.08 C 64.33 8.56 68.02 12.53 67.95 16.96 C 68.04 25.46 68.06 33.95 68.02 42.45 C 67.96 47.69 68.06 52.93 67.94 58.17 C 70.86 60.55 73.84 63.10 75.37 66.64 C 78.91 74.10 76.33 83.81 69.57 88.55 C 63.12 93.44 53.37 93.05 47.32 87.68 C 40.56 82.10 38.96 71.29 44.07 64.11 C 45.53 61.64 48.17 60.24 49.91 58.03 C 50.18 52.53 49.93 47.02 49.99 41.51 C 49.95 33.32 49.95 25.12 50.05 16.92 M 55.17 24.06 C 53.52 24.77 53.51 27.22 55.17 27.93 C 57.71 28.09 60.28 28.09 62.83 27.93 C 64.48 27.23 64.48 24.77 62.83 24.07 C 60.28 23.91 57.72 23.91 55.17 24.06 M 55.16 30.06 C 53.52 30.79 53.52 33.24 55.19 33.93 C 57.73 34.09 60.28 34.09 62.83 33.93 C 64.47 33.20 64.48 30.79 62.82 30.07 C 60.27 29.91 57.71 29.91 55.16 30.06 M 55.17 36.07 C 53.54 36.80 53.49 39.27 55.22 39.92 C 57.76 40.10 60.31 40.09 62.84 39.91 C 64.45 39.16 64.47 36.79 62.82 36.07 C 60.28 35.91 57.72 35.91 55.17 36.07 M 54.08 46.00 C 53.85 50.92 54.08 55.85 53.99 60.77 C 51.17 62.20 48.47 64.09 46.91 66.92 C 42.83 73.51 45.66 83.06 52.65 86.40 C 59.71 90.26 69.45 86.48 72.06 78.87 C 74.88 71.85 70.91 63.55 64.01 60.78 C 63.76 55.60 64.48 50.30 63.64 45.20 C 62.13 40.58 54.85 41.24 54.08 46.00 Z" />
</g>
<g id="#7760ebff">
<path fill="#7760eb" opacity="1.00" d=" M 54.86 4.66 C 60.80 2.47 68.05 5.54 70.68 11.29 C 72.25 14.25 72.01 17.70 72.01 20.94 C 72.02 28.13 71.90 35.32 71.98 42.51 C 70.66 42.49 69.34 42.47 68.02 42.45 C 68.06 33.95 68.04 25.46 67.95 16.96 C 68.02 12.53 64.33 8.56 59.96 8.08 C 54.93 7.44 49.96 11.83 50.05 16.92 C 49.95 25.12 49.95 33.32 49.99 41.51 C 48.66 41.53 47.33 41.55 46.01 41.56 C 46.13 33.35 45.91 25.13 46.01 16.92 C 45.95 11.49 49.67 6.31 54.86 4.66 Z" />
<path fill="#7760eb" opacity="1.00" d=" M 29.87 25.93 C 31.63 22.71 36.06 22.18 38.89 24.32 C 36.73 27.79 33.80 30.70 30.30 32.82 C 29.06 30.78 28.33 28.03 29.87 25.93 Z" />
</g>
<g id="#3643d2ff">
<path fill="#3643d2" opacity="1.00" d=" M 38.89 24.32 C 41.32 26.65 41.77 30.84 39.09 33.16 C 36.73 35.80 32.59 35.26 30.30 32.82 C 33.80 30.70 36.73 27.79 38.89 24.32 Z" />
<path fill="#3643d2" opacity="1.00" d=" M 46.01 41.56 C 47.33 41.55 48.66 41.53 49.99 41.51 C 49.93 47.02 50.18 52.53 49.91 58.03 C 48.17 60.24 45.53 61.64 44.07 64.11 C 38.96 71.29 40.56 82.10 47.32 87.68 C 53.37 93.05 63.12 93.44 69.57 88.55 C 76.33 83.81 78.91 74.10 75.37 66.64 C 73.84 63.10 70.86 60.55 67.94 58.17 C 68.06 52.93 67.96 47.69 68.02 42.45 C 69.34 42.47 70.66 42.49 71.98 42.51 C 72.03 47.06 72.00 51.61 72.00 56.16 C 75.73 59.31 79.02 63.23 80.18 68.08 C 82.66 76.71 79.15 86.69 71.74 91.79 C 64.40 97.21 53.55 97.21 46.23 91.75 C 38.82 86.65 35.34 76.66 37.83 68.04 C 39.00 63.19 42.30 59.29 46.01 56.13 C 45.99 51.28 45.99 46.42 46.01 41.56 Z" />
<path fill="#3643d2" opacity="1.00" d=" M 34.34 86.42 C 35.70 85.37 37.73 85.96 38.57 87.40 C 40.51 89.77 36.84 93.47 34.45 91.59 C 32.47 90.54 32.40 87.55 34.34 86.42 Z" />
</g>
<g id="#f89c4aff">
<path fill="#f89c4a" opacity="1.00" d=" M 55.17 24.06 C 57.72 23.91 60.28 23.91 62.83 24.07 C 64.48 24.77 64.48 27.23 62.83 27.93 C 60.28 28.09 57.71 28.09 55.17 27.93 C 53.51 27.22 53.52 24.77 55.17 24.06 Z" />
<path fill="#f89c4a" opacity="1.00" d=" M 55.16 30.06 C 57.71 29.91 60.27 29.91 62.82 30.07 C 64.48 30.79 64.47 33.20 62.83 33.93 C 60.28 34.09 57.73 34.09 55.19 33.93 C 53.52 33.24 53.52 30.79 55.16 30.06 Z" />
<path fill="#f89c4a" opacity="1.00" d=" M 55.17 36.07 C 57.72 35.91 60.28 35.91 62.82 36.07 C 64.47 36.79 64.45 39.16 62.84 39.91 C 60.31 40.09 57.76 40.10 55.22 39.92 C 53.49 39.27 53.54 36.80 55.17 36.07 Z" />
<path fill="#f89c4a" opacity="1.00" d=" M 54.08 46.00 C 54.85 41.24 62.13 40.58 63.64 45.20 C 64.48 50.30 63.76 55.60 64.01 60.78 C 70.91 63.55 74.88 71.85 72.06 78.87 C 69.45 86.48 59.71 90.26 52.65 86.40 C 45.66 83.06 42.83 73.51 46.91 66.92 C 48.47 64.09 51.17 62.20 53.99 60.77 C 54.08 55.85 53.85 50.92 54.08 46.00 Z" />
<path fill="#f89c4a" opacity="1.00" d=" M 83.36 48.38 C 85.80 47.13 89.12 49.28 88.77 52.05 C 88.98 55.27 84.41 57.10 82.29 54.74 C 80.19 53.04 80.89 49.35 83.36 48.38 Z" />
</g>
</svg>
