<?xml version="1.0" encoding="UTF-8" ?>
<!DOCTYPE svg PUBLIC "-//W3C//DTD SVG 1.1//EN" "http://www.w3.org/Graphics/SVG/1.1/DTD/svg11.dtd">
<svg width="117px" height="140px" viewBox="0 0 117 140" version="1.1" xmlns="http://www.w3.org/2000/svg">
<g id="#181818ff">
<path fill="#181818" opacity="1.00" d=" M 0.00 0.00 L 117.00 0.00 L 117.00 140.00 L 0.00 140.00 L 0.00 0.00 M 46.07 15.91 C 45.85 24.46 46.16 33.02 46.01 41.57 C 46.00 46.41 45.97 51.25 46.02 56.09 C 42.61 59.11 39.40 62.61 38.11 67.10 C 35.11 75.94 38.55 86.52 46.28 91.79 C 53.61 97.22 64.44 97.20 71.76 91.77 C 79.16 86.66 82.66 76.68 80.17 68.05 C 79.01 63.20 75.70 59.32 71.99 56.14 C 72.00 51.60 72.02 47.06 71.98 42.52 C 71.84 33.66 72.15 24.79 71.93 15.92 C 71.60 9.37 65.57 3.85 59.04 3.97 C 52.48 3.81 46.41 9.33 46.07 15.91 M 31.91 23.89 C 28.75 25.62 28.16 30.01 30.31 32.80 C 32.58 35.31 36.79 35.79 39.13 33.12 C 41.78 30.77 41.32 26.55 38.82 24.28 C 36.78 23.00 34.01 22.36 31.91 23.89 M 83.37 48.37 C 80.88 49.34 80.18 53.05 82.29 54.75 C 84.43 57.11 88.99 55.26 88.78 52.04 C 89.12 49.27 85.81 47.14 83.37 48.37 M 34.27 86.47 C 32.67 87.46 32.35 90.08 33.97 91.19 C 35.61 93.24 39.14 91.43 39.04 89.06 C 39.26 86.74 36.11 84.89 34.27 86.47 Z" />
<path fill="#181818" opacity="1.00" d=" M 50.05 16.91 C 49.97 11.80 54.97 7.41 60.02 8.09 C 64.33 8.60 67.98 12.50 67.95 16.88 C 68.03 25.40 68.06 33.92 68.02 42.43 C 67.96 47.68 68.05 52.92 67.94 58.16 C 72.41 61.50 76.38 66.13 76.85 71.92 C 78.10 81.09 71.21 90.42 62.02 91.73 C 52.24 93.72 41.99 85.99 41.18 76.06 C 40.03 68.84 44.35 62.16 50.06 58.16 C 49.94 52.61 50.04 47.06 49.99 41.50 C 49.94 33.31 49.97 25.11 50.05 16.91 M 55.13 12.05 C 53.53 12.82 53.51 15.21 55.16 15.95 C 57.71 16.07 60.28 16.07 62.83 15.95 C 64.48 15.21 64.47 12.82 62.85 12.05 C 60.28 11.93 57.70 11.93 55.13 12.05 M 55.15 18.05 C 53.52 18.82 53.51 21.23 55.18 21.95 C 57.73 22.07 60.29 22.07 62.83 21.95 C 64.47 21.19 64.47 18.83 62.86 18.05 C 60.29 17.93 57.71 17.93 55.15 18.05 M 55.17 24.05 C 53.52 24.80 53.52 27.21 55.19 27.94 C 57.73 28.08 60.29 28.07 62.84 27.95 C 64.44 27.16 64.48 24.82 62.84 24.05 C 60.28 23.93 57.72 23.93 55.17 24.05 M 55.17 30.05 C 53.54 30.83 53.50 33.24 55.21 33.93 C 57.75 34.08 60.31 34.07 62.85 33.94 C 64.42 33.13 64.47 30.84 62.84 30.06 C 60.29 29.93 57.72 29.93 55.17 30.05 M 55.18 36.06 C 53.54 36.80 53.56 39.15 55.16 39.92 C 57.71 40.09 60.29 40.09 62.84 39.91 C 64.41 39.15 64.43 36.90 62.89 36.09 C 60.33 35.91 57.75 35.92 55.18 36.06 M 54.08 46.00 C 53.85 50.93 54.08 55.87 53.99 60.80 C 45.69 63.90 42.19 75.12 47.71 82.18 C 52.78 89.74 65.17 89.74 70.26 82.21 C 75.77 75.15 72.32 63.91 64.01 60.81 C 63.77 55.64 64.46 50.35 63.66 45.25 C 62.19 40.61 54.87 41.23 54.08 46.00 Z" />
</g>
<g id="#7760ebff">
<path fill="#7760eb" opacity="1.00" d=" M 46.07 15.91 C 46.41 9.33 52.48 3.81 59.04 3.97 C 65.57 3.85 71.60 9.37 71.93 15.92 C 72.15 24.79 71.84 33.66 71.98 42.52 C 70.66 42.50 69.34 42.47 68.02 42.43 C 68.06 33.92 68.03 25.40 67.95 16.88 C 67.98 12.50 64.33 8.60 60.02 8.09 C 54.97 7.41 49.97 11.80 50.05 16.91 C 49.97 25.11 49.94 33.31 49.99 41.50 C 48.66 41.52 47.33 41.55 46.01 41.57 C 46.16 33.02 45.85 24.46 46.07 15.91 Z" />
<path fill="#7760eb" opacity="1.00" d=" M 31.91 23.89 C 34.01 22.36 36.78 23.00 38.82 24.28 C 36.74 27.78 33.83 30.75 30.31 32.80 C 28.16 30.01 28.75 25.62 31.91 23.89 Z" />
</g>
<g id="#f89947ff">
<path fill="#f89947" opacity="1.00" d=" M 55.13 12.05 C 57.70 11.93 60.28 11.93 62.85 12.05 C 64.47 12.82 64.48 15.21 62.83 15.95 C 60.28 16.07 57.71 16.07 55.16 15.95 C 53.51 15.21 53.53 12.82 55.13 12.05 Z" />
<path fill="#f89947" opacity="1.00" d=" M 55.15 18.05 C 57.71 17.93 60.29 17.93 62.86 18.05 C 64.47 18.83 64.47 21.19 62.83 21.95 C 60.29 22.07 57.73 22.07 55.18 21.95 C 53.51 21.23 53.52 18.82 55.15 18.05 Z" />
<path fill="#f89947" opacity="1.00" d=" M 55.17 24.05 C 57.72 23.93 60.28 23.93 62.84 24.05 C 64.48 24.82 64.44 27.16 62.84 27.95 C 60.29 28.07 57.73 28.08 55.19 27.94 C 53.52 27.21 53.52 24.80 55.17 24.05 Z" />
<path fill="#f89947" opacity="1.00" d=" M 55.17 30.05 C 57.72 29.93 60.29 29.93 62.84 30.06 C 64.47 30.84 64.42 33.13 62.85 33.94 C 60.31 34.07 57.75 34.08 55.21 33.93 C 53.50 33.24 53.54 30.83 55.17 30.05 Z" />
<path fill="#f89947" opacity="1.00" d=" M 55.18 36.06 C 57.75 35.92 60.33 35.91 62.89 36.09 C 64.43 36.90 64.41 39.15 62.84 39.91 C 60.29 40.09 57.71 40.09 55.16 39.92 C 53.56 39.15 53.54 36.80 55.18 36.06 Z" />
<path fill="#f89947" opacity="1.00" d=" M 54.08 46.00 C 54.87 41.23 62.19 40.61 63.66 45.25 C 64.46 50.35 63.77 55.64 64.01 60.81 C 72.32 63.91 75.77 75.15 70.26 82.21 C 65.17 89.74 52.78 89.74 47.71 82.18 C 42.19 75.12 45.69 63.90 53.99 60.80 C 54.08 55.87 53.85 50.93 54.08 46.00 Z" />
<path fill="#f89947" opacity="1.00" d=" M 83.37 48.37 C 85.81 47.14 89.12 49.27 88.78 52.04 C 88.99 55.26 84.43 57.11 82.29 54.75 C 80.18 53.05 80.88 49.34 83.37 48.37 Z" />
</g>
<g id="#3643d2ff">
<path fill="#3643d2" opacity="1.00" d=" M 38.82 24.28 C 41.32 26.55 41.78 30.77 39.13 33.12 C 36.79 35.79 32.58 35.31 30.31 32.80 C 33.83 30.75 36.74 27.78 38.82 24.28 Z" />
<path fill="#3643d2" opacity="1.00" d=" M 46.01 41.57 C 47.33 41.55 48.66 41.52 49.99 41.50 C 50.04 47.06 49.94 52.61 50.06 58.16 C 44.35 62.16 40.03 68.84 41.18 76.06 C 41.99 85.99 52.24 93.72 62.02 91.73 C 71.21 90.42 78.10 81.09 76.85 71.92 C 76.38 66.13 72.41 61.50 67.94 58.16 C 68.05 52.92 67.96 47.68 68.02 42.43 C 69.34 42.47 70.66 42.50 71.98 42.52 C 72.02 47.06 72.00 51.60 71.99 56.14 C 75.70 59.32 79.01 63.20 80.17 68.05 C 82.66 76.68 79.16 86.66 71.76 91.77 C 64.44 97.20 53.61 97.22 46.28 91.79 C 38.55 86.52 35.11 75.94 38.11 67.10 C 39.40 62.61 42.61 59.11 46.02 56.09 C 45.97 51.25 46.00 46.41 46.01 41.57 Z" />
<path fill="#3643d2" opacity="1.00" d=" M 34.27 86.47 C 36.11 84.89 39.26 86.74 39.04 89.06 C 39.14 91.43 35.61 93.24 33.97 91.19 C 32.35 90.08 32.67 87.46 34.27 86.47 Z" />
</g>
</svg>
