<?xml version="1.0" encoding="UTF-8" ?>
<!DOCTYPE svg PUBLIC "-//W3C//DTD SVG 1.1//EN" "http://www.w3.org/Graphics/SVG/1.1/DTD/svg11.dtd">
<svg width="117px" height="140px" viewBox="0 0 117 140" version="1.1" xmlns="http://www.w3.org/2000/svg">
<g id="#181818ff">
<path fill="#181818" opacity="1.00" d=" M 0.00 0.00 L 117.00 0.00 L 117.00 140.00 L 0.00 140.00 L 0.00 0.00 M 61.16 21.24 C 57.68 22.36 55.60 26.96 57.93 30.06 C 60.03 33.84 65.95 33.76 68.03 30.00 C 71.11 25.70 66.03 19.37 61.16 21.24 M 24.88 46.34 C 23.15 48.10 20.93 49.62 19.92 51.93 C 20.22 52.52 20.83 53.69 21.13 54.28 L 21.63 54.22 C 22.76 55.77 24.22 57.04 25.60 58.37 C 27.32 60.11 28.91 62.05 30.98 63.39 C 34.06 63.27 33.27 59.74 33.27 57.68 C 33.38 56.21 33.37 54.73 33.30 53.26 C 33.32 51.01 33.38 48.76 33.29 46.51 C 33.17 44.56 34.27 40.47 31.04 40.71 C 28.50 41.82 27.01 44.59 24.88 46.34 M 84.04 49.57 C 83.94 51.31 84.02 53.06 84.05 54.80 C 83.94 57.19 83.94 59.59 84.16 61.97 C 84.64 63.42 86.56 63.74 87.57 62.55 C 89.98 60.04 92.59 57.74 94.92 55.15 C 95.88 54.23 97.02 53.37 97.43 52.04 C 97.08 50.86 96.31 49.82 95.26 49.20 C 92.11 46.42 89.68 42.50 85.94 40.59 C 82.25 41.84 84.70 46.68 84.04 49.57 M 36.51 50.34 C 35.27 51.82 36.30 53.83 37.68 54.79 C 40.27 56.02 42.84 53.13 42.02 50.58 L 41.62 50.99 C 41.26 48.61 37.57 48.31 36.51 50.34 M 45.36 49.49 C 43.29 50.50 43.61 54.47 46.07 54.56 L 45.56 55.02 C 48.26 55.82 50.82 53.30 50.01 50.59 L 49.58 51.07 C 49.57 49.15 46.69 48.36 45.36 49.49 M 53.31 49.53 C 51.29 50.54 51.62 54.50 54.06 54.51 L 53.48 55.00 C 56.20 55.85 58.82 53.34 58.03 50.58 L 57.64 51.03 C 57.43 49.14 54.67 48.33 53.31 49.53 M 61.35 49.50 C 59.27 50.49 59.63 54.59 62.11 54.53 L 61.58 55.01 C 64.30 55.83 66.83 53.25 66.01 50.54 L 65.52 51.09 C 65.69 49.14 62.64 48.36 61.35 49.50 M 69.35 49.50 C 67.32 50.52 67.58 54.36 70.00 54.55 L 69.54 55.00 C 72.40 55.88 74.83 53.11 74.06 50.35 L 73.62 51.06 C 73.47 49.14 70.71 48.35 69.35 49.50 M 77.35 49.50 C 75.31 50.53 75.60 54.30 78.00 54.58 L 77.50 55.02 C 80.21 55.83 82.82 53.34 82.02 50.60 L 81.58 51.08 C 81.60 49.15 78.68 48.36 77.35 49.50 M 38.06 67.99 L 37.87 68.18 C 40.51 71.05 45.03 66.48 42.22 63.80 L 41.96 64.07 C 40.13 60.29 34.27 66.10 38.06 67.99 M 76.28 71.33 C 74.93 71.96 73.81 73.43 73.98 74.98 C 73.74 78.29 78.59 80.21 80.69 77.58 C 83.87 74.85 79.96 69.21 76.28 71.33 Z" />
<path fill="#181818" opacity="1.00" d=" M 24.91 51.99 C 26.31 50.46 27.86 49.09 29.23 47.53 C 29.29 49.47 29.32 51.41 29.32 53.35 C 29.31 54.41 29.30 55.47 29.30 56.54 C 28.29 55.49 27.29 54.44 26.25 53.43 C 25.91 53.07 25.25 52.35 24.91 51.99 Z" />
</g>
<g id="#60dc48ff">
<path fill="#60dc48" opacity="1.00" d=" M 61.16 21.24 C 66.03 19.37 71.11 25.70 68.03 30.00 C 65.95 33.76 60.03 33.84 57.93 30.06 C 55.60 26.96 57.68 22.36 61.16 21.24 Z" />
</g>
<g id="#8860f0ff">
<path fill="#8860f0" opacity="1.00" d=" M 24.88 46.34 C 27.01 44.59 28.50 41.82 31.04 40.71 C 34.27 40.47 33.17 44.56 33.29 46.51 C 30.48 46.57 27.68 46.52 24.88 46.34 Z" />
</g>
<g id="#8058f0ff">
<path fill="#8058f0" opacity="1.00" d=" M 84.04 49.57 C 84.70 46.68 82.25 41.84 85.94 40.59 C 89.68 42.50 92.11 46.42 95.26 49.20 C 93.69 49.42 92.13 49.67 90.57 49.93 C 89.70 49.08 88.83 48.24 87.94 47.42 C 87.94 47.97 87.96 49.08 87.97 49.63 C 86.66 49.60 85.35 49.58 84.04 49.57 Z" />
</g>
<g id="#6050e0ff">
<path fill="#6050e0" opacity="1.00" d=" M 19.92 51.93 C 20.93 49.62 23.15 48.10 24.88 46.34 C 27.68 46.52 30.48 46.57 33.29 46.51 C 33.38 48.76 33.32 51.01 33.30 53.26 C 32.30 53.28 30.32 53.33 29.32 53.35 C 29.32 51.41 29.29 49.47 29.23 47.53 C 27.86 49.09 26.31 50.46 24.91 51.99 C 25.25 52.35 25.91 53.07 26.25 53.43 C 24.71 53.68 23.17 53.94 21.63 54.22 L 21.13 54.28 C 20.83 53.69 20.22 52.52 19.92 51.93 Z" />
</g>
<g id="#1c1b22ff">
<path fill="#1c1b22" opacity="1.00" d=" M 87.94 47.42 C 88.83 48.24 89.70 49.08 90.57 49.93 C 91.04 50.46 91.97 51.51 92.44 52.04 C 91.93 52.58 90.90 53.66 90.38 54.20 C 89.75 54.80 89.13 55.43 88.46 55.99 L 87.92 55.87 C 87.97 53.79 88.04 51.71 87.97 49.63 C 87.96 49.08 87.94 47.97 87.94 47.42 Z" />
</g>
<g id="#f8b860ff">
<path fill="#f8b860" opacity="1.00" d=" M 36.51 50.34 C 37.57 48.31 41.26 48.61 41.62 50.99 C 40.39 52.34 39.06 53.59 37.68 54.79 C 36.30 53.83 35.27 51.82 36.51 50.34 Z" />
<path fill="#f8b860" opacity="1.00" d=" M 45.36 49.49 C 46.69 48.36 49.57 49.15 49.58 51.07 C 48.51 52.33 47.34 53.50 46.07 54.56 C 43.61 54.47 43.29 50.50 45.36 49.49 Z" />
<path fill="#f8b860" opacity="1.00" d=" M 53.31 49.53 C 54.67 48.33 57.43 49.14 57.64 51.03 C 56.58 52.32 55.37 53.47 54.06 54.51 C 51.62 54.50 51.29 50.54 53.31 49.53 Z" />
<path fill="#f8b860" opacity="1.00" d=" M 61.35 49.50 C 62.64 48.36 65.69 49.14 65.52 51.09 C 64.47 52.32 63.33 53.47 62.11 54.53 C 59.63 54.59 59.27 50.49 61.35 49.50 Z" />
<path fill="#f8b860" opacity="1.00" d=" M 69.35 49.50 C 70.71 48.35 73.47 49.14 73.62 51.06 C 72.66 52.45 71.18 53.37 70.00 54.55 C 67.58 54.36 67.32 50.52 69.35 49.50 Z" />
<path fill="#f8b860" opacity="1.00" d=" M 77.35 49.50 C 78.68 48.36 81.60 49.15 81.58 51.08 C 80.49 52.34 79.29 53.52 78.00 54.58 C 75.60 54.30 75.31 50.53 77.35 49.50 Z" />
</g>
<g id="#584ce0ff">
<path fill="#584ce0" opacity="1.00" d=" M 95.26 49.20 C 96.31 49.82 97.08 50.86 97.43 52.04 C 97.02 53.37 95.88 54.23 94.92 55.15 C 93.41 54.83 91.90 54.50 90.38 54.20 C 90.90 53.66 91.93 52.58 92.44 52.04 C 91.97 51.51 91.04 50.46 90.57 49.93 C 92.13 49.67 93.69 49.42 95.26 49.20 Z" />
<path fill="#584ce0" opacity="1.00" d=" M 84.04 49.57 C 85.35 49.58 86.66 49.60 87.97 49.63 C 88.04 51.71 87.97 53.79 87.92 55.87 C 86.62 55.55 85.33 55.19 84.05 54.80 C 84.02 53.06 83.94 51.31 84.04 49.57 Z" />
</g>
<g id="#da823cff">
<path fill="#da823c" opacity="1.00" d=" M 41.62 50.99 L 42.02 50.58 C 42.84 53.13 40.27 56.02 37.68 54.79 C 39.06 53.59 40.39 52.34 41.62 50.99 Z" />
<path fill="#da823c" opacity="1.00" d=" M 49.58 51.07 L 50.01 50.59 C 50.82 53.30 48.26 55.82 45.56 55.02 L 46.07 54.56 C 47.34 53.50 48.51 52.33 49.58 51.07 Z" />
<path fill="#da823c" opacity="1.00" d=" M 57.64 51.03 L 58.03 50.58 C 58.82 53.34 56.20 55.85 53.48 55.00 L 54.06 54.51 C 55.37 53.47 56.58 52.32 57.64 51.03 Z" />
<path fill="#da823c" opacity="1.00" d=" M 65.52 51.09 L 66.01 50.54 C 66.83 53.25 64.30 55.83 61.58 55.01 L 62.11 54.53 C 63.33 53.47 64.47 52.32 65.52 51.09 Z" />
<path fill="#da823c" opacity="1.00" d=" M 73.62 51.06 L 74.06 50.35 C 74.83 53.11 72.40 55.88 69.54 55.00 L 70.00 54.55 C 71.18 53.37 72.66 52.45 73.62 51.06 Z" />
<path fill="#da823c" opacity="1.00" d=" M 81.58 51.08 L 82.02 50.60 C 82.82 53.34 80.21 55.83 77.50 55.02 L 78.00 54.58 C 79.29 53.52 80.49 52.34 81.58 51.08 Z" />
</g>
<g id="#4044d8ff">
<path fill="#4044d8" opacity="1.00" d=" M 29.32 53.35 C 30.32 53.33 32.30 53.28 33.30 53.26 C 33.37 54.73 33.38 56.21 33.27 57.68 C 30.72 57.95 28.16 58.22 25.60 58.37 C 24.22 57.04 22.76 55.77 21.63 54.22 C 23.17 53.94 24.71 53.68 26.25 53.43 C 27.29 54.44 28.29 55.49 29.30 56.54 C 29.30 55.47 29.31 54.41 29.32 53.35 Z" />
</g>
<g id="#3040d0ff">
<path fill="#3040d0" opacity="1.00" d=" M 88.46 55.99 C 89.13 55.43 89.75 54.80 90.38 54.20 C 91.90 54.50 93.41 54.83 94.92 55.15 C 92.59 57.74 89.98 60.04 87.57 62.55 C 86.56 63.74 84.64 63.42 84.16 61.97 C 83.94 59.59 83.94 57.19 84.05 54.80 C 85.33 55.19 86.62 55.55 87.92 55.87 L 88.46 55.99 Z" />
</g>
<g id="#283cd0ff">
<path fill="#283cd0" opacity="1.00" d=" M 25.60 58.37 C 28.16 58.22 30.72 57.95 33.27 57.68 C 33.27 59.74 34.06 63.27 30.98 63.39 C 28.91 62.05 27.32 60.11 25.60 58.37 Z" />
</g>
<g id="#e0b987ff">
<path fill="#e0b987" opacity="1.00" d=" M 38.06 67.99 C 34.27 66.10 40.13 60.29 41.96 64.07 C 40.72 65.43 39.42 66.74 38.06 67.99 Z" />
</g>
<g id="#da9192ff">
<path fill="#da9192" opacity="1.00" d=" M 41.96 64.07 L 42.22 63.80 C 45.03 66.48 40.51 71.05 37.87 68.18 L 38.06 67.99 C 39.42 66.74 40.72 65.43 41.96 64.07 Z" />
</g>
<g id="#3078d0ff">
<path fill="#3078d0" opacity="1.00" d=" M 76.28 71.33 C 79.96 69.21 83.87 74.85 80.69 77.58 C 78.59 80.21 73.74 78.29 73.98 74.98 C 73.81 73.43 74.93 71.96 76.28 71.33 Z" />
</g>
</svg>
