<?xml version="1.0" encoding="UTF-8" ?>
<!DOCTYPE svg PUBLIC "-//W3C//DTD SVG 1.1//EN" "http://www.w3.org/Graphics/SVG/1.1/DTD/svg11.dtd">
<svg width="117px" height="140px" viewBox="0 0 117 140" version="1.1" xmlns="http://www.w3.org/2000/svg">
<g id="#181818ff">
<path fill="#181818" opacity="1.00" d=" M 0.00 0.00 L 117.00 0.00 L 117.00 140.00 L 0.00 140.00 L 0.00 0.00 M 54.36 9.12 L 54.36 9.26 C 44.17 10.30 34.34 14.78 27.02 21.96 C 25.70 22.81 25.42 24.92 26.98 25.73 C 23.74 27.61 23.34 31.74 25.10 34.78 C 26.65 35.68 28.12 37.13 30.07 36.92 C 32.86 36.93 34.83 34.59 36.16 32.40 C 43.06 25.87 52.55 22.25 62.07 23.07 C 67.27 23.80 72.30 25.49 76.75 28.30 C 78.62 29.78 80.37 31.44 82.35 32.77 C 83.95 33.47 85.57 31.77 84.92 30.17 C 83.45 28.35 81.53 26.98 79.73 25.51 C 75.11 22.43 69.90 20.28 64.41 19.35 C 54.03 17.92 43.05 20.91 35.22 27.99 C 34.76 27.35 34.28 26.72 33.78 26.10 C 32.43 25.58 31.05 25.15 29.64 24.81 C 36.48 18.61 45.04 14.30 54.27 13.22 C 59.82 12.73 65.39 13.28 70.80 14.58 L 70.75 14.69 C 76.76 16.53 82.42 19.55 87.05 23.82 C 88.17 24.62 89.16 26.13 90.73 25.80 C 92.17 25.39 92.45 23.42 91.42 22.48 C 86.17 17.05 79.43 13.22 72.27 10.89 C 66.44 9.31 60.39 8.70 54.36 9.12 M 40.64 36.67 C 38.88 37.94 40.97 41.01 42.79 39.80 C 44.82 38.54 46.52 36.82 48.64 35.68 C 55.46 31.88 64.15 32.36 70.78 36.39 C 72.68 37.63 74.30 40.23 76.83 39.89 C 80.09 37.24 74.83 34.80 73.09 33.10 C 63.07 26.77 48.91 28.01 40.64 36.67 M 92.14 30.16 C 91.77 34.39 92.12 38.65 92.00 42.90 C 91.99 46.64 92.02 50.39 92.02 54.14 C 91.98 57.68 91.99 61.22 92.05 64.77 C 70.36 65.35 48.62 64.78 26.92 65.04 C 22.03 64.97 17.53 68.00 15.31 72.28 L 15.11 72.28 C 13.85 75.78 13.86 79.53 14.83 83.10 C 16.39 85.47 18.03 87.96 20.64 89.29 C 24.60 91.79 29.42 90.34 33.79 90.72 C 52.53 91.34 71.30 90.84 90.05 90.99 C 95.68 91.39 100.75 87.87 103.23 82.97 C 104.00 79.89 104.11 76.70 103.44 73.58 C 102.28 71.76 101.28 69.75 99.56 68.38 C 98.16 67.06 95.92 66.26 95.82 64.04 C 96.08 60.72 96.02 57.39 96.00 54.06 C 95.99 50.33 96.01 46.61 96.00 42.89 C 95.89 38.64 96.24 34.37 95.86 30.13 C 95.14 28.57 92.82 28.56 92.14 30.16 M 55.38 39.43 C 52.48 40.13 49.70 41.58 47.65 43.78 C 46.04 45.01 48.06 48.18 49.80 46.80 C 52.62 45.04 55.46 42.80 59.00 43.03 C 62.88 42.75 65.83 45.46 69.00 47.21 C 70.29 46.89 71.30 45.64 70.70 44.30 C 67.09 39.92 60.84 38.17 55.38 39.43 M 83.37 47.31 C 80.78 48.32 80.12 52.09 82.33 53.84 C 84.58 56.09 89.08 54.21 88.81 50.95 C 89.10 48.22 85.76 46.09 83.37 47.31 M 57.34 51.38 C 54.56 52.52 54.20 56.75 56.80 58.30 C 59.22 60.14 63.14 58.04 62.96 55.01 C 63.12 52.25 59.81 50.07 57.34 51.38 Z" />
<path fill="#181818" opacity="1.00" d=" M 19.85 72.23 C 22.04 70.21 24.84 68.84 27.87 69.01 C 46.90 68.95 65.94 69.05 84.97 68.97 C 87.81 68.99 90.70 68.80 93.49 69.41 C 95.95 69.96 97.66 71.97 99.21 73.80 C 100.16 76.76 100.10 79.94 98.84 82.81 C 96.46 85.76 92.85 87.38 89.05 87.02 C 70.67 86.99 52.28 86.98 33.89 87.02 C 34.15 85.11 33.12 82.87 30.91 83.01 C 28.52 83.01 28.22 85.62 27.60 87.34 C 24.34 86.78 21.24 85.43 19.14 82.79 C 17.55 79.35 17.84 75.42 19.85 72.23 M 28.56 76.61 C 27.52 77.50 27.88 79.30 29.13 79.74 C 30.68 80.76 32.86 78.61 31.75 77.10 C 31.28 75.86 29.39 75.53 28.56 76.61 M 42.57 76.56 C 40.72 78.37 43.45 81.05 45.41 79.56 C 47.33 77.72 44.44 74.60 42.57 76.56 M 56.59 76.60 C 54.65 78.40 57.61 81.17 59.49 79.49 C 61.26 77.59 58.34 74.62 56.59 76.60 Z" />
<path fill="#181818" opacity="1.00" d=" M 29.28 77.29 C 30.67 76.82 31.15 77.29 30.72 78.71 C 29.33 79.17 28.85 78.70 29.28 77.29 Z" />
<path fill="#181818" opacity="1.00" d=" M 43.28 77.59 C 46.24 76.02 43.45 80.94 43.28 77.59 Z" />
<path fill="#181818" opacity="1.00" d=" M 57.30 77.56 C 60.32 76.11 57.34 80.91 57.30 77.56 Z" />
</g>
<g id="#f8bc60ff">
<path fill="#f8bc60" opacity="1.00" d=" M 54.36 9.12 C 60.39 8.70 66.44 9.31 72.27 10.89 C 71.78 12.12 71.29 13.35 70.80 14.58 C 65.39 13.28 59.82 12.73 54.27 13.22 C 54.30 11.90 54.33 10.58 54.36 9.26 L 54.36 9.12 Z" />
</g>
<g id="#f8d478ff">
<path fill="#f8d478" opacity="1.00" d=" M 27.02 21.96 C 34.34 14.78 44.17 10.30 54.36 9.26 C 54.33 10.58 54.30 11.90 54.27 13.22 C 45.04 14.30 36.48 18.61 29.64 24.81 C 28.75 25.12 27.87 25.42 26.98 25.73 C 25.42 24.92 25.70 22.81 27.02 21.96 Z" />
</g>
<g id="#f8a450ff">
<path fill="#f8a450" opacity="1.00" d=" M 72.27 10.89 C 79.43 13.22 86.17 17.05 91.42 22.48 C 92.45 23.42 92.17 25.39 90.73 25.80 C 89.16 26.13 88.17 24.62 87.05 23.82 C 82.42 19.55 76.76 16.53 70.75 14.69 L 70.80 14.58 C 71.29 13.35 71.78 12.12 72.27 10.89 Z" />
</g>
<g id="#f8c068ff">
<path fill="#f8c068" opacity="1.00" d=" M 35.22 27.99 C 43.05 20.91 54.03 17.92 64.41 19.35 C 63.63 20.59 62.85 21.83 62.07 23.07 C 52.55 22.25 43.06 25.87 36.16 32.40 C 35.93 30.91 35.66 29.43 35.22 27.99 Z" />
</g>
<g id="#f8ac58ff">
<path fill="#f8ac58" opacity="1.00" d=" M 64.41 19.35 C 69.90 20.28 75.11 22.43 79.73 25.51 C 78.74 26.44 77.75 27.37 76.75 28.30 C 72.30 25.49 67.27 23.80 62.07 23.07 C 62.85 21.83 63.63 20.59 64.41 19.35 Z" />
</g>
<g id="#409cd8ff">
<path fill="#409cd8" opacity="1.00" d=" M 26.98 25.73 C 27.87 25.42 28.75 25.12 29.64 24.81 C 31.05 25.15 32.43 25.58 33.78 26.10 C 31.49 29.54 28.57 32.52 25.10 34.78 C 23.34 31.74 23.74 27.61 26.98 25.73 Z" />
</g>
<g id="#2854c8ff">
<path fill="#2854c8" opacity="1.00" d=" M 33.78 26.10 C 34.28 26.72 34.76 27.35 35.22 27.99 C 35.66 29.43 35.93 30.91 36.16 32.40 C 34.83 34.59 32.86 36.93 30.07 36.92 C 28.12 37.13 26.65 35.68 25.10 34.78 C 28.57 32.52 31.49 29.54 33.78 26.10 Z" />
</g>
<g id="#f89848ff">
<path fill="#f89848" opacity="1.00" d=" M 79.73 25.51 C 81.53 26.98 83.45 28.35 84.92 30.17 C 85.57 31.77 83.95 33.47 82.35 32.77 C 80.37 31.44 78.62 29.78 76.75 28.30 C 77.75 27.37 78.74 26.44 79.73 25.51 Z" />
</g>
<g id="#f8b458ff">
<path fill="#f8b458" opacity="1.00" d=" M 40.64 36.67 C 48.91 28.01 63.07 26.77 73.09 33.10 C 72.32 34.19 71.55 35.29 70.78 36.39 C 64.15 32.36 55.46 31.88 48.64 35.68 C 46.52 36.82 44.82 38.54 42.79 39.80 C 40.97 41.01 38.88 37.94 40.64 36.67 Z" />
</g>
<g id="#8860f0ff">
<path fill="#8860f0" opacity="1.00" d=" M 92.14 30.16 C 92.82 28.56 95.14 28.57 95.86 30.13 C 96.24 34.37 95.89 38.64 96.00 42.89 C 94.67 42.89 93.33 42.89 92.00 42.90 C 92.12 38.65 91.77 34.39 92.14 30.16 Z" />
</g>
<g id="#f89c48ff">
<path fill="#f89c48" opacity="1.00" d=" M 70.78 36.39 C 71.55 35.29 72.32 34.19 73.09 33.10 C 74.83 34.80 80.09 37.24 76.83 39.89 C 74.30 40.23 72.68 37.63 70.78 36.39 Z" />
<path fill="#f89c48" opacity="1.00" d=" M 57.34 51.38 C 59.81 50.07 63.12 52.25 62.96 55.01 C 63.14 58.04 59.22 60.14 56.80 58.30 C 54.20 56.75 54.56 52.52 57.34 51.38 Z" />
</g>
<g id="#f8a850ff">
<path fill="#f8a850" opacity="1.00" d=" M 55.38 39.43 C 60.84 38.17 67.09 39.92 70.70 44.30 C 71.30 45.64 70.29 46.89 69.00 47.21 C 65.83 45.46 62.88 42.75 59.00 43.03 C 55.46 42.80 52.62 45.04 49.80 46.80 C 48.06 48.18 46.04 45.01 47.65 43.78 C 49.70 41.58 52.48 40.13 55.38 39.43 Z" />
</g>
<g id="#7054e8ff">
<path fill="#7054e8" opacity="1.00" d=" M 92.00 42.90 C 93.33 42.89 94.67 42.89 96.00 42.89 C 96.01 46.61 95.99 50.33 96.00 54.06 C 94.67 54.08 93.35 54.11 92.02 54.14 C 92.02 50.39 91.99 46.64 92.00 42.90 Z" />
</g>
<g id="#e07470ff">
<path fill="#e07470" opacity="1.00" d=" M 83.37 47.31 C 85.76 46.09 89.10 48.22 88.81 50.95 C 89.08 54.21 84.58 56.09 82.33 53.84 C 80.12 52.09 80.78 48.32 83.37 47.31 Z" />
</g>
<g id="#584ce0ff">
<path fill="#584ce0" opacity="1.00" d=" M 92.02 54.14 C 93.35 54.11 94.67 54.08 96.00 54.06 C 96.02 57.39 96.08 60.72 95.82 64.04 C 94.56 64.29 93.30 64.53 92.05 64.77 C 91.99 61.22 91.98 57.68 92.02 54.14 Z" />
</g>
<g id="#4848d8ff">
<path fill="#4848d8" opacity="1.00" d=" M 92.05 64.77 C 93.30 64.53 94.56 64.29 95.82 64.04 C 95.92 66.26 98.16 67.06 99.56 68.38 C 101.28 69.75 102.28 71.76 103.44 73.58 C 102.03 73.66 100.62 73.73 99.21 73.80 C 97.66 71.97 95.95 69.96 93.49 69.41 C 90.70 68.80 87.81 68.99 84.97 68.97 C 65.94 69.05 46.90 68.95 27.87 69.01 C 24.84 68.84 22.04 70.21 19.85 72.23 C 18.34 72.25 16.82 72.27 15.31 72.28 C 17.53 68.00 22.03 64.97 26.92 65.04 C 48.62 64.78 70.36 65.35 92.05 64.77 Z" />
</g>
<g id="#303cd0ff">
<path fill="#303cd0" opacity="1.00" d=" M 15.11 72.28 L 15.31 72.28 C 16.82 72.27 18.34 72.25 19.85 72.23 C 17.84 75.42 17.55 79.35 19.14 82.79 C 17.71 82.89 16.27 82.99 14.83 83.10 C 13.86 79.53 13.85 75.78 15.11 72.28 Z" />
<path fill="#303cd0" opacity="1.00" d=" M 99.21 73.80 C 100.62 73.73 102.03 73.66 103.44 73.58 C 104.11 76.70 104.00 79.89 103.23 82.97 C 101.76 82.91 100.30 82.86 98.84 82.81 C 100.10 79.94 100.16 76.76 99.21 73.80 Z" />
<path fill="#303cd0" opacity="1.00" d=" M 28.56 76.61 C 29.39 75.53 31.28 75.86 31.75 77.10 C 32.86 78.61 30.68 80.76 29.13 79.74 C 27.88 79.30 27.52 77.50 28.56 76.61 M 29.28 77.29 C 28.85 78.70 29.33 79.17 30.72 78.71 C 31.15 77.29 30.67 76.82 29.28 77.29 Z" />
<path fill="#303cd0" opacity="1.00" d=" M 42.57 76.56 C 44.44 74.60 47.33 77.72 45.41 79.56 C 43.45 81.05 40.72 78.37 42.57 76.56 M 43.28 77.59 C 43.45 80.94 46.24 76.02 43.28 77.59 Z" />
<path fill="#303cd0" opacity="1.00" d=" M 56.59 76.60 C 58.34 74.62 61.26 77.59 59.49 79.49 C 57.61 81.17 54.65 78.40 56.59 76.60 M 57.30 77.56 C 57.34 80.91 60.32 76.11 57.30 77.56 Z" />
</g>
<g id="#1838c8ff">
<path fill="#1838c8" opacity="1.00" d=" M 14.83 83.10 C 16.27 82.99 17.71 82.89 19.14 82.79 C 21.24 85.43 24.34 86.78 27.60 87.34 C 29.50 88.77 31.72 89.51 33.85 88.07 C 33.84 88.73 33.81 90.06 33.79 90.72 C 29.42 90.34 24.60 91.79 20.64 89.29 C 18.03 87.96 16.39 85.47 14.83 83.10 Z" />
</g>
<g id="#f8d450ff">
<path fill="#f8d450" opacity="1.00" d=" M 27.60 87.34 C 28.22 85.62 28.52 83.01 30.91 83.01 C 33.12 82.87 34.15 85.11 33.89 87.02 L 33.85 88.07 C 31.72 89.51 29.50 88.77 27.60 87.34 Z" />
</g>
<g id="#1834c8ff">
<path fill="#1834c8" opacity="1.00" d=" M 89.05 87.02 C 92.85 87.38 96.46 85.76 98.84 82.81 C 100.30 82.86 101.76 82.91 103.23 82.97 C 100.75 87.87 95.68 91.39 90.05 90.99 C 71.30 90.84 52.53 91.34 33.79 90.72 C 33.81 90.06 33.84 88.73 33.85 88.07 L 33.89 87.02 C 52.28 86.98 70.67 86.99 89.05 87.02 Z" />
</g>
</svg>
