<?xml version="1.0" encoding="UTF-8" ?>
<!DOCTYPE svg PUBLIC "-//W3C//DTD SVG 1.1//EN" "http://www.w3.org/Graphics/SVG/1.1/DTD/svg11.dtd">
<svg width="117px" height="140px" viewBox="0 0 117 140" version="1.1" xmlns="http://www.w3.org/2000/svg">
<g id="#181818ff">
<path fill="#181818" opacity="1.00" d=" M 0.00 0.00 L 117.00 0.00 L 117.00 140.00 L 0.00 140.00 L 0.00 0.00 M 33.69 35.43 C 33.69 47.28 33.70 59.14 33.71 71.00 C 41.16 71.00 48.60 70.98 56.05 70.96 C 56.03 69.00 56.03 67.03 56.05 65.06 C 50.98 65.05 45.92 65.04 40.86 65.02 C 40.86 61.88 40.87 58.73 40.88 55.59 C 45.03 55.59 49.18 55.56 53.33 55.56 C 53.31 53.56 53.31 51.57 53.33 49.57 C 49.19 49.57 45.04 49.55 40.90 49.56 C 40.90 46.84 40.91 44.13 40.92 41.42 C 45.80 41.42 50.67 41.41 55.55 41.41 C 55.53 39.42 55.54 37.43 55.57 35.45 C 48.28 35.43 40.99 35.41 33.69 35.43 M 62.66 44.09 C 62.63 53.04 62.68 62.00 62.66 70.95 C 64.99 70.94 67.32 70.93 69.66 70.94 C 69.61 64.72 69.68 58.50 69.66 52.29 C 71.92 50.17 76.62 47.71 78.52 51.49 C 79.81 57.86 78.84 64.48 79.13 70.95 C 81.47 70.91 83.80 70.91 86.14 70.89 C 85.97 64.23 86.49 57.54 85.85 50.90 C 85.53 47.26 82.86 43.67 78.97 43.53 C 75.07 42.96 71.71 45.32 68.90 47.69 C 68.78 46.79 68.55 45.00 68.44 44.10 C 66.51 44.13 64.58 44.12 62.66 44.09 Z" />
</g>
<g id="#f8ac56ff">
<path fill="#f8ac56" opacity="1.00" d=" M 33.69 35.43 C 40.99 35.41 48.28 35.43 55.57 35.45 C 55.54 37.43 55.53 39.42 55.55 41.41 C 50.67 41.41 45.80 41.42 40.92 41.42 C 40.91 44.13 40.90 46.84 40.90 49.56 C 45.04 49.55 49.19 49.57 53.33 49.57 C 53.31 51.57 53.31 53.56 53.33 55.56 C 49.18 55.56 45.03 55.59 40.88 55.59 C 40.87 58.73 40.86 61.88 40.86 65.02 C 45.92 65.04 50.98 65.05 56.05 65.06 C 56.03 67.03 56.03 69.00 56.05 70.96 C 48.60 70.98 41.16 71.00 33.71 71.00 C 33.70 59.14 33.69 47.28 33.69 35.43 Z" />
<path fill="#f8ac56" opacity="1.00" d=" M 62.66 44.09 C 64.58 44.12 66.51 44.13 68.44 44.10 C 68.55 45.00 68.78 46.79 68.90 47.69 C 71.71 45.32 75.07 42.96 78.97 43.53 C 82.86 43.67 85.53 47.26 85.85 50.90 C 86.49 57.54 85.97 64.23 86.14 70.89 C 83.80 70.91 81.47 70.91 79.13 70.95 C 78.84 64.48 79.81 57.86 78.52 51.49 C 76.62 47.71 71.92 50.17 69.66 52.29 C 69.68 58.50 69.61 64.72 69.66 70.94 C 67.32 70.93 64.99 70.94 62.66 70.95 C 62.68 62.00 62.63 53.04 62.66 44.09 Z" />
</g>
</svg>
