<?xml version="1.0" encoding="UTF-8" ?>
<!DOCTYPE svg PUBLIC "-//W3C//DTD SVG 1.1//EN" "http://www.w3.org/Graphics/SVG/1.1/DTD/svg11.dtd">
<svg width="117px" height="140px" viewBox="0 0 117 140" version="1.1" xmlns="http://www.w3.org/2000/svg">
<g id="#181818ff">
<path fill="#181818" opacity="1.00" d=" M 0.00 0.00 L 117.00 0.00 L 117.00 140.00 L 0.00 140.00 L 0.00 0.00 M 30.12 27.32 L 30.26 28.17 C 28.82 28.30 26.99 27.57 25.90 28.88 C 24.54 29.95 25.30 31.73 25.43 33.15 C 24.84 34.02 24.28 34.91 23.75 35.82 C 21.68 40.29 19.88 44.94 19.31 49.86 C 18.72 54.62 19.09 59.43 20.00 64.13 C 21.09 68.14 22.63 72.02 24.69 75.64 C 26.65 78.50 28.58 81.48 31.31 83.67 C 32.80 84.47 35.01 82.61 33.85 81.06 C 32.20 78.62 30.10 76.52 28.48 74.06 C 27.98 73.13 27.47 72.20 26.97 71.27 C 28.73 70.31 32.77 69.54 31.38 66.73 C 29.75 64.58 27.31 67.07 25.45 67.56 C 25.03 66.51 24.60 65.45 24.17 64.40 C 23.92 62.94 23.66 61.48 23.40 60.02 C 25.35 59.57 29.55 60.34 29.03 57.08 C 28.18 54.67 25.09 56.03 23.23 55.98 L 22.80 55.69 C 23.07 53.19 23.32 50.69 23.58 48.20 C 25.32 48.56 27.06 49.14 28.85 48.94 C 30.10 48.35 30.37 46.62 29.36 45.70 C 27.89 44.92 26.24 44.56 24.66 44.06 C 25.58 41.90 26.43 39.71 27.14 37.47 C 27.64 37.59 28.65 37.83 29.16 37.94 C 30.65 38.78 32.20 40.32 33.91 38.95 C 35.16 36.77 32.89 35.46 31.45 34.28 C 31.05 34.23 30.23 34.12 29.82 34.07 C 31.40 31.76 33.21 29.57 35.49 27.91 C 36.78 30.11 39.55 33.62 41.70 30.06 C 40.71 28.42 39.64 26.83 38.51 25.28 C 40.72 24.00 42.95 22.79 45.20 21.61 C 46.29 23.37 46.39 26.89 49.10 26.72 C 51.94 25.46 49.62 22.24 49.36 20.13 C 51.88 19.73 54.40 19.35 56.93 19.01 C 57.28 21.03 56.07 24.63 59.02 25.03 C 61.91 24.58 60.71 21.03 61.08 19.02 C 63.69 19.30 66.31 19.65 68.80 20.52 C 68.37 22.37 65.91 25.78 68.95 26.64 C 71.54 27.18 71.62 23.55 72.41 21.92 C 75.00 22.50 77.25 23.96 79.50 25.30 C 78.33 27.22 75.02 29.79 77.92 31.73 C 80.28 31.89 81.13 29.23 82.81 28.08 C 84.60 29.94 86.28 31.90 88.13 33.71 C 86.37 34.87 82.49 36.12 84.22 38.86 C 86.32 40.65 88.38 37.83 90.27 37.07 C 91.40 39.37 92.42 41.71 93.34 44.09 C 91.40 44.88 87.56 44.80 88.06 47.80 C 89.41 50.15 92.34 48.43 94.38 48.19 C 94.62 50.31 94.88 52.43 95.26 54.53 C 95.10 54.87 94.78 55.55 94.61 55.89 C 92.62 55.89 88.74 54.71 88.91 57.94 C 89.44 60.41 92.81 59.46 94.59 60.00 C 94.25 62.07 93.83 64.12 93.38 66.16 C 93.13 66.49 92.64 67.14 92.40 67.47 C 90.56 66.80 87.38 64.36 86.36 67.36 C 86.01 69.96 89.38 70.23 91.02 71.26 C 90.50 72.22 89.98 73.18 89.46 74.15 C 87.84 76.59 85.77 78.68 84.11 81.09 C 83.08 82.74 85.20 84.44 86.71 83.64 C 89.47 81.44 91.40 78.42 93.37 75.54 C 94.88 72.80 96.14 69.93 97.20 66.99 C 98.71 61.44 99.50 55.63 98.65 49.90 C 98.04 44.53 96.17 39.36 93.46 34.71 L 93.07 34.65 C 92.36 33.42 91.88 31.92 90.62 31.11 C 94.15 30.94 97.49 27.74 96.88 24.06 C 96.65 21.69 94.64 20.21 92.80 19.02 C 89.17 18.37 85.21 20.77 85.06 24.66 C 76.59 17.38 65.02 13.83 53.92 15.34 C 44.90 16.41 36.45 20.84 30.12 27.32 M 52.06 56.45 C 48.62 59.96 44.94 63.25 41.76 67.02 C 47.76 65.63 53.67 63.93 59.58 62.22 C 61.49 61.42 63.57 60.16 63.86 57.90 C 64.50 54.97 61.96 51.95 58.96 52.07 C 56.02 52.15 54.10 54.68 52.06 56.45 M 52.16 82.60 C 52.80 83.30 53.43 84.01 54.06 84.73 C 57.60 86.16 61.11 82.66 59.79 79.11 C 59.08 78.47 58.37 77.82 57.66 77.17 C 54.29 75.97 51.00 79.22 52.16 82.60 Z" />
</g>
<g id="#9060f8ff">
<path fill="#9060f8" opacity="1.00" d=" M 30.12 27.32 C 36.45 20.84 44.90 16.41 53.92 15.34 C 65.02 13.83 76.59 17.38 85.06 24.66 C 84.94 25.15 84.71 26.12 84.59 26.60 C 84.00 27.10 83.41 27.59 82.81 28.08 C 81.13 29.23 80.28 31.89 77.92 31.73 C 75.02 29.79 78.33 27.22 79.50 25.30 C 77.25 23.96 75.00 22.50 72.41 21.92 C 71.62 23.55 71.54 27.18 68.95 26.64 C 65.91 25.78 68.37 22.37 68.80 20.52 C 66.31 19.65 63.69 19.30 61.08 19.02 C 60.71 21.03 61.91 24.58 59.02 25.03 C 56.07 24.63 57.28 21.03 56.93 19.01 C 54.40 19.35 51.88 19.73 49.36 20.13 C 49.62 22.24 51.94 25.46 49.10 26.72 C 46.39 26.89 46.29 23.37 45.20 21.61 C 42.95 22.79 40.72 24.00 38.51 25.28 C 39.64 26.83 40.71 28.42 41.70 30.06 C 39.55 33.62 36.78 30.11 35.49 27.91 C 33.21 29.57 31.40 31.76 29.82 34.07 C 28.64 34.00 27.47 33.95 26.29 33.90 L 25.78 33.14 C 27.29 33.12 28.79 33.12 30.30 33.13 C 30.49 31.48 30.59 29.81 30.26 28.17 L 30.12 27.32 Z" />
</g>
<g id="#d058d0ff">
<path fill="#d058d0" opacity="1.00" d=" M 85.06 24.66 C 85.21 20.77 89.17 18.37 92.80 19.02 C 90.63 22.02 88.75 26.17 84.59 26.60 C 84.71 26.12 84.94 25.15 85.06 24.66 Z" />
</g>
<g id="#8838c8ff">
<path fill="#8838c8" opacity="1.00" d=" M 92.80 19.02 C 94.64 20.21 96.65 21.69 96.88 24.06 C 97.49 27.74 94.15 30.94 90.62 31.11 C 88.21 30.20 85.87 28.97 84.59 26.60 C 88.75 26.17 90.63 22.02 92.80 19.02 Z" />
</g>
<g id="#513998ff">
<path fill="#513998" opacity="1.00" d=" M 82.81 28.08 C 83.41 27.59 84.00 27.10 84.59 26.60 C 85.87 28.97 88.21 30.20 90.62 31.11 C 91.88 31.92 92.36 33.42 93.07 34.65 C 91.41 34.44 89.74 34.18 88.13 33.71 C 86.28 31.90 84.60 29.94 82.81 28.08 Z" />
</g>
<g id="#f8c098ff">
<path fill="#f8c098" opacity="1.00" d=" M 25.90 28.88 C 26.99 27.57 28.82 28.30 30.26 28.17 C 30.59 29.81 30.49 31.48 30.30 33.13 C 28.79 33.12 27.29 33.12 25.78 33.14 L 25.43 33.15 C 25.30 31.73 24.54 29.95 25.90 28.88 Z" />
</g>
<g id="#503ca0ff">
<path fill="#503ca0" opacity="1.00" d=" M 25.43 33.15 L 25.78 33.14 L 26.29 33.90 C 27.47 33.95 28.64 34.00 29.82 34.07 C 30.23 34.12 31.05 34.23 31.45 34.28 C 30.69 35.50 29.93 36.72 29.16 37.94 C 28.65 37.83 27.64 37.59 27.14 37.47 C 25.98 36.97 24.87 36.39 23.75 35.82 C 24.28 34.91 24.84 34.02 25.43 33.15 Z" />
</g>
<g id="#6050e0ff">
<path fill="#6050e0" opacity="1.00" d=" M 88.13 33.71 C 89.74 34.18 91.41 34.44 93.07 34.65 L 93.46 34.71 C 96.17 39.36 98.04 44.53 98.65 49.90 C 98.26 51.03 97.85 52.17 97.42 53.29 C 96.88 53.60 95.80 54.22 95.26 54.53 C 94.88 52.43 94.62 50.31 94.38 48.19 C 92.34 48.43 89.41 50.15 88.06 47.80 C 87.56 44.80 91.40 44.88 93.34 44.09 C 92.42 41.71 91.40 39.37 90.27 37.07 C 88.38 37.83 86.32 40.65 84.22 38.86 C 82.49 36.12 86.37 34.87 88.13 33.71 Z" />
<path fill="#6050e0" opacity="1.00" d=" M 23.75 35.82 C 24.87 36.39 25.98 36.97 27.14 37.47 C 26.43 39.71 25.58 41.90 24.66 44.06 C 26.24 44.56 27.89 44.92 29.36 45.70 C 30.37 46.62 30.10 48.35 28.85 48.94 C 27.06 49.14 25.32 48.56 23.58 48.20 C 23.32 50.69 23.07 53.19 22.80 55.69 C 20.39 54.69 19.79 52.16 19.31 49.86 C 19.88 44.94 21.68 40.29 23.75 35.82 Z" />
</g>
<g id="#614bcbff">
<path fill="#614bcb" opacity="1.00" d=" M 31.45 34.28 C 32.89 35.46 35.16 36.77 33.91 38.95 C 32.20 40.32 30.65 38.78 29.16 37.94 C 29.93 36.72 30.69 35.50 31.45 34.28 Z" />
</g>
<g id="#4848d8ff">
<path fill="#4848d8" opacity="1.00" d=" M 20.00 64.13 C 19.09 59.43 18.72 54.62 19.31 49.86 C 19.79 52.16 20.39 54.69 22.80 55.69 L 23.23 55.98 C 25.09 56.03 28.18 54.67 29.03 57.08 C 29.55 60.34 25.35 59.57 23.40 60.02 C 23.66 61.48 23.92 62.94 24.17 64.40 C 22.78 64.31 21.39 64.22 20.00 64.13 Z" />
</g>
<g id="#4844d8ff">
<path fill="#4844d8" opacity="1.00" d=" M 98.65 49.90 C 99.50 55.63 98.71 61.44 97.20 66.99 C 95.92 66.71 94.65 66.43 93.38 66.16 C 93.83 64.12 94.25 62.07 94.59 60.00 C 92.81 59.46 89.44 60.41 88.91 57.94 C 88.74 54.71 92.62 55.89 94.61 55.89 C 94.78 55.55 95.10 54.87 95.26 54.53 C 95.80 54.22 96.88 53.60 97.42 53.29 C 97.85 52.17 98.26 51.03 98.65 49.90 Z" />
</g>
<g id="#f88c40ff">
<path fill="#f88c40" opacity="1.00" d=" M 52.06 56.45 C 54.10 54.68 56.02 52.15 58.96 52.07 C 61.96 51.95 64.50 54.97 63.86 57.90 C 63.57 60.16 61.49 61.42 59.58 62.22 C 57.25 60.07 54.72 58.16 52.06 56.45 Z" />
</g>
<g id="#f8b058ff">
<path fill="#f8b058" opacity="1.00" d=" M 41.76 67.02 C 44.94 63.25 48.62 59.96 52.06 56.45 C 54.72 58.16 57.25 60.07 59.58 62.22 C 53.67 63.93 47.76 65.63 41.76 67.02 Z" />
</g>
<g id="#3040d0ff">
<path fill="#3040d0" opacity="1.00" d=" M 20.00 64.13 C 21.39 64.22 22.78 64.31 24.17 64.40 C 24.60 65.45 25.03 66.51 25.45 67.56 C 27.31 67.07 29.75 64.58 31.38 66.73 C 32.77 69.54 28.73 70.31 26.97 71.27 C 27.47 72.20 27.98 73.13 28.48 74.06 C 27.22 74.58 25.96 75.11 24.69 75.64 C 22.63 72.02 21.09 68.14 20.00 64.13 Z" />
</g>
<g id="#303cd0ff">
<path fill="#303cd0" opacity="1.00" d=" M 86.36 67.36 C 87.38 64.36 90.56 66.80 92.40 67.47 C 92.64 67.14 93.13 66.49 93.38 66.16 C 94.65 66.43 95.92 66.71 97.20 66.99 C 96.14 69.93 94.88 72.80 93.37 75.54 C 92.07 75.07 90.76 74.61 89.46 74.15 C 89.98 73.18 90.50 72.22 91.02 71.26 C 89.38 70.23 86.01 69.96 86.36 67.36 Z" />
</g>
<g id="#1838c8ff">
<path fill="#1838c8" opacity="1.00" d=" M 28.48 74.06 C 30.10 76.52 32.20 78.62 33.85 81.06 C 35.01 82.61 32.80 84.47 31.31 83.67 C 28.58 81.48 26.65 78.50 24.69 75.64 C 25.96 75.11 27.22 74.58 28.48 74.06 Z" />
<path fill="#1838c8" opacity="1.00" d=" M 84.11 81.09 C 85.77 78.68 87.84 76.59 89.46 74.15 C 90.76 74.61 92.07 75.07 93.37 75.54 C 91.40 78.42 89.47 81.44 86.71 83.64 C 85.20 84.44 83.08 82.74 84.11 81.09 Z" />
</g>
<g id="#ac77e7ff">
<path fill="#ac77e7" opacity="1.00" d=" M 52.16 82.60 C 51.00 79.22 54.29 75.97 57.66 77.17 C 56.49 79.58 54.57 81.45 52.16 82.60 Z" />
</g>
<g id="#8155e8ff">
<path fill="#8155e8" opacity="1.00" d=" M 57.66 77.17 C 58.37 77.82 59.08 78.47 59.79 79.11 C 58.35 81.42 56.40 83.33 54.06 84.73 C 53.43 84.01 52.80 83.30 52.16 82.60 C 54.57 81.45 56.49 79.58 57.66 77.17 Z" />
</g>
<g id="#4d2fcfff">
<path fill="#4d2fcf" opacity="1.00" d=" M 59.79 79.11 C 61.11 82.66 57.60 86.16 54.06 84.73 C 56.40 83.33 58.35 81.42 59.79 79.11 Z" />
</g>
</svg>
