<?xml version="1.0" encoding="UTF-8" ?>
<!DOCTYPE svg PUBLIC "-//W3C//DTD SVG 1.1//EN" "http://www.w3.org/Graphics/SVG/1.1/DTD/svg11.dtd">
<svg width="117px" height="140px" viewBox="0 0 117 140" version="1.1" xmlns="http://www.w3.org/2000/svg">
<g id="#181818ff">
<path fill="#181818" opacity="1.00" d=" M 0.00 0.00 L 117.00 0.00 L 117.00 140.00 L 0.00 140.00 L 0.00 0.00 M 45.32 35.43 C 45.32 47.28 45.36 59.13 45.38 70.98 C 47.74 70.97 50.10 70.96 52.46 70.95 C 52.44 59.12 52.54 47.28 52.51 35.44 C 50.11 35.42 47.71 35.42 45.32 35.43 M 61.93 44.08 C 60.57 44.20 59.21 44.32 57.85 44.44 C 57.85 46.20 57.85 47.96 57.85 49.72 C 58.78 49.72 60.65 49.70 61.58 49.69 C 61.75 54.12 61.50 58.54 61.73 62.96 C 61.87 65.81 62.89 68.96 65.53 70.43 C 68.73 72.32 72.59 71.51 76.01 70.79 C 75.72 69.11 75.38 67.44 75.10 65.76 C 73.05 66.19 69.76 66.57 69.09 63.92 C 68.20 59.26 68.91 54.44 68.72 49.72 C 70.92 49.70 73.12 49.71 75.32 49.68 C 75.32 47.82 75.32 45.97 75.32 44.11 C 73.12 44.09 70.93 44.11 68.74 44.08 C 68.72 41.69 68.73 39.30 68.73 36.92 C 66.75 36.92 64.77 36.92 62.79 36.92 C 62.49 39.30 62.21 41.69 61.93 44.08 Z" />
</g>
<g id="#f8a954ff">
<path fill="#f8a954" opacity="1.00" d=" M 45.32 35.43 C 47.71 35.42 50.11 35.42 52.51 35.44 C 52.54 47.28 52.44 59.12 52.46 70.95 C 50.10 70.96 47.74 70.97 45.38 70.98 C 45.36 59.13 45.32 47.28 45.32 35.43 Z" />
<path fill="#f8a954" opacity="1.00" d=" M 61.93 44.08 C 62.21 41.69 62.49 39.30 62.79 36.92 C 64.77 36.92 66.75 36.92 68.73 36.92 C 68.73 39.30 68.72 41.69 68.74 44.08 C 70.93 44.11 73.12 44.09 75.32 44.11 C 75.32 45.97 75.32 47.82 75.32 49.68 C 73.12 49.71 70.92 49.70 68.72 49.72 C 68.91 54.44 68.20 59.26 69.09 63.92 C 69.76 66.57 73.05 66.19 75.10 65.76 C 75.38 67.44 75.72 69.11 76.01 70.79 C 72.59 71.51 68.73 72.32 65.53 70.43 C 62.89 68.96 61.87 65.81 61.73 62.96 C 61.50 58.54 61.75 54.12 61.58 49.69 C 60.65 49.70 58.78 49.72 57.85 49.72 C 57.85 47.96 57.85 46.20 57.85 44.44 C 59.21 44.32 60.57 44.20 61.93 44.08 Z" />
</g>
</svg>
