<?xml version="1.0" encoding="UTF-8" ?>
<!DOCTYPE svg PUBLIC "-//W3C//DTD SVG 1.1//EN" "http://www.w3.org/Graphics/SVG/1.1/DTD/svg11.dtd">
<svg width="150px" height="80px" viewBox="0 0 150 80" version="1.1" xmlns="http://www.w3.org/2000/svg">
<g id="#181818ff">
<path fill="#181818" opacity="1.00" d=" M 0.00 0.00 L 150.00 0.00 L 150.00 80.00 L 0.00 80.00 L 0.00 0.00 M 32.35 30.32 C 30.87 30.89 30.00 32.45 30.03 34.00 C 29.91 37.99 29.87 42.00 30.08 45.99 C 30.00 48.12 31.88 50.00 34.02 49.88 C 38.00 50.07 42.00 50.03 45.98 49.81 C 48.06 49.92 49.92 48.07 49.80 45.99 C 50.03 42.00 50.07 38.00 49.88 34.02 C 49.98 31.89 48.12 30.00 45.99 30.08 C 41.46 30.00 36.83 29.61 32.35 30.32 Z" />
</g>
<g id="#f8ab56ff">
<path fill="#f8ab56" opacity="1.00" d=" M 32.35 30.32 C 36.83 29.61 41.46 30.00 45.99 30.08 C 48.12 30.00 49.98 31.89 49.88 34.02 C 50.07 38.00 50.03 42.00 49.80 45.99 C 49.92 48.07 48.06 49.92 45.98 49.81 C 42.00 50.03 38.00 50.07 34.02 49.88 C 31.88 50.00 30.00 48.12 30.08 45.99 C 29.87 42.00 29.91 37.99 30.03 34.00 C 30.00 32.45 30.87 30.89 32.35 30.32 Z" />
</g>
</svg>
