<?xml version="1.0" encoding="UTF-8" ?>
<!DOCTYPE svg PUBLIC "-//W3C//DTD SVG 1.1//EN" "http://www.w3.org/Graphics/SVG/1.1/DTD/svg11.dtd">
<svg width="117px" height="140px" viewBox="0 0 117 140" version="1.1" xmlns="http://www.w3.org/2000/svg">
<g id="#181818ff">
<path fill="#181818" opacity="1.00" d=" M 0.00 0.00 L 117.00 0.00 L 117.00 140.00 L 0.00 140.00 L 0.00 0.00 M 31.76 14.76 C 29.46 16.84 29.68 20.25 31.16 22.74 C 33.52 25.16 37.65 25.85 40.08 23.14 C 42.85 20.77 42.26 16.49 39.76 14.15 C 37.26 12.68 33.85 12.45 31.76 14.76 M 83.85 37.08 C 65.89 36.92 47.93 37.00 29.96 37.03 C 23.11 36.87 17.23 42.03 15.33 48.42 C 15.01 50.86 15.09 53.33 15.39 55.77 C 16.18 58.13 17.45 60.27 18.93 62.26 C 22.14 65.33 26.43 67.18 30.91 66.98 C 49.60 67.01 68.28 66.99 86.97 66.99 C 91.54 67.20 95.96 65.33 99.18 62.12 C 101.23 59.50 102.51 56.42 103.08 53.15 C 102.89 51.36 102.69 49.58 102.48 47.80 C 100.80 42.94 96.97 38.83 91.90 37.53 C 92.20 36.16 91.20 34.95 90.71 33.75 C 87.89 32.09 84.04 33.61 83.85 37.08 M 46.89 79.79 L 48.26 79.37 L 47.47 80.12 C 48.90 80.78 50.98 81.74 52.11 80.06 C 53.72 78.90 52.84 76.84 52.02 75.49 C 49.05 73.63 46.08 76.70 46.89 79.79 Z" />
<path fill="#181818" opacity="1.00" d=" M 19.38 48.50 C 21.13 44.25 25.21 40.91 29.96 41.03 C 48.64 40.76 67.34 41.21 86.03 40.79 C 87.44 40.78 88.86 40.75 90.27 40.68 C 93.36 42.12 96.24 44.13 98.00 47.12 C 98.75 49.36 98.99 51.72 98.95 54.08 C 98.19 56.22 97.08 58.23 95.69 60.03 C 93.18 61.91 90.20 63.16 87.01 62.99 C 70.33 63.03 53.65 62.97 36.97 63.01 C 32.48 63.01 27.67 63.47 23.63 61.11 C 21.96 59.51 20.54 57.65 19.47 55.60 C 19.05 53.26 19.03 50.86 19.38 48.50 M 25.09 47.09 C 21.91 49.92 22.47 55.50 26.15 57.67 L 25.95 58.01 C 28.44 59.02 31.14 59.08 33.79 59.00 C 35.43 58.97 37.08 58.98 38.72 59.00 C 40.81 59.00 42.89 58.99 44.97 59.00 C 45.01 55.91 45.03 52.81 44.91 49.72 C 45.09 48.15 45.02 46.56 45.02 44.99 C 44.27 45.00 42.78 45.02 42.03 45.02 C 39.36 44.99 36.68 45.02 34.01 44.98 C 30.96 45.02 27.34 44.55 25.09 47.09 Z" />
</g>
<g id="#409cd8ff">
<path fill="#409cd8" opacity="1.00" d=" M 31.76 14.76 C 33.85 12.45 37.26 12.68 39.76 14.15 C 37.49 17.56 34.56 20.45 31.16 22.74 C 29.68 20.25 29.46 16.84 31.76 14.76 Z" />
</g>
<g id="#2854c8ff">
<path fill="#2854c8" opacity="1.00" d=" M 39.76 14.15 C 42.26 16.49 42.85 20.77 40.08 23.14 C 37.65 25.85 33.52 25.16 31.16 22.74 C 34.56 20.45 37.49 17.56 39.76 14.15 Z" />
</g>
<g id="#f8cc98ff">
<path fill="#f8cc98" opacity="1.00" d=" M 83.85 37.08 C 84.04 33.61 87.89 32.09 90.71 33.75 C 88.80 35.67 86.84 37.54 84.86 39.39 C 84.61 38.81 84.11 37.66 83.85 37.08 Z" />
</g>
<g id="#f8a4a0ff">
<path fill="#f8a4a0" opacity="1.00" d=" M 90.71 33.75 C 91.20 34.95 92.20 36.16 91.90 37.53 C 91.39 38.60 90.83 39.64 90.27 40.68 C 88.86 40.75 87.44 40.78 86.03 40.79 C 85.74 40.44 85.15 39.74 84.86 39.39 C 86.84 37.54 88.80 35.67 90.71 33.75 Z" />
</g>
<g id="#9060f8ff">
<path fill="#9060f8" opacity="1.00" d=" M 15.33 48.42 C 17.23 42.03 23.11 36.87 29.96 37.03 C 47.93 37.00 65.89 36.92 83.85 37.08 C 84.11 37.66 84.61 38.81 84.86 39.39 C 85.15 39.74 85.74 40.44 86.03 40.79 C 67.34 41.21 48.64 40.76 29.96 41.03 C 25.21 40.91 21.13 44.25 19.38 48.50 C 18.37 48.48 16.34 48.44 15.33 48.42 Z" />
</g>
<g id="#805cf0ff">
<path fill="#805cf0" opacity="1.00" d=" M 91.90 37.53 C 96.97 38.83 100.80 42.94 102.48 47.80 C 100.98 47.58 99.49 47.35 98.00 47.12 C 96.24 44.13 93.36 42.12 90.27 40.68 C 90.83 39.64 91.39 38.60 91.90 37.53 Z" />
</g>
<g id="#f8cc70ff">
<path fill="#f8cc70" opacity="1.00" d=" M 25.09 47.09 C 27.34 44.55 30.96 45.02 34.01 44.98 C 31.26 49.12 28.60 53.33 26.15 57.67 C 22.47 55.50 21.91 49.92 25.09 47.09 Z" />
</g>
<g id="#f8b058ff">
<path fill="#f8b058" opacity="1.00" d=" M 34.01 44.98 C 36.68 45.02 39.36 44.99 42.03 45.02 C 39.38 49.74 36.30 54.21 33.79 59.00 C 31.14 59.08 28.44 59.02 25.95 58.01 L 26.15 57.67 C 28.60 53.33 31.26 49.12 34.01 44.98 Z" />
</g>
<g id="#f89448ff">
<path fill="#f89448" opacity="1.00" d=" M 42.03 45.02 C 42.78 45.02 44.27 45.00 45.02 44.99 C 45.02 46.56 45.09 48.15 44.91 49.72 C 43.02 52.93 40.76 55.89 38.72 59.00 C 37.08 58.98 35.43 58.97 33.79 59.00 C 36.30 54.21 39.38 49.74 42.03 45.02 Z" />
</g>
<g id="#6050e0ff">
<path fill="#6050e0" opacity="1.00" d=" M 98.00 47.12 C 99.49 47.35 100.98 47.58 102.48 47.80 C 102.69 49.58 102.89 51.36 103.08 53.15 C 101.70 53.45 100.33 53.76 98.95 54.08 C 98.99 51.72 98.75 49.36 98.00 47.12 Z" />
</g>
<g id="#584ce0ff">
<path fill="#584ce0" opacity="1.00" d=" M 15.33 48.42 C 16.34 48.44 18.37 48.48 19.38 48.50 C 19.03 50.86 19.05 53.26 19.47 55.60 C 18.45 55.64 16.41 55.73 15.39 55.77 C 15.09 53.33 15.01 50.86 15.33 48.42 Z" />
</g>
<g id="#f88038ff">
<path fill="#f88038" opacity="1.00" d=" M 38.72 59.00 C 40.76 55.89 43.02 52.93 44.91 49.72 C 45.03 52.81 45.01 55.91 44.97 59.00 C 42.89 58.99 40.81 59.00 38.72 59.00 Z" />
</g>
<g id="#4044d8ff">
<path fill="#4044d8" opacity="1.00" d=" M 98.95 54.08 C 100.33 53.76 101.70 53.45 103.08 53.15 C 102.51 56.42 101.23 59.50 99.18 62.12 C 98.02 61.42 96.85 60.73 95.69 60.03 C 97.08 58.23 98.19 56.22 98.95 54.08 Z" />
</g>
<g id="#3840d0ff">
<path fill="#3840d0" opacity="1.00" d=" M 15.39 55.77 C 16.41 55.73 18.45 55.64 19.47 55.60 C 20.54 57.65 21.96 59.51 23.63 61.11 C 22.06 61.48 20.49 61.86 18.93 62.26 C 17.45 60.27 16.18 58.13 15.39 55.77 Z" />
</g>
<g id="#2038c8ff">
<path fill="#2038c8" opacity="1.00" d=" M 87.01 62.99 C 90.20 63.16 93.18 61.91 95.69 60.03 C 96.85 60.73 98.02 61.42 99.18 62.12 C 95.96 65.33 91.54 67.20 86.97 66.99 C 68.28 66.99 49.60 67.01 30.91 66.98 C 26.43 67.18 22.14 65.33 18.93 62.26 C 20.49 61.86 22.06 61.48 23.63 61.11 C 27.67 63.47 32.48 63.01 36.97 63.01 C 53.65 62.97 70.33 63.03 87.01 62.99 Z" />
</g>
<g id="#aed849ff">
<path fill="#aed849" opacity="1.00" d=" M 46.89 79.79 C 46.08 76.70 49.05 73.63 52.02 75.49 C 50.81 76.82 49.60 78.17 48.26 79.37 L 46.89 79.79 Z" />
</g>
<g id="#85d193ff">
<path fill="#85d193" opacity="1.00" d=" M 52.02 75.49 C 52.84 76.84 53.72 78.90 52.11 80.06 C 50.98 81.74 48.90 80.78 47.47 80.12 L 48.26 79.37 C 49.60 78.17 50.81 76.82 52.02 75.49 Z" />
</g>
</svg>
