<?xml version="1.0" encoding="UTF-8" ?>
<!DOCTYPE svg PUBLIC "-//W3C//DTD SVG 1.1//EN" "http://www.w3.org/Graphics/SVG/1.1/DTD/svg11.dtd">
<svg width="200px" height="200px" viewBox="0 0 200 200" version="1.1" xmlns="http://www.w3.org/2000/svg">
<g id="#181818ff">
<path fill="#181818" opacity="1.00" d=" M 0.00 0.00 L 200.00 0.00 L 200.00 200.00 L 0.00 200.00 L 0.00 0.00 M 43.56 66.52 C 37.79 74.55 34.11 84.08 33.09 93.93 C 30.98 112.06 38.11 131.07 51.89 143.11 C 62.82 152.63 77.53 158.15 92.09 156.88 C 101.63 156.38 110.67 152.56 118.71 147.62 C 128.38 141.27 135.56 131.54 139.74 120.84 C 144.25 109.52 144.52 96.85 141.64 85.09 C 128.00 88.39 114.77 93.19 101.15 96.58 C 101.71 100.53 102.99 104.31 104.14 108.11 C 110.32 107.00 116.18 104.64 122.28 103.17 C 121.22 119.45 107.43 134.02 91.02 135.17 C 77.35 136.60 63.75 128.47 57.69 116.30 C 53.91 109.25 53.64 101.01 54.10 93.21 C 57.15 80.74 66.65 69.51 79.36 66.31 C 84.94 64.61 90.78 65.36 96.48 65.70 C 99.56 59.10 103.23 52.80 106.68 46.39 C 101.20 45.09 95.73 43.46 90.05 43.32 C 72.05 42.89 53.83 51.59 43.56 66.52 M 156.39 141.34 C 151.06 143.96 151.51 152.94 157.33 154.61 C 162.28 156.52 167.92 151.47 166.60 146.36 C 165.92 141.85 160.37 138.97 156.39 141.34 Z" />
</g>
<g id="#708cc8ff">
<path fill="#708cc8" opacity="1.00" d=" M 43.56 66.52 C 53.83 51.59 72.05 42.89 90.05 43.32 C 95.73 43.46 101.20 45.09 106.68 46.39 C 103.23 52.80 99.56 59.10 96.48 65.70 C 90.78 65.36 84.94 64.61 79.36 66.31 C 66.65 69.51 57.15 80.74 54.10 93.21 C 53.64 101.01 53.91 109.25 57.69 116.30 C 63.75 128.47 77.35 136.60 91.02 135.17 C 107.43 134.02 121.22 119.45 122.28 103.17 C 116.18 104.64 110.32 107.00 104.14 108.11 C 102.99 104.31 101.71 100.53 101.15 96.58 C 114.77 93.19 128.00 88.39 141.64 85.09 C 144.52 96.85 144.25 109.52 139.74 120.84 C 135.56 131.54 128.38 141.27 118.71 147.62 C 110.67 152.56 101.63 156.38 92.09 156.88 C 77.53 158.15 62.82 152.63 51.89 143.11 C 38.11 131.07 30.98 112.06 33.09 93.93 C 34.11 84.08 37.79 74.55 43.56 66.52 Z" />
<path fill="#708cc8" opacity="1.00" d=" M 156.39 141.34 C 160.37 138.97 165.92 141.85 166.60 146.36 C 167.92 151.47 162.28 156.52 157.33 154.61 C 151.51 152.94 151.06 143.96 156.39 141.34 Z" />
</g>
</svg>
