<?xml version="1.0" encoding="UTF-8" ?>
<!DOCTYPE svg PUBLIC "-//W3C//DTD SVG 1.1//EN" "http://www.w3.org/Graphics/SVG/1.1/DTD/svg11.dtd">
<svg width="117px" height="140px" viewBox="0 0 117 140" version="1.1" xmlns="http://www.w3.org/2000/svg">
<g id="#181818ff">
<path fill="#181818" opacity="1.00" d=" M 0.00 0.00 L 117.00 0.00 L 117.00 140.00 L 0.00 140.00 L 0.00 0.00 M 34.14 13.25 C 30.05 14.44 28.40 20.32 31.84 23.13 C 34.88 26.59 41.19 24.39 41.75 19.94 C 42.73 15.81 38.12 11.72 34.14 13.25 M 83.44 37.02 C 65.64 36.95 47.84 37.05 30.04 36.98 C 25.11 36.80 20.34 39.48 17.58 43.51 C 14.28 48.24 14.18 54.87 17.24 59.74 C 19.87 64.09 24.87 66.90 29.97 66.79 C 49.32 66.86 68.68 66.85 88.03 66.80 C 95.25 67.02 101.94 61.19 102.83 54.04 C 104.05 46.86 99.16 39.40 92.15 37.53 C 91.86 35.31 90.52 32.93 87.97 32.97 C 85.55 32.84 84.43 35.24 83.44 37.02 M 48.44 75.48 C 46.86 76.36 46.61 78.91 47.99 80.07 C 49.58 81.67 53.06 80.56 52.78 78.05 C 53.13 75.75 50.26 74.35 48.44 75.48 Z" />
<path fill="#181818" opacity="1.00" d=" M 19.05 52.02 C 18.94 46.20 24.16 41.04 29.97 41.09 C 48.66 40.83 67.37 41.18 86.06 40.92 C 87.38 40.86 88.69 40.78 90.01 40.68 C 93.01 42.20 96.27 43.91 97.75 47.12 C 100.34 51.87 98.59 58.31 94.06 61.21 C 91.45 63.10 88.11 63.18 85.02 63.20 C 66.67 63.05 48.31 63.28 29.96 63.09 C 24.10 63.14 18.88 57.89 19.05 52.02 M 23.03 50.87 C 22.28 54.87 25.80 59.04 29.86 58.96 C 34.89 59.10 39.92 58.89 44.96 58.94 C 44.92 54.31 44.93 49.67 44.98 45.04 C 39.97 45.07 34.96 44.91 29.95 45.02 C 26.62 44.93 23.62 47.66 23.03 50.87 M 48.00 45.00 C 48.00 49.67 48.00 54.33 48.00 59.00 C 55.32 59.02 62.64 58.96 69.96 58.95 C 69.93 54.31 69.94 49.67 69.97 45.04 C 62.65 45.00 55.32 44.99 48.00 45.00 Z" />
</g>
<g id="#4a49dbff">
<path fill="#4a49db" opacity="1.00" d=" M 34.14 13.25 C 38.12 11.72 42.73 15.81 41.75 19.94 C 41.19 24.39 34.88 26.59 31.84 23.13 C 28.40 20.32 30.05 14.44 34.14 13.25 Z" />
<path fill="#4a49db" opacity="1.00" d=" M 17.58 43.51 C 20.34 39.48 25.11 36.80 30.04 36.98 C 47.84 37.05 65.64 36.95 83.44 37.02 C 84.33 38.31 85.20 39.61 86.06 40.92 C 67.37 41.18 48.66 40.83 29.97 41.09 C 24.16 41.04 18.94 46.20 19.05 52.02 C 18.88 57.89 24.10 63.14 29.96 63.09 C 48.31 63.28 66.67 63.05 85.02 63.20 C 88.11 63.18 91.45 63.10 94.06 61.21 C 98.59 58.31 100.34 51.87 97.75 47.12 C 96.27 43.91 93.01 42.20 90.01 40.68 C 90.72 39.63 91.43 38.58 92.15 37.53 C 99.16 39.40 104.05 46.86 102.83 54.04 C 101.94 61.19 95.25 67.02 88.03 66.80 C 68.68 66.85 49.32 66.86 29.97 66.79 C 24.87 66.90 19.87 64.09 17.24 59.74 C 14.18 54.87 14.28 48.24 17.58 43.51 Z" />
</g>
<g id="#f8c86dff">
<path fill="#f8c86d" opacity="1.00" d=" M 83.44 37.02 C 84.43 35.24 85.55 32.84 87.97 32.97 C 90.52 32.93 91.86 35.31 92.15 37.53 C 91.43 38.58 90.72 39.63 90.01 40.68 C 88.69 40.78 87.38 40.86 86.06 40.92 C 85.20 39.61 84.33 38.31 83.44 37.02 Z" />
<path fill="#f8c86d" opacity="1.00" d=" M 23.03 50.87 C 23.62 47.66 26.62 44.93 29.95 45.02 C 34.96 44.91 39.97 45.07 44.98 45.04 C 44.93 49.67 44.92 54.31 44.96 58.94 C 39.92 58.89 34.89 59.10 29.86 58.96 C 25.80 59.04 22.28 54.87 23.03 50.87 Z" />
<path fill="#f8c86d" opacity="1.00" d=" M 48.44 75.48 C 50.26 74.35 53.13 75.75 52.78 78.05 C 53.06 80.56 49.58 81.67 47.99 80.07 C 46.61 78.91 46.86 76.36 48.44 75.48 Z" />
</g>
<g id="#f89141ff">
<path fill="#f89141" opacity="1.00" d=" M 48.00 45.00 C 55.32 44.99 62.65 45.00 69.97 45.04 C 69.94 49.67 69.93 54.31 69.96 58.95 C 62.64 58.96 55.32 59.02 48.00 59.00 C 48.00 54.33 48.00 49.67 48.00 45.00 Z" />
</g>
</svg>
