<?xml version="1.0" encoding="UTF-8" ?>
<!DOCTYPE svg PUBLIC "-//W3C//DTD SVG 1.1//EN" "http://www.w3.org/Graphics/SVG/1.1/DTD/svg11.dtd">
<svg width="117px" height="140px" viewBox="0 0 117 140" version="1.1" xmlns="http://www.w3.org/2000/svg">
<g id="#181818ff">
<path fill="#181818" opacity="1.00" d=" M 0.00 0.00 L 117.00 0.00 L 117.00 140.00 L 0.00 140.00 L 0.00 0.00 M 21.48 8.59 C 20.71 9.93 19.88 11.32 20.02 12.93 C 19.92 22.78 20.07 32.63 20.00 42.48 C 19.95 53.95 20.08 65.42 20.03 76.90 C 20.12 81.14 19.57 85.46 20.41 89.65 C 21.47 92.40 24.75 91.81 27.07 91.77 C 28.22 91.71 29.36 91.65 30.50 91.60 C 30.81 91.17 31.42 90.31 31.73 89.88 C 31.63 90.40 31.44 91.44 31.34 91.96 C 49.56 92.03 67.78 91.96 86.01 92.00 C 89.02 91.98 92.05 92.19 95.04 91.76 C 96.74 91.46 97.93 89.77 97.90 88.09 C 98.19 82.81 97.94 77.51 97.98 72.22 C 97.97 62.23 98.03 52.25 98.00 42.27 C 97.97 33.94 97.99 25.61 98.03 17.28 C 97.96 14.98 98.20 12.62 97.60 10.37 C 96.56 7.69 93.32 8.01 91.00 7.97 C 71.86 8.09 52.71 7.88 33.57 8.08 C 32.71 5.40 29.76 3.42 26.92 4.00 C 24.36 4.35 23.03 6.82 21.48 8.59 Z" />
<path fill="#181818" opacity="1.00" d=" M 31.52 14.57 C 32.35 13.67 33.18 12.77 34.01 11.86 C 51.34 12.18 68.68 11.91 86.01 12.00 C 86.01 13.71 86.00 15.42 86.00 17.12 C 86.00 19.59 86.00 22.06 86.00 24.53 C 83.86 24.82 82.19 25.96 81.31 27.95 C 76.88 28.03 72.44 27.99 68.01 28.00 C 67.58 25.17 69.15 21.30 66.84 19.19 C 61.62 18.81 56.35 18.83 51.13 19.17 C 48.87 21.35 50.41 25.15 49.98 28.00 C 45.54 27.99 41.11 28.03 36.67 27.96 C 35.90 25.89 34.11 24.96 32.07 24.51 C 31.96 21.20 31.74 17.88 31.52 14.57 Z" />
<path fill="#181818" opacity="1.00" d=" M 87.99 12.00 C 90.00 12.00 92.00 12.00 94.01 12.00 C 94.01 13.75 94.00 15.49 94.00 17.23 C 93.97 25.56 94.04 33.89 94.01 42.22 C 93.90 52.16 94.19 62.09 94.02 72.03 C 93.97 77.35 94.01 82.67 94.01 88.00 C 92.00 88.00 90.00 88.00 88.00 88.00 C 87.96 79.31 88.18 70.61 87.70 61.93 C 90.07 62.07 92.97 60.81 92.86 58.04 C 93.14 55.31 90.33 53.92 87.99 53.95 C 87.87 49.78 87.90 45.61 87.97 41.44 C 89.28 40.74 91.88 41.09 91.82 39.03 C 92.18 34.74 92.23 30.39 91.79 26.10 C 90.83 25.07 89.23 25.08 88.00 24.53 C 88.00 22.08 88.00 19.62 88.00 17.17 C 87.99 15.45 87.99 13.72 87.99 12.00 Z" />
<path fill="#181818" opacity="1.00" d=" M 23.42 14.69 C 25.69 15.42 28.05 15.87 30.44 15.68 C 30.27 18.63 30.07 21.58 29.92 24.54 C 28.70 25.05 27.22 25.13 26.21 26.04 C 25.79 30.64 25.77 35.31 26.27 39.90 C 27.28 40.84 28.80 40.93 30.02 41.48 C 30.15 56.30 30.21 71.13 30.28 85.95 C 28.59 86.52 26.94 87.20 25.27 87.81 C 24.95 87.85 24.32 87.94 24.00 87.99 C 24.00 84.28 24.02 80.58 23.97 76.87 C 23.91 65.41 24.06 53.94 23.99 42.48 C 23.73 33.22 24.60 23.91 23.42 14.69 Z" />
<path fill="#181818" opacity="1.00" d=" M 36.00 30.00 C 40.67 30.00 45.33 30.00 49.99 30.00 C 50.00 32.00 49.98 34.01 49.96 36.01 C 45.30 36.02 40.65 36.01 35.99 36.00 C 35.99 34.00 35.99 32.00 36.00 30.00 Z" />
<path fill="#181818" opacity="1.00" d=" M 68.00 30.00 C 72.66 30.00 77.33 30.00 82.00 30.00 C 82.00 32.00 82.01 34.01 82.01 36.01 C 77.35 36.01 72.69 36.01 68.03 36.01 C 68.00 34.01 67.98 32.00 68.00 30.00 Z" />
<path fill="#181818" opacity="1.00" d=" M 36.66 38.03 C 41.09 37.94 45.52 37.97 49.96 37.98 C 49.96 39.29 50.06 40.58 50.25 41.88 C 51.77 43.66 54.52 42.70 56.59 43.08 C 56.84 43.78 57.35 45.18 57.61 45.88 C 59.90 46.61 61.14 45.31 61.41 43.07 C 63.42 42.88 65.59 43.21 67.47 42.38 C 68.00 40.97 67.94 39.45 68.03 37.98 C 72.46 37.97 76.90 37.94 81.33 38.03 C 82.17 40.05 83.96 41.02 86.00 41.49 C 86.07 46.10 86.38 50.74 85.74 55.32 C 85.15 57.24 84.94 59.31 86.20 61.02 C 85.94 70.01 85.99 79.01 85.99 88.01 C 84.65 88.01 83.31 88.01 81.97 88.00 C 82.01 85.87 82.03 83.75 82.04 81.62 C 82.86 80.81 83.67 80.01 84.48 79.20 C 79.47 78.92 74.45 78.97 69.43 79.02 C 69.71 76.74 70.33 74.41 69.79 72.13 C 68.87 70.83 66.94 71.24 65.57 70.82 C 67.24 66.69 60.44 66.99 61.03 62.99 C 60.78 60.04 64.06 59.22 65.87 57.67 C 66.75 54.61 62.72 55.02 60.85 54.93 C 64.06 52.56 63.38 47.11 59.00 46.80 C 57.13 46.92 55.57 48.33 55.04 50.09 C 54.55 52.01 56.14 53.44 57.06 54.91 C 55.19 55.02 51.28 54.66 52.10 57.67 C 53.91 59.25 57.23 60.03 56.97 63.03 C 57.51 67.01 50.72 66.69 52.43 70.81 C 51.07 71.25 49.07 70.78 48.21 72.13 C 47.60 74.40 48.28 76.75 48.55 79.02 C 43.56 78.97 38.56 78.93 33.58 79.17 C 34.36 79.99 35.15 80.81 35.95 81.63 C 35.96 83.73 35.99 85.83 36.04 87.93 C 34.63 88.02 33.22 88.10 31.82 88.19 L 31.79 87.20 C 31.69 71.97 31.89 56.73 31.98 41.49 C 34.04 41.05 35.83 40.07 36.66 38.03 Z" />
<path fill="#181818" opacity="1.00" d=" M 38.00 81.01 C 44.19 80.98 50.39 81.03 56.58 80.98 C 56.49 82.33 55.47 84.11 57.17 84.85 C 58.43 85.11 59.70 85.10 60.97 84.81 C 62.52 84.01 61.48 82.28 61.44 80.98 C 67.62 81.03 73.81 80.98 80.00 81.01 C 80.00 83.34 80.00 85.67 80.00 88.00 C 66.00 88.02 52.00 88.01 38.00 88.00 C 38.00 85.67 38.00 83.34 38.00 81.01 Z" />
</g>
<g id="#43b9c2ff">
<path fill="#43b9c2" opacity="1.00" d=" M 21.48 8.59 C 23.03 6.82 24.36 4.35 26.92 4.00 C 29.76 3.42 32.71 5.40 33.57 8.08 C 33.74 9.34 33.88 10.60 34.01 11.86 C 33.18 12.77 32.35 13.67 31.52 14.57 C 31.25 14.85 30.71 15.40 30.44 15.68 C 28.05 15.87 25.69 15.42 23.42 14.69 C 22.89 12.62 22.16 10.61 21.48 8.59 Z" />
<path fill="#43b9c2" opacity="1.00" d=" M 25.27 87.81 C 26.94 87.20 28.59 86.52 30.28 85.95 C 30.66 86.27 31.41 86.89 31.79 87.20 L 31.82 88.19 C 31.80 88.61 31.75 89.45 31.73 89.88 C 31.42 90.31 30.81 91.17 30.50 91.60 C 29.36 91.65 28.22 91.71 27.07 91.77 C 26.47 90.45 25.87 89.12 25.27 87.81 Z" />
</g>
<g id="#9763f7ff">
<path fill="#9763f7" opacity="1.00" d=" M 33.57 8.08 C 52.71 7.88 71.86 8.09 91.00 7.97 C 93.32 8.01 96.56 7.69 97.60 10.37 C 98.20 12.62 97.96 14.98 98.03 17.28 C 96.68 17.26 95.34 17.25 94.00 17.23 C 94.00 15.49 94.01 13.75 94.01 12.00 C 92.00 12.00 90.00 12.00 87.99 12.00 C 87.99 13.72 87.99 15.45 88.00 17.17 C 87.50 17.16 86.50 17.13 86.00 17.12 C 86.00 15.42 86.01 13.71 86.01 12.00 C 68.68 11.91 51.34 12.18 34.01 11.86 C 33.88 10.60 33.74 9.34 33.57 8.08 Z" />
</g>
<g id="#7256eaff">
<path fill="#7256ea" opacity="1.00" d=" M 20.02 12.93 C 19.88 11.32 20.71 9.93 21.48 8.59 C 22.16 10.61 22.89 12.62 23.42 14.69 C 24.60 23.91 23.73 33.22 23.99 42.48 C 22.66 42.48 21.33 42.48 20.00 42.48 C 20.07 32.63 19.92 22.78 20.02 12.93 Z" />
<path fill="#7256ea" opacity="1.00" d=" M 30.44 15.68 C 30.71 15.40 31.25 14.85 31.52 14.57 C 31.74 17.88 31.96 21.20 32.07 24.51 C 34.11 24.96 35.90 25.89 36.67 27.96 C 41.11 28.03 45.54 27.99 49.98 28.00 C 49.98 28.50 49.99 29.50 49.99 30.00 C 45.33 30.00 40.67 30.00 36.00 30.00 C 35.99 32.00 35.99 34.00 35.99 36.00 C 40.65 36.01 45.30 36.02 49.96 36.01 C 49.96 36.50 49.96 37.49 49.96 37.98 C 45.52 37.97 41.09 37.94 36.66 38.03 C 35.83 40.07 34.04 41.05 31.98 41.49 C 31.89 56.73 31.69 71.97 31.79 87.20 C 31.41 86.89 30.66 86.27 30.28 85.95 C 30.21 71.13 30.15 56.30 30.02 41.48 C 28.80 40.93 27.28 40.84 26.27 39.90 C 25.77 35.31 25.79 30.64 26.21 26.04 C 27.22 25.13 28.70 25.05 29.92 24.54 C 30.07 21.58 30.27 18.63 30.44 15.68 Z" />
<path fill="#7256ea" opacity="1.00" d=" M 86.00 17.12 C 86.50 17.13 87.50 17.16 88.00 17.17 C 88.00 19.62 88.00 22.08 88.00 24.53 C 89.23 25.08 90.83 25.07 91.79 26.10 C 92.23 30.39 92.18 34.74 91.82 39.03 C 91.88 41.09 89.28 40.74 87.97 41.44 C 87.90 45.61 87.87 49.78 87.99 53.95 C 87.43 54.29 86.30 54.98 85.74 55.32 C 86.38 50.74 86.07 46.10 86.00 41.49 C 83.96 41.02 82.17 40.05 81.33 38.03 C 76.90 37.94 72.46 37.97 68.03 37.98 C 68.03 37.49 68.03 36.51 68.03 36.01 C 72.69 36.01 77.35 36.01 82.01 36.01 C 82.01 34.01 82.00 32.00 82.00 30.00 C 77.33 30.00 72.66 30.00 68.00 30.00 C 68.00 29.50 68.01 28.50 68.01 28.00 C 72.44 27.99 76.88 28.03 81.31 27.95 C 82.19 25.96 83.86 24.82 86.00 24.53 C 86.00 22.06 86.00 19.59 86.00 17.12 Z" />
<path fill="#7256ea" opacity="1.00" d=" M 94.00 17.23 C 95.34 17.25 96.68 17.26 98.03 17.28 C 97.99 25.61 97.97 33.94 98.00 42.27 C 96.67 42.25 95.34 42.24 94.01 42.22 C 94.04 33.89 93.97 25.56 94.00 17.23 Z" />
</g>
<g id="#f8cb6fff">
<path fill="#f8cb6f" opacity="1.00" d=" M 51.13 19.17 C 56.35 18.83 61.62 18.81 66.84 19.19 C 69.15 21.30 67.58 25.17 68.01 28.00 C 68.01 28.50 68.00 29.50 68.00 30.00 C 67.98 32.00 68.00 34.01 68.03 36.01 C 68.03 36.51 68.03 37.49 68.03 37.98 C 67.94 39.45 68.00 40.97 67.47 42.38 C 65.59 43.21 63.42 42.88 61.41 43.07 C 61.14 45.31 59.90 46.61 57.61 45.88 C 57.35 45.18 56.84 43.78 56.59 43.08 C 54.52 42.70 51.77 43.66 50.25 41.88 C 50.06 40.58 49.96 39.29 49.96 37.98 C 49.96 37.49 49.96 36.50 49.96 36.01 C 49.98 34.01 50.00 32.00 49.99 30.00 C 49.99 29.50 49.98 28.50 49.98 28.00 C 50.41 25.15 48.87 21.35 51.13 19.17 Z" />
<path fill="#f8cb6f" opacity="1.00" d=" M 85.74 55.32 C 86.30 54.98 87.43 54.29 87.99 53.95 C 90.33 53.92 93.14 55.31 92.86 58.04 C 92.97 60.81 90.07 62.07 87.70 61.93 C 87.32 61.70 86.58 61.25 86.20 61.02 C 84.94 59.31 85.15 57.24 85.74 55.32 Z" />
</g>
<g id="#4846d9ff">
<path fill="#4846d9" opacity="1.00" d=" M 20.00 42.48 C 21.33 42.48 22.66 42.48 23.99 42.48 C 24.06 53.94 23.91 65.41 23.97 76.87 C 23.48 76.64 22.51 76.19 22.02 75.96 C 21.52 76.20 20.53 76.66 20.03 76.90 C 20.08 65.42 19.95 53.95 20.00 42.48 Z" />
<path fill="#4846d9" opacity="1.00" d=" M 94.01 42.22 C 95.34 42.24 96.67 42.25 98.00 42.27 C 98.03 52.25 97.97 62.23 97.98 72.22 C 96.66 72.15 95.34 72.09 94.02 72.03 C 94.19 62.09 93.90 52.16 94.01 42.22 Z" />
</g>
<g id="#f88a3cff">
<path fill="#f88a3c" opacity="1.00" d=" M 55.04 50.09 C 55.57 48.33 57.13 46.92 59.00 46.80 C 63.38 47.11 64.06 52.56 60.85 54.93 C 62.72 55.02 66.75 54.61 65.87 57.67 C 64.06 59.22 60.78 60.04 61.03 62.99 C 60.44 66.99 67.24 66.69 65.57 70.82 C 66.94 71.24 68.87 70.83 69.79 72.13 C 70.33 74.41 69.71 76.74 69.43 79.02 C 62.47 79.03 55.51 79.03 48.55 79.02 C 48.28 76.75 47.60 74.40 48.21 72.13 C 49.07 70.78 51.07 71.25 52.43 70.81 C 50.72 66.69 57.51 67.01 56.97 63.03 C 57.23 60.03 53.91 59.25 52.10 57.67 C 51.28 54.66 55.19 55.02 57.06 54.91 C 56.14 53.44 54.55 52.01 55.04 50.09 Z" />
</g>
<g id="#1d36c9ff">
<path fill="#1d36c9" opacity="1.00" d=" M 86.20 61.02 C 86.58 61.25 87.32 61.70 87.70 61.93 C 88.18 70.61 87.96 79.31 88.00 88.00 C 90.00 88.00 92.00 88.00 94.01 88.00 C 94.01 82.67 93.97 77.35 94.02 72.03 C 95.34 72.09 96.66 72.15 97.98 72.22 C 97.94 77.51 98.19 82.81 97.90 88.09 C 97.93 89.77 96.74 91.46 95.04 91.76 C 92.05 92.19 89.02 91.98 86.01 92.00 C 67.78 91.96 49.56 92.03 31.34 91.96 C 31.44 91.44 31.63 90.40 31.73 89.88 C 31.75 89.45 31.80 88.61 31.82 88.19 C 33.22 88.10 34.63 88.02 36.04 87.93 C 35.99 85.83 35.96 83.73 35.95 81.63 C 35.15 80.81 34.36 79.99 33.58 79.17 C 38.56 78.93 43.56 78.97 48.55 79.02 C 55.51 79.03 62.47 79.03 69.43 79.02 C 74.45 78.97 79.47 78.92 84.48 79.20 C 83.67 80.01 82.86 80.81 82.04 81.62 C 82.03 83.75 82.01 85.87 81.97 88.00 C 83.31 88.01 84.65 88.01 85.99 88.01 C 85.99 79.01 85.94 70.01 86.20 61.02 M 38.00 81.01 C 38.00 83.34 38.00 85.67 38.00 88.00 C 52.00 88.01 66.00 88.02 80.00 88.00 C 80.00 85.67 80.00 83.34 80.00 81.01 C 73.81 80.98 67.62 81.03 61.44 80.98 C 61.48 82.28 62.52 84.01 60.97 84.81 C 59.70 85.10 58.43 85.11 57.17 84.85 C 55.47 84.11 56.49 82.33 56.58 80.98 C 50.39 81.03 44.19 80.98 38.00 81.01 Z" />
<path fill="#1d36c9" opacity="1.00" d=" M 20.03 76.90 C 20.53 76.66 21.52 76.20 22.02 75.96 C 22.51 76.19 23.48 76.64 23.97 76.87 C 24.02 80.58 24.00 84.28 24.00 87.99 C 24.32 87.94 24.95 87.85 25.27 87.81 C 25.87 89.12 26.47 90.45 27.07 91.77 C 24.75 91.81 21.47 92.40 20.41 89.65 C 19.57 85.46 20.12 81.14 20.03 76.90 Z" />
</g>
</svg>
