<?xml version="1.0" encoding="UTF-8" ?>
<!DOCTYPE svg PUBLIC "-//W3C//DTD SVG 1.1//EN" "http://www.w3.org/Graphics/SVG/1.1/DTD/svg11.dtd">
<svg width="117px" height="140px" viewBox="0 0 117 140" version="1.1" xmlns="http://www.w3.org/2000/svg">
<g id="#181818ff">
<path fill="#181818" opacity="1.00" d=" M 0.00 0.00 L 117.00 0.00 L 117.00 140.00 L 0.00 140.00 L 0.00 0.00 M 48.44 9.47 C 45.11 13.84 46.28 19.57 46.02 24.66 C 45.96 30.20 46.03 35.74 46.00 41.28 C 45.83 46.54 46.36 51.84 45.69 57.08 L 45.22 56.94 C 40.82 60.49 37.62 65.76 37.31 71.48 L 37.03 71.25 C 36.82 75.93 37.55 80.70 39.88 84.83 C 43.70 91.55 51.19 96.01 58.95 95.91 C 66.74 96.05 74.29 91.58 78.12 84.83 C 80.40 80.68 81.32 75.89 80.85 71.20 C 80.07 65.61 77.19 60.42 72.76 56.92 L 72.30 57.06 C 71.64 51.90 72.18 46.69 71.99 41.51 C 71.95 34.28 72.02 27.05 72.01 19.81 C 72.32 15.06 71.11 9.84 67.10 6.86 C 61.60 2.20 52.45 3.49 48.44 9.47 M 29.86 25.95 C 28.38 27.99 28.99 30.65 30.19 32.66 C 32.41 35.27 36.72 35.81 39.10 33.12 C 41.82 30.75 41.30 26.37 38.66 24.15 C 35.83 22.15 31.56 22.83 29.86 25.95 M 83.31 48.37 C 81.12 49.27 80.15 52.40 81.77 54.25 C 83.49 56.98 88.12 56.02 88.77 52.92 C 89.73 49.88 86.10 46.77 83.31 48.37 M 33.92 86.82 C 32.31 88.03 32.89 90.27 34.13 91.51 C 36.90 93.49 40.43 89.94 38.57 87.14 C 37.34 85.96 35.17 85.29 33.92 86.82 Z" />
<path fill="#181818" opacity="1.00" d=" M 52.19 11.16 C 55.52 7.02 62.49 7.03 65.82 11.17 C 67.97 13.46 68.12 16.73 68.04 19.70 C 67.92 27.00 68.08 34.30 68.01 41.61 C 67.98 47.18 67.99 52.75 68.05 58.33 C 73.40 61.92 77.31 67.90 77.02 74.53 C 76.74 77.55 75.96 80.53 74.49 83.20 C 71.18 88.46 65.24 92.08 58.95 91.94 C 52.70 92.04 46.83 88.45 43.54 83.24 C 42.06 80.55 41.25 77.56 40.98 74.51 C 40.69 67.89 44.61 61.91 49.96 58.32 C 50.01 52.67 50.01 47.02 50.00 41.36 C 49.97 35.81 50.04 30.26 49.98 24.71 C 50.16 20.20 48.92 14.89 52.19 11.16 M 55.14 12.14 C 53.62 12.87 53.62 15.17 55.18 15.87 C 57.72 16.08 60.28 16.08 62.83 15.86 C 64.37 15.15 64.38 12.81 62.81 12.13 C 60.26 11.91 57.68 11.88 55.14 12.14 M 55.17 18.12 C 53.62 18.84 53.60 21.18 55.19 21.87 C 57.73 22.10 60.30 22.10 62.84 21.85 C 64.38 21.14 64.34 18.88 62.86 18.12 C 60.30 17.91 57.73 17.90 55.17 18.12 M 55.17 24.12 C 53.62 24.85 53.59 27.21 55.22 27.86 C 57.74 28.12 60.30 28.09 62.82 27.87 C 64.34 27.13 64.38 24.84 62.83 24.12 C 60.28 23.91 57.71 23.89 55.17 24.12 M 55.14 30.12 C 53.64 30.88 53.59 33.18 55.19 33.86 C 57.74 34.11 60.32 34.09 62.88 33.86 C 64.32 33.06 64.39 30.83 62.82 30.12 C 60.27 29.91 57.69 29.89 55.14 30.12 M 55.17 36.11 C 53.64 36.83 53.63 39.07 55.12 39.83 C 57.69 40.09 60.29 40.12 62.86 39.82 C 64.34 39.14 64.35 36.83 62.85 36.17 C 60.30 35.86 57.72 35.93 55.17 36.11 M 54.13 45.99 C 53.81 51.03 54.10 56.09 54.03 61.14 L 53.32 61.09 C 45.91 64.34 42.75 73.99 46.82 80.98 C 49.92 86.23 56.48 89.15 62.43 87.53 C 69.39 85.94 74.03 78.54 72.86 71.56 C 71.86 66.80 68.53 62.57 63.94 60.87 C 63.77 55.68 64.45 50.39 63.65 45.26 C 62.22 40.67 54.86 41.24 54.13 45.99 Z" />
</g>
<g id="#9060f8ff">
<path fill="#9060f8" opacity="1.00" d=" M 48.44 9.47 C 52.45 3.49 61.60 2.20 67.10 6.86 C 71.11 9.84 72.32 15.06 72.01 19.81 C 70.69 19.78 69.36 19.74 68.04 19.70 C 68.12 16.73 67.97 13.46 65.82 11.17 C 62.49 7.03 55.52 7.02 52.19 11.16 C 48.92 14.89 50.16 20.20 49.98 24.71 C 48.66 24.70 47.34 24.68 46.02 24.66 C 46.28 19.57 45.11 13.84 48.44 9.47 Z" />
</g>
<g id="#f8e080ff">
<path fill="#f8e080" opacity="1.00" d=" M 55.14 12.14 C 57.68 11.88 60.26 11.91 62.81 12.13 C 64.38 12.81 64.37 15.15 62.83 15.86 C 60.28 16.08 57.72 16.08 55.18 15.87 C 53.62 15.17 53.62 12.87 55.14 12.14 Z" />
</g>
<g id="#f8d878ff">
<path fill="#f8d878" opacity="1.00" d=" M 55.17 18.12 C 57.73 17.90 60.30 17.91 62.86 18.12 C 64.34 18.88 64.38 21.14 62.84 21.85 C 60.30 22.10 57.73 22.10 55.19 21.87 C 53.60 21.18 53.62 18.84 55.17 18.12 Z" />
</g>
<g id="#7858e8ff">
<path fill="#7858e8" opacity="1.00" d=" M 68.04 19.70 C 69.36 19.74 70.69 19.78 72.01 19.81 C 72.02 27.05 71.95 34.28 71.99 41.51 C 70.66 41.54 69.34 41.58 68.01 41.61 C 68.08 34.30 67.92 27.00 68.04 19.70 Z" />
</g>
<g id="#50ccd8ff">
<path fill="#50ccd8" opacity="1.00" d=" M 29.86 25.95 C 31.56 22.83 35.83 22.15 38.66 24.15 C 36.27 27.39 33.38 30.21 30.19 32.66 C 28.99 30.65 28.38 27.99 29.86 25.95 Z" />
</g>
<g id="#38a0c0ff">
<path fill="#38a0c0" opacity="1.00" d=" M 38.66 24.15 C 41.30 26.37 41.82 30.75 39.10 33.12 C 36.72 35.81 32.41 35.27 30.19 32.66 C 33.38 30.21 36.27 27.39 38.66 24.15 Z" />
</g>
<g id="#f8d070ff">
<path fill="#f8d070" opacity="1.00" d=" M 55.17 24.12 C 57.71 23.89 60.28 23.91 62.83 24.12 C 64.38 24.84 64.34 27.13 62.82 27.87 C 60.30 28.09 57.74 28.12 55.22 27.86 C 53.59 27.21 53.62 24.85 55.17 24.12 Z" />
</g>
<g id="#7054e8ff">
<path fill="#7054e8" opacity="1.00" d=" M 46.02 24.66 C 47.34 24.68 48.66 24.70 49.98 24.71 C 50.04 30.26 49.97 35.81 50.00 41.36 C 48.66 41.33 47.33 41.30 46.00 41.28 C 46.03 35.74 45.96 30.20 46.02 24.66 Z" />
</g>
<g id="#f8c868ff">
<path fill="#f8c868" opacity="1.00" d=" M 55.14 30.12 C 57.69 29.89 60.27 29.91 62.82 30.12 C 64.39 30.83 64.32 33.06 62.88 33.86 C 60.32 34.09 57.74 34.11 55.19 33.86 C 53.59 33.18 53.64 30.88 55.14 30.12 Z" />
</g>
<g id="#f8c068ff">
<path fill="#f8c068" opacity="1.00" d=" M 55.17 36.11 C 57.72 35.93 60.30 35.86 62.85 36.17 C 64.35 36.83 64.34 39.14 62.86 39.82 C 60.29 40.12 57.69 40.09 55.12 39.83 C 53.63 39.07 53.64 36.83 55.17 36.11 Z" />
</g>
<g id="#584ce0ff">
<path fill="#584ce0" opacity="1.00" d=" M 46.00 41.28 C 47.33 41.30 48.66 41.33 50.00 41.36 C 50.01 47.02 50.01 52.67 49.96 58.32 C 48.53 57.91 47.11 57.50 45.69 57.08 C 46.36 51.84 45.83 46.54 46.00 41.28 Z" />
<path fill="#584ce0" opacity="1.00" d=" M 68.01 41.61 C 69.34 41.58 70.66 41.54 71.99 41.51 C 72.18 46.69 71.64 51.90 72.30 57.06 C 70.88 57.49 69.47 57.91 68.05 58.33 C 67.99 52.75 67.98 47.18 68.01 41.61 Z" />
</g>
<g id="#f8ac58ff">
<path fill="#f8ac58" opacity="1.00" d=" M 54.13 45.99 C 54.86 41.24 62.22 40.67 63.65 45.26 C 64.45 50.39 63.77 55.68 63.94 60.87 C 60.63 61.00 57.33 61.42 54.03 61.14 C 54.10 56.09 53.81 51.03 54.13 45.99 Z" />
</g>
<g id="#f08038ff">
<path fill="#f08038" opacity="1.00" d=" M 83.31 48.37 C 86.10 46.77 89.73 49.88 88.77 52.92 C 88.12 56.02 83.49 56.98 81.77 54.25 C 80.15 52.40 81.12 49.27 83.31 48.37 Z" />
</g>
<g id="#4044d8ff">
<path fill="#4044d8" opacity="1.00" d=" M 45.22 56.94 L 45.69 57.08 C 47.11 57.50 48.53 57.91 49.96 58.32 C 44.61 61.91 40.69 67.89 40.98 74.51 C 39.77 73.49 38.55 72.48 37.31 71.48 C 37.62 65.76 40.82 60.49 45.22 56.94 Z" />
<path fill="#4044d8" opacity="1.00" d=" M 72.30 57.06 L 72.76 56.92 C 77.19 60.42 80.07 65.61 80.85 71.20 C 79.56 72.29 78.28 73.40 77.02 74.53 C 77.31 67.90 73.40 61.92 68.05 58.33 C 69.47 57.91 70.88 57.49 72.30 57.06 Z" />
</g>
<g id="#f89440ff">
<path fill="#f89440" opacity="1.00" d=" M 54.03 61.14 C 57.33 61.42 60.63 61.00 63.94 60.87 C 68.53 62.57 71.86 66.80 72.86 71.56 C 63.75 73.43 55.49 77.81 46.82 80.98 C 42.75 73.99 45.91 64.34 53.32 61.09 L 54.03 61.14 Z" />
</g>
<g id="#303cd0ff">
<path fill="#303cd0" opacity="1.00" d=" M 37.03 71.25 L 37.31 71.48 C 38.55 72.48 39.77 73.49 40.98 74.51 C 41.25 77.56 42.06 80.55 43.54 83.24 C 42.31 83.76 41.09 84.29 39.88 84.83 C 37.55 80.70 36.82 75.93 37.03 71.25 Z" />
<path fill="#303cd0" opacity="1.00" d=" M 80.85 71.20 C 81.32 75.89 80.40 80.68 78.12 84.83 C 76.91 84.28 75.70 83.74 74.49 83.20 C 75.96 80.53 76.74 77.55 77.02 74.53 C 78.28 73.40 79.56 72.29 80.85 71.20 Z" />
</g>
<g id="#f88438ff">
<path fill="#f88438" opacity="1.00" d=" M 46.82 80.98 C 55.49 77.81 63.75 73.43 72.86 71.56 C 74.03 78.54 69.39 85.94 62.43 87.53 C 56.48 89.15 49.92 86.23 46.82 80.98 Z" />
</g>
<g id="#1834c8ff">
<path fill="#1834c8" opacity="1.00" d=" M 43.54 83.24 C 46.83 88.45 52.70 92.04 58.95 91.94 C 65.24 92.08 71.18 88.46 74.49 83.20 C 75.70 83.74 76.91 84.28 78.12 84.83 C 74.29 91.58 66.74 96.05 58.95 95.91 C 51.19 96.01 43.70 91.55 39.88 84.83 C 41.09 84.29 42.31 83.76 43.54 83.24 Z" />
</g>
<g id="#3e46ddff">
<path fill="#3e46dd" opacity="1.00" d=" M 33.92 86.82 C 35.17 85.29 37.34 85.96 38.57 87.14 C 37.07 88.57 35.59 90.03 34.13 91.51 C 32.89 90.27 32.31 88.03 33.92 86.82 Z" />
</g>
<g id="#1e2ae1ff">
<path fill="#1e2ae1" opacity="1.00" d=" M 34.13 91.51 C 35.59 90.03 37.07 88.57 38.57 87.14 C 40.43 89.94 36.90 93.49 34.13 91.51 Z" />
</g>
</svg>
