<?xml version="1.0" encoding="UTF-8" ?>
<!DOCTYPE svg PUBLIC "-//W3C//DTD SVG 1.1//EN" "http://www.w3.org/Graphics/SVG/1.1/DTD/svg11.dtd">
<svg width="117px" height="140px" viewBox="0 0 117 140" version="1.1" xmlns="http://www.w3.org/2000/svg">
<g id="#181818ff">
<path fill="#181818" opacity="1.00" d=" M 0.00 0.00 L 117.00 0.00 L 117.00 140.00 L 0.00 140.00 L 0.00 0.00 M 46.09 15.86 C 45.81 24.42 46.19 32.99 46.00 41.55 C 46.01 46.39 45.96 51.24 46.03 56.09 C 42.32 59.31 38.97 63.21 37.81 68.11 C 35.35 76.74 38.86 86.70 46.27 91.80 C 53.82 97.37 65.02 97.17 72.36 91.34 C 79.64 85.91 82.80 75.70 79.89 67.11 C 78.61 62.62 75.40 59.12 71.98 56.11 C 72.02 51.55 72.01 46.99 71.99 42.43 C 71.82 33.59 72.19 24.73 71.92 15.88 C 71.59 9.34 65.55 3.85 59.03 3.96 C 52.50 3.82 46.42 9.30 46.09 15.86 M 30.25 25.37 C 28.35 27.51 28.94 30.53 30.22 32.82 C 32.61 35.19 36.75 35.86 39.14 33.11 C 41.86 30.71 41.19 26.55 38.82 24.17 C 36.09 22.49 32.20 22.56 30.25 25.37 M 83.40 48.36 C 80.88 49.30 80.17 53.05 82.30 54.75 C 84.45 57.12 89.01 55.24 88.79 52.01 C 89.09 49.27 85.82 47.15 83.40 48.36 M 34.33 86.43 C 31.67 87.89 33.15 92.23 36.03 92.05 C 38.43 92.14 40.24 88.65 38.21 86.96 C 37.36 85.77 35.46 85.52 34.33 86.43 Z" />
<path fill="#181818" opacity="1.00" d=" M 51.35 12.40 C 53.26 9.23 57.24 7.35 60.88 8.25 C 64.83 9.10 67.97 12.82 67.94 16.89 C 68.06 25.41 68.05 33.93 68.01 42.44 C 68.29 47.75 67.37 53.29 68.42 58.45 C 73.48 62.42 77.65 68.30 76.91 75.06 C 76.65 85.41 66.10 93.83 55.94 91.73 C 45.34 90.26 38.22 78.11 42.03 68.12 C 43.25 63.78 46.97 61.12 49.88 58.01 C 50.24 52.52 49.89 47.00 50.00 41.50 C 49.89 34.34 50.05 27.18 49.98 20.01 C 50.03 17.45 49.86 14.64 51.35 12.40 M 55.15 12.08 C 53.52 12.76 53.51 15.24 55.15 15.91 C 57.70 16.12 60.27 16.12 62.82 15.91 C 64.50 15.29 64.51 12.71 62.82 12.09 C 60.27 11.88 57.69 11.88 55.15 12.08 M 55.17 18.09 C 53.52 18.75 53.51 21.24 55.16 21.91 C 57.70 22.12 60.26 22.13 62.80 21.91 C 64.50 21.30 64.47 18.79 62.86 18.09 C 60.30 17.88 57.72 17.88 55.17 18.09 M 55.18 24.09 C 53.51 24.73 53.49 27.30 55.20 27.90 C 57.73 28.13 60.30 28.12 62.83 27.91 C 64.45 27.23 64.49 24.74 62.83 24.09 C 60.29 23.87 57.72 23.88 55.18 24.09 M 55.18 30.09 C 53.53 30.75 53.49 33.31 55.21 33.90 C 57.81 34.15 60.43 33.96 63.04 34.06 C 63.99 32.89 64.68 30.84 62.84 30.10 C 60.29 29.87 57.72 29.88 55.18 30.09 M 55.19 36.10 C 52.60 37.20 54.50 40.90 56.98 40.02 C 59.36 39.85 64.69 41.19 63.92 37.17 C 61.84 34.84 58.00 36.31 55.19 36.10 M 54.02 46.93 C 53.91 51.54 54.06 56.16 53.98 60.77 C 48.82 63.06 44.84 68.20 45.04 74.01 C 44.86 81.42 51.53 88.15 58.98 87.89 C 66.41 88.16 73.12 81.46 72.92 74.04 C 73.17 68.24 69.19 63.06 64.02 60.79 C 63.94 56.17 64.10 51.55 63.97 46.93 C 63.98 44.92 62.62 43.02 60.75 42.32 C 57.71 40.95 53.93 43.66 54.02 46.93 Z" />
</g>
<g id="#7760ebff">
<path fill="#7760eb" opacity="1.00" d=" M 46.09 15.86 C 46.42 9.30 52.50 3.82 59.03 3.96 C 65.55 3.85 71.59 9.34 71.92 15.88 C 72.19 24.73 71.82 33.59 71.99 42.43 C 70.66 42.44 69.34 42.44 68.01 42.44 C 68.05 33.93 68.06 25.41 67.94 16.89 C 67.97 12.82 64.83 9.10 60.88 8.25 C 57.24 7.35 53.26 9.23 51.35 12.40 C 49.86 14.64 50.03 17.45 49.98 20.01 C 50.05 27.18 49.89 34.34 50.00 41.50 C 48.66 41.52 47.33 41.54 46.00 41.55 C 46.19 32.99 45.81 24.42 46.09 15.86 Z" />
<path fill="#7760eb" opacity="1.00" d=" M 30.25 25.37 C 32.20 22.56 36.09 22.49 38.82 24.17 C 36.69 27.71 33.78 30.70 30.22 32.82 C 28.94 30.53 28.35 27.51 30.25 25.37 Z" />
</g>
<g id="#f89947ff">
<path fill="#f89947" opacity="1.00" d=" M 55.15 12.08 C 57.69 11.88 60.27 11.88 62.82 12.09 C 64.51 12.71 64.50 15.29 62.82 15.91 C 60.27 16.12 57.70 16.12 55.15 15.91 C 53.51 15.24 53.52 12.76 55.15 12.08 Z" />
<path fill="#f89947" opacity="1.00" d=" M 55.17 18.09 C 57.72 17.88 60.30 17.88 62.86 18.09 C 64.47 18.79 64.50 21.30 62.80 21.91 C 60.26 22.13 57.70 22.12 55.16 21.91 C 53.51 21.24 53.52 18.75 55.17 18.09 Z" />
<path fill="#f89947" opacity="1.00" d=" M 55.18 24.09 C 57.72 23.88 60.29 23.87 62.83 24.09 C 64.49 24.74 64.45 27.23 62.83 27.91 C 60.30 28.12 57.73 28.13 55.20 27.90 C 53.49 27.30 53.51 24.73 55.18 24.09 Z" />
<path fill="#f89947" opacity="1.00" d=" M 55.18 30.09 C 57.72 29.88 60.29 29.87 62.84 30.10 C 64.68 30.84 63.99 32.89 63.04 34.06 C 60.43 33.96 57.81 34.15 55.21 33.90 C 53.49 33.31 53.53 30.75 55.18 30.09 Z" />
<path fill="#f89947" opacity="1.00" d=" M 55.19 36.10 C 58.00 36.31 61.84 34.84 63.92 37.17 C 64.69 41.19 59.36 39.85 56.98 40.02 C 54.50 40.90 52.60 37.20 55.19 36.10 Z" />
<path fill="#f89947" opacity="1.00" d=" M 54.02 46.93 C 53.93 43.66 57.71 40.95 60.75 42.32 C 62.62 43.02 63.98 44.92 63.97 46.93 C 64.10 51.55 63.94 56.17 64.02 60.79 C 69.19 63.06 73.17 68.24 72.92 74.04 C 73.12 81.46 66.41 88.16 58.98 87.89 C 51.53 88.15 44.86 81.42 45.04 74.01 C 44.84 68.20 48.82 63.06 53.98 60.77 C 54.06 56.16 53.91 51.54 54.02 46.93 Z" />
<path fill="#f89947" opacity="1.00" d=" M 83.40 48.36 C 85.82 47.15 89.09 49.27 88.79 52.01 C 89.01 55.24 84.45 57.12 82.30 54.75 C 80.17 53.05 80.88 49.30 83.40 48.36 Z" />
</g>
<g id="#3643d2ff">
<path fill="#3643d2" opacity="1.00" d=" M 38.82 24.17 C 41.19 26.55 41.86 30.71 39.14 33.11 C 36.75 35.86 32.61 35.19 30.22 32.82 C 33.78 30.70 36.69 27.71 38.82 24.17 Z" />
<path fill="#3643d2" opacity="1.00" d=" M 46.00 41.55 C 47.33 41.54 48.66 41.52 50.00 41.50 C 49.89 47.00 50.24 52.52 49.88 58.01 C 46.97 61.12 43.25 63.78 42.03 68.12 C 38.22 78.11 45.34 90.26 55.94 91.73 C 66.10 93.83 76.65 85.41 76.91 75.06 C 77.65 68.30 73.48 62.42 68.42 58.45 C 67.37 53.29 68.29 47.75 68.01 42.44 C 69.34 42.44 70.66 42.44 71.99 42.43 C 72.01 46.99 72.02 51.55 71.98 56.11 C 75.40 59.12 78.61 62.62 79.89 67.11 C 82.80 75.70 79.64 85.91 72.36 91.34 C 65.02 97.17 53.82 97.37 46.27 91.80 C 38.86 86.70 35.35 76.74 37.81 68.11 C 38.97 63.21 42.32 59.31 46.03 56.09 C 45.96 51.24 46.01 46.39 46.00 41.55 Z" />
<path fill="#3643d2" opacity="1.00" d=" M 34.33 86.43 C 35.46 85.52 37.36 85.77 38.21 86.96 C 40.24 88.65 38.43 92.14 36.03 92.05 C 33.15 92.23 31.67 87.89 34.33 86.43 Z" />
</g>
</svg>
