<?xml version="1.0" encoding="UTF-8" ?>
<!DOCTYPE svg PUBLIC "-//W3C//DTD SVG 1.1//EN" "http://www.w3.org/Graphics/SVG/1.1/DTD/svg11.dtd">
<svg width="90px" height="30px" viewBox="0 0 90 30" version="1.1" xmlns="http://www.w3.org/2000/svg">
<g id="#181818ff">
<path fill="#181818" opacity="1.00" d=" M 0.00 0.00 L 14.40 0.00 C 7.00 0.20 0.60 6.39 0.00 13.74 L 0.00 0.00 Z" />
<path fill="#181818" opacity="1.00" d=" M 75.48 0.00 L 90.00 0.00 L 90.00 13.54 C 89.26 6.24 82.87 0.13 75.48 0.00 Z" />
<path fill="#181818" opacity="1.00" d=" M 11.35 2.53 C 13.18 2.00 15.11 2.02 17.00 1.98 C 36.36 2.04 55.73 1.95 75.09 2.03 C 80.45 1.97 85.55 5.61 87.25 10.68 C 89.32 16.25 86.94 23.05 81.81 26.07 C 79.21 27.77 76.03 28.07 73.01 28.02 C 53.66 27.96 34.30 28.05 14.95 27.97 C 9.33 28.07 4.01 24.06 2.53 18.64 C 0.41 12.02 4.64 4.31 11.35 2.53 M 71.38 4.61 C 67.75 5.88 64.93 9.16 64.19 12.93 C 62.96 18.69 67.14 24.81 72.92 25.81 C 79.43 27.30 86.22 21.62 85.99 14.98 C 86.24 7.75 78.18 1.92 71.38 4.61 Z" />
<path fill="#181818" opacity="1.00" d=" M 0.00 16.45 C 0.72 23.51 6.68 29.44 13.79 30.00 L 0.00 30.00 L 0.00 16.45 Z" />
<path fill="#181818" opacity="1.00" d=" M 76.40 30.00 C 83.48 29.31 89.43 23.34 90.00 16.24 L 90.00 30.00 L 76.40 30.00 Z" />
</g>
<g id="#f8f8f8ff">
<path fill="#f8f8f8" opacity="1.00" d=" M 14.40 0.00 L 75.48 0.00 C 82.87 0.13 89.26 6.24 90.00 13.54 L 90.00 16.24 C 89.43 23.34 83.48 29.31 76.40 30.00 L 13.79 30.00 C 6.68 29.44 0.72 23.51 0.00 16.45 L 0.00 13.74 C 0.60 6.39 7.00 0.20 14.40 0.00 M 11.35 2.53 C 4.64 4.31 0.41 12.02 2.53 18.64 C 4.01 24.06 9.33 28.07 14.95 27.97 C 34.30 28.05 53.66 27.96 73.01 28.02 C 76.03 28.07 79.21 27.77 81.81 26.07 C 86.94 23.05 89.32 16.25 87.25 10.68 C 85.55 5.61 80.45 1.97 75.09 2.03 C 55.73 1.95 36.36 2.04 17.00 1.98 C 15.11 2.02 13.18 2.00 11.35 2.53 Z" />
<path fill="#f8f8f8" opacity="1.00" d=" M 71.38 4.61 C 78.18 1.92 86.24 7.75 85.99 14.98 C 86.22 21.62 79.43 27.30 72.92 25.81 C 67.14 24.81 62.96 18.69 64.19 12.93 C 64.93 9.16 67.75 5.88 71.38 4.61 Z" />
</g>
</svg>
