<?xml version="1.0" encoding="UTF-8" ?>
<!DOCTYPE svg PUBLIC "-//W3C//DTD SVG 1.1//EN" "http://www.w3.org/Graphics/SVG/1.1/DTD/svg11.dtd">
<svg width="117px" height="140px" viewBox="0 0 117 140" version="1.1" xmlns="http://www.w3.org/2000/svg">
<g id="#181818ff">
<path fill="#181818" opacity="1.00" d=" M 0.00 0.00 L 117.00 0.00 L 117.00 140.00 L 0.00 140.00 L 0.00 0.00 M 61.18 18.23 C 57.69 19.35 55.60 23.96 57.94 27.06 C 60.05 30.86 66.02 30.76 68.07 26.94 C 71.06 22.64 66.03 16.40 61.18 18.23 M 41.83 43.39 C 40.16 44.86 38.59 46.47 37.14 48.17 C 36.71 49.55 37.58 50.58 38.60 51.37 C 39.91 52.78 41.28 54.13 42.68 55.45 C 44.37 57.16 45.92 59.06 47.95 60.37 C 51.08 60.35 50.27 56.71 50.28 54.67 C 50.38 53.22 50.37 51.77 50.30 50.33 C 50.31 48.06 50.38 45.79 50.29 43.52 C 50.19 41.56 51.26 37.38 47.97 37.72 C 45.47 38.92 43.95 41.62 41.83 43.39 M 68.04 38.93 C 67.91 41.48 68.08 44.03 68.04 46.58 C 67.94 48.33 68.02 50.08 68.05 51.83 C 68.51 54.59 66.50 59.24 70.00 60.41 C 73.51 58.29 76.13 54.85 79.06 51.99 C 80.01 51.14 81.09 50.29 81.42 48.99 C 81.06 47.84 80.30 46.84 79.27 46.21 C 76.73 43.58 74.15 40.98 71.57 38.38 C 70.55 37.11 68.75 37.66 68.04 38.93 M 54.22 46.12 C 50.85 47.29 52.42 52.85 55.92 51.84 C 59.96 51.19 58.08 44.56 54.22 46.12 M 62.23 46.11 C 58.84 47.29 60.42 52.88 63.95 51.83 C 67.96 51.15 66.06 44.57 62.23 46.11 M 38.03 65.14 C 40.27 68.20 45.19 63.34 42.18 61.01 C 39.82 57.50 34.49 62.87 38.03 65.14 M 76.29 68.32 C 73.45 69.44 73.12 73.79 75.85 75.25 C 78.21 76.83 81.86 74.94 81.79 72.06 C 82.19 69.26 78.73 66.94 76.29 68.32 Z" />
<path fill="#181818" opacity="1.00" d=" M 41.92 48.99 C 43.27 47.50 44.73 46.10 46.22 44.73 C 46.31 46.59 46.31 48.44 46.32 50.30 C 46.31 51.37 46.29 52.45 46.29 53.52 C 45.28 52.48 44.28 51.43 43.25 50.42 C 42.91 50.06 42.25 49.35 41.92 48.99 Z" />
</g>
<g id="#60dc48ff">
<path fill="#60dc48" opacity="1.00" d=" M 61.18 18.23 C 66.03 16.40 71.06 22.64 68.07 26.94 C 66.02 30.76 60.05 30.86 57.94 27.06 C 55.60 23.96 57.69 19.35 61.18 18.23 Z" />
</g>
<g id="#8860f0ff">
<path fill="#8860f0" opacity="1.00" d=" M 41.83 43.39 C 43.95 41.62 45.47 38.92 47.97 37.72 C 51.26 37.38 50.19 41.56 50.29 43.52 C 47.47 43.55 44.65 43.52 41.83 43.39 Z" />
</g>
<g id="#8058f0ff">
<path fill="#8058f0" opacity="1.00" d=" M 68.04 38.93 C 68.75 37.66 70.55 37.11 71.57 38.38 C 74.15 40.98 76.73 43.58 79.27 46.21 C 77.70 46.41 76.12 46.66 74.56 46.92 C 73.69 46.07 72.82 45.22 71.93 44.40 C 71.94 44.94 71.96 46.03 71.97 46.57 C 70.66 46.56 69.35 46.57 68.04 46.58 C 68.08 44.03 67.91 41.48 68.04 38.93 Z" />
</g>
<g id="#6050e0ff">
<path fill="#6050e0" opacity="1.00" d=" M 37.14 48.17 C 38.59 46.47 40.16 44.86 41.83 43.39 C 44.65 43.52 47.47 43.55 50.29 43.52 C 50.38 45.79 50.31 48.06 50.30 50.33 C 49.30 50.32 47.31 50.30 46.32 50.30 C 46.31 48.44 46.31 46.59 46.22 44.73 C 44.73 46.10 43.27 47.50 41.92 48.99 C 42.25 49.35 42.91 50.06 43.25 50.42 C 41.70 50.73 40.15 51.04 38.60 51.37 C 37.58 50.58 36.71 49.55 37.14 48.17 Z" />
</g>
<g id="#1c1b22ff">
<path fill="#1c1b22" opacity="1.00" d=" M 71.93 44.40 C 72.82 45.22 73.69 46.07 74.56 46.92 C 75.03 47.45 75.97 48.51 76.44 49.04 C 75.93 49.58 74.90 50.66 74.39 51.20 C 73.79 51.78 73.18 52.36 72.57 52.93 C 72.41 52.91 72.09 52.88 71.93 52.86 C 71.96 50.76 72.04 48.66 71.97 46.57 C 71.96 46.03 71.94 44.94 71.93 44.40 Z" />
</g>
<g id="#f8b058ff">
<path fill="#f8b058" opacity="1.00" d=" M 54.22 46.12 C 58.08 44.56 59.96 51.19 55.92 51.84 C 52.42 52.85 50.85 47.29 54.22 46.12 Z" />
<path fill="#f8b058" opacity="1.00" d=" M 62.23 46.11 C 66.06 44.57 67.96 51.15 63.95 51.83 C 60.42 52.88 58.84 47.29 62.23 46.11 Z" />
</g>
<g id="#584ce0ff">
<path fill="#584ce0" opacity="1.00" d=" M 79.27 46.21 C 80.30 46.84 81.06 47.84 81.42 48.99 C 81.09 50.29 80.01 51.14 79.06 51.99 C 77.50 51.74 75.95 51.46 74.39 51.20 C 74.90 50.66 75.93 49.58 76.44 49.04 C 75.97 48.51 75.03 47.45 74.56 46.92 C 76.12 46.66 77.70 46.41 79.27 46.21 Z" />
<path fill="#584ce0" opacity="1.00" d=" M 68.04 46.58 C 69.35 46.57 70.66 46.56 71.97 46.57 C 72.04 48.66 71.96 50.76 71.93 52.86 C 70.62 52.55 69.33 52.21 68.05 51.83 C 68.02 50.08 67.94 48.33 68.04 46.58 Z" />
</g>
<g id="#4044d8ff">
<path fill="#4044d8" opacity="1.00" d=" M 46.32 50.30 C 47.31 50.30 49.30 50.32 50.30 50.33 C 50.37 51.77 50.38 53.22 50.28 54.67 C 47.75 54.99 45.22 55.29 42.68 55.45 C 41.28 54.13 39.91 52.78 38.60 51.37 C 40.15 51.04 41.70 50.73 43.25 50.42 C 44.28 51.43 45.28 52.48 46.29 53.52 C 46.29 52.45 46.31 51.37 46.32 50.30 Z" />
</g>
<g id="#3040d0ff">
<path fill="#3040d0" opacity="1.00" d=" M 72.57 52.93 C 73.18 52.36 73.79 51.78 74.39 51.20 C 75.95 51.46 77.50 51.74 79.06 51.99 C 76.13 54.85 73.51 58.29 70.00 60.41 C 66.50 59.24 68.51 54.59 68.05 51.83 C 69.33 52.21 70.62 52.55 71.93 52.86 C 72.09 52.88 72.41 52.91 72.57 52.93 Z" />
</g>
<g id="#283cd0ff">
<path fill="#283cd0" opacity="1.00" d=" M 42.68 55.45 C 45.22 55.29 47.75 54.99 50.28 54.67 C 50.27 56.71 51.08 60.35 47.95 60.37 C 45.92 59.06 44.37 57.16 42.68 55.45 Z" />
</g>
<g id="#e0b987ff">
<path fill="#e0b987" opacity="1.00" d=" M 38.03 65.14 C 34.49 62.87 39.82 57.50 42.18 61.01 C 40.84 62.42 39.45 63.79 38.03 65.14 Z" />
</g>
<g id="#da9192ff">
<path fill="#da9192" opacity="1.00" d=" M 42.18 61.01 C 45.19 63.34 40.27 68.20 38.03 65.14 C 39.45 63.79 40.84 62.42 42.18 61.01 Z" />
</g>
<g id="#3078d0ff">
<path fill="#3078d0" opacity="1.00" d=" M 76.29 68.32 C 78.73 66.94 82.19 69.26 81.79 72.06 C 81.86 74.94 78.21 76.83 75.85 75.25 C 73.12 73.79 73.45 69.44 76.29 68.32 Z" />
</g>
</svg>
