<?xml version="1.0" encoding="UTF-8" ?>
<!DOCTYPE svg PUBLIC "-//W3C//DTD SVG 1.1//EN" "http://www.w3.org/Graphics/SVG/1.1/DTD/svg11.dtd">
<svg width="117px" height="92px" viewBox="0 0 117 92" version="1.1" xmlns="http://www.w3.org/2000/svg">
<g id="#181818ff">
<path fill="#181818" opacity="1.00" d=" M 0.00 0.00 L 117.00 0.00 L 117.00 92.00 L 0.00 92.00 L 0.00 0.00 M 17.00 29.03 C 30.01 42.00 42.99 55.01 56.16 67.83 C 57.26 69.35 59.27 68.53 60.83 68.71 C 74.44 55.73 87.61 42.30 100.97 29.06 C 103.54 27.04 102.28 22.61 99.17 22.01 C 72.40 21.99 45.63 21.99 18.87 22.01 C 15.73 22.57 14.48 26.99 17.00 29.03 Z" />
</g>
<g id="#6b53e7ff">
<path fill="#6b53e7" opacity="1.00" d=" M 17.00 29.03 C 14.48 26.99 15.73 22.57 18.87 22.01 C 45.63 21.99 72.40 21.99 99.17 22.01 C 102.28 22.61 103.54 27.04 100.97 29.06 C 87.61 42.30 74.44 55.73 60.83 68.71 C 59.27 68.53 57.26 69.35 56.16 67.83 C 42.99 55.01 30.01 42.00 17.00 29.03 Z" />
</g>
</svg>
