<?xml version="1.0" encoding="UTF-8" ?>
<!DOCTYPE svg PUBLIC "-//W3C//DTD SVG 1.1//EN" "http://www.w3.org/Graphics/SVG/1.1/DTD/svg11.dtd">
<svg width="117px" height="140px" viewBox="0 0 117 140" version="1.1" xmlns="http://www.w3.org/2000/svg">
<g id="#181818ff">
<path fill="#181818" opacity="1.00" d=" M 0.00 0.00 L 117.00 0.00 L 117.00 140.00 L 0.00 140.00 L 0.00 0.00 M 48.92 15.08 C 45.24 16.93 44.03 21.29 46.08 24.84 C 47.15 25.56 48.22 26.29 49.33 26.96 C 49.26 27.96 49.10 29.95 49.03 30.95 C 49.01 35.71 49.00 40.47 49.00 45.23 C 49.01 47.48 48.98 49.74 49.00 52.00 C 44.61 52.05 40.21 51.87 35.82 52.04 C 34.46 51.76 32.58 53.66 33.88 54.87 C 36.23 57.98 39.31 60.43 41.97 63.25 C 44.99 66.31 48.04 69.33 51.08 72.36 C 53.68 74.85 55.92 77.80 59.06 79.66 C 64.78 75.24 69.38 69.53 74.67 64.61 C 77.88 61.03 82.00 58.16 84.55 54.04 C 84.33 51.45 81.14 52.17 79.37 51.92 C 75.92 52.03 72.46 52.01 69.00 52.00 C 69.01 49.53 68.99 47.06 68.99 44.59 C 68.99 40.11 69.01 35.63 69.00 31.15 C 69.05 24.88 68.86 18.61 69.16 12.35 C 68.62 10.68 68.04 8.43 65.95 8.20 C 61.30 7.84 56.59 7.83 51.95 8.19 C 48.77 8.84 48.96 12.58 48.92 15.08 M 22.18 50.13 C 21.82 52.72 22.00 55.34 21.99 57.94 C 22.00 61.22 22.03 64.50 22.01 67.78 C 21.99 70.92 21.99 74.06 22.02 77.21 C 21.99 79.47 21.98 81.74 21.84 84.01 C 23.08 87.14 25.82 89.17 29.24 89.16 C 31.62 89.07 34.00 88.97 36.39 88.96 C 54.28 88.98 72.18 89.10 90.07 88.92 C 93.38 89.09 95.40 86.08 96.19 83.26 C 96.05 80.60 95.98 77.95 95.97 75.29 C 95.99 72.78 95.97 70.27 95.98 67.76 C 95.97 64.54 96.00 61.33 96.01 58.11 C 95.99 55.46 96.19 52.80 95.82 50.17 C 95.21 48.58 92.74 48.50 92.18 50.18 C 91.81 52.82 92.01 55.50 91.99 58.16 C 92.00 61.35 92.03 64.55 92.03 67.75 C 92.03 70.26 92.00 72.77 92.00 75.28 C 91.99 78.28 92.01 81.29 92.04 84.29 C 86.80 85.57 81.37 84.84 76.05 85.00 C 62.78 85.15 49.50 84.70 36.24 85.24 L 35.56 85.31 C 35.92 83.18 36.01 79.90 32.98 79.98 C 29.94 79.89 29.81 83.38 30.43 85.54 C 28.97 85.19 27.56 84.65 26.07 84.46 C 26.04 81.96 26.00 79.46 26.00 76.97 C 26.00 73.91 26.02 70.85 25.98 67.78 C 25.97 64.60 26.00 61.41 26.01 58.22 C 25.99 55.54 26.19 52.84 25.82 50.17 C 25.21 48.54 22.85 48.55 22.18 50.13 M 81.38 67.34 C 78.86 68.31 78.16 72.01 80.24 73.79 C 82.21 75.98 86.23 74.77 86.81 71.93 C 87.75 68.90 84.20 65.89 81.38 67.34 Z" />
</g>
<g id="#f8d070ff">
<path fill="#f8d070" opacity="1.00" d=" M 48.92 15.08 C 48.96 12.58 48.77 8.84 51.95 8.19 C 56.59 7.83 61.30 7.84 65.95 8.20 C 68.04 8.43 68.62 10.68 69.16 12.35 C 65.35 15.11 61.61 18.88 56.52 18.55 C 56.21 18.03 55.60 16.98 55.29 16.46 C 53.30 15.51 51.12 15.08 48.92 15.08 Z" />
</g>
<g id="#f8bc60ff">
<path fill="#f8bc60" opacity="1.00" d=" M 56.52 18.55 C 61.61 18.88 65.35 15.11 69.16 12.35 C 68.86 18.61 69.05 24.88 69.00 31.15 C 62.19 35.63 55.86 40.80 49.00 45.23 C 49.00 40.47 49.01 35.71 49.03 30.95 C 51.69 30.68 54.37 30.09 56.77 28.88 C 56.79 27.78 56.84 25.59 56.86 24.49 C 56.81 22.51 56.81 20.52 56.52 18.55 Z" />
</g>
<g id="#c0ec18ff">
<path fill="#c0ec18" opacity="1.00" d=" M 48.92 15.08 C 51.12 15.08 53.30 15.51 55.29 16.46 C 52.45 19.50 49.36 22.29 46.08 24.84 C 44.03 21.29 45.24 16.93 48.92 15.08 Z" />
</g>
<g id="#80e008ff">
<path fill="#80e008" opacity="1.00" d=" M 46.08 24.84 C 49.36 22.29 52.45 19.50 55.29 16.46 C 55.60 16.98 56.21 18.03 56.52 18.55 C 56.81 20.52 56.81 22.51 56.86 24.49 C 54.54 25.79 52.06 27.00 49.33 26.96 C 48.22 26.29 47.15 25.56 46.08 24.84 Z" />
</g>
<g id="#a07840ff">
<path fill="#a07840" opacity="1.00" d=" M 49.33 26.96 C 52.06 27.00 54.54 25.79 56.86 24.49 C 56.84 25.59 56.79 27.78 56.77 28.88 C 54.37 30.09 51.69 30.68 49.03 30.95 C 49.10 29.95 49.26 27.96 49.33 26.96 Z" />
</g>
<g id="#f8ac58ff">
<path fill="#f8ac58" opacity="1.00" d=" M 49.00 45.23 C 55.86 40.80 62.19 35.63 69.00 31.15 C 69.01 35.63 68.99 40.11 68.99 44.59 C 59.77 50.50 50.64 56.55 41.97 63.25 C 39.31 60.43 36.23 57.98 33.88 54.87 C 32.58 53.66 34.46 51.76 35.82 52.04 C 40.21 51.87 44.61 52.05 49.00 52.00 C 48.98 49.74 49.01 47.48 49.00 45.23 Z" />
</g>
<g id="#f89c48ff">
<path fill="#f89c48" opacity="1.00" d=" M 41.97 63.25 C 50.64 56.55 59.77 50.50 68.99 44.59 C 68.99 47.06 69.01 49.53 69.00 52.00 C 72.46 52.01 75.92 52.03 79.37 51.92 C 70.43 59.37 61.02 66.28 51.08 72.36 C 48.04 69.33 44.99 66.31 41.97 63.25 Z" />
</g>
<g id="#8860f0ff">
<path fill="#8860f0" opacity="1.00" d=" M 22.18 50.13 C 22.85 48.55 25.21 48.54 25.82 50.17 C 26.19 52.84 25.99 55.54 26.01 58.22 C 24.67 58.13 23.33 58.03 21.99 57.94 C 22.00 55.34 21.82 52.72 22.18 50.13 Z" />
<path fill="#8860f0" opacity="1.00" d=" M 92.18 50.18 C 92.74 48.50 95.21 48.58 95.82 50.17 C 96.19 52.80 95.99 55.46 96.01 58.11 C 94.67 58.13 93.33 58.14 91.99 58.16 C 92.01 55.50 91.81 52.82 92.18 50.18 Z" />
</g>
<g id="#f89040ff">
<path fill="#f89040" opacity="1.00" d=" M 79.37 51.92 C 81.14 52.17 84.33 51.45 84.55 54.04 C 82.00 58.16 77.88 61.03 74.67 64.61 C 69.38 69.53 64.78 75.24 59.06 79.66 C 55.92 77.80 53.68 74.85 51.08 72.36 C 61.02 66.28 70.43 59.37 79.37 51.92 Z" />
</g>
<g id="#7054e8ff">
<path fill="#7054e8" opacity="1.00" d=" M 21.99 57.94 C 23.33 58.03 24.67 58.13 26.01 58.22 C 26.00 61.41 25.97 64.60 25.98 67.78 C 24.66 67.78 23.33 67.78 22.01 67.78 C 22.03 64.50 22.00 61.22 21.99 57.94 Z" />
<path fill="#7054e8" opacity="1.00" d=" M 91.99 58.16 C 93.33 58.14 94.67 58.13 96.01 58.11 C 96.00 61.33 95.97 64.54 95.98 67.76 C 94.66 67.76 93.34 67.75 92.03 67.75 C 92.03 64.55 92.00 61.35 91.99 58.16 Z" />
</g>
<g id="#68b4f0ff">
<path fill="#68b4f0" opacity="1.00" d=" M 81.38 67.34 C 84.20 65.89 87.75 68.90 86.81 71.93 C 86.23 74.77 82.21 75.98 80.24 73.79 C 78.16 72.01 78.86 68.31 81.38 67.34 Z" />
</g>
<g id="#4848d8ff">
<path fill="#4848d8" opacity="1.00" d=" M 22.01 67.78 C 23.33 67.78 24.66 67.78 25.98 67.78 C 26.02 70.85 26.00 73.91 26.00 76.97 C 24.67 77.05 23.35 77.13 22.02 77.21 C 21.99 74.06 21.99 70.92 22.01 67.78 Z" />
</g>
<g id="#5048e0ff">
<path fill="#5048e0" opacity="1.00" d=" M 92.03 67.75 C 93.34 67.75 94.66 67.76 95.98 67.76 C 95.97 70.27 95.99 72.78 95.97 75.29 C 94.65 75.29 93.33 75.28 92.00 75.28 C 92.00 72.77 92.03 70.26 92.03 67.75 Z" />
</g>
<g id="#3040d0ff">
<path fill="#3040d0" opacity="1.00" d=" M 92.00 75.28 C 93.33 75.28 94.65 75.29 95.97 75.29 C 95.98 77.95 96.05 80.60 96.19 83.26 C 94.81 83.61 93.43 83.97 92.04 84.29 C 92.01 81.29 91.99 78.28 92.00 75.28 Z" />
</g>
<g id="#303cd0ff">
<path fill="#303cd0" opacity="1.00" d=" M 22.02 77.21 C 23.35 77.13 24.67 77.05 26.00 76.97 C 26.00 79.46 26.04 81.96 26.07 84.46 C 24.66 84.31 23.25 84.16 21.84 84.01 C 21.98 81.74 21.99 79.47 22.02 77.21 Z" />
</g>
<g id="#e07c70ff">
<path fill="#e07c70" opacity="1.00" d=" M 30.43 85.54 C 29.81 83.38 29.94 79.89 32.98 79.98 C 36.01 79.90 35.92 83.18 35.56 85.31 C 33.85 85.45 32.14 85.51 30.43 85.54 Z" />
</g>
<g id="#1834c8ff">
<path fill="#1834c8" opacity="1.00" d=" M 92.04 84.29 C 93.43 83.97 94.81 83.61 96.19 83.26 C 95.40 86.08 93.38 89.09 90.07 88.92 C 72.18 89.10 54.28 88.98 36.39 88.96 C 36.33 87.72 36.29 86.48 36.24 85.24 C 49.50 84.70 62.78 85.15 76.05 85.00 C 81.37 84.84 86.80 85.57 92.04 84.29 Z" />
</g>
<g id="#1838c8ff">
<path fill="#1838c8" opacity="1.00" d=" M 21.84 84.01 C 23.25 84.16 24.66 84.31 26.07 84.46 C 27.56 84.65 28.97 85.19 30.43 85.54 C 30.06 86.75 29.66 87.96 29.24 89.16 C 25.82 89.17 23.08 87.14 21.84 84.01 Z" />
</g>
<g id="#102488ff">
<path fill="#102488" opacity="1.00" d=" M 30.43 85.54 C 32.14 85.51 33.85 85.45 35.56 85.31 L 36.24 85.24 C 36.29 86.48 36.33 87.72 36.39 88.96 C 34.00 88.97 31.62 89.07 29.24 89.16 C 29.66 87.96 30.06 86.75 30.43 85.54 Z" />
</g>
</svg>
