<?xml version="1.0" encoding="UTF-8" ?>
<!DOCTYPE svg PUBLIC "-//W3C//DTD SVG 1.1//EN" "http://www.w3.org/Graphics/SVG/1.1/DTD/svg11.dtd">
<svg width="117px" height="140px" viewBox="0 0 117 140" version="1.1" xmlns="http://www.w3.org/2000/svg">
<g id="#181818ff">
<path fill="#181818" opacity="1.00" d=" M 0.00 0.00 L 117.00 0.00 L 117.00 140.00 L 0.00 140.00 L 0.00 0.00 M 57.00 8.98 C 56.94 13.02 57.09 17.05 57.03 21.09 C 57.09 25.75 56.96 30.40 57.00 35.06 C 51.05 35.96 44.79 41.10 44.74 47.17 C 44.34 47.39 43.56 47.83 43.16 48.05 C 34.77 47.95 26.37 47.99 17.97 48.03 C 15.41 47.85 15.44 52.19 18.02 51.98 C 26.71 52.04 35.40 51.96 44.09 52.02 C 44.62 53.82 44.85 55.81 46.06 57.31 C 48.00 61.43 52.45 64.13 56.90 64.87 C 56.94 65.41 57.01 66.51 57.05 67.05 C 56.93 72.00 57.03 76.95 57.02 81.89 C 56.99 84.94 56.96 88.00 57.03 91.05 C 56.96 93.11 60.04 93.66 60.82 91.85 C 61.21 88.56 60.93 85.22 60.98 81.91 C 60.99 76.95 61.05 71.99 60.96 67.04 C 60.99 66.52 61.04 65.48 61.07 64.96 C 65.55 64.06 69.84 61.48 72.02 57.35 C 73.05 55.73 73.41 53.83 73.94 52.01 C 82.63 51.96 91.32 52.05 100.00 51.97 C 102.53 52.17 102.61 47.92 100.05 48.01 C 91.66 48.02 83.27 47.93 74.88 48.06 C 74.47 47.85 73.65 47.43 73.24 47.22 L 73.64 46.24 C 71.89 40.54 67.01 35.92 61.01 35.10 C 61.21 31.47 60.48 27.84 60.77 24.24 C 62.71 25.98 65.76 26.68 67.99 25.05 C 71.11 23.47 72.11 18.43 69.40 16.19 C 67.49 13.43 63.34 13.39 60.93 15.53 C 60.97 13.07 61.16 10.59 60.86 8.14 C 60.03 6.22 56.92 6.88 57.00 8.98 M 16.57 44.00 C 17.40 43.99 19.05 43.98 19.87 43.97 C 26.90 44.05 33.92 43.97 40.95 43.94 C 42.90 38.42 47.44 33.91 52.95 31.94 C 52.96 24.92 53.05 17.89 52.97 10.87 C 52.98 10.04 52.99 8.38 53.00 7.55 C 34.58 9.57 18.55 25.57 16.57 44.00 M 95.37 65.44 C 92.32 67.04 94.77 72.08 97.93 70.61 C 101.86 69.55 98.86 62.85 95.37 65.44 M 32.01 81.36 C 32.84 83.30 36.30 83.43 37.69 81.74 C 39.43 80.24 39.15 77.59 37.86 75.90 L 37.26 76.05 C 34.29 72.52 28.55 78.25 32.01 81.36 Z" />
<path fill="#181818" opacity="1.00" d=" M 55.40 38.59 C 61.72 36.40 69.11 40.59 70.65 47.06 C 71.29 50.05 70.95 53.21 69.45 55.91 C 67.61 58.88 64.62 61.20 61.12 61.76 C 56.20 62.78 51.02 60.15 48.53 55.87 C 47.02 53.16 46.72 49.97 47.37 46.97 C 48.46 43.08 51.49 39.75 55.40 38.59 Z" />
</g>
<g id="#9060f8ff">
<path fill="#9060f8" opacity="1.00" d=" M 57.00 8.98 C 56.92 6.88 60.03 6.22 60.86 8.14 C 61.16 10.59 60.97 13.07 60.93 15.53 C 60.14 16.54 59.46 17.64 58.82 18.75 C 58.21 19.52 57.61 20.30 57.03 21.09 C 57.09 17.05 56.94 13.02 57.00 8.98 Z" />
</g>
<g id="#f8b458ff">
<path fill="#f8b458" opacity="1.00" d=" M 16.57 44.00 C 18.55 25.57 34.58 9.57 53.00 7.55 C 52.99 8.38 52.98 10.04 52.97 10.87 C 51.42 11.98 49.90 13.14 48.62 14.56 C 39.25 24.57 28.97 33.73 19.87 43.97 C 19.05 43.98 17.40 43.99 16.57 44.00 Z" />
</g>
<g id="#f89c48ff">
<path fill="#f89c48" opacity="1.00" d=" M 48.62 14.56 C 49.90 13.14 51.42 11.98 52.97 10.87 C 53.05 17.89 52.96 24.92 52.95 31.94 C 47.44 33.91 42.90 38.42 40.95 43.94 C 33.92 43.97 26.90 44.05 19.87 43.97 C 28.97 33.73 39.25 24.57 48.62 14.56 Z" />
</g>
<g id="#f8c498ff">
<path fill="#f8c498" opacity="1.00" d=" M 60.93 15.53 C 63.34 13.39 67.49 13.43 69.40 16.19 C 67.30 19.51 64.57 22.86 60.76 24.24 C 59.40 22.72 58.81 20.77 58.82 18.75 C 59.46 17.64 60.14 16.54 60.93 15.53 Z" />
</g>
<g id="#f898a8ff">
<path fill="#f898a8" opacity="1.00" d=" M 69.40 16.19 C 72.11 18.43 71.11 23.47 67.99 25.05 C 65.76 26.68 62.71 25.98 60.77 24.24 L 60.76 24.24 C 64.57 22.86 67.30 19.51 69.40 16.19 Z" />
</g>
<g id="#7054e8ff">
<path fill="#7054e8" opacity="1.00" d=" M 57.03 21.09 C 57.61 20.30 58.21 19.52 58.82 18.75 C 58.81 20.77 59.40 22.72 60.76 24.24 L 60.77 24.24 C 60.48 27.84 61.21 31.47 61.01 35.10 C 67.01 35.92 71.89 40.54 73.64 46.24 L 73.24 47.22 C 72.59 47.18 71.30 47.10 70.65 47.06 C 69.11 40.59 61.72 36.40 55.40 38.59 C 51.49 39.75 48.46 43.08 47.37 46.97 C 46.71 47.02 45.39 47.12 44.74 47.17 C 44.79 41.10 51.05 35.96 57.00 35.06 C 56.96 30.40 57.09 25.75 57.03 21.09 Z" />
</g>
<g id="#584ce0ff">
<path fill="#584ce0" opacity="1.00" d=" M 44.74 47.17 C 45.39 47.12 46.71 47.02 47.37 46.97 C 46.72 49.97 47.02 53.16 48.53 55.87 C 47.91 56.23 46.68 56.95 46.06 57.31 C 44.85 55.81 44.62 53.82 44.09 52.02 C 35.40 51.96 26.71 52.04 18.02 51.98 C 15.44 52.19 15.41 47.85 17.97 48.03 C 26.37 47.99 34.77 47.95 43.16 48.05 C 43.56 47.83 44.34 47.39 44.74 47.17 Z" />
<path fill="#584ce0" opacity="1.00" d=" M 70.65 47.06 C 71.30 47.10 72.59 47.18 73.24 47.22 C 73.65 47.43 74.47 47.85 74.88 48.06 C 83.27 47.93 91.66 48.02 100.05 48.01 C 102.61 47.92 102.53 52.17 100.00 51.97 C 91.32 52.05 82.63 51.96 73.94 52.01 C 73.41 53.83 73.05 55.73 72.02 57.35 C 71.38 56.99 70.10 56.27 69.45 55.91 C 70.95 53.21 71.29 50.05 70.65 47.06 Z" />
</g>
<g id="#4044d8ff">
<path fill="#4044d8" opacity="1.00" d=" M 48.53 55.87 C 51.02 60.15 56.20 62.78 61.12 61.76 C 64.62 61.20 67.61 58.88 69.45 55.91 C 70.10 56.27 71.38 56.99 72.02 57.35 C 69.84 61.48 65.55 64.06 61.07 64.96 C 61.04 65.48 60.99 66.52 60.96 67.04 C 59.66 67.05 58.35 67.06 57.05 67.05 C 57.01 66.51 56.94 65.41 56.90 64.87 C 52.45 64.13 48.00 61.43 46.06 57.31 C 46.68 56.95 47.91 56.23 48.53 55.87 Z" />
</g>
<g id="#48c0d0ff">
<path fill="#48c0d0" opacity="1.00" d=" M 95.37 65.44 C 98.86 62.85 101.86 69.55 97.93 70.61 C 94.77 72.08 92.32 67.04 95.37 65.44 Z" />
</g>
<g id="#3040d0ff">
<path fill="#3040d0" opacity="1.00" d=" M 57.05 67.05 C 58.35 67.06 59.66 67.05 60.96 67.04 C 61.05 71.99 60.99 76.95 60.98 81.91 C 59.66 81.90 58.34 81.89 57.02 81.89 C 57.03 76.95 56.93 72.00 57.05 67.05 Z" />
</g>
<g id="#c050d0ff">
<path fill="#c050d0" opacity="1.00" d=" M 32.01 81.36 C 28.55 78.25 34.29 72.52 37.26 76.05 C 35.63 77.94 33.89 79.73 32.01 81.36 Z" />
</g>
<g id="#8034c8ff">
<path fill="#8034c8" opacity="1.00" d=" M 37.26 76.05 L 37.86 75.90 C 39.15 77.59 39.43 80.24 37.69 81.74 C 36.30 83.43 32.84 83.30 32.01 81.36 C 33.89 79.73 35.63 77.94 37.26 76.05 Z" />
</g>
<g id="#2038c8ff">
<path fill="#2038c8" opacity="1.00" d=" M 57.02 81.89 C 58.34 81.89 59.66 81.90 60.98 81.91 C 60.93 85.22 61.21 88.56 60.82 91.85 C 60.04 93.66 56.96 93.11 57.03 91.05 C 56.96 88.00 56.99 84.94 57.02 81.89 Z" />
</g>
</svg>
