<?xml version="1.0" encoding="UTF-8" ?>
<!DOCTYPE svg PUBLIC "-//W3C//DTD SVG 1.1//EN" "http://www.w3.org/Graphics/SVG/1.1/DTD/svg11.dtd">
<svg width="117px" height="140px" viewBox="0 0 117 140" version="1.1" xmlns="http://www.w3.org/2000/svg">
<g id="#181818ff">
<path fill="#181818" opacity="1.00" d=" M 0.00 0.00 L 117.00 0.00 L 117.00 140.00 L 0.00 140.00 L 0.00 0.00 M 56.99 27.03 C 56.91 29.25 58.52 31.11 60.28 32.27 C 64.93 35.07 70.65 29.40 68.73 24.56 L 68.28 24.97 C 68.35 23.37 66.64 22.32 65.43 21.55 C 61.73 19.52 56.81 22.95 56.99 27.03 M 30.15 41.01 C 27.93 43.16 25.80 45.38 23.62 47.56 C 22.16 49.22 18.44 51.32 20.90 53.73 C 22.80 55.66 24.71 57.59 26.68 59.45 C 28.07 60.76 29.21 62.45 30.98 63.28 C 33.54 63.57 33.52 60.53 33.29 58.80 C 33.32 56.66 33.35 54.52 33.27 52.38 C 33.31 49.25 33.31 46.12 33.31 43.00 C 33.76 41.18 31.53 40.02 30.15 41.01 M 84.03 49.04 C 83.94 50.96 84.06 52.89 84.05 54.82 C 84.52 57.56 82.51 62.35 86.07 63.40 C 89.22 61.57 91.35 58.43 94.10 56.07 C 95.25 54.65 97.34 53.69 97.40 51.63 C 94.19 47.80 90.52 44.33 86.93 40.85 C 82.23 40.06 84.50 46.33 84.03 49.04 M 36.87 49.92 C 35.31 51.16 35.92 54.42 38.03 54.60 L 37.57 55.02 C 40.29 55.82 42.83 53.26 42.02 50.55 L 41.68 50.92 C 41.10 48.93 38.17 48.30 36.87 49.92 M 44.91 49.90 C 43.26 51.13 43.94 54.52 46.12 54.64 L 45.73 55.02 C 48.47 55.80 50.82 53.09 50.02 50.45 L 49.63 50.90 C 49.11 48.92 46.18 48.31 44.91 49.90 M 52.89 49.92 C 51.30 51.18 51.93 54.29 54.00 54.66 L 53.61 55.02 C 56.35 55.82 58.83 53.20 58.01 50.50 L 57.58 50.99 C 57.31 48.89 54.11 48.31 52.89 49.92 M 60.97 49.84 C 59.25 51.01 59.90 54.61 62.13 54.57 L 61.65 55.00 C 64.37 55.83 66.80 53.19 66.04 50.53 L 65.65 50.96 C 65.23 48.96 62.25 48.31 60.97 49.84 M 68.87 49.93 C 67.32 51.22 67.93 54.18 69.94 54.66 L 69.54 55.02 C 72.22 55.82 74.82 53.34 74.01 50.63 L 73.63 51.05 C 73.40 48.91 70.10 48.29 68.87 49.93 M 76.89 49.90 C 75.28 51.22 75.96 54.13 77.94 54.71 L 77.61 55.02 C 80.33 55.81 82.83 53.23 82.02 50.53 L 81.66 50.93 C 81.13 48.93 78.19 48.31 76.89 49.90 M 38.78 68.37 L 38.22 68.99 C 41.19 69.95 43.97 67.17 42.99 64.20 L 42.36 64.70 C 42.01 63.47 41.24 62.90 40.03 62.98 C 37.09 62.55 35.46 67.72 38.78 68.37 M 74.94 77.57 C 76.41 79.18 79.19 79.41 80.68 77.69 C 82.39 76.21 82.22 73.35 80.55 71.91 C 76.96 68.84 71.82 73.99 74.94 77.57 Z" />
<path fill="#181818" opacity="1.00" d=" M 28.61 48.15 C 28.80 48.19 29.20 48.25 29.40 48.29 C 29.41 49.70 29.37 51.10 29.33 52.51 C 29.32 53.48 29.28 55.41 29.26 56.37 C 27.74 54.95 26.32 53.43 24.83 51.99 C 26.10 50.72 27.38 49.46 28.61 48.15 Z" />
</g>
<g id="#60e050ff">
<path fill="#60e050" opacity="1.00" d=" M 56.99 27.03 C 56.81 22.95 61.73 19.52 65.43 21.55 C 66.64 22.32 68.35 23.37 68.28 24.97 C 65.65 27.44 62.99 29.88 60.28 32.27 C 58.52 31.11 56.91 29.25 56.99 27.03 Z" />
</g>
<g id="#50d038ff">
<path fill="#50d038" opacity="1.00" d=" M 68.28 24.97 L 68.73 24.56 C 70.65 29.40 64.93 35.07 60.28 32.27 C 62.99 29.88 65.65 27.44 68.28 24.97 Z" />
</g>
<g id="#7858e8ff">
<path fill="#7858e8" opacity="1.00" d=" M 30.15 41.01 C 31.53 40.02 33.76 41.18 33.31 43.00 C 33.31 46.12 33.31 49.25 33.27 52.38 C 32.28 52.41 30.32 52.48 29.33 52.51 C 29.37 51.10 29.41 49.70 29.40 48.29 C 29.20 48.25 28.80 48.19 28.61 48.15 C 26.95 47.92 25.28 47.72 23.62 47.56 C 25.80 45.38 27.93 43.16 30.15 41.01 Z" />
<path fill="#7858e8" opacity="1.00" d=" M 84.03 49.04 C 84.50 46.33 82.23 40.06 86.93 40.85 C 90.52 44.33 94.19 47.80 97.40 51.63 C 95.74 51.60 94.09 51.61 92.44 51.73 C 90.88 50.60 89.85 48.59 88.00 47.92 C 86.67 48.28 85.35 48.65 84.03 49.04 Z" />
</g>
<g id="#6050e0ff">
<path fill="#6050e0" opacity="1.00" d=" M 20.90 53.73 C 18.44 51.32 22.16 49.22 23.62 47.56 C 25.28 47.72 26.95 47.92 28.61 48.15 C 27.38 49.46 26.10 50.72 24.83 51.99 C 23.52 52.58 22.21 53.16 20.90 53.73 Z" />
</g>
<g id="#1b1b22ff">
<path fill="#1b1b22" opacity="1.00" d=" M 88.00 47.92 C 89.85 48.59 90.88 50.60 92.44 51.73 C 91.31 53.25 89.96 54.60 88.62 55.94 C 88.44 55.91 88.10 55.85 87.92 55.82 C 87.93 53.19 88.03 50.56 88.00 47.92 Z" />
</g>
<g id="#f8b860ff">
<path fill="#f8b860" opacity="1.00" d=" M 36.87 49.92 C 38.17 48.30 41.10 48.93 41.68 50.92 C 40.56 52.24 39.35 53.48 38.03 54.60 C 35.92 54.42 35.31 51.16 36.87 49.92 Z" />
<path fill="#f8b860" opacity="1.00" d=" M 44.91 49.90 C 46.18 48.31 49.11 48.92 49.63 50.90 C 48.55 52.23 47.38 53.48 46.12 54.64 C 43.94 54.52 43.26 51.13 44.91 49.90 Z" />
<path fill="#f8b860" opacity="1.00" d=" M 52.89 49.92 C 54.11 48.31 57.31 48.89 57.58 50.99 C 56.49 52.31 55.28 53.53 54.00 54.66 C 51.93 54.29 51.30 51.18 52.89 49.92 Z" />
<path fill="#f8b860" opacity="1.00" d=" M 60.97 49.84 C 62.25 48.31 65.23 48.96 65.65 50.96 C 64.59 52.27 63.39 53.46 62.13 54.57 C 59.90 54.61 59.25 51.01 60.97 49.84 Z" />
<path fill="#f8b860" opacity="1.00" d=" M 68.87 49.93 C 70.10 48.29 73.40 48.91 73.63 51.05 C 72.49 52.34 71.26 53.55 69.94 54.66 C 67.93 54.18 67.32 51.22 68.87 49.93 Z" />
<path fill="#f8b860" opacity="1.00" d=" M 76.89 49.90 C 78.19 48.31 81.13 48.93 81.66 50.93 C 80.52 52.28 79.27 53.54 77.94 54.71 C 75.96 54.13 75.28 51.22 76.89 49.90 Z" />
</g>
<g id="#584ce0ff">
<path fill="#584ce0" opacity="1.00" d=" M 84.03 49.04 C 85.35 48.65 86.67 48.28 88.00 47.92 C 88.03 50.56 87.93 53.19 87.92 55.82 C 86.62 55.52 85.33 55.19 84.05 54.82 C 84.06 52.89 83.94 50.96 84.03 49.04 Z" />
</g>
<g id="#d6813bff">
<path fill="#d6813b" opacity="1.00" d=" M 41.68 50.92 L 42.02 50.55 C 42.83 53.26 40.29 55.82 37.57 55.02 L 38.03 54.60 C 39.35 53.48 40.56 52.24 41.68 50.92 Z" />
<path fill="#d6813b" opacity="1.00" d=" M 49.63 50.90 L 50.02 50.45 C 50.82 53.09 48.47 55.80 45.73 55.02 L 46.12 54.64 C 47.38 53.48 48.55 52.23 49.63 50.90 Z" />
<path fill="#d6813b" opacity="1.00" d=" M 57.58 50.99 L 58.01 50.50 C 58.83 53.20 56.35 55.82 53.61 55.02 L 54.00 54.66 C 55.28 53.53 56.49 52.31 57.58 50.99 Z" />
<path fill="#d6813b" opacity="1.00" d=" M 65.65 50.96 L 66.04 50.53 C 66.80 53.19 64.37 55.83 61.65 55.00 L 62.13 54.57 C 63.39 53.46 64.59 52.27 65.65 50.96 Z" />
<path fill="#d6813b" opacity="1.00" d=" M 73.63 51.05 L 74.01 50.63 C 74.82 53.34 72.22 55.82 69.54 55.02 L 69.94 54.66 C 71.26 53.55 72.49 52.34 73.63 51.05 Z" />
<path fill="#d6813b" opacity="1.00" d=" M 81.66 50.93 L 82.02 50.53 C 82.83 53.23 80.33 55.81 77.61 55.02 L 77.94 54.71 C 79.27 53.54 80.52 52.28 81.66 50.93 Z" />
</g>
<g id="#3040d0ff">
<path fill="#3040d0" opacity="1.00" d=" M 92.44 51.73 C 94.09 51.61 95.74 51.60 97.40 51.63 C 97.34 53.69 95.25 54.65 94.10 56.07 C 91.35 58.43 89.22 61.57 86.07 63.40 C 82.51 62.35 84.52 57.56 84.05 54.82 C 85.33 55.19 86.62 55.52 87.92 55.82 C 88.10 55.85 88.44 55.91 88.62 55.94 C 89.96 54.60 91.31 53.25 92.44 51.73 Z" />
</g>
<g id="#3840d0ff">
<path fill="#3840d0" opacity="1.00" d=" M 20.90 53.73 C 22.21 53.16 23.52 52.58 24.83 51.99 C 26.32 53.43 27.74 54.95 29.26 56.37 C 29.28 55.41 29.32 53.48 29.33 52.51 C 30.32 52.48 32.28 52.41 33.27 52.38 C 33.35 54.52 33.32 56.66 33.29 58.80 C 31.09 59.04 28.88 59.27 26.68 59.45 C 24.71 57.59 22.80 55.66 20.90 53.73 Z" />
</g>
<g id="#2038c8ff">
<path fill="#2038c8" opacity="1.00" d=" M 26.68 59.45 C 28.88 59.27 31.09 59.04 33.29 58.80 C 33.52 60.53 33.54 63.57 30.98 63.28 C 29.21 62.45 28.07 60.76 26.68 59.45 Z" />
</g>
<g id="#dab083ff">
<path fill="#dab083" opacity="1.00" d=" M 38.78 68.37 C 35.46 67.72 37.09 62.55 40.03 62.98 C 41.24 62.90 42.01 63.47 42.36 64.70 C 41.14 65.90 39.95 67.13 38.78 68.37 Z" />
</g>
<g id="#d78b93ff">
<path fill="#d78b93" opacity="1.00" d=" M 38.78 68.37 C 39.95 67.13 41.14 65.90 42.36 64.70 L 42.99 64.20 C 43.97 67.17 41.19 69.95 38.22 68.99 L 38.78 68.37 Z" />
</g>
<g id="#38a0d8ff">
<path fill="#38a0d8" opacity="1.00" d=" M 74.94 77.57 C 71.82 73.99 76.96 68.84 80.55 71.91 C 78.58 73.69 76.70 75.58 74.94 77.57 Z" />
</g>
<g id="#285cc8ff">
<path fill="#285cc8" opacity="1.00" d=" M 80.55 71.91 C 82.22 73.35 82.39 76.21 80.68 77.69 C 79.19 79.41 76.41 79.18 74.94 77.57 C 76.70 75.58 78.58 73.69 80.55 71.91 Z" />
</g>
</svg>
