<?xml version="1.0" encoding="UTF-8" ?>
<!DOCTYPE svg PUBLIC "-//W3C//DTD SVG 1.1//EN" "http://www.w3.org/Graphics/SVG/1.1/DTD/svg11.dtd">
<svg width="117px" height="140px" viewBox="0 0 117 140" version="1.1" xmlns="http://www.w3.org/2000/svg">
<g id="#181818ff">
<path fill="#181818" opacity="1.00" d=" M 0.00 0.00 L 117.00 0.00 L 117.00 140.00 L 0.00 140.00 L 0.00 0.00 M 26.32 22.00 C 20.84 28.48 17.42 36.52 16.28 44.90 C 15.44 52.17 16.61 59.52 19.17 66.34 C 21.55 71.87 24.96 76.94 29.33 81.10 C 29.20 82.01 28.92 83.84 28.79 84.75 L 30.24 84.57 L 29.48 85.27 C 31.18 86.11 32.97 85.97 34.70 85.35 C 45.97 93.37 61.24 95.08 74.12 90.20 C 85.15 86.15 94.19 77.30 98.76 66.50 C 102.91 56.01 103.12 44.00 98.78 33.53 C 96.37 28.12 93.06 23.12 88.82 18.97 C 79.60 10.26 66.56 5.67 53.91 7.31 C 43.26 8.49 33.37 14.01 26.32 22.00 Z" />
<path fill="#181818" opacity="1.00" d=" M 46.86 19.29 C 49.25 15.53 52.76 12.61 56.92 11.00 C 56.99 13.97 57.02 16.94 57.01 19.91 C 57.00 22.60 56.99 25.29 56.98 27.98 C 52.32 27.75 47.67 27.37 43.05 26.70 C 44.22 24.18 45.40 21.66 46.86 19.29 Z" />
<path fill="#181818" opacity="1.00" d=" M 61.08 11.00 C 65.24 12.61 68.77 15.53 71.14 19.31 C 72.63 21.71 73.83 24.27 75.00 26.83 C 70.37 27.48 65.69 27.83 61.01 28.00 C 61.01 25.39 61.00 22.77 60.99 20.15 C 60.98 17.10 61.00 14.05 61.08 11.00 Z" />
<path fill="#181818" opacity="1.00" d=" M 34.08 19.70 C 38.07 17.06 42.20 14.58 46.71 12.92 C 45.21 14.91 43.70 16.90 42.31 18.97 C 41.50 20.43 40.88 21.99 40.45 23.60 C 39.21 21.17 36.73 19.91 34.08 19.70 Z" />
<path fill="#181818" opacity="1.00" d=" M 71.29 12.91 C 76.10 14.81 80.79 17.17 84.64 20.68 C 85.70 21.65 86.71 22.66 87.73 23.66 C 84.85 24.55 81.96 25.37 79.04 26.13 C 78.02 23.84 77.04 21.53 75.83 19.34 C 74.46 17.10 72.88 15.00 71.29 12.91 Z" />
<path fill="#181818" opacity="1.00" d=" M 20.25 45.96 C 21.10 38.88 23.50 31.62 28.47 26.34 C 29.61 28.16 30.45 30.49 32.59 31.39 C 34.51 32.42 36.68 31.43 38.66 31.15 C 35.32 36.08 35.44 42.29 34.95 47.99 C 30.00 48.00 25.06 48.00 20.11 48.00 C 20.14 47.49 20.21 46.47 20.25 45.96 Z" />
<path fill="#181818" opacity="1.00" d=" M 80.29 29.98 C 83.72 29.06 87.13 28.06 90.50 26.95 C 92.29 29.76 94.02 32.63 95.26 35.74 C 96.72 39.67 97.45 43.83 97.99 47.98 C 93.02 48.01 88.04 48.00 83.07 48.00 C 82.96 46.67 82.85 45.35 82.73 44.02 C 82.37 39.28 81.47 34.59 80.29 29.98 Z" />
<path fill="#181818" opacity="1.00" d=" M 38.98 47.99 C 39.39 42.17 40.02 36.34 41.64 30.72 L 42.40 30.69 C 46.13 31.05 49.84 31.58 53.58 31.79 C 51.84 37.19 50.13 42.60 48.40 48.00 C 45.26 48.00 42.12 48.00 38.98 47.99 Z" />
<path fill="#181818" opacity="1.00" d=" M 65.36 31.81 C 69.02 31.57 72.67 31.16 76.32 30.69 C 77.71 35.79 78.72 41.01 78.91 46.31 C 78.91 46.73 78.91 47.58 78.91 48.00 C 76.13 48.00 73.35 48.00 70.57 48.01 C 69.87 45.82 69.16 43.63 68.45 41.44 C 67.39 38.24 66.40 35.01 65.36 31.81 Z" />
<path fill="#181818" opacity="1.00" d=" M 55.74 48.34 C 55.58 46.76 56.04 45.22 56.91 43.92 C 57.53 45.49 57.48 47.52 55.74 48.34 Z" />
<path fill="#181818" opacity="1.00" d=" M 61.07 43.94 C 61.36 44.50 61.93 45.63 62.22 46.19 C 62.21 46.72 62.18 47.77 62.17 48.29 C 60.53 47.43 60.48 45.48 61.07 43.94 Z" />
<path fill="#181818" opacity="1.00" d=" M 19.96 52.02 C 24.96 51.98 29.97 51.99 34.97 52.01 C 35.24 55.66 35.51 59.33 36.12 62.95 C 36.62 65.73 37.31 68.46 37.97 71.21 C 34.73 72.08 31.52 73.06 28.34 74.14 C 26.64 71.59 24.96 69.03 23.61 66.29 C 21.48 61.81 20.52 56.91 19.96 52.02 Z" />
<path fill="#181818" opacity="1.00" d=" M 38.97 52.00 C 41.69 52.00 44.40 52.00 47.12 52.00 C 46.15 55.03 45.17 58.07 44.20 61.10 C 43.33 63.73 42.42 66.34 41.58 68.98 C 40.99 66.09 40.25 63.24 39.80 60.32 C 39.41 57.56 39.19 54.78 38.97 52.00 Z" />
<path fill="#181818" opacity="1.00" d=" M 54.04 53.94 C 54.19 53.37 54.48 52.24 54.63 51.67 C 56.39 51.57 57.17 52.34 56.96 53.98 C 56.23 53.97 54.77 53.95 54.04 53.94 Z" />
<path fill="#181818" opacity="1.00" d=" M 60.95 53.97 C 60.86 52.34 61.67 51.58 63.40 51.69 C 63.49 52.28 63.68 53.46 63.77 54.05 C 63.07 54.03 61.66 53.99 60.95 53.97 Z" />
<path fill="#181818" opacity="1.00" d=" M 71.86 51.99 C 74.25 51.99 76.63 52.00 79.02 52.01 C 78.82 54.72 78.61 57.44 78.23 60.13 C 77.83 62.63 77.29 65.11 76.92 67.61 C 75.16 62.43 73.52 57.21 71.86 51.99 Z" />
<path fill="#181818" opacity="1.00" d=" M 83.02 52.01 C 88.00 51.99 92.99 51.98 97.98 52.01 C 97.52 56.12 96.81 60.22 95.35 64.11 C 93.99 67.59 91.98 70.77 89.87 73.85 C 86.62 72.78 83.33 71.83 80.03 70.94 C 80.88 67.73 81.69 64.51 82.17 61.22 C 82.57 58.16 82.80 55.08 83.02 52.01 M 86.18 58.18 C 84.50 59.69 85.14 62.03 86.08 63.75 L 85.90 63.94 C 87.74 64.58 90.16 65.43 91.66 63.64 C 93.48 62.20 92.52 59.74 92.00 57.91 L 91.79 58.11 C 90.08 57.10 87.70 56.51 86.18 58.18 Z" />
<path fill="#181818" opacity="1.00" d=" M 52.52 60.23 C 54.01 60.23 55.50 60.24 57.00 60.25 C 57.00 63.15 56.99 66.05 56.99 68.95 C 54.68 69.09 52.36 69.21 50.05 69.48 C 50.87 66.40 51.65 63.30 52.52 60.23 Z" />
<path fill="#181818" opacity="1.00" d=" M 61.00 60.24 C 62.73 60.22 64.46 60.21 66.20 60.19 C 67.08 63.28 67.88 66.39 68.75 69.48 C 66.18 69.18 63.59 69.07 61.01 68.94 C 61.00 66.04 61.00 63.14 61.00 60.24 Z" />
<path fill="#181818" opacity="1.00" d=" M 43.46 74.28 C 47.94 73.60 52.47 73.23 57.00 73.03 C 56.99 78.33 57.01 83.63 57.02 88.93 C 50.17 86.88 46.21 80.42 43.46 74.28 Z" />
<path fill="#181818" opacity="1.00" d=" M 61.01 73.01 C 65.55 73.16 70.08 73.50 74.58 74.14 C 71.87 80.36 67.85 86.85 60.98 88.95 C 60.99 83.64 61.00 78.33 61.01 73.01 Z" />
<path fill="#181818" opacity="1.00" d=" M 31.19 77.40 C 33.90 76.53 36.64 75.74 39.40 75.01 C 41.30 79.37 43.74 83.47 46.74 87.16 C 42.45 85.39 38.23 83.35 34.63 80.40 L 33.86 79.81 C 32.96 79.02 32.07 78.22 31.19 77.40 Z" />
<path fill="#181818" opacity="1.00" d=" M 71.29 87.04 C 74.47 83.39 76.73 79.11 78.80 74.78 C 81.56 75.46 84.29 76.26 86.98 77.19 C 82.55 81.59 77.19 84.99 71.29 87.04 Z" />
</g>
<g id="#8e60f0ff">
<path fill="#8e60f0" opacity="1.00" d=" M 26.32 22.00 C 33.37 14.01 43.26 8.49 53.91 7.31 C 66.56 5.67 79.60 10.26 88.82 18.97 C 87.43 19.54 86.03 20.11 84.64 20.68 C 80.79 17.17 76.10 14.81 71.29 12.91 C 72.88 15.00 74.46 17.10 75.83 19.34 C 74.27 19.34 72.70 19.33 71.14 19.31 C 68.77 15.53 65.24 12.61 61.08 11.00 C 61.00 14.05 60.98 17.10 60.99 20.15 C 59.66 20.07 58.34 19.99 57.01 19.91 C 57.02 16.94 56.99 13.97 56.92 11.00 C 52.76 12.61 49.25 15.53 46.86 19.29 C 45.34 19.19 43.82 19.08 42.31 18.97 C 43.70 16.90 45.21 14.91 46.71 12.92 C 42.20 14.58 38.07 17.06 34.08 19.70 C 32.59 20.60 31.17 21.63 29.89 22.81 C 28.70 22.54 27.51 22.27 26.32 22.00 Z" />
<path fill="#8e60f0" opacity="1.00" d=" M 86.18 58.18 C 87.70 56.51 90.08 57.10 91.79 58.11 C 89.81 59.91 87.90 61.79 86.08 63.75 C 85.14 62.03 84.50 59.69 86.18 58.18 Z" />
</g>
<g id="#7756e6ff">
<path fill="#7756e6" opacity="1.00" d=" M 40.45 23.60 C 40.88 21.99 41.50 20.43 42.31 18.97 C 43.82 19.08 45.34 19.19 46.86 19.29 C 45.40 21.66 44.22 24.18 43.05 26.70 C 47.67 27.37 52.32 27.75 56.98 27.98 C 56.99 25.29 57.00 22.60 57.01 19.91 C 58.34 19.99 59.66 20.07 60.99 20.15 C 61.00 22.77 61.01 25.39 61.01 28.00 C 65.69 27.83 70.37 27.48 75.00 26.83 C 73.83 24.27 72.63 21.71 71.14 19.31 C 72.70 19.33 74.27 19.34 75.83 19.34 C 77.04 21.53 78.02 23.84 79.04 26.13 C 81.96 25.37 84.85 24.55 87.73 23.66 C 86.71 22.66 85.70 21.65 84.64 20.68 C 86.03 20.11 87.43 19.54 88.82 18.97 C 93.06 23.12 96.37 28.12 98.78 33.53 C 97.61 34.26 96.43 35.00 95.26 35.74 C 94.02 32.63 92.29 29.76 90.50 26.95 C 87.13 28.06 83.72 29.06 80.29 29.98 C 81.47 34.59 82.37 39.28 82.73 44.02 C 81.45 44.77 80.17 45.52 78.91 46.31 C 78.72 41.01 77.71 35.79 76.32 30.69 C 72.67 31.16 69.02 31.57 65.36 31.81 C 65.12 31.13 64.65 29.78 64.42 29.11 C 61.13 28.91 57.82 28.90 54.53 29.10 C 54.29 29.77 53.82 31.12 53.58 31.79 C 49.84 31.58 46.13 31.05 42.40 30.69 C 42.05 29.58 41.69 28.46 41.36 27.34 C 41.04 26.10 40.74 24.85 40.45 23.60 Z" />
<path fill="#7756e6" opacity="1.00" d=" M 16.28 44.90 C 17.42 36.52 20.84 28.48 26.32 22.00 C 27.51 22.27 28.70 22.54 29.89 22.81 C 29.40 23.98 28.94 25.16 28.47 26.34 C 23.50 31.62 21.10 38.88 20.25 45.96 C 18.93 45.59 17.60 45.24 16.28 44.90 Z" />
<path fill="#7756e6" opacity="1.00" d=" M 91.79 58.11 L 92.00 57.91 C 92.52 59.74 93.48 62.20 91.66 63.64 C 90.16 65.43 87.74 64.58 85.90 63.94 L 86.08 63.75 C 87.90 61.79 89.81 59.91 91.79 58.11 Z" />
</g>
<g id="#5ad84bff">
<path fill="#5ad84b" opacity="1.00" d=" M 29.89 22.81 C 31.17 21.63 32.59 20.60 34.08 19.70 C 36.73 19.91 39.21 21.17 40.45 23.60 C 40.74 24.85 41.04 26.10 41.36 27.34 C 40.44 28.60 39.51 29.85 38.66 31.15 C 36.68 31.43 34.51 32.42 32.59 31.39 C 30.45 30.49 29.61 28.16 28.47 26.34 C 28.94 25.16 29.40 23.98 29.89 22.81 Z" />
</g>
<g id="#5448d8ff">
<path fill="#5448d8" opacity="1.00" d=" M 38.66 31.15 C 39.51 29.85 40.44 28.60 41.36 27.34 C 41.69 28.46 42.05 29.58 42.40 30.69 L 41.64 30.72 C 40.02 36.34 39.39 42.17 38.98 47.99 C 42.12 48.00 45.26 48.00 48.40 48.00 C 47.97 49.34 47.55 50.67 47.12 52.00 C 44.40 52.00 41.69 52.00 38.97 52.00 C 39.19 54.78 39.41 57.56 39.80 60.32 C 38.57 61.20 37.34 62.08 36.12 62.95 C 35.51 59.33 35.24 55.66 34.97 52.01 C 29.97 51.99 24.96 51.98 19.96 52.02 C 20.52 56.91 21.48 61.81 23.61 66.29 C 22.13 66.31 20.65 66.32 19.17 66.34 C 16.61 59.52 15.44 52.17 16.28 44.90 C 17.60 45.24 18.93 45.59 20.25 45.96 C 20.21 46.47 20.14 47.49 20.11 48.00 C 25.06 48.00 30.00 48.00 34.95 47.99 C 35.44 42.29 35.32 36.08 38.66 31.15 Z" />
<path fill="#5448d8" opacity="1.00" d=" M 98.78 33.53 C 103.12 44.00 102.91 56.01 98.76 66.50 C 97.62 65.71 96.49 64.91 95.35 64.11 C 96.81 60.22 97.52 56.12 97.98 52.01 C 92.99 51.98 88.00 51.99 83.02 52.01 C 82.80 55.08 82.57 58.16 82.17 61.22 C 81.60 61.42 80.46 61.83 79.89 62.03 C 79.47 61.55 78.64 60.61 78.23 60.13 C 78.61 57.44 78.82 54.72 79.02 52.01 C 76.63 52.00 74.25 51.99 71.86 51.99 C 71.43 50.66 71.00 49.33 70.57 48.01 C 73.35 48.00 76.13 48.00 78.91 48.00 C 78.91 47.58 78.91 46.73 78.91 46.31 C 80.17 45.52 81.45 44.77 82.73 44.02 C 82.85 45.35 82.96 46.67 83.07 48.00 C 88.04 48.00 93.02 48.01 97.99 47.98 C 97.45 43.83 96.72 39.67 95.26 35.74 C 96.43 35.00 97.61 34.26 98.78 33.53 Z" />
<path fill="#5448d8" opacity="1.00" d=" M 58.92 36.19 C 59.74 38.74 60.49 41.32 61.07 43.94 C 60.48 45.48 60.53 47.43 62.17 48.29 C 62.58 49.42 62.98 50.56 63.40 51.69 C 61.67 51.58 60.86 52.34 60.95 53.97 C 59.62 53.93 58.29 53.93 56.96 53.98 C 57.17 52.34 56.39 51.57 54.63 51.67 C 55.01 50.56 55.37 49.45 55.74 48.34 C 57.48 47.52 57.53 45.49 56.91 43.92 C 57.49 41.32 58.17 38.75 58.92 36.19 Z" />
<path fill="#5448d8" opacity="1.00" d=" M 29.33 81.10 C 30.81 80.57 32.34 80.17 33.86 79.81 L 34.63 80.40 C 33.19 81.81 31.75 83.23 30.24 84.57 L 28.79 84.75 C 28.92 83.84 29.20 82.01 29.33 81.10 Z" />
</g>
<g id="#f8ba62ff">
<path fill="#f8ba62" opacity="1.00" d=" M 54.53 29.10 C 57.82 28.90 61.13 28.91 64.42 29.11 C 64.65 29.78 65.12 31.13 65.36 31.81 C 66.40 35.01 67.39 38.24 68.45 41.44 C 66.32 42.96 64.21 44.50 62.22 46.19 C 61.93 45.63 61.36 44.50 61.07 43.94 C 60.49 41.32 59.74 38.74 58.92 36.19 C 58.17 38.75 57.49 41.32 56.91 43.92 C 56.04 45.22 55.58 46.76 55.74 48.34 C 55.37 49.45 55.01 50.56 54.63 51.67 C 54.48 52.24 54.19 53.37 54.04 53.94 C 50.79 56.36 47.61 58.90 44.20 61.10 C 45.17 58.07 46.15 55.03 47.12 52.00 C 47.55 50.67 47.97 49.34 48.40 48.00 C 50.13 42.60 51.84 37.19 53.58 31.79 C 53.82 31.12 54.29 29.77 54.53 29.10 Z" />
</g>
<g id="#f89b4aff">
<path fill="#f89b4a" opacity="1.00" d=" M 62.22 46.19 C 64.21 44.50 66.32 42.96 68.45 41.44 C 69.16 43.63 69.87 45.82 70.57 48.01 C 71.00 49.33 71.43 50.66 71.86 51.99 C 73.52 57.21 75.16 62.43 76.92 67.61 C 77.26 68.76 77.63 69.90 77.98 71.05 C 75.06 71.05 72.14 71.03 69.22 70.97 L 68.75 69.48 C 67.88 66.39 67.08 63.28 66.20 60.19 C 64.46 60.21 62.73 60.22 61.00 60.24 C 59.67 60.24 58.33 60.25 57.00 60.25 C 55.50 60.24 54.01 60.23 52.52 60.23 C 51.65 63.30 50.87 66.40 50.05 69.48 C 49.88 69.85 49.53 70.58 49.36 70.95 C 46.59 71.11 43.81 71.05 41.04 71.04 C 41.22 70.35 41.40 69.67 41.58 68.98 C 42.42 66.34 43.33 63.73 44.20 61.10 C 47.61 58.90 50.79 56.36 54.04 53.94 C 54.77 53.95 56.23 53.97 56.96 53.98 C 58.29 53.93 59.62 53.93 60.95 53.97 C 61.66 53.99 63.07 54.03 63.77 54.05 C 63.68 53.46 63.49 52.28 63.40 51.69 C 62.98 50.56 62.58 49.42 62.17 48.29 C 62.18 47.77 62.21 46.72 62.22 46.19 Z" />
</g>
<g id="#283bc8ff">
<path fill="#283bc8" opacity="1.00" d=" M 39.80 60.32 C 40.25 63.24 40.99 66.09 41.58 68.98 C 41.40 69.67 41.22 70.35 41.04 71.04 C 43.81 71.05 46.59 71.11 49.36 70.95 C 49.53 70.58 49.88 69.85 50.05 69.48 C 52.36 69.21 54.68 69.09 56.99 68.95 C 56.99 66.05 57.00 63.15 57.00 60.25 C 58.33 60.25 59.67 60.24 61.00 60.24 C 61.00 63.14 61.00 66.04 61.01 68.94 C 63.59 69.07 66.18 69.18 68.75 69.48 L 69.22 70.97 C 72.14 71.03 75.06 71.05 77.98 71.05 C 77.63 69.90 77.26 68.76 76.92 67.61 C 77.29 65.11 77.83 62.63 78.23 60.13 C 78.64 60.61 79.47 61.55 79.89 62.03 C 80.46 61.83 81.60 61.42 82.17 61.22 C 81.69 64.51 80.88 67.73 80.03 70.94 C 83.33 71.83 86.62 72.78 89.87 73.85 C 91.98 70.77 93.99 67.59 95.35 64.11 C 96.49 64.91 97.62 65.71 98.76 66.50 C 94.19 77.30 85.15 86.15 74.12 90.20 C 61.24 95.08 45.97 93.37 34.70 85.35 C 32.97 85.97 31.18 86.11 29.48 85.27 L 30.24 84.57 C 31.75 83.23 33.19 81.81 34.63 80.40 C 38.23 83.35 42.45 85.39 46.74 87.16 C 43.74 83.47 41.30 79.37 39.40 75.01 C 36.64 75.74 33.90 76.53 31.19 77.40 C 32.07 78.22 32.96 79.02 33.86 79.81 C 32.34 80.17 30.81 80.57 29.33 81.10 C 24.96 76.94 21.55 71.87 19.17 66.34 C 20.65 66.32 22.13 66.31 23.61 66.29 C 24.96 69.03 26.64 71.59 28.34 74.14 C 31.52 73.06 34.73 72.08 37.97 71.21 C 37.31 68.46 36.62 65.73 36.12 62.95 C 37.34 62.08 38.57 61.20 39.80 60.32 M 43.46 74.28 C 46.21 80.42 50.17 86.88 57.02 88.93 C 57.01 83.63 56.99 78.33 57.00 73.03 C 52.47 73.23 47.94 73.60 43.46 74.28 M 61.01 73.01 C 61.00 78.33 60.99 83.64 60.98 88.95 C 67.85 86.85 71.87 80.36 74.58 74.14 C 70.08 73.50 65.55 73.16 61.01 73.01 M 71.29 87.04 C 77.19 84.99 82.55 81.59 86.98 77.19 C 84.29 76.26 81.56 75.46 78.80 74.78 C 76.73 79.11 74.47 83.39 71.29 87.04 Z" />
</g>
</svg>
