<?xml version="1.0" encoding="UTF-8" ?>
<!DOCTYPE svg PUBLIC "-//W3C//DTD SVG 1.1//EN" "http://www.w3.org/Graphics/SVG/1.1/DTD/svg11.dtd">
<svg width="117px" height="140px" viewBox="0 0 117 140" version="1.1" xmlns="http://www.w3.org/2000/svg">
<g id="#181818ff">
<path fill="#181818" opacity="1.00" d=" M 0.00 0.00 L 117.00 0.00 L 117.00 140.00 L 0.00 140.00 L 0.00 0.00 M 42.73 29.96 C 41.08 32.99 38.81 35.61 36.19 37.85 C 37.76 38.70 39.32 39.57 40.89 40.42 C 40.82 41.05 40.70 42.29 40.64 42.92 C 39.39 42.96 38.15 43.00 36.91 43.04 C 36.91 43.84 36.91 45.43 36.91 46.22 C 37.73 46.23 39.36 46.26 40.17 46.27 C 39.92 48.26 39.66 50.26 39.40 52.25 C 43.55 52.24 47.71 52.21 51.86 52.33 C 49.15 53.66 46.34 54.81 43.49 55.80 C 43.87 57.02 44.26 58.25 44.65 59.47 C 46.95 59.27 49.25 59.10 51.55 59.03 C 47.95 60.61 44.15 61.67 40.32 62.53 C 40.75 63.88 41.17 65.23 41.59 66.59 C 43.69 66.32 45.80 65.91 47.92 66.22 C 44.83 68.59 40.82 69.46 37.19 70.77 C 38.95 71.82 40.40 74.61 42.76 73.66 C 45.73 72.86 48.36 71.18 50.84 69.41 C 51.29 71.37 52.06 73.24 52.84 75.08 C 55.95 74.57 60.00 75.60 62.25 72.85 C 62.90 70.21 62.73 67.47 62.79 64.78 C 67.21 64.83 72.59 62.61 76.00 66.56 C 77.26 65.61 78.53 64.66 79.79 63.72 C 76.65 61.01 73.24 58.65 69.69 56.52 C 68.46 57.40 67.22 58.27 65.98 59.14 C 66.51 59.52 67.57 60.27 68.10 60.65 C 64.67 60.77 61.25 60.90 57.83 60.86 C 61.60 59.44 65.33 57.88 68.93 56.07 C 67.91 54.91 66.89 53.76 65.87 52.60 C 62.56 54.73 58.68 55.27 54.82 55.16 C 55.47 54.79 56.77 54.04 57.42 53.67 C 58.62 52.25 59.83 50.84 61.07 49.46 C 61.43 50.38 62.14 52.23 62.50 53.15 C 65.08 51.82 67.61 50.40 70.08 48.88 C 72.76 50.71 75.61 52.27 78.59 53.57 C 79.61 52.15 80.64 50.73 81.67 49.33 C 78.86 48.33 76.16 47.09 73.58 45.60 C 75.17 43.02 76.62 40.37 77.91 37.63 C 78.58 37.59 79.94 37.51 80.62 37.47 C 80.62 36.47 80.61 34.46 80.61 33.45 C 76.75 33.44 72.89 33.44 69.03 33.47 C 69.14 32.88 69.38 31.71 69.50 31.13 C 67.96 30.86 66.42 30.59 64.89 30.32 C 63.57 34.09 61.56 37.58 58.87 40.53 C 60.00 41.60 61.13 42.67 62.25 43.75 C 63.02 43.09 63.79 42.43 64.56 41.77 C 65.29 43.03 66.07 44.26 66.69 45.57 C 63.94 47.79 60.56 49.00 57.11 49.56 C 57.18 48.74 57.33 47.10 57.40 46.28 C 58.61 46.26 59.82 46.24 61.04 46.22 C 61.03 45.42 61.03 43.82 61.02 43.02 C 60.24 43.01 58.67 42.99 57.88 42.98 C 57.98 41.02 58.08 39.07 58.17 37.11 C 53.14 37.04 48.09 37.35 43.07 36.82 C 48.49 34.94 54.37 36.34 59.98 35.85 C 59.96 34.67 59.95 33.48 59.93 32.29 C 55.95 32.26 51.96 32.34 47.97 32.16 C 46.35 31.16 44.56 30.48 42.73 29.96 M 64.95 68.56 C 68.76 70.11 72.29 72.24 76.08 73.81 C 77.62 73.18 79.01 72.23 80.44 71.39 C 76.84 69.35 73.19 67.12 69.10 66.25 C 67.62 66.83 66.31 67.75 64.95 68.56 Z" />
<path fill="#181818" opacity="1.00" d=" M 66.78 37.58 C 68.82 37.56 70.87 37.56 72.91 37.57 C 72.14 39.03 71.39 40.51 70.48 41.89 C 68.46 41.55 67.95 39.00 66.78 37.58 Z" />
<path fill="#181818" opacity="1.00" d=" M 44.79 43.13 C 45.13 41.97 45.48 40.81 45.88 39.67 C 47.03 41.26 48.86 42.34 49.75 44.10 C 48.51 43.86 46.03 43.37 44.79 43.13 Z" />
<path fill="#181818" opacity="1.00" d=" M 49.39 39.85 C 50.82 40.01 52.25 40.17 53.68 40.31 C 53.56 41.21 53.43 42.12 53.31 43.02 C 52.99 43.18 52.34 43.50 52.02 43.66 C 51.33 42.27 50.46 40.98 49.39 39.85 Z" />
<path fill="#181818" opacity="1.00" d=" M 44.72 46.05 C 46.76 46.32 48.04 48.31 49.68 49.37 C 47.77 49.35 45.85 49.32 43.93 49.28 C 44.13 48.47 44.52 46.86 44.72 46.05 Z" />
<path fill="#181818" opacity="1.00" d=" M 50.63 46.03 C 51.13 46.11 52.14 46.27 52.65 46.34 C 53.55 47.22 52.98 49.82 51.43 49.03 C 50.42 48.19 50.15 47.19 50.63 46.03 Z" />
<path fill="#181818" opacity="1.00" d=" M 49.30 65.78 C 51.88 65.42 54.49 65.36 57.09 65.17 C 57.11 66.99 57.12 68.80 57.14 70.62 C 55.00 70.62 52.81 70.49 51.16 68.96 L 53.38 68.23 C 51.99 67.75 50.60 67.29 49.25 66.70 C 49.26 66.47 49.29 66.01 49.30 65.78 Z" />
</g>
<g id="#514addff">
<path fill="#514add" opacity="1.00" d=" M 42.73 29.96 C 44.56 30.48 46.35 31.16 47.97 32.16 C 51.96 32.34 55.95 32.26 59.93 32.29 C 59.95 33.48 59.96 34.67 59.98 35.85 C 54.37 36.34 48.49 34.94 43.07 36.82 C 48.09 37.35 53.14 37.04 58.17 37.11 C 58.08 39.07 57.98 41.02 57.88 42.98 C 58.67 42.99 60.24 43.01 61.02 43.02 C 61.03 43.82 61.03 45.42 61.04 46.22 C 59.82 46.24 58.61 46.26 57.40 46.28 C 57.33 47.10 57.18 48.74 57.11 49.56 C 60.56 49.00 63.94 47.79 66.69 45.57 C 66.07 44.26 65.29 43.03 64.56 41.77 C 63.79 42.43 63.02 43.09 62.25 43.75 C 61.13 42.67 60.00 41.60 58.87 40.53 C 61.56 37.58 63.57 34.09 64.89 30.32 C 66.42 30.59 67.96 30.86 69.50 31.13 C 69.38 31.71 69.14 32.88 69.03 33.47 C 72.89 33.44 76.75 33.44 80.61 33.45 C 80.61 34.46 80.62 36.47 80.62 37.47 C 79.94 37.51 78.58 37.59 77.91 37.63 C 76.62 40.37 75.17 43.02 73.58 45.60 C 76.16 47.09 78.86 48.33 81.67 49.33 C 80.64 50.73 79.61 52.15 78.59 53.57 C 75.61 52.27 72.76 50.71 70.08 48.88 C 67.61 50.40 65.08 51.82 62.50 53.15 C 62.14 52.23 61.43 50.38 61.07 49.46 C 59.83 50.84 58.62 52.25 57.42 53.67 C 56.77 54.04 55.47 54.79 54.82 55.16 C 58.68 55.27 62.56 54.73 65.87 52.60 C 66.89 53.76 67.91 54.91 68.93 56.07 C 65.33 57.88 61.60 59.44 57.83 60.86 C 61.25 60.90 64.67 60.77 68.10 60.65 C 67.57 60.27 66.51 59.52 65.98 59.14 C 67.22 58.27 68.46 57.40 69.69 56.52 C 73.24 58.65 76.65 61.01 79.79 63.72 C 78.53 64.66 77.26 65.61 76.00 66.56 C 72.59 62.61 67.21 64.83 62.79 64.78 C 62.73 67.47 62.90 70.21 62.25 72.85 C 60.00 75.60 55.95 74.57 52.84 75.08 C 52.06 73.24 51.29 71.37 50.84 69.41 C 48.36 71.18 45.73 72.86 42.76 73.66 C 40.40 74.61 38.95 71.82 37.19 70.77 C 40.82 69.46 44.83 68.59 47.92 66.22 C 45.80 65.91 43.69 66.32 41.59 66.59 C 41.17 65.23 40.75 63.88 40.32 62.53 C 44.15 61.67 47.95 60.61 51.55 59.03 C 49.25 59.10 46.95 59.27 44.65 59.47 C 44.26 58.25 43.87 57.02 43.49 55.80 C 46.34 54.81 49.15 53.66 51.86 52.33 C 47.71 52.21 43.55 52.24 39.40 52.25 C 39.66 50.26 39.92 48.26 40.17 46.27 C 39.36 46.26 37.73 46.23 36.91 46.22 C 36.91 45.43 36.91 43.84 36.91 43.04 C 38.15 43.00 39.39 42.96 40.64 42.92 C 40.70 42.29 40.82 41.05 40.89 40.42 C 39.32 39.57 37.76 38.70 36.19 37.85 C 38.81 35.61 41.08 32.99 42.73 29.96 M 66.78 37.58 C 67.95 39.00 68.46 41.55 70.48 41.89 C 71.39 40.51 72.14 39.03 72.91 37.57 C 70.87 37.56 68.82 37.56 66.78 37.58 M 44.79 43.13 C 46.03 43.37 48.51 43.86 49.75 44.10 C 48.86 42.34 47.03 41.26 45.88 39.67 C 45.48 40.81 45.13 41.97 44.79 43.13 M 49.39 39.85 C 50.46 40.98 51.33 42.27 52.02 43.66 C 52.34 43.50 52.99 43.18 53.31 43.02 C 53.43 42.12 53.56 41.21 53.68 40.31 C 52.25 40.17 50.82 40.01 49.39 39.85 M 44.72 46.05 C 44.52 46.86 44.13 48.47 43.93 49.28 C 45.85 49.32 47.77 49.35 49.68 49.37 C 48.04 48.31 46.76 46.32 44.72 46.05 M 50.63 46.03 C 50.15 47.19 50.42 48.19 51.43 49.03 C 52.98 49.82 53.55 47.22 52.65 46.34 C 52.14 46.27 51.13 46.11 50.63 46.03 M 49.30 65.78 C 49.29 66.01 49.26 66.47 49.25 66.70 C 50.60 67.29 51.99 67.75 53.38 68.23 L 51.16 68.96 C 52.81 70.49 55.00 70.62 57.14 70.62 C 57.12 68.80 57.11 66.99 57.09 65.17 C 54.49 65.36 51.88 65.42 49.30 65.78 Z" />
<path fill="#514add" opacity="1.00" d=" M 64.95 68.56 C 66.31 67.75 67.62 66.83 69.10 66.25 C 73.19 67.12 76.84 69.35 80.44 71.39 C 79.01 72.23 77.62 73.18 76.08 73.81 C 72.29 72.24 68.76 70.11 64.95 68.56 Z" />
</g>
</svg>
