<?xml version="1.0" encoding="UTF-8" ?>
<!DOCTYPE svg PUBLIC "-//W3C//DTD SVG 1.1//EN" "http://www.w3.org/Graphics/SVG/1.1/DTD/svg11.dtd">
<svg width="117px" height="140px" viewBox="0 0 117 140" version="1.1" xmlns="http://www.w3.org/2000/svg">
<g id="#181818ff">
<path fill="#181818" opacity="1.00" d=" M 0.00 0.00 L 117.00 0.00 L 117.00 140.00 L 0.00 140.00 L 0.00 0.00 M 32.24 18.96 C 30.75 19.24 29.24 20.75 28.95 22.24 C 27.12 22.30 27.12 26.72 28.95 26.79 C 30.51 32.93 32.65 38.98 35.09 44.83 C 36.92 51.57 38.49 58.91 42.29 64.72 C 46.57 68.22 50.77 63.82 53.82 60.99 C 54.78 62.45 54.21 65.61 56.07 65.95 C 56.75 72.50 59.65 78.71 62.33 84.68 C 64.64 86.22 69.28 87.82 70.77 84.65 C 74.86 91.17 83.16 82.79 76.63 78.73 C 82.98 72.70 89.22 66.51 95.12 60.03 C 97.64 59.70 96.11 54.36 94.67 52.33 C 87.29 48.42 78.84 47.12 71.21 43.79 C 77.80 40.12 77.26 29.37 68.76 29.74 C 67.94 27.78 67.99 23.47 66.18 23.23 C 63.92 19.19 57.31 21.13 56.13 25.31 C 49.71 23.17 43.35 20.53 36.80 18.93 C 36.70 17.13 32.30 17.12 32.24 18.96 M 28.26 48.17 C 23.55 49.96 27.45 57.26 31.30 54.32 C 35.04 52.42 31.81 46.76 28.26 48.17 Z" />
</g>
<g id="#513979ff">
<path fill="#513979" opacity="1.00" d=" M 32.24 18.96 C 32.30 17.12 36.70 17.13 36.80 18.93 C 35.28 19.02 33.76 19.02 32.24 18.96 Z" />
</g>
<g id="#855ee2ff">
<path fill="#855ee2" opacity="1.00" d=" M 28.95 22.24 C 29.24 20.75 30.75 19.24 32.24 18.96 C 33.76 19.02 35.28 19.02 36.80 18.93 C 43.35 20.53 49.71 23.17 56.13 25.31 C 55.97 26.57 55.82 27.83 55.66 29.09 L 54.73 29.02 C 47.80 27.01 41.11 24.19 34.14 22.33 C 33.43 22.90 32.78 23.51 32.18 24.19 C 34.52 31.38 37.14 38.47 39.32 45.71 C 37.92 45.40 36.50 45.12 35.09 44.83 C 32.65 38.98 30.51 32.93 28.95 26.79 C 29.02 25.27 29.02 23.75 28.95 22.24 Z" />
</g>
<g id="#3b8fceff">
<path fill="#3b8fce" opacity="1.00" d=" M 56.13 25.31 C 57.31 21.13 63.92 19.19 66.18 23.23 C 63.55 25.96 60.49 28.40 58.73 31.82 C 57.74 31.26 56.80 30.63 55.86 30.00 L 55.66 29.09 C 55.82 27.83 55.97 26.57 56.13 25.31 Z" />
</g>
<g id="#4d3978ff">
<path fill="#4d3978" opacity="1.00" d=" M 28.95 26.79 C 27.12 26.72 27.12 22.30 28.95 22.24 C 29.02 23.75 29.02 25.27 28.95 26.79 Z" />
</g>
<g id="#f6cc70ff">
<path fill="#f6cc70" opacity="1.00" d=" M 34.14 22.33 C 41.11 24.19 47.80 27.01 54.73 29.02 C 53.70 33.07 54.82 36.89 55.75 40.76 C 52.39 46.03 47.57 50.44 42.02 53.33 C 41.12 50.79 40.25 48.24 39.32 45.71 C 37.14 38.47 34.52 31.38 32.18 24.19 C 32.78 23.51 33.43 22.90 34.14 22.33 Z" />
</g>
<g id="#2b55c2ff">
<path fill="#2b55c2" opacity="1.00" d=" M 66.18 23.23 C 67.99 23.47 67.94 27.78 68.76 29.74 C 67.68 30.45 66.63 31.22 65.60 31.99 C 63.34 32.77 60.75 33.63 58.73 31.82 C 60.49 28.40 63.55 25.96 66.18 23.23 Z" />
</g>
<g id="#f3b15cff">
<path fill="#f3b15c" opacity="1.00" d=" M 54.73 29.02 L 55.66 29.09 L 55.86 30.00 C 55.68 38.02 64.70 38.17 69.18 33.62 C 76.67 36.62 64.61 40.72 64.93 45.84 C 67.56 47.23 70.45 48.00 73.24 48.99 C 69.23 54.37 64.90 59.89 59.06 63.36 C 58.03 60.53 57.25 57.60 55.84 54.93 C 51.33 55.56 49.40 60.92 45.16 62.09 C 43.69 59.34 42.91 56.30 42.02 53.33 C 47.57 50.44 52.39 46.03 55.75 40.76 C 54.82 36.89 53.70 33.07 54.73 29.02 Z" />
</g>
<g id="#a17b47ff">
<path fill="#a17b47" opacity="1.00" d=" M 55.86 30.00 C 56.80 30.63 57.74 31.26 58.73 31.82 C 60.75 33.63 63.34 32.77 65.60 31.99 C 66.79 32.53 68.00 33.04 69.18 33.62 C 64.70 38.17 55.68 38.02 55.86 30.00 Z" />
</g>
<g id="#6550d1ff">
<path fill="#6550d1" opacity="1.00" d=" M 65.60 31.99 C 66.63 31.22 67.68 30.45 68.76 29.74 C 77.26 29.37 77.80 40.12 71.21 43.79 C 78.84 47.12 87.29 48.42 94.67 52.33 C 96.11 54.36 97.64 59.70 95.12 60.03 C 93.38 59.99 91.64 59.95 89.91 59.92 C 90.87 58.54 92.54 57.17 91.85 55.29 C 85.76 52.89 79.51 50.89 73.24 48.99 C 70.45 48.00 67.56 47.23 64.93 45.84 C 64.61 40.72 76.67 36.62 69.18 33.62 C 68.00 33.04 66.79 32.53 65.60 31.99 Z" />
</g>
<g id="#4f49caff">
<path fill="#4f49ca" opacity="1.00" d=" M 35.09 44.83 C 36.50 45.12 37.92 45.40 39.32 45.71 C 40.25 48.24 41.12 50.79 42.02 53.33 C 42.91 56.30 43.69 59.34 45.16 62.09 C 49.40 60.92 51.33 55.56 55.84 54.93 C 57.25 57.60 58.03 60.53 59.06 63.36 C 59.31 64.28 59.58 65.19 59.84 66.11 C 58.59 66.05 57.33 66.00 56.07 65.95 C 54.21 65.61 54.78 62.45 53.82 60.99 C 50.77 63.82 46.57 68.22 42.29 64.72 C 38.49 58.91 36.92 51.57 35.09 44.83 Z" />
</g>
<g id="#edad97ff">
<path fill="#edad97" opacity="1.00" d=" M 28.26 48.17 C 31.81 46.76 35.04 52.42 31.30 54.32 C 27.45 57.26 23.55 49.96 28.26 48.17 Z" />
</g>
<g id="#f79747ff">
<path fill="#f79747" opacity="1.00" d=" M 73.24 48.99 C 79.51 50.89 85.76 52.89 91.85 55.29 C 92.54 57.17 90.87 58.54 89.91 59.92 C 81.77 66.73 75.28 75.53 66.93 81.98 C 61.92 79.98 62.37 71.04 59.84 66.11 C 59.58 65.19 59.31 64.28 59.06 63.36 C 64.90 59.89 69.23 54.37 73.24 48.99 Z" />
</g>
<g id="#373fbdff">
<path fill="#373fbd" opacity="1.00" d=" M 66.93 81.98 C 75.28 75.53 81.77 66.73 89.91 59.92 C 91.64 59.95 93.38 59.99 95.12 60.03 C 89.22 66.51 82.98 72.70 76.63 78.73 C 73.12 78.54 70.49 81.11 70.77 84.65 C 69.28 87.82 64.64 86.22 62.33 84.68 C 59.65 78.71 56.75 72.50 56.07 65.95 C 57.33 66.00 58.59 66.05 59.84 66.11 C 62.37 71.04 61.92 79.98 66.93 81.98 Z" />
</g>
<g id="#58d04bff">
<path fill="#58d04b" opacity="1.00" d=" M 70.77 84.65 C 70.49 81.11 73.12 78.54 76.63 78.73 C 83.16 82.79 74.86 91.17 70.77 84.65 Z" />
</g>
</svg>
