<?xml version="1.0" encoding="UTF-8" ?>
<!DOCTYPE svg PUBLIC "-//W3C//DTD SVG 1.1//EN" "http://www.w3.org/Graphics/SVG/1.1/DTD/svg11.dtd">
<svg width="117px" height="140px" viewBox="0 0 117 140" version="1.1" xmlns="http://www.w3.org/2000/svg">
<g id="#181818ff">
<path fill="#181818" opacity="1.00" d=" M 0.00 0.00 L 117.00 0.00 L 117.00 140.00 L 0.00 140.00 L 0.00 0.00 M 31.69 35.44 C 31.69 47.30 31.69 59.15 31.71 71.00 C 34.08 70.99 36.45 71.00 38.81 71.00 C 38.83 66.53 38.83 62.06 38.86 57.59 C 40.49 57.59 42.12 57.59 43.75 57.58 C 46.19 62.05 48.61 66.52 51.05 70.98 C 53.69 70.97 56.33 70.96 58.97 70.96 C 56.20 66.18 53.49 61.37 50.76 56.57 C 51.91 55.82 53.10 55.11 54.18 54.25 C 59.43 49.48 58.39 38.84 51.14 36.55 C 44.87 34.59 38.16 35.71 31.69 35.44 M 63.59 44.10 C 63.70 50.72 63.29 57.36 63.82 63.96 C 64.04 67.80 66.97 71.63 71.07 71.59 C 74.90 72.03 78.14 69.67 80.61 67.02 C 80.78 68.31 80.95 69.60 81.13 70.89 C 83.04 70.90 84.95 70.91 86.87 70.93 C 86.81 62.00 86.88 53.06 86.90 44.13 C 84.55 44.14 82.20 44.14 79.85 44.14 C 79.77 50.08 80.05 56.03 79.75 61.95 C 78.91 64.70 75.41 66.30 72.69 65.34 C 70.76 64.35 70.71 61.83 70.62 59.95 C 70.58 54.67 70.66 49.40 70.64 44.12 C 68.29 44.11 65.94 44.11 63.59 44.10 Z" />
<path fill="#181818" opacity="1.00" d=" M 38.90 41.08 C 41.92 41.20 45.10 40.80 47.98 41.95 C 51.60 43.67 51.01 49.94 47.28 51.19 C 44.60 52.20 41.67 51.85 38.88 51.95 C 38.85 48.33 38.86 44.71 38.90 41.08 Z" />
</g>
<g id="#f8ad56ff">
<path fill="#f8ad56" opacity="1.00" d=" M 31.69 35.44 C 38.16 35.71 44.87 34.59 51.14 36.55 C 58.39 38.84 59.43 49.48 54.18 54.25 C 53.10 55.11 51.91 55.82 50.76 56.57 C 53.49 61.37 56.20 66.18 58.97 70.96 C 56.33 70.96 53.69 70.97 51.05 70.98 C 48.61 66.52 46.19 62.05 43.75 57.58 C 42.12 57.59 40.49 57.59 38.86 57.59 C 38.83 62.06 38.83 66.53 38.81 71.00 C 36.45 71.00 34.08 70.99 31.71 71.00 C 31.69 59.15 31.69 47.30 31.69 35.44 M 38.90 41.08 C 38.86 44.71 38.85 48.33 38.88 51.95 C 41.67 51.85 44.60 52.20 47.28 51.19 C 51.01 49.94 51.60 43.67 47.98 41.95 C 45.10 40.80 41.92 41.20 38.90 41.08 Z" />
<path fill="#f8ad56" opacity="1.00" d=" M 63.59 44.10 C 65.94 44.11 68.29 44.11 70.64 44.12 C 70.66 49.40 70.58 54.67 70.62 59.95 C 70.71 61.83 70.76 64.35 72.69 65.34 C 75.41 66.30 78.91 64.70 79.75 61.95 C 80.05 56.03 79.77 50.08 79.85 44.14 C 82.20 44.14 84.55 44.14 86.90 44.13 C 86.88 53.06 86.81 62.00 86.87 70.93 C 84.95 70.91 83.04 70.90 81.13 70.89 C 80.95 69.60 80.78 68.31 80.61 67.02 C 78.14 69.67 74.90 72.03 71.07 71.59 C 66.97 71.63 64.04 67.80 63.82 63.96 C 63.29 57.36 63.70 50.72 63.59 44.10 Z" />
</g>
</svg>
