<?xml version="1.0" encoding="UTF-8" ?>
<!DOCTYPE svg PUBLIC "-//W3C//DTD SVG 1.1//EN" "http://www.w3.org/Graphics/SVG/1.1/DTD/svg11.dtd">
<svg width="117px" height="140px" viewBox="0 0 117 140" version="1.1" xmlns="http://www.w3.org/2000/svg">
<g id="#181818ff">
<path fill="#181818" opacity="1.00" d=" M 0.00 0.00 L 117.00 0.00 L 117.00 140.00 L 0.00 140.00 L 0.00 0.00 M 57.02 8.98 C 56.95 16.57 57.03 24.17 57.05 31.76 C 57.03 32.59 56.99 34.25 56.96 35.08 C 50.72 36.07 44.91 41.19 44.41 47.68 C 36.65 48.40 28.79 47.82 20.99 47.99 C 19.37 48.18 17.13 47.41 16.14 49.16 C 15.66 50.39 16.51 52.07 17.95 51.94 C 26.65 52.09 35.37 51.94 44.08 52.01 C 44.51 53.87 45.16 55.67 45.90 57.43 C 48.31 61.40 52.39 64.16 56.97 64.92 C 57.13 68.39 56.93 71.88 57.14 75.35 C 56.90 80.58 56.96 85.81 57.07 91.04 C 56.91 93.09 60.00 93.66 60.80 91.88 C 61.17 88.78 61.01 85.64 60.96 82.52 C 60.93 76.66 60.90 70.79 61.03 64.92 C 65.62 64.15 69.72 61.39 72.12 57.39 C 72.85 55.65 73.49 53.86 73.92 52.02 C 81.30 51.84 88.67 51.56 96.05 52.01 C 97.96 51.74 100.66 52.79 101.88 50.80 C 102.17 49.67 101.83 48.79 100.88 48.17 C 97.58 47.74 94.24 48.13 90.92 48.19 C 90.04 48.11 88.27 47.95 87.39 47.88 C 90.64 46.70 93.26 42.81 91.45 39.46 C 90.15 37.70 88.37 35.79 85.97 35.96 C 82.76 35.78 79.72 38.85 79.97 42.06 C 79.84 44.39 81.68 46.19 83.51 47.34 L 84.25 47.87 C 83.44 47.96 81.81 48.12 81.00 48.21 C 78.52 48.02 76.01 48.21 73.57 47.68 C 73.09 41.19 67.28 36.07 61.04 35.08 C 61.01 34.25 60.97 32.58 60.95 31.75 C 60.92 23.88 61.15 16.00 60.91 8.13 C 60.07 6.20 56.80 6.84 57.02 8.98 M 36.95 27.48 L 37.70 27.61 C 39.76 31.64 45.51 26.48 42.05 23.68 L 41.41 24.10 L 41.75 23.00 C 38.93 22.11 36.18 24.58 36.95 27.48 M 16.39 56.00 C 16.92 59.58 17.92 63.07 19.24 66.43 C 20.53 69.53 22.23 72.43 24.13 75.19 C 26.00 77.39 27.77 79.69 29.95 81.60 C 32.25 83.65 34.65 85.59 37.32 87.15 C 42.12 89.97 47.48 91.73 52.96 92.59 C 52.99 89.28 52.95 85.97 52.98 82.66 C 52.99 81.60 53.02 79.48 53.04 78.43 L 52.21 78.07 C 54.96 76.47 55.90 72.40 53.03 70.43 C 53.00 69.85 52.96 68.69 52.94 68.11 C 50.54 67.11 48.34 65.74 46.31 64.11 C 44.49 62.26 42.88 60.20 41.67 57.90 L 41.49 58.04 C 41.35 57.55 41.06 56.55 40.91 56.06 C 37.09 55.91 33.26 56.03 29.44 56.00 C 25.09 56.01 20.74 55.99 16.39 56.00 Z" />
<path fill="#181818" opacity="1.00" d=" M 47.30 46.88 C 48.66 42.85 51.86 39.33 56.12 38.37 C 62.34 36.67 68.94 40.84 70.70 46.91 C 71.21 49.96 70.96 53.16 69.48 55.92 C 67.41 59.15 64.02 61.62 60.12 61.91 C 55.45 62.45 50.91 59.81 48.50 55.89 C 47.02 53.12 46.80 49.93 47.30 46.88 Z" />
</g>
<g id="#885cf0ff">
<path fill="#885cf0" opacity="1.00" d=" M 57.02 8.98 C 56.80 6.84 60.07 6.20 60.91 8.13 C 61.15 16.00 60.92 23.88 60.95 31.75 C 59.65 31.75 58.35 31.76 57.05 31.76 C 57.03 24.17 56.95 16.57 57.02 8.98 Z" />
<path fill="#885cf0" opacity="1.00" d=" M 47.01 74.16 C 47.33 71.23 50.22 69.41 53.03 70.43 C 55.90 72.40 54.96 76.47 52.21 78.07 C 50.28 78.00 48.43 77.46 47.27 75.80 L 47.01 74.16 Z" />
</g>
<g id="#43dda5ff">
<path fill="#43dda5" opacity="1.00" d=" M 36.95 27.48 C 36.18 24.58 38.93 22.11 41.75 23.00 L 41.41 24.10 C 40.19 25.29 38.98 26.48 37.70 27.61 L 36.95 27.48 Z" />
</g>
<g id="#23d2beff">
<path fill="#23d2be" opacity="1.00" d=" M 41.41 24.10 L 42.05 23.68 C 45.51 26.48 39.76 31.64 37.70 27.61 C 38.98 26.48 40.19 25.29 41.41 24.10 Z" />
</g>
<g id="#7054e8ff">
<path fill="#7054e8" opacity="1.00" d=" M 57.05 31.76 C 58.35 31.76 59.65 31.75 60.95 31.75 C 60.97 32.58 61.01 34.25 61.04 35.08 C 67.28 36.07 73.09 41.19 73.57 47.68 C 72.86 47.49 71.42 47.10 70.70 46.91 C 68.94 40.84 62.34 36.67 56.12 38.37 C 51.86 39.33 48.66 42.85 47.30 46.88 C 46.58 47.08 45.13 47.48 44.41 47.68 C 44.91 41.19 50.72 36.07 56.96 35.08 C 56.99 34.25 57.03 32.59 57.05 31.76 Z" />
</g>
<g id="#b85cb8ff">
<path fill="#b85cb8" opacity="1.00" d=" M 79.97 42.06 C 79.72 38.85 82.76 35.78 85.97 35.96 C 88.37 35.79 90.15 37.70 91.45 39.46 C 88.70 41.98 86.08 44.63 83.51 47.34 C 81.68 46.19 79.84 44.39 79.97 42.06 Z" />
</g>
<g id="#794283ff">
<path fill="#794283" opacity="1.00" d=" M 91.45 39.46 C 93.26 42.81 90.64 46.70 87.39 47.88 C 86.34 47.88 85.30 47.88 84.25 47.87 L 83.51 47.34 C 86.08 44.63 88.70 41.98 91.45 39.46 Z" />
</g>
<g id="#584ce0ff">
<path fill="#584ce0" opacity="1.00" d=" M 44.41 47.68 C 45.13 47.48 46.58 47.08 47.30 46.88 C 46.80 49.93 47.02 53.12 48.50 55.89 C 47.85 56.27 46.55 57.04 45.90 57.43 C 45.16 55.67 44.51 53.87 44.08 52.01 C 35.37 51.94 26.65 52.09 17.95 51.94 C 16.51 52.07 15.66 50.39 16.14 49.16 C 17.13 47.41 19.37 48.18 20.99 47.99 C 28.79 47.82 36.65 48.40 44.41 47.68 Z" />
<path fill="#584ce0" opacity="1.00" d=" M 70.70 46.91 C 71.42 47.10 72.86 47.49 73.57 47.68 C 76.01 48.21 78.52 48.02 81.00 48.21 C 81.99 52.32 87.18 51.07 90.22 50.39 C 90.39 49.84 90.75 48.74 90.92 48.19 C 94.24 48.13 97.58 47.74 100.88 48.17 C 101.83 48.79 102.17 49.67 101.88 50.80 C 100.66 52.79 97.96 51.74 96.05 52.01 C 88.67 51.56 81.30 51.84 73.92 52.02 C 73.49 53.86 72.85 55.65 72.12 57.39 C 71.46 57.02 70.14 56.29 69.48 55.92 C 70.96 53.16 71.21 49.96 70.70 46.91 Z" />
</g>
<g id="#342e86ff">
<path fill="#342e86" opacity="1.00" d=" M 81.00 48.21 C 81.81 48.12 83.44 47.96 84.25 47.87 C 85.30 47.88 86.34 47.88 87.39 47.88 C 88.27 47.95 90.04 48.11 90.92 48.19 C 90.75 48.74 90.39 49.84 90.22 50.39 C 87.18 51.07 81.99 52.32 81.00 48.21 Z" />
</g>
<g id="#f8dc78ff">
<path fill="#f8dc78" opacity="1.00" d=" M 16.39 56.00 C 20.74 55.99 25.09 56.01 29.44 56.00 C 26.43 59.84 23.05 63.38 19.24 66.43 C 17.92 63.07 16.92 59.58 16.39 56.00 Z" />
</g>
<g id="#f8c868ff">
<path fill="#f8c868" opacity="1.00" d=" M 29.44 56.00 C 33.26 56.03 37.09 55.91 40.91 56.06 C 41.06 56.55 41.35 57.55 41.49 58.04 C 35.15 63.14 29.38 68.98 24.13 75.19 C 22.23 72.43 20.53 69.53 19.24 66.43 C 23.05 63.38 26.43 59.84 29.44 56.00 Z" />
</g>
<g id="#4044d8ff">
<path fill="#4044d8" opacity="1.00" d=" M 48.50 55.89 C 50.91 59.81 55.45 62.45 60.12 61.91 C 64.02 61.62 67.41 59.15 69.48 55.92 C 70.14 56.29 71.46 57.02 72.12 57.39 C 69.72 61.39 65.62 64.15 61.03 64.92 C 60.90 70.79 60.93 76.66 60.96 82.52 C 59.93 80.01 58.46 77.72 57.14 75.35 C 56.93 71.88 57.13 68.39 56.97 64.92 C 52.39 64.16 48.31 61.40 45.90 57.43 C 46.55 57.04 47.85 56.27 48.50 55.89 Z" />
</g>
<g id="#f8b460ff">
<path fill="#f8b460" opacity="1.00" d=" M 41.49 58.04 L 41.67 57.90 C 42.88 60.20 44.49 62.26 46.31 64.11 C 42.06 70.93 35.52 75.91 29.95 81.60 C 27.77 79.69 26.00 77.39 24.13 75.19 C 29.38 68.98 35.15 63.14 41.49 58.04 Z" />
</g>
<g id="#f8a050ff">
<path fill="#f8a050" opacity="1.00" d=" M 46.31 64.11 C 48.34 65.74 50.54 67.11 52.94 68.11 C 52.96 68.69 53.00 69.85 53.03 70.43 C 50.22 69.41 47.33 71.23 47.01 74.16 C 43.41 78.24 41.82 83.78 37.32 87.15 C 34.65 85.59 32.25 83.65 29.95 81.60 C 35.52 75.91 42.06 70.93 46.31 64.11 Z" />
</g>
<g id="#f88838ff">
<path fill="#f88838" opacity="1.00" d=" M 37.32 87.15 C 41.82 83.78 43.41 78.24 47.01 74.16 L 47.27 75.80 C 47.39 77.37 47.38 78.95 47.54 80.52 C 48.88 82.08 51.11 82.20 52.98 82.66 C 52.95 85.97 52.99 89.28 52.96 92.59 C 47.48 91.73 42.12 89.97 37.32 87.15 Z" />
</g>
<g id="#a05828ff">
<path fill="#a05828" opacity="1.00" d=" M 47.27 75.80 C 48.43 77.46 50.28 78.00 52.21 78.07 L 53.04 78.43 C 53.02 79.48 52.99 81.60 52.98 82.66 C 51.11 82.20 48.88 82.08 47.54 80.52 C 47.38 78.95 47.39 77.37 47.27 75.80 Z" />
</g>
<g id="#2038c8ff">
<path fill="#2038c8" opacity="1.00" d=" M 57.14 75.35 C 58.46 77.72 59.93 80.01 60.96 82.52 C 61.01 85.64 61.17 88.78 60.80 91.88 C 60.00 93.66 56.91 93.09 57.07 91.04 C 56.96 85.81 56.90 80.58 57.14 75.35 Z" />
</g>
</svg>
