<?xml version="1.0" encoding="UTF-8" ?>
<!DOCTYPE svg PUBLIC "-//W3C//DTD SVG 1.1//EN" "http://www.w3.org/Graphics/SVG/1.1/DTD/svg11.dtd">
<svg width="117px" height="140px" viewBox="0 0 117 140" version="1.1" xmlns="http://www.w3.org/2000/svg">
<g id="#181818ff">
<path fill="#181818" opacity="1.00" d=" M 0.00 0.00 L 117.00 0.00 L 117.00 140.00 L 0.00 140.00 L 0.00 0.00 M 53.75 9.65 C 50.53 15.50 47.82 21.62 44.72 27.54 C 42.34 32.13 40.17 36.84 37.73 41.40 C 36.08 44.04 35.24 47.81 37.69 50.26 C 39.97 52.93 43.77 52.13 46.87 52.31 C 45.82 54.37 44.79 56.44 43.74 58.51 C 42.25 61.92 39.86 65.06 39.10 68.74 C 37.47 68.17 35.30 67.33 34.04 69.04 C 31.45 71.19 33.90 75.38 37.00 74.99 L 36.01 75.74 C 36.68 77.27 37.43 78.76 38.25 80.22 C 40.42 80.93 42.67 81.42 44.97 81.30 C 55.31 81.17 65.67 81.43 76.01 81.18 C 80.30 81.03 82.68 76.10 81.11 72.34 C 80.28 71.04 79.46 69.72 78.65 68.41 L 77.71 67.98 C 81.12 68.14 83.34 63.65 80.83 61.20 C 79.26 59.38 76.85 60.17 74.92 60.80 C 73.93 58.51 72.85 56.27 71.73 54.04 L 71.27 54.19 C 71.29 53.69 71.33 52.68 71.35 52.18 C 73.22 52.21 75.12 52.37 76.98 52.07 C 80.34 51.32 82.65 47.32 81.15 44.09 C 79.26 39.58 76.88 35.28 74.33 31.12 C 78.64 27.61 74.88 20.15 69.59 20.94 C 67.66 17.08 66.00 13.07 63.73 9.39 C 61.62 5.81 55.66 5.90 53.75 9.65 Z" />
</g>
<g id="#8860f0ff">
<path fill="#8860f0" opacity="1.00" d=" M 53.75 9.65 C 55.66 5.90 61.62 5.81 63.73 9.39 C 66.00 13.07 67.66 17.08 69.59 20.94 C 68.41 21.46 67.23 21.99 66.06 22.54 C 63.91 18.70 62.46 14.46 59.86 10.88 C 57.60 9.89 56.85 12.40 55.94 13.90 C 53.60 18.51 51.39 23.19 49.03 27.79 C 47.60 27.70 46.16 27.62 44.72 27.54 C 47.82 21.62 50.53 15.50 53.75 9.65 Z" />
</g>
<g id="#f8c870ff">
<path fill="#f8c870" opacity="1.00" d=" M 55.94 13.90 C 56.85 12.40 57.60 9.89 59.86 10.88 C 62.46 14.46 63.91 18.70 66.06 22.54 C 65.87 22.88 65.49 23.56 65.30 23.90 C 61.74 26.88 60.19 31.86 55.69 33.74 C 51.63 35.74 48.04 39.25 43.29 39.34 C 45.20 35.48 47.08 31.61 49.03 27.79 C 51.39 23.19 53.60 18.51 55.94 13.90 Z" />
</g>
<g id="#d87070ff">
<path fill="#d87070" opacity="1.00" d=" M 66.06 22.54 C 67.23 21.99 68.41 21.46 69.59 20.94 C 74.88 20.15 78.64 27.61 74.33 31.12 C 73.55 31.84 72.72 32.51 71.91 33.19 C 68.45 32.88 65.52 31.10 63.85 28.03 C 64.30 26.64 64.78 25.26 65.30 23.90 C 65.49 23.56 65.87 22.88 66.06 22.54 Z" />
</g>
<g id="#f8b460ff">
<path fill="#f8b460" opacity="1.00" d=" M 55.69 33.74 C 60.19 31.86 61.74 26.88 65.30 23.90 C 64.78 25.26 64.30 26.64 63.85 28.03 C 62.70 31.78 64.16 35.37 66.69 38.15 C 67.58 39.38 68.48 40.61 69.37 41.85 C 63.56 44.27 58.38 48.06 52.50 50.22 C 49.79 46.64 44.78 49.07 41.02 48.05 C 39.13 46.63 40.75 44.45 41.43 42.87 C 42.03 41.68 42.67 40.51 43.29 39.34 C 48.04 39.25 51.63 35.74 55.69 33.74 Z" />
</g>
<g id="#6854e8ff">
<path fill="#6854e8" opacity="1.00" d=" M 37.73 41.40 C 40.17 36.84 42.34 32.13 44.72 27.54 C 46.16 27.62 47.60 27.70 49.03 27.79 C 47.08 31.61 45.20 35.48 43.29 39.34 C 42.67 40.51 42.03 41.68 41.43 42.87 C 40.20 42.38 38.96 41.89 37.73 41.40 Z" />
</g>
<g id="#b88040ff">
<path fill="#b88040" opacity="1.00" d=" M 66.69 38.15 C 64.16 35.37 62.70 31.78 63.85 28.03 C 65.52 31.10 68.45 32.88 71.91 33.19 C 72.58 34.96 73.24 36.74 74.03 38.46 C 71.58 38.34 69.14 38.23 66.69 38.15 Z" />
</g>
<g id="#5048d8ff">
<path fill="#5048d8" opacity="1.00" d=" M 71.91 33.19 C 72.72 32.51 73.55 31.84 74.33 31.12 C 76.88 35.28 79.26 39.58 81.15 44.09 C 82.65 47.32 80.34 51.32 76.98 52.07 C 75.12 52.37 73.22 52.21 71.35 52.18 C 71.33 52.68 71.29 53.69 71.27 54.19 C 70.15 54.56 69.03 54.91 67.90 55.25 C 67.10 53.64 66.26 52.05 65.39 50.47 C 65.78 49.85 66.19 49.24 66.63 48.65 C 69.99 47.85 73.55 48.77 76.91 47.90 C 77.62 47.19 77.78 46.39 77.38 45.50 C 76.48 43.05 75.12 40.82 74.03 38.46 C 73.24 36.74 72.58 34.96 71.91 33.19 Z" />
<path fill="#5048d8" opacity="1.00" d=" M 37.69 50.26 C 35.24 47.81 36.08 44.04 37.73 41.40 C 38.96 41.89 40.20 42.38 41.43 42.87 C 40.75 44.45 39.13 46.63 41.02 48.05 C 44.78 49.07 49.79 46.64 52.50 50.22 C 50.81 53.01 49.43 55.97 47.99 58.88 C 46.57 58.76 45.16 58.63 43.74 58.51 C 44.79 56.44 45.82 54.37 46.87 52.31 C 43.77 52.13 39.97 52.93 37.69 50.26 Z" />
</g>
<g id="#f8a450ff">
<path fill="#f8a450" opacity="1.00" d=" M 66.69 38.15 C 69.14 38.23 71.58 38.34 74.03 38.46 C 75.12 40.82 76.48 43.05 77.38 45.50 C 77.78 46.39 77.62 47.19 76.91 47.90 C 73.55 48.77 69.99 47.85 66.63 48.65 C 66.19 49.24 65.78 49.85 65.39 50.47 C 62.79 53.42 59.26 55.22 55.83 57.02 C 53.09 58.41 50.49 60.57 47.23 60.41 L 47.99 58.88 C 49.43 55.97 50.81 53.01 52.50 50.22 C 58.38 48.06 63.56 44.27 69.37 41.85 C 68.48 40.61 67.58 39.38 66.69 38.15 Z" />
</g>
<g id="#f89040ff">
<path fill="#f89040" opacity="1.00" d=" M 65.39 50.47 C 66.26 52.05 67.10 53.64 67.90 55.25 C 69.45 58.33 70.98 61.43 72.52 64.53 C 71.77 67.01 71.71 70.00 69.81 71.96 C 67.17 73.98 64.11 75.37 61.40 77.29 C 54.39 77.24 47.37 77.53 40.36 77.08 C 40.45 75.82 40.54 74.56 40.63 73.29 C 42.96 69.07 45.03 64.71 47.23 60.41 C 50.49 60.57 53.09 58.41 55.83 57.02 C 59.26 55.22 62.79 53.42 65.39 50.47 Z" />
</g>
<g id="#4044d8ff">
<path fill="#4044d8" opacity="1.00" d=" M 71.27 54.19 L 71.73 54.04 C 72.85 56.27 73.93 58.51 74.92 60.80 C 74.55 62.53 74.20 64.27 73.87 66.01 L 72.96 65.41 C 72.85 65.19 72.63 64.75 72.52 64.53 C 70.98 61.43 69.45 58.33 67.90 55.25 C 69.03 54.91 70.15 54.56 71.27 54.19 Z" />
</g>
<g id="#3040d0ff">
<path fill="#3040d0" opacity="1.00" d=" M 39.10 68.74 C 39.86 65.06 42.25 61.92 43.74 58.51 C 45.16 58.63 46.57 58.76 47.99 58.88 L 47.23 60.41 C 45.03 64.71 42.96 69.07 40.63 73.29 L 40.31 72.35 C 39.89 71.15 39.47 69.95 39.10 68.74 Z" />
</g>
<g id="#60dc48ff">
<path fill="#60dc48" opacity="1.00" d=" M 74.92 60.80 C 76.85 60.17 79.26 59.38 80.83 61.20 C 83.34 63.65 81.12 68.14 77.71 67.98 C 76.39 67.41 75.10 66.77 73.87 66.01 C 74.20 64.27 74.55 62.53 74.92 60.80 Z" />
</g>
<g id="#f87830ff">
<path fill="#f87830" opacity="1.00" d=" M 72.52 64.53 C 72.63 64.75 72.85 65.19 72.96 65.41 C 74.61 68.96 76.42 72.44 77.84 76.09 C 72.84 78.66 66.82 76.74 61.40 77.29 C 64.11 75.37 67.17 73.98 69.81 71.96 C 71.71 70.00 71.77 67.01 72.52 64.53 Z" />
</g>
<g id="#182888ff">
<path fill="#182888" opacity="1.00" d=" M 72.96 65.41 L 73.87 66.01 C 75.10 66.77 76.39 67.41 77.71 67.98 L 78.65 68.41 C 79.46 69.72 80.28 71.04 81.11 72.34 C 80.46 72.47 79.16 72.73 78.51 72.86 C 78.30 73.94 78.08 75.02 77.84 76.09 C 76.42 72.44 74.61 68.96 72.96 65.41 Z" />
</g>
<g id="#e060d0ff">
<path fill="#e060d0" opacity="1.00" d=" M 34.04 69.04 C 35.30 67.33 37.47 68.17 39.10 68.74 C 39.47 69.95 39.89 71.15 40.31 72.35 C 39.22 73.24 38.13 74.15 37.00 74.99 C 33.90 75.38 31.45 71.19 34.04 69.04 Z" />
</g>
<g id="#1e2a90ff">
<path fill="#1e2a90" opacity="1.00" d=" M 37.00 74.99 C 38.13 74.15 39.22 73.24 40.31 72.35 L 40.63 73.29 C 40.54 74.56 40.45 75.82 40.36 77.08 C 39.67 78.14 38.97 79.18 38.25 80.22 C 37.43 78.76 36.68 77.27 36.01 75.74 L 37.00 74.99 Z" />
</g>
<g id="#1834c8ff">
<path fill="#1834c8" opacity="1.00" d=" M 78.51 72.86 C 79.16 72.73 80.46 72.47 81.11 72.34 C 82.68 76.10 80.30 81.03 76.01 81.18 C 65.67 81.43 55.31 81.17 44.97 81.30 C 42.67 81.42 40.42 80.93 38.25 80.22 C 38.97 79.18 39.67 78.14 40.36 77.08 C 47.37 77.53 54.39 77.24 61.40 77.29 C 66.82 76.74 72.84 78.66 77.84 76.09 C 78.08 75.02 78.30 73.94 78.51 72.86 Z" />
</g>
</svg>
