<?xml version="1.0" encoding="UTF-8" ?>
<!DOCTYPE svg PUBLIC "-//W3C//DTD SVG 1.1//EN" "http://www.w3.org/Graphics/SVG/1.1/DTD/svg11.dtd">
<svg width="117px" height="140px" viewBox="0 0 117 140" version="1.1" xmlns="http://www.w3.org/2000/svg">
<g id="#181818ff">
<path fill="#181818" opacity="1.00" d=" M 0.00 0.00 L 117.00 0.00 L 117.00 140.00 L 0.00 140.00 L 0.00 0.00 M 57.00 8.98 C 56.98 17.58 57.02 26.18 56.99 34.78 C 55.94 35.06 54.90 35.38 53.87 35.74 C 49.68 37.29 46.28 40.72 44.73 44.90 C 44.41 45.94 44.09 46.97 43.77 48.00 C 35.17 48.10 26.57 47.91 17.97 48.09 C 15.42 47.81 15.46 52.25 18.02 51.92 C 26.69 52.08 35.37 51.92 44.05 51.98 C 44.73 57.50 48.77 62.31 53.96 64.20 C 54.99 64.48 56.03 64.76 57.07 65.04 C 57.38 70.13 56.75 75.30 57.47 80.35 C 55.65 80.08 52.91 80.50 53.35 82.99 C 53.04 85.53 56.31 86.19 58.04 85.02 C 57.04 87.41 57.44 90.05 57.50 92.57 C 58.49 92.60 59.49 92.61 60.48 92.60 C 60.98 85.43 60.75 78.22 60.85 71.04 C 60.77 69.07 61.37 66.96 60.36 65.13 C 61.51 64.72 63.64 65.48 63.99 63.89 C 68.40 62.90 71.58 58.99 73.24 54.97 C 73.53 54.00 73.77 53.01 73.97 52.01 C 82.65 51.89 91.34 52.10 100.02 51.92 C 102.56 52.19 102.55 47.79 100.01 48.08 C 91.36 47.90 82.70 48.12 74.05 47.99 C 73.77 46.98 73.50 45.98 73.24 44.97 C 71.34 39.69 66.49 35.85 61.00 34.91 C 60.96 25.99 61.08 17.07 60.95 8.15 C 60.17 6.14 56.74 6.76 57.00 8.98 M 30.21 19.21 C 26.08 20.46 24.42 26.24 27.80 29.17 C 30.67 32.39 36.22 30.90 37.61 26.98 C 39.46 22.64 34.60 17.62 30.21 19.21 M 82.33 31.24 C 79.49 32.39 79.06 36.72 81.75 38.26 C 84.15 40.15 87.96 38.00 87.95 35.06 C 88.18 32.22 84.89 30.00 82.33 31.24 Z" />
</g>
<g id="#584ce5ff">
<path fill="#584ce5" opacity="1.00" d=" M 57.00 8.98 C 56.74 6.76 60.17 6.14 60.95 8.15 C 61.08 17.07 60.96 25.99 61.00 34.91 C 58.59 34.85 56.21 35.23 53.87 35.74 C 54.90 35.38 55.94 35.06 56.99 34.78 C 57.02 26.18 56.98 17.58 57.00 8.98 Z" />
<path fill="#584ce5" opacity="1.00" d=" M 30.21 19.21 C 34.60 17.62 39.46 22.64 37.61 26.98 C 36.22 30.90 30.67 32.39 27.80 29.17 C 24.42 26.24 26.08 20.46 30.21 19.21 Z" />
<path fill="#584ce5" opacity="1.00" d=" M 82.33 31.24 C 84.89 30.00 88.18 32.22 87.95 35.06 C 87.96 38.00 84.15 40.15 81.75 38.26 C 79.06 36.72 79.49 32.39 82.33 31.24 Z" />
<path fill="#584ce5" opacity="1.00" d=" M 43.77 48.00 C 44.09 46.97 44.41 45.94 44.73 44.90 C 44.21 47.22 43.94 49.60 44.05 51.98 C 35.37 51.92 26.69 52.08 18.02 51.92 C 15.46 52.25 15.42 47.81 17.97 48.09 C 26.57 47.91 35.17 48.10 43.77 48.00 Z" />
<path fill="#584ce5" opacity="1.00" d=" M 73.24 44.97 C 73.50 45.98 73.77 46.98 74.05 47.99 C 82.70 48.12 91.36 47.90 100.01 48.08 C 102.55 47.79 102.56 52.19 100.02 51.92 C 91.34 52.10 82.65 51.89 73.97 52.01 C 73.77 53.01 73.53 54.00 73.24 54.97 C 74.13 51.69 74.16 48.25 73.24 44.97 Z" />
<path fill="#584ce5" opacity="1.00" d=" M 53.96 64.20 C 57.27 65.42 60.68 64.59 63.99 63.89 C 63.64 65.48 61.51 64.72 60.36 65.13 C 61.37 66.96 60.77 69.07 60.85 71.04 C 60.75 78.22 60.98 85.43 60.48 92.60 C 59.49 92.61 58.49 92.60 57.50 92.57 C 57.44 90.05 57.04 87.41 58.04 85.02 C 59.10 83.44 58.40 81.77 57.47 80.35 C 56.75 75.30 57.38 70.13 57.07 65.04 C 56.03 64.76 54.99 64.48 53.96 64.20 Z" />
</g>
<g id="#f8ae58ff">
<path fill="#f8ae58" opacity="1.00" d=" M 53.87 35.74 C 56.21 35.23 58.59 34.85 61.00 34.91 C 66.49 35.85 71.34 39.69 73.24 44.97 C 74.16 48.25 74.13 51.69 73.24 54.97 C 71.58 58.99 68.40 62.90 63.99 63.89 C 60.68 64.59 57.27 65.42 53.96 64.20 C 48.77 62.31 44.73 57.50 44.05 51.98 C 43.94 49.60 44.21 47.22 44.73 44.90 C 46.28 40.72 49.68 37.29 53.87 35.74 Z" />
<path fill="#f8ae58" opacity="1.00" d=" M 53.35 82.99 C 52.91 80.50 55.65 80.08 57.47 80.35 C 58.40 81.77 59.10 83.44 58.04 85.02 C 56.31 86.19 53.04 85.53 53.35 82.99 Z" />
</g>
</svg>
