<?xml version="1.0" encoding="UTF-8" ?>
<!DOCTYPE svg PUBLIC "-//W3C//DTD SVG 1.1//EN" "http://www.w3.org/Graphics/SVG/1.1/DTD/svg11.dtd">
<svg width="117px" height="140px" viewBox="0 0 117 140" version="1.1" xmlns="http://www.w3.org/2000/svg">
<g id="#181818ff">
<path fill="#181818" opacity="1.00" d=" M 0.00 0.00 L 117.00 0.00 L 117.00 140.00 L 0.00 140.00 L 0.00 0.00 M 36.94 16.63 C 41.92 21.70 46.99 26.68 52.03 31.70 C 52.66 32.41 53.33 33.08 54.03 33.72 C 57.29 32.83 60.71 32.85 63.97 33.70 C 69.69 28.04 75.34 22.33 81.04 16.65 C 78.03 14.78 74.89 13.12 71.50 12.06 C 60.07 8.20 47.00 9.99 36.94 16.63 M 23.82 14.97 C 22.38 16.99 22.90 19.71 24.26 21.63 C 25.99 23.96 29.59 24.66 31.94 22.85 C 35.47 21.02 35.94 15.38 32.58 13.18 C 29.82 11.05 25.43 11.83 23.82 14.97 M 36.45 21.92 C 33.76 25.09 30.42 27.72 28.23 31.29 C 25.75 35.32 24.22 39.87 23.39 44.52 C 24.67 44.93 25.95 45.29 27.26 45.60 C 28.38 38.58 31.63 31.74 37.00 26.99 C 37.77 26.16 38.85 25.56 39.31 24.50 C 38.36 23.64 37.47 22.70 36.45 21.92 M 78.65 24.58 C 82.51 28.32 86.38 32.24 88.43 37.34 C 89.45 40.02 90.28 42.77 90.71 45.61 C 92.03 45.31 93.33 44.95 94.62 44.53 C 94.06 41.85 93.54 39.13 92.39 36.63 C 90.23 30.79 86.18 25.95 81.56 21.88 C 80.52 22.70 79.62 23.67 78.65 24.58 M 32.26 46.96 C 33.52 47.33 34.79 47.64 36.07 47.90 C 36.57 41.17 40.55 35.20 45.81 31.16 C 44.90 30.15 43.94 29.19 42.93 28.28 C 37.16 32.84 32.86 39.53 32.26 46.96 M 72.18 31.16 C 77.44 35.21 81.40 41.19 81.93 47.93 C 83.22 47.66 84.49 47.33 85.75 46.97 C 85.16 39.52 80.85 32.83 75.08 28.28 C 74.05 29.17 73.09 30.14 72.18 31.16 M 49.30 47.49 C 47.57 53.51 52.70 60.20 58.99 59.93 C 65.38 60.20 70.30 53.51 68.81 47.44 L 68.54 47.48 C 67.57 42.47 61.98 39.06 57.04 40.20 C 53.33 40.87 50.31 43.90 49.30 47.49 M 19.03 47.60 C 18.80 53.41 19.75 59.22 21.80 64.66 C 25.38 73.76 32.43 81.30 41.11 85.76 C 43.23 78.03 45.23 70.27 47.39 62.55 C 45.03 60.08 43.31 57.10 42.37 53.82 C 39.71 53.09 37.05 52.35 34.37 51.69 C 29.26 50.33 24.17 48.87 19.03 47.60 M 75.64 53.81 C 74.67 57.09 72.94 60.07 70.59 62.56 C 72.74 70.28 74.77 78.03 76.88 85.77 C 82.15 83.03 86.80 79.20 90.52 74.58 C 92.08 72.00 94.64 69.43 94.46 66.26 C 96.97 68.04 100.97 66.14 100.90 63.01 C 101.13 61.06 99.50 59.70 97.96 58.88 C 98.79 55.17 99.04 51.38 98.92 47.59 C 91.15 49.63 83.40 51.73 75.64 53.81 M 49.23 70.95 C 49.00 71.81 48.53 73.53 48.29 74.39 C 48.95 75.68 50.81 75.49 51.99 76.06 C 57.77 77.47 64.58 77.49 69.73 74.44 C 69.49 73.57 69.00 71.81 68.75 70.94 C 62.56 73.60 55.44 73.57 49.23 70.95 M 29.35 80.51 C 25.98 82.40 29.49 87.70 32.57 85.47 C 35.92 83.60 32.43 78.09 29.35 80.51 M 46.93 79.66 C 46.59 80.96 45.98 82.26 46.10 83.64 C 54.36 86.73 63.73 86.76 71.97 83.59 C 71.92 82.24 71.44 80.95 71.06 79.66 C 63.39 82.71 54.61 82.71 46.93 79.66 Z" />
</g>
<g id="#f8c868ff">
<path fill="#f8c868" opacity="1.00" d=" M 36.94 16.63 C 47.00 9.99 60.07 8.20 71.50 12.06 C 68.46 16.13 64.50 19.37 61.31 23.32 C 58.40 26.31 56.15 30.23 52.03 31.70 C 46.99 26.68 41.92 21.70 36.94 16.63 Z" />
</g>
<g id="#60b8a0ff">
<path fill="#60b8a0" opacity="1.00" d=" M 23.82 14.97 C 25.43 11.83 29.82 11.05 32.58 13.18 C 30.68 16.75 27.68 19.54 24.26 21.63 C 22.90 19.71 22.38 16.99 23.82 14.97 Z" />
</g>
<g id="#f8b860ff">
<path fill="#f8b860" opacity="1.00" d=" M 71.50 12.06 C 74.89 13.12 78.03 14.78 81.04 16.65 C 75.34 22.33 69.69 28.04 63.97 33.70 C 60.71 32.85 57.29 32.83 54.03 33.72 C 53.33 33.08 52.66 32.41 52.03 31.70 C 56.15 30.23 58.40 26.31 61.31 23.32 C 64.50 19.37 68.46 16.13 71.50 12.06 Z" />
</g>
<g id="#307080ff">
<path fill="#307080" opacity="1.00" d=" M 32.58 13.18 C 35.94 15.38 35.47 21.02 31.94 22.85 C 29.59 24.66 25.99 23.96 24.26 21.63 C 27.68 19.54 30.68 16.75 32.58 13.18 Z" />
</g>
<g id="#8058e8ff">
<path fill="#8058e8" opacity="1.00" d=" M 36.45 21.92 C 37.47 22.70 38.36 23.64 39.31 24.50 C 38.85 25.56 37.77 26.16 37.00 26.99 C 31.63 31.74 28.38 38.58 27.26 45.60 C 25.95 45.29 24.67 44.93 23.39 44.52 C 24.22 39.87 25.75 35.32 28.23 31.29 C 30.42 27.72 33.76 25.09 36.45 21.92 Z" />
</g>
<g id="#8860f0ff">
<path fill="#8860f0" opacity="1.00" d=" M 78.65 24.58 C 79.62 23.67 80.52 22.70 81.56 21.88 C 86.18 25.95 90.23 30.79 92.39 36.63 C 91.40 36.81 89.42 37.16 88.43 37.34 C 86.38 32.24 82.51 28.32 78.65 24.58 Z" />
</g>
<g id="#7858f0ff">
<path fill="#7858f0" opacity="1.00" d=" M 32.26 46.96 C 32.86 39.53 37.16 32.84 42.93 28.28 C 43.94 29.19 44.90 30.15 45.81 31.16 C 40.55 35.20 36.57 41.17 36.07 47.90 C 34.79 47.64 33.52 47.33 32.26 46.96 Z" />
</g>
<g id="#7858e8ff">
<path fill="#7858e8" opacity="1.00" d=" M 72.18 31.16 C 73.09 30.14 74.05 29.17 75.08 28.28 C 80.85 32.83 85.16 39.52 85.75 46.97 C 84.49 47.33 83.22 47.66 81.93 47.93 C 81.40 41.19 77.44 35.21 72.18 31.16 Z" />
</g>
<g id="#7058e8ff">
<path fill="#7058e8" opacity="1.00" d=" M 88.43 37.34 C 89.42 37.16 91.40 36.81 92.39 36.63 C 93.54 39.13 94.06 41.85 94.62 44.53 C 93.33 44.95 92.03 45.31 90.71 45.61 C 90.28 42.77 89.45 40.02 88.43 37.34 Z" />
</g>
<g id="#6854e8ff">
<path fill="#6854e8" opacity="1.00" d=" M 49.30 47.49 C 50.31 43.90 53.33 40.87 57.04 40.20 C 61.98 39.06 67.57 42.47 68.54 47.48 C 63.60 48.45 58.55 48.16 53.56 48.59 C 52.03 48.81 50.55 48.36 49.30 47.49 Z" />
</g>
<g id="#584ce0ff">
<path fill="#584ce0" opacity="1.00" d=" M 58.99 59.93 C 52.70 60.20 47.57 53.51 49.30 47.49 C 50.55 48.36 52.03 48.81 53.56 48.59 C 58.55 48.16 63.60 48.45 68.54 47.48 L 68.81 47.44 C 70.30 53.51 65.38 60.20 58.99 59.93 Z" />
</g>
<g id="#f8c468ff">
<path fill="#f8c468" opacity="1.00" d=" M 19.03 47.60 C 24.17 48.87 29.26 50.33 34.37 51.69 C 30.12 55.96 26.53 60.86 21.80 64.66 C 19.75 59.22 18.80 53.41 19.03 47.60 Z" />
</g>
<g id="#f89040ff">
<path fill="#f89040" opacity="1.00" d=" M 75.64 53.81 C 83.40 51.73 91.15 49.63 98.92 47.59 C 99.04 51.38 98.79 55.17 97.96 58.88 C 94.76 58.55 91.45 62.21 93.68 65.13 C 93.87 65.41 94.26 65.98 94.46 66.26 C 94.64 69.43 92.08 72.00 90.52 74.58 C 86.80 79.20 82.15 83.03 76.88 85.77 C 74.77 78.03 72.74 70.28 70.59 62.56 C 72.94 60.07 74.67 57.09 75.64 53.81 Z" />
</g>
<g id="#f8b458ff">
<path fill="#f8b458" opacity="1.00" d=" M 34.37 51.69 C 37.05 52.35 39.71 53.09 42.37 53.82 C 43.31 57.10 45.03 60.08 47.39 62.55 C 45.23 70.27 43.23 78.03 41.11 85.76 C 32.43 81.30 25.38 73.76 21.80 64.66 C 26.53 60.86 30.12 55.96 34.37 51.69 Z" />
</g>
<g id="#c7e318ff">
<path fill="#c7e318" opacity="1.00" d=" M 93.68 65.13 C 91.45 62.21 94.76 58.55 97.96 58.88 C 97.89 61.69 95.56 63.40 93.68 65.13 Z" />
</g>
<g id="#88e008ff">
<path fill="#88e008" opacity="1.00" d=" M 97.96 58.88 C 99.50 59.70 101.13 61.06 100.90 63.01 C 100.97 66.14 96.97 68.04 94.46 66.26 C 94.26 65.98 93.87 65.41 93.68 65.13 C 95.56 63.40 97.89 61.69 97.96 58.88 Z" />
</g>
<g id="#283cd0ff">
<path fill="#283cd0" opacity="1.00" d=" M 49.23 70.95 C 55.44 73.57 62.56 73.60 68.75 70.94 C 69.00 71.81 69.49 73.57 69.73 74.44 C 64.58 77.49 57.77 77.47 51.99 76.06 C 50.81 75.49 48.95 75.68 48.29 74.39 C 48.53 73.53 49.00 71.81 49.23 70.95 Z" />
</g>
<g id="#f89c98ff">
<path fill="#f89c98" opacity="1.00" d=" M 29.35 80.51 C 32.43 78.09 35.92 83.60 32.57 85.47 C 29.49 87.70 25.98 82.40 29.35 80.51 Z" />
</g>
<g id="#1834c8ff">
<path fill="#1834c8" opacity="1.00" d=" M 46.93 79.66 C 54.61 82.71 63.39 82.71 71.06 79.66 C 71.44 80.95 71.92 82.24 71.97 83.59 C 63.73 86.76 54.36 86.73 46.10 83.64 C 45.98 82.26 46.59 80.96 46.93 79.66 Z" />
</g>
</svg>
