<?xml version="1.0" encoding="UTF-8" ?>
<!DOCTYPE svg PUBLIC "-//W3C//DTD SVG 1.1//EN" "http://www.w3.org/Graphics/SVG/1.1/DTD/svg11.dtd">
<svg width="117px" height="140px" viewBox="0 0 117 140" version="1.1" xmlns="http://www.w3.org/2000/svg">
<g id="#181818ff">
<path fill="#181818" opacity="1.00" d=" M 0.00 0.00 L 117.00 0.00 L 117.00 140.00 L 0.00 140.00 L 0.00 0.00 M 35.87 13.69 C 33.96 14.57 32.44 16.07 30.88 17.44 C 22.81 24.47 17.68 34.46 16.24 45.03 C 15.36 53.32 16.96 61.69 20.48 69.22 C 26.31 80.52 37.18 89.79 50.04 91.51 C 67.11 96.42 86.15 87.72 95.40 72.95 C 101.05 63.68 103.27 52.45 101.27 41.76 C 98.30 27.42 87.96 14.77 74.10 9.73 C 61.65 4.93 47.12 6.57 35.87 13.69 Z" />
<path fill="#181818" opacity="1.00" d=" M 40.97 15.24 C 51.00 10.53 62.90 9.50 73.27 13.75 C 85.01 18.27 94.20 28.81 96.99 41.09 C 99.31 51.55 97.45 62.94 91.35 71.82 C 85.83 79.78 77.42 85.79 67.93 87.95 C 63.26 89.12 58.40 88.92 53.63 88.92 C 53.64 88.49 53.66 87.61 53.68 87.18 C 53.73 85.96 53.75 84.74 53.72 83.52 C 52.05 82.79 50.17 81.27 48.30 82.31 C 46.52 83.18 46.19 85.38 45.29 86.95 C 42.61 85.21 39.65 83.93 37.00 82.14 C 31.68 78.61 27.48 73.58 24.41 68.01 C 20.95 61.55 19.67 54.10 20.11 46.82 C 20.63 37.55 25.28 29.18 31.14 22.20 C 31.81 23.00 32.48 23.80 33.17 24.59 C 35.59 26.30 39.11 26.51 41.20 24.13 C 43.59 22.05 43.13 18.59 41.75 16.07 L 40.97 15.24 M 58.40 20.59 C 54.12 21.67 50.58 25.40 50.19 29.85 C 49.65 33.67 50.73 37.48 53.11 40.50 C 50.28 42.52 48.60 45.70 47.67 48.98 L 47.49 48.06 C 45.42 47.04 43.45 45.85 41.58 44.50 C 39.01 41.25 36.85 36.19 31.98 36.30 C 28.21 36.53 26.79 40.85 26.54 44.02 C 26.00 52.02 28.68 60.72 34.87 66.07 C 37.69 68.64 41.66 68.79 45.24 68.25 C 48.97 66.50 52.00 63.64 53.91 59.98 C 57.01 61.08 60.29 61.10 63.50 60.49 C 63.61 64.76 62.78 68.99 60.76 72.78 C 59.17 75.64 59.13 79.96 62.29 81.76 C 65.27 83.12 68.66 81.84 71.37 80.42 C 77.07 77.23 81.82 72.13 84.17 66.00 C 85.69 62.19 85.57 57.44 82.76 54.25 C 79.76 50.59 74.86 49.27 70.29 49.45 C 69.59 47.25 68.77 45.08 67.86 42.96 L 67.69 43.14 C 67.05 42.51 65.77 41.27 65.13 40.64 C 68.45 40.35 71.12 37.71 74.51 37.32 C 76.79 37.14 79.15 37.13 81.30 36.27 C 83.85 35.24 85.61 32.12 84.43 29.47 C 83.26 26.86 80.84 25.09 78.45 23.67 C 72.44 20.32 65.14 18.89 58.40 20.59 M 87.90 39.89 C 86.21 41.03 87.51 43.06 87.66 44.65 C 88.50 44.74 90.19 44.90 91.03 44.99 C 93.01 44.09 93.04 41.76 93.23 39.92 L 92.64 40.36 C 91.36 39.30 89.15 38.08 87.90 39.89 Z" />
</g>
<g id="#885ef2ff">
<path fill="#885ef2" opacity="1.00" d=" M 35.87 13.69 C 47.12 6.57 61.65 4.93 74.10 9.73 C 87.96 14.77 98.30 27.42 101.27 41.76 C 99.84 41.54 98.41 41.31 96.99 41.09 C 94.20 28.81 85.01 18.27 73.27 13.75 C 62.90 9.50 51.00 10.53 40.97 15.24 C 39.30 14.62 37.60 14.11 35.87 13.69 Z" />
<path fill="#885ef2" opacity="1.00" d=" M 16.24 45.03 C 17.68 34.46 22.81 24.47 30.88 17.44 C 30.97 19.03 31.06 20.61 31.14 22.20 C 25.28 29.18 20.63 37.55 20.11 46.82 C 18.82 46.22 17.53 45.62 16.24 45.03 Z" />
<path fill="#885ef2" opacity="1.00" d=" M 48.30 82.31 C 50.17 81.27 52.05 82.79 53.72 83.52 C 51.80 85.37 49.91 87.25 48.06 89.17 C 47.14 88.43 46.21 87.69 45.29 86.95 C 46.19 85.38 46.52 83.18 48.30 82.31 Z" />
</g>
<g id="#36ccebff">
<path fill="#36cceb" opacity="1.00" d=" M 30.88 17.44 C 32.44 16.07 33.96 14.57 35.87 13.69 C 37.60 14.11 39.30 14.62 40.97 15.24 L 41.75 16.07 C 39.17 19.18 36.28 22.02 33.17 24.59 C 32.48 23.80 31.81 23.00 31.14 22.20 C 31.06 20.61 30.97 19.03 30.88 17.44 Z" />
</g>
<g id="#3fb0f2ff">
<path fill="#3fb0f2" opacity="1.00" d=" M 41.75 16.07 C 43.13 18.59 43.59 22.05 41.20 24.13 C 39.11 26.51 35.59 26.30 33.17 24.59 C 36.28 22.02 39.17 19.18 41.75 16.07 Z" />
</g>
<g id="#f7b960ff">
<path fill="#f7b960" opacity="1.00" d=" M 58.40 20.59 C 65.14 18.89 72.44 20.32 78.45 23.67 C 80.84 25.09 83.26 26.86 84.43 29.47 C 85.61 32.12 83.85 35.24 81.30 36.27 C 79.15 37.13 76.79 37.14 74.51 37.32 C 71.17 34.52 67.43 31.99 63.06 31.20 C 58.72 30.14 54.40 31.87 50.25 32.95 C 50.23 32.18 50.20 30.63 50.19 29.85 C 50.58 25.40 54.12 21.67 58.40 20.59 Z" />
<path fill="#f7b960" opacity="1.00" d=" M 26.54 44.02 C 26.79 40.85 28.21 36.53 31.98 36.30 C 36.85 36.19 39.01 41.25 41.58 44.50 C 41.03 48.63 40.10 52.89 41.12 57.02 C 42.06 60.91 43.74 64.56 45.24 68.25 C 41.66 68.79 37.69 68.64 34.87 66.07 C 28.68 60.72 26.00 52.02 26.54 44.02 Z" />
<path fill="#f7b960" opacity="1.00" d=" M 53.11 40.50 C 56.90 38.40 61.28 39.09 65.13 40.64 C 65.77 41.27 67.05 42.51 67.69 43.14 C 62.56 48.38 57.61 53.83 51.97 58.53 C 49.86 55.70 48.12 52.54 47.67 48.98 C 48.60 45.70 50.28 42.52 53.11 40.50 Z" />
</g>
<g id="#ef8b3fff">
<path fill="#ef8b3f" opacity="1.00" d=" M 50.19 29.85 C 50.20 30.63 50.23 32.18 50.25 32.95 C 54.40 31.87 58.72 30.14 63.06 31.20 C 67.43 31.99 71.17 34.52 74.51 37.32 C 71.12 37.71 68.45 40.35 65.13 40.64 C 61.28 39.09 56.90 38.40 53.11 40.50 C 50.73 37.48 49.65 33.67 50.19 29.85 Z" />
<path fill="#ef8b3f" opacity="1.00" d=" M 67.69 43.14 L 67.86 42.96 C 68.77 45.08 69.59 47.25 70.29 49.45 C 74.86 49.27 79.76 50.59 82.76 54.25 C 85.57 57.44 85.69 62.19 84.17 66.00 C 81.82 72.13 77.07 77.23 71.37 80.42 C 68.66 81.84 65.27 83.12 62.29 81.76 C 59.13 79.96 59.17 75.64 60.76 72.78 C 62.78 68.99 63.61 64.76 63.50 60.49 C 60.29 61.10 57.01 61.08 53.91 59.98 C 52.00 63.64 48.97 66.50 45.24 68.25 C 43.74 64.56 42.06 60.91 41.12 57.02 C 40.10 52.89 41.03 48.63 41.58 44.50 C 43.45 45.85 45.42 47.04 47.49 48.06 L 47.67 48.98 C 48.12 52.54 49.86 55.70 51.97 58.53 C 57.61 53.83 62.56 48.38 67.69 43.14 Z" />
</g>
<g id="#534bdeff">
<path fill="#534bde" opacity="1.00" d=" M 87.90 39.89 C 89.15 38.08 91.36 39.30 92.64 40.36 C 90.98 41.80 89.31 43.21 87.66 44.65 C 87.51 43.06 86.21 41.03 87.90 39.89 Z" />
<path fill="#534bde" opacity="1.00" d=" M 96.99 41.09 C 98.41 41.31 99.84 41.54 101.27 41.76 C 103.27 52.45 101.05 63.68 95.40 72.95 C 94.05 72.57 92.70 72.19 91.35 71.82 C 97.45 62.94 99.31 51.55 96.99 41.09 Z" />
<path fill="#534bde" opacity="1.00" d=" M 20.48 69.22 C 16.96 61.69 15.36 53.32 16.24 45.03 C 17.53 45.62 18.82 46.22 20.11 46.82 C 19.67 54.10 20.95 61.55 24.41 68.01 C 23.10 68.42 21.79 68.82 20.48 69.22 Z" />
<path fill="#534bde" opacity="1.00" d=" M 48.06 89.17 C 49.91 87.25 51.80 85.37 53.72 83.52 C 53.75 84.74 53.73 85.96 53.68 87.18 C 52.20 88.65 50.25 90.48 48.06 89.17 Z" />
</g>
<g id="#253acbff">
<path fill="#253acb" opacity="1.00" d=" M 87.66 44.65 C 89.31 43.21 90.98 41.80 92.64 40.36 L 93.23 39.92 C 93.04 41.76 93.01 44.09 91.03 44.99 C 90.19 44.90 88.50 44.74 87.66 44.65 Z" />
<path fill="#253acb" opacity="1.00" d=" M 24.41 68.01 C 27.48 73.58 31.68 78.61 37.00 82.14 C 39.65 83.93 42.61 85.21 45.29 86.95 C 46.21 87.69 47.14 88.43 48.06 89.17 C 50.25 90.48 52.20 88.65 53.68 87.18 C 53.66 87.61 53.64 88.49 53.63 88.92 C 58.40 88.92 63.26 89.12 67.93 87.95 C 77.42 85.79 85.83 79.78 91.35 71.82 C 92.70 72.19 94.05 72.57 95.40 72.95 C 86.15 87.72 67.11 96.42 50.04 91.51 C 37.18 89.79 26.31 80.52 20.48 69.22 C 21.79 68.82 23.10 68.42 24.41 68.01 Z" />
</g>
</svg>
