<?xml version="1.0" encoding="UTF-8" ?>
<!DOCTYPE svg PUBLIC "-//W3C//DTD SVG 1.1//EN" "http://www.w3.org/Graphics/SVG/1.1/DTD/svg11.dtd">
<svg width="117px" height="140px" viewBox="0 0 117 140" version="1.1" xmlns="http://www.w3.org/2000/svg">
<g id="#181818ff">
<path fill="#181818" opacity="1.00" d=" M 0.00 0.00 L 117.00 0.00 L 117.00 140.00 L 0.00 140.00 L 0.00 0.00 M 29.49 28.09 C 26.63 27.10 23.76 30.16 25.47 32.89 C 24.93 33.84 24.40 34.79 23.86 35.74 C 21.63 40.20 19.91 44.95 19.30 49.92 C 18.74 54.64 19.08 59.41 19.99 64.07 C 21.06 68.06 22.59 71.91 24.61 75.52 C 26.61 78.45 28.59 81.50 31.40 83.75 C 32.89 84.36 34.98 82.56 33.84 81.06 C 32.20 78.62 30.12 76.52 28.50 74.07 C 27.98 73.15 27.46 72.23 26.95 71.31 C 28.39 70.61 29.93 70.06 31.22 69.07 C 32.33 67.91 31.36 66.15 29.99 65.75 C 28.36 66.19 26.81 66.88 25.26 67.53 C 24.92 66.48 24.58 65.44 24.24 64.39 C 23.94 62.94 23.64 61.50 23.35 60.05 C 25.37 59.57 29.40 60.35 29.12 57.09 C 28.08 54.69 25.19 56.03 23.23 56.01 L 22.82 55.69 C 23.07 53.18 23.33 50.68 23.61 48.17 C 25.06 48.51 26.51 48.88 28.00 49.04 C 29.79 49.20 30.68 46.80 29.36 45.69 C 27.89 44.93 26.25 44.59 24.68 44.11 C 25.53 41.97 26.35 39.82 27.12 37.65 C 27.57 37.65 28.48 37.66 28.94 37.66 C 29.70 38.15 31.21 39.12 31.97 39.61 C 35.86 39.31 33.83 35.30 31.48 34.31 C 31.05 34.27 30.20 34.17 29.78 34.13 C 31.33 31.79 33.24 29.73 35.32 27.86 C 36.73 29.29 37.67 31.88 40.07 31.74 C 42.97 29.80 39.68 27.23 38.50 25.31 C 40.73 23.97 43.02 22.74 45.37 21.61 C 46.32 23.48 46.30 26.77 49.07 26.79 C 52.02 25.50 49.62 22.47 49.27 20.36 C 51.79 19.75 54.34 19.29 56.92 19.01 C 57.30 21.01 56.06 24.57 58.96 25.00 C 61.91 24.70 60.71 21.00 61.08 19.01 C 63.65 19.30 66.20 19.74 68.72 20.31 C 68.37 22.46 66.04 25.37 68.87 26.80 C 71.65 26.82 71.68 23.47 72.68 21.61 C 75.00 22.75 77.28 23.99 79.51 25.30 C 78.33 27.23 75.00 29.82 77.95 31.76 C 80.28 31.80 81.15 29.22 82.86 28.08 C 84.73 30.01 86.53 32.02 88.14 34.18 C 86.05 34.45 82.55 36.38 84.22 38.88 C 86.36 40.61 88.37 37.84 90.28 37.08 C 91.40 39.39 92.43 41.75 93.36 44.14 C 91.38 44.91 87.47 44.79 88.06 47.88 C 89.54 50.11 92.32 48.42 94.37 48.18 C 94.65 50.62 94.95 53.06 95.26 55.50 L 94.36 55.76 C 92.50 55.95 89.95 54.92 88.86 57.02 C 88.54 60.32 92.61 59.59 94.67 60.06 C 94.19 62.67 93.62 65.29 92.52 67.72 C 90.82 66.90 88.23 64.68 86.63 66.76 C 85.29 69.58 89.37 70.26 91.07 71.34 C 89.28 74.92 86.57 77.86 84.19 81.03 C 82.81 82.73 85.88 84.93 87.19 83.27 C 90.63 80.04 93.27 76.03 95.29 71.79 C 97.70 66.34 99.03 60.43 99.02 54.46 C 98.67 47.58 97.25 40.35 93.21 34.69 C 92.40 33.44 91.80 31.93 90.48 31.12 C 94.08 31.02 97.52 27.77 96.87 24.03 C 96.65 21.72 94.69 20.31 92.96 19.08 C 89.25 18.27 85.25 20.75 85.04 24.68 C 69.53 10.63 43.15 12.22 29.49 28.09 M 56.52 46.19 L 56.24 46.19 C 56.12 47.01 55.89 48.65 55.78 49.47 C 55.36 49.63 54.53 49.95 54.11 50.11 C 52.94 49.83 51.76 49.54 50.59 49.26 C 47.64 48.47 44.69 47.69 41.73 46.99 C 44.10 49.69 46.67 52.21 49.41 54.53 L 49.32 54.92 C 50.08 55.61 50.84 56.31 51.60 57.01 C 48.27 60.29 44.45 63.14 41.85 67.09 C 48.08 66.34 53.65 62.74 59.96 62.64 C 60.78 62.81 62.41 63.15 63.23 63.31 L 63.75 62.97 L 64.01 63.66 C 67.97 65.13 72.17 65.88 76.25 67.02 C 73.14 63.50 69.72 60.28 66.41 56.95 C 67.61 55.81 68.81 54.66 70.00 53.50 C 72.14 51.39 74.32 49.30 76.23 46.98 C 72.48 47.84 68.76 48.83 65.11 50.04 C 62.29 50.93 61.90 48.35 61.64 46.21 L 61.49 46.21 C 60.87 43.38 60.19 40.56 59.35 37.78 C 57.23 39.99 57.38 43.40 56.52 46.19 M 52.16 82.77 C 52.99 83.40 53.82 84.02 54.65 84.65 L 54.10 85.12 C 57.73 85.77 60.85 82.80 60.07 79.11 L 59.68 79.58 C 59.06 78.78 58.45 77.99 57.84 77.19 C 54.34 75.88 50.91 79.25 52.16 82.77 Z" />
</g>
<g id="#9060f8ff">
<path fill="#9060f8" opacity="1.00" d=" M 29.49 28.09 C 43.15 12.22 69.53 10.63 85.04 24.68 C 84.90 25.20 84.62 26.23 84.48 26.75 C 83.94 27.20 83.40 27.64 82.86 28.08 C 81.15 29.22 80.28 31.80 77.95 31.76 C 75.00 29.82 78.33 27.23 79.51 25.30 C 77.28 23.99 75.00 22.75 72.68 21.61 C 71.68 23.47 71.65 26.82 68.87 26.80 C 66.04 25.37 68.37 22.46 68.72 20.31 C 66.20 19.74 63.65 19.30 61.08 19.01 C 60.71 21.00 61.91 24.70 58.96 25.00 C 56.06 24.57 57.30 21.01 56.92 19.01 C 54.34 19.29 51.79 19.75 49.27 20.36 C 49.62 22.47 52.02 25.50 49.07 26.79 C 46.30 26.77 46.32 23.48 45.37 21.61 C 43.02 22.74 40.73 23.97 38.50 25.31 C 39.68 27.23 42.97 29.80 40.07 31.74 C 37.67 31.88 36.73 29.29 35.32 27.86 C 33.24 29.73 31.33 31.79 29.78 34.13 C 29.13 34.03 27.83 33.84 27.18 33.75 C 26.86 33.59 26.21 33.26 25.89 33.10 C 27.35 33.13 28.82 33.15 30.29 33.16 C 30.63 31.38 30.91 29.52 29.49 28.09 Z" />
</g>
<g id="#d058d0ff">
<path fill="#d058d0" opacity="1.00" d=" M 85.04 24.68 C 85.25 20.75 89.25 18.27 92.96 19.08 C 90.68 22.11 88.72 26.27 84.48 26.75 C 84.62 26.23 84.90 25.20 85.04 24.68 Z" />
</g>
<g id="#8838c8ff">
<path fill="#8838c8" opacity="1.00" d=" M 92.96 19.08 C 94.69 20.31 96.65 21.72 96.87 24.03 C 97.52 27.77 94.08 31.02 90.48 31.12 C 88.15 30.15 86.04 28.75 84.48 26.75 C 88.72 26.27 90.68 22.11 92.96 19.08 Z" />
</g>
<g id="#513998ff">
<path fill="#513998" opacity="1.00" d=" M 82.86 28.08 C 83.40 27.64 83.94 27.20 84.48 26.75 C 86.04 28.75 88.15 30.15 90.48 31.12 C 91.80 31.93 92.40 33.44 93.21 34.69 C 91.52 34.47 89.83 34.28 88.14 34.18 C 86.53 32.02 84.73 30.01 82.86 28.08 Z" />
</g>
<g id="#f8c098ff">
<path fill="#f8c098" opacity="1.00" d=" M 25.47 32.89 C 23.76 30.16 26.63 27.10 29.49 28.09 C 30.91 29.52 30.63 31.38 30.29 33.16 C 28.82 33.15 27.35 33.13 25.89 33.10 L 25.47 32.89 Z" />
</g>
<g id="#503ca0ff">
<path fill="#503ca0" opacity="1.00" d=" M 25.47 32.89 L 25.89 33.10 C 26.21 33.26 26.86 33.59 27.18 33.75 C 27.83 33.84 29.13 34.03 29.78 34.13 C 30.20 34.17 31.05 34.27 31.48 34.31 C 30.63 35.43 29.78 36.55 28.94 37.66 C 28.48 37.66 27.57 37.65 27.12 37.65 C 26.03 37.01 24.94 36.38 23.86 35.74 C 24.40 34.79 24.93 33.84 25.47 32.89 Z" />
</g>
<g id="#6050e0ff">
<path fill="#6050e0" opacity="1.00" d=" M 88.14 34.18 C 89.83 34.28 91.52 34.47 93.21 34.69 C 97.25 40.35 98.67 47.58 99.02 54.46 C 97.77 54.81 96.51 55.16 95.26 55.50 C 94.95 53.06 94.65 50.62 94.37 48.18 C 92.32 48.42 89.54 50.11 88.06 47.88 C 87.47 44.79 91.38 44.91 93.36 44.14 C 92.43 41.75 91.40 39.39 90.28 37.08 C 88.37 37.84 86.36 40.61 84.22 38.88 C 82.55 36.38 86.05 34.45 88.14 34.18 Z" />
<path fill="#6050e0" opacity="1.00" d=" M 23.86 35.74 C 24.94 36.38 26.03 37.01 27.12 37.65 C 26.35 39.82 25.53 41.97 24.68 44.11 C 26.25 44.59 27.89 44.93 29.36 45.69 C 30.68 46.80 29.79 49.20 28.00 49.04 C 26.51 48.88 25.06 48.51 23.61 48.17 C 23.33 50.68 23.07 53.18 22.82 55.69 C 20.59 54.55 19.84 52.17 19.30 49.92 C 19.91 44.95 21.63 40.20 23.86 35.74 Z" />
</g>
<g id="#614bcbff">
<path fill="#614bcb" opacity="1.00" d=" M 31.48 34.31 C 33.83 35.30 35.86 39.31 31.97 39.61 C 31.21 39.12 29.70 38.15 28.94 37.66 C 29.78 36.55 30.63 35.43 31.48 34.31 Z" />
</g>
<g id="#8c7142ff">
<path fill="#8c7142" opacity="1.00" d=" M 56.52 46.19 C 57.38 43.40 57.23 39.99 59.35 37.78 C 60.19 40.56 60.87 43.38 61.49 46.21 C 59.83 46.20 58.18 46.20 56.52 46.19 Z" />
</g>
<g id="#886030ff">
<path fill="#886030" opacity="1.00" d=" M 56.24 46.19 L 56.52 46.19 C 58.18 46.20 59.83 46.20 61.49 46.21 L 61.64 46.21 C 61.90 48.35 62.29 50.93 65.11 50.04 C 66.75 51.18 68.38 52.33 70.00 53.50 C 68.81 54.66 67.61 55.81 66.41 56.95 L 65.80 56.36 C 64.25 54.88 62.63 53.45 60.96 52.12 C 58.92 52.04 56.93 52.52 54.99 53.10 C 55.27 51.89 55.56 50.69 55.78 49.47 C 55.89 48.65 56.12 47.01 56.24 46.19 Z" />
</g>
<g id="#705838ff">
<path fill="#705838" opacity="1.00" d=" M 41.73 46.99 C 44.69 47.69 47.64 48.47 50.59 49.26 C 50.22 51.02 49.82 52.78 49.41 54.53 C 46.67 52.21 44.10 49.69 41.73 46.99 Z" />
</g>
<g id="#b88c50ff">
<path fill="#b88c50" opacity="1.00" d=" M 65.11 50.04 C 68.76 48.83 72.48 47.84 76.23 46.98 C 74.32 49.30 72.14 51.39 70.00 53.50 C 68.38 52.33 66.75 51.18 65.11 50.04 Z" />
</g>
<g id="#584028ff">
<path fill="#584028" opacity="1.00" d=" M 50.59 49.26 C 51.76 49.54 52.94 49.83 54.11 50.11 C 54.53 49.95 55.36 49.63 55.78 49.47 C 55.56 50.69 55.27 51.89 54.99 53.10 C 54.51 55.10 54.20 57.13 53.93 59.18 C 53.15 58.46 52.38 57.73 51.60 57.01 C 50.84 56.31 50.08 55.61 49.32 54.92 L 49.41 54.53 C 49.82 52.78 50.22 51.02 50.59 49.26 Z" />
</g>
<g id="#4848d8ff">
<path fill="#4848d8" opacity="1.00" d=" M 19.99 64.07 C 19.08 59.41 18.74 54.64 19.30 49.92 C 19.84 52.17 20.59 54.55 22.82 55.69 L 23.23 56.01 C 25.19 56.03 28.08 54.69 29.12 57.09 C 29.40 60.35 25.37 59.57 23.35 60.05 C 23.64 61.50 23.94 62.94 24.24 64.39 C 22.82 64.28 21.40 64.17 19.99 64.07 Z" />
</g>
<g id="#f88838ff">
<path fill="#f88838" opacity="1.00" d=" M 54.99 53.10 C 56.93 52.52 58.92 52.04 60.96 52.12 C 60.05 55.46 59.24 58.83 58.57 62.23 C 56.82 61.57 55.30 60.44 53.93 59.18 C 54.20 57.13 54.51 55.10 54.99 53.10 Z" />
</g>
<g id="#f89c48ff">
<path fill="#f89c48" opacity="1.00" d=" M 58.57 62.23 C 59.24 58.83 60.05 55.46 60.96 52.12 C 62.63 53.45 64.25 54.88 65.80 56.36 C 65.09 58.55 64.40 60.76 63.75 62.97 L 63.23 63.31 C 62.41 63.15 60.78 62.81 59.96 62.64 C 59.62 62.54 58.92 62.34 58.57 62.23 Z" />
</g>
<g id="#4844d8ff">
<path fill="#4844d8" opacity="1.00" d=" M 95.26 55.50 C 96.51 55.16 97.77 54.81 99.02 54.46 C 99.03 60.43 97.70 66.34 95.29 71.79 C 94.34 70.45 93.39 69.11 92.52 67.72 C 93.62 65.29 94.19 62.67 94.67 60.06 C 92.61 59.59 88.54 60.32 88.86 57.02 C 89.95 54.92 92.50 55.95 94.36 55.76 L 95.26 55.50 Z" />
</g>
<g id="#382c20ff">
<path fill="#382c20" opacity="1.00" d=" M 51.60 57.01 C 52.38 57.73 53.15 58.46 53.93 59.18 C 55.30 60.44 56.82 61.57 58.57 62.23 C 58.92 62.34 59.62 62.54 59.96 62.64 C 53.65 62.74 48.08 66.34 41.85 67.09 C 44.45 63.14 48.27 60.29 51.60 57.01 Z" />
</g>
<g id="#f8b860ff">
<path fill="#f8b860" opacity="1.00" d=" M 63.75 62.97 C 64.40 60.76 65.09 58.55 65.80 56.36 L 66.41 56.95 C 69.72 60.28 73.14 63.50 76.25 67.02 C 72.17 65.88 67.97 65.13 64.01 63.66 L 63.75 62.97 Z" />
</g>
<g id="#3040d0ff">
<path fill="#3040d0" opacity="1.00" d=" M 19.99 64.07 C 21.40 64.17 22.82 64.28 24.24 64.39 C 24.58 65.44 24.92 66.48 25.26 67.53 C 26.81 66.88 28.36 66.19 29.99 65.75 C 31.36 66.15 32.33 67.91 31.22 69.07 C 29.93 70.06 28.39 70.61 26.95 71.31 C 27.46 72.23 27.98 73.15 28.50 74.07 C 27.20 74.55 25.91 75.03 24.61 75.52 C 22.59 71.91 21.06 68.06 19.99 64.07 Z" />
</g>
<g id="#2038c8ff">
<path fill="#2038c8" opacity="1.00" d=" M 86.63 66.76 C 88.23 64.68 90.82 66.90 92.52 67.72 C 93.39 69.11 94.34 70.45 95.29 71.79 C 93.27 76.03 90.63 80.04 87.19 83.27 C 85.88 84.93 82.81 82.73 84.19 81.03 C 86.57 77.86 89.28 74.92 91.07 71.34 C 89.37 70.26 85.29 69.58 86.63 66.76 Z" />
</g>
<g id="#1838c8ff">
<path fill="#1838c8" opacity="1.00" d=" M 28.50 74.07 C 30.12 76.52 32.20 78.62 33.84 81.06 C 34.98 82.56 32.89 84.36 31.40 83.75 C 28.59 81.50 26.61 78.45 24.61 75.52 C 25.91 75.03 27.20 74.55 28.50 74.07 Z" />
</g>
<g id="#ac77e7ff">
<path fill="#ac77e7" opacity="1.00" d=" M 52.16 82.77 C 50.91 79.25 54.34 75.88 57.84 77.19 C 56.41 79.48 54.49 81.39 52.16 82.77 Z" />
</g>
<g id="#8155e8ff">
<path fill="#8155e8" opacity="1.00" d=" M 57.84 77.19 C 58.45 77.99 59.06 78.78 59.68 79.58 C 58.17 81.42 56.49 83.13 54.65 84.65 C 53.82 84.02 52.99 83.40 52.16 82.77 C 54.49 81.39 56.41 79.48 57.84 77.19 Z" />
</g>
<g id="#4d2fcfff">
<path fill="#4d2fcf" opacity="1.00" d=" M 59.68 79.58 L 60.07 79.11 C 60.85 82.80 57.73 85.77 54.10 85.12 L 54.65 84.65 C 56.49 83.13 58.17 81.42 59.68 79.58 Z" />
</g>
</svg>
