<?xml version="1.0" encoding="UTF-8" ?>
<!DOCTYPE svg PUBLIC "-//W3C//DTD SVG 1.1//EN" "http://www.w3.org/Graphics/SVG/1.1/DTD/svg11.dtd">
<svg width="150px" height="80px" viewBox="0 0 150 80" version="1.1" xmlns="http://www.w3.org/2000/svg">
<g id="#181818ff">
<path fill="#181818" opacity="1.00" d=" M 0.00 0.00 L 150.00 0.00 L 150.00 80.00 L 0.00 80.00 L 0.00 0.00 M 35.26 30.01 C 34.98 30.31 34.43 30.90 34.16 31.19 C 33.82 36.75 33.89 42.36 34.17 47.92 C 34.07 49.63 36.05 50.45 37.22 49.23 C 40.34 46.39 43.72 43.61 45.96 40.00 C 44.54 37.24 41.98 35.33 39.92 33.08 C 38.53 31.86 37.31 29.96 35.26 30.01 Z" />
</g>
<g id="#f8ae59ff">
<path fill="#f8ae59" opacity="1.00" d=" M 35.26 30.01 C 37.31 29.96 38.53 31.86 39.92 33.08 C 41.98 35.33 44.54 37.24 45.96 40.00 C 43.72 43.61 40.34 46.39 37.22 49.23 C 36.05 50.45 34.07 49.63 34.17 47.92 C 33.89 42.36 33.82 36.75 34.16 31.19 C 34.43 30.90 34.98 30.31 35.26 30.01 Z" />
</g>
</svg>
