<?xml version="1.0" encoding="UTF-8" ?>
<!DOCTYPE svg PUBLIC "-//W3C//DTD SVG 1.1//EN" "http://www.w3.org/Graphics/SVG/1.1/DTD/svg11.dtd">
<svg width="117px" height="140px" viewBox="0 0 117 140" version="1.1" xmlns="http://www.w3.org/2000/svg">
<g id="#181818ff">
<path fill="#181818" opacity="1.00" d=" M 0.00 0.00 L 117.00 0.00 L 117.00 140.00 L 0.00 140.00 L 0.00 0.00 M 48.87 8.88 C 45.08 13.32 46.23 19.46 46.02 24.82 C 45.96 30.29 46.03 35.76 46.00 41.23 C 45.94 46.56 46.20 51.89 45.75 57.20 L 45.04 57.01 C 40.77 60.56 38.07 65.60 37.08 71.03 C 36.76 75.84 37.65 80.64 39.83 84.95 C 43.88 91.50 51.18 96.10 59.00 95.90 C 66.84 96.09 74.15 91.48 78.19 84.91 C 80.40 80.63 81.08 75.85 81.11 71.09 L 80.72 71.48 C 80.41 65.78 77.18 60.69 72.96 57.02 L 72.25 57.21 C 71.81 52.06 72.06 46.88 71.99 41.72 C 71.97 34.41 71.98 27.11 72.04 19.81 C 72.12 15.54 71.48 10.87 68.17 7.82 C 63.05 2.38 53.37 2.92 48.87 8.88 M 30.77 24.76 C 28.39 26.84 28.88 30.17 30.02 32.75 C 32.55 35.01 36.70 35.95 39.16 33.06 C 41.96 30.57 40.98 26.47 38.76 23.97 C 36.16 22.89 32.85 22.39 30.77 24.76 M 83.29 48.35 C 80.84 49.41 80.13 53.00 82.21 54.77 C 84.42 57.21 89.01 55.32 88.86 52.03 C 89.14 49.23 85.76 46.99 83.29 48.35 M 33.86 86.90 C 32.18 88.13 33.06 90.40 34.42 91.49 L 33.93 92.11 C 37.21 92.85 39.80 90.24 39.17 86.97 L 38.51 87.46 C 37.42 86.05 35.13 85.17 33.86 86.90 Z" />
<path fill="#181818" opacity="1.00" d=" M 52.17 11.18 C 55.35 7.23 61.89 6.98 65.36 10.68 C 67.87 12.95 68.07 16.51 68.05 19.67 C 67.93 27.02 68.07 34.38 68.01 41.73 C 67.99 47.26 67.96 52.78 68.10 58.31 C 73.51 62.03 77.18 68.03 77.20 74.71 C 76.63 77.67 75.81 80.59 74.48 83.31 C 71.05 88.43 65.26 92.11 58.96 91.93 C 52.71 92.09 46.94 88.42 43.53 83.32 C 42.11 80.46 41.23 77.35 40.87 74.18 C 40.93 67.67 44.69 61.94 49.92 58.30 C 50.04 52.64 50.00 46.98 50.00 41.32 C 49.97 35.82 50.05 30.31 49.97 24.81 C 50.15 20.28 48.97 14.95 52.17 11.18 M 55.12 36.16 C 53.62 36.92 53.63 39.06 55.11 39.83 C 57.69 40.15 60.33 40.15 62.92 39.80 C 64.33 39.03 64.34 36.91 62.89 36.17 C 60.32 35.85 57.69 35.85 55.12 36.16 M 54.17 46.01 C 53.81 49.12 54.04 52.26 54.01 55.38 C 54.00 57.17 53.99 58.96 53.98 60.74 C 49.68 62.82 46.13 66.52 45.27 71.35 L 45.03 71.44 C 44.32 77.24 46.99 82.95 51.82 86.19 L 51.96 86.12 C 57.33 89.17 64.57 88.35 68.89 83.86 C 71.63 81.31 72.64 77.59 73.22 74.02 C 72.81 68.48 69.61 63.57 64.72 60.94 L 64.04 61.44 C 63.98 57.62 63.96 53.79 64.07 49.97 C 63.90 47.60 64.26 44.61 62.02 43.06 C 59.34 40.77 54.65 42.51 54.17 46.01 Z" />
</g>
<g id="#9060f8ff">
<path fill="#9060f8" opacity="1.00" d=" M 48.87 8.88 C 53.37 2.92 63.05 2.38 68.17 7.82 C 71.48 10.87 72.12 15.54 72.04 19.81 C 70.71 19.76 69.38 19.72 68.05 19.67 C 68.07 16.51 67.87 12.95 65.36 10.68 C 61.89 6.98 55.35 7.23 52.17 11.18 C 48.97 14.95 50.15 20.28 49.97 24.81 C 48.65 24.82 47.33 24.82 46.02 24.82 C 46.23 19.46 45.08 13.32 48.87 8.88 Z" />
</g>
<g id="#7858e8ff">
<path fill="#7858e8" opacity="1.00" d=" M 68.05 19.67 C 69.38 19.72 70.71 19.76 72.04 19.81 C 71.98 27.11 71.97 34.41 71.99 41.72 C 70.66 41.72 69.34 41.72 68.01 41.73 C 68.07 34.38 67.93 27.02 68.05 19.67 Z" />
</g>
<g id="#50ccd8ff">
<path fill="#50ccd8" opacity="1.00" d=" M 30.77 24.76 C 32.85 22.39 36.16 22.89 38.76 23.97 C 36.43 27.42 33.46 30.40 30.02 32.75 C 28.88 30.17 28.39 26.84 30.77 24.76 Z" />
</g>
<g id="#38a0c0ff">
<path fill="#38a0c0" opacity="1.00" d=" M 38.76 23.97 C 40.98 26.47 41.96 30.57 39.16 33.06 C 36.70 35.95 32.55 35.01 30.02 32.75 C 33.46 30.40 36.43 27.42 38.76 23.97 Z" />
</g>
<g id="#7054e8ff">
<path fill="#7054e8" opacity="1.00" d=" M 46.02 24.82 C 47.33 24.82 48.65 24.82 49.97 24.81 C 50.05 30.31 49.97 35.82 50.00 41.32 C 48.66 41.29 47.33 41.26 46.00 41.23 C 46.03 35.76 45.96 30.29 46.02 24.82 Z" />
</g>
<g id="#f8d878ff">
<path fill="#f8d878" opacity="1.00" d=" M 55.12 36.16 C 57.69 35.85 60.32 35.85 62.89 36.17 C 64.34 36.91 64.33 39.03 62.92 39.80 C 60.33 40.15 57.69 40.15 55.11 39.83 C 53.63 39.06 53.62 36.92 55.12 36.16 Z" />
</g>
<g id="#584ce0ff">
<path fill="#584ce0" opacity="1.00" d=" M 46.00 41.23 C 47.33 41.26 48.66 41.29 50.00 41.32 C 50.00 46.98 50.04 52.64 49.92 58.30 C 48.52 57.94 47.14 57.57 45.75 57.20 C 46.20 51.89 45.94 46.56 46.00 41.23 Z" />
<path fill="#584ce0" opacity="1.00" d=" M 68.01 41.73 C 69.34 41.72 70.66 41.72 71.99 41.72 C 72.06 46.88 71.81 52.06 72.25 57.21 C 70.87 57.58 69.48 57.95 68.10 58.31 C 67.96 52.78 67.99 47.26 68.01 41.73 Z" />
</g>
<g id="#f8c868ff">
<path fill="#f8c868" opacity="1.00" d=" M 54.17 46.01 C 54.65 42.51 59.34 40.77 62.02 43.06 C 64.26 44.61 63.90 47.60 64.07 49.97 C 60.71 51.76 57.36 53.57 54.01 55.38 C 54.04 52.26 53.81 49.12 54.17 46.01 Z" />
</g>
<g id="#f08038ff">
<path fill="#f08038" opacity="1.00" d=" M 83.29 48.35 C 85.76 46.99 89.14 49.23 88.86 52.03 C 89.01 55.32 84.42 57.21 82.21 54.77 C 80.13 53.00 80.84 49.41 83.29 48.35 Z" />
</g>
<g id="#f8b458ff">
<path fill="#f8b458" opacity="1.00" d=" M 54.01 55.38 C 57.36 53.57 60.71 51.76 64.07 49.97 C 63.96 53.79 63.98 57.62 64.04 61.44 C 58.37 65.72 51.93 68.94 45.27 71.35 C 46.13 66.52 49.68 62.82 53.98 60.74 C 53.99 58.96 54.00 57.17 54.01 55.38 Z" />
</g>
<g id="#4044d8ff">
<path fill="#4044d8" opacity="1.00" d=" M 45.04 57.01 L 45.75 57.20 C 47.14 57.57 48.52 57.94 49.92 58.30 C 44.69 61.94 40.93 67.67 40.87 74.18 C 40.31 73.98 39.18 73.58 38.62 73.38 C 38.24 72.80 37.47 71.62 37.08 71.03 C 38.07 65.60 40.77 60.56 45.04 57.01 Z" />
<path fill="#4044d8" opacity="1.00" d=" M 72.25 57.21 L 72.96 57.02 C 77.18 60.69 80.41 65.78 80.72 71.48 C 79.64 72.65 78.42 73.69 77.20 74.71 C 77.18 68.03 73.51 62.03 68.10 58.31 C 69.48 57.95 70.87 57.58 72.25 57.21 Z" />
</g>
<g id="#f89848ff">
<path fill="#f89848" opacity="1.00" d=" M 64.04 61.44 L 64.72 60.94 C 69.61 63.57 72.81 68.48 73.22 74.02 C 66.81 79.16 58.94 81.89 51.96 86.12 L 51.82 86.19 C 46.99 82.95 44.32 77.24 45.03 71.44 L 45.27 71.35 C 51.93 68.94 58.37 65.72 64.04 61.44 Z" />
</g>
<g id="#303cd0ff">
<path fill="#303cd0" opacity="1.00" d=" M 39.83 84.95 C 37.65 80.64 36.76 75.84 37.08 71.03 C 37.47 71.62 38.24 72.80 38.62 73.38 C 39.18 73.58 40.31 73.98 40.87 74.18 C 41.23 77.35 42.11 80.46 43.53 83.32 C 42.29 83.85 41.06 84.39 39.83 84.95 Z" />
<path fill="#303cd0" opacity="1.00" d=" M 80.72 71.48 L 81.11 71.09 C 81.08 75.85 80.40 80.63 78.19 84.91 C 76.96 84.36 75.72 83.83 74.48 83.31 C 75.81 80.59 76.63 77.67 77.20 74.71 C 78.42 73.69 79.64 72.65 80.72 71.48 Z" />
</g>
<g id="#f88438ff">
<path fill="#f88438" opacity="1.00" d=" M 51.96 86.12 C 58.94 81.89 66.81 79.16 73.22 74.02 C 72.64 77.59 71.63 81.31 68.89 83.86 C 64.57 88.35 57.33 89.17 51.96 86.12 Z" />
</g>
<g id="#1834c8ff">
<path fill="#1834c8" opacity="1.00" d=" M 43.53 83.32 C 46.94 88.42 52.71 92.09 58.96 91.93 C 65.26 92.11 71.05 88.43 74.48 83.31 C 75.72 83.83 76.96 84.36 78.19 84.91 C 74.15 91.48 66.84 96.09 59.00 95.90 C 51.18 96.10 43.88 91.50 39.83 84.95 C 41.06 84.39 42.29 83.85 43.53 83.32 Z" />
</g>
<g id="#3e46ddff">
<path fill="#3e46dd" opacity="1.00" d=" M 33.86 86.90 C 35.13 85.17 37.42 86.05 38.51 87.46 C 36.94 88.58 35.55 89.93 34.42 91.49 C 33.06 90.40 32.18 88.13 33.86 86.90 Z" />
</g>
<g id="#1e2ae1ff">
<path fill="#1e2ae1" opacity="1.00" d=" M 34.42 91.49 C 35.55 89.93 36.94 88.58 38.51 87.46 L 39.17 86.97 C 39.80 90.24 37.21 92.85 33.93 92.11 L 34.42 91.49 Z" />
</g>
</svg>
