<?xml version="1.0" encoding="UTF-8" ?>
<!DOCTYPE svg PUBLIC "-//W3C//DTD SVG 1.1//EN" "http://www.w3.org/Graphics/SVG/1.1/DTD/svg11.dtd">
<svg width="117px" height="140px" viewBox="0 0 117 140" version="1.1" xmlns="http://www.w3.org/2000/svg">
<g id="#181818ff">
<path fill="#181818" opacity="1.00" d=" M 0.00 0.00 L 117.00 0.00 L 117.00 140.00 L 0.00 140.00 L 0.00 0.00 M 17.82 21.77 L 17.19 22.30 C 18.27 23.48 19.99 24.29 19.18 26.17 C 21.08 24.96 23.46 25.80 25.56 25.60 C 26.42 24.75 27.21 23.81 28.22 23.13 C 27.58 24.23 26.72 25.13 25.64 25.85 C 26.66 25.87 28.72 25.91 29.75 25.94 C 52.16 26.09 74.57 25.94 96.99 26.01 C 97.00 29.66 97.13 33.30 97.01 36.94 C 97.02 37.75 97.04 39.35 97.06 40.15 C 96.93 41.63 96.97 43.11 97.01 44.59 C 96.98 50.41 97.01 56.22 97.03 62.04 C 96.94 65.80 97.02 69.56 97.04 73.32 C 96.92 76.21 97.06 79.09 96.98 81.98 C 83.93 82.02 70.89 82.00 57.84 81.99 L 57.39 82.25 C 56.30 79.19 51.81 79.59 50.33 82.16 C 39.92 81.77 29.46 82.13 19.03 81.98 C 18.94 79.41 19.08 76.84 18.96 74.27 C 18.98 70.54 19.05 66.82 18.97 63.10 C 19.00 59.10 19.03 55.10 18.98 51.10 C 18.98 47.69 19.04 44.28 18.97 40.87 C 18.87 35.21 19.38 29.42 18.42 23.85 C 16.94 21.94 14.84 24.07 15.05 25.87 C 14.92 30.85 15.04 35.83 15.03 40.80 C 14.96 44.24 15.01 47.68 15.03 51.13 C 14.96 55.10 15.00 59.07 15.05 63.04 C 14.91 66.77 15.03 70.51 15.04 74.24 C 14.95 76.85 14.98 79.46 15.02 82.07 C 15.01 84.56 17.51 86.34 19.88 86.00 C 30.04 85.89 40.22 86.24 50.37 85.80 C 50.66 86.12 51.24 86.76 51.52 87.09 C 53.43 88.89 56.46 87.88 57.68 85.80 C 71.11 86.15 84.58 86.07 98.01 85.85 C 102.98 83.92 100.39 77.44 100.96 73.40 C 100.96 69.88 101.08 66.36 100.95 62.85 C 101.02 57.17 101.00 51.48 101.00 45.80 C 101.01 44.25 101.02 42.68 100.81 41.14 C 103.48 39.86 103.57 36.19 100.88 34.87 C 100.97 31.89 101.04 28.90 100.97 25.92 C 101.01 23.39 98.42 21.62 96.04 21.99 C 73.91 22.10 51.77 21.82 29.65 22.13 C 29.28 22.11 28.54 22.07 28.17 22.05 C 29.55 19.21 28.88 15.44 26.00 13.82 C 21.21 10.54 14.57 16.91 17.82 21.77 M 86.25 31.26 C 82.04 32.69 84.61 39.54 88.76 37.71 C 92.95 36.26 90.39 29.50 86.25 31.26 M 23.96 37.96 C 26.91 38.04 29.86 38.00 32.81 37.98 C 38.86 38.04 44.92 37.98 50.97 37.98 C 56.54 38.02 62.11 38.00 67.68 37.97 C 71.97 37.79 76.48 38.51 80.64 37.58 C 81.49 36.37 80.64 34.67 79.07 35.02 C 75.71 34.98 72.36 34.98 69.01 35.01 C 63.42 35.03 57.82 34.95 52.23 35.03 C 46.18 35.01 40.13 34.98 34.08 35.01 C 30.71 35.01 27.34 34.95 23.97 35.04 C 22.69 35.54 22.61 37.46 23.96 37.96 M 86.29 43.26 C 82.03 44.64 84.64 51.59 88.81 49.68 C 92.91 48.15 90.39 41.61 86.29 43.26 M 23.99 49.98 C 30.25 50.04 36.52 49.97 42.78 49.97 C 50.21 50.03 57.64 50.00 65.06 49.95 C 66.63 50.37 67.42 48.63 66.66 47.45 C 59.68 46.46 52.34 47.24 45.22 47.02 C 38.12 47.03 31.02 46.97 23.92 47.01 C 22.70 47.63 22.62 49.47 23.99 49.98 M 86.19 55.10 C 84.01 56.16 83.03 59.25 85.03 60.97 C 86.86 63.23 90.79 61.68 91.01 58.97 C 91.56 56.40 88.57 54.24 86.19 55.10 M 24.01 61.97 C 27.94 62.04 31.88 61.98 35.82 61.97 C 41.49 62.04 47.17 61.99 52.84 61.97 C 58.93 62.02 65.03 62.01 71.12 61.98 C 72.93 62.55 73.76 59.52 71.94 59.07 C 66.39 58.91 60.84 59.03 55.29 59.01 C 49.21 59.03 43.12 58.97 37.03 59.01 C 32.67 59.03 28.30 58.96 23.93 59.03 C 22.77 59.62 22.57 61.51 24.01 61.97 M 86.14 67.12 C 84.23 68.15 83.08 70.75 84.67 72.56 C 85.97 74.59 89.18 74.53 90.40 72.45 C 92.62 69.80 89.20 65.85 86.14 67.12 M 23.95 73.99 C 28.24 74.00 32.52 74.03 36.80 73.97 C 42.92 74.04 49.05 74.00 55.17 73.96 C 56.77 74.32 57.42 72.48 56.60 71.36 C 50.55 70.57 44.26 71.19 38.12 71.01 C 33.42 71.00 28.71 70.98 24.01 71.02 C 22.61 71.51 22.71 73.39 23.95 73.99 Z" />
<path fill="#181818" opacity="1.00" d=" M 84.84 34.37 C 87.02 37.95 88.15 32.78 90.45 33.50 C 89.39 34.77 88.26 35.97 87.01 37.05 C 85.64 36.71 84.92 35.81 84.84 34.37 Z" />
<path fill="#181818" opacity="1.00" d=" M 84.87 46.37 C 86.97 49.53 88.16 45.58 90.37 45.01 C 89.95 46.60 88.55 47.53 87.47 48.64 C 86.36 49.91 84.58 47.48 84.87 46.37 Z" />
</g>
<g id="#c050d0ff">
<path fill="#c050d0" opacity="1.00" d=" M 17.82 21.77 C 14.57 16.91 21.21 10.54 26.00 13.82 C 23.31 16.51 20.75 19.34 17.82 21.77 Z" />
</g>
<g id="#8838c8ff">
<path fill="#8838c8" opacity="1.00" d=" M 26.00 13.82 C 28.88 15.44 29.55 19.21 28.17 22.05 C 28.54 22.07 29.28 22.11 29.65 22.13 C 29.68 23.40 29.72 24.67 29.75 25.94 C 28.72 25.91 26.66 25.87 25.64 25.85 C 26.72 25.13 27.58 24.23 28.22 23.13 C 27.21 23.81 26.42 24.75 25.56 25.60 C 23.46 25.80 21.08 24.96 19.18 26.17 C 19.99 24.29 18.27 23.48 17.19 22.30 L 17.82 21.77 C 20.75 19.34 23.31 16.51 26.00 13.82 Z" />
</g>
<g id="#9060f0ff">
<path fill="#9060f0" opacity="1.00" d=" M 29.65 22.13 C 51.77 21.82 73.91 22.10 96.04 21.99 C 98.42 21.62 101.01 23.39 100.97 25.92 C 101.04 28.90 100.97 31.89 100.88 34.87 C 99.56 35.51 98.28 36.21 97.01 36.94 C 97.13 33.30 97.00 29.66 96.99 26.01 C 74.57 25.94 52.16 26.09 29.75 25.94 C 29.72 24.67 29.68 23.40 29.65 22.13 Z" />
</g>
<g id="#8058e8ff">
<path fill="#8058e8" opacity="1.00" d=" M 15.05 25.87 C 14.84 24.07 16.94 21.94 18.42 23.85 C 19.38 29.42 18.87 35.21 18.97 40.87 C 17.66 40.84 16.34 40.82 15.03 40.80 C 15.04 35.83 14.92 30.85 15.05 25.87 Z" />
</g>
<g id="#f89848ff">
<path fill="#f89848" opacity="1.00" d=" M 86.25 31.26 C 90.39 29.50 92.95 36.26 88.76 37.71 C 84.61 39.54 82.04 32.69 86.25 31.26 M 84.84 34.37 C 84.92 35.81 85.64 36.71 87.01 37.05 C 88.26 35.97 89.39 34.77 90.45 33.50 C 88.15 32.78 87.02 37.95 84.84 34.37 Z" />
<path fill="#f89848" opacity="1.00" d=" M 86.29 43.26 C 90.39 41.61 92.91 48.15 88.81 49.68 C 84.64 51.59 82.03 44.64 86.29 43.26 M 84.87 46.37 C 84.58 47.48 86.36 49.91 87.47 48.64 C 88.55 47.53 89.95 46.60 90.37 45.01 C 88.16 45.58 86.97 49.53 84.87 46.37 Z" />
<path fill="#f89848" opacity="1.00" d=" M 55.29 59.01 C 60.84 59.03 66.39 58.91 71.94 59.07 C 73.76 59.52 72.93 62.55 71.12 61.98 C 65.03 62.01 58.93 62.02 52.84 61.97 C 53.68 61.00 54.47 59.99 55.29 59.01 Z" />
</g>
<g id="#f8d878ff">
<path fill="#f8d878" opacity="1.00" d=" M 23.96 37.96 C 22.61 37.46 22.69 35.54 23.97 35.04 C 27.34 34.95 30.71 35.01 34.08 35.01 C 33.65 36.00 33.23 36.99 32.81 37.98 C 29.86 38.00 26.91 38.04 23.96 37.96 Z" />
</g>
<g id="#f8c868ff">
<path fill="#f8c868" opacity="1.00" d=" M 34.08 35.01 C 40.13 34.98 46.18 35.01 52.23 35.03 C 51.81 36.01 51.39 37.00 50.97 37.98 C 44.92 37.98 38.86 38.04 32.81 37.98 C 33.23 36.99 33.65 36.00 34.08 35.01 Z" />
<path fill="#f8c868" opacity="1.00" d=" M 24.01 61.97 C 22.57 61.51 22.77 59.62 23.93 59.03 C 28.30 58.96 32.67 59.03 37.03 59.01 C 36.63 60.00 36.23 60.98 35.82 61.97 C 31.88 61.98 27.94 62.04 24.01 61.97 Z" />
</g>
<g id="#f8b060ff">
<path fill="#f8b060" opacity="1.00" d=" M 52.23 35.03 C 57.82 34.95 63.42 35.03 69.01 35.01 C 68.58 36.00 68.13 36.99 67.68 37.97 C 62.11 38.00 56.54 38.02 50.97 37.98 C 51.39 37.00 51.81 36.01 52.23 35.03 Z" />
<path fill="#f8b060" opacity="1.00" d=" M 37.03 59.01 C 43.12 58.97 49.21 59.03 55.29 59.01 C 54.47 59.99 53.68 61.00 52.84 61.97 C 47.17 61.99 41.49 62.04 35.82 61.97 C 36.23 60.98 36.63 60.00 37.03 59.01 Z" />
</g>
<g id="#f8a050ff">
<path fill="#f8a050" opacity="1.00" d=" M 69.01 35.01 C 72.36 34.98 75.71 34.98 79.07 35.02 C 80.64 34.67 81.49 36.37 80.64 37.58 C 76.48 38.51 71.97 37.79 67.68 37.97 C 68.13 36.99 68.58 36.00 69.01 35.01 Z" />
</g>
<g id="#3040f8ff">
<path fill="#3040f8" opacity="1.00" d=" M 97.01 36.94 C 98.28 36.21 99.56 35.51 100.88 34.87 C 103.57 36.19 103.48 39.86 100.81 41.14 C 99.55 40.84 98.30 40.50 97.06 40.15 C 97.04 39.35 97.02 37.75 97.01 36.94 Z" />
</g>
<g id="#5038a0ff">
<path fill="#5038a0" opacity="1.00" d=" M 97.06 40.15 C 98.30 40.50 99.55 40.84 100.81 41.14 C 101.02 42.68 101.01 44.25 101.00 45.80 C 99.66 45.42 98.33 45.00 97.01 44.59 C 96.97 43.11 96.93 41.63 97.06 40.15 Z" />
</g>
<g id="#6850e0ff">
<path fill="#6850e0" opacity="1.00" d=" M 15.03 40.80 C 16.34 40.82 17.66 40.84 18.97 40.87 C 19.04 44.28 18.98 47.69 18.98 51.10 C 17.66 51.11 16.34 51.12 15.03 51.13 C 15.01 47.68 14.96 44.24 15.03 40.80 Z" />
</g>
<g id="#5848d8ff">
<path fill="#5848d8" opacity="1.00" d=" M 97.01 44.59 C 98.33 45.00 99.66 45.42 101.00 45.80 C 101.00 51.48 101.02 57.17 100.95 62.85 C 99.65 62.55 98.33 62.34 97.03 62.04 C 97.01 56.22 96.98 50.41 97.01 44.59 Z" />
</g>
<g id="#f8c870ff">
<path fill="#f8c870" opacity="1.00" d=" M 23.99 49.98 C 22.62 49.47 22.70 47.63 23.92 47.01 C 31.02 46.97 38.12 47.03 45.22 47.02 C 44.40 48.00 43.58 48.98 42.78 49.97 C 36.52 49.97 30.25 50.04 23.99 49.98 Z" />
</g>
<g id="#f8b058ff">
<path fill="#f8b058" opacity="1.00" d=" M 45.22 47.02 C 52.34 47.24 59.68 46.46 66.66 47.45 C 67.42 48.63 66.63 50.37 65.06 49.95 C 57.64 50.00 50.21 50.03 42.78 49.97 C 43.58 48.98 44.40 48.00 45.22 47.02 Z" />
</g>
<g id="#5048d8ff">
<path fill="#5048d8" opacity="1.00" d=" M 15.03 51.13 C 16.34 51.12 17.66 51.11 18.98 51.10 C 19.03 55.10 19.00 59.10 18.97 63.10 C 17.67 63.09 16.36 63.07 15.05 63.04 C 15.00 59.07 14.96 55.10 15.03 51.13 Z" />
</g>
<g id="#d67332ff">
<path fill="#d67332" opacity="1.00" d=" M 86.19 55.10 C 88.57 54.24 91.56 56.40 91.01 58.97 C 90.79 61.68 86.86 63.23 85.03 60.97 C 83.03 59.25 84.01 56.16 86.19 55.10 M 84.95 58.71 C 84.64 59.88 86.49 62.00 87.59 60.70 C 88.58 59.58 90.05 58.76 90.41 57.19 C 88.24 56.98 87.28 61.02 84.95 58.71 Z" />
</g>
<g id="#5d3821ff">
<path fill="#5d3821" opacity="1.00" d=" M 84.95 58.71 C 87.28 61.02 88.24 56.98 90.41 57.19 C 90.05 58.76 88.58 59.58 87.59 60.70 C 86.49 62.00 84.64 59.88 84.95 58.71 Z" />
</g>
<g id="#3840d0ff">
<path fill="#3840d0" opacity="1.00" d=" M 97.03 62.04 C 98.33 62.34 99.65 62.55 100.95 62.85 C 101.08 66.36 100.96 69.88 100.96 73.40 C 99.65 73.38 98.34 73.36 97.04 73.32 C 97.02 69.56 96.94 65.80 97.03 62.04 Z" />
<path fill="#3840d0" opacity="1.00" d=" M 15.05 63.04 C 16.36 63.07 17.67 63.09 18.97 63.10 C 19.05 66.82 18.98 70.54 18.96 74.27 C 17.65 74.26 16.35 74.26 15.04 74.24 C 15.03 70.51 14.91 66.77 15.05 63.04 Z" />
</g>
<g id="#d56b2cff">
<path fill="#d56b2c" opacity="1.00" d=" M 86.14 67.12 C 89.20 65.85 92.62 69.80 90.40 72.45 C 89.18 74.53 85.97 74.59 84.67 72.56 C 83.08 70.75 84.23 68.15 86.14 67.12 M 84.90 70.69 C 84.69 71.88 86.35 73.91 87.53 72.75 C 88.57 71.59 90.10 70.73 90.40 69.07 C 88.20 69.15 87.26 72.96 84.90 70.69 Z" />
</g>
<g id="#5d3721ff">
<path fill="#5d3721" opacity="1.00" d=" M 84.90 70.69 C 87.26 72.96 88.20 69.15 90.40 69.07 C 90.10 70.73 88.57 71.59 87.53 72.75 C 86.35 73.91 84.69 71.88 84.90 70.69 Z" />
</g>
<g id="#f8b860ff">
<path fill="#f8b860" opacity="1.00" d=" M 23.95 73.99 C 22.71 73.39 22.61 71.51 24.01 71.02 C 28.71 70.98 33.42 71.00 38.12 71.01 C 37.69 72.00 37.25 72.99 36.80 73.97 C 32.52 74.03 28.24 74.00 23.95 73.99 Z" />
</g>
<g id="#f8a850ff">
<path fill="#f8a850" opacity="1.00" d=" M 38.12 71.01 C 44.26 71.19 50.55 70.57 56.60 71.36 C 57.42 72.48 56.77 74.32 55.17 73.96 C 49.05 74.00 42.92 74.04 36.80 73.97 C 37.25 72.99 37.69 72.00 38.12 71.01 Z" />
</g>
<g id="#1830c0ff">
<path fill="#1830c0" opacity="1.00" d=" M 97.04 73.32 C 98.34 73.36 99.65 73.38 100.96 73.40 C 100.39 77.44 102.98 83.92 98.01 85.85 C 84.58 86.07 71.11 86.15 57.68 85.80 C 57.98 84.54 58.04 83.27 57.84 81.99 C 70.89 82.00 83.93 82.02 96.98 81.98 C 97.06 79.09 96.92 76.21 97.04 73.32 Z" />
<path fill="#1830c0" opacity="1.00" d=" M 15.04 74.24 C 16.35 74.26 17.65 74.26 18.96 74.27 C 19.08 76.84 18.94 79.41 19.03 81.98 C 29.46 82.13 39.92 81.77 50.33 82.16 C 50.00 83.38 50.01 84.59 50.37 85.80 C 40.22 86.24 30.04 85.89 19.88 86.00 C 17.51 86.34 15.01 84.56 15.02 82.07 C 14.98 79.46 14.95 76.85 15.04 74.24 Z" />
</g>
<g id="#40f0b8ff">
<path fill="#40f0b8" opacity="1.00" d=" M 50.33 82.16 C 51.81 79.59 56.30 79.19 57.39 82.25 C 55.30 83.69 53.48 85.47 51.52 87.09 C 51.24 86.76 50.66 86.12 50.37 85.80 C 50.01 84.59 50.00 83.38 50.33 82.16 Z" />
</g>
<g id="#1fd4ccff">
<path fill="#1fd4cc" opacity="1.00" d=" M 57.39 82.25 L 57.84 81.99 C 58.04 83.27 57.98 84.54 57.68 85.80 C 56.46 87.88 53.43 88.89 51.52 87.09 C 53.48 85.47 55.30 83.69 57.39 82.25 Z" />
</g>
</svg>
