<?xml version="1.0" encoding="UTF-8" ?>
<!DOCTYPE svg PUBLIC "-//W3C//DTD SVG 1.1//EN" "http://www.w3.org/Graphics/SVG/1.1/DTD/svg11.dtd">
<svg width="117px" height="140px" viewBox="0 0 117 140" version="1.1" xmlns="http://www.w3.org/2000/svg">
<g id="#181818ff">
<path fill="#181818" opacity="1.00" d=" M 0.00 0.00 L 117.00 0.00 L 117.00 140.00 L 0.00 140.00 L 0.00 0.00 M 48.97 18.96 C 41.44 26.79 33.44 34.17 26.17 42.25 L 25.81 42.09 C 25.97 44.13 25.49 46.45 26.75 48.23 C 28.05 50.18 30.47 50.75 32.53 51.53 C 38.78 53.55 45.00 55.66 51.26 57.66 C 49.24 59.68 47.45 61.92 46.05 64.41 L 45.72 64.44 C 46.57 66.89 47.15 70.06 50.04 70.89 C 60.24 74.57 70.65 77.71 80.89 81.29 C 83.23 82.05 85.56 82.96 88.03 83.16 C 91.38 83.02 94.34 79.62 93.52 76.26 C 92.56 71.85 90.79 67.67 89.43 63.38 C 87.48 57.63 85.58 51.86 83.72 46.08 L 83.63 46.12 C 82.24 42.41 81.73 36.83 77.02 35.88 C 73.23 35.03 70.66 38.56 68.16 40.76 C 66.13 34.51 64.04 28.28 62.05 22.02 C 61.18 19.32 60.01 16.04 56.88 15.35 C 53.65 14.18 51.02 16.89 48.97 18.96 M 68.73 20.78 C 65.69 23.44 67.23 27.54 69.28 30.27 C 71.95 31.00 75.21 31.65 77.26 29.23 C 79.70 27.16 79.10 23.80 78.06 21.18 L 78.15 21.08 C 75.41 19.12 71.30 17.79 68.73 20.78 M 35.42 64.52 C 34.87 66.20 36.38 67.42 37.18 68.69 C 37.76 68.63 38.92 68.53 39.50 68.48 C 40.18 67.86 40.85 67.24 41.53 66.63 C 41.53 66.13 41.54 65.14 41.54 64.64 C 41.15 64.04 40.36 62.85 39.97 62.25 C 38.27 62.40 35.87 62.47 35.42 64.52 Z" />
</g>
<g id="#7758ecff">
<path fill="#7758ec" opacity="1.00" d=" M 48.97 18.96 C 51.02 16.89 53.65 14.18 56.88 15.35 C 60.01 16.04 61.18 19.32 62.05 22.02 C 64.04 28.28 66.13 34.51 68.16 40.76 C 70.66 38.56 73.23 35.03 77.02 35.88 C 81.73 36.83 82.24 42.41 83.63 46.12 C 82.46 46.65 81.29 47.17 80.12 47.70 C 79.08 44.77 78.39 41.52 76.12 39.24 C 73.14 41.17 70.75 43.83 68.26 46.32 C 67.70 46.33 66.58 46.33 66.02 46.33 C 63.48 39.40 61.24 32.36 59.00 25.33 C 58.27 23.03 57.44 20.71 55.94 18.78 C 53.94 19.73 52.24 21.17 50.71 22.75 C 43.80 29.88 36.75 36.88 29.73 43.90 C 28.55 43.35 27.36 42.80 26.17 42.25 C 33.44 34.17 41.44 26.79 48.97 18.96 Z" />
</g>
<g id="#f7c368ff">
<path fill="#f7c368" opacity="1.00" d=" M 50.71 22.75 C 52.24 21.17 53.94 19.73 55.94 18.78 C 57.44 20.71 58.27 23.03 59.00 25.33 C 61.24 32.36 63.48 39.40 66.02 46.33 C 63.13 49.47 60.12 52.52 57.60 55.98 C 48.48 52.24 38.89 49.76 29.67 46.26 C 29.69 45.67 29.72 44.49 29.73 43.90 C 36.75 36.88 43.80 29.88 50.71 22.75 Z" />
<path fill="#f7c368" opacity="1.00" d=" M 35.42 64.52 C 35.87 62.47 38.27 62.40 39.97 62.25 C 40.36 62.85 41.15 64.04 41.54 64.64 C 41.54 65.14 41.53 66.13 41.53 66.63 C 40.85 67.24 40.18 67.86 39.50 68.48 C 38.92 68.53 37.76 68.63 37.18 68.69 C 36.38 67.42 34.87 66.20 35.42 64.52 Z" />
</g>
<g id="#4747e4ff">
<path fill="#4747e4" opacity="1.00" d=" M 68.73 20.78 C 71.30 17.79 75.41 19.12 78.15 21.08 L 78.06 21.18 C 75.05 24.12 72.13 27.17 69.28 30.27 C 67.23 27.54 65.69 23.44 68.73 20.78 Z" />
<path fill="#4747e4" opacity="1.00" d=" M 25.81 42.09 L 26.17 42.25 C 27.36 42.80 28.55 43.35 29.73 43.90 C 29.72 44.49 29.69 45.67 29.67 46.26 C 38.89 49.76 48.48 52.24 57.60 55.98 C 55.61 58.93 53.19 61.55 50.64 64.03 C 49.11 64.15 47.58 64.28 46.05 64.41 C 47.45 61.92 49.24 59.68 51.26 57.66 C 45.00 55.66 38.78 53.55 32.53 51.53 C 30.47 50.75 28.05 50.18 26.75 48.23 C 25.49 46.45 25.97 44.13 25.81 42.09 Z" />
<path fill="#4747e4" opacity="1.00" d=" M 83.63 46.12 L 83.72 46.08 C 85.58 51.86 87.48 57.63 89.43 63.38 C 88.39 63.36 86.30 63.30 85.26 63.28 C 84.07 59.67 82.87 56.06 81.67 52.45 C 81.15 50.87 80.63 49.28 80.12 47.70 C 81.29 47.17 82.46 46.65 83.63 46.12 Z" />
</g>
<g id="#2639ceff">
<path fill="#2639ce" opacity="1.00" d=" M 69.28 30.27 C 72.13 27.17 75.05 24.12 78.06 21.18 C 79.10 23.80 79.70 27.16 77.26 29.23 C 75.21 31.65 71.95 31.00 69.28 30.27 Z" />
<path fill="#2639ce" opacity="1.00" d=" M 85.26 63.28 C 86.30 63.30 88.39 63.36 89.43 63.38 C 90.79 67.67 92.56 71.85 93.52 76.26 C 94.34 79.62 91.38 83.02 88.03 83.16 C 85.56 82.96 83.23 82.05 80.89 81.29 C 70.65 77.71 60.24 74.57 50.04 70.89 C 47.15 70.06 46.57 66.89 45.72 64.44 L 46.05 64.41 C 47.58 64.28 49.11 64.15 50.64 64.03 C 50.41 64.60 49.95 65.73 49.71 66.30 C 54.12 68.35 58.78 69.79 63.39 71.29 C 68.43 72.97 73.48 74.59 78.50 76.32 C 81.98 77.51 85.45 78.97 89.18 79.16 C 90.08 73.66 86.49 68.54 85.26 63.28 Z" />
</g>
<g id="#f8a24fff">
<path fill="#f8a24f" opacity="1.00" d=" M 68.26 46.32 C 70.75 43.83 73.14 41.17 76.12 39.24 C 78.39 41.52 79.08 44.77 80.12 47.70 C 80.63 49.28 81.15 50.87 81.67 52.45 C 76.18 59.30 69.27 64.79 63.39 71.29 C 58.78 69.79 54.12 68.35 49.71 66.30 C 49.95 65.73 50.41 64.60 50.64 64.03 C 53.19 61.55 55.61 58.93 57.60 55.98 C 60.12 52.52 63.13 49.47 66.02 46.33 C 66.58 46.33 67.70 46.33 68.26 46.32 Z" />
</g>
<g id="#f78a3cff">
<path fill="#f78a3c" opacity="1.00" d=" M 81.67 52.45 C 82.87 56.06 84.07 59.67 85.26 63.28 C 86.49 68.54 90.08 73.66 89.18 79.16 C 85.45 78.97 81.98 77.51 78.50 76.32 C 73.48 74.59 68.43 72.97 63.39 71.29 C 69.27 64.79 76.18 59.30 81.67 52.45 M 73.11 65.10 C 72.25 67.90 75.09 69.48 77.00 70.76 C 78.92 69.44 81.71 67.81 80.84 65.00 C 80.04 61.04 73.80 61.13 73.11 65.10 Z" />
</g>
<g id="#68b4efff">
<path fill="#68b4ef" opacity="1.00" d=" M 73.11 65.10 C 73.80 61.13 80.04 61.04 80.84 65.00 C 81.71 67.81 78.92 69.44 77.00 70.76 C 75.09 69.48 72.25 67.90 73.11 65.10 Z" />
</g>
</svg>
