<?xml version="1.0" encoding="UTF-8" ?>
<!DOCTYPE svg PUBLIC "-//W3C//DTD SVG 1.1//EN" "http://www.w3.org/Graphics/SVG/1.1/DTD/svg11.dtd">
<svg width="117px" height="140px" viewBox="0 0 117 140" version="1.1" xmlns="http://www.w3.org/2000/svg">
<g id="#181818ff">
<path fill="#181818" opacity="1.00" d=" M 0.00 0.00 L 117.00 0.00 L 117.00 140.00 L 0.00 140.00 L 0.00 0.00 M 54.16 13.95 C 53.79 16.62 54.12 19.34 54.01 22.03 C 53.98 24.72 54.00 27.41 54.01 30.10 C 53.97 32.78 54.03 35.45 54.01 38.12 C 53.97 40.46 54.04 42.81 54.01 45.15 C 53.99 47.80 53.54 51.18 56.03 52.94 C 58.49 54.93 62.66 53.73 63.64 50.70 C 64.30 48.19 63.91 45.56 63.98 42.99 C 63.97 40.62 64.03 38.24 63.99 35.87 C 63.98 33.19 64.03 30.51 63.99 27.84 C 64.01 25.28 64.02 22.72 63.98 20.16 C 63.81 17.11 64.84 13.18 62.00 11.04 C 59.29 8.80 54.75 10.52 54.16 13.95 M 24.98 24.98 C 24.82 27.83 27.29 30.04 29.78 30.94 C 28.71 31.91 27.64 32.97 27.10 34.34 C 24.74 38.23 23.23 42.60 22.51 47.09 C 22.01 49.37 22.06 51.73 22.02 54.05 C 22.13 58.60 23.17 63.11 24.92 67.30 C 26.54 71.39 29.03 75.13 32.07 78.29 C 38.93 85.82 49.17 90.19 59.36 89.90 C 62.86 90.09 66.52 89.52 69.85 88.44 C 72.86 87.17 76.17 86.22 78.73 84.13 C 80.35 86.77 81.30 90.14 84.28 91.63 L 85.38 91.42 L 84.88 91.88 C 87.26 92.06 89.66 92.06 92.04 91.91 C 95.69 91.24 97.74 87.23 96.96 83.74 C 96.95 81.14 97.03 78.55 96.98 75.96 C 96.86 74.80 96.19 74.11 94.96 73.88 C 94.54 74.12 93.68 74.60 93.26 74.84 C 92.56 73.62 91.69 72.56 90.12 73.08 C 92.65 68.76 94.78 64.06 95.42 59.07 C 96.28 54.27 96.14 49.29 94.99 44.55 C 94.80 43.27 94.43 41.99 93.67 40.92 C 97.80 39.75 95.40 33.15 91.38 35.21 C 89.60 31.96 87.39 28.86 84.59 26.42 C 82.74 25.41 80.64 28.21 82.34 29.63 C 84.92 32.41 87.26 35.45 88.86 38.91 C 90.29 42.14 90.99 45.57 91.74 49.01 C 92.15 52.31 91.93 55.64 91.52 58.93 C 90.58 63.08 89.07 67.07 86.94 70.76 C 86.46 71.08 85.51 71.72 85.04 72.04 C 85.02 71.46 84.99 70.28 84.98 69.70 C 84.89 67.17 85.18 64.62 84.85 62.10 C 84.08 60.61 81.86 60.64 81.12 62.15 C 80.82 65.41 81.12 68.70 81.01 71.98 C 80.99 74.05 81.01 76.12 80.95 78.20 L 80.08 78.34 C 79.15 76.27 77.18 71.42 74.49 74.46 C 73.63 76.80 76.24 78.65 76.94 80.76 C 73.88 82.60 70.59 83.98 67.22 85.16 C 67.13 84.83 66.94 84.18 66.85 83.85 C 67.67 80.83 64.17 77.89 61.36 79.36 C 58.57 80.48 58.34 84.38 60.50 86.28 C 51.87 86.08 43.04 83.32 36.73 77.24 L 36.50 77.23 C 33.31 74.04 30.60 70.37 28.79 66.22 L 28.67 66.25 C 27.43 63.12 26.75 59.74 26.09 56.51 C 25.95 53.37 26.06 50.23 26.48 47.11 C 27.29 43.43 28.48 39.81 30.43 36.56 C 32.05 34.15 33.38 31.50 35.69 29.63 L 35.75 28.71 C 37.75 25.94 37.09 21.62 34.04 19.89 C 30.40 17.15 24.73 20.61 24.98 24.98 Z" />
</g>
<g id="#f8d070ff">
<path fill="#f8d070" opacity="1.00" d=" M 54.16 13.95 C 54.75 10.52 59.29 8.80 62.00 11.04 C 64.84 13.18 63.81 17.11 63.98 20.16 C 60.77 21.27 57.38 21.71 54.01 22.03 C 54.12 19.34 53.79 16.62 54.16 13.95 Z" />
</g>
<g id="#50d890ff">
<path fill="#50d890" opacity="1.00" d=" M 24.98 24.98 C 24.73 20.61 30.40 17.15 34.04 19.89 C 37.09 21.62 37.75 25.94 35.75 28.71 C 34.18 30.34 32.03 31.14 29.78 30.94 C 27.29 30.04 24.82 27.83 24.98 24.98 Z" />
</g>
<g id="#f8b860ff">
<path fill="#f8b860" opacity="1.00" d=" M 54.01 22.03 C 57.38 21.71 60.77 21.27 63.98 20.16 C 64.02 22.72 64.01 25.28 63.99 27.84 C 60.63 28.46 57.30 29.19 54.01 30.10 C 54.00 27.41 53.98 24.72 54.01 22.03 Z" />
</g>
<g id="#9060f0ff">
<path fill="#9060f0" opacity="1.00" d=" M 82.34 29.63 C 80.64 28.21 82.74 25.41 84.59 26.42 C 87.39 28.86 89.60 31.96 91.38 35.21 C 90.56 36.50 90.08 37.96 89.62 39.41 L 88.86 38.91 C 87.26 35.45 84.92 32.41 82.34 29.63 Z" />
</g>
<g id="#f8a850ff">
<path fill="#f8a850" opacity="1.00" d=" M 54.01 30.10 C 57.30 29.19 60.63 28.46 63.99 27.84 C 64.03 30.51 63.98 33.19 63.99 35.87 C 60.66 36.60 57.33 37.34 54.01 38.12 C 54.03 35.45 53.97 32.78 54.01 30.10 Z" />
</g>
<g id="#583898ff">
<path fill="#583898" opacity="1.00" d=" M 29.78 30.94 C 32.03 31.14 34.18 30.34 35.75 28.71 L 35.69 29.63 C 33.38 31.50 32.05 34.15 30.43 36.56 C 29.62 35.37 28.63 34.39 27.10 34.34 C 27.64 32.97 28.71 31.91 29.78 30.94 Z" />
</g>
<g id="#7858e8ff">
<path fill="#7858e8" opacity="1.00" d=" M 27.10 34.34 C 28.63 34.39 29.62 35.37 30.43 36.56 C 28.48 39.81 27.29 43.43 26.48 47.11 C 25.49 47.10 23.50 47.09 22.51 47.09 C 23.23 42.60 24.74 38.23 27.10 34.34 Z" />
</g>
<g id="#d860d0ff">
<path fill="#d860d0" opacity="1.00" d=" M 91.38 35.21 C 95.40 33.15 97.80 39.75 93.67 40.92 C 92.17 40.87 90.77 40.38 89.62 39.41 C 90.08 37.96 90.56 36.50 91.38 35.21 Z" />
</g>
<g id="#f89848ff">
<path fill="#f89848" opacity="1.00" d=" M 54.01 38.12 C 57.33 37.34 60.66 36.60 63.99 35.87 C 64.03 38.24 63.97 40.62 63.98 42.99 C 60.67 43.75 57.34 44.45 54.01 45.15 C 54.04 42.81 53.97 40.46 54.01 38.12 Z" />
<path fill="#f89848" opacity="1.00" d=" M 90.12 73.08 C 91.69 72.56 92.56 73.62 93.26 74.84 C 93.68 74.60 94.54 74.12 94.96 73.88 C 96.19 74.11 96.86 74.80 96.98 75.96 C 97.03 78.55 96.95 81.14 96.96 83.74 C 93.05 86.24 89.78 89.71 85.38 91.42 L 84.28 91.63 C 81.30 90.14 80.35 86.77 78.73 84.13 L 78.34 83.35 C 81.59 79.83 86.10 77.78 89.27 74.21 C 89.48 73.93 89.91 73.36 90.12 73.08 Z" />
</g>
<g id="#513c9dff">
<path fill="#513c9d" opacity="1.00" d=" M 88.86 38.91 L 89.62 39.41 C 90.77 40.38 92.17 40.87 93.67 40.92 C 94.43 41.99 94.80 43.27 94.99 44.55 C 94.30 44.76 92.93 45.19 92.24 45.40 C 91.97 46.59 91.81 47.79 91.74 49.01 C 90.99 45.57 90.29 42.14 88.86 38.91 Z" />
</g>
<g id="#f88038ff">
<path fill="#f88038" opacity="1.00" d=" M 54.01 45.15 C 57.34 44.45 60.67 43.75 63.98 42.99 C 63.91 45.56 64.30 48.19 63.64 50.70 C 62.66 53.73 58.49 54.93 56.03 52.94 C 53.54 51.18 53.99 47.80 54.01 45.15 Z" />
</g>
<g id="#6050e0ff">
<path fill="#6050e0" opacity="1.00" d=" M 92.24 45.40 C 92.93 45.19 94.30 44.76 94.99 44.55 C 96.14 49.29 96.28 54.27 95.42 59.07 C 94.45 59.03 92.50 58.96 91.52 58.93 C 91.93 55.64 92.15 52.31 91.74 49.01 C 91.81 47.79 91.97 46.59 92.24 45.40 Z" />
<path fill="#6050e0" opacity="1.00" d=" M 22.51 47.09 C 23.50 47.09 25.49 47.10 26.48 47.11 C 26.06 50.23 25.95 53.37 26.09 56.51 C 24.63 55.88 23.17 55.19 22.02 54.05 C 22.06 51.73 22.01 49.37 22.51 47.09 Z" />
</g>
<g id="#5048d8ff">
<path fill="#5048d8" opacity="1.00" d=" M 22.02 54.05 C 23.17 55.19 24.63 55.88 26.09 56.51 C 26.75 59.74 27.43 63.12 28.67 66.25 C 27.41 66.59 26.16 66.94 24.92 67.30 C 23.17 63.11 22.13 58.60 22.02 54.05 Z" />
</g>
<g id="#4848d8ff">
<path fill="#4848d8" opacity="1.00" d=" M 91.52 58.93 C 92.50 58.96 94.45 59.03 95.42 59.07 C 94.78 64.06 92.65 68.76 90.12 73.08 C 89.91 73.36 89.48 73.93 89.27 74.21 C 89.14 72.68 88.50 71.25 86.94 70.76 C 89.07 67.07 90.58 63.08 91.52 58.93 Z" />
</g>
<g id="#f8c870ff">
<path fill="#f8c870" opacity="1.00" d=" M 81.12 62.15 C 81.86 60.64 84.08 60.61 84.85 62.10 C 85.18 64.62 84.89 67.17 84.98 69.70 C 83.64 70.44 82.31 71.19 81.01 71.98 C 81.12 68.70 80.82 65.41 81.12 62.15 Z" />
</g>
<g id="#3840d0ff">
<path fill="#3840d0" opacity="1.00" d=" M 28.67 66.25 L 28.79 66.22 C 30.60 70.37 33.31 74.04 36.50 77.23 C 35.02 77.57 33.55 77.94 32.07 78.29 C 29.03 75.13 26.54 71.39 24.92 67.30 C 26.16 66.94 27.41 66.59 28.67 66.25 Z" />
</g>
<g id="#f8b058ff">
<path fill="#f8b058" opacity="1.00" d=" M 81.01 71.98 C 82.31 71.19 83.64 70.44 84.98 69.70 C 84.99 70.28 85.02 71.46 85.04 72.04 C 85.51 71.72 86.46 71.08 86.94 70.76 C 88.50 71.25 89.14 72.68 89.27 74.21 C 86.10 77.78 81.59 79.83 78.34 83.35 C 77.87 82.48 77.41 81.62 76.94 80.76 C 76.24 78.65 73.63 76.80 74.49 74.46 C 77.18 71.42 79.15 76.27 80.08 78.34 C 80.30 78.48 80.75 78.76 80.97 78.90 L 80.95 78.20 C 81.01 76.12 80.99 74.05 81.01 71.98 Z" />
</g>
<g id="#2038c0ff">
<path fill="#2038c0" opacity="1.00" d=" M 36.50 77.23 L 36.73 77.24 C 43.04 83.32 51.87 86.08 60.50 86.28 C 60.55 86.29 60.67 86.33 60.73 86.34 C 60.01 87.43 59.55 88.61 59.36 89.90 C 49.17 90.19 38.93 85.82 32.07 78.29 C 33.55 77.94 35.02 77.57 36.50 77.23 Z" />
</g>
<g id="#686098ff">
<path fill="#686098" opacity="1.00" d=" M 80.08 78.34 L 80.95 78.20 L 80.97 78.90 C 80.75 78.76 80.30 78.48 80.08 78.34 Z" />
</g>
<g id="#38b8e8ff">
<path fill="#38b8e8" opacity="1.00" d=" M 61.36 79.36 C 64.17 77.89 67.67 80.83 66.85 83.85 C 66.14 86.54 63.15 87.67 60.73 86.34 C 60.67 86.33 60.55 86.29 60.50 86.28 C 58.34 84.38 58.57 80.48 61.36 79.36 Z" />
</g>
<g id="#2038c8ff">
<path fill="#2038c8" opacity="1.00" d=" M 67.22 85.16 C 70.59 83.98 73.88 82.60 76.94 80.76 C 77.41 81.62 77.87 82.48 78.34 83.35 L 78.73 84.13 C 76.17 86.22 72.86 87.17 69.85 88.44 C 68.31 87.97 67.30 86.78 67.22 85.16 Z" />
</g>
<g id="#102078ff">
<path fill="#102078" opacity="1.00" d=" M 60.73 86.34 C 63.15 87.67 66.14 86.54 66.85 83.85 C 66.94 84.18 67.13 84.83 67.22 85.16 C 67.30 86.78 68.31 87.97 69.85 88.44 C 66.52 89.52 62.86 90.09 59.36 89.90 C 59.55 88.61 60.01 87.43 60.73 86.34 Z" />
</g>
<g id="#f08038ff">
<path fill="#f08038" opacity="1.00" d=" M 85.38 91.42 C 89.78 89.71 93.05 86.24 96.96 83.74 C 97.74 87.23 95.69 91.24 92.04 91.91 C 89.66 92.06 87.26 92.06 84.88 91.88 L 85.38 91.42 Z" />
</g>
</svg>
