<?xml version="1.0" encoding="UTF-8" ?>
<!DOCTYPE svg PUBLIC "-//W3C//DTD SVG 1.1//EN" "http://www.w3.org/Graphics/SVG/1.1/DTD/svg11.dtd">
<svg width="45px" height="45px" viewBox="0 0 45 45" version="1.1" xmlns="http://www.w3.org/2000/svg">
<g id="#181818ff">
<path fill="#181818" opacity="1.00" d=" M 0.00 0.00 L 45.00 0.00 L 45.00 45.00 L 0.00 45.00 L 0.00 0.00 M 20.67 9.92 C 20.52 13.96 21.18 18.42 18.97 22.04 C 17.06 21.47 16.64 19.06 15.54 17.62 C 14.22 19.88 12.83 22.29 13.04 25.02 C 12.73 29.40 16.45 33.57 20.95 33.21 C 20.45 32.69 19.47 31.64 18.97 31.12 C 19.31 29.21 19.78 27.30 19.84 25.35 C 20.43 26.46 21.06 27.54 21.73 28.60 C 21.63 26.26 22.58 24.28 24.36 22.80 C 24.56 24.64 24.87 26.46 25.10 28.30 C 25.50 27.73 26.29 26.61 26.69 26.05 C 27.80 27.54 28.60 29.66 27.35 31.34 C 25.40 33.89 21.51 32.25 19.21 33.95 C 15.53 34.01 11.85 34.04 8.18 34.06 C 8.20 34.54 8.23 35.49 8.25 35.97 C 11.32 35.99 14.38 35.97 17.44 35.95 C 24.16 35.96 30.89 36.15 37.60 35.74 C 37.70 35.37 37.91 34.61 38.02 34.23 C 33.93 34.07 29.83 33.97 25.75 33.65 C 28.17 33.28 31.40 33.17 32.44 30.45 C 33.90 27.59 31.46 24.83 31.34 21.97 C 31.34 20.08 31.66 18.21 31.88 16.34 C 28.77 17.78 27.81 21.01 27.21 24.11 C 26.66 21.17 26.39 18.17 25.72 15.26 C 24.79 12.88 22.57 11.44 20.67 9.92 Z" />
</g>
<g id="#f8b25bff">
<path fill="#f8b25b" opacity="1.00" d=" M 20.67 9.92 C 22.57 11.44 24.79 12.88 25.72 15.26 C 26.39 18.17 26.66 21.17 27.21 24.11 C 27.04 24.76 26.89 25.41 26.69 26.05 C 26.29 26.61 25.50 27.73 25.10 28.30 C 24.87 26.46 24.56 24.64 24.36 22.80 C 22.58 24.28 21.63 26.26 21.73 28.60 C 21.06 27.54 20.43 26.46 19.84 25.35 C 19.78 27.30 19.31 29.21 18.97 31.12 C 19.47 31.64 20.45 32.69 20.95 33.21 C 16.45 33.57 12.73 29.40 13.04 25.02 C 12.83 22.29 14.22 19.88 15.54 17.62 C 16.64 19.06 17.06 21.47 18.97 22.04 C 21.18 18.42 20.52 13.96 20.67 9.92 Z" />
<path fill="#f8b25b" opacity="1.00" d=" M 8.18 34.06 C 11.85 34.04 15.53 34.01 19.21 33.95 C 18.77 34.45 17.88 35.45 17.44 35.95 C 14.38 35.97 11.32 35.99 8.25 35.97 C 8.23 35.49 8.20 34.54 8.18 34.06 Z" />
</g>
<g id="#f79445ff">
<path fill="#f79445" opacity="1.00" d=" M 27.21 24.11 C 27.81 21.01 28.77 17.78 31.88 16.34 C 31.66 18.21 31.34 20.08 31.34 21.97 C 31.46 24.83 33.90 27.59 32.44 30.45 C 31.40 33.17 28.17 33.28 25.75 33.65 C 29.83 33.97 33.93 34.07 38.02 34.23 C 37.91 34.61 37.70 35.37 37.60 35.74 C 30.89 36.15 24.16 35.96 17.44 35.95 C 17.88 35.45 18.77 34.45 19.21 33.95 C 21.51 32.25 25.40 33.89 27.35 31.34 C 28.60 29.66 27.80 27.54 26.69 26.05 C 26.89 25.41 27.04 24.76 27.21 24.11 Z" />
</g>
</svg>
