<?xml version="1.0" encoding="UTF-8" ?>
<!DOCTYPE svg PUBLIC "-//W3C//DTD SVG 1.1//EN" "http://www.w3.org/Graphics/SVG/1.1/DTD/svg11.dtd">
<svg width="117px" height="140px" viewBox="0 0 117 140" version="1.1" xmlns="http://www.w3.org/2000/svg">
<g id="#181818ff">
<path fill="#181818" opacity="1.00" d=" M 0.00 0.00 L 117.00 0.00 L 117.00 140.00 L 0.00 140.00 L 0.00 0.00 M 57.09 8.15 C 56.86 14.17 57.09 20.21 57.01 26.24 C 56.96 29.19 57.03 32.14 56.99 35.09 C 52.56 35.81 48.53 38.41 46.16 42.23 C 45.04 43.97 44.54 46.00 44.09 47.99 C 35.40 48.04 26.71 47.94 18.02 48.03 C 15.45 47.80 15.41 52.15 17.97 51.96 C 26.68 52.07 35.38 51.95 44.09 52.01 C 44.54 53.86 45.07 55.70 45.93 57.40 C 48.26 61.41 52.40 64.17 56.96 64.89 C 56.98 65.46 57.00 66.60 57.02 67.17 C 56.97 72.08 57.01 76.99 57.02 81.90 C 57.07 85.21 56.79 88.56 57.19 91.85 C 57.96 93.69 61.09 93.09 60.95 91.04 C 61.05 87.98 61.00 84.93 60.98 81.88 C 60.99 76.97 61.03 72.06 60.98 67.15 C 60.99 66.59 61.02 65.47 61.04 64.91 C 65.63 64.14 69.84 61.37 72.12 57.29 C 72.97 55.62 73.47 53.82 73.91 52.01 C 76.78 51.95 79.65 52.08 82.52 51.95 C 80.33 54.32 80.63 58.01 82.83 60.24 C 84.88 62.29 88.39 62.57 90.59 60.60 C 93.32 58.65 93.70 54.50 91.51 51.99 C 94.63 51.92 97.78 52.20 100.88 51.83 C 102.69 51.00 102.10 47.91 100.04 48.04 C 91.33 47.94 82.61 48.04 73.90 47.99 C 73.45 45.85 72.86 43.69 71.60 41.87 C 69.22 38.22 65.29 35.81 61.01 35.09 C 60.97 32.22 61.04 29.34 60.99 26.47 C 60.91 20.37 61.14 14.25 60.92 8.15 C 60.14 6.58 57.87 6.59 57.09 8.15 M 65.01 7.38 C 64.98 11.75 65.02 16.13 65.00 20.50 C 65.00 24.33 64.98 28.16 65.03 31.99 C 65.44 32.14 66.25 32.44 66.65 32.59 C 69.14 33.79 71.39 35.49 73.25 37.53 C 74.85 39.48 76.19 41.61 77.07 43.99 C 80.57 44.01 84.07 43.96 87.57 43.96 C 92.24 44.06 96.91 43.95 101.58 43.97 C 100.95 40.14 100.02 36.33 98.38 32.80 C 96.52 28.44 93.89 24.43 90.62 21.01 C 88.70 18.73 86.30 16.87 83.97 15.03 L 83.99 15.01 C 81.28 13.12 78.40 11.45 75.33 10.22 C 72.01 8.87 68.54 7.94 65.01 7.38 M 42.38 18.35 C 39.57 19.43 39.18 23.77 41.83 25.24 C 44.21 27.11 48.13 24.94 47.90 21.95 C 48.08 19.21 44.81 17.13 42.38 18.35 M 32.13 81.72 L 32.82 81.11 L 32.73 81.92 C 35.35 85.20 40.13 80.41 37.02 77.67 L 36.37 77.82 L 36.44 77.10 C 33.56 76.19 31.17 78.93 32.13 81.72 Z" />
<path fill="#181818" opacity="1.00" d=" M 49.91 42.13 C 54.75 36.31 64.73 36.88 68.91 43.18 C 71.30 46.98 71.71 51.98 69.44 55.93 C 67.59 58.91 64.57 61.22 61.05 61.77 C 56.17 62.75 51.03 60.15 48.55 55.90 C 46.04 51.57 46.80 45.95 49.91 42.13 Z" />
</g>
<g id="#8860f0ff">
<path fill="#8860f0" opacity="1.00" d=" M 57.09 8.15 C 57.87 6.59 60.14 6.58 60.92 8.15 C 61.14 14.25 60.91 20.37 60.99 26.47 C 59.67 26.34 58.34 26.26 57.01 26.24 C 57.09 20.21 56.86 14.17 57.09 8.15 Z" />
</g>
<g id="#f8dc78ff">
<path fill="#f8dc78" opacity="1.00" d=" M 65.01 7.38 C 68.54 7.94 72.01 8.87 75.33 10.22 C 72.40 14.13 68.79 17.44 65.00 20.50 C 65.02 16.13 64.98 11.75 65.01 7.38 Z" />
</g>
<g id="#f8c868ff">
<path fill="#f8c868" opacity="1.00" d=" M 75.33 10.22 C 78.40 11.45 81.28 13.12 83.99 15.01 L 83.97 15.03 C 77.82 20.49 72.24 26.57 66.65 32.59 C 66.25 32.44 65.44 32.14 65.03 31.99 C 64.98 28.16 65.00 24.33 65.00 20.50 C 68.79 17.44 72.40 14.13 75.33 10.22 Z" />
</g>
<g id="#f8b460ff">
<path fill="#f8b460" opacity="1.00" d=" M 66.65 32.59 C 72.24 26.57 77.82 20.49 83.97 15.03 C 86.30 16.87 88.70 18.73 90.62 21.01 C 85.09 26.75 79.83 32.97 73.25 37.53 C 71.39 35.49 69.14 33.79 66.65 32.59 Z" />
<path fill="#f8b460" opacity="1.00" d=" M 32.13 81.72 C 31.17 78.93 33.56 76.19 36.44 77.10 L 36.37 77.82 C 35.18 78.90 33.99 80.00 32.82 81.11 L 32.13 81.72 Z" />
</g>
<g id="#38c0f0ff">
<path fill="#38c0f0" opacity="1.00" d=" M 42.38 18.35 C 44.81 17.13 48.08 19.21 47.90 21.95 C 48.13 24.94 44.21 27.11 41.83 25.24 C 39.18 23.77 39.57 19.43 42.38 18.35 Z" />
</g>
<g id="#f89c48ff">
<path fill="#f89c48" opacity="1.00" d=" M 90.62 21.01 C 93.89 24.43 96.52 28.44 98.38 32.80 C 94.74 36.48 91.00 40.07 87.57 43.96 C 84.07 43.96 80.57 44.01 77.07 43.99 C 76.19 41.61 74.85 39.48 73.25 37.53 C 79.83 32.97 85.09 26.75 90.62 21.01 Z" />
</g>
<g id="#7054e8ff">
<path fill="#7054e8" opacity="1.00" d=" M 57.01 26.24 C 58.34 26.26 59.67 26.34 60.99 26.47 C 61.04 29.34 60.97 32.22 61.01 35.09 C 65.29 35.81 69.22 38.22 71.60 41.87 C 70.93 42.20 69.59 42.85 68.91 43.18 C 64.73 36.88 54.75 36.31 49.91 42.13 C 48.66 42.16 47.41 42.20 46.16 42.23 C 48.53 38.41 52.56 35.81 56.99 35.09 C 57.03 32.14 56.96 29.19 57.01 26.24 Z" />
</g>
<g id="#f88438ff">
<path fill="#f88438" opacity="1.00" d=" M 98.38 32.80 C 100.02 36.33 100.95 40.14 101.58 43.97 C 96.91 43.95 92.24 44.06 87.57 43.96 C 91.00 40.07 94.74 36.48 98.38 32.80 Z" />
</g>
<g id="#584ce0ff">
<path fill="#584ce0" opacity="1.00" d=" M 44.09 47.99 C 44.54 46.00 45.04 43.97 46.16 42.23 C 47.41 42.20 48.66 42.16 49.91 42.13 C 46.80 45.95 46.04 51.57 48.55 55.90 C 47.90 56.28 46.59 57.03 45.93 57.40 C 45.07 55.70 44.54 53.86 44.09 52.01 C 35.38 51.95 26.68 52.07 17.97 51.96 C 15.41 52.15 15.45 47.80 18.02 48.03 C 26.71 47.94 35.40 48.04 44.09 47.99 Z" />
<path fill="#584ce0" opacity="1.00" d=" M 71.60 41.87 C 72.86 43.69 73.45 45.85 73.90 47.99 C 82.61 48.04 91.33 47.94 100.04 48.04 C 102.10 47.91 102.69 51.00 100.88 51.83 C 97.78 52.20 94.63 51.92 91.51 51.99 L 91.11 51.69 C 88.70 49.31 84.82 49.58 82.52 51.95 C 79.65 52.08 76.78 51.95 73.91 52.01 C 73.47 53.82 72.97 55.62 72.12 57.29 C 71.45 56.95 70.11 56.27 69.44 55.93 C 71.71 51.98 71.30 46.98 68.91 43.18 C 69.59 42.85 70.93 42.20 71.60 41.87 Z" />
</g>
<g id="#c0ec18ff">
<path fill="#c0ec18" opacity="1.00" d=" M 82.52 51.95 C 84.82 49.58 88.70 49.31 91.11 51.69 C 88.58 54.76 85.73 57.53 82.83 60.24 C 80.63 58.01 80.33 54.32 82.52 51.95 Z" />
</g>
<g id="#80e008ff">
<path fill="#80e008" opacity="1.00" d=" M 91.11 51.69 L 91.51 51.99 C 93.70 54.50 93.32 58.65 90.59 60.60 C 88.39 62.57 84.88 62.29 82.83 60.24 C 85.73 57.53 88.58 54.76 91.11 51.69 Z" />
</g>
<g id="#4044d8ff">
<path fill="#4044d8" opacity="1.00" d=" M 48.55 55.90 C 51.03 60.15 56.17 62.75 61.05 61.77 C 64.57 61.22 67.59 58.91 69.44 55.93 C 70.11 56.27 71.45 56.95 72.12 57.29 C 69.84 61.37 65.63 64.14 61.04 64.91 C 61.02 65.47 60.99 66.59 60.98 67.15 C 59.66 67.16 58.34 67.17 57.02 67.17 C 57.00 66.60 56.98 65.46 56.96 64.89 C 52.40 64.17 48.26 61.41 45.93 57.40 C 46.59 57.03 47.90 56.28 48.55 55.90 Z" />
</g>
<g id="#3040d0ff">
<path fill="#3040d0" opacity="1.00" d=" M 57.02 67.17 C 58.34 67.17 59.66 67.16 60.98 67.15 C 61.03 72.06 60.99 76.97 60.98 81.88 C 59.66 81.88 58.34 81.89 57.02 81.90 C 57.01 76.99 56.97 72.08 57.02 67.17 Z" />
</g>
<g id="#f87cb0ff">
<path fill="#f87cb0" opacity="1.00" d=" M 32.82 81.11 C 33.99 80.00 35.18 78.90 36.37 77.82 L 37.02 77.67 C 40.13 80.41 35.35 85.20 32.73 81.92 L 32.82 81.11 Z" />
</g>
<g id="#2038c8ff">
<path fill="#2038c8" opacity="1.00" d=" M 57.02 81.90 C 58.34 81.89 59.66 81.88 60.98 81.88 C 61.00 84.93 61.05 87.98 60.95 91.04 C 61.09 93.09 57.96 93.69 57.19 91.85 C 56.79 88.56 57.07 85.21 57.02 81.90 Z" />
</g>
</svg>
