<?xml version="1.0" encoding="UTF-8" ?>
<!DOCTYPE svg PUBLIC "-//W3C//DTD SVG 1.1//EN" "http://www.w3.org/Graphics/SVG/1.1/DTD/svg11.dtd">
<svg width="117px" height="140px" viewBox="0 0 117 140" version="1.1" xmlns="http://www.w3.org/2000/svg">
<g id="#181818ff">
<path fill="#181818" opacity="1.00" d=" M 0.00 0.00 L 117.00 0.00 L 117.00 140.00 L 0.00 140.00 L 0.00 0.00 M 68.22 22.23 L 68.02 21.95 C 66.18 21.51 64.19 20.50 62.30 21.34 C 60.29 22.08 59.24 24.09 57.94 25.66 C 53.09 27.30 48.15 28.73 43.36 30.57 C 40.32 31.57 38.47 35.26 39.70 38.25 C 40.78 40.48 42.75 42.08 44.42 43.86 C 43.08 44.33 41.75 44.82 40.42 45.31 C 34.54 46.89 28.79 49.02 23.04 51.04 C 19.66 52.03 17.66 56.34 19.55 59.43 C 21.20 61.89 23.51 63.79 25.56 65.89 C 30.85 71.44 36.44 76.70 41.79 82.19 C 43.36 83.68 44.89 85.39 47.00 86.11 C 49.96 87.03 53.32 85.06 54.19 82.13 C 56.08 77.16 57.52 72.04 59.34 67.05 L 59.23 66.98 C 59.95 64.94 60.65 62.89 61.35 60.84 C 62.91 62.29 64.48 63.72 66.08 65.12 C 65.75 67.10 66.68 68.92 67.46 70.67 C 69.26 70.74 71.45 71.38 72.80 69.79 C 74.41 68.39 73.73 66.15 73.73 64.32 L 73.40 64.20 C 76.28 58.63 77.70 52.47 79.81 46.58 C 81.06 42.69 82.40 38.83 83.64 34.93 C 84.66 31.63 86.10 28.43 86.74 25.01 C 87.37 21.39 83.77 17.75 80.13 18.47 C 76.05 19.34 72.19 20.99 68.22 22.23 M 20.52 71.64 C 18.17 73.06 19.27 75.93 20.38 77.77 L 21.26 76.91 L 20.31 77.90 C 21.18 77.84 22.93 77.73 23.80 77.68 C 26.11 76.93 25.87 74.17 26.06 72.25 L 25.67 72.62 C 24.15 71.68 22.24 70.16 20.52 71.64 Z" />
</g>
<g id="#9060f8ff">
<path fill="#9060f8" opacity="1.00" d=" M 68.22 22.23 C 72.19 20.99 76.05 19.34 80.13 18.47 C 83.77 17.75 87.37 21.39 86.74 25.01 C 86.10 28.43 84.66 31.63 83.64 34.93 C 82.71 33.65 81.77 32.36 80.84 31.07 C 81.77 28.46 82.72 25.81 82.85 23.01 C 79.16 21.61 75.34 24.20 71.74 25.04 C 71.43 25.15 70.82 25.39 70.51 25.50 C 69.74 24.41 68.98 23.33 68.22 22.23 Z" />
</g>
<g id="#e8a0e8ff">
<path fill="#e8a0e8" opacity="1.00" d=" M 62.30 21.34 C 64.19 20.50 66.18 21.51 68.02 21.95 C 65.58 25.28 62.70 28.25 59.57 30.94 L 59.03 29.39 C 58.64 28.15 58.30 26.90 57.94 25.66 C 59.24 24.09 60.29 22.08 62.30 21.34 Z" />
</g>
<g id="#d074d8ff">
<path fill="#d074d8" opacity="1.00" d=" M 68.02 21.95 L 68.22 22.23 C 68.98 23.33 69.74 24.41 70.51 25.50 C 69.64 27.99 69.55 31.43 66.59 32.43 C 64.17 33.76 61.63 32.23 59.57 30.94 C 62.70 28.25 65.58 25.28 68.02 21.95 Z" />
</g>
<g id="#f8a850ff">
<path fill="#f8a850" opacity="1.00" d=" M 71.74 25.04 C 75.34 24.20 79.16 21.61 82.85 23.01 C 82.72 25.81 81.77 28.46 80.84 31.07 C 79.06 36.09 77.45 41.17 75.74 46.21 C 73.74 51.50 72.74 57.24 69.80 62.14 C 65.82 60.79 63.51 56.91 60.35 54.36 C 58.07 57.53 56.90 61.28 55.79 64.98 C 53.76 70.64 52.44 76.61 49.74 82.00 C 48.07 83.18 46.83 81.37 45.64 80.42 C 41.03 75.91 36.53 71.29 31.95 66.75 C 39.06 60.95 45.03 53.94 51.75 47.71 C 53.92 45.55 56.44 43.64 57.99 40.95 C 58.62 38.72 58.07 36.36 57.83 34.11 C 60.41 36.71 64.34 38.99 67.94 36.90 C 71.44 34.83 70.94 30.49 71.02 27.03 C 71.20 26.53 71.56 25.53 71.74 25.04 Z" />
</g>
<g id="#b08040ff">
<path fill="#b08040" opacity="1.00" d=" M 70.51 25.50 C 70.82 25.39 71.43 25.15 71.74 25.04 C 71.56 25.53 71.20 26.53 71.02 27.03 C 70.94 30.49 71.44 34.83 67.94 36.90 C 64.34 38.99 60.41 36.71 57.83 34.11 C 57.70 33.38 57.45 31.92 57.32 31.18 C 56.67 31.11 55.36 30.96 54.71 30.88 C 56.15 30.40 57.59 29.89 59.03 29.39 L 59.57 30.94 C 61.63 32.23 64.17 33.76 66.59 32.43 C 69.55 31.43 69.64 27.99 70.51 25.50 Z" />
</g>
<g id="#7858e8ff">
<path fill="#7858e8" opacity="1.00" d=" M 43.36 30.57 C 48.15 28.73 53.09 27.30 57.94 25.66 C 58.30 26.90 58.64 28.15 59.03 29.39 C 57.59 29.89 56.15 30.40 54.71 30.88 C 51.01 32.15 47.14 33.06 43.69 34.95 C 43.59 35.36 43.38 36.18 43.28 36.59 C 45.40 39.87 49.46 41.87 50.25 45.95 C 46.98 45.74 43.71 45.39 40.42 45.31 C 41.75 44.82 43.08 44.33 44.42 43.86 C 42.75 42.08 40.78 40.48 39.70 38.25 C 38.47 35.26 40.32 31.57 43.36 30.57 Z" />
</g>
<g id="#f8bc60ff">
<path fill="#f8bc60" opacity="1.00" d=" M 43.69 34.95 C 47.14 33.06 51.01 32.15 54.71 30.88 C 55.36 30.96 56.67 31.11 57.32 31.18 C 57.45 31.92 57.70 33.38 57.83 34.11 C 58.07 36.36 58.62 38.72 57.99 40.95 C 56.44 43.64 53.92 45.55 51.75 47.71 C 45.03 53.94 39.06 60.95 31.95 66.75 C 31.54 66.34 30.73 65.53 30.32 65.12 C 27.75 62.43 24.79 60.04 22.74 56.89 C 22.78 55.13 24.57 54.73 25.89 54.18 C 33.98 51.36 42.22 48.94 50.25 45.95 C 49.46 41.87 45.40 39.87 43.28 36.59 C 43.38 36.18 43.59 35.36 43.69 34.95 Z" />
</g>
<g id="#7058e8ff">
<path fill="#7058e8" opacity="1.00" d=" M 75.74 46.21 C 77.45 41.17 79.06 36.09 80.84 31.07 C 81.77 32.36 82.71 33.65 83.64 34.93 C 82.40 38.83 81.06 42.69 79.81 46.58 C 78.45 46.46 77.10 46.33 75.74 46.21 Z" />
</g>
<g id="#584ce0ff">
<path fill="#584ce0" opacity="1.00" d=" M 23.04 51.04 C 28.79 49.02 34.54 46.89 40.42 45.31 C 43.71 45.39 46.98 45.74 50.25 45.95 C 42.22 48.94 33.98 51.36 25.89 54.18 C 24.57 54.73 22.78 55.13 22.74 56.89 C 24.79 60.04 27.75 62.43 30.32 65.12 C 28.73 65.37 27.15 65.63 25.56 65.89 C 23.51 63.79 21.20 61.89 19.55 59.43 C 17.66 56.34 19.66 52.03 23.04 51.04 Z" />
</g>
<g id="#4848d8ff">
<path fill="#4848d8" opacity="1.00" d=" M 69.80 62.14 C 72.74 57.24 73.74 51.50 75.74 46.21 C 77.10 46.33 78.45 46.46 79.81 46.58 C 77.70 52.47 76.28 58.63 73.40 64.20 C 70.86 62.83 68.07 62.85 66.08 65.12 C 64.48 63.72 62.91 62.29 61.35 60.84 C 60.65 62.89 59.95 64.94 59.23 66.98 C 58.08 66.31 56.94 65.65 55.79 64.98 C 56.90 61.28 58.07 57.53 60.35 54.36 C 63.51 56.91 65.82 60.79 69.80 62.14 Z" />
</g>
<g id="#b8ec10ff">
<path fill="#b8ec10" opacity="1.00" d=" M 66.08 65.12 C 68.07 62.85 70.86 62.83 73.40 64.20 L 73.73 64.32 C 71.64 66.44 69.55 68.55 67.46 70.67 C 66.68 68.92 65.75 67.10 66.08 65.12 Z" />
</g>
<g id="#283cd0ff">
<path fill="#283cd0" opacity="1.00" d=" M 30.32 65.12 C 30.73 65.53 31.54 66.34 31.95 66.75 C 36.53 71.29 41.03 75.91 45.64 80.42 C 46.83 81.37 48.07 83.18 49.74 82.00 C 52.44 76.61 53.76 70.64 55.79 64.98 C 56.94 65.65 58.08 66.31 59.23 66.98 L 59.34 67.05 C 57.52 72.04 56.08 77.16 54.19 82.13 C 53.32 85.06 49.96 87.03 47.00 86.11 C 44.89 85.39 43.36 83.68 41.79 82.19 C 36.44 76.70 30.85 71.44 25.56 65.89 C 27.15 65.63 28.73 65.37 30.32 65.12 Z" />
</g>
<g id="#6dc909ff">
<path fill="#6dc909" opacity="1.00" d=" M 73.73 64.32 C 73.73 66.15 74.41 68.39 72.80 69.79 C 71.45 71.38 69.26 70.74 67.46 70.67 C 69.55 68.55 71.64 66.44 73.73 64.32 Z" />
</g>
<g id="#68b4f0ff">
<path fill="#68b4f0" opacity="1.00" d=" M 20.52 71.64 C 22.24 70.16 24.15 71.68 25.67 72.62 C 24.17 74.02 22.70 75.45 21.26 76.91 L 20.38 77.77 C 19.27 75.93 18.17 73.06 20.52 71.64 Z" />
</g>
<g id="#5576d9ff">
<path fill="#5576d9" opacity="1.00" d=" M 25.67 72.62 L 26.06 72.25 C 25.87 74.17 26.11 76.93 23.80 77.68 C 22.93 77.73 21.18 77.84 20.31 77.90 L 21.26 76.91 C 22.70 75.45 24.17 74.02 25.67 72.62 Z" />
</g>
</svg>
