<?xml version="1.0" encoding="UTF-8" ?>
<!DOCTYPE svg PUBLIC "-//W3C//DTD SVG 1.1//EN" "http://www.w3.org/Graphics/SVG/1.1/DTD/svg11.dtd">
<svg width="45px" height="45px" viewBox="0 0 45 45" version="1.1" xmlns="http://www.w3.org/2000/svg">
<g id="#181818ff">
<path fill="#181818" opacity="1.00" d=" M 0.00 0.00 L 45.00 0.00 L 45.00 45.00 L 0.00 45.00 L 0.00 0.00 M 15.01 8.08 C 15.03 8.79 15.06 10.23 15.08 10.94 C 20.44 10.85 25.78 10.36 31.12 9.91 C 30.98 9.47 30.69 8.60 30.55 8.16 C 25.38 7.78 20.19 8.01 15.01 8.08 M 14.85 13.07 C 15.01 13.53 15.34 14.45 15.50 14.90 C 20.52 14.82 25.57 14.48 30.55 13.88 C 30.69 13.43 30.96 12.54 31.09 12.09 C 25.67 12.20 20.26 12.61 14.85 13.07 M 14.88 17.05 C 15.02 17.50 15.31 18.42 15.45 18.87 C 20.47 18.80 25.53 18.51 30.51 17.85 C 30.68 17.43 31.00 16.58 31.17 16.15 C 25.72 16.16 20.30 16.66 14.88 17.05 M 15.19 21.00 C 15.21 21.49 15.23 22.48 15.25 22.98 C 13.23 22.99 11.20 22.87 9.19 23.12 C 6.97 24.87 8.06 28.38 8.30 30.81 C 12.86 33.78 18.14 35.49 22.99 37.96 C 27.82 35.46 33.08 33.74 37.63 30.77 C 38.04 28.44 38.39 25.78 37.40 23.56 C 35.32 22.63 32.90 23.16 30.68 23.00 C 30.75 22.28 30.89 20.84 30.96 20.12 C 25.69 20.23 20.44 20.66 15.19 21.00 Z" />
<path fill="#181818" opacity="1.00" d=" M 20.37 26.26 C 21.61 25.77 22.85 25.28 24.10 24.79 C 24.12 27.25 24.15 29.70 24.16 32.16 C 24.98 32.66 25.79 33.16 26.60 33.67 C 24.74 33.55 21.06 35.13 20.23 32.94 C 20.77 32.76 21.85 32.41 22.38 32.23 C 22.01 30.17 23.52 26.79 20.37 26.26 Z" />
</g>
<g id="#f8a14fff">
<path fill="#f8a14f" opacity="1.00" d=" M 15.01 8.08 C 20.19 8.01 25.38 7.78 30.55 8.16 C 30.69 8.60 30.98 9.47 31.12 9.91 C 25.78 10.36 20.44 10.85 15.08 10.94 C 15.06 10.23 15.03 8.79 15.01 8.08 Z" />
<path fill="#f8a14f" opacity="1.00" d=" M 14.85 13.07 C 20.26 12.61 25.67 12.20 31.09 12.09 C 30.96 12.54 30.69 13.43 30.55 13.88 C 25.57 14.48 20.52 14.82 15.50 14.90 C 15.34 14.45 15.01 13.53 14.85 13.07 Z" />
<path fill="#f8a14f" opacity="1.00" d=" M 14.88 17.05 C 20.30 16.66 25.72 16.16 31.17 16.15 C 31.00 16.58 30.68 17.43 30.51 17.85 C 25.53 18.51 20.47 18.80 15.45 18.87 C 15.31 18.42 15.02 17.50 14.88 17.05 Z" />
<path fill="#f8a14f" opacity="1.00" d=" M 15.19 21.00 C 20.44 20.66 25.69 20.23 30.96 20.12 C 30.89 20.84 30.75 22.28 30.68 23.00 C 32.90 23.16 35.32 22.63 37.40 23.56 C 38.39 25.78 38.04 28.44 37.63 30.77 C 33.08 33.74 27.82 35.46 22.99 37.96 C 18.14 35.49 12.86 33.78 8.30 30.81 C 8.06 28.38 6.97 24.87 9.19 23.12 C 11.20 22.87 13.23 22.99 15.25 22.98 C 15.23 22.48 15.21 21.49 15.19 21.00 M 20.37 26.26 C 23.52 26.79 22.01 30.17 22.38 32.23 C 21.85 32.41 20.77 32.76 20.23 32.94 C 21.06 35.13 24.74 33.55 26.60 33.67 C 25.79 33.16 24.98 32.66 24.16 32.16 C 24.15 29.70 24.12 27.25 24.10 24.79 C 22.85 25.28 21.61 25.77 20.37 26.26 Z" />
</g>
</svg>
