<?xml version="1.0" encoding="UTF-8" ?>
<!DOCTYPE svg PUBLIC "-//W3C//DTD SVG 1.1//EN" "http://www.w3.org/Graphics/SVG/1.1/DTD/svg11.dtd">
<svg width="117px" height="140px" viewBox="0 0 117 140" version="1.1" xmlns="http://www.w3.org/2000/svg">
<g id="#f8a04aff">
<path fill="#f8a04a" opacity="1.00" d=" M 0.00 0.00 L 0.27 0.00 C 0.20 0.07 0.07 0.20 0.00 0.27 L 0.00 0.00 Z" />
<path fill="#f8a04a" opacity="1.00" d=" M 59.08 32.62 C 72.36 32.47 85.64 32.52 98.93 32.62 C 98.19 34.81 96.79 36.64 95.08 38.16 C 90.49 42.51 86.21 47.20 81.53 51.46 C 79.98 53.08 77.36 52.64 75.97 51.05 C 71.35 46.64 66.95 42.01 62.34 37.59 C 60.82 36.25 59.78 34.51 59.08 32.62 Z" />
</g>
<g id="#181818ff">
<path fill="#181818" opacity="1.00" d=" M 0.27 0.00 L 117.00 0.00 L 117.00 140.00 L 0.00 140.00 L 0.00 0.27 C 0.07 0.20 0.20 0.07 0.27 0.00 M 72.83 17.87 C 68.32 22.85 62.88 27.03 59.08 32.62 C 59.78 34.51 60.82 36.25 62.34 37.59 C 66.95 42.01 71.35 46.64 75.97 51.05 C 77.36 52.64 79.98 53.08 81.53 51.46 C 86.21 47.20 90.49 42.51 95.08 38.16 C 96.79 36.64 98.19 34.81 98.93 32.62 C 95.90 27.95 91.43 24.51 87.70 20.45 C 85.17 18.15 83.15 15.11 80.03 13.57 C 76.84 12.80 74.89 16.06 72.83 17.87 M 21.84 19.02 C 19.88 21.89 21.52 25.78 24.33 27.39 C 24.32 27.99 24.29 29.18 24.28 29.78 C 23.99 34.55 23.80 39.35 24.10 44.12 C 24.06 46.14 25.84 47.95 27.87 47.89 C 34.93 48.10 42.00 47.95 49.06 47.96 C 51.06 48.13 53.40 47.16 53.79 44.99 C 54.31 39.50 53.86 33.97 54.01 28.46 C 53.65 25.09 55.42 19.44 50.98 18.19 C 44.47 17.71 37.92 18.13 31.40 18.01 C 28.87 14.97 23.69 15.53 21.84 19.02 M 90.11 58.06 C 82.41 58.07 74.68 57.75 67.00 58.18 C 63.72 58.83 64.00 62.73 63.92 65.28 C 64.17 71.56 63.77 77.85 64.11 84.13 C 64.03 86.68 66.64 88.26 68.97 87.94 C 76.00 87.94 83.04 88.07 90.06 87.87 C 92.12 87.98 93.96 86.15 93.89 84.10 C 94.08 76.80 94.26 69.45 93.46 62.18 C 96.62 62.28 99.38 58.55 97.28 55.80 C 95.35 52.56 89.84 54.27 90.11 58.06 M 23.97 66.96 C 24.18 72.97 23.66 79.01 24.23 85.00 C 24.72 87.67 27.80 88.24 30.07 87.91 C 36.75 87.23 43.43 88.35 50.10 87.87 C 52.15 87.96 53.95 86.11 53.91 84.08 C 54.19 78.07 53.87 72.05 54.05 66.03 C 53.95 63.28 54.60 59.02 51.04 58.19 C 43.04 57.86 34.98 57.86 26.98 58.19 C 23.10 59.18 24.14 63.97 23.97 66.96 Z" />
<path fill="#181818" opacity="1.00" d=" M 33.16 21.97 C 38.78 21.99 44.39 22.00 50.01 21.99 C 50.00 24.10 50.00 26.21 50.00 28.32 C 49.99 33.55 50.00 38.78 50.00 44.01 C 42.67 44.02 35.34 44.02 28.01 44.01 C 28.04 39.64 28.04 35.27 27.78 30.91 C 27.74 30.21 27.66 28.81 27.63 28.10 C 30.50 27.23 32.67 24.97 33.16 21.97 Z" />
<path fill="#181818" opacity="1.00" d=" M 27.99 62.01 C 35.33 62.00 42.66 62.00 49.99 62.00 C 49.99 62.81 49.99 64.43 49.99 65.24 C 50.00 71.49 50.00 77.73 50.00 83.98 C 46.46 83.95 42.92 84.00 39.40 84.25 C 38.68 82.64 38.36 79.79 35.98 79.97 C 33.59 79.69 33.21 82.69 32.40 84.26 C 30.93 84.14 29.47 84.03 28.00 83.92 C 28.00 78.01 28.00 72.10 28.00 66.19 C 28.00 64.80 28.00 63.40 27.99 62.01 Z" />
<path fill="#181818" opacity="1.00" d=" M 68.01 62.01 C 75.20 62.07 82.40 61.88 89.59 62.03 L 90.14 62.21 C 89.98 69.47 89.98 76.74 90.00 84.00 C 82.66 84.00 75.33 84.00 68.00 84.00 C 68.00 77.76 68.00 71.52 68.01 65.28 C 68.01 64.46 68.01 62.83 68.01 62.01 Z" />
</g>
<g id="#f8be6eff">
<path fill="#f8be6e" opacity="1.00" d=" M 72.83 17.87 C 74.89 16.06 76.84 12.80 80.03 13.57 C 83.15 15.11 85.17 18.15 87.70 20.45 C 91.43 24.51 95.90 27.95 98.93 32.62 C 85.64 32.52 72.36 32.47 59.08 32.62 C 62.88 27.03 68.32 22.85 72.83 17.87 Z" />
<path fill="#f8be6e" opacity="1.00" d=" M 21.84 19.02 C 23.69 15.53 28.87 14.97 31.40 18.01 C 32.04 19.30 32.63 20.62 33.16 21.97 C 32.67 24.97 30.50 27.23 27.63 28.10 C 26.52 27.90 25.42 27.68 24.33 27.39 C 21.52 25.78 19.88 21.89 21.84 19.02 Z" />
</g>
<g id="#8e60f3ff">
<path fill="#8e60f3" opacity="1.00" d=" M 31.40 18.01 C 37.92 18.13 44.47 17.71 50.98 18.19 C 55.42 19.44 53.65 25.09 54.01 28.46 C 52.67 28.41 51.34 28.37 50.00 28.32 C 50.00 26.21 50.00 24.10 50.01 21.99 C 44.39 22.00 38.78 21.99 33.16 21.97 C 32.63 20.62 32.04 19.30 31.40 18.01 Z" />
<path fill="#8e60f3" opacity="1.00" d=" M 32.40 84.26 C 33.21 82.69 33.59 79.69 35.98 79.97 C 38.36 79.79 38.68 82.64 39.40 84.25 C 38.28 84.87 37.17 85.51 36.00 86.02 C 34.74 85.56 33.58 84.87 32.40 84.26 Z" />
</g>
<g id="#1e37c7ff">
<path fill="#1e37c7" opacity="1.00" d=" M 24.33 27.39 C 25.42 27.68 26.52 27.90 27.63 28.10 C 27.66 28.81 27.74 30.21 27.78 30.91 C 26.61 30.53 25.44 30.15 24.28 29.78 C 24.29 29.18 24.32 27.99 24.33 27.39 Z" />
<path fill="#1e37c7" opacity="1.00" d=" M 89.59 62.03 C 89.67 61.43 89.82 60.23 89.90 59.62 C 91.05 60.53 92.22 61.40 93.46 62.18 C 94.26 69.45 94.08 76.80 93.89 84.10 C 93.96 86.15 92.12 87.98 90.06 87.87 C 83.04 88.07 76.00 87.94 68.97 87.94 C 66.64 88.26 64.03 86.68 64.11 84.13 C 63.77 77.85 64.17 71.56 63.92 65.28 C 64.46 65.52 65.52 65.99 66.06 66.23 C 66.54 65.99 67.52 65.52 68.01 65.28 C 68.00 71.52 68.00 77.76 68.00 84.00 C 75.33 84.00 82.66 84.00 90.00 84.00 C 89.98 76.74 89.98 69.47 90.14 62.21 L 89.59 62.03 Z" />
<path fill="#1e37c7" opacity="1.00" d=" M 49.99 65.24 C 51.35 65.51 52.70 65.77 54.05 66.03 C 53.87 72.05 54.19 78.07 53.91 84.08 C 53.95 86.11 52.15 87.96 50.10 87.87 C 43.43 88.35 36.75 87.23 30.07 87.91 C 27.80 88.24 24.72 87.67 24.23 85.00 C 23.66 79.01 24.18 72.97 23.97 66.96 C 25.31 66.70 26.66 66.45 28.00 66.19 C 28.00 72.10 28.00 78.01 28.00 83.92 C 29.47 84.03 30.93 84.14 32.40 84.26 C 33.58 84.87 34.74 85.56 36.00 86.02 C 37.17 85.51 38.28 84.87 39.40 84.25 C 42.92 84.00 46.46 83.95 50.00 83.98 C 50.00 77.73 50.00 71.49 49.99 65.24 Z" />
</g>
<g id="#6752e3ff">
<path fill="#6752e3" opacity="1.00" d=" M 50.00 28.32 C 51.34 28.37 52.67 28.41 54.01 28.46 C 53.86 33.97 54.31 39.50 53.79 44.99 C 53.40 47.16 51.06 48.13 49.06 47.96 C 42.00 47.95 34.93 48.10 27.87 47.89 C 25.84 47.95 24.06 46.14 24.10 44.12 C 23.80 39.35 23.99 34.55 24.28 29.78 C 25.44 30.15 26.61 30.53 27.78 30.91 C 28.04 35.27 28.04 39.64 28.01 44.01 C 35.34 44.02 42.67 44.02 50.00 44.01 C 50.00 38.78 49.99 33.55 50.00 28.32 Z" />
</g>
<g id="#2eedcaff">
<path fill="#2eedca" opacity="1.00" d=" M 90.11 58.06 C 89.84 54.27 95.35 52.56 97.28 55.80 C 99.38 58.55 96.62 62.28 93.46 62.18 C 92.22 61.40 91.05 60.53 89.90 59.62 C 89.95 59.23 90.06 58.45 90.11 58.06 Z" />
</g>
<g id="#4245d6ff">
<path fill="#4245d6" opacity="1.00" d=" M 23.97 66.96 C 24.14 63.97 23.10 59.18 26.98 58.19 C 34.98 57.86 43.04 57.86 51.04 58.19 C 54.60 59.02 53.95 63.28 54.05 66.03 C 52.70 65.77 51.35 65.51 49.99 65.24 C 49.99 64.43 49.99 62.81 49.99 62.00 C 42.66 62.00 35.33 62.00 27.99 62.01 C 28.00 63.40 28.00 64.80 28.00 66.19 C 26.66 66.45 25.31 66.70 23.97 66.96 Z" />
<path fill="#4245d6" opacity="1.00" d=" M 63.92 65.28 C 64.00 62.73 63.72 58.83 67.00 58.18 C 74.68 57.75 82.41 58.07 90.11 58.06 C 90.06 58.45 89.95 59.23 89.90 59.62 C 89.82 60.23 89.67 61.43 89.59 62.03 C 82.40 61.88 75.20 62.07 68.01 62.01 C 68.01 62.83 68.01 64.46 68.01 65.28 C 67.52 65.52 66.54 65.99 66.06 66.23 C 65.52 65.99 64.46 65.52 63.92 65.28 Z" />
</g>
</svg>
