<?xml version="1.0" encoding="UTF-8" ?>
<!DOCTYPE svg PUBLIC "-//W3C//DTD SVG 1.1//EN" "http://www.w3.org/Graphics/SVG/1.1/DTD/svg11.dtd">
<svg width="117px" height="140px" viewBox="0 0 117 140" version="1.1" xmlns="http://www.w3.org/2000/svg">
<g id="#181818ff">
<path fill="#181818" opacity="1.00" d=" M 0.00 0.00 L 117.00 0.00 L 117.00 140.00 L 0.00 140.00 L 0.00 0.00 M 36.69 35.45 C 36.70 47.30 36.71 59.15 36.72 71.00 C 44.16 70.98 51.60 70.98 59.04 70.95 C 59.03 68.99 59.03 67.03 59.04 65.08 C 53.98 65.05 48.92 65.05 43.85 65.03 C 43.86 61.88 43.87 58.73 43.88 55.58 C 48.03 55.58 52.17 55.57 56.32 55.54 C 56.32 53.55 56.32 51.56 56.33 49.57 C 52.20 49.57 48.07 49.55 43.94 49.57 C 43.88 46.85 43.89 44.13 43.95 41.42 C 48.82 41.42 53.68 41.41 58.54 41.40 C 58.55 39.42 58.55 37.44 58.56 35.46 C 51.27 35.43 43.98 35.40 36.69 35.45 M 66.98 45.97 C 63.24 49.08 63.80 55.71 68.33 57.79 C 71.40 60.17 78.10 60.03 77.40 65.27 C 73.69 67.52 69.46 65.85 66.25 63.56 C 65.20 65.02 64.15 66.49 63.10 67.96 C 67.88 71.42 74.62 73.06 80.01 70.03 C 84.03 67.97 85.34 62.02 82.39 58.57 C 79.62 55.54 75.25 55.13 71.94 52.95 C 70.35 51.84 71.21 49.36 72.95 48.97 C 75.67 48.14 78.24 49.71 80.56 50.92 C 81.60 49.51 82.63 48.10 83.67 46.68 C 78.92 43.27 71.74 41.90 66.98 45.97 Z" />
</g>
<g id="#f8ab55ff">
<path fill="#f8ab55" opacity="1.00" d=" M 36.69 35.45 C 43.98 35.40 51.27 35.43 58.56 35.46 C 58.55 37.44 58.55 39.42 58.54 41.40 C 53.68 41.41 48.82 41.42 43.95 41.42 C 43.89 44.13 43.88 46.85 43.94 49.57 C 48.07 49.55 52.20 49.57 56.33 49.57 C 56.32 51.56 56.32 53.55 56.32 55.54 C 52.17 55.57 48.03 55.58 43.88 55.58 C 43.87 58.73 43.86 61.88 43.85 65.03 C 48.92 65.05 53.98 65.05 59.04 65.08 C 59.03 67.03 59.03 68.99 59.04 70.95 C 51.60 70.98 44.16 70.98 36.72 71.00 C 36.71 59.15 36.70 47.30 36.69 35.45 Z" />
<path fill="#f8ab55" opacity="1.00" d=" M 66.98 45.97 C 71.74 41.90 78.92 43.27 83.67 46.68 C 82.63 48.10 81.60 49.51 80.56 50.92 C 78.24 49.71 75.67 48.14 72.95 48.97 C 71.21 49.36 70.35 51.84 71.94 52.95 C 75.25 55.13 79.62 55.54 82.39 58.57 C 85.34 62.02 84.03 67.97 80.01 70.03 C 74.62 73.06 67.88 71.42 63.10 67.96 C 64.15 66.49 65.20 65.02 66.25 63.56 C 69.46 65.85 73.69 67.52 77.40 65.27 C 78.10 60.03 71.40 60.17 68.33 57.79 C 63.80 55.71 63.24 49.08 66.98 45.97 Z" />
</g>
</svg>
