<?xml version="1.0" encoding="UTF-8" ?>
<!DOCTYPE svg PUBLIC "-//W3C//DTD SVG 1.1//EN" "http://www.w3.org/Graphics/SVG/1.1/DTD/svg11.dtd">
<svg width="117px" height="140px" viewBox="0 0 117 140" version="1.1" xmlns="http://www.w3.org/2000/svg">
<g id="#181818ff">
<path fill="#181818" opacity="1.00" d=" M 0.00 0.00 L 117.00 0.00 L 117.00 140.00 L 0.00 140.00 L 0.00 0.00 M 50.33 19.29 C 44.94 22.14 41.34 27.99 41.08 34.08 C 40.85 39.35 43.16 44.30 45.04 49.11 C 47.02 53.87 49.43 58.45 51.78 63.03 C 45.84 63.00 39.89 62.92 33.95 63.08 C 34.13 60.46 30.54 58.76 28.84 60.88 C 27.23 62.22 27.99 64.59 29.47 65.70 C 28.67 66.63 28.19 67.68 28.03 68.85 C 27.12 71.36 26.25 73.89 25.46 76.44 C 24.42 79.47 23.31 82.49 22.51 85.59 L 22.18 85.76 C 21.76 87.47 20.87 89.17 21.13 90.97 C 21.70 92.50 23.43 92.98 24.91 92.94 C 40.28 92.93 55.65 92.99 71.02 92.91 C 73.55 93.19 73.54 88.82 71.00 89.04 C 55.83 88.94 40.65 89.03 25.47 89.00 C 25.70 88.22 26.18 86.66 26.41 85.88 C 27.25 83.35 28.24 80.87 28.99 78.31 C 29.85 75.87 30.70 73.43 31.47 70.96 C 32.03 69.69 32.29 68.30 33.02 67.10 C 33.72 67.06 35.12 66.99 35.82 66.96 C 41.85 66.97 47.88 67.05 53.90 66.93 C 55.54 69.97 57.30 72.95 59.00 75.96 C 60.69 72.95 62.44 69.98 64.08 66.95 C 71.03 67.09 77.99 66.84 84.94 67.09 C 86.34 69.82 86.97 72.87 88.22 75.67 C 84.67 77.50 83.89 82.65 86.92 85.33 C 88.44 86.64 90.42 87.29 92.42 86.88 C 92.45 87.44 92.52 88.55 92.55 89.11 C 90.21 89.28 87.87 88.82 85.54 89.10 C 83.44 88.99 81.30 88.85 79.20 89.13 C 77.28 89.85 77.84 93.12 79.93 92.95 C 85.16 92.82 90.52 93.38 95.66 92.45 L 96.60 91.34 L 97.02 91.66 C 97.37 89.31 96.25 87.19 95.38 85.10 C 97.43 82.80 97.53 79.15 95.35 76.89 C 94.32 76.09 93.24 75.33 91.98 74.97 C 91.24 72.32 90.34 69.72 89.43 67.12 C 88.65 64.91 86.61 62.89 84.14 63.00 C 78.17 63.01 72.19 62.97 66.21 63.02 C 67.12 61.32 68.03 59.63 68.79 57.86 C 71.47 52.69 73.90 47.35 75.70 41.79 C 76.87 38.10 77.57 34.02 76.28 30.26 C 75.04 25.62 71.84 21.48 67.56 19.25 C 62.33 16.30 55.54 16.30 50.33 19.29 M 83.29 21.35 C 81.08 22.23 80.12 25.42 81.78 27.24 C 83.60 30.19 88.83 28.67 88.74 25.22 C 89.34 22.37 85.73 19.91 83.29 21.35 Z" />
<path fill="#181818" opacity="1.00" d=" M 55.30 29.19 C 60.01 25.58 67.11 30.67 65.96 36.28 C 64.93 40.22 60.71 43.03 56.69 41.68 C 51.45 39.83 50.29 32.00 55.30 29.19 Z" />
</g>
<g id="#f8d070ff">
<path fill="#f8d070" opacity="1.00" d=" M 50.33 19.29 C 55.54 16.30 62.33 16.30 67.56 19.25 C 65.63 21.15 63.51 22.87 61.08 24.11 C 54.70 27.43 49.00 31.87 42.87 35.60 C 42.25 35.12 41.65 34.61 41.08 34.08 C 41.34 27.99 44.94 22.14 50.33 19.29 Z" />
</g>
<g id="#f8c068ff">
<path fill="#f8c068" opacity="1.00" d=" M 67.56 19.25 C 71.84 21.48 75.04 25.62 76.28 30.26 C 72.82 32.23 69.33 34.16 65.96 36.28 C 67.11 30.67 60.01 25.58 55.30 29.19 C 50.29 32.00 51.45 39.83 56.69 41.68 C 52.98 44.41 49.16 47.01 45.04 49.11 C 43.16 44.30 40.85 39.35 41.08 34.08 C 41.65 34.61 42.25 35.12 42.87 35.60 C 49.00 31.87 54.70 27.43 61.08 24.11 C 63.51 22.87 65.63 21.15 67.56 19.25 Z" />
</g>
<g id="#40b8c8ff">
<path fill="#40b8c8" opacity="1.00" d=" M 83.29 21.35 C 85.73 19.91 89.34 22.37 88.74 25.22 C 88.83 28.67 83.60 30.19 81.78 27.24 C 80.12 25.42 81.08 22.23 83.29 21.35 Z" />
</g>
<g id="#f8a050ff">
<path fill="#f8a050" opacity="1.00" d=" M 76.28 30.26 C 77.57 34.02 76.87 38.10 75.70 41.79 C 73.90 47.35 71.47 52.69 68.79 57.86 C 63.24 59.69 58.74 63.63 53.39 65.95 C 52.85 64.98 52.31 64.00 51.78 63.03 C 49.43 58.45 47.02 53.87 45.04 49.11 C 49.16 47.01 52.98 44.41 56.69 41.68 C 60.71 43.03 64.93 40.22 65.96 36.28 C 69.33 34.16 72.82 32.23 76.28 30.26 Z" />
</g>
<g id="#f89040ff">
<path fill="#f89040" opacity="1.00" d=" M 53.39 65.95 C 58.74 63.63 63.24 59.69 68.79 57.86 C 68.03 59.63 67.12 61.32 66.21 63.02 C 65.48 64.32 64.78 65.63 64.08 66.95 C 62.44 69.98 60.69 72.95 59.00 75.96 C 57.30 72.95 55.54 69.97 53.90 66.93 L 53.39 65.95 Z" />
</g>
<g id="#98e010ff">
<path fill="#98e010" opacity="1.00" d=" M 28.84 60.88 C 30.54 58.76 34.13 60.46 33.95 63.08 C 33.89 63.44 33.75 64.16 33.68 64.52 C 33.24 64.86 32.35 65.53 31.91 65.86 C 31.30 65.82 30.08 65.74 29.47 65.70 C 27.99 64.59 27.23 62.22 28.84 60.88 Z" />
</g>
<g id="#9060f0ff">
<path fill="#9060f0" opacity="1.00" d=" M 33.95 63.08 C 39.89 62.92 45.84 63.00 51.78 63.03 C 52.31 64.00 52.85 64.98 53.39 65.95 L 53.90 66.93 C 47.88 67.05 41.85 66.97 35.82 66.96 C 35.09 66.17 34.38 65.35 33.68 64.52 C 33.75 64.16 33.89 63.44 33.95 63.08 Z" />
<path fill="#9060f0" opacity="1.00" d=" M 66.21 63.02 C 72.19 62.97 78.17 63.01 84.14 63.00 C 86.61 62.89 88.65 64.91 89.43 67.12 C 87.93 67.13 86.44 67.12 84.94 67.09 C 77.99 66.84 71.03 67.09 64.08 66.95 C 64.78 65.63 65.48 64.32 66.21 63.02 Z" />
</g>
<g id="#5f43aaff">
<path fill="#5f43aa" opacity="1.00" d=" M 31.91 65.86 C 32.35 65.53 33.24 64.86 33.68 64.52 C 34.38 65.35 35.09 66.17 35.82 66.96 C 35.12 66.99 33.72 67.06 33.02 67.10 C 32.29 68.30 32.03 69.69 31.47 70.96 C 30.32 70.25 29.17 69.55 28.03 68.85 C 28.19 67.68 28.67 66.63 29.47 65.70 C 30.08 65.74 31.30 65.82 31.91 65.86 Z" />
</g>
<g id="#7058e8ff">
<path fill="#7058e8" opacity="1.00" d=" M 84.94 67.09 C 86.44 67.12 87.93 67.13 89.43 67.12 C 90.34 69.72 91.24 72.32 91.98 74.97 C 90.68 74.96 89.42 75.19 88.22 75.67 C 86.97 72.87 86.34 69.82 84.94 67.09 Z" />
</g>
<g id="#6850e0ff">
<path fill="#6850e0" opacity="1.00" d=" M 28.03 68.85 C 29.17 69.55 30.32 70.25 31.47 70.96 C 30.70 73.43 29.85 75.87 28.99 78.31 C 27.81 77.69 26.63 77.07 25.46 76.44 C 26.25 73.89 27.12 71.36 28.03 68.85 Z" />
</g>
<g id="#f8a898ff">
<path fill="#f8a898" opacity="1.00" d=" M 88.22 75.67 C 89.42 75.19 90.68 74.96 91.98 74.97 C 93.24 75.33 94.32 76.09 95.35 76.89 C 92.63 79.79 89.79 82.58 86.92 85.33 C 83.89 82.65 84.67 77.50 88.22 75.67 Z" />
</g>
<g id="#4848d8ff">
<path fill="#4848d8" opacity="1.00" d=" M 22.51 85.59 C 23.31 82.49 24.42 79.47 25.46 76.44 C 26.63 77.07 27.81 77.69 28.99 78.31 C 28.24 80.87 27.25 83.35 26.41 85.88 C 25.44 85.80 23.48 85.66 22.51 85.59 Z" />
</g>
<g id="#f88888ff">
<path fill="#f88888" opacity="1.00" d=" M 95.35 76.89 C 97.53 79.15 97.43 82.80 95.38 85.10 C 94.46 85.80 93.47 86.40 92.42 86.88 C 90.42 87.29 88.44 86.64 86.92 85.33 C 89.79 82.58 92.63 79.79 95.35 76.89 Z" />
</g>
<g id="#182890ff">
<path fill="#182890" opacity="1.00" d=" M 92.42 86.88 C 93.47 86.40 94.46 85.80 95.38 85.10 C 96.25 87.19 97.37 89.31 97.02 91.66 L 96.60 91.34 C 96.36 91.16 95.88 90.81 95.64 90.63 C 94.08 91.05 92.59 91.73 91.02 92.11 C 88.72 92.38 87.17 90.35 85.54 89.10 C 87.87 88.82 90.21 89.28 92.55 89.11 C 92.52 88.55 92.45 87.44 92.42 86.88 Z" />
</g>
<g id="#2038c8ff">
<path fill="#2038c8" opacity="1.00" d=" M 22.18 85.76 L 22.51 85.59 C 23.48 85.66 25.44 85.80 26.41 85.88 C 26.18 86.66 25.70 88.22 25.47 89.00 C 40.65 89.03 55.83 88.94 71.00 89.04 C 73.54 88.82 73.55 93.19 71.02 92.91 C 55.65 92.99 40.28 92.93 24.91 92.94 C 23.43 92.98 21.70 92.50 21.13 90.97 C 20.87 89.17 21.76 87.47 22.18 85.76 Z" />
</g>
<g id="#1838c0ff">
<path fill="#1838c0" opacity="1.00" d=" M 79.20 89.13 C 81.30 88.85 83.44 88.99 85.54 89.10 C 87.17 90.35 88.72 92.38 91.02 92.11 C 92.59 91.73 94.08 91.05 95.64 90.63 C 95.88 90.81 96.36 91.16 96.60 91.34 L 95.66 92.45 C 90.52 93.38 85.16 92.82 79.93 92.95 C 77.84 93.12 77.28 89.85 79.20 89.13 Z" />
</g>
</svg>
