<?xml version="1.0" encoding="UTF-8" ?>
<!DOCTYPE svg PUBLIC "-//W3C//DTD SVG 1.1//EN" "http://www.w3.org/Graphics/SVG/1.1/DTD/svg11.dtd">
<svg width="117px" height="140px" viewBox="0 0 117 140" version="1.1" xmlns="http://www.w3.org/2000/svg">
<g id="#181818ff">
<path fill="#181818" opacity="1.00" d=" M 0.00 0.00 L 117.00 0.00 L 117.00 140.00 L 0.00 140.00 L 0.00 0.00 M 58.00 6.00 C 57.99 10.94 58.02 15.88 58.02 20.83 C 57.98 31.12 58.00 41.41 58.11 51.70 C 57.85 59.44 58.08 67.19 58.02 74.93 C 58.03 78.75 57.69 82.70 58.97 86.37 C 60.32 91.06 66.01 90.70 69.88 90.26 C 69.94 90.62 70.07 91.35 70.13 91.71 C 67.20 93.78 63.46 93.68 60.06 94.13 C 60.09 94.57 60.15 95.46 60.17 95.91 C 64.22 96.12 68.95 95.77 71.99 92.76 C 73.24 90.66 71.55 87.74 69.05 88.13 C 65.78 88.57 61.54 88.65 60.39 84.80 C 59.53 75.02 60.39 65.18 60.02 55.39 C 60.14 44.76 59.98 34.13 60.04 23.50 C 60.03 17.66 59.99 11.83 60.00 6.00 C 59.50 6.00 58.50 6.00 58.00 6.00 M 41.24 12.29 C 36.96 14.45 38.23 19.88 38.04 23.77 C 37.77 27.41 37.68 32.73 42.03 33.97 C 47.04 33.50 51.93 32.15 56.91 31.45 C 56.98 30.08 57.01 28.70 57.00 27.33 C 52.08 28.13 47.22 29.36 42.26 29.87 C 42.00 27.87 41.96 25.85 41.96 23.84 C 41.90 21.27 41.89 18.69 42.28 16.14 C 47.18 15.81 52.09 16.06 56.99 16.00 C 57.00 14.67 57.00 13.34 57.00 12.01 C 51.76 12.18 46.42 11.62 41.24 12.29 M 61.00 12.01 C 61.00 13.34 61.00 14.67 61.00 16.00 C 65.91 16.08 70.82 15.80 75.72 16.14 C 75.89 17.74 76.00 19.34 76.22 20.93 C 77.06 22.63 80.14 22.05 79.94 20.03 C 80.33 17.01 79.45 12.90 76.03 12.08 C 71.02 11.89 66.01 12.05 61.00 12.01 M 80.92 29.69 C 82.53 31.15 85.17 31.46 86.72 29.73 C 88.48 28.21 88.13 25.57 86.74 23.93 C 82.98 20.85 77.85 25.91 80.92 29.69 M 61.05 26.56 C 61.00 27.93 60.96 29.29 60.95 30.65 C 65.82 29.83 70.65 28.82 75.53 28.04 C 76.06 29.37 75.90 32.02 77.96 31.90 C 79.43 32.03 80.05 30.49 79.76 29.27 C 79.75 26.97 78.29 24.57 75.96 24.01 C 70.95 24.53 66.04 25.81 61.05 26.56 M 60.91 35.70 C 60.95 37.02 60.98 38.33 61.01 39.64 C 65.86 38.84 70.68 37.78 75.55 37.06 C 76.05 38.27 75.77 40.21 77.23 40.79 C 78.39 41.51 80.24 40.26 79.92 38.92 C 80.11 35.86 77.45 32.08 74.06 33.18 C 69.68 34.01 65.26 34.69 60.91 35.70 M 39.27 35.12 C 36.20 37.30 39.39 43.49 43.03 42.91 C 47.71 42.14 52.41 41.32 57.04 40.30 C 57.03 39.30 57.00 37.31 56.99 36.32 C 52.15 37.20 47.32 38.18 42.46 38.95 C 42.19 37.29 41.66 34.21 39.27 35.12 M 22.26 52.02 C 23.42 54.51 26.49 56.81 29.27 55.57 C 31.21 56.48 29.60 59.00 30.05 60.61 C 30.47 64.18 28.46 69.38 32.29 71.58 C 36.34 72.55 40.63 71.65 44.78 72.08 C 45.79 73.14 46.82 74.18 47.85 75.22 C 50.87 78.32 53.98 81.33 57.01 84.42 C 57.00 82.57 57.01 80.72 57.02 78.86 C 55.59 77.24 54.08 75.70 52.51 74.21 C 50.28 72.24 48.47 69.74 46.03 68.04 C 42.03 67.90 38.01 68.07 34.01 67.98 C 34.03 64.30 33.93 60.62 34.04 56.95 C 34.03 55.25 34.00 53.56 33.94 51.86 C 33.92 50.54 33.92 49.23 33.94 47.91 C 41.62 48.11 49.31 47.95 56.99 48.00 C 57.00 46.66 57.00 45.33 57.00 44.00 C 49.66 44.00 42.32 44.00 34.97 44.00 C 33.66 43.86 32.50 44.21 31.48 45.02 C 30.92 44.72 30.36 44.43 29.79 44.15 C 25.26 42.83 20.67 47.52 22.26 52.02 M 60.99 44.00 C 60.98 45.33 60.98 46.66 60.99 47.99 C 68.66 48.03 76.32 47.97 83.99 48.01 C 84.01 50.04 84.02 52.07 84.03 54.09 C 83.96 58.65 83.98 63.21 84.11 67.77 C 80.11 68.36 76.01 67.76 71.98 68.04 C 68.50 70.77 65.65 74.31 62.39 77.34 C 60.09 78.99 61.39 82.08 61.02 84.43 C 65.00 80.20 69.21 76.21 73.28 72.08 C 77.17 71.81 81.09 72.24 84.97 71.84 C 87.28 71.35 88.31 68.79 87.98 66.63 C 87.95 62.39 88.06 58.14 87.97 53.89 C 87.78 50.59 89.24 45.28 84.92 44.12 C 76.95 43.84 68.96 44.08 60.99 44.00 M 75.36 76.45 C 72.31 78.08 74.78 83.03 77.95 81.62 C 81.88 80.49 78.81 73.85 75.36 76.45 Z" />
</g>
<g id="#f8dd7cff">
<path fill="#f8dd7c" opacity="1.00" d=" M 58.00 6.00 C 58.50 6.00 59.50 6.00 60.00 6.00 C 59.99 11.83 60.03 17.66 60.04 23.50 C 59.36 22.61 58.69 21.72 58.02 20.83 C 58.02 15.88 57.99 10.94 58.00 6.00 Z" />
</g>
<g id="#9864f8ff">
<path fill="#9864f8" opacity="1.00" d=" M 41.24 12.29 C 46.42 11.62 51.76 12.18 57.00 12.01 C 57.00 13.34 57.00 14.67 56.99 16.00 C 52.09 16.06 47.18 15.81 42.28 16.14 C 41.89 18.69 41.90 21.27 41.96 23.84 C 40.65 23.81 39.34 23.79 38.04 23.77 C 38.23 19.88 36.96 14.45 41.24 12.29 Z" />
<path fill="#9864f8" opacity="1.00" d=" M 61.00 12.01 C 66.01 12.05 71.02 11.89 76.03 12.08 C 79.45 12.90 80.33 17.01 79.94 20.03 C 80.14 22.05 77.06 22.63 76.22 20.93 C 76.00 19.34 75.89 17.74 75.72 16.14 C 70.82 15.80 65.91 16.08 61.00 16.00 C 61.00 14.67 61.00 13.34 61.00 12.01 Z" />
</g>
<g id="#f6bc64ff">
<path fill="#f6bc64" opacity="1.00" d=" M 58.02 20.83 C 58.69 21.72 59.36 22.61 60.04 23.50 C 59.98 34.13 60.14 44.76 60.02 55.39 C 59.40 54.15 58.73 52.93 58.11 51.70 C 58.00 41.41 57.98 31.12 58.02 20.83 Z" />
</g>
<g id="#e0c0b8ff">
<path fill="#e0c0b8" opacity="1.00" d=" M 80.92 29.69 C 77.85 25.91 82.98 20.85 86.74 23.93 C 85.08 26.12 83.12 28.04 80.92 29.69 Z" />
</g>
<g id="#7858f0ff">
<path fill="#7858f0" opacity="1.00" d=" M 38.04 23.77 C 39.34 23.79 40.65 23.81 41.96 23.84 C 41.96 25.85 42.00 27.87 42.26 29.87 C 47.22 29.36 52.08 28.13 57.00 27.33 C 57.01 28.70 56.98 30.08 56.91 31.45 C 51.93 32.15 47.04 33.50 42.03 33.97 C 37.68 32.73 37.77 27.41 38.04 23.77 Z" />
</g>
<g id="#805cf0ff">
<path fill="#805cf0" opacity="1.00" d=" M 61.05 26.56 C 66.04 25.81 70.95 24.53 75.96 24.01 C 78.29 24.57 79.75 26.97 79.76 29.27 C 80.05 30.49 79.43 32.03 77.96 31.90 C 75.90 32.02 76.06 29.37 75.53 28.04 C 70.65 28.82 65.82 29.83 60.95 30.65 C 60.96 29.29 61.00 27.93 61.05 26.56 Z" />
</g>
<g id="#b884b0ff">
<path fill="#b884b0" opacity="1.00" d=" M 86.74 23.93 C 88.13 25.57 88.48 28.21 86.72 29.73 C 85.17 31.46 82.53 31.15 80.92 29.69 C 83.12 28.04 85.08 26.12 86.74 23.93 Z" />
</g>
<g id="#7054e8ff">
<path fill="#7054e8" opacity="1.00" d=" M 60.91 35.70 C 65.26 34.69 69.68 34.01 74.06 33.18 C 77.45 32.08 80.11 35.86 79.92 38.92 C 80.24 40.26 78.39 41.51 77.23 40.79 C 75.77 40.21 76.05 38.27 75.55 37.06 C 70.68 37.78 65.86 38.84 61.01 39.64 C 60.98 38.33 60.95 37.02 60.91 35.70 Z" />
</g>
<g id="#6850e8ff">
<path fill="#6850e8" opacity="1.00" d=" M 39.27 35.12 C 41.66 34.21 42.19 37.29 42.46 38.95 C 47.32 38.18 52.15 37.20 56.99 36.32 C 57.00 37.31 57.03 39.30 57.04 40.30 C 52.41 41.32 47.71 42.14 43.03 42.91 C 39.39 43.49 36.20 37.30 39.27 35.12 Z" />
</g>
<g id="#d058d0ff">
<path fill="#d058d0" opacity="1.00" d=" M 22.26 52.02 C 20.67 47.52 25.26 42.83 29.79 44.15 C 27.88 47.27 25.69 50.43 22.26 52.02 Z" />
</g>
<g id="#8838c8ff">
<path fill="#8838c8" opacity="1.00" d=" M 29.79 44.15 C 30.36 44.43 30.92 44.72 31.48 45.02 C 32.34 45.95 33.15 46.93 33.94 47.91 C 33.92 49.23 33.92 50.54 33.94 51.86 C 32.47 53.21 30.97 54.53 29.27 55.57 C 26.49 56.81 23.42 54.51 22.26 52.02 C 25.69 50.43 27.88 47.27 29.79 44.15 Z" />
</g>
<g id="#584ce0ff">
<path fill="#584ce0" opacity="1.00" d=" M 31.48 45.02 C 32.50 44.21 33.66 43.86 34.97 44.00 C 42.32 44.00 49.66 44.00 57.00 44.00 C 57.00 45.33 57.00 46.66 56.99 48.00 C 49.31 47.95 41.62 48.11 33.94 47.91 C 33.15 46.93 32.34 45.95 31.48 45.02 Z" />
<path fill="#584ce0" opacity="1.00" d=" M 60.99 44.00 C 68.96 44.08 76.95 43.84 84.92 44.12 C 89.24 45.28 87.78 50.59 87.97 53.89 C 86.65 53.96 85.34 54.03 84.03 54.09 C 84.02 52.07 84.01 50.04 83.99 48.01 C 76.32 47.97 68.66 48.03 60.99 47.99 C 60.98 46.66 60.98 45.33 60.99 44.00 Z" />
</g>
<g id="#35309aff">
<path fill="#35309a" opacity="1.00" d=" M 29.27 55.57 C 30.97 54.53 32.47 53.21 33.94 51.86 C 34.00 53.56 34.03 55.25 34.04 56.95 C 32.81 58.28 31.48 59.51 30.05 60.61 C 29.60 59.00 31.21 56.48 29.27 55.57 Z" />
</g>
<g id="#f29445ff">
<path fill="#f29445" opacity="1.00" d=" M 58.11 51.70 C 58.73 52.93 59.40 54.15 60.02 55.39 C 60.39 65.18 59.53 75.02 60.39 84.80 C 60.04 85.19 59.33 85.98 58.97 86.37 C 57.69 82.70 58.03 78.75 58.02 74.93 C 58.08 67.19 57.85 59.44 58.11 51.70 Z" />
</g>
<g id="#4044d8ff">
<path fill="#4044d8" opacity="1.00" d=" M 84.03 54.09 C 85.34 54.03 86.65 53.96 87.97 53.89 C 88.06 58.14 87.95 62.39 87.98 66.63 C 86.69 67.02 85.40 67.40 84.11 67.77 C 83.98 63.21 83.96 58.65 84.03 54.09 Z" />
</g>
<g id="#303cd0ff">
<path fill="#303cd0" opacity="1.00" d=" M 30.05 60.61 C 31.48 59.51 32.81 58.28 34.04 56.95 C 33.93 60.62 34.03 64.30 34.01 67.98 C 38.01 68.07 42.03 67.90 46.03 68.04 C 48.47 69.74 50.28 72.24 52.51 74.21 C 50.95 74.55 49.40 74.89 47.85 75.22 C 46.82 74.18 45.79 73.14 44.78 72.08 C 40.63 71.65 36.34 72.55 32.29 71.58 C 28.46 69.38 30.47 64.18 30.05 60.61 Z" />
<path fill="#303cd0" opacity="1.00" d=" M 84.11 67.77 C 85.40 67.40 86.69 67.02 87.98 66.63 C 88.31 68.79 87.28 71.35 84.97 71.84 C 81.09 72.24 77.17 71.81 73.28 72.08 C 69.21 76.21 65.00 80.20 61.02 84.43 C 61.39 82.08 60.09 78.99 62.39 77.34 C 65.65 74.31 68.50 70.77 71.98 68.04 C 76.01 67.76 80.11 68.36 84.11 67.77 Z" />
</g>
<g id="#2038c8ff">
<path fill="#2038c8" opacity="1.00" d=" M 52.51 74.21 C 54.08 75.70 55.59 77.24 57.02 78.86 C 57.01 80.72 57.00 82.57 57.01 84.42 C 53.98 81.33 50.87 78.32 47.85 75.22 C 49.40 74.89 50.95 74.55 52.51 74.21 Z" />
</g>
<g id="#48c0d0ff">
<path fill="#48c0d0" opacity="1.00" d=" M 75.36 76.45 C 78.81 73.85 81.88 80.49 77.95 81.62 C 74.78 83.03 72.31 78.08 75.36 76.45 Z" />
</g>
<g id="#d96d2dff">
<path fill="#d96d2d" opacity="1.00" d=" M 60.39 84.80 C 61.54 88.65 65.78 88.57 69.05 88.13 C 71.55 87.74 73.24 90.66 71.99 92.76 C 68.95 95.77 64.22 96.12 60.17 95.91 C 60.15 95.46 60.09 94.57 60.06 94.13 C 63.46 93.68 67.20 93.78 70.13 91.71 C 70.07 91.35 69.94 90.62 69.88 90.26 C 66.01 90.70 60.32 91.06 58.97 86.37 C 59.33 85.98 60.04 85.19 60.39 84.80 Z" />
</g>
</svg>
