<?xml version="1.0" encoding="UTF-8" ?>
<!DOCTYPE svg PUBLIC "-//W3C//DTD SVG 1.1//EN" "http://www.w3.org/Graphics/SVG/1.1/DTD/svg11.dtd">
<svg width="117px" height="140px" viewBox="0 0 117 140" version="1.1" xmlns="http://www.w3.org/2000/svg">
<g id="#181818ff">
<path fill="#181818" opacity="1.00" d=" M 0.00 0.00 L 117.00 0.00 L 117.00 140.00 L 0.00 140.00 L 0.00 0.00 M 48.89 8.86 C 45.09 13.29 46.22 19.43 46.02 24.79 C 45.96 30.25 46.03 35.72 46.00 41.18 C 45.96 46.51 46.17 51.84 45.78 57.16 L 45.06 56.97 C 40.86 60.68 37.58 65.76 37.28 71.48 L 36.92 71.15 C 36.89 75.90 37.63 80.66 39.82 84.92 C 43.86 91.48 51.16 96.08 58.98 95.91 C 66.81 96.10 74.14 91.51 78.17 84.93 C 80.45 80.58 81.08 75.71 81.11 70.86 L 80.69 71.31 C 80.39 65.63 77.06 60.64 72.92 56.95 L 72.21 57.14 C 71.85 52.00 72.04 46.85 71.99 41.70 C 71.97 34.38 71.97 27.07 72.05 19.75 C 72.11 15.49 71.46 10.83 68.15 7.80 C 63.03 2.39 53.38 2.93 48.89 8.86 M 30.80 24.73 C 28.38 26.81 28.90 30.16 30.01 32.77 C 32.55 34.97 36.64 35.96 39.12 33.10 C 41.97 30.61 40.97 26.49 38.76 23.95 C 36.16 22.93 32.88 22.38 30.80 24.73 M 83.37 48.32 C 80.85 49.34 80.10 53.01 82.24 54.79 C 84.48 57.22 89.08 55.27 88.87 51.96 C 89.08 49.22 85.80 47.05 83.37 48.32 M 33.89 86.87 C 32.12 88.10 33.46 90.19 33.89 91.77 C 37.21 93.03 40.04 90.17 38.77 86.87 C 37.20 86.47 35.13 85.12 33.89 86.87 Z" />
<path fill="#181818" opacity="1.00" d=" M 50.96 12.99 C 53.32 7.90 60.66 6.37 64.81 10.17 C 67.73 12.40 68.13 16.28 68.05 19.69 C 67.93 27.03 68.06 34.38 68.01 41.72 C 67.99 47.23 67.98 52.74 68.07 58.25 C 73.47 62.03 77.18 68.00 77.22 74.71 C 76.64 77.65 75.80 80.55 74.53 83.27 C 71.09 88.38 65.32 92.11 59.01 91.93 C 52.72 92.12 46.95 88.40 43.50 83.31 C 42.22 80.55 41.33 77.62 40.81 74.63 C 40.82 67.94 44.58 62.01 49.94 58.25 C 50.03 52.62 50.00 46.99 50.00 41.36 C 49.97 35.86 50.05 30.35 49.97 24.85 C 50.06 20.91 49.38 16.72 50.96 12.99 M 55.07 36.18 C 52.76 37.45 54.59 40.77 56.95 40.01 C 59.30 39.73 63.31 41.15 64.11 38.00 C 62.86 34.43 57.94 36.37 55.07 36.18 M 54.17 46.01 C 53.81 49.12 54.03 52.26 54.01 55.38 C 54.00 57.16 53.99 58.95 53.98 60.73 C 49.66 62.83 46.12 66.57 45.23 71.41 L 45.00 71.50 C 44.45 77.15 46.82 83.12 51.86 86.04 C 57.40 89.31 65.04 88.28 69.31 83.42 C 71.79 80.91 72.63 77.40 73.22 74.05 C 72.67 69.73 71.03 65.30 67.32 62.73 C 66.34 62.34 65.18 60.60 64.10 61.44 C 63.96 57.62 63.96 53.79 64.07 49.97 C 63.90 47.59 64.25 44.58 61.99 43.03 C 59.30 40.78 54.65 42.53 54.17 46.01 Z" />
</g>
<g id="#9060f8ff">
<path fill="#9060f8" opacity="1.00" d=" M 48.89 8.86 C 53.38 2.93 63.03 2.39 68.15 7.80 C 71.46 10.83 72.11 15.49 72.05 19.75 C 70.72 19.73 69.38 19.71 68.05 19.69 C 68.13 16.28 67.73 12.40 64.81 10.17 C 60.66 6.37 53.32 7.90 50.96 12.99 C 49.38 16.72 50.06 20.91 49.97 24.85 C 48.65 24.83 47.33 24.81 46.02 24.79 C 46.22 19.43 45.09 13.29 48.89 8.86 Z" />
</g>
<g id="#7858e8ff">
<path fill="#7858e8" opacity="1.00" d=" M 68.05 19.69 C 69.38 19.71 70.72 19.73 72.05 19.75 C 71.97 27.07 71.97 34.38 71.99 41.70 C 70.66 41.70 69.34 41.71 68.01 41.72 C 68.06 34.38 67.93 27.03 68.05 19.69 Z" />
</g>
<g id="#50ccd8ff">
<path fill="#50ccd8" opacity="1.00" d=" M 30.80 24.73 C 32.88 22.38 36.16 22.93 38.76 23.95 C 36.38 27.38 33.41 30.35 30.01 32.77 C 28.90 30.16 28.38 26.81 30.80 24.73 Z" />
</g>
<g id="#38a0c0ff">
<path fill="#38a0c0" opacity="1.00" d=" M 38.76 23.95 C 40.97 26.49 41.97 30.61 39.12 33.10 C 36.64 35.96 32.55 34.97 30.01 32.77 C 33.41 30.35 36.38 27.38 38.76 23.95 Z" />
</g>
<g id="#7054e8ff">
<path fill="#7054e8" opacity="1.00" d=" M 46.02 24.79 C 47.33 24.81 48.65 24.83 49.97 24.85 C 50.05 30.35 49.97 35.86 50.00 41.36 C 48.66 41.30 47.33 41.24 46.00 41.18 C 46.03 35.72 45.96 30.25 46.02 24.79 Z" />
</g>
<g id="#f8d878ff">
<path fill="#f8d878" opacity="1.00" d=" M 55.07 36.18 C 57.94 36.37 62.86 34.43 64.11 38.00 C 63.31 41.15 59.30 39.73 56.95 40.01 C 54.59 40.77 52.76 37.45 55.07 36.18 Z" />
</g>
<g id="#584ce0ff">
<path fill="#584ce0" opacity="1.00" d=" M 46.00 41.18 C 47.33 41.24 48.66 41.30 50.00 41.36 C 50.00 46.99 50.03 52.62 49.94 58.25 C 48.55 57.89 47.16 57.53 45.78 57.16 C 46.17 51.84 45.96 46.51 46.00 41.18 Z" />
<path fill="#584ce0" opacity="1.00" d=" M 68.01 41.72 C 69.34 41.71 70.66 41.70 71.99 41.70 C 72.04 46.85 71.85 52.00 72.21 57.14 C 70.83 57.52 69.45 57.89 68.07 58.25 C 67.98 52.74 67.99 47.23 68.01 41.72 Z" />
</g>
<g id="#f8c868ff">
<path fill="#f8c868" opacity="1.00" d=" M 54.17 46.01 C 54.65 42.53 59.30 40.78 61.99 43.03 C 64.25 44.58 63.90 47.59 64.07 49.97 C 60.71 51.76 57.35 53.57 54.01 55.38 C 54.03 52.26 53.81 49.12 54.17 46.01 Z" />
</g>
<g id="#f08038ff">
<path fill="#f08038" opacity="1.00" d=" M 83.37 48.32 C 85.80 47.05 89.08 49.22 88.87 51.96 C 89.08 55.27 84.48 57.22 82.24 54.79 C 80.10 53.01 80.85 49.34 83.37 48.32 Z" />
</g>
<g id="#f8b458ff">
<path fill="#f8b458" opacity="1.00" d=" M 54.01 55.38 C 57.35 53.57 60.71 51.76 64.07 49.97 C 63.96 53.79 63.96 57.62 64.10 61.44 C 58.32 65.63 51.96 69.03 45.23 71.41 C 46.12 66.57 49.66 62.83 53.98 60.73 C 53.99 58.95 54.00 57.16 54.01 55.38 Z" />
</g>
<g id="#4044d8ff">
<path fill="#4044d8" opacity="1.00" d=" M 45.06 56.97 L 45.78 57.16 C 47.16 57.53 48.55 57.89 49.94 58.25 C 44.58 62.01 40.82 67.94 40.81 74.63 C 39.62 73.60 38.42 72.57 37.28 71.48 C 37.58 65.76 40.86 60.68 45.06 56.97 Z" />
<path fill="#4044d8" opacity="1.00" d=" M 72.21 57.14 L 72.92 56.95 C 77.06 60.64 80.39 65.63 80.69 71.31 C 79.60 72.52 78.42 73.62 77.22 74.71 C 77.18 68.00 73.47 62.03 68.07 58.25 C 69.45 57.89 70.83 57.52 72.21 57.14 Z" />
</g>
<g id="#f89848ff">
<path fill="#f89848" opacity="1.00" d=" M 64.10 61.44 C 65.18 60.60 66.34 62.34 67.32 62.73 C 71.03 65.30 72.67 69.73 73.22 74.05 C 66.73 79.08 58.98 82.04 51.86 86.04 C 46.82 83.12 44.45 77.15 45.00 71.50 L 45.23 71.41 C 51.96 69.03 58.32 65.63 64.10 61.44 Z" />
</g>
<g id="#303cd0ff">
<path fill="#303cd0" opacity="1.00" d=" M 36.92 71.15 L 37.28 71.48 C 38.42 72.57 39.62 73.60 40.81 74.63 C 41.33 77.62 42.22 80.55 43.50 83.31 C 42.27 83.85 41.04 84.39 39.82 84.92 C 37.63 80.66 36.89 75.90 36.92 71.15 Z" />
<path fill="#303cd0" opacity="1.00" d=" M 80.69 71.31 L 81.11 70.86 C 81.08 75.71 80.45 80.58 78.17 84.93 C 76.96 84.37 75.74 83.82 74.53 83.27 C 75.80 80.55 76.64 77.65 77.22 74.71 C 78.42 73.62 79.60 72.52 80.69 71.31 Z" />
</g>
<g id="#f88438ff">
<path fill="#f88438" opacity="1.00" d=" M 51.86 86.04 C 58.98 82.04 66.73 79.08 73.22 74.05 C 72.63 77.40 71.79 80.91 69.31 83.42 C 65.04 88.28 57.40 89.31 51.86 86.04 Z" />
</g>
<g id="#1834c8ff">
<path fill="#1834c8" opacity="1.00" d=" M 43.50 83.31 C 46.95 88.40 52.72 92.12 59.01 91.93 C 65.32 92.11 71.09 88.38 74.53 83.27 C 75.74 83.82 76.96 84.37 78.17 84.93 C 74.14 91.51 66.81 96.10 58.98 95.91 C 51.16 96.08 43.86 91.48 39.82 84.92 C 41.04 84.39 42.27 83.85 43.50 83.31 Z" />
</g>
<g id="#3e46ddff">
<path fill="#3e46dd" opacity="1.00" d=" M 33.89 86.87 C 35.13 85.12 37.20 86.47 38.77 86.87 C 37.14 88.49 35.51 90.13 33.89 91.77 C 33.46 90.19 32.12 88.10 33.89 86.87 Z" />
</g>
<g id="#1e2ae1ff">
<path fill="#1e2ae1" opacity="1.00" d=" M 33.89 91.77 C 35.51 90.13 37.14 88.49 38.77 86.87 C 40.04 90.17 37.21 93.03 33.89 91.77 Z" />
</g>
</svg>
