<?xml version="1.0" encoding="UTF-8" ?>
<!DOCTYPE svg PUBLIC "-//W3C//DTD SVG 1.1//EN" "http://www.w3.org/Graphics/SVG/1.1/DTD/svg11.dtd">
<svg width="117px" height="140px" viewBox="0 0 117 140" version="1.1" xmlns="http://www.w3.org/2000/svg">
<g id="#181818ff">
<path fill="#181818" opacity="1.00" d=" M 0.00 0.00 L 117.00 0.00 L 117.00 140.00 L 0.00 140.00 L 0.00 0.00 M 46.08 15.88 C 45.82 24.42 46.18 32.96 46.00 41.50 C 46.01 46.37 45.97 51.25 46.02 56.12 C 42.29 59.31 38.97 63.23 37.81 68.11 C 35.35 76.73 38.86 86.70 46.26 91.78 C 53.59 97.22 64.44 97.20 71.77 91.77 C 79.15 86.66 82.65 76.72 80.18 68.10 C 79.03 63.23 75.71 59.32 71.99 56.13 C 72.02 51.56 72.01 46.98 71.99 42.41 C 71.83 33.57 72.17 24.72 71.92 15.89 C 71.59 9.33 65.54 3.85 59.02 3.96 C 52.49 3.83 46.41 9.31 46.08 15.88 M 31.34 24.27 C 28.58 26.21 28.48 30.05 30.17 32.74 C 32.52 35.19 36.72 35.88 39.13 33.13 C 41.88 30.71 41.20 26.48 38.75 24.12 C 36.45 22.89 33.45 22.40 31.34 24.27 M 83.33 48.40 C 80.88 49.37 80.21 53.02 82.27 54.72 C 84.40 57.14 89.04 55.24 88.78 51.98 C 89.08 49.22 85.73 47.12 83.33 48.40 M 34.32 86.44 C 31.66 87.86 33.13 92.26 36.01 92.03 C 38.41 92.18 40.24 88.68 38.24 86.99 C 37.40 85.77 35.45 85.51 34.32 86.44 Z" />
<path fill="#181818" opacity="1.00" d=" M 50.06 16.97 C 49.97 12.56 53.63 8.60 57.97 8.09 C 63.02 7.39 68.03 11.80 67.94 16.91 C 68.05 25.38 68.05 33.86 68.02 42.33 C 67.96 47.60 68.06 52.87 67.93 58.14 C 71.05 60.68 74.21 63.47 75.67 67.34 C 78.98 75.18 75.71 85.07 68.35 89.37 C 60.71 94.23 49.59 92.05 44.45 84.56 C 40.15 78.69 39.85 70.10 44.07 64.10 C 45.56 61.66 48.16 60.23 49.89 58.02 C 50.22 52.53 49.90 47.02 50.00 41.52 C 49.95 33.34 49.94 25.15 50.06 16.97 M 55.18 24.08 C 53.49 24.73 53.50 27.27 55.18 27.92 C 57.73 28.11 60.30 28.10 62.85 27.92 C 64.48 27.22 64.48 24.78 62.85 24.08 C 60.30 23.90 57.73 23.89 55.18 24.08 M 55.17 30.08 C 53.51 30.76 53.52 33.21 55.15 33.92 C 57.70 34.11 60.28 34.11 62.84 33.92 C 64.46 33.21 64.49 30.78 62.85 30.08 C 60.30 29.89 57.72 29.89 55.17 30.08 M 55.13 36.08 C 53.55 36.82 53.49 39.27 55.20 39.90 C 57.74 40.12 60.32 40.11 62.87 39.89 C 64.44 39.17 64.45 36.79 62.85 36.09 C 60.28 35.89 57.70 35.89 55.13 36.08 M 54.01 46.96 C 53.93 51.57 54.05 56.18 53.98 60.79 C 51.14 62.22 48.41 64.13 46.87 67.00 C 42.85 73.59 45.69 83.07 52.64 86.40 C 59.70 90.25 69.43 86.49 72.05 78.89 C 74.89 71.89 70.92 63.56 64.02 60.80 C 63.94 56.17 64.09 51.54 63.98 46.91 C 63.98 44.89 62.61 43.02 60.74 42.31 C 57.69 40.91 53.90 43.68 54.01 46.96 Z" />
</g>
<g id="#7760ebff">
<path fill="#7760eb" opacity="1.00" d=" M 46.08 15.88 C 46.41 9.31 52.49 3.83 59.02 3.96 C 65.54 3.85 71.59 9.33 71.92 15.89 C 72.17 24.72 71.83 33.57 71.99 42.41 C 70.66 42.38 69.34 42.36 68.02 42.33 C 68.05 33.86 68.05 25.38 67.94 16.91 C 68.03 11.80 63.02 7.39 57.97 8.09 C 53.63 8.60 49.97 12.56 50.06 16.97 C 49.94 25.15 49.95 33.34 50.00 41.52 C 48.66 41.51 47.33 41.50 46.00 41.50 C 46.18 32.96 45.82 24.42 46.08 15.88 Z" />
<path fill="#7760eb" opacity="1.00" d=" M 31.34 24.27 C 33.45 22.40 36.45 22.89 38.75 24.12 C 36.71 27.72 33.69 30.61 30.17 32.74 C 28.48 30.05 28.58 26.21 31.34 24.27 Z" />
</g>
<g id="#3643d2ff">
<path fill="#3643d2" opacity="1.00" d=" M 38.75 24.12 C 41.20 26.48 41.88 30.71 39.13 33.13 C 36.72 35.88 32.52 35.19 30.17 32.74 C 33.69 30.61 36.71 27.72 38.75 24.12 Z" />
<path fill="#3643d2" opacity="1.00" d=" M 46.00 41.50 C 47.33 41.50 48.66 41.51 50.00 41.52 C 49.90 47.02 50.22 52.53 49.89 58.02 C 48.16 60.23 45.56 61.66 44.07 64.10 C 39.85 70.10 40.15 78.69 44.45 84.56 C 49.59 92.05 60.71 94.23 68.35 89.37 C 75.71 85.07 78.98 75.18 75.67 67.34 C 74.21 63.47 71.05 60.68 67.93 58.14 C 68.06 52.87 67.96 47.60 68.02 42.33 C 69.34 42.36 70.66 42.38 71.99 42.41 C 72.01 46.98 72.02 51.56 71.99 56.13 C 75.71 59.32 79.03 63.23 80.18 68.10 C 82.65 76.72 79.15 86.66 71.77 91.77 C 64.44 97.20 53.59 97.22 46.26 91.78 C 38.86 86.70 35.35 76.73 37.81 68.11 C 38.97 63.23 42.29 59.31 46.02 56.12 C 45.97 51.25 46.01 46.37 46.00 41.50 Z" />
<path fill="#3643d2" opacity="1.00" d=" M 34.32 86.44 C 35.45 85.51 37.40 85.77 38.24 86.99 C 40.24 88.68 38.41 92.18 36.01 92.03 C 33.13 92.26 31.66 87.86 34.32 86.44 Z" />
</g>
<g id="#f89c4aff">
<path fill="#f89c4a" opacity="1.00" d=" M 55.18 24.08 C 57.73 23.89 60.30 23.90 62.85 24.08 C 64.48 24.78 64.48 27.22 62.85 27.92 C 60.30 28.10 57.73 28.11 55.18 27.92 C 53.50 27.27 53.49 24.73 55.18 24.08 Z" />
<path fill="#f89c4a" opacity="1.00" d=" M 55.17 30.08 C 57.72 29.89 60.30 29.89 62.85 30.08 C 64.49 30.78 64.46 33.21 62.84 33.92 C 60.28 34.11 57.70 34.11 55.15 33.92 C 53.52 33.21 53.51 30.76 55.17 30.08 Z" />
<path fill="#f89c4a" opacity="1.00" d=" M 55.13 36.08 C 57.70 35.89 60.28 35.89 62.85 36.09 C 64.45 36.79 64.44 39.17 62.87 39.89 C 60.32 40.11 57.74 40.12 55.20 39.90 C 53.49 39.27 53.55 36.82 55.13 36.08 Z" />
<path fill="#f89c4a" opacity="1.00" d=" M 54.01 46.96 C 53.90 43.68 57.69 40.91 60.74 42.31 C 62.61 43.02 63.98 44.89 63.98 46.91 C 64.09 51.54 63.94 56.17 64.02 60.80 C 70.92 63.56 74.89 71.89 72.05 78.89 C 69.43 86.49 59.70 90.25 52.64 86.40 C 45.69 83.07 42.85 73.59 46.87 67.00 C 48.41 64.13 51.14 62.22 53.98 60.79 C 54.05 56.18 53.93 51.57 54.01 46.96 Z" />
<path fill="#f89c4a" opacity="1.00" d=" M 83.33 48.40 C 85.73 47.12 89.08 49.22 88.78 51.98 C 89.04 55.24 84.40 57.14 82.27 54.72 C 80.21 53.02 80.88 49.37 83.33 48.40 Z" />
</g>
</svg>
