<?xml version="1.0" encoding="UTF-8" ?>
<!DOCTYPE svg PUBLIC "-//W3C//DTD SVG 1.1//EN" "http://www.w3.org/Graphics/SVG/1.1/DTD/svg11.dtd">
<svg width="150px" height="80px" viewBox="0 0 150 80" version="1.1" xmlns="http://www.w3.org/2000/svg">
<g id="#181818ff">
<path fill="#181818" opacity="1.00" d=" M 0.00 0.00 L 150.00 0.00 L 150.00 80.00 L 0.00 80.00 L 0.00 0.00 M 17.38 14.38 C 15.83 15.39 14.74 17.02 15.00 18.94 C 14.97 32.98 14.97 47.02 15.00 61.06 C 14.60 63.83 17.18 66.39 19.94 66.00 C 56.65 66.03 93.35 66.02 130.06 66.00 C 132.82 66.40 135.40 63.83 135.00 61.06 C 135.03 47.02 135.02 32.98 135.00 18.94 C 135.39 16.18 132.82 13.60 130.06 14.00 C 94.03 13.95 58.00 14.02 21.97 13.97 C 20.44 14.04 18.84 13.85 17.38 14.38 Z" />
<path fill="#181818" opacity="1.00" d=" M 18.09 15.04 C 56.03 15.00 93.97 14.99 131.91 15.04 C 132.59 15.72 133.28 16.41 133.97 17.08 C 134.00 32.36 134.01 47.64 133.97 62.92 C 133.28 63.60 132.60 64.28 131.92 64.96 C 93.97 65.00 56.03 65.01 18.08 64.96 C 17.40 64.28 16.72 63.60 16.04 62.92 C 16.00 47.64 15.99 32.36 16.04 17.08 C 16.72 16.40 17.41 15.72 18.09 15.04 M 33.10 31.17 C 32.82 34.45 33.07 37.75 33.07 41.03 C 33.50 43.78 31.21 50.13 35.72 49.81 C 38.25 47.45 36.52 43.07 36.92 39.91 C 36.94 37.00 37.16 34.08 36.89 31.18 C 36.35 29.58 33.64 29.57 33.10 31.17 M 43.08 31.17 C 42.83 34.45 43.07 37.75 43.07 41.03 C 42.99 43.62 42.83 46.23 43.17 48.81 C 43.74 50.24 46.32 50.31 46.79 48.79 C 47.19 45.84 47.00 42.86 46.91 39.90 C 46.96 37.00 47.17 34.09 46.87 31.20 C 46.32 29.55 43.68 29.58 43.08 31.17 Z" />
</g>
<g id="#4753f3ff">
<path fill="#4753f3" opacity="1.00" d=" M 17.38 14.38 C 18.84 13.85 20.44 14.04 21.97 13.97 C 58.00 14.02 94.03 13.95 130.06 14.00 C 132.82 13.60 135.39 16.18 135.00 18.94 C 135.02 32.98 135.03 47.02 135.00 61.06 C 135.40 63.83 132.82 66.40 130.06 66.00 C 93.35 66.02 56.65 66.03 19.94 66.00 C 17.18 66.39 14.60 63.83 15.00 61.06 C 14.97 47.02 14.97 32.98 15.00 18.94 C 14.74 17.02 15.83 15.39 17.38 14.38 M 18.09 15.04 C 17.41 15.72 16.72 16.40 16.04 17.08 C 15.99 32.36 16.00 47.64 16.04 62.92 C 16.72 63.60 17.40 64.28 18.08 64.96 C 56.03 65.01 93.97 65.00 131.92 64.96 C 132.60 64.28 133.28 63.60 133.97 62.92 C 134.01 47.64 134.00 32.36 133.97 17.08 C 133.28 16.41 132.59 15.72 131.91 15.04 C 93.97 14.99 56.03 15.00 18.09 15.04 Z" />
</g>
<g id="#f8ce70ff">
<path fill="#f8ce70" opacity="1.00" d=" M 33.10 31.17 C 33.64 29.57 36.35 29.58 36.89 31.18 C 37.16 34.08 36.94 37.00 36.92 39.91 C 35.64 40.28 34.35 40.66 33.07 41.03 C 33.07 37.75 32.82 34.45 33.10 31.17 Z" />
</g>
<g id="#f8b35bff">
<path fill="#f8b35b" opacity="1.00" d=" M 43.08 31.17 C 43.68 29.58 46.32 29.55 46.87 31.20 C 47.17 34.09 46.96 37.00 46.91 39.90 C 45.63 40.28 44.35 40.66 43.07 41.03 C 43.07 37.75 42.83 34.45 43.08 31.17 Z" />
</g>
<g id="#f8a953ff">
<path fill="#f8a953" opacity="1.00" d=" M 33.07 41.03 C 34.35 40.66 35.64 40.28 36.92 39.91 C 36.52 43.07 38.25 47.45 35.72 49.81 C 31.21 50.13 33.50 43.78 33.07 41.03 Z" />
</g>
<g id="#f88e3fff">
<path fill="#f88e3f" opacity="1.00" d=" M 43.07 41.03 C 44.35 40.66 45.63 40.28 46.91 39.90 C 47.00 42.86 47.19 45.84 46.79 48.79 C 46.32 50.31 43.74 50.24 43.17 48.81 C 42.83 46.23 42.99 43.62 43.07 41.03 Z" />
</g>
</svg>
