<?xml version="1.0" encoding="UTF-8" ?>
<!DOCTYPE svg PUBLIC "-//W3C//DTD SVG 1.1//EN" "http://www.w3.org/Graphics/SVG/1.1/DTD/svg11.dtd">
<svg width="117px" height="140px" viewBox="0 0 117 140" version="1.1" xmlns="http://www.w3.org/2000/svg">
<g id="#181818ff">
<path fill="#181818" opacity="1.00" d=" M 0.00 0.00 L 117.00 0.00 L 117.00 140.00 L 0.00 140.00 L 0.00 0.00 M 23.32 8.32 C 21.18 10.72 22.01 14.13 23.85 16.42 C 25.49 17.29 27.31 18.43 29.25 17.78 C 29.63 19.16 29.95 20.55 30.24 21.95 C 29.66 29.27 30.17 36.63 30.07 43.96 C 29.89 49.99 30.02 56.02 30.08 62.04 C 30.05 66.23 29.57 70.50 30.39 74.64 C 32.72 78.52 38.08 76.58 41.80 76.98 C 41.78 79.73 41.83 82.49 41.88 85.25 C 42.10 87.79 40.58 92.61 44.08 93.19 C 49.54 91.76 54.78 89.51 59.95 87.26 C 61.90 87.02 63.86 86.56 65.36 85.21 C 73.05 82.93 80.44 79.75 87.95 76.97 C 88.02 71.85 88.10 66.73 87.88 61.61 C 87.98 59.21 88.01 56.82 88.06 54.43 C 87.96 53.05 87.86 51.68 87.76 50.30 C 89.26 48.47 90.23 46.31 89.94 43.89 L 89.28 44.40 C 88.92 43.74 88.20 42.42 87.84 41.76 C 88.12 35.41 88.03 29.05 87.92 22.70 C 88.06 17.42 88.00 12.14 88.00 6.86 L 87.23 7.17 C 79.49 6.79 71.74 7.09 64.00 7.00 C 53.27 7.20 42.52 6.57 31.81 7.35 C 29.30 5.29 25.27 5.67 23.32 8.32 Z" />
<path fill="#181818" opacity="1.00" d=" M 34.11 10.94 C 48.45 11.08 62.80 10.92 77.14 11.05 C 67.18 14.79 57.21 18.50 47.25 22.23 C 44.99 23.07 42.28 24.36 42.06 27.12 C 41.41 33.42 41.99 39.79 41.83 46.12 C 41.76 52.82 41.80 59.53 41.85 66.24 C 41.85 68.51 41.83 70.77 41.81 73.04 C 39.23 73.04 36.64 72.98 34.06 72.97 C 34.01 69.32 33.96 65.67 33.96 62.02 C 33.95 56.01 34.06 49.99 33.97 43.97 C 33.93 35.96 34.05 27.94 33.99 19.92 C 34.00 17.97 34.04 16.02 34.07 14.07 C 34.08 13.29 34.10 11.72 34.11 10.94 Z" />
</g>
<g id="#66caf0ff">
<path fill="#66caf0" opacity="1.00" d=" M 23.32 8.32 C 25.27 5.67 29.30 5.29 31.81 7.35 L 32.28 7.99 C 29.65 10.98 26.79 13.74 23.85 16.42 C 22.01 14.13 21.18 10.72 23.32 8.32 Z" />
</g>
<g id="#9764f8ff">
<path fill="#9764f8" opacity="1.00" d=" M 31.81 7.35 C 42.52 6.57 53.27 7.20 64.00 7.00 C 71.74 7.09 79.49 6.79 87.23 7.17 C 83.89 8.52 80.55 9.87 77.14 11.05 C 62.80 10.92 48.45 11.08 34.11 10.94 C 33.52 9.95 32.92 8.96 32.28 7.99 L 31.81 7.35 Z" />
</g>
<g id="#f8c86bff">
<path fill="#f8c86b" opacity="1.00" d=" M 87.23 7.17 L 88.00 6.86 C 88.00 12.14 88.06 17.42 87.92 22.70 C 82.85 24.83 78.48 28.27 73.47 30.52 C 67.56 33.54 61.44 36.18 55.89 39.83 C 51.56 42.64 46.67 44.38 41.83 46.12 C 41.99 39.79 41.41 33.42 42.06 27.12 C 42.28 24.36 44.99 23.07 47.25 22.23 C 57.21 18.50 67.18 14.79 77.14 11.05 C 80.55 9.87 83.89 8.52 87.23 7.17 Z" />
</g>
<g id="#6a9df7ff">
<path fill="#6a9df7" opacity="1.00" d=" M 32.28 7.99 C 32.92 8.96 33.52 9.95 34.11 10.94 C 34.10 11.72 34.08 13.29 34.07 14.07 C 32.53 15.39 31.00 16.75 29.25 17.78 C 27.31 18.43 25.49 17.29 23.85 16.42 C 26.79 13.74 29.65 10.98 32.28 7.99 Z" />
</g>
<g id="#583da4ff">
<path fill="#583da4" opacity="1.00" d=" M 29.25 17.78 C 31.00 16.75 32.53 15.39 34.07 14.07 C 34.04 16.02 34.00 17.97 33.99 19.92 C 32.75 20.60 31.50 21.28 30.24 21.95 C 29.95 20.55 29.63 19.16 29.25 17.78 Z" />
</g>
<g id="#6954e7ff">
<path fill="#6954e7" opacity="1.00" d=" M 30.24 21.95 C 31.50 21.28 32.75 20.60 33.99 19.92 C 34.05 27.94 33.93 35.96 33.97 43.97 C 32.67 43.97 31.37 43.97 30.07 43.96 C 30.17 36.63 29.66 29.27 30.24 21.95 Z" />
</g>
<g id="#f8b55fff">
<path fill="#f8b55f" opacity="1.00" d=" M 73.47 30.52 C 78.48 28.27 82.85 24.83 87.92 22.70 C 88.03 29.05 88.12 35.41 87.84 41.76 C 85.87 42.51 83.90 43.27 81.88 43.90 C 80.66 44.15 79.42 44.26 78.19 44.39 C 71.15 45.68 64.86 49.44 57.93 51.16 C 59.91 46.73 64.10 43.03 63.95 37.87 C 62.47 38.68 61.10 39.73 60.31 41.26 C 57.44 46.13 54.16 50.77 51.78 55.91 C 52.96 57.13 54.13 58.38 55.36 59.56 C 51.18 62.36 46.83 65.09 41.85 66.24 C 41.80 59.53 41.76 52.82 41.83 46.12 C 46.67 44.38 51.56 42.64 55.89 39.83 C 61.44 36.18 67.56 33.54 73.47 30.52 Z" />
</g>
<g id="#191818ff">
<path fill="#191818" opacity="1.00" d=" M 60.31 41.26 C 61.10 39.73 62.47 38.68 63.95 37.87 C 64.10 43.03 59.91 46.73 57.93 51.16 C 64.86 49.44 71.15 45.68 78.19 44.39 C 78.12 45.51 78.04 46.62 77.95 47.74 C 71.37 50.59 64.54 52.79 57.87 55.41 C 59.88 57.72 62.29 59.65 64.13 62.10 C 63.84 63.23 63.46 64.34 63.01 65.42 C 60.27 63.73 57.73 61.74 55.36 59.56 C 54.13 58.38 52.96 57.13 51.78 55.91 C 54.16 50.77 57.44 46.13 60.31 41.26 Z" />
</g>
<g id="#b5e913ff">
<path fill="#b5e913" opacity="1.00" d=" M 81.88 43.90 C 83.90 43.27 85.87 42.51 87.84 41.76 C 88.20 42.42 88.92 43.74 89.28 44.40 C 87.40 45.83 85.73 47.50 84.05 49.17 C 83.53 48.90 82.49 48.38 81.96 48.12 C 81.92 46.71 81.90 45.31 81.88 43.90 Z" />
</g>
<g id="#4244d8ff">
<path fill="#4244d8" opacity="1.00" d=" M 30.07 43.96 C 31.37 43.97 32.67 43.97 33.97 43.97 C 34.06 49.99 33.95 56.01 33.96 62.02 C 32.67 62.03 31.37 62.04 30.08 62.04 C 30.02 56.02 29.89 49.99 30.07 43.96 Z" />
</g>
<g id="#f89e4aff">
<path fill="#f89e4a" opacity="1.00" d=" M 78.19 44.39 C 79.42 44.26 80.66 44.15 81.88 43.90 C 81.90 45.31 81.92 46.71 81.96 48.12 C 82.06 49.62 82.14 51.13 82.48 52.60 C 83.59 54.64 86.10 54.39 88.06 54.43 C 88.01 56.82 87.98 59.21 87.88 61.61 C 85.11 62.83 82.43 64.27 79.81 65.79 C 75.53 68.27 70.82 69.93 66.68 72.66 C 63.41 74.83 60.10 76.98 56.42 78.39 C 51.40 80.33 47.11 83.81 41.88 85.25 C 41.83 82.49 41.78 79.73 41.80 76.98 C 41.80 75.66 41.81 74.35 41.81 73.04 C 41.83 70.77 41.85 68.51 41.85 66.24 C 46.83 65.09 51.18 62.36 55.36 59.56 C 57.73 61.74 60.27 63.73 63.01 65.42 C 63.46 64.34 63.84 63.23 64.13 62.10 C 62.29 59.65 59.88 57.72 57.87 55.41 C 64.54 52.79 71.37 50.59 77.95 47.74 C 78.04 46.62 78.12 45.51 78.19 44.39 Z" />
</g>
<g id="#76ce0bff">
<path fill="#76ce0b" opacity="1.00" d=" M 89.28 44.40 L 89.94 43.89 C 90.23 46.31 89.26 48.47 87.76 50.30 C 86.52 49.94 85.27 49.59 84.05 49.17 C 85.73 47.50 87.40 45.83 89.28 44.40 Z" />
</g>
<g id="#a46732ff">
<path fill="#a46732" opacity="1.00" d=" M 81.96 48.12 C 82.49 48.38 83.53 48.90 84.05 49.17 C 85.27 49.59 86.52 49.94 87.76 50.30 C 87.86 51.68 87.96 53.05 88.06 54.43 C 86.10 54.39 83.59 54.64 82.48 52.60 C 82.14 51.13 82.06 49.62 81.96 48.12 Z" />
</g>
<g id="#1a37c8ff">
<path fill="#1a37c8" opacity="1.00" d=" M 30.08 62.04 C 31.37 62.04 32.67 62.03 33.96 62.02 C 33.96 65.67 34.01 69.32 34.06 72.97 C 36.64 72.98 39.23 73.04 41.81 73.04 C 41.81 74.35 41.80 75.66 41.80 76.98 C 38.08 76.58 32.72 78.52 30.39 74.64 C 29.57 70.50 30.05 66.23 30.08 62.04 Z" />
</g>
<g id="#f88f40ff">
<path fill="#f88f40" opacity="1.00" d=" M 79.81 65.79 C 82.43 64.27 85.11 62.83 87.88 61.61 C 88.10 66.73 88.02 71.85 87.95 76.97 C 80.44 79.75 73.05 82.93 65.36 85.21 C 64.98 83.94 64.59 82.68 64.21 81.41 C 62.61 81.38 61.01 81.41 59.40 81.46 C 59.32 83.41 59.50 85.36 59.95 87.26 C 54.78 89.51 49.54 91.76 44.08 93.19 C 40.58 92.61 42.10 87.79 41.88 85.25 C 47.11 83.81 51.40 80.33 56.42 78.39 C 60.10 76.98 63.41 74.83 66.68 72.66 C 70.82 69.93 75.53 68.27 79.81 65.79 Z" />
</g>
<g id="#3640f6ff">
<path fill="#3640f6" opacity="1.00" d=" M 59.40 81.46 C 61.01 81.41 62.61 81.38 64.21 81.41 C 64.59 82.68 64.98 83.94 65.36 85.21 C 63.86 86.56 61.90 87.02 59.95 87.26 C 59.50 85.36 59.32 83.41 59.40 81.46 Z" />
</g>
</svg>
