<?xml version="1.0" encoding="UTF-8" ?>
<!DOCTYPE svg PUBLIC "-//W3C//DTD SVG 1.1//EN" "http://www.w3.org/Graphics/SVG/1.1/DTD/svg11.dtd">
<svg width="117px" height="140px" viewBox="0 0 117 140" version="1.1" xmlns="http://www.w3.org/2000/svg">
<g id="#181818ff">
<path fill="#181818" opacity="1.00" d=" M 0.00 0.00 L 117.00 0.00 L 117.00 140.00 L 0.00 140.00 L 0.00 0.00 M 29.93 16.05 C 27.30 14.01 23.28 12.91 20.78 15.77 C 16.80 19.15 20.01 26.16 25.02 25.88 C 25.02 27.69 25.05 29.50 25.12 31.31 L 25.82 30.76 C 26.61 30.83 28.18 30.99 28.97 31.07 C 28.98 32.35 28.99 33.64 29.01 34.93 C 27.67 34.97 26.33 35.01 25.00 35.05 C 24.98 41.74 25.07 48.42 25.09 55.11 C 24.81 62.93 25.18 70.76 25.01 78.59 C 25.14 82.61 24.05 87.55 27.36 90.65 C 29.25 92.81 32.27 93.06 34.95 93.02 C 51.33 92.96 67.70 93.03 84.07 93.00 C 86.69 93.08 89.46 92.29 91.12 90.13 C 93.23 87.95 92.96 84.74 93.02 81.95 C 92.92 75.28 93.12 68.61 92.94 61.94 C 92.92 55.71 93.07 49.48 92.97 43.25 C 91.41 42.84 88.99 43.38 88.75 41.19 C 89.06 37.16 88.96 33.11 89.00 29.07 C 90.34 29.03 91.68 28.99 93.02 28.95 C 93.01 26.60 93.00 24.26 92.95 21.91 C 92.93 18.98 93.13 16.03 92.73 13.12 C 91.97 9.21 87.94 6.64 84.07 7.00 C 69.09 7.12 54.08 6.75 39.11 7.18 C 35.67 9.71 33.05 13.15 29.93 16.05 M 94.45 33.38 C 91.10 34.98 94.10 40.65 97.35 38.42 C 100.69 36.59 97.78 31.31 94.45 33.38 Z" />
<path fill="#181818" opacity="1.00" d=" M 39.32 12.36 C 40.71 10.72 43.02 11.07 44.94 10.95 C 57.65 11.05 70.36 10.97 83.07 10.99 C 85.08 11.02 87.83 11.11 88.58 13.42 C 89.36 16.19 89.04 19.12 89.07 21.95 C 89.05 22.68 89.01 24.13 88.99 24.86 C 87.65 24.94 86.32 25.03 85.00 25.12 C 84.99 30.76 85.07 36.41 85.05 42.06 C 85.03 43.67 85.01 45.27 84.99 46.87 C 86.32 46.96 87.65 47.05 88.98 47.14 C 89.02 52.08 89.08 57.02 89.03 61.96 C 88.91 68.65 89.04 75.35 89.10 82.04 C 89.15 84.83 88.72 89.06 84.97 88.87 C 68.98 89.24 52.96 88.83 36.96 89.06 C 34.57 88.83 31.37 89.50 29.75 87.25 C 28.64 84.58 29.10 81.56 28.94 78.73 C 28.93 70.50 29.07 62.26 28.98 54.03 C 28.91 49.06 28.95 44.09 29.02 39.13 C 30.34 39.05 31.67 38.96 33.00 38.88 C 33.03 34.92 33.02 30.95 32.96 26.99 C 32.24 27.07 30.81 27.23 30.09 27.32 C 29.72 26.76 28.99 25.66 28.63 25.11 C 29.52 23.50 30.39 21.87 31.34 20.30 C 33.93 17.58 36.57 14.91 39.32 12.36 M 43.22 14.01 C 41.43 15.05 42.13 17.27 41.96 18.97 C 42.16 24.56 41.68 30.19 42.25 35.76 C 42.79 37.82 46.24 37.07 45.87 34.92 C 46.07 28.64 46.06 22.34 45.95 16.05 C 46.15 14.54 44.52 13.68 43.22 14.01 M 51.21 14.01 C 49.43 15.06 50.13 17.27 49.96 18.96 C 50.14 24.57 49.72 30.20 50.21 35.79 C 50.93 37.71 54.15 37.04 53.87 34.93 C 54.07 28.64 54.05 22.34 53.96 16.05 C 54.10 14.59 52.55 13.56 51.21 14.01 M 59.23 14.05 C 58.96 14.33 58.42 14.90 58.15 15.18 C 57.82 21.76 57.97 28.37 58.10 34.95 C 57.79 37.54 62.20 37.55 61.87 34.94 C 62.06 28.65 62.08 22.34 61.93 16.05 C 62.09 14.56 60.54 13.65 59.23 14.05 M 67.24 14.07 C 66.97 14.35 66.43 14.91 66.16 15.19 C 65.81 21.76 65.98 28.37 66.10 34.95 C 65.78 37.58 70.17 37.54 69.88 34.94 C 70.07 28.65 70.07 22.34 69.94 16.05 C 70.09 14.59 68.56 13.58 67.24 14.07 M 75.22 14.02 C 74.95 14.31 74.41 14.89 74.13 15.17 C 73.83 21.75 73.96 28.36 74.09 34.95 C 73.82 37.08 77.07 37.76 77.79 35.79 C 78.19 29.23 78.01 22.62 77.95 16.04 C 78.13 14.56 76.50 13.70 75.22 14.02 M 36.20 59.13 C 35.71 63.40 36.13 67.70 36.07 71.98 C 35.99 74.94 35.77 77.92 36.19 80.87 C 36.48 82.64 38.22 83.97 40.00 83.88 C 46.38 84.17 52.78 83.90 59.17 83.93 C 61.76 84.03 64.36 84.03 66.95 83.97 C 71.17 83.82 75.46 84.39 79.64 83.61 C 83.76 80.93 81.48 75.06 81.93 70.97 C 81.86 66.77 82.42 62.51 81.62 58.36 C 80.50 55.76 77.38 56.00 75.03 55.97 C 63.67 56.06 52.30 55.93 40.94 56.02 C 38.90 55.84 36.49 56.90 36.20 59.13 Z" />
<path fill="#181818" opacity="1.00" d=" M 40.03 60.02 C 52.68 59.97 65.33 59.98 77.97 60.02 C 78.03 63.67 78.06 67.32 78.04 70.98 C 78.03 73.96 77.98 76.95 77.95 79.93 C 74.32 80.07 70.67 80.14 67.04 79.92 C 66.54 79.89 65.55 79.83 65.06 79.81 C 65.89 78.16 67.53 76.41 66.64 74.45 C 65.60 71.24 60.36 71.23 59.32 74.43 C 58.30 76.39 60.07 78.14 60.92 79.77 C 59.98 79.81 59.05 79.85 58.12 79.90 C 52.10 80.17 46.07 79.93 40.05 79.98 C 40.02 77.31 39.97 74.65 39.95 71.98 C 39.93 67.99 39.97 64.01 40.03 60.02 Z" />
</g>
<g id="#9864f8ff">
<path fill="#9864f8" opacity="1.00" d=" M 29.93 16.05 C 33.05 13.15 35.67 9.71 39.11 7.18 C 54.08 6.75 69.09 7.12 84.07 7.00 C 87.94 6.64 91.97 9.21 92.73 13.12 C 93.13 16.03 92.93 18.98 92.95 21.91 C 91.66 21.93 90.36 21.94 89.07 21.95 C 89.04 19.12 89.36 16.19 88.58 13.42 C 87.83 11.11 85.08 11.02 83.07 10.99 C 70.36 10.97 57.65 11.05 44.94 10.95 C 43.02 11.07 40.71 10.72 39.32 12.36 C 36.57 14.91 33.93 17.58 31.34 20.30 C 30.86 18.88 30.40 17.46 29.93 16.05 Z" />
</g>
<g id="#55e193ff">
<path fill="#55e193" opacity="1.00" d=" M 20.78 15.77 C 23.28 12.91 27.30 14.01 29.93 16.05 C 30.40 17.46 30.86 18.88 31.34 20.30 C 30.39 21.87 29.52 23.50 28.63 25.11 C 27.43 25.38 26.23 25.66 25.02 25.88 C 20.01 26.16 16.80 19.15 20.78 15.77 Z" />
</g>
<g id="#f8d475ff">
<path fill="#f8d475" opacity="1.00" d=" M 43.22 14.01 C 44.52 13.68 46.15 14.54 45.95 16.05 C 46.06 22.34 46.07 28.64 45.87 34.92 C 46.24 37.07 42.79 37.82 42.25 35.76 C 41.68 30.19 42.16 24.56 41.96 18.97 C 42.13 17.27 41.43 15.05 43.22 14.01 Z" />
</g>
<g id="#f8c167ff">
<path fill="#f8c167" opacity="1.00" d=" M 51.21 14.01 C 52.55 13.56 54.10 14.59 53.96 16.05 C 54.05 22.34 54.07 28.64 53.87 34.93 C 54.15 37.04 50.93 37.71 50.21 35.79 C 49.72 30.20 50.14 24.57 49.96 18.96 C 50.13 17.27 49.43 15.06 51.21 14.01 Z" />
</g>
<g id="#f8af58ff">
<path fill="#f8af58" opacity="1.00" d=" M 59.23 14.05 C 60.54 13.65 62.09 14.56 61.93 16.05 C 62.08 22.34 62.06 28.65 61.87 34.94 C 62.20 37.55 57.79 37.54 58.10 34.95 C 57.97 28.37 57.82 21.76 58.15 15.18 C 58.42 14.90 58.96 14.33 59.23 14.05 Z" />
</g>
<g id="#f89d49ff">
<path fill="#f89d49" opacity="1.00" d=" M 67.24 14.07 C 68.56 13.58 70.09 14.59 69.94 16.05 C 70.07 22.34 70.07 28.65 69.88 34.94 C 70.17 37.54 65.78 37.58 66.10 34.95 C 65.98 28.37 65.81 21.76 66.16 15.19 C 66.43 14.91 66.97 14.35 67.24 14.07 Z" />
</g>
<g id="#f8893bff">
<path fill="#f8893b" opacity="1.00" d=" M 75.22 14.02 C 76.50 13.70 78.13 14.56 77.95 16.04 C 78.01 22.62 78.19 29.23 77.79 35.79 C 77.07 37.76 73.82 37.08 74.09 34.95 C 73.96 28.36 73.83 21.75 74.13 15.17 C 74.41 14.89 74.95 14.31 75.22 14.02 Z" />
</g>
<g id="#7858edff">
<path fill="#7858ed" opacity="1.00" d=" M 89.07 21.95 C 90.36 21.94 91.66 21.93 92.95 21.91 C 93.00 24.26 93.01 26.60 93.02 28.95 C 91.68 28.99 90.34 29.03 89.00 29.07 C 88.96 33.11 89.06 37.16 88.75 41.19 C 87.51 41.48 86.28 41.77 85.05 42.06 C 85.07 36.41 84.99 30.76 85.00 25.12 C 86.32 25.03 87.65 24.94 88.99 24.86 C 89.01 24.13 89.05 22.68 89.07 21.95 Z" />
</g>
<g id="#4b3793ff">
<path fill="#4b3793" opacity="1.00" d=" M 25.02 25.88 C 26.23 25.66 27.43 25.38 28.63 25.11 C 28.99 25.66 29.72 26.76 30.09 27.32 C 28.68 28.49 27.26 29.63 25.82 30.76 L 25.12 31.31 C 25.05 29.50 25.02 27.69 25.02 25.88 Z" />
</g>
<g id="#6952e6ff">
<path fill="#6952e6" opacity="1.00" d=" M 30.09 27.32 C 30.81 27.23 32.24 27.07 32.96 26.99 C 33.02 30.95 33.03 34.92 33.00 38.88 C 31.67 38.96 30.34 39.05 29.02 39.13 C 28.95 44.09 28.91 49.06 28.98 54.03 C 27.68 54.39 26.39 54.75 25.09 55.11 C 25.07 48.42 24.98 41.74 25.00 35.05 C 26.33 35.01 27.67 34.97 29.01 34.93 C 28.99 33.64 28.98 32.35 28.97 31.07 C 28.18 30.99 26.61 30.83 25.82 30.76 C 27.26 29.63 28.68 28.49 30.09 27.32 Z" />
</g>
<g id="#ceb0b2ff">
<path fill="#ceb0b2" opacity="1.00" d=" M 94.45 33.38 C 97.78 31.31 100.69 36.59 97.35 38.42 C 94.10 40.65 91.10 34.98 94.45 33.38 Z" />
</g>
<g id="#584ce0ff">
<path fill="#584ce0" opacity="1.00" d=" M 85.05 42.06 C 86.28 41.77 87.51 41.48 88.75 41.19 C 88.99 43.38 91.41 42.84 92.97 43.25 C 93.07 49.48 92.92 55.71 92.94 61.94 C 91.64 61.94 90.34 61.95 89.03 61.96 C 89.08 57.02 89.02 52.08 88.98 47.14 C 87.65 47.05 86.32 46.96 84.99 46.87 C 85.01 45.27 85.03 43.67 85.05 42.06 Z" />
</g>
<g id="#3e44d8ff">
<path fill="#3e44d8" opacity="1.00" d=" M 25.09 55.11 C 26.39 54.75 27.68 54.39 28.98 54.03 C 29.07 62.26 28.93 70.50 28.94 78.73 C 27.63 78.68 26.32 78.64 25.01 78.59 C 25.18 70.76 24.81 62.93 25.09 55.11 Z" />
</g>
<g id="#4948d8ff">
<path fill="#4948d8" opacity="1.00" d=" M 36.20 59.13 C 36.49 56.90 38.90 55.84 40.94 56.02 C 52.30 55.93 63.67 56.06 75.03 55.97 C 77.38 56.00 80.50 55.76 81.62 58.36 C 82.42 62.51 81.86 66.77 81.93 70.97 C 80.63 70.97 79.34 70.97 78.04 70.98 C 78.06 67.32 78.03 63.67 77.97 60.02 C 65.33 59.98 52.68 59.97 40.03 60.02 C 39.97 64.01 39.93 67.99 39.95 71.98 C 38.66 71.98 37.36 71.98 36.07 71.98 C 36.13 67.70 35.71 63.40 36.20 59.13 Z" />
</g>
<g id="#3640d0ff">
<path fill="#3640d0" opacity="1.00" d=" M 89.03 61.96 C 90.34 61.95 91.64 61.94 92.94 61.94 C 93.12 68.61 92.92 75.28 93.02 81.95 C 91.71 81.97 90.40 82.01 89.10 82.04 C 89.04 75.35 88.91 68.65 89.03 61.96 Z" />
</g>
<g id="#263acdff">
<path fill="#263acd" opacity="1.00" d=" M 78.04 70.98 C 79.34 70.97 80.63 70.97 81.93 70.97 C 81.48 75.06 83.76 80.93 79.64 83.61 C 75.46 84.39 71.17 83.82 66.95 83.97 C 66.98 82.62 67.01 81.27 67.04 79.92 C 70.67 80.14 74.32 80.07 77.95 79.93 C 77.98 76.95 78.03 73.96 78.04 70.98 Z" />
</g>
<g id="#2539cdff">
<path fill="#2539cd" opacity="1.00" d=" M 36.07 71.98 C 37.36 71.98 38.66 71.98 39.95 71.98 C 39.97 74.65 40.02 77.31 40.05 79.98 C 46.07 79.93 52.10 80.17 58.12 79.90 C 58.47 81.24 58.82 82.58 59.17 83.93 C 52.78 83.90 46.38 84.17 40.00 83.88 C 38.22 83.97 36.48 82.64 36.19 80.87 C 35.77 77.92 35.99 74.94 36.07 71.98 Z" />
</g>
<g id="#68b4f0ff">
<path fill="#68b4f0" opacity="1.00" d=" M 59.32 74.43 C 60.36 71.23 65.60 71.24 66.64 74.45 C 67.53 76.41 65.89 78.16 65.06 79.81 C 63.68 79.74 62.30 79.71 60.92 79.77 C 60.07 78.14 58.30 76.39 59.32 74.43 Z" />
</g>
<g id="#1734c8ff">
<path fill="#1734c8" opacity="1.00" d=" M 25.01 78.59 C 26.32 78.64 27.63 78.68 28.94 78.73 C 29.10 81.56 28.64 84.58 29.75 87.25 C 31.37 89.50 34.57 88.83 36.96 89.06 C 52.96 88.83 68.98 89.24 84.97 88.87 C 88.72 89.06 89.15 84.83 89.10 82.04 C 90.40 82.01 91.71 81.97 93.02 81.95 C 92.96 84.74 93.23 87.95 91.12 90.13 C 89.46 92.29 86.69 93.08 84.07 93.00 C 67.70 93.03 51.33 92.96 34.95 93.02 C 32.27 93.06 29.25 92.81 27.36 90.65 C 24.05 87.55 25.14 82.61 25.01 78.59 Z" />
</g>
<g id="#182890ff">
<path fill="#182890" opacity="1.00" d=" M 60.92 79.77 C 62.30 79.71 63.68 79.74 65.06 79.81 C 65.55 79.83 66.54 79.89 67.04 79.92 C 67.01 81.27 66.98 82.62 66.95 83.97 C 64.36 84.03 61.76 84.03 59.17 83.93 C 58.82 82.58 58.47 81.24 58.12 79.90 C 59.05 79.85 59.98 79.81 60.92 79.77 Z" />
</g>
</svg>
