<?xml version="1.0" encoding="UTF-8" ?>
<!DOCTYPE svg PUBLIC "-//W3C//DTD SVG 1.1//EN" "http://www.w3.org/Graphics/SVG/1.1/DTD/svg11.dtd">
<svg width="117px" height="140px" viewBox="0 0 117 140" version="1.1" xmlns="http://www.w3.org/2000/svg">
<g id="#181818ff">
<path fill="#181818" opacity="1.00" d=" M 0.00 0.00 L 117.00 0.00 L 117.00 140.00 L 0.00 140.00 L 0.00 0.00 M 44.12 30.00 C 42.34 34.04 39.93 37.79 36.66 40.79 C 38.26 41.83 39.84 42.90 41.43 43.96 C 43.18 41.76 44.81 39.39 47.18 37.79 C 48.15 39.82 49.15 41.84 50.14 43.87 C 51.75 43.16 53.36 42.46 54.98 41.77 C 54.42 40.61 53.85 39.45 53.29 38.28 C 55.17 38.28 57.06 38.27 58.95 38.28 C 58.96 36.72 58.97 35.16 58.97 33.60 C 55.54 33.59 52.12 33.57 48.70 33.59 C 48.88 33.05 49.23 31.97 49.40 31.42 C 47.64 30.94 45.88 30.47 44.12 30.00 M 57.70 40.24 C 59.28 41.26 60.86 42.28 62.43 43.31 C 63.66 41.60 64.76 39.77 66.25 38.27 C 69.15 37.66 69.72 41.69 71.11 43.50 C 64.74 43.56 58.37 43.51 51.99 43.53 C 52.00 45.23 52.00 46.93 52.01 48.64 C 59.09 48.66 66.18 48.63 73.27 48.63 C 73.24 55.82 73.39 63.00 73.22 70.18 C 70.48 70.25 67.74 70.23 65.01 70.15 C 65.58 71.75 66.15 73.35 66.76 74.94 C 70.04 74.76 73.53 75.19 76.62 73.83 C 78.89 72.84 78.75 70.09 78.82 68.03 C 78.84 59.87 78.85 51.71 78.87 43.54 C 76.48 43.54 74.09 43.54 71.70 43.53 C 73.16 42.86 74.61 42.19 76.07 41.52 C 75.46 40.41 74.85 39.30 74.23 38.20 C 76.32 38.20 78.41 38.21 80.50 38.23 C 80.50 36.69 80.50 35.14 80.51 33.60 C 76.43 33.60 72.35 33.59 68.28 33.61 C 68.43 33.05 68.74 31.95 68.89 31.40 C 67.13 31.00 65.37 30.59 63.62 30.18 C 62.28 33.87 60.34 37.32 57.70 40.24 M 42.13 44.80 C 43.74 46.77 45.29 48.79 46.77 50.87 C 48.29 49.83 49.81 48.80 51.36 47.79 C 49.79 45.84 48.17 43.94 46.52 42.06 C 45.06 42.99 43.60 43.90 42.13 44.80 M 39.33 49.62 C 39.35 58.13 39.36 66.65 39.38 75.17 C 41.23 75.17 43.07 75.17 44.91 75.18 C 44.94 66.66 44.97 58.15 44.98 49.63 C 43.10 49.63 41.22 49.63 39.33 49.62 M 49.11 51.35 C 49.10 57.75 49.13 64.15 49.14 70.55 C 50.84 70.55 52.55 70.55 54.25 70.55 C 54.28 70.01 54.33 68.94 54.36 68.40 C 59.22 68.41 64.08 68.38 68.94 68.41 C 68.91 62.73 69.01 57.05 69.05 51.37 C 62.40 51.36 55.75 51.36 49.11 51.35 Z" />
<path fill="#181818" opacity="1.00" d=" M 54.28 57.88 C 54.29 57.31 54.32 56.17 54.33 55.60 C 57.44 55.60 60.56 55.59 63.67 55.58 C 63.69 56.15 63.71 57.30 63.72 57.88 C 60.57 57.89 57.43 57.89 54.28 57.88 Z" />
<path fill="#181818" opacity="1.00" d=" M 54.31 64.25 C 54.31 63.41 54.31 62.57 54.32 61.73 C 57.45 61.73 60.58 61.72 63.71 61.71 C 63.70 62.35 63.70 63.62 63.70 64.25 C 60.57 64.25 57.44 64.25 54.31 64.25 Z" />
</g>
<g id="#f8ad56ff">
<path fill="#f8ad56" opacity="1.00" d=" M 44.12 30.00 C 45.88 30.47 47.64 30.94 49.40 31.42 C 49.23 31.97 48.88 33.05 48.70 33.59 C 52.12 33.57 55.54 33.59 58.97 33.60 C 58.97 35.16 58.96 36.72 58.95 38.28 C 57.06 38.27 55.17 38.28 53.29 38.28 C 53.85 39.45 54.42 40.61 54.98 41.77 C 53.36 42.46 51.75 43.16 50.14 43.87 C 49.15 41.84 48.15 39.82 47.18 37.79 C 44.81 39.39 43.18 41.76 41.43 43.96 C 39.84 42.90 38.26 41.83 36.66 40.79 C 39.93 37.79 42.34 34.04 44.12 30.00 Z" />
<path fill="#f8ad56" opacity="1.00" d=" M 57.70 40.24 C 60.34 37.32 62.28 33.87 63.62 30.18 C 65.37 30.59 67.13 31.00 68.89 31.40 C 68.74 31.95 68.43 33.05 68.28 33.61 C 72.35 33.59 76.43 33.60 80.51 33.60 C 80.50 35.14 80.50 36.69 80.50 38.23 C 78.41 38.21 76.32 38.20 74.23 38.20 C 74.85 39.30 75.46 40.41 76.07 41.52 C 74.61 42.19 73.16 42.86 71.70 43.53 C 74.09 43.54 76.48 43.54 78.87 43.54 C 78.85 51.71 78.84 59.87 78.82 68.03 C 78.75 70.09 78.89 72.84 76.62 73.83 C 73.53 75.19 70.04 74.76 66.76 74.94 C 66.15 73.35 65.58 71.75 65.01 70.15 C 67.74 70.23 70.48 70.25 73.22 70.18 C 73.39 63.00 73.24 55.82 73.27 48.63 C 66.18 48.63 59.09 48.66 52.01 48.64 C 52.00 46.93 52.00 45.23 51.99 43.53 C 58.37 43.51 64.74 43.56 71.11 43.50 C 69.72 41.69 69.15 37.66 66.25 38.27 C 64.76 39.77 63.66 41.60 62.43 43.31 C 60.86 42.28 59.28 41.26 57.70 40.24 Z" />
<path fill="#f8ad56" opacity="1.00" d=" M 42.13 44.80 C 43.60 43.90 45.06 42.99 46.52 42.06 C 48.17 43.94 49.79 45.84 51.36 47.79 C 49.81 48.80 48.29 49.83 46.77 50.87 C 45.29 48.79 43.74 46.77 42.13 44.80 Z" />
<path fill="#f8ad56" opacity="1.00" d=" M 39.33 49.62 C 41.22 49.63 43.10 49.63 44.98 49.63 C 44.97 58.15 44.94 66.66 44.91 75.18 C 43.07 75.17 41.23 75.17 39.38 75.17 C 39.36 66.65 39.35 58.13 39.33 49.62 Z" />
<path fill="#f8ad56" opacity="1.00" d=" M 49.11 51.35 C 55.75 51.36 62.40 51.36 69.05 51.37 C 69.01 57.05 68.91 62.73 68.94 68.41 C 64.08 68.38 59.22 68.41 54.36 68.40 C 54.33 68.94 54.28 70.01 54.25 70.55 C 52.55 70.55 50.84 70.55 49.14 70.55 C 49.13 64.15 49.10 57.75 49.11 51.35 M 54.28 57.88 C 57.43 57.89 60.57 57.89 63.72 57.88 C 63.71 57.30 63.69 56.15 63.67 55.58 C 60.56 55.59 57.44 55.60 54.33 55.60 C 54.32 56.17 54.29 57.31 54.28 57.88 M 54.31 64.25 C 57.44 64.25 60.57 64.25 63.70 64.25 C 63.70 63.62 63.70 62.35 63.71 61.71 C 60.58 61.72 57.45 61.73 54.32 61.73 C 54.31 62.57 54.31 63.41 54.31 64.25 Z" />
</g>
</svg>
