<?xml version="1.0" encoding="UTF-8" ?>
<!DOCTYPE svg PUBLIC "-//W3C//DTD SVG 1.1//EN" "http://www.w3.org/Graphics/SVG/1.1/DTD/svg11.dtd">
<svg width="117px" height="140px" viewBox="0 0 117 140" version="1.1" xmlns="http://www.w3.org/2000/svg">
<g id="#181818ff">
<path fill="#181818" opacity="1.00" d=" M 0.00 0.00 L 117.00 0.00 L 117.00 140.00 L 0.00 140.00 L 0.00 0.00 M 54.15 13.97 C 53.82 16.64 54.08 19.34 54.01 22.02 C 53.98 24.72 54.00 27.43 54.00 30.13 C 53.99 32.80 54.01 35.47 54.01 38.14 C 53.99 40.47 54.01 42.80 54.00 45.14 C 54.05 47.60 53.55 50.53 55.47 52.46 C 57.79 54.99 62.52 54.04 63.61 50.76 C 64.29 48.24 63.93 45.59 63.98 43.02 C 63.99 40.63 64.00 38.25 63.99 35.88 C 63.99 33.19 64.01 30.50 63.99 27.82 C 64.01 25.26 64.01 22.71 63.99 20.16 C 63.82 17.10 64.83 13.12 61.95 11.01 C 59.24 8.80 54.72 10.55 54.15 13.97 M 25.50 22.53 C 23.68 25.94 26.35 29.93 29.76 30.92 C 28.77 31.90 27.83 32.95 27.13 34.15 C 24.83 38.16 23.25 42.54 22.46 47.10 C 22.11 49.43 22.04 51.79 21.97 54.15 C 22.19 58.66 23.20 63.10 24.86 67.29 C 26.56 71.34 29.01 75.03 31.97 78.25 C 38.92 85.79 49.12 90.15 59.38 89.95 C 61.82 90.09 64.27 89.82 66.62 89.14 C 70.31 88.38 73.86 87.06 77.18 85.28 C 77.48 85.54 78.06 86.06 78.35 86.32 C 83.15 89.53 89.77 89.88 94.71 86.78 C 101.23 83.05 103.80 74.19 100.51 67.47 C 99.17 65.06 97.40 62.83 95.03 61.36 C 96.21 55.98 96.27 50.37 95.15 44.97 C 94.88 43.56 94.40 42.20 93.72 40.94 C 97.77 39.63 95.39 33.29 91.33 35.11 C 89.53 31.94 87.41 28.85 84.62 26.45 C 82.77 25.35 80.61 28.24 82.38 29.65 C 84.94 32.45 87.22 35.49 88.90 38.91 C 90.24 42.18 91.02 45.61 91.76 49.05 C 92.14 52.60 91.82 56.15 91.51 59.68 L 91.43 59.77 C 87.89 58.57 83.93 58.89 80.56 60.47 C 73.92 63.49 70.47 71.60 72.68 78.51 C 73.21 79.77 73.71 81.03 74.42 82.20 C 71.85 83.13 69.36 85.03 66.50 84.70 C 68.33 81.57 64.46 77.66 61.34 79.38 C 58.50 80.53 58.49 84.30 60.39 86.32 C 51.80 85.99 43.00 83.33 36.72 77.22 L 36.52 77.26 C 33.33 74.05 30.60 70.37 28.79 66.21 L 28.65 66.25 C 27.55 63.14 26.60 59.97 26.27 56.68 L 26.04 56.56 C 26.03 53.37 26.04 50.18 26.50 47.01 C 27.32 43.42 28.44 39.85 30.41 36.70 C 31.78 33.73 34.33 31.49 35.86 28.72 C 37.43 26.08 37.29 22.30 34.69 20.36 C 31.88 17.68 26.94 19.07 25.50 22.53 Z" />
<path fill="#181818" opacity="1.00" d=" M 89.43 74.25 C 90.24 74.72 91.05 75.19 91.87 75.65 C 92.68 76.16 93.48 76.67 94.27 77.20 C 93.16 80.10 90.31 76.62 88.50 76.07 L 88.26 75.92 C 88.55 75.50 89.13 74.67 89.43 74.25 Z" />
</g>
<g id="#f8d070ff">
<path fill="#f8d070" opacity="1.00" d=" M 54.15 13.97 C 54.72 10.55 59.24 8.80 61.95 11.01 C 64.83 13.12 63.82 17.10 63.99 20.16 C 60.74 21.13 57.40 21.76 54.01 22.02 C 54.08 19.34 53.82 16.64 54.15 13.97 Z" />
</g>
<g id="#50d890ff">
<path fill="#50d890" opacity="1.00" d=" M 25.50 22.53 C 26.94 19.07 31.88 17.68 34.69 20.36 C 37.29 22.30 37.43 26.08 35.86 28.72 C 34.19 30.26 32.06 31.16 29.76 30.92 C 26.35 29.93 23.68 25.94 25.50 22.53 Z" />
</g>
<g id="#f8b860ff">
<path fill="#f8b860" opacity="1.00" d=" M 54.01 22.02 C 57.40 21.76 60.74 21.13 63.99 20.16 C 64.01 22.71 64.01 25.26 63.99 27.82 C 60.63 28.42 57.29 29.18 54.00 30.13 C 54.00 27.43 53.98 24.72 54.01 22.02 Z" />
</g>
<g id="#9060f0ff">
<path fill="#9060f0" opacity="1.00" d=" M 82.38 29.65 C 80.61 28.24 82.77 25.35 84.62 26.45 C 87.41 28.85 89.53 31.94 91.33 35.11 C 90.71 36.56 90.11 38.01 89.53 39.47 L 88.90 38.91 C 87.22 35.49 84.94 32.45 82.38 29.65 Z" />
</g>
<g id="#f8a850ff">
<path fill="#f8a850" opacity="1.00" d=" M 54.00 30.13 C 57.29 29.18 60.63 28.42 63.99 27.82 C 64.01 30.50 63.99 33.19 63.99 35.88 C 60.66 36.62 57.33 37.37 54.01 38.14 C 54.01 35.47 53.99 32.80 54.00 30.13 Z" />
</g>
<g id="#583898ff">
<path fill="#583898" opacity="1.00" d=" M 29.76 30.92 C 32.06 31.16 34.19 30.26 35.86 28.72 C 34.33 31.49 31.78 33.73 30.41 36.70 C 29.72 35.39 28.48 34.64 27.13 34.15 C 27.83 32.95 28.77 31.90 29.76 30.92 Z" />
</g>
<g id="#7858e8ff">
<path fill="#7858e8" opacity="1.00" d=" M 27.13 34.15 C 28.48 34.64 29.72 35.39 30.41 36.70 C 28.44 39.85 27.32 43.42 26.50 47.01 C 25.49 47.04 23.47 47.08 22.46 47.10 C 23.25 42.54 24.83 38.16 27.13 34.15 Z" />
</g>
<g id="#d860d0ff">
<path fill="#d860d0" opacity="1.00" d=" M 91.33 35.11 C 95.39 33.29 97.77 39.63 93.72 40.94 C 92.21 40.81 90.78 40.30 89.53 39.47 C 90.11 38.01 90.71 36.56 91.33 35.11 Z" />
</g>
<g id="#f89848ff">
<path fill="#f89848" opacity="1.00" d=" M 54.01 38.14 C 57.33 37.37 60.66 36.62 63.99 35.88 C 64.00 38.25 63.99 40.63 63.98 43.02 C 60.66 43.72 57.33 44.43 54.00 45.14 C 54.01 42.80 53.99 40.47 54.01 38.14 Z" />
</g>
<g id="#513c9dff">
<path fill="#513c9d" opacity="1.00" d=" M 88.90 38.91 L 89.53 39.47 C 90.78 40.30 92.21 40.81 93.72 40.94 C 94.40 42.20 94.88 43.56 95.15 44.97 C 94.41 45.10 92.93 45.36 92.19 45.49 C 92.03 46.67 91.89 47.86 91.76 49.05 C 91.02 45.61 90.24 42.18 88.90 38.91 Z" />
</g>
<g id="#f88038ff">
<path fill="#f88038" opacity="1.00" d=" M 54.00 45.14 C 57.33 44.43 60.66 43.72 63.98 43.02 C 63.93 45.59 64.29 48.24 63.61 50.76 C 62.52 54.04 57.79 54.99 55.47 52.46 C 53.55 50.53 54.05 47.60 54.00 45.14 Z" />
</g>
<g id="#6050e0ff">
<path fill="#6050e0" opacity="1.00" d=" M 92.19 45.49 C 92.93 45.36 94.41 45.10 95.15 44.97 C 96.27 50.37 96.21 55.98 95.03 61.36 C 93.87 60.77 92.70 60.21 91.51 59.68 C 91.82 56.15 92.14 52.60 91.76 49.05 C 91.89 47.86 92.03 46.67 92.19 45.49 Z" />
<path fill="#6050e0" opacity="1.00" d=" M 22.46 47.10 C 23.47 47.08 25.49 47.04 26.50 47.01 C 26.04 50.18 26.03 53.37 26.04 56.56 C 24.65 55.81 23.29 55.01 21.97 54.15 C 22.04 51.79 22.11 49.43 22.46 47.10 Z" />
</g>
<g id="#5048d8ff">
<path fill="#5048d8" opacity="1.00" d=" M 21.97 54.15 C 23.29 55.01 24.65 55.81 26.04 56.56 L 26.27 56.68 C 26.60 59.97 27.55 63.14 28.65 66.25 C 27.39 66.59 26.13 66.94 24.86 67.29 C 23.20 63.10 22.19 58.66 21.97 54.15 Z" />
</g>
<g id="#f8c868ff">
<path fill="#f8c868" opacity="1.00" d=" M 80.56 60.47 C 83.93 58.89 87.89 58.57 91.43 59.77 C 90.36 61.00 89.22 62.16 88.01 63.25 L 87.71 61.99 C 85.19 61.54 86.19 64.35 85.97 65.87 C 81.40 69.95 77.41 74.62 72.68 78.51 C 70.47 71.60 73.92 63.49 80.56 60.47 Z" />
</g>
<g id="#f8a858ff">
<path fill="#f8a858" opacity="1.00" d=" M 91.43 59.77 L 91.51 59.68 C 92.70 60.21 93.87 60.77 95.03 61.36 C 97.40 62.83 99.17 65.06 100.51 67.47 C 97.50 70.06 94.78 72.95 91.87 75.65 C 91.05 75.19 90.24 74.72 89.43 74.25 C 89.04 74.01 88.27 73.54 87.88 73.30 C 87.91 69.95 88.09 66.60 88.01 63.25 C 89.22 62.16 90.36 61.00 91.43 59.77 Z" />
</g>
<g id="#2a2c59ff">
<path fill="#2a2c59" opacity="1.00" d=" M 85.97 65.87 C 86.19 64.35 85.19 61.54 87.71 61.99 L 88.01 63.25 C 88.09 66.60 87.91 69.95 87.88 73.30 C 88.27 73.54 89.04 74.01 89.43 74.25 C 89.13 74.67 88.55 75.50 88.26 75.92 C 84.98 73.60 86.25 69.25 85.97 65.87 Z" />
</g>
<g id="#3840d0ff">
<path fill="#3840d0" opacity="1.00" d=" M 28.65 66.25 L 28.79 66.21 C 30.60 70.37 33.33 74.05 36.52 77.26 C 35.00 77.58 33.48 77.90 31.97 78.25 C 29.01 75.03 26.56 71.34 24.86 67.29 C 26.13 66.94 27.39 66.59 28.65 66.25 Z" />
</g>
<g id="#f8b058ff">
<path fill="#f8b058" opacity="1.00" d=" M 72.68 78.51 C 77.41 74.62 81.40 69.95 85.97 65.87 C 86.25 69.25 84.98 73.60 88.26 75.92 L 88.50 76.07 C 84.85 79.22 81.41 82.60 78.35 86.32 C 78.06 86.06 77.48 85.54 77.18 85.28 C 76.18 84.33 75.26 83.30 74.42 82.20 C 73.71 81.03 73.21 79.77 72.68 78.51 Z" />
</g>
<g id="#f89048ff">
<path fill="#f89048" opacity="1.00" d=" M 91.87 75.65 C 94.78 72.95 97.50 70.06 100.51 67.47 C 103.80 74.19 101.23 83.05 94.71 86.78 C 89.77 89.88 83.15 89.53 78.35 86.32 C 81.41 82.60 84.85 79.22 88.50 76.07 C 90.31 76.62 93.16 80.10 94.27 77.20 C 93.48 76.67 92.68 76.16 91.87 75.65 Z" />
</g>
<g id="#2038c0ff">
<path fill="#2038c0" opacity="1.00" d=" M 36.52 77.26 L 36.72 77.22 C 43.00 83.33 51.80 85.99 60.39 86.32 C 60.45 86.33 60.58 86.35 60.64 86.36 C 59.72 87.36 59.30 88.56 59.38 89.95 C 49.12 90.15 38.92 85.79 31.97 78.25 C 33.48 77.90 35.00 77.58 36.52 77.26 Z" />
<path fill="#2038c0" opacity="1.00" d=" M 74.42 82.20 C 75.26 83.30 76.18 84.33 77.18 85.28 C 73.86 87.06 70.31 88.38 66.62 89.14 C 66.52 87.85 66.41 86.57 66.35 85.29 C 66.39 85.14 66.46 84.85 66.50 84.70 C 69.36 85.03 71.85 83.13 74.42 82.20 Z" />
</g>
<g id="#38b8e8ff">
<path fill="#38b8e8" opacity="1.00" d=" M 61.34 79.38 C 64.46 77.66 68.33 81.57 66.50 84.70 C 66.46 84.85 66.39 85.14 66.35 85.29 C 64.89 87.02 62.62 87.07 60.64 86.36 C 60.58 86.35 60.45 86.33 60.39 86.32 C 58.49 84.30 58.50 80.53 61.34 79.38 Z" />
</g>
<g id="#102078ff">
<path fill="#102078" opacity="1.00" d=" M 60.64 86.36 C 62.62 87.07 64.89 87.02 66.35 85.29 C 66.41 86.57 66.52 87.85 66.62 89.14 C 64.27 89.82 61.82 90.09 59.38 89.95 C 59.30 88.56 59.72 87.36 60.64 86.36 Z" />
</g>
</svg>
