<?xml version="1.0" encoding="UTF-8" ?>
<!DOCTYPE svg PUBLIC "-//W3C//DTD SVG 1.1//EN" "http://www.w3.org/Graphics/SVG/1.1/DTD/svg11.dtd">
<svg width="117px" height="92px" viewBox="0 0 117 92" version="1.1" xmlns="http://www.w3.org/2000/svg">
<g id="#181818ff">
<path fill="#181818" opacity="1.00" d=" M 0.00 0.00 L 117.00 0.00 L 117.00 92.00 L 0.00 92.00 L 0.00 0.00 M 55.47 25.39 C 42.94 37.90 30.53 50.54 17.96 63.01 C 16.89 64.22 16.18 65.68 15.24 66.99 C 16.20 68.23 16.62 70.14 18.31 70.62 C 21.18 71.06 24.09 70.88 26.98 70.86 C 48.31 70.86 69.65 70.87 90.98 70.86 C 93.87 70.86 96.79 71.07 99.66 70.62 C 101.35 70.17 101.79 68.25 102.77 67.03 C 101.81 65.69 101.10 64.18 99.99 62.96 C 89.11 52.16 78.34 41.24 67.52 30.39 C 65.32 28.26 63.37 25.83 60.85 24.08 C 59.01 23.00 56.79 23.93 55.47 25.39 Z" />
</g>
<g id="#4144d7ff">
<path fill="#4144d7" opacity="1.00" d=" M 55.47 25.39 C 56.79 23.93 59.01 23.00 60.85 24.08 C 63.37 25.83 65.32 28.26 67.52 30.39 C 78.34 41.24 89.11 52.16 99.99 62.96 C 101.10 64.18 101.81 65.69 102.77 67.03 C 101.79 68.25 101.35 70.17 99.66 70.62 C 96.79 71.07 93.87 70.86 90.98 70.86 C 69.65 70.87 48.31 70.86 26.98 70.86 C 24.09 70.88 21.18 71.06 18.31 70.62 C 16.62 70.14 16.20 68.23 15.24 66.99 C 16.18 65.68 16.89 64.22 17.96 63.01 C 30.53 50.54 42.94 37.90 55.47 25.39 Z" />
</g>
</svg>
