<?xml version="1.0" encoding="UTF-8" ?>
<!DOCTYPE svg PUBLIC "-//W3C//DTD SVG 1.1//EN" "http://www.w3.org/Graphics/SVG/1.1/DTD/svg11.dtd">
<svg width="117px" height="140px" viewBox="0 0 117 140" version="1.1" xmlns="http://www.w3.org/2000/svg">
<g id="#181818ff">
<path fill="#181818" opacity="1.00" d=" M 0.00 0.00 L 117.00 0.00 L 117.00 140.00 L 0.00 140.00 L 0.00 0.00 M 46.11 15.89 C 45.77 24.32 46.26 32.76 46.03 41.19 C 45.96 46.17 46.00 51.16 46.01 56.14 C 41.30 59.93 38.13 65.26 37.00 71.20 C 36.44 78.82 39.40 86.81 45.67 91.40 C 53.81 97.89 66.56 97.25 74.02 89.98 C 79.33 85.23 81.37 77.94 81.10 71.00 L 80.64 71.40 C 80.41 65.24 76.52 60.01 71.99 56.16 C 71.99 51.29 72.04 46.42 71.96 41.54 C 71.75 32.98 72.23 24.41 71.88 15.85 C 71.57 9.31 65.50 3.85 59.00 3.98 C 52.49 3.85 46.41 9.34 46.11 15.89 M 33.20 23.18 C 29.04 24.35 27.39 30.26 30.80 33.13 C 33.88 36.57 40.14 34.43 40.75 29.96 C 41.70 25.82 37.22 21.76 33.20 23.18 M 83.32 48.38 C 80.86 49.39 80.19 53.03 82.27 54.76 C 84.44 57.14 89.03 55.27 88.81 52.01 C 89.10 49.23 85.75 47.09 83.32 48.38 M 33.93 86.86 C 32.16 88.05 33.17 90.27 34.30 91.53 L 33.80 92.05 C 37.21 93.00 39.95 90.22 39.08 86.83 L 38.56 87.31 C 37.33 86.22 35.16 85.15 33.93 86.86 Z" />
<path fill="#181818" opacity="1.00" d=" M 50.07 16.94 C 49.96 12.16 54.26 7.94 59.02 8.03 C 63.75 7.96 68.03 12.16 67.93 16.93 C 68.13 25.17 68.06 33.42 68.04 41.66 C 67.97 47.15 67.99 52.64 68.02 58.12 C 73.30 61.93 77.16 67.74 77.22 74.42 C 76.44 80.31 73.70 86.25 68.38 89.31 C 60.75 94.23 49.63 92.02 44.47 84.54 C 42.29 81.58 41.40 77.92 40.80 74.35 C 40.84 67.68 44.74 61.92 49.99 58.12 C 50.00 52.51 50.03 46.91 49.97 41.30 C 49.94 33.19 49.86 25.06 50.07 16.94 M 55.16 12.12 C 53.53 12.84 53.50 15.21 55.19 15.87 C 57.72 16.16 60.30 16.16 62.83 15.87 C 64.48 15.16 64.49 12.77 62.79 12.13 C 60.26 11.83 57.69 11.85 55.16 12.12 M 55.15 18.13 C 53.54 18.85 53.50 21.20 55.19 21.86 C 57.73 22.17 60.32 22.16 62.86 21.85 C 64.45 21.13 64.44 18.83 62.83 18.13 C 60.29 17.84 57.70 17.84 55.15 18.13 M 55.15 24.15 C 53.57 24.82 53.53 27.20 55.17 27.82 C 57.72 28.18 60.33 28.16 62.88 27.85 C 64.36 27.08 64.44 24.83 62.83 24.15 C 60.29 23.84 57.69 23.83 55.15 24.15 M 55.13 30.16 C 53.63 30.86 53.57 33.15 55.13 33.81 C 57.70 34.18 60.33 34.16 62.89 33.83 C 64.31 33.06 64.44 30.85 62.87 30.17 C 60.31 29.83 57.69 29.84 55.13 30.16 M 55.18 36.18 C 54.90 36.42 54.34 36.89 54.06 37.13 C 53.41 41.09 58.60 39.90 61.00 40.01 C 63.41 40.77 65.35 37.24 62.78 36.20 C 60.27 35.82 57.69 35.83 55.18 36.18 M 54.37 45.30 C 53.59 50.55 54.27 55.89 54.07 61.18 L 53.10 61.23 C 47.99 63.75 44.45 69.30 45.07 75.07 C 45.46 82.49 52.62 88.67 60.03 87.88 C 68.23 87.57 74.60 78.96 72.66 71.01 C 71.86 66.03 67.69 62.86 63.79 60.22 C 63.84 55.24 64.37 50.19 63.61 45.25 C 62.33 41.04 55.60 41.08 54.37 45.30 Z" />
</g>
<g id="#835cf0ff">
<path fill="#835cf0" opacity="1.00" d=" M 46.11 15.89 C 46.41 9.34 52.49 3.85 59.00 3.98 C 65.50 3.85 71.57 9.31 71.88 15.85 C 72.23 24.41 71.75 32.98 71.96 41.54 C 70.65 41.58 69.34 41.62 68.04 41.66 C 68.06 33.42 68.13 25.17 67.93 16.93 C 68.03 12.16 63.75 7.96 59.02 8.03 C 54.26 7.94 49.96 12.16 50.07 16.94 C 49.86 25.06 49.94 33.19 49.97 41.30 C 48.65 41.27 47.34 41.23 46.03 41.19 C 46.26 32.76 45.77 24.32 46.11 15.89 Z" />
</g>
<g id="#f8be64ff">
<path fill="#f8be64" opacity="1.00" d=" M 55.16 12.12 C 57.69 11.85 60.26 11.83 62.79 12.13 C 64.49 12.77 64.48 15.16 62.83 15.87 C 60.30 16.16 57.72 16.16 55.19 15.87 C 53.50 15.21 53.53 12.84 55.16 12.12 Z" />
<path fill="#f8be64" opacity="1.00" d=" M 55.15 18.13 C 57.70 17.84 60.29 17.84 62.83 18.13 C 64.44 18.83 64.45 21.13 62.86 21.85 C 60.32 22.16 57.73 22.17 55.19 21.86 C 53.50 21.20 53.54 18.85 55.15 18.13 Z" />
<path fill="#f8be64" opacity="1.00" d=" M 55.15 24.15 C 57.69 23.83 60.29 23.84 62.83 24.15 C 64.44 24.83 64.36 27.08 62.88 27.85 C 60.33 28.16 57.72 28.18 55.17 27.82 C 53.53 27.20 53.57 24.82 55.15 24.15 Z" />
<path fill="#f8be64" opacity="1.00" d=" M 55.13 30.16 C 57.69 29.84 60.31 29.83 62.87 30.17 C 64.44 30.85 64.31 33.06 62.89 33.83 C 60.33 34.16 57.70 34.18 55.13 33.81 C 53.57 33.15 53.63 30.86 55.13 30.16 Z" />
<path fill="#f8be64" opacity="1.00" d=" M 55.18 36.18 C 57.69 35.83 60.27 35.82 62.78 36.20 C 65.35 37.24 63.41 40.77 61.00 40.01 C 58.60 39.90 53.41 41.09 54.06 37.13 C 54.34 36.89 54.90 36.42 55.18 36.18 Z" />
<path fill="#f8be64" opacity="1.00" d=" M 54.37 45.30 C 55.60 41.08 62.33 41.04 63.61 45.25 C 64.37 50.19 63.84 55.24 63.79 60.22 C 60.55 60.60 57.32 61.01 54.07 61.18 C 54.27 55.89 53.59 50.55 54.37 45.30 Z" />
</g>
<g id="#42b7caff">
<path fill="#42b7ca" opacity="1.00" d=" M 33.20 23.18 C 37.22 21.76 41.70 25.82 40.75 29.96 C 40.14 34.43 33.88 36.57 30.80 33.13 C 27.39 30.26 29.04 24.35 33.20 23.18 Z" />
</g>
<g id="#544bdeff">
<path fill="#544bde" opacity="1.00" d=" M 46.03 41.19 C 47.34 41.23 48.65 41.27 49.97 41.30 C 50.03 46.91 50.00 52.51 49.99 58.12 C 44.74 61.92 40.84 67.68 40.80 74.35 C 39.56 73.27 38.30 72.22 37.00 71.20 C 38.13 65.26 41.30 59.93 46.01 56.14 C 46.00 51.16 45.96 46.17 46.03 41.19 Z" />
<path fill="#544bde" opacity="1.00" d=" M 68.04 41.66 C 69.34 41.62 70.65 41.58 71.96 41.54 C 72.04 46.42 71.99 51.29 71.99 56.16 C 76.52 60.01 80.41 65.24 80.64 71.40 C 79.49 72.40 78.34 73.40 77.22 74.42 C 77.16 67.74 73.30 61.93 68.02 58.12 C 67.99 52.64 67.97 47.15 68.04 41.66 Z" />
<path fill="#544bde" opacity="1.00" d=" M 33.93 86.86 C 35.16 85.15 37.33 86.22 38.56 87.31 C 37.10 88.67 35.67 90.07 34.30 91.53 C 33.17 90.27 32.16 88.05 33.93 86.86 Z" />
</g>
<g id="#f89040ff">
<path fill="#f89040" opacity="1.00" d=" M 83.32 48.38 C 85.75 47.09 89.10 49.23 88.81 52.01 C 89.03 55.27 84.44 57.14 82.27 54.76 C 80.19 53.03 80.86 49.39 83.32 48.38 Z" />
<path fill="#f89040" opacity="1.00" d=" M 54.07 61.18 C 57.32 61.01 60.55 60.60 63.79 60.22 C 67.69 62.86 71.86 66.03 72.66 71.01 C 74.60 78.96 68.23 87.57 60.03 87.88 C 52.62 88.67 45.46 82.49 45.07 75.07 C 44.45 69.30 47.99 63.75 53.10 61.23 L 54.07 61.18 Z" />
</g>
<g id="#2339cbff">
<path fill="#2339cb" opacity="1.00" d=" M 45.67 91.40 C 39.40 86.81 36.44 78.82 37.00 71.20 C 38.30 72.22 39.56 73.27 40.80 74.35 C 41.40 77.92 42.29 81.58 44.47 84.54 C 49.63 92.02 60.75 94.23 68.38 89.31 C 73.70 86.25 76.44 80.31 77.22 74.42 C 78.34 73.40 79.49 72.40 80.64 71.40 L 81.10 71.00 C 81.37 77.94 79.33 85.23 74.02 89.98 C 66.56 97.25 53.81 97.89 45.67 91.40 Z" />
<path fill="#2339cb" opacity="1.00" d=" M 34.30 91.53 C 35.67 90.07 37.10 88.67 38.56 87.31 L 39.08 86.83 C 39.95 90.22 37.21 93.00 33.80 92.05 L 34.30 91.53 Z" />
</g>
</svg>
