<?xml version="1.0" encoding="UTF-8" ?>
<!DOCTYPE svg PUBLIC "-//W3C//DTD SVG 1.1//EN" "http://www.w3.org/Graphics/SVG/1.1/DTD/svg11.dtd">
<svg width="117px" height="140px" viewBox="0 0 117 140" version="1.1" xmlns="http://www.w3.org/2000/svg">
<g id="#181818ff">
<path fill="#181818" opacity="1.00" d=" M 0.00 0.00 L 117.00 0.00 L 117.00 140.00 L 0.00 140.00 L 0.00 0.00 M 57.21 10.37 C 53.59 11.64 53.87 15.97 54.01 19.07 C 53.97 21.76 54.03 24.46 54.01 27.15 C 53.97 29.83 54.02 32.51 54.01 35.19 C 53.97 37.76 54.03 40.32 54.01 42.89 C 54.26 46.07 53.13 49.87 55.46 52.50 C 58.04 55.22 63.25 53.79 63.84 50.01 C 64.17 46.74 63.94 43.43 63.99 40.15 C 63.98 37.67 64.03 35.20 63.99 32.72 C 64.00 29.86 64.02 27.01 63.99 24.15 C 63.99 21.70 64.01 19.26 64.00 16.81 C 64.90 12.97 61.18 8.65 57.21 10.37 M 26.76 20.75 C 23.75 23.48 24.82 28.59 28.36 30.30 L 29.46 30.89 C 29.06 31.48 28.27 32.66 27.87 33.25 C 24.83 37.55 23.09 42.69 22.39 47.88 C 21.13 55.89 22.91 64.24 26.86 71.28 C 29.29 75.67 32.75 79.44 36.70 82.51 C 43.16 87.40 51.28 90.12 59.40 89.92 C 62.93 90.13 66.39 89.16 69.87 88.74 L 69.44 88.42 C 73.78 87.27 77.81 85.13 81.39 82.44 C 86.53 78.45 90.76 73.18 93.20 67.13 C 96.04 59.99 96.84 52.01 95.01 44.52 C 94.76 43.26 94.37 42.01 93.65 40.94 C 97.83 39.83 95.40 33.08 91.35 35.22 C 89.74 32.08 87.57 29.22 85.04 26.76 C 83.68 25.28 81.05 27.09 81.84 28.96 C 84.47 32.06 87.16 35.17 88.87 38.90 C 89.79 41.51 90.86 44.06 91.34 46.80 C 92.72 53.27 91.77 60.06 89.37 66.17 L 89.21 66.14 C 86.60 72.29 81.98 77.46 76.41 81.09 C 73.42 82.70 70.34 84.10 67.10 85.15 L 66.79 84.04 C 67.95 80.69 63.59 77.53 60.79 79.70 C 58.40 81.12 58.62 84.58 60.54 86.33 C 54.19 85.98 47.82 84.68 42.26 81.48 C 37.60 78.66 33.70 74.71 30.79 70.12 L 30.72 70.14 C 27.72 65.04 26.14 59.20 25.97 53.30 C 25.92 46.82 27.99 40.52 31.23 34.96 C 32.77 32.91 35.13 30.93 35.95 28.54 C 36.91 26.64 37.57 24.14 36.25 22.24 C 34.54 18.74 29.43 17.81 26.76 20.75 Z" />
</g>
<g id="#f8dc78ff">
<path fill="#f8dc78" opacity="1.00" d=" M 57.21 10.37 C 61.18 8.65 64.90 12.97 64.00 16.81 C 60.62 17.33 57.28 18.05 54.01 19.07 C 53.87 15.97 53.59 11.64 57.21 10.37 Z" />
</g>
<g id="#f8c868ff">
<path fill="#f8c868" opacity="1.00" d=" M 54.01 19.07 C 57.28 18.05 60.62 17.33 64.00 16.81 C 64.01 19.26 63.99 21.70 63.99 24.15 C 60.68 25.20 57.33 26.14 54.01 27.15 C 54.03 24.46 53.97 21.76 54.01 19.07 Z" />
</g>
<g id="#58e498ff">
<path fill="#58e498" opacity="1.00" d=" M 26.76 20.75 C 29.43 17.81 34.54 18.74 36.25 22.24 C 33.50 24.81 30.84 27.47 28.36 30.30 C 24.82 28.59 23.75 23.48 26.76 20.75 Z" />
</g>
<g id="#40d488ff">
<path fill="#40d488" opacity="1.00" d=" M 28.36 30.30 C 30.84 27.47 33.50 24.81 36.25 22.24 C 37.57 24.14 36.91 26.64 35.95 28.54 C 34.21 30.24 31.93 31.38 29.46 30.89 L 28.36 30.30 Z" />
</g>
<g id="#f8b458ff">
<path fill="#f8b458" opacity="1.00" d=" M 54.01 27.15 C 57.33 26.14 60.68 25.20 63.99 24.15 C 64.02 27.01 64.00 29.86 63.99 32.72 C 60.63 33.41 57.30 34.25 54.01 35.19 C 54.02 32.51 53.97 29.83 54.01 27.15 Z" />
</g>
<g id="#9060f8ff">
<path fill="#9060f8" opacity="1.00" d=" M 81.84 28.96 C 81.05 27.09 83.68 25.28 85.04 26.76 C 87.57 29.22 89.74 32.08 91.35 35.22 C 90.55 36.52 90.00 37.94 89.65 39.43 L 88.87 38.90 C 87.16 35.17 84.47 32.06 81.84 28.96 Z" />
</g>
<g id="#4b3f83ff">
<path fill="#4b3f83" opacity="1.00" d=" M 29.46 30.89 C 31.93 31.38 34.21 30.24 35.95 28.54 C 35.13 30.93 32.77 32.91 31.23 34.96 C 30.11 34.39 28.99 33.83 27.87 33.25 C 28.27 32.66 29.06 31.48 29.46 30.89 Z" />
</g>
<g id="#7858e8ff">
<path fill="#7858e8" opacity="1.00" d=" M 27.87 33.25 C 28.99 33.83 30.11 34.39 31.23 34.96 C 27.99 40.52 25.92 46.82 25.97 53.30 C 25.33 53.07 24.05 52.61 23.41 52.39 C 22.85 50.94 22.58 49.41 22.39 47.88 C 23.09 42.69 24.83 37.55 27.87 33.25 Z" />
</g>
<g id="#f8a050ff">
<path fill="#f8a050" opacity="1.00" d=" M 54.01 35.19 C 57.30 34.25 60.63 33.41 63.99 32.72 C 64.03 35.20 63.98 37.67 63.99 40.15 C 60.70 41.19 57.35 42.02 54.01 42.89 C 54.03 40.32 53.97 37.76 54.01 35.19 Z" />
</g>
<g id="#e060d0ff">
<path fill="#e060d0" opacity="1.00" d=" M 91.35 35.22 C 95.40 33.08 97.83 39.83 93.65 40.94 C 92.19 40.82 90.83 40.28 89.65 39.43 C 90.00 37.94 90.55 36.52 91.35 35.22 Z" />
</g>
<g id="#553ea8ff">
<path fill="#553ea8" opacity="1.00" d=" M 88.87 38.90 L 89.65 39.43 C 90.83 40.28 92.19 40.82 93.65 40.94 C 94.37 42.01 94.76 43.26 95.01 44.52 C 93.67 45.09 92.27 45.63 91.34 46.80 C 90.86 44.06 89.79 41.51 88.87 38.90 Z" />
</g>
<g id="#f88838ff">
<path fill="#f88838" opacity="1.00" d=" M 54.01 42.89 C 57.35 42.02 60.70 41.19 63.99 40.15 C 63.94 43.43 64.17 46.74 63.84 50.01 C 63.25 53.79 58.04 55.22 55.46 52.50 C 53.13 49.87 54.26 46.07 54.01 42.89 Z" />
</g>
<g id="#6050e0ff">
<path fill="#6050e0" opacity="1.00" d=" M 91.34 46.80 C 92.27 45.63 93.67 45.09 95.01 44.52 C 96.84 52.01 96.04 59.99 93.20 67.13 C 91.92 66.80 90.64 66.48 89.37 66.17 C 91.77 60.06 92.72 53.27 91.34 46.80 Z" />
</g>
<g id="#5048e0ff">
<path fill="#5048e0" opacity="1.00" d=" M 26.86 71.28 C 22.91 64.24 21.13 55.89 22.39 47.88 C 22.58 49.41 22.85 50.94 23.41 52.39 C 24.05 52.61 25.33 53.07 25.97 53.30 C 26.14 59.20 27.72 65.04 30.72 70.14 C 29.43 70.51 28.14 70.89 26.86 71.28 Z" />
</g>
<g id="#3040d0ff">
<path fill="#3040d0" opacity="1.00" d=" M 89.21 66.14 L 89.37 66.17 C 90.64 66.48 91.92 66.80 93.20 67.13 C 90.76 73.18 86.53 78.45 81.39 82.44 C 79.73 81.98 78.07 81.55 76.41 81.09 C 81.98 77.46 86.60 72.29 89.21 66.14 Z" />
</g>
<g id="#303cd0ff">
<path fill="#303cd0" opacity="1.00" d=" M 30.72 70.14 L 30.79 70.12 C 33.70 74.71 37.60 78.66 42.26 81.48 C 40.41 81.85 38.55 82.17 36.70 82.51 C 32.75 79.44 29.29 75.67 26.86 71.28 C 28.14 70.89 29.43 70.51 30.72 70.14 Z" />
</g>
<g id="#38c0f0ff">
<path fill="#38c0f0" opacity="1.00" d=" M 60.79 79.70 C 63.59 77.53 67.95 80.69 66.79 84.04 C 65.92 86.62 63.03 87.54 60.65 86.35 C 60.63 86.34 60.57 86.33 60.54 86.33 C 58.62 84.58 58.40 81.12 60.79 79.70 Z" />
</g>
<g id="#2038c8ff">
<path fill="#2038c8" opacity="1.00" d=" M 67.10 85.15 C 70.34 84.10 73.42 82.70 76.41 81.09 C 78.07 81.55 79.73 81.98 81.39 82.44 C 77.81 85.13 73.78 87.27 69.44 88.42 C 69.01 88.11 68.15 87.48 67.72 87.17 C 67.56 86.66 67.26 85.65 67.10 85.15 Z" />
</g>
<g id="#1834c8ff">
<path fill="#1834c8" opacity="1.00" d=" M 36.70 82.51 C 38.55 82.17 40.41 81.85 42.26 81.48 C 47.82 84.68 54.19 85.98 60.54 86.33 C 60.57 86.33 60.63 86.34 60.65 86.35 C 59.88 87.41 59.46 88.60 59.40 89.92 C 51.28 90.12 43.16 87.40 36.70 82.51 Z" />
</g>
<g id="#102080ff">
<path fill="#102080" opacity="1.00" d=" M 60.65 86.35 C 63.03 87.54 65.92 86.62 66.79 84.04 L 67.10 85.15 C 67.26 85.65 67.56 86.66 67.72 87.17 C 68.15 87.48 69.01 88.11 69.44 88.42 L 69.87 88.74 C 66.39 89.16 62.93 90.13 59.40 89.92 C 59.46 88.60 59.88 87.41 60.65 86.35 Z" />
</g>
</svg>
