<?xml version="1.0" encoding="UTF-8" ?>
<!DOCTYPE svg PUBLIC "-//W3C//DTD SVG 1.1//EN" "http://www.w3.org/Graphics/SVG/1.1/DTD/svg11.dtd">
<svg width="117px" height="140px" viewBox="0 0 117 140" version="1.1" xmlns="http://www.w3.org/2000/svg">
<g id="#181818ff">
<path fill="#181818" opacity="1.00" d=" M 0.00 0.00 L 117.00 0.00 L 117.00 140.00 L 0.00 140.00 L 0.00 0.00 M 45.35 15.34 C 43.14 16.25 42.38 19.14 43.58 21.14 C 40.45 21.63 35.76 19.42 33.71 22.53 L 33.87 23.49 L 34.28 24.20 C 34.19 24.52 34.01 25.15 33.92 25.46 C 33.92 27.01 33.63 28.54 33.01 29.96 C 30.75 35.53 28.85 41.24 26.63 46.83 C 26.22 48.02 25.32 48.65 23.95 48.72 C 24.97 51.36 26.69 53.60 28.75 55.51 C 31.62 56.81 34.79 57.93 37.97 57.17 C 42.35 56.39 45.80 52.92 47.16 48.77 C 46.68 48.59 45.70 48.23 45.21 48.05 C 42.78 43.43 41.93 38.08 39.34 33.57 C 38.62 30.63 37.55 27.78 36.43 24.97 C 40.95 25.18 45.44 24.38 49.96 24.60 C 51.21 24.76 52.47 24.93 53.73 25.10 C 54.86 26.49 56.15 27.74 57.55 28.84 C 57.60 30.20 57.63 31.56 57.65 32.92 C 57.59 36.94 57.63 40.95 57.60 44.97 C 57.59 48.96 57.63 52.95 57.63 56.94 C 57.62 60.94 57.63 64.94 57.60 68.93 C 57.63 70.57 57.67 72.22 57.72 73.86 C 52.41 74.15 47.09 73.90 41.78 74.06 C 40.65 74.02 39.52 73.98 38.38 73.95 C 36.52 74.16 34.34 73.56 32.68 74.59 C 31.17 77.58 30.16 80.83 29.49 84.11 C 29.15 86.14 31.72 85.87 32.98 85.99 C 50.66 86.02 68.34 85.98 86.03 86.01 C 87.19 85.80 89.31 86.27 89.68 84.73 C 89.75 82.13 88.45 79.71 87.79 77.24 L 87.77 77.24 C 87.02 76.07 86.90 73.89 85.03 74.10 C 77.19 73.73 69.32 74.29 61.48 73.83 C 61.54 72.24 61.59 70.65 61.64 69.05 C 61.62 65.02 61.64 61.00 61.61 56.97 C 61.62 53.00 61.66 49.02 61.62 45.05 C 61.59 41.00 61.65 36.94 61.62 32.89 C 61.61 31.57 61.61 30.25 61.63 28.93 C 63.06 27.83 64.37 26.58 65.40 25.09 C 71.06 24.87 76.72 24.93 82.37 25.06 C 79.56 32.78 76.60 40.44 73.81 48.17 C 73.22 48.29 72.03 48.54 71.44 48.66 C 72.62 51.32 74.34 53.69 76.53 55.61 C 78.73 56.27 81.43 58.20 83.61 56.91 C 82.55 59.12 83.17 61.53 83.99 63.70 C 86.47 66.01 90.63 66.95 93.11 64.11 C 95.97 61.62 95.00 57.45 92.72 54.95 C 92.21 54.73 91.20 54.31 90.69 54.09 C 93.14 53.73 93.69 50.60 94.92 48.85 C 94.01 48.45 93.12 48.03 92.24 47.57 C 89.76 39.98 86.97 32.48 83.95 25.10 C 85.36 24.52 85.86 23.50 85.45 22.05 C 84.53 20.57 82.48 21.19 81.04 20.97 C 75.84 20.97 70.65 21.07 65.46 20.94 C 64.05 18.72 61.83 16.54 58.95 17.06 C 56.53 17.16 55.07 19.23 53.72 20.96 C 52.91 21.02 51.27 21.14 50.45 21.20 C 50.87 19.42 50.77 17.60 50.12 15.89 L 49.98 16.05 C 48.49 15.60 46.92 14.46 45.35 15.34 Z" />
<path fill="#181818" opacity="1.00" d=" M 57.93 25.10 C 56.70 22.67 58.27 20.49 60.99 20.74 C 61.19 21.32 61.58 22.48 61.78 23.06 C 61.73 25.13 59.43 25.04 57.93 25.10 Z" />
<path fill="#181818" opacity="1.00" d=" M 35.53 26.09 C 36.39 28.20 37.24 30.31 38.16 32.39 C 39.99 37.81 42.07 43.14 44.12 48.48 C 38.49 48.40 32.85 48.39 27.21 48.39 C 29.96 40.94 32.86 33.56 35.53 26.09 Z" />
<path fill="#181818" opacity="1.00" d=" M 74.80 48.46 C 77.63 41.01 80.34 33.51 83.30 26.11 C 85.86 33.06 88.52 39.98 91.14 46.92 L 91.70 48.41 C 86.07 48.44 80.43 48.29 74.80 48.46 Z" />
<path fill="#181818" opacity="1.00" d=" M 34.06 82.02 C 34.74 80.61 35.37 79.18 36.13 77.81 C 37.40 78.55 38.59 79.46 39.99 79.94 C 41.19 79.51 42.25 78.78 43.32 78.11 C 56.80 77.70 70.30 78.22 83.77 77.87 C 84.19 79.24 84.60 80.62 85.02 82.00 C 68.03 82.01 51.05 81.98 34.06 82.02 Z" />
</g>
<g id="#b8ec10ff">
<path fill="#b8ec10" opacity="1.00" d=" M 45.35 15.34 C 46.92 14.46 48.49 15.60 49.98 16.05 C 48.19 18.14 46.37 20.20 44.52 22.23 C 44.28 21.96 43.82 21.41 43.58 21.14 C 42.38 19.14 43.14 16.25 45.35 15.34 Z" />
</g>
<g id="#78e008ff">
<path fill="#78e008" opacity="1.00" d=" M 49.98 16.05 L 50.12 15.89 C 50.77 17.60 50.87 19.42 50.45 21.20 C 50.42 21.46 50.34 21.97 50.30 22.23 C 48.84 22.66 47.37 23.09 45.89 23.46 C 45.55 23.15 44.86 22.53 44.52 22.23 C 46.37 20.20 48.19 18.14 49.98 16.05 Z" />
</g>
<g id="#9060f8ff">
<path fill="#9060f8" opacity="1.00" d=" M 53.72 20.96 C 55.07 19.23 56.53 17.16 58.95 17.06 C 61.83 16.54 64.05 18.72 65.46 20.94 C 70.65 21.07 75.84 20.97 81.04 20.97 C 82.48 21.19 84.53 20.57 85.45 22.05 C 85.86 23.50 85.36 24.52 83.95 25.10 C 83.56 25.09 82.77 25.07 82.37 25.06 C 76.72 24.93 71.06 24.87 65.40 25.09 C 64.37 26.58 63.06 27.83 61.63 28.93 C 61.61 30.25 61.61 31.57 61.62 32.89 C 60.63 32.89 58.64 32.91 57.65 32.92 C 57.63 31.56 57.60 30.20 57.55 28.84 C 56.15 27.74 54.86 26.49 53.73 25.10 C 52.47 24.93 51.21 24.76 49.96 24.60 C 50.04 24.01 50.22 22.82 50.30 22.23 C 50.34 21.97 50.42 21.46 50.45 21.20 C 51.27 21.14 52.91 21.02 53.72 20.96 M 57.93 25.10 C 59.43 25.04 61.73 25.13 61.78 23.06 C 61.58 22.48 61.19 21.32 60.99 20.74 C 58.27 20.49 56.70 22.67 57.93 25.10 Z" />
</g>
<g id="#9060f0ff">
<path fill="#9060f0" opacity="1.00" d=" M 33.71 22.53 C 35.76 19.42 40.45 21.63 43.58 21.14 C 43.82 21.41 44.28 21.96 44.52 22.23 C 44.86 22.53 45.55 23.15 45.89 23.46 C 47.37 23.09 48.84 22.66 50.30 22.23 C 50.22 22.82 50.04 24.01 49.96 24.60 C 45.44 24.38 40.95 25.18 36.43 24.97 C 35.68 24.81 34.96 24.56 34.28 24.20 L 33.87 23.49 L 33.71 22.53 Z" />
</g>
<g id="#f89c48ff">
<path fill="#f89c48" opacity="1.00" d=" M 34.28 24.20 C 34.96 24.56 35.68 24.81 36.43 24.97 C 37.55 27.78 38.62 30.63 39.34 33.57 L 38.16 32.39 C 37.24 30.31 36.39 28.20 35.53 26.09 C 32.86 33.56 29.96 40.94 27.21 48.39 C 32.85 48.39 38.49 48.40 44.12 48.48 C 38.12 48.58 33.55 52.46 28.75 55.51 C 26.69 53.60 24.97 51.36 23.95 48.72 C 25.32 48.65 26.22 48.02 26.63 46.83 C 28.85 41.24 30.75 35.53 33.01 29.96 C 33.63 28.54 33.92 27.01 33.92 25.46 C 34.01 25.15 34.19 24.52 34.28 24.20 Z" />
<path fill="#f89c48" opacity="1.00" d=" M 82.37 25.06 C 82.77 25.07 83.56 25.09 83.95 25.10 C 86.97 32.48 89.76 39.98 92.24 47.57 L 91.14 46.92 C 88.52 39.98 85.86 33.06 83.30 26.11 C 80.34 33.51 77.63 41.01 74.80 48.46 C 78.52 48.91 82.25 49.16 85.99 49.33 C 82.88 51.48 79.72 53.57 76.53 55.61 C 74.34 53.69 72.62 51.32 71.44 48.66 C 72.03 48.54 73.22 48.29 73.81 48.17 C 76.60 40.44 79.56 32.78 82.37 25.06 Z" />
</g>
<g id="#f88c40ff">
<path fill="#f88c40" opacity="1.00" d=" M 38.16 32.39 L 39.34 33.57 C 41.93 38.08 42.78 43.43 45.21 48.05 C 45.70 48.23 46.68 48.59 47.16 48.77 C 45.80 52.92 42.35 56.39 37.97 57.17 C 34.79 57.93 31.62 56.81 28.75 55.51 C 33.55 52.46 38.12 48.58 44.12 48.48 C 42.07 43.14 39.99 37.81 38.16 32.39 Z" />
<path fill="#f88c40" opacity="1.00" d=" M 91.14 46.92 L 92.24 47.57 C 93.12 48.03 94.01 48.45 94.92 48.85 C 93.69 50.60 93.14 53.73 90.69 54.09 C 87.92 53.74 85.48 54.94 83.61 56.91 C 81.43 58.20 78.73 56.27 76.53 55.61 C 79.72 53.57 82.88 51.48 85.99 49.33 C 82.25 49.16 78.52 48.91 74.80 48.46 C 80.43 48.29 86.07 48.44 91.70 48.41 L 91.14 46.92 Z" />
</g>
<g id="#7054e8ff">
<path fill="#7054e8" opacity="1.00" d=" M 57.65 32.92 C 58.64 32.91 60.63 32.89 61.62 32.89 C 61.65 36.94 61.59 41.00 61.62 45.05 C 60.62 45.03 58.61 44.99 57.60 44.97 C 57.63 40.95 57.59 36.94 57.65 32.92 Z" />
</g>
<g id="#584ce0ff">
<path fill="#584ce0" opacity="1.00" d=" M 57.60 44.97 C 58.61 44.99 60.62 45.03 61.62 45.05 C 61.66 49.02 61.62 53.00 61.61 56.97 C 60.61 56.96 58.63 56.95 57.63 56.94 C 57.63 52.95 57.59 48.96 57.60 44.97 Z" />
</g>
<g id="#50ccd8ff">
<path fill="#50ccd8" opacity="1.00" d=" M 83.61 56.91 C 85.48 54.94 87.92 53.74 90.69 54.09 C 91.20 54.31 92.21 54.73 92.72 54.95 C 90.44 58.43 87.48 61.41 83.99 63.70 C 83.17 61.53 82.55 59.12 83.61 56.91 Z" />
</g>
<g id="#38a0c0ff">
<path fill="#38a0c0" opacity="1.00" d=" M 92.72 54.95 C 95.00 57.45 95.97 61.62 93.11 64.11 C 90.63 66.95 86.47 66.01 83.99 63.70 C 87.48 61.41 90.44 58.43 92.72 54.95 Z" />
</g>
<g id="#4044d8ff">
<path fill="#4044d8" opacity="1.00" d=" M 57.63 56.94 C 58.63 56.95 60.61 56.96 61.61 56.97 C 61.64 61.00 61.62 65.02 61.64 69.05 C 60.63 69.02 58.61 68.96 57.60 68.93 C 57.63 64.94 57.62 60.94 57.63 56.94 Z" />
</g>
<g id="#283cd0ff">
<path fill="#283cd0" opacity="1.00" d=" M 57.60 68.93 C 58.61 68.96 60.63 69.02 61.64 69.05 C 61.59 70.65 61.54 72.24 61.48 73.83 C 69.32 74.29 77.19 73.73 85.03 74.10 C 86.90 73.89 87.02 76.07 87.77 77.24 C 86.44 77.48 85.11 77.71 83.77 77.87 C 70.30 78.22 56.80 77.70 43.32 78.11 C 42.81 76.76 42.30 75.41 41.78 74.06 C 47.09 73.90 52.41 74.15 57.72 73.86 C 57.67 72.22 57.63 70.57 57.60 68.93 Z" />
</g>
<g id="#1834c8ff">
<path fill="#1834c8" opacity="1.00" d=" M 32.68 74.59 C 34.34 73.56 36.52 74.16 38.38 73.95 C 37.61 75.22 36.88 76.52 36.13 77.81 C 35.37 79.18 34.74 80.61 34.06 82.02 C 51.05 81.98 68.03 82.01 85.02 82.00 C 84.60 80.62 84.19 79.24 83.77 77.87 C 85.11 77.71 86.44 77.48 87.77 77.24 L 87.79 77.24 C 88.45 79.71 89.75 82.13 89.68 84.73 C 89.31 86.27 87.19 85.80 86.03 86.01 C 68.34 85.98 50.66 86.02 32.98 85.99 C 31.72 85.87 29.15 86.14 29.49 84.11 C 30.16 80.83 31.17 77.58 32.68 74.59 Z" />
</g>
<g id="#e060d0ff">
<path fill="#e060d0" opacity="1.00" d=" M 38.38 73.95 C 39.52 73.98 40.65 74.02 41.78 74.06 C 42.30 75.41 42.81 76.76 43.32 78.11 C 42.25 78.78 41.19 79.51 39.99 79.94 C 38.59 79.46 37.40 78.55 36.13 77.81 C 36.88 76.52 37.61 75.22 38.38 73.95 Z" />
</g>
</svg>
