<?xml version="1.0" encoding="UTF-8" ?>
<!DOCTYPE svg PUBLIC "-//W3C//DTD SVG 1.1//EN" "http://www.w3.org/Graphics/SVG/1.1/DTD/svg11.dtd">
<svg width="117px" height="140px" viewBox="0 0 117 140" version="1.1" xmlns="http://www.w3.org/2000/svg">
<g id="#181818ff">
<path fill="#181818" opacity="1.00" d=" M 0.00 0.00 L 117.00 0.00 L 117.00 140.00 L 0.00 140.00 L 0.00 0.00 M 30.13 16.85 C 29.78 22.02 30.12 27.22 30.00 32.40 C 29.99 36.08 30.01 39.75 30.01 43.42 C 29.99 50.79 29.98 58.17 30.02 65.55 C 30.26 72.32 29.30 79.21 30.72 85.89 C 32.52 88.05 34.88 90.11 37.89 89.96 C 48.82 90.08 59.76 89.93 70.70 89.96 C 75.62 89.58 81.64 91.46 85.63 87.67 C 88.44 85.10 88.02 81.02 88.00 77.58 C 87.91 70.29 88.07 63.00 87.96 55.71 C 88.00 48.38 88.00 41.06 88.00 33.74 C 88.00 32.50 87.99 31.26 87.98 30.02 C 83.32 29.87 78.61 30.37 73.98 29.69 C 71.55 29.23 69.98 27.19 68.56 25.35 C 67.55 20.29 68.13 15.12 68.00 10.00 C 65.18 9.98 62.35 9.99 59.53 10.05 C 52.33 9.99 45.13 9.94 37.93 10.03 C 34.10 9.94 30.49 13.02 30.13 16.85 M 70.00 9.99 C 70.06 14.03 69.85 18.07 70.05 22.10 C 70.01 25.21 72.82 28.00 75.93 27.94 C 79.94 28.13 83.96 27.90 87.97 27.97 C 81.97 21.99 76.01 15.97 70.00 9.99 Z" />
<path fill="#181818" opacity="1.00" d=" M 32.70 41.14 C 37.72 40.77 42.76 41.07 47.80 40.98 C 55.54 41.03 63.28 40.98 71.02 40.99 L 71.03 42.02 C 57.80 41.94 44.56 42.11 31.33 41.91 L 32.70 41.14 Z" />
<path fill="#181818" opacity="1.00" d=" M 32.00 48.00 C 44.22 48.02 56.44 47.97 68.66 47.99 C 70.44 48.00 72.22 48.00 74.00 48.01 L 74.01 48.99 C 71.23 48.99 68.45 49.02 65.67 49.04 C 54.45 49.00 43.22 49.00 32.00 49.00 L 32.00 48.00 Z" />
<path fill="#181818" opacity="1.00" d=" M 32.00 55.00 C 41.10 55.00 50.19 55.00 59.29 54.95 C 60.22 54.96 62.07 54.99 63.00 55.00 L 63.00 55.98 C 61.14 56.01 59.28 56.02 57.42 56.02 C 48.95 56.03 40.47 55.99 32.00 56.00 L 32.00 55.00 Z" />
<path fill="#181818" opacity="1.00" d=" M 32.64 62.12 C 38.17 61.79 43.72 62.08 49.26 61.95 C 59.38 62.06 69.51 61.96 79.64 61.97 C 80.23 61.97 81.41 61.98 82.01 61.98 L 82.00 62.99 C 80.32 63.00 78.64 63.00 76.96 63.01 C 61.81 63.03 46.67 63.01 31.52 62.97 L 32.64 62.12 Z" />
<path fill="#181818" opacity="1.00" d=" M 32.00 69.00 C 44.61 69.02 57.21 68.96 69.82 68.98 C 70.37 68.98 71.46 68.99 72.00 69.00 L 72.00 70.00 C 65.74 70.02 59.47 69.95 53.21 70.00 C 46.14 70.02 39.07 69.99 32.00 70.00 L 32.00 69.00 Z" />
</g>
<g id="#f8d878ff">
<path fill="#f8d878" opacity="1.00" d=" M 30.13 16.85 C 30.49 13.02 34.10 9.94 37.93 10.03 C 45.13 9.94 52.33 9.99 59.53 10.05 C 50.70 18.76 39.75 24.85 30.00 32.40 C 30.12 27.22 29.78 22.02 30.13 16.85 Z" />
</g>
<g id="#f8c870ff">
<path fill="#f8c870" opacity="1.00" d=" M 59.53 10.05 C 62.35 9.99 65.18 9.98 68.00 10.00 C 68.13 15.12 67.55 20.29 68.56 25.35 C 66.79 27.30 64.88 29.13 62.68 30.57 C 57.62 33.90 52.88 37.68 47.80 40.98 C 42.76 41.07 37.72 40.77 32.70 41.14 L 31.33 41.91 C 31.00 42.29 30.34 43.04 30.01 43.42 C 30.01 39.75 29.99 36.08 30.00 32.40 C 39.75 24.85 50.70 18.76 59.53 10.05 Z" />
</g>
<g id="#f8bc60ff">
<path fill="#f8bc60" opacity="1.00" d=" M 70.00 9.99 C 76.01 15.97 81.97 21.99 87.97 27.97 C 83.96 27.90 79.94 28.13 75.93 27.94 C 72.82 28.00 70.01 25.21 70.05 22.10 C 69.85 18.07 70.06 14.03 70.00 9.99 Z" />
</g>
<g id="#f8b460ff">
<path fill="#f8b460" opacity="1.00" d=" M 68.56 25.35 C 69.98 27.19 71.55 29.23 73.98 29.69 C 78.61 30.37 83.32 29.87 87.98 30.02 C 87.99 31.26 88.00 32.50 88.00 33.74 C 81.53 38.46 74.61 42.57 68.66 47.99 C 56.44 47.97 44.22 48.02 32.00 48.00 L 32.00 49.00 C 43.22 49.00 54.45 49.00 65.67 49.04 C 63.51 50.98 61.33 52.89 59.29 54.95 C 50.19 55.00 41.10 55.00 32.00 55.00 L 32.00 56.00 C 40.47 55.99 48.95 56.03 57.42 56.02 C 54.47 57.67 51.73 59.66 49.26 61.95 C 43.72 62.08 38.17 61.79 32.64 62.12 L 31.52 62.97 C 31.00 63.82 30.50 64.68 30.02 65.55 C 29.98 58.17 29.99 50.79 30.01 43.42 C 30.34 43.04 31.00 42.29 31.33 41.91 C 44.56 42.11 57.80 41.94 71.03 42.02 L 71.02 40.99 C 63.28 40.98 55.54 41.03 47.80 40.98 C 52.88 37.68 57.62 33.90 62.68 30.57 C 64.88 29.13 66.79 27.30 68.56 25.35 Z" />
</g>
<g id="#f8a050ff">
<path fill="#f8a050" opacity="1.00" d=" M 68.66 47.99 C 74.61 42.57 81.53 38.46 88.00 33.74 C 88.00 41.06 88.00 48.38 87.96 55.71 C 85.01 57.55 82.22 59.63 79.64 61.97 C 69.51 61.96 59.38 62.06 49.26 61.95 C 51.73 59.66 54.47 57.67 57.42 56.02 C 59.28 56.02 61.14 56.01 63.00 55.98 L 63.00 55.00 C 62.07 54.99 60.22 54.96 59.29 54.95 C 61.33 52.89 63.51 50.98 65.67 49.04 C 68.45 49.02 71.23 48.99 74.01 48.99 L 74.00 48.01 C 72.22 48.00 70.44 48.00 68.66 47.99 Z" />
</g>
<g id="#f89040ff">
<path fill="#f89040" opacity="1.00" d=" M 79.64 61.97 C 82.22 59.63 85.01 57.55 87.96 55.71 C 88.07 63.00 87.91 70.29 88.00 77.58 C 81.77 81.02 75.71 84.85 70.70 89.96 C 59.76 89.93 48.82 90.08 37.89 89.96 C 34.88 90.11 32.52 88.05 30.72 85.89 C 38.59 81.13 45.64 75.17 53.21 70.00 C 59.47 69.95 65.74 70.02 72.00 70.00 L 72.00 69.00 C 71.46 68.99 70.37 68.98 69.82 68.98 C 72.16 66.94 74.56 64.97 76.96 63.01 C 78.64 63.00 80.32 63.00 82.00 62.99 L 82.01 61.98 C 81.41 61.98 80.23 61.97 79.64 61.97 Z" />
</g>
<g id="#f8a450ff">
<path fill="#f8a450" opacity="1.00" d=" M 31.52 62.97 C 46.67 63.01 61.81 63.03 76.96 63.01 C 74.56 64.97 72.16 66.94 69.82 68.98 C 57.21 68.96 44.61 69.02 32.00 69.00 L 32.00 70.00 C 39.07 69.99 46.14 70.02 53.21 70.00 C 45.64 75.17 38.59 81.13 30.72 85.89 C 29.30 79.21 30.26 72.32 30.02 65.55 C 30.50 64.68 31.00 63.82 31.52 62.97 Z" />
</g>
<g id="#f87c30ff">
<path fill="#f87c30" opacity="1.00" d=" M 70.70 89.96 C 75.71 84.85 81.77 81.02 88.00 77.58 C 88.02 81.02 88.44 85.10 85.63 87.67 C 81.64 91.46 75.62 89.58 70.70 89.96 Z" />
</g>
</svg>
