<?xml version="1.0" encoding="UTF-8" ?>
<!DOCTYPE svg PUBLIC "-//W3C//DTD SVG 1.1//EN" "http://www.w3.org/Graphics/SVG/1.1/DTD/svg11.dtd">
<svg width="117px" height="140px" viewBox="0 0 117 140" version="1.1" xmlns="http://www.w3.org/2000/svg">
<g id="#181818ff">
<path fill="#181818" opacity="1.00" d=" M 0.00 0.00 L 117.00 0.00 L 117.00 140.00 L 0.00 140.00 L 0.00 0.00 M 29.80 27.85 C 28.51 28.16 26.91 27.86 25.89 28.88 C 24.49 30.00 25.39 31.84 25.44 33.31 C 24.81 34.14 24.22 35.01 23.67 35.91 C 21.74 40.36 19.80 44.91 19.38 49.80 C 18.66 54.57 19.12 59.40 19.99 64.11 C 21.08 68.12 22.62 71.98 24.66 75.61 C 26.66 78.47 28.57 81.50 31.35 83.69 C 32.84 84.41 34.98 82.63 33.84 81.07 C 32.22 78.58 30.06 76.49 28.43 74.00 C 27.95 73.09 27.47 72.18 26.98 71.27 C 28.72 70.27 32.63 69.64 31.44 66.81 C 29.74 64.66 27.10 67.07 25.09 67.48 C 24.81 66.44 24.53 65.40 24.25 64.36 C 23.95 62.93 23.65 61.49 23.36 60.06 C 24.95 59.81 26.60 59.82 28.13 59.28 C 29.47 58.87 29.35 56.18 27.93 55.83 C 26.26 55.61 24.48 56.06 22.87 55.52 C 23.08 53.07 23.33 50.64 23.59 48.20 C 25.62 48.44 28.64 50.13 29.95 47.76 C 30.37 44.82 26.61 44.83 24.65 44.13 C 25.57 41.94 26.40 39.72 27.15 37.47 C 27.66 37.60 28.67 37.87 29.17 38.00 C 30.67 38.79 32.23 40.28 33.91 38.95 C 35.11 36.82 32.92 35.50 31.56 34.27 C 31.12 34.23 30.24 34.14 29.80 34.10 C 31.39 31.77 33.22 29.58 35.49 27.89 C 36.80 29.21 37.70 32.10 39.97 31.66 C 43.09 29.96 39.63 27.15 38.51 25.30 C 40.74 23.92 43.03 22.60 45.57 21.86 C 46.37 23.59 46.38 27.04 49.08 26.70 C 52.07 25.60 49.52 22.32 49.29 20.31 C 51.81 19.75 54.35 19.34 56.91 18.99 C 56.98 20.63 56.98 22.28 57.20 23.91 C 57.94 25.28 60.13 25.34 60.78 23.86 C 61.03 22.25 61.02 20.62 61.10 18.99 C 63.65 19.33 66.20 19.74 68.71 20.33 C 68.52 22.24 66.57 24.45 67.98 26.26 C 71.11 28.13 71.69 23.55 72.83 21.61 C 75.06 22.82 77.29 24.02 79.51 25.25 C 78.32 27.19 75.01 29.87 77.98 31.76 C 80.26 31.76 81.16 29.23 82.84 28.11 C 84.61 29.95 86.25 31.92 88.14 33.66 C 86.40 34.88 82.50 36.10 84.21 38.88 C 86.35 40.59 88.37 37.86 90.28 37.09 C 91.43 39.42 92.66 41.78 93.05 44.39 C 91.13 44.90 87.43 44.90 88.07 47.86 C 89.48 50.08 92.34 48.43 94.38 48.21 C 94.62 50.33 94.90 52.44 95.29 54.53 C 95.11 54.86 94.74 55.53 94.56 55.86 C 92.57 55.91 88.69 54.71 88.92 57.98 C 89.49 60.41 92.84 59.45 94.61 60.02 C 94.23 62.09 93.81 64.15 93.36 66.21 C 93.11 66.51 92.62 67.12 92.38 67.43 C 90.54 66.79 87.28 64.36 86.35 67.41 C 86.07 69.93 89.40 70.25 91.02 71.27 C 90.50 72.23 89.99 73.19 89.48 74.15 C 87.82 76.56 85.77 78.66 84.14 81.08 C 83.11 82.76 85.13 84.40 86.70 83.65 C 89.47 81.46 91.38 78.42 93.38 75.55 C 94.87 72.79 96.13 69.92 97.21 66.98 C 98.71 61.44 99.44 55.67 98.71 49.95 L 98.57 50.34 C 98.30 44.79 96.15 39.51 93.48 34.70 L 93.03 34.64 C 92.31 33.45 91.92 31.87 90.61 31.16 C 94.12 30.89 97.49 27.78 96.88 24.08 C 96.67 21.67 94.59 20.24 92.79 18.98 C 89.13 18.42 85.16 20.81 85.01 24.74 C 69.74 10.70 43.39 12.15 29.80 27.85 M 55.40 50.38 L 55.20 50.22 C 54.59 53.47 53.45 56.85 54.80 60.07 L 54.96 60.00 C 56.94 62.43 61.07 62.63 62.94 60.00 C 64.32 58.38 63.82 56.18 63.77 54.25 C 63.29 52.68 62.86 51.09 62.46 49.50 C 61.43 45.58 60.40 41.65 59.28 37.75 C 56.93 41.50 56.67 46.20 55.40 50.38 M 52.13 82.59 C 52.80 83.30 53.45 84.03 54.07 84.79 C 57.79 86.10 60.92 82.57 60.02 78.94 L 59.64 79.45 C 59.01 78.68 58.38 77.90 57.76 77.13 C 54.34 76.04 51.04 79.10 52.13 82.59 Z" />
</g>
<g id="#9060f8ff">
<path fill="#9060f8" opacity="1.00" d=" M 29.80 27.85 C 43.39 12.15 69.74 10.70 85.01 24.74 C 84.90 25.23 84.69 26.19 84.58 26.68 C 84.00 27.16 83.42 27.63 82.84 28.11 C 81.16 29.23 80.26 31.76 77.98 31.76 C 75.01 29.87 78.32 27.19 79.51 25.25 C 77.29 24.02 75.06 22.82 72.83 21.61 C 71.69 23.55 71.11 28.13 67.98 26.26 C 66.57 24.45 68.52 22.24 68.71 20.33 C 66.20 19.74 63.65 19.33 61.10 18.99 C 61.02 20.62 61.03 22.25 60.78 23.86 C 60.13 25.34 57.94 25.28 57.20 23.91 C 56.98 22.28 56.98 20.63 56.91 18.99 C 54.35 19.34 51.81 19.75 49.29 20.31 C 49.52 22.32 52.07 25.60 49.08 26.70 C 46.38 27.04 46.37 23.59 45.57 21.86 C 43.03 22.60 40.74 23.92 38.51 25.30 C 39.63 27.15 43.09 29.96 39.97 31.66 C 37.70 32.10 36.80 29.21 35.49 27.89 C 33.22 29.58 31.39 31.77 29.80 34.10 C 28.57 34.02 27.33 33.95 26.09 33.91 L 25.97 33.14 C 27.43 33.10 28.89 33.09 30.35 33.10 C 30.66 31.32 30.35 29.55 29.80 27.85 Z" />
</g>
<g id="#d058d0ff">
<path fill="#d058d0" opacity="1.00" d=" M 85.01 24.74 C 85.16 20.81 89.13 18.42 92.79 18.98 C 90.66 22.09 88.68 25.95 84.58 26.68 C 84.69 26.19 84.90 25.23 85.01 24.74 Z" />
</g>
<g id="#8838c8ff">
<path fill="#8838c8" opacity="1.00" d=" M 92.79 18.98 C 94.59 20.24 96.67 21.67 96.88 24.08 C 97.49 27.78 94.12 30.89 90.61 31.16 C 88.25 30.19 86.05 28.82 84.58 26.68 C 88.68 25.95 90.66 22.09 92.79 18.98 Z" />
</g>
<g id="#513998ff">
<path fill="#513998" opacity="1.00" d=" M 82.84 28.11 C 83.42 27.63 84.00 27.16 84.58 26.68 C 86.05 28.82 88.25 30.19 90.61 31.16 C 91.92 31.87 92.31 33.45 93.03 34.64 C 91.38 34.41 89.73 34.14 88.14 33.66 C 86.25 31.92 84.61 29.95 82.84 28.11 Z" />
</g>
<g id="#f8c098ff">
<path fill="#f8c098" opacity="1.00" d=" M 25.89 28.88 C 26.91 27.86 28.51 28.16 29.80 27.85 C 30.35 29.55 30.66 31.32 30.35 33.10 C 28.89 33.09 27.43 33.10 25.97 33.14 L 25.44 33.31 C 25.39 31.84 24.49 30.00 25.89 28.88 Z" />
</g>
<g id="#503ca0ff">
<path fill="#503ca0" opacity="1.00" d=" M 25.44 33.31 L 25.97 33.14 L 26.09 33.91 C 27.33 33.95 28.57 34.02 29.80 34.10 C 30.24 34.14 31.12 34.23 31.56 34.27 C 30.76 35.51 29.97 36.76 29.17 38.00 C 28.67 37.87 27.66 37.60 27.15 37.47 C 25.97 37.00 24.82 36.45 23.67 35.91 C 24.22 35.01 24.81 34.14 25.44 33.31 Z" />
</g>
<g id="#6050e0ff">
<path fill="#6050e0" opacity="1.00" d=" M 88.14 33.66 C 89.73 34.14 91.38 34.41 93.03 34.64 L 93.48 34.70 C 96.15 39.51 98.30 44.79 98.57 50.34 C 98.22 51.32 97.85 52.29 97.47 53.27 C 96.93 53.58 95.84 54.22 95.29 54.53 C 94.90 52.44 94.62 50.33 94.38 48.21 C 92.34 48.43 89.48 50.08 88.07 47.86 C 87.43 44.90 91.13 44.90 93.05 44.39 C 92.66 41.78 91.43 39.42 90.28 37.09 C 88.37 37.86 86.35 40.59 84.21 38.88 C 82.50 36.10 86.40 34.88 88.14 33.66 Z" />
<path fill="#6050e0" opacity="1.00" d=" M 23.67 35.91 C 24.82 36.45 25.97 37.00 27.15 37.47 C 26.40 39.72 25.57 41.94 24.65 44.13 C 26.61 44.83 30.37 44.82 29.95 47.76 C 28.64 50.13 25.62 48.44 23.59 48.20 C 23.33 50.64 23.08 53.07 22.87 55.52 C 22.28 55.26 21.12 54.74 20.53 54.48 C 20.14 52.92 19.73 51.37 19.38 49.80 C 19.80 44.91 21.74 40.36 23.67 35.91 Z" />
</g>
<g id="#614bcbff">
<path fill="#614bcb" opacity="1.00" d=" M 31.56 34.27 C 32.92 35.50 35.11 36.82 33.91 38.95 C 32.23 40.28 30.67 38.79 29.17 38.00 C 29.97 36.76 30.76 35.51 31.56 34.27 Z" />
</g>
<g id="#f8b860ff">
<path fill="#f8b860" opacity="1.00" d=" M 55.40 50.38 C 56.67 46.20 56.93 41.50 59.28 37.75 C 60.40 41.65 61.43 45.58 62.46 49.50 C 60.55 50.16 58.65 50.82 56.74 51.48 C 56.41 51.21 55.73 50.66 55.40 50.38 Z" />
</g>
<g id="#4848d8ff">
<path fill="#4848d8" opacity="1.00" d=" M 19.99 64.11 C 19.12 59.40 18.66 54.57 19.38 49.80 C 19.73 51.37 20.14 52.92 20.53 54.48 C 21.12 54.74 22.28 55.26 22.87 55.52 C 24.48 56.06 26.26 55.61 27.93 55.83 C 29.35 56.18 29.47 58.87 28.13 59.28 C 26.60 59.82 24.95 59.81 23.36 60.06 C 23.65 61.49 23.95 62.93 24.25 64.36 C 22.83 64.28 21.41 64.19 19.99 64.11 Z" />
</g>
<g id="#f89c48ff">
<path fill="#f89c48" opacity="1.00" d=" M 55.20 50.22 L 55.40 50.38 C 55.73 50.66 56.41 51.21 56.74 51.48 C 58.65 50.82 60.55 50.16 62.46 49.50 C 62.86 51.09 63.29 52.68 63.77 54.25 C 61.98 57.59 58.21 58.64 54.96 60.00 L 54.80 60.07 C 53.45 56.85 54.59 53.47 55.20 50.22 Z" />
</g>
<g id="#4844d8ff">
<path fill="#4844d8" opacity="1.00" d=" M 98.57 50.34 L 98.71 49.95 C 99.44 55.67 98.71 61.44 97.21 66.98 C 95.93 66.72 94.64 66.46 93.36 66.21 C 93.81 64.15 94.23 62.09 94.61 60.02 C 92.84 59.45 89.49 60.41 88.92 57.98 C 88.69 54.71 92.57 55.91 94.56 55.86 C 94.74 55.53 95.11 54.86 95.29 54.53 C 95.84 54.22 96.93 53.58 97.47 53.27 C 97.85 52.29 98.22 51.32 98.57 50.34 Z" />
</g>
<g id="#f88438ff">
<path fill="#f88438" opacity="1.00" d=" M 63.77 54.25 C 63.82 56.18 64.32 58.38 62.94 60.00 C 61.07 62.63 56.94 62.43 54.96 60.00 C 58.21 58.64 61.98 57.59 63.77 54.25 Z" />
</g>
<g id="#3040d0ff">
<path fill="#3040d0" opacity="1.00" d=" M 19.99 64.11 C 21.41 64.19 22.83 64.28 24.25 64.36 C 24.53 65.40 24.81 66.44 25.09 67.48 C 27.10 67.07 29.74 64.66 31.44 66.81 C 32.63 69.64 28.72 70.27 26.98 71.27 C 27.47 72.18 27.95 73.09 28.43 74.00 C 27.17 74.54 25.92 75.07 24.66 75.61 C 22.62 71.98 21.08 68.12 19.99 64.11 Z" />
</g>
<g id="#303cd0ff">
<path fill="#303cd0" opacity="1.00" d=" M 86.35 67.41 C 87.28 64.36 90.54 66.79 92.38 67.43 C 92.62 67.12 93.11 66.51 93.36 66.21 C 94.64 66.46 95.93 66.72 97.21 66.98 C 96.13 69.92 94.87 72.79 93.38 75.55 C 92.08 75.08 90.78 74.61 89.48 74.15 C 89.99 73.19 90.50 72.23 91.02 71.27 C 89.40 70.25 86.07 69.93 86.35 67.41 Z" />
</g>
<g id="#1838c8ff">
<path fill="#1838c8" opacity="1.00" d=" M 28.43 74.00 C 30.06 76.49 32.22 78.58 33.84 81.07 C 34.98 82.63 32.84 84.41 31.35 83.69 C 28.57 81.50 26.66 78.47 24.66 75.61 C 25.92 75.07 27.17 74.54 28.43 74.00 Z" />
<path fill="#1838c8" opacity="1.00" d=" M 84.14 81.08 C 85.77 78.66 87.82 76.56 89.48 74.15 C 90.78 74.61 92.08 75.08 93.38 75.55 C 91.38 78.42 89.47 81.46 86.70 83.65 C 85.13 84.40 83.11 82.76 84.14 81.08 Z" />
</g>
<g id="#ac77e7ff">
<path fill="#ac77e7" opacity="1.00" d=" M 52.13 82.59 C 51.04 79.10 54.34 76.04 57.76 77.13 C 56.44 79.47 54.56 81.40 52.13 82.59 Z" />
</g>
<g id="#8155e8ff">
<path fill="#8155e8" opacity="1.00" d=" M 57.76 77.13 C 58.38 77.90 59.01 78.68 59.64 79.45 C 58.21 81.64 56.27 83.40 54.07 84.79 C 53.45 84.03 52.80 83.30 52.13 82.59 C 54.56 81.40 56.44 79.47 57.76 77.13 Z" />
</g>
<g id="#4d2fcfff">
<path fill="#4d2fcf" opacity="1.00" d=" M 59.64 79.45 L 60.02 78.94 C 60.92 82.57 57.79 86.10 54.07 84.79 C 56.27 83.40 58.21 81.64 59.64 79.45 Z" />
</g>
</svg>
