<?xml version="1.0" encoding="UTF-8" ?>
<!DOCTYPE svg PUBLIC "-//W3C//DTD SVG 1.1//EN" "http://www.w3.org/Graphics/SVG/1.1/DTD/svg11.dtd">
<svg width="117px" height="140px" viewBox="0 0 117 140" version="1.1" xmlns="http://www.w3.org/2000/svg">
<g id="#181818ff">
<path fill="#181818" opacity="1.00" d=" M 0.00 0.00 L 117.00 0.00 L 117.00 140.00 L 0.00 140.00 L 0.00 0.00 M 38.96 35.38 C 38.71 47.24 38.93 59.11 38.86 70.97 C 41.23 70.97 43.60 70.97 45.97 70.98 C 45.96 66.19 45.98 61.40 46.00 56.61 C 50.20 56.61 54.40 56.60 58.60 56.60 C 58.59 54.61 58.59 52.62 58.59 50.64 C 54.40 50.64 50.20 50.63 46.01 50.65 C 46.00 47.57 46.00 44.49 46.01 41.41 C 50.94 41.41 55.87 41.42 60.81 41.38 C 60.79 39.41 60.79 37.44 60.79 35.46 C 53.51 35.41 46.23 35.48 38.96 35.38 M 66.36 44.11 C 66.36 53.05 66.42 61.99 66.39 70.93 C 68.72 70.92 71.04 70.91 73.37 70.91 C 73.46 65.66 73.16 60.40 73.48 55.16 C 74.28 51.14 78.53 48.91 82.41 49.85 C 82.80 47.83 83.22 45.81 83.61 43.79 C 79.05 42.39 74.84 45.17 72.61 49.00 C 72.46 47.38 72.30 45.75 72.13 44.12 C 70.21 44.12 68.28 44.11 66.36 44.11 Z" />
</g>
<g id="#f8af59ff">
<path fill="#f8af59" opacity="1.00" d=" M 38.96 35.38 C 46.23 35.48 53.51 35.41 60.79 35.46 C 60.79 37.44 60.79 39.41 60.81 41.38 C 55.87 41.42 50.94 41.41 46.01 41.41 C 46.00 44.49 46.00 47.57 46.01 50.65 C 50.20 50.63 54.40 50.64 58.59 50.64 C 58.59 52.62 58.59 54.61 58.60 56.60 C 54.40 56.60 50.20 56.61 46.00 56.61 C 45.98 61.40 45.96 66.19 45.97 70.98 C 43.60 70.97 41.23 70.97 38.86 70.97 C 38.93 59.11 38.71 47.24 38.96 35.38 Z" />
<path fill="#f8af59" opacity="1.00" d=" M 66.36 44.11 C 68.28 44.11 70.21 44.12 72.13 44.12 C 72.30 45.75 72.46 47.38 72.61 49.00 C 74.84 45.17 79.05 42.39 83.61 43.79 C 83.22 45.81 82.80 47.83 82.41 49.85 C 78.53 48.91 74.28 51.14 73.48 55.16 C 73.16 60.40 73.46 65.66 73.37 70.91 C 71.04 70.91 68.72 70.92 66.39 70.93 C 66.42 61.99 66.36 53.05 66.36 44.11 Z" />
</g>
</svg>
