<?xml version="1.0" encoding="UTF-8" ?>
<!DOCTYPE svg PUBLIC "-//W3C//DTD SVG 1.1//EN" "http://www.w3.org/Graphics/SVG/1.1/DTD/svg11.dtd">
<svg width="117px" height="140px" viewBox="0 0 117 140" version="1.1" xmlns="http://www.w3.org/2000/svg">
<g id="#181818ff">
<path fill="#181818" opacity="1.00" d=" M 0.00 0.00 L 117.00 0.00 L 117.00 140.00 L 0.00 140.00 L 0.00 0.00 M 45.29 35.41 C 45.31 47.24 45.43 59.07 45.40 70.91 C 47.75 70.90 50.10 70.89 52.46 70.89 C 52.40 59.06 52.55 47.23 52.51 35.40 C 50.10 35.41 47.69 35.43 45.29 35.41 M 62.77 36.92 C 62.49 39.29 62.19 41.66 61.90 44.03 C 60.55 44.16 59.20 44.30 57.85 44.44 C 57.82 46.19 57.82 47.95 57.84 49.70 C 58.78 49.71 60.67 49.72 61.62 49.72 C 61.95 55.58 60.74 61.74 62.77 67.36 C 65.11 72.42 71.46 71.89 76.00 70.87 C 75.69 69.22 75.40 67.56 75.10 65.90 C 73.22 65.89 71.34 65.80 69.47 65.65 C 68.19 60.42 68.78 55.03 68.74 49.72 C 70.94 49.73 73.15 49.68 75.35 49.69 C 75.35 47.81 75.33 45.94 75.31 44.06 C 73.12 44.06 70.94 44.02 68.75 44.03 C 68.78 41.65 68.75 39.28 68.77 36.91 C 66.77 36.91 64.77 36.91 62.77 36.92 Z" />
</g>
<g id="#514adcff">
<path fill="#514adc" opacity="1.00" d=" M 45.29 35.41 C 47.69 35.43 50.10 35.41 52.51 35.40 C 52.55 47.23 52.40 59.06 52.46 70.89 C 50.10 70.89 47.75 70.90 45.40 70.91 C 45.43 59.07 45.31 47.24 45.29 35.41 Z" />
<path fill="#514adc" opacity="1.00" d=" M 62.77 36.92 C 64.77 36.91 66.77 36.91 68.77 36.91 C 68.75 39.28 68.78 41.65 68.75 44.03 C 70.94 44.02 73.12 44.06 75.31 44.06 C 75.33 45.94 75.35 47.81 75.35 49.69 C 73.15 49.68 70.94 49.73 68.74 49.72 C 68.78 55.03 68.19 60.42 69.47 65.65 C 71.34 65.80 73.22 65.89 75.10 65.90 C 75.40 67.56 75.69 69.22 76.00 70.87 C 71.46 71.89 65.11 72.42 62.77 67.36 C 60.74 61.74 61.95 55.58 61.62 49.72 C 60.67 49.72 58.78 49.71 57.84 49.70 C 57.82 47.95 57.82 46.19 57.85 44.44 C 59.20 44.30 60.55 44.16 61.90 44.03 C 62.19 41.66 62.49 39.29 62.77 36.92 Z" />
</g>
</svg>
