<?xml version="1.0" encoding="UTF-8" ?>
<!DOCTYPE svg PUBLIC "-//W3C//DTD SVG 1.1//EN" "http://www.w3.org/Graphics/SVG/1.1/DTD/svg11.dtd">
<svg width="117px" height="140px" viewBox="0 0 117 140" version="1.1" xmlns="http://www.w3.org/2000/svg">
<g id="#181818ff">
<path fill="#181818" opacity="1.00" d=" M 0.00 0.00 L 117.00 0.00 L 117.00 140.00 L 0.00 140.00 L 0.00 0.00 M 36.70 35.41 C 36.69 47.24 36.72 59.07 36.75 70.90 C 44.14 70.92 51.53 70.86 58.92 70.93 C 58.92 68.99 58.93 67.04 58.93 65.09 C 53.89 65.14 48.84 65.12 43.80 65.13 C 43.79 61.93 43.81 58.74 43.84 55.55 C 48.00 55.54 52.16 55.54 56.32 55.53 C 56.32 53.55 56.32 51.57 56.33 49.59 C 52.18 49.59 48.04 49.58 43.89 49.58 C 43.87 46.86 43.89 44.15 43.92 41.43 C 48.81 41.42 53.69 41.44 58.58 41.41 C 58.58 39.42 58.58 37.42 58.59 35.43 C 51.29 35.38 44.00 35.40 36.70 35.41 M 68.67 44.73 C 64.93 46.60 63.12 51.84 65.60 55.39 C 68.02 58.65 72.30 59.33 75.65 61.25 C 77.33 61.85 77.47 63.67 77.44 65.19 C 73.79 67.62 69.47 65.83 66.25 63.58 C 65.21 65.04 64.17 66.50 63.13 67.96 C 67.92 71.37 74.59 73.04 80.00 70.04 C 84.03 67.98 85.35 62.04 82.41 58.56 C 79.64 55.53 75.26 55.13 71.97 52.92 C 70.28 51.83 71.29 49.29 73.05 49.00 C 75.75 48.19 78.27 49.77 80.56 50.96 C 81.61 49.53 82.67 48.10 83.72 46.67 C 79.43 43.61 73.55 42.21 68.67 44.73 Z" />
</g>
<g id="#4f49dbff">
<path fill="#4f49db" opacity="1.00" d=" M 36.70 35.41 C 44.00 35.40 51.29 35.38 58.59 35.43 C 58.58 37.42 58.58 39.42 58.58 41.41 C 53.69 41.44 48.81 41.42 43.92 41.43 C 43.89 44.15 43.87 46.86 43.89 49.58 C 48.04 49.58 52.18 49.59 56.33 49.59 C 56.32 51.57 56.32 53.55 56.32 55.53 C 52.16 55.54 48.00 55.54 43.84 55.55 C 43.81 58.74 43.79 61.93 43.80 65.13 C 48.84 65.12 53.89 65.14 58.93 65.09 C 58.93 67.04 58.92 68.99 58.92 70.93 C 51.53 70.86 44.14 70.92 36.75 70.90 C 36.72 59.07 36.69 47.24 36.70 35.41 Z" />
<path fill="#4f49db" opacity="1.00" d=" M 68.67 44.73 C 73.55 42.21 79.43 43.61 83.72 46.67 C 82.67 48.10 81.61 49.53 80.56 50.96 C 78.27 49.77 75.75 48.19 73.05 49.00 C 71.29 49.29 70.28 51.83 71.97 52.92 C 75.26 55.13 79.64 55.53 82.41 58.56 C 85.35 62.04 84.03 67.98 80.00 70.04 C 74.59 73.04 67.92 71.37 63.13 67.96 C 64.17 66.50 65.21 65.04 66.25 63.58 C 69.47 65.83 73.79 67.62 77.44 65.19 C 77.47 63.67 77.33 61.85 75.65 61.25 C 72.30 59.33 68.02 58.65 65.60 55.39 C 63.12 51.84 64.93 46.60 68.67 44.73 Z" />
</g>
</svg>
