<?xml version="1.0" encoding="UTF-8" ?>
<!DOCTYPE svg PUBLIC "-//W3C//DTD SVG 1.1//EN" "http://www.w3.org/Graphics/SVG/1.1/DTD/svg11.dtd">
<svg width="117px" height="140px" viewBox="0 0 117 140" version="1.1" xmlns="http://www.w3.org/2000/svg">
<g id="#181818ff">
<path fill="#181818" opacity="1.00" d=" M 0.00 0.00 L 117.00 0.00 L 117.00 140.00 L 0.00 140.00 L 0.00 0.00 M 31.55 35.61 C 31.86 47.37 31.66 59.13 31.72 70.89 C 34.07 70.90 36.42 70.90 38.78 70.91 C 38.72 66.48 38.78 62.04 38.81 57.60 C 40.42 57.58 42.02 57.55 43.63 57.50 C 46.25 61.88 48.58 66.43 51.05 70.90 C 53.67 70.89 56.30 70.90 58.92 70.92 C 56.24 66.07 53.17 61.41 50.88 56.36 C 56.13 54.36 58.57 48.20 57.05 42.96 C 56.14 38.27 51.23 35.83 46.83 35.59 C 41.75 35.33 36.63 35.22 31.55 35.61 M 63.58 44.05 C 63.64 50.70 63.33 57.38 63.85 64.02 C 64.10 67.82 66.98 71.60 71.04 71.57 C 74.86 72.02 78.16 69.70 80.59 67.01 C 80.78 68.31 80.99 69.61 81.21 70.91 C 83.09 70.91 84.97 70.91 86.85 70.92 C 86.82 61.96 86.98 53.01 86.94 44.06 C 84.58 44.04 82.22 44.04 79.87 44.05 C 79.80 49.37 79.85 54.70 79.86 60.02 C 80.57 64.00 75.47 66.86 72.12 65.09 C 71.16 63.97 70.65 62.53 70.67 61.05 C 70.56 55.38 70.76 49.71 70.63 44.04 C 68.28 44.04 65.93 44.04 63.58 44.05 Z" />
<path fill="#181818" opacity="1.00" d=" M 38.91 41.12 C 42.16 41.22 45.70 40.68 48.67 42.33 C 51.47 44.60 50.76 49.99 47.25 51.22 C 44.56 52.20 41.64 51.84 38.84 51.92 C 38.85 48.32 38.88 44.72 38.91 41.12 Z" />
</g>
<g id="#4f49dcff">
<path fill="#4f49dc" opacity="1.00" d=" M 31.55 35.61 C 36.63 35.22 41.75 35.33 46.83 35.59 C 51.23 35.83 56.14 38.27 57.05 42.96 C 58.57 48.20 56.13 54.36 50.88 56.36 C 53.17 61.41 56.24 66.07 58.92 70.92 C 56.30 70.90 53.67 70.89 51.05 70.90 C 48.58 66.43 46.25 61.88 43.63 57.50 C 42.02 57.55 40.42 57.58 38.81 57.60 C 38.78 62.04 38.72 66.48 38.78 70.91 C 36.42 70.90 34.07 70.90 31.72 70.89 C 31.66 59.13 31.86 47.37 31.55 35.61 M 38.91 41.12 C 38.88 44.72 38.85 48.32 38.84 51.92 C 41.64 51.84 44.56 52.20 47.25 51.22 C 50.76 49.99 51.47 44.60 48.67 42.33 C 45.70 40.68 42.16 41.22 38.91 41.12 Z" />
<path fill="#4f49dc" opacity="1.00" d=" M 63.58 44.05 C 65.93 44.04 68.28 44.04 70.63 44.04 C 70.76 49.71 70.56 55.38 70.67 61.05 C 70.65 62.53 71.16 63.97 72.12 65.09 C 75.47 66.86 80.57 64.00 79.86 60.02 C 79.85 54.70 79.80 49.37 79.87 44.05 C 82.22 44.04 84.58 44.04 86.94 44.06 C 86.98 53.01 86.82 61.96 86.85 70.92 C 84.97 70.91 83.09 70.91 81.21 70.91 C 80.99 69.61 80.78 68.31 80.59 67.01 C 78.16 69.70 74.86 72.02 71.04 71.57 C 66.98 71.60 64.10 67.82 63.85 64.02 C 63.33 57.38 63.64 50.70 63.58 44.05 Z" />
</g>
</svg>
