<?xml version="1.0" encoding="UTF-8" ?>
<!DOCTYPE svg PUBLIC "-//W3C//DTD SVG 1.1//EN" "http://www.w3.org/Graphics/SVG/1.1/DTD/svg11.dtd">
<svg width="117px" height="140px" viewBox="0 0 117 140" version="1.1" xmlns="http://www.w3.org/2000/svg">
<g id="#181818ff">
<path fill="#181818" opacity="1.00" d=" M 0.00 0.00 L 117.00 0.00 L 117.00 140.00 L 0.00 140.00 L 0.00 0.00 M 46.02 17.92 C 45.93 23.93 46.04 29.94 46.00 35.96 C 39.97 36.38 33.93 35.81 27.90 36.07 C 21.40 36.43 15.89 42.41 16.04 48.92 C 15.85 55.43 21.36 61.55 27.90 61.83 C 33.95 62.09 40.01 61.84 46.06 61.93 C 46.17 67.99 46.02 74.05 46.24 80.10 C 46.56 86.51 52.53 91.99 58.95 91.75 C 65.41 92.04 71.50 86.53 71.75 80.05 C 71.99 74.02 71.83 67.98 71.94 61.95 C 74.30 61.93 76.65 61.90 79.00 61.87 C 79.95 65.81 85.90 65.83 86.93 61.93 C 93.30 62.68 99.96 58.74 101.51 52.36 C 103.83 44.91 97.91 36.44 90.13 36.07 C 84.09 35.87 78.05 36.07 72.01 35.99 C 71.96 29.98 72.07 23.96 71.97 17.94 C 71.67 11.35 65.59 5.78 59.01 5.93 C 52.43 5.77 46.34 11.32 46.02 17.92 M 37.17 20.20 C 33.01 21.36 31.42 27.28 34.82 30.13 C 37.88 33.46 44.07 31.37 44.68 26.97 C 45.73 22.84 41.16 18.75 37.17 20.20 M 37.32 72.51 C 33.87 74.42 37.60 79.87 40.66 77.43 C 44.00 75.48 40.31 70.00 37.32 72.51 Z" />
<path fill="#181818" opacity="1.00" d=" M 50.07 18.94 C 50.06 14.56 53.68 10.68 57.97 10.11 C 63.00 9.44 67.96 13.85 67.93 18.93 C 68.10 25.95 67.94 32.98 68.00 40.00 C 75.02 40.06 82.05 39.90 89.07 40.06 C 92.39 40.04 95.57 42.04 97.02 45.01 C 98.88 48.55 97.93 53.26 94.87 55.82 C 92.47 57.97 89.04 58.28 85.98 57.92 C 84.03 56.94 82.00 56.88 80.03 57.84 C 76.05 58.29 72.03 57.98 68.04 58.04 C 67.95 65.38 68.43 72.73 67.97 80.05 C 67.66 85.52 61.39 89.69 56.25 87.73 C 52.57 86.56 49.90 82.97 49.94 79.10 C 49.68 72.08 50.03 65.06 49.96 58.04 C 42.94 58.00 35.92 58.19 28.90 57.98 C 24.12 58.05 19.87 53.77 20.03 48.99 C 19.92 44.24 24.17 39.96 28.93 40.06 C 35.95 39.89 42.98 40.06 50.00 40.00 C 50.06 32.98 49.90 25.96 50.07 18.94 M 54.02 18.98 C 53.96 27.32 54.03 35.66 54.00 44.00 C 45.65 44.03 37.29 43.95 28.94 44.02 C 26.93 43.99 25.05 45.36 24.33 47.22 C 22.94 50.22 25.59 54.03 28.86 53.96 C 37.24 54.07 45.62 53.96 54.00 54.00 C 54.08 62.35 53.93 70.70 54.12 79.05 C 54.01 81.67 56.37 83.99 58.98 83.90 C 61.60 84.01 63.99 81.67 63.87 79.03 C 64.04 70.68 63.90 62.33 63.99 53.98 C 72.35 53.90 80.73 54.04 89.09 53.86 C 91.69 53.96 93.97 51.61 93.90 49.03 C 94.02 46.43 91.73 44.04 89.11 44.12 C 80.75 43.93 72.37 44.08 64.00 44.00 C 63.96 35.62 64.07 27.25 63.97 18.87 C 64.00 16.26 61.61 13.98 59.03 13.97 C 56.38 13.93 53.94 16.32 54.02 18.98 Z" />
</g>
<g id="#574ddfff">
<path fill="#574ddf" opacity="1.00" d=" M 46.02 17.92 C 46.34 11.32 52.43 5.77 59.01 5.93 C 65.59 5.78 71.67 11.35 71.97 17.94 C 72.07 23.96 71.96 29.98 72.01 35.99 C 78.05 36.07 84.09 35.87 90.13 36.07 C 97.91 36.44 103.83 44.91 101.51 52.36 C 99.96 58.74 93.30 62.68 86.93 61.93 C 86.63 60.59 86.32 59.25 85.98 57.92 C 89.04 58.28 92.47 57.97 94.87 55.82 C 97.93 53.26 98.88 48.55 97.02 45.01 C 95.57 42.04 92.39 40.04 89.07 40.06 C 82.05 39.90 75.02 40.06 68.00 40.00 C 67.94 32.98 68.10 25.95 67.93 18.93 C 67.96 13.85 63.00 9.44 57.97 10.11 C 53.68 10.68 50.06 14.56 50.07 18.94 C 49.90 25.96 50.06 32.98 50.00 40.00 C 42.98 40.06 35.95 39.89 28.93 40.06 C 24.17 39.96 19.92 44.24 20.03 48.99 C 19.87 53.77 24.12 58.05 28.90 57.98 C 35.92 58.19 42.94 58.00 49.96 58.04 C 50.03 65.06 49.68 72.08 49.94 79.10 C 49.90 82.97 52.57 86.56 56.25 87.73 C 61.39 89.69 67.66 85.52 67.97 80.05 C 68.43 72.73 67.95 65.38 68.04 58.04 C 72.03 57.98 76.05 58.29 80.03 57.84 C 79.67 59.18 79.34 60.53 79.00 61.87 C 76.65 61.90 74.30 61.93 71.94 61.95 C 71.83 67.98 71.99 74.02 71.75 80.05 C 71.50 86.53 65.41 92.04 58.95 91.75 C 52.53 91.99 46.56 86.51 46.24 80.10 C 46.02 74.05 46.17 67.99 46.06 61.93 C 40.01 61.84 33.95 62.09 27.90 61.83 C 21.36 61.55 15.85 55.43 16.04 48.92 C 15.89 42.41 21.40 36.43 27.90 36.07 C 33.93 35.81 39.97 36.38 46.00 35.96 C 46.04 29.94 45.93 23.93 46.02 17.92 Z" />
<path fill="#574ddf" opacity="1.00" d=" M 37.17 20.20 C 41.16 18.75 45.73 22.84 44.68 26.97 C 44.07 31.37 37.88 33.46 34.82 30.13 C 31.42 27.28 33.01 21.36 37.17 20.20 Z" />
<path fill="#574ddf" opacity="1.00" d=" M 37.32 72.51 C 40.31 70.00 44.00 75.48 40.66 77.43 C 37.60 79.87 33.87 74.42 37.32 72.51 Z" />
</g>
<g id="#f8ae58ff">
<path fill="#f8ae58" opacity="1.00" d=" M 54.02 18.98 C 53.94 16.32 56.38 13.93 59.03 13.97 C 61.61 13.98 64.00 16.26 63.97 18.87 C 64.07 27.25 63.96 35.62 64.00 44.00 C 72.37 44.08 80.75 43.93 89.11 44.12 C 91.73 44.04 94.02 46.43 93.90 49.03 C 93.97 51.61 91.69 53.96 89.09 53.86 C 80.73 54.04 72.35 53.90 63.99 53.98 C 63.90 62.33 64.04 70.68 63.87 79.03 C 63.99 81.67 61.60 84.01 58.98 83.90 C 56.37 83.99 54.01 81.67 54.12 79.05 C 53.93 70.70 54.08 62.35 54.00 54.00 C 45.62 53.96 37.24 54.07 28.86 53.96 C 25.59 54.03 22.94 50.22 24.33 47.22 C 25.05 45.36 26.93 43.99 28.94 44.02 C 37.29 43.95 45.65 44.03 54.00 44.00 C 54.03 35.66 53.96 27.32 54.02 18.98 Z" />
<path fill="#f8ae58" opacity="1.00" d=" M 80.03 57.84 C 82.00 56.88 84.03 56.94 85.98 57.92 C 86.32 59.25 86.63 60.59 86.93 61.93 C 85.90 65.83 79.95 65.81 79.00 61.87 C 79.34 60.53 79.67 59.18 80.03 57.84 Z" />
</g>
</svg>
