<?xml version="1.0" encoding="UTF-8" ?>
<!DOCTYPE svg PUBLIC "-//W3C//DTD SVG 1.1//EN" "http://www.w3.org/Graphics/SVG/1.1/DTD/svg11.dtd">
<svg width="117px" height="140px" viewBox="0 0 117 140" version="1.1" xmlns="http://www.w3.org/2000/svg">
<g id="#181818ff">
<path fill="#181818" opacity="1.00" d=" M 0.00 0.00 L 117.00 0.00 L 117.00 140.00 L 0.00 140.00 L 0.00 0.00 M 57.37 8.49 C 52.74 12.76 48.53 17.48 43.93 21.79 C 42.66 22.87 40.91 24.89 42.89 26.27 C 45.67 27.01 48.65 26.46 51.50 26.52 C 51.71 30.55 51.56 34.59 51.65 38.62 C 49.46 38.49 47.56 40.46 47.60 42.61 C 43.61 42.45 39.60 42.87 35.64 42.39 C 35.66 39.60 36.72 35.94 34.81 33.67 C 36.49 30.89 35.30 27.49 32.95 25.53 L 32.46 26.07 L 32.58 25.15 C 30.42 24.44 27.86 24.29 26.03 25.88 C 23.63 27.53 22.43 32.06 25.07 33.83 L 24.78 34.16 C 26.05 35.33 27.48 36.58 29.32 36.61 C 28.21 37.68 27.09 38.74 25.97 39.81 C 23.18 42.70 20.16 45.38 17.47 48.38 C 16.02 49.78 17.91 51.32 18.86 52.30 C 23.16 56.61 27.48 60.91 31.81 65.18 C 32.69 66.53 34.50 66.52 35.38 65.15 C 35.83 62.34 35.51 59.46 35.61 56.62 C 39.61 56.59 43.61 56.66 47.62 56.59 C 47.54 58.79 49.52 60.56 51.64 60.59 C 51.41 64.58 51.70 68.57 51.57 72.56 C 48.46 73.38 42.77 70.65 41.82 75.00 C 43.63 77.25 45.79 79.15 47.81 81.20 C 51.15 84.56 54.39 88.06 58.00 91.14 L 58.96 91.20 C 62.31 88.75 65.07 85.52 67.84 82.44 C 70.84 85.85 75.73 81.28 72.71 78.02 C 73.63 77.05 74.50 76.05 75.33 75.01 C 74.39 70.52 68.66 73.61 65.52 72.38 C 65.68 68.45 65.60 64.52 65.62 60.59 C 67.74 60.56 69.65 58.73 69.56 56.58 C 73.51 56.64 77.45 56.68 81.40 56.53 C 81.83 59.33 81.38 62.17 81.71 64.98 C 82.45 66.43 84.33 66.65 85.28 65.29 C 90.21 60.15 95.76 55.49 100.25 49.97 C 99.51 46.94 96.32 45.05 94.15 42.94 C 90.62 40.08 88.08 36.24 84.65 33.30 C 83.51 32.25 81.49 33.49 81.61 34.92 C 81.52 37.47 81.65 40.02 81.57 42.57 C 77.58 42.65 73.59 42.53 69.60 42.65 C 69.56 40.54 67.78 38.47 65.55 38.64 C 65.59 34.62 65.53 30.59 65.62 26.56 C 68.45 26.53 71.32 26.83 74.14 26.41 C 76.65 24.76 74.02 22.33 72.54 21.12 C 68.56 17.18 64.65 13.17 60.69 9.21 C 59.88 8.37 58.38 7.23 57.37 8.49 M 90.21 37.66 L 89.95 37.89 C 93.37 40.14 98.15 36.51 96.18 32.65 C 95.01 31.11 92.90 29.97 91.00 30.97 C 88.31 31.90 87.75 36.15 90.21 37.66 Z" />
<path fill="#181818" opacity="1.00" d=" M 48.87 22.42 C 52.24 19.36 55.27 15.94 58.67 12.89 C 61.90 16.11 65.11 19.34 68.37 22.52 C 66.12 22.62 63.86 22.61 61.60 22.61 C 61.58 27.93 61.62 33.26 61.61 38.58 C 61.06 38.59 59.95 38.59 59.40 38.60 C 58.43 38.60 56.50 38.60 55.53 38.60 C 55.60 33.27 55.57 27.94 55.59 22.61 C 53.35 22.62 51.10 22.66 48.87 22.42 Z" />
<path fill="#181818" opacity="1.00" d=" M 29.56 41.94 C 30.37 41.30 31.20 40.68 32.05 40.09 C 31.53 42.18 31.53 44.35 31.52 46.49 C 36.87 46.72 42.23 46.56 47.58 46.57 C 47.58 47.50 47.59 49.36 47.59 50.30 C 47.59 50.85 47.58 51.97 47.58 52.53 C 42.24 52.64 36.91 52.56 31.57 52.58 C 31.58 54.80 31.60 57.03 31.63 59.25 C 28.78 56.65 26.12 53.86 23.39 51.13 C 23.01 50.70 22.27 49.85 21.90 49.42 C 24.52 47.00 26.94 44.37 29.56 41.94 Z" />
<path fill="#181818" opacity="1.00" d=" M 85.60 39.84 C 86.58 40.78 87.57 41.72 88.53 42.69 C 90.69 45.12 93.24 47.21 95.21 49.81 C 91.94 52.90 88.88 56.20 85.59 59.26 C 85.64 57.01 85.66 54.77 85.53 52.53 C 80.23 52.62 74.92 52.60 69.62 52.55 C 69.62 50.56 69.61 48.57 69.60 46.59 C 74.92 46.58 80.25 46.64 85.57 46.56 C 85.60 44.32 85.61 42.08 85.60 39.84 Z" />
<path fill="#181818" opacity="1.00" d=" M 55.61 60.64 C 57.59 60.61 59.56 60.61 61.54 60.63 C 61.53 65.97 61.66 71.31 61.57 76.65 C 63.42 77.23 67.06 75.27 67.75 77.69 C 64.40 79.98 62.01 83.34 58.92 85.94 C 56.30 85.01 54.68 81.91 52.41 80.17 C 51.20 79.04 50.07 77.83 48.97 76.60 C 51.17 76.60 53.36 76.60 55.56 76.56 C 55.66 71.26 55.60 65.95 55.61 60.64 Z" />
</g>
<g id="#9060f8ff">
<path fill="#9060f8" opacity="1.00" d=" M 57.37 8.49 C 58.38 7.23 59.88 8.37 60.69 9.21 C 64.65 13.17 68.56 17.18 72.54 21.12 C 71.16 21.62 69.79 22.13 68.37 22.52 C 65.11 19.34 61.90 16.11 58.67 12.89 C 55.27 15.94 52.24 19.36 48.87 22.42 C 47.22 22.21 45.58 21.99 43.93 21.79 C 48.53 17.48 52.74 12.76 57.37 8.49 Z" />
</g>
<g id="#805cf0ff">
<path fill="#805cf0" opacity="1.00" d=" M 72.54 21.12 C 74.02 22.33 76.65 24.76 74.14 26.41 C 71.32 26.83 68.45 26.53 65.62 26.56 C 65.53 30.59 65.59 34.62 65.55 38.64 C 64.24 38.60 62.93 38.58 61.61 38.58 C 61.62 33.26 61.58 27.93 61.60 22.61 C 63.86 22.61 66.12 22.62 68.37 22.52 C 69.79 22.13 71.16 21.62 72.54 21.12 Z" />
<path fill="#805cf0" opacity="1.00" d=" M 42.89 26.27 C 40.91 24.89 42.66 22.87 43.93 21.79 C 45.58 21.99 47.22 22.21 48.87 22.42 C 51.10 22.66 53.35 22.62 55.59 22.61 C 55.57 27.94 55.60 33.27 55.53 38.60 C 54.23 38.60 52.94 38.58 51.65 38.62 C 51.56 34.59 51.71 30.55 51.50 26.52 C 48.65 26.46 45.67 27.01 42.89 26.27 Z" />
</g>
<g id="#48f8b8ff">
<path fill="#48f8b8" opacity="1.00" d=" M 26.03 25.88 C 27.86 24.29 30.42 24.44 32.58 25.15 L 32.46 26.07 C 30.11 28.76 27.41 31.12 25.07 33.83 C 22.43 32.06 23.63 27.53 26.03 25.88 Z" />
</g>
<g id="#28ecd8ff">
<path fill="#28ecd8" opacity="1.00" d=" M 32.46 26.07 L 32.95 25.53 C 35.30 27.49 36.49 30.89 34.81 33.67 C 33.49 35.44 31.50 36.44 29.32 36.61 C 27.48 36.58 26.05 35.33 24.78 34.16 L 25.07 33.83 C 27.41 31.12 30.11 28.76 32.46 26.07 Z" />
</g>
<g id="#404cf8ff">
<path fill="#404cf8" opacity="1.00" d=" M 90.21 37.66 C 87.75 36.15 88.31 31.90 91.00 30.97 C 92.90 29.97 95.01 31.11 96.18 32.65 C 94.20 34.33 92.14 35.91 90.21 37.66 Z" />
</g>
<g id="#6050e0ff">
<path fill="#6050e0" opacity="1.00" d=" M 81.61 34.92 C 81.49 33.49 83.51 32.25 84.65 33.30 C 88.08 36.24 90.62 40.08 94.15 42.94 C 92.33 42.42 90.35 41.76 88.53 42.69 C 87.57 41.72 86.58 40.78 85.60 39.84 C 85.61 42.08 85.60 44.32 85.57 46.56 C 80.25 46.64 74.92 46.58 69.60 46.59 C 69.63 45.27 69.63 43.96 69.60 42.65 C 73.59 42.53 77.58 42.65 81.57 42.57 C 81.65 40.02 81.52 37.47 81.61 34.92 Z" />
<path fill="#6050e0" opacity="1.00" d=" M 32.05 40.09 C 32.95 39.77 33.85 39.46 34.75 39.15 C 35.05 40.23 35.35 41.31 35.64 42.39 C 39.60 42.87 43.61 42.45 47.60 42.61 C 47.56 43.93 47.58 45.25 47.58 46.57 C 42.23 46.56 36.87 46.72 31.52 46.49 C 31.53 44.35 31.53 42.18 32.05 40.09 Z" />
</g>
<g id="#202df5ff">
<path fill="#202df5" opacity="1.00" d=" M 90.21 37.66 C 92.14 35.91 94.20 34.33 96.18 32.65 C 98.15 36.51 93.37 40.14 89.95 37.89 L 90.21 37.66 Z" />
</g>
<g id="#483898ff">
<path fill="#483898" opacity="1.00" d=" M 29.32 36.61 C 31.50 36.44 33.49 35.44 34.81 33.67 C 36.72 35.94 35.66 39.60 35.64 42.39 C 35.35 41.31 35.05 40.23 34.75 39.15 C 33.85 39.46 32.95 39.77 32.05 40.09 C 31.20 40.68 30.37 41.30 29.56 41.94 C 28.37 41.23 27.17 40.52 25.97 39.81 C 27.09 38.74 28.21 37.68 29.32 36.61 Z" />
</g>
<g id="#f8d478ff">
<path fill="#f8d478" opacity="1.00" d=" M 47.60 42.61 C 47.56 40.46 49.46 38.49 51.65 38.62 C 52.94 38.58 54.23 38.60 55.53 38.60 C 56.50 38.60 58.43 38.60 59.40 38.60 C 56.09 43.05 51.84 46.76 47.59 50.30 C 47.59 49.36 47.58 47.50 47.58 46.57 C 47.58 45.25 47.56 43.93 47.60 42.61 Z" />
</g>
<g id="#f8b058ff">
<path fill="#f8b058" opacity="1.00" d=" M 59.40 38.60 C 59.95 38.59 61.06 38.59 61.61 38.58 C 62.93 38.58 64.24 38.60 65.55 38.64 C 67.78 38.47 69.56 40.54 69.60 42.65 C 69.63 43.96 69.63 45.27 69.60 46.59 C 68.56 48.47 67.23 50.18 65.68 51.66 C 62.39 54.73 59.55 58.35 55.61 60.64 C 54.29 60.64 52.96 60.62 51.64 60.59 C 49.52 60.56 47.54 58.79 47.62 56.59 C 47.58 55.24 47.57 53.88 47.58 52.53 C 47.58 51.97 47.59 50.85 47.59 50.30 C 51.84 46.76 56.09 43.05 59.40 38.60 Z" />
</g>
<g id="#604ce0ff">
<path fill="#604ce0" opacity="1.00" d=" M 17.47 48.38 C 20.16 45.38 23.18 42.70 25.97 39.81 C 27.17 40.52 28.37 41.23 29.56 41.94 C 26.94 44.37 24.52 47.00 21.90 49.42 C 22.27 49.85 23.01 50.70 23.39 51.13 C 21.88 51.53 20.37 51.91 18.86 52.30 C 17.91 51.32 16.02 49.78 17.47 48.38 Z" />
</g>
<g id="#5048d8ff">
<path fill="#5048d8" opacity="1.00" d=" M 88.53 42.69 C 90.35 41.76 92.33 42.42 94.15 42.94 C 96.32 45.05 99.51 46.94 100.25 49.97 C 95.76 55.49 90.21 60.15 85.28 65.29 C 84.33 66.65 82.45 66.43 81.71 64.98 C 81.38 62.17 81.83 59.33 81.40 56.53 C 77.45 56.68 73.51 56.64 69.56 56.58 C 69.61 55.24 69.63 53.89 69.62 52.55 C 74.92 52.60 80.23 52.62 85.53 52.53 C 85.66 54.77 85.64 57.01 85.59 59.26 C 88.88 56.20 91.94 52.90 95.21 49.81 C 93.24 47.21 90.69 45.12 88.53 42.69 Z" />
<path fill="#5048d8" opacity="1.00" d=" M 23.39 51.13 C 26.12 53.86 28.78 56.65 31.63 59.25 C 31.60 57.03 31.58 54.80 31.57 52.58 C 36.91 52.56 42.24 52.64 47.58 52.53 C 47.57 53.88 47.58 55.24 47.62 56.59 C 43.61 56.66 39.61 56.59 35.61 56.62 C 35.51 59.46 35.83 62.34 35.38 65.15 C 34.50 66.52 32.69 66.53 31.81 65.18 C 27.48 60.91 23.16 56.61 18.86 52.30 C 20.37 51.91 21.88 51.53 23.39 51.13 Z" />
</g>
<g id="#f88838ff">
<path fill="#f88838" opacity="1.00" d=" M 65.68 51.66 C 67.23 50.18 68.56 48.47 69.60 46.59 C 69.61 48.57 69.62 50.56 69.62 52.55 C 69.63 53.89 69.61 55.24 69.56 56.58 C 69.65 58.73 67.74 60.56 65.62 60.59 C 64.26 60.63 62.90 60.65 61.54 60.63 C 59.56 60.61 57.59 60.61 55.61 60.64 C 59.55 58.35 62.39 54.73 65.68 51.66 Z" />
</g>
<g id="#303cd0ff">
<path fill="#303cd0" opacity="1.00" d=" M 51.64 60.59 C 52.96 60.62 54.29 60.64 55.61 60.64 C 55.60 65.95 55.66 71.26 55.56 76.56 C 53.36 76.60 51.17 76.60 48.97 76.60 C 50.07 77.83 51.20 79.04 52.41 80.17 C 50.87 80.50 49.34 80.84 47.81 81.20 C 45.79 79.15 43.63 77.25 41.82 75.00 C 42.77 70.65 48.46 73.38 51.57 72.56 C 51.70 68.57 51.41 64.58 51.64 60.59 Z" />
</g>
<g id="#3040d0ff">
<path fill="#3040d0" opacity="1.00" d=" M 61.54 60.63 C 62.90 60.65 64.26 60.63 65.62 60.59 C 65.60 64.52 65.68 68.45 65.52 72.38 C 68.66 73.61 74.39 70.52 75.33 75.01 C 74.50 76.05 73.63 77.05 72.71 78.02 C 75.73 81.28 70.84 85.85 67.84 82.44 L 67.78 82.40 C 70.33 83.38 71.54 80.77 72.89 79.16 C 72.09 76.98 69.45 77.96 67.75 77.69 C 67.06 75.27 63.42 77.23 61.57 76.65 C 61.66 71.31 61.53 65.97 61.54 60.63 Z" />
</g>
<g id="#2038c8ff">
<path fill="#2038c8" opacity="1.00" d=" M 58.92 85.94 C 62.01 83.34 64.40 79.98 67.75 77.69 C 67.71 79.26 67.72 80.83 67.78 82.40 L 67.84 82.44 C 65.07 85.52 62.31 88.75 58.96 91.20 L 58.00 91.14 C 54.39 88.06 51.15 84.56 47.81 81.20 C 49.34 80.84 50.87 80.50 52.41 80.17 C 54.68 81.91 56.30 85.01 58.92 85.94 Z" />
</g>
<g id="#a270f3ff">
<path fill="#a270f3" opacity="1.00" d=" M 67.75 77.69 C 69.45 77.96 72.09 76.98 72.89 79.16 C 71.54 80.77 70.33 83.38 67.78 82.40 C 67.72 80.83 67.71 79.26 67.75 77.69 Z" />
</g>
</svg>
