<?xml version="1.0" encoding="UTF-8" ?>
<!DOCTYPE svg PUBLIC "-//W3C//DTD SVG 1.1//EN" "http://www.w3.org/Graphics/SVG/1.1/DTD/svg11.dtd">
<svg width="45px" height="45px" viewBox="0 0 45 45" version="1.1" xmlns="http://www.w3.org/2000/svg">
<g id="#181818ff">
<path fill="#181818" opacity="1.00" d=" M 0.00 0.00 L 45.00 0.00 L 45.00 45.00 L 0.00 45.00 L 0.00 0.00 M 15.18 12.21 C 6.85 16.97 5.58 29.65 12.54 36.15 C 12.83 35.75 13.41 34.96 13.71 34.56 C 10.57 30.81 8.93 25.49 10.90 20.80 C 12.97 14.32 20.79 10.31 27.19 12.84 C 34.08 15.02 37.87 23.43 35.11 30.08 C 34.80 32.23 31.14 34.05 33.39 36.14 C 38.20 31.25 39.42 23.19 35.74 17.30 C 31.82 10.31 21.89 7.73 15.18 12.21 M 17.79 18.93 C 19.02 21.48 19.87 24.25 21.55 26.56 C 23.05 28.48 25.80 26.29 24.87 24.28 C 22.77 22.18 20.22 20.61 17.79 18.93 Z" />
</g>
<g id="#efaa59ff">
<path fill="#efaa59" opacity="1.00" d=" M 15.18 12.21 C 21.89 7.73 31.82 10.31 35.74 17.30 C 39.42 23.19 38.20 31.25 33.39 36.14 C 31.14 34.05 34.80 32.23 35.11 30.08 C 37.87 23.43 34.08 15.02 27.19 12.84 C 20.79 10.31 12.97 14.32 10.90 20.80 C 8.93 25.49 10.57 30.81 13.71 34.56 C 13.41 34.96 12.83 35.75 12.54 36.15 C 5.58 29.65 6.85 16.97 15.18 12.21 Z" />
<path fill="#efaa59" opacity="1.00" d=" M 17.79 18.93 C 20.22 20.61 22.77 22.18 24.87 24.28 C 25.80 26.29 23.05 28.48 21.55 26.56 C 19.87 24.25 19.02 21.48 17.79 18.93 Z" />
</g>
</svg>
