<?xml version="1.0" encoding="UTF-8" ?>
<!DOCTYPE svg PUBLIC "-//W3C//DTD SVG 1.1//EN" "http://www.w3.org/Graphics/SVG/1.1/DTD/svg11.dtd">
<svg width="45px" height="45px" viewBox="0 0 45 45" version="1.1" xmlns="http://www.w3.org/2000/svg">
<g id="#181818ff">
<path fill="#181818" opacity="1.00" d=" M 0.00 0.00 L 45.00 0.00 L 45.00 45.00 L 0.00 45.00 L 0.00 0.00 M 21.60 10.58 C 19.42 12.51 19.96 15.64 20.63 18.13 C 19.75 19.24 18.87 20.35 18.00 21.46 C 15.62 19.86 14.41 15.87 11.14 16.18 C 8.62 17.42 8.81 20.72 9.21 23.07 C 9.85 26.45 11.46 30.38 15.05 31.49 C 17.50 32.26 19.61 30.45 21.43 29.09 C 23.24 29.12 25.04 29.17 26.85 29.18 C 26.48 31.91 23.50 35.70 26.18 37.87 C 31.59 38.55 36.36 33.14 36.89 28.08 C 37.20 24.26 33.18 22.59 30.04 22.23 C 29.38 21.02 28.72 19.82 28.06 18.61 C 30.16 17.57 32.49 17.23 34.73 16.61 C 36.68 15.45 35.98 12.80 34.35 11.70 C 30.87 8.97 25.37 7.81 21.60 10.58 Z" />
</g>
<g id="#f8a854ff">
<path fill="#f8a854" opacity="1.00" d=" M 21.60 10.58 C 25.37 7.81 30.87 8.97 34.35 11.70 C 35.98 12.80 36.68 15.45 34.73 16.61 C 32.49 17.23 30.16 17.57 28.06 18.61 C 28.72 19.82 29.38 21.02 30.04 22.23 C 33.18 22.59 37.20 24.26 36.89 28.08 C 36.36 33.14 31.59 38.55 26.18 37.87 C 23.50 35.70 26.48 31.91 26.85 29.18 C 25.04 29.17 23.24 29.12 21.43 29.09 C 19.61 30.45 17.50 32.26 15.05 31.49 C 11.46 30.38 9.85 26.45 9.21 23.07 C 8.81 20.72 8.62 17.42 11.14 16.18 C 14.41 15.87 15.62 19.86 18.00 21.46 C 18.87 20.35 19.75 19.24 20.63 18.13 C 19.96 15.64 19.42 12.51 21.60 10.58 Z" />
</g>
</svg>
