<?xml version="1.0" encoding="UTF-8" ?>
<!DOCTYPE svg PUBLIC "-//W3C//DTD SVG 1.1//EN" "http://www.w3.org/Graphics/SVG/1.1/DTD/svg11.dtd">
<svg width="150px" height="80px" viewBox="0 0 150 80" version="1.1" xmlns="http://www.w3.org/2000/svg">
<g id="#181818ff">
<path fill="#181818" opacity="1.00" d=" M 0.00 0.00 L 150.00 0.00 L 150.00 80.00 L 0.00 80.00 L 0.00 0.00 M 17.46 15.56 C 15.81 16.36 15.08 18.19 15.20 19.95 C 15.08 32.65 15.28 45.35 15.10 58.05 C 15.29 59.90 14.77 62.23 16.38 63.58 C 17.50 64.97 19.43 64.76 21.02 64.86 C 57.35 64.78 93.68 64.90 130.01 64.78 C 132.74 65.24 135.19 62.80 134.82 60.07 C 134.91 46.72 134.80 33.36 134.82 20.01 C 135.22 17.30 132.81 14.75 130.06 15.17 C 95.38 15.16 60.69 15.17 26.01 15.16 C 23.17 15.19 20.24 14.87 17.46 15.56 Z" />
<path fill="#181818" opacity="1.00" d=" M 17.99 16.02 C 18.73 15.97 20.21 15.86 20.96 15.81 C 57.31 15.86 93.66 15.83 130.02 15.83 C 132.41 15.37 134.54 17.64 134.15 20.00 C 134.13 33.36 134.23 46.73 134.15 60.09 C 134.29 61.68 133.55 63.29 132.03 63.92 C 129.04 64.33 126.01 64.13 122.99 64.15 C 88.64 64.15 54.29 64.18 19.94 64.16 C 17.57 64.54 15.48 62.41 15.84 60.05 C 15.85 46.68 15.82 33.30 15.87 19.93 C 15.68 18.30 16.51 16.74 17.99 16.02 M 41.29 30.99 C 42.12 32.14 43.44 33.15 43.66 34.63 C 42.66 36.20 39.74 39.75 38.40 36.72 C 38.03 34.15 37.04 31.40 33.86 31.72 C 34.28 32.86 34.70 34.01 35.10 35.16 C 33.99 34.69 32.87 34.28 31.72 33.92 C 31.98 35.38 32.22 37.47 34.09 37.65 C 35.51 38.09 38.79 38.38 37.78 40.64 C 36.12 42.98 33.05 44.39 32.67 47.51 C 35.83 46.66 37.21 43.35 40.00 41.97 C 41.96 42.08 41.89 44.52 42.43 45.88 C 42.48 47.75 44.57 47.83 45.93 48.21 C 45.62 47.07 45.26 45.95 44.86 44.83 C 45.98 45.24 47.10 45.61 48.25 45.95 C 48.53 41.61 43.49 42.69 41.47 40.13 C 42.92 38.56 44.43 37.04 46.04 35.62 C 47.41 36.53 48.97 37.11 50.60 37.38 C 49.19 34.22 46.40 31.99 43.85 29.77 C 43.21 30.07 41.93 30.69 41.29 30.99 Z" />
</g>
<g id="#c79a87ff">
<path fill="#c79a87" opacity="1.00" d=" M 17.46 15.56 C 20.24 14.87 23.17 15.19 26.01 15.16 C 60.69 15.17 95.38 15.16 130.06 15.17 C 132.81 14.75 135.22 17.30 134.82 20.01 C 134.80 33.36 134.91 46.72 134.82 60.07 C 135.19 62.80 132.74 65.24 130.01 64.78 C 93.68 64.90 57.35 64.78 21.02 64.86 C 19.43 64.76 17.50 64.97 16.38 63.58 C 14.77 62.23 15.29 59.90 15.10 58.05 C 15.28 45.35 15.08 32.65 15.20 19.95 C 15.08 18.19 15.81 16.36 17.46 15.56 M 17.99 16.02 C 16.51 16.74 15.68 18.30 15.87 19.93 C 15.82 33.30 15.85 46.68 15.84 60.05 C 15.48 62.41 17.57 64.54 19.94 64.16 C 54.29 64.18 88.64 64.15 122.99 64.15 C 126.01 64.13 129.04 64.33 132.03 63.92 C 133.55 63.29 134.29 61.68 134.15 60.09 C 134.23 46.73 134.13 33.36 134.15 20.00 C 134.54 17.64 132.41 15.37 130.02 15.83 C 93.66 15.83 57.31 15.86 20.96 15.81 C 20.21 15.86 18.73 15.97 17.99 16.02 Z" />
<path fill="#c79a87" opacity="1.00" d=" M 41.29 30.99 C 41.93 30.69 43.21 30.07 43.85 29.77 C 46.40 31.99 49.19 34.22 50.60 37.38 C 48.97 37.11 47.41 36.53 46.04 35.62 C 44.43 37.04 42.92 38.56 41.47 40.13 C 43.49 42.69 48.53 41.61 48.25 45.95 C 47.10 45.61 45.98 45.24 44.86 44.83 C 45.26 45.95 45.62 47.07 45.93 48.21 C 44.57 47.83 42.48 47.75 42.43 45.88 C 41.89 44.52 41.96 42.08 40.00 41.97 C 37.21 43.35 35.83 46.66 32.67 47.51 C 33.05 44.39 36.12 42.98 37.78 40.64 C 38.79 38.38 35.51 38.09 34.09 37.65 C 32.22 37.47 31.98 35.38 31.72 33.92 C 32.87 34.28 33.99 34.69 35.10 35.16 C 34.70 34.01 34.28 32.86 33.86 31.72 C 37.04 31.40 38.03 34.15 38.40 36.72 C 39.74 39.75 42.66 36.20 43.66 34.63 C 43.44 33.15 42.12 32.14 41.29 30.99 Z" />
</g>
</svg>
