<?xml version="1.0" encoding="UTF-8" ?>
<!DOCTYPE svg PUBLIC "-//W3C//DTD SVG 1.1//EN" "http://www.w3.org/Graphics/SVG/1.1/DTD/svg11.dtd">
<svg width="117px" height="140px" viewBox="0 0 117 140" version="1.1" xmlns="http://www.w3.org/2000/svg">
<g id="#181818ff">
<path fill="#181818" opacity="1.00" d=" M 0.00 0.00 L 117.00 0.00 L 117.00 140.00 L 0.00 140.00 L 0.00 0.00 M 28.00 21.40 L 29.04 21.74 L 28.93 22.17 C 31.50 25.34 36.47 19.61 32.75 17.96 L 32.38 17.01 C 29.68 16.13 27.14 18.72 28.00 21.40 M 56.06 19.98 C 56.06 25.68 56.57 31.58 54.46 37.02 C 53.99 37.62 53.53 38.23 53.09 38.85 C 50.43 37.41 49.87 33.88 48.11 32.07 C 44.65 35.88 43.19 41.41 44.44 46.42 C 45.05 51.35 49.53 54.77 54.00 56.16 C 51.17 52.83 55.37 49.18 53.57 45.42 C 55.79 45.96 56.32 48.28 56.73 50.18 C 57.41 48.43 57.34 46.51 57.78 44.70 C 58.41 42.92 60.18 42.10 61.40 40.80 C 61.45 43.53 61.25 46.36 62.38 48.93 C 63.96 48.95 64.19 47.10 64.92 46.09 C 66.22 47.50 66.79 49.37 66.87 51.26 C 66.71 54.35 64.12 56.55 61.09 56.68 C 64.97 57.00 69.14 56.63 72.45 54.39 C 75.50 52.04 76.66 47.23 74.38 43.97 C 72.07 39.58 73.19 34.54 73.92 29.92 C 69.26 31.71 66.56 36.78 67.85 41.63 C 66.15 40.74 66.70 38.27 65.29 37.26 L 65.52 37.06 C 64.94 34.70 65.25 32.23 64.72 29.86 C 63.70 25.34 59.79 22.32 56.06 19.98 M 92.76 26.73 C 90.19 28.05 90.57 32.89 93.50 33.27 L 93.49 34.00 C 97.49 35.21 101.05 29.77 97.64 26.96 C 96.27 25.93 94.17 25.59 92.76 26.73 M 19.59 61.34 C 21.22 61.89 21.69 63.47 21.36 65.04 L 20.85 65.82 L 21.21 66.96 C 21.23 69.65 21.07 72.35 21.28 75.00 C 21.25 76.75 20.34 78.80 21.73 80.25 C 24.55 83.79 29.98 83.56 33.80 81.88 C 34.20 80.90 34.59 79.92 34.98 78.93 C 33.34 78.64 32.53 80.52 30.98 80.64 C 28.21 81.37 23.95 81.15 22.97 77.89 C 26.51 79.23 31.25 79.91 34.28 77.32 C 35.73 76.59 34.32 74.96 34.02 73.97 C 34.27 73.48 34.77 72.48 35.01 71.98 C 34.62 71.13 34.20 70.29 33.77 69.46 C 36.14 69.16 34.23 66.65 34.03 65.37 C 35.68 64.68 34.49 63.00 34.00 61.98 C 50.67 61.96 67.33 61.99 84.00 61.98 C 83.50 62.95 82.28 64.91 84.03 65.41 C 83.70 66.70 81.95 69.07 84.23 69.58 C 83.72 70.36 83.29 71.18 82.96 72.04 C 83.21 72.53 83.72 73.50 83.97 73.98 C 83.61 74.99 82.25 76.47 83.65 77.31 C 86.81 79.59 91.07 79.07 94.61 78.03 L 95.12 78.77 C 93.08 80.45 90.48 81.53 87.81 80.79 C 85.89 80.86 84.88 78.69 82.98 78.93 C 83.36 79.90 83.72 80.88 84.07 81.86 C 87.82 83.65 92.76 83.64 96.02 80.84 L 96.09 80.21 C 97.74 78.84 96.25 76.72 96.80 75.02 C 96.95 72.32 96.76 69.62 96.84 66.95 L 97.13 65.84 L 96.68 65.10 C 96.24 63.48 96.81 61.88 98.47 61.30 C 99.66 60.31 98.73 57.88 97.13 58.02 C 71.71 57.98 46.28 58.00 20.85 58.01 C 19.26 57.95 18.28 60.37 19.59 61.34 M 58.30 68.31 C 55.76 71.11 57.11 75.78 60.43 77.29 C 64.96 80.12 71.04 74.05 68.38 69.45 C 66.64 65.51 60.81 64.73 58.30 68.31 Z" />
</g>
<g id="#d88713ff">
<path fill="#d88713" opacity="1.00" d=" M 28.00 21.40 C 27.14 18.72 29.68 16.13 32.38 17.01 L 32.75 17.96 C 31.53 19.24 30.29 20.49 29.04 21.74 L 28.00 21.40 Z" />
</g>
<g id="#d84e0dff">
<path fill="#d84e0d" opacity="1.00" d=" M 32.75 17.96 C 36.47 19.61 31.50 25.34 28.93 22.17 L 29.04 21.74 C 30.29 20.49 31.53 19.24 32.75 17.96 Z" />
</g>
<g id="#f8c468ff">
<path fill="#f8c468" opacity="1.00" d=" M 56.06 19.98 C 59.79 22.32 63.70 25.34 64.72 29.86 C 60.94 31.79 58.76 36.16 54.46 37.02 C 56.57 31.58 56.06 25.68 56.06 19.98 Z" />
</g>
<g id="#a88cf0ff">
<path fill="#a88cf0" opacity="1.00" d=" M 92.76 26.73 C 94.17 25.59 96.27 25.93 97.64 26.96 C 96.50 29.21 95.06 31.29 93.50 33.27 C 90.57 32.89 90.19 28.05 92.76 26.73 Z" />
</g>
<g id="#836edeff">
<path fill="#836ede" opacity="1.00" d=" M 97.64 26.96 C 101.05 29.77 97.49 35.21 93.49 34.00 L 93.50 33.27 C 95.06 31.29 96.50 29.21 97.64 26.96 Z" />
</g>
<g id="#f8ac58ff">
<path fill="#f8ac58" opacity="1.00" d=" M 64.72 29.86 C 65.25 32.23 64.94 34.70 65.52 37.06 L 65.29 37.26 C 63.90 38.33 62.57 39.49 61.40 40.80 C 60.18 42.10 58.41 42.92 57.78 44.70 C 57.34 46.51 57.41 48.43 56.73 50.18 C 56.32 48.28 55.79 45.96 53.57 45.42 C 55.37 49.18 51.17 52.83 54.00 56.16 C 49.53 54.77 45.05 51.35 44.44 46.42 C 47.95 44.72 50.95 42.11 53.09 38.85 C 53.53 38.23 53.99 37.62 54.46 37.02 C 58.76 36.16 60.94 31.79 64.72 29.86 Z" />
</g>
<g id="#f89c48ff">
<path fill="#f89c48" opacity="1.00" d=" M 67.85 41.63 C 66.56 36.78 69.26 31.71 73.92 29.92 C 73.19 34.54 72.07 39.58 74.38 43.97 C 72.21 46.73 69.46 48.92 66.87 51.26 C 66.79 49.37 66.22 47.50 64.92 46.09 C 64.19 47.10 63.96 48.95 62.38 48.93 C 61.25 46.36 61.45 43.53 61.40 40.80 C 62.57 39.49 63.90 38.33 65.29 37.26 C 66.70 38.27 66.15 40.74 67.85 41.63 Z" />
</g>
<g id="#f8bc60ff">
<path fill="#f8bc60" opacity="1.00" d=" M 48.11 32.07 C 49.87 33.88 50.43 37.41 53.09 38.85 C 50.95 42.11 47.95 44.72 44.44 46.42 C 43.19 41.41 44.65 35.88 48.11 32.07 Z" />
</g>
<g id="#f88438ff">
<path fill="#f88438" opacity="1.00" d=" M 74.38 43.97 C 76.66 47.23 75.50 52.04 72.45 54.39 C 69.14 56.63 64.97 57.00 61.09 56.68 C 64.12 56.55 66.71 54.35 66.87 51.26 C 69.46 48.92 72.21 46.73 74.38 43.97 Z" />
</g>
<g id="#8860f0ff">
<path fill="#8860f0" opacity="1.00" d=" M 19.59 61.34 C 18.28 60.37 19.26 57.95 20.85 58.01 C 46.28 58.00 71.71 57.98 97.13 58.02 C 98.73 57.88 99.66 60.31 98.47 61.30 C 96.81 61.88 96.24 63.48 96.68 65.10 C 95.58 64.55 94.48 63.99 93.34 63.54 C 90.84 62.50 88.04 62.86 85.47 63.41 C 84.96 64.05 84.48 64.72 84.03 65.41 C 82.28 64.91 83.50 62.95 84.00 61.98 C 67.33 61.99 50.67 61.96 34.00 61.98 C 34.49 63.00 35.68 64.68 34.03 65.37 C 33.57 64.71 33.08 64.07 32.56 63.46 C 30.02 62.84 27.20 62.49 24.72 63.54 C 23.59 64.01 22.48 64.54 21.36 65.04 C 21.69 63.47 21.22 61.89 19.59 61.34 Z" />
</g>
<g id="#674fd8ff">
<path fill="#674fd8" opacity="1.00" d=" M 21.36 65.04 C 22.48 64.54 23.59 64.01 24.72 63.54 C 25.02 63.90 25.61 64.63 25.90 64.99 C 28.11 64.66 31.36 66.05 32.56 63.46 C 33.08 64.07 33.57 64.71 34.03 65.37 C 34.23 66.65 36.14 69.16 33.77 69.46 C 33.36 68.77 32.94 68.11 32.49 67.46 C 30.36 66.81 28.14 66.99 25.95 67.03 C 25.58 67.32 24.85 67.90 24.48 68.19 C 23.68 68.99 23.01 69.88 22.28 70.73 C 21.92 69.47 21.60 68.21 21.21 66.96 L 20.85 65.82 L 21.36 65.04 Z" />
</g>
<g id="#2f2746ff">
<path fill="#2f2746" opacity="1.00" d=" M 24.72 63.54 C 27.20 62.49 30.02 62.84 32.56 63.46 C 31.36 66.05 28.11 64.66 25.90 64.99 C 25.61 64.63 25.02 63.90 24.72 63.54 Z" />
</g>
<g id="#674ed8ff">
<path fill="#674ed8" opacity="1.00" d=" M 84.03 65.41 C 84.48 64.72 84.96 64.05 85.47 63.41 C 86.61 66.09 89.95 64.65 92.16 64.98 C 92.46 64.62 93.05 63.90 93.34 63.54 C 94.48 63.99 95.58 64.55 96.68 65.10 L 97.13 65.84 L 96.84 66.95 C 96.50 68.26 96.15 69.56 95.68 70.83 C 94.93 69.93 94.24 68.99 93.45 68.12 C 91.46 66.06 88.09 67.09 85.58 67.46 C 85.11 68.15 84.66 68.86 84.23 69.58 C 81.95 69.07 83.70 66.70 84.03 65.41 Z" />
</g>
<g id="#2e2846ff">
<path fill="#2e2846" opacity="1.00" d=" M 85.47 63.41 C 88.04 62.86 90.84 62.50 93.34 63.54 C 93.05 63.90 92.46 64.62 92.16 64.98 C 89.95 64.65 86.61 66.09 85.47 63.41 Z" />
</g>
<g id="#60dc50ff">
<path fill="#60dc50" opacity="1.00" d=" M 58.30 68.31 C 60.81 64.73 66.64 65.51 68.38 69.45 C 65.47 71.79 62.94 74.53 60.43 77.29 C 57.11 75.78 55.76 71.11 58.30 68.31 Z" />
</g>
<g id="#4848d8ff">
<path fill="#4848d8" opacity="1.00" d=" M 21.21 66.96 C 21.60 68.21 21.92 69.47 22.28 70.73 C 23.01 69.88 23.68 68.99 24.48 68.19 C 26.84 69.14 31.00 70.13 32.49 67.46 C 32.94 68.11 33.36 68.77 33.77 69.46 C 34.20 70.29 34.62 71.13 35.01 71.98 C 34.77 72.48 34.27 73.48 34.02 73.97 C 34.32 74.96 35.73 76.59 34.28 77.32 C 33.65 76.66 33.00 76.01 32.34 75.39 C 29.80 75.02 26.45 73.97 24.49 76.17 C 24.09 76.40 23.28 76.85 22.88 77.08 C 22.32 76.41 21.78 75.72 21.28 75.00 C 21.07 72.35 21.23 69.65 21.21 66.96 M 25.14 71.28 C 25.15 71.64 25.16 72.37 25.17 72.73 C 27.37 73.22 29.73 73.20 31.93 72.72 C 31.91 72.37 31.86 71.66 31.84 71.31 C 29.68 70.79 27.31 70.86 25.14 71.28 Z" />
</g>
<g id="#2a2546ff">
<path fill="#2a2546" opacity="1.00" d=" M 24.48 68.19 C 24.85 67.90 25.58 67.32 25.95 67.03 C 28.14 66.99 30.36 66.81 32.49 67.46 C 31.00 70.13 26.84 69.14 24.48 68.19 Z" />
<path fill="#2a2546" opacity="1.00" d=" M 85.58 67.46 C 88.09 67.09 91.46 66.06 93.45 68.12 C 91.54 69.48 89.12 68.91 86.95 68.96 C 86.61 68.59 85.93 67.84 85.58 67.46 Z" />
</g>
<g id="#4040d0ff">
<path fill="#4040d0" opacity="1.00" d=" M 84.23 69.58 C 84.66 68.86 85.11 68.15 85.58 67.46 C 85.93 67.84 86.61 68.59 86.95 68.96 C 89.12 68.91 91.54 69.48 93.45 68.12 C 94.24 68.99 94.93 69.93 95.68 70.83 C 96.15 69.56 96.50 68.26 96.84 66.95 C 96.76 69.62 96.95 72.32 96.80 75.02 C 96.25 76.72 97.74 78.84 96.09 80.21 C 95.85 79.85 95.36 79.13 95.12 78.77 L 94.61 78.03 C 91.07 79.07 86.81 79.59 83.65 77.31 C 82.25 76.47 83.61 74.99 83.97 73.98 C 83.72 73.50 83.21 72.53 82.96 72.04 C 83.29 71.18 83.72 70.36 84.23 69.58 M 86.24 71.25 C 86.19 71.61 86.10 72.34 86.05 72.70 C 88.24 73.17 90.56 73.12 92.76 72.78 C 92.79 72.41 92.83 71.67 92.85 71.29 C 90.71 70.82 88.40 70.87 86.24 71.25 M 86.11 75.25 C 85.39 77.31 87.61 76.98 88.95 77.05 C 90.41 76.96 93.49 77.71 92.86 75.24 C 90.64 74.86 88.32 74.83 86.11 75.25 Z" />
</g>
<g id="#50d438ff">
<path fill="#50d438" opacity="1.00" d=" M 60.43 77.29 C 62.94 74.53 65.47 71.79 68.38 69.45 C 71.04 74.05 64.96 80.12 60.43 77.29 Z" />
</g>
<g id="#242342ff">
<path fill="#242342" opacity="1.00" d=" M 25.14 71.28 C 27.31 70.86 29.68 70.79 31.84 71.31 C 31.86 71.66 31.91 72.37 31.93 72.72 C 29.73 73.20 27.37 73.22 25.17 72.73 C 25.16 72.37 25.15 71.64 25.14 71.28 Z" />
<path fill="#242342" opacity="1.00" d=" M 86.24 71.25 C 88.40 70.87 90.71 70.82 92.85 71.29 C 92.83 71.67 92.79 72.41 92.76 72.78 C 90.56 73.12 88.24 73.17 86.05 72.70 C 86.10 72.34 86.19 71.61 86.24 71.25 Z" />
</g>
<g id="#2436b2ff">
<path fill="#2436b2" opacity="1.00" d=" M 21.28 75.00 C 21.78 75.72 22.32 76.41 22.88 77.08 C 23.28 76.85 24.09 76.40 24.49 76.17 C 26.85 76.99 31.00 78.25 32.34 75.39 C 33.00 76.01 33.65 76.66 34.28 77.32 C 31.25 79.91 26.51 79.23 22.97 77.89 C 23.95 81.15 28.21 81.37 30.98 80.64 C 32.53 80.52 33.34 78.64 34.98 78.93 C 34.59 79.92 34.20 80.90 33.80 81.88 C 29.98 83.56 24.55 83.79 21.73 80.25 C 20.34 78.80 21.25 76.75 21.28 75.00 Z" />
</g>
<g id="#212141ff">
<path fill="#212141" opacity="1.00" d=" M 24.49 76.17 C 26.45 73.97 29.80 75.02 32.34 75.39 C 31.00 78.25 26.85 76.99 24.49 76.17 Z" />
<path fill="#212141" opacity="1.00" d=" M 86.11 75.25 C 88.32 74.83 90.64 74.86 92.86 75.24 C 93.49 77.71 90.41 76.96 88.95 77.05 C 87.61 76.98 85.39 77.31 86.11 75.25 Z" />
</g>
<g id="#1a31a8ff">
<path fill="#1a31a8" opacity="1.00" d=" M 82.98 78.93 C 84.88 78.69 85.89 80.86 87.81 80.79 C 90.48 81.53 93.08 80.45 95.12 78.77 C 95.36 79.13 95.85 79.85 96.09 80.21 L 96.02 80.84 C 92.76 83.64 87.82 83.65 84.07 81.86 C 83.72 80.88 83.36 79.90 82.98 78.93 Z" />
</g>
</svg>
