<?xml version="1.0" encoding="UTF-8" ?>
<!DOCTYPE svg PUBLIC "-//W3C//DTD SVG 1.1//EN" "http://www.w3.org/Graphics/SVG/1.1/DTD/svg11.dtd">
<svg width="117px" height="140px" viewBox="0 0 117 140" version="1.1" xmlns="http://www.w3.org/2000/svg">
<g id="#f8a04aff">
<path fill="#f8a04a" opacity="1.00" d=" M 0.00 0.00 L 0.38 0.00 C 0.29 0.10 0.10 0.29 0.00 0.39 L 0.00 0.00 Z" />
<path fill="#f8a04a" opacity="1.00" d=" M 59.13 32.60 C 72.38 32.47 85.62 32.53 98.87 32.56 C 98.34 34.58 97.13 36.27 95.59 37.65 C 90.83 42.19 86.35 47.02 81.52 51.49 C 79.96 53.07 77.34 52.64 75.97 51.06 C 71.21 46.46 66.61 41.71 61.87 37.10 C 60.51 35.91 59.67 34.30 59.13 32.60 Z" />
</g>
<g id="#181818ff">
<path fill="#181818" opacity="1.00" d=" M 0.38 0.00 L 117.00 0.00 L 117.00 140.00 L 0.00 140.00 L 0.00 0.39 C 0.10 0.29 0.29 0.10 0.38 0.00 M 72.85 17.86 C 68.36 22.85 62.86 26.98 59.13 32.60 C 59.67 34.30 60.51 35.91 61.87 37.10 C 66.61 41.71 71.21 46.46 75.97 51.06 C 77.34 52.64 79.96 53.07 81.52 51.49 C 86.35 47.02 90.83 42.19 95.59 37.65 C 97.13 36.27 98.34 34.58 98.87 32.56 C 96.60 28.78 93.04 26.05 90.08 22.85 C 87.00 19.93 84.29 16.60 80.95 13.98 C 77.56 12.04 75.00 15.84 72.85 17.86 M 21.83 19.04 C 19.88 21.91 21.54 25.80 24.34 27.40 C 24.32 28.01 24.29 29.22 24.27 29.82 C 23.98 34.58 23.83 39.35 24.09 44.11 C 24.04 46.13 25.86 47.96 27.89 47.90 C 34.96 48.08 42.04 47.95 49.11 47.96 C 51.45 48.27 54.00 46.60 53.92 44.08 C 54.15 38.88 53.93 33.68 54.00 28.48 C 53.64 25.10 55.43 19.50 51.02 18.19 C 44.50 17.71 37.94 18.14 31.40 18.00 C 28.85 14.97 23.67 15.54 21.83 19.04 M 90.01 58.07 C 82.34 58.05 74.65 57.78 67.00 58.17 C 63.59 58.91 63.99 63.00 63.92 65.65 C 64.17 71.79 63.79 77.95 64.10 84.10 C 64.01 86.59 66.54 88.25 68.86 87.94 C 75.93 87.94 83.01 88.06 90.08 87.88 C 92.10 87.97 93.93 86.17 93.89 84.16 C 94.03 76.85 94.33 69.49 93.42 62.22 C 96.62 62.28 99.42 58.52 97.25 55.75 C 95.24 52.54 89.91 54.34 90.01 58.07 M 23.98 66.96 C 24.16 72.98 23.68 79.02 24.22 85.01 C 24.87 88.10 28.52 88.19 31.02 87.88 C 37.66 87.17 44.31 88.53 50.94 87.77 C 52.64 87.51 53.92 85.79 53.92 84.11 C 54.17 78.07 53.88 72.02 54.04 65.97 C 53.98 63.20 54.57 58.97 50.99 58.16 C 42.99 57.88 34.94 57.87 26.95 58.17 C 23.10 59.24 24.13 63.97 23.98 66.96 Z" />
<path fill="#181818" opacity="1.00" d=" M 33.13 21.95 C 38.76 22.01 44.38 21.99 50.01 22.00 C 50.02 24.12 50.00 26.25 50.00 28.37 C 50.00 33.58 50.00 38.79 49.99 44.00 C 42.66 44.02 35.33 44.02 28.00 44.00 C 28.04 39.63 28.05 35.24 27.77 30.87 C 27.73 30.17 27.64 28.76 27.60 28.06 C 30.51 27.29 32.72 24.96 33.13 21.95 Z" />
<path fill="#181818" opacity="1.00" d=" M 28.00 62.01 C 35.33 62.00 42.66 62.00 49.99 62.01 C 49.99 62.81 49.99 64.43 50.00 65.23 C 50.00 71.49 50.01 77.74 49.99 83.99 C 46.41 83.96 42.82 83.97 39.25 84.26 C 38.80 82.53 38.33 79.76 35.93 79.96 C 33.60 79.75 33.10 82.60 32.52 84.24 C 31.02 84.13 29.51 84.02 28.00 83.93 C 28.00 78.02 28.01 72.12 28.00 66.21 C 28.00 64.81 28.00 63.41 28.00 62.01 Z" />
<path fill="#181818" opacity="1.00" d=" M 68.01 62.00 C 75.32 61.89 82.63 62.29 89.92 61.70 C 90.23 69.12 89.87 76.56 89.99 83.99 C 82.66 84.00 75.34 84.00 68.01 83.99 C 68.00 77.89 68.00 71.79 68.02 65.69 C 68.02 64.76 68.01 62.92 68.01 62.00 Z" />
</g>
<g id="#f8be6eff">
<path fill="#f8be6e" opacity="1.00" d=" M 72.85 17.86 C 75.00 15.84 77.56 12.04 80.95 13.98 C 84.29 16.60 87.00 19.93 90.08 22.85 C 93.04 26.05 96.60 28.78 98.87 32.56 C 85.62 32.53 72.38 32.47 59.13 32.60 C 62.86 26.98 68.36 22.85 72.85 17.86 Z" />
<path fill="#f8be6e" opacity="1.00" d=" M 21.83 19.04 C 23.67 15.54 28.85 14.97 31.40 18.00 C 32.03 19.29 32.61 20.61 33.13 21.95 C 32.72 24.96 30.51 27.29 27.60 28.06 C 26.51 27.88 25.41 27.68 24.34 27.40 C 21.54 25.80 19.88 21.91 21.83 19.04 Z" />
</g>
<g id="#8e60f3ff">
<path fill="#8e60f3" opacity="1.00" d=" M 31.40 18.00 C 37.94 18.14 44.50 17.71 51.02 18.19 C 55.43 19.50 53.64 25.10 54.00 28.48 C 52.67 28.45 51.33 28.41 50.00 28.37 C 50.00 26.25 50.02 24.12 50.01 22.00 C 44.38 21.99 38.76 22.01 33.13 21.95 C 32.61 20.61 32.03 19.29 31.40 18.00 Z" />
<path fill="#8e60f3" opacity="1.00" d=" M 32.52 84.24 C 33.10 82.60 33.60 79.75 35.93 79.96 C 38.33 79.76 38.80 82.53 39.25 84.26 C 38.20 84.93 37.14 85.57 36.00 86.08 C 34.75 85.65 33.65 84.91 32.52 84.24 Z" />
</g>
<g id="#1e37c7ff">
<path fill="#1e37c7" opacity="1.00" d=" M 24.34 27.40 C 25.41 27.68 26.51 27.88 27.60 28.06 C 27.64 28.76 27.73 30.17 27.77 30.87 C 26.61 30.50 25.44 30.16 24.27 29.82 C 24.29 29.22 24.32 28.01 24.34 27.40 Z" />
<path fill="#1e37c7" opacity="1.00" d=" M 89.92 61.70 C 89.92 61.14 89.93 60.03 89.93 59.47 C 91.05 60.43 92.19 61.40 93.42 62.22 C 94.33 69.49 94.03 76.85 93.89 84.16 C 93.93 86.17 92.10 87.97 90.08 87.88 C 83.01 88.06 75.93 87.94 68.86 87.94 C 66.54 88.25 64.01 86.59 64.10 84.10 C 63.79 77.95 64.17 71.79 63.92 65.65 C 65.29 65.67 66.65 65.68 68.02 65.69 C 68.00 71.79 68.00 77.89 68.01 83.99 C 75.34 84.00 82.66 84.00 89.99 83.99 C 89.87 76.56 90.23 69.12 89.92 61.70 Z" />
<path fill="#1e37c7" opacity="1.00" d=" M 50.00 65.23 C 51.34 65.48 52.69 65.73 54.04 65.97 C 53.88 72.02 54.17 78.07 53.92 84.11 C 53.92 85.79 52.64 87.51 50.94 87.77 C 44.31 88.53 37.66 87.17 31.02 87.88 C 28.52 88.19 24.87 88.10 24.22 85.01 C 23.68 79.02 24.16 72.98 23.98 66.96 C 25.32 66.71 26.66 66.46 28.00 66.21 C 28.01 72.12 28.00 78.02 28.00 83.93 C 29.51 84.02 31.02 84.13 32.52 84.24 C 33.65 84.91 34.75 85.65 36.00 86.08 C 37.14 85.57 38.20 84.93 39.25 84.26 C 42.82 83.97 46.41 83.96 49.99 83.99 C 50.01 77.74 50.00 71.49 50.00 65.23 Z" />
</g>
<g id="#6752e3ff">
<path fill="#6752e3" opacity="1.00" d=" M 50.00 28.37 C 51.33 28.41 52.67 28.45 54.00 28.48 C 53.93 33.68 54.15 38.88 53.92 44.08 C 54.00 46.60 51.45 48.27 49.11 47.96 C 42.04 47.95 34.96 48.08 27.89 47.90 C 25.86 47.96 24.04 46.13 24.09 44.11 C 23.83 39.35 23.98 34.58 24.27 29.82 C 25.44 30.16 26.61 30.50 27.77 30.87 C 28.05 35.24 28.04 39.63 28.00 44.00 C 35.33 44.02 42.66 44.02 49.99 44.00 C 50.00 38.79 50.00 33.58 50.00 28.37 Z" />
</g>
<g id="#2eedcaff">
<path fill="#2eedca" opacity="1.00" d=" M 90.01 58.07 C 89.91 54.34 95.24 52.54 97.25 55.75 C 99.42 58.52 96.62 62.28 93.42 62.22 C 92.19 61.40 91.05 60.43 89.93 59.47 C 89.95 59.12 89.99 58.42 90.01 58.07 Z" />
</g>
<g id="#4245d6ff">
<path fill="#4245d6" opacity="1.00" d=" M 23.98 66.96 C 24.13 63.97 23.10 59.24 26.95 58.17 C 34.94 57.87 42.99 57.88 50.99 58.16 C 54.57 58.97 53.98 63.20 54.04 65.97 C 52.69 65.73 51.34 65.48 50.00 65.23 C 49.99 64.43 49.99 62.81 49.99 62.01 C 42.66 62.00 35.33 62.00 28.00 62.01 C 28.00 63.41 28.00 64.81 28.00 66.21 C 26.66 66.46 25.32 66.71 23.98 66.96 Z" />
<path fill="#4245d6" opacity="1.00" d=" M 63.92 65.65 C 63.99 63.00 63.59 58.91 67.00 58.17 C 74.65 57.78 82.34 58.05 90.01 58.07 C 89.99 58.42 89.95 59.12 89.93 59.47 C 89.93 60.03 89.92 61.14 89.92 61.70 C 82.63 62.29 75.32 61.89 68.01 62.00 C 68.01 62.92 68.02 64.76 68.02 65.69 C 66.65 65.68 65.29 65.67 63.92 65.65 Z" />
</g>
</svg>
