<?xml version="1.0" encoding="UTF-8" ?>
<!DOCTYPE svg PUBLIC "-//W3C//DTD SVG 1.1//EN" "http://www.w3.org/Graphics/SVG/1.1/DTD/svg11.dtd">
<svg width="117px" height="140px" viewBox="0 0 117 140" version="1.1" xmlns="http://www.w3.org/2000/svg">
<g id="#181818ff">
<path fill="#181818" opacity="1.00" d=" M 0.00 0.00 L 117.00 0.00 L 117.00 140.00 L 0.00 140.00 L 0.00 0.00 M 43.29 23.19 C 43.15 16.02 32.15 14.83 31.02 22.08 C 29.81 28.28 39.30 31.77 42.08 25.99 C 45.64 28.85 54.57 23.85 53.16 30.99 C 52.76 35.29 53.12 39.62 52.94 43.94 C 47.34 44.20 41.73 44.03 36.13 43.94 C 34.67 41.50 38.56 32.24 33.27 33.24 C 28.46 37.93 23.69 42.67 19.09 47.56 C 18.11 48.33 16.31 49.18 17.26 50.70 C 22.47 56.19 27.98 61.38 33.25 66.81 C 38.59 67.65 34.65 58.59 36.10 56.07 C 41.69 55.79 47.30 55.97 52.90 56.05 C 53.13 59.36 52.94 62.68 53.10 66.01 C 53.04 67.72 52.90 71.15 52.84 72.86 C 50.42 74.28 41.22 70.49 42.26 75.70 C 47.76 81.17 53.08 87.17 58.99 92.00 C 65.15 87.38 70.03 80.93 75.81 75.75 C 76.65 70.42 67.63 74.33 65.10 72.90 C 64.98 70.26 64.91 67.63 64.89 65.00 C 65.11 62.03 64.96 59.03 65.08 56.06 C 70.67 55.80 76.27 55.97 81.87 56.06 C 83.33 58.46 79.45 67.78 84.70 66.74 C 90.18 61.24 96.15 55.92 101.02 50.01 C 99.45 47.10 96.51 45.09 94.15 42.83 C 93.51 41.88 92.72 41.02 91.72 40.46 C 100.31 37.33 89.80 26.66 86.95 35.20 C 84.82 31.29 79.16 33.71 82.03 39.00 C 85.17 47.95 74.04 42.56 70.00 44.04 C 60.79 47.46 66.70 35.97 64.88 31.99 C 61.89 22.91 76.00 30.79 75.75 24.29 C 70.22 18.78 64.95 12.92 58.96 7.93 C 53.33 12.48 48.57 18.19 43.29 23.19 M 38.22 81.12 C 35.87 82.59 36.62 87.80 40.00 87.03 C 45.31 87.50 43.13 78.40 38.22 81.12 Z" />
</g>
<g id="#8b62ebff">
<path fill="#8b62eb" opacity="1.00" d=" M 43.29 23.19 C 48.57 18.19 53.33 12.48 58.96 7.93 C 64.95 12.92 70.22 18.78 75.75 24.29 C 76.00 30.79 61.89 22.91 64.88 31.99 C 63.58 32.00 62.28 32.00 60.98 32.00 C 59.35 25.27 60.92 21.22 68.07 22.83 C 65.12 19.83 62.57 16.25 58.98 13.98 C 55.53 16.40 52.70 19.72 49.85 22.84 C 57.77 20.05 57.30 25.82 57.02 31.00 C 55.73 31.00 54.45 30.99 53.16 30.99 C 54.57 23.85 45.64 28.85 42.08 25.99 C 42.49 25.06 42.89 24.12 43.29 23.19 Z" />
</g>
<g id="#f8bd63ff">
<path fill="#f8bd63" opacity="1.00" d=" M 49.85 22.84 C 52.70 19.72 55.53 16.40 58.98 13.98 C 62.57 16.25 65.12 19.83 68.07 22.83 C 60.92 21.22 59.35 25.27 60.98 32.00 C 60.98 37.36 60.92 42.72 61.17 48.07 C 59.88 49.52 58.51 50.89 57.08 52.20 C 48.78 52.16 40.46 51.57 32.18 52.14 C 34.50 65.11 27.10 53.86 22.95 50.68 C 25.20 46.87 28.50 43.84 31.74 40.88 C 31.84 42.64 32.06 46.16 32.17 47.92 C 40.41 48.14 48.67 48.13 56.91 47.91 C 57.08 42.27 57.06 36.64 57.02 31.00 C 57.30 25.82 57.77 20.05 49.85 22.84 Z" />
</g>
<g id="#efaf98ff">
<path fill="#efaf98" opacity="1.00" d=" M 31.02 22.08 C 32.15 14.83 43.15 16.02 43.29 23.19 C 42.89 24.12 42.49 25.06 42.08 25.99 C 39.30 31.77 29.81 28.28 31.02 22.08 Z" />
</g>
<g id="#6855e1ff">
<path fill="#6855e1" opacity="1.00" d=" M 53.16 30.99 C 54.45 30.99 55.73 31.00 57.02 31.00 C 57.06 36.64 57.08 42.27 56.91 47.91 C 48.67 48.13 40.41 48.14 32.17 47.92 C 32.06 46.16 31.84 42.64 31.74 40.88 C 28.50 43.84 25.20 46.87 22.95 50.68 C 21.72 49.57 20.45 48.51 19.09 47.56 C 23.69 42.67 28.46 37.93 33.27 33.24 C 38.56 32.24 34.67 41.50 36.13 43.94 C 41.73 44.03 47.34 44.20 52.94 43.94 C 53.12 39.62 52.76 35.29 53.16 30.99 Z" />
</g>
<g id="#6652e1ff">
<path fill="#6652e1" opacity="1.00" d=" M 60.98 32.00 C 62.28 32.00 63.58 32.00 64.88 31.99 C 66.70 35.97 60.79 47.46 70.00 44.04 C 74.04 42.56 85.17 47.95 82.03 39.00 C 79.16 33.71 84.82 31.29 86.95 35.20 C 86.92 35.89 86.87 37.29 86.84 37.98 C 86.68 38.98 86.54 39.98 86.41 40.99 C 86.25 42.72 85.94 46.18 85.78 47.91 C 77.58 48.20 69.37 47.87 61.17 48.07 C 60.92 42.72 60.98 37.36 60.98 32.00 Z" />
</g>
<g id="#95d812ff">
<path fill="#95d812" opacity="1.00" d=" M 86.95 35.20 C 89.80 26.66 100.31 37.33 91.72 40.46 C 90.05 39.73 88.42 38.90 86.84 37.98 C 86.87 37.29 86.92 35.89 86.95 35.20 Z" />
</g>
<g id="#53409bff">
<path fill="#53409b" opacity="1.00" d=" M 86.84 37.98 C 88.42 38.90 90.05 39.73 91.72 40.46 C 92.72 41.02 93.51 41.88 94.15 42.83 C 93.29 43.86 92.42 44.90 91.62 45.98 C 89.87 44.32 88.12 42.68 86.41 40.99 C 86.54 39.98 86.68 38.98 86.84 37.98 Z" />
</g>
<g id="#f79e4cff">
<path fill="#f79e4c" opacity="1.00" d=" M 86.41 40.99 C 88.12 42.68 89.87 44.32 91.62 45.98 C 98.97 50.46 89.73 55.33 86.16 59.15 C 86.08 57.39 85.92 53.85 85.84 52.08 C 77.59 51.86 69.34 51.86 61.09 52.09 C 60.96 56.39 60.94 60.70 60.98 65.00 C 60.79 71.40 58.47 80.09 68.08 77.16 C 65.13 80.16 62.57 83.75 58.98 86.02 C 55.53 83.60 52.70 80.28 49.84 77.16 C 59.37 80.46 56.83 71.67 57.00 66.00 C 57.03 61.40 56.97 56.80 57.08 52.20 C 58.51 50.89 59.88 49.52 61.17 48.07 C 69.37 47.87 77.58 48.20 85.78 47.91 C 85.94 46.18 86.25 42.72 86.41 40.99 Z" />
</g>
<g id="#534bd6ff">
<path fill="#534bd6" opacity="1.00" d=" M 94.15 42.83 C 96.51 45.09 99.45 47.10 101.02 50.01 C 96.15 55.92 90.18 61.24 84.70 66.74 C 79.45 67.78 83.33 58.46 81.87 56.06 C 76.27 55.97 70.67 55.80 65.08 56.06 C 64.96 59.03 65.11 62.03 64.89 65.00 C 63.59 65.00 62.29 65.00 60.98 65.00 C 60.94 60.70 60.96 56.39 61.09 52.09 C 69.34 51.86 77.59 51.86 85.84 52.08 C 85.92 53.85 86.08 57.39 86.16 59.15 C 89.73 55.33 98.97 50.46 91.62 45.98 C 92.42 44.90 93.29 43.86 94.15 42.83 Z" />
</g>
<g id="#514cd9ff">
<path fill="#514cd9" opacity="1.00" d=" M 17.26 50.70 C 16.31 49.18 18.11 48.33 19.09 47.56 C 20.45 48.51 21.72 49.57 22.95 50.68 C 27.10 53.86 34.50 65.11 32.18 52.14 C 40.46 51.57 48.78 52.16 57.08 52.20 C 56.97 56.80 57.03 61.40 57.00 66.00 C 55.70 66.00 54.40 66.00 53.10 66.01 C 52.94 62.68 53.13 59.36 52.90 56.05 C 47.30 55.97 41.69 55.79 36.10 56.07 C 34.65 58.59 38.59 67.65 33.25 66.81 C 27.98 61.38 22.47 56.19 17.26 50.70 Z" />
</g>
<g id="#333fc8ff">
<path fill="#333fc8" opacity="1.00" d=" M 60.98 65.00 C 62.29 65.00 63.59 65.00 64.89 65.00 C 64.91 67.63 64.98 70.26 65.10 72.90 C 67.63 74.33 76.65 70.42 75.81 75.75 C 70.03 80.93 65.15 87.38 58.99 92.00 C 53.08 87.17 47.76 81.17 42.26 75.70 C 41.22 70.49 50.42 74.28 52.84 72.86 C 52.90 71.15 53.04 67.72 53.10 66.01 C 54.40 66.00 55.70 66.00 57.00 66.00 C 56.83 71.67 59.37 80.46 49.84 77.16 C 52.70 80.28 55.53 83.60 58.98 86.02 C 62.57 83.75 65.13 80.16 68.08 77.16 C 58.47 80.09 60.79 71.40 60.98 65.00 Z" />
</g>
<g id="#303adbff">
<path fill="#303adb" opacity="1.00" d=" M 38.22 81.12 C 43.13 78.40 45.31 87.50 40.00 87.03 C 36.62 87.80 35.87 82.59 38.22 81.12 Z" />
</g>
</svg>
