<?xml version="1.0" encoding="UTF-8" ?>
<!DOCTYPE svg PUBLIC "-//W3C//DTD SVG 1.1//EN" "http://www.w3.org/Graphics/SVG/1.1/DTD/svg11.dtd">
<svg width="117px" height="140px" viewBox="0 0 117 140" version="1.1" xmlns="http://www.w3.org/2000/svg">
<g id="#181818ff">
<path fill="#181818" opacity="1.00" d=" M 0.00 0.00 L 117.00 0.00 L 117.00 140.00 L 0.00 140.00 L 0.00 0.00 M 85.33 22.52 C 82.01 24.42 85.48 29.64 88.56 27.42 C 91.90 25.59 88.41 20.05 85.33 22.52 M 24.78 29.75 C 22.39 31.86 22.77 35.30 24.17 37.86 L 24.40 38.37 C 19.50 38.05 16.36 43.20 15.25 47.39 L 15.02 47.28 C 14.87 50.51 15.36 53.72 16.70 56.68 C 19.25 60.35 23.34 63.04 27.92 62.95 C 47.96 63.07 68.00 62.94 88.04 63.01 C 92.05 63.17 96.29 62.18 99.16 59.22 C 101.39 57.20 102.27 54.25 103.17 51.49 C 102.95 48.95 102.54 46.43 101.77 44.00 L 101.62 44.05 C 99.08 39.60 94.21 36.61 89.01 37.00 C 70.75 37.17 52.46 36.64 34.21 37.28 C 35.40 34.41 34.96 31.37 32.80 29.10 C 30.25 27.80 26.87 27.40 24.78 29.75 M 65.19 67.21 C 63.39 68.85 64.14 71.45 65.25 73.24 C 67.27 74.00 69.96 74.43 71.27 72.23 C 72.58 70.71 71.58 68.79 71.20 67.14 C 69.36 66.17 66.80 65.40 65.19 67.21 Z" />
<path fill="#181818" opacity="1.00" d=" M 24.11 41.64 C 24.51 41.34 25.29 40.72 25.69 40.41 C 47.14 41.47 68.64 40.67 90.10 41.04 C 93.29 40.95 95.97 42.89 97.90 45.25 C 98.79 47.62 99.05 50.17 98.78 52.69 C 97.12 56.02 94.09 59.05 90.11 58.92 C 69.72 59.09 49.31 58.98 28.92 58.98 C 25.54 59.26 22.60 57.40 20.33 55.07 C 19.61 53.14 19.13 51.12 18.78 49.08 C 19.55 46.00 21.51 43.43 24.11 41.64 M 23.63 52.33 C 24.97 55.19 28.46 55.00 31.11 55.07 C 34.33 54.97 37.56 54.99 40.78 54.99 C 43.26 55.00 45.74 55.00 48.22 55.01 C 52.46 55.00 56.70 54.98 60.94 55.00 C 65.33 55.01 69.71 54.98 74.10 54.99 C 78.03 55.02 81.96 54.96 85.89 55.03 C 88.03 54.90 90.33 55.28 92.34 54.37 C 95.20 52.98 95.80 48.72 93.55 46.52 C 91.91 44.74 89.31 45.13 87.14 44.94 C 83.24 45.06 79.35 44.98 75.45 45.01 C 71.27 45.01 67.08 44.99 62.90 45.00 C 58.43 45.02 53.97 44.99 49.50 45.00 C 47.02 45.00 44.54 44.99 42.06 45.00 C 36.89 44.98 31.73 45.02 26.56 45.11 C 23.88 46.31 21.94 49.54 23.63 52.33 Z" />
</g>
<g id="#60e050ff">
<path fill="#60e050" opacity="1.00" d=" M 85.33 22.52 C 88.41 20.05 91.90 25.59 88.56 27.42 C 85.48 29.64 82.01 24.42 85.33 22.52 Z" />
</g>
<g id="#409cd8ff">
<path fill="#409cd8" opacity="1.00" d=" M 24.78 29.75 C 26.87 27.40 30.25 27.80 32.80 29.10 C 30.44 32.48 27.51 35.43 24.17 37.86 C 22.77 35.30 22.39 31.86 24.78 29.75 Z" />
</g>
<g id="#2854c8ff">
<path fill="#2854c8" opacity="1.00" d=" M 32.80 29.10 C 34.96 31.37 35.40 34.41 34.21 37.28 C 34.03 37.98 33.67 39.37 33.49 40.07 C 30.69 40.13 27.87 40.16 25.08 39.79 C 24.91 39.44 24.57 38.72 24.40 38.37 L 24.17 37.86 C 27.51 35.43 30.44 32.48 32.80 29.10 Z" />
</g>
<g id="#9060f8ff">
<path fill="#9060f8" opacity="1.00" d=" M 34.21 37.28 C 52.46 36.64 70.75 37.17 89.01 37.00 C 94.21 36.61 99.08 39.60 101.62 44.05 C 100.39 44.46 99.15 44.86 97.90 45.25 C 95.97 42.89 93.29 40.95 90.10 41.04 C 68.64 40.67 47.14 41.47 25.69 40.41 C 25.29 40.72 24.51 41.34 24.11 41.64 C 24.30 40.56 24.40 39.47 24.40 38.37 C 24.57 38.72 24.91 39.44 25.08 39.79 C 27.87 40.16 30.69 40.13 33.49 40.07 C 33.67 39.37 34.03 37.98 34.21 37.28 Z" />
</g>
<g id="#7858e8ff">
<path fill="#7858e8" opacity="1.00" d=" M 15.25 47.39 C 16.36 43.20 19.50 38.05 24.40 38.37 C 24.40 39.47 24.30 40.56 24.11 41.64 C 21.51 43.43 19.55 46.00 18.78 49.08 C 17.60 48.51 16.43 47.95 15.25 47.39 Z" />
</g>
<g id="#6050e0ff">
<path fill="#6050e0" opacity="1.00" d=" M 101.62 44.05 L 101.77 44.00 C 102.54 46.43 102.95 48.95 103.17 51.49 C 101.70 51.88 100.24 52.29 98.78 52.69 C 99.05 50.17 98.79 47.62 97.90 45.25 C 99.15 44.86 100.39 44.46 101.62 44.05 Z" />
</g>
<g id="#f8e080ff">
<path fill="#f8e080" opacity="1.00" d=" M 23.63 52.33 C 21.94 49.54 23.88 46.31 26.56 45.11 C 28.10 46.36 29.74 47.52 31.03 49.04 C 31.63 50.99 31.13 53.07 31.11 55.07 C 28.46 55.00 24.97 55.19 23.63 52.33 Z" />
</g>
<g id="#f8d470ff">
<path fill="#f8d470" opacity="1.00" d=" M 26.56 45.11 C 31.73 45.02 36.89 44.98 42.06 45.00 C 41.56 48.32 41.14 51.65 40.78 54.99 C 37.56 54.99 34.33 54.97 31.11 55.07 C 31.13 53.07 31.63 50.99 31.03 49.04 C 29.74 47.52 28.10 46.36 26.56 45.11 Z" />
</g>
<g id="#f8c468ff">
<path fill="#f8c468" opacity="1.00" d=" M 42.06 45.00 C 44.54 44.99 47.02 45.00 49.50 45.00 C 49.38 48.37 48.95 51.72 48.22 55.01 C 45.74 55.00 43.26 55.00 40.78 54.99 C 41.14 51.65 41.56 48.32 42.06 45.00 Z" />
</g>
<g id="#f8b458ff">
<path fill="#f8b458" opacity="1.00" d=" M 49.50 45.00 C 53.97 44.99 58.43 45.02 62.90 45.00 C 62.32 48.35 61.66 51.68 60.94 55.00 C 56.70 54.98 52.46 55.00 48.22 55.01 C 48.95 51.72 49.38 48.37 49.50 45.00 Z" />
</g>
<g id="#f8a048ff">
<path fill="#f8a048" opacity="1.00" d=" M 62.90 45.00 C 67.08 44.99 71.27 45.01 75.45 45.01 C 75.05 48.34 74.60 51.67 74.10 54.99 C 69.71 54.98 65.33 55.01 60.94 55.00 C 61.66 51.68 62.32 48.35 62.90 45.00 Z" />
</g>
<g id="#f88c40ff">
<path fill="#f88c40" opacity="1.00" d=" M 75.45 45.01 C 79.35 44.98 83.24 45.06 87.14 44.94 C 86.77 48.31 86.36 51.67 85.89 55.03 C 81.96 54.96 78.03 55.02 74.10 54.99 C 74.60 51.67 75.05 48.34 75.45 45.01 Z" />
</g>
<g id="#f87c30ff">
<path fill="#f87c30" opacity="1.00" d=" M 87.14 44.94 C 89.31 45.13 91.91 44.74 93.55 46.52 C 95.80 48.72 95.20 52.98 92.34 54.37 C 90.33 55.28 88.03 54.90 85.89 55.03 C 86.36 51.67 86.77 48.31 87.14 44.94 Z" />
</g>
<g id="#5048e0ff">
<path fill="#5048e0" opacity="1.00" d=" M 15.02 47.28 L 15.25 47.39 C 16.43 47.95 17.60 48.51 18.78 49.08 C 19.13 51.12 19.61 53.14 20.33 55.07 C 19.12 55.62 17.91 56.15 16.70 56.68 C 15.36 53.72 14.87 50.51 15.02 47.28 Z" />
</g>
<g id="#2038c8ff">
<path fill="#2038c8" opacity="1.00" d=" M 98.78 52.69 C 100.24 52.29 101.70 51.88 103.17 51.49 C 102.27 54.25 101.39 57.20 99.16 59.22 C 96.29 62.18 92.05 63.17 88.04 63.01 C 68.00 62.94 47.96 63.07 27.92 62.95 C 23.34 63.04 19.25 60.35 16.70 56.68 C 17.91 56.15 19.12 55.62 20.33 55.07 C 22.60 57.40 25.54 59.26 28.92 58.98 C 49.31 58.98 69.72 59.09 90.11 58.92 C 94.09 59.05 97.12 56.02 98.78 52.69 Z" />
</g>
<g id="#f8a878ff">
<path fill="#f8a878" opacity="1.00" d=" M 65.19 67.21 C 66.80 65.40 69.36 66.17 71.20 67.14 C 69.16 69.12 67.18 71.16 65.25 73.24 C 64.14 71.45 63.39 68.85 65.19 67.21 Z" />
</g>
<g id="#f878b0ff">
<path fill="#f878b0" opacity="1.00" d=" M 65.25 73.24 C 67.18 71.16 69.16 69.12 71.20 67.14 C 71.58 68.79 72.58 70.71 71.27 72.23 C 69.96 74.43 67.27 74.00 65.25 73.24 Z" />
</g>
</svg>
