<?xml version="1.0" encoding="UTF-8" ?>
<!DOCTYPE svg PUBLIC "-//W3C//DTD SVG 1.1//EN" "http://www.w3.org/Graphics/SVG/1.1/DTD/svg11.dtd">
<svg width="117pt" height="140pt" viewBox="0 0 117 140" version="1.1" xmlns="http://www.w3.org/2000/svg">
<g id="#000000ff">
<path fill="#000000" opacity="1.00" d=" M 0.00 0.00 L 117.00 0.00 L 117.00 140.00 L 0.00 140.00 L 0.00 0.00 M 33.18 10.25 C 17.93 11.78 5.21 25.64 5.04 40.98 C 4.97 60.34 4.97 79.70 5.04 99.06 C 5.20 115.01 19.02 129.26 34.95 129.90 C 49.62 130.14 64.30 129.92 78.97 130.01 C 84.66 130.15 90.45 129.17 95.52 126.49 C 106.06 121.23 113.14 109.76 112.98 97.96 C 113.01 79.30 113.02 60.63 112.98 41.97 C 113.09 30.91 106.89 20.11 97.35 14.53 C 91.85 11.18 85.34 9.78 78.95 9.99 C 63.69 10.18 48.42 9.66 33.18 10.25 Z" />
<path fill="#000000" opacity="1.00" d=" M 33.25 12.30 C 48.84 11.73 64.46 12.21 80.06 12.05 C 90.89 11.65 101.66 17.60 106.95 27.08 C 109.84 31.86 111.07 37.46 110.95 43.02 C 110.91 61.69 111.03 80.36 110.89 99.03 C 110.83 113.89 97.91 127.23 83.08 127.83 C 68.38 128.11 53.67 127.85 38.97 127.96 C 33.60 128.09 28.11 127.24 23.35 124.65 C 13.51 119.74 6.90 109.03 7.07 98.02 C 7.06 78.97 6.99 59.93 7.10 40.89 C 7.26 26.65 19.11 13.77 33.25 12.30 M 60.33 28.67 C 60.12 32.97 60.29 37.28 60.07 41.58 C 55.01 42.43 50.61 46.16 49.87 51.40 C 45.42 51.32 40.95 51.03 36.51 51.35 C 40.82 52.14 45.23 51.65 49.58 51.90 C 50.27 57.29 54.22 61.97 59.77 62.63 C 60.14 66.90 59.96 71.23 60.58 75.47 C 61.15 71.20 60.50 66.90 60.54 62.61 C 66.21 62.48 70.96 57.90 71.30 52.25 C 75.69 51.84 80.09 51.74 84.50 51.69 C 80.18 50.64 75.71 51.53 71.33 51.52 C 70.59 46.19 66.04 41.96 60.63 41.77 C 60.65 37.41 61.29 32.97 60.33 28.67 Z" />
</g>
<g id="#788cc0ff">
<path fill="#788cc0" opacity="1.00" d=" M 33.18 10.25 C 48.42 9.66 63.69 10.18 78.95 9.99 C 85.34 9.78 91.85 11.18 97.35 14.53 C 106.89 20.11 113.09 30.91 112.98 41.97 C 113.02 60.63 113.01 79.30 112.98 97.96 C 113.14 109.76 106.06 121.23 95.52 126.49 C 90.45 129.17 84.66 130.15 78.97 130.01 C 64.30 129.92 49.62 130.14 34.95 129.90 C 19.02 129.26 5.20 115.01 5.04 99.06 C 4.97 79.70 4.97 60.34 5.04 40.98 C 5.21 25.64 17.93 11.78 33.18 10.25 M 33.25 12.30 C 19.11 13.77 7.26 26.65 7.10 40.89 C 6.99 59.93 7.06 78.97 7.07 98.02 C 6.90 109.03 13.51 119.74 23.35 124.65 C 28.11 127.24 33.60 128.09 38.97 127.96 C 53.67 127.85 68.38 128.11 83.08 127.83 C 97.91 127.23 110.83 113.89 110.89 99.03 C 111.03 80.36 110.91 61.69 110.95 43.02 C 111.07 37.46 109.84 31.86 106.95 27.08 C 101.66 17.60 90.89 11.65 80.06 12.05 C 64.46 12.21 48.84 11.73 33.25 12.30 Z" />
</g>
<g id="#f8fcf8ff">
<path fill="#f8fcf8" opacity="1.00" d=" M 60.33 28.67 C 61.29 32.97 60.65 37.41 60.63 41.77 C 66.04 41.96 70.59 46.19 71.33 51.52 C 75.71 51.53 80.18 50.64 84.50 51.69 C 80.09 51.74 75.69 51.84 71.30 52.25 C 70.96 57.90 66.21 62.48 60.54 62.61 C 60.50 66.90 61.15 71.20 60.58 75.47 C 59.96 71.23 60.14 66.90 59.77 62.63 C 54.22 61.97 50.27 57.29 49.58 51.90 C 45.23 51.65 40.82 52.14 36.51 51.35 C 40.95 51.03 45.42 51.32 49.87 51.40 C 50.61 46.16 55.01 42.43 60.07 41.58 C 60.29 37.28 60.12 32.97 60.33 28.67 Z" />
</g>
</svg>
