<?xml version="1.0" encoding="UTF-8" ?>
<!DOCTYPE svg PUBLIC "-//W3C//DTD SVG 1.1//EN" "http://www.w3.org/Graphics/SVG/1.1/DTD/svg11.dtd">
<svg width="117pt" height="140pt" viewBox="0 0 117 140" version="1.1" xmlns="http://www.w3.org/2000/svg">
<g id="#000000ff">
<path fill="#000000" opacity="1.00" d=" M 0.00 0.00 L 117.00 0.00 L 117.00 140.00 L 0.00 140.00 L 0.00 0.00 M 33.23 10.25 C 17.97 11.75 5.23 25.60 5.04 40.94 C 4.97 60.32 4.97 79.71 5.04 99.10 C 5.22 115.04 19.04 129.27 34.97 129.90 C 49.65 130.14 64.34 129.92 79.03 130.01 C 84.72 130.15 90.50 129.15 95.56 126.47 C 106.05 121.21 113.10 109.81 112.98 98.05 C 113.01 79.38 113.01 60.71 112.98 42.04 C 113.11 30.98 106.94 20.17 97.41 14.56 C 91.91 11.20 85.39 9.79 78.99 9.98 C 63.74 10.18 48.46 9.67 33.23 10.25 Z" />
<path fill="#000000" opacity="1.00" d=" M 33.19 12.31 C 45.44 11.73 57.73 12.21 70.00 12.05 C 77.55 12.22 85.51 11.16 92.61 14.39 C 103.49 18.84 111.15 30.19 110.92 41.98 C 110.94 61.01 111.01 80.03 110.89 99.06 C 110.82 114.25 97.31 127.76 82.13 127.88 C 66.75 128.01 51.35 127.97 35.97 127.90 C 20.74 127.80 7.18 114.27 7.10 99.03 C 7.02 79.68 7.02 60.32 7.10 40.96 C 7.22 26.72 19.05 13.81 33.19 12.31 M 44.08 34.05 C 38.91 38.93 35.23 46.34 36.43 53.55 C 40.62 53.60 44.80 53.57 48.99 53.59 C 49.91 58.81 54.30 62.70 59.54 63.22 C 59.53 67.62 59.53 72.03 59.25 76.43 C 60.66 72.13 60.25 67.58 60.29 63.13 C 65.40 62.35 69.45 58.33 70.15 53.19 C 74.54 53.05 79.02 53.67 83.32 52.52 C 78.96 52.22 74.59 52.43 70.23 52.42 C 69.81 47.13 65.90 42.66 60.66 41.71 C 60.69 37.49 60.66 33.27 60.72 29.05 C 54.86 26.95 48.62 30.47 44.08 34.05 Z" />
<path fill="#000000" opacity="1.00" d=" M 52.87 45.85 C 56.26 41.73 62.69 42.25 66.45 45.57 C 67.80 47.85 69.35 50.27 68.96 53.05 C 68.75 59.12 61.71 63.86 56.07 61.26 C 50.02 59.05 48.00 50.25 52.87 45.85 Z" />
</g>
<g id="#788cc0ff">
<path fill="#788cc0" opacity="1.00" d=" M 33.23 10.25 C 48.46 9.67 63.74 10.18 78.99 9.98 C 85.39 9.79 91.91 11.20 97.41 14.56 C 106.94 20.17 113.11 30.98 112.98 42.04 C 113.01 60.71 113.01 79.38 112.98 98.05 C 113.10 109.81 106.05 121.21 95.56 126.47 C 90.50 129.15 84.72 130.15 79.03 130.01 C 64.34 129.92 49.65 130.14 34.97 129.90 C 19.04 129.27 5.22 115.04 5.04 99.10 C 4.97 79.71 4.97 60.32 5.04 40.94 C 5.23 25.60 17.97 11.75 33.23 10.25 M 33.19 12.31 C 19.05 13.81 7.22 26.72 7.10 40.96 C 7.02 60.32 7.02 79.68 7.10 99.03 C 7.18 114.27 20.74 127.80 35.97 127.90 C 51.35 127.97 66.75 128.01 82.13 127.88 C 97.31 127.76 110.82 114.25 110.89 99.06 C 111.01 80.03 110.94 61.01 110.92 41.98 C 111.15 30.19 103.49 18.84 92.61 14.39 C 85.51 11.16 77.55 12.22 70.00 12.05 C 57.73 12.21 45.44 11.73 33.19 12.31 Z" />
</g>
<g id="#f8fcf8ff">
<path fill="#f8fcf8" opacity="1.00" d=" M 44.08 34.05 C 48.62 30.47 54.86 26.95 60.72 29.05 C 60.66 33.27 60.69 37.49 60.66 41.71 C 65.90 42.66 69.81 47.13 70.23 52.42 C 74.59 52.43 78.96 52.22 83.32 52.52 C 79.02 53.67 74.54 53.05 70.15 53.19 C 69.45 58.33 65.40 62.35 60.29 63.13 C 60.25 67.58 60.66 72.13 59.25 76.43 C 59.53 72.03 59.53 67.62 59.54 63.22 C 54.30 62.70 49.91 58.81 48.99 53.59 C 44.80 53.57 40.62 53.60 36.43 53.55 C 35.23 46.34 38.91 38.93 44.08 34.05 M 52.87 45.85 C 48.00 50.25 50.02 59.05 56.07 61.26 C 61.71 63.86 68.75 59.12 68.96 53.05 C 69.35 50.27 67.80 47.85 66.45 45.57 C 62.69 42.25 56.26 41.73 52.87 45.85 Z" />
</g>
</svg>
