<?xml version="1.0" encoding="UTF-8" ?>
<!DOCTYPE svg PUBLIC "-//W3C//DTD SVG 1.1//EN" "http://www.w3.org/Graphics/SVG/1.1/DTD/svg11.dtd">
<svg width="117pt" height="140pt" viewBox="0 0 117 140" version="1.1" xmlns="http://www.w3.org/2000/svg">
<g id="#000000ff">
<path fill="#000000" opacity="1.00" d=" M 0.00 0.00 L 117.00 0.00 L 117.00 140.00 L 0.00 140.00 L 0.00 0.00 M 33.20 10.25 C 17.93 11.78 5.20 25.64 5.04 40.99 C 4.97 60.32 4.98 79.65 5.03 98.98 C 5.16 114.95 18.97 129.24 34.92 129.90 C 50.27 130.12 65.64 129.96 81.00 129.98 C 94.37 130.19 107.11 120.99 111.28 108.32 C 112.82 104.07 113.06 99.52 113.01 95.05 C 112.97 77.39 113.03 59.73 112.98 42.07 C 113.12 30.98 106.93 20.15 97.38 14.54 C 91.90 11.21 85.42 9.79 79.05 9.99 C 63.77 10.18 48.46 9.67 33.20 10.25 Z" />
<path fill="#000000" opacity="1.00" d=" M 33.27 12.30 C 49.49 11.77 65.76 12.14 82.00 12.10 C 97.23 12.18 110.83 25.72 110.89 40.96 C 110.98 60.33 110.99 79.70 110.89 99.07 C 110.82 114.28 97.27 127.80 82.07 127.88 C 66.70 128.01 51.32 127.97 35.95 127.90 C 20.73 127.79 7.19 114.28 7.10 99.06 C 7.02 79.69 7.02 60.32 7.10 40.96 C 7.22 26.69 19.10 13.76 33.27 12.30 M 60.35 27.14 C 56.38 31.08 52.43 35.05 48.47 39.01 C 50.09 41.10 52.48 41.59 55.00 41.28 C 55.00 43.30 55.00 45.31 55.00 47.33 C 53.03 47.32 51.07 47.33 49.10 47.33 C 49.15 44.91 48.58 42.47 46.73 40.77 C 42.73 44.70 38.80 48.71 34.81 52.65 C 38.75 56.60 42.71 60.54 46.65 64.50 C 47.44 63.64 48.24 62.77 49.02 61.89 C 49.01 60.60 49.00 59.30 48.99 58.00 C 50.99 58.00 53.00 58.00 55.00 58.00 C 55.00 60.00 55.00 62.00 55.00 64.00 C 52.46 63.64 50.09 64.25 48.47 66.32 C 52.44 70.27 56.38 74.26 60.38 78.19 C 64.26 74.25 68.17 70.33 72.11 66.46 C 71.78 66.08 71.12 65.32 70.79 64.94 C 70.22 64.72 69.07 64.29 68.50 64.07 C 67.80 64.05 66.41 64.00 65.71 63.97 C 65.71 61.98 65.71 59.99 65.71 58.00 C 67.71 58.00 69.71 58.00 71.71 58.00 C 71.39 60.53 71.90 62.91 74.00 64.53 C 77.96 60.57 81.92 56.61 85.88 52.65 C 81.95 48.73 78.03 44.80 74.10 40.88 C 73.71 41.22 72.92 41.88 72.53 42.21 C 72.01 43.88 71.67 45.59 71.62 47.34 C 69.65 47.33 67.68 47.33 65.71 47.32 C 65.71 45.34 65.72 43.35 65.73 41.37 C 67.44 41.27 69.13 40.96 70.78 40.50 C 71.11 40.10 71.77 39.31 72.09 38.91 C 68.19 34.97 64.29 31.04 60.35 27.14 Z" />
<path fill="#000000" opacity="1.00" d=" M 60.35 30.93 C 62.90 33.50 65.48 36.04 68.04 38.61 C 66.36 38.61 64.68 38.61 63.00 38.61 C 63.00 42.41 63.00 46.20 63.00 50.00 C 66.81 50.00 70.61 50.00 74.42 50.00 C 74.42 48.33 74.41 46.67 74.40 45.00 C 76.99 47.57 79.62 50.10 82.11 52.76 C 79.47 55.18 77.04 57.83 74.40 60.25 C 74.40 58.62 74.40 56.98 74.41 55.35 C 70.61 55.31 66.81 55.33 63.01 55.32 C 62.99 59.13 63.00 62.93 63.01 66.74 C 64.67 66.74 66.34 66.74 68.01 66.74 C 65.47 69.31 62.91 71.86 60.34 74.40 C 57.81 71.85 55.24 69.32 52.73 66.75 C 54.37 66.72 56.01 66.74 57.65 66.73 C 57.65 62.93 57.65 59.13 57.64 55.33 C 53.86 55.32 50.08 55.33 46.30 55.33 C 46.28 56.98 46.29 58.64 46.27 60.30 C 43.70 57.77 41.15 55.21 38.61 52.65 C 41.18 50.11 43.73 47.54 46.29 44.99 C 46.29 46.66 46.29 48.32 46.28 49.99 C 50.07 50.00 53.86 50.01 57.65 49.99 C 57.65 46.20 57.65 42.41 57.63 38.62 C 56.01 38.64 54.39 38.64 52.78 38.50 C 55.30 35.97 57.83 33.45 60.35 30.93 Z" />
</g>
<g id="#788cc0ff">
<path fill="#788cc0" opacity="1.00" d=" M 33.20 10.25 C 48.46 9.67 63.77 10.18 79.05 9.99 C 85.42 9.79 91.90 11.21 97.38 14.54 C 106.93 20.15 113.12 30.98 112.98 42.07 C 113.03 59.73 112.97 77.39 113.01 95.05 C 113.06 99.52 112.82 104.07 111.28 108.32 C 107.11 120.99 94.37 130.19 81.00 129.98 C 65.64 129.96 50.27 130.12 34.92 129.90 C 18.97 129.24 5.16 114.95 5.03 98.98 C 4.98 79.65 4.97 60.32 5.04 40.99 C 5.20 25.64 17.93 11.78 33.20 10.25 M 33.27 12.30 C 19.10 13.76 7.22 26.69 7.10 40.96 C 7.02 60.32 7.02 79.69 7.10 99.06 C 7.19 114.28 20.73 127.79 35.95 127.90 C 51.32 127.97 66.70 128.01 82.07 127.88 C 97.27 127.80 110.82 114.28 110.89 99.07 C 110.99 79.70 110.98 60.33 110.89 40.96 C 110.83 25.72 97.23 12.18 82.00 12.10 C 65.76 12.14 49.49 11.77 33.27 12.30 Z" />
</g>
<g id="#f8fcf8ff">
<path fill="#f8fcf8" opacity="1.00" d=" M 60.35 27.14 C 64.29 31.04 68.19 34.97 72.09 38.91 C 71.77 39.31 71.11 40.10 70.78 40.50 C 69.13 40.96 67.44 41.27 65.73 41.37 C 65.72 43.35 65.71 45.34 65.71 47.32 C 67.68 47.33 69.65 47.33 71.62 47.34 C 71.67 45.59 72.01 43.88 72.53 42.21 C 72.92 41.88 73.71 41.22 74.10 40.88 C 78.03 44.80 81.95 48.73 85.88 52.65 C 81.92 56.61 77.96 60.57 74.00 64.53 C 71.90 62.91 71.39 60.53 71.71 58.00 C 69.71 58.00 67.71 58.00 65.71 58.00 C 65.71 59.99 65.71 61.98 65.71 63.97 C 66.41 64.00 67.80 64.05 68.50 64.07 C 69.07 64.29 70.22 64.72 70.79 64.94 C 71.12 65.32 71.78 66.08 72.11 66.46 C 68.17 70.33 64.26 74.25 60.38 78.19 C 56.38 74.26 52.44 70.27 48.47 66.32 C 50.09 64.25 52.46 63.64 55.00 64.00 C 55.00 62.00 55.00 60.00 55.00 58.00 C 53.00 58.00 50.99 58.00 48.99 58.00 C 49.00 59.30 49.01 60.60 49.02 61.89 C 48.24 62.77 47.44 63.64 46.65 64.50 C 42.71 60.54 38.75 56.60 34.81 52.65 C 38.80 48.71 42.73 44.70 46.73 40.77 C 48.58 42.47 49.15 44.91 49.10 47.33 C 51.07 47.33 53.03 47.32 55.00 47.33 C 55.00 45.31 55.00 43.30 55.00 41.28 C 52.48 41.59 50.09 41.10 48.47 39.01 C 52.43 35.05 56.38 31.08 60.35 27.14 M 60.35 30.93 C 57.83 33.45 55.30 35.97 52.78 38.50 C 54.39 38.64 56.01 38.64 57.63 38.62 C 57.65 42.41 57.65 46.20 57.65 49.99 C 53.86 50.01 50.07 50.00 46.28 49.99 C 46.29 48.32 46.29 46.66 46.29 44.99 C 43.73 47.54 41.18 50.11 38.61 52.65 C 41.15 55.21 43.70 57.77 46.27 60.30 C 46.29 58.64 46.28 56.98 46.30 55.33 C 50.08 55.33 53.86 55.32 57.64 55.33 C 57.65 59.13 57.65 62.93 57.65 66.73 C 56.01 66.74 54.37 66.72 52.73 66.75 C 55.24 69.32 57.81 71.85 60.34 74.40 C 62.91 71.86 65.47 69.31 68.01 66.74 C 66.34 66.74 64.67 66.74 63.01 66.74 C 63.00 62.93 62.99 59.13 63.01 55.32 C 66.81 55.33 70.61 55.31 74.41 55.35 C 74.40 56.98 74.40 58.62 74.40 60.25 C 77.04 57.83 79.47 55.18 82.11 52.76 C 79.62 50.10 76.99 47.57 74.40 45.00 C 74.41 46.67 74.42 48.33 74.42 50.00 C 70.61 50.00 66.81 50.00 63.00 50.00 C 63.00 46.20 63.00 42.41 63.00 38.61 C 64.68 38.61 66.36 38.61 68.04 38.61 C 65.48 36.04 62.90 33.50 60.35 30.93 Z" />
</g>
</svg>
