<?xml version="1.0" encoding="UTF-8" ?>
<!DOCTYPE svg PUBLIC "-//W3C//DTD SVG 1.1//EN" "http://www.w3.org/Graphics/SVG/1.1/DTD/svg11.dtd">
<svg width="117pt" height="140pt" viewBox="0 0 117 140" version="1.1" xmlns="http://www.w3.org/2000/svg">
<g id="#000000ff">
<path fill="#000000" opacity="1.00" d=" M 0.00 0.00 L 117.00 0.00 L 117.00 140.00 L 0.00 140.00 L 0.00 0.00 M 33.13 10.22 C 17.89 11.80 5.17 25.64 5.01 40.98 C 5.02 60.67 4.93 80.37 5.05 100.05 C 5.73 115.64 19.35 129.28 34.95 129.94 C 50.30 130.09 65.65 129.95 80.99 130.01 C 93.10 130.16 104.81 122.70 109.91 111.74 C 112.14 107.16 113.13 102.04 113.02 96.96 C 112.98 78.65 113.00 60.35 113.01 42.04 C 113.12 31.98 108.05 22.09 99.92 16.19 C 94.23 11.98 87.10 9.80 80.03 9.98 C 64.40 10.17 48.74 9.70 33.13 10.22 Z" />
<path fill="#000000" opacity="1.00" d=" M 30.47 12.71 C 35.25 11.65 40.18 12.10 45.04 12.00 C 57.72 12.06 70.40 11.88 83.07 12.09 C 97.94 12.77 110.84 26.10 110.96 41.00 C 111.03 60.33 111.03 79.66 110.96 98.99 C 110.88 114.28 97.27 127.85 81.99 127.96 C 66.32 128.01 50.65 128.07 34.99 127.92 C 20.11 127.26 7.17 113.94 7.03 99.04 C 6.98 79.68 6.98 60.31 7.03 40.95 C 7.23 27.65 17.48 15.44 30.47 12.71 M 57.19 27.08 C 57.23 34.33 57.28 41.59 57.16 48.84 C 57.95 48.86 59.54 48.90 60.33 48.92 C 60.33 41.62 60.32 34.32 60.34 27.02 C 59.55 27.04 57.98 27.07 57.19 27.08 M 37.15 42.19 C 31.37 50.67 31.70 62.81 38.00 70.93 C 42.80 77.48 50.93 81.40 59.05 80.93 C 66.93 80.75 74.45 76.39 78.78 69.83 C 83.21 63.43 84.09 54.88 81.57 47.57 C 79.72 42.18 75.79 37.78 71.19 34.55 C 70.43 35.36 69.68 36.17 68.93 36.98 C 77.45 41.74 81.87 52.56 79.03 61.92 C 77.18 68.86 71.61 74.61 64.78 76.77 C 57.82 79.14 49.72 77.57 44.09 72.85 C 38.55 68.39 35.53 61.04 36.22 53.97 C 36.79 46.97 41.00 40.49 47.07 36.97 C 46.32 36.16 45.58 35.36 44.83 34.55 C 41.90 36.68 39.12 39.11 37.15 42.19 Z" />
</g>
<g id="#7186b5ff">
<path fill="#7186b5" opacity="1.00" d=" M 33.13 10.22 C 48.74 9.70 64.40 10.17 80.03 9.98 C 87.10 9.80 94.23 11.98 99.92 16.19 C 108.05 22.09 113.12 31.98 113.01 42.04 C 113.00 60.35 112.98 78.65 113.02 96.96 C 113.13 102.04 112.14 107.16 109.91 111.74 C 104.81 122.70 93.10 130.16 80.99 130.01 C 65.65 129.95 50.30 130.09 34.95 129.94 C 19.35 129.28 5.73 115.64 5.05 100.05 C 4.93 80.37 5.02 60.67 5.01 40.98 C 5.17 25.64 17.89 11.80 33.13 10.22 M 30.47 12.71 C 17.48 15.44 7.23 27.65 7.03 40.95 C 6.98 60.31 6.98 79.68 7.03 99.04 C 7.17 113.94 20.11 127.26 34.99 127.92 C 50.65 128.07 66.32 128.01 81.99 127.96 C 97.27 127.85 110.88 114.28 110.96 98.99 C 111.03 79.66 111.03 60.33 110.96 41.00 C 110.84 26.10 97.94 12.77 83.07 12.09 C 70.40 11.88 57.72 12.06 45.04 12.00 C 40.18 12.10 35.25 11.65 30.47 12.71 Z" />
</g>
<g id="#f8fcf8ff">
<path fill="#f8fcf8" opacity="1.00" d=" M 57.19 27.08 C 57.98 27.07 59.55 27.04 60.34 27.02 C 60.32 34.32 60.33 41.62 60.33 48.92 C 59.54 48.90 57.95 48.86 57.16 48.84 C 57.28 41.59 57.23 34.33 57.19 27.08 Z" />
<path fill="#f8fcf8" opacity="1.00" d=" M 37.15 42.19 C 39.12 39.11 41.90 36.68 44.83 34.55 C 45.58 35.36 46.32 36.16 47.07 36.97 C 41.00 40.49 36.79 46.97 36.22 53.97 C 35.53 61.04 38.55 68.39 44.09 72.85 C 49.72 77.57 57.82 79.14 64.78 76.77 C 71.61 74.61 77.18 68.86 79.03 61.92 C 81.87 52.56 77.45 41.74 68.93 36.98 C 69.68 36.17 70.43 35.36 71.19 34.55 C 75.79 37.78 79.72 42.18 81.57 47.57 C 84.09 54.88 83.21 63.43 78.78 69.83 C 74.45 76.39 66.93 80.75 59.05 80.93 C 50.93 81.40 42.80 77.48 38.00 70.93 C 31.70 62.81 31.37 50.67 37.15 42.19 Z" />
</g>
</svg>
