<?xml version="1.0" encoding="UTF-8" ?>
<!DOCTYPE svg PUBLIC "-//W3C//DTD SVG 1.1//EN" "http://www.w3.org/Graphics/SVG/1.1/DTD/svg11.dtd">
<svg width="117pt" height="140pt" viewBox="0 0 117 140" version="1.1" xmlns="http://www.w3.org/2000/svg">
<g id="#000000ff">
<path fill="#000000" opacity="1.00" d=" M 0.00 0.00 L 117.00 0.00 L 117.00 140.00 L 0.00 140.00 L 0.00 0.00 M 33.15 10.25 C 17.90 11.80 5.18 25.67 5.04 41.02 C 4.95 60.02 5.02 79.03 5.00 98.03 C 4.98 106.88 8.86 115.63 15.41 121.58 C 21.45 127.19 29.72 130.20 37.95 130.01 C 53.00 129.91 68.05 130.16 83.10 129.89 C 99.01 129.25 112.81 114.98 112.95 99.06 C 113.06 80.05 112.99 61.03 112.98 42.02 C 113.10 30.97 106.93 20.17 97.43 14.57 C 91.92 11.20 85.41 9.79 79.00 9.98 C 63.72 10.18 48.42 9.66 33.15 10.25 Z" />
<path fill="#000000" opacity="1.00" d=" M 33.23 12.30 C 45.47 11.74 57.75 12.20 70.01 12.05 C 77.57 12.24 85.53 11.15 92.63 14.40 C 103.51 18.86 111.15 30.21 110.93 42.00 C 110.94 61.02 111.01 80.03 110.89 99.04 C 110.82 113.89 97.91 127.22 83.09 127.83 C 68.39 128.12 53.69 127.85 38.99 127.96 C 33.89 128.06 28.68 127.35 24.09 125.01 C 13.86 120.26 6.87 109.30 7.07 97.99 C 7.06 78.96 6.99 59.92 7.10 40.88 C 7.26 26.65 19.10 13.79 33.23 12.30 M 46.86 50.74 C 43.96 52.04 44.67 57.01 48.02 56.98 C 50.01 57.48 50.89 55.18 52.23 54.18 C 51.77 51.85 49.36 49.03 46.86 50.74 M 70.60 50.38 C 68.46 51.12 67.00 54.20 69.20 55.75 C 70.70 58.21 75.08 56.88 74.95 53.99 C 75.27 51.84 72.70 49.63 70.60 50.38 M 56.73 53.04 C 55.87 55.96 60.15 58.47 62.22 56.11 C 64.75 54.07 62.71 50.50 60.00 49.92 C 58.69 50.70 56.85 51.21 56.73 53.04 Z" />
</g>
<g id="#788cc0ff">
<path fill="#788cc0" opacity="1.00" d=" M 33.15 10.25 C 48.42 9.66 63.72 10.18 79.00 9.98 C 85.41 9.79 91.92 11.20 97.43 14.57 C 106.93 20.17 113.10 30.97 112.98 42.02 C 112.99 61.03 113.06 80.05 112.95 99.06 C 112.81 114.98 99.01 129.25 83.10 129.89 C 68.05 130.16 53.00 129.91 37.95 130.01 C 29.72 130.20 21.45 127.19 15.41 121.58 C 8.86 115.63 4.98 106.88 5.00 98.03 C 5.02 79.03 4.95 60.02 5.04 41.02 C 5.18 25.67 17.90 11.80 33.15 10.25 M 33.23 12.30 C 19.10 13.79 7.26 26.65 7.10 40.88 C 6.99 59.92 7.06 78.96 7.07 97.99 C 6.87 109.30 13.86 120.26 24.09 125.01 C 28.68 127.35 33.89 128.06 38.99 127.96 C 53.69 127.85 68.39 128.12 83.09 127.83 C 97.91 127.22 110.82 113.89 110.89 99.04 C 111.01 80.03 110.94 61.02 110.93 42.00 C 111.15 30.21 103.51 18.86 92.63 14.40 C 85.53 11.15 77.57 12.24 70.01 12.05 C 57.75 12.20 45.47 11.74 33.23 12.30 Z" />
</g>
<g id="#f8fcf8ff">
<path fill="#f8fcf8" opacity="1.00" d=" M 46.86 50.74 C 49.36 49.03 51.77 51.85 52.23 54.18 C 50.89 55.18 50.01 57.48 48.02 56.98 C 44.67 57.01 43.96 52.04 46.86 50.74 Z" />
<path fill="#f8fcf8" opacity="1.00" d=" M 70.60 50.38 C 72.70 49.63 75.27 51.84 74.95 53.99 C 75.08 56.88 70.70 58.21 69.20 55.75 C 67.00 54.20 68.46 51.12 70.60 50.38 Z" />
<path fill="#f8fcf8" opacity="1.00" d=" M 56.73 53.04 C 56.85 51.21 58.69 50.70 60.00 49.92 C 62.71 50.50 64.75 54.07 62.22 56.11 C 60.15 58.47 55.87 55.96 56.73 53.04 Z" />
</g>
</svg>
