<?xml version="1.0" encoding="UTF-8" ?>
<!DOCTYPE svg PUBLIC "-//W3C//DTD SVG 1.1//EN" "http://www.w3.org/Graphics/SVG/1.1/DTD/svg11.dtd">
<svg width="117pt" height="140pt" viewBox="0 0 117 140" version="1.1" xmlns="http://www.w3.org/2000/svg">
<g id="#000000ff">
<path fill="#000000" opacity="1.00" d=" M 0.00 0.00 L 117.00 0.00 L 117.00 140.00 L 0.00 140.00 L 0.00 0.00 M 33.20 10.21 C 17.93 11.76 5.16 25.62 5.02 40.99 C 5.02 60.65 4.92 80.32 5.07 99.98 C 5.67 115.95 19.96 129.85 35.96 129.97 C 51.66 129.98 67.37 130.10 83.08 129.91 C 99.02 129.29 112.85 114.99 112.98 99.04 C 112.98 79.35 113.08 59.66 112.93 39.97 C 112.31 24.01 98.02 10.15 82.04 10.03 C 65.76 10.09 49.47 9.74 33.20 10.21 Z" />
<path fill="#000000" opacity="1.00" d=" M 30.55 12.69 C 34.32 11.86 38.21 12.00 42.04 12.00 C 55.71 12.06 69.38 11.87 83.05 12.10 C 97.92 12.74 110.84 26.09 110.95 40.98 C 111.03 60.33 111.03 79.67 110.95 99.01 C 110.87 114.26 97.30 127.82 82.06 127.94 C 66.68 128.04 51.29 128.02 35.91 127.96 C 20.69 127.79 7.16 114.27 7.04 99.04 C 6.97 79.69 6.98 60.34 7.03 41.00 C 7.20 27.64 17.52 15.40 30.55 12.69 M 57.19 27.08 C 57.24 34.34 57.26 41.60 57.17 48.85 C 57.96 48.87 59.54 48.90 60.33 48.91 C 60.33 41.62 60.32 34.32 60.34 27.02 C 59.55 27.04 57.98 27.07 57.19 27.08 M 44.44 34.92 C 35.65 40.49 31.11 51.81 33.74 61.91 C 36.00 71.75 44.84 79.71 54.91 80.77 C 63.18 81.87 71.85 78.51 77.13 72.03 C 82.11 66.30 83.96 58.23 82.46 50.84 C 81.22 44.10 76.73 38.41 71.21 34.54 C 70.45 35.34 69.68 36.13 68.91 36.92 C 77.08 41.60 81.61 51.76 79.28 60.94 C 77.62 68.59 71.47 75.01 63.91 77.03 C 57.40 78.96 50.02 77.49 44.68 73.32 C 39.06 69.10 35.77 61.98 36.17 54.96 C 36.38 47.52 40.82 40.62 47.16 36.86 C 46.24 36.34 45.59 34.69 44.44 34.92 Z" />
</g>
<g id="#7186b5ff">
<path fill="#7186b5" opacity="1.00" d=" M 33.20 10.21 C 49.47 9.74 65.76 10.09 82.04 10.03 C 98.02 10.15 112.31 24.01 112.93 39.97 C 113.08 59.66 112.98 79.35 112.98 99.04 C 112.85 114.99 99.02 129.29 83.08 129.91 C 67.37 130.10 51.66 129.98 35.96 129.97 C 19.96 129.85 5.67 115.95 5.07 99.98 C 4.92 80.32 5.02 60.65 5.02 40.99 C 5.16 25.62 17.93 11.76 33.20 10.21 M 30.55 12.69 C 17.52 15.40 7.20 27.64 7.03 41.00 C 6.98 60.34 6.97 79.69 7.04 99.04 C 7.16 114.27 20.69 127.79 35.91 127.96 C 51.29 128.02 66.68 128.04 82.06 127.94 C 97.30 127.82 110.87 114.26 110.95 99.01 C 111.03 79.67 111.03 60.33 110.95 40.98 C 110.84 26.09 97.92 12.74 83.05 12.10 C 69.38 11.87 55.71 12.06 42.04 12.00 C 38.21 12.00 34.32 11.86 30.55 12.69 Z" />
</g>
<g id="#f8fcf8ff">
<path fill="#f8fcf8" opacity="1.00" d=" M 57.19 27.08 C 57.98 27.07 59.55 27.04 60.34 27.02 C 60.32 34.32 60.33 41.62 60.33 48.91 C 59.54 48.90 57.96 48.87 57.17 48.85 C 57.26 41.60 57.24 34.34 57.19 27.08 Z" />
<path fill="#f8fcf8" opacity="1.00" d=" M 44.44 34.92 C 45.59 34.69 46.24 36.34 47.16 36.86 C 40.82 40.62 36.38 47.52 36.17 54.96 C 35.77 61.98 39.06 69.10 44.68 73.32 C 50.02 77.49 57.40 78.96 63.91 77.03 C 71.47 75.01 77.62 68.59 79.28 60.94 C 81.61 51.76 77.08 41.60 68.91 36.92 C 69.68 36.13 70.45 35.34 71.21 34.54 C 76.73 38.41 81.22 44.10 82.46 50.84 C 83.96 58.23 82.11 66.30 77.13 72.03 C 71.85 78.51 63.18 81.87 54.91 80.77 C 44.84 79.71 36.00 71.75 33.74 61.91 C 31.11 51.81 35.65 40.49 44.44 34.92 Z" />
</g>
</svg>
