<?xml version="1.0" encoding="UTF-8" ?>
<!DOCTYPE svg PUBLIC "-//W3C//DTD SVG 1.1//EN" "http://www.w3.org/Graphics/SVG/1.1/DTD/svg11.dtd">
<svg width="117pt" height="140pt" viewBox="0 0 117 140" version="1.1" xmlns="http://www.w3.org/2000/svg">
<g id="#000000ff">
<path fill="#000000" opacity="1.00" d=" M 0.00 0.00 L 117.00 0.00 L 117.00 140.00 L 0.00 140.00 L 0.00 0.00 M 33.11 10.22 C 17.89 11.80 5.18 25.63 5.02 40.96 C 4.99 60.32 4.99 79.68 5.02 99.04 C 5.15 115.01 19.00 129.29 34.96 129.93 C 50.63 130.08 66.31 129.99 81.99 129.98 C 98.00 129.88 112.34 115.97 112.93 99.98 C 113.10 80.67 112.95 61.35 113.01 42.03 C 113.13 31.67 107.74 21.53 99.21 15.69 C 93.36 11.56 86.10 9.68 78.98 9.97 C 63.69 10.18 48.39 9.68 33.11 10.22 Z" />
<path fill="#000000" opacity="1.00" d=" M 30.56 12.70 C 35.30 11.68 40.18 12.08 44.99 12.00 C 57.69 12.07 70.39 11.87 83.08 12.11 C 97.94 12.77 110.87 26.12 110.95 41.01 C 111.06 59.35 110.97 77.69 111.00 96.04 C 111.15 101.42 110.29 106.92 107.67 111.68 C 102.74 121.52 92.03 128.13 81.01 127.98 C 65.65 127.96 50.29 128.12 34.94 127.90 C 20.09 127.25 7.17 113.93 7.04 99.05 C 6.97 79.69 6.97 60.32 7.04 40.96 C 7.21 27.62 17.54 15.39 30.56 12.70 M 40.66 45.00 C 41.71 45.97 42.48 47.86 43.99 47.99 C 47.46 46.35 51.13 44.69 55.08 44.98 C 59.25 44.94 62.92 47.20 66.28 49.42 C 68.20 46.75 70.06 44.02 71.53 41.08 C 67.71 38.12 62.70 37.22 57.96 37.45 C 51.47 37.15 44.89 40.09 40.66 45.00 M 67.20 50.99 C 70.57 54.36 71.34 59.06 71.96 63.57 C 75.72 63.58 79.49 63.60 83.25 63.54 C 84.23 54.95 79.49 46.86 72.93 41.68 C 71.12 44.85 69.25 47.98 67.20 50.99 M 57.01 45.33 C 56.45 51.13 56.41 57.00 55.34 62.74 C 56.91 62.53 58.49 62.46 60.07 62.50 C 59.80 57.31 59.17 52.15 58.91 46.96 C 58.27 46.42 57.63 45.88 57.01 45.33 M 33.76 58.72 C 34.69 59.13 35.61 59.55 36.52 59.98 C 37.64 56.57 38.95 53.18 41.41 50.50 C 43.24 48.90 40.53 47.59 39.70 46.34 C 36.36 49.61 34.71 54.23 33.76 58.72 M 55.06 65.60 C 53.63 68.72 57.95 72.21 60.20 69.15 C 62.28 67.16 59.75 65.17 58.16 63.99 C 57.13 64.54 56.10 65.07 55.06 65.60 Z" />
<path fill="#000000" opacity="1.00" d=" M 54.72 41.27 C 56.51 40.87 58.34 40.73 60.17 40.66 C 59.22 43.09 56.57 41.46 54.72 41.27 Z" />
<path fill="#000000" opacity="1.00" d=" M 62.68 41.11 C 64.12 41.41 65.55 41.79 66.97 42.18 C 66.35 43.03 65.72 43.88 65.10 44.73 C 63.89 43.82 62.82 42.71 62.68 41.11 Z" />
<path fill="#000000" opacity="1.00" d=" M 72.44 49.55 C 71.66 48.59 72.79 46.64 74.04 47.19 C 75.04 48.11 73.59 49.98 72.44 49.55 Z" />
<path fill="#000000" opacity="1.00" d=" M 72.75 53.38 C 73.99 52.36 75.22 51.33 76.45 50.31 C 77.00 51.44 77.56 52.56 78.13 53.68 C 76.88 54.26 75.65 54.87 74.42 55.49 C 73.86 54.79 73.30 54.09 72.75 53.38 Z" />
<path fill="#000000" opacity="1.00" d=" M 74.15 59.86 C 75.72 58.76 77.34 57.72 79.04 56.82 C 79.29 57.89 79.53 58.96 79.74 60.04 C 77.88 60.01 76.01 59.97 74.15 59.86 Z" />
</g>
<g id="#7185b5ff">
<path fill="#7185b5" opacity="1.00" d=" M 33.11 10.22 C 48.39 9.68 63.69 10.18 78.98 9.97 C 86.10 9.68 93.36 11.56 99.21 15.69 C 107.74 21.53 113.13 31.67 113.01 42.03 C 112.95 61.35 113.10 80.67 112.93 99.98 C 112.34 115.97 98.00 129.88 81.99 129.98 C 66.31 129.99 50.63 130.08 34.96 129.93 C 19.00 129.29 5.15 115.01 5.02 99.04 C 4.99 79.68 4.99 60.32 5.02 40.96 C 5.18 25.63 17.89 11.80 33.11 10.22 M 30.56 12.70 C 17.54 15.39 7.21 27.62 7.04 40.96 C 6.97 60.32 6.97 79.69 7.04 99.05 C 7.17 113.93 20.09 127.25 34.94 127.90 C 50.29 128.12 65.65 127.96 81.01 127.98 C 92.03 128.13 102.74 121.52 107.67 111.68 C 110.29 106.92 111.15 101.42 111.00 96.04 C 110.97 77.69 111.06 59.35 110.95 41.01 C 110.87 26.12 97.94 12.77 83.08 12.11 C 70.39 11.87 57.69 12.07 44.99 12.00 C 40.18 12.08 35.30 11.68 30.56 12.70 Z" />
</g>
<g id="#f8fcf8ff">
<path fill="#f8fcf8" opacity="1.00" d=" M 40.66 45.00 C 44.89 40.09 51.47 37.15 57.96 37.45 C 62.70 37.22 67.71 38.12 71.53 41.08 C 70.06 44.02 68.20 46.75 66.28 49.42 C 62.92 47.20 59.25 44.94 55.08 44.98 C 51.13 44.69 47.46 46.35 43.99 47.99 C 42.48 47.86 41.71 45.97 40.66 45.00 M 54.72 41.27 C 56.57 41.46 59.22 43.09 60.17 40.66 C 58.34 40.73 56.51 40.87 54.72 41.27 M 62.68 41.11 C 62.82 42.71 63.89 43.82 65.10 44.73 C 65.72 43.88 66.35 43.03 66.97 42.18 C 65.55 41.79 64.12 41.41 62.68 41.11 Z" />
<path fill="#f8fcf8" opacity="1.00" d=" M 67.20 50.99 C 69.25 47.98 71.12 44.85 72.93 41.68 C 79.49 46.86 84.23 54.95 83.25 63.54 C 79.49 63.60 75.72 63.58 71.96 63.57 C 71.34 59.06 70.57 54.36 67.20 50.99 M 72.44 49.55 C 73.59 49.98 75.04 48.11 74.04 47.19 C 72.79 46.64 71.66 48.59 72.44 49.55 M 72.75 53.38 C 73.30 54.09 73.86 54.79 74.42 55.49 C 75.65 54.87 76.88 54.26 78.13 53.68 C 77.56 52.56 77.00 51.44 76.45 50.31 C 75.22 51.33 73.99 52.36 72.75 53.38 M 74.15 59.86 C 76.01 59.97 77.88 60.01 79.74 60.04 C 79.53 58.96 79.29 57.89 79.04 56.82 C 77.34 57.72 75.72 58.76 74.15 59.86 Z" />
<path fill="#f8fcf8" opacity="1.00" d=" M 57.01 45.33 C 57.63 45.88 58.27 46.42 58.91 46.96 C 59.17 52.15 59.80 57.31 60.07 62.50 C 58.49 62.46 56.91 62.53 55.34 62.74 C 56.41 57.00 56.45 51.13 57.01 45.33 Z" />
<path fill="#f8fcf8" opacity="1.00" d=" M 33.76 58.72 C 34.71 54.23 36.36 49.61 39.70 46.34 C 40.53 47.59 43.24 48.90 41.41 50.50 C 38.95 53.18 37.64 56.57 36.52 59.98 C 35.61 59.55 34.69 59.13 33.76 58.72 Z" />
<path fill="#f8fcf8" opacity="1.00" d=" M 55.06 65.60 C 56.10 65.07 57.13 64.54 58.16 63.99 C 59.75 65.17 62.28 67.16 60.20 69.15 C 57.95 72.21 53.63 68.72 55.06 65.60 Z" />
</g>
</svg>
