<?xml version="1.0" encoding="UTF-8" ?>
<!DOCTYPE svg PUBLIC "-//W3C//DTD SVG 1.1//EN" "http://www.w3.org/Graphics/SVG/1.1/DTD/svg11.dtd">
<svg width="150pt" height="80pt" viewBox="0 0 150 80" version="1.1" xmlns="http://www.w3.org/2000/svg">
<g id="#000000ff">
<path fill="#000000" opacity="1.00" d=" M 0.00 0.00 L 150.00 0.00 L 150.00 80.00 L 0.00 80.00 L 0.00 0.00 M 6.30 5.49 C 2.79 6.69 0.66 10.41 0.99 14.05 C 1.04 31.69 0.94 49.34 1.03 66.98 C 0.85 71.68 5.40 75.52 9.99 75.01 C 53.34 74.99 96.69 75.01 140.03 75.00 C 144.61 75.50 149.13 71.70 148.95 67.00 C 149.08 49.36 148.95 31.70 149.01 14.05 C 149.19 11.16 148.05 8.14 145.60 6.48 C 142.85 4.46 139.24 5.09 136.04 4.98 C 96.03 5.03 56.02 4.99 16.01 4.99 C 12.78 5.08 9.46 4.64 6.30 5.49 Z" />
<path fill="#000000" opacity="1.00" d=" M 7.07 7.35 C 8.67 6.91 10.36 7.01 12.01 6.97 C 55.05 7.07 98.09 6.91 141.13 7.05 C 144.77 6.96 147.44 10.55 147.00 14.03 C 146.96 31.73 147.08 49.44 146.94 67.14 C 147.04 70.77 143.46 73.46 139.99 73.00 C 96.67 73.01 53.35 72.99 10.03 73.00 C 6.52 73.48 2.93 70.72 3.05 67.06 C 2.93 49.36 3.03 31.66 3.00 13.96 C 2.77 11.17 4.25 8.15 7.07 7.35 M 42.00 29.00 C 42.00 36.33 42.00 43.67 42.00 51.00 C 49.00 51.00 56.00 51.00 63.00 51.00 C 63.00 43.67 63.00 36.33 63.00 29.00 C 56.00 29.00 49.00 29.00 42.00 29.00 Z" />
</g>
<g id="#6e8ac5ff">
<path fill="#6e8ac5" opacity="1.00" d=" M 6.30 5.49 C 9.46 4.64 12.78 5.08 16.01 4.99 C 56.02 4.99 96.03 5.03 136.04 4.98 C 139.24 5.09 142.85 4.46 145.60 6.48 C 148.05 8.14 149.19 11.16 149.01 14.05 C 148.95 31.70 149.08 49.36 148.95 67.00 C 149.13 71.70 144.61 75.50 140.03 75.00 C 96.69 75.01 53.34 74.99 9.99 75.01 C 5.40 75.52 0.85 71.68 1.03 66.98 C 0.94 49.34 1.04 31.69 0.99 14.05 C 0.66 10.41 2.79 6.69 6.30 5.49 M 7.07 7.35 C 4.25 8.15 2.77 11.17 3.00 13.96 C 3.03 31.66 2.93 49.36 3.05 67.06 C 2.93 70.72 6.52 73.48 10.03 73.00 C 53.35 72.99 96.67 73.01 139.99 73.00 C 143.46 73.46 147.04 70.77 146.94 67.14 C 147.08 49.44 146.96 31.73 147.00 14.03 C 147.44 10.55 144.77 6.96 141.13 7.05 C 98.09 6.91 55.05 7.07 12.01 6.97 C 10.36 7.01 8.67 6.91 7.07 7.35 Z" />
</g>
<g id="#f8fcf8ff">
<path fill="#f8fcf8" opacity="1.00" d=" M 42.00 29.00 C 49.00 29.00 56.00 29.00 63.00 29.00 C 63.00 36.33 63.00 43.67 63.00 51.00 C 56.00 51.00 49.00 51.00 42.00 51.00 C 42.00 43.67 42.00 36.33 42.00 29.00 Z" />
</g>
</svg>
