<?xml version="1.0" encoding="UTF-8" ?>
<!DOCTYPE svg PUBLIC "-//W3C//DTD SVG 1.1//EN" "http://www.w3.org/Graphics/SVG/1.1/DTD/svg11.dtd">
<svg width="117pt" height="140pt" viewBox="0 0 117 140" version="1.1" xmlns="http://www.w3.org/2000/svg">
<g id="#384450ff">
<path fill="#384450" opacity="1.00" d=" M 0.00 0.00 L 117.00 0.00 L 117.00 140.00 L 0.00 140.00 L 0.00 0.00 M 41.18 59.78 C 43.44 61.68 45.88 59.38 47.50 57.84 C 47.28 55.42 45.97 52.23 43.03 52.53 C 39.37 52.54 37.78 58.09 41.18 59.78 M 56.46 53.50 C 54.00 55.34 54.99 59.61 57.89 60.30 C 61.04 61.53 64.36 57.31 62.39 54.58 C 61.42 52.39 58.11 51.74 56.46 53.50 M 72.39 53.37 C 70.60 54.67 70.03 57.57 71.89 59.09 C 73.82 61.88 78.56 60.04 78.68 56.87 C 79.20 53.70 74.79 51.06 72.39 53.37 Z" />
</g>
<g id="#f8fcf8ff">
<path fill="#f8fcf8" opacity="1.00" d=" M 41.18 59.78 C 37.78 58.09 39.37 52.54 43.03 52.53 C 45.97 52.23 47.28 55.42 47.50 57.84 C 45.88 59.38 43.44 61.68 41.18 59.78 Z" />
<path fill="#f8fcf8" opacity="1.00" d=" M 56.46 53.50 C 58.11 51.74 61.42 52.39 62.39 54.58 C 64.36 57.31 61.04 61.53 57.89 60.30 C 54.99 59.61 54.00 55.34 56.46 53.50 Z" />
<path fill="#f8fcf8" opacity="1.00" d=" M 72.39 53.37 C 74.79 51.06 79.20 53.70 78.68 56.87 C 78.56 60.04 73.82 61.88 71.89 59.09 C 70.03 57.57 70.60 54.67 72.39 53.37 Z" />
</g>
</svg>
