<?xml version="1.0" encoding="UTF-8" ?>
<!DOCTYPE svg PUBLIC "-//W3C//DTD SVG 1.1//EN" "http://www.w3.org/Graphics/SVG/1.1/DTD/svg11.dtd">
<svg width="150pt" height="80pt" viewBox="0 0 150 80" version="1.1" xmlns="http://www.w3.org/2000/svg">
<g id="#000000ff">
<path fill="#000000" opacity="1.00" d=" M 0.00 0.00 L 150.00 0.00 L 150.00 80.00 L 0.00 80.00 L 0.00 0.00 M 6.33 5.48 C 2.82 6.66 0.65 10.39 0.98 14.03 C 1.04 31.72 0.95 49.42 1.03 67.11 C 0.94 71.74 5.43 75.50 9.96 75.01 C 53.66 74.95 97.37 75.06 141.07 74.96 C 145.28 75.06 149.06 71.30 148.96 67.09 C 149.04 49.02 149.01 30.94 148.97 12.87 C 149.03 8.68 145.25 4.95 141.07 5.03 C 97.36 4.96 53.64 5.03 9.93 4.99 C 8.70 4.95 7.50 5.12 6.33 5.48 Z" />
<path fill="#000000" opacity="1.00" d=" M 7.18 7.31 C 9.07 6.81 11.06 7.03 12.99 6.98 C 55.68 7.04 98.38 6.95 141.07 7.03 C 144.22 6.98 147.00 9.72 146.97 12.88 C 147.02 30.93 147.03 49.00 146.96 67.06 C 147.03 70.21 144.27 73.04 141.10 72.96 C 97.40 73.06 53.69 72.96 9.99 73.01 C 6.51 73.47 2.98 70.73 3.03 67.13 C 2.95 49.41 3.04 31.70 2.99 13.98 C 2.74 11.15 4.30 8.08 7.18 7.31 M 45.47 28.36 C 41.95 31.03 37.95 33.02 34.69 36.01 C 37.80 38.83 41.57 40.75 44.92 43.25 C 46.05 44.16 47.39 44.72 48.78 45.12 C 48.89 43.19 48.86 41.23 49.33 39.35 C 53.97 38.19 58.20 41.70 61.11 44.96 C 61.57 38.29 55.73 32.99 49.36 32.63 C 48.79 30.78 48.94 28.82 48.82 26.92 C 47.65 27.27 46.43 27.58 45.47 28.36 Z" />
</g>
<g id="#6e8ac5ff">
<path fill="#6e8ac5" opacity="1.00" d=" M 6.33 5.48 C 7.50 5.12 8.70 4.95 9.93 4.99 C 53.64 5.03 97.36 4.96 141.07 5.03 C 145.25 4.95 149.03 8.68 148.97 12.87 C 149.01 30.94 149.04 49.02 148.96 67.09 C 149.06 71.30 145.28 75.06 141.07 74.96 C 97.37 75.06 53.66 74.95 9.96 75.01 C 5.43 75.50 0.94 71.74 1.03 67.11 C 0.95 49.42 1.04 31.72 0.98 14.03 C 0.65 10.39 2.82 6.66 6.33 5.48 M 7.18 7.31 C 4.30 8.08 2.74 11.15 2.99 13.98 C 3.04 31.70 2.95 49.41 3.03 67.13 C 2.98 70.73 6.51 73.47 9.99 73.01 C 53.69 72.96 97.40 73.06 141.10 72.96 C 144.27 73.04 147.03 70.21 146.96 67.06 C 147.03 49.00 147.02 30.93 146.97 12.88 C 147.00 9.72 144.22 6.98 141.07 7.03 C 98.38 6.95 55.68 7.04 12.99 6.98 C 11.06 7.03 9.07 6.81 7.18 7.31 Z" />
</g>
<g id="#68e868ff">
<path fill="#68e868" opacity="1.00" d=" M 45.47 28.36 C 46.43 27.58 47.65 27.27 48.82 26.92 C 48.94 28.82 48.79 30.78 49.36 32.63 C 55.73 32.99 61.57 38.29 61.11 44.96 C 58.20 41.70 53.97 38.19 49.33 39.35 C 48.86 41.23 48.89 43.19 48.78 45.12 C 47.39 44.72 46.05 44.16 44.92 43.25 C 41.57 40.75 37.80 38.83 34.69 36.01 C 37.95 33.02 41.95 31.03 45.47 28.36 Z" />
</g>
</svg>
