<?xml version="1.0" encoding="UTF-8" ?>
<!DOCTYPE svg PUBLIC "-//W3C//DTD SVG 1.1//EN" "http://www.w3.org/Graphics/SVG/1.1/DTD/svg11.dtd">
<svg width="117pt" height="140pt" viewBox="0 0 117 140" version="1.1" xmlns="http://www.w3.org/2000/svg">
<g id="#000000ff">
<path fill="#000000" opacity="1.00" d=" M 0.00 0.00 L 117.00 0.00 L 117.00 140.00 L 0.00 140.00 L 0.00 0.00 M 29.52 10.65 C 15.41 13.34 4.21 26.55 4.01 40.94 C 4.03 60.64 3.93 80.34 4.06 100.04 C 4.71 115.66 18.39 129.31 34.01 129.94 C 49.67 130.07 65.34 129.99 81.00 129.98 C 98.12 129.92 112.97 114.06 112.02 96.98 C 111.93 77.96 112.10 58.93 111.94 39.91 C 111.26 24.34 97.64 10.73 82.06 10.07 C 67.06 9.88 52.06 10.09 37.06 9.97 C 34.54 9.99 32.00 10.11 29.52 10.65 Z" />
<path fill="#000000" opacity="1.00" d=" M 29.49 12.71 C 33.25 11.83 37.14 12.01 40.97 12.00 C 54.65 12.06 68.34 11.88 82.02 12.09 C 96.89 12.74 109.83 26.06 109.96 40.96 C 110.03 60.33 110.03 79.70 109.95 99.07 C 109.84 114.30 96.29 127.81 81.06 127.95 C 65.72 128.04 50.37 128.02 35.03 127.96 C 19.75 127.86 6.14 114.30 6.04 99.01 C 5.98 79.65 5.97 60.29 6.04 40.94 C 6.24 27.63 16.50 15.42 29.49 12.71 M 46.58 42.00 C 46.58 50.67 46.58 59.33 46.58 68.00 C 49.53 68.00 52.47 68.00 55.42 68.00 C 55.42 59.33 55.42 50.67 55.42 42.00 C 52.47 42.00 49.53 42.00 46.58 42.00 M 61.17 43.18 C 61.17 45.17 61.16 47.16 61.16 49.15 C 60.46 49.16 59.06 49.18 58.37 49.19 C 58.33 50.67 58.34 52.15 58.40 53.64 C 59.09 53.63 60.47 53.62 61.16 53.61 C 61.30 57.63 60.85 61.69 61.42 65.68 C 63.36 69.64 68.94 67.42 72.43 67.99 C 72.40 66.24 72.40 64.49 72.41 62.75 C 71.21 62.52 70.00 62.37 68.79 62.28 C 68.87 59.40 68.82 56.53 68.84 53.65 C 70.03 53.58 71.23 53.57 72.43 53.60 C 72.43 52.12 72.42 50.64 72.41 49.17 C 71.52 49.16 69.73 49.16 68.84 49.16 C 68.84 47.17 68.83 45.17 68.83 43.18 C 66.28 43.17 63.72 43.16 61.17 43.18 Z" />
</g>
<g id="#6a84bcff">
<path fill="#6a84bc" opacity="1.00" d=" M 29.52 10.65 C 32.00 10.11 34.54 9.99 37.06 9.97 C 52.06 10.09 67.06 9.88 82.06 10.07 C 97.64 10.73 111.26 24.34 111.94 39.91 C 112.10 58.93 111.93 77.96 112.02 96.98 C 112.97 114.06 98.12 129.92 81.00 129.98 C 65.34 129.99 49.67 130.07 34.01 129.94 C 18.39 129.31 4.71 115.66 4.06 100.04 C 3.93 80.34 4.03 60.64 4.01 40.94 C 4.21 26.55 15.41 13.34 29.52 10.65 M 29.49 12.71 C 16.50 15.42 6.24 27.63 6.04 40.94 C 5.97 60.29 5.98 79.65 6.04 99.01 C 6.14 114.30 19.75 127.86 35.03 127.96 C 50.37 128.02 65.72 128.04 81.06 127.95 C 96.29 127.81 109.84 114.30 109.95 99.07 C 110.03 79.70 110.03 60.33 109.96 40.96 C 109.83 26.06 96.89 12.74 82.02 12.09 C 68.34 11.88 54.65 12.06 40.97 12.00 C 37.14 12.01 33.25 11.83 29.49 12.71 Z" />
</g>
<g id="#f8fcf8ff">
<path fill="#f8fcf8" opacity="1.00" d=" M 46.58 42.00 C 49.53 42.00 52.47 42.00 55.42 42.00 C 55.42 50.67 55.42 59.33 55.42 68.00 C 52.47 68.00 49.53 68.00 46.58 68.00 C 46.58 59.33 46.58 50.67 46.58 42.00 Z" />
<path fill="#f8fcf8" opacity="1.00" d=" M 61.17 43.18 C 63.72 43.16 66.28 43.17 68.83 43.18 C 68.83 45.17 68.84 47.17 68.84 49.16 C 69.73 49.16 71.52 49.16 72.41 49.17 C 72.42 50.64 72.43 52.12 72.43 53.60 C 71.23 53.57 70.03 53.58 68.84 53.65 C 68.82 56.53 68.87 59.40 68.79 62.28 C 70.00 62.37 71.21 62.52 72.41 62.75 C 72.40 64.49 72.40 66.24 72.43 67.99 C 68.94 67.42 63.36 69.64 61.42 65.68 C 60.85 61.69 61.30 57.63 61.16 53.61 C 60.47 53.62 59.09 53.63 58.40 53.64 C 58.34 52.15 58.33 50.67 58.37 49.19 C 59.06 49.18 60.46 49.16 61.16 49.15 C 61.16 47.16 61.17 45.17 61.17 43.18 Z" />
</g>
</svg>
