<?xml version="1.0" encoding="UTF-8" ?>
<!DOCTYPE svg PUBLIC "-//W3C//DTD SVG 1.1//EN" "http://www.w3.org/Graphics/SVG/1.1/DTD/svg11.dtd">
<svg width="117pt" height="140pt" viewBox="0 0 117 140" version="1.1" xmlns="http://www.w3.org/2000/svg">
<g id="#000000ff">
<path fill="#000000" opacity="1.00" d=" M 0.00 0.00 L 117.00 0.00 L 117.00 140.00 L 0.00 140.00 L 0.00 0.00 M 41.27 77.85 C 52.42 77.88 63.58 77.87 74.73 77.85 C 74.75 66.80 74.73 55.74 74.74 44.69 C 74.01 44.72 72.54 44.77 71.81 44.80 C 71.80 54.91 71.81 65.02 71.81 75.13 C 62.60 75.14 53.40 75.14 44.19 75.13 C 44.18 62.32 44.22 49.52 44.17 36.72 C 50.99 36.70 57.81 36.72 64.62 36.71 C 64.57 35.72 64.52 34.73 64.46 33.74 C 56.74 33.79 49.02 33.78 41.30 33.75 C 41.22 48.45 41.28 63.15 41.27 77.85 M 65.94 35.99 C 65.83 38.46 65.89 40.93 66.19 43.38 C 68.56 43.31 70.93 43.28 73.30 43.24 C 70.91 40.76 68.50 38.30 65.94 35.99 M 47.77 44.71 C 47.77 45.44 47.77 46.90 47.78 47.64 C 50.71 47.65 53.65 47.65 56.59 47.64 C 56.58 46.91 56.55 45.44 56.53 44.71 C 53.61 44.71 50.69 44.71 47.77 44.71 M 47.69 49.81 C 47.71 50.47 47.77 51.80 47.80 52.47 C 52.58 53.16 57.52 52.52 62.36 52.77 C 62.36 52.03 62.36 50.54 62.36 49.80 C 57.47 49.81 52.58 49.80 47.69 49.81 M 47.70 55.10 C 47.72 55.79 47.77 57.15 47.80 57.84 C 51.70 57.83 55.59 57.83 59.49 57.84 C 59.47 57.10 59.44 55.64 59.42 54.91 C 55.51 54.91 51.60 54.79 47.70 55.10 M 47.66 60.16 C 47.24 62.30 48.36 63.30 50.42 63.44 C 50.57 62.35 50.69 61.25 50.78 60.16 C 50.00 60.16 48.44 60.16 47.66 60.16 Z" />
</g>
<g id="#f8fcf8ff">
<path fill="#f8fcf8" opacity="1.00" d=" M 41.27 77.85 C 41.28 63.15 41.22 48.45 41.30 33.75 C 49.02 33.78 56.74 33.79 64.46 33.74 C 64.52 34.73 64.57 35.72 64.62 36.71 C 57.81 36.72 50.99 36.70 44.17 36.72 C 44.22 49.52 44.18 62.32 44.19 75.13 C 53.40 75.14 62.60 75.14 71.81 75.13 C 71.81 65.02 71.80 54.91 71.81 44.80 C 72.54 44.77 74.01 44.72 74.74 44.69 C 74.73 55.74 74.75 66.80 74.73 77.85 C 63.58 77.87 52.42 77.88 41.27 77.85 Z" />
<path fill="#f8fcf8" opacity="1.00" d=" M 65.94 35.99 C 68.50 38.30 70.91 40.76 73.30 43.24 C 70.93 43.28 68.56 43.31 66.19 43.38 C 65.89 40.93 65.83 38.46 65.94 35.99 Z" />
<path fill="#f8fcf8" opacity="1.00" d=" M 47.77 44.71 C 50.69 44.71 53.61 44.71 56.53 44.71 C 56.55 45.44 56.58 46.91 56.59 47.64 C 53.65 47.65 50.71 47.65 47.78 47.64 C 47.77 46.90 47.77 45.44 47.77 44.71 Z" />
<path fill="#f8fcf8" opacity="1.00" d=" M 47.69 49.81 C 52.58 49.80 57.47 49.81 62.36 49.80 C 62.36 50.54 62.36 52.03 62.36 52.77 C 57.52 52.52 52.58 53.16 47.80 52.47 C 47.77 51.80 47.71 50.47 47.69 49.81 Z" />
<path fill="#f8fcf8" opacity="1.00" d=" M 47.70 55.10 C 51.60 54.79 55.51 54.91 59.42 54.91 C 59.44 55.64 59.47 57.10 59.49 57.84 C 55.59 57.83 51.70 57.83 47.80 57.84 C 47.77 57.15 47.72 55.79 47.70 55.10 Z" />
<path fill="#f8fcf8" opacity="1.00" d=" M 47.66 60.16 C 48.44 60.16 50.00 60.16 50.78 60.16 C 50.69 61.25 50.57 62.35 50.42 63.44 C 48.36 63.30 47.24 62.30 47.66 60.16 Z" />
</g>
</svg>
