<?xml version="1.0" encoding="UTF-8" ?>
<!DOCTYPE svg PUBLIC "-//W3C//DTD SVG 1.1//EN" "http://www.w3.org/Graphics/SVG/1.1/DTD/svg11.dtd">
<svg width="100pt" height="100pt" viewBox="0 0 100 100" version="1.1" xmlns="http://www.w3.org/2000/svg">
<g id="#407cc8ff">
<path fill="#407cc8" opacity="1.00" d=" M 0.00 0.00 L 100.00 0.00 L 100.00 100.00 L 0.00 100.00 L 0.00 0.00 M 41.75 21.86 C 41.48 27.28 41.75 32.73 41.69 38.16 C 44.35 39.34 47.84 40.10 50.17 37.84 C 50.38 32.35 50.62 26.77 50.06 21.31 C 47.68 19.74 43.59 19.37 41.75 21.86 M 19.99 39.91 C 17.31 49.68 17.96 59.87 18.19 69.87 C 19.17 74.51 24.71 73.94 28.30 73.80 C 28.86 74.51 29.41 75.22 29.97 75.93 C 39.91 76.02 49.86 75.90 59.81 76.00 C 57.19 70.93 57.27 63.80 62.08 60.05 C 65.16 56.78 69.86 56.90 73.97 57.40 C 74.64 49.11 72.02 41.14 70.63 33.07 C 70.41 30.72 68.41 28.64 65.99 28.66 C 61.47 28.47 56.94 28.69 52.42 28.58 C 52.43 29.96 52.47 31.34 52.56 32.71 C 54.94 33.63 57.87 34.56 58.80 37.22 C 59.50 39.36 57.33 40.87 55.67 41.68 C 50.33 44.15 44.00 44.28 38.42 42.54 C 36.23 41.74 33.51 40.65 32.92 38.12 C 33.95 35.12 36.94 33.68 39.61 32.43 C 39.58 31.47 39.54 29.54 39.52 28.58 C 34.68 28.75 29.83 28.33 25.01 28.78 C 20.25 30.17 21.19 36.12 19.99 39.91 M 66.17 58.88 C 62.41 60.75 58.94 64.50 59.35 68.99 C 58.99 74.28 63.79 79.31 69.00 79.59 C 74.95 80.44 81.05 75.05 80.64 69.00 C 81.04 61.77 72.83 56.26 66.17 58.88 Z" />
<path fill="#407cc8" opacity="1.00" d=" M 25.84 32.90 C 27.55 32.86 29.25 32.81 30.96 32.76 C 29.57 35.12 27.79 37.93 29.25 40.70 C 31.96 45.97 38.47 47.54 43.93 47.90 C 50.27 48.17 57.79 47.32 62.00 41.99 C 64.26 39.21 63.06 35.50 61.39 32.77 C 62.97 32.81 64.55 32.85 66.13 32.90 C 67.38 38.65 68.43 44.45 69.69 50.20 C 53.89 50.17 38.10 50.16 22.31 50.20 C 23.54 44.44 24.61 38.65 25.84 32.90 Z" />
</g>
<g id="#f8fcf8ff">
<path fill="#f8fcf8" opacity="1.00" d=" M 41.75 21.86 C 43.59 19.37 47.68 19.74 50.06 21.31 C 50.62 26.77 50.38 32.35 50.17 37.84 C 47.84 40.10 44.35 39.34 41.69 38.16 C 41.75 32.73 41.48 27.28 41.75 21.86 Z" />
<path fill="#f8fcf8" opacity="1.00" d=" M 19.99 39.91 C 21.19 36.12 20.25 30.17 25.01 28.78 C 29.83 28.33 34.68 28.75 39.52 28.58 C 39.54 29.54 39.58 31.47 39.61 32.43 C 36.94 33.68 33.95 35.12 32.92 38.12 C 33.51 40.65 36.23 41.74 38.42 42.54 C 44.00 44.28 50.33 44.15 55.67 41.68 C 57.33 40.87 59.50 39.36 58.80 37.22 C 57.87 34.56 54.94 33.63 52.56 32.71 C 52.47 31.34 52.43 29.96 52.42 28.58 C 56.94 28.69 61.47 28.47 65.99 28.66 C 68.41 28.64 70.41 30.72 70.63 33.07 C 72.02 41.14 74.64 49.11 73.97 57.40 C 69.86 56.90 65.16 56.78 62.08 60.05 C 57.27 63.80 57.19 70.93 59.81 76.00 C 49.86 75.90 39.91 76.02 29.97 75.93 C 29.41 75.22 28.86 74.51 28.30 73.80 C 24.71 73.94 19.17 74.51 18.19 69.87 C 17.96 59.87 17.31 49.68 19.99 39.91 M 25.84 32.90 C 24.61 38.65 23.54 44.44 22.31 50.20 C 38.10 50.16 53.89 50.17 69.69 50.20 C 68.43 44.45 67.38 38.65 66.13 32.90 C 64.55 32.85 62.97 32.81 61.39 32.77 C 63.06 35.50 64.26 39.21 62.00 41.99 C 57.79 47.32 50.27 48.17 43.93 47.90 C 38.47 47.54 31.96 45.97 29.25 40.70 C 27.79 37.93 29.57 35.12 30.96 32.76 C 29.25 32.81 27.55 32.86 25.84 32.90 Z" />
<path fill="#f8fcf8" opacity="1.00" d=" M 66.17 58.88 C 72.83 56.26 81.04 61.77 80.64 69.00 C 81.05 75.05 74.95 80.44 69.00 79.59 C 63.79 79.31 58.99 74.28 59.35 68.99 C 58.94 64.50 62.41 60.75 66.17 58.88 M 65.28 66.09 C 66.25 67.07 67.24 68.04 68.25 68.98 C 67.19 69.98 66.16 70.99 65.14 72.03 C 66.84 74.47 68.39 72.57 69.80 71.06 C 71.36 72.30 73.22 74.36 74.94 72.11 C 73.97 71.04 72.98 69.99 71.96 68.96 C 72.90 67.98 73.85 66.99 74.79 66.00 C 74.34 65.56 73.44 64.66 72.99 64.21 C 71.99 65.14 71.00 66.07 70.02 67.01 C 69.05 66.05 68.05 65.11 67.05 64.19 C 66.60 64.66 65.72 65.61 65.28 66.09 Z" />
</g>
<g id="#3878c8ff">
<path fill="#3878c8" opacity="1.00" d=" M 65.28 66.09 C 65.72 65.61 66.60 64.66 67.05 64.19 C 68.05 65.11 69.05 66.05 70.02 67.01 C 71.00 66.07 71.99 65.14 72.99 64.21 C 73.44 64.66 74.34 65.56 74.79 66.00 C 73.85 66.99 72.90 67.98 71.96 68.96 C 72.98 69.99 73.97 71.04 74.94 72.11 C 73.22 74.36 71.36 72.30 69.80 71.06 C 68.39 72.57 66.84 74.47 65.14 72.03 C 66.16 70.99 67.19 69.98 68.25 68.98 C 67.24 68.04 66.25 67.07 65.28 66.09 Z" />
</g>
</svg>
