<?xml version="1.0" encoding="UTF-8" ?>
<!DOCTYPE svg PUBLIC "-//W3C//DTD SVG 1.1//EN" "http://www.w3.org/Graphics/SVG/1.1/DTD/svg11.dtd">
<svg width="117pt" height="140pt" viewBox="0 0 117 140" version="1.1" xmlns="http://www.w3.org/2000/svg">
<g id="#000000ff">
<path fill="#000000" opacity="1.00" d=" M 0.00 0.00 L 117.00 0.00 L 117.00 140.00 L 0.00 140.00 L 0.00 0.00 M 33.17 10.21 C 17.92 11.78 5.17 25.62 5.01 40.97 C 5.02 60.64 4.93 80.32 5.06 100.00 C 5.69 115.95 19.94 129.82 35.91 129.98 C 51.64 129.98 67.38 130.09 83.10 129.92 C 99.04 129.26 112.85 114.99 112.98 99.04 C 113.03 80.00 112.98 60.96 113.01 41.92 C 113.08 32.12 108.23 22.50 100.44 16.58 C 94.66 12.11 87.31 9.80 80.01 9.98 C 64.40 10.17 48.77 9.70 33.17 10.21 Z" />
<path fill="#000000" opacity="1.00" d=" M 30.51 12.70 C 35.27 11.67 40.17 12.09 45.01 12.00 C 57.71 12.06 70.41 11.87 83.11 12.10 C 97.94 12.79 110.81 26.08 110.96 40.93 C 111.03 60.30 111.03 79.67 110.95 99.03 C 110.85 114.27 97.32 127.80 82.09 127.95 C 66.70 128.04 51.30 128.02 35.91 127.96 C 20.69 127.79 7.17 114.28 7.04 99.05 C 6.98 79.69 6.98 60.32 7.03 40.96 C 7.22 27.64 17.51 15.42 30.51 12.70 M 53.89 47.70 C 55.59 47.68 57.29 47.66 58.99 47.64 C 58.42 42.77 60.16 37.56 58.12 32.95 C 57.30 32.95 55.66 32.94 54.84 32.93 C 52.76 37.51 54.36 42.82 53.89 47.70 M 39.64 40.64 C 36.32 41.91 36.67 46.07 36.16 48.98 C 35.94 57.68 36.11 66.39 36.08 75.09 C 38.93 75.09 41.78 75.11 44.63 75.10 C 44.92 75.59 45.49 76.57 45.78 77.06 C 50.30 76.95 54.82 77.01 59.34 77.03 C 59.23 76.26 59.01 74.74 58.89 73.98 C 55.09 73.91 51.27 74.25 47.49 73.82 C 47.35 73.37 47.06 72.47 46.92 72.02 C 44.28 71.99 41.64 72.00 39.00 72.00 C 39.00 67.33 39.00 62.67 39.00 58.00 C 50.62 58.00 62.24 58.00 73.86 58.00 C 74.49 58.44 75.75 59.32 76.37 59.76 C 79.41 56.22 77.11 51.76 76.64 47.77 C 76.08 45.02 76.05 40.89 72.46 40.42 C 68.96 40.12 64.72 39.49 61.92 42.14 C 60.83 43.78 61.91 45.68 62.56 47.24 C 58.68 48.93 54.24 48.92 50.35 47.25 C 51.25 45.64 51.42 43.84 51.28 42.04 C 47.87 39.75 43.51 39.81 39.64 40.64 M 68.19 62.08 C 62.42 63.38 59.55 70.96 63.21 75.69 C 66.87 81.41 76.65 80.27 78.80 73.79 C 81.76 67.41 74.76 59.93 68.19 62.08 Z" />
<path fill="#000000" opacity="1.00" d=" M 38.76 54.84 C 39.56 51.28 39.81 47.57 40.96 44.12 C 43.17 44.00 45.37 44.13 47.58 44.13 C 46.09 45.57 45.59 48.12 47.50 49.46 C 52.54 53.33 60.53 53.31 65.51 49.35 C 67.41 47.93 66.55 45.68 65.41 44.08 C 67.64 44.11 69.88 44.10 72.12 44.06 C 72.71 47.64 73.44 51.19 74.16 54.75 C 62.36 54.85 50.56 54.68 38.76 54.84 Z" />
<path fill="#000000" opacity="1.00" d=" M 67.02 64.87 C 69.31 64.17 71.71 64.18 73.99 64.89 C 72.83 66.09 71.63 67.27 70.43 68.45 C 69.29 67.26 68.15 66.07 67.02 64.87 Z" />
<path fill="#000000" opacity="1.00" d=" M 64.59 67.22 C 65.94 68.15 67.03 69.37 68.32 70.38 C 67.23 71.69 66.01 72.90 64.81 74.12 C 64.06 71.88 64.07 69.52 64.59 67.22 Z" />
<path fill="#000000" opacity="1.00" d=" M 72.69 70.76 C 73.78 69.43 75.01 68.25 76.36 67.19 C 76.95 69.43 76.85 71.73 76.42 73.99 C 75.08 73.03 73.92 71.84 72.69 70.76 Z" />
</g>
<g id="#7186b5ff">
<path fill="#7186b5" opacity="1.00" d=" M 33.17 10.21 C 48.77 9.70 64.40 10.17 80.01 9.98 C 87.31 9.80 94.66 12.11 100.44 16.58 C 108.23 22.50 113.08 32.12 113.01 41.92 C 112.98 60.96 113.03 80.00 112.98 99.04 C 112.85 114.99 99.04 129.26 83.10 129.92 C 67.38 130.09 51.64 129.98 35.91 129.98 C 19.94 129.82 5.69 115.95 5.06 100.00 C 4.93 80.32 5.02 60.64 5.01 40.97 C 5.17 25.62 17.92 11.78 33.17 10.21 M 30.51 12.70 C 17.51 15.42 7.22 27.64 7.03 40.96 C 6.98 60.32 6.98 79.69 7.04 99.05 C 7.17 114.28 20.69 127.79 35.91 127.96 C 51.30 128.02 66.70 128.04 82.09 127.95 C 97.32 127.80 110.85 114.27 110.95 99.03 C 111.03 79.67 111.03 60.30 110.96 40.93 C 110.81 26.08 97.94 12.79 83.11 12.10 C 70.41 11.87 57.71 12.06 45.01 12.00 C 40.17 12.09 35.27 11.67 30.51 12.70 Z" />
</g>
<g id="#f8fcf8ff">
<path fill="#f8fcf8" opacity="1.00" d=" M 53.89 47.70 C 54.36 42.82 52.76 37.51 54.84 32.93 C 55.66 32.94 57.30 32.95 58.12 32.95 C 60.16 37.56 58.42 42.77 58.99 47.64 C 57.29 47.66 55.59 47.68 53.89 47.70 Z" />
<path fill="#f8fcf8" opacity="1.00" d=" M 39.64 40.64 C 43.51 39.81 47.87 39.75 51.28 42.04 C 51.42 43.84 51.25 45.64 50.35 47.25 C 54.24 48.92 58.68 48.93 62.56 47.24 C 61.91 45.68 60.83 43.78 61.92 42.14 C 64.72 39.49 68.96 40.12 72.46 40.42 C 76.05 40.89 76.08 45.02 76.64 47.77 C 77.11 51.76 79.41 56.22 76.37 59.76 C 75.75 59.32 74.49 58.44 73.86 58.00 C 62.24 58.00 50.62 58.00 39.00 58.00 C 39.00 62.67 39.00 67.33 39.00 72.00 C 41.64 72.00 44.28 71.99 46.92 72.02 C 47.06 72.47 47.35 73.37 47.49 73.82 C 51.27 74.25 55.09 73.91 58.89 73.98 C 59.01 74.74 59.23 76.26 59.34 77.03 C 54.82 77.01 50.30 76.95 45.78 77.06 C 45.49 76.57 44.92 75.59 44.63 75.10 C 41.78 75.11 38.93 75.09 36.08 75.09 C 36.11 66.39 35.94 57.68 36.16 48.98 C 36.67 46.07 36.32 41.91 39.64 40.64 M 38.76 54.84 C 50.56 54.68 62.36 54.85 74.16 54.75 C 73.44 51.19 72.71 47.64 72.12 44.06 C 69.88 44.10 67.64 44.11 65.41 44.08 C 66.55 45.68 67.41 47.93 65.51 49.35 C 60.53 53.31 52.54 53.33 47.50 49.46 C 45.59 48.12 46.09 45.57 47.58 44.13 C 45.37 44.13 43.17 44.00 40.96 44.12 C 39.81 47.57 39.56 51.28 38.76 54.84 Z" />
<path fill="#f8fcf8" opacity="1.00" d=" M 68.19 62.08 C 74.76 59.93 81.76 67.41 78.80 73.79 C 76.65 80.27 66.87 81.41 63.21 75.69 C 59.55 70.96 62.42 63.38 68.19 62.08 M 67.02 64.87 C 68.15 66.07 69.29 67.26 70.43 68.45 C 71.63 67.27 72.83 66.09 73.99 64.89 C 71.71 64.18 69.31 64.17 67.02 64.87 M 64.59 67.22 C 64.07 69.52 64.06 71.88 64.81 74.12 C 66.01 72.90 67.23 71.69 68.32 70.38 C 67.03 69.37 65.94 68.15 64.59 67.22 M 72.69 70.76 C 73.92 71.84 75.08 73.03 76.42 73.99 C 76.85 71.73 76.95 69.43 76.36 67.19 C 75.01 68.25 73.78 69.43 72.69 70.76 M 66.99 76.28 C 69.28 77.06 71.71 77.05 74.00 76.29 C 72.86 75.16 71.80 73.95 70.68 72.81 C 69.36 73.87 68.11 75.01 66.99 76.28 Z" />
</g>
<g id="#0c0d0cff">
<path fill="#0c0d0c" opacity="1.00" d=" M 66.99 76.28 C 68.11 75.01 69.36 73.87 70.68 72.81 C 71.80 73.95 72.86 75.16 74.00 76.29 C 71.71 77.05 69.28 77.06 66.99 76.28 Z" />
</g>
</svg>
