<?xml version="1.0" encoding="UTF-8" ?>
<!DOCTYPE svg PUBLIC "-//W3C//DTD SVG 1.1//EN" "http://www.w3.org/Graphics/SVG/1.1/DTD/svg11.dtd">
<svg width="117pt" height="140pt" viewBox="0 0 117 140" version="1.1" xmlns="http://www.w3.org/2000/svg">
<g id="#000000ff">
<path fill="#000000" opacity="1.00" d=" M 0.00 0.00 L 117.00 0.00 L 117.00 140.00 L 0.00 140.00 L 0.00 0.00 M 33.10 10.22 C 17.88 11.82 5.18 25.64 5.01 40.96 C 5.02 60.63 4.94 80.32 5.05 99.99 C 5.70 115.60 19.32 129.27 34.93 129.94 C 50.64 130.07 66.35 129.99 82.06 129.98 C 99.14 129.88 113.93 114.07 113.02 97.04 C 112.98 78.71 113.00 60.37 113.01 42.04 C 113.12 31.99 108.06 22.11 99.94 16.21 C 94.24 11.98 87.09 9.80 80.00 9.98 C 64.37 10.17 48.72 9.69 33.10 10.22 Z" />
<path fill="#000000" opacity="1.00" d=" M 30.43 12.72 C 33.91 11.92 37.49 11.98 41.04 12.00 C 55.04 12.06 69.03 11.88 83.03 12.09 C 97.90 12.75 110.83 26.07 110.96 40.97 C 111.02 60.33 111.03 79.70 110.96 99.07 C 110.82 113.94 97.91 127.25 83.06 127.90 C 67.36 128.10 51.66 127.98 35.96 127.97 C 20.69 127.81 7.13 114.25 7.03 98.97 C 6.98 79.63 6.98 60.28 7.03 40.93 C 7.24 27.65 17.47 15.47 30.43 12.72 M 57.19 27.09 C 57.24 34.34 57.27 41.60 57.17 48.85 C 57.96 48.87 59.54 48.90 60.33 48.92 C 60.33 41.62 60.32 34.32 60.34 27.02 C 59.55 27.04 57.97 27.07 57.19 27.09 M 36.80 42.73 C 31.50 51.00 31.80 62.50 37.63 70.43 C 42.19 76.94 49.97 81.07 57.95 80.95 C 65.93 81.10 73.74 77.00 78.32 70.49 C 83.28 63.80 84.27 54.53 81.28 46.81 C 79.36 41.74 75.56 37.65 71.20 34.55 C 70.43 35.35 69.67 36.16 68.92 36.97 C 77.46 41.75 81.88 52.59 79.02 61.95 C 77.09 69.16 71.14 75.06 63.96 77.02 C 57.19 79.03 49.50 77.38 44.10 72.86 C 38.55 68.40 35.53 61.05 36.22 53.98 C 36.80 46.98 40.99 40.48 47.07 36.99 C 46.33 36.17 45.58 35.36 44.82 34.55 C 41.73 36.81 38.80 39.42 36.80 42.73 Z" />
</g>
<g id="#7186b5ff">
<path fill="#7186b5" opacity="1.00" d=" M 33.10 10.22 C 48.72 9.69 64.37 10.17 80.00 9.98 C 87.09 9.80 94.24 11.98 99.94 16.21 C 108.06 22.11 113.12 31.99 113.01 42.04 C 113.00 60.37 112.98 78.71 113.02 97.04 C 113.93 114.07 99.14 129.88 82.06 129.98 C 66.35 129.99 50.64 130.07 34.93 129.94 C 19.32 129.27 5.70 115.60 5.05 99.99 C 4.94 80.32 5.02 60.63 5.01 40.96 C 5.18 25.64 17.88 11.82 33.10 10.22 M 30.43 12.72 C 17.47 15.47 7.24 27.65 7.03 40.93 C 6.98 60.28 6.98 79.63 7.03 98.97 C 7.13 114.25 20.69 127.81 35.96 127.97 C 51.66 127.98 67.36 128.10 83.06 127.90 C 97.91 127.25 110.82 113.94 110.96 99.07 C 111.03 79.70 111.02 60.33 110.96 40.97 C 110.83 26.07 97.90 12.75 83.03 12.09 C 69.03 11.88 55.04 12.06 41.04 12.00 C 37.49 11.98 33.91 11.92 30.43 12.72 Z" />
</g>
<g id="#f8fcf8ff">
<path fill="#f8fcf8" opacity="1.00" d=" M 57.19 27.09 C 57.97 27.07 59.55 27.04 60.34 27.02 C 60.32 34.32 60.33 41.62 60.33 48.92 C 59.54 48.90 57.96 48.87 57.17 48.85 C 57.27 41.60 57.24 34.34 57.19 27.09 Z" />
<path fill="#f8fcf8" opacity="1.00" d=" M 36.80 42.73 C 38.80 39.42 41.73 36.81 44.82 34.55 C 45.58 35.36 46.33 36.17 47.07 36.99 C 40.99 40.48 36.80 46.98 36.22 53.98 C 35.53 61.05 38.55 68.40 44.10 72.86 C 49.50 77.38 57.19 79.03 63.96 77.02 C 71.14 75.06 77.09 69.16 79.02 61.95 C 81.88 52.59 77.46 41.75 68.92 36.97 C 69.67 36.16 70.43 35.35 71.20 34.55 C 75.56 37.65 79.36 41.74 81.28 46.81 C 84.27 54.53 83.28 63.80 78.32 70.49 C 73.74 77.00 65.93 81.10 57.95 80.95 C 49.97 81.07 42.19 76.94 37.63 70.43 C 31.80 62.50 31.50 51.00 36.80 42.73 Z" />
</g>
</svg>
