<?xml version="1.0" encoding="UTF-8" ?>
<!DOCTYPE svg PUBLIC "-//W3C//DTD SVG 1.1//EN" "http://www.w3.org/Graphics/SVG/1.1/DTD/svg11.dtd">
<svg width="117pt" height="140pt" viewBox="0 0 117 140" version="1.1" xmlns="http://www.w3.org/2000/svg">
<g id="#000000ff">
<path fill="#000000" opacity="1.00" d=" M 0.00 0.00 L 117.00 0.00 L 117.00 140.00 L 0.00 140.00 L 0.00 0.00 M 30.45 10.67 C 16.36 13.38 5.21 26.59 5.01 40.96 C 4.99 60.33 4.99 79.71 5.01 99.08 C 5.24 112.09 14.37 124.26 26.69 128.31 C 32.88 130.58 39.54 129.93 45.99 130.00 C 57.98 129.98 69.97 130.04 81.96 129.98 C 94.76 129.81 106.78 121.03 111.07 109.01 C 113.63 102.64 112.92 95.67 113.00 88.97 C 112.96 72.63 113.09 56.29 112.94 39.95 C 112.29 24.36 98.65 10.74 83.06 10.06 C 68.72 9.90 54.38 10.07 40.03 9.98 C 36.83 9.95 33.60 9.98 30.45 10.67 Z" />
<path fill="#000000" opacity="1.00" d=" M 30.53 12.69 C 35.26 11.66 40.13 12.09 44.93 12.00 C 57.63 12.06 70.34 11.89 83.03 12.09 C 97.89 12.75 110.82 26.04 110.95 40.93 C 111.06 59.28 110.97 77.62 111.00 95.97 C 111.16 101.39 110.29 106.94 107.65 111.74 C 102.71 121.54 92.02 128.12 81.03 127.98 C 65.67 127.97 50.30 128.10 34.94 127.91 C 20.07 127.23 7.16 113.91 7.03 99.00 C 6.98 79.67 6.98 60.34 7.03 41.02 C 7.20 27.66 17.50 15.41 30.53 12.69 M 54.29 33.22 C 51.52 38.52 48.84 43.87 46.15 49.21 C 44.73 51.99 44.64 55.16 44.66 58.20 C 44.99 58.70 45.65 59.69 45.99 60.19 C 46.63 60.34 47.91 60.63 48.55 60.78 C 45.33 65.45 44.22 71.01 44.57 76.61 C 48.61 77.72 52.83 76.99 56.96 77.19 C 63.55 77.01 70.18 77.65 76.74 76.73 C 77.20 71.13 75.82 65.63 72.82 60.90 C 74.47 60.55 76.33 59.78 76.66 57.91 C 77.40 51.64 73.51 46.35 71.01 40.97 C 68.48 36.28 66.78 29.95 60.78 28.70 C 58.23 29.52 55.51 30.65 54.29 33.22 Z" />
<path fill="#000000" opacity="1.00" d=" M 57.68 33.50 C 59.43 31.12 63.31 31.98 64.43 34.56 C 67.13 39.61 69.59 44.79 72.20 49.90 C 73.53 52.29 73.72 55.07 73.82 57.75 C 71.85 57.76 69.88 57.76 67.91 57.76 C 70.36 62.90 74.05 67.83 73.82 73.80 C 65.09 73.96 56.35 73.80 47.62 73.89 C 46.97 67.85 50.91 62.92 53.34 57.76 C 51.42 57.73 49.51 57.72 47.60 57.71 C 46.99 52.09 50.48 47.47 52.76 42.68 C 54.40 39.62 55.69 36.35 57.68 33.50 Z" />
</g>
<g id="#6a84bcff">
<path fill="#6a84bc" opacity="1.00" d=" M 30.45 10.67 C 33.60 9.98 36.83 9.95 40.03 9.98 C 54.38 10.07 68.72 9.90 83.06 10.06 C 98.65 10.74 112.29 24.36 112.94 39.95 C 113.09 56.29 112.96 72.63 113.00 88.97 C 112.92 95.67 113.63 102.64 111.07 109.01 C 106.78 121.03 94.76 129.81 81.96 129.98 C 69.97 130.04 57.98 129.98 45.99 130.00 C 39.54 129.93 32.88 130.58 26.69 128.31 C 14.37 124.26 5.24 112.09 5.01 99.08 C 4.99 79.71 4.99 60.33 5.01 40.96 C 5.21 26.59 16.36 13.38 30.45 10.67 M 30.53 12.69 C 17.50 15.41 7.20 27.66 7.03 41.02 C 6.98 60.34 6.98 79.67 7.03 99.00 C 7.16 113.91 20.07 127.23 34.94 127.91 C 50.30 128.10 65.67 127.97 81.03 127.98 C 92.02 128.12 102.71 121.54 107.65 111.74 C 110.29 106.94 111.16 101.39 111.00 95.97 C 110.97 77.62 111.06 59.28 110.95 40.93 C 110.82 26.04 97.89 12.75 83.03 12.09 C 70.34 11.89 57.63 12.06 44.93 12.00 C 40.13 12.09 35.26 11.66 30.53 12.69 Z" />
</g>
<g id="#f8fcf8ff">
<path fill="#f8fcf8" opacity="1.00" d=" M 54.29 33.22 C 55.51 30.65 58.23 29.52 60.78 28.70 C 66.78 29.95 68.48 36.28 71.01 40.97 C 73.51 46.35 77.40 51.64 76.66 57.91 C 76.33 59.78 74.47 60.55 72.82 60.90 C 75.82 65.63 77.20 71.13 76.74 76.73 C 70.18 77.65 63.55 77.01 56.96 77.19 C 52.83 76.99 48.61 77.72 44.57 76.61 C 44.22 71.01 45.33 65.45 48.55 60.78 C 47.91 60.63 46.63 60.34 45.99 60.19 C 45.65 59.69 44.99 58.70 44.66 58.20 C 44.64 55.16 44.73 51.99 46.15 49.21 C 48.84 43.87 51.52 38.52 54.29 33.22 M 57.68 33.50 C 55.69 36.35 54.40 39.62 52.76 42.68 C 50.48 47.47 46.99 52.09 47.60 57.71 C 49.51 57.72 51.42 57.73 53.34 57.76 C 50.91 62.92 46.97 67.85 47.62 73.89 C 56.35 73.80 65.09 73.96 73.82 73.80 C 74.05 67.83 70.36 62.90 67.91 57.76 C 69.88 57.76 71.85 57.76 73.82 57.75 C 73.72 55.07 73.53 52.29 72.20 49.90 C 69.59 44.79 67.13 39.61 64.43 34.56 C 63.31 31.98 59.43 31.12 57.68 33.50 Z" />
</g>
</svg>
