<?xml version="1.0" encoding="UTF-8" ?>
<!DOCTYPE svg PUBLIC "-//W3C//DTD SVG 1.1//EN" "http://www.w3.org/Graphics/SVG/1.1/DTD/svg11.dtd">
<svg width="117pt" height="140pt" viewBox="0 0 117 140" version="1.1" xmlns="http://www.w3.org/2000/svg">
<g id="#384450ff">
<path fill="#384450" opacity="1.00" d=" M 0.00 0.00 L 117.00 0.00 L 117.00 140.00 L 0.00 140.00 L 0.00 0.00 M 41.22 53.16 C 38.67 54.44 38.63 58.51 41.19 59.80 C 42.92 61.17 45.45 60.38 46.53 58.57 C 49.12 55.48 44.34 50.66 41.22 53.16 M 56.50 53.49 C 54.27 55.13 54.75 58.70 57.10 59.99 C 60.28 62.13 64.62 57.65 62.38 54.54 C 61.36 52.41 58.15 51.75 56.50 53.49 M 72.48 53.32 C 70.56 54.58 70.04 57.59 71.91 59.13 C 73.86 61.88 78.60 60.00 78.70 56.82 C 79.15 53.70 74.84 51.11 72.48 53.32 Z" />
</g>
<g id="#f8fcf8ff">
<path fill="#f8fcf8" opacity="1.00" d=" M 41.22 53.16 C 44.34 50.66 49.12 55.48 46.53 58.57 C 45.45 60.38 42.92 61.17 41.19 59.80 C 38.63 58.51 38.67 54.44 41.22 53.16 Z" />
<path fill="#f8fcf8" opacity="1.00" d=" M 56.50 53.49 C 58.15 51.75 61.36 52.41 62.38 54.54 C 64.62 57.65 60.28 62.13 57.10 59.99 C 54.75 58.70 54.27 55.13 56.50 53.49 Z" />
<path fill="#f8fcf8" opacity="1.00" d=" M 72.48 53.32 C 74.84 51.11 79.15 53.70 78.70 56.82 C 78.60 60.00 73.86 61.88 71.91 59.13 C 70.04 57.59 70.56 54.58 72.48 53.32 Z" />
</g>
</svg>
