<?xml version="1.0" encoding="UTF-8" ?>
<!DOCTYPE svg PUBLIC "-//W3C//DTD SVG 1.1//EN" "http://www.w3.org/Graphics/SVG/1.1/DTD/svg11.dtd">
<svg width="117pt" height="140pt" viewBox="0 0 117 140" version="1.1" xmlns="http://www.w3.org/2000/svg">
<g id="#000000ff">
<path fill="#000000" opacity="1.00" d=" M 0.00 0.00 L 117.00 0.00 L 117.00 140.00 L 0.00 140.00 L 0.00 0.00 M 33.17 10.25 C 17.90 11.79 5.19 25.68 5.03 41.03 C 4.96 60.04 5.02 79.05 5.01 98.06 C 4.95 108.34 10.27 118.40 18.72 124.23 C 24.31 128.18 31.17 130.15 38.00 130.01 C 53.01 129.92 68.02 130.15 83.02 129.90 C 98.98 129.29 112.84 114.98 112.95 99.00 C 113.05 80.00 112.99 60.99 112.98 41.99 C 113.09 30.94 106.91 20.15 97.40 14.56 C 91.91 11.20 85.40 9.78 79.00 9.99 C 63.72 10.18 48.43 9.66 33.17 10.25 Z" />
<path fill="#000000" opacity="1.00" d=" M 33.22 12.30 C 49.13 11.74 65.09 12.19 81.02 12.07 C 92.30 11.91 103.25 18.85 108.00 29.07 C 110.42 33.67 111.05 38.93 110.96 44.06 C 110.90 62.39 111.03 80.72 110.89 99.05 C 110.83 114.26 97.28 127.79 82.08 127.88 C 66.72 128.01 51.35 127.96 35.99 127.91 C 20.76 127.81 7.19 114.30 7.10 99.06 C 7.02 79.67 7.02 60.28 7.10 40.89 C 7.26 26.67 19.09 13.79 33.22 12.30 M 60.34 27.14 C 56.38 31.09 52.43 35.04 48.48 39.00 C 50.09 41.11 52.48 41.59 55.00 41.28 C 55.00 43.29 55.00 45.31 55.00 47.33 C 53.03 47.32 51.07 47.33 49.11 47.33 C 49.13 45.55 48.66 43.86 48.14 42.18 C 47.74 41.86 46.92 41.23 46.52 40.91 C 42.66 44.90 38.65 48.73 34.81 52.73 C 38.82 56.58 42.70 60.56 46.63 64.50 C 47.45 63.65 48.24 62.78 49.02 61.89 C 49.01 60.60 49.01 59.30 48.99 58.00 C 50.99 58.00 53.00 58.00 55.00 58.00 C 55.00 60.00 55.00 62.00 55.00 64.00 C 52.44 63.64 49.97 64.20 48.48 66.45 C 52.54 70.26 56.39 74.28 60.34 78.19 C 64.27 74.28 68.15 70.33 72.11 66.46 C 71.78 66.08 71.11 65.31 70.78 64.93 C 70.21 64.72 69.08 64.29 68.51 64.08 C 67.81 64.05 66.41 64.00 65.71 63.97 C 65.71 61.98 65.71 59.99 65.71 58.00 C 67.71 58.00 69.71 58.00 71.71 58.00 C 71.38 60.53 71.90 62.91 74.00 64.52 C 77.96 60.57 81.92 56.61 85.88 52.65 C 81.95 48.73 78.04 44.81 74.12 40.89 C 73.71 41.23 72.90 41.89 72.50 42.22 C 72.02 43.89 71.68 45.58 71.61 47.32 C 69.64 47.32 67.67 47.32 65.71 47.33 C 65.71 45.34 65.71 43.35 65.73 41.37 C 67.44 41.29 69.11 40.93 70.77 40.51 C 71.10 40.11 71.76 39.31 72.09 38.91 C 68.19 34.97 64.29 31.03 60.34 27.14 Z" />
<path fill="#000000" opacity="1.00" d=" M 60.35 30.92 C 62.90 33.50 65.48 36.04 68.03 38.61 C 66.35 38.61 64.68 38.61 63.00 38.61 C 63.00 42.41 63.00 46.20 63.00 50.00 C 66.81 50.00 70.61 50.00 74.42 50.00 C 74.42 48.33 74.41 46.67 74.40 45.01 C 76.98 47.56 79.58 50.08 82.08 52.71 C 79.51 55.20 77.05 57.82 74.39 60.23 C 74.40 58.60 74.40 56.97 74.42 55.35 C 70.61 55.31 66.81 55.33 63.01 55.32 C 62.99 59.13 62.99 62.93 63.01 66.74 C 64.67 66.74 66.34 66.74 68.00 66.74 C 65.47 69.31 62.91 71.84 60.37 74.40 C 57.84 71.89 55.30 69.41 52.84 66.84 C 54.44 66.71 56.04 66.77 57.65 66.71 C 57.65 62.92 57.65 59.13 57.64 55.34 C 53.87 55.32 50.09 55.33 46.32 55.33 C 46.26 56.96 46.27 58.59 46.20 60.22 C 43.64 57.73 41.16 55.18 38.61 52.69 C 41.15 50.10 43.72 47.55 46.29 45.00 C 46.29 46.66 46.28 48.33 46.28 49.99 C 50.07 50.01 53.86 50.01 57.65 49.99 C 57.64 46.19 57.66 42.39 57.63 38.60 C 56.00 38.62 54.37 38.63 52.74 38.64 C 55.20 35.99 57.80 33.49 60.35 30.92 Z" />
</g>
<g id="#788cc0ff">
<path fill="#788cc0" opacity="1.00" d=" M 33.17 10.25 C 48.43 9.66 63.72 10.18 79.00 9.99 C 85.40 9.78 91.91 11.20 97.40 14.56 C 106.91 20.15 113.09 30.94 112.98 41.99 C 112.99 60.99 113.05 80.00 112.95 99.00 C 112.84 114.98 98.98 129.29 83.02 129.90 C 68.02 130.15 53.01 129.92 38.00 130.01 C 31.17 130.15 24.31 128.18 18.72 124.23 C 10.27 118.40 4.95 108.34 5.01 98.06 C 5.02 79.05 4.96 60.04 5.03 41.03 C 5.19 25.68 17.90 11.79 33.17 10.25 M 33.22 12.30 C 19.09 13.79 7.26 26.67 7.10 40.89 C 7.02 60.28 7.02 79.67 7.10 99.06 C 7.19 114.30 20.76 127.81 35.99 127.91 C 51.35 127.96 66.72 128.01 82.08 127.88 C 97.28 127.79 110.83 114.26 110.89 99.05 C 111.03 80.72 110.90 62.39 110.96 44.06 C 111.05 38.93 110.42 33.67 108.00 29.07 C 103.25 18.85 92.30 11.91 81.02 12.07 C 65.09 12.19 49.13 11.74 33.22 12.30 Z" />
</g>
<g id="#f8fcf8ff">
<path fill="#f8fcf8" opacity="1.00" d=" M 60.34 27.14 C 64.29 31.03 68.19 34.97 72.09 38.91 C 71.76 39.31 71.10 40.11 70.77 40.51 C 69.11 40.93 67.44 41.29 65.73 41.37 C 65.71 43.35 65.71 45.34 65.71 47.33 C 67.67 47.32 69.64 47.32 71.61 47.32 C 71.68 45.58 72.02 43.89 72.50 42.22 C 72.90 41.89 73.71 41.23 74.12 40.89 C 78.04 44.81 81.95 48.73 85.88 52.65 C 81.92 56.61 77.96 60.57 74.00 64.52 C 71.90 62.91 71.38 60.53 71.71 58.00 C 69.71 58.00 67.71 58.00 65.71 58.00 C 65.71 59.99 65.71 61.98 65.71 63.97 C 66.41 64.00 67.81 64.05 68.51 64.08 C 69.08 64.29 70.21 64.72 70.78 64.93 C 71.11 65.31 71.78 66.08 72.11 66.46 C 68.15 70.33 64.27 74.28 60.34 78.19 C 56.39 74.28 52.54 70.26 48.48 66.45 C 49.97 64.20 52.44 63.64 55.00 64.00 C 55.00 62.00 55.00 60.00 55.00 58.00 C 53.00 58.00 50.99 58.00 48.99 58.00 C 49.01 59.30 49.01 60.60 49.02 61.89 C 48.24 62.78 47.45 63.65 46.63 64.50 C 42.70 60.56 38.82 56.58 34.81 52.73 C 38.65 48.73 42.66 44.90 46.52 40.91 C 46.92 41.23 47.74 41.86 48.14 42.18 C 48.66 43.86 49.13 45.55 49.11 47.33 C 51.07 47.33 53.03 47.32 55.00 47.33 C 55.00 45.31 55.00 43.29 55.00 41.28 C 52.48 41.59 50.09 41.11 48.48 39.00 C 52.43 35.04 56.38 31.09 60.34 27.14 M 60.35 30.92 C 57.80 33.49 55.20 35.99 52.74 38.64 C 54.37 38.63 56.00 38.62 57.63 38.60 C 57.66 42.39 57.64 46.19 57.65 49.99 C 53.86 50.01 50.07 50.01 46.28 49.99 C 46.28 48.33 46.29 46.66 46.29 45.00 C 43.72 47.55 41.15 50.10 38.61 52.69 C 41.16 55.18 43.64 57.73 46.20 60.22 C 46.27 58.59 46.26 56.96 46.32 55.33 C 50.09 55.33 53.87 55.32 57.64 55.34 C 57.65 59.13 57.65 62.92 57.65 66.71 C 56.04 66.77 54.44 66.71 52.84 66.84 C 55.30 69.41 57.84 71.89 60.37 74.40 C 62.91 71.84 65.47 69.31 68.00 66.74 C 66.34 66.74 64.67 66.74 63.01 66.74 C 62.99 62.93 62.99 59.13 63.01 55.32 C 66.81 55.33 70.61 55.31 74.42 55.35 C 74.40 56.97 74.40 58.60 74.39 60.23 C 77.05 57.82 79.51 55.20 82.08 52.71 C 79.58 50.08 76.98 47.56 74.40 45.01 C 74.41 46.67 74.42 48.33 74.42 50.00 C 70.61 50.00 66.81 50.00 63.00 50.00 C 63.00 46.20 63.00 42.41 63.00 38.61 C 64.68 38.61 66.35 38.61 68.03 38.61 C 65.48 36.04 62.90 33.50 60.35 30.92 Z" />
</g>
</svg>
