<?xml version="1.0" encoding="UTF-8" ?>
<!DOCTYPE svg PUBLIC "-//W3C//DTD SVG 1.1//EN" "http://www.w3.org/Graphics/SVG/1.1/DTD/svg11.dtd">
<svg width="117pt" height="140pt" viewBox="0 0 117 140" version="1.1" xmlns="http://www.w3.org/2000/svg">
<g id="#000000ff">
<path fill="#000000" opacity="1.00" d=" M 0.00 0.00 L 117.00 0.00 L 117.00 140.00 L 0.00 140.00 L 0.00 0.00 M 33.10 10.22 C 17.87 11.81 5.17 25.65 5.01 40.99 C 4.99 60.30 5.00 79.62 5.01 98.94 C 5.18 111.99 14.31 124.23 26.67 128.30 C 32.85 130.59 39.52 129.92 45.97 130.00 C 57.99 129.98 70.01 130.03 82.03 129.98 C 94.04 129.78 105.43 122.02 110.23 111.04 C 112.40 106.35 113.18 101.12 113.02 95.98 C 112.98 78.00 113.00 60.02 113.01 42.04 C 113.09 33.40 109.39 24.84 103.13 18.90 C 97.04 12.98 88.50 9.74 80.02 9.98 C 64.38 10.17 48.73 9.69 33.10 10.22 Z" />
<path fill="#000000" opacity="1.00" d=" M 30.53 12.71 C 33.97 11.92 37.51 11.98 41.02 12.00 C 55.02 12.06 69.03 11.89 83.03 12.09 C 97.91 12.75 110.85 26.09 110.96 41.01 C 111.02 60.34 111.03 79.68 110.96 99.01 C 110.85 114.26 97.31 127.81 82.06 127.95 C 66.35 128.01 50.63 128.08 34.92 127.92 C 20.07 127.22 7.18 113.92 7.03 99.04 C 6.98 79.66 6.98 60.28 7.03 40.91 C 7.25 27.60 17.53 15.39 30.53 12.71 M 42.01 41.03 C 39.16 43.94 34.03 45.49 33.53 50.04 C 34.10 54.52 39.15 56.07 42.00 58.96 C 43.82 60.99 46.53 60.56 48.87 59.93 C 49.62 57.35 50.18 54.70 50.05 52.00 C 52.03 52.00 54.02 52.00 56.00 52.00 C 56.00 51.25 56.00 49.75 56.00 49.00 C 54.01 49.00 52.01 49.00 50.02 49.00 C 50.20 45.97 49.78 42.96 48.88 40.06 C 46.55 39.43 43.83 39.00 42.01 41.03 M 68.00 41.21 C 68.00 47.07 68.00 52.93 68.00 58.79 C 70.13 59.63 72.52 61.58 74.77 59.86 C 77.44 57.83 80.13 55.83 82.68 53.66 C 84.77 52.10 85.02 48.68 83.20 46.82 C 80.55 44.43 77.63 42.35 74.82 40.17 C 72.57 38.39 70.14 40.34 68.00 41.21 M 57.00 49.00 C 57.00 49.75 57.00 51.25 57.00 52.00 C 57.75 52.00 59.25 52.00 60.00 52.00 C 60.00 51.25 60.00 49.75 60.00 49.00 C 59.25 49.00 57.75 49.00 57.00 49.00 M 61.00 49.00 C 61.00 49.75 61.00 51.25 61.00 52.00 C 63.00 52.00 65.00 52.00 67.00 52.00 C 67.00 51.25 67.00 49.75 67.00 49.00 C 65.00 49.00 63.00 49.00 61.00 49.00 Z" />
<path fill="#000000" opacity="1.00" d=" M 37.01 50.00 C 40.00 47.67 43.00 45.35 46.00 43.02 C 46.00 47.67 46.02 52.32 45.98 56.97 C 42.99 54.64 40.00 52.33 37.01 50.00 Z" />
<path fill="#000000" opacity="1.00" d=" M 72.01 43.05 C 75.02 45.34 78.00 47.68 80.99 50.00 C 78.00 52.33 75.01 54.64 72.02 56.97 C 71.99 52.33 72.00 47.69 72.01 43.05 Z" />
</g>
<g id="#7185b5ff">
<path fill="#7185b5" opacity="1.00" d=" M 33.10 10.22 C 48.73 9.69 64.38 10.17 80.02 9.98 C 88.50 9.74 97.04 12.98 103.13 18.90 C 109.39 24.84 113.09 33.40 113.01 42.04 C 113.00 60.02 112.98 78.00 113.02 95.98 C 113.18 101.12 112.40 106.35 110.23 111.04 C 105.43 122.02 94.04 129.78 82.03 129.98 C 70.01 130.03 57.99 129.98 45.97 130.00 C 39.52 129.92 32.85 130.59 26.67 128.30 C 14.31 124.23 5.18 111.99 5.01 98.94 C 5.00 79.62 4.99 60.30 5.01 40.99 C 5.17 25.65 17.87 11.81 33.10 10.22 M 30.53 12.71 C 17.53 15.39 7.25 27.60 7.03 40.91 C 6.98 60.28 6.98 79.66 7.03 99.04 C 7.18 113.92 20.07 127.22 34.92 127.92 C 50.63 128.08 66.35 128.01 82.06 127.95 C 97.31 127.81 110.85 114.26 110.96 99.01 C 111.03 79.68 111.02 60.34 110.96 41.01 C 110.85 26.09 97.91 12.75 83.03 12.09 C 69.03 11.89 55.02 12.06 41.02 12.00 C 37.51 11.98 33.97 11.92 30.53 12.71 Z" />
</g>
<g id="#f8fcf8ff">
<path fill="#f8fcf8" opacity="1.00" d=" M 42.01 41.03 C 43.83 39.00 46.55 39.43 48.88 40.06 C 49.78 42.96 50.20 45.97 50.02 49.00 C 52.01 49.00 54.01 49.00 56.00 49.00 C 56.00 49.75 56.00 51.25 56.00 52.00 C 54.02 52.00 52.03 52.00 50.05 52.00 C 50.18 54.70 49.62 57.35 48.87 59.93 C 46.53 60.56 43.82 60.99 42.00 58.96 C 39.15 56.07 34.10 54.52 33.53 50.04 C 34.03 45.49 39.16 43.94 42.01 41.03 M 37.01 50.00 C 40.00 52.33 42.99 54.64 45.98 56.97 C 46.02 52.32 46.00 47.67 46.00 43.02 C 43.00 45.35 40.00 47.67 37.01 50.00 Z" />
<path fill="#f8fcf8" opacity="1.00" d=" M 68.00 41.21 C 70.14 40.34 72.57 38.39 74.82 40.17 C 77.63 42.35 80.55 44.43 83.20 46.82 C 85.02 48.68 84.77 52.10 82.68 53.66 C 80.13 55.83 77.44 57.83 74.77 59.86 C 72.52 61.58 70.13 59.63 68.00 58.79 C 68.00 52.93 68.00 47.07 68.00 41.21 M 72.01 43.05 C 72.00 47.69 71.99 52.33 72.02 56.97 C 75.01 54.64 78.00 52.33 80.99 50.00 C 78.00 47.68 75.02 45.34 72.01 43.05 Z" />
<path fill="#f8fcf8" opacity="1.00" d=" M 57.00 49.00 C 57.75 49.00 59.25 49.00 60.00 49.00 C 60.00 49.75 60.00 51.25 60.00 52.00 C 59.25 52.00 57.75 52.00 57.00 52.00 C 57.00 51.25 57.00 49.75 57.00 49.00 Z" />
<path fill="#f8fcf8" opacity="1.00" d=" M 61.00 49.00 C 63.00 49.00 65.00 49.00 67.00 49.00 C 67.00 49.75 67.00 51.25 67.00 52.00 C 65.00 52.00 63.00 52.00 61.00 52.00 C 61.00 51.25 61.00 49.75 61.00 49.00 Z" />
</g>
</svg>
