<?xml version="1.0" encoding="UTF-8" ?>
<!DOCTYPE svg PUBLIC "-//W3C//DTD SVG 1.1//EN" "http://www.w3.org/Graphics/SVG/1.1/DTD/svg11.dtd">
<svg width="117pt" height="140pt" viewBox="0 0 117 140" version="1.1" xmlns="http://www.w3.org/2000/svg">
<g id="#000000ff">
<path fill="#000000" opacity="1.00" d=" M 0.00 0.00 L 117.00 0.00 L 117.00 140.00 L 0.00 140.00 L 0.00 0.00 M 29.54 10.64 C 15.38 13.34 4.15 26.62 4.01 41.06 C 4.00 60.39 3.99 79.72 4.01 99.05 C 4.16 115.01 17.98 129.26 33.92 129.94 C 49.96 130.04 66.01 130.06 82.05 129.93 C 98.02 129.30 111.89 114.97 111.99 98.98 C 111.98 79.32 112.07 59.67 111.94 40.01 C 111.33 24.39 97.66 10.72 82.04 10.07 C 67.70 9.88 53.36 10.08 39.01 9.98 C 35.85 9.95 32.65 9.98 29.54 10.64 Z" />
<path fill="#000000" opacity="1.00" d=" M 29.52 12.70 C 33.29 11.85 37.19 12.01 41.03 12.00 C 54.69 12.06 68.35 11.88 82.01 12.09 C 96.90 12.73 109.86 26.08 109.95 41.00 C 110.03 60.34 110.03 79.69 109.95 99.02 C 109.86 114.29 96.27 127.84 81.02 127.95 C 65.34 128.01 49.66 128.08 33.99 127.91 C 19.09 127.26 6.15 113.92 6.04 99.00 C 5.98 79.66 5.98 60.33 6.03 41.00 C 6.21 27.65 16.50 15.41 29.52 12.70 M 36.61 42.00 C 36.60 50.67 36.60 59.33 36.61 68.00 C 43.87 68.00 51.13 68.00 58.40 68.00 C 58.39 66.00 58.39 64.00 58.39 62.00 C 54.05 61.98 49.70 62.07 45.35 61.91 C 45.33 60.65 45.31 59.40 45.28 58.14 C 48.85 57.92 52.43 57.99 56.00 58.00 C 56.00 55.87 56.00 53.74 56.00 51.61 C 52.46 51.61 48.92 51.60 45.38 51.62 C 45.38 50.54 45.38 49.46 45.38 48.38 C 49.59 48.40 53.80 48.40 58.00 48.39 C 58.00 46.26 58.00 44.13 58.00 42.00 C 50.87 42.00 43.74 42.00 36.61 42.00 M 61.66 49.16 C 61.54 55.44 61.63 61.72 61.61 68.00 C 64.20 68.00 66.80 68.00 69.39 68.00 C 69.51 64.14 69.12 60.25 69.59 56.41 C 69.95 53.96 74.02 53.94 74.40 56.39 C 74.88 60.24 74.49 64.13 74.61 68.00 C 77.20 68.00 79.80 68.00 82.39 68.00 C 82.18 63.03 82.97 57.95 81.77 53.07 C 80.95 49.73 77.21 48.13 74.04 48.46 C 71.75 48.78 69.99 50.35 68.30 51.79 C 68.37 51.11 68.51 49.75 68.58 49.07 C 66.28 49.18 63.97 49.20 61.66 49.16 Z" />
</g>
<g id="#6a84bcff">
<path fill="#6a84bc" opacity="1.00" d=" M 29.54 10.64 C 32.65 9.98 35.85 9.95 39.01 9.98 C 53.36 10.08 67.70 9.88 82.04 10.07 C 97.66 10.72 111.33 24.39 111.94 40.01 C 112.07 59.67 111.98 79.32 111.99 98.98 C 111.89 114.97 98.02 129.30 82.05 129.93 C 66.01 130.06 49.96 130.04 33.92 129.94 C 17.98 129.26 4.16 115.01 4.01 99.05 C 3.99 79.72 4.00 60.39 4.01 41.06 C 4.15 26.62 15.38 13.34 29.54 10.64 M 29.52 12.70 C 16.50 15.41 6.21 27.65 6.03 41.00 C 5.98 60.33 5.98 79.66 6.04 99.00 C 6.15 113.92 19.09 127.26 33.99 127.91 C 49.66 128.08 65.34 128.01 81.02 127.95 C 96.27 127.84 109.86 114.29 109.95 99.02 C 110.03 79.69 110.03 60.34 109.95 41.00 C 109.86 26.08 96.90 12.73 82.01 12.09 C 68.35 11.88 54.69 12.06 41.03 12.00 C 37.19 12.01 33.29 11.85 29.52 12.70 Z" />
</g>
<g id="#10ec50ff">
<path fill="#10ec50" opacity="1.00" d=" M 36.61 42.00 C 43.74 42.00 50.87 42.00 58.00 42.00 C 58.00 44.13 58.00 46.26 58.00 48.39 C 53.80 48.40 49.59 48.40 45.38 48.38 C 45.38 49.46 45.38 50.54 45.38 51.62 C 48.92 51.60 52.46 51.61 56.00 51.61 C 56.00 53.74 56.00 55.87 56.00 58.00 C 52.43 57.99 48.85 57.92 45.28 58.14 C 45.31 59.40 45.33 60.65 45.35 61.91 C 49.70 62.07 54.05 61.98 58.39 62.00 C 58.39 64.00 58.39 66.00 58.40 68.00 C 51.13 68.00 43.87 68.00 36.61 68.00 C 36.60 59.33 36.60 50.67 36.61 42.00 Z" />
<path fill="#10ec50" opacity="1.00" d=" M 61.66 49.16 C 63.97 49.20 66.28 49.18 68.58 49.07 C 68.51 49.75 68.37 51.11 68.30 51.79 C 69.99 50.35 71.75 48.78 74.04 48.46 C 77.21 48.13 80.95 49.73 81.77 53.07 C 82.97 57.95 82.18 63.03 82.39 68.00 C 79.80 68.00 77.20 68.00 74.61 68.00 C 74.49 64.13 74.88 60.24 74.40 56.39 C 74.02 53.94 69.95 53.96 69.59 56.41 C 69.12 60.25 69.51 64.14 69.39 68.00 C 66.80 68.00 64.20 68.00 61.61 68.00 C 61.63 61.72 61.54 55.44 61.66 49.16 Z" />
</g>
</svg>
