<?xml version="1.0" encoding="UTF-8" ?>
<!DOCTYPE svg PUBLIC "-//W3C//DTD SVG 1.1//EN" "http://www.w3.org/Graphics/SVG/1.1/DTD/svg11.dtd">
<svg width="117pt" height="140pt" viewBox="0 0 117 140" version="1.1" xmlns="http://www.w3.org/2000/svg">
<g id="#000000ff">
<path fill="#000000" opacity="1.00" d=" M 0.00 0.00 L 117.00 0.00 L 117.00 140.00 L 0.00 140.00 L 0.00 0.00 M 29.47 10.44 C 15.38 13.31 3.86 26.50 3.99 41.03 C 4.02 60.67 3.99 80.31 4.00 99.95 C 4.39 115.29 17.73 128.95 32.99 129.98 C 49.68 130.03 66.36 129.99 83.05 130.00 C 98.94 129.32 112.81 115.00 112.94 99.06 C 113.02 79.68 113.03 60.29 112.94 40.91 C 112.78 25.31 99.55 11.35 84.08 10.04 C 68.04 9.94 51.99 10.05 35.95 9.98 C 33.78 9.99 31.59 9.95 29.47 10.44 Z" />
<path fill="#000000" opacity="1.00" d=" M 35.18 12.20 C 49.43 11.84 63.71 12.17 77.98 12.03 C 85.27 12.04 92.69 13.96 98.46 18.58 C 105.89 24.29 110.02 33.68 109.99 42.98 C 110.01 61.00 110.01 79.01 109.99 97.02 C 110.07 107.55 104.65 118.17 95.43 123.48 C 89.98 126.96 83.40 127.92 77.05 127.97 C 64.01 127.93 50.98 127.96 37.94 127.96 C 30.75 127.88 23.49 125.72 17.91 121.08 C 11.14 115.50 6.94 106.84 7.07 98.03 C 7.09 78.69 6.94 59.34 7.14 39.99 C 7.71 25.36 20.59 12.77 35.18 12.20 M 45.03 28.23 C 45.15 34.05 45.09 39.86 45.10 45.67 C 42.77 45.67 40.44 45.69 38.11 45.72 C 38.37 50.38 37.90 55.07 38.36 59.71 C 40.55 63.42 45.66 60.61 48.87 62.05 C 51.87 64.66 54.49 67.67 57.44 70.35 C 53.74 70.32 50.04 70.31 46.35 70.36 C 46.40 72.91 46.40 75.45 46.36 78.00 C 54.32 77.93 62.29 78.12 70.25 77.92 L 70.75 77.01 L 70.20 75.88 C 63.15 75.38 56.07 75.88 49.02 75.63 C 49.03 75.00 49.05 73.74 49.05 73.11 C 52.63 72.86 56.21 72.91 59.80 72.93 C 59.81 72.24 59.84 70.84 59.86 70.14 C 62.65 67.34 65.51 64.60 68.24 61.73 C 71.61 61.12 76.46 63.16 78.64 59.70 C 79.09 55.06 78.63 50.38 78.89 45.72 C 76.56 45.69 74.23 45.67 71.90 45.67 C 71.91 39.86 71.84 34.05 71.97 28.24 C 62.99 28.15 54.01 28.16 45.03 28.23 Z" />
<path fill="#000000" opacity="1.00" d=" M 47.77 30.94 C 54.93 30.92 62.08 30.93 69.24 30.93 C 69.25 36.71 69.32 42.50 69.18 48.28 C 71.47 48.31 73.76 48.33 76.05 48.37 C 75.91 51.93 75.92 55.50 75.89 59.06 C 64.30 59.08 52.71 59.08 41.12 59.06 C 41.06 55.49 41.07 51.92 41.03 48.35 C 47.76 48.27 54.48 48.35 61.21 48.31 C 61.21 47.65 61.21 46.35 61.21 45.69 C 56.71 45.65 52.20 45.73 47.69 45.64 C 47.72 43.86 47.73 42.08 47.75 40.30 C 52.24 40.32 56.73 40.33 61.21 40.31 C 61.21 39.65 61.21 38.35 61.21 37.69 C 56.70 37.63 52.17 37.78 47.66 37.59 C 47.72 35.37 47.75 33.15 47.77 30.94 Z" />
<path fill="#000000" opacity="1.00" d=" M 52.13 61.70 C 56.37 61.65 60.62 61.65 64.87 61.70 C 62.70 63.70 60.56 65.73 58.48 67.83 C 56.43 65.72 54.30 63.69 52.13 61.70 Z" />
</g>
<g id="#708cc8ff">
<path fill="#708cc8" opacity="1.00" d=" M 29.47 10.44 C 31.59 9.95 33.78 9.99 35.95 9.98 C 51.99 10.05 68.04 9.94 84.08 10.04 C 99.55 11.35 112.78 25.31 112.94 40.91 C 113.03 60.29 113.02 79.68 112.94 99.06 C 112.81 115.00 98.94 129.32 83.05 130.00 C 66.36 129.99 49.68 130.03 32.99 129.98 C 17.73 128.95 4.39 115.29 4.00 99.95 C 3.99 80.31 4.02 60.67 3.99 41.03 C 3.86 26.50 15.38 13.31 29.47 10.44 M 35.18 12.20 C 20.59 12.77 7.71 25.36 7.14 39.99 C 6.94 59.34 7.09 78.69 7.07 98.03 C 6.94 106.84 11.14 115.50 17.91 121.08 C 23.49 125.72 30.75 127.88 37.94 127.96 C 50.98 127.96 64.01 127.93 77.05 127.97 C 83.40 127.92 89.98 126.96 95.43 123.48 C 104.65 118.17 110.07 107.55 109.99 97.02 C 110.01 79.01 110.01 61.00 109.99 42.98 C 110.02 33.68 105.89 24.29 98.46 18.58 C 92.69 13.96 85.27 12.04 77.98 12.03 C 63.71 12.17 49.43 11.84 35.18 12.20 Z" />
</g>
<g id="#10ec50ff">
<path fill="#10ec50" opacity="1.00" d=" M 45.03 28.23 C 54.01 28.16 62.99 28.15 71.97 28.24 C 71.84 34.05 71.91 39.86 71.90 45.67 C 74.23 45.67 76.56 45.69 78.89 45.72 C 78.63 50.38 79.09 55.06 78.64 59.70 C 76.46 63.16 71.61 61.12 68.24 61.73 C 65.51 64.60 62.65 67.34 59.86 70.14 C 59.84 70.84 59.81 72.24 59.80 72.93 C 56.21 72.91 52.63 72.86 49.05 73.11 C 49.05 73.74 49.03 75.00 49.02 75.63 C 56.07 75.88 63.15 75.38 70.20 75.88 L 70.75 77.01 L 70.25 77.92 C 62.29 78.12 54.32 77.93 46.36 78.00 C 46.40 75.45 46.40 72.91 46.35 70.36 C 50.04 70.31 53.74 70.32 57.44 70.35 C 54.49 67.67 51.87 64.66 48.87 62.05 C 45.66 60.61 40.55 63.42 38.36 59.71 C 37.90 55.07 38.37 50.38 38.11 45.72 C 40.44 45.69 42.77 45.67 45.10 45.67 C 45.09 39.86 45.15 34.05 45.03 28.23 M 47.77 30.94 C 47.75 33.15 47.72 35.37 47.66 37.59 C 52.17 37.78 56.70 37.63 61.21 37.69 C 61.21 38.35 61.21 39.65 61.21 40.31 C 56.73 40.33 52.24 40.32 47.75 40.30 C 47.73 42.08 47.72 43.86 47.69 45.64 C 52.20 45.73 56.71 45.65 61.21 45.69 C 61.21 46.35 61.21 47.65 61.21 48.31 C 54.48 48.35 47.76 48.27 41.03 48.35 C 41.07 51.92 41.06 55.49 41.12 59.06 C 52.71 59.08 64.30 59.08 75.89 59.06 C 75.92 55.50 75.91 51.93 76.05 48.37 C 73.76 48.33 71.47 48.31 69.18 48.28 C 69.32 42.50 69.25 36.71 69.24 30.93 C 62.08 30.93 54.93 30.92 47.77 30.94 M 52.13 61.70 C 54.30 63.69 56.43 65.72 58.48 67.83 C 60.56 65.73 62.70 63.70 64.87 61.70 C 60.62 61.65 56.37 61.65 52.13 61.70 Z" />
</g>
</svg>
