<?xml version="1.0" encoding="UTF-8" ?>
<!DOCTYPE svg PUBLIC "-//W3C//DTD SVG 1.1//EN" "http://www.w3.org/Graphics/SVG/1.1/DTD/svg11.dtd">
<svg width="117pt" height="140pt" viewBox="0 0 117 140" version="1.1" xmlns="http://www.w3.org/2000/svg">
<g id="#000000ff">
<path fill="#000000" opacity="1.00" d=" M 0.00 0.00 L 117.00 0.00 L 117.00 140.00 L 0.00 140.00 L 0.00 0.00 M 33.17 10.25 C 17.93 11.79 5.23 25.63 5.04 40.95 C 5.01 60.64 4.91 80.33 5.09 100.02 C 5.73 115.98 20.00 129.81 35.97 129.96 C 51.34 130.02 66.73 130.05 82.11 129.94 C 94.59 129.72 106.32 121.30 110.78 109.68 C 113.69 102.82 112.90 95.23 113.00 87.97 C 112.93 71.95 113.14 55.93 112.90 39.92 C 112.26 23.98 97.98 10.20 82.03 10.04 C 65.75 10.10 49.44 9.71 33.17 10.25 Z" />
<path fill="#000000" opacity="1.00" d=" M 33.21 12.30 C 49.48 11.76 65.79 12.14 82.07 12.10 C 97.30 12.22 110.85 25.77 110.90 41.01 C 110.98 60.36 110.99 79.71 110.89 99.06 C 110.82 114.26 97.30 127.78 82.11 127.88 C 66.73 128.01 51.35 127.96 35.97 127.90 C 20.74 127.80 7.18 114.28 7.10 99.05 C 6.98 81.37 7.10 63.69 7.04 46.01 C 7.04 42.34 6.97 38.62 7.84 35.03 C 10.59 23.21 21.10 13.64 33.21 12.30 M 46.03 28.22 C 46.15 34.04 46.08 39.85 46.09 45.67 C 43.75 45.67 41.41 45.68 39.07 45.72 C 39.49 50.53 38.64 55.46 39.54 60.19 C 42.15 62.87 46.27 61.26 49.56 61.65 C 52.48 64.55 55.44 67.41 58.34 70.33 C 54.67 70.33 51.00 70.29 47.33 70.36 C 47.39 72.91 47.40 75.45 47.34 78.00 C 55.53 77.81 63.76 78.39 71.93 77.69 C 71.69 77.22 71.22 76.27 70.98 75.80 C 64.02 75.49 57.04 75.81 50.08 75.64 C 50.05 75.02 49.99 73.78 49.97 73.16 C 53.59 72.85 57.22 73.09 60.85 72.92 C 60.85 72.23 60.85 70.84 60.85 70.15 C 63.72 67.32 66.56 64.45 69.46 61.64 C 72.73 61.27 76.80 62.86 79.42 60.23 C 80.41 55.50 79.49 50.54 79.93 45.72 C 77.60 45.68 75.28 45.67 72.95 45.69 C 72.87 39.87 72.87 34.04 72.97 28.22 C 63.99 28.13 55.01 28.13 46.03 28.22 Z" />
<path fill="#000000" opacity="1.00" d=" M 48.75 31.05 C 55.91 30.88 63.08 30.95 70.24 31.06 C 70.22 36.79 70.37 42.53 70.14 48.27 C 72.41 48.32 74.68 48.33 76.95 48.34 C 76.94 51.89 76.94 55.43 76.92 58.98 C 65.29 59.00 53.65 59.10 42.02 58.90 C 42.08 55.39 42.09 51.87 42.02 48.36 C 48.75 48.25 55.49 48.35 62.22 48.32 C 62.22 47.66 62.22 46.34 62.22 45.68 C 57.73 45.68 53.24 45.67 48.75 45.70 C 48.74 43.93 48.71 42.17 48.68 40.41 C 53.19 40.22 57.70 40.37 62.22 40.32 C 62.22 39.66 62.22 38.34 62.22 37.68 C 57.72 37.68 53.23 37.66 48.74 37.70 C 48.74 35.49 48.74 33.27 48.75 31.05 Z" />
<path fill="#000000" opacity="1.00" d=" M 53.21 61.71 C 57.41 61.66 61.61 61.64 65.81 61.73 C 63.66 63.71 61.54 65.73 59.50 67.83 C 57.45 65.74 55.34 63.72 53.21 61.71 Z" />
</g>
<g id="#788cc0ff">
<path fill="#788cc0" opacity="1.00" d=" M 33.17 10.25 C 49.44 9.71 65.75 10.10 82.03 10.04 C 97.98 10.20 112.26 23.98 112.90 39.92 C 113.14 55.93 112.93 71.95 113.00 87.97 C 112.90 95.23 113.69 102.82 110.78 109.68 C 106.32 121.30 94.59 129.72 82.11 129.94 C 66.73 130.05 51.34 130.02 35.97 129.96 C 20.00 129.81 5.73 115.98 5.09 100.02 C 4.91 80.33 5.01 60.64 5.04 40.95 C 5.23 25.63 17.93 11.79 33.17 10.25 M 33.21 12.30 C 21.10 13.64 10.59 23.21 7.84 35.03 C 6.97 38.62 7.04 42.34 7.04 46.01 C 7.10 63.69 6.98 81.37 7.10 99.05 C 7.18 114.28 20.74 127.80 35.97 127.90 C 51.35 127.96 66.73 128.01 82.11 127.88 C 97.30 127.78 110.82 114.26 110.89 99.06 C 110.99 79.71 110.98 60.36 110.90 41.01 C 110.85 25.77 97.30 12.22 82.07 12.10 C 65.79 12.14 49.48 11.76 33.21 12.30 Z" />
</g>
<g id="#f8fcf8ff">
<path fill="#f8fcf8" opacity="1.00" d=" M 46.03 28.22 C 55.01 28.13 63.99 28.13 72.97 28.22 C 72.87 34.04 72.87 39.87 72.95 45.69 C 75.28 45.67 77.60 45.68 79.93 45.72 C 79.49 50.54 80.41 55.50 79.42 60.23 C 76.80 62.86 72.73 61.27 69.46 61.64 C 66.56 64.45 63.72 67.32 60.85 70.15 C 60.85 70.84 60.85 72.23 60.85 72.92 C 57.22 73.09 53.59 72.85 49.97 73.16 C 49.99 73.78 50.05 75.02 50.08 75.64 C 57.04 75.81 64.02 75.49 70.98 75.80 C 71.22 76.27 71.69 77.22 71.93 77.69 C 63.76 78.39 55.53 77.81 47.34 78.00 C 47.40 75.45 47.39 72.91 47.33 70.36 C 51.00 70.29 54.67 70.33 58.34 70.33 C 55.44 67.41 52.48 64.55 49.56 61.65 C 46.27 61.26 42.15 62.87 39.54 60.19 C 38.64 55.46 39.49 50.53 39.07 45.72 C 41.41 45.68 43.75 45.67 46.09 45.67 C 46.08 39.85 46.15 34.04 46.03 28.22 M 48.75 31.05 C 48.74 33.27 48.74 35.49 48.74 37.70 C 53.23 37.66 57.72 37.68 62.22 37.68 C 62.22 38.34 62.22 39.66 62.22 40.32 C 57.70 40.37 53.19 40.22 48.68 40.41 C 48.71 42.17 48.74 43.93 48.75 45.70 C 53.24 45.67 57.73 45.68 62.22 45.68 C 62.22 46.34 62.22 47.66 62.22 48.32 C 55.49 48.35 48.75 48.25 42.02 48.36 C 42.09 51.87 42.08 55.39 42.02 58.90 C 53.65 59.10 65.29 59.00 76.92 58.98 C 76.94 55.43 76.94 51.89 76.95 48.34 C 74.68 48.33 72.41 48.32 70.14 48.27 C 70.37 42.53 70.22 36.79 70.24 31.06 C 63.08 30.95 55.91 30.88 48.75 31.05 M 53.21 61.71 C 55.34 63.72 57.45 65.74 59.50 67.83 C 61.54 65.73 63.66 63.71 65.81 61.73 C 61.61 61.64 57.41 61.66 53.21 61.71 Z" />
</g>
</svg>
