<?xml version="1.0" encoding="UTF-8" ?>
<!DOCTYPE svg PUBLIC "-//W3C//DTD SVG 1.1//EN" "http://www.w3.org/Graphics/SVG/1.1/DTD/svg11.dtd">
<svg width="117pt" height="140pt" viewBox="0 0 117 140" version="1.1" xmlns="http://www.w3.org/2000/svg">
<g id="#000000ff">
<path fill="#000000" opacity="1.00" d=" M 0.00 0.00 L 117.00 0.00 L 117.00 140.00 L 0.00 140.00 L 0.00 0.00 M 39.54 51.49 C 36.81 51.63 33.12 50.81 31.73 53.89 C 31.38 62.27 31.66 70.67 31.58 79.05 C 31.41 80.95 32.93 83.04 34.98 82.82 C 50.33 82.92 65.69 82.86 81.05 82.85 C 82.83 83.09 84.92 82.00 84.79 79.98 C 84.98 72.59 84.83 65.19 84.84 57.80 C 82.28 57.80 79.73 57.80 77.17 57.79 C 77.22 48.39 77.19 39.00 77.20 29.60 C 64.63 29.53 52.07 29.62 39.51 29.56 C 39.48 36.87 39.45 44.18 39.54 51.49 Z" />
<path fill="#000000" opacity="1.00" d=" M 42.58 32.71 C 53.10 32.73 63.63 32.67 74.16 32.74 C 74.20 39.98 74.08 47.23 74.23 54.48 C 67.34 54.91 60.42 54.60 53.52 54.64 C 53.54 52.57 53.54 50.50 53.54 48.43 C 49.88 48.46 46.22 48.45 42.56 48.47 C 42.59 43.21 42.58 37.96 42.58 32.71 M 45.61 35.80 C 45.31 37.55 45.54 39.66 47.92 39.16 C 55.47 39.23 63.02 39.05 70.56 39.24 C 70.61 38.07 70.65 36.90 70.67 35.73 C 62.32 35.88 53.97 35.76 45.61 35.80 M 45.68 42.43 C 45.66 43.16 45.64 44.61 45.63 45.33 C 53.97 45.35 62.31 45.26 70.65 45.38 C 70.71 44.35 70.76 43.32 70.81 42.30 C 62.43 42.39 54.04 42.08 45.68 42.43 M 56.58 48.47 C 56.61 49.22 56.69 50.71 56.72 51.45 C 61.42 51.71 66.12 51.48 70.82 51.55 C 70.76 50.51 70.72 49.46 70.69 48.42 C 65.98 48.48 61.28 48.43 56.58 48.47 Z" />
<path fill="#000000" opacity="1.00" d=" M 34.71 54.68 C 38.89 54.68 43.07 54.68 47.26 54.68 C 47.47 56.42 47.06 58.40 48.13 59.92 C 50.09 61.39 52.70 60.72 54.96 60.87 C 63.91 61.24 72.87 60.71 81.83 61.17 C 81.74 67.37 81.77 73.57 81.80 79.77 C 66.10 79.77 50.40 79.80 34.70 79.75 C 34.72 71.39 34.71 63.04 34.71 54.68 Z" />
</g>
<g id="#f8fcf8ff">
<path fill="#f8fcf8" opacity="1.00" d=" M 39.54 51.49 C 39.45 44.18 39.48 36.87 39.51 29.56 C 52.07 29.62 64.63 29.53 77.20 29.60 C 77.19 39.00 77.22 48.39 77.17 57.79 C 79.73 57.80 82.28 57.80 84.84 57.80 C 84.83 65.19 84.98 72.59 84.79 79.98 C 84.92 82.00 82.83 83.09 81.05 82.85 C 65.69 82.86 50.33 82.92 34.98 82.82 C 32.93 83.04 31.41 80.95 31.58 79.05 C 31.66 70.67 31.38 62.27 31.73 53.89 C 33.12 50.81 36.81 51.63 39.54 51.49 M 42.58 32.71 C 42.58 37.96 42.59 43.21 42.56 48.47 C 46.22 48.45 49.88 48.46 53.54 48.43 C 53.54 50.50 53.54 52.57 53.52 54.64 C 60.42 54.60 67.34 54.91 74.23 54.48 C 74.08 47.23 74.20 39.98 74.16 32.74 C 63.63 32.67 53.10 32.73 42.58 32.71 M 34.71 54.68 C 34.71 63.04 34.72 71.39 34.70 79.75 C 50.40 79.80 66.10 79.77 81.80 79.77 C 81.77 73.57 81.74 67.37 81.83 61.17 C 72.87 60.71 63.91 61.24 54.96 60.87 C 52.70 60.72 50.09 61.39 48.13 59.92 C 47.06 58.40 47.47 56.42 47.26 54.68 C 43.07 54.68 38.89 54.68 34.71 54.68 Z" />
<path fill="#f8fcf8" opacity="1.00" d=" M 45.61 35.80 C 53.97 35.76 62.32 35.88 70.67 35.73 C 70.65 36.90 70.61 38.07 70.56 39.24 C 63.02 39.05 55.47 39.23 47.92 39.16 C 45.54 39.66 45.31 37.55 45.61 35.80 Z" />
<path fill="#f8fcf8" opacity="1.00" d=" M 45.68 42.43 C 54.04 42.08 62.43 42.39 70.81 42.30 C 70.76 43.32 70.71 44.35 70.65 45.38 C 62.31 45.26 53.97 45.35 45.63 45.33 C 45.64 44.61 45.66 43.16 45.68 42.43 Z" />
<path fill="#f8fcf8" opacity="1.00" d=" M 56.58 48.47 C 61.28 48.43 65.98 48.48 70.69 48.42 C 70.72 49.46 70.76 50.51 70.82 51.55 C 66.12 51.48 61.42 51.71 56.72 51.45 C 56.69 50.71 56.61 49.22 56.58 48.47 Z" />
</g>
</svg>
