<?xml version="1.0" encoding="UTF-8" ?>
<!DOCTYPE svg PUBLIC "-//W3C//DTD SVG 1.1//EN" "http://www.w3.org/Graphics/SVG/1.1/DTD/svg11.dtd">
<svg width="117pt" height="140pt" viewBox="0 0 117 140" version="1.1" xmlns="http://www.w3.org/2000/svg">
<g id="#000000ff">
<path fill="#000000" opacity="1.00" d=" M 0.00 0.00 L 117.00 0.00 L 117.00 140.00 L 0.00 140.00 L 0.00 0.00 M 33.14 10.22 C 17.90 11.79 5.17 25.63 5.01 40.98 C 5.02 60.67 4.93 80.37 5.06 100.06 C 5.72 115.63 19.33 129.25 34.90 129.93 C 50.25 130.10 65.61 129.95 80.97 130.00 C 93.07 130.19 104.78 122.72 109.89 111.77 C 112.13 107.20 113.12 102.07 113.02 96.99 C 112.98 78.63 113.00 60.27 113.01 41.92 C 113.05 33.29 109.34 24.75 103.07 18.84 C 96.98 12.95 88.47 9.74 80.02 9.98 C 64.40 10.17 48.75 9.70 33.14 10.22 Z" />
<path fill="#000000" opacity="1.00" d=" M 30.60 12.69 C 35.00 11.72 39.52 12.06 43.99 12.00 C 57.00 12.06 70.01 11.88 83.01 12.09 C 97.90 12.74 110.86 26.09 110.96 41.01 C 111.05 58.98 110.97 76.96 111.00 94.93 C 111.18 100.43 110.59 106.09 108.01 111.02 C 103.22 121.18 92.34 128.11 81.08 127.98 C 65.71 127.97 50.32 128.10 34.95 127.91 C 20.09 127.24 7.18 113.93 7.03 99.05 C 6.98 79.70 6.98 60.36 7.03 41.01 C 7.20 27.64 17.54 15.36 30.60 12.69 M 42.53 40.63 C 39.75 43.14 36.10 44.88 34.00 48.04 C 31.97 53.31 38.41 55.60 41.43 58.51 C 43.65 61.15 47.05 60.44 50.00 59.89 C 50.00 57.26 50.00 54.63 50.00 52.00 C 50.75 52.00 52.25 52.00 53.00 52.00 C 53.00 51.25 53.00 49.75 53.00 49.00 C 52.25 49.00 50.75 49.00 50.00 49.00 C 50.00 46.04 50.00 43.08 50.00 40.12 C 47.53 39.93 44.62 38.63 42.53 40.63 M 69.12 40.06 C 68.20 42.96 67.82 45.97 67.97 49.00 C 67.23 49.00 65.74 49.00 65.00 49.00 C 65.00 49.75 65.00 51.25 65.00 52.00 C 65.73 52.00 67.20 52.00 67.94 52.00 C 67.86 54.70 68.35 57.35 69.12 59.93 C 71.71 60.84 74.62 60.67 76.55 58.53 C 79.27 55.83 84.04 54.31 84.47 50.00 C 84.04 45.65 79.19 44.14 76.46 41.39 C 74.56 39.25 71.67 39.20 69.12 40.06 M 54.00 49.00 C 54.00 49.75 54.00 51.25 54.00 52.00 C 54.75 52.00 56.25 52.00 57.00 52.00 C 57.00 51.25 57.00 49.75 57.00 49.00 C 56.25 49.00 54.75 49.00 54.00 49.00 M 58.00 49.00 C 58.00 49.75 58.00 51.25 58.00 52.00 C 60.00 52.00 62.00 52.00 64.00 52.00 C 64.00 51.25 64.00 49.75 64.00 49.00 C 62.00 49.00 60.00 49.00 58.00 49.00 Z" />
<path fill="#000000" opacity="1.00" d=" M 37.00 50.00 C 40.02 47.72 42.92 45.28 46.02 43.11 C 45.96 47.73 46.08 52.35 45.91 56.97 C 42.98 54.60 39.98 52.31 37.00 50.00 Z" />
<path fill="#000000" opacity="1.00" d=" M 72.04 56.97 C 72.07 52.32 71.77 47.65 72.23 43.01 C 75.03 45.48 78.05 47.70 80.99 50.00 C 78.01 52.32 75.01 54.63 72.04 56.97 Z" />
</g>
<g id="#7185b5ff">
<path fill="#7185b5" opacity="1.00" d=" M 33.14 10.22 C 48.75 9.70 64.40 10.17 80.02 9.98 C 88.47 9.74 96.98 12.95 103.07 18.84 C 109.34 24.75 113.05 33.29 113.01 41.92 C 113.00 60.27 112.98 78.63 113.02 96.99 C 113.12 102.07 112.13 107.20 109.89 111.77 C 104.78 122.72 93.07 130.19 80.97 130.00 C 65.61 129.95 50.25 130.10 34.90 129.93 C 19.33 129.25 5.72 115.63 5.06 100.06 C 4.93 80.37 5.02 60.67 5.01 40.98 C 5.17 25.63 17.90 11.79 33.14 10.22 M 30.60 12.69 C 17.54 15.36 7.20 27.64 7.03 41.01 C 6.98 60.36 6.98 79.70 7.03 99.05 C 7.18 113.93 20.09 127.24 34.95 127.91 C 50.32 128.10 65.71 127.97 81.08 127.98 C 92.34 128.11 103.22 121.18 108.01 111.02 C 110.59 106.09 111.18 100.43 111.00 94.93 C 110.97 76.96 111.05 58.98 110.96 41.01 C 110.86 26.09 97.90 12.74 83.01 12.09 C 70.01 11.88 57.00 12.06 43.99 12.00 C 39.52 12.06 35.00 11.72 30.60 12.69 Z" />
</g>
<g id="#f8fcf8ff">
<path fill="#f8fcf8" opacity="1.00" d=" M 42.53 40.63 C 44.62 38.63 47.53 39.93 50.00 40.12 C 50.00 43.08 50.00 46.04 50.00 49.00 C 50.75 49.00 52.25 49.00 53.00 49.00 C 53.00 49.75 53.00 51.25 53.00 52.00 C 52.25 52.00 50.75 52.00 50.00 52.00 C 50.00 54.63 50.00 57.26 50.00 59.89 C 47.05 60.44 43.65 61.15 41.43 58.51 C 38.41 55.60 31.97 53.31 34.00 48.04 C 36.10 44.88 39.75 43.14 42.53 40.63 M 37.00 50.00 C 39.98 52.31 42.98 54.60 45.91 56.97 C 46.08 52.35 45.96 47.73 46.02 43.11 C 42.92 45.28 40.02 47.72 37.00 50.00 Z" />
<path fill="#f8fcf8" opacity="1.00" d=" M 69.12 40.06 C 71.67 39.20 74.56 39.25 76.46 41.39 C 79.19 44.14 84.04 45.65 84.47 50.00 C 84.04 54.31 79.27 55.83 76.55 58.53 C 74.62 60.67 71.71 60.84 69.12 59.93 C 68.35 57.35 67.86 54.70 67.94 52.00 C 67.20 52.00 65.73 52.00 65.00 52.00 C 65.00 51.25 65.00 49.75 65.00 49.00 C 65.74 49.00 67.23 49.00 67.97 49.00 C 67.82 45.97 68.20 42.96 69.12 40.06 M 72.04 56.97 C 75.01 54.63 78.01 52.32 80.99 50.00 C 78.05 47.70 75.03 45.48 72.23 43.01 C 71.77 47.65 72.07 52.32 72.04 56.97 Z" />
<path fill="#f8fcf8" opacity="1.00" d=" M 54.00 49.00 C 54.75 49.00 56.25 49.00 57.00 49.00 C 57.00 49.75 57.00 51.25 57.00 52.00 C 56.25 52.00 54.75 52.00 54.00 52.00 C 54.00 51.25 54.00 49.75 54.00 49.00 Z" />
<path fill="#f8fcf8" opacity="1.00" d=" M 58.00 49.00 C 60.00 49.00 62.00 49.00 64.00 49.00 C 64.00 49.75 64.00 51.25 64.00 52.00 C 62.00 52.00 60.00 52.00 58.00 52.00 C 58.00 51.25 58.00 49.75 58.00 49.00 Z" />
</g>
</svg>
