<?xml version="1.0" encoding="UTF-8" ?>
<!DOCTYPE svg PUBLIC "-//W3C//DTD SVG 1.1//EN" "http://www.w3.org/Graphics/SVG/1.1/DTD/svg11.dtd">
<svg width="117pt" height="140pt" viewBox="0 0 117 140" version="1.1" xmlns="http://www.w3.org/2000/svg">
<g id="#000000ff">
<path fill="#000000" opacity="1.00" d=" M 0.00 0.00 L 117.00 0.00 L 117.00 140.00 L 0.00 140.00 L 0.00 0.00 M 33.24 10.24 C 17.97 11.75 5.21 25.61 5.04 40.97 C 4.97 60.30 4.97 79.65 5.04 98.99 C 5.16 114.95 18.97 129.24 34.92 129.90 C 50.62 130.10 66.34 130.01 82.05 129.94 C 98.35 129.84 112.82 115.37 112.95 99.07 C 113.06 80.04 112.99 61.01 112.98 41.98 C 113.09 30.92 106.90 20.13 97.38 14.54 C 91.90 11.20 85.42 9.80 79.03 9.98 C 63.77 10.18 48.49 9.67 33.24 10.24 Z" />
<path fill="#000000" opacity="1.00" d=" M 33.27 12.30 C 45.15 11.74 57.06 12.20 68.95 12.05 C 77.09 12.28 85.73 10.99 93.32 14.71 C 103.85 19.33 111.15 30.49 110.93 42.03 C 110.94 61.03 111.01 80.05 110.89 99.05 C 110.83 114.27 97.26 127.81 82.05 127.88 C 66.68 128.00 51.31 127.98 35.94 127.90 C 20.74 127.79 7.20 114.29 7.10 99.07 C 7.02 79.67 7.01 60.27 7.10 40.87 C 7.27 26.63 19.13 13.76 33.27 12.30 M 50.30 28.06 C 50.32 37.71 50.35 47.36 50.29 57.01 C 44.67 61.15 43.23 69.82 47.64 75.34 C 51.64 80.96 60.72 81.55 65.39 76.45 C 70.85 71.13 69.79 61.43 63.71 57.01 C 63.65 47.36 63.68 37.71 63.69 28.05 C 59.23 28.03 54.77 28.03 50.30 28.06 M 68.00 33.37 C 69.76 33.79 71.57 33.46 73.32 33.17 C 73.77 29.64 65.93 29.68 68.00 33.37 M 67.89 40.22 C 69.68 40.76 71.52 40.40 73.31 40.10 C 73.74 36.63 66.16 36.60 67.89 40.22 M 67.85 44.85 C 66.54 48.53 71.16 47.21 73.20 47.15 C 73.52 43.93 69.92 44.49 67.85 44.85 M 67.89 54.18 C 69.63 54.42 71.38 54.27 73.13 54.15 C 74.17 50.45 66.00 50.42 67.89 54.18 Z" />
<path fill="#000000" opacity="1.00" d=" M 52.95 30.77 C 55.65 30.77 58.36 30.77 61.07 30.77 C 60.92 40.03 61.09 49.29 61.01 58.55 C 64.16 60.60 66.66 64.07 66.34 67.99 C 66.27 73.64 60.44 78.58 54.84 76.98 C 49.20 75.70 45.98 68.73 48.49 63.56 C 49.33 61.26 51.57 60.03 52.96 58.16 C 53.09 49.03 52.99 39.90 52.95 30.77 M 55.65 46.75 C 55.69 51.31 55.66 55.87 55.72 60.43 C 53.79 61.46 51.68 62.60 50.86 64.78 C 49.01 68.70 51.76 73.75 56.03 74.41 C 60.50 75.20 64.63 70.49 63.57 66.15 C 63.11 63.35 60.73 61.54 58.29 60.45 C 58.33 55.88 58.31 51.32 58.35 46.75 C 57.67 46.75 56.33 46.75 55.65 46.75 Z" />
</g>
<g id="#788cc0ff">
<path fill="#788cc0" opacity="1.00" d=" M 33.24 10.24 C 48.49 9.67 63.77 10.18 79.03 9.98 C 85.42 9.80 91.90 11.20 97.38 14.54 C 106.90 20.13 113.09 30.92 112.98 41.98 C 112.99 61.01 113.06 80.04 112.95 99.07 C 112.82 115.37 98.35 129.84 82.05 129.94 C 66.34 130.01 50.62 130.10 34.92 129.90 C 18.97 129.24 5.16 114.95 5.04 98.99 C 4.97 79.65 4.97 60.30 5.04 40.97 C 5.21 25.61 17.97 11.75 33.24 10.24 M 33.27 12.30 C 19.13 13.76 7.27 26.63 7.10 40.87 C 7.01 60.27 7.02 79.67 7.10 99.07 C 7.20 114.29 20.74 127.79 35.94 127.90 C 51.31 127.98 66.68 128.00 82.05 127.88 C 97.26 127.81 110.83 114.27 110.89 99.05 C 111.01 80.05 110.94 61.03 110.93 42.03 C 111.15 30.49 103.85 19.33 93.32 14.71 C 85.73 10.99 77.09 12.28 68.95 12.05 C 57.06 12.20 45.15 11.74 33.27 12.30 Z" />
</g>
<g id="#f8fcf8ff">
<path fill="#f8fcf8" opacity="1.00" d=" M 50.30 28.06 C 54.77 28.03 59.23 28.03 63.69 28.05 C 63.68 37.71 63.65 47.36 63.71 57.01 C 69.79 61.43 70.85 71.13 65.39 76.45 C 60.72 81.55 51.64 80.96 47.64 75.34 C 43.23 69.82 44.67 61.15 50.29 57.01 C 50.35 47.36 50.32 37.71 50.30 28.06 M 52.95 30.77 C 52.99 39.90 53.09 49.03 52.96 58.16 C 51.57 60.03 49.33 61.26 48.49 63.56 C 45.98 68.73 49.20 75.70 54.84 76.98 C 60.44 78.58 66.27 73.64 66.34 67.99 C 66.66 64.07 64.16 60.60 61.01 58.55 C 61.09 49.29 60.92 40.03 61.07 30.77 C 58.36 30.77 55.65 30.77 52.95 30.77 Z" />
<path fill="#f8fcf8" opacity="1.00" d=" M 55.65 46.75 C 56.33 46.75 57.67 46.75 58.35 46.75 C 58.31 51.32 58.33 55.88 58.29 60.45 C 60.73 61.54 63.11 63.35 63.57 66.15 C 64.63 70.49 60.50 75.20 56.03 74.41 C 51.76 73.75 49.01 68.70 50.86 64.78 C 51.68 62.60 53.79 61.46 55.72 60.43 C 55.66 55.87 55.69 51.31 55.65 46.75 Z" />
</g>
<g id="#f1f4f1ff">
<path fill="#f1f4f1" opacity="1.00" d=" M 68.00 33.37 C 65.93 29.68 73.77 29.64 73.32 33.17 C 71.57 33.46 69.76 33.79 68.00 33.37 Z" />
</g>
<g id="#f2f5f2ff">
<path fill="#f2f5f2" opacity="1.00" d=" M 67.89 40.22 C 66.16 36.60 73.74 36.63 73.31 40.10 C 71.52 40.40 69.68 40.76 67.89 40.22 Z" />
</g>
<g id="#f2f6f2ff">
<path fill="#f2f6f2" opacity="1.00" d=" M 67.85 44.85 C 69.92 44.49 73.52 43.93 73.20 47.15 C 71.16 47.21 66.54 48.53 67.85 44.85 Z" />
<path fill="#f2f6f2" opacity="1.00" d=" M 67.89 54.18 C 66.00 50.42 74.17 50.45 73.13 54.15 C 71.38 54.27 69.63 54.42 67.89 54.18 Z" />
</g>
</svg>
