<?xml version="1.0" encoding="UTF-8" ?>
<!DOCTYPE svg PUBLIC "-//W3C//DTD SVG 1.1//EN" "http://www.w3.org/Graphics/SVG/1.1/DTD/svg11.dtd">
<svg width="117pt" height="92pt" viewBox="0 0 117 92" version="1.1" xmlns="http://www.w3.org/2000/svg">
<g id="#000000ff">
<path fill="#000000" opacity="1.00" d=" M 0.00 0.00 L 117.00 0.00 L 117.00 92.00 L 0.00 92.00 L 0.00 0.00 M 29.51 8.66 C 15.37 11.31 4.18 24.60 3.99 38.98 C 4.24 47.14 2.94 55.71 6.46 63.38 C 11.11 74.72 22.73 82.79 35.01 83.01 C 50.35 82.99 65.69 83.00 81.03 83.00 C 95.20 82.81 108.30 71.97 111.22 58.12 C 112.67 51.86 111.73 45.39 112.01 39.04 C 111.92 22.63 97.35 8.11 80.96 7.99 C 65.31 8.01 49.65 7.99 33.99 8.00 C 32.48 8.09 30.99 8.37 29.51 8.66 Z" />
<path fill="#000000" opacity="1.00" d=" M 29.54 10.71 C 31.67 10.28 33.83 9.97 36.01 10.00 C 51.01 10.01 66.02 9.98 81.02 10.02 C 93.32 10.30 104.76 18.95 108.51 30.64 C 110.80 37.54 109.80 44.92 109.96 52.05 C 109.79 66.94 96.92 80.21 82.06 80.91 C 66.35 81.11 50.63 80.96 34.92 80.99 C 22.64 80.68 11.23 72.03 7.48 60.35 C 5.23 53.78 6.21 46.76 6.00 39.96 C 5.79 26.28 16.16 13.47 29.54 10.71 M 58.74 27.76 C 51.53 34.64 45.43 42.31 38.42 49.34 C 37.96 51.25 36.96 53.26 37.92 55.19 C 53.28 55.49 68.78 55.57 84.14 55.14 C 85.93 49.60 80.34 46.32 77.24 42.72 C 72.82 37.61 68.16 32.52 63.25 27.76 C 62.12 26.59 59.86 26.60 58.74 27.76 Z" />
<path fill="#000000" opacity="1.00" d=" M 42.16 51.48 C 48.43 44.56 54.76 37.61 61.05 30.84 C 67.27 37.70 73.54 44.61 79.93 51.42 C 67.37 51.14 54.71 51.03 42.16 51.48 Z" />
</g>
<g id="#6781b7ff">
<path fill="#6781b7" opacity="1.00" d=" M 29.51 8.66 C 30.99 8.37 32.48 8.09 33.99 8.00 C 49.65 7.99 65.31 8.01 80.96 7.99 C 97.35 8.11 111.92 22.63 112.01 39.04 C 111.73 45.39 112.67 51.86 111.22 58.12 C 108.30 71.97 95.20 82.81 81.03 83.00 C 65.69 83.00 50.35 82.99 35.01 83.01 C 22.73 82.79 11.11 74.72 6.46 63.38 C 2.94 55.71 4.24 47.14 3.99 38.98 C 4.18 24.60 15.37 11.31 29.51 8.66 M 29.54 10.71 C 16.16 13.47 5.79 26.28 6.00 39.96 C 6.21 46.76 5.23 53.78 7.48 60.35 C 11.23 72.03 22.64 80.68 34.92 80.99 C 50.63 80.96 66.35 81.11 82.06 80.91 C 96.92 80.21 109.79 66.94 109.96 52.05 C 109.80 44.92 110.80 37.54 108.51 30.64 C 104.76 18.95 93.32 10.30 81.02 10.02 C 66.02 9.98 51.01 10.01 36.01 10.00 C 33.83 9.97 31.67 10.28 29.54 10.71 Z" />
</g>
<g id="#f8fcf8ff">
<path fill="#f8fcf8" opacity="1.00" d=" M 58.74 27.76 C 59.86 26.60 62.12 26.59 63.25 27.76 C 68.16 32.52 72.82 37.61 77.24 42.72 C 80.34 46.32 85.93 49.60 84.14 55.14 C 68.78 55.57 53.28 55.49 37.92 55.19 C 36.96 53.26 37.96 51.25 38.42 49.34 C 45.43 42.31 51.53 34.64 58.74 27.76 M 42.16 51.48 C 54.71 51.03 67.37 51.14 79.93 51.42 C 73.54 44.61 67.27 37.70 61.05 30.84 C 54.76 37.61 48.43 44.56 42.16 51.48 Z" />
</g>
</svg>
