<?xml version="1.0" encoding="UTF-8" ?>
<!DOCTYPE svg PUBLIC "-//W3C//DTD SVG 1.1//EN" "http://www.w3.org/Graphics/SVG/1.1/DTD/svg11.dtd">
<svg width="117pt" height="140pt" viewBox="0 0 117 140" version="1.1" xmlns="http://www.w3.org/2000/svg">
<g id="#000000ff">
<path fill="#000000" opacity="1.00" d=" M 0.00 0.00 L 117.00 0.00 L 117.00 140.00 L 0.00 140.00 L 0.00 0.00 M 33.13 10.22 C 17.89 11.79 5.15 25.66 5.02 41.01 C 4.99 60.35 4.99 79.70 5.02 99.05 C 5.16 115.00 18.96 129.25 34.90 129.93 C 50.63 130.08 66.37 129.99 82.10 129.97 C 98.04 129.82 112.29 115.99 112.93 100.06 C 113.11 80.70 112.94 61.34 113.00 41.97 C 113.07 33.33 109.35 24.79 103.09 18.85 C 96.98 12.94 88.44 9.74 79.96 9.98 C 64.35 10.17 48.73 9.69 33.13 10.22 Z" />
<path fill="#000000" opacity="1.00" d=" M 30.54 12.69 C 35.29 11.69 40.17 12.08 44.98 12.00 C 57.68 12.06 70.38 11.87 83.08 12.10 C 97.93 12.76 110.83 26.09 110.95 40.96 C 111.03 60.31 111.03 79.66 110.95 99.01 C 110.87 114.26 97.30 127.82 82.05 127.95 C 66.71 128.04 51.36 128.02 36.01 127.96 C 20.73 127.85 7.12 114.27 7.04 98.98 C 6.97 79.64 6.97 60.30 7.04 40.95 C 7.21 27.62 17.53 15.40 30.54 12.69 M 44.35 31.17 C 35.41 36.31 29.64 46.57 30.71 56.94 C 31.10 70.78 44.14 82.89 58.00 82.04 C 68.85 82.67 79.36 75.41 83.39 65.46 C 85.65 60.29 85.71 54.43 84.82 48.94 C 83.02 40.77 77.15 33.69 69.57 30.22 C 61.61 26.68 52.04 27.12 44.35 31.17 Z" />
<path fill="#000000" opacity="1.00" d=" M 51.76 31.02 C 52.46 31.00 53.87 30.97 54.57 30.96 C 54.68 32.58 54.97 34.22 56.29 35.31 C 58.60 31.45 63.63 29.82 67.59 32.20 C 68.06 32.47 69.01 33.03 69.48 33.30 C 69.69 35.32 70.80 36.41 72.73 35.50 C 73.55 36.34 74.39 37.17 75.23 37.99 C 74.44 37.81 72.87 37.45 72.08 37.27 C 71.95 37.90 71.70 39.16 71.58 39.79 C 70.80 38.06 69.31 36.87 67.87 35.72 C 67.94 36.99 67.14 39.01 69.44 38.79 C 70.97 39.29 70.93 41.49 71.89 42.60 C 71.19 42.51 69.78 42.33 69.08 42.24 C 69.68 43.48 69.37 45.57 71.24 45.80 C 72.44 44.69 73.48 43.42 74.64 42.27 C 75.38 42.68 76.85 43.50 77.59 43.91 C 77.52 44.22 77.37 44.85 77.30 45.16 C 79.65 45.07 81.51 46.51 82.40 48.60 C 80.97 48.37 79.51 48.00 78.07 48.36 C 76.99 47.59 76.30 46.57 76.00 45.30 C 74.34 45.55 72.67 45.74 71.05 46.19 C 69.70 48.10 68.59 50.17 67.29 52.12 C 67.18 55.15 68.10 57.92 70.29 60.05 C 71.69 59.87 73.09 59.68 74.48 59.48 C 74.91 59.76 75.78 60.33 76.21 60.62 C 76.60 66.06 73.86 70.86 71.87 75.74 C 71.31 75.98 70.18 76.46 69.62 76.70 C 66.84 78.61 63.36 78.59 60.40 79.92 C 58.80 79.98 57.20 79.98 55.60 79.92 C 54.37 79.23 53.05 78.77 51.64 78.56 C 51.81 75.78 54.13 73.87 55.18 71.42 C 58.37 70.24 58.21 66.34 60.10 63.96 C 57.99 63.17 55.85 62.44 53.74 61.65 C 52.69 59.25 50.06 58.54 47.96 57.37 C 45.59 55.98 43.04 57.32 40.62 57.79 C 40.43 56.37 40.13 54.94 38.85 54.11 C 38.94 53.45 39.14 52.12 39.24 51.46 C 38.70 52.15 37.61 53.54 37.06 54.24 C 36.05 52.48 35.62 48.85 38.31 48.57 C 40.82 46.87 41.61 50.57 40.37 52.08 C 41.37 52.55 42.37 53.03 43.38 53.48 C 44.72 53.66 46.08 53.78 47.43 53.87 C 45.42 53.19 43.35 52.68 41.29 52.14 C 41.37 50.73 41.44 49.32 41.51 47.91 C 43.91 45.28 45.68 41.22 49.86 41.42 C 49.40 41.05 48.49 40.32 48.03 39.95 C 48.89 39.57 50.60 38.82 51.46 38.44 C 51.25 39.69 51.68 40.67 52.73 41.37 C 52.53 39.15 51.68 37.11 50.71 35.13 C 50.31 35.25 49.50 35.50 49.10 35.62 C 48.99 35.02 48.76 33.82 48.65 33.22 C 46.90 34.93 45.74 37.12 44.56 39.24 C 44.60 37.77 44.06 36.54 42.92 35.56 C 45.10 34.17 47.48 33.14 49.69 31.79 C 49.57 32.49 49.35 33.88 49.24 34.58 C 50.43 33.86 51.63 33.14 52.82 32.42 L 51.76 31.02 M 62.25 32.46 C 62.39 32.94 62.68 33.90 62.83 34.38 C 63.29 34.11 64.22 33.57 64.68 33.30 C 64.28 32.04 63.47 31.76 62.25 32.46 Z" />
<path fill="#000000" opacity="1.00" d=" M 33.05 50.49 C 33.69 51.65 34.17 52.92 34.92 54.03 C 36.83 55.17 38.88 56.17 40.21 58.04 C 40.80 58.16 41.99 58.38 42.58 58.50 C 42.46 60.50 41.12 62.69 42.34 64.58 C 43.34 66.54 45.10 67.88 46.68 69.33 C 47.81 72.38 48.32 75.68 50.20 78.41 C 48.91 77.88 47.63 77.33 46.35 76.80 C 41.16 73.77 36.85 69.07 34.64 63.44 C 34.12 61.77 33.84 60.02 33.11 58.42 C 32.96 55.78 32.96 53.13 33.05 50.49 Z" />
</g>
<g id="#7186b5ff">
<path fill="#7186b5" opacity="1.00" d=" M 33.13 10.22 C 48.73 9.69 64.35 10.17 79.96 9.98 C 88.44 9.74 96.98 12.94 103.09 18.85 C 109.35 24.79 113.07 33.33 113.00 41.97 C 112.94 61.34 113.11 80.70 112.93 100.06 C 112.29 115.99 98.04 129.82 82.10 129.97 C 66.37 129.99 50.63 130.08 34.90 129.93 C 18.96 129.25 5.16 115.00 5.02 99.05 C 4.99 79.70 4.99 60.35 5.02 41.01 C 5.15 25.66 17.89 11.79 33.13 10.22 M 30.54 12.69 C 17.53 15.40 7.21 27.62 7.04 40.95 C 6.97 60.30 6.97 79.64 7.04 98.98 C 7.12 114.27 20.73 127.85 36.01 127.96 C 51.36 128.02 66.71 128.04 82.05 127.95 C 97.30 127.82 110.87 114.26 110.95 99.01 C 111.03 79.66 111.03 60.31 110.95 40.96 C 110.83 26.09 97.93 12.76 83.08 12.10 C 70.38 11.87 57.68 12.06 44.98 12.00 C 40.17 12.08 35.29 11.69 30.54 12.69 Z" />
</g>
<g id="#f8fcf8ff">
<path fill="#f8fcf8" opacity="1.00" d=" M 44.35 31.17 C 52.04 27.12 61.61 26.68 69.57 30.22 C 77.15 33.69 83.02 40.77 84.82 48.94 C 85.71 54.43 85.65 60.29 83.39 65.46 C 79.36 75.41 68.85 82.67 58.00 82.04 C 44.14 82.89 31.10 70.78 30.71 56.94 C 29.64 46.57 35.41 36.31 44.35 31.17 M 51.76 31.02 L 52.82 32.42 C 51.63 33.14 50.43 33.86 49.24 34.58 C 49.35 33.88 49.57 32.49 49.69 31.79 C 47.48 33.14 45.10 34.17 42.92 35.56 C 44.06 36.54 44.60 37.77 44.56 39.24 C 45.74 37.12 46.90 34.93 48.65 33.22 C 48.76 33.82 48.99 35.02 49.10 35.62 C 49.50 35.50 50.31 35.25 50.71 35.13 C 51.68 37.11 52.53 39.15 52.73 41.37 C 51.68 40.67 51.25 39.69 51.46 38.44 C 50.60 38.82 48.89 39.57 48.03 39.95 C 48.49 40.32 49.40 41.05 49.86 41.42 C 45.68 41.22 43.91 45.28 41.51 47.91 C 41.44 49.32 41.37 50.73 41.29 52.14 C 43.35 52.68 45.42 53.19 47.43 53.87 C 46.08 53.78 44.72 53.66 43.38 53.48 C 42.37 53.03 41.37 52.55 40.37 52.08 C 41.61 50.57 40.82 46.87 38.31 48.57 C 35.62 48.85 36.05 52.48 37.06 54.24 C 37.61 53.54 38.70 52.15 39.24 51.46 C 39.14 52.12 38.94 53.45 38.85 54.11 C 40.13 54.94 40.43 56.37 40.62 57.79 C 43.04 57.32 45.59 55.98 47.96 57.37 C 50.06 58.54 52.69 59.25 53.74 61.65 C 55.85 62.44 57.99 63.17 60.10 63.96 C 58.21 66.34 58.37 70.24 55.18 71.42 C 54.13 73.87 51.81 75.78 51.64 78.56 C 53.05 78.77 54.37 79.23 55.60 79.92 C 57.20 79.98 58.80 79.98 60.40 79.92 C 63.36 78.59 66.84 78.61 69.62 76.70 C 70.18 76.46 71.31 75.98 71.87 75.74 C 73.86 70.86 76.60 66.06 76.21 60.62 C 75.78 60.33 74.91 59.76 74.48 59.48 C 73.09 59.68 71.69 59.87 70.29 60.05 C 68.10 57.92 67.18 55.15 67.29 52.12 C 68.59 50.17 69.70 48.10 71.05 46.19 C 72.67 45.74 74.34 45.55 76.00 45.30 C 76.30 46.57 76.99 47.59 78.07 48.36 C 79.51 48.00 80.97 48.37 82.40 48.60 C 81.51 46.51 79.65 45.07 77.30 45.16 C 77.37 44.85 77.52 44.22 77.59 43.91 C 76.85 43.50 75.38 42.68 74.64 42.27 C 73.48 43.42 72.44 44.69 71.24 45.80 C 69.37 45.57 69.68 43.48 69.08 42.24 C 69.78 42.33 71.19 42.51 71.89 42.60 C 70.93 41.49 70.97 39.29 69.44 38.79 C 67.14 39.01 67.94 36.99 67.87 35.72 C 69.31 36.87 70.80 38.06 71.58 39.79 C 71.70 39.16 71.95 37.90 72.08 37.27 C 72.87 37.45 74.44 37.81 75.23 37.99 C 74.39 37.17 73.55 36.34 72.73 35.50 C 70.80 36.41 69.69 35.32 69.48 33.30 C 69.01 33.03 68.06 32.47 67.59 32.20 C 63.63 29.82 58.60 31.45 56.29 35.31 C 54.97 34.22 54.68 32.58 54.57 30.96 C 53.87 30.97 52.46 31.00 51.76 31.02 M 33.05 50.49 C 32.96 53.13 32.96 55.78 33.11 58.42 C 33.84 60.02 34.12 61.77 34.64 63.44 C 36.85 69.07 41.16 73.77 46.35 76.80 C 47.63 77.33 48.91 77.88 50.20 78.41 C 48.32 75.68 47.81 72.38 46.68 69.33 C 45.10 67.88 43.34 66.54 42.34 64.58 C 41.12 62.69 42.46 60.50 42.58 58.50 C 41.99 58.38 40.80 58.16 40.21 58.04 C 38.88 56.17 36.83 55.17 34.92 54.03 C 34.17 52.92 33.69 51.65 33.05 50.49 Z" />
<path fill="#f8fcf8" opacity="1.00" d=" M 62.25 32.46 C 63.47 31.76 64.28 32.04 64.68 33.30 C 64.22 33.57 63.29 34.11 62.83 34.38 C 62.68 33.90 62.39 32.94 62.25 32.46 Z" />
</g>
</svg>
