<?xml version="1.0" encoding="UTF-8" ?>
<!DOCTYPE svg PUBLIC "-//W3C//DTD SVG 1.1//EN" "http://www.w3.org/Graphics/SVG/1.1/DTD/svg11.dtd">
<svg width="117pt" height="140pt" viewBox="0 0 117 140" version="1.1" xmlns="http://www.w3.org/2000/svg">
<g id="#384450ff">
<path fill="#384450" opacity="1.00" d=" M 0.00 0.00 L 117.00 0.00 L 117.00 140.00 L 0.00 140.00 L 0.00 0.00 M 41.20 53.17 C 38.68 54.46 38.64 58.50 41.18 59.79 C 43.13 61.37 45.93 60.11 46.87 58.01 C 48.64 54.84 44.09 50.86 41.20 53.17 M 56.50 53.48 C 54.56 54.94 54.56 58.05 56.49 59.51 C 58.91 62.06 63.44 59.34 62.94 56.07 C 62.69 53.12 58.67 51.20 56.50 53.48 M 72.46 53.35 C 67.78 56.23 73.78 63.44 77.45 59.28 C 81.23 56.36 75.96 50.11 72.46 53.35 Z" />
</g>
<g id="#f8fcf8ff">
<path fill="#f8fcf8" opacity="1.00" d=" M 41.20 53.17 C 44.09 50.86 48.64 54.84 46.87 58.01 C 45.93 60.11 43.13 61.37 41.18 59.79 C 38.64 58.50 38.68 54.46 41.20 53.17 Z" />
<path fill="#f8fcf8" opacity="1.00" d=" M 56.50 53.48 C 58.67 51.20 62.69 53.12 62.94 56.07 C 63.44 59.34 58.91 62.06 56.49 59.51 C 54.56 58.05 54.56 54.94 56.50 53.48 Z" />
<path fill="#f8fcf8" opacity="1.00" d=" M 72.46 53.35 C 75.96 50.11 81.23 56.36 77.45 59.28 C 73.78 63.44 67.78 56.23 72.46 53.35 Z" />
</g>
</svg>
