<?xml version="1.0" encoding="UTF-8" ?>
<!DOCTYPE svg PUBLIC "-//W3C//DTD SVG 1.1//EN" "http://www.w3.org/Graphics/SVG/1.1/DTD/svg11.dtd">
<svg width="117pt" height="140pt" viewBox="0 0 117 140" version="1.1" xmlns="http://www.w3.org/2000/svg">
<g id="#384450ff">
<path fill="#384450" opacity="1.00" d=" M 0.00 0.00 L 117.00 0.00 L 117.00 140.00 L 0.00 140.00 L 0.00 0.00 M 41.19 53.17 C 38.66 54.47 38.65 58.53 41.21 59.81 C 43.18 61.38 46.01 60.07 46.91 57.93 C 48.57 54.75 44.05 50.88 41.19 53.17 M 56.49 53.47 C 54.57 54.97 54.56 58.07 56.52 59.54 C 58.95 62.03 63.40 59.34 62.95 56.09 C 62.70 53.13 58.67 51.22 56.49 53.47 M 72.41 53.39 C 70.23 54.82 70.20 58.23 72.45 59.63 C 74.59 61.73 78.59 59.66 78.69 56.84 C 79.18 53.70 74.77 51.03 72.41 53.39 Z" />
</g>
<g id="#f8fcf8ff">
<path fill="#f8fcf8" opacity="1.00" d=" M 41.19 53.17 C 44.05 50.88 48.57 54.75 46.91 57.93 C 46.01 60.07 43.18 61.38 41.21 59.81 C 38.65 58.53 38.66 54.47 41.19 53.17 Z" />
<path fill="#f8fcf8" opacity="1.00" d=" M 56.49 53.47 C 58.67 51.22 62.70 53.13 62.95 56.09 C 63.40 59.34 58.95 62.03 56.52 59.54 C 54.56 58.07 54.57 54.97 56.49 53.47 Z" />
<path fill="#f8fcf8" opacity="1.00" d=" M 72.41 53.39 C 74.77 51.03 79.18 53.70 78.69 56.84 C 78.59 59.66 74.59 61.73 72.45 59.63 C 70.20 58.23 70.23 54.82 72.41 53.39 Z" />
</g>
</svg>
