<?xml version="1.0" encoding="UTF-8" ?>
<!DOCTYPE svg PUBLIC "-//W3C//DTD SVG 1.1//EN" "http://www.w3.org/Graphics/SVG/1.1/DTD/svg11.dtd">
<svg width="117pt" height="140pt" viewBox="0 0 117 140" version="1.1" xmlns="http://www.w3.org/2000/svg">
<g id="#000000ff">
<path fill="#000000" opacity="1.00" d=" M 0.00 0.00 L 117.00 0.00 L 117.00 140.00 L 0.00 140.00 L 0.00 0.00 M 33.19 10.21 C 17.92 11.76 5.18 25.62 5.01 40.98 C 5.02 60.66 4.93 80.36 5.05 100.04 C 5.72 116.02 20.01 129.85 35.99 129.99 C 51.69 129.97 67.39 130.08 83.08 129.93 C 98.65 129.27 112.27 115.64 112.94 100.08 C 113.09 80.71 112.95 61.33 113.01 41.96 C 113.06 33.30 109.34 24.74 103.05 18.82 C 96.94 12.92 88.41 9.73 79.95 9.98 C 64.36 10.17 48.76 9.71 33.19 10.21 Z" />
<path fill="#000000" opacity="1.00" d=" M 30.56 12.70 C 33.98 11.92 37.51 11.98 40.99 12.00 C 55.00 12.06 69.02 11.89 83.02 12.09 C 97.89 12.75 110.83 26.06 110.96 40.97 C 111.02 60.33 111.03 79.70 110.96 99.07 C 110.82 114.30 97.27 127.83 82.03 127.95 C 66.34 128.01 50.65 128.08 34.96 127.92 C 20.10 127.24 7.19 113.94 7.03 99.05 C 6.98 79.69 6.98 60.32 7.03 40.96 C 7.23 27.62 17.53 15.38 30.56 12.70 M 38.95 41.07 C 36.12 43.96 31.07 45.49 30.53 49.99 C 31.04 54.50 36.11 56.04 38.94 58.92 C 40.77 60.94 43.52 60.63 45.87 59.92 C 46.66 57.35 47.16 54.70 47.05 52.00 C 49.03 52.00 51.02 52.00 53.00 52.00 C 53.00 51.25 53.00 49.75 53.00 49.00 C 51.00 49.00 49.01 49.00 47.02 49.00 C 47.20 45.97 46.80 42.95 45.87 40.07 C 43.52 39.39 40.78 39.04 38.95 41.07 M 73.17 39.99 C 70.50 42.16 71.04 45.95 70.98 49.00 C 68.99 49.00 66.99 49.00 65.00 49.00 C 65.00 49.75 65.00 51.25 65.00 52.00 C 66.99 52.00 68.97 52.00 70.96 52.00 C 71.01 54.72 70.75 58.09 73.16 59.96 C 76.57 61.96 79.35 58.51 81.86 56.71 C 84.07 54.85 87.34 53.34 87.48 50.04 C 87.39 46.67 84.05 45.14 81.81 43.25 C 79.31 41.42 76.59 38.09 73.17 39.99 M 54.00 49.00 C 54.00 49.75 54.00 51.25 54.00 52.00 C 54.75 52.00 56.25 52.00 57.00 52.00 C 57.00 51.25 57.00 49.75 57.00 49.00 C 56.25 49.00 54.75 49.00 54.00 49.00 M 58.00 49.00 C 58.00 49.75 58.00 51.25 58.00 52.00 C 60.00 52.00 62.00 52.00 64.00 52.00 C 64.00 51.25 64.00 49.75 64.00 49.00 C 62.00 49.00 60.00 49.00 58.00 49.00 Z" />
<path fill="#000000" opacity="1.00" d=" M 34.01 50.00 C 37.02 47.74 39.88 45.27 43.00 43.15 C 42.99 47.76 43.03 52.37 42.96 56.97 C 39.99 54.63 36.99 52.32 34.01 50.00 Z" />
<path fill="#000000" opacity="1.00" d=" M 76.00 43.81 C 78.67 45.87 81.33 47.93 83.99 50.00 C 81.33 52.07 78.67 54.13 76.00 56.19 C 76.00 52.06 76.00 47.94 76.00 43.81 Z" />
</g>
<g id="#7185b5ff">
<path fill="#7185b5" opacity="1.00" d=" M 33.19 10.21 C 48.76 9.71 64.36 10.17 79.95 9.98 C 88.41 9.73 96.94 12.92 103.05 18.82 C 109.34 24.74 113.06 33.30 113.01 41.96 C 112.95 61.33 113.09 80.71 112.94 100.08 C 112.27 115.64 98.65 129.27 83.08 129.93 C 67.39 130.08 51.69 129.97 35.99 129.99 C 20.01 129.85 5.72 116.02 5.05 100.04 C 4.93 80.36 5.02 60.66 5.01 40.98 C 5.18 25.62 17.92 11.76 33.19 10.21 M 30.56 12.70 C 17.53 15.38 7.23 27.62 7.03 40.96 C 6.98 60.32 6.98 79.69 7.03 99.05 C 7.19 113.94 20.10 127.24 34.96 127.92 C 50.65 128.08 66.34 128.01 82.03 127.95 C 97.27 127.83 110.82 114.30 110.96 99.07 C 111.03 79.70 111.02 60.33 110.96 40.97 C 110.83 26.06 97.89 12.75 83.02 12.09 C 69.02 11.89 55.00 12.06 40.99 12.00 C 37.51 11.98 33.98 11.92 30.56 12.70 Z" />
</g>
<g id="#f8fcf8ff">
<path fill="#f8fcf8" opacity="1.00" d=" M 38.95 41.07 C 40.78 39.04 43.52 39.39 45.87 40.07 C 46.80 42.95 47.20 45.97 47.02 49.00 C 49.01 49.00 51.00 49.00 53.00 49.00 C 53.00 49.75 53.00 51.25 53.00 52.00 C 51.02 52.00 49.03 52.00 47.05 52.00 C 47.16 54.70 46.66 57.35 45.87 59.92 C 43.52 60.63 40.77 60.94 38.94 58.92 C 36.11 56.04 31.04 54.50 30.53 49.99 C 31.07 45.49 36.12 43.96 38.95 41.07 M 34.01 50.00 C 36.99 52.32 39.99 54.63 42.96 56.97 C 43.03 52.37 42.99 47.76 43.00 43.15 C 39.88 45.27 37.02 47.74 34.01 50.00 Z" />
<path fill="#f8fcf8" opacity="1.00" d=" M 73.17 39.99 C 76.59 38.09 79.31 41.42 81.81 43.25 C 84.05 45.14 87.39 46.67 87.48 50.04 C 87.34 53.34 84.07 54.85 81.86 56.71 C 79.35 58.51 76.57 61.96 73.16 59.96 C 70.75 58.09 71.01 54.72 70.96 52.00 C 68.97 52.00 66.99 52.00 65.00 52.00 C 65.00 51.25 65.00 49.75 65.00 49.00 C 66.99 49.00 68.99 49.00 70.98 49.00 C 71.04 45.95 70.50 42.16 73.17 39.99 M 76.00 43.81 C 76.00 47.94 76.00 52.06 76.00 56.19 C 78.67 54.13 81.33 52.07 83.99 50.00 C 81.33 47.93 78.67 45.87 76.00 43.81 Z" />
<path fill="#f8fcf8" opacity="1.00" d=" M 54.00 49.00 C 54.75 49.00 56.25 49.00 57.00 49.00 C 57.00 49.75 57.00 51.25 57.00 52.00 C 56.25 52.00 54.75 52.00 54.00 52.00 C 54.00 51.25 54.00 49.75 54.00 49.00 Z" />
<path fill="#f8fcf8" opacity="1.00" d=" M 58.00 49.00 C 60.00 49.00 62.00 49.00 64.00 49.00 C 64.00 49.75 64.00 51.25 64.00 52.00 C 62.00 52.00 60.00 52.00 58.00 52.00 C 58.00 51.25 58.00 49.75 58.00 49.00 Z" />
</g>
</svg>
