<?xml version="1.0" encoding="UTF-8" ?>
<!DOCTYPE svg PUBLIC "-//W3C//DTD SVG 1.1//EN" "http://www.w3.org/Graphics/SVG/1.1/DTD/svg11.dtd">
<svg width="117pt" height="140pt" viewBox="0 0 117 140" version="1.1" xmlns="http://www.w3.org/2000/svg">
<g id="#000000ff">
<path fill="#000000" opacity="1.00" d=" M 0.00 0.00 L 117.00 0.00 L 117.00 140.00 L 0.00 140.00 L 0.00 0.00 M 33.20 10.25 C 17.95 11.76 5.22 25.62 5.04 40.95 C 4.97 60.30 4.97 79.64 5.04 98.99 C 5.16 114.95 18.98 129.25 34.93 129.90 C 47.29 130.16 59.67 129.92 72.03 130.00 C 78.96 129.97 86.18 130.54 92.72 127.76 C 105.04 123.07 113.52 110.21 113.00 97.03 C 112.98 78.68 113.03 60.33 112.98 41.99 C 113.09 30.91 106.89 20.11 97.34 14.52 C 91.58 10.98 84.71 9.73 78.02 9.98 C 63.09 10.19 48.12 9.65 33.20 10.25 Z" />
<path fill="#000000" opacity="1.00" d=" M 33.26 12.30 C 45.15 11.73 57.08 12.21 68.98 12.05 C 76.87 12.27 85.18 11.05 92.61 14.39 C 103.49 18.84 111.15 30.19 110.93 41.99 C 110.94 61.02 111.02 80.05 110.89 99.08 C 110.81 114.29 97.27 127.79 82.07 127.88 C 66.71 128.00 51.34 127.98 35.97 127.90 C 20.75 127.81 7.20 114.29 7.10 99.07 C 7.01 79.70 7.02 60.33 7.10 40.97 C 7.23 26.70 19.09 13.76 33.26 12.30 M 35.00 34.00 C 34.69 47.68 34.96 61.37 34.86 75.05 C 34.90 77.63 34.66 80.25 35.20 82.79 C 36.34 83.16 39.10 83.83 39.05 81.87 C 39.54 75.93 39.12 69.95 39.26 64.00 C 43.59 64.00 47.92 64.00 52.26 64.00 C 52.54 70.35 51.61 76.82 52.85 83.09 C 54.55 84.21 57.02 83.13 56.80 80.98 C 57.12 74.54 56.87 68.08 56.89 61.64 C 57.78 60.92 58.80 60.45 59.95 60.21 L 60.25 62.57 C 61.04 61.29 61.83 60.01 62.63 58.74 C 61.99 57.58 61.36 56.43 60.76 55.25 C 59.89 56.25 58.79 56.90 57.48 57.21 C 57.23 57.19 58.17 61.10 57.19 59.03 C 56.68 50.70 57.15 42.35 56.81 34.02 C 55.33 34.03 53.85 34.04 52.37 34.11 C 52.13 40.51 52.31 46.92 52.25 53.32 C 47.92 53.33 43.59 53.33 39.26 53.32 C 39.18 46.88 39.47 40.43 39.03 34.00 C 37.69 34.00 36.34 34.00 35.00 34.00 M 63.19 34.02 C 62.95 49.39 63.05 64.77 63.13 80.14 C 62.68 82.47 64.94 84.50 67.12 83.13 C 67.96 80.15 67.72 77.03 67.75 73.97 C 67.66 60.69 67.88 47.40 67.64 34.12 C 66.16 34.04 64.67 34.02 63.19 34.02 M 80.97 34.00 C 80.46 46.66 80.88 59.34 80.74 72.00 C 80.86 75.61 80.37 79.29 81.17 82.84 C 82.40 83.32 83.62 83.29 84.84 82.75 C 85.33 80.19 85.10 77.58 85.14 75.00 C 85.04 61.33 85.31 47.66 85.00 34.00 C 83.65 34.00 82.31 34.00 80.97 34.00 M 70.11 40.00 C 70.11 52.44 70.11 64.89 70.11 77.33 C 70.79 77.33 72.15 77.32 72.83 77.31 C 72.84 64.88 72.83 52.44 72.83 40.00 C 72.15 40.00 70.79 40.00 70.11 40.00 M 75.53 40.00 C 75.53 52.44 75.53 64.89 75.53 77.33 C 76.20 77.33 77.55 77.32 78.23 77.32 C 78.23 64.88 78.23 52.44 78.23 40.00 C 77.55 40.00 76.20 40.00 75.53 40.00 Z" />
<path fill="#000000" opacity="1.00" d=" M 39.65 57.32 C 43.56 57.33 47.48 57.33 51.40 57.31 C 51.36 57.98 51.28 59.33 51.24 60.00 C 47.42 60.00 43.60 60.00 39.79 60.00 C 39.75 59.33 39.68 57.99 39.65 57.32 Z" />
</g>
<g id="#788cc0ff">
<path fill="#788cc0" opacity="1.00" d=" M 33.20 10.25 C 48.12 9.65 63.09 10.19 78.02 9.98 C 84.71 9.73 91.58 10.98 97.34 14.52 C 106.89 20.11 113.09 30.91 112.98 41.99 C 113.03 60.33 112.98 78.68 113.00 97.03 C 113.52 110.21 105.04 123.07 92.72 127.76 C 86.18 130.54 78.96 129.97 72.03 130.00 C 59.67 129.92 47.29 130.16 34.93 129.90 C 18.98 129.25 5.16 114.95 5.04 98.99 C 4.97 79.64 4.97 60.30 5.04 40.95 C 5.22 25.62 17.95 11.76 33.20 10.25 M 33.26 12.30 C 19.09 13.76 7.23 26.70 7.10 40.97 C 7.02 60.33 7.01 79.70 7.10 99.07 C 7.20 114.29 20.75 127.81 35.97 127.90 C 51.34 127.98 66.71 128.00 82.07 127.88 C 97.27 127.79 110.81 114.29 110.89 99.08 C 111.02 80.05 110.94 61.02 110.93 41.99 C 111.15 30.19 103.49 18.84 92.61 14.39 C 85.18 11.05 76.87 12.27 68.98 12.05 C 57.08 12.21 45.15 11.73 33.26 12.30 Z" />
</g>
<g id="#f8fcf8ff">
<path fill="#f8fcf8" opacity="1.00" d=" M 35.00 34.00 C 36.34 34.00 37.69 34.00 39.03 34.00 C 39.47 40.43 39.18 46.88 39.26 53.32 C 43.59 53.33 47.92 53.33 52.25 53.32 C 52.31 46.92 52.13 40.51 52.37 34.11 C 53.85 34.04 55.33 34.03 56.81 34.02 C 57.15 42.35 56.68 50.70 57.19 59.03 C 58.17 61.10 57.23 57.19 57.48 57.21 C 58.79 56.90 59.89 56.25 60.76 55.25 C 61.36 56.43 61.99 57.58 62.63 58.74 C 61.83 60.01 61.04 61.29 60.25 62.57 L 59.95 60.21 C 58.80 60.45 57.78 60.92 56.89 61.64 C 56.87 68.08 57.12 74.54 56.80 80.98 C 57.02 83.13 54.55 84.21 52.85 83.09 C 51.61 76.82 52.54 70.35 52.26 64.00 C 47.92 64.00 43.59 64.00 39.26 64.00 C 39.12 69.95 39.54 75.93 39.05 81.87 C 39.10 83.83 36.34 83.16 35.20 82.79 C 34.66 80.25 34.90 77.63 34.86 75.05 C 34.96 61.37 34.69 47.68 35.00 34.00 M 39.65 57.32 C 39.68 57.99 39.75 59.33 39.79 60.00 C 43.60 60.00 47.42 60.00 51.24 60.00 C 51.28 59.33 51.36 57.98 51.40 57.31 C 47.48 57.33 43.56 57.33 39.65 57.32 Z" />
<path fill="#f8fcf8" opacity="1.00" d=" M 63.19 34.02 C 64.67 34.02 66.16 34.04 67.64 34.12 C 67.88 47.40 67.66 60.69 67.75 73.97 C 67.72 77.03 67.96 80.15 67.12 83.13 C 64.94 84.50 62.68 82.47 63.13 80.14 C 63.05 64.77 62.95 49.39 63.19 34.02 Z" />
<path fill="#f8fcf8" opacity="1.00" d=" M 80.97 34.00 C 82.31 34.00 83.65 34.00 85.00 34.00 C 85.31 47.66 85.04 61.33 85.14 75.00 C 85.10 77.58 85.33 80.19 84.84 82.75 C 83.62 83.29 82.40 83.32 81.17 82.84 C 80.37 79.29 80.86 75.61 80.74 72.00 C 80.88 59.34 80.46 46.66 80.97 34.00 Z" />
<path fill="#f8fcf8" opacity="1.00" d=" M 70.11 40.00 C 70.79 40.00 72.15 40.00 72.83 40.00 C 72.83 52.44 72.84 64.88 72.83 77.31 C 72.15 77.32 70.79 77.33 70.11 77.33 C 70.11 64.89 70.11 52.44 70.11 40.00 Z" />
<path fill="#f8fcf8" opacity="1.00" d=" M 75.53 40.00 C 76.20 40.00 77.55 40.00 78.23 40.00 C 78.23 52.44 78.23 64.88 78.23 77.32 C 77.55 77.32 76.20 77.33 75.53 77.33 C 75.53 64.89 75.53 52.44 75.53 40.00 Z" />
</g>
</svg>
