<?xml version="1.0" encoding="UTF-8" ?>
<!DOCTYPE svg PUBLIC "-//W3C//DTD SVG 1.1//EN" "http://www.w3.org/Graphics/SVG/1.1/DTD/svg11.dtd">
<svg width="117pt" height="140pt" viewBox="0 0 117 140" version="1.1" xmlns="http://www.w3.org/2000/svg">
<g id="#000000ff">
<path fill="#000000" opacity="1.00" d=" M 0.00 0.00 L 117.00 0.00 L 117.00 140.00 L 0.00 140.00 L 0.00 0.00 M 33.18 10.25 C 17.93 11.78 5.21 25.63 5.04 40.97 C 4.97 60.31 4.97 79.67 5.04 99.01 C 5.17 114.98 19.00 129.26 34.95 129.90 C 49.62 130.14 64.30 129.92 78.97 130.01 C 84.40 130.13 89.93 129.28 94.82 126.83 C 105.73 121.73 113.14 110.04 112.98 97.98 C 113.01 79.30 113.02 60.62 112.98 41.94 C 113.08 30.91 106.91 20.15 97.42 14.57 C 91.93 11.20 85.42 9.80 79.02 9.98 C 63.74 10.18 48.44 9.66 33.18 10.25 Z" />
<path fill="#000000" opacity="1.00" d=" M 33.26 12.30 C 45.16 11.73 57.10 12.20 69.02 12.05 C 77.13 12.27 85.74 11.00 93.30 14.70 C 103.81 19.31 111.11 30.41 110.92 41.92 C 110.94 60.95 111.01 79.99 110.89 99.03 C 110.84 114.27 97.26 127.82 82.03 127.89 C 66.69 128.00 51.35 127.97 36.01 127.90 C 20.77 127.83 7.19 114.30 7.10 99.06 C 7.02 79.69 7.02 60.32 7.10 40.95 C 7.23 26.69 19.10 13.77 33.26 12.30 M 46.05 28.20 C 46.13 34.02 46.09 39.85 46.10 45.67 C 43.76 45.68 41.43 45.68 39.09 45.71 C 39.46 50.53 38.64 55.46 39.55 60.21 C 42.16 62.83 46.24 61.29 49.51 61.63 C 52.50 64.50 55.40 67.46 58.41 70.32 C 54.72 70.33 51.03 70.30 47.35 70.34 C 47.38 72.90 47.39 75.45 47.35 78.00 C 53.23 78.01 59.12 77.98 65.00 78.01 C 67.50 77.98 70.13 78.34 72.44 77.12 C 71.16 76.04 69.62 75.42 67.93 75.66 C 62.00 75.67 56.06 75.69 50.12 75.67 C 50.08 75.04 50.01 73.76 49.97 73.13 C 53.57 72.93 57.17 72.93 60.77 73.05 C 60.79 72.33 60.83 70.88 60.85 70.16 C 63.67 67.33 66.53 64.55 69.33 61.70 C 72.66 61.18 77.47 63.12 79.62 59.72 C 80.15 55.08 79.64 50.37 79.91 45.71 C 77.57 45.68 75.24 45.68 72.90 45.67 C 72.91 39.84 72.88 34.02 72.95 28.19 C 63.98 28.15 55.01 28.14 46.05 28.20 Z" />
<path fill="#000000" opacity="1.00" d=" M 48.75 31.05 C 55.92 30.94 63.08 30.93 70.25 31.05 C 70.23 36.79 70.34 42.54 70.16 48.29 C 72.43 48.32 74.70 48.32 76.96 48.35 C 76.93 51.87 76.92 55.39 76.96 58.92 C 65.32 59.05 53.68 59.13 42.04 58.91 C 42.08 55.39 42.07 51.86 42.04 48.33 C 48.77 48.28 55.50 48.34 62.22 48.32 C 62.22 47.66 62.22 46.34 62.22 45.68 C 57.73 45.68 53.23 45.67 48.74 45.70 C 48.74 43.91 48.74 42.12 48.73 40.33 C 53.23 40.32 57.72 40.32 62.22 40.32 C 62.22 39.66 62.22 38.34 62.22 37.68 C 57.73 37.68 53.23 37.66 48.73 37.70 C 48.74 35.48 48.74 33.27 48.75 31.05 M 57.57 53.06 C 58.93 51.93 60.31 50.72 62.21 50.77 C 61.99 53.73 58.75 54.78 57.66 57.32 C 59.41 57.38 61.17 57.40 62.93 57.42 C 62.96 57.16 63.01 56.63 63.04 56.37 C 62.04 56.36 60.03 56.35 59.03 56.35 C 60.80 54.95 64.06 53.30 62.57 50.52 C 60.25 49.11 58.11 50.68 57.57 53.06 Z" />
<path fill="#000000" opacity="1.00" d=" M 53.17 61.69 C 57.39 61.66 61.61 61.66 65.83 61.69 C 63.68 63.69 61.57 65.74 59.51 67.82 C 57.43 65.74 55.32 63.69 53.17 61.69 Z" />
</g>
<g id="#788cc0ff">
<path fill="#788cc0" opacity="1.00" d=" M 33.18 10.25 C 48.44 9.66 63.74 10.18 79.02 9.98 C 85.42 9.80 91.93 11.20 97.42 14.57 C 106.91 20.15 113.08 30.91 112.98 41.94 C 113.02 60.62 113.01 79.30 112.98 97.98 C 113.14 110.04 105.73 121.73 94.82 126.83 C 89.93 129.28 84.40 130.13 78.97 130.01 C 64.30 129.92 49.62 130.14 34.95 129.90 C 19.00 129.26 5.17 114.98 5.04 99.01 C 4.97 79.67 4.97 60.31 5.04 40.97 C 5.21 25.63 17.93 11.78 33.18 10.25 M 33.26 12.30 C 19.10 13.77 7.23 26.69 7.10 40.95 C 7.02 60.32 7.02 79.69 7.10 99.06 C 7.19 114.30 20.77 127.83 36.01 127.90 C 51.35 127.97 66.69 128.00 82.03 127.89 C 97.26 127.82 110.84 114.27 110.89 99.03 C 111.01 79.99 110.94 60.95 110.92 41.92 C 111.11 30.41 103.81 19.31 93.30 14.70 C 85.74 11.00 77.13 12.27 69.02 12.05 C 57.10 12.20 45.16 11.73 33.26 12.30 Z" />
</g>
<g id="#f8fcf8ff">
<path fill="#f8fcf8" opacity="1.00" d=" M 46.05 28.20 C 55.01 28.14 63.98 28.15 72.95 28.19 C 72.88 34.02 72.91 39.84 72.90 45.67 C 75.24 45.68 77.57 45.68 79.91 45.71 C 79.64 50.37 80.15 55.08 79.62 59.72 C 77.47 63.12 72.66 61.18 69.33 61.70 C 66.53 64.55 63.67 67.33 60.85 70.16 C 60.83 70.88 60.79 72.33 60.77 73.05 C 57.17 72.93 53.57 72.93 49.97 73.13 C 50.01 73.76 50.08 75.04 50.12 75.67 C 56.06 75.69 62.00 75.67 67.93 75.66 C 69.62 75.42 71.16 76.04 72.44 77.12 C 70.13 78.34 67.50 77.98 65.00 78.01 C 59.12 77.98 53.23 78.01 47.35 78.00 C 47.39 75.45 47.38 72.90 47.35 70.34 C 51.03 70.30 54.72 70.33 58.41 70.32 C 55.40 67.46 52.50 64.50 49.51 61.63 C 46.24 61.29 42.16 62.83 39.55 60.21 C 38.64 55.46 39.46 50.53 39.09 45.71 C 41.43 45.68 43.76 45.68 46.10 45.67 C 46.09 39.85 46.13 34.02 46.05 28.20 M 48.75 31.05 C 48.74 33.27 48.74 35.48 48.73 37.70 C 53.23 37.66 57.73 37.68 62.22 37.68 C 62.22 38.34 62.22 39.66 62.22 40.32 C 57.72 40.32 53.23 40.32 48.73 40.33 C 48.74 42.12 48.74 43.91 48.74 45.70 C 53.23 45.67 57.73 45.68 62.22 45.68 C 62.22 46.34 62.22 47.66 62.22 48.32 C 55.50 48.34 48.77 48.28 42.04 48.33 C 42.07 51.86 42.08 55.39 42.04 58.91 C 53.68 59.13 65.32 59.05 76.96 58.92 C 76.92 55.39 76.93 51.87 76.96 48.35 C 74.70 48.32 72.43 48.32 70.16 48.29 C 70.34 42.54 70.23 36.79 70.25 31.05 C 63.08 30.93 55.92 30.94 48.75 31.05 M 53.17 61.69 C 55.32 63.69 57.43 65.74 59.51 67.82 C 61.57 65.74 63.68 63.69 65.83 61.69 C 61.61 61.66 57.39 61.66 53.17 61.69 Z" />
<path fill="#f8fcf8" opacity="1.00" d=" M 57.57 53.06 C 58.11 50.68 60.25 49.11 62.57 50.52 C 64.06 53.30 60.80 54.95 59.03 56.35 C 60.03 56.35 62.04 56.36 63.04 56.37 C 63.01 56.63 62.96 57.16 62.93 57.42 C 61.17 57.40 59.41 57.38 57.66 57.32 C 58.75 54.78 61.99 53.73 62.21 50.77 C 60.31 50.72 58.93 51.93 57.57 53.06 Z" />
</g>
</svg>
