<?xml version="1.0" encoding="UTF-8" ?>
<!DOCTYPE svg PUBLIC "-//W3C//DTD SVG 1.1//EN" "http://www.w3.org/Graphics/SVG/1.1/DTD/svg11.dtd">
<svg width="117pt" height="140pt" viewBox="0 0 117 140" version="1.1" xmlns="http://www.w3.org/2000/svg">
<g id="#000000ff">
<path fill="#000000" opacity="1.00" d=" M 0.00 0.00 L 117.00 0.00 L 117.00 140.00 L 0.00 140.00 L 0.00 0.00 M 29.45 10.66 C 15.35 13.40 4.17 26.62 4.01 41.01 C 3.99 60.35 3.99 79.69 4.01 99.04 C 4.15 115.01 18.00 129.28 33.95 129.94 C 49.99 130.04 66.04 130.06 82.08 129.93 C 98.01 129.27 111.84 115.01 111.98 99.07 C 112.02 79.72 112.01 60.36 111.98 41.01 C 111.89 25.02 98.02 10.72 82.05 10.07 C 69.39 9.89 56.73 10.06 44.07 10.00 C 39.20 10.06 34.26 9.65 29.45 10.66 Z" />
<path fill="#000000" opacity="1.00" d=" M 29.52 12.70 C 33.61 11.79 37.82 12.04 41.98 12.00 C 55.01 12.03 68.04 11.95 81.07 12.04 C 92.00 12.27 102.38 19.16 107.04 29.03 C 109.41 33.64 110.12 38.89 110.00 44.02 C 109.93 62.70 110.14 81.38 109.90 100.05 C 109.28 115.31 95.24 128.37 79.99 127.98 C 64.65 127.97 49.30 128.10 33.96 127.91 C 19.09 127.25 6.17 113.93 6.04 99.04 C 5.97 79.69 5.98 60.33 6.04 40.98 C 6.21 27.64 16.51 15.42 29.52 12.70 M 37.61 42.00 C 37.60 50.67 37.60 59.33 37.61 68.00 C 44.87 68.00 52.13 68.00 59.39 68.00 C 59.40 66.00 59.37 64.00 59.39 62.00 C 55.04 61.98 50.70 62.06 46.36 61.92 C 46.34 60.66 46.32 59.41 46.28 58.15 C 49.84 57.92 53.43 57.98 57.00 58.01 C 57.00 55.88 57.00 53.74 57.00 51.61 C 53.46 51.61 49.92 51.60 46.38 51.62 C 46.39 50.54 46.39 49.46 46.38 48.38 C 50.59 48.40 54.79 48.39 59.00 48.39 C 59.00 46.26 59.00 44.13 59.00 42.00 C 51.87 42.00 44.74 42.00 37.61 42.00 M 62.34 54.95 C 63.64 60.36 69.79 60.43 74.01 62.13 C 75.21 64.79 71.50 64.43 69.99 64.16 C 69.80 63.61 69.42 62.51 69.23 61.96 C 66.76 62.01 64.29 62.00 61.83 62.11 C 62.56 67.35 68.46 68.81 72.94 68.37 C 76.44 68.16 81.08 67.04 81.78 62.97 C 82.63 59.33 78.94 57.10 75.92 56.45 C 73.78 55.54 70.48 55.88 69.68 53.17 C 70.53 53.08 72.24 52.89 73.10 52.79 C 73.43 53.25 74.09 54.16 74.43 54.61 C 76.66 54.60 78.89 54.63 81.12 54.62 C 80.97 52.16 79.42 49.90 76.95 49.33 C 71.73 47.42 63.44 48.31 62.34 54.95 Z" />
</g>
<g id="#6a84bcff">
<path fill="#6a84bc" opacity="1.00" d=" M 29.45 10.66 C 34.26 9.65 39.20 10.06 44.07 10.00 C 56.73 10.06 69.39 9.89 82.05 10.07 C 98.02 10.72 111.89 25.02 111.98 41.01 C 112.01 60.36 112.02 79.72 111.98 99.07 C 111.84 115.01 98.01 129.27 82.08 129.93 C 66.04 130.06 49.99 130.04 33.95 129.94 C 18.00 129.28 4.15 115.01 4.01 99.04 C 3.99 79.69 3.99 60.35 4.01 41.01 C 4.17 26.62 15.35 13.40 29.45 10.66 M 29.52 12.70 C 16.51 15.42 6.21 27.64 6.04 40.98 C 5.98 60.33 5.97 79.69 6.04 99.04 C 6.17 113.93 19.09 127.25 33.96 127.91 C 49.30 128.10 64.65 127.97 79.99 127.98 C 95.24 128.37 109.28 115.31 109.90 100.05 C 110.14 81.38 109.93 62.70 110.00 44.02 C 110.12 38.89 109.41 33.64 107.04 29.03 C 102.38 19.16 92.00 12.27 81.07 12.04 C 68.04 11.95 55.01 12.03 41.98 12.00 C 37.82 12.04 33.61 11.79 29.52 12.70 Z" />
</g>
<g id="#10ec50ff">
<path fill="#10ec50" opacity="1.00" d=" M 37.61 42.00 C 44.74 42.00 51.87 42.00 59.00 42.00 C 59.00 44.13 59.00 46.26 59.00 48.39 C 54.79 48.39 50.59 48.40 46.38 48.38 C 46.39 49.46 46.39 50.54 46.38 51.62 C 49.92 51.60 53.46 51.61 57.00 51.61 C 57.00 53.74 57.00 55.88 57.00 58.01 C 53.43 57.98 49.84 57.92 46.28 58.15 C 46.32 59.41 46.34 60.66 46.36 61.92 C 50.70 62.06 55.04 61.98 59.39 62.00 C 59.37 64.00 59.40 66.00 59.39 68.00 C 52.13 68.00 44.87 68.00 37.61 68.00 C 37.60 59.33 37.60 50.67 37.61 42.00 Z" />
<path fill="#10ec50" opacity="1.00" d=" M 62.34 54.95 C 63.44 48.31 71.73 47.42 76.95 49.33 C 79.42 49.90 80.97 52.16 81.12 54.62 C 78.89 54.63 76.66 54.60 74.43 54.61 C 74.09 54.16 73.43 53.25 73.10 52.79 C 72.24 52.89 70.53 53.08 69.68 53.17 C 70.48 55.88 73.78 55.54 75.92 56.45 C 78.94 57.10 82.63 59.33 81.78 62.97 C 81.08 67.04 76.44 68.16 72.94 68.37 C 68.46 68.81 62.56 67.35 61.83 62.11 C 64.29 62.00 66.76 62.01 69.23 61.96 C 69.42 62.51 69.80 63.61 69.99 64.16 C 71.50 64.43 75.21 64.79 74.01 62.13 C 69.79 60.43 63.64 60.36 62.34 54.95 Z" />
</g>
</svg>
