<?xml version="1.0" encoding="UTF-8" ?>
<!DOCTYPE svg PUBLIC "-//W3C//DTD SVG 1.1//EN" "http://www.w3.org/Graphics/SVG/1.1/DTD/svg11.dtd">
<svg width="117pt" height="140pt" viewBox="0 0 117 140" version="1.1" xmlns="http://www.w3.org/2000/svg">
<g id="#000000ff">
<path fill="#000000" opacity="1.00" d=" M 0.00 0.00 L 117.00 0.00 L 117.00 140.00 L 0.00 140.00 L 0.00 0.00 M 33.16 10.25 C 17.92 11.79 5.21 25.65 5.04 40.98 C 4.95 60.00 5.02 79.02 5.01 98.05 C 4.97 106.91 8.88 115.66 15.44 121.60 C 21.48 127.20 29.74 130.20 37.96 130.01 C 53.01 129.91 68.06 130.15 83.11 129.89 C 99.03 129.24 112.83 114.96 112.95 99.03 C 113.06 80.02 112.99 61.01 112.98 42.00 C 113.10 30.94 106.91 20.14 97.38 14.55 C 91.89 11.19 85.38 9.79 78.98 9.99 C 63.71 10.18 48.42 9.66 33.16 10.25 Z" />
<path fill="#000000" opacity="1.00" d=" M 33.22 12.30 C 49.13 11.74 65.08 12.18 81.00 12.07 C 92.29 11.90 103.23 18.83 108.00 29.05 C 110.40 33.64 111.04 38.87 110.96 43.99 C 110.90 62.34 111.04 80.69 110.89 99.04 C 110.84 114.27 97.26 127.82 82.04 127.88 C 66.68 128.00 51.32 127.97 35.97 127.90 C 20.75 127.80 7.20 114.30 7.10 99.07 C 7.02 79.70 7.02 60.32 7.10 40.94 C 7.23 26.69 19.08 13.79 33.22 12.30 M 46.09 30.10 C 46.16 35.69 46.13 41.28 46.12 46.86 C 43.96 46.87 41.81 46.86 39.65 46.87 C 39.64 52.06 39.67 57.26 39.62 62.45 C 42.93 62.46 46.24 62.44 49.54 62.49 C 52.47 65.37 55.13 68.53 58.38 71.05 C 57.31 73.00 57.81 75.24 57.81 77.35 C 52.38 77.42 46.95 77.39 41.51 77.37 C 41.56 75.68 41.61 73.99 41.66 72.30 C 41.02 72.25 39.73 72.17 39.09 72.13 C 39.30 74.65 37.97 78.59 41.00 79.81 C 51.65 80.13 62.33 79.82 73.00 79.96 C 74.52 79.87 76.13 80.15 77.58 79.58 C 79.86 77.85 78.70 74.58 78.92 72.14 C 78.28 72.18 76.99 72.25 76.34 72.29 C 76.39 73.98 76.44 75.68 76.49 77.37 C 71.06 77.39 65.62 77.42 60.19 77.36 C 60.18 75.25 60.70 72.99 59.61 71.05 C 62.88 68.54 65.53 65.34 68.49 62.48 C 71.79 62.44 75.08 62.46 78.38 62.45 C 78.33 57.26 78.36 52.06 78.35 46.87 C 76.19 46.86 74.03 46.87 71.88 46.86 C 71.87 41.28 71.84 35.69 71.92 30.10 C 63.31 30.04 54.69 30.04 46.09 30.10 Z" />
<path fill="#000000" opacity="1.00" d=" M 48.65 32.62 C 55.55 32.61 62.45 32.61 69.35 32.62 C 69.26 38.22 69.43 43.82 69.21 49.43 C 71.41 49.47 73.62 49.49 75.82 49.49 C 75.77 52.93 75.76 56.37 75.82 59.81 C 64.61 59.86 53.39 59.87 42.17 59.80 C 42.24 56.37 42.24 52.93 42.16 49.50 C 48.71 49.43 55.26 49.54 61.81 49.44 C 61.67 48.56 61.55 47.68 61.45 46.80 C 57.20 46.91 52.95 46.86 48.70 46.87 C 48.68 45.14 48.67 43.41 48.65 41.68 C 52.99 41.57 57.36 42.03 61.67 41.46 C 61.68 40.88 61.69 39.73 61.70 39.15 C 57.36 39.11 53.02 39.12 48.69 39.16 C 48.68 36.98 48.67 34.80 48.65 32.62 Z" />
<path fill="#000000" opacity="1.00" d=" M 52.99 62.54 C 57.00 62.39 61.02 62.38 65.03 62.56 C 62.99 64.52 60.94 66.47 59.00 68.53 C 57.06 66.47 55.01 64.52 52.99 62.54 Z" />
</g>
<g id="#788cc0ff">
<path fill="#788cc0" opacity="1.00" d=" M 33.16 10.25 C 48.42 9.66 63.71 10.18 78.98 9.99 C 85.38 9.79 91.89 11.19 97.38 14.55 C 106.91 20.14 113.10 30.94 112.98 42.00 C 112.99 61.01 113.06 80.02 112.95 99.03 C 112.83 114.96 99.03 129.24 83.11 129.89 C 68.06 130.15 53.01 129.91 37.96 130.01 C 29.74 130.20 21.48 127.20 15.44 121.60 C 8.88 115.66 4.97 106.91 5.01 98.05 C 5.02 79.02 4.95 60.00 5.04 40.98 C 5.21 25.65 17.92 11.79 33.16 10.25 M 33.22 12.30 C 19.08 13.79 7.23 26.69 7.10 40.94 C 7.02 60.32 7.02 79.70 7.10 99.07 C 7.20 114.30 20.75 127.80 35.97 127.90 C 51.32 127.97 66.68 128.00 82.04 127.88 C 97.26 127.82 110.84 114.27 110.89 99.04 C 111.04 80.69 110.90 62.34 110.96 43.99 C 111.04 38.87 110.40 33.64 108.00 29.05 C 103.23 18.83 92.29 11.90 81.00 12.07 C 65.08 12.18 49.13 11.74 33.22 12.30 Z" />
</g>
<g id="#f8fcf8ff">
<path fill="#f8fcf8" opacity="1.00" d=" M 46.09 30.10 C 54.69 30.04 63.31 30.04 71.92 30.10 C 71.84 35.69 71.87 41.28 71.88 46.86 C 74.03 46.87 76.19 46.86 78.35 46.87 C 78.36 52.06 78.33 57.26 78.38 62.45 C 75.08 62.46 71.79 62.44 68.49 62.48 C 65.53 65.34 62.88 68.54 59.61 71.05 C 60.70 72.99 60.18 75.25 60.19 77.36 C 65.62 77.42 71.06 77.39 76.49 77.37 C 76.44 75.68 76.39 73.98 76.34 72.29 C 76.99 72.25 78.28 72.18 78.92 72.14 C 78.70 74.58 79.86 77.85 77.58 79.58 C 76.13 80.15 74.52 79.87 73.00 79.96 C 62.33 79.82 51.65 80.13 41.00 79.81 C 37.97 78.59 39.30 74.65 39.09 72.13 C 39.73 72.17 41.02 72.25 41.66 72.30 C 41.61 73.99 41.56 75.68 41.51 77.37 C 46.95 77.39 52.38 77.42 57.81 77.35 C 57.81 75.24 57.31 73.00 58.38 71.05 C 55.13 68.53 52.47 65.37 49.54 62.49 C 46.24 62.44 42.93 62.46 39.62 62.45 C 39.67 57.26 39.64 52.06 39.65 46.87 C 41.81 46.86 43.96 46.87 46.12 46.86 C 46.13 41.28 46.16 35.69 46.09 30.10 M 48.65 32.62 C 48.67 34.80 48.68 36.98 48.69 39.16 C 53.02 39.12 57.36 39.11 61.70 39.15 C 61.69 39.73 61.68 40.88 61.67 41.46 C 57.36 42.03 52.99 41.57 48.65 41.68 C 48.67 43.41 48.68 45.14 48.70 46.87 C 52.95 46.86 57.20 46.91 61.45 46.80 C 61.55 47.68 61.67 48.56 61.81 49.44 C 55.26 49.54 48.71 49.43 42.16 49.50 C 42.24 52.93 42.24 56.37 42.17 59.80 C 53.39 59.87 64.61 59.86 75.82 59.81 C 75.76 56.37 75.77 52.93 75.82 49.49 C 73.62 49.49 71.41 49.47 69.21 49.43 C 69.43 43.82 69.26 38.22 69.35 32.62 C 62.45 32.61 55.55 32.61 48.65 32.62 M 52.99 62.54 C 55.01 64.52 57.06 66.47 59.00 68.53 C 60.94 66.47 62.99 64.52 65.03 62.56 C 61.02 62.38 57.00 62.39 52.99 62.54 Z" />
</g>
</svg>
