<?xml version="1.0" encoding="UTF-8" ?>
<!DOCTYPE svg PUBLIC "-//W3C//DTD SVG 1.1//EN" "http://www.w3.org/Graphics/SVG/1.1/DTD/svg11.dtd">
<svg width="117pt" height="92pt" viewBox="0 0 117 92" version="1.1" xmlns="http://www.w3.org/2000/svg">
<g id="#000000ff">
<path fill="#000000" opacity="1.00" d=" M 0.00 0.00 L 117.00 0.00 L 117.00 92.00 L 0.00 92.00 L 0.00 0.00 M 30.53 8.73 C 19.36 10.66 9.40 18.95 5.97 29.84 C 3.60 36.30 4.45 43.25 4.28 49.98 C 4.12 57.40 6.49 64.96 11.21 70.72 C 17.06 78.18 26.45 82.79 35.94 82.69 C 50.64 82.70 65.34 82.73 80.04 82.68 C 88.11 82.64 96.06 79.49 101.99 74.03 C 108.06 68.01 111.74 59.59 111.69 51.01 C 111.53 44.19 112.31 37.19 110.27 30.57 C 106.51 17.99 94.20 8.48 81.01 8.36 C 68.35 8.29 55.68 8.40 43.01 8.30 C 38.85 8.33 34.66 8.07 30.53 8.73 Z" />
<path fill="#000000" opacity="1.00" d=" M 6.71 31.98 C 10.06 19.54 21.99 9.92 34.94 9.66 C 49.95 9.65 64.97 9.66 79.99 9.64 C 90.14 9.51 100.08 15.06 105.44 23.66 C 107.84 27.03 108.97 31.06 110.27 34.93 C 109.92 44.39 111.94 54.45 107.70 63.32 C 103.93 72.15 95.57 78.76 86.21 80.70 C 82.24 81.69 78.12 81.28 74.08 81.33 C 59.68 81.33 45.27 81.31 30.87 81.32 C 23.50 79.22 16.23 75.56 11.76 69.11 C 7.66 63.67 5.34 56.84 5.67 50.01 C 5.90 44.00 5.04 37.84 6.71 31.98 M 55.87 30.46 C 53.55 34.10 49.24 35.49 45.94 38.00 C 43.04 40.18 39.86 41.93 36.76 43.79 C 36.46 44.76 36.24 45.75 36.09 46.76 C 41.81 49.54 46.85 53.44 52.20 56.84 C 54.07 58.16 56.32 59.23 57.29 61.44 C 58.60 61.46 59.91 61.48 61.22 61.50 C 61.21 58.02 61.25 54.55 61.47 51.09 C 66.52 50.83 71.40 52.58 75.32 55.72 C 78.29 57.33 77.99 61.76 81.45 62.86 C 81.63 60.14 81.79 57.42 81.70 54.69 C 80.18 52.64 79.34 50.19 77.99 48.04 C 74.91 44.24 70.91 40.70 65.85 40.10 C 64.33 39.57 61.70 40.06 61.32 37.94 C 61.07 35.25 61.31 32.53 61.29 29.83 C 59.48 30.04 57.68 30.26 55.87 30.46 Z" />
</g>
<g id="#e86010ff">
<path fill="#e86010" opacity="1.00" d=" M 30.53 8.73 C 34.66 8.07 38.85 8.33 43.01 8.30 C 55.68 8.40 68.35 8.29 81.01 8.36 C 94.20 8.48 106.51 17.99 110.27 30.57 C 112.31 37.19 111.53 44.19 111.69 51.01 C 111.74 59.59 108.06 68.01 101.99 74.03 C 96.06 79.49 88.11 82.64 80.04 82.68 C 65.34 82.73 50.64 82.70 35.94 82.69 C 26.45 82.79 17.06 78.18 11.21 70.72 C 6.49 64.96 4.12 57.40 4.28 49.98 C 4.45 43.25 3.60 36.30 5.97 29.84 C 9.40 18.95 19.36 10.66 30.53 8.73 M 6.71 31.98 C 5.04 37.84 5.90 44.00 5.67 50.01 C 5.34 56.84 7.66 63.67 11.76 69.11 C 16.23 75.56 23.50 79.22 30.87 81.32 C 45.27 81.31 59.68 81.33 74.08 81.33 C 78.12 81.28 82.24 81.69 86.21 80.70 C 95.57 78.76 103.93 72.15 107.70 63.32 C 111.94 54.45 109.92 44.39 110.27 34.93 C 108.97 31.06 107.84 27.03 105.44 23.66 C 100.08 15.06 90.14 9.51 79.99 9.64 C 64.97 9.66 49.95 9.65 34.94 9.66 C 21.99 9.92 10.06 19.54 6.71 31.98 Z" />
<path fill="#e86010" opacity="1.00" d=" M 55.87 30.46 C 57.68 30.26 59.48 30.04 61.29 29.83 C 61.31 32.53 61.07 35.25 61.32 37.94 C 61.70 40.06 64.33 39.57 65.85 40.10 C 70.91 40.70 74.91 44.24 77.99 48.04 C 79.34 50.19 80.18 52.64 81.70 54.69 C 81.79 57.42 81.63 60.14 81.45 62.86 C 77.99 61.76 78.29 57.33 75.32 55.72 C 71.40 52.58 66.52 50.83 61.47 51.09 C 61.25 54.55 61.21 58.02 61.22 61.50 C 59.91 61.48 58.60 61.46 57.29 61.44 C 56.32 59.23 54.07 58.16 52.20 56.84 C 46.85 53.44 41.81 49.54 36.09 46.76 C 36.24 45.75 36.46 44.76 36.76 43.79 C 39.86 41.93 43.04 40.18 45.94 38.00 C 49.24 35.49 53.55 34.10 55.87 30.46 Z" />
</g>
</svg>
