<?xml version="1.0" encoding="UTF-8" ?>
<!DOCTYPE svg PUBLIC "-//W3C//DTD SVG 1.1//EN" "http://www.w3.org/Graphics/SVG/1.1/DTD/svg11.dtd">
<svg width="117pt" height="140pt" viewBox="0 0 117 140" version="1.1" xmlns="http://www.w3.org/2000/svg">
<g id="#000000ff">
<path fill="#000000" opacity="1.00" d=" M 0.00 0.00 L 117.00 0.00 L 117.00 140.00 L 0.00 140.00 L 0.00 0.00 M 33.16 10.24 C 17.93 11.80 5.22 25.61 5.03 40.93 C 4.98 60.30 4.98 79.68 5.03 99.06 C 5.19 115.01 19.01 129.26 34.94 129.92 C 50.65 130.09 66.37 130.00 82.08 129.96 C 98.02 129.81 112.28 115.97 112.92 100.04 C 113.11 80.68 112.95 61.30 112.99 41.94 C 113.04 32.84 108.91 23.87 102.04 17.92 C 95.78 12.34 87.28 9.62 78.95 9.98 C 63.69 10.18 48.40 9.67 33.16 10.24 Z" />
<path fill="#000000" opacity="1.00" d=" M 30.49 12.68 C 33.93 11.92 37.48 11.98 40.98 11.99 C 55.01 12.07 69.04 11.88 83.07 12.09 C 97.92 12.73 110.85 26.05 110.96 40.93 C 111.04 59.97 110.99 79.02 110.99 98.07 C 111.20 109.86 103.52 121.18 92.66 125.65 C 88.38 127.59 83.64 128.07 79.00 128.01 C 64.32 127.93 49.64 128.12 34.96 127.91 C 19.72 127.29 6.61 113.30 7.00 98.05 C 7.01 79.03 6.97 60.02 7.03 41.01 C 7.17 27.66 17.48 15.41 30.49 12.68 M 49.80 27.98 C 49.87 37.57 49.82 47.16 49.84 56.75 C 43.64 61.33 42.62 71.32 48.23 76.74 C 53.04 82.14 62.58 81.53 66.74 75.63 C 71.52 69.99 69.90 61.10 64.17 56.75 C 63.98 47.20 64.52 37.56 63.91 28.05 C 59.37 27.08 54.43 27.41 49.80 27.98 M 68.35 51.01 C 67.96 51.51 67.19 52.49 66.81 52.99 C 67.20 53.47 67.97 54.45 68.36 54.94 C 70.28 54.75 73.16 55.60 73.64 52.97 C 73.16 50.34 70.26 51.18 68.35 51.01 Z" />
<path fill="#000000" opacity="1.00" d=" M 53.35 31.24 C 55.77 31.28 58.19 31.27 60.61 31.21 C 60.15 40.35 60.59 49.52 60.37 58.67 C 66.56 61.60 67.79 71.21 62.02 75.15 C 57.59 78.45 50.33 76.27 48.82 70.86 C 46.96 66.30 49.35 60.93 53.62 58.71 C 53.41 49.55 53.89 40.38 53.35 31.24 M 55.16 51.14 C 54.94 54.09 55.26 57.06 55.07 60.01 C 52.80 61.80 49.73 63.64 49.84 66.95 C 49.33 70.25 51.80 72.96 54.42 74.52 C 59.49 76.84 65.38 71.18 64.07 66.00 C 63.68 63.14 60.92 61.68 58.92 60.00 C 58.75 57.05 59.05 54.09 58.85 51.14 C 57.62 50.17 56.39 50.17 55.16 51.14 Z" />
</g>
<g id="#747474ff">
<path fill="#747474" opacity="1.00" d=" M 33.16 10.24 C 48.40 9.67 63.69 10.18 78.95 9.98 C 87.28 9.62 95.78 12.34 102.04 17.92 C 108.91 23.87 113.04 32.84 112.99 41.94 C 112.95 61.30 113.11 80.68 112.92 100.04 C 112.28 115.97 98.02 129.81 82.08 129.96 C 66.37 130.00 50.65 130.09 34.94 129.92 C 19.01 129.26 5.19 115.01 5.03 99.06 C 4.98 79.68 4.98 60.30 5.03 40.93 C 5.22 25.61 17.93 11.80 33.16 10.24 M 30.49 12.68 C 17.48 15.41 7.17 27.66 7.03 41.01 C 6.97 60.02 7.01 79.03 7.00 98.05 C 6.61 113.30 19.72 127.29 34.96 127.91 C 49.64 128.12 64.32 127.93 79.00 128.01 C 83.64 128.07 88.38 127.59 92.66 125.65 C 103.52 121.18 111.20 109.86 110.99 98.07 C 110.99 79.02 111.04 59.97 110.96 40.93 C 110.85 26.05 97.92 12.73 83.07 12.09 C 69.04 11.88 55.01 12.07 40.98 11.99 C 37.48 11.98 33.93 11.92 30.49 12.68 Z" />
</g>
<g id="#f8fcf8ff">
<path fill="#f8fcf8" opacity="1.00" d=" M 49.80 27.98 C 54.43 27.41 59.37 27.08 63.91 28.05 C 64.52 37.56 63.98 47.20 64.17 56.75 C 69.90 61.10 71.52 69.99 66.74 75.63 C 62.58 81.53 53.04 82.14 48.23 76.74 C 42.62 71.32 43.64 61.33 49.84 56.75 C 49.82 47.16 49.87 37.57 49.80 27.98 M 53.35 31.24 C 53.89 40.38 53.41 49.55 53.62 58.71 C 49.35 60.93 46.96 66.30 48.82 70.86 C 50.33 76.27 57.59 78.45 62.02 75.15 C 67.79 71.21 66.56 61.60 60.37 58.67 C 60.59 49.52 60.15 40.35 60.61 31.21 C 58.19 31.27 55.77 31.28 53.35 31.24 Z" />
<path fill="#f8fcf8" opacity="1.00" d=" M 55.16 51.14 C 56.39 50.17 57.62 50.17 58.85 51.14 C 59.05 54.09 58.75 57.05 58.92 60.00 C 60.92 61.68 63.68 63.14 64.07 66.00 C 65.38 71.18 59.49 76.84 54.42 74.52 C 51.80 72.96 49.33 70.25 49.84 66.95 C 49.73 63.64 52.80 61.80 55.07 60.01 C 55.26 57.06 54.94 54.09 55.16 51.14 Z" />
<path fill="#f8fcf8" opacity="1.00" d=" M 68.35 51.01 C 70.26 51.18 73.16 50.34 73.64 52.97 C 73.16 55.60 70.28 54.75 68.36 54.94 C 67.97 54.45 67.20 53.47 66.81 52.99 C 67.19 52.49 67.96 51.51 68.35 51.01 Z" />
</g>
</svg>
