<?xml version="1.0" encoding="UTF-8" ?>
<!DOCTYPE svg PUBLIC "-//W3C//DTD SVG 1.1//EN" "http://www.w3.org/Graphics/SVG/1.1/DTD/svg11.dtd">
<svg width="117pt" height="140pt" viewBox="0 0 117 140" version="1.1" xmlns="http://www.w3.org/2000/svg">
<g id="#000000ff">
<path fill="#000000" opacity="1.00" d=" M 0.00 0.00 L 117.00 0.00 L 117.00 140.00 L 0.00 140.00 L 0.00 0.00 M 33.22 10.22 C 17.94 11.76 5.19 25.62 5.02 40.98 C 5.02 60.67 4.92 80.36 5.07 100.04 C 5.74 115.99 19.99 129.82 35.97 129.97 C 51.66 129.98 67.36 130.10 83.05 129.91 C 98.98 129.27 112.82 115.02 112.97 99.07 C 113.04 80.03 112.98 60.99 113.00 41.95 C 113.04 33.35 109.37 24.84 103.14 18.93 C 97.06 12.99 88.52 9.78 80.04 9.98 C 64.44 10.17 48.81 9.69 33.22 10.22 Z" />
<path fill="#000000" opacity="1.00" d=" M 33.21 12.34 C 48.81 11.72 64.44 12.24 80.05 12.07 C 88.01 11.86 95.94 14.87 101.70 20.37 C 107.48 25.98 111.03 33.93 110.91 42.03 C 110.95 60.69 110.95 79.35 110.91 98.01 C 111.05 108.99 104.49 119.73 94.64 124.60 C 89.85 127.21 84.32 128.04 78.93 127.94 C 64.25 127.84 49.56 128.09 34.88 127.82 C 20.07 127.14 7.23 113.86 7.12 99.02 C 7.03 79.68 7.03 60.34 7.12 41.00 C 7.26 26.76 19.06 13.82 33.21 12.34 M 71.13 38.08 C 70.19 40.96 69.80 43.98 69.99 47.00 C 67.99 47.00 66.00 47.00 64.00 47.00 C 64.00 47.75 64.00 49.25 64.00 50.00 C 65.98 50.00 67.97 50.00 69.95 50.00 C 69.84 52.69 70.34 55.34 71.13 57.90 C 73.70 58.89 76.64 58.68 78.56 56.52 C 81.27 53.82 86.03 52.32 86.47 48.02 C 85.96 43.48 80.86 41.95 78.01 39.05 C 76.22 37.02 73.44 37.38 71.13 38.08 M 42.00 47.00 C 42.00 47.75 42.00 49.25 42.00 50.00 C 45.33 50.00 48.67 50.00 52.00 50.00 C 52.00 49.25 52.00 47.75 52.00 47.00 C 48.67 47.00 45.33 47.00 42.00 47.00 M 53.00 47.00 C 53.00 47.75 53.00 49.25 53.00 50.00 C 53.75 50.00 55.25 50.00 56.00 50.00 C 56.00 49.25 56.00 47.75 56.00 47.00 C 55.25 47.00 53.75 47.00 53.00 47.00 M 57.00 47.00 C 57.00 47.75 57.00 49.25 57.00 50.00 C 59.00 50.00 61.00 50.00 63.00 50.00 C 63.00 49.25 63.00 47.75 63.00 47.00 C 61.00 47.00 59.00 47.00 57.00 47.00 M 57.84 77.34 C 52.40 77.43 46.95 77.39 41.51 77.37 C 41.56 75.69 41.61 74.00 41.67 72.32 C 41.03 72.26 39.77 72.15 39.14 72.09 C 39.27 74.63 37.94 78.68 41.07 79.83 C 53.03 80.01 65.02 80.01 76.98 79.83 C 80.04 78.60 78.73 74.65 78.88 72.11 C 78.24 72.16 76.97 72.26 76.34 72.31 C 76.39 74.00 76.44 75.68 76.49 77.37 C 71.04 77.39 65.60 77.43 60.16 77.34 C 60.29 75.25 60.40 73.14 60.00 71.07 C 56.36 70.75 58.05 75.20 57.84 77.34 Z" />
<path fill="#000000" opacity="1.00" d=" M 75.00 41.81 C 77.67 43.86 80.33 45.93 82.99 48.00 C 80.33 50.07 77.67 52.13 75.00 54.19 C 75.00 50.06 75.00 45.94 75.00 41.81 Z" />
</g>
<g id="#737473ff">
<path fill="#737473" opacity="1.00" d=" M 33.22 10.22 C 48.81 9.69 64.44 10.17 80.04 9.98 C 88.52 9.78 97.06 12.99 103.14 18.93 C 109.37 24.84 113.04 33.35 113.00 41.95 C 112.98 60.99 113.04 80.03 112.97 99.07 C 112.82 115.02 98.98 129.27 83.05 129.91 C 67.36 130.10 51.66 129.98 35.97 129.97 C 19.99 129.82 5.74 115.99 5.07 100.04 C 4.92 80.36 5.02 60.67 5.02 40.98 C 5.19 25.62 17.94 11.76 33.22 10.22 M 33.21 12.34 C 19.06 13.82 7.26 26.76 7.12 41.00 C 7.03 60.34 7.03 79.68 7.12 99.02 C 7.23 113.86 20.07 127.14 34.88 127.82 C 49.56 128.09 64.25 127.84 78.93 127.94 C 84.32 128.04 89.85 127.21 94.64 124.60 C 104.49 119.73 111.05 108.99 110.91 98.01 C 110.95 79.35 110.95 60.69 110.91 42.03 C 111.03 33.93 107.48 25.98 101.70 20.37 C 95.94 14.87 88.01 11.86 80.05 12.07 C 64.44 12.24 48.81 11.72 33.21 12.34 Z" />
</g>
<g id="#f8fcf8ff">
<path fill="#f8fcf8" opacity="1.00" d=" M 71.13 38.08 C 73.44 37.38 76.22 37.02 78.01 39.05 C 80.86 41.95 85.96 43.48 86.47 48.02 C 86.03 52.32 81.27 53.82 78.56 56.52 C 76.64 58.68 73.70 58.89 71.13 57.90 C 70.34 55.34 69.84 52.69 69.95 50.00 C 67.97 50.00 65.98 50.00 64.00 50.00 C 64.00 49.25 64.00 47.75 64.00 47.00 C 66.00 47.00 67.99 47.00 69.99 47.00 C 69.80 43.98 70.19 40.96 71.13 38.08 M 75.00 41.81 C 75.00 45.94 75.00 50.06 75.00 54.19 C 77.67 52.13 80.33 50.07 82.99 48.00 C 80.33 45.93 77.67 43.86 75.00 41.81 Z" />
<path fill="#f8fcf8" opacity="1.00" d=" M 42.00 47.00 C 45.33 47.00 48.67 47.00 52.00 47.00 C 52.00 47.75 52.00 49.25 52.00 50.00 C 48.67 50.00 45.33 50.00 42.00 50.00 C 42.00 49.25 42.00 47.75 42.00 47.00 Z" />
<path fill="#f8fcf8" opacity="1.00" d=" M 53.00 47.00 C 53.75 47.00 55.25 47.00 56.00 47.00 C 56.00 47.75 56.00 49.25 56.00 50.00 C 55.25 50.00 53.75 50.00 53.00 50.00 C 53.00 49.25 53.00 47.75 53.00 47.00 Z" />
<path fill="#f8fcf8" opacity="1.00" d=" M 57.00 47.00 C 59.00 47.00 61.00 47.00 63.00 47.00 C 63.00 47.75 63.00 49.25 63.00 50.00 C 61.00 50.00 59.00 50.00 57.00 50.00 C 57.00 49.25 57.00 47.75 57.00 47.00 Z" />
<path fill="#f8fcf8" opacity="1.00" d=" M 57.84 77.34 C 58.05 75.20 56.36 70.75 60.00 71.07 C 60.40 73.14 60.29 75.25 60.16 77.34 C 65.60 77.43 71.04 77.39 76.49 77.37 C 76.44 75.68 76.39 74.00 76.34 72.31 C 76.97 72.26 78.24 72.16 78.88 72.11 C 78.73 74.65 80.04 78.60 76.98 79.83 C 65.02 80.01 53.03 80.01 41.07 79.83 C 37.94 78.68 39.27 74.63 39.14 72.09 C 39.77 72.15 41.03 72.26 41.67 72.32 C 41.61 74.00 41.56 75.69 41.51 77.37 C 46.95 77.39 52.40 77.43 57.84 77.34 Z" />
</g>
</svg>
