<?xml version="1.0" encoding="UTF-8" ?>
<!DOCTYPE svg PUBLIC "-//W3C//DTD SVG 1.1//EN" "http://www.w3.org/Graphics/SVG/1.1/DTD/svg11.dtd">
<svg width="117pt" height="140pt" viewBox="0 0 117 140" version="1.1" xmlns="http://www.w3.org/2000/svg">
<g id="#000000ff">
<path fill="#000000" opacity="1.00" d=" M 0.00 0.00 L 117.00 0.00 L 117.00 140.00 L 0.00 140.00 L 0.00 0.00 M 32.33 10.36 C 17.42 12.24 5.24 25.91 5.03 40.94 C 4.86 57.29 5.08 73.65 4.96 90.00 C 4.97 95.86 4.63 101.88 6.44 107.54 C 9.33 116.91 16.77 124.68 25.97 128.05 C 31.37 130.20 37.28 130.10 43.00 130.05 C 55.69 129.94 68.37 130.08 81.06 130.02 C 92.11 130.09 102.89 123.91 108.47 114.38 C 111.71 109.22 113.07 103.09 113.03 97.04 C 113.04 80.03 112.96 63.01 113.06 46.00 C 113.13 40.44 112.79 34.72 110.50 29.57 C 106.08 18.92 95.54 11.10 84.03 10.15 C 76.36 9.68 68.67 10.12 61.00 9.98 C 51.45 10.22 41.86 9.47 32.33 10.36 Z" />
<path fill="#000000" opacity="1.00" d=" M 32.34 12.43 C 47.52 11.46 62.79 12.31 78.00 11.98 C 85.64 11.69 93.53 13.56 99.55 18.42 C 106.69 23.97 111.02 32.90 110.97 41.94 C 111.03 59.62 110.93 77.31 111.02 94.99 C 111.15 100.70 110.45 106.58 107.68 111.67 C 102.81 121.56 92.06 128.02 81.07 127.95 C 67.04 128.06 53.01 127.93 38.98 128.01 C 32.86 128.11 26.63 126.87 21.40 123.61 C 12.58 118.37 6.96 108.31 7.03 98.07 C 6.97 80.04 7.07 62.02 6.99 43.99 C 6.92 38.86 7.64 33.62 9.99 29.00 C 14.08 20.22 22.75 13.80 32.34 12.43 M 34.12 46.11 C 33.84 50.31 33.77 54.53 34.30 58.71 C 39.51 59.31 44.77 58.93 50.00 59.00 C 61.55 58.77 73.14 59.46 84.66 58.68 C 85.23 54.51 85.16 50.30 84.88 46.12 C 67.96 45.91 51.03 45.92 34.12 46.11 Z" />
<path fill="#000000" opacity="1.00" d=" M 37.26 49.27 C 52.04 48.99 66.85 48.94 81.63 49.30 C 81.75 51.40 81.74 53.51 81.61 55.61 C 66.85 55.91 52.05 55.85 37.29 55.64 C 37.13 53.52 37.12 51.39 37.26 49.27 Z" />
</g>
<g id="#6f706fff">
<path fill="#6f706f" opacity="1.00" d=" M 32.33 10.36 C 41.86 9.47 51.45 10.22 61.00 9.98 C 68.67 10.12 76.36 9.68 84.03 10.15 C 95.54 11.10 106.08 18.92 110.50 29.57 C 112.79 34.72 113.13 40.44 113.06 46.00 C 112.96 63.01 113.04 80.03 113.03 97.04 C 113.07 103.09 111.71 109.22 108.47 114.38 C 102.89 123.91 92.11 130.09 81.06 130.02 C 68.37 130.08 55.69 129.94 43.00 130.05 C 37.28 130.10 31.37 130.20 25.97 128.05 C 16.77 124.68 9.33 116.91 6.44 107.54 C 4.63 101.88 4.97 95.86 4.96 90.00 C 5.08 73.65 4.86 57.29 5.03 40.94 C 5.24 25.91 17.42 12.24 32.33 10.36 M 32.34 12.43 C 22.75 13.80 14.08 20.22 9.99 29.00 C 7.64 33.62 6.92 38.86 6.99 43.99 C 7.07 62.02 6.97 80.04 7.03 98.07 C 6.96 108.31 12.58 118.37 21.40 123.61 C 26.63 126.87 32.86 128.11 38.98 128.01 C 53.01 127.93 67.04 128.06 81.07 127.95 C 92.06 128.02 102.81 121.56 107.68 111.67 C 110.45 106.58 111.15 100.70 111.02 94.99 C 110.93 77.31 111.03 59.62 110.97 41.94 C 111.02 32.90 106.69 23.97 99.55 18.42 C 93.53 13.56 85.64 11.69 78.00 11.98 C 62.79 12.31 47.52 11.46 32.34 12.43 Z" />
</g>
<g id="#f8fcf8ff">
<path fill="#f8fcf8" opacity="1.00" d=" M 34.12 46.11 C 51.03 45.92 67.96 45.91 84.88 46.12 C 85.16 50.30 85.23 54.51 84.66 58.68 C 73.14 59.46 61.55 58.77 50.00 59.00 C 44.77 58.93 39.51 59.31 34.30 58.71 C 33.77 54.53 33.84 50.31 34.12 46.11 M 37.26 49.27 C 37.12 51.39 37.13 53.52 37.29 55.64 C 52.05 55.85 66.85 55.91 81.61 55.61 C 81.74 53.51 81.75 51.40 81.63 49.30 C 66.85 48.94 52.04 48.99 37.26 49.27 Z" />
</g>
</svg>
