<?xml version="1.0" encoding="UTF-8" ?>
<!DOCTYPE svg PUBLIC "-//W3C//DTD SVG 1.1//EN" "http://www.w3.org/Graphics/SVG/1.1/DTD/svg11.dtd">
<svg width="117pt" height="92pt" viewBox="0 0 117 92" version="1.1" xmlns="http://www.w3.org/2000/svg">
<g id="#000000ff">
<path fill="#000000" opacity="1.00" d=" M 0.00 0.00 L 117.00 0.00 L 117.00 92.00 L 0.00 92.00 L 0.00 0.00 M 37.65 33.71 C 37.48 36.34 37.65 39.34 39.82 41.17 C 46.35 47.66 52.02 54.97 58.78 61.23 C 59.90 62.42 62.08 62.42 63.21 61.24 C 69.98 54.97 75.65 47.65 82.20 41.16 C 84.39 39.34 84.54 36.32 84.32 33.70 C 68.77 33.57 53.20 33.54 37.65 33.71 Z" />
<path fill="#000000" opacity="1.00" d=" M 42.06 37.66 C 54.69 37.85 67.34 37.84 79.97 37.66 C 73.47 44.38 67.18 51.31 61.00 58.33 C 54.83 51.32 48.54 44.39 42.06 37.66 Z" />
</g>
<g id="#f8fcf8ff">
<path fill="#f8fcf8" opacity="1.00" d=" M 37.65 33.71 C 53.20 33.54 68.77 33.57 84.32 33.70 C 84.54 36.32 84.39 39.34 82.20 41.16 C 75.65 47.65 69.98 54.97 63.21 61.24 C 62.08 62.42 59.90 62.42 58.78 61.23 C 52.02 54.97 46.35 47.66 39.82 41.17 C 37.65 39.34 37.48 36.34 37.65 33.71 M 42.06 37.66 C 48.54 44.39 54.83 51.32 61.00 58.33 C 67.18 51.31 73.47 44.38 79.97 37.66 C 67.34 37.84 54.69 37.85 42.06 37.66 Z" />
</g>
</svg>
