<?xml version="1.0" encoding="UTF-8" ?>
<!DOCTYPE svg PUBLIC "-//W3C//DTD SVG 1.1//EN" "http://www.w3.org/Graphics/SVG/1.1/DTD/svg11.dtd">
<svg width="117pt" height="140pt" viewBox="0 0 117 140" version="1.1" xmlns="http://www.w3.org/2000/svg">
<g id="#000000ff">
<path fill="#000000" opacity="1.00" d=" M 0.00 0.00 L 117.00 0.00 L 117.00 140.00 L 0.00 140.00 L 0.00 0.00 M 33.13 10.22 C 17.91 11.81 5.21 25.61 5.02 40.94 C 4.99 60.31 4.99 79.69 5.02 99.07 C 5.19 115.04 19.03 129.29 34.99 129.93 C 50.68 130.08 66.37 129.99 82.06 129.97 C 99.16 129.87 113.97 114.00 113.02 96.95 C 112.98 78.63 113.01 60.32 113.00 42.01 C 113.07 33.36 109.37 24.80 103.08 18.87 C 97.00 12.96 88.47 9.76 80.00 9.98 C 64.38 10.17 48.74 9.69 33.13 10.22 Z" />
<path fill="#000000" opacity="1.00" d=" M 30.41 12.72 C 33.89 11.91 37.49 11.98 41.04 12.00 C 55.03 12.06 69.03 11.89 83.02 12.08 C 97.92 12.73 110.88 26.10 110.97 41.03 C 111.02 60.34 111.03 79.66 110.96 98.97 C 110.88 113.89 97.92 127.29 83.01 127.90 C 67.33 128.11 51.64 127.98 35.96 127.97 C 20.69 127.82 7.11 114.26 7.03 98.98 C 6.98 79.65 6.98 60.32 7.03 40.99 C 7.20 27.69 17.43 15.46 30.41 12.72 M 38.04 42.00 C 35.19 44.93 30.05 46.46 29.53 51.02 C 30.08 55.54 35.17 57.08 38.02 59.98 C 40.15 62.33 43.33 61.22 46.00 60.88 C 46.00 58.25 46.00 55.63 46.00 53.00 C 48.00 53.00 50.00 53.00 52.00 53.00 C 52.00 52.25 52.00 50.75 52.00 50.00 C 50.00 50.00 48.00 50.00 46.00 50.00 C 46.00 47.04 45.99 44.08 46.00 41.11 C 43.34 40.80 40.15 39.63 38.04 42.00 M 70.99 41.10 C 71.01 44.07 70.99 47.03 71.00 50.00 C 68.67 50.00 66.33 50.00 64.00 50.00 C 64.00 50.75 64.00 52.25 64.00 53.00 C 66.33 53.00 68.67 53.00 71.00 53.00 C 70.99 55.63 71.01 58.25 70.99 60.87 C 73.58 61.84 76.58 61.73 78.52 59.55 C 81.54 56.62 88.02 54.34 86.01 49.06 C 83.94 45.86 80.23 44.17 77.46 41.62 C 75.69 39.84 73.11 40.62 70.99 41.10 M 53.00 50.00 C 53.00 50.75 53.00 52.25 53.00 53.00 C 53.75 53.00 55.25 53.00 56.00 53.00 C 56.00 52.25 56.00 50.75 56.00 50.00 C 55.25 50.00 53.75 50.00 53.00 50.00 M 57.00 50.00 C 57.00 50.75 57.00 52.25 57.00 53.00 C 59.00 53.00 61.00 53.00 63.00 53.00 C 63.00 52.25 63.00 50.75 63.00 50.00 C 61.00 50.00 59.00 50.00 57.00 50.00 Z" />
<path fill="#000000" opacity="1.00" d=" M 33.01 51.00 C 36.00 48.67 39.01 46.35 42.00 44.01 C 42.00 48.66 42.01 53.31 41.99 57.97 C 38.99 55.65 36.00 53.33 33.01 51.00 Z" />
<path fill="#000000" opacity="1.00" d=" M 75.00 44.81 C 77.67 46.86 80.33 48.93 82.99 51.00 C 80.33 53.07 77.67 55.14 75.00 57.19 C 75.00 53.06 75.00 48.94 75.00 44.81 Z" />
</g>
<g id="#717271ff">
<path fill="#717271" opacity="1.00" d=" M 33.13 10.22 C 48.74 9.69 64.38 10.17 80.00 9.98 C 88.47 9.76 97.00 12.96 103.08 18.87 C 109.37 24.80 113.07 33.36 113.00 42.01 C 113.01 60.32 112.98 78.63 113.02 96.95 C 113.97 114.00 99.16 129.87 82.06 129.97 C 66.37 129.99 50.68 130.08 34.99 129.93 C 19.03 129.29 5.19 115.04 5.02 99.07 C 4.99 79.69 4.99 60.31 5.02 40.94 C 5.21 25.61 17.91 11.81 33.13 10.22 M 30.41 12.72 C 17.43 15.46 7.20 27.69 7.03 40.99 C 6.98 60.32 6.98 79.65 7.03 98.98 C 7.11 114.26 20.69 127.82 35.96 127.97 C 51.64 127.98 67.33 128.11 83.01 127.90 C 97.92 127.29 110.88 113.89 110.96 98.97 C 111.03 79.66 111.02 60.34 110.97 41.03 C 110.88 26.10 97.92 12.73 83.02 12.08 C 69.03 11.89 55.03 12.06 41.04 12.00 C 37.49 11.98 33.89 11.91 30.41 12.72 Z" />
</g>
<g id="#f8fcf8ff">
<path fill="#f8fcf8" opacity="1.00" d=" M 38.04 42.00 C 40.15 39.63 43.34 40.80 46.00 41.11 C 45.99 44.08 46.00 47.04 46.00 50.00 C 48.00 50.00 50.00 50.00 52.00 50.00 C 52.00 50.75 52.00 52.25 52.00 53.00 C 50.00 53.00 48.00 53.00 46.00 53.00 C 46.00 55.63 46.00 58.25 46.00 60.88 C 43.33 61.22 40.15 62.33 38.02 59.98 C 35.17 57.08 30.08 55.54 29.53 51.02 C 30.05 46.46 35.19 44.93 38.04 42.00 M 33.01 51.00 C 36.00 53.33 38.99 55.65 41.99 57.97 C 42.01 53.31 42.00 48.66 42.00 44.01 C 39.01 46.35 36.00 48.67 33.01 51.00 Z" />
<path fill="#f8fcf8" opacity="1.00" d=" M 70.99 41.10 C 73.11 40.62 75.69 39.84 77.46 41.62 C 80.23 44.17 83.94 45.86 86.01 49.06 C 88.02 54.34 81.54 56.62 78.52 59.55 C 76.58 61.73 73.58 61.84 70.99 60.87 C 71.01 58.25 70.99 55.63 71.00 53.00 C 68.67 53.00 66.33 53.00 64.00 53.00 C 64.00 52.25 64.00 50.75 64.00 50.00 C 66.33 50.00 68.67 50.00 71.00 50.00 C 70.99 47.03 71.01 44.07 70.99 41.10 M 75.00 44.81 C 75.00 48.94 75.00 53.06 75.00 57.19 C 77.67 55.14 80.33 53.07 82.99 51.00 C 80.33 48.93 77.67 46.86 75.00 44.81 Z" />
<path fill="#f8fcf8" opacity="1.00" d=" M 53.00 50.00 C 53.75 50.00 55.25 50.00 56.00 50.00 C 56.00 50.75 56.00 52.25 56.00 53.00 C 55.25 53.00 53.75 53.00 53.00 53.00 C 53.00 52.25 53.00 50.75 53.00 50.00 Z" />
<path fill="#f8fcf8" opacity="1.00" d=" M 57.00 50.00 C 59.00 50.00 61.00 50.00 63.00 50.00 C 63.00 50.75 63.00 52.25 63.00 53.00 C 61.00 53.00 59.00 53.00 57.00 53.00 C 57.00 52.25 57.00 50.75 57.00 50.00 Z" />
</g>
</svg>
