<?xml version="1.0" encoding="UTF-8" ?>
<!DOCTYPE svg PUBLIC "-//W3C//DTD SVG 1.1//EN" "http://www.w3.org/Graphics/SVG/1.1/DTD/svg11.dtd">
<svg width="150pt" height="80pt" viewBox="0 0 150 80" version="1.1" xmlns="http://www.w3.org/2000/svg">
<g id="#000000ff">
<path fill="#000000" opacity="1.00" d=" M 0.00 0.00 L 150.00 0.00 L 150.00 80.00 L 0.00 80.00 L 0.00 0.00 M 6.34 5.48 C 2.84 6.65 0.70 10.35 0.99 13.97 C 0.99 29.64 1.02 45.32 0.99 60.99 C 1.01 63.65 0.81 66.35 1.28 68.98 C 2.16 72.82 6.11 75.35 9.96 75.01 C 50.97 74.99 91.98 75.00 132.99 75.00 C 136.32 74.95 139.68 75.27 142.98 74.72 C 146.86 73.84 149.36 69.85 149.00 65.97 C 149.01 48.65 148.99 31.33 149.01 14.01 C 149.17 11.11 148.02 8.07 145.53 6.44 C 142.77 4.46 139.18 5.09 136.00 4.98 C 94.00 5.03 51.99 4.99 9.99 4.99 C 8.75 4.97 7.53 5.14 6.34 5.48 Z" />
<path fill="#000000" opacity="1.00" d=" M 7.23 7.29 C 10.11 6.75 13.05 7.04 15.96 6.99 C 57.30 7.01 98.65 7.00 139.99 7.00 C 142.35 6.90 145.02 7.70 146.16 9.95 C 147.36 12.11 146.92 14.69 147.03 17.06 C 146.96 33.39 147.02 49.72 147.01 66.05 C 147.28 68.90 145.67 71.96 142.78 72.73 C 139.55 73.28 136.26 72.93 133.00 73.00 C 93.01 73.02 53.01 72.96 13.02 73.03 C 10.23 72.94 6.91 73.50 4.76 71.28 C 3.02 69.65 2.96 67.14 2.97 64.93 C 3.04 47.92 2.98 30.91 3.00 13.90 C 2.77 11.07 4.34 8.00 7.23 7.29 M 37.48 33.51 C 36.54 34.26 35.62 35.03 34.71 35.81 C 36.06 37.07 37.41 38.32 38.79 39.55 C 40.15 38.07 41.65 36.73 43.20 35.46 C 44.18 36.39 45.15 37.32 46.13 38.26 C 46.96 37.46 47.79 36.66 48.62 35.86 C 47.69 34.97 46.77 34.08 45.84 33.19 C 47.45 31.13 47.07 28.33 49.57 26.77 C 44.32 25.38 40.43 29.90 37.48 33.51 M 51.47 34.38 C 48.06 37.68 44.60 40.94 41.16 44.21 C 40.50 45.05 39.26 45.66 39.22 46.85 C 38.75 48.55 41.41 49.56 42.47 48.37 C 46.54 44.75 50.35 40.84 54.33 37.13 C 58.74 38.84 64.18 34.14 62.21 29.54 C 60.89 30.74 59.61 31.98 58.34 33.23 C 57.40 32.38 56.47 31.52 55.53 30.66 C 56.82 29.42 58.10 28.16 59.36 26.89 C 54.98 25.01 49.64 29.82 51.47 34.38 M 49.71 42.65 C 51.74 44.91 53.88 47.06 56.04 49.18 C 57.37 47.89 58.71 46.60 60.03 45.29 C 57.83 43.29 55.60 41.33 53.39 39.34 C 52.16 40.44 50.94 41.55 49.71 42.65 Z" />
<path fill="#000000" opacity="1.00" d=" M 40.74 46.25 C 44.18 46.35 39.20 49.33 40.74 46.25 Z" />
</g>
<g id="#707370ff">
<path fill="#707370" opacity="1.00" d=" M 6.34 5.48 C 7.53 5.14 8.75 4.97 9.99 4.99 C 51.99 4.99 94.00 5.03 136.00 4.98 C 139.18 5.09 142.77 4.46 145.53 6.44 C 148.02 8.07 149.17 11.11 149.01 14.01 C 148.99 31.33 149.01 48.65 149.00 65.97 C 149.36 69.85 146.86 73.84 142.98 74.72 C 139.68 75.27 136.32 74.95 132.99 75.00 C 91.98 75.00 50.97 74.99 9.96 75.01 C 6.11 75.35 2.16 72.82 1.28 68.98 C 0.81 66.35 1.01 63.65 0.99 60.99 C 1.02 45.32 0.99 29.64 0.99 13.97 C 0.70 10.35 2.84 6.65 6.34 5.48 M 7.23 7.29 C 4.34 8.00 2.77 11.07 3.00 13.90 C 2.98 30.91 3.04 47.92 2.97 64.93 C 2.96 67.14 3.02 69.65 4.76 71.28 C 6.91 73.50 10.23 72.94 13.02 73.03 C 53.01 72.96 93.01 73.02 133.00 73.00 C 136.26 72.93 139.55 73.28 142.78 72.73 C 145.67 71.96 147.28 68.90 147.01 66.05 C 147.02 49.72 146.96 33.39 147.03 17.06 C 146.92 14.69 147.36 12.11 146.16 9.95 C 145.02 7.70 142.35 6.90 139.99 7.00 C 98.65 7.00 57.30 7.01 15.96 6.99 C 13.05 7.04 10.11 6.75 7.23 7.29 Z" />
</g>
<g id="#f8fcf8ff">
<path fill="#f8fcf8" opacity="1.00" d=" M 37.48 33.51 C 40.43 29.90 44.32 25.38 49.57 26.77 C 47.07 28.33 47.45 31.13 45.84 33.19 C 46.77 34.08 47.69 34.97 48.62 35.86 C 47.79 36.66 46.96 37.46 46.13 38.26 C 45.15 37.32 44.18 36.39 43.20 35.46 C 41.65 36.73 40.15 38.07 38.79 39.55 C 37.41 38.32 36.06 37.07 34.71 35.81 C 35.62 35.03 36.54 34.26 37.48 33.51 Z" />
<path fill="#f8fcf8" opacity="1.00" d=" M 51.47 34.38 C 49.64 29.82 54.98 25.01 59.36 26.89 C 58.10 28.16 56.82 29.42 55.53 30.66 C 56.47 31.52 57.40 32.38 58.34 33.23 C 59.61 31.98 60.89 30.74 62.21 29.54 C 64.18 34.14 58.74 38.84 54.33 37.13 C 50.35 40.84 46.54 44.75 42.47 48.37 C 41.41 49.56 38.75 48.55 39.22 46.85 C 39.26 45.66 40.50 45.05 41.16 44.21 C 44.60 40.94 48.06 37.68 51.47 34.38 M 40.74 46.25 C 39.20 49.33 44.18 46.35 40.74 46.25 Z" />
<path fill="#f8fcf8" opacity="1.00" d=" M 49.71 42.65 C 50.94 41.55 52.16 40.44 53.39 39.34 C 55.60 41.33 57.83 43.29 60.03 45.29 C 58.71 46.60 57.37 47.89 56.04 49.18 C 53.88 47.06 51.74 44.91 49.71 42.65 Z" />
</g>
</svg>
