<?xml version="1.0" encoding="UTF-8" ?>
<!DOCTYPE svg PUBLIC "-//W3C//DTD SVG 1.1//EN" "http://www.w3.org/Graphics/SVG/1.1/DTD/svg11.dtd">
<svg width="117pt" height="140pt" viewBox="0 0 117 140" version="1.1" xmlns="http://www.w3.org/2000/svg">
<g id="#000000ff">
<path fill="#000000" opacity="1.00" d=" M 0.00 0.00 L 117.00 0.00 L 117.00 140.00 L 0.00 140.00 L 0.00 0.00 M 33.14 10.24 C 17.91 11.81 5.21 25.63 5.03 40.95 C 4.98 60.31 4.98 79.67 5.03 99.03 C 5.17 115.36 19.63 129.83 35.96 129.97 C 51.66 129.99 67.37 130.10 83.06 129.91 C 99.01 129.26 112.85 114.97 112.96 99.02 C 113.05 80.03 112.98 61.03 112.99 42.04 C 113.08 32.70 108.73 23.49 101.57 17.51 C 95.37 12.21 87.11 9.64 79.00 9.98 C 63.72 10.18 48.41 9.67 33.14 10.24 Z" />
<path fill="#000000" opacity="1.00" d=" M 33.27 12.33 C 48.83 11.73 64.42 12.23 79.99 12.07 C 88.18 11.83 96.38 15.03 102.17 20.83 C 107.67 26.42 111.03 34.15 110.91 42.03 C 110.95 60.70 110.95 79.36 110.91 98.03 C 111.04 108.75 104.79 119.26 95.31 124.25 C 90.38 127.10 84.61 128.05 78.97 127.94 C 64.29 127.84 49.60 128.09 34.93 127.82 C 20.08 127.17 7.20 113.85 7.12 98.98 C 7.03 79.64 7.03 60.30 7.12 40.96 C 7.27 26.72 19.10 13.78 33.27 12.33 M 39.00 33.04 C 38.86 41.46 38.95 49.88 38.94 58.30 C 38.32 58.39 37.09 58.57 36.48 58.66 C 36.29 62.66 40.96 64.57 43.18 67.36 C 46.28 66.03 48.51 63.38 50.69 60.91 C 50.94 59.35 50.34 57.93 48.47 58.45 C 48.86 50.06 48.37 41.65 48.77 33.25 C 45.55 32.60 42.25 32.82 39.00 33.04 M 68.26 33.22 C 68.70 41.62 68.24 50.02 68.55 58.42 C 66.66 57.98 66.14 59.31 66.29 60.89 C 68.51 63.32 70.63 66.14 73.81 67.33 C 76.05 65.07 78.62 63.10 80.52 60.54 C 81.21 58.88 79.44 58.30 78.13 58.20 C 78.07 49.81 78.29 41.41 78.00 33.02 C 74.75 32.82 71.48 32.63 68.26 33.22 M 33.07 71.10 C 33.07 73.61 32.32 76.32 33.30 78.72 C 36.11 80.18 39.42 79.32 42.46 79.48 C 41.63 81.71 43.06 82.22 45.03 82.15 C 45.03 81.49 45.04 80.16 45.04 79.50 C 54.01 79.52 62.99 79.52 71.96 79.50 C 71.96 80.14 71.96 81.40 71.97 82.03 C 72.65 82.00 74.01 81.94 74.69 81.91 C 74.63 81.31 74.52 80.09 74.47 79.48 C 77.50 79.27 80.85 80.23 83.66 78.73 C 84.75 76.38 83.89 73.61 83.93 71.10 C 66.98 70.95 50.02 70.95 33.07 71.10 Z" />
<path fill="#000000" opacity="1.00" d=" M 41.93 35.94 C 43.17 35.97 44.41 36.00 45.65 36.04 C 45.91 44.40 44.93 52.89 46.20 61.17 C 45.34 62.07 44.48 62.97 43.63 63.87 C 42.88 63.08 42.09 62.33 41.46 61.44 C 42.46 52.99 41.69 44.43 41.93 35.94 Z" />
<path fill="#000000" opacity="1.00" d=" M 71.43 36.02 C 72.67 35.99 73.90 35.96 75.14 35.94 C 75.13 42.96 75.15 49.98 75.11 57.01 C 75.06 58.45 75.36 59.86 75.76 61.23 C 74.94 62.11 74.12 62.97 73.30 63.85 C 72.47 62.98 71.64 62.11 70.82 61.23 C 72.20 52.94 71.11 44.41 71.43 36.02 Z" />
<path fill="#000000" opacity="1.00" d=" M 35.89 74.09 C 50.96 74.10 66.04 74.10 81.11 74.10 C 81.14 74.69 81.18 75.89 81.21 76.49 C 66.07 76.48 50.93 76.48 35.79 76.49 C 35.82 75.89 35.86 74.69 35.89 74.09 Z" />
</g>
<g id="#747474ff">
<path fill="#747474" opacity="1.00" d=" M 33.14 10.24 C 48.41 9.67 63.72 10.18 79.00 9.98 C 87.11 9.64 95.37 12.21 101.57 17.51 C 108.73 23.49 113.08 32.70 112.99 42.04 C 112.98 61.03 113.05 80.03 112.96 99.02 C 112.85 114.97 99.01 129.26 83.06 129.91 C 67.37 130.10 51.66 129.99 35.96 129.97 C 19.63 129.83 5.17 115.36 5.03 99.03 C 4.98 79.67 4.98 60.31 5.03 40.95 C 5.21 25.63 17.91 11.81 33.14 10.24 M 33.27 12.33 C 19.10 13.78 7.27 26.72 7.12 40.96 C 7.03 60.30 7.03 79.64 7.12 98.98 C 7.20 113.85 20.08 127.17 34.93 127.82 C 49.60 128.09 64.29 127.84 78.97 127.94 C 84.61 128.05 90.38 127.10 95.31 124.25 C 104.79 119.26 111.04 108.75 110.91 98.03 C 110.95 79.36 110.95 60.70 110.91 42.03 C 111.03 34.15 107.67 26.42 102.17 20.83 C 96.38 15.03 88.18 11.83 79.99 12.07 C 64.42 12.23 48.83 11.73 33.27 12.33 Z" />
</g>
<g id="#f8fcf8ff">
<path fill="#f8fcf8" opacity="1.00" d=" M 39.00 33.04 C 42.25 32.82 45.55 32.60 48.77 33.25 C 48.37 41.65 48.86 50.06 48.47 58.45 C 50.34 57.93 50.94 59.35 50.69 60.91 C 48.51 63.38 46.28 66.03 43.18 67.36 C 40.96 64.57 36.29 62.66 36.48 58.66 C 37.09 58.57 38.32 58.39 38.94 58.30 C 38.95 49.88 38.86 41.46 39.00 33.04 M 41.93 35.94 C 41.69 44.43 42.46 52.99 41.46 61.44 C 42.09 62.33 42.88 63.08 43.63 63.87 C 44.48 62.97 45.34 62.07 46.20 61.17 C 44.93 52.89 45.91 44.40 45.65 36.04 C 44.41 36.00 43.17 35.97 41.93 35.94 Z" />
<path fill="#f8fcf8" opacity="1.00" d=" M 68.26 33.22 C 71.48 32.63 74.75 32.82 78.00 33.02 C 78.29 41.41 78.07 49.81 78.13 58.20 C 79.44 58.30 81.21 58.88 80.52 60.54 C 78.62 63.10 76.05 65.07 73.81 67.33 C 70.63 66.14 68.51 63.32 66.29 60.89 C 66.14 59.31 66.66 57.98 68.55 58.42 C 68.24 50.02 68.70 41.62 68.26 33.22 M 71.43 36.02 C 71.11 44.41 72.20 52.94 70.82 61.23 C 71.64 62.11 72.47 62.98 73.30 63.85 C 74.12 62.97 74.94 62.11 75.76 61.23 C 75.36 59.86 75.06 58.45 75.11 57.01 C 75.15 49.98 75.13 42.96 75.14 35.94 C 73.90 35.96 72.67 35.99 71.43 36.02 Z" />
<path fill="#f8fcf8" opacity="1.00" d=" M 33.07 71.10 C 50.02 70.95 66.98 70.95 83.93 71.10 C 83.89 73.61 84.75 76.38 83.66 78.73 C 80.85 80.23 77.50 79.27 74.47 79.48 C 74.52 80.09 74.63 81.31 74.69 81.91 C 74.01 81.94 72.65 82.00 71.97 82.03 C 71.96 81.40 71.96 80.14 71.96 79.50 C 62.99 79.52 54.01 79.52 45.04 79.50 C 45.04 80.16 45.03 81.49 45.03 82.15 C 43.06 82.22 41.63 81.71 42.46 79.48 C 39.42 79.32 36.11 80.18 33.30 78.72 C 32.32 76.32 33.07 73.61 33.07 71.10 M 35.89 74.09 C 35.86 74.69 35.82 75.89 35.79 76.49 C 50.93 76.48 66.07 76.48 81.21 76.49 C 81.18 75.89 81.14 74.69 81.11 74.10 C 66.04 74.10 50.96 74.10 35.89 74.09 Z" />
</g>
</svg>
