<?xml version="1.0" encoding="UTF-8" ?>
<!DOCTYPE svg PUBLIC "-//W3C//DTD SVG 1.1//EN" "http://www.w3.org/Graphics/SVG/1.1/DTD/svg11.dtd">
<svg width="117pt" height="140pt" viewBox="0 0 117 140" version="1.1" xmlns="http://www.w3.org/2000/svg">
<g id="#000000ff">
<path fill="#000000" opacity="1.00" d=" M 0.00 0.00 L 117.00 0.00 L 117.00 140.00 L 0.00 140.00 L 0.00 0.00 M 23.14 13.15 C 21.51 13.93 19.91 14.76 18.37 15.70 C 14.99 18.10 12.13 21.08 9.68 24.41 C 8.74 25.94 7.92 27.54 7.14 29.16 C 6.00 31.26 5.49 33.60 5.07 35.93 C 4.16 38.86 4.41 41.96 4.38 44.98 C 4.38 62.33 4.39 79.68 4.37 97.03 C 4.29 101.74 5.11 106.56 7.15 110.83 C 9.50 116.30 13.60 120.87 18.40 124.31 C 19.93 125.27 21.53 126.09 23.17 126.85 C 28.06 129.15 33.63 129.77 38.98 129.63 C 53.01 129.58 67.03 129.65 81.06 129.60 C 85.06 129.21 89.20 128.68 92.83 126.85 C 94.47 126.08 96.07 125.26 97.61 124.31 C 100.98 121.90 103.88 118.96 106.31 115.61 C 107.26 114.08 108.08 112.47 108.85 110.85 C 110.89 106.56 111.71 101.73 111.63 97.00 C 111.61 79.02 111.61 61.03 111.63 43.05 C 111.73 38.31 110.89 33.47 108.86 29.17 C 108.08 27.53 107.25 25.90 106.29 24.36 C 102.80 19.61 98.33 15.44 92.82 13.16 C 89.19 11.32 85.03 10.77 81.03 10.39 C 65.68 10.38 50.33 10.38 34.98 10.39 C 30.95 10.76 26.81 11.35 23.14 13.15 Z" />
<path fill="#000000" opacity="1.00" d=" M 26.92 12.80 C 29.58 12.27 32.22 11.55 34.95 11.60 C 50.33 11.63 65.70 11.63 81.08 11.59 C 83.81 11.55 86.46 12.28 89.12 12.80 C 101.65 16.98 111.27 29.59 110.40 43.00 C 110.37 62.00 110.36 81.00 110.41 100.00 C 110.46 102.40 109.78 104.72 109.22 107.03 C 106.05 116.43 98.49 123.96 89.12 127.21 C 86.46 127.71 83.81 128.43 81.09 128.41 C 65.71 128.36 50.33 128.37 34.95 128.41 C 32.21 128.44 29.55 127.71 26.88 127.21 C 17.53 123.97 9.95 116.45 6.80 107.05 C 6.54 105.66 6.21 104.28 5.75 102.95 C 5.50 80.99 5.59 59.01 5.71 37.04 C 7.24 31.41 9.42 25.81 13.53 21.53 C 17.11 17.45 21.92 14.74 26.92 12.80 M 37.60 42.00 C 37.59 50.67 37.59 59.33 37.60 68.00 C 44.87 68.00 52.14 68.00 59.41 68.00 C 59.40 66.00 59.40 64.00 59.41 62.00 C 55.07 62.00 50.72 62.01 46.38 61.97 C 46.39 60.65 46.40 59.33 46.41 58.01 C 49.94 58.00 53.47 58.00 57.00 58.00 C 57.00 55.87 57.00 53.73 57.00 51.60 C 53.46 51.59 49.93 51.59 46.39 51.61 C 46.39 50.53 46.39 49.46 46.39 48.39 C 50.60 48.42 54.80 48.41 59.00 48.40 C 59.00 46.27 59.00 44.13 59.00 42.00 C 51.87 42.00 44.73 42.00 37.60 42.00 M 62.32 54.83 C 63.55 60.36 69.81 60.44 74.08 62.16 C 75.02 64.91 71.51 64.33 69.93 64.13 C 69.76 63.58 69.40 62.48 69.23 61.93 C 66.76 61.99 64.30 62.02 61.83 62.09 C 62.87 68.54 70.85 69.18 75.98 67.92 C 79.28 67.56 82.45 64.64 81.81 61.12 C 81.20 58.00 77.77 56.92 75.09 56.21 C 73.15 55.48 70.17 55.62 69.77 53.03 C 70.58 52.96 72.20 52.84 73.02 52.78 C 73.38 53.24 74.10 54.18 74.46 54.64 C 76.73 54.62 78.99 54.61 81.25 54.58 C 80.41 48.13 72.03 47.56 67.11 49.28 C 64.36 49.83 63.15 52.44 62.32 54.83 Z" />
</g>
<g id="#e76010ff">
<path fill="#e76010" opacity="1.00" d=" M 23.14 13.15 C 26.81 11.35 30.95 10.76 34.98 10.39 C 50.33 10.38 65.68 10.38 81.03 10.39 C 85.03 10.77 89.19 11.32 92.82 13.16 C 98.33 15.44 102.80 19.61 106.29 24.36 C 107.25 25.90 108.08 27.53 108.86 29.17 C 110.89 33.47 111.73 38.31 111.63 43.05 C 111.61 61.03 111.61 79.02 111.63 97.00 C 111.71 101.73 110.89 106.56 108.85 110.85 C 108.08 112.47 107.26 114.08 106.31 115.61 C 103.88 118.96 100.98 121.90 97.61 124.31 C 96.07 125.26 94.47 126.08 92.83 126.85 C 89.20 128.68 85.06 129.21 81.06 129.60 C 67.03 129.65 53.01 129.58 38.98 129.63 C 33.63 129.77 28.06 129.15 23.17 126.85 C 21.53 126.09 19.93 125.27 18.40 124.31 C 13.60 120.87 9.50 116.30 7.15 110.83 C 5.11 106.56 4.29 101.74 4.37 97.03 C 4.39 79.68 4.38 62.33 4.38 44.98 C 4.41 41.96 4.16 38.86 5.07 35.93 C 5.49 33.60 6.00 31.26 7.14 29.16 C 7.92 27.54 8.74 25.94 9.68 24.41 C 12.13 21.08 14.99 18.10 18.37 15.70 C 19.91 14.76 21.51 13.93 23.14 13.15 M 26.92 12.80 C 21.92 14.74 17.11 17.45 13.53 21.53 C 9.42 25.81 7.24 31.41 5.71 37.04 C 5.59 59.01 5.50 80.99 5.75 102.95 C 6.21 104.28 6.54 105.66 6.80 107.05 C 9.95 116.45 17.53 123.97 26.88 127.21 C 29.55 127.71 32.21 128.44 34.95 128.41 C 50.33 128.37 65.71 128.36 81.09 128.41 C 83.81 128.43 86.46 127.71 89.12 127.21 C 98.49 123.96 106.05 116.43 109.22 107.03 C 109.78 104.72 110.46 102.40 110.41 100.00 C 110.36 81.00 110.37 62.00 110.40 43.00 C 111.27 29.59 101.65 16.98 89.12 12.80 C 86.46 12.28 83.81 11.55 81.08 11.59 C 65.70 11.63 50.33 11.63 34.95 11.60 C 32.22 11.55 29.58 12.27 26.92 12.80 Z" />
<path fill="#e76010" opacity="1.00" d=" M 37.60 42.00 C 44.73 42.00 51.87 42.00 59.00 42.00 C 59.00 44.13 59.00 46.27 59.00 48.40 C 54.80 48.41 50.60 48.42 46.39 48.39 C 46.39 49.46 46.39 50.53 46.39 51.61 C 49.93 51.59 53.46 51.59 57.00 51.60 C 57.00 53.73 57.00 55.87 57.00 58.00 C 53.47 58.00 49.94 58.00 46.41 58.01 C 46.40 59.33 46.39 60.65 46.38 61.97 C 50.72 62.01 55.07 62.00 59.41 62.00 C 59.40 64.00 59.40 66.00 59.41 68.00 C 52.14 68.00 44.87 68.00 37.60 68.00 C 37.59 59.33 37.59 50.67 37.60 42.00 Z" />
<path fill="#e76010" opacity="1.00" d=" M 62.32 54.83 C 63.15 52.44 64.36 49.83 67.11 49.28 C 72.03 47.56 80.41 48.13 81.25 54.58 C 78.99 54.61 76.73 54.62 74.46 54.64 C 74.10 54.18 73.38 53.24 73.02 52.78 C 72.20 52.84 70.58 52.96 69.77 53.03 C 70.17 55.62 73.15 55.48 75.09 56.21 C 77.77 56.92 81.20 58.00 81.81 61.12 C 82.45 64.64 79.28 67.56 75.98 67.92 C 70.85 69.18 62.87 68.54 61.83 62.09 C 64.30 62.02 66.76 61.99 69.23 61.93 C 69.40 62.48 69.76 63.58 69.93 64.13 C 71.51 64.33 75.02 64.91 74.08 62.16 C 69.81 60.44 63.55 60.36 62.32 54.83 Z" />
</g>
</svg>
