<?xml version="1.0" encoding="UTF-8" ?>
<!DOCTYPE svg PUBLIC "-//W3C//DTD SVG 1.1//EN" "http://www.w3.org/Graphics/SVG/1.1/DTD/svg11.dtd">
<svg width="117pt" height="140pt" viewBox="0 0 117 140" version="1.1" xmlns="http://www.w3.org/2000/svg">
<g id="#000000ff">
<path fill="#000000" opacity="1.00" d=" M 0.00 0.00 L 117.00 0.00 L 117.00 140.00 L 0.00 140.00 L 0.00 0.00 M 33.11 10.21 C 17.89 11.81 5.18 25.62 5.01 40.94 C 5.02 60.64 4.94 80.34 5.05 100.04 C 5.71 115.61 19.30 129.25 34.88 129.94 C 50.61 130.08 66.35 129.98 82.09 129.98 C 98.05 129.83 112.31 115.96 112.95 100.02 C 113.08 80.67 112.95 61.32 113.01 41.97 C 113.08 33.33 109.36 24.77 103.08 18.85 C 96.98 12.94 88.44 9.72 79.96 9.98 C 64.35 10.17 48.71 9.71 33.11 10.21 Z" />
<path fill="#000000" opacity="1.00" d=" M 33.23 12.36 C 48.81 11.71 64.44 12.25 80.04 12.07 C 90.57 11.78 101.14 17.31 106.50 26.45 C 109.60 31.37 111.03 37.20 110.92 43.00 C 110.91 61.35 110.96 79.71 110.90 98.07 C 110.96 108.73 104.81 119.21 95.35 124.19 C 90.70 126.86 85.29 127.95 79.96 127.93 C 65.63 127.92 51.30 127.95 36.97 127.91 C 26.54 127.94 16.23 122.10 11.14 112.95 C 8.27 108.17 6.98 102.57 7.07 97.02 C 7.11 78.34 7.00 59.66 7.13 40.99 C 7.32 26.76 19.07 13.85 33.23 12.36 M 46.05 28.19 C 46.07 34.02 46.17 39.86 46.01 45.70 C 43.70 45.67 41.38 45.68 39.07 45.71 C 39.36 50.37 38.86 55.05 39.35 59.69 C 41.42 63.11 46.17 61.25 49.44 61.61 C 52.34 64.52 55.56 67.17 58.11 70.40 C 54.52 70.29 50.93 70.28 47.33 70.35 C 47.39 72.90 47.39 75.45 47.34 78.00 C 55.54 77.83 63.77 78.36 71.95 77.72 C 71.72 77.25 71.27 76.31 71.04 75.84 C 64.08 75.45 57.09 75.79 50.11 75.67 C 50.09 75.03 50.03 73.75 50.01 73.11 C 53.57 73.02 57.13 73.04 60.70 72.99 C 60.78 72.27 60.95 70.84 61.04 70.12 C 63.71 67.11 66.68 64.38 69.58 61.60 C 72.84 61.26 77.47 63.07 79.63 59.76 C 80.16 55.11 79.63 50.39 79.93 45.71 C 77.63 45.67 75.33 45.67 73.04 45.73 C 72.77 39.88 72.95 34.03 72.95 28.18 C 63.98 28.14 55.01 28.14 46.05 28.19 Z" />
<path fill="#000000" opacity="1.00" d=" M 48.77 31.04 C 55.93 30.85 63.08 31.07 70.24 31.04 C 70.22 36.79 70.35 42.53 70.14 48.28 C 72.39 48.32 74.64 48.33 76.90 48.30 C 76.97 51.84 76.91 55.38 76.97 58.92 C 65.33 59.05 53.69 58.95 42.05 58.93 C 42.07 55.39 42.06 51.86 42.07 48.32 C 48.79 48.30 55.50 48.33 62.22 48.32 C 62.22 47.66 62.22 46.34 62.22 45.68 C 57.70 45.64 53.17 45.75 48.65 45.62 C 48.73 43.82 48.77 42.03 48.86 40.24 C 53.31 40.40 57.77 40.30 62.22 40.32 C 62.22 39.66 62.22 38.34 62.22 37.68 C 57.70 37.63 53.18 37.78 48.66 37.59 C 48.73 35.41 48.76 33.22 48.77 31.04 Z" />
<path fill="#000000" opacity="1.00" d=" M 53.29 61.68 C 57.43 61.68 61.58 61.68 65.73 61.68 C 63.67 63.76 61.53 65.76 59.45 67.82 C 57.45 65.72 55.32 63.75 53.29 61.68 Z" />
</g>
<g id="#6e6f6eff">
<path fill="#6e6f6e" opacity="1.00" d=" M 33.11 10.21 C 48.71 9.71 64.35 10.17 79.96 9.98 C 88.44 9.72 96.98 12.94 103.08 18.85 C 109.36 24.77 113.08 33.33 113.01 41.97 C 112.95 61.32 113.08 80.67 112.95 100.02 C 112.31 115.96 98.05 129.83 82.09 129.98 C 66.35 129.98 50.61 130.08 34.88 129.94 C 19.30 129.25 5.71 115.61 5.05 100.04 C 4.94 80.34 5.02 60.64 5.01 40.94 C 5.18 25.62 17.89 11.81 33.11 10.21 M 33.23 12.36 C 19.07 13.85 7.32 26.76 7.13 40.99 C 7.00 59.66 7.11 78.34 7.07 97.02 C 6.98 102.57 8.27 108.17 11.14 112.95 C 16.23 122.10 26.54 127.94 36.97 127.91 C 51.30 127.95 65.63 127.92 79.96 127.93 C 85.29 127.95 90.70 126.86 95.35 124.19 C 104.81 119.21 110.96 108.73 110.90 98.07 C 110.96 79.71 110.91 61.35 110.92 43.00 C 111.03 37.20 109.60 31.37 106.50 26.45 C 101.14 17.31 90.57 11.78 80.04 12.07 C 64.44 12.25 48.81 11.71 33.23 12.36 Z" />
</g>
<g id="#f6faf6ff">
<path fill="#f6faf6" opacity="1.00" d=" M 46.05 28.19 C 55.01 28.14 63.98 28.14 72.95 28.18 C 72.95 34.03 72.77 39.88 73.04 45.73 C 75.33 45.67 77.63 45.67 79.93 45.71 C 79.63 50.39 80.16 55.11 79.63 59.76 C 77.47 63.07 72.84 61.26 69.58 61.60 C 66.68 64.38 63.71 67.11 61.04 70.12 C 60.95 70.84 60.78 72.27 60.70 72.99 C 57.13 73.04 53.57 73.02 50.01 73.11 C 50.03 73.75 50.09 75.03 50.11 75.67 C 57.09 75.79 64.08 75.45 71.04 75.84 C 71.27 76.31 71.72 77.25 71.95 77.72 C 63.77 78.36 55.54 77.83 47.34 78.00 C 47.39 75.45 47.39 72.90 47.33 70.35 C 50.93 70.28 54.52 70.29 58.11 70.40 C 55.56 67.17 52.34 64.52 49.44 61.61 C 46.17 61.25 41.42 63.11 39.35 59.69 C 38.86 55.05 39.36 50.37 39.07 45.71 C 41.38 45.68 43.70 45.67 46.01 45.70 C 46.17 39.86 46.07 34.02 46.05 28.19 M 48.77 31.04 C 48.76 33.22 48.73 35.41 48.66 37.59 C 53.18 37.78 57.70 37.63 62.22 37.68 C 62.22 38.34 62.22 39.66 62.22 40.32 C 57.77 40.30 53.31 40.40 48.86 40.24 C 48.77 42.03 48.73 43.82 48.65 45.62 C 53.17 45.75 57.70 45.64 62.22 45.68 C 62.22 46.34 62.22 47.66 62.22 48.32 C 55.50 48.33 48.79 48.30 42.07 48.32 C 42.06 51.86 42.07 55.39 42.05 58.93 C 53.69 58.95 65.33 59.05 76.97 58.92 C 76.91 55.38 76.97 51.84 76.90 48.30 C 74.64 48.33 72.39 48.32 70.14 48.28 C 70.35 42.53 70.22 36.79 70.24 31.04 C 63.08 31.07 55.93 30.85 48.77 31.04 M 53.29 61.68 C 55.32 63.75 57.45 65.72 59.45 67.82 C 61.53 65.76 63.67 63.76 65.73 61.68 C 61.58 61.68 57.43 61.68 53.29 61.68 Z" />
</g>
</svg>
