<?xml version="1.0" encoding="UTF-8" ?>
<!DOCTYPE svg PUBLIC "-//W3C//DTD SVG 1.1//EN" "http://www.w3.org/Graphics/SVG/1.1/DTD/svg11.dtd">
<svg width="117pt" height="140pt" viewBox="0 0 117 140" version="1.1" xmlns="http://www.w3.org/2000/svg">
<g id="#000000ff">
<path fill="#000000" opacity="1.00" d=" M 0.00 0.00 L 117.00 0.00 L 117.00 140.00 L 0.00 140.00 L 0.00 0.00 M 33.15 10.21 C 17.93 11.78 5.20 25.58 5.01 40.91 C 4.99 60.29 4.99 79.67 5.01 99.04 C 5.15 114.99 18.96 129.25 34.89 129.94 C 50.62 130.08 66.36 129.99 82.10 129.98 C 98.42 129.83 112.89 115.33 112.99 99.01 C 112.98 79.32 113.07 59.63 112.94 39.94 C 112.29 23.97 97.98 10.14 82.00 10.01 C 65.72 10.12 49.42 9.73 33.15 10.21 Z" />
<path fill="#000000" opacity="1.00" d=" M 30.44 12.72 C 34.23 11.86 38.13 12.00 41.98 12.00 C 55.68 12.06 69.38 11.87 83.08 12.10 C 97.94 12.77 110.85 26.11 110.95 41.01 C 111.05 60.00 110.99 79.00 110.98 98.00 C 111.17 109.55 103.86 120.69 93.32 125.34 C 88.86 127.46 83.87 128.09 78.97 128.00 C 64.28 127.93 49.59 128.13 34.91 127.90 C 20.07 127.22 7.18 113.92 7.04 99.05 C 6.97 79.71 6.98 60.37 7.04 41.03 C 7.20 27.71 17.44 15.46 30.44 12.72 M 52.84 38.81 C 47.46 42.46 42.02 46.01 36.62 49.61 C 35.15 50.30 34.71 51.83 34.40 53.29 C 40.76 58.17 47.68 62.26 54.25 66.83 C 55.59 67.97 57.37 67.86 59.01 67.89 C 59.65 64.63 59.65 61.30 59.84 58.00 C 64.12 58.40 68.52 59.32 72.02 61.96 C 74.99 63.89 76.94 66.91 79.03 69.69 C 79.98 63.24 78.47 56.05 73.32 51.68 C 69.81 47.89 64.60 46.78 59.69 46.19 C 59.17 43.10 60.72 39.05 58.19 36.69 C 56.14 36.49 54.46 37.78 52.84 38.81 Z" />
</g>
<g id="#706f6dff">
<path fill="#706f6d" opacity="1.00" d=" M 33.15 10.21 C 49.42 9.73 65.72 10.12 82.00 10.01 C 97.98 10.14 112.29 23.97 112.94 39.94 C 113.07 59.63 112.98 79.32 112.99 99.01 C 112.89 115.33 98.42 129.83 82.10 129.98 C 66.36 129.99 50.62 130.08 34.89 129.94 C 18.96 129.25 5.15 114.99 5.01 99.04 C 4.99 79.67 4.99 60.29 5.01 40.91 C 5.20 25.58 17.93 11.78 33.15 10.21 M 30.44 12.72 C 17.44 15.46 7.20 27.71 7.04 41.03 C 6.98 60.37 6.97 79.71 7.04 99.05 C 7.18 113.92 20.07 127.22 34.91 127.90 C 49.59 128.13 64.28 127.93 78.97 128.00 C 83.87 128.09 88.86 127.46 93.32 125.34 C 103.86 120.69 111.17 109.55 110.98 98.00 C 110.99 79.00 111.05 60.00 110.95 41.01 C 110.85 26.11 97.94 12.77 83.08 12.10 C 69.38 11.87 55.68 12.06 41.98 12.00 C 38.13 12.00 34.23 11.86 30.44 12.72 Z" />
</g>
<g id="#e86010ff">
<path fill="#e86010" opacity="1.00" d=" M 52.84 38.81 C 54.46 37.78 56.14 36.49 58.19 36.69 C 60.72 39.05 59.17 43.10 59.69 46.19 C 64.60 46.78 69.81 47.89 73.32 51.68 C 78.47 56.05 79.98 63.24 79.03 69.69 C 76.94 66.91 74.99 63.89 72.02 61.96 C 68.52 59.32 64.12 58.40 59.84 58.00 C 59.65 61.30 59.65 64.63 59.01 67.89 C 57.37 67.86 55.59 67.97 54.25 66.83 C 47.68 62.26 40.76 58.17 34.40 53.29 C 34.71 51.83 35.15 50.30 36.62 49.61 C 42.02 46.01 47.46 42.46 52.84 38.81 Z" />
</g>
</svg>
