<?xml version="1.0" encoding="UTF-8" ?>
<!DOCTYPE svg PUBLIC "-//W3C//DTD SVG 1.1//EN" "http://www.w3.org/Graphics/SVG/1.1/DTD/svg11.dtd">
<svg width="117pt" height="140pt" viewBox="0 0 117 140" version="1.1" xmlns="http://www.w3.org/2000/svg">
<g id="#000000ff">
<path fill="#000000" opacity="1.00" d=" M 0.00 0.00 L 117.00 0.00 L 117.00 140.00 L 0.00 140.00 L 0.00 0.00 M 33.18 10.20 C 17.93 11.76 5.17 25.60 5.01 40.96 C 4.99 60.31 4.99 79.67 5.01 99.03 C 5.14 114.98 18.95 129.25 34.89 129.94 C 50.63 130.07 66.38 129.99 82.12 129.98 C 95.64 129.76 108.15 119.87 111.77 106.90 C 113.40 101.76 112.97 96.33 113.00 91.02 C 113.00 74.69 112.99 58.37 113.01 42.04 C 113.10 33.40 109.39 24.83 103.13 18.90 C 97.04 12.97 88.50 9.73 80.03 9.98 C 64.41 10.17 48.78 9.71 33.18 10.20 Z" />
<path fill="#000000" opacity="1.00" d=" M 33.23 12.36 C 48.14 11.70 63.10 12.27 78.03 12.06 C 84.67 11.82 91.51 13.09 97.10 16.84 C 105.60 22.12 110.97 32.01 110.90 42.00 C 110.94 60.68 110.95 79.36 110.90 98.04 C 110.96 108.45 105.11 118.74 95.99 123.83 C 91.19 126.74 85.54 127.96 79.97 127.93 C 65.64 127.92 51.30 127.96 36.97 127.91 C 26.53 127.94 16.23 122.09 11.14 112.94 C 8.27 108.17 6.98 102.58 7.07 97.04 C 7.06 79.71 7.09 62.38 7.06 45.05 C 6.88 39.32 7.63 33.43 10.44 28.35 C 14.76 19.68 23.61 13.50 33.23 12.36 M 46.06 28.18 C 46.10 34.01 46.09 39.84 46.09 45.67 C 43.75 45.67 41.41 45.68 39.07 45.72 C 39.51 50.53 38.55 55.52 39.60 60.24 C 42.26 62.87 46.40 61.25 49.71 61.71 C 52.52 64.65 55.44 67.47 58.37 70.29 C 54.69 70.34 51.01 70.30 47.33 70.34 C 47.38 72.90 47.39 75.45 47.34 78.00 C 55.57 77.79 63.85 78.44 72.05 77.65 C 71.77 77.19 71.21 76.28 70.93 75.82 C 63.99 75.46 57.04 75.79 50.10 75.67 C 50.08 75.03 50.05 73.74 50.03 73.09 C 53.61 73.02 57.19 73.03 60.77 73.05 C 60.79 72.32 60.84 70.88 60.86 70.15 C 63.76 67.30 66.58 64.38 69.55 61.61 C 72.82 61.26 77.54 63.09 79.64 59.72 C 80.15 55.07 79.64 50.38 79.93 45.72 C 77.59 45.68 75.25 45.67 72.91 45.67 C 72.92 39.84 72.87 34.02 72.96 28.20 C 64.00 28.12 55.03 28.16 46.06 28.18 Z" />
<path fill="#000000" opacity="1.00" d=" M 48.75 31.05 C 55.92 31.03 63.08 31.03 70.25 31.05 C 70.21 36.79 70.35 42.53 70.14 48.27 C 72.42 48.31 74.70 48.33 76.97 48.36 C 76.91 51.88 76.92 55.39 76.97 58.91 C 65.33 59.00 53.68 58.99 42.04 58.92 C 42.07 55.39 42.07 51.86 42.06 48.33 C 48.78 48.29 55.50 48.34 62.22 48.32 C 62.22 47.66 62.22 46.34 62.22 45.68 C 57.73 45.68 53.23 45.66 48.74 45.70 C 48.75 43.90 48.75 42.10 48.76 40.30 C 53.25 40.34 57.74 40.32 62.22 40.32 C 62.22 39.66 62.22 38.34 62.22 37.68 C 57.73 37.68 53.24 37.66 48.74 37.70 C 48.75 35.48 48.75 33.26 48.75 31.05 M 57.74 51.47 C 61.07 52.19 57.95 56.40 60.36 57.94 C 60.75 55.21 60.69 52.45 60.61 49.70 C 59.64 50.28 58.69 50.88 57.74 51.47 Z" />
<path fill="#000000" opacity="1.00" d=" M 53.26 61.69 C 57.42 61.67 61.59 61.67 65.76 61.69 C 63.66 63.72 61.56 65.74 59.52 67.82 C 57.45 65.76 55.34 63.73 53.26 61.69 Z" />
</g>
<g id="#6e6f6eff">
<path fill="#6e6f6e" opacity="1.00" d=" M 33.18 10.20 C 48.78 9.71 64.41 10.17 80.03 9.98 C 88.50 9.73 97.04 12.97 103.13 18.90 C 109.39 24.83 113.10 33.40 113.01 42.04 C 112.99 58.37 113.00 74.69 113.00 91.02 C 112.97 96.33 113.40 101.76 111.77 106.90 C 108.15 119.87 95.64 129.76 82.12 129.98 C 66.38 129.99 50.63 130.07 34.89 129.94 C 18.95 129.25 5.14 114.98 5.01 99.03 C 4.99 79.67 4.99 60.31 5.01 40.96 C 5.17 25.60 17.93 11.76 33.18 10.20 M 33.23 12.36 C 23.61 13.50 14.76 19.68 10.44 28.35 C 7.63 33.43 6.88 39.32 7.06 45.05 C 7.09 62.38 7.06 79.71 7.07 97.04 C 6.98 102.58 8.27 108.17 11.14 112.94 C 16.23 122.09 26.53 127.94 36.97 127.91 C 51.30 127.96 65.64 127.92 79.97 127.93 C 85.54 127.96 91.19 126.74 95.99 123.83 C 105.11 118.74 110.96 108.45 110.90 98.04 C 110.95 79.36 110.94 60.68 110.90 42.00 C 110.97 32.01 105.60 22.12 97.10 16.84 C 91.51 13.09 84.67 11.82 78.03 12.06 C 63.10 12.27 48.14 11.70 33.23 12.36 Z" />
</g>
<g id="#f6faf6ff">
<path fill="#f6faf6" opacity="1.00" d=" M 46.06 28.18 C 55.03 28.16 64.00 28.12 72.96 28.20 C 72.87 34.02 72.92 39.84 72.91 45.67 C 75.25 45.67 77.59 45.68 79.93 45.72 C 79.64 50.38 80.15 55.07 79.64 59.72 C 77.54 63.09 72.82 61.26 69.55 61.61 C 66.58 64.38 63.76 67.30 60.86 70.15 C 60.84 70.88 60.79 72.32 60.77 73.05 C 57.19 73.03 53.61 73.02 50.03 73.09 C 50.05 73.74 50.08 75.03 50.10 75.67 C 57.04 75.79 63.99 75.46 70.93 75.82 C 71.21 76.28 71.77 77.19 72.05 77.65 C 63.85 78.44 55.57 77.79 47.34 78.00 C 47.39 75.45 47.38 72.90 47.33 70.34 C 51.01 70.30 54.69 70.34 58.37 70.29 C 55.44 67.47 52.52 64.65 49.71 61.71 C 46.40 61.25 42.26 62.87 39.60 60.24 C 38.55 55.52 39.51 50.53 39.07 45.72 C 41.41 45.68 43.75 45.67 46.09 45.67 C 46.09 39.84 46.10 34.01 46.06 28.18 M 48.75 31.05 C 48.75 33.26 48.75 35.48 48.74 37.70 C 53.24 37.66 57.73 37.68 62.22 37.68 C 62.22 38.34 62.22 39.66 62.22 40.32 C 57.74 40.32 53.25 40.34 48.76 40.30 C 48.75 42.10 48.75 43.90 48.74 45.70 C 53.23 45.66 57.73 45.68 62.22 45.68 C 62.22 46.34 62.22 47.66 62.22 48.32 C 55.50 48.34 48.78 48.29 42.06 48.33 C 42.07 51.86 42.07 55.39 42.04 58.92 C 53.68 58.99 65.33 59.00 76.97 58.91 C 76.92 55.39 76.91 51.88 76.97 48.36 C 74.70 48.33 72.42 48.31 70.14 48.27 C 70.35 42.53 70.21 36.79 70.25 31.05 C 63.08 31.03 55.92 31.03 48.75 31.05 M 53.26 61.69 C 55.34 63.73 57.45 65.76 59.52 67.82 C 61.56 65.74 63.66 63.72 65.76 61.69 C 61.59 61.67 57.42 61.67 53.26 61.69 Z" />
<path fill="#f6faf6" opacity="1.00" d=" M 57.74 51.47 C 58.69 50.88 59.64 50.28 60.61 49.70 C 60.69 52.45 60.75 55.21 60.36 57.94 C 57.95 56.40 61.07 52.19 57.74 51.47 Z" />
</g>
</svg>
