<?xml version="1.0" encoding="UTF-8" ?>
<!DOCTYPE svg PUBLIC "-//W3C//DTD SVG 1.1//EN" "http://www.w3.org/Graphics/SVG/1.1/DTD/svg11.dtd">
<svg width="117pt" height="140pt" viewBox="0 0 117 140" version="1.1" xmlns="http://www.w3.org/2000/svg">
<g id="#000000ff">
<path fill="#000000" opacity="1.00" d=" M 0.00 0.00 L 117.00 0.00 L 117.00 140.00 L 0.00 140.00 L 0.00 0.00 M 35.17 42.08 C 35.18 50.70 35.18 59.33 35.17 67.95 C 38.04 68.00 40.92 68.00 43.79 67.96 C 43.85 64.92 43.81 61.89 43.93 58.86 C 45.78 59.03 47.70 58.95 49.48 59.59 C 51.31 61.92 50.67 65.18 51.14 67.94 C 53.94 68.00 56.74 68.02 59.54 68.05 C 58.94 63.83 59.58 59.04 56.32 55.75 C 57.79 53.47 59.41 50.95 58.93 48.09 C 58.89 44.85 55.74 42.80 52.82 42.42 C 46.97 41.71 41.05 42.01 35.17 42.08 M 62.81 49.15 C 62.73 54.55 61.77 60.22 63.58 65.42 C 65.88 69.41 71.10 68.53 74.73 67.20 C 77.57 67.39 80.38 68.29 83.27 68.10 C 83.46 61.79 83.56 55.46 83.20 49.15 C 80.73 49.17 78.26 49.17 75.79 49.15 C 75.45 53.20 75.95 57.32 75.24 61.33 C 74.38 63.09 72.16 62.35 70.62 62.56 C 70.37 58.10 70.41 53.62 70.22 49.15 C 67.75 49.17 65.28 49.17 62.81 49.15 Z" />
<path fill="#000000" opacity="1.00" d=" M 44.14 48.21 C 46.22 48.33 48.29 48.48 50.36 48.62 C 50.65 49.75 50.95 50.89 51.27 52.02 C 48.95 53.21 46.36 53.30 43.81 53.19 C 43.84 51.52 43.96 49.86 44.14 48.21 Z" />
</g>
<g id="#f8fcf8ff">
<path fill="#f8fcf8" opacity="1.00" d=" M 35.17 42.08 C 41.05 42.01 46.97 41.71 52.82 42.42 C 55.74 42.80 58.89 44.85 58.93 48.09 C 59.41 50.95 57.79 53.47 56.32 55.75 C 59.58 59.04 58.94 63.83 59.54 68.05 C 56.74 68.02 53.94 68.00 51.14 67.94 C 50.67 65.18 51.31 61.92 49.48 59.59 C 47.70 58.95 45.78 59.03 43.93 58.86 C 43.81 61.89 43.85 64.92 43.79 67.96 C 40.92 68.00 38.04 68.00 35.17 67.95 C 35.18 59.33 35.18 50.70 35.17 42.08 M 44.14 48.21 C 43.96 49.86 43.84 51.52 43.81 53.19 C 46.36 53.30 48.95 53.21 51.27 52.02 C 50.95 50.89 50.65 49.75 50.36 48.62 C 48.29 48.48 46.22 48.33 44.14 48.21 Z" />
<path fill="#f8fcf8" opacity="1.00" d=" M 62.81 49.15 C 65.28 49.17 67.75 49.17 70.22 49.15 C 70.41 53.62 70.37 58.10 70.62 62.56 C 72.16 62.35 74.38 63.09 75.24 61.33 C 75.95 57.32 75.45 53.20 75.79 49.15 C 78.26 49.17 80.73 49.17 83.20 49.15 C 83.56 55.46 83.46 61.79 83.27 68.10 C 80.38 68.29 77.57 67.39 74.73 67.20 C 71.10 68.53 65.88 69.41 63.58 65.42 C 61.77 60.22 62.73 54.55 62.81 49.15 Z" />
</g>
</svg>
