<?xml version="1.0" encoding="UTF-8" ?>
<!DOCTYPE svg PUBLIC "-//W3C//DTD SVG 1.1//EN" "http://www.w3.org/Graphics/SVG/1.1/DTD/svg11.dtd">
<svg width="117pt" height="140pt" viewBox="0 0 117 140" version="1.1" xmlns="http://www.w3.org/2000/svg">
<g id="#000000ff">
<path fill="#000000" opacity="1.00" d=" M 0.00 0.00 L 117.00 0.00 L 117.00 140.00 L 0.00 140.00 L 0.00 0.00 M 33.21 10.21 C 17.94 11.76 5.19 25.60 5.02 40.96 C 4.99 60.32 4.99 79.67 5.01 99.03 C 5.17 115.00 19.00 129.27 34.95 129.93 C 50.65 130.08 66.36 129.99 82.06 129.98 C 95.08 129.76 107.21 120.63 111.32 108.32 C 112.70 104.36 113.13 100.14 113.02 95.97 C 112.98 77.98 113.01 60.00 113.01 42.01 C 113.07 33.36 109.36 24.79 103.07 18.86 C 96.99 12.95 88.46 9.75 79.99 9.98 C 64.40 10.16 48.79 9.70 33.21 10.21 Z" />
<path fill="#000000" opacity="1.00" d=" M 30.45 12.71 C 33.58 11.99 36.80 11.96 39.99 11.99 C 54.35 12.06 68.70 11.89 83.06 12.08 C 97.91 12.76 110.82 26.05 110.96 40.94 C 111.02 60.30 111.03 79.67 110.96 99.03 C 110.86 114.28 97.29 127.84 82.04 127.95 C 66.69 128.04 51.32 128.01 35.96 127.97 C 20.71 127.82 7.15 114.29 7.03 99.03 C 6.98 79.68 6.99 60.34 7.02 40.99 C 7.20 27.68 17.45 15.44 30.45 12.71 M 36.41 45.40 C 33.94 46.86 32.63 50.18 34.37 52.71 C 36.82 55.25 39.86 57.11 42.54 59.38 C 44.29 61.11 46.79 60.41 48.87 59.91 C 49.63 57.34 50.19 54.70 50.04 52.00 C 52.03 52.00 54.01 52.00 56.00 52.00 C 56.00 51.25 56.00 49.75 56.00 49.00 C 54.00 49.00 52.01 49.00 50.01 49.00 C 50.21 45.97 49.80 42.97 48.88 40.09 C 43.72 37.69 40.23 42.92 36.41 45.40 M 68.00 41.22 C 68.00 47.08 68.00 52.93 68.00 58.79 C 70.12 59.62 72.45 61.55 74.71 59.92 C 77.55 57.66 80.56 55.61 83.21 53.15 C 85.26 51.06 84.55 47.36 82.14 45.86 C 79.70 43.88 77.18 41.99 74.70 40.06 C 72.44 38.47 70.09 40.34 68.00 41.22 M 57.00 49.00 C 57.00 49.75 57.00 51.25 57.00 52.00 C 57.75 52.00 59.25 52.00 60.00 52.00 C 60.00 51.25 60.00 49.75 60.00 49.00 C 59.25 49.00 57.75 49.00 57.00 49.00 M 61.00 49.00 C 61.00 49.75 61.00 51.25 61.00 52.00 C 63.00 52.00 65.00 52.00 67.00 52.00 C 67.00 51.25 67.00 49.75 67.00 49.00 C 65.00 49.00 63.00 49.00 61.00 49.00 Z" />
<path fill="#000000" opacity="1.00" d=" M 37.01 50.00 C 40.01 47.70 42.94 45.31 46.00 43.09 C 45.99 47.72 46.02 52.34 45.98 56.97 C 42.99 54.64 39.99 52.33 37.01 50.00 Z" />
<path fill="#000000" opacity="1.00" d=" M 72.00 43.04 C 75.01 45.34 78.00 47.68 80.99 50.00 C 78.00 52.33 75.01 54.64 72.01 56.97 C 71.99 52.32 72.00 47.68 72.00 43.04 Z" />
</g>
<g id="#717271ff">
<path fill="#717271" opacity="1.00" d=" M 33.21 10.21 C 48.79 9.70 64.40 10.16 79.99 9.98 C 88.46 9.75 96.99 12.95 103.07 18.86 C 109.36 24.79 113.07 33.36 113.01 42.01 C 113.01 60.00 112.98 77.98 113.02 95.97 C 113.13 100.14 112.70 104.36 111.32 108.32 C 107.21 120.63 95.08 129.76 82.06 129.98 C 66.36 129.99 50.65 130.08 34.95 129.93 C 19.00 129.27 5.17 115.00 5.01 99.03 C 4.99 79.67 4.99 60.32 5.02 40.96 C 5.19 25.60 17.94 11.76 33.21 10.21 M 30.45 12.71 C 17.45 15.44 7.20 27.68 7.02 40.99 C 6.99 60.34 6.98 79.68 7.03 99.03 C 7.15 114.29 20.71 127.82 35.96 127.97 C 51.32 128.01 66.69 128.04 82.04 127.95 C 97.29 127.84 110.86 114.28 110.96 99.03 C 111.03 79.67 111.02 60.30 110.96 40.94 C 110.82 26.05 97.91 12.76 83.06 12.08 C 68.70 11.89 54.35 12.06 39.99 11.99 C 36.80 11.96 33.58 11.99 30.45 12.71 Z" />
</g>
<g id="#f8fcf8ff">
<path fill="#f8fcf8" opacity="1.00" d=" M 36.41 45.40 C 40.23 42.92 43.72 37.69 48.88 40.09 C 49.80 42.97 50.21 45.97 50.01 49.00 C 52.01 49.00 54.00 49.00 56.00 49.00 C 56.00 49.75 56.00 51.25 56.00 52.00 C 54.01 52.00 52.03 52.00 50.04 52.00 C 50.19 54.70 49.63 57.34 48.87 59.91 C 46.79 60.41 44.29 61.11 42.54 59.38 C 39.86 57.11 36.82 55.25 34.37 52.71 C 32.63 50.18 33.94 46.86 36.41 45.40 M 37.01 50.00 C 39.99 52.33 42.99 54.64 45.98 56.97 C 46.02 52.34 45.99 47.72 46.00 43.09 C 42.94 45.31 40.01 47.70 37.01 50.00 Z" />
<path fill="#f8fcf8" opacity="1.00" d=" M 68.00 41.22 C 70.09 40.34 72.44 38.47 74.70 40.06 C 77.18 41.99 79.70 43.88 82.14 45.86 C 84.55 47.36 85.26 51.06 83.21 53.15 C 80.56 55.61 77.55 57.66 74.71 59.92 C 72.45 61.55 70.12 59.62 68.00 58.79 C 68.00 52.93 68.00 47.08 68.00 41.22 M 72.00 43.04 C 72.00 47.68 71.99 52.32 72.01 56.97 C 75.01 54.64 78.00 52.33 80.99 50.00 C 78.00 47.68 75.01 45.34 72.00 43.04 Z" />
<path fill="#f8fcf8" opacity="1.00" d=" M 57.00 49.00 C 57.75 49.00 59.25 49.00 60.00 49.00 C 60.00 49.75 60.00 51.25 60.00 52.00 C 59.25 52.00 57.75 52.00 57.00 52.00 C 57.00 51.25 57.00 49.75 57.00 49.00 Z" />
<path fill="#f8fcf8" opacity="1.00" d=" M 61.00 49.00 C 63.00 49.00 65.00 49.00 67.00 49.00 C 67.00 49.75 67.00 51.25 67.00 52.00 C 65.00 52.00 63.00 52.00 61.00 52.00 C 61.00 51.25 61.00 49.75 61.00 49.00 Z" />
</g>
</svg>
