<?xml version="1.0" encoding="UTF-8" ?>
<!DOCTYPE svg PUBLIC "-//W3C//DTD SVG 1.1//EN" "http://www.w3.org/Graphics/SVG/1.1/DTD/svg11.dtd">
<svg width="117pt" height="140pt" viewBox="0 0 117 140" version="1.1" xmlns="http://www.w3.org/2000/svg">
<g id="#000000ff">
<path fill="#000000" opacity="1.00" d=" M 0.00 0.00 L 117.00 0.00 L 117.00 140.00 L 0.00 140.00 L 0.00 0.00 M 33.19 10.22 C 17.95 11.78 5.22 25.59 5.02 40.92 C 5.01 60.62 4.92 80.34 5.07 100.05 C 5.73 115.99 19.99 129.83 35.96 129.97 C 51.66 129.98 67.37 130.10 83.08 129.91 C 99.01 129.26 112.85 114.98 112.97 99.03 C 113.02 79.67 113.02 60.31 112.97 40.96 C 112.77 28.18 103.97 16.18 91.95 11.94 C 84.63 9.08 76.66 10.22 69.01 10.00 C 57.07 10.15 45.11 9.70 33.19 10.22 Z" />
<path fill="#000000" opacity="1.00" d=" M 33.25 12.34 C 49.50 11.76 65.80 12.16 82.07 12.13 C 97.27 12.27 110.76 25.75 110.87 40.95 C 111.00 59.96 110.92 78.97 110.91 97.99 C 111.04 108.73 104.78 119.28 95.26 124.27 C 90.33 127.10 84.57 128.05 78.95 127.94 C 64.25 127.84 49.55 128.09 34.86 127.81 C 20.06 127.12 7.25 113.86 7.13 99.03 C 7.03 79.68 7.03 60.32 7.13 40.96 C 7.29 26.73 19.09 13.81 33.25 12.34 M 72.52 40.35 C 71.08 44.53 72.00 49.08 74.08 52.86 C 75.62 55.63 75.44 59.00 73.97 61.76 C 74.51 62.20 75.57 63.10 76.10 63.55 C 77.21 61.54 78.20 59.37 78.03 57.01 C 78.11 52.36 74.00 48.72 74.70 43.96 C 74.44 41.59 77.02 39.30 75.82 37.12 C 73.60 36.26 73.14 38.84 72.52 40.35 M 57.80 56.12 C 60.25 59.36 55.27 63.58 59.22 65.76 C 60.48 63.72 61.44 61.40 61.26 58.95 C 61.24 54.32 57.17 50.66 57.95 45.90 C 57.73 43.39 61.17 40.35 58.13 38.56 C 53.52 43.34 54.78 50.82 57.80 56.12 M 39.68 57.22 C 41.28 60.03 41.90 63.39 40.55 66.43 C 39.61 67.93 41.61 68.34 42.52 69.02 C 44.25 65.58 44.85 61.45 43.09 57.90 C 41.39 54.59 39.97 50.76 41.35 47.07 C 41.72 45.52 43.60 42.99 41.00 42.35 C 37.01 45.98 37.32 52.68 39.68 57.22 M 35.10 73.09 C 35.09 73.79 35.07 75.19 35.06 75.89 C 51.01 76.08 66.97 76.06 82.92 75.90 C 82.93 75.20 82.93 73.81 82.94 73.12 C 66.99 72.90 51.04 72.96 35.10 73.09 Z" />
</g>
<g id="#727372ff">
<path fill="#727372" opacity="1.00" d=" M 33.19 10.22 C 45.11 9.70 57.07 10.15 69.01 10.00 C 76.66 10.22 84.63 9.08 91.95 11.94 C 103.97 16.18 112.77 28.18 112.97 40.96 C 113.02 60.31 113.02 79.67 112.97 99.03 C 112.85 114.98 99.01 129.26 83.08 129.91 C 67.37 130.10 51.66 129.98 35.96 129.97 C 19.99 129.83 5.73 115.99 5.07 100.05 C 4.92 80.34 5.01 60.62 5.02 40.92 C 5.22 25.59 17.95 11.78 33.19 10.22 M 33.25 12.34 C 19.09 13.81 7.29 26.73 7.13 40.96 C 7.03 60.32 7.03 79.68 7.13 99.03 C 7.25 113.86 20.06 127.12 34.86 127.81 C 49.55 128.09 64.25 127.84 78.95 127.94 C 84.57 128.05 90.33 127.10 95.26 124.27 C 104.78 119.28 111.04 108.73 110.91 97.99 C 110.92 78.97 111.00 59.96 110.87 40.95 C 110.76 25.75 97.27 12.27 82.07 12.13 C 65.80 12.16 49.50 11.76 33.25 12.34 Z" />
</g>
<g id="#f8fcf8ff">
<path fill="#f8fcf8" opacity="1.00" d=" M 72.52 40.35 C 73.14 38.84 73.60 36.26 75.82 37.12 C 77.02 39.30 74.44 41.59 74.70 43.96 C 74.00 48.72 78.11 52.36 78.03 57.01 C 78.20 59.37 77.21 61.54 76.10 63.55 C 75.57 63.10 74.51 62.20 73.97 61.76 C 75.44 59.00 75.62 55.63 74.08 52.86 C 72.00 49.08 71.08 44.53 72.52 40.35 Z" />
<path fill="#f8fcf8" opacity="1.00" d=" M 57.80 56.12 C 54.78 50.82 53.52 43.34 58.13 38.56 C 61.17 40.35 57.73 43.39 57.95 45.90 C 57.17 50.66 61.24 54.32 61.26 58.95 C 61.44 61.40 60.48 63.72 59.22 65.76 C 55.27 63.58 60.25 59.36 57.80 56.12 Z" />
<path fill="#f8fcf8" opacity="1.00" d=" M 39.68 57.22 C 37.32 52.68 37.01 45.98 41.00 42.35 C 43.60 42.99 41.72 45.52 41.35 47.07 C 39.97 50.76 41.39 54.59 43.09 57.90 C 44.85 61.45 44.25 65.58 42.52 69.02 C 41.61 68.34 39.61 67.93 40.55 66.43 C 41.90 63.39 41.28 60.03 39.68 57.22 Z" />
<path fill="#f8fcf8" opacity="1.00" d=" M 35.10 73.09 C 51.04 72.96 66.99 72.90 82.94 73.12 C 82.93 73.81 82.93 75.20 82.92 75.90 C 66.97 76.06 51.01 76.08 35.06 75.89 C 35.07 75.19 35.09 73.79 35.10 73.09 Z" />
</g>
</svg>
