<?xml version="1.0" encoding="UTF-8" ?>
<!DOCTYPE svg PUBLIC "-//W3C//DTD SVG 1.1//EN" "http://www.w3.org/Graphics/SVG/1.1/DTD/svg11.dtd">
<svg width="200pt" height="200pt" viewBox="0 0 200 200" version="1.1" xmlns="http://www.w3.org/2000/svg">
<g id="#000000ff">
<path fill="#000000" opacity="1.00" d=" M 0.00 0.00 L 200.00 0.00 L 200.00 200.00 L 0.00 200.00 L 0.00 0.00 M 62.41 49.42 C 48.76 56.59 38.50 69.71 34.47 84.55 C 30.54 98.35 32.04 113.60 38.51 126.40 C 44.28 138.04 54.21 147.58 66.13 152.79 C 79.64 158.84 95.68 159.00 109.27 153.13 C 122.71 147.71 133.53 136.56 139.23 123.31 C 144.40 111.11 145.60 96.97 141.58 84.28 C 127.91 88.56 114.11 92.43 100.39 96.57 C 101.57 100.70 102.70 104.84 103.92 108.95 C 109.90 107.18 115.88 105.40 121.87 103.65 C 121.25 108.46 119.89 113.21 117.48 117.43 C 111.58 128.33 99.35 135.39 86.94 134.89 C 76.04 134.51 65.63 128.38 59.83 119.17 C 54.61 111.05 52.99 100.70 55.45 91.36 C 58.11 80.73 66.12 71.54 76.41 67.69 C 82.73 65.21 89.74 65.05 96.33 66.46 C 99.87 59.73 103.63 53.11 107.07 46.33 C 92.62 40.99 75.98 42.12 62.41 49.42 M 157.35 140.40 C 151.71 142.10 150.24 150.47 155.10 153.88 C 159.56 157.82 167.36 153.96 167.09 148.06 C 167.64 143.01 162.13 138.65 157.35 140.40 Z" />
</g>
<g id="#707070ff">
<path fill="#707070" opacity="1.00" d=" M 62.41 49.42 C 75.98 42.12 92.62 40.99 107.07 46.33 C 103.63 53.11 99.87 59.73 96.33 66.46 C 89.74 65.05 82.73 65.21 76.41 67.69 C 66.12 71.54 58.11 80.73 55.45 91.36 C 52.99 100.70 54.61 111.05 59.83 119.17 C 65.63 128.38 76.04 134.51 86.94 134.89 C 99.35 135.39 111.58 128.33 117.48 117.43 C 119.89 113.21 121.25 108.46 121.87 103.65 C 115.88 105.40 109.90 107.18 103.92 108.95 C 102.70 104.84 101.57 100.70 100.39 96.57 C 114.11 92.43 127.91 88.56 141.58 84.28 C 145.60 96.97 144.40 111.11 139.23 123.31 C 133.53 136.56 122.71 147.71 109.27 153.13 C 95.68 159.00 79.64 158.84 66.13 152.79 C 54.21 147.58 44.28 138.04 38.51 126.40 C 32.04 113.60 30.54 98.35 34.47 84.55 C 38.50 69.71 48.76 56.59 62.41 49.42 Z" />
<path fill="#707070" opacity="1.00" d=" M 157.35 140.40 C 162.13 138.65 167.64 143.01 167.09 148.06 C 167.36 153.96 159.56 157.82 155.10 153.88 C 150.24 150.47 151.71 142.10 157.35 140.40 Z" />
</g>
</svg>
