<?xml version="1.0" encoding="UTF-8" ?>
<!DOCTYPE svg PUBLIC "-//W3C//DTD SVG 1.1//EN" "http://www.w3.org/Graphics/SVG/1.1/DTD/svg11.dtd">
<svg width="117pt" height="140pt" viewBox="0 0 117 140" version="1.1" xmlns="http://www.w3.org/2000/svg">
<g id="#384450ff">
<path fill="#384450" opacity="1.00" d=" M 0.00 0.00 L 117.00 0.00 L 117.00 140.00 L 0.00 140.00 L 0.00 0.00 M 41.19 53.18 C 38.67 54.47 38.65 58.51 41.18 59.79 C 43.12 61.36 45.90 60.12 46.86 58.04 C 48.68 54.87 44.07 50.82 41.19 53.18 M 56.46 53.51 C 54.80 54.83 54.50 57.50 56.04 59.04 C 57.75 61.54 61.81 60.55 62.74 57.80 C 64.24 54.31 59.14 50.58 56.46 53.51 M 72.49 53.33 C 71.37 54.24 70.42 55.54 70.79 57.07 C 71.27 60.39 76.00 61.76 77.93 58.79 C 80.79 55.58 75.68 50.40 72.49 53.33 Z" />
</g>
<g id="#f8fcf8ff">
<path fill="#f8fcf8" opacity="1.00" d=" M 41.19 53.18 C 44.07 50.82 48.68 54.87 46.86 58.04 C 45.90 60.12 43.12 61.36 41.18 59.79 C 38.65 58.51 38.67 54.47 41.19 53.18 Z" />
<path fill="#f8fcf8" opacity="1.00" d=" M 56.46 53.51 C 59.14 50.58 64.24 54.31 62.74 57.80 C 61.81 60.55 57.75 61.54 56.04 59.04 C 54.50 57.50 54.80 54.83 56.46 53.51 Z" />
<path fill="#f8fcf8" opacity="1.00" d=" M 72.49 53.33 C 75.68 50.40 80.79 55.58 77.93 58.79 C 76.00 61.76 71.27 60.39 70.79 57.07 C 70.42 55.54 71.37 54.24 72.49 53.33 Z" />
</g>
</svg>
