<?xml version="1.0" encoding="UTF-8" ?>
<!DOCTYPE svg PUBLIC "-//W3C//DTD SVG 1.1//EN" "http://www.w3.org/Graphics/SVG/1.1/DTD/svg11.dtd">
<svg width="117pt" height="140pt" viewBox="0 0 117 140" version="1.1" xmlns="http://www.w3.org/2000/svg">
<g id="#000000ff">
<path fill="#000000" opacity="1.00" d=" M 0.00 0.00 L 117.00 0.00 L 117.00 140.00 L 0.00 140.00 L 0.00 0.00 M 50.69 29.99 C 50.51 31.45 50.34 32.91 50.15 34.37 C 44.94 34.43 39.68 33.92 34.50 34.63 C 32.28 34.69 32.05 37.23 32.00 38.94 C 31.87 47.97 32.09 57.00 31.94 66.03 C 32.03 69.07 31.63 72.28 32.85 75.15 C 35.07 76.11 37.55 76.01 39.91 76.05 C 51.97 75.98 64.03 75.97 76.09 76.05 C 78.46 76.01 80.92 76.07 83.17 75.17 C 84.32 72.27 83.99 69.08 84.06 66.03 C 83.92 57.00 84.14 47.97 84.00 38.94 C 83.93 37.25 83.73 34.67 81.50 34.63 C 76.32 33.92 71.06 34.44 65.85 34.37 C 65.66 32.91 65.48 31.45 65.31 29.99 C 60.44 30.05 55.56 30.05 50.69 29.99 Z" />
<path fill="#000000" opacity="1.00" d=" M 51.15 32.76 C 55.64 31.66 60.36 31.66 64.85 32.75 C 60.63 35.04 55.37 35.03 51.15 32.76 Z" />
<path fill="#000000" opacity="1.00" d=" M 35.01 37.57 C 50.34 37.54 65.66 37.54 80.99 37.57 C 81.00 43.04 81.00 48.51 80.98 53.98 C 76.00 53.96 71.02 53.94 66.03 54.02 C 65.66 52.50 65.29 50.99 64.90 49.47 C 60.30 49.58 55.70 49.58 51.09 49.47 C 50.71 50.99 50.34 52.50 49.97 54.02 C 44.99 53.94 40.00 53.96 35.02 53.98 C 35.00 48.51 35.00 43.04 35.01 37.57 Z" />
<path fill="#000000" opacity="1.00" d=" M 52.43 51.53 C 56.14 51.55 59.86 51.55 63.58 51.53 C 63.59 53.78 63.61 56.03 63.60 58.28 C 59.87 58.33 56.13 58.33 52.40 58.27 C 52.39 56.03 52.41 53.78 52.43 51.53 Z" />
<path fill="#000000" opacity="1.00" d=" M 35.01 55.88 C 39.98 55.87 44.96 55.88 49.93 55.88 C 50.34 57.37 50.75 58.86 51.18 60.34 C 55.73 60.23 60.27 60.22 64.82 60.34 C 65.25 58.86 65.65 57.37 66.07 55.88 C 71.04 55.88 76.02 55.87 80.99 55.88 C 81.00 61.58 81.00 67.29 81.00 73.00 C 65.67 73.00 50.33 73.00 35.00 73.00 C 35.00 67.29 35.00 61.58 35.01 55.88 Z" />
</g>
<g id="#f8fcf8ff">
<path fill="#f8fcf8" opacity="1.00" d=" M 50.69 29.99 C 55.56 30.05 60.44 30.05 65.31 29.99 C 65.48 31.45 65.66 32.91 65.85 34.37 C 71.06 34.44 76.32 33.92 81.50 34.63 C 83.73 34.67 83.93 37.25 84.00 38.94 C 84.14 47.97 83.92 57.00 84.06 66.03 C 83.99 69.08 84.32 72.27 83.17 75.17 C 80.92 76.07 78.46 76.01 76.09 76.05 C 64.03 75.97 51.97 75.98 39.91 76.05 C 37.55 76.01 35.07 76.11 32.85 75.15 C 31.63 72.28 32.03 69.07 31.94 66.03 C 32.09 57.00 31.87 47.97 32.00 38.94 C 32.05 37.23 32.28 34.69 34.50 34.63 C 39.68 33.92 44.94 34.43 50.15 34.37 C 50.34 32.91 50.51 31.45 50.69 29.99 M 51.15 32.76 C 55.37 35.03 60.63 35.04 64.85 32.75 C 60.36 31.66 55.64 31.66 51.15 32.76 M 35.01 37.57 C 35.00 43.04 35.00 48.51 35.02 53.98 C 40.00 53.96 44.99 53.94 49.97 54.02 C 50.34 52.50 50.71 50.99 51.09 49.47 C 55.70 49.58 60.30 49.58 64.90 49.47 C 65.29 50.99 65.66 52.50 66.03 54.02 C 71.02 53.94 76.00 53.96 80.98 53.98 C 81.00 48.51 81.00 43.04 80.99 37.57 C 65.66 37.54 50.34 37.54 35.01 37.57 M 52.43 51.53 C 52.41 53.78 52.39 56.03 52.40 58.27 C 56.13 58.33 59.87 58.33 63.60 58.28 C 63.61 56.03 63.59 53.78 63.58 51.53 C 59.86 51.55 56.14 51.55 52.43 51.53 M 35.01 55.88 C 35.00 61.58 35.00 67.29 35.00 73.00 C 50.33 73.00 65.67 73.00 81.00 73.00 C 81.00 67.29 81.00 61.58 80.99 55.88 C 76.02 55.87 71.04 55.88 66.07 55.88 C 65.65 57.37 65.25 58.86 64.82 60.34 C 60.27 60.22 55.73 60.23 51.18 60.34 C 50.75 58.86 50.34 57.37 49.93 55.88 C 44.96 55.88 39.98 55.87 35.01 55.88 Z" />
</g>
</svg>
