<?xml version="1.0" encoding="UTF-8" ?>
<!DOCTYPE svg PUBLIC "-//W3C//DTD SVG 1.1//EN" "http://www.w3.org/Graphics/SVG/1.1/DTD/svg11.dtd">
<svg width="117pt" height="140pt" viewBox="0 0 117 140" version="1.1" xmlns="http://www.w3.org/2000/svg">
<g id="#000000ff">
<path fill="#000000" opacity="1.00" d=" M 0.00 0.00 L 117.00 0.00 L 117.00 140.00 L 0.00 140.00 L 0.00 0.00 M 33.15 10.24 C 17.91 11.79 5.19 25.64 5.03 40.98 C 4.98 60.35 4.98 79.71 5.03 99.08 C 5.20 115.01 18.98 129.24 34.90 129.92 C 50.61 130.09 66.32 130.00 82.03 129.96 C 98.35 129.85 112.84 115.38 112.97 99.07 C 113.05 80.05 112.98 61.02 113.00 42.01 C 113.20 28.89 104.35 16.33 92.01 11.96 C 84.68 9.10 76.71 10.20 69.05 10.00 C 57.09 10.16 45.10 9.68 33.15 10.24 Z" />
<path fill="#000000" opacity="1.00" d=" M 30.51 12.69 C 33.64 12.00 36.86 11.97 40.04 11.99 C 54.39 12.07 68.74 11.87 83.08 12.09 C 98.33 12.74 111.42 26.76 110.99 42.03 C 111.01 60.68 111.01 79.32 110.98 97.97 C 111.51 114.38 96.37 128.96 80.01 128.00 C 65.00 127.94 49.98 128.12 34.98 127.91 C 19.73 127.29 6.61 113.30 7.01 98.03 C 7.01 79.01 6.96 59.99 7.04 40.97 C 7.19 27.63 17.50 15.40 30.51 12.69 M 40.76 45.04 C 41.60 46.15 42.54 47.17 43.44 48.24 C 46.76 46.65 50.22 44.98 53.98 44.98 C 58.45 44.86 62.70 46.85 66.24 49.44 C 68.12 46.90 69.86 44.25 71.41 41.49 C 68.61 38.05 63.26 37.49 58.99 37.45 C 52.23 36.99 45.03 39.69 40.76 45.04 M 58.17 62.65 C 59.59 63.14 60.99 63.67 62.40 64.18 C 64.17 59.96 66.37 55.94 68.41 51.85 C 70.59 55.42 71.38 59.49 71.97 63.57 C 75.72 63.58 79.46 63.59 83.21 63.55 C 84.26 54.99 79.51 46.83 72.91 41.71 C 68.60 49.09 62.95 55.58 58.17 62.65 M 33.78 58.73 C 34.70 59.14 35.62 59.56 36.55 59.96 C 37.66 56.56 38.92 53.15 41.43 50.51 C 43.36 48.71 40.31 47.42 39.15 46.39 C 36.61 50.12 34.51 54.23 33.78 58.73 M 55.17 65.26 C 54.86 66.79 54.92 68.33 55.23 69.86 C 57.29 70.76 60.47 70.60 60.80 67.82 C 60.98 64.83 57.34 64.24 55.17 65.26 Z" />
<path fill="#000000" opacity="1.00" d=" M 54.77 41.19 C 56.45 40.89 58.15 40.73 59.85 40.57 C 59.72 41.00 59.47 41.84 59.35 42.27 C 57.82 41.94 56.29 41.58 54.77 41.19 Z" />
<path fill="#000000" opacity="1.00" d=" M 62.75 41.09 C 64.16 41.44 65.57 41.81 66.98 42.16 C 66.36 43.00 65.75 43.85 65.13 44.70 C 63.89 43.81 62.72 42.78 62.75 41.09 Z" />
<path fill="#000000" opacity="1.00" d=" M 72.41 49.58 C 71.78 48.59 72.81 46.53 74.10 47.12 C 74.89 48.09 73.57 50.00 72.41 49.58 Z" />
<path fill="#000000" opacity="1.00" d=" M 72.87 53.26 C 74.07 52.28 75.26 51.29 76.47 50.32 C 77.02 51.46 77.58 52.61 78.15 53.75 C 76.77 54.32 75.41 54.92 74.04 55.51 C 73.75 54.95 73.17 53.83 72.87 53.26 Z" />
<path fill="#000000" opacity="1.00" d=" M 74.18 59.90 C 75.69 58.69 77.39 57.74 79.07 56.77 C 79.28 57.85 79.51 58.94 79.74 60.02 C 77.88 60.01 76.03 59.99 74.18 59.90 Z" />
</g>
<g id="#737373ff">
<path fill="#737373" opacity="1.00" d=" M 33.15 10.24 C 45.10 9.68 57.09 10.16 69.05 10.00 C 76.71 10.20 84.68 9.10 92.01 11.96 C 104.35 16.33 113.20 28.89 113.00 42.01 C 112.98 61.02 113.05 80.05 112.97 99.07 C 112.84 115.38 98.35 129.85 82.03 129.96 C 66.32 130.00 50.61 130.09 34.90 129.92 C 18.98 129.24 5.20 115.01 5.03 99.08 C 4.98 79.71 4.98 60.35 5.03 40.98 C 5.19 25.64 17.91 11.79 33.15 10.24 M 30.51 12.69 C 17.50 15.40 7.19 27.63 7.04 40.97 C 6.96 59.99 7.01 79.01 7.01 98.03 C 6.61 113.30 19.73 127.29 34.98 127.91 C 49.98 128.12 65.00 127.94 80.01 128.00 C 96.37 128.96 111.51 114.38 110.98 97.97 C 111.01 79.32 111.01 60.68 110.99 42.03 C 111.42 26.76 98.33 12.74 83.08 12.09 C 68.74 11.87 54.39 12.07 40.04 11.99 C 36.86 11.97 33.64 12.00 30.51 12.69 Z" />
</g>
<g id="#f8fcf8ff">
<path fill="#f8fcf8" opacity="1.00" d=" M 40.76 45.04 C 45.03 39.69 52.23 36.99 58.99 37.45 C 63.26 37.49 68.61 38.05 71.41 41.49 C 69.86 44.25 68.12 46.90 66.24 49.44 C 62.70 46.85 58.45 44.86 53.98 44.98 C 50.22 44.98 46.76 46.65 43.44 48.24 C 42.54 47.17 41.60 46.15 40.76 45.04 M 54.77 41.19 C 56.29 41.58 57.82 41.94 59.35 42.27 C 59.47 41.84 59.72 41.00 59.85 40.57 C 58.15 40.73 56.45 40.89 54.77 41.19 M 62.75 41.09 C 62.72 42.78 63.89 43.81 65.13 44.70 C 65.75 43.85 66.36 43.00 66.98 42.16 C 65.57 41.81 64.16 41.44 62.75 41.09 Z" />
<path fill="#f8fcf8" opacity="1.00" d=" M 58.17 62.65 C 62.95 55.58 68.60 49.09 72.91 41.71 C 79.51 46.83 84.26 54.99 83.21 63.55 C 79.46 63.59 75.72 63.58 71.97 63.57 C 71.38 59.49 70.59 55.42 68.41 51.85 C 66.37 55.94 64.17 59.96 62.40 64.18 C 60.99 63.67 59.59 63.14 58.17 62.65 M 72.41 49.58 C 73.57 50.00 74.89 48.09 74.10 47.12 C 72.81 46.53 71.78 48.59 72.41 49.58 M 72.87 53.26 C 73.17 53.83 73.75 54.95 74.04 55.51 C 75.41 54.92 76.77 54.32 78.15 53.75 C 77.58 52.61 77.02 51.46 76.47 50.32 C 75.26 51.29 74.07 52.28 72.87 53.26 M 74.18 59.90 C 76.03 59.99 77.88 60.01 79.74 60.02 C 79.51 58.94 79.28 57.85 79.07 56.77 C 77.39 57.74 75.69 58.69 74.18 59.90 Z" />
<path fill="#f8fcf8" opacity="1.00" d=" M 33.78 58.73 C 34.51 54.23 36.61 50.12 39.15 46.39 C 40.31 47.42 43.36 48.71 41.43 50.51 C 38.92 53.15 37.66 56.56 36.55 59.96 C 35.62 59.56 34.70 59.14 33.78 58.73 Z" />
<path fill="#f8fcf8" opacity="1.00" d=" M 55.17 65.26 C 57.34 64.24 60.98 64.83 60.80 67.82 C 60.47 70.60 57.29 70.76 55.23 69.86 C 54.92 68.33 54.86 66.79 55.17 65.26 Z" />
</g>
</svg>
