<?xml version="1.0" encoding="UTF-8" ?>
<!DOCTYPE svg PUBLIC "-//W3C//DTD SVG 1.1//EN" "http://www.w3.org/Graphics/SVG/1.1/DTD/svg11.dtd">
<svg width="117pt" height="140pt" viewBox="0 0 117 140" version="1.1" xmlns="http://www.w3.org/2000/svg">
<g id="#000000ff">
<path fill="#000000" opacity="1.00" d=" M 0.00 0.00 L 117.00 0.00 L 117.00 140.00 L 0.00 140.00 L 0.00 0.00 M 33.20 10.22 C 17.94 11.77 5.18 25.62 5.02 40.98 C 4.98 60.34 4.98 79.70 5.02 99.06 C 5.18 115.03 19.02 129.28 34.97 129.93 C 50.31 130.10 65.66 129.95 81.01 130.00 C 92.04 130.09 102.86 123.95 108.44 114.43 C 111.64 109.22 113.16 103.07 113.01 96.97 C 112.93 77.96 113.12 58.94 112.92 39.94 C 112.27 23.97 97.97 10.15 81.99 10.02 C 65.73 10.11 49.45 9.72 33.20 10.22 Z" />
<path fill="#000000" opacity="1.00" d=" M 30.52 12.69 C 34.30 11.85 38.19 12.00 42.04 12.00 C 55.71 12.06 69.40 11.88 83.07 12.09 C 97.92 12.75 110.85 26.06 110.95 40.95 C 111.05 59.98 110.99 79.01 110.99 98.04 C 111.20 110.13 103.16 121.69 91.90 125.95 C 85.62 128.62 78.66 127.90 72.01 128.00 C 59.64 127.94 47.28 128.12 34.92 127.91 C 20.08 127.25 7.17 113.95 7.04 99.07 C 6.97 79.70 6.98 60.32 7.03 40.94 C 7.21 27.61 17.51 15.40 30.52 12.69 M 57.02 24.00 C 57.08 29.67 57.09 35.33 57.01 41.00 C 58.62 41.00 60.22 41.00 61.83 41.00 C 61.74 35.33 61.75 29.67 61.82 24.00 C 60.22 24.00 58.62 24.00 57.02 24.00 M 38.47 38.76 C 37.34 39.46 35.78 40.25 36.06 41.87 C 36.00 49.95 36.02 58.04 36.05 66.12 C 35.80 67.58 37.51 68.05 38.43 68.72 C 44.68 72.23 50.80 75.99 57.03 79.53 C 58.59 80.70 60.29 79.54 61.70 78.76 C 68.41 74.81 75.25 71.08 81.96 67.13 C 81.92 58.43 82.09 49.73 81.90 41.03 C 76.36 36.63 69.78 33.52 63.85 29.60 C 63.92 30.23 64.06 31.49 64.14 32.12 C 68.23 35.16 72.77 37.63 77.22 40.13 C 71.54 44.41 65.13 47.64 59.15 51.50 C 52.74 47.84 46.24 44.33 39.71 40.87 C 44.45 37.47 49.87 35.19 54.71 31.96 C 54.83 31.30 55.07 29.96 55.19 29.29 C 49.60 32.42 44.04 35.60 38.47 38.76 M 50.73 42.96 C 52.67 46.56 57.21 47.14 60.87 46.69 C 63.60 46.52 66.43 44.86 67.28 42.15 C 67.76 39.74 65.42 38.33 63.88 37.02 C 63.89 38.83 64.52 40.51 65.25 42.13 C 61.84 45.78 55.64 45.53 52.24 41.99 C 53.51 40.28 55.47 38.79 55.01 36.37 C 52.82 37.81 49.44 39.79 50.73 42.96 Z" />
<path fill="#000000" opacity="1.00" d=" M 60.53 53.54 C 67.01 49.58 73.36 45.35 80.10 41.86 C 80.20 49.24 80.16 56.63 80.15 64.01 C 80.54 65.61 78.91 66.37 77.83 67.03 C 71.97 70.32 66.10 73.59 60.33 77.03 C 60.33 69.22 59.86 61.26 60.53 53.54 Z" />
<path fill="#000000" opacity="1.00" d=" M 37.89 42.80 C 44.69 45.93 51.03 49.93 57.70 53.31 C 57.86 61.36 57.71 69.41 57.78 77.46 C 51.79 73.88 45.74 70.39 39.70 66.89 C 38.63 66.38 37.46 65.43 37.86 64.05 C 37.87 56.96 37.85 49.88 37.89 42.80 Z" />
</g>
<g id="#727372ff">
<path fill="#727372" opacity="1.00" d=" M 33.20 10.22 C 49.45 9.72 65.73 10.11 81.99 10.02 C 97.97 10.15 112.27 23.97 112.92 39.94 C 113.12 58.94 112.93 77.96 113.01 96.97 C 113.16 103.07 111.64 109.22 108.44 114.43 C 102.86 123.95 92.04 130.09 81.01 130.00 C 65.66 129.95 50.31 130.10 34.97 129.93 C 19.02 129.28 5.18 115.03 5.02 99.06 C 4.98 79.70 4.98 60.34 5.02 40.98 C 5.18 25.62 17.94 11.77 33.20 10.22 M 30.52 12.69 C 17.51 15.40 7.21 27.61 7.03 40.94 C 6.98 60.32 6.97 79.70 7.04 99.07 C 7.17 113.95 20.08 127.25 34.92 127.91 C 47.28 128.12 59.64 127.94 72.01 128.00 C 78.66 127.90 85.62 128.62 91.90 125.95 C 103.16 121.69 111.20 110.13 110.99 98.04 C 110.99 79.01 111.05 59.98 110.95 40.95 C 110.85 26.06 97.92 12.75 83.07 12.09 C 69.40 11.88 55.71 12.06 42.04 12.00 C 38.19 12.00 34.30 11.85 30.52 12.69 Z" />
</g>
<g id="#f7fbf7ff">
<path fill="#f7fbf7" opacity="1.00" d=" M 57.02 24.00 C 58.62 24.00 60.22 24.00 61.82 24.00 C 61.75 29.67 61.74 35.33 61.83 41.00 C 60.22 41.00 58.62 41.00 57.01 41.00 C 57.09 35.33 57.08 29.67 57.02 24.00 Z" />
<path fill="#f7fbf7" opacity="1.00" d=" M 38.47 38.76 C 44.04 35.60 49.60 32.42 55.19 29.29 C 55.07 29.96 54.83 31.30 54.71 31.96 C 49.87 35.19 44.45 37.47 39.71 40.87 C 46.24 44.33 52.74 47.84 59.15 51.50 C 65.13 47.64 71.54 44.41 77.22 40.13 C 72.77 37.63 68.23 35.16 64.14 32.12 C 64.06 31.49 63.92 30.23 63.85 29.60 C 69.78 33.52 76.36 36.63 81.90 41.03 C 82.09 49.73 81.92 58.43 81.96 67.13 C 75.25 71.08 68.41 74.81 61.70 78.76 C 60.29 79.54 58.59 80.70 57.03 79.53 C 50.80 75.99 44.68 72.23 38.43 68.72 C 37.51 68.05 35.80 67.58 36.05 66.12 C 36.02 58.04 36.00 49.95 36.06 41.87 C 35.78 40.25 37.34 39.46 38.47 38.76 M 60.53 53.54 C 59.86 61.26 60.33 69.22 60.33 77.03 C 66.10 73.59 71.97 70.32 77.83 67.03 C 78.91 66.37 80.54 65.61 80.15 64.01 C 80.16 56.63 80.20 49.24 80.10 41.86 C 73.36 45.35 67.01 49.58 60.53 53.54 M 37.89 42.80 C 37.85 49.88 37.87 56.96 37.86 64.05 C 37.46 65.43 38.63 66.38 39.70 66.89 C 45.74 70.39 51.79 73.88 57.78 77.46 C 57.71 69.41 57.86 61.36 57.70 53.31 C 51.03 49.93 44.69 45.93 37.89 42.80 Z" />
<path fill="#f7fbf7" opacity="1.00" d=" M 50.73 42.96 C 49.44 39.79 52.82 37.81 55.01 36.37 C 55.47 38.79 53.51 40.28 52.24 41.99 C 55.64 45.53 61.84 45.78 65.25 42.13 C 64.52 40.51 63.89 38.83 63.88 37.02 C 65.42 38.33 67.76 39.74 67.28 42.15 C 66.43 44.86 63.60 46.52 60.87 46.69 C 57.21 47.14 52.67 46.56 50.73 42.96 Z" />
</g>
</svg>
