<?xml version="1.0" encoding="UTF-8" ?>
<!DOCTYPE svg PUBLIC "-//W3C//DTD SVG 1.1//EN" "http://www.w3.org/Graphics/SVG/1.1/DTD/svg11.dtd">
<svg width="117pt" height="140pt" viewBox="0 0 117 140" version="1.1" xmlns="http://www.w3.org/2000/svg">
<g id="#000000ff">
<path fill="#000000" opacity="1.00" d=" M 0.00 0.00 L 117.00 0.00 L 117.00 140.00 L 0.00 140.00 L 0.00 0.00 M 33.20 10.23 C 17.96 11.76 5.23 25.58 5.03 40.91 C 4.98 60.28 4.98 79.66 5.03 99.04 C 5.16 115.37 19.64 129.84 35.97 129.97 C 51.67 129.99 67.38 130.10 83.07 129.91 C 98.99 129.26 112.81 115.02 112.97 99.08 C 113.05 80.05 112.98 61.02 113.00 41.98 C 113.09 31.67 107.73 21.57 99.25 15.73 C 93.39 11.59 86.13 9.71 78.99 9.98 C 63.73 10.18 48.45 9.68 33.20 10.23 Z" />
<path fill="#000000" opacity="1.00" d=" M 30.50 12.69 C 35.27 11.67 40.19 12.08 45.03 12.00 C 57.70 12.06 70.38 11.88 83.05 12.09 C 97.91 12.73 110.86 26.06 110.96 40.96 C 111.03 60.31 111.03 79.66 110.96 99.00 C 110.88 113.89 97.96 127.27 83.10 127.89 C 70.73 128.14 58.36 127.93 45.99 128.00 C 39.59 127.89 32.93 128.62 26.83 126.24 C 15.55 122.28 7.20 111.04 7.04 99.04 C 6.98 79.67 6.98 60.29 7.04 40.92 C 7.21 27.60 17.51 15.41 30.50 12.69 M 40.77 45.06 C 41.60 46.17 42.54 47.18 43.43 48.23 C 47.06 46.48 50.90 44.72 55.03 44.97 C 59.17 44.96 62.92 47.09 66.19 49.44 C 68.20 46.86 70.00 44.09 71.50 41.17 C 66.43 36.92 59.21 37.10 52.98 37.78 C 48.40 38.97 43.63 41.15 40.77 45.06 M 67.17 51.02 C 70.63 54.32 71.30 59.09 71.98 63.58 C 75.71 63.58 79.44 63.59 83.18 63.56 C 84.30 54.99 79.49 46.81 72.89 41.71 C 71.12 44.89 69.24 48.02 67.17 51.02 M 56.99 45.33 C 56.46 51.17 56.40 57.07 55.33 62.85 C 56.90 62.44 58.48 62.36 60.08 62.59 C 59.81 57.37 59.17 52.17 58.91 46.94 C 58.26 46.41 57.63 45.88 56.99 45.33 M 33.80 58.71 C 34.70 59.13 35.60 59.57 36.50 60.02 C 37.60 57.31 38.24 54.31 40.22 52.06 C 40.88 51.08 41.95 50.30 42.12 49.07 C 41.38 48.10 40.43 46.49 38.99 46.85 C 36.31 50.27 34.56 54.44 33.80 58.71 M 55.12 65.57 C 54.54 67.39 55.07 69.62 57.11 70.18 C 59.30 71.09 60.60 68.55 61.41 66.97 C 60.33 65.95 59.23 64.96 58.11 63.99 C 57.12 64.53 56.13 65.05 55.12 65.57 Z" />
<path fill="#000000" opacity="1.00" d=" M 54.78 41.19 C 56.46 40.88 58.16 40.72 59.86 40.58 C 59.73 41.00 59.46 41.85 59.32 42.27 C 57.80 41.94 56.29 41.58 54.78 41.19 Z" />
<path fill="#000000" opacity="1.00" d=" M 62.78 41.09 C 64.18 41.44 65.58 41.81 66.98 42.16 C 66.38 42.99 65.77 43.83 65.17 44.68 C 63.89 43.81 62.63 42.83 62.78 41.09 Z" />
<path fill="#000000" opacity="1.00" d=" M 72.46 49.63 C 71.77 48.67 72.76 46.59 74.06 47.08 C 74.90 48.03 73.63 49.94 72.46 49.63 Z" />
<path fill="#000000" opacity="1.00" d=" M 76.42 50.29 C 76.99 51.45 77.58 52.60 78.16 53.76 C 76.79 54.32 75.42 54.92 74.06 55.50 C 73.76 54.95 73.17 53.84 72.88 53.28 C 74.06 52.29 75.23 51.29 76.42 50.29 Z" />
<path fill="#000000" opacity="1.00" d=" M 74.22 59.89 C 75.71 58.66 77.39 57.72 79.07 56.78 C 79.29 57.86 79.52 58.95 79.74 60.03 C 77.90 60.01 76.06 59.98 74.22 59.89 Z" />
</g>
<g id="#737373ff">
<path fill="#737373" opacity="1.00" d=" M 33.20 10.23 C 48.45 9.68 63.73 10.18 78.99 9.98 C 86.13 9.71 93.39 11.59 99.25 15.73 C 107.73 21.57 113.09 31.67 113.00 41.98 C 112.98 61.02 113.05 80.05 112.97 99.08 C 112.81 115.02 98.99 129.26 83.07 129.91 C 67.38 130.10 51.67 129.99 35.97 129.97 C 19.64 129.84 5.16 115.37 5.03 99.04 C 4.98 79.66 4.98 60.28 5.03 40.91 C 5.23 25.58 17.96 11.76 33.20 10.23 M 30.50 12.69 C 17.51 15.41 7.21 27.60 7.04 40.92 C 6.98 60.29 6.98 79.67 7.04 99.04 C 7.20 111.04 15.55 122.28 26.83 126.24 C 32.93 128.62 39.59 127.89 45.99 128.00 C 58.36 127.93 70.73 128.14 83.10 127.89 C 97.96 127.27 110.88 113.89 110.96 99.00 C 111.03 79.66 111.03 60.31 110.96 40.96 C 110.86 26.06 97.91 12.73 83.05 12.09 C 70.38 11.88 57.70 12.06 45.03 12.00 C 40.19 12.08 35.27 11.67 30.50 12.69 Z" />
</g>
<g id="#f8fcf8ff">
<path fill="#f8fcf8" opacity="1.00" d=" M 40.77 45.06 C 43.63 41.15 48.40 38.97 52.98 37.78 C 59.21 37.10 66.43 36.92 71.50 41.17 C 70.00 44.09 68.20 46.86 66.19 49.44 C 62.92 47.09 59.17 44.96 55.03 44.97 C 50.90 44.72 47.06 46.48 43.43 48.23 C 42.54 47.18 41.60 46.17 40.77 45.06 M 54.78 41.19 C 56.29 41.58 57.80 41.94 59.32 42.27 C 59.46 41.85 59.73 41.00 59.86 40.58 C 58.16 40.72 56.46 40.88 54.78 41.19 M 62.78 41.09 C 62.63 42.83 63.89 43.81 65.17 44.68 C 65.77 43.83 66.38 42.99 66.98 42.16 C 65.58 41.81 64.18 41.44 62.78 41.09 Z" />
<path fill="#f8fcf8" opacity="1.00" d=" M 67.17 51.02 C 69.24 48.02 71.12 44.89 72.89 41.71 C 79.49 46.81 84.30 54.99 83.18 63.56 C 79.44 63.59 75.71 63.58 71.98 63.58 C 71.30 59.09 70.63 54.32 67.17 51.02 M 72.46 49.63 C 73.63 49.94 74.90 48.03 74.06 47.08 C 72.76 46.59 71.77 48.67 72.46 49.63 M 76.42 50.29 C 75.23 51.29 74.06 52.29 72.88 53.28 C 73.17 53.84 73.76 54.95 74.06 55.50 C 75.42 54.92 76.79 54.32 78.16 53.76 C 77.58 52.60 76.99 51.45 76.42 50.29 M 74.22 59.89 C 76.06 59.98 77.90 60.01 79.74 60.03 C 79.52 58.95 79.29 57.86 79.07 56.78 C 77.39 57.72 75.71 58.66 74.22 59.89 Z" />
<path fill="#f8fcf8" opacity="1.00" d=" M 56.99 45.33 C 57.63 45.88 58.26 46.41 58.91 46.94 C 59.17 52.17 59.81 57.37 60.08 62.59 C 58.48 62.36 56.90 62.44 55.33 62.85 C 56.40 57.07 56.46 51.17 56.99 45.33 Z" />
<path fill="#f8fcf8" opacity="1.00" d=" M 33.80 58.71 C 34.56 54.44 36.31 50.27 38.99 46.85 C 40.43 46.49 41.38 48.10 42.12 49.07 C 41.95 50.30 40.88 51.08 40.22 52.06 C 38.24 54.31 37.60 57.31 36.50 60.02 C 35.60 59.57 34.70 59.13 33.80 58.71 Z" />
<path fill="#f8fcf8" opacity="1.00" d=" M 55.12 65.57 C 56.13 65.05 57.12 64.53 58.11 63.99 C 59.23 64.96 60.33 65.95 61.41 66.97 C 60.60 68.55 59.30 71.09 57.11 70.18 C 55.07 69.62 54.54 67.39 55.12 65.57 Z" />
</g>
</svg>
