<?xml version="1.0" encoding="UTF-8" ?>
<!DOCTYPE svg PUBLIC "-//W3C//DTD SVG 1.1//EN" "http://www.w3.org/Graphics/SVG/1.1/DTD/svg11.dtd">
<svg width="117pt" height="140pt" viewBox="0 0 117 140" version="1.1" xmlns="http://www.w3.org/2000/svg">
<g id="#000000ff">
<path fill="#000000" opacity="1.00" d=" M 0.00 0.00 L 117.00 0.00 L 117.00 140.00 L 0.00 140.00 L 0.00 0.00 M 33.16 10.24 C 17.93 11.79 5.22 25.61 5.03 40.93 C 4.96 59.93 5.02 78.94 5.00 97.94 C 4.94 106.60 8.64 115.18 14.92 121.12 C 21.03 127.05 29.57 130.25 38.06 130.02 C 53.07 129.92 68.10 130.14 83.11 129.90 C 99.01 129.24 112.82 114.99 112.96 99.07 C 113.05 80.03 112.98 60.98 112.99 41.94 C 113.04 32.84 108.91 23.87 102.04 17.93 C 95.80 12.35 87.31 9.63 78.98 9.98 C 63.71 10.18 48.42 9.67 33.16 10.24 Z" />
<path fill="#000000" opacity="1.00" d=" M 30.46 12.69 C 35.24 11.65 40.17 12.08 45.02 12.00 C 57.71 12.06 70.41 11.88 83.10 12.09 C 97.95 12.75 110.87 26.09 110.97 40.98 C 111.02 60.32 111.03 79.66 110.96 99.00 C 110.90 114.27 97.29 127.88 82.01 127.95 C 66.66 128.04 51.31 128.01 35.96 127.97 C 20.69 127.85 7.10 114.26 7.03 98.99 C 6.98 79.65 6.98 60.31 7.03 40.97 C 7.19 27.65 17.47 15.43 30.46 12.69 M 49.81 27.99 C 49.87 37.58 49.82 47.17 49.83 56.76 C 47.71 58.77 45.57 61.04 44.98 64.01 C 42.87 71.02 47.66 79.37 55.08 80.31 C 61.34 81.53 67.63 76.94 69.10 70.89 C 70.79 65.70 68.21 60.09 64.17 56.76 C 64.18 47.17 64.13 37.59 64.20 28.00 C 59.47 27.26 54.54 27.29 49.81 27.99 M 68.29 37.15 C 67.93 37.62 67.19 38.55 66.82 39.02 C 67.20 39.52 67.96 40.51 68.33 41.01 C 70.23 40.87 73.15 41.69 73.63 39.08 C 73.17 36.40 70.22 37.27 68.29 37.15 M 66.64 45.95 C 67.84 49.49 75.82 48.39 72.73 44.37 C 70.55 43.68 67.94 43.81 66.64 45.95 M 68.35 51.02 C 67.96 51.51 67.20 52.48 66.81 52.97 C 67.19 53.46 67.93 54.43 68.31 54.91 C 70.20 54.77 73.10 55.61 73.62 53.03 C 73.22 50.35 70.26 51.14 68.35 51.02 Z" />
<path fill="#000000" opacity="1.00" d=" M 53.38 31.21 C 55.79 31.27 58.21 31.27 60.62 31.21 C 60.13 40.36 60.60 49.53 60.37 58.69 C 66.58 61.58 67.78 71.23 62.02 75.15 C 57.60 78.45 50.35 76.28 48.83 70.88 C 46.96 66.32 49.34 60.91 53.63 58.70 C 53.41 49.54 53.86 40.36 53.38 31.21 M 55.00 37.00 C 54.88 44.65 55.22 52.31 55.07 59.96 C 53.15 61.70 50.34 63.07 49.95 65.93 C 48.67 70.94 53.99 76.40 59.04 74.76 C 61.94 73.39 64.65 70.44 64.17 66.99 C 64.31 63.64 61.18 61.83 58.94 59.99 C 58.77 52.33 59.12 44.66 59.00 37.00 C 57.67 37.00 56.33 37.00 55.00 37.00 Z" />
</g>
<g id="#747474ff">
<path fill="#747474" opacity="1.00" d=" M 33.16 10.24 C 48.42 9.67 63.71 10.18 78.98 9.98 C 87.31 9.63 95.80 12.35 102.04 17.93 C 108.91 23.87 113.04 32.84 112.99 41.94 C 112.98 60.98 113.05 80.03 112.96 99.07 C 112.82 114.99 99.01 129.24 83.11 129.90 C 68.10 130.14 53.07 129.92 38.06 130.02 C 29.57 130.25 21.03 127.05 14.92 121.12 C 8.64 115.18 4.94 106.60 5.00 97.94 C 5.02 78.94 4.96 59.93 5.03 40.93 C 5.22 25.61 17.93 11.79 33.16 10.24 M 30.46 12.69 C 17.47 15.43 7.19 27.65 7.03 40.97 C 6.98 60.31 6.98 79.65 7.03 98.99 C 7.10 114.26 20.69 127.85 35.96 127.97 C 51.31 128.01 66.66 128.04 82.01 127.95 C 97.29 127.88 110.90 114.27 110.96 99.00 C 111.03 79.66 111.02 60.32 110.97 40.98 C 110.87 26.09 97.95 12.75 83.10 12.09 C 70.41 11.88 57.71 12.06 45.02 12.00 C 40.17 12.08 35.24 11.65 30.46 12.69 Z" />
</g>
<g id="#f8fcf8ff">
<path fill="#f8fcf8" opacity="1.00" d=" M 49.81 27.99 C 54.54 27.29 59.47 27.26 64.20 28.00 C 64.13 37.59 64.18 47.17 64.17 56.76 C 68.21 60.09 70.79 65.70 69.10 70.89 C 67.63 76.94 61.34 81.53 55.08 80.31 C 47.66 79.37 42.87 71.02 44.98 64.01 C 45.57 61.04 47.71 58.77 49.83 56.76 C 49.82 47.17 49.87 37.58 49.81 27.99 M 53.38 31.21 C 53.86 40.36 53.41 49.54 53.63 58.70 C 49.34 60.91 46.96 66.32 48.83 70.88 C 50.35 76.28 57.60 78.45 62.02 75.15 C 67.78 71.23 66.58 61.58 60.37 58.69 C 60.60 49.53 60.13 40.36 60.62 31.21 C 58.21 31.27 55.79 31.27 53.38 31.21 Z" />
<path fill="#f8fcf8" opacity="1.00" d=" M 55.00 37.00 C 56.33 37.00 57.67 37.00 59.00 37.00 C 59.12 44.66 58.77 52.33 58.94 59.99 C 61.18 61.83 64.31 63.64 64.17 66.99 C 64.65 70.44 61.94 73.39 59.04 74.76 C 53.99 76.40 48.67 70.94 49.95 65.93 C 50.34 63.07 53.15 61.70 55.07 59.96 C 55.22 52.31 54.88 44.65 55.00 37.00 Z" />
<path fill="#f8fcf8" opacity="1.00" d=" M 68.29 37.15 C 70.22 37.27 73.17 36.40 73.63 39.08 C 73.15 41.69 70.23 40.87 68.33 41.01 C 67.96 40.51 67.20 39.52 66.82 39.02 C 67.19 38.55 67.93 37.62 68.29 37.15 Z" />
<path fill="#f8fcf8" opacity="1.00" d=" M 66.64 45.95 C 67.94 43.81 70.55 43.68 72.73 44.37 C 75.82 48.39 67.84 49.49 66.64 45.95 Z" />
<path fill="#f8fcf8" opacity="1.00" d=" M 68.35 51.02 C 70.26 51.14 73.22 50.35 73.62 53.03 C 73.10 55.61 70.20 54.77 68.31 54.91 C 67.93 54.43 67.19 53.46 66.81 52.97 C 67.20 52.48 67.96 51.51 68.35 51.02 Z" />
</g>
</svg>
