<?xml version="1.0" encoding="UTF-8" ?>
<!DOCTYPE svg PUBLIC "-//W3C//DTD SVG 1.1//EN" "http://www.w3.org/Graphics/SVG/1.1/DTD/svg11.dtd">
<svg width="117pt" height="140pt" viewBox="0 0 117 140" version="1.1" xmlns="http://www.w3.org/2000/svg">
<g id="#000000ff">
<path fill="#000000" opacity="1.00" d=" M 0.00 0.00 L 117.00 0.00 L 117.00 140.00 L 0.00 140.00 L 0.00 0.00 M 33.21 10.23 C 17.94 11.77 5.19 25.62 5.02 40.98 C 4.96 59.99 5.02 78.99 5.00 97.99 C 4.95 106.62 8.64 115.17 14.89 121.09 C 20.98 127.02 29.50 130.23 37.97 130.02 C 53.01 129.92 68.05 130.13 83.09 129.91 C 99.02 129.25 112.85 114.97 112.97 99.02 C 113.04 80.00 112.98 60.98 113.00 41.97 C 113.04 33.35 109.36 24.82 103.11 18.91 C 97.03 12.98 88.49 9.78 80.02 9.98 C 64.41 10.17 48.79 9.69 33.21 10.23 Z" />
<path fill="#000000" opacity="1.00" d=" M 33.25 12.34 C 48.47 11.72 63.72 12.25 78.96 12.06 C 85.32 11.87 91.81 13.26 97.15 16.84 C 105.62 22.14 111.03 32.01 110.91 42.01 C 110.95 60.67 110.95 79.34 110.91 98.01 C 111.04 108.73 104.80 119.26 95.30 124.25 C 90.37 127.09 84.61 128.05 78.98 127.94 C 64.27 127.84 49.56 128.09 34.86 127.82 C 20.07 127.13 7.24 113.87 7.13 99.05 C 7.03 79.70 7.03 60.35 7.12 41.00 C 7.26 26.75 19.08 13.80 33.25 12.34 M 60.09 41.59 C 55.02 42.40 50.58 46.14 49.90 51.39 C 45.49 51.34 40.98 50.71 36.63 51.67 C 40.95 51.86 45.29 51.65 49.62 51.89 C 50.24 57.14 54.02 61.82 59.42 62.58 C 59.42 66.56 59.45 70.54 59.39 74.52 C 71.93 78.02 84.27 66.30 84.72 54.04 C 84.80 52.76 84.84 50.37 82.98 50.48 C 79.04 50.33 75.10 50.54 71.16 50.44 C 69.98 45.62 65.67 41.93 60.66 41.81 C 60.76 37.47 60.94 33.12 60.66 28.78 C 59.74 32.98 60.44 37.33 60.09 41.59 Z" />
<path fill="#000000" opacity="1.00" d=" M 58.19 43.16 C 64.61 41.31 71.68 47.40 69.93 54.10 C 68.66 61.45 58.35 63.95 53.49 58.52 C 48.54 53.64 51.65 44.67 58.19 43.16 Z" />
</g>
<g id="#737473ff">
<path fill="#737473" opacity="1.00" d=" M 33.21 10.23 C 48.79 9.69 64.41 10.17 80.02 9.98 C 88.49 9.78 97.03 12.98 103.11 18.91 C 109.36 24.82 113.04 33.35 113.00 41.97 C 112.98 60.98 113.04 80.00 112.97 99.02 C 112.85 114.97 99.02 129.25 83.09 129.91 C 68.05 130.13 53.01 129.92 37.97 130.02 C 29.50 130.23 20.98 127.02 14.89 121.09 C 8.64 115.17 4.95 106.62 5.00 97.99 C 5.02 78.99 4.96 59.99 5.02 40.98 C 5.19 25.62 17.94 11.77 33.21 10.23 M 33.25 12.34 C 19.08 13.80 7.26 26.75 7.12 41.00 C 7.03 60.35 7.03 79.70 7.13 99.05 C 7.24 113.87 20.07 127.13 34.86 127.82 C 49.56 128.09 64.27 127.84 78.98 127.94 C 84.61 128.05 90.37 127.09 95.30 124.25 C 104.80 119.26 111.04 108.73 110.91 98.01 C 110.95 79.34 110.95 60.67 110.91 42.01 C 111.03 32.01 105.62 22.14 97.15 16.84 C 91.81 13.26 85.32 11.87 78.96 12.06 C 63.72 12.25 48.47 11.72 33.25 12.34 Z" />
</g>
<g id="#f8fcf8ff">
<path fill="#f8fcf8" opacity="1.00" d=" M 60.09 41.59 C 60.44 37.33 59.74 32.98 60.66 28.78 C 60.94 33.12 60.76 37.47 60.66 41.81 C 65.67 41.93 69.98 45.62 71.16 50.44 C 75.10 50.54 79.04 50.33 82.98 50.48 C 84.84 50.37 84.80 52.76 84.72 54.04 C 84.27 66.30 71.93 78.02 59.39 74.52 C 59.45 70.54 59.42 66.56 59.42 62.58 C 54.02 61.82 50.24 57.14 49.62 51.89 C 45.29 51.65 40.95 51.86 36.63 51.67 C 40.98 50.71 45.49 51.34 49.90 51.39 C 50.58 46.14 55.02 42.40 60.09 41.59 M 58.19 43.16 C 51.65 44.67 48.54 53.64 53.49 58.52 C 58.35 63.95 68.66 61.45 69.93 54.10 C 71.68 47.40 64.61 41.31 58.19 43.16 Z" />
</g>
</svg>
