<?xml version="1.0" encoding="UTF-8" ?>
<!DOCTYPE svg PUBLIC "-//W3C//DTD SVG 1.1//EN" "http://www.w3.org/Graphics/SVG/1.1/DTD/svg11.dtd">
<svg width="117pt" height="140pt" viewBox="0 0 117 140" version="1.1" xmlns="http://www.w3.org/2000/svg">
<g id="#000000ff">
<path fill="#000000" opacity="1.00" d=" M 0.00 0.00 L 117.00 0.00 L 117.00 140.00 L 0.00 140.00 L 0.00 0.00 M 41.71 42.02 C 41.53 50.68 41.53 59.35 41.71 68.01 C 44.46 67.99 47.22 67.99 49.97 68.01 C 49.99 64.97 50.01 61.92 50.04 58.88 C 53.17 58.83 56.30 58.82 59.44 58.84 C 59.38 56.79 59.42 54.75 59.52 52.71 C 56.38 52.63 53.24 52.62 50.10 52.63 C 50.10 51.19 50.10 49.76 50.11 48.33 C 54.02 48.49 57.93 48.37 61.84 48.24 C 61.84 46.18 61.85 44.13 61.87 42.07 C 55.15 41.94 48.43 42.00 41.71 42.02 M 72.55 50.33 C 70.14 49.07 67.41 49.06 64.76 49.05 C 64.49 55.38 64.55 61.71 64.71 68.04 C 67.37 67.98 70.04 67.94 72.70 67.90 C 72.67 64.70 72.31 61.43 73.02 58.27 C 74.02 56.09 76.79 56.24 78.74 55.53 C 78.63 53.06 78.56 50.60 78.48 48.13 C 76.44 48.66 74.41 49.32 72.55 50.33 Z" />
</g>
<g id="#f8fcf8ff">
<path fill="#f8fcf8" opacity="1.00" d=" M 41.71 42.02 C 48.43 42.00 55.15 41.94 61.87 42.07 C 61.85 44.13 61.84 46.18 61.84 48.24 C 57.93 48.37 54.02 48.49 50.11 48.33 C 50.10 49.76 50.10 51.19 50.10 52.63 C 53.24 52.62 56.38 52.63 59.52 52.71 C 59.42 54.75 59.38 56.79 59.44 58.84 C 56.30 58.82 53.17 58.83 50.04 58.88 C 50.01 61.92 49.99 64.97 49.97 68.01 C 47.22 67.99 44.46 67.99 41.71 68.01 C 41.53 59.35 41.53 50.68 41.71 42.02 Z" />
<path fill="#f8fcf8" opacity="1.00" d=" M 72.55 50.33 C 74.41 49.32 76.44 48.66 78.48 48.13 C 78.56 50.60 78.63 53.06 78.74 55.53 C 76.79 56.24 74.02 56.09 73.02 58.27 C 72.31 61.43 72.67 64.70 72.70 67.90 C 70.04 67.94 67.37 67.98 64.71 68.04 C 64.55 61.71 64.49 55.38 64.76 49.05 C 67.41 49.06 70.14 49.07 72.55 50.33 Z" />
</g>
</svg>
