<?xml version="1.0" encoding="UTF-8" ?>
<!DOCTYPE svg PUBLIC "-//W3C//DTD SVG 1.1//EN" "http://www.w3.org/Graphics/SVG/1.1/DTD/svg11.dtd">
<svg width="117pt" height="140pt" viewBox="0 0 117 140" version="1.1" xmlns="http://www.w3.org/2000/svg">
<g id="#000000ff">
<path fill="#000000" opacity="1.00" d=" M 0.00 0.00 L 117.00 0.00 L 117.00 140.00 L 0.00 140.00 L 0.00 0.00 M 33.15 10.25 C 17.91 11.80 5.21 25.63 5.03 40.96 C 4.95 59.97 5.02 78.98 5.00 98.00 C 4.96 106.66 8.66 115.22 14.96 121.16 C 21.05 127.05 29.55 130.23 38.01 130.02 C 53.03 129.91 68.05 130.15 83.07 129.90 C 99.00 129.26 112.82 115.00 112.96 99.06 C 113.06 80.04 112.98 61.02 112.99 42.00 C 113.08 31.67 107.73 21.56 99.24 15.73 C 93.39 11.59 86.15 9.73 79.03 9.98 C 63.74 10.19 48.42 9.65 33.15 10.25 Z" />
<path fill="#000000" opacity="1.00" d=" M 33.28 12.34 C 48.18 11.71 63.12 12.26 78.04 12.05 C 84.68 11.82 91.53 13.05 97.13 16.82 C 105.60 22.12 111.01 31.96 110.91 41.96 C 110.92 60.99 111.00 80.01 110.87 99.03 C 110.78 114.25 97.28 127.74 82.07 127.86 C 66.71 127.99 51.34 127.97 35.98 127.87 C 20.79 127.76 7.27 114.33 7.13 99.13 C 7.02 79.74 7.03 60.35 7.13 40.96 C 7.28 26.72 19.10 13.77 33.28 12.34 M 39.00 33.01 C 38.85 41.43 38.96 49.86 38.93 58.28 C 38.25 58.41 36.88 58.67 36.19 58.79 C 36.92 62.67 40.78 64.74 43.30 67.43 C 46.18 65.79 48.63 63.46 50.68 60.88 C 50.96 59.33 50.25 58.22 48.58 58.14 C 48.67 49.80 48.55 41.46 48.69 33.12 C 45.47 32.74 42.23 32.80 39.00 33.01 M 68.34 33.12 C 68.54 41.43 68.41 49.75 68.46 58.07 C 66.99 58.32 66.43 59.52 65.98 60.76 C 68.41 63.13 70.59 65.87 73.68 67.40 C 76.03 65.19 78.54 63.10 80.53 60.55 C 81.14 58.84 79.37 58.44 78.13 58.04 C 78.07 49.69 78.28 41.34 78.00 33.00 C 74.78 32.81 71.54 32.73 68.34 33.12 M 33.05 71.11 C 32.99 73.65 32.49 76.28 33.23 78.76 C 36.14 80.10 39.45 79.35 42.55 79.49 C 42.49 80.09 42.36 81.30 42.30 81.90 C 42.98 81.94 44.35 82.01 45.03 82.05 C 45.03 81.41 45.04 80.14 45.04 79.50 C 54.09 79.52 63.14 79.52 72.19 79.50 C 72.11 80.19 71.94 81.57 71.86 82.26 C 73.77 82.25 75.20 81.66 74.74 79.48 C 77.72 79.33 80.96 80.12 83.75 78.75 C 84.55 76.29 83.99 73.64 83.95 71.11 C 66.99 70.93 50.01 70.93 33.05 71.11 Z" />
<path fill="#000000" opacity="1.00" d=" M 41.93 35.94 C 43.16 35.96 44.39 35.99 45.63 36.02 C 45.84 44.44 45.10 52.91 46.06 61.29 C 45.25 62.15 44.44 63.00 43.63 63.85 C 42.87 63.04 42.12 62.23 41.36 61.42 C 42.61 53.01 41.62 44.42 41.93 35.94 Z" />
<path fill="#000000" opacity="1.00" d=" M 71.43 36.05 C 72.66 36.01 73.90 35.96 75.14 35.92 C 75.42 44.40 74.51 52.96 75.65 61.38 C 74.86 62.20 74.07 63.03 73.28 63.86 C 72.52 63.03 71.76 62.21 71.00 61.38 C 71.95 52.98 71.24 44.49 71.43 36.05 Z" />
<path fill="#000000" opacity="1.00" d=" M 35.89 74.09 C 50.96 74.10 66.04 74.10 81.11 74.09 C 81.14 74.69 81.18 75.89 81.20 76.49 C 66.07 76.48 50.93 76.48 35.80 76.49 C 35.82 75.89 35.86 74.69 35.89 74.09 Z" />
</g>
<g id="#747474ff">
<path fill="#747474" opacity="1.00" d=" M 33.15 10.25 C 48.42 9.65 63.74 10.19 79.03 9.98 C 86.15 9.73 93.39 11.59 99.24 15.73 C 107.73 21.56 113.08 31.67 112.99 42.00 C 112.98 61.02 113.06 80.04 112.96 99.06 C 112.82 115.00 99.00 129.26 83.07 129.90 C 68.05 130.15 53.03 129.91 38.01 130.02 C 29.55 130.23 21.05 127.05 14.96 121.16 C 8.66 115.22 4.96 106.66 5.00 98.00 C 5.02 78.98 4.95 59.97 5.03 40.96 C 5.21 25.63 17.91 11.80 33.15 10.25 M 33.28 12.34 C 19.10 13.77 7.28 26.72 7.13 40.96 C 7.03 60.35 7.02 79.74 7.13 99.13 C 7.27 114.33 20.79 127.76 35.98 127.87 C 51.34 127.97 66.71 127.99 82.07 127.86 C 97.28 127.74 110.78 114.25 110.87 99.03 C 111.00 80.01 110.92 60.99 110.91 41.96 C 111.01 31.96 105.60 22.12 97.13 16.82 C 91.53 13.05 84.68 11.82 78.04 12.05 C 63.12 12.26 48.18 11.71 33.28 12.34 Z" />
</g>
<g id="#f8fcf8ff">
<path fill="#f8fcf8" opacity="1.00" d=" M 39.00 33.01 C 42.23 32.80 45.47 32.74 48.69 33.12 C 48.55 41.46 48.67 49.80 48.58 58.14 C 50.25 58.22 50.96 59.33 50.68 60.88 C 48.63 63.46 46.18 65.79 43.30 67.43 C 40.78 64.74 36.92 62.67 36.19 58.79 C 36.88 58.67 38.25 58.41 38.93 58.28 C 38.96 49.86 38.85 41.43 39.00 33.01 M 41.93 35.94 C 41.62 44.42 42.61 53.01 41.36 61.42 C 42.12 62.23 42.87 63.04 43.63 63.85 C 44.44 63.00 45.25 62.15 46.06 61.29 C 45.10 52.91 45.84 44.44 45.63 36.02 C 44.39 35.99 43.16 35.96 41.93 35.94 Z" />
<path fill="#f8fcf8" opacity="1.00" d=" M 68.34 33.12 C 71.54 32.73 74.78 32.81 78.00 33.00 C 78.28 41.34 78.07 49.69 78.13 58.04 C 79.37 58.44 81.14 58.84 80.53 60.55 C 78.54 63.10 76.03 65.19 73.68 67.40 C 70.59 65.87 68.41 63.13 65.98 60.76 C 66.43 59.52 66.99 58.32 68.46 58.07 C 68.41 49.75 68.54 41.43 68.34 33.12 M 71.43 36.05 C 71.24 44.49 71.95 52.98 71.00 61.38 C 71.76 62.21 72.52 63.03 73.28 63.86 C 74.07 63.03 74.86 62.20 75.65 61.38 C 74.51 52.96 75.42 44.40 75.14 35.92 C 73.90 35.96 72.66 36.01 71.43 36.05 Z" />
<path fill="#f8fcf8" opacity="1.00" d=" M 33.05 71.11 C 50.01 70.93 66.99 70.93 83.95 71.11 C 83.99 73.64 84.55 76.29 83.75 78.75 C 80.96 80.12 77.72 79.33 74.74 79.48 C 75.20 81.66 73.77 82.25 71.86 82.26 C 71.94 81.57 72.11 80.19 72.19 79.50 C 63.14 79.52 54.09 79.52 45.04 79.50 C 45.04 80.14 45.03 81.41 45.03 82.05 C 44.35 82.01 42.98 81.94 42.30 81.90 C 42.36 81.30 42.49 80.09 42.55 79.49 C 39.45 79.35 36.14 80.10 33.23 78.76 C 32.49 76.28 32.99 73.65 33.05 71.11 M 35.89 74.09 C 35.86 74.69 35.82 75.89 35.80 76.49 C 50.93 76.48 66.07 76.48 81.20 76.49 C 81.18 75.89 81.14 74.69 81.11 74.09 C 66.04 74.10 50.96 74.10 35.89 74.09 Z" />
</g>
</svg>
