<?xml version="1.0" encoding="UTF-8" ?>
<!DOCTYPE svg PUBLIC "-//W3C//DTD SVG 1.1//EN" "http://www.w3.org/Graphics/SVG/1.1/DTD/svg11.dtd">
<svg width="117pt" height="140pt" viewBox="0 0 117 140" version="1.1" xmlns="http://www.w3.org/2000/svg">
<g id="#000000ff">
<path fill="#000000" opacity="1.00" d=" M 0.00 0.00 L 117.00 0.00 L 117.00 140.00 L 0.00 140.00 L 0.00 0.00 M 33.18 10.26 C 21.22 11.56 10.55 20.27 6.73 31.66 C 5.35 35.60 4.93 39.79 4.99 43.95 C 5.03 61.98 4.97 80.00 5.01 98.03 C 4.98 107.33 9.29 116.50 16.42 122.46 C 22.38 127.52 30.22 130.18 38.03 130.00 C 53.06 129.92 68.09 130.15 83.11 129.89 C 99.01 129.21 112.81 114.99 112.94 99.07 C 113.07 80.06 112.99 61.04 112.98 42.03 C 113.07 31.49 107.49 21.13 98.67 15.37 C 92.93 11.49 85.93 9.77 79.04 9.99 C 63.76 10.19 48.45 9.65 33.18 10.26 Z" />
<path fill="#000000" opacity="1.00" d=" M 30.43 12.67 C 34.58 11.80 38.83 11.99 43.04 11.99 C 56.38 12.07 69.73 11.87 83.07 12.08 C 97.94 12.70 110.90 26.07 110.96 40.98 C 111.03 60.31 111.03 79.65 110.97 98.99 C 110.94 114.27 97.31 127.90 82.03 127.96 C 66.66 128.05 51.29 128.01 35.91 127.97 C 20.66 127.85 7.08 114.27 7.02 99.01 C 6.98 79.67 6.98 60.33 7.02 40.98 C 7.14 27.65 17.45 15.44 30.43 12.67 M 44.48 25.33 C 42.15 25.41 39.75 25.12 37.45 25.60 C 35.16 26.89 32.91 29.10 33.26 31.97 C 33.25 46.00 33.25 60.04 33.26 74.08 C 33.04 77.14 35.80 80.27 38.96 79.98 C 51.96 80.03 64.97 79.98 77.98 80.00 C 81.36 80.51 84.81 77.46 84.63 74.05 C 84.65 60.01 84.65 45.97 84.64 31.93 C 84.94 29.07 82.45 27.08 80.36 25.61 C 78.44 25.16 76.45 25.40 74.50 25.31 C 73.26 22.89 69.98 24.44 67.82 24.02 C 67.50 24.37 66.86 25.07 66.54 25.42 C 61.52 25.28 56.51 25.40 51.50 25.34 C 50.30 23.21 45.74 23.27 44.48 25.33 Z" />
<path fill="#000000" opacity="1.00" d=" M 35.60 30.57 C 37.09 26.72 41.81 27.85 45.03 27.70 C 45.02 28.43 45.00 29.89 44.99 30.62 C 45.58 30.72 46.76 30.93 47.35 31.04 C 48.91 34.72 50.68 38.38 53.65 41.16 C 53.60 42.25 53.54 43.33 53.48 44.41 C 47.42 44.36 41.36 44.40 35.30 44.38 C 35.50 39.79 34.94 35.13 35.60 30.57 Z" />
<path fill="#000000" opacity="1.00" d=" M 51.17 27.70 C 56.57 27.72 61.96 27.70 67.36 27.72 C 67.35 28.47 67.33 29.99 67.32 30.75 C 67.90 30.79 69.05 30.86 69.63 30.90 C 67.89 36.48 63.44 42.11 57.01 41.72 C 53.73 39.03 51.14 35.59 49.65 31.61 C 50.82 30.63 51.33 29.33 51.17 27.70 Z" />
<path fill="#000000" opacity="1.00" d=" M 74.01 27.66 C 76.96 27.64 81.29 27.28 82.22 30.96 C 82.61 35.42 82.29 39.91 82.38 44.38 C 76.64 44.39 70.89 44.39 65.15 44.38 C 65.14 43.57 65.13 41.94 65.13 41.13 C 68.35 38.52 70.11 34.79 71.67 31.06 C 72.25 30.95 73.42 30.73 74.00 30.62 C 74.01 29.88 74.01 28.40 74.01 27.66 Z" />
<path fill="#000000" opacity="1.00" d=" M 35.37 73.88 C 35.24 64.84 35.35 55.79 35.33 46.74 C 41.38 46.74 47.43 46.75 53.48 46.73 C 53.50 47.36 53.55 48.62 53.58 49.24 C 57.43 49.85 61.28 49.56 65.14 49.27 C 65.16 48.64 65.20 47.38 65.21 46.75 C 70.93 46.74 76.64 46.75 82.36 46.74 C 82.36 55.83 82.47 64.94 82.32 74.03 C 82.32 76.73 79.56 78.35 77.10 78.16 C 64.73 78.16 52.37 78.19 40.00 78.15 C 37.66 78.18 35.29 76.35 35.37 73.88 M 51.45 76.00 C 56.61 76.00 61.76 76.00 66.92 76.00 C 65.25 69.01 63.63 62.01 62.05 55.00 C 60.30 54.99 58.55 54.99 56.81 55.00 C 55.06 62.01 53.41 69.05 51.45 76.00 Z" />
</g>
<g id="#787978ff">
<path fill="#787978" opacity="1.00" d=" M 33.18 10.26 C 48.45 9.65 63.76 10.19 79.04 9.99 C 85.93 9.77 92.93 11.49 98.67 15.37 C 107.49 21.13 113.07 31.49 112.98 42.03 C 112.99 61.04 113.07 80.06 112.94 99.07 C 112.81 114.99 99.01 129.21 83.11 129.89 C 68.09 130.15 53.06 129.92 38.03 130.00 C 30.22 130.18 22.38 127.52 16.42 122.46 C 9.29 116.50 4.98 107.33 5.01 98.03 C 4.97 80.00 5.03 61.98 4.99 43.95 C 4.93 39.79 5.35 35.60 6.73 31.66 C 10.55 20.27 21.22 11.56 33.18 10.26 M 30.43 12.67 C 17.45 15.44 7.14 27.65 7.02 40.98 C 6.98 60.33 6.98 79.67 7.02 99.01 C 7.08 114.27 20.66 127.85 35.91 127.97 C 51.29 128.01 66.66 128.05 82.03 127.96 C 97.31 127.90 110.94 114.27 110.97 98.99 C 111.03 79.65 111.03 60.31 110.96 40.98 C 110.90 26.07 97.94 12.70 83.07 12.08 C 69.73 11.87 56.38 12.07 43.04 11.99 C 38.83 11.99 34.58 11.80 30.43 12.67 Z" />
</g>
<g id="#f8fcf8ff">
<path fill="#f8fcf8" opacity="1.00" d=" M 44.48 25.33 C 45.74 23.27 50.30 23.21 51.50 25.34 C 56.51 25.40 61.52 25.28 66.54 25.42 C 66.86 25.07 67.50 24.37 67.82 24.02 C 69.98 24.44 73.26 22.89 74.50 25.31 C 76.45 25.40 78.44 25.16 80.36 25.61 C 82.45 27.08 84.94 29.07 84.64 31.93 C 84.65 45.97 84.65 60.01 84.63 74.05 C 84.81 77.46 81.36 80.51 77.98 80.00 C 64.97 79.98 51.96 80.03 38.96 79.98 C 35.80 80.27 33.04 77.14 33.26 74.08 C 33.25 60.04 33.25 46.00 33.26 31.97 C 32.91 29.10 35.16 26.89 37.45 25.60 C 39.75 25.12 42.15 25.41 44.48 25.33 M 35.60 30.57 C 34.94 35.13 35.50 39.79 35.30 44.38 C 41.36 44.40 47.42 44.36 53.48 44.41 C 53.54 43.33 53.60 42.25 53.65 41.16 C 50.68 38.38 48.91 34.72 47.35 31.04 C 46.76 30.93 45.58 30.72 44.99 30.62 C 45.00 29.89 45.02 28.43 45.03 27.70 C 41.81 27.85 37.09 26.72 35.60 30.57 M 51.17 27.70 C 51.33 29.33 50.82 30.63 49.65 31.61 C 51.14 35.59 53.73 39.03 57.01 41.72 C 63.44 42.11 67.89 36.48 69.63 30.90 C 69.05 30.86 67.90 30.79 67.32 30.75 C 67.33 29.99 67.35 28.47 67.36 27.72 C 61.96 27.70 56.57 27.72 51.17 27.70 M 74.01 27.66 C 74.01 28.40 74.01 29.88 74.00 30.62 C 73.42 30.73 72.25 30.95 71.67 31.06 C 70.11 34.79 68.35 38.52 65.13 41.13 C 65.13 41.94 65.14 43.57 65.15 44.38 C 70.89 44.39 76.64 44.39 82.38 44.38 C 82.29 39.91 82.61 35.42 82.22 30.96 C 81.29 27.28 76.96 27.64 74.01 27.66 M 35.37 73.88 C 35.29 76.35 37.66 78.18 40.00 78.15 C 52.37 78.19 64.73 78.16 77.10 78.16 C 79.56 78.35 82.32 76.73 82.32 74.03 C 82.47 64.94 82.36 55.83 82.36 46.74 C 76.64 46.75 70.93 46.74 65.21 46.75 C 65.20 47.38 65.16 48.64 65.14 49.27 C 61.28 49.56 57.43 49.85 53.58 49.24 C 53.55 48.62 53.50 47.36 53.48 46.73 C 47.43 46.75 41.38 46.74 35.33 46.74 C 35.35 55.79 35.24 64.84 35.37 73.88 Z" />
<path fill="#f8fcf8" opacity="1.00" d=" M 51.45 76.00 C 53.41 69.05 55.06 62.01 56.81 55.00 C 58.55 54.99 60.30 54.99 62.05 55.00 C 63.63 62.01 65.25 69.01 66.92 76.00 C 61.76 76.00 56.61 76.00 51.45 76.00 Z" />
</g>
</svg>
