<?xml version="1.0" encoding="UTF-8" ?>
<!DOCTYPE svg PUBLIC "-//W3C//DTD SVG 1.1//EN" "http://www.w3.org/Graphics/SVG/1.1/DTD/svg11.dtd">
<svg width="117pt" height="140pt" viewBox="0 0 117 140" version="1.1" xmlns="http://www.w3.org/2000/svg">
<g id="#000000ff">
<path fill="#000000" opacity="1.00" d=" M 0.00 0.00 L 117.00 0.00 L 117.00 140.00 L 0.00 140.00 L 0.00 0.00 M 33.21 10.22 C 17.94 11.76 5.18 25.62 5.02 40.98 C 5.02 60.68 4.93 80.39 5.06 100.09 C 5.76 116.01 19.99 129.82 35.93 129.98 C 51.66 129.98 67.39 130.09 83.11 129.92 C 99.03 129.24 112.84 114.99 112.98 99.05 C 113.04 80.03 112.98 61.00 113.00 41.98 C 113.06 33.34 109.36 24.79 103.08 18.87 C 97.01 12.97 88.50 9.77 80.05 9.98 C 64.44 10.17 48.80 9.70 33.21 10.22 Z" />
<path fill="#000000" opacity="1.00" d=" M 30.50 12.70 C 34.92 11.71 39.48 12.06 43.98 12.00 C 57.01 12.06 70.05 11.88 83.09 12.09 C 97.93 12.77 110.83 26.07 110.96 40.95 C 111.03 60.31 111.03 79.67 110.96 99.03 C 110.87 114.30 97.27 127.86 82.00 127.95 C 66.33 128.01 50.65 128.08 34.98 127.92 C 20.09 127.27 7.15 113.93 7.03 99.02 C 6.98 79.68 6.98 60.34 7.03 41.00 C 7.19 27.66 17.48 15.42 30.50 12.70 M 40.45 45.38 C 37.96 46.83 36.59 50.18 38.39 52.72 C 41.08 55.41 44.27 57.56 47.28 59.87 C 48.98 61.13 51.04 60.15 52.89 59.94 C 53.62 57.35 54.15 54.70 54.07 52.00 C 54.55 52.00 55.52 51.99 56.00 51.99 C 56.00 51.24 56.00 49.76 56.00 49.01 C 55.51 49.01 54.53 49.00 54.03 48.99 C 54.18 45.95 53.77 42.95 52.89 40.04 C 47.74 37.78 44.23 42.83 40.45 45.38 M 64.00 41.21 C 64.00 43.80 64.00 46.40 64.00 49.00 C 63.25 49.00 61.75 49.00 61.00 49.00 C 61.00 49.75 61.00 51.25 61.00 52.00 C 61.75 52.00 63.25 52.00 64.00 52.00 C 64.00 54.26 64.00 56.53 64.00 58.79 C 65.90 59.41 67.80 61.25 69.90 60.28 C 71.96 59.29 73.57 57.58 75.45 56.28 C 77.48 54.56 80.40 53.09 80.47 50.05 C 80.41 46.67 77.04 45.16 74.81 43.24 C 72.68 41.87 70.93 39.36 68.17 39.42 C 66.72 39.89 65.38 40.60 64.00 41.21 M 57.00 49.00 C 57.00 49.75 57.00 51.25 57.00 52.00 C 57.75 52.00 59.25 52.00 60.00 52.00 C 60.00 51.25 60.00 49.75 60.00 49.00 C 59.25 49.00 57.75 49.00 57.00 49.00 Z" />
<path fill="#000000" opacity="1.00" d=" M 41.01 50.00 C 44.00 47.67 47.01 45.35 50.00 43.01 C 50.00 47.66 50.01 52.31 49.99 56.97 C 47.00 54.65 44.00 52.33 41.01 50.00 Z" />
<path fill="#000000" opacity="1.00" d=" M 68.00 43.01 C 70.99 45.35 74.00 47.67 76.99 50.00 C 74.00 52.33 71.00 54.65 68.01 56.97 C 68.00 52.31 68.00 47.66 68.00 43.01 Z" />
</g>
<g id="#717271ff">
<path fill="#717271" opacity="1.00" d=" M 33.21 10.22 C 48.80 9.70 64.44 10.17 80.05 9.98 C 88.50 9.77 97.01 12.97 103.08 18.87 C 109.36 24.79 113.06 33.34 113.00 41.98 C 112.98 61.00 113.04 80.03 112.98 99.05 C 112.84 114.99 99.03 129.24 83.11 129.92 C 67.39 130.09 51.66 129.98 35.93 129.98 C 19.99 129.82 5.76 116.01 5.06 100.09 C 4.93 80.39 5.02 60.68 5.02 40.98 C 5.18 25.62 17.94 11.76 33.21 10.22 M 30.50 12.70 C 17.48 15.42 7.19 27.66 7.03 41.00 C 6.98 60.34 6.98 79.68 7.03 99.02 C 7.15 113.93 20.09 127.27 34.98 127.92 C 50.65 128.08 66.33 128.01 82.00 127.95 C 97.27 127.86 110.87 114.30 110.96 99.03 C 111.03 79.67 111.03 60.31 110.96 40.95 C 110.83 26.07 97.93 12.77 83.09 12.09 C 70.05 11.88 57.01 12.06 43.98 12.00 C 39.48 12.06 34.92 11.71 30.50 12.70 Z" />
</g>
<g id="#f8fcf8ff">
<path fill="#f8fcf8" opacity="1.00" d=" M 40.45 45.38 C 44.23 42.83 47.74 37.78 52.89 40.04 C 53.77 42.95 54.18 45.95 54.03 48.99 C 54.53 49.00 55.51 49.01 56.00 49.01 C 56.00 49.76 56.00 51.24 56.00 51.99 C 55.52 51.99 54.55 52.00 54.07 52.00 C 54.15 54.70 53.62 57.35 52.89 59.94 C 51.04 60.15 48.98 61.13 47.28 59.87 C 44.27 57.56 41.08 55.41 38.39 52.72 C 36.59 50.18 37.96 46.83 40.45 45.38 M 41.01 50.00 C 44.00 52.33 47.00 54.65 49.99 56.97 C 50.01 52.31 50.00 47.66 50.00 43.01 C 47.01 45.35 44.00 47.67 41.01 50.00 Z" />
<path fill="#f8fcf8" opacity="1.00" d=" M 64.00 41.21 C 65.38 40.60 66.72 39.89 68.17 39.42 C 70.93 39.36 72.68 41.87 74.81 43.24 C 77.04 45.16 80.41 46.67 80.47 50.05 C 80.40 53.09 77.48 54.56 75.45 56.28 C 73.57 57.58 71.96 59.29 69.90 60.28 C 67.80 61.25 65.90 59.41 64.00 58.79 C 64.00 56.53 64.00 54.26 64.00 52.00 C 63.25 52.00 61.75 52.00 61.00 52.00 C 61.00 51.25 61.00 49.75 61.00 49.00 C 61.75 49.00 63.25 49.00 64.00 49.00 C 64.00 46.40 64.00 43.80 64.00 41.21 M 68.00 43.01 C 68.00 47.66 68.00 52.31 68.01 56.97 C 71.00 54.65 74.00 52.33 76.99 50.00 C 74.00 47.67 70.99 45.35 68.00 43.01 Z" />
<path fill="#f8fcf8" opacity="1.00" d=" M 57.00 49.00 C 57.75 49.00 59.25 49.00 60.00 49.00 C 60.00 49.75 60.00 51.25 60.00 52.00 C 59.25 52.00 57.75 52.00 57.00 52.00 C 57.00 51.25 57.00 49.75 57.00 49.00 Z" />
</g>
</svg>
