<?xml version="1.0" encoding="UTF-8" ?>
<!DOCTYPE svg PUBLIC "-//W3C//DTD SVG 1.1//EN" "http://www.w3.org/Graphics/SVG/1.1/DTD/svg11.dtd">
<svg width="117pt" height="140pt" viewBox="0 0 117 140" version="1.1" xmlns="http://www.w3.org/2000/svg">
<g id="#000000ff">
<path fill="#000000" opacity="1.00" d=" M 0.00 0.00 L 117.00 0.00 L 117.00 140.00 L 0.00 140.00 L 0.00 0.00 M 33.19 10.22 C 17.91 11.77 5.16 25.65 5.01 41.02 C 4.99 60.35 4.99 79.68 5.01 99.02 C 5.16 115.00 19.00 129.28 34.96 129.93 C 50.66 130.07 66.37 129.99 82.06 129.97 C 98.02 129.82 112.28 115.98 112.93 100.04 C 113.09 80.70 112.95 61.35 113.00 42.00 C 113.07 33.38 109.38 24.82 103.12 18.90 C 97.01 12.95 88.44 9.74 79.94 9.98 C 64.36 10.17 48.75 9.70 33.19 10.22 Z" />
<path fill="#000000" opacity="1.00" d=" M 30.50 12.70 C 35.25 11.64 40.13 12.09 44.95 12.00 C 57.67 12.05 70.39 11.89 83.11 12.08 C 97.95 12.79 110.83 26.08 110.96 40.95 C 111.05 59.30 110.97 77.65 111.00 95.99 C 111.19 101.39 110.28 106.90 107.68 111.69 C 102.75 121.52 92.06 128.13 81.04 127.98 C 65.67 127.97 50.30 128.10 34.94 127.92 C 20.05 127.24 7.13 113.90 7.03 98.98 C 6.98 79.64 6.98 60.30 7.03 40.96 C 7.22 27.64 17.49 15.41 30.50 12.70 M 42.02 41.02 C 39.16 43.94 34.02 45.49 33.53 50.05 C 34.11 54.54 39.17 56.08 42.02 58.97 C 43.84 60.97 46.55 60.58 48.88 59.92 C 49.63 57.34 50.18 54.70 50.05 52.00 C 52.03 52.00 54.01 52.00 56.00 52.00 C 56.00 51.25 56.00 49.75 56.00 49.00 C 54.01 49.00 52.01 49.00 50.02 49.00 C 50.21 45.96 49.79 42.96 48.87 40.06 C 46.55 39.44 43.81 38.97 42.02 41.02 M 68.00 41.22 C 68.00 47.08 68.00 52.93 68.00 58.79 C 70.12 59.62 72.50 61.59 74.73 59.88 C 77.41 57.86 80.10 55.84 82.67 53.68 C 84.99 51.97 85.00 48.06 82.69 46.35 C 80.11 44.14 77.36 42.13 74.68 40.06 C 72.43 38.45 70.08 40.36 68.00 41.22 M 57.00 49.00 C 57.00 49.75 57.00 51.25 57.00 52.00 C 57.75 52.00 59.25 52.00 60.00 52.00 C 60.00 51.25 60.00 49.75 60.00 49.00 C 59.25 49.00 57.75 49.00 57.00 49.00 M 61.00 49.00 C 61.00 49.75 61.00 51.25 61.00 52.00 C 63.00 52.00 65.00 52.00 67.00 52.00 C 67.00 51.25 67.00 49.75 67.00 49.00 C 65.00 49.00 63.00 49.00 61.00 49.00 Z" />
<path fill="#000000" opacity="1.00" d=" M 37.01 50.00 C 40.00 47.66 43.01 45.35 46.00 43.01 C 46.00 47.66 46.01 52.31 45.99 56.97 C 42.99 54.65 40.00 52.33 37.01 50.00 Z" />
<path fill="#000000" opacity="1.00" d=" M 72.00 43.01 C 74.99 45.35 78.00 47.66 80.99 50.00 C 78.00 52.33 75.01 54.64 72.02 56.97 C 71.99 52.31 72.00 47.66 72.00 43.01 Z" />
</g>
<g id="#717271ff">
<path fill="#717271" opacity="1.00" d=" M 33.19 10.22 C 48.75 9.70 64.36 10.17 79.94 9.98 C 88.44 9.74 97.01 12.95 103.12 18.90 C 109.38 24.82 113.07 33.38 113.00 42.00 C 112.95 61.35 113.09 80.70 112.93 100.04 C 112.28 115.98 98.02 129.82 82.06 129.97 C 66.37 129.99 50.66 130.07 34.96 129.93 C 19.00 129.28 5.16 115.00 5.01 99.02 C 4.99 79.68 4.99 60.35 5.01 41.02 C 5.16 25.65 17.91 11.77 33.19 10.22 M 30.50 12.70 C 17.49 15.41 7.22 27.64 7.03 40.96 C 6.98 60.30 6.98 79.64 7.03 98.98 C 7.13 113.90 20.05 127.24 34.94 127.92 C 50.30 128.10 65.67 127.97 81.04 127.98 C 92.06 128.13 102.75 121.52 107.68 111.69 C 110.28 106.90 111.19 101.39 111.00 95.99 C 110.97 77.65 111.05 59.30 110.96 40.95 C 110.83 26.08 97.95 12.79 83.11 12.08 C 70.39 11.89 57.67 12.05 44.95 12.00 C 40.13 12.09 35.25 11.64 30.50 12.70 Z" />
</g>
<g id="#f8fcf8ff">
<path fill="#f8fcf8" opacity="1.00" d=" M 42.02 41.02 C 43.81 38.97 46.55 39.44 48.87 40.06 C 49.79 42.96 50.21 45.96 50.02 49.00 C 52.01 49.00 54.01 49.00 56.00 49.00 C 56.00 49.75 56.00 51.25 56.00 52.00 C 54.01 52.00 52.03 52.00 50.05 52.00 C 50.18 54.70 49.63 57.34 48.88 59.92 C 46.55 60.58 43.84 60.97 42.02 58.97 C 39.17 56.08 34.11 54.54 33.53 50.05 C 34.02 45.49 39.16 43.94 42.02 41.02 M 37.01 50.00 C 40.00 52.33 42.99 54.65 45.99 56.97 C 46.01 52.31 46.00 47.66 46.00 43.01 C 43.01 45.35 40.00 47.66 37.01 50.00 Z" />
<path fill="#f8fcf8" opacity="1.00" d=" M 68.00 41.22 C 70.08 40.36 72.43 38.45 74.68 40.06 C 77.36 42.13 80.11 44.14 82.69 46.35 C 85.00 48.06 84.99 51.97 82.67 53.68 C 80.10 55.84 77.41 57.86 74.73 59.88 C 72.50 61.59 70.12 59.62 68.00 58.79 C 68.00 52.93 68.00 47.08 68.00 41.22 M 72.00 43.01 C 72.00 47.66 71.99 52.31 72.02 56.97 C 75.01 54.64 78.00 52.33 80.99 50.00 C 78.00 47.66 74.99 45.35 72.00 43.01 Z" />
<path fill="#f8fcf8" opacity="1.00" d=" M 57.00 49.00 C 57.75 49.00 59.25 49.00 60.00 49.00 C 60.00 49.75 60.00 51.25 60.00 52.00 C 59.25 52.00 57.75 52.00 57.00 52.00 C 57.00 51.25 57.00 49.75 57.00 49.00 Z" />
<path fill="#f8fcf8" opacity="1.00" d=" M 61.00 49.00 C 63.00 49.00 65.00 49.00 67.00 49.00 C 67.00 49.75 67.00 51.25 67.00 52.00 C 65.00 52.00 63.00 52.00 61.00 52.00 C 61.00 51.25 61.00 49.75 61.00 49.00 Z" />
</g>
</svg>
