<?xml version="1.0" encoding="UTF-8" ?>
<!DOCTYPE svg PUBLIC "-//W3C//DTD SVG 1.1//EN" "http://www.w3.org/Graphics/SVG/1.1/DTD/svg11.dtd">
<svg width="117pt" height="140pt" viewBox="0 0 117 140" version="1.1" xmlns="http://www.w3.org/2000/svg">
<g id="#000000ff">
<path fill="#000000" opacity="1.00" d=" M 0.00 0.00 L 117.00 0.00 L 117.00 140.00 L 0.00 140.00 L 0.00 0.00 M 33.16 10.23 C 17.91 11.80 5.20 25.63 5.03 40.97 C 4.98 60.32 4.98 79.68 5.02 99.03 C 5.18 114.96 18.95 129.22 34.87 129.91 C 50.60 130.09 66.34 129.99 82.08 129.96 C 98.03 129.81 112.29 115.96 112.92 100.02 C 113.10 80.69 112.95 61.35 113.00 42.02 C 113.06 33.39 109.38 24.84 103.12 18.91 C 97.03 12.98 88.48 9.77 80.00 9.98 C 64.39 10.17 48.75 9.68 33.16 10.23 Z" />
<path fill="#000000" opacity="1.00" d=" M 33.20 12.34 C 48.79 11.72 64.42 12.24 80.03 12.07 C 88.19 11.84 96.35 15.03 102.13 20.80 C 107.63 26.36 111.00 34.07 110.90 41.94 C 110.93 60.99 111.00 80.05 110.87 99.11 C 110.74 114.31 97.23 127.75 82.03 127.87 C 66.66 127.98 51.28 127.96 35.91 127.88 C 20.71 127.72 7.22 114.24 7.12 99.03 C 7.03 79.69 7.03 60.34 7.12 41.01 C 7.26 26.77 19.04 13.83 33.20 12.34 M 45.12 38.07 C 44.21 40.96 43.81 43.97 43.97 47.00 C 41.98 47.00 39.99 47.00 38.00 47.00 C 38.00 47.75 38.00 49.25 38.00 50.00 C 39.98 50.00 41.96 50.00 43.94 50.00 C 43.85 52.70 44.35 55.35 45.12 57.92 C 47.71 58.85 50.63 58.68 52.56 56.52 C 55.26 53.84 59.98 52.33 60.47 48.07 C 60.00 43.50 54.86 41.95 52.01 39.04 C 50.20 37.01 47.45 37.42 45.12 38.07 M 57.93 71.06 C 57.68 73.15 57.70 75.25 57.82 77.35 C 52.38 77.42 46.95 77.39 41.52 77.37 C 41.56 75.67 41.61 73.98 41.65 72.28 C 41.01 72.25 39.73 72.18 39.09 72.14 C 39.31 74.66 37.96 78.56 40.99 79.82 C 52.95 80.02 64.95 80.02 76.91 79.82 C 80.06 78.73 78.70 74.64 78.90 72.12 C 78.26 72.17 76.98 72.25 76.34 72.30 C 76.39 73.99 76.44 75.68 76.49 77.37 C 71.05 77.39 65.61 77.42 60.17 77.35 C 59.96 75.17 61.63 70.71 57.93 71.06 Z" />
<path fill="#000000" opacity="1.00" d=" M 49.00 41.81 C 51.67 43.86 54.33 45.93 56.99 48.00 C 54.33 50.07 51.67 52.14 49.00 54.19 C 49.00 50.06 49.00 45.94 49.00 41.81 Z" />
</g>
<g id="#737473ff">
<path fill="#737473" opacity="1.00" d=" M 33.16 10.23 C 48.75 9.68 64.39 10.17 80.00 9.98 C 88.48 9.77 97.03 12.98 103.12 18.91 C 109.38 24.84 113.06 33.39 113.00 42.02 C 112.95 61.35 113.10 80.69 112.92 100.02 C 112.29 115.96 98.03 129.81 82.08 129.96 C 66.34 129.99 50.60 130.09 34.87 129.91 C 18.95 129.22 5.18 114.96 5.02 99.03 C 4.98 79.68 4.98 60.32 5.03 40.97 C 5.20 25.63 17.91 11.80 33.16 10.23 M 33.20 12.34 C 19.04 13.83 7.26 26.77 7.12 41.01 C 7.03 60.34 7.03 79.69 7.12 99.03 C 7.22 114.24 20.71 127.72 35.91 127.88 C 51.28 127.96 66.66 127.98 82.03 127.87 C 97.23 127.75 110.74 114.31 110.87 99.11 C 111.00 80.05 110.93 60.99 110.90 41.94 C 111.00 34.07 107.63 26.36 102.13 20.80 C 96.35 15.03 88.19 11.84 80.03 12.07 C 64.42 12.24 48.79 11.72 33.20 12.34 Z" />
</g>
<g id="#f8fcf8ff">
<path fill="#f8fcf8" opacity="1.00" d=" M 45.12 38.07 C 47.45 37.42 50.20 37.01 52.01 39.04 C 54.86 41.95 60.00 43.50 60.47 48.07 C 59.98 52.33 55.26 53.84 52.56 56.52 C 50.63 58.68 47.71 58.85 45.12 57.92 C 44.35 55.35 43.85 52.70 43.94 50.00 C 41.96 50.00 39.98 50.00 38.00 50.00 C 38.00 49.25 38.00 47.75 38.00 47.00 C 39.99 47.00 41.98 47.00 43.97 47.00 C 43.81 43.97 44.21 40.96 45.12 38.07 M 49.00 41.81 C 49.00 45.94 49.00 50.06 49.00 54.19 C 51.67 52.14 54.33 50.07 56.99 48.00 C 54.33 45.93 51.67 43.86 49.00 41.81 Z" />
<path fill="#f8fcf8" opacity="1.00" d=" M 57.93 71.06 C 61.63 70.71 59.96 75.17 60.17 77.35 C 65.61 77.42 71.05 77.39 76.49 77.37 C 76.44 75.68 76.39 73.99 76.34 72.30 C 76.98 72.25 78.26 72.17 78.90 72.12 C 78.70 74.64 80.06 78.73 76.91 79.82 C 64.95 80.02 52.95 80.02 40.99 79.82 C 37.96 78.56 39.31 74.66 39.09 72.14 C 39.73 72.18 41.01 72.25 41.65 72.28 C 41.61 73.98 41.56 75.67 41.52 77.37 C 46.95 77.39 52.38 77.42 57.82 77.35 C 57.70 75.25 57.68 73.15 57.93 71.06 Z" />
</g>
</svg>
