<?xml version="1.0" encoding="UTF-8" ?>
<!DOCTYPE svg PUBLIC "-//W3C//DTD SVG 1.1//EN" "http://www.w3.org/Graphics/SVG/1.1/DTD/svg11.dtd">
<svg width="117px" height="140px" viewBox="0 0 117 140" version="1.1" xmlns="http://www.w3.org/2000/svg">
<g id="#000000ff">
<path fill="#000000" opacity="1.00" d=" M 0.00 0.00 L 117.00 0.00 L 117.00 140.00 L 0.00 140.00 L 0.00 0.00 M 33.22 10.20 C 17.95 11.75 5.17 25.59 5.01 40.96 C 5.02 60.68 4.94 80.40 5.05 100.11 C 5.77 115.69 19.38 129.28 34.96 129.95 C 51.01 130.03 67.07 130.05 83.12 129.94 C 98.68 129.24 112.26 115.64 112.95 100.09 C 113.08 80.74 112.95 61.40 113.01 42.06 C 113.12 32.45 108.50 22.98 101.00 17.02 C 95.12 12.28 87.52 9.76 79.97 9.98 C 64.39 10.16 48.78 9.72 33.22 10.20 Z" />
<path fill="#000000" opacity="1.00" d=" M 30.49 12.71 C 33.93 11.91 37.49 11.98 41.00 12.00 C 55.02 12.06 69.03 11.89 83.05 12.08 C 97.92 12.77 110.84 26.08 110.96 41.00 C 111.02 60.35 111.03 79.70 110.96 99.05 C 110.81 113.94 97.91 127.26 83.04 127.90 C 67.37 128.12 51.68 127.97 36.01 127.97 C 20.74 127.83 7.18 114.32 7.03 99.05 C 6.98 79.68 6.99 60.31 7.03 40.94 C 7.25 27.64 17.49 15.42 30.49 12.71 M 39.58 27.97 C 41.11 29.93 43.27 31.32 44.70 33.35 C 45.86 36.06 42.76 39.32 39.97 38.53 C 38.37 36.76 36.65 35.10 35.03 33.34 C 34.39 33.41 33.12 33.55 32.49 33.62 C 32.35 36.18 31.16 39.84 33.27 41.75 C 35.24 46.78 40.70 49.66 45.99 48.72 C 48.58 51.28 51.23 53.79 53.77 56.40 C 53.77 56.72 53.77 57.35 53.77 57.67 C 49.54 62.03 45.08 66.17 40.95 70.64 C 40.44 70.26 39.42 69.51 38.90 69.14 C 37.19 71.37 35.36 73.59 34.15 76.15 C 34.26 77.46 35.13 78.54 35.64 79.71 C 38.63 78.66 41.11 76.68 43.79 75.06 C 43.62 74.30 43.30 72.80 43.13 72.05 C 47.47 67.73 51.85 63.44 56.07 59.01 C 62.22 64.47 67.67 70.69 73.70 76.28 C 75.43 77.82 77.59 79.19 80.02 78.85 C 82.71 79.19 84.27 76.77 85.89 75.09 C 85.88 73.35 85.84 71.61 85.59 69.90 C 80.43 64.60 75.01 59.55 69.99 54.12 C 68.38 55.36 66.95 56.80 65.47 58.19 C 65.50 59.47 66.56 61.10 65.06 62.01 C 61.33 58.72 57.98 55.03 54.38 51.59 C 53.25 50.37 51.69 49.32 51.47 47.53 C 52.38 47.60 54.20 47.75 55.12 47.83 C 56.42 46.53 57.71 45.22 59.07 43.98 C 58.32 42.30 56.89 41.15 55.47 40.06 C 56.46 33.60 51.94 26.33 45.04 26.12 C 43.29 26.21 39.83 25.54 39.58 27.97 M 77.89 28.85 C 70.63 35.76 63.78 43.11 56.50 50.00 C 58.70 52.28 60.98 54.49 63.14 56.80 C 70.57 49.71 77.68 42.30 85.02 35.12 C 86.56 33.81 85.62 31.57 85.87 29.83 C 83.81 27.74 80.21 26.29 77.89 28.85 Z" />
<path fill="#000000" opacity="1.00" d=" M 80.92 30.53 C 81.36 30.52 82.25 30.51 82.69 30.50 C 82.97 31.70 82.61 32.89 81.58 33.60 C 76.04 39.06 70.59 44.60 65.06 50.07 C 64.39 50.79 63.47 51.16 62.60 51.56 C 62.52 50.94 62.36 49.69 62.28 49.06 C 68.65 43.05 74.74 36.74 80.92 30.53 Z" />
<path fill="#000000" opacity="1.00" d=" M 76.39 74.52 C 73.95 72.31 76.41 69.19 78.95 68.60 C 79.63 68.99 80.31 69.38 81.00 69.76 C 81.38 70.30 82.13 71.38 82.51 71.91 C 82.19 74.83 78.58 77.24 76.39 74.52 Z" />
</g>
<g id="#6f706fff">
<path fill="#6f706f" opacity="1.00" d=" M 33.22 10.20 C 48.78 9.72 64.39 10.16 79.97 9.98 C 87.52 9.76 95.12 12.28 101.00 17.02 C 108.50 22.98 113.12 32.45 113.01 42.06 C 112.95 61.40 113.08 80.74 112.95 100.09 C 112.26 115.64 98.68 129.24 83.12 129.94 C 67.07 130.05 51.01 130.03 34.96 129.95 C 19.38 129.28 5.77 115.69 5.05 100.11 C 4.94 80.40 5.02 60.68 5.01 40.96 C 5.17 25.59 17.95 11.75 33.22 10.20 M 30.49 12.71 C 17.49 15.42 7.25 27.64 7.03 40.94 C 6.99 60.31 6.98 79.68 7.03 99.05 C 7.18 114.32 20.74 127.83 36.01 127.97 C 51.68 127.97 67.37 128.12 83.04 127.90 C 97.91 127.26 110.81 113.94 110.96 99.05 C 111.03 79.70 111.02 60.35 110.96 41.00 C 110.84 26.08 97.92 12.77 83.05 12.08 C 69.03 11.89 55.02 12.06 41.00 12.00 C 37.49 11.98 33.93 11.91 30.49 12.71 Z" />
</g>
<g id="#f8fcf8ff">
<path fill="#f8fcf8" opacity="1.00" d=" M 39.58 27.97 C 39.83 25.54 43.29 26.21 45.04 26.12 C 51.94 26.33 56.46 33.60 55.47 40.06 C 56.89 41.15 58.32 42.30 59.07 43.98 C 57.71 45.22 56.42 46.53 55.12 47.83 C 54.20 47.75 52.38 47.60 51.47 47.53 C 51.69 49.32 53.25 50.37 54.38 51.59 C 57.98 55.03 61.33 58.72 65.06 62.01 C 66.56 61.10 65.50 59.47 65.47 58.19 C 66.95 56.80 68.38 55.36 69.99 54.12 C 75.01 59.55 80.43 64.60 85.59 69.90 C 85.84 71.61 85.88 73.35 85.89 75.09 C 84.27 76.77 82.71 79.19 80.02 78.85 C 77.59 79.19 75.43 77.82 73.70 76.28 C 67.67 70.69 62.22 64.47 56.07 59.01 C 51.85 63.44 47.47 67.73 43.13 72.05 C 43.30 72.80 43.62 74.30 43.79 75.06 C 41.11 76.68 38.63 78.66 35.64 79.71 C 35.13 78.54 34.26 77.46 34.15 76.15 C 35.36 73.59 37.19 71.37 38.90 69.14 C 39.42 69.51 40.44 70.26 40.95 70.64 C 45.08 66.17 49.54 62.03 53.77 57.67 C 53.77 57.35 53.77 56.72 53.77 56.40 C 51.23 53.79 48.58 51.28 45.99 48.72 C 40.70 49.66 35.24 46.78 33.27 41.75 C 31.16 39.84 32.35 36.18 32.49 33.62 C 33.12 33.55 34.39 33.41 35.03 33.34 C 36.65 35.10 38.37 36.76 39.97 38.53 C 42.76 39.32 45.86 36.06 44.70 33.35 C 43.27 31.32 41.11 29.93 39.58 27.97 M 76.39 74.52 C 78.58 77.24 82.19 74.83 82.51 71.91 C 82.13 71.38 81.38 70.30 81.00 69.76 C 80.31 69.38 79.63 68.99 78.95 68.60 C 76.41 69.19 73.95 72.31 76.39 74.52 Z" />
<path fill="#f8fcf8" opacity="1.00" d=" M 77.89 28.85 C 80.21 26.29 83.81 27.74 85.87 29.83 C 85.62 31.57 86.56 33.81 85.02 35.12 C 77.68 42.30 70.57 49.71 63.14 56.80 C 60.98 54.49 58.70 52.28 56.50 50.00 C 63.78 43.11 70.63 35.76 77.89 28.85 M 80.92 30.53 C 74.74 36.74 68.65 43.05 62.28 49.06 C 62.36 49.69 62.52 50.94 62.60 51.56 C 63.47 51.16 64.39 50.79 65.06 50.07 C 70.59 44.60 76.04 39.06 81.58 33.60 C 82.61 32.89 82.97 31.70 82.69 30.50 C 82.25 30.51 81.36 30.52 80.92 30.53 Z" />
</g>
</svg>
