<?xml version="1.0" encoding="UTF-8" ?>
<!DOCTYPE svg PUBLIC "-//W3C//DTD SVG 1.1//EN" "http://www.w3.org/Graphics/SVG/1.1/DTD/svg11.dtd">
<svg width="117pt" height="140pt" viewBox="0 0 117 140" version="1.1" xmlns="http://www.w3.org/2000/svg">
<g id="#000000ff">
<path fill="#000000" opacity="1.00" d=" M 0.00 0.00 L 117.00 0.00 L 117.00 140.00 L 0.00 140.00 L 0.00 0.00 M 33.23 10.23 C 20.74 11.57 9.65 20.99 6.27 33.08 C 4.64 38.25 5.01 43.70 5.00 49.04 C 5.01 65.36 4.99 81.69 5.00 98.01 C 4.90 109.05 11.06 119.85 20.57 125.43 C 25.79 128.62 31.94 130.14 38.05 130.02 C 53.05 129.92 68.06 130.13 83.06 129.91 C 99.01 129.26 112.85 114.98 112.96 99.02 C 113.05 79.98 112.99 60.95 112.99 41.91 C 113.07 31.14 107.19 20.61 98.05 14.94 C 92.41 11.32 85.65 9.74 78.99 9.98 C 63.74 10.18 48.47 9.68 33.23 10.23 Z" />
<path fill="#000000" opacity="1.00" d=" M 30.45 12.69 C 34.23 11.87 38.12 11.99 41.96 12.00 C 55.66 12.07 69.37 11.87 83.07 12.09 C 97.95 12.73 110.90 26.11 110.95 41.02 C 111.05 60.03 110.99 79.03 110.98 98.04 C 111.42 113.65 97.67 127.87 82.06 127.94 C 66.70 128.05 51.33 128.01 35.97 127.96 C 20.71 127.86 7.12 114.29 7.04 99.02 C 6.98 79.66 6.97 60.30 7.04 40.93 C 7.20 27.63 17.49 15.43 30.45 12.69 M 44.34 31.20 C 42.07 32.57 39.97 34.21 38.13 36.13 C 28.27 45.85 28.05 63.51 37.75 73.41 C 42.80 79.04 50.39 82.49 57.99 82.04 C 68.84 82.67 79.34 75.42 83.39 65.49 C 85.65 60.28 85.71 54.39 84.81 48.87 C 82.99 40.72 77.12 33.68 69.56 30.21 C 61.60 26.71 52.01 27.09 44.34 31.20 Z" />
<path fill="#000000" opacity="1.00" d=" M 51.78 31.02 C 52.49 31.00 53.92 30.97 54.63 30.95 C 54.57 32.73 55.00 34.43 56.61 35.40 C 56.96 34.79 57.65 33.57 57.99 32.96 C 60.92 31.02 64.44 30.36 67.59 32.21 C 68.07 32.49 69.03 33.03 69.50 33.30 C 69.88 34.44 70.37 35.53 70.96 36.57 C 71.35 36.19 72.13 35.43 72.52 35.04 C 72.33 35.51 71.96 36.45 71.77 36.92 C 73.19 36.31 74.37 36.64 75.31 37.93 C 74.53 37.73 72.95 37.33 72.16 37.13 C 72.02 37.82 71.75 39.19 71.61 39.88 C 70.96 38.06 69.40 36.87 67.88 35.82 C 68.21 36.52 67.11 38.26 68.30 38.42 C 70.74 38.41 70.88 41.04 71.90 42.61 C 71.21 42.51 69.83 42.32 69.14 42.22 C 69.71 43.50 69.21 45.79 71.33 45.76 C 72.49 44.59 73.46 43.24 74.79 42.25 C 75.51 42.64 76.97 43.42 77.69 43.81 C 77.57 44.15 77.33 44.82 77.21 45.16 C 79.55 45.12 81.84 46.41 82.27 48.85 C 81.64 48.62 80.39 48.14 79.76 47.91 C 78.08 49.00 75.89 47.17 76.10 45.29 C 74.41 45.54 72.70 45.74 71.05 46.19 C 69.68 48.09 68.60 50.19 67.31 52.15 C 67.54 53.47 67.59 54.80 67.45 56.15 C 68.38 57.47 69.34 58.76 70.32 60.05 C 71.70 59.88 73.08 59.68 74.46 59.46 C 74.90 59.75 75.78 60.33 76.22 60.62 C 76.59 65.56 74.27 69.91 72.52 74.37 C 72.14 75.34 71.45 75.99 70.45 76.33 C 67.68 77.81 64.75 79.09 61.56 79.21 C 59.80 80.52 57.55 79.91 55.54 79.92 C 54.43 79.21 53.22 78.79 51.91 78.64 C 51.86 78.12 51.76 77.07 51.71 76.55 C 53.22 75.10 54.32 73.31 55.12 71.39 C 58.45 70.35 58.16 66.32 60.10 63.96 C 57.97 63.15 55.82 62.43 53.69 61.64 C 52.73 59.14 49.97 58.52 47.85 57.34 C 45.47 55.86 42.93 57.57 40.45 57.71 C 40.58 56.21 40.17 54.90 38.79 54.18 C 38.91 53.51 39.15 52.18 39.27 51.52 C 38.47 52.46 37.66 53.41 36.85 54.35 C 36.17 52.58 36.33 50.73 36.78 48.93 C 37.68 48.71 39.49 48.27 40.39 48.06 C 40.88 49.41 41.29 50.82 40.30 52.06 C 41.34 52.53 42.36 53.01 43.40 53.48 C 44.73 53.73 46.08 53.87 47.44 53.89 C 45.42 53.22 43.35 52.70 41.30 52.17 C 41.37 50.75 41.44 49.34 41.51 47.92 C 43.91 45.32 45.64 41.15 49.85 41.48 C 49.40 41.09 48.52 40.32 48.07 39.93 C 48.97 39.54 50.76 38.76 51.66 38.37 C 51.15 39.63 51.51 40.61 52.72 41.30 C 52.54 39.09 51.65 37.07 50.72 35.11 C 50.40 35.24 49.77 35.50 49.45 35.63 C 49.08 35.01 48.33 33.75 47.96 33.13 C 46.95 35.25 45.74 37.27 44.61 39.33 C 44.73 37.82 44.01 36.62 42.92 35.62 C 45.02 34.11 47.44 33.14 49.64 31.80 C 49.56 32.50 49.38 33.89 49.29 34.59 C 50.48 33.88 51.65 33.15 52.82 32.41 L 51.78 31.02 M 62.22 32.61 C 62.42 33.07 62.83 33.99 63.03 34.44 C 63.45 34.12 64.29 33.46 64.71 33.13 C 64.15 31.93 63.32 31.76 62.22 32.61 Z" />
<path fill="#000000" opacity="1.00" d=" M 33.10 50.41 C 33.75 51.59 34.11 52.96 34.93 54.05 C 36.81 55.21 38.93 56.10 40.16 58.05 C 40.76 58.16 41.98 58.37 42.58 58.48 C 42.41 60.51 41.15 62.72 42.37 64.65 C 43.31 66.62 45.17 67.84 46.67 69.33 C 47.96 72.47 48.13 76.13 50.68 78.66 C 48.94 77.95 47.24 77.17 45.56 76.33 C 40.75 73.28 36.72 68.81 34.66 63.45 C 34.07 61.81 33.95 60.03 33.10 58.49 C 32.93 55.80 32.97 53.10 33.10 50.41 Z" />
</g>
<g id="#737473ff">
<path fill="#737473" opacity="1.00" d=" M 33.23 10.23 C 48.47 9.68 63.74 10.18 78.99 9.98 C 85.65 9.74 92.41 11.32 98.05 14.94 C 107.19 20.61 113.07 31.14 112.99 41.91 C 112.99 60.95 113.05 79.98 112.96 99.02 C 112.85 114.98 99.01 129.26 83.06 129.91 C 68.06 130.13 53.05 129.92 38.05 130.02 C 31.94 130.14 25.79 128.62 20.57 125.43 C 11.06 119.85 4.90 109.05 5.00 98.01 C 4.99 81.69 5.01 65.36 5.00 49.04 C 5.01 43.70 4.64 38.25 6.27 33.08 C 9.65 20.99 20.74 11.57 33.23 10.23 M 30.45 12.69 C 17.49 15.43 7.20 27.63 7.04 40.93 C 6.97 60.30 6.98 79.66 7.04 99.02 C 7.12 114.29 20.71 127.86 35.97 127.96 C 51.33 128.01 66.70 128.05 82.06 127.94 C 97.67 127.87 111.42 113.65 110.98 98.04 C 110.99 79.03 111.05 60.03 110.95 41.02 C 110.90 26.11 97.95 12.73 83.07 12.09 C 69.37 11.87 55.66 12.07 41.96 12.00 C 38.12 11.99 34.23 11.87 30.45 12.69 Z" />
</g>
<g id="#f8fcf8ff">
<path fill="#f8fcf8" opacity="1.00" d=" M 44.34 31.20 C 52.01 27.09 61.60 26.71 69.56 30.21 C 77.12 33.68 82.99 40.72 84.81 48.87 C 85.71 54.39 85.65 60.28 83.39 65.49 C 79.34 75.42 68.84 82.67 57.99 82.04 C 50.39 82.49 42.80 79.04 37.75 73.41 C 28.05 63.51 28.27 45.85 38.13 36.13 C 39.97 34.21 42.07 32.57 44.34 31.20 M 51.78 31.02 L 52.82 32.41 C 51.65 33.15 50.48 33.88 49.29 34.59 C 49.38 33.89 49.56 32.50 49.64 31.80 C 47.44 33.14 45.02 34.11 42.92 35.62 C 44.01 36.62 44.73 37.82 44.61 39.33 C 45.74 37.27 46.95 35.25 47.96 33.13 C 48.33 33.75 49.08 35.01 49.45 35.63 C 49.77 35.50 50.40 35.24 50.72 35.11 C 51.65 37.07 52.54 39.09 52.72 41.30 C 51.51 40.61 51.15 39.63 51.66 38.37 C 50.76 38.76 48.97 39.54 48.07 39.93 C 48.52 40.32 49.40 41.09 49.85 41.48 C 45.64 41.15 43.91 45.32 41.51 47.92 C 41.44 49.34 41.37 50.75 41.30 52.17 C 43.35 52.70 45.42 53.22 47.44 53.89 C 46.08 53.87 44.73 53.73 43.40 53.48 C 42.36 53.01 41.34 52.53 40.30 52.06 C 41.29 50.82 40.88 49.41 40.39 48.06 C 39.49 48.27 37.68 48.71 36.78 48.93 C 36.33 50.73 36.17 52.58 36.85 54.35 C 37.66 53.41 38.47 52.46 39.27 51.52 C 39.15 52.18 38.91 53.51 38.79 54.18 C 40.17 54.90 40.58 56.21 40.45 57.71 C 42.93 57.57 45.47 55.86 47.85 57.34 C 49.97 58.52 52.73 59.14 53.69 61.64 C 55.82 62.43 57.97 63.15 60.10 63.96 C 58.16 66.32 58.45 70.35 55.12 71.39 C 54.32 73.31 53.22 75.10 51.71 76.55 C 51.76 77.07 51.86 78.12 51.91 78.64 C 53.22 78.79 54.43 79.21 55.54 79.92 C 57.55 79.91 59.80 80.52 61.56 79.21 C 64.75 79.09 67.68 77.81 70.45 76.33 C 71.45 75.99 72.14 75.34 72.52 74.37 C 74.27 69.91 76.59 65.56 76.22 60.62 C 75.78 60.33 74.90 59.75 74.46 59.46 C 73.08 59.68 71.70 59.88 70.32 60.05 C 69.34 58.76 68.38 57.47 67.45 56.15 C 67.59 54.80 67.54 53.47 67.31 52.15 C 68.60 50.19 69.68 48.09 71.05 46.19 C 72.70 45.74 74.41 45.54 76.10 45.29 C 75.89 47.17 78.08 49.00 79.76 47.91 C 80.39 48.14 81.64 48.62 82.27 48.85 C 81.84 46.41 79.55 45.12 77.21 45.16 C 77.33 44.82 77.57 44.15 77.69 43.81 C 76.97 43.42 75.51 42.64 74.79 42.25 C 73.46 43.24 72.49 44.59 71.33 45.76 C 69.21 45.79 69.71 43.50 69.14 42.22 C 69.83 42.32 71.21 42.51 71.90 42.61 C 70.88 41.04 70.74 38.41 68.30 38.42 C 67.11 38.26 68.21 36.52 67.88 35.82 C 69.40 36.87 70.96 38.06 71.61 39.88 C 71.75 39.19 72.02 37.82 72.16 37.13 C 72.95 37.33 74.53 37.73 75.31 37.93 C 74.37 36.64 73.19 36.31 71.77 36.92 C 71.96 36.45 72.33 35.51 72.52 35.04 C 72.13 35.43 71.35 36.19 70.96 36.57 C 70.37 35.53 69.88 34.44 69.50 33.30 C 69.03 33.03 68.07 32.49 67.59 32.21 C 64.44 30.36 60.92 31.02 57.99 32.96 C 57.65 33.57 56.96 34.79 56.61 35.40 C 55.00 34.43 54.57 32.73 54.63 30.95 C 53.92 30.97 52.49 31.00 51.78 31.02 M 33.10 50.41 C 32.97 53.10 32.93 55.80 33.10 58.49 C 33.95 60.03 34.07 61.81 34.66 63.45 C 36.72 68.81 40.75 73.28 45.56 76.33 C 47.24 77.17 48.94 77.95 50.68 78.66 C 48.13 76.13 47.96 72.47 46.67 69.33 C 45.17 67.84 43.31 66.62 42.37 64.65 C 41.15 62.72 42.41 60.51 42.58 58.48 C 41.98 58.37 40.76 58.16 40.16 58.05 C 38.93 56.10 36.81 55.21 34.93 54.05 C 34.11 52.96 33.75 51.59 33.10 50.41 Z" />
<path fill="#f8fcf8" opacity="1.00" d=" M 62.22 32.61 C 63.32 31.76 64.15 31.93 64.71 33.13 C 64.29 33.46 63.45 34.12 63.03 34.44 C 62.83 33.99 62.42 33.07 62.22 32.61 Z" />
</g>
</svg>
