<?xml version="1.0" encoding="UTF-8" ?>
<!DOCTYPE svg PUBLIC "-//W3C//DTD SVG 1.1//EN" "http://www.w3.org/Graphics/SVG/1.1/DTD/svg11.dtd">
<svg width="117px" height="140px" viewBox="0 0 117 140" version="1.1" xmlns="http://www.w3.org/2000/svg">
<g id="#000000ff">
<path fill="#000000" opacity="1.00" d=" M 0.00 0.00 L 117.00 0.00 L 117.00 140.00 L 0.00 140.00 L 0.00 0.00 M 33.19 10.23 C 17.93 11.78 5.19 25.63 5.03 40.98 C 4.98 60.34 4.98 79.71 5.03 99.07 C 5.20 115.00 18.98 129.23 34.90 129.92 C 49.94 130.12 64.99 129.93 80.03 130.01 C 88.99 130.26 97.98 126.62 104.12 120.08 C 110.03 113.97 113.28 105.46 113.01 96.97 C 112.93 77.94 113.12 58.91 112.92 39.89 C 112.24 23.96 97.98 10.19 82.05 10.03 C 65.76 10.10 49.46 9.72 33.19 10.23 Z" />
<path fill="#000000" opacity="1.00" d=" M 30.41 12.70 C 34.54 11.78 38.79 12.02 42.98 12.00 C 56.33 12.06 69.69 11.89 83.03 12.08 C 97.92 12.72 110.88 26.08 110.96 40.99 C 111.02 60.34 111.03 79.69 110.96 99.03 C 110.88 114.26 97.33 127.83 82.10 127.95 C 66.72 128.05 51.35 128.01 35.97 127.96 C 20.70 127.85 7.11 114.28 7.03 99.01 C 6.98 79.67 6.98 60.33 7.03 41.00 C 7.18 27.69 17.44 15.46 30.41 12.70 M 40.79 45.09 C 41.61 46.18 42.53 47.19 43.42 48.22 C 46.45 46.82 49.54 45.28 52.93 45.03 C 57.72 44.60 62.43 46.57 66.17 49.45 C 68.30 46.86 69.90 43.92 71.67 41.09 C 66.05 36.98 58.64 36.89 52.05 37.98 C 47.86 39.38 43.35 41.33 40.79 45.09 M 67.17 51.01 C 70.64 54.31 71.29 59.09 71.98 63.58 C 75.70 63.58 79.43 63.58 83.15 63.57 C 84.32 55.01 79.50 46.79 72.87 41.72 C 71.11 44.90 69.24 48.03 67.17 51.01 M 33.81 58.75 C 34.73 59.14 35.65 59.55 36.56 59.98 C 37.41 57.75 38.03 55.41 39.24 53.34 C 40.20 52.23 40.76 49.83 42.78 50.68 C 42.51 50.03 41.98 48.73 41.71 48.08 C 40.81 47.58 39.92 47.06 39.02 46.54 C 36.59 50.26 34.43 54.29 33.81 58.75 M 42.80 51.24 C 46.63 55.44 49.49 60.38 52.89 64.91 C 54.08 64.02 55.04 62.84 56.27 61.99 C 51.91 57.90 47.57 53.75 43.73 49.15 C 43.41 49.84 43.10 50.54 42.80 51.24 M 55.69 69.27 C 56.61 70.66 58.22 70.04 59.51 69.78 C 60.00 68.82 60.50 67.86 61.01 66.90 C 60.22 65.96 59.50 64.94 58.50 64.21 C 55.73 63.48 53.15 67.40 55.69 69.27 Z" />
<path fill="#000000" opacity="1.00" d=" M 54.83 41.24 C 56.48 40.84 58.18 40.70 59.87 40.60 C 59.73 41.01 59.44 41.85 59.30 42.26 C 57.80 41.95 56.32 41.60 54.83 41.24 Z" />
<path fill="#000000" opacity="1.00" d=" M 62.81 41.09 C 64.20 41.45 65.59 41.81 66.99 42.15 C 66.39 42.98 65.79 43.82 65.19 44.66 C 63.89 43.82 62.57 42.87 62.81 41.09 Z" />
<path fill="#000000" opacity="1.00" d=" M 73.50 46.97 C 75.19 47.08 73.95 49.48 72.91 49.72 C 71.48 49.57 72.48 47.17 73.50 46.97 Z" />
<path fill="#000000" opacity="1.00" d=" M 76.40 50.30 C 76.99 51.44 77.57 52.58 78.16 53.71 C 76.84 54.31 75.51 54.90 74.20 55.52 C 73.76 54.78 73.30 54.04 72.84 53.31 C 74.03 52.31 75.21 51.30 76.40 50.30 Z" />
<path fill="#000000" opacity="1.00" d=" M 74.26 59.90 C 75.69 58.61 77.40 57.71 79.07 56.78 C 79.30 57.86 79.52 58.94 79.74 60.03 C 77.91 60.01 76.08 59.99 74.26 59.90 Z" />
</g>
<g id="#737473ff">
<path fill="#737473" opacity="1.00" d=" M 33.19 10.23 C 49.46 9.72 65.76 10.10 82.05 10.03 C 97.98 10.19 112.24 23.96 112.92 39.89 C 113.12 58.91 112.93 77.94 113.01 96.97 C 113.28 105.46 110.03 113.97 104.12 120.08 C 97.98 126.62 88.99 130.26 80.03 130.01 C 64.99 129.93 49.94 130.12 34.90 129.92 C 18.98 129.23 5.20 115.00 5.03 99.07 C 4.98 79.71 4.98 60.34 5.03 40.98 C 5.19 25.63 17.93 11.78 33.19 10.23 M 30.41 12.70 C 17.44 15.46 7.18 27.69 7.03 41.00 C 6.98 60.33 6.98 79.67 7.03 99.01 C 7.11 114.28 20.70 127.85 35.97 127.96 C 51.35 128.01 66.72 128.05 82.10 127.95 C 97.33 127.83 110.88 114.26 110.96 99.03 C 111.03 79.69 111.02 60.34 110.96 40.99 C 110.88 26.08 97.92 12.72 83.03 12.08 C 69.69 11.89 56.33 12.06 42.98 12.00 C 38.79 12.02 34.54 11.78 30.41 12.70 Z" />
</g>
<g id="#f8fcf8ff">
<path fill="#f8fcf8" opacity="1.00" d=" M 40.79 45.09 C 43.35 41.33 47.86 39.38 52.05 37.98 C 58.64 36.89 66.05 36.98 71.67 41.09 C 69.90 43.92 68.30 46.86 66.17 49.45 C 62.43 46.57 57.72 44.60 52.93 45.03 C 49.54 45.28 46.45 46.82 43.42 48.22 C 42.53 47.19 41.61 46.18 40.79 45.09 M 54.83 41.24 C 56.32 41.60 57.80 41.95 59.30 42.26 C 59.44 41.85 59.73 41.01 59.87 40.60 C 58.18 40.70 56.48 40.84 54.83 41.24 M 62.81 41.09 C 62.57 42.87 63.89 43.82 65.19 44.66 C 65.79 43.82 66.39 42.98 66.99 42.15 C 65.59 41.81 64.20 41.45 62.81 41.09 Z" />
<path fill="#f8fcf8" opacity="1.00" d=" M 67.17 51.01 C 69.24 48.03 71.11 44.90 72.87 41.72 C 79.50 46.79 84.32 55.01 83.15 63.57 C 79.43 63.58 75.70 63.58 71.98 63.58 C 71.29 59.09 70.64 54.31 67.17 51.01 M 73.50 46.97 C 72.48 47.17 71.48 49.57 72.91 49.72 C 73.95 49.48 75.19 47.08 73.50 46.97 M 76.40 50.30 C 75.21 51.30 74.03 52.31 72.84 53.31 C 73.30 54.04 73.76 54.78 74.20 55.52 C 75.51 54.90 76.84 54.31 78.16 53.71 C 77.57 52.58 76.99 51.44 76.40 50.30 M 74.26 59.90 C 76.08 59.99 77.91 60.01 79.74 60.03 C 79.52 58.94 79.30 57.86 79.07 56.78 C 77.40 57.71 75.69 58.61 74.26 59.90 Z" />
<path fill="#f8fcf8" opacity="1.00" d=" M 33.81 58.75 C 34.43 54.29 36.59 50.26 39.02 46.54 C 39.92 47.06 40.81 47.58 41.71 48.08 C 41.98 48.73 42.51 50.03 42.78 50.68 C 40.76 49.83 40.20 52.23 39.24 53.34 C 38.03 55.41 37.41 57.75 36.56 59.98 C 35.65 59.55 34.73 59.14 33.81 58.75 Z" />
<path fill="#f8fcf8" opacity="1.00" d=" M 42.80 51.24 C 43.10 50.54 43.41 49.84 43.73 49.15 C 47.57 53.75 51.91 57.90 56.27 61.99 C 55.04 62.84 54.08 64.02 52.89 64.91 C 49.49 60.38 46.63 55.44 42.80 51.24 Z" />
<path fill="#f8fcf8" opacity="1.00" d=" M 55.69 69.27 C 53.15 67.40 55.73 63.48 58.50 64.21 C 59.50 64.94 60.22 65.96 61.01 66.90 C 60.50 67.86 60.00 68.82 59.51 69.78 C 58.22 70.04 56.61 70.66 55.69 69.27 Z" />
</g>
</svg>
