<?xml version="1.0" encoding="UTF-8" ?>
<!DOCTYPE svg PUBLIC "-//W3C//DTD SVG 1.1//EN" "http://www.w3.org/Graphics/SVG/1.1/DTD/svg11.dtd">
<svg width="117px" height="140px" viewBox="0 0 117 140" version="1.1" xmlns="http://www.w3.org/2000/svg">
<g id="#000000ff">
<path fill="#000000" opacity="1.00" d=" M 0.00 0.00 L 117.00 0.00 L 117.00 140.00 L 0.00 140.00 L 0.00 0.00 M 53.86 46.87 C 53.49 46.54 52.74 45.89 52.36 45.57 C 51.56 45.59 49.94 45.63 49.14 45.66 C 42.90 51.46 42.21 60.53 39.05 68.03 C 37.35 71.67 37.42 76.59 41.11 78.99 C 45.42 81.08 49.82 78.55 54.01 77.43 C 58.57 75.51 63.71 74.81 67.75 71.78 C 70.27 69.86 73.59 67.15 71.45 63.69 C 76.95 62.68 81.15 58.91 84.91 55.04 C 77.60 47.26 69.80 39.94 62.36 32.28 C 58.00 36.10 55.22 41.27 53.86 46.87 Z" />
<path fill="#000000" opacity="1.00" d=" M 62.38 36.47 C 68.43 42.90 74.91 48.92 80.99 55.33 C 79.45 56.67 78.02 58.21 76.17 59.14 C 74.08 59.86 71.84 60.22 69.96 61.45 C 68.74 61.59 67.52 61.72 66.30 61.84 C 66.24 62.22 66.13 62.98 66.07 63.36 C 67.28 64.53 68.47 65.74 69.59 66.99 C 67.93 68.17 66.48 69.63 64.74 70.71 C 62.78 71.44 60.63 71.61 58.82 72.75 C 54.20 74.24 49.52 75.59 45.00 77.38 C 43.56 76.70 41.93 76.10 41.07 74.64 C 40.37 70.94 42.72 67.69 43.44 64.19 C 45.67 58.75 46.31 52.28 50.84 48.11 C 52.25 49.51 53.68 50.91 55.12 52.29 C 57.20 46.90 57.99 40.60 62.38 36.47 Z" />
</g>
<g id="#f7fbf7ff">
<path fill="#f7fbf7" opacity="1.00" d=" M 53.86 46.87 C 55.22 41.27 58.00 36.10 62.36 32.28 C 69.80 39.94 77.60 47.26 84.91 55.04 C 81.15 58.91 76.95 62.68 71.45 63.69 C 73.59 67.15 70.27 69.86 67.75 71.78 C 63.71 74.81 58.57 75.51 54.01 77.43 C 49.82 78.55 45.42 81.08 41.11 78.99 C 37.42 76.59 37.35 71.67 39.05 68.03 C 42.21 60.53 42.90 51.46 49.14 45.66 C 49.94 45.63 51.56 45.59 52.36 45.57 C 52.74 45.89 53.49 46.54 53.86 46.87 M 62.38 36.47 C 57.99 40.60 57.20 46.90 55.12 52.29 C 53.68 50.91 52.25 49.51 50.84 48.11 C 46.31 52.28 45.67 58.75 43.44 64.19 C 42.72 67.69 40.37 70.94 41.07 74.64 C 41.93 76.10 43.56 76.70 45.00 77.38 C 49.52 75.59 54.20 74.24 58.82 72.75 C 60.63 71.61 62.78 71.44 64.74 70.71 C 66.48 69.63 67.93 68.17 69.59 66.99 C 68.47 65.74 67.28 64.53 66.07 63.36 C 66.13 62.98 66.24 62.22 66.30 61.84 C 67.52 61.72 68.74 61.59 69.96 61.45 C 71.84 60.22 74.08 59.86 76.17 59.14 C 78.02 58.21 79.45 56.67 80.99 55.33 C 74.91 48.92 68.43 42.90 62.38 36.47 Z" />
</g>
</svg>
