<?xml version="1.0" encoding="UTF-8" ?>
<!DOCTYPE svg PUBLIC "-//W3C//DTD SVG 1.1//EN" "http://www.w3.org/Graphics/SVG/1.1/DTD/svg11.dtd">
<svg width="117px" height="140px" viewBox="0 0 117 140" version="1.1" xmlns="http://www.w3.org/2000/svg">
<g id="#000000ff">
<path fill="#000000" opacity="1.00" d=" M 0.00 0.00 L 117.00 0.00 L 117.00 140.00 L 0.00 140.00 L 0.00 0.00 M 33.18 10.22 C 17.92 11.78 5.18 25.63 5.02 40.99 C 4.99 60.34 4.99 79.69 5.01 99.04 C 5.17 115.00 19.00 129.27 34.95 129.93 C 50.64 130.08 66.34 129.99 82.04 129.97 C 98.01 129.84 112.30 115.98 112.93 100.02 C 113.09 80.66 112.95 61.30 113.00 41.94 C 113.05 33.33 109.36 24.80 103.11 18.89 C 97.02 12.97 88.48 9.75 80.00 9.98 C 64.40 10.17 48.77 9.70 33.18 10.22 Z" />
<path fill="#000000" opacity="1.00" d=" M 30.47 12.70 C 34.91 11.70 39.48 12.06 43.99 12.00 C 56.99 12.05 70.00 11.89 83.00 12.08 C 97.56 12.72 110.33 25.47 110.92 40.04 C 111.11 56.37 110.95 72.70 111.00 89.03 C 110.89 95.68 111.65 102.64 108.96 108.93 C 104.64 120.19 93.07 128.21 80.96 127.98 C 65.63 127.97 50.29 128.10 34.96 127.92 C 20.09 127.26 7.16 113.94 7.03 99.03 C 6.98 79.70 6.99 60.36 7.03 41.03 C 7.19 27.69 17.45 15.43 30.47 12.70 M 46.03 41.01 C 43.17 43.92 38.05 45.48 37.53 50.02 C 38.08 54.51 43.13 56.06 45.97 58.94 C 47.80 60.96 50.52 60.58 52.88 59.94 C 53.62 57.35 54.18 54.71 54.05 52.01 C 54.54 52.00 55.51 51.99 56.00 51.99 C 56.00 51.24 56.00 49.76 56.00 49.01 C 55.51 49.01 54.52 49.00 54.02 48.99 C 54.20 45.96 53.77 42.95 52.88 40.06 C 50.56 39.45 47.83 38.98 46.03 41.01 M 63.99 41.21 C 64.00 43.81 64.00 46.40 64.00 49.00 C 63.25 49.00 61.75 49.00 61.00 49.00 C 61.00 49.75 61.00 51.25 61.00 52.00 C 61.75 52.00 63.25 52.00 64.00 52.00 C 64.00 54.26 64.00 56.53 64.00 58.79 C 66.13 59.62 68.49 61.58 70.75 59.87 C 73.43 57.85 76.13 55.82 78.70 53.64 C 81.00 51.92 80.98 48.03 78.67 46.33 C 76.09 44.14 73.37 42.12 70.69 40.07 C 68.43 38.44 66.10 40.38 63.99 41.21 M 57.00 49.00 C 57.00 49.75 57.00 51.25 57.00 52.00 C 57.75 52.00 59.25 52.00 60.00 52.00 C 60.00 51.25 60.00 49.75 60.00 49.00 C 59.25 49.00 57.75 49.00 57.00 49.00 Z" />
<path fill="#000000" opacity="1.00" d=" M 41.01 50.00 C 44.00 47.68 46.96 45.34 49.99 43.07 C 50.01 47.70 50.01 52.33 49.99 56.97 C 46.99 54.65 44.00 52.33 41.01 50.00 Z" />
<path fill="#000000" opacity="1.00" d=" M 68.00 43.02 C 71.00 45.35 74.00 47.67 76.99 50.00 C 74.00 52.33 71.01 54.64 68.02 56.97 C 67.99 52.32 68.00 47.67 68.00 43.02 Z" />
</g>
<g id="#717271ff">
<path fill="#717271" opacity="1.00" d=" M 33.18 10.22 C 48.77 9.70 64.40 10.17 80.00 9.98 C 88.48 9.75 97.02 12.97 103.11 18.89 C 109.36 24.80 113.05 33.33 113.00 41.94 C 112.95 61.30 113.09 80.66 112.93 100.02 C 112.30 115.98 98.01 129.84 82.04 129.97 C 66.34 129.99 50.64 130.08 34.95 129.93 C 19.00 129.27 5.17 115.00 5.01 99.04 C 4.99 79.69 4.99 60.34 5.02 40.99 C 5.18 25.63 17.92 11.78 33.18 10.22 M 30.47 12.70 C 17.45 15.43 7.19 27.69 7.03 41.03 C 6.99 60.36 6.98 79.70 7.03 99.03 C 7.16 113.94 20.09 127.26 34.96 127.92 C 50.29 128.10 65.63 127.97 80.96 127.98 C 93.07 128.21 104.64 120.19 108.96 108.93 C 111.65 102.64 110.89 95.68 111.00 89.03 C 110.95 72.70 111.11 56.37 110.92 40.04 C 110.33 25.47 97.56 12.72 83.00 12.08 C 70.00 11.89 56.99 12.05 43.99 12.00 C 39.48 12.06 34.91 11.70 30.47 12.70 Z" />
</g>
<g id="#f8fcf8ff">
<path fill="#f8fcf8" opacity="1.00" d=" M 46.03 41.01 C 47.83 38.98 50.56 39.45 52.88 40.06 C 53.77 42.95 54.20 45.96 54.02 48.99 C 54.52 49.00 55.51 49.01 56.00 49.01 C 56.00 49.76 56.00 51.24 56.00 51.99 C 55.51 51.99 54.54 52.00 54.05 52.01 C 54.18 54.71 53.62 57.35 52.88 59.94 C 50.52 60.58 47.80 60.96 45.97 58.94 C 43.13 56.06 38.08 54.51 37.53 50.02 C 38.05 45.48 43.17 43.92 46.03 41.01 M 41.01 50.00 C 44.00 52.33 46.99 54.65 49.99 56.97 C 50.01 52.33 50.01 47.70 49.99 43.07 C 46.96 45.34 44.00 47.68 41.01 50.00 Z" />
<path fill="#f8fcf8" opacity="1.00" d=" M 63.99 41.21 C 66.10 40.38 68.43 38.44 70.69 40.07 C 73.37 42.12 76.09 44.14 78.67 46.33 C 80.98 48.03 81.00 51.92 78.70 53.64 C 76.13 55.82 73.43 57.85 70.75 59.87 C 68.49 61.58 66.13 59.62 64.00 58.79 C 64.00 56.53 64.00 54.26 64.00 52.00 C 63.25 52.00 61.75 52.00 61.00 52.00 C 61.00 51.25 61.00 49.75 61.00 49.00 C 61.75 49.00 63.25 49.00 64.00 49.00 C 64.00 46.40 64.00 43.81 63.99 41.21 M 68.00 43.02 C 68.00 47.67 67.99 52.32 68.02 56.97 C 71.01 54.64 74.00 52.33 76.99 50.00 C 74.00 47.67 71.00 45.35 68.00 43.02 Z" />
<path fill="#f8fcf8" opacity="1.00" d=" M 57.00 49.00 C 57.75 49.00 59.25 49.00 60.00 49.00 C 60.00 49.75 60.00 51.25 60.00 52.00 C 59.25 52.00 57.75 52.00 57.00 52.00 C 57.00 51.25 57.00 49.75 57.00 49.00 Z" />
</g>
</svg>
