<?xml version="1.0" encoding="UTF-8" ?>
<!DOCTYPE svg PUBLIC "-//W3C//DTD SVG 1.1//EN" "http://www.w3.org/Graphics/SVG/1.1/DTD/svg11.dtd">
<svg width="117px" height="140px" viewBox="0 0 117 140" version="1.1" xmlns="http://www.w3.org/2000/svg">
<g id="#000000ff">
<path fill="#000000" opacity="1.00" d=" M 0.00 0.00 L 117.00 0.00 L 117.00 140.00 L 0.00 140.00 L 0.00 0.00 M 33.19 10.23 C 17.95 11.77 5.22 25.59 5.02 40.92 C 4.98 60.31 4.98 79.70 5.02 99.09 C 5.20 115.02 19.00 129.25 34.92 129.92 C 49.94 130.12 64.97 129.93 80.00 130.01 C 88.98 130.28 98.00 126.62 104.15 120.06 C 110.03 113.96 113.28 105.47 113.01 97.01 C 112.93 77.97 113.12 58.92 112.92 39.89 C 112.24 23.96 97.98 10.19 82.04 10.03 C 65.76 10.10 49.46 9.72 33.19 10.23 Z" />
<path fill="#000000" opacity="1.00" d=" M 33.21 12.35 C 48.45 11.71 63.73 12.26 78.98 12.06 C 85.58 11.85 92.30 13.42 97.76 17.24 C 105.87 22.61 110.99 32.21 110.90 41.94 C 110.97 59.97 110.90 78.01 110.94 96.04 C 111.08 101.66 110.09 107.41 107.24 112.32 C 102.25 121.85 91.69 128.00 80.96 127.91 C 65.96 127.93 50.95 127.99 35.94 127.87 C 20.72 127.73 7.22 114.23 7.12 99.00 C 7.03 79.65 7.03 60.30 7.13 40.95 C 7.30 26.73 19.07 13.83 33.21 12.35 M 48.24 31.44 C 49.57 34.87 50.89 38.30 52.25 41.71 C 56.45 39.46 61.56 39.47 65.76 41.71 C 67.11 38.29 68.42 34.87 69.76 31.46 C 63.04 28.20 54.97 28.20 48.24 31.44 M 35.98 53.20 L 36.85 53.65 L 37.80 53.06 C 38.45 46.61 41.67 40.61 46.83 36.65 C 46.85 36.21 46.90 35.31 46.92 34.86 C 40.12 38.12 36.39 45.91 35.98 53.20 M 71.09 34.86 C 71.11 35.31 71.15 36.20 71.17 36.65 C 76.30 40.61 79.57 46.58 80.17 53.03 L 81.09 53.61 L 82.00 53.28 C 81.67 45.95 77.89 38.15 71.09 34.86 M 42.11 52.81 C 42.58 52.64 43.53 52.28 44.00 52.11 C 44.59 49.86 45.13 47.50 46.60 45.63 C 47.69 43.99 49.65 42.61 49.01 40.35 C 44.95 43.16 42.35 47.88 42.11 52.81 M 68.99 40.35 C 69.01 40.89 69.05 41.98 69.07 42.52 C 71.37 45.32 73.42 48.38 73.98 52.04 C 74.45 52.25 75.38 52.67 75.85 52.88 C 75.74 47.92 73.04 43.18 68.99 40.35 M 55.30 47.25 C 50.42 49.62 50.33 57.38 55.14 59.88 C 59.63 62.81 66.46 59.38 66.46 53.93 C 66.96 48.31 60.02 44.32 55.30 47.25 M 73.09 55.12 C 72.84 59.83 70.30 64.16 66.25 66.59 C 68.61 69.43 70.97 72.29 73.36 75.11 C 79.56 71.11 83.56 64.22 84.14 56.88 C 80.45 56.28 76.77 55.73 73.09 55.12 M 33.87 56.88 C 34.44 64.22 38.45 71.10 44.64 75.11 C 47.03 72.30 49.36 69.43 51.77 66.62 C 47.75 64.16 45.13 59.88 44.92 55.14 C 41.24 55.71 37.55 56.28 33.87 56.88 M 52.83 69.91 C 56.84 71.33 61.20 71.28 65.21 69.93 C 64.87 69.56 64.18 68.82 63.83 68.45 C 60.62 69.06 57.38 69.08 54.16 68.44 C 53.83 68.81 53.17 69.54 52.83 69.91 M 48.79 74.68 C 55.19 77.56 63.31 78.19 69.34 74.16 C 68.25 73.55 67.05 73.27 65.88 73.83 C 61.23 75.48 56.10 75.30 51.48 73.65 C 50.34 72.93 49.58 74.00 48.79 74.68 Z" />
</g>
<g id="#727372ff">
<path fill="#727372" opacity="1.00" d=" M 33.19 10.23 C 49.46 9.72 65.76 10.10 82.04 10.03 C 97.98 10.19 112.24 23.96 112.92 39.89 C 113.12 58.92 112.93 77.97 113.01 97.01 C 113.28 105.47 110.03 113.96 104.15 120.06 C 98.00 126.62 88.98 130.28 80.00 130.01 C 64.97 129.93 49.94 130.12 34.92 129.92 C 19.00 129.25 5.20 115.02 5.02 99.09 C 4.98 79.70 4.98 60.31 5.02 40.92 C 5.22 25.59 17.95 11.77 33.19 10.23 M 33.21 12.35 C 19.07 13.83 7.30 26.73 7.13 40.95 C 7.03 60.30 7.03 79.65 7.12 99.00 C 7.22 114.23 20.72 127.73 35.94 127.87 C 50.95 127.99 65.96 127.93 80.96 127.91 C 91.69 128.00 102.25 121.85 107.24 112.32 C 110.09 107.41 111.08 101.66 110.94 96.04 C 110.90 78.01 110.97 59.97 110.90 41.94 C 110.99 32.21 105.87 22.61 97.76 17.24 C 92.30 13.42 85.58 11.85 78.98 12.06 C 63.73 12.26 48.45 11.71 33.21 12.35 Z" />
</g>
<g id="#f8fcf8ff">
<path fill="#f8fcf8" opacity="1.00" d=" M 48.24 31.44 C 54.97 28.20 63.04 28.20 69.76 31.46 C 68.42 34.87 67.11 38.29 65.76 41.71 C 61.56 39.47 56.45 39.46 52.25 41.71 C 50.89 38.30 49.57 34.87 48.24 31.44 Z" />
<path fill="#f8fcf8" opacity="1.00" d=" M 35.98 53.20 C 36.39 45.91 40.12 38.12 46.92 34.86 C 46.90 35.31 46.85 36.21 46.83 36.65 C 41.67 40.61 38.45 46.61 37.80 53.06 L 36.85 53.65 L 35.98 53.20 Z" />
<path fill="#f8fcf8" opacity="1.00" d=" M 71.09 34.86 C 77.89 38.15 81.67 45.95 82.00 53.28 L 81.09 53.61 L 80.17 53.03 C 79.57 46.58 76.30 40.61 71.17 36.65 C 71.15 36.20 71.11 35.31 71.09 34.86 Z" />
<path fill="#f8fcf8" opacity="1.00" d=" M 42.11 52.81 C 42.35 47.88 44.95 43.16 49.01 40.35 C 49.65 42.61 47.69 43.99 46.60 45.63 C 45.13 47.50 44.59 49.86 44.00 52.11 C 43.53 52.28 42.58 52.64 42.11 52.81 Z" />
<path fill="#f8fcf8" opacity="1.00" d=" M 68.99 40.35 C 73.04 43.18 75.74 47.92 75.85 52.88 C 75.38 52.67 74.45 52.25 73.98 52.04 C 73.42 48.38 71.37 45.32 69.07 42.52 C 69.05 41.98 69.01 40.89 68.99 40.35 Z" />
<path fill="#f8fcf8" opacity="1.00" d=" M 55.30 47.25 C 60.02 44.32 66.96 48.31 66.46 53.93 C 66.46 59.38 59.63 62.81 55.14 59.88 C 50.33 57.38 50.42 49.62 55.30 47.25 Z" />
<path fill="#f8fcf8" opacity="1.00" d=" M 73.09 55.12 C 76.77 55.73 80.45 56.28 84.14 56.88 C 83.56 64.22 79.56 71.11 73.36 75.11 C 70.97 72.29 68.61 69.43 66.25 66.59 C 70.30 64.16 72.84 59.83 73.09 55.12 Z" />
<path fill="#f8fcf8" opacity="1.00" d=" M 33.87 56.88 C 37.55 56.28 41.24 55.71 44.92 55.14 C 45.13 59.88 47.75 64.16 51.77 66.62 C 49.36 69.43 47.03 72.30 44.64 75.11 C 38.45 71.10 34.44 64.22 33.87 56.88 Z" />
<path fill="#f8fcf8" opacity="1.00" d=" M 52.83 69.91 C 53.17 69.54 53.83 68.81 54.16 68.44 C 57.38 69.08 60.62 69.06 63.83 68.45 C 64.18 68.82 64.87 69.56 65.21 69.93 C 61.20 71.28 56.84 71.33 52.83 69.91 Z" />
<path fill="#f8fcf8" opacity="1.00" d=" M 48.79 74.68 C 49.58 74.00 50.34 72.93 51.48 73.65 C 56.10 75.30 61.23 75.48 65.88 73.83 C 67.05 73.27 68.25 73.55 69.34 74.16 C 63.31 78.19 55.19 77.56 48.79 74.68 Z" />
</g>
</svg>
