<?xml version="1.0" encoding="UTF-8" ?>
<!DOCTYPE svg PUBLIC "-//W3C//DTD SVG 1.1//EN" "http://www.w3.org/Graphics/SVG/1.1/DTD/svg11.dtd">
<svg width="117pt" height="140pt" viewBox="0 0 117 140" version="1.1" xmlns="http://www.w3.org/2000/svg">
<g id="#000000ff">
<path fill="#000000" opacity="1.00" d=" M 0.00 0.00 L 117.00 0.00 L 117.00 140.00 L 0.00 140.00 L 0.00 0.00 M 31.20 10.24 C 16.41 12.45 4.21 25.92 4.04 40.97 C 3.97 60.33 3.97 79.70 4.04 99.06 C 4.20 115.05 18.10 129.32 34.05 129.99 C 50.02 130.03 66.00 129.98 81.98 130.01 C 95.85 129.90 108.67 119.42 111.99 106.02 C 113.44 100.81 112.91 95.35 113.00 90.01 C 112.95 73.30 113.10 56.60 112.93 39.90 C 112.24 24.00 98.01 10.12 82.07 9.99 C 65.12 10.18 48.13 9.67 31.20 10.24 Z" />
<path fill="#000000" opacity="1.00" d=" M 33.26 12.41 C 47.79 11.62 62.39 12.31 76.95 12.05 C 84.36 11.81 92.04 13.46 98.00 18.06 C 105.47 23.52 110.06 32.69 109.98 41.94 C 110.03 60.30 109.99 78.65 110.00 97.00 C 110.08 102.32 108.99 107.70 106.32 112.34 C 101.47 121.57 91.40 127.56 81.03 127.85 C 66.70 128.05 52.36 127.87 38.02 127.93 C 31.25 127.94 24.43 126.00 19.00 121.86 C 11.57 116.39 7.02 107.22 7.09 97.99 C 7.08 78.97 7.01 59.95 7.13 40.93 C 7.31 26.72 19.09 13.81 33.26 12.41 M 59.14 27.16 C 54.99 30.96 51.17 35.09 47.16 39.02 C 48.76 41.29 51.24 41.86 53.86 41.45 C 53.84 43.35 53.83 45.24 53.82 47.14 C 51.98 47.14 50.14 47.14 48.30 47.14 C 48.13 45.37 47.81 43.62 47.29 41.92 C 46.83 41.60 45.91 40.97 45.44 40.65 C 41.53 44.78 37.35 48.64 33.49 52.80 C 37.77 56.63 41.54 60.99 45.83 64.80 C 46.62 63.89 47.41 62.98 48.20 62.07 C 48.17 60.75 48.13 59.44 48.10 58.13 C 50.02 58.14 51.95 58.14 53.87 58.13 C 53.86 60.05 53.86 61.98 53.87 63.90 C 52.56 63.87 51.25 63.83 49.95 63.80 C 49.03 64.59 48.11 65.38 47.20 66.17 C 51.00 70.47 55.39 74.21 59.18 78.53 C 63.42 74.57 67.48 70.42 71.52 66.26 C 69.84 64.30 67.36 63.77 64.89 63.72 C 64.89 61.87 64.89 60.03 64.89 58.19 C 66.75 58.17 68.61 58.15 70.47 58.12 C 70.49 59.50 70.52 60.88 70.55 62.26 C 71.37 63.11 72.19 63.96 73.02 64.80 C 77.09 60.82 81.08 56.77 85.12 52.75 C 81.30 48.50 77.24 44.45 72.99 40.63 C 70.79 42.06 70.33 44.70 70.34 47.13 C 68.68 47.04 66.92 47.43 65.33 46.89 C 64.43 45.29 65.04 43.32 64.97 41.57 C 67.38 41.63 70.00 41.21 71.37 38.99 C 67.68 34.89 63.73 31.00 59.70 27.23 L 59.14 27.16 Z" />
<path fill="#000000" opacity="1.00" d=" M 59.39 31.19 C 61.74 33.64 64.12 36.07 66.61 38.37 C 64.99 38.37 63.38 38.38 61.76 38.40 C 61.86 42.33 61.84 46.26 61.80 50.20 C 65.72 50.16 69.65 50.12 73.57 50.27 C 73.60 48.65 73.64 47.04 73.64 45.43 C 75.96 47.91 78.41 50.26 80.81 52.67 C 78.32 55.01 75.91 57.44 73.54 59.90 C 73.58 58.33 73.62 56.76 73.66 55.18 C 69.71 55.11 65.77 55.13 61.82 55.14 C 61.83 59.07 61.83 63.00 61.83 66.93 C 63.38 66.92 64.93 66.92 66.48 66.92 C 64.07 69.30 61.69 71.70 59.29 74.08 C 57.02 71.72 54.74 69.36 52.24 67.24 C 53.78 67.09 55.32 66.93 56.86 66.78 C 56.88 62.91 56.89 59.04 56.84 55.17 C 52.94 55.11 49.04 55.11 45.14 55.16 C 45.12 56.73 45.11 58.31 45.09 59.88 C 42.74 57.46 40.35 55.07 37.93 52.72 C 40.32 50.32 42.72 47.94 45.11 45.55 C 45.10 47.09 45.10 48.63 45.10 50.18 C 49.03 50.17 52.95 50.17 56.87 50.18 C 56.88 46.23 56.90 42.28 56.82 38.34 C 55.25 38.38 53.68 38.43 52.11 38.47 C 54.59 36.10 57.01 33.67 59.39 31.19 Z" />
</g>
<g id="#707470ff">
<path fill="#707470" opacity="1.00" d=" M 31.20 10.24 C 48.13 9.67 65.12 10.18 82.07 9.99 C 98.01 10.12 112.24 24.00 112.93 39.90 C 113.10 56.60 112.95 73.30 113.00 90.01 C 112.91 95.35 113.44 100.81 111.99 106.02 C 108.67 119.42 95.85 129.90 81.98 130.01 C 66.00 129.98 50.02 130.03 34.05 129.99 C 18.10 129.32 4.20 115.05 4.04 99.06 C 3.97 79.70 3.97 60.33 4.04 40.97 C 4.21 25.92 16.41 12.45 31.20 10.24 M 33.26 12.41 C 19.09 13.81 7.31 26.72 7.13 40.93 C 7.01 59.95 7.08 78.97 7.09 97.99 C 7.02 107.22 11.57 116.39 19.00 121.86 C 24.43 126.00 31.25 127.94 38.02 127.93 C 52.36 127.87 66.70 128.05 81.03 127.85 C 91.40 127.56 101.47 121.57 106.32 112.34 C 108.99 107.70 110.08 102.32 110.00 97.00 C 109.99 78.65 110.03 60.30 109.98 41.94 C 110.06 32.69 105.47 23.52 98.00 18.06 C 92.04 13.46 84.36 11.81 76.95 12.05 C 62.39 12.31 47.79 11.62 33.26 12.41 Z" />
</g>
<g id="#e86010ff">
<path fill="#e86010" opacity="1.00" d=" M 59.14 27.16 L 59.70 27.23 C 63.73 31.00 67.68 34.89 71.37 38.99 C 70.00 41.21 67.38 41.63 64.97 41.57 C 65.04 43.32 64.43 45.29 65.33 46.89 C 66.92 47.43 68.68 47.04 70.34 47.13 C 70.33 44.70 70.79 42.06 72.99 40.63 C 77.24 44.45 81.30 48.50 85.12 52.75 C 81.08 56.77 77.09 60.82 73.02 64.80 C 72.19 63.96 71.37 63.11 70.55 62.26 C 70.52 60.88 70.49 59.50 70.47 58.12 C 68.61 58.15 66.75 58.17 64.89 58.19 C 64.89 60.03 64.89 61.87 64.89 63.72 C 67.36 63.77 69.84 64.30 71.52 66.26 C 67.48 70.42 63.42 74.57 59.18 78.53 C 55.39 74.21 51.00 70.47 47.20 66.17 C 48.11 65.38 49.03 64.59 49.95 63.80 C 51.25 63.83 52.56 63.87 53.87 63.90 C 53.86 61.98 53.86 60.05 53.87 58.13 C 51.95 58.14 50.02 58.14 48.10 58.13 C 48.13 59.44 48.17 60.75 48.20 62.07 C 47.41 62.98 46.62 63.89 45.83 64.80 C 41.54 60.99 37.77 56.63 33.49 52.80 C 37.35 48.64 41.53 44.78 45.44 40.65 C 45.91 40.97 46.83 41.60 47.29 41.92 C 47.81 43.62 48.13 45.37 48.30 47.14 C 50.14 47.14 51.98 47.14 53.82 47.14 C 53.83 45.24 53.84 43.35 53.86 41.45 C 51.24 41.86 48.76 41.29 47.16 39.02 C 51.17 35.09 54.99 30.96 59.14 27.16 M 59.39 31.19 C 57.01 33.67 54.59 36.10 52.11 38.47 C 53.68 38.43 55.25 38.38 56.82 38.34 C 56.90 42.28 56.88 46.23 56.87 50.18 C 52.95 50.17 49.03 50.17 45.10 50.18 C 45.10 48.63 45.10 47.09 45.11 45.55 C 42.72 47.94 40.32 50.32 37.93 52.72 C 40.35 55.07 42.74 57.46 45.09 59.88 C 45.11 58.31 45.12 56.73 45.14 55.16 C 49.04 55.11 52.94 55.11 56.84 55.17 C 56.89 59.04 56.88 62.91 56.86 66.78 C 55.32 66.93 53.78 67.09 52.24 67.24 C 54.74 69.36 57.02 71.72 59.29 74.08 C 61.69 71.70 64.07 69.30 66.48 66.92 C 64.93 66.92 63.38 66.92 61.83 66.93 C 61.83 63.00 61.83 59.07 61.82 55.14 C 65.77 55.13 69.71 55.11 73.66 55.18 C 73.62 56.76 73.58 58.33 73.54 59.90 C 75.91 57.44 78.32 55.01 80.81 52.67 C 78.41 50.26 75.96 47.91 73.64 45.43 C 73.64 47.04 73.60 48.65 73.57 50.27 C 69.65 50.12 65.72 50.16 61.80 50.20 C 61.84 46.26 61.86 42.33 61.76 38.40 C 63.38 38.38 64.99 38.37 66.61 38.37 C 64.12 36.07 61.74 33.64 59.39 31.19 Z" />
</g>
</svg>
