<?xml version="1.0" encoding="UTF-8" ?>
<!DOCTYPE svg PUBLIC "-//W3C//DTD SVG 1.1//EN" "http://www.w3.org/Graphics/SVG/1.1/DTD/svg11.dtd">
<svg width="117px" height="140px" viewBox="0 0 117 140" version="1.1" xmlns="http://www.w3.org/2000/svg">
<g id="#000000ff">
<path fill="#000000" opacity="1.00" d=" M 0.00 0.00 L 117.00 0.00 L 117.00 140.00 L 0.00 140.00 L 0.00 0.00 M 33.24 10.20 C 17.97 11.73 5.17 25.59 5.02 40.96 C 4.96 59.97 5.02 78.98 4.99 97.99 C 4.89 108.08 10.01 117.97 18.16 123.87 C 23.87 128.05 30.98 130.22 38.04 130.03 C 53.03 129.92 68.03 130.12 83.01 129.93 C 98.97 129.30 112.85 115.05 112.97 99.06 C 113.04 80.02 112.98 60.98 113.00 41.94 C 113.10 31.14 107.19 20.59 98.03 14.91 C 92.41 11.32 85.67 9.71 79.02 9.98 C 63.76 10.17 48.49 9.70 33.24 10.20 Z" />
<path fill="#000000" opacity="1.00" d=" M 33.15 12.26 C 49.43 11.70 65.75 12.10 82.04 12.04 C 97.26 12.19 110.82 25.68 110.96 40.92 C 111.05 59.95 110.99 78.98 110.99 98.01 C 111.47 114.38 96.37 128.91 80.06 127.99 C 65.00 127.95 49.94 128.11 34.89 127.91 C 20.06 127.21 7.17 113.90 7.03 99.03 C 6.97 79.70 6.98 60.37 7.03 41.04 C 7.16 26.76 18.98 13.82 33.15 12.26 M 51.60 36.07 C 50.02 37.34 48.43 38.62 46.86 39.90 C 47.79 40.78 48.81 41.55 49.91 42.21 C 51.93 37.95 56.54 35.95 59.50 32.46 C 63.66 34.80 66.71 38.56 69.97 41.96 C 71.13 41.65 72.10 40.99 72.87 39.99 C 71.35 38.86 69.83 37.73 68.43 36.46 C 68.51 34.04 68.53 31.62 68.51 29.20 C 67.15 29.13 65.80 29.06 64.44 29.03 C 64.42 30.06 64.37 32.10 64.34 33.13 C 62.48 32.04 61.60 28.87 59.17 29.06 C 56.76 31.51 54.23 33.84 51.60 36.07 M 53.38 39.37 C 52.42 40.21 51.44 41.03 50.48 41.87 C 50.52 44.36 50.51 46.86 50.52 49.35 C 52.92 49.38 55.32 49.39 57.72 49.39 C 57.85 47.43 58.01 45.47 58.25 43.52 C 59.36 43.57 60.48 43.61 61.60 43.66 C 61.61 45.56 61.62 47.47 61.64 49.38 C 63.90 49.38 66.16 49.38 68.42 49.36 C 68.52 46.88 68.52 44.39 68.51 41.91 C 68.10 41.44 67.27 40.51 66.85 40.04 L 65.86 39.89 L 65.99 38.82 L 64.71 39.19 L 65.23 37.75 L 64.22 38.06 C 62.62 36.87 61.11 35.56 59.89 33.98 C 57.70 35.76 55.68 37.73 53.38 39.37 M 33.83 52.98 C 37.42 56.00 40.96 59.10 44.64 62.01 C 43.83 59.34 42.96 56.70 42.15 54.03 C 49.39 53.18 56.72 54.23 64.01 53.63 C 68.29 54.26 72.60 53.14 76.86 54.01 C 76.03 56.69 75.15 59.34 74.38 62.03 C 78.01 59.07 81.59 56.03 85.16 52.99 C 81.61 49.97 78.03 46.96 74.43 44.00 C 75.13 46.70 76.03 49.33 76.88 51.98 C 69.62 52.79 62.29 51.79 54.99 52.38 C 50.70 51.74 46.38 52.83 42.12 51.98 C 42.96 49.32 43.84 46.66 44.62 43.98 C 40.98 46.93 37.42 49.97 33.83 52.98 M 50.92 57.20 C 50.91 57.73 50.90 58.79 50.89 59.32 C 54.92 59.33 58.94 59.29 62.97 59.36 C 59.08 63.74 55.01 67.96 51.17 72.38 C 50.34 73.19 50.61 74.45 50.37 75.49 C 56.35 75.48 62.33 75.48 68.31 75.50 C 68.30 74.90 68.29 73.70 68.28 73.09 C 63.96 73.11 59.62 73.22 55.31 72.81 C 59.24 68.84 62.92 64.63 66.68 60.51 C 67.57 59.65 67.82 58.42 68.17 57.29 C 62.42 57.11 56.67 57.24 50.92 57.20 Z" />
</g>
<g id="#6a6d6aff">
<path fill="#6a6d6a" opacity="1.00" d=" M 33.24 10.20 C 48.49 9.70 63.76 10.17 79.02 9.98 C 85.67 9.71 92.41 11.32 98.03 14.91 C 107.19 20.59 113.10 31.14 113.00 41.94 C 112.98 60.98 113.04 80.02 112.97 99.06 C 112.85 115.05 98.97 129.30 83.01 129.93 C 68.03 130.12 53.03 129.92 38.04 130.03 C 30.98 130.22 23.87 128.05 18.16 123.87 C 10.01 117.97 4.89 108.08 4.99 97.99 C 5.02 78.98 4.96 59.97 5.02 40.96 C 5.17 25.59 17.97 11.73 33.24 10.20 M 33.15 12.26 C 18.98 13.82 7.16 26.76 7.03 41.04 C 6.98 60.37 6.97 79.70 7.03 99.03 C 7.17 113.90 20.06 127.21 34.89 127.91 C 49.94 128.11 65.00 127.95 80.06 127.99 C 96.37 128.91 111.47 114.38 110.99 98.01 C 110.99 78.98 111.05 59.95 110.96 40.92 C 110.82 25.68 97.26 12.19 82.04 12.04 C 65.75 12.10 49.43 11.70 33.15 12.26 Z" />
</g>
<g id="#f8fcf8ff">
<path fill="#f8fcf8" opacity="1.00" d=" M 51.60 36.07 C 54.23 33.84 56.76 31.51 59.17 29.06 C 61.60 28.87 62.48 32.04 64.34 33.13 C 64.37 32.10 64.42 30.06 64.44 29.03 C 65.80 29.06 67.15 29.13 68.51 29.20 C 68.53 31.62 68.51 34.04 68.43 36.46 C 69.83 37.73 71.35 38.86 72.87 39.99 C 72.10 40.99 71.13 41.65 69.97 41.96 C 66.71 38.56 63.66 34.80 59.50 32.46 C 56.54 35.95 51.93 37.95 49.91 42.21 C 48.81 41.55 47.79 40.78 46.86 39.90 C 48.43 38.62 50.02 37.34 51.60 36.07 Z" />
<path fill="#f8fcf8" opacity="1.00" d=" M 53.38 39.37 C 55.68 37.73 57.70 35.76 59.89 33.98 C 61.11 35.56 62.62 36.87 64.22 38.06 L 65.23 37.75 L 64.71 39.19 L 65.99 38.82 L 65.86 39.89 L 66.85 40.04 C 67.27 40.51 68.10 41.44 68.51 41.91 C 68.52 44.39 68.52 46.88 68.42 49.36 C 66.16 49.38 63.90 49.38 61.64 49.38 C 61.62 47.47 61.61 45.56 61.60 43.66 C 60.48 43.61 59.36 43.57 58.25 43.52 C 58.01 45.47 57.85 47.43 57.72 49.39 C 55.32 49.39 52.92 49.38 50.52 49.35 C 50.51 46.86 50.52 44.36 50.48 41.87 C 51.44 41.03 52.42 40.21 53.38 39.37 Z" />
<path fill="#f8fcf8" opacity="1.00" d=" M 33.83 52.98 C 37.42 49.97 40.98 46.93 44.62 43.98 C 43.84 46.66 42.96 49.32 42.12 51.98 C 46.38 52.83 50.70 51.74 54.99 52.38 C 62.29 51.79 69.62 52.79 76.88 51.98 C 76.03 49.33 75.13 46.70 74.43 44.00 C 78.03 46.96 81.61 49.97 85.16 52.99 C 81.59 56.03 78.01 59.07 74.38 62.03 C 75.15 59.34 76.03 56.69 76.86 54.01 C 72.60 53.14 68.29 54.26 64.01 53.63 C 56.72 54.23 49.39 53.18 42.15 54.03 C 42.96 56.70 43.83 59.34 44.64 62.01 C 40.96 59.10 37.42 56.00 33.83 52.98 Z" />
<path fill="#f8fcf8" opacity="1.00" d=" M 50.92 57.20 C 56.67 57.24 62.42 57.11 68.17 57.29 C 67.82 58.42 67.57 59.65 66.68 60.51 C 62.92 64.63 59.24 68.84 55.31 72.81 C 59.62 73.22 63.96 73.11 68.28 73.09 C 68.29 73.70 68.30 74.90 68.31 75.50 C 62.33 75.48 56.35 75.48 50.37 75.49 C 50.61 74.45 50.34 73.19 51.17 72.38 C 55.01 67.96 59.08 63.74 62.97 59.36 C 58.94 59.29 54.92 59.33 50.89 59.32 C 50.90 58.79 50.91 57.73 50.92 57.20 Z" />
</g>
</svg>
