<?xml version="1.0" encoding="UTF-8" ?>
<!DOCTYPE svg PUBLIC "-//W3C//DTD SVG 1.1//EN" "http://www.w3.org/Graphics/SVG/1.1/DTD/svg11.dtd">
<svg width="117pt" height="140pt" viewBox="0 0 117 140" version="1.1" xmlns="http://www.w3.org/2000/svg">
<g id="#000000ff">
<path fill="#000000" opacity="1.00" d=" M 0.00 0.00 L 117.00 0.00 L 117.00 140.00 L 0.00 140.00 L 0.00 0.00 M 33.20 10.23 C 17.93 11.77 5.18 25.64 5.03 41.00 C 4.98 60.35 4.98 79.71 5.03 99.07 C 5.18 115.40 19.67 129.86 36.00 129.97 C 51.68 129.98 67.36 130.10 83.04 129.91 C 98.97 129.28 112.82 115.02 112.96 99.06 C 113.05 80.04 112.98 61.00 113.00 41.97 C 113.04 33.37 109.38 24.85 103.14 18.94 C 97.04 12.97 88.45 9.76 79.94 9.98 C 64.36 10.17 48.77 9.68 33.20 10.23 Z" />
<path fill="#000000" opacity="1.00" d=" M 33.30 12.33 C 48.53 11.72 63.80 12.25 79.04 12.06 C 85.37 11.88 91.84 13.28 97.15 16.84 C 105.62 22.14 111.02 32.00 110.91 42.00 C 110.97 60.00 110.90 78.00 110.94 96.00 C 111.61 107.12 105.77 118.44 95.97 123.88 C 90.90 126.96 84.90 128.07 79.03 127.94 C 64.32 127.84 49.59 128.09 34.88 127.82 C 20.07 127.14 7.23 113.85 7.12 99.01 C 7.03 79.65 7.03 60.28 7.13 40.92 C 7.30 26.69 19.13 13.77 33.30 12.33 M 60.33 41.72 C 55.34 42.06 51.01 45.58 49.82 50.45 C 45.50 50.69 41.08 49.97 36.84 50.78 C 36.71 51.11 36.47 51.78 36.34 52.11 C 35.42 65.09 48.38 78.06 61.59 74.61 C 61.58 70.60 61.58 66.60 61.57 62.59 C 66.98 61.83 70.71 57.18 71.38 51.93 C 75.70 51.68 80.03 51.88 84.36 51.63 C 80.01 50.75 75.54 51.37 71.14 51.41 C 70.40 46.16 66.00 42.35 60.88 41.60 C 60.69 37.30 60.88 32.99 60.64 28.69 C 59.72 32.97 60.31 37.38 60.33 41.72 Z" />
<path fill="#000000" opacity="1.00" d=" M 52.90 45.93 C 56.96 42.24 63.23 41.90 67.43 45.54 C 69.62 48.44 70.82 52.34 69.23 55.81 C 66.93 61.93 57.67 63.47 53.44 58.51 C 49.95 55.21 50.39 49.68 52.90 45.93 Z" />
</g>
<g id="#737473ff">
<path fill="#737473" opacity="1.00" d=" M 33.20 10.23 C 48.77 9.68 64.36 10.17 79.94 9.98 C 88.45 9.76 97.04 12.97 103.14 18.94 C 109.38 24.85 113.04 33.37 113.00 41.97 C 112.98 61.00 113.05 80.04 112.96 99.06 C 112.82 115.02 98.97 129.28 83.04 129.91 C 67.36 130.10 51.68 129.98 36.00 129.97 C 19.67 129.86 5.18 115.40 5.03 99.07 C 4.98 79.71 4.98 60.35 5.03 41.00 C 5.18 25.64 17.93 11.77 33.20 10.23 M 33.30 12.33 C 19.13 13.77 7.30 26.69 7.13 40.92 C 7.03 60.28 7.03 79.65 7.12 99.01 C 7.23 113.85 20.07 127.14 34.88 127.82 C 49.59 128.09 64.32 127.84 79.03 127.94 C 84.90 128.07 90.90 126.96 95.97 123.88 C 105.77 118.44 111.61 107.12 110.94 96.00 C 110.90 78.00 110.97 60.00 110.91 42.00 C 111.02 32.00 105.62 22.14 97.15 16.84 C 91.84 13.28 85.37 11.88 79.04 12.06 C 63.80 12.25 48.53 11.72 33.30 12.33 Z" />
</g>
<g id="#f8fcf8ff">
<path fill="#f8fcf8" opacity="1.00" d=" M 60.33 41.72 C 60.31 37.38 59.72 32.97 60.64 28.69 C 60.88 32.99 60.69 37.30 60.88 41.60 C 66.00 42.35 70.40 46.16 71.14 51.41 C 75.54 51.37 80.01 50.75 84.36 51.63 C 80.03 51.88 75.70 51.68 71.38 51.93 C 70.71 57.18 66.98 61.83 61.57 62.59 C 61.58 66.60 61.58 70.60 61.59 74.61 C 48.38 78.06 35.42 65.09 36.34 52.11 C 36.47 51.78 36.71 51.11 36.84 50.78 C 41.08 49.97 45.50 50.69 49.82 50.45 C 51.01 45.58 55.34 42.06 60.33 41.72 M 52.90 45.93 C 50.39 49.68 49.95 55.21 53.44 58.51 C 57.67 63.47 66.93 61.93 69.23 55.81 C 70.82 52.34 69.62 48.44 67.43 45.54 C 63.23 41.90 56.96 42.24 52.90 45.93 Z" />
</g>
</svg>
