<?xml version="1.0" encoding="UTF-8" ?>
<!DOCTYPE svg PUBLIC "-//W3C//DTD SVG 1.1//EN" "http://www.w3.org/Graphics/SVG/1.1/DTD/svg11.dtd">
<svg width="117px" height="140px" viewBox="0 0 117 140" version="1.1" xmlns="http://www.w3.org/2000/svg">
<g id="#181818ff">
<path fill="#181818" opacity="1.00" d=" M 0.00 0.00 L 117.00 0.00 L 117.00 140.00 L 0.00 140.00 L 0.00 0.00 M 54.14 13.99 C 53.81 16.66 54.10 19.36 54.02 22.04 C 53.97 24.72 54.00 27.40 54.01 30.08 C 53.96 32.76 54.02 35.45 54.02 38.13 C 53.96 40.46 54.03 42.78 54.02 45.11 C 53.98 47.78 53.53 51.18 56.05 52.94 C 58.50 54.90 62.64 53.74 63.62 50.73 C 64.29 48.23 63.93 45.60 63.97 43.05 C 63.97 40.65 64.04 38.24 63.98 35.84 C 63.99 33.18 64.03 30.53 63.98 27.87 C 64.01 25.32 64.02 22.77 63.98 20.21 C 63.80 17.15 64.85 13.19 61.99 11.04 C 59.28 8.78 54.71 10.54 54.14 13.99 M 24.98 24.97 C 24.83 27.81 27.27 30.07 29.79 30.93 C 28.76 31.90 27.65 32.91 27.15 34.27 C 24.75 38.19 23.21 42.60 22.51 47.13 C 22.00 49.41 22.06 51.75 22.02 54.07 C 22.12 58.58 23.17 63.04 24.87 67.21 C 26.51 71.31 28.99 75.07 32.04 78.26 C 38.91 85.81 49.16 90.19 59.37 89.91 C 61.74 90.16 64.23 89.88 66.49 89.12 C 70.24 88.45 73.82 87.09 77.16 85.28 C 77.46 85.52 78.08 86.01 78.39 86.26 C 84.31 90.56 93.29 89.54 98.08 84.00 C 102.11 79.65 103.11 72.81 100.47 67.50 C 99.25 65.00 97.34 62.87 95.02 61.34 C 96.21 55.91 96.36 50.19 95.03 44.77 C 94.92 43.40 94.40 42.07 93.67 40.92 C 97.80 39.78 95.38 33.11 91.37 35.22 C 89.62 31.96 87.39 28.88 84.61 26.43 C 82.74 25.40 80.65 28.21 82.35 29.64 C 84.92 32.42 87.28 35.44 88.85 38.91 C 90.26 42.14 91.01 45.54 91.74 48.97 C 92.32 52.57 91.63 56.23 91.58 59.78 L 91.47 59.74 C 88.44 58.77 85.11 58.80 82.11 59.86 C 74.65 62.20 70.15 71.07 72.76 78.47 C 73.04 79.82 73.80 81.00 74.42 82.20 C 71.83 83.04 69.27 85.24 66.47 84.60 C 68.40 81.56 64.38 77.66 61.33 79.37 C 58.58 80.51 58.34 84.36 60.48 86.24 C 51.85 86.11 43.05 83.29 36.74 77.25 L 36.54 77.25 C 33.30 74.07 30.61 70.34 28.77 66.18 L 28.66 66.21 C 27.40 63.07 26.75 59.72 26.09 56.46 C 25.98 53.25 26.06 50.04 26.52 46.86 C 27.35 43.35 28.46 39.87 30.33 36.75 C 31.57 35.16 32.33 33.22 33.66 31.68 C 34.25 30.65 35.93 30.19 35.73 28.79 C 37.72 25.98 37.14 21.61 34.01 19.88 C 30.38 17.17 24.74 20.62 24.98 24.97 Z" />
<path fill="#181818" opacity="1.00" d=" M 89.41 74.27 C 90.23 74.71 91.05 75.16 91.86 75.61 C 92.70 76.04 93.44 76.59 94.08 77.27 C 93.18 80.16 90.27 76.48 88.53 76.09 L 88.29 75.91 C 88.57 75.50 89.13 74.68 89.41 74.27 Z" />
</g>
<g id="#f8d470ff">
<path fill="#f8d470" opacity="1.00" d=" M 54.14 13.99 C 54.71 10.54 59.28 8.78 61.99 11.04 C 64.85 13.19 63.80 17.15 63.98 20.21 C 60.74 21.22 57.38 21.70 54.02 22.04 C 54.10 19.36 53.81 16.66 54.14 13.99 Z" />
</g>
<g id="#50dc90ff">
<path fill="#50dc90" opacity="1.00" d=" M 24.98 24.97 C 24.74 20.62 30.38 17.17 34.01 19.88 C 37.14 21.61 37.72 25.98 35.73 28.79 C 34.13 30.32 32.02 31.18 29.79 30.93 C 27.27 30.07 24.83 27.81 24.98 24.97 Z" />
</g>
<g id="#f8bc60ff">
<path fill="#f8bc60" opacity="1.00" d=" M 54.02 22.04 C 57.38 21.70 60.74 21.22 63.98 20.21 C 64.02 22.77 64.01 25.32 63.98 27.87 C 60.62 28.44 57.29 29.13 54.01 30.08 C 54.00 27.40 53.97 24.72 54.02 22.04 Z" />
</g>
<g id="#9060f0ff">
<path fill="#9060f0" opacity="1.00" d=" M 82.35 29.64 C 80.65 28.21 82.74 25.40 84.61 26.43 C 87.39 28.88 89.62 31.96 91.37 35.22 C 90.55 36.51 90.03 37.95 89.63 39.42 L 88.85 38.91 C 87.28 35.44 84.92 32.42 82.35 29.64 Z" />
</g>
<g id="#f8ac50ff">
<path fill="#f8ac50" opacity="1.00" d=" M 54.01 30.08 C 57.29 29.13 60.62 28.44 63.98 27.87 C 64.03 30.53 63.99 33.18 63.98 35.84 C 60.65 36.58 57.32 37.31 54.02 38.13 C 54.02 35.45 53.96 32.76 54.01 30.08 Z" />
</g>
<g id="#583898ff">
<path fill="#583898" opacity="1.00" d=" M 29.79 30.93 C 32.02 31.18 34.13 30.32 35.73 28.79 C 35.93 30.19 34.25 30.65 33.66 31.68 C 32.33 33.22 31.57 35.16 30.33 36.75 C 29.85 35.30 28.61 34.51 27.15 34.27 C 27.65 32.91 28.76 31.90 29.79 30.93 Z" />
</g>
<g id="#7858e8ff">
<path fill="#7858e8" opacity="1.00" d=" M 27.15 34.27 C 28.61 34.51 29.85 35.30 30.33 36.75 C 28.46 39.87 27.35 43.35 26.52 46.86 C 25.52 46.93 23.52 47.07 22.51 47.13 C 23.21 42.60 24.75 38.19 27.15 34.27 Z" />
</g>
<g id="#d860d0ff">
<path fill="#d860d0" opacity="1.00" d=" M 91.37 35.22 C 95.38 33.11 97.80 39.78 93.67 40.92 C 92.18 40.86 90.77 40.40 89.63 39.42 C 90.03 37.95 90.55 36.51 91.37 35.22 Z" />
</g>
<g id="#f89c48ff">
<path fill="#f89c48" opacity="1.00" d=" M 54.02 38.13 C 57.32 37.31 60.65 36.58 63.98 35.84 C 64.04 38.24 63.97 40.65 63.97 43.05 C 60.66 43.76 57.34 44.45 54.02 45.11 C 54.03 42.78 53.96 40.46 54.02 38.13 Z" />
</g>
<g id="#513c9dff">
<path fill="#513c9d" opacity="1.00" d=" M 88.85 38.91 L 89.63 39.42 C 90.77 40.40 92.18 40.86 93.67 40.92 C 94.40 42.07 94.92 43.40 95.03 44.77 C 94.32 44.96 92.89 45.34 92.17 45.53 C 91.89 46.65 91.75 47.80 91.74 48.97 C 91.01 45.54 90.26 42.14 88.85 38.91 Z" />
</g>
<g id="#f88438ff">
<path fill="#f88438" opacity="1.00" d=" M 54.02 45.11 C 57.34 44.45 60.66 43.76 63.97 43.05 C 63.93 45.60 64.29 48.23 63.62 50.73 C 62.64 53.74 58.50 54.90 56.05 52.94 C 53.53 51.18 53.98 47.78 54.02 45.11 Z" />
</g>
<g id="#6050e0ff">
<path fill="#6050e0" opacity="1.00" d=" M 92.17 45.53 C 92.89 45.34 94.32 44.96 95.03 44.77 C 96.36 50.19 96.21 55.91 95.02 61.34 C 93.91 60.73 92.76 60.22 91.58 59.78 C 91.63 56.23 92.32 52.57 91.74 48.97 C 91.75 47.80 91.89 46.65 92.17 45.53 Z" />
<path fill="#6050e0" opacity="1.00" d=" M 22.51 47.13 C 23.52 47.07 25.52 46.93 26.52 46.86 C 26.06 50.04 25.98 53.25 26.09 56.46 C 24.59 55.92 23.10 55.29 22.02 54.07 C 22.06 51.75 22.00 49.41 22.51 47.13 Z" />
</g>
<g id="#5048d8ff">
<path fill="#5048d8" opacity="1.00" d=" M 22.02 54.07 C 23.10 55.29 24.59 55.92 26.09 56.46 C 26.75 59.72 27.40 63.07 28.66 66.21 C 27.39 66.54 26.13 66.87 24.87 67.21 C 23.17 63.04 22.12 58.58 22.02 54.07 Z" />
</g>
<g id="#f8cc68ff">
<path fill="#f8cc68" opacity="1.00" d=" M 82.11 59.86 C 85.11 58.80 88.44 58.77 91.47 59.74 C 90.44 60.97 89.32 62.11 88.03 63.06 L 87.63 62.04 C 87.26 62.07 86.52 62.12 86.15 62.15 C 85.97 63.37 85.91 64.60 85.98 65.83 C 81.32 69.79 77.54 74.65 72.76 78.47 C 70.15 71.07 74.65 62.20 82.11 59.86 Z" />
</g>
<g id="#f8ac58ff">
<path fill="#f8ac58" opacity="1.00" d=" M 91.47 59.74 L 91.58 59.78 C 92.76 60.22 93.91 60.73 95.02 61.34 C 97.34 62.87 99.25 65.00 100.47 67.50 C 97.50 70.10 94.85 73.04 91.86 75.61 C 91.05 75.16 90.23 74.71 89.41 74.27 C 89.02 74.03 88.25 73.54 87.86 73.29 C 88.01 69.89 87.99 66.47 88.03 63.06 C 89.32 62.11 90.44 60.97 91.47 59.74 Z" />
</g>
<g id="#2a2c59ff">
<path fill="#2a2c59" opacity="1.00" d=" M 86.15 62.15 C 86.52 62.12 87.26 62.07 87.63 62.04 L 88.03 63.06 C 87.99 66.47 88.01 69.89 87.86 73.29 C 88.25 73.54 89.02 74.03 89.41 74.27 C 89.13 74.68 88.57 75.50 88.29 75.91 C 84.89 73.69 86.31 69.21 85.98 65.83 C 85.91 64.60 85.97 63.37 86.15 62.15 Z" />
</g>
<g id="#3840d0ff">
<path fill="#3840d0" opacity="1.00" d=" M 28.66 66.21 L 28.77 66.18 C 30.61 70.34 33.30 74.07 36.54 77.25 C 35.04 77.58 33.54 77.93 32.04 78.26 C 28.99 75.07 26.51 71.31 24.87 67.21 C 26.13 66.87 27.39 66.54 28.66 66.21 Z" />
</g>
<g id="#f8b458ff">
<path fill="#f8b458" opacity="1.00" d=" M 72.76 78.47 C 77.54 74.65 81.32 69.79 85.98 65.83 C 86.31 69.21 84.89 73.69 88.29 75.91 L 88.53 76.09 C 84.76 79.07 81.55 82.66 78.39 86.26 C 78.08 86.01 77.46 85.52 77.16 85.28 C 76.13 84.36 75.29 83.27 74.42 82.20 C 73.80 81.00 73.04 79.82 72.76 78.47 Z" />
</g>
<g id="#f89448ff">
<path fill="#f89448" opacity="1.00" d=" M 91.86 75.61 C 94.85 73.04 97.50 70.10 100.47 67.50 C 103.11 72.81 102.11 79.65 98.08 84.00 C 93.29 89.54 84.31 90.56 78.39 86.26 C 81.55 82.66 84.76 79.07 88.53 76.09 C 90.27 76.48 93.18 80.16 94.08 77.27 C 93.44 76.59 92.70 76.04 91.86 75.61 Z" />
</g>
<g id="#2038c0ff">
<path fill="#2038c0" opacity="1.00" d=" M 36.54 77.25 L 36.74 77.25 C 43.05 83.29 51.85 86.11 60.48 86.24 C 60.53 86.26 60.64 86.30 60.70 86.31 C 59.88 87.36 59.43 88.56 59.37 89.91 C 49.16 90.19 38.91 85.81 32.04 78.26 C 33.54 77.93 35.04 77.58 36.54 77.25 Z" />
<path fill="#2038c0" opacity="1.00" d=" M 74.42 82.20 C 75.29 83.27 76.13 84.36 77.16 85.28 C 73.82 87.09 70.24 88.45 66.49 89.12 C 66.69 87.84 66.68 86.55 66.20 85.33 C 66.27 85.15 66.40 84.78 66.47 84.60 C 69.27 85.24 71.83 83.04 74.42 82.20 Z" />
</g>
<g id="#38bce8ff">
<path fill="#38bce8" opacity="1.00" d=" M 61.33 79.37 C 64.38 77.66 68.40 81.56 66.47 84.60 C 66.40 84.78 66.27 85.15 66.20 85.33 C 64.86 87.02 62.55 87.26 60.70 86.31 C 60.64 86.30 60.53 86.26 60.48 86.24 C 58.34 84.36 58.58 80.51 61.33 79.37 Z" />
</g>
<g id="#102078ff">
<path fill="#102078" opacity="1.00" d=" M 60.70 86.31 C 62.55 87.26 64.86 87.02 66.20 85.33 C 66.68 86.55 66.69 87.84 66.49 89.12 C 64.23 89.88 61.74 90.16 59.37 89.91 C 59.43 88.56 59.88 87.36 60.70 86.31 Z" />
</g>
</svg>
