<?xml version="1.0" encoding="UTF-8" ?>
<!DOCTYPE svg PUBLIC "-//W3C//DTD SVG 1.1//EN" "http://www.w3.org/Graphics/SVG/1.1/DTD/svg11.dtd">
<svg width="117px" height="140px" viewBox="0 0 117 140" version="1.1" xmlns="http://www.w3.org/2000/svg">
<g id="#000000ff">
<path fill="#000000" opacity="1.00" d=" M 0.00 0.00 L 117.00 0.00 L 117.00 140.00 L 0.00 140.00 L 0.00 0.00 M 33.23 10.25 C 17.99 11.76 5.26 25.58 5.05 40.91 C 4.97 60.28 4.98 79.66 5.04 99.03 C 5.19 115.34 19.63 129.80 35.95 129.95 C 51.66 129.99 67.38 130.12 83.09 129.88 C 98.99 129.24 112.80 114.98 112.94 99.07 C 113.06 80.04 112.99 61.02 112.97 41.99 C 113.04 32.90 108.92 23.92 102.06 17.96 C 95.81 12.37 87.33 9.66 79.00 9.99 C 63.75 10.18 48.47 9.67 33.23 10.25 Z" />
<path fill="#000000" opacity="1.00" d=" M 33.28 12.32 C 45.18 11.75 57.11 12.22 69.02 12.07 C 77.15 12.29 85.78 11.02 93.35 14.72 C 103.83 19.36 111.12 30.45 110.91 41.95 C 110.93 60.99 110.99 80.03 110.88 99.06 C 110.81 114.29 97.25 127.80 82.03 127.88 C 66.66 127.98 51.29 127.96 35.92 127.88 C 20.73 127.77 7.19 114.27 7.12 99.06 C 7.03 79.70 7.03 60.34 7.12 40.98 C 7.22 26.72 19.10 13.74 33.28 12.32 M 60.35 27.14 C 56.38 31.08 52.43 35.04 48.48 39.00 C 50.09 41.11 52.48 41.59 55.00 41.28 C 55.00 43.29 55.00 45.31 55.00 47.33 C 53.03 47.32 51.06 47.33 49.10 47.33 C 49.15 44.92 48.61 42.42 46.68 40.79 C 42.73 44.76 38.74 48.69 34.82 52.69 C 38.79 56.60 42.71 60.56 46.65 64.50 C 47.44 63.64 48.23 62.77 49.02 61.90 C 49.01 60.60 49.00 59.30 48.99 58.00 C 51.00 58.00 53.00 58.00 55.00 58.00 C 55.00 60.00 55.00 62.00 55.00 64.00 C 52.48 63.67 50.12 64.22 48.45 66.24 C 52.32 70.29 56.43 74.11 60.25 78.20 C 64.28 74.37 68.10 70.33 72.10 66.47 C 71.78 66.07 71.13 65.27 70.81 64.87 C 69.16 64.30 67.46 63.89 65.71 63.90 C 65.71 61.93 65.71 59.97 65.71 58.00 C 67.71 58.00 69.71 58.00 71.71 58.00 C 71.38 60.53 71.89 62.92 74.00 64.52 C 77.97 60.57 81.92 56.61 85.88 52.65 C 81.95 48.73 78.03 44.80 74.11 40.88 C 73.71 41.22 72.92 41.89 72.52 42.23 C 72.01 43.89 71.68 45.60 71.61 47.34 C 69.64 47.33 67.67 47.32 65.71 47.32 C 65.71 45.34 65.72 43.35 65.73 41.37 C 67.44 41.26 69.13 40.95 70.78 40.49 C 71.11 40.10 71.77 39.31 72.10 38.91 C 68.20 34.97 64.29 31.04 60.35 27.14 Z" />
<path fill="#000000" opacity="1.00" d=" M 60.24 30.89 C 62.88 33.42 65.45 36.02 68.03 38.61 C 66.36 38.61 64.68 38.61 63.00 38.61 C 63.00 42.41 63.00 46.20 63.00 50.00 C 66.81 50.00 70.61 50.00 74.42 50.00 C 74.41 48.33 74.41 46.67 74.40 45.01 C 76.98 47.55 79.56 50.09 82.09 52.68 C 79.53 55.22 77.03 57.80 74.40 60.26 C 74.40 58.62 74.40 56.99 74.41 55.35 C 70.61 55.31 66.81 55.33 63.01 55.32 C 62.99 59.13 62.99 62.93 63.01 66.74 C 64.67 66.74 66.34 66.74 68.00 66.75 C 65.47 69.31 62.91 71.84 60.37 74.40 C 57.80 71.87 55.24 69.32 52.72 66.74 C 54.36 66.72 56.00 66.74 57.65 66.73 C 57.65 62.93 57.65 59.13 57.64 55.33 C 53.86 55.32 50.07 55.33 46.29 55.33 C 46.29 56.99 46.28 58.64 46.27 60.31 C 43.70 57.77 41.17 55.21 38.61 52.67 C 41.16 50.11 43.72 47.54 46.29 45.00 C 46.29 46.66 46.29 48.33 46.28 49.99 C 50.07 50.01 53.86 50.01 57.65 49.99 C 57.64 46.19 57.66 42.39 57.63 38.60 C 55.99 38.62 54.36 38.63 52.72 38.64 C 55.17 36.00 57.84 33.58 60.24 30.89 Z" />
</g>
<g id="#787978ff">
<path fill="#787978" opacity="1.00" d=" M 33.23 10.25 C 48.47 9.67 63.75 10.18 79.00 9.99 C 87.33 9.66 95.81 12.37 102.06 17.96 C 108.92 23.92 113.04 32.90 112.97 41.99 C 112.99 61.02 113.06 80.04 112.94 99.07 C 112.80 114.98 98.99 129.24 83.09 129.88 C 67.38 130.12 51.66 129.99 35.95 129.95 C 19.63 129.80 5.19 115.34 5.04 99.03 C 4.98 79.66 4.97 60.28 5.05 40.91 C 5.26 25.58 17.99 11.76 33.23 10.25 M 33.28 12.32 C 19.10 13.74 7.22 26.72 7.12 40.98 C 7.03 60.34 7.03 79.70 7.12 99.06 C 7.19 114.27 20.73 127.77 35.92 127.88 C 51.29 127.96 66.66 127.98 82.03 127.88 C 97.25 127.80 110.81 114.29 110.88 99.06 C 110.99 80.03 110.93 60.99 110.91 41.95 C 111.12 30.45 103.83 19.36 93.35 14.72 C 85.78 11.02 77.15 12.29 69.02 12.07 C 57.11 12.22 45.18 11.75 33.28 12.32 Z" />
</g>
<g id="#f8fcf8ff">
<path fill="#f8fcf8" opacity="1.00" d=" M 60.35 27.14 C 64.29 31.04 68.20 34.97 72.10 38.91 C 71.77 39.31 71.11 40.10 70.78 40.49 C 69.13 40.95 67.44 41.26 65.73 41.37 C 65.72 43.35 65.71 45.34 65.71 47.32 C 67.67 47.32 69.64 47.33 71.61 47.34 C 71.68 45.60 72.01 43.89 72.52 42.23 C 72.92 41.89 73.71 41.22 74.11 40.88 C 78.03 44.80 81.95 48.73 85.88 52.65 C 81.92 56.61 77.97 60.57 74.00 64.52 C 71.89 62.92 71.38 60.53 71.71 58.00 C 69.71 58.00 67.71 58.00 65.71 58.00 C 65.71 59.97 65.71 61.93 65.71 63.90 C 67.46 63.89 69.16 64.30 70.81 64.87 C 71.13 65.27 71.78 66.07 72.10 66.47 C 68.10 70.33 64.28 74.37 60.25 78.20 C 56.43 74.11 52.32 70.29 48.45 66.24 C 50.12 64.22 52.48 63.67 55.00 64.00 C 55.00 62.00 55.00 60.00 55.00 58.00 C 53.00 58.00 51.00 58.00 48.99 58.00 C 49.00 59.30 49.01 60.60 49.02 61.90 C 48.23 62.77 47.44 63.64 46.65 64.50 C 42.71 60.56 38.79 56.60 34.82 52.69 C 38.74 48.69 42.73 44.76 46.68 40.79 C 48.61 42.42 49.15 44.92 49.10 47.33 C 51.06 47.33 53.03 47.32 55.00 47.33 C 55.00 45.31 55.00 43.29 55.00 41.28 C 52.48 41.59 50.09 41.11 48.48 39.00 C 52.43 35.04 56.38 31.08 60.35 27.14 M 60.24 30.89 C 57.84 33.58 55.17 36.00 52.72 38.64 C 54.36 38.63 55.99 38.62 57.63 38.60 C 57.66 42.39 57.64 46.19 57.65 49.99 C 53.86 50.01 50.07 50.01 46.28 49.99 C 46.29 48.33 46.29 46.66 46.29 45.00 C 43.72 47.54 41.16 50.11 38.61 52.67 C 41.17 55.21 43.70 57.77 46.27 60.31 C 46.28 58.64 46.29 56.99 46.29 55.33 C 50.07 55.33 53.86 55.32 57.64 55.33 C 57.65 59.13 57.65 62.93 57.65 66.73 C 56.00 66.74 54.36 66.72 52.72 66.74 C 55.24 69.32 57.80 71.87 60.37 74.40 C 62.91 71.84 65.47 69.31 68.00 66.75 C 66.34 66.74 64.67 66.74 63.01 66.74 C 62.99 62.93 62.99 59.13 63.01 55.32 C 66.81 55.33 70.61 55.31 74.41 55.35 C 74.40 56.99 74.40 58.62 74.40 60.26 C 77.03 57.80 79.53 55.22 82.09 52.68 C 79.56 50.09 76.98 47.55 74.40 45.01 C 74.41 46.67 74.41 48.33 74.42 50.00 C 70.61 50.00 66.81 50.00 63.00 50.00 C 63.00 46.20 63.00 42.41 63.00 38.61 C 64.68 38.61 66.36 38.61 68.03 38.61 C 65.45 36.02 62.88 33.42 60.24 30.89 Z" />
</g>
</svg>
