<?xml version="1.0" encoding="UTF-8" ?>
<!DOCTYPE svg PUBLIC "-//W3C//DTD SVG 1.1//EN" "http://www.w3.org/Graphics/SVG/1.1/DTD/svg11.dtd">
<svg width="117px" height="140px" viewBox="0 0 117 140" version="1.1" xmlns="http://www.w3.org/2000/svg">
<g id="#000000ff">
<path fill="#000000" opacity="1.00" d=" M 0.00 0.00 L 117.00 0.00 L 117.00 140.00 L 0.00 140.00 L 0.00 0.00 M 54.26 33.26 C 51.51 38.56 48.82 43.88 46.15 49.21 C 44.71 51.99 44.65 55.16 44.66 58.22 C 44.99 58.71 45.64 59.69 45.97 60.18 C 46.61 60.33 47.90 60.64 48.54 60.79 C 45.32 65.51 44.10 71.13 44.69 76.79 C 50.09 77.39 55.53 77.16 60.95 77.19 C 66.22 77.13 71.52 77.51 76.75 76.71 C 77.20 71.11 75.80 65.63 72.84 60.88 C 74.50 60.55 76.35 59.76 76.67 57.88 C 77.40 51.62 73.49 46.33 70.99 40.94 C 68.50 36.27 66.80 30.15 60.98 28.67 C 58.33 29.42 55.52 30.62 54.26 33.26 Z" />
<path fill="#000000" opacity="1.00" d=" M 57.19 34.17 C 58.47 31.53 62.50 31.42 64.00 33.91 C 66.89 38.87 69.18 44.16 71.88 49.23 C 73.39 51.81 73.76 54.81 73.81 57.75 C 71.84 57.76 69.87 57.76 67.90 57.76 C 70.35 62.90 74.06 67.84 73.82 73.81 C 65.08 73.95 56.35 73.81 47.62 73.89 C 46.99 67.84 50.91 62.87 53.39 57.72 C 51.46 57.72 49.53 57.72 47.60 57.71 C 47.65 55.10 47.70 52.38 49.01 50.05 C 51.75 44.76 54.29 39.36 57.19 34.17 Z" />
</g>
<g id="#f7fbf7ff">
<path fill="#f7fbf7" opacity="1.00" d=" M 54.26 33.26 C 55.52 30.62 58.33 29.42 60.98 28.67 C 66.80 30.15 68.50 36.27 70.99 40.94 C 73.49 46.33 77.40 51.62 76.67 57.88 C 76.35 59.76 74.50 60.55 72.84 60.88 C 75.80 65.63 77.20 71.11 76.75 76.71 C 71.52 77.51 66.22 77.13 60.95 77.19 C 55.53 77.16 50.09 77.39 44.69 76.79 C 44.10 71.13 45.32 65.51 48.54 60.79 C 47.90 60.64 46.61 60.33 45.97 60.18 C 45.64 59.69 44.99 58.71 44.66 58.22 C 44.65 55.16 44.71 51.99 46.15 49.21 C 48.82 43.88 51.51 38.56 54.26 33.26 M 57.19 34.17 C 54.29 39.36 51.75 44.76 49.01 50.05 C 47.70 52.38 47.65 55.10 47.60 57.71 C 49.53 57.72 51.46 57.72 53.39 57.72 C 50.91 62.87 46.99 67.84 47.62 73.89 C 56.35 73.81 65.08 73.95 73.82 73.81 C 74.06 67.84 70.35 62.90 67.90 57.76 C 69.87 57.76 71.84 57.76 73.81 57.75 C 73.76 54.81 73.39 51.81 71.88 49.23 C 69.18 44.16 66.89 38.87 64.00 33.91 C 62.50 31.42 58.47 31.53 57.19 34.17 Z" />
</g>
</svg>
