<?xml version="1.0" encoding="UTF-8" ?>
<!DOCTYPE svg PUBLIC "-//W3C//DTD SVG 1.1//EN" "http://www.w3.org/Graphics/SVG/1.1/DTD/svg11.dtd">
<svg width="117px" height="140px" viewBox="0 0 117 140" version="1.1" xmlns="http://www.w3.org/2000/svg">
<g id="#000000ff">
<path fill="#000000" opacity="1.00" d=" M 0.00 0.00 L 117.00 0.00 L 117.00 140.00 L 0.00 140.00 L 0.00 0.00 M 33.12 10.25 C 17.90 11.82 5.20 25.64 5.03 40.97 C 4.98 60.32 4.97 79.69 5.03 99.05 C 5.19 115.00 19.00 129.26 34.94 129.91 C 50.30 130.12 65.68 129.95 81.04 129.99 C 92.32 130.08 103.35 123.64 108.81 113.78 C 111.77 108.73 113.11 102.85 113.01 97.02 C 112.98 78.67 113.02 60.32 112.99 41.97 C 113.09 30.94 106.93 20.15 97.43 14.56 C 91.92 11.19 85.39 9.77 78.98 9.98 C 63.70 10.19 48.39 9.66 33.12 10.25 Z" />
<path fill="#000000" opacity="1.00" d=" M 30.51 12.68 C 34.61 11.80 38.83 12.01 43.00 12.00 C 56.35 12.07 69.71 11.87 83.05 12.10 C 97.93 12.71 110.90 26.10 110.95 41.01 C 111.05 60.00 110.99 78.98 110.99 97.97 C 111.52 114.38 96.38 128.97 80.02 128.00 C 64.99 127.94 49.95 128.13 34.92 127.90 C 19.69 127.28 6.59 113.27 7.01 98.02 C 7.01 79.02 6.96 60.02 7.03 41.03 C 7.15 27.66 17.49 15.40 30.51 12.68 M 52.31 26.92 C 52.24 36.94 52.33 46.97 52.27 56.99 C 43.64 61.04 42.69 74.25 49.74 80.25 C 55.68 86.04 66.46 84.84 71.10 77.99 C 73.99 74.63 72.71 69.96 72.93 65.93 C 73.01 62.29 69.94 59.76 67.47 57.54 C 67.36 46.99 67.61 36.42 67.35 25.87 C 67.06 25.54 66.48 24.88 66.18 24.55 C 62.56 23.52 58.62 24.21 54.88 24.10 C 53.14 23.75 52.08 25.35 52.31 26.92 M 46.43 30.41 C 44.52 32.09 47.40 34.97 49.12 33.18 C 51.06 31.60 48.09 28.55 46.43 30.41 M 46.57 36.45 C 44.68 37.91 46.66 40.83 48.69 39.67 C 51.18 38.59 48.66 34.89 46.57 36.45 M 46.30 43.22 C 44.67 44.63 47.12 45.81 47.94 46.77 C 48.68 45.79 50.25 44.86 49.56 43.42 C 48.85 42.45 46.96 41.89 46.30 43.22 M 47.59 48.69 C 45.16 48.65 45.46 53.14 48.00 52.34 C 50.49 52.50 49.99 48.16 47.59 48.69 Z" />
<path fill="#000000" opacity="1.00" d=" M 55.24 27.08 C 58.33 27.07 61.42 27.07 64.51 27.08 C 64.50 37.80 64.55 48.52 64.48 59.23 C 72.37 62.87 72.79 75.07 65.53 79.56 C 59.23 84.40 49.62 79.42 48.20 72.08 C 46.72 66.62 49.67 60.54 55.16 58.85 C 55.32 48.26 55.17 37.67 55.24 27.08 M 57.90 30.70 C 57.92 41.30 57.87 51.90 57.93 62.50 C 55.11 63.51 52.25 65.60 52.19 68.89 C 51.15 73.98 55.77 79.23 61.00 78.45 C 66.34 77.89 69.22 71.50 67.14 66.82 C 66.32 64.43 63.84 63.44 61.76 62.42 C 61.80 51.85 61.73 41.28 61.80 30.71 C 60.50 30.71 59.20 30.71 57.90 30.70 Z" />
</g>
<g id="#747574ff">
<path fill="#747574" opacity="1.00" d=" M 33.12 10.25 C 48.39 9.66 63.70 10.19 78.98 9.98 C 85.39 9.77 91.92 11.19 97.43 14.56 C 106.93 20.15 113.09 30.94 112.99 41.97 C 113.02 60.32 112.98 78.67 113.01 97.02 C 113.11 102.85 111.77 108.73 108.81 113.78 C 103.35 123.64 92.32 130.08 81.04 129.99 C 65.68 129.95 50.30 130.12 34.94 129.91 C 19.00 129.26 5.19 115.00 5.03 99.05 C 4.97 79.69 4.98 60.32 5.03 40.97 C 5.20 25.64 17.90 11.82 33.12 10.25 M 30.51 12.68 C 17.49 15.40 7.15 27.66 7.03 41.03 C 6.96 60.02 7.01 79.02 7.01 98.02 C 6.59 113.27 19.69 127.28 34.92 127.90 C 49.95 128.13 64.99 127.94 80.02 128.00 C 96.38 128.97 111.52 114.38 110.99 97.97 C 110.99 78.98 111.05 60.00 110.95 41.01 C 110.90 26.10 97.93 12.71 83.05 12.10 C 69.71 11.87 56.35 12.07 43.00 12.00 C 38.83 12.01 34.61 11.80 30.51 12.68 Z" />
</g>
<g id="#f8fcf8ff">
<path fill="#f8fcf8" opacity="1.00" d=" M 52.31 26.92 C 52.08 25.35 53.14 23.75 54.88 24.10 C 58.62 24.21 62.56 23.52 66.18 24.55 C 66.48 24.88 67.06 25.54 67.35 25.87 C 67.61 36.42 67.36 46.99 67.47 57.54 C 69.94 59.76 73.01 62.29 72.93 65.93 C 72.71 69.96 73.99 74.63 71.10 77.99 C 66.46 84.84 55.68 86.04 49.74 80.25 C 42.69 74.25 43.64 61.04 52.27 56.99 C 52.33 46.97 52.24 36.94 52.31 26.92 M 55.24 27.08 C 55.17 37.67 55.32 48.26 55.16 58.85 C 49.67 60.54 46.72 66.62 48.20 72.08 C 49.62 79.42 59.23 84.40 65.53 79.56 C 72.79 75.07 72.37 62.87 64.48 59.23 C 64.55 48.52 64.50 37.80 64.51 27.08 C 61.42 27.07 58.33 27.07 55.24 27.08 Z" />
<path fill="#f8fcf8" opacity="1.00" d=" M 46.43 30.41 C 48.09 28.55 51.06 31.60 49.12 33.18 C 47.40 34.97 44.52 32.09 46.43 30.41 Z" />
<path fill="#f8fcf8" opacity="1.00" d=" M 57.90 30.70 C 59.20 30.71 60.50 30.71 61.80 30.71 C 61.73 41.28 61.80 51.85 61.76 62.42 C 63.84 63.44 66.32 64.43 67.14 66.82 C 69.22 71.50 66.34 77.89 61.00 78.45 C 55.77 79.23 51.15 73.98 52.19 68.89 C 52.25 65.60 55.11 63.51 57.93 62.50 C 57.87 51.90 57.92 41.30 57.90 30.70 Z" />
<path fill="#f8fcf8" opacity="1.00" d=" M 46.57 36.45 C 48.66 34.89 51.18 38.59 48.69 39.67 C 46.66 40.83 44.68 37.91 46.57 36.45 Z" />
<path fill="#f8fcf8" opacity="1.00" d=" M 46.30 43.22 C 46.96 41.89 48.85 42.45 49.56 43.42 C 50.25 44.86 48.68 45.79 47.94 46.77 C 47.12 45.81 44.67 44.63 46.30 43.22 Z" />
<path fill="#f8fcf8" opacity="1.00" d=" M 47.59 48.69 C 49.99 48.16 50.49 52.50 48.00 52.34 C 45.46 53.14 45.16 48.65 47.59 48.69 Z" />
</g>
</svg>
