<?xml version="1.0" encoding="UTF-8" ?>
<!DOCTYPE svg PUBLIC "-//W3C//DTD SVG 1.1//EN" "http://www.w3.org/Graphics/SVG/1.1/DTD/svg11.dtd">
<svg width="117pt" height="140pt" viewBox="0 0 117 140" version="1.1" xmlns="http://www.w3.org/2000/svg">
<g id="#000000ff">
<path fill="#000000" opacity="1.00" d=" M 0.00 0.00 L 117.00 0.00 L 117.00 140.00 L 0.00 140.00 L 0.00 0.00 M 33.22 10.20 C 17.96 11.74 5.19 25.57 5.01 40.93 C 5.02 60.64 4.94 80.35 5.05 100.06 C 5.73 115.64 19.34 129.27 34.92 129.95 C 50.62 130.07 66.33 129.98 82.03 129.99 C 95.59 129.80 108.18 119.88 111.78 106.85 C 113.41 101.72 112.96 96.30 113.00 91.00 C 113.01 74.67 112.99 58.34 113.01 42.00 C 113.09 33.59 109.57 25.23 103.57 19.33 C 97.45 13.13 88.70 9.72 80.00 9.98 C 64.41 10.16 48.80 9.72 33.22 10.20 Z" />
<path fill="#000000" opacity="1.00" d=" M 33.32 12.35 C 48.50 11.71 63.72 12.26 78.92 12.06 C 85.30 11.88 91.81 13.30 97.16 16.88 C 105.63 22.16 110.97 32.04 110.90 42.01 C 110.95 60.68 110.94 79.34 110.90 98.01 C 110.98 108.71 104.80 119.24 95.30 124.22 C 90.66 126.87 85.28 127.95 79.97 127.93 C 65.65 127.92 51.31 127.95 36.99 127.91 C 26.55 127.94 16.24 122.10 11.15 112.95 C 8.26 108.16 6.97 102.55 7.07 96.99 C 7.11 78.30 6.99 59.61 7.13 40.92 C 7.36 26.68 19.15 13.79 33.32 12.35 M 46.06 28.18 C 46.09 34.01 46.11 39.84 46.07 45.67 C 43.73 45.67 41.40 45.68 39.07 45.72 C 39.39 50.40 38.82 55.13 39.38 59.79 C 41.66 63.14 46.40 61.13 49.77 61.74 C 52.54 64.69 55.46 67.48 58.36 70.28 C 54.69 70.36 51.01 70.29 47.33 70.35 C 47.39 72.90 47.39 75.45 47.34 78.00 C 55.54 77.80 63.79 78.42 71.97 77.67 C 71.73 77.21 71.24 76.28 70.99 75.81 C 64.03 75.48 57.05 75.79 50.08 75.66 C 50.07 75.01 50.05 73.73 50.04 73.09 C 53.64 73.04 57.23 73.05 60.83 72.94 C 60.84 72.23 60.87 70.80 60.89 70.09 C 63.73 67.42 66.35 64.52 69.24 61.91 C 72.56 60.85 77.52 63.32 79.65 59.67 C 80.14 55.04 79.63 50.36 79.93 45.72 C 77.61 45.68 75.28 45.67 72.95 45.68 C 72.88 39.86 72.88 34.04 72.98 28.22 C 64.01 28.10 55.03 28.16 46.06 28.18 Z" />
<path fill="#000000" opacity="1.00" d=" M 48.77 31.04 C 55.93 31.03 63.09 31.03 70.25 31.04 C 70.21 36.79 70.36 42.53 70.14 48.27 C 72.41 48.32 74.68 48.33 76.95 48.35 C 76.92 51.87 76.92 55.39 76.97 58.92 C 65.33 59.01 53.69 58.97 42.05 58.93 C 42.08 55.39 42.05 51.85 42.08 48.32 C 48.79 48.31 55.51 48.33 62.22 48.32 C 62.22 47.66 62.22 46.34 62.22 45.68 C 57.74 45.68 53.25 45.65 48.77 45.71 C 48.74 43.94 48.72 42.18 48.67 40.42 C 53.18 40.21 57.70 40.38 62.22 40.32 C 62.22 39.66 62.22 38.34 62.22 37.68 C 57.70 37.64 53.18 37.76 48.66 37.61 C 48.74 35.42 48.76 33.23 48.77 31.04 Z" />
<path fill="#000000" opacity="1.00" d=" M 53.21 61.72 C 57.40 61.65 61.59 61.66 65.78 61.71 C 63.65 63.71 61.55 65.72 59.53 67.82 C 57.46 65.75 55.35 63.72 53.21 61.72 Z" />
</g>
<g id="#6e6f6eff">
<path fill="#6e6f6e" opacity="1.00" d=" M 33.22 10.20 C 48.80 9.72 64.41 10.16 80.00 9.98 C 88.70 9.72 97.45 13.13 103.57 19.33 C 109.57 25.23 113.09 33.59 113.01 42.00 C 112.99 58.34 113.01 74.67 113.00 91.00 C 112.96 96.30 113.41 101.72 111.78 106.85 C 108.18 119.88 95.59 129.80 82.03 129.99 C 66.33 129.98 50.62 130.07 34.92 129.95 C 19.34 129.27 5.73 115.64 5.05 100.06 C 4.94 80.35 5.02 60.64 5.01 40.93 C 5.19 25.57 17.96 11.74 33.22 10.20 M 33.32 12.35 C 19.15 13.79 7.36 26.68 7.13 40.92 C 6.99 59.61 7.11 78.30 7.07 96.99 C 6.97 102.55 8.26 108.16 11.15 112.95 C 16.24 122.10 26.55 127.94 36.99 127.91 C 51.31 127.95 65.65 127.92 79.97 127.93 C 85.28 127.95 90.66 126.87 95.30 124.22 C 104.80 119.24 110.98 108.71 110.90 98.01 C 110.94 79.34 110.95 60.68 110.90 42.01 C 110.97 32.04 105.63 22.16 97.16 16.88 C 91.81 13.30 85.30 11.88 78.92 12.06 C 63.72 12.26 48.50 11.71 33.32 12.35 Z" />
</g>
<g id="#f6faf6ff">
<path fill="#f6faf6" opacity="1.00" d=" M 46.06 28.18 C 55.03 28.16 64.01 28.10 72.98 28.22 C 72.88 34.04 72.88 39.86 72.95 45.68 C 75.28 45.67 77.61 45.68 79.93 45.72 C 79.63 50.36 80.14 55.04 79.65 59.67 C 77.52 63.32 72.56 60.85 69.24 61.91 C 66.35 64.52 63.73 67.42 60.89 70.09 C 60.87 70.80 60.84 72.23 60.83 72.94 C 57.23 73.05 53.64 73.04 50.04 73.09 C 50.05 73.73 50.07 75.01 50.08 75.66 C 57.05 75.79 64.03 75.48 70.99 75.81 C 71.24 76.28 71.73 77.21 71.97 77.67 C 63.79 78.42 55.54 77.80 47.34 78.00 C 47.39 75.45 47.39 72.90 47.33 70.35 C 51.01 70.29 54.69 70.36 58.36 70.28 C 55.46 67.48 52.54 64.69 49.77 61.74 C 46.40 61.13 41.66 63.14 39.38 59.79 C 38.82 55.13 39.39 50.40 39.07 45.72 C 41.40 45.68 43.73 45.67 46.07 45.67 C 46.11 39.84 46.09 34.01 46.06 28.18 M 48.77 31.04 C 48.76 33.23 48.74 35.42 48.66 37.61 C 53.18 37.76 57.70 37.64 62.22 37.68 C 62.22 38.34 62.22 39.66 62.22 40.32 C 57.70 40.38 53.18 40.21 48.67 40.42 C 48.72 42.18 48.74 43.94 48.77 45.71 C 53.25 45.65 57.74 45.68 62.22 45.68 C 62.22 46.34 62.22 47.66 62.22 48.32 C 55.51 48.33 48.79 48.31 42.08 48.32 C 42.05 51.85 42.08 55.39 42.05 58.93 C 53.69 58.97 65.33 59.01 76.97 58.92 C 76.92 55.39 76.92 51.87 76.95 48.35 C 74.68 48.33 72.41 48.32 70.14 48.27 C 70.36 42.53 70.21 36.79 70.25 31.04 C 63.09 31.03 55.93 31.03 48.77 31.04 M 53.21 61.72 C 55.35 63.72 57.46 65.75 59.53 67.82 C 61.55 65.72 63.65 63.71 65.78 61.71 C 61.59 61.66 57.40 61.65 53.21 61.72 Z" />
</g>
</svg>
