<?xml version="1.0" encoding="UTF-8" ?>
<!DOCTYPE svg PUBLIC "-//W3C//DTD SVG 1.1//EN" "http://www.w3.org/Graphics/SVG/1.1/DTD/svg11.dtd">
<svg width="117px" height="140px" viewBox="0 0 117 140" version="1.1" xmlns="http://www.w3.org/2000/svg">
<g id="#000000ff">
<path fill="#000000" opacity="1.00" d=" M 0.00 0.00 L 117.00 0.00 L 117.00 140.00 L 0.00 140.00 L 0.00 0.00 M 45.44 26.50 C 38.02 30.22 32.34 37.15 30.03 45.11 C 25.70 58.40 31.50 74.35 43.71 81.33 C 52.24 86.60 63.49 87.00 72.40 82.42 C 85.51 76.14 92.57 59.69 88.12 45.87 C 80.78 48.09 73.43 50.35 66.03 52.38 C 66.53 54.61 67.14 56.80 67.87 58.96 C 71.19 58.04 74.43 56.81 77.82 56.15 C 77.10 59.61 76.11 63.12 73.91 65.96 C 69.65 71.65 61.94 74.98 54.94 73.08 C 47.40 71.37 41.39 64.57 40.54 56.89 C 39.27 48.91 43.89 40.52 51.12 37.06 C 54.89 35.09 59.26 35.08 63.37 35.71 C 65.41 32.17 67.34 28.57 69.21 24.94 C 61.50 22.37 52.71 22.73 45.44 26.50 Z" />
</g>
<g id="#707070ff">
<path fill="#707070" opacity="1.00" d=" M 45.44 26.50 C 52.71 22.73 61.50 22.37 69.21 24.94 C 67.34 28.57 65.41 32.17 63.37 35.71 C 59.26 35.08 54.89 35.09 51.12 37.06 C 43.89 40.52 39.27 48.91 40.54 56.89 C 41.39 64.57 47.40 71.37 54.94 73.08 C 61.94 74.98 69.65 71.65 73.91 65.96 C 76.11 63.12 77.10 59.61 77.82 56.15 C 74.43 56.81 71.19 58.04 67.87 58.96 C 67.14 56.80 66.53 54.61 66.03 52.38 C 73.43 50.35 80.78 48.09 88.12 45.87 C 92.57 59.69 85.51 76.14 72.40 82.42 C 63.49 87.00 52.24 86.60 43.71 81.33 C 31.50 74.35 25.70 58.40 30.03 45.11 C 32.34 37.15 38.02 30.22 45.44 26.50 Z" />
</g>
</svg>
