<?xml version="1.0" encoding="UTF-8" ?>
<!DOCTYPE svg PUBLIC "-//W3C//DTD SVG 1.1//EN" "http://www.w3.org/Graphics/SVG/1.1/DTD/svg11.dtd">
<svg width="117px" height="140px" viewBox="0 0 117 140" version="1.1" xmlns="http://www.w3.org/2000/svg">
<g id="#000000ff">
<path fill="#000000" opacity="1.00" d=" M 0.00 0.00 L 117.00 0.00 L 117.00 140.00 L 0.00 140.00 L 0.00 0.00 M 32.33 10.49 C 17.48 11.90 4.96 25.08 4.36 40.00 C 4.23 59.34 4.35 78.69 4.30 98.03 C 4.21 108.23 9.44 118.36 17.92 124.06 C 23.14 127.79 29.58 129.69 35.97 129.71 C 50.31 129.69 64.64 129.69 78.98 129.71 C 85.49 129.84 92.12 128.14 97.51 124.45 C 106.33 118.82 111.79 108.47 111.69 98.04 C 111.68 78.99 111.73 59.95 111.67 40.91 C 111.47 27.75 102.07 15.39 89.43 11.72 C 82.85 9.55 75.84 10.50 69.04 10.31 C 56.81 10.43 44.56 10.05 32.33 10.49 Z" />
<path fill="#000000" opacity="1.00" d=" M 31.91 11.87 C 48.28 11.44 64.69 11.84 81.08 11.68 C 96.11 11.93 109.49 24.93 110.30 39.93 C 110.31 59.97 110.31 80.01 110.30 100.06 C 109.52 114.70 96.77 127.45 82.14 128.30 C 66.41 128.34 50.67 128.27 34.94 128.33 C 19.87 128.09 6.46 115.02 5.70 99.99 C 5.69 79.99 5.69 59.99 5.70 40.00 C 6.45 25.99 18.05 13.72 31.91 11.87 M 43.49 29.63 C 43.43 33.25 43.44 36.87 43.59 40.49 C 53.21 40.53 62.83 40.60 72.45 40.45 C 72.57 36.81 72.57 33.18 72.44 29.54 C 62.79 29.48 53.13 29.32 43.49 29.63 M 32.45 43.01 C 32.56 48.80 32.24 54.61 32.72 60.39 C 41.16 60.71 49.59 60.03 58.03 60.29 C 66.45 60.04 74.87 60.72 83.30 60.38 C 83.74 54.60 83.45 48.81 83.55 43.02 C 83.91 37.94 79.64 34.05 75.67 31.61 C 75.36 31.72 74.75 31.95 74.44 32.07 C 74.20 35.73 74.41 39.40 74.44 43.06 C 63.48 43.07 52.52 43.07 41.56 43.06 C 41.59 39.40 41.80 35.72 41.56 32.06 C 41.25 31.95 40.62 31.73 40.31 31.61 C 36.36 34.06 32.09 37.93 32.45 43.01 M 42.48 60.90 C 42.60 65.54 42.17 70.21 42.68 74.83 C 43.59 76.82 46.19 76.44 47.99 76.56 C 55.63 76.40 63.29 76.74 70.93 76.40 C 71.38 76.22 72.30 75.87 72.75 75.69 C 74.49 71.12 73.09 65.78 73.52 60.91 C 63.18 60.65 52.82 60.64 42.48 60.90 Z" />
<path fill="#000000" opacity="1.00" d=" M 46.45 32.41 C 54.15 32.60 61.86 32.60 69.56 32.41 C 69.55 34.14 69.55 35.86 69.56 37.59 C 61.85 37.39 54.14 37.40 46.44 37.59 C 46.45 35.86 46.45 34.14 46.45 32.41 Z" />
<path fill="#000000" opacity="1.00" d=" M 35.63 41.99 C 35.55 39.69 37.42 38.05 38.53 36.23 C 38.42 39.11 38.15 42.01 38.55 44.88 C 40.11 46.89 42.79 46.12 44.96 46.28 C 55.23 46.12 65.52 46.47 75.77 46.13 C 79.24 44.28 77.06 39.45 77.48 36.26 C 78.60 38.07 80.45 39.70 80.37 41.99 C 80.45 47.10 80.24 52.22 80.48 57.33 C 65.49 57.39 50.51 57.39 35.52 57.33 C 35.76 52.21 35.55 47.10 35.63 41.99 M 38.77 55.23 C 40.44 56.79 42.90 56.38 44.99 56.48 C 54.97 56.31 64.97 56.66 74.95 56.31 C 79.53 55.48 77.19 49.59 77.24 46.39 C 71.57 47.74 65.72 46.93 59.96 47.14 C 52.90 46.84 45.73 47.87 38.76 46.39 C 38.50 49.30 37.86 52.38 38.77 55.23 Z" />
<path fill="#000000" opacity="1.00" d=" M 41.43 50.28 C 52.48 50.37 63.52 50.37 74.57 50.28 C 74.53 51.02 74.46 52.50 74.42 53.24 C 63.47 53.20 52.53 53.20 41.58 53.24 C 41.54 52.50 41.47 51.02 41.43 50.28 Z" />
<path fill="#000000" opacity="1.00" d=" M 45.40 63.41 C 53.80 63.60 62.20 63.60 70.60 63.41 C 70.42 66.80 70.42 70.20 70.60 73.59 C 62.20 73.40 53.80 73.39 45.40 73.59 C 45.58 70.20 45.58 66.80 45.40 63.41 M 46.99 67.02 C 46.99 67.51 47.00 68.47 47.00 68.96 C 49.53 69.94 52.32 69.42 54.97 69.55 C 57.97 69.39 61.11 70.00 64.00 68.96 C 64.99 66.23 61.72 66.48 59.97 66.45 C 55.66 66.70 51.20 65.87 46.99 67.02 Z" />
</g>
<g id="#d25e19ff">
<path fill="#d25e19" opacity="1.00" d=" M 32.33 10.49 C 44.56 10.05 56.81 10.43 69.04 10.31 C 75.84 10.50 82.85 9.55 89.43 11.72 C 102.07 15.39 111.47 27.75 111.67 40.91 C 111.73 59.95 111.68 78.99 111.69 98.04 C 111.79 108.47 106.33 118.82 97.51 124.45 C 92.12 128.14 85.49 129.84 78.98 129.71 C 64.64 129.69 50.31 129.69 35.97 129.71 C 29.58 129.69 23.14 127.79 17.92 124.06 C 9.44 118.36 4.21 108.23 4.30 98.03 C 4.35 78.69 4.23 59.34 4.36 40.00 C 4.96 25.08 17.48 11.90 32.33 10.49 M 31.91 11.87 C 18.05 13.72 6.45 25.99 5.70 40.00 C 5.69 59.99 5.69 79.99 5.70 99.99 C 6.46 115.02 19.87 128.09 34.94 128.33 C 50.67 128.27 66.41 128.34 82.14 128.30 C 96.77 127.45 109.52 114.70 110.30 100.06 C 110.31 80.01 110.31 59.97 110.30 39.93 C 109.49 24.93 96.11 11.93 81.08 11.68 C 64.69 11.84 48.28 11.44 31.91 11.87 Z" />
<path fill="#d25e19" opacity="1.00" d=" M 43.49 29.63 C 53.13 29.32 62.79 29.48 72.44 29.54 C 72.57 33.18 72.57 36.81 72.45 40.45 C 62.83 40.60 53.21 40.53 43.59 40.49 C 43.44 36.87 43.43 33.25 43.49 29.63 M 46.45 32.41 C 46.45 34.14 46.45 35.86 46.44 37.59 C 54.14 37.40 61.85 37.39 69.56 37.59 C 69.55 35.86 69.55 34.14 69.56 32.41 C 61.86 32.60 54.15 32.60 46.45 32.41 Z" />
<path fill="#d25e19" opacity="1.00" d=" M 32.45 43.01 C 32.09 37.93 36.36 34.06 40.31 31.61 C 40.62 31.73 41.25 31.95 41.56 32.06 C 41.80 35.72 41.59 39.40 41.56 43.06 C 52.52 43.07 63.48 43.07 74.44 43.06 C 74.41 39.40 74.20 35.73 74.44 32.07 C 74.75 31.95 75.36 31.72 75.67 31.61 C 79.64 34.05 83.91 37.94 83.55 43.02 C 83.45 48.81 83.74 54.60 83.30 60.38 C 74.87 60.72 66.45 60.04 58.03 60.29 C 49.59 60.03 41.16 60.71 32.72 60.39 C 32.24 54.61 32.56 48.80 32.45 43.01 M 35.63 41.99 C 35.55 47.10 35.76 52.21 35.52 57.33 C 50.51 57.39 65.49 57.39 80.48 57.33 C 80.24 52.22 80.45 47.10 80.37 41.99 C 80.45 39.70 78.60 38.07 77.48 36.26 C 77.06 39.45 79.24 44.28 75.77 46.13 C 65.52 46.47 55.23 46.12 44.96 46.28 C 42.79 46.12 40.11 46.89 38.55 44.88 C 38.15 42.01 38.42 39.11 38.53 36.23 C 37.42 38.05 35.55 39.69 35.63 41.99 Z" />
<path fill="#d25e19" opacity="1.00" d=" M 38.77 55.23 C 37.86 52.38 38.50 49.30 38.76 46.39 C 45.73 47.87 52.90 46.84 59.96 47.14 C 65.72 46.93 71.57 47.74 77.24 46.39 C 77.19 49.59 79.53 55.48 74.95 56.31 C 64.97 56.66 54.97 56.31 44.99 56.48 C 42.90 56.38 40.44 56.79 38.77 55.23 M 41.43 50.28 C 41.47 51.02 41.54 52.50 41.58 53.24 C 52.53 53.20 63.47 53.20 74.42 53.24 C 74.46 52.50 74.53 51.02 74.57 50.28 C 63.52 50.37 52.48 50.37 41.43 50.28 Z" />
<path fill="#d25e19" opacity="1.00" d=" M 42.48 60.90 C 52.82 60.64 63.18 60.65 73.52 60.91 C 73.09 65.78 74.49 71.12 72.75 75.69 C 72.30 75.87 71.38 76.22 70.93 76.40 C 63.29 76.74 55.63 76.40 47.99 76.56 C 46.19 76.44 43.59 76.82 42.68 74.83 C 42.17 70.21 42.60 65.54 42.48 60.90 M 45.40 63.41 C 45.58 66.80 45.58 70.20 45.40 73.59 C 53.80 73.39 62.20 73.40 70.60 73.59 C 70.42 70.20 70.42 66.80 70.60 63.41 C 62.20 63.60 53.80 63.60 45.40 63.41 Z" />
<path fill="#d25e19" opacity="1.00" d=" M 46.99 67.02 C 51.20 65.87 55.66 66.70 59.97 66.45 C 61.72 66.48 64.99 66.23 64.00 68.96 C 61.11 70.00 57.97 69.39 54.97 69.55 C 52.32 69.42 49.53 69.94 47.00 68.96 C 47.00 68.47 46.99 67.51 46.99 67.02 Z" />
</g>
</svg>
