<?xml version="1.0" encoding="UTF-8" ?>
<!DOCTYPE svg PUBLIC "-//W3C//DTD SVG 1.1//EN" "http://www.w3.org/Graphics/SVG/1.1/DTD/svg11.dtd">
<svg width="117px" height="140px" viewBox="0 0 117 140" version="1.1" xmlns="http://www.w3.org/2000/svg">
<g id="#000000ff">
<path fill="#000000" opacity="1.00" d=" M 0.00 0.00 L 117.00 0.00 L 117.00 140.00 L 0.00 140.00 L 0.00 0.00 M 33.20 10.23 C 17.93 11.76 5.18 25.64 5.02 41.00 C 4.98 60.33 4.98 79.67 5.02 99.01 C 5.14 115.34 19.60 129.83 35.93 129.97 C 51.66 129.98 67.39 130.10 83.11 129.91 C 99.03 129.24 112.84 114.98 112.97 99.04 C 113.04 80.02 112.98 61.00 113.00 41.98 C 113.05 33.35 109.36 24.80 103.09 18.88 C 97.01 12.96 88.48 9.77 80.01 9.98 C 64.41 10.17 48.79 9.68 33.20 10.23 Z" />
<path fill="#000000" opacity="1.00" d=" M 33.32 12.34 C 48.53 11.72 63.78 12.25 79.01 12.06 C 85.35 11.89 91.82 13.28 97.14 16.84 C 105.63 22.14 111.02 32.02 110.91 42.03 C 110.95 60.70 110.95 79.37 110.91 98.04 C 111.00 108.49 105.09 118.78 95.96 123.88 C 91.17 126.77 85.54 127.97 79.98 127.93 C 65.64 127.92 51.29 127.96 36.95 127.91 C 26.50 127.97 16.21 122.08 11.11 112.94 C 8.22 108.14 6.96 102.52 7.07 96.95 C 7.11 78.29 6.99 59.62 7.13 40.97 C 7.29 26.71 19.13 13.76 33.32 12.34 M 56.10 33.52 C 55.82 37.79 56.08 42.07 56.00 46.34 C 57.65 46.30 59.31 46.27 60.96 46.25 C 60.72 42.13 60.78 37.99 60.87 33.87 C 60.56 33.35 59.93 32.33 59.61 31.82 C 58.29 31.98 56.63 31.98 56.10 33.52 M 39.37 42.29 C 37.04 52.63 38.76 63.32 38.09 73.81 C 40.95 74.01 43.81 74.02 46.68 74.00 C 47.05 74.50 47.79 75.51 48.17 76.02 C 52.11 75.99 56.06 76.00 60.00 76.00 C 60.00 75.25 60.00 73.75 60.00 73.00 C 56.35 73.00 52.70 73.00 49.06 73.00 C 49.04 72.50 48.99 71.50 48.97 71.00 C 46.32 71.00 43.66 71.00 41.00 71.00 C 41.00 66.33 41.00 61.67 41.00 57.00 C 52.00 57.00 63.00 57.01 74.01 56.99 C 75.58 56.85 77.01 57.51 78.46 58.01 C 79.23 56.69 80.32 55.19 79.64 53.60 C 78.82 49.88 78.33 46.08 77.44 42.38 C 76.70 39.50 73.36 39.48 70.96 39.50 C 68.46 39.32 66.03 39.99 63.82 41.13 C 63.80 42.93 64.03 44.73 64.99 46.30 C 60.85 48.39 56.02 48.38 51.89 46.29 C 53.01 44.78 53.08 42.94 53.15 41.14 C 51.18 40.31 49.16 39.40 46.98 39.51 C 44.28 39.51 40.50 39.16 39.37 42.29 M 69.56 61.38 C 63.25 63.07 61.84 72.48 66.86 76.28 C 68.96 78.56 72.33 78.01 75.11 77.88 C 81.85 76.48 83.34 66.08 77.65 62.51 C 75.32 60.85 72.25 60.67 69.56 61.38 Z" />
<path fill="#000000" opacity="1.00" d=" M 42.37 42.96 C 44.70 42.86 47.04 42.94 49.37 43.08 C 48.80 44.76 47.87 46.99 49.68 48.29 C 54.70 52.03 62.32 51.97 67.33 48.25 C 69.11 46.89 67.93 44.58 67.43 42.90 C 69.73 42.92 72.03 42.87 74.33 42.85 C 75.06 46.55 75.85 50.24 76.32 53.99 C 64.38 54.01 52.43 54.00 40.49 54.00 C 41.10 50.31 41.91 46.67 42.37 42.96 Z" />
<path fill="#000000" opacity="1.00" d=" M 68.98 63.82 C 71.30 63.23 73.70 63.23 76.03 63.83 C 74.86 65.07 73.67 66.29 72.49 67.53 C 71.32 66.29 70.14 65.06 68.98 63.82 Z" />
<path fill="#000000" opacity="1.00" d=" M 66.67 66.07 C 67.93 67.24 69.16 68.43 70.41 69.60 C 69.17 70.77 67.96 71.95 66.74 73.13 C 66.08 70.81 66.08 68.41 66.67 66.07 Z" />
<path fill="#000000" opacity="1.00" d=" M 74.59 69.62 C 75.84 68.44 77.07 67.24 78.33 66.07 C 78.91 68.40 78.94 70.79 78.25 73.10 C 77.03 71.94 75.82 70.77 74.59 69.62 Z" />
<path fill="#000000" opacity="1.00" d=" M 72.37 71.81 C 73.63 72.95 74.87 74.09 76.12 75.23 C 73.77 75.98 71.31 75.97 68.95 75.27 C 70.09 74.12 71.24 72.97 72.37 71.81 Z" />
</g>
<g id="#727372ff">
<path fill="#727372" opacity="1.00" d=" M 33.20 10.23 C 48.79 9.68 64.41 10.17 80.01 9.98 C 88.48 9.77 97.01 12.96 103.09 18.88 C 109.36 24.80 113.05 33.35 113.00 41.98 C 112.98 61.00 113.04 80.02 112.97 99.04 C 112.84 114.98 99.03 129.24 83.11 129.91 C 67.39 130.10 51.66 129.98 35.93 129.97 C 19.60 129.83 5.14 115.34 5.02 99.01 C 4.98 79.67 4.98 60.33 5.02 41.00 C 5.18 25.64 17.93 11.76 33.20 10.23 M 33.32 12.34 C 19.13 13.76 7.29 26.71 7.13 40.97 C 6.99 59.62 7.11 78.29 7.07 96.95 C 6.96 102.52 8.22 108.14 11.11 112.94 C 16.21 122.08 26.50 127.97 36.95 127.91 C 51.29 127.96 65.64 127.92 79.98 127.93 C 85.54 127.97 91.17 126.77 95.96 123.88 C 105.09 118.78 111.00 108.49 110.91 98.04 C 110.95 79.37 110.95 60.70 110.91 42.03 C 111.02 32.02 105.63 22.14 97.14 16.84 C 91.82 13.28 85.35 11.89 79.01 12.06 C 63.78 12.25 48.53 11.72 33.32 12.34 Z" />
</g>
<g id="#f8fcf8ff">
<path fill="#f8fcf8" opacity="1.00" d=" M 56.10 33.52 C 56.63 31.98 58.29 31.98 59.61 31.82 C 59.93 32.33 60.56 33.35 60.87 33.87 C 60.78 37.99 60.72 42.13 60.96 46.25 C 59.31 46.27 57.65 46.30 56.00 46.34 C 56.08 42.07 55.82 37.79 56.10 33.52 Z" />
<path fill="#f8fcf8" opacity="1.00" d=" M 39.37 42.29 C 40.50 39.16 44.28 39.51 46.98 39.51 C 49.16 39.40 51.18 40.31 53.15 41.14 C 53.08 42.94 53.01 44.78 51.89 46.29 C 56.02 48.38 60.85 48.39 64.99 46.30 C 64.03 44.73 63.80 42.93 63.82 41.13 C 66.03 39.99 68.46 39.32 70.96 39.50 C 73.36 39.48 76.70 39.50 77.44 42.38 C 78.33 46.08 78.82 49.88 79.64 53.60 C 80.32 55.19 79.23 56.69 78.46 58.01 C 77.01 57.51 75.58 56.85 74.01 56.99 C 63.00 57.01 52.00 57.00 41.00 57.00 C 41.00 61.67 41.00 66.33 41.00 71.00 C 43.66 71.00 46.32 71.00 48.97 71.00 C 48.99 71.50 49.04 72.50 49.06 73.00 C 52.70 73.00 56.35 73.00 60.00 73.00 C 60.00 73.75 60.00 75.25 60.00 76.00 C 56.06 76.00 52.11 75.99 48.17 76.02 C 47.79 75.51 47.05 74.50 46.68 74.00 C 43.81 74.02 40.95 74.01 38.09 73.81 C 38.76 63.32 37.04 52.63 39.37 42.29 M 42.37 42.96 C 41.91 46.67 41.10 50.31 40.49 54.00 C 52.43 54.00 64.38 54.01 76.32 53.99 C 75.85 50.24 75.06 46.55 74.33 42.85 C 72.03 42.87 69.73 42.92 67.43 42.90 C 67.93 44.58 69.11 46.89 67.33 48.25 C 62.32 51.97 54.70 52.03 49.68 48.29 C 47.87 46.99 48.80 44.76 49.37 43.08 C 47.04 42.94 44.70 42.86 42.37 42.96 Z" />
<path fill="#f8fcf8" opacity="1.00" d=" M 69.56 61.38 C 72.25 60.67 75.32 60.85 77.65 62.51 C 83.34 66.08 81.85 76.48 75.11 77.88 C 72.33 78.01 68.96 78.56 66.86 76.28 C 61.84 72.48 63.25 63.07 69.56 61.38 M 68.98 63.82 C 70.14 65.06 71.32 66.29 72.49 67.53 C 73.67 66.29 74.86 65.07 76.03 63.83 C 73.70 63.23 71.30 63.23 68.98 63.82 M 66.67 66.07 C 66.08 68.41 66.08 70.81 66.74 73.13 C 67.96 71.95 69.17 70.77 70.41 69.60 C 69.16 68.43 67.93 67.24 66.67 66.07 M 74.59 69.62 C 75.82 70.77 77.03 71.94 78.25 73.10 C 78.94 70.79 78.91 68.40 78.33 66.07 C 77.07 67.24 75.84 68.44 74.59 69.62 M 72.37 71.81 C 71.24 72.97 70.09 74.12 68.95 75.27 C 71.31 75.97 73.77 75.98 76.12 75.23 C 74.87 74.09 73.63 72.95 72.37 71.81 Z" />
</g>
</svg>
