<?xml version="1.0" encoding="UTF-8" ?>
<!DOCTYPE svg PUBLIC "-//W3C//DTD SVG 1.1//EN" "http://www.w3.org/Graphics/SVG/1.1/DTD/svg11.dtd">
<svg width="117pt" height="140pt" viewBox="0 0 117 140" version="1.1" xmlns="http://www.w3.org/2000/svg">
<g id="#000000ff">
<path fill="#000000" opacity="1.00" d=" M 0.00 0.00 L 117.00 0.00 L 117.00 140.00 L 0.00 140.00 L 0.00 0.00 M 33.19 10.21 C 17.95 11.76 5.20 25.58 5.02 40.92 C 4.97 59.95 5.02 78.98 4.99 98.01 C 4.90 108.32 10.25 118.42 18.71 124.26 C 24.32 128.19 31.19 130.21 38.03 130.02 C 53.05 129.91 68.07 130.13 83.09 129.92 C 98.65 129.25 112.28 115.66 112.92 100.09 C 113.11 80.71 112.95 61.33 113.00 41.95 C 113.09 31.90 108.00 22.06 99.89 16.17 C 94.19 11.98 87.09 9.80 80.02 9.98 C 64.42 10.16 48.79 9.71 33.19 10.21 Z" />
<path fill="#000000" opacity="1.00" d=" M 33.24 12.24 C 49.50 11.72 65.79 12.10 82.06 12.04 C 97.29 12.20 110.83 25.70 110.96 40.93 C 111.03 60.29 111.03 79.66 110.96 99.02 C 110.87 114.25 97.30 127.82 82.06 127.95 C 66.68 128.05 51.28 128.02 35.89 127.96 C 20.67 127.79 7.16 114.25 7.03 99.03 C 6.98 79.69 6.98 60.35 7.03 41.01 C 7.18 26.70 19.04 13.77 33.24 12.24 M 39.14 32.01 C 36.31 36.06 39.25 40.79 40.39 44.89 C 42.77 51.27 43.88 58.62 49.17 63.41 C 50.82 63.36 52.50 63.30 53.93 62.36 C 55.32 67.85 58.05 72.93 62.37 76.67 C 69.78 68.99 77.59 61.70 84.91 53.92 C 81.14 50.01 76.90 46.26 71.37 45.23 C 71.63 44.42 72.15 42.79 72.41 41.98 C 69.83 38.33 66.13 35.54 61.86 34.21 C 56.86 32.63 51.97 30.70 46.91 29.30 C 44.10 29.01 40.65 29.18 39.14 32.01 Z" />
<path fill="#000000" opacity="1.00" d=" M 41.05 34.32 C 41.93 32.87 43.54 32.28 44.98 31.58 C 49.56 33.37 54.29 34.76 58.97 36.25 C 62.72 37.85 67.14 38.52 69.30 42.47 C 67.98 43.76 66.69 45.07 65.45 46.43 C 70.90 48.16 77.05 49.09 81.02 53.61 C 74.89 60.01 68.45 66.11 62.32 72.50 C 58.02 68.31 57.19 62.07 55.12 56.69 C 53.68 58.06 52.26 59.46 50.84 60.86 C 46.30 56.68 45.66 50.19 43.44 44.75 C 42.67 41.26 40.42 38.00 41.05 34.32 Z" />
</g>
<g id="#6a6e6aff">
<path fill="#6a6e6a" opacity="1.00" d=" M 33.19 10.21 C 48.79 9.71 64.42 10.16 80.02 9.98 C 87.09 9.80 94.19 11.98 99.89 16.17 C 108.00 22.06 113.09 31.90 113.00 41.95 C 112.95 61.33 113.11 80.71 112.92 100.09 C 112.28 115.66 98.65 129.25 83.09 129.92 C 68.07 130.13 53.05 129.91 38.03 130.02 C 31.19 130.21 24.32 128.19 18.71 124.26 C 10.25 118.42 4.90 108.32 4.99 98.01 C 5.02 78.98 4.97 59.95 5.02 40.92 C 5.20 25.58 17.95 11.76 33.19 10.21 M 33.24 12.24 C 19.04 13.77 7.18 26.70 7.03 41.01 C 6.98 60.35 6.98 79.69 7.03 99.03 C 7.16 114.25 20.67 127.79 35.89 127.96 C 51.28 128.02 66.68 128.05 82.06 127.95 C 97.30 127.82 110.87 114.25 110.96 99.02 C 111.03 79.66 111.03 60.29 110.96 40.93 C 110.83 25.70 97.29 12.20 82.06 12.04 C 65.79 12.10 49.50 11.72 33.24 12.24 Z" />
</g>
<g id="#f7fbf7ff">
<path fill="#f7fbf7" opacity="1.00" d=" M 39.14 32.01 C 40.65 29.18 44.10 29.01 46.91 29.30 C 51.97 30.70 56.86 32.63 61.86 34.21 C 66.13 35.54 69.83 38.33 72.41 41.98 C 72.15 42.79 71.63 44.42 71.37 45.23 C 76.90 46.26 81.14 50.01 84.91 53.92 C 77.59 61.70 69.78 68.99 62.37 76.67 C 58.05 72.93 55.32 67.85 53.93 62.36 C 52.50 63.30 50.82 63.36 49.17 63.41 C 43.88 58.62 42.77 51.27 40.39 44.89 C 39.25 40.79 36.31 36.06 39.14 32.01 M 41.05 34.32 C 40.42 38.00 42.67 41.26 43.44 44.75 C 45.66 50.19 46.30 56.68 50.84 60.86 C 52.26 59.46 53.68 58.06 55.12 56.69 C 57.19 62.07 58.02 68.31 62.32 72.50 C 68.45 66.11 74.89 60.01 81.02 53.61 C 77.05 49.09 70.90 48.16 65.45 46.43 C 66.69 45.07 67.98 43.76 69.30 42.47 C 67.14 38.52 62.72 37.85 58.97 36.25 C 54.29 34.76 49.56 33.37 44.98 31.58 C 43.54 32.28 41.93 32.87 41.05 34.32 Z" />
</g>
</svg>
