<?xml version="1.0" encoding="UTF-8" ?>
<!DOCTYPE svg PUBLIC "-//W3C//DTD SVG 1.1//EN" "http://www.w3.org/Graphics/SVG/1.1/DTD/svg11.dtd">
<svg width="117px" height="140px" viewBox="0 0 117 140" version="1.1" xmlns="http://www.w3.org/2000/svg">
<g id="#000000ff">
<path fill="#000000" opacity="1.00" d=" M 0.00 0.00 L 117.00 0.00 L 117.00 140.00 L 0.00 140.00 L 0.00 0.00 M 33.17 10.22 C 17.92 11.78 5.19 25.62 5.01 40.97 C 5.02 60.68 4.93 80.39 5.05 100.09 C 5.77 115.67 19.38 129.27 34.98 129.94 C 50.99 130.04 67.01 130.05 83.02 129.94 C 98.61 129.28 112.26 115.66 112.94 100.06 C 113.08 80.70 112.95 61.34 113.01 41.97 C 113.06 33.34 109.35 24.78 103.08 18.87 C 97.00 12.96 88.48 9.76 80.03 9.98 C 64.41 10.16 48.78 9.70 33.17 10.22 Z" />
<path fill="#000000" opacity="1.00" d=" M 30.43 12.72 C 32.89 12.16 35.41 11.97 37.93 11.99 C 52.61 12.03 67.28 11.96 81.96 12.02 C 92.67 12.23 102.91 18.78 107.70 28.35 C 110.11 32.83 111.12 37.97 111.00 43.04 C 110.97 61.73 111.05 80.42 110.96 99.11 C 110.81 114.32 97.29 127.81 82.08 127.95 C 66.70 128.05 51.31 128.00 35.92 127.97 C 20.67 127.79 7.14 114.27 7.02 99.01 C 6.98 79.67 6.99 60.33 7.02 40.99 C 7.21 27.69 17.44 15.45 30.43 12.72 M 36.43 45.38 C 33.93 46.86 32.64 50.18 34.38 52.75 C 37.09 55.43 40.33 57.48 43.24 59.92 C 45.00 61.07 47.03 60.26 48.88 59.89 C 49.59 57.31 50.26 54.70 50.02 52.00 C 52.01 52.00 54.01 52.00 56.00 52.00 C 56.00 51.25 56.00 49.75 56.00 49.00 C 54.00 49.00 52.00 49.00 50.00 49.00 C 50.24 45.97 49.78 42.98 48.87 40.10 C 43.72 37.66 40.26 42.92 36.43 45.38 M 68.01 41.23 C 67.99 47.08 68.00 52.93 68.01 58.77 C 70.13 59.69 72.46 61.51 74.76 59.92 C 77.34 57.76 80.15 55.89 82.67 53.66 C 84.65 52.22 84.90 49.27 83.64 47.27 C 80.92 44.55 77.63 42.51 74.71 40.03 C 72.42 38.52 70.09 40.29 68.01 41.23 M 57.00 49.00 C 57.00 49.75 57.00 51.25 57.00 52.00 C 57.75 52.00 59.25 52.00 60.00 52.00 C 60.00 51.25 60.00 49.75 60.00 49.00 C 59.25 49.00 57.75 49.00 57.00 49.00 M 61.00 49.00 C 61.00 49.75 61.00 51.25 61.00 52.00 C 63.00 52.00 65.00 52.00 67.00 52.00 C 67.00 51.25 67.00 49.75 67.00 49.00 C 65.00 49.00 63.00 49.00 61.00 49.00 Z" />
<path fill="#000000" opacity="1.00" d=" M 37.01 50.00 C 40.00 47.67 42.99 45.35 45.99 43.04 C 46.00 47.68 46.01 52.32 45.99 56.96 C 42.99 54.64 40.00 52.33 37.01 50.00 Z" />
<path fill="#000000" opacity="1.00" d=" M 72.01 43.11 C 75.07 45.32 77.99 47.70 80.99 50.00 C 78.00 52.33 75.01 54.64 72.01 56.97 C 71.99 52.35 71.99 47.73 72.01 43.11 Z" />
</g>
<g id="#717271ff">
<path fill="#717271" opacity="1.00" d=" M 33.17 10.22 C 48.78 9.70 64.41 10.16 80.03 9.98 C 88.48 9.76 97.00 12.96 103.08 18.87 C 109.35 24.78 113.06 33.34 113.01 41.97 C 112.95 61.34 113.08 80.70 112.94 100.06 C 112.26 115.66 98.61 129.28 83.02 129.94 C 67.01 130.05 50.99 130.04 34.98 129.94 C 19.38 129.27 5.77 115.67 5.05 100.09 C 4.93 80.39 5.02 60.68 5.01 40.97 C 5.19 25.62 17.92 11.78 33.17 10.22 M 30.43 12.72 C 17.44 15.45 7.21 27.69 7.02 40.99 C 6.99 60.33 6.98 79.67 7.02 99.01 C 7.14 114.27 20.67 127.79 35.92 127.97 C 51.31 128.00 66.70 128.05 82.08 127.95 C 97.29 127.81 110.81 114.32 110.96 99.11 C 111.05 80.42 110.97 61.73 111.00 43.04 C 111.12 37.97 110.11 32.83 107.70 28.35 C 102.91 18.78 92.67 12.23 81.96 12.02 C 67.28 11.96 52.61 12.03 37.93 11.99 C 35.41 11.97 32.89 12.16 30.43 12.72 Z" />
</g>
<g id="#f8fcf8ff">
<path fill="#f8fcf8" opacity="1.00" d=" M 36.43 45.38 C 40.26 42.92 43.72 37.66 48.87 40.10 C 49.78 42.98 50.24 45.97 50.00 49.00 C 52.00 49.00 54.00 49.00 56.00 49.00 C 56.00 49.75 56.00 51.25 56.00 52.00 C 54.01 52.00 52.01 52.00 50.02 52.00 C 50.26 54.70 49.59 57.31 48.88 59.89 C 47.03 60.26 45.00 61.07 43.24 59.92 C 40.33 57.48 37.09 55.43 34.38 52.75 C 32.64 50.18 33.93 46.86 36.43 45.38 M 37.01 50.00 C 40.00 52.33 42.99 54.64 45.99 56.96 C 46.01 52.32 46.00 47.68 45.99 43.04 C 42.99 45.35 40.00 47.67 37.01 50.00 Z" />
<path fill="#f8fcf8" opacity="1.00" d=" M 68.01 41.23 C 70.09 40.29 72.42 38.52 74.71 40.03 C 77.63 42.51 80.92 44.55 83.64 47.27 C 84.90 49.27 84.65 52.22 82.67 53.66 C 80.15 55.89 77.34 57.76 74.76 59.92 C 72.46 61.51 70.13 59.69 68.01 58.77 C 68.00 52.93 67.99 47.08 68.01 41.23 M 72.01 43.11 C 71.99 47.73 71.99 52.35 72.01 56.97 C 75.01 54.64 78.00 52.33 80.99 50.00 C 77.99 47.70 75.07 45.32 72.01 43.11 Z" />
<path fill="#f8fcf8" opacity="1.00" d=" M 57.00 49.00 C 57.75 49.00 59.25 49.00 60.00 49.00 C 60.00 49.75 60.00 51.25 60.00 52.00 C 59.25 52.00 57.75 52.00 57.00 52.00 C 57.00 51.25 57.00 49.75 57.00 49.00 Z" />
<path fill="#f8fcf8" opacity="1.00" d=" M 61.00 49.00 C 63.00 49.00 65.00 49.00 67.00 49.00 C 67.00 49.75 67.00 51.25 67.00 52.00 C 65.00 52.00 63.00 52.00 61.00 52.00 C 61.00 51.25 61.00 49.75 61.00 49.00 Z" />
</g>
</svg>
