<?xml version="1.0" encoding="UTF-8" ?>
<!DOCTYPE svg PUBLIC "-//W3C//DTD SVG 1.1//EN" "http://www.w3.org/Graphics/SVG/1.1/DTD/svg11.dtd">
<svg width="117px" height="140px" viewBox="0 0 117 140" version="1.1" xmlns="http://www.w3.org/2000/svg">
<g id="#181818ff">
<path fill="#181818" opacity="1.00" d=" M 0.00 0.00 L 117.00 0.00 L 117.00 140.00 L 0.00 140.00 L 0.00 0.00 M 20.17 15.05 C 16.78 15.00 13.39 14.99 10.00 14.99 C 10.00 18.44 10.01 21.89 10.02 25.33 C 9.99 28.77 10.00 32.20 10.00 35.63 C 10.00 39.47 10.01 43.31 10.01 47.16 C 9.99 51.41 10.01 55.66 10.01 59.92 C 9.98 63.97 10.00 68.02 10.03 72.07 C 10.06 76.01 9.75 79.97 10.25 83.88 C 10.91 85.32 13.10 85.32 13.75 83.88 C 14.23 79.97 13.94 76.02 13.97 72.10 C 14.00 67.68 14.01 63.26 13.99 58.84 C 13.99 57.56 14.00 56.29 14.00 55.02 C 18.78 54.99 23.80 55.27 28.24 53.17 C 31.04 51.99 33.30 49.90 35.45 47.80 C 38.66 43.48 40.52 38.12 39.81 32.69 C 39.06 25.80 34.46 19.33 27.92 16.81 C 28.06 15.03 27.54 13.31 26.97 11.66 L 26.75 11.86 C 24.16 10.15 19.70 11.45 20.17 15.05 M 43.12 18.82 C 46.06 19.20 49.04 18.97 52.00 18.99 C 52.02 23.23 52.04 27.47 52.01 31.70 C 51.99 37.90 52.01 44.09 52.00 50.29 C 51.99 56.34 52.01 62.39 52.00 68.45 C 52.00 72.63 52.00 76.82 52.00 81.01 C 49.06 81.02 46.10 80.81 43.17 81.17 C 41.22 81.92 41.87 85.11 43.98 84.93 C 50.65 85.07 57.34 85.05 64.01 84.89 C 66.09 85.13 66.72 81.98 64.87 81.22 C 61.93 80.83 58.96 81.03 56.00 81.00 C 56.00 76.02 56.00 71.03 56.00 66.04 C 55.99 59.66 56.01 53.27 56.00 46.88 C 55.99 40.60 56.01 34.31 55.99 28.03 C 55.97 25.02 55.98 22.00 56.00 18.99 C 58.95 18.97 61.93 19.17 64.87 18.78 C 66.71 18.05 66.08 14.88 64.04 15.11 C 57.37 14.90 50.68 14.97 44.00 15.05 C 41.91 14.84 41.22 18.03 43.12 18.82 M 75.82 15.00 C 75.81 16.35 75.78 17.70 75.75 19.05 C 85.21 19.99 93.87 25.41 99.17 33.27 C 103.70 40.47 104.92 49.29 103.27 57.58 L 103.11 57.67 C 99.88 70.09 88.56 79.79 75.75 80.95 C 75.78 82.29 75.79 83.64 75.80 84.98 C 91.59 83.72 105.35 70.92 107.70 55.24 C 108.69 46.84 107.02 38.16 102.45 30.98 C 96.43 22.08 86.57 15.98 75.82 15.00 M 77.96 44.06 C 77.87 46.34 79.78 47.84 81.07 49.45 C 83.49 50.12 86.36 50.15 88.14 48.09 C 90.26 46.35 89.87 43.41 89.86 41.00 L 89.21 41.49 C 88.33 40.21 87.44 38.76 85.85 38.30 C 82.16 36.80 77.79 40.18 77.96 44.06 M 31.32 72.49 C 28.36 74.16 30.80 79.17 33.97 77.65 C 37.96 76.63 34.88 69.75 31.32 72.49 Z" />
<path fill="#181818" opacity="1.00" d=" M 13.99 19.06 C 16.87 18.94 19.74 18.76 22.61 18.69 C 22.91 18.78 23.50 18.97 23.80 19.06 C 31.20 21.33 36.61 28.76 36.03 36.58 C 35.44 39.54 34.33 42.40 32.65 44.91 C 30.50 47.10 28.07 49.17 25.09 50.10 C 21.52 51.24 17.71 50.97 14.01 51.05 C 14.00 49.72 14.00 48.39 14.00 47.06 C 13.99 43.25 14.00 39.43 14.00 35.62 C 14.00 32.20 14.00 28.78 13.99 25.37 C 13.99 23.26 13.99 21.16 13.99 19.06 Z" />
</g>
<g id="#c0ec18ff">
<path fill="#c0ec18" opacity="1.00" d=" M 20.17 15.05 C 19.70 11.45 24.16 10.15 26.75 11.86 C 24.67 13.80 22.55 15.70 20.38 17.56 C 20.33 16.93 20.23 15.68 20.17 15.05 Z" />
</g>
<g id="#80dc08ff">
<path fill="#80dc08" opacity="1.00" d=" M 26.75 11.86 L 26.97 11.66 C 27.54 13.31 28.06 15.03 27.92 16.81 C 26.82 18.00 25.41 18.80 23.80 19.06 C 23.50 18.97 22.91 18.78 22.61 18.69 C 22.05 18.41 20.94 17.84 20.38 17.56 C 22.55 15.70 24.67 13.80 26.75 11.86 Z" />
</g>
<g id="#9060f0ff">
<path fill="#9060f0" opacity="1.00" d=" M 10.00 14.99 C 13.39 14.99 16.78 15.00 20.17 15.05 C 20.23 15.68 20.33 16.93 20.38 17.56 C 20.94 17.84 22.05 18.41 22.61 18.69 C 19.74 18.76 16.87 18.94 13.99 19.06 C 13.99 21.16 13.99 23.26 13.99 25.37 C 12.67 25.36 11.34 25.34 10.02 25.33 C 10.01 21.89 10.00 18.44 10.00 14.99 Z" />
</g>
<g id="#f8dc78ff">
<path fill="#f8dc78" opacity="1.00" d=" M 43.12 18.82 C 41.22 18.03 41.91 14.84 44.00 15.05 C 50.68 14.97 57.37 14.90 64.04 15.11 C 66.08 14.88 66.71 18.05 64.87 18.78 C 61.93 19.17 58.95 18.97 56.00 18.99 C 55.98 22.00 55.97 25.02 55.99 28.03 C 54.66 29.26 53.34 30.48 52.01 31.70 C 52.04 27.47 52.02 23.23 52.00 18.99 C 49.04 18.97 46.06 19.20 43.12 18.82 Z" />
</g>
<g id="#f8bc60ff">
<path fill="#f8bc60" opacity="1.00" d=" M 75.82 15.00 C 86.57 15.98 96.43 22.08 102.45 30.98 C 101.35 31.74 100.26 32.51 99.17 33.27 C 93.87 25.41 85.21 19.99 75.75 19.05 C 75.78 17.70 75.81 16.35 75.82 15.00 Z" />
</g>
<g id="#8058e8ff">
<path fill="#8058e8" opacity="1.00" d=" M 23.80 19.06 C 25.41 18.80 26.82 18.00 27.92 16.81 C 34.46 19.33 39.06 25.80 39.81 32.69 C 39.32 33.85 38.79 34.98 38.26 36.12 C 37.52 36.27 36.77 36.43 36.03 36.58 C 36.61 28.76 31.20 21.33 23.80 19.06 Z" />
</g>
<g id="#7858e8ff">
<path fill="#7858e8" opacity="1.00" d=" M 10.02 25.33 C 11.34 25.34 12.67 25.36 13.99 25.37 C 14.00 28.78 14.00 32.20 14.00 35.62 C 12.67 35.62 11.33 35.63 10.00 35.63 C 10.00 32.20 9.99 28.77 10.02 25.33 Z" />
</g>
<g id="#f8c468ff">
<path fill="#f8c468" opacity="1.00" d=" M 52.01 31.70 C 53.34 30.48 54.66 29.26 55.99 28.03 C 56.01 34.31 55.99 40.60 56.00 46.88 C 54.67 48.02 53.33 49.15 52.00 50.29 C 52.01 44.09 51.99 37.90 52.01 31.70 Z" />
</g>
<g id="#f89c48ff">
<path fill="#f89c48" opacity="1.00" d=" M 102.45 30.98 C 107.02 38.16 108.69 46.84 107.70 55.24 C 106.22 56.03 104.74 56.80 103.27 57.58 C 104.92 49.29 103.70 40.47 99.17 33.27 C 100.26 32.51 101.35 31.74 102.45 30.98 Z" />
</g>
<g id="#6850e0ff">
<path fill="#6850e0" opacity="1.00" d=" M 38.26 36.12 C 38.79 34.98 39.32 33.85 39.81 32.69 C 40.52 38.12 38.66 43.48 35.45 47.80 C 34.51 46.84 33.58 45.87 32.65 44.91 C 34.33 42.40 35.44 39.54 36.03 36.58 C 36.77 36.43 37.52 36.27 38.26 36.12 Z" />
<path fill="#6850e0" opacity="1.00" d=" M 10.00 35.63 C 11.33 35.63 12.67 35.62 14.00 35.62 C 14.00 39.43 13.99 43.25 14.00 47.06 C 12.67 47.09 11.34 47.12 10.01 47.16 C 10.01 43.31 10.00 39.47 10.00 35.63 Z" />
</g>
<g id="#48c4d0ff">
<path fill="#48c4d0" opacity="1.00" d=" M 77.96 44.06 C 77.79 40.18 82.16 36.80 85.85 38.30 C 87.44 38.76 88.33 40.21 89.21 41.49 C 86.06 43.66 83.52 46.55 81.07 49.45 C 79.78 47.84 77.87 46.34 77.96 44.06 Z" />
</g>
<g id="#3094b8ff">
<path fill="#3094b8" opacity="1.00" d=" M 81.07 49.45 C 83.52 46.55 86.06 43.66 89.21 41.49 L 89.86 41.00 C 89.87 43.41 90.26 46.35 88.14 48.09 C 86.36 50.15 83.49 50.12 81.07 49.45 Z" />
</g>
<g id="#5048d8ff">
<path fill="#5048d8" opacity="1.00" d=" M 25.09 50.10 C 28.07 49.17 30.50 47.10 32.65 44.91 C 33.58 45.87 34.51 46.84 35.45 47.80 C 33.30 49.90 31.04 51.99 28.24 53.17 C 23.80 55.27 18.78 54.99 14.00 55.02 C 14.00 56.29 13.99 57.56 13.99 58.84 C 12.67 59.19 11.34 59.55 10.01 59.92 C 10.01 55.66 9.99 51.41 10.01 47.16 C 11.34 47.12 12.67 47.09 14.00 47.06 C 14.00 48.39 14.00 49.72 14.01 51.05 C 17.71 50.97 21.52 51.24 25.09 50.10 Z" />
</g>
<g id="#f8b460ff">
<path fill="#f8b460" opacity="1.00" d=" M 52.00 50.29 C 53.33 49.15 54.67 48.02 56.00 46.88 C 56.01 53.27 55.99 59.66 56.00 66.04 C 54.67 66.85 53.33 67.65 52.00 68.45 C 52.01 62.39 51.99 56.34 52.00 50.29 Z" />
</g>
<g id="#f88c38ff">
<path fill="#f88c38" opacity="1.00" d=" M 103.27 57.58 C 104.74 56.80 106.22 56.03 107.70 55.24 C 105.35 70.92 91.59 83.72 75.80 84.98 C 75.79 83.64 75.78 82.29 75.75 80.95 C 88.56 79.79 99.88 70.09 103.11 57.67 L 103.27 57.58 Z" />
</g>
<g id="#3840d0ff">
<path fill="#3840d0" opacity="1.00" d=" M 10.01 59.92 C 11.34 59.55 12.67 59.19 13.99 58.84 C 14.01 63.26 14.00 67.68 13.97 72.10 C 12.66 72.09 11.34 72.08 10.03 72.07 C 10.00 68.02 9.98 63.97 10.01 59.92 Z" />
</g>
<g id="#f8a450ff">
<path fill="#f8a450" opacity="1.00" d=" M 52.00 68.45 C 53.33 67.65 54.67 66.85 56.00 66.04 C 56.00 71.03 56.00 76.02 56.00 81.00 C 58.96 81.03 61.93 80.83 64.87 81.22 C 66.72 81.98 66.09 85.13 64.01 84.89 C 57.34 85.05 50.65 85.07 43.98 84.93 C 41.87 85.11 41.22 81.92 43.17 81.17 C 46.10 80.81 49.06 81.02 52.00 81.01 C 52.00 76.82 52.00 72.63 52.00 68.45 Z" />
</g>
<g id="#2038c8ff">
<path fill="#2038c8" opacity="1.00" d=" M 10.03 72.07 C 11.34 72.08 12.66 72.09 13.97 72.10 C 13.94 76.02 14.23 79.97 13.75 83.88 C 13.10 85.32 10.91 85.32 10.25 83.88 C 9.75 79.97 10.06 76.01 10.03 72.07 Z" />
</g>
<g id="#e068d0ff">
<path fill="#e068d0" opacity="1.00" d=" M 31.32 72.49 C 34.88 69.75 37.96 76.63 33.97 77.65 C 30.80 79.17 28.36 74.16 31.32 72.49 Z" />
</g>
</svg>
