<?xml version="1.0" encoding="UTF-8" ?>
<!DOCTYPE svg PUBLIC "-//W3C//DTD SVG 1.1//EN" "http://www.w3.org/Graphics/SVG/1.1/DTD/svg11.dtd">
<svg width="117px" height="140px" viewBox="0 0 117 140" version="1.1" xmlns="http://www.w3.org/2000/svg">
<g id="#000000ff">
<path fill="#000000" opacity="1.00" d=" M 0.00 0.00 L 117.00 0.00 L 117.00 140.00 L 0.00 140.00 L 0.00 0.00 M 33.13 10.25 C 17.91 11.80 5.20 25.63 5.03 40.96 C 4.98 60.34 4.97 79.73 5.03 99.12 C 5.22 115.04 19.00 129.25 34.91 129.91 C 50.28 130.13 65.66 129.95 81.03 130.00 C 92.34 130.09 103.39 123.62 108.85 113.71 C 111.80 108.67 113.11 102.80 113.01 96.98 C 112.98 78.68 113.02 60.37 113.00 42.06 C 113.11 31.25 107.25 20.65 98.07 14.95 C 92.43 11.32 85.64 9.75 78.97 9.97 C 63.69 10.19 48.39 9.65 33.13 10.25 Z" />
<path fill="#000000" opacity="1.00" d=" M 30.48 12.69 C 34.61 11.81 38.85 12.02 43.05 12.00 C 56.04 12.03 69.03 11.94 82.02 12.05 C 98.03 12.10 111.91 26.98 111.00 42.95 C 110.97 61.65 111.07 80.35 110.95 99.04 C 110.81 110.80 102.79 121.83 91.85 125.98 C 85.89 128.49 79.29 127.94 72.98 128.00 C 60.29 127.93 47.60 128.13 34.91 127.90 C 20.05 127.27 7.12 113.90 7.04 99.01 C 6.97 79.66 6.97 60.31 7.04 40.96 C 7.18 27.64 17.49 15.42 30.48 12.69 M 45.95 37.98 C 44.73 40.14 43.39 42.24 41.97 44.27 C 42.92 45.54 43.87 46.81 44.82 48.09 C 44.12 48.11 42.70 48.17 42.00 48.20 C 42.00 49.46 42.00 50.73 42.00 51.99 C 42.60 52.00 43.80 52.01 44.40 52.01 C 44.38 53.30 44.36 54.60 44.34 55.89 C 46.46 56.04 48.59 56.06 50.70 56.29 C 49.14 56.63 47.56 56.93 46.00 57.25 C 46.12 58.49 46.24 59.74 46.37 60.98 C 49.50 60.91 52.63 60.58 55.77 60.77 C 51.91 61.73 47.91 61.88 43.96 62.08 C 44.05 63.62 44.15 65.15 44.23 66.68 C 45.15 66.65 46.98 66.60 47.90 66.57 C 45.98 67.18 44.07 67.79 42.16 68.39 C 43.53 69.80 44.90 71.21 46.23 72.67 C 48.59 71.54 50.96 70.40 53.31 69.22 C 53.60 69.93 54.20 71.34 54.49 72.04 C 57.73 71.86 62.88 73.06 63.27 68.38 C 66.29 69.80 69.29 71.25 72.25 72.78 C 73.36 71.22 74.57 69.74 75.73 68.21 C 74.51 67.73 73.30 67.24 72.09 66.74 C 73.03 66.33 74.90 65.51 75.84 65.10 C 74.10 62.58 72.31 60.09 70.51 57.61 C 69.12 58.21 67.73 58.81 66.33 59.39 C 66.26 59.86 66.11 60.80 66.04 61.26 L 64.11 61.03 L 63.26 62.34 C 63.99 59.68 67.20 58.72 69.06 56.97 C 68.41 56.45 67.10 55.42 66.44 54.90 C 68.75 55.97 71.02 57.11 73.35 58.11 C 74.51 55.90 75.56 53.64 76.72 51.43 C 75.05 51.05 73.39 50.62 71.74 50.17 C 72.70 48.23 73.32 45.86 75.61 45.08 C 75.62 43.51 75.62 41.93 75.63 40.36 C 72.77 40.39 69.91 40.38 67.05 40.43 C 67.31 39.93 67.83 38.95 68.08 38.46 C 66.12 38.31 64.15 38.19 62.18 38.06 C 61.60 39.49 61.03 40.92 60.46 42.35 C 60.44 41.76 60.41 40.59 60.39 40.00 C 57.48 40.00 54.56 40.00 51.64 40.00 C 51.68 39.55 51.75 38.66 51.78 38.22 C 49.84 38.15 47.89 38.07 45.95 37.98 Z" />
<path fill="#000000" opacity="1.00" d=" M 48.34 44.32 C 52.03 43.81 55.80 43.83 59.49 44.32 C 55.96 45.60 51.87 45.62 48.34 44.32 Z" />
<path fill="#000000" opacity="1.00" d=" M 59.80 47.93 C 60.94 48.85 62.07 49.79 63.04 50.89 C 61.52 51.75 60.03 52.63 58.52 53.50 C 59.31 54.53 60.12 55.55 60.91 56.58 C 59.45 56.84 57.99 57.11 56.54 57.38 C 58.30 56.35 58.60 54.57 58.50 52.70 C 60.31 51.69 59.76 49.64 59.80 47.93 Z" />
<path fill="#000000" opacity="1.00" d=" M 52.44 52.20 C 55.38 50.53 52.79 55.47 52.44 52.20 Z" />
<path fill="#000000" opacity="1.00" d=" M 53.68 66.41 C 54.59 65.07 55.46 65.10 56.30 66.51 C 55.40 67.87 54.52 67.84 53.68 66.41 Z" />
</g>
<g id="#737473ff">
<path fill="#737473" opacity="1.00" d=" M 33.13 10.25 C 48.39 9.65 63.69 10.19 78.97 9.97 C 85.64 9.75 92.43 11.32 98.07 14.95 C 107.25 20.65 113.11 31.25 113.00 42.06 C 113.02 60.37 112.98 78.68 113.01 96.98 C 113.11 102.80 111.80 108.67 108.85 113.71 C 103.39 123.62 92.34 130.09 81.03 130.00 C 65.66 129.95 50.28 130.13 34.91 129.91 C 19.00 129.25 5.22 115.04 5.03 99.12 C 4.97 79.73 4.98 60.34 5.03 40.96 C 5.20 25.63 17.91 11.80 33.13 10.25 M 30.48 12.69 C 17.49 15.42 7.18 27.64 7.04 40.96 C 6.97 60.31 6.97 79.66 7.04 99.01 C 7.12 113.90 20.05 127.27 34.91 127.90 C 47.60 128.13 60.29 127.93 72.98 128.00 C 79.29 127.94 85.89 128.49 91.85 125.98 C 102.79 121.83 110.81 110.80 110.95 99.04 C 111.07 80.35 110.97 61.65 111.00 42.95 C 111.91 26.98 98.03 12.10 82.02 12.05 C 69.03 11.94 56.04 12.03 43.05 12.00 C 38.85 12.02 34.61 11.81 30.48 12.69 Z" />
<path fill="#737473" opacity="1.00" d=" M 66.01 45.27 C 67.63 44.73 68.20 45.27 67.71 46.91 C 66.10 47.44 65.53 46.89 66.01 45.27 Z" />
<path fill="#737473" opacity="1.00" d=" M 49.30 47.34 C 49.92 47.86 49.92 47.86 49.30 47.34 Z" />
<path fill="#737473" opacity="1.00" d=" M 53.24 47.34 C 53.81 47.92 53.81 47.92 53.24 47.34 Z" />
<path fill="#737473" opacity="1.00" d=" M 58.44 47.24 C 59.01 47.81 59.01 47.81 58.44 47.24 Z" />
<path fill="#737473" opacity="1.00" d=" M 49.23 52.26 C 49.83 52.86 49.83 52.86 49.23 52.26 Z" />
<path fill="#737473" opacity="1.00" d=" M 63.03 66.86 C 62.47 65.53 62.91 64.96 64.37 65.17 C 64.90 66.49 64.45 67.05 63.03 66.86 Z" />
</g>
<g id="#f8fcf8ff">
<path fill="#f8fcf8" opacity="1.00" d=" M 45.95 37.98 C 47.89 38.07 49.84 38.15 51.78 38.22 C 51.75 38.66 51.68 39.55 51.64 40.00 C 54.56 40.00 57.48 40.00 60.39 40.00 C 60.41 40.59 60.44 41.76 60.46 42.35 C 61.03 40.92 61.60 39.49 62.18 38.06 C 64.15 38.19 66.12 38.31 68.08 38.46 C 67.83 38.95 67.31 39.93 67.05 40.43 C 69.91 40.38 72.77 40.39 75.63 40.36 C 75.62 41.93 75.62 43.51 75.61 45.08 C 73.32 45.86 72.70 48.23 71.74 50.17 C 73.39 50.62 75.05 51.05 76.72 51.43 C 75.56 53.64 74.51 55.90 73.35 58.11 C 71.02 57.11 68.75 55.97 66.44 54.90 C 67.10 55.42 68.41 56.45 69.06 56.97 C 67.20 58.72 63.99 59.68 63.26 62.34 L 64.11 61.03 L 66.04 61.26 C 66.11 60.80 66.26 59.86 66.33 59.39 C 67.73 58.81 69.12 58.21 70.51 57.61 C 72.31 60.09 74.10 62.58 75.84 65.10 C 74.90 65.51 73.03 66.33 72.09 66.74 C 73.30 67.24 74.51 67.73 75.73 68.21 C 74.57 69.74 73.36 71.22 72.25 72.78 C 69.29 71.25 66.29 69.80 63.27 68.38 C 62.88 73.06 57.73 71.86 54.49 72.04 C 54.20 71.34 53.60 69.93 53.31 69.22 C 50.96 70.40 48.59 71.54 46.23 72.67 C 44.90 71.21 43.53 69.80 42.16 68.39 C 44.07 67.79 45.98 67.18 47.90 66.57 C 46.98 66.60 45.15 66.65 44.23 66.68 C 44.15 65.15 44.05 63.62 43.96 62.08 C 47.91 61.88 51.91 61.73 55.77 60.77 C 52.63 60.58 49.50 60.91 46.37 60.98 C 46.24 59.74 46.12 58.49 46.00 57.25 C 47.56 56.93 49.14 56.63 50.70 56.29 C 48.59 56.06 46.46 56.04 44.34 55.89 C 44.36 54.60 44.38 53.30 44.40 52.01 C 43.80 52.01 42.60 52.00 42.00 51.99 C 42.00 50.73 42.00 49.46 42.00 48.20 C 42.70 48.17 44.12 48.11 44.82 48.09 C 43.87 46.81 42.92 45.54 41.97 44.27 C 43.39 42.24 44.73 40.14 45.95 37.98 M 48.34 44.32 C 51.87 45.62 55.96 45.60 59.49 44.32 C 55.80 43.83 52.03 43.81 48.34 44.32 M 66.01 45.27 C 65.53 46.89 66.10 47.44 67.71 46.91 C 68.20 45.27 67.63 44.73 66.01 45.27 M 49.30 47.34 C 49.92 47.86 49.92 47.86 49.30 47.34 M 53.24 47.34 C 53.81 47.92 53.81 47.92 53.24 47.34 M 58.44 47.24 C 59.01 47.81 59.01 47.81 58.44 47.24 M 59.80 47.93 C 59.76 49.64 60.31 51.69 58.50 52.70 C 58.60 54.57 58.30 56.35 56.54 57.38 C 57.99 57.11 59.45 56.84 60.91 56.58 C 60.12 55.55 59.31 54.53 58.52 53.50 C 60.03 52.63 61.52 51.75 63.04 50.89 C 62.07 49.79 60.94 48.85 59.80 47.93 M 49.23 52.26 C 49.83 52.86 49.83 52.86 49.23 52.26 M 52.44 52.20 C 52.79 55.47 55.38 50.53 52.44 52.20 M 53.68 66.41 C 54.52 67.84 55.40 67.87 56.30 66.51 C 55.46 65.10 54.59 65.07 53.68 66.41 M 63.03 66.86 C 64.45 67.05 64.90 66.49 64.37 65.17 C 62.91 64.96 62.47 65.53 63.03 66.86 Z" />
</g>
</svg>
