<?xml version="1.0" encoding="UTF-8" ?>
<!DOCTYPE svg PUBLIC "-//W3C//DTD SVG 1.1//EN" "http://www.w3.org/Graphics/SVG/1.1/DTD/svg11.dtd">
<svg width="117pt" height="140pt" viewBox="0 0 117 140" version="1.1" xmlns="http://www.w3.org/2000/svg">
<g id="#000000ff">
<path fill="#000000" opacity="1.00" d=" M 0.00 0.00 L 117.00 0.00 L 117.00 140.00 L 0.00 140.00 L 0.00 0.00 M 33.17 10.22 C 17.93 11.79 5.21 25.60 5.02 40.93 C 5.02 60.62 4.93 80.31 5.06 100.00 C 5.71 115.61 19.33 129.25 34.94 129.93 C 50.63 130.08 66.34 129.99 82.03 129.97 C 98.00 129.83 112.26 116.00 112.93 100.06 C 113.09 80.70 112.95 61.33 113.00 41.97 C 113.06 33.36 109.37 24.83 103.12 18.91 C 97.02 12.96 88.45 9.75 79.95 9.98 C 64.36 10.17 48.74 9.69 33.17 10.22 Z" />
<path fill="#000000" opacity="1.00" d=" M 33.28 12.34 C 48.81 11.72 64.38 12.24 79.93 12.07 C 87.92 11.81 95.88 14.86 101.68 20.35 C 107.45 25.96 110.99 33.89 110.91 41.98 C 110.97 59.66 110.90 77.35 110.94 95.03 C 111.10 100.71 110.41 106.56 107.62 111.60 C 102.76 121.47 92.02 128.00 81.04 127.91 C 65.68 127.89 50.31 128.06 34.95 127.82 C 20.12 127.15 7.27 113.91 7.12 99.06 C 7.03 79.71 7.04 60.36 7.12 41.01 C 7.26 26.74 19.09 13.79 33.28 12.34 M 47.44 50.42 C 44.97 51.26 44.05 54.84 46.31 56.42 C 48.77 58.44 52.90 55.27 51.64 52.44 C 50.88 51.00 49.11 49.70 47.44 50.42 M 56.75 52.95 C 55.72 56.31 60.83 58.60 62.73 55.63 C 64.53 53.22 62.40 50.49 59.88 49.99 C 58.61 50.72 56.89 51.20 56.75 52.95 M 70.44 50.46 C 68.35 51.24 67.09 54.28 69.21 55.77 C 70.72 58.17 75.00 56.91 74.94 54.07 C 75.35 51.84 72.58 49.49 70.44 50.46 Z" />
</g>
<g id="#727272ff">
<path fill="#727272" opacity="1.00" d=" M 33.17 10.22 C 48.74 9.69 64.36 10.17 79.95 9.98 C 88.45 9.75 97.02 12.96 103.12 18.91 C 109.37 24.83 113.06 33.36 113.00 41.97 C 112.95 61.33 113.09 80.70 112.93 100.06 C 112.26 116.00 98.00 129.83 82.03 129.97 C 66.34 129.99 50.63 130.08 34.94 129.93 C 19.33 129.25 5.71 115.61 5.06 100.00 C 4.93 80.31 5.02 60.62 5.02 40.93 C 5.21 25.60 17.93 11.79 33.17 10.22 M 33.28 12.34 C 19.09 13.79 7.26 26.74 7.12 41.01 C 7.04 60.36 7.03 79.71 7.12 99.06 C 7.27 113.91 20.12 127.15 34.95 127.82 C 50.31 128.06 65.68 127.89 81.04 127.91 C 92.02 128.00 102.76 121.47 107.62 111.60 C 110.41 106.56 111.10 100.71 110.94 95.03 C 110.90 77.35 110.97 59.66 110.91 41.98 C 110.99 33.89 107.45 25.96 101.68 20.35 C 95.88 14.86 87.92 11.81 79.93 12.07 C 64.38 12.24 48.81 11.72 33.28 12.34 Z" />
</g>
<g id="#f8fcf8ff">
<path fill="#f8fcf8" opacity="1.00" d=" M 47.44 50.42 C 49.11 49.70 50.88 51.00 51.64 52.44 C 52.90 55.27 48.77 58.44 46.31 56.42 C 44.05 54.84 44.97 51.26 47.44 50.42 Z" />
<path fill="#f8fcf8" opacity="1.00" d=" M 56.75 52.95 C 56.89 51.20 58.61 50.72 59.88 49.99 C 62.40 50.49 64.53 53.22 62.73 55.63 C 60.83 58.60 55.72 56.31 56.75 52.95 Z" />
<path fill="#f8fcf8" opacity="1.00" d=" M 70.44 50.46 C 72.58 49.49 75.35 51.84 74.94 54.07 C 75.00 56.91 70.72 58.17 69.21 55.77 C 67.09 54.28 68.35 51.24 70.44 50.46 Z" />
</g>
</svg>
