<?xml version="1.0" encoding="UTF-8" ?>
<!DOCTYPE svg PUBLIC "-//W3C//DTD SVG 1.1//EN" "http://www.w3.org/Graphics/SVG/1.1/DTD/svg11.dtd">
<svg width="117px" height="140px" viewBox="0 0 117 140" version="1.1" xmlns="http://www.w3.org/2000/svg">
<g id="#384450ff">
<path fill="#384450" opacity="1.00" d=" M 0.00 0.00 L 117.00 0.00 L 117.00 140.00 L 0.00 140.00 L 0.00 0.00 M 41.16 53.20 C 37.77 54.93 39.39 60.57 43.12 60.42 C 45.06 60.77 46.58 58.89 47.20 57.27 C 47.88 54.16 43.80 51.02 41.16 53.20 M 56.42 53.55 C 54.33 55.17 54.73 58.53 56.92 59.86 C 59.48 61.83 63.38 59.09 62.95 56.06 C 62.65 53.09 58.57 51.16 56.42 53.55 M 72.40 53.39 C 67.80 56.34 73.86 63.44 77.48 59.26 C 81.22 56.29 75.87 50.06 72.40 53.39 Z" />
</g>
<g id="#f8fcf8ff">
<path fill="#f8fcf8" opacity="1.00" d=" M 41.16 53.20 C 43.80 51.02 47.88 54.16 47.20 57.27 C 46.58 58.89 45.06 60.77 43.12 60.42 C 39.39 60.57 37.77 54.93 41.16 53.20 Z" />
<path fill="#f8fcf8" opacity="1.00" d=" M 56.42 53.55 C 58.57 51.16 62.65 53.09 62.95 56.06 C 63.38 59.09 59.48 61.83 56.92 59.86 C 54.73 58.53 54.33 55.17 56.42 53.55 Z" />
<path fill="#f8fcf8" opacity="1.00" d=" M 72.40 53.39 C 75.87 50.06 81.22 56.29 77.48 59.26 C 73.86 63.44 67.80 56.34 72.40 53.39 Z" />
</g>
</svg>
