<?xml version="1.0" encoding="UTF-8" ?>
<!DOCTYPE svg PUBLIC "-//W3C//DTD SVG 1.1//EN" "http://www.w3.org/Graphics/SVG/1.1/DTD/svg11.dtd">
<svg width="117px" height="140px" viewBox="0 0 117 140" version="1.1" xmlns="http://www.w3.org/2000/svg">
<g id="#000000ff">
<path fill="#000000" opacity="1.00" d=" M 0.00 0.00 L 117.00 0.00 L 117.00 140.00 L 0.00 140.00 L 0.00 0.00 M 25.93 11.94 C 17.61 14.84 10.83 21.18 7.02 29.08 C 5.54 33.22 4.25 37.52 4.38 41.97 C 4.38 60.64 4.38 79.32 4.38 98.00 C 4.25 102.45 5.52 106.76 7.01 110.90 C 12.01 121.63 22.99 129.36 34.94 129.58 C 48.28 129.70 61.62 129.55 74.96 129.64 C 79.35 129.64 83.82 129.77 88.07 128.52 C 97.32 126.29 104.90 119.39 108.98 110.91 C 110.44 106.78 111.74 102.50 111.61 98.07 C 111.62 79.37 111.62 60.66 111.62 41.96 C 111.74 37.52 110.44 33.22 108.98 29.08 C 105.57 22.10 99.94 16.34 92.89 13.02 C 88.75 11.59 84.47 10.31 80.04 10.39 C 65.68 10.36 51.32 10.40 36.96 10.38 C 33.21 10.22 29.55 11.09 25.93 11.94 Z" />
<path fill="#000000" opacity="1.00" d=" M 5.60 39.96 C 6.33 24.90 19.82 11.79 34.93 11.60 C 50.30 11.62 65.68 11.63 81.06 11.60 C 96.52 11.76 110.35 25.57 110.42 41.04 C 110.33 61.70 110.42 82.35 110.36 103.00 C 108.41 110.22 104.92 117.28 98.83 121.88 C 93.50 126.02 86.77 128.56 79.98 128.41 C 65.32 128.36 50.67 128.37 36.01 128.41 C 32.98 128.48 30.00 127.88 27.05 127.25 C 20.42 124.80 14.31 120.62 10.50 114.56 C 8.12 111.08 6.97 106.98 5.63 103.03 C 5.59 82.01 5.64 60.98 5.60 39.96 M 36.59 42.00 C 36.59 50.67 36.59 59.33 36.59 68.00 C 43.86 68.00 51.14 68.00 58.41 68.00 C 58.41 66.00 58.41 64.00 58.41 62.00 C 54.07 62.00 49.73 62.01 45.39 61.96 C 45.38 60.66 45.37 59.35 45.36 58.05 C 48.90 58.01 52.45 57.98 56.00 58.00 C 56.00 55.86 56.00 53.73 56.00 51.59 C 52.46 51.59 48.93 51.59 45.39 51.61 C 45.39 50.53 45.39 49.46 45.39 48.39 C 49.60 48.41 53.80 48.41 58.00 48.41 C 58.00 46.27 58.00 44.14 58.00 42.00 C 50.87 42.00 43.73 42.00 36.59 42.00 M 61.60 49.13 C 61.58 55.42 61.59 61.71 61.59 68.00 C 64.20 68.00 66.81 68.00 69.42 68.00 C 69.49 64.14 69.10 60.24 69.66 56.41 C 69.95 53.91 74.11 53.95 74.36 56.44 C 74.88 60.27 74.52 64.15 74.58 68.00 C 77.19 68.00 79.79 68.00 82.40 68.00 C 82.25 63.03 82.95 57.95 81.76 53.06 C 80.98 49.73 77.23 48.15 74.09 48.44 C 71.86 48.75 70.14 50.30 68.47 51.67 C 68.45 51.07 68.40 49.87 68.38 49.26 C 66.13 49.12 63.86 49.14 61.60 49.13 Z" />
</g>
<g id="#e76010ff">
<path fill="#e76010" opacity="1.00" d=" M 25.93 11.94 C 29.55 11.09 33.21 10.22 36.96 10.38 C 51.32 10.40 65.68 10.36 80.04 10.39 C 84.47 10.31 88.75 11.59 92.89 13.02 C 99.94 16.34 105.57 22.10 108.98 29.08 C 110.44 33.22 111.74 37.52 111.62 41.96 C 111.62 60.66 111.62 79.37 111.61 98.07 C 111.74 102.50 110.44 106.78 108.98 110.91 C 104.90 119.39 97.32 126.29 88.07 128.52 C 83.82 129.77 79.35 129.64 74.96 129.64 C 61.62 129.55 48.28 129.70 34.94 129.58 C 22.99 129.36 12.01 121.63 7.01 110.90 C 5.52 106.76 4.25 102.45 4.38 98.00 C 4.38 79.32 4.38 60.64 4.38 41.97 C 4.25 37.52 5.54 33.22 7.02 29.08 C 10.83 21.18 17.61 14.84 25.93 11.94 M 5.60 39.96 C 5.64 60.98 5.59 82.01 5.63 103.03 C 6.97 106.98 8.12 111.08 10.50 114.56 C 14.31 120.62 20.42 124.80 27.05 127.25 C 30.00 127.88 32.98 128.48 36.01 128.41 C 50.67 128.37 65.32 128.36 79.98 128.41 C 86.77 128.56 93.50 126.02 98.83 121.88 C 104.92 117.28 108.41 110.22 110.36 103.00 C 110.42 82.35 110.33 61.70 110.42 41.04 C 110.35 25.57 96.52 11.76 81.06 11.60 C 65.68 11.63 50.30 11.62 34.93 11.60 C 19.82 11.79 6.33 24.90 5.60 39.96 Z" />
<path fill="#e76010" opacity="1.00" d=" M 36.59 42.00 C 43.73 42.00 50.87 42.00 58.00 42.00 C 58.00 44.14 58.00 46.27 58.00 48.41 C 53.80 48.41 49.60 48.41 45.39 48.39 C 45.39 49.46 45.39 50.53 45.39 51.61 C 48.93 51.59 52.46 51.59 56.00 51.59 C 56.00 53.73 56.00 55.86 56.00 58.00 C 52.45 57.98 48.90 58.01 45.36 58.05 C 45.37 59.35 45.38 60.66 45.39 61.96 C 49.73 62.01 54.07 62.00 58.41 62.00 C 58.41 64.00 58.41 66.00 58.41 68.00 C 51.14 68.00 43.86 68.00 36.59 68.00 C 36.59 59.33 36.59 50.67 36.59 42.00 Z" />
<path fill="#e76010" opacity="1.00" d=" M 61.60 49.13 C 63.86 49.14 66.13 49.12 68.38 49.26 C 68.40 49.87 68.45 51.07 68.47 51.67 C 70.14 50.30 71.86 48.75 74.09 48.44 C 77.23 48.15 80.98 49.73 81.76 53.06 C 82.95 57.95 82.25 63.03 82.40 68.00 C 79.79 68.00 77.19 68.00 74.58 68.00 C 74.52 64.15 74.88 60.27 74.36 56.44 C 74.11 53.95 69.95 53.91 69.66 56.41 C 69.10 60.24 69.49 64.14 69.42 68.00 C 66.81 68.00 64.20 68.00 61.59 68.00 C 61.59 61.71 61.58 55.42 61.60 49.13 Z" />
</g>
</svg>
