<?xml version="1.0" encoding="UTF-8" ?>
<!DOCTYPE svg PUBLIC "-//W3C//DTD SVG 1.1//EN" "http://www.w3.org/Graphics/SVG/1.1/DTD/svg11.dtd">
<svg width="117pt" height="140pt" viewBox="0 0 117 140" version="1.1" xmlns="http://www.w3.org/2000/svg">
<g id="#000000ff">
<path fill="#000000" opacity="1.00" d=" M 0.00 0.00 L 117.00 0.00 L 117.00 140.00 L 0.00 140.00 L 0.00 0.00 M 23.09 12.96 C 17.76 15.70 13.11 19.57 9.59 24.43 C 7.57 27.98 5.74 31.70 5.10 35.78 L 4.57 36.65 C 4.20 46.10 4.46 55.56 4.38 65.01 C 4.62 78.03 3.87 91.09 4.81 104.09 C 5.54 106.34 6.27 108.60 7.00 110.86 C 7.89 112.42 8.78 113.98 9.63 115.56 C 13.08 120.47 17.79 124.29 23.09 127.04 C 27.25 128.40 31.51 129.72 35.93 129.62 C 50.63 129.62 65.33 129.63 80.04 129.61 C 84.46 129.70 88.74 128.42 92.90 127.04 C 99.92 123.59 105.57 117.88 109.06 110.90 C 109.75 108.68 110.43 106.46 110.91 104.19 L 111.43 103.34 C 111.86 83.24 111.50 63.12 111.63 43.02 C 111.82 38.23 110.58 33.57 109.04 29.09 C 105.56 22.10 99.91 16.41 92.90 12.95 C 88.74 11.60 84.47 10.28 80.05 10.39 C 65.34 10.37 50.64 10.37 35.94 10.39 C 31.52 10.29 27.25 11.59 23.09 12.96 Z" />
<path fill="#000000" opacity="1.00" d=" M 26.39 12.74 C 29.57 12.26 32.73 11.55 35.96 11.60 C 50.65 11.63 65.35 11.63 80.04 11.60 C 83.27 11.54 86.42 12.27 89.60 12.74 L 89.55 13.12 C 98.57 16.07 105.84 23.41 108.89 32.37 L 109.27 32.46 C 109.74 35.64 110.48 38.80 110.40 42.03 C 110.37 61.03 110.37 80.03 110.40 99.03 C 110.43 101.91 109.76 104.72 109.29 107.54 L 108.89 107.65 C 105.83 116.58 98.59 123.89 89.60 126.87 L 89.52 127.27 C 86.36 127.75 83.21 128.46 79.99 128.40 C 65.34 128.37 50.68 128.37 36.03 128.40 C 32.78 128.46 29.60 127.75 26.41 127.26 L 26.46 126.88 C 17.19 123.92 10.05 116.24 6.83 107.18 C 6.48 105.72 6.10 104.28 5.69 102.85 C 5.50 82.57 5.71 62.30 5.58 42.02 C 5.47 38.91 6.11 35.85 6.71 32.82 C 10.15 23.83 17.12 16.05 26.47 13.12 L 26.39 12.74 M 41.59 42.00 C 41.59 50.67 41.59 59.33 41.59 68.00 C 44.40 68.00 47.20 68.00 50.00 68.00 C 50.00 64.94 50.00 61.88 50.00 58.83 C 53.21 58.82 56.43 58.83 59.64 58.83 C 59.62 56.75 59.60 54.67 59.59 52.59 C 56.40 52.59 53.21 52.59 50.02 52.61 C 50.01 51.20 50.00 49.80 50.00 48.40 C 53.94 48.41 57.88 48.41 61.83 48.40 C 61.83 46.27 61.83 44.13 61.83 42.00 C 55.08 42.00 48.34 42.00 41.59 42.00 M 64.60 49.17 C 64.59 55.45 64.59 61.72 64.59 68.00 C 67.27 68.00 69.94 68.00 72.62 68.00 C 72.67 64.73 72.29 61.40 72.99 58.18 C 74.04 55.98 76.61 56.09 78.67 55.98 C 78.63 53.30 78.57 50.61 78.39 47.93 C 75.71 48.56 73.30 49.86 71.55 52.02 C 71.64 51.31 71.83 49.90 71.92 49.19 C 69.48 49.18 67.04 49.17 64.60 49.17 Z" />
</g>
<g id="#e76011ff">
<path fill="#e76011" opacity="1.00" d=" M 23.09 12.96 C 27.25 11.59 31.52 10.29 35.94 10.39 C 50.64 10.37 65.34 10.37 80.05 10.39 C 84.47 10.28 88.74 11.60 92.90 12.95 C 99.91 16.41 105.56 22.10 109.04 29.09 C 110.58 33.57 111.82 38.23 111.63 43.02 C 111.50 63.12 111.86 83.24 111.43 103.34 L 110.91 104.19 C 110.43 106.46 109.75 108.68 109.06 110.90 C 105.57 117.88 99.92 123.59 92.90 127.04 C 88.74 128.42 84.46 129.70 80.04 129.61 C 65.33 129.63 50.63 129.62 35.93 129.62 C 31.51 129.72 27.25 128.40 23.09 127.04 C 17.79 124.29 13.08 120.47 9.63 115.56 C 8.78 113.98 7.89 112.42 7.00 110.86 C 6.27 108.60 5.54 106.34 4.81 104.09 C 3.87 91.09 4.62 78.03 4.38 65.01 C 4.46 55.56 4.20 46.10 4.57 36.65 L 5.10 35.78 C 5.74 31.70 7.57 27.98 9.59 24.43 C 13.11 19.57 17.76 15.70 23.09 12.96 M 26.39 12.74 L 26.47 13.12 C 17.12 16.05 10.15 23.83 6.71 32.82 C 6.11 35.85 5.47 38.91 5.58 42.02 C 5.71 62.30 5.50 82.57 5.69 102.85 C 6.10 104.28 6.48 105.72 6.83 107.18 C 10.05 116.24 17.19 123.92 26.46 126.88 L 26.41 127.26 C 29.60 127.75 32.78 128.46 36.03 128.40 C 50.68 128.37 65.34 128.37 79.99 128.40 C 83.21 128.46 86.36 127.75 89.52 127.27 L 89.60 126.87 C 98.59 123.89 105.83 116.58 108.89 107.65 L 109.29 107.54 C 109.76 104.72 110.43 101.91 110.40 99.03 C 110.37 80.03 110.37 61.03 110.40 42.03 C 110.48 38.80 109.74 35.64 109.27 32.46 L 108.89 32.37 C 105.84 23.41 98.57 16.07 89.55 13.12 L 89.60 12.74 C 86.42 12.27 83.27 11.54 80.04 11.60 C 65.35 11.63 50.65 11.63 35.96 11.60 C 32.73 11.55 29.57 12.26 26.39 12.74 Z" />
<path fill="#e76011" opacity="1.00" d=" M 41.59 42.00 C 48.34 42.00 55.08 42.00 61.83 42.00 C 61.83 44.13 61.83 46.27 61.83 48.40 C 57.88 48.41 53.94 48.41 50.00 48.40 C 50.00 49.80 50.01 51.20 50.02 52.61 C 53.21 52.59 56.40 52.59 59.59 52.59 C 59.60 54.67 59.62 56.75 59.64 58.83 C 56.43 58.83 53.21 58.82 50.00 58.83 C 50.00 61.88 50.00 64.94 50.00 68.00 C 47.20 68.00 44.40 68.00 41.59 68.00 C 41.59 59.33 41.59 50.67 41.59 42.00 Z" />
<path fill="#e76011" opacity="1.00" d=" M 64.60 49.17 C 67.04 49.17 69.48 49.18 71.92 49.19 C 71.83 49.90 71.64 51.31 71.55 52.02 C 73.30 49.86 75.71 48.56 78.39 47.93 C 78.57 50.61 78.63 53.30 78.67 55.98 C 76.61 56.09 74.04 55.98 72.99 58.18 C 72.29 61.40 72.67 64.73 72.62 68.00 C 69.94 68.00 67.27 68.00 64.59 68.00 C 64.59 61.72 64.59 55.45 64.60 49.17 Z" />
</g>
</svg>
