<?xml version="1.0" encoding="UTF-8" ?>
<!DOCTYPE svg PUBLIC "-//W3C//DTD SVG 1.1//EN" "http://www.w3.org/Graphics/SVG/1.1/DTD/svg11.dtd">
<svg width="117px" height="140px" viewBox="0 0 117 140" version="1.1" xmlns="http://www.w3.org/2000/svg">
<g id="#384450ff">
<path fill="#384450" opacity="1.00" d=" M 0.00 0.00 L 117.00 0.00 L 117.00 140.00 L 0.00 140.00 L 0.00 0.00 M 41.15 53.21 C 38.97 54.35 38.60 57.76 40.53 59.30 C 42.16 61.10 45.31 60.76 46.49 58.62 C 49.19 55.52 44.27 50.56 41.15 53.21 M 56.51 53.48 C 52.31 56.44 57.87 63.22 61.51 59.48 C 65.67 56.53 60.13 49.81 56.51 53.48 M 72.44 53.36 C 70.28 54.77 70.20 58.10 72.35 59.56 C 74.69 61.94 79.16 59.34 78.69 56.17 C 78.60 53.34 74.61 51.23 72.44 53.36 Z" />
</g>
<g id="#f8fcf8ff">
<path fill="#f8fcf8" opacity="1.00" d=" M 41.15 53.21 C 44.27 50.56 49.19 55.52 46.49 58.62 C 45.31 60.76 42.16 61.10 40.53 59.30 C 38.60 57.76 38.97 54.35 41.15 53.21 Z" />
<path fill="#f8fcf8" opacity="1.00" d=" M 56.51 53.48 C 60.13 49.81 65.67 56.53 61.51 59.48 C 57.87 63.22 52.31 56.44 56.51 53.48 Z" />
<path fill="#f8fcf8" opacity="1.00" d=" M 72.44 53.36 C 74.61 51.23 78.60 53.34 78.69 56.17 C 79.16 59.34 74.69 61.94 72.35 59.56 C 70.20 58.10 70.28 54.77 72.44 53.36 Z" />
</g>
</svg>
