<?xml version="1.0" encoding="UTF-8" ?>
<!DOCTYPE svg PUBLIC "-//W3C//DTD SVG 1.1//EN" "http://www.w3.org/Graphics/SVG/1.1/DTD/svg11.dtd">
<svg width="117px" height="140px" viewBox="0 0 117 140" version="1.1" xmlns="http://www.w3.org/2000/svg">
<g id="#000000ff">
<path fill="#000000" opacity="1.00" d=" M 0.00 0.00 L 117.00 0.00 L 117.00 140.00 L 0.00 140.00 L 0.00 0.00 M 33.18 10.23 C 17.94 11.77 5.21 25.60 5.02 40.94 C 4.98 60.32 4.98 79.72 5.02 99.10 C 5.21 115.02 18.99 129.24 34.90 129.92 C 50.25 130.11 65.61 129.95 80.96 130.00 C 92.28 130.13 103.33 123.66 108.82 113.77 C 111.77 108.73 113.14 102.86 113.01 97.03 C 112.98 78.69 113.01 60.35 113.00 42.01 C 113.07 33.12 109.15 24.33 102.56 18.38 C 96.29 12.53 87.60 9.62 79.07 9.98 C 63.78 10.18 48.46 9.68 33.18 10.23 Z" />
<path fill="#000000" opacity="1.00" d=" M 33.30 12.34 C 48.53 11.72 63.80 12.25 79.05 12.06 C 85.38 11.89 91.84 13.29 97.16 16.85 C 105.61 22.14 111.00 31.98 110.90 41.95 C 110.98 58.98 110.89 76.01 110.94 93.04 C 111.11 99.34 110.80 105.93 107.64 111.56 C 102.80 121.47 92.04 127.98 81.04 127.90 C 66.35 127.96 51.66 127.94 36.98 127.91 C 26.26 127.99 15.74 121.80 10.75 112.30 C 8.09 107.66 6.98 102.27 7.07 96.95 C 7.11 78.29 6.99 59.62 7.13 40.96 C 7.29 26.71 19.12 13.77 33.30 12.34 M 51.55 29.36 C 45.72 30.53 40.10 35.62 40.71 41.97 C 41.86 48.50 48.74 51.58 54.61 52.60 C 54.75 52.92 55.02 53.55 55.15 53.87 C 52.67 55.66 49.28 55.63 46.56 54.43 C 44.74 53.80 42.87 52.64 40.89 53.31 C 37.19 54.09 35.11 58.50 36.41 61.95 C 37.69 68.05 43.47 73.83 50.09 72.34 C 56.39 70.35 58.55 63.47 59.99 57.74 C 63.47 60.33 62.32 65.11 60.70 68.45 C 58.64 72.05 61.80 77.10 65.89 77.00 C 73.15 77.48 81.08 70.71 79.24 63.04 C 77.26 57.14 70.90 54.65 65.31 53.56 C 65.30 53.25 65.28 52.64 65.27 52.34 C 68.28 50.08 72.37 51.15 75.52 52.57 C 78.74 54.22 82.81 52.07 83.82 48.75 C 85.26 41.13 78.16 32.03 70.02 34.00 C 64.14 35.97 61.40 42.36 60.61 48.06 C 58.10 47.75 57.93 44.99 57.95 42.99 C 58.03 39.83 60.69 37.18 59.99 33.95 C 59.17 30.36 55.01 28.20 51.55 29.36 Z" />
<path fill="#000000" opacity="1.00" d=" M 44.66 42.07 C 44.11 36.99 49.36 33.16 54.01 33.05 C 55.87 33.21 56.59 35.36 55.60 36.82 C 53.88 40.56 53.51 44.73 54.87 48.66 C 50.79 47.93 46.52 46.00 44.66 42.07 Z" />
<path fill="#000000" opacity="1.00" d=" M 64.26 48.70 C 65.48 44.42 66.91 38.78 71.93 37.65 C 76.95 37.72 80.50 43.22 79.95 47.89 C 78.76 49.99 76.42 48.62 74.75 48.06 C 71.40 46.70 67.31 46.49 64.26 48.70 Z" />
<path fill="#000000" opacity="1.00" d=" M 59.94 55.70 C 56.64 54.85 57.46 51.42 59.96 50.17 C 62.83 51.16 63.60 55.30 59.94 55.70 Z" />
<path fill="#000000" opacity="1.00" d=" M 40.16 60.79 C 39.49 59.14 40.88 56.43 42.87 57.29 C 46.88 59.07 51.40 60.07 55.61 58.25 C 54.84 62.26 53.12 66.78 49.09 68.49 C 44.49 69.30 41.08 64.79 40.16 60.79 Z" />
<path fill="#000000" opacity="1.00" d=" M 65.43 57.66 C 69.34 58.44 73.50 60.14 75.40 63.90 C 76.45 69.70 70.01 73.63 64.86 73.11 C 63.27 70.73 65.24 68.39 65.85 66.04 C 66.66 63.27 65.99 60.40 65.43 57.66 Z" />
</g>
<g id="#727372ff">
<path fill="#727372" opacity="1.00" d=" M 33.18 10.23 C 48.46 9.68 63.78 10.18 79.07 9.98 C 87.60 9.62 96.29 12.53 102.56 18.38 C 109.15 24.33 113.07 33.12 113.00 42.01 C 113.01 60.35 112.98 78.69 113.01 97.03 C 113.14 102.86 111.77 108.73 108.82 113.77 C 103.33 123.66 92.28 130.13 80.96 130.00 C 65.61 129.95 50.25 130.11 34.90 129.92 C 18.99 129.24 5.21 115.02 5.02 99.10 C 4.98 79.72 4.98 60.32 5.02 40.94 C 5.21 25.60 17.94 11.77 33.18 10.23 M 33.30 12.34 C 19.12 13.77 7.29 26.71 7.13 40.96 C 6.99 59.62 7.11 78.29 7.07 96.95 C 6.98 102.27 8.09 107.66 10.75 112.30 C 15.74 121.80 26.26 127.99 36.98 127.91 C 51.66 127.94 66.35 127.96 81.04 127.90 C 92.04 127.98 102.80 121.47 107.64 111.56 C 110.80 105.93 111.11 99.34 110.94 93.04 C 110.89 76.01 110.98 58.98 110.90 41.95 C 111.00 31.98 105.61 22.14 97.16 16.85 C 91.84 13.29 85.38 11.89 79.05 12.06 C 63.80 12.25 48.53 11.72 33.30 12.34 Z" />
</g>
<g id="#f8fcf8ff">
<path fill="#f8fcf8" opacity="1.00" d=" M 51.55 29.36 C 55.01 28.20 59.17 30.36 59.99 33.95 C 60.69 37.18 58.03 39.83 57.95 42.99 C 57.93 44.99 58.10 47.75 60.61 48.06 C 61.40 42.36 64.14 35.97 70.02 34.00 C 78.16 32.03 85.26 41.13 83.82 48.75 C 82.81 52.07 78.74 54.22 75.52 52.57 C 72.37 51.15 68.28 50.08 65.27 52.34 C 65.28 52.64 65.30 53.25 65.31 53.56 C 70.90 54.65 77.26 57.14 79.24 63.04 C 81.08 70.71 73.15 77.48 65.89 77.00 C 61.80 77.10 58.64 72.05 60.70 68.45 C 62.32 65.11 63.47 60.33 59.99 57.74 C 58.55 63.47 56.39 70.35 50.09 72.34 C 43.47 73.83 37.69 68.05 36.41 61.95 C 35.11 58.50 37.19 54.09 40.89 53.31 C 42.87 52.64 44.74 53.80 46.56 54.43 C 49.28 55.63 52.67 55.66 55.15 53.87 C 55.02 53.55 54.75 52.92 54.61 52.60 C 48.74 51.58 41.86 48.50 40.71 41.97 C 40.10 35.62 45.72 30.53 51.55 29.36 M 44.66 42.07 C 46.52 46.00 50.79 47.93 54.87 48.66 C 53.51 44.73 53.88 40.56 55.60 36.82 C 56.59 35.36 55.87 33.21 54.01 33.05 C 49.36 33.16 44.11 36.99 44.66 42.07 M 64.26 48.70 C 67.31 46.49 71.40 46.70 74.75 48.06 C 76.42 48.62 78.76 49.99 79.95 47.89 C 80.50 43.22 76.95 37.72 71.93 37.65 C 66.91 38.78 65.48 44.42 64.26 48.70 M 59.94 55.70 C 63.60 55.30 62.83 51.16 59.96 50.17 C 57.46 51.42 56.64 54.85 59.94 55.70 M 40.16 60.79 C 41.08 64.79 44.49 69.30 49.09 68.49 C 53.12 66.78 54.84 62.26 55.61 58.25 C 51.40 60.07 46.88 59.07 42.87 57.29 C 40.88 56.43 39.49 59.14 40.16 60.79 M 65.43 57.66 C 65.99 60.40 66.66 63.27 65.85 66.04 C 65.24 68.39 63.27 70.73 64.86 73.11 C 70.01 73.63 76.45 69.70 75.40 63.90 C 73.50 60.14 69.34 58.44 65.43 57.66 Z" />
</g>
</svg>
