<?xml version="1.0" encoding="UTF-8" ?>
<!DOCTYPE svg PUBLIC "-//W3C//DTD SVG 1.1//EN" "http://www.w3.org/Graphics/SVG/1.1/DTD/svg11.dtd">
<svg width="117px" height="140px" viewBox="0 0 117 140" version="1.1" xmlns="http://www.w3.org/2000/svg">
<g id="#000000ff">
<path fill="#000000" opacity="1.00" d=" M 0.00 0.00 L 117.00 0.00 L 117.00 140.00 L 0.00 140.00 L 0.00 0.00 M 33.17 10.23 C 17.92 11.79 5.21 25.63 5.02 40.97 C 5.02 60.67 4.92 80.38 5.07 100.09 C 5.77 116.02 20.00 129.81 35.95 129.98 C 51.67 129.98 67.39 130.10 83.10 129.91 C 99.01 129.23 112.81 115.00 112.97 99.08 C 113.04 80.05 112.98 61.03 113.00 42.01 C 113.06 33.37 109.36 24.80 103.07 18.88 C 97.00 12.97 88.48 9.78 80.03 9.98 C 64.41 10.17 48.77 9.69 33.17 10.23 Z" />
<path fill="#000000" opacity="1.00" d=" M 33.32 12.33 C 45.18 11.74 57.07 12.23 68.95 12.07 C 77.30 12.27 86.23 11.00 93.94 15.04 C 104.14 19.78 111.07 30.73 110.91 41.99 C 110.95 60.66 110.95 79.34 110.91 98.01 C 111.04 108.75 104.78 119.28 95.27 124.28 C 90.35 127.09 84.61 128.06 79.01 127.94 C 64.30 127.85 49.59 128.08 34.89 127.82 C 20.10 127.14 7.26 113.90 7.12 99.07 C 7.03 79.70 7.03 60.32 7.12 40.94 C 7.29 26.69 19.13 13.76 33.32 12.33 M 58.58 29.37 C 58.21 33.51 58.59 37.70 58.45 41.86 C 53.59 42.98 49.97 47.32 49.78 52.31 C 45.40 52.20 41.01 52.15 36.62 52.38 C 40.87 53.39 45.28 52.56 49.60 52.90 C 50.33 57.99 54.14 62.43 59.39 63.07 C 59.21 67.47 59.07 71.89 59.38 76.29 C 60.21 72.04 59.47 67.65 59.87 63.35 C 65.10 62.72 69.86 59.01 70.57 53.58 C 74.55 53.58 78.54 53.56 82.53 53.60 C 85.77 42.03 75.91 30.50 64.76 28.59 C 62.82 28.47 59.86 27.43 58.58 29.37 Z" />
<path fill="#000000" opacity="1.00" d=" M 58.10 43.11 C 65.22 41.15 71.82 49.26 68.85 55.91 C 66.85 62.19 58.27 63.80 53.62 59.43 C 48.71 54.44 50.75 44.36 58.10 43.11 Z" />
</g>
<g id="#737473ff">
<path fill="#737473" opacity="1.00" d=" M 33.17 10.23 C 48.77 9.69 64.41 10.17 80.03 9.98 C 88.48 9.78 97.00 12.97 103.07 18.88 C 109.36 24.80 113.06 33.37 113.00 42.01 C 112.98 61.03 113.04 80.05 112.97 99.08 C 112.81 115.00 99.01 129.23 83.10 129.91 C 67.39 130.10 51.67 129.98 35.95 129.98 C 20.00 129.81 5.77 116.02 5.07 100.09 C 4.92 80.38 5.02 60.67 5.02 40.97 C 5.21 25.63 17.92 11.79 33.17 10.23 M 33.32 12.33 C 19.13 13.76 7.29 26.69 7.12 40.94 C 7.03 60.32 7.03 79.70 7.12 99.07 C 7.26 113.90 20.10 127.14 34.89 127.82 C 49.59 128.08 64.30 127.85 79.01 127.94 C 84.61 128.06 90.35 127.09 95.27 124.28 C 104.78 119.28 111.04 108.75 110.91 98.01 C 110.95 79.34 110.95 60.66 110.91 41.99 C 111.07 30.73 104.14 19.78 93.94 15.04 C 86.23 11.00 77.30 12.27 68.95 12.07 C 57.07 12.23 45.18 11.74 33.32 12.33 Z" />
</g>
<g id="#f8fcf8ff">
<path fill="#f8fcf8" opacity="1.00" d=" M 58.58 29.37 C 59.86 27.43 62.82 28.47 64.76 28.59 C 75.91 30.50 85.77 42.03 82.53 53.60 C 78.54 53.56 74.55 53.58 70.57 53.58 C 69.86 59.01 65.10 62.72 59.87 63.35 C 59.47 67.65 60.21 72.04 59.38 76.29 C 59.07 71.89 59.21 67.47 59.39 63.07 C 54.14 62.43 50.33 57.99 49.60 52.90 C 45.28 52.56 40.87 53.39 36.62 52.38 C 41.01 52.15 45.40 52.20 49.78 52.31 C 49.97 47.32 53.59 42.98 58.45 41.86 C 58.59 37.70 58.21 33.51 58.58 29.37 M 58.10 43.11 C 50.75 44.36 48.71 54.44 53.62 59.43 C 58.27 63.80 66.85 62.19 68.85 55.91 C 71.82 49.26 65.22 41.15 58.10 43.11 Z" />
</g>
</svg>
