<?xml version="1.0" encoding="UTF-8" ?>
<!DOCTYPE svg PUBLIC "-//W3C//DTD SVG 1.1//EN" "http://www.w3.org/Graphics/SVG/1.1/DTD/svg11.dtd">
<svg width="117pt" height="140pt" viewBox="0 0 117 140" version="1.1" xmlns="http://www.w3.org/2000/svg">
<g id="#000000ff">
<path fill="#000000" opacity="1.00" d=" M 0.00 0.00 L 117.00 0.00 L 117.00 140.00 L 0.00 140.00 L 0.00 0.00 M 46.79 42.01 C 46.54 50.66 46.53 59.33 46.79 67.98 C 49.60 68.02 52.41 68.02 55.21 67.98 C 55.47 59.34 55.47 50.67 55.21 42.02 C 52.40 41.98 49.59 41.98 46.79 42.01 M 61.29 43.21 C 61.24 45.11 61.09 47.01 61.04 48.92 C 60.35 49.04 58.95 49.29 58.26 49.41 C 58.28 50.80 58.29 52.19 58.29 53.58 C 58.98 53.67 60.36 53.86 61.05 53.96 C 61.30 57.58 61.09 61.21 61.32 64.83 C 61.29 66.08 62.07 67.33 63.34 67.61 C 66.27 68.26 69.31 67.96 72.29 68.00 C 72.28 66.31 72.25 64.62 72.22 62.93 C 71.45 62.86 69.92 62.72 69.16 62.66 C 68.65 59.57 68.63 56.44 69.17 53.36 C 69.92 53.30 71.44 53.18 72.20 53.12 C 73.15 50.49 71.76 48.56 68.93 48.86 C 68.90 46.97 68.76 45.09 68.73 43.21 C 66.25 43.20 63.77 43.20 61.29 43.21 Z" />
</g>
<g id="#f8fcf8ff">
<path fill="#f8fcf8" opacity="1.00" d=" M 46.79 42.01 C 49.59 41.98 52.40 41.98 55.21 42.02 C 55.47 50.67 55.47 59.34 55.21 67.98 C 52.41 68.02 49.60 68.02 46.79 67.98 C 46.53 59.33 46.54 50.66 46.79 42.01 Z" />
<path fill="#f8fcf8" opacity="1.00" d=" M 61.29 43.21 C 63.77 43.20 66.25 43.20 68.73 43.21 C 68.76 45.09 68.90 46.97 68.93 48.86 C 71.76 48.56 73.15 50.49 72.20 53.12 C 71.44 53.18 69.92 53.30 69.17 53.36 C 68.63 56.44 68.65 59.57 69.16 62.66 C 69.92 62.72 71.45 62.86 72.22 62.93 C 72.25 64.62 72.28 66.31 72.29 68.00 C 69.31 67.96 66.27 68.26 63.34 67.61 C 62.07 67.33 61.29 66.08 61.32 64.83 C 61.09 61.21 61.30 57.58 61.05 53.96 C 60.36 53.86 58.98 53.67 58.29 53.58 C 58.29 52.19 58.28 50.80 58.26 49.41 C 58.95 49.29 60.35 49.04 61.04 48.92 C 61.09 47.01 61.24 45.11 61.29 43.21 Z" />
</g>
</svg>
