<?xml version="1.0" encoding="UTF-8" ?>
<!DOCTYPE svg PUBLIC "-//W3C//DTD SVG 1.1//EN" "http://www.w3.org/Graphics/SVG/1.1/DTD/svg11.dtd">
<svg width="117pt" height="140pt" viewBox="0 0 117 140" version="1.1" xmlns="http://www.w3.org/2000/svg">
<g id="#000000ff">
<path fill="#000000" opacity="1.00" d=" M 0.00 0.00 L 117.00 0.00 L 117.00 140.00 L 0.00 140.00 L 0.00 0.00 M 33.22 10.24 C 17.96 11.75 5.21 25.60 5.03 40.94 C 4.97 60.31 4.97 79.70 5.03 99.07 C 5.19 115.03 19.03 129.28 34.97 129.92 C 50.66 130.09 66.35 130.00 82.04 129.96 C 98.35 129.84 112.83 115.39 112.96 99.08 C 113.06 80.06 112.98 61.04 112.99 42.02 C 113.12 30.96 106.94 20.16 97.43 14.56 C 91.93 11.19 85.42 9.78 79.02 9.97 C 63.75 10.19 48.47 9.66 33.22 10.24 Z" />
<path fill="#000000" opacity="1.00" d=" M 33.33 12.33 C 48.22 11.71 63.15 12.26 78.05 12.05 C 84.72 11.82 91.59 13.08 97.19 16.86 C 105.65 22.18 111.03 32.04 110.91 42.04 C 110.97 60.02 110.90 78.01 110.94 95.99 C 111.07 101.63 110.11 107.39 107.25 112.32 C 102.26 121.82 91.75 127.98 81.03 127.90 C 66.01 127.93 50.98 128.00 35.96 127.87 C 20.74 127.75 7.22 114.26 7.13 99.03 C 7.03 79.68 7.03 60.32 7.13 40.97 C 7.28 26.70 19.13 13.74 33.33 12.33 M 53.62 27.58 C 53.62 29.21 53.64 30.85 53.69 32.49 C 51.88 33.21 50.07 33.95 48.26 34.68 C 47.06 33.53 45.86 32.38 44.65 31.23 C 42.22 33.71 39.76 36.17 37.26 38.59 C 38.37 39.79 39.45 41.03 40.55 42.24 C 39.91 44.07 39.22 45.89 38.53 47.71 C 36.88 47.66 35.24 47.65 33.59 47.65 C 33.46 51.22 33.47 54.79 33.59 58.35 C 35.23 58.35 36.88 58.34 38.52 58.29 C 39.21 60.11 39.92 61.94 40.55 63.79 C 39.45 64.98 38.34 66.18 37.24 67.38 C 39.74 69.81 42.20 72.27 44.63 74.77 C 45.84 73.62 47.06 72.48 48.27 71.33 C 50.08 72.05 51.88 72.79 53.70 73.50 C 53.64 75.14 53.62 76.78 53.61 78.42 C 57.20 78.54 60.79 78.53 64.38 78.42 C 64.38 76.78 64.36 75.14 64.31 73.51 C 66.12 72.79 67.92 72.05 69.72 71.33 C 70.94 72.47 72.15 73.63 73.38 74.77 C 75.80 72.27 78.26 69.81 80.76 67.38 C 79.65 66.16 78.53 64.96 77.42 63.75 C 78.13 61.94 78.84 60.14 79.54 58.32 C 81.17 58.35 82.79 58.35 84.42 58.34 C 84.50 54.78 84.58 51.22 84.40 47.67 C 82.77 47.65 81.15 47.65 79.52 47.66 C 78.83 45.85 78.13 44.05 77.42 42.25 C 78.53 41.04 79.62 39.80 80.75 38.60 C 78.25 36.18 75.79 33.72 73.35 31.23 C 72.14 32.38 70.94 33.53 69.73 34.68 C 67.93 33.95 66.12 33.22 64.31 32.52 C 64.36 30.87 64.38 29.22 64.38 27.58 C 60.80 27.46 57.20 27.47 53.62 27.58 Z" />
<path fill="#000000" opacity="1.00" d=" M 56.88 30.77 C 58.29 30.77 59.71 30.77 61.12 30.77 C 61.13 32.35 61.13 33.92 61.13 35.50 C 64.21 36.28 67.16 37.48 69.86 39.14 C 71.03 38.00 72.18 36.84 73.32 35.66 C 74.31 36.68 75.32 37.69 76.33 38.69 C 75.16 39.83 74.00 40.98 72.85 42.13 C 74.50 44.84 75.68 47.78 76.47 50.84 C 78.06 50.84 79.66 50.84 81.26 50.85 C 81.26 52.28 81.26 53.72 81.26 55.15 C 79.66 55.16 78.07 55.16 76.47 55.15 C 75.68 58.21 74.49 61.15 72.85 63.86 C 74.00 65.02 75.16 66.17 76.33 67.31 C 75.32 68.31 74.31 69.32 73.31 70.34 C 72.18 69.16 71.03 68.00 69.87 66.86 C 67.16 68.53 64.20 69.68 61.13 70.49 C 61.13 72.07 61.13 73.65 61.12 75.23 C 59.71 75.23 58.30 75.23 56.89 75.23 C 56.87 73.65 56.86 72.07 56.86 70.49 C 53.79 69.68 50.83 68.53 48.13 66.85 C 46.97 68.00 45.82 69.16 44.69 70.34 C 43.69 69.32 42.68 68.32 41.67 67.31 C 42.84 66.17 44.00 65.02 45.15 63.86 C 43.50 61.16 42.32 58.22 41.53 55.15 C 39.93 55.16 38.34 55.16 36.74 55.15 C 36.74 53.72 36.74 52.28 36.74 50.85 C 38.34 50.84 39.93 50.84 41.53 50.85 C 42.32 47.78 43.51 44.84 45.15 42.14 C 44.00 40.97 42.84 39.83 41.67 38.68 C 42.68 37.68 43.69 36.67 44.69 35.66 C 45.83 36.84 46.97 38.00 48.13 39.15 C 50.83 37.47 53.79 36.29 56.87 35.50 C 56.87 33.92 56.87 32.35 56.88 30.77 M 57.32 43.39 C 49.96 44.50 46.29 54.80 52.21 59.80 C 56.80 65.17 66.15 62.65 68.19 56.15 C 70.93 49.60 64.13 41.90 57.32 43.39 Z" />
<path fill="#000000" opacity="1.00" d=" M 54.07 48.06 C 57.21 46.15 60.79 46.12 63.93 48.06 C 65.90 51.18 65.81 54.81 63.92 57.95 C 60.79 59.88 57.22 59.84 54.08 57.96 C 52.19 54.81 52.10 51.19 54.07 48.06 Z" />
</g>
<g id="#737473ff">
<path fill="#737473" opacity="1.00" d=" M 33.22 10.24 C 48.47 9.66 63.75 10.19 79.02 9.97 C 85.42 9.78 91.93 11.19 97.43 14.56 C 106.94 20.16 113.12 30.96 112.99 42.02 C 112.98 61.04 113.06 80.06 112.96 99.08 C 112.83 115.39 98.35 129.84 82.04 129.96 C 66.35 130.00 50.66 130.09 34.97 129.92 C 19.03 129.28 5.19 115.03 5.03 99.07 C 4.97 79.70 4.97 60.31 5.03 40.94 C 5.21 25.60 17.96 11.75 33.22 10.24 M 33.33 12.33 C 19.13 13.74 7.28 26.70 7.13 40.97 C 7.03 60.32 7.03 79.68 7.13 99.03 C 7.22 114.26 20.74 127.75 35.96 127.87 C 50.98 128.00 66.01 127.93 81.03 127.90 C 91.75 127.98 102.26 121.82 107.25 112.32 C 110.11 107.39 111.07 101.63 110.94 95.99 C 110.90 78.01 110.97 60.02 110.91 42.04 C 111.03 32.04 105.65 22.18 97.19 16.86 C 91.59 13.08 84.72 11.82 78.05 12.05 C 63.15 12.26 48.22 11.71 33.33 12.33 Z" />
</g>
<g id="#f7fbf7ff">
<path fill="#f7fbf7" opacity="1.00" d=" M 53.62 27.58 C 57.20 27.47 60.80 27.46 64.38 27.58 C 64.38 29.22 64.36 30.87 64.31 32.52 C 66.12 33.22 67.93 33.95 69.73 34.68 C 70.94 33.53 72.14 32.38 73.35 31.23 C 75.79 33.72 78.25 36.18 80.75 38.60 C 79.62 39.80 78.53 41.04 77.42 42.25 C 78.13 44.05 78.83 45.85 79.52 47.66 C 81.15 47.65 82.77 47.65 84.40 47.67 C 84.58 51.22 84.50 54.78 84.42 58.34 C 82.79 58.35 81.17 58.35 79.54 58.32 C 78.84 60.14 78.13 61.94 77.42 63.75 C 78.53 64.96 79.65 66.16 80.76 67.38 C 78.26 69.81 75.80 72.27 73.38 74.77 C 72.15 73.63 70.94 72.47 69.72 71.33 C 67.92 72.05 66.12 72.79 64.31 73.51 C 64.36 75.14 64.38 76.78 64.38 78.42 C 60.79 78.53 57.20 78.54 53.61 78.42 C 53.62 76.78 53.64 75.14 53.70 73.50 C 51.88 72.79 50.08 72.05 48.27 71.33 C 47.06 72.48 45.84 73.62 44.63 74.77 C 42.20 72.27 39.74 69.81 37.24 67.38 C 38.34 66.18 39.45 64.98 40.55 63.79 C 39.92 61.94 39.21 60.11 38.52 58.29 C 36.88 58.34 35.23 58.35 33.59 58.35 C 33.47 54.79 33.46 51.22 33.59 47.65 C 35.24 47.65 36.88 47.66 38.53 47.71 C 39.22 45.89 39.91 44.07 40.55 42.24 C 39.45 41.03 38.37 39.79 37.26 38.59 C 39.76 36.17 42.22 33.71 44.65 31.23 C 45.86 32.38 47.06 33.53 48.26 34.68 C 50.07 33.95 51.88 33.21 53.69 32.49 C 53.64 30.85 53.62 29.21 53.62 27.58 M 56.88 30.77 C 56.87 32.35 56.87 33.92 56.87 35.50 C 53.79 36.29 50.83 37.47 48.13 39.15 C 46.97 38.00 45.83 36.84 44.69 35.66 C 43.69 36.67 42.68 37.68 41.67 38.68 C 42.84 39.83 44.00 40.97 45.15 42.14 C 43.51 44.84 42.32 47.78 41.53 50.85 C 39.93 50.84 38.34 50.84 36.74 50.85 C 36.74 52.28 36.74 53.72 36.74 55.15 C 38.34 55.16 39.93 55.16 41.53 55.15 C 42.32 58.22 43.50 61.16 45.15 63.86 C 44.00 65.02 42.84 66.17 41.67 67.31 C 42.68 68.32 43.69 69.32 44.69 70.34 C 45.82 69.16 46.97 68.00 48.13 66.85 C 50.83 68.53 53.79 69.68 56.86 70.49 C 56.86 72.07 56.87 73.65 56.89 75.23 C 58.30 75.23 59.71 75.23 61.12 75.23 C 61.13 73.65 61.13 72.07 61.13 70.49 C 64.20 69.68 67.16 68.53 69.87 66.86 C 71.03 68.00 72.18 69.16 73.31 70.34 C 74.31 69.32 75.32 68.31 76.33 67.31 C 75.16 66.17 74.00 65.02 72.85 63.86 C 74.49 61.15 75.68 58.21 76.47 55.15 C 78.07 55.16 79.66 55.16 81.26 55.15 C 81.26 53.72 81.26 52.28 81.26 50.85 C 79.66 50.84 78.06 50.84 76.47 50.84 C 75.68 47.78 74.50 44.84 72.85 42.13 C 74.00 40.98 75.16 39.83 76.33 38.69 C 75.32 37.69 74.31 36.68 73.32 35.66 C 72.18 36.84 71.03 38.00 69.86 39.14 C 67.16 37.48 64.21 36.28 61.13 35.50 C 61.13 33.92 61.13 32.35 61.12 30.77 C 59.71 30.77 58.29 30.77 56.88 30.77 Z" />
<path fill="#f7fbf7" opacity="1.00" d=" M 57.32 43.39 C 64.13 41.90 70.93 49.60 68.19 56.15 C 66.15 62.65 56.80 65.17 52.21 59.80 C 46.29 54.80 49.96 44.50 57.32 43.39 M 54.07 48.06 C 52.10 51.19 52.19 54.81 54.08 57.96 C 57.22 59.84 60.79 59.88 63.92 57.95 C 65.81 54.81 65.90 51.18 63.93 48.06 C 60.79 46.12 57.21 46.15 54.07 48.06 Z" />
</g>
</svg>
