<?xml version="1.0" encoding="UTF-8" ?>
<!DOCTYPE svg PUBLIC "-//W3C//DTD SVG 1.1//EN" "http://www.w3.org/Graphics/SVG/1.1/DTD/svg11.dtd">
<svg width="117px" height="140px" viewBox="0 0 117 140" version="1.1" xmlns="http://www.w3.org/2000/svg">
<g id="#000000ff">
<path fill="#000000" opacity="1.00" d=" M 0.00 0.00 L 117.00 0.00 L 117.00 140.00 L 0.00 140.00 L 0.00 0.00 M 33.18 10.23 C 17.93 11.79 5.22 25.62 5.02 40.95 C 4.96 59.97 5.02 78.98 4.99 98.00 C 4.95 106.65 8.66 115.22 14.96 121.15 C 21.06 127.07 29.60 130.25 38.07 130.02 C 53.08 129.92 68.09 130.13 83.09 129.91 C 99.01 129.24 112.82 114.99 112.97 99.06 C 113.04 80.03 112.98 61.01 113.00 41.98 C 113.04 33.36 109.36 24.81 103.09 18.89 C 97.01 12.97 88.48 9.78 80.02 9.98 C 64.41 10.17 48.78 9.68 33.18 10.23 Z" />
<path fill="#000000" opacity="1.00" d=" M 33.24 12.34 C 48.48 11.72 63.76 12.25 79.01 12.06 C 85.36 11.87 91.84 13.28 97.16 16.84 C 105.63 22.15 111.04 32.02 110.91 42.03 C 110.97 59.70 110.90 77.37 110.94 95.04 C 111.11 100.72 110.42 106.59 107.61 111.63 C 102.74 121.52 91.98 128.02 80.98 127.91 C 66.30 127.95 51.62 127.94 36.94 127.92 C 26.25 128.00 15.75 121.80 10.76 112.32 C 8.08 107.68 6.97 102.30 7.07 96.97 C 7.10 78.31 7.00 59.65 7.12 40.99 C 7.26 26.75 19.07 13.80 33.24 12.34 M 57.39 28.54 C 49.53 36.34 41.80 44.26 33.90 52.03 C 34.16 52.97 34.44 53.91 34.75 54.83 C 38.08 54.33 42.43 56.06 44.80 52.87 C 49.49 48.07 54.24 43.35 58.99 38.61 C 63.75 43.32 68.44 48.09 73.16 52.84 C 75.64 56.01 80.18 54.63 83.62 54.50 C 83.72 53.89 83.91 52.67 84.01 52.07 C 76.41 44.31 68.66 36.69 61.04 28.96 C 60.28 27.82 58.33 27.47 57.39 28.54 M 57.15 43.01 C 52.99 47.25 48.86 51.52 44.71 55.76 C 43.83 56.61 43.05 57.70 43.14 58.99 C 43.11 64.33 43.13 69.67 43.13 75.00 C 42.88 76.28 44.11 77.48 45.33 77.47 C 48.66 77.53 52.01 77.64 55.33 77.40 C 55.60 77.13 56.14 76.59 56.41 76.32 C 56.78 72.82 56.45 69.29 56.53 65.78 C 58.41 65.83 60.29 65.84 62.16 65.83 C 62.18 69.19 62.01 72.55 62.19 75.91 C 63.11 78.25 66.07 77.33 67.99 77.54 C 70.21 77.20 73.57 78.50 74.81 75.93 C 74.98 70.95 74.79 65.97 74.89 60.99 C 74.86 59.42 75.11 57.56 73.82 56.38 C 69.54 51.88 65.17 47.47 60.84 43.02 C 60.00 41.85 57.99 41.82 57.15 43.01 Z" />
<path fill="#000000" opacity="1.00" d=" M 38.11 51.84 C 45.28 45.15 52.00 37.99 58.98 31.11 C 65.99 37.95 72.64 45.19 79.87 51.80 C 78.72 51.80 77.57 51.80 76.42 51.80 C 71.29 46.51 66.03 41.36 60.84 36.13 C 60.00 35.03 58.14 34.90 57.27 36.00 C 52.04 41.26 46.75 46.47 41.59 51.79 C 40.72 51.80 38.98 51.83 38.11 51.84 Z" />
<path fill="#000000" opacity="1.00" d=" M 47.84 56.87 C 51.62 53.13 55.28 49.28 58.98 45.46 C 63.17 49.83 67.44 54.12 71.64 58.46 C 72.20 63.76 71.68 69.18 71.88 74.53 C 69.63 74.48 67.37 74.48 65.12 74.53 C 65.03 70.78 65.47 66.99 64.73 63.28 C 61.33 62.82 57.50 62.26 54.28 63.38 C 52.81 66.90 53.75 70.93 53.69 74.67 C 51.18 74.40 48.65 74.46 46.13 74.55 C 46.15 69.67 46.12 64.79 46.13 59.91 C 45.79 58.54 47.08 57.75 47.84 56.87 Z" />
</g>
<g id="#747474ff">
<path fill="#747474" opacity="1.00" d=" M 33.18 10.23 C 48.78 9.68 64.41 10.17 80.02 9.98 C 88.48 9.78 97.01 12.97 103.09 18.89 C 109.36 24.81 113.04 33.36 113.00 41.98 C 112.98 61.01 113.04 80.03 112.97 99.06 C 112.82 114.99 99.01 129.24 83.09 129.91 C 68.09 130.13 53.08 129.92 38.07 130.02 C 29.60 130.25 21.06 127.07 14.96 121.15 C 8.66 115.22 4.95 106.65 4.99 98.00 C 5.02 78.98 4.96 59.97 5.02 40.95 C 5.22 25.62 17.93 11.79 33.18 10.23 M 33.24 12.34 C 19.07 13.80 7.26 26.75 7.12 40.99 C 7.00 59.65 7.10 78.31 7.07 96.97 C 6.97 102.30 8.08 107.68 10.76 112.32 C 15.75 121.80 26.25 128.00 36.94 127.92 C 51.62 127.94 66.30 127.95 80.98 127.91 C 91.98 128.02 102.74 121.52 107.61 111.63 C 110.42 106.59 111.11 100.72 110.94 95.04 C 110.90 77.37 110.97 59.70 110.91 42.03 C 111.04 32.02 105.63 22.15 97.16 16.84 C 91.84 13.28 85.36 11.87 79.01 12.06 C 63.76 12.25 48.48 11.72 33.24 12.34 Z" />
</g>
<g id="#f8fcf8ff">
<path fill="#f8fcf8" opacity="1.00" d=" M 57.39 28.54 C 58.33 27.47 60.28 27.82 61.04 28.96 C 68.66 36.69 76.41 44.31 84.01 52.07 C 83.91 52.67 83.72 53.89 83.62 54.50 C 80.18 54.63 75.64 56.01 73.16 52.84 C 68.44 48.09 63.75 43.32 58.99 38.61 C 54.24 43.35 49.49 48.07 44.80 52.87 C 42.43 56.06 38.08 54.33 34.75 54.83 C 34.44 53.91 34.16 52.97 33.90 52.03 C 41.80 44.26 49.53 36.34 57.39 28.54 M 38.11 51.84 C 38.98 51.83 40.72 51.80 41.59 51.79 C 46.75 46.47 52.04 41.26 57.27 36.00 C 58.14 34.90 60.00 35.03 60.84 36.13 C 66.03 41.36 71.29 46.51 76.42 51.80 C 77.57 51.80 78.72 51.80 79.87 51.80 C 72.64 45.19 65.99 37.95 58.98 31.11 C 52.00 37.99 45.28 45.15 38.11 51.84 Z" />
<path fill="#f8fcf8" opacity="1.00" d=" M 57.15 43.01 C 57.99 41.82 60.00 41.85 60.84 43.02 C 65.17 47.47 69.54 51.88 73.82 56.38 C 75.11 57.56 74.86 59.42 74.89 60.99 C 74.79 65.97 74.98 70.95 74.81 75.93 C 73.57 78.50 70.21 77.20 67.99 77.54 C 66.07 77.33 63.11 78.25 62.19 75.91 C 62.01 72.55 62.18 69.19 62.16 65.83 C 60.29 65.84 58.41 65.83 56.53 65.78 C 56.45 69.29 56.78 72.82 56.41 76.32 C 56.14 76.59 55.60 77.13 55.33 77.40 C 52.01 77.64 48.66 77.53 45.33 77.47 C 44.11 77.48 42.88 76.28 43.13 75.00 C 43.13 69.67 43.11 64.33 43.14 58.99 C 43.05 57.70 43.83 56.61 44.71 55.76 C 48.86 51.52 52.99 47.25 57.15 43.01 M 47.84 56.87 C 47.08 57.75 45.79 58.54 46.13 59.91 C 46.12 64.79 46.15 69.67 46.13 74.55 C 48.65 74.46 51.18 74.40 53.69 74.67 C 53.75 70.93 52.81 66.90 54.28 63.38 C 57.50 62.26 61.33 62.82 64.73 63.28 C 65.47 66.99 65.03 70.78 65.12 74.53 C 67.37 74.48 69.63 74.48 71.88 74.53 C 71.68 69.18 72.20 63.76 71.64 58.46 C 67.44 54.12 63.17 49.83 58.98 45.46 C 55.28 49.28 51.62 53.13 47.84 56.87 Z" />
</g>
</svg>
