<?xml version="1.0" encoding="UTF-8" ?>
<!DOCTYPE svg PUBLIC "-//W3C//DTD SVG 1.1//EN" "http://www.w3.org/Graphics/SVG/1.1/DTD/svg11.dtd">
<svg width="150pt" height="80pt" viewBox="0 0 150 80" version="1.1" xmlns="http://www.w3.org/2000/svg">
<g id="#000000ff">
<path fill="#000000" opacity="1.00" d=" M 0.00 0.00 L 150.00 0.00 L 150.00 80.00 L 0.00 80.00 L 0.00 0.00 M 6.36 5.51 C 2.79 6.57 0.76 10.33 1.00 13.92 C 0.95 30.63 1.06 47.34 0.95 64.04 C 0.95 67.03 0.96 70.47 3.35 72.65 C 5.27 74.75 8.26 75.05 10.93 75.03 C 51.29 74.97 91.64 75.00 132.00 75.02 C 135.87 74.92 139.83 75.42 143.64 74.52 C 147.21 73.45 149.22 69.67 149.00 66.08 C 149.05 49.38 148.93 32.66 149.05 15.95 C 149.00 13.19 149.10 10.05 147.12 7.86 C 145.21 5.44 141.97 4.90 139.07 4.97 C 98.71 5.03 58.36 5.00 18.00 4.98 C 14.13 5.09 10.16 4.56 6.36 5.51 Z" />
<path fill="#000000" opacity="1.00" d=" M 7.30 7.33 C 10.83 6.70 14.44 7.06 18.00 6.99 C 58.36 7.00 98.72 7.01 139.07 6.99 C 141.21 7.05 143.66 7.09 145.27 8.73 C 147.15 10.62 146.95 13.49 147.03 15.95 C 146.95 32.65 147.05 49.36 146.99 66.06 C 147.18 68.89 145.71 72.07 142.72 72.69 C 139.51 73.25 136.23 72.96 132.99 73.01 C 92.30 72.99 51.61 72.98 10.93 73.02 C 8.56 73.02 5.79 72.82 4.29 70.71 C 2.83 68.82 3.07 66.29 2.97 64.06 C 3.06 47.35 2.95 30.64 3.02 13.93 C 2.85 11.12 4.32 7.95 7.30 7.33 M 42.00 28.00 C 42.00 35.33 42.00 42.67 42.00 50.00 C 49.00 50.00 56.00 50.00 63.00 50.00 C 63.00 42.67 63.00 35.33 63.00 28.00 C 56.00 28.00 49.00 28.00 42.00 28.00 Z" />
</g>
<g id="#6e726eff">
<path fill="#6e726e" opacity="1.00" d=" M 6.36 5.51 C 10.16 4.56 14.13 5.09 18.00 4.98 C 58.36 5.00 98.71 5.03 139.07 4.97 C 141.97 4.90 145.21 5.44 147.12 7.86 C 149.10 10.05 149.00 13.19 149.05 15.95 C 148.93 32.66 149.05 49.38 149.00 66.08 C 149.22 69.67 147.21 73.45 143.64 74.52 C 139.83 75.42 135.87 74.92 132.00 75.02 C 91.64 75.00 51.29 74.97 10.93 75.03 C 8.26 75.05 5.27 74.75 3.35 72.65 C 0.96 70.47 0.95 67.03 0.95 64.04 C 1.06 47.34 0.95 30.63 1.00 13.92 C 0.76 10.33 2.79 6.57 6.36 5.51 M 7.30 7.33 C 4.32 7.95 2.85 11.12 3.02 13.93 C 2.95 30.64 3.06 47.35 2.97 64.06 C 3.07 66.29 2.83 68.82 4.29 70.71 C 5.79 72.82 8.56 73.02 10.93 73.02 C 51.61 72.98 92.30 72.99 132.99 73.01 C 136.23 72.96 139.51 73.25 142.72 72.69 C 145.71 72.07 147.18 68.89 146.99 66.06 C 147.05 49.36 146.95 32.65 147.03 15.95 C 146.95 13.49 147.15 10.62 145.27 8.73 C 143.66 7.09 141.21 7.05 139.07 6.99 C 98.72 7.01 58.36 7.00 18.00 6.99 C 14.44 7.06 10.83 6.70 7.30 7.33 Z" />
</g>
<g id="#f8fcf8ff">
<path fill="#f8fcf8" opacity="1.00" d=" M 42.00 28.00 C 49.00 28.00 56.00 28.00 63.00 28.00 C 63.00 35.33 63.00 42.67 63.00 50.00 C 56.00 50.00 49.00 50.00 42.00 50.00 C 42.00 42.67 42.00 35.33 42.00 28.00 Z" />
</g>
</svg>
