<?xml version="1.0" encoding="UTF-8" ?>
<!DOCTYPE svg PUBLIC "-//W3C//DTD SVG 1.1//EN" "http://www.w3.org/Graphics/SVG/1.1/DTD/svg11.dtd">
<svg width="117px" height="140px" viewBox="0 0 117 140" version="1.1" xmlns="http://www.w3.org/2000/svg">
<g id="#000000ff">
<path fill="#000000" opacity="1.00" d=" M 0.00 0.00 L 117.00 0.00 L 117.00 140.00 L 0.00 140.00 L 0.00 0.00 M 32.34 10.39 C 17.44 12.25 5.21 25.92 5.05 40.95 C 4.84 57.29 5.10 73.65 4.96 90.00 C 4.96 95.85 4.67 101.86 6.46 107.52 C 9.26 116.65 16.38 124.29 25.27 127.76 C 30.23 129.85 35.69 130.10 41.00 130.06 C 53.00 129.98 65.00 129.98 77.00 130.06 C 82.31 130.10 87.76 129.85 92.73 127.77 C 101.88 124.19 109.14 116.20 111.78 106.74 C 113.23 101.63 113.04 96.26 113.05 91.00 C 112.92 74.64 113.10 58.29 112.99 41.93 C 113.03 30.90 106.93 20.09 97.38 14.54 C 90.74 10.31 82.66 9.68 74.99 9.94 C 60.78 10.32 46.52 9.40 32.34 10.39 Z" />
<path fill="#000000" opacity="1.00" d=" M 32.34 12.42 C 47.19 11.44 62.12 12.32 77.00 11.97 C 84.71 11.65 92.78 13.14 99.00 17.98 C 106.47 23.49 111.03 32.65 110.98 41.93 C 111.06 59.28 110.91 76.64 111.03 93.99 C 111.15 100.03 110.65 106.29 107.70 111.69 C 102.81 121.58 92.07 128.04 81.07 127.96 C 66.70 128.04 52.32 127.97 37.95 128.00 C 30.49 128.10 22.98 125.64 17.35 120.69 C 10.84 115.11 6.98 106.64 7.02 98.07 C 6.95 80.38 7.08 62.68 6.97 44.99 C 6.91 39.79 7.37 34.44 9.65 29.68 C 13.64 20.57 22.48 13.81 32.34 12.42 M 41.52 47.15 C 43.42 47.89 45.32 48.62 47.23 49.34 C 47.98 47.91 48.72 46.47 49.46 45.03 C 50.10 47.83 50.89 50.60 51.80 53.33 C 53.52 52.70 55.23 52.04 56.92 51.33 C 56.70 49.08 56.54 46.83 56.51 44.57 C 59.69 46.55 57.72 50.05 57.40 52.90 C 60.80 52.96 64.21 53.05 67.61 53.10 C 67.28 57.63 68.73 62.68 66.08 66.74 C 65.48 62.58 65.57 58.37 65.63 54.19 C 61.15 54.15 56.68 54.15 52.20 54.19 C 52.14 59.11 52.15 64.02 52.17 68.94 C 55.94 68.99 59.71 69.00 63.48 69.08 C 65.00 71.64 67.37 73.70 70.50 72.44 C 74.73 72.04 73.92 67.05 74.04 64.04 C 73.69 57.97 75.03 51.55 72.63 45.78 C 73.60 45.37 74.58 44.96 75.55 44.55 C 75.62 42.90 75.67 41.24 75.70 39.58 C 70.66 39.52 65.71 38.53 60.79 37.52 C 60.09 39.27 59.40 41.02 58.73 42.77 C 58.67 42.01 58.56 40.48 58.50 39.72 C 54.14 39.45 49.87 38.45 45.65 37.41 C 44.23 40.64 42.91 43.91 41.52 47.15 M 44.16 49.67 C 44.16 57.23 44.16 64.79 44.16 72.35 C 46.27 72.38 48.39 72.40 50.50 72.41 C 50.67 64.81 50.74 57.19 50.45 49.59 C 48.36 49.59 46.26 49.62 44.16 49.67 Z" />
<path fill="#000000" opacity="1.00" d=" M 64.14 45.40 C 65.55 44.25 67.42 46.63 65.85 47.65 C 64.43 48.79 62.56 46.42 64.14 45.40 Z" />
<path fill="#000000" opacity="1.00" d=" M 58.27 64.03 C 61.27 62.50 58.42 67.36 58.27 64.03 Z" />
</g>
<g id="#747474ff">
<path fill="#747474" opacity="1.00" d=" M 32.34 10.39 C 46.52 9.40 60.78 10.32 74.99 9.94 C 82.66 9.68 90.74 10.31 97.38 14.54 C 106.93 20.09 113.03 30.90 112.99 41.93 C 113.10 58.29 112.92 74.64 113.05 91.00 C 113.04 96.26 113.23 101.63 111.78 106.74 C 109.14 116.20 101.88 124.19 92.73 127.77 C 87.76 129.85 82.31 130.10 77.00 130.06 C 65.00 129.98 53.00 129.98 41.00 130.06 C 35.69 130.10 30.23 129.85 25.27 127.76 C 16.38 124.29 9.26 116.65 6.46 107.52 C 4.67 101.86 4.96 95.85 4.96 90.00 C 5.10 73.65 4.84 57.29 5.05 40.95 C 5.21 25.92 17.44 12.25 32.34 10.39 M 32.34 12.42 C 22.48 13.81 13.64 20.57 9.65 29.68 C 7.37 34.44 6.91 39.79 6.97 44.99 C 7.08 62.68 6.95 80.38 7.02 98.07 C 6.98 106.64 10.84 115.11 17.35 120.69 C 22.98 125.64 30.49 128.10 37.95 128.00 C 52.32 127.97 66.70 128.04 81.07 127.96 C 92.07 128.04 102.81 121.58 107.70 111.69 C 110.65 106.29 111.15 100.03 111.03 93.99 C 110.91 76.64 111.06 59.28 110.98 41.93 C 111.03 32.65 106.47 23.49 99.00 17.98 C 92.78 13.14 84.71 11.65 77.00 11.97 C 62.12 12.32 47.19 11.44 32.34 12.42 Z" />
<path fill="#747474" opacity="1.00" d=" M 58.26 58.19 C 61.23 56.63 58.42 61.52 58.26 58.19 Z" />
</g>
<g id="#f8fcf8ff">
<path fill="#f8fcf8" opacity="1.00" d=" M 41.52 47.15 C 42.91 43.91 44.23 40.64 45.65 37.41 C 49.87 38.45 54.14 39.45 58.50 39.72 C 58.56 40.48 58.67 42.01 58.73 42.77 C 59.40 41.02 60.09 39.27 60.79 37.52 C 65.71 38.53 70.66 39.52 75.70 39.58 C 75.67 41.24 75.62 42.90 75.55 44.55 C 74.58 44.96 73.60 45.37 72.63 45.78 C 75.03 51.55 73.69 57.97 74.04 64.04 C 73.92 67.05 74.73 72.04 70.50 72.44 C 67.37 73.70 65.00 71.64 63.48 69.08 C 59.71 69.00 55.94 68.99 52.17 68.94 C 52.15 64.02 52.14 59.11 52.20 54.19 C 56.68 54.15 61.15 54.15 65.63 54.19 C 65.57 58.37 65.48 62.58 66.08 66.74 C 68.73 62.68 67.28 57.63 67.61 53.10 C 64.21 53.05 60.80 52.96 57.40 52.90 C 57.72 50.05 59.69 46.55 56.51 44.57 C 56.54 46.83 56.70 49.08 56.92 51.33 C 55.23 52.04 53.52 52.70 51.80 53.33 C 50.89 50.60 50.10 47.83 49.46 45.03 C 48.72 46.47 47.98 47.91 47.23 49.34 C 45.32 48.62 43.42 47.89 41.52 47.15 M 64.14 45.40 C 62.56 46.42 64.43 48.79 65.85 47.65 C 67.42 46.63 65.55 44.25 64.14 45.40 M 58.26 58.19 C 58.42 61.52 61.23 56.63 58.26 58.19 M 58.27 64.03 C 58.42 67.36 61.27 62.50 58.27 64.03 Z" />
<path fill="#f8fcf8" opacity="1.00" d=" M 44.16 49.67 C 46.26 49.62 48.36 49.59 50.45 49.59 C 50.74 57.19 50.67 64.81 50.50 72.41 C 48.39 72.40 46.27 72.38 44.16 72.35 C 44.16 64.79 44.16 57.23 44.16 49.67 Z" />
</g>
</svg>
