<?xml version="1.0" encoding="UTF-8" ?>
<!DOCTYPE svg PUBLIC "-//W3C//DTD SVG 1.1//EN" "http://www.w3.org/Graphics/SVG/1.1/DTD/svg11.dtd">
<svg width="150pt" height="80pt" viewBox="0 0 150 80" version="1.1" xmlns="http://www.w3.org/2000/svg">
<g id="#000000ff">
<path fill="#000000" opacity="1.00" d=" M 0.00 0.00 L 150.00 0.00 L 150.00 80.00 L 0.00 80.00 L 0.00 0.00 M 6.36 5.51 C 2.81 6.62 0.75 10.32 1.01 13.93 C 0.94 30.63 1.08 47.33 0.95 64.03 C 1.00 67.01 0.93 70.48 3.36 72.64 C 5.25 74.80 8.27 75.00 10.95 75.03 C 53.65 74.98 96.35 74.98 139.05 75.03 C 141.73 75.02 144.72 74.74 146.64 72.63 C 149.08 70.48 148.98 67.00 149.05 64.03 C 148.97 48.01 148.97 31.99 149.05 15.97 C 148.99 13.00 149.10 9.51 146.64 7.37 C 144.71 5.28 141.73 4.97 139.05 4.97 C 99.04 5.04 59.02 4.99 19.00 4.99 C 14.79 5.09 10.49 4.54 6.36 5.51 Z" />
<path fill="#000000" opacity="1.00" d=" M 7.30 7.36 C 11.49 6.62 15.77 7.07 20.00 7.00 C 57.00 7.00 94.00 7.01 131.00 6.99 C 135.14 7.08 139.40 6.52 143.46 7.58 C 146.51 8.58 147.05 12.16 147.02 14.94 C 147.02 31.30 146.94 47.67 147.06 64.04 C 146.95 66.50 147.23 69.41 145.27 71.27 C 143.70 73.00 141.20 72.94 139.06 73.04 C 96.35 72.97 53.64 72.99 10.94 73.03 C 8.80 72.94 6.33 72.93 4.77 71.22 C 2.85 69.38 3.08 66.48 2.95 64.04 C 3.05 47.67 2.98 31.30 2.98 14.94 C 2.79 11.88 3.86 8.04 7.30 7.36 M 42.03 28.96 C 42.24 36.52 41.41 44.16 42.42 51.65 C 44.09 52.24 45.87 51.80 47.57 51.68 C 47.86 44.15 47.60 36.62 47.75 29.09 C 45.85 29.05 43.94 29.01 42.03 28.96 M 52.93 28.89 C 51.35 33.78 52.16 38.96 51.96 44.00 C 52.12 46.60 51.53 49.55 53.12 51.83 C 57.99 48.66 61.90 44.19 65.84 39.96 C 61.99 35.78 57.46 32.30 52.93 28.89 Z" />
</g>
<g id="#707470ff">
<path fill="#707470" opacity="1.00" d=" M 6.36 5.51 C 10.49 4.54 14.79 5.09 19.00 4.99 C 59.02 4.99 99.04 5.04 139.05 4.97 C 141.73 4.97 144.71 5.28 146.64 7.37 C 149.10 9.51 148.99 13.00 149.05 15.97 C 148.97 31.99 148.97 48.01 149.05 64.03 C 148.98 67.00 149.08 70.48 146.64 72.63 C 144.72 74.74 141.73 75.02 139.05 75.03 C 96.35 74.98 53.65 74.98 10.95 75.03 C 8.27 75.00 5.25 74.80 3.36 72.64 C 0.93 70.48 1.00 67.01 0.95 64.03 C 1.08 47.33 0.94 30.63 1.01 13.93 C 0.75 10.32 2.81 6.62 6.36 5.51 M 7.30 7.36 C 3.86 8.04 2.79 11.88 2.98 14.94 C 2.98 31.30 3.05 47.67 2.95 64.04 C 3.08 66.48 2.85 69.38 4.77 71.22 C 6.33 72.93 8.80 72.94 10.94 73.03 C 53.64 72.99 96.35 72.97 139.06 73.04 C 141.20 72.94 143.70 73.00 145.27 71.27 C 147.23 69.41 146.95 66.50 147.06 64.04 C 146.94 47.67 147.02 31.30 147.02 14.94 C 147.05 12.16 146.51 8.58 143.46 7.58 C 139.40 6.52 135.14 7.08 131.00 6.99 C 94.00 7.01 57.00 7.00 20.00 7.00 C 15.77 7.07 11.49 6.62 7.30 7.36 Z" />
</g>
<g id="#f8fcf8ff">
<path fill="#f8fcf8" opacity="1.00" d=" M 42.03 28.96 C 43.94 29.01 45.85 29.05 47.75 29.09 C 47.60 36.62 47.86 44.15 47.57 51.68 C 45.87 51.80 44.09 52.24 42.42 51.65 C 41.41 44.16 42.24 36.52 42.03 28.96 Z" />
<path fill="#f8fcf8" opacity="1.00" d=" M 52.93 28.89 C 57.46 32.30 61.99 35.78 65.84 39.96 C 61.90 44.19 57.99 48.66 53.12 51.83 C 51.53 49.55 52.12 46.60 51.96 44.00 C 52.16 38.96 51.35 33.78 52.93 28.89 Z" />
</g>
</svg>
