<?xml version="1.0" encoding="UTF-8" ?>
<!DOCTYPE svg PUBLIC "-//W3C//DTD SVG 1.1//EN" "http://www.w3.org/Graphics/SVG/1.1/DTD/svg11.dtd">
<svg width="117px" height="140px" viewBox="0 0 117 140" version="1.1" xmlns="http://www.w3.org/2000/svg">
<g id="#000000ff">
<path fill="#000000" opacity="1.00" d=" M 0.00 0.00 L 117.00 0.00 L 117.00 140.00 L 0.00 140.00 L 0.00 0.00 M 33.17 10.20 C 17.92 11.78 5.17 25.61 5.01 40.96 C 4.99 60.32 4.99 79.69 5.01 99.05 C 5.16 115.01 18.99 129.28 34.93 129.94 C 50.61 130.07 66.30 129.98 81.99 129.99 C 97.99 129.88 112.31 116.00 112.95 100.02 C 113.08 80.66 112.95 61.31 113.01 41.95 C 113.08 33.33 109.36 24.79 103.11 18.88 C 97.02 12.96 88.48 9.73 80.00 9.98 C 64.39 10.16 48.76 9.71 33.17 10.20 Z" />
<path fill="#000000" opacity="1.00" d=" M 33.23 12.36 C 48.80 11.71 64.42 12.25 80.00 12.07 C 90.56 11.77 101.16 17.31 106.52 26.49 C 109.61 31.40 111.04 37.23 110.92 43.01 C 110.92 61.33 110.96 79.65 110.90 97.97 C 110.99 108.67 104.82 119.22 95.32 124.21 C 90.39 127.05 84.62 128.04 78.98 127.94 C 64.29 127.83 49.59 128.09 34.91 127.81 C 20.11 127.11 7.32 113.91 7.13 99.09 C 7.03 79.74 7.04 60.38 7.13 41.02 C 7.30 26.78 19.06 13.84 33.23 12.36 M 46.06 28.18 C 46.05 34.02 46.20 39.87 45.99 45.71 C 43.68 45.67 41.37 45.67 39.07 45.72 C 39.37 50.36 38.86 55.04 39.35 59.67 C 41.39 63.12 46.18 61.25 49.45 61.61 C 52.47 64.42 55.30 67.42 58.32 70.23 C 54.66 70.41 50.99 70.26 47.33 70.35 C 47.39 72.90 47.39 75.45 47.33 78.00 C 55.25 77.93 63.17 78.13 71.08 77.92 C 72.56 77.33 71.35 75.50 70.14 75.74 C 63.47 75.58 56.79 75.73 50.12 75.68 C 50.09 75.03 50.04 73.74 50.02 73.10 C 53.62 73.04 57.23 73.05 60.83 72.93 C 60.85 72.22 60.88 70.79 60.89 70.07 C 63.30 67.78 65.62 65.40 67.98 63.05 C 70.90 59.53 77.10 64.02 79.63 59.75 C 80.16 55.10 79.62 50.39 79.93 45.72 C 77.61 45.68 75.28 45.67 72.96 45.69 C 72.86 39.86 72.91 34.02 72.95 28.19 C 63.99 28.13 55.02 28.15 46.06 28.18 Z" />
<path fill="#000000" opacity="1.00" d=" M 48.76 31.04 C 55.92 31.04 63.08 30.99 70.24 31.03 C 70.21 36.78 70.36 42.53 70.14 48.27 C 72.39 48.32 74.64 48.33 76.89 48.30 C 76.98 51.84 76.91 55.38 76.97 58.92 C 65.33 59.00 53.69 59.00 42.05 58.93 C 42.07 55.40 42.07 51.87 42.05 48.34 C 48.77 48.28 55.50 48.35 62.22 48.32 C 62.22 47.66 62.22 46.34 62.22 45.68 C 57.70 45.63 53.19 45.78 48.67 45.58 C 48.70 43.87 48.71 42.15 48.69 40.43 C 53.20 40.19 57.71 40.38 62.22 40.32 C 62.22 39.66 62.22 38.34 62.22 37.68 C 57.74 37.69 53.26 37.63 48.77 37.73 C 48.75 35.50 48.75 33.27 48.76 31.04 Z" />
<path fill="#000000" opacity="1.00" d=" M 53.29 61.68 C 57.44 61.68 61.59 61.67 65.75 61.70 C 63.66 63.73 61.55 65.73 59.53 67.82 C 57.46 65.76 55.33 63.76 53.29 61.68 Z" />
</g>
<g id="#6e6f6eff">
<path fill="#6e6f6e" opacity="1.00" d=" M 33.17 10.20 C 48.76 9.71 64.39 10.16 80.00 9.98 C 88.48 9.73 97.02 12.96 103.11 18.88 C 109.36 24.79 113.08 33.33 113.01 41.95 C 112.95 61.31 113.08 80.66 112.95 100.02 C 112.31 116.00 97.99 129.88 81.99 129.99 C 66.30 129.98 50.61 130.07 34.93 129.94 C 18.99 129.28 5.16 115.01 5.01 99.05 C 4.99 79.69 4.99 60.32 5.01 40.96 C 5.17 25.61 17.92 11.78 33.17 10.20 M 33.23 12.36 C 19.06 13.84 7.30 26.78 7.13 41.02 C 7.04 60.38 7.03 79.74 7.13 99.09 C 7.32 113.91 20.11 127.11 34.91 127.81 C 49.59 128.09 64.29 127.83 78.98 127.94 C 84.62 128.04 90.39 127.05 95.32 124.21 C 104.82 119.22 110.99 108.67 110.90 97.97 C 110.96 79.65 110.92 61.33 110.92 43.01 C 111.04 37.23 109.61 31.40 106.52 26.49 C 101.16 17.31 90.56 11.77 80.00 12.07 C 64.42 12.25 48.80 11.71 33.23 12.36 Z" />
</g>
<g id="#f6faf6ff">
<path fill="#f6faf6" opacity="1.00" d=" M 46.06 28.18 C 55.02 28.15 63.99 28.13 72.95 28.19 C 72.91 34.02 72.86 39.86 72.96 45.69 C 75.28 45.67 77.61 45.68 79.93 45.72 C 79.62 50.39 80.16 55.10 79.63 59.75 C 77.10 64.02 70.90 59.53 67.98 63.05 C 65.62 65.40 63.30 67.78 60.89 70.07 C 60.88 70.79 60.85 72.22 60.83 72.93 C 57.23 73.05 53.62 73.04 50.02 73.10 C 50.04 73.74 50.09 75.03 50.12 75.68 C 56.79 75.73 63.47 75.58 70.14 75.74 C 71.35 75.50 72.56 77.33 71.08 77.92 C 63.17 78.13 55.25 77.93 47.33 78.00 C 47.39 75.45 47.39 72.90 47.33 70.35 C 50.99 70.26 54.66 70.41 58.32 70.23 C 55.30 67.42 52.47 64.42 49.45 61.61 C 46.18 61.25 41.39 63.12 39.35 59.67 C 38.86 55.04 39.37 50.36 39.07 45.72 C 41.37 45.67 43.68 45.67 45.99 45.71 C 46.20 39.87 46.05 34.02 46.06 28.18 M 48.76 31.04 C 48.75 33.27 48.75 35.50 48.77 37.73 C 53.26 37.63 57.74 37.69 62.22 37.68 C 62.22 38.34 62.22 39.66 62.22 40.32 C 57.71 40.38 53.20 40.19 48.69 40.43 C 48.71 42.15 48.70 43.87 48.67 45.58 C 53.19 45.78 57.70 45.63 62.22 45.68 C 62.22 46.34 62.22 47.66 62.22 48.32 C 55.50 48.35 48.77 48.28 42.05 48.34 C 42.07 51.87 42.07 55.40 42.05 58.93 C 53.69 59.00 65.33 59.00 76.97 58.92 C 76.91 55.38 76.98 51.84 76.89 48.30 C 74.64 48.33 72.39 48.32 70.14 48.27 C 70.36 42.53 70.21 36.78 70.24 31.03 C 63.08 30.99 55.92 31.04 48.76 31.04 M 53.29 61.68 C 55.33 63.76 57.46 65.76 59.53 67.82 C 61.55 65.73 63.66 63.73 65.75 61.70 C 61.59 61.67 57.44 61.68 53.29 61.68 Z" />
</g>
</svg>
