<?xml version="1.0" encoding="UTF-8" ?>
<!DOCTYPE svg PUBLIC "-//W3C//DTD SVG 1.1//EN" "http://www.w3.org/Graphics/SVG/1.1/DTD/svg11.dtd">
<svg width="117pt" height="140pt" viewBox="0 0 117 140" version="1.1" xmlns="http://www.w3.org/2000/svg">
<g id="#000000ff">
<path fill="#000000" opacity="1.00" d=" M 0.00 0.00 L 117.00 0.00 L 117.00 140.00 L 0.00 140.00 L 0.00 0.00 M 32.33 10.34 C 17.43 12.26 5.22 25.91 5.00 40.93 C 4.98 60.31 4.98 79.69 5.01 99.07 C 5.15 115.38 19.63 129.83 35.93 129.99 C 51.31 130.02 66.69 130.03 82.07 129.99 C 98.36 129.83 112.87 115.38 112.99 99.07 C 113.04 80.03 112.98 60.99 113.02 41.96 C 113.18 29.37 105.04 17.26 93.41 12.51 C 85.10 8.74 75.81 10.30 67.00 9.99 C 55.45 10.22 43.85 9.53 32.33 10.34 Z" />
<path fill="#000000" opacity="1.00" d=" M 32.33 12.40 C 48.19 11.52 64.14 12.25 80.03 12.01 C 90.37 11.68 100.71 16.99 106.22 25.78 C 109.29 30.58 111.03 36.24 110.98 41.95 C 111.00 60.65 111.00 79.35 110.98 98.05 C 111.14 110.09 103.19 121.70 91.91 125.91 C 85.29 128.68 77.99 127.88 71.00 127.99 C 58.98 127.92 46.96 128.13 34.94 127.89 C 20.07 127.23 7.21 113.96 7.05 99.07 C 6.98 79.69 6.98 60.31 7.05 40.93 C 7.26 26.98 18.51 14.30 32.33 12.40 M 40.73 42.84 C 38.71 43.89 35.83 44.72 35.98 47.53 C 39.28 49.62 43.24 48.88 46.92 48.96 C 47.00 50.67 47.08 52.38 47.19 54.09 C 56.06 54.37 64.94 54.38 73.81 54.09 C 73.92 52.38 74.00 50.67 74.07 48.97 C 77.77 48.90 81.70 49.54 85.03 47.52 C 85.06 44.16 81.22 43.58 78.93 42.18 C 72.56 39.28 66.68 34.86 60.06 32.82 C 53.41 35.73 47.31 39.76 40.73 42.84 M 47.03 55.99 C 47.05 57.35 47.08 58.72 47.11 60.09 C 56.01 60.58 64.99 60.58 73.89 60.09 C 73.92 58.72 73.95 57.35 73.97 55.98 C 69.71 55.00 65.32 55.65 61.00 55.48 C 56.35 55.68 51.61 54.96 47.03 55.99 M 47.11 61.96 C 47.11 63.22 47.11 64.47 47.12 65.73 C 56.04 65.90 64.96 65.90 73.88 65.73 C 73.89 64.47 73.89 63.21 73.89 61.96 C 64.98 61.55 56.02 61.54 47.11 61.96 M 47.17 67.16 C 47.15 67.89 47.11 69.35 47.09 70.08 C 56.03 70.23 64.97 70.24 73.91 70.08 C 73.89 69.35 73.85 67.89 73.83 67.16 C 64.95 66.94 56.05 66.94 47.17 67.16 M 46.73 73.05 C 51.43 73.94 56.25 73.36 61.00 73.51 C 65.43 73.39 69.90 73.90 74.28 73.05 C 74.10 72.57 73.73 71.62 73.55 71.15 C 66.43 70.36 59.16 71.07 51.98 70.80 C 49.99 70.92 46.81 70.11 46.73 73.05 Z" />
<path fill="#000000" opacity="1.00" d=" M 60.18 37.31 C 65.51 38.95 70.08 42.60 75.22 44.81 C 73.50 44.87 71.78 44.90 70.06 44.97 C 69.99 46.69 69.95 48.41 69.91 50.13 C 63.64 50.14 57.36 50.14 51.09 50.13 C 51.05 48.41 51.00 46.68 50.94 44.96 C 49.23 44.90 47.52 44.87 45.81 44.82 C 50.62 42.35 55.25 39.53 60.18 37.31 Z" />
</g>
<g id="#6e6f6eff">
<path fill="#6e6f6e" opacity="1.00" d=" M 32.33 10.34 C 43.85 9.53 55.45 10.22 67.00 9.99 C 75.81 10.30 85.10 8.74 93.41 12.51 C 105.04 17.26 113.18 29.37 113.02 41.96 C 112.98 60.99 113.04 80.03 112.99 99.07 C 112.87 115.38 98.36 129.83 82.07 129.99 C 66.69 130.03 51.31 130.02 35.93 129.99 C 19.63 129.83 5.15 115.38 5.01 99.07 C 4.98 79.69 4.98 60.31 5.00 40.93 C 5.22 25.91 17.43 12.26 32.33 10.34 M 32.33 12.40 C 18.51 14.30 7.26 26.98 7.05 40.93 C 6.98 60.31 6.98 79.69 7.05 99.07 C 7.21 113.96 20.07 127.23 34.94 127.89 C 46.96 128.13 58.98 127.92 71.00 127.99 C 77.99 127.88 85.29 128.68 91.91 125.91 C 103.19 121.70 111.14 110.09 110.98 98.05 C 111.00 79.35 111.00 60.65 110.98 41.95 C 111.03 36.24 109.29 30.58 106.22 25.78 C 100.71 16.99 90.37 11.68 80.03 12.01 C 64.14 12.25 48.19 11.52 32.33 12.40 Z" />
</g>
<g id="#f8fcf8ff">
<path fill="#f8fcf8" opacity="1.00" d=" M 40.73 42.84 C 47.31 39.76 53.41 35.73 60.06 32.82 C 66.68 34.86 72.56 39.28 78.93 42.18 C 81.22 43.58 85.06 44.16 85.03 47.52 C 81.70 49.54 77.77 48.90 74.07 48.97 C 74.00 50.67 73.92 52.38 73.81 54.09 C 64.94 54.38 56.06 54.37 47.19 54.09 C 47.08 52.38 47.00 50.67 46.92 48.96 C 43.24 48.88 39.28 49.62 35.98 47.53 C 35.83 44.72 38.71 43.89 40.73 42.84 M 60.18 37.31 C 55.25 39.53 50.62 42.35 45.81 44.82 C 47.52 44.87 49.23 44.90 50.94 44.96 C 51.00 46.68 51.05 48.41 51.09 50.13 C 57.36 50.14 63.64 50.14 69.91 50.13 C 69.95 48.41 69.99 46.69 70.06 44.97 C 71.78 44.90 73.50 44.87 75.22 44.81 C 70.08 42.60 65.51 38.95 60.18 37.31 Z" />
<path fill="#f8fcf8" opacity="1.00" d=" M 47.03 55.99 C 51.61 54.96 56.35 55.68 61.00 55.48 C 65.32 55.65 69.71 55.00 73.97 55.98 C 73.95 57.35 73.92 58.72 73.89 60.09 C 64.99 60.58 56.01 60.58 47.11 60.09 C 47.08 58.72 47.05 57.35 47.03 55.99 Z" />
<path fill="#f8fcf8" opacity="1.00" d=" M 47.11 61.96 C 56.02 61.54 64.98 61.55 73.89 61.96 C 73.89 63.21 73.89 64.47 73.88 65.73 C 64.96 65.90 56.04 65.90 47.12 65.73 C 47.11 64.47 47.11 63.22 47.11 61.96 Z" />
<path fill="#f8fcf8" opacity="1.00" d=" M 47.17 67.16 C 56.05 66.94 64.95 66.94 73.83 67.16 C 73.85 67.89 73.89 69.35 73.91 70.08 C 64.97 70.24 56.03 70.23 47.09 70.08 C 47.11 69.35 47.15 67.89 47.17 67.16 Z" />
<path fill="#f8fcf8" opacity="1.00" d=" M 46.73 73.05 C 46.81 70.11 49.99 70.92 51.98 70.80 C 59.16 71.07 66.43 70.36 73.55 71.15 C 73.73 71.62 74.10 72.57 74.28 73.05 C 69.90 73.90 65.43 73.39 61.00 73.51 C 56.25 73.36 51.43 73.94 46.73 73.05 Z" />
</g>
</svg>
