<?xml version="1.0" encoding="UTF-8" ?>
<!DOCTYPE svg PUBLIC "-//W3C//DTD SVG 1.1//EN" "http://www.w3.org/Graphics/SVG/1.1/DTD/svg11.dtd">
<svg width="117px" height="140px" viewBox="0 0 117 140" version="1.1" xmlns="http://www.w3.org/2000/svg">
<g id="#000000ff">
<path fill="#000000" opacity="1.00" d=" M 0.00 0.00 L 117.00 0.00 L 117.00 140.00 L 0.00 140.00 L 0.00 0.00 M 33.20 10.23 C 17.93 11.77 5.18 25.65 5.03 41.02 C 4.98 60.34 4.98 79.67 5.03 98.99 C 5.16 114.95 18.96 129.24 34.91 129.91 C 50.26 130.11 65.63 129.95 80.99 129.99 C 89.62 130.04 98.18 126.37 104.11 120.09 C 110.01 114.00 113.26 105.50 113.01 97.02 C 112.93 78.01 113.12 58.98 112.92 39.97 C 112.28 24.00 97.98 10.17 82.00 10.03 C 65.74 10.10 49.45 9.72 33.20 10.23 Z" />
<path fill="#000000" opacity="1.00" d=" M 30.53 12.68 C 35.28 11.66 40.16 12.08 44.98 12.00 C 57.68 12.06 70.38 11.88 83.08 12.09 C 97.92 12.74 110.85 26.05 110.96 40.93 C 111.02 60.31 111.03 79.69 110.96 99.07 C 110.85 113.93 97.94 127.27 83.10 127.89 C 70.73 128.14 58.35 127.93 45.98 128.00 C 39.35 127.91 32.41 128.65 26.14 125.98 C 15.18 121.83 7.17 110.75 7.03 98.98 C 6.96 79.98 7.02 60.98 7.00 41.98 C 6.71 28.27 17.15 15.44 30.53 12.68 M 49.81 27.97 C 49.86 37.56 49.82 47.16 49.83 56.75 C 43.66 61.32 42.63 71.27 48.19 76.70 C 52.99 82.14 62.55 81.55 66.73 75.64 C 71.52 69.99 69.91 61.11 64.17 56.76 C 64.19 47.18 64.12 37.61 64.21 28.03 C 59.48 27.21 54.55 27.33 49.81 27.97 M 68.35 44.07 C 67.97 44.56 67.19 45.53 66.80 46.01 C 67.19 46.50 67.98 47.48 68.37 47.97 C 69.82 47.91 71.32 48.11 72.73 47.68 C 73.74 46.58 73.74 45.47 72.73 44.36 C 71.30 43.98 69.81 44.12 68.35 44.07 M 68.31 51.03 C 67.94 51.53 67.19 52.52 66.81 53.01 C 67.19 53.49 67.96 54.45 68.35 54.92 C 70.25 54.76 73.11 55.60 73.63 53.01 C 73.20 50.33 70.24 51.16 68.31 51.03 Z" />
<path fill="#000000" opacity="1.00" d=" M 53.37 31.21 C 55.79 31.27 58.21 31.27 60.63 31.21 C 60.13 40.36 60.61 49.53 60.36 58.68 C 64.66 60.91 67.06 66.35 65.16 70.93 C 63.61 76.30 56.39 78.43 51.98 75.15 C 46.23 71.24 47.41 61.58 53.63 58.70 C 53.40 49.54 53.87 40.36 53.37 31.21 M 54.99 44.00 C 54.95 49.31 55.26 54.63 55.06 59.95 C 53.17 61.73 50.31 63.08 49.94 65.97 C 48.62 71.16 54.50 76.83 59.58 74.52 C 62.17 72.99 64.63 70.30 64.18 67.05 C 64.36 63.65 61.16 61.86 58.94 59.96 C 58.74 54.64 59.04 49.32 59.01 44.00 C 57.67 44.00 56.33 44.00 54.99 44.00 Z" />
</g>
<g id="#747474ff">
<path fill="#747474" opacity="1.00" d=" M 33.20 10.23 C 49.45 9.72 65.74 10.10 82.00 10.03 C 97.98 10.17 112.28 24.00 112.92 39.97 C 113.12 58.98 112.93 78.01 113.01 97.02 C 113.26 105.50 110.01 114.00 104.11 120.09 C 98.18 126.37 89.62 130.04 80.99 129.99 C 65.63 129.95 50.26 130.11 34.91 129.91 C 18.96 129.24 5.16 114.95 5.03 98.99 C 4.98 79.67 4.98 60.34 5.03 41.02 C 5.18 25.65 17.93 11.77 33.20 10.23 M 30.53 12.68 C 17.15 15.44 6.71 28.27 7.00 41.98 C 7.02 60.98 6.96 79.98 7.03 98.98 C 7.17 110.75 15.18 121.83 26.14 125.98 C 32.41 128.65 39.35 127.91 45.98 128.00 C 58.35 127.93 70.73 128.14 83.10 127.89 C 97.94 127.27 110.85 113.93 110.96 99.07 C 111.03 79.69 111.02 60.31 110.96 40.93 C 110.85 26.05 97.92 12.74 83.08 12.09 C 70.38 11.88 57.68 12.06 44.98 12.00 C 40.16 12.08 35.28 11.66 30.53 12.68 Z" />
</g>
<g id="#f8fcf8ff">
<path fill="#f8fcf8" opacity="1.00" d=" M 49.81 27.97 C 54.55 27.33 59.48 27.21 64.21 28.03 C 64.12 37.61 64.19 47.18 64.17 56.76 C 69.91 61.11 71.52 69.99 66.73 75.64 C 62.55 81.55 52.99 82.14 48.19 76.70 C 42.63 71.27 43.66 61.32 49.83 56.75 C 49.82 47.16 49.86 37.56 49.81 27.97 M 53.37 31.21 C 53.87 40.36 53.40 49.54 53.63 58.70 C 47.41 61.58 46.23 71.24 51.98 75.15 C 56.39 78.43 63.61 76.30 65.16 70.93 C 67.06 66.35 64.66 60.91 60.36 58.68 C 60.61 49.53 60.13 40.36 60.63 31.21 C 58.21 31.27 55.79 31.27 53.37 31.21 Z" />
<path fill="#f8fcf8" opacity="1.00" d=" M 54.99 44.00 C 56.33 44.00 57.67 44.00 59.01 44.00 C 59.04 49.32 58.74 54.64 58.94 59.96 C 61.16 61.86 64.36 63.65 64.18 67.05 C 64.63 70.30 62.17 72.99 59.58 74.52 C 54.50 76.83 48.62 71.16 49.94 65.97 C 50.31 63.08 53.17 61.73 55.06 59.95 C 55.26 54.63 54.95 49.31 54.99 44.00 Z" />
<path fill="#f8fcf8" opacity="1.00" d=" M 68.35 44.07 C 69.81 44.12 71.30 43.98 72.73 44.36 C 73.74 45.47 73.74 46.58 72.73 47.68 C 71.32 48.11 69.82 47.91 68.37 47.97 C 67.98 47.48 67.19 46.50 66.80 46.01 C 67.19 45.53 67.97 44.56 68.35 44.07 Z" />
<path fill="#f8fcf8" opacity="1.00" d=" M 68.31 51.03 C 70.24 51.16 73.20 50.33 73.63 53.01 C 73.11 55.60 70.25 54.76 68.35 54.92 C 67.96 54.45 67.19 53.49 66.81 53.01 C 67.19 52.52 67.94 51.53 68.31 51.03 Z" />
</g>
</svg>
