<?xml version="1.0" encoding="UTF-8" ?>
<!DOCTYPE svg PUBLIC "-//W3C//DTD SVG 1.1//EN" "http://www.w3.org/Graphics/SVG/1.1/DTD/svg11.dtd">
<svg width="117px" height="140px" viewBox="0 0 117 140" version="1.1" xmlns="http://www.w3.org/2000/svg">
<g id="#000000ff">
<path fill="#000000" opacity="1.00" d=" M 0.00 0.00 L 117.00 0.00 L 117.00 140.00 L 0.00 140.00 L 0.00 0.00 M 44.69 32.21 C 44.10 37.87 45.33 43.49 48.54 48.21 C 47.90 48.37 46.61 48.67 45.97 48.82 C 45.64 49.31 44.99 50.30 44.66 50.79 C 43.83 58.14 48.67 64.09 51.52 70.40 C 53.48 74.07 55.07 79.34 59.95 79.81 C 65.48 80.46 67.82 74.56 69.76 70.51 C 72.48 64.23 77.39 58.31 76.66 51.08 C 76.32 49.22 74.47 48.46 72.84 48.09 C 75.83 43.35 77.19 37.85 76.74 32.25 C 70.54 31.61 64.18 31.46 58.00 32.20 C 53.62 31.29 49.11 31.94 44.69 32.21 Z" />
<path fill="#000000" opacity="1.00" d=" M 47.60 35.12 C 56.34 35.19 65.08 35.06 73.82 35.19 C 74.06 41.16 70.35 46.10 67.91 51.25 C 69.87 51.23 71.85 51.23 73.82 51.26 C 73.73 53.94 73.51 56.72 72.19 59.12 C 69.59 64.22 67.13 69.39 64.43 74.43 C 63.31 77.02 59.43 77.89 57.68 75.49 C 55.55 72.41 54.17 68.88 52.39 65.60 C 50.17 61.07 47.02 56.61 47.59 51.28 C 49.52 51.28 51.46 51.28 53.39 51.28 C 50.91 46.13 47.01 41.16 47.60 35.12 Z" />
</g>
<g id="#f7fbf7ff">
<path fill="#f7fbf7" opacity="1.00" d=" M 44.69 32.21 C 49.11 31.94 53.62 31.29 58.00 32.20 C 64.18 31.46 70.54 31.61 76.74 32.25 C 77.19 37.85 75.83 43.35 72.84 48.09 C 74.47 48.46 76.32 49.22 76.66 51.08 C 77.39 58.31 72.48 64.23 69.76 70.51 C 67.82 74.56 65.48 80.46 59.95 79.81 C 55.07 79.34 53.48 74.07 51.52 70.40 C 48.67 64.09 43.83 58.14 44.66 50.79 C 44.99 50.30 45.64 49.31 45.97 48.82 C 46.61 48.67 47.90 48.37 48.54 48.21 C 45.33 43.49 44.10 37.87 44.69 32.21 M 47.60 35.12 C 47.01 41.16 50.91 46.13 53.39 51.28 C 51.46 51.28 49.52 51.28 47.59 51.28 C 47.02 56.61 50.17 61.07 52.39 65.60 C 54.17 68.88 55.55 72.41 57.68 75.49 C 59.43 77.89 63.31 77.02 64.43 74.43 C 67.13 69.39 69.59 64.22 72.19 59.12 C 73.51 56.72 73.73 53.94 73.82 51.26 C 71.85 51.23 69.87 51.23 67.91 51.25 C 70.35 46.10 74.06 41.16 73.82 35.19 C 65.08 35.06 56.34 35.19 47.60 35.12 Z" />
</g>
</svg>
