<?xml version="1.0" encoding="UTF-8" ?>
<!DOCTYPE svg PUBLIC "-//W3C//DTD SVG 1.1//EN" "http://www.w3.org/Graphics/SVG/1.1/DTD/svg11.dtd">
<svg width="117px" height="140px" viewBox="0 0 117 140" version="1.1" xmlns="http://www.w3.org/2000/svg">
<g id="#000000ff">
<path fill="#000000" opacity="1.00" d=" M 0.00 0.00 L 117.00 0.00 L 117.00 140.00 L 0.00 140.00 L 0.00 0.00 M 33.12 10.24 C 17.92 11.82 5.22 25.62 5.04 40.93 C 4.97 60.31 4.98 79.70 5.03 99.09 C 5.20 115.36 19.60 129.79 35.88 129.96 C 51.28 130.03 66.68 130.04 82.08 129.95 C 98.38 129.82 112.84 115.34 112.96 99.05 C 113.05 80.04 112.98 61.03 112.99 42.02 C 113.06 32.88 108.91 23.85 102.00 17.89 C 95.75 12.33 87.28 9.63 78.97 9.98 C 63.69 10.19 48.39 9.66 33.12 10.24 Z" />
<path fill="#000000" opacity="1.00" d=" M 33.25 12.33 C 45.16 11.74 57.10 12.23 69.02 12.07 C 77.36 12.26 86.25 11.02 93.95 15.03 C 104.15 19.79 111.10 30.76 110.91 42.04 C 110.97 60.01 110.90 77.99 110.94 95.97 C 110.99 100.56 110.54 105.25 108.64 109.47 C 104.23 120.45 92.83 128.07 80.99 127.90 C 65.96 127.93 50.93 127.99 35.89 127.87 C 20.70 127.72 7.20 114.22 7.13 99.02 C 7.03 79.66 7.03 60.30 7.13 40.95 C 7.28 26.72 19.09 13.79 33.25 12.33 M 50.30 28.06 C 50.33 37.71 50.34 47.36 50.29 57.01 C 44.68 61.14 43.24 69.77 47.61 75.29 C 51.60 80.98 60.76 81.56 65.43 76.41 C 70.86 71.08 69.78 61.42 63.71 57.01 C 63.65 47.36 63.67 37.71 63.70 28.06 C 59.23 28.02 54.77 28.02 50.30 28.06 M 67.99 33.35 C 69.74 33.76 71.53 33.47 73.27 33.18 C 73.75 29.62 65.95 29.69 67.99 33.35 M 67.91 37.90 C 66.44 41.54 71.27 40.42 73.24 40.12 C 73.34 37.02 69.97 37.57 67.91 37.90 M 67.84 44.87 C 66.56 48.51 71.09 47.22 73.14 47.15 C 73.55 43.91 69.90 44.51 67.84 44.87 M 67.86 54.16 C 69.92 54.40 73.57 55.11 73.14 51.85 C 71.10 51.72 66.53 50.49 67.86 54.16 Z" />
<path fill="#000000" opacity="1.00" d=" M 52.93 30.77 C 55.64 30.77 58.34 30.77 61.05 30.77 C 60.98 40.07 60.99 49.36 61.06 58.66 C 66.21 61.44 68.13 68.76 64.38 73.45 C 61.06 78.45 52.91 78.44 49.60 73.43 C 45.87 68.73 47.82 61.47 52.92 58.64 C 53.16 49.35 52.97 40.06 52.93 30.77 M 55.65 46.75 C 55.69 51.32 55.67 55.89 55.70 60.46 C 51.55 61.82 48.78 66.81 51.13 70.82 C 53.17 75.21 59.91 75.72 62.43 71.52 C 65.47 67.58 62.78 61.83 58.30 60.47 C 58.33 55.90 58.31 51.32 58.35 46.75 C 57.67 46.75 56.33 46.75 55.65 46.75 Z" />
</g>
<g id="#747574ff">
<path fill="#747574" opacity="1.00" d=" M 33.12 10.24 C 48.39 9.66 63.69 10.19 78.97 9.98 C 87.28 9.63 95.75 12.33 102.00 17.89 C 108.91 23.85 113.06 32.88 112.99 42.02 C 112.98 61.03 113.05 80.04 112.96 99.05 C 112.84 115.34 98.38 129.82 82.08 129.95 C 66.68 130.04 51.28 130.03 35.88 129.96 C 19.60 129.79 5.20 115.36 5.03 99.09 C 4.98 79.70 4.97 60.31 5.04 40.93 C 5.22 25.62 17.92 11.82 33.12 10.24 M 33.25 12.33 C 19.09 13.79 7.28 26.72 7.13 40.95 C 7.03 60.30 7.03 79.66 7.13 99.02 C 7.20 114.22 20.70 127.72 35.89 127.87 C 50.93 127.99 65.96 127.93 80.99 127.90 C 92.83 128.07 104.23 120.45 108.64 109.47 C 110.54 105.25 110.99 100.56 110.94 95.97 C 110.90 77.99 110.97 60.01 110.91 42.04 C 111.10 30.76 104.15 19.79 93.95 15.03 C 86.25 11.02 77.36 12.26 69.02 12.07 C 57.10 12.23 45.16 11.74 33.25 12.33 Z" />
</g>
<g id="#f8fcf8ff">
<path fill="#f8fcf8" opacity="1.00" d=" M 50.30 28.06 C 54.77 28.02 59.23 28.02 63.70 28.06 C 63.67 37.71 63.65 47.36 63.71 57.01 C 69.78 61.42 70.86 71.08 65.43 76.41 C 60.76 81.56 51.60 80.98 47.61 75.29 C 43.24 69.77 44.68 61.14 50.29 57.01 C 50.34 47.36 50.33 37.71 50.30 28.06 M 52.93 30.77 C 52.97 40.06 53.16 49.35 52.92 58.64 C 47.82 61.47 45.87 68.73 49.60 73.43 C 52.91 78.44 61.06 78.45 64.38 73.45 C 68.13 68.76 66.21 61.44 61.06 58.66 C 60.99 49.36 60.98 40.07 61.05 30.77 C 58.34 30.77 55.64 30.77 52.93 30.77 Z" />
<path fill="#f8fcf8" opacity="1.00" d=" M 67.99 33.35 C 65.95 29.69 73.75 29.62 73.27 33.18 C 71.53 33.47 69.74 33.76 67.99 33.35 Z" />
<path fill="#f8fcf8" opacity="1.00" d=" M 67.91 37.90 C 69.97 37.57 73.34 37.02 73.24 40.12 C 71.27 40.42 66.44 41.54 67.91 37.90 Z" />
<path fill="#f8fcf8" opacity="1.00" d=" M 67.84 44.87 C 69.90 44.51 73.55 43.91 73.14 47.15 C 71.09 47.22 66.56 48.51 67.84 44.87 Z" />
<path fill="#f8fcf8" opacity="1.00" d=" M 55.65 46.75 C 56.33 46.75 57.67 46.75 58.35 46.75 C 58.31 51.32 58.33 55.90 58.30 60.47 C 62.78 61.83 65.47 67.58 62.43 71.52 C 59.91 75.72 53.17 75.21 51.13 70.82 C 48.78 66.81 51.55 61.82 55.70 60.46 C 55.67 55.89 55.69 51.32 55.65 46.75 Z" />
<path fill="#f8fcf8" opacity="1.00" d=" M 67.86 54.16 C 66.53 50.49 71.10 51.72 73.14 51.85 C 73.57 55.11 69.92 54.40 67.86 54.16 Z" />
</g>
</svg>
