<?xml version="1.0" encoding="UTF-8" ?>
<!DOCTYPE svg PUBLIC "-//W3C//DTD SVG 1.1//EN" "http://www.w3.org/Graphics/SVG/1.1/DTD/svg11.dtd">
<svg width="117pt" height="140pt" viewBox="0 0 117 140" version="1.1" xmlns="http://www.w3.org/2000/svg">
<g id="#384450ff">
<path fill="#384450" opacity="1.00" d=" M 0.00 0.00 L 117.00 0.00 L 117.00 140.00 L 0.00 140.00 L 0.00 0.00 M 41.23 53.15 C 37.81 54.83 39.31 60.47 43.02 60.42 C 45.94 60.82 48.55 56.84 46.56 54.44 C 45.52 52.64 42.94 51.82 41.23 53.15 M 56.47 53.52 C 54.80 54.82 54.50 57.49 56.02 59.02 C 57.73 61.56 61.86 60.54 62.75 57.76 C 64.21 54.28 59.13 50.59 56.47 53.52 M 72.36 53.42 C 67.86 56.35 73.77 63.32 77.40 59.33 C 81.31 56.40 75.87 49.99 72.36 53.42 Z" />
</g>
<g id="#f8fcf8ff">
<path fill="#f8fcf8" opacity="1.00" d=" M 41.23 53.15 C 42.94 51.82 45.52 52.64 46.56 54.44 C 48.55 56.84 45.94 60.82 43.02 60.42 C 39.31 60.47 37.81 54.83 41.23 53.15 Z" />
<path fill="#f8fcf8" opacity="1.00" d=" M 56.47 53.52 C 59.13 50.59 64.21 54.28 62.75 57.76 C 61.86 60.54 57.73 61.56 56.02 59.02 C 54.50 57.49 54.80 54.82 56.47 53.52 Z" />
<path fill="#f8fcf8" opacity="1.00" d=" M 72.36 53.42 C 75.87 49.99 81.31 56.40 77.40 59.33 C 73.77 63.32 67.86 56.35 72.36 53.42 Z" />
</g>
</svg>
