<?xml version="1.0" encoding="UTF-8" ?>
<!DOCTYPE svg PUBLIC "-//W3C//DTD SVG 1.1//EN" "http://www.w3.org/Graphics/SVG/1.1/DTD/svg11.dtd">
<svg width="480px" height="320px" viewBox="0 0 480 320" version="1.1" xmlns="http://www.w3.org/2000/svg">
<g id="#000000ff">
<path fill="#000000" opacity="1.00" d=" M 0.00 0.00 L 480.00 0.00 L 480.00 320.00 L 0.00 320.00 L 0.00 0.00 M 272.99 95.05 C 264.45 96.98 255.54 98.65 246.84 96.76 C 242.54 96.16 238.40 94.70 234.08 94.23 C 232.29 93.95 229.50 94.68 229.75 97.02 C 229.47 103.52 226.62 109.57 226.26 116.08 C 225.37 123.06 229.11 129.36 230.67 135.96 C 232.66 142.34 233.22 149.06 234.64 155.52 C 238.13 158.06 242.42 159.08 246.49 160.28 C 253.51 162.11 260.95 164.08 268.17 162.11 C 276.83 159.76 284.98 155.88 293.17 152.30 C 297.34 150.85 297.16 145.71 296.69 142.13 C 294.74 131.04 289.35 120.44 290.27 108.95 C 291.35 103.34 294.77 98.55 297.38 93.57 C 296.55 92.50 295.59 91.38 294.12 91.32 C 286.82 90.13 279.92 93.37 272.99 95.05 M 299.52 93.69 C 297.40 95.37 296.72 98.15 295.61 100.50 C 294.06 104.23 291.25 107.72 291.61 111.99 C 292.15 120.63 295.21 128.82 297.50 137.09 C 298.90 141.71 298.52 146.53 297.67 151.21 C 303.11 157.32 311.44 160.22 319.19 162.41 C 323.53 156.97 326.64 150.48 332.00 145.89 C 335.95 143.53 335.53 137.98 333.28 134.55 C 328.58 127.08 329.79 117.74 326.08 109.90 C 332.60 110.13 339.20 107.26 345.57 109.64 C 347.28 114.22 353.25 114.09 356.88 112.09 C 354.42 110.27 352.38 107.32 349.13 107.02 C 345.66 106.76 342.46 105.02 338.95 105.13 C 334.48 105.14 329.74 106.66 325.46 104.73 C 322.76 103.79 322.08 100.45 319.55 99.24 C 315.67 97.17 311.12 96.89 307.19 94.93 C 304.83 93.95 302.03 92.17 299.52 93.69 M 212.86 99.85 C 205.61 102.29 199.35 106.69 192.86 110.59 C 189.04 113.06 183.30 113.81 181.81 118.77 C 178.86 129.60 182.99 140.87 189.21 149.73 C 190.99 152.14 192.73 155.37 196.05 155.70 C 200.63 156.36 204.55 152.74 209.11 153.22 C 213.76 154.37 216.53 158.96 221.08 160.35 C 224.06 161.38 227.34 160.60 230.06 159.19 C 231.19 158.51 232.76 157.60 232.48 156.02 C 232.09 144.23 227.74 133.11 224.64 121.87 C 222.55 112.48 229.28 104.05 228.21 94.69 C 222.59 93.50 217.95 98.19 212.86 99.85 M 164.86 123.20 C 162.54 121.81 160.25 120.09 157.42 120.01 C 157.49 121.80 157.64 123.60 157.82 125.39 C 155.37 124.26 152.81 123.38 150.09 123.35 C 149.73 127.52 152.24 130.95 155.02 133.75 C 153.24 137.34 155.08 141.22 154.14 144.94 C 153.69 146.33 154.43 149.07 152.12 148.75 C 148.10 149.07 144.47 146.84 141.90 143.92 C 140.54 148.78 142.77 153.39 144.74 157.70 C 138.84 156.49 134.00 152.60 130.32 148.00 C 130.44 158.34 136.93 167.43 145.08 173.27 C 145.08 177.88 149.50 180.09 152.99 182.08 C 156.91 181.87 160.92 181.22 164.40 179.29 C 166.13 178.03 165.76 174.85 168.09 174.32 C 170.48 173.49 172.95 172.58 174.66 170.62 C 178.16 166.80 182.43 163.86 186.32 160.48 C 188.59 160.01 191.79 159.87 192.42 157.06 C 192.14 155.20 190.65 153.93 189.55 152.52 C 183.60 145.78 179.23 137.15 179.19 128.01 C 179.08 124.45 179.80 120.94 180.16 117.42 C 174.80 118.48 170.26 122.03 164.86 123.20 M 322.93 159.90 C 322.28 161.14 321.20 162.32 321.24 163.80 C 322.36 165.69 323.94 167.25 325.30 168.96 C 324.22 171.56 323.82 174.66 321.55 176.57 C 319.82 178.13 318.57 180.10 317.65 182.23 C 324.01 182.37 330.38 182.27 336.74 182.29 C 340.03 177.36 340.62 171.13 344.54 166.57 C 347.25 163.76 347.80 158.10 344.11 155.90 C 340.01 153.36 338.15 148.68 334.91 145.28 C 330.14 149.44 326.33 154.60 322.93 159.90 M 289.68 155.25 C 290.84 157.97 292.60 160.37 293.95 163.00 C 290.96 164.90 287.75 166.65 285.49 169.44 C 284.01 171.71 283.77 174.81 281.31 176.35 C 279.33 177.80 278.17 179.96 277.44 182.25 C 283.91 182.34 290.39 182.29 296.86 182.27 C 296.48 180.82 296.15 179.36 295.89 177.89 C 298.02 175.78 301.03 177.92 303.45 176.65 C 308.36 175.17 311.84 171.15 316.55 169.28 C 318.66 168.39 318.40 165.63 319.09 163.79 C 312.80 161.93 306.16 160.33 300.91 156.17 C 299.30 155.11 297.93 153.52 296.01 153.09 C 293.77 153.36 291.74 154.42 289.68 155.25 M 195.52 156.89 C 195.83 162.95 202.39 165.77 204.63 170.95 C 204.53 173.26 204.45 175.63 203.81 177.86 C 202.19 179.47 200.19 180.64 198.51 182.18 C 204.37 182.42 210.23 182.25 216.08 182.29 C 216.54 178.01 219.95 175.03 221.34 171.12 C 222.55 168.29 222.93 165.20 222.86 162.15 C 220.59 161.60 218.20 161.18 216.32 159.70 C 213.66 157.94 211.48 154.84 208.01 154.83 C 203.91 155.93 199.84 157.48 195.52 156.89 M 221.05 175.34 C 227.11 179.17 234.90 177.43 240.86 181.39 C 243.04 182.70 248.00 182.58 246.81 178.87 C 245.34 173.20 241.85 167.89 237.02 164.52 C 235.98 165.25 235.00 166.06 233.93 166.74 C 230.97 165.05 228.54 161.94 224.77 162.32 C 224.53 166.92 223.22 171.29 221.05 175.34 M 151.43 195.53 C 151.41 199.69 151.56 203.85 151.41 208.01 C 151.01 211.30 149.38 214.27 148.22 217.34 C 146.93 214.54 145.33 211.86 144.38 208.92 C 144.06 204.40 144.35 199.85 144.26 195.32 C 141.05 195.32 137.85 195.31 134.65 195.34 C 134.79 199.85 134.19 204.46 134.94 208.92 C 137.82 215.81 141.43 222.36 144.30 229.25 C 146.84 229.26 149.37 229.26 151.91 229.23 C 153.42 225.78 154.66 222.21 156.35 218.84 C 157.74 222.31 159.04 225.83 160.58 229.25 C 163.07 229.22 165.57 229.23 168.07 229.25 C 171.53 222.21 175.06 215.17 178.13 207.95 C 178.52 203.83 178.19 199.67 178.29 195.53 C 174.93 195.55 171.57 195.53 168.22 195.56 C 168.21 199.75 168.39 203.94 168.18 208.12 C 167.45 211.29 165.68 214.11 164.40 217.08 C 163.29 214.42 162.02 211.80 161.33 209.00 C 160.98 204.54 161.28 200.05 161.21 195.58 C 157.95 195.54 154.69 195.54 151.43 195.53 M 191.47 195.36 C 187.48 206.69 183.31 217.95 179.21 229.24 C 182.52 229.26 185.84 229.25 189.16 229.27 C 189.79 227.59 190.38 225.91 190.97 224.22 C 194.55 224.23 198.14 224.22 201.72 224.26 C 202.27 225.92 202.81 227.58 203.37 229.25 C 206.88 229.26 210.38 229.25 213.89 229.26 C 209.45 217.99 205.23 206.63 200.77 195.36 C 197.67 195.34 194.57 195.31 191.47 195.36 M 215.66 195.34 C 215.72 206.64 215.63 217.94 215.71 229.25 C 219.05 229.26 222.39 229.25 225.73 229.26 C 225.70 223.40 225.69 217.53 225.73 211.67 C 230.46 217.47 234.72 223.65 239.65 229.28 C 242.41 229.25 245.16 229.26 247.92 229.24 C 247.88 217.93 247.90 206.61 247.91 195.29 C 244.85 195.42 241.78 195.52 238.71 195.57 C 238.68 201.65 238.74 207.74 238.69 213.83 C 233.89 207.76 229.54 201.34 224.67 195.32 C 221.67 195.32 218.67 195.32 215.66 195.34 M 252.69 195.36 C 252.74 206.66 252.69 217.96 252.71 229.26 C 256.05 229.26 259.40 229.26 262.74 229.26 C 262.69 224.86 262.71 220.46 262.71 216.07 C 266.77 216.06 270.82 216.06 274.88 216.07 C 275.04 220.46 275.15 224.85 275.15 229.25 C 278.40 229.26 281.64 229.26 284.90 229.25 C 284.86 217.95 284.85 206.64 284.90 195.33 C 281.65 195.31 278.39 195.31 275.14 195.34 C 275.17 199.45 275.19 203.56 275.13 207.67 C 270.92 207.63 266.72 207.66 262.52 207.63 C 262.55 203.53 262.54 199.43 262.56 195.34 C 259.27 195.31 255.98 195.31 252.69 195.36 M 299.27 195.33 C 295.23 206.64 291.11 217.92 287.10 229.24 C 290.46 229.25 293.82 229.27 297.18 229.23 C 297.73 227.57 298.28 225.90 298.79 224.24 C 302.44 224.23 306.09 224.22 309.75 224.25 C 310.26 225.92 310.78 227.58 311.31 229.26 C 314.87 229.26 318.42 229.26 321.98 229.25 C 317.45 217.98 313.05 206.66 308.58 195.37 C 305.48 195.35 302.37 195.32 299.27 195.33 M 334.37 195.55 C 328.69 197.64 323.93 202.74 323.21 208.88 C 322.42 215.67 324.74 223.48 330.87 227.17 C 338.02 232.47 348.98 230.14 354.28 223.26 C 360.14 215.56 358.32 203.22 350.47 197.54 C 345.95 194.01 339.63 193.58 334.37 195.55 Z" />
<path fill="#000000" opacity="1.00" d=" M 337.25 204.25 C 340.36 203.09 344.52 203.52 346.44 206.55 C 349.45 210.73 348.80 218.29 343.45 220.26 C 339.33 221.97 334.06 219.76 332.72 215.43 C 331.34 211.29 333.35 206.24 337.25 204.25 Z" />
<path fill="#000000" opacity="1.00" d=" M 304.19 206.72 C 305.25 209.83 306.27 212.95 307.30 216.08 C 305.33 216.07 303.37 216.07 301.42 216.08 C 302.34 212.96 303.30 209.85 304.19 206.72 Z" />
<path fill="#000000" opacity="1.00" d=" M 193.50 216.11 C 194.38 213.34 195.22 210.56 196.08 207.78 C 197.08 210.46 197.97 213.17 198.86 215.89 C 197.07 215.96 195.28 216.04 193.50 216.11 Z" />
</g>
<g id="#f8fcf8ff">
<path fill="#f8fcf8" opacity="1.00" d=" M 272.99 95.05 C 279.92 93.37 286.82 90.13 294.12 91.32 C 295.59 91.38 296.55 92.50 297.38 93.57 C 294.77 98.55 291.35 103.34 290.27 108.95 C 289.35 120.44 294.74 131.04 296.69 142.13 C 297.16 145.71 297.34 150.85 293.17 152.30 C 284.98 155.88 276.83 159.76 268.17 162.11 C 260.95 164.08 253.51 162.11 246.49 160.28 C 242.42 159.08 238.13 158.06 234.64 155.52 C 233.22 149.06 232.66 142.34 230.67 135.96 C 229.11 129.36 225.37 123.06 226.26 116.08 C 226.62 109.57 229.47 103.52 229.75 97.02 C 229.50 94.68 232.29 93.95 234.08 94.23 C 238.40 94.70 242.54 96.16 246.84 96.76 C 255.54 98.65 264.45 96.98 272.99 95.05 Z" />
<path fill="#f8fcf8" opacity="1.00" d=" M 299.52 93.69 C 302.03 92.17 304.83 93.95 307.19 94.93 C 311.12 96.89 315.67 97.17 319.55 99.24 C 322.08 100.45 322.76 103.79 325.46 104.73 C 329.74 106.66 334.48 105.14 338.95 105.13 C 342.46 105.02 345.66 106.76 349.13 107.02 C 352.38 107.32 354.42 110.27 356.88 112.09 C 353.25 114.09 347.28 114.22 345.57 109.64 C 339.20 107.26 332.60 110.13 326.08 109.90 C 329.79 117.74 328.58 127.08 333.28 134.55 C 335.53 137.98 335.95 143.53 332.00 145.89 C 326.64 150.48 323.53 156.97 319.19 162.41 C 311.44 160.22 303.11 157.32 297.67 151.21 C 298.52 146.53 298.90 141.71 297.50 137.09 C 295.21 128.82 292.15 120.63 291.61 111.99 C 291.25 107.72 294.06 104.23 295.61 100.50 C 296.72 98.15 297.40 95.37 299.52 93.69 Z" />
<path fill="#f8fcf8" opacity="1.00" d=" M 212.86 99.85 C 217.95 98.19 222.59 93.50 228.21 94.69 C 229.28 104.05 222.55 112.48 224.64 121.87 C 227.74 133.11 232.09 144.23 232.48 156.02 C 232.76 157.60 231.19 158.51 230.06 159.19 C 227.34 160.60 224.06 161.38 221.08 160.35 C 216.53 158.96 213.76 154.37 209.11 153.22 C 204.55 152.74 200.63 156.36 196.05 155.70 C 192.73 155.37 190.99 152.14 189.21 149.73 C 182.99 140.87 178.86 129.60 181.81 118.77 C 183.30 113.81 189.04 113.06 192.86 110.59 C 199.35 106.69 205.61 102.29 212.86 99.85 Z" />
<path fill="#f8fcf8" opacity="1.00" d=" M 164.86 123.20 C 170.26 122.03 174.80 118.48 180.16 117.42 C 179.80 120.94 179.08 124.45 179.19 128.01 C 179.23 137.15 183.60 145.78 189.55 152.52 C 190.65 153.93 192.14 155.20 192.42 157.06 C 191.79 159.87 188.59 160.01 186.32 160.48 C 182.43 163.86 178.16 166.80 174.66 170.62 C 172.95 172.58 170.48 173.49 168.09 174.32 C 165.76 174.85 166.13 178.03 164.40 179.29 C 160.92 181.22 156.91 181.87 152.99 182.08 C 149.50 180.09 145.08 177.88 145.08 173.27 C 136.93 167.43 130.44 158.34 130.32 148.00 C 134.00 152.60 138.84 156.49 144.74 157.70 C 142.77 153.39 140.54 148.78 141.90 143.92 C 144.47 146.84 148.10 149.07 152.12 148.75 C 154.43 149.07 153.69 146.33 154.14 144.94 C 155.08 141.22 153.24 137.34 155.02 133.75 C 152.24 130.95 149.73 127.52 150.09 123.35 C 152.81 123.38 155.37 124.26 157.82 125.39 C 157.64 123.60 157.49 121.80 157.42 120.01 C 160.25 120.09 162.54 121.81 164.86 123.20 Z" />
<path fill="#f8fcf8" opacity="1.00" d=" M 322.93 159.90 C 326.33 154.60 330.14 149.44 334.91 145.28 C 338.15 148.68 340.01 153.36 344.11 155.90 C 347.80 158.10 347.25 163.76 344.54 166.57 C 340.62 171.13 340.03 177.36 336.74 182.29 C 330.38 182.27 324.01 182.37 317.65 182.23 C 318.57 180.10 319.82 178.13 321.55 176.57 C 323.82 174.66 324.22 171.56 325.30 168.96 C 323.94 167.25 322.36 165.69 321.24 163.80 C 321.20 162.32 322.28 161.14 322.93 159.90 Z" />
<path fill="#f8fcf8" opacity="1.00" d=" M 289.68 155.25 C 291.74 154.42 293.77 153.36 296.01 153.09 C 297.93 153.52 299.30 155.11 300.91 156.17 C 306.16 160.33 312.80 161.93 319.09 163.79 C 318.40 165.63 318.66 168.39 316.55 169.28 C 311.84 171.15 308.36 175.17 303.45 176.65 C 301.03 177.92 298.02 175.78 295.89 177.89 C 296.15 179.36 296.48 180.82 296.86 182.27 C 290.39 182.29 283.91 182.34 277.44 182.25 C 278.17 179.96 279.33 177.80 281.31 176.35 C 283.77 174.81 284.01 171.71 285.49 169.44 C 287.75 166.65 290.96 164.90 293.95 163.00 C 292.60 160.37 290.84 157.97 289.68 155.25 Z" />
<path fill="#f8fcf8" opacity="1.00" d=" M 195.52 156.89 C 199.84 157.48 203.91 155.93 208.01 154.83 C 211.48 154.84 213.66 157.94 216.32 159.70 C 218.20 161.18 220.59 161.60 222.86 162.15 C 222.93 165.20 222.55 168.29 221.34 171.12 C 219.95 175.03 216.54 178.01 216.08 182.29 C 210.23 182.25 204.37 182.42 198.51 182.18 C 200.19 180.64 202.19 179.47 203.81 177.86 C 204.45 175.63 204.53 173.26 204.63 170.95 C 202.39 165.77 195.83 162.95 195.52 156.89 Z" />
<path fill="#f8fcf8" opacity="1.00" d=" M 221.05 175.34 C 223.22 171.29 224.53 166.92 224.77 162.32 C 228.54 161.94 230.97 165.05 233.93 166.74 C 235.00 166.06 235.98 165.25 237.02 164.52 C 241.85 167.89 245.34 173.20 246.81 178.87 C 248.00 182.58 243.04 182.70 240.86 181.39 C 234.90 177.43 227.11 179.17 221.05 175.34 Z" />
<path fill="#f8fcf8" opacity="1.00" d=" M 151.43 195.53 C 154.69 195.54 157.95 195.54 161.21 195.58 C 161.28 200.05 160.98 204.54 161.33 209.00 C 162.02 211.80 163.29 214.42 164.40 217.08 C 165.68 214.11 167.45 211.29 168.18 208.12 C 168.39 203.94 168.21 199.75 168.22 195.56 C 171.57 195.53 174.93 195.55 178.29 195.53 C 178.19 199.67 178.52 203.83 178.13 207.95 C 175.06 215.17 171.53 222.21 168.07 229.25 C 165.57 229.23 163.07 229.22 160.58 229.25 C 159.04 225.83 157.74 222.31 156.35 218.84 C 154.66 222.21 153.42 225.78 151.91 229.23 C 149.37 229.26 146.84 229.26 144.30 229.25 C 141.43 222.36 137.82 215.81 134.94 208.92 C 134.19 204.46 134.79 199.85 134.65 195.34 C 137.85 195.31 141.05 195.32 144.26 195.32 C 144.35 199.85 144.06 204.40 144.38 208.92 C 145.33 211.86 146.93 214.54 148.22 217.34 C 149.38 214.27 151.01 211.30 151.41 208.01 C 151.56 203.85 151.41 199.69 151.43 195.53 Z" />
<path fill="#f8fcf8" opacity="1.00" d=" M 191.47 195.36 C 194.57 195.31 197.67 195.34 200.77 195.36 C 205.23 206.63 209.45 217.99 213.89 229.26 C 210.38 229.25 206.88 229.26 203.37 229.25 C 202.81 227.58 202.27 225.92 201.72 224.26 C 198.14 224.22 194.55 224.23 190.97 224.22 C 190.38 225.91 189.79 227.59 189.16 229.27 C 185.84 229.25 182.52 229.26 179.21 229.24 C 183.31 217.95 187.48 206.69 191.47 195.36 M 193.50 216.11 C 195.28 216.04 197.07 215.96 198.86 215.89 C 197.97 213.17 197.08 210.46 196.08 207.78 C 195.22 210.56 194.38 213.34 193.50 216.11 Z" />
<path fill="#f8fcf8" opacity="1.00" d=" M 215.66 195.34 C 218.67 195.32 221.67 195.32 224.67 195.32 C 229.54 201.34 233.89 207.76 238.69 213.83 C 238.74 207.74 238.68 201.65 238.71 195.57 C 241.78 195.52 244.85 195.42 247.91 195.29 C 247.90 206.61 247.88 217.93 247.92 229.24 C 245.16 229.26 242.41 229.25 239.65 229.28 C 234.72 223.65 230.46 217.47 225.73 211.67 C 225.69 217.53 225.70 223.40 225.73 229.26 C 222.39 229.25 219.05 229.26 215.71 229.25 C 215.63 217.94 215.72 206.64 215.66 195.34 Z" />
<path fill="#f8fcf8" opacity="1.00" d=" M 252.69 195.36 C 255.98 195.31 259.27 195.31 262.56 195.34 C 262.54 199.43 262.55 203.53 262.52 207.63 C 266.72 207.66 270.92 207.63 275.13 207.67 C 275.19 203.56 275.17 199.45 275.14 195.34 C 278.39 195.31 281.65 195.31 284.90 195.33 C 284.85 206.64 284.86 217.95 284.90 229.25 C 281.64 229.26 278.40 229.26 275.15 229.25 C 275.15 224.85 275.04 220.46 274.88 216.07 C 270.82 216.06 266.77 216.06 262.71 216.07 C 262.71 220.46 262.69 224.86 262.74 229.26 C 259.40 229.26 256.05 229.26 252.71 229.26 C 252.69 217.96 252.74 206.66 252.69 195.36 Z" />
<path fill="#f8fcf8" opacity="1.00" d=" M 299.27 195.33 C 302.37 195.32 305.48 195.35 308.58 195.37 C 313.05 206.66 317.45 217.98 321.98 229.25 C 318.42 229.26 314.87 229.26 311.31 229.26 C 310.78 227.58 310.26 225.92 309.75 224.25 C 306.09 224.22 302.44 224.23 298.79 224.24 C 298.28 225.90 297.73 227.57 297.18 229.23 C 293.82 229.27 290.46 229.25 287.10 229.24 C 291.11 217.92 295.23 206.64 299.27 195.33 M 304.19 206.72 C 303.30 209.85 302.34 212.96 301.42 216.08 C 303.37 216.07 305.33 216.07 307.30 216.08 C 306.27 212.95 305.25 209.83 304.19 206.72 Z" />
<path fill="#f8fcf8" opacity="1.00" d=" M 334.37 195.55 C 339.63 193.58 345.95 194.01 350.47 197.54 C 358.32 203.22 360.14 215.56 354.28 223.26 C 348.98 230.14 338.02 232.47 330.87 227.17 C 324.74 223.48 322.42 215.67 323.21 208.88 C 323.93 202.74 328.69 197.64 334.37 195.55 M 337.25 204.25 C 333.35 206.24 331.34 211.29 332.72 215.43 C 334.06 219.76 339.33 221.97 343.45 220.26 C 348.80 218.29 349.45 210.73 346.44 206.55 C 344.52 203.52 340.36 203.09 337.25 204.25 Z" />
</g>
</svg>
