<?xml version="1.0" encoding="UTF-8" ?>
<!DOCTYPE svg PUBLIC "-//W3C//DTD SVG 1.1//EN" "http://www.w3.org/Graphics/SVG/1.1/DTD/svg11.dtd">
<svg width="117pt" height="140pt" viewBox="0 0 117 140" version="1.1" xmlns="http://www.w3.org/2000/svg">
<g id="#000000ff">
<path fill="#000000" opacity="1.00" d=" M 0.00 0.00 L 117.00 0.00 L 117.00 140.00 L 0.00 140.00 L 0.00 0.00 M 23.11 12.97 C 17.79 15.68 13.13 19.53 9.66 24.40 C 8.77 25.97 7.95 27.58 7.01 29.12 C 6.32 31.38 5.49 33.60 4.83 35.87 C 4.09 41.90 4.46 47.97 4.38 54.03 C 4.39 68.70 4.37 83.37 4.38 98.04 C 4.27 102.46 5.48 106.77 7.02 110.87 C 7.93 112.45 8.81 114.04 9.68 115.65 C 12.17 118.92 15.06 121.85 18.35 124.33 C 19.96 125.18 21.55 126.07 23.13 127.00 C 27.26 128.47 31.56 129.69 35.99 129.61 C 45.99 129.65 55.99 129.60 66.00 129.62 C 74.99 129.44 84.35 130.66 92.87 127.00 C 94.43 126.07 96.03 125.20 97.64 124.34 C 100.93 121.85 103.86 118.93 106.34 115.63 C 107.20 114.03 108.07 112.44 108.97 110.87 C 110.51 106.78 111.72 102.48 111.61 98.06 C 111.62 79.36 111.62 60.65 111.61 41.95 C 111.75 37.52 110.47 33.24 109.02 29.12 C 105.59 22.11 99.90 16.41 92.89 12.97 C 88.73 11.58 84.43 10.29 79.99 10.39 C 65.34 10.38 50.68 10.37 36.02 10.39 C 31.58 10.28 27.28 11.57 23.11 12.97 Z" />
<path fill="#000000" opacity="1.00" d=" M 26.88 12.74 C 33.13 11.09 39.61 11.70 45.99 11.62 C 58.02 11.64 70.06 11.58 82.09 11.63 C 91.93 12.26 101.33 18.07 106.22 26.66 C 107.38 28.65 108.29 30.77 109.28 32.85 C 109.80 35.55 110.47 38.24 110.41 41.01 C 110.33 61.02 110.43 81.04 110.36 101.05 C 109.25 113.03 100.35 123.30 89.14 127.25 C 86.14 127.83 83.13 128.50 80.05 128.40 C 63.98 128.33 47.91 128.46 31.84 128.33 C 30.18 127.90 28.52 127.52 26.85 127.18 C 17.53 123.96 9.98 116.48 6.83 107.11 C 6.47 105.73 6.08 104.36 5.70 103.00 C 5.53 81.01 5.63 59.01 5.65 37.02 C 7.59 29.79 11.06 22.72 17.17 18.13 C 20.06 15.76 23.52 14.28 26.88 12.74 M 45.99 38.00 C 44.72 40.10 43.39 42.17 42.01 44.21 C 42.92 45.51 43.88 46.78 44.80 48.09 C 44.10 48.12 42.70 48.18 42.00 48.21 C 42.00 49.47 42.00 50.72 42.00 51.98 C 42.60 51.99 43.80 52.02 44.41 52.03 C 44.39 53.32 44.37 54.61 44.35 55.89 C 46.43 56.00 48.51 56.13 50.59 56.28 C 49.07 56.62 47.55 56.94 46.03 57.26 C 46.13 58.49 46.22 59.72 46.32 60.95 C 49.36 60.85 52.41 60.65 55.45 60.77 C 51.69 61.69 47.82 61.93 43.96 62.09 C 44.05 63.61 44.14 65.13 44.23 66.65 C 45.06 66.64 46.71 66.61 47.53 66.60 C 45.76 67.22 43.99 67.82 42.21 68.42 C 43.56 69.82 44.90 71.23 46.22 72.67 C 48.59 71.52 50.96 70.38 53.33 69.21 C 53.62 69.92 54.19 71.34 54.48 72.05 C 56.83 71.98 59.23 72.14 61.53 71.57 C 62.51 70.80 62.63 69.40 63.24 68.36 C 66.26 69.78 69.26 71.24 72.23 72.75 C 73.39 71.22 74.55 69.70 75.72 68.19 C 74.81 67.85 73.00 67.16 72.09 66.82 C 73.33 66.24 74.56 65.65 75.80 65.05 C 74.05 62.55 72.28 60.06 70.50 57.59 C 69.30 58.14 68.11 58.72 66.93 59.33 C 66.00 60.41 64.86 61.26 63.41 61.52 C 65.17 59.84 67.11 58.38 69.05 56.93 C 68.40 56.43 67.09 55.42 66.44 54.92 C 68.74 55.97 71.02 57.06 73.33 58.10 C 74.48 55.89 75.57 53.65 76.71 51.43 C 75.02 51.04 73.34 50.60 71.66 50.17 C 72.65 48.19 73.53 46.09 75.56 44.96 C 75.60 43.42 75.62 41.90 75.64 40.37 C 72.80 40.38 69.96 40.40 67.13 40.44 C 67.35 39.94 67.78 38.94 68.00 38.44 C 66.06 38.32 64.12 38.19 62.19 38.07 C 61.61 39.49 61.05 40.92 60.48 42.34 C 60.45 41.76 60.40 40.58 60.37 40.00 C 57.47 40.00 54.56 40.00 51.66 40.00 C 51.68 39.55 51.70 38.65 51.72 38.20 C 49.81 38.14 47.90 38.07 45.99 38.00 Z" />
<path fill="#000000" opacity="1.00" d=" M 48.40 44.86 C 51.91 43.46 55.80 43.93 59.45 44.38 C 55.88 45.54 52.07 45.31 48.40 44.86 Z" />
<path fill="#000000" opacity="1.00" d=" M 49.23 47.22 C 49.75 47.76 49.75 47.76 49.23 47.22 Z" />
<path fill="#000000" opacity="1.00" d=" M 53.29 47.24 C 53.75 47.84 53.75 47.84 53.29 47.24 Z" />
<path fill="#000000" opacity="1.00" d=" M 58.32 47.24 C 58.80 47.83 58.80 47.83 58.32 47.24 Z" />
<path fill="#000000" opacity="1.00" d=" M 59.98 47.97 C 61.01 48.95 62.06 49.93 63.11 50.89 C 61.57 51.76 60.03 52.62 58.48 53.47 C 59.30 54.52 60.18 55.51 60.99 56.56 C 59.53 56.80 58.07 57.03 56.61 57.24 C 57.08 56.81 58.02 55.95 58.49 55.52 C 58.47 54.86 58.43 53.54 58.41 52.88 C 59.87 51.63 59.87 49.73 59.98 47.97 Z" />
<path fill="#000000" opacity="1.00" d=" M 49.23 52.44 C 49.86 52.91 49.86 52.91 49.23 52.44 Z" />
<path fill="#000000" opacity="1.00" d=" M 52.44 52.23 C 55.29 50.46 52.86 55.53 52.44 52.23 Z" />
<path fill="#000000" opacity="1.00" d=" M 54.33 66.08 C 57.30 64.49 54.56 69.40 54.33 66.08 Z" />
</g>
<g id="#e76010ff">
<path fill="#e76010" opacity="1.00" d=" M 23.11 12.97 C 27.28 11.57 31.58 10.28 36.02 10.39 C 50.68 10.37 65.34 10.38 79.99 10.39 C 84.43 10.29 88.73 11.58 92.89 12.97 C 99.90 16.41 105.59 22.11 109.02 29.12 C 110.47 33.24 111.75 37.52 111.61 41.95 C 111.62 60.65 111.62 79.36 111.61 98.06 C 111.72 102.48 110.51 106.78 108.97 110.87 C 108.07 112.44 107.20 114.03 106.34 115.63 C 103.86 118.93 100.93 121.85 97.64 124.34 C 96.03 125.20 94.43 126.07 92.87 127.00 C 84.35 130.66 74.99 129.44 66.00 129.62 C 55.99 129.60 45.99 129.65 35.99 129.61 C 31.56 129.69 27.26 128.47 23.13 127.00 C 21.55 126.07 19.96 125.18 18.35 124.33 C 15.06 121.85 12.17 118.92 9.68 115.65 C 8.81 114.04 7.93 112.45 7.02 110.87 C 5.48 106.77 4.27 102.46 4.38 98.04 C 4.37 83.37 4.39 68.70 4.38 54.03 C 4.46 47.97 4.09 41.90 4.83 35.87 C 5.49 33.60 6.32 31.38 7.01 29.12 C 7.95 27.58 8.77 25.97 9.66 24.40 C 13.13 19.53 17.79 15.68 23.11 12.97 M 26.88 12.74 C 23.52 14.28 20.06 15.76 17.17 18.13 C 11.06 22.72 7.59 29.79 5.65 37.02 C 5.63 59.01 5.53 81.01 5.70 103.00 C 6.08 104.36 6.47 105.73 6.83 107.11 C 9.98 116.48 17.53 123.96 26.85 127.18 C 28.52 127.52 30.18 127.90 31.84 128.33 C 47.91 128.46 63.98 128.33 80.05 128.40 C 83.13 128.50 86.14 127.83 89.14 127.25 C 100.35 123.30 109.25 113.03 110.36 101.05 C 110.43 81.04 110.33 61.02 110.41 41.01 C 110.47 38.24 109.80 35.55 109.28 32.85 C 108.29 30.77 107.38 28.65 106.22 26.66 C 101.33 18.07 91.93 12.26 82.09 11.63 C 70.06 11.58 58.02 11.64 45.99 11.62 C 39.61 11.70 33.13 11.09 26.88 12.74 Z" />
<path fill="#e76010" opacity="1.00" d=" M 45.99 38.00 C 47.90 38.07 49.81 38.14 51.72 38.20 C 51.70 38.65 51.68 39.55 51.66 40.00 C 54.56 40.00 57.47 40.00 60.37 40.00 C 60.40 40.58 60.45 41.76 60.48 42.34 C 61.05 40.92 61.61 39.49 62.19 38.07 C 64.12 38.19 66.06 38.32 68.00 38.44 C 67.78 38.94 67.35 39.94 67.13 40.44 C 69.96 40.40 72.80 40.38 75.64 40.37 C 75.62 41.90 75.60 43.42 75.56 44.96 C 73.53 46.09 72.65 48.19 71.66 50.17 C 73.34 50.60 75.02 51.04 76.71 51.43 C 75.57 53.65 74.48 55.89 73.33 58.10 C 71.02 57.06 68.74 55.97 66.44 54.92 C 67.09 55.42 68.40 56.43 69.05 56.93 C 67.11 58.38 65.17 59.84 63.41 61.52 C 64.86 61.26 66.00 60.41 66.93 59.33 C 68.11 58.72 69.30 58.14 70.50 57.59 C 72.28 60.06 74.05 62.55 75.80 65.05 C 74.56 65.65 73.33 66.24 72.09 66.82 C 73.00 67.16 74.81 67.85 75.72 68.19 C 74.55 69.70 73.39 71.22 72.23 72.75 C 69.26 71.24 66.26 69.78 63.24 68.36 C 62.63 69.40 62.51 70.80 61.53 71.57 C 59.23 72.14 56.83 71.98 54.48 72.05 C 54.19 71.34 53.62 69.92 53.33 69.21 C 50.96 70.38 48.59 71.52 46.22 72.67 C 44.90 71.23 43.56 69.82 42.21 68.42 C 43.99 67.82 45.76 67.22 47.53 66.60 C 46.71 66.61 45.06 66.64 44.23 66.65 C 44.14 65.13 44.05 63.61 43.96 62.09 C 47.82 61.93 51.69 61.69 55.45 60.77 C 52.41 60.65 49.36 60.85 46.32 60.95 C 46.22 59.72 46.13 58.49 46.03 57.26 C 47.55 56.94 49.07 56.62 50.59 56.28 C 48.51 56.13 46.43 56.00 44.35 55.89 C 44.37 54.61 44.39 53.32 44.41 52.03 C 43.80 52.02 42.60 51.99 42.00 51.98 C 42.00 50.72 42.00 49.47 42.00 48.21 C 42.70 48.18 44.10 48.12 44.80 48.09 C 43.88 46.78 42.92 45.51 42.01 44.21 C 43.39 42.17 44.72 40.10 45.99 38.00 M 48.40 44.86 C 52.07 45.31 55.88 45.54 59.45 44.38 C 55.80 43.93 51.91 43.46 48.40 44.86 M 49.23 47.22 C 49.75 47.76 49.75 47.76 49.23 47.22 M 53.29 47.24 C 53.75 47.84 53.75 47.84 53.29 47.24 M 58.32 47.24 C 58.80 47.83 58.80 47.83 58.32 47.24 M 59.98 47.97 C 59.87 49.73 59.87 51.63 58.41 52.88 C 58.43 53.54 58.47 54.86 58.49 55.52 C 58.02 55.95 57.08 56.81 56.61 57.24 C 58.07 57.03 59.53 56.80 60.99 56.56 C 60.18 55.51 59.30 54.52 58.48 53.47 C 60.03 52.62 61.57 51.76 63.11 50.89 C 62.06 49.93 61.01 48.95 59.98 47.97 M 49.23 52.44 C 49.86 52.91 49.86 52.91 49.23 52.44 M 52.44 52.23 C 52.86 55.53 55.29 50.46 52.44 52.23 M 54.33 66.08 C 54.56 69.40 57.30 64.49 54.33 66.08 Z" />
</g>
</svg>
