<?xml version="1.0" encoding="UTF-8" ?>
<!DOCTYPE svg PUBLIC "-//W3C//DTD SVG 1.1//EN" "http://www.w3.org/Graphics/SVG/1.1/DTD/svg11.dtd">
<svg width="117pt" height="140pt" viewBox="0 0 117 140" version="1.1" xmlns="http://www.w3.org/2000/svg">
<g id="#000000ff">
<path fill="#000000" opacity="1.00" d=" M 0.00 0.00 L 117.00 0.00 L 117.00 140.00 L 0.00 140.00 L 0.00 0.00 M 32.33 10.34 C 17.43 12.25 5.22 25.90 5.01 40.92 C 4.99 60.31 4.99 79.70 5.01 99.08 C 5.16 115.38 19.62 129.83 35.92 129.99 C 51.30 130.02 66.69 130.02 82.08 129.98 C 98.37 129.83 112.86 115.38 112.99 99.08 C 113.04 80.03 112.97 60.98 113.02 41.94 C 113.18 29.10 104.70 16.80 92.73 12.22 C 84.57 8.83 75.58 10.28 67.00 10.00 C 55.45 10.23 43.85 9.53 32.33 10.34 Z" />
<path fill="#000000" opacity="1.00" d=" M 32.34 12.38 C 48.21 11.52 64.16 12.22 80.06 12.01 C 88.72 11.75 97.39 15.39 103.19 21.84 C 108.12 27.29 111.03 34.56 110.98 41.93 C 110.99 60.98 111.06 80.03 110.94 99.09 C 110.79 113.97 97.90 127.25 83.03 127.89 C 67.34 128.11 51.63 128.00 35.93 127.95 C 20.71 127.79 7.21 114.32 7.05 99.09 C 6.97 79.70 6.97 60.31 7.05 40.92 C 7.25 26.97 18.53 14.30 32.34 12.38 M 46.70 32.97 C 46.88 34.49 47.68 35.21 49.11 35.14 C 55.75 35.26 62.40 35.14 69.04 35.19 C 71.03 35.07 74.13 35.86 74.30 32.97 C 69.93 32.06 65.43 32.63 61.00 32.49 C 56.24 32.65 51.41 32.03 46.70 32.97 M 47.11 35.90 C 47.12 36.63 47.13 38.08 47.14 38.80 C 56.04 39.09 64.96 39.09 73.86 38.80 C 73.87 38.08 73.88 36.63 73.89 35.90 C 64.97 35.77 56.03 35.78 47.11 35.90 M 47.07 40.32 C 47.09 41.57 47.11 42.82 47.15 44.06 C 56.04 44.44 64.96 44.44 73.85 44.06 C 73.88 42.82 73.91 41.57 73.93 40.32 C 64.98 40.06 56.02 40.06 47.07 40.32 M 47.10 45.90 C 47.08 47.31 47.08 48.71 47.10 50.12 C 51.36 50.87 55.70 50.41 60.00 50.52 C 64.63 50.38 69.31 50.90 73.90 50.12 C 73.92 48.72 73.92 47.31 73.90 45.90 C 64.99 45.43 56.01 45.43 47.10 45.90 M 47.25 51.89 C 47.09 53.60 46.98 55.32 46.87 57.04 C 43.25 57.18 39.30 56.27 36.11 58.49 C 36.15 59.04 36.22 60.13 36.26 60.67 C 41.59 63.77 47.23 66.31 52.55 69.43 C 55.35 70.61 57.84 72.85 60.90 73.20 C 68.95 69.25 76.83 64.91 84.74 60.68 C 84.78 60.14 84.86 59.05 84.90 58.51 C 81.69 56.35 77.76 57.16 74.13 57.03 C 74.01 55.32 73.91 53.60 73.75 51.89 C 64.92 51.64 56.08 51.64 47.25 51.89 Z" />
<path fill="#000000" opacity="1.00" d=" M 51.13 55.88 C 57.38 55.86 63.62 55.86 69.87 55.88 C 69.94 57.60 70.01 59.32 70.10 61.05 C 71.86 61.10 73.62 61.11 75.37 61.17 C 70.16 63.34 65.59 66.92 60.24 68.74 C 55.26 66.46 50.58 63.58 45.66 61.16 C 47.41 61.11 49.15 61.10 50.90 61.05 C 50.99 59.32 51.06 57.60 51.13 55.88 Z" />
</g>
<g id="#6e6f6eff">
<path fill="#6e6f6e" opacity="1.00" d=" M 32.33 10.34 C 43.85 9.53 55.45 10.23 67.00 10.00 C 75.58 10.28 84.57 8.83 92.73 12.22 C 104.70 16.80 113.18 29.10 113.02 41.94 C 112.97 60.98 113.04 80.03 112.99 99.08 C 112.86 115.38 98.37 129.83 82.08 129.98 C 66.69 130.02 51.30 130.02 35.92 129.99 C 19.62 129.83 5.16 115.38 5.01 99.08 C 4.99 79.70 4.99 60.31 5.01 40.92 C 5.22 25.90 17.43 12.25 32.33 10.34 M 32.34 12.38 C 18.53 14.30 7.25 26.97 7.05 40.92 C 6.97 60.31 6.97 79.70 7.05 99.09 C 7.21 114.32 20.71 127.79 35.93 127.95 C 51.63 128.00 67.34 128.11 83.03 127.89 C 97.90 127.25 110.79 113.97 110.94 99.09 C 111.06 80.03 110.99 60.98 110.98 41.93 C 111.03 34.56 108.12 27.29 103.19 21.84 C 97.39 15.39 88.72 11.75 80.06 12.01 C 64.16 12.22 48.21 11.52 32.34 12.38 Z" />
</g>
<g id="#f8fcf8ff">
<path fill="#f8fcf8" opacity="1.00" d=" M 46.70 32.97 C 51.41 32.03 56.24 32.65 61.00 32.49 C 65.43 32.63 69.93 32.06 74.30 32.97 C 74.13 35.86 71.03 35.07 69.04 35.19 C 62.40 35.14 55.75 35.26 49.11 35.14 C 47.68 35.21 46.88 34.49 46.70 32.97 Z" />
<path fill="#f8fcf8" opacity="1.00" d=" M 47.11 35.90 C 56.03 35.78 64.97 35.77 73.89 35.90 C 73.88 36.63 73.87 38.08 73.86 38.80 C 64.96 39.09 56.04 39.09 47.14 38.80 C 47.13 38.08 47.12 36.63 47.11 35.90 Z" />
<path fill="#f8fcf8" opacity="1.00" d=" M 47.07 40.32 C 56.02 40.06 64.98 40.06 73.93 40.32 C 73.91 41.57 73.88 42.82 73.85 44.06 C 64.96 44.44 56.04 44.44 47.15 44.06 C 47.11 42.82 47.09 41.57 47.07 40.32 Z" />
<path fill="#f8fcf8" opacity="1.00" d=" M 47.10 45.90 C 56.01 45.43 64.99 45.43 73.90 45.90 C 73.92 47.31 73.92 48.72 73.90 50.12 C 69.31 50.90 64.63 50.38 60.00 50.52 C 55.70 50.41 51.36 50.87 47.10 50.12 C 47.08 48.71 47.08 47.31 47.10 45.90 Z" />
<path fill="#f8fcf8" opacity="1.00" d=" M 47.25 51.89 C 56.08 51.64 64.92 51.64 73.75 51.89 C 73.91 53.60 74.01 55.32 74.13 57.03 C 77.76 57.16 81.69 56.35 84.90 58.51 C 84.86 59.05 84.78 60.14 84.74 60.68 C 76.83 64.91 68.95 69.25 60.90 73.20 C 57.84 72.85 55.35 70.61 52.55 69.43 C 47.23 66.31 41.59 63.77 36.26 60.67 C 36.22 60.13 36.15 59.04 36.11 58.49 C 39.30 56.27 43.25 57.18 46.87 57.04 C 46.98 55.32 47.09 53.60 47.25 51.89 M 51.13 55.88 C 51.06 57.60 50.99 59.32 50.90 61.05 C 49.15 61.10 47.41 61.11 45.66 61.16 C 50.58 63.58 55.26 66.46 60.24 68.74 C 65.59 66.92 70.16 63.34 75.37 61.17 C 73.62 61.11 71.86 61.10 70.10 61.05 C 70.01 59.32 69.94 57.60 69.87 55.88 C 63.62 55.86 57.38 55.86 51.13 55.88 Z" />
</g>
</svg>
