<?xml version="1.0" encoding="UTF-8" ?>
<!DOCTYPE svg PUBLIC "-//W3C//DTD SVG 1.1//EN" "http://www.w3.org/Graphics/SVG/1.1/DTD/svg11.dtd">
<svg width="117px" height="140px" viewBox="0 0 117 140" version="1.1" xmlns="http://www.w3.org/2000/svg">
<g id="#000000ff">
<path fill="#000000" opacity="1.00" d=" M 0.00 0.00 L 117.00 0.00 L 117.00 140.00 L 0.00 140.00 L 0.00 0.00 M 33.18 10.23 C 17.91 11.79 5.18 25.66 5.02 41.02 C 4.99 60.38 4.98 79.75 5.03 99.11 C 5.22 115.03 19.00 129.24 34.90 129.92 C 50.62 130.09 66.35 130.00 82.08 129.96 C 98.02 129.81 112.26 115.99 112.92 100.07 C 113.11 80.73 112.95 61.39 113.00 42.05 C 113.07 33.41 109.39 24.84 103.11 18.91 C 97.04 12.99 88.52 9.78 80.05 9.98 C 64.43 10.17 48.79 9.68 33.18 10.23 Z" />
<path fill="#000000" opacity="1.00" d=" M 33.28 12.33 C 48.51 11.72 63.78 12.25 79.02 12.06 C 85.37 11.88 91.85 13.28 97.17 16.86 C 105.63 22.15 111.02 32.01 110.91 41.99 C 110.95 60.68 110.95 79.37 110.90 98.05 C 111.03 108.77 104.77 119.28 95.28 124.27 C 90.35 127.09 84.60 128.05 78.98 127.94 C 64.29 127.84 49.60 128.08 34.91 127.82 C 20.11 127.16 7.26 113.91 7.13 99.08 C 7.01 80.03 7.08 60.98 7.09 41.94 C 6.79 27.34 18.75 13.80 33.28 12.33 M 56.13 38.08 C 55.19 40.96 54.81 43.98 54.98 47.00 C 52.99 47.00 50.99 47.00 49.00 47.00 C 49.00 47.75 49.00 49.25 49.00 50.00 C 50.98 50.00 52.97 50.00 54.95 50.00 C 54.85 52.69 55.34 55.34 56.13 57.91 C 58.48 58.66 61.25 58.91 63.09 56.90 C 65.91 54.02 70.96 52.49 71.47 48.00 C 71.03 43.66 66.22 42.16 63.49 39.43 C 61.60 37.26 58.67 37.18 56.13 38.08 M 42.00 47.00 C 42.00 47.75 42.00 49.25 42.00 50.00 C 44.00 50.00 46.00 50.00 48.00 50.00 C 48.00 49.25 48.00 47.75 48.00 47.00 C 46.00 47.00 44.00 47.00 42.00 47.00 M 57.83 77.35 C 52.39 77.42 46.95 77.40 41.51 77.37 C 41.56 75.68 41.61 73.99 41.66 72.30 C 41.02 72.26 39.75 72.16 39.11 72.11 C 39.29 74.64 37.94 78.71 41.09 79.82 C 53.02 80.01 64.98 80.01 76.90 79.82 C 80.06 78.73 78.71 74.64 78.89 72.11 C 78.25 72.16 76.98 72.26 76.34 72.30 C 76.39 73.99 76.44 75.68 76.49 77.37 C 71.05 77.39 65.61 77.43 60.17 77.35 C 60.31 75.25 60.38 73.13 60.00 71.05 C 56.37 70.79 58.05 75.18 57.83 77.35 Z" />
<path fill="#000000" opacity="1.00" d=" M 60.00 41.81 C 62.67 43.86 65.33 45.93 67.99 48.00 C 65.33 50.07 62.67 52.14 60.00 54.19 C 60.00 50.06 60.00 45.94 60.00 41.81 Z" />
</g>
<g id="#737473ff">
<path fill="#737473" opacity="1.00" d=" M 33.18 10.23 C 48.79 9.68 64.43 10.17 80.05 9.98 C 88.52 9.78 97.04 12.99 103.11 18.91 C 109.39 24.84 113.07 33.41 113.00 42.05 C 112.95 61.39 113.11 80.73 112.92 100.07 C 112.26 115.99 98.02 129.81 82.08 129.96 C 66.35 130.00 50.62 130.09 34.90 129.92 C 19.00 129.24 5.22 115.03 5.03 99.11 C 4.98 79.75 4.99 60.38 5.02 41.02 C 5.18 25.66 17.91 11.79 33.18 10.23 M 33.28 12.33 C 18.75 13.80 6.79 27.34 7.09 41.94 C 7.08 60.98 7.01 80.03 7.13 99.08 C 7.26 113.91 20.11 127.16 34.91 127.82 C 49.60 128.08 64.29 127.84 78.98 127.94 C 84.60 128.05 90.35 127.09 95.28 124.27 C 104.77 119.28 111.03 108.77 110.90 98.05 C 110.95 79.37 110.95 60.68 110.91 41.99 C 111.02 32.01 105.63 22.15 97.17 16.86 C 91.85 13.28 85.37 11.88 79.02 12.06 C 63.78 12.25 48.51 11.72 33.28 12.33 Z" />
</g>
<g id="#f8fcf8ff">
<path fill="#f8fcf8" opacity="1.00" d=" M 56.13 38.08 C 58.67 37.18 61.60 37.26 63.49 39.43 C 66.22 42.16 71.03 43.66 71.47 48.00 C 70.96 52.49 65.91 54.02 63.09 56.90 C 61.25 58.91 58.48 58.66 56.13 57.91 C 55.34 55.34 54.85 52.69 54.95 50.00 C 52.97 50.00 50.98 50.00 49.00 50.00 C 49.00 49.25 49.00 47.75 49.00 47.00 C 50.99 47.00 52.99 47.00 54.98 47.00 C 54.81 43.98 55.19 40.96 56.13 38.08 M 60.00 41.81 C 60.00 45.94 60.00 50.06 60.00 54.19 C 62.67 52.14 65.33 50.07 67.99 48.00 C 65.33 45.93 62.67 43.86 60.00 41.81 Z" />
<path fill="#f8fcf8" opacity="1.00" d=" M 42.00 47.00 C 44.00 47.00 46.00 47.00 48.00 47.00 C 48.00 47.75 48.00 49.25 48.00 50.00 C 46.00 50.00 44.00 50.00 42.00 50.00 C 42.00 49.25 42.00 47.75 42.00 47.00 Z" />
<path fill="#f8fcf8" opacity="1.00" d=" M 57.83 77.35 C 58.05 75.18 56.37 70.79 60.00 71.05 C 60.38 73.13 60.31 75.25 60.17 77.35 C 65.61 77.43 71.05 77.39 76.49 77.37 C 76.44 75.68 76.39 73.99 76.34 72.30 C 76.98 72.26 78.25 72.16 78.89 72.11 C 78.71 74.64 80.06 78.73 76.90 79.82 C 64.98 80.01 53.02 80.01 41.09 79.82 C 37.94 78.71 39.29 74.64 39.11 72.11 C 39.75 72.16 41.02 72.26 41.66 72.30 C 41.61 73.99 41.56 75.68 41.51 77.37 C 46.95 77.40 52.39 77.42 57.83 77.35 Z" />
</g>
</svg>
