<?xml version="1.0" encoding="UTF-8" ?>
<!DOCTYPE svg PUBLIC "-//W3C//DTD SVG 1.1//EN" "http://www.w3.org/Graphics/SVG/1.1/DTD/svg11.dtd">
<svg width="117pt" height="140pt" viewBox="0 0 117 140" version="1.1" xmlns="http://www.w3.org/2000/svg">
<g id="#000000ff">
<path fill="#000000" opacity="1.00" d=" M 0.00 0.00 L 117.00 0.00 L 117.00 140.00 L 0.00 140.00 L 0.00 0.00 M 33.21 10.26 C 17.96 11.78 5.23 25.63 5.05 40.96 C 4.97 60.32 4.98 79.68 5.04 99.04 C 5.20 115.33 19.60 129.77 35.90 129.95 C 51.62 129.99 67.35 130.12 83.06 129.88 C 98.98 129.25 112.81 114.98 112.94 99.05 C 113.06 80.04 112.99 61.03 112.98 42.02 C 113.03 33.13 109.12 24.34 102.53 18.39 C 96.25 12.53 87.55 9.65 79.02 9.99 C 63.75 10.18 48.46 9.66 33.21 10.26 Z" />
<path fill="#000000" opacity="1.00" d=" M 33.24 12.32 C 49.48 11.77 65.75 12.16 81.99 12.12 C 97.24 12.18 110.84 25.74 110.88 41.00 C 111.01 59.65 110.90 78.32 110.93 96.97 C 111.02 102.05 110.08 107.20 107.61 111.68 C 102.74 121.52 92.01 128.04 81.04 127.91 C 65.69 127.90 50.34 128.05 34.99 127.84 C 20.16 127.25 7.21 113.95 7.12 99.08 C 6.99 81.41 7.12 63.73 7.06 46.05 C 7.07 41.98 6.98 37.84 8.14 33.90 C 11.29 22.60 21.50 13.56 33.24 12.32 M 60.35 27.14 C 56.38 31.08 52.43 35.04 48.48 39.00 C 50.08 41.13 52.49 41.59 55.00 41.27 C 55.00 43.29 55.00 45.31 55.00 47.33 C 53.03 47.32 51.06 47.33 49.09 47.33 C 49.15 44.91 48.65 42.36 46.60 40.83 C 42.71 44.82 38.73 48.71 34.81 52.67 C 38.79 56.60 42.71 60.60 46.71 64.51 C 47.48 63.64 48.24 62.77 49.01 61.89 C 49.00 60.59 49.00 59.30 49.00 58.00 C 51.00 58.00 53.00 58.00 55.00 58.00 C 55.00 60.00 55.00 62.00 55.00 64.01 C 52.48 63.66 50.11 64.22 48.45 66.25 C 52.36 70.28 56.39 74.18 60.32 78.18 C 64.30 74.28 68.19 70.28 72.19 66.39 C 70.64 64.38 68.13 63.85 65.71 63.90 C 65.71 61.94 65.71 59.97 65.71 58.00 C 67.71 58.00 69.72 58.00 71.72 58.00 C 71.37 60.53 71.89 62.92 74.01 64.52 C 77.97 60.57 81.92 56.61 85.88 52.65 C 81.95 48.73 78.04 44.80 74.11 40.89 C 73.71 41.23 72.90 41.90 72.50 42.24 C 71.98 43.90 71.69 45.60 71.62 47.33 C 69.65 47.33 67.68 47.32 65.70 47.32 C 65.70 45.30 65.70 43.27 65.81 41.25 C 67.49 41.29 69.15 41.00 70.75 40.51 C 71.09 40.11 71.76 39.31 72.10 38.91 C 68.20 34.97 64.29 31.04 60.35 27.14 Z" />
<path fill="#000000" opacity="1.00" d=" M 52.74 38.64 C 55.20 35.99 57.80 33.48 60.37 30.93 C 62.90 33.51 65.49 36.04 68.03 38.61 C 66.36 38.61 64.68 38.61 63.00 38.61 C 63.00 42.41 63.00 46.20 63.00 50.00 C 66.81 50.00 70.61 50.00 74.42 50.00 C 74.41 48.33 74.41 46.67 74.40 45.01 C 76.98 47.55 79.56 50.09 82.09 52.69 C 79.52 55.18 77.11 57.84 74.37 60.16 C 74.38 58.56 74.40 56.95 74.43 55.35 C 70.62 55.31 66.82 55.33 63.01 55.32 C 62.99 59.13 62.99 62.93 63.01 66.74 C 64.67 66.74 66.34 66.74 68.00 66.74 C 65.47 69.31 62.91 71.84 60.37 74.40 C 57.86 71.91 55.34 69.42 52.87 66.89 C 54.45 66.71 56.05 66.70 57.65 66.73 C 57.65 62.93 57.65 59.13 57.64 55.33 C 53.86 55.32 50.08 55.33 46.30 55.33 C 46.29 56.96 46.27 58.59 46.26 60.22 C 43.63 57.78 41.17 55.18 38.61 52.67 C 41.16 50.11 43.72 47.54 46.29 44.99 C 46.29 46.66 46.29 48.32 46.28 49.99 C 50.07 50.01 53.87 50.01 57.66 49.98 C 57.64 46.19 57.66 42.39 57.63 38.60 C 56.00 38.62 54.37 38.63 52.74 38.64 Z" />
</g>
<g id="#787978ff">
<path fill="#787978" opacity="1.00" d=" M 33.21 10.26 C 48.46 9.66 63.75 10.18 79.02 9.99 C 87.55 9.65 96.25 12.53 102.53 18.39 C 109.12 24.34 113.03 33.13 112.98 42.02 C 112.99 61.03 113.06 80.04 112.94 99.05 C 112.81 114.98 98.98 129.25 83.06 129.88 C 67.35 130.12 51.62 129.99 35.90 129.95 C 19.60 129.77 5.20 115.33 5.04 99.04 C 4.98 79.68 4.97 60.32 5.05 40.96 C 5.23 25.63 17.96 11.78 33.21 10.26 M 33.24 12.32 C 21.50 13.56 11.29 22.60 8.14 33.90 C 6.98 37.84 7.07 41.98 7.06 46.05 C 7.12 63.73 6.99 81.41 7.12 99.08 C 7.21 113.95 20.16 127.25 34.99 127.84 C 50.34 128.05 65.69 127.90 81.04 127.91 C 92.01 128.04 102.74 121.52 107.61 111.68 C 110.08 107.20 111.02 102.05 110.93 96.97 C 110.90 78.32 111.01 59.65 110.88 41.00 C 110.84 25.74 97.24 12.18 81.99 12.12 C 65.75 12.16 49.48 11.77 33.24 12.32 Z" />
</g>
<g id="#f8fcf8ff">
<path fill="#f8fcf8" opacity="1.00" d=" M 60.35 27.14 C 64.29 31.04 68.20 34.97 72.10 38.91 C 71.76 39.31 71.09 40.11 70.75 40.51 C 69.15 41.00 67.49 41.29 65.81 41.25 C 65.70 43.27 65.70 45.30 65.70 47.32 C 67.68 47.32 69.65 47.33 71.62 47.33 C 71.69 45.60 71.98 43.90 72.50 42.24 C 72.90 41.90 73.71 41.23 74.11 40.89 C 78.04 44.80 81.95 48.73 85.88 52.65 C 81.92 56.61 77.97 60.57 74.01 64.52 C 71.89 62.92 71.37 60.53 71.72 58.00 C 69.72 58.00 67.71 58.00 65.71 58.00 C 65.71 59.97 65.71 61.94 65.71 63.90 C 68.13 63.85 70.64 64.38 72.19 66.39 C 68.19 70.28 64.30 74.28 60.32 78.18 C 56.39 74.18 52.36 70.28 48.45 66.25 C 50.11 64.22 52.48 63.66 55.00 64.01 C 55.00 62.00 55.00 60.00 55.00 58.00 C 53.00 58.00 51.00 58.00 49.00 58.00 C 49.00 59.30 49.00 60.59 49.01 61.89 C 48.24 62.77 47.48 63.64 46.71 64.51 C 42.71 60.60 38.79 56.60 34.81 52.67 C 38.73 48.71 42.71 44.82 46.60 40.83 C 48.65 42.36 49.15 44.91 49.09 47.33 C 51.06 47.33 53.03 47.32 55.00 47.33 C 55.00 45.31 55.00 43.29 55.00 41.27 C 52.49 41.59 50.08 41.13 48.48 39.00 C 52.43 35.04 56.38 31.08 60.35 27.14 M 52.74 38.64 C 54.37 38.63 56.00 38.62 57.63 38.60 C 57.66 42.39 57.64 46.19 57.66 49.98 C 53.87 50.01 50.07 50.01 46.28 49.99 C 46.29 48.32 46.29 46.66 46.29 44.99 C 43.72 47.54 41.16 50.11 38.61 52.67 C 41.17 55.18 43.63 57.78 46.26 60.22 C 46.27 58.59 46.29 56.96 46.30 55.33 C 50.08 55.33 53.86 55.32 57.64 55.33 C 57.65 59.13 57.65 62.93 57.65 66.73 C 56.05 66.70 54.45 66.71 52.87 66.89 C 55.34 69.42 57.86 71.91 60.37 74.40 C 62.91 71.84 65.47 69.31 68.00 66.74 C 66.34 66.74 64.67 66.74 63.01 66.74 C 62.99 62.93 62.99 59.13 63.01 55.32 C 66.82 55.33 70.62 55.31 74.43 55.35 C 74.40 56.95 74.38 58.56 74.37 60.16 C 77.11 57.84 79.52 55.18 82.09 52.69 C 79.56 50.09 76.98 47.55 74.40 45.01 C 74.41 46.67 74.41 48.33 74.42 50.00 C 70.61 50.00 66.81 50.00 63.00 50.00 C 63.00 46.20 63.00 42.41 63.00 38.61 C 64.68 38.61 66.36 38.61 68.03 38.61 C 65.49 36.04 62.90 33.51 60.37 30.93 C 57.80 33.48 55.20 35.99 52.74 38.64 Z" />
</g>
</svg>
