<?xml version="1.0" encoding="UTF-8" ?>
<!DOCTYPE svg PUBLIC "-//W3C//DTD SVG 1.1//EN" "http://www.w3.org/Graphics/SVG/1.1/DTD/svg11.dtd">
<svg width="150px" height="80px" viewBox="0 0 150 80" version="1.1" xmlns="http://www.w3.org/2000/svg">
<g id="#181818ff">
<path fill="#181818" opacity="1.00" d=" M 0.00 0.00 L 150.00 0.00 L 150.00 80.00 L 0.00 80.00 L 0.00 0.00 M 17.31 14.37 C 15.57 15.19 14.86 17.16 15.01 18.99 C 14.99 33.00 14.99 47.02 15.01 61.03 C 14.86 62.85 15.58 64.79 17.30 65.63 C 19.45 66.23 21.73 65.96 23.94 66.02 C 59.33 65.97 94.72 66.02 130.11 66.00 C 132.94 66.44 135.45 63.89 134.99 61.06 C 134.96 46.67 135.09 32.27 134.93 17.88 C 134.99 15.34 132.37 13.66 130.02 14.00 C 94.69 13.99 59.36 14.02 24.03 13.98 C 21.80 14.05 19.48 13.74 17.31 14.37 Z" />
<path fill="#181818" opacity="1.00" d=" M 17.97 15.21 C 20.31 14.87 22.69 15.01 25.05 14.99 C 60.06 15.03 95.07 14.96 130.08 15.02 C 131.83 14.76 133.95 15.87 133.90 17.84 C 134.15 31.56 133.91 45.29 134.02 59.02 C 133.95 61.03 134.41 63.95 131.99 64.79 C 129.35 65.17 126.68 64.97 124.02 65.00 C 91.37 65.00 58.73 65.00 26.08 65.00 C 23.40 64.97 20.71 65.16 18.04 64.80 C 15.97 64.18 15.94 61.77 15.99 60.00 C 16.03 46.31 15.96 32.62 16.02 18.93 C 15.88 17.43 16.45 15.78 17.97 15.21 M 35.67 38.49 C 34.31 40.57 36.61 42.41 37.87 43.80 C 39.61 45.41 41.14 47.25 43.03 48.70 C 44.78 49.41 46.34 47.87 45.89 46.11 C 44.31 43.89 42.24 42.09 40.15 40.37 C 41.48 37.72 44.17 36.22 45.80 33.83 C 46.69 32.14 44.65 30.08 42.97 31.12 C 40.34 33.35 37.85 35.81 35.67 38.49 Z" />
</g>
<g id="#474ff3ff">
<path fill="#474ff3" opacity="1.00" d=" M 17.31 14.37 C 19.48 13.74 21.80 14.05 24.03 13.98 C 59.36 14.02 94.69 13.99 130.02 14.00 C 132.37 13.66 134.99 15.34 134.93 17.88 C 135.09 32.27 134.96 46.67 134.99 61.06 C 135.45 63.89 132.94 66.44 130.11 66.00 C 94.72 66.02 59.33 65.97 23.94 66.02 C 21.73 65.96 19.45 66.23 17.30 65.63 C 15.58 64.79 14.86 62.85 15.01 61.03 C 14.99 47.02 14.99 33.00 15.01 18.99 C 14.86 17.16 15.57 15.19 17.31 14.37 M 17.97 15.21 C 16.45 15.78 15.88 17.43 16.02 18.93 C 15.96 32.62 16.03 46.31 15.99 60.00 C 15.94 61.77 15.97 64.18 18.04 64.80 C 20.71 65.16 23.40 64.97 26.08 65.00 C 58.73 65.00 91.37 65.00 124.02 65.00 C 126.68 64.97 129.35 65.17 131.99 64.79 C 134.41 63.95 133.95 61.03 134.02 59.02 C 133.91 45.29 134.15 31.56 133.90 17.84 C 133.95 15.87 131.83 14.76 130.08 15.02 C 95.07 14.96 60.06 15.03 25.05 14.99 C 22.69 15.01 20.31 14.87 17.97 15.21 Z" />
</g>
<g id="#f8bc60ff">
<path fill="#f8bc60" opacity="1.00" d=" M 35.67 38.49 C 37.85 35.81 40.34 33.35 42.97 31.12 C 44.65 30.08 46.69 32.14 45.80 33.83 C 44.17 36.22 41.48 37.72 40.15 40.37 C 39.42 41.53 38.66 42.68 37.87 43.80 C 36.61 42.41 34.31 40.57 35.67 38.49 Z" />
</g>
<g id="#f89c48ff">
<path fill="#f89c48" opacity="1.00" d=" M 40.15 40.37 C 42.24 42.09 44.31 43.89 45.89 46.11 C 46.34 47.87 44.78 49.41 43.03 48.70 C 41.14 47.25 39.61 45.41 37.87 43.80 C 38.66 42.68 39.42 41.53 40.15 40.37 Z" />
</g>
</svg>
