<?xml version="1.0" encoding="UTF-8" ?>
<!DOCTYPE svg PUBLIC "-//W3C//DTD SVG 1.1//EN" "http://www.w3.org/Graphics/SVG/1.1/DTD/svg11.dtd">
<svg width="117pt" height="140pt" viewBox="0 0 117 140" version="1.1" xmlns="http://www.w3.org/2000/svg">
<g id="#000000ff">
<path fill="#000000" opacity="1.00" d=" M 0.00 0.00 L 117.00 0.00 L 117.00 140.00 L 0.00 140.00 L 0.00 0.00 M 33.17 10.23 C 17.93 11.79 5.20 25.62 5.03 40.95 C 4.98 60.31 4.98 79.68 5.02 99.03 C 5.16 115.35 19.62 129.83 35.94 129.97 C 51.65 129.98 67.36 130.10 83.07 129.91 C 99.01 129.27 112.84 114.98 112.97 99.03 C 113.02 79.68 113.02 60.32 112.97 40.97 C 112.76 28.20 103.99 16.20 91.98 11.95 C 84.64 9.08 76.66 10.22 68.99 10.00 C 57.05 10.15 45.09 9.70 33.17 10.23 Z" />
<path fill="#000000" opacity="1.00" d=" M 33.23 12.34 C 48.46 11.72 63.73 12.25 78.97 12.06 C 85.32 11.88 91.80 13.26 97.12 16.83 C 105.60 22.11 111.02 31.98 110.90 41.98 C 110.95 60.65 110.95 79.33 110.90 98.00 C 111.05 108.99 104.48 119.74 94.63 124.61 C 89.86 127.20 84.37 128.02 79.00 127.94 C 64.30 127.84 49.59 128.09 34.90 127.82 C 20.10 127.14 7.26 113.90 7.13 99.08 C 7.03 79.70 7.03 60.32 7.13 40.94 C 7.29 26.72 19.09 13.81 33.23 12.34 M 60.08 41.59 C 55.03 42.42 50.60 46.14 49.90 51.37 C 45.48 51.25 41.04 51.05 36.62 51.35 C 40.90 52.20 45.31 51.57 49.64 51.87 C 50.19 57.29 54.26 62.02 59.82 62.62 C 59.97 66.88 59.91 71.24 60.72 75.42 C 61.10 71.15 60.43 66.87 60.56 62.60 C 66.23 62.50 70.97 57.86 71.31 52.22 C 75.65 51.82 80.06 52.04 84.37 51.42 C 80.02 50.95 75.64 51.44 71.28 51.51 C 70.63 46.19 66.03 41.94 60.66 41.80 C 60.73 37.39 60.92 32.96 60.71 28.55 C 59.77 32.83 60.38 37.25 60.08 41.59 Z" />
</g>
<g id="#737373ff">
<path fill="#737373" opacity="1.00" d=" M 33.17 10.23 C 45.09 9.70 57.05 10.15 68.99 10.00 C 76.66 10.22 84.64 9.08 91.98 11.95 C 103.99 16.20 112.76 28.20 112.97 40.97 C 113.02 60.32 113.02 79.68 112.97 99.03 C 112.84 114.98 99.01 129.27 83.07 129.91 C 67.36 130.10 51.65 129.98 35.94 129.97 C 19.62 129.83 5.16 115.35 5.02 99.03 C 4.98 79.68 4.98 60.31 5.03 40.95 C 5.20 25.62 17.93 11.79 33.17 10.23 M 33.23 12.34 C 19.09 13.81 7.29 26.72 7.13 40.94 C 7.03 60.32 7.03 79.70 7.13 99.08 C 7.26 113.90 20.10 127.14 34.90 127.82 C 49.59 128.09 64.30 127.84 79.00 127.94 C 84.37 128.02 89.86 127.20 94.63 124.61 C 104.48 119.74 111.05 108.99 110.90 98.00 C 110.95 79.33 110.95 60.65 110.90 41.98 C 111.02 31.98 105.60 22.11 97.12 16.83 C 91.80 13.26 85.32 11.88 78.97 12.06 C 63.73 12.25 48.46 11.72 33.23 12.34 Z" />
</g>
<g id="#f8fcf8ff">
<path fill="#f8fcf8" opacity="1.00" d=" M 60.08 41.59 C 60.38 37.25 59.77 32.83 60.71 28.55 C 60.92 32.96 60.73 37.39 60.66 41.80 C 66.03 41.94 70.63 46.19 71.28 51.51 C 75.64 51.44 80.02 50.95 84.37 51.42 C 80.06 52.04 75.65 51.82 71.31 52.22 C 70.97 57.86 66.23 62.50 60.56 62.60 C 60.43 66.87 61.10 71.15 60.72 75.42 C 59.91 71.24 59.97 66.88 59.82 62.62 C 54.26 62.02 50.19 57.29 49.64 51.87 C 45.31 51.57 40.90 52.20 36.62 51.35 C 41.04 51.05 45.48 51.25 49.90 51.37 C 50.60 46.14 55.03 42.42 60.08 41.59 Z" />
</g>
</svg>
