<?xml version="1.0" encoding="UTF-8" ?>
<!DOCTYPE svg PUBLIC "-//W3C//DTD SVG 1.1//EN" "http://www.w3.org/Graphics/SVG/1.1/DTD/svg11.dtd">
<svg width="117px" height="140px" viewBox="0 0 117 140" version="1.1" xmlns="http://www.w3.org/2000/svg">
<g id="#000000ff">
<path fill="#000000" opacity="1.00" d=" M 0.00 0.00 L 117.00 0.00 L 117.00 140.00 L 0.00 140.00 L 0.00 0.00 M 57.22 35.23 C 53.58 36.78 49.34 38.15 47.41 41.94 C 47.66 43.39 48.03 44.82 48.51 46.21 C 43.06 47.00 38.27 50.16 34.55 54.10 C 41.52 62.12 49.52 69.23 56.92 76.87 C 61.15 73.19 64.65 68.69 66.02 63.15 C 67.02 63.60 68.02 64.05 69.02 64.50 C 77.18 58.84 77.98 48.32 81.42 39.82 C 82.73 36.57 81.49 32.96 78.85 30.80 C 77.92 30.49 77.00 30.13 76.10 29.72 C 69.55 30.48 63.55 33.52 57.22 35.23 Z" />
<path fill="#000000" opacity="1.00" d=" M 50.06 42.66 C 56.18 37.28 64.78 36.52 72.07 33.39 C 74.95 31.54 79.30 33.54 79.00 37.12 C 77.19 43.74 74.68 50.14 72.69 56.71 C 71.68 58.50 70.14 59.90 68.98 61.59 C 67.46 60.17 65.97 58.72 64.47 57.28 C 62.95 62.70 62.02 68.81 57.63 72.77 C 56.90 72.51 56.28 72.10 55.76 71.51 C 50.09 65.88 44.54 60.12 38.76 54.61 C 42.34 49.69 49.08 49.34 54.33 47.15 C 52.90 45.66 51.46 44.18 50.06 42.66 Z" />
</g>
<g id="#f7fbf7ff">
<path fill="#f7fbf7" opacity="1.00" d=" M 57.22 35.23 C 63.55 33.52 69.55 30.48 76.10 29.72 C 77.00 30.13 77.92 30.49 78.85 30.80 C 81.49 32.96 82.73 36.57 81.42 39.82 C 77.98 48.32 77.18 58.84 69.02 64.50 C 68.02 64.05 67.02 63.60 66.02 63.15 C 64.65 68.69 61.15 73.19 56.92 76.87 C 49.52 69.23 41.52 62.12 34.55 54.10 C 38.27 50.16 43.06 47.00 48.51 46.21 C 48.03 44.82 47.66 43.39 47.41 41.94 C 49.34 38.15 53.58 36.78 57.22 35.23 M 50.06 42.66 C 51.46 44.18 52.90 45.66 54.33 47.15 C 49.08 49.34 42.34 49.69 38.76 54.61 C 44.54 60.12 50.09 65.88 55.76 71.51 C 56.28 72.10 56.90 72.51 57.63 72.77 C 62.02 68.81 62.95 62.70 64.47 57.28 C 65.97 58.72 67.46 60.17 68.98 61.59 C 70.14 59.90 71.68 58.50 72.69 56.71 C 74.68 50.14 77.19 43.74 79.00 37.12 C 79.30 33.54 74.95 31.54 72.07 33.39 C 64.78 36.52 56.18 37.28 50.06 42.66 Z" />
</g>
</svg>
