<?xml version="1.0" encoding="UTF-8" ?>
<!DOCTYPE svg PUBLIC "-//W3C//DTD SVG 1.1//EN" "http://www.w3.org/Graphics/SVG/1.1/DTD/svg11.dtd">
<svg width="117pt" height="140pt" viewBox="0 0 117 140" version="1.1" xmlns="http://www.w3.org/2000/svg">
<g id="#000000ff">
<path fill="#000000" opacity="1.00" d=" M 0.00 0.00 L 117.00 0.00 L 117.00 140.00 L 0.00 140.00 L 0.00 0.00 M 33.15 10.21 C 17.92 11.79 5.20 25.59 5.01 40.92 C 5.02 60.63 4.94 80.34 5.05 100.04 C 5.72 115.62 19.32 129.25 34.91 129.94 C 50.60 130.07 66.31 129.98 82.01 129.99 C 97.98 129.86 112.27 116.03 112.94 100.08 C 113.08 80.73 112.95 61.36 113.01 42.00 C 113.09 33.38 109.39 24.83 103.13 18.90 C 97.05 12.98 88.52 9.74 80.04 9.98 C 64.41 10.16 48.76 9.71 33.15 10.21 Z" />
<path fill="#000000" opacity="1.00" d=" M 33.24 12.35 C 48.48 11.70 63.77 12.26 79.03 12.06 C 85.36 11.89 91.81 13.31 97.12 16.85 C 105.61 22.13 110.97 32.01 110.90 42.00 C 110.94 60.69 110.95 79.38 110.90 98.07 C 110.96 105.67 107.82 113.12 102.66 118.65 C 97.06 124.48 89.08 127.91 80.99 127.90 C 66.33 127.95 51.66 127.94 37.00 127.91 C 26.56 127.95 16.24 122.11 11.15 112.96 C 8.26 108.17 6.97 102.55 7.07 96.99 C 7.08 78.67 7.05 60.35 7.09 42.04 C 6.79 27.43 18.69 13.86 33.24 12.35 M 48.24 31.46 C 49.58 34.88 50.91 38.30 52.22 41.72 C 56.44 39.47 61.56 39.47 65.78 41.72 C 67.09 38.32 68.38 34.91 69.78 31.54 C 63.11 28.12 54.96 28.21 48.24 31.46 M 57.36 46.47 C 51.96 47.35 49.54 54.76 53.51 58.59 C 57.29 62.97 65.52 60.77 66.34 54.95 C 67.54 49.91 62.25 45.17 57.36 46.47 M 33.88 56.87 C 34.43 64.21 38.43 71.14 44.66 75.10 C 47.05 72.28 49.38 69.41 51.77 66.60 C 47.72 64.18 45.13 59.84 44.94 55.12 C 41.26 55.72 37.56 56.28 33.88 56.87 M 73.06 55.12 C 72.87 59.83 70.29 64.18 66.24 66.59 C 68.60 69.41 70.96 72.24 73.29 75.09 C 79.58 71.20 83.55 64.20 84.12 56.87 C 80.44 56.28 76.75 55.72 73.06 55.12 Z" />
</g>
<g id="#6f6f6fff">
<path fill="#6f6f6f" opacity="1.00" d=" M 33.15 10.21 C 48.76 9.71 64.41 10.16 80.04 9.98 C 88.52 9.74 97.05 12.98 103.13 18.90 C 109.39 24.83 113.09 33.38 113.01 42.00 C 112.95 61.36 113.08 80.73 112.94 100.08 C 112.27 116.03 97.98 129.86 82.01 129.99 C 66.31 129.98 50.60 130.07 34.91 129.94 C 19.32 129.25 5.72 115.62 5.05 100.04 C 4.94 80.34 5.02 60.63 5.01 40.92 C 5.20 25.59 17.92 11.79 33.15 10.21 M 33.24 12.35 C 18.69 13.86 6.79 27.43 7.09 42.04 C 7.05 60.35 7.08 78.67 7.07 96.99 C 6.97 102.55 8.26 108.17 11.15 112.96 C 16.24 122.11 26.56 127.95 37.00 127.91 C 51.66 127.94 66.33 127.95 80.99 127.90 C 89.08 127.91 97.06 124.48 102.66 118.65 C 107.82 113.12 110.96 105.67 110.90 98.07 C 110.95 79.38 110.94 60.69 110.90 42.00 C 110.97 32.01 105.61 22.13 97.12 16.85 C 91.81 13.31 85.36 11.89 79.03 12.06 C 63.77 12.26 48.48 11.70 33.24 12.35 Z" />
</g>
<g id="#f8fcf8ff">
<path fill="#f8fcf8" opacity="1.00" d=" M 48.24 31.46 C 54.96 28.21 63.11 28.12 69.78 31.54 C 68.38 34.91 67.09 38.32 65.78 41.72 C 61.56 39.47 56.44 39.47 52.22 41.72 C 50.91 38.30 49.58 34.88 48.24 31.46 Z" />
<path fill="#f8fcf8" opacity="1.00" d=" M 57.36 46.47 C 62.25 45.17 67.54 49.91 66.34 54.95 C 65.52 60.77 57.29 62.97 53.51 58.59 C 49.54 54.76 51.96 47.35 57.36 46.47 Z" />
<path fill="#f8fcf8" opacity="1.00" d=" M 33.88 56.87 C 37.56 56.28 41.26 55.72 44.94 55.12 C 45.13 59.84 47.72 64.18 51.77 66.60 C 49.38 69.41 47.05 72.28 44.66 75.10 C 38.43 71.14 34.43 64.21 33.88 56.87 Z" />
<path fill="#f8fcf8" opacity="1.00" d=" M 73.06 55.12 C 76.75 55.72 80.44 56.28 84.12 56.87 C 83.55 64.20 79.58 71.20 73.29 75.09 C 70.96 72.24 68.60 69.41 66.24 66.59 C 70.29 64.18 72.87 59.83 73.06 55.12 Z" />
</g>
</svg>
