<?xml version="1.0" encoding="UTF-8" ?>
<!DOCTYPE svg PUBLIC "-//W3C//DTD SVG 1.1//EN" "http://www.w3.org/Graphics/SVG/1.1/DTD/svg11.dtd">
<svg width="117pt" height="140pt" viewBox="0 0 117 140" version="1.1" xmlns="http://www.w3.org/2000/svg">
<g id="#000000ff">
<path fill="#000000" opacity="1.00" d=" M 0.00 0.00 L 117.00 0.00 L 117.00 140.00 L 0.00 140.00 L 0.00 0.00 M 33.18 10.23 C 20.70 11.59 9.64 21.00 6.27 33.09 C 4.52 38.57 5.07 44.38 5.00 50.04 C 5.05 66.72 4.90 83.40 5.07 100.08 C 5.76 115.64 19.35 129.25 34.92 129.92 C 49.94 130.12 64.97 129.93 80.00 130.01 C 85.07 130.09 90.18 129.12 94.75 126.88 C 105.68 121.80 113.16 110.10 113.00 98.02 C 113.00 79.35 113.00 60.69 113.00 42.02 C 113.07 33.39 109.38 24.84 103.12 18.91 C 97.03 12.97 88.48 9.76 79.99 9.98 C 64.39 10.17 48.77 9.69 33.18 10.23 Z" />
<path fill="#000000" opacity="1.00" d=" M 33.25 12.34 C 48.83 11.72 64.44 12.24 80.04 12.07 C 87.26 11.90 94.46 14.32 100.04 18.91 C 106.81 24.50 111.00 33.18 110.91 41.99 C 110.97 59.33 110.90 76.68 110.94 94.03 C 111.12 100.04 110.60 106.30 107.60 111.65 C 102.73 121.53 91.96 128.01 80.97 127.91 C 65.97 127.93 50.96 127.99 35.95 127.88 C 21.10 127.71 7.80 114.88 7.18 100.04 C 6.93 83.68 7.14 67.31 7.07 50.95 C 7.14 44.08 6.43 36.86 9.42 30.43 C 13.42 20.74 22.80 13.52 33.25 12.34 M 37.56 43.83 C 36.70 46.85 35.19 50.30 36.62 53.35 C 40.70 53.94 44.90 53.39 49.02 53.59 C 49.88 58.82 54.32 62.74 59.57 63.19 C 59.43 67.58 59.01 71.98 59.35 76.38 C 59.95 72.01 59.68 67.56 60.34 63.18 C 65.37 62.29 69.45 58.38 70.13 53.25 C 74.50 52.88 78.94 53.10 83.27 52.38 C 78.92 51.92 74.56 52.44 70.21 52.43 C 69.85 47.15 65.90 42.63 60.66 41.74 C 60.70 37.54 60.65 33.35 60.73 29.15 C 59.54 28.58 58.26 28.00 56.90 28.36 C 48.17 29.22 40.39 35.56 37.56 43.83 Z" />
<path fill="#000000" opacity="1.00" d=" M 57.17 43.17 C 63.57 41.25 70.21 47.52 68.87 54.00 C 67.95 60.93 58.44 64.71 53.38 59.53 C 47.53 55.01 50.18 44.83 57.17 43.17 Z" />
</g>
<g id="#727372ff">
<path fill="#727372" opacity="1.00" d=" M 33.18 10.23 C 48.77 9.69 64.39 10.17 79.99 9.98 C 88.48 9.76 97.03 12.97 103.12 18.91 C 109.38 24.84 113.07 33.39 113.00 42.02 C 113.00 60.69 113.00 79.35 113.00 98.02 C 113.16 110.10 105.68 121.80 94.75 126.88 C 90.18 129.12 85.07 130.09 80.00 130.01 C 64.97 129.93 49.94 130.12 34.92 129.92 C 19.35 129.25 5.76 115.64 5.07 100.08 C 4.90 83.40 5.05 66.72 5.00 50.04 C 5.07 44.38 4.52 38.57 6.27 33.09 C 9.64 21.00 20.70 11.59 33.18 10.23 M 33.25 12.34 C 22.80 13.52 13.42 20.74 9.42 30.43 C 6.43 36.86 7.14 44.08 7.07 50.95 C 7.14 67.31 6.93 83.68 7.18 100.04 C 7.80 114.88 21.10 127.71 35.95 127.88 C 50.96 127.99 65.97 127.93 80.97 127.91 C 91.96 128.01 102.73 121.53 107.60 111.65 C 110.60 106.30 111.12 100.04 110.94 94.03 C 110.90 76.68 110.97 59.33 110.91 41.99 C 111.00 33.18 106.81 24.50 100.04 18.91 C 94.46 14.32 87.26 11.90 80.04 12.07 C 64.44 12.24 48.83 11.72 33.25 12.34 Z" />
</g>
<g id="#f8fcf8ff">
<path fill="#f8fcf8" opacity="1.00" d=" M 37.56 43.83 C 40.39 35.56 48.17 29.22 56.90 28.36 C 58.26 28.00 59.54 28.58 60.73 29.15 C 60.65 33.35 60.70 37.54 60.66 41.74 C 65.90 42.63 69.85 47.15 70.21 52.43 C 74.56 52.44 78.92 51.92 83.27 52.38 C 78.94 53.10 74.50 52.88 70.13 53.25 C 69.45 58.38 65.37 62.29 60.34 63.18 C 59.68 67.56 59.95 72.01 59.35 76.38 C 59.01 71.98 59.43 67.58 59.57 63.19 C 54.32 62.74 49.88 58.82 49.02 53.59 C 44.90 53.39 40.70 53.94 36.62 53.35 C 35.19 50.30 36.70 46.85 37.56 43.83 M 57.17 43.17 C 50.18 44.83 47.53 55.01 53.38 59.53 C 58.44 64.71 67.95 60.93 68.87 54.00 C 70.21 47.52 63.57 41.25 57.17 43.17 Z" />
</g>
</svg>
