<?xml version="1.0" encoding="UTF-8" ?>
<!DOCTYPE svg PUBLIC "-//W3C//DTD SVG 1.1//EN" "http://www.w3.org/Graphics/SVG/1.1/DTD/svg11.dtd">
<svg width="117pt" height="140pt" viewBox="0 0 117 140" version="1.1" xmlns="http://www.w3.org/2000/svg">
<g id="#000000ff">
<path fill="#000000" opacity="1.00" d=" M 0.00 0.00 L 117.00 0.00 L 117.00 140.00 L 0.00 140.00 L 0.00 0.00 M 33.18 10.22 C 17.92 11.77 5.17 25.64 5.02 41.00 C 4.97 59.99 5.02 78.99 4.99 97.99 C 4.92 107.35 9.30 116.58 16.48 122.55 C 22.43 127.55 30.23 130.21 37.99 130.02 C 53.02 129.92 68.04 130.12 83.07 129.93 C 99.01 129.26 112.87 114.98 112.97 99.01 C 113.04 79.99 112.98 60.97 113.00 41.95 C 113.08 31.67 107.75 21.59 99.31 15.76 C 93.42 11.61 86.13 9.68 78.95 9.98 C 63.70 10.18 48.42 9.69 33.18 10.22 Z" />
<path fill="#000000" opacity="1.00" d=" M 30.49 12.69 C 33.61 12.01 36.81 11.97 39.99 11.99 C 54.32 12.07 68.66 11.88 82.99 12.09 C 98.27 12.70 111.42 26.73 110.99 42.04 C 110.99 61.04 111.06 80.04 110.95 99.04 C 110.79 110.48 103.21 121.27 92.68 125.64 C 88.40 127.60 83.63 128.05 78.97 128.00 C 64.63 127.97 50.28 128.06 35.93 127.96 C 19.92 127.86 6.07 112.95 6.99 96.99 C 7.03 78.31 6.95 59.63 7.04 40.95 C 7.21 27.63 17.50 15.42 30.49 12.69 M 25.83 27.96 C 24.82 30.16 25.08 32.62 25.07 34.98 C 25.12 48.03 25.05 61.09 25.09 74.14 C 24.85 75.77 26.33 77.17 27.93 76.98 C 48.32 77.01 68.72 77.02 89.12 76.98 C 90.79 77.21 92.26 75.80 91.99 74.10 C 92.05 61.06 91.96 48.02 92.02 34.98 C 91.97 32.61 92.33 30.11 91.19 27.93 C 69.41 28.07 47.62 28.01 25.83 27.96 Z" />
<path fill="#000000" opacity="1.00" d=" M 27.39 74.63 C 27.46 59.68 26.95 44.68 27.64 29.75 C 48.23 29.80 68.82 29.83 89.41 29.73 C 90.08 33.46 89.69 37.26 89.77 41.02 C 89.72 52.24 89.89 63.46 89.68 74.68 C 68.92 74.81 48.15 74.90 27.39 74.63 M 80.21 35.23 C 79.93 35.46 79.37 35.93 79.09 36.16 C 77.16 40.45 86.26 39.96 83.80 35.81 C 82.68 35.40 81.41 34.67 80.21 35.23 M 32.01 37.12 C 32.05 37.79 32.14 39.14 32.19 39.81 C 46.15 39.88 60.11 39.84 74.08 39.84 C 76.05 40.27 77.16 38.91 76.54 37.03 C 61.70 37.07 46.85 36.90 32.01 37.12 M 79.00 47.08 C 78.76 49.94 82.15 48.71 83.85 48.73 C 83.67 47.48 84.47 45.50 82.90 44.90 C 81.30 43.44 78.49 44.95 79.00 47.08 M 31.93 47.00 C 32.04 47.68 32.26 49.04 32.36 49.73 C 42.82 49.71 53.29 49.85 63.75 49.67 C 65.43 49.96 65.65 48.27 66.16 47.11 C 54.75 46.86 43.34 47.07 31.93 47.00 M 78.97 56.02 C 78.55 58.71 82.02 58.18 83.61 57.66 C 83.91 56.61 84.00 55.53 83.86 54.41 C 82.21 54.22 78.77 53.26 78.97 56.02 M 32.27 55.30 C 32.19 55.96 32.02 57.29 31.94 57.95 C 44.65 58.07 57.36 57.97 70.07 58.00 C 69.99 57.32 69.84 55.96 69.76 55.28 C 57.26 55.35 44.77 55.32 32.27 55.30 M 78.96 65.00 C 78.70 67.82 81.46 68.15 83.51 67.36 C 83.69 66.04 83.80 64.71 83.84 63.38 C 82.08 63.17 78.88 62.17 78.96 65.00 M 32.06 65.09 C 32.07 65.79 32.08 67.19 32.09 67.89 C 40.80 68.00 49.52 68.12 58.22 67.84 C 58.30 67.14 58.46 65.74 58.53 65.04 C 49.71 65.14 40.89 65.05 32.06 65.09 Z" />
</g>
<g id="#717271ff">
<path fill="#717271" opacity="1.00" d=" M 33.18 10.22 C 48.42 9.69 63.70 10.18 78.95 9.98 C 86.13 9.68 93.42 11.61 99.31 15.76 C 107.75 21.59 113.08 31.67 113.00 41.95 C 112.98 60.97 113.04 79.99 112.97 99.01 C 112.87 114.98 99.01 129.26 83.07 129.93 C 68.04 130.12 53.02 129.92 37.99 130.02 C 30.23 130.21 22.43 127.55 16.48 122.55 C 9.30 116.58 4.92 107.35 4.99 97.99 C 5.02 78.99 4.97 59.99 5.02 41.00 C 5.17 25.64 17.92 11.77 33.18 10.22 M 30.49 12.69 C 17.50 15.42 7.21 27.63 7.04 40.95 C 6.95 59.63 7.03 78.31 6.99 96.99 C 6.07 112.95 19.92 127.86 35.93 127.96 C 50.28 128.06 64.63 127.97 78.97 128.00 C 83.63 128.05 88.40 127.60 92.68 125.64 C 103.21 121.27 110.79 110.48 110.95 99.04 C 111.06 80.04 110.99 61.04 110.99 42.04 C 111.42 26.73 98.27 12.70 82.99 12.09 C 68.66 11.88 54.32 12.07 39.99 11.99 C 36.81 11.97 33.61 12.01 30.49 12.69 Z" />
</g>
<g id="#f5f8f5ff">
<path fill="#f5f8f5" opacity="1.00" d=" M 25.83 27.96 C 47.62 28.01 69.41 28.07 91.19 27.93 C 92.33 30.11 91.97 32.61 92.02 34.98 C 91.96 48.02 92.05 61.06 91.99 74.10 C 92.26 75.80 90.79 77.21 89.12 76.98 C 68.72 77.02 48.32 77.01 27.93 76.98 C 26.33 77.17 24.85 75.77 25.09 74.14 C 25.05 61.09 25.12 48.03 25.07 34.98 C 25.08 32.62 24.82 30.16 25.83 27.96 M 27.39 74.63 C 48.15 74.90 68.92 74.81 89.68 74.68 C 89.89 63.46 89.72 52.24 89.77 41.02 C 89.69 37.26 90.08 33.46 89.41 29.73 C 68.82 29.83 48.23 29.80 27.64 29.75 C 26.95 44.68 27.46 59.68 27.39 74.63 Z" />
<path fill="#f5f8f5" opacity="1.00" d=" M 80.21 35.23 C 81.41 34.67 82.68 35.40 83.80 35.81 C 86.26 39.96 77.16 40.45 79.09 36.16 C 79.37 35.93 79.93 35.46 80.21 35.23 Z" />
<path fill="#f5f8f5" opacity="1.00" d=" M 32.01 37.12 C 46.85 36.90 61.70 37.07 76.54 37.03 C 77.16 38.91 76.05 40.27 74.08 39.84 C 60.11 39.84 46.15 39.88 32.19 39.81 C 32.14 39.14 32.05 37.79 32.01 37.12 Z" />
<path fill="#f5f8f5" opacity="1.00" d=" M 79.00 47.08 C 78.49 44.95 81.30 43.44 82.90 44.90 C 84.47 45.50 83.67 47.48 83.85 48.73 C 82.15 48.71 78.76 49.94 79.00 47.08 Z" />
<path fill="#f5f8f5" opacity="1.00" d=" M 31.93 47.00 C 43.34 47.07 54.75 46.86 66.16 47.11 C 65.65 48.27 65.43 49.96 63.75 49.67 C 53.29 49.85 42.82 49.71 32.36 49.73 C 32.26 49.04 32.04 47.68 31.93 47.00 Z" />
<path fill="#f5f8f5" opacity="1.00" d=" M 78.97 56.02 C 78.77 53.26 82.21 54.22 83.86 54.41 C 84.00 55.53 83.91 56.61 83.61 57.66 C 82.02 58.18 78.55 58.71 78.97 56.02 Z" />
<path fill="#f5f8f5" opacity="1.00" d=" M 32.27 55.30 C 44.77 55.32 57.26 55.35 69.76 55.28 C 69.84 55.96 69.99 57.32 70.07 58.00 C 57.36 57.97 44.65 58.07 31.94 57.95 C 32.02 57.29 32.19 55.96 32.27 55.30 Z" />
<path fill="#f5f8f5" opacity="1.00" d=" M 78.96 65.00 C 78.88 62.17 82.08 63.17 83.84 63.38 C 83.80 64.71 83.69 66.04 83.51 67.36 C 81.46 68.15 78.70 67.82 78.96 65.00 Z" />
<path fill="#f5f8f5" opacity="1.00" d=" M 32.06 65.09 C 40.89 65.05 49.71 65.14 58.53 65.04 C 58.46 65.74 58.30 67.14 58.22 67.84 C 49.52 68.12 40.80 68.00 32.09 67.89 C 32.08 67.19 32.07 65.79 32.06 65.09 Z" />
</g>
</svg>
