<?xml version="1.0" encoding="UTF-8" ?>
<!DOCTYPE svg PUBLIC "-//W3C//DTD SVG 1.1//EN" "http://www.w3.org/Graphics/SVG/1.1/DTD/svg11.dtd">
<svg width="117pt" height="140pt" viewBox="0 0 117 140" version="1.1" xmlns="http://www.w3.org/2000/svg">
<g id="#000000ff">
<path fill="#000000" opacity="1.00" d=" M 0.00 0.00 L 117.00 0.00 L 117.00 140.00 L 0.00 140.00 L 0.00 0.00 M 33.18 10.24 C 17.94 11.78 5.22 25.62 5.03 40.95 C 4.98 60.33 4.97 79.71 5.03 99.09 C 5.22 115.00 18.97 129.21 34.86 129.90 C 50.59 130.10 66.33 130.00 82.06 129.95 C 98.35 129.82 112.81 115.38 112.95 99.09 C 113.06 80.04 112.99 60.99 112.99 41.94 C 113.03 32.84 108.91 23.88 102.04 17.93 C 95.78 12.34 87.27 9.63 78.94 9.98 C 63.69 10.18 48.42 9.66 33.18 10.24 Z" />
<path fill="#000000" opacity="1.00" d=" M 33.22 12.34 C 48.46 11.72 63.73 12.25 78.98 12.06 C 85.33 11.87 91.82 13.25 97.15 16.83 C 105.62 22.13 111.04 31.98 110.91 41.98 C 110.96 60.34 110.92 78.69 110.93 97.05 C 111.04 102.58 109.79 108.16 106.92 112.92 C 101.83 122.09 91.54 127.98 81.08 127.91 C 66.40 127.96 51.72 127.94 37.04 127.91 C 26.30 128.05 15.76 121.83 10.75 112.32 C 8.08 107.69 6.97 102.31 7.07 97.00 C 7.10 78.32 6.99 59.64 7.12 40.97 C 7.26 26.74 19.07 13.80 33.22 12.34 M 46.08 30.10 C 46.15 35.69 46.12 41.27 46.12 46.86 C 43.96 46.86 41.80 46.87 39.65 46.87 C 39.64 52.06 39.67 57.26 39.62 62.45 C 42.92 62.46 46.22 62.45 49.52 62.48 C 52.47 65.34 55.11 68.55 58.40 71.05 C 57.27 72.97 57.83 75.25 57.80 77.36 C 52.37 77.41 46.94 77.39 41.51 77.37 C 41.56 75.68 41.61 73.99 41.66 72.30 C 41.02 72.25 39.73 72.16 39.09 72.12 C 39.06 74.10 38.88 76.09 39.20 78.06 C 40.05 80.52 43.00 79.85 45.00 79.96 C 55.65 79.82 66.31 80.14 76.95 79.81 C 80.06 78.67 78.71 74.62 78.89 72.09 C 78.25 72.15 76.97 72.26 76.33 72.32 C 76.38 74.00 76.43 75.69 76.49 77.37 C 71.06 77.39 65.62 77.41 60.19 77.35 C 60.16 75.25 60.73 72.98 59.60 71.05 C 62.89 68.55 65.53 65.33 68.50 62.48 C 71.79 62.45 75.09 62.46 78.38 62.45 C 78.33 57.26 78.36 52.06 78.35 46.87 C 76.19 46.87 74.04 46.86 71.88 46.86 C 71.88 41.27 71.85 35.69 71.92 30.10 C 63.31 30.04 54.69 30.03 46.08 30.10 Z" />
<path fill="#000000" opacity="1.00" d=" M 48.65 32.62 C 55.55 32.61 62.45 32.61 69.35 32.62 C 69.25 38.22 69.43 43.82 69.20 49.42 C 71.41 49.47 73.63 49.49 75.84 49.51 C 75.75 52.94 75.76 56.37 75.83 59.80 C 64.61 59.86 53.39 59.86 42.17 59.80 C 42.24 56.38 42.26 52.95 42.13 49.53 C 48.68 49.39 55.23 49.56 61.78 49.43 C 61.69 48.57 61.60 47.70 61.51 46.84 C 57.24 46.88 52.97 46.86 48.70 46.87 C 48.68 45.14 48.67 43.42 48.65 41.69 C 52.97 41.63 57.30 41.92 61.61 41.55 C 61.65 40.96 61.72 39.78 61.76 39.18 C 57.40 39.09 53.05 39.11 48.69 39.16 C 48.68 36.98 48.67 34.80 48.65 32.62 Z" />
<path fill="#000000" opacity="1.00" d=" M 53.00 62.53 C 56.99 62.40 60.99 62.42 64.98 62.51 C 63.00 64.53 60.95 66.48 59.00 68.51 C 57.05 66.47 55.01 64.52 53.00 62.53 Z" />
</g>
<g id="#757675ff">
<path fill="#757675" opacity="1.00" d=" M 33.18 10.24 C 48.42 9.66 63.69 10.18 78.94 9.98 C 87.27 9.63 95.78 12.34 102.04 17.93 C 108.91 23.88 113.03 32.84 112.99 41.94 C 112.99 60.99 113.06 80.04 112.95 99.09 C 112.81 115.38 98.35 129.82 82.06 129.95 C 66.33 130.00 50.59 130.10 34.86 129.90 C 18.97 129.21 5.22 115.00 5.03 99.09 C 4.97 79.71 4.98 60.33 5.03 40.95 C 5.22 25.62 17.94 11.78 33.18 10.24 M 33.22 12.34 C 19.07 13.80 7.26 26.74 7.12 40.97 C 6.99 59.64 7.10 78.32 7.07 97.00 C 6.97 102.31 8.08 107.69 10.75 112.32 C 15.76 121.83 26.30 128.05 37.04 127.91 C 51.72 127.94 66.40 127.96 81.08 127.91 C 91.54 127.98 101.83 122.09 106.92 112.92 C 109.79 108.16 111.04 102.58 110.93 97.05 C 110.92 78.69 110.96 60.34 110.91 41.98 C 111.04 31.98 105.62 22.13 97.15 16.83 C 91.82 13.25 85.33 11.87 78.98 12.06 C 63.73 12.25 48.46 11.72 33.22 12.34 Z" />
</g>
<g id="#f7fbf7ff">
<path fill="#f7fbf7" opacity="1.00" d=" M 46.08 30.10 C 54.69 30.03 63.31 30.04 71.92 30.10 C 71.85 35.69 71.88 41.27 71.88 46.86 C 74.04 46.86 76.19 46.87 78.35 46.87 C 78.36 52.06 78.33 57.26 78.38 62.45 C 75.09 62.46 71.79 62.45 68.50 62.48 C 65.53 65.33 62.89 68.55 59.60 71.05 C 60.73 72.98 60.16 75.25 60.19 77.35 C 65.62 77.41 71.06 77.39 76.49 77.37 C 76.43 75.69 76.38 74.00 76.33 72.32 C 76.97 72.26 78.25 72.15 78.89 72.09 C 78.71 74.62 80.06 78.67 76.95 79.81 C 66.31 80.14 55.65 79.82 45.00 79.96 C 43.00 79.85 40.05 80.52 39.20 78.06 C 38.88 76.09 39.06 74.10 39.09 72.12 C 39.73 72.16 41.02 72.25 41.66 72.30 C 41.61 73.99 41.56 75.68 41.51 77.37 C 46.94 77.39 52.37 77.41 57.80 77.36 C 57.83 75.25 57.27 72.97 58.40 71.05 C 55.11 68.55 52.47 65.34 49.52 62.48 C 46.22 62.45 42.92 62.46 39.62 62.45 C 39.67 57.26 39.64 52.06 39.65 46.87 C 41.80 46.87 43.96 46.86 46.12 46.86 C 46.12 41.27 46.15 35.69 46.08 30.10 M 48.65 32.62 C 48.67 34.80 48.68 36.98 48.69 39.16 C 53.05 39.11 57.40 39.09 61.76 39.18 C 61.72 39.78 61.65 40.96 61.61 41.55 C 57.30 41.92 52.97 41.63 48.65 41.69 C 48.67 43.42 48.68 45.14 48.70 46.87 C 52.97 46.86 57.24 46.88 61.51 46.84 C 61.60 47.70 61.69 48.57 61.78 49.43 C 55.23 49.56 48.68 49.39 42.13 49.53 C 42.26 52.95 42.24 56.38 42.17 59.80 C 53.39 59.86 64.61 59.86 75.83 59.80 C 75.76 56.37 75.75 52.94 75.84 49.51 C 73.63 49.49 71.41 49.47 69.20 49.42 C 69.43 43.82 69.25 38.22 69.35 32.62 C 62.45 32.61 55.55 32.61 48.65 32.62 M 53.00 62.53 C 55.01 64.52 57.05 66.47 59.00 68.51 C 60.95 66.48 63.00 64.53 64.98 62.51 C 60.99 62.42 56.99 62.40 53.00 62.53 Z" />
</g>
</svg>
