<?xml version="1.0" encoding="UTF-8" ?>
<!DOCTYPE svg PUBLIC "-//W3C//DTD SVG 1.1//EN" "http://www.w3.org/Graphics/SVG/1.1/DTD/svg11.dtd">
<svg width="117px" height="140px" viewBox="0 0 117 140" version="1.1" xmlns="http://www.w3.org/2000/svg">
<g id="#000000ff">
<path fill="#000000" opacity="1.00" d=" M 0.00 0.00 L 117.00 0.00 L 117.00 140.00 L 0.00 140.00 L 0.00 0.00 M 23.18 13.14 C 16.09 16.25 10.29 22.11 7.13 29.16 C 4.98 33.77 4.19 38.94 4.37 44.00 C 4.53 63.78 4.12 83.57 4.58 103.35 L 5.21 104.26 C 5.44 106.55 6.06 108.78 7.13 110.82 C 10.28 117.89 16.09 123.75 23.18 126.87 C 28.08 129.13 33.61 129.78 38.97 129.64 C 51.64 129.60 64.31 129.61 76.98 129.63 C 82.35 129.76 87.91 129.14 92.82 126.86 C 99.90 123.75 105.74 117.92 108.85 110.84 C 109.90 108.78 110.56 106.56 110.78 104.27 L 111.41 103.35 C 111.89 83.58 111.48 63.78 111.63 44.00 C 111.81 38.94 111.01 33.79 108.89 29.16 C 105.70 22.12 99.93 16.24 92.83 13.13 C 89.17 11.37 85.07 10.75 81.07 10.40 C 67.06 10.35 53.06 10.42 39.05 10.37 C 33.67 10.23 28.10 10.85 23.18 13.14 Z" />
<path fill="#000000" opacity="1.00" d=" M 26.96 12.78 C 29.61 12.26 32.25 11.56 34.97 11.60 C 50.33 11.63 65.70 11.63 81.06 11.59 C 83.94 11.62 86.73 12.40 89.59 12.68 L 89.50 13.32 C 98.91 15.81 105.95 23.92 109.19 32.86 C 109.45 34.27 109.76 35.67 110.26 37.03 C 110.57 57.68 110.25 78.34 110.42 98.99 C 110.55 101.76 109.89 104.46 109.21 107.12 C 105.95 116.06 98.93 124.19 89.51 126.68 L 89.58 127.32 C 86.71 127.60 83.91 128.38 81.02 128.41 C 65.69 128.37 50.35 128.37 35.02 128.40 C 32.10 128.40 29.27 127.61 26.38 127.31 L 26.53 126.67 C 17.08 124.24 10.09 116.06 6.79 107.16 C 6.14 104.50 5.46 101.81 5.58 99.04 C 5.75 78.38 5.42 57.71 5.75 37.05 C 6.21 35.68 6.54 34.27 6.82 32.86 C 10.01 23.49 17.58 15.96 26.96 12.78 M 41.35 47.16 C 43.40 47.90 45.46 48.61 47.55 49.26 C 48.22 47.63 48.96 46.03 49.78 44.48 C 49.56 47.61 50.78 50.51 51.90 53.36 C 53.68 52.67 55.46 51.97 57.23 51.25 C 56.67 49.12 56.32 46.93 56.12 44.74 C 57.50 45.81 58.90 46.86 60.39 47.79 C 59.70 47.66 58.32 47.40 57.62 47.27 C 57.60 49.18 57.58 51.09 57.56 52.99 C 60.91 53.00 64.25 53.00 67.60 53.01 C 67.46 57.09 67.92 61.20 67.38 65.25 C 66.96 65.55 66.11 66.13 65.69 66.43 C 65.55 62.34 65.62 58.25 65.63 54.17 C 61.15 54.18 56.67 54.17 52.18 54.19 C 52.17 59.12 52.17 64.06 52.17 69.00 C 56.18 69.00 60.18 69.02 64.19 68.98 C 64.65 70.21 65.10 71.45 65.56 72.69 C 68.31 72.47 72.79 73.23 73.75 69.80 C 74.32 62.33 73.87 54.81 73.97 47.31 C 73.30 47.36 71.97 47.44 71.30 47.49 C 71.84 45.30 73.66 45.15 75.57 45.31 C 75.59 43.33 75.61 41.35 75.64 39.37 C 73.02 39.40 70.40 39.41 67.78 39.31 C 65.54 38.13 62.99 37.86 60.53 37.45 C 60.19 39.01 59.86 40.57 59.55 42.14 C 59.36 41.23 59.18 40.31 58.99 39.40 C 56.58 39.41 54.17 39.41 51.76 39.31 C 49.92 38.07 47.68 37.81 45.57 37.33 C 44.22 40.63 43.09 44.04 41.35 47.16 M 44.16 49.60 C 44.19 57.20 44.17 64.80 44.17 72.40 C 46.32 72.40 48.46 72.40 50.60 72.40 C 50.56 64.80 50.75 57.20 50.48 49.60 C 48.37 49.59 46.27 49.60 44.16 49.60 Z" />
<path fill="#000000" opacity="1.00" d=" M 63.52 47.07 C 62.86 44.79 67.15 44.79 66.37 47.08 C 65.40 48.27 64.45 48.27 63.52 47.07 Z" />
<path fill="#000000" opacity="1.00" d=" M 57.81 64.05 C 59.06 63.20 59.79 63.44 59.99 64.77 C 58.73 65.61 58.00 65.37 57.81 64.05 Z" />
</g>
<g id="#e76010ff">
<path fill="#e76010" opacity="1.00" d=" M 23.18 13.14 C 28.10 10.85 33.67 10.23 39.05 10.37 C 53.06 10.42 67.06 10.35 81.07 10.40 C 85.07 10.75 89.17 11.37 92.83 13.13 C 99.93 16.24 105.70 22.12 108.89 29.16 C 111.01 33.79 111.81 38.94 111.63 44.00 C 111.48 63.78 111.89 83.58 111.41 103.35 L 110.78 104.27 C 110.56 106.56 109.90 108.78 108.85 110.84 C 105.74 117.92 99.90 123.75 92.82 126.86 C 87.91 129.14 82.35 129.76 76.98 129.63 C 64.31 129.61 51.64 129.60 38.97 129.64 C 33.61 129.78 28.08 129.13 23.18 126.87 C 16.09 123.75 10.28 117.89 7.13 110.82 C 6.06 108.78 5.44 106.55 5.21 104.26 L 4.58 103.35 C 4.12 83.57 4.53 63.78 4.37 44.00 C 4.19 38.94 4.98 33.77 7.13 29.16 C 10.29 22.11 16.09 16.25 23.18 13.14 M 26.96 12.78 C 17.58 15.96 10.01 23.49 6.82 32.86 C 6.54 34.27 6.21 35.68 5.75 37.05 C 5.42 57.71 5.75 78.38 5.58 99.04 C 5.46 101.81 6.14 104.50 6.79 107.16 C 10.09 116.06 17.08 124.24 26.53 126.67 L 26.38 127.31 C 29.27 127.61 32.10 128.40 35.02 128.40 C 50.35 128.37 65.69 128.37 81.02 128.41 C 83.91 128.38 86.71 127.60 89.58 127.32 L 89.51 126.68 C 98.93 124.19 105.95 116.06 109.21 107.12 C 109.89 104.46 110.55 101.76 110.42 98.99 C 110.25 78.34 110.57 57.68 110.26 37.03 C 109.76 35.67 109.45 34.27 109.19 32.86 C 105.95 23.92 98.91 15.81 89.50 13.32 L 89.59 12.68 C 86.73 12.40 83.94 11.62 81.06 11.59 C 65.70 11.63 50.33 11.63 34.97 11.60 C 32.25 11.56 29.61 12.26 26.96 12.78 Z" />
<path fill="#e76010" opacity="1.00" d=" M 41.35 47.16 C 43.09 44.04 44.22 40.63 45.57 37.33 C 47.68 37.81 49.92 38.07 51.76 39.31 C 54.17 39.41 56.58 39.41 58.99 39.40 C 59.18 40.31 59.36 41.23 59.55 42.14 C 59.86 40.57 60.19 39.01 60.53 37.45 C 62.99 37.86 65.54 38.13 67.78 39.31 C 70.40 39.41 73.02 39.40 75.64 39.37 C 75.61 41.35 75.59 43.33 75.57 45.31 C 73.66 45.15 71.84 45.30 71.30 47.49 C 71.97 47.44 73.30 47.36 73.97 47.31 C 73.87 54.81 74.32 62.33 73.75 69.80 C 72.79 73.23 68.31 72.47 65.56 72.69 C 65.10 71.45 64.65 70.21 64.19 68.98 C 60.18 69.02 56.18 69.00 52.17 69.00 C 52.17 64.06 52.17 59.12 52.18 54.19 C 56.67 54.17 61.15 54.18 65.63 54.17 C 65.62 58.25 65.55 62.34 65.69 66.43 C 66.11 66.13 66.96 65.55 67.38 65.25 C 67.92 61.20 67.46 57.09 67.60 53.01 C 64.25 53.00 60.91 53.00 57.56 52.99 C 57.58 51.09 57.60 49.18 57.62 47.27 C 58.32 47.40 59.70 47.66 60.39 47.79 C 58.90 46.86 57.50 45.81 56.12 44.74 C 56.32 46.93 56.67 49.12 57.23 51.25 C 55.46 51.97 53.68 52.67 51.90 53.36 C 50.78 50.51 49.56 47.61 49.78 44.48 C 48.96 46.03 48.22 47.63 47.55 49.26 C 45.46 48.61 43.40 47.90 41.35 47.16 M 63.52 47.07 C 64.45 48.27 65.40 48.27 66.37 47.08 C 67.15 44.79 62.86 44.79 63.52 47.07 M 57.81 64.05 C 58.00 65.37 58.73 65.61 59.99 64.77 C 59.79 63.44 59.06 63.20 57.81 64.05 Z" />
<path fill="#e76010" opacity="1.00" d=" M 44.16 49.60 C 46.27 49.60 48.37 49.59 50.48 49.60 C 50.75 57.20 50.56 64.80 50.60 72.40 C 48.46 72.40 46.32 72.40 44.17 72.40 C 44.17 64.80 44.19 57.20 44.16 49.60 Z" />
</g>
</svg>
