<?xml version="1.0" encoding="UTF-8" ?>
<!DOCTYPE svg PUBLIC "-//W3C//DTD SVG 1.1//EN" "http://www.w3.org/Graphics/SVG/1.1/DTD/svg11.dtd">
<svg width="117px" height="140px" viewBox="0 0 117 140" version="1.1" xmlns="http://www.w3.org/2000/svg">
<g id="#000000ff">
<path fill="#000000" opacity="1.00" d=" M 0.00 0.00 L 117.00 0.00 L 117.00 140.00 L 0.00 140.00 L 0.00 0.00 M 34.55 54.86 C 38.25 58.85 43.08 61.88 48.50 62.78 C 48.01 64.19 47.65 65.64 47.42 67.11 C 50.34 71.80 56.15 73.51 61.18 74.83 C 65.66 76.75 70.38 78.06 75.08 79.36 C 79.64 78.96 83.12 74.36 81.63 69.87 C 79.64 64.23 78.05 58.45 75.86 52.89 C 74.57 49.46 71.80 46.95 69.22 44.48 C 68.14 44.91 67.04 45.29 65.97 45.71 C 64.62 40.21 61.12 35.74 56.91 32.11 C 49.48 39.71 41.52 46.84 34.55 54.86 Z" />
<path fill="#000000" opacity="1.00" d=" M 52.10 41.13 C 53.92 39.36 55.54 37.28 57.84 36.09 C 61.83 40.37 63.04 46.24 64.51 51.72 C 65.94 50.31 67.37 48.89 68.80 47.47 C 70.27 49.25 72.27 50.78 72.95 53.09 C 74.94 59.33 77.26 65.48 78.98 71.81 C 79.38 73.82 77.44 75.05 76.30 76.36 C 72.47 76.17 69.05 74.29 65.41 73.31 C 60.15 71.36 54.25 70.30 50.05 66.32 C 51.50 64.80 52.96 63.28 54.29 61.64 C 49.07 59.90 42.90 59.11 39.01 54.87 L 39.06 54.26 C 43.29 49.77 47.79 45.54 52.10 41.13 Z" />
</g>
<g id="#f7fbf7ff">
<path fill="#f7fbf7" opacity="1.00" d=" M 34.55 54.86 C 41.52 46.84 49.48 39.71 56.91 32.11 C 61.12 35.74 64.62 40.21 65.97 45.71 C 67.04 45.29 68.14 44.91 69.22 44.48 C 71.80 46.95 74.57 49.46 75.86 52.89 C 78.05 58.45 79.64 64.23 81.63 69.87 C 83.12 74.36 79.64 78.96 75.08 79.36 C 70.38 78.06 65.66 76.75 61.18 74.83 C 56.15 73.51 50.34 71.80 47.42 67.11 C 47.65 65.64 48.01 64.19 48.50 62.78 C 43.08 61.88 38.25 58.85 34.55 54.86 M 52.10 41.13 C 47.79 45.54 43.29 49.77 39.06 54.26 L 39.01 54.87 C 42.90 59.11 49.07 59.90 54.29 61.64 C 52.96 63.28 51.50 64.80 50.05 66.32 C 54.25 70.30 60.15 71.36 65.41 73.31 C 69.05 74.29 72.47 76.17 76.30 76.36 C 77.44 75.05 79.38 73.82 78.98 71.81 C 77.26 65.48 74.94 59.33 72.95 53.09 C 72.27 50.78 70.27 49.25 68.80 47.47 C 67.37 48.89 65.94 50.31 64.51 51.72 C 63.04 46.24 61.83 40.37 57.84 36.09 C 55.54 37.28 53.92 39.36 52.10 41.13 Z" />
</g>
</svg>
