<?xml version="1.0" encoding="UTF-8" ?>
<!DOCTYPE svg PUBLIC "-//W3C//DTD SVG 1.1//EN" "http://www.w3.org/Graphics/SVG/1.1/DTD/svg11.dtd">
<svg width="117px" height="140px" viewBox="0 0 117 140" version="1.1" xmlns="http://www.w3.org/2000/svg">
<g id="#000000ff">
<path fill="#000000" opacity="1.00" d=" M 0.00 0.00 L 117.00 0.00 L 117.00 140.00 L 0.00 140.00 L 0.00 0.00 M 37.88 42.09 C 37.46 50.67 37.46 59.33 37.88 67.91 C 44.95 68.08 52.05 68.09 59.13 67.90 C 59.50 65.99 59.50 64.00 59.14 62.09 C 54.85 61.78 50.53 62.32 46.26 61.71 C 46.19 60.57 46.19 59.43 46.26 58.28 C 49.80 57.76 53.38 58.16 56.94 57.92 C 57.10 55.91 57.09 53.89 56.93 51.88 C 53.40 51.36 49.84 51.78 46.30 51.62 C 46.24 50.54 46.24 49.46 46.30 48.38 C 50.51 48.16 54.74 48.71 58.92 48.12 C 59.09 46.11 59.11 44.08 58.94 42.07 C 51.92 41.93 44.89 41.92 37.88 42.09 M 66.43 49.47 C 62.99 50.56 61.51 55.43 63.91 58.14 C 66.72 60.58 70.65 60.77 73.98 62.15 C 73.96 62.62 73.93 63.56 73.92 64.03 C 71.77 65.08 70.18 63.48 68.71 62.16 C 66.50 61.83 64.26 61.95 62.05 62.16 C 62.26 64.36 63.53 66.46 65.63 67.30 C 69.68 68.84 74.31 68.71 78.36 67.24 C 81.69 66.05 83.11 61.05 80.39 58.58 C 77.55 56.24 73.68 56.05 70.36 54.71 C 70.32 54.29 70.24 53.44 70.20 53.01 C 72.12 52.49 73.67 53.91 75.36 54.53 C 77.16 54.86 79.01 54.76 80.83 54.68 C 81.13 52.66 80.11 50.69 78.24 49.83 C 74.58 48.13 70.21 48.20 66.43 49.47 Z" />
</g>
<g id="#f8fcf8ff">
<path fill="#f8fcf8" opacity="1.00" d=" M 37.88 42.09 C 44.89 41.92 51.92 41.93 58.94 42.07 C 59.11 44.08 59.09 46.11 58.92 48.12 C 54.74 48.71 50.51 48.16 46.30 48.38 C 46.24 49.46 46.24 50.54 46.30 51.62 C 49.84 51.78 53.40 51.36 56.93 51.88 C 57.09 53.89 57.10 55.91 56.94 57.92 C 53.38 58.16 49.80 57.76 46.26 58.28 C 46.19 59.43 46.19 60.57 46.26 61.71 C 50.53 62.32 54.85 61.78 59.14 62.09 C 59.50 64.00 59.50 65.99 59.13 67.90 C 52.05 68.09 44.95 68.08 37.88 67.91 C 37.46 59.33 37.46 50.67 37.88 42.09 Z" />
<path fill="#f8fcf8" opacity="1.00" d=" M 66.43 49.47 C 70.21 48.20 74.58 48.13 78.24 49.83 C 80.11 50.69 81.13 52.66 80.83 54.68 C 79.01 54.76 77.16 54.86 75.36 54.53 C 73.67 53.91 72.12 52.49 70.20 53.01 C 70.24 53.44 70.32 54.29 70.36 54.71 C 73.68 56.05 77.55 56.24 80.39 58.58 C 83.11 61.05 81.69 66.05 78.36 67.24 C 74.31 68.71 69.68 68.84 65.63 67.30 C 63.53 66.46 62.26 64.36 62.05 62.16 C 64.26 61.95 66.50 61.83 68.71 62.16 C 70.18 63.48 71.77 65.08 73.92 64.03 C 73.93 63.56 73.96 62.62 73.98 62.15 C 70.65 60.77 66.72 60.58 63.91 58.14 C 61.51 55.43 62.99 50.56 66.43 49.47 Z" />
</g>
</svg>
