<?xml version="1.0" encoding="UTF-8" ?>
<!DOCTYPE svg PUBLIC "-//W3C//DTD SVG 1.1//EN" "http://www.w3.org/Graphics/SVG/1.1/DTD/svg11.dtd">
<svg width="117px" height="140px" viewBox="0 0 117 140" version="1.1" xmlns="http://www.w3.org/2000/svg">
<g id="#000000ff">
<path fill="#000000" opacity="1.00" d=" M 0.00 0.00 L 117.00 0.00 L 117.00 140.00 L 0.00 140.00 L 0.00 0.00 M 46.84 39.96 C 47.77 40.75 48.75 41.50 49.77 42.20 C 52.12 38.09 56.40 35.75 59.65 32.45 C 63.33 35.61 67.34 38.48 70.23 42.43 C 71.13 41.52 71.90 40.49 72.69 39.48 C 71.11 38.70 69.68 37.68 68.41 36.46 C 68.52 34.03 68.54 31.60 68.49 29.16 C 67.24 29.07 65.98 29.01 64.72 28.99 C 64.47 30.36 64.29 31.74 64.20 33.14 C 62.49 32.01 61.51 28.81 59.21 29.10 C 55.31 32.96 51.11 36.51 46.84 39.96 M 50.48 41.80 C 50.52 44.32 50.51 46.83 50.52 49.35 C 52.92 49.39 55.31 49.39 57.71 49.39 C 57.87 47.44 58.03 45.50 58.21 43.55 C 59.34 43.59 60.47 43.62 61.61 43.65 C 61.61 45.56 61.62 47.46 61.63 49.37 C 63.90 49.39 66.16 49.39 68.43 49.36 C 68.52 46.82 68.52 44.28 68.51 41.74 C 65.63 39.15 62.71 36.60 59.84 33.99 C 56.61 36.46 53.64 39.25 50.48 41.80 M 33.83 52.98 C 37.42 56.02 41.00 59.07 44.63 62.06 C 43.84 59.36 42.96 56.69 42.15 54.01 C 46.41 53.26 50.71 54.17 55.00 53.67 C 62.28 54.10 69.61 53.28 76.86 54.03 C 76.03 56.70 75.15 59.35 74.36 62.03 C 78.02 59.08 81.59 56.02 85.17 52.98 C 81.58 49.97 78.01 46.91 74.35 43.97 C 75.16 46.66 76.03 49.33 76.88 52.00 C 69.34 52.64 61.74 51.97 54.17 52.30 C 50.15 51.90 46.12 52.75 42.13 52.00 C 42.96 49.32 43.85 46.65 44.57 43.94 C 41.01 46.97 37.41 49.96 33.83 52.98 M 49.22 56.74 C 51.63 59.85 54.01 62.98 56.43 66.07 C 53.81 69.09 51.23 72.15 48.88 75.39 C 50.00 75.43 52.23 75.52 53.35 75.57 C 55.22 73.09 57.15 70.65 59.03 68.17 C 60.95 70.62 62.88 73.07 64.74 75.57 C 65.86 75.52 68.11 75.42 69.24 75.37 C 66.89 72.09 64.20 69.09 61.59 66.03 C 64.07 63.01 66.37 59.86 68.73 56.75 C 67.18 56.75 65.62 56.75 64.07 56.76 C 62.37 59.18 60.68 61.62 59.03 64.08 C 57.37 61.63 55.66 59.20 53.96 56.78 C 52.38 56.76 50.80 56.75 49.22 56.74 Z" />
</g>
<g id="#f8fcf8ff">
<path fill="#f8fcf8" opacity="1.00" d=" M 46.84 39.96 C 51.11 36.51 55.31 32.96 59.21 29.10 C 61.51 28.81 62.49 32.01 64.20 33.14 C 64.29 31.74 64.47 30.36 64.72 28.99 C 65.98 29.01 67.24 29.07 68.49 29.16 C 68.54 31.60 68.52 34.03 68.41 36.46 C 69.68 37.68 71.11 38.70 72.69 39.48 C 71.90 40.49 71.13 41.52 70.23 42.43 C 67.34 38.48 63.33 35.61 59.65 32.45 C 56.40 35.75 52.12 38.09 49.77 42.20 C 48.75 41.50 47.77 40.75 46.84 39.96 Z" />
<path fill="#f8fcf8" opacity="1.00" d=" M 50.48 41.80 C 53.64 39.25 56.61 36.46 59.84 33.99 C 62.71 36.60 65.63 39.15 68.51 41.74 C 68.52 44.28 68.52 46.82 68.43 49.36 C 66.16 49.39 63.90 49.39 61.63 49.37 C 61.62 47.46 61.61 45.56 61.61 43.65 C 60.47 43.62 59.34 43.59 58.21 43.55 C 58.03 45.50 57.87 47.44 57.71 49.39 C 55.31 49.39 52.92 49.39 50.52 49.35 C 50.51 46.83 50.52 44.32 50.48 41.80 Z" />
<path fill="#f8fcf8" opacity="1.00" d=" M 33.83 52.98 C 37.41 49.96 41.01 46.97 44.57 43.94 C 43.85 46.65 42.96 49.32 42.13 52.00 C 46.12 52.75 50.15 51.90 54.17 52.30 C 61.74 51.97 69.34 52.64 76.88 52.00 C 76.03 49.33 75.16 46.66 74.35 43.97 C 78.01 46.91 81.58 49.97 85.17 52.98 C 81.59 56.02 78.02 59.08 74.36 62.03 C 75.15 59.35 76.03 56.70 76.86 54.03 C 69.61 53.28 62.28 54.10 55.00 53.67 C 50.71 54.17 46.41 53.26 42.15 54.01 C 42.96 56.69 43.84 59.36 44.63 62.06 C 41.00 59.07 37.42 56.02 33.83 52.98 Z" />
<path fill="#f8fcf8" opacity="1.00" d=" M 49.22 56.74 C 50.80 56.75 52.38 56.76 53.96 56.78 C 55.66 59.20 57.37 61.63 59.03 64.08 C 60.68 61.62 62.37 59.18 64.07 56.76 C 65.62 56.75 67.18 56.75 68.73 56.75 C 66.37 59.86 64.07 63.01 61.59 66.03 C 64.20 69.09 66.89 72.09 69.24 75.37 C 68.11 75.42 65.86 75.52 64.74 75.57 C 62.88 73.07 60.95 70.62 59.03 68.17 C 57.15 70.65 55.22 73.09 53.35 75.57 C 52.23 75.52 50.00 75.43 48.88 75.39 C 51.23 72.15 53.81 69.09 56.43 66.07 C 54.01 62.98 51.63 59.85 49.22 56.74 Z" />
</g>
</svg>
