<?xml version="1.0" encoding="UTF-8" ?>
<!DOCTYPE svg PUBLIC "-//W3C//DTD SVG 1.1//EN" "http://www.w3.org/Graphics/SVG/1.1/DTD/svg11.dtd">
<svg width="117pt" height="140pt" viewBox="0 0 117 140" version="1.1" xmlns="http://www.w3.org/2000/svg">
<g id="#000000ff">
<path fill="#000000" opacity="1.00" d=" M 0.00 0.00 L 117.00 0.00 L 117.00 140.00 L 0.00 140.00 L 0.00 0.00 M 33.17 10.23 C 17.91 11.79 5.16 25.65 5.02 41.01 C 5.02 60.69 4.92 80.38 5.07 100.06 C 5.74 116.01 20.01 129.84 35.98 129.97 C 51.68 129.98 67.39 130.10 83.08 129.92 C 99.00 129.26 112.83 115.01 112.97 99.07 C 113.04 80.05 112.98 61.03 113.00 42.01 C 113.08 32.88 108.92 23.88 102.04 17.91 C 96.05 12.62 88.02 9.79 80.04 9.98 C 64.42 10.17 48.78 9.69 33.17 10.23 Z" />
<path fill="#000000" opacity="1.00" d=" M 30.48 12.69 C 34.58 11.78 38.80 12.02 42.96 12.00 C 56.32 12.06 69.68 11.89 83.04 12.09 C 97.91 12.73 110.84 26.05 110.96 40.95 C 111.03 60.31 111.03 79.68 110.96 99.04 C 110.86 114.27 97.33 127.82 82.10 127.95 C 66.73 128.05 51.36 128.01 36.00 127.97 C 20.72 127.86 7.11 114.28 7.03 98.99 C 6.98 79.66 6.98 60.32 7.03 40.98 C 7.19 27.65 17.48 15.42 30.48 12.69 M 57.19 27.08 C 57.23 34.33 57.27 41.59 57.17 48.85 C 57.96 48.87 59.54 48.90 60.33 48.91 C 60.33 41.62 60.32 34.32 60.34 27.02 C 59.55 27.04 57.98 27.06 57.19 27.08 M 36.77 42.77 C 31.11 51.61 31.94 64.08 38.87 72.02 C 44.33 78.76 53.47 82.10 62.00 80.65 C 73.73 79.01 83.25 67.91 82.94 56.04 C 83.25 47.38 78.26 39.31 71.21 34.55 C 70.44 35.34 69.68 36.13 68.91 36.93 C 75.56 40.81 79.99 48.25 79.85 55.99 C 80.00 64.97 73.96 73.59 65.49 76.53 C 58.16 79.31 49.41 77.64 43.58 72.42 C 37.31 67.06 34.62 57.94 36.96 50.03 C 38.42 44.51 42.24 39.86 47.09 36.93 C 46.32 36.14 45.56 35.34 44.79 34.55 C 41.72 36.85 38.77 39.44 36.77 42.77 Z" />
</g>
<g id="#727372ff">
<path fill="#727372" opacity="1.00" d=" M 33.17 10.23 C 48.78 9.69 64.42 10.17 80.04 9.98 C 88.02 9.79 96.05 12.62 102.04 17.91 C 108.92 23.88 113.08 32.88 113.00 42.01 C 112.98 61.03 113.04 80.05 112.97 99.07 C 112.83 115.01 99.00 129.26 83.08 129.92 C 67.39 130.10 51.68 129.98 35.98 129.97 C 20.01 129.84 5.74 116.01 5.07 100.06 C 4.92 80.38 5.02 60.69 5.02 41.01 C 5.16 25.65 17.91 11.79 33.17 10.23 M 30.48 12.69 C 17.48 15.42 7.19 27.65 7.03 40.98 C 6.98 60.32 6.98 79.66 7.03 98.99 C 7.11 114.28 20.72 127.86 36.00 127.97 C 51.36 128.01 66.73 128.05 82.10 127.95 C 97.33 127.82 110.86 114.27 110.96 99.04 C 111.03 79.68 111.03 60.31 110.96 40.95 C 110.84 26.05 97.91 12.73 83.04 12.09 C 69.68 11.89 56.32 12.06 42.96 12.00 C 38.80 12.02 34.58 11.78 30.48 12.69 Z" />
</g>
<g id="#f8fcf8ff">
<path fill="#f8fcf8" opacity="1.00" d=" M 57.19 27.08 C 57.98 27.06 59.55 27.04 60.34 27.02 C 60.32 34.32 60.33 41.62 60.33 48.91 C 59.54 48.90 57.96 48.87 57.17 48.85 C 57.27 41.59 57.23 34.33 57.19 27.08 Z" />
<path fill="#f8fcf8" opacity="1.00" d=" M 36.77 42.77 C 38.77 39.44 41.72 36.85 44.79 34.55 C 45.56 35.34 46.32 36.14 47.09 36.93 C 42.24 39.86 38.42 44.51 36.96 50.03 C 34.62 57.94 37.31 67.06 43.58 72.42 C 49.41 77.64 58.16 79.31 65.49 76.53 C 73.96 73.59 80.00 64.97 79.85 55.99 C 79.99 48.25 75.56 40.81 68.91 36.93 C 69.68 36.13 70.44 35.34 71.21 34.55 C 78.26 39.31 83.25 47.38 82.94 56.04 C 83.25 67.91 73.73 79.01 62.00 80.65 C 53.47 82.10 44.33 78.76 38.87 72.02 C 31.94 64.08 31.11 51.61 36.77 42.77 Z" />
</g>
</svg>
