<?xml version="1.0" encoding="UTF-8" ?>
<!DOCTYPE svg PUBLIC "-//W3C//DTD SVG 1.1//EN" "http://www.w3.org/Graphics/SVG/1.1/DTD/svg11.dtd">
<svg width="117px" height="140px" viewBox="0 0 117 140" version="1.1" xmlns="http://www.w3.org/2000/svg">
<g id="#000000ff">
<path fill="#000000" opacity="1.00" d=" M 0.00 0.00 L 117.00 0.00 L 117.00 140.00 L 0.00 140.00 L 0.00 0.00 M 33.19 10.24 C 21.21 11.55 10.50 20.26 6.72 31.69 C 4.32 38.22 5.11 45.25 5.00 52.05 C 5.07 68.04 4.87 84.04 5.09 100.04 C 5.73 115.61 19.35 129.26 34.93 129.91 C 50.29 130.12 65.67 129.96 81.04 129.99 C 92.32 130.09 103.33 123.63 108.81 113.78 C 111.77 108.73 113.11 102.85 113.01 97.02 C 112.98 78.68 113.02 60.34 112.99 42.00 C 113.11 30.93 106.91 20.13 97.38 14.54 C 91.89 11.19 85.39 9.78 79.00 9.98 C 63.73 10.19 48.44 9.67 33.19 10.24 Z" />
<path fill="#000000" opacity="1.00" d=" M 33.29 12.33 C 44.86 11.73 56.47 12.23 68.05 12.07 C 76.71 12.31 85.95 10.90 93.96 15.04 C 104.15 19.80 111.08 30.74 110.91 42.00 C 110.93 61.00 111.00 80.01 110.87 99.01 C 110.80 114.24 97.29 127.75 82.06 127.86 C 66.70 127.98 51.33 127.97 35.97 127.87 C 20.78 127.76 7.25 114.31 7.13 99.11 C 7.02 79.71 7.03 60.30 7.13 40.90 C 7.30 26.67 19.13 13.76 33.29 12.33 M 50.31 28.05 C 50.32 37.69 50.35 47.33 50.30 56.96 C 44.94 61.03 43.26 69.17 47.22 74.76 C 51.03 80.89 60.63 81.76 65.47 76.38 C 70.87 71.00 69.72 61.43 63.71 56.96 C 63.65 47.33 63.68 37.69 63.70 28.06 C 59.23 28.03 54.77 28.03 50.31 28.05 M 67.90 30.90 C 66.43 34.82 71.29 33.24 73.41 33.28 C 73.23 30.17 70.09 30.61 67.90 30.90 M 67.87 37.87 C 66.49 41.73 71.27 40.16 73.38 40.23 C 73.28 37.08 70.05 37.56 67.87 37.87 M 67.79 44.84 C 66.53 48.66 71.12 47.01 73.28 47.23 C 73.45 43.94 69.97 44.54 67.79 44.84 M 67.82 51.74 C 67.82 52.35 67.83 53.58 67.84 54.20 C 70.01 54.41 73.46 55.04 73.29 51.76 C 71.46 51.68 69.63 51.54 67.82 51.74 Z" />
<path fill="#000000" opacity="1.00" d=" M 52.94 30.77 C 55.65 30.77 58.36 30.77 61.08 30.77 C 60.90 40.02 61.00 49.27 61.03 58.52 C 62.97 60.06 64.99 61.75 65.77 64.20 C 67.80 69.35 64.49 75.85 59.03 77.00 C 53.45 78.52 47.71 73.57 47.66 67.95 C 47.33 64.05 49.86 60.68 52.92 58.57 C 53.01 49.31 53.00 40.04 52.94 30.77 M 55.66 46.74 C 55.70 51.29 55.66 55.84 55.71 60.39 C 53.80 61.51 51.60 62.63 50.82 64.88 C 48.88 69.11 52.35 74.54 57.01 74.49 C 61.65 74.53 65.14 69.10 63.19 64.90 C 62.40 62.65 60.24 61.49 58.29 60.41 C 58.34 55.85 58.30 51.30 58.34 46.75 C 57.67 46.75 56.33 46.74 55.66 46.74 Z" />
</g>
<g id="#747574ff">
<path fill="#747574" opacity="1.00" d=" M 33.19 10.24 C 48.44 9.67 63.73 10.19 79.00 9.98 C 85.39 9.78 91.89 11.19 97.38 14.54 C 106.91 20.13 113.11 30.93 112.99 42.00 C 113.02 60.34 112.98 78.68 113.01 97.02 C 113.11 102.85 111.77 108.73 108.81 113.78 C 103.33 123.63 92.32 130.09 81.04 129.99 C 65.67 129.96 50.29 130.12 34.93 129.91 C 19.35 129.26 5.73 115.61 5.09 100.04 C 4.87 84.04 5.07 68.04 5.00 52.05 C 5.11 45.25 4.32 38.22 6.72 31.69 C 10.50 20.26 21.21 11.55 33.19 10.24 M 33.29 12.33 C 19.13 13.76 7.30 26.67 7.13 40.90 C 7.03 60.30 7.02 79.71 7.13 99.11 C 7.25 114.31 20.78 127.76 35.97 127.87 C 51.33 127.97 66.70 127.98 82.06 127.86 C 97.29 127.75 110.80 114.24 110.87 99.01 C 111.00 80.01 110.93 61.00 110.91 42.00 C 111.08 30.74 104.15 19.80 93.96 15.04 C 85.95 10.90 76.71 12.31 68.05 12.07 C 56.47 12.23 44.86 11.73 33.29 12.33 Z" />
</g>
<g id="#f8fcf8ff">
<path fill="#f8fcf8" opacity="1.00" d=" M 50.31 28.05 C 54.77 28.03 59.23 28.03 63.70 28.06 C 63.68 37.69 63.65 47.33 63.71 56.96 C 69.72 61.43 70.87 71.00 65.47 76.38 C 60.63 81.76 51.03 80.89 47.22 74.76 C 43.26 69.17 44.94 61.03 50.30 56.96 C 50.35 47.33 50.32 37.69 50.31 28.05 M 52.94 30.77 C 53.00 40.04 53.01 49.31 52.92 58.57 C 49.86 60.68 47.33 64.05 47.66 67.95 C 47.71 73.57 53.45 78.52 59.03 77.00 C 64.49 75.85 67.80 69.35 65.77 64.20 C 64.99 61.75 62.97 60.06 61.03 58.52 C 61.00 49.27 60.90 40.02 61.08 30.77 C 58.36 30.77 55.65 30.77 52.94 30.77 Z" />
<path fill="#f8fcf8" opacity="1.00" d=" M 67.90 30.90 C 70.09 30.61 73.23 30.17 73.41 33.28 C 71.29 33.24 66.43 34.82 67.90 30.90 Z" />
<path fill="#f8fcf8" opacity="1.00" d=" M 67.87 37.87 C 70.05 37.56 73.28 37.08 73.38 40.23 C 71.27 40.16 66.49 41.73 67.87 37.87 Z" />
<path fill="#f8fcf8" opacity="1.00" d=" M 67.79 44.84 C 69.97 44.54 73.45 43.94 73.28 47.23 C 71.12 47.01 66.53 48.66 67.79 44.84 Z" />
<path fill="#f8fcf8" opacity="1.00" d=" M 55.66 46.74 C 56.33 46.74 57.67 46.75 58.34 46.75 C 58.30 51.30 58.34 55.85 58.29 60.41 C 60.24 61.49 62.40 62.65 63.19 64.90 C 65.14 69.10 61.65 74.53 57.01 74.49 C 52.35 74.54 48.88 69.11 50.82 64.88 C 51.60 62.63 53.80 61.51 55.71 60.39 C 55.66 55.84 55.70 51.29 55.66 46.74 Z" />
<path fill="#f8fcf8" opacity="1.00" d=" M 67.82 51.74 C 69.63 51.54 71.46 51.68 73.29 51.76 C 73.46 55.04 70.01 54.41 67.84 54.20 C 67.83 53.58 67.82 52.35 67.82 51.74 Z" />
</g>
</svg>
