<?xml version="1.0" encoding="UTF-8" ?>
<!DOCTYPE svg PUBLIC "-//W3C//DTD SVG 1.1//EN" "http://www.w3.org/Graphics/SVG/1.1/DTD/svg11.dtd">
<svg width="117px" height="92px" viewBox="0 0 117 92" version="1.1" xmlns="http://www.w3.org/2000/svg">
<g id="#000000ff">
<path fill="#000000" opacity="1.00" d=" M 0.00 0.00 L 117.00 0.00 L 117.00 92.00 L 0.00 92.00 L 0.00 0.00 M 58.78 27.74 C 51.53 34.63 45.39 42.34 38.37 49.43 C 37.96 51.31 37.01 53.22 37.86 55.13 L 38.89 55.38 C 53.96 55.25 69.08 55.68 84.11 55.16 C 84.98 53.26 84.08 51.32 83.67 49.44 C 76.63 42.36 70.48 34.66 63.24 27.75 C 62.13 26.60 59.88 26.57 58.78 27.74 Z" />
<path fill="#000000" opacity="1.00" d=" M 42.04 51.43 C 48.51 44.60 54.78 37.69 61.01 30.72 C 67.22 37.72 73.50 44.62 80.00 51.41 C 67.37 51.12 54.67 51.09 42.04 51.43 Z" />
</g>
<g id="#f8fcf8ff">
<path fill="#f8fcf8" opacity="1.00" d=" M 58.78 27.74 C 59.88 26.57 62.13 26.60 63.24 27.75 C 70.48 34.66 76.63 42.36 83.67 49.44 C 84.08 51.32 84.98 53.26 84.11 55.16 C 69.08 55.68 53.96 55.25 38.89 55.38 L 37.86 55.13 C 37.01 53.22 37.96 51.31 38.37 49.43 C 45.39 42.34 51.53 34.63 58.78 27.74 M 42.04 51.43 C 54.67 51.09 67.37 51.12 80.00 51.41 C 73.50 44.62 67.22 37.72 61.01 30.72 C 54.78 37.69 48.51 44.60 42.04 51.43 Z" />
</g>
</svg>
