<?xml version="1.0" encoding="UTF-8" ?>
<!DOCTYPE svg PUBLIC "-//W3C//DTD SVG 1.1//EN" "http://www.w3.org/Graphics/SVG/1.1/DTD/svg11.dtd">
<svg width="117px" height="140px" viewBox="0 0 117 140" version="1.1" xmlns="http://www.w3.org/2000/svg">
<g id="#000000ff">
<path fill="#000000" opacity="1.00" d=" M 0.00 0.00 L 117.00 0.00 L 117.00 140.00 L 0.00 140.00 L 0.00 0.00 M 23.17 13.15 C 16.08 16.23 10.26 22.10 7.16 29.16 C 6.01 31.25 5.50 33.59 5.07 35.92 C 4.15 38.86 4.40 41.96 4.38 44.99 C 4.39 63.00 4.38 81.01 4.38 99.02 C 4.36 100.71 4.57 102.39 5.10 104.00 C 5.47 106.37 5.94 108.74 7.15 110.84 C 10.27 117.89 16.07 123.79 23.17 126.84 C 28.37 129.34 34.33 129.80 40.02 129.63 C 52.03 129.61 64.04 129.62 76.05 129.63 C 81.71 129.77 87.65 129.33 92.83 126.84 C 99.91 123.76 105.78 117.91 108.84 110.82 C 110.05 108.76 110.50 106.41 110.92 104.09 C 111.75 101.47 111.61 98.71 111.62 96.01 C 111.60 77.67 111.65 59.34 111.60 41.00 C 111.25 36.97 110.68 32.81 108.85 29.15 C 105.72 22.11 99.92 16.24 92.85 13.15 C 87.95 10.84 82.37 10.23 77.01 10.37 C 62.67 10.44 48.33 10.29 33.99 10.44 C 30.32 11.01 26.49 11.39 23.17 13.15 Z" />
<path fill="#000000" opacity="1.00" d=" M 31.86 11.62 C 48.23 11.61 64.60 11.65 80.97 11.59 C 83.74 11.56 86.43 12.27 89.12 12.80 C 98.48 16.01 105.96 23.53 109.21 32.86 C 109.81 35.86 110.58 38.87 110.42 41.96 C 110.24 62.28 110.59 82.60 110.24 102.91 C 109.76 104.28 109.45 105.70 109.19 107.13 C 105.95 116.04 98.94 124.18 89.55 126.65 L 89.52 127.34 C 86.69 127.57 83.94 128.43 81.09 128.41 C 65.73 128.36 50.36 128.36 35.00 128.41 C 32.13 128.42 29.35 127.57 26.50 127.33 L 26.44 126.65 C 17.04 124.17 10.07 116.03 6.79 107.13 C 6.29 104.45 5.49 101.80 5.59 99.04 C 5.75 78.39 5.42 57.73 5.75 37.09 C 6.21 35.73 6.55 34.34 6.82 32.94 C 9.97 23.98 17.05 15.84 26.44 13.36 L 26.50 12.61 C 28.33 12.54 30.21 12.49 31.86 11.62 M 46.60 42.00 C 46.59 50.67 46.59 59.33 46.60 68.00 C 49.53 68.00 52.47 68.00 55.40 68.00 C 55.41 59.33 55.41 50.67 55.40 42.00 C 52.47 42.00 49.53 42.00 46.60 42.00 M 61.19 43.18 C 61.18 45.18 61.17 47.17 61.16 49.16 C 60.46 49.16 59.06 49.18 58.36 49.18 C 58.37 50.66 58.37 52.14 58.37 53.62 C 59.08 53.62 60.48 53.62 61.18 53.62 C 61.28 57.62 60.87 61.66 61.43 65.63 C 63.37 69.58 68.90 67.46 72.41 68.00 C 72.40 66.25 72.40 64.49 72.40 62.74 C 71.21 62.59 70.02 62.44 68.83 62.29 C 68.83 59.41 68.83 56.52 68.82 53.64 C 70.02 53.61 71.22 53.59 72.42 53.57 C 72.41 52.10 72.40 50.64 72.39 49.17 C 71.50 49.17 69.72 49.17 68.83 49.17 C 68.82 47.17 68.82 45.18 68.81 43.19 C 66.27 43.18 63.73 43.18 61.19 43.18 Z" />
</g>
<g id="#e76011ff">
<path fill="#e76011" opacity="1.00" d=" M 23.17 13.15 C 26.49 11.39 30.32 11.01 33.99 10.44 C 48.33 10.29 62.67 10.44 77.01 10.37 C 82.37 10.23 87.95 10.84 92.85 13.15 C 99.92 16.24 105.72 22.11 108.85 29.15 C 110.68 32.81 111.25 36.97 111.60 41.00 C 111.65 59.34 111.60 77.67 111.62 96.01 C 111.61 98.71 111.75 101.47 110.92 104.09 C 110.50 106.41 110.05 108.76 108.84 110.82 C 105.78 117.91 99.91 123.76 92.83 126.84 C 87.65 129.33 81.71 129.77 76.05 129.63 C 64.04 129.62 52.03 129.61 40.02 129.63 C 34.33 129.80 28.37 129.34 23.17 126.84 C 16.07 123.79 10.27 117.89 7.15 110.84 C 5.94 108.74 5.47 106.37 5.10 104.00 C 4.57 102.39 4.36 100.71 4.38 99.02 C 4.38 81.01 4.39 63.00 4.38 44.99 C 4.40 41.96 4.15 38.86 5.07 35.92 C 5.50 33.59 6.01 31.25 7.16 29.16 C 10.26 22.10 16.08 16.23 23.17 13.15 M 31.86 11.62 C 30.21 12.49 28.33 12.54 26.50 12.61 L 26.44 13.36 C 17.05 15.84 9.97 23.98 6.82 32.94 C 6.55 34.34 6.21 35.73 5.75 37.09 C 5.42 57.73 5.75 78.39 5.59 99.04 C 5.49 101.80 6.29 104.45 6.79 107.13 C 10.07 116.03 17.04 124.17 26.44 126.65 L 26.50 127.33 C 29.35 127.57 32.13 128.42 35.00 128.41 C 50.36 128.36 65.73 128.36 81.09 128.41 C 83.94 128.43 86.69 127.57 89.52 127.34 L 89.55 126.65 C 98.94 124.18 105.95 116.04 109.19 107.13 C 109.45 105.70 109.76 104.28 110.24 102.91 C 110.59 82.60 110.24 62.28 110.42 41.96 C 110.58 38.87 109.81 35.86 109.21 32.86 C 105.96 23.53 98.48 16.01 89.12 12.80 C 86.43 12.27 83.74 11.56 80.97 11.59 C 64.60 11.65 48.23 11.61 31.86 11.62 Z" />
<path fill="#e76011" opacity="1.00" d=" M 46.60 42.00 C 49.53 42.00 52.47 42.00 55.40 42.00 C 55.41 50.67 55.41 59.33 55.40 68.00 C 52.47 68.00 49.53 68.00 46.60 68.00 C 46.59 59.33 46.59 50.67 46.60 42.00 Z" />
<path fill="#e76011" opacity="1.00" d=" M 61.19 43.18 C 63.73 43.18 66.27 43.18 68.81 43.19 C 68.82 45.18 68.82 47.17 68.83 49.17 C 69.72 49.17 71.50 49.17 72.39 49.17 C 72.40 50.64 72.41 52.10 72.42 53.57 C 71.22 53.59 70.02 53.61 68.82 53.64 C 68.83 56.52 68.83 59.41 68.83 62.29 C 70.02 62.44 71.21 62.59 72.40 62.74 C 72.40 64.49 72.40 66.25 72.41 68.00 C 68.90 67.46 63.37 69.58 61.43 65.63 C 60.87 61.66 61.28 57.62 61.18 53.62 C 60.48 53.62 59.08 53.62 58.37 53.62 C 58.37 52.14 58.37 50.66 58.36 49.18 C 59.06 49.18 60.46 49.16 61.16 49.16 C 61.17 47.17 61.18 45.18 61.19 43.18 Z" />
</g>
</svg>
