<?xml version="1.0" encoding="UTF-8" ?>
<!DOCTYPE svg PUBLIC "-//W3C//DTD SVG 1.1//EN" "http://www.w3.org/Graphics/SVG/1.1/DTD/svg11.dtd">
<svg width="117pt" height="140pt" viewBox="0 0 117 140" version="1.1" xmlns="http://www.w3.org/2000/svg">
<g id="#000000ff">
<path fill="#000000" opacity="1.00" d=" M 0.00 0.00 L 117.00 0.00 L 117.00 140.00 L 0.00 140.00 L 0.00 0.00 M 38.27 33.33 C 35.27 33.57 31.62 35.53 31.80 38.98 C 31.72 48.65 31.77 58.34 31.77 68.02 C 31.53 70.93 33.72 74.38 36.93 74.18 C 51.60 74.20 66.28 74.21 80.96 74.16 C 84.21 74.30 85.60 70.63 85.47 67.91 C 85.49 59.62 85.54 51.31 85.46 43.02 C 85.63 39.58 82.27 37.11 79.08 37.07 C 70.35 36.84 61.61 37.21 52.88 36.89 C 48.33 34.69 43.50 32.47 38.27 33.33 Z" />
</g>
<g id="#f8bf62ff">
<path fill="#f8bf62" opacity="1.00" d=" M 38.27 33.33 C 43.50 32.47 48.33 34.69 52.88 36.89 C 61.61 37.21 70.35 36.84 79.08 37.07 C 82.27 37.11 85.63 39.58 85.46 43.02 C 85.54 51.31 85.49 59.62 85.47 67.91 C 85.60 70.63 84.21 74.30 80.96 74.16 C 66.28 74.21 51.60 74.20 36.93 74.18 C 33.72 74.38 31.53 70.93 31.77 68.02 C 31.77 58.34 31.72 48.65 31.80 38.98 C 31.62 35.53 35.27 33.57 38.27 33.33 Z" />
</g>
</svg>
