<?xml version="1.0" encoding="UTF-8" ?>
<!DOCTYPE svg PUBLIC "-//W3C//DTD SVG 1.1//EN" "http://www.w3.org/Graphics/SVG/1.1/DTD/svg11.dtd">
<svg width="117pt" height="140pt" viewBox="0 0 117 140" version="1.1" xmlns="http://www.w3.org/2000/svg">
<g id="#000000ff">
<path fill="#000000" opacity="1.00" d=" M 0.00 0.00 L 117.00 0.00 L 117.00 140.00 L 0.00 140.00 L 0.00 0.00 M 33.11 10.19 C 17.88 11.79 5.13 25.63 5.00 40.98 C 5.00 60.34 5.00 79.69 5.00 99.05 C 5.12 115.03 19.01 129.33 34.98 129.96 C 50.63 130.06 66.30 129.98 81.96 129.99 C 97.96 129.93 112.31 116.04 112.96 100.06 C 113.07 80.70 112.95 61.34 113.02 41.98 C 113.12 33.33 109.37 24.78 103.11 18.85 C 97.01 12.95 88.48 9.69 80.01 9.98 C 64.38 10.16 48.73 9.72 33.11 10.19 Z" />
<path fill="#000000" opacity="1.00" d=" M 33.21 12.38 C 48.78 11.69 64.40 12.26 79.99 12.08 C 91.56 11.72 103.04 18.49 107.90 29.06 C 110.25 33.64 111.02 38.85 110.93 43.95 C 110.89 61.96 110.97 79.98 110.90 97.99 C 110.95 108.97 104.46 119.76 94.56 124.59 C 89.79 127.15 84.31 128.00 78.96 127.93 C 64.98 127.90 51.00 127.96 37.03 127.90 C 29.16 127.92 21.44 124.62 15.84 119.14 C 10.12 113.32 6.85 105.19 7.08 97.02 C 7.11 78.34 6.99 59.66 7.14 40.98 C 7.37 26.77 19.06 13.89 33.21 12.38 M 35.01 34.00 C 34.71 49.68 34.91 65.37 34.90 81.05 C 34.20 83.53 38.77 84.11 39.08 81.90 C 39.50 75.95 39.14 69.97 39.25 64.01 C 43.59 63.99 47.92 64.00 52.25 64.00 C 52.46 69.99 51.83 76.03 52.59 81.98 C 52.62 84.31 56.44 83.86 56.69 81.87 C 57.24 74.70 56.80 67.49 56.93 60.30 C 58.79 60.12 59.98 60.82 60.47 62.40 C 61.15 61.14 61.89 59.91 62.63 58.69 C 61.89 57.43 61.16 56.17 60.47 54.88 C 60.22 56.47 59.22 57.16 57.47 56.93 C 57.51 57.79 57.59 59.52 57.62 60.38 C 56.21 51.68 57.32 42.82 56.86 34.05 C 55.33 33.99 53.79 34.03 52.27 34.21 C 52.23 40.58 52.27 46.95 52.25 53.32 C 47.95 53.33 43.65 53.30 39.35 53.38 C 39.06 46.92 39.54 40.45 39.01 34.00 C 37.68 34.00 36.34 34.00 35.01 34.00 M 63.15 34.03 C 62.95 48.70 63.13 63.36 63.05 78.02 C 63.26 79.89 62.55 82.75 64.92 83.50 C 67.79 84.19 67.60 80.82 67.73 78.97 C 67.74 64.04 67.77 49.11 67.71 34.19 C 66.19 34.03 64.67 34.00 63.15 34.03 M 80.99 34.00 C 80.48 49.63 80.79 65.30 80.81 80.94 C 80.35 83.36 83.23 83.69 84.78 82.73 C 85.31 81.20 85.09 79.55 85.16 77.97 C 85.02 63.32 85.33 48.65 84.99 34.00 C 83.66 34.00 82.32 34.00 80.99 34.00 M 70.11 40.00 C 70.11 52.44 70.11 64.88 70.11 77.33 C 70.79 77.32 72.15 77.32 72.83 77.32 C 72.84 64.88 72.83 52.44 72.84 40.01 C 72.16 40.00 70.79 40.00 70.11 40.00 M 75.53 40.00 C 75.53 52.44 75.53 64.89 75.53 77.33 C 76.20 77.33 77.55 77.32 78.23 77.32 C 78.23 64.88 78.23 52.44 78.23 40.00 C 77.56 40.00 76.21 40.00 75.53 40.00 Z" />
<path fill="#000000" opacity="1.00" d=" M 39.63 57.33 C 43.55 57.32 47.48 57.33 51.40 57.32 C 51.36 57.99 51.28 59.33 51.24 60.00 C 47.42 60.00 43.61 60.00 39.79 60.00 C 39.75 59.33 39.67 58.00 39.63 57.33 Z" />
</g>
<g id="#6a6b6aff">
<path fill="#6a6b6a" opacity="1.00" d=" M 33.11 10.19 C 48.73 9.72 64.38 10.16 80.01 9.98 C 88.48 9.69 97.01 12.95 103.11 18.85 C 109.37 24.78 113.12 33.33 113.02 41.98 C 112.95 61.34 113.07 80.70 112.96 100.06 C 112.31 116.04 97.96 129.93 81.96 129.99 C 66.30 129.98 50.63 130.06 34.98 129.96 C 19.01 129.33 5.12 115.03 5.00 99.05 C 5.00 79.69 5.00 60.34 5.00 40.98 C 5.13 25.63 17.88 11.79 33.11 10.19 M 33.21 12.38 C 19.06 13.89 7.37 26.77 7.14 40.98 C 6.99 59.66 7.11 78.34 7.08 97.02 C 6.85 105.19 10.12 113.32 15.84 119.14 C 21.44 124.62 29.16 127.92 37.03 127.90 C 51.00 127.96 64.98 127.90 78.96 127.93 C 84.31 128.00 89.79 127.15 94.56 124.59 C 104.46 119.76 110.95 108.97 110.90 97.99 C 110.97 79.98 110.89 61.96 110.93 43.95 C 111.02 38.85 110.25 33.64 107.90 29.06 C 103.04 18.49 91.56 11.72 79.99 12.08 C 64.40 12.26 48.78 11.69 33.21 12.38 Z" />
</g>
<g id="#f8fcf8ff">
<path fill="#f8fcf8" opacity="1.00" d=" M 35.01 34.00 C 36.34 34.00 37.68 34.00 39.01 34.00 C 39.54 40.45 39.06 46.92 39.35 53.38 C 43.65 53.30 47.95 53.33 52.25 53.32 C 52.27 46.95 52.23 40.58 52.27 34.21 C 53.79 34.03 55.33 33.99 56.86 34.05 C 57.32 42.82 56.21 51.68 57.62 60.38 C 57.59 59.52 57.51 57.79 57.47 56.93 C 59.22 57.16 60.22 56.47 60.47 54.88 C 61.16 56.17 61.89 57.43 62.63 58.69 C 61.89 59.91 61.15 61.14 60.47 62.40 C 59.98 60.82 58.79 60.12 56.93 60.30 C 56.80 67.49 57.24 74.70 56.69 81.87 C 56.44 83.86 52.62 84.31 52.59 81.98 C 51.83 76.03 52.46 69.99 52.25 64.00 C 47.92 64.00 43.59 63.99 39.25 64.01 C 39.14 69.97 39.50 75.95 39.08 81.90 C 38.77 84.11 34.20 83.53 34.90 81.05 C 34.91 65.37 34.71 49.68 35.01 34.00 M 39.63 57.33 C 39.67 58.00 39.75 59.33 39.79 60.00 C 43.61 60.00 47.42 60.00 51.24 60.00 C 51.28 59.33 51.36 57.99 51.40 57.32 C 47.48 57.33 43.55 57.32 39.63 57.33 Z" />
<path fill="#f8fcf8" opacity="1.00" d=" M 63.15 34.03 C 64.67 34.00 66.19 34.03 67.71 34.19 C 67.77 49.11 67.74 64.04 67.73 78.97 C 67.60 80.82 67.79 84.19 64.92 83.50 C 62.55 82.75 63.26 79.89 63.05 78.02 C 63.13 63.36 62.95 48.70 63.15 34.03 Z" />
<path fill="#f8fcf8" opacity="1.00" d=" M 80.99 34.00 C 82.32 34.00 83.66 34.00 84.99 34.00 C 85.33 48.65 85.02 63.32 85.16 77.97 C 85.09 79.55 85.31 81.20 84.78 82.73 C 83.23 83.69 80.35 83.36 80.81 80.94 C 80.79 65.30 80.48 49.63 80.99 34.00 Z" />
<path fill="#f8fcf8" opacity="1.00" d=" M 70.11 40.00 C 70.79 40.00 72.16 40.00 72.84 40.01 C 72.83 52.44 72.84 64.88 72.83 77.32 C 72.15 77.32 70.79 77.32 70.11 77.33 C 70.11 64.88 70.11 52.44 70.11 40.00 Z" />
<path fill="#f8fcf8" opacity="1.00" d=" M 75.53 40.00 C 76.21 40.00 77.56 40.00 78.23 40.00 C 78.23 52.44 78.23 64.88 78.23 77.32 C 77.55 77.32 76.20 77.33 75.53 77.33 C 75.53 64.89 75.53 52.44 75.53 40.00 Z" />
</g>
</svg>
