<?xml version="1.0" encoding="UTF-8" ?>
<!DOCTYPE svg PUBLIC "-//W3C//DTD SVG 1.1//EN" "http://www.w3.org/Graphics/SVG/1.1/DTD/svg11.dtd">
<svg width="150px" height="80px" viewBox="0 0 150 80" version="1.1" xmlns="http://www.w3.org/2000/svg">
<g id="#000000ff">
<path fill="#000000" opacity="1.00" d=" M 0.00 0.00 L 150.00 0.00 L 150.00 80.00 L 0.00 80.00 L 0.00 0.00 M 6.40 5.58 C 2.28 6.58 0.79 11.12 0.98 14.92 C 0.97 30.95 1.10 47.00 0.93 63.03 C 1.05 66.31 0.80 70.16 3.34 72.66 C 5.28 74.70 8.28 74.91 10.92 75.02 C 53.64 74.97 96.36 74.97 139.08 75.02 C 141.73 74.91 144.71 74.67 146.67 72.65 C 149.20 70.16 148.93 66.30 149.07 63.04 C 148.95 47.68 148.95 32.32 149.07 16.96 C 148.94 13.70 149.21 9.84 146.67 7.35 C 144.43 5.09 141.02 5.05 138.06 4.95 C 99.38 5.08 60.69 4.99 22.00 5.00 C 16.81 5.11 11.51 4.43 6.40 5.58 Z" />
<path fill="#000000" opacity="1.00" d=" M 7.32 7.41 C 12.49 6.49 17.78 7.08 23.00 6.98 C 61.36 6.97 99.72 7.04 138.07 6.94 C 140.86 7.11 144.63 6.94 146.09 9.87 C 147.38 13.07 147.00 16.63 147.09 20.01 C 146.92 34.69 147.03 49.38 147.08 64.07 C 147.00 67.08 146.96 71.34 143.45 72.42 C 138.40 73.63 133.14 72.89 128.00 73.02 C 89.31 73.03 50.62 72.95 11.93 73.07 C 9.31 72.90 6.04 73.07 4.29 70.72 C 2.84 68.46 3.05 65.62 2.91 63.05 C 3.03 47.68 3.03 32.32 2.91 16.95 C 2.92 13.46 2.92 8.21 7.32 7.41 M 44.15 28.99 C 43.95 36.60 43.66 44.26 44.35 51.86 C 46.06 52.01 47.77 51.95 49.46 51.62 C 49.98 44.13 49.72 36.60 49.64 29.10 C 47.81 28.98 45.98 28.94 44.15 28.99 M 53.36 29.09 C 53.28 36.60 53.02 44.13 53.54 51.62 C 55.23 51.96 56.94 52.01 58.65 51.85 C 59.34 44.26 59.05 36.60 58.85 28.99 C 57.02 28.94 55.19 28.98 53.36 29.09 Z" />
</g>
<g id="#717571ff">
<path fill="#717571" opacity="1.00" d=" M 6.40 5.58 C 11.51 4.43 16.81 5.11 22.00 5.00 C 60.69 4.99 99.38 5.08 138.06 4.95 C 141.02 5.05 144.43 5.09 146.67 7.35 C 149.21 9.84 148.94 13.70 149.07 16.96 C 148.95 32.32 148.95 47.68 149.07 63.04 C 148.93 66.30 149.20 70.16 146.67 72.65 C 144.71 74.67 141.73 74.91 139.08 75.02 C 96.36 74.97 53.64 74.97 10.92 75.02 C 8.28 74.91 5.28 74.70 3.34 72.66 C 0.80 70.16 1.05 66.31 0.93 63.03 C 1.10 47.00 0.97 30.95 0.98 14.92 C 0.79 11.12 2.28 6.58 6.40 5.58 M 7.32 7.41 C 2.92 8.21 2.92 13.46 2.91 16.95 C 3.03 32.32 3.03 47.68 2.91 63.05 C 3.05 65.62 2.84 68.46 4.29 70.72 C 6.04 73.07 9.31 72.90 11.93 73.07 C 50.62 72.95 89.31 73.03 128.00 73.02 C 133.14 72.89 138.40 73.63 143.45 72.42 C 146.96 71.34 147.00 67.08 147.08 64.07 C 147.03 49.38 146.92 34.69 147.09 20.01 C 147.00 16.63 147.38 13.07 146.09 9.87 C 144.63 6.94 140.86 7.11 138.07 6.94 C 99.72 7.04 61.36 6.97 23.00 6.98 C 17.78 7.08 12.49 6.49 7.32 7.41 Z" />
</g>
<g id="#f8fcf8ff">
<path fill="#f8fcf8" opacity="1.00" d=" M 44.15 28.99 C 45.98 28.94 47.81 28.98 49.64 29.10 C 49.72 36.60 49.98 44.13 49.46 51.62 C 47.77 51.95 46.06 52.01 44.35 51.86 C 43.66 44.26 43.95 36.60 44.15 28.99 Z" />
<path fill="#f8fcf8" opacity="1.00" d=" M 53.36 29.09 C 55.19 28.98 57.02 28.94 58.85 28.99 C 59.05 36.60 59.34 44.26 58.65 51.85 C 56.94 52.01 55.23 51.96 53.54 51.62 C 53.02 44.13 53.28 36.60 53.36 29.09 Z" />
</g>
</svg>
