<?xml version="1.0" encoding="UTF-8" ?>
<!DOCTYPE svg PUBLIC "-//W3C//DTD SVG 1.1//EN" "http://www.w3.org/Graphics/SVG/1.1/DTD/svg11.dtd">
<svg width="117pt" height="140pt" viewBox="0 0 117 140" version="1.1" xmlns="http://www.w3.org/2000/svg">
<g id="#000000ff">
<path fill="#000000" opacity="1.00" d=" M 0.00 0.00 L 117.00 0.00 L 117.00 140.00 L 0.00 140.00 L 0.00 0.00 M 33.15 10.22 C 17.93 11.79 5.21 25.60 5.02 40.93 C 4.99 60.31 4.99 79.70 5.02 99.08 C 5.19 115.02 18.99 129.26 34.92 129.93 C 50.62 130.08 66.32 129.99 82.02 129.97 C 97.97 129.85 112.25 116.03 112.93 100.10 C 113.10 80.73 112.95 61.35 113.00 41.97 C 113.06 33.34 109.36 24.79 103.09 18.87 C 96.99 12.95 88.45 9.75 79.98 9.98 C 64.37 10.17 48.75 9.69 33.15 10.22 Z" />
<path fill="#000000" opacity="1.00" d=" M 30.45 12.71 C 34.24 11.84 38.15 12.00 42.01 12.00 C 55.68 12.06 69.36 11.89 83.02 12.08 C 97.89 12.73 110.83 26.04 110.96 40.94 C 111.02 60.30 111.03 79.66 110.96 99.02 C 110.87 114.27 97.31 127.83 82.06 127.95 C 66.71 128.05 51.35 128.01 35.99 127.97 C 20.74 127.84 7.16 114.32 7.03 99.05 C 6.98 79.69 6.98 60.33 7.03 40.97 C 7.21 27.66 17.46 15.44 30.45 12.71 M 38.54 41.62 C 35.78 44.14 32.12 45.85 30.02 49.00 C 27.93 54.30 34.42 56.61 37.46 59.53 C 39.66 62.15 43.07 61.45 46.00 60.88 C 46.00 58.25 46.00 55.63 46.00 53.00 C 48.00 53.00 50.00 53.00 52.00 53.00 C 52.00 52.25 52.00 50.75 52.00 50.00 C 50.00 50.00 48.00 50.00 46.00 50.00 C 46.00 47.04 46.00 44.08 46.00 41.12 C 43.55 40.92 40.62 39.63 38.54 41.62 M 70.99 41.10 C 71.01 44.07 70.99 47.03 71.00 50.00 C 68.67 50.00 66.33 50.00 64.00 50.00 C 64.00 50.75 64.00 52.25 64.00 53.00 C 66.33 53.00 68.67 53.00 71.00 53.00 C 71.00 55.63 71.01 58.26 70.99 60.88 C 73.60 61.84 76.60 61.72 78.55 59.53 C 81.26 56.83 86.01 55.32 86.47 51.03 C 85.97 46.48 80.84 44.94 77.99 42.03 C 76.16 39.97 73.33 40.43 70.99 41.10 M 53.00 50.00 C 53.00 50.75 53.00 52.25 53.00 53.00 C 53.75 53.00 55.25 53.00 56.00 53.00 C 56.00 52.25 56.00 50.75 56.00 50.00 C 55.25 50.00 53.75 50.00 53.00 50.00 M 57.00 50.00 C 57.00 50.75 57.00 52.25 57.00 53.00 C 59.00 53.00 61.00 53.00 63.00 53.00 C 63.00 52.25 63.00 50.75 63.00 50.00 C 61.00 50.00 59.00 50.00 57.00 50.00 Z" />
<path fill="#000000" opacity="1.00" d=" M 33.01 51.00 C 36.00 48.67 39.01 46.35 42.00 44.01 C 42.00 48.66 42.01 53.31 41.99 57.97 C 39.00 55.65 36.00 53.33 33.01 51.00 Z" />
<path fill="#000000" opacity="1.00" d=" M 75.00 44.81 C 77.67 46.86 80.33 48.93 82.99 51.00 C 80.33 53.07 77.67 55.14 75.00 57.19 C 75.00 53.06 75.00 48.94 75.00 44.81 Z" />
</g>
<g id="#717271ff">
<path fill="#717271" opacity="1.00" d=" M 33.15 10.22 C 48.75 9.69 64.37 10.17 79.98 9.98 C 88.45 9.75 96.99 12.95 103.09 18.87 C 109.36 24.79 113.06 33.34 113.00 41.97 C 112.95 61.35 113.10 80.73 112.93 100.10 C 112.25 116.03 97.97 129.85 82.02 129.97 C 66.32 129.99 50.62 130.08 34.92 129.93 C 18.99 129.26 5.19 115.02 5.02 99.08 C 4.99 79.70 4.99 60.31 5.02 40.93 C 5.21 25.60 17.93 11.79 33.15 10.22 M 30.45 12.71 C 17.46 15.44 7.21 27.66 7.03 40.97 C 6.98 60.33 6.98 79.69 7.03 99.05 C 7.16 114.32 20.74 127.84 35.99 127.97 C 51.35 128.01 66.71 128.05 82.06 127.95 C 97.31 127.83 110.87 114.27 110.96 99.02 C 111.03 79.66 111.02 60.30 110.96 40.94 C 110.83 26.04 97.89 12.73 83.02 12.08 C 69.36 11.89 55.68 12.06 42.01 12.00 C 38.15 12.00 34.24 11.84 30.45 12.71 Z" />
</g>
<g id="#f8fcf8ff">
<path fill="#f8fcf8" opacity="1.00" d=" M 38.54 41.62 C 40.62 39.63 43.55 40.92 46.00 41.12 C 46.00 44.08 46.00 47.04 46.00 50.00 C 48.00 50.00 50.00 50.00 52.00 50.00 C 52.00 50.75 52.00 52.25 52.00 53.00 C 50.00 53.00 48.00 53.00 46.00 53.00 C 46.00 55.63 46.00 58.25 46.00 60.88 C 43.07 61.45 39.66 62.15 37.46 59.53 C 34.42 56.61 27.93 54.30 30.02 49.00 C 32.12 45.85 35.78 44.14 38.54 41.62 M 33.01 51.00 C 36.00 53.33 39.00 55.65 41.99 57.97 C 42.01 53.31 42.00 48.66 42.00 44.01 C 39.01 46.35 36.00 48.67 33.01 51.00 Z" />
<path fill="#f8fcf8" opacity="1.00" d=" M 70.99 41.10 C 73.33 40.43 76.16 39.97 77.99 42.03 C 80.84 44.94 85.97 46.48 86.47 51.03 C 86.01 55.32 81.26 56.83 78.55 59.53 C 76.60 61.72 73.60 61.84 70.99 60.88 C 71.01 58.26 71.00 55.63 71.00 53.00 C 68.67 53.00 66.33 53.00 64.00 53.00 C 64.00 52.25 64.00 50.75 64.00 50.00 C 66.33 50.00 68.67 50.00 71.00 50.00 C 70.99 47.03 71.01 44.07 70.99 41.10 M 75.00 44.81 C 75.00 48.94 75.00 53.06 75.00 57.19 C 77.67 55.14 80.33 53.07 82.99 51.00 C 80.33 48.93 77.67 46.86 75.00 44.81 Z" />
<path fill="#f8fcf8" opacity="1.00" d=" M 53.00 50.00 C 53.75 50.00 55.25 50.00 56.00 50.00 C 56.00 50.75 56.00 52.25 56.00 53.00 C 55.25 53.00 53.75 53.00 53.00 53.00 C 53.00 52.25 53.00 50.75 53.00 50.00 Z" />
<path fill="#f8fcf8" opacity="1.00" d=" M 57.00 50.00 C 59.00 50.00 61.00 50.00 63.00 50.00 C 63.00 50.75 63.00 52.25 63.00 53.00 C 61.00 53.00 59.00 53.00 57.00 53.00 C 57.00 52.25 57.00 50.75 57.00 50.00 Z" />
</g>
</svg>
