<?xml version="1.0" encoding="UTF-8" ?>
<!DOCTYPE svg PUBLIC "-//W3C//DTD SVG 1.1//EN" "http://www.w3.org/Graphics/SVG/1.1/DTD/svg11.dtd">
<svg width="117pt" height="140pt" viewBox="0 0 117 140" version="1.1" xmlns="http://www.w3.org/2000/svg">
<g id="#000000ff">
<path fill="#000000" opacity="1.00" d=" M 0.00 0.00 L 117.00 0.00 L 117.00 140.00 L 0.00 140.00 L 0.00 0.00 M 33.11 10.23 C 17.90 11.82 5.21 25.62 5.02 40.93 C 5.02 60.65 4.93 80.37 5.06 100.09 C 5.76 116.01 19.98 129.81 35.92 129.98 C 51.63 129.98 67.34 130.09 83.05 129.92 C 98.64 129.28 112.28 115.62 112.94 100.04 C 113.09 80.69 112.95 61.34 113.00 41.99 C 113.07 33.36 109.37 24.81 103.11 18.89 C 97.01 12.96 88.46 9.75 79.98 9.98 C 64.36 10.17 48.71 9.69 33.11 10.23 Z" />
<path fill="#000000" opacity="1.00" d=" M 30.47 12.71 C 34.25 11.83 38.16 12.00 42.01 12.00 C 55.68 12.06 69.35 11.89 83.01 12.08 C 97.89 12.72 110.84 26.05 110.96 40.96 C 111.02 60.32 111.03 79.68 110.96 99.04 C 110.86 114.27 97.32 127.81 82.09 127.95 C 66.72 128.05 51.35 128.01 35.98 127.97 C 20.72 127.83 7.15 114.31 7.03 99.05 C 6.98 79.70 6.99 60.35 7.03 41.00 C 7.20 27.68 17.46 15.43 30.47 12.71 M 37.96 42.06 C 35.13 44.96 30.06 46.49 29.53 51.00 C 30.05 55.52 35.14 57.05 37.98 59.95 C 40.11 62.33 43.31 61.23 46.00 60.88 C 46.00 58.26 46.00 55.63 46.00 53.00 C 48.00 53.00 50.00 53.00 52.00 53.00 C 52.00 52.25 52.00 50.75 52.00 50.00 C 50.00 50.00 48.00 50.00 46.00 50.00 C 46.00 47.04 46.00 44.07 46.00 41.11 C 43.31 40.78 40.08 39.64 37.96 42.06 M 70.99 41.11 C 71.01 44.07 70.99 47.04 71.00 50.00 C 68.67 50.00 66.33 50.00 64.00 50.00 C 64.00 50.75 64.00 52.25 64.00 53.00 C 66.33 53.00 68.67 53.00 71.00 53.00 C 71.00 55.63 71.01 58.26 70.99 60.89 C 73.12 61.40 75.68 62.12 77.47 60.36 C 80.25 57.82 83.99 56.12 86.02 52.90 C 87.98 47.62 81.51 45.37 78.50 42.43 C 76.58 40.20 73.58 40.18 70.99 41.11 M 53.00 50.00 C 53.00 50.75 53.00 52.25 53.00 53.00 C 53.75 53.00 55.25 53.00 56.00 53.00 C 56.00 52.25 56.00 50.75 56.00 50.00 C 55.25 50.00 53.75 50.00 53.00 50.00 M 57.00 50.00 C 57.00 50.75 57.00 52.25 57.00 53.00 C 59.00 53.00 61.00 53.00 63.00 53.00 C 63.00 52.25 63.00 50.75 63.00 50.00 C 61.00 50.00 59.00 50.00 57.00 50.00 Z" />
<path fill="#000000" opacity="1.00" d=" M 33.01 51.00 C 36.00 48.67 39.01 46.35 42.00 44.01 C 42.00 48.66 42.01 53.31 41.99 57.97 C 38.99 55.65 36.00 53.33 33.01 51.00 Z" />
<path fill="#000000" opacity="1.00" d=" M 75.00 44.81 C 77.67 46.86 80.33 48.93 82.99 51.00 C 80.33 53.07 77.67 55.14 75.00 57.19 C 75.00 53.06 75.00 48.94 75.00 44.81 Z" />
</g>
<g id="#717271ff">
<path fill="#717271" opacity="1.00" d=" M 33.11 10.23 C 48.71 9.69 64.36 10.17 79.98 9.98 C 88.46 9.75 97.01 12.96 103.11 18.89 C 109.37 24.81 113.07 33.36 113.00 41.99 C 112.95 61.34 113.09 80.69 112.94 100.04 C 112.28 115.62 98.64 129.28 83.05 129.92 C 67.34 130.09 51.63 129.98 35.92 129.98 C 19.98 129.81 5.76 116.01 5.06 100.09 C 4.93 80.37 5.02 60.65 5.02 40.93 C 5.21 25.62 17.90 11.82 33.11 10.23 M 30.47 12.71 C 17.46 15.43 7.20 27.68 7.03 41.00 C 6.99 60.35 6.98 79.70 7.03 99.05 C 7.15 114.31 20.72 127.83 35.98 127.97 C 51.35 128.01 66.72 128.05 82.09 127.95 C 97.32 127.81 110.86 114.27 110.96 99.04 C 111.03 79.68 111.02 60.32 110.96 40.96 C 110.84 26.05 97.89 12.72 83.01 12.08 C 69.35 11.89 55.68 12.06 42.01 12.00 C 38.16 12.00 34.25 11.83 30.47 12.71 Z" />
</g>
<g id="#f8fcf8ff">
<path fill="#f8fcf8" opacity="1.00" d=" M 37.96 42.06 C 40.08 39.64 43.31 40.78 46.00 41.11 C 46.00 44.07 46.00 47.04 46.00 50.00 C 48.00 50.00 50.00 50.00 52.00 50.00 C 52.00 50.75 52.00 52.25 52.00 53.00 C 50.00 53.00 48.00 53.00 46.00 53.00 C 46.00 55.63 46.00 58.26 46.00 60.88 C 43.31 61.23 40.11 62.33 37.98 59.95 C 35.14 57.05 30.05 55.52 29.53 51.00 C 30.06 46.49 35.13 44.96 37.96 42.06 M 33.01 51.00 C 36.00 53.33 38.99 55.65 41.99 57.97 C 42.01 53.31 42.00 48.66 42.00 44.01 C 39.01 46.35 36.00 48.67 33.01 51.00 Z" />
<path fill="#f8fcf8" opacity="1.00" d=" M 70.99 41.11 C 73.58 40.18 76.58 40.20 78.50 42.43 C 81.51 45.37 87.98 47.62 86.02 52.90 C 83.99 56.12 80.25 57.82 77.47 60.36 C 75.68 62.12 73.12 61.40 70.99 60.89 C 71.01 58.26 71.00 55.63 71.00 53.00 C 68.67 53.00 66.33 53.00 64.00 53.00 C 64.00 52.25 64.00 50.75 64.00 50.00 C 66.33 50.00 68.67 50.00 71.00 50.00 C 70.99 47.04 71.01 44.07 70.99 41.11 M 75.00 44.81 C 75.00 48.94 75.00 53.06 75.00 57.19 C 77.67 55.14 80.33 53.07 82.99 51.00 C 80.33 48.93 77.67 46.86 75.00 44.81 Z" />
<path fill="#f8fcf8" opacity="1.00" d=" M 53.00 50.00 C 53.75 50.00 55.25 50.00 56.00 50.00 C 56.00 50.75 56.00 52.25 56.00 53.00 C 55.25 53.00 53.75 53.00 53.00 53.00 C 53.00 52.25 53.00 50.75 53.00 50.00 Z" />
<path fill="#f8fcf8" opacity="1.00" d=" M 57.00 50.00 C 59.00 50.00 61.00 50.00 63.00 50.00 C 63.00 50.75 63.00 52.25 63.00 53.00 C 61.00 53.00 59.00 53.00 57.00 53.00 C 57.00 52.25 57.00 50.75 57.00 50.00 Z" />
</g>
</svg>
