<?xml version="1.0" encoding="UTF-8" ?>
<!DOCTYPE svg PUBLIC "-//W3C//DTD SVG 1.1//EN" "http://www.w3.org/Graphics/SVG/1.1/DTD/svg11.dtd">
<svg width="117px" height="140px" viewBox="0 0 117 140" version="1.1" xmlns="http://www.w3.org/2000/svg">
<g id="#000000ff">
<path fill="#000000" opacity="1.00" d=" M 0.00 0.00 L 117.00 0.00 L 117.00 140.00 L 0.00 140.00 L 0.00 0.00 M 29.32 10.48 C 15.62 13.32 4.43 25.92 3.99 40.01 C 4.01 60.01 4.00 80.01 3.99 100.01 C 4.44 115.66 18.37 129.60 34.02 130.01 C 50.34 129.99 66.66 130.00 82.98 130.01 C 98.93 129.39 112.83 115.02 112.98 99.05 C 113.02 79.70 113.01 60.35 112.98 41.00 C 112.86 25.00 98.93 10.60 82.95 9.99 C 68.29 10.00 53.62 10.01 38.96 9.99 C 35.75 10.02 32.48 9.76 29.32 10.48 Z" />
<path fill="#000000" opacity="1.00" d=" M 35.09 12.24 C 49.40 11.84 63.73 12.19 78.04 12.06 C 87.62 11.91 97.49 15.76 103.39 23.52 C 107.76 29.05 109.98 36.05 109.99 43.07 C 110.01 61.06 110.01 79.04 109.99 97.02 C 109.93 103.51 108.08 110.00 104.27 115.29 C 98.89 123.16 89.46 127.64 80.04 127.85 C 66.71 128.05 53.38 127.85 40.05 127.95 C 33.38 128.05 26.49 126.86 20.86 123.11 C 12.34 117.88 7.01 107.95 7.09 97.99 C 7.08 78.98 7.01 59.97 7.13 40.96 C 7.26 26.04 20.20 12.84 35.09 12.24 M 44.72 28.05 C 44.69 33.82 44.67 39.59 44.74 45.36 C 42.37 45.33 40.00 45.33 37.63 45.36 C 38.34 50.24 37.75 55.18 38.18 60.07 C 40.31 63.30 44.93 61.48 48.14 61.89 C 51.01 64.57 53.69 67.46 56.61 70.09 C 53.11 70.06 49.62 70.07 46.12 70.12 C 46.10 72.84 46.10 75.56 46.08 78.27 C 54.40 78.25 62.72 78.27 71.04 78.27 C 70.88 77.58 70.54 76.19 70.38 75.50 C 63.39 74.95 56.36 75.64 49.36 75.19 C 49.31 74.73 49.22 73.81 49.17 73.35 C 52.69 73.34 56.22 73.35 59.74 73.35 C 59.90 72.60 60.23 71.09 60.39 70.34 C 63.06 67.37 66.02 64.66 68.89 61.88 C 72.10 61.49 76.72 63.30 78.83 60.05 C 79.24 55.16 78.67 50.23 79.37 45.36 C 77.00 45.33 74.63 45.33 72.26 45.36 C 72.33 39.59 72.31 33.82 72.28 28.05 C 63.09 28.01 53.91 28.01 44.72 28.05 Z" />
<path fill="#000000" opacity="1.00" d=" M 48.04 31.30 C 55.01 31.37 61.98 31.39 68.95 31.29 C 69.21 37.09 68.93 42.90 69.11 48.71 C 71.33 48.68 73.55 48.68 75.77 48.71 C 75.57 52.03 75.57 55.37 75.71 58.69 C 64.24 58.62 52.76 58.62 41.29 58.69 C 41.43 55.36 41.42 52.01 41.27 48.68 C 48.03 48.65 54.80 48.71 61.57 48.67 C 61.57 47.56 61.57 46.44 61.57 45.33 C 57.03 45.31 52.49 45.31 47.95 45.33 C 47.95 43.78 47.95 42.22 47.95 40.67 C 52.49 40.69 57.03 40.69 61.57 40.67 C 61.57 39.56 61.57 38.45 61.58 37.33 C 57.03 37.30 52.48 37.31 47.93 37.34 C 47.95 35.32 47.96 33.31 48.04 31.30 Z" />
<path fill="#000000" opacity="1.00" d=" M 53.70 62.27 C 56.96 61.76 60.27 61.83 63.53 62.25 C 62.06 63.61 60.50 64.87 58.79 65.92 C 56.46 66.25 55.43 63.36 53.70 62.27 Z" />
</g>
<g id="#707470ff">
<path fill="#707470" opacity="1.00" d=" M 29.32 10.48 C 32.48 9.76 35.75 10.02 38.96 9.99 C 53.62 10.01 68.29 10.00 82.95 9.99 C 98.93 10.60 112.86 25.00 112.98 41.00 C 113.01 60.35 113.02 79.70 112.98 99.05 C 112.83 115.02 98.93 129.39 82.98 130.01 C 66.66 130.00 50.34 129.99 34.02 130.01 C 18.37 129.60 4.44 115.66 3.99 100.01 C 4.00 80.01 4.01 60.01 3.99 40.01 C 4.43 25.92 15.62 13.32 29.32 10.48 M 35.09 12.24 C 20.20 12.84 7.26 26.04 7.13 40.96 C 7.01 59.97 7.08 78.98 7.09 97.99 C 7.01 107.95 12.34 117.88 20.86 123.11 C 26.49 126.86 33.38 128.05 40.05 127.95 C 53.38 127.85 66.71 128.05 80.04 127.85 C 89.46 127.64 98.89 123.16 104.27 115.29 C 108.08 110.00 109.93 103.51 109.99 97.02 C 110.01 79.04 110.01 61.06 109.99 43.07 C 109.98 36.05 107.76 29.05 103.39 23.52 C 97.49 15.76 87.62 11.91 78.04 12.06 C 63.73 12.19 49.40 11.84 35.09 12.24 Z" />
<path fill="#707470" opacity="1.00" d=" M 52.70 61.50 C 52.95 61.69 53.45 62.08 53.70 62.27 C 55.43 63.36 56.46 66.25 58.79 65.92 C 60.50 64.87 62.06 63.61 63.53 62.25 C 63.73 62.08 64.11 61.74 64.31 61.57 C 62.27 63.38 60.72 67.38 57.52 66.71 C 55.74 65.14 54.12 63.40 52.70 61.50 Z" />
</g>
<g id="#e86010ff">
<path fill="#e86010" opacity="1.00" d=" M 44.72 28.05 C 53.91 28.01 63.09 28.01 72.28 28.05 C 72.31 33.82 72.33 39.59 72.26 45.36 C 74.63 45.33 77.00 45.33 79.37 45.36 C 78.67 50.23 79.24 55.16 78.83 60.05 C 76.72 63.30 72.10 61.49 68.89 61.88 C 66.02 64.66 63.06 67.37 60.39 70.34 C 60.23 71.09 59.90 72.60 59.74 73.35 C 56.22 73.35 52.69 73.34 49.17 73.35 C 49.22 73.81 49.31 74.73 49.36 75.19 C 56.36 75.64 63.39 74.95 70.38 75.50 C 70.54 76.19 70.88 77.58 71.04 78.27 C 62.72 78.27 54.40 78.25 46.08 78.27 C 46.10 75.56 46.10 72.84 46.12 70.12 C 49.62 70.07 53.11 70.06 56.61 70.09 C 53.69 67.46 51.01 64.57 48.14 61.89 C 44.93 61.48 40.31 63.30 38.18 60.07 C 37.75 55.18 38.34 50.24 37.63 45.36 C 40.00 45.33 42.37 45.33 44.74 45.36 C 44.67 39.59 44.69 33.82 44.72 28.05 M 48.04 31.30 C 47.96 33.31 47.95 35.32 47.93 37.34 C 52.48 37.31 57.03 37.30 61.58 37.33 C 61.57 38.45 61.57 39.56 61.57 40.67 C 57.03 40.69 52.49 40.69 47.95 40.67 C 47.95 42.22 47.95 43.78 47.95 45.33 C 52.49 45.31 57.03 45.31 61.57 45.33 C 61.57 46.44 61.57 47.56 61.57 48.67 C 54.80 48.71 48.03 48.65 41.27 48.68 C 41.42 52.01 41.43 55.36 41.29 58.69 C 52.76 58.62 64.24 58.62 75.71 58.69 C 75.57 55.37 75.57 52.03 75.77 48.71 C 73.55 48.68 71.33 48.68 69.11 48.71 C 68.93 42.90 69.21 37.09 68.95 31.29 C 61.98 31.39 55.01 31.37 48.04 31.30 M 52.70 61.50 C 54.12 63.40 55.74 65.14 57.52 66.71 C 60.72 67.38 62.27 63.38 64.31 61.57 C 64.11 61.74 63.73 62.08 63.53 62.25 C 60.27 61.83 56.96 61.76 53.70 62.27 C 53.45 62.08 52.95 61.69 52.70 61.50 Z" />
</g>
</svg>
