<?xml version="1.0" encoding="UTF-8" ?>
<!DOCTYPE svg PUBLIC "-//W3C//DTD SVG 1.1//EN" "http://www.w3.org/Graphics/SVG/1.1/DTD/svg11.dtd">
<svg width="117px" height="140px" viewBox="0 0 117 140" version="1.1" xmlns="http://www.w3.org/2000/svg">
<g id="#000000ff">
<path fill="#000000" opacity="1.00" d=" M 0.00 0.00 L 117.00 0.00 L 117.00 140.00 L 0.00 140.00 L 0.00 0.00 M 33.17 10.26 C 17.93 11.80 5.22 25.65 5.05 40.98 C 4.97 60.33 4.97 79.69 5.05 99.05 C 5.20 115.37 19.67 129.83 36.00 129.95 C 51.70 129.99 67.41 130.12 83.10 129.88 C 99.01 129.23 112.82 114.96 112.94 99.04 C 113.06 80.03 112.99 61.01 112.97 42.00 C 113.09 30.95 106.91 20.17 97.41 14.57 C 91.89 11.20 85.36 9.79 78.93 9.99 C 63.68 10.19 48.41 9.65 33.17 10.26 Z" />
<path fill="#000000" opacity="1.00" d=" M 33.20 12.33 C 45.12 11.74 57.08 12.23 69.01 12.07 C 77.13 12.29 85.74 11.03 93.32 14.71 C 103.83 19.34 111.13 30.46 110.91 41.99 C 110.96 60.31 110.92 78.64 110.93 96.97 C 111.03 102.30 109.96 107.69 107.27 112.33 C 102.27 121.82 91.77 128.02 81.06 127.91 C 66.01 127.93 50.95 127.99 35.90 127.88 C 20.72 127.76 7.20 114.26 7.12 99.07 C 7.03 79.71 7.03 60.34 7.12 40.97 C 7.22 26.74 19.05 13.79 33.20 12.33 M 60.35 27.14 C 56.37 31.09 52.41 35.06 48.46 39.03 C 50.11 41.07 52.48 41.59 55.00 41.29 C 55.00 43.30 55.00 45.31 55.00 47.33 C 53.04 47.32 51.09 47.33 49.14 47.33 C 49.15 44.92 48.54 42.43 46.66 40.79 C 42.73 44.76 38.77 48.71 34.81 52.65 C 38.78 56.60 42.71 60.59 46.71 64.52 C 47.48 63.64 48.24 62.77 49.01 61.89 C 49.00 60.59 49.00 59.30 49.00 58.00 C 51.00 58.00 53.00 58.00 55.00 58.00 C 55.00 59.99 55.00 61.99 55.00 63.98 C 52.46 63.65 50.10 64.26 48.46 66.30 C 52.42 70.27 56.38 74.25 60.37 78.19 C 64.26 74.26 68.16 70.33 72.11 66.46 C 71.78 66.08 71.11 65.32 70.78 64.94 C 70.22 64.72 69.08 64.29 68.51 64.08 C 67.81 64.05 66.41 63.99 65.71 63.96 C 65.71 61.97 65.71 59.99 65.71 58.00 C 67.70 58.00 69.70 58.00 71.70 58.00 C 71.39 60.53 71.94 62.89 73.98 64.54 C 77.95 60.58 81.91 56.62 85.88 52.65 C 81.95 48.73 78.04 44.80 74.11 40.89 C 73.70 41.23 72.88 41.90 72.47 42.24 C 72.05 43.91 71.77 45.61 71.55 47.32 C 69.60 47.32 67.65 47.32 65.71 47.33 C 65.71 45.36 65.71 43.40 65.73 41.43 C 67.41 41.18 69.10 40.92 70.77 40.54 C 71.10 40.13 71.76 39.32 72.09 38.91 C 68.19 34.97 64.29 31.04 60.35 27.14 Z" />
<path fill="#000000" opacity="1.00" d=" M 60.29 30.93 C 62.90 33.46 65.47 36.03 68.04 38.61 C 66.36 38.61 64.68 38.61 63.00 38.61 C 63.00 42.41 63.00 46.20 63.00 50.00 C 66.81 50.00 70.61 50.00 74.42 50.00 C 74.42 48.33 74.41 46.67 74.40 45.00 C 76.98 47.54 79.54 50.09 82.09 52.66 C 79.55 55.22 77.03 57.79 74.40 60.25 C 74.40 58.62 74.40 56.98 74.41 55.35 C 70.61 55.31 66.81 55.33 63.01 55.32 C 63.00 59.13 63.00 62.93 63.01 66.74 C 64.67 66.74 66.34 66.74 68.01 66.74 C 65.47 69.31 62.91 71.84 60.37 74.40 C 57.80 71.86 55.24 69.31 52.71 66.73 C 54.36 66.72 56.00 66.73 57.65 66.74 C 57.65 62.93 57.65 59.13 57.64 55.33 C 53.86 55.32 50.09 55.33 46.31 55.32 C 46.29 56.96 46.26 58.60 46.23 60.24 C 43.65 57.74 41.13 55.19 38.61 52.64 C 41.18 50.11 43.73 47.54 46.29 44.99 C 46.29 46.66 46.29 48.32 46.28 49.99 C 50.07 50.00 53.86 50.00 57.65 49.99 C 57.64 46.19 57.65 42.40 57.64 38.60 C 56.00 38.62 54.36 38.63 52.72 38.64 C 55.20 36.03 57.79 33.52 60.29 30.93 Z" />
</g>
<g id="#787978ff">
<path fill="#787978" opacity="1.00" d=" M 33.17 10.26 C 48.41 9.65 63.68 10.19 78.93 9.99 C 85.36 9.79 91.89 11.20 97.41 14.57 C 106.91 20.17 113.09 30.95 112.97 42.00 C 112.99 61.01 113.06 80.03 112.94 99.04 C 112.82 114.96 99.01 129.23 83.10 129.88 C 67.41 130.12 51.70 129.99 36.00 129.95 C 19.67 129.83 5.20 115.37 5.05 99.05 C 4.97 79.69 4.97 60.33 5.05 40.98 C 5.22 25.65 17.93 11.80 33.17 10.26 M 33.20 12.33 C 19.05 13.79 7.22 26.74 7.12 40.97 C 7.03 60.34 7.03 79.71 7.12 99.07 C 7.20 114.26 20.72 127.76 35.90 127.88 C 50.95 127.99 66.01 127.93 81.06 127.91 C 91.77 128.02 102.27 121.82 107.27 112.33 C 109.96 107.69 111.03 102.30 110.93 96.97 C 110.92 78.64 110.96 60.31 110.91 41.99 C 111.13 30.46 103.83 19.34 93.32 14.71 C 85.74 11.03 77.13 12.29 69.01 12.07 C 57.08 12.23 45.12 11.74 33.20 12.33 Z" />
</g>
<g id="#f8fcf8ff">
<path fill="#f8fcf8" opacity="1.00" d=" M 60.35 27.14 C 64.29 31.04 68.19 34.97 72.09 38.91 C 71.76 39.32 71.10 40.13 70.77 40.54 C 69.10 40.92 67.41 41.18 65.73 41.43 C 65.71 43.40 65.71 45.36 65.71 47.33 C 67.65 47.32 69.60 47.32 71.55 47.32 C 71.77 45.61 72.05 43.91 72.47 42.24 C 72.88 41.90 73.70 41.23 74.11 40.89 C 78.04 44.80 81.95 48.73 85.88 52.65 C 81.91 56.62 77.95 60.58 73.98 64.54 C 71.94 62.89 71.39 60.53 71.70 58.00 C 69.70 58.00 67.70 58.00 65.71 58.00 C 65.71 59.99 65.71 61.97 65.71 63.96 C 66.41 63.99 67.81 64.05 68.51 64.08 C 69.08 64.29 70.22 64.72 70.78 64.94 C 71.11 65.32 71.78 66.08 72.11 66.46 C 68.16 70.33 64.26 74.26 60.37 78.19 C 56.38 74.25 52.42 70.27 48.46 66.30 C 50.10 64.26 52.46 63.65 55.00 63.98 C 55.00 61.99 55.00 59.99 55.00 58.00 C 53.00 58.00 51.00 58.00 49.00 58.00 C 49.00 59.30 49.00 60.59 49.01 61.89 C 48.24 62.77 47.48 63.64 46.71 64.52 C 42.71 60.59 38.78 56.60 34.81 52.65 C 38.77 48.71 42.73 44.76 46.66 40.79 C 48.54 42.43 49.15 44.92 49.14 47.33 C 51.09 47.33 53.04 47.32 55.00 47.33 C 55.00 45.31 55.00 43.30 55.00 41.29 C 52.48 41.59 50.11 41.07 48.46 39.03 C 52.41 35.06 56.37 31.09 60.35 27.14 M 60.29 30.93 C 57.79 33.52 55.20 36.03 52.72 38.64 C 54.36 38.63 56.00 38.62 57.64 38.60 C 57.65 42.40 57.64 46.19 57.65 49.99 C 53.86 50.00 50.07 50.00 46.28 49.99 C 46.29 48.32 46.29 46.66 46.29 44.99 C 43.73 47.54 41.18 50.11 38.61 52.64 C 41.13 55.19 43.65 57.74 46.23 60.24 C 46.26 58.60 46.29 56.96 46.31 55.32 C 50.09 55.33 53.86 55.32 57.64 55.33 C 57.65 59.13 57.65 62.93 57.65 66.74 C 56.00 66.73 54.36 66.72 52.71 66.73 C 55.24 69.31 57.80 71.86 60.37 74.40 C 62.91 71.84 65.47 69.31 68.01 66.74 C 66.34 66.74 64.67 66.74 63.01 66.74 C 63.00 62.93 63.00 59.13 63.01 55.32 C 66.81 55.33 70.61 55.31 74.41 55.35 C 74.40 56.98 74.40 58.62 74.40 60.25 C 77.03 57.79 79.55 55.22 82.09 52.66 C 79.54 50.09 76.98 47.54 74.40 45.00 C 74.41 46.67 74.42 48.33 74.42 50.00 C 70.61 50.00 66.81 50.00 63.00 50.00 C 63.00 46.20 63.00 42.41 63.00 38.61 C 64.68 38.61 66.36 38.61 68.04 38.61 C 65.47 36.03 62.90 33.46 60.29 30.93 Z" />
</g>
</svg>
