<?xml version="1.0" encoding="UTF-8" ?>
<!DOCTYPE svg PUBLIC "-//W3C//DTD SVG 1.1//EN" "http://www.w3.org/Graphics/SVG/1.1/DTD/svg11.dtd">
<svg width="117px" height="140px" viewBox="0 0 117 140" version="1.1" xmlns="http://www.w3.org/2000/svg">
<g id="#000000ff">
<path fill="#000000" opacity="1.00" d=" M 0.00 0.00 L 117.00 0.00 L 117.00 140.00 L 0.00 140.00 L 0.00 0.00 M 36.70 42.01 C 36.55 50.67 36.55 59.33 36.70 68.00 C 43.91 68.00 51.12 68.01 58.33 67.99 C 58.34 66.00 58.34 64.00 58.33 62.01 C 53.97 62.02 49.62 62.02 45.27 61.85 C 45.28 60.62 45.27 59.38 45.27 58.15 C 48.84 58.01 52.42 57.98 56.00 57.98 C 56.00 55.88 56.00 53.79 56.00 51.70 C 52.44 51.61 48.87 51.60 45.31 51.63 C 45.31 50.54 45.31 49.45 45.31 48.36 C 49.54 48.41 53.77 48.41 58.00 48.30 C 58.00 46.20 58.00 44.10 58.00 42.00 C 50.90 41.99 43.80 41.99 36.70 42.01 M 61.74 49.13 C 61.52 55.42 61.56 61.71 61.70 68.00 C 64.24 68.00 66.78 68.00 69.31 68.00 C 69.46 63.87 69.08 59.70 69.71 55.60 C 71.06 54.41 72.94 54.42 74.29 55.59 C 74.91 59.70 74.54 63.87 74.68 68.00 C 77.22 68.00 79.75 68.00 82.29 68.00 C 82.31 63.07 82.90 58.04 81.80 53.19 C 81.20 50.08 77.93 48.44 75.00 48.46 C 72.35 48.39 70.27 50.24 68.20 51.62 C 68.22 51.02 68.26 49.82 68.29 49.22 C 66.10 49.19 63.92 49.17 61.74 49.13 Z" />
</g>
<g id="#f8fcf8ff">
<path fill="#f8fcf8" opacity="1.00" d=" M 36.70 42.01 C 43.80 41.99 50.90 41.99 58.00 42.00 C 58.00 44.10 58.00 46.20 58.00 48.30 C 53.77 48.41 49.54 48.41 45.31 48.36 C 45.31 49.45 45.31 50.54 45.31 51.63 C 48.87 51.60 52.44 51.61 56.00 51.70 C 56.00 53.79 56.00 55.88 56.00 57.98 C 52.42 57.98 48.84 58.01 45.27 58.15 C 45.27 59.38 45.28 60.62 45.27 61.85 C 49.62 62.02 53.97 62.02 58.33 62.01 C 58.34 64.00 58.34 66.00 58.33 67.99 C 51.12 68.01 43.91 68.00 36.70 68.00 C 36.55 59.33 36.55 50.67 36.70 42.01 Z" />
<path fill="#f8fcf8" opacity="1.00" d=" M 61.74 49.13 C 63.92 49.17 66.10 49.19 68.29 49.22 C 68.26 49.82 68.22 51.02 68.20 51.62 C 70.27 50.24 72.35 48.39 75.00 48.46 C 77.93 48.44 81.20 50.08 81.80 53.19 C 82.90 58.04 82.31 63.07 82.29 68.00 C 79.75 68.00 77.22 68.00 74.68 68.00 C 74.54 63.87 74.91 59.70 74.29 55.59 C 72.94 54.42 71.06 54.41 69.71 55.60 C 69.08 59.70 69.46 63.87 69.31 68.00 C 66.78 68.00 64.24 68.00 61.70 68.00 C 61.56 61.71 61.52 55.42 61.74 49.13 Z" />
</g>
</svg>
