<?xml version="1.0" encoding="UTF-8" ?>
<!DOCTYPE svg PUBLIC "-//W3C//DTD SVG 1.1//EN" "http://www.w3.org/Graphics/SVG/1.1/DTD/svg11.dtd">
<svg width="117px" height="140px" viewBox="0 0 117 140" version="1.1" xmlns="http://www.w3.org/2000/svg">
<g id="#000000ff">
<path fill="#000000" opacity="1.00" d=" M 0.00 0.00 L 117.00 0.00 L 117.00 140.00 L 0.00 140.00 L 0.00 0.00 M 33.23 10.23 C 17.98 11.76 5.22 25.57 5.03 40.92 C 4.96 59.95 5.02 78.97 5.00 98.00 C 4.93 108.06 10.00 117.95 18.15 123.83 C 23.85 128.03 30.95 130.18 38.02 130.02 C 53.02 129.92 68.03 130.13 83.03 129.91 C 98.97 129.27 112.82 115.03 112.96 99.07 C 113.05 80.04 112.99 61.01 112.99 41.98 C 113.09 31.18 107.19 20.61 98.03 14.93 C 92.40 11.34 85.65 9.74 79.01 9.98 C 63.75 10.18 48.48 9.68 33.23 10.23 Z" />
<path fill="#000000" opacity="1.00" d=" M 30.51 12.68 C 34.29 11.84 38.18 11.99 42.02 12.00 C 55.71 12.06 69.40 11.89 83.08 12.08 C 97.95 12.74 110.88 26.09 110.96 41.00 C 111.02 60.35 111.03 79.70 110.96 99.06 C 110.85 113.92 97.96 127.26 83.12 127.89 C 71.10 128.14 59.08 127.93 47.05 128.00 C 40.07 127.85 32.76 128.78 26.14 125.98 C 15.18 121.83 7.17 110.76 7.03 98.98 C 6.96 80.02 7.02 61.05 7.00 42.08 C 6.66 28.35 17.11 15.46 30.51 12.68 M 33.22 39.70 C 34.25 40.65 35.28 41.61 36.31 42.57 C 47.29 31.53 66.83 31.57 77.87 42.51 C 78.86 41.42 79.84 40.32 80.83 39.22 C 75.48 34.79 69.17 31.24 62.17 30.43 C 51.78 28.90 40.65 32.15 33.22 39.70 M 39.95 46.02 C 41.07 47.23 42.22 48.42 43.32 49.66 C 50.64 42.35 63.24 42.60 70.82 49.42 C 71.94 48.24 73.07 47.08 74.24 45.95 C 64.86 37.32 49.27 37.24 39.95 46.02 M 47.02 53.07 C 48.15 54.20 49.29 55.34 50.43 56.47 C 54.25 53.13 59.86 53.38 63.80 56.35 C 64.93 55.20 66.04 54.05 67.20 52.94 C 61.45 48.21 52.64 48.04 47.02 53.07 M 73.59 53.02 C 73.45 57.79 73.61 62.57 73.56 67.35 C 62.38 67.30 51.19 67.32 40.01 67.33 C 36.93 67.09 34.06 69.99 34.35 73.07 C 34.58 75.80 37.11 78.09 39.87 77.95 C 52.60 77.95 65.33 78.03 78.06 77.90 C 81.61 77.88 84.09 73.70 82.53 70.55 C 81.53 67.99 78.63 67.19 76.15 67.14 C 76.24 62.08 76.46 57.00 76.09 51.96 C 75.42 50.64 73.02 51.40 73.59 53.02 M 53.16 58.99 C 54.38 60.38 55.34 62.16 57.06 62.99 C 59.20 62.79 60.00 60.46 61.15 58.99 C 58.70 56.92 55.68 57.17 53.16 58.99 Z" />
<path fill="#000000" opacity="1.00" d=" M 62.53 71.56 C 64.07 70.22 65.92 73.17 63.98 73.81 C 62.75 74.93 61.12 72.46 62.53 71.56 Z" />
<path fill="#000000" opacity="1.00" d=" M 66.54 71.59 C 68.12 70.17 70.10 73.31 67.91 73.86 C 66.68 74.90 65.26 72.42 66.54 71.59 Z" />
<path fill="#000000" opacity="1.00" d=" M 70.59 71.69 C 71.58 70.30 74.00 72.49 72.56 73.54 C 71.40 75.14 69.02 72.67 70.59 71.69 Z" />
</g>
<g id="#747574ff">
<path fill="#747574" opacity="1.00" d=" M 33.23 10.23 C 48.48 9.68 63.75 10.18 79.01 9.98 C 85.65 9.74 92.40 11.34 98.03 14.93 C 107.19 20.61 113.09 31.18 112.99 41.98 C 112.99 61.01 113.05 80.04 112.96 99.07 C 112.82 115.03 98.97 129.27 83.03 129.91 C 68.03 130.13 53.02 129.92 38.02 130.02 C 30.95 130.18 23.85 128.03 18.15 123.83 C 10.00 117.95 4.93 108.06 5.00 98.00 C 5.02 78.97 4.96 59.95 5.03 40.92 C 5.22 25.57 17.98 11.76 33.23 10.23 M 30.51 12.68 C 17.11 15.46 6.66 28.35 7.00 42.08 C 7.02 61.05 6.96 80.02 7.03 98.98 C 7.17 110.76 15.18 121.83 26.14 125.98 C 32.76 128.78 40.07 127.85 47.05 128.00 C 59.08 127.93 71.10 128.14 83.12 127.89 C 97.96 127.26 110.85 113.92 110.96 99.06 C 111.03 79.70 111.02 60.35 110.96 41.00 C 110.88 26.09 97.95 12.74 83.08 12.08 C 69.40 11.89 55.71 12.06 42.02 12.00 C 38.18 11.99 34.29 11.84 30.51 12.68 Z" />
</g>
<g id="#f8fcf8ff">
<path fill="#f8fcf8" opacity="1.00" d=" M 33.22 39.70 C 40.65 32.15 51.78 28.90 62.17 30.43 C 69.17 31.24 75.48 34.79 80.83 39.22 C 79.84 40.32 78.86 41.42 77.87 42.51 C 66.83 31.57 47.29 31.53 36.31 42.57 C 35.28 41.61 34.25 40.65 33.22 39.70 Z" />
<path fill="#f8fcf8" opacity="1.00" d=" M 39.95 46.02 C 49.27 37.24 64.86 37.32 74.24 45.95 C 73.07 47.08 71.94 48.24 70.82 49.42 C 63.24 42.60 50.64 42.35 43.32 49.66 C 42.22 48.42 41.07 47.23 39.95 46.02 Z" />
<path fill="#f8fcf8" opacity="1.00" d=" M 47.02 53.07 C 52.64 48.04 61.45 48.21 67.20 52.94 C 66.04 54.05 64.93 55.20 63.80 56.35 C 59.86 53.38 54.25 53.13 50.43 56.47 C 49.29 55.34 48.15 54.20 47.02 53.07 Z" />
<path fill="#f8fcf8" opacity="1.00" d=" M 73.59 53.02 C 73.02 51.40 75.42 50.64 76.09 51.96 C 76.46 57.00 76.24 62.08 76.15 67.14 C 78.63 67.19 81.53 67.99 82.53 70.55 C 84.09 73.70 81.61 77.88 78.06 77.90 C 65.33 78.03 52.60 77.95 39.87 77.95 C 37.11 78.09 34.58 75.80 34.35 73.07 C 34.06 69.99 36.93 67.09 40.01 67.33 C 51.19 67.32 62.38 67.30 73.56 67.35 C 73.61 62.57 73.45 57.79 73.59 53.02 M 62.53 71.56 C 61.12 72.46 62.75 74.93 63.98 73.81 C 65.92 73.17 64.07 70.22 62.53 71.56 M 66.54 71.59 C 65.26 72.42 66.68 74.90 67.91 73.86 C 70.10 73.31 68.12 70.17 66.54 71.59 M 70.59 71.69 C 69.02 72.67 71.40 75.14 72.56 73.54 C 74.00 72.49 71.58 70.30 70.59 71.69 Z" />
<path fill="#f8fcf8" opacity="1.00" d=" M 53.16 58.99 C 55.68 57.17 58.70 56.92 61.15 58.99 C 60.00 60.46 59.20 62.79 57.06 62.99 C 55.34 62.16 54.38 60.38 53.16 58.99 Z" />
</g>
</svg>
