<?xml version="1.0" encoding="UTF-8" ?>
<!DOCTYPE svg PUBLIC "-//W3C//DTD SVG 1.1//EN" "http://www.w3.org/Graphics/SVG/1.1/DTD/svg11.dtd">
<svg width="117px" height="140px" viewBox="0 0 117 140" version="1.1" xmlns="http://www.w3.org/2000/svg">
<g id="#000000ff">
<path fill="#000000" opacity="1.00" d=" M 0.00 0.00 L 117.00 0.00 L 117.00 140.00 L 0.00 140.00 L 0.00 0.00 M 18.41 15.68 C 13.60 19.12 9.51 23.69 7.16 29.16 C 6.05 31.25 5.50 33.56 5.06 35.87 C 4.18 38.83 4.39 41.94 4.38 44.98 C 4.38 62.66 4.40 80.34 4.37 98.02 C 4.46 104.25 6.34 110.38 9.70 115.62 C 15.55 124.22 25.59 129.59 35.99 129.64 C 51.00 129.58 66.02 129.65 81.03 129.60 C 85.06 129.25 89.18 128.61 92.87 126.86 C 94.49 126.08 96.10 125.25 97.63 124.30 C 101.01 121.91 103.91 118.98 106.32 115.61 C 109.58 110.34 111.72 104.25 111.62 98.00 C 111.62 79.32 111.61 60.63 111.62 41.95 C 111.66 39.93 111.49 37.90 110.94 35.95 C 110.31 31.79 108.46 27.95 106.30 24.39 C 103.84 21.07 101.02 18.06 97.62 15.70 C 96.08 14.74 94.47 13.92 92.83 13.14 C 89.20 11.34 85.07 10.80 81.07 10.39 C 66.40 10.35 51.72 10.42 37.04 10.36 C 30.48 10.29 23.93 12.11 18.41 15.68 Z" />
<path fill="#000000" opacity="1.00" d=" M 26.97 12.81 C 29.62 12.26 32.26 11.53 34.99 11.59 C 50.33 11.63 65.68 11.64 81.02 11.59 C 83.75 11.54 86.39 12.27 89.04 12.81 C 98.46 15.96 106.10 23.56 109.19 33.01 C 109.45 34.40 109.78 35.77 110.25 37.11 C 110.59 57.73 110.25 78.37 110.42 98.99 C 110.56 101.75 109.88 104.43 109.22 107.08 C 106.00 116.44 98.48 124.03 89.07 127.19 C 86.43 127.73 83.78 128.45 81.06 128.41 C 65.68 128.37 50.31 128.37 34.94 128.41 C 32.23 128.47 29.61 127.74 26.99 127.19 C 17.54 124.09 10.04 116.46 6.78 107.11 C 6.18 104.11 5.42 101.11 5.58 98.03 C 5.75 77.70 5.43 57.37 5.74 37.05 C 6.21 35.72 6.55 34.35 6.82 32.98 C 9.92 23.54 17.56 15.95 26.97 12.81 M 35.17 42.01 C 35.18 50.67 35.17 59.34 35.17 68.00 C 38.06 68.00 40.94 68.00 43.83 68.00 C 43.82 64.97 43.83 61.95 43.83 58.92 C 46.01 59.21 49.10 58.37 50.43 60.67 C 51.01 63.07 50.86 65.57 51.09 68.01 C 54.01 67.99 56.93 67.98 59.86 68.06 C 58.55 65.52 59.10 62.64 58.84 59.92 C 58.81 57.78 56.71 56.74 55.32 55.50 C 60.47 53.43 60.28 44.53 54.82 42.99 C 48.46 41.23 41.69 42.29 35.17 42.01 M 62.60 49.18 C 62.89 54.36 61.86 59.71 63.28 64.77 C 65.40 69.54 72.31 69.31 75.76 66.14 C 76.29 69.61 81.00 67.38 83.41 68.01 C 83.41 61.73 83.42 55.45 83.40 49.17 C 80.80 49.17 78.20 49.17 75.60 49.17 C 75.40 53.18 76.06 57.28 75.18 61.23 C 74.82 63.33 70.44 63.21 70.54 60.88 C 70.22 56.99 70.48 53.08 70.40 49.18 C 67.80 49.17 65.20 49.17 62.60 49.18 Z" />
<path fill="#000000" opacity="1.00" d=" M 43.92 48.25 C 46.89 48.35 51.39 47.74 51.40 52.00 C 49.06 53.30 46.38 53.28 43.79 53.21 C 43.83 51.56 43.88 49.91 43.92 48.25 Z" />
</g>
<g id="#e76010ff">
<path fill="#e76010" opacity="1.00" d=" M 18.41 15.68 C 23.93 12.11 30.48 10.29 37.04 10.36 C 51.72 10.42 66.40 10.35 81.07 10.39 C 85.07 10.80 89.20 11.34 92.83 13.14 C 94.47 13.92 96.08 14.74 97.62 15.70 C 101.02 18.06 103.84 21.07 106.30 24.39 C 108.46 27.95 110.31 31.79 110.94 35.95 C 111.49 37.90 111.66 39.93 111.62 41.95 C 111.61 60.63 111.62 79.32 111.62 98.00 C 111.72 104.25 109.58 110.34 106.32 115.61 C 103.91 118.98 101.01 121.91 97.63 124.30 C 96.10 125.25 94.49 126.08 92.87 126.86 C 89.18 128.61 85.06 129.25 81.03 129.60 C 66.02 129.65 51.00 129.58 35.99 129.64 C 25.59 129.59 15.55 124.22 9.70 115.62 C 6.34 110.38 4.46 104.25 4.37 98.02 C 4.40 80.34 4.38 62.66 4.38 44.98 C 4.39 41.94 4.18 38.83 5.06 35.87 C 5.50 33.56 6.05 31.25 7.16 29.16 C 9.51 23.69 13.60 19.12 18.41 15.68 M 26.97 12.81 C 17.56 15.95 9.92 23.54 6.82 32.98 C 6.55 34.35 6.21 35.72 5.74 37.05 C 5.43 57.37 5.75 77.70 5.58 98.03 C 5.42 101.11 6.18 104.11 6.78 107.11 C 10.04 116.46 17.54 124.09 26.99 127.19 C 29.61 127.74 32.23 128.47 34.94 128.41 C 50.31 128.37 65.68 128.37 81.06 128.41 C 83.78 128.45 86.43 127.73 89.07 127.19 C 98.48 124.03 106.00 116.44 109.22 107.08 C 109.88 104.43 110.56 101.75 110.42 98.99 C 110.25 78.37 110.59 57.73 110.25 37.11 C 109.78 35.77 109.45 34.40 109.19 33.01 C 106.10 23.56 98.46 15.96 89.04 12.81 C 86.39 12.27 83.75 11.54 81.02 11.59 C 65.68 11.64 50.33 11.63 34.99 11.59 C 32.26 11.53 29.62 12.26 26.97 12.81 Z" />
<path fill="#e76010" opacity="1.00" d=" M 35.17 42.01 C 41.69 42.29 48.46 41.23 54.82 42.99 C 60.28 44.53 60.47 53.43 55.32 55.50 C 56.71 56.74 58.81 57.78 58.84 59.92 C 59.10 62.64 58.55 65.52 59.86 68.06 C 56.93 67.98 54.01 67.99 51.09 68.01 C 50.86 65.57 51.01 63.07 50.43 60.67 C 49.10 58.37 46.01 59.21 43.83 58.92 C 43.83 61.95 43.82 64.97 43.83 68.00 C 40.94 68.00 38.06 68.00 35.17 68.00 C 35.17 59.34 35.18 50.67 35.17 42.01 M 43.92 48.25 C 43.88 49.91 43.83 51.56 43.79 53.21 C 46.38 53.28 49.06 53.30 51.40 52.00 C 51.39 47.74 46.89 48.35 43.92 48.25 Z" />
<path fill="#e76010" opacity="1.00" d=" M 62.60 49.18 C 65.20 49.17 67.80 49.17 70.40 49.18 C 70.48 53.08 70.22 56.99 70.54 60.88 C 70.44 63.21 74.82 63.33 75.18 61.23 C 76.06 57.28 75.40 53.18 75.60 49.17 C 78.20 49.17 80.80 49.17 83.40 49.17 C 83.42 55.45 83.41 61.73 83.41 68.01 C 81.00 67.38 76.29 69.61 75.76 66.14 C 72.31 69.31 65.40 69.54 63.28 64.77 C 61.86 59.71 62.89 54.36 62.60 49.18 Z" />
</g>
</svg>
