<?xml version="1.0" encoding="UTF-8" ?>
<!DOCTYPE svg PUBLIC "-//W3C//DTD SVG 1.1//EN" "http://www.w3.org/Graphics/SVG/1.1/DTD/svg11.dtd">
<svg width="117pt" height="140pt" viewBox="0 0 117 140" version="1.1" xmlns="http://www.w3.org/2000/svg">
<g id="#000000ff">
<path fill="#000000" opacity="1.00" d=" M 0.00 0.00 L 117.00 0.00 L 117.00 140.00 L 0.00 140.00 L 0.00 0.00 M 33.15 10.22 C 17.91 11.80 5.19 25.63 5.02 40.96 C 4.99 60.32 4.99 79.68 5.01 99.04 C 5.17 115.00 18.99 129.27 34.94 129.93 C 50.63 130.08 66.33 129.99 82.02 129.98 C 95.07 129.78 107.23 120.63 111.33 108.29 C 112.70 104.35 113.12 100.15 113.02 96.00 C 112.98 78.00 113.01 59.99 113.01 41.99 C 113.06 33.35 109.36 24.78 103.08 18.86 C 96.98 12.94 88.44 9.75 79.97 9.98 C 64.36 10.17 48.74 9.69 33.15 10.22 Z" />
<path fill="#000000" opacity="1.00" d=" M 33.24 12.34 C 48.46 11.71 63.73 12.26 78.98 12.06 C 85.33 11.88 91.82 13.28 97.15 16.86 C 105.61 22.14 110.99 31.98 110.90 41.95 C 110.95 60.63 110.95 79.31 110.90 97.98 C 111.03 108.72 104.79 119.27 95.27 124.26 C 90.37 127.07 84.63 128.04 79.03 127.94 C 64.32 127.84 49.61 128.08 34.91 127.82 C 20.11 127.13 7.28 113.90 7.13 99.07 C 7.03 79.69 7.03 60.29 7.13 40.91 C 7.33 26.70 19.10 13.82 33.24 12.34 M 54.10 28.11 C 45.93 29.88 38.72 35.63 35.14 43.19 C 31.31 51.01 31.65 60.67 35.81 68.29 C 36.66 69.65 37.39 71.32 38.96 71.97 C 41.20 71.33 39.87 69.05 39.04 67.81 C 34.41 60.59 34.24 50.95 38.33 43.46 C 43.54 32.99 57.04 27.72 67.98 31.82 C 76.12 34.42 82.35 41.67 84.02 50.00 C 85.63 56.64 83.75 63.63 80.14 69.29 C 78.61 70.59 81.07 73.00 82.16 71.24 C 88.40 63.22 89.16 51.49 84.52 42.52 C 79.08 31.62 66.02 25.30 54.10 28.11 M 57.92 57.12 C 56.10 59.33 60.33 62.38 61.75 59.85 C 63.80 55.67 64.91 51.09 66.82 46.84 C 63.62 50.06 60.82 53.65 57.92 57.12 Z" />
</g>
<g id="#717271ff">
<path fill="#717271" opacity="1.00" d=" M 33.15 10.22 C 48.74 9.69 64.36 10.17 79.97 9.98 C 88.44 9.75 96.98 12.94 103.08 18.86 C 109.36 24.78 113.06 33.35 113.01 41.99 C 113.01 59.99 112.98 78.00 113.02 96.00 C 113.12 100.15 112.70 104.35 111.33 108.29 C 107.23 120.63 95.07 129.78 82.02 129.98 C 66.33 129.99 50.63 130.08 34.94 129.93 C 18.99 129.27 5.17 115.00 5.01 99.04 C 4.99 79.68 4.99 60.32 5.02 40.96 C 5.19 25.63 17.91 11.80 33.15 10.22 M 33.24 12.34 C 19.10 13.82 7.33 26.70 7.13 40.91 C 7.03 60.29 7.03 79.69 7.13 99.07 C 7.28 113.90 20.11 127.13 34.91 127.82 C 49.61 128.08 64.32 127.84 79.03 127.94 C 84.63 128.04 90.37 127.07 95.27 124.26 C 104.79 119.27 111.03 108.72 110.90 97.98 C 110.95 79.31 110.95 60.63 110.90 41.95 C 110.99 31.98 105.61 22.14 97.15 16.86 C 91.82 13.28 85.33 11.88 78.98 12.06 C 63.73 12.26 48.46 11.71 33.24 12.34 Z" />
</g>
<g id="#f7fbf7ff">
<path fill="#f7fbf7" opacity="1.00" d=" M 54.10 28.11 C 66.02 25.30 79.08 31.62 84.52 42.52 C 89.16 51.49 88.40 63.22 82.16 71.24 C 81.07 73.00 78.61 70.59 80.14 69.29 C 83.75 63.63 85.63 56.64 84.02 50.00 C 82.35 41.67 76.12 34.42 67.98 31.82 C 57.04 27.72 43.54 32.99 38.33 43.46 C 34.24 50.95 34.41 60.59 39.04 67.81 C 39.87 69.05 41.20 71.33 38.96 71.97 C 37.39 71.32 36.66 69.65 35.81 68.29 C 31.65 60.67 31.31 51.01 35.14 43.19 C 38.72 35.63 45.93 29.88 54.10 28.11 Z" />
<path fill="#f7fbf7" opacity="1.00" d=" M 57.92 57.12 C 60.82 53.65 63.62 50.06 66.82 46.84 C 64.91 51.09 63.80 55.67 61.75 59.85 C 60.33 62.38 56.10 59.33 57.92 57.12 Z" />
</g>
</svg>
