<?xml version="1.0" encoding="UTF-8" ?>
<!DOCTYPE svg PUBLIC "-//W3C//DTD SVG 1.1//EN" "http://www.w3.org/Graphics/SVG/1.1/DTD/svg11.dtd">
<svg width="117pt" height="140pt" viewBox="0 0 117 140" version="1.1" xmlns="http://www.w3.org/2000/svg">
<g id="#000000ff">
<path fill="#000000" opacity="1.00" d=" M 0.00 0.00 L 117.00 0.00 L 117.00 140.00 L 0.00 140.00 L 0.00 0.00 M 52.18 35.39 L 52.31 36.07 L 51.10 35.87 L 51.11 37.18 L 50.41 36.82 C 49.26 37.90 48.07 38.93 46.87 39.95 C 47.44 40.45 48.56 41.46 49.13 41.96 C 50.69 40.20 52.48 38.67 54.21 37.08 L 55.04 37.30 L 54.71 35.88 L 56.17 36.59 L 55.88 35.05 L 56.91 35.22 C 57.79 34.23 58.72 33.28 59.65 32.34 C 60.73 33.33 61.83 34.30 62.95 35.25 C 64.82 36.31 66.26 37.91 67.70 39.47 C 68.63 40.52 69.62 41.52 70.76 42.33 C 71.26 41.71 72.26 40.46 72.76 39.83 C 71.24 38.81 69.77 37.71 68.42 36.46 C 68.52 34.03 68.53 31.59 68.49 29.16 C 67.14 29.10 65.80 29.06 64.45 29.04 C 64.42 30.08 64.36 32.18 64.32 33.22 C 62.55 32.06 61.50 28.87 59.20 29.06 C 56.93 31.25 54.75 33.54 52.18 35.39 M 57.56 35.58 C 57.32 35.85 56.83 36.40 56.58 36.67 C 56.09 37.11 55.11 37.99 54.62 38.42 L 54.13 37.90 L 54.27 39.39 L 52.74 39.03 L 52.90 39.82 C 49.27 41.74 50.74 46.06 50.54 49.36 C 52.94 49.38 55.34 49.38 57.74 49.37 C 57.87 47.42 58.02 45.48 58.20 43.53 C 59.33 43.57 60.47 43.61 61.61 43.65 C 61.61 45.55 61.61 47.46 61.63 49.37 C 63.89 49.39 66.15 49.39 68.41 49.38 C 68.51 46.83 68.52 44.28 68.55 41.74 C 66.15 39.74 63.56 37.97 61.54 35.54 C 60.51 33.71 58.80 34.39 57.56 35.58 M 41.10 46.96 C 40.94 46.96 40.60 46.96 40.44 46.96 L 40.30 47.68 C 39.62 48.29 38.25 49.51 37.57 50.12 L 36.77 49.02 L 37.31 51.31 L 35.76 49.78 L 36.37 50.96 C 35.51 51.62 34.66 52.27 33.80 52.92 C 35.03 53.97 36.22 55.05 37.32 56.23 L 37.69 56.05 C 39.30 57.57 40.98 59.03 42.64 60.51 C 43.33 61.01 44.02 61.50 44.72 61.99 C 43.79 59.36 42.93 56.71 42.17 54.03 C 46.43 53.16 50.76 54.24 55.05 53.63 C 59.04 54.10 63.03 53.47 67.01 53.83 C 70.48 54.05 74.15 52.74 77.33 54.73 L 76.34 55.42 C 75.77 57.58 75.08 59.71 74.31 61.80 C 74.75 61.61 75.62 61.23 76.06 61.05 L 75.80 60.79 C 76.40 60.30 77.60 59.31 78.20 58.82 L 78.96 59.22 L 78.36 57.78 L 79.91 58.22 L 79.53 56.70 L 81.07 57.36 L 80.83 55.92 L 81.84 55.99 C 82.89 55.02 83.98 54.09 84.96 53.04 C 83.05 50.65 80.21 49.13 78.02 46.98 C 76.82 45.94 75.61 44.93 74.38 43.95 C 75.15 46.65 76.02 49.32 76.88 51.99 C 72.62 52.87 68.30 51.76 64.01 52.34 C 56.71 51.92 49.40 52.64 42.12 52.06 C 42.92 49.34 43.82 46.65 44.68 43.95 C 43.43 44.88 42.25 45.90 41.10 46.96 M 48.86 56.88 C 49.76 58.10 50.68 59.32 51.61 60.52 C 53.32 63.09 55.58 65.30 57.03 68.04 C 57.49 70.52 57.16 73.09 57.31 75.61 C 58.14 75.56 59.80 75.47 60.63 75.42 C 61.93 72.59 60.06 69.03 62.16 66.56 L 61.83 65.65 L 63.28 66.12 L 62.86 65.28 C 63.28 64.78 64.11 63.76 64.53 63.25 L 64.80 63.16 C 66.16 61.09 67.69 59.14 69.17 57.16 C 67.28 57.41 64.75 56.49 63.66 58.61 L 63.03 58.92 L 63.16 60.38 L 61.85 60.43 L 62.17 61.68 L 60.70 61.14 L 61.58 61.84 C 60.74 62.94 59.90 64.04 59.05 65.14 C 58.72 64.57 58.05 63.44 57.71 62.88 C 56.17 60.95 54.79 58.90 53.24 56.98 C 51.78 57.07 50.31 57.00 48.86 56.88 Z" />
</g>
<g id="#f8fcf8ff">
<path fill="#f8fcf8" opacity="1.00" d=" M 52.18 35.39 C 54.75 33.54 56.93 31.25 59.20 29.06 C 61.50 28.87 62.55 32.06 64.32 33.22 C 64.36 32.18 64.42 30.08 64.45 29.04 C 65.80 29.06 67.14 29.10 68.49 29.16 C 68.53 31.59 68.52 34.03 68.42 36.46 C 69.77 37.71 71.24 38.81 72.76 39.83 C 72.26 40.46 71.26 41.71 70.76 42.33 C 69.62 41.52 68.63 40.52 67.70 39.47 C 66.26 37.91 64.82 36.31 62.95 35.25 C 61.83 34.30 60.73 33.33 59.65 32.34 C 58.72 33.28 57.79 34.23 56.91 35.22 L 55.88 35.05 L 56.17 36.59 L 54.71 35.88 L 55.04 37.30 L 54.21 37.08 C 52.48 38.67 50.69 40.20 49.13 41.96 C 48.56 41.46 47.44 40.45 46.87 39.95 C 48.07 38.93 49.26 37.90 50.41 36.82 L 51.11 37.18 L 51.10 35.87 L 52.31 36.07 L 52.18 35.39 Z" />
<path fill="#f8fcf8" opacity="1.00" d=" M 57.56 35.58 C 58.80 34.39 60.51 33.71 61.54 35.54 C 63.56 37.97 66.15 39.74 68.55 41.74 C 68.52 44.28 68.51 46.83 68.41 49.38 C 66.15 49.39 63.89 49.39 61.63 49.37 C 61.61 47.46 61.61 45.55 61.61 43.65 C 60.47 43.61 59.33 43.57 58.20 43.53 C 58.02 45.48 57.87 47.42 57.74 49.37 C 55.34 49.38 52.94 49.38 50.54 49.36 C 50.74 46.06 49.27 41.74 52.90 39.82 L 52.74 39.03 L 54.27 39.39 L 54.13 37.90 L 54.62 38.42 C 55.11 37.99 56.09 37.11 56.58 36.67 C 56.83 36.40 57.32 35.85 57.56 35.58 Z" />
<path fill="#f8fcf8" opacity="1.00" d=" M 41.10 46.96 C 42.25 45.90 43.43 44.88 44.68 43.95 C 43.82 46.65 42.92 49.34 42.12 52.06 C 49.40 52.64 56.71 51.92 64.01 52.34 C 68.30 51.76 72.62 52.87 76.88 51.99 C 76.02 49.32 75.15 46.65 74.38 43.95 C 75.61 44.93 76.82 45.94 78.02 46.98 C 80.21 49.13 83.05 50.65 84.96 53.04 C 83.98 54.09 82.89 55.02 81.84 55.99 L 80.83 55.92 L 81.07 57.36 L 79.53 56.70 L 79.91 58.22 L 78.36 57.78 L 78.96 59.22 L 78.20 58.82 C 77.60 59.31 76.40 60.30 75.80 60.79 L 76.06 61.05 C 75.62 61.23 74.75 61.61 74.31 61.80 C 75.08 59.71 75.77 57.58 76.34 55.42 L 77.33 54.73 C 74.15 52.74 70.48 54.05 67.01 53.83 C 63.03 53.47 59.04 54.10 55.05 53.63 C 50.76 54.24 46.43 53.16 42.17 54.03 C 42.93 56.71 43.79 59.36 44.72 61.99 C 44.02 61.50 43.33 61.01 42.64 60.51 C 40.98 59.03 39.30 57.57 37.69 56.05 L 37.32 56.23 C 36.22 55.05 35.03 53.97 33.80 52.92 C 34.66 52.27 35.51 51.62 36.37 50.96 L 35.76 49.78 L 37.31 51.31 L 36.77 49.02 L 37.57 50.12 C 38.25 49.51 39.62 48.29 40.30 47.68 L 40.44 46.96 C 40.60 46.96 40.94 46.96 41.10 46.96 Z" />
<path fill="#f8fcf8" opacity="1.00" d=" M 48.86 56.88 C 50.31 57.00 51.78 57.07 53.24 56.98 C 54.79 58.90 56.17 60.95 57.71 62.88 C 58.05 63.44 58.72 64.57 59.05 65.14 C 59.90 64.04 60.74 62.94 61.58 61.84 L 60.70 61.14 L 62.17 61.68 L 61.85 60.43 L 63.16 60.38 L 63.03 58.92 L 63.66 58.61 C 64.75 56.49 67.28 57.41 69.17 57.16 C 67.69 59.14 66.16 61.09 64.80 63.16 L 64.53 63.25 C 64.11 63.76 63.28 64.78 62.86 65.28 L 63.28 66.12 L 61.83 65.65 L 62.16 66.56 C 60.06 69.03 61.93 72.59 60.63 75.42 C 59.80 75.47 58.14 75.56 57.31 75.61 C 57.16 73.09 57.49 70.52 57.03 68.04 C 55.58 65.30 53.32 63.09 51.61 60.52 C 50.68 59.32 49.76 58.10 48.86 56.88 Z" />
</g>
</svg>
