<?xml version="1.0" encoding="UTF-8" ?>
<!DOCTYPE svg PUBLIC "-//W3C//DTD SVG 1.1//EN" "http://www.w3.org/Graphics/SVG/1.1/DTD/svg11.dtd">
<svg width="117pt" height="140pt" viewBox="0 0 117 140" version="1.1" xmlns="http://www.w3.org/2000/svg">
<g id="#000000ff">
<path fill="#000000" opacity="1.00" d=" M 0.00 0.00 L 117.00 0.00 L 117.00 140.00 L 0.00 140.00 L 0.00 0.00 M 33.22 10.20 C 17.96 11.73 5.18 25.58 5.01 40.94 C 4.99 60.29 4.99 79.65 5.01 99.00 C 5.12 114.99 19.00 129.31 34.98 129.94 C 50.66 130.08 66.34 129.99 82.01 129.98 C 98.35 129.89 112.89 115.37 112.98 99.02 C 113.01 79.66 113.02 60.30 112.98 40.94 C 112.87 24.61 98.37 10.15 82.05 10.02 C 65.78 10.11 49.48 9.74 33.22 10.20 Z" />
<path fill="#000000" opacity="1.00" d=" M 33.25 12.36 C 48.14 11.69 63.07 12.28 77.97 12.05 C 84.64 11.82 91.52 13.08 97.13 16.86 C 105.61 22.14 110.96 32.01 110.90 41.99 C 110.95 60.67 110.95 79.35 110.90 98.03 C 110.97 108.73 104.79 119.25 95.29 124.23 C 90.35 127.06 84.58 128.03 78.94 127.94 C 64.96 127.90 50.98 127.97 37.00 127.91 C 26.29 127.96 15.75 121.80 10.77 112.28 C 7.92 107.36 6.93 101.60 7.06 95.97 C 7.13 77.63 6.98 59.28 7.13 40.95 C 7.34 26.73 19.09 13.83 33.25 12.36 M 46.04 28.19 C 46.12 34.02 46.09 39.84 46.08 45.67 C 43.75 45.68 41.42 45.68 39.09 45.71 C 39.46 50.53 38.62 55.49 39.57 60.23 C 42.26 62.85 46.39 61.25 49.73 61.73 C 52.54 64.66 55.47 67.48 58.38 70.31 C 54.70 70.32 51.02 70.30 47.34 70.34 C 47.38 72.89 47.38 75.45 47.35 78.00 C 55.25 77.88 63.18 78.24 71.07 77.84 C 72.53 77.79 71.26 75.16 70.13 75.74 C 63.44 75.55 56.75 75.77 50.06 75.64 C 50.06 75.01 50.05 73.73 50.05 73.10 C 53.64 73.02 57.22 73.04 60.81 72.94 C 60.83 72.23 60.87 70.81 60.89 70.10 C 63.76 67.29 66.58 64.43 69.48 61.64 C 72.76 61.22 77.51 63.11 79.63 59.73 C 80.14 55.08 79.66 50.38 79.91 45.71 C 77.58 45.68 75.25 45.67 72.92 45.67 C 72.92 39.85 72.87 34.02 72.97 28.20 C 63.99 28.13 55.02 28.14 46.04 28.19 Z" />
<path fill="#000000" opacity="1.00" d=" M 48.77 31.03 C 55.93 31.05 63.08 31.03 70.24 31.04 C 70.23 36.79 70.33 42.54 70.16 48.29 C 72.43 48.32 74.69 48.32 76.96 48.35 C 76.92 51.87 76.92 55.40 76.96 58.93 C 65.32 58.98 53.69 58.98 42.05 58.94 C 42.07 55.41 42.08 51.88 42.04 48.35 C 48.76 48.27 55.49 48.35 62.22 48.32 C 62.22 47.66 62.22 46.34 62.22 45.68 C 57.74 45.68 53.25 45.66 48.76 45.70 C 48.75 43.92 48.74 42.14 48.72 40.35 C 53.22 40.31 57.72 40.31 62.22 40.33 C 62.22 39.67 62.22 38.34 62.22 37.68 C 57.72 37.68 53.22 37.67 48.73 37.68 C 48.74 35.46 48.75 33.25 48.77 31.03 M 59.03 49.99 C 58.57 51.02 58.11 52.05 57.66 53.08 C 58.95 51.88 60.35 50.76 62.23 50.82 C 61.90 53.74 58.72 54.81 57.65 57.38 C 59.63 57.29 61.87 57.86 63.59 56.58 C 62.46 56.51 60.21 56.37 59.08 56.29 C 60.83 54.93 64.12 53.24 62.53 50.51 C 61.39 50.21 60.22 50.04 59.03 49.99 Z" />
<path fill="#000000" opacity="1.00" d=" M 53.22 61.69 C 57.41 61.68 61.60 61.68 65.79 61.69 C 63.67 63.71 61.56 65.75 59.49 67.82 C 57.44 65.74 55.33 63.71 53.22 61.69 Z" />
</g>
<g id="#6e6f6eff">
<path fill="#6e6f6e" opacity="1.00" d=" M 33.22 10.20 C 49.48 9.74 65.78 10.11 82.05 10.02 C 98.37 10.15 112.87 24.61 112.98 40.94 C 113.02 60.30 113.01 79.66 112.98 99.02 C 112.89 115.37 98.35 129.89 82.01 129.98 C 66.34 129.99 50.66 130.08 34.98 129.94 C 19.00 129.31 5.12 114.99 5.01 99.00 C 4.99 79.65 4.99 60.29 5.01 40.94 C 5.18 25.58 17.96 11.73 33.22 10.20 M 33.25 12.36 C 19.09 13.83 7.34 26.73 7.13 40.95 C 6.98 59.28 7.13 77.63 7.06 95.97 C 6.93 101.60 7.92 107.36 10.77 112.28 C 15.75 121.80 26.29 127.96 37.00 127.91 C 50.98 127.97 64.96 127.90 78.94 127.94 C 84.58 128.03 90.35 127.06 95.29 124.23 C 104.79 119.25 110.97 108.73 110.90 98.03 C 110.95 79.35 110.95 60.67 110.90 41.99 C 110.96 32.01 105.61 22.14 97.13 16.86 C 91.52 13.08 84.64 11.82 77.97 12.05 C 63.07 12.28 48.14 11.69 33.25 12.36 Z" />
</g>
<g id="#f6faf6ff">
<path fill="#f6faf6" opacity="1.00" d=" M 46.04 28.19 C 55.02 28.14 63.99 28.13 72.97 28.20 C 72.87 34.02 72.92 39.85 72.92 45.67 C 75.25 45.67 77.58 45.68 79.91 45.71 C 79.66 50.38 80.14 55.08 79.63 59.73 C 77.51 63.11 72.76 61.22 69.48 61.64 C 66.58 64.43 63.76 67.29 60.89 70.10 C 60.87 70.81 60.83 72.23 60.81 72.94 C 57.22 73.04 53.64 73.02 50.05 73.10 C 50.05 73.73 50.06 75.01 50.06 75.64 C 56.75 75.77 63.44 75.55 70.13 75.74 C 71.26 75.16 72.53 77.79 71.07 77.84 C 63.18 78.24 55.25 77.88 47.35 78.00 C 47.38 75.45 47.38 72.89 47.34 70.34 C 51.02 70.30 54.70 70.32 58.38 70.31 C 55.47 67.48 52.54 64.66 49.73 61.73 C 46.39 61.25 42.26 62.85 39.57 60.23 C 38.62 55.49 39.46 50.53 39.09 45.71 C 41.42 45.68 43.75 45.68 46.08 45.67 C 46.09 39.84 46.12 34.02 46.04 28.19 M 48.77 31.03 C 48.75 33.25 48.74 35.46 48.73 37.68 C 53.22 37.67 57.72 37.68 62.22 37.68 C 62.22 38.34 62.22 39.67 62.22 40.33 C 57.72 40.31 53.22 40.31 48.72 40.35 C 48.74 42.14 48.75 43.92 48.76 45.70 C 53.25 45.66 57.74 45.68 62.22 45.68 C 62.22 46.34 62.22 47.66 62.22 48.32 C 55.49 48.35 48.76 48.27 42.04 48.35 C 42.08 51.88 42.07 55.41 42.05 58.94 C 53.69 58.98 65.32 58.98 76.96 58.93 C 76.92 55.40 76.92 51.87 76.96 48.35 C 74.69 48.32 72.43 48.32 70.16 48.29 C 70.33 42.54 70.23 36.79 70.24 31.04 C 63.08 31.03 55.93 31.05 48.77 31.03 M 53.22 61.69 C 55.33 63.71 57.44 65.74 59.49 67.82 C 61.56 65.75 63.67 63.71 65.79 61.69 C 61.60 61.68 57.41 61.68 53.22 61.69 Z" />
<path fill="#f6faf6" opacity="1.00" d=" M 59.03 49.99 C 60.22 50.04 61.39 50.21 62.53 50.51 C 64.12 53.24 60.83 54.93 59.08 56.29 C 60.21 56.37 62.46 56.51 63.59 56.58 C 61.87 57.86 59.63 57.29 57.65 57.38 C 58.72 54.81 61.90 53.74 62.23 50.82 C 60.35 50.76 58.95 51.88 57.66 53.08 C 58.11 52.05 58.57 51.02 59.03 49.99 Z" />
</g>
</svg>
