<?xml version="1.0" encoding="UTF-8" ?>
<!DOCTYPE svg PUBLIC "-//W3C//DTD SVG 1.1//EN" "http://www.w3.org/Graphics/SVG/1.1/DTD/svg11.dtd">
<svg width="117px" height="140px" viewBox="0 0 117 140" version="1.1" xmlns="http://www.w3.org/2000/svg">
<g id="#181818ff">
<path fill="#181818" opacity="1.00" d=" M 0.00 0.00 L 117.00 0.00 L 117.00 140.00 L 0.00 140.00 L 0.00 0.00 M 25.77 16.80 C 23.04 19.24 23.88 23.27 26.07 25.76 C 28.62 27.11 32.00 27.59 34.12 25.18 C 36.62 23.07 36.14 19.56 34.75 16.97 C 32.19 14.91 28.19 14.04 25.77 16.80 M 36.68 26.62 C 31.05 31.59 27.70 38.78 27.91 46.34 C 22.20 47.94 18.40 53.59 17.16 59.21 L 17.02 59.19 C 16.82 63.17 17.52 67.11 19.28 70.70 L 19.45 70.70 C 23.17 77.27 31.01 79.67 38.17 79.01 C 39.91 79.73 41.81 79.92 43.51 78.93 C 57.36 78.90 71.23 79.10 85.08 78.85 C 91.96 78.69 97.73 73.64 100.25 67.47 C 101.16 63.39 101.19 59.14 99.73 55.18 C 97.65 51.12 94.26 47.99 90.20 45.96 C 89.53 44.00 88.78 42.07 87.96 40.17 L 88.22 39.61 C 87.85 39.61 87.13 39.62 86.76 39.63 C 87.83 37.53 88.16 35.24 87.15 33.06 L 87.09 33.12 C 84.51 31.21 81.01 32.12 79.82 35.11 C 77.89 35.15 75.97 35.28 74.05 35.45 C 73.50 34.40 72.94 33.34 72.39 32.29 C 68.96 27.28 63.97 23.19 57.97 21.79 C 50.62 19.71 42.51 21.80 36.68 26.62 Z" />
<path fill="#181818" opacity="1.00" d=" M 37.46 31.22 C 41.54 27.15 47.26 24.71 53.06 25.08 C 58.88 25.26 64.31 28.35 67.94 32.82 C 69.48 35.24 70.69 37.85 71.92 40.44 C 75.04 39.48 78.32 38.55 81.59 39.48 C 81.91 39.52 82.55 39.62 82.87 39.67 C 83.86 41.49 84.89 43.29 85.79 45.15 C 85.93 46.34 86.06 47.54 86.20 48.74 C 90.43 50.34 94.31 53.03 96.27 57.24 C 97.27 60.95 97.10 64.92 95.47 68.43 C 92.73 72.56 88.06 75.30 83.02 74.99 C 69.93 74.80 56.80 75.44 43.74 74.66 C 41.82 74.26 39.88 74.34 37.98 74.76 C 32.99 75.76 27.71 74.24 24.11 70.65 C 21.77 67.56 20.79 63.71 20.97 59.87 C 22.16 54.27 26.79 50.61 31.87 48.63 C 31.90 48.18 31.97 47.27 32.00 46.82 C 31.77 41.13 33.61 35.47 37.46 31.22 M 52.40 45.42 C 50.78 47.24 48.49 48.68 47.65 51.04 C 47.71 52.60 49.40 52.83 50.55 53.16 C 51.42 53.11 53.14 53.01 54.01 52.96 C 54.00 54.66 54.00 56.37 54.00 58.07 C 54.02 60.58 54.00 63.08 53.84 65.58 C 55.39 67.37 57.86 67.07 59.99 67.05 C 61.29 66.88 63.03 67.28 63.79 65.88 C 64.16 63.14 63.99 60.36 63.99 57.60 C 63.99 56.09 63.99 54.58 64.00 53.07 C 66.40 52.94 69.33 53.53 70.81 51.09 C 69.64 49.70 68.45 48.35 67.23 47.01 C 65.65 45.52 64.11 44.00 62.64 42.40 C 61.47 41.42 60.48 40.06 58.95 39.64 C 56.26 40.87 54.57 43.50 52.40 45.42 Z" />
</g>
<g id="#e894e0ff">
<path fill="#e894e0" opacity="1.00" d=" M 25.77 16.80 C 28.19 14.04 32.19 14.91 34.75 16.97 C 32.14 20.17 29.23 23.11 26.07 25.76 C 23.88 23.27 23.04 19.24 25.77 16.80 Z" />
</g>
<g id="#e064d0ff">
<path fill="#e064d0" opacity="1.00" d=" M 34.75 16.97 C 36.14 19.56 36.62 23.07 34.12 25.18 C 32.00 27.59 28.62 27.11 26.07 25.76 C 29.23 23.11 32.14 20.17 34.75 16.97 Z" />
</g>
<g id="#9060f0ff">
<path fill="#9060f0" opacity="1.00" d=" M 36.68 26.62 C 42.51 21.80 50.62 19.71 57.97 21.79 C 63.97 23.19 68.96 27.28 72.39 32.29 C 70.91 32.47 69.42 32.64 67.94 32.82 C 64.31 28.35 58.88 25.26 53.06 25.08 C 47.26 24.71 41.54 27.15 37.46 31.22 C 37.20 29.69 36.94 28.16 36.68 26.62 Z" />
</g>
<g id="#7054e8ff">
<path fill="#7054e8" opacity="1.00" d=" M 27.91 46.34 C 27.70 38.78 31.05 31.59 36.68 26.62 C 36.94 28.16 37.20 29.69 37.46 31.22 C 33.61 35.47 31.77 41.13 32.00 46.82 C 30.64 46.65 29.28 46.46 27.91 46.34 Z" />
</g>
<g id="#f8c498ff">
<path fill="#f8c498" opacity="1.00" d=" M 79.82 35.11 C 81.01 32.12 84.51 31.21 87.09 33.12 C 85.13 35.10 83.14 37.06 81.13 38.99 C 80.59 37.73 80.15 36.44 79.82 35.11 Z" />
</g>
<g id="#7058e8ff">
<path fill="#7058e8" opacity="1.00" d=" M 67.94 32.82 C 69.42 32.64 70.91 32.47 72.39 32.29 C 72.94 33.34 73.50 34.40 74.05 35.45 C 75.97 35.28 77.89 35.15 79.82 35.11 C 80.15 36.44 80.59 37.73 81.13 38.99 L 81.59 39.48 C 78.32 38.55 75.04 39.48 71.92 40.44 C 70.69 37.85 69.48 35.24 67.94 32.82 Z" />
</g>
<g id="#f09ca0ff">
<path fill="#f09ca0" opacity="1.00" d=" M 87.09 33.12 L 87.15 33.06 C 88.16 35.24 87.83 37.53 86.76 39.63 C 85.47 39.65 84.17 39.69 82.87 39.67 C 82.55 39.62 81.91 39.52 81.59 39.48 L 81.13 38.99 C 83.14 37.06 85.13 35.10 87.09 33.12 Z" />
</g>
<g id="#41338bff">
<path fill="#41338b" opacity="1.00" d=" M 82.87 39.67 C 84.17 39.69 85.47 39.65 86.76 39.63 C 87.13 39.62 87.85 39.61 88.22 39.61 L 87.96 40.17 C 87.21 41.82 86.46 43.47 85.79 45.15 C 84.89 43.29 83.86 41.49 82.87 39.67 Z" />
</g>
<g id="#f8c868ff">
<path fill="#f8c868" opacity="1.00" d=" M 52.40 45.42 C 54.57 43.50 56.26 40.87 58.95 39.64 C 60.48 40.06 61.47 41.42 62.64 42.40 C 58.46 45.81 54.31 49.28 50.55 53.16 C 49.40 52.83 47.71 52.60 47.65 51.04 C 48.49 48.68 50.78 47.24 52.40 45.42 Z" />
</g>
<g id="#584cd8ff">
<path fill="#584cd8" opacity="1.00" d=" M 85.79 45.15 C 86.46 43.47 87.21 41.82 87.96 40.17 C 88.78 42.07 89.53 44.00 90.20 45.96 C 94.26 47.99 97.65 51.12 99.73 55.18 C 98.57 55.87 97.42 56.55 96.27 57.24 C 94.31 53.03 90.43 50.34 86.20 48.74 C 86.06 47.54 85.93 46.34 85.79 45.15 Z" />
</g>
<g id="#f8b858ff">
<path fill="#f8b858" opacity="1.00" d=" M 50.55 53.16 C 54.31 49.28 58.46 45.81 62.64 42.40 C 64.11 44.00 65.65 45.52 67.23 47.01 C 62.56 50.37 58.06 53.98 54.00 58.07 C 54.00 56.37 54.00 54.66 54.01 52.96 C 53.14 53.01 51.42 53.11 50.55 53.16 Z" />
</g>
<g id="#5048d8ff">
<path fill="#5048d8" opacity="1.00" d=" M 17.16 59.21 C 18.40 53.59 22.20 47.94 27.91 46.34 C 29.28 46.46 30.64 46.65 32.00 46.82 C 31.97 47.27 31.90 48.18 31.87 48.63 C 26.79 50.61 22.16 54.27 20.97 59.87 C 19.70 59.65 18.43 59.43 17.16 59.21 Z" />
</g>
<g id="#f8a450ff">
<path fill="#f8a450" opacity="1.00" d=" M 54.00 58.07 C 58.06 53.98 62.56 50.37 67.23 47.01 C 68.45 48.35 69.64 49.70 70.81 51.09 C 69.33 53.53 66.40 52.94 64.00 53.07 C 63.99 54.58 63.99 56.09 63.99 57.60 C 60.62 60.27 57.18 62.87 53.84 65.58 C 54.00 63.08 54.02 60.58 54.00 58.07 Z" />
</g>
<g id="#3840d0ff">
<path fill="#3840d0" opacity="1.00" d=" M 99.73 55.18 C 101.19 59.14 101.16 63.39 100.25 67.47 C 98.65 67.79 97.06 68.11 95.47 68.43 C 97.10 64.92 97.27 60.95 96.27 57.24 C 97.42 56.55 98.57 55.87 99.73 55.18 Z" />
</g>
<g id="#f89040ff">
<path fill="#f89040" opacity="1.00" d=" M 53.84 65.58 C 57.18 62.87 60.62 60.27 63.99 57.60 C 63.99 60.36 64.16 63.14 63.79 65.88 C 63.03 67.28 61.29 66.88 59.99 67.05 C 57.86 67.07 55.39 67.37 53.84 65.58 Z" />
</g>
<g id="#3040d0ff">
<path fill="#3040d0" opacity="1.00" d=" M 17.02 59.19 L 17.16 59.21 C 18.43 59.43 19.70 59.65 20.97 59.87 C 20.79 63.71 21.77 67.56 24.11 70.65 C 22.55 70.66 21.00 70.67 19.45 70.70 L 19.28 70.70 C 17.52 67.11 16.82 63.17 17.02 59.19 Z" />
</g>
<g id="#1834c8ff">
<path fill="#1834c8" opacity="1.00" d=" M 95.47 68.43 C 97.06 68.11 98.65 67.79 100.25 67.47 C 97.73 73.64 91.96 78.69 85.08 78.85 C 71.23 79.10 57.36 78.90 43.51 78.93 C 43.58 77.51 43.66 76.08 43.74 74.66 C 56.80 75.44 69.93 74.80 83.02 74.99 C 88.06 75.30 92.73 72.56 95.47 68.43 Z" />
<path fill="#1834c8" opacity="1.00" d=" M 19.45 70.70 C 21.00 70.67 22.55 70.66 24.11 70.65 C 27.71 74.24 32.99 75.76 37.98 74.76 C 38.04 76.18 38.10 77.59 38.17 79.01 C 31.01 79.67 23.17 77.27 19.45 70.70 Z" />
</g>
<g id="#40b4c8ff">
<path fill="#40b4c8" opacity="1.00" d=" M 37.98 74.76 C 39.88 74.34 41.82 74.26 43.74 74.66 C 43.66 76.08 43.58 77.51 43.51 78.93 C 41.81 79.92 39.91 79.73 38.17 79.01 C 38.10 77.59 38.04 76.18 37.98 74.76 Z" />
</g>
</svg>
