<?xml version="1.0" encoding="UTF-8" ?>
<!DOCTYPE svg PUBLIC "-//W3C//DTD SVG 1.1//EN" "http://www.w3.org/Graphics/SVG/1.1/DTD/svg11.dtd">
<svg width="117px" height="140px" viewBox="0 0 117 140" version="1.1" xmlns="http://www.w3.org/2000/svg">
<g id="#000000ff">
<path fill="#000000" opacity="1.00" d=" M 0.00 0.00 L 117.00 0.00 L 117.00 140.00 L 0.00 140.00 L 0.00 0.00 M 53.84 46.86 C 53.47 46.53 52.72 45.89 52.35 45.56 C 51.54 45.59 49.93 45.64 49.12 45.66 C 44.04 50.12 42.98 57.10 40.69 63.12 C 39.64 67.54 36.17 72.52 39.12 76.92 C 40.80 80.00 44.86 80.16 47.88 79.41 C 53.80 77.27 59.98 75.76 65.71 73.11 C 68.80 71.07 73.85 68.05 71.46 63.72 C 76.94 62.64 81.15 58.92 84.92 55.04 C 77.61 47.27 69.81 39.96 62.38 32.30 C 57.97 36.08 55.26 41.28 53.84 46.86 Z" />
<path fill="#000000" opacity="1.00" d=" M 62.34 36.46 C 68.44 42.88 74.91 48.93 81.00 55.36 C 78.17 58.88 73.83 59.70 69.95 61.44 C 68.73 61.58 67.52 61.71 66.31 61.83 C 66.26 62.22 66.15 63.01 66.09 63.41 C 67.30 64.55 68.46 65.75 69.58 66.98 C 67.93 68.21 66.43 69.65 64.68 70.75 C 62.69 71.35 60.64 71.75 58.80 72.76 C 54.16 74.21 49.52 75.65 44.98 77.37 C 43.56 76.65 41.92 76.11 41.07 74.65 C 40.39 70.95 42.70 67.67 43.45 64.17 C 45.66 58.73 46.34 52.28 50.84 48.10 C 52.27 49.53 53.71 50.95 55.16 52.36 C 57.12 46.92 58.03 40.68 62.34 36.46 Z" />
</g>
<g id="#f7fbf7ff">
<path fill="#f7fbf7" opacity="1.00" d=" M 53.84 46.86 C 55.26 41.28 57.97 36.08 62.38 32.30 C 69.81 39.96 77.61 47.27 84.92 55.04 C 81.15 58.92 76.94 62.64 71.46 63.72 C 73.85 68.05 68.80 71.07 65.71 73.11 C 59.98 75.76 53.80 77.27 47.88 79.41 C 44.86 80.16 40.80 80.00 39.12 76.92 C 36.17 72.52 39.64 67.54 40.69 63.12 C 42.98 57.10 44.04 50.12 49.12 45.66 C 49.93 45.64 51.54 45.59 52.35 45.56 C 52.72 45.89 53.47 46.53 53.84 46.86 M 62.34 36.46 C 58.03 40.68 57.12 46.92 55.16 52.36 C 53.71 50.95 52.27 49.53 50.84 48.10 C 46.34 52.28 45.66 58.73 43.45 64.17 C 42.70 67.67 40.39 70.95 41.07 74.65 C 41.92 76.11 43.56 76.65 44.98 77.37 C 49.52 75.65 54.16 74.21 58.80 72.76 C 60.64 71.75 62.69 71.35 64.68 70.75 C 66.43 69.65 67.93 68.21 69.58 66.98 C 68.46 65.75 67.30 64.55 66.09 63.41 C 66.15 63.01 66.26 62.22 66.31 61.83 C 67.52 61.71 68.73 61.58 69.95 61.44 C 73.83 59.70 78.17 58.88 81.00 55.36 C 74.91 48.93 68.44 42.88 62.34 36.46 Z" />
</g>
</svg>
