<?xml version="1.0" encoding="UTF-8" ?>
<!DOCTYPE svg PUBLIC "-//W3C//DTD SVG 1.1//EN" "http://www.w3.org/Graphics/SVG/1.1/DTD/svg11.dtd">
<svg width="90px" height="30px" viewBox="0 0 90 30" version="1.1" xmlns="http://www.w3.org/2000/svg">
<g id="#181818ff">
<path fill="#181818" opacity="1.00" d=" M 0.00 0.00 L 10.40 0.00 L 12.84 0.01 C 6.42 1.14 1.43 6.28 0.00 12.54 L 0.00 0.00 Z" />
<path fill="#181818" opacity="1.00" d=" M 76.93 0.00 L 90.00 0.00 L 90.00 11.97 C 89.68 12.41 89.05 13.29 88.73 13.73 C 88.86 14.81 89.12 16.96 89.25 18.03 C 89.44 18.12 89.81 18.28 90.00 18.36 L 90.00 18.97 C 89.53 19.04 88.59 19.18 88.12 19.26 C 86.90 23.79 83.04 27.68 78.26 28.21 C 78.97 28.57 79.68 28.93 80.39 29.29 C 84.67 27.22 87.52 23.44 90.00 19.54 L 90.00 30.00 L 78.09 30.00 C 77.81 29.71 77.26 29.12 76.98 28.82 C 57.33 29.25 37.66 28.86 18.01 29.02 C 13.88 29.18 9.41 28.63 6.18 25.81 C 1.13 21.85 -0.46 14.23 2.60 8.59 C 5.02 3.68 10.49 0.79 15.89 1.00 C 35.63 1.02 55.38 0.95 75.12 1.04 C 81.18 1.07 87.47 5.44 88.20 11.74 C 88.57 11.03 88.93 10.32 89.29 9.60 C 86.78 4.77 82.48 0.85 76.93 0.00 M 11.50 3.55 C 6.94 4.88 3.47 9.15 3.08 13.89 C 2.32 20.23 7.47 26.45 13.83 26.92 C 21.03 27.87 27.84 21.09 26.92 13.89 C 26.48 6.60 18.43 1.15 11.50 3.55 Z" />
<path fill="#181818" opacity="1.00" d=" M 0.00 19.59 L 0.01 17.16 C 1.22 23.81 6.73 29.23 13.50 30.00 L 0.00 30.00 L 0.00 19.59 Z" />
</g>
<g id="#f8fcf8ff">
<path fill="#f8fcf8" opacity="1.00" d=" M 10.40 0.00 L 76.93 0.00 C 82.48 0.85 86.78 4.77 89.29 9.60 C 88.93 10.32 88.57 11.03 88.20 11.74 C 87.47 5.44 81.18 1.07 75.12 1.04 C 55.38 0.95 35.63 1.02 15.89 1.00 C 10.49 0.79 5.02 3.68 2.60 8.59 C -0.46 14.23 1.13 21.85 6.18 25.81 C 9.41 28.63 13.88 29.18 18.01 29.02 C 37.66 28.86 57.33 29.25 76.98 28.82 C 77.26 29.12 77.81 29.71 78.09 30.00 L 13.50 30.00 C 6.73 29.23 1.22 23.81 0.01 17.16 L 0.00 19.59 L 0.00 12.54 C 1.43 6.28 6.42 1.14 12.84 0.01 L 10.40 0.00 Z" />
<path fill="#f8fcf8" opacity="1.00" d=" M 11.50 3.55 C 18.43 1.15 26.48 6.60 26.92 13.89 C 27.84 21.09 21.03 27.87 13.83 26.92 C 7.47 26.45 2.32 20.23 3.08 13.89 C 3.47 9.15 6.94 4.88 11.50 3.55 Z" />
<path fill="#f8fcf8" opacity="1.00" d=" M 88.73 13.73 C 89.05 13.29 89.68 12.41 90.00 11.97 L 90.00 18.36 C 89.81 18.28 89.44 18.12 89.25 18.03 C 89.12 16.96 88.86 14.81 88.73 13.73 Z" />
<path fill="#f8fcf8" opacity="1.00" d=" M 88.12 19.26 C 88.59 19.18 89.53 19.04 90.00 18.97 L 90.00 19.54 C 87.52 23.44 84.67 27.22 80.39 29.29 C 79.68 28.93 78.97 28.57 78.26 28.21 C 83.04 27.68 86.90 23.79 88.12 19.26 Z" />
</g>
</svg>
