<?xml version="1.0" encoding="UTF-8" ?>
<!DOCTYPE svg PUBLIC "-//W3C//DTD SVG 1.1//EN" "http://www.w3.org/Graphics/SVG/1.1/DTD/svg11.dtd">
<svg width="70px" height="40px" viewBox="0 0 70 40" version="1.1" xmlns="http://www.w3.org/2000/svg">
<g id="#1d1d28ff">
<path fill="#1d1d28" opacity="1.00" d=" M 0.00 0.00 L 2.99 0.00 C 2.15 1.14 1.15 2.15 0.00 2.98 L 0.00 0.00 Z" />
<path fill="#1d1d28" opacity="1.00" d=" M 67.03 0.00 L 70.00 0.00 L 70.00 2.99 C 68.86 2.15 67.85 1.15 67.03 0.00 Z" />
<path fill="#1d1d28" opacity="1.00" d=" M 0.00 37.02 C 1.15 37.85 2.15 38.85 2.98 40.00 L 0.00 40.00 L 0.00 37.02 Z" />
<path fill="#1d1d28" opacity="1.00" d=" M 67.02 40.00 C 67.85 38.85 68.85 37.85 70.00 37.02 L 70.00 40.00 L 67.02 40.00 Z" />
</g>
<g id="#4854f8ff">
<path fill="#4854f8" opacity="1.00" d=" M 2.99 0.00 L 67.03 0.00 C 67.85 1.15 68.86 2.15 70.00 2.99 L 70.00 37.02 C 68.85 37.85 67.85 38.85 67.02 40.00 L 2.98 40.00 C 2.15 38.85 1.15 37.85 0.00 37.02 L 0.00 2.98 C 1.15 2.15 2.15 1.14 2.99 0.00 Z" />
</g>
</svg>
