<?xml version="1.0" encoding="UTF-8" ?>
<!DOCTYPE svg PUBLIC "-//W3C//DTD SVG 1.1//EN" "http://www.w3.org/Graphics/SVG/1.1/DTD/svg11.dtd">
<svg width="70px" height="28px" viewBox="0 0 70 28" version="1.1" xmlns="http://www.w3.org/2000/svg">
<g id="#282b5bff">
<path fill="#282b5b" opacity="1.00" d=" M 0.00 0.00 L 2.96 0.00 C 2.15 1.16 1.15 2.16 0.00 2.97 L 0.00 0.00 Z" />
<path fill="#282b5b" opacity="1.00" d=" M 67.03 0.00 L 70.00 0.00 L 70.00 2.96 C 68.84 2.15 67.84 1.15 67.03 0.00 Z" />
<path fill="#282b5b" opacity="1.00" d=" M 0.00 25.04 C 1.16 25.85 2.16 26.84 2.97 28.00 L 0.00 28.00 L 0.00 25.04 Z" />
<path fill="#282b5b" opacity="1.00" d=" M 67.05 28.00 C 67.85 26.84 68.85 25.84 70.00 25.03 L 70.00 28.00 L 67.05 28.00 Z" />
</g>
<g id="#4854f8ff">
<path fill="#4854f8" opacity="1.00" d=" M 2.96 0.00 L 67.03 0.00 C 67.84 1.15 68.84 2.15 70.00 2.96 L 70.00 25.03 C 68.85 25.84 67.85 26.84 67.05 28.00 L 2.97 28.00 C 2.16 26.84 1.16 25.85 0.00 25.04 L 0.00 2.97 C 1.15 2.16 2.15 1.16 2.96 0.00 Z" />
</g>
</svg>
