<?xml version="1.0" encoding="UTF-8" ?>
<!DOCTYPE svg PUBLIC "-//W3C//DTD SVG 1.1//EN" "http://www.w3.org/Graphics/SVG/1.1/DTD/svg11.dtd">
<svg width="28px" height="21px" viewBox="0 0 28 21" version="1.1" xmlns="http://www.w3.org/2000/svg">
<g id="#e0e000ff">
<path fill="#e0e000" opacity="1.00" d=" M 0.00 0.00 L 13.41 0.00 C 8.93 4.46 4.45 8.92 0.00 13.42 L 0.00 0.00 Z" />
<path fill="#e0e000" opacity="1.00" d=" M 13.58 0.00 L 28.00 0.00 L 28.00 21.00 L 19.07 21.00 C 19.06 18.50 19.07 16.00 19.09 13.50 C 21.75 13.50 24.42 13.50 27.09 13.50 C 22.60 8.99 18.11 4.47 13.58 0.00 Z" />
<path fill="#e0e000" opacity="1.00" d=" M 13.49 2.82 C 16.40 5.65 19.25 8.55 22.12 11.43 C 20.45 11.43 18.79 11.43 17.12 11.44 C 17.11 13.95 17.11 16.47 17.10 18.99 C 14.70 19.01 12.30 19.01 9.90 18.99 C 9.89 16.47 9.90 13.95 9.88 11.44 C 8.21 11.43 6.55 11.43 4.88 11.43 C 7.74 8.55 10.60 5.68 13.49 2.82 Z" />
<path fill="#e0e000" opacity="1.00" d=" M 0.00 13.51 C 2.64 13.49 5.28 13.49 7.92 13.51 C 7.93 16.00 7.93 18.50 7.93 21.00 L 0.00 21.00 L 0.00 13.51 Z" />
</g>
<g id="#000000ff">
<path fill="#000000" opacity="1.00" d=" M 13.41 0.00 L 13.58 0.00 C 18.11 4.47 22.60 8.99 27.09 13.50 C 24.42 13.50 21.75 13.50 19.09 13.50 C 19.07 16.00 19.06 18.50 19.07 21.00 L 7.93 21.00 C 7.93 18.50 7.93 16.00 7.92 13.51 C 5.28 13.49 2.64 13.49 0.00 13.51 L 0.00 13.42 C 4.45 8.92 8.93 4.46 13.41 0.00 M 13.49 2.82 C 10.60 5.68 7.74 8.55 4.88 11.43 C 6.55 11.43 8.21 11.43 9.88 11.44 C 9.90 13.95 9.89 16.47 9.90 18.99 C 12.30 19.01 14.70 19.01 17.10 18.99 C 17.11 16.47 17.11 13.95 17.12 11.44 C 18.79 11.43 20.45 11.43 22.12 11.43 C 19.25 8.55 16.40 5.65 13.49 2.82 Z" />
</g>
</svg>
