<?xml version="1.0" encoding="UTF-8" ?>
<!DOCTYPE svg PUBLIC "-//W3C//DTD SVG 1.1//EN" "http://www.w3.org/Graphics/SVG/1.1/DTD/svg11.dtd">
<svg width="117px" height="140px" viewBox="0 0 117 140" version="1.1" xmlns="http://www.w3.org/2000/svg">
<g id="#000000ff">
<path fill="#000000" opacity="1.00" d=" M 0.00 0.00 L 117.00 0.00 L 117.00 140.00 L 0.00 140.00 L 0.00 0.00 M 33.13 10.22 C 17.91 11.80 5.22 25.61 5.02 40.92 C 4.99 60.30 4.99 79.69 5.01 99.07 C 5.19 115.01 18.99 129.25 34.92 129.93 C 50.27 130.10 65.63 129.95 80.99 130.01 C 92.81 130.14 104.30 123.04 109.53 112.45 C 112.41 107.11 113.27 100.94 113.01 94.94 C 112.99 77.29 113.00 59.64 113.01 42.00 C 113.07 33.38 109.38 24.83 103.13 18.91 C 97.04 12.97 88.48 9.75 79.99 9.98 C 64.38 10.17 48.74 9.69 33.13 10.22 Z" />
<path fill="#000000" opacity="1.00" d=" M 30.55 12.69 C 33.98 11.90 37.52 11.98 41.01 12.00 C 55.04 12.06 69.07 11.89 83.09 12.08 C 97.95 12.78 110.84 26.08 110.97 40.97 C 111.02 60.32 111.02 79.67 110.96 99.02 C 110.85 113.92 97.92 127.28 83.03 127.90 C 67.37 128.11 51.70 127.97 36.03 127.97 C 20.77 127.86 7.17 114.35 7.03 99.07 C 6.98 79.71 6.99 60.34 7.02 40.98 C 7.21 27.63 17.51 15.38 30.55 12.69 M 36.44 45.37 C 33.98 46.83 32.63 50.13 34.35 52.68 C 36.78 55.24 39.84 57.08 42.52 59.36 C 44.27 61.10 46.78 60.43 48.87 59.90 C 49.63 57.33 50.19 54.70 50.04 52.00 C 52.03 52.00 54.01 52.00 56.00 52.00 C 56.00 51.25 56.00 49.75 56.00 49.00 C 54.00 49.00 52.01 49.00 50.01 49.00 C 50.22 45.97 49.80 42.97 48.88 40.09 C 43.74 37.70 40.25 42.88 36.44 45.37 M 68.00 41.24 C 68.00 47.08 68.00 52.92 68.00 58.77 C 70.27 59.92 73.15 61.66 75.40 59.42 C 78.18 56.86 81.92 55.16 84.00 51.96 C 85.78 48.24 82.07 45.56 79.43 43.72 C 77.03 42.28 75.21 39.38 72.16 39.43 C 70.70 39.85 69.36 40.58 68.00 41.24 M 57.00 49.00 C 57.00 49.75 57.00 51.25 57.00 52.00 C 57.75 52.00 59.25 52.00 60.00 52.00 C 60.00 51.25 60.00 49.75 60.00 49.00 C 59.25 49.00 57.75 49.00 57.00 49.00 M 61.00 49.00 C 61.00 49.75 61.00 51.25 61.00 52.00 C 63.00 52.00 65.00 52.00 67.00 52.00 C 67.00 51.25 67.00 49.75 67.00 49.00 C 65.00 49.00 63.00 49.00 61.00 49.00 Z" />
<path fill="#000000" opacity="1.00" d=" M 37.01 50.00 C 40.00 47.66 43.01 45.35 46.00 43.01 C 46.00 47.66 46.01 52.31 45.99 56.97 C 42.99 54.65 40.00 52.33 37.01 50.00 Z" />
<path fill="#000000" opacity="1.00" d=" M 72.00 43.01 C 74.99 45.35 78.00 47.66 80.99 50.00 C 78.00 52.33 75.01 54.64 72.01 56.97 C 71.99 52.31 72.00 47.66 72.00 43.01 Z" />
</g>
<g id="#717271ff">
<path fill="#717271" opacity="1.00" d=" M 33.13 10.22 C 48.74 9.69 64.38 10.17 79.99 9.98 C 88.48 9.75 97.04 12.97 103.13 18.91 C 109.38 24.83 113.07 33.38 113.01 42.00 C 113.00 59.64 112.99 77.29 113.01 94.94 C 113.27 100.94 112.41 107.11 109.53 112.45 C 104.30 123.04 92.81 130.14 80.99 130.01 C 65.63 129.95 50.27 130.10 34.92 129.93 C 18.99 129.25 5.19 115.01 5.01 99.07 C 4.99 79.69 4.99 60.30 5.02 40.92 C 5.22 25.61 17.91 11.80 33.13 10.22 M 30.55 12.69 C 17.51 15.38 7.21 27.63 7.02 40.98 C 6.99 60.34 6.98 79.71 7.03 99.07 C 7.17 114.35 20.77 127.86 36.03 127.97 C 51.70 127.97 67.37 128.11 83.03 127.90 C 97.92 127.28 110.85 113.92 110.96 99.02 C 111.02 79.67 111.02 60.32 110.97 40.97 C 110.84 26.08 97.95 12.78 83.09 12.08 C 69.07 11.89 55.04 12.06 41.01 12.00 C 37.52 11.98 33.98 11.90 30.55 12.69 Z" />
</g>
<g id="#f8fcf8ff">
<path fill="#f8fcf8" opacity="1.00" d=" M 36.44 45.37 C 40.25 42.88 43.74 37.70 48.88 40.09 C 49.80 42.97 50.22 45.97 50.01 49.00 C 52.01 49.00 54.00 49.00 56.00 49.00 C 56.00 49.75 56.00 51.25 56.00 52.00 C 54.01 52.00 52.03 52.00 50.04 52.00 C 50.19 54.70 49.63 57.33 48.87 59.90 C 46.78 60.43 44.27 61.10 42.52 59.36 C 39.84 57.08 36.78 55.24 34.35 52.68 C 32.63 50.13 33.98 46.83 36.44 45.37 M 37.01 50.00 C 40.00 52.33 42.99 54.65 45.99 56.97 C 46.01 52.31 46.00 47.66 46.00 43.01 C 43.01 45.35 40.00 47.66 37.01 50.00 Z" />
<path fill="#f8fcf8" opacity="1.00" d=" M 68.00 41.24 C 69.36 40.58 70.70 39.85 72.16 39.43 C 75.21 39.38 77.03 42.28 79.43 43.72 C 82.07 45.56 85.78 48.24 84.00 51.96 C 81.92 55.16 78.18 56.86 75.40 59.42 C 73.15 61.66 70.27 59.92 68.00 58.77 C 68.00 52.92 68.00 47.08 68.00 41.24 M 72.00 43.01 C 72.00 47.66 71.99 52.31 72.01 56.97 C 75.01 54.64 78.00 52.33 80.99 50.00 C 78.00 47.66 74.99 45.35 72.00 43.01 Z" />
<path fill="#f8fcf8" opacity="1.00" d=" M 57.00 49.00 C 57.75 49.00 59.25 49.00 60.00 49.00 C 60.00 49.75 60.00 51.25 60.00 52.00 C 59.25 52.00 57.75 52.00 57.00 52.00 C 57.00 51.25 57.00 49.75 57.00 49.00 Z" />
<path fill="#f8fcf8" opacity="1.00" d=" M 61.00 49.00 C 63.00 49.00 65.00 49.00 67.00 49.00 C 67.00 49.75 67.00 51.25 67.00 52.00 C 65.00 52.00 63.00 52.00 61.00 52.00 C 61.00 51.25 61.00 49.75 61.00 49.00 Z" />
</g>
</svg>
