<?xml version="1.0" encoding="UTF-8" ?>
<!DOCTYPE svg PUBLIC "-//W3C//DTD SVG 1.1//EN" "http://www.w3.org/Graphics/SVG/1.1/DTD/svg11.dtd">
<svg width="117px" height="140px" viewBox="0 0 117 140" version="1.1" xmlns="http://www.w3.org/2000/svg">
<g id="#384450ff">
<path fill="#384450" opacity="1.00" d=" M 0.00 0.00 L 117.00 0.00 L 117.00 140.00 L 0.00 140.00 L 0.00 0.00 M 41.16 53.20 C 37.76 54.94 39.40 60.59 43.14 60.42 C 45.08 60.76 46.58 58.88 47.20 57.26 C 47.87 54.14 43.79 51.02 41.16 53.20 M 56.46 53.52 C 54.55 54.98 54.58 58.06 56.49 59.51 C 58.89 62.05 63.42 59.36 62.95 56.10 C 62.71 53.10 58.63 51.18 56.46 53.52 M 72.47 53.34 C 67.73 56.21 73.80 63.44 77.45 59.29 C 81.22 56.37 75.98 50.12 72.47 53.34 Z" />
</g>
<g id="#f8fcf8ff">
<path fill="#f8fcf8" opacity="1.00" d=" M 41.16 53.20 C 43.79 51.02 47.87 54.14 47.20 57.26 C 46.58 58.88 45.08 60.76 43.14 60.42 C 39.40 60.59 37.76 54.94 41.16 53.20 Z" />
<path fill="#f8fcf8" opacity="1.00" d=" M 56.46 53.52 C 58.63 51.18 62.71 53.10 62.95 56.10 C 63.42 59.36 58.89 62.05 56.49 59.51 C 54.58 58.06 54.55 54.98 56.46 53.52 Z" />
<path fill="#f8fcf8" opacity="1.00" d=" M 72.47 53.34 C 75.98 50.12 81.22 56.37 77.45 59.29 C 73.80 63.44 67.73 56.21 72.47 53.34 Z" />
</g>
</svg>
