<?xml version="1.0" encoding="UTF-8" ?>
<!DOCTYPE svg PUBLIC "-//W3C//DTD SVG 1.1//EN" "http://www.w3.org/Graphics/SVG/1.1/DTD/svg11.dtd">
<svg width="70px" height="40px" viewBox="0 0 70 40" version="1.1" xmlns="http://www.w3.org/2000/svg">
<g id="#1d1d28ff">
<path fill="#1d1d28" opacity="1.00" d=" M 0.00 0.00 L 2.95 0.00 C 2.17 1.17 1.17 2.16 0.00 2.93 L 0.00 0.00 Z" />
<path fill="#1d1d28" opacity="1.00" d=" M 67.07 0.00 L 70.00 0.00 L 70.00 2.94 C 68.82 2.18 67.83 1.17 67.07 0.00 Z" />
<path fill="#1d1d28" opacity="1.00" d=" M 0.00 37.04 C 1.17 37.82 2.16 38.82 2.93 40.00 L 0.00 40.00 L 0.00 37.04 Z" />
<path fill="#1d1d28" opacity="1.00" d=" M 67.05 40.00 C 67.82 38.82 68.82 37.83 70.00 37.08 L 70.00 40.00 L 67.05 40.00 Z" />
</g>
<g id="#4854f8ff">
<path fill="#4854f8" opacity="1.00" d=" M 2.95 0.00 L 67.07 0.00 C 67.83 1.17 68.82 2.18 70.00 2.94 L 70.00 37.08 C 68.82 37.83 67.82 38.82 67.05 40.00 L 2.93 40.00 C 2.16 38.82 1.17 37.82 0.00 37.04 L 0.00 2.93 C 1.17 2.16 2.17 1.17 2.95 0.00 Z" />
</g>
</svg>
