<?xml version="1.0" encoding="UTF-8" ?>
<!DOCTYPE svg PUBLIC "-//W3C//DTD SVG 1.1//EN" "http://www.w3.org/Graphics/SVG/1.1/DTD/svg11.dtd">
<svg width="117px" height="140px" viewBox="0 0 117 140" version="1.1" xmlns="http://www.w3.org/2000/svg">
<g id="#000000ff">
<path fill="#000000" opacity="1.00" d=" M 0.00 0.00 L 117.00 0.00 L 117.00 140.00 L 0.00 140.00 L 0.00 0.00 M 33.14 10.25 C 17.90 11.81 5.20 25.66 5.04 40.99 C 4.97 60.34 4.97 79.68 5.04 99.03 C 5.17 115.35 19.62 129.82 35.94 129.96 C 51.66 129.99 67.38 130.11 83.09 129.90 C 99.00 129.24 112.82 114.99 112.95 99.06 C 113.06 80.05 112.98 61.03 112.99 42.01 C 113.05 33.12 109.13 24.32 102.53 18.37 C 96.24 12.51 87.52 9.62 78.98 9.98 C 63.70 10.18 48.40 9.66 33.14 10.25 Z" />
<path fill="#000000" opacity="1.00" d=" M 33.26 12.33 C 48.50 11.72 63.77 12.25 79.03 12.06 C 85.37 11.88 91.85 13.27 97.17 16.84 C 105.62 22.14 111.04 31.99 110.91 41.98 C 110.93 61.00 110.99 80.02 110.87 99.03 C 110.80 114.26 97.26 127.77 82.04 127.87 C 66.68 127.98 51.32 127.96 35.96 127.88 C 20.75 127.77 7.21 114.27 7.12 99.05 C 7.03 79.69 7.03 60.33 7.12 40.97 C 7.26 26.72 19.09 13.78 33.26 12.33 M 46.08 30.10 C 46.15 35.69 46.12 41.27 46.12 46.86 C 43.96 46.87 41.80 46.86 39.65 46.87 C 39.64 52.06 39.66 57.26 39.62 62.45 C 42.92 62.46 46.21 62.45 49.50 62.48 C 52.46 65.34 55.11 68.52 58.37 71.05 C 57.32 73.00 57.80 75.25 57.80 77.35 C 52.37 77.42 46.94 77.39 41.52 77.37 C 41.57 75.68 41.61 73.99 41.66 72.30 C 41.02 72.25 39.74 72.16 39.10 72.11 C 39.18 74.27 38.56 76.66 39.55 78.68 C 40.42 80.28 42.46 79.85 43.96 79.96 C 54.94 79.82 65.94 80.14 76.91 79.81 C 80.06 78.73 78.72 74.61 78.90 72.10 C 78.26 72.15 76.98 72.26 76.34 72.31 C 76.39 74.00 76.43 75.68 76.49 77.37 C 71.06 77.39 65.63 77.41 60.20 77.36 C 60.20 75.25 60.68 73.00 59.62 71.05 C 62.87 68.52 65.53 65.37 68.46 62.50 C 71.76 62.44 75.07 62.45 78.38 62.45 C 78.34 57.26 78.36 52.06 78.35 46.87 C 76.19 46.86 74.04 46.87 71.88 46.86 C 71.88 41.27 71.85 35.69 71.92 30.10 C 63.31 30.04 54.69 30.04 46.08 30.10 Z" />
<path fill="#000000" opacity="1.00" d=" M 48.66 32.62 C 55.55 32.61 62.45 32.61 69.35 32.62 C 69.25 38.21 69.43 43.81 69.20 49.41 C 71.46 49.47 73.72 49.47 75.97 49.65 C 75.69 53.02 75.75 56.42 75.83 59.80 C 64.62 59.87 53.40 59.86 42.18 59.81 C 42.23 56.35 42.21 52.89 42.22 49.44 C 48.75 49.50 55.28 49.51 61.82 49.44 C 61.68 48.55 61.55 47.67 61.43 46.78 C 57.19 46.93 52.94 46.85 48.70 46.87 C 48.69 45.14 48.67 43.42 48.65 41.69 C 52.99 41.58 57.36 42.01 61.68 41.47 C 61.68 40.89 61.69 39.73 61.69 39.14 C 57.35 39.11 53.02 39.11 48.69 39.15 C 48.68 36.97 48.67 34.80 48.66 32.62 Z" />
<path fill="#000000" opacity="1.00" d=" M 53.03 62.50 C 57.02 62.42 61.01 62.40 65.00 62.52 C 63.00 64.52 60.95 66.47 59.00 68.52 C 57.05 66.48 54.99 64.53 53.03 62.50 Z" />
</g>
<g id="#757675ff">
<path fill="#757675" opacity="1.00" d=" M 33.14 10.25 C 48.40 9.66 63.70 10.18 78.98 9.98 C 87.52 9.62 96.24 12.51 102.53 18.37 C 109.13 24.32 113.05 33.12 112.99 42.01 C 112.98 61.03 113.06 80.05 112.95 99.06 C 112.82 114.99 99.00 129.24 83.09 129.90 C 67.38 130.11 51.66 129.99 35.94 129.96 C 19.62 129.82 5.17 115.35 5.04 99.03 C 4.97 79.68 4.97 60.34 5.04 40.99 C 5.20 25.66 17.90 11.81 33.14 10.25 M 33.26 12.33 C 19.09 13.78 7.26 26.72 7.12 40.97 C 7.03 60.33 7.03 79.69 7.12 99.05 C 7.21 114.27 20.75 127.77 35.96 127.88 C 51.32 127.96 66.68 127.98 82.04 127.87 C 97.26 127.77 110.80 114.26 110.87 99.03 C 110.99 80.02 110.93 61.00 110.91 41.98 C 111.04 31.99 105.62 22.14 97.17 16.84 C 91.85 13.27 85.37 11.88 79.03 12.06 C 63.77 12.25 48.50 11.72 33.26 12.33 Z" />
</g>
<g id="#f7fbf7ff">
<path fill="#f7fbf7" opacity="1.00" d=" M 46.08 30.10 C 54.69 30.04 63.31 30.04 71.92 30.10 C 71.85 35.69 71.88 41.27 71.88 46.86 C 74.04 46.87 76.19 46.86 78.35 46.87 C 78.36 52.06 78.34 57.26 78.38 62.45 C 75.07 62.45 71.76 62.44 68.46 62.50 C 65.53 65.37 62.87 68.52 59.62 71.05 C 60.68 73.00 60.20 75.25 60.20 77.36 C 65.63 77.41 71.06 77.39 76.49 77.37 C 76.43 75.68 76.39 74.00 76.34 72.31 C 76.98 72.26 78.26 72.15 78.90 72.10 C 78.72 74.61 80.06 78.73 76.91 79.81 C 65.94 80.14 54.94 79.82 43.96 79.96 C 42.46 79.85 40.42 80.28 39.55 78.68 C 38.56 76.66 39.18 74.27 39.10 72.11 C 39.74 72.16 41.02 72.25 41.66 72.30 C 41.61 73.99 41.57 75.68 41.52 77.37 C 46.94 77.39 52.37 77.42 57.80 77.35 C 57.80 75.25 57.32 73.00 58.37 71.05 C 55.11 68.52 52.46 65.34 49.50 62.48 C 46.21 62.45 42.92 62.46 39.62 62.45 C 39.66 57.26 39.64 52.06 39.65 46.87 C 41.80 46.86 43.96 46.87 46.12 46.86 C 46.12 41.27 46.15 35.69 46.08 30.10 M 48.66 32.62 C 48.67 34.80 48.68 36.97 48.69 39.15 C 53.02 39.11 57.35 39.11 61.69 39.14 C 61.69 39.73 61.68 40.89 61.68 41.47 C 57.36 42.01 52.99 41.58 48.65 41.69 C 48.67 43.42 48.69 45.14 48.70 46.87 C 52.94 46.85 57.19 46.93 61.43 46.78 C 61.55 47.67 61.68 48.55 61.82 49.44 C 55.28 49.51 48.75 49.50 42.22 49.44 C 42.21 52.89 42.23 56.35 42.18 59.81 C 53.40 59.86 64.62 59.87 75.83 59.80 C 75.75 56.42 75.69 53.02 75.97 49.65 C 73.72 49.47 71.46 49.47 69.20 49.41 C 69.43 43.81 69.25 38.21 69.35 32.62 C 62.45 32.61 55.55 32.61 48.66 32.62 M 53.03 62.50 C 54.99 64.53 57.05 66.48 59.00 68.52 C 60.95 66.47 63.00 64.52 65.00 62.52 C 61.01 62.40 57.02 62.42 53.03 62.50 Z" />
</g>
</svg>
