<?xml version="1.0" encoding="UTF-8" ?>
<!DOCTYPE svg PUBLIC "-//W3C//DTD SVG 1.1//EN" "http://www.w3.org/Graphics/SVG/1.1/DTD/svg11.dtd">
<svg width="45px" height="45px" viewBox="0 0 45 45" version="1.1" xmlns="http://www.w3.org/2000/svg">
<g id="#000000ff">
<path fill="#000000" opacity="1.00" d=" M 0.00 0.00 L 45.00 0.00 L 45.00 45.00 L 0.00 45.00 L 0.00 0.00 M 17.90 8.68 C 18.69 11.90 20.32 14.80 21.88 17.68 C 21.66 17.69 21.22 17.69 21.01 17.69 C 19.52 15.79 18.05 13.74 15.91 12.54 C 13.10 12.09 11.48 15.38 9.87 17.15 C 13.00 18.18 16.13 19.22 19.14 20.56 C 16.30 20.35 13.44 19.94 10.59 20.34 C 9.46 22.69 9.25 25.28 9.59 27.84 C 12.99 26.93 15.83 24.61 19.32 23.97 C 17.46 25.50 15.21 26.59 13.61 28.42 C 13.37 29.69 13.37 30.99 13.30 32.28 C 14.57 33.63 16.05 34.75 17.67 35.64 C 19.09 32.53 19.95 29.20 21.18 26.02 C 19.27 23.55 19.89 19.68 22.96 18.49 C 25.80 19.19 27.22 21.53 27.58 24.29 C 30.08 24.50 32.59 25.94 35.10 25.15 C 37.17 23.12 37.15 19.95 36.66 17.30 C 33.50 18.42 30.72 20.36 27.63 21.66 C 27.93 21.24 28.52 20.40 28.82 19.98 C 30.42 18.88 32.17 17.90 33.43 16.38 C 34.58 14.43 32.83 12.52 32.18 10.73 C 30.99 10.33 29.80 9.94 28.61 9.55 C 27.64 12.57 26.87 15.67 25.52 18.56 C 25.58 15.64 25.77 12.71 25.75 9.79 C 23.25 8.76 20.59 8.36 17.90 8.68 M 21.47 20.55 C 21.40 21.55 21.25 23.54 21.18 24.54 C 22.71 24.82 24.38 25.49 25.64 24.19 C 25.62 23.30 25.59 21.53 25.57 20.65 C 24.55 20.63 22.50 20.57 21.47 20.55 M 20.89 27.80 C 20.69 30.03 20.60 32.27 20.50 34.50 C 22.88 36.41 26.06 37.10 28.87 35.65 C 27.22 32.83 25.62 29.94 24.68 26.78 C 26.40 28.64 27.76 30.85 29.75 32.45 C 32.80 33.28 35.02 30.45 36.90 28.56 C 33.70 27.07 30.17 26.33 27.18 24.37 C 25.30 25.89 23.07 26.82 20.89 27.80 Z" />
</g>
<g id="#f8fcf8ff">
<path fill="#f8fcf8" opacity="1.00" d=" M 17.90 8.68 C 20.59 8.36 23.25 8.76 25.75 9.79 C 25.77 12.71 25.58 15.64 25.52 18.56 C 26.87 15.67 27.64 12.57 28.61 9.55 C 29.80 9.94 30.99 10.33 32.18 10.73 C 32.83 12.52 34.58 14.43 33.43 16.38 C 32.17 17.90 30.42 18.88 28.82 19.98 C 28.52 20.40 27.93 21.24 27.63 21.66 C 30.72 20.36 33.50 18.42 36.66 17.30 C 37.15 19.95 37.17 23.12 35.10 25.15 C 32.59 25.94 30.08 24.50 27.58 24.29 C 27.22 21.53 25.80 19.19 22.96 18.49 C 19.89 19.68 19.27 23.55 21.18 26.02 C 19.95 29.20 19.09 32.53 17.67 35.64 C 16.05 34.75 14.57 33.63 13.30 32.28 C 13.37 30.99 13.37 29.69 13.61 28.42 C 15.21 26.59 17.46 25.50 19.32 23.97 C 15.83 24.61 12.99 26.93 9.59 27.84 C 9.25 25.28 9.46 22.69 10.59 20.34 C 13.44 19.94 16.30 20.35 19.14 20.56 C 16.13 19.22 13.00 18.18 9.87 17.15 C 11.48 15.38 13.10 12.09 15.91 12.54 C 18.05 13.74 19.52 15.79 21.01 17.69 C 21.22 17.69 21.66 17.69 21.88 17.68 C 20.32 14.80 18.69 11.90 17.90 8.68 Z" />
<path fill="#f8fcf8" opacity="1.00" d=" M 21.47 20.55 C 22.50 20.57 24.55 20.63 25.57 20.65 C 25.59 21.53 25.62 23.30 25.64 24.19 C 24.38 25.49 22.71 24.82 21.18 24.54 C 21.25 23.54 21.40 21.55 21.47 20.55 Z" />
<path fill="#f8fcf8" opacity="1.00" d=" M 20.89 27.80 C 23.07 26.82 25.30 25.89 27.18 24.37 C 30.17 26.33 33.70 27.07 36.90 28.56 C 35.02 30.45 32.80 33.28 29.75 32.45 C 27.76 30.85 26.40 28.64 24.68 26.78 C 25.62 29.94 27.22 32.83 28.87 35.65 C 26.06 37.10 22.88 36.41 20.50 34.50 C 20.60 32.27 20.69 30.03 20.89 27.80 Z" />
</g>
</svg>
