<?xml version="1.0" encoding="UTF-8" ?>
<!DOCTYPE svg PUBLIC "-//W3C//DTD SVG 1.1//EN" "http://www.w3.org/Graphics/SVG/1.1/DTD/svg11.dtd">
<svg width="70px" height="28px" viewBox="0 0 70 28" version="1.1" xmlns="http://www.w3.org/2000/svg">
<g id="#4850f8ff">
<path fill="#4850f8" opacity="1.00" d=" M 0.00 0.00 L 70.00 0.00 L 70.00 28.00 L 0.00 28.00 L 0.00 0.00 M 4.30 20.86 C 6.16 18.71 4.74 15.78 5.32 13.27 C 5.89 14.08 6.43 14.91 6.99 15.73 C 7.38 17.13 7.84 18.51 8.33 19.88 C 9.25 18.00 10.12 16.11 11.00 14.22 C 11.00 16.15 11.00 18.09 11.00 20.02 C 11.44 20.01 12.32 19.99 12.76 19.98 C 12.76 16.74 12.75 13.49 12.70 10.25 C 12.16 10.28 11.09 10.35 10.56 10.39 C 9.88 12.54 9.21 14.69 8.59 16.85 C 7.55 14.14 6.39 11.47 4.84 9.02 C 3.81 12.88 3.75 16.92 4.30 20.86 M 17.17 10.07 C 15.29 13.37 14.41 17.12 13.64 20.81 C 14.74 19.70 15.78 18.53 16.81 17.36 C 17.62 17.39 18.43 17.42 19.23 17.46 C 19.44 18.09 19.84 19.36 20.04 20.00 C 21.36 20.00 22.68 20.00 24.00 20.01 C 24.49 18.91 24.98 17.81 25.46 16.70 C 26.75 18.16 28.09 19.59 29.61 20.81 C 28.88 18.89 28.02 17.02 27.13 15.16 C 27.95 13.28 28.73 11.37 29.45 9.45 C 28.23 10.61 27.05 11.82 25.90 13.05 C 24.75 11.79 23.57 10.55 22.34 9.36 C 23.06 11.37 23.86 13.35 24.72 15.31 C 23.82 16.56 23.64 18.61 22.01 19.12 C 19.29 17.09 20.97 10.98 17.17 10.07 M 29.55 11.67 C 31.25 11.86 32.96 12.04 34.66 12.19 C 33.68 13.30 32.68 14.38 31.68 15.48 C 32.81 15.94 33.93 16.40 35.06 16.86 C 34.71 17.35 34.03 18.32 33.69 18.80 C 32.56 18.65 30.31 18.35 29.18 18.21 C 30.71 19.69 32.74 20.58 34.83 19.94 C 37.06 19.03 35.82 16.52 35.58 14.80 C 35.81 13.47 36.04 12.15 36.27 10.82 C 33.95 10.12 31.61 10.38 29.55 11.67 M 38.32 10.98 C 40.53 13.18 41.03 17.59 38.25 19.55 L 37.93 20.00 C 40.09 20.00 42.25 20.00 44.41 20.00 C 43.61 19.41 42.80 18.83 42.00 18.24 C 41.96 15.52 41.91 12.80 41.82 10.08 C 40.65 10.38 39.49 10.68 38.32 10.98 M 46.61 10.68 C 44.76 11.35 45.73 13.60 45.61 15.02 C 45.28 16.47 44.95 17.93 44.63 19.38 C 46.34 19.68 48.06 20.20 49.81 20.00 C 52.08 18.98 50.50 16.45 50.32 14.67 C 50.59 14.09 51.13 12.93 51.40 12.35 C 49.95 11.49 48.37 9.15 46.61 10.68 M 53.20 10.30 C 53.11 11.82 53.02 13.34 52.94 14.86 C 54.30 15.18 55.68 15.44 57.00 15.89 C 57.89 19.13 54.19 18.61 52.24 18.17 C 52.47 18.68 52.92 19.71 53.15 20.22 C 55.16 20.04 58.06 20.40 58.71 17.87 C 59.91 14.77 56.01 13.87 54.06 12.77 C 55.47 12.37 56.89 11.97 58.30 11.59 C 58.28 11.24 58.24 10.56 58.22 10.22 C 56.55 10.24 54.87 10.27 53.20 10.30 M 60.76 9.85 C 60.59 11.67 60.42 13.50 60.26 15.32 C 61.28 15.30 63.33 15.26 64.35 15.25 C 64.12 16.35 63.83 17.43 63.49 18.50 C 61.99 18.59 60.49 18.44 58.99 18.43 C 60.62 19.67 62.59 20.64 64.67 19.92 C 66.15 18.77 66.21 16.85 66.03 15.15 C 64.75 14.41 63.36 13.89 62.00 13.34 C 62.00 13.06 62.00 12.50 62.00 12.23 C 63.56 11.90 65.12 11.56 66.68 11.19 C 64.74 10.60 62.75 10.22 60.76 9.85 Z" />
<path fill="#4850f8" opacity="1.00" d=" M 18.65 15.36 C 17.24 17.65 15.60 12.94 17.69 12.73 C 18.60 13.35 18.92 14.23 18.65 15.36 Z" />
<path fill="#4850f8" opacity="1.00" d=" M 47.35 11.92 C 48.64 10.83 50.25 13.07 48.97 14.05 C 47.69 15.12 46.09 12.90 47.35 11.92 Z" />
<path fill="#4850f8" opacity="1.00" d=" M 47.20 15.47 C 48.21 16.26 49.21 17.06 50.20 17.89 C 48.86 18.35 47.46 18.52 46.05 18.42 C 46.34 17.68 46.92 16.20 47.20 15.47 Z" />
</g>
<g id="#c9d0f8ff">
<path fill="#c9d0f8" opacity="1.00" d=" M 4.30 20.86 C 3.75 16.92 3.81 12.88 4.84 9.02 C 6.39 11.47 7.55 14.14 8.59 16.85 C 9.21 14.69 9.88 12.54 10.56 10.39 C 11.09 10.35 12.16 10.28 12.70 10.25 C 12.75 13.49 12.76 16.74 12.76 19.98 C 12.32 19.99 11.44 20.01 11.00 20.02 C 11.00 18.09 11.00 16.15 11.00 14.22 C 10.12 16.11 9.25 18.00 8.33 19.88 C 7.84 18.51 7.38 17.13 6.99 15.73 C 6.43 14.91 5.89 14.08 5.32 13.27 C 4.74 15.78 6.16 18.71 4.30 20.86 Z" />
<path fill="#c9d0f8" opacity="1.00" d=" M 17.17 10.07 C 20.97 10.98 19.29 17.09 22.01 19.12 C 23.64 18.61 23.82 16.56 24.72 15.31 C 23.86 13.35 23.06 11.37 22.34 9.36 C 23.57 10.55 24.75 11.79 25.90 13.05 C 27.05 11.82 28.23 10.61 29.45 9.45 C 28.73 11.37 27.95 13.28 27.13 15.16 C 28.02 17.02 28.88 18.89 29.61 20.81 C 28.09 19.59 26.75 18.16 25.46 16.70 C 24.98 17.81 24.49 18.91 24.00 20.01 C 22.68 20.00 21.36 20.00 20.04 20.00 C 19.84 19.36 19.44 18.09 19.23 17.46 C 18.43 17.42 17.62 17.39 16.81 17.36 C 15.78 18.53 14.74 19.70 13.64 20.81 C 14.41 17.12 15.29 13.37 17.17 10.07 M 18.65 15.36 C 18.92 14.23 18.60 13.35 17.69 12.73 C 15.60 12.94 17.24 17.65 18.65 15.36 Z" />
<path fill="#c9d0f8" opacity="1.00" d=" M 29.55 11.67 C 31.61 10.38 33.95 10.12 36.27 10.82 C 36.04 12.15 35.81 13.47 35.58 14.80 C 35.82 16.52 37.06 19.03 34.83 19.94 C 32.74 20.58 30.71 19.69 29.18 18.21 C 30.31 18.35 32.56 18.65 33.69 18.80 C 34.03 18.32 34.71 17.35 35.06 16.86 C 33.93 16.40 32.81 15.94 31.68 15.48 C 32.68 14.38 33.68 13.30 34.66 12.19 C 32.96 12.04 31.25 11.86 29.55 11.67 Z" />
<path fill="#c9d0f8" opacity="1.00" d=" M 38.32 10.98 C 39.49 10.68 40.65 10.38 41.82 10.08 C 41.91 12.80 41.96 15.52 42.00 18.24 C 42.80 18.83 43.61 19.41 44.41 20.00 C 42.25 20.00 40.09 20.00 37.93 20.00 L 38.25 19.55 C 41.03 17.59 40.53 13.18 38.32 10.98 Z" />
<path fill="#c9d0f8" opacity="1.00" d=" M 46.61 10.68 C 48.37 9.15 49.95 11.49 51.40 12.35 C 51.13 12.93 50.59 14.09 50.32 14.67 C 50.50 16.45 52.08 18.98 49.81 20.00 C 48.06 20.20 46.34 19.68 44.63 19.38 C 44.95 17.93 45.28 16.47 45.61 15.02 C 45.73 13.60 44.76 11.35 46.61 10.68 M 47.35 11.92 C 46.09 12.90 47.69 15.12 48.97 14.05 C 50.25 13.07 48.64 10.83 47.35 11.92 M 47.20 15.47 C 46.92 16.20 46.34 17.68 46.05 18.42 C 47.46 18.52 48.86 18.35 50.20 17.89 C 49.21 17.06 48.21 16.26 47.20 15.47 Z" />
<path fill="#c9d0f8" opacity="1.00" d=" M 53.20 10.30 C 54.87 10.27 56.55 10.24 58.22 10.22 C 58.24 10.56 58.28 11.24 58.30 11.59 C 56.89 11.97 55.47 12.37 54.06 12.77 C 56.01 13.87 59.91 14.77 58.71 17.87 C 58.06 20.40 55.16 20.04 53.15 20.22 C 52.92 19.71 52.47 18.68 52.24 18.17 C 54.19 18.61 57.89 19.13 57.00 15.89 C 55.68 15.44 54.30 15.18 52.94 14.86 C 53.02 13.34 53.11 11.82 53.20 10.30 Z" />
<path fill="#c9d0f8" opacity="1.00" d=" M 60.76 9.85 C 62.75 10.22 64.74 10.60 66.68 11.19 C 65.12 11.56 63.56 11.90 62.00 12.23 C 62.00 12.50 62.00 13.06 62.00 13.34 C 63.36 13.89 64.75 14.41 66.03 15.15 C 66.21 16.85 66.15 18.77 64.67 19.92 C 62.59 20.64 60.62 19.67 58.99 18.43 C 60.49 18.44 61.99 18.59 63.49 18.50 C 63.83 17.43 64.12 16.35 64.35 15.25 C 63.33 15.26 61.28 15.30 60.26 15.32 C 60.42 13.50 60.59 11.67 60.76 9.85 Z" />
</g>
</svg>
