<?xml version="1.0" encoding="UTF-8" ?>
<!DOCTYPE svg PUBLIC "-//W3C//DTD SVG 1.1//EN" "http://www.w3.org/Graphics/SVG/1.1/DTD/svg11.dtd">
<svg width="117px" height="140px" viewBox="0 0 117 140" version="1.1" xmlns="http://www.w3.org/2000/svg">
<g id="#000000ff">
<path fill="#000000" opacity="1.00" d=" M 0.00 0.00 L 117.00 0.00 L 117.00 140.00 L 0.00 140.00 L 0.00 0.00 M 33.22 10.22 C 17.95 11.76 5.17 25.61 5.02 40.98 C 4.98 60.34 4.98 79.70 5.02 99.05 C 5.18 115.02 19.02 129.29 34.98 129.93 C 50.67 130.08 66.37 129.99 82.06 129.97 C 98.03 129.82 112.30 115.97 112.93 100.01 C 113.10 80.69 112.95 61.36 113.00 42.03 C 113.20 28.93 104.39 16.36 92.06 11.98 C 84.72 9.08 76.72 10.22 69.03 10.00 C 57.10 10.15 45.14 9.71 33.22 10.22 Z" />
<path fill="#000000" opacity="1.00" d=" M 30.46 12.70 C 33.91 11.92 37.48 11.98 41.00 11.99 C 55.01 12.06 69.02 11.89 83.03 12.08 C 97.91 12.73 110.85 26.06 110.96 40.97 C 111.03 60.32 111.03 79.67 110.96 99.01 C 110.87 113.92 97.91 127.31 83.01 127.90 C 67.32 128.11 51.63 127.98 35.94 127.97 C 20.70 127.82 7.14 114.29 7.03 99.04 C 6.98 79.71 6.99 60.38 7.02 41.06 C 7.16 27.71 17.44 15.44 30.46 12.70 M 57.20 27.07 C 57.23 34.33 57.27 41.59 57.17 48.86 C 57.96 48.87 59.54 48.90 60.33 48.91 C 60.33 41.62 60.32 34.32 60.34 27.03 C 59.55 27.04 57.98 27.06 57.20 27.07 M 36.35 43.47 C 31.50 51.70 31.98 62.78 37.67 70.48 C 42.23 76.98 50.02 81.09 58.00 80.95 C 65.76 81.08 73.37 77.19 77.98 70.96 C 83.21 64.23 84.34 54.72 81.29 46.82 C 79.36 41.76 75.57 37.65 71.20 34.55 C 70.44 35.35 69.67 36.14 68.91 36.94 C 74.76 40.35 78.90 46.47 79.70 53.22 C 80.82 61.52 76.72 70.22 69.55 74.56 C 62.05 79.36 51.65 78.85 44.68 73.32 C 37.37 67.90 34.25 57.63 37.26 49.05 C 38.87 43.93 42.56 39.66 47.13 36.92 C 46.35 36.13 45.56 35.35 44.78 34.57 C 41.46 37.00 38.37 39.85 36.35 43.47 Z" />
</g>
<g id="#727372ff">
<path fill="#727372" opacity="1.00" d=" M 33.22 10.22 C 45.14 9.71 57.10 10.15 69.03 10.00 C 76.72 10.22 84.72 9.08 92.06 11.98 C 104.39 16.36 113.20 28.93 113.00 42.03 C 112.95 61.36 113.10 80.69 112.93 100.01 C 112.30 115.97 98.03 129.82 82.06 129.97 C 66.37 129.99 50.67 130.08 34.98 129.93 C 19.02 129.29 5.18 115.02 5.02 99.05 C 4.98 79.70 4.98 60.34 5.02 40.98 C 5.17 25.61 17.95 11.76 33.22 10.22 M 30.46 12.70 C 17.44 15.44 7.16 27.71 7.02 41.06 C 6.99 60.38 6.98 79.71 7.03 99.04 C 7.14 114.29 20.70 127.82 35.94 127.97 C 51.63 127.98 67.32 128.11 83.01 127.90 C 97.91 127.31 110.87 113.92 110.96 99.01 C 111.03 79.67 111.03 60.32 110.96 40.97 C 110.85 26.06 97.91 12.73 83.03 12.08 C 69.02 11.89 55.01 12.06 41.00 11.99 C 37.48 11.98 33.91 11.92 30.46 12.70 Z" />
</g>
<g id="#f8fcf8ff">
<path fill="#f8fcf8" opacity="1.00" d=" M 57.20 27.07 C 57.98 27.06 59.55 27.04 60.34 27.03 C 60.32 34.32 60.33 41.62 60.33 48.91 C 59.54 48.90 57.96 48.87 57.17 48.86 C 57.27 41.59 57.23 34.33 57.20 27.07 Z" />
<path fill="#f8fcf8" opacity="1.00" d=" M 36.35 43.47 C 38.37 39.85 41.46 37.00 44.78 34.57 C 45.56 35.35 46.35 36.13 47.13 36.92 C 42.56 39.66 38.87 43.93 37.26 49.05 C 34.25 57.63 37.37 67.90 44.68 73.32 C 51.65 78.85 62.05 79.36 69.55 74.56 C 76.72 70.22 80.82 61.52 79.70 53.22 C 78.90 46.47 74.76 40.35 68.91 36.94 C 69.67 36.14 70.44 35.35 71.20 34.55 C 75.57 37.65 79.36 41.76 81.29 46.82 C 84.34 54.72 83.21 64.23 77.98 70.96 C 73.37 77.19 65.76 81.08 58.00 80.95 C 50.02 81.09 42.23 76.98 37.67 70.48 C 31.98 62.78 31.50 51.70 36.35 43.47 Z" />
</g>
</svg>
