<?xml version="1.0" encoding="UTF-8" ?>
<!DOCTYPE svg PUBLIC "-//W3C//DTD SVG 1.1//EN" "http://www.w3.org/Graphics/SVG/1.1/DTD/svg11.dtd">
<svg width="117px" height="140px" viewBox="0 0 117 140" version="1.1" xmlns="http://www.w3.org/2000/svg">
<g id="#000000ff">
<path fill="#000000" opacity="1.00" d=" M 0.00 0.00 L 117.00 0.00 L 117.00 140.00 L 0.00 140.00 L 0.00 0.00 M 33.19 10.22 C 17.92 11.77 5.18 25.63 5.01 40.99 C 5.02 60.69 4.93 80.40 5.06 100.10 C 5.77 116.04 20.02 129.85 36.00 129.98 C 51.68 129.98 67.38 130.08 83.07 129.93 C 98.65 129.26 112.27 115.63 112.94 100.05 C 113.09 80.71 112.95 61.36 113.00 42.01 C 113.07 33.37 109.37 24.80 103.09 18.88 C 97.01 12.96 88.48 9.76 80.02 9.98 C 64.41 10.16 48.78 9.70 33.19 10.22 Z" />
<path fill="#000000" opacity="1.00" d=" M 30.45 12.71 C 33.89 11.91 37.44 11.98 40.94 12.00 C 54.98 12.06 69.02 11.89 83.06 12.08 C 97.93 12.76 110.85 26.08 110.97 40.98 C 111.02 60.33 111.03 79.69 110.96 99.04 C 110.86 114.31 97.27 127.86 82.00 127.95 C 66.32 128.01 50.64 128.07 34.96 127.92 C 20.10 127.25 7.19 113.96 7.03 99.07 C 6.98 79.71 6.99 60.35 7.02 40.99 C 7.21 27.67 17.46 15.44 30.45 12.71 M 42.00 41.03 C 39.16 43.94 34.03 45.49 33.53 50.03 C 34.08 54.52 39.14 56.06 41.98 58.94 C 43.80 60.98 46.54 60.59 48.88 59.91 C 49.62 57.34 50.20 54.70 50.04 52.00 C 52.03 52.00 54.01 52.00 56.00 52.00 C 56.00 51.25 56.00 49.75 56.00 49.00 C 54.00 49.00 52.01 49.00 50.02 49.00 C 50.22 45.97 49.78 42.97 48.88 40.08 C 46.56 39.42 43.80 38.98 42.00 41.03 M 68.00 41.22 C 68.00 47.08 68.00 52.93 68.00 58.78 C 70.13 59.63 72.47 61.56 74.73 59.90 C 77.39 57.84 80.12 55.85 82.68 53.67 C 84.98 51.97 85.00 48.07 82.70 46.36 C 80.12 44.14 77.36 42.15 74.69 40.05 C 72.43 38.46 70.09 40.36 68.00 41.22 M 57.00 49.00 C 57.00 49.75 57.00 51.25 57.00 52.00 C 57.75 52.00 59.25 52.00 60.00 52.00 C 60.00 51.25 60.00 49.75 60.00 49.00 C 59.25 49.00 57.75 49.00 57.00 49.00 M 61.00 49.00 C 61.00 49.75 61.00 51.25 61.00 52.00 C 63.00 52.00 65.00 52.00 67.00 52.00 C 67.00 51.25 67.00 49.75 67.00 49.00 C 65.00 49.00 63.00 49.00 61.00 49.00 Z" />
<path fill="#000000" opacity="1.00" d=" M 37.01 50.00 C 39.95 47.70 42.95 45.46 45.81 43.06 C 46.21 47.68 45.92 52.33 45.99 56.96 C 42.99 54.65 40.00 52.33 37.01 50.00 Z" />
<path fill="#000000" opacity="1.00" d=" M 72.00 43.01 C 74.99 45.35 78.00 47.66 80.99 50.00 C 78.00 52.33 75.01 54.65 72.01 56.96 C 71.99 52.31 72.00 47.66 72.00 43.01 Z" />
</g>
<g id="#717271ff">
<path fill="#717271" opacity="1.00" d=" M 33.19 10.22 C 48.78 9.70 64.41 10.16 80.02 9.98 C 88.48 9.76 97.01 12.96 103.09 18.88 C 109.37 24.80 113.07 33.37 113.00 42.01 C 112.95 61.36 113.09 80.71 112.94 100.05 C 112.27 115.63 98.65 129.26 83.07 129.93 C 67.38 130.08 51.68 129.98 36.00 129.98 C 20.02 129.85 5.77 116.04 5.06 100.10 C 4.93 80.40 5.02 60.69 5.01 40.99 C 5.18 25.63 17.92 11.77 33.19 10.22 M 30.45 12.71 C 17.46 15.44 7.21 27.67 7.02 40.99 C 6.99 60.35 6.98 79.71 7.03 99.07 C 7.19 113.96 20.10 127.25 34.96 127.92 C 50.64 128.07 66.32 128.01 82.00 127.95 C 97.27 127.86 110.86 114.31 110.96 99.04 C 111.03 79.69 111.02 60.33 110.97 40.98 C 110.85 26.08 97.93 12.76 83.06 12.08 C 69.02 11.89 54.98 12.06 40.94 12.00 C 37.44 11.98 33.89 11.91 30.45 12.71 Z" />
</g>
<g id="#f8fcf8ff">
<path fill="#f8fcf8" opacity="1.00" d=" M 42.00 41.03 C 43.80 38.98 46.56 39.42 48.88 40.08 C 49.78 42.97 50.22 45.97 50.02 49.00 C 52.01 49.00 54.00 49.00 56.00 49.00 C 56.00 49.75 56.00 51.25 56.00 52.00 C 54.01 52.00 52.03 52.00 50.04 52.00 C 50.20 54.70 49.62 57.34 48.88 59.91 C 46.54 60.59 43.80 60.98 41.98 58.94 C 39.14 56.06 34.08 54.52 33.53 50.03 C 34.03 45.49 39.16 43.94 42.00 41.03 M 37.01 50.00 C 40.00 52.33 42.99 54.65 45.99 56.96 C 45.92 52.33 46.21 47.68 45.81 43.06 C 42.95 45.46 39.95 47.70 37.01 50.00 Z" />
<path fill="#f8fcf8" opacity="1.00" d=" M 68.00 41.22 C 70.09 40.36 72.43 38.46 74.69 40.05 C 77.36 42.15 80.12 44.14 82.70 46.36 C 85.00 48.07 84.98 51.97 82.68 53.67 C 80.12 55.85 77.39 57.84 74.73 59.90 C 72.47 61.56 70.13 59.63 68.00 58.78 C 68.00 52.93 68.00 47.08 68.00 41.22 M 72.00 43.01 C 72.00 47.66 71.99 52.31 72.01 56.96 C 75.01 54.65 78.00 52.33 80.99 50.00 C 78.00 47.66 74.99 45.35 72.00 43.01 Z" />
<path fill="#f8fcf8" opacity="1.00" d=" M 57.00 49.00 C 57.75 49.00 59.25 49.00 60.00 49.00 C 60.00 49.75 60.00 51.25 60.00 52.00 C 59.25 52.00 57.75 52.00 57.00 52.00 C 57.00 51.25 57.00 49.75 57.00 49.00 Z" />
<path fill="#f8fcf8" opacity="1.00" d=" M 61.00 49.00 C 63.00 49.00 65.00 49.00 67.00 49.00 C 67.00 49.75 67.00 51.25 67.00 52.00 C 65.00 52.00 63.00 52.00 61.00 52.00 C 61.00 51.25 61.00 49.75 61.00 49.00 Z" />
</g>
</svg>
