<?xml version="1.0" encoding="UTF-8" ?>
<!DOCTYPE svg PUBLIC "-//W3C//DTD SVG 1.1//EN" "http://www.w3.org/Graphics/SVG/1.1/DTD/svg11.dtd">
<svg width="117px" height="140px" viewBox="0 0 117 140" version="1.1" xmlns="http://www.w3.org/2000/svg">
<g id="#000000ff">
<path fill="#000000" opacity="1.00" d=" M 0.00 0.00 L 117.00 0.00 L 117.00 140.00 L 0.00 140.00 L 0.00 0.00 M 4.59 36.93 C 4.13 51.95 4.50 66.99 4.38 82.02 C 4.53 89.37 3.98 96.76 4.83 104.09 C 6.59 111.49 10.61 118.44 16.74 123.05 C 22.46 127.53 29.77 129.78 37.02 129.64 C 52.04 129.53 67.07 129.75 82.09 129.53 C 96.14 128.87 108.38 117.75 111.17 104.09 C 111.82 98.76 111.61 93.38 111.61 88.03 C 111.62 76.35 111.62 64.66 111.61 52.98 C 111.58 47.30 111.85 41.59 111.17 35.93 C 109.42 28.51 105.38 21.56 99.25 16.94 C 93.54 12.48 86.25 10.24 79.04 10.37 C 64.02 10.45 49.00 10.27 33.98 10.46 C 19.49 11.09 7.11 22.84 4.59 36.93 Z" />
<path fill="#000000" opacity="1.00" d=" M 31.94 11.64 C 49.30 11.60 66.67 11.61 84.03 11.63 C 85.61 12.05 87.20 12.43 88.80 12.78 C 95.13 14.94 100.93 18.84 104.78 24.38 C 107.62 28.13 108.96 32.68 110.36 37.09 C 110.40 59.04 110.39 81.00 110.37 102.95 C 107.93 114.05 99.91 123.80 88.90 127.19 C 87.29 127.55 85.68 127.95 84.09 128.37 C 66.70 128.39 49.31 128.39 31.92 128.37 C 30.33 127.95 28.73 127.56 27.12 127.21 C 20.82 125.01 15.04 121.13 11.21 115.61 C 8.39 111.85 7.02 107.32 5.63 102.91 C 5.60 81.93 5.63 60.95 5.60 39.97 C 6.24 27.59 15.38 16.48 27.14 12.80 C 28.74 12.44 30.34 12.06 31.94 11.64 M 41.38 47.22 C 43.31 47.89 45.24 48.64 47.24 49.11 C 48.29 47.75 48.89 46.11 49.60 44.55 C 49.91 47.59 50.75 50.54 51.82 53.39 C 53.59 52.71 55.35 52.02 57.11 51.32 C 56.72 49.10 56.40 46.87 56.10 44.64 C 57.41 45.67 58.72 46.72 60.04 47.74 C 59.44 47.62 58.22 47.38 57.62 47.27 C 57.58 49.17 57.56 51.08 57.55 52.98 C 60.91 53.00 64.27 53.00 67.62 53.05 C 67.52 56.89 67.83 60.75 67.44 64.57 C 67.04 65.12 66.24 66.22 65.84 66.77 C 65.48 62.58 65.61 58.37 65.64 54.17 C 61.15 54.17 56.67 54.17 52.18 54.19 C 52.17 59.12 52.18 64.06 52.17 69.00 C 56.17 69.00 60.17 69.01 64.17 68.98 C 64.65 70.24 65.12 71.49 65.59 72.75 C 67.96 72.51 70.58 72.86 72.69 71.54 C 74.12 70.51 73.82 68.54 73.99 67.02 C 74.07 60.49 73.95 53.97 74.01 47.44 C 73.47 47.42 72.38 47.39 71.84 47.37 C 71.94 46.85 72.13 45.82 72.22 45.30 C 73.05 45.35 74.72 45.44 75.55 45.49 C 75.59 43.46 75.62 41.43 75.65 39.40 C 70.51 39.86 65.52 38.58 60.58 37.38 C 60.19 38.90 59.81 40.43 59.45 41.96 C 59.27 41.12 59.09 40.28 58.91 39.44 C 54.32 39.82 49.90 38.60 45.55 37.31 C 44.27 40.66 43.00 44.02 41.38 47.22 M 44.17 49.59 C 44.17 57.19 44.18 64.79 44.17 72.40 C 46.31 72.40 48.46 72.41 50.60 72.41 C 50.57 64.80 50.74 57.19 50.48 49.59 C 48.37 49.57 46.27 49.57 44.17 49.59 Z" />
<path fill="#000000" opacity="1.00" d=" M 63.55 47.00 C 62.90 44.67 67.14 44.71 66.34 47.03 C 65.38 48.24 64.45 48.23 63.55 47.00 Z" />
<path fill="#000000" opacity="1.00" d=" M 57.78 64.06 C 58.96 63.14 59.63 63.38 59.81 64.77 C 58.64 65.68 57.96 65.44 57.78 64.06 Z" />
</g>
<g id="#e76010ff">
<path fill="#e76010" opacity="1.00" d=" M 4.59 36.93 C 7.11 22.84 19.49 11.09 33.98 10.46 C 49.00 10.27 64.02 10.45 79.04 10.37 C 86.25 10.24 93.54 12.48 99.25 16.94 C 105.38 21.56 109.42 28.51 111.17 35.93 C 111.85 41.59 111.58 47.30 111.61 52.98 C 111.62 64.66 111.62 76.35 111.61 88.03 C 111.61 93.38 111.82 98.76 111.17 104.09 C 108.38 117.75 96.14 128.87 82.09 129.53 C 67.07 129.75 52.04 129.53 37.02 129.64 C 29.77 129.78 22.46 127.53 16.74 123.05 C 10.61 118.44 6.59 111.49 4.83 104.09 C 3.98 96.76 4.53 89.37 4.38 82.02 C 4.50 66.99 4.13 51.95 4.59 36.93 M 31.94 11.64 C 30.34 12.06 28.74 12.44 27.14 12.80 C 15.38 16.48 6.24 27.59 5.60 39.97 C 5.63 60.95 5.60 81.93 5.63 102.91 C 7.02 107.32 8.39 111.85 11.21 115.61 C 15.04 121.13 20.82 125.01 27.12 127.21 C 28.73 127.56 30.33 127.95 31.92 128.37 C 49.31 128.39 66.70 128.39 84.09 128.37 C 85.68 127.95 87.29 127.55 88.90 127.19 C 99.91 123.80 107.93 114.05 110.37 102.95 C 110.39 81.00 110.40 59.04 110.36 37.09 C 108.96 32.68 107.62 28.13 104.78 24.38 C 100.93 18.84 95.13 14.94 88.80 12.78 C 87.20 12.43 85.61 12.05 84.03 11.63 C 66.67 11.61 49.30 11.60 31.94 11.64 Z" />
<path fill="#e76010" opacity="1.00" d=" M 41.38 47.22 C 43.00 44.02 44.27 40.66 45.55 37.31 C 49.90 38.60 54.32 39.82 58.91 39.44 C 59.09 40.28 59.27 41.12 59.45 41.96 C 59.81 40.43 60.19 38.90 60.58 37.38 C 65.52 38.58 70.51 39.86 75.65 39.40 C 75.62 41.43 75.59 43.46 75.55 45.49 C 74.72 45.44 73.05 45.35 72.22 45.30 C 72.13 45.82 71.94 46.85 71.84 47.37 C 72.38 47.39 73.47 47.42 74.01 47.44 C 73.95 53.97 74.07 60.49 73.99 67.02 C 73.82 68.54 74.12 70.51 72.69 71.54 C 70.58 72.86 67.96 72.51 65.59 72.75 C 65.12 71.49 64.65 70.24 64.17 68.98 C 60.17 69.01 56.17 69.00 52.17 69.00 C 52.18 64.06 52.17 59.12 52.18 54.19 C 56.67 54.17 61.15 54.17 65.64 54.17 C 65.61 58.37 65.48 62.58 65.84 66.77 C 66.24 66.22 67.04 65.12 67.44 64.57 C 67.83 60.75 67.52 56.89 67.62 53.05 C 64.27 53.00 60.91 53.00 57.55 52.98 C 57.56 51.08 57.58 49.17 57.62 47.27 C 58.22 47.38 59.44 47.62 60.04 47.74 C 58.72 46.72 57.41 45.67 56.10 44.64 C 56.40 46.87 56.72 49.10 57.11 51.32 C 55.35 52.02 53.59 52.71 51.82 53.39 C 50.75 50.54 49.91 47.59 49.60 44.55 C 48.89 46.11 48.29 47.75 47.24 49.11 C 45.24 48.64 43.31 47.89 41.38 47.22 M 63.55 47.00 C 64.45 48.23 65.38 48.24 66.34 47.03 C 67.14 44.71 62.90 44.67 63.55 47.00 M 57.78 64.06 C 57.96 65.44 58.64 65.68 59.81 64.77 C 59.63 63.38 58.96 63.14 57.78 64.06 Z" />
<path fill="#e76010" opacity="1.00" d=" M 44.17 49.59 C 46.27 49.57 48.37 49.57 50.48 49.59 C 50.74 57.19 50.57 64.80 50.60 72.41 C 48.46 72.41 46.31 72.40 44.17 72.40 C 44.18 64.79 44.17 57.19 44.17 49.59 Z" />
</g>
</svg>
