<?xml version="1.0" encoding="UTF-8" ?>
<!DOCTYPE svg PUBLIC "-//W3C//DTD SVG 1.1//EN" "http://www.w3.org/Graphics/SVG/1.1/DTD/svg11.dtd">
<svg width="117px" height="140px" viewBox="0 0 117 140" version="1.1" xmlns="http://www.w3.org/2000/svg">
<g id="#000000ff">
<path fill="#000000" opacity="1.00" d=" M 0.00 0.00 L 117.00 0.00 L 117.00 140.00 L 0.00 140.00 L 0.00 0.00 M 33.21 10.22 C 17.95 11.76 5.20 25.61 5.02 40.96 C 4.98 60.32 4.99 79.69 5.02 99.05 C 5.17 115.37 19.63 129.83 35.95 129.97 C 51.66 129.98 67.38 130.10 83.09 129.92 C 99.04 129.25 112.88 114.94 112.97 98.97 C 113.04 79.98 112.98 60.99 113.00 42.00 C 113.06 33.37 109.37 24.82 103.10 18.89 C 97.01 12.96 88.45 9.76 79.97 9.98 C 64.39 10.17 48.78 9.69 33.21 10.22 Z" />
<path fill="#000000" opacity="1.00" d=" M 33.25 12.34 C 48.47 11.71 63.73 12.26 78.96 12.06 C 85.32 11.88 91.81 13.27 97.14 16.84 C 105.61 22.13 111.00 31.98 110.91 41.97 C 110.95 60.65 110.95 79.34 110.91 98.03 C 111.02 108.73 104.81 119.23 95.34 124.23 C 90.41 127.07 84.63 128.05 78.99 127.94 C 64.30 127.84 49.61 128.09 34.92 127.82 C 20.10 127.15 7.24 113.88 7.12 99.03 C 7.03 79.68 7.03 60.32 7.13 40.98 C 7.29 26.74 19.08 13.80 33.25 12.34 M 56.11 33.54 C 55.81 37.80 56.09 42.08 56.00 46.34 C 57.66 46.30 59.32 46.27 60.98 46.25 C 60.71 42.14 60.78 38.02 60.88 33.90 C 60.57 33.39 59.96 32.38 59.65 31.87 C 58.34 32.02 56.51 31.88 56.11 33.54 M 39.36 42.31 C 37.06 52.65 38.74 63.34 38.11 73.83 C 40.97 74.01 43.83 74.03 46.69 74.00 C 47.06 74.51 47.81 75.52 48.18 76.02 C 52.12 75.99 56.06 76.00 60.00 76.00 C 60.00 75.25 60.00 73.75 60.00 73.00 C 56.35 73.00 52.71 73.00 49.06 73.00 C 49.04 72.50 48.99 71.50 48.97 71.00 C 46.31 71.00 43.66 71.00 41.00 71.00 C 41.00 66.33 41.00 61.67 41.00 57.00 C 51.00 56.99 61.00 57.02 70.99 56.99 C 73.42 57.01 75.99 56.62 78.15 58.00 C 79.23 57.44 79.52 56.04 79.89 54.98 C 79.20 51.30 78.44 47.63 77.83 43.94 C 77.58 42.26 76.77 40.14 74.87 39.86 C 71.19 39.20 67.16 39.20 63.85 41.15 C 63.84 42.92 63.87 44.77 65.06 46.21 C 60.94 48.46 55.99 48.39 51.84 46.25 C 53.12 44.83 53.06 42.94 53.12 41.16 C 51.20 40.29 49.20 39.40 47.05 39.51 C 44.32 39.51 40.51 39.14 39.36 42.31 M 69.47 61.41 C 62.97 63.24 61.85 73.12 67.35 76.69 C 69.44 78.57 72.51 77.94 75.07 77.88 C 81.86 76.52 83.36 66.02 77.60 62.48 C 75.27 60.80 72.16 60.69 69.47 61.41 Z" />
<path fill="#000000" opacity="1.00" d=" M 42.35 42.98 C 44.70 42.82 47.06 42.92 49.40 43.12 C 48.74 44.78 47.88 46.99 49.68 48.29 C 54.71 52.05 62.30 51.93 67.36 48.27 C 69.04 46.80 68.01 44.59 67.39 42.89 C 69.69 42.93 71.99 42.88 74.29 42.82 C 75.10 46.52 75.83 50.24 76.32 53.99 C 64.37 54.01 52.43 54.00 40.49 54.00 C 41.08 50.32 41.94 46.69 42.35 42.98 Z" />
<path fill="#000000" opacity="1.00" d=" M 69.07 63.76 C 71.37 63.21 73.74 63.22 76.02 63.86 C 74.83 65.10 73.62 66.32 72.42 67.55 C 71.30 66.29 70.14 65.06 69.07 63.76 Z" />
<path fill="#000000" opacity="1.00" d=" M 66.66 66.11 C 67.96 67.26 69.20 68.48 70.45 69.69 C 69.17 70.80 67.93 71.95 66.61 72.99 C 66.10 70.72 66.09 68.38 66.66 66.11 Z" />
<path fill="#000000" opacity="1.00" d=" M 74.60 69.54 C 75.81 68.41 77.00 67.26 78.19 66.10 C 78.90 68.27 79.07 70.57 78.39 72.78 C 76.81 72.14 75.80 70.67 74.60 69.54 Z" />
<path fill="#000000" opacity="1.00" d=" M 68.91 75.20 C 70.15 74.05 71.40 72.91 72.69 71.82 C 73.77 73.00 74.91 74.14 75.99 75.33 C 73.65 75.99 71.22 75.99 68.91 75.20 Z" />
</g>
<g id="#727372ff">
<path fill="#727372" opacity="1.00" d=" M 33.21 10.22 C 48.78 9.69 64.39 10.17 79.97 9.98 C 88.45 9.76 97.01 12.96 103.10 18.89 C 109.37 24.82 113.06 33.37 113.00 42.00 C 112.98 60.99 113.04 79.98 112.97 98.97 C 112.88 114.94 99.04 129.25 83.09 129.92 C 67.38 130.10 51.66 129.98 35.95 129.97 C 19.63 129.83 5.17 115.37 5.02 99.05 C 4.99 79.69 4.98 60.32 5.02 40.96 C 5.20 25.61 17.95 11.76 33.21 10.22 M 33.25 12.34 C 19.08 13.80 7.29 26.74 7.13 40.98 C 7.03 60.32 7.03 79.68 7.12 99.03 C 7.24 113.88 20.10 127.15 34.92 127.82 C 49.61 128.09 64.30 127.84 78.99 127.94 C 84.63 128.05 90.41 127.07 95.34 124.23 C 104.81 119.23 111.02 108.73 110.91 98.03 C 110.95 79.34 110.95 60.65 110.91 41.97 C 111.00 31.98 105.61 22.13 97.14 16.84 C 91.81 13.27 85.32 11.88 78.96 12.06 C 63.73 12.26 48.47 11.71 33.25 12.34 Z" />
</g>
<g id="#f8fcf8ff">
<path fill="#f8fcf8" opacity="1.00" d=" M 56.11 33.54 C 56.51 31.88 58.34 32.02 59.65 31.87 C 59.96 32.38 60.57 33.39 60.88 33.90 C 60.78 38.02 60.71 42.14 60.98 46.25 C 59.32 46.27 57.66 46.30 56.00 46.34 C 56.09 42.08 55.81 37.80 56.11 33.54 Z" />
<path fill="#f8fcf8" opacity="1.00" d=" M 39.36 42.31 C 40.51 39.14 44.32 39.51 47.05 39.51 C 49.20 39.40 51.20 40.29 53.12 41.16 C 53.06 42.94 53.12 44.83 51.84 46.25 C 55.99 48.39 60.94 48.46 65.06 46.21 C 63.87 44.77 63.84 42.92 63.85 41.15 C 67.16 39.20 71.19 39.20 74.87 39.86 C 76.77 40.14 77.58 42.26 77.83 43.94 C 78.44 47.63 79.20 51.30 79.89 54.98 C 79.52 56.04 79.23 57.44 78.15 58.00 C 75.99 56.62 73.42 57.01 70.99 56.99 C 61.00 57.02 51.00 56.99 41.00 57.00 C 41.00 61.67 41.00 66.33 41.00 71.00 C 43.66 71.00 46.31 71.00 48.97 71.00 C 48.99 71.50 49.04 72.50 49.06 73.00 C 52.71 73.00 56.35 73.00 60.00 73.00 C 60.00 73.75 60.00 75.25 60.00 76.00 C 56.06 76.00 52.12 75.99 48.18 76.02 C 47.81 75.52 47.06 74.51 46.69 74.00 C 43.83 74.03 40.97 74.01 38.11 73.83 C 38.74 63.34 37.06 52.65 39.36 42.31 M 42.35 42.98 C 41.94 46.69 41.08 50.32 40.49 54.00 C 52.43 54.00 64.37 54.01 76.32 53.99 C 75.83 50.24 75.10 46.52 74.29 42.82 C 71.99 42.88 69.69 42.93 67.39 42.89 C 68.01 44.59 69.04 46.80 67.36 48.27 C 62.30 51.93 54.71 52.05 49.68 48.29 C 47.88 46.99 48.74 44.78 49.40 43.12 C 47.06 42.92 44.70 42.82 42.35 42.98 Z" />
<path fill="#f8fcf8" opacity="1.00" d=" M 69.47 61.41 C 72.16 60.69 75.27 60.80 77.60 62.48 C 83.36 66.02 81.86 76.52 75.07 77.88 C 72.51 77.94 69.44 78.57 67.35 76.69 C 61.85 73.12 62.97 63.24 69.47 61.41 M 69.07 63.76 C 70.14 65.06 71.30 66.29 72.42 67.55 C 73.62 66.32 74.83 65.10 76.02 63.86 C 73.74 63.22 71.37 63.21 69.07 63.76 M 66.66 66.11 C 66.09 68.38 66.10 70.72 66.61 72.99 C 67.93 71.95 69.17 70.80 70.45 69.69 C 69.20 68.48 67.96 67.26 66.66 66.11 M 74.60 69.54 C 75.80 70.67 76.81 72.14 78.39 72.78 C 79.07 70.57 78.90 68.27 78.19 66.10 C 77.00 67.26 75.81 68.41 74.60 69.54 M 68.91 75.20 C 71.22 75.99 73.65 75.99 75.99 75.33 C 74.91 74.14 73.77 73.00 72.69 71.82 C 71.40 72.91 70.15 74.05 68.91 75.20 Z" />
</g>
</svg>
