<?xml version="1.0" encoding="UTF-8" ?>
<!DOCTYPE svg PUBLIC "-//W3C//DTD SVG 1.1//EN" "http://www.w3.org/Graphics/SVG/1.1/DTD/svg11.dtd">
<svg width="117px" height="140px" viewBox="0 0 117 140" version="1.1" xmlns="http://www.w3.org/2000/svg">
<g id="#000000ff">
<path fill="#000000" opacity="1.00" d=" M 0.00 0.00 L 117.00 0.00 L 117.00 140.00 L 0.00 140.00 L 0.00 0.00 M 33.17 10.22 C 17.95 11.78 5.23 25.58 5.02 40.90 C 5.02 60.63 4.93 80.36 5.06 100.09 C 5.76 116.02 20.00 129.83 35.96 129.98 C 51.66 129.98 67.37 130.09 83.07 129.93 C 98.65 129.26 112.28 115.62 112.93 100.04 C 113.09 80.71 112.95 61.38 113.01 42.05 C 113.08 33.39 109.38 24.80 103.08 18.87 C 96.99 12.95 88.46 9.75 79.99 9.98 C 64.39 10.17 48.76 9.70 33.17 10.22 Z" />
<path fill="#000000" opacity="1.00" d=" M 30.44 12.71 C 34.24 11.83 38.16 12.00 42.02 12.00 C 55.71 12.06 69.39 11.89 83.08 12.08 C 97.94 12.77 110.86 26.10 110.97 41.00 C 111.02 60.35 111.03 79.70 110.96 99.06 C 110.85 114.30 97.29 127.83 82.06 127.95 C 66.70 128.04 51.33 128.01 35.98 127.97 C 20.73 127.83 7.16 114.32 7.03 99.06 C 6.98 79.69 6.98 60.32 7.03 40.96 C 7.22 27.66 17.46 15.44 30.44 12.71 M 46.02 41.01 C 43.19 43.92 38.12 45.45 37.53 49.94 C 38.00 54.52 43.16 56.06 46.01 58.97 C 47.82 60.97 50.57 60.60 52.88 59.91 C 53.62 57.34 54.19 54.71 54.04 52.01 C 54.53 52.00 55.51 51.99 56.00 51.98 C 56.00 51.24 56.00 49.76 56.00 49.02 C 55.50 49.01 54.51 48.99 54.01 48.99 C 54.20 45.96 53.80 42.96 52.87 40.08 C 50.57 39.41 47.82 39.00 46.02 41.01 M 63.99 41.23 C 64.01 43.82 63.99 46.41 64.00 49.00 C 63.25 49.00 61.75 49.00 61.00 49.00 C 61.00 49.75 61.00 51.25 61.00 52.00 C 61.75 52.00 63.25 52.00 64.00 52.00 C 64.00 54.26 64.00 56.53 64.00 58.79 C 66.11 59.62 68.44 61.54 70.70 59.92 C 73.37 57.86 76.10 55.86 78.68 53.67 C 80.99 51.95 80.99 48.07 78.69 46.34 C 76.12 44.15 73.38 42.16 70.71 40.08 C 68.47 38.45 66.08 40.34 63.99 41.23 M 57.00 49.00 C 57.00 49.75 57.00 51.25 57.00 52.00 C 57.75 52.00 59.25 52.00 60.00 52.00 C 60.00 51.25 60.00 49.75 60.00 49.00 C 59.25 49.00 57.75 49.00 57.00 49.00 Z" />
<path fill="#000000" opacity="1.00" d=" M 41.01 50.00 C 44.00 47.68 46.99 45.34 50.00 43.04 C 50.00 47.68 50.01 52.32 49.99 56.97 C 46.99 54.65 44.00 52.33 41.01 50.00 Z" />
<path fill="#000000" opacity="1.00" d=" M 68.00 43.04 C 71.02 45.34 74.00 47.68 76.99 50.00 C 74.00 52.33 71.01 54.65 68.01 56.97 C 67.99 52.33 68.00 47.68 68.00 43.04 Z" />
</g>
<g id="#717271ff">
<path fill="#717271" opacity="1.00" d=" M 33.17 10.22 C 48.76 9.70 64.39 10.17 79.99 9.98 C 88.46 9.75 96.99 12.95 103.08 18.87 C 109.38 24.80 113.08 33.39 113.01 42.05 C 112.95 61.38 113.09 80.71 112.93 100.04 C 112.28 115.62 98.65 129.26 83.07 129.93 C 67.37 130.09 51.66 129.98 35.96 129.98 C 20.00 129.83 5.76 116.02 5.06 100.09 C 4.93 80.36 5.02 60.63 5.02 40.90 C 5.23 25.58 17.95 11.78 33.17 10.22 M 30.44 12.71 C 17.46 15.44 7.22 27.66 7.03 40.96 C 6.98 60.32 6.98 79.69 7.03 99.06 C 7.16 114.32 20.73 127.83 35.98 127.97 C 51.33 128.01 66.70 128.04 82.06 127.95 C 97.29 127.83 110.85 114.30 110.96 99.06 C 111.03 79.70 111.02 60.35 110.97 41.00 C 110.86 26.10 97.94 12.77 83.08 12.08 C 69.39 11.89 55.71 12.06 42.02 12.00 C 38.16 12.00 34.24 11.83 30.44 12.71 Z" />
</g>
<g id="#f8fcf8ff">
<path fill="#f8fcf8" opacity="1.00" d=" M 46.02 41.01 C 47.82 39.00 50.57 39.41 52.87 40.08 C 53.80 42.96 54.20 45.96 54.01 48.99 C 54.51 48.99 55.50 49.01 56.00 49.02 C 56.00 49.76 56.00 51.24 56.00 51.98 C 55.51 51.99 54.53 52.00 54.04 52.01 C 54.19 54.71 53.62 57.34 52.88 59.91 C 50.57 60.60 47.82 60.97 46.01 58.97 C 43.16 56.06 38.00 54.52 37.53 49.94 C 38.12 45.45 43.19 43.92 46.02 41.01 M 41.01 50.00 C 44.00 52.33 46.99 54.65 49.99 56.97 C 50.01 52.32 50.00 47.68 50.00 43.04 C 46.99 45.34 44.00 47.68 41.01 50.00 Z" />
<path fill="#f8fcf8" opacity="1.00" d=" M 63.99 41.23 C 66.08 40.34 68.47 38.45 70.71 40.08 C 73.38 42.16 76.12 44.15 78.69 46.34 C 80.99 48.07 80.99 51.95 78.68 53.67 C 76.10 55.86 73.37 57.86 70.70 59.92 C 68.44 61.54 66.11 59.62 64.00 58.79 C 64.00 56.53 64.00 54.26 64.00 52.00 C 63.25 52.00 61.75 52.00 61.00 52.00 C 61.00 51.25 61.00 49.75 61.00 49.00 C 61.75 49.00 63.25 49.00 64.00 49.00 C 63.99 46.41 64.01 43.82 63.99 41.23 M 68.00 43.04 C 68.00 47.68 67.99 52.33 68.01 56.97 C 71.01 54.65 74.00 52.33 76.99 50.00 C 74.00 47.68 71.02 45.34 68.00 43.04 Z" />
<path fill="#f8fcf8" opacity="1.00" d=" M 57.00 49.00 C 57.75 49.00 59.25 49.00 60.00 49.00 C 60.00 49.75 60.00 51.25 60.00 52.00 C 59.25 52.00 57.75 52.00 57.00 52.00 C 57.00 51.25 57.00 49.75 57.00 49.00 Z" />
</g>
</svg>
