<?xml version="1.0" encoding="UTF-8" ?>
<!DOCTYPE svg PUBLIC "-//W3C//DTD SVG 1.1//EN" "http://www.w3.org/Graphics/SVG/1.1/DTD/svg11.dtd">
<svg width="117px" height="140px" viewBox="0 0 117 140" version="1.1" xmlns="http://www.w3.org/2000/svg">
<g id="#181818ff">
<path fill="#181818" opacity="1.00" d=" M 0.00 0.00 L 117.00 0.00 L 117.00 140.00 L 0.00 140.00 L 0.00 0.00 M 20.20 15.04 C 16.80 15.00 13.40 15.00 9.99 14.99 C 10.00 18.45 10.02 21.91 10.01 25.37 C 9.99 28.80 10.00 32.23 9.99 35.66 C 10.00 39.47 10.01 43.28 10.00 47.10 C 9.99 51.36 10.01 55.61 10.01 59.87 C 9.99 63.87 10.00 67.87 10.03 71.87 C 10.07 75.87 9.73 79.91 10.26 83.89 C 10.89 85.32 13.08 85.32 13.73 83.91 C 14.26 79.99 13.93 76.03 13.97 72.09 C 14.00 67.66 14.01 63.23 13.99 58.80 C 14.00 57.54 14.00 56.28 14.00 55.03 C 18.77 54.99 23.79 55.27 28.22 53.18 C 31.04 52.02 33.24 49.86 35.46 47.84 C 38.64 43.51 40.34 38.27 39.97 32.88 C 38.99 25.96 34.63 19.39 27.97 16.82 C 28.02 15.04 27.55 13.30 26.88 11.67 C 24.19 10.39 19.69 11.32 20.20 15.04 M 43.11 18.82 C 46.06 19.19 49.04 18.98 52.00 18.99 C 52.01 23.22 52.04 27.44 52.00 31.67 C 51.99 37.87 52.00 44.07 52.00 50.26 C 51.99 56.31 52.01 62.36 52.00 68.41 C 52.00 72.61 51.99 76.81 52.00 81.01 C 49.05 81.02 46.08 80.80 43.14 81.19 C 41.27 81.92 41.83 85.03 43.89 84.91 C 50.61 85.09 57.35 85.07 64.06 84.88 C 66.09 85.10 66.68 81.99 64.90 81.22 C 61.95 80.83 58.96 81.02 56.00 81.00 C 56.00 76.02 56.00 71.05 56.00 66.07 C 55.99 59.66 56.01 53.26 56.00 46.85 C 55.99 40.61 56.01 34.37 55.99 28.13 C 55.97 25.08 55.98 22.04 55.99 18.99 C 58.94 18.97 61.91 19.19 64.84 18.77 C 66.73 18.12 66.10 14.90 64.06 15.11 C 57.39 14.89 50.69 14.97 44.01 15.06 C 41.93 14.83 41.23 18.00 43.11 18.82 M 75.82 14.98 C 75.81 16.34 75.79 17.69 75.75 19.04 C 85.21 20.01 93.85 25.40 99.16 33.24 C 103.70 40.47 104.91 49.29 103.27 57.61 L 103.13 57.69 C 99.83 70.10 88.56 79.78 75.75 80.97 C 75.81 82.31 75.82 83.65 75.79 85.00 C 91.59 83.71 105.33 70.93 107.71 55.25 C 108.68 46.83 107.01 38.17 102.46 30.97 C 96.41 22.09 86.58 15.99 75.82 14.98 M 77.96 43.96 C 77.82 46.32 79.83 47.84 81.12 49.53 C 83.53 50.01 86.36 50.17 88.13 48.10 C 90.31 46.34 89.85 43.31 89.78 40.85 L 88.58 41.74 L 89.46 41.00 C 88.03 39.96 86.82 38.38 84.99 38.06 C 81.50 37.31 77.88 40.45 77.96 43.96 M 31.31 72.50 C 28.37 74.17 30.80 79.15 33.95 77.65 C 37.98 76.68 34.88 69.73 31.31 72.50 Z" />
<path fill="#181818" opacity="1.00" d=" M 13.99 19.07 C 16.87 18.91 19.75 18.79 22.62 18.66 C 22.94 18.76 23.56 18.98 23.88 19.09 C 31.45 21.44 36.71 29.10 36.07 37.04 C 35.24 39.79 34.23 42.50 32.66 44.92 C 30.32 47.29 27.61 49.51 24.31 50.34 C 20.95 51.18 17.44 50.98 14.00 51.06 C 14.00 49.68 14.00 48.30 14.00 46.93 C 13.99 43.18 14.00 39.43 14.00 35.68 C 14.00 32.23 14.00 28.79 13.99 25.35 C 13.99 23.26 13.99 21.16 13.99 19.07 Z" />
</g>
<g id="#c0ec18ff">
<path fill="#c0ec18" opacity="1.00" d=" M 20.20 15.04 C 19.69 11.32 24.19 10.39 26.88 11.67 C 24.74 13.70 22.58 15.69 20.38 17.66 C 20.34 17.00 20.24 15.70 20.20 15.04 Z" />
</g>
<g id="#80dc08ff">
<path fill="#80dc08" opacity="1.00" d=" M 26.88 11.67 C 27.55 13.30 28.02 15.04 27.97 16.82 C 26.83 17.93 25.42 18.69 23.88 19.09 C 23.56 18.98 22.94 18.76 22.62 18.66 C 22.06 18.41 20.94 17.91 20.38 17.66 C 22.58 15.69 24.74 13.70 26.88 11.67 Z" />
</g>
<g id="#9060f0ff">
<path fill="#9060f0" opacity="1.00" d=" M 9.99 14.99 C 13.40 15.00 16.80 15.00 20.20 15.04 C 20.24 15.70 20.34 17.00 20.38 17.66 C 20.94 17.91 22.06 18.41 22.62 18.66 C 19.75 18.79 16.87 18.91 13.99 19.07 C 13.99 21.16 13.99 23.26 13.99 25.35 C 12.67 25.36 11.34 25.36 10.01 25.37 C 10.02 21.91 10.00 18.45 9.99 14.99 Z" />
</g>
<g id="#f8dc78ff">
<path fill="#f8dc78" opacity="1.00" d=" M 43.11 18.82 C 41.23 18.00 41.93 14.83 44.01 15.06 C 50.69 14.97 57.39 14.89 64.06 15.11 C 66.10 14.90 66.73 18.12 64.84 18.77 C 61.91 19.19 58.94 18.97 55.99 18.99 C 55.98 22.04 55.97 25.08 55.99 28.13 C 54.66 29.31 53.33 30.49 52.00 31.67 C 52.04 27.44 52.01 23.22 52.00 18.99 C 49.04 18.98 46.06 19.19 43.11 18.82 Z" />
</g>
<g id="#f8bc60ff">
<path fill="#f8bc60" opacity="1.00" d=" M 75.82 14.98 C 86.58 15.99 96.41 22.09 102.46 30.97 C 101.36 31.72 100.26 32.48 99.16 33.24 C 93.85 25.40 85.21 20.01 75.75 19.04 C 75.79 17.69 75.81 16.34 75.82 14.98 Z" />
</g>
<g id="#8058e8ff">
<path fill="#8058e8" opacity="1.00" d=" M 23.88 19.09 C 25.42 18.69 26.83 17.93 27.97 16.82 C 34.63 19.39 38.99 25.96 39.97 32.88 C 39.13 34.64 37.82 36.14 36.07 37.04 C 36.71 29.10 31.45 21.44 23.88 19.09 Z" />
</g>
<g id="#7858e8ff">
<path fill="#7858e8" opacity="1.00" d=" M 10.01 25.37 C 11.34 25.36 12.67 25.36 13.99 25.35 C 14.00 28.79 14.00 32.23 14.00 35.68 C 12.67 35.66 11.33 35.65 9.99 35.66 C 10.00 32.23 9.99 28.80 10.01 25.37 Z" />
</g>
<g id="#f8c468ff">
<path fill="#f8c468" opacity="1.00" d=" M 52.00 31.67 C 53.33 30.49 54.66 29.31 55.99 28.13 C 56.01 34.37 55.99 40.61 56.00 46.85 C 54.67 47.99 53.33 49.13 52.00 50.26 C 52.00 44.07 51.99 37.87 52.00 31.67 Z" />
</g>
<g id="#f89c48ff">
<path fill="#f89c48" opacity="1.00" d=" M 102.46 30.97 C 107.01 38.17 108.68 46.83 107.71 55.25 C 106.22 56.01 104.73 56.77 103.27 57.61 C 104.91 49.29 103.70 40.47 99.16 33.24 C 100.26 32.48 101.36 31.72 102.46 30.97 Z" />
</g>
<g id="#6850e0ff">
<path fill="#6850e0" opacity="1.00" d=" M 36.07 37.04 C 37.82 36.14 39.13 34.64 39.97 32.88 C 40.34 38.27 38.64 43.51 35.46 47.84 C 34.53 46.86 33.60 45.89 32.66 44.92 C 34.23 42.50 35.24 39.79 36.07 37.04 Z" />
<path fill="#6850e0" opacity="1.00" d=" M 9.99 35.66 C 11.33 35.65 12.67 35.66 14.00 35.68 C 14.00 39.43 13.99 43.18 14.00 46.93 C 12.67 46.98 11.33 47.04 10.00 47.10 C 10.01 43.28 10.00 39.47 9.99 35.66 Z" />
</g>
<g id="#48c4d0ff">
<path fill="#48c4d0" opacity="1.00" d=" M 77.96 43.96 C 77.88 40.45 81.50 37.31 84.99 38.06 C 86.82 38.38 88.03 39.96 89.46 41.00 L 88.58 41.74 C 85.80 44.04 83.46 46.80 81.12 49.53 C 79.83 47.84 77.82 46.32 77.96 43.96 Z" />
</g>
<g id="#3094b8ff">
<path fill="#3094b8" opacity="1.00" d=" M 81.12 49.53 C 83.46 46.80 85.80 44.04 88.58 41.74 L 89.78 40.85 C 89.85 43.31 90.31 46.34 88.13 48.10 C 86.36 50.17 83.53 50.01 81.12 49.53 Z" />
</g>
<g id="#5048d8ff">
<path fill="#5048d8" opacity="1.00" d=" M 24.31 50.34 C 27.61 49.51 30.32 47.29 32.66 44.92 C 33.60 45.89 34.53 46.86 35.46 47.84 C 33.24 49.86 31.04 52.02 28.22 53.18 C 23.79 55.27 18.77 54.99 14.00 55.03 C 14.00 56.28 14.00 57.54 13.99 58.80 C 12.67 59.16 11.34 59.52 10.01 59.87 C 10.01 55.61 9.99 51.36 10.00 47.10 C 11.33 47.04 12.67 46.98 14.00 46.93 C 14.00 48.30 14.00 49.68 14.00 51.06 C 17.44 50.98 20.95 51.18 24.31 50.34 Z" />
</g>
<g id="#f8b460ff">
<path fill="#f8b460" opacity="1.00" d=" M 52.00 50.26 C 53.33 49.13 54.67 47.99 56.00 46.85 C 56.01 53.26 55.99 59.66 56.00 66.07 C 54.67 66.85 53.33 67.63 52.00 68.41 C 52.01 62.36 51.99 56.31 52.00 50.26 Z" />
</g>
<g id="#f88c38ff">
<path fill="#f88c38" opacity="1.00" d=" M 103.27 57.61 C 104.73 56.77 106.22 56.01 107.71 55.25 C 105.33 70.93 91.59 83.71 75.79 85.00 C 75.82 83.65 75.81 82.31 75.75 80.97 C 88.56 79.78 99.83 70.10 103.13 57.69 L 103.27 57.61 Z" />
</g>
<g id="#3840d0ff">
<path fill="#3840d0" opacity="1.00" d=" M 10.01 59.87 C 11.34 59.52 12.67 59.16 13.99 58.80 C 14.01 63.23 14.00 67.66 13.97 72.09 C 12.66 72.01 11.34 71.94 10.03 71.87 C 10.00 67.87 9.99 63.87 10.01 59.87 Z" />
</g>
<g id="#f8a450ff">
<path fill="#f8a450" opacity="1.00" d=" M 52.00 68.41 C 53.33 67.63 54.67 66.85 56.00 66.07 C 56.00 71.05 56.00 76.02 56.00 81.00 C 58.96 81.02 61.95 80.83 64.90 81.22 C 66.68 81.99 66.09 85.10 64.06 84.88 C 57.35 85.07 50.61 85.09 43.89 84.91 C 41.83 85.03 41.27 81.92 43.14 81.19 C 46.08 80.80 49.05 81.02 52.00 81.01 C 51.99 76.81 52.00 72.61 52.00 68.41 Z" />
</g>
<g id="#2038c8ff">
<path fill="#2038c8" opacity="1.00" d=" M 10.03 71.87 C 11.34 71.94 12.66 72.01 13.97 72.09 C 13.93 76.03 14.26 79.99 13.73 83.91 C 13.08 85.32 10.89 85.32 10.26 83.89 C 9.73 79.91 10.07 75.87 10.03 71.87 Z" />
</g>
<g id="#e068d0ff">
<path fill="#e068d0" opacity="1.00" d=" M 31.31 72.50 C 34.88 69.73 37.98 76.68 33.95 77.65 C 30.80 79.15 28.37 74.17 31.31 72.50 Z" />
</g>
</svg>
