<?xml version="1.0" encoding="UTF-8" ?>
<!DOCTYPE svg PUBLIC "-//W3C//DTD SVG 1.1//EN" "http://www.w3.org/Graphics/SVG/1.1/DTD/svg11.dtd">
<svg width="117px" height="140px" viewBox="0 0 117 140" version="1.1" xmlns="http://www.w3.org/2000/svg">
<g id="#181818ff">
<path fill="#181818" opacity="1.00" d=" M 0.00 0.00 L 117.00 0.00 L 117.00 140.00 L 0.00 140.00 L 0.00 0.00 M 26.99 15.87 C 23.41 17.74 22.99 23.14 26.25 25.56 C 28.10 27.14 30.97 27.54 33.00 26.04 C 36.20 24.31 36.90 19.78 34.58 17.08 C 32.64 15.12 29.39 14.15 26.99 15.87 M 37.13 26.49 C 31.15 31.09 27.65 38.61 28.03 46.16 C 22.40 48.06 18.13 53.43 17.29 59.30 L 17.14 59.29 C 16.68 63.15 17.42 67.16 19.36 70.54 L 19.47 70.56 C 22.97 77.19 31.15 80.01 38.28 78.72 C 39.71 80.12 42.06 80.21 43.46 78.71 C 56.96 79.26 70.52 78.83 84.04 78.93 C 91.15 79.03 97.99 74.10 100.08 67.29 C 101.41 63.35 101.27 58.92 99.53 55.13 C 97.72 50.95 94.15 47.83 90.04 46.01 C 89.69 43.98 89.01 42.03 87.90 40.29 L 88.07 39.84 C 87.69 39.70 86.94 39.41 86.56 39.26 C 88.03 37.64 88.55 35.03 86.95 33.32 C 84.70 30.77 80.67 32.32 79.86 35.34 C 77.99 34.63 75.98 35.20 74.11 35.59 C 73.57 34.49 73.00 33.41 72.38 32.36 C 69.08 27.27 63.99 23.26 58.04 21.81 C 50.91 19.85 42.64 21.50 37.13 26.49 Z" />
<path fill="#181818" opacity="1.00" d=" M 37.52 31.24 C 45.41 22.52 60.73 23.22 67.77 32.66 C 69.55 35.08 70.68 37.86 71.91 40.57 C 74.72 39.56 77.62 38.80 80.62 38.76 C 81.20 39.10 82.35 39.79 82.93 40.14 C 84.06 41.71 84.98 43.42 85.80 45.18 C 85.92 46.39 86.05 47.61 86.18 48.83 C 90.38 50.23 94.32 52.90 96.09 57.12 C 97.43 60.81 97.22 64.99 95.33 68.46 C 92.95 72.30 88.72 74.99 84.13 74.97 C 70.62 75.08 57.11 74.89 43.60 75.07 C 41.99 73.64 39.82 73.71 38.20 75.09 C 33.21 75.34 27.78 74.62 24.26 70.69 C 21.72 67.69 20.62 63.68 21.12 59.79 C 22.10 54.22 26.85 50.30 32.06 48.76 C 32.05 48.27 32.04 47.29 32.04 46.80 C 31.64 41.13 33.65 35.41 37.52 31.24 M 49.93 47.90 C 49.07 48.87 47.79 49.65 47.63 51.06 C 47.84 52.51 49.19 53.27 50.57 52.99 C 51.42 52.99 53.13 53.00 53.98 53.01 C 54.04 54.69 54.00 56.37 54.01 58.06 C 53.96 60.51 54.04 62.97 54.01 65.43 C 55.65 68.41 60.03 66.55 62.82 66.83 C 65.22 64.59 63.47 60.50 63.97 57.54 C 64.01 56.03 63.96 54.52 64.01 53.02 C 66.20 52.66 69.72 54.07 70.40 51.03 C 69.91 49.31 68.35 48.28 67.18 47.06 C 65.67 45.52 64.17 43.98 62.61 42.49 C 61.30 41.37 60.14 39.04 58.07 39.89 C 55.24 42.43 52.67 45.25 49.93 47.90 Z" />
</g>
<g id="#e894e0ff">
<path fill="#e894e0" opacity="1.00" d=" M 26.99 15.87 C 29.39 14.15 32.64 15.12 34.58 17.08 C 31.98 20.08 29.18 22.89 26.25 25.56 C 22.99 23.14 23.41 17.74 26.99 15.87 Z" />
</g>
<g id="#e064d0ff">
<path fill="#e064d0" opacity="1.00" d=" M 34.58 17.08 C 36.90 19.78 36.20 24.31 33.00 26.04 C 30.97 27.54 28.10 27.14 26.25 25.56 C 29.18 22.89 31.98 20.08 34.58 17.08 Z" />
</g>
<g id="#9060f0ff">
<path fill="#9060f0" opacity="1.00" d=" M 37.13 26.49 C 42.64 21.50 50.91 19.85 58.04 21.81 C 63.99 23.26 69.08 27.27 72.38 32.36 C 70.84 32.46 69.30 32.56 67.77 32.66 C 60.73 23.22 45.41 22.52 37.52 31.24 C 37.40 29.65 37.27 28.07 37.13 26.49 Z" />
</g>
<g id="#7054e8ff">
<path fill="#7054e8" opacity="1.00" d=" M 28.03 46.16 C 27.65 38.61 31.15 31.09 37.13 26.49 C 37.27 28.07 37.40 29.65 37.52 31.24 C 33.65 35.41 31.64 41.13 32.04 46.80 C 30.70 46.59 29.37 46.37 28.03 46.16 Z" />
</g>
<g id="#f8c498ff">
<path fill="#f8c498" opacity="1.00" d=" M 79.86 35.34 C 80.67 32.32 84.70 30.77 86.95 33.32 C 85.06 35.20 83.11 37.03 80.91 38.55 C 80.39 37.54 80.04 36.47 79.86 35.34 Z" />
</g>
<g id="#7058e8ff">
<path fill="#7058e8" opacity="1.00" d=" M 67.77 32.66 C 69.30 32.56 70.84 32.46 72.38 32.36 C 73.00 33.41 73.57 34.49 74.11 35.59 C 75.98 35.20 77.99 34.63 79.86 35.34 C 80.04 36.47 80.39 37.54 80.91 38.55 L 80.62 38.76 C 77.62 38.80 74.72 39.56 71.91 40.57 C 70.68 37.86 69.55 35.08 67.77 32.66 Z" />
</g>
<g id="#f09ca0ff">
<path fill="#f09ca0" opacity="1.00" d=" M 86.95 33.32 C 88.55 35.03 88.03 37.64 86.56 39.26 C 85.37 39.65 84.15 39.92 82.93 40.14 C 82.35 39.79 81.20 39.10 80.62 38.76 L 80.91 38.55 C 83.11 37.03 85.06 35.20 86.95 33.32 Z" />
</g>
<g id="#41338bff">
<path fill="#41338b" opacity="1.00" d=" M 82.93 40.14 C 84.15 39.92 85.37 39.65 86.56 39.26 C 86.94 39.41 87.69 39.70 88.07 39.84 L 87.90 40.29 C 87.19 41.92 86.44 43.52 85.80 45.18 C 84.98 43.42 84.06 41.71 82.93 40.14 Z" />
</g>
<g id="#f8c868ff">
<path fill="#f8c868" opacity="1.00" d=" M 49.93 47.90 C 52.67 45.25 55.24 42.43 58.07 39.89 C 60.14 39.04 61.30 41.37 62.61 42.49 C 58.42 45.78 54.52 49.42 50.57 52.99 C 49.19 53.27 47.84 52.51 47.63 51.06 C 47.79 49.65 49.07 48.87 49.93 47.90 Z" />
</g>
<g id="#584cd8ff">
<path fill="#584cd8" opacity="1.00" d=" M 85.80 45.18 C 86.44 43.52 87.19 41.92 87.90 40.29 C 89.01 42.03 89.69 43.98 90.04 46.01 C 94.15 47.83 97.72 50.95 99.53 55.13 C 98.37 55.77 97.22 56.43 96.09 57.12 C 94.32 52.90 90.38 50.23 86.18 48.83 C 86.05 47.61 85.92 46.39 85.80 45.18 Z" />
</g>
<g id="#f8b858ff">
<path fill="#f8b858" opacity="1.00" d=" M 50.57 52.99 C 54.52 49.42 58.42 45.78 62.61 42.49 C 64.17 43.98 65.67 45.52 67.18 47.06 C 62.56 50.43 57.99 53.93 54.01 58.06 C 54.00 56.37 54.04 54.69 53.98 53.01 C 53.13 53.00 51.42 52.99 50.57 52.99 Z" />
</g>
<g id="#5048d8ff">
<path fill="#5048d8" opacity="1.00" d=" M 17.29 59.30 C 18.13 53.43 22.40 48.06 28.03 46.16 C 29.37 46.37 30.70 46.59 32.04 46.80 C 32.04 47.29 32.05 48.27 32.06 48.76 C 26.85 50.30 22.10 54.22 21.12 59.79 C 19.84 59.63 18.57 59.46 17.29 59.30 Z" />
</g>
<g id="#f8a450ff">
<path fill="#f8a450" opacity="1.00" d=" M 54.01 58.06 C 57.99 53.93 62.56 50.43 67.18 47.06 C 68.35 48.28 69.91 49.31 70.40 51.03 C 69.72 54.07 66.20 52.66 64.01 53.02 C 63.96 54.52 64.01 56.03 63.97 57.54 C 60.64 60.16 57.23 62.67 54.01 65.43 C 54.04 62.97 53.96 60.51 54.01 58.06 Z" />
</g>
<g id="#3840d0ff">
<path fill="#3840d0" opacity="1.00" d=" M 99.53 55.13 C 101.27 58.92 101.41 63.35 100.08 67.29 C 98.51 67.75 96.91 68.06 95.33 68.46 C 97.22 64.99 97.43 60.81 96.09 57.12 C 97.22 56.43 98.37 55.77 99.53 55.13 Z" />
</g>
<g id="#f89040ff">
<path fill="#f89040" opacity="1.00" d=" M 54.01 65.43 C 57.23 62.67 60.64 60.16 63.97 57.54 C 63.47 60.50 65.22 64.59 62.82 66.83 C 60.03 66.55 55.65 68.41 54.01 65.43 Z" />
</g>
<g id="#3040d0ff">
<path fill="#3040d0" opacity="1.00" d=" M 17.14 59.29 L 17.29 59.30 C 18.57 59.46 19.84 59.63 21.12 59.79 C 20.62 63.68 21.72 67.69 24.26 70.69 C 22.67 70.56 21.06 70.61 19.47 70.56 L 19.36 70.54 C 17.42 67.16 16.68 63.15 17.14 59.29 Z" />
</g>
<g id="#1834c8ff">
<path fill="#1834c8" opacity="1.00" d=" M 95.33 68.46 C 96.91 68.06 98.51 67.75 100.08 67.29 C 97.99 74.10 91.15 79.03 84.04 78.93 C 70.52 78.83 56.96 79.26 43.46 78.71 C 43.59 77.50 43.63 76.28 43.60 75.07 C 57.11 74.89 70.62 75.08 84.13 74.97 C 88.72 74.99 92.95 72.30 95.33 68.46 Z" />
<path fill="#1834c8" opacity="1.00" d=" M 19.47 70.56 C 21.06 70.61 22.67 70.56 24.26 70.69 C 27.78 74.62 33.21 75.34 38.20 75.09 C 37.93 76.31 37.96 77.52 38.28 78.72 C 31.15 80.01 22.97 77.19 19.47 70.56 Z" />
</g>
<g id="#40b4c8ff">
<path fill="#40b4c8" opacity="1.00" d=" M 38.20 75.09 C 39.82 73.71 41.99 73.64 43.60 75.07 C 43.63 76.28 43.59 77.50 43.46 78.71 C 42.06 80.21 39.71 80.12 38.28 78.72 C 37.96 77.52 37.93 76.31 38.20 75.09 Z" />
</g>
</svg>
