<?xml version="1.0" encoding="UTF-8" ?>
<!DOCTYPE svg PUBLIC "-//W3C//DTD SVG 1.1//EN" "http://www.w3.org/Graphics/SVG/1.1/DTD/svg11.dtd">
<svg width="117px" height="140px" viewBox="0 0 117 140" version="1.1" xmlns="http://www.w3.org/2000/svg">
<g id="#384450ff">
<path fill="#384450" opacity="1.00" d=" M 0.00 0.00 L 117.00 0.00 L 117.00 140.00 L 0.00 140.00 L 0.00 0.00 M 41.22 53.16 C 38.99 54.29 38.56 57.76 40.55 59.32 C 42.20 61.13 45.31 60.73 46.50 58.61 C 49.15 55.54 44.36 50.62 41.22 53.16 M 56.43 53.55 C 54.34 55.16 54.73 58.51 56.90 59.85 C 59.77 62.11 64.18 58.37 62.71 55.13 C 61.82 52.65 58.29 51.47 56.43 53.55 M 72.39 53.40 C 70.57 54.67 70.10 57.48 71.82 59.05 C 73.75 61.86 78.49 60.10 78.68 56.92 C 79.24 53.74 74.77 51.00 72.39 53.40 Z" />
</g>
<g id="#f8fcf8ff">
<path fill="#f8fcf8" opacity="1.00" d=" M 41.22 53.16 C 44.36 50.62 49.15 55.54 46.50 58.61 C 45.31 60.73 42.20 61.13 40.55 59.32 C 38.56 57.76 38.99 54.29 41.22 53.16 Z" />
<path fill="#f8fcf8" opacity="1.00" d=" M 56.43 53.55 C 58.29 51.47 61.82 52.65 62.71 55.13 C 64.18 58.37 59.77 62.11 56.90 59.85 C 54.73 58.51 54.34 55.16 56.43 53.55 Z" />
<path fill="#f8fcf8" opacity="1.00" d=" M 72.39 53.40 C 74.77 51.00 79.24 53.74 78.68 56.92 C 78.49 60.10 73.75 61.86 71.82 59.05 C 70.10 57.48 70.57 54.67 72.39 53.40 Z" />
</g>
</svg>
