<?xml version="1.0" encoding="UTF-8" ?>
<!DOCTYPE svg PUBLIC "-//W3C//DTD SVG 1.1//EN" "http://www.w3.org/Graphics/SVG/1.1/DTD/svg11.dtd">
<svg width="50px" height="50px" viewBox="0 0 50 50" version="1.1" xmlns="http://www.w3.org/2000/svg">
<g id="#000000ff">
<path fill="#000000" opacity="1.00" d=" M 0.00 0.00 L 11.16 0.00 C 11.01 5.89 11.13 11.78 11.10 17.67 C 8.76 17.65 6.42 17.72 4.09 17.71 C 4.45 22.52 3.65 27.44 4.54 32.19 C 7.20 34.82 11.32 33.32 14.65 33.68 C 17.52 36.61 20.46 39.47 23.39 42.34 C 19.71 42.31 16.03 42.32 12.35 42.34 C 12.37 44.89 12.38 47.45 12.35 50.00 L 0.00 50.00 L 0.00 0.00 Z" />
<path fill="#000000" opacity="1.00" d=" M 37.74 0.00 L 50.00 0.00 L 50.00 50.00 L 36.80 50.00 C 36.66 49.50 36.37 48.49 36.23 47.99 C 29.22 47.22 22.10 47.95 15.05 47.63 C 15.03 47.01 15.00 45.75 14.98 45.13 C 18.57 44.98 22.17 44.93 25.76 45.07 C 25.79 44.34 25.83 42.89 25.85 42.16 C 28.68 39.33 31.54 36.52 34.36 33.68 C 37.68 33.32 41.83 34.83 44.46 32.17 C 45.35 27.43 44.55 22.51 44.91 17.71 C 42.57 17.72 40.24 17.65 37.90 17.67 C 37.79 11.78 38.14 5.88 37.74 0.00 Z" />
<path fill="#000000" opacity="1.00" d=" M 13.77 2.96 C 20.92 3.07 28.08 2.90 35.23 2.97 C 35.23 8.73 35.36 14.50 35.14 20.26 C 37.43 20.33 39.72 20.31 42.01 20.39 C 41.90 23.90 41.92 27.41 41.95 30.93 C 30.34 31.08 18.73 30.91 7.12 31.06 C 7.03 27.50 7.11 23.94 6.99 20.38 C 13.73 20.24 20.48 20.36 27.22 20.32 C 27.22 19.66 27.22 18.34 27.22 17.68 C 22.72 17.68 18.23 17.66 13.73 17.70 C 13.74 15.90 13.75 14.10 13.75 12.31 C 18.24 12.33 22.73 12.32 27.22 12.32 C 27.22 11.66 27.22 10.34 27.22 9.68 C 22.72 9.68 18.23 9.66 13.73 9.70 C 13.74 7.45 13.75 5.21 13.77 2.96 M 22.73 23.50 C 26.03 24.14 23.15 28.17 25.15 29.99 C 25.98 27.32 25.60 24.49 25.60 21.74 C 24.59 22.24 23.70 22.93 22.73 23.50 Z" />
<path fill="#000000" opacity="1.00" d=" M 18.19 33.73 C 22.39 33.64 26.60 33.64 30.81 33.73 C 28.66 35.72 26.54 37.74 24.49 39.83 C 22.45 37.73 20.34 35.71 18.19 33.73 Z" />
</g>
<g id="#f8fbf8ff">
<path fill="#f8fbf8" opacity="1.00" d=" M 11.16 0.00 L 37.74 0.00 C 38.14 5.88 37.79 11.78 37.90 17.67 C 40.24 17.65 42.57 17.72 44.91 17.71 C 44.55 22.51 45.35 27.43 44.46 32.17 C 41.83 34.83 37.68 33.32 34.36 33.68 C 31.54 36.52 28.68 39.33 25.85 42.16 C 25.83 42.89 25.79 44.34 25.76 45.07 C 22.17 44.93 18.57 44.98 14.98 45.13 C 15.00 45.75 15.03 47.01 15.05 47.63 C 22.10 47.95 29.22 47.22 36.23 47.99 C 36.37 48.49 36.66 49.50 36.80 50.00 L 12.35 50.00 C 12.38 47.45 12.37 44.89 12.35 42.34 C 16.03 42.32 19.71 42.31 23.39 42.34 C 20.46 39.47 17.52 36.61 14.65 33.68 C 11.32 33.32 7.20 34.82 4.54 32.19 C 3.65 27.44 4.45 22.52 4.09 17.71 C 6.42 17.72 8.76 17.65 11.10 17.67 C 11.13 11.78 11.01 5.89 11.16 0.00 M 13.77 2.96 C 13.75 5.21 13.74 7.45 13.73 9.70 C 18.23 9.66 22.72 9.68 27.22 9.68 C 27.22 10.34 27.22 11.66 27.22 12.32 C 22.73 12.32 18.24 12.33 13.75 12.31 C 13.75 14.10 13.74 15.90 13.73 17.70 C 18.23 17.66 22.72 17.68 27.22 17.68 C 27.22 18.34 27.22 19.66 27.22 20.32 C 20.48 20.36 13.73 20.24 6.99 20.38 C 7.11 23.94 7.03 27.50 7.12 31.06 C 18.73 30.91 30.34 31.08 41.95 30.93 C 41.92 27.41 41.90 23.90 42.01 20.39 C 39.72 20.31 37.43 20.33 35.14 20.26 C 35.36 14.50 35.23 8.73 35.23 2.97 C 28.08 2.90 20.92 3.07 13.77 2.96 M 18.19 33.73 C 20.34 35.71 22.45 37.73 24.49 39.83 C 26.54 37.74 28.66 35.72 30.81 33.73 C 26.60 33.64 22.39 33.64 18.19 33.73 Z" />
<path fill="#f8fbf8" opacity="1.00" d=" M 22.73 23.50 C 23.70 22.93 24.59 22.24 25.60 21.74 C 25.60 24.49 25.98 27.32 25.15 29.99 C 23.15 28.17 26.03 24.14 22.73 23.50 Z" />
</g>
</svg>
