<?xml version="1.0" encoding="UTF-8" ?>
<!DOCTYPE svg PUBLIC "-//W3C//DTD SVG 1.1//EN" "http://www.w3.org/Graphics/SVG/1.1/DTD/svg11.dtd">
<svg width="117px" height="140px" viewBox="0 0 117 140" version="1.1" xmlns="http://www.w3.org/2000/svg">
<g id="#000000ff">
<path fill="#000000" opacity="1.00" d=" M 0.00 0.00 L 117.00 0.00 L 117.00 140.00 L 0.00 140.00 L 0.00 0.00 M 33.10 10.19 C 17.87 11.80 5.14 25.62 4.99 40.97 C 5.03 60.67 4.95 80.37 5.03 100.07 C 5.71 115.66 19.35 129.31 34.95 129.96 C 50.97 130.03 67.00 130.03 83.02 129.96 C 99.01 129.33 112.93 114.98 113.00 98.97 C 112.97 79.31 113.05 59.64 112.97 39.99 C 112.33 23.99 98.01 10.11 82.00 10.00 C 65.70 10.12 49.39 9.75 33.10 10.19 Z" />
<path fill="#000000" opacity="1.00" d=" M 30.54 12.73 C 34.62 11.76 38.83 12.03 42.98 12.00 C 56.37 12.06 69.76 11.87 83.15 12.10 C 97.97 12.87 110.77 26.10 110.96 40.96 C 111.04 59.96 110.99 78.97 110.99 97.97 C 111.09 108.02 105.65 117.88 97.15 123.23 C 92.08 126.54 86.00 128.11 79.97 128.00 C 64.96 127.94 49.94 128.12 34.94 127.91 C 20.09 127.18 7.25 113.95 7.03 99.07 C 6.97 79.72 6.98 60.37 7.03 41.03 C 7.25 27.69 17.49 15.41 30.54 12.73 M 52.59 27.00 C 52.64 33.20 52.57 39.40 52.65 45.59 C 46.43 45.63 40.22 45.60 34.00 45.61 C 34.07 49.73 33.86 53.86 34.07 57.98 C 34.31 58.28 34.79 58.87 35.03 59.16 C 40.90 59.42 46.79 59.14 52.66 59.29 C 52.67 65.19 52.41 71.11 52.76 77.01 C 54.67 78.83 57.61 77.65 59.98 77.99 C 62.01 77.70 64.62 78.75 66.12 76.93 C 66.45 71.05 66.19 65.15 66.22 59.27 C 72.13 59.12 78.07 59.52 83.97 59.07 C 84.19 58.80 84.65 58.24 84.87 57.97 C 85.15 53.86 84.86 49.73 85.00 45.62 C 78.73 45.59 72.45 45.63 66.18 45.59 C 66.32 39.40 66.23 33.20 66.26 27.00 C 61.70 27.00 57.15 27.00 52.59 27.00 Z" />
<path fill="#000000" opacity="1.00" d=" M 56.04 30.23 C 58.32 30.23 60.60 30.24 62.88 30.25 C 62.80 36.52 62.84 42.79 62.84 49.06 C 69.11 49.08 75.38 49.03 81.64 49.09 C 81.62 51.33 81.63 53.56 81.66 55.80 C 75.38 55.87 69.11 55.82 62.84 55.84 C 62.84 62.10 62.80 68.35 62.88 74.61 C 60.61 74.60 58.34 74.61 56.07 74.65 C 56.04 68.38 56.08 62.11 56.06 55.84 C 49.77 55.81 43.47 55.88 37.18 55.80 C 37.21 53.56 37.22 51.33 37.21 49.10 C 43.45 49.04 49.69 49.06 55.93 49.08 C 56.22 42.80 56.01 36.51 56.04 30.23 Z" />
</g>
<g id="#6a6b6aff">
<path fill="#6a6b6a" opacity="1.00" d=" M 33.10 10.19 C 49.39 9.75 65.70 10.12 82.00 10.00 C 98.01 10.11 112.33 23.99 112.97 39.99 C 113.05 59.64 112.97 79.31 113.00 98.97 C 112.93 114.98 99.01 129.33 83.02 129.96 C 67.00 130.03 50.97 130.03 34.95 129.96 C 19.35 129.31 5.71 115.66 5.03 100.07 C 4.95 80.37 5.03 60.67 4.99 40.97 C 5.14 25.62 17.87 11.80 33.10 10.19 M 30.54 12.73 C 17.49 15.41 7.25 27.69 7.03 41.03 C 6.98 60.37 6.97 79.72 7.03 99.07 C 7.25 113.95 20.09 127.18 34.94 127.91 C 49.94 128.12 64.96 127.94 79.97 128.00 C 86.00 128.11 92.08 126.54 97.15 123.23 C 105.65 117.88 111.09 108.02 110.99 97.97 C 110.99 78.97 111.04 59.96 110.96 40.96 C 110.77 26.10 97.97 12.87 83.15 12.10 C 69.76 11.87 56.37 12.06 42.98 12.00 C 38.83 12.03 34.62 11.76 30.54 12.73 Z" />
</g>
<g id="#f8fcf8ff">
<path fill="#f8fcf8" opacity="1.00" d=" M 52.59 27.00 C 57.15 27.00 61.70 27.00 66.26 27.00 C 66.23 33.20 66.32 39.40 66.18 45.59 C 72.45 45.63 78.73 45.59 85.00 45.62 C 84.86 49.73 85.15 53.86 84.87 57.97 C 84.65 58.24 84.19 58.80 83.97 59.07 C 78.07 59.52 72.13 59.12 66.22 59.27 C 66.19 65.15 66.45 71.05 66.12 76.93 C 64.62 78.75 62.01 77.70 59.98 77.99 C 57.61 77.65 54.67 78.83 52.76 77.01 C 52.41 71.11 52.67 65.19 52.66 59.29 C 46.79 59.14 40.90 59.42 35.03 59.16 C 34.79 58.87 34.31 58.28 34.07 57.98 C 33.86 53.86 34.07 49.73 34.00 45.61 C 40.22 45.60 46.43 45.63 52.65 45.59 C 52.57 39.40 52.64 33.20 52.59 27.00 M 56.04 30.23 C 56.01 36.51 56.22 42.80 55.93 49.08 C 49.69 49.06 43.45 49.04 37.21 49.10 C 37.22 51.33 37.21 53.56 37.18 55.80 C 43.47 55.88 49.77 55.81 56.06 55.84 C 56.08 62.11 56.04 68.38 56.07 74.65 C 58.34 74.61 60.61 74.60 62.88 74.61 C 62.80 68.35 62.84 62.10 62.84 55.84 C 69.11 55.82 75.38 55.87 81.66 55.80 C 81.63 53.56 81.62 51.33 81.64 49.09 C 75.38 49.03 69.11 49.08 62.84 49.06 C 62.84 42.79 62.80 36.52 62.88 30.25 C 60.60 30.24 58.32 30.23 56.04 30.23 Z" />
</g>
</svg>
