<?xml version="1.0" encoding="UTF-8" ?>
<!DOCTYPE svg PUBLIC "-//W3C//DTD SVG 1.1//EN" "http://www.w3.org/Graphics/SVG/1.1/DTD/svg11.dtd">
<svg width="150px" height="80px" viewBox="0 0 150 80" version="1.1" xmlns="http://www.w3.org/2000/svg">
<g id="#181818ff">
<path fill="#181818" opacity="1.00" d=" M 0.00 0.00 L 150.00 0.00 L 150.00 80.00 L 0.00 80.00 L 0.00 0.00 M 17.32 14.37 C 15.55 15.18 14.87 17.16 15.01 18.99 C 14.99 33.00 14.99 47.02 15.01 61.04 C 14.55 63.89 17.06 66.50 19.94 65.99 C 54.62 66.01 89.30 65.99 123.99 66.00 C 126.69 65.99 129.42 66.17 132.11 65.82 C 134.17 65.26 135.21 63.07 134.99 61.06 C 135.01 47.03 135.01 33.00 134.99 18.98 C 135.48 16.09 132.89 13.51 130.00 14.00 C 95.01 13.99 60.02 14.01 25.03 13.99 C 22.47 14.06 19.82 13.70 17.32 14.37 Z" />
<path fill="#181818" opacity="1.00" d=" M 18.05 15.20 C 19.34 15.03 20.63 14.96 21.93 14.98 C 57.95 15.05 93.98 14.95 130.01 15.03 C 131.80 14.70 134.00 15.91 133.91 17.92 C 134.14 31.62 133.90 45.33 134.02 59.03 C 133.95 61.07 134.40 63.83 132.06 64.80 C 129.73 65.11 127.37 65.01 125.03 65.01 C 90.00 64.97 54.96 65.04 19.93 64.97 C 17.66 65.43 15.60 63.42 16.03 61.14 C 15.95 47.44 16.03 33.73 15.99 20.03 C 15.94 18.24 15.96 15.83 18.05 15.20 M 35.65 38.51 C 34.34 40.59 36.60 42.42 37.87 43.80 C 40.19 45.40 42.64 50.71 45.70 47.92 C 46.40 44.52 42.34 42.59 40.23 40.53 C 41.15 37.63 44.24 36.40 45.75 33.88 C 46.81 32.27 44.61 30.02 42.97 31.12 C 40.32 33.35 37.84 35.83 35.65 38.51 Z" />
</g>
<g id="#474ff3ff">
<path fill="#474ff3" opacity="1.00" d=" M 17.32 14.37 C 19.82 13.70 22.47 14.06 25.03 13.99 C 60.02 14.01 95.01 13.99 130.00 14.00 C 132.89 13.51 135.48 16.09 134.99 18.98 C 135.01 33.00 135.01 47.03 134.99 61.06 C 135.21 63.07 134.17 65.26 132.11 65.82 C 129.42 66.17 126.69 65.99 123.99 66.00 C 89.30 65.99 54.62 66.01 19.94 65.99 C 17.06 66.50 14.55 63.89 15.01 61.04 C 14.99 47.02 14.99 33.00 15.01 18.99 C 14.87 17.16 15.55 15.18 17.32 14.37 M 18.05 15.20 C 15.96 15.83 15.94 18.24 15.99 20.03 C 16.03 33.73 15.95 47.44 16.03 61.14 C 15.60 63.42 17.66 65.43 19.93 64.97 C 54.96 65.04 90.00 64.97 125.03 65.01 C 127.37 65.01 129.73 65.11 132.06 64.80 C 134.40 63.83 133.95 61.07 134.02 59.03 C 133.90 45.33 134.14 31.62 133.91 17.92 C 134.00 15.91 131.80 14.70 130.01 15.03 C 93.98 14.95 57.95 15.05 21.93 14.98 C 20.63 14.96 19.34 15.03 18.05 15.20 Z" />
</g>
<g id="#f8bc60ff">
<path fill="#f8bc60" opacity="1.00" d=" M 35.65 38.51 C 37.84 35.83 40.32 33.35 42.97 31.12 C 44.61 30.02 46.81 32.27 45.75 33.88 C 44.24 36.40 41.15 37.63 40.23 40.53 C 39.48 41.64 38.69 42.73 37.87 43.80 C 36.60 42.42 34.34 40.59 35.65 38.51 Z" />
</g>
<g id="#f89c48ff">
<path fill="#f89c48" opacity="1.00" d=" M 40.23 40.53 C 42.34 42.59 46.40 44.52 45.70 47.92 C 42.64 50.71 40.19 45.40 37.87 43.80 C 38.69 42.73 39.48 41.64 40.23 40.53 Z" />
</g>
</svg>
