<?xml version="1.0" encoding="UTF-8" ?>
<!DOCTYPE svg PUBLIC "-//W3C//DTD SVG 1.1//EN" "http://www.w3.org/Graphics/SVG/1.1/DTD/svg11.dtd">
<svg width="117px" height="140px" viewBox="0 0 117 140" version="1.1" xmlns="http://www.w3.org/2000/svg">
<g id="#000000ff">
<path fill="#000000" opacity="1.00" d=" M 0.00 0.00 L 117.00 0.00 L 117.00 140.00 L 0.00 140.00 L 0.00 0.00 M 33.12 10.25 C 17.92 11.81 5.23 25.61 5.03 40.91 C 4.95 59.95 5.02 78.99 5.00 98.03 C 4.93 108.35 10.29 118.46 18.79 124.29 C 24.37 128.21 31.21 130.16 38.01 130.02 C 53.03 129.92 68.05 130.15 83.06 129.90 C 99.38 129.27 113.37 114.33 112.99 98.02 C 113.01 79.33 113.01 60.65 112.99 41.97 C 113.05 32.84 108.90 23.84 101.99 17.88 C 95.75 12.33 87.30 9.64 79.00 9.98 C 63.71 10.19 48.40 9.65 33.12 10.25 Z" />
<path fill="#000000" opacity="1.00" d=" M 30.50 12.68 C 35.28 11.69 40.19 12.07 45.04 12.00 C 57.70 12.06 70.38 11.87 83.04 12.10 C 97.89 12.70 110.86 26.05 110.95 40.93 C 111.05 59.98 110.99 79.03 110.98 98.07 C 111.18 109.36 104.16 120.26 93.99 125.05 C 89.38 127.41 84.15 128.09 79.02 128.01 C 64.33 127.93 49.64 128.14 34.95 127.90 C 20.08 127.29 7.12 113.92 7.04 99.03 C 6.97 79.67 6.97 60.31 7.04 40.95 C 7.18 27.62 17.51 15.40 30.50 12.68 M 49.85 27.75 C 49.82 37.40 49.84 47.06 49.84 56.71 C 46.86 59.36 44.47 62.92 44.55 67.07 C 44.03 73.95 49.96 80.70 56.99 80.46 C 65.10 80.79 71.55 71.73 69.09 64.14 C 68.42 61.12 66.30 58.79 64.16 56.70 C 64.03 47.12 64.44 37.52 63.97 27.95 C 59.32 27.07 54.54 27.65 49.85 27.75 M 68.37 44.02 C 67.93 44.58 67.05 45.70 66.62 46.25 C 68.28 48.34 72.80 49.19 73.62 46.02 C 73.20 43.35 70.27 44.35 68.37 44.02 M 68.40 50.94 C 68.00 51.46 67.20 52.49 66.81 53.01 C 67.20 53.50 68.00 54.49 68.40 54.99 C 69.83 54.90 71.26 54.87 72.69 54.69 C 73.72 53.57 73.75 52.44 72.76 51.29 C 71.32 51.08 69.85 51.02 68.40 50.94 Z" />
<path fill="#000000" opacity="1.00" d=" M 53.48 31.21 C 55.82 31.26 58.17 31.27 60.52 31.21 C 60.28 40.36 60.50 49.52 60.40 58.67 C 66.53 61.65 67.80 71.16 62.06 75.12 C 57.63 78.46 50.34 76.29 48.82 70.86 C 46.94 66.28 49.38 60.98 53.60 58.69 C 53.51 49.53 53.71 40.37 53.48 31.21 M 54.99 44.00 C 54.93 49.33 55.32 54.66 55.02 59.98 C 53.15 61.77 50.30 63.12 49.95 65.97 C 48.61 71.16 54.53 76.86 59.61 74.51 C 62.21 72.97 64.64 70.26 64.18 67.00 C 64.33 63.64 61.14 61.91 58.97 59.97 C 58.69 54.65 59.06 49.32 59.01 44.00 C 57.67 44.00 56.33 44.00 54.99 44.00 Z" />
</g>
<g id="#747474ff">
<path fill="#747474" opacity="1.00" d=" M 33.12 10.25 C 48.40 9.65 63.71 10.19 79.00 9.98 C 87.30 9.64 95.75 12.33 101.99 17.88 C 108.90 23.84 113.05 32.84 112.99 41.97 C 113.01 60.65 113.01 79.33 112.99 98.02 C 113.37 114.33 99.38 129.27 83.06 129.90 C 68.05 130.15 53.03 129.92 38.01 130.02 C 31.21 130.16 24.37 128.21 18.79 124.29 C 10.29 118.46 4.93 108.35 5.00 98.03 C 5.02 78.99 4.95 59.95 5.03 40.91 C 5.23 25.61 17.92 11.81 33.12 10.25 M 30.50 12.68 C 17.51 15.40 7.18 27.62 7.04 40.95 C 6.97 60.31 6.97 79.67 7.04 99.03 C 7.12 113.92 20.08 127.29 34.95 127.90 C 49.64 128.14 64.33 127.93 79.02 128.01 C 84.15 128.09 89.38 127.41 93.99 125.05 C 104.16 120.26 111.18 109.36 110.98 98.07 C 110.99 79.03 111.05 59.98 110.95 40.93 C 110.86 26.05 97.89 12.70 83.04 12.10 C 70.38 11.87 57.70 12.06 45.04 12.00 C 40.19 12.07 35.28 11.69 30.50 12.68 Z" />
</g>
<g id="#f8fcf8ff">
<path fill="#f8fcf8" opacity="1.00" d=" M 49.85 27.75 C 54.54 27.65 59.32 27.07 63.97 27.95 C 64.44 37.52 64.03 47.12 64.16 56.70 C 66.30 58.79 68.42 61.12 69.09 64.14 C 71.55 71.73 65.10 80.79 56.99 80.46 C 49.96 80.70 44.03 73.95 44.55 67.07 C 44.47 62.92 46.86 59.36 49.84 56.71 C 49.84 47.06 49.82 37.40 49.85 27.75 M 53.48 31.21 C 53.71 40.37 53.51 49.53 53.60 58.69 C 49.38 60.98 46.94 66.28 48.82 70.86 C 50.34 76.29 57.63 78.46 62.06 75.12 C 67.80 71.16 66.53 61.65 60.40 58.67 C 60.50 49.52 60.28 40.36 60.52 31.21 C 58.17 31.27 55.82 31.26 53.48 31.21 Z" />
<path fill="#f8fcf8" opacity="1.00" d=" M 54.99 44.00 C 56.33 44.00 57.67 44.00 59.01 44.00 C 59.06 49.32 58.69 54.65 58.97 59.97 C 61.14 61.91 64.33 63.64 64.18 67.00 C 64.64 70.26 62.21 72.97 59.61 74.51 C 54.53 76.86 48.61 71.16 49.95 65.97 C 50.30 63.12 53.15 61.77 55.02 59.98 C 55.32 54.66 54.93 49.33 54.99 44.00 Z" />
<path fill="#f8fcf8" opacity="1.00" d=" M 68.37 44.02 C 70.27 44.35 73.20 43.35 73.62 46.02 C 72.80 49.19 68.28 48.34 66.62 46.25 C 67.05 45.70 67.93 44.58 68.37 44.02 Z" />
<path fill="#f8fcf8" opacity="1.00" d=" M 68.40 50.94 C 69.85 51.02 71.32 51.08 72.76 51.29 C 73.75 52.44 73.72 53.57 72.69 54.69 C 71.26 54.87 69.83 54.90 68.40 54.99 C 68.00 54.49 67.20 53.50 66.81 53.01 C 67.20 52.49 68.00 51.46 68.40 50.94 Z" />
</g>
</svg>
