<?xml version="1.0" encoding="UTF-8" ?>
<!DOCTYPE svg PUBLIC "-//W3C//DTD SVG 1.1//EN" "http://www.w3.org/Graphics/SVG/1.1/DTD/svg11.dtd">
<svg width="117px" height="140px" viewBox="0 0 117 140" version="1.1" xmlns="http://www.w3.org/2000/svg">
<g id="#000000ff">
<path fill="#000000" opacity="1.00" d=" M 0.00 0.00 L 117.00 0.00 L 117.00 140.00 L 0.00 140.00 L 0.00 0.00 M 33.18 10.23 C 17.95 11.78 5.23 25.59 5.03 40.92 C 4.98 60.30 4.98 79.69 5.02 99.07 C 5.20 115.01 18.99 129.25 34.92 129.92 C 50.63 130.08 66.36 130.00 82.07 129.96 C 98.37 129.82 112.83 115.37 112.97 99.08 C 113.04 80.02 112.98 60.96 113.00 41.91 C 113.03 33.31 109.34 24.79 103.09 18.89 C 97.00 12.96 88.46 9.77 79.98 9.98 C 64.38 10.17 48.77 9.69 33.18 10.23 Z" />
<path fill="#000000" opacity="1.00" d=" M 33.25 12.34 C 48.83 11.73 64.46 12.24 80.05 12.07 C 87.98 11.86 95.88 14.85 101.63 20.31 C 107.42 25.89 111.00 33.82 110.90 41.90 C 110.95 60.62 110.95 79.35 110.90 98.07 C 111.02 108.79 104.76 119.29 95.27 124.27 C 90.37 127.08 84.64 128.05 79.04 127.94 C 64.33 127.84 49.60 128.09 34.89 127.82 C 20.10 127.14 7.26 113.90 7.13 99.08 C 7.03 79.71 7.03 60.33 7.13 40.96 C 7.28 26.72 19.09 13.80 33.25 12.34 M 60.30 28.76 C 60.09 33.03 60.27 37.31 60.08 41.58 C 55.03 42.41 50.60 46.13 49.90 51.36 C 45.54 51.40 41.08 50.69 36.78 51.61 C 41.05 51.87 45.34 51.68 49.62 51.87 C 50.25 57.01 53.89 61.89 59.33 62.45 C 59.50 66.50 59.40 70.54 59.42 74.59 C 69.17 77.23 79.08 70.58 82.87 61.76 C 84.17 58.40 85.53 54.40 84.19 50.88 C 80.02 49.81 75.47 50.79 71.16 50.44 C 69.98 45.62 65.66 41.94 60.65 41.80 C 60.61 37.46 61.29 33.04 60.30 28.76 Z" />
<path fill="#000000" opacity="1.00" d=" M 58.11 43.18 C 63.69 41.61 70.32 45.92 70.10 51.96 C 70.52 58.12 63.82 62.99 58.03 61.14 C 52.46 59.99 49.42 53.27 51.89 48.25 C 53.38 46.01 55.41 43.83 58.11 43.18 Z" />
</g>
<g id="#737473ff">
<path fill="#737473" opacity="1.00" d=" M 33.18 10.23 C 48.77 9.69 64.38 10.17 79.98 9.98 C 88.46 9.77 97.00 12.96 103.09 18.89 C 109.34 24.79 113.03 33.31 113.00 41.91 C 112.98 60.96 113.04 80.02 112.97 99.08 C 112.83 115.37 98.37 129.82 82.07 129.96 C 66.36 130.00 50.63 130.08 34.92 129.92 C 18.99 129.25 5.20 115.01 5.02 99.07 C 4.98 79.69 4.98 60.30 5.03 40.92 C 5.23 25.59 17.95 11.78 33.18 10.23 M 33.25 12.34 C 19.09 13.80 7.28 26.72 7.13 40.96 C 7.03 60.33 7.03 79.71 7.13 99.08 C 7.26 113.90 20.10 127.14 34.89 127.82 C 49.60 128.09 64.33 127.84 79.04 127.94 C 84.64 128.05 90.37 127.08 95.27 124.27 C 104.76 119.29 111.02 108.79 110.90 98.07 C 110.95 79.35 110.95 60.62 110.90 41.90 C 111.00 33.82 107.42 25.89 101.63 20.31 C 95.88 14.85 87.98 11.86 80.05 12.07 C 64.46 12.24 48.83 11.73 33.25 12.34 Z" />
</g>
<g id="#f8fcf8ff">
<path fill="#f8fcf8" opacity="1.00" d=" M 60.30 28.76 C 61.29 33.04 60.61 37.46 60.65 41.80 C 65.66 41.94 69.98 45.62 71.16 50.44 C 75.47 50.79 80.02 49.81 84.19 50.88 C 85.53 54.40 84.17 58.40 82.87 61.76 C 79.08 70.58 69.17 77.23 59.42 74.59 C 59.40 70.54 59.50 66.50 59.33 62.45 C 53.89 61.89 50.25 57.01 49.62 51.87 C 45.34 51.68 41.05 51.87 36.78 51.61 C 41.08 50.69 45.54 51.40 49.90 51.36 C 50.60 46.13 55.03 42.41 60.08 41.58 C 60.27 37.31 60.09 33.03 60.30 28.76 M 58.11 43.18 C 55.41 43.83 53.38 46.01 51.89 48.25 C 49.42 53.27 52.46 59.99 58.03 61.14 C 63.82 62.99 70.52 58.12 70.10 51.96 C 70.32 45.92 63.69 41.61 58.11 43.18 Z" />
</g>
</svg>
