<?xml version="1.0" encoding="UTF-8" ?>
<!DOCTYPE svg PUBLIC "-//W3C//DTD SVG 1.1//EN" "http://www.w3.org/Graphics/SVG/1.1/DTD/svg11.dtd">
<svg width="10px" height="17px" viewBox="0 0 10 17" version="1.1" xmlns="http://www.w3.org/2000/svg">
<g id="#181818ff">
<path fill="#181818" opacity="1.00" d=" M 0.00 0.00 L 10.00 0.00 L 10.00 17.00 L 1.08 17.00 C 3.78 14.36 6.75 11.93 9.03 8.91 L 9.02 8.04 C 6.38 5.12 3.87 1.42 0.01 0.19 C 1.47 3.66 4.74 5.77 7.19 8.47 C 4.76 10.90 2.30 13.31 0.00 15.86 L 0.00 0.00 Z" />
</g>
<g id="#939493ff">
<path fill="#939493" opacity="1.00" d=" M 0.01 0.19 C 3.87 1.42 6.38 5.12 9.02 8.04 L 9.03 8.91 C 6.75 11.93 3.78 14.36 1.08 17.00 L 0.00 17.00 L 0.00 15.86 C 2.30 13.31 4.76 10.90 7.19 8.47 C 4.74 5.77 1.47 3.66 0.01 0.19 Z" />
</g>
</svg>
