<?xml version="1.0" encoding="UTF-8" ?>
<!DOCTYPE svg PUBLIC "-//W3C//DTD SVG 1.1//EN" "http://www.w3.org/Graphics/SVG/1.1/DTD/svg11.dtd">
<svg width="117px" height="140px" viewBox="0 0 117 140" version="1.1" xmlns="http://www.w3.org/2000/svg">
<g id="#000000ff">
<path fill="#000000" opacity="1.00" d=" M 0.00 0.00 L 117.00 0.00 L 117.00 140.00 L 0.00 140.00 L 0.00 0.00 M 33.18 10.23 C 17.96 11.78 5.24 25.57 5.03 40.89 C 4.98 60.28 4.98 79.67 5.03 99.06 C 5.18 115.37 19.62 129.81 35.92 129.97 C 51.65 129.99 67.38 130.10 83.10 129.91 C 99.02 129.24 112.84 114.97 112.97 99.03 C 113.05 80.00 112.99 60.97 113.00 41.94 C 113.04 33.34 109.36 24.83 103.13 18.92 C 97.02 12.96 88.45 9.76 79.94 9.98 C 64.36 10.17 48.75 9.68 33.18 10.23 Z" />
<path fill="#000000" opacity="1.00" d=" M 30.51 12.68 C 34.94 11.72 39.50 12.05 44.00 12.00 C 57.02 12.06 70.04 11.88 83.06 12.09 C 97.92 12.73 110.86 26.06 110.96 40.95 C 111.05 59.64 110.97 78.34 111.00 97.03 C 111.57 109.16 103.88 121.05 92.66 125.65 C 88.71 127.42 84.36 128.01 80.06 128.00 C 65.38 127.98 50.69 128.04 36.01 127.97 C 19.96 127.91 6.03 112.97 6.99 96.95 C 7.03 78.28 6.95 59.61 7.03 40.94 C 7.21 27.61 17.51 15.40 30.51 12.68 M 40.79 45.10 C 41.61 46.19 42.55 47.18 43.43 48.22 C 46.46 46.82 49.54 45.29 52.91 45.02 C 57.70 44.61 62.42 46.55 66.15 49.44 C 68.22 46.90 69.96 44.10 71.49 41.20 C 66.49 36.90 59.25 37.12 53.05 37.77 C 48.46 38.97 43.58 41.12 40.79 45.10 M 67.17 51.03 C 70.63 54.31 71.32 59.07 71.95 63.55 C 75.68 63.59 79.41 63.58 83.14 63.57 C 84.34 55.01 79.48 46.80 72.89 41.72 C 71.11 44.90 69.24 48.03 67.17 51.03 M 38.53 47.37 C 36.21 50.77 34.45 54.64 33.81 58.73 C 34.72 59.15 35.62 59.56 36.53 59.98 C 38.04 56.68 38.59 51.62 42.53 50.48 C 42.40 49.95 42.14 48.88 42.01 48.34 C 41.02 47.94 39.44 45.87 38.53 47.37 M 42.68 51.09 C 46.60 55.26 49.32 60.42 52.95 64.78 C 54.06 64.07 55.12 62.84 56.23 61.95 C 51.90 57.90 47.62 53.78 43.80 49.25 C 43.43 49.86 43.05 50.47 42.68 51.09 M 56.45 64.47 C 53.30 65.63 54.85 70.68 57.95 70.15 C 59.76 70.19 60.27 68.32 60.87 66.99 C 60.17 65.30 58.43 63.36 56.45 64.47 Z" />
<path fill="#000000" opacity="1.00" d=" M 54.79 41.26 C 56.61 40.71 58.52 40.67 60.39 40.83 C 59.03 42.84 56.67 41.57 54.79 41.26 Z" />
<path fill="#000000" opacity="1.00" d=" M 62.81 41.10 C 64.20 41.45 65.59 41.80 66.99 42.14 C 66.38 42.98 65.78 43.82 65.18 44.66 C 63.88 43.82 62.57 42.87 62.81 41.10 Z" />
<path fill="#000000" opacity="1.00" d=" M 73.50 46.96 C 75.20 47.08 73.94 49.47 72.90 49.71 C 71.48 49.54 72.48 47.16 73.50 46.96 Z" />
<path fill="#000000" opacity="1.00" d=" M 76.42 50.31 C 76.99 51.44 77.56 52.56 78.13 53.69 C 76.88 54.28 75.65 54.89 74.41 55.52 C 73.87 54.79 73.33 54.06 72.80 53.32 C 74.01 52.32 75.21 51.31 76.42 50.31 Z" />
<path fill="#000000" opacity="1.00" d=" M 74.23 59.94 C 75.66 58.63 77.39 57.72 79.07 56.77 C 79.29 57.85 79.52 58.93 79.74 60.01 C 77.90 60.01 76.06 60.00 74.23 59.94 Z" />
</g>
<g id="#737473ff">
<path fill="#737473" opacity="1.00" d=" M 33.18 10.23 C 48.75 9.68 64.36 10.17 79.94 9.98 C 88.45 9.76 97.02 12.96 103.13 18.92 C 109.36 24.83 113.04 33.34 113.00 41.94 C 112.99 60.97 113.05 80.00 112.97 99.03 C 112.84 114.97 99.02 129.24 83.10 129.91 C 67.38 130.10 51.65 129.99 35.92 129.97 C 19.62 129.81 5.18 115.37 5.03 99.06 C 4.98 79.67 4.98 60.28 5.03 40.89 C 5.24 25.57 17.96 11.78 33.18 10.23 M 30.51 12.68 C 17.51 15.40 7.21 27.61 7.03 40.94 C 6.95 59.61 7.03 78.28 6.99 96.95 C 6.03 112.97 19.96 127.91 36.01 127.97 C 50.69 128.04 65.38 127.98 80.06 128.00 C 84.36 128.01 88.71 127.42 92.66 125.65 C 103.88 121.05 111.57 109.16 111.00 97.03 C 110.97 78.34 111.05 59.64 110.96 40.95 C 110.86 26.06 97.92 12.73 83.06 12.09 C 70.04 11.88 57.02 12.06 44.00 12.00 C 39.50 12.05 34.94 11.72 30.51 12.68 Z" />
</g>
<g id="#f8fcf8ff">
<path fill="#f8fcf8" opacity="1.00" d=" M 40.79 45.10 C 43.58 41.12 48.46 38.97 53.05 37.77 C 59.25 37.12 66.49 36.90 71.49 41.20 C 69.96 44.10 68.22 46.90 66.15 49.44 C 62.42 46.55 57.70 44.61 52.91 45.02 C 49.54 45.29 46.46 46.82 43.43 48.22 C 42.55 47.18 41.61 46.19 40.79 45.10 M 54.79 41.26 C 56.67 41.57 59.03 42.84 60.39 40.83 C 58.52 40.67 56.61 40.71 54.79 41.26 M 62.81 41.10 C 62.57 42.87 63.88 43.82 65.18 44.66 C 65.78 43.82 66.38 42.98 66.99 42.14 C 65.59 41.80 64.20 41.45 62.81 41.10 Z" />
<path fill="#f8fcf8" opacity="1.00" d=" M 67.17 51.03 C 69.24 48.03 71.11 44.90 72.89 41.72 C 79.48 46.80 84.34 55.01 83.14 63.57 C 79.41 63.58 75.68 63.59 71.95 63.55 C 71.32 59.07 70.63 54.31 67.17 51.03 M 73.50 46.96 C 72.48 47.16 71.48 49.54 72.90 49.71 C 73.94 49.47 75.20 47.08 73.50 46.96 M 76.42 50.31 C 75.21 51.31 74.01 52.32 72.80 53.32 C 73.33 54.06 73.87 54.79 74.41 55.52 C 75.65 54.89 76.88 54.28 78.13 53.69 C 77.56 52.56 76.99 51.44 76.42 50.31 M 74.23 59.94 C 76.06 60.00 77.90 60.01 79.74 60.01 C 79.52 58.93 79.29 57.85 79.07 56.77 C 77.39 57.72 75.66 58.63 74.23 59.94 Z" />
<path fill="#f8fcf8" opacity="1.00" d=" M 38.53 47.37 C 39.44 45.87 41.02 47.94 42.01 48.34 C 42.14 48.88 42.40 49.95 42.53 50.48 C 38.59 51.62 38.04 56.68 36.53 59.98 C 35.62 59.56 34.72 59.15 33.81 58.73 C 34.45 54.64 36.21 50.77 38.53 47.37 Z" />
<path fill="#f8fcf8" opacity="1.00" d=" M 42.68 51.09 C 43.05 50.47 43.43 49.86 43.80 49.25 C 47.62 53.78 51.90 57.90 56.23 61.95 C 55.12 62.84 54.06 64.07 52.95 64.78 C 49.32 60.42 46.60 55.26 42.68 51.09 Z" />
<path fill="#f8fcf8" opacity="1.00" d=" M 56.45 64.47 C 58.43 63.36 60.17 65.30 60.87 66.99 C 60.27 68.32 59.76 70.19 57.95 70.15 C 54.85 70.68 53.30 65.63 56.45 64.47 Z" />
</g>
</svg>
