<?xml version="1.0" encoding="UTF-8" ?>
<!DOCTYPE svg PUBLIC "-//W3C//DTD SVG 1.1//EN" "http://www.w3.org/Graphics/SVG/1.1/DTD/svg11.dtd">
<svg width="45px" height="45px" viewBox="0 0 45 45" version="1.1" xmlns="http://www.w3.org/2000/svg">
<g id="#000000ff">
<path fill="#000000" opacity="1.00" d=" M 0.00 0.00 L 45.00 0.00 L 45.00 45.00 L 0.00 45.00 L 0.00 0.00 M 16.83 6.30 C 16.80 9.93 16.81 13.57 16.81 17.21 C 14.80 17.22 12.80 17.22 10.80 17.22 C 10.80 18.75 10.81 20.29 10.81 21.82 C 12.70 21.80 14.59 21.79 16.48 21.76 C 16.28 25.64 18.96 28.37 21.38 31.01 C 21.41 32.19 21.58 33.37 21.76 34.54 L 24.50 33.29 L 23.27 32.30 C 25.88 29.32 29.51 26.56 29.40 22.18 C 31.20 22.22 33.00 22.24 34.80 22.28 C 34.94 20.59 35.07 18.90 35.19 17.21 C 33.19 17.22 31.19 17.24 29.20 17.27 C 29.19 13.60 29.20 9.93 28.77 6.28 C 24.79 6.31 20.81 6.29 16.83 6.30 M 17.45 34.04 C 17.40 34.70 17.32 36.02 17.27 36.69 L 17.95 36.83 C 18.59 35.75 18.42 34.82 17.45 34.04 Z" />
<path fill="#000000" opacity="1.00" d=" M 18.29 8.68 C 20.42 8.70 22.55 8.70 24.68 8.68 C 24.95 8.96 25.48 9.54 25.75 9.82 C 23.20 9.94 20.66 10.08 18.11 10.16 C 18.16 9.79 18.24 9.05 18.29 8.68 Z" />
<path fill="#000000" opacity="1.00" d=" M 17.02 12.02 C 19.09 11.15 21.35 11.36 23.53 11.52 C 21.66 13.03 19.16 12.39 17.02 12.02 Z" />
</g>
<g id="#f8fcf8ff">
<path fill="#f8fcf8" opacity="1.00" d=" M 16.83 6.30 C 20.81 6.29 24.79 6.31 28.77 6.28 C 29.20 9.93 29.19 13.60 29.20 17.27 C 31.19 17.24 33.19 17.22 35.19 17.21 C 35.07 18.90 34.94 20.59 34.80 22.28 C 33.00 22.24 31.20 22.22 29.40 22.18 C 29.51 26.56 25.88 29.32 23.27 32.30 L 24.50 33.29 L 21.76 34.54 C 21.58 33.37 21.41 32.19 21.38 31.01 C 18.96 28.37 16.28 25.64 16.48 21.76 C 14.59 21.79 12.70 21.80 10.81 21.82 C 10.81 20.29 10.80 18.75 10.80 17.22 C 12.80 17.22 14.80 17.22 16.81 17.21 C 16.81 13.57 16.80 9.93 16.83 6.30 M 18.29 8.68 C 18.24 9.05 18.16 9.79 18.11 10.16 C 20.66 10.08 23.20 9.94 25.75 9.82 C 25.48 9.54 24.95 8.96 24.68 8.68 C 22.55 8.70 20.42 8.70 18.29 8.68 M 17.02 12.02 C 19.16 12.39 21.66 13.03 23.53 11.52 C 21.35 11.36 19.09 11.15 17.02 12.02 Z" />
<path fill="#f8fcf8" opacity="1.00" d=" M 17.45 34.04 C 18.42 34.82 18.59 35.75 17.95 36.83 L 17.27 36.69 C 17.32 36.02 17.40 34.70 17.45 34.04 Z" />
</g>
</svg>
