<?xml version="1.0" encoding="UTF-8" ?>
<!DOCTYPE svg PUBLIC "-//W3C//DTD SVG 1.1//EN" "http://www.w3.org/Graphics/SVG/1.1/DTD/svg11.dtd">
<svg width="117px" height="140px" viewBox="0 0 117 140" version="1.1" xmlns="http://www.w3.org/2000/svg">
<g id="#000000ff">
<path fill="#000000" opacity="1.00" d=" M 0.00 0.00 L 117.00 0.00 L 117.00 140.00 L 0.00 140.00 L 0.00 0.00 M 26.09 12.13 C 17.68 14.58 10.68 21.20 7.18 29.16 C 6.01 31.25 5.51 33.58 5.07 35.91 C 4.18 38.86 4.39 41.97 4.38 45.01 C 4.39 62.67 4.39 80.32 4.37 97.98 C 4.43 101.37 4.71 104.92 6.29 107.98 C 6.35 108.48 6.47 109.47 6.53 109.96 C 7.63 111.83 8.66 113.74 9.70 115.64 C 13.18 120.41 17.69 124.54 23.18 126.86 C 28.12 129.04 33.61 129.85 38.99 129.63 C 52.64 129.61 66.30 129.61 79.96 129.63 C 83.36 129.58 86.75 128.94 90.00 127.95 C 90.93 127.57 91.87 127.22 92.83 126.92 C 99.89 123.72 105.71 117.92 108.89 110.85 C 109.22 109.93 109.58 109.01 109.96 108.11 C 111.03 104.85 111.68 101.44 111.62 98.00 C 111.62 79.32 111.61 60.64 111.62 41.95 C 111.64 39.93 111.52 37.88 110.91 35.94 C 110.54 33.59 110.06 31.23 108.83 29.16 C 105.75 22.09 99.90 16.28 92.86 13.14 C 88.18 11.19 83.07 10.18 77.99 10.36 C 63.97 10.40 49.96 10.39 35.95 10.36 C 32.60 10.44 29.23 10.99 26.09 12.13 Z" />
<path fill="#000000" opacity="1.00" d=" M 7.19 32.08 C 11.07 20.79 21.95 12.38 33.86 11.61 C 49.95 11.63 66.05 11.61 82.14 11.62 C 94.44 12.35 105.31 21.30 109.20 32.87 C 109.47 34.31 109.76 35.75 110.23 37.14 C 110.53 59.09 110.39 81.06 110.30 103.01 C 109.73 104.61 109.22 106.24 108.81 107.90 C 104.95 119.18 94.07 127.62 82.16 128.39 C 66.09 128.38 50.01 128.39 33.93 128.38 C 23.48 127.73 13.63 121.21 8.93 111.85 C 7.32 109.11 6.88 105.91 5.68 103.00 C 5.60 81.03 5.53 59.06 5.72 37.09 C 6.24 35.43 6.77 33.77 7.19 32.08 M 45.95 38.00 C 44.74 40.13 43.42 42.19 42.00 44.18 C 42.93 45.49 43.86 46.79 44.80 48.10 C 44.09 48.13 42.69 48.18 41.99 48.20 C 41.99 49.46 42.00 50.71 42.00 51.97 C 42.60 51.99 43.80 52.03 44.40 52.05 C 44.39 53.34 44.38 54.63 44.37 55.92 C 46.45 56.01 48.53 56.11 50.61 56.24 C 49.09 56.58 47.57 56.92 46.05 57.24 C 46.12 58.47 46.19 59.70 46.26 60.93 C 49.34 60.87 52.41 60.64 55.49 60.72 C 51.77 61.94 47.80 61.80 43.94 62.08 C 44.06 63.63 44.19 65.19 44.31 66.75 C 45.13 66.68 46.78 66.54 47.61 66.47 C 45.82 67.17 44.02 67.83 42.22 68.48 C 43.57 69.85 44.91 71.25 46.22 72.65 C 48.60 71.54 50.97 70.39 53.32 69.21 C 53.59 69.90 54.13 71.27 54.40 71.96 C 57.56 71.89 63.14 73.13 62.99 68.27 C 66.09 69.69 69.17 71.17 72.20 72.74 C 73.37 71.26 74.53 69.76 75.71 68.28 C 74.50 67.77 73.29 67.26 72.09 66.76 C 73.32 66.20 74.55 65.65 75.79 65.09 C 74.08 62.56 72.31 60.07 70.50 57.62 C 69.23 58.18 67.97 58.75 66.71 59.33 C 66.14 60.68 65.14 61.54 63.51 61.30 C 65.26 59.71 67.17 58.31 69.11 56.96 C 68.44 56.45 67.10 55.43 66.43 54.92 C 68.73 55.99 71.04 57.07 73.38 58.08 C 74.49 55.86 75.58 53.64 76.72 51.44 C 75.08 51.03 73.44 50.61 71.81 50.19 C 72.77 48.36 73.06 45.50 75.62 45.33 C 75.62 43.67 75.62 42.02 75.61 40.37 C 72.78 40.38 69.94 40.40 67.11 40.45 C 67.33 39.94 67.78 38.93 68.01 38.43 C 66.07 38.31 64.13 38.18 62.20 38.07 C 61.61 39.51 61.03 40.95 60.44 42.40 C 60.43 41.80 60.40 40.60 60.38 40.00 C 57.48 40.00 54.58 40.00 51.67 40.00 C 51.68 39.55 51.70 38.64 51.71 38.19 C 49.79 38.13 47.87 38.06 45.95 38.00 Z" />
<path fill="#000000" opacity="1.00" d=" M 48.42 44.95 C 51.73 43.22 55.61 44.11 59.16 44.26 C 55.87 45.99 51.97 45.02 48.42 44.95 Z" />
<path fill="#000000" opacity="1.00" d=" M 49.28 47.60 C 49.72 47.87 49.72 47.87 49.28 47.60 Z" />
<path fill="#000000" opacity="1.00" d=" M 53.33 47.29 C 53.70 47.75 53.70 47.75 53.33 47.29 Z" />
<path fill="#000000" opacity="1.00" d=" M 58.32 47.34 C 58.73 47.76 58.73 47.76 58.32 47.34 Z" />
<path fill="#000000" opacity="1.00" d=" M 59.76 48.08 C 61.20 48.60 62.09 49.84 63.01 50.97 C 61.50 51.80 60.00 52.62 58.49 53.44 C 59.33 54.52 60.17 55.59 61.02 56.66 C 59.52 56.84 58.03 57.03 56.53 57.22 C 57.02 56.80 58.02 55.95 58.52 55.53 C 58.46 54.79 58.36 53.33 58.31 52.59 C 60.44 51.92 59.76 49.78 59.76 48.08 Z" />
<path fill="#000000" opacity="1.00" d=" M 49.36 52.55 C 49.64 52.77 49.64 52.77 49.36 52.55 Z" />
<path fill="#000000" opacity="1.00" d=" M 52.46 52.19 C 55.39 50.56 52.70 55.53 52.46 52.19 Z" />
<path fill="#000000" opacity="1.00" d=" M 54.33 66.07 C 57.30 64.46 54.55 69.43 54.33 66.07 Z" />
</g>
<g id="#e76010ff">
<path fill="#e76010" opacity="1.00" d=" M 26.09 12.13 C 29.23 10.99 32.60 10.44 35.95 10.36 C 49.96 10.39 63.97 10.40 77.99 10.36 C 83.07 10.18 88.18 11.19 92.86 13.14 C 99.90 16.28 105.75 22.09 108.83 29.16 C 110.06 31.23 110.54 33.59 110.91 35.94 C 111.52 37.88 111.64 39.93 111.62 41.95 C 111.61 60.64 111.62 79.32 111.62 98.00 C 111.68 101.44 111.03 104.85 109.96 108.11 C 109.58 109.01 109.22 109.93 108.89 110.85 C 105.71 117.92 99.89 123.72 92.83 126.92 C 91.87 127.22 90.93 127.57 90.00 127.95 C 86.75 128.94 83.36 129.58 79.96 129.63 C 66.30 129.61 52.64 129.61 38.99 129.63 C 33.61 129.85 28.12 129.04 23.18 126.86 C 17.69 124.54 13.18 120.41 9.70 115.64 C 8.66 113.74 7.63 111.83 6.53 109.96 C 6.47 109.47 6.35 108.48 6.29 107.98 C 4.71 104.92 4.43 101.37 4.37 97.98 C 4.39 80.32 4.39 62.67 4.38 45.01 C 4.39 41.97 4.18 38.86 5.07 35.91 C 5.51 33.58 6.01 31.25 7.18 29.16 C 10.68 21.20 17.68 14.58 26.09 12.13 M 7.19 32.08 C 6.77 33.77 6.24 35.43 5.72 37.09 C 5.53 59.06 5.60 81.03 5.68 103.00 C 6.88 105.91 7.32 109.11 8.93 111.85 C 13.63 121.21 23.48 127.73 33.93 128.38 C 50.01 128.39 66.09 128.38 82.16 128.39 C 94.07 127.62 104.95 119.18 108.81 107.90 C 109.22 106.24 109.73 104.61 110.30 103.01 C 110.39 81.06 110.53 59.09 110.23 37.14 C 109.76 35.75 109.47 34.31 109.20 32.87 C 105.31 21.30 94.44 12.35 82.14 11.62 C 66.05 11.61 49.95 11.63 33.86 11.61 C 21.95 12.38 11.07 20.79 7.19 32.08 Z" />
<path fill="#e76010" opacity="1.00" d=" M 45.95 38.00 C 47.87 38.06 49.79 38.13 51.71 38.19 C 51.70 38.64 51.68 39.55 51.67 40.00 C 54.58 40.00 57.48 40.00 60.38 40.00 C 60.40 40.60 60.43 41.80 60.44 42.40 C 61.03 40.95 61.61 39.51 62.20 38.07 C 64.13 38.18 66.07 38.31 68.01 38.43 C 67.78 38.93 67.33 39.94 67.11 40.45 C 69.94 40.40 72.78 40.38 75.61 40.37 C 75.62 42.02 75.62 43.67 75.62 45.33 C 73.06 45.50 72.77 48.36 71.81 50.19 C 73.44 50.61 75.08 51.03 76.72 51.44 C 75.58 53.64 74.49 55.86 73.38 58.08 C 71.04 57.07 68.73 55.99 66.43 54.92 C 67.10 55.43 68.44 56.45 69.11 56.96 C 67.17 58.31 65.26 59.71 63.51 61.30 C 65.14 61.54 66.14 60.68 66.71 59.33 C 67.97 58.75 69.23 58.18 70.50 57.62 C 72.31 60.07 74.08 62.56 75.79 65.09 C 74.55 65.65 73.32 66.20 72.09 66.76 C 73.29 67.26 74.50 67.77 75.71 68.28 C 74.53 69.76 73.37 71.26 72.20 72.74 C 69.17 71.17 66.09 69.69 62.99 68.27 C 63.14 73.13 57.56 71.89 54.40 71.96 C 54.13 71.27 53.59 69.90 53.32 69.21 C 50.97 70.39 48.60 71.54 46.22 72.65 C 44.91 71.25 43.57 69.85 42.22 68.48 C 44.02 67.83 45.82 67.17 47.61 66.47 C 46.78 66.54 45.13 66.68 44.31 66.75 C 44.19 65.19 44.06 63.63 43.94 62.08 C 47.80 61.80 51.77 61.94 55.49 60.72 C 52.41 60.64 49.34 60.87 46.26 60.93 C 46.19 59.70 46.12 58.47 46.05 57.24 C 47.57 56.92 49.09 56.58 50.61 56.24 C 48.53 56.11 46.45 56.01 44.37 55.92 C 44.38 54.63 44.39 53.34 44.40 52.05 C 43.80 52.03 42.60 51.99 42.00 51.97 C 42.00 50.71 41.99 49.46 41.99 48.20 C 42.69 48.18 44.09 48.13 44.80 48.10 C 43.86 46.79 42.93 45.49 42.00 44.18 C 43.42 42.19 44.74 40.13 45.95 38.00 M 48.42 44.95 C 51.97 45.02 55.87 45.99 59.16 44.26 C 55.61 44.11 51.73 43.22 48.42 44.95 M 49.28 47.60 C 49.72 47.87 49.72 47.87 49.28 47.60 M 53.33 47.29 C 53.70 47.75 53.70 47.75 53.33 47.29 M 58.32 47.34 C 58.73 47.76 58.73 47.76 58.32 47.34 M 59.76 48.08 C 59.76 49.78 60.44 51.92 58.31 52.59 C 58.36 53.33 58.46 54.79 58.52 55.53 C 58.02 55.95 57.02 56.80 56.53 57.22 C 58.03 57.03 59.52 56.84 61.02 56.66 C 60.17 55.59 59.33 54.52 58.49 53.44 C 60.00 52.62 61.50 51.80 63.01 50.97 C 62.09 49.84 61.20 48.60 59.76 48.08 M 49.36 52.55 C 49.64 52.77 49.64 52.77 49.36 52.55 M 52.46 52.19 C 52.70 55.53 55.39 50.56 52.46 52.19 M 54.33 66.07 C 54.55 69.43 57.30 64.46 54.33 66.07 Z" />
</g>
</svg>
