<?xml version="1.0" encoding="UTF-8" ?>
<!DOCTYPE svg PUBLIC "-//W3C//DTD SVG 1.1//EN" "http://www.w3.org/Graphics/SVG/1.1/DTD/svg11.dtd">
<svg width="117px" height="140px" viewBox="0 0 117 140" version="1.1" xmlns="http://www.w3.org/2000/svg">
<g id="#000000ff">
<path fill="#000000" opacity="1.00" d=" M 0.00 0.00 L 117.00 0.00 L 117.00 140.00 L 0.00 140.00 L 0.00 0.00 M 33.19 10.22 C 17.93 11.77 5.18 25.62 5.02 40.97 C 5.02 60.66 4.92 80.34 5.06 100.03 C 5.72 116.01 20.01 129.84 36.00 129.98 C 51.68 129.99 67.36 130.08 83.03 129.93 C 98.98 129.27 112.85 115.02 112.97 99.04 C 113.04 80.01 112.98 60.97 113.00 41.93 C 113.07 32.14 108.23 22.51 100.45 16.60 C 94.39 11.91 86.63 9.65 79.01 9.98 C 63.74 10.18 48.44 9.69 33.19 10.22 Z" />
<path fill="#000000" opacity="1.00" d=" M 30.48 12.70 C 35.25 11.67 40.16 12.08 44.99 12.00 C 57.68 12.06 70.37 11.88 83.05 12.09 C 97.91 12.74 110.87 26.08 110.95 40.98 C 111.05 59.98 110.99 78.97 110.98 97.97 C 111.19 109.30 104.19 120.25 93.96 125.05 C 89.36 127.42 84.11 128.10 78.99 128.00 C 64.33 127.94 49.67 128.12 35.02 127.91 C 20.11 127.31 7.15 113.92 7.04 99.00 C 6.98 79.66 6.98 60.31 7.04 40.97 C 7.21 27.64 17.49 15.43 30.48 12.70 M 25.82 27.97 C 24.81 30.19 25.08 32.66 25.07 35.02 C 25.12 48.04 25.05 61.05 25.09 74.07 C 24.82 75.70 26.27 77.17 27.90 76.98 C 47.93 77.04 67.97 76.97 88.01 77.02 C 89.47 77.08 91.76 76.96 91.91 75.03 C 92.15 61.70 91.91 48.36 92.02 35.03 C 91.96 32.65 92.36 30.12 91.19 27.93 C 69.40 28.07 47.61 27.99 25.82 27.97 Z" />
<path fill="#000000" opacity="1.00" d=" M 27.39 74.62 C 27.44 59.68 27.00 44.70 27.61 29.77 C 48.24 29.80 68.86 29.80 89.48 29.77 C 90.10 44.71 89.70 59.70 89.68 74.66 C 68.92 74.82 48.15 74.90 27.39 74.62 M 78.99 37.03 C 78.42 39.11 80.61 39.17 82.07 39.02 C 84.31 39.45 83.86 37.08 84.02 35.68 C 82.37 35.22 78.93 34.24 78.99 37.03 M 32.00 37.12 C 32.06 37.80 32.17 39.15 32.22 39.83 C 46.16 39.86 60.10 39.85 74.04 39.84 C 76.02 40.28 77.17 38.94 76.54 37.04 C 61.70 37.06 46.85 36.90 32.00 37.12 M 79.17 48.87 C 80.72 48.90 82.26 48.85 83.81 48.76 C 83.98 47.09 84.22 44.86 82.02 44.45 C 79.20 43.54 78.66 46.91 79.17 48.87 M 31.94 47.00 C 32.04 47.68 32.25 49.04 32.35 49.71 C 43.34 49.67 54.35 49.97 65.33 49.56 C 65.49 48.93 65.82 47.68 65.98 47.06 C 54.63 46.92 43.28 47.04 31.94 47.00 M 78.98 56.00 C 78.50 58.45 81.47 58.21 83.00 57.87 C 84.49 57.39 83.74 55.58 83.89 54.46 C 82.25 54.21 78.80 53.24 78.98 56.00 M 32.23 55.31 C 32.17 55.98 32.05 57.31 31.99 57.97 C 44.68 58.04 57.37 57.99 70.06 58.00 C 69.99 57.32 69.85 55.97 69.78 55.29 C 57.27 55.34 44.75 55.31 32.23 55.31 M 78.95 65.13 C 78.81 67.88 81.50 68.10 83.50 67.38 C 83.66 66.07 83.79 64.76 83.90 63.44 C 82.08 63.13 78.77 62.16 78.95 65.13 M 32.04 65.10 C 32.06 65.80 32.11 67.21 32.13 67.91 C 40.82 67.98 49.53 68.13 58.21 67.84 C 58.30 67.15 58.48 65.76 58.56 65.07 C 49.72 65.12 40.88 65.05 32.04 65.10 Z" />
</g>
<g id="#717271ff">
<path fill="#717271" opacity="1.00" d=" M 33.19 10.22 C 48.44 9.69 63.74 10.18 79.01 9.98 C 86.63 9.65 94.39 11.91 100.45 16.60 C 108.23 22.51 113.07 32.14 113.00 41.93 C 112.98 60.97 113.04 80.01 112.97 99.04 C 112.85 115.02 98.98 129.27 83.03 129.93 C 67.36 130.08 51.68 129.99 36.00 129.98 C 20.01 129.84 5.72 116.01 5.06 100.03 C 4.92 80.34 5.02 60.66 5.02 40.97 C 5.18 25.62 17.93 11.77 33.19 10.22 M 30.48 12.70 C 17.49 15.43 7.21 27.64 7.04 40.97 C 6.98 60.31 6.98 79.66 7.04 99.00 C 7.15 113.92 20.11 127.31 35.02 127.91 C 49.67 128.12 64.33 127.94 78.99 128.00 C 84.11 128.10 89.36 127.42 93.96 125.05 C 104.19 120.25 111.19 109.30 110.98 97.97 C 110.99 78.97 111.05 59.98 110.95 40.98 C 110.87 26.08 97.91 12.74 83.05 12.09 C 70.37 11.88 57.68 12.06 44.99 12.00 C 40.16 12.08 35.25 11.67 30.48 12.70 Z" />
</g>
<g id="#f5f8f5ff">
<path fill="#f5f8f5" opacity="1.00" d=" M 25.82 27.97 C 47.61 27.99 69.40 28.07 91.19 27.93 C 92.36 30.12 91.96 32.65 92.02 35.03 C 91.91 48.36 92.15 61.70 91.91 75.03 C 91.76 76.96 89.47 77.08 88.01 77.02 C 67.97 76.97 47.93 77.04 27.90 76.98 C 26.27 77.17 24.82 75.70 25.09 74.07 C 25.05 61.05 25.12 48.04 25.07 35.02 C 25.08 32.66 24.81 30.19 25.82 27.97 M 27.39 74.62 C 48.15 74.90 68.92 74.82 89.68 74.66 C 89.70 59.70 90.10 44.71 89.48 29.77 C 68.86 29.80 48.24 29.80 27.61 29.77 C 27.00 44.70 27.44 59.68 27.39 74.62 Z" />
<path fill="#f5f8f5" opacity="1.00" d=" M 78.99 37.03 C 78.93 34.24 82.37 35.22 84.02 35.68 C 83.86 37.08 84.31 39.45 82.07 39.02 C 80.61 39.17 78.42 39.11 78.99 37.03 Z" />
<path fill="#f5f8f5" opacity="1.00" d=" M 32.00 37.12 C 46.85 36.90 61.70 37.06 76.54 37.04 C 77.17 38.94 76.02 40.28 74.04 39.84 C 60.10 39.85 46.16 39.86 32.22 39.83 C 32.17 39.15 32.06 37.80 32.00 37.12 Z" />
<path fill="#f5f8f5" opacity="1.00" d=" M 79.17 48.87 C 78.66 46.91 79.20 43.54 82.02 44.45 C 84.22 44.86 83.98 47.09 83.81 48.76 C 82.26 48.85 80.72 48.90 79.17 48.87 Z" />
<path fill="#f5f8f5" opacity="1.00" d=" M 31.94 47.00 C 43.28 47.04 54.63 46.92 65.98 47.06 C 65.82 47.68 65.49 48.93 65.33 49.56 C 54.35 49.97 43.34 49.67 32.35 49.71 C 32.25 49.04 32.04 47.68 31.94 47.00 Z" />
<path fill="#f5f8f5" opacity="1.00" d=" M 78.98 56.00 C 78.80 53.24 82.25 54.21 83.89 54.46 C 83.74 55.58 84.49 57.39 83.00 57.87 C 81.47 58.21 78.50 58.45 78.98 56.00 Z" />
<path fill="#f5f8f5" opacity="1.00" d=" M 32.23 55.31 C 44.75 55.31 57.27 55.34 69.78 55.29 C 69.85 55.97 69.99 57.32 70.06 58.00 C 57.37 57.99 44.68 58.04 31.99 57.97 C 32.05 57.31 32.17 55.98 32.23 55.31 Z" />
<path fill="#f5f8f5" opacity="1.00" d=" M 78.95 65.13 C 78.77 62.16 82.08 63.13 83.90 63.44 C 83.79 64.76 83.66 66.07 83.50 67.38 C 81.50 68.10 78.81 67.88 78.95 65.13 Z" />
<path fill="#f5f8f5" opacity="1.00" d=" M 32.04 65.10 C 40.88 65.05 49.72 65.12 58.56 65.07 C 58.48 65.76 58.30 67.15 58.21 67.84 C 49.53 68.13 40.82 67.98 32.13 67.91 C 32.11 67.21 32.06 65.80 32.04 65.10 Z" />
</g>
</svg>
