<?xml version="1.0" encoding="UTF-8" ?>
<!DOCTYPE svg PUBLIC "-//W3C//DTD SVG 1.1//EN" "http://www.w3.org/Graphics/SVG/1.1/DTD/svg11.dtd">
<svg width="45px" height="45px" viewBox="0 0 45 45" version="1.1" xmlns="http://www.w3.org/2000/svg">
<g id="#000000ff">
<path fill="#000000" opacity="1.00" d=" M 0.00 0.00 L 45.00 0.00 L 45.00 45.00 L 0.00 45.00 L 0.00 0.00 M 23.22 10.39 C 24.27 12.95 27.39 12.88 29.58 13.82 C 28.58 15.23 27.77 16.76 27.07 18.34 C 27.62 18.29 28.71 18.19 29.25 18.14 C 29.79 17.06 30.34 15.98 30.93 14.93 C 35.31 19.48 34.52 27.77 28.80 30.81 C 26.15 32.78 24.11 29.56 22.58 27.81 C 22.88 29.16 23.20 30.51 23.60 31.83 C 19.11 32.21 16.01 28.36 14.21 24.75 C 15.36 24.55 16.51 24.34 17.65 24.14 C 16.24 22.37 14.68 20.74 13.04 19.19 C 11.48 20.84 9.70 22.38 8.83 24.54 C 9.62 24.47 11.22 24.33 12.01 24.26 C 13.04 29.09 16.97 33.29 21.91 34.13 C 29.05 35.66 36.49 29.25 36.03 21.98 C 36.22 15.40 29.86 9.28 23.22 10.39 M 22.66 15.37 C 22.57 17.77 22.78 20.18 22.49 22.57 C 21.36 24.27 19.53 25.58 19.26 27.75 C 22.14 27.89 23.46 25.18 25.21 23.44 C 24.60 20.82 26.82 15.53 22.66 15.37 M 30.30 22.05 C 30.49 23.44 31.18 23.68 32.38 22.75 C 32.18 21.38 31.49 21.15 30.30 22.05 M 27.44 26.45 C 26.66 27.63 27.92 29.43 29.28 29.26 C 29.53 29.00 30.02 28.48 30.27 28.22 C 30.41 26.86 28.59 25.65 27.44 26.45 Z" />
</g>
<g id="#e2e5e2ff">
<path fill="#e2e5e2" opacity="1.00" d=" M 23.22 10.39 C 29.86 9.28 36.22 15.40 36.03 21.98 C 36.49 29.25 29.05 35.66 21.91 34.13 C 16.97 33.29 13.04 29.09 12.01 24.26 C 11.22 24.33 9.62 24.47 8.83 24.54 C 9.70 22.38 11.48 20.84 13.04 19.19 C 14.68 20.74 16.24 22.37 17.65 24.14 C 16.51 24.34 15.36 24.55 14.21 24.75 C 16.01 28.36 19.11 32.21 23.60 31.83 C 23.20 30.51 22.88 29.16 22.58 27.81 C 24.11 29.56 26.15 32.78 28.80 30.81 C 34.52 27.77 35.31 19.48 30.93 14.93 C 30.34 15.98 29.79 17.06 29.25 18.14 C 28.71 18.19 27.62 18.29 27.07 18.34 C 27.77 16.76 28.58 15.23 29.58 13.82 C 27.39 12.88 24.27 12.95 23.22 10.39 Z" />
<path fill="#e2e5e2" opacity="1.00" d=" M 22.66 15.37 C 26.82 15.53 24.60 20.82 25.21 23.44 C 23.46 25.18 22.14 27.89 19.26 27.75 C 19.53 25.58 21.36 24.27 22.49 22.57 C 22.78 20.18 22.57 17.77 22.66 15.37 Z" />
<path fill="#e2e5e2" opacity="1.00" d=" M 30.30 22.05 C 31.49 21.15 32.18 21.38 32.38 22.75 C 31.18 23.68 30.49 23.44 30.30 22.05 Z" />
<path fill="#e2e5e2" opacity="1.00" d=" M 27.44 26.45 C 28.59 25.65 30.41 26.86 30.27 28.22 C 30.02 28.48 29.53 29.00 29.28 29.26 C 27.92 29.43 26.66 27.63 27.44 26.45 Z" />
</g>
</svg>
