<?xml version="1.0" encoding="UTF-8" ?>
<!DOCTYPE svg PUBLIC "-//W3C//DTD SVG 1.1//EN" "http://www.w3.org/Graphics/SVG/1.1/DTD/svg11.dtd">
<svg width="117px" height="140px" viewBox="0 0 117 140" version="1.1" xmlns="http://www.w3.org/2000/svg">
<g id="#000000ff">
<path fill="#000000" opacity="1.00" d=" M 0.00 0.00 L 117.00 0.00 L 117.00 140.00 L 0.00 140.00 L 0.00 0.00 M 33.18 10.24 C 17.92 11.79 5.18 25.65 5.03 41.00 C 4.98 60.36 4.98 79.71 5.03 99.07 C 5.18 115.39 19.66 129.85 35.99 129.97 C 51.69 129.99 67.41 130.11 83.11 129.90 C 99.03 129.24 112.84 114.96 112.96 99.03 C 113.05 80.03 112.98 61.04 112.99 42.04 C 113.07 32.92 108.95 23.92 102.07 17.95 C 95.83 12.37 87.36 9.64 79.04 9.98 C 63.76 10.18 48.45 9.67 33.18 10.24 Z" />
<path fill="#000000" opacity="1.00" d=" M 33.29 12.33 C 48.85 11.73 64.45 12.23 80.02 12.07 C 88.21 11.84 96.40 15.04 102.19 20.85 C 107.68 26.43 111.02 34.15 110.91 42.02 C 110.96 60.35 110.92 78.68 110.93 97.01 C 111.01 102.32 109.91 107.69 107.24 112.32 C 102.25 121.84 91.71 128.00 80.99 127.91 C 66.00 127.93 51.00 127.99 36.00 127.88 C 20.79 127.78 7.24 114.31 7.13 99.08 C 7.03 79.70 7.03 60.31 7.13 40.92 C 7.30 26.69 19.12 13.77 33.29 12.33 M 56.94 28.96 C 49.26 36.66 41.62 44.39 33.91 52.05 C 34.15 52.97 34.41 53.88 34.69 54.79 C 37.51 54.56 40.56 55.32 43.22 54.26 C 48.63 49.21 53.68 43.77 58.99 38.60 C 64.32 43.76 69.33 49.25 74.78 54.26 C 77.53 55.33 80.66 54.64 83.56 54.61 C 83.67 53.97 83.90 52.69 84.01 52.04 C 76.39 44.34 68.71 36.70 61.08 29.00 C 60.13 27.61 57.90 27.57 56.94 28.96 M 57.16 43.02 C 53.31 46.88 49.56 50.84 45.72 54.70 C 44.61 55.93 43.03 57.15 43.15 59.00 C 43.10 64.37 43.11 69.73 43.15 75.10 C 42.92 76.36 44.17 77.47 45.36 77.46 C 48.69 77.56 52.04 77.66 55.37 77.38 C 55.63 77.11 56.14 76.58 56.40 76.32 C 56.77 72.83 56.48 69.30 56.53 65.80 C 58.41 65.82 60.28 65.85 62.16 65.83 C 62.18 69.20 61.98 72.58 62.22 75.94 C 63.15 78.25 66.11 77.31 68.01 77.55 C 70.20 77.22 73.62 78.48 74.77 75.92 C 75.04 71.28 74.77 66.62 74.89 61.97 C 74.77 60.08 75.31 57.79 73.76 56.33 C 69.51 51.81 65.12 47.42 60.78 42.98 C 59.91 41.87 57.99 41.85 57.16 43.02 Z" />
<path fill="#000000" opacity="1.00" d=" M 38.14 51.83 C 45.27 45.11 52.02 38.00 58.99 31.11 C 65.97 37.95 72.63 45.13 79.82 51.77 C 78.69 51.78 77.57 51.80 76.44 51.82 C 71.26 46.53 66.03 41.28 60.75 36.09 C 59.89 34.98 58.10 34.97 57.23 36.05 C 51.99 41.27 46.75 46.50 41.58 51.79 C 40.72 51.80 39.00 51.82 38.14 51.83 Z" />
<path fill="#000000" opacity="1.00" d=" M 46.10 58.73 C 50.38 54.30 54.71 49.91 58.99 45.46 C 62.69 49.27 66.36 53.11 70.13 56.86 C 70.92 57.73 72.13 58.54 71.85 59.92 C 71.94 64.79 71.81 69.65 71.89 74.52 C 69.63 74.49 67.36 74.49 65.11 74.52 C 65.15 70.76 65.30 66.99 64.78 63.25 C 61.34 62.87 57.66 62.32 54.30 63.28 C 52.83 66.84 53.76 70.86 53.67 74.61 C 51.15 74.44 48.64 74.50 46.12 74.51 C 46.13 69.25 46.17 63.99 46.10 58.73 Z" />
</g>
<g id="#747474ff">
<path fill="#747474" opacity="1.00" d=" M 33.18 10.24 C 48.45 9.67 63.76 10.18 79.04 9.98 C 87.36 9.64 95.83 12.37 102.07 17.95 C 108.95 23.92 113.07 32.92 112.99 42.04 C 112.98 61.04 113.05 80.03 112.96 99.03 C 112.84 114.96 99.03 129.24 83.11 129.90 C 67.41 130.11 51.69 129.99 35.99 129.97 C 19.66 129.85 5.18 115.39 5.03 99.07 C 4.98 79.71 4.98 60.36 5.03 41.00 C 5.18 25.65 17.92 11.79 33.18 10.24 M 33.29 12.33 C 19.12 13.77 7.30 26.69 7.13 40.92 C 7.03 60.31 7.03 79.70 7.13 99.08 C 7.24 114.31 20.79 127.78 36.00 127.88 C 51.00 127.99 66.00 127.93 80.99 127.91 C 91.71 128.00 102.25 121.84 107.24 112.32 C 109.91 107.69 111.01 102.32 110.93 97.01 C 110.92 78.68 110.96 60.35 110.91 42.02 C 111.02 34.15 107.68 26.43 102.19 20.85 C 96.40 15.04 88.21 11.84 80.02 12.07 C 64.45 12.23 48.85 11.73 33.29 12.33 Z" />
</g>
<g id="#f8fcf8ff">
<path fill="#f8fcf8" opacity="1.00" d=" M 56.94 28.96 C 57.90 27.57 60.13 27.61 61.08 29.00 C 68.71 36.70 76.39 44.34 84.01 52.04 C 83.90 52.69 83.67 53.97 83.56 54.61 C 80.66 54.64 77.53 55.33 74.78 54.26 C 69.33 49.25 64.32 43.76 58.99 38.60 C 53.68 43.77 48.63 49.21 43.22 54.26 C 40.56 55.32 37.51 54.56 34.69 54.79 C 34.41 53.88 34.15 52.97 33.91 52.05 C 41.62 44.39 49.26 36.66 56.94 28.96 M 38.14 51.83 C 39.00 51.82 40.72 51.80 41.58 51.79 C 46.75 46.50 51.99 41.27 57.23 36.05 C 58.10 34.97 59.89 34.98 60.75 36.09 C 66.03 41.28 71.26 46.53 76.44 51.82 C 77.57 51.80 78.69 51.78 79.82 51.77 C 72.63 45.13 65.97 37.95 58.99 31.11 C 52.02 38.00 45.27 45.11 38.14 51.83 Z" />
<path fill="#f8fcf8" opacity="1.00" d=" M 57.16 43.02 C 57.99 41.85 59.91 41.87 60.78 42.98 C 65.12 47.42 69.51 51.81 73.76 56.33 C 75.31 57.79 74.77 60.08 74.89 61.97 C 74.77 66.62 75.04 71.28 74.77 75.92 C 73.62 78.48 70.20 77.22 68.01 77.55 C 66.11 77.31 63.15 78.25 62.22 75.94 C 61.98 72.58 62.18 69.20 62.16 65.83 C 60.28 65.85 58.41 65.82 56.53 65.80 C 56.48 69.30 56.77 72.83 56.40 76.32 C 56.14 76.58 55.63 77.11 55.37 77.38 C 52.04 77.66 48.69 77.56 45.36 77.46 C 44.17 77.47 42.92 76.36 43.15 75.10 C 43.11 69.73 43.10 64.37 43.15 59.00 C 43.03 57.15 44.61 55.93 45.72 54.70 C 49.56 50.84 53.31 46.88 57.16 43.02 M 46.10 58.73 C 46.17 63.99 46.13 69.25 46.12 74.51 C 48.64 74.50 51.15 74.44 53.67 74.61 C 53.76 70.86 52.83 66.84 54.30 63.28 C 57.66 62.32 61.34 62.87 64.78 63.25 C 65.30 66.99 65.15 70.76 65.11 74.52 C 67.36 74.49 69.63 74.49 71.89 74.52 C 71.81 69.65 71.94 64.79 71.85 59.92 C 72.13 58.54 70.92 57.73 70.13 56.86 C 66.36 53.11 62.69 49.27 58.99 45.46 C 54.71 49.91 50.38 54.30 46.10 58.73 Z" />
</g>
</svg>
