<?xml version="1.0" encoding="UTF-8" ?>
<!DOCTYPE svg PUBLIC "-//W3C//DTD SVG 1.1//EN" "http://www.w3.org/Graphics/SVG/1.1/DTD/svg11.dtd">
<svg width="117px" height="140px" viewBox="0 0 117 140" version="1.1" xmlns="http://www.w3.org/2000/svg">
<g id="#000000ff">
<path fill="#000000" opacity="1.00" d=" M 0.00 0.00 L 117.00 0.00 L 117.00 140.00 L 0.00 140.00 L 0.00 0.00 M 33.27 10.25 C 18.00 11.74 5.23 25.60 5.05 40.95 C 4.95 59.97 5.02 78.99 5.01 98.00 C 4.98 106.64 8.67 115.19 14.94 121.11 C 21.02 127.01 29.51 130.19 37.95 130.00 C 52.99 129.91 68.04 130.16 83.07 129.88 C 98.98 129.25 112.80 114.99 112.94 99.07 C 113.06 80.06 112.99 61.05 112.98 42.04 C 113.05 32.92 108.93 23.92 102.05 17.96 C 95.80 12.36 87.30 9.66 78.97 9.99 C 63.74 10.18 48.49 9.67 33.27 10.25 Z" />
<path fill="#000000" opacity="1.00" d=" M 33.26 12.32 C 49.51 11.77 65.80 12.15 82.06 12.12 C 97.26 12.21 110.80 25.72 110.88 40.93 C 111.02 58.62 110.88 76.31 110.94 94.00 C 111.11 100.01 110.67 106.27 107.64 111.61 C 102.79 121.48 92.07 128.03 81.08 127.91 C 65.71 127.90 50.33 128.05 34.97 127.83 C 20.15 127.24 7.23 113.96 7.12 99.12 C 7.01 80.06 7.08 61.01 7.09 41.96 C 6.73 27.36 18.73 13.77 33.26 12.32 M 60.35 27.14 C 56.38 31.09 52.42 35.05 48.47 39.01 C 50.10 41.10 52.47 41.60 55.00 41.28 C 55.00 43.30 55.00 45.31 55.00 47.33 C 53.00 47.33 51.01 47.32 49.01 47.33 C 49.01 46.60 48.99 45.16 48.98 44.43 C 48.40 43.17 47.90 41.77 46.71 40.93 C 42.57 44.64 38.84 48.80 34.81 52.63 C 38.78 56.61 42.71 60.63 46.76 64.52 C 47.50 63.64 48.25 62.76 49.00 61.88 C 48.99 60.59 48.99 59.29 49.00 58.00 C 51.00 58.00 53.00 58.00 55.00 58.00 C 55.00 60.00 55.00 62.00 55.00 64.00 C 52.44 63.64 50.07 64.23 48.48 66.36 C 52.46 70.28 56.39 74.25 60.35 78.19 C 64.29 74.29 68.12 70.27 72.18 66.48 C 71.19 65.35 69.98 64.53 68.57 64.01 C 67.85 64.01 66.42 63.99 65.71 63.99 C 65.71 61.99 65.71 60.00 65.71 58.00 C 67.71 58.00 69.71 58.00 71.71 58.00 C 71.38 60.53 71.91 62.90 73.99 64.53 C 77.96 60.57 81.92 56.61 85.88 52.65 C 81.92 48.74 78.05 44.75 74.05 40.88 C 73.66 41.22 72.88 41.90 72.50 42.24 C 72.03 43.90 71.72 45.60 71.59 47.32 C 69.63 47.32 67.67 47.33 65.71 47.33 C 65.70 45.35 65.73 43.37 65.73 41.39 C 67.43 41.25 69.11 40.93 70.77 40.52 C 71.10 40.12 71.76 39.31 72.09 38.90 C 68.19 34.97 64.29 31.04 60.35 27.14 Z" />
<path fill="#000000" opacity="1.00" d=" M 60.35 30.93 C 62.90 33.50 65.48 36.04 68.04 38.61 C 66.36 38.61 64.68 38.61 63.00 38.61 C 63.00 42.41 63.00 46.20 63.00 50.00 C 66.81 50.00 70.61 50.00 74.42 50.00 C 74.41 48.33 74.41 46.67 74.40 45.01 C 76.98 47.54 79.54 50.09 82.09 52.66 C 79.55 55.21 77.04 57.79 74.40 60.24 C 74.40 58.61 74.40 56.98 74.42 55.35 C 70.61 55.32 66.81 55.32 63.01 55.32 C 63.00 59.13 63.00 62.93 63.01 66.74 C 64.67 66.74 66.34 66.74 68.01 66.75 C 65.47 69.30 62.91 71.84 60.37 74.40 C 57.81 71.86 55.24 69.33 52.74 66.75 C 54.37 66.74 56.01 66.72 57.65 66.73 C 57.65 62.93 57.65 59.13 57.64 55.33 C 53.86 55.32 50.08 55.33 46.29 55.33 C 46.29 56.98 46.28 58.64 46.27 60.30 C 43.70 57.77 41.15 55.21 38.61 52.65 C 41.18 50.10 43.73 47.54 46.29 44.99 C 46.29 46.66 46.29 48.32 46.28 49.99 C 50.07 50.00 53.86 50.00 57.65 49.99 C 57.65 46.19 57.65 42.40 57.64 38.60 C 56.00 38.62 54.36 38.63 52.73 38.64 C 55.21 36.01 57.80 33.48 60.35 30.93 Z" />
</g>
<g id="#787978ff">
<path fill="#787978" opacity="1.00" d=" M 33.27 10.25 C 48.49 9.67 63.74 10.18 78.97 9.99 C 87.30 9.66 95.80 12.36 102.05 17.96 C 108.93 23.92 113.05 32.92 112.98 42.04 C 112.99 61.05 113.06 80.06 112.94 99.07 C 112.80 114.99 98.98 129.25 83.07 129.88 C 68.04 130.16 52.99 129.91 37.95 130.00 C 29.51 130.19 21.02 127.01 14.94 121.11 C 8.67 115.19 4.98 106.64 5.01 98.00 C 5.02 78.99 4.95 59.97 5.05 40.95 C 5.23 25.60 18.00 11.74 33.27 10.25 M 33.26 12.32 C 18.73 13.77 6.73 27.36 7.09 41.96 C 7.08 61.01 7.01 80.06 7.12 99.12 C 7.23 113.96 20.15 127.24 34.97 127.83 C 50.33 128.05 65.71 127.90 81.08 127.91 C 92.07 128.03 102.79 121.48 107.64 111.61 C 110.67 106.27 111.11 100.01 110.94 94.00 C 110.88 76.31 111.02 58.62 110.88 40.93 C 110.80 25.72 97.26 12.21 82.06 12.12 C 65.80 12.15 49.51 11.77 33.26 12.32 Z" />
</g>
<g id="#f8fcf8ff">
<path fill="#f8fcf8" opacity="1.00" d=" M 60.35 27.14 C 64.29 31.04 68.19 34.97 72.09 38.90 C 71.76 39.31 71.10 40.12 70.77 40.52 C 69.11 40.93 67.43 41.25 65.73 41.39 C 65.73 43.37 65.70 45.35 65.71 47.33 C 67.67 47.33 69.63 47.32 71.59 47.32 C 71.72 45.60 72.03 43.90 72.50 42.24 C 72.88 41.90 73.66 41.22 74.05 40.88 C 78.05 44.75 81.92 48.74 85.88 52.65 C 81.92 56.61 77.96 60.57 73.99 64.53 C 71.91 62.90 71.38 60.53 71.71 58.00 C 69.71 58.00 67.71 58.00 65.71 58.00 C 65.71 60.00 65.71 61.99 65.71 63.99 C 66.42 63.99 67.85 64.01 68.57 64.01 C 69.98 64.53 71.19 65.35 72.18 66.48 C 68.12 70.27 64.29 74.29 60.35 78.19 C 56.39 74.25 52.46 70.28 48.48 66.36 C 50.07 64.23 52.44 63.64 55.00 64.00 C 55.00 62.00 55.00 60.00 55.00 58.00 C 53.00 58.00 51.00 58.00 49.00 58.00 C 48.99 59.29 48.99 60.59 49.00 61.88 C 48.25 62.76 47.50 63.64 46.76 64.52 C 42.71 60.63 38.78 56.61 34.81 52.63 C 38.84 48.80 42.57 44.64 46.71 40.93 C 47.90 41.77 48.40 43.17 48.98 44.43 C 48.99 45.16 49.01 46.60 49.01 47.33 C 51.01 47.32 53.00 47.33 55.00 47.33 C 55.00 45.31 55.00 43.30 55.00 41.28 C 52.47 41.60 50.10 41.10 48.47 39.01 C 52.42 35.05 56.38 31.09 60.35 27.14 M 60.35 30.93 C 57.80 33.48 55.21 36.01 52.73 38.64 C 54.36 38.63 56.00 38.62 57.64 38.60 C 57.65 42.40 57.65 46.19 57.65 49.99 C 53.86 50.00 50.07 50.00 46.28 49.99 C 46.29 48.32 46.29 46.66 46.29 44.99 C 43.73 47.54 41.18 50.10 38.61 52.65 C 41.15 55.21 43.70 57.77 46.27 60.30 C 46.28 58.64 46.29 56.98 46.29 55.33 C 50.08 55.33 53.86 55.32 57.64 55.33 C 57.65 59.13 57.65 62.93 57.65 66.73 C 56.01 66.72 54.37 66.74 52.74 66.75 C 55.24 69.33 57.81 71.86 60.37 74.40 C 62.91 71.84 65.47 69.30 68.01 66.75 C 66.34 66.74 64.67 66.74 63.01 66.74 C 63.00 62.93 63.00 59.13 63.01 55.32 C 66.81 55.32 70.61 55.32 74.42 55.35 C 74.40 56.98 74.40 58.61 74.40 60.24 C 77.04 57.79 79.55 55.21 82.09 52.66 C 79.54 50.09 76.98 47.54 74.40 45.01 C 74.41 46.67 74.41 48.33 74.42 50.00 C 70.61 50.00 66.81 50.00 63.00 50.00 C 63.00 46.20 63.00 42.41 63.00 38.61 C 64.68 38.61 66.36 38.61 68.04 38.61 C 65.48 36.04 62.90 33.50 60.35 30.93 Z" />
</g>
</svg>
