<?xml version="1.0" encoding="UTF-8" ?>
<!DOCTYPE svg PUBLIC "-//W3C//DTD SVG 1.1//EN" "http://www.w3.org/Graphics/SVG/1.1/DTD/svg11.dtd">
<svg width="70px" height="28px" viewBox="0 0 70 28" version="1.1" xmlns="http://www.w3.org/2000/svg">
<g id="#181818ff">
<path fill="#181818" opacity="1.00" d=" M 0.00 0.00 L 1.79 0.00 C 1.86 1.40 1.27 1.97 -0.00 1.71 L 0.00 0.00 Z" />
<path fill="#181818" opacity="1.00" d=" M 68.29 0.00 L 70.00 0.00 L 70.00 1.78 C 68.60 1.86 68.03 1.27 68.29 0.00 Z" />
<path fill="#181818" opacity="1.00" d=" M 3.06 1.17 C 5.01 0.71 7.03 0.67 9.02 0.64 C 22.68 0.76 36.33 0.51 49.98 0.75 C 55.61 0.93 61.33 -0.04 66.89 1.15 C 68.70 1.38 69.06 3.44 69.29 4.91 C 69.63 8.91 69.18 12.92 69.41 16.92 C 69.43 20.03 69.79 23.42 68.23 26.25 C 64.49 28.27 60.06 27.17 56.01 27.32 C 39.68 27.47 23.35 27.25 7.03 27.40 C 5.23 27.35 3.33 27.24 1.77 26.24 C 0.34 23.76 0.74 20.73 0.63 17.98 C 0.78 13.65 0.34 9.32 0.71 5.00 C 0.89 3.52 1.28 1.47 3.06 1.17 M 18.00 5.00 C 18.00 9.67 18.00 14.33 18.00 19.00 C 18.50 19.00 19.50 19.01 20.00 19.01 C 20.00 18.12 20.02 16.34 20.03 15.45 C 21.16 16.62 22.27 17.81 23.37 19.01 C 24.12 19.01 25.62 19.00 26.37 18.99 C 24.94 17.44 23.43 15.95 21.93 14.46 C 23.27 12.92 24.75 11.49 26.15 9.99 C 25.42 9.99 23.98 9.99 23.26 10.00 C 22.19 11.15 21.09 12.28 20.01 13.41 C 19.99 10.61 20.01 7.80 20.00 4.99 C 19.50 5.00 18.50 5.00 18.00 5.00 M 2.00 9.97 C 2.00 12.98 2.00 15.99 2.00 19.00 C 2.50 19.00 3.50 19.00 4.00 19.00 C 4.27 16.37 3.23 13.12 5.35 11.04 C 9.09 10.93 7.45 16.52 7.84 19.00 C 8.37 19.00 9.44 19.00 9.97 19.00 C 9.97 16.61 10.28 14.20 10.04 11.83 C 8.56 8.83 4.65 10.29 2.00 9.97 M 13.06 12.02 C 13.57 14.32 13.34 16.72 13.40 19.06 C 14.02 19.04 15.26 18.99 15.88 18.96 C 15.70 16.06 16.44 12.81 14.62 10.28 C 13.50 10.19 11.27 10.00 10.16 9.90 C 11.12 10.62 12.13 11.27 13.06 12.02 M 26.87 12.08 C 26.16 15.34 31.06 15.13 31.40 18.12 C 30.09 17.84 27.48 17.29 26.17 17.01 C 27.06 20.28 33.63 19.95 33.43 16.11 C 32.38 13.92 28.82 13.86 28.78 10.99 C 29.97 11.22 32.33 11.68 33.51 11.91 C 32.76 9.10 27.14 9.07 26.87 12.08 M 39.78 9.99 C 39.83 13.04 39.41 16.29 40.99 19.06 C 43.32 18.99 45.66 19.03 48.00 18.99 C 48.00 15.99 48.00 13.00 48.00 10.00 C 47.50 10.00 46.50 10.00 46.00 9.99 C 45.73 12.60 47.10 17.60 43.33 18.01 C 40.91 16.15 42.40 12.62 42.00 10.00 C 41.45 10.00 40.33 9.99 39.78 9.99 M 50.16 9.98 C 50.16 14.33 50.17 18.68 50.16 23.03 C 50.83 23.02 52.17 23.01 52.84 23.00 C 52.85 21.71 52.84 20.41 52.83 19.11 C 54.42 18.90 56.20 19.37 57.66 18.58 C 60.17 16.57 60.31 12.15 57.64 10.18 C 55.18 9.72 52.65 10.04 50.16 9.98 M 60.67 13.82 C 62.19 14.61 63.67 15.46 65.12 16.38 C 65.86 19.58 62.04 16.88 60.49 16.94 C 61.75 20.67 67.48 19.48 68.40 16.00 C 66.72 14.57 64.02 14.01 62.93 12.06 C 64.21 10.25 66.14 11.79 67.75 12.07 C 66.36 8.21 60.19 9.69 60.67 13.82 Z" />
<path fill="#181818" opacity="1.00" d=" M 54.33 11.04 C 58.31 10.29 58.27 18.52 54.29 18.01 C 52.15 16.44 52.18 12.59 54.33 11.04 Z" />
<path fill="#181818" opacity="1.00" d=" M 0.00 26.22 C 1.40 26.14 1.97 26.73 1.71 28.00 L 0.00 28.00 L 0.00 26.22 Z" />
<path fill="#181818" opacity="1.00" d=" M 68.21 28.00 C 68.14 26.61 68.73 26.04 70.00 26.29 L 70.00 28.00 L 68.21 28.00 Z" />
</g>
<g id="#9da3dfff">
<path fill="#9da3df" opacity="1.00" d=" M 1.79 0.00 L 68.29 0.00 C 68.03 1.27 68.60 1.86 70.00 1.78 L 70.00 26.29 C 68.73 26.04 68.14 26.61 68.21 28.00 L 1.71 28.00 C 1.97 26.73 1.40 26.14 0.00 26.22 L 0.00 1.71 C 1.27 1.97 1.86 1.40 1.79 0.00 M 3.06 1.17 C 1.28 1.47 0.89 3.52 0.71 5.00 C 0.34 9.32 0.78 13.65 0.63 17.98 C 0.74 20.73 0.34 23.76 1.77 26.24 C 3.33 27.24 5.23 27.35 7.03 27.40 C 23.35 27.25 39.68 27.47 56.01 27.32 C 60.06 27.17 64.49 28.27 68.23 26.25 C 69.79 23.42 69.43 20.03 69.41 16.92 C 69.18 12.92 69.63 8.91 69.29 4.91 C 69.06 3.44 68.70 1.38 66.89 1.15 C 61.33 -0.04 55.61 0.93 49.98 0.75 C 36.33 0.51 22.68 0.76 9.02 0.64 C 7.03 0.67 5.01 0.71 3.06 1.17 Z" />
<path fill="#9da3df" opacity="1.00" d=" M 18.00 5.00 C 18.50 5.00 19.50 5.00 20.00 4.99 C 20.01 7.80 19.99 10.61 20.01 13.41 C 21.09 12.28 22.19 11.15 23.26 10.00 C 23.98 9.99 25.42 9.99 26.15 9.99 C 24.75 11.49 23.27 12.92 21.93 14.46 C 23.43 15.95 24.94 17.44 26.37 18.99 C 25.62 19.00 24.12 19.01 23.37 19.01 C 22.27 17.81 21.16 16.62 20.03 15.45 C 20.02 16.34 20.00 18.12 20.00 19.01 C 19.50 19.01 18.50 19.00 18.00 19.00 C 18.00 14.33 18.00 9.67 18.00 5.00 Z" />
<path fill="#9da3df" opacity="1.00" d=" M 2.00 9.97 C 4.65 10.29 8.56 8.83 10.04 11.83 C 10.28 14.20 9.97 16.61 9.97 19.00 C 9.44 19.00 8.37 19.00 7.84 19.00 C 7.45 16.52 9.09 10.93 5.35 11.04 C 3.23 13.12 4.27 16.37 4.00 19.00 C 3.50 19.00 2.50 19.00 2.00 19.00 C 2.00 15.99 2.00 12.98 2.00 9.97 Z" />
<path fill="#9da3df" opacity="1.00" d=" M 13.06 12.02 C 12.13 11.27 11.12 10.62 10.16 9.90 C 11.27 10.00 13.50 10.19 14.62 10.28 C 16.44 12.81 15.70 16.06 15.88 18.96 C 15.26 18.99 14.02 19.04 13.40 19.06 C 13.34 16.72 13.57 14.32 13.06 12.02 Z" />
<path fill="#9da3df" opacity="1.00" d=" M 26.87 12.08 C 27.14 9.07 32.76 9.10 33.51 11.91 C 32.33 11.68 29.97 11.22 28.78 10.99 C 28.82 13.86 32.38 13.92 33.43 16.11 C 33.63 19.95 27.06 20.28 26.17 17.01 C 27.48 17.29 30.09 17.84 31.40 18.12 C 31.06 15.13 26.16 15.34 26.87 12.08 Z" />
<path fill="#9da3df" opacity="1.00" d=" M 39.78 9.99 C 40.33 9.99 41.45 10.00 42.00 10.00 C 42.40 12.62 40.91 16.15 43.33 18.01 C 47.10 17.60 45.73 12.60 46.00 9.99 C 46.50 10.00 47.50 10.00 48.00 10.00 C 48.00 13.00 48.00 15.99 48.00 18.99 C 45.66 19.03 43.32 18.99 40.99 19.06 C 39.41 16.29 39.83 13.04 39.78 9.99 Z" />
<path fill="#9da3df" opacity="1.00" d=" M 50.16 9.98 C 52.65 10.04 55.18 9.72 57.64 10.18 C 60.31 12.15 60.17 16.57 57.66 18.58 C 56.20 19.37 54.42 18.90 52.83 19.11 C 52.84 20.41 52.85 21.71 52.84 23.00 C 52.17 23.01 50.83 23.02 50.16 23.03 C 50.17 18.68 50.16 14.33 50.16 9.98 M 54.33 11.04 C 52.18 12.59 52.15 16.44 54.29 18.01 C 58.27 18.52 58.31 10.29 54.33 11.04 Z" />
<path fill="#9da3df" opacity="1.00" d=" M 60.67 13.82 C 60.19 9.69 66.36 8.21 67.75 12.07 C 66.14 11.79 64.21 10.25 62.93 12.06 C 64.02 14.01 66.72 14.57 68.40 16.00 C 67.48 19.48 61.75 20.67 60.49 16.94 C 62.04 16.88 65.86 19.58 65.12 16.38 C 63.67 15.46 62.19 14.61 60.67 13.82 Z" />
</g>
</svg>
