<?xml version="1.0" encoding="UTF-8" ?>
<!DOCTYPE svg PUBLIC "-//W3C//DTD SVG 1.1//EN" "http://www.w3.org/Graphics/SVG/1.1/DTD/svg11.dtd">
<svg width="90px" height="30px" viewBox="0 0 90 30" version="1.1" xmlns="http://www.w3.org/2000/svg">
<g id="#181818ff">
<path fill="#181818" opacity="1.00" d=" M 0.00 0.00 L 10.34 0.00 L 12.91 0.22 C 7.32 0.77 3.22 4.92 0.71 9.60 C 1.08 10.32 1.45 11.04 1.82 11.76 C 2.65 4.11 11.05 0.16 18.03 0.98 C 37.04 1.05 56.04 0.94 75.05 1.03 C 80.70 1.02 86.14 4.73 88.05 10.07 C 90.95 17.09 86.79 26.35 79.21 28.06 C 79.17 28.55 79.08 29.52 79.03 30.00 L 78.51 30.00 C 78.52 29.72 78.53 29.15 78.54 28.86 C 57.68 29.17 36.81 28.92 15.94 29.00 C 9.62 29.35 3.47 25.21 1.64 19.10 C 1.23 19.04 0.41 18.91 0.00 18.84 L 0.00 18.22 C 1.72 16.72 2.04 13.44 0.00 12.08 L 0.00 0.00 M 71.43 3.57 C 66.91 4.92 63.48 9.16 63.08 13.86 C 62.30 20.21 67.46 26.44 73.82 26.92 C 81.02 27.87 87.83 21.10 86.92 13.89 C 86.48 6.58 78.38 1.12 71.43 3.57 Z" />
<path fill="#181818" opacity="1.00" d=" M 76.80 0.00 L 90.00 0.00 L 90.00 10.51 L 89.81 12.69 C 88.84 6.11 83.28 0.98 76.80 0.00 Z" />
<path fill="#181818" opacity="1.00" d=" M 0.00 19.35 C 1.64 21.31 2.61 23.77 4.42 25.61 C 6.29 27.32 8.57 28.48 10.59 29.99 L 10.37 30.00 L 0.00 30.00 L 0.00 19.35 Z" />
<path fill="#181818" opacity="1.00" d=" M 79.59 30.00 C 84.49 27.00 89.26 22.99 90.00 16.86 L 90.00 30.00 L 79.59 30.00 Z" />
</g>
<g id="#f8fcf8ff">
<path fill="#f8fcf8" opacity="1.00" d=" M 10.34 0.00 L 76.80 0.00 C 83.28 0.98 88.84 6.11 89.81 12.69 L 90.00 10.51 L 90.00 16.86 C 89.26 22.99 84.49 27.00 79.59 30.00 L 79.03 30.00 C 79.08 29.52 79.17 28.55 79.21 28.06 C 86.79 26.35 90.95 17.09 88.05 10.07 C 86.14 4.73 80.70 1.02 75.05 1.03 C 56.04 0.94 37.04 1.05 18.03 0.98 C 11.05 0.16 2.65 4.11 1.82 11.76 C 1.45 11.04 1.08 10.32 0.71 9.60 C 3.22 4.92 7.32 0.77 12.91 0.22 L 10.34 0.00 Z" />
<path fill="#f8fcf8" opacity="1.00" d=" M 71.43 3.57 C 78.38 1.12 86.48 6.58 86.92 13.89 C 87.83 21.10 81.02 27.87 73.82 26.92 C 67.46 26.44 62.30 20.21 63.08 13.86 C 63.48 9.16 66.91 4.92 71.43 3.57 Z" />
<path fill="#f8fcf8" opacity="1.00" d=" M 0.00 12.08 C 2.04 13.44 1.72 16.72 0.00 18.22 L 0.00 12.08 Z" />
<path fill="#f8fcf8" opacity="1.00" d=" M 0.00 18.84 C 0.41 18.91 1.23 19.04 1.64 19.10 C 3.47 25.21 9.62 29.35 15.94 29.00 C 36.81 28.92 57.68 29.17 78.54 28.86 C 78.53 29.15 78.52 29.72 78.51 30.00 L 10.37 30.00 L 10.59 29.99 C 8.57 28.48 6.29 27.32 4.42 25.61 C 2.61 23.77 1.64 21.31 0.00 19.35 L 0.00 18.84 Z" />
</g>
</svg>
