<?xml version="1.0" encoding="UTF-8" ?>
<!DOCTYPE svg PUBLIC "-//W3C//DTD SVG 1.1//EN" "http://www.w3.org/Graphics/SVG/1.1/DTD/svg11.dtd">
<svg width="117px" height="140px" viewBox="0 0 117 140" version="1.1" xmlns="http://www.w3.org/2000/svg">
<g id="#000000ff">
<path fill="#000000" opacity="1.00" d=" M 0.00 0.00 L 117.00 0.00 L 117.00 140.00 L 0.00 140.00 L 0.00 0.00 M 33.21 10.21 C 17.94 11.76 5.16 25.61 5.01 40.98 C 4.99 60.35 4.99 79.72 5.01 99.09 C 5.18 115.05 19.03 129.31 34.99 129.94 C 50.65 130.08 66.33 129.98 82.00 129.98 C 97.97 129.87 112.27 116.04 112.94 100.08 C 113.09 80.72 112.95 61.35 113.01 41.98 C 113.10 32.18 108.27 22.54 100.49 16.62 C 94.69 12.13 87.32 9.78 80.00 9.98 C 64.40 10.17 48.79 9.70 33.21 10.21 Z" />
<path fill="#000000" opacity="1.00" d=" M 30.48 12.71 C 35.26 11.66 40.18 12.09 45.03 12.00 C 57.70 12.06 70.38 11.88 83.05 12.09 C 97.89 12.76 110.80 26.03 110.95 40.91 C 111.06 59.94 110.99 78.96 110.98 97.99 C 111.20 110.10 103.15 121.71 91.84 125.96 C 85.58 128.60 78.66 127.91 72.04 128.00 C 59.68 127.94 47.31 128.12 34.95 127.90 C 20.10 127.24 7.20 113.95 7.04 99.08 C 6.97 79.69 6.98 60.30 7.04 40.91 C 7.26 27.62 17.50 15.43 30.48 12.71 M 39.62 27.98 C 41.63 30.31 44.13 32.23 45.70 34.93 C 44.12 36.62 42.70 39.16 40.00 38.61 C 38.38 36.80 36.67 35.07 34.99 33.32 C 34.35 33.40 33.08 33.56 32.45 33.63 C 32.24 36.35 31.44 39.51 33.16 41.90 C 35.51 46.71 40.64 49.69 46.02 48.74 C 48.57 51.33 51.30 53.74 53.73 56.44 C 54.46 57.60 52.84 58.43 52.27 59.23 C 48.46 63.00 44.61 66.72 40.94 70.63 C 40.43 70.26 39.41 69.51 38.89 69.13 C 37.22 71.39 35.31 73.55 34.19 76.15 C 34.23 77.51 35.11 78.61 35.69 79.77 C 38.57 78.50 41.21 76.76 43.81 75.01 C 43.64 74.27 43.30 72.79 43.13 72.05 C 47.49 67.72 51.87 63.42 56.10 58.97 C 61.99 64.35 67.35 70.28 73.14 75.77 C 75.03 77.53 77.36 79.25 80.12 78.85 C 82.77 79.13 84.29 76.69 85.94 75.07 C 85.86 73.35 85.77 71.62 85.60 69.90 C 80.41 64.60 75.00 59.51 69.94 54.08 C 68.39 55.39 66.95 56.82 65.50 58.23 C 65.63 59.53 66.10 60.96 65.22 62.14 C 60.45 57.42 55.10 53.10 51.21 47.61 C 52.19 47.65 54.16 47.73 55.15 47.77 C 56.64 46.42 58.05 44.96 59.17 43.27 C 57.64 41.79 54.98 40.54 55.40 38.00 C 55.92 31.72 50.31 25.67 43.93 26.07 C 42.50 26.23 39.51 25.86 39.62 27.98 M 77.89 28.86 C 70.62 35.76 63.78 43.11 56.50 50.02 C 58.73 52.27 60.97 54.52 63.16 56.82 C 70.59 49.63 77.81 42.22 85.17 34.96 C 86.45 33.60 85.64 31.48 85.91 29.81 C 83.78 27.82 80.22 26.26 77.89 28.86 Z" />
<path fill="#000000" opacity="1.00" d=" M 80.99 30.36 C 82.16 30.23 83.69 31.43 82.50 32.54 C 78.32 37.02 73.85 41.21 69.56 45.58 C 67.41 47.65 65.50 50.04 62.93 51.62 C 62.63 50.81 62.37 49.99 62.14 49.16 C 68.60 43.09 74.83 36.75 80.99 30.36 Z" />
<path fill="#000000" opacity="1.00" d=" M 76.43 74.56 C 73.88 72.38 76.45 69.29 78.91 68.57 C 79.61 68.99 80.31 69.40 81.03 69.79 C 81.41 70.34 82.18 71.44 82.57 71.99 C 82.02 74.75 78.68 77.25 76.43 74.56 Z" />
</g>
<g id="#6f706fff">
<path fill="#6f706f" opacity="1.00" d=" M 33.21 10.21 C 48.79 9.70 64.40 10.17 80.00 9.98 C 87.32 9.78 94.69 12.13 100.49 16.62 C 108.27 22.54 113.10 32.18 113.01 41.98 C 112.95 61.35 113.09 80.72 112.94 100.08 C 112.27 116.04 97.97 129.87 82.00 129.98 C 66.33 129.98 50.65 130.08 34.99 129.94 C 19.03 129.31 5.18 115.05 5.01 99.09 C 4.99 79.72 4.99 60.35 5.01 40.98 C 5.16 25.61 17.94 11.76 33.21 10.21 M 30.48 12.71 C 17.50 15.43 7.26 27.62 7.04 40.91 C 6.98 60.30 6.97 79.69 7.04 99.08 C 7.20 113.95 20.10 127.24 34.95 127.90 C 47.31 128.12 59.68 127.94 72.04 128.00 C 78.66 127.91 85.58 128.60 91.84 125.96 C 103.15 121.71 111.20 110.10 110.98 97.99 C 110.99 78.96 111.06 59.94 110.95 40.91 C 110.80 26.03 97.89 12.76 83.05 12.09 C 70.38 11.88 57.70 12.06 45.03 12.00 C 40.18 12.09 35.26 11.66 30.48 12.71 Z" />
</g>
<g id="#f8fcf8ff">
<path fill="#f8fcf8" opacity="1.00" d=" M 39.62 27.98 C 39.51 25.86 42.50 26.23 43.93 26.07 C 50.31 25.67 55.92 31.72 55.40 38.00 C 54.98 40.54 57.64 41.79 59.17 43.27 C 58.05 44.96 56.64 46.42 55.15 47.77 C 54.16 47.73 52.19 47.65 51.21 47.61 C 55.10 53.10 60.45 57.42 65.22 62.14 C 66.10 60.96 65.63 59.53 65.50 58.23 C 66.95 56.82 68.39 55.39 69.94 54.08 C 75.00 59.51 80.41 64.60 85.60 69.90 C 85.77 71.62 85.86 73.35 85.94 75.07 C 84.29 76.69 82.77 79.13 80.12 78.85 C 77.36 79.25 75.03 77.53 73.14 75.77 C 67.35 70.28 61.99 64.35 56.10 58.97 C 51.87 63.42 47.49 67.72 43.13 72.05 C 43.30 72.79 43.64 74.27 43.81 75.01 C 41.21 76.76 38.57 78.50 35.69 79.77 C 35.11 78.61 34.23 77.51 34.19 76.15 C 35.31 73.55 37.22 71.39 38.89 69.13 C 39.41 69.51 40.43 70.26 40.94 70.63 C 44.61 66.72 48.46 63.00 52.27 59.23 C 52.84 58.43 54.46 57.60 53.73 56.44 C 51.30 53.74 48.57 51.33 46.02 48.74 C 40.64 49.69 35.51 46.71 33.16 41.90 C 31.44 39.51 32.24 36.35 32.45 33.63 C 33.08 33.56 34.35 33.40 34.99 33.32 C 36.67 35.07 38.38 36.80 40.00 38.61 C 42.70 39.16 44.12 36.62 45.70 34.93 C 44.13 32.23 41.63 30.31 39.62 27.98 M 76.43 74.56 C 78.68 77.25 82.02 74.75 82.57 71.99 C 82.18 71.44 81.41 70.34 81.03 69.79 C 80.31 69.40 79.61 68.99 78.91 68.57 C 76.45 69.29 73.88 72.38 76.43 74.56 Z" />
<path fill="#f8fcf8" opacity="1.00" d=" M 77.89 28.86 C 80.22 26.26 83.78 27.82 85.91 29.81 C 85.64 31.48 86.45 33.60 85.17 34.96 C 77.81 42.22 70.59 49.63 63.16 56.82 C 60.97 54.52 58.73 52.27 56.50 50.02 C 63.78 43.11 70.62 35.76 77.89 28.86 M 80.99 30.36 C 74.83 36.75 68.60 43.09 62.14 49.16 C 62.37 49.99 62.63 50.81 62.93 51.62 C 65.50 50.04 67.41 47.65 69.56 45.58 C 73.85 41.21 78.32 37.02 82.50 32.54 C 83.69 31.43 82.16 30.23 80.99 30.36 Z" />
</g>
</svg>
