<?xml version="1.0" encoding="UTF-8" ?>
<!DOCTYPE svg PUBLIC "-//W3C//DTD SVG 1.1//EN" "http://www.w3.org/Graphics/SVG/1.1/DTD/svg11.dtd">
<svg width="50px" height="50px" viewBox="0 0 50 50" version="1.1" xmlns="http://www.w3.org/2000/svg">
<g id="#000000ff">
<path fill="#000000" opacity="1.00" d=" M 0.00 0.00 L 11.16 0.00 C 11.02 5.89 11.13 11.77 11.09 17.66 C 8.76 17.68 6.42 17.69 4.09 17.71 C 4.43 22.52 3.66 27.44 4.53 32.19 C 7.18 34.82 11.28 33.31 14.58 33.66 C 17.51 36.56 20.44 39.45 23.38 42.33 C 19.70 42.32 16.03 42.31 12.35 42.34 C 12.37 44.89 12.38 47.45 12.35 50.00 L 0.00 50.00 L 0.00 0.00 Z" />
<path fill="#000000" opacity="1.00" d=" M 37.76 0.00 L 50.00 0.00 L 50.00 50.00 L 36.85 50.00 C 36.68 49.50 36.36 48.49 36.19 47.99 C 29.18 47.21 22.06 47.96 15.01 47.62 C 15.02 46.99 15.05 45.73 15.06 45.10 C 18.63 45.02 22.20 45.03 25.77 45.04 C 25.79 44.32 25.83 42.88 25.86 42.16 C 28.70 39.32 31.55 36.48 34.42 33.66 C 37.72 33.31 41.84 34.83 44.48 32.18 C 45.32 27.42 44.58 22.52 44.91 17.71 C 42.58 17.69 40.24 17.68 37.91 17.66 C 37.81 11.78 38.12 5.88 37.76 0.00 Z" />
<path fill="#000000" opacity="1.00" d=" M 13.75 3.05 C 20.91 3.03 28.08 2.94 35.24 3.05 C 35.22 8.79 35.36 14.53 35.14 20.27 C 37.42 20.32 39.70 20.33 41.99 20.38 C 41.92 23.93 41.96 27.48 41.88 31.04 C 30.26 30.84 18.64 31.18 7.03 30.90 C 7.08 27.39 7.09 23.88 7.01 20.37 C 13.75 20.24 20.48 20.36 27.22 20.32 C 27.22 19.66 27.22 18.34 27.22 17.68 C 22.73 17.68 18.23 17.66 13.73 17.70 C 13.74 15.90 13.75 14.10 13.76 12.30 C 18.25 12.34 22.73 12.32 27.22 12.32 C 27.22 11.66 27.22 10.34 27.22 9.68 C 22.73 9.68 18.23 9.67 13.73 9.70 C 13.74 7.48 13.75 5.26 13.75 3.05 M 24.10 21.98 C 23.62 23.04 23.16 24.11 22.71 25.18 C 23.93 23.96 25.11 22.50 27.05 22.93 C 27.26 26.00 23.36 26.55 22.76 29.36 C 24.50 29.39 26.25 29.39 28.00 29.40 C 28.00 29.14 28.00 28.63 28.00 28.37 C 27.00 28.36 25.00 28.33 24.00 28.31 C 25.44 27.01 27.86 26.22 27.98 23.96 C 28.03 21.76 25.57 22.21 24.10 21.98 Z" />
<path fill="#000000" opacity="1.00" d=" M 18.20 33.73 C 22.40 33.65 26.60 33.65 30.81 33.73 C 28.66 35.71 26.55 37.73 24.51 39.82 C 22.45 37.74 20.34 35.71 18.20 33.73 Z" />
</g>
<g id="#f7fbf7ff">
<path fill="#f7fbf7" opacity="1.00" d=" M 11.16 0.00 L 37.76 0.00 C 38.12 5.88 37.81 11.78 37.91 17.66 C 40.24 17.68 42.58 17.69 44.91 17.71 C 44.58 22.52 45.32 27.42 44.48 32.18 C 41.84 34.83 37.72 33.31 34.42 33.66 C 31.55 36.48 28.70 39.32 25.86 42.16 C 25.83 42.88 25.79 44.32 25.77 45.04 C 22.20 45.03 18.63 45.02 15.06 45.10 C 15.05 45.73 15.02 46.99 15.01 47.62 C 22.06 47.96 29.18 47.21 36.19 47.99 C 36.36 48.49 36.68 49.50 36.85 50.00 L 12.35 50.00 C 12.38 47.45 12.37 44.89 12.35 42.34 C 16.03 42.31 19.70 42.32 23.38 42.33 C 20.44 39.45 17.51 36.56 14.58 33.66 C 11.28 33.31 7.18 34.82 4.53 32.19 C 3.66 27.44 4.43 22.52 4.09 17.71 C 6.42 17.69 8.76 17.68 11.09 17.66 C 11.13 11.77 11.02 5.89 11.16 0.00 M 13.75 3.05 C 13.75 5.26 13.74 7.48 13.73 9.70 C 18.23 9.67 22.73 9.68 27.22 9.68 C 27.22 10.34 27.22 11.66 27.22 12.32 C 22.73 12.32 18.25 12.34 13.76 12.30 C 13.75 14.10 13.74 15.90 13.73 17.70 C 18.23 17.66 22.73 17.68 27.22 17.68 C 27.22 18.34 27.22 19.66 27.22 20.32 C 20.48 20.36 13.75 20.24 7.01 20.37 C 7.09 23.88 7.08 27.39 7.03 30.90 C 18.64 31.18 30.26 30.84 41.88 31.04 C 41.96 27.48 41.92 23.93 41.99 20.38 C 39.70 20.33 37.42 20.32 35.14 20.27 C 35.36 14.53 35.22 8.79 35.24 3.05 C 28.08 2.94 20.91 3.03 13.75 3.05 M 18.20 33.73 C 20.34 35.71 22.45 37.74 24.51 39.82 C 26.55 37.73 28.66 35.71 30.81 33.73 C 26.60 33.65 22.40 33.65 18.20 33.73 Z" />
<path fill="#f7fbf7" opacity="1.00" d=" M 24.10 21.98 C 25.57 22.21 28.03 21.76 27.98 23.96 C 27.86 26.22 25.44 27.01 24.00 28.31 C 25.00 28.33 27.00 28.36 28.00 28.37 C 28.00 28.63 28.00 29.14 28.00 29.40 C 26.25 29.39 24.50 29.39 22.76 29.36 C 23.36 26.55 27.26 26.00 27.05 22.93 C 25.11 22.50 23.93 23.96 22.71 25.18 C 23.16 24.11 23.62 23.04 24.10 21.98 Z" />
</g>
</svg>
