<?xml version="1.0" encoding="UTF-8" ?>
<!DOCTYPE svg PUBLIC "-//W3C//DTD SVG 1.1//EN" "http://www.w3.org/Graphics/SVG/1.1/DTD/svg11.dtd">
<svg width="150px" height="80px" viewBox="0 0 150 80" version="1.1" xmlns="http://www.w3.org/2000/svg">
<g id="#000000ff">
<path fill="#000000" opacity="1.00" d=" M 0.00 0.00 L 150.00 0.00 L 150.00 80.00 L 0.00 80.00 L 0.00 0.00 M 6.37 5.47 C 2.85 6.63 0.69 10.35 0.99 13.98 C 1.04 31.68 0.94 49.39 1.04 67.08 C 0.93 71.73 5.41 75.48 9.95 75.01 C 53.32 74.99 96.69 75.00 140.06 75.01 C 144.61 75.48 149.11 71.70 148.95 67.03 C 149.04 48.99 149.02 30.94 148.96 12.90 C 149.07 8.24 144.54 4.51 140.00 4.99 C 98.32 5.00 56.65 5.02 14.97 4.99 C 12.11 5.05 9.16 4.69 6.37 5.47 Z" />
<path fill="#000000" opacity="1.00" d=" M 7.19 7.30 C 9.44 6.82 11.76 7.01 14.04 6.98 C 56.06 7.03 98.07 6.98 140.09 7.00 C 143.55 6.59 147.08 9.28 146.95 12.90 C 147.09 30.27 146.93 47.64 147.03 65.00 C 147.86 69.26 144.50 73.70 139.97 73.01 C 97.30 73.01 54.63 72.96 11.96 73.03 C 9.71 72.97 7.16 73.28 5.30 71.74 C 3.50 70.45 2.93 68.14 2.99 66.04 C 3.00 48.67 3.00 31.30 2.99 13.93 C 2.77 11.11 4.30 8.04 7.19 7.30 M 37.47 33.52 C 36.60 34.14 35.76 34.81 34.96 35.52 C 35.75 37.22 37.46 38.25 38.76 39.55 C 40.15 38.09 41.66 36.76 43.19 35.45 C 44.17 36.38 45.15 37.32 46.13 38.25 C 46.96 37.46 47.79 36.66 48.62 35.86 C 47.69 34.97 46.77 34.08 45.84 33.19 C 47.55 31.20 46.86 28.33 49.51 26.86 C 44.33 25.28 40.40 29.98 37.47 33.52 M 51.47 34.37 C 47.61 38.22 43.48 41.80 39.72 45.74 C 37.83 47.32 40.81 50.11 42.40 48.41 C 46.52 44.80 50.33 40.85 54.33 37.12 C 58.74 38.84 64.12 34.16 62.25 29.57 C 60.89 30.76 59.57 31.99 58.26 33.22 C 57.36 32.35 56.45 31.50 55.55 30.64 C 56.83 29.40 58.10 28.15 59.36 26.89 C 54.98 25.01 49.63 29.83 51.47 34.37 M 49.72 42.76 C 51.81 44.92 53.90 47.07 56.03 49.18 C 57.37 47.90 58.71 46.60 60.03 45.29 C 57.82 43.29 55.58 41.31 53.36 39.32 C 52.15 40.46 50.93 41.61 49.72 42.76 Z" />
<path fill="#000000" opacity="1.00" d=" M 40.79 46.21 C 44.23 46.53 39.04 49.22 40.79 46.21 Z" />
</g>
<g id="#707370ff">
<path fill="#707370" opacity="1.00" d=" M 6.37 5.47 C 9.16 4.69 12.11 5.05 14.97 4.99 C 56.65 5.02 98.32 5.00 140.00 4.99 C 144.54 4.51 149.07 8.24 148.96 12.90 C 149.02 30.94 149.04 48.99 148.95 67.03 C 149.11 71.70 144.61 75.48 140.06 75.01 C 96.69 75.00 53.32 74.99 9.95 75.01 C 5.41 75.48 0.93 71.73 1.04 67.08 C 0.94 49.39 1.04 31.68 0.99 13.98 C 0.69 10.35 2.85 6.63 6.37 5.47 M 7.19 7.30 C 4.30 8.04 2.77 11.11 2.99 13.93 C 3.00 31.30 3.00 48.67 2.99 66.04 C 2.93 68.14 3.50 70.45 5.30 71.74 C 7.16 73.28 9.71 72.97 11.96 73.03 C 54.63 72.96 97.30 73.01 139.97 73.01 C 144.50 73.70 147.86 69.26 147.03 65.00 C 146.93 47.64 147.09 30.27 146.95 12.90 C 147.08 9.28 143.55 6.59 140.09 7.00 C 98.07 6.98 56.06 7.03 14.04 6.98 C 11.76 7.01 9.44 6.82 7.19 7.30 Z" />
</g>
<g id="#f8fcf8ff">
<path fill="#f8fcf8" opacity="1.00" d=" M 37.47 33.52 C 40.40 29.98 44.33 25.28 49.51 26.86 C 46.86 28.33 47.55 31.20 45.84 33.19 C 46.77 34.08 47.69 34.97 48.62 35.86 C 47.79 36.66 46.96 37.46 46.13 38.25 C 45.15 37.32 44.17 36.38 43.19 35.45 C 41.66 36.76 40.15 38.09 38.76 39.55 C 37.46 38.25 35.75 37.22 34.96 35.52 C 35.76 34.81 36.60 34.14 37.47 33.52 Z" />
<path fill="#f8fcf8" opacity="1.00" d=" M 51.47 34.37 C 49.63 29.83 54.98 25.01 59.36 26.89 C 58.10 28.15 56.83 29.40 55.55 30.64 C 56.45 31.50 57.36 32.35 58.26 33.22 C 59.57 31.99 60.89 30.76 62.25 29.57 C 64.12 34.16 58.74 38.84 54.33 37.12 C 50.33 40.85 46.52 44.80 42.40 48.41 C 40.81 50.11 37.83 47.32 39.72 45.74 C 43.48 41.80 47.61 38.22 51.47 34.37 M 40.79 46.21 C 39.04 49.22 44.23 46.53 40.79 46.21 Z" />
<path fill="#f8fcf8" opacity="1.00" d=" M 49.72 42.76 C 50.93 41.61 52.15 40.46 53.36 39.32 C 55.58 41.31 57.82 43.29 60.03 45.29 C 58.71 46.60 57.37 47.90 56.03 49.18 C 53.90 47.07 51.81 44.92 49.72 42.76 Z" />
</g>
</svg>
