<?xml version="1.0" encoding="UTF-8" ?>
<!DOCTYPE svg PUBLIC "-//W3C//DTD SVG 1.1//EN" "http://www.w3.org/Graphics/SVG/1.1/DTD/svg11.dtd">
<svg width="117px" height="140px" viewBox="0 0 117 140" version="1.1" xmlns="http://www.w3.org/2000/svg">
<g id="#000000ff">
<path fill="#000000" opacity="1.00" d=" M 0.00 0.00 L 117.00 0.00 L 117.00 140.00 L 0.00 140.00 L 0.00 0.00 M 33.15 10.24 C 17.91 11.80 5.19 25.64 5.03 40.98 C 4.96 59.99 5.02 78.99 5.00 98.00 C 4.95 106.86 8.85 115.62 15.40 121.57 C 21.45 127.21 29.76 130.23 38.01 130.02 C 53.02 129.92 68.04 130.14 83.05 129.91 C 98.99 129.27 112.84 114.98 112.96 99.02 C 113.05 80.00 112.98 60.97 112.99 41.94 C 113.04 32.86 108.92 23.89 102.06 17.95 C 95.82 12.36 87.34 9.63 79.02 9.98 C 63.73 10.18 48.42 9.67 33.15 10.24 Z" />
<path fill="#000000" opacity="1.00" d=" M 30.44 12.70 C 35.21 11.66 40.13 12.08 44.97 12.00 C 57.66 12.06 70.35 11.89 83.04 12.08 C 97.93 12.71 110.89 26.09 110.97 41.01 C 111.02 60.34 111.03 79.68 110.96 99.01 C 110.89 113.91 97.92 127.31 83.03 127.90 C 67.34 128.11 51.63 127.98 35.93 127.97 C 20.70 127.84 7.14 114.31 7.03 99.07 C 6.98 79.70 6.98 60.33 7.03 40.96 C 7.19 27.64 17.46 15.44 30.44 12.70 M 49.80 27.99 C 49.87 37.58 49.82 47.17 49.83 56.75 C 43.65 61.33 42.62 71.31 48.22 76.73 C 53.20 82.35 63.14 81.41 67.15 75.10 C 71.48 69.40 69.68 60.98 64.17 56.75 C 64.07 47.21 64.35 37.66 64.04 28.13 C 59.49 27.01 54.46 27.43 49.80 27.99 M 68.32 37.14 C 67.94 37.60 67.18 38.53 66.80 38.99 C 67.21 39.51 68.01 40.54 68.41 41.05 C 70.29 40.90 73.13 41.64 73.63 39.09 C 73.17 36.41 70.26 37.27 68.32 37.14 M 68.36 44.06 C 67.97 44.55 67.19 45.52 66.80 46.01 C 67.19 46.50 67.97 47.48 68.35 47.97 C 70.27 47.82 73.17 48.67 73.63 46.03 C 73.16 43.39 70.28 44.25 68.36 44.06 M 68.38 51.00 C 67.99 51.50 67.20 52.50 66.80 53.00 C 67.19 53.48 67.97 54.45 68.36 54.93 C 70.26 54.78 73.15 55.59 73.63 52.97 C 73.18 50.35 70.29 51.18 68.38 51.00 Z" />
<path fill="#000000" opacity="1.00" d=" M 53.38 31.21 C 55.79 31.27 58.21 31.27 60.62 31.21 C 60.14 40.36 60.60 49.53 60.37 58.69 C 66.57 61.59 67.79 71.23 62.02 75.15 C 57.59 78.44 50.37 76.29 48.83 70.90 C 46.95 66.32 49.34 60.92 53.63 58.69 C 53.41 49.53 53.86 40.36 53.38 31.21 M 55.00 37.00 C 54.88 44.66 55.23 52.32 55.06 59.97 C 52.84 61.84 49.70 63.62 49.84 66.97 C 49.33 70.26 51.81 72.96 54.42 74.52 C 59.52 76.84 65.43 71.13 64.06 65.93 C 63.66 63.07 60.82 61.71 58.93 59.94 C 58.77 52.30 59.12 44.65 59.00 37.00 C 57.67 37.00 56.33 37.00 55.00 37.00 Z" />
</g>
<g id="#747474ff">
<path fill="#747474" opacity="1.00" d=" M 33.15 10.24 C 48.42 9.67 63.73 10.18 79.02 9.98 C 87.34 9.63 95.82 12.36 102.06 17.95 C 108.92 23.89 113.04 32.86 112.99 41.94 C 112.98 60.97 113.05 80.00 112.96 99.02 C 112.84 114.98 98.99 129.27 83.05 129.91 C 68.04 130.14 53.02 129.92 38.01 130.02 C 29.76 130.23 21.45 127.21 15.40 121.57 C 8.85 115.62 4.95 106.86 5.00 98.00 C 5.02 78.99 4.96 59.99 5.03 40.98 C 5.19 25.64 17.91 11.80 33.15 10.24 M 30.44 12.70 C 17.46 15.44 7.19 27.64 7.03 40.96 C 6.98 60.33 6.98 79.70 7.03 99.07 C 7.14 114.31 20.70 127.84 35.93 127.97 C 51.63 127.98 67.34 128.11 83.03 127.90 C 97.92 127.31 110.89 113.91 110.96 99.01 C 111.03 79.68 111.02 60.34 110.97 41.01 C 110.89 26.09 97.93 12.71 83.04 12.08 C 70.35 11.89 57.66 12.06 44.97 12.00 C 40.13 12.08 35.21 11.66 30.44 12.70 Z" />
</g>
<g id="#f8fcf8ff">
<path fill="#f8fcf8" opacity="1.00" d=" M 49.80 27.99 C 54.46 27.43 59.49 27.01 64.04 28.13 C 64.35 37.66 64.07 47.21 64.17 56.75 C 69.68 60.98 71.48 69.40 67.15 75.10 C 63.14 81.41 53.20 82.35 48.22 76.73 C 42.62 71.31 43.65 61.33 49.83 56.75 C 49.82 47.17 49.87 37.58 49.80 27.99 M 53.38 31.21 C 53.86 40.36 53.41 49.53 53.63 58.69 C 49.34 60.92 46.95 66.32 48.83 70.90 C 50.37 76.29 57.59 78.44 62.02 75.15 C 67.79 71.23 66.57 61.59 60.37 58.69 C 60.60 49.53 60.14 40.36 60.62 31.21 C 58.21 31.27 55.79 31.27 53.38 31.21 Z" />
<path fill="#f8fcf8" opacity="1.00" d=" M 55.00 37.00 C 56.33 37.00 57.67 37.00 59.00 37.00 C 59.12 44.65 58.77 52.30 58.93 59.94 C 60.82 61.71 63.66 63.07 64.06 65.93 C 65.43 71.13 59.52 76.84 54.42 74.52 C 51.81 72.96 49.33 70.26 49.84 66.97 C 49.70 63.62 52.84 61.84 55.06 59.97 C 55.23 52.32 54.88 44.66 55.00 37.00 Z" />
<path fill="#f8fcf8" opacity="1.00" d=" M 68.32 37.14 C 70.26 37.27 73.17 36.41 73.63 39.09 C 73.13 41.64 70.29 40.90 68.41 41.05 C 68.01 40.54 67.21 39.51 66.80 38.99 C 67.18 38.53 67.94 37.60 68.32 37.14 Z" />
<path fill="#f8fcf8" opacity="1.00" d=" M 68.36 44.06 C 70.28 44.25 73.16 43.39 73.63 46.03 C 73.17 48.67 70.27 47.82 68.35 47.97 C 67.97 47.48 67.19 46.50 66.80 46.01 C 67.19 45.52 67.97 44.55 68.36 44.06 Z" />
<path fill="#f8fcf8" opacity="1.00" d=" M 68.38 51.00 C 70.29 51.18 73.18 50.35 73.63 52.97 C 73.15 55.59 70.26 54.78 68.36 54.93 C 67.97 54.45 67.19 53.48 66.80 53.00 C 67.20 52.50 67.99 51.50 68.38 51.00 Z" />
</g>
</svg>
