<?xml version="1.0" encoding="UTF-8" ?>
<!DOCTYPE svg PUBLIC "-//W3C//DTD SVG 1.1//EN" "http://www.w3.org/Graphics/SVG/1.1/DTD/svg11.dtd">
<svg width="70px" height="28px" viewBox="0 0 70 28" version="1.1" xmlns="http://www.w3.org/2000/svg">
<g id="#181818ff">
<path fill="#181818" opacity="1.00" d=" M 0.00 0.00 L 1.67 0.00 C 1.93 1.39 1.37 1.96 0.00 1.70 L 0.00 0.00 Z" />
<path fill="#181818" opacity="1.00" d=" M 68.30 0.00 L 70.00 0.00 L 70.00 1.67 C 68.61 1.93 68.04 1.37 68.30 0.00 Z" />
<path fill="#181818" opacity="1.00" d=" M 3.00 1.24 C 5.94 0.62 8.97 0.77 11.96 0.81 C 29.66 1.02 47.37 1.01 65.07 1.00 C 66.93 0.75 69.06 1.86 68.98 3.96 C 69.18 10.64 68.99 17.36 68.93 24.05 C 69.12 26.18 66.87 27.22 65.05 27.03 C 48.04 27.11 31.02 27.02 14.01 27.01 C 10.37 26.97 6.70 27.37 3.09 26.79 C 0.87 26.40 0.99 23.72 0.95 21.99 C 1.03 16.66 0.95 11.33 0.94 6.00 C 1.02 4.32 0.83 1.67 3.00 1.24 M 16.05 10.16 C 16.03 10.61 16.00 11.52 15.98 11.98 C 17.33 11.99 18.68 11.99 20.03 12.00 C 18.31 14.59 16.41 17.10 15.22 20.00 C 17.73 20.00 20.25 20.02 22.76 19.99 C 22.40 17.59 19.51 19.00 17.93 18.55 C 19.33 15.69 21.96 13.37 22.37 10.09 C 20.27 10.12 18.16 10.15 16.05 10.16 M 36.35 14.78 C 37.16 14.90 38.21 14.21 38.88 14.68 C 38.48 16.18 36.68 20.48 40.00 20.19 C 40.01 16.77 40.08 13.35 39.92 9.93 C 37.37 9.97 37.09 12.91 36.35 14.78 M 42.25 10.42 C 41.66 13.57 42.12 16.81 42.00 20.00 C 42.50 20.00 43.50 20.00 44.00 20.00 C 44.02 16.67 44.09 13.34 43.86 10.01 C 43.46 10.11 42.65 10.31 42.25 10.42 M 51.94 9.77 C 51.84 12.26 51.82 14.74 51.70 17.23 C 50.45 14.59 49.05 12.03 47.30 9.68 C 44.66 12.22 46.55 16.65 46.00 20.00 C 46.50 20.00 47.49 20.00 47.98 20.00 C 48.01 17.97 48.04 15.94 48.09 13.91 C 49.84 16.04 50.07 20.04 53.38 20.27 C 53.29 17.01 53.84 13.65 53.11 10.44 L 51.94 9.77 M 31.53 10.41 C 31.26 13.61 31.43 16.81 31.44 20.02 L 33.00 20.01 C 33.00 18.07 32.91 16.11 33.42 14.23 C 34.00 15.98 34.56 17.73 35.14 19.47 C 35.79 18.92 37.08 17.81 37.72 17.25 C 36.37 16.23 34.66 15.40 34.52 13.47 C 34.04 12.17 33.69 8.91 31.53 10.41 M 23.15 21.32 C 24.48 22.73 28.00 22.18 29.93 21.65 C 28.51 20.24 25.12 20.85 23.15 21.32 Z" />
<path fill="#181818" opacity="1.00" d=" M 0.00 26.34 C 1.40 26.08 1.97 26.63 1.71 28.00 L 0.00 28.00 L 0.00 26.34 Z" />
<path fill="#181818" opacity="1.00" d=" M 68.32 28.00 C 68.06 26.62 68.62 26.05 70.00 26.31 L 70.00 28.00 L 68.32 28.00 Z" />
</g>
<g id="#7f85dbff">
<path fill="#7f85db" opacity="1.00" d=" M 1.67 0.00 L 68.30 0.00 C 68.04 1.37 68.61 1.93 70.00 1.67 L 70.00 26.31 C 68.62 26.05 68.06 26.62 68.32 28.00 L 1.71 28.00 C 1.97 26.63 1.40 26.08 0.00 26.34 L 0.00 1.70 C 1.37 1.96 1.93 1.39 1.67 0.00 M 3.00 1.24 C 0.83 1.67 1.02 4.32 0.94 6.00 C 0.95 11.33 1.03 16.66 0.95 21.99 C 0.99 23.72 0.87 26.40 3.09 26.79 C 6.70 27.37 10.37 26.97 14.01 27.01 C 31.02 27.02 48.04 27.11 65.05 27.03 C 66.87 27.22 69.12 26.18 68.93 24.05 C 68.99 17.36 69.18 10.64 68.98 3.96 C 69.06 1.86 66.93 0.75 65.07 1.00 C 47.37 1.01 29.66 1.02 11.96 0.81 C 8.97 0.77 5.94 0.62 3.00 1.24 Z" />
<path fill="#7f85db" opacity="1.00" d=" M 16.05 10.16 C 18.16 10.15 20.27 10.12 22.37 10.09 C 21.96 13.37 19.33 15.69 17.93 18.55 C 19.51 19.00 22.40 17.59 22.76 19.99 C 20.25 20.02 17.73 20.00 15.22 20.00 C 16.41 17.10 18.31 14.59 20.03 12.00 C 18.68 11.99 17.33 11.99 15.98 11.98 C 16.00 11.52 16.03 10.61 16.05 10.16 Z" />
<path fill="#7f85db" opacity="1.00" d=" M 36.35 14.78 C 37.09 12.91 37.37 9.97 39.92 9.93 C 40.08 13.35 40.01 16.77 40.00 20.19 C 36.68 20.48 38.48 16.18 38.88 14.68 C 38.21 14.21 37.16 14.90 36.35 14.78 Z" />
<path fill="#7f85db" opacity="1.00" d=" M 42.25 10.42 C 42.65 10.31 43.46 10.11 43.86 10.01 C 44.09 13.34 44.02 16.67 44.00 20.00 C 43.50 20.00 42.50 20.00 42.00 20.00 C 42.12 16.81 41.66 13.57 42.25 10.42 Z" />
<path fill="#7f85db" opacity="1.00" d=" M 51.94 9.77 L 53.11 10.44 C 53.84 13.65 53.29 17.01 53.38 20.27 C 50.07 20.04 49.84 16.04 48.09 13.91 C 48.04 15.94 48.01 17.97 47.98 20.00 C 47.49 20.00 46.50 20.00 46.00 20.00 C 46.55 16.65 44.66 12.22 47.30 9.68 C 49.05 12.03 50.45 14.59 51.70 17.23 C 51.82 14.74 51.84 12.26 51.94 9.77 Z" />
<path fill="#7f85db" opacity="1.00" d=" M 31.53 10.41 C 33.69 8.91 34.04 12.17 34.52 13.47 C 34.66 15.40 36.37 16.23 37.72 17.25 C 37.08 17.81 35.79 18.92 35.14 19.47 C 34.56 17.73 34.00 15.98 33.42 14.23 C 32.91 16.11 33.00 18.07 33.00 20.01 L 31.44 20.02 C 31.43 16.81 31.26 13.61 31.53 10.41 Z" />
<path fill="#7f85db" opacity="1.00" d=" M 23.15 21.32 C 25.12 20.85 28.51 20.24 29.93 21.65 C 28.00 22.18 24.48 22.73 23.15 21.32 Z" />
</g>
</svg>
