<?xml version="1.0" encoding="UTF-8" ?>
<!DOCTYPE svg PUBLIC "-//W3C//DTD SVG 1.1//EN" "http://www.w3.org/Graphics/SVG/1.1/DTD/svg11.dtd">
<svg width="117px" height="140px" viewBox="0 0 117 140" version="1.1" xmlns="http://www.w3.org/2000/svg">
<g id="#000000ff">
<path fill="#000000" opacity="1.00" d=" M 0.00 0.00 L 117.00 0.00 L 117.00 140.00 L 0.00 140.00 L 0.00 0.00 M 33.17 10.21 C 17.95 11.77 5.21 25.57 5.02 40.90 C 4.96 59.93 5.02 78.95 4.99 97.98 C 4.88 108.31 10.25 118.44 18.74 124.28 C 24.34 128.19 31.20 130.20 38.02 130.02 C 53.04 129.91 68.06 130.13 83.08 129.92 C 99.01 129.26 112.85 115.02 112.97 99.06 C 113.04 80.04 112.98 61.02 113.00 42.00 C 113.13 30.95 106.94 20.15 97.44 14.55 C 91.92 11.18 85.38 9.72 78.95 9.98 C 63.69 10.17 48.42 9.70 33.17 10.21 Z" />
<path fill="#000000" opacity="1.00" d=" M 33.26 12.24 C 45.48 11.70 57.72 12.15 69.95 12.00 C 77.28 12.19 84.94 11.14 91.90 14.05 C 103.16 18.35 111.23 29.94 110.99 42.05 C 110.98 61.04 111.05 80.04 110.96 99.03 C 110.85 113.90 97.92 127.25 83.08 127.90 C 71.06 128.13 59.04 127.94 47.02 128.00 C 40.03 127.85 32.72 128.77 26.10 125.95 C 14.87 121.65 6.80 110.12 7.00 98.03 C 7.01 79.01 6.96 59.98 7.03 40.95 C 7.21 26.66 19.07 13.75 33.26 12.24 M 41.75 29.64 C 38.71 31.16 37.17 35.00 38.24 38.23 C 39.48 42.59 41.13 46.83 42.47 51.15 C 43.87 55.63 45.59 60.21 49.16 63.42 C 50.76 63.37 52.29 62.96 53.83 62.59 C 55.60 67.89 58.00 73.00 62.37 76.67 C 69.78 68.99 77.59 61.69 84.91 53.93 C 81.14 50.03 76.91 46.24 71.37 45.25 C 71.63 44.43 72.15 42.79 72.41 41.97 C 69.26 37.29 64.11 34.59 58.78 33.19 C 53.21 31.70 47.70 28.06 41.75 29.64 Z" />
<path fill="#000000" opacity="1.00" d=" M 41.03 37.06 C 40.03 34.22 42.63 32.38 44.97 31.59 C 49.55 33.36 54.26 34.76 58.94 36.24 C 60.15 36.92 61.48 37.37 62.84 37.67 C 65.63 38.10 67.31 40.58 69.62 41.92 C 68.27 43.43 66.84 44.86 65.47 46.34 C 70.85 48.20 76.78 49.16 80.99 53.30 C 75.25 60.12 68.38 65.90 62.38 72.49 C 57.98 68.35 57.17 62.05 55.15 56.64 C 53.71 58.04 52.28 59.45 50.85 60.86 C 49.39 59.34 47.90 57.77 47.28 55.71 C 44.93 49.59 42.96 43.31 41.03 37.06 Z" />
</g>
<g id="#6a6e6aff">
<path fill="#6a6e6a" opacity="1.00" d=" M 33.17 10.21 C 48.42 9.70 63.69 10.17 78.95 9.98 C 85.38 9.72 91.92 11.18 97.44 14.55 C 106.94 20.15 113.13 30.95 113.00 42.00 C 112.98 61.02 113.04 80.04 112.97 99.06 C 112.85 115.02 99.01 129.26 83.08 129.92 C 68.06 130.13 53.04 129.91 38.02 130.02 C 31.20 130.20 24.34 128.19 18.74 124.28 C 10.25 118.44 4.88 108.31 4.99 97.98 C 5.02 78.95 4.96 59.93 5.02 40.90 C 5.21 25.57 17.95 11.77 33.17 10.21 M 33.26 12.24 C 19.07 13.75 7.21 26.66 7.03 40.95 C 6.96 59.98 7.01 79.01 7.00 98.03 C 6.80 110.12 14.87 121.65 26.10 125.95 C 32.72 128.77 40.03 127.85 47.02 128.00 C 59.04 127.94 71.06 128.13 83.08 127.90 C 97.92 127.25 110.85 113.90 110.96 99.03 C 111.05 80.04 110.98 61.04 110.99 42.05 C 111.23 29.94 103.16 18.35 91.90 14.05 C 84.94 11.14 77.28 12.19 69.95 12.00 C 57.72 12.15 45.48 11.70 33.26 12.24 Z" />
</g>
<g id="#f7fbf7ff">
<path fill="#f7fbf7" opacity="1.00" d=" M 41.75 29.64 C 47.70 28.06 53.21 31.70 58.78 33.19 C 64.11 34.59 69.26 37.29 72.41 41.97 C 72.15 42.79 71.63 44.43 71.37 45.25 C 76.91 46.24 81.14 50.03 84.91 53.93 C 77.59 61.69 69.78 68.99 62.37 76.67 C 58.00 73.00 55.60 67.89 53.83 62.59 C 52.29 62.96 50.76 63.37 49.16 63.42 C 45.59 60.21 43.87 55.63 42.47 51.15 C 41.13 46.83 39.48 42.59 38.24 38.23 C 37.17 35.00 38.71 31.16 41.75 29.64 M 41.03 37.06 C 42.96 43.31 44.93 49.59 47.28 55.71 C 47.90 57.77 49.39 59.34 50.85 60.86 C 52.28 59.45 53.71 58.04 55.15 56.64 C 57.17 62.05 57.98 68.35 62.38 72.49 C 68.38 65.90 75.25 60.12 80.99 53.30 C 76.78 49.16 70.85 48.20 65.47 46.34 C 66.84 44.86 68.27 43.43 69.62 41.92 C 67.31 40.58 65.63 38.10 62.84 37.67 C 61.48 37.37 60.15 36.92 58.94 36.24 C 54.26 34.76 49.55 33.36 44.97 31.59 C 42.63 32.38 40.03 34.22 41.03 37.06 Z" />
</g>
</svg>
