<?xml version="1.0" encoding="UTF-8" ?>
<!DOCTYPE svg PUBLIC "-//W3C//DTD SVG 1.1//EN" "http://www.w3.org/Graphics/SVG/1.1/DTD/svg11.dtd">
<svg width="117px" height="140px" viewBox="0 0 117 140" version="1.1" xmlns="http://www.w3.org/2000/svg">
<g id="#000000ff">
<path fill="#000000" opacity="1.00" d=" M 0.00 0.00 L 117.00 0.00 L 117.00 140.00 L 0.00 140.00 L 0.00 0.00 M 33.14 10.23 C 17.90 11.80 5.18 25.65 5.02 40.99 C 4.98 60.32 4.99 79.65 5.02 98.98 C 5.14 114.97 18.99 129.28 34.96 129.92 C 50.65 130.08 66.35 130.00 82.04 129.97 C 98.00 129.83 112.27 116.00 112.92 100.06 C 113.10 80.71 112.95 61.35 113.00 42.00 C 113.06 33.38 109.38 24.83 103.12 18.91 C 97.03 12.98 88.50 9.77 80.02 9.98 C 64.40 10.17 48.75 9.68 33.14 10.23 Z" />
<path fill="#000000" opacity="1.00" d=" M 33.22 12.34 C 48.78 11.72 64.37 12.24 79.95 12.07 C 88.17 11.83 96.39 15.04 102.20 20.87 C 107.66 26.44 111.01 34.13 110.90 41.98 C 110.95 60.65 110.95 79.33 110.91 98.00 C 111.03 108.72 104.81 119.24 95.32 124.24 C 90.68 126.89 85.29 127.96 79.99 127.93 C 65.66 127.92 51.32 127.96 36.99 127.91 C 26.29 128.00 15.76 121.82 10.77 112.33 C 8.11 107.71 6.98 102.36 7.07 97.06 C 7.10 78.37 7.00 59.67 7.12 40.98 C 7.29 26.75 19.06 13.83 33.22 12.34 M 74.06 37.08 C 71.12 41.57 71.19 47.59 73.79 52.22 C 75.49 55.15 75.63 58.78 73.97 61.76 C 74.50 62.21 75.57 63.10 76.10 63.55 C 77.22 61.54 78.20 59.36 78.03 57.00 C 78.11 52.38 74.06 48.78 74.69 44.08 C 74.41 41.67 76.96 39.37 75.86 37.14 C 75.41 37.13 74.51 37.10 74.06 37.08 M 57.82 56.14 C 60.24 59.38 55.24 63.60 59.23 65.76 C 60.48 63.73 61.42 61.44 61.26 59.01 C 61.28 54.37 57.20 50.72 57.95 45.96 C 57.68 43.43 61.21 40.35 58.12 38.57 C 53.52 43.36 54.78 50.84 57.82 56.14 M 37.98 49.98 C 37.21 55.59 43.22 60.17 40.72 65.78 C 39.71 67.25 41.08 68.29 42.09 69.19 C 44.87 65.55 44.66 60.48 42.51 56.59 C 40.78 53.49 40.21 49.69 41.59 46.36 C 42.04 45.07 43.34 42.74 41.03 42.40 C 38.54 43.90 38.27 47.34 37.98 49.98 M 35.10 73.10 C 35.09 73.80 35.08 75.19 35.07 75.89 C 51.02 76.08 66.98 76.06 82.93 75.90 C 82.92 75.20 82.90 73.79 82.90 73.08 C 66.97 72.96 51.03 72.93 35.10 73.10 Z" />
</g>
<g id="#727372ff">
<path fill="#727372" opacity="1.00" d=" M 33.14 10.23 C 48.75 9.68 64.40 10.17 80.02 9.98 C 88.50 9.77 97.03 12.98 103.12 18.91 C 109.38 24.83 113.06 33.38 113.00 42.00 C 112.95 61.35 113.10 80.71 112.92 100.06 C 112.27 116.00 98.00 129.83 82.04 129.97 C 66.35 130.00 50.65 130.08 34.96 129.92 C 18.99 129.28 5.14 114.97 5.02 98.98 C 4.99 79.65 4.98 60.32 5.02 40.99 C 5.18 25.65 17.90 11.80 33.14 10.23 M 33.22 12.34 C 19.06 13.83 7.29 26.75 7.12 40.98 C 7.00 59.67 7.10 78.37 7.07 97.06 C 6.98 102.36 8.11 107.71 10.77 112.33 C 15.76 121.82 26.29 128.00 36.99 127.91 C 51.32 127.96 65.66 127.92 79.99 127.93 C 85.29 127.96 90.68 126.89 95.32 124.24 C 104.81 119.24 111.03 108.72 110.91 98.00 C 110.95 79.33 110.95 60.65 110.90 41.98 C 111.01 34.13 107.66 26.44 102.20 20.87 C 96.39 15.04 88.17 11.83 79.95 12.07 C 64.37 12.24 48.78 11.72 33.22 12.34 Z" />
</g>
<g id="#f8fcf8ff">
<path fill="#f8fcf8" opacity="1.00" d=" M 74.06 37.08 C 74.51 37.10 75.41 37.13 75.86 37.14 C 76.96 39.37 74.41 41.67 74.69 44.08 C 74.06 48.78 78.11 52.38 78.03 57.00 C 78.20 59.36 77.22 61.54 76.10 63.55 C 75.57 63.10 74.50 62.21 73.97 61.76 C 75.63 58.78 75.49 55.15 73.79 52.22 C 71.19 47.59 71.12 41.57 74.06 37.08 Z" />
<path fill="#f8fcf8" opacity="1.00" d=" M 57.82 56.14 C 54.78 50.84 53.52 43.36 58.12 38.57 C 61.21 40.35 57.68 43.43 57.95 45.96 C 57.20 50.72 61.28 54.37 61.26 59.01 C 61.42 61.44 60.48 63.73 59.23 65.76 C 55.24 63.60 60.24 59.38 57.82 56.14 Z" />
<path fill="#f8fcf8" opacity="1.00" d=" M 37.98 49.98 C 38.27 47.34 38.54 43.90 41.03 42.40 C 43.34 42.74 42.04 45.07 41.59 46.36 C 40.21 49.69 40.78 53.49 42.51 56.59 C 44.66 60.48 44.87 65.55 42.09 69.19 C 41.08 68.29 39.71 67.25 40.72 65.78 C 43.22 60.17 37.21 55.59 37.98 49.98 Z" />
<path fill="#f8fcf8" opacity="1.00" d=" M 35.10 73.10 C 51.03 72.93 66.97 72.96 82.90 73.08 C 82.90 73.79 82.92 75.20 82.93 75.90 C 66.98 76.06 51.02 76.08 35.07 75.89 C 35.08 75.19 35.09 73.80 35.10 73.10 Z" />
</g>
</svg>
