<?xml version="1.0" encoding="UTF-8" ?>
<!DOCTYPE svg PUBLIC "-//W3C//DTD SVG 1.1//EN" "http://www.w3.org/Graphics/SVG/1.1/DTD/svg11.dtd">
<svg width="117px" height="140px" viewBox="0 0 117 140" version="1.1" xmlns="http://www.w3.org/2000/svg">
<g id="#000000ff">
<path fill="#000000" opacity="1.00" d=" M 0.00 0.00 L 117.00 0.00 L 117.00 140.00 L 0.00 140.00 L 0.00 0.00 M 33.13 10.23 C 17.89 11.80 5.17 25.66 5.02 41.00 C 5.02 60.69 4.92 80.39 5.06 100.07 C 5.75 116.02 20.01 129.85 35.98 129.98 C 51.69 129.98 67.41 130.09 83.11 129.92 C 99.02 129.24 112.83 114.99 112.98 99.06 C 112.99 79.35 113.08 59.62 112.93 39.90 C 112.25 23.97 98.00 10.19 82.06 10.02 C 65.75 10.11 49.42 9.72 33.13 10.23 Z" />
<path fill="#000000" opacity="1.00" d=" M 30.46 12.71 C 34.87 11.71 39.43 12.05 43.92 12.00 C 56.97 12.06 70.02 11.88 83.07 12.09 C 97.94 12.76 110.85 26.09 110.96 40.98 C 111.02 60.34 111.03 79.70 110.96 99.06 C 110.85 114.32 97.26 127.86 82.00 127.95 C 66.66 128.04 51.31 128.01 35.96 127.97 C 20.70 127.83 7.13 114.28 7.03 99.00 C 6.98 79.66 6.98 60.32 7.03 40.97 C 7.21 27.66 17.47 15.44 30.46 12.71 M 34.59 44.70 C 32.52 46.42 29.58 47.91 29.53 50.99 C 30.05 55.49 35.11 57.06 37.95 59.93 C 40.10 62.30 43.29 61.24 46.00 60.88 C 46.00 58.25 46.00 55.63 46.00 53.00 C 48.00 53.00 50.00 53.00 52.00 53.00 C 52.00 52.25 52.00 50.75 52.00 50.00 C 50.00 50.00 48.00 50.00 46.00 50.00 C 46.00 47.04 46.00 44.08 46.00 41.12 C 44.05 40.98 42.08 40.21 40.13 40.68 C 38.06 41.68 36.47 43.41 34.59 44.70 M 70.99 41.08 C 71.01 44.05 71.00 47.03 71.00 50.00 C 68.67 50.00 66.33 50.00 64.00 50.00 C 64.00 50.75 64.00 52.25 64.00 53.00 C 66.33 53.00 68.67 53.00 71.00 53.00 C 71.00 55.63 71.00 58.27 70.99 60.90 C 73.59 61.80 76.53 61.75 78.49 59.58 C 81.21 56.87 85.98 55.35 86.47 51.06 C 85.99 46.52 80.89 44.95 78.04 42.06 C 76.18 39.99 73.38 40.44 70.99 41.08 M 53.00 50.00 C 53.00 50.75 53.00 52.25 53.00 53.00 C 53.75 53.00 55.25 53.00 56.00 53.00 C 56.00 52.25 56.00 50.75 56.00 50.00 C 55.25 50.00 53.75 50.00 53.00 50.00 M 57.00 50.00 C 57.00 50.75 57.00 52.25 57.00 53.00 C 59.00 53.00 61.00 53.00 63.00 53.00 C 63.00 52.25 63.00 50.75 63.00 50.00 C 61.00 50.00 59.00 50.00 57.00 50.00 Z" />
<path fill="#000000" opacity="1.00" d=" M 33.01 51.00 C 36.00 48.67 39.01 46.35 42.00 44.01 C 42.00 48.66 42.01 53.32 41.99 57.97 C 38.99 55.65 36.00 53.33 33.01 51.00 Z" />
<path fill="#000000" opacity="1.00" d=" M 75.00 44.81 C 77.67 46.86 80.33 48.93 82.99 51.00 C 80.33 53.07 77.67 55.13 75.00 57.19 C 75.00 53.06 75.00 48.94 75.00 44.81 Z" />
</g>
<g id="#717271ff">
<path fill="#717271" opacity="1.00" d=" M 33.13 10.23 C 49.42 9.72 65.75 10.11 82.06 10.02 C 98.00 10.19 112.25 23.97 112.93 39.90 C 113.08 59.62 112.99 79.35 112.98 99.06 C 112.83 114.99 99.02 129.24 83.11 129.92 C 67.41 130.09 51.69 129.98 35.98 129.98 C 20.01 129.85 5.75 116.02 5.06 100.07 C 4.92 80.39 5.02 60.69 5.02 41.00 C 5.17 25.66 17.89 11.80 33.13 10.23 M 30.46 12.71 C 17.47 15.44 7.21 27.66 7.03 40.97 C 6.98 60.32 6.98 79.66 7.03 99.00 C 7.13 114.28 20.70 127.83 35.96 127.97 C 51.31 128.01 66.66 128.04 82.00 127.95 C 97.26 127.86 110.85 114.32 110.96 99.06 C 111.03 79.70 111.02 60.34 110.96 40.98 C 110.85 26.09 97.94 12.76 83.07 12.09 C 70.02 11.88 56.97 12.06 43.92 12.00 C 39.43 12.05 34.87 11.71 30.46 12.71 Z" />
</g>
<g id="#f8fcf8ff">
<path fill="#f8fcf8" opacity="1.00" d=" M 34.59 44.70 C 36.47 43.41 38.06 41.68 40.13 40.68 C 42.08 40.21 44.05 40.98 46.00 41.12 C 46.00 44.08 46.00 47.04 46.00 50.00 C 48.00 50.00 50.00 50.00 52.00 50.00 C 52.00 50.75 52.00 52.25 52.00 53.00 C 50.00 53.00 48.00 53.00 46.00 53.00 C 46.00 55.63 46.00 58.25 46.00 60.88 C 43.29 61.24 40.10 62.30 37.95 59.93 C 35.11 57.06 30.05 55.49 29.53 50.99 C 29.58 47.91 32.52 46.42 34.59 44.70 M 33.01 51.00 C 36.00 53.33 38.99 55.65 41.99 57.97 C 42.01 53.32 42.00 48.66 42.00 44.01 C 39.01 46.35 36.00 48.67 33.01 51.00 Z" />
<path fill="#f8fcf8" opacity="1.00" d=" M 70.99 41.08 C 73.38 40.44 76.18 39.99 78.04 42.06 C 80.89 44.95 85.99 46.52 86.47 51.06 C 85.98 55.35 81.21 56.87 78.49 59.58 C 76.53 61.75 73.59 61.80 70.99 60.90 C 71.00 58.27 71.00 55.63 71.00 53.00 C 68.67 53.00 66.33 53.00 64.00 53.00 C 64.00 52.25 64.00 50.75 64.00 50.00 C 66.33 50.00 68.67 50.00 71.00 50.00 C 71.00 47.03 71.01 44.05 70.99 41.08 M 75.00 44.81 C 75.00 48.94 75.00 53.06 75.00 57.19 C 77.67 55.13 80.33 53.07 82.99 51.00 C 80.33 48.93 77.67 46.86 75.00 44.81 Z" />
<path fill="#f8fcf8" opacity="1.00" d=" M 53.00 50.00 C 53.75 50.00 55.25 50.00 56.00 50.00 C 56.00 50.75 56.00 52.25 56.00 53.00 C 55.25 53.00 53.75 53.00 53.00 53.00 C 53.00 52.25 53.00 50.75 53.00 50.00 Z" />
<path fill="#f8fcf8" opacity="1.00" d=" M 57.00 50.00 C 59.00 50.00 61.00 50.00 63.00 50.00 C 63.00 50.75 63.00 52.25 63.00 53.00 C 61.00 53.00 59.00 53.00 57.00 53.00 C 57.00 52.25 57.00 50.75 57.00 50.00 Z" />
</g>
</svg>
