<?xml version="1.0" encoding="UTF-8" ?>
<!DOCTYPE svg PUBLIC "-//W3C//DTD SVG 1.1//EN" "http://www.w3.org/Graphics/SVG/1.1/DTD/svg11.dtd">
<svg width="117px" height="140px" viewBox="0 0 117 140" version="1.1" xmlns="http://www.w3.org/2000/svg">
<g id="#000000ff">
<path fill="#000000" opacity="1.00" d=" M 0.00 0.00 L 117.00 0.00 L 117.00 140.00 L 0.00 140.00 L 0.00 0.00 M 27.26 11.66 C 18.27 14.02 11.08 20.89 6.99 29.08 C 6.16 31.67 5.39 34.27 4.60 36.87 C 4.19 44.88 4.46 52.91 4.38 60.93 C 4.51 74.97 4.12 89.01 4.60 103.05 C 5.39 105.68 6.16 108.32 6.98 110.95 C 12.12 121.62 23.00 129.40 35.00 129.59 C 50.34 129.63 65.68 129.65 81.03 129.58 C 93.00 129.36 103.96 121.63 109.02 110.92 C 109.85 108.33 110.62 105.71 111.40 103.11 C 111.90 83.07 111.47 63.02 111.63 42.98 C 111.84 38.20 110.66 33.52 108.96 29.10 C 108.07 27.53 107.19 25.95 106.32 24.36 C 102.83 19.55 98.23 15.67 92.93 12.98 C 88.75 11.59 84.44 10.29 79.99 10.39 C 67.99 10.36 56.00 10.40 44.01 10.38 C 38.41 10.42 32.68 9.95 27.26 11.66 Z" />
<path fill="#000000" opacity="1.00" d=" M 31.82 11.62 C 49.26 11.64 66.70 11.59 84.15 11.64 C 85.74 12.07 87.34 12.46 88.96 12.82 C 100.65 16.54 109.78 27.62 110.40 39.96 C 110.36 60.97 110.41 81.99 110.37 103.00 C 107.88 114.07 99.91 123.82 88.88 127.19 C 87.30 127.55 85.73 127.94 84.17 128.36 C 66.72 128.39 49.28 128.40 31.83 128.36 C 30.24 127.93 28.65 127.54 27.04 127.18 C 20.77 124.97 15.01 121.11 11.20 115.59 C 8.59 112.13 7.27 107.98 5.89 103.94 C 5.24 83.64 5.84 63.32 5.58 43.01 C 4.83 29.93 13.88 17.31 26.20 13.16 C 28.08 12.65 29.95 12.15 31.82 11.62 M 37.59 42.00 C 37.59 50.67 37.59 59.33 37.59 68.00 C 44.86 68.00 52.14 68.00 59.41 68.00 C 59.41 66.00 59.41 64.00 59.41 62.00 C 55.07 62.00 50.74 62.00 46.40 61.99 C 46.40 60.67 46.39 59.34 46.39 58.03 C 49.92 58.00 53.46 58.00 57.00 58.00 C 57.00 55.86 57.00 53.73 57.00 51.59 C 53.46 51.59 49.93 51.59 46.39 51.61 C 46.39 50.54 46.39 49.46 46.39 48.39 C 50.60 48.41 54.80 48.41 59.00 48.41 C 59.00 46.27 59.00 44.14 59.00 42.00 C 51.87 42.00 44.73 42.00 37.59 42.00 M 62.19 54.89 C 63.77 60.29 69.82 60.47 74.17 62.25 C 74.86 65.01 71.60 63.98 69.97 64.34 C 69.79 63.74 69.43 62.54 69.25 61.94 C 66.71 61.98 64.16 62.03 61.61 62.16 C 62.58 64.11 63.43 66.48 65.67 67.29 C 69.67 68.88 74.26 68.75 78.25 67.22 C 81.31 66.11 83.09 61.86 80.92 59.18 C 77.95 55.64 72.27 56.90 69.38 53.29 C 70.29 53.14 72.10 52.86 73.01 52.71 C 73.36 53.19 74.06 54.16 74.41 54.64 C 76.75 54.62 79.09 54.60 81.43 54.55 C 80.62 52.84 80.15 50.62 78.19 49.84 C 72.74 47.19 63.84 47.94 62.19 54.89 Z" />
</g>
<g id="#e76010ff">
<path fill="#e76010" opacity="1.00" d=" M 27.26 11.66 C 32.68 9.95 38.41 10.42 44.01 10.38 C 56.00 10.40 67.99 10.36 79.99 10.39 C 84.44 10.29 88.75 11.59 92.93 12.98 C 98.23 15.67 102.83 19.55 106.32 24.36 C 107.19 25.95 108.07 27.53 108.96 29.10 C 110.66 33.52 111.84 38.20 111.63 42.98 C 111.47 63.02 111.90 83.07 111.40 103.11 C 110.62 105.71 109.85 108.33 109.02 110.92 C 103.96 121.63 93.00 129.36 81.03 129.58 C 65.68 129.65 50.34 129.63 35.00 129.59 C 23.00 129.40 12.12 121.62 6.98 110.95 C 6.16 108.32 5.39 105.68 4.60 103.05 C 4.12 89.01 4.51 74.97 4.38 60.93 C 4.46 52.91 4.19 44.88 4.60 36.87 C 5.39 34.27 6.16 31.67 6.99 29.08 C 11.08 20.89 18.27 14.02 27.26 11.66 M 31.82 11.62 C 29.95 12.15 28.08 12.65 26.20 13.16 C 13.88 17.31 4.83 29.93 5.58 43.01 C 5.84 63.32 5.24 83.64 5.89 103.94 C 7.27 107.98 8.59 112.13 11.20 115.59 C 15.01 121.11 20.77 124.97 27.04 127.18 C 28.65 127.54 30.24 127.93 31.83 128.36 C 49.28 128.40 66.72 128.39 84.17 128.36 C 85.73 127.94 87.30 127.55 88.88 127.19 C 99.91 123.82 107.88 114.07 110.37 103.00 C 110.41 81.99 110.36 60.97 110.40 39.96 C 109.78 27.62 100.65 16.54 88.96 12.82 C 87.34 12.46 85.74 12.07 84.15 11.64 C 66.70 11.59 49.26 11.64 31.82 11.62 Z" />
<path fill="#e76010" opacity="1.00" d=" M 37.59 42.00 C 44.73 42.00 51.87 42.00 59.00 42.00 C 59.00 44.14 59.00 46.27 59.00 48.41 C 54.80 48.41 50.60 48.41 46.39 48.39 C 46.39 49.46 46.39 50.54 46.39 51.61 C 49.93 51.59 53.46 51.59 57.00 51.59 C 57.00 53.73 57.00 55.86 57.00 58.00 C 53.46 58.00 49.92 58.00 46.39 58.03 C 46.39 59.34 46.40 60.67 46.40 61.99 C 50.74 62.00 55.07 62.00 59.41 62.00 C 59.41 64.00 59.41 66.00 59.41 68.00 C 52.14 68.00 44.86 68.00 37.59 68.00 C 37.59 59.33 37.59 50.67 37.59 42.00 Z" />
<path fill="#e76010" opacity="1.00" d=" M 62.19 54.89 C 63.84 47.94 72.74 47.19 78.19 49.84 C 80.15 50.62 80.62 52.84 81.43 54.55 C 79.09 54.60 76.75 54.62 74.41 54.64 C 74.06 54.16 73.36 53.19 73.01 52.71 C 72.10 52.86 70.29 53.14 69.38 53.29 C 72.27 56.90 77.95 55.64 80.92 59.18 C 83.09 61.86 81.31 66.11 78.25 67.22 C 74.26 68.75 69.67 68.88 65.67 67.29 C 63.43 66.48 62.58 64.11 61.61 62.16 C 64.16 62.03 66.71 61.98 69.25 61.94 C 69.43 62.54 69.79 63.74 69.97 64.34 C 71.60 63.98 74.86 65.01 74.17 62.25 C 69.82 60.47 63.77 60.29 62.19 54.89 Z" />
</g>
</svg>
