<?xml version="1.0" encoding="UTF-8" ?>
<!DOCTYPE svg PUBLIC "-//W3C//DTD SVG 1.1//EN" "http://www.w3.org/Graphics/SVG/1.1/DTD/svg11.dtd">
<svg width="117px" height="140px" viewBox="0 0 117 140" version="1.1" xmlns="http://www.w3.org/2000/svg">
<g id="#000000ff">
<path fill="#000000" opacity="1.00" d=" M 0.00 0.00 L 117.00 0.00 L 117.00 140.00 L 0.00 140.00 L 0.00 0.00 M 38.22 33.33 C 35.21 33.58 31.58 35.58 31.79 39.04 C 31.73 48.69 31.77 58.35 31.77 68.00 C 31.52 70.97 33.78 74.44 37.04 74.18 C 51.68 74.19 66.32 74.21 80.96 74.16 C 84.19 74.30 85.59 70.65 85.47 67.95 C 85.49 59.67 85.54 51.38 85.46 43.10 C 85.68 39.63 82.31 37.11 79.10 37.07 C 70.35 36.84 61.58 37.21 52.83 36.88 C 48.29 34.65 43.44 32.47 38.22 33.33 Z" />
</g>
<g id="#f8bf62ff">
<path fill="#f8bf62" opacity="1.00" d=" M 38.22 33.33 C 43.44 32.47 48.29 34.65 52.83 36.88 C 61.58 37.21 70.35 36.84 79.10 37.07 C 82.31 37.11 85.68 39.63 85.46 43.10 C 85.54 51.38 85.49 59.67 85.47 67.95 C 85.59 70.65 84.19 74.30 80.96 74.16 C 66.32 74.21 51.68 74.19 37.04 74.18 C 33.78 74.44 31.52 70.97 31.77 68.00 C 31.77 58.35 31.73 48.69 31.79 39.04 C 31.58 35.58 35.21 33.58 38.22 33.33 Z" />
</g>
</svg>
