<?xml version="1.0" encoding="UTF-8" ?>
<!DOCTYPE svg PUBLIC "-//W3C//DTD SVG 1.1//EN" "http://www.w3.org/Graphics/SVG/1.1/DTD/svg11.dtd">
<svg width="50px" height="50px" viewBox="0 0 50 50" version="1.1" xmlns="http://www.w3.org/2000/svg">
<g id="#000000ff">
<path fill="#000000" opacity="1.00" d=" M 0.00 0.00 L 50.00 0.00 L 50.00 50.00 L 0.00 50.00 L 0.00 0.00 M 40.05 5.22 C 37.04 9.61 37.25 15.64 39.78 20.22 C 41.50 23.14 41.63 26.78 39.97 29.76 C 40.50 30.21 41.56 31.10 42.09 31.54 C 43.22 29.54 44.21 27.34 44.02 24.98 C 44.14 20.65 40.50 17.31 40.67 12.98 C 40.36 10.16 42.48 7.73 42.10 4.93 C 41.59 5.00 40.56 5.15 40.05 5.22 M 21.40 11.91 C 20.05 16.57 22.43 20.92 24.14 25.08 C 25.80 28.15 21.36 31.84 25.26 33.74 C 27.57 30.35 27.91 25.82 26.06 22.15 C 24.49 19.08 23.17 15.56 24.29 12.10 C 24.56 10.44 26.29 8.67 24.96 7.09 C 22.34 6.68 22.01 10.06 21.40 11.91 M 5.67 11.59 C 3.18 16.05 3.57 21.66 6.05 26.04 C 7.71 28.93 7.70 32.47 6.10 35.38 C 6.88 35.95 7.68 36.50 8.49 37.04 C 10.82 32.95 10.56 27.92 8.19 23.91 C 5.97 20.11 6.81 15.56 8.51 11.75 C 7.60 10.08 6.65 10.03 5.67 11.59 M 1.06 41.14 C 1.07 41.83 1.09 43.20 1.09 43.88 C 17.03 44.08 32.98 44.09 48.92 43.87 C 48.92 43.19 48.92 41.82 48.92 41.13 C 32.98 40.92 17.01 40.90 1.06 41.14 Z" />
</g>
<g id="#f8fcf8ff">
<path fill="#f8fcf8" opacity="1.00" d=" M 40.05 5.22 C 40.56 5.15 41.59 5.00 42.10 4.93 C 42.48 7.73 40.36 10.16 40.67 12.98 C 40.50 17.31 44.14 20.65 44.02 24.98 C 44.21 27.34 43.22 29.54 42.09 31.54 C 41.56 31.10 40.50 30.21 39.97 29.76 C 41.63 26.78 41.50 23.14 39.78 20.22 C 37.25 15.64 37.04 9.61 40.05 5.22 Z" />
<path fill="#f8fcf8" opacity="1.00" d=" M 21.40 11.91 C 22.01 10.06 22.34 6.68 24.96 7.09 C 26.29 8.67 24.56 10.44 24.29 12.10 C 23.17 15.56 24.49 19.08 26.06 22.15 C 27.91 25.82 27.57 30.35 25.26 33.74 C 21.36 31.84 25.80 28.15 24.14 25.08 C 22.43 20.92 20.05 16.57 21.40 11.91 Z" />
<path fill="#f8fcf8" opacity="1.00" d=" M 5.67 11.59 C 6.65 10.03 7.60 10.08 8.51 11.75 C 6.81 15.56 5.97 20.11 8.19 23.91 C 10.56 27.92 10.82 32.95 8.49 37.04 C 7.68 36.50 6.88 35.95 6.10 35.38 C 7.70 32.47 7.71 28.93 6.05 26.04 C 3.57 21.66 3.18 16.05 5.67 11.59 Z" />
<path fill="#f8fcf8" opacity="1.00" d=" M 1.06 41.14 C 17.01 40.90 32.98 40.92 48.92 41.13 C 48.92 41.82 48.92 43.19 48.92 43.87 C 32.98 44.09 17.03 44.08 1.09 43.88 C 1.09 43.20 1.07 41.83 1.06 41.14 Z" />
</g>
</svg>
