<?xml version="1.0" encoding="UTF-8" ?>
<!DOCTYPE svg PUBLIC "-//W3C//DTD SVG 1.1//EN" "http://www.w3.org/Graphics/SVG/1.1/DTD/svg11.dtd">
<svg width="28px" height="21px" viewBox="0 0 28 21" version="1.1" xmlns="http://www.w3.org/2000/svg">
<g id="#000000ff">
<path fill="#000000" opacity="1.00" d=" M 0.00 0.00 L 11.96 0.00 L 13.22 0.52 C 8.53 4.37 4.20 9.58 0.00 13.30 L 0.00 0.00 Z" />
<path fill="#000000" opacity="1.00" d=" M 13.43 0.00 L 28.00 0.00 L 28.00 21.00 L 19.06 21.00 C 19.07 18.51 19.05 16.02 19.07 13.53 C 21.73 13.48 24.38 13.54 27.04 13.51 C 22.54 8.97 18.11 4.35 13.43 0.00 Z" />
<path fill="#000000" opacity="1.00" d=" M 4.88 11.43 C 7.84 8.67 10.49 5.28 13.71 2.96 C 16.48 5.81 19.35 8.57 22.12 11.43 C 20.48 11.42 18.84 11.42 17.20 11.43 C 16.96 13.94 17.19 16.47 17.09 18.99 C 14.70 19.01 12.30 19.01 9.91 18.99 C 9.82 16.47 10.04 13.94 9.80 11.43 C 8.16 11.42 6.52 11.42 4.88 11.43 Z" />
<path fill="#000000" opacity="1.00" d=" M 0.00 13.68 C 2.61 13.30 5.29 13.59 7.93 13.53 C 7.95 16.02 7.93 18.51 7.94 21.00 L 0.00 21.00 L 0.00 13.68 Z" />
</g>
<g id="#f8fcf8ff">
<path fill="#f8fcf8" opacity="1.00" d=" M 11.96 0.00 L 13.43 0.00 C 18.11 4.35 22.54 8.97 27.04 13.51 C 24.38 13.54 21.73 13.48 19.07 13.53 C 19.05 16.02 19.07 18.51 19.06 21.00 L 7.94 21.00 C 7.93 18.51 7.95 16.02 7.93 13.53 C 5.29 13.59 2.61 13.30 0.00 13.68 L 0.00 13.30 C 4.20 9.58 8.53 4.37 13.22 0.52 L 11.96 0.00 M 4.88 11.43 C 6.52 11.42 8.16 11.42 9.80 11.43 C 10.04 13.94 9.82 16.47 9.91 18.99 C 12.30 19.01 14.70 19.01 17.09 18.99 C 17.19 16.47 16.96 13.94 17.20 11.43 C 18.84 11.42 20.48 11.42 22.12 11.43 C 19.35 8.57 16.48 5.81 13.71 2.96 C 10.49 5.28 7.84 8.67 4.88 11.43 Z" />
</g>
</svg>
