<?xml version="1.0" encoding="UTF-8" ?>
<!DOCTYPE svg PUBLIC "-//W3C//DTD SVG 1.1//EN" "http://www.w3.org/Graphics/SVG/1.1/DTD/svg11.dtd">
<svg width="117px" height="140px" viewBox="0 0 117 140" version="1.1" xmlns="http://www.w3.org/2000/svg">
<g id="#000000ff">
<path fill="#000000" opacity="1.00" d=" M 0.00 0.00 L 117.00 0.00 L 117.00 140.00 L 0.00 140.00 L 0.00 0.00 M 33.14 10.24 C 17.91 11.81 5.19 25.65 5.03 40.98 C 4.96 60.02 5.02 79.05 5.00 98.09 C 4.96 107.87 9.77 117.49 17.55 123.39 C 23.33 127.85 30.65 130.18 37.95 130.02 C 52.98 129.92 68.01 130.13 83.04 129.91 C 98.99 129.27 112.84 115.00 112.96 99.02 C 113.05 80.00 112.99 60.98 112.99 41.95 C 113.08 31.16 107.18 20.60 98.02 14.92 C 92.40 11.34 85.67 9.74 79.03 9.98 C 63.74 10.18 48.42 9.67 33.14 10.24 Z" />
<path fill="#000000" opacity="1.00" d=" M 30.44 12.69 C 35.23 11.64 40.16 12.08 45.02 12.00 C 57.68 12.05 70.34 11.90 83.00 12.08 C 97.90 12.70 110.88 26.06 110.96 40.99 C 111.02 60.36 111.03 79.73 110.96 99.09 C 110.85 114.33 97.27 127.87 82.04 127.95 C 66.69 128.04 51.33 128.01 35.98 127.97 C 20.72 127.86 7.12 114.31 7.03 99.03 C 6.98 79.68 6.99 60.33 7.03 40.97 C 7.18 27.66 17.46 15.44 30.44 12.69 M 33.22 39.70 C 34.25 40.65 35.28 41.61 36.32 42.57 C 47.29 31.52 66.83 31.57 77.86 42.51 C 78.86 41.42 79.83 40.32 80.84 39.24 C 75.48 34.77 69.13 31.22 62.10 30.42 C 51.73 28.91 40.63 32.16 33.22 39.70 M 39.90 46.10 C 41.12 47.29 42.32 48.51 43.59 49.65 C 50.61 42.20 63.39 42.67 70.75 49.43 C 71.90 48.26 73.07 47.09 74.25 45.95 C 64.84 37.32 49.17 37.21 39.90 46.10 M 47.03 53.06 C 48.14 54.19 49.25 55.33 50.36 56.46 C 54.24 53.23 59.81 53.32 63.78 56.34 C 64.93 55.19 66.10 54.05 67.26 52.92 C 61.45 48.28 52.69 48.00 47.03 53.06 M 73.69 51.97 C 73.34 57.09 73.67 62.23 73.55 67.36 C 62.34 67.29 51.14 67.32 39.93 67.33 C 36.88 67.13 34.06 70.03 34.35 73.07 C 34.58 75.82 37.15 78.12 39.93 77.95 C 52.62 77.95 65.31 78.02 78.00 77.91 C 81.58 77.93 84.12 73.71 82.52 70.53 C 81.51 67.99 78.63 67.18 76.15 67.15 C 76.29 62.39 76.34 57.63 76.20 52.87 C 76.65 51.37 74.27 50.64 73.69 51.97 M 53.16 59.00 C 54.57 60.34 55.51 63.04 57.79 62.91 C 59.38 62.09 60.15 60.38 61.14 58.99 C 58.70 56.91 55.68 57.17 53.16 59.00 Z" />
<path fill="#000000" opacity="1.00" d=" M 62.54 71.55 C 64.18 70.23 65.93 73.28 63.90 73.85 C 62.64 74.90 61.19 72.40 62.54 71.55 Z" />
<path fill="#000000" opacity="1.00" d=" M 66.57 71.64 C 67.45 70.28 69.99 72.57 68.48 73.48 C 67.73 75.27 64.76 72.75 66.57 71.64 Z" />
<path fill="#000000" opacity="1.00" d=" M 70.65 71.51 C 72.36 70.35 74.10 73.33 71.96 73.85 C 70.59 74.82 69.32 72.39 70.65 71.51 Z" />
</g>
<g id="#747574ff">
<path fill="#747574" opacity="1.00" d=" M 33.14 10.24 C 48.42 9.67 63.74 10.18 79.03 9.98 C 85.67 9.74 92.40 11.34 98.02 14.92 C 107.18 20.60 113.08 31.16 112.99 41.95 C 112.99 60.98 113.05 80.00 112.96 99.02 C 112.84 115.00 98.99 129.27 83.04 129.91 C 68.01 130.13 52.98 129.92 37.95 130.02 C 30.65 130.18 23.33 127.85 17.55 123.39 C 9.77 117.49 4.96 107.87 5.00 98.09 C 5.02 79.05 4.96 60.02 5.03 40.98 C 5.19 25.65 17.91 11.81 33.14 10.24 M 30.44 12.69 C 17.46 15.44 7.18 27.66 7.03 40.97 C 6.99 60.33 6.98 79.68 7.03 99.03 C 7.12 114.31 20.72 127.86 35.98 127.97 C 51.33 128.01 66.69 128.04 82.04 127.95 C 97.27 127.87 110.85 114.33 110.96 99.09 C 111.03 79.73 111.02 60.36 110.96 40.99 C 110.88 26.06 97.90 12.70 83.00 12.08 C 70.34 11.90 57.68 12.05 45.02 12.00 C 40.16 12.08 35.23 11.64 30.44 12.69 Z" />
</g>
<g id="#f8fcf8ff">
<path fill="#f8fcf8" opacity="1.00" d=" M 33.22 39.70 C 40.63 32.16 51.73 28.91 62.10 30.42 C 69.13 31.22 75.48 34.77 80.84 39.24 C 79.83 40.32 78.86 41.42 77.86 42.51 C 66.83 31.57 47.29 31.52 36.32 42.57 C 35.28 41.61 34.25 40.65 33.22 39.70 Z" />
<path fill="#f8fcf8" opacity="1.00" d=" M 39.90 46.10 C 49.17 37.21 64.84 37.32 74.25 45.95 C 73.07 47.09 71.90 48.26 70.75 49.43 C 63.39 42.67 50.61 42.20 43.59 49.65 C 42.32 48.51 41.12 47.29 39.90 46.10 Z" />
<path fill="#f8fcf8" opacity="1.00" d=" M 47.03 53.06 C 52.69 48.00 61.45 48.28 67.26 52.92 C 66.10 54.05 64.93 55.19 63.78 56.34 C 59.81 53.32 54.24 53.23 50.36 56.46 C 49.25 55.33 48.14 54.19 47.03 53.06 Z" />
<path fill="#f8fcf8" opacity="1.00" d=" M 73.69 51.97 C 74.27 50.64 76.65 51.37 76.20 52.87 C 76.34 57.63 76.29 62.39 76.15 67.15 C 78.63 67.18 81.51 67.99 82.52 70.53 C 84.12 73.71 81.58 77.93 78.00 77.91 C 65.31 78.02 52.62 77.95 39.93 77.95 C 37.15 78.12 34.58 75.82 34.35 73.07 C 34.06 70.03 36.88 67.13 39.93 67.33 C 51.14 67.32 62.34 67.29 73.55 67.36 C 73.67 62.23 73.34 57.09 73.69 51.97 M 62.54 71.55 C 61.19 72.40 62.64 74.90 63.90 73.85 C 65.93 73.28 64.18 70.23 62.54 71.55 M 66.57 71.64 C 64.76 72.75 67.73 75.27 68.48 73.48 C 69.99 72.57 67.45 70.28 66.57 71.64 M 70.65 71.51 C 69.32 72.39 70.59 74.82 71.96 73.85 C 74.10 73.33 72.36 70.35 70.65 71.51 Z" />
<path fill="#f8fcf8" opacity="1.00" d=" M 53.16 59.00 C 55.68 57.17 58.70 56.91 61.14 58.99 C 60.15 60.38 59.38 62.09 57.79 62.91 C 55.51 63.04 54.57 60.34 53.16 59.00 Z" />
</g>
</svg>
