<?xml version="1.0" encoding="UTF-8" ?>
<!DOCTYPE svg PUBLIC "-//W3C//DTD SVG 1.1//EN" "http://www.w3.org/Graphics/SVG/1.1/DTD/svg11.dtd">
<svg width="117px" height="140px" viewBox="0 0 117 140" version="1.1" xmlns="http://www.w3.org/2000/svg">
<g id="#000000ff">
<path fill="#000000" opacity="1.00" d=" M 0.00 0.00 L 117.00 0.00 L 117.00 140.00 L 0.00 140.00 L 0.00 0.00 M 33.14 10.24 C 17.93 11.81 5.24 25.60 5.03 40.90 C 4.97 60.26 4.98 79.64 5.03 99.01 C 5.17 114.97 18.99 129.26 34.94 129.91 C 50.63 130.10 66.32 130.00 82.01 129.95 C 98.33 129.86 112.84 115.37 112.96 99.05 C 113.05 80.04 112.98 61.03 112.99 42.02 C 113.06 32.89 108.93 23.89 102.04 17.93 C 95.79 12.34 87.30 9.63 78.97 9.98 C 63.69 10.18 48.40 9.67 33.14 10.24 Z" />
<path fill="#000000" opacity="1.00" d=" M 33.29 12.33 C 48.53 11.73 63.80 12.25 79.04 12.06 C 85.39 11.88 91.87 13.28 97.18 16.86 C 105.63 22.16 111.03 32.01 110.91 41.99 C 110.95 60.66 110.95 79.34 110.90 98.01 C 111.05 108.73 104.80 119.25 95.32 124.25 C 90.40 127.09 84.65 128.05 79.03 127.94 C 64.34 127.84 49.65 128.09 34.97 127.82 C 20.13 127.20 7.23 113.90 7.12 99.04 C 7.03 79.68 7.03 60.32 7.13 40.96 C 7.27 26.71 19.11 13.77 33.29 12.33 M 50.30 28.06 C 50.33 37.71 50.35 47.36 50.29 57.01 C 44.88 61.02 43.30 69.22 47.23 74.77 C 50.91 80.64 59.98 81.75 64.93 76.88 C 70.85 71.72 70.00 61.54 63.71 57.01 C 63.65 47.36 63.68 37.71 63.70 28.06 C 59.23 28.03 54.76 28.02 50.30 28.06 M 67.98 33.34 C 69.72 33.78 71.52 33.46 73.26 33.17 C 73.77 29.63 65.98 29.69 67.98 33.34 M 67.91 37.91 C 66.44 41.52 71.26 40.43 73.23 40.12 C 73.36 37.00 69.97 37.58 67.91 37.91 M 67.87 44.86 C 66.53 48.49 71.14 47.23 73.14 47.14 C 73.55 43.92 69.92 44.50 67.87 44.86 M 67.94 51.78 C 66.38 55.43 71.03 54.13 73.06 54.15 C 73.69 50.90 69.98 51.42 67.94 51.78 Z" />
<path fill="#000000" opacity="1.00" d=" M 52.94 30.77 C 55.65 30.77 58.36 30.77 61.07 30.77 C 60.98 40.07 60.85 49.38 61.07 58.67 C 66.21 61.44 68.11 68.74 64.40 73.41 C 61.10 78.43 52.95 78.46 49.63 73.45 C 45.88 68.78 47.78 61.47 52.92 58.67 C 53.15 49.37 52.91 40.07 52.94 30.77 M 55.65 46.75 C 55.69 51.32 55.67 55.89 55.71 60.46 C 53.74 61.46 51.65 62.63 50.84 64.82 C 49.04 68.74 51.78 73.73 56.01 74.41 C 60.50 75.22 64.65 70.48 63.57 66.12 C 63.09 63.35 60.75 61.53 58.31 60.49 C 58.32 55.91 58.31 51.33 58.35 46.75 C 57.67 46.75 56.33 46.75 55.65 46.75 Z" />
</g>
<g id="#747574ff">
<path fill="#747574" opacity="1.00" d=" M 33.14 10.24 C 48.40 9.67 63.69 10.18 78.97 9.98 C 87.30 9.63 95.79 12.34 102.04 17.93 C 108.93 23.89 113.06 32.89 112.99 42.02 C 112.98 61.03 113.05 80.04 112.96 99.05 C 112.84 115.37 98.33 129.86 82.01 129.95 C 66.32 130.00 50.63 130.10 34.94 129.91 C 18.99 129.26 5.17 114.97 5.03 99.01 C 4.98 79.64 4.97 60.26 5.03 40.90 C 5.24 25.60 17.93 11.81 33.14 10.24 M 33.29 12.33 C 19.11 13.77 7.27 26.71 7.13 40.96 C 7.03 60.32 7.03 79.68 7.12 99.04 C 7.23 113.90 20.13 127.20 34.97 127.82 C 49.65 128.09 64.34 127.84 79.03 127.94 C 84.65 128.05 90.40 127.09 95.32 124.25 C 104.80 119.25 111.05 108.73 110.90 98.01 C 110.95 79.34 110.95 60.66 110.91 41.99 C 111.03 32.01 105.63 22.16 97.18 16.86 C 91.87 13.28 85.39 11.88 79.04 12.06 C 63.80 12.25 48.53 11.73 33.29 12.33 Z" />
</g>
<g id="#f8fcf8ff">
<path fill="#f8fcf8" opacity="1.00" d=" M 50.30 28.06 C 54.76 28.02 59.23 28.03 63.70 28.06 C 63.68 37.71 63.65 47.36 63.71 57.01 C 70.00 61.54 70.85 71.72 64.93 76.88 C 59.98 81.75 50.91 80.64 47.23 74.77 C 43.30 69.22 44.88 61.02 50.29 57.01 C 50.35 47.36 50.33 37.71 50.30 28.06 M 52.94 30.77 C 52.91 40.07 53.15 49.37 52.92 58.67 C 47.78 61.47 45.88 68.78 49.63 73.45 C 52.95 78.46 61.10 78.43 64.40 73.41 C 68.11 68.74 66.21 61.44 61.07 58.67 C 60.85 49.38 60.98 40.07 61.07 30.77 C 58.36 30.77 55.65 30.77 52.94 30.77 Z" />
<path fill="#f8fcf8" opacity="1.00" d=" M 67.98 33.34 C 65.98 29.69 73.77 29.63 73.26 33.17 C 71.52 33.46 69.72 33.78 67.98 33.34 Z" />
<path fill="#f8fcf8" opacity="1.00" d=" M 67.91 37.91 C 69.97 37.58 73.36 37.00 73.23 40.12 C 71.26 40.43 66.44 41.52 67.91 37.91 Z" />
<path fill="#f8fcf8" opacity="1.00" d=" M 67.87 44.86 C 69.92 44.50 73.55 43.92 73.14 47.14 C 71.14 47.23 66.53 48.49 67.87 44.86 Z" />
<path fill="#f8fcf8" opacity="1.00" d=" M 55.65 46.75 C 56.33 46.75 57.67 46.75 58.35 46.75 C 58.31 51.33 58.32 55.91 58.31 60.49 C 60.75 61.53 63.09 63.35 63.57 66.12 C 64.65 70.48 60.50 75.22 56.01 74.41 C 51.78 73.73 49.04 68.74 50.84 64.82 C 51.65 62.63 53.74 61.46 55.71 60.46 C 55.67 55.89 55.69 51.32 55.65 46.75 Z" />
<path fill="#f8fcf8" opacity="1.00" d=" M 67.94 51.78 C 69.98 51.42 73.69 50.90 73.06 54.15 C 71.03 54.13 66.38 55.43 67.94 51.78 Z" />
</g>
</svg>
