<?xml version="1.0" encoding="UTF-8" ?>
<!DOCTYPE svg PUBLIC "-//W3C//DTD SVG 1.1//EN" "http://www.w3.org/Graphics/SVG/1.1/DTD/svg11.dtd">
<svg width="117px" height="140px" viewBox="0 0 117 140" version="1.1" xmlns="http://www.w3.org/2000/svg">
<g id="#000000ff">
<path fill="#000000" opacity="1.00" d=" M 0.00 0.00 L 117.00 0.00 L 117.00 140.00 L 0.00 140.00 L 0.00 0.00 M 33.19 10.26 C 17.92 11.79 5.20 25.67 5.04 41.02 C 4.98 60.35 4.97 79.69 5.04 99.03 C 5.19 115.35 19.64 129.81 35.97 129.95 C 51.66 129.99 67.37 130.12 83.06 129.88 C 98.96 129.25 112.79 115.01 112.94 99.10 C 113.06 80.06 112.99 61.02 112.98 41.99 C 113.08 30.94 106.91 20.17 97.41 14.57 C 91.92 11.22 85.43 9.79 79.03 9.99 C 63.75 10.18 48.45 9.66 33.19 10.26 Z" />
<path fill="#000000" opacity="1.00" d=" M 33.25 12.32 C 49.51 11.77 65.80 12.15 82.07 12.12 C 97.27 12.22 110.82 25.74 110.88 40.95 C 111.01 59.63 110.90 78.32 110.93 97.01 C 111.04 102.31 109.95 107.68 107.28 112.31 C 102.29 121.81 91.78 128.03 81.06 127.91 C 66.03 127.94 51.01 127.98 35.98 127.89 C 20.75 127.81 7.16 114.26 7.12 99.01 C 7.03 79.66 7.03 60.31 7.12 40.97 C 7.23 26.72 19.09 13.75 33.25 12.32 M 60.35 27.14 C 56.38 31.08 52.43 35.04 48.48 39.00 C 50.09 41.12 52.48 41.59 55.00 41.27 C 55.00 43.29 55.00 45.31 55.00 47.33 C 53.01 47.33 51.02 47.32 49.03 47.33 C 49.00 46.62 48.95 45.20 48.93 44.50 C 48.71 43.92 48.28 42.78 48.07 42.20 C 47.68 41.88 46.92 41.23 46.53 40.90 C 42.66 44.85 38.73 48.74 34.81 52.65 C 38.78 56.60 42.71 60.60 46.71 64.52 C 47.48 63.64 48.24 62.76 49.01 61.89 C 49.00 60.59 49.00 59.30 49.00 58.00 C 51.00 58.00 53.00 58.00 55.00 58.00 C 55.00 60.00 55.00 62.00 55.00 64.01 C 52.49 63.68 50.13 64.23 48.44 66.20 C 52.33 70.28 56.39 74.19 60.35 78.19 C 64.29 74.25 68.20 70.29 72.18 66.40 C 70.64 64.37 68.12 63.86 65.71 63.91 C 65.71 61.94 65.71 59.97 65.71 58.00 C 67.71 58.00 69.72 58.00 71.72 58.00 C 71.38 60.53 71.89 62.92 74.01 64.52 C 77.97 60.57 81.92 56.61 85.88 52.65 C 81.95 48.73 78.04 44.80 74.11 40.89 C 73.70 41.23 72.90 41.91 72.50 42.25 C 71.97 43.90 71.67 45.60 71.62 47.34 C 69.65 47.33 67.68 47.32 65.71 47.32 C 65.71 45.33 65.72 43.34 65.73 41.35 C 67.43 41.26 69.12 41.01 70.75 40.51 C 71.09 40.11 71.76 39.31 72.10 38.91 C 68.19 34.97 64.29 31.04 60.35 27.14 Z" />
<path fill="#000000" opacity="1.00" d=" M 60.34 30.92 C 62.90 33.49 65.48 36.03 68.03 38.61 C 66.36 38.61 64.68 38.61 63.00 38.61 C 63.00 42.41 63.00 46.20 63.00 50.00 C 66.81 50.00 70.62 50.00 74.43 50.00 C 74.41 48.34 74.40 46.69 74.39 45.04 C 77.00 47.54 79.55 50.10 82.09 52.68 C 79.53 55.19 77.07 57.82 74.38 60.20 C 74.39 58.59 74.40 56.97 74.42 55.35 C 70.62 55.31 66.81 55.33 63.01 55.32 C 62.99 59.13 62.99 62.94 63.01 66.74 C 64.67 66.74 66.33 66.74 67.99 66.75 C 65.52 69.32 62.88 71.73 60.52 74.41 C 57.81 72.00 55.32 69.35 52.76 66.77 C 54.39 66.74 56.02 66.73 57.65 66.73 C 57.65 62.93 57.65 59.13 57.64 55.33 C 53.86 55.32 50.08 55.33 46.29 55.33 C 46.29 56.99 46.28 58.64 46.27 60.31 C 43.71 57.78 41.18 55.21 38.61 52.68 C 41.16 50.11 43.71 47.55 46.29 45.00 C 46.29 46.66 46.29 48.33 46.28 49.99 C 50.07 50.01 53.86 50.01 57.65 49.99 C 57.64 46.19 57.66 42.39 57.62 38.59 C 55.99 38.61 54.37 38.63 52.74 38.65 C 55.19 35.99 57.80 33.50 60.34 30.92 Z" />
</g>
<g id="#787978ff">
<path fill="#787978" opacity="1.00" d=" M 33.19 10.26 C 48.45 9.66 63.75 10.18 79.03 9.99 C 85.43 9.79 91.92 11.22 97.41 14.57 C 106.91 20.17 113.08 30.94 112.98 41.99 C 112.99 61.02 113.06 80.06 112.94 99.10 C 112.79 115.01 98.96 129.25 83.06 129.88 C 67.37 130.12 51.66 129.99 35.97 129.95 C 19.64 129.81 5.19 115.35 5.04 99.03 C 4.97 79.69 4.98 60.35 5.04 41.02 C 5.20 25.67 17.92 11.79 33.19 10.26 M 33.25 12.32 C 19.09 13.75 7.23 26.72 7.12 40.97 C 7.03 60.31 7.03 79.66 7.12 99.01 C 7.16 114.26 20.75 127.81 35.98 127.89 C 51.01 127.98 66.03 127.94 81.06 127.91 C 91.78 128.03 102.29 121.81 107.28 112.31 C 109.95 107.68 111.04 102.31 110.93 97.01 C 110.90 78.32 111.01 59.63 110.88 40.95 C 110.82 25.74 97.27 12.22 82.07 12.12 C 65.80 12.15 49.51 11.77 33.25 12.32 Z" />
</g>
<g id="#f8fcf8ff">
<path fill="#f8fcf8" opacity="1.00" d=" M 60.35 27.14 C 64.29 31.04 68.19 34.97 72.10 38.91 C 71.76 39.31 71.09 40.11 70.75 40.51 C 69.12 41.01 67.43 41.26 65.73 41.35 C 65.72 43.34 65.71 45.33 65.71 47.32 C 67.68 47.32 69.65 47.33 71.62 47.34 C 71.67 45.60 71.97 43.90 72.50 42.25 C 72.90 41.91 73.70 41.23 74.11 40.89 C 78.04 44.80 81.95 48.73 85.88 52.65 C 81.92 56.61 77.97 60.57 74.01 64.52 C 71.89 62.92 71.38 60.53 71.72 58.00 C 69.72 58.00 67.71 58.00 65.71 58.00 C 65.71 59.97 65.71 61.94 65.71 63.91 C 68.12 63.86 70.64 64.37 72.18 66.40 C 68.20 70.29 64.29 74.25 60.35 78.19 C 56.39 74.19 52.33 70.28 48.44 66.20 C 50.13 64.23 52.49 63.68 55.00 64.01 C 55.00 62.00 55.00 60.00 55.00 58.00 C 53.00 58.00 51.00 58.00 49.00 58.00 C 49.00 59.30 49.00 60.59 49.01 61.89 C 48.24 62.76 47.48 63.64 46.71 64.52 C 42.71 60.60 38.78 56.60 34.81 52.65 C 38.73 48.74 42.66 44.85 46.53 40.90 C 46.92 41.23 47.68 41.88 48.07 42.20 C 48.28 42.78 48.71 43.92 48.93 44.50 C 48.95 45.20 49.00 46.62 49.03 47.33 C 51.02 47.32 53.01 47.33 55.00 47.33 C 55.00 45.31 55.00 43.29 55.00 41.27 C 52.48 41.59 50.09 41.12 48.48 39.00 C 52.43 35.04 56.38 31.08 60.35 27.14 M 60.34 30.92 C 57.80 33.50 55.19 35.99 52.74 38.65 C 54.37 38.63 55.99 38.61 57.62 38.59 C 57.66 42.39 57.64 46.19 57.65 49.99 C 53.86 50.01 50.07 50.01 46.28 49.99 C 46.29 48.33 46.29 46.66 46.29 45.00 C 43.71 47.55 41.16 50.11 38.61 52.68 C 41.18 55.21 43.71 57.78 46.27 60.31 C 46.28 58.64 46.29 56.99 46.29 55.33 C 50.08 55.33 53.86 55.32 57.64 55.33 C 57.65 59.13 57.65 62.93 57.65 66.73 C 56.02 66.73 54.39 66.74 52.76 66.77 C 55.32 69.35 57.81 72.00 60.52 74.41 C 62.88 71.73 65.52 69.32 67.99 66.75 C 66.33 66.74 64.67 66.74 63.01 66.74 C 62.99 62.94 62.99 59.13 63.01 55.32 C 66.81 55.33 70.62 55.31 74.42 55.35 C 74.40 56.97 74.39 58.59 74.38 60.20 C 77.07 57.82 79.53 55.19 82.09 52.68 C 79.55 50.10 77.00 47.54 74.39 45.04 C 74.40 46.69 74.41 48.34 74.43 50.00 C 70.62 50.00 66.81 50.00 63.00 50.00 C 63.00 46.20 63.00 42.41 63.00 38.61 C 64.68 38.61 66.36 38.61 68.03 38.61 C 65.48 36.03 62.90 33.49 60.34 30.92 Z" />
</g>
</svg>
