<?xml version="1.0" encoding="UTF-8" ?>
<!DOCTYPE svg PUBLIC "-//W3C//DTD SVG 1.1//EN" "http://www.w3.org/Graphics/SVG/1.1/DTD/svg11.dtd">
<svg width="117px" height="140px" viewBox="0 0 117 140" version="1.1" xmlns="http://www.w3.org/2000/svg">
<g id="#000000ff">
<path fill="#000000" opacity="1.00" d=" M 0.00 0.00 L 117.00 0.00 L 117.00 140.00 L 0.00 140.00 L 0.00 0.00 M 32.34 10.39 C 21.19 11.88 11.29 19.81 7.23 30.27 C 4.28 37.47 5.05 45.40 4.98 53.00 C 5.04 68.02 4.92 83.05 5.01 98.07 C 4.96 109.10 11.07 119.91 20.62 125.45 C 25.80 128.65 31.90 130.09 37.97 130.04 C 52.33 129.99 66.70 130.05 81.06 130.00 C 92.09 130.05 102.90 123.92 108.46 114.38 C 111.68 109.22 113.03 103.09 113.02 97.05 C 113.04 79.70 112.96 62.34 113.05 44.99 C 113.13 39.03 112.40 32.90 109.55 27.57 C 104.75 17.92 94.77 11.08 84.03 10.17 C 76.36 9.68 68.67 10.12 61.00 9.99 C 51.45 10.22 41.86 9.47 32.34 10.39 Z" />
<path fill="#000000" opacity="1.00" d=" M 32.34 12.42 C 48.21 11.48 64.15 12.27 80.05 12.00 C 91.13 11.67 102.19 17.78 107.35 27.66 C 110.36 32.90 111.17 39.04 111.03 45.00 C 110.92 62.69 111.04 80.38 110.98 98.07 C 111.06 108.07 105.71 117.91 97.24 123.24 C 92.16 126.55 86.07 128.03 80.05 127.99 C 66.02 128.00 51.98 127.99 37.95 128.00 C 30.02 128.13 22.02 125.27 16.29 119.73 C 10.42 114.16 6.98 106.15 7.02 98.06 C 6.97 80.04 7.06 62.01 6.98 43.99 C 6.92 38.85 7.62 33.61 9.97 28.99 C 14.08 20.22 22.74 13.78 32.34 12.42 M 41.61 47.17 C 43.52 47.74 45.49 49.39 47.54 48.69 C 48.33 47.55 48.93 46.29 49.57 45.07 C 50.02 47.90 50.83 50.65 51.89 53.30 C 53.58 52.65 55.27 51.99 56.95 51.29 C 56.69 49.11 56.51 46.92 56.46 44.72 C 57.16 45.43 57.96 46.07 58.54 46.89 C 58.29 48.90 57.75 50.87 57.41 52.87 C 60.81 52.97 64.20 53.03 67.60 53.16 C 67.14 57.59 69.05 62.85 65.98 66.60 C 65.51 62.50 65.60 58.38 65.62 54.26 C 61.16 54.08 56.70 54.08 52.25 54.25 C 52.08 59.14 52.09 64.03 52.21 68.92 C 55.99 68.94 59.78 69.02 63.56 69.12 C 64.53 70.35 65.50 71.57 66.48 72.80 C 68.86 72.46 72.03 72.94 73.52 70.59 C 74.33 67.12 73.94 63.52 74.04 59.99 C 73.93 55.27 74.56 50.33 72.69 45.86 C 73.62 45.38 74.56 44.90 75.49 44.42 C 75.57 42.80 75.64 41.19 75.74 39.58 C 70.71 39.50 65.78 38.52 60.86 37.57 C 60.14 39.28 59.43 40.99 58.73 42.71 C 58.63 42.00 58.41 40.57 58.31 39.86 C 54.18 39.48 50.19 38.25 46.09 37.74 C 43.54 40.09 43.14 44.10 41.61 47.17 M 44.19 49.69 C 44.13 57.23 44.13 64.77 44.19 72.30 C 46.27 72.35 48.35 72.38 50.43 72.41 C 50.70 64.81 50.80 57.18 50.37 49.59 C 48.31 49.60 46.25 49.64 44.19 49.69 Z" />
<path fill="#000000" opacity="1.00" d=" M 64.15 45.39 C 65.56 44.24 67.41 46.64 65.84 47.65 C 64.42 48.79 62.57 46.40 64.15 45.39 Z" />
<path fill="#000000" opacity="1.00" d=" M 58.26 64.03 C 61.26 62.49 58.42 67.36 58.26 64.03 Z" />
</g>
<g id="#747474ff">
<path fill="#747474" opacity="1.00" d=" M 32.34 10.39 C 41.86 9.47 51.45 10.22 61.00 9.99 C 68.67 10.12 76.36 9.68 84.03 10.17 C 94.77 11.08 104.75 17.92 109.55 27.57 C 112.40 32.90 113.13 39.03 113.05 44.99 C 112.96 62.34 113.04 79.70 113.02 97.05 C 113.03 103.09 111.68 109.22 108.46 114.38 C 102.90 123.92 92.09 130.05 81.06 130.00 C 66.70 130.05 52.33 129.99 37.97 130.04 C 31.90 130.09 25.80 128.65 20.62 125.45 C 11.07 119.91 4.96 109.10 5.01 98.07 C 4.92 83.05 5.04 68.02 4.98 53.00 C 5.05 45.40 4.28 37.47 7.23 30.27 C 11.29 19.81 21.19 11.88 32.34 10.39 M 32.34 12.42 C 22.74 13.78 14.08 20.22 9.97 28.99 C 7.62 33.61 6.92 38.85 6.98 43.99 C 7.06 62.01 6.97 80.04 7.02 98.06 C 6.98 106.15 10.42 114.16 16.29 119.73 C 22.02 125.27 30.02 128.13 37.95 128.00 C 51.98 127.99 66.02 128.00 80.05 127.99 C 86.07 128.03 92.16 126.55 97.24 123.24 C 105.71 117.91 111.06 108.07 110.98 98.07 C 111.04 80.38 110.92 62.69 111.03 45.00 C 111.17 39.04 110.36 32.90 107.35 27.66 C 102.19 17.78 91.13 11.67 80.05 12.00 C 64.15 12.27 48.21 11.48 32.34 12.42 Z" />
<path fill="#747474" opacity="1.00" d=" M 58.25 58.19 C 61.23 56.63 58.41 61.52 58.25 58.19 Z" />
</g>
<g id="#f8fcf8ff">
<path fill="#f8fcf8" opacity="1.00" d=" M 41.61 47.17 C 43.14 44.10 43.54 40.09 46.09 37.74 C 50.19 38.25 54.18 39.48 58.31 39.86 C 58.41 40.57 58.63 42.00 58.73 42.71 C 59.43 40.99 60.14 39.28 60.86 37.57 C 65.78 38.52 70.71 39.50 75.74 39.58 C 75.64 41.19 75.57 42.80 75.49 44.42 C 74.56 44.90 73.62 45.38 72.69 45.86 C 74.56 50.33 73.93 55.27 74.04 59.99 C 73.94 63.52 74.33 67.12 73.52 70.59 C 72.03 72.94 68.86 72.46 66.48 72.80 C 65.50 71.57 64.53 70.35 63.56 69.12 C 59.78 69.02 55.99 68.94 52.21 68.92 C 52.09 64.03 52.08 59.14 52.25 54.25 C 56.70 54.08 61.16 54.08 65.62 54.26 C 65.60 58.38 65.51 62.50 65.98 66.60 C 69.05 62.85 67.14 57.59 67.60 53.16 C 64.20 53.03 60.81 52.97 57.41 52.87 C 57.75 50.87 58.29 48.90 58.54 46.89 C 57.96 46.07 57.16 45.43 56.46 44.72 C 56.51 46.92 56.69 49.11 56.95 51.29 C 55.27 51.99 53.58 52.65 51.89 53.30 C 50.83 50.65 50.02 47.90 49.57 45.07 C 48.93 46.29 48.33 47.55 47.54 48.69 C 45.49 49.39 43.52 47.74 41.61 47.17 M 64.15 45.39 C 62.57 46.40 64.42 48.79 65.84 47.65 C 67.41 46.64 65.56 44.24 64.15 45.39 M 58.25 58.19 C 58.41 61.52 61.23 56.63 58.25 58.19 M 58.26 64.03 C 58.42 67.36 61.26 62.49 58.26 64.03 Z" />
<path fill="#f8fcf8" opacity="1.00" d=" M 44.19 49.69 C 46.25 49.64 48.31 49.60 50.37 49.59 C 50.80 57.18 50.70 64.81 50.43 72.41 C 48.35 72.38 46.27 72.35 44.19 72.30 C 44.13 64.77 44.13 57.23 44.19 49.69 Z" />
</g>
</svg>
