<?xml version="1.0" encoding="UTF-8" ?>
<!DOCTYPE svg PUBLIC "-//W3C//DTD SVG 1.1//EN" "http://www.w3.org/Graphics/SVG/1.1/DTD/svg11.dtd">
<svg width="117px" height="140px" viewBox="0 0 117 140" version="1.1" xmlns="http://www.w3.org/2000/svg">
<g id="#000000ff">
<path fill="#000000" opacity="1.00" d=" M 0.00 0.00 L 117.00 0.00 L 117.00 140.00 L 0.00 140.00 L 0.00 0.00 M 33.17 10.24 C 17.92 11.80 5.20 25.64 5.03 40.98 C 4.96 59.98 5.02 78.98 5.00 97.97 C 4.95 106.62 8.65 115.19 14.93 121.12 C 21.01 127.03 29.51 130.22 37.96 130.01 C 52.99 129.92 68.03 130.14 83.05 129.90 C 98.99 129.26 112.82 115.00 112.96 99.05 C 113.05 80.03 112.99 61.02 112.99 42.00 C 113.04 33.38 109.37 24.83 103.10 18.91 C 97.00 12.96 88.45 9.78 79.96 9.99 C 64.36 10.17 48.75 9.68 33.17 10.24 Z" />
<path fill="#000000" opacity="1.00" d=" M 33.24 12.33 C 48.82 11.73 64.43 12.23 80.02 12.07 C 87.25 11.87 94.45 14.30 100.04 18.90 C 106.80 24.48 111.02 33.13 110.91 41.94 C 110.95 60.62 110.95 79.31 110.91 98.00 C 111.06 108.73 104.81 119.25 95.32 124.26 C 90.40 127.09 84.65 128.06 79.03 127.94 C 64.30 127.85 49.57 128.09 34.85 127.82 C 20.05 127.14 7.21 113.85 7.12 99.02 C 7.03 79.65 7.03 60.27 7.13 40.89 C 7.30 26.68 19.11 13.79 33.24 12.33 M 52.56 29.53 C 42.47 32.57 34.61 42.30 34.69 52.96 C 34.48 66.16 46.73 78.07 59.96 77.28 C 73.14 76.94 84.57 64.26 83.23 51.07 C 82.28 36.61 66.61 25.19 52.56 29.53 Z" />
<path fill="#000000" opacity="1.00" d=" M 53.18 33.33 C 64.65 29.62 78.12 38.02 79.26 50.12 C 81.18 60.91 72.83 72.14 61.91 73.25 C 52.59 74.83 42.80 69.00 39.71 60.09 C 35.58 49.40 42.03 36.21 53.18 33.33 M 58.03 39.27 C 57.81 40.50 57.80 41.72 58.02 42.95 C 58.88 42.97 60.60 43.00 61.46 43.02 C 61.54 41.76 61.61 40.51 61.69 39.25 C 60.47 39.26 59.25 39.27 58.03 39.27 M 55.07 45.11 C 55.09 45.81 55.13 47.21 55.15 47.92 C 55.84 48.00 57.21 48.16 57.90 48.24 C 57.82 53.84 57.75 59.45 57.92 65.05 C 59.96 65.40 62.04 65.40 64.07 65.03 C 64.07 64.28 64.07 62.76 64.07 62.00 C 63.37 61.93 61.99 61.80 61.30 61.73 C 61.90 56.15 61.43 50.51 61.57 44.90 C 59.41 44.62 57.17 44.36 55.07 45.11 Z" />
</g>
<g id="#757575ff">
<path fill="#757575" opacity="1.00" d=" M 33.17 10.24 C 48.75 9.68 64.36 10.17 79.96 9.99 C 88.45 9.78 97.00 12.96 103.10 18.91 C 109.37 24.83 113.04 33.38 112.99 42.00 C 112.99 61.02 113.05 80.03 112.96 99.05 C 112.82 115.00 98.99 129.26 83.05 129.90 C 68.03 130.14 52.99 129.92 37.96 130.01 C 29.51 130.22 21.01 127.03 14.93 121.12 C 8.65 115.19 4.95 106.62 5.00 97.97 C 5.02 78.98 4.96 59.98 5.03 40.98 C 5.20 25.64 17.92 11.80 33.17 10.24 M 33.24 12.33 C 19.11 13.79 7.30 26.68 7.13 40.89 C 7.03 60.27 7.03 79.65 7.12 99.02 C 7.21 113.85 20.05 127.14 34.85 127.82 C 49.57 128.09 64.30 127.85 79.03 127.94 C 84.65 128.06 90.40 127.09 95.32 124.26 C 104.81 119.25 111.06 108.73 110.91 98.00 C 110.95 79.31 110.95 60.62 110.91 41.94 C 111.02 33.13 106.80 24.48 100.04 18.90 C 94.45 14.30 87.25 11.87 80.02 12.07 C 64.43 12.23 48.82 11.73 33.24 12.33 Z" />
</g>
<g id="#f8fcf8ff">
<path fill="#f8fcf8" opacity="1.00" d=" M 52.56 29.53 C 66.61 25.19 82.28 36.61 83.23 51.07 C 84.57 64.26 73.14 76.94 59.96 77.28 C 46.73 78.07 34.48 66.16 34.69 52.96 C 34.61 42.30 42.47 32.57 52.56 29.53 M 53.18 33.33 C 42.03 36.21 35.58 49.40 39.71 60.09 C 42.80 69.00 52.59 74.83 61.91 73.25 C 72.83 72.14 81.18 60.91 79.26 50.12 C 78.12 38.02 64.65 29.62 53.18 33.33 Z" />
<path fill="#f8fcf8" opacity="1.00" d=" M 58.03 39.27 C 59.25 39.27 60.47 39.26 61.69 39.25 C 61.61 40.51 61.54 41.76 61.46 43.02 C 60.60 43.00 58.88 42.97 58.02 42.95 C 57.80 41.72 57.81 40.50 58.03 39.27 Z" />
<path fill="#f8fcf8" opacity="1.00" d=" M 55.07 45.11 C 57.17 44.36 59.41 44.62 61.57 44.90 C 61.43 50.51 61.90 56.15 61.30 61.73 C 61.99 61.80 63.37 61.93 64.07 62.00 C 64.07 62.76 64.07 64.28 64.07 65.03 C 62.04 65.40 59.96 65.40 57.92 65.05 C 57.75 59.45 57.82 53.84 57.90 48.24 C 57.21 48.16 55.84 48.00 55.15 47.92 C 55.13 47.21 55.09 45.81 55.07 45.11 Z" />
</g>
</svg>
