<?xml version="1.0" encoding="UTF-8" ?>
<!DOCTYPE svg PUBLIC "-//W3C//DTD SVG 1.1//EN" "http://www.w3.org/Graphics/SVG/1.1/DTD/svg11.dtd">
<svg width="117px" height="140px" viewBox="0 0 117 140" version="1.1" xmlns="http://www.w3.org/2000/svg">
<g id="#000000ff">
<path fill="#000000" opacity="1.00" d=" M 0.00 0.00 L 117.00 0.00 L 117.00 140.00 L 0.00 140.00 L 0.00 0.00 M 33.12 38.05 C 24.52 51.82 28.71 71.86 42.52 80.60 C 53.84 88.45 70.42 86.79 80.05 76.98 C 88.19 69.09 91.35 56.72 88.27 45.83 C 80.85 48.11 73.40 50.28 65.95 52.48 C 66.58 54.65 67.22 56.82 67.84 58.99 C 71.14 57.90 74.49 56.98 77.84 56.07 C 76.84 63.39 72.04 70.26 64.84 72.57 C 55.21 76.32 43.73 69.65 41.16 59.88 C 38.74 52.34 41.74 43.68 48.01 38.95 C 52.33 35.45 58.12 34.84 63.45 35.64 C 65.43 32.09 67.34 28.51 69.25 24.93 C 56.04 20.19 40.06 25.74 33.12 38.05 Z" />
</g>
<g id="#707070ff">
<path fill="#707070" opacity="1.00" d=" M 33.12 38.05 C 40.06 25.74 56.04 20.19 69.25 24.93 C 67.34 28.51 65.43 32.09 63.45 35.64 C 58.12 34.84 52.33 35.45 48.01 38.95 C 41.74 43.68 38.74 52.34 41.16 59.88 C 43.73 69.65 55.21 76.32 64.84 72.57 C 72.04 70.26 76.84 63.39 77.84 56.07 C 74.49 56.98 71.14 57.90 67.84 58.99 C 67.22 56.82 66.58 54.65 65.95 52.48 C 73.40 50.28 80.85 48.11 88.27 45.83 C 91.35 56.72 88.19 69.09 80.05 76.98 C 70.42 86.79 53.84 88.45 42.52 80.60 C 28.71 71.86 24.52 51.82 33.12 38.05 Z" />
</g>
</svg>
