<?xml version="1.0" encoding="UTF-8" ?>
<!DOCTYPE svg PUBLIC "-//W3C//DTD SVG 1.1//EN" "http://www.w3.org/Graphics/SVG/1.1/DTD/svg11.dtd">
<svg width="70px" height="28px" viewBox="0 0 70 28" version="1.1" xmlns="http://www.w3.org/2000/svg">
<g id="#1d1d28ff">
<path fill="#1d1d28" opacity="1.00" d=" M 0.00 0.00 L 2.80 0.00 C 2.14 1.02 1.25 1.95 0.00 2.16 L 0.00 0.00 Z" />
<path fill="#1d1d28" opacity="1.00" d=" M 67.21 0.00 L 70.00 0.00 L 70.00 1.79 C 68.70 2.54 67.85 0.83 67.21 0.00 Z" />
<path fill="#1d1d28" opacity="1.00" d=" M 67.09 28.00 C 67.81 26.81 68.80 25.82 70.00 25.11 L 70.00 28.00 L 67.09 28.00 Z" />
<path fill="#1d1d28" opacity="1.00" d=" M 0.00 26.23 C 1.31 25.52 2.18 27.13 2.81 28.00 L 0.00 28.00 L 0.00 26.23 Z" />
</g>
<g id="#4850f8ff">
<path fill="#4850f8" opacity="1.00" d=" M 2.80 0.00 L 67.21 0.00 C 67.85 0.83 68.70 2.54 70.00 1.79 L 70.00 25.11 C 68.80 25.82 67.81 26.81 67.09 28.00 L 2.81 28.00 C 2.18 27.13 1.31 25.52 0.00 26.23 L 0.00 2.16 C 1.25 1.95 2.14 1.02 2.80 0.00 Z" />
</g>
</svg>
