<?xml version="1.0" encoding="UTF-8" ?>
<!DOCTYPE svg PUBLIC "-//W3C//DTD SVG 1.1//EN" "http://www.w3.org/Graphics/SVG/1.1/DTD/svg11.dtd">
<svg width="117px" height="140px" viewBox="0 0 117 140" version="1.1" xmlns="http://www.w3.org/2000/svg">
<g id="#000000ff">
<path fill="#000000" opacity="1.00" d=" M 0.00 0.00 L 117.00 0.00 L 117.00 140.00 L 0.00 140.00 L 0.00 0.00 M 32.33 10.35 C 21.96 11.82 12.54 18.73 8.13 28.25 C 5.54 33.42 4.82 39.28 4.94 45.01 C 5.11 63.35 4.80 81.71 5.09 100.05 C 5.70 115.99 20.00 129.82 35.93 129.99 C 50.97 130.08 66.01 130.00 81.04 130.02 C 92.60 130.12 103.86 123.31 109.21 113.08 C 112.17 107.91 113.13 101.89 113.05 96.00 C 112.98 77.99 113.06 59.97 113.00 41.95 C 113.12 29.62 105.39 17.71 94.08 12.82 C 85.32 8.56 75.36 10.33 66.00 9.99 C 54.78 10.21 43.52 9.49 32.33 10.35 Z" />
<path fill="#000000" opacity="1.00" d=" M 32.33 12.42 C 47.18 11.47 62.11 12.32 76.99 11.99 C 84.48 11.65 92.28 13.06 98.42 17.57 C 106.20 23.05 111.04 32.44 110.98 41.96 C 110.98 60.65 110.99 79.35 110.98 98.04 C 111.04 107.80 105.96 117.42 97.83 122.83 C 92.63 126.38 86.30 128.05 80.03 127.99 C 66.01 127.99 51.99 127.97 37.97 127.99 C 31.46 128.06 24.89 126.24 19.58 122.43 C 11.79 116.95 6.96 107.56 7.02 98.04 C 7.04 79.00 6.96 59.96 7.06 40.92 C 7.24 26.98 18.49 14.26 32.33 12.42 M 34.07 46.05 C 33.87 50.28 33.83 54.53 34.26 58.75 C 39.16 59.21 44.09 58.98 49.00 59.00 C 60.90 58.82 72.83 59.38 84.71 58.72 C 85.15 54.51 85.12 50.28 84.92 46.06 C 67.97 45.95 51.02 45.96 34.07 46.05 Z" />
<path fill="#000000" opacity="1.00" d=" M 37.22 49.22 C 52.04 49.04 66.88 48.99 81.71 49.25 C 81.69 51.39 81.69 53.54 81.69 55.68 C 66.87 55.82 52.05 55.77 37.24 55.71 C 37.21 53.54 37.21 51.38 37.22 49.22 Z" />
</g>
<g id="#6f706fff">
<path fill="#6f706f" opacity="1.00" d=" M 32.33 10.35 C 43.52 9.49 54.78 10.21 66.00 9.99 C 75.36 10.33 85.32 8.56 94.08 12.82 C 105.39 17.71 113.12 29.62 113.00 41.95 C 113.06 59.97 112.98 77.99 113.05 96.00 C 113.13 101.89 112.17 107.91 109.21 113.08 C 103.86 123.31 92.60 130.12 81.04 130.02 C 66.01 130.00 50.97 130.08 35.93 129.99 C 20.00 129.82 5.70 115.99 5.09 100.05 C 4.80 81.71 5.11 63.35 4.94 45.01 C 4.82 39.28 5.54 33.42 8.13 28.25 C 12.54 18.73 21.96 11.82 32.33 10.35 M 32.33 12.42 C 18.49 14.26 7.24 26.98 7.06 40.92 C 6.96 59.96 7.04 79.00 7.02 98.04 C 6.96 107.56 11.79 116.95 19.58 122.43 C 24.89 126.24 31.46 128.06 37.97 127.99 C 51.99 127.97 66.01 127.99 80.03 127.99 C 86.30 128.05 92.63 126.38 97.83 122.83 C 105.96 117.42 111.04 107.80 110.98 98.04 C 110.99 79.35 110.98 60.65 110.98 41.96 C 111.04 32.44 106.20 23.05 98.42 17.57 C 92.28 13.06 84.48 11.65 76.99 11.99 C 62.11 12.32 47.18 11.47 32.33 12.42 Z" />
</g>
<g id="#f8fcf8ff">
<path fill="#f8fcf8" opacity="1.00" d=" M 34.07 46.05 C 51.02 45.96 67.97 45.95 84.92 46.06 C 85.12 50.28 85.15 54.51 84.71 58.72 C 72.83 59.38 60.90 58.82 49.00 59.00 C 44.09 58.98 39.16 59.21 34.26 58.75 C 33.83 54.53 33.87 50.28 34.07 46.05 M 37.22 49.22 C 37.21 51.38 37.21 53.54 37.24 55.71 C 52.05 55.77 66.87 55.82 81.69 55.68 C 81.69 53.54 81.69 51.39 81.71 49.25 C 66.88 48.99 52.04 49.04 37.22 49.22 Z" />
</g>
</svg>
