<?xml version="1.0" encoding="UTF-8" ?>
<!DOCTYPE svg PUBLIC "-//W3C//DTD SVG 1.1//EN" "http://www.w3.org/Graphics/SVG/1.1/DTD/svg11.dtd">
<svg width="52px" height="12px" viewBox="0 0 52 12" version="1.1" xmlns="http://www.w3.org/2000/svg">
<g id="#181818ff">
<path fill="#181818" opacity="1.00" d=" M 0.00 0.00 L 10.08 0.00 C 10.88 1.90 15.11 1.89 15.92 0.00 L 33.38 0.00 C 30.56 1.20 27.65 2.45 25.85 5.08 C 23.39 2.58 19.62 -0.41 16.03 1.71 C 19.04 2.03 22.70 3.05 23.95 6.16 C 24.09 9.66 19.98 10.86 17.37 12.00 L 8.67 12.00 C 6.16 10.92 2.76 9.96 2.02 6.95 C 2.35 3.26 6.92 2.03 9.97 1.72 C 6.32 -0.39 2.22 2.58 0.00 5.47 L 0.00 0.00 Z" />
<path fill="#181818" opacity="1.00" d=" M 44.17 0.00 L 52.00 0.00 L 52.00 5.10 C 50.38 2.18 47.13 1.04 44.17 0.00 Z" />
<path fill="#181818" opacity="1.00" d=" M 28.05 6.85 C 27.98 3.36 32.06 1.79 34.93 1.16 C 39.06 0.96 43.64 0.38 47.30 2.78 C 48.85 3.66 50.78 5.63 49.63 7.51 C 47.55 10.87 43.20 11.13 39.73 12.00 L 38.30 12.00 C 34.65 11.10 29.79 10.79 28.05 6.85 Z" />
<path fill="#181818" opacity="1.00" d=" M 0.00 7.87 C 1.11 9.69 2.83 11.01 4.69 12.00 L 0.00 12.00 L 0.00 7.87 Z" />
<path fill="#181818" opacity="1.00" d=" M 21.22 12.00 C 23.17 11.04 24.79 9.56 26.17 7.91 C 27.85 9.63 29.79 11.10 32.04 12.00 L 21.22 12.00 Z" />
<path fill="#181818" opacity="1.00" d=" M 45.84 12.00 C 48.24 11.06 50.48 9.64 52.00 7.52 L 52.00 12.00 L 45.84 12.00 Z" />
</g>
<g id="#d7dad7ff">
<path fill="#d7dad7" opacity="1.00" d=" M 10.08 0.00 L 15.92 0.00 C 15.11 1.89 10.88 1.90 10.08 0.00 Z" />
<path fill="#d7dad7" opacity="1.00" d=" M 33.38 0.00 L 44.17 0.00 C 47.13 1.04 50.38 2.18 52.00 5.10 L 52.00 7.52 C 50.48 9.64 48.24 11.06 45.84 12.00 L 39.73 12.00 C 43.20 11.13 47.55 10.87 49.63 7.51 C 50.78 5.63 48.85 3.66 47.30 2.78 C 43.64 0.38 39.06 0.96 34.93 1.16 C 32.06 1.79 27.98 3.36 28.05 6.85 C 29.79 10.79 34.65 11.10 38.30 12.00 L 32.04 12.00 C 29.79 11.10 27.85 9.63 26.17 7.91 C 24.79 9.56 23.17 11.04 21.22 12.00 L 17.37 12.00 C 19.98 10.86 24.09 9.66 23.95 6.16 C 22.70 3.05 19.04 2.03 16.03 1.71 C 19.62 -0.41 23.39 2.58 25.85 5.08 C 27.65 2.45 30.56 1.20 33.38 0.00 Z" />
<path fill="#d7dad7" opacity="1.00" d=" M 0.00 5.47 C 2.22 2.58 6.32 -0.39 9.97 1.72 C 6.92 2.03 2.35 3.26 2.02 6.95 C 2.76 9.96 6.16 10.92 8.67 12.00 L 4.69 12.00 C 2.83 11.01 1.11 9.69 0.00 7.87 L 0.00 5.47 Z" />
</g>
</svg>
