<?xml version="1.0" encoding="UTF-8" ?>
<!DOCTYPE svg PUBLIC "-//W3C//DTD SVG 1.1//EN" "http://www.w3.org/Graphics/SVG/1.1/DTD/svg11.dtd">
<svg width="117px" height="140px" viewBox="0 0 117 140" version="1.1" xmlns="http://www.w3.org/2000/svg">
<g id="#000000ff">
<path fill="#000000" opacity="1.00" d=" M 0.00 0.00 L 117.00 0.00 L 117.00 140.00 L 0.00 140.00 L 0.00 0.00 M 33.19 10.24 C 17.94 11.78 5.20 25.62 5.03 40.96 C 4.95 59.97 5.02 78.98 5.00 97.99 C 4.83 110.84 13.30 123.19 25.29 127.77 C 32.17 130.71 39.77 129.92 47.04 130.00 C 59.05 129.93 71.06 130.14 83.06 129.91 C 98.98 129.26 112.81 115.02 112.96 99.09 C 113.05 80.06 112.98 61.02 112.99 41.99 C 113.11 30.94 106.92 20.16 97.42 14.56 C 91.92 11.20 85.40 9.77 78.98 9.98 C 63.72 10.18 48.44 9.67 33.19 10.24 Z" />
<path fill="#000000" opacity="1.00" d=" M 33.27 12.33 C 48.82 11.73 64.41 12.23 79.98 12.07 C 88.17 11.83 96.37 15.02 102.16 20.83 C 107.66 26.39 111.01 34.11 110.90 41.97 C 110.97 60.32 110.92 78.68 110.93 97.03 C 111.01 102.33 109.91 107.69 107.26 112.31 C 102.27 121.82 91.75 127.99 81.04 127.90 C 65.98 127.93 50.92 128.00 35.86 127.87 C 20.68 127.70 7.21 114.21 7.12 99.02 C 7.03 79.66 7.03 60.29 7.13 40.93 C 7.29 26.70 19.11 13.78 33.27 12.33 M 39.00 33.02 C 38.86 41.45 38.96 49.87 38.94 58.30 C 38.29 58.40 37.00 58.60 36.35 58.70 C 36.57 62.69 40.89 64.63 43.23 67.41 C 46.22 65.88 48.60 63.42 50.71 60.86 C 50.89 59.34 50.33 58.03 48.54 58.33 C 48.75 49.94 48.47 41.54 48.73 33.14 C 45.50 32.71 42.24 32.81 39.00 33.02 M 68.27 33.19 C 68.65 41.55 68.32 49.91 68.50 58.27 C 66.75 58.12 66.39 59.50 66.07 60.85 C 68.52 63.14 70.57 66.03 73.76 67.37 C 76.01 64.53 80.72 62.65 80.55 58.58 C 79.95 58.52 78.73 58.41 78.13 58.36 C 78.08 49.91 78.28 41.45 78.00 33.01 C 74.75 32.81 71.49 32.68 68.27 33.19 M 33.06 71.10 C 33.04 73.63 32.39 76.31 33.28 78.75 C 36.16 80.14 39.48 79.33 42.55 79.49 C 42.49 80.09 42.35 81.28 42.28 81.88 C 42.97 81.92 44.35 82.01 45.03 82.05 C 45.03 81.41 45.04 80.14 45.04 79.50 C 54.01 79.52 62.98 79.52 71.96 79.50 C 71.96 80.17 71.97 81.51 71.98 82.18 C 73.91 82.25 75.25 81.67 74.64 79.48 C 77.63 79.31 80.89 80.15 83.68 78.76 C 84.66 76.35 83.94 73.63 83.94 71.10 C 66.98 70.94 50.02 70.94 33.06 71.10 Z" />
<path fill="#000000" opacity="1.00" d=" M 41.93 35.95 C 43.16 35.97 44.39 35.98 45.62 35.97 C 45.90 44.38 45.00 52.88 46.14 61.23 C 45.30 62.10 44.46 62.97 43.63 63.85 C 42.85 63.03 42.07 62.20 41.32 61.36 C 42.67 52.99 41.58 44.40 41.93 35.95 Z" />
<path fill="#000000" opacity="1.00" d=" M 71.43 36.00 C 72.67 36.05 73.90 36.02 75.14 35.90 C 75.46 44.36 74.45 52.92 75.70 61.30 C 74.91 62.16 74.10 63.01 73.29 63.85 C 72.49 63.00 71.70 62.15 70.90 61.30 C 72.09 52.94 71.16 44.42 71.43 36.00 Z" />
<path fill="#000000" opacity="1.00" d=" M 35.89 74.09 C 50.96 74.10 66.04 74.10 81.11 74.09 C 81.14 74.69 81.18 75.89 81.20 76.49 C 66.07 76.48 50.93 76.48 35.80 76.49 C 35.82 75.89 35.86 74.69 35.89 74.09 Z" />
</g>
<g id="#747474ff">
<path fill="#747474" opacity="1.00" d=" M 33.19 10.24 C 48.44 9.67 63.72 10.18 78.98 9.98 C 85.40 9.77 91.92 11.20 97.42 14.56 C 106.92 20.16 113.11 30.94 112.99 41.99 C 112.98 61.02 113.05 80.06 112.96 99.09 C 112.81 115.02 98.98 129.26 83.06 129.91 C 71.06 130.14 59.05 129.93 47.04 130.00 C 39.77 129.92 32.17 130.71 25.29 127.77 C 13.30 123.19 4.83 110.84 5.00 97.99 C 5.02 78.98 4.95 59.97 5.03 40.96 C 5.20 25.62 17.94 11.78 33.19 10.24 M 33.27 12.33 C 19.11 13.78 7.29 26.70 7.13 40.93 C 7.03 60.29 7.03 79.66 7.12 99.02 C 7.21 114.21 20.68 127.70 35.86 127.87 C 50.92 128.00 65.98 127.93 81.04 127.90 C 91.75 127.99 102.27 121.82 107.26 112.31 C 109.91 107.69 111.01 102.33 110.93 97.03 C 110.92 78.68 110.97 60.32 110.90 41.97 C 111.01 34.11 107.66 26.39 102.16 20.83 C 96.37 15.02 88.17 11.83 79.98 12.07 C 64.41 12.23 48.82 11.73 33.27 12.33 Z" />
</g>
<g id="#f8fcf8ff">
<path fill="#f8fcf8" opacity="1.00" d=" M 39.00 33.02 C 42.24 32.81 45.50 32.71 48.73 33.14 C 48.47 41.54 48.75 49.94 48.54 58.33 C 50.33 58.03 50.89 59.34 50.71 60.86 C 48.60 63.42 46.22 65.88 43.23 67.41 C 40.89 64.63 36.57 62.69 36.35 58.70 C 37.00 58.60 38.29 58.40 38.94 58.30 C 38.96 49.87 38.86 41.45 39.00 33.02 M 41.93 35.95 C 41.58 44.40 42.67 52.99 41.32 61.36 C 42.07 62.20 42.85 63.03 43.63 63.85 C 44.46 62.97 45.30 62.10 46.14 61.23 C 45.00 52.88 45.90 44.38 45.62 35.97 C 44.39 35.98 43.16 35.97 41.93 35.95 Z" />
<path fill="#f8fcf8" opacity="1.00" d=" M 68.27 33.19 C 71.49 32.68 74.75 32.81 78.00 33.01 C 78.28 41.45 78.08 49.91 78.13 58.36 C 78.73 58.41 79.95 58.52 80.55 58.58 C 80.72 62.65 76.01 64.53 73.76 67.37 C 70.57 66.03 68.52 63.14 66.07 60.85 C 66.39 59.50 66.75 58.12 68.50 58.27 C 68.32 49.91 68.65 41.55 68.27 33.19 M 71.43 36.00 C 71.16 44.42 72.09 52.94 70.90 61.30 C 71.70 62.15 72.49 63.00 73.29 63.85 C 74.10 63.01 74.91 62.16 75.70 61.30 C 74.45 52.92 75.46 44.36 75.14 35.90 C 73.90 36.02 72.67 36.05 71.43 36.00 Z" />
<path fill="#f8fcf8" opacity="1.00" d=" M 33.06 71.10 C 50.02 70.94 66.98 70.94 83.94 71.10 C 83.94 73.63 84.66 76.35 83.68 78.76 C 80.89 80.15 77.63 79.31 74.64 79.48 C 75.25 81.67 73.91 82.25 71.98 82.18 C 71.97 81.51 71.96 80.17 71.96 79.50 C 62.98 79.52 54.01 79.52 45.04 79.50 C 45.04 80.14 45.03 81.41 45.03 82.05 C 44.35 82.01 42.97 81.92 42.28 81.88 C 42.35 81.28 42.49 80.09 42.55 79.49 C 39.48 79.33 36.16 80.14 33.28 78.75 C 32.39 76.31 33.04 73.63 33.06 71.10 M 35.89 74.09 C 35.86 74.69 35.82 75.89 35.80 76.49 C 50.93 76.48 66.07 76.48 81.20 76.49 C 81.18 75.89 81.14 74.69 81.11 74.09 C 66.04 74.10 50.96 74.10 35.89 74.09 Z" />
</g>
</svg>
