<?xml version="1.0" encoding="UTF-8" ?>
<!DOCTYPE svg PUBLIC "-//W3C//DTD SVG 1.1//EN" "http://www.w3.org/Graphics/SVG/1.1/DTD/svg11.dtd">
<svg width="117px" height="140px" viewBox="0 0 117 140" version="1.1" xmlns="http://www.w3.org/2000/svg">
<g id="#000000ff">
<path fill="#000000" opacity="1.00" d=" M 0.00 0.00 L 117.00 0.00 L 117.00 140.00 L 0.00 140.00 L 0.00 0.00 M 33.21 10.21 C 17.94 11.76 5.18 25.61 5.02 40.98 C 4.99 60.32 4.99 79.66 5.01 99.01 C 5.15 114.96 18.95 129.24 34.90 129.93 C 50.60 130.08 66.31 129.99 82.02 129.98 C 94.79 129.77 106.74 121.01 111.06 109.03 C 112.64 104.87 113.14 100.38 113.02 95.95 C 112.98 77.97 113.01 59.99 113.01 42.01 C 113.07 33.37 109.37 24.80 103.09 18.88 C 97.00 12.95 88.45 9.75 79.97 9.98 C 64.39 10.17 48.78 9.70 33.21 10.21 Z" />
<path fill="#000000" opacity="1.00" d=" M 30.43 12.72 C 33.58 11.98 36.83 11.96 40.04 11.99 C 54.36 12.07 68.68 11.89 82.99 12.08 C 97.88 12.71 110.84 26.05 110.97 40.97 C 111.02 60.31 111.03 79.65 110.96 98.99 C 110.89 114.28 97.27 127.87 81.98 127.95 C 66.63 128.04 51.28 128.01 35.93 127.97 C 20.68 127.81 7.14 114.27 7.03 99.01 C 6.98 79.66 6.98 60.31 7.03 40.96 C 7.22 27.67 17.45 15.45 30.43 12.72 M 36.42 45.38 C 33.98 46.85 32.62 50.14 34.36 52.68 C 36.77 55.25 39.84 57.08 42.52 59.36 C 44.27 61.08 46.79 60.44 48.88 59.91 C 49.64 57.34 50.18 54.69 50.04 52.00 C 52.03 52.00 54.01 52.00 56.00 52.00 C 56.00 51.25 56.00 49.75 56.00 49.00 C 54.00 49.00 52.01 49.00 50.01 49.00 C 50.21 45.98 49.80 42.96 48.87 40.08 C 43.73 37.71 40.23 42.90 36.42 45.38 M 67.99 41.24 C 68.00 47.08 68.00 52.93 67.99 58.77 C 69.87 59.46 71.82 61.23 73.91 60.28 C 75.99 59.30 77.57 57.54 79.46 56.26 C 81.54 54.57 84.44 53.04 84.47 49.97 C 84.40 46.93 81.53 45.41 79.45 43.74 C 77.58 42.48 76.04 40.74 74.02 39.74 C 71.88 38.74 69.90 40.49 67.99 41.24 M 57.00 49.00 C 57.00 49.75 57.00 51.25 57.00 52.00 C 57.75 52.00 59.25 52.00 60.00 52.00 C 60.00 51.25 60.00 49.75 60.00 49.00 C 59.25 49.00 57.75 49.00 57.00 49.00 M 61.00 49.00 C 61.00 49.75 61.00 51.25 61.00 52.00 C 63.00 52.00 65.00 52.00 67.00 52.00 C 67.00 51.25 67.00 49.75 67.00 49.00 C 65.00 49.00 63.00 49.00 61.00 49.00 Z" />
<path fill="#000000" opacity="1.00" d=" M 37.01 50.00 C 40.00 47.67 42.99 45.35 46.00 43.03 C 45.93 47.67 46.16 52.32 45.84 56.95 C 42.96 54.56 39.96 52.31 37.01 50.00 Z" />
<path fill="#000000" opacity="1.00" d=" M 71.97 43.11 C 75.08 45.27 77.97 47.72 80.99 50.00 C 78.00 52.33 75.01 54.64 72.01 56.97 C 71.98 52.35 72.03 47.73 71.97 43.11 Z" />
</g>
<g id="#717271ff">
<path fill="#717271" opacity="1.00" d=" M 33.21 10.21 C 48.78 9.70 64.39 10.17 79.97 9.98 C 88.45 9.75 97.00 12.95 103.09 18.88 C 109.37 24.80 113.07 33.37 113.01 42.01 C 113.01 59.99 112.98 77.97 113.02 95.95 C 113.14 100.38 112.64 104.87 111.06 109.03 C 106.74 121.01 94.79 129.77 82.02 129.98 C 66.31 129.99 50.60 130.08 34.90 129.93 C 18.95 129.24 5.15 114.96 5.01 99.01 C 4.99 79.66 4.99 60.32 5.02 40.98 C 5.18 25.61 17.94 11.76 33.21 10.21 M 30.43 12.72 C 17.45 15.45 7.22 27.67 7.03 40.96 C 6.98 60.31 6.98 79.66 7.03 99.01 C 7.14 114.27 20.68 127.81 35.93 127.97 C 51.28 128.01 66.63 128.04 81.98 127.95 C 97.27 127.87 110.89 114.28 110.96 98.99 C 111.03 79.65 111.02 60.31 110.97 40.97 C 110.84 26.05 97.88 12.71 82.99 12.08 C 68.68 11.89 54.36 12.07 40.04 11.99 C 36.83 11.96 33.58 11.98 30.43 12.72 Z" />
</g>
<g id="#f8fcf8ff">
<path fill="#f8fcf8" opacity="1.00" d=" M 36.42 45.38 C 40.23 42.90 43.73 37.71 48.87 40.08 C 49.80 42.96 50.21 45.98 50.01 49.00 C 52.01 49.00 54.00 49.00 56.00 49.00 C 56.00 49.75 56.00 51.25 56.00 52.00 C 54.01 52.00 52.03 52.00 50.04 52.00 C 50.18 54.69 49.64 57.34 48.88 59.91 C 46.79 60.44 44.27 61.08 42.52 59.36 C 39.84 57.08 36.77 55.25 34.36 52.68 C 32.62 50.14 33.98 46.85 36.42 45.38 M 37.01 50.00 C 39.96 52.31 42.96 54.56 45.84 56.95 C 46.16 52.32 45.93 47.67 46.00 43.03 C 42.99 45.35 40.00 47.67 37.01 50.00 Z" />
<path fill="#f8fcf8" opacity="1.00" d=" M 67.99 41.24 C 69.90 40.49 71.88 38.74 74.02 39.74 C 76.04 40.74 77.58 42.48 79.45 43.74 C 81.53 45.41 84.40 46.93 84.47 49.97 C 84.44 53.04 81.54 54.57 79.46 56.26 C 77.57 57.54 75.99 59.30 73.91 60.28 C 71.82 61.23 69.87 59.46 67.99 58.77 C 68.00 52.93 68.00 47.08 67.99 41.24 M 71.97 43.11 C 72.03 47.73 71.98 52.35 72.01 56.97 C 75.01 54.64 78.00 52.33 80.99 50.00 C 77.97 47.72 75.08 45.27 71.97 43.11 Z" />
<path fill="#f8fcf8" opacity="1.00" d=" M 57.00 49.00 C 57.75 49.00 59.25 49.00 60.00 49.00 C 60.00 49.75 60.00 51.25 60.00 52.00 C 59.25 52.00 57.75 52.00 57.00 52.00 C 57.00 51.25 57.00 49.75 57.00 49.00 Z" />
<path fill="#f8fcf8" opacity="1.00" d=" M 61.00 49.00 C 63.00 49.00 65.00 49.00 67.00 49.00 C 67.00 49.75 67.00 51.25 67.00 52.00 C 65.00 52.00 63.00 52.00 61.00 52.00 C 61.00 51.25 61.00 49.75 61.00 49.00 Z" />
</g>
</svg>
