<?xml version="1.0" encoding="UTF-8" ?>
<!DOCTYPE svg PUBLIC "-//W3C//DTD SVG 1.1//EN" "http://www.w3.org/Graphics/SVG/1.1/DTD/svg11.dtd">
<svg width="70px" height="28px" viewBox="0 0 70 28" version="1.1" xmlns="http://www.w3.org/2000/svg">
<g id="#1d1d28ff">
<path fill="#1d1d28" opacity="1.00" d=" M 0.00 0.00 L 2.80 0.00 C 2.15 1.04 1.21 1.90 0.00 2.21 L 0.00 0.00 Z" />
<path fill="#1d1d28" opacity="1.00" d=" M 67.20 0.00 L 70.00 0.00 L 70.00 1.80 C 68.69 2.46 67.82 0.87 67.20 0.00 Z" />
<path fill="#1d1d28" opacity="1.00" d=" M 67.06 28.00 C 67.82 26.82 68.82 25.83 70.00 25.07 L 70.00 28.00 L 67.06 28.00 Z" />
<path fill="#1d1d28" opacity="1.00" d=" M 0.00 26.20 C 1.30 25.53 2.18 27.13 2.79 28.00 L 0.00 28.00 L 0.00 26.20 Z" />
</g>
<g id="#4850f8ff">
<path fill="#4850f8" opacity="1.00" d=" M 2.80 0.00 L 67.20 0.00 C 67.82 0.87 68.69 2.46 70.00 1.80 L 70.00 25.07 C 68.82 25.83 67.82 26.82 67.06 28.00 L 2.79 28.00 C 2.18 27.13 1.30 25.53 0.00 26.20 L 0.00 2.21 C 1.21 1.90 2.15 1.04 2.80 0.00 Z" />
</g>
</svg>
