<?xml version="1.0" encoding="UTF-8" ?>
<!DOCTYPE svg PUBLIC "-//W3C//DTD SVG 1.1//EN" "http://www.w3.org/Graphics/SVG/1.1/DTD/svg11.dtd">
<svg width="117px" height="140px" viewBox="0 0 117 140" version="1.1" xmlns="http://www.w3.org/2000/svg">
<g id="#000000ff">
<path fill="#000000" opacity="1.00" d=" M 0.00 0.00 L 117.00 0.00 L 117.00 140.00 L 0.00 140.00 L 0.00 0.00 M 23.12 13.05 C 16.08 16.35 10.37 22.10 7.04 29.12 C 5.45 33.22 4.28 37.56 4.38 41.99 C 4.39 60.68 4.38 79.37 4.38 98.05 C 4.30 102.47 5.42 106.80 7.06 110.87 C 7.91 112.42 8.78 113.96 9.60 115.53 C 13.08 120.40 17.71 124.37 23.11 126.96 C 27.53 128.69 32.25 129.72 37.00 129.64 C 51.00 129.60 65.00 129.61 78.99 129.63 C 83.75 129.72 88.46 128.68 92.89 126.98 C 99.86 123.59 105.72 117.98 108.89 110.86 C 109.27 109.94 109.66 109.01 110.06 108.10 C 110.32 106.81 110.56 105.51 110.80 104.22 L 111.42 103.37 C 111.87 83.25 111.48 63.12 111.63 43.00 C 111.80 38.23 110.72 33.53 108.96 29.12 C 105.63 22.10 99.92 16.36 92.89 13.04 C 88.47 11.32 83.76 10.28 79.00 10.37 C 65.00 10.39 51.00 10.39 37.00 10.37 C 32.24 10.27 27.53 11.31 23.12 13.05 Z" />
<path fill="#000000" opacity="1.00" d=" M 26.49 12.72 C 29.65 12.25 32.80 11.53 36.02 11.60 C 50.68 11.63 65.33 11.63 79.99 11.60 C 83.22 11.52 86.38 12.24 89.55 12.72 L 89.56 13.21 C 98.86 16.00 105.99 23.83 109.16 32.86 C 109.51 34.27 109.87 35.67 110.28 37.07 C 110.51 58.39 110.33 79.72 110.38 101.05 C 109.20 112.64 100.78 123.38 89.54 126.79 L 89.55 127.28 C 86.37 127.76 83.22 128.47 79.99 128.40 C 65.32 128.37 50.65 128.37 35.98 128.40 C 32.75 128.47 29.60 127.75 26.42 127.28 L 26.47 126.80 C 17.15 124.03 10.02 116.18 6.83 107.14 C 6.49 105.73 6.12 104.33 5.72 102.94 C 5.55 80.98 5.55 59.01 5.71 37.05 C 6.12 35.67 6.48 34.27 6.83 32.88 C 9.99 23.84 17.13 16.03 26.41 13.20 L 26.49 12.72 M 35.17 42.01 C 35.18 50.67 35.18 59.33 35.17 68.00 C 38.06 68.00 40.94 68.00 43.83 68.00 C 43.83 64.95 43.82 61.90 43.83 58.85 C 45.99 59.26 49.13 58.38 50.42 60.70 C 50.98 63.09 50.90 65.57 51.10 68.00 C 53.95 68.00 56.80 68.00 59.66 68.05 C 59.00 65.38 59.01 62.63 58.78 59.91 C 58.83 57.87 56.78 56.88 55.53 55.63 C 58.79 53.75 59.68 49.71 58.54 46.32 C 57.45 43.66 54.42 42.55 51.76 42.27 C 46.24 41.80 40.70 42.05 35.17 42.01 M 62.60 49.18 C 62.70 53.78 62.30 58.42 62.81 63.00 C 63.05 65.77 65.32 67.99 68.06 68.30 C 71.03 69.07 73.76 67.47 76.24 66.06 C 76.22 66.54 76.18 67.51 76.16 68.00 C 78.57 68.00 80.99 68.00 83.41 68.00 C 83.41 61.72 83.42 55.44 83.40 49.17 C 80.79 49.17 78.19 49.17 75.59 49.18 C 75.62 53.56 75.76 57.97 75.13 62.33 C 73.67 62.44 72.20 62.50 70.73 62.53 C 70.28 58.08 70.39 53.61 70.40 49.15 C 67.80 49.17 65.20 49.17 62.60 49.18 Z" />
<path fill="#000000" opacity="1.00" d=" M 43.84 48.24 C 45.93 48.38 48.07 48.28 50.11 48.84 C 50.65 49.91 51.13 51.01 51.56 52.13 C 49.07 53.00 46.44 53.27 43.81 53.30 C 43.83 51.61 43.84 49.93 43.84 48.24 Z" />
</g>
<g id="#e76010ff">
<path fill="#e76010" opacity="1.00" d=" M 23.12 13.05 C 27.53 11.31 32.24 10.27 37.00 10.37 C 51.00 10.39 65.00 10.39 79.00 10.37 C 83.76 10.28 88.47 11.32 92.89 13.04 C 99.92 16.36 105.63 22.10 108.96 29.12 C 110.72 33.53 111.80 38.23 111.63 43.00 C 111.48 63.12 111.87 83.25 111.42 103.37 L 110.80 104.22 C 110.56 105.51 110.32 106.81 110.06 108.10 C 109.66 109.01 109.27 109.94 108.89 110.86 C 105.72 117.98 99.86 123.59 92.89 126.98 C 88.46 128.68 83.75 129.72 78.99 129.63 C 65.00 129.61 51.00 129.60 37.00 129.64 C 32.25 129.72 27.53 128.69 23.11 126.96 C 17.71 124.37 13.08 120.40 9.60 115.53 C 8.78 113.96 7.91 112.42 7.06 110.87 C 5.42 106.80 4.30 102.47 4.38 98.05 C 4.38 79.37 4.39 60.68 4.38 41.99 C 4.28 37.56 5.45 33.22 7.04 29.12 C 10.37 22.10 16.08 16.35 23.12 13.05 M 26.49 12.72 L 26.41 13.20 C 17.13 16.03 9.99 23.84 6.83 32.88 C 6.48 34.27 6.12 35.67 5.71 37.05 C 5.55 59.01 5.55 80.98 5.72 102.94 C 6.12 104.33 6.49 105.73 6.83 107.14 C 10.02 116.18 17.15 124.03 26.47 126.80 L 26.42 127.28 C 29.60 127.75 32.75 128.47 35.98 128.40 C 50.65 128.37 65.32 128.37 79.99 128.40 C 83.22 128.47 86.37 127.76 89.55 127.28 L 89.54 126.79 C 100.78 123.38 109.20 112.64 110.38 101.05 C 110.33 79.72 110.51 58.39 110.28 37.07 C 109.87 35.67 109.51 34.27 109.16 32.86 C 105.99 23.83 98.86 16.00 89.56 13.21 L 89.55 12.72 C 86.38 12.24 83.22 11.52 79.99 11.60 C 65.33 11.63 50.68 11.63 36.02 11.60 C 32.80 11.53 29.65 12.25 26.49 12.72 Z" />
<path fill="#e76010" opacity="1.00" d=" M 35.17 42.01 C 40.70 42.05 46.24 41.80 51.76 42.27 C 54.42 42.55 57.45 43.66 58.54 46.32 C 59.68 49.71 58.79 53.75 55.53 55.63 C 56.78 56.88 58.83 57.87 58.78 59.91 C 59.01 62.63 59.00 65.38 59.66 68.05 C 56.80 68.00 53.95 68.00 51.10 68.00 C 50.90 65.57 50.98 63.09 50.42 60.70 C 49.13 58.38 45.99 59.26 43.83 58.85 C 43.82 61.90 43.83 64.95 43.83 68.00 C 40.94 68.00 38.06 68.00 35.17 68.00 C 35.18 59.33 35.18 50.67 35.17 42.01 M 43.84 48.24 C 43.84 49.93 43.83 51.61 43.81 53.30 C 46.44 53.27 49.07 53.00 51.56 52.13 C 51.13 51.01 50.65 49.91 50.11 48.84 C 48.07 48.28 45.93 48.38 43.84 48.24 Z" />
<path fill="#e76010" opacity="1.00" d=" M 62.60 49.18 C 65.20 49.17 67.80 49.17 70.40 49.15 C 70.39 53.61 70.28 58.08 70.73 62.53 C 72.20 62.50 73.67 62.44 75.13 62.33 C 75.76 57.97 75.62 53.56 75.59 49.18 C 78.19 49.17 80.79 49.17 83.40 49.17 C 83.42 55.44 83.41 61.72 83.41 68.00 C 80.99 68.00 78.57 68.00 76.16 68.00 C 76.18 67.51 76.22 66.54 76.24 66.06 C 73.76 67.47 71.03 69.07 68.06 68.30 C 65.32 67.99 63.05 65.77 62.81 63.00 C 62.30 58.42 62.70 53.78 62.60 49.18 Z" />
</g>
</svg>
