<?xml version="1.0" encoding="UTF-8" ?>
<!DOCTYPE svg PUBLIC "-//W3C//DTD SVG 1.1//EN" "http://www.w3.org/Graphics/SVG/1.1/DTD/svg11.dtd">
<svg width="70px" height="28px" viewBox="0 0 70 28" version="1.1" xmlns="http://www.w3.org/2000/svg">
<g id="#181818ff">
<path fill="#181818" opacity="1.00" d=" M 0.00 0.00 L 1.79 0.00 C 1.86 1.39 1.27 1.96 0.00 1.71 L 0.00 0.00 Z" />
<path fill="#181818" opacity="1.00" d=" M 68.29 0.00 L 70.00 0.00 L 70.00 1.79 C 68.61 1.86 68.04 1.27 68.29 0.00 Z" />
<path fill="#181818" opacity="1.00" d=" M 3.08 1.22 C 9.33 0.58 15.65 0.96 21.93 0.89 C 35.96 0.76 49.98 0.83 64.00 0.83 C 66.03 0.76 69.00 1.23 68.95 3.87 C 69.43 10.57 69.12 17.32 68.92 24.02 C 69.14 26.75 66.08 27.17 64.04 27.14 C 47.38 27.43 30.71 26.94 14.04 27.14 C 10.39 27.15 6.66 27.62 3.06 26.82 C 0.52 26.15 1.00 22.97 0.83 20.97 C 0.94 15.63 0.59 10.29 0.93 4.97 C 1.00 3.53 1.30 1.45 3.08 1.22 M 18.88 8.93 C 18.83 12.96 18.84 16.98 18.85 21.00 C 19.38 21.00 20.44 21.00 20.97 21.00 C 21.02 19.64 21.08 18.28 21.14 16.92 C 23.54 16.61 27.26 16.27 27.05 13.02 C 27.43 8.61 21.89 8.81 18.88 8.93 M 27.81 8.72 C 28.51 12.83 29.51 16.89 30.19 21.00 C 30.86 21.00 32.19 21.00 32.85 21.00 C 33.34 18.77 33.91 16.56 34.48 14.36 C 34.02 13.61 33.55 12.86 33.07 12.13 C 32.57 14.38 32.00 16.62 31.47 18.87 C 31.18 15.62 31.02 12.31 29.90 9.21 C 29.38 9.09 28.34 8.84 27.81 8.72 M 34.01 8.92 L 33.73 10.40 C 35.20 13.85 35.98 17.53 36.90 21.15 C 37.57 21.08 38.91 20.95 39.58 20.88 C 40.17 16.89 41.04 12.94 41.75 8.96 C 41.27 9.01 40.31 9.12 39.83 9.17 C 38.89 11.95 38.68 14.89 38.06 17.73 C 37.24 14.87 36.67 11.93 35.67 9.12 C 35.25 9.07 34.42 8.97 34.01 8.92 M 46.14 20.98 C 48.38 21.62 50.68 20.98 52.25 19.28 C 51.86 19.10 51.08 18.73 50.69 18.55 C 49.27 18.90 47.70 19.71 46.34 18.73 C 44.59 17.04 44.44 13.89 45.92 12.00 C 47.11 10.02 49.61 11.53 51.39 11.58 C 51.64 9.20 48.91 8.54 47.03 9.00 C 41.79 10.22 41.28 18.91 46.14 20.98 Z" />
<path fill="#181818" opacity="1.00" d=" M 21.00 10.83 C 22.61 10.96 24.93 10.94 25.06 13.10 C 24.27 14.62 22.53 14.85 21.04 15.18 C 21.02 13.73 21.01 12.28 21.00 10.83 Z" />
<path fill="#181818" opacity="1.00" d=" M 0.00 26.21 C 1.39 26.14 1.96 26.73 1.71 28.00 L 0.00 28.00 L 0.00 26.21 Z" />
<path fill="#181818" opacity="1.00" d=" M 68.34 28.00 C 68.04 26.60 68.60 26.04 70.00 26.32 L 70.00 28.00 L 68.34 28.00 Z" />
</g>
<g id="#898fdfff">
<path fill="#898fdf" opacity="1.00" d=" M 1.79 0.00 L 68.29 0.00 C 68.04 1.27 68.61 1.86 70.00 1.79 L 70.00 26.32 C 68.60 26.04 68.04 26.60 68.34 28.00 L 1.71 28.00 C 1.96 26.73 1.39 26.14 0.00 26.21 L 0.00 1.71 C 1.27 1.96 1.86 1.39 1.79 0.00 M 3.08 1.22 C 1.30 1.45 1.00 3.53 0.93 4.97 C 0.59 10.29 0.94 15.63 0.83 20.97 C 1.00 22.97 0.52 26.15 3.06 26.82 C 6.66 27.62 10.39 27.15 14.04 27.14 C 30.71 26.94 47.38 27.43 64.04 27.14 C 66.08 27.17 69.14 26.75 68.92 24.02 C 69.12 17.32 69.43 10.57 68.95 3.87 C 69.00 1.23 66.03 0.76 64.00 0.83 C 49.98 0.83 35.96 0.76 21.93 0.89 C 15.65 0.96 9.33 0.58 3.08 1.22 Z" />
<path fill="#898fdf" opacity="1.00" d=" M 18.88 8.93 C 21.89 8.81 27.43 8.61 27.05 13.02 C 27.26 16.27 23.54 16.61 21.14 16.92 C 21.08 18.28 21.02 19.64 20.97 21.00 C 20.44 21.00 19.38 21.00 18.85 21.00 C 18.84 16.98 18.83 12.96 18.88 8.93 M 21.00 10.83 C 21.01 12.28 21.02 13.73 21.04 15.18 C 22.53 14.85 24.27 14.62 25.06 13.10 C 24.93 10.94 22.61 10.96 21.00 10.83 Z" />
<path fill="#898fdf" opacity="1.00" d=" M 27.81 8.72 C 28.34 8.84 29.38 9.09 29.90 9.21 C 31.02 12.31 31.18 15.62 31.47 18.87 C 32.00 16.62 32.57 14.38 33.07 12.13 C 33.55 12.86 34.02 13.61 34.48 14.36 C 33.91 16.56 33.34 18.77 32.85 21.00 C 32.19 21.00 30.86 21.00 30.19 21.00 C 29.51 16.89 28.51 12.83 27.81 8.72 Z" />
<path fill="#898fdf" opacity="1.00" d=" M 34.01 8.92 C 34.42 8.97 35.25 9.07 35.67 9.12 C 36.67 11.93 37.24 14.87 38.06 17.73 C 38.68 14.89 38.89 11.95 39.83 9.17 C 40.31 9.12 41.27 9.01 41.75 8.96 C 41.04 12.94 40.17 16.89 39.58 20.88 C 38.91 20.95 37.57 21.08 36.90 21.15 C 35.98 17.53 35.20 13.85 33.73 10.40 L 34.01 8.92 Z" />
<path fill="#898fdf" opacity="1.00" d=" M 46.14 20.98 C 41.28 18.91 41.79 10.22 47.03 9.00 C 48.91 8.54 51.64 9.20 51.39 11.58 C 49.61 11.53 47.11 10.02 45.92 12.00 C 44.44 13.89 44.59 17.04 46.34 18.73 C 47.70 19.71 49.27 18.90 50.69 18.55 C 51.08 18.73 51.86 19.10 52.25 19.28 C 50.68 20.98 48.38 21.62 46.14 20.98 Z" />
</g>
</svg>
