<?xml version="1.0" encoding="UTF-8" ?>
<!DOCTYPE svg PUBLIC "-//W3C//DTD SVG 1.1//EN" "http://www.w3.org/Graphics/SVG/1.1/DTD/svg11.dtd">
<svg width="51px" height="30px" viewBox="0 0 51 30" version="1.1" xmlns="http://www.w3.org/2000/svg">
<g id="#4084f0ff">
<path fill="#4084f0" opacity="1.00" d=" M 0.00 0.00 L 16.63 0.00 C 11.26 4.68 5.31 8.65 0.00 13.40 L 0.00 0.00 Z" />
<path fill="#4084f0" opacity="1.00" d=" M 16.68 0.00 L 51.00 0.00 L 51.00 30.00 L 0.00 30.00 L 0.00 13.55 C 6.00 17.12 11.04 22.11 16.75 26.12 C 16.77 23.58 16.77 21.05 16.78 18.51 C 26.26 18.36 36.24 20.77 43.02 27.80 C 41.79 23.56 39.78 19.49 36.64 16.33 C 31.50 10.78 23.99 8.54 16.75 7.34 C 16.74 4.89 16.73 2.45 16.68 0.00 Z" />
</g>
<g id="#f8fcf8ff">
<path fill="#f8fcf8" opacity="1.00" d=" M 16.63 0.00 L 16.68 0.00 C 16.73 2.45 16.74 4.89 16.75 7.34 C 23.99 8.54 31.50 10.78 36.64 16.33 C 39.78 19.49 41.79 23.56 43.02 27.80 C 36.24 20.77 26.26 18.36 16.78 18.51 C 16.77 21.05 16.77 23.58 16.75 26.12 C 11.04 22.11 6.00 17.12 0.00 13.55 L 0.00 13.40 C 5.31 8.65 11.26 4.68 16.63 0.00 Z" />
</g>
</svg>
