<?xml version="1.0" encoding="UTF-8" ?>
<!DOCTYPE svg PUBLIC "-//W3C//DTD SVG 1.1//EN" "http://www.w3.org/Graphics/SVG/1.1/DTD/svg11.dtd">
<svg width="117px" height="92px" viewBox="0 0 117 92" version="1.1" xmlns="http://www.w3.org/2000/svg">
<g id="#000000ff">
<path fill="#000000" opacity="1.00" d=" M 0.00 0.00 L 117.00 0.00 L 117.00 92.00 L 0.00 92.00 L 0.00 0.00 M 37.88 33.84 C 37.00 35.77 37.95 37.72 38.39 39.61 C 45.42 46.68 51.55 54.38 58.78 61.27 C 59.91 62.42 62.15 62.41 63.26 61.23 C 70.49 54.35 76.61 46.65 83.64 39.60 C 84.10 37.73 84.95 35.77 84.13 33.86 L 83.09 33.63 C 68.03 33.75 52.91 33.33 37.88 33.84 Z" />
<path fill="#000000" opacity="1.00" d=" M 42.04 37.57 C 54.68 37.92 67.37 37.86 80.02 37.60 C 73.49 44.36 67.22 51.28 61.02 58.28 C 54.78 51.33 48.52 44.40 42.04 37.57 Z" />
</g>
<g id="#f8fcf8ff">
<path fill="#f8fcf8" opacity="1.00" d=" M 37.88 33.84 C 52.91 33.33 68.03 33.75 83.09 33.63 L 84.13 33.86 C 84.95 35.77 84.10 37.73 83.64 39.60 C 76.61 46.65 70.49 54.35 63.26 61.23 C 62.15 62.41 59.91 62.42 58.78 61.27 C 51.55 54.38 45.42 46.68 38.39 39.61 C 37.95 37.72 37.00 35.77 37.88 33.84 M 42.04 37.57 C 48.52 44.40 54.78 51.33 61.02 58.28 C 67.22 51.28 73.49 44.36 80.02 37.60 C 67.37 37.86 54.68 37.92 42.04 37.57 Z" />
</g>
</svg>
