<?xml version="1.0" encoding="UTF-8" ?>
<!DOCTYPE svg PUBLIC "-//W3C//DTD SVG 1.1//EN" "http://www.w3.org/Graphics/SVG/1.1/DTD/svg11.dtd">
<svg width="32px" height="21px" viewBox="0 0 32 21" version="1.1" xmlns="http://www.w3.org/2000/svg">
<g id="#e0e000ff">
<path fill="#e0e000" opacity="1.00" d=" M 0.00 0.00 L 10.30 0.00 C 6.82 3.44 3.40 6.94 0.00 10.45 L 0.00 0.00 Z" />
<path fill="#e0e000" opacity="1.00" d=" M 31.00 0.00 L 32.00 0.00 L 32.00 21.00 L 31.00 21.00 C 31.00 14.00 31.00 7.00 31.00 0.00 Z" />
<path fill="#e0e000" opacity="1.00" d=" M 11.18 2.01 C 17.12 1.99 23.06 2.00 29.00 2.00 C 29.00 7.67 29.00 13.33 29.00 19.00 C 23.06 19.00 17.12 19.01 11.18 18.99 C 8.40 16.16 5.61 13.33 2.82 10.51 C 5.59 7.66 8.39 4.85 11.18 2.01 M 13.43 6.11 C 14.85 7.58 16.29 9.05 17.75 10.49 C 16.29 11.93 14.87 13.42 13.43 14.89 C 13.80 15.25 14.54 15.97 14.90 16.33 C 16.33 14.87 17.77 13.43 19.21 11.97 C 20.65 13.57 22.19 15.07 23.85 16.44 C 26.15 14.04 21.98 12.71 21.03 10.81 C 21.06 8.33 26.53 7.21 23.81 4.57 C 22.19 5.96 20.65 7.45 19.21 9.02 C 17.77 7.58 16.33 6.14 14.91 4.68 C 14.54 5.04 13.80 5.75 13.43 6.11 Z" />
<path fill="#e0e000" opacity="1.00" d=" M 0.00 10.54 C 3.41 14.05 6.82 17.56 10.30 21.00 L 0.00 21.00 L 0.00 10.54 Z" />
</g>
<g id="#000000ff">
<path fill="#000000" opacity="1.00" d=" M 10.30 0.00 L 31.00 0.00 C 31.00 7.00 31.00 14.00 31.00 21.00 L 10.30 21.00 C 6.82 17.56 3.41 14.05 0.00 10.54 L 0.00 10.45 C 3.40 6.94 6.82 3.44 10.30 0.00 M 11.18 2.01 C 8.39 4.85 5.59 7.66 2.82 10.51 C 5.61 13.33 8.40 16.16 11.18 18.99 C 17.12 19.01 23.06 19.00 29.00 19.00 C 29.00 13.33 29.00 7.67 29.00 2.00 C 23.06 2.00 17.12 1.99 11.18 2.01 Z" />
<path fill="#000000" opacity="1.00" d=" M 13.43 6.11 C 13.80 5.75 14.54 5.04 14.91 4.68 C 16.33 6.14 17.77 7.58 19.21 9.02 C 20.65 7.45 22.19 5.96 23.81 4.57 C 26.53 7.21 21.06 8.33 21.03 10.81 C 21.98 12.71 26.15 14.04 23.85 16.44 C 22.19 15.07 20.65 13.57 19.21 11.97 C 17.77 13.43 16.33 14.87 14.90 16.33 C 14.54 15.97 13.80 15.25 13.43 14.89 C 14.87 13.42 16.29 11.93 17.75 10.49 C 16.29 9.05 14.85 7.58 13.43 6.11 Z" />
</g>
</svg>
