<?xml version="1.0" encoding="UTF-8" ?>
<!DOCTYPE svg PUBLIC "-//W3C//DTD SVG 1.1//EN" "http://www.w3.org/Graphics/SVG/1.1/DTD/svg11.dtd">
<svg width="117px" height="140px" viewBox="0 0 117 140" version="1.1" xmlns="http://www.w3.org/2000/svg">
<g id="#000000ff">
<path fill="#000000" opacity="1.00" d=" M 0.00 0.00 L 117.00 0.00 L 117.00 140.00 L 0.00 140.00 L 0.00 0.00 M 33.15 10.24 C 17.93 11.81 5.21 25.61 5.03 40.93 C 4.98 60.31 4.98 79.70 5.03 99.08 C 5.20 115.02 19.01 129.26 34.95 129.92 C 50.65 130.09 66.37 130.00 82.08 129.96 C 98.38 129.81 112.84 115.36 112.96 99.05 C 113.05 80.05 112.98 61.05 112.99 42.04 C 113.11 31.23 107.22 20.62 98.03 14.93 C 92.41 11.33 85.67 9.75 79.02 9.98 C 63.73 10.18 48.42 9.67 33.15 10.24 Z" />
<path fill="#000000" opacity="1.00" d=" M 30.47 12.68 C 34.57 11.79 38.80 12.01 42.96 12.00 C 56.34 12.06 69.72 11.88 83.09 12.09 C 97.94 12.74 110.87 26.08 110.96 40.97 C 111.03 60.33 111.03 79.70 110.96 99.06 C 110.86 113.96 97.88 127.33 83.00 127.90 C 70.68 128.14 58.34 127.93 46.02 128.00 C 39.63 127.89 32.98 128.63 26.88 126.26 C 15.58 122.32 7.20 111.08 7.03 99.06 C 6.98 79.69 6.98 60.32 7.03 40.95 C 7.19 27.63 17.49 15.42 30.47 12.68 M 52.36 26.06 C 52.16 36.38 52.37 46.71 52.27 57.03 C 43.63 61.00 42.71 74.22 49.69 80.21 C 55.62 86.04 66.45 84.86 71.09 77.99 C 73.83 74.95 72.77 70.68 72.96 66.98 C 73.46 62.94 70.29 59.91 67.47 57.57 C 67.37 47.00 67.60 36.43 67.37 25.87 C 65.37 22.75 61.09 24.51 58.05 24.04 C 56.16 24.27 52.55 23.22 52.36 26.06 M 45.93 31.06 C 45.06 33.33 48.60 34.87 49.50 32.58 C 50.46 31.26 48.54 30.31 47.94 29.43 C 47.44 29.84 46.44 30.66 45.93 31.06 M 46.54 36.48 C 44.71 37.98 46.66 40.76 48.72 39.71 C 51.16 38.51 48.65 34.88 46.54 36.48 M 47.51 42.46 C 44.29 42.71 46.51 47.70 48.81 45.87 C 50.74 44.92 49.35 42.11 47.51 42.46 M 47.57 48.67 C 45.11 48.85 45.49 52.96 47.99 52.39 C 50.54 52.35 49.93 48.20 47.57 48.67 Z" />
<path fill="#000000" opacity="1.00" d=" M 55.24 27.09 C 58.33 27.06 61.43 27.06 64.52 27.10 C 64.60 37.95 64.32 48.80 64.66 59.64 C 72.36 62.80 72.60 74.59 66.12 79.13 C 61.04 83.64 52.62 81.15 49.57 75.45 C 45.92 69.73 48.24 60.84 55.13 58.90 C 55.36 48.30 55.15 37.69 55.24 27.09 M 57.90 30.71 C 57.91 41.33 57.90 51.94 57.91 62.56 C 54.62 63.48 51.83 66.33 52.12 69.94 C 51.60 75.14 57.02 79.77 62.08 78.24 C 67.34 76.85 69.40 69.85 66.43 65.53 C 65.35 63.91 63.42 63.29 61.76 62.46 C 61.80 51.88 61.73 41.30 61.80 30.71 C 60.50 30.71 59.20 30.71 57.90 30.71 Z" />
</g>
<g id="#747574ff">
<path fill="#747574" opacity="1.00" d=" M 33.15 10.24 C 48.42 9.67 63.73 10.18 79.02 9.98 C 85.67 9.75 92.41 11.33 98.03 14.93 C 107.22 20.62 113.11 31.23 112.99 42.04 C 112.98 61.05 113.05 80.05 112.96 99.05 C 112.84 115.36 98.38 129.81 82.08 129.96 C 66.37 130.00 50.65 130.09 34.95 129.92 C 19.01 129.26 5.20 115.02 5.03 99.08 C 4.98 79.70 4.98 60.31 5.03 40.93 C 5.21 25.61 17.93 11.81 33.15 10.24 M 30.47 12.68 C 17.49 15.42 7.19 27.63 7.03 40.95 C 6.98 60.32 6.98 79.69 7.03 99.06 C 7.20 111.08 15.58 122.32 26.88 126.26 C 32.98 128.63 39.63 127.89 46.02 128.00 C 58.34 127.93 70.68 128.14 83.00 127.90 C 97.88 127.33 110.86 113.96 110.96 99.06 C 111.03 79.70 111.03 60.33 110.96 40.97 C 110.87 26.08 97.94 12.74 83.09 12.09 C 69.72 11.88 56.34 12.06 42.96 12.00 C 38.80 12.01 34.57 11.79 30.47 12.68 Z" />
</g>
<g id="#f8fcf8ff">
<path fill="#f8fcf8" opacity="1.00" d=" M 52.36 26.06 C 52.55 23.22 56.16 24.27 58.05 24.04 C 61.09 24.51 65.37 22.75 67.37 25.87 C 67.60 36.43 67.37 47.00 67.47 57.57 C 70.29 59.91 73.46 62.94 72.96 66.98 C 72.77 70.68 73.83 74.95 71.09 77.99 C 66.45 84.86 55.62 86.04 49.69 80.21 C 42.71 74.22 43.63 61.00 52.27 57.03 C 52.37 46.71 52.16 36.38 52.36 26.06 M 55.24 27.09 C 55.15 37.69 55.36 48.30 55.13 58.90 C 48.24 60.84 45.92 69.73 49.57 75.45 C 52.62 81.15 61.04 83.64 66.12 79.13 C 72.60 74.59 72.36 62.80 64.66 59.64 C 64.32 48.80 64.60 37.95 64.52 27.10 C 61.43 27.06 58.33 27.06 55.24 27.09 Z" />
<path fill="#f8fcf8" opacity="1.00" d=" M 45.93 31.06 C 46.44 30.66 47.44 29.84 47.94 29.43 C 48.54 30.31 50.46 31.26 49.50 32.58 C 48.60 34.87 45.06 33.33 45.93 31.06 Z" />
<path fill="#f8fcf8" opacity="1.00" d=" M 57.90 30.71 C 59.20 30.71 60.50 30.71 61.80 30.71 C 61.73 41.30 61.80 51.88 61.76 62.46 C 63.42 63.29 65.35 63.91 66.43 65.53 C 69.40 69.85 67.34 76.85 62.08 78.24 C 57.02 79.77 51.60 75.14 52.12 69.94 C 51.83 66.33 54.62 63.48 57.91 62.56 C 57.90 51.94 57.91 41.33 57.90 30.71 Z" />
<path fill="#f8fcf8" opacity="1.00" d=" M 46.54 36.48 C 48.65 34.88 51.16 38.51 48.72 39.71 C 46.66 40.76 44.71 37.98 46.54 36.48 Z" />
<path fill="#f8fcf8" opacity="1.00" d=" M 47.51 42.46 C 49.35 42.11 50.74 44.92 48.81 45.87 C 46.51 47.70 44.29 42.71 47.51 42.46 Z" />
<path fill="#f8fcf8" opacity="1.00" d=" M 47.57 48.67 C 49.93 48.20 50.54 52.35 47.99 52.39 C 45.49 52.96 45.11 48.85 47.57 48.67 Z" />
</g>
</svg>
