<?xml version="1.0" encoding="UTF-8" ?>
<!DOCTYPE svg PUBLIC "-//W3C//DTD SVG 1.1//EN" "http://www.w3.org/Graphics/SVG/1.1/DTD/svg11.dtd">
<svg width="117px" height="140px" viewBox="0 0 117 140" version="1.1" xmlns="http://www.w3.org/2000/svg">
<g id="#000000ff">
<path fill="#000000" opacity="1.00" d=" M 0.00 0.00 L 117.00 0.00 L 117.00 140.00 L 0.00 140.00 L 0.00 0.00 M 54.28 33.22 C 51.52 38.53 48.82 43.88 46.14 49.24 C 44.71 52.00 44.66 55.17 44.65 58.21 C 44.99 58.71 45.66 59.70 45.99 60.20 C 46.63 60.34 47.91 60.63 48.54 60.78 C 45.34 65.50 44.10 71.11 44.69 76.76 C 47.84 76.99 50.99 77.36 54.15 77.12 C 57.76 76.65 61.43 77.81 65.00 76.83 C 68.87 77.68 72.86 77.16 76.74 76.73 C 77.20 71.14 75.82 65.64 72.84 60.90 C 74.47 60.52 76.35 59.78 76.66 57.90 C 77.40 51.65 73.52 46.35 71.01 40.97 C 68.51 36.28 66.79 30.12 60.93 28.67 C 58.32 29.45 55.55 30.61 54.28 33.22 Z" />
<path fill="#000000" opacity="1.00" d=" M 57.23 34.11 C 58.53 31.51 62.53 31.45 63.99 33.92 C 66.89 38.86 69.17 44.13 71.85 49.19 C 73.37 51.78 73.76 54.79 73.82 57.75 C 71.85 57.76 69.87 57.76 67.90 57.76 C 70.37 62.89 74.05 67.84 73.82 73.81 C 65.08 73.94 56.34 73.81 47.61 73.89 C 47.01 67.84 50.91 62.88 53.38 57.72 C 51.45 57.71 49.52 57.73 47.59 57.72 C 47.65 55.10 47.70 52.38 49.02 50.04 C 51.77 44.74 54.30 39.31 57.23 34.11 Z" />
</g>
<g id="#f7fbf7ff">
<path fill="#f7fbf7" opacity="1.00" d=" M 54.28 33.22 C 55.55 30.61 58.32 29.45 60.93 28.67 C 66.79 30.12 68.51 36.28 71.01 40.97 C 73.52 46.35 77.40 51.65 76.66 57.90 C 76.35 59.78 74.47 60.52 72.84 60.90 C 75.82 65.64 77.20 71.14 76.74 76.73 C 72.86 77.16 68.87 77.68 65.00 76.83 C 61.43 77.81 57.76 76.65 54.15 77.12 C 50.99 77.36 47.84 76.99 44.69 76.76 C 44.10 71.11 45.34 65.50 48.54 60.78 C 47.91 60.63 46.63 60.34 45.99 60.20 C 45.66 59.70 44.99 58.71 44.65 58.21 C 44.66 55.17 44.71 52.00 46.14 49.24 C 48.82 43.88 51.52 38.53 54.28 33.22 M 57.23 34.11 C 54.30 39.31 51.77 44.74 49.02 50.04 C 47.70 52.38 47.65 55.10 47.59 57.72 C 49.52 57.73 51.45 57.71 53.38 57.72 C 50.91 62.88 47.01 67.84 47.61 73.89 C 56.34 73.81 65.08 73.94 73.82 73.81 C 74.05 67.84 70.37 62.89 67.90 57.76 C 69.87 57.76 71.85 57.76 73.82 57.75 C 73.76 54.79 73.37 51.78 71.85 49.19 C 69.17 44.13 66.89 38.86 63.99 33.92 C 62.53 31.45 58.53 31.51 57.23 34.11 Z" />
</g>
</svg>
