<?xml version="1.0" encoding="UTF-8" ?>
<!DOCTYPE svg PUBLIC "-//W3C//DTD SVG 1.1//EN" "http://www.w3.org/Graphics/SVG/1.1/DTD/svg11.dtd">
<svg width="117px" height="140px" viewBox="0 0 117 140" version="1.1" xmlns="http://www.w3.org/2000/svg">
<g id="#000000ff">
<path fill="#000000" opacity="1.00" d=" M 0.00 0.00 L 117.00 0.00 L 117.00 140.00 L 0.00 140.00 L 0.00 0.00 M 46.66 42.00 C 46.55 50.67 46.56 59.33 46.66 68.00 C 49.55 68.00 52.45 68.00 55.35 68.00 C 55.44 59.33 55.45 50.67 55.34 42.00 C 52.45 42.00 49.55 42.00 46.66 42.00 M 61.23 43.17 C 61.18 45.09 61.14 47.02 61.09 48.94 C 60.39 49.05 58.98 49.27 58.27 49.39 C 58.30 50.77 58.32 52.15 58.32 53.53 C 59.02 53.61 60.43 53.76 61.14 53.84 C 61.14 57.21 61.04 60.59 61.24 63.95 C 61.39 65.18 61.45 66.65 62.65 67.36 C 65.78 68.34 69.13 67.94 72.37 68.05 C 72.34 66.30 72.35 64.54 72.37 62.79 C 71.52 62.73 69.81 62.60 68.95 62.54 C 68.90 59.53 68.87 56.52 68.93 53.51 C 69.88 53.46 71.76 53.35 72.71 53.30 C 72.66 50.85 71.65 48.71 68.96 48.56 C 68.86 46.76 68.84 44.96 68.75 43.17 C 66.24 43.17 63.73 43.17 61.23 43.17 Z" />
</g>
<g id="#f8fcf8ff">
<path fill="#f8fcf8" opacity="1.00" d=" M 46.66 42.00 C 49.55 42.00 52.45 42.00 55.34 42.00 C 55.45 50.67 55.44 59.33 55.35 68.00 C 52.45 68.00 49.55 68.00 46.66 68.00 C 46.56 59.33 46.55 50.67 46.66 42.00 Z" />
<path fill="#f8fcf8" opacity="1.00" d=" M 61.23 43.17 C 63.73 43.17 66.24 43.17 68.75 43.17 C 68.84 44.96 68.86 46.76 68.96 48.56 C 71.65 48.71 72.66 50.85 72.71 53.30 C 71.76 53.35 69.88 53.46 68.93 53.51 C 68.87 56.52 68.90 59.53 68.95 62.54 C 69.81 62.60 71.52 62.73 72.37 62.79 C 72.35 64.54 72.34 66.30 72.37 68.05 C 69.13 67.94 65.78 68.34 62.65 67.36 C 61.45 66.65 61.39 65.18 61.24 63.95 C 61.04 60.59 61.14 57.21 61.14 53.84 C 60.43 53.76 59.02 53.61 58.32 53.53 C 58.32 52.15 58.30 50.77 58.27 49.39 C 58.98 49.27 60.39 49.05 61.09 48.94 C 61.14 47.02 61.18 45.09 61.23 43.17 Z" />
</g>
</svg>
