<?xml version="1.0" encoding="UTF-8" ?>
<!DOCTYPE svg PUBLIC "-//W3C//DTD SVG 1.1//EN" "http://www.w3.org/Graphics/SVG/1.1/DTD/svg11.dtd">
<svg width="117px" height="140px" viewBox="0 0 117 140" version="1.1" xmlns="http://www.w3.org/2000/svg">
<g id="#000000ff">
<path fill="#000000" opacity="1.00" d=" M 0.00 0.00 L 117.00 0.00 L 117.00 140.00 L 0.00 140.00 L 0.00 0.00 M 33.19 10.23 C 17.92 11.78 5.18 25.64 5.03 40.99 C 4.98 60.35 4.98 79.71 5.03 99.07 C 5.18 115.39 19.65 129.84 35.97 129.97 C 51.66 129.98 67.36 130.10 83.05 129.91 C 98.99 129.27 112.84 114.99 112.97 99.04 C 113.05 80.02 112.98 61.01 113.00 42.00 C 113.05 33.36 109.36 24.81 103.10 18.89 C 97.00 12.96 88.46 9.77 79.98 9.98 C 64.39 10.17 48.77 9.68 33.19 10.23 Z" />
<path fill="#000000" opacity="1.00" d=" M 30.49 12.69 C 34.58 11.79 38.79 12.02 42.94 12.00 C 56.32 12.06 69.70 11.88 83.07 12.09 C 97.96 12.74 110.90 26.13 110.96 41.04 C 111.02 60.37 111.03 79.70 110.96 99.02 C 110.88 114.28 97.30 127.85 82.06 127.95 C 66.36 128.01 50.66 128.08 34.98 127.92 C 20.09 127.29 7.13 113.93 7.03 99.01 C 6.98 79.66 6.98 60.30 7.03 40.95 C 7.20 27.62 17.50 15.41 30.49 12.69 M 40.78 45.06 C 41.61 46.16 42.52 47.20 43.43 48.23 C 46.77 46.64 50.24 44.98 54.02 44.97 C 58.52 44.68 62.69 46.86 66.20 49.46 C 68.18 46.85 70.02 44.11 71.47 41.16 C 66.45 36.93 59.27 37.11 53.08 37.77 C 48.46 38.94 43.64 41.12 40.78 45.06 M 67.17 51.02 C 70.63 54.31 71.31 59.09 71.97 63.57 C 75.70 63.58 79.43 63.58 83.16 63.57 C 84.31 55.01 79.51 46.78 72.87 41.72 C 71.11 44.91 69.23 48.03 67.17 51.02 M 56.99 45.33 C 56.46 51.17 56.40 57.09 55.33 62.87 C 56.90 62.41 58.48 62.33 60.07 62.63 C 59.82 57.39 59.16 52.18 58.91 46.94 C 58.26 46.40 57.62 45.87 56.99 45.33 M 33.81 58.74 C 34.72 59.14 35.63 59.56 36.53 60.00 C 37.67 56.61 38.86 53.15 41.43 50.54 C 43.35 48.74 40.35 47.35 39.10 46.43 C 36.63 50.17 34.45 54.25 33.81 58.74 M 55.20 65.50 C 55.01 66.81 54.42 68.39 55.79 69.31 C 57.51 71.62 61.08 69.64 61.04 67.08 C 60.58 65.65 59.16 64.93 58.10 64.01 C 57.13 64.51 56.16 65.01 55.20 65.50 Z" />
<path fill="#000000" opacity="1.00" d=" M 54.83 41.23 C 56.48 40.84 58.17 40.71 59.86 40.58 C 59.72 41.00 59.46 41.84 59.32 42.26 C 57.82 41.94 56.32 41.60 54.83 41.23 Z" />
<path fill="#000000" opacity="1.00" d=" M 62.79 41.09 C 64.20 41.45 65.60 41.81 67.00 42.16 C 66.35 43.02 65.70 43.88 65.05 44.74 C 63.84 43.81 62.67 42.77 62.79 41.09 Z" />
<path fill="#000000" opacity="1.00" d=" M 72.45 49.65 C 71.76 48.68 72.74 46.60 74.05 47.09 C 74.88 48.04 73.62 49.96 72.45 49.65 Z" />
<path fill="#000000" opacity="1.00" d=" M 76.40 50.31 C 76.98 51.44 77.57 52.57 78.15 53.70 C 76.88 54.28 75.62 54.89 74.37 55.51 C 73.87 54.76 73.34 54.03 72.79 53.32 C 74.00 52.32 75.20 51.31 76.40 50.31 Z" />
<path fill="#000000" opacity="1.00" d=" M 74.25 59.90 C 75.70 58.63 77.40 57.71 79.07 56.77 C 79.30 57.86 79.52 58.94 79.74 60.03 C 77.91 60.01 76.08 59.99 74.25 59.90 Z" />
</g>
<g id="#737373ff">
<path fill="#737373" opacity="1.00" d=" M 33.19 10.23 C 48.77 9.68 64.39 10.17 79.98 9.98 C 88.46 9.77 97.00 12.96 103.10 18.89 C 109.36 24.81 113.05 33.36 113.00 42.00 C 112.98 61.01 113.05 80.02 112.97 99.04 C 112.84 114.99 98.99 129.27 83.05 129.91 C 67.36 130.10 51.66 129.98 35.97 129.97 C 19.65 129.84 5.18 115.39 5.03 99.07 C 4.98 79.71 4.98 60.35 5.03 40.99 C 5.18 25.64 17.92 11.78 33.19 10.23 M 30.49 12.69 C 17.50 15.41 7.20 27.62 7.03 40.95 C 6.98 60.30 6.98 79.66 7.03 99.01 C 7.13 113.93 20.09 127.29 34.98 127.92 C 50.66 128.08 66.36 128.01 82.06 127.95 C 97.30 127.85 110.88 114.28 110.96 99.02 C 111.03 79.70 111.02 60.37 110.96 41.04 C 110.90 26.13 97.96 12.74 83.07 12.09 C 69.70 11.88 56.32 12.06 42.94 12.00 C 38.79 12.02 34.58 11.79 30.49 12.69 Z" />
</g>
<g id="#f8fcf8ff">
<path fill="#f8fcf8" opacity="1.00" d=" M 40.78 45.06 C 43.64 41.12 48.46 38.94 53.08 37.77 C 59.27 37.11 66.45 36.93 71.47 41.16 C 70.02 44.11 68.18 46.85 66.20 49.46 C 62.69 46.86 58.52 44.68 54.02 44.97 C 50.24 44.98 46.77 46.64 43.43 48.23 C 42.52 47.20 41.61 46.16 40.78 45.06 M 54.83 41.23 C 56.32 41.60 57.82 41.94 59.32 42.26 C 59.46 41.84 59.72 41.00 59.86 40.58 C 58.17 40.71 56.48 40.84 54.83 41.23 M 62.79 41.09 C 62.67 42.77 63.84 43.81 65.05 44.74 C 65.70 43.88 66.35 43.02 67.00 42.16 C 65.60 41.81 64.20 41.45 62.79 41.09 Z" />
<path fill="#f8fcf8" opacity="1.00" d=" M 67.17 51.02 C 69.23 48.03 71.11 44.91 72.87 41.72 C 79.51 46.78 84.31 55.01 83.16 63.57 C 79.43 63.58 75.70 63.58 71.97 63.57 C 71.31 59.09 70.63 54.31 67.17 51.02 M 72.45 49.65 C 73.62 49.96 74.88 48.04 74.05 47.09 C 72.74 46.60 71.76 48.68 72.45 49.65 M 76.40 50.31 C 75.20 51.31 74.00 52.32 72.79 53.32 C 73.34 54.03 73.87 54.76 74.37 55.51 C 75.62 54.89 76.88 54.28 78.15 53.70 C 77.57 52.57 76.98 51.44 76.40 50.31 M 74.25 59.90 C 76.08 59.99 77.91 60.01 79.74 60.03 C 79.52 58.94 79.30 57.86 79.07 56.77 C 77.40 57.71 75.70 58.63 74.25 59.90 Z" />
<path fill="#f8fcf8" opacity="1.00" d=" M 56.99 45.33 C 57.62 45.87 58.26 46.40 58.91 46.94 C 59.16 52.18 59.82 57.39 60.07 62.63 C 58.48 62.33 56.90 62.41 55.33 62.87 C 56.40 57.09 56.46 51.17 56.99 45.33 Z" />
<path fill="#f8fcf8" opacity="1.00" d=" M 33.81 58.74 C 34.45 54.25 36.63 50.17 39.10 46.43 C 40.35 47.35 43.35 48.74 41.43 50.54 C 38.86 53.15 37.67 56.61 36.53 60.00 C 35.63 59.56 34.72 59.14 33.81 58.74 Z" />
<path fill="#f8fcf8" opacity="1.00" d=" M 55.20 65.50 C 56.16 65.01 57.13 64.51 58.10 64.01 C 59.16 64.93 60.58 65.65 61.04 67.08 C 61.08 69.64 57.51 71.62 55.79 69.31 C 54.42 68.39 55.01 66.81 55.20 65.50 Z" />
</g>
</svg>
