<?xml version="1.0" encoding="UTF-8" ?>
<!DOCTYPE svg PUBLIC "-//W3C//DTD SVG 1.1//EN" "http://www.w3.org/Graphics/SVG/1.1/DTD/svg11.dtd">
<svg width="117px" height="140px" viewBox="0 0 117 140" version="1.1" xmlns="http://www.w3.org/2000/svg">
<g id="#000000ff">
<path fill="#000000" opacity="1.00" d=" M 0.00 0.00 L 117.00 0.00 L 117.00 140.00 L 0.00 140.00 L 0.00 0.00 M 32.33 10.34 C 17.43 12.27 5.22 25.91 5.00 40.93 C 4.98 60.31 4.97 79.69 5.01 99.07 C 5.15 115.38 19.63 129.83 35.93 129.99 C 51.31 130.02 66.69 130.03 82.07 129.99 C 98.36 129.83 112.87 115.38 112.99 99.08 C 113.05 80.04 112.98 61.00 113.02 41.96 C 113.18 29.38 105.04 17.26 93.41 12.51 C 85.11 8.74 75.81 10.30 67.00 9.99 C 55.44 10.22 43.85 9.53 32.33 10.34 Z" />
<path fill="#000000" opacity="1.00" d=" M 32.33 12.40 C 47.52 11.51 62.78 12.26 78.00 12.00 C 85.17 11.64 92.55 13.31 98.41 17.59 C 106.19 23.07 111.06 32.44 110.98 41.96 C 111.00 60.65 111.00 79.35 110.98 98.05 C 111.08 108.55 105.11 118.82 95.97 123.97 C 91.16 126.77 85.58 128.07 80.04 127.99 C 65.67 127.98 51.31 128.01 36.94 127.98 C 24.89 128.09 13.30 120.20 9.07 108.90 C 7.53 105.14 6.95 101.06 7.00 97.02 C 7.04 78.32 6.95 59.62 7.05 40.92 C 7.26 26.98 18.51 14.29 32.33 12.40 M 38.72 43.85 C 37.08 44.42 36.02 45.76 35.96 47.50 C 39.25 49.65 43.23 48.85 46.93 48.97 C 47.00 50.68 47.07 52.39 47.19 54.09 C 56.05 54.37 64.94 54.37 73.81 54.09 C 73.92 52.39 74.00 50.68 74.07 48.98 C 77.77 48.87 81.73 49.56 85.05 47.49 C 84.86 46.12 84.39 44.69 82.94 44.21 C 76.25 40.95 69.79 37.24 63.17 33.86 C 61.97 33.27 60.57 32.24 59.23 33.12 C 52.29 36.50 45.70 40.56 38.72 43.85 M 47.05 55.94 C 47.05 57.33 47.08 58.71 47.11 60.10 C 56.01 60.57 64.99 60.57 73.89 60.10 C 73.92 58.71 73.94 57.33 73.95 55.95 C 69.69 55.07 65.31 55.61 61.00 55.49 C 56.35 55.64 51.64 55.04 47.05 55.94 M 47.12 61.94 C 47.11 63.20 47.11 64.46 47.12 65.72 C 56.04 65.91 64.96 65.90 73.88 65.72 C 73.89 64.46 73.89 63.20 73.88 61.94 C 64.98 61.56 56.03 61.56 47.12 61.94 M 47.18 67.15 C 47.16 67.88 47.11 69.34 47.09 70.08 C 56.03 70.24 64.97 70.23 73.91 70.08 C 73.89 69.35 73.85 67.89 73.83 67.16 C 64.95 66.94 56.06 66.94 47.18 67.15 M 46.70 73.05 C 51.08 73.89 55.57 73.40 60.00 73.51 C 64.76 73.37 69.59 73.92 74.30 73.05 C 74.11 72.58 73.73 71.63 73.54 71.16 C 66.77 70.33 59.83 71.09 52.99 70.80 C 50.77 71.05 46.99 69.76 46.70 73.05 Z" />
<path fill="#000000" opacity="1.00" d=" M 60.19 37.31 C 65.51 38.95 70.08 42.59 75.21 44.82 C 73.49 44.86 71.77 44.88 70.06 44.97 C 69.99 46.69 69.95 48.41 69.92 50.12 C 63.64 50.14 57.36 50.14 51.08 50.12 C 51.05 48.41 51.01 46.69 50.95 44.97 C 49.23 44.88 47.51 44.86 45.80 44.83 C 50.61 42.35 55.25 39.54 60.19 37.31 Z" />
</g>
<g id="#6e6f6eff">
<path fill="#6e6f6e" opacity="1.00" d=" M 32.33 10.34 C 43.85 9.53 55.44 10.22 67.00 9.99 C 75.81 10.30 85.11 8.74 93.41 12.51 C 105.04 17.26 113.18 29.38 113.02 41.96 C 112.98 61.00 113.05 80.04 112.99 99.08 C 112.87 115.38 98.36 129.83 82.07 129.99 C 66.69 130.03 51.31 130.02 35.93 129.99 C 19.63 129.83 5.15 115.38 5.01 99.07 C 4.97 79.69 4.98 60.31 5.00 40.93 C 5.22 25.91 17.43 12.27 32.33 10.34 M 32.33 12.40 C 18.51 14.29 7.26 26.98 7.05 40.92 C 6.95 59.62 7.04 78.32 7.00 97.02 C 6.95 101.06 7.53 105.14 9.07 108.90 C 13.30 120.20 24.89 128.09 36.94 127.98 C 51.31 128.01 65.67 127.98 80.04 127.99 C 85.58 128.07 91.16 126.77 95.97 123.97 C 105.11 118.82 111.08 108.55 110.98 98.05 C 111.00 79.35 111.00 60.65 110.98 41.96 C 111.06 32.44 106.19 23.07 98.41 17.59 C 92.55 13.31 85.17 11.64 78.00 12.00 C 62.78 12.26 47.52 11.51 32.33 12.40 Z" />
</g>
<g id="#f8fcf8ff">
<path fill="#f8fcf8" opacity="1.00" d=" M 38.72 43.85 C 45.70 40.56 52.29 36.50 59.23 33.12 C 60.57 32.24 61.97 33.27 63.17 33.86 C 69.79 37.24 76.25 40.95 82.94 44.21 C 84.39 44.69 84.86 46.12 85.05 47.49 C 81.73 49.56 77.77 48.87 74.07 48.98 C 74.00 50.68 73.92 52.39 73.81 54.09 C 64.94 54.37 56.05 54.37 47.19 54.09 C 47.07 52.39 47.00 50.68 46.93 48.97 C 43.23 48.85 39.25 49.65 35.96 47.50 C 36.02 45.76 37.08 44.42 38.72 43.85 M 60.19 37.31 C 55.25 39.54 50.61 42.35 45.80 44.83 C 47.51 44.86 49.23 44.88 50.95 44.97 C 51.01 46.69 51.05 48.41 51.08 50.12 C 57.36 50.14 63.64 50.14 69.92 50.12 C 69.95 48.41 69.99 46.69 70.06 44.97 C 71.77 44.88 73.49 44.86 75.21 44.82 C 70.08 42.59 65.51 38.95 60.19 37.31 Z" />
<path fill="#f8fcf8" opacity="1.00" d=" M 47.05 55.94 C 51.64 55.04 56.35 55.64 61.00 55.49 C 65.31 55.61 69.69 55.07 73.95 55.95 C 73.94 57.33 73.92 58.71 73.89 60.10 C 64.99 60.57 56.01 60.57 47.11 60.10 C 47.08 58.71 47.05 57.33 47.05 55.94 Z" />
<path fill="#f8fcf8" opacity="1.00" d=" M 47.12 61.94 C 56.03 61.56 64.98 61.56 73.88 61.94 C 73.89 63.20 73.89 64.46 73.88 65.72 C 64.96 65.90 56.04 65.91 47.12 65.72 C 47.11 64.46 47.11 63.20 47.12 61.94 Z" />
<path fill="#f8fcf8" opacity="1.00" d=" M 47.18 67.15 C 56.06 66.94 64.95 66.94 73.83 67.16 C 73.85 67.89 73.89 69.35 73.91 70.08 C 64.97 70.23 56.03 70.24 47.09 70.08 C 47.11 69.34 47.16 67.88 47.18 67.15 Z" />
<path fill="#f8fcf8" opacity="1.00" d=" M 46.70 73.05 C 46.99 69.76 50.77 71.05 52.99 70.80 C 59.83 71.09 66.77 70.33 73.54 71.16 C 73.73 71.63 74.11 72.58 74.30 73.05 C 69.59 73.92 64.76 73.37 60.00 73.51 C 55.57 73.40 51.08 73.89 46.70 73.05 Z" />
</g>
</svg>
