<?xml version="1.0" encoding="UTF-8" ?>
<!DOCTYPE svg PUBLIC "-//W3C//DTD SVG 1.1//EN" "http://www.w3.org/Graphics/SVG/1.1/DTD/svg11.dtd">
<svg width="117px" height="140px" viewBox="0 0 117 140" version="1.1" xmlns="http://www.w3.org/2000/svg">
<g id="#000000ff">
<path fill="#000000" opacity="1.00" d=" M 0.00 0.00 L 117.00 0.00 L 117.00 140.00 L 0.00 140.00 L 0.00 0.00 M 33.17 10.22 C 17.91 11.78 5.17 25.65 5.02 41.01 C 4.97 60.00 5.02 78.99 4.99 97.98 C 4.93 106.86 8.85 115.66 15.43 121.62 C 21.49 127.21 29.76 130.25 37.99 130.02 C 53.03 129.92 68.07 130.12 83.10 129.92 C 98.68 129.25 112.27 115.61 112.93 100.03 C 113.09 80.68 112.95 61.33 113.00 41.98 C 113.06 33.35 109.36 24.80 103.10 18.88 C 97.00 12.95 88.44 9.76 79.96 9.98 C 64.37 10.17 48.75 9.69 33.17 10.22 Z" />
<path fill="#000000" opacity="1.00" d=" M 33.35 12.33 C 48.87 11.73 64.44 12.23 79.98 12.07 C 87.93 11.82 95.85 14.85 101.63 20.31 C 107.45 25.92 111.00 33.90 110.91 42.02 C 110.96 60.36 110.92 78.69 110.93 97.03 C 111.01 102.32 109.90 107.68 107.24 112.30 C 102.25 121.81 91.72 128.00 80.99 127.91 C 66.31 127.95 51.62 127.94 36.93 127.91 C 20.98 128.27 6.67 113.98 7.09 98.01 C 7.06 79.32 7.05 60.63 7.09 41.94 C 6.79 27.32 18.79 13.77 33.35 12.33 M 47.48 50.41 C 44.57 51.22 44.05 55.90 47.11 56.80 C 49.81 58.10 53.40 54.16 51.21 51.79 C 50.41 50.67 48.84 49.81 47.48 50.41 M 58.49 50.71 C 54.44 52.31 57.82 58.93 61.57 56.63 C 65.55 54.80 62.11 48.38 58.49 50.71 M 70.52 50.41 C 69.19 51.03 68.00 52.31 68.08 53.86 C 68.60 56.43 71.99 58.20 74.07 56.11 C 76.58 53.80 73.62 49.25 70.52 50.41 Z" />
</g>
<g id="#727272ff">
<path fill="#727272" opacity="1.00" d=" M 33.17 10.22 C 48.75 9.69 64.37 10.17 79.96 9.98 C 88.44 9.76 97.00 12.95 103.10 18.88 C 109.36 24.80 113.06 33.35 113.00 41.98 C 112.95 61.33 113.09 80.68 112.93 100.03 C 112.27 115.61 98.68 129.25 83.10 129.92 C 68.07 130.12 53.03 129.92 37.99 130.02 C 29.76 130.25 21.49 127.21 15.43 121.62 C 8.85 115.66 4.93 106.86 4.99 97.98 C 5.02 78.99 4.97 60.00 5.02 41.01 C 5.17 25.65 17.91 11.78 33.17 10.22 M 33.35 12.33 C 18.79 13.77 6.79 27.32 7.09 41.94 C 7.05 60.63 7.06 79.32 7.09 98.01 C 6.67 113.98 20.98 128.27 36.93 127.91 C 51.62 127.94 66.31 127.95 80.99 127.91 C 91.72 128.00 102.25 121.81 107.24 112.30 C 109.90 107.68 111.01 102.32 110.93 97.03 C 110.92 78.69 110.96 60.36 110.91 42.02 C 111.00 33.90 107.45 25.92 101.63 20.31 C 95.85 14.85 87.93 11.82 79.98 12.07 C 64.44 12.23 48.87 11.73 33.35 12.33 Z" />
</g>
<g id="#f8fcf8ff">
<path fill="#f8fcf8" opacity="1.00" d=" M 47.48 50.41 C 48.84 49.81 50.41 50.67 51.21 51.79 C 53.40 54.16 49.81 58.10 47.11 56.80 C 44.05 55.90 44.57 51.22 47.48 50.41 Z" />
<path fill="#f8fcf8" opacity="1.00" d=" M 58.49 50.71 C 62.11 48.38 65.55 54.80 61.57 56.63 C 57.82 58.93 54.44 52.31 58.49 50.71 Z" />
<path fill="#f8fcf8" opacity="1.00" d=" M 70.52 50.41 C 73.62 49.25 76.58 53.80 74.07 56.11 C 71.99 58.20 68.60 56.43 68.08 53.86 C 68.00 52.31 69.19 51.03 70.52 50.41 Z" />
</g>
</svg>
