<?xml version="1.0" encoding="UTF-8" ?>
<!DOCTYPE svg PUBLIC "-//W3C//DTD SVG 1.1//EN" "http://www.w3.org/Graphics/SVG/1.1/DTD/svg11.dtd">
<svg width="50px" height="50px" viewBox="0 0 50 50" version="1.1" xmlns="http://www.w3.org/2000/svg">
<g id="#000000ff">
<path fill="#000000" opacity="1.00" d=" M 0.00 0.00 L 50.00 0.00 L 50.00 50.00 L 0.00 50.00 L 0.00 0.00 M 17.18 1.22 C 11.11 2.21 5.05 7.41 5.71 14.02 C 6.89 20.51 13.73 23.56 19.57 24.60 C 19.72 24.91 20.03 25.54 20.19 25.85 C 17.02 28.21 12.88 27.21 9.60 25.67 C 5.09 23.37 -0.13 28.43 1.21 33.04 C 2.20 39.49 8.11 45.91 15.11 44.33 C 21.36 42.31 23.64 35.47 24.93 29.68 C 28.51 32.30 27.30 37.17 25.65 40.56 C 23.98 43.63 26.00 47.57 29.10 48.73 C 32.70 49.63 36.47 48.44 39.43 46.36 C 43.93 43.48 46.36 36.71 42.79 32.21 C 39.77 27.72 34.23 26.71 29.49 25.05 C 32.49 22.07 37.05 22.91 40.50 24.57 C 44.24 26.52 49.22 23.21 49.02 19.05 C 49.15 12.21 43.26 4.90 35.99 5.77 C 29.44 7.16 26.46 14.19 25.52 20.16 C 24.19 19.68 23.06 18.68 23.12 17.14 C 22.28 13.90 24.33 11.04 25.05 8.02 C 25.77 3.80 21.17 0.16 17.18 1.22 Z" />
<path fill="#000000" opacity="1.00" d=" M 9.66 14.10 C 9.10 9.30 13.73 5.76 18.03 5.07 C 19.68 4.60 21.79 6.32 20.85 8.03 C 19.14 12.04 18.32 16.44 19.85 20.67 C 15.79 19.92 11.55 18.00 9.66 14.10 Z" />
<path fill="#000000" opacity="1.00" d=" M 29.94 19.77 C 29.93 14.64 34.77 7.16 40.55 10.63 C 43.40 12.77 46.86 17.87 43.86 20.95 C 41.16 21.17 38.75 19.28 36.05 19.09 C 33.38 18.43 31.08 20.32 28.51 20.47 L 29.94 19.77 Z" />
<path fill="#000000" opacity="1.00" d=" M 22.71 25.94 C 22.05 24.14 24.05 23.21 25.03 22.15 C 25.87 23.17 28.43 24.22 27.36 25.88 C 26.76 28.22 23.60 27.95 22.71 25.94 Z" />
<path fill="#000000" opacity="1.00" d=" M 5.12 32.66 C 4.41 30.66 6.45 28.12 8.50 29.50 C 12.29 31.29 16.62 31.85 20.62 30.29 C 19.82 34.28 18.12 38.74 14.14 40.50 C 9.45 41.32 6.04 36.72 5.12 32.66 Z" />
<path fill="#000000" opacity="1.00" d=" M 30.44 29.66 C 34.35 30.46 38.53 32.14 40.41 35.93 C 41.42 41.61 35.15 45.58 30.06 45.10 C 29.78 44.57 29.21 43.53 28.92 43.00 C 31.14 38.91 31.89 34.16 30.44 29.66 Z" />
</g>
<g id="#f8fcf8ff">
<path fill="#f8fcf8" opacity="1.00" d=" M 17.18 1.22 C 21.17 0.16 25.77 3.80 25.05 8.02 C 24.33 11.04 22.28 13.90 23.12 17.14 C 23.06 18.68 24.19 19.68 25.52 20.16 C 26.46 14.19 29.44 7.16 35.99 5.77 C 43.26 4.90 49.15 12.21 49.02 19.05 C 49.22 23.21 44.24 26.52 40.50 24.57 C 37.05 22.91 32.49 22.07 29.49 25.05 C 34.23 26.71 39.77 27.72 42.79 32.21 C 46.36 36.71 43.93 43.48 39.43 46.36 C 36.47 48.44 32.70 49.63 29.10 48.73 C 26.00 47.57 23.98 43.63 25.65 40.56 C 27.30 37.17 28.51 32.30 24.93 29.68 C 23.64 35.47 21.36 42.31 15.11 44.33 C 8.11 45.91 2.20 39.49 1.21 33.04 C -0.13 28.43 5.09 23.37 9.60 25.67 C 12.88 27.21 17.02 28.21 20.19 25.85 C 20.03 25.54 19.72 24.91 19.57 24.60 C 13.73 23.56 6.89 20.51 5.71 14.02 C 5.05 7.41 11.11 2.21 17.18 1.22 M 9.66 14.10 C 11.55 18.00 15.79 19.92 19.85 20.67 C 18.32 16.44 19.14 12.04 20.85 8.03 C 21.79 6.32 19.68 4.60 18.03 5.07 C 13.73 5.76 9.10 9.30 9.66 14.10 M 29.94 19.77 L 28.51 20.47 C 31.08 20.32 33.38 18.43 36.05 19.09 C 38.75 19.28 41.16 21.17 43.86 20.95 C 46.86 17.87 43.40 12.77 40.55 10.63 C 34.77 7.16 29.93 14.64 29.94 19.77 M 22.71 25.94 C 23.60 27.95 26.76 28.22 27.36 25.88 C 28.43 24.22 25.87 23.17 25.03 22.15 C 24.05 23.21 22.05 24.14 22.71 25.94 M 5.12 32.66 C 6.04 36.72 9.45 41.32 14.14 40.50 C 18.12 38.74 19.82 34.28 20.62 30.29 C 16.62 31.85 12.29 31.29 8.50 29.50 C 6.45 28.12 4.41 30.66 5.12 32.66 M 30.44 29.66 C 31.89 34.16 31.14 38.91 28.92 43.00 C 29.21 43.53 29.78 44.57 30.06 45.10 C 35.15 45.58 41.42 41.61 40.41 35.93 C 38.53 32.14 34.35 30.46 30.44 29.66 Z" />
</g>
</svg>
