<?xml version="1.0" encoding="UTF-8" ?>
<!DOCTYPE svg PUBLIC "-//W3C//DTD SVG 1.1//EN" "http://www.w3.org/Graphics/SVG/1.1/DTD/svg11.dtd">
<svg width="28px" height="21px" viewBox="0 0 28 21" version="1.1" xmlns="http://www.w3.org/2000/svg">
<g id="#000000ff">
<path fill="#000000" opacity="1.00" d=" M 0.00 0.00 L 7.94 0.00 C 7.93 2.49 7.95 4.99 7.93 7.48 C 5.29 7.50 2.64 7.48 0.00 7.49 L 0.00 0.00 Z" />
<path fill="#000000" opacity="1.00" d=" M 19.06 0.00 L 28.00 0.00 L 28.00 21.00 L 13.58 21.00 C 18.08 16.50 22.61 12.04 27.05 7.49 C 24.39 7.47 21.73 7.50 19.07 7.48 C 19.05 4.99 19.07 2.49 19.06 0.00 Z" />
<path fill="#000000" opacity="1.00" d=" M 9.90 2.01 C 12.30 1.99 14.70 1.99 17.10 2.01 C 17.12 4.52 17.07 7.03 17.13 9.54 C 18.79 9.58 20.46 9.59 22.12 9.57 C 19.25 12.45 16.42 15.38 13.46 18.19 C 10.61 15.31 7.71 12.46 4.87 9.57 C 6.54 9.59 8.21 9.58 9.87 9.55 C 9.93 7.03 9.88 4.52 9.90 2.01 Z" />
<path fill="#000000" opacity="1.00" d=" M 0.00 7.57 C 4.45 12.07 8.94 16.52 13.41 21.00 L 0.00 21.00 L 0.00 7.57 Z" />
</g>
<g id="#f8fcf8ff">
<path fill="#f8fcf8" opacity="1.00" d=" M 7.94 0.00 L 19.06 0.00 C 19.07 2.49 19.05 4.99 19.07 7.48 C 21.73 7.50 24.39 7.47 27.05 7.49 C 22.61 12.04 18.08 16.50 13.58 21.00 L 13.41 21.00 C 8.94 16.52 4.45 12.07 0.00 7.57 L 0.00 7.49 C 2.64 7.48 5.29 7.50 7.93 7.48 C 7.95 4.99 7.93 2.49 7.94 0.00 M 9.90 2.01 C 9.88 4.52 9.93 7.03 9.87 9.55 C 8.21 9.58 6.54 9.59 4.87 9.57 C 7.71 12.46 10.61 15.31 13.46 18.19 C 16.42 15.38 19.25 12.45 22.12 9.57 C 20.46 9.59 18.79 9.58 17.13 9.54 C 17.07 7.03 17.12 4.52 17.10 2.01 C 14.70 1.99 12.30 1.99 9.90 2.01 Z" />
</g>
</svg>
