<?xml version="1.0" encoding="UTF-8" ?>
<!DOCTYPE svg PUBLIC "-//W3C//DTD SVG 1.1//EN" "http://www.w3.org/Graphics/SVG/1.1/DTD/svg11.dtd">
<svg width="117px" height="140px" viewBox="0 0 117 140" version="1.1" xmlns="http://www.w3.org/2000/svg">
<g id="#000000ff">
<path fill="#000000" opacity="1.00" d=" M 0.00 0.00 L 117.00 0.00 L 117.00 140.00 L 0.00 140.00 L 0.00 0.00 M 33.08 10.22 C 17.87 11.82 5.17 25.65 5.01 40.97 C 5.02 60.66 4.94 80.36 5.05 100.05 C 5.72 115.64 19.35 129.29 34.94 129.94 C 50.65 130.08 66.36 129.99 82.07 129.98 C 98.00 129.84 112.24 116.04 112.94 100.14 C 113.09 80.76 112.94 61.38 113.01 42.00 C 113.09 33.36 109.38 24.81 103.11 18.88 C 97.02 12.96 88.48 9.73 80.00 9.98 C 64.37 10.17 48.71 9.69 33.08 10.22 Z" />
<path fill="#000000" opacity="1.00" d=" M 30.49 12.71 C 34.26 11.85 38.15 12.00 41.99 12.00 C 55.67 12.06 69.35 11.88 83.02 12.09 C 97.90 12.75 110.83 26.07 110.96 40.99 C 111.03 60.33 111.03 79.67 110.96 99.01 C 110.84 113.92 97.90 127.28 83.01 127.89 C 67.33 128.12 51.65 127.98 35.97 127.96 C 20.72 127.81 7.18 114.31 7.04 99.05 C 6.97 79.69 6.98 60.33 7.03 40.98 C 7.23 27.66 17.48 15.43 30.49 12.71 M 54.65 37.66 C 48.62 41.59 42.67 45.64 36.65 49.58 C 35.14 50.26 34.64 51.76 34.48 53.29 C 40.09 57.81 46.41 61.36 52.29 65.52 C 54.17 66.78 56.30 68.76 58.74 67.61 C 60.28 64.71 59.25 61.17 59.88 58.02 C 64.39 58.39 69.03 59.48 72.61 62.40 C 75.35 64.24 76.97 67.16 79.04 69.64 C 79.98 63.23 78.47 56.06 73.35 51.71 C 69.84 47.89 64.60 46.78 59.68 46.18 C 59.59 43.40 59.79 40.59 59.31 37.83 C 58.35 35.97 56.02 36.75 54.65 37.66 Z" />
</g>
<g id="#706f6dff">
<path fill="#706f6d" opacity="1.00" d=" M 33.08 10.22 C 48.71 9.69 64.37 10.17 80.00 9.98 C 88.48 9.73 97.02 12.96 103.11 18.88 C 109.38 24.81 113.09 33.36 113.01 42.00 C 112.94 61.38 113.09 80.76 112.94 100.14 C 112.24 116.04 98.00 129.84 82.07 129.98 C 66.36 129.99 50.65 130.08 34.94 129.94 C 19.35 129.29 5.72 115.64 5.05 100.05 C 4.94 80.36 5.02 60.66 5.01 40.97 C 5.17 25.65 17.87 11.82 33.08 10.22 M 30.49 12.71 C 17.48 15.43 7.23 27.66 7.03 40.98 C 6.98 60.33 6.97 79.69 7.04 99.05 C 7.18 114.31 20.72 127.81 35.97 127.96 C 51.65 127.98 67.33 128.12 83.01 127.89 C 97.90 127.28 110.84 113.92 110.96 99.01 C 111.03 79.67 111.03 60.33 110.96 40.99 C 110.83 26.07 97.90 12.75 83.02 12.09 C 69.35 11.88 55.67 12.06 41.99 12.00 C 38.15 12.00 34.26 11.85 30.49 12.71 Z" />
</g>
<g id="#e86010ff">
<path fill="#e86010" opacity="1.00" d=" M 54.65 37.66 C 56.02 36.75 58.35 35.97 59.31 37.83 C 59.79 40.59 59.59 43.40 59.68 46.18 C 64.60 46.78 69.84 47.89 73.35 51.71 C 78.47 56.06 79.98 63.23 79.04 69.64 C 76.97 67.16 75.35 64.24 72.61 62.40 C 69.03 59.48 64.39 58.39 59.88 58.02 C 59.25 61.17 60.28 64.71 58.74 67.61 C 56.30 68.76 54.17 66.78 52.29 65.52 C 46.41 61.36 40.09 57.81 34.48 53.29 C 34.64 51.76 35.14 50.26 36.65 49.58 C 42.67 45.64 48.62 41.59 54.65 37.66 Z" />
</g>
</svg>
