<?xml version="1.0" encoding="UTF-8" ?>
<!DOCTYPE svg PUBLIC "-//W3C//DTD SVG 1.1//EN" "http://www.w3.org/Graphics/SVG/1.1/DTD/svg11.dtd">
<svg width="70px" height="28px" viewBox="0 0 70 28" version="1.1" xmlns="http://www.w3.org/2000/svg">
<g id="#181818ff">
<path fill="#181818" opacity="1.00" d=" M 0.00 0.00 L 1.79 0.00 C 1.87 1.39 1.27 1.96 0.00 1.70 L 0.00 0.00 Z" />
<path fill="#181818" opacity="1.00" d=" M 68.30 0.00 L 70.00 0.00 L 70.00 1.79 C 68.60 1.87 68.03 1.27 68.30 0.00 Z" />
<path fill="#181818" opacity="1.00" d=" M 3.11 1.23 C 5.70 0.80 8.34 0.93 10.96 0.92 C 27.64 1.08 44.33 1.02 61.01 0.79 C 63.20 0.85 65.47 0.75 67.59 1.43 C 69.42 2.59 68.89 5.13 69.19 6.96 C 69.21 12.90 69.57 18.90 68.80 24.81 C 68.51 27.10 65.81 26.97 64.09 27.04 C 46.73 27.14 29.37 26.93 12.01 27.10 C 8.82 27.06 5.56 27.33 2.43 26.61 C 0.81 25.68 1.11 23.60 0.93 22.03 C 0.87 16.33 0.89 10.63 1.02 4.94 C 1.10 3.50 1.22 1.34 3.11 1.23 M 12.94 12.08 C 14.71 12.12 16.49 12.10 18.26 12.11 C 17.66 15.29 15.29 17.57 13.37 20.02 C 15.51 19.98 17.68 20.24 19.79 19.86 C 19.86 19.60 20.01 19.08 20.08 18.82 C 19.29 18.72 17.72 18.51 16.94 18.41 C 18.07 16.73 19.62 15.15 19.91 13.05 C 19.74 11.32 17.98 9.56 16.16 10.07 C 15.03 10.66 13.96 11.33 12.94 12.08 M 20.41 12.01 C 22.06 12.06 23.71 12.09 25.36 12.10 C 25.14 15.28 22.68 17.34 20.96 19.75 C 23.47 20.23 26.05 20.10 28.58 19.78 C 27.20 19.16 25.75 18.72 24.29 18.32 C 25.83 16.37 28.60 13.20 26.14 10.88 C 24.42 8.76 22.03 10.98 20.41 12.01 M 29.93 20.04 C 31.32 20.06 32.71 20.08 34.10 20.09 C 34.52 18.66 34.84 17.20 35.32 15.79 C 36.55 16.77 36.50 18.57 37.40 19.78 C 39.22 20.29 41.14 20.00 43.00 20.09 C 42.96 16.76 43.20 13.41 42.89 10.09 C 42.43 9.84 41.51 9.33 41.05 9.08 C 41.03 9.94 41.01 11.67 40.99 12.53 C 39.05 12.48 37.51 13.56 35.90 14.48 C 34.32 13.16 34.64 10.17 32.03 9.83 C 27.61 11.18 28.68 16.73 29.93 20.04 M 51.22 13.22 C 51.84 15.49 52.31 17.79 52.89 20.06 C 53.78 20.08 55.55 20.11 56.44 20.12 C 54.14 18.85 53.81 16.49 53.93 14.10 C 54.52 14.10 55.70 14.10 56.28 14.10 C 55.27 12.93 54.24 11.77 53.27 10.56 C 52.58 11.44 51.90 12.34 51.22 13.22 M 44.91 18.79 C 45.94 20.70 48.31 19.91 50.05 20.21 L 50.06 18.48 C 49.38 18.57 48.03 18.75 47.35 18.85 C 46.97 18.39 46.19 17.47 45.81 17.01 C 47.49 17.01 49.17 17.00 50.85 16.99 C 50.11 15.57 50.44 13.00 48.42 12.72 C 45.22 11.71 42.54 16.48 44.91 18.79 Z" />
<path fill="#181818" opacity="1.00" d=" M 31.11 11.98 C 35.01 11.41 33.38 17.64 32.02 19.63 C 30.70 17.27 30.18 14.57 31.11 11.98 Z" />
<path fill="#181818" opacity="1.00" d=" M 38.94 19.07 C 37.50 16.81 38.13 14.51 40.71 13.59 C 40.84 15.10 40.96 16.61 41.05 18.13 C 40.52 18.36 39.47 18.84 38.94 19.07 Z" />
<path fill="#181818" opacity="1.00" d=" M 46.29 14.34 C 47.24 12.99 49.97 14.32 48.77 15.85 C 47.81 17.20 45.04 15.88 46.29 14.34 Z" />
<path fill="#181818" opacity="1.00" d=" M 0.00 26.21 C 1.40 26.13 1.96 26.73 1.70 28.00 L 0.00 28.00 L 0.00 26.21 Z" />
<path fill="#181818" opacity="1.00" d=" M 68.21 28.00 C 68.13 26.60 68.73 26.04 70.00 26.30 L 70.00 28.00 L 68.21 28.00 Z" />
</g>
<g id="#858bdbff">
<path fill="#858bdb" opacity="1.00" d=" M 1.79 0.00 L 68.30 0.00 C 68.03 1.27 68.60 1.87 70.00 1.79 L 70.00 26.30 C 68.73 26.04 68.13 26.60 68.21 28.00 L 1.70 28.00 C 1.96 26.73 1.40 26.13 0.00 26.21 L 0.00 1.70 C 1.27 1.96 1.87 1.39 1.79 0.00 M 3.11 1.23 C 1.22 1.34 1.10 3.50 1.02 4.94 C 0.89 10.63 0.87 16.33 0.93 22.03 C 1.11 23.60 0.81 25.68 2.43 26.61 C 5.56 27.33 8.82 27.06 12.01 27.10 C 29.37 26.93 46.73 27.14 64.09 27.04 C 65.81 26.97 68.51 27.10 68.80 24.81 C 69.57 18.90 69.21 12.90 69.19 6.96 C 68.89 5.13 69.42 2.59 67.59 1.43 C 65.47 0.75 63.20 0.85 61.01 0.79 C 44.33 1.02 27.64 1.08 10.96 0.92 C 8.34 0.93 5.70 0.80 3.11 1.23 Z" />
<path fill="#858bdb" opacity="1.00" d=" M 12.94 12.08 C 13.96 11.33 15.03 10.66 16.16 10.07 C 17.98 9.56 19.74 11.32 19.91 13.05 C 19.62 15.15 18.07 16.73 16.94 18.41 C 17.72 18.51 19.29 18.72 20.08 18.82 C 20.01 19.08 19.86 19.60 19.79 19.86 C 17.68 20.24 15.51 19.98 13.37 20.02 C 15.29 17.57 17.66 15.29 18.26 12.11 C 16.49 12.10 14.71 12.12 12.94 12.08 Z" />
<path fill="#858bdb" opacity="1.00" d=" M 20.41 12.01 C 22.03 10.98 24.42 8.76 26.14 10.88 C 28.60 13.20 25.83 16.37 24.29 18.32 C 25.75 18.72 27.20 19.16 28.58 19.78 C 26.05 20.10 23.47 20.23 20.96 19.75 C 22.68 17.34 25.14 15.28 25.36 12.10 C 23.71 12.09 22.06 12.06 20.41 12.01 Z" />
<path fill="#858bdb" opacity="1.00" d=" M 29.93 20.04 C 28.68 16.73 27.61 11.18 32.03 9.83 C 34.64 10.17 34.32 13.16 35.90 14.48 C 37.51 13.56 39.05 12.48 40.99 12.53 C 41.01 11.67 41.03 9.94 41.05 9.08 C 41.51 9.33 42.43 9.84 42.89 10.09 C 43.20 13.41 42.96 16.76 43.00 20.09 C 41.14 20.00 39.22 20.29 37.40 19.78 C 36.50 18.57 36.55 16.77 35.32 15.79 C 34.84 17.20 34.52 18.66 34.10 20.09 C 32.71 20.08 31.32 20.06 29.93 20.04 M 31.11 11.98 C 30.18 14.57 30.70 17.27 32.02 19.63 C 33.38 17.64 35.01 11.41 31.11 11.98 M 38.94 19.07 C 39.47 18.84 40.52 18.36 41.05 18.13 C 40.96 16.61 40.84 15.10 40.71 13.59 C 38.13 14.51 37.50 16.81 38.94 19.07 Z" />
<path fill="#858bdb" opacity="1.00" d=" M 51.22 13.22 C 51.90 12.34 52.58 11.44 53.27 10.56 C 54.24 11.77 55.27 12.93 56.28 14.10 C 55.70 14.10 54.52 14.10 53.93 14.10 C 53.81 16.49 54.14 18.85 56.44 20.12 C 55.55 20.11 53.78 20.08 52.89 20.06 C 52.31 17.79 51.84 15.49 51.22 13.22 Z" />
<path fill="#858bdb" opacity="1.00" d=" M 44.91 18.79 C 42.54 16.48 45.22 11.71 48.42 12.72 C 50.44 13.00 50.11 15.57 50.85 16.99 C 49.17 17.00 47.49 17.01 45.81 17.01 C 46.19 17.47 46.97 18.39 47.35 18.85 C 48.03 18.75 49.38 18.57 50.06 18.48 L 50.05 20.21 C 48.31 19.91 45.94 20.70 44.91 18.79 M 46.29 14.34 C 45.04 15.88 47.81 17.20 48.77 15.85 C 49.97 14.32 47.24 12.99 46.29 14.34 Z" />
</g>
</svg>
