<?xml version="1.0" encoding="UTF-8" ?>
<!DOCTYPE svg PUBLIC "-//W3C//DTD SVG 1.1//EN" "http://www.w3.org/Graphics/SVG/1.1/DTD/svg11.dtd">
<svg width="32px" height="21px" viewBox="0 0 32 21" version="1.1" xmlns="http://www.w3.org/2000/svg">
<g id="#181818ff">
<path fill="#181818" opacity="1.00" d=" M 0.00 0.00 L 10.47 0.00 C 6.93 3.42 3.63 7.08 0.00 10.40 L 0.00 0.00 Z" />
<path fill="#181818" opacity="1.00" d=" M 31.00 0.00 L 32.00 0.00 L 32.00 21.00 L 31.00 21.00 C 31.00 14.00 31.00 7.00 31.00 0.00 Z" />
<path fill="#181818" opacity="1.00" d=" M 2.71 10.75 C 5.03 7.49 8.20 4.95 10.89 1.99 C 16.92 2.01 22.96 1.99 29.00 2.00 C 29.01 7.67 29.01 13.33 29.00 19.00 C 22.97 19.02 16.95 18.97 10.93 19.03 C 8.16 16.30 5.53 13.43 2.71 10.75 M 14.22 4.97 C 13.54 7.57 16.90 8.67 18.06 10.61 C 16.76 12.35 13.45 13.49 14.26 16.05 C 16.43 15.19 17.40 12.79 19.51 11.84 C 20.86 13.44 22.30 14.96 23.96 16.24 C 25.00 13.62 21.75 12.49 20.46 10.78 C 21.21 8.51 25.21 7.44 23.88 4.78 C 22.29 6.10 20.84 7.58 19.51 9.16 C 17.39 8.23 16.43 5.78 14.22 4.97 Z" />
<path fill="#181818" opacity="1.00" d=" M 0.00 10.48 C 3.47 13.97 6.98 17.42 10.36 21.00 L 0.00 21.00 L 0.00 10.48 Z" />
</g>
<g id="#e0e2e0ff">
<path fill="#e0e2e0" opacity="1.00" d=" M 10.47 0.00 L 31.00 0.00 C 31.00 7.00 31.00 14.00 31.00 21.00 L 10.36 21.00 C 6.98 17.42 3.47 13.97 0.00 10.48 L 0.00 10.40 C 3.63 7.08 6.93 3.42 10.47 0.00 M 2.71 10.75 C 5.53 13.43 8.16 16.30 10.93 19.03 C 16.95 18.97 22.97 19.02 29.00 19.00 C 29.01 13.33 29.01 7.67 29.00 2.00 C 22.96 1.99 16.92 2.01 10.89 1.99 C 8.20 4.95 5.03 7.49 2.71 10.75 Z" />
<path fill="#e0e2e0" opacity="1.00" d=" M 14.22 4.97 C 16.43 5.78 17.39 8.23 19.51 9.16 C 20.84 7.58 22.29 6.10 23.88 4.78 C 25.21 7.44 21.21 8.51 20.46 10.78 C 21.75 12.49 25.00 13.62 23.96 16.24 C 22.30 14.96 20.86 13.44 19.51 11.84 C 17.40 12.79 16.43 15.19 14.26 16.05 C 13.45 13.49 16.76 12.35 18.06 10.61 C 16.90 8.67 13.54 7.57 14.22 4.97 Z" />
</g>
</svg>
