<?xml version="1.0" encoding="UTF-8" ?>
<!DOCTYPE svg PUBLIC "-//W3C//DTD SVG 1.1//EN" "http://www.w3.org/Graphics/SVG/1.1/DTD/svg11.dtd">
<svg width="117px" height="140px" viewBox="0 0 117 140" version="1.1" xmlns="http://www.w3.org/2000/svg">
<g id="#181818ff">
<path fill="#181818" opacity="1.00" d=" M 0.00 0.00 L 117.00 0.00 L 117.00 140.00 L 0.00 140.00 L 0.00 0.00 M 54.15 13.96 C 53.80 16.64 54.10 19.36 54.02 22.05 C 53.97 24.71 54.00 27.36 54.01 30.01 C 53.96 32.72 54.02 35.44 54.02 38.15 C 53.96 40.44 54.03 42.74 54.02 45.04 C 54.02 47.55 53.55 50.52 55.49 52.50 C 57.85 54.97 62.55 54.03 63.62 50.74 C 64.30 48.22 63.93 45.58 63.97 43.01 C 63.97 40.62 64.04 38.22 63.98 35.83 C 63.99 33.17 64.03 30.52 63.98 27.86 C 64.01 25.32 64.02 22.77 63.98 20.23 C 63.80 17.16 64.86 13.21 62.00 11.04 C 59.30 8.79 54.74 10.52 54.15 13.96 M 24.98 24.97 C 24.82 27.82 27.28 30.06 29.79 30.94 C 28.75 31.89 27.65 32.91 27.16 34.27 C 24.74 38.19 23.21 42.62 22.51 47.15 C 22.00 49.44 22.05 51.81 22.02 54.14 C 22.14 58.67 23.18 63.17 24.94 67.35 C 26.55 71.41 29.04 75.12 32.05 78.27 C 38.91 85.82 49.15 90.16 59.34 89.92 C 62.83 90.07 66.47 89.53 69.78 88.45 C 72.77 87.13 76.34 86.30 78.70 84.03 C 80.50 86.73 81.51 91.55 85.41 91.49 L 84.81 91.82 C 88.43 91.93 93.13 93.02 95.65 89.64 C 97.16 88.03 97.11 85.71 96.96 83.66 C 96.98 81.42 96.97 79.17 97.00 76.93 C 97.30 75.47 96.46 74.09 94.94 73.88 C 94.52 74.13 93.68 74.61 93.26 74.86 C 92.57 73.67 91.67 72.50 90.11 73.10 C 92.67 68.71 94.84 63.95 95.44 58.87 C 96.29 54.14 96.13 49.20 94.97 44.53 C 94.81 43.25 94.42 41.97 93.66 40.92 C 97.82 39.78 95.37 33.11 91.33 35.21 C 89.64 31.92 87.35 28.87 84.59 26.41 C 82.72 25.44 80.68 28.18 82.33 29.62 C 84.92 32.42 87.30 35.47 88.88 38.97 C 90.26 42.20 91.06 45.59 91.75 49.02 C 92.12 52.33 91.97 55.66 91.50 58.95 C 90.59 63.10 89.07 67.09 86.93 70.76 C 86.47 71.09 85.53 71.75 85.07 72.08 C 85.04 71.46 84.99 70.23 84.96 69.61 C 84.90 67.10 85.19 64.57 84.84 62.08 C 84.05 60.62 81.87 60.65 81.13 62.14 C 80.81 65.41 81.12 68.72 81.01 72.00 C 80.99 74.06 81.01 76.12 80.96 78.18 L 80.09 78.33 C 78.96 76.60 78.42 73.31 75.81 73.46 C 72.25 75.15 76.10 78.52 76.94 80.76 C 73.87 82.62 70.56 83.98 67.19 85.18 C 67.11 84.83 66.95 84.15 66.87 83.81 C 67.62 80.80 64.14 77.89 61.35 79.36 C 58.57 80.50 58.36 84.35 60.47 86.26 C 51.74 86.16 43.01 83.14 36.54 77.21 C 33.27 74.09 30.64 70.36 28.79 66.24 L 28.68 66.27 C 27.58 63.16 26.56 60.00 26.27 56.70 L 26.08 56.54 C 25.99 53.37 26.06 50.21 26.48 47.06 C 27.32 43.39 28.50 39.78 30.44 36.53 C 31.69 35.01 32.37 33.09 33.70 31.64 C 34.29 30.64 35.98 30.15 35.74 28.78 C 37.73 25.97 37.13 21.59 34.00 19.87 C 30.37 17.18 24.74 20.62 24.98 24.97 Z" />
</g>
<g id="#f8d470ff">
<path fill="#f8d470" opacity="1.00" d=" M 54.15 13.96 C 54.74 10.52 59.30 8.79 62.00 11.04 C 64.86 13.21 63.80 17.16 63.98 20.23 C 60.72 21.16 57.38 21.68 54.02 22.05 C 54.10 19.36 53.80 16.64 54.15 13.96 Z" />
</g>
<g id="#50dc90ff">
<path fill="#50dc90" opacity="1.00" d=" M 24.98 24.97 C 24.74 20.62 30.37 17.18 34.00 19.87 C 37.13 21.59 37.73 25.97 35.74 28.78 C 34.13 30.32 32.02 31.16 29.79 30.94 C 27.28 30.06 24.82 27.82 24.98 24.97 Z" />
</g>
<g id="#f8bc60ff">
<path fill="#f8bc60" opacity="1.00" d=" M 54.02 22.05 C 57.38 21.68 60.72 21.16 63.98 20.23 C 64.02 22.77 64.01 25.32 63.98 27.86 C 60.63 28.45 57.30 29.14 54.01 30.01 C 54.00 27.36 53.97 24.71 54.02 22.05 Z" />
</g>
<g id="#9060f0ff">
<path fill="#9060f0" opacity="1.00" d=" M 82.33 29.62 C 80.68 28.18 82.72 25.44 84.59 26.41 C 87.35 28.87 89.64 31.92 91.33 35.21 C 90.57 36.54 90.03 37.98 89.65 39.46 L 88.88 38.97 C 87.30 35.47 84.92 32.42 82.33 29.62 Z" />
</g>
<g id="#f8ac50ff">
<path fill="#f8ac50" opacity="1.00" d=" M 54.01 30.01 C 57.30 29.14 60.63 28.45 63.98 27.86 C 64.03 30.52 63.99 33.17 63.98 35.83 C 60.66 36.60 57.33 37.34 54.02 38.15 C 54.02 35.44 53.96 32.72 54.01 30.01 Z" />
</g>
<g id="#583898ff">
<path fill="#583898" opacity="1.00" d=" M 29.79 30.94 C 32.02 31.16 34.13 30.32 35.74 28.78 C 35.98 30.15 34.29 30.64 33.70 31.64 C 32.37 33.09 31.69 35.01 30.44 36.53 C 29.63 35.38 28.61 34.45 27.16 34.27 C 27.65 32.91 28.75 31.89 29.79 30.94 Z" />
</g>
<g id="#7858e8ff">
<path fill="#7858e8" opacity="1.00" d=" M 27.16 34.27 C 28.61 34.45 29.63 35.38 30.44 36.53 C 28.50 39.78 27.32 43.39 26.48 47.06 C 25.49 47.08 23.50 47.13 22.51 47.15 C 23.21 42.62 24.74 38.19 27.16 34.27 Z" />
</g>
<g id="#d860d0ff">
<path fill="#d860d0" opacity="1.00" d=" M 91.33 35.21 C 95.37 33.11 97.82 39.78 93.66 40.92 C 92.19 40.86 90.79 40.41 89.65 39.46 C 90.03 37.98 90.57 36.54 91.33 35.21 Z" />
</g>
<g id="#f89c48ff">
<path fill="#f89c48" opacity="1.00" d=" M 54.02 38.15 C 57.33 37.34 60.66 36.60 63.98 35.83 C 64.04 38.22 63.97 40.62 63.97 43.01 C 60.67 43.76 57.35 44.43 54.02 45.04 C 54.03 42.74 53.96 40.44 54.02 38.15 Z" />
<path fill="#f89c48" opacity="1.00" d=" M 90.11 73.10 C 91.67 72.50 92.57 73.67 93.26 74.86 C 93.68 74.61 94.52 74.13 94.94 73.88 C 96.46 74.09 97.30 75.47 97.00 76.93 C 96.97 79.17 96.98 81.42 96.96 83.66 C 93.01 86.15 89.79 89.70 85.41 91.49 C 81.51 91.55 80.50 86.73 78.70 84.03 L 78.34 83.30 C 81.67 79.92 86.08 77.78 89.24 74.23 C 89.46 73.94 89.89 73.38 90.11 73.10 Z" />
</g>
<g id="#513c9dff">
<path fill="#513c9d" opacity="1.00" d=" M 88.88 38.97 L 89.65 39.46 C 90.79 40.41 92.19 40.86 93.66 40.92 C 94.42 41.97 94.81 43.25 94.97 44.53 C 93.91 44.93 92.87 45.37 91.84 45.84 C 91.82 46.64 91.77 48.23 91.75 49.02 C 91.06 45.59 90.26 42.20 88.88 38.97 Z" />
</g>
<g id="#f88438ff">
<path fill="#f88438" opacity="1.00" d=" M 54.02 45.04 C 57.35 44.43 60.67 43.76 63.97 43.01 C 63.93 45.58 64.30 48.22 63.62 50.74 C 62.55 54.03 57.85 54.97 55.49 52.50 C 53.55 50.52 54.02 47.55 54.02 45.04 Z" />
</g>
<g id="#6050e0ff">
<path fill="#6050e0" opacity="1.00" d=" M 91.84 45.84 C 92.87 45.37 93.91 44.93 94.97 44.53 C 96.13 49.20 96.29 54.14 95.44 58.87 C 94.46 58.89 92.49 58.93 91.50 58.95 C 91.97 55.66 92.12 52.33 91.75 49.02 C 91.77 48.23 91.82 46.64 91.84 45.84 Z" />
<path fill="#6050e0" opacity="1.00" d=" M 22.51 47.15 C 23.50 47.13 25.49 47.08 26.48 47.06 C 26.06 50.21 25.99 53.37 26.08 56.54 C 24.67 55.84 23.27 55.10 22.02 54.14 C 22.05 51.81 22.00 49.44 22.51 47.15 Z" />
</g>
<g id="#5048d8ff">
<path fill="#5048d8" opacity="1.00" d=" M 22.02 54.14 C 23.27 55.10 24.67 55.84 26.08 56.54 L 26.27 56.70 C 26.56 60.00 27.58 63.16 28.68 66.27 C 27.43 66.63 26.18 66.99 24.94 67.35 C 23.18 63.17 22.14 58.67 22.02 54.14 Z" />
</g>
<g id="#4848d8ff">
<path fill="#4848d8" opacity="1.00" d=" M 91.50 58.95 C 92.49 58.93 94.46 58.89 95.44 58.87 C 94.84 63.95 92.67 68.71 90.11 73.10 C 89.89 73.38 89.46 73.94 89.24 74.23 C 89.15 72.68 88.50 71.26 86.93 70.76 C 89.07 67.09 90.59 63.10 91.50 58.95 Z" />
</g>
<g id="#f8cc70ff">
<path fill="#f8cc70" opacity="1.00" d=" M 81.13 62.14 C 81.87 60.65 84.05 60.62 84.84 62.08 C 85.19 64.57 84.90 67.10 84.96 69.61 C 83.64 70.40 82.31 71.18 81.01 72.00 C 81.12 68.72 80.81 65.41 81.13 62.14 Z" />
</g>
<g id="#3840d0ff">
<path fill="#3840d0" opacity="1.00" d=" M 28.68 66.27 L 28.79 66.24 C 30.64 70.36 33.27 74.09 36.54 77.21 C 35.04 77.56 33.55 77.93 32.05 78.27 C 29.04 75.12 26.55 71.41 24.94 67.35 C 26.18 66.99 27.43 66.63 28.68 66.27 Z" />
</g>
<g id="#f8b458ff">
<path fill="#f8b458" opacity="1.00" d=" M 81.01 72.00 C 82.31 71.18 83.64 70.40 84.96 69.61 C 84.99 70.23 85.04 71.46 85.07 72.08 C 85.53 71.75 86.47 71.09 86.93 70.76 C 88.50 71.26 89.15 72.68 89.24 74.23 C 86.08 77.78 81.67 79.92 78.34 83.30 C 77.87 82.46 77.40 81.61 76.94 80.76 C 76.10 78.52 72.25 75.15 75.81 73.46 C 78.42 73.31 78.96 76.60 80.09 78.33 C 80.31 78.47 80.75 78.75 80.97 78.90 L 80.96 78.18 C 81.01 76.12 80.99 74.06 81.01 72.00 Z" />
</g>
<g id="#2038c0ff">
<path fill="#2038c0" opacity="1.00" d=" M 36.54 77.21 C 43.01 83.14 51.74 86.16 60.47 86.26 C 60.52 86.28 60.63 86.31 60.69 86.33 C 59.84 87.37 59.39 88.57 59.34 89.92 C 49.15 90.16 38.91 85.82 32.05 78.27 C 33.55 77.93 35.04 77.56 36.54 77.21 Z" />
</g>
<g id="#686098ff">
<path fill="#686098" opacity="1.00" d=" M 80.09 78.33 L 80.96 78.18 L 80.97 78.90 C 80.75 78.75 80.31 78.47 80.09 78.33 Z" />
</g>
<g id="#38bce8ff">
<path fill="#38bce8" opacity="1.00" d=" M 61.35 79.36 C 64.14 77.89 67.62 80.80 66.87 83.81 C 66.16 86.52 63.13 87.68 60.69 86.33 C 60.63 86.31 60.52 86.28 60.47 86.26 C 58.36 84.35 58.57 80.50 61.35 79.36 Z" />
</g>
<g id="#2038c8ff">
<path fill="#2038c8" opacity="1.00" d=" M 67.19 85.18 C 70.56 83.98 73.87 82.62 76.94 80.76 C 77.40 81.61 77.87 82.46 78.34 83.30 L 78.70 84.03 C 76.34 86.30 72.77 87.13 69.78 88.45 C 69.24 88.12 68.17 87.44 67.63 87.10 C 67.52 86.62 67.30 85.66 67.19 85.18 Z" />
</g>
<g id="#102078ff">
<path fill="#102078" opacity="1.00" d=" M 60.69 86.33 C 63.13 87.68 66.16 86.52 66.87 83.81 C 66.95 84.15 67.11 84.83 67.19 85.18 C 67.30 85.66 67.52 86.62 67.63 87.10 C 68.17 87.44 69.24 88.12 69.78 88.45 C 66.47 89.53 62.83 90.07 59.34 89.92 C 59.39 88.57 59.84 87.37 60.69 86.33 Z" />
</g>
<g id="#f08438ff">
<path fill="#f08438" opacity="1.00" d=" M 85.41 91.49 C 89.79 89.70 93.01 86.15 96.96 83.66 C 97.11 85.71 97.16 88.03 95.65 89.64 C 93.13 93.02 88.43 91.93 84.81 91.82 L 85.41 91.49 Z" />
</g>
</svg>
