<?xml version="1.0" encoding="UTF-8" ?>
<!DOCTYPE svg PUBLIC "-//W3C//DTD SVG 1.1//EN" "http://www.w3.org/Graphics/SVG/1.1/DTD/svg11.dtd">
<svg width="117px" height="140px" viewBox="0 0 117 140" version="1.1" xmlns="http://www.w3.org/2000/svg">
<g id="#000000ff">
<path fill="#000000" opacity="1.00" d=" M 0.00 0.00 L 117.00 0.00 L 117.00 140.00 L 0.00 140.00 L 0.00 0.00 M 33.21 10.23 C 20.98 11.55 10.08 20.61 6.49 32.37 C 4.44 38.37 5.08 44.77 5.00 50.98 C 5.06 67.35 4.88 83.72 5.08 100.08 C 5.76 115.63 19.34 129.24 34.89 129.92 C 50.28 130.11 65.67 129.96 81.06 129.99 C 92.34 130.09 103.34 123.63 108.81 113.78 C 111.78 108.71 113.13 102.81 113.01 96.96 C 112.96 78.29 113.06 59.62 112.96 40.96 C 112.76 28.21 104.00 16.23 92.02 11.97 C 84.68 9.10 76.70 10.20 69.03 10.00 C 57.09 10.16 45.13 9.68 33.21 10.23 Z" />
<path fill="#000000" opacity="1.00" d=" M 30.49 12.69 C 33.93 11.94 37.47 11.98 40.97 11.99 C 54.98 12.07 69.00 11.87 83.02 12.09 C 97.89 12.70 110.86 26.05 110.95 40.95 C 111.05 59.99 110.99 79.03 110.98 98.07 C 111.19 109.86 103.53 121.17 92.68 125.64 C 88.10 127.73 82.99 128.08 78.03 128.01 C 63.69 127.93 49.34 128.13 35.00 127.91 C 20.11 127.31 7.13 113.94 7.04 99.03 C 6.97 79.67 6.97 60.31 7.04 40.96 C 7.19 27.63 17.50 15.41 30.49 12.69 M 40.75 45.04 C 41.58 46.17 42.55 47.18 43.47 48.24 C 46.75 46.64 50.19 45.01 53.92 44.98 C 58.43 44.84 62.68 46.87 66.27 49.43 C 68.25 46.73 70.01 43.87 71.70 40.98 C 62.24 35.06 48.03 36.17 40.75 45.04 M 58.18 62.65 C 59.58 63.16 60.99 63.65 62.38 64.19 C 64.19 59.98 66.35 55.94 68.41 51.86 C 70.59 55.42 71.38 59.50 71.97 63.57 C 75.73 63.58 79.48 63.59 83.23 63.55 C 84.24 54.97 79.51 46.85 72.92 41.70 C 68.60 49.08 62.95 55.57 58.18 62.65 M 33.78 58.58 C 34.42 58.97 35.71 59.74 36.35 60.13 C 37.64 56.72 38.90 53.23 41.41 50.51 C 43.39 48.71 40.29 47.43 39.13 46.38 C 36.65 50.09 34.58 54.15 33.78 58.58 M 55.25 65.20 C 54.65 67.02 54.38 70.15 57.02 70.30 C 59.41 71.35 62.11 67.77 60.14 65.86 C 58.95 64.25 56.87 64.89 55.25 65.20 Z" />
<path fill="#000000" opacity="1.00" d=" M 54.70 41.22 C 56.52 40.85 58.38 40.71 60.23 40.71 C 59.16 43.06 56.57 41.46 54.70 41.22 Z" />
<path fill="#000000" opacity="1.00" d=" M 62.69 41.10 C 64.14 41.44 65.57 41.81 67.01 42.18 C 66.32 43.04 65.65 43.91 64.98 44.79 C 63.86 43.80 62.86 42.66 62.69 41.10 Z" />
<path fill="#000000" opacity="1.00" d=" M 72.46 49.58 C 71.76 48.61 72.79 46.56 74.07 47.10 C 74.95 48.05 73.62 49.95 72.46 49.58 Z" />
<path fill="#000000" opacity="1.00" d=" M 72.87 53.27 C 74.07 52.28 75.26 51.30 76.47 50.32 C 77.02 51.46 77.58 52.61 78.14 53.75 C 76.77 54.32 75.41 54.91 74.05 55.52 C 73.76 54.95 73.17 53.83 72.87 53.27 Z" />
<path fill="#000000" opacity="1.00" d=" M 74.17 59.88 C 75.72 58.72 77.39 57.74 79.06 56.77 C 79.29 57.86 79.52 58.95 79.73 60.04 C 77.88 60.01 76.02 59.97 74.17 59.88 Z" />
</g>
<g id="#737373ff">
<path fill="#737373" opacity="1.00" d=" M 33.21 10.23 C 45.13 9.68 57.09 10.16 69.03 10.00 C 76.70 10.20 84.68 9.10 92.02 11.97 C 104.00 16.23 112.76 28.21 112.96 40.96 C 113.06 59.62 112.96 78.29 113.01 96.96 C 113.13 102.81 111.78 108.71 108.81 113.78 C 103.34 123.63 92.34 130.09 81.06 129.99 C 65.67 129.96 50.28 130.11 34.89 129.92 C 19.34 129.24 5.76 115.63 5.08 100.08 C 4.88 83.72 5.06 67.35 5.00 50.98 C 5.08 44.77 4.44 38.37 6.49 32.37 C 10.08 20.61 20.98 11.55 33.21 10.23 M 30.49 12.69 C 17.50 15.41 7.19 27.63 7.04 40.96 C 6.97 60.31 6.97 79.67 7.04 99.03 C 7.13 113.94 20.11 127.31 35.00 127.91 C 49.34 128.13 63.69 127.93 78.03 128.01 C 82.99 128.08 88.10 127.73 92.68 125.64 C 103.53 121.17 111.19 109.86 110.98 98.07 C 110.99 79.03 111.05 59.99 110.95 40.95 C 110.86 26.05 97.89 12.70 83.02 12.09 C 69.00 11.87 54.98 12.07 40.97 11.99 C 37.47 11.98 33.93 11.94 30.49 12.69 Z" />
</g>
<g id="#f8fcf8ff">
<path fill="#f8fcf8" opacity="1.00" d=" M 40.75 45.04 C 48.03 36.17 62.24 35.06 71.70 40.98 C 70.01 43.87 68.25 46.73 66.27 49.43 C 62.68 46.87 58.43 44.84 53.92 44.98 C 50.19 45.01 46.75 46.64 43.47 48.24 C 42.55 47.18 41.58 46.17 40.75 45.04 M 54.70 41.22 C 56.57 41.46 59.16 43.06 60.23 40.71 C 58.38 40.71 56.52 40.85 54.70 41.22 M 62.69 41.10 C 62.86 42.66 63.86 43.80 64.98 44.79 C 65.65 43.91 66.32 43.04 67.01 42.18 C 65.57 41.81 64.14 41.44 62.69 41.10 Z" />
<path fill="#f8fcf8" opacity="1.00" d=" M 58.18 62.65 C 62.95 55.57 68.60 49.08 72.92 41.70 C 79.51 46.85 84.24 54.97 83.23 63.55 C 79.48 63.59 75.73 63.58 71.97 63.57 C 71.38 59.50 70.59 55.42 68.41 51.86 C 66.35 55.94 64.19 59.98 62.38 64.19 C 60.99 63.65 59.58 63.16 58.18 62.65 M 72.46 49.58 C 73.62 49.95 74.95 48.05 74.07 47.10 C 72.79 46.56 71.76 48.61 72.46 49.58 M 72.87 53.27 C 73.17 53.83 73.76 54.95 74.05 55.52 C 75.41 54.91 76.77 54.32 78.14 53.75 C 77.58 52.61 77.02 51.46 76.47 50.32 C 75.26 51.30 74.07 52.28 72.87 53.27 M 74.17 59.88 C 76.02 59.97 77.88 60.01 79.73 60.04 C 79.52 58.95 79.29 57.86 79.06 56.77 C 77.39 57.74 75.72 58.72 74.17 59.88 Z" />
<path fill="#f8fcf8" opacity="1.00" d=" M 33.78 58.58 C 34.58 54.15 36.65 50.09 39.13 46.38 C 40.29 47.43 43.39 48.71 41.41 50.51 C 38.90 53.23 37.64 56.72 36.35 60.13 C 35.71 59.74 34.42 58.97 33.78 58.58 Z" />
<path fill="#f8fcf8" opacity="1.00" d=" M 55.25 65.20 C 56.87 64.89 58.95 64.25 60.14 65.86 C 62.11 67.77 59.41 71.35 57.02 70.30 C 54.38 70.15 54.65 67.02 55.25 65.20 Z" />
</g>
</svg>
