<?xml version="1.0" encoding="UTF-8" ?>
<!DOCTYPE svg PUBLIC "-//W3C//DTD SVG 1.1//EN" "http://www.w3.org/Graphics/SVG/1.1/DTD/svg11.dtd">
<svg width="70px" height="28px" viewBox="0 0 70 28" version="1.1" xmlns="http://www.w3.org/2000/svg">
<g id="#1d1d28ff">
<path fill="#1d1d28" opacity="1.00" d=" M 0.00 0.00 L 2.95 0.00 C 2.16 1.16 1.15 2.15 0.00 2.95 L 0.00 0.00 Z" />
<path fill="#1d1d28" opacity="1.00" d=" M 67.07 0.00 L 70.00 0.00 L 70.00 2.97 C 68.85 2.16 67.85 1.17 67.07 0.00 Z" />
<path fill="#1d1d28" opacity="1.00" d=" M 0.00 25.04 C 1.16 25.83 2.15 26.84 2.93 28.00 L 0.00 28.00 L 0.00 25.04 Z" />
<path fill="#1d1d28" opacity="1.00" d=" M 67.04 28.00 C 67.84 26.85 68.83 25.85 70.00 25.06 L 70.00 28.00 L 67.04 28.00 Z" />
</g>
<g id="#4854f8ff">
<path fill="#4854f8" opacity="1.00" d=" M 2.95 0.00 L 67.07 0.00 C 67.85 1.17 68.85 2.16 70.00 2.97 L 70.00 25.06 C 68.83 25.85 67.84 26.85 67.04 28.00 L 2.93 28.00 C 2.15 26.84 1.16 25.83 0.00 25.04 L 0.00 2.95 C 1.15 2.15 2.16 1.16 2.95 0.00 Z" />
</g>
</svg>
