<?xml version="1.0" encoding="UTF-8" ?>
<!DOCTYPE svg PUBLIC "-//W3C//DTD SVG 1.1//EN" "http://www.w3.org/Graphics/SVG/1.1/DTD/svg11.dtd">
<svg width="70px" height="28px" viewBox="0 0 70 28" version="1.1" xmlns="http://www.w3.org/2000/svg">
<g id="#181818ff">
<path fill="#181818" opacity="1.00" d=" M 0.00 0.00 L 1.80 0.00 C 1.86 1.38 1.26 1.96 0.00 1.72 L 0.00 0.00 Z" />
<path fill="#181818" opacity="1.00" d=" M 68.28 0.00 L 70.00 0.00 L 70.00 1.80 C 68.62 1.86 68.04 1.26 68.28 0.00 Z" />
<path fill="#181818" opacity="1.00" d=" M 3.07 1.19 C 7.67 0.42 12.36 0.81 17.00 0.75 C 27.32 0.96 37.64 0.55 47.96 0.86 C 54.28 1.07 60.65 0.33 66.94 1.21 C 69.12 1.59 69.04 4.25 69.20 5.94 C 69.25 10.97 69.21 16.00 69.34 21.03 C 69.15 22.90 69.39 25.37 67.63 26.58 C 63.87 27.79 59.86 27.18 55.98 27.23 C 39.32 27.29 22.65 27.23 5.98 27.14 C 4.23 27.07 1.70 27.11 1.17 24.97 C 0.40 19.35 1.09 13.64 0.69 7.98 C 0.76 5.70 0.27 2.02 3.07 1.19 M 10.33 9.15 C 10.23 9.60 10.04 10.50 9.95 10.94 C 11.71 10.99 13.46 11.01 15.22 11.04 C 13.32 14.39 10.71 17.34 9.38 21.00 C 12.27 21.01 15.16 21.01 18.05 21.00 C 18.02 20.54 17.98 19.63 17.96 19.17 C 16.19 19.15 14.41 19.14 12.64 19.10 C 14.39 15.66 17.18 12.77 18.34 9.03 C 15.67 9.00 12.99 8.83 10.33 9.15 M 29.06 8.77 C 28.94 12.84 29.01 16.92 29.00 21.00 C 29.50 21.00 30.50 21.00 31.00 21.00 C 31.00 18.78 31.00 16.57 31.00 14.35 L 31.74 14.47 C 32.68 16.25 32.22 19.88 34.84 20.09 C 35.92 17.76 36.73 15.31 37.59 12.90 C 37.53 15.73 37.54 18.56 37.62 21.39 C 38.11 21.20 39.09 20.83 39.58 20.65 C 39.68 16.94 39.76 13.21 39.49 9.52 C 38.94 9.39 37.84 9.15 37.29 9.02 C 36.05 11.62 35.28 14.41 34.41 17.15 C 33.44 14.56 32.63 11.90 31.53 9.36 C 30.91 9.21 29.68 8.92 29.06 8.77 M 45.03 8.98 C 43.18 12.88 42.22 17.13 40.77 21.19 C 43.04 21.68 43.52 19.62 44.19 17.99 C 45.39 17.98 46.59 17.98 47.79 17.97 C 48.17 19.00 48.55 20.03 48.93 21.07 C 50.47 20.99 52.03 20.95 53.58 20.91 C 54.27 19.49 54.97 18.08 55.63 16.64 C 56.94 18.47 57.45 21.81 60.42 21.15 C 59.43 19.04 58.29 17.01 57.09 15.02 C 58.24 13.00 59.35 10.96 60.25 8.81 C 57.61 8.57 56.85 11.36 55.76 13.20 C 54.75 11.36 54.00 8.00 51.20 9.30 C 52.24 11.14 53.59 12.87 54.16 14.94 C 53.62 17.02 52.24 18.73 51.07 20.50 C 49.53 16.73 48.69 12.70 46.97 9.00 C 46.48 9.00 45.52 8.99 45.03 8.98 M 18.40 22.07 C 18.67 22.39 19.20 23.04 19.46 23.37 C 22.34 23.39 25.83 24.36 28.23 22.30 C 24.97 21.86 21.68 21.92 18.40 22.07 Z" />
<path fill="#181818" opacity="1.00" d=" M 45.37 11.31 C 46.48 12.35 46.89 14.06 47.71 15.36 C 47.01 16.26 45.68 15.87 44.71 16.03 C 44.90 14.46 45.02 12.86 45.37 11.31 Z" />
<path fill="#181818" opacity="1.00" d=" M 0.00 26.19 C 1.38 26.14 1.95 26.74 1.71 28.00 L 0.00 28.00 L 0.00 26.19 Z" />
<path fill="#181818" opacity="1.00" d=" M 68.21 28.00 C 68.14 26.61 68.74 26.04 70.00 26.28 L 70.00 28.00 L 68.21 28.00 Z" />
</g>
<g id="#9096daff">
<path fill="#9096da" opacity="1.00" d=" M 1.80 0.00 L 68.28 0.00 C 68.04 1.26 68.62 1.86 70.00 1.80 L 70.00 26.28 C 68.74 26.04 68.14 26.61 68.21 28.00 L 1.71 28.00 C 1.95 26.74 1.38 26.14 0.00 26.19 L 0.00 1.72 C 1.26 1.96 1.86 1.38 1.80 0.00 M 3.07 1.19 C 0.27 2.02 0.76 5.70 0.69 7.98 C 1.09 13.64 0.40 19.35 1.17 24.97 C 1.70 27.11 4.23 27.07 5.98 27.14 C 22.65 27.23 39.32 27.29 55.98 27.23 C 59.86 27.18 63.87 27.79 67.63 26.58 C 69.39 25.37 69.15 22.90 69.34 21.03 C 69.21 16.00 69.25 10.97 69.20 5.94 C 69.04 4.25 69.12 1.59 66.94 1.21 C 60.65 0.33 54.28 1.07 47.96 0.86 C 37.64 0.55 27.32 0.96 17.00 0.75 C 12.36 0.81 7.67 0.42 3.07 1.19 Z" />
<path fill="#9096da" opacity="1.00" d=" M 10.33 9.15 C 12.99 8.83 15.67 9.00 18.34 9.03 C 17.18 12.77 14.39 15.66 12.64 19.10 C 14.41 19.14 16.19 19.15 17.96 19.17 C 17.98 19.63 18.02 20.54 18.05 21.00 C 15.16 21.01 12.27 21.01 9.38 21.00 C 10.71 17.34 13.32 14.39 15.22 11.04 C 13.46 11.01 11.71 10.99 9.95 10.94 C 10.04 10.50 10.23 9.60 10.33 9.15 Z" />
<path fill="#9096da" opacity="1.00" d=" M 29.06 8.77 C 29.68 8.92 30.91 9.21 31.53 9.36 C 32.63 11.90 33.44 14.56 34.41 17.15 C 35.28 14.41 36.05 11.62 37.29 9.02 C 37.84 9.15 38.94 9.39 39.49 9.52 C 39.76 13.21 39.68 16.94 39.58 20.65 C 39.09 20.83 38.11 21.20 37.62 21.39 C 37.54 18.56 37.53 15.73 37.59 12.90 C 36.73 15.31 35.92 17.76 34.84 20.09 C 32.22 19.88 32.68 16.25 31.74 14.47 L 31.00 14.35 C 31.00 16.57 31.00 18.78 31.00 21.00 C 30.50 21.00 29.50 21.00 29.00 21.00 C 29.01 16.92 28.94 12.84 29.06 8.77 Z" />
<path fill="#9096da" opacity="1.00" d=" M 45.03 8.98 C 45.52 8.99 46.48 9.00 46.97 9.00 C 48.69 12.70 49.53 16.73 51.07 20.50 C 52.24 18.73 53.62 17.02 54.16 14.94 C 53.59 12.87 52.24 11.14 51.20 9.30 C 54.00 8.00 54.75 11.36 55.76 13.20 C 56.85 11.36 57.61 8.57 60.25 8.81 C 59.35 10.96 58.24 13.00 57.09 15.02 C 58.29 17.01 59.43 19.04 60.42 21.15 C 57.45 21.81 56.94 18.47 55.63 16.64 C 54.97 18.08 54.27 19.49 53.58 20.91 C 52.03 20.95 50.47 20.99 48.93 21.07 C 48.55 20.03 48.17 19.00 47.79 17.97 C 46.59 17.98 45.39 17.98 44.19 17.99 C 43.52 19.62 43.04 21.68 40.77 21.19 C 42.22 17.13 43.18 12.88 45.03 8.98 M 45.37 11.31 C 45.02 12.86 44.90 14.46 44.71 16.03 C 45.68 15.87 47.01 16.26 47.71 15.36 C 46.89 14.06 46.48 12.35 45.37 11.31 Z" />
<path fill="#9096da" opacity="1.00" d=" M 18.40 22.07 C 21.68 21.92 24.97 21.86 28.23 22.30 C 25.83 24.36 22.34 23.39 19.46 23.37 C 19.20 23.04 18.67 22.39 18.40 22.07 Z" />
</g>
</svg>
