<?xml version="1.0" encoding="UTF-8" ?>
<!DOCTYPE svg PUBLIC "-//W3C//DTD SVG 1.1//EN" "http://www.w3.org/Graphics/SVG/1.1/DTD/svg11.dtd">
<svg width="117px" height="140px" viewBox="0 0 117 140" version="1.1" xmlns="http://www.w3.org/2000/svg">
<g id="#000000ff">
<path fill="#000000" opacity="1.00" d=" M 0.00 0.00 L 117.00 0.00 L 117.00 140.00 L 0.00 140.00 L 0.00 0.00 M 33.20 10.23 C 17.96 11.76 5.23 25.58 5.03 40.90 C 4.95 59.92 5.02 78.95 5.00 97.97 C 4.94 106.86 8.85 115.65 15.44 121.61 C 21.50 127.23 29.79 130.23 38.04 130.02 C 53.05 129.92 68.06 130.14 83.07 129.91 C 98.98 129.26 112.81 115.02 112.96 99.09 C 113.05 80.03 112.98 60.97 112.99 41.91 C 113.09 30.88 106.89 20.13 97.40 14.54 C 91.90 11.19 85.41 9.76 79.01 9.98 C 63.74 10.18 48.46 9.67 33.20 10.23 Z" />
<path fill="#000000" opacity="1.00" d=" M 33.27 12.34 C 48.50 11.71 63.77 12.25 79.02 12.06 C 85.35 11.88 91.82 13.28 97.14 16.83 C 105.61 22.13 111.01 31.98 110.91 41.97 C 110.98 58.98 110.89 75.99 110.94 93.00 C 111.11 99.34 110.80 105.97 107.62 111.62 C 102.74 121.52 91.96 128.02 80.95 127.91 C 65.95 127.93 50.94 127.99 35.94 127.87 C 20.73 127.74 7.22 114.25 7.13 99.03 C 6.98 81.69 7.13 64.34 7.06 46.99 C 7.07 42.63 6.91 38.17 8.17 33.93 C 11.28 22.61 21.53 13.60 33.27 12.34 M 53.58 27.71 C 53.60 29.33 53.63 30.96 53.69 32.58 C 51.84 33.15 50.05 33.87 48.32 34.73 C 47.09 33.56 45.86 32.38 44.61 31.23 C 42.21 33.73 39.77 36.19 37.24 38.56 C 38.35 39.80 39.47 41.04 40.59 42.28 C 39.85 44.06 39.19 45.86 38.60 47.70 C 36.97 47.66 35.34 47.63 33.71 47.62 C 33.38 51.20 33.38 54.80 33.71 58.39 C 35.33 58.37 36.96 58.34 38.58 58.29 C 39.18 60.12 39.84 61.92 40.58 63.70 C 39.48 64.95 38.36 66.18 37.25 67.42 C 39.76 69.81 42.21 72.25 44.58 74.77 C 45.84 73.62 47.09 72.45 48.33 71.28 C 50.07 72.13 51.87 72.83 53.70 73.44 C 53.64 75.05 53.61 76.67 53.58 78.29 C 57.18 78.62 60.81 78.62 64.42 78.30 C 64.39 76.67 64.36 75.04 64.31 73.41 C 66.15 72.85 67.94 72.13 69.67 71.28 C 70.91 72.45 72.16 73.62 73.42 74.78 C 75.79 72.25 78.24 69.80 80.76 67.41 C 79.64 66.17 78.52 64.95 77.40 63.72 C 78.14 61.93 78.86 60.14 79.51 58.33 C 81.10 58.35 82.70 58.36 84.30 58.37 C 84.62 54.80 84.62 51.20 84.30 47.63 C 82.70 47.63 81.10 47.65 79.50 47.67 C 78.85 45.85 78.13 44.06 77.40 42.27 C 78.52 41.03 79.65 39.81 80.77 38.57 C 78.23 36.20 75.79 33.73 73.39 31.23 C 72.14 32.38 70.91 33.55 69.68 34.72 C 67.94 33.88 66.14 33.17 64.30 32.59 C 64.36 30.96 64.39 29.33 64.42 27.71 C 60.82 27.38 57.19 27.38 53.58 27.71 Z" />
<path fill="#000000" opacity="1.00" d=" M 56.89 30.77 C 58.30 30.77 59.71 30.77 61.12 30.77 C 61.13 32.37 61.14 33.96 61.15 35.55 C 64.26 36.23 67.18 37.52 69.91 39.14 C 71.05 37.99 72.19 36.82 73.31 35.65 C 74.31 36.67 75.33 37.68 76.35 38.68 C 75.17 39.82 74.00 40.96 72.84 42.12 C 74.47 44.82 75.73 47.73 76.41 50.82 C 78.02 50.83 79.64 50.84 81.26 50.85 C 81.26 52.28 81.26 53.71 81.26 55.15 C 79.64 55.16 78.02 55.17 76.40 55.18 C 75.72 58.27 74.47 61.19 72.85 63.90 C 74.00 65.05 75.17 66.19 76.34 67.32 C 75.32 68.32 74.32 69.33 73.32 70.35 C 72.19 69.17 71.05 68.01 69.91 66.86 C 67.18 68.49 64.25 69.74 61.15 70.44 C 61.14 72.04 61.13 73.63 61.12 75.23 C 59.71 75.23 58.29 75.23 56.88 75.23 C 56.87 73.63 56.86 72.04 56.85 70.44 C 53.74 69.74 50.82 68.48 48.08 66.86 C 46.94 68.01 45.81 69.18 44.69 70.35 C 43.68 69.33 42.67 68.32 41.66 67.32 C 42.83 66.18 44.00 65.04 45.15 63.89 C 43.53 61.18 42.27 58.27 41.59 55.18 C 39.97 55.16 38.36 55.16 36.74 55.15 C 36.74 53.72 36.74 52.28 36.74 50.85 C 38.36 50.84 39.97 50.83 41.59 50.82 C 42.28 47.73 43.53 44.82 45.15 42.10 C 43.99 40.95 42.83 39.81 41.66 38.68 C 42.67 37.68 43.69 36.67 44.69 35.65 C 45.81 36.82 46.94 37.99 48.08 39.14 C 50.81 37.53 53.73 36.23 56.84 35.56 C 56.86 33.97 56.87 32.37 56.89 30.77 M 57.38 43.37 C 49.99 44.44 46.27 54.79 52.21 59.81 C 56.82 65.20 66.21 62.62 68.22 56.08 C 70.87 49.56 64.15 41.96 57.38 43.37 Z" />
<path fill="#000000" opacity="1.00" d=" M 54.10 48.09 C 57.20 46.12 60.82 46.09 63.90 48.10 C 65.93 51.18 65.85 54.83 63.88 57.92 C 60.81 59.91 57.20 59.88 54.12 57.93 C 52.15 54.83 52.07 51.17 54.10 48.09 Z" />
</g>
<g id="#737473ff">
<path fill="#737473" opacity="1.00" d=" M 33.20 10.23 C 48.46 9.67 63.74 10.18 79.01 9.98 C 85.41 9.76 91.90 11.19 97.40 14.54 C 106.89 20.13 113.09 30.88 112.99 41.91 C 112.98 60.97 113.05 80.03 112.96 99.09 C 112.81 115.02 98.98 129.26 83.07 129.91 C 68.06 130.14 53.05 129.92 38.04 130.02 C 29.79 130.23 21.50 127.23 15.44 121.61 C 8.85 115.65 4.94 106.86 5.00 97.97 C 5.02 78.95 4.95 59.92 5.03 40.90 C 5.23 25.58 17.96 11.76 33.20 10.23 M 33.27 12.34 C 21.53 13.60 11.28 22.61 8.17 33.93 C 6.91 38.17 7.07 42.63 7.06 46.99 C 7.13 64.34 6.98 81.69 7.13 99.03 C 7.22 114.25 20.73 127.74 35.94 127.87 C 50.94 127.99 65.95 127.93 80.95 127.91 C 91.96 128.02 102.74 121.52 107.62 111.62 C 110.80 105.97 111.11 99.34 110.94 93.00 C 110.89 75.99 110.98 58.98 110.91 41.97 C 111.01 31.98 105.61 22.13 97.14 16.83 C 91.82 13.28 85.35 11.88 79.02 12.06 C 63.77 12.25 48.50 11.71 33.27 12.34 Z" />
</g>
<g id="#f7fbf7ff">
<path fill="#f7fbf7" opacity="1.00" d=" M 53.58 27.71 C 57.19 27.38 60.82 27.38 64.42 27.71 C 64.39 29.33 64.36 30.96 64.30 32.59 C 66.14 33.17 67.94 33.88 69.68 34.72 C 70.91 33.55 72.14 32.38 73.39 31.23 C 75.79 33.73 78.23 36.20 80.77 38.57 C 79.65 39.81 78.52 41.03 77.40 42.27 C 78.13 44.06 78.85 45.85 79.50 47.67 C 81.10 47.65 82.70 47.63 84.30 47.63 C 84.62 51.20 84.62 54.80 84.30 58.37 C 82.70 58.36 81.10 58.35 79.51 58.33 C 78.86 60.14 78.14 61.93 77.40 63.72 C 78.52 64.95 79.64 66.17 80.76 67.41 C 78.24 69.80 75.79 72.25 73.42 74.78 C 72.16 73.62 70.91 72.45 69.67 71.28 C 67.94 72.13 66.15 72.85 64.31 73.41 C 64.36 75.04 64.39 76.67 64.42 78.30 C 60.81 78.62 57.18 78.62 53.58 78.29 C 53.61 76.67 53.64 75.05 53.70 73.44 C 51.87 72.83 50.07 72.13 48.33 71.28 C 47.09 72.45 45.84 73.62 44.58 74.77 C 42.21 72.25 39.76 69.81 37.25 67.42 C 38.36 66.18 39.48 64.95 40.58 63.70 C 39.84 61.92 39.18 60.12 38.58 58.29 C 36.96 58.34 35.33 58.37 33.71 58.39 C 33.38 54.80 33.38 51.20 33.71 47.62 C 35.34 47.63 36.97 47.66 38.60 47.70 C 39.19 45.86 39.85 44.06 40.59 42.28 C 39.47 41.04 38.35 39.80 37.24 38.56 C 39.77 36.19 42.21 33.73 44.61 31.23 C 45.86 32.38 47.09 33.56 48.32 34.73 C 50.05 33.87 51.84 33.15 53.69 32.58 C 53.63 30.96 53.60 29.33 53.58 27.71 M 56.89 30.77 C 56.87 32.37 56.86 33.97 56.84 35.56 C 53.73 36.23 50.81 37.53 48.08 39.14 C 46.94 37.99 45.81 36.82 44.69 35.65 C 43.69 36.67 42.67 37.68 41.66 38.68 C 42.83 39.81 43.99 40.95 45.15 42.10 C 43.53 44.82 42.28 47.73 41.59 50.82 C 39.97 50.83 38.36 50.84 36.74 50.85 C 36.74 52.28 36.74 53.72 36.74 55.15 C 38.36 55.16 39.97 55.16 41.59 55.18 C 42.27 58.27 43.53 61.18 45.15 63.89 C 44.00 65.04 42.83 66.18 41.66 67.32 C 42.67 68.32 43.68 69.33 44.69 70.35 C 45.81 69.18 46.94 68.01 48.08 66.86 C 50.82 68.48 53.74 69.74 56.85 70.44 C 56.86 72.04 56.87 73.63 56.88 75.23 C 58.29 75.23 59.71 75.23 61.12 75.23 C 61.13 73.63 61.14 72.04 61.15 70.44 C 64.25 69.74 67.18 68.49 69.91 66.86 C 71.05 68.01 72.19 69.17 73.32 70.35 C 74.32 69.33 75.32 68.32 76.34 67.32 C 75.17 66.19 74.00 65.05 72.85 63.90 C 74.47 61.19 75.72 58.27 76.40 55.18 C 78.02 55.17 79.64 55.16 81.26 55.15 C 81.26 53.71 81.26 52.28 81.26 50.85 C 79.64 50.84 78.02 50.83 76.41 50.82 C 75.73 47.73 74.47 44.82 72.84 42.12 C 74.00 40.96 75.17 39.82 76.35 38.68 C 75.33 37.68 74.31 36.67 73.31 35.65 C 72.19 36.82 71.05 37.99 69.91 39.14 C 67.18 37.52 64.26 36.23 61.15 35.55 C 61.14 33.96 61.13 32.37 61.12 30.77 C 59.71 30.77 58.30 30.77 56.89 30.77 Z" />
<path fill="#f7fbf7" opacity="1.00" d=" M 57.38 43.37 C 64.15 41.96 70.87 49.56 68.22 56.08 C 66.21 62.62 56.82 65.20 52.21 59.81 C 46.27 54.79 49.99 44.44 57.38 43.37 M 54.10 48.09 C 52.07 51.17 52.15 54.83 54.12 57.93 C 57.20 59.88 60.81 59.91 63.88 57.92 C 65.85 54.83 65.93 51.18 63.90 48.10 C 60.82 46.09 57.20 46.12 54.10 48.09 Z" />
</g>
</svg>
