<?xml version="1.0" encoding="UTF-8" ?>
<!DOCTYPE svg PUBLIC "-//W3C//DTD SVG 1.1//EN" "http://www.w3.org/Graphics/SVG/1.1/DTD/svg11.dtd">
<svg width="117px" height="140px" viewBox="0 0 117 140" version="1.1" xmlns="http://www.w3.org/2000/svg">
<g id="#000000ff">
<path fill="#000000" opacity="1.00" d=" M 0.00 0.00 L 117.00 0.00 L 117.00 140.00 L 0.00 140.00 L 0.00 0.00 M 33.20 10.24 C 20.71 11.58 9.64 21.01 6.27 33.10 C 4.65 38.24 5.00 43.69 4.99 49.00 C 5.02 65.32 4.99 81.64 5.00 97.96 C 4.90 108.53 10.51 118.90 19.35 124.68 C 24.81 128.35 31.41 130.14 37.97 130.02 C 53.00 129.91 68.04 130.15 83.07 129.91 C 98.98 129.27 112.81 115.03 112.96 99.10 C 113.05 80.07 112.98 61.04 113.00 42.02 C 113.11 31.19 107.21 20.61 98.02 14.92 C 92.40 11.31 85.65 9.77 79.02 9.97 C 63.75 10.19 48.46 9.66 33.20 10.24 Z" />
<path fill="#000000" opacity="1.00" d=" M 33.27 12.35 C 45.14 11.71 57.05 12.24 68.94 12.07 C 77.08 12.25 85.71 11.08 93.30 14.73 C 103.81 19.34 111.04 30.43 110.91 41.92 C 110.95 60.62 110.95 79.33 110.91 98.03 C 111.02 108.72 104.83 119.20 95.38 124.21 C 90.45 127.07 84.66 128.03 79.02 127.94 C 65.00 127.90 50.98 127.98 36.96 127.91 C 26.51 127.98 16.23 122.10 11.12 112.96 C 8.23 108.18 6.98 102.56 7.07 97.00 C 7.11 78.31 6.99 59.62 7.13 40.93 C 7.31 26.71 19.10 13.78 33.27 12.35 M 60.10 41.54 C 54.95 42.44 50.66 46.24 49.76 51.49 C 45.33 51.52 40.90 51.30 36.48 51.44 C 40.83 52.54 45.34 52.16 49.78 52.15 C 50.25 57.58 54.47 61.95 59.86 62.69 C 60.00 67.02 59.26 71.48 60.62 75.68 C 60.66 71.35 60.54 67.02 60.56 62.69 C 66.44 62.42 70.97 57.64 71.50 51.88 C 75.88 51.71 80.30 52.07 84.65 51.43 C 80.24 50.98 75.80 51.33 71.38 51.41 C 70.46 46.11 66.00 42.03 60.62 41.68 C 60.69 37.27 61.06 32.84 60.64 28.44 C 59.94 32.77 60.26 37.18 60.10 41.54 Z" />
</g>
<g id="#737373ff">
<path fill="#737373" opacity="1.00" d=" M 33.20 10.24 C 48.46 9.66 63.75 10.19 79.02 9.97 C 85.65 9.77 92.40 11.31 98.02 14.92 C 107.21 20.61 113.11 31.19 113.00 42.02 C 112.98 61.04 113.05 80.07 112.96 99.10 C 112.81 115.03 98.98 129.27 83.07 129.91 C 68.04 130.15 53.00 129.91 37.97 130.02 C 31.41 130.14 24.81 128.35 19.35 124.68 C 10.51 118.90 4.90 108.53 5.00 97.96 C 4.99 81.64 5.02 65.32 4.99 49.00 C 5.00 43.69 4.65 38.24 6.27 33.10 C 9.64 21.01 20.71 11.58 33.20 10.24 M 33.27 12.35 C 19.10 13.78 7.31 26.71 7.13 40.93 C 6.99 59.62 7.11 78.31 7.07 97.00 C 6.98 102.56 8.23 108.18 11.12 112.96 C 16.23 122.10 26.51 127.98 36.96 127.91 C 50.98 127.98 65.00 127.90 79.02 127.94 C 84.66 128.03 90.45 127.07 95.38 124.21 C 104.83 119.20 111.02 108.72 110.91 98.03 C 110.95 79.33 110.95 60.62 110.91 41.92 C 111.04 30.43 103.81 19.34 93.30 14.73 C 85.71 11.08 77.08 12.25 68.94 12.07 C 57.05 12.24 45.14 11.71 33.27 12.35 Z" />
</g>
<g id="#f8fcf8ff">
<path fill="#f8fcf8" opacity="1.00" d=" M 60.10 41.54 C 60.26 37.18 59.94 32.77 60.64 28.44 C 61.06 32.84 60.69 37.27 60.62 41.68 C 66.00 42.03 70.46 46.11 71.38 51.41 C 75.80 51.33 80.24 50.98 84.65 51.43 C 80.30 52.07 75.88 51.71 71.50 51.88 C 70.97 57.64 66.44 62.42 60.56 62.69 C 60.54 67.02 60.66 71.35 60.62 75.68 C 59.26 71.48 60.00 67.02 59.86 62.69 C 54.47 61.95 50.25 57.58 49.78 52.15 C 45.34 52.16 40.83 52.54 36.48 51.44 C 40.90 51.30 45.33 51.52 49.76 51.49 C 50.66 46.24 54.95 42.44 60.10 41.54 Z" />
</g>
</svg>
