<?xml version="1.0" encoding="UTF-8" ?>
<!DOCTYPE svg PUBLIC "-//W3C//DTD SVG 1.1//EN" "http://www.w3.org/Graphics/SVG/1.1/DTD/svg11.dtd">
<svg width="52px" height="12px" viewBox="0 0 52 12" version="1.1" xmlns="http://www.w3.org/2000/svg">
<g id="#181818ff">
<path fill="#181818" opacity="1.00" d=" M 0.00 0.00 L 9.91 0.00 C 10.16 0.25 10.65 0.76 10.90 1.01 C 12.60 1.96 14.71 1.15 16.10 0.00 L 33.79 0.00 C 30.78 1.10 27.89 2.57 25.74 5.02 C 23.11 2.09 19.36 0.60 15.44 0.52 C 16.94 1.45 18.55 2.18 20.00 3.19 C 15.02 2.06 9.07 1.19 4.87 4.83 C 2.21 7.64 6.48 10.42 9.07 10.83 C 13.35 11.20 19.07 11.85 21.78 7.69 C 22.85 5.90 20.58 4.53 19.39 3.69 C 20.06 3.34 20.73 2.98 21.40 2.63 C 22.33 4.01 23.88 5.15 24.04 6.92 C 23.41 9.93 20.08 10.87 17.66 12.00 L 6.90 12.00 L 8.09 11.85 C 5.66 10.72 1.70 9.56 2.04 6.14 C 2.95 3.06 6.60 2.78 8.87 1.28 C 5.38 0.32 1.97 2.97 0.00 5.67 L 0.00 0.00 Z" />
<path fill="#181818" opacity="1.00" d=" M 43.95 0.00 L 52.00 0.00 L 52.00 5.19 C 50.31 2.22 46.99 1.06 43.95 0.00 Z" />
<path fill="#181818" opacity="1.00" d=" M 28.63 4.50 C 32.11 0.44 38.16 0.38 43.07 1.04 C 45.58 1.73 48.49 2.68 49.76 5.16 C 50.79 7.38 48.25 8.94 47.24 10.56 C 46.70 10.08 46.17 9.59 45.63 9.10 C 47.38 8.64 48.90 6.21 47.41 4.70 C 44.32 1.18 39.23 1.89 35.05 2.14 C 32.97 2.76 30.58 3.80 29.91 6.06 C 30.12 7.55 30.95 8.56 32.38 9.09 C 31.84 9.58 31.30 10.06 30.76 10.55 C 29.51 8.88 26.77 6.76 28.63 4.50 Z" />
<path fill="#181818" opacity="1.00" d=" M 0.00 7.84 C 1.21 9.65 2.94 10.98 4.84 12.00 L 0.00 12.00 L 0.00 7.84 Z" />
<path fill="#181818" opacity="1.00" d=" M 21.30 12.00 C 23.03 10.88 24.54 9.47 26.15 8.19 C 28.10 9.55 29.98 11.02 32.16 12.00 L 21.30 12.00 Z" />
<path fill="#181818" opacity="1.00" d=" M 46.14 11.98 C 48.33 10.78 50.56 9.49 52.00 7.38 L 52.00 12.00 L 47.08 12.00 L 46.14 11.98 Z" />
<path fill="#181818" opacity="1.00" d=" M 36.45 11.47 C 34.56 11.68 33.08 11.08 32.02 9.66 C 36.50 11.00 41.20 11.36 45.63 9.54 C 45.46 9.93 45.14 10.70 44.98 11.09 C 44.10 11.32 42.35 11.77 41.47 12.00 L 34.95 12.00 L 36.45 11.47 Z" />
</g>
<g id="#f8fcf8ff">
<path fill="#f8fcf8" opacity="1.00" d=" M 9.91 0.00 L 16.10 0.00 C 14.71 1.15 12.60 1.96 10.90 1.01 C 10.65 0.76 10.16 0.25 9.91 0.00 Z" />
<path fill="#f8fcf8" opacity="1.00" d=" M 33.79 0.00 L 43.95 0.00 C 46.99 1.06 50.31 2.22 52.00 5.19 L 52.00 7.38 C 50.56 9.49 48.33 10.78 46.14 11.98 L 47.08 12.00 L 41.47 12.00 C 42.35 11.77 44.10 11.32 44.98 11.09 C 45.14 10.70 45.46 9.93 45.63 9.54 C 41.20 11.36 36.50 11.00 32.02 9.66 C 33.08 11.08 34.56 11.68 36.45 11.47 L 34.95 12.00 L 32.16 12.00 C 29.98 11.02 28.10 9.55 26.15 8.19 C 24.54 9.47 23.03 10.88 21.30 12.00 L 17.66 12.00 C 20.08 10.87 23.41 9.93 24.04 6.92 C 23.88 5.15 22.33 4.01 21.40 2.63 C 20.73 2.98 20.06 3.34 19.39 3.69 C 20.58 4.53 22.85 5.90 21.78 7.69 C 19.07 11.85 13.35 11.20 9.07 10.83 C 6.48 10.42 2.21 7.64 4.87 4.83 C 9.07 1.19 15.02 2.06 20.00 3.19 C 18.55 2.18 16.94 1.45 15.44 0.52 C 19.36 0.60 23.11 2.09 25.74 5.02 C 27.89 2.57 30.78 1.10 33.79 0.00 M 28.63 4.50 C 26.77 6.76 29.51 8.88 30.76 10.55 C 31.30 10.06 31.84 9.58 32.38 9.09 C 30.95 8.56 30.12 7.55 29.91 6.06 C 30.58 3.80 32.97 2.76 35.05 2.14 C 39.23 1.89 44.32 1.18 47.41 4.70 C 48.90 6.21 47.38 8.64 45.63 9.10 C 46.17 9.59 46.70 10.08 47.24 10.56 C 48.25 8.94 50.79 7.38 49.76 5.16 C 48.49 2.68 45.58 1.73 43.07 1.04 C 38.16 0.38 32.11 0.44 28.63 4.50 Z" />
<path fill="#f8fcf8" opacity="1.00" d=" M 0.00 5.67 C 1.97 2.97 5.38 0.32 8.87 1.28 C 6.60 2.78 2.95 3.06 2.04 6.14 C 1.70 9.56 5.66 10.72 8.09 11.85 L 6.90 12.00 L 4.84 12.00 C 2.94 10.98 1.21 9.65 0.00 7.84 L 0.00 5.67 Z" />
</g>
</svg>
