<?xml version="1.0" encoding="UTF-8" ?>
<!DOCTYPE svg PUBLIC "-//W3C//DTD SVG 1.1//EN" "http://www.w3.org/Graphics/SVG/1.1/DTD/svg11.dtd">
<svg width="70px" height="28px" viewBox="0 0 70 28" version="1.1" xmlns="http://www.w3.org/2000/svg">
<g id="#878b87ff">
<path fill="#878b87" opacity="1.00" d=" M 0.00 0.00 L 70.00 0.00 L 70.00 28.00 L 0.00 28.00 L 0.00 0.00 M 1.87 1.86 C 0.63 3.27 1.03 5.35 0.89 7.07 C 1.05 12.79 0.70 18.51 1.06 24.22 C 0.99 26.86 4.00 27.19 5.98 27.09 C 25.33 27.07 44.68 27.07 64.04 27.09 C 66.01 27.19 68.95 26.82 68.94 24.23 C 69.19 17.42 69.19 10.58 68.94 3.78 C 68.99 1.66 66.76 0.80 64.97 0.94 C 45.34 0.87 25.71 0.96 6.08 0.90 C 4.67 1.02 2.99 0.81 1.87 1.86 Z" />
</g>
<g id="#f8fcf8ff">
<path fill="#f8fcf8" opacity="1.00" d=" M 1.87 1.86 C 2.99 0.81 4.67 1.02 6.08 0.90 C 25.71 0.96 45.34 0.87 64.97 0.94 C 66.76 0.80 68.99 1.66 68.94 3.78 C 69.19 10.58 69.19 17.42 68.94 24.23 C 68.95 26.82 66.01 27.19 64.04 27.09 C 44.68 27.07 25.33 27.07 5.98 27.09 C 4.00 27.19 0.99 26.86 1.06 24.22 C 0.70 18.51 1.05 12.79 0.89 7.07 C 1.03 5.35 0.63 3.27 1.87 1.86 Z" />
</g>
</svg>
