<?xml version="1.0" encoding="UTF-8" ?>
<!DOCTYPE svg PUBLIC "-//W3C//DTD SVG 1.1//EN" "http://www.w3.org/Graphics/SVG/1.1/DTD/svg11.dtd">
<svg width="117px" height="140px" viewBox="0 0 117 140" version="1.1" xmlns="http://www.w3.org/2000/svg">
<g id="#000000ff">
<path fill="#000000" opacity="1.00" d=" M 0.00 0.00 L 117.00 0.00 L 117.00 140.00 L 0.00 140.00 L 0.00 0.00 M 32.33 10.34 C 17.43 12.26 5.22 25.91 5.00 40.93 C 4.96 59.96 5.01 79.00 4.98 98.03 C 4.86 109.60 11.68 120.87 21.92 126.21 C 26.81 128.91 32.42 130.17 37.99 130.04 C 53.02 129.93 68.06 130.13 83.09 129.94 C 98.99 129.25 112.86 115.01 112.99 99.07 C 113.05 80.03 112.98 61.00 113.02 41.96 C 113.18 29.38 105.04 17.25 93.40 12.51 C 85.11 8.73 75.81 10.30 67.01 9.99 C 55.45 10.21 43.85 9.53 32.33 10.34 Z" />
<path fill="#000000" opacity="1.00" d=" M 32.33 12.40 C 48.20 11.52 64.13 12.25 80.03 12.01 C 91.88 11.57 103.61 18.75 108.33 29.68 C 110.27 33.83 111.09 38.43 111.00 42.99 C 110.98 61.34 111.01 79.69 110.98 98.03 C 111.06 107.55 106.19 116.93 98.42 122.41 C 93.11 126.23 86.54 128.10 80.03 127.99 C 65.00 127.92 49.96 128.13 34.94 127.89 C 20.06 127.22 7.21 113.95 7.04 99.07 C 6.99 79.69 6.99 60.31 7.05 40.93 C 7.25 26.98 18.51 14.29 32.33 12.40 M 48.47 32.59 C 46.62 32.19 46.43 35.13 48.14 35.05 C 55.42 35.38 62.73 35.06 70.03 35.20 C 71.68 35.11 74.50 35.66 74.04 33.08 C 71.83 32.11 69.36 32.57 67.02 32.47 C 60.84 32.60 54.64 32.29 48.47 32.59 M 47.09 35.94 C 47.11 36.66 47.14 38.11 47.16 38.84 C 56.05 39.07 64.95 39.07 73.84 38.84 C 73.86 38.11 73.89 36.67 73.91 35.94 C 64.98 35.75 56.03 35.75 47.09 35.94 M 47.13 40.27 C 47.11 41.52 47.11 42.77 47.10 44.01 C 56.01 44.47 64.99 44.46 73.90 44.02 C 73.89 42.77 73.88 41.52 73.87 40.27 C 64.96 40.10 56.04 40.10 47.13 40.27 M 47.10 45.91 C 47.08 47.31 47.08 48.72 47.10 50.13 C 51.36 50.86 55.70 50.41 60.00 50.52 C 64.63 50.39 69.30 50.88 73.90 50.13 C 73.92 48.72 73.92 47.31 73.91 45.91 C 64.99 45.42 56.01 45.43 47.10 45.91 M 47.19 51.92 C 47.08 53.63 46.99 55.33 46.92 57.03 C 43.24 57.13 39.30 56.37 36.01 58.45 C 35.78 61.28 38.71 62.11 40.73 63.16 C 47.31 66.24 53.41 70.27 60.06 73.18 C 66.69 71.13 72.56 66.72 78.93 63.82 C 81.21 62.41 85.12 61.85 84.99 58.46 C 81.68 56.45 77.76 57.11 74.08 57.03 C 74.00 55.33 73.92 53.62 73.81 51.92 C 64.94 51.62 56.05 51.62 47.19 51.92 Z" />
<path fill="#000000" opacity="1.00" d=" M 51.10 55.88 C 57.36 55.86 63.63 55.86 69.90 55.88 C 69.95 57.59 70.00 59.31 70.06 61.02 C 71.77 61.10 73.47 61.13 75.18 61.21 C 70.05 63.42 65.49 67.06 60.18 68.69 C 55.26 66.47 50.63 63.66 45.84 61.19 C 47.54 61.13 49.24 61.10 50.94 61.03 C 51.00 59.31 51.05 57.60 51.10 55.88 Z" />
</g>
<g id="#6e6f6eff">
<path fill="#6e6f6e" opacity="1.00" d=" M 32.33 10.34 C 43.85 9.53 55.45 10.21 67.01 9.99 C 75.81 10.30 85.11 8.73 93.40 12.51 C 105.04 17.25 113.18 29.38 113.02 41.96 C 112.98 61.00 113.05 80.03 112.99 99.07 C 112.86 115.01 98.99 129.25 83.09 129.94 C 68.06 130.13 53.02 129.93 37.99 130.04 C 32.42 130.17 26.81 128.91 21.92 126.21 C 11.68 120.87 4.86 109.60 4.98 98.03 C 5.01 79.00 4.96 59.96 5.00 40.93 C 5.22 25.91 17.43 12.26 32.33 10.34 M 32.33 12.40 C 18.51 14.29 7.25 26.98 7.05 40.93 C 6.99 60.31 6.99 79.69 7.04 99.07 C 7.21 113.95 20.06 127.22 34.94 127.89 C 49.96 128.13 65.00 127.92 80.03 127.99 C 86.54 128.10 93.11 126.23 98.42 122.41 C 106.19 116.93 111.06 107.55 110.98 98.03 C 111.01 79.69 110.98 61.34 111.00 42.99 C 111.09 38.43 110.27 33.83 108.33 29.68 C 103.61 18.75 91.88 11.57 80.03 12.01 C 64.13 12.25 48.20 11.52 32.33 12.40 Z" />
</g>
<g id="#f8fcf8ff">
<path fill="#f8fcf8" opacity="1.00" d=" M 48.47 32.59 C 54.64 32.29 60.84 32.60 67.02 32.47 C 69.36 32.57 71.83 32.11 74.04 33.08 C 74.50 35.66 71.68 35.11 70.03 35.20 C 62.73 35.06 55.42 35.38 48.14 35.05 C 46.43 35.13 46.62 32.19 48.47 32.59 Z" />
<path fill="#f8fcf8" opacity="1.00" d=" M 47.09 35.94 C 56.03 35.75 64.98 35.75 73.91 35.94 C 73.89 36.67 73.86 38.11 73.84 38.84 C 64.95 39.07 56.05 39.07 47.16 38.84 C 47.14 38.11 47.11 36.66 47.09 35.94 Z" />
<path fill="#f8fcf8" opacity="1.00" d=" M 47.13 40.27 C 56.04 40.10 64.96 40.10 73.87 40.27 C 73.88 41.52 73.89 42.77 73.90 44.02 C 64.99 44.46 56.01 44.47 47.10 44.01 C 47.11 42.77 47.11 41.52 47.13 40.27 Z" />
<path fill="#f8fcf8" opacity="1.00" d=" M 47.10 45.91 C 56.01 45.43 64.99 45.42 73.91 45.91 C 73.92 47.31 73.92 48.72 73.90 50.13 C 69.30 50.88 64.63 50.39 60.00 50.52 C 55.70 50.41 51.36 50.86 47.10 50.13 C 47.08 48.72 47.08 47.31 47.10 45.91 Z" />
<path fill="#f8fcf8" opacity="1.00" d=" M 47.19 51.92 C 56.05 51.62 64.94 51.62 73.81 51.92 C 73.92 53.62 74.00 55.33 74.08 57.03 C 77.76 57.11 81.68 56.45 84.99 58.46 C 85.12 61.85 81.21 62.41 78.93 63.82 C 72.56 66.72 66.69 71.13 60.06 73.18 C 53.41 70.27 47.31 66.24 40.73 63.16 C 38.71 62.11 35.78 61.28 36.01 58.45 C 39.30 56.37 43.24 57.13 46.92 57.03 C 46.99 55.33 47.08 53.63 47.19 51.92 M 51.10 55.88 C 51.05 57.60 51.00 59.31 50.94 61.03 C 49.24 61.10 47.54 61.13 45.84 61.19 C 50.63 63.66 55.26 66.47 60.18 68.69 C 65.49 67.06 70.05 63.42 75.18 61.21 C 73.47 61.13 71.77 61.10 70.06 61.02 C 70.00 59.31 69.95 57.59 69.90 55.88 C 63.63 55.86 57.36 55.86 51.10 55.88 Z" />
</g>
</svg>
