<?xml version="1.0" encoding="UTF-8" ?>
<!DOCTYPE svg PUBLIC "-//W3C//DTD SVG 1.1//EN" "http://www.w3.org/Graphics/SVG/1.1/DTD/svg11.dtd">
<svg width="70px" height="28px" viewBox="0 0 70 28" version="1.1" xmlns="http://www.w3.org/2000/svg">
<g id="#282b5bff">
<path fill="#282b5b" opacity="1.00" d=" M 0.00 0.00 L 2.99 0.00 C 2.13 1.14 1.13 2.15 0.00 3.02 L 0.00 0.00 Z" />
<path fill="#282b5b" opacity="1.00" d=" M 66.99 0.00 L 70.00 0.00 L 70.00 3.00 C 68.86 2.14 67.85 1.13 66.99 0.00 Z" />
<path fill="#282b5b" opacity="1.00" d=" M 0.00 25.03 C 1.14 25.87 2.16 26.87 3.02 28.00 L 0.00 28.00 L 0.00 25.03 Z" />
<path fill="#282b5b" opacity="1.00" d=" M 67.01 28.00 C 67.87 26.86 68.87 25.85 70.00 24.98 L 70.00 28.00 L 67.01 28.00 Z" />
</g>
<g id="#4854f8ff">
<path fill="#4854f8" opacity="1.00" d=" M 2.99 0.00 L 66.99 0.00 C 67.85 1.13 68.86 2.14 70.00 3.00 L 70.00 24.98 C 68.87 25.85 67.87 26.86 67.01 28.00 L 3.02 28.00 C 2.16 26.87 1.14 25.87 0.00 25.03 L 0.00 3.02 C 1.13 2.15 2.13 1.14 2.99 0.00 Z" />
</g>
</svg>
