<?xml version="1.0" encoding="UTF-8" ?>
<!DOCTYPE svg PUBLIC "-//W3C//DTD SVG 1.1//EN" "http://www.w3.org/Graphics/SVG/1.1/DTD/svg11.dtd">
<svg width="117px" height="140px" viewBox="0 0 117 140" version="1.1" xmlns="http://www.w3.org/2000/svg">
<g id="#000000ff">
<path fill="#000000" opacity="1.00" d=" M 0.00 0.00 L 117.00 0.00 L 117.00 140.00 L 0.00 140.00 L 0.00 0.00 M 33.19 10.22 C 17.94 11.77 5.19 25.62 5.02 40.97 C 5.02 60.66 4.92 80.35 5.07 100.04 C 5.73 115.98 19.97 129.81 35.93 129.97 C 51.63 129.99 67.35 130.09 83.05 129.92 C 98.99 129.28 112.83 115.01 112.97 99.06 C 113.04 80.04 112.98 61.02 113.00 42.00 C 113.06 33.37 109.37 24.82 103.10 18.89 C 97.02 12.97 88.48 9.77 80.01 9.98 C 64.40 10.17 48.78 9.69 33.19 10.22 Z" />
<path fill="#000000" opacity="1.00" d=" M 33.32 12.33 C 48.53 11.72 63.79 12.25 79.02 12.06 C 85.37 11.89 91.85 13.29 97.17 16.86 C 105.62 22.15 111.01 32.00 110.90 41.97 C 110.95 60.66 110.95 79.35 110.90 98.04 C 111.02 108.75 104.79 119.26 95.30 124.25 C 90.39 127.07 84.64 128.04 79.03 127.94 C 64.33 127.84 49.63 128.09 34.94 127.82 C 20.11 127.16 7.25 113.89 7.13 99.05 C 7.03 79.68 7.03 60.32 7.13 40.96 C 7.29 26.70 19.13 13.77 33.32 12.33 M 51.55 29.35 C 45.71 30.54 40.05 35.66 40.71 42.04 C 41.92 48.54 48.79 51.61 54.67 52.61 C 56.05 54.63 52.41 55.19 51.03 55.24 C 47.18 55.88 43.92 51.90 40.11 53.54 C 36.24 54.95 35.14 59.86 36.82 63.35 C 38.52 69.49 45.63 74.84 51.90 71.57 C 57.12 68.88 58.34 62.83 60.16 57.86 C 63.48 60.51 62.28 65.21 60.68 68.48 C 59.19 71.14 60.50 74.54 62.93 76.12 C 66.32 78.04 70.63 76.75 73.74 74.80 C 78.22 72.28 81.14 66.19 78.54 61.39 C 75.93 56.53 70.38 54.63 65.33 53.55 C 64.66 51.49 67.56 51.23 68.95 51.09 C 73.02 50.30 76.59 54.69 80.58 52.51 C 85.13 50.35 84.57 44.33 82.40 40.63 C 80.14 35.63 73.79 31.93 68.53 34.59 C 63.66 37.16 61.52 42.64 60.61 47.76 C 58.43 48.42 58.11 45.58 57.98 44.08 C 57.41 40.48 60.74 37.58 60.00 34.00 C 59.21 30.38 55.02 28.20 51.55 29.35 Z" />
<path fill="#000000" opacity="1.00" d=" M 44.66 42.13 C 44.06 37.26 48.80 33.73 53.15 33.03 C 54.65 32.74 55.58 33.97 56.38 35.00 C 54.24 39.21 53.16 44.08 54.90 48.64 C 50.80 47.97 46.60 46.01 44.66 42.13 Z" />
<path fill="#000000" opacity="1.00" d=" M 64.34 48.66 C 65.43 44.33 66.96 38.75 71.99 37.64 C 77.21 37.78 80.23 43.35 80.18 48.05 C 77.90 50.10 75.37 48.04 72.95 47.47 C 70.11 46.64 66.80 46.90 64.34 48.66 Z" />
<path fill="#000000" opacity="1.00" d=" M 58.45 51.44 C 59.51 50.01 61.55 50.61 62.20 52.10 C 63.64 53.77 60.81 56.62 59.12 55.27 C 57.55 54.65 56.97 52.50 58.45 51.44 Z" />
<path fill="#000000" opacity="1.00" d=" M 40.15 60.76 C 39.37 58.78 41.38 56.10 43.46 57.48 C 47.25 59.25 51.64 59.98 55.59 58.20 C 54.91 62.23 53.13 66.69 49.16 68.49 C 44.53 69.32 41.04 64.80 40.15 60.76 Z" />
<path fill="#000000" opacity="1.00" d=" M 65.39 57.68 C 69.34 58.40 73.49 60.14 75.41 63.90 C 76.44 69.57 70.15 73.67 65.04 73.03 C 64.75 72.52 64.18 71.51 63.90 71.00 C 66.15 66.93 66.94 62.15 65.39 57.68 Z" />
</g>
<g id="#727372ff">
<path fill="#727372" opacity="1.00" d=" M 33.19 10.22 C 48.78 9.69 64.40 10.17 80.01 9.98 C 88.48 9.77 97.02 12.97 103.10 18.89 C 109.37 24.82 113.06 33.37 113.00 42.00 C 112.98 61.02 113.04 80.04 112.97 99.06 C 112.83 115.01 98.99 129.28 83.05 129.92 C 67.35 130.09 51.63 129.99 35.93 129.97 C 19.97 129.81 5.73 115.98 5.07 100.04 C 4.92 80.35 5.02 60.66 5.02 40.97 C 5.19 25.62 17.94 11.77 33.19 10.22 M 33.32 12.33 C 19.13 13.77 7.29 26.70 7.13 40.96 C 7.03 60.32 7.03 79.68 7.13 99.05 C 7.25 113.89 20.11 127.16 34.94 127.82 C 49.63 128.09 64.33 127.84 79.03 127.94 C 84.64 128.04 90.39 127.07 95.30 124.25 C 104.79 119.26 111.02 108.75 110.90 98.04 C 110.95 79.35 110.95 60.66 110.90 41.97 C 111.01 32.00 105.62 22.15 97.17 16.86 C 91.85 13.29 85.37 11.89 79.02 12.06 C 63.79 12.25 48.53 11.72 33.32 12.33 Z" />
</g>
<g id="#f8fcf8ff">
<path fill="#f8fcf8" opacity="1.00" d=" M 51.55 29.35 C 55.02 28.20 59.21 30.38 60.00 34.00 C 60.74 37.58 57.41 40.48 57.98 44.08 C 58.11 45.58 58.43 48.42 60.61 47.76 C 61.52 42.64 63.66 37.16 68.53 34.59 C 73.79 31.93 80.14 35.63 82.40 40.63 C 84.57 44.33 85.13 50.35 80.58 52.51 C 76.59 54.69 73.02 50.30 68.95 51.09 C 67.56 51.23 64.66 51.49 65.33 53.55 C 70.38 54.63 75.93 56.53 78.54 61.39 C 81.14 66.19 78.22 72.28 73.74 74.80 C 70.63 76.75 66.32 78.04 62.93 76.12 C 60.50 74.54 59.19 71.14 60.68 68.48 C 62.28 65.21 63.48 60.51 60.16 57.86 C 58.34 62.83 57.12 68.88 51.90 71.57 C 45.63 74.84 38.52 69.49 36.82 63.35 C 35.14 59.86 36.24 54.95 40.11 53.54 C 43.92 51.90 47.18 55.88 51.03 55.24 C 52.41 55.19 56.05 54.63 54.67 52.61 C 48.79 51.61 41.92 48.54 40.71 42.04 C 40.05 35.66 45.71 30.54 51.55 29.35 M 44.66 42.13 C 46.60 46.01 50.80 47.97 54.90 48.64 C 53.16 44.08 54.24 39.21 56.38 35.00 C 55.58 33.97 54.65 32.74 53.15 33.03 C 48.80 33.73 44.06 37.26 44.66 42.13 M 64.34 48.66 C 66.80 46.90 70.11 46.64 72.95 47.47 C 75.37 48.04 77.90 50.10 80.18 48.05 C 80.23 43.35 77.21 37.78 71.99 37.64 C 66.96 38.75 65.43 44.33 64.34 48.66 M 58.45 51.44 C 56.97 52.50 57.55 54.65 59.12 55.27 C 60.81 56.62 63.64 53.77 62.20 52.10 C 61.55 50.61 59.51 50.01 58.45 51.44 M 40.15 60.76 C 41.04 64.80 44.53 69.32 49.16 68.49 C 53.13 66.69 54.91 62.23 55.59 58.20 C 51.64 59.98 47.25 59.25 43.46 57.48 C 41.38 56.10 39.37 58.78 40.15 60.76 M 65.39 57.68 C 66.94 62.15 66.15 66.93 63.90 71.00 C 64.18 71.51 64.75 72.52 65.04 73.03 C 70.15 73.67 76.44 69.57 75.41 63.90 C 73.49 60.14 69.34 58.40 65.39 57.68 Z" />
</g>
</svg>
