<?xml version="1.0" encoding="UTF-8" ?>
<!DOCTYPE svg PUBLIC "-//W3C//DTD SVG 1.1//EN" "http://www.w3.org/Graphics/SVG/1.1/DTD/svg11.dtd">
<svg width="32px" height="21px" viewBox="0 0 32 21" version="1.1" xmlns="http://www.w3.org/2000/svg">
<g id="#181818ff">
<path fill="#181818" opacity="1.00" d=" M 0.00 0.00 L 14.76 0.00 C 12.09 2.54 8.49 3.59 5.44 5.56 C 3.72 6.71 1.90 7.72 0.00 8.55 L 0.00 0.00 Z" />
<path fill="#181818" opacity="1.00" d=" M 16.82 0.00 L 32.00 0.00 L 32.00 14.68 C 29.34 9.55 24.02 5.56 18.04 5.90 C 18.01 3.86 18.29 1.65 16.82 0.00 Z" />
<path fill="#181818" opacity="1.00" d=" M 0.00 10.54 C 5.67 13.17 10.81 16.94 16.63 19.23 C 18.55 17.54 17.23 14.56 19.13 12.99 C 23.80 13.95 29.82 15.87 31.26 21.00 L 0.00 21.00 L 0.00 10.54 Z" />
</g>
<g id="#f8fcf8ff">
<path fill="#f8fcf8" opacity="1.00" d=" M 14.76 0.00 L 16.82 0.00 C 18.29 1.65 18.01 3.86 18.04 5.90 C 24.02 5.56 29.34 9.55 32.00 14.68 L 32.00 21.00 L 31.26 21.00 C 29.82 15.87 23.80 13.95 19.13 12.99 C 17.23 14.56 18.55 17.54 16.63 19.23 C 10.81 16.94 5.67 13.17 0.00 10.54 L 0.00 8.55 C 1.90 7.72 3.72 6.71 5.44 5.56 C 8.49 3.59 12.09 2.54 14.76 0.00 Z" />
</g>
</svg>
