<?xml version="1.0" encoding="UTF-8" ?>
<!DOCTYPE svg PUBLIC "-//W3C//DTD SVG 1.1//EN" "http://www.w3.org/Graphics/SVG/1.1/DTD/svg11.dtd">
<svg width="117px" height="140px" viewBox="0 0 117 140" version="1.1" xmlns="http://www.w3.org/2000/svg">
<g id="#000000ff">
<path fill="#000000" opacity="1.00" d=" M 0.00 0.00 L 117.00 0.00 L 117.00 140.00 L 0.00 140.00 L 0.00 0.00 M 33.15 10.24 C 17.92 11.79 5.20 25.62 5.03 40.94 C 4.95 59.96 5.02 78.99 5.00 98.02 C 4.92 108.57 10.52 118.93 19.36 124.68 C 24.83 128.35 31.44 130.15 38.01 130.02 C 53.03 129.92 68.05 130.14 83.06 129.91 C 99.00 129.27 112.84 115.01 112.96 99.06 C 113.05 80.04 112.98 61.02 113.00 42.00 C 113.10 31.20 107.21 20.61 98.04 14.93 C 92.41 11.31 85.65 9.75 79.00 9.97 C 63.72 10.19 48.42 9.66 33.15 10.24 Z" />
<path fill="#000000" opacity="1.00" d=" M 30.41 12.71 C 34.88 11.75 39.48 12.05 44.02 12.00 C 57.04 12.07 70.06 11.87 83.07 12.10 C 97.93 12.73 110.87 26.08 110.94 40.97 C 111.08 58.32 110.96 75.67 111.00 93.03 C 111.07 98.64 111.06 104.47 108.65 109.67 C 104.29 120.19 93.51 127.78 82.06 127.94 C 68.71 128.08 55.35 127.96 42.00 128.00 C 36.64 128.07 31.09 128.09 26.07 125.95 C 14.84 121.67 6.79 110.12 7.02 98.04 C 7.01 79.01 6.95 59.98 7.04 40.95 C 7.20 27.66 17.46 15.47 30.41 12.71 M 57.02 24.00 C 57.08 29.67 57.09 35.33 57.01 41.00 C 58.61 41.00 60.22 41.00 61.83 41.00 C 61.75 35.33 61.76 29.67 61.82 24.00 C 60.22 24.00 58.62 24.00 57.02 24.00 M 36.37 40.26 C 35.65 49.11 36.13 58.09 36.11 66.99 C 41.74 71.15 48.25 74.09 54.15 77.91 C 56.04 78.87 58.28 81.01 60.43 79.43 C 67.61 75.35 74.81 71.28 81.96 67.13 C 81.92 58.42 82.09 49.69 81.89 40.98 C 76.25 36.64 69.74 33.42 63.73 29.57 C 63.85 30.22 64.10 31.53 64.23 32.19 C 68.33 35.25 72.92 37.66 77.34 40.25 C 71.42 44.22 65.21 47.73 59.16 51.50 C 52.94 47.87 46.49 44.65 40.25 41.06 C 40.25 40.89 40.24 40.56 40.24 40.39 C 44.89 37.33 50.06 35.11 54.65 31.95 C 54.81 31.27 55.14 29.93 55.30 29.25 C 49.00 32.92 42.39 36.15 36.37 40.26 M 50.49 42.10 C 51.22 44.85 54.14 46.47 56.84 46.68 C 60.48 47.15 65.09 46.60 66.96 42.97 C 68.43 40.32 65.47 38.35 63.78 36.87 C 64.02 38.74 64.58 40.54 65.16 42.33 C 61.69 45.54 55.61 45.72 52.44 41.99 C 53.59 40.18 55.17 38.56 55.23 36.28 C 53.24 37.72 50.09 39.12 50.49 42.10 Z" />
<path fill="#000000" opacity="1.00" d=" M 60.25 53.62 C 66.90 49.70 73.35 45.45 80.11 41.72 C 80.18 49.17 80.19 56.62 80.14 64.06 C 80.51 65.63 78.87 66.33 77.84 67.01 C 71.97 70.34 66.07 73.63 60.24 77.04 C 60.23 69.23 60.21 61.42 60.25 53.62 Z" />
<path fill="#000000" opacity="1.00" d=" M 37.89 42.61 C 44.48 46.17 51.13 49.64 57.60 53.40 C 58.02 61.40 57.63 69.44 57.78 77.46 C 51.34 73.48 44.58 70.01 38.27 65.86 C 37.33 58.27 38.12 50.34 37.89 42.61 Z" />
</g>
<g id="#727372ff">
<path fill="#727372" opacity="1.00" d=" M 33.15 10.24 C 48.42 9.66 63.72 10.19 79.00 9.97 C 85.65 9.75 92.41 11.31 98.04 14.93 C 107.21 20.61 113.10 31.20 113.00 42.00 C 112.98 61.02 113.05 80.04 112.96 99.06 C 112.84 115.01 99.00 129.27 83.06 129.91 C 68.05 130.14 53.03 129.92 38.01 130.02 C 31.44 130.15 24.83 128.35 19.36 124.68 C 10.52 118.93 4.92 108.57 5.00 98.02 C 5.02 78.99 4.95 59.96 5.03 40.94 C 5.20 25.62 17.92 11.79 33.15 10.24 M 30.41 12.71 C 17.46 15.47 7.20 27.66 7.04 40.95 C 6.95 59.98 7.01 79.01 7.02 98.04 C 6.79 110.12 14.84 121.67 26.07 125.95 C 31.09 128.09 36.64 128.07 42.00 128.00 C 55.35 127.96 68.71 128.08 82.06 127.94 C 93.51 127.78 104.29 120.19 108.65 109.67 C 111.06 104.47 111.07 98.64 111.00 93.03 C 110.96 75.67 111.08 58.32 110.94 40.97 C 110.87 26.08 97.93 12.73 83.07 12.10 C 70.06 11.87 57.04 12.07 44.02 12.00 C 39.48 12.05 34.88 11.75 30.41 12.71 Z" />
</g>
<g id="#f7fbf7ff">
<path fill="#f7fbf7" opacity="1.00" d=" M 57.02 24.00 C 58.62 24.00 60.22 24.00 61.82 24.00 C 61.76 29.67 61.75 35.33 61.83 41.00 C 60.22 41.00 58.61 41.00 57.01 41.00 C 57.09 35.33 57.08 29.67 57.02 24.00 Z" />
<path fill="#f7fbf7" opacity="1.00" d=" M 36.37 40.26 C 42.39 36.15 49.00 32.92 55.30 29.25 C 55.14 29.93 54.81 31.27 54.65 31.95 C 50.06 35.11 44.89 37.33 40.24 40.39 C 40.24 40.56 40.25 40.89 40.25 41.06 C 46.49 44.65 52.94 47.87 59.16 51.50 C 65.21 47.73 71.42 44.22 77.34 40.25 C 72.92 37.66 68.33 35.25 64.23 32.19 C 64.10 31.53 63.85 30.22 63.73 29.57 C 69.74 33.42 76.25 36.64 81.89 40.98 C 82.09 49.69 81.92 58.42 81.96 67.13 C 74.81 71.28 67.61 75.35 60.43 79.43 C 58.28 81.01 56.04 78.87 54.15 77.91 C 48.25 74.09 41.74 71.15 36.11 66.99 C 36.13 58.09 35.65 49.11 36.37 40.26 M 60.25 53.62 C 60.21 61.42 60.23 69.23 60.24 77.04 C 66.07 73.63 71.97 70.34 77.84 67.01 C 78.87 66.33 80.51 65.63 80.14 64.06 C 80.19 56.62 80.18 49.17 80.11 41.72 C 73.35 45.45 66.90 49.70 60.25 53.62 M 37.89 42.61 C 38.12 50.34 37.33 58.27 38.27 65.86 C 44.58 70.01 51.34 73.48 57.78 77.46 C 57.63 69.44 58.02 61.40 57.60 53.40 C 51.13 49.64 44.48 46.17 37.89 42.61 Z" />
<path fill="#f7fbf7" opacity="1.00" d=" M 50.49 42.10 C 50.09 39.12 53.24 37.72 55.23 36.28 C 55.17 38.56 53.59 40.18 52.44 41.99 C 55.61 45.72 61.69 45.54 65.16 42.33 C 64.58 40.54 64.02 38.74 63.78 36.87 C 65.47 38.35 68.43 40.32 66.96 42.97 C 65.09 46.60 60.48 47.15 56.84 46.68 C 54.14 46.47 51.22 44.85 50.49 42.10 Z" />
</g>
</svg>
