<?xml version="1.0" encoding="UTF-8" ?>
<!DOCTYPE svg PUBLIC "-//W3C//DTD SVG 1.1//EN" "http://www.w3.org/Graphics/SVG/1.1/DTD/svg11.dtd">
<svg width="70px" height="28px" viewBox="0 0 70 28" version="1.1" xmlns="http://www.w3.org/2000/svg">
<g id="#1d1d28ff">
<path fill="#1d1d28" opacity="1.00" d=" M 0.00 0.00 L 2.99 0.00 C 2.14 1.14 1.14 2.15 0.00 3.00 L 0.00 0.00 Z" />
<path fill="#1d1d28" opacity="1.00" d=" M 67.00 0.00 L 70.00 0.00 L 70.00 2.99 C 68.86 2.14 67.85 1.14 67.00 0.00 Z" />
<path fill="#1d1d28" opacity="1.00" d=" M 0.00 25.00 C 1.14 25.85 2.14 26.86 2.99 28.00 L 0.00 28.00 L 0.00 25.00 Z" />
<path fill="#1d1d28" opacity="1.00" d=" M 67.01 28.00 C 67.86 26.86 68.86 25.85 70.00 25.00 L 70.00 28.00 L 67.01 28.00 Z" />
</g>
<g id="#4850f8ff">
<path fill="#4850f8" opacity="1.00" d=" M 2.99 0.00 L 67.00 0.00 C 67.85 1.14 68.86 2.14 70.00 2.99 L 70.00 25.00 C 68.86 25.85 67.86 26.86 67.01 28.00 L 2.99 28.00 C 2.14 26.86 1.14 25.85 0.00 25.00 L 0.00 3.00 C 1.14 2.15 2.14 1.14 2.99 0.00 Z" />
</g>
</svg>
