<?xml version="1.0" encoding="UTF-8" ?>
<!DOCTYPE svg PUBLIC "-//W3C//DTD SVG 1.1//EN" "http://www.w3.org/Graphics/SVG/1.1/DTD/svg11.dtd">
<svg width="70px" height="28px" viewBox="0 0 70 28" version="1.1" xmlns="http://www.w3.org/2000/svg">
<g id="#282b5bff">
<path fill="#282b5b" opacity="1.00" d=" M 0.00 0.00 L 2.92 0.00 C 2.18 1.19 1.19 2.18 0.00 2.92 L 0.00 0.00 Z" />
<path fill="#282b5b" opacity="1.00" d=" M 67.09 0.00 L 70.00 0.00 L 70.00 2.93 C 68.81 2.19 67.82 1.19 67.09 0.00 Z" />
<path fill="#282b5b" opacity="1.00" d=" M 0.00 25.08 C 1.19 25.82 2.18 26.81 2.92 28.00 L 0.00 28.00 L 0.00 25.08 Z" />
<path fill="#282b5b" opacity="1.00" d=" M 67.08 28.00 C 67.82 26.81 68.82 25.82 70.00 25.07 L 70.00 28.00 L 67.08 28.00 Z" />
</g>
<g id="#4850f8ff">
<path fill="#4850f8" opacity="1.00" d=" M 2.92 0.00 L 67.09 0.00 C 67.82 1.19 68.81 2.19 70.00 2.93 L 70.00 25.07 C 68.82 25.82 67.82 26.81 67.08 28.00 L 2.92 28.00 C 2.18 26.81 1.19 25.82 0.00 25.08 L 0.00 2.92 C 1.19 2.18 2.18 1.19 2.92 0.00 Z" />
</g>
</svg>
