<?xml version="1.0" encoding="UTF-8" ?>
<!DOCTYPE svg PUBLIC "-//W3C//DTD SVG 1.1//EN" "http://www.w3.org/Graphics/SVG/1.1/DTD/svg11.dtd">
<svg width="117pt" height="140pt" viewBox="0 0 117 140" version="1.1" xmlns="http://www.w3.org/2000/svg">
<g id="#384450ff">
<path fill="#384450" opacity="1.00" d=" M 0.00 0.00 L 117.00 0.00 L 117.00 140.00 L 0.00 140.00 L 0.00 0.00 M 41.18 53.19 C 37.78 54.90 39.37 60.53 43.09 60.42 C 44.75 60.78 46.13 59.33 46.86 58.02 C 48.64 54.84 44.05 50.80 41.18 53.19 M 55.60 54.56 C 54.08 56.57 55.76 58.73 57.06 60.28 C 57.90 60.34 59.57 60.45 60.41 60.50 C 62.05 59.08 64.01 56.83 62.42 54.62 C 61.21 51.85 56.87 51.82 55.60 54.56 M 72.46 53.35 C 70.23 54.77 70.22 58.11 72.38 59.60 C 74.75 61.92 79.18 59.32 78.69 56.15 C 78.59 53.32 74.60 51.26 72.46 53.35 Z" />
</g>
<g id="#f8fcf8ff">
<path fill="#f8fcf8" opacity="1.00" d=" M 41.18 53.19 C 44.05 50.80 48.64 54.84 46.86 58.02 C 46.13 59.33 44.75 60.78 43.09 60.42 C 39.37 60.53 37.78 54.90 41.18 53.19 Z" />
<path fill="#f8fcf8" opacity="1.00" d=" M 55.60 54.56 C 56.87 51.82 61.21 51.85 62.42 54.62 C 64.01 56.83 62.05 59.08 60.41 60.50 C 59.57 60.45 57.90 60.34 57.06 60.28 C 55.76 58.73 54.08 56.57 55.60 54.56 Z" />
<path fill="#f8fcf8" opacity="1.00" d=" M 72.46 53.35 C 74.60 51.26 78.59 53.32 78.69 56.15 C 79.18 59.32 74.75 61.92 72.38 59.60 C 70.22 58.11 70.23 54.77 72.46 53.35 Z" />
</g>
</svg>
