<?xml version="1.0" encoding="UTF-8" ?>
<!DOCTYPE svg PUBLIC "-//W3C//DTD SVG 1.1//EN" "http://www.w3.org/Graphics/SVG/1.1/DTD/svg11.dtd">
<svg width="117pt" height="140pt" viewBox="0 0 117 140" version="1.1" xmlns="http://www.w3.org/2000/svg">
<g id="#000000ff">
<path fill="#000000" opacity="1.00" d=" M 0.00 0.00 L 117.00 0.00 L 117.00 140.00 L 0.00 140.00 L 0.00 0.00 M 33.19 10.22 C 17.92 11.77 5.17 25.64 5.02 41.00 C 4.98 60.33 4.99 79.66 5.02 98.98 C 5.14 114.94 18.93 129.22 34.87 129.93 C 50.59 130.08 66.33 129.99 82.05 129.97 C 98.36 129.84 112.84 115.38 112.98 99.07 C 112.99 79.36 113.08 59.65 112.93 39.94 C 112.28 24.00 98.02 10.19 82.06 10.02 C 65.77 10.11 49.47 9.73 33.19 10.22 Z" />
<path fill="#000000" opacity="1.00" d=" M 33.21 12.35 C 44.78 11.72 56.40 12.24 67.99 12.07 C 76.66 12.32 85.91 10.90 93.93 15.04 C 104.12 19.78 111.02 30.70 110.90 41.94 C 110.97 59.94 110.90 77.95 110.94 95.95 C 111.09 101.61 110.09 107.40 107.21 112.34 C 102.24 121.83 91.74 127.94 81.07 127.90 C 66.03 127.93 51.00 127.99 35.96 127.87 C 20.76 127.72 7.27 114.28 7.13 99.08 C 7.03 79.69 7.03 60.31 7.13 40.92 C 7.33 26.72 19.08 13.84 33.21 12.35 M 60.19 30.06 C 60.19 33.95 60.15 37.85 60.24 41.74 C 55.29 42.09 51.01 45.61 49.82 50.45 C 45.90 50.52 41.97 50.35 38.05 50.48 C 37.05 50.48 36.49 50.99 36.37 52.01 C 35.32 65.01 48.36 78.08 61.58 74.60 C 61.58 70.59 61.58 66.59 61.56 62.59 C 67.03 61.84 70.72 57.11 71.41 51.85 C 75.70 51.72 80.01 51.95 84.29 51.60 C 79.95 50.82 75.50 51.39 71.12 51.34 C 70.37 46.08 65.91 42.30 60.77 41.58 C 60.78 37.74 60.74 33.91 60.80 30.07 L 60.19 30.06 Z" />
<path fill="#000000" opacity="1.00" d=" M 52.89 45.94 C 55.34 44.36 57.92 42.45 61.05 42.95 C 63.47 42.82 65.38 44.40 67.38 45.49 C 69.64 48.42 70.85 52.41 69.18 55.92 C 66.82 61.95 57.64 63.43 53.45 58.52 C 49.95 55.23 50.39 49.69 52.89 45.94 Z" />
</g>
<g id="#717171ff">
<path fill="#717171" opacity="1.00" d=" M 33.19 10.22 C 49.47 9.73 65.77 10.11 82.06 10.02 C 98.02 10.19 112.28 24.00 112.93 39.94 C 113.08 59.65 112.99 79.36 112.98 99.07 C 112.84 115.38 98.36 129.84 82.05 129.97 C 66.33 129.99 50.59 130.08 34.87 129.93 C 18.93 129.22 5.14 114.94 5.02 98.98 C 4.99 79.66 4.98 60.33 5.02 41.00 C 5.17 25.64 17.92 11.77 33.19 10.22 M 33.21 12.35 C 19.08 13.84 7.33 26.72 7.13 40.92 C 7.03 60.31 7.03 79.69 7.13 99.08 C 7.27 114.28 20.76 127.72 35.96 127.87 C 51.00 127.99 66.03 127.93 81.07 127.90 C 91.74 127.94 102.24 121.83 107.21 112.34 C 110.09 107.40 111.09 101.61 110.94 95.95 C 110.90 77.95 110.97 59.94 110.90 41.94 C 111.02 30.70 104.12 19.78 93.93 15.04 C 85.91 10.90 76.66 12.32 67.99 12.07 C 56.40 12.24 44.78 11.72 33.21 12.35 Z" />
</g>
<g id="#f8fcf8ff">
<path fill="#f8fcf8" opacity="1.00" d=" M 60.19 30.06 L 60.80 30.07 C 60.74 33.91 60.78 37.74 60.77 41.58 C 65.91 42.30 70.37 46.08 71.12 51.34 C 75.50 51.39 79.95 50.82 84.29 51.60 C 80.01 51.95 75.70 51.72 71.41 51.85 C 70.72 57.11 67.03 61.84 61.56 62.59 C 61.58 66.59 61.58 70.59 61.58 74.60 C 48.36 78.08 35.32 65.01 36.37 52.01 C 36.49 50.99 37.05 50.48 38.05 50.48 C 41.97 50.35 45.90 50.52 49.82 50.45 C 51.01 45.61 55.29 42.09 60.24 41.74 C 60.15 37.85 60.19 33.95 60.19 30.06 M 52.89 45.94 C 50.39 49.69 49.95 55.23 53.45 58.52 C 57.64 63.43 66.82 61.95 69.18 55.92 C 70.85 52.41 69.64 48.42 67.38 45.49 C 65.38 44.40 63.47 42.82 61.05 42.95 C 57.92 42.45 55.34 44.36 52.89 45.94 Z" />
</g>
</svg>
