<?xml version="1.0" encoding="UTF-8" ?>
<!DOCTYPE svg PUBLIC "-//W3C//DTD SVG 1.1//EN" "http://www.w3.org/Graphics/SVG/1.1/DTD/svg11.dtd">
<svg width="150pt" height="80pt" viewBox="0 0 150 80" version="1.1" xmlns="http://www.w3.org/2000/svg">
<g id="#000000ff">
<path fill="#000000" opacity="1.00" d=" M 0.00 0.00 L 150.00 0.00 L 150.00 80.00 L 0.00 80.00 L 0.00 0.00 M 6.36 5.46 C 2.84 6.62 0.69 10.34 0.99 13.98 C 0.99 29.64 1.03 45.30 0.98 60.96 C 1.00 63.61 0.81 66.30 1.26 68.93 C 2.11 72.79 6.08 75.35 9.95 75.01 C 51.97 75.01 94.00 74.97 136.02 75.03 C 139.41 74.93 143.35 75.59 146.11 73.13 C 148.26 71.45 149.10 68.66 149.00 66.02 C 149.01 48.67 148.99 31.32 149.01 13.97 C 149.16 11.09 148.03 8.09 145.56 6.46 C 142.80 4.45 139.20 5.09 136.01 4.97 C 96.00 5.03 55.98 5.00 15.97 4.99 C 12.77 5.07 9.49 4.64 6.36 5.46 Z" />
<path fill="#000000" opacity="1.00" d=" M 7.21 7.31 C 10.10 6.75 13.07 7.04 16.00 6.99 C 57.36 7.01 98.72 6.99 140.07 7.00 C 143.51 6.61 147.03 9.24 146.94 12.84 C 147.05 30.93 147.03 49.02 146.95 67.11 C 147.08 70.73 143.50 73.45 140.03 73.00 C 96.33 72.97 52.62 73.06 8.91 72.96 C 5.31 73.09 2.61 69.55 3.00 66.11 C 3.00 48.71 3.00 31.32 3.00 13.92 C 2.78 11.11 4.32 8.03 7.21 7.31 M 43.27 27.60 C 41.25 29.50 39.15 31.32 37.46 33.53 C 36.53 34.27 35.62 35.04 34.70 35.80 C 36.05 37.06 37.40 38.32 38.79 39.55 C 40.14 38.06 41.68 36.76 43.19 35.44 C 44.15 36.39 45.13 37.31 46.10 38.25 C 46.94 37.45 47.78 36.66 48.64 35.88 C 47.72 34.99 46.80 34.11 45.88 33.23 C 47.29 31.07 47.25 28.34 49.58 26.72 C 47.40 26.10 45.33 27.00 43.27 27.60 M 51.45 34.39 C 48.04 37.70 44.58 40.96 41.14 44.23 C 40.48 45.06 39.25 45.69 39.22 46.87 C 38.79 48.56 41.40 49.56 42.46 48.38 C 46.53 44.76 50.34 40.86 54.31 37.14 C 58.75 38.81 64.12 34.18 62.25 29.54 C 60.89 30.73 59.58 31.98 58.26 33.22 C 57.35 32.37 56.46 31.49 55.54 30.64 C 56.83 29.41 58.10 28.16 59.37 26.90 C 54.96 25.00 49.65 29.83 51.45 34.39 M 49.72 42.78 C 51.82 44.92 53.90 47.07 56.03 49.18 C 57.37 47.90 58.71 46.60 60.03 45.29 C 57.82 43.28 55.57 41.31 53.35 39.31 C 52.14 40.47 50.92 41.62 49.72 42.78 Z" />
</g>
<g id="#6e726eff">
<path fill="#6e726e" opacity="1.00" d=" M 6.36 5.46 C 9.49 4.64 12.77 5.07 15.97 4.99 C 55.98 5.00 96.00 5.03 136.01 4.97 C 139.20 5.09 142.80 4.45 145.56 6.46 C 148.03 8.09 149.16 11.09 149.01 13.97 C 148.99 31.32 149.01 48.67 149.00 66.02 C 149.10 68.66 148.26 71.45 146.11 73.13 C 143.35 75.59 139.41 74.93 136.02 75.03 C 94.00 74.97 51.97 75.01 9.95 75.01 C 6.08 75.35 2.11 72.79 1.26 68.93 C 0.81 66.30 1.00 63.61 0.98 60.96 C 1.03 45.30 0.99 29.64 0.99 13.98 C 0.69 10.34 2.84 6.62 6.36 5.46 M 7.21 7.31 C 4.32 8.03 2.78 11.11 3.00 13.92 C 3.00 31.32 3.00 48.71 3.00 66.11 C 2.61 69.55 5.31 73.09 8.91 72.96 C 52.62 73.06 96.33 72.97 140.03 73.00 C 143.50 73.45 147.08 70.73 146.95 67.11 C 147.03 49.02 147.05 30.93 146.94 12.84 C 147.03 9.24 143.51 6.61 140.07 7.00 C 98.72 6.99 57.36 7.01 16.00 6.99 C 13.07 7.04 10.10 6.75 7.21 7.31 Z" />
</g>
<g id="#f8fcf8ff">
<path fill="#f8fcf8" opacity="1.00" d=" M 43.27 27.60 C 45.33 27.00 47.40 26.10 49.58 26.72 C 47.25 28.34 47.29 31.07 45.88 33.23 C 46.80 34.11 47.72 34.99 48.64 35.88 C 47.78 36.66 46.94 37.45 46.10 38.25 C 45.13 37.31 44.15 36.39 43.19 35.44 C 41.68 36.76 40.14 38.06 38.79 39.55 C 37.40 38.32 36.05 37.06 34.70 35.80 C 35.62 35.04 36.53 34.27 37.46 33.53 C 39.15 31.32 41.25 29.50 43.27 27.60 Z" />
<path fill="#f8fcf8" opacity="1.00" d=" M 51.45 34.39 C 49.65 29.83 54.96 25.00 59.37 26.90 C 58.10 28.16 56.83 29.41 55.54 30.64 C 56.46 31.49 57.35 32.37 58.26 33.22 C 59.58 31.98 60.89 30.73 62.25 29.54 C 64.12 34.18 58.75 38.81 54.31 37.14 C 50.34 40.86 46.53 44.76 42.46 48.38 C 41.40 49.56 38.79 48.56 39.22 46.87 C 39.25 45.69 40.48 45.06 41.14 44.23 C 44.58 40.96 48.04 37.70 51.45 34.39 M 40.79 46.22 C 39.11 49.27 44.26 46.46 40.79 46.22 Z" />
<path fill="#f8fcf8" opacity="1.00" d=" M 49.72 42.78 C 50.92 41.62 52.14 40.47 53.35 39.31 C 55.57 41.31 57.82 43.28 60.03 45.29 C 58.71 46.60 57.37 47.90 56.03 49.18 C 53.90 47.07 51.82 44.92 49.72 42.78 Z" />
</g>
<g id="#343634ff">
<path fill="#343634" opacity="1.00" d=" M 40.79 46.22 C 44.26 46.46 39.11 49.27 40.79 46.22 Z" />
</g>
</svg>
