<?xml version="1.0" encoding="UTF-8" ?>
<!DOCTYPE svg PUBLIC "-//W3C//DTD SVG 1.1//EN" "http://www.w3.org/Graphics/SVG/1.1/DTD/svg11.dtd">
<svg width="117pt" height="140pt" viewBox="0 0 117 140" version="1.1" xmlns="http://www.w3.org/2000/svg">
<g id="#000000ff">
<path fill="#000000" opacity="1.00" d=" M 0.00 0.00 L 117.00 0.00 L 117.00 140.00 L 0.00 140.00 L 0.00 0.00 M 33.22 10.22 C 17.97 11.75 5.22 25.57 5.02 40.91 C 4.98 60.29 4.99 79.68 5.02 99.07 C 5.17 115.37 19.61 129.82 35.91 129.97 C 51.65 129.98 67.40 130.10 83.13 129.92 C 99.03 129.23 112.83 114.99 112.97 99.08 C 113.04 80.05 112.98 61.01 113.00 41.98 C 113.06 33.33 109.35 24.77 103.06 18.84 C 96.98 12.96 88.48 9.77 80.05 9.98 C 64.44 10.17 48.81 9.70 33.22 10.22 Z" />
<path fill="#000000" opacity="1.00" d=" M 30.52 12.69 C 34.61 11.78 38.83 12.02 43.00 12.00 C 56.34 12.06 69.69 11.88 83.04 12.09 C 97.91 12.73 110.84 26.07 110.96 40.97 C 111.04 59.96 110.99 78.95 110.99 97.95 C 111.20 109.27 104.20 120.24 93.98 125.04 C 89.67 127.20 84.83 128.05 80.05 128.00 C 65.04 127.95 50.03 128.11 35.02 127.91 C 20.12 127.30 7.15 113.95 7.03 99.03 C 6.98 79.67 6.98 60.30 7.03 40.94 C 7.22 27.62 17.51 15.40 30.52 12.69 M 49.81 27.95 C 49.86 37.55 49.82 47.15 49.84 56.74 C 43.66 61.32 42.62 71.30 48.22 76.73 C 53.03 82.15 62.60 81.53 66.76 75.61 C 71.52 69.96 69.88 61.10 64.16 56.74 C 64.00 47.18 64.49 37.57 63.94 28.06 C 59.38 27.06 54.45 27.45 49.81 27.95 M 68.30 37.14 C 67.93 37.61 67.18 38.55 66.81 39.02 C 67.20 39.53 67.99 40.53 68.38 41.04 C 69.84 40.93 71.39 41.20 72.79 40.65 C 73.76 39.54 73.72 38.44 72.68 37.36 C 71.24 37.05 69.76 37.16 68.30 37.14 M 68.33 44.08 C 67.95 44.55 67.19 45.50 66.81 45.98 C 67.19 46.48 67.96 47.47 68.34 47.97 C 69.81 47.91 71.31 48.10 72.74 47.68 C 73.74 46.58 73.73 45.47 72.74 44.36 C 71.30 43.99 69.79 44.13 68.33 44.08 M 68.34 51.01 C 67.96 51.51 67.19 52.50 66.81 53.00 C 67.19 53.48 67.95 54.44 68.33 54.92 C 70.25 54.76 73.16 55.60 73.64 52.96 C 73.15 50.32 70.26 51.20 68.34 51.01 Z" />
<path fill="#000000" opacity="1.00" d=" M 53.40 31.21 C 55.79 31.27 58.19 31.27 60.58 31.18 C 60.19 40.34 60.56 49.53 60.38 58.70 C 66.58 61.60 67.78 71.23 62.02 75.15 C 57.61 78.43 50.39 76.30 48.84 70.93 C 46.94 66.34 49.33 60.94 53.62 58.69 C 53.43 49.53 53.84 40.36 53.40 31.21 M 55.00 37.00 C 54.88 44.66 55.22 52.31 55.07 59.97 C 53.13 61.70 50.32 63.11 49.94 65.98 C 48.61 71.19 54.56 76.89 59.64 74.49 C 62.21 72.95 64.62 70.28 64.18 67.06 C 64.34 63.68 61.20 61.84 58.93 59.98 C 58.77 52.32 59.12 44.66 59.00 37.00 C 57.67 37.00 56.33 37.00 55.00 37.00 Z" />
</g>
<g id="#717271ff">
<path fill="#717271" opacity="1.00" d=" M 33.22 10.22 C 48.81 9.70 64.44 10.17 80.05 9.98 C 88.48 9.77 96.98 12.96 103.06 18.84 C 109.35 24.77 113.06 33.33 113.00 41.98 C 112.98 61.01 113.04 80.05 112.97 99.08 C 112.83 114.99 99.03 129.23 83.13 129.92 C 67.40 130.10 51.65 129.98 35.91 129.97 C 19.61 129.82 5.17 115.37 5.02 99.07 C 4.99 79.68 4.98 60.29 5.02 40.91 C 5.22 25.57 17.97 11.75 33.22 10.22 M 30.52 12.69 C 17.51 15.40 7.22 27.62 7.03 40.94 C 6.98 60.30 6.98 79.67 7.03 99.03 C 7.15 113.95 20.12 127.30 35.02 127.91 C 50.03 128.11 65.04 127.95 80.05 128.00 C 84.83 128.05 89.67 127.20 93.98 125.04 C 104.20 120.24 111.20 109.27 110.99 97.95 C 110.99 78.95 111.04 59.96 110.96 40.97 C 110.84 26.07 97.91 12.73 83.04 12.09 C 69.69 11.88 56.34 12.06 43.00 12.00 C 38.83 12.02 34.61 11.78 30.52 12.69 Z" />
</g>
<g id="#f8fcf8ff">
<path fill="#f8fcf8" opacity="1.00" d=" M 49.81 27.95 C 54.45 27.45 59.38 27.06 63.94 28.06 C 64.49 37.57 64.00 47.18 64.16 56.74 C 69.88 61.10 71.52 69.96 66.76 75.61 C 62.60 81.53 53.03 82.15 48.22 76.73 C 42.62 71.30 43.66 61.32 49.84 56.74 C 49.82 47.15 49.86 37.55 49.81 27.95 M 53.40 31.21 C 53.84 40.36 53.43 49.53 53.62 58.69 C 49.33 60.94 46.94 66.34 48.84 70.93 C 50.39 76.30 57.61 78.43 62.02 75.15 C 67.78 71.23 66.58 61.60 60.38 58.70 C 60.56 49.53 60.19 40.34 60.58 31.18 C 58.19 31.27 55.79 31.27 53.40 31.21 Z" />
<path fill="#f8fcf8" opacity="1.00" d=" M 55.00 37.00 C 56.33 37.00 57.67 37.00 59.00 37.00 C 59.12 44.66 58.77 52.32 58.93 59.98 C 61.20 61.84 64.34 63.68 64.18 67.06 C 64.62 70.28 62.21 72.95 59.64 74.49 C 54.56 76.89 48.61 71.19 49.94 65.98 C 50.32 63.11 53.13 61.70 55.07 59.97 C 55.22 52.31 54.88 44.66 55.00 37.00 Z" />
<path fill="#f8fcf8" opacity="1.00" d=" M 68.30 37.14 C 69.76 37.16 71.24 37.05 72.68 37.36 C 73.72 38.44 73.76 39.54 72.79 40.65 C 71.39 41.20 69.84 40.93 68.38 41.04 C 67.99 40.53 67.20 39.53 66.81 39.02 C 67.18 38.55 67.93 37.61 68.30 37.14 Z" />
<path fill="#f8fcf8" opacity="1.00" d=" M 68.33 44.08 C 69.79 44.13 71.30 43.99 72.74 44.36 C 73.73 45.47 73.74 46.58 72.74 47.68 C 71.31 48.10 69.81 47.91 68.34 47.97 C 67.96 47.47 67.19 46.48 66.81 45.98 C 67.19 45.50 67.95 44.55 68.33 44.08 Z" />
<path fill="#f8fcf8" opacity="1.00" d=" M 68.34 51.01 C 70.26 51.20 73.15 50.32 73.64 52.96 C 73.16 55.60 70.25 54.76 68.33 54.92 C 67.95 54.44 67.19 53.48 66.81 53.00 C 67.19 52.50 67.96 51.51 68.34 51.01 Z" />
</g>
</svg>
