<?xml version="1.0" encoding="UTF-8" ?>
<!DOCTYPE svg PUBLIC "-//W3C//DTD SVG 1.1//EN" "http://www.w3.org/Graphics/SVG/1.1/DTD/svg11.dtd">
<svg width="117pt" height="140pt" viewBox="0 0 117 140" version="1.1" xmlns="http://www.w3.org/2000/svg">
<g id="#000000ff">
<path fill="#000000" opacity="1.00" d=" M 0.00 0.00 L 117.00 0.00 L 117.00 140.00 L 0.00 140.00 L 0.00 0.00 M 33.17 10.22 C 17.92 11.78 5.19 25.62 5.02 40.97 C 4.98 60.31 4.99 79.66 5.01 99.00 C 5.15 114.97 18.97 129.26 34.93 129.93 C 50.63 130.08 66.34 129.99 82.03 129.98 C 97.98 129.84 112.25 116.03 112.93 100.10 C 113.10 80.74 112.95 61.37 113.01 42.01 C 113.07 33.40 109.40 24.87 103.17 18.95 C 97.08 12.99 88.51 9.75 80.02 9.98 C 64.40 10.17 48.77 9.70 33.17 10.22 Z" />
<path fill="#000000" opacity="1.00" d=" M 33.25 12.35 C 48.47 11.71 63.74 12.26 78.98 12.06 C 85.35 11.88 91.85 13.30 97.19 16.88 C 105.63 22.17 110.99 32.01 110.90 41.97 C 110.97 59.97 110.90 77.98 110.94 95.98 C 111.09 101.63 110.09 107.40 107.22 112.34 C 102.23 121.85 91.69 127.97 80.98 127.91 C 66.32 127.95 51.65 127.94 36.98 127.91 C 26.51 127.97 16.19 122.08 11.10 112.90 C 8.23 108.12 6.96 102.52 7.07 96.97 C 7.11 78.30 7.00 59.63 7.13 40.96 C 7.31 26.73 19.09 13.82 33.25 12.35 M 48.48 39.00 C 50.09 41.11 52.48 41.58 55.00 41.28 C 55.00 43.30 55.00 45.31 55.00 47.33 C 53.03 47.32 51.06 47.33 49.10 47.33 C 49.09 44.89 48.72 42.21 46.43 40.84 C 42.74 44.92 38.75 48.72 34.82 52.56 C 38.76 56.62 42.68 60.70 46.86 64.51 C 47.57 63.63 48.27 62.75 48.99 61.87 C 48.99 60.58 49.00 59.29 49.00 58.00 C 51.00 58.00 53.00 58.00 55.00 58.00 C 55.00 60.00 55.00 62.00 55.00 64.00 C 52.49 63.68 50.13 64.23 48.44 66.20 C 52.30 70.29 56.41 74.11 60.27 78.19 C 64.18 74.22 68.40 70.49 72.00 66.26 C 70.62 64.14 67.97 64.01 65.71 63.90 C 65.71 61.93 65.71 59.97 65.71 58.00 C 67.71 58.00 69.71 58.00 71.71 58.00 C 71.38 60.53 71.90 62.92 74.01 64.53 C 77.96 60.56 81.93 56.61 85.88 52.65 C 81.94 48.73 78.04 44.77 74.07 40.88 C 73.68 41.22 72.90 41.90 72.52 42.24 C 71.99 43.93 71.67 45.66 71.53 47.42 C 69.59 47.34 67.65 47.32 65.71 47.30 C 65.71 45.32 65.72 43.34 65.72 41.36 C 67.46 41.24 69.18 40.96 70.87 40.55 C 71.34 39.77 72.47 38.73 71.20 37.99 C 67.64 34.36 63.97 30.81 60.42 27.15 C 56.35 31.01 52.46 35.05 48.48 39.00 Z" />
<path fill="#000000" opacity="1.00" d=" M 52.84 38.69 C 55.18 35.91 57.82 33.42 60.46 30.92 C 62.89 33.58 65.55 36.03 68.01 38.66 C 66.34 38.62 64.67 38.60 63.00 38.60 C 63.00 42.40 63.00 46.20 63.00 50.00 C 66.81 50.00 70.62 50.00 74.42 50.00 C 74.41 48.33 74.40 46.67 74.40 45.01 C 76.96 47.50 79.44 50.09 82.08 52.51 C 79.66 55.21 77.12 57.80 74.35 60.14 C 74.38 58.55 74.41 56.97 74.46 55.38 C 70.65 55.28 66.84 55.35 63.04 55.30 C 62.98 59.12 62.99 62.93 63.02 66.75 C 64.68 66.74 66.33 66.74 67.99 66.75 C 65.48 69.31 62.90 71.80 60.42 74.40 C 57.85 71.95 55.35 69.42 52.86 66.89 C 54.45 66.70 56.05 66.72 57.65 66.73 C 57.64 62.93 57.65 59.13 57.64 55.33 C 53.86 55.32 50.08 55.33 46.31 55.32 C 46.27 56.97 46.28 58.62 46.25 60.27 C 43.68 57.78 41.21 55.19 38.60 52.73 C 41.12 50.11 43.72 47.56 46.29 44.99 C 46.29 46.65 46.28 48.31 46.27 49.98 C 50.07 50.01 53.87 50.02 57.67 49.96 C 57.63 46.16 57.66 42.37 57.62 38.57 C 56.02 38.62 54.43 38.65 52.84 38.69 Z" />
</g>
<g id="#717171ff">
<path fill="#717171" opacity="1.00" d=" M 33.17 10.22 C 48.77 9.70 64.40 10.17 80.02 9.98 C 88.51 9.75 97.08 12.99 103.17 18.95 C 109.40 24.87 113.07 33.40 113.01 42.01 C 112.95 61.37 113.10 80.74 112.93 100.10 C 112.25 116.03 97.98 129.84 82.03 129.98 C 66.34 129.99 50.63 130.08 34.93 129.93 C 18.97 129.26 5.15 114.97 5.01 99.00 C 4.99 79.66 4.98 60.31 5.02 40.97 C 5.19 25.62 17.92 11.78 33.17 10.22 M 33.25 12.35 C 19.09 13.82 7.31 26.73 7.13 40.96 C 7.00 59.63 7.11 78.30 7.07 96.97 C 6.96 102.52 8.23 108.12 11.10 112.90 C 16.19 122.08 26.51 127.97 36.98 127.91 C 51.65 127.94 66.32 127.95 80.98 127.91 C 91.69 127.97 102.23 121.85 107.22 112.34 C 110.09 107.40 111.09 101.63 110.94 95.98 C 110.90 77.98 110.97 59.97 110.90 41.97 C 110.99 32.01 105.63 22.17 97.19 16.88 C 91.85 13.30 85.35 11.88 78.98 12.06 C 63.74 12.26 48.47 11.71 33.25 12.35 Z" />
</g>
<g id="#f8fcf8ff">
<path fill="#f8fcf8" opacity="1.00" d=" M 48.48 39.00 C 52.46 35.05 56.35 31.01 60.42 27.15 C 63.97 30.81 67.64 34.36 71.20 37.99 C 72.47 38.73 71.34 39.77 70.87 40.55 C 69.18 40.96 67.46 41.24 65.72 41.36 C 65.72 43.34 65.71 45.32 65.71 47.30 C 67.65 47.32 69.59 47.34 71.53 47.42 C 71.67 45.66 71.99 43.93 72.52 42.24 C 72.90 41.90 73.68 41.22 74.07 40.88 C 78.04 44.77 81.94 48.73 85.88 52.65 C 81.93 56.61 77.96 60.56 74.01 64.53 C 71.90 62.92 71.38 60.53 71.71 58.00 C 69.71 58.00 67.71 58.00 65.71 58.00 C 65.71 59.97 65.71 61.93 65.71 63.90 C 67.97 64.01 70.62 64.14 72.00 66.26 C 68.40 70.49 64.18 74.22 60.27 78.19 C 56.41 74.11 52.30 70.29 48.44 66.20 C 50.13 64.23 52.49 63.68 55.00 64.00 C 55.00 62.00 55.00 60.00 55.00 58.00 C 53.00 58.00 51.00 58.00 49.00 58.00 C 49.00 59.29 48.99 60.58 48.99 61.87 C 48.27 62.75 47.57 63.63 46.86 64.51 C 42.68 60.70 38.76 56.62 34.82 52.56 C 38.75 48.72 42.74 44.92 46.43 40.84 C 48.72 42.21 49.09 44.89 49.10 47.33 C 51.06 47.33 53.03 47.32 55.00 47.33 C 55.00 45.31 55.00 43.30 55.00 41.28 C 52.48 41.58 50.09 41.11 48.48 39.00 M 52.84 38.69 C 54.43 38.65 56.02 38.62 57.62 38.57 C 57.66 42.37 57.63 46.16 57.67 49.96 C 53.87 50.02 50.07 50.01 46.27 49.98 C 46.28 48.31 46.29 46.65 46.29 44.99 C 43.72 47.56 41.12 50.11 38.60 52.73 C 41.21 55.19 43.68 57.78 46.25 60.27 C 46.28 58.62 46.27 56.97 46.31 55.32 C 50.08 55.33 53.86 55.32 57.64 55.33 C 57.65 59.13 57.64 62.93 57.65 66.73 C 56.05 66.72 54.45 66.70 52.86 66.89 C 55.35 69.42 57.85 71.95 60.42 74.40 C 62.90 71.80 65.48 69.31 67.99 66.75 C 66.33 66.74 64.68 66.74 63.02 66.75 C 62.99 62.93 62.98 59.12 63.04 55.30 C 66.84 55.35 70.65 55.28 74.46 55.38 C 74.41 56.97 74.38 58.55 74.35 60.14 C 77.12 57.80 79.66 55.21 82.08 52.51 C 79.44 50.09 76.96 47.50 74.40 45.01 C 74.40 46.67 74.41 48.33 74.42 50.00 C 70.62 50.00 66.81 50.00 63.00 50.00 C 63.00 46.20 63.00 42.40 63.00 38.60 C 64.67 38.60 66.34 38.62 68.01 38.66 C 65.55 36.03 62.89 33.58 60.46 30.92 C 57.82 33.42 55.18 35.91 52.84 38.69 Z" />
</g>
</svg>
