<?xml version="1.0" encoding="UTF-8" ?>
<!DOCTYPE svg PUBLIC "-//W3C//DTD SVG 1.1//EN" "http://www.w3.org/Graphics/SVG/1.1/DTD/svg11.dtd">
<svg width="117pt" height="140pt" viewBox="0 0 117 140" version="1.1" xmlns="http://www.w3.org/2000/svg">
<g id="#000000ff">
<path fill="#000000" opacity="1.00" d=" M 0.00 0.00 L 117.00 0.00 L 117.00 140.00 L 0.00 140.00 L 0.00 0.00 M 33.20 10.22 C 17.96 11.76 5.22 25.57 5.02 40.91 C 4.98 60.30 4.99 79.68 5.02 99.07 C 5.25 111.82 14.02 123.80 26.01 128.06 C 32.38 130.61 39.33 129.94 46.03 130.00 C 58.02 129.97 70.01 130.05 82.00 129.97 C 95.51 129.80 108.06 119.97 111.73 107.01 C 113.38 101.81 112.98 96.32 113.00 90.96 C 112.99 74.64 113.00 58.31 113.00 41.99 C 113.07 33.14 109.18 24.39 102.64 18.45 C 96.58 12.79 88.24 9.76 79.97 9.98 C 64.38 10.17 48.78 9.70 33.20 10.22 Z" />
<path fill="#000000" opacity="1.00" d=" M 33.25 12.35 C 48.81 11.72 64.41 12.24 79.98 12.07 C 87.23 11.90 94.46 14.32 100.06 18.94 C 106.82 24.53 110.99 33.19 110.91 41.99 C 110.92 61.00 110.99 80.03 110.87 99.04 C 110.73 113.89 97.90 127.15 83.07 127.80 C 67.70 128.08 52.32 127.88 36.95 127.91 C 26.26 127.97 15.75 121.80 10.77 112.31 C 8.13 107.70 7.00 102.36 7.07 97.08 C 7.11 78.37 6.99 59.66 7.13 40.95 C 7.31 26.73 19.09 13.81 33.25 12.35 M 71.11 38.04 C 70.23 40.95 69.82 43.96 69.96 47.00 C 67.97 47.00 65.99 47.00 64.00 47.00 C 64.00 47.75 64.00 49.25 64.00 50.00 C 65.97 50.00 67.95 50.00 69.93 50.00 C 69.86 52.71 70.37 55.36 71.12 57.95 C 76.25 60.18 79.78 55.19 83.55 52.63 C 86.00 51.18 87.39 47.91 85.66 45.36 C 82.97 42.61 79.73 40.45 76.70 38.10 C 75.00 36.88 72.95 37.85 71.11 38.04 M 42.00 47.00 C 42.00 47.75 42.00 49.25 42.00 50.00 C 45.33 50.00 48.67 50.00 52.00 50.00 C 52.00 49.25 52.00 47.75 52.00 47.00 C 48.67 47.00 45.33 47.00 42.00 47.00 M 53.00 47.00 C 53.00 47.75 53.00 49.25 53.00 50.00 C 53.75 50.00 55.25 50.00 56.00 50.00 C 56.00 49.25 56.00 47.75 56.00 47.00 C 55.25 47.00 53.75 47.00 53.00 47.00 M 57.00 47.00 C 57.00 47.75 57.00 49.25 57.00 50.00 C 59.00 50.00 61.00 50.00 63.00 50.00 C 63.00 49.25 63.00 47.75 63.00 47.00 C 61.00 47.00 59.00 47.00 57.00 47.00 M 57.82 77.35 C 52.38 77.42 46.95 77.39 41.51 77.37 C 41.56 75.67 41.61 73.97 41.65 72.27 C 41.00 72.24 39.71 72.19 39.06 72.17 C 39.05 74.13 38.93 76.11 39.20 78.06 C 39.89 80.15 42.28 79.99 44.06 79.96 C 55.02 79.83 65.99 80.12 76.95 79.81 C 80.06 78.68 78.68 74.65 78.91 72.13 C 78.27 72.17 76.99 72.25 76.35 72.29 C 76.39 73.98 76.44 75.68 76.49 77.37 C 71.06 77.39 65.63 77.42 60.20 77.35 C 60.28 75.25 60.28 73.14 60.12 71.05 C 56.39 70.74 58.02 75.14 57.82 77.35 Z" />
<path fill="#000000" opacity="1.00" d=" M 75.00 41.81 C 77.67 43.87 80.33 45.93 82.99 48.00 C 80.33 50.07 77.67 52.13 75.00 54.19 C 75.00 50.06 75.00 45.94 75.00 41.81 Z" />
</g>
<g id="#717171ff">
<path fill="#717171" opacity="1.00" d=" M 33.20 10.22 C 48.78 9.70 64.38 10.17 79.97 9.98 C 88.24 9.76 96.58 12.79 102.64 18.45 C 109.18 24.39 113.07 33.14 113.00 41.99 C 113.00 58.31 112.99 74.64 113.00 90.96 C 112.98 96.32 113.38 101.81 111.73 107.01 C 108.06 119.97 95.51 129.80 82.00 129.97 C 70.01 130.05 58.02 129.97 46.03 130.00 C 39.33 129.94 32.38 130.61 26.01 128.06 C 14.02 123.80 5.25 111.82 5.02 99.07 C 4.99 79.68 4.98 60.30 5.02 40.91 C 5.22 25.57 17.96 11.76 33.20 10.22 M 33.25 12.35 C 19.09 13.81 7.31 26.73 7.13 40.95 C 6.99 59.66 7.11 78.37 7.07 97.08 C 7.00 102.36 8.13 107.70 10.77 112.31 C 15.75 121.80 26.26 127.97 36.95 127.91 C 52.32 127.88 67.70 128.08 83.07 127.80 C 97.90 127.15 110.73 113.89 110.87 99.04 C 110.99 80.03 110.92 61.00 110.91 41.99 C 110.99 33.19 106.82 24.53 100.06 18.94 C 94.46 14.32 87.23 11.90 79.98 12.07 C 64.41 12.24 48.81 11.72 33.25 12.35 Z" />
</g>
<g id="#f8fcf8ff">
<path fill="#f8fcf8" opacity="1.00" d=" M 71.11 38.04 C 72.95 37.85 75.00 36.88 76.70 38.10 C 79.73 40.45 82.97 42.61 85.66 45.36 C 87.39 47.91 86.00 51.18 83.55 52.63 C 79.78 55.19 76.25 60.18 71.12 57.95 C 70.37 55.36 69.86 52.71 69.93 50.00 C 67.95 50.00 65.97 50.00 64.00 50.00 C 64.00 49.25 64.00 47.75 64.00 47.00 C 65.99 47.00 67.97 47.00 69.96 47.00 C 69.82 43.96 70.23 40.95 71.11 38.04 M 75.00 41.81 C 75.00 45.94 75.00 50.06 75.00 54.19 C 77.67 52.13 80.33 50.07 82.99 48.00 C 80.33 45.93 77.67 43.87 75.00 41.81 Z" />
<path fill="#f8fcf8" opacity="1.00" d=" M 42.00 47.00 C 45.33 47.00 48.67 47.00 52.00 47.00 C 52.00 47.75 52.00 49.25 52.00 50.00 C 48.67 50.00 45.33 50.00 42.00 50.00 C 42.00 49.25 42.00 47.75 42.00 47.00 Z" />
<path fill="#f8fcf8" opacity="1.00" d=" M 53.00 47.00 C 53.75 47.00 55.25 47.00 56.00 47.00 C 56.00 47.75 56.00 49.25 56.00 50.00 C 55.25 50.00 53.75 50.00 53.00 50.00 C 53.00 49.25 53.00 47.75 53.00 47.00 Z" />
<path fill="#f8fcf8" opacity="1.00" d=" M 57.00 47.00 C 59.00 47.00 61.00 47.00 63.00 47.00 C 63.00 47.75 63.00 49.25 63.00 50.00 C 61.00 50.00 59.00 50.00 57.00 50.00 C 57.00 49.25 57.00 47.75 57.00 47.00 Z" />
<path fill="#f8fcf8" opacity="1.00" d=" M 57.82 77.35 C 58.02 75.14 56.39 70.74 60.12 71.05 C 60.28 73.14 60.28 75.25 60.20 77.35 C 65.63 77.42 71.06 77.39 76.49 77.37 C 76.44 75.68 76.39 73.98 76.35 72.29 C 76.99 72.25 78.27 72.17 78.91 72.13 C 78.68 74.65 80.06 78.68 76.95 79.81 C 65.99 80.12 55.02 79.83 44.06 79.96 C 42.28 79.99 39.89 80.15 39.20 78.06 C 38.93 76.11 39.05 74.13 39.06 72.17 C 39.71 72.19 41.00 72.24 41.65 72.27 C 41.61 73.97 41.56 75.67 41.51 77.37 C 46.95 77.39 52.38 77.42 57.82 77.35 Z" />
</g>
</svg>
