<?xml version="1.0" encoding="UTF-8" ?>
<!DOCTYPE svg PUBLIC "-//W3C//DTD SVG 1.1//EN" "http://www.w3.org/Graphics/SVG/1.1/DTD/svg11.dtd">
<svg width="117pt" height="140pt" viewBox="0 0 117 140" version="1.1" xmlns="http://www.w3.org/2000/svg">
<g id="#000000ff">
<path fill="#000000" opacity="1.00" d=" M 0.00 0.00 L 117.00 0.00 L 117.00 140.00 L 0.00 140.00 L 0.00 0.00 M 33.15 10.22 C 17.90 11.80 5.19 25.63 5.01 40.97 C 5.02 60.67 4.94 80.36 5.05 100.05 C 5.75 115.64 19.34 129.25 34.93 129.94 C 50.64 130.07 66.36 129.99 82.08 129.98 C 98.02 129.81 112.26 116.00 112.94 100.07 C 113.09 80.69 112.95 61.31 113.01 41.93 C 113.05 33.32 109.35 24.78 103.09 18.88 C 97.01 12.96 88.48 9.75 80.01 9.98 C 64.39 10.17 48.75 9.70 33.15 10.22 Z" />
<path fill="#000000" opacity="1.00" d=" M 33.18 12.35 C 49.13 11.72 65.12 12.22 81.09 12.09 C 92.30 12.02 103.19 18.84 107.93 29.02 C 110.13 33.32 110.97 38.18 110.93 42.97 C 110.90 61.66 111.00 80.36 110.87 99.05 C 110.73 113.90 97.89 127.16 83.05 127.81 C 67.69 128.07 52.32 127.87 36.96 127.91 C 26.53 127.96 16.25 122.11 11.15 112.99 C 8.25 108.20 6.96 102.57 7.07 96.99 C 7.11 78.31 7.00 59.62 7.13 40.94 C 7.32 26.74 19.06 13.85 33.18 12.35 M 57.39 28.54 C 49.53 36.33 41.80 44.26 33.91 52.03 C 34.15 52.98 34.43 53.91 34.77 54.83 C 37.55 54.54 40.52 55.27 43.19 54.33 C 48.57 49.21 53.68 43.80 58.99 38.61 C 64.31 43.78 69.37 49.22 74.76 54.30 C 77.45 55.30 80.45 54.54 83.26 54.79 C 83.55 53.90 83.83 53.01 84.10 52.11 C 76.43 44.40 68.73 36.72 61.08 29.00 C 60.32 27.84 58.35 27.45 57.39 28.54 M 57.14 43.02 C 52.99 47.27 48.84 51.53 44.69 55.78 C 43.85 56.61 43.05 57.66 43.15 58.92 C 43.11 64.28 43.14 69.65 43.13 75.01 C 42.90 76.28 44.10 77.48 45.33 77.47 C 48.66 77.53 52.02 77.65 55.35 77.39 C 55.62 77.12 56.15 76.57 56.42 76.29 C 56.77 72.80 56.45 69.28 56.53 65.78 C 58.41 65.85 60.29 65.82 62.17 65.83 C 62.17 69.19 62.02 72.56 62.19 75.92 C 63.40 78.51 66.80 77.20 69.02 77.54 C 70.95 77.33 73.92 78.26 74.81 75.87 C 74.98 70.90 74.79 65.91 74.89 60.94 C 74.85 59.39 75.11 57.56 73.83 56.39 C 69.54 51.88 65.15 47.45 60.80 42.99 C 59.95 41.84 57.97 41.84 57.14 43.02 Z" />
<path fill="#000000" opacity="1.00" d=" M 38.10 51.86 C 45.26 45.15 52.00 38.00 58.98 31.11 C 66.00 37.95 72.64 45.19 79.87 51.80 C 78.72 51.79 77.56 51.79 76.41 51.80 C 71.29 46.50 66.01 41.34 60.81 36.11 C 59.96 35.01 58.10 34.92 57.24 36.03 C 52.02 41.29 46.73 46.47 41.59 51.80 C 40.72 51.81 38.97 51.84 38.10 51.86 Z" />
<path fill="#000000" opacity="1.00" d=" M 46.36 58.45 C 50.55 54.10 54.81 49.83 58.98 45.46 C 63.18 50.00 67.82 54.20 71.82 58.88 C 71.96 64.09 71.80 69.31 71.88 74.53 C 69.63 74.48 67.37 74.48 65.12 74.53 C 65.03 70.78 65.48 66.98 64.71 63.27 C 61.32 62.80 57.57 62.32 54.30 63.33 C 52.80 66.86 53.75 70.92 53.70 74.67 C 51.18 74.39 48.65 74.45 46.13 74.55 C 46.31 69.20 45.80 63.76 46.36 58.45 Z" />
</g>
<g id="#717171ff">
<path fill="#717171" opacity="1.00" d=" M 33.15 10.22 C 48.75 9.70 64.39 10.17 80.01 9.98 C 88.48 9.75 97.01 12.96 103.09 18.88 C 109.35 24.78 113.05 33.32 113.01 41.93 C 112.95 61.31 113.09 80.69 112.94 100.07 C 112.26 116.00 98.02 129.81 82.08 129.98 C 66.36 129.99 50.64 130.07 34.93 129.94 C 19.34 129.25 5.75 115.64 5.05 100.05 C 4.94 80.36 5.02 60.67 5.01 40.97 C 5.19 25.63 17.90 11.80 33.15 10.22 M 33.18 12.35 C 19.06 13.85 7.32 26.74 7.13 40.94 C 7.00 59.62 7.11 78.31 7.07 96.99 C 6.96 102.57 8.25 108.20 11.15 112.99 C 16.25 122.11 26.53 127.96 36.96 127.91 C 52.32 127.87 67.69 128.07 83.05 127.81 C 97.89 127.16 110.73 113.90 110.87 99.05 C 111.00 80.36 110.90 61.66 110.93 42.97 C 110.97 38.18 110.13 33.32 107.93 29.02 C 103.19 18.84 92.30 12.02 81.09 12.09 C 65.12 12.22 49.13 11.72 33.18 12.35 Z" />
</g>
<g id="#f8fcf8ff">
<path fill="#f8fcf8" opacity="1.00" d=" M 57.39 28.54 C 58.35 27.45 60.32 27.84 61.08 29.00 C 68.73 36.72 76.43 44.40 84.10 52.11 C 83.83 53.01 83.55 53.90 83.26 54.79 C 80.45 54.54 77.45 55.30 74.76 54.30 C 69.37 49.22 64.31 43.78 58.99 38.61 C 53.68 43.80 48.57 49.21 43.19 54.33 C 40.52 55.27 37.55 54.54 34.77 54.83 C 34.43 53.91 34.15 52.98 33.91 52.03 C 41.80 44.26 49.53 36.33 57.39 28.54 M 38.10 51.86 C 38.97 51.84 40.72 51.81 41.59 51.80 C 46.73 46.47 52.02 41.29 57.24 36.03 C 58.10 34.92 59.96 35.01 60.81 36.11 C 66.01 41.34 71.29 46.50 76.41 51.80 C 77.56 51.79 78.72 51.79 79.87 51.80 C 72.64 45.19 66.00 37.95 58.98 31.11 C 52.00 38.00 45.26 45.15 38.10 51.86 Z" />
<path fill="#f8fcf8" opacity="1.00" d=" M 57.14 43.02 C 57.97 41.84 59.95 41.84 60.80 42.99 C 65.15 47.45 69.54 51.88 73.83 56.39 C 75.11 57.56 74.85 59.39 74.89 60.94 C 74.79 65.91 74.98 70.90 74.81 75.87 C 73.92 78.26 70.95 77.33 69.02 77.54 C 66.80 77.20 63.40 78.51 62.19 75.92 C 62.02 72.56 62.17 69.19 62.17 65.83 C 60.29 65.82 58.41 65.85 56.53 65.78 C 56.45 69.28 56.77 72.80 56.42 76.29 C 56.15 76.57 55.62 77.12 55.35 77.39 C 52.02 77.65 48.66 77.53 45.33 77.47 C 44.10 77.48 42.90 76.28 43.13 75.01 C 43.14 69.65 43.11 64.28 43.15 58.92 C 43.05 57.66 43.85 56.61 44.69 55.78 C 48.84 51.53 52.99 47.27 57.14 43.02 M 46.36 58.45 C 45.80 63.76 46.31 69.20 46.13 74.55 C 48.65 74.45 51.18 74.39 53.70 74.67 C 53.75 70.92 52.80 66.86 54.30 63.33 C 57.57 62.32 61.32 62.80 64.71 63.27 C 65.48 66.98 65.03 70.78 65.12 74.53 C 67.37 74.48 69.63 74.48 71.88 74.53 C 71.80 69.31 71.96 64.09 71.82 58.88 C 67.82 54.20 63.18 50.00 58.98 45.46 C 54.81 49.83 50.55 54.10 46.36 58.45 Z" />
</g>
</svg>
