<?xml version="1.0" encoding="UTF-8" ?>
<!DOCTYPE svg PUBLIC "-//W3C//DTD SVG 1.1//EN" "http://www.w3.org/Graphics/SVG/1.1/DTD/svg11.dtd">
<svg width="117pt" height="140pt" viewBox="0 0 117 140" version="1.1" xmlns="http://www.w3.org/2000/svg">
<g id="#000000ff">
<path fill="#000000" opacity="1.00" d=" M 0.00 0.00 L 117.00 0.00 L 117.00 140.00 L 0.00 140.00 L 0.00 0.00 M 33.22 10.22 C 17.95 11.75 5.18 25.61 5.02 40.98 C 4.96 59.99 5.02 79.01 5.00 98.02 C 4.92 108.32 10.25 118.44 18.73 124.26 C 24.33 128.21 31.21 130.18 38.05 130.02 C 53.05 129.92 68.05 130.13 83.05 129.92 C 98.98 129.28 112.82 115.04 112.97 99.09 C 113.05 80.06 112.98 61.02 113.00 41.98 C 113.10 31.17 107.20 20.58 98.01 14.91 C 92.39 11.31 85.63 9.74 78.99 9.97 C 63.74 10.18 48.46 9.68 33.22 10.22 Z" />
<path fill="#000000" opacity="1.00" d=" M 30.44 12.71 C 34.90 11.73 39.48 12.05 44.01 12.00 C 57.03 12.06 70.05 11.87 83.07 12.10 C 97.90 12.74 110.82 26.04 110.94 40.90 C 111.07 59.28 110.96 77.66 111.00 96.04 C 111.10 101.18 110.40 106.44 108.01 111.05 C 103.34 120.88 92.96 127.78 82.03 127.94 C 67.35 128.08 52.66 127.96 37.98 128.00 C 21.64 128.94 6.53 114.41 7.01 98.02 C 7.01 79.01 6.95 60.00 7.04 41.00 C 7.18 27.67 17.46 15.45 30.44 12.71 M 41.34 47.15 C 43.38 47.91 45.42 48.64 47.48 49.34 C 48.23 47.70 48.93 46.03 49.69 44.39 C 49.53 47.56 50.82 50.47 51.88 53.37 C 53.65 52.70 55.43 52.01 57.19 51.31 C 56.69 49.14 56.35 46.94 56.14 44.72 C 57.49 45.76 58.83 46.82 60.26 47.75 C 59.60 47.63 58.27 47.38 57.60 47.25 C 57.57 49.17 57.56 51.08 57.57 52.99 C 60.90 53.00 64.24 53.00 67.58 53.00 C 67.55 56.66 67.67 60.32 67.55 63.98 C 67.55 65.17 66.94 66.03 65.74 66.55 C 65.52 62.42 65.63 58.29 65.64 54.16 C 61.15 54.18 56.66 54.16 52.17 54.17 C 52.16 59.12 52.17 64.06 52.16 69.00 C 56.18 69.00 60.19 69.00 64.20 69.00 C 64.65 70.23 65.11 71.47 65.55 72.70 C 68.31 72.46 72.76 73.26 73.77 69.82 C 74.30 62.33 73.88 54.79 73.97 47.28 C 73.12 47.38 72.27 47.49 71.42 47.59 C 71.67 47.02 72.18 45.87 72.44 45.29 C 73.23 45.34 74.81 45.43 75.60 45.48 C 75.61 43.44 75.62 41.41 75.64 39.37 C 73.02 39.39 70.40 39.40 67.78 39.33 C 65.63 38.06 63.07 37.98 60.68 37.44 C 59.99 39.23 59.77 41.36 58.32 42.74 C 58.59 41.94 59.14 40.35 59.42 39.55 C 54.58 39.99 50.07 38.52 45.47 37.36 C 44.22 40.67 43.10 44.06 41.34 47.15 M 44.16 49.58 C 44.17 57.19 44.17 64.81 44.16 72.42 C 46.31 72.42 48.46 72.42 50.61 72.42 C 50.56 64.82 50.75 57.22 50.50 49.63 C 48.39 49.60 46.27 49.59 44.16 49.58 Z" />
<path fill="#000000" opacity="1.00" d=" M 63.52 47.08 C 62.87 44.77 67.10 44.71 66.38 47.05 C 65.42 48.18 64.47 48.19 63.52 47.08 Z" />
<path fill="#000000" opacity="1.00" d=" M 57.27 58.91 C 57.33 57.34 60.04 57.16 60.47 58.61 C 60.32 60.01 57.79 60.07 57.27 58.91 Z" />
<path fill="#000000" opacity="1.00" d=" M 57.27 64.22 C 57.70 62.93 60.30 63.04 60.44 64.47 C 60.03 65.85 57.35 65.74 57.27 64.22 Z" />
</g>
<g id="#727272ff">
<path fill="#727272" opacity="1.00" d=" M 33.22 10.22 C 48.46 9.68 63.74 10.18 78.99 9.97 C 85.63 9.74 92.39 11.31 98.01 14.91 C 107.20 20.58 113.10 31.17 113.00 41.98 C 112.98 61.02 113.05 80.06 112.97 99.09 C 112.82 115.04 98.98 129.28 83.05 129.92 C 68.05 130.13 53.05 129.92 38.05 130.02 C 31.21 130.18 24.33 128.21 18.73 124.26 C 10.25 118.44 4.92 108.32 5.00 98.02 C 5.02 79.01 4.96 59.99 5.02 40.98 C 5.18 25.61 17.95 11.75 33.22 10.22 M 30.44 12.71 C 17.46 15.45 7.18 27.67 7.04 41.00 C 6.95 60.00 7.01 79.01 7.01 98.02 C 6.53 114.41 21.64 128.94 37.98 128.00 C 52.66 127.96 67.35 128.08 82.03 127.94 C 92.96 127.78 103.34 120.88 108.01 111.05 C 110.40 106.44 111.10 101.18 111.00 96.04 C 110.96 77.66 111.07 59.28 110.94 40.90 C 110.82 26.04 97.90 12.74 83.07 12.10 C 70.05 11.87 57.03 12.06 44.01 12.00 C 39.48 12.05 34.90 11.73 30.44 12.71 Z" />
</g>
<g id="#f8fcf8ff">
<path fill="#f8fcf8" opacity="1.00" d=" M 41.34 47.15 C 43.10 44.06 44.22 40.67 45.47 37.36 C 50.07 38.52 54.58 39.99 59.42 39.55 C 59.14 40.35 58.59 41.94 58.32 42.74 C 59.77 41.36 59.99 39.23 60.68 37.44 C 63.07 37.98 65.63 38.06 67.78 39.33 C 70.40 39.40 73.02 39.39 75.64 39.37 C 75.62 41.41 75.61 43.44 75.60 45.48 C 74.81 45.43 73.23 45.34 72.44 45.29 C 72.18 45.87 71.67 47.02 71.42 47.59 C 72.27 47.49 73.12 47.38 73.97 47.28 C 73.88 54.79 74.30 62.33 73.77 69.82 C 72.76 73.26 68.31 72.46 65.55 72.70 C 65.11 71.47 64.65 70.23 64.20 69.00 C 60.19 69.00 56.18 69.00 52.16 69.00 C 52.17 64.06 52.16 59.12 52.17 54.17 C 56.66 54.16 61.15 54.18 65.64 54.16 C 65.63 58.29 65.52 62.42 65.74 66.55 C 66.94 66.03 67.55 65.17 67.55 63.98 C 67.67 60.32 67.55 56.66 67.58 53.00 C 64.24 53.00 60.90 53.00 57.57 52.99 C 57.56 51.08 57.57 49.17 57.60 47.25 C 58.27 47.38 59.60 47.63 60.26 47.75 C 58.83 46.82 57.49 45.76 56.14 44.72 C 56.35 46.94 56.69 49.14 57.19 51.31 C 55.43 52.01 53.65 52.70 51.88 53.37 C 50.82 50.47 49.53 47.56 49.69 44.39 C 48.93 46.03 48.23 47.70 47.48 49.34 C 45.42 48.64 43.38 47.91 41.34 47.15 M 63.52 47.08 C 64.47 48.19 65.42 48.18 66.38 47.05 C 67.10 44.71 62.87 44.77 63.52 47.08 M 57.27 58.91 C 57.79 60.07 60.32 60.01 60.47 58.61 C 60.04 57.16 57.33 57.34 57.27 58.91 M 57.27 64.22 C 57.35 65.74 60.03 65.85 60.44 64.47 C 60.30 63.04 57.70 62.93 57.27 64.22 Z" />
<path fill="#f8fcf8" opacity="1.00" d=" M 44.16 49.58 C 46.27 49.59 48.39 49.60 50.50 49.63 C 50.75 57.22 50.56 64.82 50.61 72.42 C 48.46 72.42 46.31 72.42 44.16 72.42 C 44.17 64.81 44.17 57.19 44.16 49.58 Z" />
</g>
</svg>
