<?xml version="1.0" encoding="UTF-8" ?>
<!DOCTYPE svg PUBLIC "-//W3C//DTD SVG 1.1//EN" "http://www.w3.org/Graphics/SVG/1.1/DTD/svg11.dtd">
<svg width="117pt" height="140pt" viewBox="0 0 117 140" version="1.1" xmlns="http://www.w3.org/2000/svg">
<g id="#000000ff">
<path fill="#000000" opacity="1.00" d=" M 0.00 0.00 L 117.00 0.00 L 117.00 140.00 L 0.00 140.00 L 0.00 0.00 M 33.15 10.21 C 17.91 11.79 5.18 25.62 5.01 40.97 C 5.02 60.66 4.93 80.35 5.06 100.03 C 5.72 115.65 19.37 129.29 34.99 129.94 C 51.00 130.03 67.03 130.06 83.04 129.93 C 98.99 129.28 112.84 115.04 112.98 99.07 C 113.04 80.04 112.98 61.02 113.00 41.99 C 113.11 31.68 107.75 21.57 99.27 15.74 C 93.67 11.81 86.80 9.79 79.97 9.98 C 64.36 10.17 48.74 9.70 33.15 10.21 Z" />
<path fill="#000000" opacity="1.00" d=" M 33.22 12.24 C 49.50 11.72 65.81 12.09 82.10 12.04 C 97.33 12.22 110.85 25.75 110.97 40.99 C 111.02 60.33 111.02 79.67 110.97 99.01 C 110.87 114.26 97.29 127.84 82.04 127.95 C 66.69 128.04 51.35 128.01 36.01 127.97 C 20.75 127.84 7.19 114.31 7.02 99.06 C 6.98 79.72 6.99 60.37 7.02 41.03 C 7.18 26.72 19.02 13.79 33.22 12.24 M 50.46 34.33 C 45.65 34.36 40.85 34.28 36.04 34.33 C 34.06 34.27 31.71 35.64 31.98 37.90 C 31.95 49.27 31.96 60.64 31.97 72.01 C 31.74 74.20 33.56 76.18 35.79 75.97 C 50.57 76.03 65.35 76.01 80.12 75.98 C 82.36 76.20 84.25 74.29 84.03 72.06 C 84.04 60.67 84.05 49.27 84.02 37.87 C 84.28 35.63 81.95 34.28 79.98 34.33 C 75.15 34.28 70.32 34.36 65.48 34.33 C 65.53 32.92 65.57 31.52 65.62 30.11 C 60.58 29.86 55.55 30.09 50.51 29.96 C 50.53 31.42 50.48 32.87 50.46 34.33 Z" />
<path fill="#000000" opacity="1.00" d=" M 52.25 32.13 C 56.09 31.87 59.98 31.72 63.80 32.21 C 63.72 32.74 63.55 33.81 63.47 34.34 C 59.81 34.32 56.16 34.32 52.50 34.34 C 52.44 33.78 52.31 32.68 52.25 32.13 Z" />
<path fill="#000000" opacity="1.00" d=" M 35.00 37.55 C 50.33 37.55 65.67 37.55 81.00 37.55 C 81.00 43.01 81.00 48.48 81.00 53.94 C 75.84 53.93 70.68 53.94 65.53 53.93 C 65.52 52.47 65.51 51.01 65.51 49.55 C 60.50 49.54 55.50 49.55 50.49 49.55 C 50.49 51.01 50.48 52.47 50.47 53.94 C 45.31 53.94 40.16 53.93 35.00 53.94 C 35.00 48.47 35.00 43.01 35.00 37.55 Z" />
<path fill="#000000" opacity="1.00" d=" M 52.42 58.33 C 52.42 56.07 52.42 53.80 52.43 51.54 C 56.14 51.55 59.86 51.55 63.58 51.54 C 63.58 53.81 63.58 56.07 63.57 58.33 C 59.86 58.32 56.14 58.32 52.42 58.33 Z" />
<path fill="#000000" opacity="1.00" d=" M 35.00 55.87 C 40.16 55.87 45.32 55.87 50.47 55.87 C 50.48 57.33 50.49 58.80 50.49 60.26 C 55.49 60.26 60.50 60.26 65.50 60.27 C 65.51 58.80 65.51 57.34 65.53 55.87 C 70.69 55.87 75.84 55.87 81.00 55.87 C 81.00 61.58 81.00 67.29 81.00 73.00 C 65.67 73.00 50.33 73.00 35.00 73.00 C 35.00 67.29 35.00 61.58 35.00 55.87 Z" />
</g>
<g id="#6a6e6aff">
<path fill="#6a6e6a" opacity="1.00" d=" M 33.15 10.21 C 48.74 9.70 64.36 10.17 79.97 9.98 C 86.80 9.79 93.67 11.81 99.27 15.74 C 107.75 21.57 113.11 31.68 113.00 41.99 C 112.98 61.02 113.04 80.04 112.98 99.07 C 112.84 115.04 98.99 129.28 83.04 129.93 C 67.03 130.06 51.00 130.03 34.99 129.94 C 19.37 129.29 5.72 115.65 5.06 100.03 C 4.93 80.35 5.02 60.66 5.01 40.97 C 5.18 25.62 17.91 11.79 33.15 10.21 M 33.22 12.24 C 19.02 13.79 7.18 26.72 7.02 41.03 C 6.99 60.37 6.98 79.72 7.02 99.06 C 7.19 114.31 20.75 127.84 36.01 127.97 C 51.35 128.01 66.69 128.04 82.04 127.95 C 97.29 127.84 110.87 114.26 110.97 99.01 C 111.02 79.67 111.02 60.33 110.97 40.99 C 110.85 25.75 97.33 12.22 82.10 12.04 C 65.81 12.09 49.50 11.72 33.22 12.24 Z" />
</g>
<g id="#f8fcf8ff">
<path fill="#f8fcf8" opacity="1.00" d=" M 50.46 34.33 C 50.48 32.87 50.53 31.42 50.51 29.96 C 55.55 30.09 60.58 29.86 65.62 30.11 C 65.57 31.52 65.53 32.92 65.48 34.33 C 70.32 34.36 75.15 34.28 79.98 34.33 C 81.95 34.28 84.28 35.63 84.02 37.87 C 84.05 49.27 84.04 60.67 84.03 72.06 C 84.25 74.29 82.36 76.20 80.12 75.98 C 65.35 76.01 50.57 76.03 35.79 75.97 C 33.56 76.18 31.74 74.20 31.97 72.01 C 31.96 60.64 31.95 49.27 31.98 37.90 C 31.71 35.64 34.06 34.27 36.04 34.33 C 40.85 34.28 45.65 34.36 50.46 34.33 M 52.25 32.13 C 52.31 32.68 52.44 33.78 52.50 34.34 C 56.16 34.32 59.81 34.32 63.47 34.34 C 63.55 33.81 63.72 32.74 63.80 32.21 C 59.98 31.72 56.09 31.87 52.25 32.13 M 35.00 37.55 C 35.00 43.01 35.00 48.47 35.00 53.94 C 40.16 53.93 45.31 53.94 50.47 53.94 C 50.48 52.47 50.49 51.01 50.49 49.55 C 55.50 49.55 60.50 49.54 65.51 49.55 C 65.51 51.01 65.52 52.47 65.53 53.93 C 70.68 53.94 75.84 53.93 81.00 53.94 C 81.00 48.48 81.00 43.01 81.00 37.55 C 65.67 37.55 50.33 37.55 35.00 37.55 M 52.42 58.33 C 56.14 58.32 59.86 58.32 63.57 58.33 C 63.58 56.07 63.58 53.81 63.58 51.54 C 59.86 51.55 56.14 51.55 52.43 51.54 C 52.42 53.80 52.42 56.07 52.42 58.33 M 35.00 55.87 C 35.00 61.58 35.00 67.29 35.00 73.00 C 50.33 73.00 65.67 73.00 81.00 73.00 C 81.00 67.29 81.00 61.58 81.00 55.87 C 75.84 55.87 70.69 55.87 65.53 55.87 C 65.51 57.34 65.51 58.80 65.50 60.27 C 60.50 60.26 55.49 60.26 50.49 60.26 C 50.49 58.80 50.48 57.33 50.47 55.87 C 45.32 55.87 40.16 55.87 35.00 55.87 Z" />
</g>
</svg>
