<?xml version="1.0" encoding="UTF-8" ?>
<!DOCTYPE svg PUBLIC "-//W3C//DTD SVG 1.1//EN" "http://www.w3.org/Graphics/SVG/1.1/DTD/svg11.dtd">
<svg width="117pt" height="140pt" viewBox="0 0 117 140" version="1.1" xmlns="http://www.w3.org/2000/svg">
<g id="#000000ff">
<path fill="#000000" opacity="1.00" d=" M 0.00 0.00 L 117.00 0.00 L 117.00 140.00 L 0.00 140.00 L 0.00 0.00 M 33.07 10.23 C 17.86 11.84 5.17 25.67 5.02 40.99 C 4.99 60.35 4.98 79.72 5.02 99.08 C 5.19 115.03 19.01 129.27 34.94 129.93 C 50.64 130.08 66.35 129.99 82.05 129.97 C 98.40 129.85 112.90 115.31 112.98 98.96 C 113.01 79.62 113.02 60.27 112.98 40.92 C 112.84 24.60 98.36 10.17 82.05 10.02 C 65.73 10.12 49.38 9.71 33.07 10.23 Z" />
<path fill="#000000" opacity="1.00" d=" M 33.19 12.35 C 48.46 11.70 63.76 12.26 79.04 12.06 C 85.37 11.89 91.83 13.30 97.15 16.85 C 105.63 22.15 111.00 32.03 110.91 42.02 C 110.92 61.02 111.00 80.02 110.87 99.02 C 110.74 113.89 97.88 127.18 83.03 127.81 C 67.32 128.05 51.60 127.93 35.88 127.87 C 20.70 127.68 7.26 114.23 7.13 99.04 C 7.03 79.68 7.03 60.31 7.13 40.95 C 7.31 26.75 19.06 13.85 33.19 12.35 M 46.05 28.20 C 46.10 34.03 46.15 39.86 46.04 45.69 C 43.72 45.68 41.40 45.68 39.08 45.71 C 39.48 50.53 38.64 55.46 39.54 60.20 C 42.14 62.84 46.20 61.30 49.46 61.61 C 52.48 64.44 55.35 67.43 58.36 70.27 C 54.69 70.36 51.02 70.31 47.35 70.34 C 47.38 72.89 47.40 75.45 47.34 78.00 C 55.56 77.81 63.81 78.40 71.99 77.68 C 71.75 77.22 71.25 76.30 71.00 75.84 C 64.66 75.44 58.28 75.81 51.93 75.68 C 50.02 76.16 49.73 74.59 50.00 73.08 C 53.59 73.04 57.18 73.06 60.76 72.91 C 60.83 72.21 60.97 70.80 61.04 70.10 C 63.60 67.29 66.33 64.62 69.13 62.05 C 72.33 60.64 77.41 63.41 79.63 59.74 C 80.15 55.09 79.62 50.38 79.93 45.71 C 77.61 45.68 75.29 45.68 72.97 45.70 C 72.84 39.87 72.90 34.04 72.96 28.21 C 63.99 28.14 55.02 28.15 46.05 28.20 Z" />
<path fill="#000000" opacity="1.00" d=" M 48.78 30.96 C 55.94 31.09 63.09 30.89 70.25 31.04 C 70.22 36.78 70.37 42.53 70.15 48.27 C 72.41 48.31 74.68 48.33 76.95 48.34 C 76.93 51.86 76.92 55.39 76.96 58.91 C 65.33 59.09 53.69 59.05 42.06 58.92 C 42.07 55.39 42.06 51.86 42.06 48.33 C 48.78 48.29 55.50 48.34 62.22 48.32 C 62.22 47.66 62.22 46.34 62.22 45.68 C 57.70 45.66 53.19 45.72 48.67 45.64 C 48.72 43.85 48.75 42.07 48.80 40.28 C 53.27 40.35 57.75 40.32 62.22 40.32 C 62.22 39.66 62.22 38.34 62.22 37.68 C 57.70 37.66 53.19 37.74 48.68 37.62 C 48.73 35.40 48.75 33.18 48.78 30.96 Z" />
<path fill="#000000" opacity="1.00" d=" M 53.20 61.70 C 57.39 61.66 61.58 61.66 65.78 61.69 C 63.66 63.72 61.56 65.76 59.48 67.82 C 57.43 65.73 55.33 63.70 53.20 61.70 Z" />
</g>
<g id="#717171ff">
<path fill="#717171" opacity="1.00" d=" M 33.07 10.23 C 49.38 9.71 65.73 10.12 82.05 10.02 C 98.36 10.17 112.84 24.60 112.98 40.92 C 113.02 60.27 113.01 79.62 112.98 98.96 C 112.90 115.31 98.40 129.85 82.05 129.97 C 66.35 129.99 50.64 130.08 34.94 129.93 C 19.01 129.27 5.19 115.03 5.02 99.08 C 4.98 79.72 4.99 60.35 5.02 40.99 C 5.17 25.67 17.86 11.84 33.07 10.23 M 33.19 12.35 C 19.06 13.85 7.31 26.75 7.13 40.95 C 7.03 60.31 7.03 79.68 7.13 99.04 C 7.26 114.23 20.70 127.68 35.88 127.87 C 51.60 127.93 67.32 128.05 83.03 127.81 C 97.88 127.18 110.74 113.89 110.87 99.02 C 111.00 80.02 110.92 61.02 110.91 42.02 C 111.00 32.03 105.63 22.15 97.15 16.85 C 91.83 13.30 85.37 11.89 79.04 12.06 C 63.76 12.26 48.46 11.70 33.19 12.35 Z" />
</g>
<g id="#f8fcf8ff">
<path fill="#f8fcf8" opacity="1.00" d=" M 46.05 28.20 C 55.02 28.15 63.99 28.14 72.96 28.21 C 72.90 34.04 72.84 39.87 72.97 45.70 C 75.29 45.68 77.61 45.68 79.93 45.71 C 79.62 50.38 80.15 55.09 79.63 59.74 C 77.41 63.41 72.33 60.64 69.13 62.05 C 66.33 64.62 63.60 67.29 61.04 70.10 C 60.97 70.80 60.83 72.21 60.76 72.91 C 57.18 73.06 53.59 73.04 50.00 73.08 C 49.73 74.59 50.02 76.16 51.93 75.68 C 58.28 75.81 64.66 75.44 71.00 75.84 C 71.25 76.30 71.75 77.22 71.99 77.68 C 63.81 78.40 55.56 77.81 47.34 78.00 C 47.40 75.45 47.38 72.89 47.35 70.34 C 51.02 70.31 54.69 70.36 58.36 70.27 C 55.35 67.43 52.48 64.44 49.46 61.61 C 46.20 61.30 42.14 62.84 39.54 60.20 C 38.64 55.46 39.48 50.53 39.08 45.71 C 41.40 45.68 43.72 45.68 46.04 45.69 C 46.15 39.86 46.10 34.03 46.05 28.20 M 48.78 30.96 C 48.75 33.18 48.73 35.40 48.68 37.62 C 53.19 37.74 57.70 37.66 62.22 37.68 C 62.22 38.34 62.22 39.66 62.22 40.32 C 57.75 40.32 53.27 40.35 48.80 40.28 C 48.75 42.07 48.72 43.85 48.67 45.64 C 53.19 45.72 57.70 45.66 62.22 45.68 C 62.22 46.34 62.22 47.66 62.22 48.32 C 55.50 48.34 48.78 48.29 42.06 48.33 C 42.06 51.86 42.07 55.39 42.06 58.92 C 53.69 59.05 65.33 59.09 76.96 58.91 C 76.92 55.39 76.93 51.86 76.95 48.34 C 74.68 48.33 72.41 48.31 70.15 48.27 C 70.37 42.53 70.22 36.78 70.25 31.04 C 63.09 30.89 55.94 31.09 48.78 30.96 M 53.20 61.70 C 55.33 63.70 57.43 65.73 59.48 67.82 C 61.56 65.76 63.66 63.72 65.78 61.69 C 61.58 61.66 57.39 61.66 53.20 61.70 Z" />
</g>
</svg>
