<?xml version="1.0" encoding="UTF-8" ?>
<!DOCTYPE svg PUBLIC "-//W3C//DTD SVG 1.1//EN" "http://www.w3.org/Graphics/SVG/1.1/DTD/svg11.dtd">
<svg width="117pt" height="140pt" viewBox="0 0 117 140" version="1.1" xmlns="http://www.w3.org/2000/svg">
<g id="#181818ff">
<path fill="#181818" opacity="1.00" d=" M 0.00 0.00 L 117.00 0.00 L 117.00 140.00 L 0.00 140.00 L 0.00 0.00 M 25.79 16.78 C 23.13 19.16 23.66 23.36 26.21 25.60 L 26.04 25.74 C 28.38 26.99 31.46 27.63 33.60 25.63 C 36.45 23.66 36.39 19.80 34.81 17.04 L 34.66 17.23 C 32.40 14.67 28.19 14.12 25.79 16.78 M 36.70 26.65 C 31.02 31.56 27.71 38.79 27.91 46.33 L 27.29 46.22 C 22.18 48.75 18.19 53.46 17.25 59.19 L 17.04 59.15 C 16.78 63.15 17.51 67.12 19.29 70.72 L 19.54 70.71 C 23.13 77.35 31.10 79.68 38.19 78.97 C 39.93 79.85 41.78 79.92 43.49 78.92 C 57.36 78.91 71.25 79.09 85.12 78.85 C 92.03 78.68 97.75 73.56 100.31 67.41 C 101.12 63.37 101.19 59.21 99.82 55.28 L 99.66 55.37 C 97.83 51.09 94.24 47.99 90.15 45.95 C 89.59 43.98 88.88 42.05 87.85 40.27 C 87.67 39.98 87.31 39.41 87.13 39.13 C 87.93 37.08 88.10 34.92 86.99 32.95 C 84.45 31.34 80.93 32.06 79.94 35.11 C 77.97 35.09 76.01 35.25 74.06 35.47 C 73.50 34.41 72.93 33.34 72.36 32.28 C 68.98 27.23 63.92 23.20 57.95 21.78 C 50.62 19.74 42.47 21.76 36.70 26.65 Z" />
<path fill="#181818" opacity="1.00" d=" M 37.44 31.27 C 41.48 27.15 47.23 24.73 53.03 25.07 C 58.92 25.27 64.44 28.39 68.05 32.98 C 69.55 35.36 70.73 37.92 71.91 40.48 C 74.77 39.67 77.73 38.54 80.73 39.27 C 81.31 39.41 82.46 39.70 83.04 39.85 C 83.94 41.60 84.92 43.32 85.78 45.10 C 85.92 46.33 86.06 47.55 86.21 48.78 C 90.48 50.31 94.37 53.06 96.27 57.31 C 97.31 60.97 97.07 64.90 95.51 68.38 C 92.92 72.13 88.83 75.04 84.11 74.95 C 70.66 75.02 57.19 75.11 43.74 74.88 C 41.87 74.01 39.91 74.15 38.01 74.82 C 33.03 75.71 27.73 74.30 24.15 70.66 C 21.77 67.60 20.77 63.78 20.99 59.94 C 22.09 54.30 26.76 50.56 31.90 48.68 C 31.93 48.26 31.98 47.44 32.00 47.02 C 31.70 41.28 33.56 35.54 37.44 31.27 M 52.93 44.90 C 51.15 46.89 48.71 48.46 47.62 50.97 C 47.68 52.71 49.37 52.82 50.66 53.11 C 51.50 53.08 53.17 53.01 54.01 52.97 C 54.00 54.67 54.00 56.36 54.00 58.06 C 54.03 60.51 54.01 62.95 53.87 65.40 C 55.88 68.23 59.99 66.78 62.93 66.78 C 65.08 64.39 63.57 60.54 63.96 57.57 C 63.97 56.06 63.99 54.56 64.00 53.05 C 65.83 52.82 67.95 53.42 69.59 52.48 C 71.66 50.43 68.40 48.52 67.23 47.04 C 65.64 45.53 64.10 43.97 62.60 42.37 C 61.45 41.40 60.49 40.06 58.98 39.62 C 56.47 40.69 54.92 43.13 52.93 44.90 Z" />
</g>
<g id="#e894e0ff">
<path fill="#e894e0" opacity="1.00" d=" M 25.79 16.78 C 28.19 14.12 32.40 14.67 34.66 17.23 C 32.24 20.40 29.40 23.21 26.21 25.60 C 23.66 23.36 23.13 19.16 25.79 16.78 Z" />
</g>
<g id="#e064d0ff">
<path fill="#e064d0" opacity="1.00" d=" M 34.66 17.23 L 34.81 17.04 C 36.39 19.80 36.45 23.66 33.60 25.63 C 31.46 27.63 28.38 26.99 26.04 25.74 L 26.21 25.60 C 29.40 23.21 32.24 20.40 34.66 17.23 Z" />
</g>
<g id="#9060f0ff">
<path fill="#9060f0" opacity="1.00" d=" M 36.70 26.65 C 42.47 21.76 50.62 19.74 57.95 21.78 C 63.92 23.20 68.98 27.23 72.36 32.28 C 70.92 32.51 69.48 32.74 68.05 32.98 C 64.44 28.39 58.92 25.27 53.03 25.07 C 47.23 24.73 41.48 27.15 37.44 31.27 C 37.20 29.73 36.95 28.19 36.70 26.65 Z" />
</g>
<g id="#7054e8ff">
<path fill="#7054e8" opacity="1.00" d=" M 27.91 46.33 C 27.71 38.79 31.02 31.56 36.70 26.65 C 36.95 28.19 37.20 29.73 37.44 31.27 C 33.56 35.54 31.70 41.28 32.00 47.02 C 30.64 46.79 29.27 46.56 27.91 46.33 Z" />
</g>
<g id="#f8c498ff">
<path fill="#f8c498" opacity="1.00" d=" M 79.94 35.11 C 80.93 32.06 84.45 31.34 86.99 32.95 C 85.21 35.23 83.12 37.25 80.90 39.11 C 80.60 37.77 80.28 36.43 79.94 35.11 Z" />
</g>
<g id="#7058e8ff">
<path fill="#7058e8" opacity="1.00" d=" M 68.05 32.98 C 69.48 32.74 70.92 32.51 72.36 32.28 C 72.93 33.34 73.50 34.41 74.06 35.47 C 76.01 35.25 77.97 35.09 79.94 35.11 C 80.28 36.43 80.60 37.77 80.90 39.11 L 80.73 39.27 C 77.73 38.54 74.77 39.67 71.91 40.48 C 70.73 37.92 69.55 35.36 68.05 32.98 Z" />
</g>
<g id="#f09ca0ff">
<path fill="#f09ca0" opacity="1.00" d=" M 86.99 32.95 C 88.10 34.92 87.93 37.08 87.13 39.13 C 85.77 39.40 84.41 39.67 83.04 39.85 C 82.46 39.70 81.31 39.41 80.73 39.27 L 80.90 39.11 C 83.12 37.25 85.21 35.23 86.99 32.95 Z" />
</g>
<g id="#41338bff">
<path fill="#41338b" opacity="1.00" d=" M 83.04 39.85 C 84.41 39.67 85.77 39.40 87.13 39.13 C 87.31 39.41 87.67 39.98 87.85 40.27 C 87.19 41.89 86.45 43.48 85.78 45.10 C 84.92 43.32 83.94 41.60 83.04 39.85 Z" />
</g>
<g id="#f8c868ff">
<path fill="#f8c868" opacity="1.00" d=" M 52.93 44.90 C 54.92 43.13 56.47 40.69 58.98 39.62 C 60.49 40.06 61.45 41.40 62.60 42.37 C 58.53 45.85 54.20 49.07 50.66 53.11 C 49.37 52.82 47.68 52.71 47.62 50.97 C 48.71 48.46 51.15 46.89 52.93 44.90 Z" />
</g>
<g id="#584cd8ff">
<path fill="#584cd8" opacity="1.00" d=" M 85.78 45.10 C 86.45 43.48 87.19 41.89 87.85 40.27 C 88.88 42.05 89.59 43.98 90.15 45.95 C 94.24 47.99 97.83 51.09 99.66 55.37 C 98.53 56.02 97.40 56.66 96.27 57.31 C 94.37 53.06 90.48 50.31 86.21 48.78 C 86.06 47.55 85.92 46.33 85.78 45.10 Z" />
</g>
<g id="#f8b858ff">
<path fill="#f8b858" opacity="1.00" d=" M 50.66 53.11 C 54.20 49.07 58.53 45.85 62.60 42.37 C 64.10 43.97 65.64 45.53 67.23 47.04 C 62.55 50.38 58.09 54.01 54.00 58.06 C 54.00 56.36 54.00 54.67 54.01 52.97 C 53.17 53.01 51.50 53.08 50.66 53.11 Z" />
</g>
<g id="#5048d8ff">
<path fill="#5048d8" opacity="1.00" d=" M 27.29 46.22 L 27.91 46.33 C 29.27 46.56 30.64 46.79 32.00 47.02 C 31.98 47.44 31.93 48.26 31.90 48.68 C 26.76 50.56 22.09 54.30 20.99 59.94 C 19.74 59.69 18.50 59.44 17.25 59.19 C 18.19 53.46 22.18 48.75 27.29 46.22 Z" />
</g>
<g id="#f8a450ff">
<path fill="#f8a450" opacity="1.00" d=" M 54.00 58.06 C 58.09 54.01 62.55 50.38 67.23 47.04 C 68.40 48.52 71.66 50.43 69.59 52.48 C 67.95 53.42 65.83 52.82 64.00 53.05 C 63.99 54.56 63.97 56.06 63.96 57.57 C 60.64 60.23 57.32 62.90 53.87 65.40 C 54.01 62.95 54.03 60.51 54.00 58.06 Z" />
</g>
<g id="#3840d0ff">
<path fill="#3840d0" opacity="1.00" d=" M 99.66 55.37 L 99.82 55.28 C 101.19 59.21 101.12 63.37 100.31 67.41 C 98.73 67.82 97.13 68.14 95.51 68.38 C 97.07 64.90 97.31 60.97 96.27 57.31 C 97.40 56.66 98.53 56.02 99.66 55.37 Z" />
</g>
<g id="#f89040ff">
<path fill="#f89040" opacity="1.00" d=" M 53.87 65.40 C 57.32 62.90 60.64 60.23 63.96 57.57 C 63.57 60.54 65.08 64.39 62.93 66.78 C 59.99 66.78 55.88 68.23 53.87 65.40 Z" />
</g>
<g id="#3040d0ff">
<path fill="#3040d0" opacity="1.00" d=" M 17.04 59.15 L 17.25 59.19 C 18.50 59.44 19.74 59.69 20.99 59.94 C 20.77 63.78 21.77 67.60 24.15 70.66 C 22.61 70.66 21.08 70.68 19.54 70.71 L 19.29 70.72 C 17.51 67.12 16.78 63.15 17.04 59.15 Z" />
</g>
<g id="#1834c8ff">
<path fill="#1834c8" opacity="1.00" d=" M 95.51 68.38 C 97.13 68.14 98.73 67.82 100.31 67.41 C 97.75 73.56 92.03 78.68 85.12 78.85 C 71.25 79.09 57.36 78.91 43.49 78.92 C 43.53 77.57 43.62 76.22 43.74 74.88 C 57.19 75.11 70.66 75.02 84.11 74.95 C 88.83 75.04 92.92 72.13 95.51 68.38 Z" />
<path fill="#1834c8" opacity="1.00" d=" M 19.54 70.71 C 21.08 70.68 22.61 70.66 24.15 70.66 C 27.73 74.30 33.03 75.71 38.01 74.82 C 38.04 76.20 38.10 77.59 38.19 78.97 C 31.10 79.68 23.13 77.35 19.54 70.71 Z" />
</g>
<g id="#40b4c8ff">
<path fill="#40b4c8" opacity="1.00" d=" M 38.01 74.82 C 39.91 74.15 41.87 74.01 43.74 74.88 C 43.62 76.22 43.53 77.57 43.49 78.92 C 41.78 79.92 39.93 79.85 38.19 78.97 C 38.10 77.59 38.04 76.20 38.01 74.82 Z" />
</g>
</svg>
