<?xml version="1.0" encoding="UTF-8" ?>
<!DOCTYPE svg PUBLIC "-//W3C//DTD SVG 1.1//EN" "http://www.w3.org/Graphics/SVG/1.1/DTD/svg11.dtd">
<svg width="117pt" height="140pt" viewBox="0 0 117 140" version="1.1" xmlns="http://www.w3.org/2000/svg">
<g id="#000000ff">
<path fill="#000000" opacity="1.00" d=" M 0.00 0.00 L 117.00 0.00 L 117.00 140.00 L 0.00 140.00 L 0.00 0.00 M 32.20 10.21 C 16.95 11.75 4.18 25.60 4.02 40.95 C 3.98 60.32 3.98 79.70 4.02 99.07 C 4.16 115.40 18.65 129.86 34.98 129.98 C 50.33 130.01 65.69 130.03 81.04 129.97 C 93.80 129.76 105.78 121.02 110.06 109.04 C 112.70 102.32 111.90 95.02 112.00 87.98 C 111.93 71.96 112.13 55.93 111.92 39.91 C 111.28 23.96 96.97 10.14 81.01 10.02 C 64.74 10.10 48.45 9.73 32.20 10.21 Z" />
<path fill="#000000" opacity="1.00" d=" M 32.17 12.25 C 48.44 11.71 64.75 12.09 81.03 12.05 C 96.65 12.16 110.41 26.36 109.98 41.98 C 110.01 60.65 110.01 79.32 109.98 97.98 C 110.49 114.38 95.34 128.95 78.99 127.99 C 63.97 127.95 48.94 128.12 33.93 127.91 C 19.07 127.24 6.14 113.88 6.04 98.99 C 5.98 79.65 5.97 60.31 6.04 40.98 C 6.19 26.71 18.01 13.81 32.17 12.25 M 37.60 42.00 C 37.59 50.67 37.59 59.33 37.60 68.00 C 44.87 68.00 52.14 68.00 59.41 68.00 C 59.40 66.00 59.40 63.99 59.41 61.99 C 55.06 62.03 50.72 62.01 46.38 61.94 C 46.37 60.66 46.35 59.39 46.32 58.11 C 49.88 58.00 53.44 57.93 57.00 58.02 C 57.00 55.88 57.00 53.74 57.00 51.60 C 53.46 51.59 49.92 51.59 46.39 51.60 C 46.39 50.53 46.39 49.46 46.40 48.39 C 50.60 48.42 54.80 48.41 59.00 48.40 C 59.00 46.27 59.00 44.13 59.00 42.00 C 51.87 42.00 44.73 42.00 37.60 42.00 M 62.28 54.89 C 63.67 60.34 69.83 60.46 74.14 62.17 C 74.93 65.00 71.60 64.14 69.93 64.22 C 69.76 63.65 69.44 62.53 69.27 61.96 C 66.77 61.99 64.27 62.04 61.77 62.10 C 62.72 67.71 69.19 68.99 73.95 68.28 C 77.21 68.01 81.22 66.61 81.80 62.90 C 82.59 59.28 78.91 57.09 75.90 56.45 C 73.74 55.54 70.41 55.83 69.70 53.04 C 70.54 52.97 72.21 52.85 73.05 52.78 C 73.39 53.24 74.09 54.16 74.43 54.63 C 76.70 54.62 78.97 54.63 81.23 54.61 C 80.42 48.10 71.95 47.54 67.02 49.31 C 64.29 49.89 63.15 52.54 62.28 54.89 Z" />
</g>
<g id="#6a6e6aff">
<path fill="#6a6e6a" opacity="1.00" d=" M 32.20 10.21 C 48.45 9.73 64.74 10.10 81.01 10.02 C 96.97 10.14 111.28 23.96 111.92 39.91 C 112.13 55.93 111.93 71.96 112.00 87.98 C 111.90 95.02 112.70 102.32 110.06 109.04 C 105.78 121.02 93.80 129.76 81.04 129.97 C 65.69 130.03 50.33 130.01 34.98 129.98 C 18.65 129.86 4.16 115.40 4.02 99.07 C 3.98 79.70 3.98 60.32 4.02 40.95 C 4.18 25.60 16.95 11.75 32.20 10.21 M 32.17 12.25 C 18.01 13.81 6.19 26.71 6.04 40.98 C 5.97 60.31 5.98 79.65 6.04 98.99 C 6.14 113.88 19.07 127.24 33.93 127.91 C 48.94 128.12 63.97 127.95 78.99 127.99 C 95.34 128.95 110.49 114.38 109.98 97.98 C 110.01 79.32 110.01 60.65 109.98 41.98 C 110.41 26.36 96.65 12.16 81.03 12.05 C 64.75 12.09 48.44 11.71 32.17 12.25 Z" />
</g>
<g id="#e86010ff">
<path fill="#e86010" opacity="1.00" d=" M 37.60 42.00 C 44.73 42.00 51.87 42.00 59.00 42.00 C 59.00 44.13 59.00 46.27 59.00 48.40 C 54.80 48.41 50.60 48.42 46.40 48.39 C 46.39 49.46 46.39 50.53 46.39 51.60 C 49.92 51.59 53.46 51.59 57.00 51.60 C 57.00 53.74 57.00 55.88 57.00 58.02 C 53.44 57.93 49.88 58.00 46.32 58.11 C 46.35 59.39 46.37 60.66 46.38 61.94 C 50.72 62.01 55.06 62.03 59.41 61.99 C 59.40 63.99 59.40 66.00 59.41 68.00 C 52.14 68.00 44.87 68.00 37.60 68.00 C 37.59 59.33 37.59 50.67 37.60 42.00 Z" />
<path fill="#e86010" opacity="1.00" d=" M 62.28 54.89 C 63.15 52.54 64.29 49.89 67.02 49.31 C 71.95 47.54 80.42 48.10 81.23 54.61 C 78.97 54.63 76.70 54.62 74.43 54.63 C 74.09 54.16 73.39 53.24 73.05 52.78 C 72.21 52.85 70.54 52.97 69.70 53.04 C 70.41 55.83 73.74 55.54 75.90 56.45 C 78.91 57.09 82.59 59.28 81.80 62.90 C 81.22 66.61 77.21 68.01 73.95 68.28 C 69.19 68.99 62.72 67.71 61.77 62.10 C 64.27 62.04 66.77 61.99 69.27 61.96 C 69.44 62.53 69.76 63.65 69.93 64.22 C 71.60 64.14 74.93 65.00 74.14 62.17 C 69.83 60.46 63.67 60.34 62.28 54.89 Z" />
</g>
</svg>
