<?xml version="1.0" encoding="UTF-8" ?>
<!DOCTYPE svg PUBLIC "-//W3C//DTD SVG 1.1//EN" "http://www.w3.org/Graphics/SVG/1.1/DTD/svg11.dtd">
<svg width="117pt" height="140pt" viewBox="0 0 117 140" version="1.1" xmlns="http://www.w3.org/2000/svg">
<g id="#000000ff">
<path fill="#000000" opacity="1.00" d=" M 0.00 0.00 L 117.00 0.00 L 117.00 140.00 L 0.00 140.00 L 0.00 0.00 M 33.12 10.23 C 17.89 11.81 5.19 25.64 5.02 40.97 C 4.99 60.32 4.99 79.68 5.02 99.03 C 5.17 114.99 18.99 129.27 34.93 129.93 C 50.64 130.08 66.36 129.99 82.07 129.97 C 98.00 129.82 112.26 116.01 112.93 100.10 C 113.10 80.75 112.95 61.39 113.00 42.04 C 113.08 33.38 109.37 24.80 103.08 18.86 C 96.98 12.95 88.44 9.75 79.97 9.98 C 64.35 10.17 48.72 9.69 33.12 10.23 Z" />
<path fill="#000000" opacity="1.00" d=" M 30.49 12.70 C 34.91 11.71 39.47 12.05 43.96 12.00 C 56.99 12.06 70.03 11.88 83.06 12.09 C 97.94 12.75 110.87 26.11 110.96 41.02 C 111.04 60.01 110.99 79.00 110.99 97.99 C 111.41 113.26 98.28 127.30 83.01 127.90 C 67.34 128.11 51.65 127.98 35.97 127.97 C 20.73 127.83 7.17 114.32 7.03 99.07 C 6.98 79.70 6.98 60.33 7.03 40.97 C 7.21 27.65 17.49 15.42 30.49 12.70 M 38.54 41.62 C 35.75 44.14 32.08 45.87 29.99 49.06 C 27.99 54.33 34.42 56.61 37.44 59.52 C 39.66 62.13 43.06 61.46 46.00 60.88 C 46.00 58.25 46.00 55.63 46.00 53.00 C 48.00 53.00 50.00 53.00 52.00 53.00 C 52.00 52.25 52.00 50.75 52.00 50.00 C 50.00 50.00 48.00 50.00 46.00 50.00 C 46.00 47.04 46.00 44.08 46.01 41.12 C 43.54 40.93 40.63 39.64 38.54 41.62 M 70.99 41.10 C 71.01 44.06 71.00 47.03 71.00 50.00 C 68.67 50.00 66.33 50.00 64.00 50.00 C 64.00 50.75 64.00 52.25 64.00 53.00 C 66.33 53.00 68.67 53.00 71.00 53.00 C 71.00 55.63 71.00 58.26 70.99 60.90 C 73.35 61.59 76.14 61.98 78.01 59.96 C 80.85 57.09 85.87 55.54 86.47 51.07 C 85.99 46.48 80.83 44.93 77.97 42.01 C 76.12 39.98 73.33 40.44 70.99 41.10 M 53.00 50.00 C 53.00 50.75 53.00 52.25 53.00 53.00 C 53.75 53.00 55.25 53.00 56.00 53.00 C 56.00 52.25 56.00 50.75 56.00 50.00 C 55.25 50.00 53.75 50.00 53.00 50.00 M 57.00 50.00 C 57.00 50.75 57.00 52.25 57.00 53.00 C 59.00 53.00 61.00 53.00 63.00 53.00 C 63.00 52.25 63.00 50.75 63.00 50.00 C 61.00 50.00 59.00 50.00 57.00 50.00 Z" />
<path fill="#000000" opacity="1.00" d=" M 33.00 51.00 C 35.97 48.68 39.00 46.46 41.83 43.98 C 42.17 48.63 41.94 53.30 41.99 57.97 C 38.99 55.65 36.00 53.33 33.00 51.00 Z" />
<path fill="#000000" opacity="1.00" d=" M 75.00 44.81 C 77.67 46.86 80.33 48.93 82.99 51.00 C 80.33 53.07 77.67 55.14 75.00 57.19 C 75.00 53.06 75.00 48.94 75.00 44.81 Z" />
</g>
<g id="#717271ff">
<path fill="#717271" opacity="1.00" d=" M 33.12 10.23 C 48.72 9.69 64.35 10.17 79.97 9.98 C 88.44 9.75 96.98 12.95 103.08 18.86 C 109.37 24.80 113.08 33.38 113.00 42.04 C 112.95 61.39 113.10 80.75 112.93 100.10 C 112.26 116.01 98.00 129.82 82.07 129.97 C 66.36 129.99 50.64 130.08 34.93 129.93 C 18.99 129.27 5.17 114.99 5.02 99.03 C 4.99 79.68 4.99 60.32 5.02 40.97 C 5.19 25.64 17.89 11.81 33.12 10.23 M 30.49 12.70 C 17.49 15.42 7.21 27.65 7.03 40.97 C 6.98 60.33 6.98 79.70 7.03 99.07 C 7.17 114.32 20.73 127.83 35.97 127.97 C 51.65 127.98 67.34 128.11 83.01 127.90 C 98.28 127.30 111.41 113.26 110.99 97.99 C 110.99 79.00 111.04 60.01 110.96 41.02 C 110.87 26.11 97.94 12.75 83.06 12.09 C 70.03 11.88 56.99 12.06 43.96 12.00 C 39.47 12.05 34.91 11.71 30.49 12.70 Z" />
</g>
<g id="#f8fcf8ff">
<path fill="#f8fcf8" opacity="1.00" d=" M 38.54 41.62 C 40.63 39.64 43.54 40.93 46.01 41.12 C 46.00 44.08 46.00 47.04 46.00 50.00 C 48.00 50.00 50.00 50.00 52.00 50.00 C 52.00 50.75 52.00 52.25 52.00 53.00 C 50.00 53.00 48.00 53.00 46.00 53.00 C 46.00 55.63 46.00 58.25 46.00 60.88 C 43.06 61.46 39.66 62.13 37.44 59.52 C 34.42 56.61 27.99 54.33 29.99 49.06 C 32.08 45.87 35.75 44.14 38.54 41.62 M 33.00 51.00 C 36.00 53.33 38.99 55.65 41.99 57.97 C 41.94 53.30 42.17 48.63 41.83 43.98 C 39.00 46.46 35.97 48.68 33.00 51.00 Z" />
<path fill="#f8fcf8" opacity="1.00" d=" M 70.99 41.10 C 73.33 40.44 76.12 39.98 77.97 42.01 C 80.83 44.93 85.99 46.48 86.47 51.07 C 85.87 55.54 80.85 57.09 78.01 59.96 C 76.14 61.98 73.35 61.59 70.99 60.90 C 71.00 58.26 71.00 55.63 71.00 53.00 C 68.67 53.00 66.33 53.00 64.00 53.00 C 64.00 52.25 64.00 50.75 64.00 50.00 C 66.33 50.00 68.67 50.00 71.00 50.00 C 71.00 47.03 71.01 44.06 70.99 41.10 M 75.00 44.81 C 75.00 48.94 75.00 53.06 75.00 57.19 C 77.67 55.14 80.33 53.07 82.99 51.00 C 80.33 48.93 77.67 46.86 75.00 44.81 Z" />
<path fill="#f8fcf8" opacity="1.00" d=" M 53.00 50.00 C 53.75 50.00 55.25 50.00 56.00 50.00 C 56.00 50.75 56.00 52.25 56.00 53.00 C 55.25 53.00 53.75 53.00 53.00 53.00 C 53.00 52.25 53.00 50.75 53.00 50.00 Z" />
<path fill="#f8fcf8" opacity="1.00" d=" M 57.00 50.00 C 59.00 50.00 61.00 50.00 63.00 50.00 C 63.00 50.75 63.00 52.25 63.00 53.00 C 61.00 53.00 59.00 53.00 57.00 53.00 C 57.00 52.25 57.00 50.75 57.00 50.00 Z" />
</g>
</svg>
