<?xml version="1.0" encoding="UTF-8" ?>
<!DOCTYPE svg PUBLIC "-//W3C//DTD SVG 1.1//EN" "http://www.w3.org/Graphics/SVG/1.1/DTD/svg11.dtd">
<svg width="100pt" height="100pt" viewBox="0 0 100 100" version="1.1" xmlns="http://www.w3.org/2000/svg">
<g id="#505050ff">
<path fill="#505050" opacity="1.00" d=" M 0.00 0.00 L 100.00 0.00 L 100.00 100.00 L 0.00 100.00 L 0.00 0.00 M 35.97 22.96 C 35.76 28.97 35.97 34.99 35.90 41.01 C 32.55 41.23 28.92 40.37 25.75 41.64 C 23.68 44.27 24.48 47.88 25.21 50.87 C 28.21 52.00 31.42 52.17 34.58 52.04 C 34.08 54.37 35.91 56.06 37.33 57.61 C 41.19 61.60 45.08 65.57 48.80 69.69 C 48.46 71.39 48.39 73.12 48.29 74.85 C 46.53 76.22 44.41 77.36 43.36 79.42 C 42.56 80.54 44.04 81.71 45.06 81.87 C 50.08 83.48 55.82 82.17 60.43 85.09 C 53.81 87.32 46.69 86.29 39.88 87.49 C 46.18 88.44 52.65 88.08 58.86 86.72 C 60.53 86.50 61.73 85.34 62.62 83.99 C 57.12 81.45 50.79 82.34 45.19 80.09 C 46.91 77.63 49.11 75.37 52.08 74.51 C 51.98 73.04 51.79 71.57 51.60 70.11 C 56.06 65.35 60.70 60.77 65.17 56.02 C 66.38 54.99 66.73 53.50 66.24 52.01 C 69.57 52.19 72.94 52.03 76.16 51.07 C 76.20 48.08 76.71 45.02 76.00 42.08 C 72.53 40.39 68.45 41.28 64.72 41.03 C 64.49 34.06 65.40 26.97 64.21 20.08 C 61.30 17.83 57.45 18.19 54.01 18.17 C 49.36 18.32 44.71 17.95 40.07 18.33 C 37.80 18.58 36.00 20.71 35.97 22.96 Z" />
<path fill="#505050" opacity="1.00" d=" M 60.99 20.26 C 61.47 20.48 62.42 20.92 62.89 21.14 C 63.18 27.42 62.91 33.71 63.00 40.00 C 62.50 40.00 61.50 40.00 61.00 40.00 C 61.00 33.42 61.01 26.84 60.99 20.26 Z" />
<path fill="#505050" opacity="1.00" d=" M 38.00 24.00 C 42.67 24.00 47.33 24.00 52.00 24.00 C 52.00 24.50 52.00 25.50 52.00 26.00 C 47.33 26.00 42.67 26.00 38.00 26.00 C 38.00 25.50 38.00 24.50 38.00 24.00 Z" />
<path fill="#505050" opacity="1.00" d=" M 38.00 32.00 C 42.00 32.00 46.00 32.00 50.00 32.00 C 50.00 32.50 50.00 33.50 50.00 34.00 C 46.00 34.00 42.00 34.00 38.00 34.00 C 38.00 33.50 38.00 32.50 38.00 32.00 Z" />
</g>
<g id="#f8fcf8ff">
<path fill="#f8fcf8" opacity="1.00" d=" M 35.97 22.96 C 36.00 20.71 37.80 18.58 40.07 18.33 C 44.71 17.95 49.36 18.32 54.01 18.17 C 57.45 18.19 61.30 17.83 64.21 20.08 C 65.40 26.97 64.49 34.06 64.72 41.03 C 68.45 41.28 72.53 40.39 76.00 42.08 C 76.71 45.02 76.20 48.08 76.16 51.07 C 72.94 52.03 69.57 52.19 66.24 52.01 C 66.73 53.50 66.38 54.99 65.17 56.02 C 60.70 60.77 56.06 65.35 51.60 70.11 C 51.79 71.57 51.98 73.04 52.08 74.51 C 49.11 75.37 46.91 77.63 45.19 80.09 C 50.79 82.34 57.12 81.45 62.62 83.99 C 61.73 85.34 60.53 86.50 58.86 86.72 C 52.65 88.08 46.18 88.44 39.88 87.49 C 46.69 86.29 53.81 87.32 60.43 85.09 C 55.82 82.17 50.08 83.48 45.06 81.87 C 44.04 81.71 42.56 80.54 43.36 79.42 C 44.41 77.36 46.53 76.22 48.29 74.85 C 48.39 73.12 48.46 71.39 48.80 69.69 C 45.08 65.57 41.19 61.60 37.33 57.61 C 35.91 56.06 34.08 54.37 34.58 52.04 C 31.42 52.17 28.21 52.00 25.21 50.87 C 24.48 47.88 23.68 44.27 25.75 41.64 C 28.92 40.37 32.55 41.23 35.90 41.01 C 35.97 34.99 35.76 28.97 35.97 22.96 M 60.99 20.26 C 61.01 26.84 61.00 33.42 61.00 40.00 C 61.50 40.00 62.50 40.00 63.00 40.00 C 62.91 33.71 63.18 27.42 62.89 21.14 C 62.42 20.92 61.47 20.48 60.99 20.26 M 38.00 24.00 C 38.00 24.50 38.00 25.50 38.00 26.00 C 42.67 26.00 47.33 26.00 52.00 26.00 C 52.00 25.50 52.00 24.50 52.00 24.00 C 47.33 24.00 42.67 24.00 38.00 24.00 M 38.00 32.00 C 38.00 32.50 38.00 33.50 38.00 34.00 C 42.00 34.00 46.00 34.00 50.00 34.00 C 50.00 33.50 50.00 32.50 50.00 32.00 C 46.00 32.00 42.00 32.00 38.00 32.00 M 71.85 42.99 C 71.85 44.66 71.85 46.32 71.85 47.99 C 68.90 47.99 65.95 48.00 63.00 48.00 C 62.99 49.86 62.99 51.71 62.98 53.57 C 58.46 58.11 53.78 62.51 49.48 67.26 C 49.67 67.73 50.04 68.67 50.23 69.14 C 53.29 66.58 55.93 63.57 58.76 60.76 C 61.69 57.67 65.99 54.90 65.42 50.02 C 68.28 50.09 71.14 50.05 74.00 50.00 C 74.00 47.66 74.00 45.33 74.00 43.00 C 73.46 43.00 72.38 42.99 71.85 42.99 Z" />
</g>
<g id="#565656ff">
<path fill="#565656" opacity="1.00" d=" M 71.85 42.99 C 72.38 42.99 73.46 43.00 74.00 43.00 C 74.00 45.33 74.00 47.66 74.00 50.00 C 71.14 50.05 68.28 50.09 65.42 50.02 C 65.99 54.90 61.69 57.67 58.76 60.76 C 55.93 63.57 53.29 66.58 50.23 69.14 C 50.04 68.67 49.67 67.73 49.48 67.26 C 53.78 62.51 58.46 58.11 62.98 53.57 C 62.99 51.71 62.99 49.86 63.00 48.00 C 65.95 48.00 68.90 47.99 71.85 47.99 C 71.85 46.32 71.85 44.66 71.85 42.99 Z" />
</g>
</svg>
