<?xml version="1.0" encoding="UTF-8" ?>
<!DOCTYPE svg PUBLIC "-//W3C//DTD SVG 1.1//EN" "http://www.w3.org/Graphics/SVG/1.1/DTD/svg11.dtd">
<svg width="117pt" height="140pt" viewBox="0 0 117 140" version="1.1" xmlns="http://www.w3.org/2000/svg">
<g id="#384450ff">
<path fill="#384450" opacity="1.00" d=" M 0.00 0.00 L 117.00 0.00 L 117.00 140.00 L 0.00 140.00 L 0.00 0.00 M 41.23 53.15 C 39.96 53.89 39.10 55.31 39.30 56.81 C 39.35 60.02 44.18 61.90 46.09 59.09 C 49.52 56.27 44.68 50.42 41.23 53.15 M 56.48 53.50 C 54.80 54.81 54.49 57.49 56.03 59.03 C 57.74 61.55 61.81 60.55 62.73 57.80 C 64.25 54.32 59.16 50.59 56.48 53.50 M 72.45 53.35 C 70.58 54.61 70.03 57.59 71.90 59.11 C 73.84 61.87 78.52 60.04 78.69 56.89 C 79.21 53.76 74.84 51.04 72.45 53.35 Z" />
</g>
<g id="#f8fcf8ff">
<path fill="#f8fcf8" opacity="1.00" d=" M 41.23 53.15 C 44.68 50.42 49.52 56.27 46.09 59.09 C 44.18 61.90 39.35 60.02 39.30 56.81 C 39.10 55.31 39.96 53.89 41.23 53.15 Z" />
<path fill="#f8fcf8" opacity="1.00" d=" M 56.48 53.50 C 59.16 50.59 64.25 54.32 62.73 57.80 C 61.81 60.55 57.74 61.55 56.03 59.03 C 54.49 57.49 54.80 54.81 56.48 53.50 Z" />
<path fill="#f8fcf8" opacity="1.00" d=" M 72.45 53.35 C 74.84 51.04 79.21 53.76 78.69 56.89 C 78.52 60.04 73.84 61.87 71.90 59.11 C 70.03 57.59 70.58 54.61 72.45 53.35 Z" />
</g>
</svg>
