<?xml version="1.0" encoding="UTF-8" ?>
<!DOCTYPE svg PUBLIC "-//W3C//DTD SVG 1.1//EN" "http://www.w3.org/Graphics/SVG/1.1/DTD/svg11.dtd">
<svg width="117pt" height="140pt" viewBox="0 0 117 140" version="1.1" xmlns="http://www.w3.org/2000/svg">
<g id="#000000ff">
<path fill="#000000" opacity="1.00" d=" M 0.00 0.00 L 117.00 0.00 L 117.00 140.00 L 0.00 140.00 L 0.00 0.00 M 33.15 10.22 C 17.91 11.79 5.20 25.61 5.02 40.94 C 4.99 60.31 4.99 79.68 5.02 99.05 C 5.18 115.01 19.00 129.27 34.94 129.93 C 50.62 130.08 66.31 129.99 81.99 129.98 C 97.96 129.86 112.25 116.04 112.93 100.10 C 113.10 80.75 112.95 61.40 113.01 42.06 C 113.08 33.42 109.40 24.86 103.14 18.93 C 97.06 12.98 88.50 9.75 80.02 9.98 C 64.40 10.17 48.75 9.69 33.15 10.22 Z" />
<path fill="#000000" opacity="1.00" d=" M 33.23 12.35 C 48.48 11.71 63.76 12.26 79.03 12.06 C 85.38 11.89 91.86 13.30 97.18 16.88 C 105.62 22.16 110.98 31.99 110.90 41.94 C 110.97 59.29 110.89 76.65 110.94 94.01 C 111.12 100.02 110.59 106.27 107.60 111.61 C 102.76 121.49 92.01 127.96 81.04 127.90 C 66.01 127.93 50.97 127.99 35.93 127.87 C 20.74 127.71 7.27 114.27 7.13 99.07 C 7.03 79.67 7.03 60.26 7.13 40.86 C 7.36 26.67 19.11 13.82 33.23 12.35 M 60.34 27.14 C 56.38 31.09 52.42 35.05 48.47 39.01 C 50.10 41.09 52.48 41.59 55.00 41.29 C 55.00 43.30 55.00 45.31 55.00 47.33 C 53.04 47.32 51.08 47.33 49.12 47.33 C 49.15 44.92 48.54 42.46 46.72 40.76 C 42.75 44.74 38.74 48.68 34.82 52.70 C 38.77 56.60 42.72 60.52 46.59 64.49 C 47.41 63.64 48.22 62.79 49.02 61.93 C 49.01 60.62 49.00 59.31 48.99 58.00 C 50.99 58.00 53.00 58.00 55.00 58.00 C 55.00 60.00 55.00 61.99 55.00 63.99 C 52.45 63.67 50.00 64.19 48.50 66.43 C 52.57 70.26 56.34 74.39 60.47 78.16 C 64.31 74.12 68.33 70.24 72.26 66.28 C 70.54 64.51 68.12 63.85 65.71 63.87 C 65.71 61.92 65.71 59.96 65.71 58.00 C 67.71 58.00 69.70 58.00 71.70 58.00 C 71.39 60.53 71.92 62.90 73.99 64.54 C 77.96 60.58 81.91 56.61 85.88 52.65 C 81.96 48.73 78.04 44.81 74.11 40.89 C 73.70 41.23 72.88 41.91 72.47 42.25 C 72.05 43.94 71.74 45.65 71.51 47.37 C 69.57 47.34 67.64 47.32 65.71 47.31 C 65.71 45.34 65.71 43.38 65.73 41.41 C 67.42 41.22 69.10 40.92 70.76 40.53 C 71.09 40.12 71.76 39.31 72.09 38.91 C 68.19 34.97 64.29 31.03 60.34 27.14 Z" />
<path fill="#000000" opacity="1.00" d=" M 60.35 30.93 C 62.90 33.50 65.48 36.04 68.03 38.61 C 66.36 38.61 64.68 38.61 63.00 38.61 C 63.00 42.41 63.00 46.20 63.00 50.00 C 66.81 50.00 70.61 50.00 74.42 50.00 C 74.42 48.33 74.41 46.67 74.40 45.01 C 76.98 47.55 79.57 50.09 82.08 52.69 C 79.53 55.22 77.01 57.79 74.42 60.29 C 74.40 58.65 74.41 57.01 74.42 55.37 C 70.62 55.30 66.82 55.33 63.01 55.32 C 62.99 59.13 63.00 62.93 63.01 66.74 C 64.67 66.74 66.34 66.74 68.01 66.75 C 65.48 69.30 62.91 71.82 60.40 74.40 C 57.89 71.87 55.18 69.52 52.96 66.72 C 54.52 66.72 56.08 66.73 57.64 66.75 C 57.65 62.94 57.65 59.14 57.64 55.33 C 53.86 55.32 50.08 55.33 46.30 55.32 C 46.29 56.98 46.28 58.63 46.26 60.28 C 43.69 57.76 41.14 55.20 38.61 52.64 C 41.19 50.10 43.73 47.54 46.29 44.99 C 46.29 46.66 46.28 48.32 46.28 49.99 C 50.07 50.01 53.86 50.01 57.65 49.99 C 57.64 46.19 57.66 42.39 57.63 38.59 C 56.02 38.62 54.40 38.64 52.79 38.66 C 55.19 35.97 57.81 33.48 60.35 30.93 Z" />
</g>
<g id="#717171ff">
<path fill="#717171" opacity="1.00" d=" M 33.15 10.22 C 48.75 9.69 64.40 10.17 80.02 9.98 C 88.50 9.75 97.06 12.98 103.14 18.93 C 109.40 24.86 113.08 33.42 113.01 42.06 C 112.95 61.40 113.10 80.75 112.93 100.10 C 112.25 116.04 97.96 129.86 81.99 129.98 C 66.31 129.99 50.62 130.08 34.94 129.93 C 19.00 129.27 5.18 115.01 5.02 99.05 C 4.99 79.68 4.99 60.31 5.02 40.94 C 5.20 25.61 17.91 11.79 33.15 10.22 M 33.23 12.35 C 19.11 13.82 7.36 26.67 7.13 40.86 C 7.03 60.26 7.03 79.67 7.13 99.07 C 7.27 114.27 20.74 127.71 35.93 127.87 C 50.97 127.99 66.01 127.93 81.04 127.90 C 92.01 127.96 102.76 121.49 107.60 111.61 C 110.59 106.27 111.12 100.02 110.94 94.01 C 110.89 76.65 110.97 59.29 110.90 41.94 C 110.98 31.99 105.62 22.16 97.18 16.88 C 91.86 13.30 85.38 11.89 79.03 12.06 C 63.76 12.26 48.48 11.71 33.23 12.35 Z" />
</g>
<g id="#f8fcf8ff">
<path fill="#f8fcf8" opacity="1.00" d=" M 60.34 27.14 C 64.29 31.03 68.19 34.97 72.09 38.91 C 71.76 39.31 71.09 40.12 70.76 40.53 C 69.10 40.92 67.42 41.22 65.73 41.41 C 65.71 43.38 65.71 45.34 65.71 47.31 C 67.64 47.32 69.57 47.34 71.51 47.37 C 71.74 45.65 72.05 43.94 72.47 42.25 C 72.88 41.91 73.70 41.23 74.11 40.89 C 78.04 44.81 81.96 48.73 85.88 52.65 C 81.91 56.61 77.96 60.58 73.99 64.54 C 71.92 62.90 71.39 60.53 71.70 58.00 C 69.70 58.00 67.71 58.00 65.71 58.00 C 65.71 59.96 65.71 61.92 65.71 63.87 C 68.12 63.85 70.54 64.51 72.26 66.28 C 68.33 70.24 64.31 74.12 60.47 78.16 C 56.34 74.39 52.57 70.26 48.50 66.43 C 50.00 64.19 52.45 63.67 55.00 63.99 C 55.00 61.99 55.00 60.00 55.00 58.00 C 53.00 58.00 50.99 58.00 48.99 58.00 C 49.00 59.31 49.01 60.62 49.02 61.93 C 48.22 62.79 47.41 63.64 46.59 64.49 C 42.72 60.52 38.77 56.60 34.82 52.70 C 38.74 48.68 42.75 44.74 46.72 40.76 C 48.54 42.46 49.15 44.92 49.12 47.33 C 51.08 47.33 53.04 47.32 55.00 47.33 C 55.00 45.31 55.00 43.30 55.00 41.29 C 52.48 41.59 50.10 41.09 48.47 39.01 C 52.42 35.05 56.38 31.09 60.34 27.14 M 60.35 30.93 C 57.81 33.48 55.19 35.97 52.79 38.66 C 54.40 38.64 56.02 38.62 57.63 38.59 C 57.66 42.39 57.64 46.19 57.65 49.99 C 53.86 50.01 50.07 50.01 46.28 49.99 C 46.28 48.32 46.29 46.66 46.29 44.99 C 43.73 47.54 41.19 50.10 38.61 52.64 C 41.14 55.20 43.69 57.76 46.26 60.28 C 46.28 58.63 46.29 56.98 46.30 55.32 C 50.08 55.33 53.86 55.32 57.64 55.33 C 57.65 59.14 57.65 62.94 57.64 66.75 C 56.08 66.73 54.52 66.72 52.96 66.72 C 55.18 69.52 57.89 71.87 60.40 74.40 C 62.91 71.82 65.48 69.30 68.01 66.75 C 66.34 66.74 64.67 66.74 63.01 66.74 C 63.00 62.93 62.99 59.13 63.01 55.32 C 66.82 55.33 70.62 55.30 74.42 55.37 C 74.41 57.01 74.40 58.65 74.42 60.29 C 77.01 57.79 79.53 55.22 82.08 52.69 C 79.57 50.09 76.98 47.55 74.40 45.01 C 74.41 46.67 74.42 48.33 74.42 50.00 C 70.61 50.00 66.81 50.00 63.00 50.00 C 63.00 46.20 63.00 42.41 63.00 38.61 C 64.68 38.61 66.36 38.61 68.03 38.61 C 65.48 36.04 62.90 33.50 60.35 30.93 Z" />
</g>
</svg>
