<?xml version="1.0" encoding="UTF-8" ?>
<!DOCTYPE svg PUBLIC "-//W3C//DTD SVG 1.1//EN" "http://www.w3.org/Graphics/SVG/1.1/DTD/svg11.dtd">
<svg width="117pt" height="140pt" viewBox="0 0 117 140" version="1.1" xmlns="http://www.w3.org/2000/svg">
<g id="#384450ff">
<path fill="#384450" opacity="1.00" d=" M 0.00 0.00 L 117.00 0.00 L 117.00 140.00 L 0.00 140.00 L 0.00 0.00 M 41.17 53.19 C 38.98 54.34 38.59 57.77 40.54 59.31 C 42.19 61.12 45.33 60.74 46.52 58.59 C 49.15 55.49 44.29 50.59 41.17 53.19 M 56.49 53.47 C 54.61 54.94 54.54 57.97 56.44 59.46 C 58.61 61.81 62.67 59.87 62.95 56.90 C 63.42 53.62 58.91 50.96 56.49 53.47 M 72.49 53.32 C 70.23 54.74 70.20 58.16 72.43 59.62 C 74.81 61.93 79.22 59.25 78.69 56.10 C 78.54 53.30 74.63 51.30 72.49 53.32 Z" />
</g>
<g id="#f8fcf8ff">
<path fill="#f8fcf8" opacity="1.00" d=" M 41.17 53.19 C 44.29 50.59 49.15 55.49 46.52 58.59 C 45.33 60.74 42.19 61.12 40.54 59.31 C 38.59 57.77 38.98 54.34 41.17 53.19 Z" />
<path fill="#f8fcf8" opacity="1.00" d=" M 56.49 53.47 C 58.91 50.96 63.42 53.62 62.95 56.90 C 62.67 59.87 58.61 61.81 56.44 59.46 C 54.54 57.97 54.61 54.94 56.49 53.47 Z" />
<path fill="#f8fcf8" opacity="1.00" d=" M 72.49 53.32 C 74.63 51.30 78.54 53.30 78.69 56.10 C 79.22 59.25 74.81 61.93 72.43 59.62 C 70.20 58.16 70.23 54.74 72.49 53.32 Z" />
</g>
</svg>
