<?xml version="1.0" encoding="UTF-8" ?>
<!DOCTYPE svg PUBLIC "-//W3C//DTD SVG 1.1//EN" "http://www.w3.org/Graphics/SVG/1.1/DTD/svg11.dtd">
<svg width="117pt" height="140pt" viewBox="0 0 117 140" version="1.1" xmlns="http://www.w3.org/2000/svg">
<g id="#000000ff">
<path fill="#000000" opacity="1.00" d=" M 0.00 0.00 L 117.00 0.00 L 117.00 140.00 L 0.00 140.00 L 0.00 0.00 M 33.20 10.21 C 17.97 11.76 5.24 25.55 5.02 40.88 C 5.02 60.61 4.93 80.35 5.06 100.08 C 5.75 116.02 20.01 129.84 35.98 129.98 C 51.69 129.98 67.41 130.09 83.12 129.93 C 98.69 129.24 112.30 115.59 112.94 100.01 C 113.09 80.67 112.95 61.33 113.01 41.99 C 113.07 33.34 109.35 24.77 103.06 18.85 C 96.98 12.95 88.46 9.75 80.01 9.98 C 64.41 10.16 48.79 9.70 33.20 10.21 Z" />
<path fill="#000000" opacity="1.00" d=" M 33.27 12.34 C 48.50 11.71 63.78 12.26 79.03 12.06 C 85.37 11.89 91.83 13.30 97.14 16.85 C 105.60 22.12 110.98 31.97 110.90 41.93 C 110.95 60.64 110.95 79.35 110.90 98.07 C 110.98 108.51 105.07 118.79 95.94 123.88 C 91.17 126.75 85.57 127.97 80.04 127.93 C 66.02 127.93 51.99 127.93 37.97 127.93 C 32.43 127.99 26.81 126.76 22.04 123.86 C 12.88 118.76 6.99 108.44 7.09 97.97 C 7.08 78.98 7.01 59.98 7.13 40.99 C 7.29 26.74 19.09 13.81 33.27 12.34 M 46.05 28.20 C 46.12 34.03 46.12 39.85 46.07 45.68 C 43.73 45.67 41.40 45.68 39.07 45.72 C 39.51 50.53 38.60 55.49 39.57 60.21 C 42.17 62.86 46.26 61.27 49.53 61.64 C 52.40 64.56 55.52 67.26 58.20 70.37 C 54.57 70.32 50.95 70.29 47.33 70.36 C 47.39 72.91 47.40 75.45 47.34 78.00 C 55.54 77.79 63.79 78.44 71.95 77.65 C 71.71 77.19 71.24 76.27 71.01 75.81 C 64.06 75.49 57.09 75.77 50.13 75.68 C 50.10 75.04 50.03 73.76 49.99 73.12 C 53.59 72.90 57.20 73.08 60.80 72.92 C 60.76 71.49 60.68 69.90 62.01 68.99 C 64.51 66.52 66.98 64.00 69.56 61.61 C 72.82 61.24 77.59 63.11 79.64 59.68 C 80.14 55.05 79.62 50.37 79.93 45.72 C 77.59 45.68 75.26 45.67 72.93 45.68 C 72.89 39.86 72.87 34.03 72.96 28.21 C 63.99 28.13 55.02 28.15 46.05 28.20 Z" />
<path fill="#000000" opacity="1.00" d=" M 48.78 30.95 C 55.93 31.07 63.08 31.01 70.23 30.95 C 70.23 36.72 70.36 42.50 70.14 48.27 C 72.40 48.32 74.66 48.33 76.93 48.32 C 76.96 51.85 76.90 55.38 76.98 58.90 C 65.36 59.20 53.74 58.82 42.12 59.06 C 42.04 55.48 42.05 51.90 42.06 48.32 C 48.78 48.30 55.50 48.33 62.22 48.32 C 62.22 47.66 62.22 46.34 62.22 45.68 C 57.72 45.68 53.22 45.65 48.73 45.71 C 48.74 43.89 48.76 42.06 48.83 40.24 C 53.29 40.39 57.76 40.30 62.22 40.32 C 62.22 39.66 62.22 38.34 62.22 37.68 C 57.69 37.63 53.16 37.78 48.64 37.60 C 48.73 35.38 48.76 33.16 48.78 30.95 Z" />
<path fill="#000000" opacity="1.00" d=" M 53.21 61.71 C 57.40 61.65 61.60 61.65 65.79 61.71 C 63.66 63.70 61.56 65.72 59.54 67.83 C 57.45 65.76 55.34 63.73 53.21 61.71 Z" />
</g>
<g id="#717171ff">
<path fill="#717171" opacity="1.00" d=" M 33.20 10.21 C 48.79 9.70 64.41 10.16 80.01 9.98 C 88.46 9.75 96.98 12.95 103.06 18.85 C 109.35 24.77 113.07 33.34 113.01 41.99 C 112.95 61.33 113.09 80.67 112.94 100.01 C 112.30 115.59 98.69 129.24 83.12 129.93 C 67.41 130.09 51.69 129.98 35.98 129.98 C 20.01 129.84 5.75 116.02 5.06 100.08 C 4.93 80.35 5.02 60.61 5.02 40.88 C 5.24 25.55 17.97 11.76 33.20 10.21 M 33.27 12.34 C 19.09 13.81 7.29 26.74 7.13 40.99 C 7.01 59.98 7.08 78.98 7.09 97.97 C 6.99 108.44 12.88 118.76 22.04 123.86 C 26.81 126.76 32.43 127.99 37.97 127.93 C 51.99 127.93 66.02 127.93 80.04 127.93 C 85.57 127.97 91.17 126.75 95.94 123.88 C 105.07 118.79 110.98 108.51 110.90 98.07 C 110.95 79.35 110.95 60.64 110.90 41.93 C 110.98 31.97 105.60 22.12 97.14 16.85 C 91.83 13.30 85.37 11.89 79.03 12.06 C 63.78 12.26 48.50 11.71 33.27 12.34 Z" />
</g>
<g id="#f8fcf8ff">
<path fill="#f8fcf8" opacity="1.00" d=" M 46.05 28.20 C 55.02 28.15 63.99 28.13 72.96 28.21 C 72.87 34.03 72.89 39.86 72.93 45.68 C 75.26 45.67 77.59 45.68 79.93 45.72 C 79.62 50.37 80.14 55.05 79.64 59.68 C 77.59 63.11 72.82 61.24 69.56 61.61 C 66.98 64.00 64.51 66.52 62.01 68.99 C 60.68 69.90 60.76 71.49 60.80 72.92 C 57.20 73.08 53.59 72.90 49.99 73.12 C 50.03 73.76 50.10 75.04 50.13 75.68 C 57.09 75.77 64.06 75.49 71.01 75.81 C 71.24 76.27 71.71 77.19 71.95 77.65 C 63.79 78.44 55.54 77.79 47.34 78.00 C 47.40 75.45 47.39 72.91 47.33 70.36 C 50.95 70.29 54.57 70.32 58.20 70.37 C 55.52 67.26 52.40 64.56 49.53 61.64 C 46.26 61.27 42.17 62.86 39.57 60.21 C 38.60 55.49 39.51 50.53 39.07 45.72 C 41.40 45.68 43.73 45.67 46.07 45.68 C 46.12 39.85 46.12 34.03 46.05 28.20 M 48.78 30.95 C 48.76 33.16 48.73 35.38 48.64 37.60 C 53.16 37.78 57.69 37.63 62.22 37.68 C 62.22 38.34 62.22 39.66 62.22 40.32 C 57.76 40.30 53.29 40.39 48.83 40.24 C 48.76 42.06 48.74 43.89 48.73 45.71 C 53.22 45.65 57.72 45.68 62.22 45.68 C 62.22 46.34 62.22 47.66 62.22 48.32 C 55.50 48.33 48.78 48.30 42.06 48.32 C 42.05 51.90 42.04 55.48 42.12 59.06 C 53.74 58.82 65.36 59.20 76.98 58.90 C 76.90 55.38 76.96 51.85 76.93 48.32 C 74.66 48.33 72.40 48.32 70.14 48.27 C 70.36 42.50 70.23 36.72 70.23 30.95 C 63.08 31.01 55.93 31.07 48.78 30.95 M 53.21 61.71 C 55.34 63.73 57.45 65.76 59.54 67.83 C 61.56 65.72 63.66 63.70 65.79 61.71 C 61.60 61.65 57.40 61.65 53.21 61.71 Z" />
</g>
</svg>
