<?xml version="1.0" encoding="UTF-8" ?>
<!DOCTYPE svg PUBLIC "-//W3C//DTD SVG 1.1//EN" "http://www.w3.org/Graphics/SVG/1.1/DTD/svg11.dtd">
<svg width="117pt" height="140pt" viewBox="0 0 117 140" version="1.1" xmlns="http://www.w3.org/2000/svg">
<g id="#384450ff">
<path fill="#384450" opacity="1.00" d=" M 0.00 0.00 L 117.00 0.00 L 117.00 140.00 L 0.00 140.00 L 0.00 0.00 M 41.19 53.18 C 37.79 54.89 39.36 60.52 43.08 60.42 C 45.04 60.80 46.57 58.90 47.20 57.27 C 47.88 54.16 43.83 51.04 41.19 53.18 M 56.39 53.58 C 54.32 55.22 54.76 58.57 56.96 59.88 C 59.83 62.08 64.18 58.33 62.70 55.12 C 61.80 52.64 58.25 51.46 56.39 53.58 M 72.40 53.39 C 70.28 54.81 70.22 58.09 72.34 59.55 C 74.69 61.96 79.20 59.32 78.69 56.12 C 78.56 53.29 74.55 51.23 72.40 53.39 Z" />
</g>
<g id="#f8fcf8ff">
<path fill="#f8fcf8" opacity="1.00" d=" M 41.19 53.18 C 43.83 51.04 47.88 54.16 47.20 57.27 C 46.57 58.90 45.04 60.80 43.08 60.42 C 39.36 60.52 37.79 54.89 41.19 53.18 Z" />
<path fill="#f8fcf8" opacity="1.00" d=" M 56.39 53.58 C 58.25 51.46 61.80 52.64 62.70 55.12 C 64.18 58.33 59.83 62.08 56.96 59.88 C 54.76 58.57 54.32 55.22 56.39 53.58 Z" />
<path fill="#f8fcf8" opacity="1.00" d=" M 72.40 53.39 C 74.55 51.23 78.56 53.29 78.69 56.12 C 79.20 59.32 74.69 61.96 72.34 59.55 C 70.22 58.09 70.28 54.81 72.40 53.39 Z" />
</g>
</svg>
