<?xml version="1.0" encoding="UTF-8" ?>
<!DOCTYPE svg PUBLIC "-//W3C//DTD SVG 1.1//EN" "http://www.w3.org/Graphics/SVG/1.1/DTD/svg11.dtd">
<svg width="117pt" height="140pt" viewBox="0 0 117 140" version="1.1" xmlns="http://www.w3.org/2000/svg">
<g id="#000000ff">
<path fill="#000000" opacity="1.00" d=" M 0.00 0.00 L 117.00 0.00 L 117.00 140.00 L 0.00 140.00 L 0.00 0.00 M 33.17 10.22 C 17.95 11.79 5.21 25.58 5.02 40.91 C 4.98 60.26 4.99 79.62 5.02 98.98 C 5.14 114.95 18.95 129.25 34.91 129.92 C 50.64 130.09 66.37 129.99 82.09 129.97 C 98.04 129.80 112.28 115.98 112.93 100.06 C 113.10 80.70 112.95 61.33 113.00 41.97 C 113.11 30.94 106.93 20.15 97.44 14.56 C 91.95 11.22 85.46 9.74 79.06 9.98 C 63.77 10.18 48.45 9.69 33.17 10.22 Z" />
<path fill="#000000" opacity="1.00" d=" M 30.45 12.70 C 34.90 11.71 39.49 12.05 44.01 12.00 C 57.04 12.06 70.07 11.88 83.10 12.09 C 97.96 12.77 110.87 26.10 110.96 41.00 C 111.03 60.34 111.03 79.68 110.96 99.02 C 110.87 114.28 97.29 127.86 82.03 127.95 C 66.66 128.04 51.29 128.01 35.92 127.96 C 20.70 127.81 7.16 114.30 7.03 99.06 C 6.98 79.69 6.98 60.32 7.03 40.95 C 7.22 27.64 17.48 15.44 30.45 12.70 M 33.21 39.69 C 34.25 40.63 35.29 41.60 36.31 42.57 C 47.29 31.52 66.83 31.57 77.87 42.51 C 78.86 41.42 79.84 40.32 80.83 39.23 C 75.48 34.78 69.15 31.23 62.14 30.42 C 51.75 28.90 40.65 32.17 33.21 39.69 M 39.90 46.09 C 41.10 47.27 42.30 48.46 43.51 49.64 C 50.66 42.23 63.33 42.67 70.80 49.42 C 71.94 48.25 73.08 47.08 74.25 45.94 C 64.83 37.33 49.19 37.22 39.90 46.09 M 47.02 53.05 C 48.13 54.18 49.24 55.31 50.34 56.45 C 54.25 53.24 59.79 53.33 63.78 56.32 C 64.94 55.18 66.10 54.05 67.27 52.91 C 61.44 48.28 52.69 48.01 47.02 53.05 M 73.69 51.91 C 73.34 57.05 73.66 62.21 73.55 67.36 C 62.36 67.28 51.17 67.32 39.99 67.33 C 36.92 67.11 34.08 69.99 34.35 73.05 C 34.56 75.80 37.13 78.11 39.92 77.94 C 52.62 77.95 65.33 78.03 78.03 77.90 C 81.61 77.90 84.12 73.67 82.51 70.50 C 81.50 67.97 78.62 67.22 76.15 67.13 C 76.24 62.09 76.44 57.03 76.11 52.00 C 75.38 51.01 74.57 50.98 73.69 51.91 M 53.13 59.01 C 54.40 60.50 55.68 62.01 57.10 63.37 C 58.88 62.33 60.15 60.74 61.16 58.98 C 58.68 56.90 55.66 57.19 53.13 59.01 Z" />
<path fill="#000000" opacity="1.00" d=" M 62.60 71.60 C 63.50 70.35 65.90 72.63 64.46 73.45 C 63.55 75.18 60.66 72.69 62.60 71.60 Z" />
<path fill="#000000" opacity="1.00" d=" M 66.58 71.66 C 67.40 70.26 70.01 72.58 68.49 73.47 C 67.77 75.34 64.75 72.68 66.58 71.66 Z" />
<path fill="#000000" opacity="1.00" d=" M 70.61 71.55 C 72.19 70.20 74.24 73.47 71.91 73.86 C 70.62 74.84 69.35 72.40 70.61 71.55 Z" />
</g>
<g id="#727272ff">
<path fill="#727272" opacity="1.00" d=" M 33.17 10.22 C 48.45 9.69 63.77 10.18 79.06 9.98 C 85.46 9.74 91.95 11.22 97.44 14.56 C 106.93 20.15 113.11 30.94 113.00 41.97 C 112.95 61.33 113.10 80.70 112.93 100.06 C 112.28 115.98 98.04 129.80 82.09 129.97 C 66.37 129.99 50.64 130.09 34.91 129.92 C 18.95 129.25 5.14 114.95 5.02 98.98 C 4.99 79.62 4.98 60.26 5.02 40.91 C 5.21 25.58 17.95 11.79 33.17 10.22 M 30.45 12.70 C 17.48 15.44 7.22 27.64 7.03 40.95 C 6.98 60.32 6.98 79.69 7.03 99.06 C 7.16 114.30 20.70 127.81 35.92 127.96 C 51.29 128.01 66.66 128.04 82.03 127.95 C 97.29 127.86 110.87 114.28 110.96 99.02 C 111.03 79.68 111.03 60.34 110.96 41.00 C 110.87 26.10 97.96 12.77 83.10 12.09 C 70.07 11.88 57.04 12.06 44.01 12.00 C 39.49 12.05 34.90 11.71 30.45 12.70 Z" />
</g>
<g id="#f8fcf8ff">
<path fill="#f8fcf8" opacity="1.00" d=" M 33.21 39.69 C 40.65 32.17 51.75 28.90 62.14 30.42 C 69.15 31.23 75.48 34.78 80.83 39.23 C 79.84 40.32 78.86 41.42 77.87 42.51 C 66.83 31.57 47.29 31.52 36.31 42.57 C 35.29 41.60 34.25 40.63 33.21 39.69 Z" />
<path fill="#f8fcf8" opacity="1.00" d=" M 39.90 46.09 C 49.19 37.22 64.83 37.33 74.25 45.94 C 73.08 47.08 71.94 48.25 70.80 49.42 C 63.33 42.67 50.66 42.23 43.51 49.64 C 42.30 48.46 41.10 47.27 39.90 46.09 Z" />
<path fill="#f8fcf8" opacity="1.00" d=" M 47.02 53.05 C 52.69 48.01 61.44 48.28 67.27 52.91 C 66.10 54.05 64.94 55.18 63.78 56.32 C 59.79 53.33 54.25 53.24 50.34 56.45 C 49.24 55.31 48.13 54.18 47.02 53.05 Z" />
<path fill="#f8fcf8" opacity="1.00" d=" M 73.69 51.91 C 74.57 50.98 75.38 51.01 76.11 52.00 C 76.44 57.03 76.24 62.09 76.15 67.13 C 78.62 67.22 81.50 67.97 82.51 70.50 C 84.12 73.67 81.61 77.90 78.03 77.90 C 65.33 78.03 52.62 77.95 39.92 77.94 C 37.13 78.11 34.56 75.80 34.35 73.05 C 34.08 69.99 36.92 67.11 39.99 67.33 C 51.17 67.32 62.36 67.28 73.55 67.36 C 73.66 62.21 73.34 57.05 73.69 51.91 M 62.60 71.60 C 60.66 72.69 63.55 75.18 64.46 73.45 C 65.90 72.63 63.50 70.35 62.60 71.60 M 66.58 71.66 C 64.75 72.68 67.77 75.34 68.49 73.47 C 70.01 72.58 67.40 70.26 66.58 71.66 M 70.61 71.55 C 69.35 72.40 70.62 74.84 71.91 73.86 C 74.24 73.47 72.19 70.20 70.61 71.55 Z" />
<path fill="#f8fcf8" opacity="1.00" d=" M 53.13 59.01 C 55.66 57.19 58.68 56.90 61.16 58.98 C 60.15 60.74 58.88 62.33 57.10 63.37 C 55.68 62.01 54.40 60.50 53.13 59.01 Z" />
</g>
</svg>
