<?xml version="1.0" encoding="UTF-8" ?>
<!DOCTYPE svg PUBLIC "-//W3C//DTD SVG 1.1//EN" "http://www.w3.org/Graphics/SVG/1.1/DTD/svg11.dtd">
<svg width="117pt" height="140pt" viewBox="0 0 117 140" version="1.1" xmlns="http://www.w3.org/2000/svg">
<g id="#000000ff">
<path fill="#000000" opacity="1.00" d=" M 0.00 0.00 L 117.00 0.00 L 117.00 140.00 L 0.00 140.00 L 0.00 0.00 M 33.13 10.23 C 17.89 11.80 5.19 25.64 5.02 40.97 C 4.98 60.31 4.98 79.67 5.02 99.01 C 5.15 114.96 18.95 129.25 34.89 129.92 C 50.61 130.09 66.34 129.99 82.06 129.97 C 98.36 129.85 112.84 115.39 112.97 99.09 C 113.05 80.07 112.98 61.06 113.00 42.05 C 113.11 32.20 108.27 22.53 100.44 16.59 C 94.41 11.90 86.69 9.68 79.09 9.97 C 63.77 10.19 48.43 9.66 33.13 10.23 Z" />
<path fill="#000000" opacity="1.00" d=" M 33.25 12.35 C 48.83 11.71 64.45 12.24 80.04 12.07 C 87.95 11.89 95.86 14.84 101.61 20.30 C 107.46 25.91 110.99 33.91 110.90 42.04 C 110.98 59.69 110.89 77.34 110.95 94.99 C 111.12 100.95 110.29 107.10 107.23 112.32 C 102.24 121.82 91.73 127.95 81.04 127.90 C 66.02 127.93 50.99 127.99 35.97 127.87 C 20.78 127.73 7.29 114.30 7.13 99.10 C 7.03 79.71 7.03 60.30 7.13 40.90 C 7.34 26.70 19.11 13.81 33.25 12.35 M 50.30 28.06 C 50.33 37.69 50.33 47.32 50.30 56.96 C 44.69 61.18 43.19 69.88 47.71 75.42 C 51.88 81.21 61.36 81.48 65.86 75.94 C 70.86 70.47 69.52 61.31 63.70 56.95 C 63.67 47.32 63.67 37.69 63.70 28.06 C 59.23 28.03 54.77 28.03 50.30 28.06 M 67.85 30.89 C 67.84 31.52 67.81 32.76 67.79 33.38 C 69.67 33.68 71.57 33.49 73.45 33.24 C 73.23 30.11 70.05 30.65 67.85 30.89 M 67.82 37.87 C 66.53 41.75 71.27 40.22 73.43 40.19 C 73.23 37.07 70.01 37.55 67.82 37.87 M 67.81 47.24 C 69.65 47.45 71.51 47.33 73.35 47.20 C 73.79 43.60 66.16 43.42 67.81 47.24 M 67.81 51.76 C 66.51 55.62 71.11 53.99 73.29 54.18 C 73.47 50.91 69.98 51.42 67.81 51.76 Z" />
<path fill="#000000" opacity="1.00" d=" M 52.93 30.77 C 55.64 30.77 58.36 30.77 61.07 30.77 C 60.91 40.04 60.90 49.30 61.05 58.56 C 63.01 60.05 64.98 61.77 65.77 64.19 C 67.80 69.33 64.52 75.81 59.08 77.00 C 53.49 78.54 47.72 73.59 47.66 67.97 C 47.34 64.07 49.84 60.67 52.92 58.58 C 53.10 49.32 53.10 40.04 52.93 30.77 M 55.66 46.75 C 55.70 51.29 55.65 55.84 55.73 60.39 C 53.60 61.53 51.30 62.91 50.62 65.40 C 49.13 69.58 52.57 74.53 57.02 74.49 C 61.44 74.51 64.88 69.57 63.38 65.43 C 62.71 62.93 60.43 61.51 58.28 60.40 C 58.35 55.85 58.30 51.30 58.34 46.74 C 57.67 46.74 56.33 46.75 55.66 46.75 Z" />
</g>
<g id="#717171ff">
<path fill="#717171" opacity="1.00" d=" M 33.13 10.23 C 48.43 9.66 63.77 10.19 79.09 9.97 C 86.69 9.68 94.41 11.90 100.44 16.59 C 108.27 22.53 113.11 32.20 113.00 42.05 C 112.98 61.06 113.05 80.07 112.97 99.09 C 112.84 115.39 98.36 129.85 82.06 129.97 C 66.34 129.99 50.61 130.09 34.89 129.92 C 18.95 129.25 5.15 114.96 5.02 99.01 C 4.98 79.67 4.98 60.31 5.02 40.97 C 5.19 25.64 17.89 11.80 33.13 10.23 M 33.25 12.35 C 19.11 13.81 7.34 26.70 7.13 40.90 C 7.03 60.30 7.03 79.71 7.13 99.10 C 7.29 114.30 20.78 127.73 35.97 127.87 C 50.99 127.99 66.02 127.93 81.04 127.90 C 91.73 127.95 102.24 121.82 107.23 112.32 C 110.29 107.10 111.12 100.95 110.95 94.99 C 110.89 77.34 110.98 59.69 110.90 42.04 C 110.99 33.91 107.46 25.91 101.61 20.30 C 95.86 14.84 87.95 11.89 80.04 12.07 C 64.45 12.24 48.83 11.71 33.25 12.35 Z" />
</g>
<g id="#f8fcf8ff">
<path fill="#f8fcf8" opacity="1.00" d=" M 50.30 28.06 C 54.77 28.03 59.23 28.03 63.70 28.06 C 63.67 37.69 63.67 47.32 63.70 56.95 C 69.52 61.31 70.86 70.47 65.86 75.94 C 61.36 81.48 51.88 81.21 47.71 75.42 C 43.19 69.88 44.69 61.18 50.30 56.96 C 50.33 47.32 50.33 37.69 50.30 28.06 M 52.93 30.77 C 53.10 40.04 53.10 49.32 52.92 58.58 C 49.84 60.67 47.34 64.07 47.66 67.97 C 47.72 73.59 53.49 78.54 59.08 77.00 C 64.52 75.81 67.80 69.33 65.77 64.19 C 64.98 61.77 63.01 60.05 61.05 58.56 C 60.90 49.30 60.91 40.04 61.07 30.77 C 58.36 30.77 55.64 30.77 52.93 30.77 Z" />
<path fill="#f8fcf8" opacity="1.00" d=" M 55.66 46.75 C 56.33 46.75 57.67 46.74 58.34 46.74 C 58.30 51.30 58.35 55.85 58.28 60.40 C 60.43 61.51 62.71 62.93 63.38 65.43 C 64.88 69.57 61.44 74.51 57.02 74.49 C 52.57 74.53 49.13 69.58 50.62 65.40 C 51.30 62.91 53.60 61.53 55.73 60.39 C 55.65 55.84 55.70 51.29 55.66 46.75 Z" />
</g>
<g id="#f1f4f1ff">
<path fill="#f1f4f1" opacity="1.00" d=" M 67.85 30.89 C 70.05 30.65 73.23 30.11 73.45 33.24 C 71.57 33.49 69.67 33.68 67.79 33.38 C 67.81 32.76 67.84 31.52 67.85 30.89 Z" />
</g>
<g id="#f2f5f2ff">
<path fill="#f2f5f2" opacity="1.00" d=" M 67.82 37.87 C 70.01 37.55 73.23 37.07 73.43 40.19 C 71.27 40.22 66.53 41.75 67.82 37.87 Z" />
</g>
<g id="#f2f6f2ff">
<path fill="#f2f6f2" opacity="1.00" d=" M 67.81 47.24 C 66.16 43.42 73.79 43.60 73.35 47.20 C 71.51 47.33 69.65 47.45 67.81 47.24 Z" />
<path fill="#f2f6f2" opacity="1.00" d=" M 67.81 51.76 C 69.98 51.42 73.47 50.91 73.29 54.18 C 71.11 53.99 66.51 55.62 67.81 51.76 Z" />
</g>
</svg>
