<?xml version="1.0" encoding="UTF-8" ?>
<!DOCTYPE svg PUBLIC "-//W3C//DTD SVG 1.1//EN" "http://www.w3.org/Graphics/SVG/1.1/DTD/svg11.dtd">
<svg width="117pt" height="140pt" viewBox="0 0 117 140" version="1.1" xmlns="http://www.w3.org/2000/svg">
<g id="#000000ff">
<path fill="#000000" opacity="1.00" d=" M 0.00 0.00 L 117.00 0.00 L 117.00 140.00 L 0.00 140.00 L 0.00 0.00 M 33.21 10.21 C 17.95 11.76 5.19 25.60 5.02 40.96 C 4.98 60.33 4.99 79.71 5.02 99.09 C 5.19 115.02 19.00 129.26 34.92 129.93 C 50.61 130.08 66.31 129.99 82.00 129.97 C 95.52 129.80 108.07 119.96 111.73 106.99 C 113.27 102.14 113.02 97.01 113.00 91.99 C 112.99 75.32 113.00 58.64 113.00 41.97 C 113.06 33.36 109.38 24.84 103.14 18.92 C 97.03 12.96 88.46 9.74 79.96 9.98 C 64.38 10.16 48.78 9.70 33.21 10.21 Z" />
<path fill="#000000" opacity="1.00" d=" M 30.47 12.70 C 34.59 11.78 38.83 12.02 43.01 12.00 C 56.35 12.06 69.70 11.89 83.03 12.08 C 97.92 12.74 110.87 26.09 110.96 41.01 C 111.03 60.35 111.03 79.68 110.96 99.02 C 110.88 114.66 96.64 128.40 81.01 127.98 C 65.65 127.97 50.28 128.10 34.92 127.91 C 20.05 127.24 7.13 113.89 7.03 98.99 C 6.98 79.66 6.98 60.32 7.03 40.99 C 7.20 27.67 17.47 15.44 30.47 12.70 M 41.74 43.77 C 39.49 45.30 42.67 46.82 43.40 48.21 C 46.17 47.00 48.90 45.56 51.94 45.15 C 57.01 44.35 62.17 46.33 66.13 49.44 C 68.33 46.94 69.83 43.93 71.66 41.17 C 66.42 37.06 59.36 37.03 53.05 37.77 C 48.87 38.74 44.83 40.78 41.74 43.77 M 67.15 51.01 C 70.65 54.29 71.29 59.09 71.97 63.58 C 75.69 63.58 79.41 63.58 83.13 63.57 C 84.34 55.03 79.50 46.76 72.86 41.74 C 71.10 44.92 69.25 48.04 67.15 51.01 M 33.84 58.63 C 34.45 59.00 35.66 59.75 36.27 60.13 C 37.38 57.91 38.06 55.50 39.25 53.33 C 40.19 52.22 40.78 49.79 42.78 50.71 C 42.52 50.04 41.99 48.71 41.73 48.04 C 40.88 47.47 39.98 47.05 39.02 46.78 C 36.39 50.23 34.53 54.34 33.84 58.63 M 42.79 51.27 C 46.62 55.43 49.53 60.32 52.80 64.90 C 53.94 64.02 55.01 63.05 56.20 62.22 C 52.17 57.74 47.47 53.88 43.73 49.13 C 43.41 49.84 43.10 50.55 42.79 51.27 M 55.69 69.27 C 56.60 70.66 58.20 70.04 59.48 69.80 C 59.99 68.84 60.49 67.87 61.00 66.91 C 60.21 65.97 59.51 64.91 58.48 64.20 C 55.72 63.49 53.15 67.41 55.69 69.27 Z" />
<path fill="#000000" opacity="1.00" d=" M 54.69 41.10 C 56.40 40.86 58.12 40.72 59.84 40.61 C 59.73 41.03 59.51 41.86 59.40 42.28 C 57.82 41.92 56.24 41.56 54.69 41.10 Z" />
<path fill="#000000" opacity="1.00" d=" M 62.83 41.09 C 64.25 41.46 65.66 41.84 67.08 42.19 C 66.40 42.97 65.76 43.79 65.05 44.54 C 63.63 43.91 62.61 42.74 62.83 41.09 Z" />
<path fill="#000000" opacity="1.00" d=" M 72.43 49.65 C 71.84 48.65 72.80 46.49 74.12 47.06 C 74.76 48.05 73.61 49.98 72.43 49.65 Z" />
<path fill="#000000" opacity="1.00" d=" M 72.82 53.30 C 74.03 52.30 75.26 51.31 76.48 50.32 C 77.03 51.46 77.58 52.61 78.15 53.75 C 76.83 54.32 75.53 54.91 74.23 55.50 C 73.75 54.77 73.28 54.04 72.82 53.30 Z" />
<path fill="#000000" opacity="1.00" d=" M 74.28 59.91 C 75.68 58.57 77.43 57.72 79.09 56.77 C 79.27 57.86 79.49 58.95 79.75 60.03 C 77.93 60.01 76.10 59.99 74.28 59.91 Z" />
</g>
<g id="#717271ff">
<path fill="#717271" opacity="1.00" d=" M 33.21 10.21 C 48.78 9.70 64.38 10.16 79.96 9.98 C 88.46 9.74 97.03 12.96 103.14 18.92 C 109.38 24.84 113.06 33.36 113.00 41.97 C 113.00 58.64 112.99 75.32 113.00 91.99 C 113.02 97.01 113.27 102.14 111.73 106.99 C 108.07 119.96 95.52 129.80 82.00 129.97 C 66.31 129.99 50.61 130.08 34.92 129.93 C 19.00 129.26 5.19 115.02 5.02 99.09 C 4.99 79.71 4.98 60.33 5.02 40.96 C 5.19 25.60 17.95 11.76 33.21 10.21 M 30.47 12.70 C 17.47 15.44 7.20 27.67 7.03 40.99 C 6.98 60.32 6.98 79.66 7.03 98.99 C 7.13 113.89 20.05 127.24 34.92 127.91 C 50.28 128.10 65.65 127.97 81.01 127.98 C 96.64 128.40 110.88 114.66 110.96 99.02 C 111.03 79.68 111.03 60.35 110.96 41.01 C 110.87 26.09 97.92 12.74 83.03 12.08 C 69.70 11.89 56.35 12.06 43.01 12.00 C 38.83 12.02 34.59 11.78 30.47 12.70 Z" />
</g>
<g id="#f8fcf8ff">
<path fill="#f8fcf8" opacity="1.00" d=" M 41.74 43.77 C 44.83 40.78 48.87 38.74 53.05 37.77 C 59.36 37.03 66.42 37.06 71.66 41.17 C 69.83 43.93 68.33 46.94 66.13 49.44 C 62.17 46.33 57.01 44.35 51.94 45.15 C 48.90 45.56 46.17 47.00 43.40 48.21 C 42.67 46.82 39.49 45.30 41.74 43.77 M 54.69 41.10 C 56.24 41.56 57.82 41.92 59.40 42.28 C 59.51 41.86 59.73 41.03 59.84 40.61 C 58.12 40.72 56.40 40.86 54.69 41.10 M 62.83 41.09 C 62.61 42.74 63.63 43.91 65.05 44.54 C 65.76 43.79 66.40 42.97 67.08 42.19 C 65.66 41.84 64.25 41.46 62.83 41.09 Z" />
<path fill="#f8fcf8" opacity="1.00" d=" M 67.15 51.01 C 69.25 48.04 71.10 44.92 72.86 41.74 C 79.50 46.76 84.34 55.03 83.13 63.57 C 79.41 63.58 75.69 63.58 71.97 63.58 C 71.29 59.09 70.65 54.29 67.15 51.01 M 72.43 49.65 C 73.61 49.98 74.76 48.05 74.12 47.06 C 72.80 46.49 71.84 48.65 72.43 49.65 M 72.82 53.30 C 73.28 54.04 73.75 54.77 74.23 55.50 C 75.53 54.91 76.83 54.32 78.15 53.75 C 77.58 52.61 77.03 51.46 76.48 50.32 C 75.26 51.31 74.03 52.30 72.82 53.30 M 74.28 59.91 C 76.10 59.99 77.93 60.01 79.75 60.03 C 79.49 58.95 79.27 57.86 79.09 56.77 C 77.43 57.72 75.68 58.57 74.28 59.91 Z" />
<path fill="#f8fcf8" opacity="1.00" d=" M 33.84 58.63 C 34.53 54.34 36.39 50.23 39.02 46.78 C 39.98 47.05 40.88 47.47 41.73 48.04 C 41.99 48.71 42.52 50.04 42.78 50.71 C 40.78 49.79 40.19 52.22 39.25 53.33 C 38.06 55.50 37.38 57.91 36.27 60.13 C 35.66 59.75 34.45 59.00 33.84 58.63 Z" />
<path fill="#f8fcf8" opacity="1.00" d=" M 42.79 51.27 C 43.10 50.55 43.41 49.84 43.73 49.13 C 47.47 53.88 52.17 57.74 56.20 62.22 C 55.01 63.05 53.94 64.02 52.80 64.90 C 49.53 60.32 46.62 55.43 42.79 51.27 Z" />
<path fill="#f8fcf8" opacity="1.00" d=" M 55.69 69.27 C 53.15 67.41 55.72 63.49 58.48 64.20 C 59.51 64.91 60.21 65.97 61.00 66.91 C 60.49 67.87 59.99 68.84 59.48 69.80 C 58.20 70.04 56.60 70.66 55.69 69.27 Z" />
</g>
</svg>
