<?xml version="1.0" encoding="UTF-8" ?>
<!DOCTYPE svg PUBLIC "-//W3C//DTD SVG 1.1//EN" "http://www.w3.org/Graphics/SVG/1.1/DTD/svg11.dtd">
<svg width="117pt" height="140pt" viewBox="0 0 117 140" version="1.1" xmlns="http://www.w3.org/2000/svg">
<g id="#000000ff">
<path fill="#000000" opacity="1.00" d=" M 0.00 0.00 L 117.00 0.00 L 117.00 140.00 L 0.00 140.00 L 0.00 0.00 M 33.08 10.23 C 17.87 11.83 5.20 25.64 5.02 40.95 C 4.98 60.31 4.99 79.66 5.01 99.01 C 5.23 111.76 13.97 123.76 25.95 128.04 C 32.65 130.72 39.95 129.88 46.97 130.00 C 59.00 129.94 71.03 130.11 83.06 129.93 C 99.01 129.27 112.86 114.99 112.98 99.02 C 113.03 80.00 112.98 60.98 113.00 41.96 C 113.06 33.36 109.37 24.83 103.13 18.92 C 97.05 12.99 88.52 9.76 80.04 9.98 C 64.39 10.17 48.72 9.68 33.08 10.23 Z" />
<path fill="#000000" opacity="1.00" d=" M 30.51 12.70 C 34.58 11.77 38.78 12.03 42.93 12.00 C 56.29 12.05 69.65 11.89 83.01 12.08 C 97.93 12.73 110.90 26.12 110.97 41.07 C 111.02 60.39 111.03 79.71 110.96 99.03 C 110.86 114.29 97.27 127.85 82.01 127.95 C 66.34 128.01 50.65 128.08 34.98 127.92 C 20.09 127.27 7.15 113.94 7.03 99.02 C 6.98 79.67 6.98 60.31 7.03 40.96 C 7.22 27.63 17.50 15.41 30.51 12.70 M 45.98 41.05 C 43.13 43.94 38.03 45.51 37.53 50.04 C 38.09 54.52 43.15 56.08 46.00 58.96 C 47.83 60.97 50.54 60.57 52.88 59.93 C 53.62 57.35 54.17 54.71 54.05 52.01 C 54.54 52.00 55.51 51.99 56.00 51.98 C 56.00 51.24 56.00 49.76 56.00 49.02 C 55.51 49.01 54.52 49.00 54.02 48.99 C 54.20 45.96 53.78 42.96 52.88 40.06 C 50.54 39.43 47.80 39.01 45.98 41.05 M 63.99 41.21 C 64.00 43.81 64.00 46.40 64.00 49.00 C 63.25 49.00 61.75 49.00 61.00 49.00 C 61.00 49.75 61.00 51.25 61.00 52.00 C 61.75 52.00 63.25 52.00 64.00 52.00 C 64.00 54.27 64.00 56.53 64.00 58.79 C 66.11 59.60 68.42 61.55 70.67 59.92 C 73.39 57.88 76.12 55.83 78.72 53.63 C 81.02 51.90 80.97 47.97 78.63 46.30 C 76.07 44.12 73.36 42.11 70.69 40.07 C 68.43 38.45 66.10 40.38 63.99 41.21 M 57.00 49.00 C 57.00 49.75 57.00 51.25 57.00 52.00 C 57.75 52.00 59.25 52.00 60.00 52.00 C 60.00 51.25 60.00 49.75 60.00 49.00 C 59.25 49.00 57.75 49.00 57.00 49.00 Z" />
<path fill="#000000" opacity="1.00" d=" M 41.01 50.00 C 44.00 47.67 47.01 45.35 50.00 43.02 C 50.00 47.67 50.01 52.32 49.99 56.97 C 46.99 54.64 44.00 52.33 41.01 50.00 Z" />
<path fill="#000000" opacity="1.00" d=" M 68.00 43.04 C 71.01 45.35 74.00 47.67 76.99 50.00 C 74.00 52.33 71.00 54.65 68.01 56.97 C 67.99 52.32 68.00 47.68 68.00 43.04 Z" />
</g>
<g id="#717271ff">
<path fill="#717271" opacity="1.00" d=" M 33.08 10.23 C 48.72 9.68 64.39 10.17 80.04 9.98 C 88.52 9.76 97.05 12.99 103.13 18.92 C 109.37 24.83 113.06 33.36 113.00 41.96 C 112.98 60.98 113.03 80.00 112.98 99.02 C 112.86 114.99 99.01 129.27 83.06 129.93 C 71.03 130.11 59.00 129.94 46.97 130.00 C 39.95 129.88 32.65 130.72 25.95 128.04 C 13.97 123.76 5.23 111.76 5.01 99.01 C 4.99 79.66 4.98 60.31 5.02 40.95 C 5.20 25.64 17.87 11.83 33.08 10.23 M 30.51 12.70 C 17.50 15.41 7.22 27.63 7.03 40.96 C 6.98 60.31 6.98 79.67 7.03 99.02 C 7.15 113.94 20.09 127.27 34.98 127.92 C 50.65 128.08 66.34 128.01 82.01 127.95 C 97.27 127.85 110.86 114.29 110.96 99.03 C 111.03 79.71 111.02 60.39 110.97 41.07 C 110.90 26.12 97.93 12.73 83.01 12.08 C 69.65 11.89 56.29 12.05 42.93 12.00 C 38.78 12.03 34.58 11.77 30.51 12.70 Z" />
</g>
<g id="#f8fcf8ff">
<path fill="#f8fcf8" opacity="1.00" d=" M 45.98 41.05 C 47.80 39.01 50.54 39.43 52.88 40.06 C 53.78 42.96 54.20 45.96 54.02 48.99 C 54.52 49.00 55.51 49.01 56.00 49.02 C 56.00 49.76 56.00 51.24 56.00 51.98 C 55.51 51.99 54.54 52.00 54.05 52.01 C 54.17 54.71 53.62 57.35 52.88 59.93 C 50.54 60.57 47.83 60.97 46.00 58.96 C 43.15 56.08 38.09 54.52 37.53 50.04 C 38.03 45.51 43.13 43.94 45.98 41.05 M 41.01 50.00 C 44.00 52.33 46.99 54.64 49.99 56.97 C 50.01 52.32 50.00 47.67 50.00 43.02 C 47.01 45.35 44.00 47.67 41.01 50.00 Z" />
<path fill="#f8fcf8" opacity="1.00" d=" M 63.99 41.21 C 66.10 40.38 68.43 38.45 70.69 40.07 C 73.36 42.11 76.07 44.12 78.63 46.30 C 80.97 47.97 81.02 51.90 78.72 53.63 C 76.12 55.83 73.39 57.88 70.67 59.92 C 68.42 61.55 66.11 59.60 64.00 58.79 C 64.00 56.53 64.00 54.27 64.00 52.00 C 63.25 52.00 61.75 52.00 61.00 52.00 C 61.00 51.25 61.00 49.75 61.00 49.00 C 61.75 49.00 63.25 49.00 64.00 49.00 C 64.00 46.40 64.00 43.81 63.99 41.21 M 68.00 43.04 C 68.00 47.68 67.99 52.32 68.01 56.97 C 71.00 54.65 74.00 52.33 76.99 50.00 C 74.00 47.67 71.01 45.35 68.00 43.04 Z" />
<path fill="#f8fcf8" opacity="1.00" d=" M 57.00 49.00 C 57.75 49.00 59.25 49.00 60.00 49.00 C 60.00 49.75 60.00 51.25 60.00 52.00 C 59.25 52.00 57.75 52.00 57.00 52.00 C 57.00 51.25 57.00 49.75 57.00 49.00 Z" />
</g>
</svg>
