<?xml version="1.0" encoding="UTF-8" ?>
<!DOCTYPE svg PUBLIC "-//W3C//DTD SVG 1.1//EN" "http://www.w3.org/Graphics/SVG/1.1/DTD/svg11.dtd">
<svg width="150pt" height="80pt" viewBox="0 0 150 80" version="1.1" xmlns="http://www.w3.org/2000/svg">
<g id="#000000ff">
<path fill="#000000" opacity="1.00" d=" M 0.00 0.00 L 150.00 0.00 L 150.00 80.00 L 0.00 80.00 L 0.00 0.00 M 6.40 5.44 C 2.83 6.61 0.66 10.37 0.99 14.05 C 0.99 29.38 1.02 44.70 0.99 60.03 C 1.01 63.01 0.79 66.03 1.27 68.99 C 2.15 72.84 6.12 75.36 9.99 75.01 C 51.01 74.99 92.03 75.00 133.05 75.00 C 136.38 74.97 139.74 75.26 143.04 74.71 C 146.86 73.81 149.35 69.87 149.00 66.03 C 148.97 48.33 149.06 30.62 148.96 12.92 C 149.09 8.26 144.58 4.51 140.04 4.99 C 98.69 5.00 57.33 5.01 15.98 4.99 C 12.79 5.04 9.53 4.69 6.40 5.44 Z" />
<path fill="#000000" opacity="1.00" d=" M 7.09 7.34 C 10.03 6.75 13.05 7.03 16.02 6.99 C 57.35 7.01 98.68 6.99 140.01 7.00 C 144.57 6.36 147.82 10.79 147.03 15.05 C 146.93 32.39 147.09 49.73 146.95 67.06 C 147.11 70.72 143.49 73.46 139.99 73.00 C 96.64 73.00 53.29 73.00 9.94 73.00 C 6.44 73.45 2.90 70.67 3.06 67.03 C 2.92 49.35 3.04 31.67 3.00 13.99 C 2.77 11.19 4.24 8.13 7.09 7.34 M 44.00 28.99 C 44.08 36.32 43.84 43.65 44.10 50.97 C 45.25 52.74 49.75 52.67 49.68 50.00 C 49.79 43.01 49.63 36.02 49.74 29.02 C 47.82 29.01 45.91 28.99 44.00 28.99 M 53.26 29.02 C 53.36 36.01 53.21 43.00 53.32 49.98 C 53.23 52.66 57.69 52.72 58.90 51.00 C 59.16 43.67 58.92 36.33 59.00 28.99 C 57.09 28.99 55.18 29.01 53.26 29.02 Z" />
</g>
<g id="#6e726eff">
<path fill="#6e726e" opacity="1.00" d=" M 6.40 5.44 C 9.53 4.69 12.79 5.04 15.98 4.99 C 57.33 5.01 98.69 5.00 140.04 4.99 C 144.58 4.51 149.09 8.26 148.96 12.92 C 149.06 30.62 148.97 48.33 149.00 66.03 C 149.35 69.87 146.86 73.81 143.04 74.71 C 139.74 75.26 136.38 74.97 133.05 75.00 C 92.03 75.00 51.01 74.99 9.99 75.01 C 6.12 75.36 2.15 72.84 1.27 68.99 C 0.79 66.03 1.01 63.01 0.99 60.03 C 1.02 44.70 0.99 29.38 0.99 14.05 C 0.66 10.37 2.83 6.61 6.40 5.44 M 7.09 7.34 C 4.24 8.13 2.77 11.19 3.00 13.99 C 3.04 31.67 2.92 49.35 3.06 67.03 C 2.90 70.67 6.44 73.45 9.94 73.00 C 53.29 73.00 96.64 73.00 139.99 73.00 C 143.49 73.46 147.11 70.72 146.95 67.06 C 147.09 49.73 146.93 32.39 147.03 15.05 C 147.82 10.79 144.57 6.36 140.01 7.00 C 98.68 6.99 57.35 7.01 16.02 6.99 C 13.05 7.03 10.03 6.75 7.09 7.34 Z" />
</g>
<g id="#f8fcf8ff">
<path fill="#f8fcf8" opacity="1.00" d=" M 44.00 28.99 C 45.91 28.99 47.82 29.01 49.74 29.02 C 49.63 36.02 49.79 43.01 49.68 50.00 C 49.75 52.67 45.25 52.74 44.10 50.97 C 43.84 43.65 44.08 36.32 44.00 28.99 Z" />
<path fill="#f8fcf8" opacity="1.00" d=" M 53.26 29.02 C 55.18 29.01 57.09 28.99 59.00 28.99 C 58.92 36.33 59.16 43.67 58.90 51.00 C 57.69 52.72 53.23 52.66 53.32 49.98 C 53.21 43.00 53.36 36.01 53.26 29.02 Z" />
</g>
</svg>
