<?xml version="1.0" encoding="UTF-8" ?>
<!DOCTYPE svg PUBLIC "-//W3C//DTD SVG 1.1//EN" "http://www.w3.org/Graphics/SVG/1.1/DTD/svg11.dtd">
<svg width="117pt" height="140pt" viewBox="0 0 117 140" version="1.1" xmlns="http://www.w3.org/2000/svg">
<g id="#000000ff">
<path fill="#000000" opacity="1.00" d=" M 0.00 0.00 L 117.00 0.00 L 117.00 140.00 L 0.00 140.00 L 0.00 0.00 M 33.12 10.22 C 17.89 11.80 5.19 25.62 5.01 40.95 C 4.99 60.30 4.99 79.65 5.01 99.00 C 5.13 114.97 18.96 129.25 34.90 129.93 C 50.61 130.08 66.33 129.99 82.05 129.98 C 98.01 129.85 112.28 116.01 112.93 100.07 C 113.10 80.71 112.94 61.35 113.01 41.99 C 113.11 31.92 108.01 22.04 99.87 16.15 C 93.91 11.73 86.40 9.66 79.02 9.98 C 63.72 10.18 48.40 9.69 33.12 10.22 Z" />
<path fill="#000000" opacity="1.00" d=" M 30.53 12.70 C 35.29 11.67 40.19 12.09 45.02 12.00 C 57.71 12.06 70.39 11.87 83.07 12.10 C 97.91 12.76 110.83 26.08 110.95 40.95 C 111.06 59.62 110.97 78.28 111.00 96.95 C 111.95 112.92 98.10 127.83 82.08 127.95 C 69.72 128.07 57.36 127.97 44.99 128.00 C 38.93 127.93 32.64 128.49 26.87 126.24 C 15.56 122.27 7.20 111.02 7.04 98.99 C 6.98 79.65 6.97 60.32 7.04 40.99 C 7.20 27.65 17.51 15.41 30.53 12.70 M 47.23 40.21 C 44.47 42.11 41.85 44.21 39.30 46.38 C 37.03 48.12 37.03 51.90 39.31 53.63 C 41.87 55.81 44.51 57.91 47.27 59.82 C 48.94 61.09 51.04 60.13 52.89 60.00 C 53.63 57.41 54.03 54.74 54.11 52.05 C 54.58 52.02 55.53 51.97 56.00 51.94 C 56.00 51.22 56.00 49.78 56.00 49.06 C 55.52 49.03 54.55 48.97 54.06 48.94 C 54.11 45.92 53.75 42.91 52.89 40.00 C 51.02 39.86 48.90 38.90 47.23 40.21 M 63.99 41.21 C 64.00 43.80 64.00 46.39 64.00 48.98 C 63.25 48.99 61.75 49.01 61.00 49.02 C 61.00 49.76 61.00 51.24 61.00 51.98 C 61.75 51.99 63.25 52.01 64.00 52.02 C 64.00 54.28 64.01 56.54 63.99 58.80 C 66.09 59.60 68.54 61.56 70.71 59.82 C 73.47 57.92 76.10 55.83 78.66 53.67 C 81.00 51.94 80.98 48.11 78.68 46.36 C 76.12 44.19 73.49 42.10 70.74 40.18 C 68.54 38.45 66.10 40.38 63.99 41.21 M 57.00 49.00 C 57.00 49.75 57.00 51.25 57.00 52.00 C 57.75 52.00 59.25 52.00 60.00 52.00 C 60.00 51.25 60.00 49.75 60.00 49.00 C 59.25 49.00 57.75 49.00 57.00 49.00 Z" />
<path fill="#000000" opacity="1.00" d=" M 41.00 50.00 C 43.99 47.69 46.96 45.37 49.91 43.01 C 50.05 47.67 50.03 52.33 49.94 56.99 C 46.98 54.64 43.99 52.32 41.00 50.00 Z" />
<path fill="#000000" opacity="1.00" d=" M 68.05 43.01 C 71.02 45.35 74.01 47.67 76.99 50.00 C 74.01 52.33 71.02 54.65 68.05 56.99 C 67.97 52.33 67.97 47.67 68.05 43.01 Z" />
</g>
<g id="#7185b5ff">
<path fill="#7185b5" opacity="1.00" d=" M 33.12 10.22 C 48.40 9.69 63.72 10.18 79.02 9.98 C 86.40 9.66 93.91 11.73 99.87 16.15 C 108.01 22.04 113.11 31.92 113.01 41.99 C 112.94 61.35 113.10 80.71 112.93 100.07 C 112.28 116.01 98.01 129.85 82.05 129.98 C 66.33 129.99 50.61 130.08 34.90 129.93 C 18.96 129.25 5.13 114.97 5.01 99.00 C 4.99 79.65 4.99 60.30 5.01 40.95 C 5.19 25.62 17.89 11.80 33.12 10.22 M 30.53 12.70 C 17.51 15.41 7.20 27.65 7.04 40.99 C 6.97 60.32 6.98 79.65 7.04 98.99 C 7.20 111.02 15.56 122.27 26.87 126.24 C 32.64 128.49 38.93 127.93 44.99 128.00 C 57.36 127.97 69.72 128.07 82.08 127.95 C 98.10 127.83 111.95 112.92 111.00 96.95 C 110.97 78.28 111.06 59.62 110.95 40.95 C 110.83 26.08 97.91 12.76 83.07 12.10 C 70.39 11.87 57.71 12.06 45.02 12.00 C 40.19 12.09 35.29 11.67 30.53 12.70 Z" />
</g>
<g id="#10ec50ff">
<path fill="#10ec50" opacity="1.00" d=" M 47.23 40.21 C 48.90 38.90 51.02 39.86 52.89 40.00 C 53.75 42.91 54.11 45.92 54.06 48.94 C 54.55 48.97 55.52 49.03 56.00 49.06 C 56.00 49.78 56.00 51.22 56.00 51.94 C 55.53 51.97 54.58 52.02 54.11 52.05 C 54.03 54.74 53.63 57.41 52.89 60.00 C 51.04 60.13 48.94 61.09 47.27 59.82 C 44.51 57.91 41.87 55.81 39.31 53.63 C 37.03 51.90 37.03 48.12 39.30 46.38 C 41.85 44.21 44.47 42.11 47.23 40.21 M 41.00 50.00 C 43.99 52.32 46.98 54.64 49.94 56.99 C 50.03 52.33 50.05 47.67 49.91 43.01 C 46.96 45.37 43.99 47.69 41.00 50.00 Z" />
<path fill="#10ec50" opacity="1.00" d=" M 63.99 41.21 C 66.10 40.38 68.54 38.45 70.74 40.18 C 73.49 42.10 76.12 44.19 78.68 46.36 C 80.98 48.11 81.00 51.94 78.66 53.67 C 76.10 55.83 73.47 57.92 70.71 59.82 C 68.54 61.56 66.09 59.60 63.99 58.80 C 64.01 56.54 64.00 54.28 64.00 52.02 C 63.25 52.01 61.75 51.99 61.00 51.98 C 61.00 51.24 61.00 49.76 61.00 49.02 C 61.75 49.01 63.25 48.99 64.00 48.98 C 64.00 46.39 64.00 43.80 63.99 41.21 M 68.05 43.01 C 67.97 47.67 67.97 52.33 68.05 56.99 C 71.02 54.65 74.01 52.33 76.99 50.00 C 74.01 47.67 71.02 45.35 68.05 43.01 Z" />
<path fill="#10ec50" opacity="1.00" d=" M 57.00 49.00 C 57.75 49.00 59.25 49.00 60.00 49.00 C 60.00 49.75 60.00 51.25 60.00 52.00 C 59.25 52.00 57.75 52.00 57.00 52.00 C 57.00 51.25 57.00 49.75 57.00 49.00 Z" />
</g>
</svg>
