<?xml version="1.0" encoding="UTF-8" ?>
<!DOCTYPE svg PUBLIC "-//W3C//DTD SVG 1.1//EN" "http://www.w3.org/Graphics/SVG/1.1/DTD/svg11.dtd">
<svg width="117pt" height="140pt" viewBox="0 0 117 140" version="1.1" xmlns="http://www.w3.org/2000/svg">
<g id="#000000ff">
<path fill="#000000" opacity="1.00" d=" M 0.00 0.00 L 117.00 0.00 L 117.00 140.00 L 0.00 140.00 L 0.00 0.00 M 33.12 10.22 C 17.88 11.81 5.17 25.65 5.01 41.00 C 5.02 60.67 4.93 80.35 5.05 100.03 C 5.71 115.64 19.36 129.28 34.96 129.94 C 50.66 130.07 66.35 129.99 82.05 129.98 C 95.30 129.78 107.67 120.30 111.53 107.66 C 113.59 101.63 112.89 95.19 113.00 88.94 C 112.95 72.61 113.09 56.27 112.94 39.94 C 112.28 23.99 98.02 10.18 82.06 10.02 C 65.75 10.11 49.42 9.73 33.12 10.22 Z" />
<path fill="#000000" opacity="1.00" d=" M 30.50 12.71 C 34.92 11.70 39.49 12.06 43.99 12.00 C 57.03 12.06 70.08 11.88 83.12 12.09 C 97.96 12.81 110.84 26.10 110.96 40.98 C 111.05 59.32 110.97 77.66 111.00 96.01 C 111.18 101.39 110.29 106.90 107.68 111.67 C 102.76 121.50 92.06 128.11 81.04 127.98 C 65.69 127.97 50.33 128.09 34.98 127.92 C 20.10 127.25 7.17 113.93 7.03 99.02 C 6.98 79.65 6.98 60.28 7.03 40.92 C 7.25 27.62 17.51 15.42 30.50 12.71 M 38.58 41.59 C 36.19 43.56 33.62 45.32 31.29 47.36 C 29.00 49.11 29.03 52.96 31.33 54.68 C 33.66 56.70 36.20 58.46 38.58 60.40 C 40.67 62.37 43.54 61.03 46.00 60.89 C 46.00 58.26 46.00 55.63 46.00 53.00 C 48.00 53.00 50.00 53.00 52.00 53.00 C 52.00 52.25 52.00 50.75 52.00 50.00 C 50.00 50.00 48.00 50.00 46.00 50.00 C 46.00 47.04 46.00 44.08 46.00 41.12 C 43.56 40.95 40.66 39.62 38.58 41.59 M 70.99 41.10 C 71.01 44.07 70.99 47.03 71.00 50.00 C 68.67 50.00 66.33 50.00 64.00 50.00 C 64.00 50.75 64.00 52.25 64.00 53.00 C 66.33 53.00 68.67 53.00 71.00 53.00 C 70.99 55.63 71.01 58.26 70.99 60.89 C 73.35 61.60 76.16 61.99 78.01 59.96 C 80.86 57.04 86.01 55.51 86.47 50.93 C 85.88 46.46 80.85 44.93 78.02 42.05 C 76.17 39.98 73.36 40.42 70.99 41.10 M 53.00 50.00 C 53.00 50.75 53.00 52.25 53.00 53.00 C 53.75 53.00 55.25 53.00 56.00 53.00 C 56.00 52.25 56.00 50.75 56.00 50.00 C 55.25 50.00 53.75 50.00 53.00 50.00 M 57.00 50.00 C 57.00 50.75 57.00 52.25 57.00 53.00 C 59.00 53.00 61.00 53.00 63.00 53.00 C 63.00 52.25 63.00 50.75 63.00 50.00 C 61.00 50.00 59.00 50.00 57.00 50.00 Z" />
<path fill="#000000" opacity="1.00" d=" M 33.01 51.00 C 36.01 48.70 38.94 46.31 42.01 44.09 C 41.99 48.71 42.04 53.34 41.96 57.97 C 38.99 55.63 35.99 53.32 33.01 51.00 Z" />
<path fill="#000000" opacity="1.00" d=" M 75.00 44.81 C 77.67 46.86 80.33 48.93 82.99 51.00 C 80.33 53.07 77.67 55.13 75.00 57.18 C 75.00 53.06 75.00 48.94 75.00 44.81 Z" />
</g>
<g id="#7185b5ff">
<path fill="#7185b5" opacity="1.00" d=" M 33.12 10.22 C 49.42 9.73 65.75 10.11 82.06 10.02 C 98.02 10.18 112.28 23.99 112.94 39.94 C 113.09 56.27 112.95 72.61 113.00 88.94 C 112.89 95.19 113.59 101.63 111.53 107.66 C 107.67 120.30 95.30 129.78 82.05 129.98 C 66.35 129.99 50.66 130.07 34.96 129.94 C 19.36 129.28 5.71 115.64 5.05 100.03 C 4.93 80.35 5.02 60.67 5.01 41.00 C 5.17 25.65 17.88 11.81 33.12 10.22 M 30.50 12.71 C 17.51 15.42 7.25 27.62 7.03 40.92 C 6.98 60.28 6.98 79.65 7.03 99.02 C 7.17 113.93 20.10 127.25 34.98 127.92 C 50.33 128.09 65.69 127.97 81.04 127.98 C 92.06 128.11 102.76 121.50 107.68 111.67 C 110.29 106.90 111.18 101.39 111.00 96.01 C 110.97 77.66 111.05 59.32 110.96 40.98 C 110.84 26.10 97.96 12.81 83.12 12.09 C 70.08 11.88 57.03 12.06 43.99 12.00 C 39.49 12.06 34.92 11.70 30.50 12.71 Z" />
</g>
<g id="#f8fcf8ff">
<path fill="#f8fcf8" opacity="1.00" d=" M 38.58 41.59 C 40.66 39.62 43.56 40.95 46.00 41.12 C 46.00 44.08 46.00 47.04 46.00 50.00 C 48.00 50.00 50.00 50.00 52.00 50.00 C 52.00 50.75 52.00 52.25 52.00 53.00 C 50.00 53.00 48.00 53.00 46.00 53.00 C 46.00 55.63 46.00 58.26 46.00 60.89 C 43.54 61.03 40.67 62.37 38.58 60.40 C 36.20 58.46 33.66 56.70 31.33 54.68 C 29.03 52.96 29.00 49.11 31.29 47.36 C 33.62 45.32 36.19 43.56 38.58 41.59 M 33.01 51.00 C 35.99 53.32 38.99 55.63 41.96 57.97 C 42.04 53.34 41.99 48.71 42.01 44.09 C 38.94 46.31 36.01 48.70 33.01 51.00 Z" />
<path fill="#f8fcf8" opacity="1.00" d=" M 70.99 41.10 C 73.36 40.42 76.17 39.98 78.02 42.05 C 80.85 44.93 85.88 46.46 86.47 50.93 C 86.01 55.51 80.86 57.04 78.01 59.96 C 76.16 61.99 73.35 61.60 70.99 60.89 C 71.01 58.26 70.99 55.63 71.00 53.00 C 68.67 53.00 66.33 53.00 64.00 53.00 C 64.00 52.25 64.00 50.75 64.00 50.00 C 66.33 50.00 68.67 50.00 71.00 50.00 C 70.99 47.03 71.01 44.07 70.99 41.10 M 75.00 44.81 C 75.00 48.94 75.00 53.06 75.00 57.18 C 77.67 55.13 80.33 53.07 82.99 51.00 C 80.33 48.93 77.67 46.86 75.00 44.81 Z" />
<path fill="#f8fcf8" opacity="1.00" d=" M 53.00 50.00 C 53.75 50.00 55.25 50.00 56.00 50.00 C 56.00 50.75 56.00 52.25 56.00 53.00 C 55.25 53.00 53.75 53.00 53.00 53.00 C 53.00 52.25 53.00 50.75 53.00 50.00 Z" />
<path fill="#f8fcf8" opacity="1.00" d=" M 57.00 50.00 C 59.00 50.00 61.00 50.00 63.00 50.00 C 63.00 50.75 63.00 52.25 63.00 53.00 C 61.00 53.00 59.00 53.00 57.00 53.00 C 57.00 52.25 57.00 50.75 57.00 50.00 Z" />
</g>
</svg>
