<?xml version="1.0" encoding="UTF-8" ?>
<!DOCTYPE svg PUBLIC "-//W3C//DTD SVG 1.1//EN" "http://www.w3.org/Graphics/SVG/1.1/DTD/svg11.dtd">
<svg width="117pt" height="140pt" viewBox="0 0 117 140" version="1.1" xmlns="http://www.w3.org/2000/svg">
<g id="#000000ff">
<path fill="#000000" opacity="1.00" d=" M 0.00 0.00 L 117.00 0.00 L 117.00 140.00 L 0.00 140.00 L 0.00 0.00 M 33.21 10.23 C 17.97 11.75 5.23 25.56 5.02 40.89 C 4.96 59.92 5.02 78.96 4.99 97.99 C 4.90 108.30 10.24 118.41 18.71 124.25 C 24.32 128.21 31.21 130.18 38.05 130.02 C 52.71 129.95 67.38 130.07 82.04 129.97 C 99.14 129.89 113.94 114.04 113.02 96.99 C 112.98 78.65 113.02 60.31 113.00 41.97 C 113.10 31.41 107.48 21.10 98.67 15.33 C 92.92 11.45 85.92 9.73 79.03 9.97 C 63.76 10.19 48.46 9.67 33.21 10.23 Z" />
<path fill="#000000" opacity="1.00" d=" M 33.31 12.35 C 44.84 11.71 56.40 12.24 67.95 12.07 C 76.41 12.31 85.38 10.96 93.29 14.74 C 103.84 19.35 111.06 30.50 110.90 42.02 C 110.95 60.70 110.95 79.39 110.90 98.08 C 110.98 108.76 104.79 119.24 95.33 124.23 C 90.10 127.26 83.94 128.09 77.98 127.95 C 63.64 127.82 49.28 128.11 34.94 127.81 C 20.13 127.16 7.30 113.92 7.13 99.10 C 6.97 82.07 7.14 65.04 7.06 48.01 C 7.07 43.01 6.84 37.89 8.44 33.08 C 11.81 22.13 21.87 13.56 33.31 12.35 M 39.00 33.01 C 38.85 41.43 38.97 49.86 38.93 58.29 C 38.24 58.41 36.86 58.66 36.17 58.78 C 36.94 62.66 40.76 64.76 43.31 67.44 C 46.17 65.74 48.68 63.45 50.71 60.82 C 50.91 59.30 50.24 58.22 48.60 58.10 C 48.64 49.77 48.55 41.44 48.70 33.12 C 45.48 32.76 42.23 32.79 39.00 33.01 M 68.34 33.11 C 68.53 41.41 68.43 49.73 68.45 58.04 C 67.02 58.33 66.44 59.52 65.97 60.74 C 68.37 63.14 70.61 65.81 73.66 67.42 C 76.12 64.66 80.29 62.67 80.74 58.66 C 80.09 58.58 78.78 58.43 78.13 58.35 C 78.07 49.90 78.28 41.44 78.00 33.00 C 74.78 32.80 71.55 32.76 68.34 33.11 M 33.04 71.11 C 32.99 73.66 32.48 76.30 33.25 78.78 C 36.17 80.08 39.46 79.35 42.55 79.49 C 42.49 80.10 42.36 81.30 42.30 81.90 C 42.99 81.94 44.35 82.01 45.03 82.05 C 45.03 81.41 45.04 80.14 45.04 79.50 C 54.01 79.52 62.98 79.52 71.96 79.50 C 71.96 80.19 71.97 81.56 71.98 82.25 C 73.85 82.25 75.12 81.57 74.76 79.48 C 77.06 79.50 79.36 79.63 81.66 79.44 C 85.77 79.12 83.67 73.83 83.96 71.11 C 66.99 70.93 50.01 70.93 33.04 71.11 Z" />
<path fill="#000000" opacity="1.00" d=" M 41.93 35.97 C 43.16 35.96 44.39 35.96 45.62 35.96 C 45.84 44.40 45.12 52.89 46.05 61.30 C 45.22 62.18 44.38 63.06 43.54 63.93 C 42.87 63.11 42.16 62.31 41.56 61.43 C 42.31 52.97 41.77 44.45 41.93 35.97 Z" />
<path fill="#000000" opacity="1.00" d=" M 71.45 35.99 C 72.68 35.98 73.91 35.96 75.14 35.93 C 75.40 44.41 74.55 52.97 75.63 61.40 C 74.85 62.22 74.06 63.03 73.28 63.85 C 72.53 63.04 71.77 62.22 71.02 61.41 C 71.94 52.98 71.23 44.46 71.45 35.99 Z" />
<path fill="#000000" opacity="1.00" d=" M 35.89 74.09 C 50.96 74.10 66.04 74.10 81.11 74.09 C 81.14 74.69 81.18 75.89 81.20 76.49 C 66.07 76.48 50.93 76.48 35.80 76.49 C 35.82 75.89 35.86 74.69 35.89 74.09 Z" />
</g>
<g id="#717171ff">
<path fill="#717171" opacity="1.00" d=" M 33.21 10.23 C 48.46 9.67 63.76 10.19 79.03 9.97 C 85.92 9.73 92.92 11.45 98.67 15.33 C 107.48 21.10 113.10 31.41 113.00 41.97 C 113.02 60.31 112.98 78.65 113.02 96.99 C 113.94 114.04 99.14 129.89 82.04 129.97 C 67.38 130.07 52.71 129.95 38.05 130.02 C 31.21 130.18 24.32 128.21 18.71 124.25 C 10.24 118.41 4.90 108.30 4.99 97.99 C 5.02 78.96 4.96 59.92 5.02 40.89 C 5.23 25.56 17.97 11.75 33.21 10.23 M 33.31 12.35 C 21.87 13.56 11.81 22.13 8.44 33.08 C 6.84 37.89 7.07 43.01 7.06 48.01 C 7.14 65.04 6.97 82.07 7.13 99.10 C 7.30 113.92 20.13 127.16 34.94 127.81 C 49.28 128.11 63.64 127.82 77.98 127.95 C 83.94 128.09 90.10 127.26 95.33 124.23 C 104.79 119.24 110.98 108.76 110.90 98.08 C 110.95 79.39 110.95 60.70 110.90 42.02 C 111.06 30.50 103.84 19.35 93.29 14.74 C 85.38 10.96 76.41 12.31 67.95 12.07 C 56.40 12.24 44.84 11.71 33.31 12.35 Z" />
</g>
<g id="#f8fcf8ff">
<path fill="#f8fcf8" opacity="1.00" d=" M 39.00 33.01 C 42.23 32.79 45.48 32.76 48.70 33.12 C 48.55 41.44 48.64 49.77 48.60 58.10 C 50.24 58.22 50.91 59.30 50.71 60.82 C 48.68 63.45 46.17 65.74 43.31 67.44 C 40.76 64.76 36.94 62.66 36.17 58.78 C 36.86 58.66 38.24 58.41 38.93 58.29 C 38.97 49.86 38.85 41.43 39.00 33.01 M 41.93 35.97 C 41.77 44.45 42.31 52.97 41.56 61.43 C 42.16 62.31 42.87 63.11 43.54 63.93 C 44.38 63.06 45.22 62.18 46.05 61.30 C 45.12 52.89 45.84 44.40 45.62 35.96 C 44.39 35.96 43.16 35.96 41.93 35.97 Z" />
<path fill="#f8fcf8" opacity="1.00" d=" M 68.34 33.11 C 71.55 32.76 74.78 32.80 78.00 33.00 C 78.28 41.44 78.07 49.90 78.13 58.35 C 78.78 58.43 80.09 58.58 80.74 58.66 C 80.29 62.67 76.12 64.66 73.66 67.42 C 70.61 65.81 68.37 63.14 65.97 60.74 C 66.44 59.52 67.02 58.33 68.45 58.04 C 68.43 49.73 68.53 41.41 68.34 33.11 M 71.45 35.99 C 71.23 44.46 71.94 52.98 71.02 61.41 C 71.77 62.22 72.53 63.04 73.28 63.85 C 74.06 63.03 74.85 62.22 75.63 61.40 C 74.55 52.97 75.40 44.41 75.14 35.93 C 73.91 35.96 72.68 35.98 71.45 35.99 Z" />
<path fill="#f8fcf8" opacity="1.00" d=" M 33.04 71.11 C 50.01 70.93 66.99 70.93 83.96 71.11 C 83.67 73.83 85.77 79.12 81.66 79.44 C 79.36 79.63 77.06 79.50 74.76 79.48 C 75.12 81.57 73.85 82.25 71.98 82.25 C 71.97 81.56 71.96 80.19 71.96 79.50 C 62.98 79.52 54.01 79.52 45.04 79.50 C 45.04 80.14 45.03 81.41 45.03 82.05 C 44.35 82.01 42.99 81.94 42.30 81.90 C 42.36 81.30 42.49 80.10 42.55 79.49 C 39.46 79.35 36.17 80.08 33.25 78.78 C 32.48 76.30 32.99 73.66 33.04 71.11 M 35.89 74.09 C 35.86 74.69 35.82 75.89 35.80 76.49 C 50.93 76.48 66.07 76.48 81.20 76.49 C 81.18 75.89 81.14 74.69 81.11 74.09 C 66.04 74.10 50.96 74.10 35.89 74.09 Z" />
</g>
</svg>
