<?xml version="1.0" encoding="UTF-8" ?>
<!DOCTYPE svg PUBLIC "-//W3C//DTD SVG 1.1//EN" "http://www.w3.org/Graphics/SVG/1.1/DTD/svg11.dtd">
<svg width="117pt" height="140pt" viewBox="0 0 117 140" version="1.1" xmlns="http://www.w3.org/2000/svg">
<g id="#000000ff">
<path fill="#000000" opacity="1.00" d=" M 0.00 0.00 L 117.00 0.00 L 117.00 140.00 L 0.00 140.00 L 0.00 0.00 M 33.21 10.21 C 17.95 11.76 5.19 25.59 5.01 40.95 C 4.99 60.33 4.99 79.71 5.02 99.10 C 5.19 115.03 18.99 129.25 34.90 129.93 C 50.60 130.08 66.31 129.99 82.01 129.98 C 95.04 129.78 107.22 120.65 111.31 108.32 C 112.69 104.37 113.13 100.18 113.02 96.02 C 112.98 78.01 113.01 59.99 113.01 41.98 C 113.07 33.13 109.16 24.37 102.61 18.43 C 96.57 12.79 88.27 9.77 80.03 9.98 C 64.43 10.16 48.80 9.70 33.21 10.21 Z" />
<path fill="#000000" opacity="1.00" d=" M 33.26 12.34 C 48.83 11.72 64.43 12.24 80.01 12.07 C 87.95 11.84 95.87 14.87 101.64 20.33 C 107.45 25.94 110.99 33.90 110.91 42.02 C 110.97 60.01 110.90 78.01 110.94 96.00 C 111.09 101.64 110.09 107.39 107.23 112.32 C 102.24 121.81 91.72 127.98 81.02 127.90 C 66.68 127.97 52.35 127.91 38.01 127.93 C 32.22 127.99 26.36 126.63 21.44 123.50 C 12.62 118.32 7.01 108.22 7.09 98.01 C 7.03 80.33 7.10 62.65 7.06 44.97 C 7.06 41.28 7.11 37.53 8.17 33.96 C 11.27 22.62 21.53 13.62 33.26 12.34 M 47.49 50.40 C 44.98 51.21 44.03 54.83 46.31 56.43 C 48.78 58.44 52.89 55.28 51.65 52.44 C 50.87 51.02 49.17 49.73 47.49 50.40 M 58.53 50.69 C 54.36 52.28 57.93 59.11 61.66 56.55 C 65.50 54.68 62.10 48.46 58.53 50.69 M 70.52 50.41 C 68.41 51.16 67.05 54.24 69.20 55.76 C 70.70 58.17 75.00 56.91 74.94 54.08 C 75.35 51.88 72.66 49.57 70.52 50.41 Z" />
</g>
<g id="#717171ff">
<path fill="#717171" opacity="1.00" d=" M 33.21 10.21 C 48.80 9.70 64.43 10.16 80.03 9.98 C 88.27 9.77 96.57 12.79 102.61 18.43 C 109.16 24.37 113.07 33.13 113.01 41.98 C 113.01 59.99 112.98 78.01 113.02 96.02 C 113.13 100.18 112.69 104.37 111.31 108.32 C 107.22 120.65 95.04 129.78 82.01 129.98 C 66.31 129.99 50.60 130.08 34.90 129.93 C 18.99 129.25 5.19 115.03 5.02 99.10 C 4.99 79.71 4.99 60.33 5.01 40.95 C 5.19 25.59 17.95 11.76 33.21 10.21 M 33.26 12.34 C 21.53 13.62 11.27 22.62 8.17 33.96 C 7.11 37.53 7.06 41.28 7.06 44.97 C 7.10 62.65 7.03 80.33 7.09 98.01 C 7.01 108.22 12.62 118.32 21.44 123.50 C 26.36 126.63 32.22 127.99 38.01 127.93 C 52.35 127.91 66.68 127.97 81.02 127.90 C 91.72 127.98 102.24 121.81 107.23 112.32 C 110.09 107.39 111.09 101.64 110.94 96.00 C 110.90 78.01 110.97 60.01 110.91 42.02 C 110.99 33.90 107.45 25.94 101.64 20.33 C 95.87 14.87 87.95 11.84 80.01 12.07 C 64.43 12.24 48.83 11.72 33.26 12.34 Z" />
</g>
<g id="#f8fcf8ff">
<path fill="#f8fcf8" opacity="1.00" d=" M 47.49 50.40 C 49.17 49.73 50.87 51.02 51.65 52.44 C 52.89 55.28 48.78 58.44 46.31 56.43 C 44.03 54.83 44.98 51.21 47.49 50.40 Z" />
<path fill="#f8fcf8" opacity="1.00" d=" M 58.53 50.69 C 62.10 48.46 65.50 54.68 61.66 56.55 C 57.93 59.11 54.36 52.28 58.53 50.69 Z" />
<path fill="#f8fcf8" opacity="1.00" d=" M 70.52 50.41 C 72.66 49.57 75.35 51.88 74.94 54.08 C 75.00 56.91 70.70 58.17 69.20 55.76 C 67.05 54.24 68.41 51.16 70.52 50.41 Z" />
</g>
</svg>
