<?xml version="1.0" encoding="UTF-8" ?>
<!DOCTYPE svg PUBLIC "-//W3C//DTD SVG 1.1//EN" "http://www.w3.org/Graphics/SVG/1.1/DTD/svg11.dtd">
<svg width="117pt" height="140pt" viewBox="0 0 117 140" version="1.1" xmlns="http://www.w3.org/2000/svg">
<g id="#000000ff">
<path fill="#000000" opacity="1.00" d=" M 0.00 0.00 L 117.00 0.00 L 117.00 140.00 L 0.00 140.00 L 0.00 0.00 M 33.16 10.21 C 17.91 11.78 5.18 25.63 5.01 40.97 C 5.02 60.65 4.93 80.34 5.05 100.02 C 5.70 115.98 19.97 129.83 35.95 129.99 C 51.64 129.97 67.34 130.08 83.04 129.94 C 98.63 129.30 112.28 115.65 112.94 100.07 C 113.09 80.71 112.94 61.36 113.01 42.00 C 113.07 33.35 109.36 24.78 103.08 18.85 C 97.00 12.96 88.50 9.75 80.05 9.98 C 64.43 10.17 48.78 9.70 33.16 10.21 Z" />
<path fill="#000000" opacity="1.00" d=" M 30.53 12.70 C 33.96 11.92 37.50 11.98 40.99 12.00 C 55.03 12.06 69.08 11.88 83.12 12.09 C 97.95 12.81 110.83 26.10 110.96 40.97 C 111.04 59.97 110.99 78.98 110.99 97.98 C 111.39 113.25 98.29 127.26 83.03 127.90 C 70.70 128.12 58.36 127.94 46.02 128.00 C 39.37 127.91 32.42 128.63 26.13 125.96 C 14.88 121.68 6.82 110.14 7.01 98.06 C 7.01 79.03 6.97 60.00 7.03 40.98 C 7.22 27.64 17.51 15.40 30.53 12.70 M 45.93 41.09 C 43.11 43.97 38.05 45.50 37.53 49.99 C 37.95 54.33 42.77 55.84 45.49 58.56 C 47.40 60.71 50.31 60.84 52.87 59.92 C 53.64 57.35 54.17 54.71 54.04 52.01 C 54.53 52.00 55.51 51.99 56.00 51.98 C 56.00 51.24 56.00 49.76 56.00 49.02 C 55.50 49.01 54.51 48.99 54.01 48.99 C 54.21 45.96 53.78 42.96 52.88 40.08 C 50.53 39.38 47.74 39.03 45.93 41.09 M 63.99 41.23 C 64.01 43.82 63.99 46.41 64.00 49.00 C 63.25 49.00 61.75 49.00 61.00 49.00 C 61.00 49.75 61.00 51.25 61.00 52.00 C 61.75 52.00 63.25 52.00 64.00 52.00 C 64.00 54.26 64.01 56.52 63.99 58.78 C 66.10 59.64 68.52 61.57 70.76 59.87 C 73.41 57.83 76.12 55.84 78.67 53.67 C 80.99 51.95 80.99 48.08 78.69 46.34 C 76.11 44.14 73.37 42.15 70.69 40.06 C 68.43 38.49 66.08 40.33 63.99 41.23 M 57.00 49.00 C 57.00 49.75 57.00 51.25 57.00 52.00 C 57.75 52.00 59.25 52.00 60.00 52.00 C 60.00 51.25 60.00 49.75 60.00 49.00 C 59.25 49.00 57.75 49.00 57.00 49.00 Z" />
<path fill="#000000" opacity="1.00" d=" M 41.01 50.00 C 44.00 47.67 46.99 45.35 50.00 43.03 C 50.00 47.68 50.01 52.32 49.98 56.96 C 46.99 54.64 43.99 52.32 41.01 50.00 Z" />
<path fill="#000000" opacity="1.00" d=" M 67.99 43.13 C 71.10 45.27 73.98 47.73 76.99 50.00 C 74.01 52.32 71.01 54.63 68.04 56.97 C 67.96 52.36 68.02 47.74 67.99 43.13 Z" />
</g>
<g id="#7185b5ff">
<path fill="#7185b5" opacity="1.00" d=" M 33.16 10.21 C 48.78 9.70 64.43 10.17 80.05 9.98 C 88.50 9.75 97.00 12.96 103.08 18.85 C 109.36 24.78 113.07 33.35 113.01 42.00 C 112.94 61.36 113.09 80.71 112.94 100.07 C 112.28 115.65 98.63 129.30 83.04 129.94 C 67.34 130.08 51.64 129.97 35.95 129.99 C 19.97 129.83 5.70 115.98 5.05 100.02 C 4.93 80.34 5.02 60.65 5.01 40.97 C 5.18 25.63 17.91 11.78 33.16 10.21 M 30.53 12.70 C 17.51 15.40 7.22 27.64 7.03 40.98 C 6.97 60.00 7.01 79.03 7.01 98.06 C 6.82 110.14 14.88 121.68 26.13 125.96 C 32.42 128.63 39.37 127.91 46.02 128.00 C 58.36 127.94 70.70 128.12 83.03 127.90 C 98.29 127.26 111.39 113.25 110.99 97.98 C 110.99 78.98 111.04 59.97 110.96 40.97 C 110.83 26.10 97.95 12.81 83.12 12.09 C 69.08 11.88 55.03 12.06 40.99 12.00 C 37.50 11.98 33.96 11.92 30.53 12.70 Z" />
</g>
<g id="#f8fcf8ff">
<path fill="#f8fcf8" opacity="1.00" d=" M 45.93 41.09 C 47.74 39.03 50.53 39.38 52.88 40.08 C 53.78 42.96 54.21 45.96 54.01 48.99 C 54.51 48.99 55.50 49.01 56.00 49.02 C 56.00 49.76 56.00 51.24 56.00 51.98 C 55.51 51.99 54.53 52.00 54.04 52.01 C 54.17 54.71 53.64 57.35 52.87 59.92 C 50.31 60.84 47.40 60.71 45.49 58.56 C 42.77 55.84 37.95 54.33 37.53 49.99 C 38.05 45.50 43.11 43.97 45.93 41.09 M 41.01 50.00 C 43.99 52.32 46.99 54.64 49.98 56.96 C 50.01 52.32 50.00 47.68 50.00 43.03 C 46.99 45.35 44.00 47.67 41.01 50.00 Z" />
<path fill="#f8fcf8" opacity="1.00" d=" M 63.99 41.23 C 66.08 40.33 68.43 38.49 70.69 40.06 C 73.37 42.15 76.11 44.14 78.69 46.34 C 80.99 48.08 80.99 51.95 78.67 53.67 C 76.12 55.84 73.41 57.83 70.76 59.87 C 68.52 61.57 66.10 59.64 63.99 58.78 C 64.01 56.52 64.00 54.26 64.00 52.00 C 63.25 52.00 61.75 52.00 61.00 52.00 C 61.00 51.25 61.00 49.75 61.00 49.00 C 61.75 49.00 63.25 49.00 64.00 49.00 C 63.99 46.41 64.01 43.82 63.99 41.23 M 67.99 43.13 C 68.02 47.74 67.96 52.36 68.04 56.97 C 71.01 54.63 74.01 52.32 76.99 50.00 C 73.98 47.73 71.10 45.27 67.99 43.13 Z" />
<path fill="#f8fcf8" opacity="1.00" d=" M 57.00 49.00 C 57.75 49.00 59.25 49.00 60.00 49.00 C 60.00 49.75 60.00 51.25 60.00 52.00 C 59.25 52.00 57.75 52.00 57.00 52.00 C 57.00 51.25 57.00 49.75 57.00 49.00 Z" />
</g>
</svg>
