<?xml version="1.0" encoding="UTF-8" ?>
<!DOCTYPE svg PUBLIC "-//W3C//DTD SVG 1.1//EN" "http://www.w3.org/Graphics/SVG/1.1/DTD/svg11.dtd">
<svg width="117pt" height="140pt" viewBox="0 0 117 140" version="1.1" xmlns="http://www.w3.org/2000/svg">
<g id="#000000ff">
<path fill="#000000" opacity="1.00" d=" M 0.00 0.00 L 117.00 0.00 L 117.00 140.00 L 0.00 140.00 L 0.00 0.00 M 33.20 10.21 C 17.94 11.76 5.17 25.61 5.02 40.98 C 4.97 59.98 5.02 78.98 4.99 97.98 C 4.88 108.30 10.25 118.43 18.73 124.27 C 24.32 128.19 31.18 130.20 38.01 130.02 C 53.03 129.92 68.05 130.12 83.07 129.93 C 98.65 129.26 112.30 115.64 112.93 100.05 C 113.10 80.68 112.95 61.30 113.00 41.93 C 113.09 31.87 107.97 22.00 99.83 16.12 C 94.14 11.96 87.06 9.80 80.03 9.98 C 64.42 10.16 48.80 9.71 33.20 10.21 Z" />
<path fill="#000000" opacity="1.00" d=" M 33.22 12.24 C 49.50 11.71 65.81 12.10 82.09 12.04 C 97.32 12.22 110.86 25.74 110.96 40.98 C 111.02 60.33 111.02 79.67 110.96 99.02 C 110.86 114.28 97.25 127.87 81.99 127.95 C 66.64 128.04 51.29 128.02 35.94 127.97 C 20.71 127.81 7.17 114.28 7.03 99.04 C 6.98 79.67 6.98 60.30 7.03 40.93 C 7.23 26.66 19.06 13.78 33.22 12.24 M 34.57 54.88 C 38.28 58.83 43.09 61.97 48.53 62.74 C 48.15 64.63 46.46 67.00 48.43 68.55 C 52.61 73.24 59.25 73.87 64.70 76.27 C 68.56 77.13 72.10 79.09 76.12 79.28 C 80.41 78.23 83.17 73.46 81.45 69.27 C 78.06 60.76 77.17 50.38 69.22 44.55 C 68.08 44.77 67.01 45.23 65.96 45.73 C 64.63 40.22 61.12 35.75 56.91 32.11 C 49.49 39.73 41.48 46.82 34.57 54.88 Z" />
<path fill="#000000" opacity="1.00" d=" M 55.75 37.46 C 56.32 36.76 57.17 36.46 58.01 36.23 C 61.84 40.53 63.10 46.27 64.47 51.72 C 65.89 50.39 67.25 49.01 68.53 47.55 C 70.10 48.93 71.81 50.32 72.67 52.28 C 74.78 58.80 77.17 65.24 79.01 71.84 C 79.31 73.84 77.49 75.10 76.26 76.33 C 72.70 76.30 69.58 74.43 66.19 73.60 C 60.72 71.44 54.42 70.54 50.05 66.29 C 51.50 64.80 52.95 63.30 54.26 61.68 C 49.62 60.20 44.70 59.16 40.57 56.46 C 39.79 55.81 38.12 54.58 39.59 53.64 C 44.97 48.24 50.38 42.87 55.75 37.46 Z" />
</g>
<g id="#6a6e6aff">
<path fill="#6a6e6a" opacity="1.00" d=" M 33.20 10.21 C 48.80 9.71 64.42 10.16 80.03 9.98 C 87.06 9.80 94.14 11.96 99.83 16.12 C 107.97 22.00 113.09 31.87 113.00 41.93 C 112.95 61.30 113.10 80.68 112.93 100.05 C 112.30 115.64 98.65 129.26 83.07 129.93 C 68.05 130.12 53.03 129.92 38.01 130.02 C 31.18 130.20 24.32 128.19 18.73 124.27 C 10.25 118.43 4.88 108.30 4.99 97.98 C 5.02 78.98 4.97 59.98 5.02 40.98 C 5.17 25.61 17.94 11.76 33.20 10.21 M 33.22 12.24 C 19.06 13.78 7.23 26.66 7.03 40.93 C 6.98 60.30 6.98 79.67 7.03 99.04 C 7.17 114.28 20.71 127.81 35.94 127.97 C 51.29 128.02 66.64 128.04 81.99 127.95 C 97.25 127.87 110.86 114.28 110.96 99.02 C 111.02 79.67 111.02 60.33 110.96 40.98 C 110.86 25.74 97.32 12.22 82.09 12.04 C 65.81 12.10 49.50 11.71 33.22 12.24 Z" />
</g>
<g id="#f8fcf8ff">
<path fill="#f8fcf8" opacity="1.00" d=" M 34.57 54.88 C 41.48 46.82 49.49 39.73 56.91 32.11 C 61.12 35.75 64.63 40.22 65.96 45.73 C 67.01 45.23 68.08 44.77 69.22 44.55 C 77.17 50.38 78.06 60.76 81.45 69.27 C 83.17 73.46 80.41 78.23 76.12 79.28 C 72.10 79.09 68.56 77.13 64.70 76.27 C 59.25 73.87 52.61 73.24 48.43 68.55 C 46.46 67.00 48.15 64.63 48.53 62.74 C 43.09 61.97 38.28 58.83 34.57 54.88 M 55.75 37.46 C 50.38 42.87 44.97 48.24 39.59 53.64 C 38.12 54.58 39.79 55.81 40.57 56.46 C 44.70 59.16 49.62 60.20 54.26 61.68 C 52.95 63.30 51.50 64.80 50.05 66.29 C 54.42 70.54 60.72 71.44 66.19 73.60 C 69.58 74.43 72.70 76.30 76.26 76.33 C 77.49 75.10 79.31 73.84 79.01 71.84 C 77.17 65.24 74.78 58.80 72.67 52.28 C 71.81 50.32 70.10 48.93 68.53 47.55 C 67.25 49.01 65.89 50.39 64.47 51.72 C 63.10 46.27 61.84 40.53 58.01 36.23 C 57.17 36.46 56.32 36.76 55.75 37.46 Z" />
</g>
</svg>
