<?xml version="1.0" encoding="UTF-8" ?>
<!DOCTYPE svg PUBLIC "-//W3C//DTD SVG 1.1//EN" "http://www.w3.org/Graphics/SVG/1.1/DTD/svg11.dtd">
<svg width="117pt" height="140pt" viewBox="0 0 117 140" version="1.1" xmlns="http://www.w3.org/2000/svg">
<g id="#000000ff">
<path fill="#000000" opacity="1.00" d=" M 0.00 0.00 L 117.00 0.00 L 117.00 140.00 L 0.00 140.00 L 0.00 0.00 M 33.16 10.21 C 17.93 11.78 5.19 25.60 5.02 40.93 C 4.98 60.30 4.99 79.67 5.02 99.03 C 5.15 115.01 18.99 129.26 34.93 129.94 C 50.29 130.09 65.66 129.96 81.02 130.00 C 93.90 130.17 106.24 121.68 110.82 109.67 C 113.72 102.81 112.91 95.25 113.00 88.00 C 112.94 71.98 113.11 55.95 112.93 39.93 C 112.28 23.96 97.98 10.15 82.01 10.02 C 65.73 10.11 49.43 9.73 33.16 10.21 Z" />
<path fill="#000000" opacity="1.00" d=" M 33.21 12.24 C 49.48 11.71 65.79 12.10 82.08 12.04 C 97.32 12.21 110.86 25.74 110.96 41.00 C 111.02 60.35 111.03 79.70 110.96 99.04 C 110.85 114.27 97.28 127.83 82.06 127.95 C 66.71 128.05 51.36 128.01 36.01 127.97 C 20.75 127.85 7.15 114.29 7.03 99.02 C 6.98 79.66 6.98 60.30 7.03 40.95 C 7.21 26.67 19.05 13.79 33.21 12.24 M 44.68 32.24 C 44.12 37.89 45.34 43.50 48.55 48.22 C 47.90 48.37 46.62 48.67 45.97 48.82 C 45.64 49.32 44.98 50.32 44.65 50.82 C 44.64 53.86 44.74 57.03 46.16 59.80 C 48.83 65.12 51.51 70.44 54.26 75.72 C 55.88 79.03 60.03 80.90 63.48 79.27 C 67.24 77.26 68.38 72.84 70.33 69.37 C 72.95 63.50 77.43 57.86 76.66 51.05 C 76.31 49.20 74.45 48.48 72.83 48.09 C 75.83 43.36 77.19 37.86 76.74 32.27 C 72.85 31.84 68.88 31.35 65.00 32.14 C 58.27 31.49 51.43 31.69 44.68 32.24 Z" />
<path fill="#000000" opacity="1.00" d=" M 47.61 35.11 C 56.35 35.19 65.09 35.05 73.83 35.19 C 74.05 41.16 70.35 46.09 67.93 51.24 C 69.89 51.24 71.86 51.24 73.82 51.25 C 73.72 53.91 73.53 56.66 72.23 59.05 C 69.61 64.16 67.15 69.36 64.43 74.42 C 63.34 77.01 59.45 77.89 57.70 75.52 C 55.68 72.66 54.40 69.36 52.74 66.30 C 50.46 61.51 47.01 56.89 47.59 51.28 C 49.52 51.27 51.45 51.28 53.38 51.28 C 50.90 46.12 47.00 41.16 47.61 35.11 Z" />
</g>
<g id="#6a6e6aff">
<path fill="#6a6e6a" opacity="1.00" d=" M 33.16 10.21 C 49.43 9.73 65.73 10.11 82.01 10.02 C 97.98 10.15 112.28 23.96 112.93 39.93 C 113.11 55.95 112.94 71.98 113.00 88.00 C 112.91 95.25 113.72 102.81 110.82 109.67 C 106.24 121.68 93.90 130.17 81.02 130.00 C 65.66 129.96 50.29 130.09 34.93 129.94 C 18.99 129.26 5.15 115.01 5.02 99.03 C 4.99 79.67 4.98 60.30 5.02 40.93 C 5.19 25.60 17.93 11.78 33.16 10.21 M 33.21 12.24 C 19.05 13.79 7.21 26.67 7.03 40.95 C 6.98 60.30 6.98 79.66 7.03 99.02 C 7.15 114.29 20.75 127.85 36.01 127.97 C 51.36 128.01 66.71 128.05 82.06 127.95 C 97.28 127.83 110.85 114.27 110.96 99.04 C 111.03 79.70 111.02 60.35 110.96 41.00 C 110.86 25.74 97.32 12.21 82.08 12.04 C 65.79 12.10 49.48 11.71 33.21 12.24 Z" />
</g>
<g id="#f8fcf8ff">
<path fill="#f8fcf8" opacity="1.00" d=" M 44.68 32.24 C 51.43 31.69 58.27 31.49 65.00 32.14 C 68.88 31.35 72.85 31.84 76.74 32.27 C 77.19 37.86 75.83 43.36 72.83 48.09 C 74.45 48.48 76.31 49.20 76.66 51.05 C 77.43 57.86 72.95 63.50 70.33 69.37 C 68.38 72.84 67.24 77.26 63.48 79.27 C 60.03 80.90 55.88 79.03 54.26 75.72 C 51.51 70.44 48.83 65.12 46.16 59.80 C 44.74 57.03 44.64 53.86 44.65 50.82 C 44.98 50.32 45.64 49.32 45.97 48.82 C 46.62 48.67 47.90 48.37 48.55 48.22 C 45.34 43.50 44.12 37.89 44.68 32.24 M 47.61 35.11 C 47.00 41.16 50.90 46.12 53.38 51.28 C 51.45 51.28 49.52 51.27 47.59 51.28 C 47.01 56.89 50.46 61.51 52.74 66.30 C 54.40 69.36 55.68 72.66 57.70 75.52 C 59.45 77.89 63.34 77.01 64.43 74.42 C 67.15 69.36 69.61 64.16 72.23 59.05 C 73.53 56.66 73.72 53.91 73.82 51.25 C 71.86 51.24 69.89 51.24 67.93 51.24 C 70.35 46.09 74.05 41.16 73.83 35.19 C 65.09 35.05 56.35 35.19 47.61 35.11 Z" />
</g>
</svg>
