<?xml version="1.0" encoding="UTF-8" ?>
<!DOCTYPE svg PUBLIC "-//W3C//DTD SVG 1.1//EN" "http://www.w3.org/Graphics/SVG/1.1/DTD/svg11.dtd">
<svg width="117pt" height="140pt" viewBox="0 0 117 140" version="1.1" xmlns="http://www.w3.org/2000/svg">
<g id="#000000ff">
<path fill="#000000" opacity="1.00" d=" M 0.00 0.00 L 117.00 0.00 L 117.00 140.00 L 0.00 140.00 L 0.00 0.00 M 33.22 10.22 C 17.97 11.75 5.21 25.58 5.02 40.92 C 4.98 60.28 4.99 79.64 5.02 99.00 C 5.14 114.98 18.98 129.27 34.94 129.93 C 50.64 130.08 66.34 129.99 82.03 129.97 C 98.01 129.85 112.31 115.97 112.93 100.00 C 113.10 80.66 112.95 61.32 113.00 41.98 C 113.19 29.13 104.70 16.79 92.71 12.22 C 85.22 9.05 76.95 10.19 69.05 10.00 C 57.11 10.15 45.15 9.70 33.22 10.22 Z" />
<path fill="#000000" opacity="1.00" d=" M 33.29 12.34 C 48.50 11.71 63.76 12.26 78.99 12.06 C 85.33 11.89 91.80 13.28 97.12 16.84 C 105.60 22.12 110.98 31.98 110.90 41.97 C 110.95 60.64 110.95 79.31 110.91 97.98 C 111.02 108.71 104.81 119.25 95.29 124.25 C 90.37 127.07 84.61 128.04 78.98 127.94 C 64.30 127.84 49.62 128.10 34.94 127.81 C 20.12 127.16 7.28 113.90 7.13 99.06 C 7.03 79.68 7.03 60.30 7.13 40.92 C 7.33 26.69 19.12 13.79 33.29 12.34 M 46.04 28.20 C 46.14 34.03 46.09 39.85 46.09 45.67 C 43.76 45.67 41.43 45.68 39.09 45.71 C 39.47 50.53 38.62 55.48 39.57 60.23 C 42.20 62.83 46.26 61.28 49.54 61.65 C 52.51 64.51 55.41 67.45 58.37 70.33 C 54.70 70.33 51.02 70.30 47.34 70.34 C 47.39 72.90 47.39 75.45 47.35 78.00 C 55.60 77.83 63.87 78.37 72.10 77.69 C 71.80 77.23 71.22 76.31 70.92 75.85 C 63.99 75.42 57.02 75.83 50.07 75.65 C 50.05 75.01 50.02 73.75 50.00 73.12 C 53.59 73.00 57.18 73.04 60.77 73.04 C 60.79 72.32 60.83 70.88 60.85 70.16 C 63.65 67.47 66.24 64.56 69.18 62.02 C 72.37 60.78 76.73 63.07 79.42 60.23 C 80.38 55.49 79.53 50.53 79.91 45.71 C 77.57 45.68 75.24 45.67 72.91 45.67 C 72.91 39.85 72.87 34.02 72.96 28.20 C 63.98 28.15 55.01 28.14 46.04 28.20 Z" />
<path fill="#000000" opacity="1.00" d=" M 48.75 31.04 C 55.92 30.83 63.08 31.12 70.25 31.03 C 70.24 36.78 70.34 42.54 70.16 48.28 C 72.43 48.31 74.70 48.33 76.98 48.36 C 76.92 51.88 76.92 55.40 76.96 58.92 C 65.32 59.02 53.67 59.05 42.04 58.92 C 42.08 55.39 42.07 51.86 42.04 48.33 C 48.77 48.29 55.50 48.34 62.22 48.32 C 62.22 47.66 62.22 46.34 62.22 45.68 C 57.72 45.68 53.22 45.67 48.72 45.69 C 48.74 43.89 48.75 42.10 48.76 40.30 C 53.25 40.33 57.73 40.32 62.22 40.32 C 62.22 39.66 62.22 38.34 62.22 37.68 C 57.73 37.68 53.23 37.66 48.74 37.70 C 48.74 35.48 48.74 33.26 48.75 31.04 M 59.04 49.94 C 58.60 51.00 58.14 52.05 57.67 53.09 C 58.97 51.86 60.36 50.61 62.32 50.96 C 61.72 53.74 58.77 54.87 57.64 57.36 C 59.60 57.24 61.89 57.94 63.56 56.56 C 62.43 56.49 60.18 56.36 59.05 56.30 C 60.83 54.95 64.11 53.24 62.56 50.49 C 61.39 50.28 60.22 50.10 59.04 49.94 Z" />
<path fill="#000000" opacity="1.00" d=" M 53.17 61.69 C 57.39 61.67 61.60 61.67 65.82 61.69 C 63.68 63.70 61.57 65.73 59.51 67.82 C 57.43 65.74 55.32 63.69 53.17 61.69 Z" />
</g>
<g id="#717171ff">
<path fill="#717171" opacity="1.00" d=" M 33.22 10.22 C 45.15 9.70 57.11 10.15 69.05 10.00 C 76.95 10.19 85.22 9.05 92.71 12.22 C 104.70 16.79 113.19 29.13 113.00 41.98 C 112.95 61.32 113.10 80.66 112.93 100.00 C 112.31 115.97 98.01 129.85 82.03 129.97 C 66.34 129.99 50.64 130.08 34.94 129.93 C 18.98 129.27 5.14 114.98 5.02 99.00 C 4.99 79.64 4.98 60.28 5.02 40.92 C 5.21 25.58 17.97 11.75 33.22 10.22 M 33.29 12.34 C 19.12 13.79 7.33 26.69 7.13 40.92 C 7.03 60.30 7.03 79.68 7.13 99.06 C 7.28 113.90 20.12 127.16 34.94 127.81 C 49.62 128.10 64.30 127.84 78.98 127.94 C 84.61 128.04 90.37 127.07 95.29 124.25 C 104.81 119.25 111.02 108.71 110.91 97.98 C 110.95 79.31 110.95 60.64 110.90 41.97 C 110.98 31.98 105.60 22.12 97.12 16.84 C 91.80 13.28 85.33 11.89 78.99 12.06 C 63.76 12.26 48.50 11.71 33.29 12.34 Z" />
</g>
<g id="#f8fcf8ff">
<path fill="#f8fcf8" opacity="1.00" d=" M 46.04 28.20 C 55.01 28.14 63.98 28.15 72.96 28.20 C 72.87 34.02 72.91 39.85 72.91 45.67 C 75.24 45.67 77.57 45.68 79.91 45.71 C 79.53 50.53 80.38 55.49 79.42 60.23 C 76.73 63.07 72.37 60.78 69.18 62.02 C 66.24 64.56 63.65 67.47 60.85 70.16 C 60.83 70.88 60.79 72.32 60.77 73.04 C 57.18 73.04 53.59 73.00 50.00 73.12 C 50.02 73.75 50.05 75.01 50.07 75.65 C 57.02 75.83 63.99 75.42 70.92 75.85 C 71.22 76.31 71.80 77.23 72.10 77.69 C 63.87 78.37 55.60 77.83 47.35 78.00 C 47.39 75.45 47.39 72.90 47.34 70.34 C 51.02 70.30 54.70 70.33 58.37 70.33 C 55.41 67.45 52.51 64.51 49.54 61.65 C 46.26 61.28 42.20 62.83 39.57 60.23 C 38.62 55.48 39.47 50.53 39.09 45.71 C 41.43 45.68 43.76 45.67 46.09 45.67 C 46.09 39.85 46.14 34.03 46.04 28.20 M 48.75 31.04 C 48.74 33.26 48.74 35.48 48.74 37.70 C 53.23 37.66 57.73 37.68 62.22 37.68 C 62.22 38.34 62.22 39.66 62.22 40.32 C 57.73 40.32 53.25 40.33 48.76 40.30 C 48.75 42.10 48.74 43.89 48.72 45.69 C 53.22 45.67 57.72 45.68 62.22 45.68 C 62.22 46.34 62.22 47.66 62.22 48.32 C 55.50 48.34 48.77 48.29 42.04 48.33 C 42.07 51.86 42.08 55.39 42.04 58.92 C 53.67 59.05 65.32 59.02 76.96 58.92 C 76.92 55.40 76.92 51.88 76.98 48.36 C 74.70 48.33 72.43 48.31 70.16 48.28 C 70.34 42.54 70.24 36.78 70.25 31.03 C 63.08 31.12 55.92 30.83 48.75 31.04 M 53.17 61.69 C 55.32 63.69 57.43 65.74 59.51 67.82 C 61.57 65.73 63.68 63.70 65.82 61.69 C 61.60 61.67 57.39 61.67 53.17 61.69 Z" />
<path fill="#f8fcf8" opacity="1.00" d=" M 59.04 49.94 C 60.22 50.10 61.39 50.28 62.56 50.49 C 64.11 53.24 60.83 54.95 59.05 56.30 C 60.18 56.36 62.43 56.49 63.56 56.56 C 61.89 57.94 59.60 57.24 57.64 57.36 C 58.77 54.87 61.72 53.74 62.32 50.96 C 60.36 50.61 58.97 51.86 57.67 53.09 C 58.14 52.05 58.60 51.00 59.04 49.94 Z" />
</g>
</svg>
