<?xml version="1.0" encoding="UTF-8" ?>
<!DOCTYPE svg PUBLIC "-//W3C//DTD SVG 1.1//EN" "http://www.w3.org/Graphics/SVG/1.1/DTD/svg11.dtd">
<svg width="70px" height="40px" viewBox="0 0 70 40" version="1.1" xmlns="http://www.w3.org/2000/svg">
<g id="#050510ff">
<path fill="#050510" opacity="1.00" d=" M 0.00 0.00 L 2.97 0.00 C 2.13 1.14 1.14 2.15 0.00 2.99 L 0.00 0.00 Z" />
<path fill="#050510" opacity="1.00" d=" M 67.02 0.00 L 70.00 0.00 L 70.00 2.97 C 68.86 2.14 67.85 1.14 67.02 0.00 Z" />
<path fill="#050510" opacity="1.00" d=" M 0.00 37.03 C 1.14 37.86 2.15 38.86 2.99 40.00 L 0.00 40.00 L 0.00 37.03 Z" />
<path fill="#050510" opacity="1.00" d=" M 67.02 40.00 C 67.86 38.86 68.85 37.86 70.00 37.03 L 70.00 40.00 L 67.02 40.00 Z" />
</g>
<g id="#4850f8ff">
<path fill="#4850f8" opacity="1.00" d=" M 2.97 0.00 L 67.02 0.00 C 67.85 1.14 68.86 2.14 70.00 2.97 L 70.00 37.03 C 68.85 37.86 67.86 38.86 67.02 40.00 L 2.99 40.00 C 2.15 38.86 1.14 37.86 0.00 37.03 L 0.00 2.99 C 1.14 2.15 2.13 1.14 2.97 0.00 Z" />
</g>
</svg>
