<?xml version="1.0" encoding="UTF-8" ?>
<!DOCTYPE svg PUBLIC "-//W3C//DTD SVG 1.1//EN" "http://www.w3.org/Graphics/SVG/1.1/DTD/svg11.dtd">
<svg width="117pt" height="140pt" viewBox="0 0 117 140" version="1.1" xmlns="http://www.w3.org/2000/svg">
<g id="#000000ff">
<path fill="#000000" opacity="1.00" d=" M 0.00 0.00 L 117.00 0.00 L 117.00 140.00 L 0.00 140.00 L 0.00 0.00 M 32.22 10.22 C 19.73 11.54 8.67 20.97 5.27 33.04 C 3.66 38.20 3.99 43.66 3.99 48.99 C 4.02 65.33 3.99 81.67 3.99 98.01 C 3.91 108.08 9.00 117.96 17.14 123.85 C 22.84 128.05 29.94 130.19 37.00 130.03 C 51.35 129.97 65.71 130.03 80.06 130.00 C 91.87 130.11 103.33 123.02 108.56 112.44 C 111.40 107.09 112.22 100.94 112.03 94.96 C 111.96 77.31 112.03 59.66 112.00 42.01 C 112.12 31.20 106.23 20.62 97.05 14.93 C 91.42 11.30 84.65 9.74 77.99 9.97 C 62.74 10.19 47.46 9.68 32.22 10.22 Z" />
<path fill="#000000" opacity="1.00" d=" M 32.21 12.26 C 48.49 11.71 64.81 12.09 81.10 12.05 C 96.33 12.22 109.88 25.76 109.95 41.00 C 110.06 60.00 109.99 78.99 109.98 97.98 C 110.20 109.03 103.50 119.72 93.69 124.68 C 89.21 127.08 84.09 128.06 79.04 127.99 C 64.00 127.95 48.96 128.12 33.92 127.90 C 19.08 127.24 6.16 113.91 6.05 99.04 C 5.97 79.69 5.97 60.35 6.05 41.01 C 6.16 26.72 18.03 13.78 32.21 12.26 M 45.99 38.00 C 44.71 40.12 43.38 42.21 42.01 44.27 C 42.94 45.53 43.88 46.80 44.81 48.08 C 44.11 48.11 42.70 48.19 42.00 48.22 C 42.00 49.47 42.00 50.72 42.00 51.97 C 42.60 51.99 43.81 52.02 44.42 52.04 C 44.39 53.31 44.37 54.58 44.34 55.85 C 46.41 56.01 48.48 56.19 50.55 56.41 C 49.04 56.70 47.54 56.97 46.04 57.24 C 46.13 58.48 46.23 59.71 46.32 60.95 C 49.38 60.85 52.43 60.65 55.49 60.78 C 51.66 61.70 47.71 61.92 43.79 62.13 C 44.01 63.58 44.16 65.04 44.48 66.47 C 45.21 66.55 46.67 66.69 47.40 66.77 C 45.66 67.27 43.93 67.84 42.20 68.38 C 43.55 69.80 44.90 71.22 46.24 72.66 C 48.61 71.51 50.98 70.36 53.35 69.21 C 53.62 69.91 54.15 71.32 54.42 72.02 C 56.80 71.97 59.22 72.13 61.55 71.57 C 62.39 70.67 62.75 69.45 63.31 68.38 C 66.30 69.80 69.28 71.25 72.24 72.75 C 73.39 71.22 74.54 69.70 75.71 68.18 C 74.79 67.84 72.97 67.14 72.05 66.80 C 73.30 66.22 74.55 65.64 75.80 65.07 C 74.05 62.55 72.27 60.05 70.48 57.56 C 69.31 58.16 68.14 58.75 66.99 59.38 C 65.95 60.30 64.81 61.12 63.46 61.54 C 65.16 59.84 67.09 58.40 68.99 56.95 C 68.42 56.46 67.29 55.47 66.72 54.98 C 68.92 56.03 71.11 57.10 73.33 58.12 C 74.46 55.90 75.56 53.67 76.70 51.45 C 75.01 51.03 73.32 50.59 71.64 50.14 C 72.61 48.17 73.63 46.13 75.55 44.90 C 75.58 43.39 75.62 41.88 75.64 40.37 C 72.82 40.39 70.00 40.40 67.18 40.44 C 67.37 39.94 67.75 38.92 67.94 38.41 C 66.02 38.32 64.11 38.18 62.20 38.08 C 61.62 39.49 61.04 40.89 60.46 42.30 C 60.44 41.72 60.39 40.57 60.37 40.00 C 57.46 40.00 54.56 40.00 51.66 40.00 C 51.67 39.55 51.71 38.65 51.72 38.21 C 49.81 38.15 47.90 38.06 45.99 38.00 Z" />
<path fill="#000000" opacity="1.00" d=" M 60.14 47.88 C 61.09 48.82 61.97 49.83 62.83 50.86 C 61.46 51.84 60.00 52.69 58.56 53.56 C 59.37 54.53 60.19 55.49 61.01 56.46 C 59.58 56.75 58.15 57.00 56.72 57.26 C 57.16 56.80 58.04 55.88 58.48 55.42 C 58.48 54.79 58.47 53.54 58.47 52.91 C 59.74 51.52 59.91 49.66 60.14 47.88 Z" />
</g>
<g id="#6a6e6aff">
<path fill="#6a6e6a" opacity="1.00" d=" M 32.22 10.22 C 47.46 9.68 62.74 10.19 77.99 9.97 C 84.65 9.74 91.42 11.30 97.05 14.93 C 106.23 20.62 112.12 31.20 112.00 42.01 C 112.03 59.66 111.96 77.31 112.03 94.96 C 112.22 100.94 111.40 107.09 108.56 112.44 C 103.33 123.02 91.87 130.11 80.06 130.00 C 65.71 130.03 51.35 129.97 37.00 130.03 C 29.94 130.19 22.84 128.05 17.14 123.85 C 9.00 117.96 3.91 108.08 3.99 98.01 C 3.99 81.67 4.02 65.33 3.99 48.99 C 3.99 43.66 3.66 38.20 5.27 33.04 C 8.67 20.97 19.73 11.54 32.22 10.22 M 32.21 12.26 C 18.03 13.78 6.16 26.72 6.05 41.01 C 5.97 60.35 5.97 79.69 6.05 99.04 C 6.16 113.91 19.08 127.24 33.92 127.90 C 48.96 128.12 64.00 127.95 79.04 127.99 C 84.09 128.06 89.21 127.08 93.69 124.68 C 103.50 119.72 110.20 109.03 109.98 97.98 C 109.99 78.99 110.06 60.00 109.95 41.00 C 109.88 25.76 96.33 12.22 81.10 12.05 C 64.81 12.09 48.49 11.71 32.21 12.26 Z" />
</g>
<g id="#e86010ff">
<path fill="#e86010" opacity="1.00" d=" M 45.99 38.00 C 47.90 38.06 49.81 38.15 51.72 38.21 C 51.71 38.65 51.67 39.55 51.66 40.00 C 54.56 40.00 57.46 40.00 60.37 40.00 C 60.39 40.57 60.44 41.72 60.46 42.30 C 61.04 40.89 61.62 39.49 62.20 38.08 C 64.11 38.18 66.02 38.32 67.94 38.41 C 67.75 38.92 67.37 39.94 67.18 40.44 C 70.00 40.40 72.82 40.39 75.64 40.37 C 75.62 41.88 75.58 43.39 75.55 44.90 C 73.63 46.13 72.61 48.17 71.64 50.14 C 73.32 50.59 75.01 51.03 76.70 51.45 C 75.56 53.67 74.46 55.90 73.33 58.12 C 71.11 57.10 68.92 56.03 66.72 54.98 C 67.29 55.47 68.42 56.46 68.99 56.95 C 67.09 58.40 65.16 59.84 63.46 61.54 C 64.81 61.12 65.95 60.30 66.99 59.38 C 68.14 58.75 69.31 58.16 70.48 57.56 C 72.27 60.05 74.05 62.55 75.80 65.07 C 74.55 65.64 73.30 66.22 72.05 66.80 C 72.97 67.14 74.79 67.84 75.71 68.18 C 74.54 69.70 73.39 71.22 72.24 72.75 C 69.28 71.25 66.30 69.80 63.31 68.38 C 62.75 69.45 62.39 70.67 61.55 71.57 C 59.22 72.13 56.80 71.97 54.42 72.02 C 54.15 71.32 53.62 69.91 53.35 69.21 C 50.98 70.36 48.61 71.51 46.24 72.66 C 44.90 71.22 43.55 69.80 42.20 68.38 C 43.93 67.84 45.66 67.27 47.40 66.77 C 46.67 66.69 45.21 66.55 44.48 66.47 C 44.16 65.04 44.01 63.58 43.79 62.13 C 47.71 61.92 51.66 61.70 55.49 60.78 C 52.43 60.65 49.38 60.85 46.32 60.95 C 46.23 59.71 46.13 58.48 46.04 57.24 C 47.54 56.97 49.04 56.70 50.55 56.41 C 48.48 56.19 46.41 56.01 44.34 55.85 C 44.37 54.58 44.39 53.31 44.42 52.04 C 43.81 52.02 42.60 51.99 42.00 51.97 C 42.00 50.72 42.00 49.47 42.00 48.22 C 42.70 48.19 44.11 48.11 44.81 48.08 C 43.88 46.80 42.94 45.53 42.01 44.27 C 43.38 42.21 44.71 40.12 45.99 38.00 M 48.24 44.36 C 51.87 45.61 55.78 45.37 59.51 44.72 C 55.86 43.61 51.97 43.82 48.24 44.36 M 66.08 45.23 C 65.60 46.87 66.17 47.41 67.79 46.85 C 68.27 45.21 67.70 44.67 66.08 45.23 M 49.33 47.34 C 49.90 47.85 49.90 47.85 49.33 47.34 M 53.23 47.33 C 53.76 47.87 53.76 47.87 53.23 47.33 M 58.44 47.30 C 59.00 47.82 59.00 47.82 58.44 47.30 M 60.14 47.88 C 59.91 49.66 59.74 51.52 58.47 52.91 C 58.47 53.54 58.48 54.79 58.48 55.42 C 58.04 55.88 57.16 56.80 56.72 57.26 C 58.15 57.00 59.58 56.75 61.01 56.46 C 60.19 55.49 59.37 54.53 58.56 53.56 C 60.00 52.69 61.46 51.84 62.83 50.86 C 61.97 49.83 61.09 48.82 60.14 47.88 M 49.27 52.31 C 49.80 52.88 49.80 52.88 49.27 52.31 M 52.44 52.19 C 52.78 55.50 55.35 50.50 52.44 52.19 M 62.95 65.36 C 62.60 66.81 63.10 67.23 64.46 66.63 C 64.82 65.19 64.32 64.76 62.95 65.36 M 54.35 66.09 C 54.62 69.41 57.31 64.46 54.35 66.09 Z" />
</g>
<g id="#150700ff">
<path fill="#150700" opacity="1.00" d=" M 48.24 44.36 C 51.97 43.82 55.86 43.61 59.51 44.72 C 55.78 45.37 51.87 45.61 48.24 44.36 Z" />
</g>
<g id="#8e3506ff">
<path fill="#8e3506" opacity="1.00" d=" M 66.08 45.23 C 67.70 44.67 68.27 45.21 67.79 46.85 C 66.17 47.41 65.60 46.87 66.08 45.23 Z" />
</g>
<g id="#602400ff">
<path fill="#602400" opacity="1.00" d=" M 49.33 47.34 C 49.90 47.85 49.90 47.85 49.33 47.34 Z" />
<path fill="#602400" opacity="1.00" d=" M 53.23 47.33 C 53.76 47.87 53.76 47.87 53.23 47.33 Z" />
<path fill="#602400" opacity="1.00" d=" M 58.44 47.30 C 59.00 47.82 59.00 47.82 58.44 47.30 Z" />
</g>
<g id="#381000ff">
<path fill="#381000" opacity="1.00" d=" M 49.27 52.31 C 49.80 52.88 49.80 52.88 49.27 52.31 Z" />
</g>
<g id="#301200ff">
<path fill="#301200" opacity="1.00" d=" M 52.44 52.19 C 55.35 50.50 52.78 55.50 52.44 52.19 Z" />
</g>
<g id="#7b2b05ff">
<path fill="#7b2b05" opacity="1.00" d=" M 62.95 65.36 C 64.32 64.76 64.82 65.19 64.46 66.63 C 63.10 67.23 62.60 66.81 62.95 65.36 Z" />
</g>
<g id="#100200ff">
<path fill="#100200" opacity="1.00" d=" M 54.35 66.09 C 57.31 64.46 54.62 69.41 54.35 66.09 Z" />
</g>
</svg>
