<?xml version="1.0" encoding="UTF-8" ?>
<!DOCTYPE svg PUBLIC "-//W3C//DTD SVG 1.1//EN" "http://www.w3.org/Graphics/SVG/1.1/DTD/svg11.dtd">
<svg width="117pt" height="140pt" viewBox="0 0 117 140" version="1.1" xmlns="http://www.w3.org/2000/svg">
<g id="#000000ff">
<path fill="#000000" opacity="1.00" d=" M 0.00 0.00 L 117.00 0.00 L 117.00 140.00 L 0.00 140.00 L 0.00 0.00 M 33.19 10.22 C 17.92 11.77 5.16 25.64 5.02 41.01 C 4.99 60.36 4.98 79.71 5.02 99.05 C 5.17 115.01 19.00 129.28 34.95 129.93 C 50.32 130.10 65.69 129.95 81.06 130.00 C 92.88 130.12 104.33 123.00 109.56 112.42 C 112.40 107.10 113.25 100.98 113.02 95.01 C 112.97 77.32 113.02 59.64 113.00 41.95 C 113.05 33.32 109.35 24.78 103.08 18.86 C 96.99 12.95 88.45 9.75 79.98 9.98 C 64.39 10.17 48.77 9.69 33.19 10.22 Z" />
<path fill="#000000" opacity="1.00" d=" M 33.32 12.34 C 48.52 11.71 63.76 12.26 78.98 12.06 C 85.33 11.89 91.81 13.29 97.14 16.85 C 105.60 22.13 110.98 31.98 110.90 41.95 C 110.93 60.97 110.99 79.99 110.87 99.02 C 110.76 114.23 97.29 127.71 82.08 127.86 C 66.70 127.98 51.32 127.96 35.94 127.87 C 20.75 127.71 7.28 114.28 7.13 99.08 C 7.03 79.71 7.03 60.34 7.13 40.96 C 7.31 26.71 19.13 13.77 33.32 12.34 M 56.11 33.54 C 55.81 37.80 56.09 42.07 56.00 46.34 C 57.65 46.30 59.31 46.28 60.96 46.25 C 60.21 41.47 61.92 36.28 59.83 31.78 C 58.48 32.02 56.60 31.87 56.11 33.54 M 41.11 40.12 C 38.51 42.00 38.96 45.52 38.33 48.30 C 37.94 56.80 38.40 65.31 38.09 73.81 C 40.95 74.01 43.82 74.03 46.68 74.00 C 47.05 74.50 47.80 75.51 48.17 76.02 C 52.11 75.99 56.06 76.00 60.00 76.00 C 60.00 75.25 60.00 73.75 60.00 73.00 C 56.35 73.00 52.71 73.00 49.06 73.00 C 49.04 72.50 48.99 71.50 48.97 71.00 C 46.31 71.00 43.66 71.00 41.00 71.00 C 41.00 66.33 41.00 61.67 41.00 57.00 C 51.70 56.99 62.40 57.03 73.09 56.97 C 74.66 57.18 76.79 56.38 77.69 58.25 C 79.25 57.31 80.31 55.37 79.63 53.57 C 78.82 49.85 78.32 46.07 77.45 42.38 C 76.70 39.53 73.39 39.47 70.99 39.50 C 68.48 39.32 66.03 39.96 63.83 41.13 C 63.80 42.93 63.98 44.73 65.04 46.26 C 60.90 48.41 56.02 48.38 51.87 46.28 C 53.03 44.80 53.09 42.94 53.14 41.15 C 49.46 39.21 45.07 39.03 41.11 40.12 M 69.40 61.44 C 62.94 63.32 61.89 73.19 67.39 76.73 C 69.49 78.56 72.52 77.95 75.06 77.89 C 81.87 76.52 83.37 66.00 77.57 62.46 C 75.22 60.80 72.09 60.67 69.40 61.44 Z" />
<path fill="#000000" opacity="1.00" d=" M 42.36 42.96 C 44.71 42.85 47.05 42.93 49.39 43.09 C 48.77 44.76 47.88 47.00 49.69 48.30 C 54.54 51.94 61.53 51.79 66.69 48.85 C 68.95 47.53 68.29 44.84 67.41 42.89 C 69.69 43.19 72.43 42.24 74.45 43.37 C 75.22 46.88 75.81 50.43 76.32 53.99 C 64.38 54.01 52.43 54.00 40.49 54.00 C 41.11 50.32 41.91 46.67 42.36 42.96 Z" />
<path fill="#000000" opacity="1.00" d=" M 69.00 63.85 C 71.31 63.19 73.71 63.24 76.03 63.83 C 74.85 65.07 73.66 66.30 72.48 67.53 C 71.33 66.30 70.15 65.08 69.00 63.85 Z" />
<path fill="#000000" opacity="1.00" d=" M 66.60 73.06 C 66.11 70.73 66.07 68.34 66.76 66.05 C 67.98 67.26 69.20 68.47 70.41 69.69 C 69.22 70.91 67.83 71.89 66.60 73.06 Z" />
<path fill="#000000" opacity="1.00" d=" M 74.61 69.66 C 75.82 68.46 77.01 67.26 78.22 66.07 C 78.98 68.37 78.93 70.79 78.26 73.11 C 77.04 71.96 75.84 70.79 74.61 69.66 Z" />
<path fill="#000000" opacity="1.00" d=" M 72.37 71.80 C 73.62 72.95 74.88 74.10 76.06 75.32 C 73.72 75.96 71.29 75.96 68.95 75.26 C 70.09 74.11 71.24 72.96 72.37 71.80 Z" />
</g>
<g id="#717171ff">
<path fill="#717171" opacity="1.00" d=" M 33.19 10.22 C 48.77 9.69 64.39 10.17 79.98 9.98 C 88.45 9.75 96.99 12.95 103.08 18.86 C 109.35 24.78 113.05 33.32 113.00 41.95 C 113.02 59.64 112.97 77.32 113.02 95.01 C 113.25 100.98 112.40 107.10 109.56 112.42 C 104.33 123.00 92.88 130.12 81.06 130.00 C 65.69 129.95 50.32 130.10 34.95 129.93 C 19.00 129.28 5.17 115.01 5.02 99.05 C 4.98 79.71 4.99 60.36 5.02 41.01 C 5.16 25.64 17.92 11.77 33.19 10.22 M 33.32 12.34 C 19.13 13.77 7.31 26.71 7.13 40.96 C 7.03 60.34 7.03 79.71 7.13 99.08 C 7.28 114.28 20.75 127.71 35.94 127.87 C 51.32 127.96 66.70 127.98 82.08 127.86 C 97.29 127.71 110.76 114.23 110.87 99.02 C 110.99 79.99 110.93 60.97 110.90 41.95 C 110.98 31.98 105.60 22.13 97.14 16.85 C 91.81 13.29 85.33 11.89 78.98 12.06 C 63.76 12.26 48.52 11.71 33.32 12.34 Z" />
</g>
<g id="#f8fcf8ff">
<path fill="#f8fcf8" opacity="1.00" d=" M 56.11 33.54 C 56.60 31.87 58.48 32.02 59.83 31.78 C 61.92 36.28 60.21 41.47 60.96 46.25 C 59.31 46.28 57.65 46.30 56.00 46.34 C 56.09 42.07 55.81 37.80 56.11 33.54 Z" />
<path fill="#f8fcf8" opacity="1.00" d=" M 41.11 40.12 C 45.07 39.03 49.46 39.21 53.14 41.15 C 53.09 42.94 53.03 44.80 51.87 46.28 C 56.02 48.38 60.90 48.41 65.04 46.26 C 63.98 44.73 63.80 42.93 63.83 41.13 C 66.03 39.96 68.48 39.32 70.99 39.50 C 73.39 39.47 76.70 39.53 77.45 42.38 C 78.32 46.07 78.82 49.85 79.63 53.57 C 80.31 55.37 79.25 57.31 77.69 58.25 C 76.79 56.38 74.66 57.18 73.09 56.97 C 62.40 57.03 51.70 56.99 41.00 57.00 C 41.00 61.67 41.00 66.33 41.00 71.00 C 43.66 71.00 46.31 71.00 48.97 71.00 C 48.99 71.50 49.04 72.50 49.06 73.00 C 52.71 73.00 56.35 73.00 60.00 73.00 C 60.00 73.75 60.00 75.25 60.00 76.00 C 56.06 76.00 52.11 75.99 48.17 76.02 C 47.80 75.51 47.05 74.50 46.68 74.00 C 43.82 74.03 40.95 74.01 38.09 73.81 C 38.40 65.31 37.94 56.80 38.33 48.30 C 38.96 45.52 38.51 42.00 41.11 40.12 M 42.36 42.96 C 41.91 46.67 41.11 50.32 40.49 54.00 C 52.43 54.00 64.38 54.01 76.32 53.99 C 75.81 50.43 75.22 46.88 74.45 43.37 C 72.43 42.24 69.69 43.19 67.41 42.89 C 68.29 44.84 68.95 47.53 66.69 48.85 C 61.53 51.79 54.54 51.94 49.69 48.30 C 47.88 47.00 48.77 44.76 49.39 43.09 C 47.05 42.93 44.71 42.85 42.36 42.96 Z" />
<path fill="#f8fcf8" opacity="1.00" d=" M 69.40 61.44 C 72.09 60.67 75.22 60.80 77.57 62.46 C 83.37 66.00 81.87 76.52 75.06 77.89 C 72.52 77.95 69.49 78.56 67.39 76.73 C 61.89 73.19 62.94 63.32 69.40 61.44 M 69.00 63.85 C 70.15 65.08 71.33 66.30 72.48 67.53 C 73.66 66.30 74.85 65.07 76.03 63.83 C 73.71 63.24 71.31 63.19 69.00 63.85 M 66.60 73.06 C 67.83 71.89 69.22 70.91 70.41 69.69 C 69.20 68.47 67.98 67.26 66.76 66.05 C 66.07 68.34 66.11 70.73 66.60 73.06 M 74.61 69.66 C 75.84 70.79 77.04 71.96 78.26 73.11 C 78.93 70.79 78.98 68.37 78.22 66.07 C 77.01 67.26 75.82 68.46 74.61 69.66 M 72.37 71.80 C 71.24 72.96 70.09 74.11 68.95 75.26 C 71.29 75.96 73.72 75.96 76.06 75.32 C 74.88 74.10 73.62 72.95 72.37 71.80 Z" />
</g>
</svg>
