<?xml version="1.0" encoding="UTF-8" ?>
<!DOCTYPE svg PUBLIC "-//W3C//DTD SVG 1.1//EN" "http://www.w3.org/Graphics/SVG/1.1/DTD/svg11.dtd">
<svg width="117px" height="140px" viewBox="0 0 117 140" version="1.1" xmlns="http://www.w3.org/2000/svg">
<g id="#000000ff">
<path fill="#000000" opacity="1.00" d=" M 0.00 0.00 L 117.00 0.00 L 117.00 140.00 L 0.00 140.00 L 0.00 0.00 M 29.39 10.46 C 15.99 13.23 5.01 25.26 4.02 38.98 C 3.96 59.31 4.03 79.64 3.99 99.97 C 4.41 115.62 18.34 129.58 33.99 130.01 C 50.67 129.96 67.35 130.05 84.03 129.97 C 99.55 128.72 112.82 114.69 112.98 99.05 C 113.02 79.69 113.02 60.32 112.98 40.96 C 112.82 25.33 99.59 11.32 84.07 10.03 C 68.38 9.94 52.69 10.04 37.00 9.98 C 34.46 9.99 31.88 9.88 29.39 10.46 Z" />
<path fill="#000000" opacity="1.00" d=" M 35.13 12.23 C 49.76 11.86 64.40 12.16 79.03 12.08 C 88.79 12.12 98.73 16.54 104.29 24.74 C 108.31 30.30 110.08 37.18 110.01 43.99 C 109.95 62.01 110.08 80.03 109.95 98.04 C 109.77 109.20 103.16 120.18 92.89 124.83 C 88.01 127.33 82.41 127.85 77.01 127.95 C 63.98 127.90 50.96 127.95 37.94 127.93 C 30.30 127.90 22.64 125.32 16.92 120.19 C 10.76 114.57 7.00 106.34 7.09 97.98 C 7.08 78.98 7.01 59.99 7.12 41.00 C 7.24 26.05 20.21 12.82 35.13 12.23 M 44.72 28.06 C 44.69 33.82 44.67 39.59 44.74 45.36 C 42.36 45.32 39.98 45.32 37.61 45.38 C 38.37 50.24 37.75 55.17 38.16 60.05 C 40.28 63.29 44.88 61.50 48.10 61.87 C 51.11 64.54 53.68 67.68 56.87 70.15 C 53.29 70.02 49.70 70.07 46.12 70.13 C 46.10 72.84 46.10 75.56 46.08 78.27 C 54.36 78.27 62.64 78.24 70.92 78.29 C 70.81 77.56 70.61 76.12 70.51 75.40 C 63.46 75.24 56.40 75.32 49.35 75.34 C 49.31 74.85 49.24 73.87 49.20 73.38 C 52.72 73.34 56.25 73.34 59.78 73.36 C 60.03 71.95 59.99 70.28 61.26 69.33 C 63.81 66.85 66.28 64.29 68.90 61.87 C 72.12 61.51 76.65 63.27 78.84 60.09 C 79.25 55.20 78.63 50.26 79.40 45.38 C 77.02 45.33 74.64 45.32 72.26 45.35 C 72.33 39.59 72.31 33.82 72.28 28.06 C 63.09 28.01 53.90 28.01 44.72 28.06 Z" />
<path fill="#000000" opacity="1.00" d=" M 47.96 31.35 C 54.98 31.34 62.01 31.35 69.04 31.35 C 69.07 37.12 69.06 42.89 69.04 48.66 C 71.27 48.68 73.50 48.68 75.74 48.67 C 75.57 52.01 75.57 55.36 75.71 58.69 C 64.24 58.62 52.76 58.62 41.29 58.70 C 41.43 55.35 41.43 52.01 41.26 48.67 C 48.03 48.66 54.80 48.71 61.57 48.67 C 61.57 47.56 61.57 46.44 61.58 45.33 C 57.03 45.30 52.49 45.31 47.95 45.33 C 47.95 43.78 47.95 42.22 47.95 40.67 C 52.49 40.69 57.03 40.70 61.57 40.67 C 61.57 39.56 61.57 38.44 61.57 37.33 C 57.03 37.30 52.49 37.31 47.95 37.34 C 47.95 35.34 47.96 33.35 47.96 31.35 Z" />
<path fill="#000000" opacity="1.00" d=" M 54.09 62.03 C 57.01 61.88 59.95 61.86 62.87 62.05 C 61.36 63.40 59.98 64.88 58.61 66.36 C 57.13 64.88 55.64 63.42 54.09 62.03 Z" />
</g>
<g id="#707470ff">
<path fill="#707470" opacity="1.00" d=" M 29.39 10.46 C 31.88 9.88 34.46 9.99 37.00 9.98 C 52.69 10.04 68.38 9.94 84.07 10.03 C 99.59 11.32 112.82 25.33 112.98 40.96 C 113.02 60.32 113.02 79.69 112.98 99.05 C 112.82 114.69 99.55 128.72 84.03 129.97 C 67.35 130.05 50.67 129.96 33.99 130.01 C 18.34 129.58 4.41 115.62 3.99 99.97 C 4.03 79.64 3.96 59.31 4.02 38.98 C 5.01 25.26 15.99 13.23 29.39 10.46 M 35.13 12.23 C 20.21 12.82 7.24 26.05 7.12 41.00 C 7.01 59.99 7.08 78.98 7.09 97.98 C 7.00 106.34 10.76 114.57 16.92 120.19 C 22.64 125.32 30.30 127.90 37.94 127.93 C 50.96 127.95 63.98 127.90 77.01 127.95 C 82.41 127.85 88.01 127.33 92.89 124.83 C 103.16 120.18 109.77 109.20 109.95 98.04 C 110.08 80.03 109.95 62.01 110.01 43.99 C 110.08 37.18 108.31 30.30 104.29 24.74 C 98.73 16.54 88.79 12.12 79.03 12.08 C 64.40 12.16 49.76 11.86 35.13 12.23 Z" />
</g>
<g id="#e86010ff">
<path fill="#e86010" opacity="1.00" d=" M 44.72 28.06 C 53.90 28.01 63.09 28.01 72.28 28.06 C 72.31 33.82 72.33 39.59 72.26 45.35 C 74.64 45.32 77.02 45.33 79.40 45.38 C 78.63 50.26 79.25 55.20 78.84 60.09 C 76.65 63.27 72.12 61.51 68.90 61.87 C 66.28 64.29 63.81 66.85 61.26 69.33 C 59.99 70.28 60.03 71.95 59.78 73.36 C 56.25 73.34 52.72 73.34 49.20 73.38 C 49.24 73.87 49.31 74.85 49.35 75.34 C 56.40 75.32 63.46 75.24 70.51 75.40 C 70.61 76.12 70.81 77.56 70.92 78.29 C 62.64 78.24 54.36 78.27 46.08 78.27 C 46.10 75.56 46.10 72.84 46.12 70.13 C 49.70 70.07 53.29 70.02 56.87 70.15 C 53.68 67.68 51.11 64.54 48.10 61.87 C 44.88 61.50 40.28 63.29 38.16 60.05 C 37.75 55.17 38.37 50.24 37.61 45.38 C 39.98 45.32 42.36 45.32 44.74 45.36 C 44.67 39.59 44.69 33.82 44.72 28.06 M 47.96 31.35 C 47.96 33.35 47.95 35.34 47.95 37.34 C 52.49 37.31 57.03 37.30 61.57 37.33 C 61.57 38.44 61.57 39.56 61.57 40.67 C 57.03 40.70 52.49 40.69 47.95 40.67 C 47.95 42.22 47.95 43.78 47.95 45.33 C 52.49 45.31 57.03 45.30 61.58 45.33 C 61.57 46.44 61.57 47.56 61.57 48.67 C 54.80 48.71 48.03 48.66 41.26 48.67 C 41.43 52.01 41.43 55.35 41.29 58.70 C 52.76 58.62 64.24 58.62 75.71 58.69 C 75.57 55.36 75.57 52.01 75.74 48.67 C 73.50 48.68 71.27 48.68 69.04 48.66 C 69.06 42.89 69.07 37.12 69.04 31.35 C 62.01 31.35 54.98 31.34 47.96 31.35 M 52.48 61.77 C 54.36 63.77 56.39 65.62 58.29 67.61 C 60.57 65.82 62.74 63.87 64.48 61.55 C 64.08 61.67 63.27 61.92 62.87 62.05 C 59.95 61.86 57.01 61.88 54.09 62.03 C 53.69 61.96 52.88 61.83 52.48 61.77 Z" />
</g>
<g id="#563b1cff">
<path fill="#563b1c" opacity="1.00" d=" M 52.48 61.77 C 52.88 61.83 53.69 61.96 54.09 62.03 C 55.64 63.42 57.13 64.88 58.61 66.36 C 59.98 64.88 61.36 63.40 62.87 62.05 C 63.27 61.92 64.08 61.67 64.48 61.55 C 62.74 63.87 60.57 65.82 58.29 67.61 C 56.39 65.62 54.36 63.77 52.48 61.77 Z" />
</g>
</svg>
