<?xml version="1.0" encoding="UTF-8" ?>
<!DOCTYPE svg PUBLIC "-//W3C//DTD SVG 1.1//EN" "http://www.w3.org/Graphics/SVG/1.1/DTD/svg11.dtd">
<svg width="117pt" height="140pt" viewBox="0 0 117 140" version="1.1" xmlns="http://www.w3.org/2000/svg">
<g id="#000000ff">
<path fill="#000000" opacity="1.00" d=" M 0.00 0.00 L 117.00 0.00 L 117.00 140.00 L 0.00 140.00 L 0.00 0.00 M 33.16 10.22 C 17.90 11.79 5.16 25.65 5.01 41.01 C 4.99 60.37 4.99 79.72 5.01 99.07 C 5.19 115.02 19.00 129.27 34.94 129.93 C 50.99 130.04 67.06 130.05 83.11 129.93 C 99.02 129.24 112.82 115.01 112.98 99.08 C 113.03 80.02 112.98 60.96 113.01 41.89 C 113.04 33.51 109.53 25.19 103.55 19.32 C 97.44 13.14 88.70 9.75 80.03 9.98 C 64.41 10.17 48.77 9.70 33.16 10.22 Z" />
<path fill="#000000" opacity="1.00" d=" M 33.24 12.35 C 48.82 11.72 64.45 12.24 80.05 12.07 C 88.21 11.86 96.38 15.06 102.16 20.84 C 107.63 26.40 110.98 34.07 110.90 41.91 C 110.97 59.59 110.90 77.27 110.94 94.94 C 111.14 100.91 110.30 107.07 107.24 112.30 C 102.27 121.81 91.75 127.95 81.06 127.91 C 65.70 127.89 50.33 128.05 34.97 127.82 C 20.14 127.17 7.27 113.91 7.13 99.04 C 7.03 79.68 7.03 60.32 7.13 40.96 C 7.31 26.73 19.09 13.82 33.24 12.35 M 60.35 27.14 C 56.38 31.08 52.44 35.03 48.50 38.98 C 50.07 41.14 52.47 41.59 55.00 41.27 C 55.00 43.29 55.00 45.31 55.00 47.33 C 53.02 47.32 51.05 47.32 49.07 47.33 C 49.18 44.90 48.61 42.43 46.69 40.81 C 42.71 44.74 38.78 48.71 34.81 52.65 C 38.74 56.61 42.72 60.51 46.61 64.50 C 47.42 63.63 48.22 62.77 49.03 61.91 C 49.01 60.60 49.00 59.30 48.99 58.00 C 50.99 58.00 53.00 58.00 55.00 58.00 C 55.00 60.01 55.00 62.01 55.00 64.02 C 52.46 63.62 50.05 64.21 48.49 66.36 C 52.51 70.28 56.37 74.35 60.46 78.19 C 64.23 74.18 68.20 70.35 72.10 66.47 C 71.78 66.07 71.12 65.28 70.79 64.89 C 69.17 64.22 67.44 64.00 65.71 63.91 C 65.71 61.94 65.71 59.97 65.71 58.00 C 67.72 58.00 69.72 58.00 71.73 58.00 C 71.38 60.53 71.86 62.93 74.02 64.51 C 77.98 60.56 81.93 56.61 85.88 52.65 C 81.95 48.73 78.04 44.81 74.11 40.89 C 73.71 41.23 72.91 41.90 72.51 42.24 C 71.99 43.89 71.59 45.59 71.66 47.33 C 69.68 47.33 67.69 47.32 65.71 47.32 C 65.71 45.33 65.72 43.33 65.73 41.34 C 67.43 41.24 69.14 41.05 70.76 40.49 C 71.10 40.09 71.76 39.30 72.10 38.91 C 68.19 34.97 64.29 31.04 60.35 27.14 Z" />
<path fill="#000000" opacity="1.00" d=" M 60.35 30.92 C 62.89 33.50 65.48 36.04 68.03 38.61 C 66.36 38.61 64.68 38.61 63.00 38.61 C 63.00 42.41 63.00 46.20 63.00 50.00 C 66.81 50.00 70.61 50.00 74.42 50.00 C 74.41 48.33 74.41 46.67 74.40 45.01 C 76.97 47.53 79.50 50.09 82.08 52.60 C 79.59 55.21 77.08 57.80 74.39 60.20 C 74.39 58.58 74.40 56.97 74.42 55.35 C 70.62 55.31 66.81 55.33 63.01 55.32 C 62.99 59.13 63.00 62.93 63.01 66.74 C 64.67 66.74 66.34 66.74 68.00 66.75 C 65.46 69.31 62.91 71.86 60.34 74.40 C 57.85 71.87 55.29 69.40 52.84 66.83 C 54.44 66.73 56.04 66.71 57.65 66.73 C 57.65 62.93 57.65 59.13 57.64 55.33 C 53.86 55.32 50.07 55.33 46.29 55.32 C 46.30 56.92 46.29 58.51 46.28 60.10 C 43.51 57.84 41.17 55.11 38.61 52.64 C 41.19 50.11 43.72 47.54 46.29 44.99 C 46.29 46.66 46.29 48.33 46.28 49.99 C 50.07 50.00 53.86 50.01 57.65 49.99 C 57.64 46.19 57.66 42.39 57.63 38.60 C 56.00 38.61 54.37 38.63 52.75 38.64 C 55.19 35.98 57.81 33.49 60.35 30.92 Z" />
</g>
<g id="#717171ff">
<path fill="#717171" opacity="1.00" d=" M 33.16 10.22 C 48.77 9.70 64.41 10.17 80.03 9.98 C 88.70 9.75 97.44 13.14 103.55 19.32 C 109.53 25.19 113.04 33.51 113.01 41.89 C 112.98 60.96 113.03 80.02 112.98 99.08 C 112.82 115.01 99.02 129.24 83.11 129.93 C 67.06 130.05 50.99 130.04 34.94 129.93 C 19.00 129.27 5.19 115.02 5.01 99.07 C 4.99 79.72 4.99 60.37 5.01 41.01 C 5.16 25.65 17.90 11.79 33.16 10.22 M 33.24 12.35 C 19.09 13.82 7.31 26.73 7.13 40.96 C 7.03 60.32 7.03 79.68 7.13 99.04 C 7.27 113.91 20.14 127.17 34.97 127.82 C 50.33 128.05 65.70 127.89 81.06 127.91 C 91.75 127.95 102.27 121.81 107.24 112.30 C 110.30 107.07 111.14 100.91 110.94 94.94 C 110.90 77.27 110.97 59.59 110.90 41.91 C 110.98 34.07 107.63 26.40 102.16 20.84 C 96.38 15.06 88.21 11.86 80.05 12.07 C 64.45 12.24 48.82 11.72 33.24 12.35 Z" />
</g>
<g id="#f8fcf8ff">
<path fill="#f8fcf8" opacity="1.00" d=" M 60.35 27.14 C 64.29 31.04 68.19 34.97 72.10 38.91 C 71.76 39.30 71.10 40.09 70.76 40.49 C 69.14 41.05 67.43 41.24 65.73 41.34 C 65.72 43.33 65.71 45.33 65.71 47.32 C 67.69 47.32 69.68 47.33 71.66 47.33 C 71.59 45.59 71.99 43.89 72.51 42.24 C 72.91 41.90 73.71 41.23 74.11 40.89 C 78.04 44.81 81.95 48.73 85.88 52.65 C 81.93 56.61 77.98 60.56 74.02 64.51 C 71.86 62.93 71.38 60.53 71.73 58.00 C 69.72 58.00 67.72 58.00 65.71 58.00 C 65.71 59.97 65.71 61.94 65.71 63.91 C 67.44 64.00 69.17 64.22 70.79 64.89 C 71.12 65.28 71.78 66.07 72.10 66.47 C 68.20 70.35 64.23 74.18 60.46 78.19 C 56.37 74.35 52.51 70.28 48.49 66.36 C 50.05 64.21 52.46 63.62 55.00 64.02 C 55.00 62.01 55.00 60.01 55.00 58.00 C 53.00 58.00 50.99 58.00 48.99 58.00 C 49.00 59.30 49.01 60.60 49.03 61.91 C 48.22 62.77 47.42 63.63 46.61 64.50 C 42.72 60.51 38.74 56.61 34.81 52.65 C 38.78 48.71 42.71 44.74 46.69 40.81 C 48.61 42.43 49.18 44.90 49.07 47.33 C 51.05 47.32 53.02 47.32 55.00 47.33 C 55.00 45.31 55.00 43.29 55.00 41.27 C 52.47 41.59 50.07 41.14 48.50 38.98 C 52.44 35.03 56.38 31.08 60.35 27.14 M 60.35 30.92 C 57.81 33.49 55.19 35.98 52.75 38.64 C 54.37 38.63 56.00 38.61 57.63 38.60 C 57.66 42.39 57.64 46.19 57.65 49.99 C 53.86 50.01 50.07 50.00 46.28 49.99 C 46.29 48.33 46.29 46.66 46.29 44.99 C 43.72 47.54 41.19 50.11 38.61 52.64 C 41.17 55.11 43.51 57.84 46.28 60.10 C 46.29 58.51 46.30 56.92 46.29 55.32 C 50.07 55.33 53.86 55.32 57.64 55.33 C 57.65 59.13 57.65 62.93 57.65 66.73 C 56.04 66.71 54.44 66.73 52.84 66.83 C 55.29 69.40 57.85 71.87 60.34 74.40 C 62.91 71.86 65.46 69.31 68.00 66.75 C 66.34 66.74 64.67 66.74 63.01 66.74 C 63.00 62.93 62.99 59.13 63.01 55.32 C 66.81 55.33 70.62 55.31 74.42 55.35 C 74.40 56.97 74.39 58.58 74.39 60.20 C 77.08 57.80 79.59 55.21 82.08 52.60 C 79.50 50.09 76.97 47.53 74.40 45.01 C 74.41 46.67 74.41 48.33 74.42 50.00 C 70.61 50.00 66.81 50.00 63.00 50.00 C 63.00 46.20 63.00 42.41 63.00 38.61 C 64.68 38.61 66.36 38.61 68.03 38.61 C 65.48 36.04 62.89 33.50 60.35 30.92 Z" />
</g>
</svg>
