<?xml version="1.0" encoding="UTF-8" ?>
<!DOCTYPE svg PUBLIC "-//W3C//DTD SVG 1.1//EN" "http://www.w3.org/Graphics/SVG/1.1/DTD/svg11.dtd">
<svg width="117px" height="140px" viewBox="0 0 117 140" version="1.1" xmlns="http://www.w3.org/2000/svg">
<g id="#000000ff">
<path fill="#000000" opacity="1.00" d=" M 0.00 0.00 L 117.00 0.00 L 117.00 140.00 L 0.00 140.00 L 0.00 0.00 M 33.19 10.22 C 17.95 11.77 5.22 25.58 5.02 40.91 C 4.98 60.28 4.99 79.64 5.02 99.01 C 5.15 114.98 18.99 129.28 34.95 129.93 C 50.66 130.08 66.37 130.00 82.08 129.97 C 98.00 129.82 112.24 116.02 112.93 100.12 C 113.11 81.07 112.93 62.01 113.02 42.96 C 113.28 34.25 109.83 25.51 103.61 19.39 C 97.50 13.16 88.73 9.75 80.03 9.98 C 64.42 10.17 48.79 9.70 33.19 10.22 Z" />
<path fill="#000000" opacity="1.00" d=" M 30.46 12.70 C 34.91 11.72 39.50 12.05 44.01 12.00 C 57.02 12.06 70.03 11.88 83.04 12.09 C 97.90 12.73 110.84 26.06 110.96 40.96 C 111.04 59.98 110.99 79.01 110.99 98.04 C 111.46 114.44 96.33 128.95 79.99 128.00 C 64.97 127.94 49.96 128.11 34.95 127.91 C 20.07 127.25 7.14 113.91 7.03 99.00 C 6.98 79.65 6.98 60.30 7.03 40.95 C 7.22 27.64 17.48 15.44 30.46 12.70 M 48.49 32.56 C 48.09 32.72 47.28 33.03 46.88 33.19 C 46.75 35.59 49.32 35.22 50.95 35.22 C 58.26 35.04 65.58 35.39 72.87 35.09 C 74.53 34.80 74.41 32.36 72.52 32.56 C 64.52 32.43 56.49 32.43 48.49 32.56 M 46.93 36.02 C 47.02 36.68 47.19 38.00 47.27 38.66 C 51.46 39.36 55.76 38.79 59.99 38.97 C 64.56 38.80 69.18 39.34 73.71 38.69 C 73.80 38.02 73.98 36.68 74.07 36.01 C 65.03 35.75 55.97 35.70 46.93 36.02 M 47.25 40.20 C 47.01 41.39 47.00 42.58 47.22 43.75 C 48.67 44.63 50.46 44.17 52.07 44.31 C 59.01 44.17 65.97 44.49 72.90 44.16 C 74.76 43.76 73.69 41.47 73.76 40.21 C 64.92 40.14 56.08 40.15 47.25 40.20 M 47.03 45.97 C 47.33 47.43 46.22 49.89 48.27 50.43 C 56.42 50.58 64.59 50.58 72.74 50.43 C 74.77 49.87 73.67 47.43 73.97 45.97 C 69.36 45.27 64.69 45.74 60.05 45.62 C 55.71 45.72 51.34 45.29 47.03 45.97 M 47.26 52.17 C 46.89 53.78 47.02 55.44 46.98 57.07 C 43.30 57.24 39.25 56.24 36.01 58.51 C 35.79 61.31 38.70 62.09 40.69 63.14 C 47.32 66.24 53.47 70.31 60.18 73.23 C 66.95 70.87 73.03 66.50 79.60 63.48 C 81.74 62.26 85.16 61.63 85.00 58.52 C 81.72 56.32 77.70 57.21 74.01 57.07 C 73.98 55.38 73.95 53.68 73.87 51.98 C 66.92 51.43 59.93 51.89 52.97 51.72 C 51.07 51.83 49.05 51.41 47.26 52.17 Z" />
<path fill="#000000" opacity="1.00" d=" M 51.03 55.87 C 57.34 55.87 63.66 55.87 69.97 55.87 C 69.95 57.59 69.93 59.31 69.96 61.04 C 71.84 61.11 73.72 61.11 75.61 61.13 C 70.35 63.34 65.59 66.55 60.41 68.95 C 55.46 66.39 50.60 63.64 45.61 61.16 C 47.42 61.12 49.23 61.11 51.04 61.03 C 51.07 59.31 51.05 57.59 51.03 55.87 Z" />
</g>
<g id="#717271ff">
<path fill="#717271" opacity="1.00" d=" M 33.19 10.22 C 48.79 9.70 64.42 10.17 80.03 9.98 C 88.73 9.75 97.50 13.16 103.61 19.39 C 109.83 25.51 113.28 34.25 113.02 42.96 C 112.93 62.01 113.11 81.07 112.93 100.12 C 112.24 116.02 98.00 129.82 82.08 129.97 C 66.37 130.00 50.66 130.08 34.95 129.93 C 18.99 129.28 5.15 114.98 5.02 99.01 C 4.99 79.64 4.98 60.28 5.02 40.91 C 5.22 25.58 17.95 11.77 33.19 10.22 M 30.46 12.70 C 17.48 15.44 7.22 27.64 7.03 40.95 C 6.98 60.30 6.98 79.65 7.03 99.00 C 7.14 113.91 20.07 127.25 34.95 127.91 C 49.96 128.11 64.97 127.94 79.99 128.00 C 96.33 128.95 111.46 114.44 110.99 98.04 C 110.99 79.01 111.04 59.98 110.96 40.96 C 110.84 26.06 97.90 12.73 83.04 12.09 C 70.03 11.88 57.02 12.06 44.01 12.00 C 39.50 12.05 34.91 11.72 30.46 12.70 Z" />
</g>
<g id="#f8fcf8ff">
<path fill="#f8fcf8" opacity="1.00" d=" M 48.49 32.56 C 56.49 32.43 64.52 32.43 72.52 32.56 C 74.41 32.36 74.53 34.80 72.87 35.09 C 65.58 35.39 58.26 35.04 50.95 35.22 C 49.32 35.22 46.75 35.59 46.88 33.19 C 47.28 33.03 48.09 32.72 48.49 32.56 Z" />
<path fill="#f8fcf8" opacity="1.00" d=" M 46.93 36.02 C 55.97 35.70 65.03 35.75 74.07 36.01 C 73.98 36.68 73.80 38.02 73.71 38.69 C 69.18 39.34 64.56 38.80 59.99 38.97 C 55.76 38.79 51.46 39.36 47.27 38.66 C 47.19 38.00 47.02 36.68 46.93 36.02 Z" />
<path fill="#f8fcf8" opacity="1.00" d=" M 47.25 40.20 C 56.08 40.15 64.92 40.14 73.76 40.21 C 73.69 41.47 74.76 43.76 72.90 44.16 C 65.97 44.49 59.01 44.17 52.07 44.31 C 50.46 44.17 48.67 44.63 47.22 43.75 C 47.00 42.58 47.01 41.39 47.25 40.20 Z" />
<path fill="#f8fcf8" opacity="1.00" d=" M 47.03 45.97 C 51.34 45.29 55.71 45.72 60.05 45.62 C 64.69 45.74 69.36 45.27 73.97 45.97 C 73.67 47.43 74.77 49.87 72.74 50.43 C 64.59 50.58 56.42 50.58 48.27 50.43 C 46.22 49.89 47.33 47.43 47.03 45.97 Z" />
<path fill="#f8fcf8" opacity="1.00" d=" M 47.26 52.17 C 49.05 51.41 51.07 51.83 52.97 51.72 C 59.93 51.89 66.92 51.43 73.87 51.98 C 73.95 53.68 73.98 55.38 74.01 57.07 C 77.70 57.21 81.72 56.32 85.00 58.52 C 85.16 61.63 81.74 62.26 79.60 63.48 C 73.03 66.50 66.95 70.87 60.18 73.23 C 53.47 70.31 47.32 66.24 40.69 63.14 C 38.70 62.09 35.79 61.31 36.01 58.51 C 39.25 56.24 43.30 57.24 46.98 57.07 C 47.02 55.44 46.89 53.78 47.26 52.17 M 51.03 55.87 C 51.05 57.59 51.07 59.31 51.04 61.03 C 49.23 61.11 47.42 61.12 45.61 61.16 C 50.60 63.64 55.46 66.39 60.41 68.95 C 65.59 66.55 70.35 63.34 75.61 61.13 C 73.72 61.11 71.84 61.11 69.96 61.04 C 69.93 59.31 69.95 57.59 69.97 55.87 C 63.66 55.87 57.34 55.87 51.03 55.87 Z" />
</g>
</svg>
