<?xml version="1.0" encoding="UTF-8" ?>
<!DOCTYPE svg PUBLIC "-//W3C//DTD SVG 1.1//EN" "http://www.w3.org/Graphics/SVG/1.1/DTD/svg11.dtd">
<svg width="117px" height="140px" viewBox="0 0 117 140" version="1.1" xmlns="http://www.w3.org/2000/svg">
<g id="#000000ff">
<path fill="#000000" opacity="1.00" d=" M 0.00 0.00 L 117.00 0.00 L 117.00 140.00 L 0.00 140.00 L 0.00 0.00 M 29.39 10.46 C 15.68 13.29 4.41 25.87 4.01 39.99 C 3.98 59.64 4.02 79.28 3.99 98.93 C 3.80 114.98 18.00 129.60 34.01 130.00 C 49.33 130.02 64.65 129.97 79.97 130.02 C 92.94 130.76 105.57 122.27 110.49 110.38 C 112.63 105.54 113.11 100.19 113.01 94.96 C 112.93 76.94 113.09 58.92 112.94 40.90 C 112.78 24.99 98.95 10.69 83.07 10.01 C 67.39 9.97 51.70 10.04 36.01 9.98 C 33.80 9.99 31.56 9.98 29.39 10.46 Z" />
<path fill="#000000" opacity="1.00" d=" M 35.15 12.21 C 47.75 11.83 60.36 12.17 72.97 12.04 C 80.41 11.86 88.32 12.21 94.86 16.19 C 104.06 21.23 109.77 31.54 109.95 41.94 C 110.09 59.62 109.94 77.30 110.02 94.98 C 110.15 101.61 108.85 108.40 105.14 114.00 C 99.93 122.61 89.99 127.67 80.04 127.87 C 66.71 128.07 53.38 127.87 40.05 127.97 C 33.11 128.09 25.92 126.76 20.14 122.72 C 12.05 117.36 6.95 107.76 7.07 98.05 C 7.06 79.02 6.99 59.99 7.10 40.96 C 7.17 25.98 20.22 12.77 35.15 12.21 M 37.26 28.25 C 37.67 32.90 35.84 38.24 38.67 42.34 C 38.76 44.55 38.89 46.78 38.69 48.99 C 38.29 51.03 36.93 52.82 37.15 54.99 C 37.23 63.92 36.93 72.87 37.39 81.80 C 44.26 82.21 51.14 81.99 58.01 81.80 C 64.97 82.03 71.94 82.10 78.90 81.91 C 79.14 71.95 78.91 61.99 79.03 52.03 C 79.10 49.74 78.79 47.48 78.30 45.25 C 79.22 41.70 79.33 37.93 78.74 34.32 C 77.05 32.02 74.81 30.20 72.75 28.23 C 60.93 28.47 49.09 28.36 37.26 28.25 Z" />
<path fill="#000000" opacity="1.00" d=" M 37.95 28.76 C 48.30 28.56 58.66 28.76 69.01 28.67 C 72.68 28.29 74.59 31.97 77.00 34.05 C 77.09 37.74 77.54 41.59 75.94 45.05 C 77.60 48.82 77.00 53.00 77.08 57.00 C 76.98 64.60 77.27 72.20 76.89 79.80 C 71.17 79.63 65.36 80.48 59.71 79.40 C 63.25 79.11 66.81 79.25 70.36 79.18 L 70.29 77.76 C 63.20 77.70 56.11 77.77 49.02 77.70 C 47.38 77.93 45.06 77.14 44.14 79.06 C 47.85 79.38 51.62 78.91 55.29 79.63 C 49.71 80.00 43.99 80.19 38.46 79.54 C 37.04 75.32 38.11 70.45 37.81 65.98 C 38.21 60.90 36.76 55.47 39.00 50.68 C 41.61 58.43 38.85 66.85 40.14 74.82 C 41.21 77.09 43.97 76.64 46.01 76.68 C 54.90 76.46 63.80 76.85 72.68 76.53 C 75.29 76.06 75.15 73.00 75.17 70.96 C 75.12 59.98 75.11 48.99 75.17 38.01 C 75.34 35.92 74.78 32.93 72.10 32.98 C 63.42 32.68 54.73 32.99 46.05 32.84 C 44.18 33.01 41.63 32.48 40.42 34.31 C 39.60 36.22 39.94 38.42 39.67 40.45 C 39.25 40.07 38.41 39.32 37.98 38.94 C 37.60 35.56 37.89 32.15 37.95 28.76 Z" />
<path fill="#000000" opacity="1.00" d=" M 43.17 34.35 C 51.77 34.06 60.38 34.36 68.99 34.22 C 70.44 34.48 72.64 33.70 73.41 35.41 C 74.58 37.40 74.09 39.84 74.23 42.04 C 74.04 52.05 74.35 62.07 74.11 72.07 C 74.24 74.31 72.08 75.67 70.03 75.42 C 61.37 75.44 52.70 75.55 44.05 75.36 C 41.14 75.48 40.55 72.23 40.79 69.99 C 41.08 59.68 40.54 49.38 40.76 39.07 C 40.78 37.36 41.03 34.61 43.17 34.35 M 43.04 37.85 C 43.04 47.91 43.28 57.98 43.15 68.04 C 43.28 69.66 42.78 72.22 44.99 72.55 C 52.32 73.00 59.68 72.58 67.03 72.76 C 68.89 72.82 72.15 72.79 71.74 70.05 C 71.77 59.46 71.99 48.85 71.77 38.27 C 69.43 35.56 65.15 37.13 61.99 36.71 C 55.71 37.27 49.04 35.51 43.04 37.85 Z" />
<path fill="#000000" opacity="1.00" d=" M 44.11 43.77 C 44.45 41.93 43.25 38.22 46.11 38.14 C 53.71 38.13 61.32 37.88 68.91 38.18 C 71.71 38.38 70.59 42.02 70.97 43.89 C 69.48 43.94 68.00 43.99 66.51 44.04 C 66.98 42.50 67.43 40.96 67.87 39.41 C 66.32 39.38 64.77 39.30 63.22 39.33 C 63.32 40.83 63.62 42.32 63.40 43.83 C 56.98 43.34 50.53 43.45 44.11 43.77 M 54.38 39.40 C 54.47 40.25 54.64 41.95 54.72 42.81 C 56.78 42.81 58.84 42.84 60.89 42.88 C 60.53 41.91 60.17 40.94 59.80 39.98 C 59.30 40.27 58.30 40.87 57.79 41.17 C 56.77 40.33 55.80 39.40 54.38 39.40 M 44.78 39.99 C 45.52 40.96 46.25 41.92 46.99 42.88 C 49.49 42.75 51.98 42.67 54.48 42.74 C 53.59 40.14 50.33 41.70 48.26 41.46 C 47.10 40.97 45.95 40.46 44.78 39.99 Z" />
<path fill="#000000" opacity="1.00" d=" M 43.60 47.81 C 43.64 45.26 46.30 45.76 48.08 45.63 C 55.71 45.74 63.34 45.58 70.97 45.81 C 70.92 47.79 70.98 49.79 70.75 51.76 C 70.06 53.13 68.32 53.21 66.99 53.34 C 60.96 52.94 56.85 47.33 50.88 46.72 C 48.40 46.39 46.00 47.32 43.60 47.81 Z" />
<path fill="#000000" opacity="1.00" d=" M 46.34 48.45 C 49.96 47.01 54.22 48.36 57.03 50.87 C 56.08 53.09 52.98 52.32 51.05 53.10 C 50.48 52.35 49.91 51.60 49.35 50.85 C 49.45 52.00 49.56 53.16 49.69 54.32 C 52.61 54.54 55.53 54.36 58.45 54.48 C 58.44 53.77 58.42 52.33 58.41 51.62 C 62.22 53.83 66.56 55.61 70.98 54.15 C 70.74 59.83 70.96 65.51 70.81 71.20 C 61.95 71.70 53.03 71.70 44.18 71.19 C 44.12 64.47 44.18 57.76 44.10 51.05 C 43.84 49.67 45.37 48.99 46.34 48.45 M 46.17 51.11 C 45.65 52.74 46.20 53.30 47.82 52.78 C 48.35 51.15 47.80 50.59 46.17 51.11 M 47.70 62.77 C 49.21 63.44 50.72 64.10 52.23 64.76 C 49.85 65.11 46.20 63.89 45.48 67.14 C 48.29 67.25 51.13 67.45 53.94 67.13 C 55.42 66.99 56.39 65.57 56.00 64.14 C 54.28 63.18 52.46 62.43 50.72 61.53 C 53.08 61.38 55.44 61.36 57.79 61.05 L 57.92 60.02 C 54.52 59.78 49.13 58.55 47.70 62.77 M 59.48 60.23 C 59.70 61.58 60.42 61.81 61.63 60.93 C 61.41 59.58 60.69 59.35 59.48 60.23 M 57.44 64.61 C 57.24 65.28 56.82 66.62 56.61 67.30 C 60.55 67.13 65.59 67.56 68.21 63.97 C 69.19 60.70 64.97 61.30 63.03 61.26 C 62.12 63.68 59.75 64.28 57.44 64.61 M 68.02 66.17 C 66.59 69.21 71.38 66.19 68.02 66.17 Z" />
</g>
<g id="#708cc8ff">
<path fill="#708cc8" opacity="1.00" d=" M 29.39 10.46 C 31.56 9.98 33.80 9.99 36.01 9.98 C 51.70 10.04 67.39 9.97 83.07 10.01 C 98.95 10.69 112.78 24.99 112.94 40.90 C 113.09 58.92 112.93 76.94 113.01 94.96 C 113.11 100.19 112.63 105.54 110.49 110.38 C 105.57 122.27 92.94 130.76 79.97 130.02 C 64.65 129.97 49.33 130.02 34.01 130.00 C 18.00 129.60 3.80 114.98 3.99 98.93 C 4.02 79.28 3.98 59.64 4.01 39.99 C 4.41 25.87 15.68 13.29 29.39 10.46 M 35.15 12.21 C 20.22 12.77 7.17 25.98 7.10 40.96 C 6.99 59.99 7.06 79.02 7.07 98.05 C 6.95 107.76 12.05 117.36 20.14 122.72 C 25.92 126.76 33.11 128.09 40.05 127.97 C 53.38 127.87 66.71 128.07 80.04 127.87 C 89.99 127.67 99.93 122.61 105.14 114.00 C 108.85 108.40 110.15 101.61 110.02 94.98 C 109.94 77.30 110.09 59.62 109.95 41.94 C 109.77 31.54 104.06 21.23 94.86 16.19 C 88.32 12.21 80.41 11.86 72.97 12.04 C 60.36 12.17 47.75 11.83 35.15 12.21 Z" />
</g>
<g id="#10ec50ff">
<path fill="#10ec50" opacity="1.00" d=" M 37.26 28.25 C 49.09 28.36 60.93 28.47 72.75 28.23 C 74.81 30.20 77.05 32.02 78.74 34.32 C 79.33 37.93 79.22 41.70 78.30 45.25 C 78.79 47.48 79.10 49.74 79.03 52.03 C 78.91 61.99 79.14 71.95 78.90 81.91 C 71.94 82.10 64.97 82.03 58.01 81.80 C 51.14 81.99 44.26 82.21 37.39 81.80 C 36.93 72.87 37.23 63.92 37.15 54.99 C 36.93 52.82 38.29 51.03 38.69 48.99 C 38.89 46.78 38.76 44.55 38.67 42.34 C 35.84 38.24 37.67 32.90 37.26 28.25 M 37.95 28.76 C 37.89 32.15 37.60 35.56 37.98 38.94 C 38.41 39.32 39.25 40.07 39.67 40.45 C 39.94 38.42 39.60 36.22 40.42 34.31 C 41.63 32.48 44.18 33.01 46.05 32.84 C 54.73 32.99 63.42 32.68 72.10 32.98 C 74.78 32.93 75.34 35.92 75.17 38.01 C 75.11 48.99 75.12 59.98 75.17 70.96 C 75.15 73.00 75.29 76.06 72.68 76.53 C 63.80 76.85 54.90 76.46 46.01 76.68 C 43.97 76.64 41.21 77.09 40.14 74.82 C 38.85 66.85 41.61 58.43 39.00 50.68 C 36.76 55.47 38.21 60.90 37.81 65.98 C 38.11 70.45 37.04 75.32 38.46 79.54 C 43.99 80.19 49.71 80.00 55.29 79.63 C 51.62 78.91 47.85 79.38 44.14 79.06 C 45.06 77.14 47.38 77.93 49.02 77.70 C 56.11 77.77 63.20 77.70 70.29 77.76 L 70.36 79.18 C 66.81 79.25 63.25 79.11 59.71 79.40 C 65.36 80.48 71.17 79.63 76.89 79.80 C 77.27 72.20 76.98 64.60 77.08 57.00 C 77.00 53.00 77.60 48.82 75.94 45.05 C 77.54 41.59 77.09 37.74 77.00 34.05 C 74.59 31.97 72.68 28.29 69.01 28.67 C 58.66 28.76 48.30 28.56 37.95 28.76 M 43.17 34.35 C 41.03 34.61 40.78 37.36 40.76 39.07 C 40.54 49.38 41.08 59.68 40.79 69.99 C 40.55 72.23 41.14 75.48 44.05 75.36 C 52.70 75.55 61.37 75.44 70.03 75.42 C 72.08 75.67 74.24 74.31 74.11 72.07 C 74.35 62.07 74.04 52.05 74.23 42.04 C 74.09 39.84 74.58 37.40 73.41 35.41 C 72.64 33.70 70.44 34.48 68.99 34.22 C 60.38 34.36 51.77 34.06 43.17 34.35 Z" />
<path fill="#10ec50" opacity="1.00" d=" M 54.38 39.40 C 55.80 39.40 56.77 40.33 57.79 41.17 C 58.30 40.87 59.30 40.27 59.80 39.98 C 60.17 40.94 60.53 41.91 60.89 42.88 C 58.84 42.84 56.78 42.81 54.72 42.81 C 54.64 41.95 54.47 40.25 54.38 39.40 Z" />
<path fill="#10ec50" opacity="1.00" d=" M 44.78 39.99 C 45.95 40.46 47.10 40.97 48.26 41.46 C 50.33 41.70 53.59 40.14 54.48 42.74 C 51.98 42.67 49.49 42.75 46.99 42.88 C 46.25 41.92 45.52 40.96 44.78 39.99 Z" />
<path fill="#10ec50" opacity="1.00" d=" M 59.48 60.23 C 60.69 59.35 61.41 59.58 61.63 60.93 C 60.42 61.81 59.70 61.58 59.48 60.23 Z" />
<path fill="#10ec50" opacity="1.00" d=" M 57.44 64.61 C 59.75 64.28 62.12 63.68 63.03 61.26 C 64.97 61.30 69.19 60.70 68.21 63.97 C 65.59 67.56 60.55 67.13 56.61 67.30 C 56.82 66.62 57.24 65.28 57.44 64.61 Z" />
</g>
<g id="#10b438ff">
<path fill="#10b438" opacity="1.00" d=" M 43.04 37.85 C 49.04 35.51 55.71 37.27 61.99 36.71 C 65.15 37.13 69.43 35.56 71.77 38.27 C 71.99 48.85 71.77 59.46 71.74 70.05 C 72.15 72.79 68.89 72.82 67.03 72.76 C 59.68 72.58 52.32 73.00 44.99 72.55 C 42.78 72.22 43.28 69.66 43.15 68.04 C 43.28 57.98 43.04 47.91 43.04 37.85 M 44.11 43.77 C 50.53 43.45 56.98 43.34 63.40 43.83 C 63.62 42.32 63.32 40.83 63.22 39.33 C 64.77 39.30 66.32 39.38 67.87 39.41 C 67.43 40.96 66.98 42.50 66.51 44.04 C 68.00 43.99 69.48 43.94 70.97 43.89 C 70.59 42.02 71.71 38.38 68.91 38.18 C 61.32 37.88 53.71 38.13 46.11 38.14 C 43.25 38.22 44.45 41.93 44.11 43.77 M 43.60 47.81 C 46.00 47.32 48.40 46.39 50.88 46.72 C 56.85 47.33 60.96 52.94 66.99 53.34 C 68.32 53.21 70.06 53.13 70.75 51.76 C 70.98 49.79 70.92 47.79 70.97 45.81 C 63.34 45.58 55.71 45.74 48.08 45.63 C 46.30 45.76 43.64 45.26 43.60 47.81 M 46.34 48.45 C 45.37 48.99 43.84 49.67 44.10 51.05 C 44.18 57.76 44.12 64.47 44.18 71.19 C 53.03 71.70 61.95 71.70 70.81 71.20 C 70.96 65.51 70.74 59.83 70.98 54.15 C 66.56 55.61 62.22 53.83 58.41 51.62 C 58.42 52.33 58.44 53.77 58.45 54.48 C 55.53 54.36 52.61 54.54 49.69 54.32 C 49.56 53.16 49.45 52.00 49.35 50.85 C 49.91 51.60 50.48 52.35 51.05 53.10 C 52.98 52.32 56.08 53.09 57.03 50.87 C 54.22 48.36 49.96 47.01 46.34 48.45 Z" />
</g>
<g id="#10b63cff">
<path fill="#10b63c" opacity="1.00" d=" M 46.17 51.11 C 47.80 50.59 48.35 51.15 47.82 52.78 C 46.20 53.30 45.65 52.74 46.17 51.11 Z" />
</g>
<g id="#10dd4aff">
<path fill="#10dd4a" opacity="1.00" d=" M 47.70 62.77 C 49.13 58.55 54.52 59.78 57.92 60.02 L 57.79 61.05 C 55.44 61.36 53.08 61.38 50.72 61.53 C 52.46 62.43 54.28 63.18 56.00 64.14 C 56.39 65.57 55.42 66.99 53.94 67.13 C 51.13 67.45 48.29 67.25 45.48 67.14 C 46.20 63.89 49.85 65.11 52.23 64.76 C 50.72 64.10 49.21 63.44 47.70 62.77 Z" />
</g>
<g id="#087424ff">
<path fill="#087424" opacity="1.00" d=" M 68.02 66.17 C 71.38 66.19 66.59 69.21 68.02 66.17 Z" />
</g>
</svg>
