<?xml version="1.0" encoding="UTF-8" ?>
<!DOCTYPE svg PUBLIC "-//W3C//DTD SVG 1.1//EN" "http://www.w3.org/Graphics/SVG/1.1/DTD/svg11.dtd">
<svg width="117px" height="140px" viewBox="0 0 117 140" version="1.1" xmlns="http://www.w3.org/2000/svg">
<g id="#000000ff">
<path fill="#000000" opacity="1.00" d=" M 0.00 0.00 L 117.00 0.00 L 117.00 140.00 L 0.00 140.00 L 0.00 0.00 M 33.16 10.22 C 17.92 11.79 5.19 25.62 5.02 40.96 C 4.98 60.31 4.99 79.66 5.02 99.02 C 5.15 114.98 18.98 129.26 34.93 129.93 C 50.30 130.10 65.68 129.95 81.06 130.00 C 92.62 130.12 103.86 123.31 109.21 113.08 C 111.91 108.20 113.14 102.58 113.02 97.02 C 112.98 78.67 113.01 60.32 113.00 41.98 C 113.06 33.34 109.36 24.79 103.09 18.87 C 97.01 12.97 88.49 9.76 80.03 9.98 C 64.41 10.17 48.77 9.69 33.16 10.22 Z" />
<path fill="#000000" opacity="1.00" d=" M 33.23 12.35 C 48.46 11.70 63.74 12.26 78.99 12.06 C 85.33 11.89 91.81 13.29 97.14 16.85 C 105.61 22.13 110.99 31.99 110.90 41.97 C 110.98 59.32 110.89 76.67 110.94 94.02 C 111.11 100.02 110.59 106.26 107.61 111.61 C 102.76 121.48 92.03 127.96 81.06 127.90 C 66.36 127.95 51.66 127.94 36.95 127.91 C 26.27 127.97 15.77 121.81 10.78 112.34 C 8.12 107.71 6.99 102.34 7.07 97.03 C 7.06 79.36 7.08 61.70 7.06 44.03 C 5.88 28.76 17.91 13.89 33.23 12.35 M 29.20 24.23 C 29.03 35.57 29.19 46.91 29.12 58.25 C 27.57 59.38 26.10 60.92 26.41 63.02 C 25.79 69.85 27.28 77.71 33.39 81.75 C 40.41 86.29 47.17 91.28 54.38 95.52 C 59.40 95.32 65.33 97.14 69.49 93.45 C 75.79 89.07 82.37 85.07 88.55 80.52 C 94.28 75.53 94.43 67.36 93.59 60.41 C 92.47 58.06 89.79 58.14 87.57 58.15 C 87.16 52.40 88.05 46.19 85.11 40.94 C 81.49 34.27 74.13 30.64 66.87 29.50 C 57.93 28.37 48.06 29.11 40.63 34.72 C 35.24 38.61 32.45 45.44 33.09 52.01 C 32.75 54.20 34.00 57.24 31.87 58.74 C 31.65 50.12 31.83 41.50 31.78 32.88 C 33.99 32.49 36.36 32.42 38.39 31.38 C 40.25 29.27 42.71 27.23 43.00 24.27 C 38.41 23.90 33.79 23.93 29.20 24.23 M 49.68 100.98 C 49.68 104.65 49.68 108.32 49.68 112.00 C 50.20 111.99 51.23 111.97 51.75 111.96 C 51.74 110.68 51.73 109.40 51.72 108.12 C 53.22 107.80 55.05 108.25 56.35 107.29 C 57.28 105.79 57.05 103.84 56.65 102.21 C 55.05 100.16 51.91 101.37 49.68 100.98 M 58.66 101.09 C 58.74 104.63 58.57 108.18 58.72 111.73 C 59.21 111.85 60.21 112.10 60.70 112.22 C 60.75 108.47 60.73 104.71 60.72 100.96 C 60.21 100.99 59.17 101.06 58.66 101.09 M 61.68 100.96 C 61.68 104.65 61.68 108.34 61.68 112.04 C 64.22 111.72 67.58 112.71 69.36 110.33 C 70.64 107.96 70.63 104.98 69.32 102.63 C 67.53 100.30 64.19 101.29 61.68 100.96 Z" />
<path fill="#000000" opacity="1.00" d=" M 47.74 33.85 C 58.58 30.00 72.06 30.90 80.78 39.05 C 79.90 39.84 79.03 40.63 78.15 41.42 C 78.25 43.41 77.85 45.52 78.49 47.43 C 79.26 47.76 80.06 47.40 80.83 47.27 C 80.84 44.85 80.34 42.25 81.80 40.12 C 82.93 42.84 83.95 45.61 84.50 48.51 C 68.29 48.53 52.08 48.51 35.87 48.52 C 36.57 41.78 41.36 36.02 47.74 33.85 M 71.12 40.41 C 69.57 42.36 70.04 45.12 70.48 47.38 C 74.07 48.80 72.57 43.22 72.82 41.26 C 72.40 41.05 71.55 40.62 71.12 40.41 M 74.18 40.96 C 74.46 43.17 72.79 48.80 76.84 47.37 C 76.83 45.23 76.83 43.09 76.80 40.94 C 75.93 40.94 75.05 40.95 74.18 40.96 Z" />
<path fill="#000000" opacity="1.00" d=" M 39.09 57.38 C 53.16 57.23 67.25 57.26 81.32 57.36 C 75.68 60.43 69.30 61.44 63.11 62.77 C 63.23 72.88 64.34 82.93 64.41 93.04 C 61.55 93.03 58.69 93.04 55.84 93.04 C 56.19 83.01 57.12 72.99 57.07 62.95 C 51.19 61.13 44.60 60.61 39.09 57.38 Z" />
<path fill="#000000" opacity="1.00" d=" M 34.79 63.97 C 38.08 65.56 41.57 67.26 43.78 70.28 C 47.37 75.77 48.49 82.42 48.71 88.87 C 44.11 85.56 39.30 82.55 34.65 79.31 C 33.60 78.59 32.42 77.49 32.89 76.06 C 33.47 72.02 34.28 68.02 34.79 63.97 Z" />
<path fill="#000000" opacity="1.00" d=" M 78.73 68.72 C 80.74 66.77 83.17 65.33 85.58 63.93 C 85.88 68.64 87.77 73.31 87.14 78.02 C 82.31 82.06 76.73 85.11 71.64 88.81 C 71.63 81.61 73.46 73.93 78.73 68.72 Z" />
<path fill="#000000" opacity="1.00" d=" M 51.83 106.31 C 51.75 105.10 51.72 103.89 51.74 102.68 C 53.25 103.11 54.90 103.46 55.68 105.00 C 54.42 105.51 53.13 105.95 51.83 106.31 Z" />
<path fill="#000000" opacity="1.00" d=" M 63.75 102.74 C 65.45 103.33 68.31 103.52 68.26 105.98 C 69.03 108.89 65.90 109.82 63.75 110.26 C 63.72 107.75 63.72 105.24 63.75 102.74 Z" />
</g>
<g id="#717171ff">
<path fill="#717171" opacity="1.00" d=" M 33.16 10.22 C 48.77 9.69 64.41 10.17 80.03 9.98 C 88.49 9.76 97.01 12.97 103.09 18.87 C 109.36 24.79 113.06 33.34 113.00 41.98 C 113.01 60.32 112.98 78.67 113.02 97.02 C 113.14 102.58 111.91 108.20 109.21 113.08 C 103.86 123.31 92.62 130.12 81.06 130.00 C 65.68 129.95 50.30 130.10 34.93 129.93 C 18.98 129.26 5.15 114.98 5.02 99.02 C 4.99 79.66 4.98 60.31 5.02 40.96 C 5.19 25.62 17.92 11.79 33.16 10.22 M 33.23 12.35 C 17.91 13.89 5.88 28.76 7.06 44.03 C 7.08 61.70 7.06 79.36 7.07 97.03 C 6.99 102.34 8.12 107.71 10.78 112.34 C 15.77 121.81 26.27 127.97 36.95 127.91 C 51.66 127.94 66.36 127.95 81.06 127.90 C 92.03 127.96 102.76 121.48 107.61 111.61 C 110.59 106.26 111.11 100.02 110.94 94.02 C 110.89 76.67 110.98 59.32 110.90 41.97 C 110.99 31.99 105.61 22.13 97.14 16.85 C 91.81 13.29 85.33 11.89 78.99 12.06 C 63.74 12.26 48.46 11.70 33.23 12.35 Z" />
</g>
<g id="#f8fcf8ff">
<path fill="#f8fcf8" opacity="1.00" d=" M 29.20 24.23 C 33.79 23.93 38.41 23.90 43.00 24.27 C 42.71 27.23 40.25 29.27 38.39 31.38 C 36.36 32.42 33.99 32.49 31.78 32.88 C 31.83 41.50 31.65 50.12 31.87 58.74 C 34.00 57.24 32.75 54.20 33.09 52.01 C 32.45 45.44 35.24 38.61 40.63 34.72 C 48.06 29.11 57.93 28.37 66.87 29.50 C 74.13 30.64 81.49 34.27 85.11 40.94 C 88.05 46.19 87.16 52.40 87.57 58.15 C 89.79 58.14 92.47 58.06 93.59 60.41 C 94.43 67.36 94.28 75.53 88.55 80.52 C 82.37 85.07 75.79 89.07 69.49 93.45 C 65.33 97.14 59.40 95.32 54.38 95.52 C 47.17 91.28 40.41 86.29 33.39 81.75 C 27.28 77.71 25.79 69.85 26.41 63.02 C 26.10 60.92 27.57 59.38 29.12 58.25 C 29.19 46.91 29.03 35.57 29.20 24.23 M 31.69 26.59 C 31.71 27.82 31.72 29.04 31.73 30.27 C 33.38 30.00 35.02 29.72 36.66 29.40 C 37.44 28.46 38.21 27.51 38.98 26.56 C 36.55 26.59 34.12 26.60 31.69 26.59 M 47.74 33.85 C 41.36 36.02 36.57 41.78 35.87 48.52 C 52.08 48.51 68.29 48.53 84.50 48.51 C 83.95 45.61 82.93 42.84 81.80 40.12 C 80.34 42.25 80.84 44.85 80.83 47.27 C 80.06 47.40 79.26 47.76 78.49 47.43 C 77.85 45.52 78.25 43.41 78.15 41.42 C 79.03 40.63 79.90 39.84 80.78 39.05 C 72.06 30.90 58.58 30.00 47.74 33.85 M 35.81 51.17 C 35.73 54.45 35.54 57.73 35.17 61.00 C 39.12 63.21 43.47 65.21 46.13 69.04 C 50.28 75.40 51.20 83.13 51.56 90.54 C 51.97 90.90 52.80 91.62 53.21 91.98 C 53.84 82.87 54.21 73.75 54.60 64.62 C 48.63 63.69 42.73 62.19 37.20 59.70 C 37.20 58.20 36.98 56.66 37.37 55.19 C 38.67 54.21 40.44 54.74 41.95 54.57 C 54.94 54.65 67.92 54.54 80.91 54.62 C 83.75 54.06 83.96 58.14 82.72 59.73 C 77.47 62.52 71.51 63.56 65.73 64.66 C 66.04 73.79 66.74 82.91 67.12 92.04 C 67.98 91.20 69.41 90.47 69.05 88.99 C 68.98 81.74 70.63 74.14 75.39 68.47 C 78.01 65.23 81.67 63.11 85.22 61.05 C 84.99 57.77 84.66 54.50 84.63 51.21 C 68.36 51.22 52.08 51.32 35.81 51.17 M 39.09 57.38 C 44.60 60.61 51.19 61.13 57.07 62.95 C 57.12 72.99 56.19 83.01 55.84 93.04 C 58.69 93.04 61.55 93.03 64.41 93.04 C 64.34 82.93 63.23 72.88 63.11 62.77 C 69.30 61.44 75.68 60.43 81.32 57.36 C 67.25 57.26 53.16 57.23 39.09 57.38 M 29.18 61.07 C 28.99 65.57 28.65 70.28 30.67 74.45 C 31.25 69.95 31.98 65.47 32.51 60.96 C 31.40 60.98 30.29 61.01 29.18 61.07 M 87.77 60.86 C 88.49 65.28 88.94 69.74 89.79 74.13 C 91.82 70.02 91.17 65.35 91.13 60.92 C 90.29 60.91 88.61 60.88 87.77 60.86 M 34.79 63.97 C 34.28 68.02 33.47 72.02 32.89 76.06 C 32.42 77.49 33.60 78.59 34.65 79.31 C 39.30 82.55 44.11 85.56 48.71 88.87 C 48.49 82.42 47.37 75.77 43.78 70.28 C 41.57 67.26 38.08 65.56 34.79 63.97 M 78.73 68.72 C 73.46 73.93 71.63 81.61 71.64 88.81 C 76.73 85.11 82.31 82.06 87.14 78.02 C 87.77 73.31 85.88 68.64 85.58 63.93 C 83.17 65.33 80.74 66.77 78.73 68.72 Z" />
<path fill="#f8fcf8" opacity="1.00" d=" M 71.12 40.41 C 71.55 40.62 72.40 41.05 72.82 41.26 C 72.57 43.22 74.07 48.80 70.48 47.38 C 70.04 45.12 69.57 42.36 71.12 40.41 Z" />
<path fill="#f8fcf8" opacity="1.00" d=" M 74.18 40.96 C 75.05 40.95 75.93 40.94 76.80 40.94 C 76.83 43.09 76.83 45.23 76.84 47.37 C 72.79 48.80 74.46 43.17 74.18 40.96 Z" />
<path fill="#f8fcf8" opacity="1.00" d=" M 49.68 100.98 C 51.91 101.37 55.05 100.16 56.65 102.21 C 57.05 103.84 57.28 105.79 56.35 107.29 C 55.05 108.25 53.22 107.80 51.72 108.12 C 51.73 109.40 51.74 110.68 51.75 111.96 C 51.23 111.97 50.20 111.99 49.68 112.00 C 49.68 108.32 49.68 104.65 49.68 100.98 M 51.83 106.31 C 53.13 105.95 54.42 105.51 55.68 105.00 C 54.90 103.46 53.25 103.11 51.74 102.68 C 51.72 103.89 51.75 105.10 51.83 106.31 Z" />
<path fill="#f8fcf8" opacity="1.00" d=" M 58.66 101.09 C 59.17 101.06 60.21 100.99 60.72 100.96 C 60.73 104.71 60.75 108.47 60.70 112.22 C 60.21 112.10 59.21 111.85 58.72 111.73 C 58.57 108.18 58.74 104.63 58.66 101.09 Z" />
<path fill="#f8fcf8" opacity="1.00" d=" M 61.68 100.96 C 64.19 101.29 67.53 100.30 69.32 102.63 C 70.63 104.98 70.64 107.96 69.36 110.33 C 67.58 112.71 64.22 111.72 61.68 112.04 C 61.68 108.34 61.68 104.65 61.68 100.96 M 63.75 102.74 C 63.72 105.24 63.72 107.75 63.75 110.26 C 65.90 109.82 69.03 108.89 68.26 105.98 C 68.31 103.52 65.45 103.33 63.75 102.74 Z" />
</g>
<g id="#303430ff">
<path fill="#303430" opacity="1.00" d=" M 31.69 26.59 C 34.12 26.60 36.55 26.59 38.98 26.56 C 38.21 27.51 37.44 28.46 36.66 29.40 C 35.02 29.72 33.38 30.00 31.73 30.27 C 31.72 29.04 31.71 27.82 31.69 26.59 Z" />
<path fill="#303430" opacity="1.00" d=" M 35.81 51.17 C 52.08 51.32 68.36 51.22 84.63 51.21 C 84.66 54.50 84.99 57.77 85.22 61.05 C 81.67 63.11 78.01 65.23 75.39 68.47 C 70.63 74.14 68.98 81.74 69.05 88.99 C 69.41 90.47 67.98 91.20 67.12 92.04 C 66.74 82.91 66.04 73.79 65.73 64.66 C 71.51 63.56 77.47 62.52 82.72 59.73 C 83.96 58.14 83.75 54.06 80.91 54.62 C 67.92 54.54 54.94 54.65 41.95 54.57 C 40.44 54.74 38.67 54.21 37.37 55.19 C 36.98 56.66 37.20 58.20 37.20 59.70 C 42.73 62.19 48.63 63.69 54.60 64.62 C 54.21 73.75 53.84 82.87 53.21 91.98 C 52.80 91.62 51.97 90.90 51.56 90.54 C 51.20 83.13 50.28 75.40 46.13 69.04 C 43.47 65.21 39.12 63.21 35.17 61.00 C 35.54 57.73 35.73 54.45 35.81 51.17 Z" />
<path fill="#303430" opacity="1.00" d=" M 29.18 61.07 C 30.29 61.01 31.40 60.98 32.51 60.96 C 31.98 65.47 31.25 69.95 30.67 74.45 C 28.65 70.28 28.99 65.57 29.18 61.07 Z" />
<path fill="#303430" opacity="1.00" d=" M 87.77 60.86 C 88.61 60.88 90.29 60.91 91.13 60.92 C 91.17 65.35 91.82 70.02 89.79 74.13 C 88.94 69.74 88.49 65.28 87.77 60.86 Z" />
</g>
</svg>
