<?xml version="1.0" encoding="UTF-8" ?>
<!DOCTYPE svg PUBLIC "-//W3C//DTD SVG 1.1//EN" "http://www.w3.org/Graphics/SVG/1.1/DTD/svg11.dtd">
<svg width="117px" height="140px" viewBox="0 0 117 140" version="1.1" xmlns="http://www.w3.org/2000/svg">
<g id="#000000ff">
<path fill="#000000" opacity="1.00" d=" M 0.00 0.00 L 117.00 0.00 L 117.00 140.00 L 0.00 140.00 L 0.00 0.00 M 36.95 33.57 C 34.39 34.07 31.61 36.10 31.78 38.98 C 31.75 48.63 31.78 58.28 31.77 67.93 C 31.54 70.57 33.20 73.48 35.88 74.14 C 40.09 74.29 44.30 74.13 48.50 74.20 C 53.72 74.18 58.94 74.20 64.16 74.19 C 70.08 74.16 76.01 74.27 81.94 74.13 C 84.60 73.46 85.53 70.39 85.50 67.95 C 85.45 59.31 85.64 50.66 85.43 42.02 C 84.62 37.29 79.03 36.52 75.11 37.00 C 70.36 37.01 65.62 36.99 60.87 37.00 C 57.34 36.72 53.41 37.91 50.28 35.79 C 46.34 33.37 41.45 32.76 36.95 33.57 Z" />
</g>
<g id="#f8cc68ff">
<path fill="#f8cc68" opacity="1.00" d=" M 36.95 33.57 C 41.45 32.76 46.34 33.37 50.28 35.79 C 53.41 37.91 57.34 36.72 60.87 37.00 C 58.86 41.45 57.51 46.16 55.80 50.72 C 54.20 55.50 54.80 61.21 51.46 65.26 C 51.43 68.52 51.69 72.21 48.50 74.20 C 44.30 74.13 40.09 74.29 35.88 74.14 C 33.20 73.48 31.54 70.57 31.77 67.93 C 31.78 58.28 31.75 48.63 31.78 38.98 C 31.61 36.10 34.39 34.07 36.95 33.57 Z" />
</g>
<g id="#f8bc60ff">
<path fill="#f8bc60" opacity="1.00" d=" M 60.87 37.00 C 65.62 36.99 70.36 37.01 75.11 37.00 C 72.35 43.17 71.50 49.97 69.38 56.31 C 66.84 58.88 68.18 62.60 66.86 65.65 C 65.77 68.43 64.95 71.31 64.16 74.19 C 58.94 74.20 53.72 74.18 48.50 74.20 C 51.69 72.21 51.43 68.52 51.46 65.26 C 54.80 61.21 54.20 55.50 55.80 50.72 C 57.51 46.16 58.86 41.45 60.87 37.00 Z" />
</g>
<g id="#f8b058ff">
<path fill="#f8b058" opacity="1.00" d=" M 75.11 37.00 C 79.03 36.52 84.62 37.29 85.43 42.02 C 85.64 50.66 85.45 59.31 85.50 67.95 C 85.53 70.39 84.60 73.46 81.94 74.13 C 76.01 74.27 70.08 74.16 64.16 74.19 C 64.95 71.31 65.77 68.43 66.86 65.65 C 68.18 62.60 66.84 58.88 69.38 56.31 C 71.50 49.97 72.35 43.17 75.11 37.00 Z" />
</g>
</svg>
