<?xml version="1.0" encoding="UTF-8" ?>
<!DOCTYPE svg PUBLIC "-//W3C//DTD SVG 1.1//EN" "http://www.w3.org/Graphics/SVG/1.1/DTD/svg11.dtd">
<svg width="117pt" height="140pt" viewBox="0 0 117 140" version="1.1" xmlns="http://www.w3.org/2000/svg">
<g id="#000000ff">
<path fill="#000000" opacity="1.00" d=" M 0.00 0.00 L 117.00 0.00 L 117.00 140.00 L 0.00 140.00 L 0.00 0.00 M 33.18 10.22 C 17.94 11.77 5.21 25.59 5.02 40.93 C 5.01 60.63 4.93 80.34 5.06 100.04 C 5.73 116.00 20.00 129.85 35.99 129.98 C 51.67 129.98 67.35 130.08 83.03 129.93 C 98.63 129.29 112.28 115.64 112.94 100.04 C 113.09 80.68 112.95 61.31 113.00 41.95 C 113.06 33.33 109.36 24.79 103.10 18.88 C 97.03 12.98 88.52 9.77 80.07 9.98 C 64.44 10.16 48.80 9.70 33.18 10.22 Z" />
<path fill="#000000" opacity="1.00" d=" M 33.24 12.35 C 48.48 11.71 63.76 12.26 79.02 12.06 C 85.34 11.89 91.80 13.29 97.12 16.83 C 105.58 22.10 110.97 31.94 110.90 41.91 C 110.97 58.92 110.90 75.93 110.94 92.94 C 111.12 99.31 110.79 105.98 107.58 111.66 C 102.73 121.50 92.03 127.95 81.10 127.90 C 65.72 127.90 50.34 128.06 34.97 127.82 C 20.14 127.17 7.27 113.91 7.13 99.05 C 7.03 79.66 7.03 60.27 7.13 40.88 C 7.35 26.68 19.11 13.82 33.24 12.35 M 35.02 34.00 C 34.66 48.69 34.99 63.38 34.85 78.08 C 34.90 79.60 34.69 81.19 35.17 82.67 C 36.34 83.37 38.87 83.72 39.10 81.87 C 39.46 75.93 39.17 69.97 39.24 64.02 C 43.58 63.99 47.92 64.00 52.26 64.00 C 52.45 69.98 51.85 76.00 52.58 81.95 C 52.81 84.74 57.26 83.51 56.81 81.05 C 57.10 74.14 56.87 67.23 56.92 60.32 C 58.53 60.46 60.48 60.37 60.56 62.47 C 61.21 61.21 61.88 59.95 62.58 58.71 C 61.89 57.44 61.25 56.16 60.62 54.87 C 60.35 56.57 59.12 57.04 57.48 56.87 C 57.52 57.94 57.54 59.01 57.53 60.08 C 56.30 51.48 57.27 42.75 56.86 34.10 C 55.33 33.94 53.79 33.90 52.28 34.26 C 52.22 40.61 52.28 46.96 52.25 53.32 C 47.92 53.33 43.59 53.34 39.26 53.31 C 39.15 46.87 39.52 40.42 38.99 34.00 C 37.67 34.00 36.34 34.00 35.02 34.00 M 63.13 34.11 C 62.99 49.09 63.08 64.08 63.08 79.06 C 63.16 80.65 62.90 82.99 64.93 83.48 C 67.71 84.22 67.65 80.84 67.73 79.03 C 67.77 64.13 67.73 49.22 67.75 34.32 C 66.23 33.87 64.67 33.94 63.13 34.11 M 81.01 34.00 C 80.40 48.66 80.92 63.37 80.73 78.05 C 80.91 79.92 80.03 83.33 82.93 83.29 C 84.83 83.39 85.40 81.69 85.15 80.10 C 85.03 64.73 85.33 49.36 84.99 34.00 C 83.66 34.00 82.33 34.00 81.01 34.00 M 70.11 40.00 C 70.11 52.44 70.11 64.88 70.11 77.33 C 70.79 77.32 72.15 77.32 72.83 77.31 C 72.84 64.88 72.83 52.44 72.84 40.01 C 72.16 40.00 70.79 40.00 70.11 40.00 M 75.53 40.00 C 75.53 52.44 75.53 64.89 75.53 77.34 C 76.21 77.33 77.55 77.32 78.23 77.32 C 78.23 64.88 78.23 52.44 78.23 40.00 C 77.55 40.00 76.21 40.00 75.53 40.00 Z" />
<path fill="#000000" opacity="1.00" d=" M 39.64 57.32 C 43.56 57.33 47.48 57.33 51.40 57.31 C 51.36 57.99 51.28 59.33 51.24 60.00 C 47.42 60.00 43.60 60.00 39.79 60.00 C 39.75 59.33 39.68 57.99 39.64 57.32 Z" />
</g>
<g id="#717171ff">
<path fill="#717171" opacity="1.00" d=" M 33.18 10.22 C 48.80 9.70 64.44 10.16 80.07 9.98 C 88.52 9.77 97.03 12.98 103.10 18.88 C 109.36 24.79 113.06 33.33 113.00 41.95 C 112.95 61.31 113.09 80.68 112.94 100.04 C 112.28 115.64 98.63 129.29 83.03 129.93 C 67.35 130.08 51.67 129.98 35.99 129.98 C 20.00 129.85 5.73 116.00 5.06 100.04 C 4.93 80.34 5.01 60.63 5.02 40.93 C 5.21 25.59 17.94 11.77 33.18 10.22 M 33.24 12.35 C 19.11 13.82 7.35 26.68 7.13 40.88 C 7.03 60.27 7.03 79.66 7.13 99.05 C 7.27 113.91 20.14 127.17 34.97 127.82 C 50.34 128.06 65.72 127.90 81.10 127.90 C 92.03 127.95 102.73 121.50 107.58 111.66 C 110.79 105.98 111.12 99.31 110.94 92.94 C 110.90 75.93 110.97 58.92 110.90 41.91 C 110.97 31.94 105.58 22.10 97.12 16.83 C 91.80 13.29 85.34 11.89 79.02 12.06 C 63.76 12.26 48.48 11.71 33.24 12.35 Z" />
</g>
<g id="#f8fcf8ff">
<path fill="#f8fcf8" opacity="1.00" d=" M 35.02 34.00 C 36.34 34.00 37.67 34.00 38.99 34.00 C 39.52 40.42 39.15 46.87 39.26 53.31 C 43.59 53.34 47.92 53.33 52.25 53.32 C 52.28 46.96 52.22 40.61 52.28 34.26 C 53.79 33.90 55.33 33.94 56.86 34.10 C 57.27 42.75 56.30 51.48 57.53 60.08 C 57.54 59.01 57.52 57.94 57.48 56.87 C 59.12 57.04 60.35 56.57 60.62 54.87 C 61.25 56.16 61.89 57.44 62.58 58.71 C 61.88 59.95 61.21 61.21 60.56 62.47 C 60.48 60.37 58.53 60.46 56.92 60.32 C 56.87 67.23 57.10 74.14 56.81 81.05 C 57.26 83.51 52.81 84.74 52.58 81.95 C 51.85 76.00 52.45 69.98 52.26 64.00 C 47.92 64.00 43.58 63.99 39.24 64.02 C 39.17 69.97 39.46 75.93 39.10 81.87 C 38.87 83.72 36.34 83.37 35.17 82.67 C 34.69 81.19 34.90 79.60 34.85 78.08 C 34.99 63.38 34.66 48.69 35.02 34.00 M 39.64 57.32 C 39.68 57.99 39.75 59.33 39.79 60.00 C 43.60 60.00 47.42 60.00 51.24 60.00 C 51.28 59.33 51.36 57.99 51.40 57.31 C 47.48 57.33 43.56 57.33 39.64 57.32 Z" />
<path fill="#f8fcf8" opacity="1.00" d=" M 63.13 34.11 C 64.67 33.94 66.23 33.87 67.75 34.32 C 67.73 49.22 67.77 64.13 67.73 79.03 C 67.65 80.84 67.71 84.22 64.93 83.48 C 62.90 82.99 63.16 80.65 63.08 79.06 C 63.08 64.08 62.99 49.09 63.13 34.11 Z" />
<path fill="#f8fcf8" opacity="1.00" d=" M 81.01 34.00 C 82.33 34.00 83.66 34.00 84.99 34.00 C 85.33 49.36 85.03 64.73 85.15 80.10 C 85.40 81.69 84.83 83.39 82.93 83.29 C 80.03 83.33 80.91 79.92 80.73 78.05 C 80.92 63.37 80.40 48.66 81.01 34.00 Z" />
<path fill="#f8fcf8" opacity="1.00" d=" M 70.11 40.00 C 70.79 40.00 72.16 40.00 72.84 40.01 C 72.83 52.44 72.84 64.88 72.83 77.31 C 72.15 77.32 70.79 77.32 70.11 77.33 C 70.11 64.88 70.11 52.44 70.11 40.00 Z" />
<path fill="#f8fcf8" opacity="1.00" d=" M 75.53 40.00 C 76.21 40.00 77.55 40.00 78.23 40.00 C 78.23 52.44 78.23 64.88 78.23 77.32 C 77.55 77.32 76.21 77.33 75.53 77.34 C 75.53 64.89 75.53 52.44 75.53 40.00 Z" />
</g>
</svg>
