<?xml version="1.0" encoding="UTF-8" ?>
<!DOCTYPE svg PUBLIC "-//W3C//DTD SVG 1.1//EN" "http://www.w3.org/Graphics/SVG/1.1/DTD/svg11.dtd">
<svg width="117px" height="140px" viewBox="0 0 117 140" version="1.1" xmlns="http://www.w3.org/2000/svg">
<g id="#000000ff">
<path fill="#000000" opacity="1.00" d=" M 0.00 0.00 L 117.00 0.00 L 117.00 140.00 L 0.00 140.00 L 0.00 0.00 M 33.18 10.22 C 21.21 11.53 10.52 20.23 6.72 31.63 C 4.44 37.83 5.01 44.51 4.86 50.98 C 4.95 66.98 4.69 83.00 5.01 99.00 C 5.24 111.52 13.63 123.34 25.31 127.79 C 32.17 130.68 39.74 129.99 47.00 130.15 C 59.35 130.01 71.71 130.43 84.05 129.85 C 99.60 128.70 112.83 114.66 112.98 99.06 C 113.27 80.36 113.16 61.65 113.05 42.96 C 113.26 33.77 109.45 24.56 102.59 18.41 C 96.31 12.50 87.57 9.65 79.01 9.92 C 63.74 9.96 48.44 9.50 33.18 10.22 Z" />
<path fill="#000000" opacity="1.00" d=" M 33.32 12.34 C 48.87 11.73 64.46 12.23 80.03 12.07 C 88.20 11.86 96.35 15.05 102.15 20.82 C 107.63 26.41 110.99 34.13 110.91 42.00 C 110.95 60.68 110.95 79.37 110.91 98.05 C 111.00 108.49 105.09 118.77 95.96 123.86 C 91.19 126.75 85.57 127.97 80.02 127.93 C 65.69 127.92 51.35 127.95 37.02 127.91 C 26.30 127.98 15.75 121.81 10.76 112.29 C 8.07 107.66 6.99 102.26 7.07 96.94 C 7.11 78.27 6.99 59.60 7.13 40.92 C 7.34 26.68 19.14 13.78 33.32 12.34 M 52.22 23.33 C 41.64 24.07 32.24 32.50 30.29 42.91 C 29.02 50.60 30.92 58.58 28.47 66.12 C 27.75 69.19 25.62 71.85 25.42 75.04 C 25.93 82.10 30.97 87.63 35.97 92.15 C 39.59 95.37 45.08 96.74 49.54 94.45 C 53.77 92.43 58.60 89.50 63.35 91.80 C 68.03 94.00 73.29 97.26 78.53 94.65 C 84.99 91.42 90.01 85.28 92.51 78.56 C 94.46 73.30 90.31 68.91 89.53 63.94 C 87.64 56.26 90.16 48.10 87.64 40.52 C 85.49 33.39 79.91 27.43 72.93 24.85 C 66.32 22.32 59.12 23.46 52.22 23.33 M 22.38 102.98 C 22.39 105.31 22.39 107.64 22.38 109.97 C 22.72 109.98 23.39 110.00 23.73 110.01 C 23.77 109.11 23.86 107.30 23.90 106.40 C 25.16 107.72 25.97 109.52 27.62 110.43 C 26.76 108.60 27.02 106.73 27.49 104.84 C 27.26 102.25 24.12 103.37 22.38 102.98 M 28.29 102.95 C 28.29 105.31 28.29 107.67 28.29 110.03 C 30.19 110.05 32.10 110.00 34.00 109.89 C 32.78 109.10 31.41 108.76 29.89 108.86 C 29.90 108.46 29.91 107.66 29.92 107.26 C 31.15 107.01 32.35 106.68 33.52 106.25 C 32.62 106.15 30.81 105.97 29.91 105.87 C 29.90 105.42 29.90 104.51 29.90 104.06 C 30.92 104.01 32.96 103.92 33.98 103.88 C 32.43 102.42 30.17 103.17 28.29 102.95 M 35.22 103.13 C 35.19 104.18 35.17 105.22 35.15 106.27 C 36.51 106.82 37.86 107.41 39.19 108.04 C 37.79 109.07 36.27 108.99 34.81 108.18 C 34.69 108.61 34.44 109.45 34.31 109.87 C 36.06 109.83 37.81 109.77 39.55 109.62 C 39.65 108.64 39.75 107.67 39.85 106.70 C 38.45 106.02 37.05 105.35 35.68 104.62 C 36.65 104.46 38.58 104.14 39.55 103.98 C 38.25 103.09 36.71 103.14 35.22 103.13 M 40.36 103.05 C 40.39 105.34 40.39 107.62 40.35 109.91 C 42.24 109.96 44.12 109.95 46.01 109.87 C 44.61 109.18 43.11 108.82 41.53 108.80 C 41.48 106.56 43.96 107.04 45.43 106.44 C 44.21 106.21 42.98 106.05 41.74 105.95 C 41.76 105.46 41.78 104.49 41.79 104.00 C 44.00 103.89 46.20 103.81 48.41 104.00 C 48.39 105.99 48.39 107.99 48.38 109.98 C 48.73 109.99 49.42 110.01 49.77 110.02 C 49.77 108.12 49.77 106.23 49.78 104.34 C 50.46 104.02 51.82 103.40 52.50 103.08 C 48.45 103.04 44.41 103.29 40.36 103.05 M 58.37 103.06 C 58.39 105.36 58.39 107.66 58.36 109.95 C 62.85 109.71 67.35 110.01 71.84 109.88 C 71.81 109.23 71.76 107.93 71.73 107.27 C 72.96 106.89 74.19 106.50 75.42 106.10 C 76.85 106.79 76.29 108.72 76.48 110.01 C 76.79 110.01 77.41 110.00 77.72 110.00 C 77.77 109.09 77.86 107.28 77.91 106.37 C 79.19 107.75 79.95 109.77 81.90 110.38 C 81.58 109.76 80.94 108.51 80.63 107.89 C 81.19 106.54 82.29 104.50 80.73 103.40 C 79.30 103.05 77.85 102.91 76.36 102.99 L 76.46 104.71 C 75.64 104.17 74.82 103.63 74.01 103.08 C 68.80 103.13 63.58 103.08 58.37 103.06 M 82.33 107.12 C 82.68 110.50 88.84 111.08 89.43 108.01 L 90.16 109.73 C 90.64 109.87 91.59 110.15 92.07 110.29 C 92.04 109.36 91.98 107.49 91.94 106.56 C 93.12 108.69 94.47 107.21 95.37 105.67 C 95.32 106.75 95.24 108.92 95.19 110.00 C 95.55 109.99 96.27 109.98 96.63 109.98 C 96.62 107.57 96.61 105.15 96.57 102.74 C 95.46 103.88 94.37 105.04 93.27 106.20 C 92.59 105.28 91.91 104.36 91.22 103.45 L 91.00 102.55 C 90.60 103.07 89.80 104.12 89.40 104.64 C 87.49 101.48 81.57 103.22 82.33 107.12 Z" />
<path fill="#000000" opacity="1.00" d=" M 32.42 47.02 C 32.70 36.10 42.03 26.46 52.95 25.92 C 59.88 26.04 67.27 24.87 73.71 28.09 C 80.96 31.55 85.65 39.11 86.31 47.03 C 68.34 47.03 50.38 47.04 32.42 47.02 Z" />
<path fill="#000000" opacity="1.00" d=" M 32.45 49.55 C 50.36 49.63 68.27 49.56 86.19 49.58 C 86.18 50.24 86.17 51.54 86.16 52.20 C 68.28 52.20 50.40 52.17 32.51 52.21 C 32.50 51.55 32.46 50.21 32.45 49.55 Z" />
<path fill="#000000" opacity="1.00" d=" M 81.03 65.88 C 84.22 63.50 85.89 59.70 86.57 55.87 C 86.63 64.81 82.14 74.00 74.18 78.40 C 70.48 80.21 67.61 76.08 64.90 74.19 C 61.69 71.38 56.71 71.57 53.54 74.35 C 50.76 76.35 47.60 80.43 43.82 78.17 C 36.99 73.72 32.21 65.93 32.21 57.66 C 33.54 61.83 36.23 65.79 40.36 67.56 C 45.27 68.91 50.97 67.13 53.81 62.79 C 55.65 59.80 59.94 59.45 62.84 61.00 C 65.31 62.95 66.91 66.06 70.06 67.10 C 73.58 68.45 78.05 68.49 81.03 65.88 Z" />
<path fill="#000000" opacity="1.00" d=" M 31.08 66.81 C 33.75 72.43 37.54 78.01 43.28 80.83 C 46.45 82.59 50.17 80.84 52.57 78.58 C 54.75 76.78 57.03 74.15 60.19 74.82 C 64.12 75.83 66.21 79.96 70.09 81.11 C 72.36 82.19 74.86 81.24 76.84 80.01 C 81.69 76.80 85.05 71.87 87.62 66.74 C 88.21 70.29 91.12 73.41 90.11 77.14 C 88.81 82.15 85.15 86.07 81.50 89.54 C 78.79 92.10 74.67 93.94 71.02 92.35 C 67.06 90.83 63.37 88.01 58.92 88.34 C 53.78 88.34 49.83 92.35 44.86 92.98 C 41.28 92.91 38.11 90.79 35.68 88.30 C 32.13 84.57 28.53 80.28 28.09 74.92 C 28.79 72.12 30.27 69.58 31.08 66.81 M 28.53 75.26 C 29.92 79.26 32.50 74.20 34.15 73.01 C 32.05 70.36 29.65 73.49 28.53 75.26 M 30.85 80.17 C 33.27 80.05 36.96 77.68 35.27 74.99 C 32.75 75.23 30.76 77.66 30.85 80.17 M 33.99 84.04 C 35.62 82.39 39.22 80.73 37.19 78.00 C 35.33 79.43 31.56 81.36 33.99 84.04 M 72.44 84.20 C 70.57 85.70 70.95 88.79 72.87 90.06 C 75.13 92.02 79.25 89.92 78.91 86.94 C 79.39 83.57 74.52 81.72 72.44 84.20 Z" />
<path fill="#000000" opacity="1.00" d=" M 23.89 104.21 C 25.51 103.67 26.08 104.22 25.59 105.85 C 23.97 106.39 23.41 105.84 23.89 104.21 Z" />
<path fill="#000000" opacity="1.00" d=" M 59.79 104.14 C 61.34 103.95 62.89 103.72 64.43 103.45 C 64.10 105.22 65.37 108.15 63.19 109.01 C 62.33 109.02 60.60 109.04 59.74 109.05 C 59.75 108.60 59.77 107.71 59.77 107.26 C 61.03 107.07 62.24 106.70 63.39 106.17 C 62.46 106.15 60.62 106.10 59.70 106.07 C 59.72 105.59 59.77 104.63 59.79 104.14 Z" />
<path fill="#000000" opacity="1.00" d=" M 65.79 104.13 C 67.33 103.95 68.87 103.73 70.41 103.47 C 70.39 105.51 70.39 107.54 70.41 109.57 C 68.67 108.90 65.38 109.86 65.56 107.11 C 66.51 107.01 68.42 106.81 69.38 106.71 C 68.21 106.22 67.00 105.95 65.73 105.91 C 65.74 105.46 65.77 104.58 65.79 104.13 Z" />
<path fill="#000000" opacity="1.00" d=" M 71.89 104.20 C 73.52 103.67 74.08 104.22 73.56 105.85 C 71.94 106.38 71.38 105.83 71.89 104.20 Z" />
<path fill="#000000" opacity="1.00" d=" M 77.85 104.25 C 79.43 103.63 80.03 104.14 79.64 105.80 C 78.06 106.42 77.46 105.90 77.85 104.25 Z" />
<path fill="#000000" opacity="1.00" d=" M 84.73 108.47 C 81.86 106.09 85.85 102.84 88.49 104.73 C 89.02 107.07 87.35 110.33 84.73 108.47 Z" />
</g>
<g id="#717171ff">
<path fill="#717171" opacity="1.00" d=" M 33.18 10.22 C 48.44 9.50 63.74 9.96 79.01 9.92 C 87.57 9.65 96.31 12.50 102.59 18.41 C 109.45 24.56 113.26 33.77 113.05 42.96 C 113.16 61.65 113.27 80.36 112.98 99.06 C 112.83 114.66 99.60 128.70 84.05 129.85 C 71.71 130.43 59.35 130.01 47.00 130.15 C 39.74 129.99 32.17 130.68 25.31 127.79 C 13.63 123.34 5.24 111.52 5.01 99.00 C 4.69 83.00 4.95 66.98 4.86 50.98 C 5.01 44.51 4.44 37.83 6.72 31.63 C 10.52 20.23 21.21 11.53 33.18 10.22 M 33.32 12.34 C 19.14 13.78 7.34 26.68 7.13 40.92 C 6.99 59.60 7.11 78.27 7.07 96.94 C 6.99 102.26 8.07 107.66 10.76 112.29 C 15.75 121.81 26.30 127.98 37.02 127.91 C 51.35 127.95 65.69 127.92 80.02 127.93 C 85.57 127.97 91.19 126.75 95.96 123.86 C 105.09 118.77 111.00 108.49 110.91 98.05 C 110.95 79.37 110.95 60.68 110.91 42.00 C 110.99 34.13 107.63 26.41 102.15 20.82 C 96.35 15.05 88.20 11.86 80.03 12.07 C 64.46 12.23 48.87 11.73 33.32 12.34 Z" />
</g>
<g id="#f8fcf8ff">
<path fill="#f8fcf8" opacity="1.00" d=" M 52.22 23.33 C 59.12 23.46 66.32 22.32 72.93 24.85 C 79.91 27.43 85.49 33.39 87.64 40.52 C 90.16 48.10 87.64 56.26 89.53 63.94 C 90.31 68.91 94.46 73.30 92.51 78.56 C 90.01 85.28 84.99 91.42 78.53 94.65 C 73.29 97.26 68.03 94.00 63.35 91.80 C 58.60 89.50 53.77 92.43 49.54 94.45 C 45.08 96.74 39.59 95.37 35.97 92.15 C 30.97 87.63 25.93 82.10 25.42 75.04 C 25.62 71.85 27.75 69.19 28.47 66.12 C 30.92 58.58 29.02 50.60 30.29 42.91 C 32.24 32.50 41.64 24.07 52.22 23.33 M 32.42 47.02 C 50.38 47.04 68.34 47.03 86.31 47.03 C 85.65 39.11 80.96 31.55 73.71 28.09 C 67.27 24.87 59.88 26.04 52.95 25.92 C 42.03 26.46 32.70 36.10 32.42 47.02 M 32.45 49.55 C 32.46 50.21 32.50 51.55 32.51 52.21 C 50.40 52.17 68.28 52.20 86.16 52.20 C 86.17 51.54 86.18 50.24 86.19 49.58 C 68.27 49.56 50.36 49.63 32.45 49.55 M 34.47 54.81 C 34.95 60.08 38.98 66.32 44.98 65.36 C 49.14 65.28 51.22 61.37 53.95 58.92 C 56.84 57.17 60.60 57.18 63.69 58.38 C 66.30 59.65 67.40 62.71 69.89 64.16 C 73.04 65.98 77.60 66.05 80.14 63.14 C 82.63 61.05 83.45 57.83 84.20 54.82 C 67.62 54.78 51.05 54.80 34.47 54.81 M 81.03 65.88 C 78.05 68.49 73.58 68.45 70.06 67.10 C 66.91 66.06 65.31 62.95 62.84 61.00 C 59.94 59.45 55.65 59.80 53.81 62.79 C 50.97 67.13 45.27 68.91 40.36 67.56 C 36.23 65.79 33.54 61.83 32.21 57.66 C 32.21 65.93 36.99 73.72 43.82 78.17 C 47.60 80.43 50.76 76.35 53.54 74.35 C 56.71 71.57 61.69 71.38 64.90 74.19 C 67.61 76.08 70.48 80.21 74.18 78.40 C 82.14 74.00 86.63 64.81 86.57 55.87 C 85.89 59.70 84.22 63.50 81.03 65.88 M 31.08 66.81 C 30.27 69.58 28.79 72.12 28.09 74.92 C 28.53 80.28 32.13 84.57 35.68 88.30 C 38.11 90.79 41.28 92.91 44.86 92.98 C 49.83 92.35 53.78 88.34 58.92 88.34 C 63.37 88.01 67.06 90.83 71.02 92.35 C 74.67 93.94 78.79 92.10 81.50 89.54 C 85.15 86.07 88.81 82.15 90.11 77.14 C 91.12 73.41 88.21 70.29 87.62 66.74 C 85.05 71.87 81.69 76.80 76.84 80.01 C 74.86 81.24 72.36 82.19 70.09 81.11 C 66.21 79.96 64.12 75.83 60.19 74.82 C 57.03 74.15 54.75 76.78 52.57 78.58 C 50.17 80.84 46.45 82.59 43.28 80.83 C 37.54 78.01 33.75 72.43 31.08 66.81 Z" />
<path fill="#f8fcf8" opacity="1.00" d=" M 33.99 84.04 C 31.56 81.36 35.33 79.43 37.19 78.00 C 39.22 80.73 35.62 82.39 33.99 84.04 Z" />
<path fill="#f8fcf8" opacity="1.00" d=" M 72.44 84.20 C 74.52 81.72 79.39 83.57 78.91 86.94 C 79.25 89.92 75.13 92.02 72.87 90.06 C 70.95 88.79 70.57 85.70 72.44 84.20 M 74.64 85.85 C 72.27 86.16 74.99 89.60 76.00 87.84 C 76.95 86.86 75.92 85.02 74.64 85.85 Z" />
<path fill="#f8fcf8" opacity="1.00" d=" M 22.38 102.98 C 24.12 103.37 27.26 102.25 27.49 104.84 C 27.02 106.73 26.76 108.60 27.62 110.43 C 25.97 109.52 25.16 107.72 23.90 106.40 C 23.86 107.30 23.77 109.11 23.73 110.01 C 23.39 110.00 22.72 109.98 22.38 109.97 C 22.39 107.64 22.39 105.31 22.38 102.98 M 23.89 104.21 C 23.41 105.84 23.97 106.39 25.59 105.85 C 26.08 104.22 25.51 103.67 23.89 104.21 Z" />
<path fill="#f8fcf8" opacity="1.00" d=" M 35.22 103.13 C 36.71 103.14 38.25 103.09 39.55 103.98 C 38.58 104.14 36.65 104.46 35.68 104.62 C 37.05 105.35 38.45 106.02 39.85 106.70 C 39.75 107.67 39.65 108.64 39.55 109.62 C 37.81 109.77 36.06 109.83 34.31 109.87 C 34.44 109.45 34.69 108.61 34.81 108.18 C 36.27 108.99 37.79 109.07 39.19 108.04 C 37.86 107.41 36.51 106.82 35.15 106.27 C 35.17 105.22 35.19 104.18 35.22 103.13 Z" />
<path fill="#f8fcf8" opacity="1.00" d=" M 40.36 103.05 C 44.41 103.29 48.45 103.04 52.50 103.08 C 51.82 103.40 50.46 104.02 49.78 104.34 C 49.77 106.23 49.77 108.12 49.77 110.02 C 49.42 110.01 48.73 109.99 48.38 109.98 C 48.39 107.99 48.39 105.99 48.41 104.00 C 46.20 103.81 44.00 103.89 41.79 104.00 C 41.78 104.49 41.76 105.46 41.74 105.95 C 42.98 106.05 44.21 106.21 45.43 106.44 C 43.96 107.04 41.48 106.56 41.53 108.80 C 43.11 108.82 44.61 109.18 46.01 109.87 C 44.12 109.95 42.24 109.96 40.35 109.91 C 40.39 107.62 40.39 105.34 40.36 103.05 Z" />
<path fill="#f8fcf8" opacity="1.00" d=" M 58.37 103.06 C 63.58 103.08 68.80 103.13 74.01 103.08 C 74.82 103.63 75.64 104.17 76.46 104.71 L 76.36 102.99 C 77.85 102.91 79.30 103.05 80.73 103.40 C 82.29 104.50 81.19 106.54 80.63 107.89 C 80.94 108.51 81.58 109.76 81.90 110.38 C 79.95 109.77 79.19 107.75 77.91 106.37 C 77.86 107.28 77.77 109.09 77.72 110.00 C 77.41 110.00 76.79 110.01 76.48 110.01 C 76.29 108.72 76.85 106.79 75.42 106.10 C 74.19 106.50 72.96 106.89 71.73 107.27 C 71.76 107.93 71.81 109.23 71.84 109.88 C 67.35 110.01 62.85 109.71 58.36 109.95 C 58.39 107.66 58.39 105.36 58.37 103.06 M 59.79 104.14 C 59.77 104.63 59.72 105.59 59.70 106.07 C 60.62 106.10 62.46 106.15 63.39 106.17 C 62.24 106.70 61.03 107.07 59.77 107.26 C 59.77 107.71 59.75 108.60 59.74 109.05 C 60.60 109.04 62.33 109.02 63.19 109.01 C 65.37 108.15 64.10 105.22 64.43 103.45 C 62.89 103.72 61.34 103.95 59.79 104.14 M 65.79 104.13 C 65.77 104.58 65.74 105.46 65.73 105.91 C 67.00 105.95 68.21 106.22 69.38 106.71 C 68.42 106.81 66.51 107.01 65.56 107.11 C 65.38 109.86 68.67 108.90 70.41 109.57 C 70.39 107.54 70.39 105.51 70.41 103.47 C 68.87 103.73 67.33 103.95 65.79 104.13 M 71.89 104.20 C 71.38 105.83 71.94 106.38 73.56 105.85 C 74.08 104.22 73.52 103.67 71.89 104.20 M 77.85 104.25 C 77.46 105.90 78.06 106.42 79.64 105.80 C 80.03 104.14 79.43 103.63 77.85 104.25 Z" />
<path fill="#f8fcf8" opacity="1.00" d=" M 82.33 107.12 C 81.57 103.22 87.49 101.48 89.40 104.64 L 90.14 105.49 L 89.04 106.01 C 89.14 106.51 89.33 107.51 89.43 108.01 C 88.84 111.08 82.68 110.50 82.33 107.12 M 84.73 108.47 C 87.35 110.33 89.02 107.07 88.49 104.73 C 85.85 102.84 81.86 106.09 84.73 108.47 Z" />
<path fill="#f8fcf8" opacity="1.00" d=" M 93.27 106.20 C 94.37 105.04 95.46 103.88 96.57 102.74 C 96.61 105.15 96.62 107.57 96.63 109.98 C 96.27 109.98 95.55 109.99 95.19 110.00 C 95.24 108.92 95.32 106.75 95.37 105.67 C 94.47 107.21 93.12 108.69 91.94 106.56 C 91.70 105.52 91.46 104.49 91.22 103.45 C 91.91 104.36 92.59 105.28 93.27 106.20 Z" />
</g>
<g id="#303430ff">
<path fill="#303430" opacity="1.00" d=" M 34.47 54.81 C 51.05 54.80 67.62 54.78 84.20 54.82 C 83.45 57.83 82.63 61.05 80.14 63.14 C 77.60 66.05 73.04 65.98 69.89 64.16 C 67.40 62.71 66.30 59.65 63.69 58.38 C 60.60 57.18 56.84 57.17 53.95 58.92 C 51.22 61.37 49.14 65.28 44.98 65.36 C 38.98 66.32 34.95 60.08 34.47 54.81 Z" />
<path fill="#303430" opacity="1.00" d=" M 74.64 85.85 C 75.92 85.02 76.95 86.86 76.00 87.84 C 74.99 89.60 72.27 86.16 74.64 85.85 Z" />
</g>
<g id="#ecf0ecff">
<path fill="#ecf0ec" opacity="1.00" d=" M 28.53 75.26 C 29.65 73.49 32.05 70.36 34.15 73.01 C 32.50 74.20 29.92 79.26 28.53 75.26 Z" />
</g>
<g id="#ebecebff">
<path fill="#ebeceb" opacity="1.00" d=" M 30.85 80.17 C 30.76 77.66 32.75 75.23 35.27 74.99 C 36.96 77.68 33.27 80.05 30.85 80.17 Z" />
</g>
<g id="#d4d7d4ff">
<path fill="#d4d7d4" opacity="1.00" d=" M 28.29 102.95 C 30.17 103.17 32.43 102.42 33.98 103.88 C 32.96 103.92 30.92 104.01 29.90 104.06 C 29.90 104.51 29.90 105.42 29.91 105.87 C 30.81 105.97 32.62 106.15 33.52 106.25 C 32.35 106.68 31.15 107.01 29.92 107.26 C 29.91 107.66 29.90 108.46 29.89 108.86 C 31.41 108.76 32.78 109.10 34.00 109.89 C 32.10 110.00 30.19 110.05 28.29 110.03 C 28.29 107.67 28.29 105.31 28.29 102.95 Z" />
</g>
<g id="#a9aaa9ff">
<path fill="#a9aaa9" opacity="1.00" d=" M 89.40 104.64 C 89.80 104.12 90.60 103.07 91.00 102.55 L 91.22 103.45 C 91.46 104.49 91.70 105.52 91.94 106.56 C 91.98 107.49 92.04 109.36 92.07 110.29 C 91.59 110.15 90.64 109.87 90.16 109.73 L 89.43 108.01 C 89.33 107.51 89.14 106.51 89.04 106.01 L 90.14 105.49 L 89.40 104.64 Z" />
</g>
</svg>
