<?xml version="1.0" encoding="UTF-8" ?>
<!DOCTYPE svg PUBLIC "-//W3C//DTD SVG 1.1//EN" "http://www.w3.org/Graphics/SVG/1.1/DTD/svg11.dtd">
<svg width="117pt" height="140pt" viewBox="0 0 117 140" version="1.1" xmlns="http://www.w3.org/2000/svg">
<g id="#000000ff">
<path fill="#000000" opacity="1.00" d=" M 0.00 0.00 L 117.00 0.00 L 117.00 140.00 L 0.00 140.00 L 0.00 0.00 M 33.21 10.21 C 17.95 11.76 5.19 25.60 5.02 40.96 C 4.99 60.32 4.99 79.68 5.01 99.04 C 5.17 114.99 18.97 129.24 34.90 129.93 C 50.29 130.10 65.69 129.95 81.09 130.00 C 94.17 130.17 106.63 121.34 111.05 109.07 C 112.63 104.91 113.14 100.43 113.02 96.01 C 112.98 78.02 113.01 60.04 113.01 42.05 C 113.08 33.40 109.39 24.83 103.11 18.89 C 97.02 12.97 88.49 9.76 80.02 9.98 C 64.42 10.16 48.80 9.70 33.21 10.21 Z" />
<path fill="#000000" opacity="1.00" d=" M 33.29 12.34 C 48.52 11.72 63.79 12.25 79.03 12.06 C 85.38 11.89 91.86 13.30 97.18 16.87 C 105.62 22.16 110.99 32.01 110.90 41.97 C 110.97 59.31 110.90 76.66 110.94 94.01 C 111.12 100.01 110.60 106.24 107.62 111.59 C 102.77 121.49 91.99 127.98 80.99 127.91 C 65.95 127.92 50.91 127.99 35.88 127.87 C 20.71 127.68 7.27 114.25 7.13 99.08 C 7.03 79.69 7.03 60.30 7.13 40.92 C 7.33 26.69 19.13 13.79 33.29 12.34 M 60.29 28.43 C 60.10 32.81 60.29 37.20 60.11 41.58 C 55.02 42.40 50.54 46.16 49.89 51.45 C 45.49 51.36 40.99 50.72 36.63 51.62 C 40.98 51.90 45.35 51.61 49.70 52.01 C 50.23 57.24 54.10 61.82 59.42 62.57 C 59.42 66.56 59.45 70.54 59.39 74.52 C 70.16 77.59 81.01 69.13 83.88 59.00 C 84.48 56.36 85.41 53.34 84.12 50.78 C 79.90 49.93 75.46 50.73 71.15 50.44 C 69.99 45.63 65.67 41.94 60.67 41.81 C 60.66 37.36 61.25 32.83 60.29 28.43 Z" />
<path fill="#000000" opacity="1.00" d=" M 58.11 43.18 C 64.13 41.42 71.07 46.65 70.07 53.10 C 69.66 60.74 59.25 64.20 53.95 58.96 C 48.46 54.31 51.35 44.77 58.11 43.18 Z" />
</g>
<g id="#717171ff">
<path fill="#717171" opacity="1.00" d=" M 33.21 10.21 C 48.80 9.70 64.42 10.16 80.02 9.98 C 88.49 9.76 97.02 12.97 103.11 18.89 C 109.39 24.83 113.08 33.40 113.01 42.05 C 113.01 60.04 112.98 78.02 113.02 96.01 C 113.14 100.43 112.63 104.91 111.05 109.07 C 106.63 121.34 94.17 130.17 81.09 130.00 C 65.69 129.95 50.29 130.10 34.90 129.93 C 18.97 129.24 5.17 114.99 5.01 99.04 C 4.99 79.68 4.99 60.32 5.02 40.96 C 5.19 25.60 17.95 11.76 33.21 10.21 M 33.29 12.34 C 19.13 13.79 7.33 26.69 7.13 40.92 C 7.03 60.30 7.03 79.69 7.13 99.08 C 7.27 114.25 20.71 127.68 35.88 127.87 C 50.91 127.99 65.95 127.92 80.99 127.91 C 91.99 127.98 102.77 121.49 107.62 111.59 C 110.60 106.24 111.12 100.01 110.94 94.01 C 110.90 76.66 110.97 59.31 110.90 41.97 C 110.99 32.01 105.62 22.16 97.18 16.87 C 91.86 13.30 85.38 11.89 79.03 12.06 C 63.79 12.25 48.52 11.72 33.29 12.34 Z" />
</g>
<g id="#f8fcf8ff">
<path fill="#f8fcf8" opacity="1.00" d=" M 60.29 28.43 C 61.25 32.83 60.66 37.36 60.67 41.81 C 65.67 41.94 69.99 45.63 71.15 50.44 C 75.46 50.73 79.90 49.93 84.12 50.78 C 85.41 53.34 84.48 56.36 83.88 59.00 C 81.01 69.13 70.16 77.59 59.39 74.52 C 59.45 70.54 59.42 66.56 59.42 62.57 C 54.10 61.82 50.23 57.24 49.70 52.01 C 45.35 51.61 40.98 51.90 36.63 51.62 C 40.99 50.72 45.49 51.36 49.89 51.45 C 50.54 46.16 55.02 42.40 60.11 41.58 C 60.29 37.20 60.10 32.81 60.29 28.43 M 58.11 43.18 C 51.35 44.77 48.46 54.31 53.95 58.96 C 59.25 64.20 69.66 60.74 70.07 53.10 C 71.07 46.65 64.13 41.42 58.11 43.18 Z" />
</g>
</svg>
