<?xml version="1.0" encoding="UTF-8" ?>
<!DOCTYPE svg PUBLIC "-//W3C//DTD SVG 1.1//EN" "http://www.w3.org/Graphics/SVG/1.1/DTD/svg11.dtd">
<svg width="117px" height="140px" viewBox="0 0 117 140" version="1.1" xmlns="http://www.w3.org/2000/svg">
<g id="#000000ff">
<path fill="#000000" opacity="1.00" d=" M 0.00 0.00 L 117.00 0.00 L 117.00 140.00 L 0.00 140.00 L 0.00 0.00 M 33.15 10.23 C 17.92 11.79 5.20 25.61 5.02 40.94 C 5.01 60.63 4.93 80.34 5.06 100.03 C 5.72 115.99 19.99 129.84 35.97 129.98 C 51.66 129.98 67.36 130.09 83.05 129.92 C 98.98 129.28 112.83 115.02 112.97 99.07 C 113.04 80.03 112.98 60.99 113.00 41.95 C 113.05 33.34 109.36 24.81 103.12 18.90 C 97.04 12.98 88.52 9.77 80.05 9.98 C 64.42 10.17 48.76 9.69 33.15 10.23 Z" />
<path fill="#000000" opacity="1.00" d=" M 30.47 12.70 C 34.93 11.72 39.52 12.05 44.04 12.00 C 57.05 12.06 70.07 11.88 83.08 12.09 C 97.93 12.76 110.85 26.08 110.96 40.97 C 111.03 60.32 111.03 79.67 110.96 99.01 C 110.87 113.91 97.91 127.29 83.03 127.89 C 70.68 128.14 58.32 127.93 45.97 128.00 C 39.34 127.91 32.41 128.63 26.14 125.97 C 14.85 121.71 6.79 110.10 7.01 98.00 C 7.01 79.01 6.96 60.01 7.03 41.02 C 7.18 27.68 17.46 15.44 30.47 12.70 M 49.81 27.92 C 49.86 37.52 49.82 47.12 49.84 56.73 C 47.12 59.18 44.76 62.32 44.62 66.13 C 43.63 72.94 49.01 80.09 56.00 80.42 C 61.99 81.13 67.68 76.60 69.10 70.90 C 70.80 65.70 68.20 60.10 64.17 56.75 C 64.17 47.14 64.14 37.53 64.19 27.92 C 59.43 27.33 54.57 27.33 49.81 27.92 M 68.35 44.07 C 67.94 44.57 67.11 45.59 66.69 46.09 C 68.04 48.52 72.87 49.12 73.62 46.00 C 73.14 43.40 70.25 44.24 68.35 44.07 M 68.31 51.02 C 67.93 51.52 67.19 52.52 66.82 53.02 C 67.20 53.50 67.95 54.45 68.33 54.93 C 70.26 54.74 73.17 55.62 73.63 52.96 C 73.16 50.30 70.23 51.22 68.31 51.02 Z" />
<path fill="#000000" opacity="1.00" d=" M 53.41 31.21 C 55.80 31.27 58.20 31.27 60.59 31.21 C 60.18 40.37 60.55 49.54 60.39 58.71 C 66.57 61.61 67.77 71.19 62.06 75.13 C 57.63 78.45 50.34 76.30 48.82 70.87 C 46.95 66.29 49.37 60.94 53.62 58.69 C 53.44 49.53 53.82 40.36 53.41 31.21 M 54.99 44.00 C 54.96 49.33 55.26 54.66 55.07 59.99 C 53.11 61.69 50.34 63.12 49.95 65.95 C 48.59 71.16 54.53 76.87 59.62 74.50 C 62.24 72.95 64.67 70.21 64.17 66.94 C 64.20 63.69 61.30 61.64 58.85 60.10 C 58.89 54.73 58.97 49.37 59.01 44.00 C 57.67 44.00 56.33 44.00 54.99 44.00 Z" />
</g>
<g id="#717271ff">
<path fill="#717271" opacity="1.00" d=" M 33.15 10.23 C 48.76 9.69 64.42 10.17 80.05 9.98 C 88.52 9.77 97.04 12.98 103.12 18.90 C 109.36 24.81 113.05 33.34 113.00 41.95 C 112.98 60.99 113.04 80.03 112.97 99.07 C 112.83 115.02 98.98 129.28 83.05 129.92 C 67.36 130.09 51.66 129.98 35.97 129.98 C 19.99 129.84 5.72 115.99 5.06 100.03 C 4.93 80.34 5.01 60.63 5.02 40.94 C 5.20 25.61 17.92 11.79 33.15 10.23 M 30.47 12.70 C 17.46 15.44 7.18 27.68 7.03 41.02 C 6.96 60.01 7.01 79.01 7.01 98.00 C 6.79 110.10 14.85 121.71 26.14 125.97 C 32.41 128.63 39.34 127.91 45.97 128.00 C 58.32 127.93 70.68 128.14 83.03 127.89 C 97.91 127.29 110.87 113.91 110.96 99.01 C 111.03 79.67 111.03 60.32 110.96 40.97 C 110.85 26.08 97.93 12.76 83.08 12.09 C 70.07 11.88 57.05 12.06 44.04 12.00 C 39.52 12.05 34.93 11.72 30.47 12.70 Z" />
</g>
<g id="#f8fcf8ff">
<path fill="#f8fcf8" opacity="1.00" d=" M 49.81 27.92 C 54.57 27.33 59.43 27.33 64.19 27.92 C 64.14 37.53 64.17 47.14 64.17 56.75 C 68.20 60.10 70.80 65.70 69.10 70.90 C 67.68 76.60 61.99 81.13 56.00 80.42 C 49.01 80.09 43.63 72.94 44.62 66.13 C 44.76 62.32 47.12 59.18 49.84 56.73 C 49.82 47.12 49.86 37.52 49.81 27.92 M 53.41 31.21 C 53.82 40.36 53.44 49.53 53.62 58.69 C 49.37 60.94 46.95 66.29 48.82 70.87 C 50.34 76.30 57.63 78.45 62.06 75.13 C 67.77 71.19 66.57 61.61 60.39 58.71 C 60.55 49.54 60.18 40.37 60.59 31.21 C 58.20 31.27 55.80 31.27 53.41 31.21 Z" />
<path fill="#f8fcf8" opacity="1.00" d=" M 54.99 44.00 C 56.33 44.00 57.67 44.00 59.01 44.00 C 58.97 49.37 58.89 54.73 58.85 60.10 C 61.30 61.64 64.20 63.69 64.17 66.94 C 64.67 70.21 62.24 72.95 59.62 74.50 C 54.53 76.87 48.59 71.16 49.95 65.95 C 50.34 63.12 53.11 61.69 55.07 59.99 C 55.26 54.66 54.96 49.33 54.99 44.00 Z" />
<path fill="#f8fcf8" opacity="1.00" d=" M 68.35 44.07 C 70.25 44.24 73.14 43.40 73.62 46.00 C 72.87 49.12 68.04 48.52 66.69 46.09 C 67.11 45.59 67.94 44.57 68.35 44.07 Z" />
<path fill="#f8fcf8" opacity="1.00" d=" M 68.31 51.02 C 70.23 51.22 73.16 50.30 73.63 52.96 C 73.17 55.62 70.26 54.74 68.33 54.93 C 67.95 54.45 67.20 53.50 66.82 53.02 C 67.19 52.52 67.93 51.52 68.31 51.02 Z" />
</g>
</svg>
