<?xml version="1.0" encoding="UTF-8" ?>
<!DOCTYPE svg PUBLIC "-//W3C//DTD SVG 1.1//EN" "http://www.w3.org/Graphics/SVG/1.1/DTD/svg11.dtd">
<svg width="150px" height="80px" viewBox="0 0 150 80" version="1.1" xmlns="http://www.w3.org/2000/svg">
<g id="#181818ff">
<path fill="#181818" opacity="1.00" d=" M 0.00 0.00 L 150.00 0.00 L 150.00 80.00 L 0.00 80.00 L 0.00 0.00 M 17.32 14.37 C 15.59 15.19 14.84 17.13 15.01 18.95 C 14.99 33.00 14.99 47.04 15.01 61.08 C 14.55 63.91 17.10 66.52 19.95 66.00 C 56.64 66.01 93.34 66.00 130.04 66.00 C 132.93 66.50 135.52 63.84 135.00 60.96 C 134.96 46.60 135.09 32.23 134.93 17.87 C 134.99 15.39 132.42 13.65 130.10 14.00 C 94.08 13.98 58.05 14.04 22.02 13.97 C 20.46 14.06 18.81 13.83 17.32 14.37 Z" />
<path fill="#181818" opacity="1.00" d=" M 17.93 15.19 C 20.28 14.89 22.67 15.00 25.04 15.00 C 60.04 15.02 95.04 14.97 130.04 15.02 C 131.82 14.72 133.98 15.89 133.91 17.88 C 134.13 31.59 133.91 45.32 134.02 59.04 C 133.97 61.08 134.39 63.80 132.08 64.80 C 129.07 65.18 126.04 64.96 123.02 65.00 C 88.67 64.99 54.31 65.03 19.96 64.98 C 17.63 65.47 15.54 63.34 16.02 61.02 C 15.99 47.01 15.99 33.00 16.02 18.99 C 15.83 17.45 16.45 15.86 17.93 15.19 M 35.60 38.56 C 34.40 40.62 36.53 42.38 37.80 43.72 C 39.56 45.36 41.12 47.22 43.03 48.70 C 44.78 49.42 46.40 47.83 45.89 46.06 C 44.32 44.01 42.43 42.21 40.42 40.60 C 40.44 40.28 40.49 39.63 40.51 39.30 C 42.27 37.48 44.30 35.91 45.81 33.86 C 46.69 32.17 44.64 30.06 42.95 31.11 C 40.33 33.40 37.81 35.86 35.60 38.56 Z" />
</g>
<g id="#474ff3ff">
<path fill="#474ff3" opacity="1.00" d=" M 17.32 14.37 C 18.81 13.83 20.46 14.06 22.02 13.97 C 58.05 14.04 94.08 13.98 130.10 14.00 C 132.42 13.65 134.99 15.39 134.93 17.87 C 135.09 32.23 134.96 46.60 135.00 60.96 C 135.52 63.84 132.93 66.50 130.04 66.00 C 93.34 66.00 56.64 66.01 19.95 66.00 C 17.10 66.52 14.55 63.91 15.01 61.08 C 14.99 47.04 14.99 33.00 15.01 18.95 C 14.84 17.13 15.59 15.19 17.32 14.37 M 17.93 15.19 C 16.45 15.86 15.83 17.45 16.02 18.99 C 15.99 33.00 15.99 47.01 16.02 61.02 C 15.54 63.34 17.63 65.47 19.96 64.98 C 54.31 65.03 88.67 64.99 123.02 65.00 C 126.04 64.96 129.07 65.18 132.08 64.80 C 134.39 63.80 133.97 61.08 134.02 59.04 C 133.91 45.32 134.13 31.59 133.91 17.88 C 133.98 15.89 131.82 14.72 130.04 15.02 C 95.04 14.97 60.04 15.02 25.04 15.00 C 22.67 15.00 20.28 14.89 17.93 15.19 Z" />
</g>
<g id="#f8bc60ff">
<path fill="#f8bc60" opacity="1.00" d=" M 35.60 38.56 C 37.81 35.86 40.33 33.40 42.95 31.11 C 44.64 30.06 46.69 32.17 45.81 33.86 C 44.30 35.91 42.27 37.48 40.51 39.30 C 40.49 39.63 40.44 40.28 40.42 40.60 C 39.58 41.67 38.70 42.71 37.80 43.72 C 36.53 42.38 34.40 40.62 35.60 38.56 Z" />
</g>
<g id="#f89c48ff">
<path fill="#f89c48" opacity="1.00" d=" M 40.42 40.60 C 42.43 42.21 44.32 44.01 45.89 46.06 C 46.40 47.83 44.78 49.42 43.03 48.70 C 41.12 47.22 39.56 45.36 37.80 43.72 C 38.70 42.71 39.58 41.67 40.42 40.60 Z" />
</g>
</svg>
