<?xml version="1.0" encoding="UTF-8" ?>
<!DOCTYPE svg PUBLIC "-//W3C//DTD SVG 1.1//EN" "http://www.w3.org/Graphics/SVG/1.1/DTD/svg11.dtd">
<svg width="117px" height="140px" viewBox="0 0 117 140" version="1.1" xmlns="http://www.w3.org/2000/svg">
<g id="#000000ff">
<path fill="#000000" opacity="1.00" d=" M 0.00 0.00 L 117.00 0.00 L 117.00 140.00 L 0.00 140.00 L 0.00 0.00 M 33.15 10.22 C 17.90 11.80 5.17 25.65 5.02 41.00 C 4.99 60.33 4.99 79.67 5.02 99.01 C 5.15 115.00 19.01 129.29 34.98 129.93 C 50.32 130.10 65.67 129.95 81.02 130.00 C 93.10 130.15 104.79 122.70 109.88 111.76 C 112.68 106.30 113.24 100.05 113.01 94.00 C 112.98 76.65 113.01 59.30 113.00 41.95 C 113.05 33.33 109.36 24.79 103.10 18.88 C 97.00 12.95 88.45 9.74 79.96 9.98 C 64.36 10.17 48.74 9.69 33.15 10.22 Z" />
<path fill="#000000" opacity="1.00" d=" M 33.27 12.34 C 48.51 11.71 63.78 12.26 79.03 12.06 C 85.37 11.89 91.84 13.30 97.16 16.86 C 105.63 22.15 111.00 32.02 110.91 42.01 C 110.97 59.34 110.89 76.67 110.94 94.01 C 111.11 100.01 110.60 106.25 107.61 111.59 C 102.76 121.50 91.97 127.99 80.97 127.90 C 66.31 127.95 51.65 127.94 36.99 127.91 C 26.55 127.97 16.23 122.11 11.13 112.96 C 8.24 108.18 6.97 102.56 7.07 97.00 C 7.11 78.32 6.99 59.64 7.13 40.97 C 7.30 26.73 19.10 13.80 33.27 12.34 M 39.00 33.04 C 38.86 41.46 38.95 49.88 38.94 58.29 C 38.31 58.39 37.05 58.59 36.43 58.69 C 36.39 62.68 40.94 64.59 43.20 67.37 C 46.26 66.01 48.49 63.40 50.66 60.95 C 50.96 59.39 50.35 57.92 48.48 58.43 C 48.84 50.03 48.40 41.63 48.76 33.23 C 45.54 32.64 42.25 32.80 39.00 33.04 M 68.26 33.24 C 68.69 41.62 68.25 50.02 68.54 58.41 C 66.66 57.94 66.11 59.36 66.32 60.94 C 68.52 63.36 70.66 66.13 73.81 67.33 C 76.00 64.49 80.76 62.65 80.54 58.62 C 79.94 58.55 78.73 58.41 78.12 58.34 C 78.08 49.90 78.28 41.46 77.99 33.02 C 74.75 32.82 71.47 32.62 68.26 33.24 M 33.07 71.10 C 33.06 73.61 32.33 76.32 33.29 78.72 C 36.10 80.18 39.40 79.33 42.44 79.47 C 41.67 81.72 43.05 82.24 45.03 82.14 C 45.03 81.48 45.04 80.16 45.04 79.50 C 54.02 79.52 62.99 79.52 71.96 79.50 C 71.96 80.13 71.96 81.40 71.97 82.03 C 72.64 82.00 74.00 81.95 74.67 81.93 C 74.62 81.32 74.52 80.09 74.47 79.48 C 77.51 79.28 80.86 80.22 83.68 78.74 C 84.70 76.35 83.92 73.61 83.93 71.10 C 66.98 70.94 50.02 70.94 33.07 71.10 Z" />
<path fill="#000000" opacity="1.00" d=" M 41.93 35.93 C 43.17 35.97 44.41 36.01 45.66 36.06 C 45.89 44.42 44.95 52.89 46.19 61.18 C 45.34 62.08 44.48 62.97 43.63 63.87 C 42.84 62.99 42.04 62.12 41.25 61.24 C 41.68 59.89 42.01 58.49 41.95 57.06 C 41.92 50.02 41.93 42.97 41.93 35.93 Z" />
<path fill="#000000" opacity="1.00" d=" M 71.40 36.07 C 72.64 36.02 73.89 35.97 75.14 35.92 C 75.50 44.34 74.36 52.92 75.75 61.24 C 74.94 62.11 74.12 62.98 73.30 63.85 C 72.48 62.99 71.66 62.12 70.85 61.25 C 72.15 52.96 71.17 44.45 71.40 36.07 Z" />
<path fill="#000000" opacity="1.00" d=" M 35.89 74.09 C 50.96 74.10 66.04 74.10 81.11 74.10 C 81.14 74.70 81.18 75.89 81.21 76.49 C 66.07 76.48 50.93 76.48 35.79 76.49 C 35.82 75.89 35.86 74.69 35.89 74.09 Z" />
</g>
<g id="#717171ff">
<path fill="#717171" opacity="1.00" d=" M 33.15 10.22 C 48.74 9.69 64.36 10.17 79.96 9.98 C 88.45 9.74 97.00 12.95 103.10 18.88 C 109.36 24.79 113.05 33.33 113.00 41.95 C 113.01 59.30 112.98 76.65 113.01 94.00 C 113.24 100.05 112.68 106.30 109.88 111.76 C 104.79 122.70 93.10 130.15 81.02 130.00 C 65.67 129.95 50.32 130.10 34.98 129.93 C 19.01 129.29 5.15 115.00 5.02 99.01 C 4.99 79.67 4.99 60.33 5.02 41.00 C 5.17 25.65 17.90 11.80 33.15 10.22 M 33.27 12.34 C 19.10 13.80 7.30 26.73 7.13 40.97 C 6.99 59.64 7.11 78.32 7.07 97.00 C 6.97 102.56 8.24 108.18 11.13 112.96 C 16.23 122.11 26.55 127.97 36.99 127.91 C 51.65 127.94 66.31 127.95 80.97 127.90 C 91.97 127.99 102.76 121.50 107.61 111.59 C 110.60 106.25 111.11 100.01 110.94 94.01 C 110.89 76.67 110.97 59.34 110.91 42.01 C 111.00 32.02 105.63 22.15 97.16 16.86 C 91.84 13.30 85.37 11.89 79.03 12.06 C 63.78 12.26 48.51 11.71 33.27 12.34 Z" />
</g>
<g id="#f8fcf8ff">
<path fill="#f8fcf8" opacity="1.00" d=" M 39.00 33.04 C 42.25 32.80 45.54 32.64 48.76 33.23 C 48.40 41.63 48.84 50.03 48.48 58.43 C 50.35 57.92 50.96 59.39 50.66 60.95 C 48.49 63.40 46.26 66.01 43.20 67.37 C 40.94 64.59 36.39 62.68 36.43 58.69 C 37.05 58.59 38.31 58.39 38.94 58.29 C 38.95 49.88 38.86 41.46 39.00 33.04 M 41.93 35.93 C 41.93 42.97 41.92 50.02 41.95 57.06 C 42.01 58.49 41.68 59.89 41.25 61.24 C 42.04 62.12 42.84 62.99 43.63 63.87 C 44.48 62.97 45.34 62.08 46.19 61.18 C 44.95 52.89 45.89 44.42 45.66 36.06 C 44.41 36.01 43.17 35.97 41.93 35.93 Z" />
<path fill="#f8fcf8" opacity="1.00" d=" M 68.26 33.24 C 71.47 32.62 74.75 32.82 77.99 33.02 C 78.28 41.46 78.08 49.90 78.12 58.34 C 78.73 58.41 79.94 58.55 80.54 58.62 C 80.76 62.65 76.00 64.49 73.81 67.33 C 70.66 66.13 68.52 63.36 66.32 60.94 C 66.11 59.36 66.66 57.94 68.54 58.41 C 68.25 50.02 68.69 41.62 68.26 33.24 M 71.40 36.07 C 71.17 44.45 72.15 52.96 70.85 61.25 C 71.66 62.12 72.48 62.99 73.30 63.85 C 74.12 62.98 74.94 62.11 75.75 61.24 C 74.36 52.92 75.50 44.34 75.14 35.92 C 73.89 35.97 72.64 36.02 71.40 36.07 Z" />
<path fill="#f8fcf8" opacity="1.00" d=" M 33.07 71.10 C 50.02 70.94 66.98 70.94 83.93 71.10 C 83.92 73.61 84.70 76.35 83.68 78.74 C 80.86 80.22 77.51 79.28 74.47 79.48 C 74.52 80.09 74.62 81.32 74.67 81.93 C 74.00 81.95 72.64 82.00 71.97 82.03 C 71.96 81.40 71.96 80.13 71.96 79.50 C 62.99 79.52 54.02 79.52 45.04 79.50 C 45.04 80.16 45.03 81.48 45.03 82.14 C 43.05 82.24 41.67 81.72 42.44 79.47 C 39.40 79.33 36.10 80.18 33.29 78.72 C 32.33 76.32 33.06 73.61 33.07 71.10 M 35.89 74.09 C 35.86 74.69 35.82 75.89 35.79 76.49 C 50.93 76.48 66.07 76.48 81.21 76.49 C 81.18 75.89 81.14 74.70 81.11 74.10 C 66.04 74.10 50.96 74.10 35.89 74.09 Z" />
</g>
</svg>
