<?xml version="1.0" encoding="UTF-8" ?>
<!DOCTYPE svg PUBLIC "-//W3C//DTD SVG 1.1//EN" "http://www.w3.org/Graphics/SVG/1.1/DTD/svg11.dtd">
<svg width="117px" height="140px" viewBox="0 0 117 140" version="1.1" xmlns="http://www.w3.org/2000/svg">
<g id="#000000ff">
<path fill="#000000" opacity="1.00" d=" M 0.00 0.00 L 117.00 0.00 L 117.00 140.00 L 0.00 140.00 L 0.00 0.00 M 32.16 10.21 C 16.92 11.78 4.18 25.61 4.02 40.96 C 4.02 60.65 3.93 80.34 4.06 100.03 C 4.71 116.00 19.00 129.84 34.98 129.99 C 50.65 129.97 66.33 130.09 82.00 129.93 C 97.59 129.31 111.27 115.70 111.93 100.09 C 112.10 80.73 111.94 61.36 112.00 42.00 C 112.05 34.33 109.16 26.72 104.10 20.96 C 97.94 13.78 88.45 9.69 79.01 9.98 C 63.40 10.16 47.77 9.71 32.16 10.21 Z" />
<path fill="#000000" opacity="1.00" d=" M 32.18 12.25 C 44.41 11.69 56.68 12.15 68.93 12.00 C 76.26 12.19 83.93 11.14 90.90 14.05 C 101.83 18.23 109.81 29.28 109.97 41.03 C 110.04 60.03 109.99 79.03 109.99 98.03 C 110.40 113.63 96.65 127.85 81.04 127.95 C 65.68 128.04 50.32 128.01 34.95 127.97 C 19.73 127.81 6.20 114.31 6.03 99.09 C 5.98 79.70 5.99 60.31 6.02 40.92 C 6.24 26.67 18.03 13.81 32.18 12.25 M 36.60 42.00 C 36.59 50.67 36.59 59.33 36.60 68.00 C 43.87 68.00 51.14 68.00 58.41 68.00 C 58.40 66.00 58.40 64.00 58.41 62.01 C 54.06 61.98 49.72 62.05 45.38 61.94 C 45.38 60.65 45.37 59.35 45.37 58.06 C 48.91 57.98 52.46 57.99 56.00 58.00 C 56.00 55.87 56.00 53.73 56.00 51.60 C 52.46 51.59 48.93 51.59 45.40 51.61 C 45.39 50.54 45.39 49.46 45.39 48.39 C 49.60 48.41 53.80 48.41 58.00 48.40 C 58.00 46.27 58.00 44.13 58.00 42.00 C 50.86 42.00 43.73 42.00 36.60 42.00 M 61.62 49.17 C 61.57 55.45 61.60 61.72 61.60 68.00 C 64.20 68.00 66.80 68.00 69.40 68.00 C 69.53 64.15 69.14 60.27 69.60 56.43 C 69.93 53.96 74.04 53.94 74.40 56.41 C 74.86 60.25 74.47 64.14 74.60 68.00 C 77.20 68.00 79.80 68.00 82.40 68.00 C 82.07 62.61 83.33 56.90 81.24 51.76 C 78.46 46.98 71.42 47.82 68.30 51.84 C 68.39 51.16 68.57 49.81 68.65 49.13 C 66.31 49.17 63.96 49.18 61.62 49.17 Z" />
</g>
<g id="#6a6e6aff">
<path fill="#6a6e6a" opacity="1.00" d=" M 32.16 10.21 C 47.77 9.71 63.40 10.16 79.01 9.98 C 88.45 9.69 97.94 13.78 104.10 20.96 C 109.16 26.72 112.05 34.33 112.00 42.00 C 111.94 61.36 112.10 80.73 111.93 100.09 C 111.27 115.70 97.59 129.31 82.00 129.93 C 66.33 130.09 50.65 129.97 34.98 129.99 C 19.00 129.84 4.71 116.00 4.06 100.03 C 3.93 80.34 4.02 60.65 4.02 40.96 C 4.18 25.61 16.92 11.78 32.16 10.21 M 32.18 12.25 C 18.03 13.81 6.24 26.67 6.02 40.92 C 5.99 60.31 5.98 79.70 6.03 99.09 C 6.20 114.31 19.73 127.81 34.95 127.97 C 50.32 128.01 65.68 128.04 81.04 127.95 C 96.65 127.85 110.40 113.63 109.99 98.03 C 109.99 79.03 110.04 60.03 109.97 41.03 C 109.81 29.28 101.83 18.23 90.90 14.05 C 83.93 11.14 76.26 12.19 68.93 12.00 C 56.68 12.15 44.41 11.69 32.18 12.25 Z" />
</g>
<g id="#e86010ff">
<path fill="#e86010" opacity="1.00" d=" M 36.60 42.00 C 43.73 42.00 50.86 42.00 58.00 42.00 C 58.00 44.13 58.00 46.27 58.00 48.40 C 53.80 48.41 49.60 48.41 45.39 48.39 C 45.39 49.46 45.39 50.54 45.40 51.61 C 48.93 51.59 52.46 51.59 56.00 51.60 C 56.00 53.73 56.00 55.87 56.00 58.00 C 52.46 57.99 48.91 57.98 45.37 58.06 C 45.37 59.35 45.38 60.65 45.38 61.94 C 49.72 62.05 54.06 61.98 58.41 62.01 C 58.40 64.00 58.40 66.00 58.41 68.00 C 51.14 68.00 43.87 68.00 36.60 68.00 C 36.59 59.33 36.59 50.67 36.60 42.00 Z" />
<path fill="#e86010" opacity="1.00" d=" M 61.62 49.17 C 63.96 49.18 66.31 49.17 68.65 49.13 C 68.57 49.81 68.39 51.16 68.30 51.84 C 71.42 47.82 78.46 46.98 81.24 51.76 C 83.33 56.90 82.07 62.61 82.40 68.00 C 79.80 68.00 77.20 68.00 74.60 68.00 C 74.47 64.14 74.86 60.25 74.40 56.41 C 74.04 53.94 69.93 53.96 69.60 56.43 C 69.14 60.27 69.53 64.15 69.40 68.00 C 66.80 68.00 64.20 68.00 61.60 68.00 C 61.60 61.72 61.57 55.45 61.62 49.17 Z" />
</g>
</svg>
