<?xml version="1.0" encoding="UTF-8" ?>
<!DOCTYPE svg PUBLIC "-//W3C//DTD SVG 1.1//EN" "http://www.w3.org/Graphics/SVG/1.1/DTD/svg11.dtd">
<svg width="117px" height="140px" viewBox="0 0 117 140" version="1.1" xmlns="http://www.w3.org/2000/svg">
<g id="#000000ff">
<path fill="#000000" opacity="1.00" d=" M 0.00 0.00 L 117.00 0.00 L 117.00 140.00 L 0.00 140.00 L 0.00 0.00 M 33.15 10.22 C 17.90 11.80 5.17 25.65 5.02 41.00 C 4.99 60.35 4.99 79.70 5.02 99.05 C 5.18 115.01 19.01 129.28 34.96 129.93 C 50.30 130.10 65.65 129.95 80.99 130.00 C 98.08 130.45 113.46 115.09 113.01 97.99 C 113.00 79.34 113.00 60.69 113.01 42.03 C 113.08 33.37 109.36 24.78 103.06 18.84 C 96.96 12.94 88.44 9.75 79.98 9.98 C 64.37 10.17 48.74 9.69 33.15 10.22 Z" />
<path fill="#000000" opacity="1.00" d=" M 30.45 12.71 C 34.26 11.82 38.20 12.00 42.08 12.00 C 55.72 12.06 69.36 11.89 83.00 12.08 C 97.88 12.72 110.83 26.04 110.96 40.95 C 111.02 60.31 111.03 79.67 110.96 99.03 C 110.86 114.28 97.31 127.83 82.06 127.95 C 66.72 128.05 51.37 128.01 36.02 127.97 C 20.75 127.86 7.15 114.32 7.03 99.04 C 6.98 79.69 6.99 60.33 7.03 40.98 C 7.21 27.67 17.46 15.44 30.45 12.71 M 52.59 27.00 C 52.64 33.20 52.57 39.40 52.65 45.60 C 46.43 45.62 40.22 45.61 34.00 45.61 C 34.08 49.74 33.85 53.88 34.08 58.01 C 34.32 58.30 34.80 58.87 35.04 59.16 C 40.91 59.42 46.79 59.14 52.66 59.29 C 52.67 65.20 52.40 71.12 52.76 77.02 C 54.68 78.81 57.59 77.66 59.96 77.99 C 61.98 77.69 64.60 78.76 66.09 76.95 C 66.48 71.07 66.17 65.16 66.21 59.27 C 72.12 59.14 78.04 59.46 83.94 59.12 C 84.17 58.82 84.65 58.21 84.89 57.90 C 85.14 53.81 84.86 49.71 85.00 45.62 C 78.74 45.62 72.48 45.59 66.23 45.63 C 66.27 39.42 66.25 33.21 66.26 27.00 C 61.70 27.00 57.15 27.00 52.59 27.00 Z" />
<path fill="#000000" opacity="1.00" d=" M 56.03 30.24 C 58.31 30.23 60.60 30.24 62.88 30.25 C 62.79 36.52 62.84 42.79 62.84 49.06 C 69.12 49.10 75.39 48.99 81.67 49.13 C 81.63 51.35 81.63 53.58 81.66 55.80 C 75.38 55.87 69.11 55.82 62.84 55.84 C 62.81 62.11 62.87 68.37 62.82 74.64 C 60.51 74.68 58.19 74.65 55.89 74.45 C 56.25 68.25 55.99 62.04 56.06 55.84 C 49.77 55.82 43.48 55.86 37.19 55.81 C 37.21 53.57 37.22 51.33 37.21 49.09 C 43.45 49.04 49.69 49.06 55.93 49.08 C 56.21 42.80 56.02 36.52 56.03 30.24 Z" />
</g>
<g id="#717271ff">
<path fill="#717271" opacity="1.00" d=" M 33.15 10.22 C 48.74 9.69 64.37 10.17 79.98 9.98 C 88.44 9.75 96.96 12.94 103.06 18.84 C 109.36 24.78 113.08 33.37 113.01 42.03 C 113.00 60.69 113.00 79.34 113.01 97.99 C 113.46 115.09 98.08 130.45 80.99 130.00 C 65.65 129.95 50.30 130.10 34.96 129.93 C 19.01 129.28 5.18 115.01 5.02 99.05 C 4.99 79.70 4.99 60.35 5.02 41.00 C 5.17 25.65 17.90 11.80 33.15 10.22 M 30.45 12.71 C 17.46 15.44 7.21 27.67 7.03 40.98 C 6.99 60.33 6.98 79.69 7.03 99.04 C 7.15 114.32 20.75 127.86 36.02 127.97 C 51.37 128.01 66.72 128.05 82.06 127.95 C 97.31 127.83 110.86 114.28 110.96 99.03 C 111.03 79.67 111.02 60.31 110.96 40.95 C 110.83 26.04 97.88 12.72 83.00 12.08 C 69.36 11.89 55.72 12.06 42.08 12.00 C 38.20 12.00 34.26 11.82 30.45 12.71 Z" />
</g>
<g id="#f8fcf8ff">
<path fill="#f8fcf8" opacity="1.00" d=" M 52.59 27.00 C 57.15 27.00 61.70 27.00 66.26 27.00 C 66.25 33.21 66.27 39.42 66.23 45.63 C 72.48 45.59 78.74 45.62 85.00 45.62 C 84.86 49.71 85.14 53.81 84.89 57.90 C 84.65 58.21 84.17 58.82 83.94 59.12 C 78.04 59.46 72.12 59.14 66.21 59.27 C 66.17 65.16 66.48 71.07 66.09 76.95 C 64.60 78.76 61.98 77.69 59.96 77.99 C 57.59 77.66 54.68 78.81 52.76 77.02 C 52.40 71.12 52.67 65.20 52.66 59.29 C 46.79 59.14 40.91 59.42 35.04 59.16 C 34.80 58.87 34.32 58.30 34.08 58.01 C 33.85 53.88 34.08 49.74 34.00 45.61 C 40.22 45.61 46.43 45.62 52.65 45.60 C 52.57 39.40 52.64 33.20 52.59 27.00 M 56.03 30.24 C 56.02 36.52 56.21 42.80 55.93 49.08 C 49.69 49.06 43.45 49.04 37.21 49.09 C 37.22 51.33 37.21 53.57 37.19 55.81 C 43.48 55.86 49.77 55.82 56.06 55.84 C 55.99 62.04 56.25 68.25 55.89 74.45 C 58.19 74.65 60.51 74.68 62.82 74.64 C 62.87 68.37 62.81 62.11 62.84 55.84 C 69.11 55.82 75.38 55.87 81.66 55.80 C 81.63 53.58 81.63 51.35 81.67 49.13 C 75.39 48.99 69.12 49.10 62.84 49.06 C 62.84 42.79 62.79 36.52 62.88 30.25 C 60.60 30.24 58.31 30.23 56.03 30.24 Z" />
</g>
</svg>
