<?xml version="1.0" encoding="UTF-8" ?>
<!DOCTYPE svg PUBLIC "-//W3C//DTD SVG 1.1//EN" "http://www.w3.org/Graphics/SVG/1.1/DTD/svg11.dtd">
<svg width="117pt" height="140pt" viewBox="0 0 117 140" version="1.1" xmlns="http://www.w3.org/2000/svg">
<g id="#000000ff">
<path fill="#000000" opacity="1.00" d=" M 0.00 0.00 L 117.00 0.00 L 117.00 140.00 L 0.00 140.00 L 0.00 0.00 M 41.74 28.73 C 28.70 37.61 24.77 56.78 32.83 70.25 C 39.81 83.12 56.83 89.28 70.33 83.36 C 84.70 77.82 92.74 60.49 88.20 45.86 C 80.81 48.09 73.42 50.33 65.99 52.43 C 66.57 54.62 67.19 56.81 67.84 58.99 C 71.15 57.96 74.46 56.91 77.83 56.10 C 77.20 58.85 76.57 61.66 75.11 64.12 C 71.22 70.93 62.68 75.15 54.96 73.09 C 47.13 71.32 41.01 64.09 40.45 56.10 C 39.58 48.63 43.83 41.00 50.37 37.43 C 54.31 35.14 59.00 35.06 63.40 35.67 C 65.42 32.13 67.35 28.54 69.24 24.93 C 60.13 21.91 49.58 23.04 41.74 28.73 Z" />
</g>
<g id="#707070ff">
<path fill="#707070" opacity="1.00" d=" M 41.74 28.73 C 49.58 23.04 60.13 21.91 69.24 24.93 C 67.35 28.54 65.42 32.13 63.40 35.67 C 59.00 35.06 54.31 35.14 50.37 37.43 C 43.83 41.00 39.58 48.63 40.45 56.10 C 41.01 64.09 47.13 71.32 54.96 73.09 C 62.68 75.15 71.22 70.93 75.11 64.12 C 76.57 61.66 77.20 58.85 77.83 56.10 C 74.46 56.91 71.15 57.96 67.84 58.99 C 67.19 56.81 66.57 54.62 65.99 52.43 C 73.42 50.33 80.81 48.09 88.20 45.86 C 92.74 60.49 84.70 77.82 70.33 83.36 C 56.83 89.28 39.81 83.12 32.83 70.25 C 24.77 56.78 28.70 37.61 41.74 28.73 Z" />
</g>
</svg>
