<?xml version="1.0" encoding="UTF-8" ?>
<!DOCTYPE svg PUBLIC "-//W3C//DTD SVG 1.1//EN" "http://www.w3.org/Graphics/SVG/1.1/DTD/svg11.dtd">
<svg width="117px" height="140px" viewBox="0 0 117 140" version="1.1" xmlns="http://www.w3.org/2000/svg">
<g id="#000000ff">
<path fill="#000000" opacity="1.00" d=" M 0.00 0.00 L 117.00 0.00 L 117.00 140.00 L 0.00 140.00 L 0.00 0.00 M 33.16 10.22 C 17.93 11.78 5.21 25.60 5.02 40.93 C 4.98 60.30 4.99 79.67 5.02 99.05 C 5.17 115.00 18.98 129.26 34.92 129.93 C 50.63 130.08 66.35 129.99 82.06 129.97 C 98.01 129.83 112.27 116.00 112.93 100.07 C 113.10 80.71 112.95 61.34 113.00 41.98 C 113.06 33.36 109.37 24.83 103.13 18.91 C 97.03 12.97 88.48 9.75 79.99 9.98 C 64.38 10.17 48.76 9.69 33.16 10.22 Z" />
<path fill="#000000" opacity="1.00" d=" M 33.29 12.34 C 48.52 11.72 63.80 12.25 79.05 12.06 C 85.35 11.89 91.79 13.29 97.08 16.81 C 105.59 22.09 111.00 31.99 110.90 41.99 C 110.95 60.68 110.95 79.36 110.90 98.05 C 110.99 108.48 105.09 118.76 95.97 123.86 C 91.19 126.74 85.58 127.97 80.03 127.93 C 65.70 127.92 51.36 127.95 37.02 127.91 C 26.31 127.99 15.76 121.82 10.77 112.31 C 8.11 107.67 6.98 102.29 7.07 96.98 C 7.11 78.30 6.99 59.62 7.13 40.95 C 7.31 26.71 19.12 13.79 33.29 12.34 M 46.05 28.19 C 46.08 34.03 46.19 39.87 46.01 45.71 C 43.70 45.68 41.39 45.68 39.08 45.71 C 39.37 50.37 38.86 55.06 39.37 59.70 C 41.51 63.30 46.45 60.83 49.75 61.91 C 52.74 64.59 55.42 67.58 58.38 70.28 C 54.70 70.35 51.02 70.30 47.34 70.34 C 47.38 72.90 47.40 75.45 47.34 78.00 C 54.57 77.99 61.81 78.01 69.04 78.01 C 70.19 78.04 71.24 77.74 72.22 77.13 C 71.41 76.11 70.37 75.63 69.11 75.68 C 62.79 75.65 56.46 75.69 50.14 75.69 C 50.10 75.04 50.02 73.75 49.99 73.11 C 53.58 72.94 57.17 72.96 60.77 73.04 C 60.79 72.32 60.84 70.86 60.87 70.13 C 63.70 67.43 66.32 64.52 69.24 61.92 C 72.51 60.90 76.75 63.03 79.41 60.22 C 80.41 55.50 79.49 50.53 79.92 45.72 C 77.58 45.68 75.25 45.68 72.91 45.67 C 72.90 39.84 72.88 34.01 72.94 28.19 C 63.98 28.16 55.01 28.14 46.05 28.19 Z" />
<path fill="#000000" opacity="1.00" d=" M 48.76 30.96 C 55.93 31.05 63.09 30.91 70.25 31.04 C 70.22 36.79 70.36 42.53 70.15 48.28 C 72.41 48.32 74.68 48.32 76.94 48.33 C 76.94 51.91 76.96 55.48 76.88 59.05 C 65.29 58.99 53.70 58.93 42.11 59.05 C 42.05 55.47 42.05 51.90 42.06 48.32 C 48.78 48.30 55.50 48.33 62.22 48.32 C 62.22 47.66 62.22 46.34 62.22 45.68 C 57.73 45.69 53.25 45.64 48.77 45.73 C 48.83 43.96 48.64 42.19 48.66 40.42 C 53.17 40.21 57.70 40.37 62.22 40.32 C 62.22 39.66 62.22 38.34 62.22 37.68 C 57.72 37.68 53.23 37.66 48.73 37.71 C 48.74 35.46 48.75 33.21 48.76 30.96 M 57.73 51.52 C 60.56 51.98 58.97 55.21 59.36 57.08 C 59.68 57.06 60.33 57.02 60.65 57.01 C 60.64 54.58 60.65 52.15 60.62 49.73 C 59.64 50.29 58.68 50.90 57.73 51.52 Z" />
<path fill="#000000" opacity="1.00" d=" M 53.22 61.69 C 57.41 61.67 61.60 61.66 65.79 61.70 C 63.66 63.70 61.58 65.74 59.52 67.81 C 57.43 65.76 55.34 63.71 53.22 61.69 Z" />
</g>
<g id="#717171ff">
<path fill="#717171" opacity="1.00" d=" M 33.16 10.22 C 48.76 9.69 64.38 10.17 79.99 9.98 C 88.48 9.75 97.03 12.97 103.13 18.91 C 109.37 24.83 113.06 33.36 113.00 41.98 C 112.95 61.34 113.10 80.71 112.93 100.07 C 112.27 116.00 98.01 129.83 82.06 129.97 C 66.35 129.99 50.63 130.08 34.92 129.93 C 18.98 129.26 5.17 115.00 5.02 99.05 C 4.99 79.67 4.98 60.30 5.02 40.93 C 5.21 25.60 17.93 11.78 33.16 10.22 M 33.29 12.34 C 19.12 13.79 7.31 26.71 7.13 40.95 C 6.99 59.62 7.11 78.30 7.07 96.98 C 6.98 102.29 8.11 107.67 10.77 112.31 C 15.76 121.82 26.31 127.99 37.02 127.91 C 51.36 127.95 65.70 127.92 80.03 127.93 C 85.58 127.97 91.19 126.74 95.97 123.86 C 105.09 118.76 110.99 108.48 110.90 98.05 C 110.95 79.36 110.95 60.68 110.90 41.99 C 111.00 31.99 105.59 22.09 97.08 16.81 C 91.79 13.29 85.35 11.89 79.05 12.06 C 63.80 12.25 48.52 11.72 33.29 12.34 Z" />
</g>
<g id="#f8fcf8ff">
<path fill="#f8fcf8" opacity="1.00" d=" M 46.05 28.19 C 55.01 28.14 63.98 28.16 72.94 28.19 C 72.88 34.01 72.90 39.84 72.91 45.67 C 75.25 45.68 77.58 45.68 79.92 45.72 C 79.49 50.53 80.41 55.50 79.41 60.22 C 76.75 63.03 72.51 60.90 69.24 61.92 C 66.32 64.52 63.70 67.43 60.87 70.13 C 60.84 70.86 60.79 72.32 60.77 73.04 C 57.17 72.96 53.58 72.94 49.99 73.11 C 50.02 73.75 50.10 75.04 50.14 75.69 C 56.46 75.69 62.79 75.65 69.11 75.68 C 70.37 75.63 71.41 76.11 72.22 77.13 C 71.24 77.74 70.19 78.04 69.04 78.01 C 61.81 78.01 54.57 77.99 47.34 78.00 C 47.40 75.45 47.38 72.90 47.34 70.34 C 51.02 70.30 54.70 70.35 58.38 70.28 C 55.42 67.58 52.74 64.59 49.75 61.91 C 46.45 60.83 41.51 63.30 39.37 59.70 C 38.86 55.06 39.37 50.37 39.08 45.71 C 41.39 45.68 43.70 45.68 46.01 45.71 C 46.19 39.87 46.08 34.03 46.05 28.19 M 48.76 30.96 C 48.75 33.21 48.74 35.46 48.73 37.71 C 53.23 37.66 57.72 37.68 62.22 37.68 C 62.22 38.34 62.22 39.66 62.22 40.32 C 57.70 40.37 53.17 40.21 48.66 40.42 C 48.64 42.19 48.83 43.96 48.77 45.73 C 53.25 45.64 57.73 45.69 62.22 45.68 C 62.22 46.34 62.22 47.66 62.22 48.32 C 55.50 48.33 48.78 48.30 42.06 48.32 C 42.05 51.90 42.05 55.47 42.11 59.05 C 53.70 58.93 65.29 58.99 76.88 59.05 C 76.96 55.48 76.94 51.91 76.94 48.33 C 74.68 48.32 72.41 48.32 70.15 48.28 C 70.36 42.53 70.22 36.79 70.25 31.04 C 63.09 30.91 55.93 31.05 48.76 30.96 M 53.22 61.69 C 55.34 63.71 57.43 65.76 59.52 67.81 C 61.58 65.74 63.66 63.70 65.79 61.70 C 61.60 61.66 57.41 61.67 53.22 61.69 Z" />
<path fill="#f8fcf8" opacity="1.00" d=" M 57.73 51.52 C 58.68 50.90 59.64 50.29 60.62 49.73 C 60.65 52.15 60.64 54.58 60.65 57.01 C 60.33 57.02 59.68 57.06 59.36 57.08 C 58.97 55.21 60.56 51.98 57.73 51.52 Z" />
</g>
</svg>
