<?xml version="1.0" encoding="UTF-8" ?>
<!DOCTYPE svg PUBLIC "-//W3C//DTD SVG 1.1//EN" "http://www.w3.org/Graphics/SVG/1.1/DTD/svg11.dtd">
<svg width="117px" height="140px" viewBox="0 0 117 140" version="1.1" xmlns="http://www.w3.org/2000/svg">
<g id="#000000ff">
<path fill="#000000" opacity="1.00" d=" M 0.00 0.00 L 117.00 0.00 L 117.00 140.00 L 0.00 140.00 L 0.00 0.00 M 33.16 10.22 C 17.92 11.79 5.20 25.62 5.02 40.95 C 4.99 60.33 4.99 79.72 5.02 99.10 C 5.20 115.04 19.02 129.27 34.95 129.93 C 50.63 130.08 66.33 129.99 82.02 129.98 C 95.31 129.78 107.67 120.27 111.55 107.60 C 113.02 103.23 113.10 98.59 113.01 94.02 C 112.99 76.68 113.00 59.34 113.00 42.00 C 113.07 33.36 109.36 24.79 103.07 18.86 C 96.98 12.95 88.45 9.75 79.98 9.98 C 64.37 10.17 48.75 9.70 33.16 10.22 Z" />
<path fill="#000000" opacity="1.00" d=" M 30.50 12.70 C 33.94 11.91 37.50 11.98 41.01 12.00 C 55.03 12.06 69.05 11.89 83.06 12.08 C 97.94 12.76 110.86 26.09 110.97 41.01 C 111.02 60.34 111.03 79.66 110.96 98.99 C 110.88 114.25 97.32 127.83 82.07 127.95 C 66.71 128.05 51.35 128.01 35.99 127.97 C 20.71 127.84 7.12 114.27 7.03 98.99 C 6.98 79.66 6.98 60.33 7.02 41.01 C 7.20 27.67 17.47 15.41 30.50 12.70 M 42.01 41.03 C 39.17 43.93 34.12 45.46 33.53 49.95 C 33.91 54.30 38.72 55.81 41.45 58.52 C 43.35 60.69 46.29 60.86 48.86 59.91 C 49.65 57.34 50.18 54.70 50.04 52.00 C 52.03 52.00 54.01 52.00 56.00 52.00 C 56.00 51.25 56.00 49.75 56.00 49.00 C 54.00 49.00 52.01 49.00 50.01 49.00 C 50.21 45.97 49.80 42.97 48.88 40.09 C 46.58 39.39 43.79 39.01 42.01 41.03 M 67.99 41.24 C 68.01 47.09 68.00 52.94 68.00 58.79 C 69.40 59.41 70.76 60.14 72.23 60.60 C 75.45 60.41 77.39 57.43 79.96 55.88 C 82.49 54.18 85.67 51.47 84.01 48.07 C 81.95 44.85 78.20 43.15 75.43 40.59 C 73.20 38.32 70.25 40.05 67.99 41.24 M 57.00 49.00 C 57.00 49.75 57.00 51.25 57.00 52.00 C 57.75 52.00 59.25 52.00 60.00 52.00 C 60.00 51.25 60.00 49.75 60.00 49.00 C 59.25 49.00 57.75 49.00 57.00 49.00 M 61.00 49.00 C 61.00 49.75 61.00 51.25 61.00 52.00 C 63.00 52.00 65.00 52.00 67.00 52.00 C 67.00 51.25 67.00 49.75 67.00 49.00 C 65.00 49.00 63.00 49.00 61.00 49.00 Z" />
<path fill="#000000" opacity="1.00" d=" M 37.01 50.00 C 40.00 47.67 43.01 45.35 46.00 43.01 C 46.00 47.66 46.01 52.31 45.99 56.97 C 42.99 54.65 40.00 52.33 37.01 50.00 Z" />
<path fill="#000000" opacity="1.00" d=" M 72.00 43.05 C 75.02 45.33 77.99 47.68 80.99 50.00 C 78.00 52.33 75.01 54.65 72.01 56.97 C 71.99 52.33 72.00 47.69 72.00 43.05 Z" />
</g>
<g id="#717271ff">
<path fill="#717271" opacity="1.00" d=" M 33.16 10.22 C 48.75 9.70 64.37 10.17 79.98 9.98 C 88.45 9.75 96.98 12.95 103.07 18.86 C 109.36 24.79 113.07 33.36 113.00 42.00 C 113.00 59.34 112.99 76.68 113.01 94.02 C 113.10 98.59 113.02 103.23 111.55 107.60 C 107.67 120.27 95.31 129.78 82.02 129.98 C 66.33 129.99 50.63 130.08 34.95 129.93 C 19.02 129.27 5.20 115.04 5.02 99.10 C 4.99 79.72 4.99 60.33 5.02 40.95 C 5.20 25.62 17.92 11.79 33.16 10.22 M 30.50 12.70 C 17.47 15.41 7.20 27.67 7.02 41.01 C 6.98 60.33 6.98 79.66 7.03 98.99 C 7.12 114.27 20.71 127.84 35.99 127.97 C 51.35 128.01 66.71 128.05 82.07 127.95 C 97.32 127.83 110.88 114.25 110.96 98.99 C 111.03 79.66 111.02 60.34 110.97 41.01 C 110.86 26.09 97.94 12.76 83.06 12.08 C 69.05 11.89 55.03 12.06 41.01 12.00 C 37.50 11.98 33.94 11.91 30.50 12.70 Z" />
</g>
<g id="#f8fcf8ff">
<path fill="#f8fcf8" opacity="1.00" d=" M 42.01 41.03 C 43.79 39.01 46.58 39.39 48.88 40.09 C 49.80 42.97 50.21 45.97 50.01 49.00 C 52.01 49.00 54.00 49.00 56.00 49.00 C 56.00 49.75 56.00 51.25 56.00 52.00 C 54.01 52.00 52.03 52.00 50.04 52.00 C 50.18 54.70 49.65 57.34 48.86 59.91 C 46.29 60.86 43.35 60.69 41.45 58.52 C 38.72 55.81 33.91 54.30 33.53 49.95 C 34.12 45.46 39.17 43.93 42.01 41.03 M 37.01 50.00 C 40.00 52.33 42.99 54.65 45.99 56.97 C 46.01 52.31 46.00 47.66 46.00 43.01 C 43.01 45.35 40.00 47.67 37.01 50.00 Z" />
<path fill="#f8fcf8" opacity="1.00" d=" M 67.99 41.24 C 70.25 40.05 73.20 38.32 75.43 40.59 C 78.20 43.15 81.95 44.85 84.01 48.07 C 85.67 51.47 82.49 54.18 79.96 55.88 C 77.39 57.43 75.45 60.41 72.23 60.60 C 70.76 60.14 69.40 59.41 68.00 58.79 C 68.00 52.94 68.01 47.09 67.99 41.24 M 72.00 43.05 C 72.00 47.69 71.99 52.33 72.01 56.97 C 75.01 54.65 78.00 52.33 80.99 50.00 C 77.99 47.68 75.02 45.33 72.00 43.05 Z" />
<path fill="#f8fcf8" opacity="1.00" d=" M 57.00 49.00 C 57.75 49.00 59.25 49.00 60.00 49.00 C 60.00 49.75 60.00 51.25 60.00 52.00 C 59.25 52.00 57.75 52.00 57.00 52.00 C 57.00 51.25 57.00 49.75 57.00 49.00 Z" />
<path fill="#f8fcf8" opacity="1.00" d=" M 61.00 49.00 C 63.00 49.00 65.00 49.00 67.00 49.00 C 67.00 49.75 67.00 51.25 67.00 52.00 C 65.00 52.00 63.00 52.00 61.00 52.00 C 61.00 51.25 61.00 49.75 61.00 49.00 Z" />
</g>
</svg>
