<?xml version="1.0" encoding="UTF-8" ?>
<!DOCTYPE svg PUBLIC "-//W3C//DTD SVG 1.1//EN" "http://www.w3.org/Graphics/SVG/1.1/DTD/svg11.dtd">
<svg width="117pt" height="140pt" viewBox="0 0 117 140" version="1.1" xmlns="http://www.w3.org/2000/svg">
<g id="#000000ff">
<path fill="#000000" opacity="1.00" d=" M 0.00 0.00 L 117.00 0.00 L 117.00 140.00 L 0.00 140.00 L 0.00 0.00 M 33.18 10.22 C 17.92 11.77 5.18 25.62 5.02 40.98 C 4.99 60.35 4.99 79.73 5.02 99.10 C 5.20 115.03 19.00 129.25 34.91 129.93 C 50.27 130.10 65.63 129.95 80.99 130.00 C 92.30 130.13 103.34 123.65 108.83 113.77 C 111.77 108.72 113.16 102.84 113.02 97.01 C 112.98 78.67 113.01 60.33 113.01 41.99 C 113.06 33.36 109.37 24.81 103.11 18.89 C 97.01 12.95 88.45 9.74 79.96 9.98 C 64.37 10.17 48.76 9.70 33.18 10.22 Z" />
<path fill="#000000" opacity="1.00" d=" M 33.26 12.34 C 48.50 11.71 63.77 12.26 79.02 12.06 C 85.35 11.89 91.81 13.29 97.13 16.84 C 105.60 22.12 110.98 31.97 110.90 41.95 C 110.95 60.65 110.95 79.35 110.90 98.05 C 110.99 108.51 105.06 118.82 95.90 123.90 C 91.13 126.76 85.53 127.97 80.01 127.93 C 65.67 127.92 51.33 127.96 37.00 127.91 C 26.52 127.98 16.20 122.08 11.10 112.91 C 8.24 108.14 6.97 102.56 7.07 97.02 C 7.11 78.34 6.99 59.65 7.13 40.97 C 7.30 26.73 19.09 13.81 33.26 12.34 M 46.08 30.10 C 46.16 35.69 46.12 41.28 46.12 46.86 C 43.96 46.87 41.81 46.87 39.65 46.87 C 39.64 52.06 39.67 57.26 39.62 62.45 C 42.92 62.45 46.22 62.45 49.51 62.48 C 52.48 65.34 55.12 68.56 58.41 71.05 C 57.22 72.97 57.85 75.25 57.82 77.36 C 52.38 77.42 46.95 77.39 41.51 77.37 C 41.56 75.68 41.61 73.99 41.66 72.30 C 41.02 72.25 39.73 72.17 39.09 72.13 C 39.30 74.65 37.95 78.65 41.04 79.81 C 51.67 80.13 62.32 79.82 72.95 79.96 C 74.49 79.85 76.14 80.18 77.60 79.56 C 79.88 77.82 78.69 74.57 78.91 72.13 C 78.27 72.17 76.98 72.25 76.34 72.30 C 76.39 73.99 76.44 75.68 76.49 77.37 C 71.05 77.39 65.62 77.42 60.18 77.35 C 60.15 75.24 60.77 72.97 59.59 71.05 C 62.88 68.56 65.52 65.33 68.49 62.48 C 71.79 62.45 75.08 62.45 78.38 62.45 C 78.33 57.26 78.36 52.06 78.35 46.87 C 76.19 46.87 74.03 46.87 71.88 46.86 C 71.88 41.28 71.84 35.69 71.92 30.10 C 63.31 30.04 54.69 30.04 46.08 30.10 Z" />
<path fill="#000000" opacity="1.00" d=" M 48.65 32.62 C 55.55 32.61 62.45 32.61 69.35 32.62 C 69.25 38.21 69.44 43.81 69.20 49.41 C 71.42 49.47 73.64 49.49 75.86 49.52 C 75.75 52.95 75.76 56.37 75.83 59.80 C 64.61 59.87 53.39 59.86 42.17 59.80 C 42.24 56.37 42.23 52.93 42.17 49.49 C 48.70 49.43 55.24 49.54 61.77 49.43 C 61.69 48.57 61.61 47.71 61.52 46.85 C 57.25 46.88 52.97 46.86 48.70 46.87 C 48.68 45.14 48.67 43.41 48.65 41.68 C 52.95 41.73 57.26 41.66 61.56 41.76 C 61.59 41.10 61.64 39.79 61.67 39.14 C 57.34 39.12 53.01 39.11 48.69 39.16 C 48.68 36.98 48.67 34.80 48.65 32.62 Z" />
<path fill="#000000" opacity="1.00" d=" M 52.99 62.55 C 56.99 62.38 61.00 62.39 65.00 62.54 C 62.99 64.53 60.94 66.47 59.00 68.53 C 57.06 66.47 55.01 64.52 52.99 62.55 Z" />
</g>
<g id="#717171ff">
<path fill="#717171" opacity="1.00" d=" M 33.18 10.22 C 48.76 9.70 64.37 10.17 79.96 9.98 C 88.45 9.74 97.01 12.95 103.11 18.89 C 109.37 24.81 113.06 33.36 113.01 41.99 C 113.01 60.33 112.98 78.67 113.02 97.01 C 113.16 102.84 111.77 108.72 108.83 113.77 C 103.34 123.65 92.30 130.13 80.99 130.00 C 65.63 129.95 50.27 130.10 34.91 129.93 C 19.00 129.25 5.20 115.03 5.02 99.10 C 4.99 79.73 4.99 60.35 5.02 40.98 C 5.18 25.62 17.92 11.77 33.18 10.22 M 33.26 12.34 C 19.09 13.81 7.30 26.73 7.13 40.97 C 6.99 59.65 7.11 78.34 7.07 97.02 C 6.97 102.56 8.24 108.14 11.10 112.91 C 16.20 122.08 26.52 127.98 37.00 127.91 C 51.33 127.96 65.67 127.92 80.01 127.93 C 85.53 127.97 91.13 126.76 95.90 123.90 C 105.06 118.82 110.99 108.51 110.90 98.05 C 110.95 79.35 110.95 60.65 110.90 41.95 C 110.98 31.97 105.60 22.12 97.13 16.84 C 91.81 13.29 85.35 11.89 79.02 12.06 C 63.77 12.26 48.50 11.71 33.26 12.34 Z" />
</g>
<g id="#f8fcf8ff">
<path fill="#f8fcf8" opacity="1.00" d=" M 46.08 30.10 C 54.69 30.04 63.31 30.04 71.92 30.10 C 71.84 35.69 71.88 41.28 71.88 46.86 C 74.03 46.87 76.19 46.87 78.35 46.87 C 78.36 52.06 78.33 57.26 78.38 62.45 C 75.08 62.45 71.79 62.45 68.49 62.48 C 65.52 65.33 62.88 68.56 59.59 71.05 C 60.77 72.97 60.15 75.24 60.18 77.35 C 65.62 77.42 71.05 77.39 76.49 77.37 C 76.44 75.68 76.39 73.99 76.34 72.30 C 76.98 72.25 78.27 72.17 78.91 72.13 C 78.69 74.57 79.88 77.82 77.60 79.56 C 76.14 80.18 74.49 79.85 72.95 79.96 C 62.32 79.82 51.67 80.13 41.04 79.81 C 37.95 78.65 39.30 74.65 39.09 72.13 C 39.73 72.17 41.02 72.25 41.66 72.30 C 41.61 73.99 41.56 75.68 41.51 77.37 C 46.95 77.39 52.38 77.42 57.82 77.36 C 57.85 75.25 57.22 72.97 58.41 71.05 C 55.12 68.56 52.48 65.34 49.51 62.48 C 46.22 62.45 42.92 62.45 39.62 62.45 C 39.67 57.26 39.64 52.06 39.65 46.87 C 41.81 46.87 43.96 46.87 46.12 46.86 C 46.12 41.28 46.16 35.69 46.08 30.10 M 48.65 32.62 C 48.67 34.80 48.68 36.98 48.69 39.16 C 53.01 39.11 57.34 39.12 61.67 39.14 C 61.64 39.79 61.59 41.10 61.56 41.76 C 57.26 41.66 52.95 41.73 48.65 41.68 C 48.67 43.41 48.68 45.14 48.70 46.87 C 52.97 46.86 57.25 46.88 61.52 46.85 C 61.61 47.71 61.69 48.57 61.77 49.43 C 55.24 49.54 48.70 49.43 42.17 49.49 C 42.23 52.93 42.24 56.37 42.17 59.80 C 53.39 59.86 64.61 59.87 75.83 59.80 C 75.76 56.37 75.75 52.95 75.86 49.52 C 73.64 49.49 71.42 49.47 69.20 49.41 C 69.44 43.81 69.25 38.21 69.35 32.62 C 62.45 32.61 55.55 32.61 48.65 32.62 M 52.99 62.55 C 55.01 64.52 57.06 66.47 59.00 68.53 C 60.94 66.47 62.99 64.53 65.00 62.54 C 61.00 62.39 56.99 62.38 52.99 62.55 Z" />
</g>
</svg>
