<?xml version="1.0" encoding="UTF-8" ?>
<!DOCTYPE svg PUBLIC "-//W3C//DTD SVG 1.1//EN" "http://www.w3.org/Graphics/SVG/1.1/DTD/svg11.dtd">
<svg width="117px" height="140px" viewBox="0 0 117 140" version="1.1" xmlns="http://www.w3.org/2000/svg">
<g id="#000000ff">
<path fill="#000000" opacity="1.00" d=" M 0.00 0.00 L 117.00 0.00 L 117.00 140.00 L 0.00 140.00 L 0.00 0.00 M 33.18 10.22 C 17.94 11.77 5.20 25.60 5.02 40.94 C 4.98 60.31 4.99 79.68 5.02 99.05 C 5.18 115.00 18.99 129.26 34.93 129.93 C 50.62 130.08 66.33 129.99 82.02 129.97 C 95.04 129.78 107.18 120.66 111.30 108.37 C 112.70 104.40 113.11 100.18 113.02 95.99 C 112.96 77.66 113.04 59.34 112.98 41.01 C 112.80 27.96 103.63 15.72 91.25 11.69 C 84.41 9.20 77.05 10.18 69.94 10.00 C 57.69 10.15 45.42 9.70 33.18 10.22 Z" />
<path fill="#000000" opacity="1.00" d=" M 30.50 12.70 C 33.93 11.91 37.47 11.98 40.97 12.00 C 55.01 12.07 69.06 11.88 83.10 12.09 C 97.97 12.78 110.87 26.12 110.96 41.01 C 111.04 60.01 110.99 79.02 110.99 98.02 C 111.42 113.66 97.63 127.89 81.98 127.95 C 66.64 128.04 51.30 128.01 35.96 127.97 C 20.70 127.82 7.13 114.28 7.03 99.01 C 6.98 79.67 6.98 60.33 7.03 41.00 C 7.20 27.66 17.48 15.41 30.50 12.70 M 34.56 44.73 C 32.48 46.42 29.57 47.94 29.53 51.01 C 30.08 55.53 35.16 57.08 38.01 59.97 C 40.14 62.32 43.32 61.23 46.00 60.88 C 46.00 58.25 46.00 55.63 46.00 53.00 C 48.00 53.00 50.00 53.00 52.00 53.00 C 52.00 52.25 52.00 50.75 52.00 50.00 C 50.00 50.00 48.00 50.00 46.00 50.00 C 46.00 47.04 46.00 44.08 46.00 41.12 C 44.04 40.96 42.06 40.20 40.09 40.69 C 38.03 41.71 36.44 43.43 34.56 44.73 M 70.99 41.10 C 71.01 44.07 71.00 47.03 71.00 50.00 C 68.67 50.00 66.33 50.00 64.00 50.00 C 64.00 50.75 64.00 52.25 64.00 53.00 C 66.33 53.00 68.67 53.00 71.00 53.00 C 71.00 55.63 71.01 58.26 70.99 60.89 C 73.37 61.61 76.19 61.97 78.05 59.92 C 80.89 57.05 85.93 55.50 86.48 51.01 C 85.94 46.49 80.87 44.95 78.03 42.06 C 76.18 39.99 73.36 40.42 70.99 41.10 M 53.00 50.00 C 53.00 50.75 53.00 52.25 53.00 53.00 C 53.75 53.00 55.25 53.00 56.00 53.00 C 56.00 52.25 56.00 50.75 56.00 50.00 C 55.25 50.00 53.75 50.00 53.00 50.00 M 57.00 50.00 C 57.00 50.75 57.00 52.25 57.00 53.00 C 59.00 53.00 61.00 53.00 63.00 53.00 C 63.00 52.25 63.00 50.75 63.00 50.00 C 61.00 50.00 59.00 50.00 57.00 50.00 Z" />
<path fill="#000000" opacity="1.00" d=" M 33.01 51.00 C 36.00 48.67 39.01 46.35 42.00 44.01 C 42.00 48.66 42.01 53.31 41.99 57.97 C 38.99 55.65 36.00 53.33 33.01 51.00 Z" />
<path fill="#000000" opacity="1.00" d=" M 75.00 44.81 C 77.67 46.86 80.33 48.93 82.99 51.00 C 80.33 53.07 77.67 55.14 75.00 57.19 C 75.00 53.06 75.00 48.94 75.00 44.81 Z" />
</g>
<g id="#717271ff">
<path fill="#717271" opacity="1.00" d=" M 33.18 10.22 C 45.42 9.70 57.69 10.15 69.94 10.00 C 77.05 10.18 84.41 9.20 91.25 11.69 C 103.63 15.72 112.80 27.96 112.98 41.01 C 113.04 59.34 112.96 77.66 113.02 95.99 C 113.11 100.18 112.70 104.40 111.30 108.37 C 107.18 120.66 95.04 129.78 82.02 129.97 C 66.33 129.99 50.62 130.08 34.93 129.93 C 18.99 129.26 5.18 115.00 5.02 99.05 C 4.99 79.68 4.98 60.31 5.02 40.94 C 5.20 25.60 17.94 11.77 33.18 10.22 M 30.50 12.70 C 17.48 15.41 7.20 27.66 7.03 41.00 C 6.98 60.33 6.98 79.67 7.03 99.01 C 7.13 114.28 20.70 127.82 35.96 127.97 C 51.30 128.01 66.64 128.04 81.98 127.95 C 97.63 127.89 111.42 113.66 110.99 98.02 C 110.99 79.02 111.04 60.01 110.96 41.01 C 110.87 26.12 97.97 12.78 83.10 12.09 C 69.06 11.88 55.01 12.07 40.97 12.00 C 37.47 11.98 33.93 11.91 30.50 12.70 Z" />
</g>
<g id="#f8fcf8ff">
<path fill="#f8fcf8" opacity="1.00" d=" M 34.56 44.73 C 36.44 43.43 38.03 41.71 40.09 40.69 C 42.06 40.20 44.04 40.96 46.00 41.12 C 46.00 44.08 46.00 47.04 46.00 50.00 C 48.00 50.00 50.00 50.00 52.00 50.00 C 52.00 50.75 52.00 52.25 52.00 53.00 C 50.00 53.00 48.00 53.00 46.00 53.00 C 46.00 55.63 46.00 58.25 46.00 60.88 C 43.32 61.23 40.14 62.32 38.01 59.97 C 35.16 57.08 30.08 55.53 29.53 51.01 C 29.57 47.94 32.48 46.42 34.56 44.73 M 33.01 51.00 C 36.00 53.33 38.99 55.65 41.99 57.97 C 42.01 53.31 42.00 48.66 42.00 44.01 C 39.01 46.35 36.00 48.67 33.01 51.00 Z" />
<path fill="#f8fcf8" opacity="1.00" d=" M 70.99 41.10 C 73.36 40.42 76.18 39.99 78.03 42.06 C 80.87 44.95 85.94 46.49 86.48 51.01 C 85.93 55.50 80.89 57.05 78.05 59.92 C 76.19 61.97 73.37 61.61 70.99 60.89 C 71.01 58.26 71.00 55.63 71.00 53.00 C 68.67 53.00 66.33 53.00 64.00 53.00 C 64.00 52.25 64.00 50.75 64.00 50.00 C 66.33 50.00 68.67 50.00 71.00 50.00 C 71.00 47.03 71.01 44.07 70.99 41.10 M 75.00 44.81 C 75.00 48.94 75.00 53.06 75.00 57.19 C 77.67 55.14 80.33 53.07 82.99 51.00 C 80.33 48.93 77.67 46.86 75.00 44.81 Z" />
<path fill="#f8fcf8" opacity="1.00" d=" M 53.00 50.00 C 53.75 50.00 55.25 50.00 56.00 50.00 C 56.00 50.75 56.00 52.25 56.00 53.00 C 55.25 53.00 53.75 53.00 53.00 53.00 C 53.00 52.25 53.00 50.75 53.00 50.00 Z" />
<path fill="#f8fcf8" opacity="1.00" d=" M 57.00 50.00 C 59.00 50.00 61.00 50.00 63.00 50.00 C 63.00 50.75 63.00 52.25 63.00 53.00 C 61.00 53.00 59.00 53.00 57.00 53.00 C 57.00 52.25 57.00 50.75 57.00 50.00 Z" />
</g>
</svg>
