<?xml version="1.0" encoding="UTF-8" ?>
<!DOCTYPE svg PUBLIC "-//W3C//DTD SVG 1.1//EN" "http://www.w3.org/Graphics/SVG/1.1/DTD/svg11.dtd">
<svg width="117px" height="140px" viewBox="0 0 117 140" version="1.1" xmlns="http://www.w3.org/2000/svg">
<g id="#000000ff">
<path fill="#000000" opacity="1.00" d=" M 0.00 0.00 L 117.00 0.00 L 117.00 140.00 L 0.00 140.00 L 0.00 0.00 M 32.23 10.21 C 16.95 11.74 4.15 25.62 4.02 41.01 C 3.98 60.37 3.98 79.73 4.02 99.09 C 4.18 115.06 18.03 129.29 33.97 129.94 C 49.66 130.07 65.36 130.00 81.05 129.97 C 96.99 129.83 111.27 116.05 111.92 100.12 C 112.12 80.76 111.94 61.38 112.00 42.01 C 112.13 30.95 105.94 20.14 96.43 14.55 C 90.93 11.18 84.41 9.73 77.99 9.97 C 62.74 10.17 47.47 9.70 32.23 10.21 Z" />
<path fill="#000000" opacity="1.00" d=" M 32.19 12.25 C 48.47 11.71 64.80 12.09 81.10 12.05 C 96.33 12.22 109.88 25.76 109.96 41.01 C 110.03 60.35 110.03 79.69 109.96 99.03 C 109.87 114.26 96.29 127.83 81.06 127.94 C 65.70 128.05 50.33 128.01 34.97 127.96 C 19.73 127.83 6.17 114.29 6.04 99.05 C 5.97 79.69 5.98 60.32 6.03 40.96 C 6.20 26.69 18.03 13.80 32.19 12.25 M 45.33 37.78 C 44.04 40.92 43.09 44.21 41.35 47.15 C 43.39 47.88 45.44 48.61 47.50 49.31 C 48.17 47.67 48.91 46.06 49.75 44.51 C 49.57 47.63 50.79 50.52 51.90 53.36 C 53.69 52.67 55.48 51.97 57.25 51.24 C 56.64 49.11 56.31 46.92 56.13 44.71 C 57.46 45.75 58.79 46.78 60.18 47.74 C 59.54 47.63 58.26 47.41 57.62 47.29 C 57.60 49.19 57.58 51.09 57.56 52.99 C 60.91 52.99 64.26 53.00 67.61 53.03 C 67.45 57.10 67.92 61.21 67.38 65.25 C 66.96 65.55 66.11 66.14 65.68 66.44 C 65.55 62.35 65.61 58.26 65.63 54.17 C 61.15 54.18 56.67 54.17 52.19 54.19 C 52.17 59.12 52.18 64.06 52.18 69.00 C 56.18 69.00 60.18 69.01 64.18 68.98 C 64.65 70.22 65.11 71.45 65.57 72.69 C 68.31 72.46 72.75 73.24 73.75 69.83 C 74.33 62.36 73.86 54.83 73.98 47.33 C 73.32 47.36 72.00 47.42 71.34 47.45 C 71.76 45.17 73.71 45.22 75.57 45.31 C 75.59 43.33 75.60 41.35 75.64 39.37 C 73.02 39.41 70.40 39.42 67.79 39.31 C 65.53 38.16 63.01 37.82 60.55 37.45 C 60.20 38.98 59.85 40.51 59.52 42.05 C 59.33 41.16 59.13 40.27 58.92 39.38 C 56.53 39.41 54.14 39.42 51.76 39.33 C 49.89 38.02 47.59 37.42 45.33 37.78 M 44.17 49.60 C 44.18 57.20 44.18 64.80 44.17 72.40 C 46.31 72.40 48.46 72.40 50.60 72.40 C 50.55 64.80 50.76 57.20 50.47 49.60 C 48.37 49.60 46.27 49.61 44.17 49.60 Z" />
<path fill="#000000" opacity="1.00" d=" M 63.57 47.07 C 62.76 44.82 67.12 44.68 66.38 46.99 C 65.47 48.25 64.53 48.28 63.57 47.07 Z" />
</g>
<g id="#6a6e6aff">
<path fill="#6a6e6a" opacity="1.00" d=" M 32.23 10.21 C 47.47 9.70 62.74 10.17 77.99 9.97 C 84.41 9.73 90.93 11.18 96.43 14.55 C 105.94 20.14 112.13 30.95 112.00 42.01 C 111.94 61.38 112.12 80.76 111.92 100.12 C 111.27 116.05 96.99 129.83 81.05 129.97 C 65.36 130.00 49.66 130.07 33.97 129.94 C 18.03 129.29 4.18 115.06 4.02 99.09 C 3.98 79.73 3.98 60.37 4.02 41.01 C 4.15 25.62 16.95 11.74 32.23 10.21 M 32.19 12.25 C 18.03 13.80 6.20 26.69 6.03 40.96 C 5.98 60.32 5.97 79.69 6.04 99.05 C 6.17 114.29 19.73 127.83 34.97 127.96 C 50.33 128.01 65.70 128.05 81.06 127.94 C 96.29 127.83 109.87 114.26 109.96 99.03 C 110.03 79.69 110.03 60.35 109.96 41.01 C 109.88 25.76 96.33 12.22 81.10 12.05 C 64.80 12.09 48.47 11.71 32.19 12.25 Z" />
</g>
<g id="#e86010ff">
<path fill="#e86010" opacity="1.00" d=" M 45.33 37.78 C 47.59 37.42 49.89 38.02 51.76 39.33 C 54.14 39.42 56.53 39.41 58.92 39.38 C 59.13 40.27 59.33 41.16 59.52 42.05 C 59.85 40.51 60.20 38.98 60.55 37.45 C 63.01 37.82 65.53 38.16 67.79 39.31 C 70.40 39.42 73.02 39.41 75.64 39.37 C 75.60 41.35 75.59 43.33 75.57 45.31 C 73.71 45.22 71.76 45.17 71.34 47.45 C 72.00 47.42 73.32 47.36 73.98 47.33 C 73.86 54.83 74.33 62.36 73.75 69.83 C 72.75 73.24 68.31 72.46 65.57 72.69 C 65.11 71.45 64.65 70.22 64.18 68.98 C 60.18 69.01 56.18 69.00 52.18 69.00 C 52.18 64.06 52.17 59.12 52.19 54.19 C 56.67 54.17 61.15 54.18 65.63 54.17 C 65.61 58.26 65.55 62.35 65.68 66.44 C 66.11 66.14 66.96 65.55 67.38 65.25 C 67.92 61.21 67.45 57.10 67.61 53.03 C 64.26 53.00 60.91 52.99 57.56 52.99 C 57.58 51.09 57.60 49.19 57.62 47.29 C 58.26 47.41 59.54 47.63 60.18 47.74 C 58.79 46.78 57.46 45.75 56.13 44.71 C 56.31 46.92 56.64 49.11 57.25 51.24 C 55.48 51.97 53.69 52.67 51.90 53.36 C 50.79 50.52 49.57 47.63 49.75 44.51 C 48.91 46.06 48.17 47.67 47.50 49.31 C 45.44 48.61 43.39 47.88 41.35 47.15 C 43.09 44.21 44.04 40.92 45.33 37.78 M 63.57 47.07 C 64.53 48.28 65.47 48.25 66.38 46.99 C 67.12 44.68 62.76 44.82 63.57 47.07 M 57.65 58.31 C 57.88 59.65 58.60 59.87 59.80 58.96 C 59.57 57.62 58.85 57.40 57.65 58.31 M 57.71 64.06 C 57.91 65.39 58.64 65.63 59.90 64.79 C 59.70 63.47 58.97 63.23 57.71 64.06 Z" />
<path fill="#e86010" opacity="1.00" d=" M 44.17 49.60 C 46.27 49.61 48.37 49.60 50.47 49.60 C 50.76 57.20 50.55 64.80 50.60 72.40 C 48.46 72.40 46.31 72.40 44.17 72.40 C 44.18 64.80 44.18 57.20 44.17 49.60 Z" />
</g>
<g id="#782d03ff">
<path fill="#782d03" opacity="1.00" d=" M 57.65 58.31 C 58.85 57.40 59.57 57.62 59.80 58.96 C 58.60 59.87 57.88 59.65 57.65 58.31 Z" />
</g>
<g id="#301103ff">
<path fill="#301103" opacity="1.00" d=" M 57.71 64.06 C 58.97 63.23 59.70 63.47 59.90 64.79 C 58.64 65.63 57.91 65.39 57.71 64.06 Z" />
</g>
</svg>
