<?xml version="1.0" encoding="UTF-8" ?>
<!DOCTYPE svg PUBLIC "-//W3C//DTD SVG 1.1//EN" "http://www.w3.org/Graphics/SVG/1.1/DTD/svg11.dtd">
<svg width="117px" height="140px" viewBox="0 0 117 140" version="1.1" xmlns="http://www.w3.org/2000/svg">
<g id="#000000ff">
<path fill="#000000" opacity="1.00" d=" M 0.00 0.00 L 117.00 0.00 L 117.00 140.00 L 0.00 140.00 L 0.00 0.00 M 32.12 10.21 C 16.91 11.81 4.21 25.60 4.01 40.91 C 4.02 60.62 3.93 80.33 4.06 100.04 C 4.72 115.64 18.34 129.25 33.94 129.95 C 49.30 130.08 64.67 129.96 80.04 130.00 C 91.33 130.10 102.36 123.65 107.84 113.78 C 110.76 108.74 112.13 102.88 112.02 97.07 C 111.98 78.70 112.01 60.34 112.00 41.97 C 112.09 31.91 106.99 22.03 98.85 16.15 C 93.17 11.97 86.08 9.79 79.04 9.98 C 63.40 10.16 47.74 9.70 32.12 10.21 Z" />
<path fill="#000000" opacity="1.00" d=" M 32.14 12.25 C 48.43 11.70 64.76 12.11 81.07 12.04 C 96.31 12.21 109.86 25.75 109.97 41.01 C 110.04 59.99 109.99 78.97 109.99 97.96 C 110.44 113.58 96.68 127.84 81.06 127.95 C 65.70 128.05 50.35 128.01 35.00 127.97 C 19.74 127.84 6.17 114.29 6.02 99.04 C 5.98 79.70 5.99 60.36 6.02 41.02 C 6.18 26.75 17.97 13.84 32.14 12.25 M 46.58 42.00 C 46.58 50.67 46.58 59.33 46.58 68.00 C 49.53 68.00 52.47 68.00 55.42 68.00 C 55.42 59.33 55.42 50.67 55.42 42.00 C 52.47 42.00 49.53 42.00 46.58 42.00 M 61.18 43.18 C 61.17 45.17 61.16 47.17 61.16 49.16 C 60.46 49.16 59.06 49.16 58.36 49.16 C 58.37 50.65 58.37 52.14 58.37 53.64 C 59.07 53.63 60.47 53.62 61.16 53.61 C 61.30 57.62 60.86 61.68 61.42 65.67 C 63.38 69.62 68.90 67.43 72.42 67.99 C 72.41 66.24 72.41 64.49 72.40 62.74 C 71.21 62.54 70.02 62.38 68.82 62.26 C 68.84 59.38 68.84 56.50 68.83 53.63 C 70.03 53.62 71.23 53.61 72.43 53.59 C 72.42 52.12 72.42 50.64 72.41 49.17 C 71.52 49.16 69.73 49.16 68.84 49.16 C 68.83 47.17 68.83 45.17 68.82 43.18 C 66.27 43.16 63.72 43.16 61.18 43.18 Z" />
</g>
<g id="#6a6e6aff">
<path fill="#6a6e6a" opacity="1.00" d=" M 32.12 10.21 C 47.74 9.70 63.40 10.16 79.04 9.98 C 86.08 9.79 93.17 11.97 98.85 16.15 C 106.99 22.03 112.09 31.91 112.00 41.97 C 112.01 60.34 111.98 78.70 112.02 97.07 C 112.13 102.88 110.76 108.74 107.84 113.78 C 102.36 123.65 91.33 130.10 80.04 130.00 C 64.67 129.96 49.30 130.08 33.94 129.95 C 18.34 129.25 4.72 115.64 4.06 100.04 C 3.93 80.33 4.02 60.62 4.01 40.91 C 4.21 25.60 16.91 11.81 32.12 10.21 M 32.14 12.25 C 17.97 13.84 6.18 26.75 6.02 41.02 C 5.99 60.36 5.98 79.70 6.02 99.04 C 6.17 114.29 19.74 127.84 35.00 127.97 C 50.35 128.01 65.70 128.05 81.06 127.95 C 96.68 127.84 110.44 113.58 109.99 97.96 C 109.99 78.97 110.04 59.99 109.97 41.01 C 109.86 25.75 96.31 12.21 81.07 12.04 C 64.76 12.11 48.43 11.70 32.14 12.25 Z" />
</g>
<g id="#f8fcf8ff">
<path fill="#f8fcf8" opacity="1.00" d=" M 46.58 42.00 C 49.53 42.00 52.47 42.00 55.42 42.00 C 55.42 50.67 55.42 59.33 55.42 68.00 C 52.47 68.00 49.53 68.00 46.58 68.00 C 46.58 59.33 46.58 50.67 46.58 42.00 Z" />
<path fill="#f8fcf8" opacity="1.00" d=" M 61.18 43.18 C 63.72 43.16 66.27 43.16 68.82 43.18 C 68.83 45.17 68.83 47.17 68.84 49.16 C 69.73 49.16 71.52 49.16 72.41 49.17 C 72.42 50.64 72.42 52.12 72.43 53.59 C 71.23 53.61 70.03 53.62 68.83 53.63 C 68.84 56.50 68.84 59.38 68.82 62.26 C 70.02 62.38 71.21 62.54 72.40 62.74 C 72.41 64.49 72.41 66.24 72.42 67.99 C 68.90 67.43 63.38 69.62 61.42 65.67 C 60.86 61.68 61.30 57.62 61.16 53.61 C 60.47 53.62 59.07 53.63 58.37 53.64 C 58.37 52.14 58.37 50.65 58.36 49.16 C 59.06 49.16 60.46 49.16 61.16 49.16 C 61.16 47.17 61.17 45.17 61.18 43.18 Z" />
</g>
</svg>
