<?xml version="1.0" encoding="UTF-8" ?>
<!DOCTYPE svg PUBLIC "-//W3C//DTD SVG 1.1//EN" "http://www.w3.org/Graphics/SVG/1.1/DTD/svg11.dtd">
<svg width="117pt" height="140pt" viewBox="0 0 117 140" version="1.1" xmlns="http://www.w3.org/2000/svg">
<g id="#000000ff">
<path fill="#000000" opacity="1.00" d=" M 0.00 0.00 L 117.00 0.00 L 117.00 140.00 L 0.00 140.00 L 0.00 0.00 M 29.41 10.46 C 15.70 13.28 4.43 25.85 4.01 39.96 C 3.98 59.64 4.02 79.32 3.99 99.00 C 3.84 115.00 17.98 129.56 33.95 130.00 C 49.29 130.02 64.63 129.97 79.97 130.02 C 93.72 130.82 107.01 121.23 111.30 108.27 C 112.95 103.70 113.06 98.79 113.01 93.98 C 112.93 76.31 113.09 58.65 112.94 40.98 C 112.77 27.69 103.25 15.37 90.64 11.42 C 85.66 9.48 80.26 10.06 75.04 10.00 C 61.70 9.99 48.35 10.02 35.01 9.98 C 33.14 10.00 31.24 10.05 29.41 10.46 Z" />
<path fill="#000000" opacity="1.00" d=" M 35.20 12.20 C 45.46 11.84 55.75 12.15 66.02 12.05 C 74.73 12.23 83.93 11.06 92.11 14.78 C 103.12 19.41 110.16 31.14 109.99 42.95 C 110.01 60.97 110.01 78.99 109.99 97.00 C 110.05 107.05 105.16 117.23 96.62 122.73 C 90.92 126.74 83.82 127.98 76.98 127.97 C 64.31 127.94 51.65 127.94 38.99 127.96 C 32.91 127.94 26.66 126.81 21.44 123.54 C 12.62 118.36 6.94 108.29 7.07 98.06 C 7.06 79.01 6.99 59.96 7.10 40.91 C 7.20 25.93 20.27 12.75 35.20 12.20 M 47.59 39.95 C 46.76 40.89 44.82 41.35 45.04 42.90 C 44.94 53.27 45.02 63.65 45.00 74.02 C 44.80 75.29 45.35 77.05 46.93 76.92 C 53.97 77.09 61.03 77.02 68.07 76.96 C 69.79 77.28 71.18 75.82 70.90 74.12 C 71.02 65.74 70.86 57.36 70.95 48.98 C 70.86 45.71 71.93 41.54 68.19 39.93 C 68.13 36.26 68.76 32.42 67.31 28.93 C 61.17 29.18 55.02 28.75 48.88 29.12 C 46.28 31.85 48.09 36.46 47.59 39.95 Z" />
<path fill="#000000" opacity="1.00" d=" M 49.52 30.42 C 54.94 30.40 60.36 30.13 65.77 30.49 C 67.00 33.56 66.07 37.19 66.34 40.47 C 60.69 40.48 55.03 40.48 49.38 40.48 C 49.39 37.12 49.41 33.77 49.52 30.42 M 52.92 32.63 C 52.95 33.53 53.02 35.33 53.06 36.24 C 53.83 36.23 55.37 36.22 56.15 36.22 C 56.15 35.32 56.14 33.52 56.14 32.62 C 55.34 32.62 53.72 32.63 52.92 32.63 M 58.76 32.62 C 58.76 33.52 58.77 35.33 58.78 36.23 C 59.57 36.23 61.17 36.23 61.96 36.23 C 61.94 35.32 61.90 33.51 61.88 32.60 C 61.10 32.60 59.54 32.62 58.76 32.62 Z" />
<path fill="#000000" opacity="1.00" d=" M 56.18 46.28 C 57.16 44.72 59.77 44.78 60.53 46.52 C 61.62 48.18 59.90 49.70 59.04 50.97 C 59.09 57.11 59.06 63.25 59.06 69.38 C 60.70 68.97 62.95 69.48 64.05 67.90 C 64.55 64.82 64.34 61.69 64.25 58.60 C 62.34 57.19 62.84 54.74 62.65 52.68 C 64.29 52.67 65.94 52.65 67.58 52.63 C 67.63 54.17 67.68 55.71 67.72 57.25 C 67.27 57.49 66.38 57.98 65.93 58.23 C 64.98 62.16 67.63 67.82 63.36 70.31 C 60.13 70.94 56.73 70.80 53.48 70.39 C 49.27 68.51 51.10 63.11 50.82 59.51 C 50.20 59.47 48.94 59.40 48.31 59.36 C 49.26 57.76 50.20 56.16 51.14 54.55 C 51.99 56.02 52.84 57.49 53.69 58.96 C 51.53 59.74 52.28 62.22 52.12 63.99 C 52.30 65.57 51.75 67.68 53.37 68.68 C 54.63 69.41 56.19 69.06 57.58 69.25 C 57.51 63.11 57.59 56.98 57.53 50.84 C 56.59 49.66 54.55 47.73 56.18 46.28 Z" />
</g>
<g id="#708cc8ff">
<path fill="#708cc8" opacity="1.00" d=" M 29.41 10.46 C 31.24 10.05 33.14 10.00 35.01 9.98 C 48.35 10.02 61.70 9.99 75.04 10.00 C 80.26 10.06 85.66 9.48 90.64 11.42 C 103.25 15.37 112.77 27.69 112.94 40.98 C 113.09 58.65 112.93 76.31 113.01 93.98 C 113.06 98.79 112.95 103.70 111.30 108.27 C 107.01 121.23 93.72 130.82 79.97 130.02 C 64.63 129.97 49.29 130.02 33.95 130.00 C 17.98 129.56 3.84 115.00 3.99 99.00 C 4.02 79.32 3.98 59.64 4.01 39.96 C 4.43 25.85 15.70 13.28 29.41 10.46 M 35.20 12.20 C 20.27 12.75 7.20 25.93 7.10 40.91 C 6.99 59.96 7.06 79.01 7.07 98.06 C 6.94 108.29 12.62 118.36 21.44 123.54 C 26.66 126.81 32.91 127.94 38.99 127.96 C 51.65 127.94 64.31 127.94 76.98 127.97 C 83.82 127.98 90.92 126.74 96.62 122.73 C 105.16 117.23 110.05 107.05 109.99 97.00 C 110.01 78.99 110.01 60.97 109.99 42.95 C 110.16 31.14 103.12 19.41 92.11 14.78 C 83.93 11.06 74.73 12.23 66.02 12.05 C 55.75 12.15 45.46 11.84 35.20 12.20 Z" />
</g>
<g id="#10ec50ff">
<path fill="#10ec50" opacity="1.00" d=" M 47.59 39.95 C 48.09 36.46 46.28 31.85 48.88 29.12 C 55.02 28.75 61.17 29.18 67.31 28.93 C 68.76 32.42 68.13 36.26 68.19 39.93 C 71.93 41.54 70.86 45.71 70.95 48.98 C 70.86 57.36 71.02 65.74 70.90 74.12 C 71.18 75.82 69.79 77.28 68.07 76.96 C 61.03 77.02 53.97 77.09 46.93 76.92 C 45.35 77.05 44.80 75.29 45.00 74.02 C 45.02 63.65 44.94 53.27 45.04 42.90 C 44.82 41.35 46.76 40.89 47.59 39.95 M 49.52 30.42 C 49.41 33.77 49.39 37.12 49.38 40.48 C 55.03 40.48 60.69 40.48 66.34 40.47 C 66.07 37.19 67.00 33.56 65.77 30.49 C 60.36 30.13 54.94 30.40 49.52 30.42 M 56.18 46.28 C 54.55 47.73 56.59 49.66 57.53 50.84 C 57.59 56.98 57.51 63.11 57.58 69.25 C 56.19 69.06 54.63 69.41 53.37 68.68 C 51.75 67.68 52.30 65.57 52.12 63.99 C 52.28 62.22 51.53 59.74 53.69 58.96 C 52.84 57.49 51.99 56.02 51.14 54.55 C 50.20 56.16 49.26 57.76 48.31 59.36 C 48.94 59.40 50.20 59.47 50.82 59.51 C 51.10 63.11 49.27 68.51 53.48 70.39 C 56.73 70.80 60.13 70.94 63.36 70.31 C 67.63 67.82 64.98 62.16 65.93 58.23 C 66.38 57.98 67.27 57.49 67.72 57.25 C 67.68 55.71 67.63 54.17 67.58 52.63 C 65.94 52.65 64.29 52.67 62.65 52.68 C 62.84 54.74 62.34 57.19 64.25 58.60 C 64.34 61.69 64.55 64.82 64.05 67.90 C 62.95 69.48 60.70 68.97 59.06 69.38 C 59.06 63.25 59.09 57.11 59.04 50.97 C 59.90 49.70 61.62 48.18 60.53 46.52 C 59.77 44.78 57.16 44.72 56.18 46.28 Z" />
</g>
<g id="#10e74dff">
<path fill="#10e74d" opacity="1.00" d=" M 52.92 32.63 C 53.72 32.63 55.34 32.62 56.14 32.62 C 56.14 33.52 56.15 35.32 56.15 36.22 C 55.37 36.22 53.83 36.23 53.06 36.24 C 53.02 35.33 52.95 33.53 52.92 32.63 Z" />
</g>
<g id="#10e24cff">
<path fill="#10e24c" opacity="1.00" d=" M 58.76 32.62 C 59.54 32.62 61.10 32.60 61.88 32.60 C 61.90 33.51 61.94 35.32 61.96 36.23 C 61.17 36.23 59.57 36.23 58.78 36.23 C 58.77 35.33 58.76 33.52 58.76 32.62 Z" />
</g>
</svg>
