<?xml version="1.0" encoding="UTF-8" ?>
<!DOCTYPE svg PUBLIC "-//W3C//DTD SVG 1.1//EN" "http://www.w3.org/Graphics/SVG/1.1/DTD/svg11.dtd">
<svg width="117px" height="140px" viewBox="0 0 117 140" version="1.1" xmlns="http://www.w3.org/2000/svg">
<g id="#000000ff">
<path fill="#000000" opacity="1.00" d=" M 0.00 0.00 L 117.00 0.00 L 117.00 140.00 L 0.00 140.00 L 0.00 0.00 M 33.17 10.25 C 17.95 11.79 5.25 25.60 5.04 40.90 C 4.95 59.93 5.02 78.95 5.00 97.97 C 4.96 106.62 8.64 115.17 14.92 121.11 C 21.00 127.01 29.49 130.21 37.95 130.01 C 53.00 129.92 68.06 130.15 83.11 129.89 C 99.03 129.24 112.82 114.96 112.95 99.03 C 113.05 80.03 112.99 61.01 112.98 42.01 C 113.10 30.96 106.93 20.17 97.42 14.57 C 91.92 11.20 85.40 9.78 78.99 9.99 C 63.72 10.18 48.43 9.67 33.17 10.25 Z" />
<path fill="#000000" opacity="1.00" d=" M 33.21 12.30 C 49.47 11.76 65.77 12.14 82.05 12.10 C 97.28 12.20 110.85 25.77 110.90 41.01 C 110.98 60.35 110.99 79.68 110.89 99.01 C 110.85 114.25 97.27 127.82 82.03 127.88 C 66.69 128.01 51.35 127.97 36.01 127.91 C 20.78 127.82 7.21 114.32 7.10 99.09 C 7.02 79.70 7.02 60.29 7.10 40.90 C 7.26 26.67 19.09 13.80 33.21 12.30 M 56.90 29.00 C 49.25 36.67 41.63 44.38 33.93 52.02 C 34.14 52.95 34.39 53.87 34.67 54.78 C 38.06 54.40 42.47 56.04 44.87 52.80 C 49.54 48.03 54.27 43.32 58.99 38.61 C 64.31 43.76 69.33 49.22 74.75 54.25 C 77.41 55.32 80.46 54.56 83.27 54.80 C 83.57 53.90 83.84 52.99 84.08 52.08 C 76.39 44.37 68.68 36.67 61.01 28.93 C 60.06 27.55 57.84 27.62 56.90 29.00 M 57.15 43.02 C 53.15 47.07 49.21 51.18 45.21 55.23 C 44.23 56.26 43.03 57.40 43.15 58.96 C 43.10 64.30 43.12 69.63 43.14 74.97 C 42.91 76.25 44.05 77.47 45.30 77.46 C 48.63 77.56 51.98 77.64 55.30 77.41 C 55.59 77.13 56.15 76.57 56.43 76.29 C 56.75 72.80 56.47 69.29 56.53 65.79 C 58.41 65.82 60.28 65.84 62.16 65.84 C 62.18 69.22 61.99 72.62 62.21 76.00 C 63.54 78.46 66.80 77.22 69.03 77.55 C 70.94 77.34 73.88 78.23 74.79 75.91 C 75.02 71.28 74.77 66.63 74.89 61.99 C 74.77 60.11 75.33 57.83 73.79 56.36 C 69.54 51.85 65.16 47.47 60.84 43.02 C 59.98 41.86 58.00 41.84 57.15 43.02 Z" />
<path fill="#000000" opacity="1.00" d=" M 38.12 51.83 C 45.28 45.13 52.01 37.99 58.98 31.11 C 65.98 37.96 72.65 45.17 79.86 51.80 C 78.71 51.80 77.57 51.80 76.43 51.81 C 71.25 46.51 66.00 41.28 60.75 36.06 C 59.90 35.01 58.10 34.95 57.25 36.02 C 52.02 41.26 46.75 46.49 41.58 51.79 C 40.72 51.80 38.99 51.82 38.12 51.83 Z" />
<path fill="#000000" opacity="1.00" d=" M 46.36 58.49 C 50.50 54.09 54.82 49.85 58.98 45.46 C 62.69 49.27 66.36 53.12 70.14 56.86 C 70.88 57.74 72.15 58.51 71.86 59.87 C 71.92 64.75 71.82 69.63 71.89 74.52 C 69.63 74.49 67.37 74.49 65.11 74.52 C 65.11 70.77 65.36 66.99 64.77 63.26 C 61.34 62.85 57.66 62.32 54.32 63.29 C 52.80 66.84 53.77 70.88 53.68 74.63 C 51.16 74.45 48.64 74.45 46.12 74.53 C 46.31 69.19 45.80 63.79 46.36 58.49 Z" />
</g>
<g id="#788cc0ff">
<path fill="#788cc0" opacity="1.00" d=" M 33.17 10.25 C 48.43 9.67 63.72 10.18 78.99 9.99 C 85.40 9.78 91.92 11.20 97.42 14.57 C 106.93 20.17 113.10 30.96 112.98 42.01 C 112.99 61.01 113.05 80.03 112.95 99.03 C 112.82 114.96 99.03 129.24 83.11 129.89 C 68.06 130.15 53.00 129.92 37.95 130.01 C 29.49 130.21 21.00 127.01 14.92 121.11 C 8.64 115.17 4.96 106.62 5.00 97.97 C 5.02 78.95 4.95 59.93 5.04 40.90 C 5.25 25.60 17.95 11.79 33.17 10.25 M 33.21 12.30 C 19.09 13.80 7.26 26.67 7.10 40.90 C 7.02 60.29 7.02 79.70 7.10 99.09 C 7.21 114.32 20.78 127.82 36.01 127.91 C 51.35 127.97 66.69 128.01 82.03 127.88 C 97.27 127.82 110.85 114.25 110.89 99.01 C 110.99 79.68 110.98 60.35 110.90 41.01 C 110.85 25.77 97.28 12.20 82.05 12.10 C 65.77 12.14 49.47 11.76 33.21 12.30 Z" />
</g>
<g id="#f8fcf8ff">
<path fill="#f8fcf8" opacity="1.00" d=" M 56.90 29.00 C 57.84 27.62 60.06 27.55 61.01 28.93 C 68.68 36.67 76.39 44.37 84.08 52.08 C 83.84 52.99 83.57 53.90 83.27 54.80 C 80.46 54.56 77.41 55.32 74.75 54.25 C 69.33 49.22 64.31 43.76 58.99 38.61 C 54.27 43.32 49.54 48.03 44.87 52.80 C 42.47 56.04 38.06 54.40 34.67 54.78 C 34.39 53.87 34.14 52.95 33.93 52.02 C 41.63 44.38 49.25 36.67 56.90 29.00 M 38.12 51.83 C 38.99 51.82 40.72 51.80 41.58 51.79 C 46.75 46.49 52.02 41.26 57.25 36.02 C 58.10 34.95 59.90 35.01 60.75 36.06 C 66.00 41.28 71.25 46.51 76.43 51.81 C 77.57 51.80 78.71 51.80 79.86 51.80 C 72.65 45.17 65.98 37.96 58.98 31.11 C 52.01 37.99 45.28 45.13 38.12 51.83 Z" />
<path fill="#f8fcf8" opacity="1.00" d=" M 57.15 43.02 C 58.00 41.84 59.98 41.86 60.84 43.02 C 65.16 47.47 69.54 51.85 73.79 56.36 C 75.33 57.83 74.77 60.11 74.89 61.99 C 74.77 66.63 75.02 71.28 74.79 75.91 C 73.88 78.23 70.94 77.34 69.03 77.55 C 66.80 77.22 63.54 78.46 62.21 76.00 C 61.99 72.62 62.18 69.22 62.16 65.84 C 60.28 65.84 58.41 65.82 56.53 65.79 C 56.47 69.29 56.75 72.80 56.43 76.29 C 56.15 76.57 55.59 77.13 55.30 77.41 C 51.98 77.64 48.63 77.56 45.30 77.46 C 44.05 77.47 42.91 76.25 43.14 74.97 C 43.12 69.63 43.10 64.30 43.15 58.96 C 43.03 57.40 44.23 56.26 45.21 55.23 C 49.21 51.18 53.15 47.07 57.15 43.02 M 46.36 58.49 C 45.80 63.79 46.31 69.19 46.12 74.53 C 48.64 74.45 51.16 74.45 53.68 74.63 C 53.77 70.88 52.80 66.84 54.32 63.29 C 57.66 62.32 61.34 62.85 64.77 63.26 C 65.36 66.99 65.11 70.77 65.11 74.52 C 67.37 74.49 69.63 74.49 71.89 74.52 C 71.82 69.63 71.92 64.75 71.86 59.87 C 72.15 58.51 70.88 57.74 70.14 56.86 C 66.36 53.12 62.69 49.27 58.98 45.46 C 54.82 49.85 50.50 54.09 46.36 58.49 Z" />
</g>
</svg>
