<?xml version="1.0" encoding="UTF-8" ?>
<!DOCTYPE svg PUBLIC "-//W3C//DTD SVG 1.1//EN" "http://www.w3.org/Graphics/SVG/1.1/DTD/svg11.dtd">
<svg width="117px" height="140px" viewBox="0 0 117 140" version="1.1" xmlns="http://www.w3.org/2000/svg">
<g id="#384450ff">
<path fill="#384450" opacity="1.00" d=" M 0.00 0.00 L 117.00 0.00 L 117.00 140.00 L 0.00 140.00 L 0.00 0.00 M 41.21 53.16 C 38.99 54.31 38.57 57.75 40.54 59.31 C 42.20 61.14 45.34 60.73 46.52 58.57 C 49.15 55.48 44.33 50.66 41.21 53.16 M 56.48 53.49 C 54.83 54.79 54.48 57.45 56.00 58.99 C 57.71 61.57 61.87 60.55 62.76 57.74 C 64.18 54.27 59.17 50.63 56.48 53.49 M 72.41 53.39 C 67.84 56.29 73.73 63.33 77.39 59.34 C 81.30 56.43 75.93 50.03 72.41 53.39 Z" />
</g>
<g id="#f8fcf8ff">
<path fill="#f8fcf8" opacity="1.00" d=" M 41.21 53.16 C 44.33 50.66 49.15 55.48 46.52 58.57 C 45.34 60.73 42.20 61.14 40.54 59.31 C 38.57 57.75 38.99 54.31 41.21 53.16 Z" />
<path fill="#f8fcf8" opacity="1.00" d=" M 56.48 53.49 C 59.17 50.63 64.18 54.27 62.76 57.74 C 61.87 60.55 57.71 61.57 56.00 58.99 C 54.48 57.45 54.83 54.79 56.48 53.49 Z" />
<path fill="#f8fcf8" opacity="1.00" d=" M 72.41 53.39 C 75.93 50.03 81.30 56.43 77.39 59.34 C 73.73 63.33 67.84 56.29 72.41 53.39 Z" />
</g>
</svg>
