<?xml version="1.0" encoding="UTF-8" ?>
<!DOCTYPE svg PUBLIC "-//W3C//DTD SVG 1.1//EN" "http://www.w3.org/Graphics/SVG/1.1/DTD/svg11.dtd">
<svg width="117px" height="140px" viewBox="0 0 117 140" version="1.1" xmlns="http://www.w3.org/2000/svg">
<g id="#000000ff">
<path fill="#000000" opacity="1.00" d=" M 0.00 0.00 L 117.00 0.00 L 117.00 140.00 L 0.00 140.00 L 0.00 0.00 M 33.15 10.23 C 17.91 11.80 5.19 25.63 5.02 40.96 C 5.02 60.67 4.93 80.37 5.06 100.07 C 5.76 115.64 19.34 129.24 34.92 129.93 C 49.95 130.10 64.99 129.93 80.03 130.02 C 94.96 130.69 109.27 119.56 112.25 104.92 C 113.13 101.33 113.01 97.61 113.01 93.95 C 112.99 76.63 113.00 59.32 113.00 42.01 C 113.09 32.43 108.49 22.99 101.01 17.04 C 95.13 12.29 87.53 9.78 79.98 9.98 C 64.37 10.17 48.74 9.69 33.15 10.23 Z" />
<path fill="#000000" opacity="1.00" d=" M 30.51 12.70 C 33.95 11.90 37.50 11.98 41.00 12.00 C 55.03 12.06 69.05 11.89 83.07 12.08 C 97.93 12.77 110.84 26.06 110.96 40.96 C 111.02 60.33 111.03 79.70 110.96 99.07 C 110.82 113.96 97.89 127.30 83.01 127.90 C 67.33 128.11 51.65 127.97 35.96 127.97 C 20.70 127.83 7.13 114.28 7.02 99.00 C 6.98 79.66 6.99 60.32 7.02 40.98 C 7.21 27.65 17.49 15.40 30.51 12.70 M 57.20 27.07 C 57.22 34.33 57.28 41.58 57.16 48.84 C 57.95 48.86 59.53 48.90 60.32 48.92 C 60.33 41.62 60.32 34.32 60.34 27.03 C 59.55 27.04 57.98 27.06 57.20 27.07 M 36.78 42.75 C 31.49 51.04 31.81 62.56 37.67 70.48 C 42.44 77.29 50.76 81.43 59.09 80.93 C 66.95 80.73 74.46 76.38 78.78 69.84 C 83.20 63.45 84.09 54.92 81.58 47.62 C 79.75 42.21 75.81 37.80 71.20 34.55 C 70.44 35.36 69.68 36.17 68.93 36.99 C 77.45 41.73 81.85 52.55 79.04 61.89 C 77.19 68.83 71.63 74.60 64.79 76.77 C 57.85 79.14 49.76 77.59 44.14 72.89 C 38.37 68.28 35.34 60.55 36.30 53.24 C 37.09 46.49 41.25 40.33 47.13 36.94 C 46.35 36.15 45.58 35.36 44.80 34.58 C 41.69 36.82 38.79 39.44 36.78 42.75 Z" />
</g>
<g id="#727272ff">
<path fill="#727272" opacity="1.00" d=" M 33.15 10.23 C 48.74 9.69 64.37 10.17 79.98 9.98 C 87.53 9.78 95.13 12.29 101.01 17.04 C 108.49 22.99 113.09 32.43 113.00 42.01 C 113.00 59.32 112.99 76.63 113.01 93.95 C 113.01 97.61 113.13 101.33 112.25 104.92 C 109.27 119.56 94.96 130.69 80.03 130.02 C 64.99 129.93 49.95 130.10 34.92 129.93 C 19.34 129.24 5.76 115.64 5.06 100.07 C 4.93 80.37 5.02 60.67 5.02 40.96 C 5.19 25.63 17.91 11.80 33.15 10.23 M 30.51 12.70 C 17.49 15.40 7.21 27.65 7.02 40.98 C 6.99 60.32 6.98 79.66 7.02 99.00 C 7.13 114.28 20.70 127.83 35.96 127.97 C 51.65 127.97 67.33 128.11 83.01 127.90 C 97.89 127.30 110.82 113.96 110.96 99.07 C 111.03 79.70 111.02 60.33 110.96 40.96 C 110.84 26.06 97.93 12.77 83.07 12.08 C 69.05 11.89 55.03 12.06 41.00 12.00 C 37.50 11.98 33.95 11.90 30.51 12.70 Z" />
</g>
<g id="#f8fcf8ff">
<path fill="#f8fcf8" opacity="1.00" d=" M 57.20 27.07 C 57.98 27.06 59.55 27.04 60.34 27.03 C 60.32 34.32 60.33 41.62 60.32 48.92 C 59.53 48.90 57.95 48.86 57.16 48.84 C 57.28 41.58 57.22 34.33 57.20 27.07 Z" />
<path fill="#f8fcf8" opacity="1.00" d=" M 36.78 42.75 C 38.79 39.44 41.69 36.82 44.80 34.58 C 45.58 35.36 46.35 36.15 47.13 36.94 C 41.25 40.33 37.09 46.49 36.30 53.24 C 35.34 60.55 38.37 68.28 44.14 72.89 C 49.76 77.59 57.85 79.14 64.79 76.77 C 71.63 74.60 77.19 68.83 79.04 61.89 C 81.85 52.55 77.45 41.73 68.93 36.99 C 69.68 36.17 70.44 35.36 71.20 34.55 C 75.81 37.80 79.75 42.21 81.58 47.62 C 84.09 54.92 83.20 63.45 78.78 69.84 C 74.46 76.38 66.95 80.73 59.09 80.93 C 50.76 81.43 42.44 77.29 37.67 70.48 C 31.81 62.56 31.49 51.04 36.78 42.75 Z" />
</g>
</svg>
