<?xml version="1.0" encoding="UTF-8" ?>
<!DOCTYPE svg PUBLIC "-//W3C//DTD SVG 1.1//EN" "http://www.w3.org/Graphics/SVG/1.1/DTD/svg11.dtd">
<svg width="117px" height="140px" viewBox="0 0 117 140" version="1.1" xmlns="http://www.w3.org/2000/svg">
<g id="#000000ff">
<path fill="#000000" opacity="1.00" d=" M 0.00 0.00 L 117.00 0.00 L 117.00 140.00 L 0.00 140.00 L 0.00 0.00 M 33.21 10.22 C 17.94 11.76 5.18 25.62 5.02 40.98 C 4.98 60.32 4.99 79.66 5.02 99.00 C 5.15 114.96 18.96 129.25 34.91 129.93 C 50.64 130.08 66.38 130.00 82.12 129.97 C 98.41 129.81 112.85 115.35 112.97 99.06 C 113.04 80.04 112.98 61.02 113.00 42.00 C 113.07 33.37 109.37 24.82 103.11 18.89 C 97.02 12.97 88.49 9.76 80.01 9.98 C 64.41 10.17 48.79 9.69 33.21 10.22 Z" />
<path fill="#000000" opacity="1.00" d=" M 30.50 12.70 C 34.94 11.72 39.51 12.05 44.02 12.00 C 57.04 12.06 70.06 11.88 83.08 12.09 C 97.94 12.76 110.86 26.10 110.96 40.99 C 111.03 60.35 111.03 79.72 110.95 99.08 C 110.84 114.31 97.28 127.84 82.06 127.94 C 66.70 128.05 51.35 128.01 36.00 127.96 C 20.72 127.85 7.11 114.28 7.04 98.98 C 6.98 79.65 6.98 60.32 7.03 40.99 C 7.20 27.65 17.49 15.42 30.50 12.70 M 40.65 45.26 C 41.62 46.23 42.57 47.20 43.52 48.18 C 46.51 46.77 49.59 45.30 52.94 45.02 C 57.74 44.60 62.43 46.59 66.20 49.45 C 68.28 46.83 69.93 43.92 71.68 41.08 C 62.30 34.92 47.75 36.18 40.65 45.26 M 58.19 62.63 C 59.59 62.96 61.00 64.26 62.44 63.86 C 64.40 59.83 66.36 55.82 68.42 51.84 C 70.59 55.42 71.38 59.50 71.97 63.58 C 75.70 63.58 79.43 63.58 83.16 63.57 C 84.33 55.00 79.49 46.81 72.89 41.71 C 68.62 49.10 62.95 55.56 58.19 62.63 M 33.82 58.62 C 34.44 58.99 35.69 59.75 36.31 60.13 C 37.61 57.45 38.22 54.38 40.20 52.07 C 40.85 51.13 41.88 50.37 42.11 49.19 C 41.57 48.04 40.43 46.71 39.04 46.79 C 36.35 50.20 34.59 54.35 33.82 58.62 M 55.26 65.20 C 54.85 66.75 54.79 68.32 55.27 69.86 C 57.31 70.81 60.50 70.55 60.79 67.81 C 60.99 64.87 57.40 64.25 55.26 65.20 Z" />
<path fill="#000000" opacity="1.00" d=" M 54.75 41.24 C 56.61 40.74 58.53 40.68 60.44 40.82 C 59.05 42.85 56.65 41.56 54.75 41.24 Z" />
<path fill="#000000" opacity="1.00" d=" M 62.79 41.09 C 64.19 41.45 65.58 41.80 66.98 42.15 C 66.38 42.99 65.78 43.83 65.17 44.68 C 63.89 43.81 62.60 42.84 62.79 41.09 Z" />
<path fill="#000000" opacity="1.00" d=" M 72.43 49.61 C 71.80 48.63 72.79 46.51 74.09 47.06 C 74.85 48.04 73.61 49.97 72.43 49.61 Z" />
<path fill="#000000" opacity="1.00" d=" M 72.77 53.31 C 74.01 52.32 75.24 51.31 76.48 50.33 C 77.03 51.46 77.58 52.59 78.13 53.72 C 76.86 54.30 75.60 54.89 74.35 55.51 C 73.86 54.75 73.33 54.02 72.77 53.31 Z" />
<path fill="#000000" opacity="1.00" d=" M 74.22 59.92 C 75.69 58.67 77.38 57.71 79.07 56.78 C 79.30 57.86 79.52 58.94 79.73 60.02 C 77.89 60.00 76.05 60.00 74.22 59.92 Z" />
</g>
<g id="#717271ff">
<path fill="#717271" opacity="1.00" d=" M 33.21 10.22 C 48.79 9.69 64.41 10.17 80.01 9.98 C 88.49 9.76 97.02 12.97 103.11 18.89 C 109.37 24.82 113.07 33.37 113.00 42.00 C 112.98 61.02 113.04 80.04 112.97 99.06 C 112.85 115.35 98.41 129.81 82.12 129.97 C 66.38 130.00 50.64 130.08 34.91 129.93 C 18.96 129.25 5.15 114.96 5.02 99.00 C 4.99 79.66 4.98 60.32 5.02 40.98 C 5.18 25.62 17.94 11.76 33.21 10.22 M 30.50 12.70 C 17.49 15.42 7.20 27.65 7.03 40.99 C 6.98 60.32 6.98 79.65 7.04 98.98 C 7.11 114.28 20.72 127.85 36.00 127.96 C 51.35 128.01 66.70 128.05 82.06 127.94 C 97.28 127.84 110.84 114.31 110.95 99.08 C 111.03 79.72 111.03 60.35 110.96 40.99 C 110.86 26.10 97.94 12.76 83.08 12.09 C 70.06 11.88 57.04 12.06 44.02 12.00 C 39.51 12.05 34.94 11.72 30.50 12.70 Z" />
</g>
<g id="#f8fcf8ff">
<path fill="#f8fcf8" opacity="1.00" d=" M 40.65 45.26 C 47.75 36.18 62.30 34.92 71.68 41.08 C 69.93 43.92 68.28 46.83 66.20 49.45 C 62.43 46.59 57.74 44.60 52.94 45.02 C 49.59 45.30 46.51 46.77 43.52 48.18 C 42.57 47.20 41.62 46.23 40.65 45.26 M 54.75 41.24 C 56.65 41.56 59.05 42.85 60.44 40.82 C 58.53 40.68 56.61 40.74 54.75 41.24 M 62.79 41.09 C 62.60 42.84 63.89 43.81 65.17 44.68 C 65.78 43.83 66.38 42.99 66.98 42.15 C 65.58 41.80 64.19 41.45 62.79 41.09 Z" />
<path fill="#f8fcf8" opacity="1.00" d=" M 58.19 62.63 C 62.95 55.56 68.62 49.10 72.89 41.71 C 79.49 46.81 84.33 55.00 83.16 63.57 C 79.43 63.58 75.70 63.58 71.97 63.58 C 71.38 59.50 70.59 55.42 68.42 51.84 C 66.36 55.82 64.40 59.83 62.44 63.86 C 61.00 64.26 59.59 62.96 58.19 62.63 M 72.43 49.61 C 73.61 49.97 74.85 48.04 74.09 47.06 C 72.79 46.51 71.80 48.63 72.43 49.61 M 72.77 53.31 C 73.33 54.02 73.86 54.75 74.35 55.51 C 75.60 54.89 76.86 54.30 78.13 53.72 C 77.58 52.59 77.03 51.46 76.48 50.33 C 75.24 51.31 74.01 52.32 72.77 53.31 M 74.22 59.92 C 76.05 60.00 77.89 60.00 79.73 60.02 C 79.52 58.94 79.30 57.86 79.07 56.78 C 77.38 57.71 75.69 58.67 74.22 59.92 Z" />
<path fill="#f8fcf8" opacity="1.00" d=" M 33.82 58.62 C 34.59 54.35 36.35 50.20 39.04 46.79 C 40.43 46.71 41.57 48.04 42.11 49.19 C 41.88 50.37 40.85 51.13 40.20 52.07 C 38.22 54.38 37.61 57.45 36.31 60.13 C 35.69 59.75 34.44 58.99 33.82 58.62 Z" />
<path fill="#f8fcf8" opacity="1.00" d=" M 55.26 65.20 C 57.40 64.25 60.99 64.87 60.79 67.81 C 60.50 70.55 57.31 70.81 55.27 69.86 C 54.79 68.32 54.85 66.75 55.26 65.20 Z" />
</g>
</svg>
