<?xml version="1.0" encoding="UTF-8" ?>
<!DOCTYPE svg PUBLIC "-//W3C//DTD SVG 1.1//EN" "http://www.w3.org/Graphics/SVG/1.1/DTD/svg11.dtd">
<svg width="117px" height="140px" viewBox="0 0 117 140" version="1.1" xmlns="http://www.w3.org/2000/svg">
<g id="#000000ff">
<path fill="#000000" opacity="1.00" d=" M 0.00 0.00 L 117.00 0.00 L 117.00 140.00 L 0.00 140.00 L 0.00 0.00 M 32.11 10.22 C 16.91 11.82 4.21 25.60 4.02 40.90 C 4.02 60.60 3.93 80.31 4.06 100.01 C 4.70 115.98 18.97 129.82 34.95 129.99 C 50.66 129.96 66.37 130.10 82.08 129.92 C 98.39 129.27 112.39 114.37 112.00 98.04 C 112.00 79.35 112.00 60.66 112.00 41.96 C 112.04 34.30 109.15 26.69 104.08 20.95 C 97.92 13.77 88.43 9.69 78.99 9.98 C 63.36 10.17 47.72 9.70 32.11 10.22 Z" />
<path fill="#000000" opacity="1.00" d=" M 32.14 12.25 C 44.07 11.69 56.04 12.15 67.99 12.00 C 75.64 12.24 83.65 11.03 90.93 14.07 C 102.17 18.36 110.21 29.93 110.00 42.01 C 109.98 61.01 110.04 80.02 109.97 99.02 C 109.86 114.27 96.27 127.84 81.02 127.95 C 65.68 128.04 50.33 128.01 34.98 127.97 C 19.72 127.83 6.15 114.27 6.02 99.01 C 5.98 79.68 5.99 60.35 6.02 41.03 C 6.18 26.75 17.97 13.84 32.14 12.25 M 46.60 42.00 C 46.59 50.67 46.59 59.33 46.60 68.00 C 49.53 68.00 52.47 68.00 55.40 68.00 C 55.41 59.33 55.41 50.67 55.40 42.01 C 52.47 42.00 49.53 42.00 46.60 42.00 M 61.19 43.19 C 61.18 45.18 61.17 47.16 61.17 49.14 C 60.46 49.16 59.05 49.20 58.35 49.22 C 58.36 50.68 58.37 52.15 58.39 53.61 C 59.09 53.61 60.48 53.62 61.17 53.62 C 61.31 57.64 60.87 61.70 61.44 65.69 C 63.45 69.56 68.90 67.47 72.42 67.99 C 72.39 66.25 72.38 64.52 72.39 62.78 C 71.18 62.58 69.97 62.38 68.76 62.19 C 68.84 59.36 68.83 56.53 68.83 53.70 C 70.05 53.57 71.27 53.49 72.50 53.46 C 72.45 52.04 72.40 50.61 72.36 49.18 C 71.48 49.18 69.72 49.17 68.83 49.17 C 68.82 47.17 68.82 45.18 68.81 43.19 C 66.27 43.17 63.73 43.18 61.19 43.19 Z" />
</g>
<g id="#6a6e6aff">
<path fill="#6a6e6a" opacity="1.00" d=" M 32.11 10.22 C 47.72 9.70 63.36 10.17 78.99 9.98 C 88.43 9.69 97.92 13.77 104.08 20.95 C 109.15 26.69 112.04 34.30 112.00 41.96 C 112.00 60.66 112.00 79.35 112.00 98.04 C 112.39 114.37 98.39 129.27 82.08 129.92 C 66.37 130.10 50.66 129.96 34.95 129.99 C 18.97 129.82 4.70 115.98 4.06 100.01 C 3.93 80.31 4.02 60.60 4.02 40.90 C 4.21 25.60 16.91 11.82 32.11 10.22 M 32.14 12.25 C 17.97 13.84 6.18 26.75 6.02 41.03 C 5.99 60.35 5.98 79.68 6.02 99.01 C 6.15 114.27 19.72 127.83 34.98 127.97 C 50.33 128.01 65.68 128.04 81.02 127.95 C 96.27 127.84 109.86 114.27 109.97 99.02 C 110.04 80.02 109.98 61.01 110.00 42.01 C 110.21 29.93 102.17 18.36 90.93 14.07 C 83.65 11.03 75.64 12.24 67.99 12.00 C 56.04 12.15 44.07 11.69 32.14 12.25 Z" />
</g>
<g id="#e86010ff">
<path fill="#e86010" opacity="1.00" d=" M 46.60 42.00 C 49.53 42.00 52.47 42.00 55.40 42.01 C 55.41 50.67 55.41 59.33 55.40 68.00 C 52.47 68.00 49.53 68.00 46.60 68.00 C 46.59 59.33 46.59 50.67 46.60 42.00 Z" />
<path fill="#e86010" opacity="1.00" d=" M 61.19 43.19 C 63.73 43.18 66.27 43.17 68.81 43.19 C 68.82 45.18 68.82 47.17 68.83 49.17 C 69.72 49.17 71.48 49.18 72.36 49.18 C 72.40 50.61 72.45 52.04 72.50 53.46 C 71.27 53.49 70.05 53.57 68.83 53.70 C 68.83 56.53 68.84 59.36 68.76 62.19 C 69.97 62.38 71.18 62.58 72.39 62.78 C 72.38 64.52 72.39 66.25 72.42 67.99 C 68.90 67.47 63.45 69.56 61.44 65.69 C 60.87 61.70 61.31 57.64 61.17 53.62 C 60.48 53.62 59.09 53.61 58.39 53.61 C 58.37 52.15 58.36 50.68 58.35 49.22 C 59.05 49.20 60.46 49.16 61.17 49.14 C 61.17 47.16 61.18 45.18 61.19 43.19 Z" />
</g>
</svg>
