<?xml version="1.0" encoding="UTF-8" ?>
<!DOCTYPE svg PUBLIC "-//W3C//DTD SVG 1.1//EN" "http://www.w3.org/Graphics/SVG/1.1/DTD/svg11.dtd">
<svg width="117px" height="140px" viewBox="0 0 117 140" version="1.1" xmlns="http://www.w3.org/2000/svg">
<g id="#000000ff">
<path fill="#000000" opacity="1.00" d=" M 0.00 0.00 L 117.00 0.00 L 117.00 140.00 L 0.00 140.00 L 0.00 0.00 M 6.92 31.01 C 4.43 37.39 5.03 44.31 5.00 51.00 C 5.06 68.22 4.88 85.43 5.09 102.64 L 5.32 102.75 C 7.35 117.62 20.92 129.81 35.96 129.98 C 50.97 130.03 65.98 129.99 80.99 130.00 C 91.32 130.08 101.47 124.76 107.29 116.24 C 111.24 110.68 113.15 103.83 113.02 97.05 C 112.98 78.70 113.02 60.36 113.00 42.02 C 113.14 30.69 106.65 19.65 96.77 14.16 C 91.72 11.25 85.86 9.88 80.05 9.98 C 65.35 10.05 50.65 9.94 35.95 10.02 C 23.17 10.24 11.21 19.01 6.92 31.01 Z" />
<path fill="#000000" opacity="1.00" d=" M 7.05 41.00 C 7.14 25.74 20.70 12.18 35.96 12.05 C 51.30 11.96 66.65 11.97 82.00 12.05 C 97.25 12.16 110.86 25.70 110.95 40.97 C 111.03 60.33 111.04 79.70 110.95 99.06 C 110.86 114.30 97.24 127.86 82.01 127.94 C 65.55 127.99 49.08 128.14 32.62 127.84 C 18.76 125.66 7.13 113.21 7.05 98.99 C 6.97 79.66 6.97 60.33 7.05 41.00 M 47.02 39.87 C 47.86 40.77 48.75 41.63 49.67 42.46 C 51.98 38.20 56.31 35.78 59.66 32.45 C 63.27 35.55 67.18 38.38 70.08 42.20 C 71.02 41.44 71.96 40.68 72.90 39.93 C 71.45 38.92 69.94 37.98 68.68 36.74 C 68.37 34.23 68.55 31.68 68.45 29.16 C 67.15 29.08 65.84 29.02 64.54 28.96 C 64.48 30.04 64.36 32.19 64.30 33.27 C 62.85 31.80 61.54 30.19 60.01 28.81 C 55.53 32.21 51.49 36.37 47.02 39.87 M 50.61 41.94 C 50.39 44.41 50.52 46.89 50.52 49.36 C 52.93 49.39 55.33 49.39 57.74 49.36 C 57.89 47.43 58.03 45.51 58.20 43.59 C 59.33 43.60 60.47 43.62 61.61 43.64 C 61.61 45.55 61.62 47.46 61.63 49.38 C 63.90 49.39 66.18 49.38 68.45 49.35 C 68.52 46.81 68.52 44.28 68.51 41.75 C 65.62 39.15 62.70 36.58 59.81 33.99 C 56.68 36.56 53.47 39.06 50.61 41.94 M 33.83 52.98 C 37.43 56.03 41.03 59.07 44.65 62.09 C 43.84 59.38 42.96 56.70 42.15 53.99 C 46.15 53.30 50.19 54.07 54.22 53.71 C 61.76 54.05 69.33 53.34 76.85 53.98 C 76.04 56.68 75.15 59.36 74.35 62.07 C 77.98 59.07 81.59 56.04 85.18 52.98 C 81.58 49.95 77.97 46.93 74.35 43.92 C 75.15 46.64 76.04 49.32 76.87 52.02 C 65.32 52.37 53.68 52.38 42.12 52.02 C 42.95 49.32 43.84 46.64 44.65 43.94 C 41.02 46.93 37.42 49.95 33.83 52.98 M 49.18 56.75 C 50.16 57.99 51.14 59.22 52.13 60.45 L 52.24 60.69 C 53.63 62.49 55.03 64.28 56.44 66.06 C 53.81 69.09 51.25 72.18 48.84 75.38 C 49.96 75.43 52.21 75.53 53.34 75.57 C 55.22 73.09 57.15 70.65 59.03 68.17 C 60.95 70.63 62.88 73.07 64.74 75.57 C 65.88 75.52 68.16 75.42 69.29 75.38 C 66.88 72.14 64.22 69.10 61.59 66.03 C 64.07 63.01 66.37 59.85 68.74 56.75 C 67.17 56.75 65.61 56.75 64.05 56.76 C 62.37 59.19 60.69 61.63 59.03 64.08 C 57.36 61.62 55.65 59.19 53.93 56.76 C 52.35 56.76 50.76 56.75 49.18 56.75 Z" />
</g>
<g id="#6a6e6aff">
<path fill="#6a6e6a" opacity="1.00" d=" M 6.92 31.01 C 11.21 19.01 23.17 10.24 35.95 10.02 C 50.65 9.94 65.35 10.05 80.05 9.98 C 85.86 9.88 91.72 11.25 96.77 14.16 C 106.65 19.65 113.14 30.69 113.00 42.02 C 113.02 60.36 112.98 78.70 113.02 97.05 C 113.15 103.83 111.24 110.68 107.29 116.24 C 101.47 124.76 91.32 130.08 80.99 130.00 C 65.98 129.99 50.97 130.03 35.96 129.98 C 20.92 129.81 7.35 117.62 5.32 102.75 L 5.09 102.64 C 4.88 85.43 5.06 68.22 5.00 51.00 C 5.03 44.31 4.43 37.39 6.92 31.01 M 7.05 41.00 C 6.97 60.33 6.97 79.66 7.05 98.99 C 7.13 113.21 18.76 125.66 32.62 127.84 C 49.08 128.14 65.55 127.99 82.01 127.94 C 97.24 127.86 110.86 114.30 110.95 99.06 C 111.04 79.70 111.03 60.33 110.95 40.97 C 110.86 25.70 97.25 12.16 82.00 12.05 C 66.65 11.97 51.30 11.96 35.96 12.05 C 20.70 12.18 7.14 25.74 7.05 41.00 Z" />
</g>
<g id="#f8fcf8ff">
<path fill="#f8fcf8" opacity="1.00" d=" M 47.02 39.87 C 51.49 36.37 55.53 32.21 60.01 28.81 C 61.54 30.19 62.85 31.80 64.30 33.27 C 64.36 32.19 64.48 30.04 64.54 28.96 C 65.84 29.02 67.15 29.08 68.45 29.16 C 68.55 31.68 68.37 34.23 68.68 36.74 C 69.94 37.98 71.45 38.92 72.90 39.93 C 71.96 40.68 71.02 41.44 70.08 42.20 C 67.18 38.38 63.27 35.55 59.66 32.45 C 56.31 35.78 51.98 38.20 49.67 42.46 C 48.75 41.63 47.86 40.77 47.02 39.87 Z" />
<path fill="#f8fcf8" opacity="1.00" d=" M 50.61 41.94 C 53.47 39.06 56.68 36.56 59.81 33.99 C 62.70 36.58 65.62 39.15 68.51 41.75 C 68.52 44.28 68.52 46.81 68.45 49.35 C 66.18 49.38 63.90 49.39 61.63 49.38 C 61.62 47.46 61.61 45.55 61.61 43.64 C 60.47 43.62 59.33 43.60 58.20 43.59 C 58.03 45.51 57.89 47.43 57.74 49.36 C 55.33 49.39 52.93 49.39 50.52 49.36 C 50.52 46.89 50.39 44.41 50.61 41.94 Z" />
<path fill="#f8fcf8" opacity="1.00" d=" M 33.83 52.98 C 37.42 49.95 41.02 46.93 44.65 43.94 C 43.84 46.64 42.95 49.32 42.12 52.02 C 53.68 52.38 65.32 52.37 76.87 52.02 C 76.04 49.32 75.15 46.64 74.35 43.92 C 77.97 46.93 81.58 49.95 85.18 52.98 C 81.59 56.04 77.98 59.07 74.35 62.07 C 75.15 59.36 76.04 56.68 76.85 53.98 C 69.33 53.34 61.76 54.05 54.22 53.71 C 50.19 54.07 46.15 53.30 42.15 53.99 C 42.96 56.70 43.84 59.38 44.65 62.09 C 41.03 59.07 37.43 56.03 33.83 52.98 Z" />
<path fill="#f8fcf8" opacity="1.00" d=" M 49.18 56.75 C 50.76 56.75 52.35 56.76 53.93 56.76 C 55.65 59.19 57.36 61.62 59.03 64.08 C 60.69 61.63 62.37 59.19 64.05 56.76 C 65.61 56.75 67.17 56.75 68.74 56.75 C 66.37 59.85 64.07 63.01 61.59 66.03 C 64.22 69.10 66.88 72.14 69.29 75.38 C 68.16 75.42 65.88 75.52 64.74 75.57 C 62.88 73.07 60.95 70.63 59.03 68.17 C 57.15 70.65 55.22 73.09 53.34 75.57 C 52.21 75.53 49.96 75.43 48.84 75.38 C 51.25 72.18 53.81 69.09 56.44 66.06 C 55.03 64.28 53.63 62.49 52.24 60.69 L 52.13 60.45 C 51.14 59.22 50.16 57.99 49.18 56.75 Z" />
</g>
</svg>
