<?xml version="1.0" encoding="UTF-8" ?>
<!DOCTYPE svg PUBLIC "-//W3C//DTD SVG 1.1//EN" "http://www.w3.org/Graphics/SVG/1.1/DTD/svg11.dtd">
<svg width="117px" height="140px" viewBox="0 0 117 140" version="1.1" xmlns="http://www.w3.org/2000/svg">
<g id="#384450ff">
<path fill="#384450" opacity="1.00" d=" M 0.00 0.00 L 117.00 0.00 L 117.00 140.00 L 0.00 140.00 L 0.00 0.00 M 41.18 53.19 C 37.78 54.91 39.36 60.54 43.09 60.42 C 45.05 60.78 46.58 58.89 47.21 57.25 C 47.88 54.14 43.81 51.06 41.18 53.19 M 56.47 53.51 C 52.32 56.52 57.94 63.22 61.54 59.46 C 65.66 56.45 60.05 49.79 56.47 53.51 M 72.36 53.43 C 67.85 56.39 73.84 63.38 77.45 59.29 C 81.28 56.32 75.83 50.00 72.36 53.43 Z" />
</g>
<g id="#f8fcf8ff">
<path fill="#f8fcf8" opacity="1.00" d=" M 41.18 53.19 C 43.81 51.06 47.88 54.14 47.21 57.25 C 46.58 58.89 45.05 60.78 43.09 60.42 C 39.36 60.54 37.78 54.91 41.18 53.19 Z" />
<path fill="#f8fcf8" opacity="1.00" d=" M 56.47 53.51 C 60.05 49.79 65.66 56.45 61.54 59.46 C 57.94 63.22 52.32 56.52 56.47 53.51 Z" />
<path fill="#f8fcf8" opacity="1.00" d=" M 72.36 53.43 C 75.83 50.00 81.28 56.32 77.45 59.29 C 73.84 63.38 67.85 56.39 72.36 53.43 Z" />
</g>
</svg>
