<?xml version="1.0" encoding="UTF-8" ?>
<!DOCTYPE svg PUBLIC "-//W3C//DTD SVG 1.1//EN" "http://www.w3.org/Graphics/SVG/1.1/DTD/svg11.dtd">
<svg width="117px" height="140px" viewBox="0 0 117 140" version="1.1" xmlns="http://www.w3.org/2000/svg">
<g id="#384450ff">
<path fill="#384450" opacity="1.00" d=" M 0.00 0.00 L 117.00 0.00 L 117.00 140.00 L 0.00 140.00 L 0.00 0.00 M 41.25 53.14 C 38.64 54.43 38.64 58.59 41.27 59.85 C 43.25 61.35 46.01 60.05 46.90 57.94 C 48.58 54.80 44.10 50.90 41.25 53.14 M 56.42 53.55 C 52.34 56.60 57.99 63.20 61.55 59.45 C 65.68 56.42 59.97 49.76 56.42 53.55 M 72.43 53.36 C 70.55 54.66 70.07 57.59 71.92 59.14 C 73.87 61.85 78.52 60.03 78.69 56.89 C 79.22 53.73 74.83 51.06 72.43 53.36 Z" />
</g>
<g id="#f8fcf8ff">
<path fill="#f8fcf8" opacity="1.00" d=" M 41.25 53.14 C 44.10 50.90 48.58 54.80 46.90 57.94 C 46.01 60.05 43.25 61.35 41.27 59.85 C 38.64 58.59 38.64 54.43 41.25 53.14 Z" />
<path fill="#f8fcf8" opacity="1.00" d=" M 56.42 53.55 C 59.97 49.76 65.68 56.42 61.55 59.45 C 57.99 63.20 52.34 56.60 56.42 53.55 Z" />
<path fill="#f8fcf8" opacity="1.00" d=" M 72.43 53.36 C 74.83 51.06 79.22 53.73 78.69 56.89 C 78.52 60.03 73.87 61.85 71.92 59.14 C 70.07 57.59 70.55 54.66 72.43 53.36 Z" />
</g>
</svg>
