<?xml version="1.0" encoding="UTF-8" ?>
<!DOCTYPE svg PUBLIC "-//W3C//DTD SVG 1.1//EN" "http://www.w3.org/Graphics/SVG/1.1/DTD/svg11.dtd">
<svg width="117px" height="140px" viewBox="0 0 117 140" version="1.1" xmlns="http://www.w3.org/2000/svg">
<g id="#000000ff">
<path fill="#000000" opacity="1.00" d=" M 0.00 0.00 L 117.00 0.00 L 117.00 140.00 L 0.00 140.00 L 0.00 0.00 M 33.14 10.23 C 17.90 11.80 5.19 25.63 5.02 40.97 C 4.98 60.31 4.99 79.65 5.02 98.98 C 5.14 114.95 18.94 129.24 34.88 129.92 C 50.61 130.09 66.35 129.99 82.09 129.97 C 98.02 129.81 112.27 115.99 112.93 100.07 C 113.10 80.71 112.95 61.34 113.00 41.98 C 113.06 33.34 109.35 24.78 103.07 18.86 C 96.98 12.95 88.45 9.75 79.98 9.98 C 64.37 10.17 48.74 9.69 33.14 10.23 Z" />
<path fill="#000000" opacity="1.00" d=" M 30.41 12.71 C 34.55 11.78 38.81 12.02 43.02 12.00 C 56.35 12.06 69.70 11.88 83.03 12.09 C 97.91 12.73 110.86 26.07 110.96 40.98 C 111.03 60.35 111.03 79.72 110.95 99.09 C 110.82 113.97 97.87 127.30 83.00 127.89 C 70.69 128.13 58.38 127.94 46.06 128.00 C 39.66 127.89 33.00 128.62 26.89 126.25 C 15.56 122.31 7.19 111.02 7.03 98.98 C 6.98 79.64 6.98 60.29 7.03 40.95 C 7.22 27.66 17.45 15.47 30.41 12.71 M 40.77 45.09 C 41.60 46.18 42.54 47.18 43.43 48.23 C 46.77 46.65 50.24 44.98 54.02 44.97 C 58.51 44.67 62.67 46.86 66.18 49.44 C 68.21 46.88 69.97 44.09 71.50 41.20 C 66.49 36.92 59.27 37.12 53.08 37.77 C 48.46 38.94 43.62 41.12 40.77 45.09 M 67.17 51.02 C 70.63 54.32 71.30 59.09 71.97 63.58 C 75.70 63.58 79.43 63.58 83.16 63.57 C 84.32 55.00 79.49 46.79 72.88 41.72 C 71.11 44.90 69.24 48.02 67.17 51.02 M 56.98 45.31 C 56.43 51.13 56.48 57.04 55.27 62.78 C 56.87 62.44 58.47 62.39 60.08 62.62 C 59.82 57.38 59.16 52.18 58.91 46.95 C 58.26 46.41 57.62 45.86 56.98 45.31 M 33.83 58.63 C 34.45 59.00 35.71 59.74 36.33 60.11 C 37.60 57.47 38.19 54.45 40.13 52.17 C 40.79 51.13 42.01 50.36 42.10 49.04 C 41.34 48.12 40.35 46.31 38.91 46.92 C 36.33 50.33 34.54 54.41 33.83 58.63 M 55.10 65.60 C 55.01 66.84 54.48 68.36 55.72 69.25 C 57.46 71.66 61.07 69.64 61.08 67.05 C 60.50 65.68 59.18 64.91 58.09 64.00 C 57.10 64.54 56.10 65.07 55.10 65.60 Z" />
<path fill="#000000" opacity="1.00" d=" M 54.73 41.18 C 56.05 41.15 61.09 39.42 59.25 42.15 C 57.72 41.94 56.22 41.60 54.73 41.18 Z" />
<path fill="#000000" opacity="1.00" d=" M 62.80 41.09 C 64.19 41.45 65.59 41.81 66.98 42.15 C 66.38 42.98 65.79 43.82 65.19 44.66 C 63.88 43.82 62.61 42.85 62.80 41.09 Z" />
<path fill="#000000" opacity="1.00" d=" M 72.42 49.63 C 71.79 48.64 72.78 46.54 74.09 47.11 C 74.84 48.08 73.59 50.00 72.42 49.63 Z" />
<path fill="#000000" opacity="1.00" d=" M 72.87 53.27 C 74.07 52.28 75.28 51.29 76.49 50.32 C 77.04 51.47 77.59 52.62 78.14 53.77 C 76.77 54.33 75.40 54.93 74.04 55.51 C 73.74 54.95 73.16 53.83 72.87 53.27 Z" />
<path fill="#000000" opacity="1.00" d=" M 74.22 59.93 C 75.68 58.64 77.39 57.73 79.07 56.77 C 79.29 57.86 79.51 58.94 79.74 60.02 C 77.90 60.01 76.06 60.00 74.22 59.93 Z" />
</g>
<g id="#717271ff">
<path fill="#717271" opacity="1.00" d=" M 33.14 10.23 C 48.74 9.69 64.37 10.17 79.98 9.98 C 88.45 9.75 96.98 12.95 103.07 18.86 C 109.35 24.78 113.06 33.34 113.00 41.98 C 112.95 61.34 113.10 80.71 112.93 100.07 C 112.27 115.99 98.02 129.81 82.09 129.97 C 66.35 129.99 50.61 130.09 34.88 129.92 C 18.94 129.24 5.14 114.95 5.02 98.98 C 4.99 79.65 4.98 60.31 5.02 40.97 C 5.19 25.63 17.90 11.80 33.14 10.23 M 30.41 12.71 C 17.45 15.47 7.22 27.66 7.03 40.95 C 6.98 60.29 6.98 79.64 7.03 98.98 C 7.19 111.02 15.56 122.31 26.89 126.25 C 33.00 128.62 39.66 127.89 46.06 128.00 C 58.38 127.94 70.69 128.13 83.00 127.89 C 97.87 127.30 110.82 113.97 110.95 99.09 C 111.03 79.72 111.03 60.35 110.96 40.98 C 110.86 26.07 97.91 12.73 83.03 12.09 C 69.70 11.88 56.35 12.06 43.02 12.00 C 38.81 12.02 34.55 11.78 30.41 12.71 Z" />
</g>
<g id="#f8fcf8ff">
<path fill="#f8fcf8" opacity="1.00" d=" M 40.77 45.09 C 43.62 41.12 48.46 38.94 53.08 37.77 C 59.27 37.12 66.49 36.92 71.50 41.20 C 69.97 44.09 68.21 46.88 66.18 49.44 C 62.67 46.86 58.51 44.67 54.02 44.97 C 50.24 44.98 46.77 46.65 43.43 48.23 C 42.54 47.18 41.60 46.18 40.77 45.09 M 54.73 41.18 C 56.22 41.60 57.72 41.94 59.25 42.15 C 61.09 39.42 56.05 41.15 54.73 41.18 M 62.80 41.09 C 62.61 42.85 63.88 43.82 65.19 44.66 C 65.79 43.82 66.38 42.98 66.98 42.15 C 65.59 41.81 64.19 41.45 62.80 41.09 Z" />
<path fill="#f8fcf8" opacity="1.00" d=" M 67.17 51.02 C 69.24 48.02 71.11 44.90 72.88 41.72 C 79.49 46.79 84.32 55.00 83.16 63.57 C 79.43 63.58 75.70 63.58 71.97 63.58 C 71.30 59.09 70.63 54.32 67.17 51.02 M 72.42 49.63 C 73.59 50.00 74.84 48.08 74.09 47.11 C 72.78 46.54 71.79 48.64 72.42 49.63 M 72.87 53.27 C 73.16 53.83 73.74 54.95 74.04 55.51 C 75.40 54.93 76.77 54.33 78.14 53.77 C 77.59 52.62 77.04 51.47 76.49 50.32 C 75.28 51.29 74.07 52.28 72.87 53.27 M 74.22 59.93 C 76.06 60.00 77.90 60.01 79.74 60.02 C 79.51 58.94 79.29 57.86 79.07 56.77 C 77.39 57.73 75.68 58.64 74.22 59.93 Z" />
<path fill="#f8fcf8" opacity="1.00" d=" M 56.98 45.31 C 57.62 45.86 58.26 46.41 58.91 46.95 C 59.16 52.18 59.82 57.38 60.08 62.62 C 58.47 62.39 56.87 62.44 55.27 62.78 C 56.48 57.04 56.43 51.13 56.98 45.31 Z" />
<path fill="#f8fcf8" opacity="1.00" d=" M 33.83 58.63 C 34.54 54.41 36.33 50.33 38.91 46.92 C 40.35 46.31 41.34 48.12 42.10 49.04 C 42.01 50.36 40.79 51.13 40.13 52.17 C 38.19 54.45 37.60 57.47 36.33 60.11 C 35.71 59.74 34.45 59.00 33.83 58.63 Z" />
<path fill="#f8fcf8" opacity="1.00" d=" M 55.10 65.60 C 56.10 65.07 57.10 64.54 58.09 64.00 C 59.18 64.91 60.50 65.68 61.08 67.05 C 61.07 69.64 57.46 71.66 55.72 69.25 C 54.48 68.36 55.01 66.84 55.10 65.60 Z" />
</g>
</svg>
