<?xml version="1.0" encoding="UTF-8" ?>
<!DOCTYPE svg PUBLIC "-//W3C//DTD SVG 1.1//EN" "http://www.w3.org/Graphics/SVG/1.1/DTD/svg11.dtd">
<svg width="117pt" height="140pt" viewBox="0 0 117 140" version="1.1" xmlns="http://www.w3.org/2000/svg">
<g id="#000000ff">
<path fill="#000000" opacity="1.00" d=" M 0.00 0.00 L 117.00 0.00 L 117.00 140.00 L 0.00 140.00 L 0.00 0.00 M 33.15 10.22 C 17.93 11.79 5.22 25.59 5.02 40.91 C 4.97 59.95 5.02 79.00 4.99 98.05 C 4.94 106.92 8.88 115.69 15.45 121.63 C 21.49 127.23 29.76 130.25 37.99 130.02 C 53.03 129.92 68.07 130.12 83.11 129.92 C 99.01 129.24 112.81 115.02 112.98 99.11 C 113.04 80.09 112.98 61.06 113.00 42.04 C 113.08 33.40 109.38 24.83 103.11 18.89 C 97.01 12.96 88.46 9.75 79.97 9.98 C 64.37 10.17 48.74 9.69 33.15 10.22 Z" />
<path fill="#000000" opacity="1.00" d=" M 33.24 12.35 C 48.48 11.71 63.76 12.26 79.02 12.06 C 85.35 11.89 91.81 13.29 97.13 16.84 C 105.61 22.13 111.00 32.00 110.90 41.99 C 110.96 60.33 110.92 78.67 110.93 97.01 C 111.02 102.55 109.77 108.14 106.89 112.92 C 101.82 122.09 91.51 127.94 81.06 127.90 C 66.36 127.95 51.65 127.94 36.94 127.91 C 26.26 127.97 15.76 121.80 10.78 112.33 C 8.12 107.70 6.99 102.34 7.07 97.04 C 7.11 78.34 6.99 59.64 7.13 40.95 C 7.31 26.73 19.09 13.82 33.24 12.35 M 52.54 29.54 C 42.46 32.58 34.61 42.31 34.68 52.97 C 34.49 66.16 46.72 78.05 59.94 77.29 C 73.11 76.95 84.54 64.29 83.23 51.11 C 82.31 36.63 66.61 25.17 52.54 29.54 Z" />
<path fill="#000000" opacity="1.00" d=" M 53.29 33.29 C 64.71 29.67 78.08 38.02 79.24 50.05 C 81.30 61.23 72.27 72.80 60.91 73.36 C 50.02 74.78 39.17 65.86 38.63 54.88 C 37.45 45.35 44.05 35.74 53.29 33.29 M 57.94 39.28 C 57.90 40.51 57.90 41.74 57.94 42.98 C 59.14 42.97 60.34 42.95 61.54 42.94 C 61.57 41.71 61.61 40.48 61.66 39.25 C 60.42 39.26 59.18 39.27 57.94 39.28 M 55.07 45.05 C 55.10 45.77 55.15 47.21 55.18 47.94 C 55.85 48.01 57.21 48.17 57.89 48.25 C 57.81 53.86 57.77 59.48 57.90 65.09 C 59.96 65.35 62.04 65.36 64.09 65.06 C 64.08 64.29 64.07 62.76 64.06 61.99 C 63.38 61.93 62.03 61.80 61.35 61.74 C 61.81 56.12 61.49 50.48 61.57 44.85 C 59.40 44.63 57.19 44.46 55.07 45.05 Z" />
</g>
<g id="#717171ff">
<path fill="#717171" opacity="1.00" d=" M 33.15 10.22 C 48.74 9.69 64.37 10.17 79.97 9.98 C 88.46 9.75 97.01 12.96 103.11 18.89 C 109.38 24.83 113.08 33.40 113.00 42.04 C 112.98 61.06 113.04 80.09 112.98 99.11 C 112.81 115.02 99.01 129.24 83.11 129.92 C 68.07 130.12 53.03 129.92 37.99 130.02 C 29.76 130.25 21.49 127.23 15.45 121.63 C 8.88 115.69 4.94 106.92 4.99 98.05 C 5.02 79.00 4.97 59.95 5.02 40.91 C 5.22 25.59 17.93 11.79 33.15 10.22 M 33.24 12.35 C 19.09 13.82 7.31 26.73 7.13 40.95 C 6.99 59.64 7.11 78.34 7.07 97.04 C 6.99 102.34 8.12 107.70 10.78 112.33 C 15.76 121.80 26.26 127.97 36.94 127.91 C 51.65 127.94 66.36 127.95 81.06 127.90 C 91.51 127.94 101.82 122.09 106.89 112.92 C 109.77 108.14 111.02 102.55 110.93 97.01 C 110.92 78.67 110.96 60.33 110.90 41.99 C 111.00 32.00 105.61 22.13 97.13 16.84 C 91.81 13.29 85.35 11.89 79.02 12.06 C 63.76 12.26 48.48 11.71 33.24 12.35 Z" />
</g>
<g id="#f8fcf8ff">
<path fill="#f8fcf8" opacity="1.00" d=" M 52.54 29.54 C 66.61 25.17 82.31 36.63 83.23 51.11 C 84.54 64.29 73.11 76.95 59.94 77.29 C 46.72 78.05 34.49 66.16 34.68 52.97 C 34.61 42.31 42.46 32.58 52.54 29.54 M 53.29 33.29 C 44.05 35.74 37.45 45.35 38.63 54.88 C 39.17 65.86 50.02 74.78 60.91 73.36 C 72.27 72.80 81.30 61.23 79.24 50.05 C 78.08 38.02 64.71 29.67 53.29 33.29 Z" />
<path fill="#f8fcf8" opacity="1.00" d=" M 57.94 39.28 C 59.18 39.27 60.42 39.26 61.66 39.25 C 61.61 40.48 61.57 41.71 61.54 42.94 C 60.34 42.95 59.14 42.97 57.94 42.98 C 57.90 41.74 57.90 40.51 57.94 39.28 Z" />
<path fill="#f8fcf8" opacity="1.00" d=" M 55.07 45.05 C 57.19 44.46 59.40 44.63 61.57 44.85 C 61.49 50.48 61.81 56.12 61.35 61.74 C 62.03 61.80 63.38 61.93 64.06 61.99 C 64.07 62.76 64.08 64.29 64.09 65.06 C 62.04 65.36 59.96 65.35 57.90 65.09 C 57.77 59.48 57.81 53.86 57.89 48.25 C 57.21 48.17 55.85 48.01 55.18 47.94 C 55.15 47.21 55.10 45.77 55.07 45.05 Z" />
</g>
</svg>
