<?xml version="1.0" encoding="UTF-8" ?>
<!DOCTYPE svg PUBLIC "-//W3C//DTD SVG 1.1//EN" "http://www.w3.org/Graphics/SVG/1.1/DTD/svg11.dtd">
<svg width="117px" height="140px" viewBox="0 0 117 140" version="1.1" xmlns="http://www.w3.org/2000/svg">
<g id="#000000ff">
<path fill="#000000" opacity="1.00" d=" M 0.00 0.00 L 117.00 0.00 L 117.00 140.00 L 0.00 140.00 L 0.00 0.00 M 32.17 10.21 C 16.92 11.78 4.16 25.62 4.02 40.98 C 3.98 60.32 3.99 79.67 4.02 99.01 C 4.14 114.98 17.96 129.25 33.91 129.93 C 49.60 130.08 65.30 129.99 80.99 129.97 C 96.97 129.87 111.30 116.04 111.92 100.07 C 112.11 80.70 111.95 61.33 112.00 41.97 C 112.10 31.66 106.74 21.55 98.26 15.72 C 92.67 11.80 85.81 9.81 78.99 9.98 C 63.39 10.17 47.77 9.71 32.17 10.21 Z" />
<path fill="#000000" opacity="1.00" d=" M 32.16 12.25 C 44.09 11.68 56.05 12.15 67.98 12.00 C 75.63 12.24 83.63 11.04 90.90 14.05 C 101.81 18.23 109.79 29.25 109.97 40.99 C 110.05 59.67 109.97 78.35 110.01 97.03 C 110.62 109.75 102.08 122.07 90.11 126.25 C 85.62 127.99 80.76 128.06 76.02 128.00 C 61.99 127.93 47.95 128.12 33.93 127.91 C 19.08 127.23 6.19 113.93 6.03 99.06 C 5.98 79.70 5.98 60.34 6.03 40.98 C 6.20 26.71 18.00 13.82 32.16 12.25 M 41.58 42.00 C 41.58 50.67 41.58 59.33 41.58 68.00 C 44.39 68.00 47.19 68.00 50.00 68.00 C 49.99 64.94 50.01 61.89 50.00 58.83 C 53.22 58.84 56.43 58.83 59.65 58.84 C 59.62 56.75 59.61 54.67 59.60 52.58 C 56.40 52.57 53.21 52.59 50.02 52.61 C 50.04 51.21 50.05 49.80 50.01 48.40 C 53.95 48.43 57.89 48.42 61.83 48.42 C 61.83 46.28 61.83 44.14 61.84 42.01 C 55.09 41.99 48.34 42.00 41.58 42.00 M 64.58 49.16 C 64.58 55.44 64.58 61.72 64.58 67.99 C 67.28 68.05 69.98 67.97 72.67 67.94 C 72.72 64.69 72.24 61.36 72.98 58.16 C 74.10 56.11 76.53 55.63 78.63 56.31 C 78.67 53.59 78.64 50.86 78.41 48.15 C 75.65 48.31 73.28 49.66 71.75 51.96 C 71.77 51.27 71.82 49.87 71.84 49.17 C 69.42 49.17 67.00 49.17 64.58 49.16 Z" />
</g>
<g id="#6a6e6aff">
<path fill="#6a6e6a" opacity="1.00" d=" M 32.17 10.21 C 47.77 9.71 63.39 10.17 78.99 9.98 C 85.81 9.81 92.67 11.80 98.26 15.72 C 106.74 21.55 112.10 31.66 112.00 41.97 C 111.95 61.33 112.11 80.70 111.92 100.07 C 111.30 116.04 96.97 129.87 80.99 129.97 C 65.30 129.99 49.60 130.08 33.91 129.93 C 17.96 129.25 4.14 114.98 4.02 99.01 C 3.99 79.67 3.98 60.32 4.02 40.98 C 4.16 25.62 16.92 11.78 32.17 10.21 M 32.16 12.25 C 18.00 13.82 6.20 26.71 6.03 40.98 C 5.98 60.34 5.98 79.70 6.03 99.06 C 6.19 113.93 19.08 127.23 33.93 127.91 C 47.95 128.12 61.99 127.93 76.02 128.00 C 80.76 128.06 85.62 127.99 90.11 126.25 C 102.08 122.07 110.62 109.75 110.01 97.03 C 109.97 78.35 110.05 59.67 109.97 40.99 C 109.79 29.25 101.81 18.23 90.90 14.05 C 83.63 11.04 75.63 12.24 67.98 12.00 C 56.05 12.15 44.09 11.68 32.16 12.25 Z" />
</g>
<g id="#f8fcf8ff">
<path fill="#f8fcf8" opacity="1.00" d=" M 41.58 42.00 C 48.34 42.00 55.09 41.99 61.84 42.01 C 61.83 44.14 61.83 46.28 61.83 48.42 C 57.89 48.42 53.95 48.43 50.01 48.40 C 50.05 49.80 50.04 51.21 50.02 52.61 C 53.21 52.59 56.40 52.57 59.60 52.58 C 59.61 54.67 59.62 56.75 59.65 58.84 C 56.43 58.83 53.22 58.84 50.00 58.83 C 50.01 61.89 49.99 64.94 50.00 68.00 C 47.19 68.00 44.39 68.00 41.58 68.00 C 41.58 59.33 41.58 50.67 41.58 42.00 Z" />
<path fill="#f8fcf8" opacity="1.00" d=" M 64.58 49.16 C 67.00 49.17 69.42 49.17 71.84 49.17 C 71.82 49.87 71.77 51.27 71.75 51.96 C 73.28 49.66 75.65 48.31 78.41 48.15 C 78.64 50.86 78.67 53.59 78.63 56.31 C 76.53 55.63 74.10 56.11 72.98 58.16 C 72.24 61.36 72.72 64.69 72.67 67.94 C 69.98 67.97 67.28 68.05 64.58 67.99 C 64.58 61.72 64.58 55.44 64.58 49.16 Z" />
</g>
</svg>
