<?xml version="1.0" encoding="UTF-8" ?>
<!DOCTYPE svg PUBLIC "-//W3C//DTD SVG 1.1//EN" "http://www.w3.org/Graphics/SVG/1.1/DTD/svg11.dtd">
<svg width="117pt" height="140pt" viewBox="0 0 117 140" version="1.1" xmlns="http://www.w3.org/2000/svg">
<g id="#000000ff">
<path fill="#000000" opacity="1.00" d=" M 0.00 0.00 L 117.00 0.00 L 117.00 140.00 L 0.00 140.00 L 0.00 0.00 M 33.23 10.20 C 17.95 11.74 5.16 25.61 5.02 41.00 C 4.97 59.99 5.02 78.99 4.99 97.99 C 4.89 108.29 10.24 118.40 18.70 124.25 C 24.30 128.18 31.18 130.20 38.02 130.03 C 53.04 129.91 68.06 130.13 83.08 129.92 C 98.65 129.26 112.30 115.65 112.92 100.06 C 113.11 80.70 112.95 61.33 113.00 41.96 C 113.10 31.67 107.75 21.59 99.30 15.75 C 93.71 11.83 86.86 9.81 80.04 9.98 C 64.44 10.16 48.82 9.71 33.23 10.20 Z" />
<path fill="#000000" opacity="1.00" d=" M 33.25 12.24 C 49.48 11.72 65.76 12.10 82.01 12.04 C 97.27 12.17 110.86 25.72 110.97 40.99 C 111.04 59.99 110.99 79.00 110.99 98.01 C 111.21 109.82 103.51 121.13 92.66 125.64 C 88.38 127.56 83.64 128.09 78.99 128.00 C 64.33 127.94 49.66 128.11 35.00 127.92 C 20.12 127.27 7.18 113.95 7.03 99.05 C 6.98 79.70 6.99 60.35 7.02 41.00 C 7.19 26.69 19.04 13.77 33.25 12.24 M 61.22 34.19 C 59.84 34.36 58.49 34.66 57.22 35.22 C 53.60 36.80 49.37 38.13 47.43 41.91 C 47.64 43.40 48.02 44.85 48.58 46.25 C 43.10 46.92 38.30 50.17 34.55 54.10 C 41.52 62.12 49.52 69.23 56.92 76.86 C 60.79 73.39 64.29 69.37 65.63 64.22 C 66.00 62.41 67.99 64.39 69.15 64.43 C 71.81 62.03 74.59 59.50 75.87 56.06 C 78.09 50.47 79.62 44.64 81.67 38.99 C 82.93 34.88 80.12 30.76 76.14 29.66 C 71.00 30.44 65.98 32.15 61.22 34.19 Z" />
<path fill="#000000" opacity="1.00" d=" M 66.98 35.10 C 70.09 34.50 72.92 32.32 76.19 32.85 C 78.08 33.64 79.66 35.96 78.78 38.02 C 76.92 44.29 74.64 50.40 72.71 56.64 C 71.74 58.49 70.13 59.91 68.93 61.60 C 67.45 60.15 65.96 58.71 64.47 57.27 C 63.11 62.75 61.77 68.49 57.93 72.82 C 56.87 72.43 55.91 71.82 55.17 70.95 C 50.02 65.67 44.72 60.53 39.55 55.27 C 38.12 54.31 39.82 53.20 40.54 52.53 C 44.58 49.63 49.81 49.16 54.12 47.00 C 52.84 45.49 51.42 44.10 50.05 42.68 C 54.64 38.24 61.26 37.39 66.98 35.10 Z" />
</g>
<g id="#6a6e6aff">
<path fill="#6a6e6a" opacity="1.00" d=" M 33.23 10.20 C 48.82 9.71 64.44 10.16 80.04 9.98 C 86.86 9.81 93.71 11.83 99.30 15.75 C 107.75 21.59 113.10 31.67 113.00 41.96 C 112.95 61.33 113.11 80.70 112.92 100.06 C 112.30 115.65 98.65 129.26 83.08 129.92 C 68.06 130.13 53.04 129.91 38.02 130.03 C 31.18 130.20 24.30 128.18 18.70 124.25 C 10.24 118.40 4.89 108.29 4.99 97.99 C 5.02 78.99 4.97 59.99 5.02 41.00 C 5.16 25.61 17.95 11.74 33.23 10.20 M 33.25 12.24 C 19.04 13.77 7.19 26.69 7.02 41.00 C 6.99 60.35 6.98 79.70 7.03 99.05 C 7.18 113.95 20.12 127.27 35.00 127.92 C 49.66 128.11 64.33 127.94 78.99 128.00 C 83.64 128.09 88.38 127.56 92.66 125.64 C 103.51 121.13 111.21 109.82 110.99 98.01 C 110.99 79.00 111.04 59.99 110.97 40.99 C 110.86 25.72 97.27 12.17 82.01 12.04 C 65.76 12.10 49.48 11.72 33.25 12.24 Z" />
</g>
<g id="#f8fcf8ff">
<path fill="#f8fcf8" opacity="1.00" d=" M 61.22 34.19 C 65.98 32.15 71.00 30.44 76.14 29.66 C 80.12 30.76 82.93 34.88 81.67 38.99 C 79.62 44.64 78.09 50.47 75.87 56.06 C 74.59 59.50 71.81 62.03 69.15 64.43 C 67.99 64.39 66.00 62.41 65.63 64.22 C 64.29 69.37 60.79 73.39 56.92 76.86 C 49.52 69.23 41.52 62.12 34.55 54.10 C 38.30 50.17 43.10 46.92 48.58 46.25 C 48.02 44.85 47.64 43.40 47.43 41.91 C 49.37 38.13 53.60 36.80 57.22 35.22 C 58.49 34.66 59.84 34.36 61.22 34.19 M 66.98 35.10 C 61.26 37.39 54.64 38.24 50.05 42.68 C 51.42 44.10 52.84 45.49 54.12 47.00 C 49.81 49.16 44.58 49.63 40.54 52.53 C 39.82 53.20 38.12 54.31 39.55 55.27 C 44.72 60.53 50.02 65.67 55.17 70.95 C 55.91 71.82 56.87 72.43 57.93 72.82 C 61.77 68.49 63.11 62.75 64.47 57.27 C 65.96 58.71 67.45 60.15 68.93 61.60 C 70.13 59.91 71.74 58.49 72.71 56.64 C 74.64 50.40 76.92 44.29 78.78 38.02 C 79.66 35.96 78.08 33.64 76.19 32.85 C 72.92 32.32 70.09 34.50 66.98 35.10 Z" />
</g>
</svg>
