<?xml version="1.0" encoding="UTF-8" ?>
<!DOCTYPE svg PUBLIC "-//W3C//DTD SVG 1.1//EN" "http://www.w3.org/Graphics/SVG/1.1/DTD/svg11.dtd">
<svg width="117px" height="140px" viewBox="0 0 117 140" version="1.1" xmlns="http://www.w3.org/2000/svg">
<g id="#000000ff">
<path fill="#000000" opacity="1.00" d=" M 0.00 0.00 L 117.00 0.00 L 117.00 140.00 L 0.00 140.00 L 0.00 0.00 M 29.40 10.45 C 15.69 13.30 4.43 25.85 4.00 39.97 C 3.98 59.65 4.02 79.33 3.99 99.01 C 3.84 115.03 18.03 129.60 34.01 130.00 C 50.35 129.99 66.68 130.01 83.01 130.00 C 98.93 129.34 112.82 115.00 112.94 99.05 C 113.03 79.69 113.03 60.33 112.94 40.97 C 112.82 25.34 99.54 11.31 84.03 10.04 C 68.01 9.93 51.98 10.06 35.96 9.98 C 33.77 9.99 31.55 9.97 29.40 10.45 Z" />
<path fill="#000000" opacity="1.00" d=" M 35.16 12.20 C 49.78 11.85 64.43 12.14 79.06 12.06 C 88.54 12.12 98.18 16.27 103.81 24.06 C 107.92 29.47 109.95 36.22 109.99 42.98 C 110.01 60.98 110.01 78.99 109.99 97.00 C 109.94 103.50 108.11 110.01 104.27 115.30 C 98.90 123.17 89.47 127.65 80.05 127.88 C 66.70 128.07 53.35 127.86 40.00 127.97 C 33.58 128.05 26.93 126.99 21.41 123.52 C 12.61 118.34 6.93 108.27 7.07 98.06 C 7.03 79.69 7.06 61.31 7.05 42.94 C 6.97 37.90 7.93 32.79 10.36 28.34 C 14.97 19.01 24.82 12.78 35.16 12.20 M 47.63 40.13 C 46.61 40.83 44.76 41.25 45.02 42.86 C 44.97 53.27 45.02 63.68 44.99 74.09 C 44.70 75.41 45.46 77.10 47.01 76.96 C 54.03 77.05 61.05 77.00 68.07 76.99 C 69.79 77.32 71.22 75.79 70.97 74.10 C 70.92 63.72 71.04 53.34 70.91 42.96 C 71.03 41.36 69.22 40.84 68.16 40.09 C 67.91 36.40 69.17 32.30 67.16 28.94 C 61.08 29.14 55.00 28.83 48.93 29.08 C 46.16 31.80 48.17 36.58 47.63 40.13 Z" />
<path fill="#000000" opacity="1.00" d=" M 49.63 30.72 C 54.87 29.93 60.36 30.45 65.69 30.45 C 67.17 33.40 65.92 37.20 66.33 40.48 C 60.67 40.43 55.02 40.48 49.37 40.44 C 49.55 37.20 49.13 33.93 49.63 30.72 M 52.89 32.62 C 52.94 33.53 53.05 35.33 53.10 36.24 C 54.11 36.23 55.12 36.23 56.13 36.22 C 56.14 35.03 56.15 33.83 56.16 32.64 C 55.07 32.63 53.98 32.62 52.89 32.62 M 58.77 32.64 C 58.77 33.83 58.77 35.01 58.78 36.19 C 59.80 36.22 60.82 36.26 61.84 36.30 C 61.86 35.05 61.85 33.80 61.84 32.55 C 60.82 32.58 59.80 32.61 58.77 32.64 Z" />
<path fill="#000000" opacity="1.00" d=" M 57.59 50.75 C 55.10 49.42 54.96 45.54 58.13 45.10 C 61.44 45.17 61.51 49.44 58.98 50.81 C 58.89 56.96 58.95 63.10 58.94 69.25 C 60.67 69.01 62.94 69.65 64.06 67.90 C 64.53 64.75 64.42 61.50 64.21 58.32 C 63.86 58.05 63.14 57.52 62.78 57.25 C 62.77 55.72 62.78 54.20 62.78 52.68 C 64.39 52.68 66.01 52.68 67.62 52.68 C 67.65 54.27 67.69 55.86 67.73 57.44 C 67.26 57.59 66.33 57.88 65.86 58.02 C 64.97 62.01 67.71 67.80 63.34 70.30 C 60.62 70.99 57.73 70.56 54.95 70.61 C 53.16 70.74 51.66 69.42 50.97 67.87 C 50.54 65.10 50.82 62.28 50.85 59.49 C 50.22 59.46 48.97 59.40 48.34 59.37 C 49.28 57.79 50.17 56.20 51.06 54.60 C 52.02 56.09 52.89 57.63 53.80 59.15 C 53.41 59.31 52.62 59.64 52.22 59.81 C 52.10 62.32 52.21 64.83 52.10 67.35 C 53.31 69.34 55.56 69.37 57.63 69.10 C 57.51 62.98 57.60 56.86 57.59 50.75 Z" />
</g>
<g id="#708cc8ff">
<path fill="#708cc8" opacity="1.00" d=" M 29.40 10.45 C 31.55 9.97 33.77 9.99 35.96 9.98 C 51.98 10.06 68.01 9.93 84.03 10.04 C 99.54 11.31 112.82 25.34 112.94 40.97 C 113.03 60.33 113.03 79.69 112.94 99.05 C 112.82 115.00 98.93 129.34 83.01 130.00 C 66.68 130.01 50.35 129.99 34.01 130.00 C 18.03 129.60 3.84 115.03 3.99 99.01 C 4.02 79.33 3.98 59.65 4.00 39.97 C 4.43 25.85 15.69 13.30 29.40 10.45 M 35.16 12.20 C 24.82 12.78 14.97 19.01 10.36 28.34 C 7.93 32.79 6.97 37.90 7.05 42.94 C 7.06 61.31 7.03 79.69 7.07 98.06 C 6.93 108.27 12.61 118.34 21.41 123.52 C 26.93 126.99 33.58 128.05 40.00 127.97 C 53.35 127.86 66.70 128.07 80.05 127.88 C 89.47 127.65 98.90 123.17 104.27 115.30 C 108.11 110.01 109.94 103.50 109.99 97.00 C 110.01 78.99 110.01 60.98 109.99 42.98 C 109.95 36.22 107.92 29.47 103.81 24.06 C 98.18 16.27 88.54 12.12 79.06 12.06 C 64.43 12.14 49.78 11.85 35.16 12.20 Z" />
</g>
<g id="#f8fcf8ff">
<path fill="#f8fcf8" opacity="1.00" d=" M 47.63 40.13 C 48.17 36.58 46.16 31.80 48.93 29.08 C 55.00 28.83 61.08 29.14 67.16 28.94 C 69.17 32.30 67.91 36.40 68.16 40.09 C 69.22 40.84 71.03 41.36 70.91 42.96 C 71.04 53.34 70.92 63.72 70.97 74.10 C 71.22 75.79 69.79 77.32 68.07 76.99 C 61.05 77.00 54.03 77.05 47.01 76.96 C 45.46 77.10 44.70 75.41 44.99 74.09 C 45.02 63.68 44.97 53.27 45.02 42.86 C 44.76 41.25 46.61 40.83 47.63 40.13 M 49.63 30.72 C 49.13 33.93 49.55 37.20 49.37 40.44 C 55.02 40.48 60.67 40.43 66.33 40.48 C 65.92 37.20 67.17 33.40 65.69 30.45 C 60.36 30.45 54.87 29.93 49.63 30.72 M 57.59 50.75 C 57.60 56.86 57.51 62.98 57.63 69.10 C 55.56 69.37 53.31 69.34 52.10 67.35 C 52.21 64.83 52.10 62.32 52.22 59.81 C 52.62 59.64 53.41 59.31 53.80 59.15 C 52.89 57.63 52.02 56.09 51.06 54.60 C 50.17 56.20 49.28 57.79 48.34 59.37 C 48.97 59.40 50.22 59.46 50.85 59.49 C 50.82 62.28 50.54 65.10 50.97 67.87 C 51.66 69.42 53.16 70.74 54.95 70.61 C 57.73 70.56 60.62 70.99 63.34 70.30 C 67.71 67.80 64.97 62.01 65.86 58.02 C 66.33 57.88 67.26 57.59 67.73 57.44 C 67.69 55.86 67.65 54.27 67.62 52.68 C 66.01 52.68 64.39 52.68 62.78 52.68 C 62.78 54.20 62.77 55.72 62.78 57.25 C 63.14 57.52 63.86 58.05 64.21 58.32 C 64.42 61.50 64.53 64.75 64.06 67.90 C 62.94 69.65 60.67 69.01 58.94 69.25 C 58.95 63.10 58.89 56.96 58.98 50.81 C 61.51 49.44 61.44 45.17 58.13 45.10 C 54.96 45.54 55.10 49.42 57.59 50.75 Z" />
<path fill="#f8fcf8" opacity="1.00" d=" M 52.89 32.62 C 53.98 32.62 55.07 32.63 56.16 32.64 C 56.15 33.83 56.14 35.03 56.13 36.22 C 55.12 36.23 54.11 36.23 53.10 36.24 C 53.05 35.33 52.94 33.53 52.89 32.62 Z" />
<path fill="#f8fcf8" opacity="1.00" d=" M 58.77 32.64 C 59.80 32.61 60.82 32.58 61.84 32.55 C 61.85 33.80 61.86 35.05 61.84 36.30 C 60.82 36.26 59.80 36.22 58.78 36.19 C 58.77 35.01 58.77 33.83 58.77 32.64 Z" />
</g>
</svg>
