<?xml version="1.0" encoding="UTF-8" ?>
<!DOCTYPE svg PUBLIC "-//W3C//DTD SVG 1.1//EN" "http://www.w3.org/Graphics/SVG/1.1/DTD/svg11.dtd">
<svg width="117px" height="140px" viewBox="0 0 117 140" version="1.1" xmlns="http://www.w3.org/2000/svg">
<g id="#000000ff">
<path fill="#000000" opacity="1.00" d=" M 0.00 0.00 L 117.00 0.00 L 117.00 140.00 L 0.00 140.00 L 0.00 0.00 M 33.17 10.22 C 17.95 11.78 5.23 25.57 5.02 40.89 C 4.98 60.27 4.99 79.66 5.01 99.04 C 5.17 114.99 18.98 129.25 34.91 129.93 C 50.61 130.08 66.31 129.98 82.01 129.98 C 95.06 129.78 107.22 120.63 111.33 108.29 C 112.69 104.37 113.12 100.19 113.02 96.05 C 112.98 78.01 113.01 59.97 113.00 41.93 C 113.05 33.31 109.34 24.77 103.08 18.86 C 97.01 12.97 88.52 9.77 80.08 9.98 C 64.45 10.17 48.79 9.70 33.17 10.22 Z" />
<path fill="#000000" opacity="1.00" d=" M 30.51 12.70 C 33.95 11.91 37.49 11.98 40.99 12.00 C 55.00 12.06 69.02 11.89 83.03 12.08 C 97.90 12.74 110.84 26.05 110.96 40.96 C 111.02 60.32 111.03 79.68 110.96 99.04 C 110.86 114.30 97.28 127.85 82.02 127.95 C 66.65 128.04 51.27 128.01 35.90 127.97 C 20.66 127.79 7.13 114.25 7.03 98.99 C 6.98 79.65 6.98 60.30 7.03 40.96 C 7.22 27.64 17.50 15.40 30.51 12.70 M 41.94 41.08 C 39.11 43.97 34.03 45.50 33.53 50.02 C 33.97 54.33 38.77 55.83 41.48 58.55 C 43.38 60.70 46.32 60.86 48.87 59.90 C 49.63 57.33 50.19 54.70 50.04 52.00 C 52.03 52.00 54.01 52.00 56.00 52.00 C 56.00 51.25 56.00 49.75 56.00 49.00 C 54.00 49.00 52.01 49.00 50.01 49.00 C 50.22 45.98 49.80 42.97 48.88 40.09 C 46.55 39.37 43.74 39.02 41.94 41.08 M 68.00 41.23 C 68.00 47.08 68.00 52.92 68.00 58.77 C 70.11 59.67 72.46 61.52 74.73 59.91 C 77.38 57.83 80.13 55.85 82.70 53.65 C 84.99 51.93 84.98 48.06 82.69 46.34 C 80.10 44.13 77.33 42.13 74.65 40.03 C 72.40 38.50 70.07 40.33 68.00 41.23 M 57.00 49.00 C 57.00 49.75 57.00 51.25 57.00 52.00 C 57.75 52.00 59.25 52.00 60.00 52.00 C 60.00 51.25 60.00 49.75 60.00 49.00 C 59.25 49.00 57.75 49.00 57.00 49.00 M 61.00 49.00 C 61.00 49.75 61.00 51.25 61.00 52.00 C 63.00 52.00 65.00 52.00 67.00 52.00 C 67.00 51.25 67.00 49.75 67.00 49.00 C 65.00 49.00 63.00 49.00 61.00 49.00 Z" />
<path fill="#000000" opacity="1.00" d=" M 37.01 50.00 C 40.00 47.66 43.01 45.35 46.00 43.01 C 46.00 47.66 46.01 52.32 45.99 56.97 C 43.00 54.64 40.00 52.33 37.01 50.00 Z" />
<path fill="#000000" opacity="1.00" d=" M 72.00 43.01 C 74.99 45.35 78.00 47.66 80.99 50.00 C 78.00 52.33 75.01 54.65 72.01 56.97 C 71.99 52.31 72.00 47.66 72.00 43.01 Z" />
</g>
<g id="#717271ff">
<path fill="#717271" opacity="1.00" d=" M 33.17 10.22 C 48.79 9.70 64.45 10.17 80.08 9.98 C 88.52 9.77 97.01 12.97 103.08 18.86 C 109.34 24.77 113.05 33.31 113.00 41.93 C 113.01 59.97 112.98 78.01 113.02 96.05 C 113.12 100.19 112.69 104.37 111.33 108.29 C 107.22 120.63 95.06 129.78 82.01 129.98 C 66.31 129.98 50.61 130.08 34.91 129.93 C 18.98 129.25 5.17 114.99 5.01 99.04 C 4.99 79.66 4.98 60.27 5.02 40.89 C 5.23 25.57 17.95 11.78 33.17 10.22 M 30.51 12.70 C 17.50 15.40 7.22 27.64 7.03 40.96 C 6.98 60.30 6.98 79.65 7.03 98.99 C 7.13 114.25 20.66 127.79 35.90 127.97 C 51.27 128.01 66.65 128.04 82.02 127.95 C 97.28 127.85 110.86 114.30 110.96 99.04 C 111.03 79.68 111.02 60.32 110.96 40.96 C 110.84 26.05 97.90 12.74 83.03 12.08 C 69.02 11.89 55.00 12.06 40.99 12.00 C 37.49 11.98 33.95 11.91 30.51 12.70 Z" />
</g>
<g id="#f8fcf8ff">
<path fill="#f8fcf8" opacity="1.00" d=" M 41.94 41.08 C 43.74 39.02 46.55 39.37 48.88 40.09 C 49.80 42.97 50.22 45.98 50.01 49.00 C 52.01 49.00 54.00 49.00 56.00 49.00 C 56.00 49.75 56.00 51.25 56.00 52.00 C 54.01 52.00 52.03 52.00 50.04 52.00 C 50.19 54.70 49.63 57.33 48.87 59.90 C 46.32 60.86 43.38 60.70 41.48 58.55 C 38.77 55.83 33.97 54.33 33.53 50.02 C 34.03 45.50 39.11 43.97 41.94 41.08 M 37.01 50.00 C 40.00 52.33 43.00 54.64 45.99 56.97 C 46.01 52.32 46.00 47.66 46.00 43.01 C 43.01 45.35 40.00 47.66 37.01 50.00 Z" />
<path fill="#f8fcf8" opacity="1.00" d=" M 68.00 41.23 C 70.07 40.33 72.40 38.50 74.65 40.03 C 77.33 42.13 80.10 44.13 82.69 46.34 C 84.98 48.06 84.99 51.93 82.70 53.65 C 80.13 55.85 77.38 57.83 74.73 59.91 C 72.46 61.52 70.11 59.67 68.00 58.77 C 68.00 52.92 68.00 47.08 68.00 41.23 M 72.00 43.01 C 72.00 47.66 71.99 52.31 72.01 56.97 C 75.01 54.65 78.00 52.33 80.99 50.00 C 78.00 47.66 74.99 45.35 72.00 43.01 Z" />
<path fill="#f8fcf8" opacity="1.00" d=" M 57.00 49.00 C 57.75 49.00 59.25 49.00 60.00 49.00 C 60.00 49.75 60.00 51.25 60.00 52.00 C 59.25 52.00 57.75 52.00 57.00 52.00 C 57.00 51.25 57.00 49.75 57.00 49.00 Z" />
<path fill="#f8fcf8" opacity="1.00" d=" M 61.00 49.00 C 63.00 49.00 65.00 49.00 67.00 49.00 C 67.00 49.75 67.00 51.25 67.00 52.00 C 65.00 52.00 63.00 52.00 61.00 52.00 C 61.00 51.25 61.00 49.75 61.00 49.00 Z" />
</g>
</svg>
