<?xml version="1.0" encoding="UTF-8" ?>
<!DOCTYPE svg PUBLIC "-//W3C//DTD SVG 1.1//EN" "http://www.w3.org/Graphics/SVG/1.1/DTD/svg11.dtd">
<svg width="117pt" height="140pt" viewBox="0 0 117 140" version="1.1" xmlns="http://www.w3.org/2000/svg">
<g id="#000000ff">
<path fill="#000000" opacity="1.00" d=" M 0.00 0.00 L 117.00 0.00 L 117.00 140.00 L 0.00 140.00 L 0.00 0.00 M 33.16 10.21 C 17.90 11.78 5.15 25.65 5.01 41.01 C 5.03 60.70 4.93 80.40 5.06 100.08 C 5.75 115.66 19.36 129.28 34.94 129.94 C 50.31 130.09 65.67 129.95 81.04 130.01 C 93.39 130.16 105.30 122.35 110.23 111.05 C 112.24 106.65 113.11 101.79 113.02 96.97 C 112.98 78.65 113.00 60.33 113.01 42.01 C 113.10 32.19 108.27 22.53 100.46 16.60 C 94.69 12.13 87.34 9.80 80.05 9.98 C 64.42 10.17 48.77 9.70 33.16 10.21 Z" />
<path fill="#000000" opacity="1.00" d=" M 30.46 12.72 C 33.92 11.92 37.50 11.98 41.02 12.00 C 55.04 12.06 69.06 11.88 83.07 12.09 C 97.91 12.77 110.81 26.06 110.96 40.94 C 111.03 60.29 111.02 79.64 110.96 98.99 C 110.87 114.26 97.30 127.82 82.04 127.95 C 66.37 128.01 50.69 128.07 35.02 127.92 C 20.13 127.27 7.17 113.95 7.03 99.03 C 6.98 79.68 6.98 60.33 7.03 40.99 C 7.21 27.67 17.47 15.45 30.46 12.72 M 57.18 27.09 C 57.24 34.34 57.26 41.60 57.17 48.85 C 57.96 48.87 59.53 48.91 60.32 48.93 C 60.34 41.62 60.32 34.32 60.33 27.01 C 59.55 27.03 57.97 27.07 57.18 27.09 M 36.79 42.74 C 31.35 51.22 31.85 63.07 38.06 71.02 C 42.88 77.53 51.01 81.42 59.12 80.92 C 66.97 80.72 74.45 76.37 78.76 69.86 C 83.06 63.67 84.01 55.47 81.82 48.33 C 80.06 42.63 76.03 37.86 71.13 34.56 C 70.41 35.37 69.67 36.17 68.90 36.94 C 77.10 41.57 81.57 51.74 79.31 60.89 C 77.69 68.25 71.97 74.50 64.79 76.77 C 57.81 79.14 49.68 77.57 44.06 72.82 C 38.79 68.56 35.79 61.68 36.17 54.92 C 36.44 48.07 40.15 41.45 45.93 37.74 C 48.01 36.90 45.51 35.42 44.82 34.55 C 41.73 36.81 38.79 39.42 36.79 42.74 Z" />
</g>
<g id="#7186b5ff">
<path fill="#7186b5" opacity="1.00" d=" M 33.16 10.21 C 48.77 9.70 64.42 10.17 80.05 9.98 C 87.34 9.80 94.69 12.13 100.46 16.60 C 108.27 22.53 113.10 32.19 113.01 42.01 C 113.00 60.33 112.98 78.65 113.02 96.97 C 113.11 101.79 112.24 106.65 110.23 111.05 C 105.30 122.35 93.39 130.16 81.04 130.01 C 65.67 129.95 50.31 130.09 34.94 129.94 C 19.36 129.28 5.75 115.66 5.06 100.08 C 4.93 80.40 5.03 60.70 5.01 41.01 C 5.15 25.65 17.90 11.78 33.16 10.21 M 30.46 12.72 C 17.47 15.45 7.21 27.67 7.03 40.99 C 6.98 60.33 6.98 79.68 7.03 99.03 C 7.17 113.95 20.13 127.27 35.02 127.92 C 50.69 128.07 66.37 128.01 82.04 127.95 C 97.30 127.82 110.87 114.26 110.96 98.99 C 111.02 79.64 111.03 60.29 110.96 40.94 C 110.81 26.06 97.91 12.77 83.07 12.09 C 69.06 11.88 55.04 12.06 41.02 12.00 C 37.50 11.98 33.92 11.92 30.46 12.72 Z" />
</g>
<g id="#f8fcf8ff">
<path fill="#f8fcf8" opacity="1.00" d=" M 57.18 27.09 C 57.97 27.07 59.55 27.03 60.33 27.01 C 60.32 34.32 60.34 41.62 60.32 48.93 C 59.53 48.91 57.96 48.87 57.17 48.85 C 57.26 41.60 57.24 34.34 57.18 27.09 Z" />
<path fill="#f8fcf8" opacity="1.00" d=" M 36.79 42.74 C 38.79 39.42 41.73 36.81 44.82 34.55 C 45.51 35.42 48.01 36.90 45.93 37.74 C 40.15 41.45 36.44 48.07 36.17 54.92 C 35.79 61.68 38.79 68.56 44.06 72.82 C 49.68 77.57 57.81 79.14 64.79 76.77 C 71.97 74.50 77.69 68.25 79.31 60.89 C 81.57 51.74 77.10 41.57 68.90 36.94 C 69.67 36.17 70.41 35.37 71.13 34.56 C 76.03 37.86 80.06 42.63 81.82 48.33 C 84.01 55.47 83.06 63.67 78.76 69.86 C 74.45 76.37 66.97 80.72 59.12 80.92 C 51.01 81.42 42.88 77.53 38.06 71.02 C 31.85 63.07 31.35 51.22 36.79 42.74 Z" />
</g>
</svg>
