<?xml version="1.0" encoding="UTF-8" ?>
<!DOCTYPE svg PUBLIC "-//W3C//DTD SVG 1.1//EN" "http://www.w3.org/Graphics/SVG/1.1/DTD/svg11.dtd">
<svg width="117pt" height="92pt" viewBox="0 0 117 92" version="1.1" xmlns="http://www.w3.org/2000/svg">
<g id="#000000ff">
<path fill="#000000" opacity="1.00" d=" M 0.00 0.00 L 117.00 0.00 L 117.00 92.00 L 0.00 92.00 L 0.00 0.00 M 32.13 8.19 C 20.92 9.51 10.79 17.16 6.48 27.59 C 2.95 35.27 4.23 43.84 3.99 52.01 C 4.12 68.36 18.61 82.85 34.96 83.01 C 50.33 82.99 65.70 83.01 81.07 83.00 C 93.81 82.75 105.79 74.03 110.07 62.04 C 112.76 55.34 111.85 48.04 112.01 41.01 C 112.28 33.45 109.74 25.80 104.92 19.96 C 98.83 12.18 88.88 7.62 79.01 8.00 C 63.39 8.13 47.74 7.75 32.13 8.19 Z" />
<path fill="#000000" opacity="1.00" d=" M 32.17 10.27 C 47.75 9.66 63.39 10.17 79.00 10.00 C 88.57 9.68 98.21 14.23 103.90 21.96 C 108.04 27.34 110.23 34.15 110.00 40.94 C 109.86 48.41 110.86 56.35 107.35 63.26 C 102.73 73.82 91.60 81.11 80.06 80.99 C 64.67 80.98 49.28 81.06 33.90 80.95 C 19.05 80.15 6.23 66.92 6.01 52.03 C 6.22 43.91 4.92 35.30 8.65 27.74 C 12.79 18.37 21.99 11.49 32.17 10.27 M 37.89 33.82 C 36.99 35.76 37.95 37.73 38.40 39.64 C 45.44 46.69 51.55 54.40 58.80 61.28 C 59.74 62.36 61.41 62.15 62.62 61.77 C 70.17 54.84 76.37 46.84 83.62 39.64 C 84.12 37.76 84.94 35.78 84.13 33.85 C 80.46 33.32 76.69 33.76 72.98 33.61 C 61.29 33.75 49.55 33.34 37.89 33.82 Z" />
<path fill="#000000" opacity="1.00" d=" M 42.03 37.58 C 54.66 37.91 67.35 37.87 79.99 37.60 C 73.51 44.38 67.22 51.25 61.05 58.26 C 54.75 51.38 48.54 44.37 42.03 37.58 Z" />
</g>
<g id="#676b67ff">
<path fill="#676b67" opacity="1.00" d=" M 32.13 8.19 C 47.74 7.75 63.39 8.13 79.01 8.00 C 88.88 7.62 98.83 12.18 104.92 19.96 C 109.74 25.80 112.28 33.45 112.01 41.01 C 111.85 48.04 112.76 55.34 110.07 62.04 C 105.79 74.03 93.81 82.75 81.07 83.00 C 65.70 83.01 50.33 82.99 34.96 83.01 C 18.61 82.85 4.12 68.36 3.99 52.01 C 4.23 43.84 2.95 35.27 6.48 27.59 C 10.79 17.16 20.92 9.51 32.13 8.19 M 32.17 10.27 C 21.99 11.49 12.79 18.37 8.65 27.74 C 4.92 35.30 6.22 43.91 6.01 52.03 C 6.23 66.92 19.05 80.15 33.90 80.95 C 49.28 81.06 64.67 80.98 80.06 80.99 C 91.60 81.11 102.73 73.82 107.35 63.26 C 110.86 56.35 109.86 48.41 110.00 40.94 C 110.23 34.15 108.04 27.34 103.90 21.96 C 98.21 14.23 88.57 9.68 79.00 10.00 C 63.39 10.17 47.75 9.66 32.17 10.27 Z" />
</g>
<g id="#f8fcf8ff">
<path fill="#f8fcf8" opacity="1.00" d=" M 37.89 33.82 C 49.55 33.34 61.29 33.75 72.98 33.61 C 76.69 33.76 80.46 33.32 84.13 33.85 C 84.94 35.78 84.12 37.76 83.62 39.64 C 76.37 46.84 70.17 54.84 62.62 61.77 C 61.41 62.15 59.74 62.36 58.80 61.28 C 51.55 54.40 45.44 46.69 38.40 39.64 C 37.95 37.73 36.99 35.76 37.89 33.82 M 42.03 37.58 C 48.54 44.37 54.75 51.38 61.05 58.26 C 67.22 51.25 73.51 44.38 79.99 37.60 C 67.35 37.87 54.66 37.91 42.03 37.58 Z" />
</g>
</svg>
