<?xml version="1.0" encoding="UTF-8" ?>
<!DOCTYPE svg PUBLIC "-//W3C//DTD SVG 1.1//EN" "http://www.w3.org/Graphics/SVG/1.1/DTD/svg11.dtd">
<svg width="117px" height="140px" viewBox="0 0 117 140" version="1.1" xmlns="http://www.w3.org/2000/svg">
<g id="#000000ff">
<path fill="#000000" opacity="1.00" d=" M 0.00 0.00 L 117.00 0.00 L 117.00 140.00 L 0.00 140.00 L 0.00 0.00 M 32.20 10.32 C 17.37 12.37 5.13 25.90 5.03 40.94 C 4.96 60.31 5.01 79.68 5.00 99.04 C 5.18 114.95 19.01 129.33 34.96 129.93 C 50.64 130.09 66.33 129.98 82.02 129.98 C 98.36 129.91 112.92 115.32 112.98 98.99 C 113.05 80.01 112.96 61.03 113.02 42.04 C 113.12 32.23 108.28 22.55 100.48 16.63 C 94.44 11.92 86.69 9.65 79.06 9.97 C 63.45 10.25 47.79 9.56 32.20 10.32 Z" />
<path fill="#000000" opacity="1.00" d=" M 29.60 12.92 C 34.64 11.74 39.86 12.05 45.00 12.01 C 57.68 12.10 70.36 11.84 83.04 12.13 C 97.96 12.64 110.81 26.14 110.96 40.98 C 111.03 59.99 111.02 79.00 110.97 98.01 C 111.09 109.24 104.28 120.21 94.10 124.98 C 89.74 127.20 84.83 128.08 79.97 127.99 C 65.32 127.98 50.66 128.05 36.01 127.96 C 23.18 127.88 11.48 118.29 8.08 106.05 C 7.06 102.44 7.00 98.65 7.00 94.93 C 7.03 76.96 6.96 58.99 7.03 41.02 C 7.21 28.01 17.03 16.03 29.60 12.92 M 31.72 40.27 C 31.92 45.54 31.58 50.83 31.88 56.11 C 32.27 59.26 35.11 61.09 37.37 62.93 C 41.43 66.05 45.18 69.57 49.26 72.67 C 50.97 74.36 53.01 75.67 54.73 77.35 C 56.80 79.53 60.35 81.15 62.82 78.57 L 63.15 78.40 C 65.60 76.08 68.25 73.99 70.82 71.83 C 74.47 68.83 78.15 65.88 81.72 62.80 C 84.19 61.22 86.35 59.11 87.33 56.28 C 86.99 50.86 87.41 45.44 87.15 40.02 C 85.81 40.27 84.37 40.35 83.24 41.20 C 83.02 41.46 82.57 41.99 82.35 42.25 C 82.05 42.50 81.46 43.01 81.16 43.27 C 77.60 45.96 74.32 49.01 70.76 51.71 C 68.77 53.40 66.80 55.11 64.77 56.75 C 63.18 58.01 61.60 59.28 60.04 60.57 C 58.01 59.77 56.32 58.38 54.50 57.22 L 54.60 56.74 C 50.73 54.23 47.51 50.84 43.81 48.10 C 40.94 45.48 37.59 43.41 34.97 40.52 C 33.89 40.41 32.80 40.33 31.72 40.27 Z" />
</g>
<g id="#6e706eff">
<path fill="#6e706e" opacity="1.00" d=" M 32.20 10.32 C 47.79 9.56 63.45 10.25 79.06 9.97 C 86.69 9.65 94.44 11.92 100.48 16.63 C 108.28 22.55 113.12 32.23 113.02 42.04 C 112.96 61.03 113.05 80.01 112.98 98.99 C 112.92 115.32 98.36 129.91 82.02 129.98 C 66.33 129.98 50.64 130.09 34.96 129.93 C 19.01 129.33 5.18 114.95 5.00 99.04 C 5.01 79.68 4.96 60.31 5.03 40.94 C 5.13 25.90 17.37 12.37 32.20 10.32 M 29.60 12.92 C 17.03 16.03 7.21 28.01 7.03 41.02 C 6.96 58.99 7.03 76.96 7.00 94.93 C 7.00 98.65 7.06 102.44 8.08 106.05 C 11.48 118.29 23.18 127.88 36.01 127.96 C 50.66 128.05 65.32 127.98 79.97 127.99 C 84.83 128.08 89.74 127.20 94.10 124.98 C 104.28 120.21 111.09 109.24 110.97 98.01 C 111.02 79.00 111.03 59.99 110.96 40.98 C 110.81 26.14 97.96 12.64 83.04 12.13 C 70.36 11.84 57.68 12.10 45.00 12.01 C 39.86 12.05 34.64 11.74 29.60 12.92 Z" />
</g>
<g id="#f8fcf8ff">
<path fill="#f8fcf8" opacity="1.00" d=" M 31.72 40.27 C 32.80 40.33 33.89 40.41 34.97 40.52 C 37.59 43.41 40.94 45.48 43.81 48.10 C 47.51 50.84 50.73 54.23 54.60 56.74 L 54.50 57.22 C 56.32 58.38 58.01 59.77 60.04 60.57 C 61.60 59.28 63.18 58.01 64.77 56.75 C 66.80 55.11 68.77 53.40 70.76 51.71 C 74.32 49.01 77.60 45.96 81.16 43.27 C 81.46 43.01 82.05 42.50 82.35 42.25 C 82.57 41.99 83.02 41.46 83.24 41.20 C 84.37 40.35 85.81 40.27 87.15 40.02 C 87.41 45.44 86.99 50.86 87.33 56.28 C 86.35 59.11 84.19 61.22 81.72 62.80 C 78.15 65.88 74.47 68.83 70.82 71.83 C 68.25 73.99 65.60 76.08 63.15 78.40 L 62.82 78.57 C 60.35 81.15 56.80 79.53 54.73 77.35 C 53.01 75.67 50.97 74.36 49.26 72.67 C 45.18 69.57 41.43 66.05 37.37 62.93 C 35.11 61.09 32.27 59.26 31.88 56.11 C 31.58 50.83 31.92 45.54 31.72 40.27 Z" />
</g>
</svg>
