<?xml version="1.0" encoding="UTF-8" ?>
<!DOCTYPE svg PUBLIC "-//W3C//DTD SVG 1.1//EN" "http://www.w3.org/Graphics/SVG/1.1/DTD/svg11.dtd">
<svg width="117pt" height="140pt" viewBox="0 0 117 140" version="1.1" xmlns="http://www.w3.org/2000/svg">
<g id="#384450ff">
<path fill="#384450" opacity="1.00" d=" M 0.00 0.00 L 117.00 0.00 L 117.00 140.00 L 0.00 140.00 L 0.00 0.00 M 41.16 53.20 C 39.90 53.94 39.10 55.37 39.31 56.85 C 39.39 60.04 44.18 61.89 46.10 59.09 C 49.54 56.20 44.59 50.39 41.16 53.20 M 56.52 53.45 C 53.56 55.51 55.48 60.74 58.99 60.42 C 62.10 60.72 64.36 56.22 61.97 53.99 C 60.88 52.22 57.92 52.00 56.52 53.45 M 72.46 53.35 C 67.78 56.24 73.81 63.45 77.47 59.27 C 81.21 56.33 75.94 50.11 72.46 53.35 Z" />
</g>
<g id="#f8fcf8ff">
<path fill="#f8fcf8" opacity="1.00" d=" M 41.16 53.20 C 44.59 50.39 49.54 56.20 46.10 59.09 C 44.18 61.89 39.39 60.04 39.31 56.85 C 39.10 55.37 39.90 53.94 41.16 53.20 Z" />
<path fill="#f8fcf8" opacity="1.00" d=" M 56.52 53.45 C 57.92 52.00 60.88 52.22 61.97 53.99 C 64.36 56.22 62.10 60.72 58.99 60.42 C 55.48 60.74 53.56 55.51 56.52 53.45 Z" />
<path fill="#f8fcf8" opacity="1.00" d=" M 72.46 53.35 C 75.94 50.11 81.21 56.33 77.47 59.27 C 73.81 63.45 67.78 56.24 72.46 53.35 Z" />
</g>
</svg>
