<?xml version="1.0" encoding="UTF-8" ?>
<!DOCTYPE svg PUBLIC "-//W3C//DTD SVG 1.1//EN" "http://www.w3.org/Graphics/SVG/1.1/DTD/svg11.dtd">
<svg width="117px" height="140px" viewBox="0 0 117 140" version="1.1" xmlns="http://www.w3.org/2000/svg">
<g id="#000000ff">
<path fill="#000000" opacity="1.00" d=" M 0.00 0.00 L 117.00 0.00 L 117.00 140.00 L 0.00 140.00 L 0.00 0.00 M 33.21 10.22 C 17.95 11.75 5.20 25.59 5.02 40.93 C 4.96 59.96 5.02 78.98 4.99 98.01 C 4.92 107.13 9.08 116.13 15.96 122.09 C 21.95 127.40 29.99 130.23 37.98 130.02 C 52.99 129.92 68.01 130.12 83.02 129.92 C 98.99 129.30 112.87 114.99 112.97 99.01 C 113.04 79.99 112.98 60.97 113.00 41.95 C 113.05 33.34 109.37 24.82 103.13 18.91 C 97.04 12.97 88.50 9.76 80.02 9.98 C 64.42 10.17 48.80 9.69 33.21 10.22 Z" />
<path fill="#000000" opacity="1.00" d=" M 33.30 12.34 C 44.87 11.72 56.48 12.24 68.07 12.07 C 76.73 12.30 85.97 10.92 93.97 15.06 C 104.14 19.81 111.02 30.72 110.90 41.94 C 110.98 58.96 110.89 75.98 110.94 92.99 C 111.11 99.32 110.79 105.94 107.62 111.59 C 102.77 121.47 92.03 127.96 81.06 127.90 C 66.39 127.96 51.71 127.94 37.04 127.91 C 26.56 127.99 16.21 122.10 11.11 112.92 C 8.24 108.15 6.98 102.57 7.07 97.03 C 7.11 78.32 6.99 59.62 7.13 40.91 C 7.33 26.68 19.13 13.78 33.30 12.34 M 49.01 15.33 C 48.97 17.31 48.96 19.29 48.95 21.27 C 51.76 21.33 54.58 21.32 57.39 21.38 C 57.30 21.81 57.13 22.67 57.04 23.10 C 54.37 23.10 51.69 23.10 49.01 23.13 C 48.98 24.60 48.96 26.07 48.94 27.53 C 44.29 27.50 39.65 27.52 35.00 27.51 L 35.00 29.00 C 39.66 29.00 44.32 28.99 48.98 29.01 C 48.97 29.70 48.95 31.06 48.94 31.75 C 44.30 31.73 39.65 31.74 35.00 31.74 L 35.00 33.45 C 39.65 33.45 44.30 33.47 48.95 33.43 C 48.97 36.77 48.97 40.11 48.95 43.45 C 51.69 43.52 54.43 43.53 57.17 43.52 C 57.16 45.57 57.15 47.62 57.16 49.67 C 57.63 49.95 58.58 50.51 59.06 50.79 C 58.77 53.61 59.47 56.34 60.21 59.04 C 60.52 63.87 60.20 68.72 60.36 73.56 C 59.81 73.59 58.72 73.66 58.17 73.69 C 58.40 68.11 57.73 62.48 58.69 56.94 C 55.31 57.88 51.33 57.97 48.85 60.79 C 45.87 63.66 45.77 68.04 44.95 71.83 C 43.03 78.28 41.77 84.92 39.40 91.24 C 42.91 93.45 46.16 96.24 50.00 97.83 C 56.33 97.97 62.70 98.12 69.02 97.74 C 72.51 95.98 75.60 93.50 79.00 91.55 C 76.78 82.61 73.80 73.84 72.17 64.78 C 70.96 60.05 66.15 57.87 61.69 57.41 C 60.86 55.40 60.31 53.29 60.69 51.11 C 61.36 50.74 62.68 49.99 63.35 49.62 C 63.33 47.57 63.32 45.52 63.29 43.47 C 66.08 43.53 68.87 43.54 71.66 43.44 C 71.68 40.10 71.69 36.77 71.64 33.43 C 75.76 33.46 79.89 33.44 84.01 33.46 C 83.99 33.02 83.95 32.14 83.93 31.71 C 79.82 31.76 75.72 31.74 71.61 31.74 C 71.63 31.06 71.68 29.68 71.70 29.00 C 75.94 28.98 80.19 29.07 84.43 28.93 C 84.21 28.60 83.77 27.93 83.55 27.59 C 79.59 27.36 75.61 27.57 71.64 27.54 C 71.65 26.07 71.65 24.60 71.65 23.14 C 68.95 23.09 66.25 23.09 63.56 23.15 C 63.42 22.70 63.16 21.79 63.03 21.34 C 65.92 21.34 68.81 21.38 71.69 21.12 C 71.68 19.19 71.67 17.26 71.63 15.33 C 64.09 15.27 56.55 15.28 49.01 15.33 M 14.43 102.93 C 14.43 105.94 14.43 108.95 14.42 111.96 C 14.86 111.98 15.75 112.01 16.19 112.02 C 16.17 111.32 16.14 109.92 16.12 109.22 C 18.16 109.07 20.99 108.86 20.65 106.06 C 21.04 102.35 16.86 103.01 14.43 102.93 M 21.43 102.91 C 21.43 106.07 21.40 109.24 21.50 112.40 C 23.10 111.80 23.78 110.52 23.53 108.55 C 24.98 109.85 25.85 111.95 27.93 112.40 C 27.61 111.55 26.96 109.85 26.64 109.01 C 27.23 107.57 28.13 105.92 27.32 104.38 C 26.39 102.13 23.29 103.35 21.43 102.91 M 28.43 102.96 C 28.43 105.98 28.43 109.01 28.43 112.04 C 30.74 112.01 33.06 112.08 35.36 111.76 C 33.71 111.04 31.92 110.95 30.15 110.86 C 30.15 110.21 30.14 108.89 30.13 108.23 C 31.63 108.01 33.13 107.78 34.57 107.33 C 33.47 107.20 31.25 106.96 30.15 106.83 C 30.15 106.16 30.15 104.83 30.15 104.16 C 31.91 104.05 33.71 103.96 35.36 103.28 C 33.07 102.92 30.75 102.98 28.43 102.96 M 36.34 104.36 C 34.42 106.49 35.42 110.02 37.87 111.26 C 39.32 112.25 41.08 111.52 42.62 111.18 C 43.21 111.45 44.40 111.98 44.99 112.24 C 44.98 110.83 44.97 109.41 44.96 108.00 C 45.80 108.00 47.49 108.00 48.33 108.00 C 48.32 109.33 48.32 110.65 48.31 111.98 C 48.73 111.99 49.55 112.00 49.96 112.01 C 49.96 109.00 49.96 106.00 49.96 102.99 C 49.55 103.00 48.73 103.01 48.31 103.02 C 48.32 104.35 48.32 105.67 48.33 107.00 C 47.49 107.00 45.80 107.00 44.96 107.00 C 44.96 105.66 44.96 104.32 44.96 102.98 C 44.54 103.00 43.72 103.02 43.30 103.04 C 43.31 105.60 43.33 108.16 43.41 110.72 C 41.12 110.08 38.16 110.25 36.95 107.76 C 36.83 105.05 39.51 103.88 41.86 104.21 C 41.89 103.91 41.94 103.31 41.97 103.01 C 40.06 103.17 37.61 102.49 36.34 104.36 M 51.29 112.18 C 54.01 110.80 57.00 110.80 59.72 112.18 C 58.36 109.03 57.02 105.88 55.63 102.74 C 53.94 105.78 52.66 109.00 51.29 112.18 M 60.30 103.03 C 60.41 105.42 60.01 107.90 60.68 110.23 C 61.45 112.54 64.57 112.25 66.37 111.45 C 68.12 108.98 67.35 105.81 67.52 103.00 L 65.69 103.00 C 65.38 105.52 66.44 108.62 64.84 110.76 C 60.58 111.62 62.30 105.49 61.94 102.98 C 61.53 103.00 60.71 103.02 60.30 103.03 M 68.43 102.98 C 68.43 106.13 68.40 109.28 68.50 112.44 C 70.82 112.13 70.04 109.82 70.23 108.23 C 71.70 108.03 73.13 107.71 74.54 107.26 C 73.45 107.16 71.26 106.96 70.16 106.86 C 70.15 106.19 70.15 104.84 70.14 104.17 C 71.93 104.00 73.72 103.79 75.50 103.52 C 75.42 106.33 75.43 109.14 75.41 111.95 C 75.85 111.97 76.74 112.01 77.18 112.03 C 77.17 110.73 77.16 109.43 77.14 108.13 C 78.61 108.05 80.07 107.91 81.52 107.70 C 80.10 107.20 78.61 106.98 77.13 106.77 C 77.14 106.11 77.15 104.79 77.15 104.14 C 78.91 104.04 80.70 103.97 82.36 103.28 C 77.74 102.75 73.07 103.17 68.43 102.98 M 82.29 112.18 C 85.02 110.80 87.99 110.80 90.73 112.19 C 89.37 109.03 88.02 105.88 86.60 102.75 C 84.95 105.79 83.65 109.00 82.29 112.18 M 92.55 104.37 C 90.94 106.10 90.93 108.91 92.56 110.63 C 94.04 112.43 96.64 112.13 98.68 111.72 C 98.90 110.48 99.07 109.24 99.19 107.99 C 97.54 107.97 95.89 107.99 94.25 108.05 C 95.00 108.38 96.50 109.05 97.25 109.39 C 97.21 109.88 97.13 110.86 97.09 111.35 C 93.60 111.08 92.62 107.61 93.78 104.76 C 95.45 104.36 97.15 104.43 98.83 104.75 L 98.72 103.00 C 96.69 103.24 93.97 102.42 92.55 104.37 M 99.43 102.95 C 99.44 105.98 99.48 109.01 99.44 112.04 C 101.74 112.01 104.05 112.08 106.33 111.77 C 104.70 111.03 102.91 110.95 101.15 110.86 C 101.15 110.21 101.14 108.90 101.13 108.24 C 102.62 108.00 104.11 107.76 105.52 107.23 C 104.43 107.14 102.25 106.96 101.16 106.88 C 101.16 106.18 101.15 104.80 101.15 104.10 C 102.90 104.06 104.64 103.94 106.37 103.74 C 104.19 102.72 101.75 103.01 99.43 102.95 M 49.42 114.94 C 49.43 117.95 49.43 120.95 49.42 123.96 C 49.86 123.97 50.74 124.01 51.18 124.02 C 51.17 123.27 51.17 121.76 51.17 121.00 C 52.14 121.00 54.07 121.00 55.03 121.00 L 54.23 120.11 C 54.83 119.95 56.03 119.64 56.63 119.48 C 56.56 120.61 56.41 122.85 56.34 123.98 C 61.23 125.04 66.12 121.70 70.72 124.19 C 69.37 121.04 68.02 117.88 66.62 114.75 C 65.07 117.51 63.83 120.43 62.80 123.42 C 61.25 123.19 59.70 123.00 58.14 122.83 C 58.18 120.14 58.19 117.44 58.17 114.75 C 56.95 115.01 55.87 115.60 55.03 116.53 C 54.53 113.91 51.27 115.41 49.42 114.94 Z" />
<path fill="#000000" opacity="1.00" d=" M 58.98 21.33 C 59.94 19.83 62.53 21.39 61.36 22.87 C 60.40 24.33 57.77 22.83 58.98 21.33 Z" />
<path fill="#000000" opacity="1.00" d=" M 50.47 24.71 C 57.02 24.77 63.56 24.73 70.10 24.74 C 70.09 30.49 70.10 36.25 70.10 42.00 C 63.56 42.00 57.02 42.00 50.49 42.00 C 50.48 36.24 50.50 30.47 50.47 24.71 Z" />
<path fill="#000000" opacity="1.00" d=" M 59.01 43.46 C 59.57 43.48 60.70 43.52 61.27 43.54 C 61.23 45.39 61.21 47.24 61.16 49.10 C 58.08 48.87 59.14 45.58 59.01 43.46 Z" />
<path fill="#000000" opacity="1.00" d=" M 50.02 62.02 C 51.64 60.17 54.19 59.82 56.42 59.17 C 56.42 62.20 56.41 65.22 56.43 68.24 C 53.20 68.18 49.99 68.56 46.96 69.71 C 47.70 67.07 47.97 64.04 50.02 62.02 Z" />
<path fill="#000000" opacity="1.00" d=" M 61.96 59.28 C 64.20 59.69 66.61 60.07 68.32 61.72 C 70.47 63.77 70.98 66.85 71.65 69.61 C 68.52 68.57 65.25 68.18 61.96 68.23 C 61.96 65.24 61.96 62.26 61.96 59.28 Z" />
<path fill="#000000" opacity="1.00" d=" M 45.54 73.64 C 47.97 70.03 52.51 69.96 56.39 69.78 C 56.41 70.69 56.45 72.52 56.46 73.43 C 52.86 72.38 49.07 72.07 45.54 73.64 Z" />
<path fill="#000000" opacity="1.00" d=" M 61.97 69.82 C 65.94 69.82 70.46 70.12 73.01 73.62 C 69.42 72.19 65.61 72.36 61.95 73.42 C 61.95 72.52 61.97 70.72 61.97 69.82 Z" />
<path fill="#000000" opacity="1.00" d=" M 47.34 75.27 C 49.84 73.19 53.06 74.59 55.86 75.08 C 59.90 76.17 64.00 74.85 67.92 73.90 C 71.87 74.26 73.06 78.08 74.16 81.26 C 71.97 84.51 70.61 88.19 69.51 91.92 C 66.68 91.59 65.06 88.39 62.90 86.71 C 62.62 84.68 61.53 81.79 58.97 82.24 C 56.55 82.22 56.14 84.92 55.76 86.73 C 53.55 88.75 51.33 90.75 49.20 92.87 C 48.40 88.70 46.67 84.80 44.47 81.19 C 45.34 79.19 45.87 76.94 47.34 75.27 M 49.35 81.56 C 51.80 82.99 55.28 83.39 57.63 81.57 C 58.18 79.89 57.91 78.10 57.87 76.38 C 55.77 75.61 53.34 74.61 51.16 75.72 C 49.13 76.84 48.37 79.50 49.35 81.56 M 61.30 76.30 C 60.02 77.39 60.06 79.38 60.66 80.81 C 62.07 83.39 65.59 82.95 67.93 82.22 C 70.34 81.67 70.21 78.72 68.95 77.14 C 67.38 74.54 63.56 74.84 61.30 76.30 Z" />
<path fill="#000000" opacity="1.00" d=" M 57.52 87.28 C 57.79 85.88 58.27 84.54 58.90 83.26 C 59.92 84.22 61.42 85.07 61.05 86.73 C 60.17 86.87 58.40 87.15 57.52 87.28 Z" />
<path fill="#000000" opacity="1.00" d=" M 70.56 94.82 C 71.52 90.85 72.81 86.96 74.81 83.37 C 75.61 85.79 76.39 88.22 77.21 90.64 C 74.97 92.00 72.78 93.44 70.56 94.82 Z" />
<path fill="#000000" opacity="1.00" d=" M 41.46 90.68 C 42.12 88.28 42.91 85.91 43.86 83.61 C 45.89 87.11 47.17 90.97 47.94 94.93 C 45.83 93.44 43.67 92.02 41.46 90.68 Z" />
<path fill="#000000" opacity="1.00" d=" M 49.94 94.36 C 51.57 93.85 52.13 94.40 51.64 96.03 C 50.01 96.53 49.44 95.98 49.94 94.36 Z" />
<path fill="#000000" opacity="1.00" d=" M 67.00 94.35 C 68.63 93.87 69.18 94.43 68.66 96.05 C 67.02 96.53 66.47 95.96 67.00 94.35 Z" />
<path fill="#000000" opacity="1.00" d=" M 16.21 103.63 C 17.07 104.39 19.24 104.41 18.94 105.98 C 19.47 107.62 17.07 107.60 16.22 108.38 C 16.20 106.80 16.19 105.21 16.21 103.63 Z" />
<path fill="#000000" opacity="1.00" d=" M 23.21 103.63 C 24.08 104.38 26.26 104.42 25.94 106.01 C 26.48 107.66 24.06 107.58 23.22 108.34 C 23.20 106.77 23.19 105.20 23.21 103.63 Z" />
<path fill="#000000" opacity="1.00" d=" M 55.24 107.39 C 56.97 107.10 57.21 110.78 55.23 110.24 C 53.96 109.85 54.27 107.92 55.24 107.39 Z" />
<path fill="#000000" opacity="1.00" d=" M 86.23 107.40 C 87.65 107.13 88.25 109.89 86.81 110.25 C 85.09 110.62 84.99 107.99 86.23 107.40 Z" />
<path fill="#000000" opacity="1.00" d=" M 66.22 119.40 C 67.95 119.07 68.23 122.77 66.23 122.24 C 64.97 121.86 65.26 119.94 66.22 119.40 Z" />
</g>
<g id="#717171ff">
<path fill="#717171" opacity="1.00" d=" M 33.21 10.22 C 48.80 9.69 64.42 10.17 80.02 9.98 C 88.50 9.76 97.04 12.97 103.13 18.91 C 109.37 24.82 113.05 33.34 113.00 41.95 C 112.98 60.97 113.04 79.99 112.97 99.01 C 112.87 114.99 98.99 129.30 83.02 129.92 C 68.01 130.12 52.99 129.92 37.98 130.02 C 29.99 130.23 21.95 127.40 15.96 122.09 C 9.08 116.13 4.92 107.13 4.99 98.01 C 5.02 78.98 4.96 59.96 5.02 40.93 C 5.20 25.59 17.95 11.75 33.21 10.22 M 33.30 12.34 C 19.13 13.78 7.33 26.68 7.13 40.91 C 6.99 59.62 7.11 78.32 7.07 97.03 C 6.98 102.57 8.24 108.15 11.11 112.92 C 16.21 122.10 26.56 127.99 37.04 127.91 C 51.71 127.94 66.39 127.96 81.06 127.90 C 92.03 127.96 102.77 121.47 107.62 111.59 C 110.79 105.94 111.11 99.32 110.94 92.99 C 110.89 75.98 110.98 58.96 110.90 41.94 C 111.02 30.72 104.14 19.81 93.97 15.06 C 85.97 10.92 76.73 12.30 68.07 12.07 C 56.48 12.24 44.87 11.72 33.30 12.34 Z" />
</g>
<g id="#f8fcf8ff">
<path fill="#f8fcf8" opacity="1.00" d=" M 49.01 15.33 C 56.55 15.28 64.09 15.27 71.63 15.33 C 71.67 17.26 71.68 19.19 71.69 21.12 C 68.81 21.38 65.92 21.34 63.03 21.34 C 63.16 21.79 63.42 22.70 63.56 23.15 C 66.25 23.09 68.95 23.09 71.65 23.14 C 71.65 24.60 71.65 26.07 71.64 27.54 C 75.61 27.57 79.59 27.36 83.55 27.59 C 83.77 27.93 84.21 28.60 84.43 28.93 C 80.19 29.07 75.94 28.98 71.70 29.00 C 71.68 29.68 71.63 31.06 71.61 31.74 C 75.72 31.74 79.82 31.76 83.93 31.71 C 83.95 32.14 83.99 33.02 84.01 33.46 C 79.89 33.44 75.76 33.46 71.64 33.43 C 71.69 36.77 71.68 40.10 71.66 43.44 C 68.87 43.54 66.08 43.53 63.29 43.47 C 63.32 45.52 63.33 47.57 63.35 49.62 C 62.68 49.99 61.36 50.74 60.69 51.11 C 60.31 53.29 60.86 55.40 61.69 57.41 C 66.15 57.87 70.96 60.05 72.17 64.78 C 73.80 73.84 76.78 82.61 79.00 91.55 C 75.60 93.50 72.51 95.98 69.02 97.74 C 62.70 98.12 56.33 97.97 50.00 97.83 C 46.16 96.24 42.91 93.45 39.40 91.24 C 41.77 84.92 43.03 78.28 44.95 71.83 C 45.77 68.04 45.87 63.66 48.85 60.79 C 51.33 57.97 55.31 57.88 58.69 56.94 C 57.73 62.48 58.40 68.11 58.17 73.69 C 58.72 73.66 59.81 73.59 60.36 73.56 C 60.20 68.72 60.52 63.87 60.21 59.04 C 59.47 56.34 58.77 53.61 59.06 50.79 C 58.58 50.51 57.63 49.95 57.16 49.67 C 57.15 47.62 57.16 45.57 57.17 43.52 C 54.43 43.53 51.69 43.52 48.95 43.45 C 48.97 40.11 48.97 36.77 48.95 33.43 C 44.30 33.47 39.65 33.45 35.00 33.45 L 35.00 31.74 C 39.65 31.74 44.30 31.73 48.94 31.75 C 48.95 31.06 48.97 29.70 48.98 29.01 C 44.32 28.99 39.66 29.00 35.00 29.00 L 35.00 27.51 C 39.65 27.52 44.29 27.50 48.94 27.53 C 48.96 26.07 48.98 24.60 49.01 23.13 C 51.69 23.10 54.37 23.10 57.04 23.10 C 57.13 22.67 57.30 21.81 57.39 21.38 C 54.58 21.32 51.76 21.33 48.95 21.27 C 48.96 19.29 48.97 17.31 49.01 15.33 M 50.34 16.97 C 50.34 17.64 50.36 19.00 50.37 19.67 C 56.90 19.64 63.43 19.61 69.96 19.69 C 70.00 18.99 70.09 17.60 70.13 16.91 C 63.53 16.94 56.93 16.86 50.34 16.97 M 58.98 21.33 C 57.77 22.83 60.40 24.33 61.36 22.87 C 62.53 21.39 59.94 19.83 58.98 21.33 M 50.47 24.71 C 50.50 30.47 50.48 36.24 50.49 42.00 C 57.02 42.00 63.56 42.00 70.10 42.00 C 70.10 36.25 70.09 30.49 70.10 24.74 C 63.56 24.73 57.02 24.77 50.47 24.71 M 59.01 43.46 C 59.14 45.58 58.08 48.87 61.16 49.10 C 61.21 47.24 61.23 45.39 61.27 43.54 C 60.70 43.52 59.57 43.48 59.01 43.46 M 50.02 62.02 C 47.97 64.04 47.70 67.07 46.96 69.71 C 49.99 68.56 53.20 68.18 56.43 68.24 C 56.41 65.22 56.42 62.20 56.42 59.17 C 54.19 59.82 51.64 60.17 50.02 62.02 M 61.96 59.28 C 61.96 62.26 61.96 65.24 61.96 68.23 C 65.25 68.18 68.52 68.57 71.65 69.61 C 70.98 66.85 70.47 63.77 68.32 61.72 C 66.61 60.07 64.20 59.69 61.96 59.28 M 45.54 73.64 C 49.07 72.07 52.86 72.38 56.46 73.43 C 56.45 72.52 56.41 70.69 56.39 69.78 C 52.51 69.96 47.97 70.03 45.54 73.64 M 61.97 69.82 C 61.97 70.72 61.95 72.52 61.95 73.42 C 65.61 72.36 69.42 72.19 73.01 73.62 C 70.46 70.12 65.94 69.82 61.97 69.82 M 47.34 75.27 C 45.87 76.94 45.34 79.19 44.47 81.19 C 46.67 84.80 48.40 88.70 49.20 92.87 C 51.33 90.75 53.55 88.75 55.76 86.73 C 56.14 84.92 56.55 82.22 58.97 82.24 C 61.53 81.79 62.62 84.68 62.90 86.71 C 65.06 88.39 66.68 91.59 69.51 91.92 C 70.61 88.19 71.97 84.51 74.16 81.26 C 73.06 78.08 71.87 74.26 67.92 73.90 C 64.00 74.85 59.90 76.17 55.86 75.08 C 53.06 74.59 49.84 73.19 47.34 75.27 M 57.52 87.28 C 58.40 87.15 60.17 86.87 61.05 86.73 C 61.42 85.07 59.92 84.22 58.90 83.26 C 58.27 84.54 57.79 85.88 57.52 87.28 M 70.56 94.82 C 72.78 93.44 74.97 92.00 77.21 90.64 C 76.39 88.22 75.61 85.79 74.81 83.37 C 72.81 86.96 71.52 90.85 70.56 94.82 M 41.46 90.68 C 43.67 92.02 45.83 93.44 47.94 94.93 C 47.17 90.97 45.89 87.11 43.86 83.61 C 42.91 85.91 42.12 88.28 41.46 90.68 M 51.98 92.38 C 52.98 94.00 53.99 95.61 55.13 97.14 C 55.59 94.99 54.23 91.76 56.76 90.60 C 56.66 91.83 56.48 94.30 56.38 95.53 C 57.59 95.95 58.86 95.81 60.02 95.30 L 58.32 94.57 C 58.34 93.46 58.39 91.23 58.41 90.11 L 59.85 90.00 C 58.80 89.32 57.74 88.67 56.67 88.04 C 55.14 89.52 53.57 90.97 51.98 92.38 M 60.36 95.80 C 60.64 95.82 61.22 95.87 61.50 95.90 C 61.46 93.95 61.56 91.92 63.03 90.41 C 63.50 92.59 63.05 94.90 63.85 97.00 C 64.80 95.46 65.67 93.89 66.58 92.33 C 64.57 90.75 62.90 88.37 60.14 88.13 C 60.13 90.66 59.45 93.38 60.36 95.80 M 49.94 94.36 C 49.44 95.98 50.01 96.53 51.64 96.03 C 52.13 94.40 51.57 93.85 49.94 94.36 M 67.00 94.35 C 66.47 95.96 67.02 96.53 68.66 96.05 C 69.18 94.43 68.63 93.87 67.00 94.35 Z" />
<path fill="#f8fcf8" opacity="1.00" d=" M 49.35 81.56 C 48.37 79.50 49.13 76.84 51.16 75.72 C 53.34 74.61 55.77 75.61 57.87 76.38 C 57.91 78.10 58.18 79.89 57.63 81.57 C 55.28 83.39 51.80 82.99 49.35 81.56 M 52.05 76.96 C 51.05 77.88 50.65 79.22 50.06 80.40 C 51.98 80.79 53.96 81.45 55.91 80.84 C 56.36 79.77 56.54 78.62 56.78 77.50 C 55.23 77.19 53.65 76.76 52.05 76.96 Z" />
<path fill="#f8fcf8" opacity="1.00" d=" M 61.30 76.30 C 63.56 74.84 67.38 74.54 68.95 77.14 C 70.21 78.72 70.34 81.67 67.93 82.22 C 65.59 82.95 62.07 83.39 60.66 80.81 C 60.06 79.38 60.02 77.39 61.30 76.30 M 61.98 78.03 C 61.04 82.23 66.38 81.27 68.70 80.17 C 68.02 77.18 64.12 75.48 61.98 78.03 Z" />
</g>
<g id="#303430ff">
<path fill="#303430" opacity="1.00" d=" M 50.34 16.97 C 56.93 16.86 63.53 16.94 70.13 16.91 C 70.09 17.60 70.00 18.99 69.96 19.69 C 63.43 19.61 56.90 19.64 50.37 19.67 C 50.36 19.00 50.34 17.64 50.34 16.97 Z" />
<path fill="#303430" opacity="1.00" d=" M 52.05 76.96 C 53.65 76.76 55.23 77.19 56.78 77.50 C 56.54 78.62 56.36 79.77 55.91 80.84 C 53.96 81.45 51.98 80.79 50.06 80.40 C 50.65 79.22 51.05 77.88 52.05 76.96 Z" />
<path fill="#303430" opacity="1.00" d=" M 61.98 78.03 C 64.12 75.48 68.02 77.18 68.70 80.17 C 66.38 81.27 61.04 82.23 61.98 78.03 Z" />
<path fill="#303430" opacity="1.00" d=" M 60.36 95.80 C 59.45 93.38 60.13 90.66 60.14 88.13 C 62.90 88.37 64.57 90.75 66.58 92.33 C 65.67 93.89 64.80 95.46 63.85 97.00 C 63.05 94.90 63.50 92.59 63.03 90.41 C 61.56 91.92 61.46 93.95 61.50 95.90 C 61.22 95.87 60.64 95.82 60.36 95.80 Z" />
</g>
<g id="#3b3d39ff">
<path fill="#3b3d39" opacity="1.00" d=" M 51.98 92.38 C 53.57 90.97 55.14 89.52 56.67 88.04 C 57.74 88.67 58.80 89.32 59.85 90.00 L 58.41 90.11 C 58.39 91.23 58.34 93.46 58.32 94.57 L 60.02 95.30 C 58.86 95.81 57.59 95.95 56.38 95.53 C 56.48 94.30 56.66 91.83 56.76 90.60 C 54.23 91.76 55.59 94.99 55.13 97.14 C 53.99 95.61 52.98 94.00 51.98 92.38 Z" />
</g>
<g id="#e0e4e0ff">
<path fill="#e0e4e0" opacity="1.00" d=" M 14.43 102.93 C 16.86 103.01 21.04 102.35 20.65 106.06 C 20.99 108.86 18.16 109.07 16.12 109.22 C 16.14 109.92 16.17 111.32 16.19 112.02 C 15.75 112.01 14.86 111.98 14.42 111.96 C 14.43 108.95 14.43 105.94 14.43 102.93 M 16.21 103.63 C 16.19 105.21 16.20 106.80 16.22 108.38 C 17.07 107.60 19.47 107.62 18.94 105.98 C 19.24 104.41 17.07 104.39 16.21 103.63 Z" />
<path fill="#e0e4e0" opacity="1.00" d=" M 21.43 102.91 C 23.29 103.35 26.39 102.13 27.32 104.38 C 28.13 105.92 27.23 107.57 26.64 109.01 C 26.96 109.85 27.61 111.55 27.93 112.40 C 25.85 111.95 24.98 109.85 23.53 108.55 C 23.78 110.52 23.10 111.80 21.50 112.40 C 21.40 109.24 21.43 106.07 21.43 102.91 M 23.21 103.63 C 23.19 105.20 23.20 106.77 23.22 108.34 C 24.06 107.58 26.48 107.66 25.94 106.01 C 26.26 104.42 24.08 104.38 23.21 103.63 Z" />
<path fill="#e0e4e0" opacity="1.00" d=" M 28.43 102.96 C 30.75 102.98 33.07 102.92 35.36 103.28 C 33.71 103.96 31.91 104.05 30.15 104.16 C 30.15 104.83 30.15 106.16 30.15 106.83 C 31.25 106.96 33.47 107.20 34.57 107.33 C 33.13 107.78 31.63 108.01 30.13 108.23 C 30.14 108.89 30.15 110.21 30.15 110.86 C 31.92 110.95 33.71 111.04 35.36 111.76 C 33.06 112.08 30.74 112.01 28.43 112.04 C 28.43 109.01 28.43 105.98 28.43 102.96 Z" />
<path fill="#e0e4e0" opacity="1.00" d=" M 36.34 104.36 C 37.61 102.49 40.06 103.17 41.97 103.01 C 41.94 103.31 41.89 103.91 41.86 104.21 C 39.51 103.88 36.83 105.05 36.95 107.76 C 38.16 110.25 41.12 110.08 43.41 110.72 C 43.33 108.16 43.31 105.60 43.30 103.04 C 43.72 103.02 44.54 103.00 44.96 102.98 C 44.96 104.32 44.96 105.66 44.96 107.00 C 45.80 107.00 47.49 107.00 48.33 107.00 C 48.32 105.67 48.32 104.35 48.31 103.02 C 48.73 103.01 49.55 103.00 49.96 102.99 C 49.96 106.00 49.96 109.00 49.96 112.01 C 49.55 112.00 48.73 111.99 48.31 111.98 C 48.32 110.65 48.32 109.33 48.33 108.00 C 47.49 108.00 45.80 108.00 44.96 108.00 C 44.97 109.41 44.98 110.83 44.99 112.24 C 44.40 111.98 43.21 111.45 42.62 111.18 C 41.08 111.52 39.32 112.25 37.87 111.26 C 35.42 110.02 34.42 106.49 36.34 104.36 Z" />
<path fill="#e0e4e0" opacity="1.00" d=" M 51.29 112.18 C 52.66 109.00 53.94 105.78 55.63 102.74 C 57.02 105.88 58.36 109.03 59.72 112.18 C 57.00 110.80 54.01 110.80 51.29 112.18 M 55.24 107.39 C 54.27 107.92 53.96 109.85 55.23 110.24 C 57.21 110.78 56.97 107.10 55.24 107.39 Z" />
<path fill="#e0e4e0" opacity="1.00" d=" M 60.30 103.03 C 60.71 103.02 61.53 103.00 61.94 102.98 C 62.30 105.49 60.58 111.62 64.84 110.76 C 66.44 108.62 65.38 105.52 65.69 103.00 L 67.52 103.00 C 67.35 105.81 68.12 108.98 66.37 111.45 C 64.57 112.25 61.45 112.54 60.68 110.23 C 60.01 107.90 60.41 105.42 60.30 103.03 Z" />
<path fill="#e0e4e0" opacity="1.00" d=" M 68.43 102.98 C 73.07 103.17 77.74 102.75 82.36 103.28 C 80.70 103.97 78.91 104.04 77.15 104.14 C 77.15 104.79 77.14 106.11 77.13 106.77 C 78.61 106.98 80.10 107.20 81.52 107.70 C 80.07 107.91 78.61 108.05 77.14 108.13 C 77.16 109.43 77.17 110.73 77.18 112.03 C 76.74 112.01 75.85 111.97 75.41 111.95 C 75.43 109.14 75.42 106.33 75.50 103.52 C 73.72 103.79 71.93 104.00 70.14 104.17 C 70.15 104.84 70.15 106.19 70.16 106.86 C 71.26 106.96 73.45 107.16 74.54 107.26 C 73.13 107.71 71.70 108.03 70.23 108.23 C 70.04 109.82 70.82 112.13 68.50 112.44 C 68.40 109.28 68.43 106.13 68.43 102.98 Z" />
<path fill="#e0e4e0" opacity="1.00" d=" M 82.29 112.18 C 83.65 109.00 84.95 105.79 86.60 102.75 C 88.02 105.88 89.37 109.03 90.73 112.19 C 87.99 110.80 85.02 110.80 82.29 112.18 M 86.23 107.40 C 84.99 107.99 85.09 110.62 86.81 110.25 C 88.25 109.89 87.65 107.13 86.23 107.40 Z" />
<path fill="#e0e4e0" opacity="1.00" d=" M 92.55 104.37 C 93.97 102.42 96.69 103.24 98.72 103.00 L 98.83 104.75 C 97.15 104.43 95.45 104.36 93.78 104.76 C 92.62 107.61 93.60 111.08 97.09 111.35 C 97.13 110.86 97.21 109.88 97.25 109.39 C 96.50 109.05 95.00 108.38 94.25 108.05 C 95.89 107.99 97.54 107.97 99.19 107.99 C 99.07 109.24 98.90 110.48 98.68 111.72 C 96.64 112.13 94.04 112.43 92.56 110.63 C 90.93 108.91 90.94 106.10 92.55 104.37 Z" />
<path fill="#e0e4e0" opacity="1.00" d=" M 99.43 102.95 C 101.75 103.01 104.19 102.72 106.37 103.74 C 104.64 103.94 102.90 104.06 101.15 104.10 C 101.15 104.80 101.16 106.18 101.16 106.88 C 102.25 106.96 104.43 107.14 105.52 107.23 C 104.11 107.76 102.62 108.00 101.13 108.24 C 101.14 108.90 101.15 110.21 101.15 110.86 C 102.91 110.95 104.70 111.03 106.33 111.77 C 104.05 112.08 101.74 112.01 99.44 112.04 C 99.48 109.01 99.44 105.98 99.43 102.95 Z" />
<path fill="#e0e4e0" opacity="1.00" d=" M 49.42 114.94 C 51.27 115.41 54.53 113.91 55.03 116.53 C 55.87 115.60 56.95 115.01 58.17 114.75 C 58.19 117.44 58.18 120.14 58.14 122.83 C 59.70 123.00 61.25 123.19 62.80 123.42 C 63.83 120.43 65.07 117.51 66.62 114.75 C 68.02 117.88 69.37 121.04 70.72 124.19 C 66.12 121.70 61.23 125.04 56.34 123.98 C 56.41 122.85 56.56 120.61 56.63 119.48 C 56.03 119.64 54.83 119.95 54.23 120.11 L 55.03 121.00 C 54.07 121.00 52.14 121.00 51.17 121.00 C 51.17 121.76 51.17 123.27 51.18 124.02 C 50.74 124.01 49.86 123.97 49.42 123.96 C 49.43 120.95 49.43 117.95 49.42 114.94 M 51.10 115.62 C 51.08 117.20 51.08 118.79 51.10 120.38 C 52.06 119.70 54.49 119.72 54.04 117.99 C 54.45 116.30 52.01 116.38 51.10 115.62 M 66.22 119.40 C 65.26 119.94 64.97 121.86 66.23 122.24 C 68.23 122.77 67.95 119.07 66.22 119.40 Z" />
</g>
<g id="#1c1d1cff">
<path fill="#1c1d1c" opacity="1.00" d=" M 51.10 115.62 C 52.01 116.38 54.45 116.30 54.04 117.99 C 54.49 119.72 52.06 119.70 51.10 120.38 C 51.08 118.79 51.08 117.20 51.10 115.62 Z" />
</g>
</svg>
