<?xml version="1.0" encoding="UTF-8" ?>
<!DOCTYPE svg PUBLIC "-//W3C//DTD SVG 1.1//EN" "http://www.w3.org/Graphics/SVG/1.1/DTD/svg11.dtd">
<svg width="117pt" height="140pt" viewBox="0 0 117 140" version="1.1" xmlns="http://www.w3.org/2000/svg">
<g id="#000000ff">
<path fill="#000000" opacity="1.00" d=" M 0.00 0.00 L 117.00 0.00 L 117.00 140.00 L 0.00 140.00 L 0.00 0.00 M 29.40 10.46 C 18.27 12.83 8.75 21.37 5.35 32.24 C 3.60 36.98 4.02 42.10 4.00 47.06 C 4.00 64.39 4.01 81.72 3.99 99.05 C 3.85 115.38 18.64 130.18 34.98 130.02 C 51.34 129.94 67.70 130.07 84.05 129.96 C 96.76 128.83 108.18 119.29 111.69 107.03 C 113.11 102.50 113.02 97.71 113.00 93.02 C 112.93 75.66 113.08 58.30 112.94 40.93 C 112.80 24.98 98.91 10.64 82.98 10.00 C 66.99 9.98 50.99 10.03 34.99 9.98 C 33.12 10.00 31.23 10.04 29.40 10.46 Z" />
<path fill="#000000" opacity="1.00" d=" M 35.16 12.20 C 49.43 11.84 63.72 12.16 78.00 12.04 C 86.20 11.97 94.52 14.62 100.53 20.32 C 106.67 26.17 110.03 34.58 109.99 43.02 C 110.03 60.67 109.98 78.31 110.01 95.95 C 110.04 102.26 108.65 108.68 105.14 114.00 C 99.91 122.64 89.95 127.68 79.98 127.88 C 65.64 128.03 51.29 127.95 36.95 127.92 C 27.01 127.76 17.11 122.75 11.82 114.20 C 8.69 109.42 7.00 103.74 7.07 98.02 C 7.03 79.67 7.06 61.32 7.05 42.97 C 6.93 37.65 8.07 32.28 10.73 27.65 C 15.46 18.68 25.08 12.78 35.16 12.20 M 37.21 28.28 C 37.76 32.89 35.81 38.16 38.57 42.23 C 38.72 45.51 39.59 49.32 37.41 52.12 C 36.90 61.87 37.05 71.72 37.48 81.48 L 38.08 81.87 C 44.71 82.17 51.37 82.03 58.01 81.78 C 64.97 82.07 71.93 82.09 78.89 81.90 C 79.15 71.60 78.91 61.30 79.02 51.01 C 79.15 49.04 78.63 47.15 78.30 45.23 C 79.45 41.70 78.92 37.95 78.96 34.30 C 76.93 32.25 74.89 30.20 72.83 28.19 C 60.96 28.45 49.08 28.34 37.21 28.28 Z" />
<path fill="#000000" opacity="1.00" d=" M 37.91 28.82 C 48.91 28.58 59.92 28.67 70.92 28.73 C 73.42 29.75 74.99 32.32 77.00 34.08 C 77.09 37.75 77.44 41.53 76.09 45.03 C 77.62 49.19 76.94 53.67 77.06 58.00 C 76.96 65.26 77.30 72.54 76.85 79.79 C 63.99 79.87 51.16 79.84 38.30 79.80 C 37.42 73.56 38.03 67.24 37.81 60.97 C 37.90 57.52 37.20 53.83 39.00 50.68 C 40.09 52.27 39.82 54.23 39.86 56.03 C 39.85 61.70 39.78 67.37 39.85 73.04 C 39.52 75.33 41.82 77.07 43.96 76.68 C 53.35 76.58 62.75 76.69 72.14 76.64 C 74.48 76.59 75.45 74.05 75.17 72.04 C 75.07 60.00 75.33 47.97 75.10 35.94 C 75.14 33.88 72.88 32.61 71.02 32.87 C 61.34 32.99 51.63 32.62 41.97 33.06 C 38.89 34.34 40.08 38.19 39.78 40.76 C 39.29 40.34 38.33 39.49 37.84 39.07 C 37.84 35.65 37.87 32.23 37.91 28.82 M 44.63 77.74 L 44.59 79.20 C 53.19 79.37 61.77 79.25 70.36 79.19 L 70.41 77.74 C 61.82 77.69 53.23 77.70 44.63 77.74 Z" />
<path fill="#000000" opacity="1.00" d=" M 40.72 36.65 C 42.14 33.23 46.04 34.42 48.97 34.25 C 56.32 34.31 63.67 34.19 71.02 34.28 C 72.73 33.94 73.39 35.63 74.28 36.70 C 74.03 48.47 74.27 60.26 74.14 72.03 C 74.25 74.21 72.06 75.71 70.03 75.41 C 61.36 75.40 52.68 75.50 44.01 75.37 C 42.26 75.42 40.73 73.74 40.85 72.02 C 40.86 60.23 40.74 48.44 40.72 36.65 M 44.34 37.34 C 44.09 37.59 43.60 38.09 43.35 38.33 C 43.16 48.22 43.16 58.14 43.24 68.04 C 43.35 69.64 42.98 72.12 45.13 72.49 C 53.10 72.69 61.10 72.55 69.08 72.55 C 70.47 72.71 71.94 71.52 71.62 70.03 C 71.59 59.71 71.65 49.38 71.70 39.06 C 71.90 37.64 70.17 36.98 69.05 36.86 C 62.37 36.68 55.68 36.89 49.00 36.78 C 47.45 36.87 45.75 36.54 44.34 37.34 Z" />
<path fill="#000000" opacity="1.00" d=" M 43.84 43.78 C 44.13 41.80 43.25 38.45 45.88 37.87 C 53.66 37.67 61.46 37.93 69.25 37.75 C 69.65 38.09 70.46 38.76 70.86 39.10 C 70.85 40.78 70.86 42.47 70.86 44.15 C 61.88 43.49 52.85 43.58 43.84 43.78 M 54.49 41.56 C 51.21 40.92 47.57 42.32 44.70 39.97 C 45.88 42.86 48.75 43.83 51.50 42.65 C 53.02 42.58 54.54 42.75 56.06 42.75 C 57.71 42.75 59.35 42.86 61.00 42.90 C 60.38 41.62 59.73 40.35 59.11 39.08 C 58.86 40.08 58.56 41.07 58.21 42.05 C 57.70 41.35 56.66 39.97 56.14 39.28 C 55.11 39.68 54.02 40.10 54.49 41.56 M 62.73 39.49 C 63.37 40.48 64.22 41.29 65.12 42.05 C 65.35 42.32 65.81 42.85 66.04 43.12 C 67.38 42.50 67.34 40.83 67.78 39.62 C 66.10 39.57 64.41 39.50 62.73 39.49 Z" />
<path fill="#000000" opacity="1.00" d=" M 44.14 45.54 C 53.10 45.51 62.07 45.46 71.03 45.66 C 70.88 47.83 70.87 50.01 70.95 52.19 C 69.47 53.06 67.74 53.82 65.99 53.44 C 60.47 52.40 56.53 47.50 50.90 46.81 C 48.46 46.31 46.10 47.43 43.77 47.99 C 43.87 47.38 44.05 46.16 44.14 45.54 Z" />
<path fill="#000000" opacity="1.00" d=" M 43.98 50.08 C 47.15 46.13 52.62 47.88 56.46 49.73 C 56.39 50.22 56.25 51.20 56.18 51.69 L 55.90 52.24 C 54.01 51.96 52.41 52.44 51.10 53.67 C 50.80 52.92 50.21 51.42 49.91 50.67 C 49.85 52.02 49.48 53.32 49.06 54.60 C 50.99 54.52 52.91 54.40 54.83 54.30 C 56.04 54.26 57.25 54.29 58.46 54.30 C 58.53 53.28 58.58 52.25 58.62 51.23 C 62.09 53.81 66.70 55.76 70.95 53.78 C 70.82 57.63 70.81 61.49 70.96 65.35 C 69.73 65.81 68.50 66.24 67.25 66.65 L 68.21 67.91 L 68.96 66.19 C 71.01 67.36 71.12 69.39 70.72 71.55 C 61.99 71.75 53.25 71.58 44.52 71.65 C 43.26 64.55 43.90 57.25 43.98 50.08 M 46.17 51.10 C 45.65 52.73 46.20 53.29 47.82 52.77 C 48.35 51.14 47.80 50.59 46.17 51.10 M 47.40 62.27 C 49.01 63.20 50.66 64.05 52.29 64.94 C 50.43 64.91 48.58 64.85 46.72 64.78 C 46.42 65.39 45.83 66.62 45.53 67.23 C 48.38 67.22 51.24 67.36 54.08 67.15 C 55.45 66.67 56.63 65.54 55.92 64.00 C 54.20 63.17 52.40 62.51 50.79 61.48 C 53.11 60.70 57.06 62.65 58.09 59.83 C 54.45 59.95 49.88 58.75 47.40 62.27 M 58.81 60.87 C 59.92 61.80 61.24 62.09 62.75 61.75 C 61.79 65.46 56.44 62.94 56.35 67.24 C 60.36 67.15 66.67 67.75 68.37 63.17 L 67.87 61.66 C 66.75 61.09 65.65 60.49 64.53 59.92 C 63.90 60.05 62.63 60.33 62.00 60.47 C 60.61 59.22 59.55 59.36 58.81 60.87 Z" />
</g>
<g id="#708cc8ff">
<path fill="#708cc8" opacity="1.00" d=" M 29.40 10.46 C 31.23 10.04 33.12 10.00 34.99 9.98 C 50.99 10.03 66.99 9.98 82.98 10.00 C 98.91 10.64 112.80 24.98 112.94 40.93 C 113.08 58.30 112.93 75.66 113.00 93.02 C 113.02 97.71 113.11 102.50 111.69 107.03 C 108.18 119.29 96.76 128.83 84.05 129.96 C 67.70 130.07 51.34 129.94 34.98 130.02 C 18.64 130.18 3.85 115.38 3.99 99.05 C 4.01 81.72 4.00 64.39 4.00 47.06 C 4.02 42.10 3.60 36.98 5.35 32.24 C 8.75 21.37 18.27 12.83 29.40 10.46 M 35.16 12.20 C 25.08 12.78 15.46 18.68 10.73 27.65 C 8.07 32.28 6.93 37.65 7.05 42.97 C 7.06 61.32 7.03 79.67 7.07 98.02 C 7.00 103.74 8.69 109.42 11.82 114.20 C 17.11 122.75 27.01 127.76 36.95 127.92 C 51.29 127.95 65.64 128.03 79.98 127.88 C 89.95 127.68 99.91 122.64 105.14 114.00 C 108.65 108.68 110.04 102.26 110.01 95.95 C 109.98 78.31 110.03 60.67 109.99 43.02 C 110.03 34.58 106.67 26.17 100.53 20.32 C 94.52 14.62 86.20 11.97 78.00 12.04 C 63.72 12.16 49.43 11.84 35.16 12.20 Z" />
<path fill="#708cc8" opacity="1.00" d=" M 49.06 54.60 C 49.48 53.32 49.85 52.02 49.91 50.67 C 50.21 51.42 50.80 52.92 51.10 53.67 C 52.41 52.44 54.01 51.96 55.90 52.24 L 56.18 51.69 L 56.54 51.00 C 56.87 52.01 57.16 53.04 57.40 54.08 C 56.76 54.13 55.47 54.24 54.83 54.30 C 52.91 54.40 50.99 54.52 49.06 54.60 Z" />
</g>
<g id="#f8fcf8ff">
<path fill="#f8fcf8" opacity="1.00" d=" M 37.21 28.28 C 49.08 28.34 60.96 28.45 72.83 28.19 C 74.89 30.20 76.93 32.25 78.96 34.30 C 78.92 37.95 79.45 41.70 78.30 45.23 C 78.63 47.15 79.15 49.04 79.02 51.01 C 78.91 61.30 79.15 71.60 78.89 81.90 C 71.93 82.09 64.97 82.07 58.01 81.78 C 51.37 82.03 44.71 82.17 38.08 81.87 L 37.48 81.48 C 37.05 71.72 36.90 61.87 37.41 52.12 C 39.59 49.32 38.72 45.51 38.57 42.23 C 35.81 38.16 37.76 32.89 37.21 28.28 M 37.91 28.82 C 37.87 32.23 37.84 35.65 37.84 39.07 C 38.33 39.49 39.29 40.34 39.78 40.76 C 40.08 38.19 38.89 34.34 41.97 33.06 C 51.63 32.62 61.34 32.99 71.02 32.87 C 72.88 32.61 75.14 33.88 75.10 35.94 C 75.33 47.97 75.07 60.00 75.17 72.04 C 75.45 74.05 74.48 76.59 72.14 76.64 C 62.75 76.69 53.35 76.58 43.96 76.68 C 41.82 77.07 39.52 75.33 39.85 73.04 C 39.78 67.37 39.85 61.70 39.86 56.03 C 39.82 54.23 40.09 52.27 39.00 50.68 C 37.20 53.83 37.90 57.52 37.81 60.97 C 38.03 67.24 37.42 73.56 38.30 79.80 C 51.16 79.84 63.99 79.87 76.85 79.79 C 77.30 72.54 76.96 65.26 77.06 58.00 C 76.94 53.67 77.62 49.19 76.09 45.03 C 77.44 41.53 77.09 37.75 77.00 34.08 C 74.99 32.32 73.42 29.75 70.92 28.73 C 59.92 28.67 48.91 28.58 37.91 28.82 M 40.72 36.65 C 40.74 48.44 40.86 60.23 40.85 72.02 C 40.73 73.74 42.26 75.42 44.01 75.37 C 52.68 75.50 61.36 75.40 70.03 75.41 C 72.06 75.71 74.25 74.21 74.14 72.03 C 74.27 60.26 74.03 48.47 74.28 36.70 C 73.39 35.63 72.73 33.94 71.02 34.28 C 63.67 34.19 56.32 34.31 48.97 34.25 C 46.04 34.42 42.14 33.23 40.72 36.65 Z" />
<path fill="#f8fcf8" opacity="1.00" d=" M 44.34 37.34 C 45.75 36.54 47.45 36.87 49.00 36.78 C 55.68 36.89 62.37 36.68 69.05 36.86 C 70.17 36.98 71.90 37.64 71.70 39.06 C 71.65 49.38 71.59 59.71 71.62 70.03 C 71.94 71.52 70.47 72.71 69.08 72.55 C 61.10 72.55 53.10 72.69 45.13 72.49 C 42.98 72.12 43.35 69.64 43.24 68.04 C 43.16 58.14 43.16 48.22 43.35 38.33 C 43.60 38.09 44.09 37.59 44.34 37.34 M 43.84 43.78 C 52.85 43.58 61.88 43.49 70.86 44.15 C 70.86 42.47 70.85 40.78 70.86 39.10 C 70.46 38.76 69.65 38.09 69.25 37.75 C 61.46 37.93 53.66 37.67 45.88 37.87 C 43.25 38.45 44.13 41.80 43.84 43.78 M 44.14 45.54 C 44.05 46.16 43.87 47.38 43.77 47.99 C 46.10 47.43 48.46 46.31 50.90 46.81 C 56.53 47.50 60.47 52.40 65.99 53.44 C 67.74 53.82 69.47 53.06 70.95 52.19 C 70.87 50.01 70.88 47.83 71.03 45.66 C 62.07 45.46 53.10 45.51 44.14 45.54 M 43.98 50.08 C 43.90 57.25 43.26 64.55 44.52 71.65 C 53.25 71.58 61.99 71.75 70.72 71.55 C 71.12 69.39 71.01 67.36 68.96 66.19 L 68.21 67.91 L 67.25 66.65 C 68.50 66.24 69.73 65.81 70.96 65.35 C 70.81 61.49 70.82 57.63 70.95 53.78 C 66.70 55.76 62.09 53.81 58.62 51.23 C 58.58 52.25 58.53 53.28 58.46 54.30 C 57.25 54.29 56.04 54.26 54.83 54.30 C 55.47 54.24 56.76 54.13 57.40 54.08 C 57.16 53.04 56.87 52.01 56.54 51.00 L 56.18 51.69 C 56.25 51.20 56.39 50.22 56.46 49.73 C 52.62 47.88 47.15 46.13 43.98 50.08 Z" />
<path fill="#f8fcf8" opacity="1.00" d=" M 54.49 41.56 C 54.02 40.10 55.11 39.68 56.14 39.28 C 56.66 39.97 57.70 41.35 58.21 42.05 C 58.56 41.07 58.86 40.08 59.11 39.08 C 59.73 40.35 60.38 41.62 61.00 42.90 C 59.35 42.86 57.71 42.75 56.06 42.75 C 54.54 42.75 53.02 42.58 51.50 42.65 C 48.75 43.83 45.88 42.86 44.70 39.97 C 47.57 42.32 51.21 40.92 54.49 41.56 Z" />
<path fill="#f8fcf8" opacity="1.00" d=" M 62.73 39.49 C 64.41 39.50 66.10 39.57 67.78 39.62 C 67.34 40.83 67.38 42.50 66.04 43.12 C 65.81 42.85 65.35 42.32 65.12 42.05 C 64.22 41.29 63.37 40.48 62.73 39.49 Z" />
<path fill="#f8fcf8" opacity="1.00" d=" M 58.81 60.87 C 59.55 59.36 60.61 59.22 62.00 60.47 C 60.97 60.98 59.91 61.11 58.81 60.87 Z" />
<path fill="#f8fcf8" opacity="1.00" d=" M 62.75 61.75 C 64.46 61.71 66.16 61.65 67.87 61.66 L 68.37 63.17 C 66.67 67.75 60.36 67.15 56.35 67.24 C 56.44 62.94 61.79 65.46 62.75 61.75 Z" />
<path fill="#f8fcf8" opacity="1.00" d=" M 44.63 77.74 C 53.23 77.70 61.82 77.69 70.41 77.74 L 70.36 79.19 C 61.77 79.25 53.19 79.37 44.59 79.20 L 44.63 77.74 Z" />
</g>
<g id="#c0c3c0ff">
<path fill="#c0c3c0" opacity="1.00" d=" M 46.17 51.10 C 47.80 50.59 48.35 51.14 47.82 52.77 C 46.20 53.29 45.65 52.73 46.17 51.10 Z" />
</g>
<g id="#f0f3f0ff">
<path fill="#f0f3f0" opacity="1.00" d=" M 47.40 62.27 C 49.88 58.75 54.45 59.95 58.09 59.83 C 57.06 62.65 53.11 60.70 50.79 61.48 C 52.40 62.51 54.20 63.17 55.92 64.00 C 56.63 65.54 55.45 66.67 54.08 67.15 C 51.24 67.36 48.38 67.22 45.53 67.23 C 45.83 66.62 46.42 65.39 46.72 64.78 C 48.58 64.85 50.43 64.91 52.29 64.94 C 50.66 64.05 49.01 63.20 47.40 62.27 Z" />
</g>
<g id="#858685ff">
<path fill="#858685" opacity="1.00" d=" M 62.00 60.47 C 62.63 60.33 63.90 60.05 64.53 59.92 C 65.65 60.49 66.75 61.09 67.87 61.66 C 66.16 61.65 64.46 61.71 62.75 61.75 C 61.24 62.09 59.92 61.80 58.81 60.87 C 59.91 61.11 60.97 60.98 62.00 60.47 Z" />
</g>
</svg>
