<?xml version="1.0" encoding="UTF-8" ?>
<!DOCTYPE svg PUBLIC "-//W3C//DTD SVG 1.1//EN" "http://www.w3.org/Graphics/SVG/1.1/DTD/svg11.dtd">
<svg width="117px" height="140px" viewBox="0 0 117 140" version="1.1" xmlns="http://www.w3.org/2000/svg">
<g id="#000000ff">
<path fill="#000000" opacity="1.00" d=" M 0.00 0.00 L 117.00 0.00 L 117.00 140.00 L 0.00 140.00 L 0.00 0.00 M 33.10 10.23 C 17.88 11.82 5.18 25.66 5.02 40.98 C 4.98 60.34 4.99 79.70 5.02 99.05 C 5.16 115.37 19.62 129.84 35.93 129.98 C 51.65 129.98 67.38 130.09 83.09 129.92 C 99.01 129.26 112.84 115.00 112.97 99.06 C 113.04 80.04 112.98 61.01 113.00 41.99 C 113.07 33.36 109.37 24.81 103.11 18.89 C 97.00 12.95 88.44 9.74 79.95 9.98 C 64.34 10.17 48.70 9.68 33.10 10.23 Z" />
<path fill="#000000" opacity="1.00" d=" M 33.29 12.34 C 48.52 11.71 63.79 12.26 79.03 12.06 C 85.38 11.89 91.85 13.31 97.18 16.87 C 105.62 22.16 110.99 32.00 110.90 41.97 C 110.95 60.66 110.95 79.34 110.90 98.03 C 110.99 108.48 105.09 118.78 95.95 123.88 C 91.17 126.75 85.56 127.97 80.02 127.93 C 65.66 127.92 51.31 127.96 36.95 127.91 C 26.26 127.97 15.76 121.80 10.77 112.32 C 8.12 107.70 7.00 102.34 7.07 97.05 C 7.11 78.35 6.99 59.65 7.13 40.95 C 7.32 26.71 19.12 13.79 33.29 12.34 M 74.06 37.08 C 71.09 41.60 71.21 47.64 73.82 52.30 C 75.52 55.23 75.54 58.79 74.01 61.79 C 74.54 62.24 75.61 63.12 76.14 63.57 C 78.64 59.70 78.51 54.70 76.23 50.76 C 74.31 47.37 74.23 43.24 75.80 39.70 C 76.82 38.22 75.97 36.39 74.06 37.08 M 55.05 47.01 C 54.82 51.01 57.48 54.26 58.33 57.99 C 59.21 60.79 55.69 64.01 59.25 65.81 C 60.21 64.01 61.20 62.12 61.24 60.03 C 61.81 54.64 56.60 50.36 58.11 44.88 C 58.18 42.94 61.03 39.87 58.15 38.88 C 55.56 40.55 55.28 44.21 55.05 47.01 M 40.05 58.02 C 41.70 60.92 41.68 64.42 40.13 67.35 C 40.87 67.97 41.66 68.53 42.47 69.05 C 44.83 64.95 44.54 59.94 42.20 55.91 C 39.98 52.13 40.86 47.64 42.44 43.82 C 42.07 43.44 41.33 42.70 40.97 42.33 C 36.78 46.30 37.43 53.28 40.05 58.02 M 35.11 73.10 C 35.10 73.79 35.08 75.18 35.07 75.88 C 51.01 76.08 66.97 76.07 82.92 75.89 C 82.92 75.20 82.92 73.81 82.93 73.12 C 66.99 72.90 51.04 72.95 35.11 73.10 Z" />
</g>
<g id="#717171ff">
<path fill="#717171" opacity="1.00" d=" M 33.10 10.23 C 48.70 9.68 64.34 10.17 79.95 9.98 C 88.44 9.74 97.00 12.95 103.11 18.89 C 109.37 24.81 113.07 33.36 113.00 41.99 C 112.98 61.01 113.04 80.04 112.97 99.06 C 112.84 115.00 99.01 129.26 83.09 129.92 C 67.38 130.09 51.65 129.98 35.93 129.98 C 19.62 129.84 5.16 115.37 5.02 99.05 C 4.99 79.70 4.98 60.34 5.02 40.98 C 5.18 25.66 17.88 11.82 33.10 10.23 M 33.29 12.34 C 19.12 13.79 7.32 26.71 7.13 40.95 C 6.99 59.65 7.11 78.35 7.07 97.05 C 7.00 102.34 8.12 107.70 10.77 112.32 C 15.76 121.80 26.26 127.97 36.95 127.91 C 51.31 127.96 65.66 127.92 80.02 127.93 C 85.56 127.97 91.17 126.75 95.95 123.88 C 105.09 118.78 110.99 108.48 110.90 98.03 C 110.95 79.34 110.95 60.66 110.90 41.97 C 110.99 32.00 105.62 22.16 97.18 16.87 C 91.85 13.31 85.38 11.89 79.03 12.06 C 63.79 12.26 48.52 11.71 33.29 12.34 Z" />
</g>
<g id="#f8fcf8ff">
<path fill="#f8fcf8" opacity="1.00" d=" M 74.06 37.08 C 75.97 36.39 76.82 38.22 75.80 39.70 C 74.23 43.24 74.31 47.37 76.23 50.76 C 78.51 54.70 78.64 59.70 76.14 63.57 C 75.61 63.12 74.54 62.24 74.01 61.79 C 75.54 58.79 75.52 55.23 73.82 52.30 C 71.21 47.64 71.09 41.60 74.06 37.08 Z" />
<path fill="#f8fcf8" opacity="1.00" d=" M 55.05 47.01 C 55.28 44.21 55.56 40.55 58.15 38.88 C 61.03 39.87 58.18 42.94 58.11 44.88 C 56.60 50.36 61.81 54.64 61.24 60.03 C 61.20 62.12 60.21 64.01 59.25 65.81 C 55.69 64.01 59.21 60.79 58.33 57.99 C 57.48 54.26 54.82 51.01 55.05 47.01 Z" />
<path fill="#f8fcf8" opacity="1.00" d=" M 40.05 58.02 C 37.43 53.28 36.78 46.30 40.97 42.33 C 41.33 42.70 42.07 43.44 42.44 43.82 C 40.86 47.64 39.98 52.13 42.20 55.91 C 44.54 59.94 44.83 64.95 42.47 69.05 C 41.66 68.53 40.87 67.97 40.13 67.35 C 41.68 64.42 41.70 60.92 40.05 58.02 Z" />
<path fill="#f8fcf8" opacity="1.00" d=" M 35.11 73.10 C 51.04 72.95 66.99 72.90 82.93 73.12 C 82.92 73.81 82.92 75.20 82.92 75.89 C 66.97 76.07 51.01 76.08 35.07 75.88 C 35.08 75.18 35.10 73.79 35.11 73.10 Z" />
</g>
</svg>
