<?xml version="1.0" encoding="UTF-8" ?>
<!DOCTYPE svg PUBLIC "-//W3C//DTD SVG 1.1//EN" "http://www.w3.org/Graphics/SVG/1.1/DTD/svg11.dtd">
<svg width="117px" height="140px" viewBox="0 0 117 140" version="1.1" xmlns="http://www.w3.org/2000/svg">
<g id="#000000ff">
<path fill="#000000" opacity="1.00" d=" M 0.00 0.00 L 117.00 0.00 L 117.00 140.00 L 0.00 140.00 L 0.00 0.00 M 33.12 10.23 C 17.88 11.81 5.17 25.66 5.02 41.00 C 5.01 60.67 4.93 80.35 5.06 100.02 C 5.71 115.98 19.98 129.84 35.96 129.97 C 51.32 130.02 66.69 130.03 82.05 129.97 C 98.01 129.84 112.28 115.99 112.93 100.05 C 113.10 80.71 112.95 61.37 113.00 42.03 C 113.07 33.39 109.38 24.82 103.11 18.89 C 97.01 12.95 88.45 9.75 79.95 9.98 C 64.34 10.17 48.71 9.69 33.12 10.23 Z" />
<path fill="#000000" opacity="1.00" d=" M 30.46 12.70 C 34.90 11.72 39.47 12.05 43.99 12.00 C 57.01 12.06 70.04 11.88 83.07 12.09 C 97.93 12.75 110.85 26.08 110.96 40.97 C 111.03 60.31 111.03 79.65 110.96 98.98 C 110.88 113.89 97.94 127.27 83.05 127.89 C 68.05 128.14 53.03 127.92 38.02 128.01 C 21.65 128.96 6.50 114.39 7.01 97.97 C 7.01 78.98 6.96 59.99 7.03 41.00 C 7.19 27.67 17.46 15.44 30.46 12.70 M 34.00 46.00 C 34.08 49.99 33.84 53.98 34.08 57.96 C 34.32 58.20 34.78 58.68 35.02 58.92 C 51.32 59.04 67.64 59.09 83.94 58.89 C 84.17 58.64 84.63 58.12 84.87 57.87 C 85.15 53.92 84.87 49.95 84.99 46.00 C 67.99 46.00 51.00 46.00 34.00 46.00 Z" />
<path fill="#000000" opacity="1.00" d=" M 37.21 49.13 C 52.02 49.08 66.83 49.06 81.64 49.14 C 81.63 51.34 81.64 53.54 81.66 55.75 C 66.84 55.79 52.02 55.79 37.20 55.75 C 37.21 53.54 37.22 51.33 37.21 49.13 Z" />
</g>
<g id="#717271ff">
<path fill="#717271" opacity="1.00" d=" M 33.12 10.23 C 48.71 9.69 64.34 10.17 79.95 9.98 C 88.45 9.75 97.01 12.95 103.11 18.89 C 109.38 24.82 113.07 33.39 113.00 42.03 C 112.95 61.37 113.10 80.71 112.93 100.05 C 112.28 115.99 98.01 129.84 82.05 129.97 C 66.69 130.03 51.32 130.02 35.96 129.97 C 19.98 129.84 5.71 115.98 5.06 100.02 C 4.93 80.35 5.01 60.67 5.02 41.00 C 5.17 25.66 17.88 11.81 33.12 10.23 M 30.46 12.70 C 17.46 15.44 7.19 27.67 7.03 41.00 C 6.96 59.99 7.01 78.98 7.01 97.97 C 6.50 114.39 21.65 128.96 38.02 128.01 C 53.03 127.92 68.05 128.14 83.05 127.89 C 97.94 127.27 110.88 113.89 110.96 98.98 C 111.03 79.65 111.03 60.31 110.96 40.97 C 110.85 26.08 97.93 12.75 83.07 12.09 C 70.04 11.88 57.01 12.06 43.99 12.00 C 39.47 12.05 34.90 11.72 30.46 12.70 Z" />
</g>
<g id="#f8fcf8ff">
<path fill="#f8fcf8" opacity="1.00" d=" M 34.00 46.00 C 51.00 46.00 67.99 46.00 84.99 46.00 C 84.87 49.95 85.15 53.92 84.87 57.87 C 84.63 58.12 84.17 58.64 83.94 58.89 C 67.64 59.09 51.32 59.04 35.02 58.92 C 34.78 58.68 34.32 58.20 34.08 57.96 C 33.84 53.98 34.08 49.99 34.00 46.00 M 37.21 49.13 C 37.22 51.33 37.21 53.54 37.20 55.75 C 52.02 55.79 66.84 55.79 81.66 55.75 C 81.64 53.54 81.63 51.34 81.64 49.14 C 66.83 49.06 52.02 49.08 37.21 49.13 Z" />
</g>
</svg>
