<?xml version="1.0" encoding="UTF-8" ?>
<!DOCTYPE svg PUBLIC "-//W3C//DTD SVG 1.1//EN" "http://www.w3.org/Graphics/SVG/1.1/DTD/svg11.dtd">
<svg width="117px" height="140px" viewBox="0 0 117 140" version="1.1" xmlns="http://www.w3.org/2000/svg">
<g id="#000000ff">
<path fill="#000000" opacity="1.00" d=" M 0.00 0.00 L 117.00 0.00 L 117.00 140.00 L 0.00 140.00 L 0.00 0.00 M 33.18 10.22 C 17.92 11.77 5.16 25.65 5.02 41.01 C 4.97 60.03 5.02 79.06 4.99 98.08 C 4.95 106.94 8.90 115.69 15.44 121.64 C 21.27 126.97 29.12 130.02 37.02 130.01 C 51.69 130.00 66.36 130.00 81.03 130.01 C 98.11 130.42 113.47 115.07 113.00 97.98 C 113.00 79.31 113.00 60.65 113.00 41.98 C 113.10 31.44 107.49 21.10 98.68 15.33 C 92.90 11.47 85.88 9.70 78.96 9.98 C 63.71 10.18 48.43 9.69 33.18 10.22 Z" />
<path fill="#000000" opacity="1.00" d=" M 30.49 12.70 C 35.24 11.67 40.13 12.08 44.95 12.00 C 57.65 12.06 70.36 11.88 83.06 12.10 C 97.92 12.74 110.87 26.08 110.95 40.98 C 111.03 60.32 111.03 79.66 110.95 99.01 C 110.88 114.26 97.30 127.86 82.04 127.94 C 66.70 128.05 51.35 128.01 36.01 127.96 C 20.72 127.88 7.13 114.27 7.04 98.99 C 6.98 79.66 6.98 60.33 7.04 41.00 C 7.19 27.66 17.48 15.42 30.49 12.70 M 25.77 27.98 C 24.78 30.54 25.12 33.30 25.08 35.98 C 25.13 48.68 25.07 61.37 25.10 74.07 C 24.82 75.74 26.31 77.17 27.96 76.97 C 47.31 77.06 66.67 76.95 86.03 77.02 C 87.58 76.95 89.19 77.18 90.69 76.69 C 92.19 76.18 91.92 74.26 92.01 73.03 C 92.00 60.37 91.98 47.71 92.02 35.05 C 91.99 32.66 92.28 30.17 91.23 27.94 C 69.41 28.06 47.59 27.99 25.77 27.98 Z" />
<path fill="#000000" opacity="1.00" d=" M 27.36 74.61 C 27.45 59.66 27.00 44.69 27.59 29.76 C 48.22 29.78 68.85 29.80 89.48 29.75 C 90.12 44.70 89.67 59.69 89.71 74.66 C 68.93 74.83 48.14 74.92 27.36 74.61 M 79.19 36.10 C 79.15 36.79 79.06 38.18 79.02 38.88 C 80.55 38.87 82.16 39.20 83.64 38.68 C 83.74 37.93 83.92 36.43 84.01 35.68 C 82.50 35.49 80.11 34.27 79.19 36.10 M 32.02 37.12 C 32.07 37.79 32.15 39.13 32.19 39.80 C 46.48 39.83 60.77 39.90 75.06 39.78 C 77.27 40.55 77.23 36.15 75.15 37.05 C 60.77 37.06 46.40 36.93 32.02 37.12 M 79.22 48.90 C 80.75 48.90 82.29 48.83 83.82 48.75 C 83.94 47.07 84.19 44.79 81.97 44.44 C 79.13 43.62 78.69 46.94 79.22 48.90 M 31.92 47.00 C 32.04 47.69 32.29 49.06 32.41 49.74 C 43.38 49.63 54.37 49.98 65.33 49.56 C 65.49 48.93 65.81 47.68 65.97 47.06 C 54.62 46.93 43.27 47.03 31.92 47.00 M 78.98 56.09 C 78.62 58.74 82.12 58.18 83.68 57.60 C 83.89 56.54 83.94 55.47 83.83 54.38 C 82.15 54.28 78.72 53.24 78.98 56.09 M 32.26 55.29 C 32.17 55.96 32.01 57.30 31.93 57.97 C 44.65 58.05 57.36 57.97 70.08 58.00 C 70.00 57.32 69.85 55.95 69.78 55.27 C 57.27 55.33 44.76 55.29 32.26 55.29 M 78.94 65.11 C 78.82 67.89 81.47 68.04 83.50 67.40 C 83.65 66.07 83.77 64.74 83.86 63.41 C 82.02 63.14 78.85 62.18 78.94 65.11 M 32.05 65.11 C 32.07 65.80 32.10 67.19 32.12 67.88 C 40.85 68.05 49.60 67.96 58.33 67.93 C 58.38 67.22 58.49 65.80 58.54 65.09 C 49.71 65.12 40.88 65.07 32.05 65.11 Z" />
</g>
<g id="#717271ff">
<path fill="#717271" opacity="1.00" d=" M 33.18 10.22 C 48.43 9.69 63.71 10.18 78.96 9.98 C 85.88 9.70 92.90 11.47 98.68 15.33 C 107.49 21.10 113.10 31.44 113.00 41.98 C 113.00 60.65 113.00 79.31 113.00 97.98 C 113.47 115.07 98.11 130.42 81.03 130.01 C 66.36 130.00 51.69 130.00 37.02 130.01 C 29.12 130.02 21.27 126.97 15.44 121.64 C 8.90 115.69 4.95 106.94 4.99 98.08 C 5.02 79.06 4.97 60.03 5.02 41.01 C 5.16 25.65 17.92 11.77 33.18 10.22 M 30.49 12.70 C 17.48 15.42 7.19 27.66 7.04 41.00 C 6.98 60.33 6.98 79.66 7.04 98.99 C 7.13 114.27 20.72 127.88 36.01 127.96 C 51.35 128.01 66.70 128.05 82.04 127.94 C 97.30 127.86 110.88 114.26 110.95 99.01 C 111.03 79.66 111.03 60.32 110.95 40.98 C 110.87 26.08 97.92 12.74 83.06 12.10 C 70.36 11.88 57.65 12.06 44.95 12.00 C 40.13 12.08 35.24 11.67 30.49 12.70 Z" />
</g>
<g id="#f8fcf8ff">
<path fill="#f8fcf8" opacity="1.00" d=" M 25.77 27.98 C 47.59 27.99 69.41 28.06 91.23 27.94 C 92.28 30.17 91.99 32.66 92.02 35.05 C 91.98 47.71 92.00 60.37 92.01 73.03 C 91.92 74.26 92.19 76.18 90.69 76.69 C 89.19 77.18 87.58 76.95 86.03 77.02 C 66.67 76.95 47.31 77.06 27.96 76.97 C 26.31 77.17 24.82 75.74 25.10 74.07 C 25.07 61.37 25.13 48.68 25.08 35.98 C 25.12 33.30 24.78 30.54 25.77 27.98 M 27.36 74.61 C 48.14 74.92 68.93 74.83 89.71 74.66 C 89.67 59.69 90.12 44.70 89.48 29.75 C 68.85 29.80 48.22 29.78 27.59 29.76 C 27.00 44.69 27.45 59.66 27.36 74.61 Z" />
<path fill="#f8fcf8" opacity="1.00" d=" M 79.19 36.10 C 80.11 34.27 82.50 35.49 84.01 35.68 C 83.92 36.43 83.74 37.93 83.64 38.68 C 82.16 39.20 80.55 38.87 79.02 38.88 C 79.06 38.18 79.15 36.79 79.19 36.10 Z" />
<path fill="#f8fcf8" opacity="1.00" d=" M 32.02 37.12 C 46.40 36.93 60.77 37.06 75.15 37.05 C 77.23 36.15 77.27 40.55 75.06 39.78 C 60.77 39.90 46.48 39.83 32.19 39.80 C 32.15 39.13 32.07 37.79 32.02 37.12 Z" />
<path fill="#f8fcf8" opacity="1.00" d=" M 79.22 48.90 C 78.69 46.94 79.13 43.62 81.97 44.44 C 84.19 44.79 83.94 47.07 83.82 48.75 C 82.29 48.83 80.75 48.90 79.22 48.90 Z" />
<path fill="#f8fcf8" opacity="1.00" d=" M 78.98 56.09 C 78.72 53.24 82.15 54.28 83.83 54.38 C 83.94 55.47 83.89 56.54 83.68 57.60 C 82.12 58.18 78.62 58.74 78.98 56.09 Z" />
<path fill="#f8fcf8" opacity="1.00" d=" M 78.94 65.11 C 78.85 62.18 82.02 63.14 83.86 63.41 C 83.77 64.74 83.65 66.07 83.50 67.40 C 81.47 68.04 78.82 67.89 78.94 65.11 Z" />
<path fill="#f8fcf8" opacity="1.00" d=" M 32.05 65.11 C 40.88 65.07 49.71 65.12 58.54 65.09 C 58.49 65.80 58.38 67.22 58.33 67.93 C 49.60 67.96 40.85 68.05 32.12 67.88 C 32.10 67.19 32.07 65.80 32.05 65.11 Z" />
</g>
<g id="#f8f8f8ff">
<path fill="#f8f8f8" opacity="1.00" d=" M 31.92 47.00 C 43.27 47.03 54.62 46.93 65.97 47.06 C 65.81 47.68 65.49 48.93 65.33 49.56 C 54.37 49.98 43.38 49.63 32.41 49.74 C 32.29 49.06 32.04 47.69 31.92 47.00 Z" />
</g>
<g id="#f0f0f0ff">
<path fill="#f0f0f0" opacity="1.00" d=" M 32.26 55.29 C 44.76 55.29 57.27 55.33 69.78 55.27 C 69.85 55.95 70.00 57.32 70.08 58.00 C 57.36 57.97 44.65 58.05 31.93 57.97 C 32.01 57.30 32.17 55.96 32.26 55.29 Z" />
</g>
</svg>
