<?xml version="1.0" encoding="UTF-8" ?>
<!DOCTYPE svg PUBLIC "-//W3C//DTD SVG 1.1//EN" "http://www.w3.org/Graphics/SVG/1.1/DTD/svg11.dtd">
<svg width="480px" height="320px" viewBox="0 0 480 320" version="1.1" xmlns="http://www.w3.org/2000/svg">
<g id="#000000ff">
<path fill="#000000" opacity="1.00" d=" M 0.00 0.00 L 1.09 0.00 C 1.26 1.75 3.86 1.82 3.97 0.00 L 480.00 0.00 L 480.00 320.00 L 0.00 320.00 L 0.00 0.00 M 51.10 12.85 C 56.73 16.45 62.50 19.82 68.23 23.27 C 62.62 26.71 56.98 30.11 51.34 33.49 C 51.34 59.41 51.26 85.33 51.38 111.25 C 62.46 117.54 73.39 124.12 84.43 130.49 C 85.42 131.10 86.37 131.04 87.29 130.31 C 98.02 123.86 108.81 117.50 119.49 110.97 C 119.42 85.26 119.56 59.55 119.42 33.84 C 114.26 29.90 108.43 26.90 102.94 23.43 C 108.27 19.65 114.09 16.63 119.48 12.93 C 118.36 12.28 117.24 11.63 116.12 10.98 C 110.64 14.38 105.11 17.70 99.70 21.21 C 94.95 18.69 90.64 15.43 85.87 12.98 C 80.84 15.14 76.41 18.54 71.66 21.27 C 66.28 18.08 60.97 14.77 55.59 11.59 C 54.02 10.54 52.54 12.39 51.10 12.85 M 370.88 24.52 C 364.41 26.51 357.74 28.06 350.96 28.37 C 346.26 27.91 341.59 27.03 337.07 25.68 C 336.19 25.65 334.43 25.60 333.55 25.58 L 333.31 26.68 C 332.83 26.39 331.86 25.80 331.37 25.50 C 329.83 25.72 328.35 26.17 326.88 26.63 C 323.96 28.17 321.00 29.63 317.93 30.82 C 312.50 32.76 308.16 36.72 302.93 39.06 C 301.01 40.06 298.62 40.76 297.65 42.89 C 295.87 49.55 296.81 56.82 300.22 62.80 C 301.62 65.47 303.66 67.73 305.06 70.40 L 306.14 70.55 C 306.66 71.93 307.19 73.31 307.73 74.69 C 309.70 76.87 311.85 78.93 313.50 81.38 C 314.11 83.33 313.72 85.49 313.39 87.47 C 312.35 88.76 310.69 89.37 309.43 90.37 C 313.94 90.95 318.52 90.79 323.05 90.53 C 323.46 86.25 327.84 83.45 327.54 78.96 L 328.15 78.87 C 328.14 78.21 328.11 76.90 328.09 76.24 C 329.34 76.13 330.59 76.01 331.85 75.87 C 333.16 74.51 334.50 73.18 335.83 71.84 C 341.85 74.70 348.38 76.69 355.06 77.05 C 362.27 77.42 368.86 73.99 375.28 71.19 C 375.81 71.33 376.86 71.60 377.38 71.73 C 377.40 72.08 377.45 72.78 377.47 73.13 C 378.08 74.19 379.85 75.18 379.39 76.55 C 376.98 78.45 373.67 79.75 372.68 82.93 C 371.92 86.11 367.98 87.19 367.83 90.67 C 372.52 90.75 377.23 90.70 381.93 90.72 C 381.81 89.90 381.56 88.27 381.44 87.45 C 385.91 87.01 390.50 86.08 393.74 82.63 C 394.97 82.10 396.22 81.60 397.50 81.14 C 398.46 79.47 399.75 77.75 399.32 75.71 C 399.66 75.06 400.34 73.76 400.69 73.11 C 399.89 75.94 399.98 78.90 402.66 80.62 C 402.42 84.77 398.85 87.14 396.96 90.49 C 401.83 90.81 406.75 90.88 411.63 90.56 C 412.17 89.73 412.69 88.89 413.18 88.04 C 414.12 84.92 415.25 81.82 417.31 79.25 C 419.02 77.32 419.12 74.26 418.13 72.03 C 414.55 69.89 412.66 66.15 410.00 63.11 C 407.76 65.15 405.82 67.49 403.86 69.79 C 404.62 64.91 411.91 63.49 410.37 57.89 C 410.10 57.37 409.54 56.34 409.27 55.83 C 408.76 54.95 408.25 54.07 407.75 53.19 C 407.46 52.17 407.15 51.15 406.83 50.15 C 406.08 45.93 405.23 41.73 404.12 37.60 C 408.12 37.77 412.03 36.13 416.02 36.81 C 418.14 37.17 418.79 39.79 420.96 40.07 C 422.71 40.62 424.48 39.75 426.20 39.44 C 424.22 35.49 419.79 34.90 415.93 34.09 C 411.32 32.73 406.48 35.62 402.00 33.10 C 400.06 28.01 393.98 28.26 389.78 26.26 C 387.66 25.01 385.18 24.96 382.88 25.69 C 382.33 27.19 381.74 28.67 381.17 30.16 C 376.89 35.91 377.89 43.44 380.17 49.78 C 380.62 52.39 381.60 54.84 382.51 57.31 C 382.02 56.35 381.26 55.58 380.58 54.77 C 380.07 52.87 379.51 50.98 378.98 49.09 C 377.73 44.68 376.89 40.03 377.64 35.46 C 378.93 31.71 381.21 28.40 382.75 24.75 C 379.15 22.45 374.70 23.40 370.88 24.52 M 210.20 28.17 C 210.20 30.04 210.19 31.91 210.19 33.78 C 203.67 34.96 198.24 41.25 198.98 48.02 C 198.84 54.44 204.20 59.66 210.18 61.07 C 210.19 62.70 210.19 64.34 210.19 65.98 C 210.87 65.98 212.22 66.00 212.89 66.01 C 212.90 65.49 212.93 64.45 212.94 63.92 C 214.23 63.91 215.52 63.90 216.81 63.90 C 216.80 62.56 216.79 61.23 216.78 59.90 C 218.98 58.53 220.54 60.38 221.96 61.89 C 223.84 60.01 225.71 58.13 227.58 56.25 C 226.64 55.36 225.69 54.48 224.75 53.59 C 225.13 52.74 225.51 51.88 225.89 51.02 C 227.18 51.00 228.48 50.98 229.78 50.97 C 229.76 48.41 229.76 45.85 229.76 43.29 C 227.68 43.32 225.42 43.32 224.51 41.09 C 225.54 40.06 226.57 39.02 227.61 37.99 C 225.66 36.15 223.72 34.32 221.77 32.49 C 220.84 33.43 219.91 34.38 218.98 35.32 C 218.44 34.98 217.35 34.30 216.80 33.96 C 216.79 32.75 216.79 31.54 216.78 30.33 C 215.51 30.33 214.24 30.32 212.98 30.32 C 212.93 29.75 212.83 28.62 212.78 28.06 C 212.13 28.09 210.84 28.14 210.20 28.17 M 126.21 33.33 C 126.18 42.50 126.21 51.67 126.20 60.85 C 131.64 60.88 137.09 60.91 142.53 60.83 C 142.48 59.46 142.44 58.10 142.39 56.74 C 138.45 56.77 134.52 56.78 130.59 56.70 C 130.77 48.91 130.64 41.12 130.67 33.34 C 129.18 33.33 127.69 33.33 126.21 33.33 M 147.33 33.33 C 147.33 39.22 147.31 45.11 147.31 51.00 C 147.20 54.47 148.91 58.10 152.00 59.81 C 154.46 61.20 157.42 60.90 160.13 60.74 C 164.75 60.15 167.86 55.49 167.87 51.04 C 167.99 45.14 167.89 39.23 167.89 33.32 C 166.37 33.32 164.85 33.33 163.33 33.34 C 163.19 39.87 163.58 46.42 163.16 52.94 C 161.72 58.32 152.24 57.83 151.80 52.06 C 151.48 45.82 151.78 39.57 151.67 33.33 C 150.22 33.33 148.78 33.33 147.33 33.33 M 173.33 33.34 C 173.32 42.51 173.33 51.68 173.33 60.85 C 178.34 60.59 183.81 61.84 188.42 59.31 C 192.33 57.13 193.77 52.31 193.83 48.10 C 194.00 43.48 192.78 38.11 188.55 35.54 C 183.97 32.73 178.45 33.32 173.33 33.34 M 284.94 46.75 C 283.10 46.31 281.72 44.27 279.71 44.75 C 279.52 46.11 279.43 47.48 279.45 48.87 C 278.08 47.15 275.87 47.49 273.98 47.42 C 273.89 50.47 275.36 53.01 277.64 54.92 C 277.41 55.68 276.94 57.20 276.71 57.96 C 277.28 59.56 277.66 61.30 276.82 62.89 C 276.77 63.62 276.66 65.10 276.60 65.83 C 273.58 65.85 270.30 65.18 268.63 62.38 C 268.38 62.66 267.88 63.24 267.63 63.52 C 267.64 64.73 267.66 65.93 267.69 67.13 C 268.24 68.34 268.78 69.55 269.35 70.76 C 269.44 71.24 269.62 72.20 269.71 72.68 C 266.63 70.94 262.88 69.76 261.08 66.46 C 260.62 66.40 259.68 66.28 259.22 66.22 C 260.14 70.11 260.89 74.25 263.51 77.42 C 265.39 80.04 268.01 81.99 270.16 84.34 C 270.62 86.46 271.86 88.23 273.77 89.28 C 277.15 92.14 281.84 89.96 285.32 88.36 C 285.79 87.23 286.29 86.11 286.79 85.00 C 293.36 84.04 296.13 76.56 302.18 74.57 C 303.84 74.51 304.82 73.27 305.77 72.08 C 303.24 68.35 300.06 65.05 298.15 60.91 C 295.24 55.42 296.38 49.02 296.51 43.08 C 292.33 43.12 289.11 46.53 284.94 46.75 M 126.20 70.20 C 126.20 79.35 126.19 88.51 126.21 97.67 C 131.63 97.67 137.04 97.69 142.46 97.66 C 142.47 96.18 142.48 94.70 142.49 93.22 C 138.55 93.19 134.61 93.19 130.67 93.22 C 130.68 85.55 130.68 77.88 130.67 70.21 C 129.18 70.20 127.69 70.20 126.20 70.20 M 177.10 70.20 C 177.09 79.36 177.06 88.52 177.11 97.69 C 181.39 97.59 185.68 97.86 189.95 97.56 C 192.29 97.37 194.38 95.55 194.77 93.20 C 195.21 89.51 195.66 84.68 191.87 82.52 C 193.59 78.54 193.69 72.34 188.97 70.46 C 185.05 69.87 181.05 70.33 177.10 70.20 M 147.19 97.64 C 148.65 97.67 150.11 97.69 151.57 97.71 C 152.13 96.42 152.69 95.12 153.24 93.82 C 157.27 93.79 161.31 93.83 165.34 93.74 C 166.01 95.05 166.67 96.37 167.34 97.68 C 168.77 97.67 170.21 97.66 171.65 97.65 C 167.64 88.46 163.57 79.31 159.56 70.13 C 154.99 79.09 151.38 88.51 147.19 97.64 M 329.25 77.21 C 328.62 80.22 326.62 83.09 326.69 86.12 C 330.36 87.61 334.30 88.30 338.23 88.65 C 339.09 89.27 339.96 89.89 340.83 90.51 C 342.39 90.57 343.96 90.58 345.53 90.53 C 345.83 85.22 342.12 80.55 338.17 77.39 C 335.07 81.34 332.36 74.03 329.25 77.21 M 262.56 100.37 C 262.62 103.63 262.61 106.90 262.63 110.17 C 264.19 113.34 265.66 116.55 267.22 119.72 C 267.73 120.85 268.26 121.97 268.78 123.10 C 269.02 123.68 269.50 124.83 269.74 125.40 C 271.55 125.40 273.38 125.45 275.20 125.33 C 277.11 123.33 277.43 120.26 278.75 117.86 C 279.24 119.16 279.72 120.47 280.23 121.76 C 280.69 122.98 281.17 124.18 281.65 125.39 C 283.47 125.39 285.29 125.46 287.10 125.31 C 288.69 124.40 288.89 122.24 289.75 120.74 C 291.51 116.82 293.81 113.12 295.06 109.00 C 295.35 106.31 295.26 103.59 295.11 100.89 C 292.87 99.73 289.87 100.65 287.35 100.39 C 287.29 103.61 287.55 106.84 287.20 110.05 C 286.47 112.06 285.54 113.99 284.80 115.99 C 281.84 111.28 282.44 105.72 282.50 100.41 C 280.10 100.39 277.69 100.37 275.29 100.31 C 274.23 105.65 275.50 111.31 272.92 116.36 C 272.36 115.17 271.77 114.00 271.16 112.85 C 269.42 108.97 270.43 104.58 270.24 100.47 C 267.69 100.21 265.12 100.21 262.56 100.37 M 304.38 100.40 C 302.66 104.49 301.45 108.79 299.81 112.92 C 298.97 115.63 297.91 118.27 296.82 120.89 C 296.37 122.39 295.89 123.87 295.41 125.35 C 298.04 125.39 300.67 125.40 303.30 125.36 C 303.51 124.15 303.71 122.93 303.91 121.71 C 306.66 121.63 309.40 121.63 312.15 121.65 C 312.40 122.88 312.65 124.11 312.90 125.33 C 315.60 125.40 318.30 125.40 321.01 125.37 C 320.53 123.51 319.94 121.68 319.26 119.89 C 318.75 118.70 318.27 117.50 317.78 116.31 C 317.26 114.83 316.71 113.37 316.18 111.91 C 315.02 109.06 313.94 106.18 312.80 103.32 C 312.45 102.31 312.10 101.31 311.74 100.31 C 309.29 100.28 306.83 100.14 304.38 100.40 M 322.33 100.26 C 322.33 108.64 322.28 117.02 322.36 125.40 C 324.82 125.39 327.28 125.39 329.74 125.40 C 329.95 121.23 329.10 116.89 330.64 112.89 C 333.03 117.47 336.53 121.43 339.92 125.28 C 342.07 125.50 344.23 125.38 346.39 125.36 C 346.43 117.02 346.33 108.68 346.45 100.34 C 344.05 100.32 341.66 100.35 339.28 100.35 C 339.27 104.69 339.33 109.04 339.22 113.38 C 337.47 111.25 335.87 109.00 334.23 106.79 C 332.60 104.76 331.24 102.52 329.51 100.57 C 327.18 99.94 324.71 100.35 322.33 100.26 M 349.47 100.29 C 349.52 108.66 349.43 117.03 349.51 125.41 C 352.12 125.40 354.72 125.39 357.33 125.29 C 357.32 122.06 357.32 118.83 357.35 115.61 C 360.12 115.66 362.89 115.67 365.67 115.61 C 365.70 118.85 365.71 122.09 365.74 125.33 C 368.33 125.39 370.93 125.40 373.52 125.39 C 373.59 117.04 373.48 108.68 373.59 100.33 C 370.96 100.23 368.33 100.24 365.70 100.40 C 365.75 103.38 365.75 106.36 365.67 109.34 C 362.89 109.27 360.11 109.27 357.33 109.36 C 357.22 106.31 357.40 103.24 356.80 100.23 C 354.36 100.25 351.91 100.26 349.47 100.29 M 383.61 100.26 C 382.83 102.57 382.01 104.87 381.15 107.15 C 380.69 108.38 380.25 109.61 379.81 110.84 C 378.99 113.28 378.05 115.67 377.24 118.11 C 376.85 119.10 376.46 120.09 376.08 121.07 C 375.68 122.49 375.33 123.93 375.02 125.37 C 377.46 125.39 379.90 125.39 382.35 125.42 C 382.79 124.16 383.23 122.90 383.66 121.63 C 386.22 121.64 388.79 121.64 391.36 121.63 C 391.73 122.89 392.14 124.15 392.54 125.41 C 395.27 125.39 397.99 125.39 400.72 125.37 C 398.30 118.84 395.65 112.41 393.13 105.93 C 392.39 104.13 391.68 102.32 391.15 100.46 C 388.64 100.26 386.12 100.25 383.61 100.26 M 402.66 105.87 C 402.42 106.37 401.93 107.36 401.69 107.86 C 400.46 113.41 401.47 120.14 406.50 123.53 C 410.19 126.82 415.34 125.71 419.80 125.36 C 416.75 124.98 421.18 124.47 421.59 123.58 C 427.02 120.33 427.34 113.55 426.42 107.95 C 425.00 104.98 422.89 102.45 420.18 100.60 C 417.20 99.38 413.99 99.28 410.84 99.66 C 407.57 100.92 404.48 102.79 402.66 105.87 M 126.18 107.01 C 126.19 108.34 126.19 109.67 126.19 111.00 C 127.69 110.99 129.20 110.98 130.70 110.96 C 130.69 109.65 130.69 108.33 130.68 107.02 C 129.18 107.01 127.68 107.01 126.18 107.01 M 204.21 145.14 C 203.72 146.78 204.28 147.33 205.90 146.79 C 206.38 145.15 205.82 144.60 204.21 145.14 M 202.10 151.08 C 202.33 154.39 205.05 149.47 202.10 151.08 M 208.17 153.28 C 208.71 153.77 208.71 153.77 208.17 153.28 M 221.17 154.40 C 220.72 155.80 221.20 156.29 222.61 155.87 C 223.05 154.48 222.57 153.99 221.17 154.40 M 227.28 154.19 C 227.78 154.72 227.78 154.72 227.28 154.19 M 233.06 157.11 C 231.36 160.01 236.37 157.44 233.06 157.11 M 212.09 159.16 C 210.45 162.10 215.40 159.43 212.09 159.16 M 222.19 160.04 C 221.63 161.65 222.18 162.20 223.83 161.71 C 224.38 160.10 223.83 159.54 222.19 160.04 M 206.26 162.33 C 206.78 162.84 206.78 162.84 206.26 162.33 M 211.11 164.23 C 209.49 167.19 214.42 164.48 211.11 164.23 M 213.25 164.01 C 213.62 167.32 216.12 162.27 213.25 164.01 M 205.24 165.29 C 205.76 165.81 205.76 165.81 205.24 165.29 M 219.22 167.27 C 219.78 167.76 219.78 167.76 219.22 167.27 M 205.34 170.27 C 205.85 170.80 205.85 170.80 205.34 170.27 M 211.19 170.25 C 211.67 170.80 211.67 170.80 211.19 170.25 M 205.58 175.93 C 207.01 176.91 208.89 174.68 207.90 173.35 C 206.75 173.12 205.35 174.82 205.58 175.93 M 211.35 173.06 C 211.39 176.38 214.40 171.63 211.35 173.06 M 214.42 173.17 C 214.02 174.58 214.52 175.06 215.91 174.59 C 216.31 173.18 215.81 172.71 214.42 173.17 M 211.27 175.39 C 211.82 175.87 211.82 175.87 211.27 175.39 M 218.25 177.04 C 218.52 180.36 221.17 175.39 218.25 177.04 M 193.85 178.93 C 191.64 179.66 192.60 182.53 192.22 184.26 C 190.00 184.34 187.78 184.43 185.57 184.56 C 183.10 186.41 180.16 187.72 177.01 187.59 C 132.98 187.55 88.95 187.58 44.92 187.56 C 38.52 186.46 32.00 186.54 25.54 186.79 C 20.98 187.22 20.71 194.60 25.00 195.62 C 28.69 195.68 32.36 195.96 35.96 196.77 C 39.21 197.70 41.72 194.51 44.93 194.83 C 89.31 194.89 133.69 194.84 178.06 194.83 C 179.51 194.82 180.86 195.38 182.22 195.81 C 182.27 197.64 182.37 199.48 182.50 201.31 C 183.74 202.56 185.03 203.74 186.43 204.81 L 186.49 205.13 C 187.72 205.69 188.94 206.25 190.17 206.82 L 191.31 206.94 C 191.88 209.48 192.24 212.06 192.45 214.65 C 193.67 214.71 194.89 214.76 196.11 214.82 C 196.46 219.78 196.17 224.74 196.23 229.70 C 198.53 229.69 200.83 229.67 203.12 229.54 C 202.95 229.34 202.60 228.93 202.43 228.73 C 202.98 225.33 198.94 226.81 196.94 226.66 L 196.89 226.33 C 197.49 226.26 198.68 226.13 199.27 226.07 C 199.29 225.32 199.32 223.83 199.34 223.08 C 199.45 223.83 199.68 225.34 199.80 226.09 C 200.43 226.17 201.70 226.34 202.34 226.42 C 202.25 222.51 202.34 218.60 202.30 214.69 C 203.70 214.66 205.10 214.68 206.50 214.75 C 206.32 216.08 206.12 217.41 205.92 218.74 C 205.67 224.44 205.87 230.14 205.78 235.84 C 206.54 235.60 208.05 235.12 208.80 234.88 L 208.77 235.31 C 208.30 235.52 207.38 235.95 206.92 236.17 C 207.17 239.83 208.02 243.44 208.86 247.01 C 208.47 246.87 207.67 246.61 207.27 246.48 C 207.36 247.39 207.54 249.20 207.64 250.11 C 208.10 250.53 209.03 251.38 209.50 251.80 C 209.20 253.96 210.36 256.87 208.17 258.29 C 208.56 258.38 209.34 258.55 209.74 258.63 C 210.66 261.47 206.48 264.83 205.43 260.86 C 205.46 261.32 205.52 262.24 205.55 262.70 C 202.48 262.57 199.41 262.47 196.34 262.50 C 181.06 261.77 165.72 263.03 150.47 261.38 C 150.54 260.94 150.67 260.07 150.74 259.63 C 149.36 259.89 147.46 259.32 146.78 260.97 C 146.62 265.81 146.57 270.66 146.71 275.50 C 148.70 275.53 150.70 275.27 152.53 274.42 L 151.62 274.90 C 171.39 275.37 191.21 275.02 210.99 275.08 C 274.67 275.42 338.37 275.09 402.05 275.23 C 405.75 275.59 408.54 272.39 409.14 269.01 C 408.62 267.08 408.29 264.88 406.49 263.68 C 404.72 262.09 402.21 262.55 400.05 262.44 C 337.36 262.58 274.67 262.27 211.99 262.59 C 212.25 258.39 210.51 253.24 213.84 249.91 C 215.61 248.30 213.18 246.08 213.42 244.10 C 214.36 241.32 214.70 238.39 214.86 235.48 C 215.60 228.72 215.51 221.82 214.38 215.11 C 216.00 214.99 217.63 214.83 219.25 214.64 C 219.30 217.67 219.29 220.71 219.19 223.74 C 222.29 223.66 225.39 223.63 228.50 223.65 C 228.35 220.87 228.37 218.07 228.76 215.31 C 229.35 215.00 230.52 214.37 231.11 214.05 C 231.87 208.62 232.46 203.15 232.83 197.68 C 235.07 197.54 237.56 197.96 239.51 196.57 C 241.44 195.33 243.67 194.64 245.98 194.74 C 308.96 194.81 371.95 194.74 434.92 194.78 C 437.80 194.69 440.05 197.43 443.00 196.79 C 446.31 196.15 449.63 195.46 453.03 195.62 C 455.92 195.99 459.24 191.79 456.62 189.45 L 456.70 189.10 C 456.07 188.61 455.44 188.12 454.83 187.62 C 448.82 187.59 442.80 187.36 436.80 187.77 C 372.19 187.38 307.53 187.79 242.90 187.56 C 239.66 185.32 236.01 183.86 232.00 184.35 C 231.76 183.71 231.29 182.45 231.06 181.81 C 231.03 180.77 230.73 179.83 230.16 178.98 C 225.08 178.61 219.96 178.89 214.87 178.73 C 213.75 176.83 209.78 177.29 208.02 178.44 C 203.32 179.02 198.57 178.61 193.85 178.93 M 196.27 239.28 C 196.79 239.80 196.79 239.80 196.27 239.28 M 201.20 241.08 C 201.19 244.39 204.27 239.69 201.20 241.08 M 221.23 242.31 C 221.77 242.81 221.77 242.81 221.23 242.31 M 215.21 243.23 C 215.75 243.73 215.75 243.73 215.21 243.23 M 238.04 243.13 C 236.36 246.04 241.35 243.44 238.04 243.13 M 202.16 244.08 C 201.66 245.70 202.23 246.23 203.86 245.68 C 204.35 244.04 203.78 243.51 202.16 244.08 M 218.27 244.30 C 218.81 244.80 218.81 244.80 218.27 244.30 M 223.20 244.29 C 221.69 247.29 226.53 244.40 223.20 244.29 M 226.07 245.26 C 224.60 248.29 229.38 245.33 226.07 245.26 M 195.09 246.18 C 193.65 249.22 198.41 246.21 195.09 246.18 M 243.18 246.33 C 243.70 246.85 243.70 246.85 243.18 246.33 M 235.05 248.33 C 233.60 251.37 238.37 248.38 235.05 248.33 M 198.22 249.27 C 197.76 250.91 198.33 251.44 199.94 250.87 C 200.40 249.22 199.83 248.69 198.22 249.27 M 223.24 250.27 C 223.77 250.77 223.77 250.77 223.24 250.27 M 191.38 251.12 C 191.65 254.43 194.31 249.48 191.38 251.12 M 205.14 252.15 C 203.80 252.83 203.78 253.50 205.09 254.15 C 206.42 253.47 206.44 252.80 205.14 252.15 M 228.24 252.27 C 228.78 252.78 228.78 252.78 228.24 252.27 M 245.09 252.38 C 243.50 255.34 248.40 252.59 245.09 252.38 M 166.14 253.13 C 165.64 254.53 166.09 255.01 167.51 254.57 C 168.01 253.17 167.55 252.69 166.14 253.13 M 183.24 253.21 C 183.74 253.76 183.74 253.76 183.24 253.21 M 214.20 253.21 C 214.73 253.72 214.73 253.72 214.20 253.21 M 224.16 253.33 C 224.68 253.84 224.68 253.84 224.16 253.33 M 172.44 254.99 C 172.38 258.30 175.53 253.64 172.44 254.99 M 213.07 255.12 C 211.58 258.14 216.38 255.20 213.07 255.12 M 191.20 257.19 C 191.72 257.72 191.72 257.72 191.20 257.19 M 201.37 257.25 C 201.88 257.79 201.88 257.79 201.37 257.25 M 214.21 258.28 C 214.74 258.79 214.74 258.79 214.21 258.28 M 219.22 258.07 C 219.31 261.38 222.25 256.59 219.22 258.07 M 138.54 261.23 C 140.00 260.75 143.76 262.01 142.68 259.28 C 140.83 258.91 138.21 258.41 138.54 261.23 M 162.31 259.25 C 162.82 259.79 162.82 259.79 162.31 259.25 M 180.21 259.97 C 180.30 263.29 183.23 258.47 180.21 259.97 M 127.22 263.43 C 126.52 263.25 125.12 262.89 124.42 262.71 L 124.44 262.32 C 122.28 262.11 120.11 261.90 117.94 261.95 C 109.62 262.41 101.30 261.47 92.98 261.85 C 86.83 262.18 80.49 260.81 74.50 262.60 C 73.66 263.11 72.82 263.61 71.98 264.11 C 72.34 267.85 70.56 272.50 73.25 275.56 C 73.52 275.82 74.07 276.34 74.35 276.59 C 86.13 277.04 97.95 276.29 109.72 276.96 C 109.92 277.70 110.32 279.17 110.52 279.90 C 110.71 279.89 111.10 279.87 111.30 279.86 C 114.53 282.04 118.99 280.53 122.70 280.60 C 124.53 279.84 124.27 276.57 124.50 274.71 C 130.22 274.63 135.95 274.41 141.67 274.68 C 142.35 276.79 144.61 276.30 146.30 276.34 C 146.44 271.44 146.43 266.54 146.32 261.64 C 142.18 261.56 138.01 261.80 133.92 261.06 C 131.49 260.57 128.57 261.13 127.22 263.43 M 154.10 277.10 C 153.58 278.72 154.13 279.27 155.77 278.75 C 156.29 277.12 155.73 276.57 154.10 277.10 M 170.25 277.30 C 170.81 277.80 170.81 277.80 170.25 277.30 M 213.12 277.43 C 212.70 278.84 213.19 279.32 214.59 278.89 C 215.00 277.49 214.50 277.00 213.12 277.43 M 160.07 278.10 C 158.43 281.04 163.38 278.38 160.07 278.10 M 188.27 278.26 C 188.77 278.81 188.77 278.81 188.27 278.26 M 175.23 279.38 C 173.61 282.32 178.55 279.61 175.23 279.38 M 204.17 279.27 C 203.32 280.51 203.52 281.31 204.79 281.66 C 205.63 280.41 205.43 279.61 204.17 279.27 M 196.02 280.47 C 194.68 283.56 199.33 280.40 196.02 280.47 M 206.24 280.10 C 206.48 283.40 209.21 278.50 206.24 280.10 M 167.26 282.18 C 166.75 283.81 167.30 284.35 168.93 283.82 C 169.43 282.18 168.88 281.63 167.26 282.18 M 185.44 282.02 C 185.54 285.34 188.47 280.53 185.44 282.02 M 159.28 284.21 C 158.75 285.83 159.29 286.39 160.92 285.87 C 161.45 284.23 160.91 283.68 159.28 284.21 M 209.23 284.26 C 209.73 284.80 209.73 284.80 209.23 284.26 M 193.21 285.06 C 193.31 288.38 196.23 283.58 193.21 285.06 M 178.25 286.17 C 178.78 286.68 178.78 286.68 178.25 286.17 M 209.25 286.38 C 209.84 286.84 209.84 286.84 209.25 286.38 M 199.07 290.21 C 198.56 291.84 199.12 292.39 200.75 291.87 C 201.25 290.23 200.69 289.68 199.07 290.21 M 71.46 292.30 C 71.43 296.86 71.46 301.42 71.43 305.99 C 71.95 305.97 73.00 305.94 73.52 305.93 C 73.46 301.41 73.50 296.88 73.47 292.36 C 72.97 292.35 71.97 292.32 71.46 292.30 M 104.34 292.29 C 104.32 294.69 104.33 297.09 104.36 299.50 C 104.89 299.49 105.95 299.48 106.48 299.47 C 106.48 297.10 106.48 294.74 106.47 292.37 C 105.94 292.35 104.87 292.31 104.34 292.29 M 138.64 292.38 C 138.72 296.88 138.49 301.39 138.73 305.89 C 139.22 305.93 140.19 306.03 140.67 306.07 C 140.67 301.47 140.69 296.87 140.65 292.27 C 140.15 292.30 139.14 292.35 138.64 292.38 M 171.52 292.31 C 171.51 294.70 171.51 297.09 171.52 299.49 C 172.01 299.49 172.99 299.48 173.48 299.48 C 173.49 297.11 173.48 294.73 173.47 292.36 C 172.98 292.35 172.01 292.32 171.52 292.31 M 205.67 292.38 C 205.67 296.88 205.71 301.37 205.62 305.87 C 206.14 305.90 207.16 305.97 207.67 306.01 C 207.67 301.43 207.69 296.85 207.65 292.27 C 207.16 292.30 206.17 292.36 205.67 292.38 M 238.53 292.34 C 238.51 294.72 238.51 297.10 238.52 299.48 C 239.01 299.48 239.99 299.49 240.48 299.49 C 240.48 297.10 240.48 294.72 240.47 292.34 C 239.99 292.34 239.01 292.34 238.53 292.34 M 273.16 291.93 C 272.86 296.62 273.04 301.33 273.00 306.03 C 273.44 306.00 274.31 305.95 274.75 305.93 C 274.64 301.47 274.93 296.99 274.61 292.54 C 274.25 292.39 273.52 292.08 273.16 291.93 M 305.83 299.30 C 306.27 299.38 307.16 299.55 307.61 299.63 C 307.68 297.08 307.70 294.54 307.60 291.99 C 304.35 292.72 306.35 296.90 305.83 299.30 M 340.24 292.40 C 339.67 296.90 340.15 301.48 340.00 306.02 C 340.44 306.00 341.32 305.97 341.76 305.95 C 341.71 301.32 341.80 296.69 341.67 292.07 C 341.32 292.15 340.60 292.31 340.24 292.40 M 373.21 292.44 C 373.26 294.80 371.58 298.92 374.54 299.89 C 374.70 297.27 374.69 294.66 374.62 292.04 C 374.27 292.14 373.56 292.34 373.21 292.44 M 407.13 291.92 C 406.86 296.61 407.04 301.31 407.00 306.00 C 407.49 306.00 408.48 306.00 408.98 306.00 C 408.85 301.48 409.29 296.94 408.76 292.45 C 408.35 292.32 407.53 292.05 407.13 291.92 Z" />
<path fill="#000000" opacity="1.00" d=" M 75.02 23.43 C 78.52 21.18 82.13 19.10 85.73 17.01 C 89.15 19.15 92.59 21.28 96.07 23.32 C 92.72 25.55 89.21 27.52 85.87 29.75 C 82.19 27.74 78.69 25.44 75.02 23.43 Z" />
<path fill="#000000" opacity="1.00" d=" M 72.12 25.60 C 76.53 28.45 81.12 31.01 85.52 33.89 C 90.11 31.31 94.53 28.42 99.01 25.63 C 99.01 31.16 98.96 36.69 99.05 42.21 C 94.64 45.33 90.12 48.29 85.55 51.15 C 81.23 48.13 76.76 45.32 72.27 42.57 C 72.03 36.92 72.24 31.26 72.12 25.60 Z" />
<path fill="#000000" opacity="1.00" d=" M 55.52 34.84 C 59.83 32.32 64.16 29.83 68.40 27.20 C 68.26 32.89 68.33 38.59 68.35 44.29 C 73.64 47.70 78.79 51.32 84.01 54.83 C 84.11 60.14 83.75 65.48 84.17 70.78 C 85.36 72.01 86.49 71.93 87.54 70.54 C 87.92 65.17 87.49 59.77 87.76 54.39 C 92.89 51.30 97.64 47.61 102.73 44.46 C 102.86 38.80 102.79 33.14 102.78 27.49 C 106.93 30.12 111.10 32.72 115.32 35.24 C 115.35 58.80 115.27 82.36 115.36 105.92 C 105.76 100.13 96.31 94.08 86.68 88.33 C 85.53 87.39 84.26 88.75 83.20 89.17 C 73.94 94.80 64.63 100.35 55.37 105.98 C 55.64 82.27 55.35 58.55 55.52 34.84 Z" />
<path fill="#000000" opacity="1.00" d=" M 212.91 32.95 L 214.06 32.88 C 214.08 34.07 214.11 35.26 214.14 36.45 C 216.07 36.91 217.88 37.70 219.62 38.65 C 220.39 37.83 221.17 37.00 221.96 36.18 C 224.38 37.62 222.81 39.06 221.33 40.38 C 222.29 42.11 223.09 43.92 223.54 45.86 C 224.72 45.89 225.89 45.92 227.07 45.94 C 227.08 46.54 227.09 47.72 227.09 48.32 C 225.92 48.32 224.75 48.33 223.58 48.33 C 223.04 50.28 222.32 52.16 221.38 53.95 C 222.87 55.23 224.38 56.61 221.93 58.03 C 221.41 57.46 220.37 56.33 219.85 55.76 C 217.95 56.55 216.03 57.31 214.09 58.02 C 214.09 58.82 214.08 60.42 214.07 61.21 L 212.92 61.18 C 212.91 58.81 212.91 56.45 212.93 54.09 C 217.06 53.58 220.87 49.33 219.19 45.10 C 218.48 42.14 215.59 40.78 212.93 40.02 C 212.91 37.66 212.91 35.30 212.91 32.95 Z" />
<path fill="#000000" opacity="1.00" d=" M 177.81 37.86 C 181.75 37.64 186.88 38.29 188.56 42.49 C 189.89 46.50 189.96 51.65 186.79 54.86 C 184.24 56.80 180.83 56.82 177.78 56.95 C 177.83 50.58 177.79 44.22 177.81 37.86 Z" />
<path fill="#000000" opacity="1.00" d=" M 204.25 44.22 C 205.19 41.43 207.72 39.83 210.17 38.51 C 210.22 44.34 210.21 50.18 210.18 56.01 C 205.40 54.48 202.30 49.01 204.25 44.22 Z" />
<path fill="#000000" opacity="1.00" d=" M 212.97 42.74 C 216.07 43.78 217.62 46.96 216.07 49.95 C 215.03 50.44 213.98 50.93 212.94 51.42 C 212.90 48.53 212.89 45.63 212.97 42.74 Z" />
<path fill="#000000" opacity="1.00" d=" M 181.77 74.47 C 183.57 74.48 185.37 74.49 187.18 74.48 C 188.46 76.39 189.20 79.52 186.87 80.97 C 185.20 81.27 183.49 81.20 181.80 81.27 C 181.79 79.00 181.79 76.73 181.77 74.47 Z" />
<path fill="#000000" opacity="1.00" d=" M 155.08 89.61 C 156.54 86.16 158.02 82.72 159.53 79.30 C 160.75 82.81 162.27 86.20 163.81 89.58 C 160.90 89.50 157.99 89.51 155.08 89.61 Z" />
<path fill="#000000" opacity="1.00" d=" M 181.78 85.66 C 184.20 85.68 186.63 85.54 189.03 85.86 C 191.34 87.57 190.25 90.77 190.10 93.17 C 187.34 93.52 184.55 93.57 181.77 93.55 C 181.79 90.92 181.80 88.29 181.78 85.66 Z" />
<path fill="#000000" opacity="1.00" d=" M 56.34 109.58 C 66.35 104.05 75.78 97.49 85.77 91.96 C 95.23 97.60 104.27 103.94 113.75 109.56 C 104.51 115.67 95.01 121.40 85.54 127.15 C 75.93 121.09 65.94 115.66 56.34 109.58 Z" />
<path fill="#000000" opacity="1.00" d=" M 409.94 117.04 C 406.62 113.92 408.71 108.09 412.67 106.55 C 413.55 106.57 415.31 106.61 416.19 106.63 C 417.34 107.62 418.42 108.68 419.43 109.81 C 419.42 111.73 419.44 113.65 419.47 115.57 C 417.59 118.86 412.59 120.10 409.94 117.04 Z" />
<path fill="#000000" opacity="1.00" d=" M 212.08 264.30 C 275.07 264.29 338.06 264.31 401.05 264.29 C 402.35 264.41 403.88 264.15 405.02 264.98 C 408.19 266.97 407.23 273.00 403.18 273.19 C 339.51 273.54 275.81 273.01 212.14 273.45 C 211.96 270.40 212.34 267.34 212.08 264.30 M 214.28 267.24 C 214.78 267.77 214.78 267.77 214.28 267.24 M 232.29 268.16 C 232.79 268.70 232.79 268.70 232.29 268.16 Z" />
</g>
<g id="#084103ff">
<path fill="#084103" opacity="1.00" d=" M 1.09 0.00 L 3.97 0.00 C 3.86 1.82 1.26 1.75 1.09 0.00 Z" />
</g>
<g id="#c8ccc8ff">
<path fill="#c8ccc8" opacity="1.00" d=" M 51.10 12.85 C 52.54 12.39 54.02 10.54 55.59 11.59 C 60.97 14.77 66.28 18.08 71.66 21.27 C 76.41 18.54 80.84 15.14 85.87 12.98 C 90.64 15.43 94.95 18.69 99.70 21.21 C 105.11 17.70 110.64 14.38 116.12 10.98 C 117.24 11.63 118.36 12.28 119.48 12.93 C 114.09 16.63 108.27 19.65 102.94 23.43 C 108.43 26.90 114.26 29.90 119.42 33.84 C 119.56 59.55 119.42 85.26 119.49 110.97 C 108.81 117.50 98.02 123.86 87.29 130.31 C 86.37 131.04 85.42 131.10 84.43 130.49 C 73.39 124.12 62.46 117.54 51.38 111.25 C 51.26 85.33 51.34 59.41 51.34 33.49 C 56.98 30.11 62.62 26.71 68.23 23.27 C 62.50 19.82 56.73 16.45 51.10 12.85 M 75.02 23.43 C 78.69 25.44 82.19 27.74 85.87 29.75 C 89.21 27.52 92.72 25.55 96.07 23.32 C 92.59 21.28 89.15 19.15 85.73 17.01 C 82.13 19.10 78.52 21.18 75.02 23.43 M 72.12 25.60 C 72.24 31.26 72.03 36.92 72.27 42.57 C 76.76 45.32 81.23 48.13 85.55 51.15 C 90.12 48.29 94.64 45.33 99.05 42.21 C 98.96 36.69 99.01 31.16 99.01 25.63 C 94.53 28.42 90.11 31.31 85.52 33.89 C 81.12 31.01 76.53 28.45 72.12 25.60 M 55.52 34.84 C 55.35 58.55 55.64 82.27 55.37 105.98 C 64.63 100.35 73.94 94.80 83.20 89.17 C 84.26 88.75 85.53 87.39 86.68 88.33 C 96.31 94.08 105.76 100.13 115.36 105.92 C 115.27 82.36 115.35 58.80 115.32 35.24 C 111.10 32.72 106.93 30.12 102.78 27.49 C 102.79 33.14 102.86 38.80 102.73 44.46 C 97.64 47.61 92.89 51.30 87.76 54.39 C 87.49 59.77 87.92 65.17 87.54 70.54 C 86.49 71.93 85.36 72.01 84.17 70.78 C 83.75 65.48 84.11 60.14 84.01 54.83 C 78.79 51.32 73.64 47.70 68.35 44.29 C 68.33 38.59 68.26 32.89 68.40 27.20 C 64.16 29.83 59.83 32.32 55.52 34.84 M 56.34 109.58 C 65.94 115.66 75.93 121.09 85.54 127.15 C 95.01 121.40 104.51 115.67 113.75 109.56 C 104.27 103.94 95.23 97.60 85.77 91.96 C 75.78 97.49 66.35 104.05 56.34 109.58 Z" />
<path fill="#c8ccc8" opacity="1.00" d=" M 210.20 28.17 C 210.84 28.14 212.13 28.09 212.78 28.06 C 212.83 28.62 212.93 29.75 212.98 30.32 C 214.24 30.32 215.51 30.33 216.78 30.33 C 216.79 31.54 216.79 32.75 216.80 33.96 C 217.35 34.30 218.44 34.98 218.98 35.32 C 219.91 34.38 220.84 33.43 221.77 32.49 C 223.72 34.32 225.66 36.15 227.61 37.99 C 226.57 39.02 225.54 40.06 224.51 41.09 C 225.42 43.32 227.68 43.32 229.76 43.29 C 229.76 45.85 229.76 48.41 229.78 50.97 C 228.48 50.98 227.18 51.00 225.89 51.02 C 225.51 51.88 225.13 52.74 224.75 53.59 C 225.69 54.48 226.64 55.36 227.58 56.25 C 225.71 58.13 223.84 60.01 221.96 61.89 C 220.54 60.38 218.98 58.53 216.78 59.90 C 216.79 61.23 216.80 62.56 216.81 63.90 C 215.52 63.90 214.23 63.91 212.94 63.92 C 212.93 64.45 212.90 65.49 212.89 66.01 C 212.22 66.00 210.87 65.98 210.19 65.98 C 210.19 64.34 210.19 62.70 210.18 61.07 C 204.20 59.66 198.84 54.44 198.98 48.02 C 198.24 41.25 203.67 34.96 210.19 33.78 C 210.19 31.91 210.20 30.04 210.20 28.17 M 212.91 32.95 C 212.91 35.30 212.91 37.66 212.93 40.02 C 215.59 40.78 218.48 42.14 219.19 45.10 C 220.87 49.33 217.06 53.58 212.93 54.09 C 212.91 56.45 212.91 58.81 212.92 61.18 L 214.07 61.21 C 214.08 60.42 214.09 58.82 214.09 58.02 C 216.03 57.31 217.95 56.55 219.85 55.76 C 220.37 56.33 221.41 57.46 221.93 58.03 C 224.38 56.61 222.87 55.23 221.38 53.95 C 222.32 52.16 223.04 50.28 223.58 48.33 C 224.75 48.33 225.92 48.32 227.09 48.32 C 227.09 47.72 227.08 46.54 227.07 45.94 C 225.89 45.92 224.72 45.89 223.54 45.86 C 223.09 43.92 222.29 42.11 221.33 40.38 C 222.81 39.06 224.38 37.62 221.96 36.18 C 221.17 37.00 220.39 37.83 219.62 38.65 C 217.88 37.70 216.07 36.91 214.14 36.45 C 214.11 35.26 214.08 34.07 214.06 32.88 L 212.91 32.95 M 204.25 44.22 C 202.30 49.01 205.40 54.48 210.18 56.01 C 210.21 50.18 210.22 44.34 210.17 38.51 C 207.72 39.83 205.19 41.43 204.25 44.22 M 212.97 42.74 C 212.89 45.63 212.90 48.53 212.94 51.42 C 213.98 50.93 215.03 50.44 216.07 49.95 C 217.62 46.96 216.07 43.78 212.97 42.74 Z" />
<path fill="#c8ccc8" opacity="1.00" d=" M 126.21 33.33 C 127.69 33.33 129.18 33.33 130.67 33.34 C 130.64 41.12 130.77 48.91 130.59 56.70 C 134.52 56.78 138.45 56.77 142.39 56.74 C 142.44 58.10 142.48 59.46 142.53 60.83 C 137.09 60.91 131.64 60.88 126.20 60.85 C 126.21 51.67 126.18 42.50 126.21 33.33 Z" />
<path fill="#c8ccc8" opacity="1.00" d=" M 147.33 33.33 C 148.78 33.33 150.22 33.33 151.67 33.33 C 151.78 39.57 151.48 45.82 151.80 52.06 C 152.24 57.83 161.72 58.32 163.16 52.94 C 163.58 46.42 163.19 39.87 163.33 33.34 C 164.85 33.33 166.37 33.32 167.89 33.32 C 167.89 39.23 167.99 45.14 167.87 51.04 C 167.86 55.49 164.75 60.15 160.13 60.74 C 157.42 60.90 154.46 61.20 152.00 59.81 C 148.91 58.10 147.20 54.47 147.31 51.00 C 147.31 45.11 147.33 39.22 147.33 33.33 Z" />
<path fill="#c8ccc8" opacity="1.00" d=" M 173.33 33.34 C 178.45 33.32 183.97 32.73 188.55 35.54 C 192.78 38.11 194.00 43.48 193.83 48.10 C 193.77 52.31 192.33 57.13 188.42 59.31 C 183.81 61.84 178.34 60.59 173.33 60.85 C 173.33 51.68 173.32 42.51 173.33 33.34 M 177.81 37.86 C 177.79 44.22 177.83 50.58 177.78 56.95 C 180.83 56.82 184.24 56.80 186.79 54.86 C 189.96 51.65 189.89 46.50 188.56 42.49 C 186.88 38.29 181.75 37.64 177.81 37.86 Z" />
<path fill="#c8ccc8" opacity="1.00" d=" M 126.20 70.20 C 127.69 70.20 129.18 70.20 130.67 70.21 C 130.68 77.88 130.68 85.55 130.67 93.22 C 134.61 93.19 138.55 93.19 142.49 93.22 C 142.48 94.70 142.47 96.18 142.46 97.66 C 137.04 97.69 131.63 97.67 126.21 97.67 C 126.19 88.51 126.20 79.35 126.20 70.20 Z" />
<path fill="#c8ccc8" opacity="1.00" d=" M 177.10 70.20 C 181.05 70.33 185.05 69.87 188.97 70.46 C 193.69 72.34 193.59 78.54 191.87 82.52 C 195.66 84.68 195.21 89.51 194.77 93.20 C 194.38 95.55 192.29 97.37 189.95 97.56 C 185.68 97.86 181.39 97.59 177.11 97.69 C 177.06 88.52 177.09 79.36 177.10 70.20 M 181.77 74.47 C 181.79 76.73 181.79 79.00 181.80 81.27 C 183.49 81.20 185.20 81.27 186.87 80.97 C 189.20 79.52 188.46 76.39 187.18 74.48 C 185.37 74.49 183.57 74.48 181.77 74.47 M 181.78 85.66 C 181.80 88.29 181.79 90.92 181.77 93.55 C 184.55 93.57 187.34 93.52 190.10 93.17 C 190.25 90.77 191.34 87.57 189.03 85.86 C 186.63 85.54 184.20 85.68 181.78 85.66 Z" />
<path fill="#c8ccc8" opacity="1.00" d=" M 147.19 97.64 C 151.38 88.51 154.99 79.09 159.56 70.13 C 163.57 79.31 167.64 88.46 171.65 97.65 C 170.21 97.66 168.77 97.67 167.34 97.68 C 166.67 96.37 166.01 95.05 165.34 93.74 C 161.31 93.83 157.27 93.79 153.24 93.82 C 152.69 95.12 152.13 96.42 151.57 97.71 C 150.11 97.69 148.65 97.67 147.19 97.64 M 155.08 89.61 C 157.99 89.51 160.90 89.50 163.81 89.58 C 162.27 86.20 160.75 82.81 159.53 79.30 C 158.02 82.72 156.54 86.16 155.08 89.61 Z" />
<path fill="#c8ccc8" opacity="1.00" d=" M 126.18 107.01 C 127.68 107.01 129.18 107.01 130.68 107.02 C 130.69 108.33 130.69 109.65 130.70 110.96 C 129.20 110.98 127.69 110.99 126.19 111.00 C 126.19 109.67 126.19 108.34 126.18 107.01 Z" />
<path fill="#c8ccc8" opacity="1.00" d=" M 196.94 226.66 C 198.94 226.81 202.98 225.33 202.43 228.73 C 200.72 228.45 199.01 228.31 197.30 228.10 C 197.21 227.74 197.03 227.02 196.94 226.66 Z" />
</g>
<g id="#f8fcf8ff">
<path fill="#f8fcf8" opacity="1.00" d=" M 370.88 24.52 C 374.70 23.40 379.15 22.45 382.75 24.75 C 381.21 28.40 378.93 31.71 377.64 35.46 C 376.89 40.03 377.73 44.68 378.98 49.09 C 379.51 50.98 380.07 52.87 380.58 54.77 C 381.48 58.75 382.48 62.95 381.41 66.99 C 378.92 69.31 375.53 70.17 372.50 71.56 C 366.04 74.07 359.22 77.70 352.08 76.03 C 346.79 74.72 340.99 74.09 336.44 70.86 C 335.33 66.35 334.95 61.67 333.64 57.19 C 332.46 52.47 330.00 47.97 330.24 42.98 C 330.46 37.42 332.34 32.12 333.31 26.68 L 333.55 25.58 C 334.43 25.60 336.19 25.65 337.07 25.68 C 341.59 27.03 346.26 27.91 350.96 28.37 C 357.74 28.06 364.41 26.51 370.88 24.52 Z" />
<path fill="#f8fcf8" opacity="1.00" d=" M 326.88 26.63 C 328.35 26.17 329.83 25.72 331.37 25.50 C 332.77 32.55 327.44 38.81 328.80 45.83 C 330.98 54.56 334.93 63.15 334.51 72.31 C 333.04 74.27 330.28 74.72 327.98 74.72 C 323.60 74.57 321.21 69.78 317.00 69.19 C 313.37 69.67 309.87 71.52 306.14 70.55 L 305.06 70.40 C 303.66 67.73 301.62 65.47 300.22 62.80 C 296.81 56.82 295.87 49.55 297.65 42.89 C 298.62 40.76 301.01 40.06 302.93 39.06 C 308.16 36.72 312.50 32.76 317.93 30.82 C 321.00 29.63 323.96 28.17 326.88 26.63 Z" />
<path fill="#f8fcf8" opacity="1.00" d=" M 382.88 25.69 C 385.18 24.96 387.66 25.01 389.78 26.26 C 393.98 28.26 400.06 28.01 402.00 33.10 C 406.48 35.62 411.32 32.73 415.93 34.09 C 419.79 34.90 424.22 35.49 426.20 39.44 C 424.48 39.75 422.71 40.62 420.96 40.07 C 418.79 39.79 418.14 37.17 416.02 36.81 C 412.03 36.13 408.12 37.77 404.12 37.60 C 405.23 41.73 406.08 45.93 406.83 50.15 C 407.15 51.15 407.46 52.17 407.75 53.19 C 408.25 54.07 408.76 54.95 409.27 55.83 C 409.54 56.34 410.10 57.37 410.37 57.89 C 411.91 63.49 404.62 64.91 403.86 69.79 C 405.82 67.49 407.76 65.15 410.00 63.11 C 412.66 66.15 414.55 69.89 418.13 72.03 C 419.12 74.26 419.02 77.32 417.31 79.25 C 415.25 81.82 414.12 84.92 413.18 88.04 C 412.69 88.89 412.17 89.73 411.63 90.56 C 406.75 90.88 401.83 90.81 396.96 90.49 C 398.85 87.14 402.42 84.77 402.66 80.62 C 399.98 78.90 399.89 75.94 400.69 73.11 C 400.34 73.76 399.66 75.06 399.32 75.71 C 393.31 75.06 387.13 72.43 382.99 67.99 C 383.08 64.43 383.97 60.72 382.51 57.31 C 381.60 54.84 380.62 52.39 380.17 49.78 C 377.89 43.44 376.89 35.91 381.17 30.16 C 381.74 28.67 382.33 27.19 382.88 25.69 Z" />
<path fill="#f8fcf8" opacity="1.00" d=" M 284.94 46.75 C 289.11 46.53 292.33 43.12 296.51 43.08 C 296.38 49.02 295.24 55.42 298.15 60.91 C 300.06 65.05 303.24 68.35 305.77 72.08 C 304.82 73.27 303.84 74.51 302.18 74.57 C 296.13 76.56 293.36 84.04 286.79 85.00 C 286.29 86.11 285.79 87.23 285.32 88.36 C 281.84 89.96 277.15 92.14 273.77 89.28 C 271.86 88.23 270.62 86.46 270.16 84.34 C 268.01 81.99 265.39 80.04 263.51 77.42 C 260.89 74.25 260.14 70.11 259.22 66.22 C 259.68 66.28 260.62 66.40 261.08 66.46 C 262.88 69.76 266.63 70.94 269.71 72.68 C 269.62 72.20 269.44 71.24 269.35 70.76 C 268.78 69.55 268.24 68.34 267.69 67.13 C 267.66 65.93 267.64 64.73 267.63 63.52 C 267.88 63.24 268.38 62.66 268.63 62.38 C 270.30 65.18 273.58 65.85 276.60 65.83 C 276.66 65.10 276.77 63.62 276.82 62.89 C 277.66 61.30 277.28 59.56 276.71 57.96 C 276.94 57.20 277.41 55.68 277.64 54.92 C 275.36 53.01 273.89 50.47 273.98 47.42 C 275.87 47.49 278.08 47.15 279.45 48.87 C 279.43 47.48 279.52 46.11 279.71 44.75 C 281.72 44.27 283.10 46.31 284.94 46.75 Z" />
<path fill="#f8fcf8" opacity="1.00" d=" M 377.35 70.44 C 379.31 69.87 381.71 68.57 383.44 70.40 C 387.61 73.72 392.59 75.78 397.80 76.79 C 397.70 78.24 397.60 79.69 397.50 81.14 C 396.22 81.60 394.97 82.10 393.74 82.63 C 390.50 86.08 385.91 87.01 381.44 87.45 C 381.56 88.27 381.81 89.90 381.93 90.72 C 377.23 90.70 372.52 90.75 367.83 90.67 C 367.98 87.19 371.92 86.11 372.68 82.93 C 373.67 79.75 376.98 78.45 379.39 76.55 C 379.85 75.18 378.08 74.19 377.47 73.13 C 377.45 72.78 377.40 72.08 377.38 71.73 C 377.37 71.41 377.36 70.76 377.35 70.44 Z" />
<path fill="#f8fcf8" opacity="1.00" d=" M 307.85 71.86 C 311.30 72.16 314.57 70.85 317.96 70.62 C 321.12 72.56 323.84 75.32 327.62 76.10 C 327.60 76.81 327.56 78.25 327.54 78.96 C 327.84 83.45 323.46 86.25 323.05 90.53 C 318.52 90.79 313.94 90.95 309.43 90.37 C 310.69 89.37 312.35 88.76 313.39 87.47 C 313.72 85.49 314.11 83.33 313.50 81.38 C 311.85 78.93 309.70 76.87 307.73 74.69 C 307.76 73.98 307.82 72.57 307.85 71.86 Z" />
<path fill="#f8fcf8" opacity="1.00" d=" M 329.25 77.21 C 332.36 74.03 335.07 81.34 338.17 77.39 C 342.12 80.55 345.83 85.22 345.53 90.53 C 343.96 90.58 342.39 90.57 340.83 90.51 C 339.96 89.89 339.09 89.27 338.23 88.65 C 334.30 88.30 330.36 87.61 326.69 86.12 C 326.62 83.09 328.62 80.22 329.25 77.21 Z" />
<path fill="#f8fcf8" opacity="1.00" d=" M 262.56 100.37 C 265.12 100.21 267.69 100.21 270.24 100.47 C 270.43 104.58 269.42 108.97 271.16 112.85 C 271.77 114.00 272.36 115.17 272.92 116.36 C 275.50 111.31 274.23 105.65 275.29 100.31 C 277.69 100.37 280.10 100.39 282.50 100.41 C 282.44 105.72 281.84 111.28 284.80 115.99 C 285.54 113.99 286.47 112.06 287.20 110.05 C 287.55 106.84 287.29 103.61 287.35 100.39 C 289.87 100.65 292.87 99.73 295.11 100.89 C 295.26 103.59 295.35 106.31 295.06 109.00 C 293.81 113.12 291.51 116.82 289.75 120.74 C 288.89 122.24 288.69 124.40 287.10 125.31 C 285.29 125.46 283.47 125.39 281.65 125.39 C 281.17 124.18 280.69 122.98 280.23 121.76 C 279.72 120.47 279.24 119.16 278.75 117.86 C 277.43 120.26 277.11 123.33 275.20 125.33 C 273.38 125.45 271.55 125.40 269.74 125.40 C 269.50 124.83 269.02 123.68 268.78 123.10 C 268.26 121.97 267.73 120.85 267.22 119.72 C 265.66 116.55 264.19 113.34 262.63 110.17 C 262.61 106.90 262.62 103.63 262.56 100.37 Z" />
<path fill="#f8fcf8" opacity="1.00" d=" M 304.38 100.40 C 306.83 100.14 309.29 100.28 311.74 100.31 C 312.10 101.31 312.45 102.31 312.80 103.32 C 313.94 106.18 315.02 109.06 316.18 111.91 C 316.71 113.37 317.26 114.83 317.78 116.31 C 318.27 117.50 318.75 118.70 319.26 119.89 C 319.94 121.68 320.53 123.51 321.01 125.37 C 318.30 125.40 315.60 125.40 312.90 125.33 C 312.65 124.11 312.40 122.88 312.15 121.65 C 309.40 121.63 306.66 121.63 303.91 121.71 C 303.71 122.93 303.51 124.15 303.30 125.36 C 300.67 125.40 298.04 125.39 295.41 125.35 C 295.89 123.87 296.37 122.39 296.82 120.89 C 297.91 118.27 298.97 115.63 299.81 112.92 C 301.45 108.79 302.66 104.49 304.38 100.40 M 307.90 109.93 C 307.41 111.74 306.88 113.55 306.35 115.35 C 307.50 115.34 308.66 115.33 309.82 115.33 C 309.23 113.51 308.61 111.70 307.90 109.93 Z" />
<path fill="#f8fcf8" opacity="1.00" d=" M 322.33 100.26 C 324.71 100.35 327.18 99.94 329.51 100.57 C 331.24 102.52 332.60 104.76 334.23 106.79 C 335.87 109.00 337.47 111.25 339.22 113.38 C 339.33 109.04 339.27 104.69 339.28 100.35 C 341.66 100.35 344.05 100.32 346.45 100.34 C 346.33 108.68 346.43 117.02 346.39 125.36 C 344.23 125.38 342.07 125.50 339.92 125.28 C 336.53 121.43 333.03 117.47 330.64 112.89 C 329.10 116.89 329.95 121.23 329.74 125.40 C 327.28 125.39 324.82 125.39 322.36 125.40 C 322.28 117.02 322.33 108.64 322.33 100.26 Z" />
<path fill="#f8fcf8" opacity="1.00" d=" M 349.47 100.29 C 351.91 100.26 354.36 100.25 356.80 100.23 C 357.40 103.24 357.22 106.31 357.33 109.36 C 360.11 109.27 362.89 109.27 365.67 109.34 C 365.75 106.36 365.75 103.38 365.70 100.40 C 368.33 100.24 370.96 100.23 373.59 100.33 C 373.48 108.68 373.59 117.04 373.52 125.39 C 370.93 125.40 368.33 125.39 365.74 125.33 C 365.71 122.09 365.70 118.85 365.67 115.61 C 362.89 115.67 360.12 115.66 357.35 115.61 C 357.32 118.83 357.32 122.06 357.33 125.29 C 354.72 125.39 352.12 125.40 349.51 125.41 C 349.43 117.03 349.52 108.66 349.47 100.29 Z" />
<path fill="#f8fcf8" opacity="1.00" d=" M 383.61 100.26 C 386.12 100.25 388.64 100.26 391.15 100.46 C 391.68 102.32 392.39 104.13 393.13 105.93 C 395.65 112.41 398.30 118.84 400.72 125.37 C 397.99 125.39 395.27 125.39 392.54 125.41 C 392.14 124.15 391.73 122.89 391.36 121.63 C 388.79 121.64 386.22 121.64 383.66 121.63 C 383.23 122.90 382.79 124.16 382.35 125.42 C 379.90 125.39 377.46 125.39 375.02 125.37 C 375.33 123.93 375.68 122.49 376.08 121.07 C 376.46 120.09 376.85 119.10 377.24 118.11 C 378.05 115.67 378.99 113.28 379.81 110.84 C 380.25 109.61 380.69 108.38 381.15 107.15 C 382.01 104.87 382.83 102.57 383.61 100.26 M 385.46 115.34 C 386.84 115.33 388.22 115.33 389.61 115.34 C 389.33 114.59 389.05 113.85 388.78 113.11 C 388.26 111.71 387.70 110.32 387.18 108.93 C 386.82 111.11 386.31 113.28 385.46 115.34 Z" />
<path fill="#f8fcf8" opacity="1.00" d=" M 402.66 105.87 C 404.48 102.79 407.57 100.92 410.84 99.66 C 413.99 99.28 417.20 99.38 420.18 100.60 C 422.89 102.45 425.00 104.98 426.42 107.95 C 427.34 113.55 427.02 120.33 421.59 123.58 C 421.18 124.47 416.75 124.98 419.80 125.36 C 415.34 125.71 410.19 126.82 406.50 123.53 C 401.47 120.14 400.46 113.41 401.69 107.86 C 401.93 107.36 402.42 106.37 402.66 105.87 M 409.94 117.04 C 412.59 120.10 417.59 118.86 419.47 115.57 C 419.44 113.65 419.42 111.73 419.43 109.81 C 418.42 108.68 417.34 107.62 416.19 106.63 C 415.31 106.61 413.55 106.57 412.67 106.55 C 408.71 108.09 406.62 113.92 409.94 117.04 Z" />
<path fill="#f8fcf8" opacity="1.00" d=" M 196.88 215.24 C 197.47 215.23 198.67 215.22 199.27 215.21 C 199.21 216.62 199.14 218.03 199.07 219.44 L 199.96 219.29 C 199.85 217.82 199.77 216.35 199.71 214.88 C 200.36 214.83 201.66 214.74 202.30 214.69 C 202.34 218.60 202.25 222.51 202.34 226.42 C 201.70 226.34 200.43 226.17 199.80 226.09 C 199.68 225.34 199.45 223.83 199.34 223.08 C 199.32 223.83 199.29 225.32 199.27 226.07 C 198.68 226.13 197.49 226.26 196.89 226.33 C 196.73 222.63 196.84 218.93 196.88 215.24 M 199.29 220.35 C 199.83 220.98 199.83 220.98 199.29 220.35 M 199.40 222.16 C 199.95 222.79 199.95 222.79 199.40 222.16 Z" />
<path fill="#f8fcf8" opacity="1.00" d=" M 71.46 292.30 C 71.97 292.32 72.97 292.35 73.47 292.36 C 73.50 296.88 73.46 301.41 73.52 305.93 C 73.00 305.94 71.95 305.97 71.43 305.99 C 71.46 301.42 71.43 296.86 71.46 292.30 Z" />
<path fill="#f8fcf8" opacity="1.00" d=" M 104.34 292.29 C 104.87 292.31 105.94 292.35 106.47 292.37 C 106.48 294.74 106.48 297.10 106.48 299.47 C 105.95 299.48 104.89 299.49 104.36 299.50 C 104.33 297.09 104.32 294.69 104.34 292.29 Z" />
<path fill="#f8fcf8" opacity="1.00" d=" M 138.64 292.38 C 139.14 292.35 140.15 292.30 140.65 292.27 C 140.69 296.87 140.67 301.47 140.67 306.07 C 140.19 306.03 139.22 305.93 138.73 305.89 C 138.49 301.39 138.72 296.88 138.64 292.38 Z" />
<path fill="#f8fcf8" opacity="1.00" d=" M 171.52 292.31 C 172.01 292.32 172.98 292.35 173.47 292.36 C 173.48 294.73 173.49 297.11 173.48 299.48 C 172.99 299.48 172.01 299.49 171.52 299.49 C 171.51 297.09 171.51 294.70 171.52 292.31 Z" />
<path fill="#f8fcf8" opacity="1.00" d=" M 205.67 292.38 C 206.17 292.36 207.16 292.30 207.65 292.27 C 207.69 296.85 207.67 301.43 207.67 306.01 C 207.16 305.97 206.14 305.90 205.62 305.87 C 205.71 301.37 205.67 296.88 205.67 292.38 Z" />
<path fill="#f8fcf8" opacity="1.00" d=" M 238.53 292.34 C 239.01 292.34 239.99 292.34 240.47 292.34 C 240.48 294.72 240.48 297.10 240.48 299.49 C 239.99 299.49 239.01 299.48 238.52 299.48 C 238.51 297.10 238.51 294.72 238.53 292.34 Z" />
<path fill="#f8fcf8" opacity="1.00" d=" M 273.16 291.93 C 273.52 292.08 274.25 292.39 274.61 292.54 C 274.93 296.99 274.64 301.47 274.75 305.93 C 274.31 305.95 273.44 306.00 273.00 306.03 C 273.04 301.33 272.86 296.62 273.16 291.93 Z" />
<path fill="#f8fcf8" opacity="1.00" d=" M 305.83 299.30 C 306.35 296.90 304.35 292.72 307.60 291.99 C 307.70 294.54 307.68 297.08 307.61 299.63 C 307.16 299.55 306.27 299.38 305.83 299.30 Z" />
<path fill="#f8fcf8" opacity="1.00" d=" M 340.24 292.40 C 340.60 292.31 341.32 292.15 341.67 292.07 C 341.80 296.69 341.71 301.32 341.76 305.95 C 341.32 305.97 340.44 306.00 340.00 306.02 C 340.15 301.48 339.67 296.90 340.24 292.40 Z" />
<path fill="#f8fcf8" opacity="1.00" d=" M 373.21 292.44 C 373.56 292.34 374.27 292.14 374.62 292.04 C 374.69 294.66 374.70 297.27 374.54 299.89 C 371.58 298.92 373.26 294.80 373.21 292.44 Z" />
</g>
<g id="#505450ff">
<path fill="#505450" opacity="1.00" d=" M 331.37 25.50 C 331.86 25.80 332.83 26.39 333.31 26.68 C 332.34 32.12 330.46 37.42 330.24 42.98 C 330.00 47.97 332.46 52.47 333.64 57.19 C 334.95 61.67 335.33 66.35 336.44 70.86 C 340.99 74.09 346.79 74.72 352.08 76.03 C 359.22 77.70 366.04 74.07 372.50 71.56 C 375.53 70.17 378.92 69.31 381.41 66.99 C 382.48 62.95 381.48 58.75 380.58 54.77 C 381.26 55.58 382.02 56.35 382.51 57.31 C 383.97 60.72 383.08 64.43 382.99 67.99 C 387.13 72.43 393.31 75.06 399.32 75.71 C 399.75 77.75 398.46 79.47 397.50 81.14 C 397.60 79.69 397.70 78.24 397.80 76.79 C 392.59 75.78 387.61 73.72 383.44 70.40 C 381.71 68.57 379.31 69.87 377.35 70.44 C 377.36 70.76 377.37 71.41 377.38 71.73 C 376.86 71.60 375.81 71.33 375.28 71.19 C 368.86 73.99 362.27 77.42 355.06 77.05 C 348.38 76.69 341.85 74.70 335.83 71.84 C 334.50 73.18 333.16 74.51 331.85 75.87 C 330.59 76.01 329.34 76.13 328.09 76.24 C 328.11 76.90 328.14 78.21 328.15 78.87 L 327.54 78.96 C 327.56 78.25 327.60 76.81 327.62 76.10 C 323.84 75.32 321.12 72.56 317.96 70.62 C 314.57 70.85 311.30 72.16 307.85 71.86 C 307.82 72.57 307.76 73.98 307.73 74.69 C 307.19 73.31 306.66 71.93 306.14 70.55 C 309.87 71.52 313.37 69.67 317.00 69.19 C 321.21 69.78 323.60 74.57 327.98 74.72 C 330.28 74.72 333.04 74.27 334.51 72.31 C 334.93 63.15 330.98 54.56 328.80 45.83 C 327.44 38.81 332.77 32.55 331.37 25.50 Z" />
</g>
<g id="#080c08ff">
<path fill="#080c08" opacity="1.00" d=" M 385.46 115.34 C 386.31 113.28 386.82 111.11 387.18 108.93 C 387.70 110.32 388.26 111.71 388.78 113.11 C 389.05 113.85 389.33 114.59 389.61 115.34 C 388.22 115.33 386.84 115.33 385.46 115.34 Z" />
</g>
<g id="#081008ff">
<path fill="#081008" opacity="1.00" d=" M 307.90 109.93 C 308.61 111.70 309.23 113.51 309.82 115.33 C 308.66 115.33 307.50 115.34 306.35 115.35 C 306.88 113.55 307.41 111.74 307.90 109.93 Z" />
</g>
<g id="#3e110eff">
<path fill="#3e110e" opacity="1.00" d=" M 204.21 145.14 C 205.82 144.60 206.38 145.15 205.90 146.79 C 204.28 147.33 203.72 146.78 204.21 145.14 Z" />
</g>
<g id="#541c1cff">
<path fill="#541c1c" opacity="1.00" d=" M 202.10 151.08 C 205.05 149.47 202.33 154.39 202.10 151.08 Z" />
</g>
<g id="#782828ff">
<path fill="#782828" opacity="1.00" d=" M 208.17 153.28 C 208.71 153.77 208.71 153.77 208.17 153.28 Z" />
<path fill="#782828" opacity="1.00" d=" M 227.28 154.19 C 227.78 154.72 227.78 154.72 227.28 154.19 Z" />
<path fill="#782828" opacity="1.00" d=" M 206.26 162.33 C 206.78 162.84 206.78 162.84 206.26 162.33 Z" />
<path fill="#782828" opacity="1.00" d=" M 205.34 170.27 C 205.85 170.80 205.85 170.80 205.34 170.27 Z" />
<path fill="#782828" opacity="1.00" d=" M 211.27 175.39 C 211.82 175.87 211.82 175.87 211.27 175.39 Z" />
<path fill="#782828" opacity="1.00" d=" M 218.27 244.30 C 218.81 244.80 218.81 244.80 218.27 244.30 Z" />
<path fill="#782828" opacity="1.00" d=" M 243.18 246.33 C 243.70 246.85 243.70 246.85 243.18 246.33 Z" />
<path fill="#782828" opacity="1.00" d=" M 223.24 250.27 C 223.77 250.77 223.77 250.77 223.24 250.27 Z" />
<path fill="#782828" opacity="1.00" d=" M 224.16 253.33 C 224.68 253.84 224.68 253.84 224.16 253.33 Z" />
<path fill="#782828" opacity="1.00" d=" M 214.21 258.28 C 214.74 258.79 214.74 258.79 214.21 258.28 Z" />
<path fill="#782828" opacity="1.00" d=" M 214.28 267.24 C 214.78 267.77 214.78 267.77 214.28 267.24 Z" />
<path fill="#782828" opacity="1.00" d=" M 232.29 268.16 C 232.79 268.70 232.79 268.70 232.29 268.16 Z" />
</g>
<g id="#451513ff">
<path fill="#451513" opacity="1.00" d=" M 221.17 154.40 C 222.57 153.99 223.05 154.48 222.61 155.87 C 221.20 156.29 220.72 155.80 221.17 154.40 Z" />
</g>
<g id="#4c1814ff">
<path fill="#4c1814" opacity="1.00" d=" M 233.06 157.11 C 236.37 157.44 231.36 160.01 233.06 157.11 Z" />
</g>
<g id="#581c18ff">
<path fill="#581c18" opacity="1.00" d=" M 212.09 159.16 C 215.40 159.43 210.45 162.10 212.09 159.16 Z" />
<path fill="#581c18" opacity="1.00" d=" M 191.38 251.12 C 194.31 249.48 191.65 254.43 191.38 251.12 Z" />
</g>
<g id="#381010ff">
<path fill="#381010" opacity="1.00" d=" M 222.19 160.04 C 223.83 159.54 224.38 160.10 223.83 161.71 C 222.18 162.20 221.63 161.65 222.19 160.04 Z" />
</g>
<g id="#5c1e1cff">
<path fill="#5c1e1c" opacity="1.00" d=" M 211.11 164.23 C 214.42 164.48 209.49 167.19 211.11 164.23 Z" />
</g>
<g id="#501818ff">
<path fill="#501818" opacity="1.00" d=" M 213.25 164.01 C 216.12 162.27 213.62 167.32 213.25 164.01 Z" />
</g>
<g id="#802c28ff">
<path fill="#802c28" opacity="1.00" d=" M 205.24 165.29 C 205.76 165.81 205.76 165.81 205.24 165.29 Z" />
<path fill="#802c28" opacity="1.00" d=" M 219.22 167.27 C 219.78 167.76 219.78 167.76 219.22 167.27 Z" />
<path fill="#802c28" opacity="1.00" d=" M 196.27 239.28 C 196.79 239.80 196.79 239.80 196.27 239.28 Z" />
<path fill="#802c28" opacity="1.00" d=" M 221.23 242.31 C 221.77 242.81 221.77 242.81 221.23 242.31 Z" />
<path fill="#802c28" opacity="1.00" d=" M 215.21 243.23 C 215.75 243.73 215.75 243.73 215.21 243.23 Z" />
<path fill="#802c28" opacity="1.00" d=" M 228.24 252.27 C 228.78 252.78 228.78 252.78 228.24 252.27 Z" />
<path fill="#802c28" opacity="1.00" d=" M 209.23 284.26 C 209.73 284.80 209.73 284.80 209.23 284.26 Z" />
</g>
<g id="#782420ff">
<path fill="#782420" opacity="1.00" d=" M 211.19 170.25 C 211.67 170.80 211.67 170.80 211.19 170.25 Z" />
</g>
<g id="#5e1e1dff">
<path fill="#5e1e1d" opacity="1.00" d=" M 205.58 175.93 C 205.35 174.82 206.75 173.12 207.90 173.35 C 208.89 174.68 207.01 176.91 205.58 175.93 Z" />
</g>
<g id="#581c1cff">
<path fill="#581c1c" opacity="1.00" d=" M 211.35 173.06 C 214.40 171.63 211.39 176.38 211.35 173.06 Z" />
<path fill="#581c1c" opacity="1.00" d=" M 201.20 241.08 C 204.27 239.69 201.19 244.39 201.20 241.08 Z" />
<path fill="#581c1c" opacity="1.00" d=" M 235.05 248.33 C 238.37 248.38 233.60 251.37 235.05 248.33 Z" />
</g>
<g id="#431413ff">
<path fill="#431413" opacity="1.00" d=" M 214.42 173.17 C 215.81 172.71 216.31 173.18 215.91 174.59 C 214.52 175.06 214.02 174.58 214.42 173.17 Z" />
</g>
<g id="#541a18ff">
<path fill="#541a18" opacity="1.00" d=" M 218.25 177.04 C 221.17 175.39 218.52 180.36 218.25 177.04 Z" />
<path fill="#541a18" opacity="1.00" d=" M 238.04 243.13 C 241.35 243.44 236.36 246.04 238.04 243.13 Z" />
<path fill="#541a18" opacity="1.00" d=" M 213.07 255.12 C 216.38 255.20 211.58 258.14 213.07 255.12 Z" />
</g>
<g id="#585858ff">
<path fill="#585858" opacity="1.00" d=" M 193.85 178.93 C 198.57 178.61 203.32 179.02 208.02 178.44 C 210.27 178.96 212.58 179.04 214.87 178.73 C 219.96 178.89 225.08 178.61 230.16 178.98 C 230.73 179.83 231.03 180.77 231.06 181.81 C 231.17 183.42 231.23 185.04 231.32 186.66 C 229.60 186.44 227.88 186.23 226.16 186.07 C 225.77 186.05 225.00 186.00 224.62 185.97 C 226.77 185.89 228.92 185.85 231.08 185.84 C 230.63 183.80 230.18 181.77 229.74 179.73 C 228.62 179.68 227.51 179.63 226.40 179.58 C 226.41 181.48 225.90 183.37 224.08 184.30 C 223.63 183.72 222.72 182.55 222.26 181.97 C 223.47 181.29 224.69 180.61 225.90 179.92 C 218.27 179.28 210.62 179.63 202.98 179.47 C 201.38 179.57 199.60 179.24 198.23 180.26 C 198.25 181.18 198.44 182.07 198.80 182.94 L 199.94 180.52 C 200.49 181.24 201.02 181.99 201.52 182.76 C 200.57 183.44 199.60 184.07 198.60 184.68 C 198.05 183.15 197.52 181.61 196.87 180.13 C 196.09 179.96 194.52 179.62 193.74 179.45 C 193.28 181.59 192.81 183.73 192.34 185.87 C 198.72 185.37 205.13 185.23 211.52 185.43 C 211.52 183.99 211.53 182.55 211.53 181.12 C 214.86 181.09 218.18 181.10 221.50 181.10 C 221.72 182.63 221.94 184.16 222.12 185.70 L 222.11 186.05 C 222.10 187.79 222.09 189.53 222.08 191.28 L 220.67 191.15 C 217.61 191.02 214.54 191.04 211.48 190.98 C 211.50 189.19 211.52 187.41 211.54 185.62 C 205.07 185.57 198.58 185.70 192.15 186.52 C 192.17 185.95 192.20 184.83 192.22 184.26 C 192.60 182.53 191.64 179.66 193.85 178.93 Z" />
<path fill="#585858" opacity="1.00" d=" M 232.44 186.15 C 233.94 186.17 235.45 186.18 236.96 186.19 C 237.05 189.43 237.03 192.67 236.90 195.91 C 235.66 195.93 234.44 195.96 233.21 195.98 C 233.02 192.71 234.11 189.18 232.44 186.15 Z" />
<path fill="#585858" opacity="1.00" d=" M 199.29 220.35 C 199.83 220.98 199.83 220.98 199.29 220.35 Z" />
<path fill="#585858" opacity="1.00" d=" M 199.40 222.16 C 199.95 222.79 199.95 222.79 199.40 222.16 Z" />
<path fill="#585858" opacity="1.00" d=" M 116.46 276.34 C 117.36 277.26 118.25 278.18 119.14 279.12 C 120.32 279.62 121.50 280.13 122.70 280.60 C 118.99 280.53 114.53 282.04 111.30 279.86 C 112.95 279.75 114.59 279.65 116.24 279.56 C 116.29 278.75 116.41 277.14 116.46 276.34 Z" />
</g>
<g id="#c0c0c0ff">
<path fill="#c0c0c0" opacity="1.00" d=" M 208.02 178.44 C 209.78 177.29 213.75 176.83 214.87 178.73 C 212.58 179.04 210.27 178.96 208.02 178.44 Z" />
<path fill="#c0c0c0" opacity="1.00" d=" M 124.42 262.71 C 125.12 262.89 126.52 263.25 127.22 263.43 C 130.88 265.00 134.94 264.21 138.80 264.29 C 138.97 264.81 139.31 265.86 139.47 266.38 C 140.06 266.82 141.23 267.70 141.82 268.14 C 140.31 267.99 138.81 267.84 137.31 267.69 C 137.08 267.10 136.63 265.92 136.41 265.32 C 135.34 265.16 134.27 265.03 133.21 264.91 C 133.10 265.67 132.89 267.18 132.78 267.93 C 130.20 268.15 127.62 268.23 125.03 268.23 C 124.82 266.38 124.62 264.54 124.42 262.71 Z" />
</g>
<g id="#f0f0f0ff">
<path fill="#f0f0f0" opacity="1.00" d=" M 193.74 179.45 C 194.52 179.62 196.09 179.96 196.87 180.13 C 197.52 181.61 198.05 183.15 198.60 184.68 C 199.60 184.07 200.57 183.44 201.52 182.76 C 201.02 181.99 200.49 181.24 199.94 180.52 L 198.80 182.94 C 198.44 182.07 198.25 181.18 198.23 180.26 C 199.60 179.24 201.38 179.57 202.98 179.47 C 210.62 179.63 218.27 179.28 225.90 179.92 C 224.69 180.61 223.47 181.29 222.26 181.97 C 222.72 182.55 223.63 183.72 224.08 184.30 C 223.59 184.65 222.61 185.35 222.12 185.70 C 221.94 184.16 221.72 182.63 221.50 181.10 C 218.18 181.10 214.86 181.09 211.53 181.12 C 211.53 182.55 211.52 183.99 211.52 185.43 C 205.13 185.23 198.72 185.37 192.34 185.87 C 192.81 183.73 193.28 181.59 193.74 179.45 Z" />
<path fill="#f0f0f0" opacity="1.00" d=" M 192.15 186.52 C 198.58 185.70 205.07 185.57 211.54 185.62 C 211.52 187.41 211.50 189.19 211.48 190.98 C 214.54 191.04 217.61 191.02 220.67 191.15 L 220.83 192.16 C 211.21 192.31 201.46 191.26 191.95 193.04 L 191.93 192.62 C 191.99 190.58 192.09 188.55 192.15 186.52 Z" />
<path fill="#f0f0f0" opacity="1.00" d=" M 222.11 186.05 C 222.74 186.03 223.99 185.99 224.62 185.97 C 225.00 186.00 225.77 186.05 226.16 186.07 C 226.46 188.11 226.76 190.15 227.08 192.18 C 225.41 191.87 223.75 191.53 222.08 191.28 C 222.09 189.53 222.10 187.79 222.11 186.05 Z" />
<path fill="#f0f0f0" opacity="1.00" d=" M 43.01 190.97 C 62.62 192.56 82.31 192.13 101.97 192.22 C 128.02 192.07 154.09 192.72 180.11 191.06 C 180.09 191.74 180.07 193.11 180.05 193.79 C 134.33 193.77 88.61 193.78 42.89 193.78 C 42.92 193.08 42.98 191.67 43.01 190.97 Z" />
<path fill="#f0f0f0" opacity="1.00" d=" M 243.10 191.63 C 248.05 190.97 253.04 191.62 258.01 191.78 C 272.00 192.29 286.00 192.26 299.99 192.19 C 329.01 192.21 358.02 192.22 387.04 192.20 C 403.40 192.30 419.77 192.14 436.09 191.07 C 436.13 191.76 436.19 193.13 436.22 193.82 C 371.83 193.71 307.45 193.79 243.06 193.78 C 243.07 193.24 243.09 192.17 243.10 191.63 Z" />
<path fill="#f0f0f0" opacity="1.00" d=" M 192.00 194.74 C 199.98 195.30 207.98 195.17 215.97 195.06 C 220.64 195.05 225.43 194.45 229.94 196.01 L 229.03 196.31 C 216.73 195.46 204.37 196.09 192.05 195.90 L 192.00 194.74 Z" />
<path fill="#f0f0f0" opacity="1.00" d=" M 191.71 200.70 C 197.03 199.44 202.53 200.18 207.94 200.00 C 214.92 200.14 221.92 199.67 228.88 200.28 C 228.93 202.68 228.98 205.08 229.04 207.49 C 224.51 207.44 219.98 206.99 215.46 207.40 C 219.27 207.80 223.11 207.71 226.93 208.03 C 223.23 210.51 218.73 210.29 214.49 210.59 C 217.25 210.70 220.01 210.66 222.77 210.66 C 223.55 211.45 224.34 212.26 225.14 213.06 C 220.49 213.03 215.71 213.92 211.14 212.89 C 206.86 210.55 202.54 208.21 197.75 207.06 C 197.57 205.18 197.32 203.31 197.05 201.44 C 195.27 201.70 193.48 201.97 191.70 202.24 L 191.71 200.70 Z" />
<path fill="#f0f0f0" opacity="1.00" d=" M 211.99 262.59 C 274.67 262.27 337.36 262.58 400.05 262.44 C 402.21 262.55 404.72 262.09 406.49 263.68 C 408.29 264.88 408.62 267.08 409.14 269.01 C 408.54 272.39 405.75 275.59 402.05 275.23 C 338.37 275.09 274.67 275.42 210.99 275.08 C 211.28 274.67 211.85 273.86 212.14 273.45 C 275.81 273.01 339.51 273.54 403.18 273.19 C 407.23 273.00 408.19 266.97 405.02 264.98 C 403.88 264.15 402.35 264.41 401.05 264.29 C 338.06 264.31 275.07 264.29 212.08 264.30 L 211.99 262.59 Z" />
</g>
<g id="#d0d0d0ff">
<path fill="#d0d0d0" opacity="1.00" d=" M 226.40 179.58 C 227.51 179.63 228.62 179.68 229.74 179.73 C 230.18 181.77 230.63 183.80 231.08 185.84 C 228.92 185.85 226.77 185.89 224.62 185.97 C 223.99 185.99 222.74 186.03 222.11 186.05 L 222.12 185.70 C 222.61 185.35 223.59 184.65 224.08 184.30 C 225.90 183.37 226.41 181.48 226.40 179.58 Z" />
<path fill="#d0d0d0" opacity="1.00" d=" M 226.16 186.07 C 227.88 186.23 229.60 186.44 231.32 186.66 C 231.43 188.76 231.59 190.88 231.65 192.99 L 229.88 193.31 C 227.37 193.58 224.85 193.87 222.33 193.88 C 221.99 193.64 221.31 193.16 220.97 192.92 L 220.83 192.16 L 220.67 191.15 L 222.08 191.28 C 223.75 191.53 225.41 191.87 227.08 192.18 C 226.76 190.15 226.46 188.11 226.16 186.07 Z" />
<path fill="#d0d0d0" opacity="1.00" d=" M 42.65 188.70 C 88.48 188.63 134.30 188.68 180.13 188.67 C 180.12 189.27 180.11 190.46 180.11 191.06 C 154.09 192.72 128.02 192.07 101.97 192.22 C 82.31 192.13 62.62 192.56 43.01 190.97 C 42.92 190.40 42.74 189.26 42.65 188.70 Z" />
<path fill="#d0d0d0" opacity="1.00" d=" M 243.00 188.66 C 307.32 188.73 371.66 188.68 435.98 188.69 C 436.01 189.28 436.07 190.47 436.09 191.07 C 419.77 192.14 403.40 192.30 387.04 192.20 C 358.02 192.22 329.01 192.21 299.99 192.19 C 286.00 192.26 272.00 192.29 258.01 191.78 C 253.04 191.62 248.05 190.97 243.10 191.63 C 243.07 190.89 243.02 189.40 243.00 188.66 Z" />
<path fill="#d0d0d0" opacity="1.00" d=" M 197.75 207.06 C 202.54 208.21 206.86 210.55 211.14 212.89 C 215.71 213.92 220.49 213.03 225.14 213.06 C 224.34 212.26 223.55 211.45 222.77 210.66 C 225.36 210.65 227.96 210.55 230.56 210.49 C 230.42 211.34 230.13 213.03 229.98 213.88 C 227.68 214.21 225.37 214.60 223.04 214.47 C 215.33 213.86 207.57 213.38 199.86 214.20 C 197.32 215.05 197.89 211.48 197.73 210.13 C 198.66 210.67 199.59 211.22 200.52 211.77 C 200.68 211.09 201.00 209.71 201.16 209.03 C 200.38 209.18 198.81 209.48 198.02 209.63 L 197.91 208.73 L 197.75 207.06 Z" />
<path fill="#d0d0d0" opacity="1.00" d=" M 207.26 215.04 C 209.63 215.08 212.00 215.18 214.38 215.11 C 215.51 221.82 215.60 228.72 214.86 235.48 C 214.75 229.44 214.96 223.40 214.51 217.37 C 212.03 217.55 209.56 217.72 207.10 218.02 C 207.14 217.27 207.22 215.78 207.26 215.04 Z" />
<path fill="#d0d0d0" opacity="1.00" d=" M 209.00 219.01 L 210.32 219.16 C 210.60 224.74 210.49 230.34 210.21 235.92 C 210.99 236.02 212.55 236.20 213.33 236.29 C 212.64 240.15 212.52 244.63 208.86 247.01 C 208.02 243.44 207.17 239.83 206.92 236.17 C 207.38 235.95 208.30 235.52 208.77 235.31 L 208.80 234.88 C 209.25 229.60 208.95 224.30 209.00 219.01 Z" />
</g>
<g id="#484848ff">
<path fill="#484848" opacity="1.00" d=" M 231.06 181.81 C 231.29 182.45 231.76 183.71 232.00 184.35 C 236.01 183.86 239.66 185.32 242.90 187.56 C 242.93 187.83 242.97 188.38 243.00 188.66 C 243.02 189.40 243.07 190.89 243.10 191.63 C 243.09 192.17 243.07 193.24 243.06 193.78 C 307.45 193.79 371.83 193.71 436.22 193.82 L 437.14 193.81 C 437.29 193.81 437.60 193.81 437.75 193.81 C 439.97 195.25 442.42 196.34 445.14 196.15 C 444.57 195.70 443.43 194.81 442.86 194.36 C 446.53 194.55 450.25 194.70 453.90 194.19 C 456.18 193.82 456.01 191.15 456.62 189.45 C 459.24 191.79 455.92 195.99 453.03 195.62 C 449.63 195.46 446.31 196.15 443.00 196.79 C 440.05 197.43 437.80 194.69 434.92 194.78 C 371.95 194.74 308.96 194.81 245.98 194.74 C 243.67 194.64 241.44 195.33 239.51 196.57 C 237.56 197.96 235.07 197.54 232.83 197.68 C 232.46 203.15 231.87 208.62 231.11 214.05 C 230.52 214.37 229.35 215.00 228.76 215.31 C 228.37 218.07 228.35 220.87 228.50 223.65 C 225.39 223.63 222.29 223.66 219.19 223.74 C 219.29 220.71 219.30 217.67 219.25 214.64 C 217.63 214.83 216.00 214.99 214.38 215.11 C 212.00 215.18 209.63 215.08 207.26 215.04 C 207.22 215.78 207.14 217.27 207.10 218.02 L 207.03 218.83 L 205.92 218.74 C 206.12 217.41 206.32 216.08 206.50 214.75 C 205.10 214.68 203.70 214.66 202.30 214.69 C 201.66 214.74 200.36 214.83 199.71 214.88 C 199.77 216.35 199.85 217.82 199.96 219.29 L 199.07 219.44 C 199.14 218.03 199.21 216.62 199.27 215.21 C 198.67 215.22 197.47 215.23 196.88 215.24 C 196.84 218.93 196.73 222.63 196.89 226.33 L 196.94 226.66 C 197.03 227.02 197.21 227.74 197.30 228.10 C 199.01 228.31 200.72 228.45 202.43 228.73 C 202.60 228.93 202.95 229.34 203.12 229.54 C 200.83 229.67 198.53 229.69 196.23 229.70 C 196.17 224.74 196.46 219.78 196.11 214.82 C 194.89 214.76 193.67 214.71 192.45 214.65 C 192.24 212.06 191.88 209.48 191.31 206.94 C 192.10 207.00 193.67 207.11 194.45 207.16 L 194.71 207.47 L 194.94 207.75 C 195.68 207.99 197.17 208.49 197.91 208.73 L 198.02 209.63 C 198.81 209.48 200.38 209.18 201.16 209.03 C 201.00 209.71 200.68 211.09 200.52 211.77 C 199.59 211.22 198.66 210.67 197.73 210.13 C 197.89 211.48 197.32 215.05 199.86 214.20 C 207.57 213.38 215.33 213.86 223.04 214.47 C 225.37 214.60 227.68 214.21 229.98 213.88 C 230.13 213.03 230.42 211.34 230.56 210.49 C 227.96 210.55 225.36 210.65 222.77 210.66 C 220.01 210.66 217.25 210.70 214.49 210.59 C 218.73 210.29 223.23 210.51 226.93 208.03 C 223.11 207.71 219.27 207.80 215.46 207.40 C 219.98 206.99 224.51 207.44 229.04 207.49 C 229.47 207.47 230.34 207.45 230.77 207.44 C 231.08 205.18 231.33 202.93 231.49 200.66 L 231.48 199.61 C 231.20 199.25 230.64 198.54 230.36 198.18 C 230.81 197.76 231.70 196.90 232.14 196.48 C 231.00 196.58 228.71 196.80 227.57 196.91 L 229.03 196.31 L 229.94 196.01 C 231.19 195.86 231.83 194.70 232.65 193.91 C 231.96 193.76 230.58 193.46 229.88 193.31 L 231.65 192.99 C 231.59 190.88 231.43 188.76 231.32 186.66 C 231.23 185.04 231.17 183.42 231.06 181.81 M 232.44 186.15 C 234.11 189.18 233.02 192.71 233.21 195.98 C 234.44 195.96 235.66 195.93 236.90 195.91 C 237.03 192.67 237.05 189.43 236.96 186.19 C 235.45 186.18 233.94 186.17 232.44 186.15 M 240.02 188.25 C 238.58 191.29 243.35 188.28 240.02 188.25 M 240.10 194.81 C 241.54 194.81 241.40 192.32 240.67 191.51 C 239.30 191.58 239.33 194.01 240.10 194.81 M 227.63 210.15 C 228.29 209.86 229.62 209.28 230.29 208.99 C 229.63 208.71 228.30 208.15 227.64 207.87 C 226.60 208.62 226.60 209.38 227.63 210.15 M 193.17 208.07 C 193.22 209.99 193.27 211.91 193.33 213.83 C 194.31 213.82 196.27 213.79 197.26 213.78 C 197.31 212.15 197.38 210.53 197.45 208.91 C 196.38 208.70 194.24 208.28 193.17 208.07 M 219.86 223.05 C 222.42 223.09 225.00 223.11 227.57 223.07 C 227.42 222.54 227.11 221.48 226.96 220.95 C 227.15 219.17 227.32 217.39 227.48 215.61 C 225.09 215.63 222.70 215.62 220.31 215.58 C 220.04 218.06 219.89 220.55 219.86 223.05 Z" />
<path fill="#484848" opacity="1.00" d=" M 134.74 271.58 C 136.42 271.08 136.96 271.63 136.35 273.22 C 134.67 273.70 134.13 273.16 134.74 271.58 Z" />
</g>
<g id="#41403fff">
<path fill="#41403f" opacity="1.00" d=" M 185.57 184.56 C 187.78 184.43 190.00 184.34 192.22 184.26 C 192.20 184.83 192.17 185.95 192.15 186.52 C 192.09 188.55 191.99 190.58 191.93 192.62 C 191.33 190.38 190.81 188.13 190.39 185.85 C 188.68 185.88 186.98 185.92 185.27 185.96 C 185.19 189.53 184.86 193.24 186.22 196.64 C 185.69 200.53 186.88 204.49 190.17 206.82 C 188.94 206.25 187.72 205.69 186.49 205.13 L 186.43 204.81 C 185.93 201.49 184.88 198.28 183.33 195.31 C 183.03 197.30 182.77 199.31 182.50 201.31 C 182.37 199.48 182.27 197.64 182.22 195.81 C 180.86 195.38 179.51 194.82 178.06 194.83 C 133.69 194.84 89.31 194.89 44.93 194.83 C 41.72 194.51 39.21 197.70 35.96 196.77 C 32.36 195.96 28.69 195.68 25.00 195.62 C 20.71 194.60 20.98 187.22 25.54 186.79 C 32.00 186.54 38.52 186.46 44.92 187.56 C 88.95 187.58 132.98 187.55 177.01 187.59 C 180.16 187.72 183.10 186.41 185.57 184.56 M 23.17 190.03 C 22.00 191.94 24.06 194.42 26.07 194.41 C 29.50 194.60 32.94 194.59 36.37 194.51 C 35.78 194.88 34.62 195.62 34.03 195.99 C 36.44 196.23 40.69 196.21 40.58 192.78 C 40.48 191.18 40.44 189.59 40.41 187.99 C 35.91 188.06 31.42 187.88 26.93 188.03 C 25.46 187.98 23.75 188.55 23.17 190.03 M 41.34 188.39 C 40.62 190.00 40.63 192.11 41.37 193.71 C 42.81 193.02 42.66 189.17 41.34 188.39 M 182.02 188.15 C 181.50 189.82 182.03 190.39 183.62 189.88 C 184.14 188.20 183.61 187.63 182.02 188.15 M 42.65 188.70 C 42.74 189.26 42.92 190.40 43.01 190.97 C 42.98 191.67 42.92 193.08 42.89 193.78 C 88.61 193.78 134.33 193.77 180.05 193.79 C 180.07 193.11 180.09 191.74 180.11 191.06 C 180.11 190.46 180.12 189.27 180.13 188.67 C 134.30 188.68 88.48 188.63 42.65 188.70 M 182.51 191.11 C 182.36 192.41 182.19 193.70 182.02 195.00 C 182.50 195.00 183.45 195.01 183.92 195.01 C 183.76 193.73 183.61 192.45 183.48 191.17 C 183.23 191.15 182.75 191.12 182.51 191.11 Z" />
</g>
<g id="#505458ff">
<path fill="#505458" opacity="1.00" d=" M 185.27 185.96 C 186.98 185.92 188.68 185.88 190.39 185.85 C 190.81 188.13 191.33 190.38 191.93 192.62 L 191.95 193.04 C 191.96 193.47 191.99 194.32 192.00 194.74 L 192.05 195.90 C 191.50 196.39 190.42 197.37 189.88 197.86 C 189.58 197.09 189.00 195.55 188.70 194.78 C 188.55 194.31 188.24 193.37 188.09 192.90 C 187.62 193.84 186.69 195.71 186.22 196.64 C 184.86 193.24 185.19 189.53 185.27 185.96 Z" />
</g>
<g id="#454745ff">
<path fill="#454745" opacity="1.00" d=" M 242.90 187.56 C 307.53 187.79 372.19 187.38 436.80 187.77 C 437.19 187.83 437.97 187.95 438.36 188.01 C 438.74 189.70 439.14 191.39 439.55 193.08 C 439.10 193.26 438.20 193.63 437.75 193.81 C 437.60 193.81 437.29 193.81 437.14 193.81 C 437.61 193.46 438.55 192.75 439.03 192.40 C 438.79 191.49 438.32 189.67 438.09 188.76 C 437.56 188.74 436.51 188.70 435.98 188.69 C 371.66 188.68 307.32 188.73 243.00 188.66 C 242.97 188.38 242.93 187.83 242.90 187.56 Z" />
</g>
<g id="#909490ff">
<path fill="#909490" opacity="1.00" d=" M 436.80 187.77 C 442.80 187.36 448.82 187.59 454.83 187.62 C 455.44 188.12 456.07 188.61 456.70 189.10 L 456.62 189.45 C 456.01 191.15 456.18 193.82 453.90 194.19 C 450.25 194.70 446.53 194.55 442.86 194.36 C 441.76 193.91 440.66 193.47 439.55 193.08 C 439.14 191.39 438.74 189.70 438.36 188.01 C 437.97 187.95 437.19 187.83 436.80 187.77 Z" />
<path fill="#909490" opacity="1.00" d=" M 23.17 190.03 C 23.75 188.55 25.46 187.98 26.93 188.03 C 31.42 187.88 35.91 188.06 40.41 187.99 C 40.44 189.59 40.48 191.18 40.58 192.78 C 39.17 193.34 37.77 193.92 36.37 194.51 C 32.94 194.59 29.50 194.60 26.07 194.41 C 24.06 194.42 22.00 191.94 23.17 190.03 Z" />
</g>
<g id="#9b9d9fff">
<path fill="#9b9d9f" opacity="1.00" d=" M 41.34 188.39 C 42.66 189.17 42.81 193.02 41.37 193.71 C 40.63 192.11 40.62 190.00 41.34 188.39 Z" />
</g>
<g id="#76797aff">
<path fill="#76797a" opacity="1.00" d=" M 182.02 188.15 C 183.61 187.63 184.14 188.20 183.62 189.88 C 182.03 190.39 181.50 189.82 182.02 188.15 Z" />
</g>
<g id="#7c8284ff">
<path fill="#7c8284" opacity="1.00" d=" M 240.02 188.25 C 243.35 188.28 238.58 191.29 240.02 188.25 Z" />
</g>
<g id="#949899ff">
<path fill="#949899" opacity="1.00" d=" M 435.98 188.69 C 436.51 188.70 437.56 188.74 438.09 188.76 C 438.32 189.67 438.79 191.49 439.03 192.40 C 438.55 192.75 437.61 193.46 437.14 193.81 L 436.22 193.82 C 436.19 193.13 436.13 191.76 436.09 191.07 C 436.07 190.47 436.01 189.28 435.98 188.69 Z" />
</g>
<g id="#a8aca8ff">
<path fill="#a8aca8" opacity="1.00" d=" M 182.51 191.11 C 182.75 191.12 183.23 191.15 183.48 191.17 C 183.61 192.45 183.76 193.73 183.92 195.01 C 183.45 195.01 182.50 195.00 182.02 195.00 C 182.19 193.70 182.36 192.41 182.51 191.11 Z" />
<path fill="#a8aca8" opacity="1.00" d=" M 124.50 274.71 C 124.32 270.71 124.11 266.70 124.42 262.71 C 124.62 264.54 124.82 266.38 125.03 268.23 C 127.62 268.23 130.20 268.15 132.78 267.93 C 134.28 267.81 135.80 267.70 137.31 267.69 C 138.81 267.84 140.31 267.99 141.82 268.14 C 141.88 268.83 142.01 270.22 142.08 270.91 C 141.33 270.71 139.84 270.33 139.09 270.13 C 139.10 270.57 139.12 271.45 139.13 271.89 C 139.82 271.68 141.21 271.26 141.90 271.05 C 141.80 272.25 141.72 273.46 141.67 274.68 C 135.95 274.41 130.22 274.63 124.50 274.71 M 134.74 271.58 C 134.13 273.16 134.67 273.70 136.35 273.22 C 136.96 271.63 136.42 271.08 134.74 271.58 Z" />
</g>
<g id="#8c8f8eff">
<path fill="#8c8f8e" opacity="1.00" d=" M 240.10 194.81 C 239.33 194.01 239.30 191.58 240.67 191.51 C 241.40 192.32 241.54 194.81 240.10 194.81 Z" />
</g>
<g id="#a0a4a0ff">
<path fill="#a0a4a0" opacity="1.00" d=" M 191.95 193.04 C 201.46 191.26 211.21 192.31 220.83 192.16 L 220.97 192.92 C 216.64 192.53 212.30 192.85 207.97 192.82 C 203.39 192.86 198.73 192.33 194.25 193.53 C 203.58 194.45 212.97 193.81 222.33 193.88 C 224.85 193.87 227.37 193.58 229.88 193.31 C 230.58 193.46 231.96 193.76 232.65 193.91 C 231.83 194.70 231.19 195.86 229.94 196.01 C 225.43 194.45 220.64 195.05 215.97 195.06 C 207.98 195.17 199.98 195.30 192.00 194.74 C 191.99 194.32 191.96 193.47 191.95 193.04 Z" />
<path fill="#a0a4a0" opacity="1.00" d=" M 191.74 198.11 C 197.06 199.47 202.59 198.91 208.01 199.00 C 215.46 198.94 222.96 199.17 230.36 198.18 C 230.64 198.54 231.20 199.25 231.48 199.61 L 231.49 200.66 C 230.83 200.57 229.53 200.37 228.88 200.28 C 221.92 199.67 214.92 200.14 207.94 200.00 C 202.53 200.18 197.03 199.44 191.71 200.70 C 191.72 200.05 191.74 198.76 191.74 198.11 Z" />
<path fill="#a0a4a0" opacity="1.00" d=" M 205.92 218.74 L 207.03 218.83 C 207.52 218.88 208.50 218.97 209.00 219.01 C 208.95 224.30 209.25 229.60 208.80 234.88 C 208.05 235.12 206.54 235.60 205.78 235.84 C 205.87 230.14 205.67 224.44 205.92 218.74 Z" />
</g>
<g id="#a8ababff">
<path fill="#a8abab" opacity="1.00" d=" M 36.37 194.51 C 37.77 193.92 39.17 193.34 40.58 192.78 C 40.69 196.21 36.44 196.23 34.03 195.99 C 34.62 195.62 35.78 194.88 36.37 194.51 Z" />
</g>
<g id="#e0e4e8ff">
<path fill="#e0e4e8" opacity="1.00" d=" M 194.25 193.53 C 198.73 192.33 203.39 192.86 207.97 192.82 C 212.30 192.85 216.64 192.53 220.97 192.92 C 221.31 193.16 221.99 193.64 222.33 193.88 C 212.97 193.81 203.58 194.45 194.25 193.53 Z" />
<path fill="#e0e4e8" opacity="1.00" d=" M 191.77 197.14 C 198.12 198.39 204.61 197.94 211.03 198.00 C 216.55 197.91 222.13 197.99 227.57 196.91 C 228.71 196.80 231.00 196.58 232.14 196.48 C 231.70 196.90 230.81 197.76 230.36 198.18 C 222.96 199.17 215.46 198.94 208.01 199.00 C 202.59 198.91 197.06 199.47 191.74 198.11 L 191.77 197.14 Z" />
<path fill="#e0e4e8" opacity="1.00" d=" M 220.31 215.58 C 222.70 215.62 225.09 215.63 227.48 215.61 C 227.32 217.39 227.15 219.17 226.96 220.95 C 224.88 220.82 222.80 220.81 220.73 220.78 C 220.59 219.05 220.45 217.31 220.31 215.58 Z" />
</g>
<g id="#a4a8a7ff">
<path fill="#a4a8a7" opacity="1.00" d=" M 437.75 193.81 C 438.20 193.63 439.10 193.26 439.55 193.08 C 440.66 193.47 441.76 193.91 442.86 194.36 C 443.43 194.81 444.57 195.70 445.14 196.15 C 442.42 196.34 439.97 195.25 437.75 193.81 Z" />
</g>
<g id="#e04c4bff">
<path fill="#e04c4b" opacity="1.00" d=" M 186.22 196.64 C 186.69 195.71 187.62 193.84 188.09 192.90 C 188.24 193.37 188.55 194.31 188.70 194.78 C 188.76 196.99 188.31 199.28 188.89 201.45 C 190.10 203.91 193.01 204.86 194.45 207.16 C 193.67 207.11 192.10 207.00 191.31 206.94 L 190.17 206.82 C 186.88 204.49 185.69 200.53 186.22 196.64 Z" />
</g>
<g id="#101010ff">
<path fill="#101010" opacity="1.00" d=" M 188.89 201.45 C 188.31 199.28 188.76 196.99 188.70 194.78 C 189.00 195.55 189.58 197.09 189.88 197.86 C 190.42 197.37 191.50 196.39 192.05 195.90 L 191.77 197.14 L 191.74 198.11 C 191.74 198.76 191.72 200.05 191.71 200.70 L 191.70 202.24 C 192.05 203.82 193.07 205.01 194.54 205.70 C 194.58 206.14 194.67 207.03 194.71 207.47 L 194.45 207.16 C 193.01 204.86 190.10 203.91 188.89 201.45 Z" />
</g>
<g id="#d04040ff">
<path fill="#d04040" opacity="1.00" d=" M 183.33 195.31 C 184.88 198.28 185.93 201.49 186.43 204.81 C 185.03 203.74 183.74 202.56 182.50 201.31 C 182.77 199.31 183.03 197.30 183.33 195.31 Z" />
<path fill="#d04040" opacity="1.00" d=" M 212.24 247.94 C 212.63 246.66 213.04 245.38 213.42 244.10 C 213.18 246.08 215.61 248.30 213.84 249.91 C 210.51 253.24 212.25 258.39 211.99 262.59 L 212.08 264.30 C 211.70 264.31 210.94 264.33 210.56 264.34 C 193.40 263.73 176.21 264.43 159.06 263.89 C 160.45 262.69 162.25 262.58 164.00 262.60 C 174.78 262.59 185.56 262.78 196.34 262.50 C 199.41 262.47 202.48 262.57 205.55 262.70 C 205.52 262.24 205.46 261.32 205.43 260.86 C 206.48 264.83 210.66 261.47 209.74 258.63 C 209.34 258.55 208.56 258.38 208.17 258.29 C 210.36 256.87 209.20 253.96 209.50 251.80 C 209.03 251.38 208.10 250.53 207.64 250.11 C 207.54 249.20 207.36 247.39 207.27 246.48 C 207.67 246.61 208.47 246.87 208.86 247.01 C 209.98 247.33 211.11 247.64 212.24 247.94 Z" />
</g>
<g id="#b1b3b1ff">
<path fill="#b1b3b1" opacity="1.00" d=" M 192.05 195.90 C 204.37 196.09 216.73 195.46 229.03 196.31 L 227.57 196.91 C 222.13 197.99 216.55 197.91 211.03 198.00 C 204.61 197.94 198.12 198.39 191.77 197.14 L 192.05 195.90 Z" />
</g>
<g id="#cdceceff">
<path fill="#cdcece" opacity="1.00" d=" M 228.88 200.28 C 229.53 200.37 230.83 200.57 231.49 200.66 C 231.33 202.93 231.08 205.18 230.77 207.44 C 230.34 207.45 229.47 207.47 229.04 207.49 C 228.98 205.08 228.93 202.68 228.88 200.28 Z" />
</g>
<g id="#b8b8b8ff">
<path fill="#b8b8b8" opacity="1.00" d=" M 191.70 202.24 C 193.48 201.97 195.27 201.70 197.05 201.44 C 197.32 203.31 197.57 205.18 197.75 207.06 L 197.91 208.73 C 197.17 208.49 195.68 207.99 194.94 207.75 L 194.71 207.47 C 194.67 207.03 194.58 206.14 194.54 205.70 C 193.07 205.01 192.05 203.82 191.70 202.24 Z" />
</g>
<g id="#dcdfddff">
<path fill="#dcdfdd" opacity="1.00" d=" M 227.63 210.15 C 226.60 209.38 226.60 208.62 227.64 207.87 C 228.30 208.15 229.63 208.71 230.29 208.99 C 229.62 209.28 228.29 209.86 227.63 210.15 Z" />
</g>
<g id="#cccecdff">
<path fill="#cccecd" opacity="1.00" d=" M 193.17 208.07 C 194.24 208.28 196.38 208.70 197.45 208.91 C 197.38 210.53 197.31 212.15 197.26 213.78 C 196.27 213.79 194.31 213.82 193.33 213.83 C 193.27 211.91 193.22 209.99 193.17 208.07 Z" />
</g>
<g id="#9ca09eff">
<path fill="#9ca09e" opacity="1.00" d=" M 219.86 223.05 C 219.89 220.55 220.04 218.06 220.31 215.58 C 220.45 217.31 220.59 219.05 220.73 220.78 C 222.80 220.81 224.88 220.82 226.96 220.95 C 227.11 221.48 227.42 222.54 227.57 223.07 C 225.00 223.11 222.42 223.09 219.86 223.05 Z" />
</g>
<g id="#888888ff">
<path fill="#888888" opacity="1.00" d=" M 207.10 218.02 C 209.56 217.72 212.03 217.55 214.51 217.37 C 214.96 223.40 214.75 229.44 214.86 235.48 C 214.70 238.39 214.36 241.32 213.42 244.10 C 213.04 245.38 212.63 246.66 212.24 247.94 C 211.11 247.64 209.98 247.33 208.86 247.01 C 212.52 244.63 212.64 240.15 213.33 236.29 C 212.55 236.20 210.99 236.02 210.21 235.92 C 210.49 230.34 210.60 224.74 210.32 219.16 L 209.00 219.01 C 208.50 218.97 207.52 218.88 207.03 218.83 L 207.10 218.02 Z" />
</g>
<g id="#3a100eff">
<path fill="#3a100e" opacity="1.00" d=" M 202.16 244.08 C 203.78 243.51 204.35 244.04 203.86 245.68 C 202.23 246.23 201.66 245.70 202.16 244.08 Z" />
</g>
<g id="#541818ff">
<path fill="#541818" opacity="1.00" d=" M 223.20 244.29 C 226.53 244.40 221.69 247.29 223.20 244.29 Z" />
</g>
<g id="#581e1cff">
<path fill="#581e1c" opacity="1.00" d=" M 226.07 245.26 C 229.38 245.33 224.60 248.29 226.07 245.26 Z" />
</g>
<g id="#501a18ff">
<path fill="#501a18" opacity="1.00" d=" M 195.09 246.18 C 198.41 246.21 193.65 249.22 195.09 246.18 Z" />
</g>
<g id="#461b1aff">
<path fill="#461b1a" opacity="1.00" d=" M 198.22 249.27 C 199.83 248.69 200.40 249.22 199.94 250.87 C 198.33 251.44 197.76 250.91 198.22 249.27 Z" />
</g>
<g id="#451310ff">
<path fill="#451310" opacity="1.00" d=" M 205.14 252.15 C 206.44 252.80 206.42 253.47 205.09 254.15 C 203.78 253.50 203.80 252.83 205.14 252.15 Z" />
</g>
<g id="#501c18ff">
<path fill="#501c18" opacity="1.00" d=" M 245.09 252.38 C 248.40 252.59 243.50 255.34 245.09 252.38 Z" />
</g>
<g id="#4b201dff">
<path fill="#4b201d" opacity="1.00" d=" M 166.14 253.13 C 167.55 252.69 168.01 253.17 167.51 254.57 C 166.09 255.01 165.64 254.53 166.14 253.13 Z" />
</g>
<g id="#883838ff">
<path fill="#883838" opacity="1.00" d=" M 183.24 253.21 C 183.74 253.76 183.74 253.76 183.24 253.21 Z" />
<path fill="#883838" opacity="1.00" d=" M 162.31 259.25 C 162.82 259.79 162.82 259.79 162.31 259.25 Z" />
</g>
<g id="#883030ff">
<path fill="#883030" opacity="1.00" d=" M 214.20 253.21 C 214.73 253.72 214.73 253.72 214.20 253.21 Z" />
</g>
<g id="#642a28ff">
<path fill="#642a28" opacity="1.00" d=" M 172.44 254.99 C 175.53 253.64 172.38 258.30 172.44 254.99 Z" />
</g>
<g id="#803430ff">
<path fill="#803430" opacity="1.00" d=" M 191.20 257.19 C 191.72 257.72 191.72 257.72 191.20 257.19 Z" />
<path fill="#803430" opacity="1.00" d=" M 178.25 286.17 C 178.78 286.68 178.78 286.68 178.25 286.17 Z" />
</g>
<g id="#883430ff">
<path fill="#883430" opacity="1.00" d=" M 201.37 257.25 C 201.88 257.79 201.88 257.79 201.37 257.25 Z" />
<path fill="#883430" opacity="1.00" d=" M 188.27 278.26 C 188.77 278.81 188.77 278.81 188.27 278.26 Z" />
</g>
<g id="#5c1c1cff">
<path fill="#5c1c1c" opacity="1.00" d=" M 219.22 258.07 C 222.25 256.59 219.31 261.38 219.22 258.07 Z" />
</g>
<g id="#515351ff">
<path fill="#515351" opacity="1.00" d=" M 138.54 261.23 C 138.21 258.41 140.83 258.91 142.68 259.28 C 143.76 262.01 140.00 260.75 138.54 261.23 Z" />
</g>
<g id="#808080ff">
<path fill="#808080" opacity="1.00" d=" M 146.78 260.97 C 147.46 259.32 149.36 259.89 150.74 259.63 C 150.67 260.07 150.54 260.94 150.47 261.38 C 149.24 261.26 148.01 261.12 146.78 260.97 Z" />
<path fill="#808080" opacity="1.00" d=" M 71.98 264.11 C 72.82 263.61 73.66 263.11 74.50 262.60 C 74.66 263.39 74.98 264.96 75.15 265.75 C 76.43 265.73 77.72 265.71 79.00 265.71 L 79.00 267.24 C 77.64 267.23 76.28 267.21 74.92 267.20 C 74.87 268.55 74.83 269.90 74.78 271.26 C 85.53 270.76 96.30 271.09 107.06 270.98 C 108.66 270.78 110.05 271.21 110.44 272.93 C 99.28 273.12 88.10 273.02 76.94 272.90 C 75.30 272.89 74.47 274.70 73.25 275.56 C 70.56 272.50 72.34 267.85 71.98 264.11 Z" />
</g>
<g id="#642624ff">
<path fill="#642624" opacity="1.00" d=" M 180.21 259.97 C 183.23 258.47 180.30 263.29 180.21 259.97 Z" />
<path fill="#642624" opacity="1.00" d=" M 175.23 279.38 C 178.55 279.61 173.61 282.32 175.23 279.38 Z" />
</g>
<g id="#202420ff">
<path fill="#202420" opacity="1.00" d=" M 127.22 263.43 C 128.57 261.13 131.49 260.57 133.92 261.06 C 138.01 261.80 142.18 261.56 146.32 261.64 C 146.43 266.54 146.44 271.44 146.30 276.34 C 144.61 276.30 142.35 276.79 141.67 274.68 C 141.72 273.46 141.80 272.25 141.90 271.05 C 141.21 271.26 139.82 271.68 139.13 271.89 C 139.12 271.45 139.10 270.57 139.09 270.13 C 139.84 270.33 141.33 270.71 142.08 270.91 C 142.01 270.22 141.88 268.83 141.82 268.14 C 141.23 267.70 140.06 266.82 139.47 266.38 C 139.31 265.86 138.97 264.81 138.80 264.29 C 134.94 264.21 130.88 265.00 127.22 263.43 Z" />
<path fill="#202420" opacity="1.00" d=" M 146.78 260.97 C 148.01 261.12 149.24 261.26 150.47 261.38 C 165.72 263.03 181.06 261.77 196.34 262.50 C 185.56 262.78 174.78 262.59 164.00 262.60 C 162.25 262.58 160.45 262.69 159.06 263.89 C 176.21 264.43 193.40 263.73 210.56 264.34 C 205.43 265.32 200.20 264.85 195.02 264.91 C 183.99 264.93 172.96 264.82 161.92 264.87 C 160.59 265.02 158.87 264.61 158.04 265.98 C 155.97 268.47 154.48 271.37 153.01 274.24 L 152.53 274.42 C 150.70 275.27 148.70 275.53 146.71 275.50 C 146.57 270.66 146.62 265.81 146.78 260.97 Z" />
<path fill="#202420" opacity="1.00" d=" M 74.50 262.60 C 80.49 260.81 86.83 262.18 92.98 261.85 C 101.30 261.47 109.62 262.41 117.94 261.95 C 120.11 261.90 122.28 262.11 124.44 262.32 L 124.42 262.71 C 124.11 266.70 124.32 270.71 124.50 274.71 C 124.27 276.57 124.53 279.84 122.70 280.60 C 121.50 280.13 120.32 279.62 119.14 279.12 C 118.25 278.18 117.36 277.26 116.46 276.34 C 116.41 277.14 116.29 278.75 116.24 279.56 C 114.59 279.65 112.95 279.75 111.30 279.86 C 111.10 279.87 110.71 279.89 110.52 279.90 C 110.32 279.17 109.92 277.70 109.72 276.96 C 97.95 276.29 86.13 277.04 74.35 276.59 C 74.07 276.34 73.52 275.82 73.25 275.56 C 74.47 274.70 75.30 272.89 76.94 272.90 C 88.10 273.02 99.28 273.12 110.44 272.93 C 110.05 271.21 108.66 270.78 107.06 270.98 C 96.30 271.09 85.53 270.76 74.78 271.26 C 74.83 269.90 74.87 268.55 74.92 267.20 C 76.28 267.21 77.64 267.23 79.00 267.24 C 89.47 267.15 99.95 267.52 110.42 267.04 C 110.04 266.74 109.28 266.15 108.90 265.85 C 98.95 265.45 88.97 265.79 79.00 265.71 C 77.72 265.71 76.43 265.73 75.15 265.75 C 74.98 264.96 74.66 263.39 74.50 262.60 Z" />
</g>
<g id="#c03838ff">
<path fill="#c03838" opacity="1.00" d=" M 210.56 264.34 C 210.94 264.33 211.70 264.31 212.08 264.30 C 212.34 267.34 211.96 270.40 212.14 273.45 C 209.11 273.92 206.07 274.33 203.00 274.33 C 186.34 274.28 169.67 274.27 153.01 274.24 C 154.48 271.37 155.97 268.47 158.04 265.98 C 158.87 264.61 160.59 265.02 161.92 264.87 C 172.96 264.82 183.99 264.93 195.02 264.91 C 200.20 264.85 205.43 265.32 210.56 264.34 Z" />
</g>
<g id="#8c4848ff">
<path fill="#8c4848" opacity="1.00" d=" M 133.21 264.91 C 134.27 265.03 135.34 265.16 136.41 265.32 C 136.63 265.92 137.08 267.10 137.31 267.69 C 135.80 267.70 134.28 267.81 132.78 267.93 C 132.89 267.18 133.10 265.67 133.21 264.91 Z" />
</g>
<g id="#b7b7b7ff">
<path fill="#b7b7b7" opacity="1.00" d=" M 79.00 265.71 C 88.97 265.79 98.95 265.45 108.90 265.85 C 109.28 266.15 110.04 266.74 110.42 267.04 C 99.95 267.52 89.47 267.15 79.00 267.24 L 79.00 265.71 Z" />
</g>
<g id="#d04949ff">
<path fill="#d04949" opacity="1.00" d=" M 203.00 274.33 C 206.07 274.33 209.11 273.92 212.14 273.45 C 211.85 273.86 211.28 274.67 210.99 275.08 C 191.21 275.02 171.39 275.37 151.62 274.90 L 152.53 274.42 L 153.01 274.24 C 169.67 274.27 186.34 274.28 203.00 274.33 Z" />
</g>
<g id="#481a18ff">
<path fill="#481a18" opacity="1.00" d=" M 154.10 277.10 C 155.73 276.57 156.29 277.12 155.77 278.75 C 154.13 279.27 153.58 278.72 154.10 277.10 Z" />
</g>
<g id="#903838ff">
<path fill="#903838" opacity="1.00" d=" M 170.25 277.30 C 170.81 277.80 170.81 277.80 170.25 277.30 Z" />
<path fill="#903838" opacity="1.00" d=" M 209.25 286.38 C 209.84 286.84 209.84 286.84 209.25 286.38 Z" />
</g>
<g id="#451413ff">
<path fill="#451413" opacity="1.00" d=" M 213.12 277.43 C 214.50 277.00 215.00 277.49 214.59 278.89 C 213.19 279.32 212.70 278.84 213.12 277.43 Z" />
</g>
<g id="#602624ff">
<path fill="#602624" opacity="1.00" d=" M 160.07 278.10 C 163.38 278.38 158.43 281.04 160.07 278.10 Z" />
</g>
<g id="#652925ff">
<path fill="#652925" opacity="1.00" d=" M 204.17 279.27 C 205.43 279.61 205.63 280.41 204.79 281.66 C 203.52 281.31 203.32 280.51 204.17 279.27 Z" />
</g>
<g id="#5c2824ff">
<path fill="#5c2824" opacity="1.00" d=" M 196.02 280.47 C 199.33 280.40 194.68 283.56 196.02 280.47 Z" />
</g>
<g id="#682a28ff">
<path fill="#682a28" opacity="1.00" d=" M 206.24 280.10 C 209.21 278.50 206.48 283.40 206.24 280.10 Z" />
</g>
<g id="#441d1aff">
<path fill="#441d1a" opacity="1.00" d=" M 167.26 282.18 C 168.88 281.63 169.43 282.18 168.93 283.82 C 167.30 284.35 166.75 283.81 167.26 282.18 Z" />
</g>
<g id="#642828ff">
<path fill="#642828" opacity="1.00" d=" M 185.44 282.02 C 188.47 280.53 185.54 285.34 185.44 282.02 Z" />
</g>
<g id="#4a1f1eff">
<path fill="#4a1f1e" opacity="1.00" d=" M 159.28 284.21 C 160.91 283.68 161.45 284.23 160.92 285.87 C 159.29 286.39 158.75 285.83 159.28 284.21 Z" />
</g>
<g id="#642824ff">
<path fill="#642824" opacity="1.00" d=" M 193.21 285.06 C 196.23 283.58 193.31 288.38 193.21 285.06 Z" />
</g>
<g id="#3c1210ff">
<path fill="#3c1210" opacity="1.00" d=" M 199.07 290.21 C 200.69 289.68 201.25 290.23 200.75 291.87 C 199.12 292.39 198.56 291.84 199.07 290.21 Z" />
</g>
<g id="#d3d7d3ff">
<path fill="#d3d7d3" opacity="1.00" d=" M 407.13 291.92 C 407.53 292.05 408.35 292.32 408.76 292.45 C 409.29 296.94 408.85 301.48 408.98 306.00 C 408.48 306.00 407.49 306.00 407.00 306.00 C 407.04 301.31 406.86 296.61 407.13 291.92 Z" />
</g>
</svg>
