<?xml version="1.0" encoding="UTF-8" ?>
<!DOCTYPE svg PUBLIC "-//W3C//DTD SVG 1.1//EN" "http://www.w3.org/Graphics/SVG/1.1/DTD/svg11.dtd">
<svg width="100pt" height="100pt" viewBox="0 0 100 100" version="1.1" xmlns="http://www.w3.org/2000/svg">
<g id="#407cc8ff">
<path fill="#407cc8" opacity="1.00" d=" M 0.00 0.00 L 100.00 0.00 L 100.00 100.00 L 0.00 100.00 L 0.00 0.00 M 41.77 21.88 C 41.45 27.30 41.79 32.73 41.66 38.16 C 44.36 39.30 47.74 40.08 50.16 37.90 C 50.47 32.61 50.45 27.27 50.22 21.97 C 48.67 19.39 43.49 19.37 41.77 21.88 M 21.36 33.00 C 20.05 40.63 17.59 48.17 18.01 56.00 C 18.29 60.88 17.53 65.85 18.41 70.67 C 20.03 74.65 24.90 73.77 28.31 73.81 C 28.86 74.52 29.41 75.22 29.96 75.93 C 39.90 76.02 49.84 75.91 59.77 75.99 C 57.23 70.88 57.26 63.80 62.09 60.03 C 65.19 56.79 69.87 56.92 73.98 57.38 C 74.61 49.09 72.04 41.11 70.62 33.04 C 70.37 30.71 68.43 28.65 66.01 28.67 C 61.46 28.45 56.89 28.69 52.34 28.59 C 52.38 29.51 52.48 31.36 52.53 32.28 C 54.60 33.88 57.83 34.43 58.78 37.17 C 59.55 39.36 57.29 40.91 55.60 41.72 C 49.81 44.32 42.89 44.36 37.02 42.01 C 35.36 41.21 33.13 40.12 32.98 38.04 C 33.96 35.10 36.93 33.72 39.52 32.51 C 39.54 31.20 39.55 29.89 39.57 28.59 C 35.03 28.69 30.48 28.44 25.94 28.67 C 23.55 28.69 21.60 30.68 21.36 33.00 M 59.41 65.75 C 59.40 69.09 58.96 72.87 61.54 75.47 C 65.12 80.59 73.35 81.13 77.54 76.51 C 82.00 72.54 81.67 64.68 77.00 61.00 C 74.38 58.20 70.33 57.99 66.78 58.66 C 63.37 59.80 61.22 62.84 59.41 65.75 Z" />
<path fill="#407cc8" opacity="1.00" d=" M 25.84 32.90 C 27.54 32.85 29.24 32.81 30.94 32.76 C 29.60 35.15 27.78 37.96 29.26 40.74 C 32.01 46.00 38.52 47.55 43.99 47.90 C 50.30 48.16 57.76 47.31 61.97 42.03 C 64.29 39.25 63.03 35.53 61.42 32.76 C 62.99 32.80 64.57 32.85 66.14 32.90 C 67.37 38.65 68.43 44.45 69.69 50.20 C 53.89 50.17 38.10 50.16 22.31 50.20 C 23.54 44.45 24.61 38.66 25.84 32.90 Z" />
</g>
<g id="#f8fcf8ff">
<path fill="#f8fcf8" opacity="1.00" d=" M 41.77 21.88 C 43.49 19.37 48.67 19.39 50.22 21.97 C 50.45 27.27 50.47 32.61 50.16 37.90 C 47.74 40.08 44.36 39.30 41.66 38.16 C 41.79 32.73 41.45 27.30 41.77 21.88 Z" />
<path fill="#f8fcf8" opacity="1.00" d=" M 21.36 33.00 C 21.60 30.68 23.55 28.69 25.94 28.67 C 30.48 28.44 35.03 28.69 39.57 28.59 C 39.55 29.89 39.54 31.20 39.52 32.51 C 36.93 33.72 33.96 35.10 32.98 38.04 C 33.13 40.12 35.36 41.21 37.02 42.01 C 42.89 44.36 49.81 44.32 55.60 41.72 C 57.29 40.91 59.55 39.36 58.78 37.17 C 57.83 34.43 54.60 33.88 52.53 32.28 C 52.48 31.36 52.38 29.51 52.34 28.59 C 56.89 28.69 61.46 28.45 66.01 28.67 C 68.43 28.65 70.37 30.71 70.62 33.04 C 72.04 41.11 74.61 49.09 73.98 57.38 C 69.87 56.92 65.19 56.79 62.09 60.03 C 57.26 63.80 57.23 70.88 59.77 75.99 C 49.84 75.91 39.90 76.02 29.96 75.93 C 29.41 75.22 28.86 74.52 28.31 73.81 C 24.90 73.77 20.03 74.65 18.41 70.67 C 17.53 65.85 18.29 60.88 18.01 56.00 C 17.59 48.17 20.05 40.63 21.36 33.00 M 25.84 32.90 C 24.61 38.66 23.54 44.45 22.31 50.20 C 38.10 50.16 53.89 50.17 69.69 50.20 C 68.43 44.45 67.37 38.65 66.14 32.90 C 64.57 32.85 62.99 32.80 61.42 32.76 C 63.03 35.53 64.29 39.25 61.97 42.03 C 57.76 47.31 50.30 48.16 43.99 47.90 C 38.52 47.55 32.01 46.00 29.26 40.74 C 27.78 37.96 29.60 35.15 30.94 32.76 C 29.24 32.81 27.54 32.85 25.84 32.90 Z" />
<path fill="#f8fcf8" opacity="1.00" d=" M 59.41 65.75 C 61.22 62.84 63.37 59.80 66.78 58.66 C 70.33 57.99 74.38 58.20 77.00 61.00 C 81.67 64.68 82.00 72.54 77.54 76.51 C 73.35 81.13 65.12 80.59 61.54 75.47 C 58.96 72.87 59.40 69.09 59.41 65.75 M 65.28 66.09 C 66.25 67.07 67.22 68.04 68.23 68.98 C 67.17 69.99 66.13 71.02 65.12 72.08 C 66.98 74.55 68.54 72.28 70.09 70.90 C 71.07 71.90 72.07 72.88 73.09 73.84 C 75.77 72.12 73.39 70.49 72.05 68.91 C 72.96 67.94 73.86 66.95 74.78 66.00 C 74.33 65.55 73.44 64.65 72.99 64.21 C 71.99 65.14 71.00 66.07 70.02 67.02 C 69.05 66.05 68.05 65.11 67.05 64.19 C 66.61 64.66 65.72 65.61 65.28 66.09 Z" />
</g>
<g id="#3878c8ff">
<path fill="#3878c8" opacity="1.00" d=" M 65.28 66.09 C 65.72 65.61 66.61 64.66 67.05 64.19 C 68.05 65.11 69.05 66.05 70.02 67.02 C 71.00 66.07 71.99 65.14 72.99 64.21 C 73.44 64.65 74.33 65.55 74.78 66.00 C 73.86 66.95 72.96 67.94 72.05 68.91 C 73.39 70.49 75.77 72.12 73.09 73.84 C 72.07 72.88 71.07 71.90 70.09 70.90 C 68.54 72.28 66.98 74.55 65.12 72.08 C 66.13 71.02 67.17 69.99 68.23 68.98 C 67.22 68.04 66.25 67.07 65.28 66.09 Z" />
</g>
</svg>
