<?xml version="1.0" encoding="UTF-8" ?>
<!DOCTYPE svg PUBLIC "-//W3C//DTD SVG 1.1//EN" "http://www.w3.org/Graphics/SVG/1.1/DTD/svg11.dtd">
<svg width="117px" height="140px" viewBox="0 0 117 140" version="1.1" xmlns="http://www.w3.org/2000/svg">
<g id="#000000ff">
<path fill="#000000" opacity="1.00" d=" M 0.00 0.00 L 117.00 0.00 L 117.00 140.00 L 0.00 140.00 L 0.00 0.00 M 33.09 10.22 C 17.88 11.83 5.19 25.63 5.02 40.95 C 5.02 60.64 4.93 80.33 5.06 100.02 C 5.70 115.63 19.34 129.25 34.93 129.94 C 49.94 130.09 64.96 129.94 79.97 130.02 C 86.06 130.16 92.20 128.62 97.42 125.46 C 106.95 119.87 113.13 109.06 113.00 98.00 C 113.00 79.31 113.00 60.63 113.00 41.94 C 113.09 31.90 107.99 22.04 99.88 16.16 C 94.16 11.96 87.04 9.78 79.96 9.98 C 64.34 10.17 48.70 9.70 33.09 10.22 Z" />
<path fill="#000000" opacity="1.00" d=" M 33.27 12.24 C 49.50 11.72 65.77 12.10 82.02 12.04 C 97.25 12.18 110.81 25.66 110.96 40.90 C 111.02 60.27 111.02 79.64 110.96 99.01 C 110.87 114.25 97.30 127.82 82.06 127.95 C 66.68 128.05 51.28 128.01 35.90 127.97 C 20.67 127.78 7.16 114.26 7.03 99.03 C 6.98 79.69 6.99 60.35 7.02 41.01 C 7.19 26.69 19.05 13.76 33.27 12.24 M 54.28 33.24 C 51.52 38.53 48.83 43.87 46.15 49.21 C 44.71 52.59 43.73 56.89 45.85 60.19 C 46.53 60.34 47.88 60.63 48.55 60.77 C 45.34 65.49 44.11 71.12 44.69 76.78 C 51.10 77.32 57.58 77.43 63.99 76.94 C 68.23 77.49 72.51 77.26 76.74 76.72 C 77.20 71.12 75.81 65.63 72.83 60.88 C 74.48 60.56 76.29 59.79 76.66 57.95 C 77.42 51.42 73.26 45.97 70.69 40.35 C 68.30 35.70 66.38 29.45 60.31 28.74 C 57.96 29.67 55.43 30.82 54.28 33.24 Z" />
<path fill="#000000" opacity="1.00" d=" M 57.67 33.50 C 59.43 31.11 63.34 31.99 64.44 34.59 C 67.14 39.64 69.60 44.82 72.21 49.92 C 73.54 52.32 73.72 55.08 73.81 57.75 C 71.84 57.76 69.88 57.76 67.91 57.76 C 70.36 62.89 74.04 67.83 73.84 73.79 C 65.10 73.97 56.36 73.79 47.62 73.89 C 46.99 67.85 50.90 62.88 53.38 57.73 C 51.45 57.72 49.53 57.72 47.60 57.72 C 46.98 52.10 50.49 47.48 52.75 42.68 C 54.40 39.63 55.69 36.36 57.67 33.50 Z" />
</g>
<g id="#6a6e6aff">
<path fill="#6a6e6a" opacity="1.00" d=" M 33.09 10.22 C 48.70 9.70 64.34 10.17 79.96 9.98 C 87.04 9.78 94.16 11.96 99.88 16.16 C 107.99 22.04 113.09 31.90 113.00 41.94 C 113.00 60.63 113.00 79.31 113.00 98.00 C 113.13 109.06 106.95 119.87 97.42 125.46 C 92.20 128.62 86.06 130.16 79.97 130.02 C 64.96 129.94 49.94 130.09 34.93 129.94 C 19.34 129.25 5.70 115.63 5.06 100.02 C 4.93 80.33 5.02 60.64 5.02 40.95 C 5.19 25.63 17.88 11.83 33.09 10.22 M 33.27 12.24 C 19.05 13.76 7.19 26.69 7.02 41.01 C 6.99 60.35 6.98 79.69 7.03 99.03 C 7.16 114.26 20.67 127.78 35.90 127.97 C 51.28 128.01 66.68 128.05 82.06 127.95 C 97.30 127.82 110.87 114.25 110.96 99.01 C 111.02 79.64 111.02 60.27 110.96 40.90 C 110.81 25.66 97.25 12.18 82.02 12.04 C 65.77 12.10 49.50 11.72 33.27 12.24 Z" />
</g>
<g id="#f8fcf8ff">
<path fill="#f8fcf8" opacity="1.00" d=" M 54.28 33.24 C 55.43 30.82 57.96 29.67 60.31 28.74 C 66.38 29.45 68.30 35.70 70.69 40.35 C 73.26 45.97 77.42 51.42 76.66 57.95 C 76.29 59.79 74.48 60.56 72.83 60.88 C 75.81 65.63 77.20 71.12 76.74 76.72 C 72.51 77.26 68.23 77.49 63.99 76.94 C 57.58 77.43 51.10 77.32 44.69 76.78 C 44.11 71.12 45.34 65.49 48.55 60.77 C 47.88 60.63 46.53 60.34 45.85 60.19 C 43.73 56.89 44.71 52.59 46.15 49.21 C 48.83 43.87 51.52 38.53 54.28 33.24 M 57.67 33.50 C 55.69 36.36 54.40 39.63 52.75 42.68 C 50.49 47.48 46.98 52.10 47.60 57.72 C 49.53 57.72 51.45 57.72 53.38 57.73 C 50.90 62.88 46.99 67.85 47.62 73.89 C 56.36 73.79 65.10 73.97 73.84 73.79 C 74.04 67.83 70.36 62.89 67.91 57.76 C 69.88 57.76 71.84 57.76 73.81 57.75 C 73.72 55.08 73.54 52.32 72.21 49.92 C 69.60 44.82 67.14 39.64 64.44 34.59 C 63.34 31.99 59.43 31.11 57.67 33.50 Z" />
</g>
</svg>
