<?xml version="1.0" encoding="UTF-8" ?>
<!DOCTYPE svg PUBLIC "-//W3C//DTD SVG 1.1//EN" "http://www.w3.org/Graphics/SVG/1.1/DTD/svg11.dtd">
<svg width="117pt" height="140pt" viewBox="0 0 117 140" version="1.1" xmlns="http://www.w3.org/2000/svg">
<g id="#000000ff">
<path fill="#000000" opacity="1.00" d=" M 0.00 0.00 L 117.00 0.00 L 117.00 140.00 L 0.00 140.00 L 0.00 0.00 M 32.14 10.22 C 16.91 11.80 4.17 25.63 4.02 40.97 C 3.96 59.97 4.02 78.97 3.99 97.97 C 3.88 108.29 9.24 118.42 17.73 124.27 C 23.32 128.18 30.18 130.20 36.99 130.02 C 52.00 129.92 67.02 130.12 82.02 129.93 C 97.97 129.30 111.84 115.06 111.97 99.09 C 112.04 80.07 111.98 61.05 112.00 42.03 C 112.06 34.10 108.98 26.25 103.62 20.42 C 97.45 13.56 88.20 9.70 78.99 9.98 C 63.37 10.17 47.74 9.70 32.14 10.22 Z" />
<path fill="#000000" opacity="1.00" d=" M 32.16 12.25 C 48.42 11.70 64.73 12.11 81.02 12.04 C 96.27 12.17 109.85 25.71 109.96 40.97 C 110.04 59.98 109.99 78.98 109.99 97.99 C 110.20 109.31 103.15 120.25 92.95 125.04 C 88.65 127.21 83.80 128.07 79.01 128.00 C 63.98 127.95 48.94 128.11 33.92 127.92 C 19.06 127.22 6.16 113.89 6.03 99.00 C 5.98 79.67 5.98 60.33 6.03 40.99 C 6.19 26.72 18.00 13.82 32.16 12.25 M 43.57 29.59 C 43.49 33.19 43.49 36.79 43.56 40.39 C 53.17 40.58 62.78 40.49 72.40 40.44 C 72.53 36.83 72.51 33.22 72.44 29.61 C 62.82 29.43 53.19 29.48 43.57 29.59 M 32.48 42.99 C 32.60 48.77 32.33 54.55 32.70 60.33 C 41.12 60.67 49.55 60.06 57.97 60.23 C 66.42 60.00 74.85 60.67 83.29 60.34 C 83.64 53.90 83.51 47.45 83.43 41.01 C 82.63 36.88 79.13 33.82 75.72 31.64 C 75.41 31.76 74.78 32.00 74.47 32.12 C 74.25 35.80 74.48 39.48 74.48 43.15 C 63.49 43.13 52.51 43.13 41.52 43.15 C 41.52 39.47 41.75 35.79 41.52 32.11 C 41.22 31.99 40.61 31.76 40.30 31.64 C 36.39 34.10 32.15 37.94 32.48 42.99 M 42.52 60.89 C 42.66 65.57 42.19 70.29 42.74 74.95 C 43.58 76.42 45.48 76.49 46.98 76.50 C 54.31 76.48 61.64 76.48 68.98 76.50 C 70.50 76.49 72.43 76.43 73.29 74.91 C 73.77 70.25 73.36 65.55 73.48 60.87 C 63.16 60.65 52.84 60.69 42.52 60.89 Z" />
<path fill="#000000" opacity="1.00" d=" M 46.39 32.36 C 54.13 32.57 61.87 32.57 69.61 32.35 C 69.58 34.12 69.58 35.88 69.61 37.64 C 61.87 37.43 54.13 37.43 46.39 37.65 C 46.42 35.88 46.42 34.12 46.39 32.36 Z" />
<path fill="#000000" opacity="1.00" d=" M 35.57 41.95 C 35.51 39.62 37.42 37.97 38.58 36.14 C 38.41 39.15 38.40 42.17 38.47 45.19 C 40.17 46.06 42.05 46.39 43.95 46.27 C 54.59 46.09 65.25 46.46 75.88 46.09 C 79.09 44.02 77.06 39.37 77.45 36.16 C 78.59 37.99 80.50 39.63 80.43 41.95 C 80.49 47.10 80.28 52.25 80.54 57.40 C 65.51 57.42 50.49 57.42 35.46 57.40 C 35.72 52.25 35.51 47.10 35.57 41.95 M 38.73 55.18 C 40.46 56.74 42.91 56.38 45.05 56.44 C 55.04 56.28 65.04 56.61 75.01 56.29 C 79.46 55.34 77.09 49.62 77.28 46.41 C 71.29 47.92 65.05 46.92 58.95 47.21 C 52.21 46.91 45.34 47.94 38.70 46.42 C 38.51 49.32 38.04 52.31 38.73 55.18 Z" />
<path fill="#000000" opacity="1.00" d=" M 41.37 50.27 C 52.45 50.33 63.54 50.34 74.63 50.26 C 74.59 51.03 74.51 52.56 74.48 53.33 C 63.49 53.25 52.51 53.24 41.52 53.33 C 41.49 52.56 41.41 51.03 41.37 50.27 Z" />
<path fill="#000000" opacity="1.00" d=" M 45.35 63.35 C 53.78 63.58 62.22 63.57 70.65 63.36 C 70.44 66.78 70.45 70.22 70.65 73.64 C 62.22 73.43 53.78 73.43 45.35 73.64 C 45.55 70.22 45.55 66.78 45.35 63.35 M 47.03 67.06 C 47.03 67.52 47.01 68.45 47.00 68.91 C 52.47 69.89 58.49 69.85 63.98 68.92 C 64.95 65.84 60.87 66.63 59.03 66.49 C 55.05 66.79 50.89 65.88 47.03 67.06 Z" />
</g>
<g id="#6a6e6aff">
<path fill="#6a6e6a" opacity="1.00" d=" M 32.14 10.22 C 47.74 9.70 63.37 10.17 78.99 9.98 C 88.20 9.70 97.45 13.56 103.62 20.42 C 108.98 26.25 112.06 34.10 112.00 42.03 C 111.98 61.05 112.04 80.07 111.97 99.09 C 111.84 115.06 97.97 129.30 82.02 129.93 C 67.02 130.12 52.00 129.92 36.99 130.02 C 30.18 130.20 23.32 128.18 17.73 124.27 C 9.24 118.42 3.88 108.29 3.99 97.97 C 4.02 78.97 3.96 59.97 4.02 40.97 C 4.17 25.63 16.91 11.80 32.14 10.22 M 32.16 12.25 C 18.00 13.82 6.19 26.72 6.03 40.99 C 5.98 60.33 5.98 79.67 6.03 99.00 C 6.16 113.89 19.06 127.22 33.92 127.92 C 48.94 128.11 63.98 127.95 79.01 128.00 C 83.80 128.07 88.65 127.21 92.95 125.04 C 103.15 120.25 110.20 109.31 109.99 97.99 C 109.99 78.98 110.04 59.98 109.96 40.97 C 109.85 25.71 96.27 12.17 81.02 12.04 C 64.73 12.11 48.42 11.70 32.16 12.25 Z" />
</g>
<g id="#e86010ff">
<path fill="#e86010" opacity="1.00" d=" M 43.57 29.59 C 53.19 29.48 62.82 29.43 72.44 29.61 C 72.51 33.22 72.53 36.83 72.40 40.44 C 62.78 40.49 53.17 40.58 43.56 40.39 C 43.49 36.79 43.49 33.19 43.57 29.59 M 46.39 32.36 C 46.42 34.12 46.42 35.88 46.39 37.65 C 54.13 37.43 61.87 37.43 69.61 37.64 C 69.58 35.88 69.58 34.12 69.61 32.35 C 61.87 32.57 54.13 32.57 46.39 32.36 Z" />
<path fill="#e86010" opacity="1.00" d=" M 32.48 42.99 C 32.15 37.94 36.39 34.10 40.30 31.64 C 40.61 31.76 41.22 31.99 41.52 32.11 C 41.75 35.79 41.52 39.47 41.52 43.15 C 52.51 43.13 63.49 43.13 74.48 43.15 C 74.48 39.48 74.25 35.80 74.47 32.12 C 74.78 32.00 75.41 31.76 75.72 31.64 C 79.13 33.82 82.63 36.88 83.43 41.01 C 83.51 47.45 83.64 53.90 83.29 60.34 C 74.85 60.67 66.42 60.00 57.97 60.23 C 49.55 60.06 41.12 60.67 32.70 60.33 C 32.33 54.55 32.60 48.77 32.48 42.99 M 35.57 41.95 C 35.51 47.10 35.72 52.25 35.46 57.40 C 50.49 57.42 65.51 57.42 80.54 57.40 C 80.28 52.25 80.49 47.10 80.43 41.95 C 80.50 39.63 78.59 37.99 77.45 36.16 C 77.06 39.37 79.09 44.02 75.88 46.09 C 65.25 46.46 54.59 46.09 43.95 46.27 C 42.05 46.39 40.17 46.06 38.47 45.19 C 38.40 42.17 38.41 39.15 38.58 36.14 C 37.42 37.97 35.51 39.62 35.57 41.95 Z" />
<path fill="#e86010" opacity="1.00" d=" M 38.73 55.18 C 38.04 52.31 38.51 49.32 38.70 46.42 C 45.34 47.94 52.21 46.91 58.95 47.21 C 65.05 46.92 71.29 47.92 77.28 46.41 C 77.09 49.62 79.46 55.34 75.01 56.29 C 65.04 56.61 55.04 56.28 45.05 56.44 C 42.91 56.38 40.46 56.74 38.73 55.18 M 41.37 50.27 C 41.41 51.03 41.49 52.56 41.52 53.33 C 52.51 53.24 63.49 53.25 74.48 53.33 C 74.51 52.56 74.59 51.03 74.63 50.26 C 63.54 50.34 52.45 50.33 41.37 50.27 Z" />
<path fill="#e86010" opacity="1.00" d=" M 47.03 67.06 C 50.89 65.88 55.05 66.79 59.03 66.49 C 60.87 66.63 64.95 65.84 63.98 68.92 C 58.49 69.85 52.47 69.89 47.00 68.91 C 47.01 68.45 47.03 67.52 47.03 67.06 Z" />
</g>
<g id="#e76010ff">
<path fill="#e76010" opacity="1.00" d=" M 42.52 60.89 C 52.84 60.69 63.16 60.65 73.48 60.87 C 73.36 65.55 73.77 70.25 73.29 74.91 C 72.43 76.43 70.50 76.49 68.98 76.50 C 61.64 76.48 54.31 76.48 46.98 76.50 C 45.48 76.49 43.58 76.42 42.74 74.95 C 42.19 70.29 42.66 65.57 42.52 60.89 M 45.35 63.35 C 45.55 66.78 45.55 70.22 45.35 73.64 C 53.78 73.43 62.22 73.43 70.65 73.64 C 70.45 70.22 70.44 66.78 70.65 63.36 C 62.22 63.57 53.78 63.58 45.35 63.35 Z" />
</g>
</svg>
