<?xml version="1.0" encoding="UTF-8" ?>
<!DOCTYPE svg PUBLIC "-//W3C//DTD SVG 1.1//EN" "http://www.w3.org/Graphics/SVG/1.1/DTD/svg11.dtd">
<svg width="117px" height="140px" viewBox="0 0 117 140" version="1.1" xmlns="http://www.w3.org/2000/svg">
<g id="#000000ff">
<path fill="#000000" opacity="1.00" d=" M 0.00 0.00 L 117.00 0.00 L 117.00 140.00 L 0.00 140.00 L 0.00 0.00 M 33.22 10.21 C 17.94 11.75 5.16 25.61 5.02 40.98 C 4.97 60.00 5.02 79.01 4.99 98.03 C 4.91 107.62 9.54 117.04 17.02 123.00 C 22.89 127.71 30.45 130.22 37.97 130.02 C 53.01 129.92 68.06 130.13 83.10 129.92 C 98.65 129.25 112.28 115.66 112.92 100.09 C 113.12 81.06 112.92 62.02 113.02 42.99 C 113.22 35.43 110.73 27.82 105.93 21.96 C 99.80 14.18 89.89 9.67 80.01 9.98 C 64.41 10.16 48.80 9.71 33.22 10.21 Z" />
<path fill="#000000" opacity="1.00" d=" M 33.18 12.25 C 49.46 11.71 65.78 12.10 82.08 12.04 C 97.31 12.21 110.86 25.73 110.96 40.98 C 111.03 60.31 111.03 79.65 110.96 98.99 C 110.89 114.27 97.25 127.87 81.98 127.95 C 66.64 128.04 51.30 128.01 35.96 127.96 C 20.72 127.82 7.17 114.29 7.03 99.05 C 6.98 79.70 6.98 60.36 7.03 41.01 C 7.18 26.73 19.01 13.80 33.18 12.25 M 53.84 46.87 C 53.46 46.54 52.72 45.89 52.35 45.56 C 51.54 45.59 49.93 45.63 49.13 45.66 C 43.82 50.39 42.79 57.77 40.38 64.11 C 39.26 68.19 36.33 72.91 39.14 76.94 C 40.77 79.95 44.66 80.10 47.61 79.50 C 53.64 77.33 59.92 75.78 65.74 73.08 C 68.82 71.05 73.80 68.05 71.48 63.73 C 76.94 62.60 81.16 58.93 84.92 55.04 C 77.60 47.27 69.82 39.95 62.38 32.30 C 57.96 36.08 55.27 41.30 53.84 46.87 Z" />
<path fill="#000000" opacity="1.00" d=" M 62.31 36.45 C 68.44 42.85 74.89 48.93 81.00 55.34 C 78.17 58.85 73.85 59.74 69.93 61.43 C 68.71 61.58 67.49 61.73 66.27 61.86 C 66.23 62.24 66.14 63.00 66.10 63.38 C 67.29 64.55 68.46 65.74 69.59 66.97 C 67.99 68.21 66.48 69.59 64.78 70.70 C 62.47 71.35 60.12 71.91 58.03 73.14 C 53.58 74.19 49.28 75.85 44.97 77.37 C 43.57 76.66 41.96 76.11 41.09 74.70 C 40.36 70.99 42.69 67.66 43.47 64.16 C 45.64 58.71 46.35 52.29 50.83 48.09 C 52.26 49.52 53.71 50.94 55.16 52.35 C 57.10 46.89 58.06 40.71 62.31 36.45 Z" />
</g>
<g id="#6a6e6aff">
<path fill="#6a6e6a" opacity="1.00" d=" M 33.22 10.21 C 48.80 9.71 64.41 10.16 80.01 9.98 C 89.89 9.67 99.80 14.18 105.93 21.96 C 110.73 27.82 113.22 35.43 113.02 42.99 C 112.92 62.02 113.12 81.06 112.92 100.09 C 112.28 115.66 98.65 129.25 83.10 129.92 C 68.06 130.13 53.01 129.92 37.97 130.02 C 30.45 130.22 22.89 127.71 17.02 123.00 C 9.54 117.04 4.91 107.62 4.99 98.03 C 5.02 79.01 4.97 60.00 5.02 40.98 C 5.16 25.61 17.94 11.75 33.22 10.21 M 33.18 12.25 C 19.01 13.80 7.18 26.73 7.03 41.01 C 6.98 60.36 6.98 79.70 7.03 99.05 C 7.17 114.29 20.72 127.82 35.96 127.96 C 51.30 128.01 66.64 128.04 81.98 127.95 C 97.25 127.87 110.89 114.27 110.96 98.99 C 111.03 79.65 111.03 60.31 110.96 40.98 C 110.86 25.73 97.31 12.21 82.08 12.04 C 65.78 12.10 49.46 11.71 33.18 12.25 Z" />
</g>
<g id="#f8fcf8ff">
<path fill="#f8fcf8" opacity="1.00" d=" M 53.84 46.87 C 55.27 41.30 57.96 36.08 62.38 32.30 C 69.82 39.95 77.60 47.27 84.92 55.04 C 81.16 58.93 76.94 62.60 71.48 63.73 C 73.80 68.05 68.82 71.05 65.74 73.08 C 59.92 75.78 53.64 77.33 47.61 79.50 C 44.66 80.10 40.77 79.95 39.14 76.94 C 36.33 72.91 39.26 68.19 40.38 64.11 C 42.79 57.77 43.82 50.39 49.13 45.66 C 49.93 45.63 51.54 45.59 52.35 45.56 C 52.72 45.89 53.46 46.54 53.84 46.87 M 62.31 36.45 C 58.06 40.71 57.10 46.89 55.16 52.35 C 53.71 50.94 52.26 49.52 50.83 48.09 C 46.35 52.29 45.64 58.71 43.47 64.16 C 42.69 67.66 40.36 70.99 41.09 74.70 C 41.96 76.11 43.57 76.66 44.97 77.37 C 49.28 75.85 53.58 74.19 58.03 73.14 C 60.12 71.91 62.47 71.35 64.78 70.70 C 66.48 69.59 67.99 68.21 69.59 66.97 C 68.46 65.74 67.29 64.55 66.10 63.38 C 66.14 63.00 66.23 62.24 66.27 61.86 C 67.49 61.73 68.71 61.58 69.93 61.43 C 73.85 59.74 78.17 58.85 81.00 55.34 C 74.89 48.93 68.44 42.85 62.31 36.45 Z" />
</g>
</svg>
