<?xml version="1.0" encoding="UTF-8" ?>
<!DOCTYPE svg PUBLIC "-//W3C//DTD SVG 1.1//EN" "http://www.w3.org/Graphics/SVG/1.1/DTD/svg11.dtd">
<svg width="117px" height="140px" viewBox="0 0 117 140" version="1.1" xmlns="http://www.w3.org/2000/svg">
<g id="#000000ff">
<path fill="#000000" opacity="1.00" d=" M 0.00 0.00 L 117.00 0.00 L 117.00 140.00 L 0.00 140.00 L 0.00 0.00 M 33.16 10.22 C 17.90 11.79 5.16 25.65 5.02 41.01 C 4.99 60.36 4.99 79.71 5.02 99.06 C 5.18 115.00 18.98 129.25 34.90 129.93 C 50.59 130.08 66.28 129.99 81.97 129.97 C 97.96 129.88 112.29 116.02 112.93 100.04 C 113.10 80.69 112.95 61.32 113.00 41.97 C 113.06 33.34 109.36 24.80 103.10 18.88 C 97.02 12.97 88.49 9.76 80.03 9.98 C 64.41 10.17 48.77 9.69 33.16 10.22 Z" />
<path fill="#000000" opacity="1.00" d=" M 33.21 12.35 C 48.44 11.71 63.72 12.26 78.96 12.06 C 85.31 11.88 91.79 13.28 97.12 16.84 C 105.59 22.11 110.98 31.96 110.90 41.93 C 110.95 60.63 110.95 79.32 110.90 98.02 C 111.01 108.71 104.81 119.22 95.34 124.22 C 90.69 126.88 85.30 127.96 79.98 127.93 C 65.65 127.92 51.30 127.96 36.97 127.91 C 26.28 127.98 15.78 121.82 10.79 112.35 C 8.13 107.72 6.99 102.36 7.07 97.06 C 7.11 78.35 6.99 59.64 7.13 40.93 C 7.32 26.72 19.08 13.84 33.21 12.35 M 45.12 38.07 C 44.20 40.96 43.82 43.97 43.97 47.00 C 41.98 47.00 39.99 47.00 38.00 47.00 C 38.00 47.75 38.00 49.25 38.00 50.00 C 39.98 50.00 41.96 50.00 43.93 50.00 C 43.87 52.69 44.35 55.34 45.12 57.92 C 50.22 60.21 53.77 55.18 57.53 52.65 C 60.22 51.15 61.54 47.28 59.23 44.86 C 56.54 42.41 53.57 40.27 50.66 38.08 C 48.97 36.91 46.93 37.80 45.12 38.07 M 57.91 71.05 C 57.70 73.15 57.71 75.25 57.81 77.35 C 52.38 77.42 46.95 77.39 41.51 77.37 C 41.56 75.68 41.61 73.99 41.66 72.30 C 41.02 72.26 39.75 72.16 39.11 72.11 C 39.20 74.27 38.57 76.64 39.53 78.66 C 40.42 80.26 42.44 79.88 43.96 79.96 C 54.97 79.82 65.98 80.12 76.98 79.82 C 80.05 78.61 78.69 74.65 78.91 72.12 C 78.27 72.17 76.98 72.26 76.34 72.30 C 76.39 73.99 76.44 75.68 76.49 77.37 C 71.05 77.39 65.61 77.42 60.17 77.35 C 59.97 75.14 61.62 70.75 57.91 71.05 Z" />
<path fill="#000000" opacity="1.00" d=" M 49.00 41.81 C 51.67 43.87 54.33 45.93 56.99 48.00 C 54.33 50.07 51.67 52.13 49.00 54.19 C 49.00 50.06 49.00 45.94 49.00 41.81 Z" />
</g>
<g id="#717171ff">
<path fill="#717171" opacity="1.00" d=" M 33.16 10.22 C 48.77 9.69 64.41 10.17 80.03 9.98 C 88.49 9.76 97.02 12.97 103.10 18.88 C 109.36 24.80 113.06 33.34 113.00 41.97 C 112.95 61.32 113.10 80.69 112.93 100.04 C 112.29 116.02 97.96 129.88 81.97 129.97 C 66.28 129.99 50.59 130.08 34.90 129.93 C 18.98 129.25 5.18 115.00 5.02 99.06 C 4.99 79.71 4.99 60.36 5.02 41.01 C 5.16 25.65 17.90 11.79 33.16 10.22 M 33.21 12.35 C 19.08 13.84 7.32 26.72 7.13 40.93 C 6.99 59.64 7.11 78.35 7.07 97.06 C 6.99 102.36 8.13 107.72 10.79 112.35 C 15.78 121.82 26.28 127.98 36.97 127.91 C 51.30 127.96 65.65 127.92 79.98 127.93 C 85.30 127.96 90.69 126.88 95.34 124.22 C 104.81 119.22 111.01 108.71 110.90 98.02 C 110.95 79.32 110.95 60.63 110.90 41.93 C 110.98 31.96 105.59 22.11 97.12 16.84 C 91.79 13.28 85.31 11.88 78.96 12.06 C 63.72 12.26 48.44 11.71 33.21 12.35 Z" />
</g>
<g id="#f8fcf8ff">
<path fill="#f8fcf8" opacity="1.00" d=" M 45.12 38.07 C 46.93 37.80 48.97 36.91 50.66 38.08 C 53.57 40.27 56.54 42.41 59.23 44.86 C 61.54 47.28 60.22 51.15 57.53 52.65 C 53.77 55.18 50.22 60.21 45.12 57.92 C 44.35 55.34 43.87 52.69 43.93 50.00 C 41.96 50.00 39.98 50.00 38.00 50.00 C 38.00 49.25 38.00 47.75 38.00 47.00 C 39.99 47.00 41.98 47.00 43.97 47.00 C 43.82 43.97 44.20 40.96 45.12 38.07 M 49.00 41.81 C 49.00 45.94 49.00 50.06 49.00 54.19 C 51.67 52.13 54.33 50.07 56.99 48.00 C 54.33 45.93 51.67 43.87 49.00 41.81 Z" />
<path fill="#f8fcf8" opacity="1.00" d=" M 57.91 71.05 C 61.62 70.75 59.97 75.14 60.17 77.35 C 65.61 77.42 71.05 77.39 76.49 77.37 C 76.44 75.68 76.39 73.99 76.34 72.30 C 76.98 72.26 78.27 72.17 78.91 72.12 C 78.69 74.65 80.05 78.61 76.98 79.82 C 65.98 80.12 54.97 79.82 43.96 79.96 C 42.44 79.88 40.42 80.26 39.53 78.66 C 38.57 76.64 39.20 74.27 39.11 72.11 C 39.75 72.16 41.02 72.26 41.66 72.30 C 41.61 73.99 41.56 75.68 41.51 77.37 C 46.95 77.39 52.38 77.42 57.81 77.35 C 57.71 75.25 57.70 73.15 57.91 71.05 Z" />
</g>
</svg>
