<?xml version="1.0" encoding="UTF-8" ?>
<!DOCTYPE svg PUBLIC "-//W3C//DTD SVG 1.1//EN" "http://www.w3.org/Graphics/SVG/1.1/DTD/svg11.dtd">
<svg width="117px" height="140px" viewBox="0 0 117 140" version="1.1" xmlns="http://www.w3.org/2000/svg">
<g id="#000000ff">
<path fill="#000000" opacity="1.00" d=" M 0.00 0.00 L 117.00 0.00 L 117.00 140.00 L 0.00 140.00 L 0.00 0.00 M 33.20 10.22 C 17.95 11.76 5.20 25.59 5.02 40.94 C 4.99 60.32 4.99 79.69 5.02 99.06 C 5.17 115.36 19.61 129.82 35.92 129.98 C 51.63 129.99 67.34 130.09 83.05 129.93 C 98.99 129.27 112.84 115.01 112.98 99.06 C 113.04 80.03 112.98 61.01 113.00 41.99 C 113.07 33.35 109.36 24.78 103.07 18.86 C 96.99 12.95 88.46 9.76 80.01 9.98 C 64.41 10.16 48.79 9.70 33.20 10.22 Z" />
<path fill="#000000" opacity="1.00" d=" M 30.49 12.70 C 34.94 11.71 39.52 12.06 44.03 12.00 C 57.03 12.06 70.03 11.89 83.03 12.08 C 97.90 12.73 110.84 26.05 110.96 40.95 C 111.03 60.32 111.03 79.69 110.96 99.05 C 110.87 114.68 96.63 128.39 81.02 127.98 C 65.65 127.97 50.28 128.10 34.91 127.91 C 20.06 127.23 7.16 113.91 7.03 99.03 C 6.98 79.69 6.98 60.35 7.03 41.01 C 7.19 27.67 17.47 15.42 30.49 12.70 M 38.03 44.22 C 36.61 44.70 36.13 46.05 35.94 47.40 C 39.16 49.82 43.27 48.73 46.99 48.93 C 47.31 50.70 45.97 54.45 48.91 54.24 C 57.22 54.18 65.56 54.52 73.86 54.03 C 73.94 52.33 73.98 50.63 74.01 48.93 C 77.73 48.77 81.80 49.73 85.05 47.41 C 85.10 44.66 82.27 43.88 80.27 42.84 C 74.87 40.33 69.84 37.13 64.46 34.58 C 62.82 33.89 61.04 31.99 59.18 33.13 C 52.06 36.70 45.21 40.78 38.03 44.22 M 47.02 60.00 C 51.64 60.77 56.34 60.24 61.00 60.38 C 65.33 60.25 69.70 60.76 73.99 59.99 C 73.65 58.52 74.80 56.07 72.71 55.56 C 64.58 55.42 56.42 55.42 48.29 55.56 C 46.18 56.07 47.36 58.53 47.02 60.00 M 47.24 65.79 C 56.08 65.86 64.92 65.86 73.77 65.79 C 73.82 65.10 73.92 63.71 73.97 63.02 C 73.76 61.14 71.27 61.92 70.02 61.69 C 62.74 61.82 55.45 61.53 48.17 61.83 C 46.20 62.10 47.33 64.53 47.24 65.79 M 47.29 67.29 C 47.21 67.96 47.03 69.30 46.95 69.97 C 55.98 70.32 65.05 70.34 74.07 69.95 C 73.88 68.63 74.16 66.60 72.15 67.06 C 63.87 67.15 55.54 66.71 47.29 67.29 M 47.31 71.26 C 45.94 73.18 48.54 73.63 49.96 73.53 C 57.50 73.44 65.04 73.64 72.57 73.44 C 75.00 73.54 74.02 70.29 72.03 70.82 C 64.06 70.88 56.09 70.74 48.12 70.89 L 47.31 71.26 Z" />
<path fill="#000000" opacity="1.00" d=" M 45.38 44.92 C 50.53 42.49 55.40 39.53 60.52 37.05 C 65.60 39.46 70.25 42.71 75.51 44.69 C 73.66 44.82 71.81 44.88 69.96 45.02 C 69.93 46.72 69.95 48.43 69.97 50.13 C 63.65 50.13 57.34 50.13 51.03 50.13 C 51.05 48.41 51.07 46.69 51.05 44.96 C 49.16 44.89 47.27 44.90 45.38 44.92 Z" />
</g>
<g id="#717271ff">
<path fill="#717271" opacity="1.00" d=" M 33.20 10.22 C 48.79 9.70 64.41 10.16 80.01 9.98 C 88.46 9.76 96.99 12.95 103.07 18.86 C 109.36 24.78 113.07 33.35 113.00 41.99 C 112.98 61.01 113.04 80.03 112.98 99.06 C 112.84 115.01 98.99 129.27 83.05 129.93 C 67.34 130.09 51.63 129.99 35.92 129.98 C 19.61 129.82 5.17 115.36 5.02 99.06 C 4.99 79.69 4.99 60.32 5.02 40.94 C 5.20 25.59 17.95 11.76 33.20 10.22 M 30.49 12.70 C 17.47 15.42 7.19 27.67 7.03 41.01 C 6.98 60.35 6.98 79.69 7.03 99.03 C 7.16 113.91 20.06 127.23 34.91 127.91 C 50.28 128.10 65.65 127.97 81.02 127.98 C 96.63 128.39 110.87 114.68 110.96 99.05 C 111.03 79.69 111.03 60.32 110.96 40.95 C 110.84 26.05 97.90 12.73 83.03 12.08 C 70.03 11.89 57.03 12.06 44.03 12.00 C 39.52 12.06 34.94 11.71 30.49 12.70 Z" />
</g>
<g id="#f8fcf8ff">
<path fill="#f8fcf8" opacity="1.00" d=" M 38.03 44.22 C 45.21 40.78 52.06 36.70 59.18 33.13 C 61.04 31.99 62.82 33.89 64.46 34.58 C 69.84 37.13 74.87 40.33 80.27 42.84 C 82.27 43.88 85.10 44.66 85.05 47.41 C 81.80 49.73 77.73 48.77 74.01 48.93 C 73.98 50.63 73.94 52.33 73.86 54.03 C 65.56 54.52 57.22 54.18 48.91 54.24 C 45.97 54.45 47.31 50.70 46.99 48.93 C 43.27 48.73 39.16 49.82 35.94 47.40 C 36.13 46.05 36.61 44.70 38.03 44.22 M 45.38 44.92 C 47.27 44.90 49.16 44.89 51.05 44.96 C 51.07 46.69 51.05 48.41 51.03 50.13 C 57.34 50.13 63.65 50.13 69.97 50.13 C 69.95 48.43 69.93 46.72 69.96 45.02 C 71.81 44.88 73.66 44.82 75.51 44.69 C 70.25 42.71 65.60 39.46 60.52 37.05 C 55.40 39.53 50.53 42.49 45.38 44.92 Z" />
<path fill="#f8fcf8" opacity="1.00" d=" M 47.02 60.00 C 47.36 58.53 46.18 56.07 48.29 55.56 C 56.42 55.42 64.58 55.42 72.71 55.56 C 74.80 56.07 73.65 58.52 73.99 59.99 C 69.70 60.76 65.33 60.25 61.00 60.38 C 56.34 60.24 51.64 60.77 47.02 60.00 Z" />
<path fill="#f8fcf8" opacity="1.00" d=" M 47.24 65.79 C 47.33 64.53 46.20 62.10 48.17 61.83 C 55.45 61.53 62.74 61.82 70.02 61.69 C 71.27 61.92 73.76 61.14 73.97 63.02 C 73.92 63.71 73.82 65.10 73.77 65.79 C 64.92 65.86 56.08 65.86 47.24 65.79 Z" />
<path fill="#f8fcf8" opacity="1.00" d=" M 47.29 67.29 C 55.54 66.71 63.87 67.15 72.15 67.06 C 74.16 66.60 73.88 68.63 74.07 69.95 C 65.05 70.34 55.98 70.32 46.95 69.97 C 47.03 69.30 47.21 67.96 47.29 67.29 Z" />
<path fill="#f8fcf8" opacity="1.00" d=" M 47.31 71.26 L 48.12 70.89 C 56.09 70.74 64.06 70.88 72.03 70.82 C 74.02 70.29 75.00 73.54 72.57 73.44 C 65.04 73.64 57.50 73.44 49.96 73.53 C 48.54 73.63 45.94 73.18 47.31 71.26 Z" />
</g>
</svg>
