<?xml version="1.0" encoding="UTF-8" ?>
<!DOCTYPE svg PUBLIC "-//W3C//DTD SVG 1.1//EN" "http://www.w3.org/Graphics/SVG/1.1/DTD/svg11.dtd">
<svg width="117px" height="140px" viewBox="0 0 117 140" version="1.1" xmlns="http://www.w3.org/2000/svg">
<g id="#181818ff">
<path fill="#181818" opacity="1.00" d=" M 0.00 0.00 L 117.00 0.00 L 117.00 140.00 L 0.00 140.00 L 0.00 0.00 M 54.14 14.01 C 53.81 16.64 54.09 19.31 54.01 21.97 C 53.98 24.68 54.00 27.39 54.01 30.10 C 53.98 32.76 54.02 35.43 54.01 38.09 C 53.98 40.43 54.02 42.78 54.01 45.12 C 54.04 47.59 53.55 50.50 55.45 52.45 C 57.77 54.97 62.50 54.06 63.60 50.78 C 64.30 48.27 63.92 45.62 63.98 43.04 C 63.98 40.65 64.01 38.25 63.99 35.86 C 63.99 33.18 64.02 30.50 63.99 27.82 C 64.01 25.27 64.01 22.72 63.98 20.16 C 63.81 17.11 64.84 13.16 61.98 11.03 C 59.27 8.78 54.70 10.55 54.14 14.01 M 25.49 22.59 C 23.69 25.98 26.37 29.95 29.77 30.92 C 28.71 31.90 27.75 32.98 27.09 34.27 C 24.78 38.22 23.26 42.59 22.47 47.09 C 22.05 49.46 22.05 51.87 22.00 54.27 C 22.17 58.75 23.22 63.17 24.89 67.32 C 26.56 71.37 29.02 75.06 32.00 78.25 C 38.91 85.79 49.13 90.18 59.36 89.92 C 62.91 90.08 66.54 89.50 69.91 88.42 C 72.89 87.12 76.26 86.25 78.73 84.07 C 80.49 86.72 81.50 91.53 85.34 91.44 L 84.57 91.80 C 87.30 92.02 90.11 92.24 92.82 91.73 C 96.08 90.57 97.58 86.98 96.98 83.71 C 96.23 80.56 98.82 75.36 94.98 73.84 C 94.56 74.09 93.70 74.60 93.28 74.86 C 92.56 73.65 91.68 72.54 90.11 73.08 C 92.73 68.74 94.73 63.96 95.50 58.93 C 96.22 54.22 96.10 49.39 95.09 44.73 C 94.83 43.40 94.43 42.08 93.68 40.93 C 97.79 39.74 95.40 33.20 91.37 35.18 C 89.57 31.95 87.38 28.87 84.60 26.41 C 82.75 25.45 80.69 28.12 82.31 29.58 C 84.91 32.40 87.26 35.46 88.89 38.96 C 90.26 42.21 91.06 45.62 91.78 49.06 C 92.07 52.41 92.01 55.78 91.45 59.10 C 90.59 63.19 89.04 67.09 86.96 70.71 C 86.48 71.04 85.52 71.71 85.04 72.04 C 85.02 71.47 84.99 70.33 84.97 69.77 C 84.90 67.21 85.18 64.64 84.85 62.10 C 84.02 60.30 80.96 60.85 81.03 62.88 C 80.93 65.92 81.06 68.96 81.01 72.00 C 81.01 74.08 80.98 76.16 80.92 78.24 L 80.12 78.36 C 79.00 76.54 77.90 72.14 75.00 73.91 C 72.91 76.15 76.24 78.57 76.94 80.75 C 73.88 82.61 70.57 83.99 67.19 85.16 C 67.11 84.83 66.95 84.16 66.87 83.83 C 67.63 80.81 64.15 77.88 61.34 79.37 C 58.55 80.52 58.35 84.40 60.50 86.30 C 51.87 86.04 43.01 83.34 36.72 77.21 L 36.51 77.25 C 33.33 74.05 30.60 70.38 28.80 66.22 L 28.68 66.25 C 27.47 63.10 26.65 59.83 26.16 56.49 C 25.93 53.33 26.05 50.16 26.52 47.03 C 27.29 43.41 28.46 39.84 30.41 36.67 C 31.73 33.71 34.43 31.52 35.78 28.77 C 37.49 26.14 37.29 22.27 34.65 20.33 C 31.82 17.68 26.89 19.10 25.49 22.59 Z" />
</g>
<g id="#f8d470ff">
<path fill="#f8d470" opacity="1.00" d=" M 54.14 14.01 C 54.70 10.55 59.27 8.78 61.98 11.03 C 64.84 13.16 63.81 17.11 63.98 20.16 C 60.76 21.22 57.40 21.74 54.01 21.97 C 54.09 19.31 53.81 16.64 54.14 14.01 Z" />
</g>
<g id="#50dc90ff">
<path fill="#50dc90" opacity="1.00" d=" M 25.49 22.59 C 26.89 19.10 31.82 17.68 34.65 20.33 C 37.29 22.27 37.49 26.14 35.78 28.77 C 34.14 30.29 32.03 31.18 29.77 30.92 C 26.37 29.95 23.69 25.98 25.49 22.59 Z" />
</g>
<g id="#f8bc60ff">
<path fill="#f8bc60" opacity="1.00" d=" M 54.01 21.97 C 57.40 21.74 60.76 21.22 63.98 20.16 C 64.01 22.72 64.01 25.27 63.99 27.82 C 60.64 28.47 57.31 29.22 54.01 30.10 C 54.00 27.39 53.98 24.68 54.01 21.97 Z" />
</g>
<g id="#9060f0ff">
<path fill="#9060f0" opacity="1.00" d=" M 82.31 29.58 C 80.69 28.12 82.75 25.45 84.60 26.41 C 87.38 28.87 89.57 31.95 91.37 35.18 C 90.61 36.54 90.03 37.98 89.59 39.47 L 88.89 38.96 C 87.26 35.46 84.91 32.40 82.31 29.58 Z" />
</g>
<g id="#f8ac50ff">
<path fill="#f8ac50" opacity="1.00" d=" M 54.01 30.10 C 57.31 29.22 60.64 28.47 63.99 27.82 C 64.02 30.50 63.99 33.18 63.99 35.86 C 60.66 36.59 57.33 37.33 54.01 38.09 C 54.02 35.43 53.98 32.76 54.01 30.10 Z" />
</g>
<g id="#583898ff">
<path fill="#583898" opacity="1.00" d=" M 29.77 30.92 C 32.03 31.18 34.14 30.29 35.78 28.77 C 34.43 31.52 31.73 33.71 30.41 36.67 C 29.79 35.29 28.53 34.55 27.09 34.27 C 27.75 32.98 28.71 31.90 29.77 30.92 Z" />
</g>
<g id="#7858e8ff">
<path fill="#7858e8" opacity="1.00" d=" M 27.09 34.27 C 28.53 34.55 29.79 35.29 30.41 36.67 C 28.46 39.84 27.29 43.41 26.52 47.03 C 25.51 47.05 23.48 47.08 22.47 47.09 C 23.26 42.59 24.78 38.22 27.09 34.27 Z" />
</g>
<g id="#d860d0ff">
<path fill="#d860d0" opacity="1.00" d=" M 91.37 35.18 C 95.40 33.20 97.79 39.74 93.68 40.93 C 92.20 40.84 90.79 40.36 89.59 39.47 C 90.03 37.98 90.61 36.54 91.37 35.18 Z" />
</g>
<g id="#f89c48ff">
<path fill="#f89c48" opacity="1.00" d=" M 54.01 38.09 C 57.33 37.33 60.66 36.59 63.99 35.86 C 64.01 38.25 63.98 40.65 63.98 43.04 C 60.67 43.80 57.35 44.48 54.01 45.12 C 54.02 42.78 53.98 40.43 54.01 38.09 Z" />
<path fill="#f89c48" opacity="1.00" d=" M 90.11 73.08 C 91.68 72.54 92.56 73.65 93.28 74.86 C 93.70 74.60 94.56 74.09 94.98 73.84 C 98.82 75.36 96.23 80.56 96.98 83.71 C 93.01 86.17 89.82 89.84 85.34 91.44 C 81.50 91.53 80.49 86.72 78.73 84.07 L 78.31 83.30 C 81.64 79.87 86.07 77.78 89.26 74.23 C 89.47 73.94 89.90 73.37 90.11 73.08 Z" />
</g>
<g id="#513c9dff">
<path fill="#513c9d" opacity="1.00" d=" M 88.89 38.96 L 89.59 39.47 C 90.79 40.36 92.20 40.84 93.68 40.93 C 94.43 42.08 94.83 43.40 95.09 44.73 C 93.97 45.04 92.87 45.42 91.81 45.87 C 91.80 46.67 91.78 48.27 91.78 49.06 C 91.06 45.62 90.26 42.21 88.89 38.96 Z" />
</g>
<g id="#f88438ff">
<path fill="#f88438" opacity="1.00" d=" M 54.01 45.12 C 57.35 44.48 60.67 43.80 63.98 43.04 C 63.92 45.62 64.30 48.27 63.60 50.78 C 62.50 54.06 57.77 54.97 55.45 52.45 C 53.55 50.50 54.04 47.59 54.01 45.12 Z" />
</g>
<g id="#6050e0ff">
<path fill="#6050e0" opacity="1.00" d=" M 91.81 45.87 C 92.87 45.42 93.97 45.04 95.09 44.73 C 96.10 49.39 96.22 54.22 95.50 58.93 C 94.49 58.97 92.46 59.06 91.45 59.10 C 92.01 55.78 92.07 52.41 91.78 49.06 C 91.78 48.27 91.80 46.67 91.81 45.87 Z" />
<path fill="#6050e0" opacity="1.00" d=" M 22.47 47.09 C 23.48 47.08 25.51 47.05 26.52 47.03 C 26.05 50.16 25.93 53.33 26.16 56.49 C 24.72 55.84 23.33 55.11 22.00 54.27 C 22.05 51.87 22.05 49.46 22.47 47.09 Z" />
</g>
<g id="#5048d8ff">
<path fill="#5048d8" opacity="1.00" d=" M 22.00 54.27 C 23.33 55.11 24.72 55.84 26.16 56.49 C 26.65 59.83 27.47 63.10 28.68 66.25 C 27.42 66.61 26.16 66.96 24.89 67.32 C 23.22 63.17 22.17 58.75 22.00 54.27 Z" />
</g>
<g id="#4848d8ff">
<path fill="#4848d8" opacity="1.00" d=" M 91.45 59.10 C 92.46 59.06 94.49 58.97 95.50 58.93 C 94.73 63.96 92.73 68.74 90.11 73.08 C 89.90 73.37 89.47 73.94 89.26 74.23 C 89.15 72.68 88.43 71.34 86.96 70.71 C 89.04 67.09 90.59 63.19 91.45 59.10 Z" />
</g>
<g id="#f8cc70ff">
<path fill="#f8cc70" opacity="1.00" d=" M 81.03 62.88 C 80.96 60.85 84.02 60.30 84.85 62.10 C 85.18 64.64 84.90 67.21 84.97 69.77 C 83.65 70.51 82.32 71.25 81.01 72.00 C 81.06 68.96 80.93 65.92 81.03 62.88 Z" />
</g>
<g id="#3840d0ff">
<path fill="#3840d0" opacity="1.00" d=" M 28.68 66.25 L 28.80 66.22 C 30.60 70.38 33.33 74.05 36.51 77.25 C 35.00 77.56 33.50 77.91 32.00 78.25 C 29.02 75.06 26.56 71.37 24.89 67.32 C 26.16 66.96 27.42 66.61 28.68 66.25 Z" />
</g>
<g id="#f8b458ff">
<path fill="#f8b458" opacity="1.00" d=" M 81.01 72.00 C 82.32 71.25 83.65 70.51 84.97 69.77 C 84.99 70.33 85.02 71.47 85.04 72.04 C 85.52 71.71 86.48 71.04 86.96 70.71 C 88.43 71.34 89.15 72.68 89.26 74.23 C 86.07 77.78 81.64 79.87 78.31 83.30 C 77.85 82.45 77.40 81.60 76.94 80.75 C 76.24 78.57 72.91 76.15 75.00 73.91 C 77.90 72.14 79.00 76.54 80.12 78.36 C 80.32 78.50 80.73 78.77 80.93 78.91 L 80.92 78.24 C 80.98 76.16 81.01 74.08 81.01 72.00 Z" />
</g>
<g id="#2038c0ff">
<path fill="#2038c0" opacity="1.00" d=" M 36.51 77.25 L 36.72 77.21 C 43.01 83.34 51.87 86.04 60.50 86.30 C 60.54 86.30 60.60 86.32 60.64 86.33 C 59.96 87.43 59.53 88.63 59.36 89.92 C 49.13 90.18 38.91 85.79 32.00 78.25 C 33.50 77.91 35.00 77.56 36.51 77.25 Z" />
</g>
<g id="#686098ff">
<path fill="#686098" opacity="1.00" d=" M 80.12 78.36 L 80.92 78.24 L 80.93 78.91 C 80.73 78.77 80.32 78.50 80.12 78.36 Z" />
</g>
<g id="#38bce8ff">
<path fill="#38bce8" opacity="1.00" d=" M 61.34 79.37 C 64.15 77.88 67.63 80.81 66.87 83.83 C 66.10 86.56 63.12 87.65 60.64 86.33 C 60.60 86.32 60.54 86.30 60.50 86.30 C 58.35 84.40 58.55 80.52 61.34 79.37 Z" />
</g>
<g id="#2038c8ff">
<path fill="#2038c8" opacity="1.00" d=" M 67.19 85.16 C 70.57 83.99 73.88 82.61 76.94 80.75 C 77.40 81.60 77.85 82.45 78.31 83.30 L 78.73 84.07 C 76.26 86.25 72.89 87.12 69.91 88.42 C 69.40 88.23 68.38 87.85 67.87 87.66 C 67.70 87.04 67.36 85.78 67.19 85.16 Z" />
</g>
<g id="#102078ff">
<path fill="#102078" opacity="1.00" d=" M 60.64 86.33 C 63.12 87.65 66.10 86.56 66.87 83.83 C 66.95 84.16 67.11 84.83 67.19 85.16 C 67.36 85.78 67.70 87.04 67.87 87.66 C 68.38 87.85 69.40 88.23 69.91 88.42 C 66.54 89.50 62.91 90.08 59.36 89.92 C 59.53 88.63 59.96 87.43 60.64 86.33 Z" />
</g>
<g id="#f08438ff">
<path fill="#f08438" opacity="1.00" d=" M 85.34 91.44 C 89.82 89.84 93.01 86.17 96.98 83.71 C 97.58 86.98 96.08 90.57 92.82 91.73 C 90.11 92.24 87.30 92.02 84.57 91.80 L 85.34 91.44 Z" />
</g>
</svg>
