<?xml version="1.0" encoding="UTF-8" ?>
<!DOCTYPE svg PUBLIC "-//W3C//DTD SVG 1.1//EN" "http://www.w3.org/Graphics/SVG/1.1/DTD/svg11.dtd">
<svg width="117pt" height="140pt" viewBox="0 0 117 140" version="1.1" xmlns="http://www.w3.org/2000/svg">
<g id="#000000ff">
<path fill="#000000" opacity="1.00" d=" M 0.00 0.00 L 117.00 0.00 L 117.00 140.00 L 0.00 140.00 L 0.00 0.00 M 33.16 10.22 C 17.91 11.79 5.19 25.63 5.01 40.97 C 5.02 60.68 4.93 80.40 5.06 100.11 C 5.78 115.66 19.35 129.24 34.91 129.94 C 50.27 130.09 65.63 129.95 80.99 130.01 C 92.82 130.14 104.32 123.03 109.55 112.43 C 112.39 107.12 113.27 101.00 113.01 95.03 C 112.99 77.35 113.00 59.67 113.01 41.99 C 113.07 33.35 109.36 24.79 103.09 18.87 C 97.00 12.95 88.46 9.75 79.99 9.98 C 64.38 10.17 48.75 9.70 33.16 10.22 Z" />
<path fill="#000000" opacity="1.00" d=" M 33.24 12.35 C 48.79 11.72 64.40 12.25 79.97 12.07 C 91.04 11.69 102.10 17.85 107.25 27.72 C 109.89 32.34 111.01 37.69 110.93 42.99 C 110.89 61.67 111.01 80.36 110.87 99.04 C 110.74 113.88 97.92 127.14 83.10 127.81 C 67.37 128.06 51.63 127.92 35.90 127.88 C 20.72 127.68 7.26 114.26 7.13 99.06 C 7.03 79.68 7.03 60.29 7.13 40.91 C 7.34 26.70 19.10 13.82 33.24 12.35 M 48.24 31.49 C 49.59 34.90 50.91 38.31 52.22 41.74 C 56.43 39.45 61.57 39.45 65.78 41.74 C 67.09 38.32 68.39 34.90 69.76 31.51 C 63.09 28.16 54.93 28.17 48.24 31.49 M 57.37 46.47 C 52.27 47.31 49.68 54.06 53.04 58.04 C 56.33 62.69 64.51 61.41 66.10 55.90 C 68.12 50.67 62.65 45.04 57.37 46.47 M 33.90 56.87 C 34.42 64.20 38.42 71.19 44.69 75.08 C 47.06 72.24 49.42 69.40 51.77 66.56 C 47.69 64.21 45.11 59.81 44.96 55.12 C 41.28 55.72 37.58 56.27 33.90 56.87 M 73.03 55.12 C 72.90 59.83 70.28 64.20 66.22 66.58 C 68.58 69.39 70.94 72.21 73.26 75.06 C 79.60 71.25 83.56 64.19 84.10 56.87 C 80.42 56.27 76.72 55.72 73.03 55.12 Z" />
</g>
<g id="#717171ff">
<path fill="#717171" opacity="1.00" d=" M 33.16 10.22 C 48.75 9.70 64.38 10.17 79.99 9.98 C 88.46 9.75 97.00 12.95 103.09 18.87 C 109.36 24.79 113.07 33.35 113.01 41.99 C 113.00 59.67 112.99 77.35 113.01 95.03 C 113.27 101.00 112.39 107.12 109.55 112.43 C 104.32 123.03 92.82 130.14 80.99 130.01 C 65.63 129.95 50.27 130.09 34.91 129.94 C 19.35 129.24 5.78 115.66 5.06 100.11 C 4.93 80.40 5.02 60.68 5.01 40.97 C 5.19 25.63 17.91 11.79 33.16 10.22 M 33.24 12.35 C 19.10 13.82 7.34 26.70 7.13 40.91 C 7.03 60.29 7.03 79.68 7.13 99.06 C 7.26 114.26 20.72 127.68 35.90 127.88 C 51.63 127.92 67.37 128.06 83.10 127.81 C 97.92 127.14 110.74 113.88 110.87 99.04 C 111.01 80.36 110.89 61.67 110.93 42.99 C 111.01 37.69 109.89 32.34 107.25 27.72 C 102.10 17.85 91.04 11.69 79.97 12.07 C 64.40 12.25 48.79 11.72 33.24 12.35 Z" />
</g>
<g id="#f8fcf8ff">
<path fill="#f8fcf8" opacity="1.00" d=" M 48.24 31.49 C 54.93 28.17 63.09 28.16 69.76 31.51 C 68.39 34.90 67.09 38.32 65.78 41.74 C 61.57 39.45 56.43 39.45 52.22 41.74 C 50.91 38.31 49.59 34.90 48.24 31.49 Z" />
<path fill="#f8fcf8" opacity="1.00" d=" M 57.37 46.47 C 62.65 45.04 68.12 50.67 66.10 55.90 C 64.51 61.41 56.33 62.69 53.04 58.04 C 49.68 54.06 52.27 47.31 57.37 46.47 Z" />
<path fill="#f8fcf8" opacity="1.00" d=" M 33.90 56.87 C 37.58 56.27 41.28 55.72 44.96 55.12 C 45.11 59.81 47.69 64.21 51.77 66.56 C 49.42 69.40 47.06 72.24 44.69 75.08 C 38.42 71.19 34.42 64.20 33.90 56.87 Z" />
<path fill="#f8fcf8" opacity="1.00" d=" M 73.03 55.12 C 76.72 55.72 80.42 56.27 84.10 56.87 C 83.56 64.19 79.60 71.25 73.26 75.06 C 70.94 72.21 68.58 69.39 66.22 66.58 C 70.28 64.20 72.90 59.83 73.03 55.12 Z" />
</g>
</svg>
