<?xml version="1.0" encoding="UTF-8" ?>
<!DOCTYPE svg PUBLIC "-//W3C//DTD SVG 1.1//EN" "http://www.w3.org/Graphics/SVG/1.1/DTD/svg11.dtd">
<svg width="117px" height="140px" viewBox="0 0 117 140" version="1.1" xmlns="http://www.w3.org/2000/svg">
<g id="#000000ff">
<path fill="#000000" opacity="1.00" d=" M 0.00 0.00 L 117.00 0.00 L 117.00 140.00 L 0.00 140.00 L 0.00 0.00 M 7.44 29.70 C 3.92 37.68 5.22 46.56 5.00 55.01 C 5.16 70.88 4.67 86.77 5.25 102.64 L 5.16 102.87 C 6.30 108.18 8.50 113.22 11.57 117.70 L 12.10 117.67 C 12.29 118.06 12.67 118.83 12.86 119.21 C 18.85 125.55 27.15 129.83 35.96 129.98 C 50.98 130.04 65.99 129.99 81.01 130.00 C 90.80 130.05 100.48 125.30 106.39 117.48 C 110.68 111.96 113.00 104.99 113.00 98.01 C 113.00 79.32 113.01 60.64 113.00 41.95 C 113.06 37.72 111.95 33.61 110.67 29.62 C 110.42 29.24 109.91 28.48 109.66 28.10 L 109.76 27.60 C 107.50 23.81 104.75 20.36 101.63 17.26 L 101.02 17.40 C 100.75 17.06 100.21 16.36 99.94 16.01 C 95.85 13.42 91.38 11.51 86.72 10.27 L 86.28 11.04 C 85.84 10.75 84.97 10.19 84.54 9.90 C 68.37 10.15 52.18 9.89 36.01 10.02 C 23.69 10.23 12.08 18.33 7.44 29.70 Z" />
<path fill="#000000" opacity="1.00" d=" M 33.26 12.12 C 50.37 11.96 67.50 11.90 84.61 12.13 C 85.03 12.20 85.86 12.34 86.28 12.41 C 99.79 14.78 110.86 27.17 110.95 41.00 C 111.03 60.35 111.04 79.71 110.95 99.07 C 110.92 107.88 106.18 116.01 99.65 121.67 C 95.54 124.48 91.03 126.66 86.13 127.65 C 85.76 127.70 85.02 127.80 84.66 127.86 C 67.24 128.01 49.81 128.25 32.40 127.71 L 32.08 127.83 C 28.38 126.89 24.83 125.47 21.44 123.72 C 20.91 123.39 19.86 122.74 19.33 122.41 L 19.58 121.65 L 18.06 122.13 L 18.26 120.40 L 17.44 120.97 C 16.50 120.00 15.56 119.04 14.62 118.08 L 14.75 117.31 L 13.60 117.78 L 14.07 116.22 L 12.35 116.25 L 12.70 115.60 C 9.36 110.70 7.04 105.01 7.04 99.01 C 6.97 79.66 6.97 60.31 7.05 40.96 C 7.18 27.06 18.33 14.69 31.90 12.35 L 32.48 11.74 L 33.26 12.12 M 55.54 32.74 L 54.75 32.25 L 55.25 33.81 L 53.86 33.16 L 54.17 34.69 L 52.91 33.81 L 53.58 35.24 L 52.17 34.80 L 52.36 36.27 L 51.22 36.15 C 50.94 36.42 50.40 36.96 50.13 37.23 C 49.05 38.10 47.97 38.97 46.97 39.92 C 47.77 40.93 48.86 41.57 49.97 42.16 C 51.61 38.08 55.84 36.40 58.55 33.23 C 59.10 33.11 60.20 32.88 60.75 32.76 L 60.50 33.15 C 64.35 35.35 67.07 38.96 70.10 42.10 C 71.08 41.44 72.04 40.74 72.96 39.99 C 71.53 38.97 70.04 38.03 68.74 36.84 C 68.30 34.30 68.58 31.70 68.44 29.14 C 67.14 29.07 65.85 29.01 64.55 28.96 C 64.49 30.04 64.36 32.22 64.29 33.31 C 62.80 31.72 61.34 30.10 59.85 28.51 C 58.42 29.92 57.00 31.35 55.54 32.74 M 56.72 36.32 L 56.93 37.14 L 55.82 36.42 C 55.62 36.90 55.22 37.85 55.02 38.33 C 53.54 39.55 51.94 40.64 50.62 42.04 C 50.39 44.47 50.52 46.92 50.52 49.36 C 52.93 49.39 55.34 49.39 57.75 49.35 C 57.89 47.43 58.04 45.51 58.20 43.59 C 59.34 43.61 60.47 43.62 61.61 43.64 C 61.61 45.55 61.62 47.46 61.63 49.38 C 63.91 49.39 66.18 49.38 68.46 49.34 C 68.51 46.86 68.63 44.38 68.42 41.90 C 67.34 40.41 65.76 39.38 64.36 38.20 C 62.65 37.06 61.22 35.57 59.83 34.06 C 58.79 34.81 57.76 35.56 56.72 36.32 M 40.71 47.17 L 40.12 46.91 L 40.60 47.72 C 40.17 48.14 39.32 48.99 38.90 49.41 L 37.63 48.66 L 38.15 50.30 L 37.46 49.97 C 36.92 50.34 35.85 51.09 35.31 51.47 C 34.89 52.04 34.53 52.64 34.21 53.28 C 37.61 56.31 41.19 59.14 44.66 62.10 C 43.85 59.40 43.10 56.66 41.81 54.14 C 48.57 53.28 55.41 54.02 62.22 53.79 C 63.41 53.56 64.61 53.57 65.80 53.80 C 69.61 53.97 73.42 53.37 77.19 54.13 C 75.91 56.63 75.16 59.35 74.32 62.01 C 75.16 61.39 76.00 60.76 76.84 60.13 C 77.12 59.84 77.69 59.26 77.97 58.97 C 78.71 58.38 79.45 57.80 80.19 57.22 C 80.55 56.89 81.27 56.23 81.63 55.90 L 81.79 55.90 C 82.29 55.47 83.28 54.62 83.78 54.20 L 83.82 53.62 L 84.76 53.79 C 84.77 53.38 84.79 52.56 84.79 52.15 L 84.05 52.34 C 83.82 52.02 83.36 51.37 83.12 51.04 C 82.58 50.69 81.50 49.97 80.96 49.61 L 81.04 49.47 C 80.00 48.64 78.95 47.80 77.91 46.97 C 77.65 46.70 77.13 46.16 76.88 45.90 C 76.02 45.24 75.17 44.58 74.32 43.93 C 75.16 46.62 75.90 49.36 77.20 51.87 C 66.84 52.90 56.32 51.61 45.96 52.51 C 44.58 52.22 43.20 52.00 41.81 51.81 C 43.10 49.31 43.86 46.58 44.66 43.90 C 43.33 44.98 42.02 46.07 40.71 47.17 M 48.94 56.75 C 50.55 59.14 52.38 61.39 53.88 63.87 C 54.25 64.10 54.99 64.55 55.36 64.78 L 54.69 66.16 L 55.90 65.43 C 57.70 68.57 57.17 72.21 57.34 75.66 C 58.19 75.59 59.87 75.44 60.71 75.37 C 61.44 71.56 60.39 67.32 63.53 64.35 L 64.58 63.98 L 64.06 62.82 L 64.68 63.12 C 65.11 62.57 65.95 61.48 66.37 60.93 L 66.07 60.31 L 66.87 60.35 C 67.44 59.54 68.56 57.93 69.13 57.12 C 68.08 57.16 65.99 57.23 64.94 57.27 C 63.81 58.36 62.98 59.71 62.03 60.96 C 61.09 62.36 60.13 63.74 59.14 65.11 C 57.67 63.02 56.21 60.93 54.69 58.87 C 54.54 58.52 54.25 57.83 54.11 57.48 C 52.38 57.24 50.66 57.02 48.94 56.75 Z" />
</g>
<g id="#6a6e6aff">
<path fill="#6a6e6a" opacity="1.00" d=" M 7.44 29.70 C 12.08 18.33 23.69 10.23 36.01 10.02 C 52.18 9.89 68.37 10.15 84.54 9.90 C 84.97 10.19 85.84 10.75 86.28 11.04 L 86.72 10.27 C 91.38 11.51 95.85 13.42 99.94 16.01 C 100.21 16.36 100.75 17.06 101.02 17.40 L 101.63 17.26 C 104.75 20.36 107.50 23.81 109.76 27.60 L 109.66 28.10 C 109.91 28.48 110.42 29.24 110.67 29.62 C 111.95 33.61 113.06 37.72 113.00 41.95 C 113.01 60.64 113.00 79.32 113.00 98.01 C 113.00 104.99 110.68 111.96 106.39 117.48 C 100.48 125.30 90.80 130.05 81.01 130.00 C 65.99 129.99 50.98 130.04 35.96 129.98 C 27.15 129.83 18.85 125.55 12.86 119.21 C 12.67 118.83 12.29 118.06 12.10 117.67 L 11.57 117.70 C 8.50 113.22 6.30 108.18 5.16 102.87 L 5.25 102.64 C 4.67 86.77 5.16 70.88 5.00 55.01 C 5.22 46.56 3.92 37.68 7.44 29.70 M 33.26 12.12 L 32.48 11.74 L 31.90 12.35 C 18.33 14.69 7.18 27.06 7.05 40.96 C 6.97 60.31 6.97 79.66 7.04 99.01 C 7.04 105.01 9.36 110.70 12.70 115.60 L 12.35 116.25 L 14.07 116.22 L 13.60 117.78 L 14.75 117.31 L 14.62 118.08 C 15.56 119.04 16.50 120.00 17.44 120.97 L 18.26 120.40 L 18.06 122.13 L 19.58 121.65 L 19.33 122.41 C 19.86 122.74 20.91 123.39 21.44 123.72 C 24.83 125.47 28.38 126.89 32.08 127.83 L 32.40 127.71 C 49.81 128.25 67.24 128.01 84.66 127.86 C 85.02 127.80 85.76 127.70 86.13 127.65 C 91.03 126.66 95.54 124.48 99.65 121.67 C 106.18 116.01 110.92 107.88 110.95 99.07 C 111.04 79.71 111.03 60.35 110.95 41.00 C 110.86 27.17 99.79 14.78 86.28 12.41 C 85.86 12.34 85.03 12.20 84.61 12.13 C 67.50 11.90 50.37 11.96 33.26 12.12 Z" />
</g>
<g id="#f8fcf8ff">
<path fill="#f8fcf8" opacity="1.00" d=" M 55.54 32.74 C 57.00 31.35 58.42 29.92 59.85 28.51 C 61.34 30.10 62.80 31.72 64.29 33.31 C 64.36 32.22 64.49 30.04 64.55 28.96 C 65.85 29.01 67.14 29.07 68.44 29.14 C 68.58 31.70 68.30 34.30 68.74 36.84 C 70.04 38.03 71.53 38.97 72.96 39.99 C 72.04 40.74 71.08 41.44 70.10 42.10 C 67.07 38.96 64.35 35.35 60.50 33.15 L 60.75 32.76 C 60.20 32.88 59.10 33.11 58.55 33.23 C 55.84 36.40 51.61 38.08 49.97 42.16 C 48.86 41.57 47.77 40.93 46.97 39.92 C 47.97 38.97 49.05 38.10 50.13 37.23 C 50.40 36.96 50.94 36.42 51.22 36.15 L 52.36 36.27 L 52.17 34.80 L 53.58 35.24 L 52.91 33.81 L 54.17 34.69 L 53.86 33.16 L 55.25 33.81 L 54.75 32.25 L 55.54 32.74 Z" />
<path fill="#f8fcf8" opacity="1.00" d=" M 56.72 36.32 C 57.76 35.56 58.79 34.81 59.83 34.06 C 61.22 35.57 62.65 37.06 64.36 38.20 C 65.76 39.38 67.34 40.41 68.42 41.90 C 68.63 44.38 68.51 46.86 68.46 49.34 C 66.18 49.38 63.91 49.39 61.63 49.38 C 61.62 47.46 61.61 45.55 61.61 43.64 C 60.47 43.62 59.34 43.61 58.20 43.59 C 58.04 45.51 57.89 47.43 57.75 49.35 C 55.34 49.39 52.93 49.39 50.52 49.36 C 50.52 46.92 50.39 44.47 50.62 42.04 C 51.94 40.64 53.54 39.55 55.02 38.33 C 55.22 37.85 55.62 36.90 55.82 36.42 L 56.93 37.14 L 56.72 36.32 Z" />
<path fill="#f8fcf8" opacity="1.00" d=" M 40.71 47.17 C 42.02 46.07 43.33 44.98 44.66 43.90 C 43.86 46.58 43.10 49.31 41.81 51.81 C 43.20 52.00 44.58 52.22 45.96 52.51 C 56.32 51.61 66.84 52.90 77.20 51.87 C 75.90 49.36 75.16 46.62 74.32 43.93 C 75.17 44.58 76.02 45.24 76.88 45.90 C 77.13 46.16 77.65 46.70 77.91 46.97 C 78.95 47.80 80.00 48.64 81.04 49.47 L 80.96 49.61 C 81.50 49.97 82.58 50.69 83.12 51.04 C 83.36 51.37 83.82 52.02 84.05 52.34 L 84.79 52.15 C 84.79 52.56 84.77 53.38 84.76 53.79 L 83.82 53.62 L 83.78 54.20 C 83.28 54.62 82.29 55.47 81.79 55.90 L 81.63 55.90 C 81.27 56.23 80.55 56.89 80.19 57.22 C 79.45 57.80 78.71 58.38 77.97 58.97 C 77.69 59.26 77.12 59.84 76.84 60.13 C 76.00 60.76 75.16 61.39 74.32 62.01 C 75.16 59.35 75.91 56.63 77.19 54.13 C 73.42 53.37 69.61 53.97 65.80 53.80 C 64.61 53.57 63.41 53.56 62.22 53.79 C 55.41 54.02 48.57 53.28 41.81 54.14 C 43.10 56.66 43.85 59.40 44.66 62.10 C 41.19 59.14 37.61 56.31 34.21 53.28 C 34.53 52.64 34.89 52.04 35.31 51.47 C 35.85 51.09 36.92 50.34 37.46 49.97 L 38.15 50.30 L 37.63 48.66 L 38.90 49.41 C 39.32 48.99 40.17 48.14 40.60 47.72 L 40.12 46.91 L 40.71 47.17 Z" />
<path fill="#f8fcf8" opacity="1.00" d=" M 48.94 56.75 C 50.66 57.02 52.38 57.24 54.11 57.48 C 54.25 57.83 54.54 58.52 54.69 58.87 C 56.21 60.93 57.67 63.02 59.14 65.11 C 60.13 63.74 61.09 62.36 62.03 60.96 C 62.98 59.71 63.81 58.36 64.94 57.27 C 65.99 57.23 68.08 57.16 69.13 57.12 C 68.56 57.93 67.44 59.54 66.87 60.35 L 66.07 60.31 L 66.37 60.93 C 65.95 61.48 65.11 62.57 64.68 63.12 L 64.06 62.82 L 64.58 63.98 L 63.53 64.35 C 60.39 67.32 61.44 71.56 60.71 75.37 C 59.87 75.44 58.19 75.59 57.34 75.66 C 57.17 72.21 57.70 68.57 55.90 65.43 L 54.69 66.16 L 55.36 64.78 C 54.99 64.55 54.25 64.10 53.88 63.87 C 52.38 61.39 50.55 59.14 48.94 56.75 Z" />
</g>
</svg>
