<?xml version="1.0" encoding="UTF-8" ?>
<!DOCTYPE svg PUBLIC "-//W3C//DTD SVG 1.1//EN" "http://www.w3.org/Graphics/SVG/1.1/DTD/svg11.dtd">
<svg width="117px" height="140px" viewBox="0 0 117 140" version="1.1" xmlns="http://www.w3.org/2000/svg">
<g id="#384450ff">
<path fill="#384450" opacity="1.00" d=" M 0.00 0.00 L 117.00 0.00 L 117.00 140.00 L 0.00 140.00 L 0.00 0.00 M 41.20 53.17 C 38.67 54.46 38.64 58.53 41.20 59.81 C 43.19 61.39 46.01 60.05 46.93 57.91 C 48.54 54.75 44.04 50.86 41.20 53.17 M 56.50 53.48 C 54.30 55.11 54.72 58.60 57.01 59.93 C 59.86 61.98 64.02 58.44 62.76 55.26 C 61.96 52.75 58.43 51.45 56.50 53.48 M 72.44 53.37 C 70.55 54.61 70.06 57.58 71.88 59.10 C 73.82 61.87 78.54 60.04 78.69 56.87 C 79.20 53.74 74.80 51.03 72.44 53.37 Z" />
</g>
<g id="#f8fcf8ff">
<path fill="#f8fcf8" opacity="1.00" d=" M 41.20 53.17 C 44.04 50.86 48.54 54.75 46.93 57.91 C 46.01 60.05 43.19 61.39 41.20 59.81 C 38.64 58.53 38.67 54.46 41.20 53.17 Z" />
<path fill="#f8fcf8" opacity="1.00" d=" M 56.50 53.48 C 58.43 51.45 61.96 52.75 62.76 55.26 C 64.02 58.44 59.86 61.98 57.01 59.93 C 54.72 58.60 54.30 55.11 56.50 53.48 Z" />
<path fill="#f8fcf8" opacity="1.00" d=" M 72.44 53.37 C 74.80 51.03 79.20 53.74 78.69 56.87 C 78.54 60.04 73.82 61.87 71.88 59.10 C 70.06 57.58 70.55 54.61 72.44 53.37 Z" />
</g>
</svg>
