<?xml version="1.0" encoding="UTF-8" ?>
<!DOCTYPE svg PUBLIC "-//W3C//DTD SVG 1.1//EN" "http://www.w3.org/Graphics/SVG/1.1/DTD/svg11.dtd">
<svg width="117pt" height="140pt" viewBox="0 0 117 140" version="1.1" xmlns="http://www.w3.org/2000/svg">
<g id="#000000ff">
<path fill="#000000" opacity="1.00" d=" M 0.00 0.00 L 117.00 0.00 L 117.00 140.00 L 0.00 140.00 L 0.00 0.00 M 30.42 10.50 C 18.99 12.84 9.29 21.82 6.10 33.05 C 4.80 36.90 4.97 41.01 4.99 45.02 C 5.01 63.33 4.98 81.65 5.01 99.96 C 5.39 115.61 19.31 129.54 34.96 129.99 C 50.64 130.03 66.33 129.98 82.02 130.01 C 98.03 130.14 112.58 116.00 112.99 100.02 C 113.01 79.99 113.01 59.97 112.99 39.94 C 112.55 24.34 98.67 10.49 83.07 10.01 C 67.72 9.97 52.37 10.03 37.02 9.98 C 34.81 9.99 32.59 10.03 30.42 10.50 Z" />
<path fill="#000000" opacity="1.00" d=" M 31.49 12.72 C 34.30 12.21 37.16 12.01 40.01 12.03 C 53.36 12.09 66.71 12.02 80.06 12.06 C 85.78 12.15 91.55 13.49 96.43 16.55 C 105.62 21.86 111.04 32.47 110.93 42.97 C 110.97 60.97 110.96 78.98 110.93 96.99 C 111.00 105.16 107.83 113.29 102.08 119.11 C 96.50 124.57 88.85 127.75 81.05 127.89 C 66.69 128.03 52.32 127.91 37.96 127.95 C 29.84 127.97 21.75 124.84 15.95 119.14 C 10.18 113.31 7.00 105.16 7.06 96.97 C 7.10 78.31 6.92 59.65 7.15 41.00 C 7.52 27.43 18.07 15.00 31.49 12.72 M 41.33 28.06 C 41.38 34.89 41.32 41.71 41.38 48.53 C 39.13 48.75 36.34 47.94 34.66 49.88 C 33.77 51.42 34.11 53.28 34.02 54.97 C 34.13 61.66 33.90 68.35 34.11 75.03 C 34.07 77.04 36.17 78.19 37.98 77.95 C 52.02 77.97 66.07 77.98 80.11 77.95 C 81.88 78.16 83.91 77.01 83.89 75.06 C 84.11 68.21 83.86 61.35 84.00 54.49 C 81.54 54.48 79.08 54.48 76.63 54.47 C 76.68 45.67 76.61 36.86 76.67 28.06 C 64.89 28.02 53.11 28.02 41.33 28.06 Z" />
<path fill="#000000" opacity="1.00" d=" M 44.28 30.91 C 54.09 30.90 63.90 30.90 73.71 30.91 C 73.77 37.76 73.58 44.62 73.83 51.48 C 67.40 51.55 60.97 51.53 54.54 51.49 C 54.57 49.55 54.61 47.61 54.65 45.66 C 51.17 45.65 47.69 45.66 44.22 45.61 C 44.34 40.71 44.27 35.81 44.28 30.91 M 47.24 33.87 C 47.22 34.59 47.17 36.04 47.15 36.76 C 55.03 36.84 62.92 36.83 70.81 36.77 C 70.82 36.07 70.84 34.66 70.85 33.96 C 62.98 33.76 55.11 33.91 47.24 33.87 M 47.16 39.79 C 47.16 40.51 47.16 41.95 47.15 42.67 C 55.05 42.74 62.95 42.74 70.85 42.67 C 70.84 41.95 70.84 40.51 70.84 39.79 C 62.95 39.76 55.05 39.76 47.16 39.79 M 57.46 45.67 C 57.46 46.39 57.47 47.83 57.48 48.55 C 61.93 48.60 66.39 48.60 70.85 48.55 C 70.85 47.83 70.86 46.40 70.87 45.69 C 66.40 45.62 61.93 45.64 57.46 45.67 Z" />
<path fill="#000000" opacity="1.00" d=" M 36.90 51.55 C 40.85 51.50 44.79 51.49 48.73 51.57 C 48.94 53.13 48.29 55.05 49.56 56.29 C 50.68 57.64 52.48 57.37 54.03 57.43 C 63.05 57.40 72.06 57.42 81.08 57.42 C 81.11 63.31 81.09 69.20 81.09 75.09 C 66.36 75.10 51.64 75.10 36.91 75.09 C 36.90 67.24 36.90 59.39 36.90 51.55 Z" />
</g>
<g id="#708cc8ff">
<path fill="#708cc8" opacity="1.00" d=" M 30.42 10.50 C 32.59 10.03 34.81 9.99 37.02 9.98 C 52.37 10.03 67.72 9.97 83.07 10.01 C 98.67 10.49 112.55 24.34 112.99 39.94 C 113.01 59.97 113.01 79.99 112.99 100.02 C 112.58 116.00 98.03 130.14 82.02 130.01 C 66.33 129.98 50.64 130.03 34.96 129.99 C 19.31 129.54 5.39 115.61 5.01 99.96 C 4.98 81.65 5.01 63.33 4.99 45.02 C 4.97 41.01 4.80 36.90 6.10 33.05 C 9.29 21.82 18.99 12.84 30.42 10.50 M 31.49 12.72 C 18.07 15.00 7.52 27.43 7.15 41.00 C 6.92 59.65 7.10 78.31 7.06 96.97 C 7.00 105.16 10.18 113.31 15.95 119.14 C 21.75 124.84 29.84 127.97 37.96 127.95 C 52.32 127.91 66.69 128.03 81.05 127.89 C 88.85 127.75 96.50 124.57 102.08 119.11 C 107.83 113.29 111.00 105.16 110.93 96.99 C 110.96 78.98 110.97 60.97 110.93 42.97 C 111.04 32.47 105.62 21.86 96.43 16.55 C 91.55 13.49 85.78 12.15 80.06 12.06 C 66.71 12.02 53.36 12.09 40.01 12.03 C 37.16 12.01 34.30 12.21 31.49 12.72 Z" />
</g>
<g id="#f8fcf8ff">
<path fill="#f8fcf8" opacity="1.00" d=" M 41.33 28.06 C 53.11 28.02 64.89 28.02 76.67 28.06 C 76.61 36.86 76.68 45.67 76.63 54.47 C 79.08 54.48 81.54 54.48 84.00 54.49 C 83.86 61.35 84.11 68.21 83.89 75.06 C 83.91 77.01 81.88 78.16 80.11 77.95 C 66.07 77.98 52.02 77.97 37.98 77.95 C 36.17 78.19 34.07 77.04 34.11 75.03 C 33.90 68.35 34.13 61.66 34.02 54.97 C 34.11 53.28 33.77 51.42 34.66 49.88 C 36.34 47.94 39.13 48.75 41.38 48.53 C 41.32 41.71 41.38 34.89 41.33 28.06 M 44.28 30.91 C 44.27 35.81 44.34 40.71 44.22 45.61 C 47.69 45.66 51.17 45.65 54.65 45.66 C 54.61 47.61 54.57 49.55 54.54 51.49 C 60.97 51.53 67.40 51.55 73.83 51.48 C 73.58 44.62 73.77 37.76 73.71 30.91 C 63.90 30.90 54.09 30.90 44.28 30.91 M 36.90 51.55 C 36.90 59.39 36.90 67.24 36.91 75.09 C 51.64 75.10 66.36 75.10 81.09 75.09 C 81.09 69.20 81.11 63.31 81.08 57.42 C 72.06 57.42 63.05 57.40 54.03 57.43 C 52.48 57.37 50.68 57.64 49.56 56.29 C 48.29 55.05 48.94 53.13 48.73 51.57 C 44.79 51.49 40.85 51.50 36.90 51.55 Z" />
<path fill="#f8fcf8" opacity="1.00" d=" M 47.24 33.87 C 55.11 33.91 62.98 33.76 70.85 33.96 C 70.84 34.66 70.82 36.07 70.81 36.77 C 62.92 36.83 55.03 36.84 47.15 36.76 C 47.17 36.04 47.22 34.59 47.24 33.87 Z" />
<path fill="#f8fcf8" opacity="1.00" d=" M 47.16 39.79 C 55.05 39.76 62.95 39.76 70.84 39.79 C 70.84 40.51 70.84 41.95 70.85 42.67 C 62.95 42.74 55.05 42.74 47.15 42.67 C 47.16 41.95 47.16 40.51 47.16 39.79 Z" />
<path fill="#f8fcf8" opacity="1.00" d=" M 57.46 45.67 C 61.93 45.64 66.40 45.62 70.87 45.69 C 70.86 46.40 70.85 47.83 70.85 48.55 C 66.39 48.60 61.93 48.60 57.48 48.55 C 57.47 47.83 57.46 46.39 57.46 45.67 Z" />
</g>
</svg>
