<?xml version="1.0" encoding="UTF-8" ?>
<!DOCTYPE svg PUBLIC "-//W3C//DTD SVG 1.1//EN" "http://www.w3.org/Graphics/SVG/1.1/DTD/svg11.dtd">
<svg width="117pt" height="140pt" viewBox="0 0 117 140" version="1.1" xmlns="http://www.w3.org/2000/svg">
<g id="#000000ff">
<path fill="#000000" opacity="1.00" d=" M 0.00 0.00 L 117.00 0.00 L 117.00 140.00 L 0.00 140.00 L 0.00 0.00 M 32.17 10.21 C 16.94 11.77 4.20 25.58 4.02 40.92 C 3.98 60.29 3.98 79.66 4.02 99.03 C 4.15 115.02 18.02 129.29 33.99 129.94 C 50.00 130.04 66.03 130.06 82.05 129.92 C 98.00 129.28 111.86 115.03 111.97 99.05 C 112.02 79.69 112.02 60.32 111.97 40.96 C 111.87 24.64 97.39 10.17 81.08 10.02 C 64.78 10.10 48.46 9.73 32.17 10.21 Z" />
<path fill="#000000" opacity="1.00" d=" M 32.16 12.25 C 48.42 11.71 64.72 12.10 81.00 12.04 C 96.26 12.16 109.85 25.70 109.96 40.97 C 110.04 60.00 109.99 79.04 109.99 98.07 C 110.20 110.12 102.14 121.63 90.94 125.93 C 84.63 128.64 77.66 127.90 70.98 128.00 C 58.64 127.94 46.29 128.12 33.95 127.91 C 19.10 127.25 6.19 113.94 6.03 99.06 C 5.97 79.70 5.98 60.34 6.03 40.98 C 6.20 26.71 18.00 13.82 32.16 12.25 M 35.17 42.02 C 35.18 50.67 35.18 59.33 35.17 67.99 C 38.06 68.00 40.94 68.00 43.83 67.99 C 43.82 64.97 43.82 61.95 43.82 58.94 C 45.88 59.16 48.36 58.53 50.04 60.06 C 51.31 62.48 50.71 65.38 51.09 68.01 C 54.01 67.99 56.93 67.98 59.85 68.05 C 58.54 65.51 59.10 62.62 58.84 59.89 C 58.78 57.76 56.71 56.73 55.31 55.51 C 58.97 54.10 59.57 49.65 58.55 46.34 C 57.47 43.67 54.43 42.54 51.77 42.27 C 46.25 41.83 40.70 42.04 35.17 42.02 M 62.60 49.18 C 62.90 54.36 61.86 59.72 63.29 64.78 C 65.42 69.55 72.27 69.27 75.77 66.18 C 76.39 69.58 80.98 67.40 83.40 68.00 C 83.41 61.73 83.42 55.46 83.39 49.18 C 80.83 49.19 78.27 49.18 75.71 49.10 C 75.30 53.11 76.08 57.22 75.21 61.18 C 74.86 63.34 70.38 63.24 70.53 60.85 C 70.23 56.96 70.49 53.06 70.38 49.17 C 67.79 49.18 65.20 49.18 62.60 49.18 Z" />
<path fill="#000000" opacity="1.00" d=" M 43.93 48.29 C 46.89 48.32 51.51 47.71 51.34 52.05 C 49.01 53.31 46.35 53.30 43.78 53.20 C 43.84 51.57 43.88 49.93 43.93 48.29 Z" />
</g>
<g id="#6a6e6aff">
<path fill="#6a6e6a" opacity="1.00" d=" M 32.17 10.21 C 48.46 9.73 64.78 10.10 81.08 10.02 C 97.39 10.17 111.87 24.64 111.97 40.96 C 112.02 60.32 112.02 79.69 111.97 99.05 C 111.86 115.03 98.00 129.28 82.05 129.92 C 66.03 130.06 50.00 130.04 33.99 129.94 C 18.02 129.29 4.15 115.02 4.02 99.03 C 3.98 79.66 3.98 60.29 4.02 40.92 C 4.20 25.58 16.94 11.77 32.17 10.21 M 32.16 12.25 C 18.00 13.82 6.20 26.71 6.03 40.98 C 5.98 60.34 5.97 79.70 6.03 99.06 C 6.19 113.94 19.10 127.25 33.95 127.91 C 46.29 128.12 58.64 127.94 70.98 128.00 C 77.66 127.90 84.63 128.64 90.94 125.93 C 102.14 121.63 110.20 110.12 109.99 98.07 C 109.99 79.04 110.04 60.00 109.96 40.97 C 109.85 25.70 96.26 12.16 81.00 12.04 C 64.72 12.10 48.42 11.71 32.16 12.25 Z" />
</g>
<g id="#e86010ff">
<path fill="#e86010" opacity="1.00" d=" M 35.17 42.02 C 40.70 42.04 46.25 41.83 51.77 42.27 C 54.43 42.54 57.47 43.67 58.55 46.34 C 59.57 49.65 58.97 54.10 55.31 55.51 C 56.71 56.73 58.78 57.76 58.84 59.89 C 59.10 62.62 58.54 65.51 59.85 68.05 C 56.93 67.98 54.01 67.99 51.09 68.01 C 50.71 65.38 51.31 62.48 50.04 60.06 C 48.36 58.53 45.88 59.16 43.82 58.94 C 43.82 61.95 43.82 64.97 43.83 67.99 C 40.94 68.00 38.06 68.00 35.17 67.99 C 35.18 59.33 35.18 50.67 35.17 42.02 M 43.93 48.29 C 43.88 49.93 43.84 51.57 43.78 53.20 C 46.35 53.30 49.01 53.31 51.34 52.05 C 51.51 47.71 46.89 48.32 43.93 48.29 Z" />
<path fill="#e86010" opacity="1.00" d=" M 62.60 49.18 C 65.20 49.18 67.79 49.18 70.38 49.17 C 70.49 53.06 70.23 56.96 70.53 60.85 C 70.38 63.24 74.86 63.34 75.21 61.18 C 76.08 57.22 75.30 53.11 75.71 49.10 C 78.27 49.18 80.83 49.19 83.39 49.18 C 83.42 55.46 83.41 61.73 83.40 68.00 C 80.98 67.40 76.39 69.58 75.77 66.18 C 72.27 69.27 65.42 69.55 63.29 64.78 C 61.86 59.72 62.90 54.36 62.60 49.18 Z" />
</g>
</svg>
