<?xml version="1.0" encoding="UTF-8" ?>
<!DOCTYPE svg PUBLIC "-//W3C//DTD SVG 1.1//EN" "http://www.w3.org/Graphics/SVG/1.1/DTD/svg11.dtd">
<svg width="117px" height="140px" viewBox="0 0 117 140" version="1.1" xmlns="http://www.w3.org/2000/svg">
<g id="#000000ff">
<path fill="#000000" opacity="1.00" d=" M 0.00 0.00 L 117.00 0.00 L 117.00 140.00 L 0.00 140.00 L 0.00 0.00 M 33.15 10.22 C 17.90 11.80 5.18 25.64 5.01 40.98 C 4.99 60.34 4.99 79.70 5.02 99.06 C 5.17 115.03 19.02 129.28 34.97 129.93 C 50.66 130.08 66.37 129.99 82.07 129.98 C 95.08 129.76 107.23 120.63 111.31 108.30 C 112.68 104.37 113.13 100.20 113.02 96.05 C 112.98 78.05 113.01 60.04 113.01 42.04 C 113.08 33.40 109.39 24.85 103.13 18.92 C 97.05 12.98 88.51 9.76 80.03 9.98 C 64.41 10.17 48.76 9.69 33.15 10.22 Z" />
<path fill="#000000" opacity="1.00" d=" M 33.25 12.35 C 48.81 11.72 64.40 12.24 79.97 12.07 C 87.92 11.83 95.85 14.86 101.63 20.32 C 107.43 25.92 110.98 33.87 110.90 41.97 C 110.97 59.32 110.90 76.67 110.94 94.03 C 111.12 100.05 110.58 106.31 107.58 111.66 C 102.71 121.50 91.99 127.98 81.04 127.90 C 66.35 127.95 51.67 127.94 36.98 127.91 C 26.53 127.95 16.21 122.10 11.12 112.93 C 8.24 108.14 6.97 102.53 7.07 96.96 C 7.11 78.30 7.00 59.63 7.13 40.96 C 7.30 26.73 19.09 13.82 33.25 12.35 M 47.45 50.42 C 44.60 51.27 44.06 55.79 47.04 56.78 C 49.05 57.79 50.74 56.14 51.75 54.56 C 52.59 52.21 49.76 49.50 47.45 50.42 M 58.52 50.69 C 54.38 52.29 57.92 59.08 61.64 56.56 C 65.52 54.71 62.09 48.44 58.52 50.69 M 70.50 50.44 C 65.97 51.80 69.00 58.55 72.97 56.78 C 76.98 55.43 74.26 48.93 70.50 50.44 Z" />
</g>
<g id="#717171ff">
<path fill="#717171" opacity="1.00" d=" M 33.15 10.22 C 48.76 9.69 64.41 10.17 80.03 9.98 C 88.51 9.76 97.05 12.98 103.13 18.92 C 109.39 24.85 113.08 33.40 113.01 42.04 C 113.01 60.04 112.98 78.05 113.02 96.05 C 113.13 100.20 112.68 104.37 111.31 108.30 C 107.23 120.63 95.08 129.76 82.07 129.98 C 66.37 129.99 50.66 130.08 34.97 129.93 C 19.02 129.28 5.17 115.03 5.02 99.06 C 4.99 79.70 4.99 60.34 5.01 40.98 C 5.18 25.64 17.90 11.80 33.15 10.22 M 33.25 12.35 C 19.09 13.82 7.30 26.73 7.13 40.96 C 7.00 59.63 7.11 78.30 7.07 96.96 C 6.97 102.53 8.24 108.14 11.12 112.93 C 16.21 122.10 26.53 127.95 36.98 127.91 C 51.67 127.94 66.35 127.95 81.04 127.90 C 91.99 127.98 102.71 121.50 107.58 111.66 C 110.58 106.31 111.12 100.05 110.94 94.03 C 110.90 76.67 110.97 59.32 110.90 41.97 C 110.98 33.87 107.43 25.92 101.63 20.32 C 95.85 14.86 87.92 11.83 79.97 12.07 C 64.40 12.24 48.81 11.72 33.25 12.35 Z" />
</g>
<g id="#f8fcf8ff">
<path fill="#f8fcf8" opacity="1.00" d=" M 47.45 50.42 C 49.76 49.50 52.59 52.21 51.75 54.56 C 50.74 56.14 49.05 57.79 47.04 56.78 C 44.06 55.79 44.60 51.27 47.45 50.42 Z" />
<path fill="#f8fcf8" opacity="1.00" d=" M 58.52 50.69 C 62.09 48.44 65.52 54.71 61.64 56.56 C 57.92 59.08 54.38 52.29 58.52 50.69 Z" />
<path fill="#f8fcf8" opacity="1.00" d=" M 70.50 50.44 C 74.26 48.93 76.98 55.43 72.97 56.78 C 69.00 58.55 65.97 51.80 70.50 50.44 Z" />
</g>
</svg>
