<?xml version="1.0" encoding="UTF-8" ?>
<!DOCTYPE svg PUBLIC "-//W3C//DTD SVG 1.1//EN" "http://www.w3.org/Graphics/SVG/1.1/DTD/svg11.dtd">
<svg width="117px" height="140px" viewBox="0 0 117 140" version="1.1" xmlns="http://www.w3.org/2000/svg">
<g id="#000000ff">
<path fill="#000000" opacity="1.00" d=" M 0.00 0.00 L 117.00 0.00 L 117.00 140.00 L 0.00 140.00 L 0.00 0.00 M 33.19 10.21 C 17.93 11.76 5.16 25.63 5.02 40.99 C 4.98 60.35 4.98 79.72 5.02 99.09 C 5.18 115.03 18.98 129.24 34.89 129.93 C 50.61 130.08 66.33 130.00 82.04 129.97 C 97.99 129.84 112.29 116.03 112.92 100.08 C 113.11 80.72 112.94 61.35 113.00 41.99 C 113.12 30.94 106.94 20.15 97.44 14.55 C 91.93 11.18 85.40 9.73 78.98 9.97 C 63.72 10.18 48.44 9.69 33.19 10.21 Z" />
<path fill="#000000" opacity="1.00" d=" M 33.20 12.25 C 49.46 11.71 65.76 12.10 82.03 12.05 C 97.28 12.18 110.87 25.73 110.96 41.00 C 111.05 60.01 110.99 79.02 110.98 98.03 C 111.46 114.40 96.34 128.93 80.02 127.99 C 65.00 127.95 49.97 128.11 34.95 127.91 C 20.06 127.25 7.12 113.87 7.04 98.95 C 6.98 79.60 6.97 60.25 7.04 40.90 C 7.23 26.65 19.06 13.79 33.20 12.25 M 47.51 39.32 C 46.89 41.08 48.68 41.58 49.89 42.15 C 52.06 37.97 56.49 35.81 59.60 32.45 C 63.13 35.50 67.13 38.16 69.82 42.06 C 70.99 41.59 72.03 40.87 72.89 39.95 C 71.49 38.95 69.98 38.06 68.80 36.79 C 68.16 34.32 68.64 31.68 68.48 29.14 C 67.11 29.11 65.75 29.09 64.39 29.10 C 64.38 30.11 64.37 32.14 64.36 33.16 C 62.55 32.03 61.57 28.96 59.21 29.06 C 55.56 32.76 51.60 36.12 47.51 39.32 M 50.48 41.85 C 50.52 44.35 50.50 46.85 50.52 49.35 C 52.92 49.38 55.31 49.39 57.70 49.41 C 57.89 47.45 57.99 45.49 58.21 43.54 C 59.34 43.58 60.47 43.62 61.60 43.65 C 61.61 45.56 61.61 47.46 61.64 49.37 C 63.89 49.39 66.15 49.39 68.40 49.38 C 68.53 46.83 68.53 44.28 68.51 41.74 C 65.64 39.16 62.71 36.63 59.88 34.00 C 56.59 36.42 53.63 39.25 50.48 41.85 M 33.83 52.98 C 37.43 56.00 40.97 59.10 44.65 62.02 C 43.84 59.35 42.96 56.70 42.14 54.02 C 46.40 53.13 50.72 54.26 55.01 53.64 C 62.29 54.13 69.62 53.26 76.86 54.02 C 76.03 56.69 75.15 59.35 74.36 62.03 C 78.02 59.08 81.59 56.02 85.17 52.98 C 81.58 49.96 78.00 46.92 74.36 43.97 C 75.15 46.65 76.03 49.31 76.88 51.98 C 69.62 52.72 62.29 51.86 55.00 52.37 C 50.70 51.77 46.38 52.80 42.12 51.98 C 42.96 49.32 43.84 46.66 44.63 43.99 C 40.98 46.91 37.43 49.97 33.83 52.98 M 50.92 57.20 C 50.91 57.73 50.90 58.79 50.89 59.32 C 54.92 59.33 58.96 59.29 62.99 59.35 C 58.77 64.11 54.28 68.62 50.28 73.57 L 50.75 73.58 C 50.44 73.58 49.84 73.58 49.54 73.57 C 50.24 75.77 52.24 75.51 53.92 75.54 C 58.73 75.52 63.54 75.52 68.35 75.51 C 68.33 74.87 68.28 73.58 68.25 72.93 C 63.92 73.03 59.56 72.62 55.26 73.24 C 58.94 68.87 62.91 64.76 66.70 60.49 C 67.55 59.62 67.82 58.40 68.20 57.29 C 62.44 57.10 56.68 57.24 50.92 57.20 Z" />
</g>
<g id="#6a6e6aff">
<path fill="#6a6e6a" opacity="1.00" d=" M 33.19 10.21 C 48.44 9.69 63.72 10.18 78.98 9.97 C 85.40 9.73 91.93 11.18 97.44 14.55 C 106.94 20.15 113.12 30.94 113.00 41.99 C 112.94 61.35 113.11 80.72 112.92 100.08 C 112.29 116.03 97.99 129.84 82.04 129.97 C 66.33 130.00 50.61 130.08 34.89 129.93 C 18.98 129.24 5.18 115.03 5.02 99.09 C 4.98 79.72 4.98 60.35 5.02 40.99 C 5.16 25.63 17.93 11.76 33.19 10.21 M 33.20 12.25 C 19.06 13.79 7.23 26.65 7.04 40.90 C 6.97 60.25 6.98 79.60 7.04 98.95 C 7.12 113.87 20.06 127.25 34.95 127.91 C 49.97 128.11 65.00 127.95 80.02 127.99 C 96.34 128.93 111.46 114.40 110.98 98.03 C 110.99 79.02 111.05 60.01 110.96 41.00 C 110.87 25.73 97.28 12.18 82.03 12.05 C 65.76 12.10 49.46 11.71 33.20 12.25 Z" />
</g>
<g id="#f8fcf8ff">
<path fill="#f8fcf8" opacity="1.00" d=" M 47.51 39.32 C 51.60 36.12 55.56 32.76 59.21 29.06 C 61.57 28.96 62.55 32.03 64.36 33.16 C 64.37 32.14 64.38 30.11 64.39 29.10 C 65.75 29.09 67.11 29.11 68.48 29.14 C 68.64 31.68 68.16 34.32 68.80 36.79 C 69.98 38.06 71.49 38.95 72.89 39.95 C 72.03 40.87 70.99 41.59 69.82 42.06 C 67.13 38.16 63.13 35.50 59.60 32.45 C 56.49 35.81 52.06 37.97 49.89 42.15 C 48.68 41.58 46.89 41.08 47.51 39.32 Z" />
<path fill="#f8fcf8" opacity="1.00" d=" M 50.48 41.85 C 53.63 39.25 56.59 36.42 59.88 34.00 C 62.71 36.63 65.64 39.16 68.51 41.74 C 68.53 44.28 68.53 46.83 68.40 49.38 C 66.15 49.39 63.89 49.39 61.64 49.37 C 61.61 47.46 61.61 45.56 61.60 43.65 C 60.47 43.62 59.34 43.58 58.21 43.54 C 57.99 45.49 57.89 47.45 57.70 49.41 C 55.31 49.39 52.92 49.38 50.52 49.35 C 50.50 46.85 50.52 44.35 50.48 41.85 Z" />
<path fill="#f8fcf8" opacity="1.00" d=" M 33.83 52.98 C 37.43 49.97 40.98 46.91 44.63 43.99 C 43.84 46.66 42.96 49.32 42.12 51.98 C 46.38 52.80 50.70 51.77 55.00 52.37 C 62.29 51.86 69.62 52.72 76.88 51.98 C 76.03 49.31 75.15 46.65 74.36 43.97 C 78.00 46.92 81.58 49.96 85.17 52.98 C 81.59 56.02 78.02 59.08 74.36 62.03 C 75.15 59.35 76.03 56.69 76.86 54.02 C 69.62 53.26 62.29 54.13 55.01 53.64 C 50.72 54.26 46.40 53.13 42.14 54.02 C 42.96 56.70 43.84 59.35 44.65 62.02 C 40.97 59.10 37.43 56.00 33.83 52.98 Z" />
<path fill="#f8fcf8" opacity="1.00" d=" M 50.92 57.20 C 56.68 57.24 62.44 57.10 68.20 57.29 C 67.82 58.40 67.55 59.62 66.70 60.49 C 62.91 64.76 58.94 68.87 55.26 73.24 C 54.08 73.41 52.89 73.52 51.70 73.60 C 51.46 73.60 50.99 73.59 50.75 73.58 L 50.28 73.57 C 54.28 68.62 58.77 64.11 62.99 59.35 C 58.96 59.29 54.92 59.33 50.89 59.32 C 50.90 58.79 50.91 57.73 50.92 57.20 Z" />
</g>
<g id="#e8e8e8ff">
<path fill="#e8e8e8" opacity="1.00" d=" M 49.54 73.57 C 49.84 73.58 50.44 73.58 50.75 73.58 C 50.99 73.59 51.46 73.60 51.70 73.60 C 52.89 73.52 54.08 73.41 55.26 73.24 C 59.56 72.62 63.92 73.03 68.25 72.93 C 68.28 73.58 68.33 74.87 68.35 75.51 C 63.54 75.52 58.73 75.52 53.92 75.54 C 52.24 75.51 50.24 75.77 49.54 73.57 Z" />
</g>
</svg>
