<?xml version="1.0" encoding="UTF-8" ?>
<!DOCTYPE svg PUBLIC "-//W3C//DTD SVG 1.1//EN" "http://www.w3.org/Graphics/SVG/1.1/DTD/svg11.dtd">
<svg width="117px" height="140px" viewBox="0 0 117 140" version="1.1" xmlns="http://www.w3.org/2000/svg">
<g id="#000000ff">
<path fill="#000000" opacity="1.00" d=" M 0.00 0.00 L 117.00 0.00 L 117.00 140.00 L 0.00 140.00 L 0.00 0.00 M 33.16 10.23 C 17.92 11.77 5.20 25.62 5.02 40.95 C 4.98 60.31 4.98 79.66 5.02 99.01 C 5.15 114.98 18.97 129.27 34.92 129.92 C 50.30 130.11 65.68 129.95 81.06 130.00 C 94.92 130.21 108.02 120.27 111.74 106.95 C 112.82 103.41 113.05 99.70 113.03 96.03 C 112.97 78.03 113.02 60.02 113.00 42.02 C 113.12 31.46 107.50 21.11 98.68 15.34 C 92.93 11.44 85.91 9.73 79.01 9.97 C 63.73 10.19 48.43 9.67 33.16 10.23 Z" />
<path fill="#000000" opacity="1.00" d=" M 33.23 12.35 C 48.15 11.69 63.11 12.28 78.05 12.05 C 84.70 11.83 91.56 13.08 97.15 16.85 C 105.62 22.15 110.98 32.00 110.90 41.98 C 110.95 60.67 110.95 79.37 110.90 98.06 C 110.99 108.75 104.79 119.24 95.32 124.23 C 90.40 127.06 84.65 128.02 79.03 127.94 C 65.00 127.89 50.97 127.98 36.94 127.91 C 26.25 127.96 15.76 121.80 10.77 112.32 C 7.91 107.39 6.92 101.62 7.06 95.97 C 7.13 77.65 6.98 59.32 7.13 41.01 C 7.29 26.77 19.06 13.82 33.23 12.35 M 48.25 31.39 C 49.53 34.82 50.89 38.22 52.17 41.65 C 56.49 39.51 61.52 39.54 65.84 41.65 C 67.10 38.21 68.47 34.82 69.75 31.38 C 62.98 28.25 55.02 28.23 48.25 31.39 M 35.89 53.97 C 36.35 53.70 37.26 53.16 37.71 52.89 C 38.60 46.46 41.78 40.54 46.92 36.52 C 46.88 36.11 46.81 35.28 46.77 34.87 C 39.83 38.41 36.21 46.44 35.89 53.97 M 70.76 34.70 C 70.87 37.26 73.44 38.33 74.78 40.19 C 78.13 43.61 79.32 48.35 80.29 52.87 C 80.74 53.14 81.64 53.70 82.09 53.97 C 81.80 46.30 78.03 38.04 70.76 34.70 M 41.95 52.68 C 42.44 52.56 43.42 52.32 43.91 52.20 C 44.48 50.15 45.06 48.07 46.21 46.27 C 47.37 44.31 49.38 42.71 49.25 40.20 C 44.98 42.95 42.60 47.75 41.95 52.68 M 68.74 40.20 C 69.41 44.59 73.70 47.52 74.07 52.16 C 74.56 52.31 75.53 52.62 76.01 52.77 C 75.48 47.79 73.02 42.97 68.74 40.20 M 55.26 47.27 C 50.42 49.66 50.34 57.36 55.11 59.86 C 59.59 62.82 66.45 59.40 66.46 53.94 C 66.99 48.30 59.97 44.29 55.26 47.27 M 73.20 55.11 C 72.75 59.84 70.28 64.09 66.27 66.67 C 68.68 69.47 71.00 72.35 73.40 75.15 C 79.55 71.05 83.52 64.23 84.18 56.88 C 80.52 56.28 76.85 55.76 73.20 55.11 M 33.82 56.89 C 34.48 64.23 38.45 71.05 44.60 75.14 C 47.01 72.35 49.32 69.47 51.73 66.67 C 47.73 64.09 45.23 59.84 44.78 55.11 C 41.14 55.76 37.47 56.29 33.82 56.89 M 52.56 69.84 C 56.73 71.33 61.29 71.31 65.47 69.85 C 65.03 69.54 64.14 68.91 63.69 68.59 C 60.57 68.98 57.44 68.95 54.32 68.60 C 53.88 68.91 53.00 69.53 52.56 69.84 M 48.39 74.05 C 54.64 78.04 63.38 78.05 69.62 74.04 C 66.05 72.72 62.65 75.46 59.01 75.01 C 55.37 75.47 51.95 72.70 48.39 74.05 Z" />
</g>
<g id="#717171ff">
<path fill="#717171" opacity="1.00" d=" M 33.16 10.23 C 48.43 9.67 63.73 10.19 79.01 9.97 C 85.91 9.73 92.93 11.44 98.68 15.34 C 107.50 21.11 113.12 31.46 113.00 42.02 C 113.02 60.02 112.97 78.03 113.03 96.03 C 113.05 99.70 112.82 103.41 111.74 106.95 C 108.02 120.27 94.92 130.21 81.06 130.00 C 65.68 129.95 50.30 130.11 34.92 129.92 C 18.97 129.27 5.15 114.98 5.02 99.01 C 4.98 79.66 4.98 60.31 5.02 40.95 C 5.20 25.62 17.92 11.77 33.16 10.23 M 33.23 12.35 C 19.06 13.82 7.29 26.77 7.13 41.01 C 6.98 59.32 7.13 77.65 7.06 95.97 C 6.92 101.62 7.91 107.39 10.77 112.32 C 15.76 121.80 26.25 127.96 36.94 127.91 C 50.97 127.98 65.00 127.89 79.03 127.94 C 84.65 128.02 90.40 127.06 95.32 124.23 C 104.79 119.24 110.99 108.75 110.90 98.06 C 110.95 79.37 110.95 60.67 110.90 41.98 C 110.98 32.00 105.62 22.15 97.15 16.85 C 91.56 13.08 84.70 11.83 78.05 12.05 C 63.11 12.28 48.15 11.69 33.23 12.35 Z" />
</g>
<g id="#f8fcf8ff">
<path fill="#f8fcf8" opacity="1.00" d=" M 48.25 31.39 C 55.02 28.23 62.98 28.25 69.75 31.38 C 68.47 34.82 67.10 38.21 65.84 41.65 C 61.52 39.54 56.49 39.51 52.17 41.65 C 50.89 38.22 49.53 34.82 48.25 31.39 Z" />
<path fill="#f8fcf8" opacity="1.00" d=" M 35.89 53.97 C 36.21 46.44 39.83 38.41 46.77 34.87 C 46.81 35.28 46.88 36.11 46.92 36.52 C 41.78 40.54 38.60 46.46 37.71 52.89 C 37.26 53.16 36.35 53.70 35.89 53.97 Z" />
<path fill="#f8fcf8" opacity="1.00" d=" M 70.76 34.70 C 78.03 38.04 81.80 46.30 82.09 53.97 C 81.64 53.70 80.74 53.14 80.29 52.87 C 79.32 48.35 78.13 43.61 74.78 40.19 C 73.44 38.33 70.87 37.26 70.76 34.70 Z" />
<path fill="#f8fcf8" opacity="1.00" d=" M 41.95 52.68 C 42.60 47.75 44.98 42.95 49.25 40.20 C 49.38 42.71 47.37 44.31 46.21 46.27 C 45.06 48.07 44.48 50.15 43.91 52.20 C 43.42 52.32 42.44 52.56 41.95 52.68 Z" />
<path fill="#f8fcf8" opacity="1.00" d=" M 68.74 40.20 C 73.02 42.97 75.48 47.79 76.01 52.77 C 75.53 52.62 74.56 52.31 74.07 52.16 C 73.70 47.52 69.41 44.59 68.74 40.20 Z" />
<path fill="#f8fcf8" opacity="1.00" d=" M 55.26 47.27 C 59.97 44.29 66.99 48.30 66.46 53.94 C 66.45 59.40 59.59 62.82 55.11 59.86 C 50.34 57.36 50.42 49.66 55.26 47.27 Z" />
<path fill="#f8fcf8" opacity="1.00" d=" M 73.20 55.11 C 76.85 55.76 80.52 56.28 84.18 56.88 C 83.52 64.23 79.55 71.05 73.40 75.15 C 71.00 72.35 68.68 69.47 66.27 66.67 C 70.28 64.09 72.75 59.84 73.20 55.11 Z" />
<path fill="#f8fcf8" opacity="1.00" d=" M 33.82 56.89 C 37.47 56.29 41.14 55.76 44.78 55.11 C 45.23 59.84 47.73 64.09 51.73 66.67 C 49.32 69.47 47.01 72.35 44.60 75.14 C 38.45 71.05 34.48 64.23 33.82 56.89 Z" />
<path fill="#f8fcf8" opacity="1.00" d=" M 52.56 69.84 C 53.00 69.53 53.88 68.91 54.32 68.60 C 57.44 68.95 60.57 68.98 63.69 68.59 C 64.14 68.91 65.03 69.54 65.47 69.85 C 61.29 71.31 56.73 71.33 52.56 69.84 Z" />
<path fill="#f8fcf8" opacity="1.00" d=" M 48.39 74.05 C 51.95 72.70 55.37 75.47 59.01 75.01 C 62.65 75.46 66.05 72.72 69.62 74.04 C 63.38 78.05 54.64 78.04 48.39 74.05 Z" />
</g>
</svg>
