<?xml version="1.0" encoding="UTF-8" ?>
<!DOCTYPE svg PUBLIC "-//W3C//DTD SVG 1.1//EN" "http://www.w3.org/Graphics/SVG/1.1/DTD/svg11.dtd">
<svg width="117px" height="140px" viewBox="0 0 117 140" version="1.1" xmlns="http://www.w3.org/2000/svg">
<g id="#000000ff">
<path fill="#000000" opacity="1.00" d=" M 0.00 0.00 L 117.00 0.00 L 117.00 140.00 L 0.00 140.00 L 0.00 0.00 M 32.24 10.20 C 16.97 11.74 4.17 25.59 4.02 40.96 C 3.98 60.32 3.98 79.67 4.02 99.03 C 4.15 115.00 17.99 129.27 33.94 129.94 C 49.66 130.07 65.39 130.00 81.11 129.97 C 97.04 129.80 111.30 116.00 111.92 100.07 C 112.11 80.70 111.95 61.33 112.00 41.96 C 112.10 31.64 106.72 21.54 98.24 15.71 C 92.63 11.79 85.76 9.80 78.93 9.98 C 63.37 10.16 47.79 9.71 32.24 10.20 Z" />
<path fill="#000000" opacity="1.00" d=" M 32.18 12.25 C 48.44 11.71 64.75 12.10 81.02 12.05 C 96.28 12.17 109.87 25.73 109.96 41.00 C 110.03 60.33 110.03 79.67 109.96 99.00 C 109.86 113.88 96.93 127.25 82.08 127.89 C 69.74 128.13 57.40 127.94 45.06 128.00 C 38.41 127.90 31.46 128.65 25.16 125.98 C 13.90 121.70 5.80 110.14 6.01 98.03 C 6.01 79.01 5.96 59.98 6.03 40.96 C 6.20 26.69 18.02 13.80 32.18 12.25 M 36.58 42.00 C 36.58 50.67 36.58 59.33 36.58 68.00 C 43.86 68.00 51.14 68.00 58.42 68.00 C 58.42 66.00 58.42 64.00 58.42 62.00 C 54.08 62.00 49.74 62.01 45.41 61.98 C 45.41 60.66 45.40 59.34 45.40 58.02 C 48.93 58.00 52.47 57.99 56.00 58.00 C 56.00 55.86 56.00 53.72 56.00 51.58 C 52.47 51.58 48.93 51.57 45.40 51.60 C 45.40 50.53 45.40 49.46 45.40 48.40 C 49.60 48.43 53.80 48.41 58.00 48.42 C 58.00 46.28 58.00 44.14 58.00 42.00 C 50.86 42.00 43.72 42.00 36.58 42.00 M 61.58 49.16 C 61.58 55.44 61.58 61.72 61.58 68.00 C 64.19 68.00 66.81 68.00 69.42 68.00 C 69.51 64.24 69.19 60.45 69.57 56.71 C 69.63 53.92 74.29 53.87 74.42 56.65 C 74.82 60.41 74.49 64.22 74.58 68.00 C 77.19 68.00 79.80 68.00 82.42 68.00 C 82.09 62.60 83.33 56.88 81.24 51.73 C 78.40 46.89 71.36 47.91 68.16 51.86 C 68.34 51.26 68.70 50.05 68.88 49.44 C 66.47 49.00 64.01 49.16 61.58 49.16 Z" />
</g>
<g id="#6a6e6aff">
<path fill="#6a6e6a" opacity="1.00" d=" M 32.24 10.20 C 47.79 9.71 63.37 10.16 78.93 9.98 C 85.76 9.80 92.63 11.79 98.24 15.71 C 106.72 21.54 112.10 31.64 112.00 41.96 C 111.95 61.33 112.11 80.70 111.92 100.07 C 111.30 116.00 97.04 129.80 81.11 129.97 C 65.39 130.00 49.66 130.07 33.94 129.94 C 17.99 129.27 4.15 115.00 4.02 99.03 C 3.98 79.67 3.98 60.32 4.02 40.96 C 4.17 25.59 16.97 11.74 32.24 10.20 M 32.18 12.25 C 18.02 13.80 6.20 26.69 6.03 40.96 C 5.96 59.98 6.01 79.01 6.01 98.03 C 5.80 110.14 13.90 121.70 25.16 125.98 C 31.46 128.65 38.41 127.90 45.06 128.00 C 57.40 127.94 69.74 128.13 82.08 127.89 C 96.93 127.25 109.86 113.88 109.96 99.00 C 110.03 79.67 110.03 60.33 109.96 41.00 C 109.87 25.73 96.28 12.17 81.02 12.05 C 64.75 12.10 48.44 11.71 32.18 12.25 Z" />
</g>
<g id="#f8fcf8ff">
<path fill="#f8fcf8" opacity="1.00" d=" M 36.58 42.00 C 43.72 42.00 50.86 42.00 58.00 42.00 C 58.00 44.14 58.00 46.28 58.00 48.42 C 53.80 48.41 49.60 48.43 45.40 48.40 C 45.40 49.46 45.40 50.53 45.40 51.60 C 48.93 51.57 52.47 51.58 56.00 51.58 C 56.00 53.72 56.00 55.86 56.00 58.00 C 52.47 57.99 48.93 58.00 45.40 58.02 C 45.40 59.34 45.41 60.66 45.41 61.98 C 49.74 62.01 54.08 62.00 58.42 62.00 C 58.42 64.00 58.42 66.00 58.42 68.00 C 51.14 68.00 43.86 68.00 36.58 68.00 C 36.58 59.33 36.58 50.67 36.58 42.00 Z" />
<path fill="#f8fcf8" opacity="1.00" d=" M 61.58 49.16 C 64.01 49.16 66.47 49.00 68.88 49.44 C 68.70 50.05 68.34 51.26 68.16 51.86 C 71.36 47.91 78.40 46.89 81.24 51.73 C 83.33 56.88 82.09 62.60 82.42 68.00 C 79.80 68.00 77.19 68.00 74.58 68.00 C 74.49 64.22 74.82 60.41 74.42 56.65 C 74.29 53.87 69.63 53.92 69.57 56.71 C 69.19 60.45 69.51 64.24 69.42 68.00 C 66.81 68.00 64.19 68.00 61.58 68.00 C 61.58 61.72 61.58 55.44 61.58 49.16 Z" />
</g>
</svg>
