<?xml version="1.0" encoding="UTF-8" ?>
<!DOCTYPE svg PUBLIC "-//W3C//DTD SVG 1.1//EN" "http://www.w3.org/Graphics/SVG/1.1/DTD/svg11.dtd">
<svg width="117pt" height="140pt" viewBox="0 0 117 140" version="1.1" xmlns="http://www.w3.org/2000/svg">
<g id="#181818ff">
<path fill="#181818" opacity="1.00" d=" M 0.00 0.00 L 117.00 0.00 L 117.00 140.00 L 0.00 140.00 L 0.00 0.00 M 54.14 13.97 C 53.81 16.64 54.10 19.33 54.01 22.01 C 53.97 24.72 54.00 27.43 54.01 30.14 C 53.97 32.80 54.02 35.47 54.01 38.13 C 53.97 40.47 54.03 42.81 54.02 45.15 C 54.02 47.63 53.57 50.56 55.50 52.50 C 57.86 54.98 62.57 54.02 63.63 50.72 C 64.29 48.22 63.92 45.59 63.98 43.04 C 63.97 40.65 64.03 38.26 63.98 35.88 C 63.99 33.20 64.03 30.52 63.99 27.84 C 64.01 25.29 64.02 22.73 63.98 20.18 C 63.80 17.11 64.86 13.11 61.93 10.99 C 59.21 8.81 54.73 10.57 54.14 13.97 M 24.98 25.05 C 24.87 27.86 27.30 30.08 29.80 30.93 C 28.72 31.89 27.67 32.96 27.11 34.31 C 24.76 38.21 23.23 42.58 22.51 47.07 C 22.02 49.40 22.06 51.79 22.01 54.16 C 22.15 58.67 23.19 63.14 24.91 67.31 C 26.55 71.39 29.04 75.12 32.07 78.31 C 38.96 85.84 49.20 90.19 59.41 89.92 C 61.81 90.15 64.29 89.85 66.58 89.10 C 70.30 88.44 73.84 87.06 77.16 85.29 C 77.49 85.54 78.14 86.06 78.46 86.32 C 82.97 89.45 89.24 89.82 94.04 87.16 C 100.99 83.66 103.99 74.37 100.46 67.45 C 99.21 64.99 97.34 62.84 95.01 61.34 C 96.24 55.84 96.33 50.06 95.01 44.56 C 94.80 43.28 94.44 41.99 93.66 40.92 C 97.83 39.77 95.37 33.12 91.33 35.20 C 89.61 31.92 87.35 28.83 84.56 26.40 C 82.67 25.46 80.66 28.25 82.37 29.66 C 84.93 32.43 87.26 35.45 88.85 38.88 C 90.23 42.15 91.06 45.56 91.75 49.03 C 92.30 52.58 91.65 56.20 91.58 59.71 L 91.45 59.85 C 80.60 55.52 68.65 67.64 72.74 78.49 C 73.12 79.80 73.74 81.02 74.42 82.19 C 71.88 82.98 69.18 85.37 66.50 84.51 C 68.32 81.47 64.36 77.70 61.35 79.36 C 58.58 80.49 58.35 84.34 60.46 86.25 C 51.84 86.09 43.01 83.30 36.73 77.22 L 36.53 77.26 C 33.34 74.08 30.64 70.41 28.81 66.28 L 28.70 66.30 C 27.43 63.14 26.73 59.79 26.11 56.46 C 25.96 53.32 26.06 50.18 26.49 47.07 C 27.29 43.45 28.45 39.87 30.38 36.68 C 31.60 35.09 32.35 33.18 33.67 31.67 C 34.29 30.67 35.89 30.16 35.74 28.79 C 37.69 25.99 37.16 21.67 34.07 19.91 C 30.41 17.12 24.68 20.64 24.98 25.05 Z" />
<path fill="#181818" opacity="1.00" d=" M 89.40 74.26 C 90.20 74.70 91.00 75.14 91.81 75.58 C 92.63 76.08 93.42 76.61 94.19 77.19 C 93.94 77.56 93.45 78.29 93.20 78.66 C 91.62 77.81 90.07 76.92 88.50 76.06 L 88.31 75.95 C 88.58 75.53 89.13 74.68 89.40 74.26 Z" />
</g>
<g id="#f8d470ff">
<path fill="#f8d470" opacity="1.00" d=" M 54.14 13.97 C 54.73 10.57 59.21 8.81 61.93 10.99 C 64.86 13.11 63.80 17.11 63.98 20.18 C 60.75 21.21 57.39 21.71 54.01 22.01 C 54.10 19.33 53.81 16.64 54.14 13.97 Z" />
</g>
<g id="#50dc90ff">
<path fill="#50dc90" opacity="1.00" d=" M 24.98 25.05 C 24.68 20.64 30.41 17.12 34.07 19.91 C 37.16 21.67 37.69 25.99 35.74 28.79 C 34.13 30.31 32.03 31.17 29.80 30.93 C 27.30 30.08 24.87 27.86 24.98 25.05 Z" />
</g>
<g id="#f8bc60ff">
<path fill="#f8bc60" opacity="1.00" d=" M 54.01 22.01 C 57.39 21.71 60.75 21.21 63.98 20.18 C 64.02 22.73 64.01 25.29 63.99 27.84 C 60.62 28.44 57.28 29.17 54.01 30.14 C 54.00 27.43 53.97 24.72 54.01 22.01 Z" />
</g>
<g id="#9060f0ff">
<path fill="#9060f0" opacity="1.00" d=" M 82.37 29.66 C 80.66 28.25 82.67 25.46 84.56 26.40 C 87.35 28.83 89.61 31.92 91.33 35.20 C 90.62 36.54 90.07 37.96 89.59 39.40 L 88.85 38.88 C 87.26 35.45 84.93 32.43 82.37 29.66 Z" />
</g>
<g id="#f8ac50ff">
<path fill="#f8ac50" opacity="1.00" d=" M 54.01 30.14 C 57.28 29.17 60.62 28.44 63.99 27.84 C 64.03 30.52 63.99 33.20 63.98 35.88 C 60.65 36.58 57.32 37.30 54.01 38.13 C 54.02 35.47 53.97 32.80 54.01 30.14 Z" />
</g>
<g id="#583898ff">
<path fill="#583898" opacity="1.00" d=" M 29.80 30.93 C 32.03 31.17 34.13 30.31 35.74 28.79 C 35.89 30.16 34.29 30.67 33.67 31.67 C 32.35 33.18 31.60 35.09 30.38 36.68 C 29.65 35.40 28.69 34.32 27.11 34.31 C 27.67 32.96 28.72 31.89 29.80 30.93 Z" />
</g>
<g id="#7858e8ff">
<path fill="#7858e8" opacity="1.00" d=" M 27.11 34.31 C 28.69 34.32 29.65 35.40 30.38 36.68 C 28.45 39.87 27.29 43.45 26.49 47.07 C 25.50 47.07 23.51 47.07 22.51 47.07 C 23.23 42.58 24.76 38.21 27.11 34.31 Z" />
</g>
<g id="#d860d0ff">
<path fill="#d860d0" opacity="1.00" d=" M 91.33 35.20 C 95.37 33.12 97.83 39.77 93.66 40.92 C 92.16 40.86 90.76 40.36 89.59 39.40 C 90.07 37.96 90.62 36.54 91.33 35.20 Z" />
</g>
<g id="#f89c48ff">
<path fill="#f89c48" opacity="1.00" d=" M 54.01 38.13 C 57.32 37.30 60.65 36.58 63.98 35.88 C 64.03 38.26 63.97 40.65 63.98 43.04 C 60.66 43.76 57.34 44.46 54.02 45.15 C 54.03 42.81 53.97 40.47 54.01 38.13 Z" />
</g>
<g id="#513c9dff">
<path fill="#513c9d" opacity="1.00" d=" M 88.85 38.88 L 89.59 39.40 C 90.76 40.36 92.16 40.86 93.66 40.92 C 94.44 41.99 94.80 43.28 95.01 44.56 C 94.28 44.80 92.83 45.26 92.10 45.50 C 91.85 46.66 91.73 47.83 91.75 49.03 C 91.06 45.56 90.23 42.15 88.85 38.88 Z" />
</g>
<g id="#f88438ff">
<path fill="#f88438" opacity="1.00" d=" M 54.02 45.15 C 57.34 44.46 60.66 43.76 63.98 43.04 C 63.92 45.59 64.29 48.22 63.63 50.72 C 62.57 54.02 57.86 54.98 55.50 52.50 C 53.57 50.56 54.02 47.63 54.02 45.15 Z" />
</g>
<g id="#6050e0ff">
<path fill="#6050e0" opacity="1.00" d=" M 92.10 45.50 C 92.83 45.26 94.28 44.80 95.01 44.56 C 96.33 50.06 96.24 55.84 95.01 61.34 C 93.89 60.75 92.74 60.21 91.58 59.71 C 91.65 56.20 92.30 52.58 91.75 49.03 C 91.73 47.83 91.85 46.66 92.10 45.50 Z" />
<path fill="#6050e0" opacity="1.00" d=" M 22.51 47.07 C 23.51 47.07 25.50 47.07 26.49 47.07 C 26.06 50.18 25.96 53.32 26.11 56.46 C 24.68 55.80 23.28 55.09 22.01 54.16 C 22.06 51.79 22.02 49.40 22.51 47.07 Z" />
</g>
<g id="#5048d8ff">
<path fill="#5048d8" opacity="1.00" d=" M 22.01 54.16 C 23.28 55.09 24.68 55.80 26.11 56.46 C 26.73 59.79 27.43 63.14 28.70 66.30 C 27.44 66.64 26.17 66.97 24.91 67.31 C 23.19 63.14 22.15 58.67 22.01 54.16 Z" />
</g>
<g id="#f8cc68ff">
<path fill="#f8cc68" opacity="1.00" d=" M 72.74 78.49 C 68.65 67.64 80.60 55.52 91.45 59.85 C 90.45 61.01 89.35 62.09 88.07 62.94 C 87.84 62.64 87.39 62.04 87.16 61.74 C 85.29 62.16 86.19 64.47 85.98 65.79 C 81.44 69.90 77.40 74.52 72.74 78.49 Z" />
</g>
<g id="#f8ac58ff">
<path fill="#f8ac58" opacity="1.00" d=" M 91.45 59.85 L 91.58 59.71 C 92.74 60.21 93.89 60.75 95.01 61.34 C 97.34 62.84 99.21 64.99 100.46 67.45 C 97.44 70.02 94.87 73.06 91.81 75.58 C 91.00 75.14 90.20 74.70 89.40 74.26 C 89.01 74.02 88.24 73.53 87.86 73.29 C 88.03 69.84 87.96 66.39 88.07 62.94 C 89.35 62.09 90.45 61.01 91.45 59.85 Z" />
</g>
<g id="#2a2c59ff">
<path fill="#2a2c59" opacity="1.00" d=" M 85.98 65.79 C 86.19 64.47 85.29 62.16 87.16 61.74 C 87.39 62.04 87.84 62.64 88.07 62.94 C 87.96 66.39 88.03 69.84 87.86 73.29 C 88.24 73.53 89.01 74.02 89.40 74.26 C 89.13 74.68 88.58 75.53 88.31 75.95 C 84.89 73.69 86.30 69.20 85.98 65.79 Z" />
</g>
<g id="#3840d0ff">
<path fill="#3840d0" opacity="1.00" d=" M 28.70 66.30 L 28.81 66.28 C 30.64 70.41 33.34 74.08 36.53 77.26 C 35.04 77.57 33.55 77.94 32.07 78.31 C 29.04 75.12 26.55 71.39 24.91 67.31 C 26.17 66.97 27.44 66.64 28.70 66.30 Z" />
</g>
<g id="#f8b458ff">
<path fill="#f8b458" opacity="1.00" d=" M 72.74 78.49 C 77.40 74.52 81.44 69.90 85.98 65.79 C 86.30 69.20 84.89 73.69 88.31 75.95 L 88.50 76.06 C 84.92 79.24 81.40 82.52 78.46 86.32 C 78.14 86.06 77.49 85.54 77.16 85.29 C 76.16 84.34 75.27 83.28 74.42 82.19 C 73.74 81.02 73.12 79.80 72.74 78.49 Z" />
</g>
<g id="#f89448ff">
<path fill="#f89448" opacity="1.00" d=" M 91.81 75.58 C 94.87 73.06 97.44 70.02 100.46 67.45 C 103.99 74.37 100.99 83.66 94.04 87.16 C 89.24 89.82 82.97 89.45 78.46 86.32 C 81.40 82.52 84.92 79.24 88.50 76.06 C 90.07 76.92 91.62 77.81 93.20 78.66 C 93.45 78.29 93.94 77.56 94.19 77.19 C 93.42 76.61 92.63 76.08 91.81 75.58 Z" />
</g>
<g id="#2038c0ff">
<path fill="#2038c0" opacity="1.00" d=" M 36.53 77.26 L 36.73 77.22 C 43.01 83.30 51.84 86.09 60.46 86.25 C 60.50 86.26 60.60 86.29 60.64 86.30 C 59.75 87.34 59.34 88.55 59.41 89.92 C 49.20 90.19 38.96 85.84 32.07 78.31 C 33.55 77.94 35.04 77.57 36.53 77.26 Z" />
<path fill="#2038c0" opacity="1.00" d=" M 74.42 82.19 C 75.27 83.28 76.16 84.34 77.16 85.29 C 73.84 87.06 70.30 88.44 66.58 89.10 C 66.62 87.82 66.50 86.55 66.25 85.30 C 66.31 85.10 66.44 84.71 66.50 84.51 C 69.18 85.37 71.88 82.98 74.42 82.19 Z" />
</g>
<g id="#38bce8ff">
<path fill="#38bce8" opacity="1.00" d=" M 61.35 79.36 C 64.36 77.70 68.32 81.47 66.50 84.51 C 66.44 84.71 66.31 85.10 66.25 85.30 C 64.87 87.02 62.54 87.26 60.64 86.30 C 60.60 86.29 60.50 86.26 60.46 86.25 C 58.35 84.34 58.58 80.49 61.35 79.36 Z" />
</g>
<g id="#102078ff">
<path fill="#102078" opacity="1.00" d=" M 60.64 86.30 C 62.54 87.26 64.87 87.02 66.25 85.30 C 66.50 86.55 66.62 87.82 66.58 89.10 C 64.29 89.85 61.81 90.15 59.41 89.92 C 59.34 88.55 59.75 87.34 60.64 86.30 Z" />
</g>
</svg>
