<?xml version="1.0" encoding="UTF-8" ?>
<!DOCTYPE svg PUBLIC "-//W3C//DTD SVG 1.1//EN" "http://www.w3.org/Graphics/SVG/1.1/DTD/svg11.dtd">
<svg width="117px" height="140px" viewBox="0 0 117 140" version="1.1" xmlns="http://www.w3.org/2000/svg">
<g id="#000000ff">
<path fill="#000000" opacity="1.00" d=" M 0.00 0.00 L 117.00 0.00 L 117.00 140.00 L 0.00 140.00 L 0.00 0.00 M 33.19 10.22 C 17.93 11.77 5.18 25.62 5.02 40.98 C 4.97 59.98 5.02 78.97 4.99 97.96 C 4.91 106.84 8.83 115.62 15.40 121.58 C 21.45 127.21 29.75 130.25 38.00 130.02 C 53.03 129.92 68.07 130.12 83.10 129.92 C 99.01 129.25 112.83 115.00 112.98 99.07 C 113.04 80.04 112.98 61.01 113.00 41.99 C 113.07 33.34 109.35 24.78 103.07 18.85 C 96.97 12.94 88.42 9.74 79.94 9.98 C 64.36 10.16 48.76 9.70 33.19 10.22 Z" />
<path fill="#000000" opacity="1.00" d=" M 33.28 12.34 C 48.84 11.72 64.44 12.24 80.02 12.07 C 90.56 11.75 101.12 17.28 106.50 26.42 C 109.62 31.35 111.05 37.20 110.93 43.02 C 110.92 61.35 110.96 79.68 110.90 98.01 C 111.00 108.47 105.09 118.79 95.93 123.89 C 91.15 126.76 85.53 127.97 79.98 127.93 C 65.65 127.92 51.32 127.96 37.00 127.91 C 26.52 127.98 16.18 122.08 11.10 112.89 C 8.23 108.13 6.97 102.54 7.07 97.01 C 7.11 78.31 6.99 59.60 7.13 40.90 C 7.34 26.68 19.12 13.80 33.28 12.34 M 54.08 28.11 C 45.90 29.90 38.69 35.66 35.12 43.24 C 31.12 51.46 31.69 61.71 36.51 69.47 C 37.31 70.57 38.06 72.32 39.73 71.73 C 41.14 69.88 38.92 68.19 38.30 66.49 C 32.43 56.24 35.83 42.06 45.36 35.24 C 52.26 30.20 61.82 28.90 69.67 32.47 C 79.88 36.50 86.12 48.17 84.26 58.91 C 83.73 63.01 81.63 66.60 79.72 70.19 C 79.39 71.66 81.50 72.50 82.19 71.19 C 88.25 63.38 89.11 52.05 84.85 43.21 C 79.62 31.91 66.26 25.22 54.08 28.11 M 58.89 55.88 C 57.87 56.89 56.66 58.74 58.26 59.89 C 59.14 61.42 61.72 60.89 62.12 59.21 C 63.85 55.00 65.20 50.63 66.93 46.41 C 64.24 49.56 61.60 52.76 58.89 55.88 Z" />
</g>
<g id="#717171ff">
<path fill="#717171" opacity="1.00" d=" M 33.19 10.22 C 48.76 9.70 64.36 10.16 79.94 9.98 C 88.42 9.74 96.97 12.94 103.07 18.85 C 109.35 24.78 113.07 33.34 113.00 41.99 C 112.98 61.01 113.04 80.04 112.98 99.07 C 112.83 115.00 99.01 129.25 83.10 129.92 C 68.07 130.12 53.03 129.92 38.00 130.02 C 29.75 130.25 21.45 127.21 15.40 121.58 C 8.83 115.62 4.91 106.84 4.99 97.96 C 5.02 78.97 4.97 59.98 5.02 40.98 C 5.18 25.62 17.93 11.77 33.19 10.22 M 33.28 12.34 C 19.12 13.80 7.34 26.68 7.13 40.90 C 6.99 59.60 7.11 78.31 7.07 97.01 C 6.97 102.54 8.23 108.13 11.10 112.89 C 16.18 122.08 26.52 127.98 37.00 127.91 C 51.32 127.96 65.65 127.92 79.98 127.93 C 85.53 127.97 91.15 126.76 95.93 123.89 C 105.09 118.79 111.00 108.47 110.90 98.01 C 110.96 79.68 110.92 61.35 110.93 43.02 C 111.05 37.20 109.62 31.35 106.50 26.42 C 101.12 17.28 90.56 11.75 80.02 12.07 C 64.44 12.24 48.84 11.72 33.28 12.34 Z" />
</g>
<g id="#f8fcf8ff">
<path fill="#f8fcf8" opacity="1.00" d=" M 54.08 28.11 C 66.26 25.22 79.62 31.91 84.85 43.21 C 89.11 52.05 88.25 63.38 82.19 71.19 C 81.50 72.50 79.39 71.66 79.72 70.19 C 81.63 66.60 83.73 63.01 84.26 58.91 C 86.12 48.17 79.88 36.50 69.67 32.47 C 61.82 28.90 52.26 30.20 45.36 35.24 C 35.83 42.06 32.43 56.24 38.30 66.49 C 38.92 68.19 41.14 69.88 39.73 71.73 C 38.06 72.32 37.31 70.57 36.51 69.47 C 31.69 61.71 31.12 51.46 35.12 43.24 C 38.69 35.66 45.90 29.90 54.08 28.11 Z" />
<path fill="#f8fcf8" opacity="1.00" d=" M 58.89 55.88 C 61.60 52.76 64.24 49.56 66.93 46.41 C 65.20 50.63 63.85 55.00 62.12 59.21 C 61.72 60.89 59.14 61.42 58.26 59.89 C 56.66 58.74 57.87 56.89 58.89 55.88 Z" />
</g>
</svg>
