<?xml version="1.0" encoding="UTF-8" ?>
<!DOCTYPE svg PUBLIC "-//W3C//DTD SVG 1.1//EN" "http://www.w3.org/Graphics/SVG/1.1/DTD/svg11.dtd">
<svg width="200pt" height="200pt" viewBox="0 0 200 200" version="1.1" xmlns="http://www.w3.org/2000/svg">
<g id="#000000ff">
<path fill="#000000" opacity="1.00" d=" M 0.00 0.00 L 200.00 0.00 L 200.00 200.00 L 0.00 200.00 L 0.00 0.00 M 69.23 46.37 C 55.59 51.31 44.24 61.92 38.04 74.99 C 32.29 86.98 30.77 100.94 33.94 113.86 C 37.63 129.89 48.64 144.10 63.37 151.48 C 77.20 158.63 94.18 159.41 108.57 153.43 C 121.15 148.53 131.56 138.67 137.64 126.67 C 144.30 113.74 145.69 98.31 141.80 84.33 C 127.99 88.39 114.19 92.48 100.39 96.56 C 101.56 100.69 102.70 104.83 103.91 108.95 C 109.90 107.18 115.89 105.40 121.88 103.64 C 120.50 118.14 109.42 131.35 94.96 134.15 C 80.63 137.51 64.98 129.67 58.38 116.68 C 50.86 102.89 54.08 84.31 66.00 74.02 C 74.06 66.64 85.76 63.96 96.34 66.45 C 99.88 59.73 103.62 53.11 107.08 46.34 C 94.97 41.88 81.34 41.89 69.23 46.37 M 157.34 140.40 C 151.73 142.10 150.25 150.44 155.08 153.86 C 159.23 157.54 166.54 154.49 167.03 149.01 C 168.20 143.67 162.53 138.50 157.34 140.40 Z" />
</g>
<g id="#707070ff">
<path fill="#707070" opacity="1.00" d=" M 69.23 46.37 C 81.34 41.89 94.97 41.88 107.08 46.34 C 103.62 53.11 99.88 59.73 96.34 66.45 C 85.76 63.96 74.06 66.64 66.00 74.02 C 54.08 84.31 50.86 102.89 58.38 116.68 C 64.98 129.67 80.63 137.51 94.96 134.15 C 109.42 131.35 120.50 118.14 121.88 103.64 C 115.89 105.40 109.90 107.18 103.91 108.95 C 102.70 104.83 101.56 100.69 100.39 96.56 C 114.19 92.48 127.99 88.39 141.80 84.33 C 145.69 98.31 144.30 113.74 137.64 126.67 C 131.56 138.67 121.15 148.53 108.57 153.43 C 94.18 159.41 77.20 158.63 63.37 151.48 C 48.64 144.10 37.63 129.89 33.94 113.86 C 30.77 100.94 32.29 86.98 38.04 74.99 C 44.24 61.92 55.59 51.31 69.23 46.37 Z" />
<path fill="#707070" opacity="1.00" d=" M 157.34 140.40 C 162.53 138.50 168.20 143.67 167.03 149.01 C 166.54 154.49 159.23 157.54 155.08 153.86 C 150.25 150.44 151.73 142.10 157.34 140.40 Z" />
</g>
</svg>
