<?xml version="1.0" encoding="UTF-8" ?>
<!DOCTYPE svg PUBLIC "-//W3C//DTD SVG 1.1//EN" "http://www.w3.org/Graphics/SVG/1.1/DTD/svg11.dtd">
<svg width="117px" height="140px" viewBox="0 0 117 140" version="1.1" xmlns="http://www.w3.org/2000/svg">
<g id="#000000ff">
<path fill="#000000" opacity="1.00" d=" M 0.00 0.00 L 117.00 0.00 L 117.00 140.00 L 0.00 140.00 L 0.00 0.00 M 33.12 10.23 C 17.91 11.81 5.22 25.60 5.02 40.91 C 4.98 60.29 4.99 79.68 5.02 99.07 C 5.17 115.36 19.59 129.81 35.88 129.97 C 51.62 129.99 67.36 130.10 83.09 129.92 C 99.02 129.26 112.86 114.97 112.97 99.02 C 113.02 79.66 113.02 60.29 112.97 40.93 C 112.84 24.63 98.40 10.20 82.11 10.03 C 65.78 10.11 49.43 9.72 33.12 10.23 Z" />
<path fill="#000000" opacity="1.00" d=" M 33.22 12.35 C 44.78 11.71 56.38 12.24 67.95 12.07 C 76.63 12.31 85.88 10.91 93.91 15.03 C 104.11 19.77 111.02 30.69 110.90 41.94 C 110.97 60.28 110.91 78.63 110.93 96.97 C 111.02 102.55 109.76 108.17 106.86 112.97 C 101.77 122.13 91.46 127.95 81.01 127.90 C 65.98 127.93 50.94 127.99 35.91 127.87 C 20.71 127.70 7.23 114.22 7.13 99.01 C 7.03 79.68 7.03 60.34 7.13 41.01 C 7.28 26.77 19.05 13.83 33.22 12.35 M 60.33 28.80 C 60.11 33.06 60.28 37.33 60.04 41.59 C 54.97 42.46 50.66 46.18 49.83 51.38 C 45.42 51.30 40.99 50.96 36.59 51.41 C 40.90 52.04 45.27 51.65 49.61 51.90 C 50.26 57.30 54.22 61.94 59.75 62.64 C 60.05 66.92 60.15 71.21 60.43 75.50 C 61.35 71.27 60.37 66.93 60.54 62.66 C 66.44 62.46 70.97 57.64 71.49 51.89 C 75.80 51.71 80.16 52.09 84.44 51.37 C 80.08 51.01 75.69 51.34 71.32 51.38 C 70.49 46.08 65.96 41.99 60.59 41.72 C 60.68 37.42 61.24 33.05 60.33 28.80 Z" />
</g>
<g id="#717171ff">
<path fill="#717171" opacity="1.00" d=" M 33.12 10.23 C 49.43 9.72 65.78 10.11 82.11 10.03 C 98.40 10.20 112.84 24.63 112.97 40.93 C 113.02 60.29 113.02 79.66 112.97 99.02 C 112.86 114.97 99.02 129.26 83.09 129.92 C 67.36 130.10 51.62 129.99 35.88 129.97 C 19.59 129.81 5.17 115.36 5.02 99.07 C 4.99 79.68 4.98 60.29 5.02 40.91 C 5.22 25.60 17.91 11.81 33.12 10.23 M 33.22 12.35 C 19.05 13.83 7.28 26.77 7.13 41.01 C 7.03 60.34 7.03 79.68 7.13 99.01 C 7.23 114.22 20.71 127.70 35.91 127.87 C 50.94 127.99 65.98 127.93 81.01 127.90 C 91.46 127.95 101.77 122.13 106.86 112.97 C 109.76 108.17 111.02 102.55 110.93 96.97 C 110.91 78.63 110.97 60.28 110.90 41.94 C 111.02 30.69 104.11 19.77 93.91 15.03 C 85.88 10.91 76.63 12.31 67.95 12.07 C 56.38 12.24 44.78 11.71 33.22 12.35 Z" />
</g>
<g id="#f8fcf8ff">
<path fill="#f8fcf8" opacity="1.00" d=" M 60.33 28.80 C 61.24 33.05 60.68 37.42 60.59 41.72 C 65.96 41.99 70.49 46.08 71.32 51.38 C 75.69 51.34 80.08 51.01 84.44 51.37 C 80.16 52.09 75.80 51.71 71.49 51.89 C 70.97 57.64 66.44 62.46 60.54 62.66 C 60.37 66.93 61.35 71.27 60.43 75.50 C 60.15 71.21 60.05 66.92 59.75 62.64 C 54.22 61.94 50.26 57.30 49.61 51.90 C 45.27 51.65 40.90 52.04 36.59 51.41 C 40.99 50.96 45.42 51.30 49.83 51.38 C 50.66 46.18 54.97 42.46 60.04 41.59 C 60.28 37.33 60.11 33.06 60.33 28.80 Z" />
</g>
</svg>
