<?xml version="1.0" encoding="UTF-8" ?>
<!DOCTYPE svg PUBLIC "-//W3C//DTD SVG 1.1//EN" "http://www.w3.org/Graphics/SVG/1.1/DTD/svg11.dtd">
<svg width="117pt" height="140pt" viewBox="0 0 117 140" version="1.1" xmlns="http://www.w3.org/2000/svg">
<g id="#000000ff">
<path fill="#000000" opacity="1.00" d=" M 0.00 0.00 L 117.00 0.00 L 117.00 140.00 L 0.00 140.00 L 0.00 0.00 M 33.17 10.22 C 17.94 11.78 5.21 25.59 5.02 40.91 C 4.98 60.29 4.98 79.67 5.02 99.04 C 5.15 115.38 19.66 129.88 36.00 129.97 C 51.69 129.99 67.38 130.09 83.06 129.92 C 98.98 129.28 112.83 115.02 112.97 99.08 C 113.02 79.73 113.02 60.37 112.98 41.02 C 112.80 28.22 104.00 16.20 91.97 11.94 C 84.63 9.07 76.64 10.22 68.97 10.00 C 57.04 10.15 45.09 9.70 33.17 10.22 Z" />
<path fill="#000000" opacity="1.00" d=" M 33.25 12.35 C 44.81 11.73 56.41 12.24 67.99 12.07 C 76.65 12.32 85.89 10.90 93.91 15.04 C 104.11 19.77 111.04 30.71 110.90 41.96 C 110.95 60.66 110.95 79.36 110.90 98.06 C 111.00 108.74 104.80 119.24 95.33 124.22 C 90.69 126.88 85.30 127.96 79.99 127.93 C 65.65 127.92 51.31 127.96 36.97 127.91 C 25.72 128.00 14.75 121.13 10.04 110.90 C 7.50 106.02 6.93 100.42 7.06 94.99 C 7.13 76.98 6.98 58.97 7.13 40.96 C 7.30 26.73 19.09 13.81 33.25 12.35 M 50.29 28.07 C 50.33 37.71 50.34 47.36 50.29 57.01 C 44.66 61.16 43.22 69.86 47.67 75.38 C 51.70 81.00 60.81 81.53 65.45 76.38 C 70.85 71.05 69.76 61.41 63.71 57.00 C 63.66 47.36 63.66 37.72 63.71 28.08 C 59.24 28.01 54.77 28.03 50.29 28.07 M 67.93 33.35 C 69.70 33.76 71.52 33.48 73.29 33.24 C 73.80 29.64 66.05 29.62 67.93 33.35 M 67.87 37.92 C 66.50 41.58 71.26 40.39 73.27 40.15 C 73.37 37.01 69.96 37.54 67.87 37.92 M 67.89 44.84 C 66.47 48.51 71.18 47.23 73.19 47.15 C 73.55 43.93 69.96 44.50 67.89 44.84 M 67.86 54.17 C 69.94 54.40 73.56 55.11 73.19 51.85 C 71.11 51.71 66.50 50.47 67.86 54.17 Z" />
<path fill="#000000" opacity="1.00" d=" M 52.95 30.77 C 55.65 30.77 58.36 30.77 61.07 30.77 C 61.01 40.06 60.85 49.35 61.06 58.63 C 66.18 61.45 68.13 68.72 64.40 73.42 C 61.08 78.46 52.88 78.44 49.58 73.39 C 45.89 68.72 47.80 61.47 52.90 58.69 C 53.14 49.39 52.89 40.08 52.95 30.77 M 55.65 46.75 C 55.69 51.32 55.67 55.89 55.70 60.45 C 54.02 61.42 52.06 62.27 51.19 64.14 C 48.99 67.73 51.04 72.90 55.03 74.14 C 59.42 75.82 64.28 71.40 63.68 66.91 C 63.52 63.80 60.98 61.59 58.30 60.46 C 58.33 55.89 58.31 51.32 58.34 46.75 C 57.67 46.75 56.33 46.75 55.65 46.75 Z" />
</g>
<g id="#717171ff">
<path fill="#717171" opacity="1.00" d=" M 33.17 10.22 C 45.09 9.70 57.04 10.15 68.97 10.00 C 76.64 10.22 84.63 9.07 91.97 11.94 C 104.00 16.20 112.80 28.22 112.98 41.02 C 113.02 60.37 113.02 79.73 112.97 99.08 C 112.83 115.02 98.98 129.28 83.06 129.92 C 67.38 130.09 51.69 129.99 36.00 129.97 C 19.66 129.88 5.15 115.38 5.02 99.04 C 4.98 79.67 4.98 60.29 5.02 40.91 C 5.21 25.59 17.94 11.78 33.17 10.22 M 33.25 12.35 C 19.09 13.81 7.30 26.73 7.13 40.96 C 6.98 58.97 7.13 76.98 7.06 94.99 C 6.93 100.42 7.50 106.02 10.04 110.90 C 14.75 121.13 25.72 128.00 36.97 127.91 C 51.31 127.96 65.65 127.92 79.99 127.93 C 85.30 127.96 90.69 126.88 95.33 124.22 C 104.80 119.24 111.00 108.74 110.90 98.06 C 110.95 79.36 110.95 60.66 110.90 41.96 C 111.04 30.71 104.11 19.77 93.91 15.04 C 85.89 10.90 76.65 12.32 67.99 12.07 C 56.41 12.24 44.81 11.73 33.25 12.35 Z" />
</g>
<g id="#f8fcf8ff">
<path fill="#f8fcf8" opacity="1.00" d=" M 50.29 28.07 C 54.77 28.03 59.24 28.01 63.71 28.08 C 63.66 37.72 63.66 47.36 63.71 57.00 C 69.76 61.41 70.85 71.05 65.45 76.38 C 60.81 81.53 51.70 81.00 47.67 75.38 C 43.22 69.86 44.66 61.16 50.29 57.01 C 50.34 47.36 50.33 37.71 50.29 28.07 M 52.95 30.77 C 52.89 40.08 53.14 49.39 52.90 58.69 C 47.80 61.47 45.89 68.72 49.58 73.39 C 52.88 78.44 61.08 78.46 64.40 73.42 C 68.13 68.72 66.18 61.45 61.06 58.63 C 60.85 49.35 61.01 40.06 61.07 30.77 C 58.36 30.77 55.65 30.77 52.95 30.77 Z" />
<path fill="#f8fcf8" opacity="1.00" d=" M 55.65 46.75 C 56.33 46.75 57.67 46.75 58.34 46.75 C 58.31 51.32 58.33 55.89 58.30 60.46 C 60.98 61.59 63.52 63.80 63.68 66.91 C 64.28 71.40 59.42 75.82 55.03 74.14 C 51.04 72.90 48.99 67.73 51.19 64.14 C 52.06 62.27 54.02 61.42 55.70 60.45 C 55.67 55.89 55.69 51.32 55.65 46.75 Z" />
</g>
<g id="#f1f4f1ff">
<path fill="#f1f4f1" opacity="1.00" d=" M 67.93 33.35 C 66.05 29.62 73.80 29.64 73.29 33.24 C 71.52 33.48 69.70 33.76 67.93 33.35 Z" />
</g>
<g id="#f2f5f2ff">
<path fill="#f2f5f2" opacity="1.00" d=" M 67.87 37.92 C 69.96 37.54 73.37 37.01 73.27 40.15 C 71.26 40.39 66.50 41.58 67.87 37.92 Z" />
</g>
<g id="#f2f6f2ff">
<path fill="#f2f6f2" opacity="1.00" d=" M 67.89 44.84 C 69.96 44.50 73.55 43.93 73.19 47.15 C 71.18 47.23 66.47 48.51 67.89 44.84 Z" />
<path fill="#f2f6f2" opacity="1.00" d=" M 67.86 54.17 C 66.50 50.47 71.11 51.71 73.19 51.85 C 73.56 55.11 69.94 54.40 67.86 54.17 Z" />
</g>
</svg>
