<?xml version="1.0" encoding="UTF-8" ?>
<!DOCTYPE svg PUBLIC "-//W3C//DTD SVG 1.1//EN" "http://www.w3.org/Graphics/SVG/1.1/DTD/svg11.dtd">
<svg width="117pt" height="92pt" viewBox="0 0 117 92" version="1.1" xmlns="http://www.w3.org/2000/svg">
<g id="#000000ff">
<path fill="#000000" opacity="1.00" d=" M 0.00 0.00 L 117.00 0.00 L 117.00 92.00 L 0.00 92.00 L 0.00 0.00 M 32.15 8.18 C 19.34 9.63 8.04 19.51 4.98 32.04 C 3.26 38.57 4.28 45.36 3.99 52.02 C 4.13 68.40 18.67 82.90 35.04 83.01 C 50.38 82.99 65.72 83.01 81.05 83.00 C 93.80 82.76 105.78 74.05 110.07 62.06 C 112.76 55.35 111.85 48.05 112.01 41.01 C 112.28 33.47 109.75 25.83 104.95 20.00 C 98.86 12.19 88.89 7.62 79.01 8.00 C 63.39 8.13 47.75 7.75 32.15 8.18 Z" />
<path fill="#000000" opacity="1.00" d=" M 32.14 10.27 C 47.73 9.65 63.37 10.17 78.98 10.00 C 89.82 9.59 100.63 15.56 105.95 25.04 C 111.12 33.07 109.92 42.90 109.97 51.95 C 109.86 67.20 96.35 80.76 81.10 80.96 C 65.37 81.02 49.63 81.04 33.90 80.95 C 19.06 80.14 6.23 66.93 6.01 52.05 C 6.25 45.10 5.18 37.96 7.32 31.21 C 10.63 20.21 20.70 11.62 32.14 10.27 M 58.80 27.71 C 51.55 34.61 45.42 42.31 38.39 49.39 C 37.96 51.28 37.01 53.22 37.87 55.15 L 38.92 55.37 C 53.98 55.23 69.12 55.71 84.14 55.13 C 84.94 53.22 84.10 51.30 83.67 49.43 C 76.95 42.68 71.06 35.40 64.25 28.71 C 63.10 26.97 60.40 26.17 58.80 27.71 Z" />
<path fill="#000000" opacity="1.00" d=" M 42.01 51.43 C 48.52 44.63 54.76 37.68 61.02 30.72 C 67.23 37.71 73.48 44.65 80.02 51.40 C 67.37 51.14 54.66 51.09 42.01 51.43 Z" />
</g>
<g id="#676b67ff">
<path fill="#676b67" opacity="1.00" d=" M 32.15 8.18 C 47.75 7.75 63.39 8.13 79.01 8.00 C 88.89 7.62 98.86 12.19 104.95 20.00 C 109.75 25.83 112.28 33.47 112.01 41.01 C 111.85 48.05 112.76 55.35 110.07 62.06 C 105.78 74.05 93.80 82.76 81.05 83.00 C 65.72 83.01 50.38 82.99 35.04 83.01 C 18.67 82.90 4.13 68.40 3.99 52.02 C 4.28 45.36 3.26 38.57 4.98 32.04 C 8.04 19.51 19.34 9.63 32.15 8.18 M 32.14 10.27 C 20.70 11.62 10.63 20.21 7.32 31.21 C 5.18 37.96 6.25 45.10 6.01 52.05 C 6.23 66.93 19.06 80.14 33.90 80.95 C 49.63 81.04 65.37 81.02 81.10 80.96 C 96.35 80.76 109.86 67.20 109.97 51.95 C 109.92 42.90 111.12 33.07 105.95 25.04 C 100.63 15.56 89.82 9.59 78.98 10.00 C 63.37 10.17 47.73 9.65 32.14 10.27 Z" />
</g>
<g id="#f8fcf8ff">
<path fill="#f8fcf8" opacity="1.00" d=" M 58.80 27.71 C 60.40 26.17 63.10 26.97 64.25 28.71 C 71.06 35.40 76.95 42.68 83.67 49.43 C 84.10 51.30 84.94 53.22 84.14 55.13 C 69.12 55.71 53.98 55.23 38.92 55.37 L 37.87 55.15 C 37.01 53.22 37.96 51.28 38.39 49.39 C 45.42 42.31 51.55 34.61 58.80 27.71 M 42.01 51.43 C 54.66 51.09 67.37 51.14 80.02 51.40 C 73.48 44.65 67.23 37.71 61.02 30.72 C 54.76 37.68 48.52 44.63 42.01 51.43 Z" />
</g>
</svg>
