<?xml version="1.0" encoding="UTF-8" ?>
<!DOCTYPE svg PUBLIC "-//W3C//DTD SVG 1.1//EN" "http://www.w3.org/Graphics/SVG/1.1/DTD/svg11.dtd">
<svg width="100px" height="100px" viewBox="0 0 100 100" version="1.1" xmlns="http://www.w3.org/2000/svg">
<g id="#407cc8ff">
<path fill="#407cc8" opacity="1.00" d=" M 0.00 0.00 L 100.00 0.00 L 100.00 100.00 L 0.00 100.00 L 0.00 0.00 M 29.32 19.70 C 29.39 20.07 29.52 20.82 29.59 21.19 C 32.27 22.79 34.96 24.38 37.75 25.79 C 38.53 29.06 36.27 31.64 34.94 34.39 C 34.19 34.41 32.69 34.45 31.94 34.47 C 29.11 32.83 26.45 30.60 23.11 30.12 C 23.87 36.57 30.53 42.34 37.11 39.75 C 40.00 42.54 43.02 45.24 45.61 48.31 C 45.58 48.91 45.50 50.12 45.47 50.72 C 44.08 50.25 42.75 49.00 41.19 49.39 C 39.27 50.28 37.84 51.91 36.34 53.34 C 31.20 58.60 25.97 63.76 20.78 68.96 C 19.61 70.10 18.83 71.55 18.06 72.98 C 20.61 75.82 23.30 78.54 26.19 81.05 C 29.80 79.66 32.19 76.55 34.87 73.93 C 39.45 69.09 44.56 64.73 48.76 59.55 C 50.50 57.70 49.28 55.26 48.37 53.35 C 48.97 53.43 50.16 53.60 50.76 53.69 C 54.29 57.03 57.25 60.92 60.65 64.39 C 59.73 69.91 62.11 75.40 66.78 78.47 C 70.20 78.72 73.64 78.75 77.05 78.33 C 75.04 75.76 71.80 74.82 69.22 72.98 C 68.32 72.30 66.86 71.52 67.40 70.14 C 68.28 67.80 69.88 65.81 70.86 63.51 C 75.50 62.83 78.11 68.63 82.63 67.44 C 81.56 63.87 79.32 60.84 76.34 58.63 C 73.82 58.24 71.11 56.91 68.74 58.52 C 64.50 54.57 59.77 50.68 57.03 45.52 C 61.93 41.28 66.21 36.38 70.91 31.93 C 72.75 30.17 75.37 29.72 77.66 28.78 C 78.65 26.51 79.70 24.26 80.85 22.06 C 79.44 20.59 77.99 19.09 76.11 18.21 C 74.44 19.28 72.44 19.77 70.84 20.95 C 68.96 23.21 68.98 26.59 66.64 28.56 C 62.12 33.09 57.68 37.70 53.04 42.09 C 50.23 39.36 47.53 36.51 44.67 33.82 C 44.42 30.56 45.55 26.66 43.03 24.04 C 41.75 22.52 40.41 21.00 38.69 19.97 C 35.68 18.88 32.43 19.52 29.32 19.70 Z" />
</g>
<g id="#f8fcf8ff">
<path fill="#f8fcf8" opacity="1.00" d=" M 29.32 19.70 C 32.43 19.52 35.68 18.88 38.69 19.97 C 40.41 21.00 41.75 22.52 43.03 24.04 C 45.55 26.66 44.42 30.56 44.67 33.82 C 47.53 36.51 50.23 39.36 53.04 42.09 C 57.68 37.70 62.12 33.09 66.64 28.56 C 68.98 26.59 68.96 23.21 70.84 20.95 C 72.44 19.77 74.44 19.28 76.11 18.21 C 77.99 19.09 79.44 20.59 80.85 22.06 C 79.70 24.26 78.65 26.51 77.66 28.78 C 75.37 29.72 72.75 30.17 70.91 31.93 C 66.21 36.38 61.93 41.28 57.03 45.52 C 59.77 50.68 64.50 54.57 68.74 58.52 C 71.11 56.91 73.82 58.24 76.34 58.63 C 79.32 60.84 81.56 63.87 82.63 67.44 C 78.11 68.63 75.50 62.83 70.86 63.51 C 69.88 65.81 68.28 67.80 67.40 70.14 C 66.86 71.52 68.32 72.30 69.22 72.98 C 71.80 74.82 75.04 75.76 77.05 78.33 C 73.64 78.75 70.20 78.72 66.78 78.47 C 62.11 75.40 59.73 69.91 60.65 64.39 C 57.25 60.92 54.29 57.03 50.76 53.69 C 50.16 53.60 48.97 53.43 48.37 53.35 C 49.28 55.26 50.50 57.70 48.76 59.55 C 44.56 64.73 39.45 69.09 34.87 73.93 C 32.19 76.55 29.80 79.66 26.19 81.05 C 23.30 78.54 20.61 75.82 18.06 72.98 C 18.83 71.55 19.61 70.10 20.78 68.96 C 25.97 63.76 31.20 58.60 36.34 53.34 C 37.84 51.91 39.27 50.28 41.19 49.39 C 42.75 49.00 44.08 50.25 45.47 50.72 C 45.50 50.12 45.58 48.91 45.61 48.31 C 43.02 45.24 40.00 42.54 37.11 39.75 C 30.53 42.34 23.87 36.57 23.11 30.12 C 26.45 30.60 29.11 32.83 31.94 34.47 C 32.69 34.45 34.19 34.41 34.94 34.39 C 36.27 31.64 38.53 29.06 37.75 25.79 C 34.96 24.38 32.27 22.79 29.59 21.19 C 29.52 20.82 29.39 20.07 29.32 19.70 Z" />
</g>
</svg>
