<?xml version="1.0" encoding="UTF-8" ?>
<!DOCTYPE svg PUBLIC "-//W3C//DTD SVG 1.1//EN" "http://www.w3.org/Graphics/SVG/1.1/DTD/svg11.dtd">
<svg width="117px" height="140px" viewBox="0 0 117 140" version="1.1" xmlns="http://www.w3.org/2000/svg">
<g id="#000000ff">
<path fill="#000000" opacity="1.00" d=" M 0.00 0.00 L 117.00 0.00 L 117.00 140.00 L 0.00 140.00 L 0.00 0.00 M 32.21 10.21 C 16.95 11.75 4.17 25.60 4.02 40.97 C 3.96 59.96 4.02 78.95 3.99 97.94 C 3.88 108.04 8.99 117.95 17.15 123.86 C 22.85 128.04 29.94 130.21 37.00 130.03 C 52.05 129.91 67.10 130.14 82.14 129.92 C 98.05 129.23 111.84 115.00 111.97 99.07 C 112.02 79.70 112.02 60.32 111.97 40.95 C 111.86 24.64 97.40 10.18 81.10 10.02 C 64.81 10.10 48.49 9.74 32.21 10.21 Z" />
<path fill="#000000" opacity="1.00" d=" M 32.26 12.24 C 48.51 11.72 64.79 12.09 81.05 12.04 C 96.28 12.19 109.84 25.71 109.96 40.95 C 110.04 59.98 109.99 79.01 109.99 98.05 C 110.19 109.59 102.82 120.69 92.32 125.34 C 87.87 127.48 82.88 128.11 77.99 128.00 C 63.30 127.93 48.60 128.12 33.91 127.91 C 19.07 127.22 6.18 113.92 6.03 99.06 C 5.98 79.69 5.98 60.31 6.03 40.94 C 6.22 26.65 18.07 13.76 32.26 12.24 M 35.16 42.00 C 35.17 50.67 35.17 59.33 35.16 68.00 C 38.05 68.00 40.95 68.00 43.84 68.00 C 43.83 64.98 43.84 61.97 43.83 58.95 C 46.00 59.17 49.14 58.37 50.40 60.70 C 51.15 63.06 50.64 65.58 51.11 67.99 C 54.06 67.98 57.02 67.99 59.97 68.05 C 57.99 65.17 59.69 61.54 58.48 58.45 C 57.70 57.17 56.35 56.37 55.24 55.39 C 58.85 54.39 59.39 50.18 58.78 47.05 C 58.10 44.04 54.86 42.59 52.05 42.29 C 46.44 41.80 40.79 42.06 35.16 42.00 M 62.58 49.16 C 62.93 54.41 61.77 59.87 63.35 64.96 C 65.75 69.77 72.78 69.17 76.24 65.85 C 76.22 66.39 76.17 67.46 76.14 68.00 C 78.56 68.00 80.99 68.00 83.42 68.00 C 83.42 61.72 83.42 55.44 83.42 49.16 C 80.81 49.17 78.19 49.17 75.58 49.16 C 75.48 53.53 75.95 57.93 75.08 62.25 C 73.67 62.44 72.26 62.52 70.84 62.51 C 70.06 58.10 70.54 53.61 70.42 49.16 C 67.80 49.17 65.19 49.17 62.58 49.16 Z" />
<path fill="#000000" opacity="1.00" d=" M 43.81 48.40 C 46.71 48.31 51.52 47.70 51.27 52.01 C 49.03 53.40 46.38 53.25 43.84 53.18 C 43.83 51.59 43.82 49.99 43.81 48.40 Z" />
</g>
<g id="#6a6e6aff">
<path fill="#6a6e6a" opacity="1.00" d=" M 32.21 10.21 C 48.49 9.74 64.81 10.10 81.10 10.02 C 97.40 10.18 111.86 24.64 111.97 40.95 C 112.02 60.32 112.02 79.70 111.97 99.07 C 111.84 115.00 98.05 129.23 82.14 129.92 C 67.10 130.14 52.05 129.91 37.00 130.03 C 29.94 130.21 22.85 128.04 17.15 123.86 C 8.99 117.95 3.88 108.04 3.99 97.94 C 4.02 78.95 3.96 59.96 4.02 40.97 C 4.17 25.60 16.95 11.75 32.21 10.21 M 32.26 12.24 C 18.07 13.76 6.22 26.65 6.03 40.94 C 5.98 60.31 5.98 79.69 6.03 99.06 C 6.18 113.92 19.07 127.22 33.91 127.91 C 48.60 128.12 63.30 127.93 77.99 128.00 C 82.88 128.11 87.87 127.48 92.32 125.34 C 102.82 120.69 110.19 109.59 109.99 98.05 C 109.99 79.01 110.04 59.98 109.96 40.95 C 109.84 25.71 96.28 12.19 81.05 12.04 C 64.79 12.09 48.51 11.72 32.26 12.24 Z" />
</g>
<g id="#f8fcf8ff">
<path fill="#f8fcf8" opacity="1.00" d=" M 35.16 42.00 C 40.79 42.06 46.44 41.80 52.05 42.29 C 54.86 42.59 58.10 44.04 58.78 47.05 C 59.39 50.18 58.85 54.39 55.24 55.39 C 56.35 56.37 57.70 57.17 58.48 58.45 C 59.69 61.54 57.99 65.17 59.97 68.05 C 57.02 67.99 54.06 67.98 51.11 67.99 C 50.64 65.58 51.15 63.06 50.40 60.70 C 49.14 58.37 46.00 59.17 43.83 58.95 C 43.84 61.97 43.83 64.98 43.84 68.00 C 40.95 68.00 38.05 68.00 35.16 68.00 C 35.17 59.33 35.17 50.67 35.16 42.00 M 43.81 48.40 C 43.82 49.99 43.83 51.59 43.84 53.18 C 46.38 53.25 49.03 53.40 51.27 52.01 C 51.52 47.70 46.71 48.31 43.81 48.40 Z" />
<path fill="#f8fcf8" opacity="1.00" d=" M 62.58 49.16 C 65.19 49.17 67.80 49.17 70.42 49.16 C 70.54 53.61 70.06 58.10 70.84 62.51 C 72.26 62.52 73.67 62.44 75.08 62.25 C 75.95 57.93 75.48 53.53 75.58 49.16 C 78.19 49.17 80.81 49.17 83.42 49.16 C 83.42 55.44 83.42 61.72 83.42 68.00 C 80.99 68.00 78.56 68.00 76.14 68.00 C 76.17 67.46 76.22 66.39 76.24 65.85 C 72.78 69.17 65.75 69.77 63.35 64.96 C 61.77 59.87 62.93 54.41 62.58 49.16 Z" />
</g>
</svg>
