<?xml version="1.0" encoding="UTF-8" ?>
<!DOCTYPE svg PUBLIC "-//W3C//DTD SVG 1.1//EN" "http://www.w3.org/Graphics/SVG/1.1/DTD/svg11.dtd">
<svg width="117pt" height="140pt" viewBox="0 0 117 140" version="1.1" xmlns="http://www.w3.org/2000/svg">
<g id="#000000ff">
<path fill="#000000" opacity="1.00" d=" M 0.00 0.00 L 117.00 0.00 L 117.00 140.00 L 0.00 140.00 L 0.00 0.00 M 33.16 10.22 C 17.91 11.79 5.18 25.63 5.02 40.98 C 4.99 60.31 4.99 79.65 5.01 98.98 C 5.14 114.99 19.00 129.30 34.99 129.93 C 51.02 130.04 67.06 130.06 83.09 129.93 C 99.38 129.26 113.38 114.35 113.00 98.04 C 113.00 79.35 113.00 60.67 113.01 41.98 C 113.06 33.37 109.38 24.84 103.14 18.92 C 97.05 12.98 88.49 9.75 80.00 9.98 C 64.39 10.17 48.76 9.70 33.16 10.22 Z" />
<path fill="#000000" opacity="1.00" d=" M 33.29 12.34 C 48.52 11.72 63.78 12.25 79.02 12.06 C 85.37 11.89 91.85 13.30 97.17 16.87 C 105.63 22.16 111.00 32.03 110.90 42.01 C 110.97 59.00 110.90 75.99 110.94 92.97 C 111.12 99.32 110.79 105.97 107.59 111.63 C 102.74 121.50 92.00 127.97 81.03 127.90 C 65.99 127.93 50.95 127.99 35.91 127.87 C 20.73 127.69 7.27 114.26 7.13 99.07 C 7.03 79.70 7.03 60.33 7.13 40.96 C 7.31 26.71 19.11 13.79 33.29 12.34 M 46.05 28.20 C 46.12 34.03 46.12 39.86 46.07 45.68 C 43.74 45.67 41.40 45.68 39.07 45.72 C 39.37 50.36 38.87 55.04 39.36 59.67 C 41.39 63.11 46.18 61.25 49.45 61.61 C 52.47 64.40 55.28 67.41 58.32 70.19 C 54.66 70.46 51.00 70.25 47.34 70.36 C 47.39 72.90 47.40 75.45 47.34 78.00 C 55.28 77.93 63.22 78.13 71.15 77.92 C 72.49 77.21 71.27 75.44 70.06 75.73 C 63.41 75.58 56.75 75.75 50.09 75.66 C 50.07 75.03 50.01 73.76 49.98 73.13 C 53.60 72.91 57.22 73.04 60.84 72.95 C 60.84 72.25 60.83 70.87 60.83 70.17 C 63.66 67.44 66.34 64.55 69.24 61.90 C 72.56 60.84 77.46 63.31 79.64 59.71 C 80.14 55.07 79.62 50.38 79.92 45.72 C 77.58 45.68 75.24 45.67 72.91 45.67 C 72.92 39.85 72.86 34.03 72.96 28.21 C 63.99 28.13 55.02 28.15 46.05 28.20 Z" />
<path fill="#000000" opacity="1.00" d=" M 48.76 31.06 C 55.93 30.99 63.09 30.93 70.25 31.04 C 70.22 36.79 70.37 42.53 70.14 48.27 C 72.41 48.32 74.67 48.33 76.93 48.32 C 76.95 51.85 76.91 55.38 76.96 58.91 C 65.32 59.11 53.68 59.00 42.05 58.93 C 42.07 55.40 42.08 51.87 42.03 48.35 C 48.76 48.27 55.49 48.34 62.22 48.32 C 62.22 47.66 62.22 46.34 62.22 45.68 C 57.71 45.66 53.19 45.72 48.68 45.64 C 48.72 43.86 48.74 42.08 48.78 40.30 C 53.26 40.34 57.74 40.32 62.22 40.32 C 62.22 39.66 62.22 38.34 62.22 37.68 C 57.71 37.66 53.20 37.72 48.69 37.65 C 48.73 35.45 48.75 33.25 48.76 31.06 Z" />
<path fill="#000000" opacity="1.00" d=" M 53.18 61.72 C 57.38 61.63 61.57 61.67 65.77 61.69 C 63.66 63.73 61.55 65.76 59.47 67.83 C 57.45 65.72 55.34 63.70 53.18 61.72 Z" />
</g>
<g id="#717171ff">
<path fill="#717171" opacity="1.00" d=" M 33.16 10.22 C 48.76 9.70 64.39 10.17 80.00 9.98 C 88.49 9.75 97.05 12.98 103.14 18.92 C 109.38 24.84 113.06 33.37 113.01 41.98 C 113.00 60.67 113.00 79.35 113.00 98.04 C 113.38 114.35 99.38 129.26 83.09 129.93 C 67.06 130.06 51.02 130.04 34.99 129.93 C 19.00 129.30 5.14 114.99 5.01 98.98 C 4.99 79.65 4.99 60.31 5.02 40.98 C 5.18 25.63 17.91 11.79 33.16 10.22 M 33.29 12.34 C 19.11 13.79 7.31 26.71 7.13 40.96 C 7.03 60.33 7.03 79.70 7.13 99.07 C 7.27 114.26 20.73 127.69 35.91 127.87 C 50.95 127.99 65.99 127.93 81.03 127.90 C 92.00 127.97 102.74 121.50 107.59 111.63 C 110.79 105.97 111.12 99.32 110.94 92.97 C 110.90 75.99 110.97 59.00 110.90 42.01 C 111.00 32.03 105.63 22.16 97.17 16.87 C 91.85 13.30 85.37 11.89 79.02 12.06 C 63.78 12.25 48.52 11.72 33.29 12.34 Z" />
</g>
<g id="#f8fcf8ff">
<path fill="#f8fcf8" opacity="1.00" d=" M 46.05 28.20 C 55.02 28.15 63.99 28.13 72.96 28.21 C 72.86 34.03 72.92 39.85 72.91 45.67 C 75.24 45.67 77.58 45.68 79.92 45.72 C 79.62 50.38 80.14 55.07 79.64 59.71 C 77.46 63.31 72.56 60.84 69.24 61.90 C 66.34 64.55 63.66 67.44 60.83 70.17 C 60.83 70.87 60.84 72.25 60.84 72.95 C 57.22 73.04 53.60 72.91 49.98 73.13 C 50.01 73.76 50.07 75.03 50.09 75.66 C 56.75 75.75 63.41 75.58 70.06 75.73 C 71.27 75.44 72.49 77.21 71.15 77.92 C 63.22 78.13 55.28 77.93 47.34 78.00 C 47.40 75.45 47.39 72.90 47.34 70.36 C 51.00 70.25 54.66 70.46 58.32 70.19 C 55.28 67.41 52.47 64.40 49.45 61.61 C 46.18 61.25 41.39 63.11 39.36 59.67 C 38.87 55.04 39.37 50.36 39.07 45.72 C 41.40 45.68 43.74 45.67 46.07 45.68 C 46.12 39.86 46.12 34.03 46.05 28.20 M 48.76 31.06 C 48.75 33.25 48.73 35.45 48.69 37.65 C 53.20 37.72 57.71 37.66 62.22 37.68 C 62.22 38.34 62.22 39.66 62.22 40.32 C 57.74 40.32 53.26 40.34 48.78 40.30 C 48.74 42.08 48.72 43.86 48.68 45.64 C 53.19 45.72 57.71 45.66 62.22 45.68 C 62.22 46.34 62.22 47.66 62.22 48.32 C 55.49 48.34 48.76 48.27 42.03 48.35 C 42.08 51.87 42.07 55.40 42.05 58.93 C 53.68 59.00 65.32 59.11 76.96 58.91 C 76.91 55.38 76.95 51.85 76.93 48.32 C 74.67 48.33 72.41 48.32 70.14 48.27 C 70.37 42.53 70.22 36.79 70.25 31.04 C 63.09 30.93 55.93 30.99 48.76 31.06 M 53.18 61.72 C 55.34 63.70 57.45 65.72 59.47 67.83 C 61.55 65.76 63.66 63.73 65.77 61.69 C 61.57 61.67 57.38 61.63 53.18 61.72 Z" />
</g>
</svg>
