<?xml version="1.0" encoding="UTF-8" ?>
<!DOCTYPE svg PUBLIC "-//W3C//DTD SVG 1.1//EN" "http://www.w3.org/Graphics/SVG/1.1/DTD/svg11.dtd">
<svg width="117px" height="140px" viewBox="0 0 117 140" version="1.1" xmlns="http://www.w3.org/2000/svg">
<g id="#000000ff">
<path fill="#000000" opacity="1.00" d=" M 0.00 0.00 L 117.00 0.00 L 117.00 140.00 L 0.00 140.00 L 0.00 0.00 M 32.09 10.23 C 19.63 11.62 8.62 21.04 5.25 33.10 C 3.64 38.26 4.01 43.71 3.99 49.03 C 4.07 66.04 3.88 83.06 4.07 100.07 C 4.73 115.66 18.37 129.27 33.96 129.94 C 49.30 130.10 64.65 129.96 79.99 130.00 C 90.06 130.08 99.99 125.02 105.86 116.85 C 110.08 111.17 112.18 104.06 112.02 97.00 C 111.92 77.98 112.13 58.95 111.92 39.92 C 111.28 23.98 97.00 10.17 81.05 10.02 C 64.73 10.11 48.39 9.71 32.09 10.23 Z" />
<path fill="#000000" opacity="1.00" d=" M 32.20 12.25 C 48.49 11.71 64.82 12.09 81.13 12.05 C 96.34 12.23 109.87 25.76 109.95 40.99 C 110.03 60.32 110.03 79.67 109.95 99.00 C 109.88 114.27 96.25 127.87 80.99 127.94 C 65.64 128.04 50.29 128.02 34.93 127.96 C 19.71 127.81 6.15 114.27 6.04 99.04 C 5.97 79.70 5.97 60.35 6.04 41.01 C 6.17 26.72 18.02 13.79 32.20 12.25 M 37.58 42.00 C 37.58 50.67 37.58 59.33 37.58 68.00 C 44.86 68.00 52.14 68.00 59.42 68.00 C 59.42 66.00 59.42 64.00 59.42 62.00 C 55.10 61.99 50.78 62.00 46.46 62.01 C 46.43 60.69 46.40 59.36 46.36 58.04 C 49.91 57.97 53.45 58.01 57.00 58.00 C 57.00 55.86 57.00 53.72 57.00 51.58 C 53.47 51.58 49.93 51.57 46.40 51.60 C 46.40 50.53 46.40 49.47 46.40 48.40 C 50.60 48.43 54.80 48.41 59.00 48.42 C 59.00 46.28 59.00 44.14 59.00 42.00 C 51.86 42.00 44.72 42.00 37.58 42.00 M 62.35 54.85 C 63.53 60.37 69.78 60.45 74.03 62.15 C 75.14 64.96 71.48 64.26 69.91 64.18 C 69.77 63.63 69.49 62.53 69.35 61.98 C 66.81 61.99 64.28 62.00 61.74 62.13 C 62.83 68.12 70.06 69.15 75.02 68.11 C 78.27 67.86 81.92 65.70 81.88 62.07 C 82.09 59.04 79.08 57.34 76.57 56.62 C 74.23 55.54 70.62 56.04 69.62 53.10 C 70.49 53.02 72.23 52.84 73.09 52.76 C 73.41 53.23 74.03 54.16 74.34 54.63 C 76.64 54.62 78.95 54.62 81.25 54.60 C 80.89 52.16 79.48 49.85 76.91 49.30 C 71.73 47.42 63.48 48.30 62.35 54.85 Z" />
</g>
<g id="#6a6e6aff">
<path fill="#6a6e6a" opacity="1.00" d=" M 32.09 10.23 C 48.39 9.71 64.73 10.11 81.05 10.02 C 97.00 10.17 111.28 23.98 111.92 39.92 C 112.13 58.95 111.92 77.98 112.02 97.00 C 112.18 104.06 110.08 111.17 105.86 116.85 C 99.99 125.02 90.06 130.08 79.99 130.00 C 64.65 129.96 49.30 130.10 33.96 129.94 C 18.37 129.27 4.73 115.66 4.07 100.07 C 3.88 83.06 4.07 66.04 3.99 49.03 C 4.01 43.71 3.64 38.26 5.25 33.10 C 8.62 21.04 19.63 11.62 32.09 10.23 M 32.20 12.25 C 18.02 13.79 6.17 26.72 6.04 41.01 C 5.97 60.35 5.97 79.70 6.04 99.04 C 6.15 114.27 19.71 127.81 34.93 127.96 C 50.29 128.02 65.64 128.04 80.99 127.94 C 96.25 127.87 109.88 114.27 109.95 99.00 C 110.03 79.67 110.03 60.32 109.95 40.99 C 109.87 25.76 96.34 12.23 81.13 12.05 C 64.82 12.09 48.49 11.71 32.20 12.25 Z" />
</g>
<g id="#f8fcf8ff">
<path fill="#f8fcf8" opacity="1.00" d=" M 37.58 42.00 C 44.72 42.00 51.86 42.00 59.00 42.00 C 59.00 44.14 59.00 46.28 59.00 48.42 C 54.80 48.41 50.60 48.43 46.40 48.40 C 46.40 49.47 46.40 50.53 46.40 51.60 C 49.93 51.57 53.47 51.58 57.00 51.58 C 57.00 53.72 57.00 55.86 57.00 58.00 C 53.45 58.01 49.91 57.97 46.36 58.04 C 46.40 59.36 46.43 60.69 46.46 62.01 C 50.78 62.00 55.10 61.99 59.42 62.00 C 59.42 64.00 59.42 66.00 59.42 68.00 C 52.14 68.00 44.86 68.00 37.58 68.00 C 37.58 59.33 37.58 50.67 37.58 42.00 Z" />
<path fill="#f8fcf8" opacity="1.00" d=" M 62.35 54.85 C 63.48 48.30 71.73 47.42 76.91 49.30 C 79.48 49.85 80.89 52.16 81.25 54.60 C 78.95 54.62 76.64 54.62 74.34 54.63 C 74.03 54.16 73.41 53.23 73.09 52.76 C 72.23 52.84 70.49 53.02 69.62 53.10 C 70.62 56.04 74.23 55.54 76.57 56.62 C 79.08 57.34 82.09 59.04 81.88 62.07 C 81.92 65.70 78.27 67.86 75.02 68.11 C 70.06 69.15 62.83 68.12 61.74 62.13 C 64.28 62.00 66.81 61.99 69.35 61.98 C 69.49 62.53 69.77 63.63 69.91 64.18 C 71.48 64.26 75.14 64.96 74.03 62.15 C 69.78 60.45 63.53 60.37 62.35 54.85 Z" />
</g>
</svg>
