<?xml version="1.0" encoding="UTF-8" ?>
<!DOCTYPE svg PUBLIC "-//W3C//DTD SVG 1.1//EN" "http://www.w3.org/Graphics/SVG/1.1/DTD/svg11.dtd">
<svg width="117px" height="140px" viewBox="0 0 117 140" version="1.1" xmlns="http://www.w3.org/2000/svg">
<g id="#000000ff">
<path fill="#000000" opacity="1.00" d=" M 0.00 0.00 L 117.00 0.00 L 117.00 140.00 L 0.00 140.00 L 0.00 0.00 M 33.14 10.23 C 17.91 11.79 5.19 25.63 5.02 40.96 C 4.96 59.97 5.02 78.99 4.99 98.00 C 4.93 106.89 8.86 115.67 15.44 121.62 C 21.49 127.23 29.77 130.25 38.01 130.02 C 53.04 129.92 68.07 130.13 83.09 129.92 C 99.02 129.26 112.85 114.99 112.97 99.04 C 113.02 79.66 113.02 60.28 112.97 40.90 C 112.83 24.60 98.36 10.18 82.07 10.02 C 65.77 10.11 49.43 9.71 33.14 10.23 Z" />
<path fill="#000000" opacity="1.00" d=" M 33.25 12.35 C 48.50 11.71 63.79 12.26 79.05 12.06 C 86.60 11.77 94.23 14.09 100.07 18.95 C 106.83 24.54 110.99 33.20 110.90 42.00 C 110.95 60.68 110.95 79.37 110.90 98.05 C 110.99 108.75 104.79 119.26 95.30 124.24 C 90.36 127.08 84.58 128.04 78.94 127.94 C 64.26 127.84 49.58 128.09 34.91 127.81 C 20.12 127.14 7.30 113.93 7.13 99.11 C 7.03 79.72 7.03 60.32 7.13 40.93 C 7.33 26.71 19.10 13.81 33.25 12.35 M 49.04 15.31 C 48.99 17.30 48.96 19.28 48.94 21.27 C 51.76 21.33 54.58 21.32 57.39 21.38 C 57.31 21.81 57.13 22.67 57.04 23.10 C 54.37 23.10 51.71 23.10 49.05 23.11 C 49.00 24.60 48.93 26.09 48.89 27.58 C 44.26 27.46 39.63 27.52 35.00 27.52 L 35.00 29.00 C 39.66 29.00 44.33 28.99 48.99 29.01 C 48.98 29.70 48.95 31.06 48.94 31.75 C 44.29 31.73 39.65 31.74 35.00 31.74 L 35.00 33.45 C 39.65 33.45 44.31 33.46 48.96 33.43 C 48.96 36.79 48.94 40.15 49.04 43.51 C 51.75 43.52 54.46 43.52 57.17 43.52 C 57.16 45.57 57.15 47.62 57.15 49.67 C 57.63 49.95 58.59 50.51 59.07 50.80 C 58.75 53.60 59.46 56.31 60.21 58.98 C 60.52 63.84 60.20 68.71 60.36 73.57 C 59.81 73.60 58.71 73.65 58.16 73.68 C 58.42 68.11 57.71 62.48 58.70 56.96 C 55.29 57.87 51.29 57.97 48.81 60.83 C 45.89 63.68 45.76 68.00 44.98 71.74 C 43.03 78.22 41.79 84.89 39.39 91.23 C 42.88 93.45 46.14 96.18 49.94 97.83 C 56.29 97.97 62.69 98.13 69.04 97.74 C 72.53 95.98 75.61 93.49 79.00 91.53 C 76.76 82.60 73.80 73.82 72.17 64.77 C 70.95 60.05 66.17 57.88 61.71 57.43 C 60.85 55.41 60.28 53.29 60.71 51.09 C 61.37 50.72 62.69 49.99 63.35 49.62 C 63.33 47.57 63.32 45.52 63.29 43.47 C 66.07 43.53 68.85 43.54 71.63 43.46 C 71.69 40.12 71.69 36.77 71.64 33.43 C 75.76 33.47 79.89 33.43 84.01 33.47 C 83.99 33.03 83.95 32.13 83.92 31.69 C 79.82 31.78 75.72 31.73 71.61 31.74 C 71.63 31.06 71.68 29.68 71.70 29.00 C 75.93 28.98 80.15 29.05 84.38 28.95 C 84.19 28.61 83.81 27.93 83.62 27.59 C 79.63 27.36 75.63 27.57 71.63 27.54 C 71.65 26.07 71.66 24.61 71.66 23.15 C 68.97 23.09 66.27 23.09 63.58 23.15 C 63.44 22.70 63.16 21.78 63.02 21.32 C 65.91 21.36 68.81 21.39 71.70 21.11 C 71.68 19.19 71.66 17.26 71.62 15.33 C 64.10 15.26 56.57 15.29 49.04 15.31 M 14.47 103.01 C 14.49 105.98 14.50 108.95 14.46 111.92 C 14.89 111.92 15.74 111.91 16.17 111.90 C 16.17 111.21 16.15 109.83 16.14 109.13 C 17.34 108.99 18.54 108.80 19.72 108.56 C 20.94 107.10 20.86 104.89 19.74 103.40 C 18.01 103.01 16.23 103.06 14.47 103.01 M 21.48 102.98 C 21.49 106.00 21.49 109.02 21.49 112.04 C 21.90 111.98 22.74 111.87 23.15 111.81 C 23.19 110.99 23.25 109.34 23.29 108.52 C 25.22 109.29 25.52 112.11 27.83 112.15 C 26.89 110.38 26.02 108.53 27.62 106.95 C 27.46 105.74 27.52 104.39 26.71 103.39 C 24.99 103.01 23.22 103.06 21.48 102.98 M 28.46 103.08 C 28.49 106.03 28.49 108.99 28.46 111.94 C 30.75 111.92 33.05 111.99 35.33 111.69 C 33.69 110.99 31.90 110.97 30.14 110.89 C 30.14 110.22 30.12 108.88 30.11 108.20 C 31.58 108.00 33.06 107.81 34.49 107.40 C 33.47 107.27 31.43 107.02 30.41 106.89 C 27.85 103.33 33.21 104.14 35.26 103.54 C 33.08 102.74 30.73 103.14 28.46 103.08 M 37.36 103.45 C 34.77 105.09 34.77 109.12 37.32 110.80 C 38.79 112.26 40.93 111.56 42.68 111.15 C 43.23 111.42 44.34 111.96 44.90 112.23 C 44.89 110.80 44.87 109.38 44.86 107.96 C 45.75 107.94 47.52 107.90 48.40 107.88 C 48.39 109.24 48.38 110.59 48.37 111.95 C 48.74 111.97 49.50 112.00 49.87 112.02 C 49.87 109.01 49.87 106.00 49.87 102.98 C 49.50 103.00 48.75 103.03 48.37 103.04 C 48.38 104.36 48.39 105.68 48.40 107.01 C 47.51 107.02 45.74 107.05 44.86 107.06 C 44.86 105.70 44.87 104.34 44.87 102.98 C 44.50 103.00 43.75 103.03 43.37 103.04 C 43.38 105.62 43.38 108.21 43.48 110.79 C 40.73 110.40 37.83 109.91 36.45 107.18 C 37.57 105.13 39.40 103.76 41.82 104.21 C 41.84 103.93 41.88 103.35 41.90 103.06 C 40.39 103.15 38.82 102.99 37.36 103.45 M 51.32 112.18 C 53.99 110.72 57.01 110.78 59.69 112.17 C 58.29 109.07 56.99 105.92 55.58 102.82 C 53.99 105.86 52.73 109.06 51.32 112.18 M 60.36 103.06 C 60.43 105.99 59.95 109.12 61.50 111.79 C 63.13 111.80 64.77 111.78 66.40 111.70 C 67.73 109.00 67.48 105.97 67.49 103.05 L 65.70 103.11 C 65.16 105.62 67.36 111.14 63.27 110.92 C 60.81 109.18 62.23 105.54 61.86 102.98 C 61.49 103.00 60.74 103.04 60.36 103.06 M 68.46 103.09 C 68.49 106.18 68.46 109.28 68.55 112.38 C 70.91 112.08 70.00 109.92 69.86 108.35 C 71.40 108.13 72.94 107.87 74.47 107.58 C 72.70 106.90 69.11 107.69 69.75 104.62 C 71.55 103.77 73.63 103.86 75.55 103.38 C 75.47 106.22 75.48 109.07 75.45 111.92 C 75.88 111.91 76.74 111.91 77.17 111.90 C 77.16 110.63 77.16 109.36 77.16 108.09 C 78.62 107.92 80.09 107.75 81.50 107.30 C 80.05 107.09 78.59 106.95 77.13 106.88 C 77.14 106.17 77.16 104.75 77.17 104.04 C 78.88 103.97 80.60 103.90 82.31 103.67 C 77.84 102.37 73.05 103.37 68.46 103.09 M 86.43 102.83 C 85.02 105.93 83.73 109.08 82.31 112.17 C 84.99 110.74 88.01 110.75 90.69 112.18 C 89.29 109.06 88.05 105.85 86.43 102.83 M 91.51 108.56 C 92.12 112.01 95.92 112.11 98.69 111.85 C 98.79 110.57 98.90 109.30 99.00 108.03 C 97.44 108.08 95.89 108.12 94.34 108.24 C 95.94 107.96 99.38 111.13 96.03 110.95 C 92.81 110.77 93.06 106.90 93.74 104.67 C 95.59 104.36 97.47 104.43 99.35 104.51 C 96.86 100.81 90.06 104.11 91.51 108.56 M 99.47 103.07 C 99.50 106.02 99.49 108.98 99.46 111.93 C 101.75 111.92 104.05 112.00 106.33 111.73 C 104.68 111.03 102.90 110.97 101.14 110.88 C 101.14 110.22 101.12 108.88 101.11 108.21 C 102.59 108.01 104.09 107.82 105.49 107.27 C 104.39 107.21 102.21 107.08 101.11 107.02 C 101.06 106.38 100.97 105.11 100.92 104.47 C 102.70 104.01 104.54 103.83 106.31 103.30 C 104.04 102.93 101.75 103.08 99.47 103.07 M 42.47 115.01 C 42.49 117.97 42.50 120.94 42.45 123.90 C 42.88 123.91 43.74 123.91 44.17 123.92 C 44.16 123.22 44.15 121.83 44.14 121.14 C 45.36 120.99 46.56 120.80 47.76 120.54 C 48.92 119.05 48.86 116.86 47.71 115.38 C 45.99 115.02 44.22 115.06 42.47 115.01 M 49.46 115.07 C 49.49 118.02 49.49 120.98 49.46 123.93 C 51.75 123.89 54.14 124.24 56.31 123.30 C 54.60 123.07 52.88 123.00 51.16 122.94 C 51.15 122.25 51.12 120.88 51.11 120.20 C 52.57 120.01 54.03 119.85 55.45 119.46 C 53.45 118.96 50.41 119.68 50.65 116.60 C 53.31 115.48 56.33 115.77 59.14 116.05 C 59.13 118.70 59.13 121.35 59.13 124.01 C 59.50 124.00 60.25 123.99 60.62 123.99 C 60.61 121.33 60.61 118.68 60.61 116.03 C 61.21 115.98 62.40 115.90 63.00 115.85 L 63.03 115.02 C 58.50 115.18 53.98 115.10 49.46 115.07 M 66.53 115.53 C 64.22 117.02 63.63 120.55 65.57 122.59 C 67.07 124.47 69.68 123.69 71.75 123.79 C 71.82 122.55 71.89 121.32 71.96 120.08 C 70.43 120.05 68.91 120.01 67.38 119.98 C 68.22 120.94 71.92 121.25 69.99 122.99 C 67.01 123.61 65.27 119.92 66.70 117.60 C 67.51 115.54 70.15 116.48 71.77 116.75 C 71.77 116.35 71.79 115.55 71.79 115.14 C 70.04 115.22 68.19 114.86 66.53 115.53 Z" />
<path fill="#000000" opacity="1.00" d=" M 58.99 21.32 C 59.94 19.86 62.53 21.37 61.38 22.85 C 60.43 24.33 57.76 22.83 58.99 21.32 Z" />
<path fill="#000000" opacity="1.00" d=" M 50.47 24.71 C 57.02 24.77 63.56 24.72 70.10 24.74 C 70.09 30.49 70.10 36.25 70.10 42.00 C 63.56 42.00 57.02 42.00 50.49 42.00 C 50.48 36.24 50.50 30.47 50.47 24.71 Z" />
<path fill="#000000" opacity="1.00" d=" M 59.05 43.41 C 59.60 43.44 60.71 43.52 61.27 43.56 C 61.24 45.38 61.21 47.21 61.17 49.03 C 58.04 49.00 59.15 45.48 59.05 43.41 Z" />
<path fill="#000000" opacity="1.00" d=" M 50.00 62.04 C 51.61 60.17 54.18 59.81 56.42 59.18 C 56.42 62.20 56.41 65.22 56.43 68.24 C 53.20 68.17 49.99 68.56 46.96 69.72 C 47.70 67.09 47.96 64.07 50.00 62.04 Z" />
<path fill="#000000" opacity="1.00" d=" M 61.96 59.29 C 63.94 59.68 66.06 59.92 67.70 61.21 C 70.36 63.14 70.94 66.63 71.64 69.62 C 68.52 68.56 65.25 68.18 61.97 68.23 C 61.96 65.25 61.96 62.27 61.96 59.29 Z" />
<path fill="#000000" opacity="1.00" d=" M 45.56 73.66 C 47.94 70.00 52.52 69.97 56.39 69.78 C 56.41 70.70 56.45 72.52 56.46 73.43 C 52.86 72.39 49.08 72.05 45.56 73.66 Z" />
<path fill="#000000" opacity="1.00" d=" M 61.97 69.83 C 65.93 69.83 70.47 70.10 73.00 73.62 C 69.42 72.17 65.61 72.37 61.95 73.42 C 61.95 72.52 61.97 70.73 61.97 69.83 Z" />
<path fill="#000000" opacity="1.00" d=" M 47.39 75.22 C 49.92 73.21 53.08 74.58 55.87 75.08 C 59.90 76.16 63.99 74.85 67.91 73.90 C 71.87 74.23 73.06 78.09 74.16 81.27 C 71.93 84.65 70.37 88.42 69.48 92.37 C 66.93 90.93 64.92 88.76 62.88 86.69 C 62.64 84.69 61.53 81.81 59.02 82.24 C 56.57 82.17 56.14 84.90 55.76 86.73 C 53.55 88.75 51.32 90.76 49.19 92.87 C 48.40 88.70 46.67 84.79 44.47 81.19 C 45.37 79.18 45.85 76.86 47.39 75.22 M 50.38 76.34 C 48.88 77.45 48.83 79.48 49.04 81.17 C 50.90 82.86 53.63 83.00 55.98 82.51 C 58.82 81.87 57.80 78.51 57.89 76.41 C 55.58 75.49 52.46 74.31 50.38 76.34 M 61.28 76.33 C 59.28 78.16 60.30 82.27 63.12 82.62 C 65.01 82.82 67.11 82.87 68.76 81.77 C 70.54 80.90 69.86 78.43 68.95 77.14 C 67.37 74.54 63.52 74.83 61.28 76.33 Z" />
<path fill="#000000" opacity="1.00" d=" M 57.54 87.23 C 57.79 85.86 58.27 84.55 58.88 83.30 C 59.99 84.25 61.61 85.13 60.88 86.88 C 60.05 86.96 58.38 87.14 57.54 87.23 Z" />
<path fill="#000000" opacity="1.00" d=" M 70.56 94.82 C 71.52 90.83 72.84 86.92 74.82 83.31 C 75.60 85.77 76.39 88.22 77.21 90.67 C 74.96 91.99 72.77 93.44 70.56 94.82 Z" />
<path fill="#000000" opacity="1.00" d=" M 41.46 90.67 C 42.13 88.27 42.91 85.90 43.86 83.60 C 45.89 87.11 47.19 90.97 47.93 94.94 C 45.83 93.44 43.67 92.01 41.46 90.67 Z" />
<path fill="#000000" opacity="1.00" d=" M 49.96 94.34 C 51.59 93.86 52.14 94.42 51.63 96.04 C 49.99 96.52 49.44 95.96 49.96 94.34 Z" />
<path fill="#000000" opacity="1.00" d=" M 66.98 94.37 C 68.59 93.85 69.16 94.40 68.68 96.03 C 67.06 96.55 66.49 95.99 66.98 94.37 Z" />
<path fill="#000000" opacity="1.00" d=" M 16.18 103.67 C 17.12 104.29 19.27 104.31 18.94 105.94 C 19.42 107.64 17.18 107.78 16.20 108.41 C 16.17 106.83 16.17 105.25 16.18 103.67 Z" />
<path fill="#000000" opacity="1.00" d=" M 23.18 103.68 C 24.46 104.14 25.84 104.60 26.37 106.01 C 25.90 107.47 24.49 107.87 23.20 108.31 C 23.17 106.76 23.17 105.22 23.18 103.68 Z" />
<path fill="#000000" opacity="1.00" d=" M 54.76 107.81 C 55.89 106.35 57.21 108.97 56.43 109.93 C 55.10 111.20 53.65 108.94 54.76 107.81 Z" />
<path fill="#000000" opacity="1.00" d=" M 85.77 107.81 C 86.91 106.34 88.20 108.97 87.43 109.94 C 86.09 111.23 84.66 108.93 85.77 107.81 Z" />
<path fill="#000000" opacity="1.00" d=" M 44.18 115.68 C 45.46 116.14 46.85 116.59 47.37 118.00 C 46.87 119.43 45.46 119.89 44.20 120.42 C 44.17 118.84 44.17 117.26 44.18 115.68 Z" />
</g>
<g id="#717171ff">
<path fill="#717171" opacity="1.00" d=" M 33.14 10.23 C 49.43 9.71 65.77 10.11 82.07 10.02 C 98.36 10.18 112.83 24.60 112.97 40.90 C 113.02 60.28 113.02 79.66 112.97 99.04 C 112.85 114.99 99.02 129.26 83.09 129.92 C 68.07 130.13 53.04 129.92 38.01 130.02 C 29.77 130.25 21.49 127.23 15.44 121.62 C 8.86 115.67 4.93 106.89 4.99 98.00 C 5.02 78.99 4.96 59.97 5.02 40.96 C 5.19 25.63 17.91 11.79 33.14 10.23 M 33.25 12.35 C 19.10 13.81 7.33 26.71 7.13 40.93 C 7.03 60.32 7.03 79.72 7.13 99.11 C 7.30 113.93 20.12 127.14 34.91 127.81 C 49.58 128.09 64.26 127.84 78.94 127.94 C 84.58 128.04 90.36 127.08 95.30 124.24 C 104.79 119.26 110.99 108.75 110.90 98.05 C 110.95 79.37 110.95 60.68 110.90 42.00 C 110.99 33.20 106.83 24.54 100.07 18.95 C 94.23 14.09 86.60 11.77 79.05 12.06 C 63.79 12.26 48.50 11.71 33.25 12.35 Z" />
</g>
<g id="#f8fcf8ff">
<path fill="#f8fcf8" opacity="1.00" d=" M 49.04 15.31 C 56.57 15.29 64.10 15.26 71.62 15.33 C 71.66 17.26 71.68 19.19 71.70 21.11 C 68.81 21.39 65.91 21.36 63.02 21.32 C 63.16 21.78 63.44 22.70 63.58 23.15 C 66.27 23.09 68.97 23.09 71.66 23.15 C 71.66 24.61 71.65 26.07 71.63 27.54 C 75.63 27.57 79.63 27.36 83.62 27.59 C 83.81 27.93 84.19 28.61 84.38 28.95 C 80.15 29.05 75.93 28.98 71.70 29.00 C 71.68 29.68 71.63 31.06 71.61 31.74 C 75.72 31.73 79.82 31.78 83.92 31.69 C 83.95 32.13 83.99 33.03 84.01 33.47 C 79.89 33.43 75.76 33.47 71.64 33.43 C 71.69 36.77 71.69 40.12 71.63 43.46 C 68.85 43.54 66.07 43.53 63.29 43.47 C 63.32 45.52 63.33 47.57 63.35 49.62 C 62.69 49.99 61.37 50.72 60.71 51.09 C 60.28 53.29 60.85 55.41 61.71 57.43 C 66.17 57.88 70.95 60.05 72.17 64.77 C 73.80 73.82 76.76 82.60 79.00 91.53 C 75.61 93.49 72.53 95.98 69.04 97.74 C 62.69 98.13 56.29 97.97 49.94 97.83 C 46.14 96.18 42.88 93.45 39.39 91.23 C 41.79 84.89 43.03 78.22 44.98 71.74 C 45.76 68.00 45.89 63.68 48.81 60.83 C 51.29 57.97 55.29 57.87 58.70 56.96 C 57.71 62.48 58.42 68.11 58.16 73.68 C 58.71 73.65 59.81 73.60 60.36 73.57 C 60.20 68.71 60.52 63.84 60.21 58.98 C 59.46 56.31 58.75 53.60 59.07 50.80 C 58.59 50.51 57.63 49.95 57.15 49.67 C 57.15 47.62 57.16 45.57 57.17 43.52 C 54.46 43.52 51.75 43.52 49.04 43.51 C 48.94 40.15 48.96 36.79 48.96 33.43 C 44.31 33.46 39.65 33.45 35.00 33.45 L 35.00 31.74 C 39.65 31.74 44.29 31.73 48.94 31.75 C 48.95 31.06 48.98 29.70 48.99 29.01 C 44.33 28.99 39.66 29.00 35.00 29.00 L 35.00 27.52 C 39.63 27.52 44.26 27.46 48.89 27.58 C 48.93 26.09 49.00 24.60 49.05 23.11 C 51.71 23.10 54.37 23.10 57.04 23.10 C 57.13 22.67 57.31 21.81 57.39 21.38 C 54.58 21.32 51.76 21.33 48.94 21.27 C 48.96 19.28 48.99 17.30 49.04 15.31 M 50.38 16.93 C 50.38 17.62 50.36 18.99 50.35 19.67 C 56.92 19.63 63.49 19.63 70.06 19.67 C 70.07 18.98 70.09 17.60 70.10 16.91 C 63.53 16.92 56.96 16.89 50.38 16.93 M 58.99 21.32 C 57.76 22.83 60.43 24.33 61.38 22.85 C 62.53 21.37 59.94 19.86 58.99 21.32 M 50.47 24.71 C 50.50 30.47 50.48 36.24 50.49 42.00 C 57.02 42.00 63.56 42.00 70.10 42.00 C 70.10 36.25 70.09 30.49 70.10 24.74 C 63.56 24.72 57.02 24.77 50.47 24.71 M 59.05 43.41 C 59.15 45.48 58.04 49.00 61.17 49.03 C 61.21 47.21 61.24 45.38 61.27 43.56 C 60.71 43.52 59.60 43.44 59.05 43.41 M 50.00 62.04 C 47.96 64.07 47.70 67.09 46.96 69.72 C 49.99 68.56 53.20 68.17 56.43 68.24 C 56.41 65.22 56.42 62.20 56.42 59.18 C 54.18 59.81 51.61 60.17 50.00 62.04 M 61.96 59.29 C 61.96 62.27 61.96 65.25 61.97 68.23 C 65.25 68.18 68.52 68.56 71.64 69.62 C 70.94 66.63 70.36 63.14 67.70 61.21 C 66.06 59.92 63.94 59.68 61.96 59.29 M 45.56 73.66 C 49.08 72.05 52.86 72.39 56.46 73.43 C 56.45 72.52 56.41 70.70 56.39 69.78 C 52.52 69.97 47.94 70.00 45.56 73.66 M 61.97 69.83 C 61.97 70.73 61.95 72.52 61.95 73.42 C 65.61 72.37 69.42 72.17 73.00 73.62 C 70.47 70.10 65.93 69.83 61.97 69.83 M 47.39 75.22 C 45.85 76.86 45.37 79.18 44.47 81.19 C 46.67 84.79 48.40 88.70 49.19 92.87 C 51.32 90.76 53.55 88.75 55.76 86.73 C 56.14 84.90 56.57 82.17 59.02 82.24 C 61.53 81.81 62.64 84.69 62.88 86.69 C 64.92 88.76 66.93 90.93 69.48 92.37 C 70.37 88.42 71.93 84.65 74.16 81.27 C 73.06 78.09 71.87 74.23 67.91 73.90 C 63.99 74.85 59.90 76.16 55.87 75.08 C 53.08 74.58 49.92 73.21 47.39 75.22 M 57.54 87.23 C 58.38 87.14 60.05 86.96 60.88 86.88 C 61.61 85.13 59.99 84.25 58.88 83.30 C 58.27 84.55 57.79 85.86 57.54 87.23 M 70.56 94.82 C 72.77 93.44 74.96 91.99 77.21 90.67 C 76.39 88.22 75.60 85.77 74.82 83.31 C 72.84 86.92 71.52 90.83 70.56 94.82 M 41.46 90.67 C 43.67 92.01 45.83 93.44 47.93 94.94 C 47.19 90.97 45.89 87.11 43.86 83.60 C 42.91 85.90 42.13 88.27 41.46 90.67 M 52.07 92.32 C 52.86 93.71 53.60 95.13 53.90 96.73 C 54.42 96.12 54.93 95.50 55.43 94.87 C 55.46 93.40 54.69 91.33 56.54 90.66 C 56.69 92.83 56.54 95.18 57.90 97.04 C 58.11 96.47 58.52 95.32 58.73 94.75 L 58.50 94.13 C 58.44 93.14 58.34 91.16 58.28 90.18 L 59.84 90.00 C 58.79 89.32 57.73 88.67 56.66 88.04 C 55.16 89.50 53.63 90.92 52.07 92.32 M 60.02 95.06 C 60.20 96.55 61.90 95.69 62.76 95.48 C 61.22 94.14 61.40 91.58 63.16 90.51 C 63.55 92.69 63.22 94.86 62.67 96.98 C 65.19 96.65 65.40 94.00 66.54 92.31 C 64.54 90.75 62.90 88.29 60.13 88.16 C 60.01 90.45 59.82 92.76 60.02 95.06 M 49.96 94.34 C 49.44 95.96 49.99 96.52 51.63 96.04 C 52.14 94.42 51.59 93.86 49.96 94.34 M 66.98 94.37 C 66.49 95.99 67.06 96.55 68.68 96.03 C 69.16 94.40 68.59 93.85 66.98 94.37 Z" />
<path fill="#f8fcf8" opacity="1.00" d=" M 50.38 76.34 C 52.46 74.31 55.58 75.49 57.89 76.41 C 57.80 78.51 58.82 81.87 55.98 82.51 C 53.63 83.00 50.90 82.86 49.04 81.17 C 48.83 79.48 48.88 77.45 50.38 76.34 M 52.03 76.97 C 51.01 77.88 50.61 79.21 50.13 80.44 C 52.05 80.81 54.06 81.46 56.00 80.80 C 56.36 79.72 56.53 78.59 56.75 77.48 C 55.20 77.17 53.63 76.75 52.03 76.97 Z" />
<path fill="#f8fcf8" opacity="1.00" d=" M 61.28 76.33 C 63.52 74.83 67.37 74.54 68.95 77.14 C 69.86 78.43 70.54 80.90 68.76 81.77 C 67.11 82.87 65.01 82.82 63.12 82.62 C 60.30 82.27 59.28 78.16 61.28 76.33 M 62.49 77.51 C 59.46 81.29 67.77 82.83 68.23 79.21 C 67.60 76.74 64.31 76.16 62.49 77.51 Z" />
<path fill="#f8fcf8" opacity="1.00" d=" M 14.47 103.01 C 16.23 103.06 18.01 103.01 19.74 103.40 C 20.86 104.89 20.94 107.10 19.72 108.56 C 18.54 108.80 17.34 108.99 16.14 109.13 C 16.15 109.83 16.17 111.21 16.17 111.90 C 15.74 111.91 14.89 111.92 14.46 111.92 C 14.50 108.95 14.49 105.98 14.47 103.01 M 16.18 103.67 C 16.17 105.25 16.17 106.83 16.20 108.41 C 17.18 107.78 19.42 107.64 18.94 105.94 C 19.27 104.31 17.12 104.29 16.18 103.67 Z" />
<path fill="#f8fcf8" opacity="1.00" d=" M 21.48 102.98 C 23.22 103.06 24.99 103.01 26.71 103.39 C 27.52 104.39 27.46 105.74 27.62 106.95 C 26.02 108.53 26.89 110.38 27.83 112.15 C 25.52 112.11 25.22 109.29 23.29 108.52 C 23.25 109.34 23.19 110.99 23.15 111.81 C 22.74 111.87 21.90 111.98 21.49 112.04 C 21.49 109.02 21.49 106.00 21.48 102.98 M 23.18 103.68 C 23.17 105.22 23.17 106.76 23.20 108.31 C 24.49 107.87 25.90 107.47 26.37 106.01 C 25.84 104.60 24.46 104.14 23.18 103.68 Z" />
<path fill="#f8fcf8" opacity="1.00" d=" M 28.46 103.08 C 30.73 103.14 33.08 102.74 35.26 103.54 C 33.21 104.14 27.85 103.33 30.41 106.89 C 31.43 107.02 33.47 107.27 34.49 107.40 C 33.06 107.81 31.58 108.00 30.11 108.20 C 30.12 108.88 30.14 110.22 30.14 110.89 C 31.90 110.97 33.69 110.99 35.33 111.69 C 33.05 111.99 30.75 111.92 28.46 111.94 C 28.49 108.99 28.49 106.03 28.46 103.08 Z" />
<path fill="#f8fcf8" opacity="1.00" d=" M 37.36 103.45 C 38.82 102.99 40.39 103.15 41.90 103.06 C 41.88 103.35 41.84 103.93 41.82 104.21 C 39.40 103.76 37.57 105.13 36.45 107.18 C 37.83 109.91 40.73 110.40 43.48 110.79 C 43.38 108.21 43.38 105.62 43.37 103.04 C 43.75 103.03 44.50 103.00 44.87 102.98 C 44.87 104.34 44.86 105.70 44.86 107.06 C 45.74 107.05 47.51 107.02 48.40 107.01 C 48.39 105.68 48.38 104.36 48.37 103.04 C 48.75 103.03 49.50 103.00 49.87 102.98 C 49.87 106.00 49.87 109.01 49.87 112.02 C 49.50 112.00 48.74 111.97 48.37 111.95 C 48.38 110.59 48.39 109.24 48.40 107.88 C 47.52 107.90 45.75 107.94 44.86 107.96 C 44.87 109.38 44.89 110.80 44.90 112.23 C 44.34 111.96 43.23 111.42 42.68 111.15 C 40.93 111.56 38.79 112.26 37.32 110.80 C 34.77 109.12 34.77 105.09 37.36 103.45 Z" />
<path fill="#f8fcf8" opacity="1.00" d=" M 51.32 112.18 C 52.73 109.06 53.99 105.86 55.58 102.82 C 56.99 105.92 58.29 109.07 59.69 112.17 C 57.01 110.78 53.99 110.72 51.32 112.18 M 54.76 107.81 C 53.65 108.94 55.10 111.20 56.43 109.93 C 57.21 108.97 55.89 106.35 54.76 107.81 Z" />
<path fill="#f8fcf8" opacity="1.00" d=" M 60.36 103.06 C 60.74 103.04 61.49 103.00 61.86 102.98 C 62.23 105.54 60.81 109.18 63.27 110.92 C 67.36 111.14 65.16 105.62 65.70 103.11 L 67.49 103.05 C 67.48 105.97 67.73 109.00 66.40 111.70 C 64.77 111.78 63.13 111.80 61.50 111.79 C 59.95 109.12 60.43 105.99 60.36 103.06 Z" />
<path fill="#f8fcf8" opacity="1.00" d=" M 68.46 103.09 C 73.05 103.37 77.84 102.37 82.31 103.67 C 80.60 103.90 78.88 103.97 77.17 104.04 C 77.16 104.75 77.14 106.17 77.13 106.88 C 78.59 106.95 80.05 107.09 81.50 107.30 C 80.09 107.75 78.62 107.92 77.16 108.09 C 77.16 109.36 77.16 110.63 77.17 111.90 C 76.74 111.91 75.88 111.91 75.45 111.92 C 75.48 109.07 75.47 106.22 75.55 103.38 C 73.63 103.86 71.55 103.77 69.75 104.62 C 69.11 107.69 72.70 106.90 74.47 107.58 C 72.94 107.87 71.40 108.13 69.86 108.35 C 70.00 109.92 70.91 112.08 68.55 112.38 C 68.46 109.28 68.49 106.18 68.46 103.09 Z" />
<path fill="#f8fcf8" opacity="1.00" d=" M 86.43 102.83 C 88.05 105.85 89.29 109.06 90.69 112.18 C 88.01 110.75 84.99 110.74 82.31 112.17 C 83.73 109.08 85.02 105.93 86.43 102.83 M 85.77 107.81 C 84.66 108.93 86.09 111.23 87.43 109.94 C 88.20 108.97 86.91 106.34 85.77 107.81 Z" />
<path fill="#f8fcf8" opacity="1.00" d=" M 91.51 108.56 C 90.06 104.11 96.86 100.81 99.35 104.51 C 97.47 104.43 95.59 104.36 93.74 104.67 C 93.06 106.90 92.81 110.77 96.03 110.95 C 99.38 111.13 95.94 107.96 94.34 108.24 C 95.89 108.12 97.44 108.08 99.00 108.03 C 98.90 109.30 98.79 110.57 98.69 111.85 C 95.92 112.11 92.12 112.01 91.51 108.56 Z" />
<path fill="#f8fcf8" opacity="1.00" d=" M 99.47 103.07 C 101.75 103.08 104.04 102.93 106.31 103.30 C 104.54 103.83 102.70 104.01 100.92 104.47 C 100.97 105.11 101.06 106.38 101.11 107.02 C 102.21 107.08 104.39 107.21 105.49 107.27 C 104.09 107.82 102.59 108.01 101.11 108.21 C 101.12 108.88 101.14 110.22 101.14 110.88 C 102.90 110.97 104.68 111.03 106.33 111.73 C 104.05 112.00 101.75 111.92 99.46 111.93 C 99.49 108.98 99.50 106.02 99.47 103.07 Z" />
<path fill="#f8fcf8" opacity="1.00" d=" M 42.47 115.01 C 44.22 115.06 45.99 115.02 47.71 115.38 C 48.86 116.86 48.92 119.05 47.76 120.54 C 46.56 120.80 45.36 120.99 44.14 121.14 C 44.15 121.83 44.16 123.22 44.17 123.92 C 43.74 123.91 42.88 123.91 42.45 123.90 C 42.50 120.94 42.49 117.97 42.47 115.01 M 44.18 115.68 C 44.17 117.26 44.17 118.84 44.20 120.42 C 45.46 119.89 46.87 119.43 47.37 118.00 C 46.85 116.59 45.46 116.14 44.18 115.68 Z" />
<path fill="#f8fcf8" opacity="1.00" d=" M 49.46 115.07 C 53.98 115.10 58.50 115.18 63.03 115.02 L 63.00 115.85 C 62.40 115.90 61.21 115.98 60.61 116.03 C 60.61 118.68 60.61 121.33 60.62 123.99 C 60.25 123.99 59.50 124.00 59.13 124.01 C 59.13 121.35 59.13 118.70 59.14 116.05 C 56.33 115.77 53.31 115.48 50.65 116.60 C 50.41 119.68 53.45 118.96 55.45 119.46 C 54.03 119.85 52.57 120.01 51.11 120.20 C 51.12 120.88 51.15 122.25 51.16 122.94 C 52.88 123.00 54.60 123.07 56.31 123.30 C 54.14 124.24 51.75 123.89 49.46 123.93 C 49.49 120.98 49.49 118.02 49.46 115.07 Z" />
<path fill="#f8fcf8" opacity="1.00" d=" M 66.53 115.53 C 68.19 114.86 70.04 115.22 71.79 115.14 C 71.79 115.55 71.77 116.35 71.77 116.75 C 70.15 116.48 67.51 115.54 66.70 117.60 C 65.27 119.92 67.01 123.61 69.99 122.99 C 71.92 121.25 68.22 120.94 67.38 119.98 C 68.91 120.01 70.43 120.05 71.96 120.08 C 71.89 121.32 71.82 122.55 71.75 123.79 C 69.68 123.69 67.07 124.47 65.57 122.59 C 63.63 120.55 64.22 117.02 66.53 115.53 Z" />
</g>
<g id="#303430ff">
<path fill="#303430" opacity="1.00" d=" M 50.38 16.93 C 56.96 16.89 63.53 16.92 70.10 16.91 C 70.09 17.60 70.07 18.98 70.06 19.67 C 63.49 19.63 56.92 19.63 50.35 19.67 C 50.36 18.99 50.38 17.62 50.38 16.93 Z" />
<path fill="#303430" opacity="1.00" d=" M 52.03 76.97 C 53.63 76.75 55.20 77.17 56.75 77.48 C 56.53 78.59 56.36 79.72 56.00 80.80 C 54.06 81.46 52.05 80.81 50.13 80.44 C 50.61 79.21 51.01 77.88 52.03 76.97 Z" />
<path fill="#303430" opacity="1.00" d=" M 62.49 77.51 C 64.31 76.16 67.60 76.74 68.23 79.21 C 67.77 82.83 59.46 81.29 62.49 77.51 Z" />
<path fill="#303430" opacity="1.00" d=" M 60.02 95.06 C 59.82 92.76 60.01 90.45 60.13 88.16 C 62.90 88.29 64.54 90.75 66.54 92.31 C 65.40 94.00 65.19 96.65 62.67 96.98 C 63.22 94.86 63.55 92.69 63.16 90.51 C 61.40 91.58 61.22 94.14 62.76 95.48 C 61.90 95.69 60.20 96.55 60.02 95.06 Z" />
</g>
<g id="#3b3d39ff">
<path fill="#3b3d39" opacity="1.00" d=" M 52.07 92.32 C 53.63 90.92 55.16 89.50 56.66 88.04 C 57.73 88.67 58.79 89.32 59.84 90.00 L 58.28 90.18 C 58.34 91.16 58.44 93.14 58.50 94.13 L 58.73 94.75 C 58.52 95.32 58.11 96.47 57.90 97.04 C 56.54 95.18 56.69 92.83 56.54 90.66 C 54.69 91.33 55.46 93.40 55.43 94.87 C 54.93 95.50 54.42 96.12 53.90 96.73 C 53.60 95.13 52.86 93.71 52.07 92.32 Z" />
</g>
</svg>
