<?xml version="1.0" encoding="UTF-8" ?>
<!DOCTYPE svg PUBLIC "-//W3C//DTD SVG 1.1//EN" "http://www.w3.org/Graphics/SVG/1.1/DTD/svg11.dtd">
<svg width="117pt" height="140pt" viewBox="0 0 117 140" version="1.1" xmlns="http://www.w3.org/2000/svg">
<g id="#000000ff">
<path fill="#000000" opacity="1.00" d=" M 0.00 0.00 L 117.00 0.00 L 117.00 140.00 L 0.00 140.00 L 0.00 0.00 M 33.15 10.22 C 17.89 11.78 5.16 25.65 5.01 41.01 C 4.99 60.33 4.99 79.65 5.01 98.97 C 5.19 112.03 14.35 124.27 26.73 128.32 C 33.23 130.70 40.24 129.87 47.01 130.00 C 59.05 129.94 71.09 130.11 83.12 129.93 C 98.70 129.25 112.30 115.60 112.94 100.02 C 113.09 80.69 112.95 61.35 113.01 42.02 C 113.08 33.37 109.38 24.81 103.11 18.88 C 97.02 12.96 88.49 9.74 80.02 9.98 C 64.40 10.17 48.76 9.70 33.15 10.22 Z" />
<path fill="#000000" opacity="1.00" d=" M 30.49 12.71 C 35.25 11.66 40.16 12.09 45.00 12.00 C 57.70 12.06 70.40 11.87 83.10 12.10 C 97.95 12.79 110.85 26.11 110.96 40.99 C 111.05 59.65 110.97 78.32 111.00 96.99 C 111.97 113.36 97.38 128.46 80.97 127.98 C 65.64 127.97 50.31 128.10 34.98 127.91 C 20.09 127.26 7.14 113.90 7.03 98.98 C 6.98 79.66 6.98 60.34 7.03 41.02 C 7.19 27.69 17.47 15.43 30.49 12.71 M 43.22 40.21 C 40.49 42.11 37.89 44.20 35.34 46.34 C 33.02 48.07 33.02 51.91 35.33 53.66 C 37.90 55.81 40.52 57.90 43.26 59.82 C 44.92 61.14 47.02 60.12 48.87 59.98 C 49.66 57.39 50.06 54.71 50.09 52.00 C 52.06 52.00 54.03 52.00 56.00 52.00 C 56.00 51.25 56.00 49.75 56.00 49.01 C 54.02 49.00 52.03 49.00 50.05 49.00 C 50.15 45.96 49.78 42.93 48.87 40.02 C 47.01 39.87 44.89 38.86 43.22 40.21 M 67.99 41.22 C 68.00 47.07 68.01 52.92 67.99 58.77 C 70.08 59.61 72.55 61.58 74.72 59.82 C 77.48 57.90 80.13 55.79 82.70 53.63 C 85.02 51.89 84.95 48.07 82.66 46.34 C 80.12 44.20 77.51 42.13 74.79 40.22 C 72.61 38.42 70.10 40.35 67.99 41.22 M 57.00 49.01 C 57.00 49.75 57.01 51.25 57.01 52.00 C 57.76 52.00 59.25 52.00 60.00 52.00 C 60.00 51.25 60.00 49.75 59.99 49.00 C 59.24 49.00 57.75 49.00 57.00 49.01 M 61.00 49.00 C 61.00 49.75 61.00 51.25 61.00 52.00 C 63.00 52.00 65.00 52.00 67.00 52.00 C 67.00 51.25 67.00 49.75 67.00 49.00 C 65.00 49.00 63.00 49.00 61.00 49.00 Z" />
<path fill="#000000" opacity="1.00" d=" M 37.01 49.99 C 39.99 47.67 42.98 45.36 45.95 43.02 C 46.03 47.68 46.03 52.33 45.95 56.99 C 42.98 54.64 39.98 52.34 37.01 49.99 Z" />
<path fill="#000000" opacity="1.00" d=" M 72.07 43.01 C 75.02 45.36 78.01 47.67 80.99 49.99 C 78.02 52.34 75.02 54.64 72.04 56.98 C 71.98 52.32 71.95 47.67 72.07 43.01 Z" />
</g>
<g id="#7185b5ff">
<path fill="#7185b5" opacity="1.00" d=" M 33.15 10.22 C 48.76 9.70 64.40 10.17 80.02 9.98 C 88.49 9.74 97.02 12.96 103.11 18.88 C 109.38 24.81 113.08 33.37 113.01 42.02 C 112.95 61.35 113.09 80.69 112.94 100.02 C 112.30 115.60 98.70 129.25 83.12 129.93 C 71.09 130.11 59.05 129.94 47.01 130.00 C 40.24 129.87 33.23 130.70 26.73 128.32 C 14.35 124.27 5.19 112.03 5.01 98.97 C 4.99 79.65 4.99 60.33 5.01 41.01 C 5.16 25.65 17.89 11.78 33.15 10.22 M 30.49 12.71 C 17.47 15.43 7.19 27.69 7.03 41.02 C 6.98 60.34 6.98 79.66 7.03 98.98 C 7.14 113.90 20.09 127.26 34.98 127.91 C 50.31 128.10 65.64 127.97 80.97 127.98 C 97.38 128.46 111.97 113.36 111.00 96.99 C 110.97 78.32 111.05 59.65 110.96 40.99 C 110.85 26.11 97.95 12.79 83.10 12.10 C 70.40 11.87 57.70 12.06 45.00 12.00 C 40.16 12.09 35.25 11.66 30.49 12.71 Z" />
</g>
<g id="#10ec50ff">
<path fill="#10ec50" opacity="1.00" d=" M 43.22 40.21 C 44.89 38.86 47.01 39.87 48.87 40.02 C 49.78 42.93 50.15 45.96 50.05 49.00 C 52.03 49.00 54.02 49.00 56.00 49.01 C 56.00 49.75 56.00 51.25 56.00 52.00 C 54.03 52.00 52.06 52.00 50.09 52.00 C 50.06 54.71 49.66 57.39 48.87 59.98 C 47.02 60.12 44.92 61.14 43.26 59.82 C 40.52 57.90 37.90 55.81 35.33 53.66 C 33.02 51.91 33.02 48.07 35.34 46.34 C 37.89 44.20 40.49 42.11 43.22 40.21 M 37.01 49.99 C 39.98 52.34 42.98 54.64 45.95 56.99 C 46.03 52.33 46.03 47.68 45.95 43.02 C 42.98 45.36 39.99 47.67 37.01 49.99 Z" />
<path fill="#10ec50" opacity="1.00" d=" M 67.99 41.22 C 70.10 40.35 72.61 38.42 74.79 40.22 C 77.51 42.13 80.12 44.20 82.66 46.34 C 84.95 48.07 85.02 51.89 82.70 53.63 C 80.13 55.79 77.48 57.90 74.72 59.82 C 72.55 61.58 70.08 59.61 67.99 58.77 C 68.01 52.92 68.00 47.07 67.99 41.22 M 72.07 43.01 C 71.95 47.67 71.98 52.32 72.04 56.98 C 75.02 54.64 78.02 52.34 80.99 49.99 C 78.01 47.67 75.02 45.36 72.07 43.01 Z" />
<path fill="#10ec50" opacity="1.00" d=" M 57.00 49.01 C 57.75 49.00 59.24 49.00 59.99 49.00 C 60.00 49.75 60.00 51.25 60.00 52.00 C 59.25 52.00 57.76 52.00 57.01 52.00 C 57.01 51.25 57.00 49.75 57.00 49.01 Z" />
<path fill="#10ec50" opacity="1.00" d=" M 61.00 49.00 C 63.00 49.00 65.00 49.00 67.00 49.00 C 67.00 49.75 67.00 51.25 67.00 52.00 C 65.00 52.00 63.00 52.00 61.00 52.00 C 61.00 51.25 61.00 49.75 61.00 49.00 Z" />
</g>
</svg>
