<?xml version="1.0" encoding="UTF-8" ?>
<!DOCTYPE svg PUBLIC "-//W3C//DTD SVG 1.1//EN" "http://www.w3.org/Graphics/SVG/1.1/DTD/svg11.dtd">
<svg width="117px" height="140px" viewBox="0 0 117 140" version="1.1" xmlns="http://www.w3.org/2000/svg">
<g id="#000000ff">
<path fill="#000000" opacity="1.00" d=" M 0.00 0.00 L 117.00 0.00 L 117.00 140.00 L 0.00 140.00 L 0.00 0.00 M 33.24 10.21 C 17.97 11.74 5.21 25.57 5.02 40.93 C 5.02 60.65 4.93 80.38 5.06 100.10 C 5.76 116.02 19.99 129.82 35.93 129.98 C 51.65 129.98 67.38 130.09 83.09 129.92 C 99.03 129.25 112.85 114.98 112.98 99.03 C 113.03 80.03 112.98 61.03 113.01 42.03 C 113.08 33.38 109.37 24.81 103.09 18.88 C 96.99 12.94 88.43 9.74 79.94 9.98 C 64.37 10.16 48.79 9.71 33.24 10.21 Z" />
<path fill="#000000" opacity="1.00" d=" M 33.33 12.34 C 48.54 11.72 63.79 12.25 79.02 12.06 C 85.37 11.88 91.86 13.30 97.19 16.88 C 105.63 22.17 110.99 32.01 110.90 41.97 C 110.97 59.98 110.90 77.99 110.94 95.99 C 111.09 101.62 110.09 107.37 107.24 112.29 C 102.26 121.83 91.71 127.97 81.00 127.91 C 66.32 127.95 51.64 127.94 36.96 127.91 C 26.27 127.97 15.76 121.81 10.78 112.33 C 8.11 107.69 6.98 102.30 7.07 96.98 C 7.11 78.30 6.99 59.62 7.13 40.94 C 7.32 26.69 19.14 13.77 33.33 12.34 M 58.81 28.85 C 57.91 33.07 58.74 37.53 58.44 41.85 C 53.59 43.01 49.99 47.31 49.76 52.31 C 45.43 52.28 41.10 52.09 36.78 52.29 C 40.96 53.34 45.32 52.63 49.59 52.89 C 50.35 57.97 54.11 62.37 59.33 63.09 C 59.40 67.48 58.82 71.93 59.62 76.27 C 59.92 71.98 59.69 67.67 59.80 63.37 C 64.96 62.71 69.91 59.15 70.47 53.67 C 74.49 53.50 78.52 53.58 82.54 53.61 C 85.63 42.53 76.70 31.44 66.17 28.89 C 63.78 28.44 61.09 27.68 58.81 28.85 Z" />
<path fill="#000000" opacity="1.00" d=" M 51.84 48.11 C 54.07 42.46 62.44 41.15 66.55 45.46 C 71.74 49.92 69.69 59.78 62.96 61.51 C 59.69 62.74 56.29 61.40 53.63 59.45 C 50.97 56.37 50.02 51.85 51.84 48.11 Z" />
</g>
<g id="#717171ff">
<path fill="#717171" opacity="1.00" d=" M 33.24 10.21 C 48.79 9.71 64.37 10.16 79.94 9.98 C 88.43 9.74 96.99 12.94 103.09 18.88 C 109.37 24.81 113.08 33.38 113.01 42.03 C 112.98 61.03 113.03 80.03 112.98 99.03 C 112.85 114.98 99.03 129.25 83.09 129.92 C 67.38 130.09 51.65 129.98 35.93 129.98 C 19.99 129.82 5.76 116.02 5.06 100.10 C 4.93 80.38 5.02 60.65 5.02 40.93 C 5.21 25.57 17.97 11.74 33.24 10.21 M 33.33 12.34 C 19.14 13.77 7.32 26.69 7.13 40.94 C 6.99 59.62 7.11 78.30 7.07 96.98 C 6.98 102.30 8.11 107.69 10.78 112.33 C 15.76 121.81 26.27 127.97 36.96 127.91 C 51.64 127.94 66.32 127.95 81.00 127.91 C 91.71 127.97 102.26 121.83 107.24 112.29 C 110.09 107.37 111.09 101.62 110.94 95.99 C 110.90 77.99 110.97 59.98 110.90 41.97 C 110.99 32.01 105.63 22.17 97.19 16.88 C 91.86 13.30 85.37 11.88 79.02 12.06 C 63.79 12.25 48.54 11.72 33.33 12.34 Z" />
</g>
<g id="#f8fcf8ff">
<path fill="#f8fcf8" opacity="1.00" d=" M 58.81 28.85 C 61.09 27.68 63.78 28.44 66.17 28.89 C 76.70 31.44 85.63 42.53 82.54 53.61 C 78.52 53.58 74.49 53.50 70.47 53.67 C 69.91 59.15 64.96 62.71 59.80 63.37 C 59.69 67.67 59.92 71.98 59.62 76.27 C 58.82 71.93 59.40 67.48 59.33 63.09 C 54.11 62.37 50.35 57.97 49.59 52.89 C 45.32 52.63 40.96 53.34 36.78 52.29 C 41.10 52.09 45.43 52.28 49.76 52.31 C 49.99 47.31 53.59 43.01 58.44 41.85 C 58.74 37.53 57.91 33.07 58.81 28.85 M 51.84 48.11 C 50.02 51.85 50.97 56.37 53.63 59.45 C 56.29 61.40 59.69 62.74 62.96 61.51 C 69.69 59.78 71.74 49.92 66.55 45.46 C 62.44 41.15 54.07 42.46 51.84 48.11 Z" />
</g>
</svg>
