<?xml version="1.0" encoding="UTF-8" ?>
<!DOCTYPE svg PUBLIC "-//W3C//DTD SVG 1.1//EN" "http://www.w3.org/Graphics/SVG/1.1/DTD/svg11.dtd">
<svg width="117pt" height="140pt" viewBox="0 0 117 140" version="1.1" xmlns="http://www.w3.org/2000/svg">
<g id="#000000ff">
<path fill="#000000" opacity="1.00" d=" M 0.00 0.00 L 117.00 0.00 L 117.00 140.00 L 0.00 140.00 L 0.00 0.00 M 33.22 10.22 C 17.96 11.75 5.20 25.59 5.02 40.95 C 4.96 59.98 5.02 79.02 4.99 98.06 C 4.95 106.69 8.67 115.22 14.92 121.14 C 21.03 127.06 29.57 130.27 38.06 130.02 C 53.07 129.92 68.07 130.12 83.07 129.92 C 98.99 129.27 112.82 115.03 112.97 99.09 C 113.04 80.05 112.98 61.02 113.00 41.98 C 113.07 33.35 109.36 24.80 103.09 18.87 C 97.01 12.97 88.50 9.76 80.04 9.98 C 64.43 10.17 48.81 9.70 33.22 10.22 Z" />
<path fill="#000000" opacity="1.00" d=" M 33.25 12.35 C 48.48 11.71 63.75 12.26 79.00 12.06 C 85.35 11.89 91.83 13.29 97.15 16.86 C 105.60 22.14 110.97 31.96 110.90 41.92 C 110.93 60.95 110.99 79.98 110.87 99.01 C 110.75 113.86 97.93 127.14 83.10 127.80 C 67.75 128.09 52.37 127.88 37.01 127.91 C 26.56 127.98 16.24 122.12 11.14 112.96 C 8.24 108.17 6.97 102.54 7.07 96.96 C 7.11 78.30 6.99 59.63 7.13 40.97 C 7.30 26.74 19.09 13.81 33.25 12.35 M 44.08 34.05 C 38.92 38.94 35.21 46.35 36.45 53.56 C 40.63 53.60 44.80 53.56 48.98 53.59 C 49.92 58.83 54.31 62.70 59.57 63.24 C 59.67 67.70 58.94 72.15 59.34 76.61 C 59.73 72.13 60.25 67.66 60.34 63.17 C 65.40 62.30 69.42 58.35 70.17 53.23 C 74.73 53.10 79.31 52.94 83.84 52.34 C 79.32 51.88 74.78 52.52 70.24 52.43 C 69.80 47.15 65.92 42.65 60.66 41.71 C 60.69 37.46 60.67 33.21 60.70 28.96 C 54.79 27.07 48.63 30.43 44.08 34.05 Z" />
<path fill="#000000" opacity="1.00" d=" M 50.16 53.01 C 49.68 47.70 54.56 42.45 59.95 42.92 C 62.41 42.80 64.44 44.31 66.42 45.53 C 67.53 47.54 69.03 49.53 68.97 51.93 C 69.37 56.97 64.98 61.77 59.96 61.94 C 55.02 62.26 50.29 57.97 50.16 53.01 Z" />
</g>
<g id="#717171ff">
<path fill="#717171" opacity="1.00" d=" M 33.22 10.22 C 48.81 9.70 64.43 10.17 80.04 9.98 C 88.50 9.76 97.01 12.97 103.09 18.87 C 109.36 24.80 113.07 33.35 113.00 41.98 C 112.98 61.02 113.04 80.05 112.97 99.09 C 112.82 115.03 98.99 129.27 83.07 129.92 C 68.07 130.12 53.07 129.92 38.06 130.02 C 29.57 130.27 21.03 127.06 14.92 121.14 C 8.67 115.22 4.95 106.69 4.99 98.06 C 5.02 79.02 4.96 59.98 5.02 40.95 C 5.20 25.59 17.96 11.75 33.22 10.22 M 33.25 12.35 C 19.09 13.81 7.30 26.74 7.13 40.97 C 6.99 59.63 7.11 78.30 7.07 96.96 C 6.97 102.54 8.24 108.17 11.14 112.96 C 16.24 122.12 26.56 127.98 37.01 127.91 C 52.37 127.88 67.75 128.09 83.10 127.80 C 97.93 127.14 110.75 113.86 110.87 99.01 C 110.99 79.98 110.93 60.95 110.90 41.92 C 110.97 31.96 105.60 22.14 97.15 16.86 C 91.83 13.29 85.35 11.89 79.00 12.06 C 63.75 12.26 48.48 11.71 33.25 12.35 Z" />
</g>
<g id="#f8fcf8ff">
<path fill="#f8fcf8" opacity="1.00" d=" M 44.08 34.05 C 48.63 30.43 54.79 27.07 60.70 28.96 C 60.67 33.21 60.69 37.46 60.66 41.71 C 65.92 42.65 69.80 47.15 70.24 52.43 C 74.78 52.52 79.32 51.88 83.84 52.34 C 79.31 52.94 74.73 53.10 70.17 53.23 C 69.42 58.35 65.40 62.30 60.34 63.17 C 60.25 67.66 59.73 72.13 59.34 76.61 C 58.94 72.15 59.67 67.70 59.57 63.24 C 54.31 62.70 49.92 58.83 48.98 53.59 C 44.80 53.56 40.63 53.60 36.45 53.56 C 35.21 46.35 38.92 38.94 44.08 34.05 M 50.16 53.01 C 50.29 57.97 55.02 62.26 59.96 61.94 C 64.98 61.77 69.37 56.97 68.97 51.93 C 69.03 49.53 67.53 47.54 66.42 45.53 C 64.44 44.31 62.41 42.80 59.95 42.92 C 54.56 42.45 49.68 47.70 50.16 53.01 Z" />
</g>
</svg>
