<?xml version="1.0" encoding="UTF-8" ?>
<!DOCTYPE svg PUBLIC "-//W3C//DTD SVG 1.1//EN" "http://www.w3.org/Graphics/SVG/1.1/DTD/svg11.dtd">
<svg width="117px" height="140px" viewBox="0 0 117 140" version="1.1" xmlns="http://www.w3.org/2000/svg">
<g id="#000000ff">
<path fill="#000000" opacity="1.00" d=" M 0.00 0.00 L 117.00 0.00 L 117.00 140.00 L 0.00 140.00 L 0.00 0.00 M 33.21 10.23 C 17.95 11.76 5.18 25.60 5.03 40.96 C 4.96 59.99 5.02 79.02 5.00 98.05 C 4.92 108.84 10.80 119.40 19.96 125.07 C 25.31 128.49 31.69 130.15 38.02 130.02 C 53.03 129.92 68.04 130.13 83.04 129.92 C 98.97 129.28 112.82 115.04 112.97 99.08 C 113.05 80.07 112.98 61.06 113.00 42.05 C 113.12 31.24 107.24 20.64 98.07 14.94 C 92.45 11.33 85.70 9.75 79.06 9.97 C 63.78 10.19 48.48 9.67 33.21 10.23 Z" />
<path fill="#000000" opacity="1.00" d=" M 30.51 12.69 C 35.28 11.69 40.17 12.08 45.01 12.00 C 57.70 12.06 70.40 11.87 83.09 12.10 C 97.92 12.75 110.83 26.06 110.94 40.92 C 111.07 57.93 110.96 74.95 111.00 91.97 C 110.98 96.90 111.25 101.97 109.73 106.73 C 107.02 115.67 99.95 123.12 91.14 126.24 C 85.36 128.47 79.06 127.93 72.99 128.00 C 60.31 127.94 47.62 128.13 34.94 127.90 C 20.07 127.27 7.13 113.91 7.04 99.01 C 6.97 79.66 6.97 60.30 7.04 40.95 C 7.20 27.62 17.51 15.40 30.51 12.69 M 45.95 37.98 C 44.73 40.13 43.41 42.22 41.97 44.23 C 42.92 45.52 43.86 46.80 44.81 48.09 C 44.11 48.12 42.70 48.17 42.00 48.20 C 42.00 49.46 42.00 50.73 42.00 51.99 C 42.60 52.00 43.81 52.01 44.41 52.02 C 44.39 53.30 44.36 54.59 44.33 55.87 C 46.38 55.99 48.42 56.13 50.46 56.38 C 48.98 56.70 47.50 56.97 46.01 57.24 C 46.12 58.48 46.23 59.72 46.34 60.96 C 49.37 60.91 52.40 60.63 55.44 60.71 C 51.73 61.85 47.80 61.85 43.96 62.08 C 44.05 63.61 44.15 65.14 44.23 66.68 C 45.10 66.65 46.85 66.60 47.72 66.57 C 45.88 67.20 44.03 67.80 42.17 68.39 C 43.54 69.80 44.89 71.22 46.20 72.68 C 48.58 71.54 50.96 70.39 53.32 69.22 C 53.61 69.92 54.17 71.31 54.45 72.01 C 57.67 71.84 62.97 73.13 63.18 68.36 C 66.23 69.76 69.25 71.23 72.23 72.77 C 73.38 71.26 74.53 69.74 75.73 68.26 C 74.53 67.76 73.34 67.25 72.15 66.75 C 73.37 66.19 74.60 65.64 75.83 65.10 C 74.10 62.57 72.31 60.09 70.52 57.61 C 69.15 58.19 67.79 58.77 66.41 59.33 C 66.30 59.82 66.06 60.80 65.95 61.29 L 64.26 60.94 L 63.37 62.41 C 63.75 59.64 67.27 58.77 69.04 56.99 C 68.44 56.48 67.24 55.45 66.64 54.94 C 68.87 56.03 71.08 57.14 73.36 58.12 C 74.51 55.90 75.56 53.64 76.72 51.42 C 75.06 51.05 73.41 50.63 71.76 50.18 C 72.74 48.30 73.22 45.75 75.62 45.17 C 75.62 43.57 75.62 41.96 75.63 40.36 C 72.79 40.38 69.95 40.38 67.11 40.44 C 67.34 39.94 67.79 38.94 68.02 38.44 C 66.08 38.31 64.15 38.18 62.22 38.06 C 61.60 39.49 61.00 40.92 60.39 42.35 C 60.39 41.76 60.40 40.59 60.40 40.00 C 57.49 40.00 54.57 40.00 51.65 40.00 C 51.68 39.55 51.74 38.66 51.76 38.21 C 49.82 38.15 47.89 38.07 45.95 37.98 Z" />
<path fill="#000000" opacity="1.00" d=" M 48.37 44.91 C 51.79 43.27 55.73 44.07 59.37 44.27 C 55.93 45.85 52.01 45.10 48.37 44.91 Z" />
<path fill="#000000" opacity="1.00" d=" M 59.83 47.94 C 60.94 48.87 62.02 49.86 63.07 50.86 C 61.56 51.74 60.05 52.61 58.53 53.47 C 59.32 54.51 60.12 55.54 60.90 56.60 C 59.50 56.84 58.09 57.09 56.69 57.32 C 58.35 56.22 58.56 54.44 58.49 52.62 C 60.40 51.73 59.72 49.61 59.83 47.94 Z" />
<path fill="#000000" opacity="1.00" d=" M 52.45 52.18 C 55.45 50.59 52.70 55.46 52.45 52.18 Z" />
<path fill="#000000" opacity="1.00" d=" M 53.67 66.44 C 54.54 65.08 55.42 65.09 56.31 66.48 C 55.45 67.85 54.57 67.84 53.67 66.44 Z" />
</g>
<g id="#727272ff">
<path fill="#727272" opacity="1.00" d=" M 33.21 10.23 C 48.48 9.67 63.78 10.19 79.06 9.97 C 85.70 9.75 92.45 11.33 98.07 14.94 C 107.24 20.64 113.12 31.24 113.00 42.05 C 112.98 61.06 113.05 80.07 112.97 99.08 C 112.82 115.04 98.97 129.28 83.04 129.92 C 68.04 130.13 53.03 129.92 38.02 130.02 C 31.69 130.15 25.31 128.49 19.96 125.07 C 10.80 119.40 4.92 108.84 5.00 98.05 C 5.02 79.02 4.96 59.99 5.03 40.96 C 5.18 25.60 17.95 11.76 33.21 10.23 M 30.51 12.69 C 17.51 15.40 7.20 27.62 7.04 40.95 C 6.97 60.30 6.97 79.66 7.04 99.01 C 7.13 113.91 20.07 127.27 34.94 127.90 C 47.62 128.13 60.31 127.94 72.99 128.00 C 79.06 127.93 85.36 128.47 91.14 126.24 C 99.95 123.12 107.02 115.67 109.73 106.73 C 111.25 101.97 110.98 96.90 111.00 91.97 C 110.96 74.95 111.07 57.93 110.94 40.92 C 110.83 26.06 97.92 12.75 83.09 12.10 C 70.40 11.87 57.70 12.06 45.01 12.00 C 40.17 12.08 35.28 11.69 30.51 12.69 Z" />
</g>
<g id="#f8fcf8ff">
<path fill="#f8fcf8" opacity="1.00" d=" M 45.95 37.98 C 47.89 38.07 49.82 38.15 51.76 38.21 C 51.74 38.66 51.68 39.55 51.65 40.00 C 54.57 40.00 57.49 40.00 60.40 40.00 C 60.40 40.59 60.39 41.76 60.39 42.35 C 61.00 40.92 61.60 39.49 62.22 38.06 C 64.15 38.18 66.08 38.31 68.02 38.44 C 67.79 38.94 67.34 39.94 67.11 40.44 C 69.95 40.38 72.79 40.38 75.63 40.36 C 75.62 41.96 75.62 43.57 75.62 45.17 C 73.22 45.75 72.74 48.30 71.76 50.18 C 73.41 50.63 75.06 51.05 76.72 51.42 C 75.56 53.64 74.51 55.90 73.36 58.12 C 71.08 57.14 68.87 56.03 66.64 54.94 C 67.24 55.45 68.44 56.48 69.04 56.99 C 67.27 58.77 63.75 59.64 63.37 62.41 L 64.26 60.94 L 65.95 61.29 C 66.06 60.80 66.30 59.82 66.41 59.33 C 67.79 58.77 69.15 58.19 70.52 57.61 C 72.31 60.09 74.10 62.57 75.83 65.10 C 74.60 65.64 73.37 66.19 72.15 66.75 C 73.34 67.25 74.53 67.76 75.73 68.26 C 74.53 69.74 73.38 71.26 72.23 72.77 C 69.25 71.23 66.23 69.76 63.18 68.36 C 62.97 73.13 57.67 71.84 54.45 72.01 C 54.17 71.31 53.61 69.92 53.32 69.22 C 50.96 70.39 48.58 71.54 46.20 72.68 C 44.89 71.22 43.54 69.80 42.17 68.39 C 44.03 67.80 45.88 67.20 47.72 66.57 C 46.85 66.60 45.10 66.65 44.23 66.68 C 44.15 65.14 44.05 63.61 43.96 62.08 C 47.80 61.85 51.73 61.85 55.44 60.71 C 52.40 60.63 49.37 60.91 46.34 60.96 C 46.23 59.72 46.12 58.48 46.01 57.24 C 47.50 56.97 48.98 56.70 50.46 56.38 C 48.42 56.13 46.38 55.99 44.33 55.87 C 44.36 54.59 44.39 53.30 44.41 52.02 C 43.81 52.01 42.60 52.00 42.00 51.99 C 42.00 50.73 42.00 49.46 42.00 48.20 C 42.70 48.17 44.11 48.12 44.81 48.09 C 43.86 46.80 42.92 45.52 41.97 44.23 C 43.41 42.22 44.73 40.13 45.95 37.98 M 48.37 44.91 C 52.01 45.10 55.93 45.85 59.37 44.27 C 55.73 44.07 51.79 43.27 48.37 44.91 M 66.11 45.19 C 65.57 46.81 66.12 47.37 67.76 46.89 C 68.30 45.28 67.75 44.71 66.11 45.19 M 49.33 47.34 C 49.92 47.91 49.92 47.91 49.33 47.34 M 53.24 47.25 C 53.84 47.81 53.84 47.81 53.24 47.25 M 58.45 47.24 C 59.04 47.82 59.04 47.82 58.45 47.24 M 59.83 47.94 C 59.72 49.61 60.40 51.73 58.49 52.62 C 58.56 54.44 58.35 56.22 56.69 57.32 C 58.09 57.09 59.50 56.84 60.90 56.60 C 60.12 55.54 59.32 54.51 58.53 53.47 C 60.05 52.61 61.56 51.74 63.07 50.86 C 62.02 49.86 60.94 48.87 59.83 47.94 M 49.22 52.32 C 49.84 52.94 49.84 52.94 49.22 52.32 M 52.45 52.18 C 52.70 55.46 55.45 50.59 52.45 52.18 M 53.67 66.44 C 54.57 67.84 55.45 67.85 56.31 66.48 C 55.42 65.09 54.54 65.08 53.67 66.44 M 63.00 66.81 C 64.40 67.09 64.88 66.55 64.45 65.18 C 63.03 64.89 62.55 65.43 63.00 66.81 Z" />
</g>
<g id="#989b98ff">
<path fill="#989b98" opacity="1.00" d=" M 66.11 45.19 C 67.75 44.71 68.30 45.28 67.76 46.89 C 66.12 47.37 65.57 46.81 66.11 45.19 Z" />
</g>
<g id="#686868ff">
<path fill="#686868" opacity="1.00" d=" M 49.33 47.34 C 49.92 47.91 49.92 47.91 49.33 47.34 Z" />
<path fill="#686868" opacity="1.00" d=" M 53.24 47.25 C 53.84 47.81 53.84 47.81 53.24 47.25 Z" />
<path fill="#686868" opacity="1.00" d=" M 58.45 47.24 C 59.04 47.82 59.04 47.82 58.45 47.24 Z" />
</g>
<g id="#404040ff">
<path fill="#404040" opacity="1.00" d=" M 49.22 52.32 C 49.84 52.94 49.84 52.94 49.22 52.32 Z" />
</g>
<g id="#838583ff">
<path fill="#838583" opacity="1.00" d=" M 63.00 66.81 C 62.55 65.43 63.03 64.89 64.45 65.18 C 64.88 66.55 64.40 67.09 63.00 66.81 Z" />
</g>
</svg>
