<?xml version="1.0" encoding="UTF-8" ?>
<!DOCTYPE svg PUBLIC "-//W3C//DTD SVG 1.1//EN" "http://www.w3.org/Graphics/SVG/1.1/DTD/svg11.dtd">
<svg width="117px" height="140px" viewBox="0 0 117 140" version="1.1" xmlns="http://www.w3.org/2000/svg">
<g id="#000000ff">
<path fill="#000000" opacity="1.00" d=" M 0.00 0.00 L 117.00 0.00 L 117.00 140.00 L 0.00 140.00 L 0.00 0.00 M 33.16 10.21 C 17.91 11.78 5.18 25.62 5.01 40.96 C 4.99 60.31 4.99 79.65 5.01 98.99 C 5.08 116.11 20.94 130.95 38.02 130.02 C 52.70 129.95 67.39 130.05 82.07 129.98 C 99.15 129.88 113.95 114.04 113.02 97.00 C 112.98 78.66 113.00 60.32 113.01 41.98 C 113.07 33.34 109.37 24.80 103.10 18.87 C 96.99 12.95 88.45 9.73 79.96 9.98 C 64.36 10.17 48.74 9.70 33.16 10.21 Z" />
<path fill="#000000" opacity="1.00" d=" M 30.51 12.71 C 33.93 11.94 37.46 11.98 40.95 12.00 C 54.99 12.06 69.03 11.88 83.07 12.09 C 97.91 12.77 110.82 26.07 110.96 40.94 C 111.04 59.96 110.99 78.99 110.99 98.01 C 111.40 113.60 97.72 127.79 82.12 127.95 C 66.74 128.04 51.36 128.01 35.98 127.96 C 20.71 127.82 7.14 114.27 7.03 98.99 C 6.98 79.64 6.98 60.29 7.03 40.94 C 7.23 27.63 17.51 15.41 30.51 12.71 M 39.24 41.20 C 36.51 43.09 33.90 45.19 31.35 47.33 C 29.25 48.91 28.96 52.33 30.85 54.19 C 33.27 56.43 35.96 58.36 38.58 60.37 C 40.66 62.29 43.55 61.11 46.00 60.88 C 46.00 58.25 46.00 55.63 46.00 53.01 C 48.00 53.00 50.00 53.00 52.00 52.99 C 52.00 52.25 52.00 50.75 52.00 50.01 C 50.00 50.00 48.00 50.00 46.00 49.99 C 46.00 47.04 45.99 44.08 46.00 41.13 C 43.79 40.98 41.28 39.83 39.24 41.20 M 70.99 41.07 C 71.01 44.05 71.00 47.02 71.00 50.00 C 68.66 50.00 66.33 50.00 64.00 50.01 C 64.00 50.75 64.00 52.25 64.00 53.00 C 66.33 53.00 68.67 53.00 71.00 53.00 C 71.00 55.65 71.00 58.29 70.99 60.93 C 72.88 61.09 75.04 62.18 76.74 60.81 C 79.48 58.90 82.10 56.80 84.67 54.67 C 86.99 52.94 86.99 49.08 84.67 47.35 C 82.12 45.20 79.50 43.12 76.77 41.21 C 75.06 39.82 72.89 40.89 70.99 41.07 M 53.00 50.00 C 53.00 50.75 53.00 52.25 53.00 53.00 C 53.75 53.00 55.25 53.00 56.00 53.00 C 56.00 52.25 56.00 50.75 56.00 50.00 C 55.25 50.00 53.75 50.00 53.00 50.00 M 57.00 50.00 C 57.00 50.75 57.00 52.25 57.01 53.00 C 59.00 53.00 61.00 53.00 63.00 53.00 C 63.00 52.25 63.00 50.75 63.00 50.00 C 61.00 50.00 59.00 50.00 57.00 50.00 Z" />
<path fill="#000000" opacity="1.00" d=" M 33.01 51.00 C 35.98 48.67 38.98 46.36 41.94 44.01 C 42.03 48.67 42.03 53.33 41.95 57.99 C 38.98 55.64 35.99 53.33 33.01 51.00 Z" />
<path fill="#000000" opacity="1.00" d=" M 75.01 44.82 C 77.69 46.85 80.35 48.92 82.99 51.01 C 80.34 53.08 77.68 55.14 75.01 57.19 C 74.99 53.07 74.99 48.94 75.01 44.82 Z" />
</g>
<g id="#7185b5ff">
<path fill="#7185b5" opacity="1.00" d=" M 33.16 10.21 C 48.74 9.70 64.36 10.17 79.96 9.98 C 88.45 9.73 96.99 12.95 103.10 18.87 C 109.37 24.80 113.07 33.34 113.01 41.98 C 113.00 60.32 112.98 78.66 113.02 97.00 C 113.95 114.04 99.15 129.88 82.07 129.98 C 67.39 130.05 52.70 129.95 38.02 130.02 C 20.94 130.95 5.08 116.11 5.01 98.99 C 4.99 79.65 4.99 60.31 5.01 40.96 C 5.18 25.62 17.91 11.78 33.16 10.21 M 30.51 12.71 C 17.51 15.41 7.23 27.63 7.03 40.94 C 6.98 60.29 6.98 79.64 7.03 98.99 C 7.14 114.27 20.71 127.82 35.98 127.96 C 51.36 128.01 66.74 128.04 82.12 127.95 C 97.72 127.79 111.40 113.60 110.99 98.01 C 110.99 78.99 111.04 59.96 110.96 40.94 C 110.82 26.07 97.91 12.77 83.07 12.09 C 69.03 11.88 54.99 12.06 40.95 12.00 C 37.46 11.98 33.93 11.94 30.51 12.71 Z" />
</g>
<g id="#10ec50ff">
<path fill="#10ec50" opacity="1.00" d=" M 39.24 41.20 C 41.28 39.83 43.79 40.98 46.00 41.13 C 45.99 44.08 46.00 47.04 46.00 49.99 C 48.00 50.00 50.00 50.00 52.00 50.01 C 52.00 50.75 52.00 52.25 52.00 52.99 C 50.00 53.00 48.00 53.00 46.00 53.01 C 46.00 55.63 46.00 58.25 46.00 60.88 C 43.55 61.11 40.66 62.29 38.58 60.37 C 35.96 58.36 33.27 56.43 30.85 54.19 C 28.96 52.33 29.25 48.91 31.35 47.33 C 33.90 45.19 36.51 43.09 39.24 41.20 M 33.01 51.00 C 35.99 53.33 38.98 55.64 41.95 57.99 C 42.03 53.33 42.03 48.67 41.94 44.01 C 38.98 46.36 35.98 48.67 33.01 51.00 Z" />
<path fill="#10ec50" opacity="1.00" d=" M 70.99 41.07 C 72.89 40.89 75.06 39.82 76.77 41.21 C 79.50 43.12 82.12 45.20 84.67 47.35 C 86.99 49.08 86.99 52.94 84.67 54.67 C 82.10 56.80 79.48 58.90 76.74 60.81 C 75.04 62.18 72.88 61.09 70.99 60.93 C 71.00 58.29 71.00 55.65 71.00 53.00 C 68.67 53.00 66.33 53.00 64.00 53.00 C 64.00 52.25 64.00 50.75 64.00 50.01 C 66.33 50.00 68.66 50.00 71.00 50.00 C 71.00 47.02 71.01 44.05 70.99 41.07 M 75.01 44.82 C 74.99 48.94 74.99 53.07 75.01 57.19 C 77.68 55.14 80.34 53.08 82.99 51.01 C 80.35 48.92 77.69 46.85 75.01 44.82 Z" />
<path fill="#10ec50" opacity="1.00" d=" M 53.00 50.00 C 53.75 50.00 55.25 50.00 56.00 50.00 C 56.00 50.75 56.00 52.25 56.00 53.00 C 55.25 53.00 53.75 53.00 53.00 53.00 C 53.00 52.25 53.00 50.75 53.00 50.00 Z" />
<path fill="#10ec50" opacity="1.00" d=" M 57.00 50.00 C 59.00 50.00 61.00 50.00 63.00 50.00 C 63.00 50.75 63.00 52.25 63.00 53.00 C 61.00 53.00 59.00 53.00 57.01 53.00 C 57.00 52.25 57.00 50.75 57.00 50.00 Z" />
</g>
</svg>
