<?xml version="1.0" encoding="UTF-8" ?>
<!DOCTYPE svg PUBLIC "-//W3C//DTD SVG 1.1//EN" "http://www.w3.org/Graphics/SVG/1.1/DTD/svg11.dtd">
<svg width="117px" height="140px" viewBox="0 0 117 140" version="1.1" xmlns="http://www.w3.org/2000/svg">
<g id="#000000ff">
<path fill="#000000" opacity="1.00" d=" M 0.00 0.00 L 117.00 0.00 L 117.00 140.00 L 0.00 140.00 L 0.00 0.00 M 33.20 10.22 C 17.93 11.76 5.18 25.62 5.02 40.99 C 4.99 60.35 4.99 79.71 5.02 99.08 C 5.19 115.03 19.02 129.28 34.96 129.93 C 50.66 130.08 66.36 129.99 82.05 129.97 C 98.01 129.83 112.27 116.00 112.93 100.06 C 113.09 80.70 112.95 61.33 113.00 41.97 C 113.06 33.34 109.36 24.79 103.09 18.87 C 96.99 12.94 88.43 9.74 79.95 9.98 C 64.37 10.16 48.76 9.70 33.20 10.22 Z" />
<path fill="#000000" opacity="1.00" d=" M 33.26 12.34 C 48.84 11.72 64.46 12.24 80.06 12.07 C 90.61 11.76 101.18 17.33 106.53 26.48 C 109.64 31.40 111.05 37.25 110.93 43.04 C 110.92 61.38 110.96 79.72 110.90 98.06 C 111.00 109.02 104.47 119.74 94.63 124.60 C 89.87 127.18 84.38 128.02 79.02 127.94 C 64.32 127.84 49.62 128.09 34.93 127.82 C 20.13 127.15 7.30 113.93 7.13 99.11 C 7.03 79.72 7.03 60.34 7.13 40.96 C 7.31 26.72 19.10 13.81 33.26 12.34 M 50.83 29.54 C 44.98 30.94 39.43 36.65 40.93 43.00 C 42.70 48.96 49.10 51.63 54.71 52.62 C 55.89 54.28 53.39 54.84 52.22 55.14 C 48.94 55.89 46.05 54.04 43.04 53.17 C 39.20 52.58 35.72 56.26 36.05 60.01 C 36.50 63.74 38.25 67.35 41.05 69.89 C 44.57 73.08 50.54 73.65 54.00 70.07 C 57.75 67.01 58.54 62.12 60.04 57.84 C 63.32 60.18 62.45 64.78 60.90 67.90 C 59.71 70.04 59.77 72.74 61.36 74.66 C 63.93 78.12 69.02 77.31 72.38 75.56 C 77.30 73.41 81.01 67.50 78.92 62.18 C 76.56 56.85 70.68 54.61 65.35 53.60 C 64.61 51.51 67.53 51.23 68.93 51.09 C 72.83 50.28 76.12 54.31 79.97 52.76 C 82.28 51.90 84.15 49.57 84.01 47.04 C 84.14 40.22 78.29 32.94 71.04 33.76 C 64.67 35.11 61.36 41.92 60.73 47.88 C 60.36 47.82 59.63 47.69 59.26 47.63 C 54.89 42.77 62.56 36.93 59.09 31.95 C 57.34 29.26 53.73 28.44 50.83 29.54 Z" />
<path fill="#000000" opacity="1.00" d=" M 44.66 42.10 C 44.09 37.01 49.31 33.21 53.95 33.04 C 55.84 33.17 56.65 35.36 55.60 36.84 C 53.86 40.56 53.50 44.74 54.90 48.64 C 50.80 47.97 46.56 46.01 44.66 42.10 Z" />
<path fill="#000000" opacity="1.00" d=" M 64.36 48.68 C 65.41 44.33 66.97 38.75 72.00 37.63 C 76.69 37.75 80.00 42.60 80.02 46.97 C 80.28 48.56 78.15 49.68 76.86 48.81 C 72.95 47.19 68.07 45.87 64.36 48.68 Z" />
<path fill="#000000" opacity="1.00" d=" M 57.76 53.91 C 56.82 52.20 59.10 51.28 59.96 50.24 C 61.00 51.06 63.41 52.24 62.34 53.90 C 61.81 56.19 58.50 56.00 57.76 53.91 Z" />
<path fill="#000000" opacity="1.00" d=" M 40.14 60.72 C 39.54 59.09 40.88 56.47 42.83 57.27 C 46.83 59.05 51.41 60.14 55.59 58.20 C 54.90 62.23 53.13 66.68 49.17 68.49 C 44.52 69.33 41.03 64.77 40.14 60.72 Z" />
<path fill="#000000" opacity="1.00" d=" M 65.40 57.68 C 69.34 58.40 73.53 60.15 75.42 63.95 C 76.40 69.60 70.12 73.68 65.01 73.02 C 64.74 72.51 64.19 71.48 63.91 70.97 C 66.15 66.91 66.94 62.14 65.40 57.68 Z" />
</g>
<g id="#717171ff">
<path fill="#717171" opacity="1.00" d=" M 33.20 10.22 C 48.76 9.70 64.37 10.16 79.95 9.98 C 88.43 9.74 96.99 12.94 103.09 18.87 C 109.36 24.79 113.06 33.34 113.00 41.97 C 112.95 61.33 113.09 80.70 112.93 100.06 C 112.27 116.00 98.01 129.83 82.05 129.97 C 66.36 129.99 50.66 130.08 34.96 129.93 C 19.02 129.28 5.19 115.03 5.02 99.08 C 4.99 79.71 4.99 60.35 5.02 40.99 C 5.18 25.62 17.93 11.76 33.20 10.22 M 33.26 12.34 C 19.10 13.81 7.31 26.72 7.13 40.96 C 7.03 60.34 7.03 79.72 7.13 99.11 C 7.30 113.93 20.13 127.15 34.93 127.82 C 49.62 128.09 64.32 127.84 79.02 127.94 C 84.38 128.02 89.87 127.18 94.63 124.60 C 104.47 119.74 111.00 109.02 110.90 98.06 C 110.96 79.72 110.92 61.38 110.93 43.04 C 111.05 37.25 109.64 31.40 106.53 26.48 C 101.18 17.33 90.61 11.76 80.06 12.07 C 64.46 12.24 48.84 11.72 33.26 12.34 Z" />
</g>
<g id="#f8fcf8ff">
<path fill="#f8fcf8" opacity="1.00" d=" M 50.83 29.54 C 53.73 28.44 57.34 29.26 59.09 31.95 C 62.56 36.93 54.89 42.77 59.26 47.63 C 59.63 47.69 60.36 47.82 60.73 47.88 C 61.36 41.92 64.67 35.11 71.04 33.76 C 78.29 32.94 84.14 40.22 84.01 47.04 C 84.15 49.57 82.28 51.90 79.97 52.76 C 76.12 54.31 72.83 50.28 68.93 51.09 C 67.53 51.23 64.61 51.51 65.35 53.60 C 70.68 54.61 76.56 56.85 78.92 62.18 C 81.01 67.50 77.30 73.41 72.38 75.56 C 69.02 77.31 63.93 78.12 61.36 74.66 C 59.77 72.74 59.71 70.04 60.90 67.90 C 62.45 64.78 63.32 60.18 60.04 57.84 C 58.54 62.12 57.75 67.01 54.00 70.07 C 50.54 73.65 44.57 73.08 41.05 69.89 C 38.25 67.35 36.50 63.74 36.05 60.01 C 35.72 56.26 39.20 52.58 43.04 53.17 C 46.05 54.04 48.94 55.89 52.22 55.14 C 53.39 54.84 55.89 54.28 54.71 52.62 C 49.10 51.63 42.70 48.96 40.93 43.00 C 39.43 36.65 44.98 30.94 50.83 29.54 M 44.66 42.10 C 46.56 46.01 50.80 47.97 54.90 48.64 C 53.50 44.74 53.86 40.56 55.60 36.84 C 56.65 35.36 55.84 33.17 53.95 33.04 C 49.31 33.21 44.09 37.01 44.66 42.10 M 64.36 48.68 C 68.07 45.87 72.95 47.19 76.86 48.81 C 78.15 49.68 80.28 48.56 80.02 46.97 C 80.00 42.60 76.69 37.75 72.00 37.63 C 66.97 38.75 65.41 44.33 64.36 48.68 M 57.76 53.91 C 58.50 56.00 61.81 56.19 62.34 53.90 C 63.41 52.24 61.00 51.06 59.96 50.24 C 59.10 51.28 56.82 52.20 57.76 53.91 M 40.14 60.72 C 41.03 64.77 44.52 69.33 49.17 68.49 C 53.13 66.68 54.90 62.23 55.59 58.20 C 51.41 60.14 46.83 59.05 42.83 57.27 C 40.88 56.47 39.54 59.09 40.14 60.72 M 65.40 57.68 C 66.94 62.14 66.15 66.91 63.91 70.97 C 64.19 71.48 64.74 72.51 65.01 73.02 C 70.12 73.68 76.40 69.60 75.42 63.95 C 73.53 60.15 69.34 58.40 65.40 57.68 Z" />
</g>
</svg>
