<?xml version="1.0" encoding="UTF-8" ?>
<!DOCTYPE svg PUBLIC "-//W3C//DTD SVG 1.1//EN" "http://www.w3.org/Graphics/SVG/1.1/DTD/svg11.dtd">
<svg width="117pt" height="92pt" viewBox="0 0 117 92" version="1.1" xmlns="http://www.w3.org/2000/svg">
<g id="#000000ff">
<path fill="#000000" opacity="1.00" d=" M 0.00 0.00 L 117.00 0.00 L 117.00 92.00 L 0.00 92.00 L 0.00 0.00 M 30.41 8.48 C 15.79 10.73 4.23 24.36 4.00 39.08 C 4.22 46.44 3.06 54.10 5.71 61.17 C 9.67 73.95 22.62 83.18 35.96 83.02 C 50.65 82.98 65.33 83.02 80.02 83.00 C 94.22 83.16 107.70 72.91 110.96 59.02 C 112.54 53.16 111.88 47.05 112.02 41.07 C 112.15 32.85 109.37 24.43 103.60 18.46 C 97.70 11.83 88.90 7.97 80.03 7.99 C 65.71 7.99 51.39 8.03 37.07 7.97 C 34.84 7.97 32.60 8.07 30.41 8.48 Z" />
<path fill="#000000" opacity="1.00" d=" M 29.46 10.70 C 31.93 10.12 34.46 9.96 36.99 9.99 C 51.68 10.05 66.37 9.94 81.06 10.04 C 93.35 10.19 104.70 19.01 108.50 30.59 C 110.81 37.12 109.76 44.15 110.01 50.92 C 110.45 66.52 96.68 80.86 81.05 80.97 C 65.33 80.99 49.61 81.08 33.89 80.93 C 19.04 80.27 6.20 66.86 6.03 52.03 C 6.19 44.58 5.16 36.85 7.78 29.69 C 11.32 20.34 19.61 12.79 29.46 10.70 M 55.74 30.50 C 53.00 34.92 47.38 36.28 43.57 39.62 C 41.16 42.26 35.67 42.25 36.12 46.78 C 42.68 49.98 48.38 54.60 54.58 58.40 C 55.79 59.06 56.81 60.08 57.12 61.47 C 58.49 61.48 59.86 61.48 61.23 61.48 C 61.18 58.03 61.24 54.57 61.48 51.12 C 64.98 51.13 68.62 51.45 71.66 53.37 C 74.02 54.92 77.13 56.15 78.02 59.10 C 78.53 60.83 79.67 62.25 81.48 62.75 C 81.63 60.05 81.79 57.34 81.76 54.64 C 79.46 52.27 79.26 48.58 76.59 46.45 C 73.10 42.05 67.75 39.88 62.27 39.42 C 60.04 36.89 61.80 32.98 61.28 29.91 C 59.42 30.00 57.57 30.18 55.74 30.50 Z" />
</g>
<g id="#737574ff">
<path fill="#737574" opacity="1.00" d=" M 30.41 8.48 C 32.60 8.07 34.84 7.97 37.07 7.97 C 51.39 8.03 65.71 7.99 80.03 7.99 C 88.90 7.97 97.70 11.83 103.60 18.46 C 109.37 24.43 112.15 32.85 112.02 41.07 C 111.88 47.05 112.54 53.16 110.96 59.02 C 107.70 72.91 94.22 83.16 80.02 83.00 C 65.33 83.02 50.65 82.98 35.96 83.02 C 22.62 83.18 9.67 73.95 5.71 61.17 C 3.06 54.10 4.22 46.44 4.00 39.08 C 4.23 24.36 15.79 10.73 30.41 8.48 M 29.46 10.70 C 19.61 12.79 11.32 20.34 7.78 29.69 C 5.16 36.85 6.19 44.58 6.03 52.03 C 6.20 66.86 19.04 80.27 33.89 80.93 C 49.61 81.08 65.33 80.99 81.05 80.97 C 96.68 80.86 110.45 66.52 110.01 50.92 C 109.76 44.15 110.81 37.12 108.50 30.59 C 104.70 19.01 93.35 10.19 81.06 10.04 C 66.37 9.94 51.68 10.05 36.99 9.99 C 34.46 9.96 31.93 10.12 29.46 10.70 Z" />
</g>
<g id="#e86010ff">
<path fill="#e86010" opacity="1.00" d=" M 55.74 30.50 C 57.57 30.18 59.42 30.00 61.28 29.91 C 61.80 32.98 60.04 36.89 62.27 39.42 C 67.75 39.88 73.10 42.05 76.59 46.45 C 79.26 48.58 79.46 52.27 81.76 54.64 C 81.79 57.34 81.63 60.05 81.48 62.75 C 79.67 62.25 78.53 60.83 78.02 59.10 C 77.13 56.15 74.02 54.92 71.66 53.37 C 68.62 51.45 64.98 51.13 61.48 51.12 C 61.24 54.57 61.18 58.03 61.23 61.48 C 59.86 61.48 58.49 61.48 57.12 61.47 C 56.81 60.08 55.79 59.06 54.58 58.40 C 48.38 54.60 42.68 49.98 36.12 46.78 C 35.67 42.25 41.16 42.26 43.57 39.62 C 47.38 36.28 53.00 34.92 55.74 30.50 Z" />
</g>
</svg>
