<?xml version="1.0" encoding="UTF-8" ?>
<!DOCTYPE svg PUBLIC "-//W3C//DTD SVG 1.1//EN" "http://www.w3.org/Graphics/SVG/1.1/DTD/svg11.dtd">
<svg width="117px" height="140px" viewBox="0 0 117 140" version="1.1" xmlns="http://www.w3.org/2000/svg">
<g id="#000000ff">
<path fill="#000000" opacity="1.00" d=" M 0.00 0.00 L 117.00 0.00 L 117.00 140.00 L 0.00 140.00 L 0.00 0.00 M 31.18 10.25 C 16.40 12.46 4.22 25.92 4.04 40.96 C 3.97 60.32 3.97 79.68 4.04 99.05 C 4.20 115.02 18.06 129.28 33.99 129.99 C 50.32 130.01 66.66 130.01 82.99 129.99 C 98.96 129.35 112.86 114.99 112.98 99.00 C 113.02 79.66 113.02 60.31 112.98 40.96 C 112.85 24.61 98.30 10.03 81.94 9.99 C 65.03 10.18 48.08 9.66 31.18 10.25 Z" />
<path fill="#000000" opacity="1.00" d=" M 33.36 12.40 C 48.56 11.65 63.82 12.27 79.04 12.07 C 89.60 11.85 100.24 17.24 105.62 26.44 C 108.72 31.37 110.13 37.21 110.00 43.00 C 109.99 61.36 110.03 79.71 109.98 98.06 C 110.10 108.54 104.14 118.81 94.99 123.90 C 89.88 126.97 83.83 127.94 77.95 127.94 C 64.28 127.89 50.60 127.98 36.93 127.90 C 26.77 127.80 16.66 122.43 11.50 113.58 C 8.59 108.94 7.07 103.48 7.09 98.00 C 7.04 79.65 7.09 61.31 7.07 42.96 C 6.33 28.00 18.40 13.80 33.36 12.40 M 59.26 26.89 C 55.25 30.94 51.20 34.94 47.19 38.99 C 48.07 39.83 48.96 40.67 49.85 41.51 C 51.18 41.48 52.52 41.45 53.86 41.42 C 53.84 43.32 53.83 45.23 53.82 47.14 C 51.99 47.14 50.17 47.14 48.34 47.14 C 48.08 45.38 47.75 43.63 47.32 41.91 C 46.85 41.60 45.91 40.98 45.44 40.66 C 41.51 44.78 37.34 48.67 33.46 52.83 C 37.80 56.60 41.53 61.01 45.85 64.80 C 46.63 63.89 47.41 62.97 48.20 62.07 C 48.16 60.75 48.13 59.44 48.10 58.13 C 50.02 58.14 51.95 58.14 53.87 58.13 C 53.86 60.05 53.86 61.98 53.87 63.90 C 52.56 63.87 51.24 63.83 49.93 63.80 C 49.02 64.59 48.11 65.37 47.20 66.16 C 51.09 70.43 55.30 74.39 59.37 78.49 C 63.36 74.52 67.31 70.51 71.34 66.59 C 71.02 66.10 70.39 65.14 70.07 64.66 C 68.36 64.24 66.63 63.92 64.90 63.66 C 64.89 61.84 64.89 60.01 64.89 58.19 C 66.76 58.17 68.64 58.15 70.51 58.13 C 70.51 59.51 70.52 60.89 70.54 62.27 C 71.37 63.11 72.20 63.96 73.02 64.80 C 77.09 60.81 81.11 56.76 85.13 52.72 C 81.44 48.74 77.64 44.83 73.63 41.19 C 70.69 40.56 70.44 45.02 70.32 47.10 C 68.62 47.13 66.91 47.15 65.21 47.18 C 64.97 45.34 64.88 43.48 64.86 41.63 C 66.94 41.54 71.50 41.33 70.80 38.36 C 67.14 34.37 63.29 30.52 59.26 26.89 Z" />
<path fill="#000000" opacity="1.00" d=" M 52.11 38.48 C 54.59 36.09 57.01 33.66 59.42 31.20 C 61.75 33.67 64.16 36.09 66.64 38.42 C 65.03 38.38 63.41 38.35 61.80 38.32 C 61.84 42.28 61.84 46.24 61.81 50.20 C 65.76 50.16 69.71 50.15 73.66 50.21 C 73.65 48.61 73.63 47.01 73.60 45.41 C 75.95 47.86 78.35 50.26 80.81 52.61 C 78.36 55.00 75.93 57.43 73.54 59.88 C 73.58 58.31 73.62 56.74 73.65 55.17 C 69.71 55.11 65.76 55.12 61.82 55.14 C 61.83 59.07 61.83 63.00 61.83 66.93 C 63.38 66.92 64.94 66.92 66.49 66.91 C 64.09 69.27 61.72 71.64 59.38 74.06 C 56.93 71.71 54.56 69.28 52.14 66.90 C 53.70 66.90 55.26 66.90 56.83 66.89 C 56.90 62.98 56.90 59.07 56.83 55.17 C 52.94 55.11 49.04 55.11 45.14 55.16 C 45.12 56.73 45.10 58.29 45.09 59.85 C 42.72 57.42 40.24 55.09 37.96 52.57 C 40.40 50.29 42.76 47.91 45.11 45.53 C 45.11 47.08 45.11 48.63 45.11 50.18 C 49.03 50.17 52.95 50.17 56.87 50.18 C 56.88 46.24 56.89 42.29 56.83 38.35 C 55.26 38.38 53.68 38.43 52.11 38.48 Z" />
</g>
<g id="#707470ff">
<path fill="#707470" opacity="1.00" d=" M 31.18 10.25 C 48.08 9.66 65.03 10.18 81.94 9.99 C 98.30 10.03 112.85 24.61 112.98 40.96 C 113.02 60.31 113.02 79.66 112.98 99.00 C 112.86 114.99 98.96 129.35 82.99 129.99 C 66.66 130.01 50.32 130.01 33.99 129.99 C 18.06 129.28 4.20 115.02 4.04 99.05 C 3.97 79.68 3.97 60.32 4.04 40.96 C 4.22 25.92 16.40 12.46 31.18 10.25 M 33.36 12.40 C 18.40 13.80 6.33 28.00 7.07 42.96 C 7.09 61.31 7.04 79.65 7.09 98.00 C 7.07 103.48 8.59 108.94 11.50 113.58 C 16.66 122.43 26.77 127.80 36.93 127.90 C 50.60 127.98 64.28 127.89 77.95 127.94 C 83.83 127.94 89.88 126.97 94.99 123.90 C 104.14 118.81 110.10 108.54 109.98 98.06 C 110.03 79.71 109.99 61.36 110.00 43.00 C 110.13 37.21 108.72 31.37 105.62 26.44 C 100.24 17.24 89.60 11.85 79.04 12.07 C 63.82 12.27 48.56 11.65 33.36 12.40 Z" />
</g>
<g id="#e86010ff">
<path fill="#e86010" opacity="1.00" d=" M 59.26 26.89 C 63.29 30.52 67.14 34.37 70.80 38.36 C 71.50 41.33 66.94 41.54 64.86 41.63 C 64.88 43.48 64.97 45.34 65.21 47.18 C 66.91 47.15 68.62 47.13 70.32 47.10 C 70.44 45.02 70.69 40.56 73.63 41.19 C 77.64 44.83 81.44 48.74 85.13 52.72 C 81.11 56.76 77.09 60.81 73.02 64.80 C 72.20 63.96 71.37 63.11 70.54 62.27 C 70.52 60.89 70.51 59.51 70.51 58.13 C 68.64 58.15 66.76 58.17 64.89 58.19 C 64.89 60.01 64.89 61.84 64.90 63.66 C 66.63 63.92 68.36 64.24 70.07 64.66 C 70.39 65.14 71.02 66.10 71.34 66.59 C 67.31 70.51 63.36 74.52 59.37 78.49 C 55.30 74.39 51.09 70.43 47.20 66.16 C 48.11 65.37 49.02 64.59 49.93 63.80 C 51.24 63.83 52.56 63.87 53.87 63.90 C 53.86 61.98 53.86 60.05 53.87 58.13 C 51.95 58.14 50.02 58.14 48.10 58.13 C 48.13 59.44 48.16 60.75 48.20 62.07 C 47.41 62.97 46.63 63.89 45.85 64.80 C 41.53 61.01 37.80 56.60 33.46 52.83 C 37.34 48.67 41.51 44.78 45.44 40.66 C 45.91 40.98 46.85 41.60 47.32 41.91 C 47.75 43.63 48.08 45.38 48.34 47.14 C 50.17 47.14 51.99 47.14 53.82 47.14 C 53.83 45.23 53.84 43.32 53.86 41.42 C 52.52 41.45 51.18 41.48 49.85 41.51 C 48.96 40.67 48.07 39.83 47.19 38.99 C 51.20 34.94 55.25 30.94 59.26 26.89 M 52.11 38.48 C 53.68 38.43 55.26 38.38 56.83 38.35 C 56.89 42.29 56.88 46.24 56.87 50.18 C 52.95 50.17 49.03 50.17 45.11 50.18 C 45.11 48.63 45.11 47.08 45.11 45.53 C 42.76 47.91 40.40 50.29 37.96 52.57 C 40.24 55.09 42.72 57.42 45.09 59.85 C 45.10 58.29 45.12 56.73 45.14 55.16 C 49.04 55.11 52.94 55.11 56.83 55.17 C 56.90 59.07 56.90 62.98 56.83 66.89 C 55.26 66.90 53.70 66.90 52.14 66.90 C 54.56 69.28 56.93 71.71 59.38 74.06 C 61.72 71.64 64.09 69.27 66.49 66.91 C 64.94 66.92 63.38 66.92 61.83 66.93 C 61.83 63.00 61.83 59.07 61.82 55.14 C 65.76 55.12 69.71 55.11 73.65 55.17 C 73.62 56.74 73.58 58.31 73.54 59.88 C 75.93 57.43 78.36 55.00 80.81 52.61 C 78.35 50.26 75.95 47.86 73.60 45.41 C 73.63 47.01 73.65 48.61 73.66 50.21 C 69.71 50.15 65.76 50.16 61.81 50.20 C 61.84 46.24 61.84 42.28 61.80 38.32 C 63.41 38.35 65.03 38.38 66.64 38.42 C 64.16 36.09 61.75 33.67 59.42 31.20 C 57.01 33.66 54.59 36.09 52.11 38.48 Z" />
</g>
</svg>
