<?xml version="1.0" encoding="UTF-8" ?>
<!DOCTYPE svg PUBLIC "-//W3C//DTD SVG 1.1//EN" "http://www.w3.org/Graphics/SVG/1.1/DTD/svg11.dtd">
<svg width="117pt" height="140pt" viewBox="0 0 117 140" version="1.1" xmlns="http://www.w3.org/2000/svg">
<g id="#000000ff">
<path fill="#000000" opacity="1.00" d=" M 0.00 0.00 L 117.00 0.00 L 117.00 140.00 L 0.00 140.00 L 0.00 0.00 M 33.15 10.22 C 17.93 11.79 5.21 25.60 5.02 40.92 C 4.98 60.31 4.99 79.71 5.02 99.10 C 5.20 115.02 18.98 129.24 34.89 129.93 C 50.58 130.09 66.29 129.99 81.98 129.97 C 97.96 129.87 112.27 116.03 112.93 100.07 C 113.10 80.71 112.95 61.34 113.00 41.97 C 113.09 32.19 108.28 22.59 100.52 16.66 C 94.46 11.91 86.66 9.65 78.99 9.98 C 63.71 10.18 48.42 9.69 33.15 10.22 Z" />
<path fill="#000000" opacity="1.00" d=" M 33.31 12.34 C 48.85 11.73 64.43 12.24 79.99 12.07 C 87.22 11.90 94.44 14.32 100.04 18.92 C 106.80 24.51 110.99 33.17 110.90 41.98 C 110.95 60.65 110.95 79.32 110.91 98.00 C 111.01 108.45 105.11 118.75 95.98 123.86 C 91.19 126.75 85.56 127.97 80.00 127.93 C 65.67 127.92 51.33 127.96 37.00 127.91 C 26.56 127.98 16.25 122.12 11.15 112.99 C 8.25 108.19 6.96 102.55 7.07 96.97 C 7.11 78.31 6.99 59.63 7.13 40.97 C 7.31 26.71 19.12 13.78 33.31 12.34 M 53.60 27.73 C 53.61 29.37 53.64 31.00 53.68 32.64 C 51.81 33.09 50.04 33.83 48.36 34.76 C 47.10 33.58 45.86 32.39 44.58 31.23 C 42.18 33.76 39.75 36.25 37.20 38.62 C 38.35 39.83 39.50 41.05 40.62 42.29 C 39.84 44.05 39.14 45.85 38.63 47.71 C 37.02 47.66 35.40 47.63 33.78 47.60 C 33.33 51.18 33.33 54.82 33.78 58.40 C 35.40 58.37 37.01 58.34 38.63 58.29 C 39.13 60.15 39.82 61.96 40.61 63.72 C 39.50 64.97 38.35 66.18 37.24 67.43 C 39.76 69.80 42.22 72.23 44.56 74.78 C 45.85 73.62 47.10 72.43 48.36 71.24 C 50.04 72.17 51.83 72.88 53.69 73.37 C 53.64 75.00 53.61 76.63 53.59 78.27 C 57.19 78.63 60.83 78.68 64.43 78.23 C 64.39 76.61 64.36 74.99 64.31 73.37 C 66.18 72.90 67.96 72.16 69.65 71.24 C 70.90 72.43 72.15 73.62 73.43 74.78 C 75.78 72.24 78.23 69.80 80.75 67.44 C 79.65 66.18 78.50 64.96 77.39 63.70 C 78.16 61.94 78.86 60.15 79.48 58.33 C 81.05 58.35 82.63 58.37 84.21 58.39 C 84.69 54.83 84.62 51.21 84.27 47.64 C 82.68 47.64 81.08 47.65 79.48 47.66 C 78.88 45.89 78.18 44.15 77.37 42.47 C 78.45 41.12 79.60 39.83 80.75 38.54 C 78.21 36.20 75.79 33.74 73.42 31.23 C 72.15 32.39 70.90 33.57 69.65 34.75 C 67.95 33.85 66.15 33.14 64.30 32.63 C 64.36 31.01 64.40 29.40 64.44 27.79 C 60.84 27.30 57.20 27.37 53.60 27.73 Z" />
<path fill="#000000" opacity="1.00" d=" M 56.88 30.77 C 58.29 30.77 59.70 30.77 61.10 30.77 C 61.14 32.39 61.15 34.01 61.20 35.64 C 64.33 36.18 67.20 37.53 69.90 39.15 C 71.05 37.99 72.18 36.81 73.34 35.66 C 74.33 36.67 75.33 37.67 76.35 38.66 C 75.19 39.82 74.01 40.94 72.84 42.08 C 74.45 44.80 75.77 47.69 76.37 50.81 C 78.00 50.83 79.63 50.84 81.26 50.85 C 81.26 52.28 81.26 53.72 81.26 55.16 C 79.64 55.16 78.01 55.17 76.39 55.18 C 75.76 58.29 74.48 61.19 72.83 63.89 C 74.00 65.04 75.18 66.18 76.34 67.34 C 75.33 68.33 74.33 69.33 73.34 70.34 C 72.18 69.19 71.05 68.01 69.90 66.85 C 67.20 68.49 64.29 69.77 61.18 70.39 C 61.15 72.00 61.13 73.61 61.11 75.23 C 59.70 75.23 58.29 75.23 56.88 75.23 C 56.87 73.62 56.85 72.01 56.83 70.40 C 53.71 69.77 50.80 68.48 48.08 66.86 C 46.94 68.02 45.81 69.19 44.66 70.35 C 43.67 69.33 42.66 68.33 41.65 67.34 C 42.81 66.19 43.99 65.05 45.16 63.91 C 43.55 61.20 42.23 58.32 41.65 55.21 C 40.01 55.18 38.37 55.16 36.74 55.14 C 36.74 53.71 36.74 52.28 36.74 50.85 C 38.36 50.84 39.99 50.83 41.62 50.81 C 42.24 47.71 43.53 44.81 45.16 42.11 C 44.00 40.96 42.82 39.82 41.66 38.67 C 42.67 37.67 43.67 36.67 44.66 35.65 C 45.81 36.81 46.95 37.98 48.09 39.15 C 50.81 37.53 53.70 36.19 56.83 35.60 C 56.85 33.99 56.87 32.38 56.88 30.77 M 57.32 43.39 C 49.98 44.50 46.31 54.74 52.17 59.77 C 56.77 65.18 66.16 62.66 68.21 56.12 C 70.90 49.58 64.12 41.90 57.32 43.39 Z" />
<path fill="#000000" opacity="1.00" d=" M 54.11 48.12 C 57.17 46.08 60.83 46.06 63.88 48.12 C 65.95 51.15 65.88 54.85 63.87 57.89 C 60.83 59.94 57.18 59.91 54.13 57.90 C 52.12 54.85 52.05 51.16 54.11 48.12 Z" />
</g>
<g id="#717171ff">
<path fill="#717171" opacity="1.00" d=" M 33.15 10.22 C 48.42 9.69 63.71 10.18 78.99 9.98 C 86.66 9.65 94.46 11.91 100.52 16.66 C 108.28 22.59 113.09 32.19 113.00 41.97 C 112.95 61.34 113.10 80.71 112.93 100.07 C 112.27 116.03 97.96 129.87 81.98 129.97 C 66.29 129.99 50.58 130.09 34.89 129.93 C 18.98 129.24 5.20 115.02 5.02 99.10 C 4.99 79.71 4.98 60.31 5.02 40.92 C 5.21 25.60 17.93 11.79 33.15 10.22 M 33.31 12.34 C 19.12 13.78 7.31 26.71 7.13 40.97 C 6.99 59.63 7.11 78.31 7.07 96.97 C 6.96 102.55 8.25 108.19 11.15 112.99 C 16.25 122.12 26.56 127.98 37.00 127.91 C 51.33 127.96 65.67 127.92 80.00 127.93 C 85.56 127.97 91.19 126.75 95.98 123.86 C 105.11 118.75 111.01 108.45 110.91 98.00 C 110.95 79.32 110.95 60.65 110.90 41.98 C 110.99 33.17 106.80 24.51 100.04 18.92 C 94.44 14.32 87.22 11.90 79.99 12.07 C 64.43 12.24 48.85 11.73 33.31 12.34 Z" />
</g>
<g id="#f8fcf8ff">
<path fill="#f8fcf8" opacity="1.00" d=" M 53.60 27.73 C 57.20 27.37 60.84 27.30 64.44 27.79 C 64.40 29.40 64.36 31.01 64.30 32.63 C 66.15 33.14 67.95 33.85 69.65 34.75 C 70.90 33.57 72.15 32.39 73.42 31.23 C 75.79 33.74 78.21 36.20 80.75 38.54 C 79.60 39.83 78.45 41.12 77.37 42.47 C 78.18 44.15 78.88 45.89 79.48 47.66 C 81.08 47.65 82.68 47.64 84.27 47.64 C 84.62 51.21 84.69 54.83 84.21 58.39 C 82.63 58.37 81.05 58.35 79.48 58.33 C 78.86 60.15 78.16 61.94 77.39 63.70 C 78.50 64.96 79.65 66.18 80.75 67.44 C 78.23 69.80 75.78 72.24 73.43 74.78 C 72.15 73.62 70.90 72.43 69.65 71.24 C 67.96 72.16 66.18 72.90 64.31 73.37 C 64.36 74.99 64.39 76.61 64.43 78.23 C 60.83 78.68 57.19 78.63 53.59 78.27 C 53.61 76.63 53.64 75.00 53.69 73.37 C 51.83 72.88 50.04 72.17 48.36 71.24 C 47.10 72.43 45.85 73.62 44.56 74.78 C 42.22 72.23 39.76 69.80 37.24 67.43 C 38.35 66.18 39.50 64.97 40.61 63.72 C 39.82 61.96 39.13 60.15 38.63 58.29 C 37.01 58.34 35.40 58.37 33.78 58.40 C 33.33 54.82 33.33 51.18 33.78 47.60 C 35.40 47.63 37.02 47.66 38.63 47.71 C 39.14 45.85 39.84 44.05 40.62 42.29 C 39.50 41.05 38.35 39.83 37.20 38.62 C 39.75 36.25 42.18 33.76 44.58 31.23 C 45.86 32.39 47.10 33.58 48.36 34.76 C 50.04 33.83 51.81 33.09 53.68 32.64 C 53.64 31.00 53.61 29.37 53.60 27.73 M 56.88 30.77 C 56.87 32.38 56.85 33.99 56.83 35.60 C 53.70 36.19 50.81 37.53 48.09 39.15 C 46.95 37.98 45.81 36.81 44.66 35.65 C 43.67 36.67 42.67 37.67 41.66 38.67 C 42.82 39.82 44.00 40.96 45.16 42.11 C 43.53 44.81 42.24 47.71 41.62 50.81 C 39.99 50.83 38.36 50.84 36.74 50.85 C 36.74 52.28 36.74 53.71 36.74 55.14 C 38.37 55.16 40.01 55.18 41.65 55.21 C 42.23 58.32 43.55 61.20 45.16 63.91 C 43.99 65.05 42.81 66.19 41.65 67.34 C 42.66 68.33 43.67 69.33 44.66 70.35 C 45.81 69.19 46.94 68.02 48.08 66.86 C 50.80 68.48 53.71 69.77 56.83 70.40 C 56.85 72.01 56.87 73.62 56.88 75.23 C 58.29 75.23 59.70 75.23 61.11 75.23 C 61.13 73.61 61.15 72.00 61.18 70.39 C 64.29 69.77 67.20 68.49 69.90 66.85 C 71.05 68.01 72.18 69.19 73.34 70.34 C 74.33 69.33 75.33 68.33 76.34 67.34 C 75.18 66.18 74.00 65.04 72.83 63.89 C 74.48 61.19 75.76 58.29 76.39 55.18 C 78.01 55.17 79.64 55.16 81.26 55.16 C 81.26 53.72 81.26 52.28 81.26 50.85 C 79.63 50.84 78.00 50.83 76.37 50.81 C 75.77 47.69 74.45 44.80 72.84 42.08 C 74.01 40.94 75.19 39.82 76.35 38.66 C 75.33 37.67 74.33 36.67 73.34 35.66 C 72.18 36.81 71.05 37.99 69.90 39.15 C 67.20 37.53 64.33 36.18 61.20 35.64 C 61.15 34.01 61.14 32.39 61.10 30.77 C 59.70 30.77 58.29 30.77 56.88 30.77 Z" />
<path fill="#f8fcf8" opacity="1.00" d=" M 57.32 43.39 C 64.12 41.90 70.90 49.58 68.21 56.12 C 66.16 62.66 56.77 65.18 52.17 59.77 C 46.31 54.74 49.98 44.50 57.32 43.39 M 54.11 48.12 C 52.05 51.16 52.12 54.85 54.13 57.90 C 57.18 59.91 60.83 59.94 63.87 57.89 C 65.88 54.85 65.95 51.15 63.88 48.12 C 60.83 46.06 57.17 46.08 54.11 48.12 Z" />
</g>
</svg>
