<?xml version="1.0" encoding="UTF-8" ?>
<!DOCTYPE svg PUBLIC "-//W3C//DTD SVG 1.1//EN" "http://www.w3.org/Graphics/SVG/1.1/DTD/svg11.dtd">
<svg width="117px" height="140px" viewBox="0 0 117 140" version="1.1" xmlns="http://www.w3.org/2000/svg">
<g id="#000000ff">
<path fill="#000000" opacity="1.00" d=" M 0.00 0.00 L 117.00 0.00 L 117.00 140.00 L 0.00 140.00 L 0.00 0.00 M 33.19 10.25 C 17.92 11.78 5.19 25.66 5.03 41.02 C 4.98 60.34 4.98 79.67 5.03 98.99 C 5.17 114.94 18.95 129.21 34.88 129.90 C 50.26 130.12 65.66 129.96 81.04 129.98 C 94.65 130.19 107.55 120.63 111.51 107.64 C 112.86 103.59 113.05 99.27 113.01 95.03 C 112.97 77.35 113.03 59.66 112.98 41.97 C 113.03 33.34 109.34 24.80 103.07 18.88 C 96.98 12.97 88.46 9.79 79.99 9.99 C 64.39 10.17 48.77 9.67 33.19 10.25 Z" />
<path fill="#000000" opacity="1.00" d=" M 33.29 12.30 C 49.50 11.77 65.75 12.14 81.98 12.10 C 97.21 12.17 110.82 25.70 110.89 40.94 C 110.99 60.31 110.99 79.68 110.89 99.04 C 110.83 114.28 97.25 127.83 82.02 127.89 C 66.66 128.00 51.29 127.97 35.93 127.90 C 20.74 127.78 7.21 114.30 7.10 99.10 C 7.02 79.70 7.02 60.31 7.10 40.92 C 7.24 26.66 19.13 13.75 33.29 12.30 M 40.07 28.18 C 40.07 34.02 40.16 39.85 40.04 45.69 C 37.72 45.67 35.39 45.68 33.07 45.72 C 33.38 50.39 32.85 55.09 33.37 59.74 C 35.58 63.34 40.54 60.75 43.81 61.96 C 46.69 64.66 49.52 67.44 52.22 70.32 C 48.59 70.34 44.96 70.29 41.34 70.36 C 41.39 72.90 41.40 75.45 41.34 78.00 C 49.53 77.83 57.76 78.36 65.93 77.71 C 65.70 77.24 65.25 76.29 65.03 75.81 C 58.08 75.49 51.10 75.77 44.14 75.68 C 44.10 75.04 44.02 73.76 43.99 73.12 C 47.60 72.91 51.21 73.08 54.83 72.95 C 54.83 72.25 54.84 70.86 54.84 70.16 C 57.65 67.46 60.29 64.58 63.18 61.97 C 66.43 60.73 71.40 63.35 73.62 59.75 C 74.16 55.10 73.61 50.39 73.93 45.72 C 71.60 45.68 69.27 45.67 66.94 45.68 C 66.88 39.85 66.89 34.03 66.95 28.20 C 57.99 28.13 49.03 28.17 40.07 28.18 M 77.82 28.00 C 77.86 39.55 77.80 51.10 77.85 62.65 C 76.03 62.55 74.68 63.44 73.93 65.06 C 76.32 69.01 78.63 73.02 81.00 76.98 C 83.41 73.01 85.69 68.96 88.12 65.00 C 87.16 63.65 85.82 62.71 84.14 62.57 C 84.21 51.05 84.14 39.53 84.18 28.00 C 82.06 28.00 79.94 28.00 77.82 28.00 Z" />
<path fill="#000000" opacity="1.00" d=" M 42.75 31.05 C 49.91 30.87 57.08 31.01 64.25 31.03 C 64.22 36.78 64.37 42.53 64.14 48.27 C 66.41 48.31 68.68 48.33 70.95 48.34 C 70.93 51.87 70.93 55.40 70.95 58.93 C 59.34 59.06 47.72 58.96 36.11 59.04 C 36.05 55.47 36.05 51.89 36.07 48.32 C 42.79 48.29 49.50 48.34 56.22 48.32 C 56.22 47.66 56.22 46.34 56.22 45.68 C 51.72 45.67 47.22 45.69 42.71 45.68 C 42.73 43.88 42.75 42.09 42.77 40.30 C 47.25 40.34 51.74 40.32 56.22 40.32 C 56.22 39.66 56.22 38.34 56.22 37.68 C 51.73 37.68 47.23 37.66 42.74 37.71 C 42.74 35.49 42.74 33.27 42.75 31.05 Z" />
<path fill="#000000" opacity="1.00" d=" M 79.36 31.07 C 80.45 31.06 81.55 31.06 82.65 31.09 C 82.53 42.54 82.60 54.00 82.58 65.45 C 83.58 65.45 84.58 65.45 85.58 65.45 C 84.05 68.03 82.53 70.61 81.00 73.19 C 79.47 70.60 77.93 68.01 76.42 65.41 C 77.42 65.43 78.41 65.45 79.41 65.47 C 79.41 54.00 79.46 42.53 79.36 31.07 Z" />
<path fill="#000000" opacity="1.00" d=" M 47.19 61.72 C 51.40 61.65 55.60 61.65 59.80 61.72 C 57.66 63.70 55.56 65.73 53.52 67.82 C 51.45 65.75 49.34 63.71 47.19 61.72 Z" />
</g>
<g id="#788cc0ff">
<path fill="#788cc0" opacity="1.00" d=" M 33.19 10.25 C 48.77 9.67 64.39 10.17 79.99 9.99 C 88.46 9.79 96.98 12.97 103.07 18.88 C 109.34 24.80 113.03 33.34 112.98 41.97 C 113.03 59.66 112.97 77.35 113.01 95.03 C 113.05 99.27 112.86 103.59 111.51 107.64 C 107.55 120.63 94.65 130.19 81.04 129.98 C 65.66 129.96 50.26 130.12 34.88 129.90 C 18.95 129.21 5.17 114.94 5.03 98.99 C 4.98 79.67 4.98 60.34 5.03 41.02 C 5.19 25.66 17.92 11.78 33.19 10.25 M 33.29 12.30 C 19.13 13.75 7.24 26.66 7.10 40.92 C 7.02 60.31 7.02 79.70 7.10 99.10 C 7.21 114.30 20.74 127.78 35.93 127.90 C 51.29 127.97 66.66 128.00 82.02 127.89 C 97.25 127.83 110.83 114.28 110.89 99.04 C 110.99 79.68 110.99 60.31 110.89 40.94 C 110.82 25.70 97.21 12.17 81.98 12.10 C 65.75 12.14 49.50 11.77 33.29 12.30 Z" />
</g>
<g id="#f8fcf8ff">
<path fill="#f8fcf8" opacity="1.00" d=" M 40.07 28.18 C 49.03 28.17 57.99 28.13 66.95 28.20 C 66.89 34.03 66.88 39.85 66.94 45.68 C 69.27 45.67 71.60 45.68 73.93 45.72 C 73.61 50.39 74.16 55.10 73.62 59.75 C 71.40 63.35 66.43 60.73 63.18 61.97 C 60.29 64.58 57.65 67.46 54.84 70.16 C 54.84 70.86 54.83 72.25 54.83 72.95 C 51.21 73.08 47.60 72.91 43.99 73.12 C 44.02 73.76 44.10 75.04 44.14 75.68 C 51.10 75.77 58.08 75.49 65.03 75.81 C 65.25 76.29 65.70 77.24 65.93 77.71 C 57.76 78.36 49.53 77.83 41.34 78.00 C 41.40 75.45 41.39 72.90 41.34 70.36 C 44.96 70.29 48.59 70.34 52.22 70.32 C 49.52 67.44 46.69 64.66 43.81 61.96 C 40.54 60.75 35.58 63.34 33.37 59.74 C 32.85 55.09 33.38 50.39 33.07 45.72 C 35.39 45.68 37.72 45.67 40.04 45.69 C 40.16 39.85 40.07 34.02 40.07 28.18 M 42.75 31.05 C 42.74 33.27 42.74 35.49 42.74 37.71 C 47.23 37.66 51.73 37.68 56.22 37.68 C 56.22 38.34 56.22 39.66 56.22 40.32 C 51.74 40.32 47.25 40.34 42.77 40.30 C 42.75 42.09 42.73 43.88 42.71 45.68 C 47.22 45.69 51.72 45.67 56.22 45.68 C 56.22 46.34 56.22 47.66 56.22 48.32 C 49.50 48.34 42.79 48.29 36.07 48.32 C 36.05 51.89 36.05 55.47 36.11 59.04 C 47.72 58.96 59.34 59.06 70.95 58.93 C 70.93 55.40 70.93 51.87 70.95 48.34 C 68.68 48.33 66.41 48.31 64.14 48.27 C 64.37 42.53 64.22 36.78 64.25 31.03 C 57.08 31.01 49.91 30.87 42.75 31.05 M 47.19 61.72 C 49.34 63.71 51.45 65.75 53.52 67.82 C 55.56 65.73 57.66 63.70 59.80 61.72 C 55.60 61.65 51.40 61.65 47.19 61.72 Z" />
<path fill="#f8fcf8" opacity="1.00" d=" M 77.82 28.00 C 79.94 28.00 82.06 28.00 84.18 28.00 C 84.14 39.53 84.21 51.05 84.14 62.57 C 85.82 62.71 87.16 63.65 88.12 65.00 C 85.69 68.96 83.41 73.01 81.00 76.98 C 78.63 73.02 76.32 69.01 73.93 65.06 C 74.68 63.44 76.03 62.55 77.85 62.65 C 77.80 51.10 77.86 39.55 77.82 28.00 M 79.36 31.07 C 79.46 42.53 79.41 54.00 79.41 65.47 C 78.41 65.45 77.42 65.43 76.42 65.41 C 77.93 68.01 79.47 70.60 81.00 73.19 C 82.53 70.61 84.05 68.03 85.58 65.45 C 84.58 65.45 83.58 65.45 82.58 65.45 C 82.60 54.00 82.53 42.54 82.65 31.09 C 81.55 31.06 80.45 31.06 79.36 31.07 Z" />
</g>
</svg>
