<?xml version="1.0" encoding="UTF-8" ?>
<!DOCTYPE svg PUBLIC "-//W3C//DTD SVG 1.1//EN" "http://www.w3.org/Graphics/SVG/1.1/DTD/svg11.dtd">
<svg width="150px" height="80px" viewBox="0 0 150 80" version="1.1" xmlns="http://www.w3.org/2000/svg">
<g id="#000000ff">
<path fill="#000000" opacity="1.00" d=" M 0.00 0.00 L 150.00 0.00 L 150.00 80.00 L 0.00 80.00 L 0.00 0.00 M 6.40 5.44 C 2.85 6.61 0.68 10.34 0.99 14.01 C 1.00 29.35 1.01 44.69 0.99 60.02 C 1.01 63.03 0.77 66.07 1.29 69.06 C 2.21 72.88 6.16 75.36 10.00 75.01 C 52.00 75.00 93.99 74.97 135.98 75.03 C 139.58 74.97 143.85 75.60 146.59 72.69 C 148.76 70.75 149.09 67.73 149.03 65.00 C 148.94 47.66 149.08 30.32 148.96 12.98 C 149.09 8.77 145.33 4.96 141.12 5.04 C 99.08 4.93 57.04 5.05 15.00 4.98 C 12.14 5.03 9.21 4.72 6.40 5.44 Z" />
<path fill="#000000" opacity="1.00" d=" M 7.19 7.31 C 10.10 6.76 13.08 7.04 16.03 7.00 C 57.35 7.01 98.68 6.99 140.01 7.00 C 144.53 6.36 147.81 10.74 147.03 14.98 C 146.97 31.97 147.01 48.97 147.01 65.96 C 147.28 68.82 145.73 71.90 142.84 72.70 C 139.58 73.29 136.24 72.93 132.95 73.00 C 92.98 73.02 53.01 72.96 13.04 73.03 C 10.23 72.94 6.88 73.50 4.74 71.24 C 3.03 69.64 2.99 67.17 2.97 65.00 C 3.04 48.01 2.98 31.01 3.00 14.02 C 2.75 11.18 4.27 8.06 7.19 7.31 M 42.00 28.00 C 42.00 35.33 42.00 42.67 42.00 50.00 C 49.00 50.00 56.00 50.00 63.00 50.00 C 63.00 42.67 63.00 35.33 63.00 28.00 C 56.00 28.00 49.00 28.00 42.00 28.00 Z" />
</g>
<g id="#6e726eff">
<path fill="#6e726e" opacity="1.00" d=" M 6.40 5.44 C 9.21 4.72 12.14 5.03 15.00 4.98 C 57.04 5.05 99.08 4.93 141.12 5.04 C 145.33 4.96 149.09 8.77 148.96 12.98 C 149.08 30.32 148.94 47.66 149.03 65.00 C 149.09 67.73 148.76 70.75 146.59 72.69 C 143.85 75.60 139.58 74.97 135.98 75.03 C 93.99 74.97 52.00 75.00 10.00 75.01 C 6.16 75.36 2.21 72.88 1.29 69.06 C 0.77 66.07 1.01 63.03 0.99 60.02 C 1.01 44.69 1.00 29.35 0.99 14.01 C 0.68 10.34 2.85 6.61 6.40 5.44 M 7.19 7.31 C 4.27 8.06 2.75 11.18 3.00 14.02 C 2.98 31.01 3.04 48.01 2.97 65.00 C 2.99 67.17 3.03 69.64 4.74 71.24 C 6.88 73.50 10.23 72.94 13.04 73.03 C 53.01 72.96 92.98 73.02 132.95 73.00 C 136.24 72.93 139.58 73.29 142.84 72.70 C 145.73 71.90 147.28 68.82 147.01 65.96 C 147.01 48.97 146.97 31.97 147.03 14.98 C 147.81 10.74 144.53 6.36 140.01 7.00 C 98.68 6.99 57.35 7.01 16.03 7.00 C 13.08 7.04 10.10 6.76 7.19 7.31 Z" />
</g>
<g id="#f8fcf8ff">
<path fill="#f8fcf8" opacity="1.00" d=" M 42.00 28.00 C 49.00 28.00 56.00 28.00 63.00 28.00 C 63.00 35.33 63.00 42.67 63.00 50.00 C 56.00 50.00 49.00 50.00 42.00 50.00 C 42.00 42.67 42.00 35.33 42.00 28.00 Z" />
</g>
</svg>
