<?xml version="1.0" encoding="UTF-8" ?>
<!DOCTYPE svg PUBLIC "-//W3C//DTD SVG 1.1//EN" "http://www.w3.org/Graphics/SVG/1.1/DTD/svg11.dtd">
<svg width="117px" height="140px" viewBox="0 0 117 140" version="1.1" xmlns="http://www.w3.org/2000/svg">
<g id="#000000ff">
<path fill="#000000" opacity="1.00" d=" M 0.00 0.00 L 117.00 0.00 L 117.00 140.00 L 0.00 140.00 L 0.00 0.00 M 33.11 10.23 C 17.89 11.82 5.19 25.63 5.02 40.95 C 4.98 60.29 4.99 79.64 5.01 98.98 C 5.14 114.95 18.95 129.25 34.91 129.93 C 50.27 130.10 65.64 129.95 81.00 130.00 C 92.58 130.13 103.85 123.33 109.20 113.09 C 111.90 108.22 113.14 102.61 113.02 97.06 C 112.98 78.69 113.01 60.33 113.01 41.96 C 113.06 33.34 109.36 24.80 103.10 18.89 C 97.02 12.96 88.47 9.75 80.00 9.98 C 64.37 10.17 48.73 9.69 33.11 10.23 Z" />
<path fill="#000000" opacity="1.00" d=" M 33.24 12.35 C 48.81 11.72 64.42 12.25 80.00 12.07 C 89.81 11.79 99.70 16.51 105.31 24.62 C 108.93 29.65 110.95 35.78 110.90 41.99 C 110.95 60.66 110.95 79.33 110.90 98.00 C 111.02 108.72 104.80 119.25 95.30 124.24 C 90.37 127.07 84.60 128.05 78.97 127.94 C 64.29 127.84 49.60 128.09 34.93 127.82 C 20.10 127.14 7.25 113.87 7.13 99.01 C 7.03 79.66 7.03 60.31 7.13 40.96 C 7.31 26.73 19.09 13.82 33.24 12.35 M 56.13 38.08 C 55.19 40.96 54.81 43.98 54.98 47.00 C 52.99 47.00 50.99 47.00 49.00 47.00 C 49.00 47.75 49.00 49.25 49.00 50.00 C 50.98 50.00 52.96 50.00 54.95 50.00 C 54.85 52.69 55.34 55.35 56.13 57.91 C 58.70 58.86 61.60 58.69 63.52 56.55 C 66.24 53.84 70.99 52.34 71.47 48.05 C 71.09 43.68 66.23 42.17 63.50 39.43 C 61.60 37.26 58.68 37.17 56.13 38.08 M 42.00 47.00 C 42.00 47.75 42.00 49.25 42.00 50.00 C 44.00 50.00 46.00 50.00 48.00 50.00 C 48.00 49.25 48.00 47.75 48.00 47.00 C 46.00 47.00 44.00 47.00 42.00 47.00 M 57.83 77.35 C 52.39 77.42 46.95 77.39 41.51 77.37 C 41.56 75.68 41.61 73.99 41.66 72.30 C 41.02 72.26 39.74 72.17 39.10 72.12 C 39.29 74.65 37.94 78.77 41.12 79.82 C 53.07 80.01 65.05 80.02 76.99 79.82 C 80.04 78.58 78.71 74.65 78.89 72.12 C 78.25 72.16 76.98 72.25 76.34 72.30 C 76.39 73.99 76.44 75.68 76.48 77.37 C 71.05 77.39 65.61 77.43 60.17 77.35 C 60.30 75.24 60.39 73.11 59.98 71.02 C 56.37 70.85 58.05 75.18 57.83 77.35 Z" />
<path fill="#000000" opacity="1.00" d=" M 60.00 41.81 C 62.67 43.86 65.33 45.93 67.99 48.00 C 65.33 50.07 62.67 52.14 60.00 54.19 C 60.00 50.06 60.00 45.94 60.00 41.81 Z" />
</g>
<g id="#717171ff">
<path fill="#717171" opacity="1.00" d=" M 33.11 10.23 C 48.73 9.69 64.37 10.17 80.00 9.98 C 88.47 9.75 97.02 12.96 103.10 18.89 C 109.36 24.80 113.06 33.34 113.01 41.96 C 113.01 60.33 112.98 78.69 113.02 97.06 C 113.14 102.61 111.90 108.22 109.20 113.09 C 103.85 123.33 92.58 130.13 81.00 130.00 C 65.64 129.95 50.27 130.10 34.91 129.93 C 18.95 129.25 5.14 114.95 5.01 98.98 C 4.99 79.64 4.98 60.29 5.02 40.95 C 5.19 25.63 17.89 11.82 33.11 10.23 M 33.24 12.35 C 19.09 13.82 7.31 26.73 7.13 40.96 C 7.03 60.31 7.03 79.66 7.13 99.01 C 7.25 113.87 20.10 127.14 34.93 127.82 C 49.60 128.09 64.29 127.84 78.97 127.94 C 84.60 128.05 90.37 127.07 95.30 124.24 C 104.80 119.25 111.02 108.72 110.90 98.00 C 110.95 79.33 110.95 60.66 110.90 41.99 C 110.95 35.78 108.93 29.65 105.31 24.62 C 99.70 16.51 89.81 11.79 80.00 12.07 C 64.42 12.25 48.81 11.72 33.24 12.35 Z" />
</g>
<g id="#f8fcf8ff">
<path fill="#f8fcf8" opacity="1.00" d=" M 56.13 38.08 C 58.68 37.17 61.60 37.26 63.50 39.43 C 66.23 42.17 71.09 43.68 71.47 48.05 C 70.99 52.34 66.24 53.84 63.52 56.55 C 61.60 58.69 58.70 58.86 56.13 57.91 C 55.34 55.35 54.85 52.69 54.95 50.00 C 52.96 50.00 50.98 50.00 49.00 50.00 C 49.00 49.25 49.00 47.75 49.00 47.00 C 50.99 47.00 52.99 47.00 54.98 47.00 C 54.81 43.98 55.19 40.96 56.13 38.08 M 60.00 41.81 C 60.00 45.94 60.00 50.06 60.00 54.19 C 62.67 52.14 65.33 50.07 67.99 48.00 C 65.33 45.93 62.67 43.86 60.00 41.81 Z" />
<path fill="#f8fcf8" opacity="1.00" d=" M 42.00 47.00 C 44.00 47.00 46.00 47.00 48.00 47.00 C 48.00 47.75 48.00 49.25 48.00 50.00 C 46.00 50.00 44.00 50.00 42.00 50.00 C 42.00 49.25 42.00 47.75 42.00 47.00 Z" />
<path fill="#f8fcf8" opacity="1.00" d=" M 57.83 77.35 C 58.05 75.18 56.37 70.85 59.98 71.02 C 60.39 73.11 60.30 75.24 60.17 77.35 C 65.61 77.43 71.05 77.39 76.48 77.37 C 76.44 75.68 76.39 73.99 76.34 72.30 C 76.98 72.25 78.25 72.16 78.89 72.12 C 78.71 74.65 80.04 78.58 76.99 79.82 C 65.05 80.02 53.07 80.01 41.12 79.82 C 37.94 78.77 39.29 74.65 39.10 72.12 C 39.74 72.17 41.02 72.26 41.66 72.30 C 41.61 73.99 41.56 75.68 41.51 77.37 C 46.95 77.39 52.39 77.42 57.83 77.35 Z" />
</g>
</svg>
