<?xml version="1.0" encoding="UTF-8" ?>
<!DOCTYPE svg PUBLIC "-//W3C//DTD SVG 1.1//EN" "http://www.w3.org/Graphics/SVG/1.1/DTD/svg11.dtd">
<svg width="117px" height="140px" viewBox="0 0 117 140" version="1.1" xmlns="http://www.w3.org/2000/svg">
<g id="#000000ff">
<path fill="#000000" opacity="1.00" d=" M 0.00 0.00 L 117.00 0.00 L 117.00 140.00 L 0.00 140.00 L 0.00 0.00 M 33.16 10.22 C 17.95 11.78 5.21 25.57 5.02 40.89 C 5.01 60.60 4.92 80.32 5.07 100.03 C 5.70 116.00 19.99 129.83 35.97 129.99 C 51.67 129.97 67.39 130.10 83.09 129.92 C 99.03 129.26 112.86 115.00 112.97 99.03 C 112.99 79.36 113.08 59.67 112.93 40.00 C 112.32 24.03 98.05 10.19 82.08 10.02 C 65.78 10.11 49.45 9.73 33.16 10.22 Z" />
<path fill="#000000" opacity="1.00" d=" M 33.20 12.25 C 49.46 11.71 65.76 12.10 82.04 12.04 C 97.27 12.19 110.83 25.69 110.96 40.93 C 111.06 59.64 110.97 78.34 111.00 97.05 C 111.95 113.37 97.38 128.44 81.03 127.98 C 65.99 128.00 50.94 128.04 35.90 127.96 C 20.66 127.79 7.13 114.22 7.03 98.98 C 6.98 79.65 6.98 60.32 7.03 40.99 C 7.19 26.71 19.02 13.80 33.20 12.25 M 39.16 31.97 C 36.88 35.05 38.31 38.97 39.49 42.19 C 41.77 48.29 43.04 54.87 46.51 60.46 C 47.91 62.84 51.23 64.85 53.54 62.21 C 54.97 65.30 56.03 68.58 57.74 71.54 C 59.09 73.40 60.86 74.91 62.33 76.66 C 69.80 69.03 77.57 61.68 84.91 53.93 C 81.15 50.00 76.89 46.30 71.38 45.21 C 71.64 44.40 72.15 42.77 72.41 41.96 C 69.91 38.55 66.51 35.75 62.45 34.44 C 57.51 32.77 52.61 31.02 47.63 29.48 C 44.67 28.92 40.82 28.98 39.16 31.97 Z" />
<path fill="#000000" opacity="1.00" d=" M 40.94 36.00 C 40.41 33.50 43.16 32.47 44.94 31.58 C 49.27 33.13 53.60 34.76 58.06 35.82 C 61.42 37.72 65.57 37.85 68.28 40.88 C 68.50 41.30 68.96 42.13 69.19 42.55 C 67.93 43.81 66.67 45.09 65.44 46.38 C 70.87 48.21 77.04 49.06 81.02 53.61 C 74.92 60.02 68.45 66.07 62.37 72.50 C 58.01 68.34 57.17 62.08 55.15 56.68 C 53.70 58.06 52.26 59.47 50.82 60.87 C 47.64 58.06 46.54 53.87 45.19 50.02 C 43.90 45.31 41.70 40.82 40.94 36.00 Z" />
</g>
<g id="#6a6e6aff">
<path fill="#6a6e6a" opacity="1.00" d=" M 33.16 10.22 C 49.45 9.73 65.78 10.11 82.08 10.02 C 98.05 10.19 112.32 24.03 112.93 40.00 C 113.08 59.67 112.99 79.36 112.97 99.03 C 112.86 115.00 99.03 129.26 83.09 129.92 C 67.39 130.10 51.67 129.97 35.97 129.99 C 19.99 129.83 5.70 116.00 5.07 100.03 C 4.92 80.32 5.01 60.60 5.02 40.89 C 5.21 25.57 17.95 11.78 33.16 10.22 M 33.20 12.25 C 19.02 13.80 7.19 26.71 7.03 40.99 C 6.98 60.32 6.98 79.65 7.03 98.98 C 7.13 114.22 20.66 127.79 35.90 127.96 C 50.94 128.04 65.99 128.00 81.03 127.98 C 97.38 128.44 111.95 113.37 111.00 97.05 C 110.97 78.34 111.06 59.64 110.96 40.93 C 110.83 25.69 97.27 12.19 82.04 12.04 C 65.76 12.10 49.46 11.71 33.20 12.25 Z" />
</g>
<g id="#f8fcf8ff">
<path fill="#f8fcf8" opacity="1.00" d=" M 39.16 31.97 C 40.82 28.98 44.67 28.92 47.63 29.48 C 52.61 31.02 57.51 32.77 62.45 34.44 C 66.51 35.75 69.91 38.55 72.41 41.96 C 72.15 42.77 71.64 44.40 71.38 45.21 C 76.89 46.30 81.15 50.00 84.91 53.93 C 77.57 61.68 69.80 69.03 62.33 76.66 C 60.86 74.91 59.09 73.40 57.74 71.54 C 56.03 68.58 54.97 65.30 53.54 62.21 C 51.23 64.85 47.91 62.84 46.51 60.46 C 43.04 54.87 41.77 48.29 39.49 42.19 C 38.31 38.97 36.88 35.05 39.16 31.97 M 40.94 36.00 C 41.70 40.82 43.90 45.31 45.19 50.02 C 46.54 53.87 47.64 58.06 50.82 60.87 C 52.26 59.47 53.70 58.06 55.15 56.68 C 57.17 62.08 58.01 68.34 62.37 72.50 C 68.45 66.07 74.92 60.02 81.02 53.61 C 77.04 49.06 70.87 48.21 65.44 46.38 C 66.67 45.09 67.93 43.81 69.19 42.55 C 68.96 42.13 68.50 41.30 68.28 40.88 C 65.57 37.85 61.42 37.72 58.06 35.82 C 53.60 34.76 49.27 33.13 44.94 31.58 C 43.16 32.47 40.41 33.50 40.94 36.00 Z" />
</g>
</svg>
