<?xml version="1.0" encoding="UTF-8" ?>
<!DOCTYPE svg PUBLIC "-//W3C//DTD SVG 1.1//EN" "http://www.w3.org/Graphics/SVG/1.1/DTD/svg11.dtd">
<svg width="117px" height="140px" viewBox="0 0 117 140" version="1.1" xmlns="http://www.w3.org/2000/svg">
<g id="#000000ff">
<path fill="#000000" opacity="1.00" d=" M 0.00 0.00 L 117.00 0.00 L 117.00 140.00 L 0.00 140.00 L 0.00 0.00 M 32.50 10.20 C 28.11 11.14 23.73 12.44 19.95 14.94 C 10.79 20.62 4.90 31.19 4.99 41.98 C 5.06 61.35 4.89 80.72 5.07 100.08 C 5.75 116.01 19.97 129.81 35.92 129.97 C 51.63 129.99 67.34 130.09 83.05 129.92 C 98.98 129.27 112.83 115.03 112.97 99.07 C 113.05 80.05 112.98 61.03 113.00 42.01 C 113.07 32.64 108.70 23.40 101.49 17.43 C 95.55 12.43 87.75 9.80 80.00 9.98 C 64.17 10.14 48.33 9.74 32.50 10.20 Z" />
<path fill="#000000" opacity="1.00" d=" M 18.97 17.86 C 24.02 14.54 29.80 12.06 35.93 12.05 C 51.29 11.96 66.64 11.97 82.00 12.05 C 91.06 12.14 99.54 16.97 105.12 23.96 C 108.48 29.02 110.97 34.83 110.94 41.00 C 111.04 60.34 111.04 79.69 110.94 99.03 C 110.87 113.90 97.95 127.28 83.10 127.88 C 67.73 128.15 52.36 127.94 36.99 127.98 C 30.49 128.13 24.29 125.70 18.97 122.13 C 12.00 116.55 7.13 108.10 7.04 99.05 C 6.97 79.69 6.97 60.34 7.04 40.99 C 7.12 31.92 12.01 23.46 18.97 17.86 M 52.27 28.28 C 42.49 30.27 34.12 37.93 31.53 47.60 C 29.96 54.16 30.34 61.40 33.51 67.45 C 38.09 76.34 47.88 82.65 58.01 82.04 C 72.59 82.94 85.97 69.58 85.38 55.02 C 85.74 44.09 78.47 33.65 68.36 29.72 C 63.31 27.52 57.63 27.70 52.27 28.28 Z" />
<path fill="#000000" opacity="1.00" d=" M 51.76 31.01 C 52.44 31.00 53.79 30.98 54.47 30.97 C 54.71 32.52 55.26 33.99 55.95 35.40 C 57.97 33.10 60.72 30.72 63.99 30.99 C 65.88 31.49 67.65 32.36 69.42 33.16 C 69.63 35.17 70.81 36.38 72.87 35.80 L 71.41 36.60 C 72.84 36.58 74.22 36.84 75.54 37.38 C 73.61 37.34 71.29 36.86 71.51 39.57 C 70.56 38.28 69.55 37.03 68.59 35.76 C 68.16 36.59 67.73 37.43 67.30 38.27 L 67.99 38.20 L 68.04 38.33 C 70.56 38.21 70.79 40.93 71.86 42.57 C 71.14 42.50 69.71 42.37 69.00 42.30 C 69.60 43.57 69.57 45.39 71.21 45.90 C 72.26 44.86 73.13 43.66 74.11 42.56 C 75.26 42.97 76.40 43.38 77.54 43.81 C 77.50 44.12 77.41 44.75 77.36 45.06 C 79.72 45.13 81.44 46.70 82.56 48.64 C 81.89 48.53 80.54 48.32 79.87 48.22 C 77.87 48.67 76.35 47.04 75.63 45.36 C 74.09 45.59 72.53 45.78 71.03 46.20 C 69.42 48.94 66.65 51.55 67.53 55.01 C 67.38 57.09 69.31 58.44 70.29 60.06 C 71.69 59.88 73.10 59.69 74.50 59.49 C 74.93 59.76 75.78 60.32 76.21 60.60 C 76.57 65.53 74.34 69.96 72.48 74.37 C 72.11 75.32 71.44 75.97 70.48 76.33 C 69.49 76.81 68.50 77.31 67.52 77.83 C 65.16 78.73 62.57 78.87 60.27 79.93 C 58.31 79.99 56.28 80.20 54.43 79.40 C 53.12 78.91 51.09 78.81 51.84 76.86 C 52.94 75.04 54.18 73.31 55.23 71.45 C 58.26 70.10 58.32 66.40 60.08 63.95 C 58.07 63.20 56.03 62.50 53.99 61.83 C 51.20 57.88 45.47 55.31 40.93 57.89 C 40.34 56.54 39.74 55.19 39.01 53.91 C 39.05 53.36 39.14 52.26 39.19 51.71 C 38.43 52.55 37.66 53.38 36.87 54.19 C 36.11 52.51 36.38 50.71 36.67 48.96 C 37.66 48.75 39.63 48.34 40.61 48.13 C 40.71 49.33 40.76 50.53 40.77 51.73 C 41.01 52.19 41.50 53.10 41.74 53.56 C 43.63 53.73 45.53 53.81 47.43 53.89 C 45.43 53.22 43.45 52.55 41.40 52.06 C 41.38 50.66 41.39 49.26 41.43 47.86 C 42.09 47.14 42.75 46.42 43.40 45.70 C 44.82 43.34 46.93 41.38 49.84 41.35 C 49.40 40.99 48.52 40.29 48.08 39.94 C 48.83 39.62 50.34 38.98 51.10 38.67 C 51.53 39.69 52.05 40.66 52.66 41.59 C 52.60 39.26 51.63 37.15 50.68 35.08 C 50.41 35.21 49.88 35.47 49.61 35.59 C 49.19 35.04 48.36 33.92 47.94 33.36 C 46.88 35.24 45.80 37.10 44.72 38.97 C 44.24 37.79 43.76 36.62 43.26 35.45 C 45.12 33.84 47.58 33.15 49.64 31.84 C 49.55 32.53 49.37 33.92 49.28 34.61 C 50.45 33.89 51.61 33.16 52.77 32.42 L 51.76 31.01 M 62.19 32.55 C 61.24 33.92 63.58 35.29 64.47 34.00 C 65.45 32.60 63.09 31.38 62.19 32.55 Z" />
<path fill="#000000" opacity="1.00" d=" M 33.01 50.54 C 33.92 54.47 38.00 55.26 40.33 58.04 C 40.90 58.18 42.05 58.45 42.62 58.59 C 42.29 60.09 42.00 61.59 41.75 63.10 C 42.47 65.77 44.74 67.57 46.69 69.36 C 47.77 72.40 48.40 75.63 50.14 78.41 C 48.86 77.88 47.61 77.32 46.34 76.80 C 41.13 73.75 36.83 69.02 34.60 63.37 C 34.11 61.69 33.78 59.95 33.10 58.33 C 32.98 55.73 32.98 53.13 33.01 50.54 Z" />
</g>
<g id="#727272ff">
<path fill="#727272" opacity="1.00" d=" M 32.50 10.20 C 48.33 9.74 64.17 10.14 80.00 9.98 C 87.75 9.80 95.55 12.43 101.49 17.43 C 108.70 23.40 113.07 32.64 113.00 42.01 C 112.98 61.03 113.05 80.05 112.97 99.07 C 112.83 115.03 98.98 129.27 83.05 129.92 C 67.34 130.09 51.63 129.99 35.92 129.97 C 19.97 129.81 5.75 116.01 5.07 100.08 C 4.89 80.72 5.06 61.35 4.99 41.98 C 4.90 31.19 10.79 20.62 19.95 14.94 C 23.73 12.44 28.11 11.14 32.50 10.20 M 18.97 17.86 C 12.01 23.46 7.12 31.92 7.04 40.99 C 6.97 60.34 6.97 79.69 7.04 99.05 C 7.13 108.10 12.00 116.55 18.97 122.13 C 24.29 125.70 30.49 128.13 36.99 127.98 C 52.36 127.94 67.73 128.15 83.10 127.88 C 97.95 127.28 110.87 113.90 110.94 99.03 C 111.04 79.69 111.04 60.34 110.94 41.00 C 110.97 34.83 108.48 29.02 105.12 23.96 C 99.54 16.97 91.06 12.14 82.00 12.05 C 66.64 11.97 51.29 11.96 35.93 12.05 C 29.80 12.06 24.02 14.54 18.97 17.86 Z" />
</g>
<g id="#f8fcf8ff">
<path fill="#f8fcf8" opacity="1.00" d=" M 52.27 28.28 C 57.63 27.70 63.31 27.52 68.36 29.72 C 78.47 33.65 85.74 44.09 85.38 55.02 C 85.97 69.58 72.59 82.94 58.01 82.04 C 47.88 82.65 38.09 76.34 33.51 67.45 C 30.34 61.40 29.96 54.16 31.53 47.60 C 34.12 37.93 42.49 30.27 52.27 28.28 M 51.76 31.01 L 52.77 32.42 C 51.61 33.16 50.45 33.89 49.28 34.61 C 49.37 33.92 49.55 32.53 49.64 31.84 C 47.58 33.15 45.12 33.84 43.26 35.45 C 43.76 36.62 44.24 37.79 44.72 38.97 C 45.80 37.10 46.88 35.24 47.94 33.36 C 48.36 33.92 49.19 35.04 49.61 35.59 C 49.88 35.47 50.41 35.21 50.68 35.08 C 51.63 37.15 52.60 39.26 52.66 41.59 C 52.05 40.66 51.53 39.69 51.10 38.67 C 50.34 38.98 48.83 39.62 48.08 39.94 C 48.52 40.29 49.40 40.99 49.84 41.35 C 46.93 41.38 44.82 43.34 43.40 45.70 C 42.75 46.42 42.09 47.14 41.43 47.86 C 41.39 49.26 41.38 50.66 41.40 52.06 C 43.45 52.55 45.43 53.22 47.43 53.89 C 45.53 53.81 43.63 53.73 41.74 53.56 C 41.50 53.10 41.01 52.19 40.77 51.73 C 40.76 50.53 40.71 49.33 40.61 48.13 C 39.63 48.34 37.66 48.75 36.67 48.96 C 36.38 50.71 36.11 52.51 36.87 54.19 C 37.66 53.38 38.43 52.55 39.19 51.71 C 39.14 52.26 39.05 53.36 39.01 53.91 C 39.74 55.19 40.34 56.54 40.93 57.89 C 45.47 55.31 51.20 57.88 53.99 61.83 C 56.03 62.50 58.07 63.20 60.08 63.95 C 58.32 66.40 58.26 70.10 55.23 71.45 C 54.18 73.31 52.94 75.04 51.84 76.86 C 51.09 78.81 53.12 78.91 54.43 79.40 C 56.28 80.20 58.31 79.99 60.27 79.93 C 62.57 78.87 65.16 78.73 67.52 77.83 C 68.50 77.31 69.49 76.81 70.48 76.33 C 71.44 75.97 72.11 75.32 72.48 74.37 C 74.34 69.96 76.57 65.53 76.21 60.60 C 75.78 60.32 74.93 59.76 74.50 59.49 C 73.10 59.69 71.69 59.88 70.29 60.06 C 69.31 58.44 67.38 57.09 67.53 55.01 C 66.65 51.55 69.42 48.94 71.03 46.20 C 72.53 45.78 74.09 45.59 75.63 45.36 C 76.35 47.04 77.87 48.67 79.87 48.22 C 80.54 48.32 81.89 48.53 82.56 48.64 C 81.44 46.70 79.72 45.13 77.36 45.06 C 77.41 44.75 77.50 44.12 77.54 43.81 C 76.40 43.38 75.26 42.97 74.11 42.56 C 73.13 43.66 72.26 44.86 71.21 45.90 C 69.57 45.39 69.60 43.57 69.00 42.30 C 69.71 42.37 71.14 42.50 71.86 42.57 C 70.79 40.93 70.56 38.21 68.04 38.33 L 67.99 38.20 L 67.30 38.27 C 67.73 37.43 68.16 36.59 68.59 35.76 C 69.55 37.03 70.56 38.28 71.51 39.57 C 71.29 36.86 73.61 37.34 75.54 37.38 C 74.22 36.84 72.84 36.58 71.41 36.60 L 72.87 35.80 C 70.81 36.38 69.63 35.17 69.42 33.16 C 67.65 32.36 65.88 31.49 63.99 30.99 C 60.72 30.72 57.97 33.10 55.95 35.40 C 55.26 33.99 54.71 32.52 54.47 30.97 C 53.79 30.98 52.44 31.00 51.76 31.01 M 33.01 50.54 C 32.98 53.13 32.98 55.73 33.10 58.33 C 33.78 59.95 34.11 61.69 34.60 63.37 C 36.83 69.02 41.13 73.75 46.34 76.80 C 47.61 77.32 48.86 77.88 50.14 78.41 C 48.40 75.63 47.77 72.40 46.69 69.36 C 44.74 67.57 42.47 65.77 41.75 63.10 C 42.00 61.59 42.29 60.09 42.62 58.59 C 42.05 58.45 40.90 58.18 40.33 58.04 C 38.00 55.26 33.92 54.47 33.01 50.54 Z" />
<path fill="#f8fcf8" opacity="1.00" d=" M 62.19 32.55 C 63.09 31.38 65.45 32.60 64.47 34.00 C 63.58 35.29 61.24 33.92 62.19 32.55 Z" />
</g>
</svg>
