<?xml version="1.0" encoding="UTF-8" ?>
<!DOCTYPE svg PUBLIC "-//W3C//DTD SVG 1.1//EN" "http://www.w3.org/Graphics/SVG/1.1/DTD/svg11.dtd">
<svg width="117px" height="140px" viewBox="0 0 117 140" version="1.1" xmlns="http://www.w3.org/2000/svg">
<g id="#000000ff">
<path fill="#000000" opacity="1.00" d=" M 0.00 0.00 L 117.00 0.00 L 117.00 140.00 L 0.00 140.00 L 0.00 0.00 M 33.09 10.22 C 17.86 11.82 5.17 25.66 5.01 40.99 C 5.02 60.66 4.93 80.34 5.05 100.01 C 5.69 115.65 19.39 129.32 35.03 129.94 C 50.68 130.07 66.34 129.99 81.99 129.98 C 98.00 129.88 112.33 115.98 112.94 99.98 C 113.09 80.65 112.95 61.30 113.01 41.97 C 113.07 33.32 109.35 24.76 103.06 18.83 C 96.97 12.94 88.45 9.74 79.99 9.98 C 64.36 10.17 48.71 9.69 33.09 10.22 Z" />
<path fill="#000000" opacity="1.00" d=" M 30.51 12.71 C 33.96 11.92 37.53 11.98 41.06 12.00 C 55.04 12.06 69.01 11.89 82.99 12.09 C 97.88 12.73 110.85 26.06 110.96 40.99 C 111.02 60.34 111.03 79.69 110.96 99.05 C 110.83 114.28 97.31 127.80 82.08 127.95 C 66.71 128.04 51.35 128.01 35.98 127.97 C 20.71 127.82 7.14 114.27 7.03 99.00 C 6.98 79.66 6.98 60.33 7.03 40.99 C 7.21 27.66 17.49 15.42 30.51 12.71 M 41.53 41.41 C 38.81 44.14 34.00 45.65 33.53 49.97 C 33.94 54.31 38.75 55.82 41.46 58.54 C 43.38 60.68 46.31 60.88 48.88 59.91 C 49.65 57.34 50.16 54.69 50.05 52.00 C 52.03 52.00 54.02 52.00 56.00 52.00 C 56.00 51.25 56.00 49.75 56.00 49.00 C 54.00 49.00 52.01 49.00 50.01 49.00 C 50.19 45.98 49.81 42.95 48.87 40.08 C 46.33 39.17 43.42 39.26 41.53 41.41 M 67.99 41.24 C 68.01 47.09 68.00 52.93 67.99 58.77 C 69.59 59.40 71.10 60.57 72.87 60.57 C 75.27 60.11 76.86 58.06 78.80 56.76 C 81.05 54.87 84.38 53.33 84.47 49.97 C 84.34 46.63 81.03 45.12 78.79 43.24 C 76.65 41.87 74.90 39.26 72.10 39.45 C 70.67 39.89 69.33 40.57 67.99 41.24 M 57.00 49.00 C 57.00 49.75 57.00 51.25 57.00 52.00 C 57.75 52.00 59.25 52.00 60.00 52.00 C 60.00 51.25 60.00 49.75 60.00 49.00 C 59.25 49.00 57.75 49.00 57.00 49.00 M 61.00 49.00 C 61.00 49.75 61.00 51.25 61.00 52.00 C 63.00 52.00 65.00 52.00 67.00 52.00 C 67.00 51.25 67.00 49.75 67.00 49.00 C 65.00 49.00 63.00 49.00 61.00 49.00 Z" />
<path fill="#000000" opacity="1.00" d=" M 37.01 50.00 C 39.93 47.69 42.96 45.52 45.73 43.03 C 46.31 47.65 45.87 52.32 45.98 56.97 C 42.99 54.64 40.00 52.33 37.01 50.00 Z" />
<path fill="#000000" opacity="1.00" d=" M 71.99 43.09 C 75.06 45.30 77.99 47.70 80.99 50.00 C 78.00 52.33 75.01 54.64 72.02 56.97 C 71.98 52.34 72.01 47.71 71.99 43.09 Z" />
</g>
<g id="#7185b5ff">
<path fill="#7185b5" opacity="1.00" d=" M 33.09 10.22 C 48.71 9.69 64.36 10.17 79.99 9.98 C 88.45 9.74 96.97 12.94 103.06 18.83 C 109.35 24.76 113.07 33.32 113.01 41.97 C 112.95 61.30 113.09 80.65 112.94 99.98 C 112.33 115.98 98.00 129.88 81.99 129.98 C 66.34 129.99 50.68 130.07 35.03 129.94 C 19.39 129.32 5.69 115.65 5.05 100.01 C 4.93 80.34 5.02 60.66 5.01 40.99 C 5.17 25.66 17.86 11.82 33.09 10.22 M 30.51 12.71 C 17.49 15.42 7.21 27.66 7.03 40.99 C 6.98 60.33 6.98 79.66 7.03 99.00 C 7.14 114.27 20.71 127.82 35.98 127.97 C 51.35 128.01 66.71 128.04 82.08 127.95 C 97.31 127.80 110.83 114.28 110.96 99.05 C 111.03 79.69 111.02 60.34 110.96 40.99 C 110.85 26.06 97.88 12.73 82.99 12.09 C 69.01 11.89 55.04 12.06 41.06 12.00 C 37.53 11.98 33.96 11.92 30.51 12.71 Z" />
</g>
<g id="#f8fcf8ff">
<path fill="#f8fcf8" opacity="1.00" d=" M 41.53 41.41 C 43.42 39.26 46.33 39.17 48.87 40.08 C 49.81 42.95 50.19 45.98 50.01 49.00 C 52.01 49.00 54.00 49.00 56.00 49.00 C 56.00 49.75 56.00 51.25 56.00 52.00 C 54.02 52.00 52.03 52.00 50.05 52.00 C 50.16 54.69 49.65 57.34 48.88 59.91 C 46.31 60.88 43.38 60.68 41.46 58.54 C 38.75 55.82 33.94 54.31 33.53 49.97 C 34.00 45.65 38.81 44.14 41.53 41.41 M 37.01 50.00 C 40.00 52.33 42.99 54.64 45.98 56.97 C 45.87 52.32 46.31 47.65 45.73 43.03 C 42.96 45.52 39.93 47.69 37.01 50.00 Z" />
<path fill="#f8fcf8" opacity="1.00" d=" M 67.99 41.24 C 69.33 40.57 70.67 39.89 72.10 39.45 C 74.90 39.26 76.65 41.87 78.79 43.24 C 81.03 45.12 84.34 46.63 84.47 49.97 C 84.38 53.33 81.05 54.87 78.80 56.76 C 76.86 58.06 75.27 60.11 72.87 60.57 C 71.10 60.57 69.59 59.40 67.99 58.77 C 68.00 52.93 68.01 47.09 67.99 41.24 M 71.99 43.09 C 72.01 47.71 71.98 52.34 72.02 56.97 C 75.01 54.64 78.00 52.33 80.99 50.00 C 77.99 47.70 75.06 45.30 71.99 43.09 Z" />
<path fill="#f8fcf8" opacity="1.00" d=" M 57.00 49.00 C 57.75 49.00 59.25 49.00 60.00 49.00 C 60.00 49.75 60.00 51.25 60.00 52.00 C 59.25 52.00 57.75 52.00 57.00 52.00 C 57.00 51.25 57.00 49.75 57.00 49.00 Z" />
<path fill="#f8fcf8" opacity="1.00" d=" M 61.00 49.00 C 63.00 49.00 65.00 49.00 67.00 49.00 C 67.00 49.75 67.00 51.25 67.00 52.00 C 65.00 52.00 63.00 52.00 61.00 52.00 C 61.00 51.25 61.00 49.75 61.00 49.00 Z" />
</g>
</svg>
