<?xml version="1.0" encoding="UTF-8" ?>
<!DOCTYPE svg PUBLIC "-//W3C//DTD SVG 1.1//EN" "http://www.w3.org/Graphics/SVG/1.1/DTD/svg11.dtd">
<svg width="117px" height="140px" viewBox="0 0 117 140" version="1.1" xmlns="http://www.w3.org/2000/svg">
<g id="#000000ff">
<path fill="#000000" opacity="1.00" d=" M 0.00 0.00 L 117.00 0.00 L 117.00 140.00 L 0.00 140.00 L 0.00 0.00 M 33.24 10.21 C 17.95 11.74 5.17 25.62 5.02 41.00 C 4.98 60.33 4.99 79.66 5.02 98.99 C 5.14 114.96 18.97 129.27 34.93 129.93 C 50.62 130.08 66.32 129.99 82.01 129.97 C 98.00 129.85 112.31 115.98 112.93 100.01 C 113.10 80.68 112.95 61.35 113.01 42.03 C 113.22 28.90 104.36 16.33 92.02 11.96 C 85.00 9.18 77.36 10.17 70.00 10.00 C 57.75 10.14 45.48 9.71 33.24 10.21 Z" />
<path fill="#000000" opacity="1.00" d=" M 30.51 12.69 C 33.97 11.92 37.54 11.98 41.07 12.00 C 55.08 12.07 69.09 11.88 83.09 12.09 C 97.94 12.77 110.83 26.07 110.96 40.94 C 111.04 59.96 110.99 78.98 110.99 98.00 C 111.42 113.63 97.66 127.87 82.02 127.95 C 66.68 128.05 51.33 128.01 35.99 127.96 C 20.74 127.84 7.17 114.33 7.03 99.07 C 6.98 79.70 6.98 60.32 7.03 40.94 C 7.23 27.62 17.51 15.40 30.51 12.69 M 54.64 37.66 C 48.41 41.76 42.20 45.90 36.00 50.05 C 33.99 50.97 34.40 53.92 36.27 54.80 C 42.42 59.01 48.69 63.03 54.85 67.23 C 56.04 68.06 58.06 68.37 59.10 67.19 C 59.99 64.22 59.35 61.06 59.90 58.03 C 64.66 58.38 69.54 59.66 73.20 62.87 C 75.67 64.63 77.11 67.38 79.02 69.67 C 80.00 63.24 78.47 56.05 73.33 51.70 C 69.83 47.87 64.59 46.79 59.67 46.17 C 59.60 43.39 59.78 40.59 59.32 37.84 C 58.36 35.98 56.01 36.72 54.64 37.66 Z" />
</g>
<g id="#717271ff">
<path fill="#717271" opacity="1.00" d=" M 33.24 10.21 C 45.48 9.71 57.75 10.14 70.00 10.00 C 77.36 10.17 85.00 9.18 92.02 11.96 C 104.36 16.33 113.22 28.90 113.01 42.03 C 112.95 61.35 113.10 80.68 112.93 100.01 C 112.31 115.98 98.00 129.85 82.01 129.97 C 66.32 129.99 50.62 130.08 34.93 129.93 C 18.97 129.27 5.14 114.96 5.02 98.99 C 4.99 79.66 4.98 60.33 5.02 41.00 C 5.17 25.62 17.95 11.74 33.24 10.21 M 30.51 12.69 C 17.51 15.40 7.23 27.62 7.03 40.94 C 6.98 60.32 6.98 79.70 7.03 99.07 C 7.17 114.33 20.74 127.84 35.99 127.96 C 51.33 128.01 66.68 128.05 82.02 127.95 C 97.66 127.87 111.42 113.63 110.99 98.00 C 110.99 78.98 111.04 59.96 110.96 40.94 C 110.83 26.07 97.94 12.77 83.09 12.09 C 69.09 11.88 55.08 12.07 41.07 12.00 C 37.54 11.98 33.97 11.92 30.51 12.69 Z" />
</g>
<g id="#e86010ff">
<path fill="#e86010" opacity="1.00" d=" M 54.64 37.66 C 56.01 36.72 58.36 35.98 59.32 37.84 C 59.78 40.59 59.60 43.39 59.67 46.17 C 64.59 46.79 69.83 47.87 73.33 51.70 C 78.47 56.05 80.00 63.24 79.02 69.67 C 77.11 67.38 75.67 64.63 73.20 62.87 C 69.54 59.66 64.66 58.38 59.90 58.03 C 59.35 61.06 59.99 64.22 59.10 67.19 C 58.06 68.37 56.04 68.06 54.85 67.23 C 48.69 63.03 42.42 59.01 36.27 54.80 C 34.40 53.92 33.99 50.97 36.00 50.05 C 42.20 45.90 48.41 41.76 54.64 37.66 Z" />
</g>
</svg>
