<?xml version="1.0" encoding="UTF-8" ?>
<!DOCTYPE svg PUBLIC "-//W3C//DTD SVG 1.1//EN" "http://www.w3.org/Graphics/SVG/1.1/DTD/svg11.dtd">
<svg width="117px" height="140px" viewBox="0 0 117 140" version="1.1" xmlns="http://www.w3.org/2000/svg">
<g id="#000000ff">
<path fill="#000000" opacity="1.00" d=" M 0.00 0.00 L 117.00 0.00 L 117.00 140.00 L 0.00 140.00 L 0.00 0.00 M 32.19 10.21 C 16.95 11.77 4.19 25.59 4.02 40.94 C 3.97 59.96 4.02 78.97 3.99 97.99 C 3.89 108.05 8.98 117.93 17.11 123.83 C 22.83 128.04 29.97 130.23 37.07 130.02 C 52.10 129.91 67.13 130.13 82.16 129.92 C 97.72 129.22 111.32 115.59 111.93 100.01 C 112.10 80.67 111.95 61.32 112.00 41.97 C 112.10 31.92 107.00 22.06 98.89 16.17 C 93.19 11.98 86.09 9.79 79.03 9.98 C 63.42 10.16 47.79 9.71 32.19 10.21 Z" />
<path fill="#000000" opacity="1.00" d=" M 32.17 12.25 C 48.44 11.70 64.74 12.11 81.03 12.04 C 96.30 12.18 109.89 25.76 109.96 41.04 C 110.02 60.38 110.03 79.72 109.96 99.06 C 109.84 114.28 96.29 127.82 81.07 127.95 C 65.71 128.05 50.34 128.01 34.98 127.97 C 19.72 127.83 6.15 114.28 6.03 99.02 C 5.98 79.67 5.98 60.32 6.03 40.98 C 6.20 26.71 18.01 13.81 32.17 12.25 M 41.60 42.00 C 41.59 50.67 41.59 59.33 41.60 68.00 C 44.40 68.00 47.20 68.00 50.00 68.00 C 50.00 64.94 50.00 61.88 50.01 58.83 C 53.22 58.82 56.44 58.82 59.66 58.82 C 59.61 56.73 59.60 54.64 59.51 52.55 C 56.35 52.59 53.20 52.60 50.05 52.64 C 50.05 51.20 50.06 49.77 50.09 48.33 C 54.01 48.44 57.93 48.45 61.85 48.33 C 61.84 46.23 61.83 44.13 61.83 42.02 C 55.09 41.98 48.34 42.01 41.60 42.00 M 64.62 49.17 C 64.56 55.45 64.60 61.73 64.60 68.01 C 67.29 68.00 69.97 68.01 72.66 67.93 C 72.73 64.68 72.19 61.32 73.01 58.14 C 74.11 56.01 76.58 55.97 78.66 55.81 C 78.66 53.24 78.62 50.68 78.37 48.12 C 75.75 48.37 73.49 49.66 71.84 51.69 C 71.81 51.06 71.74 49.78 71.71 49.15 C 69.35 49.17 66.99 49.17 64.62 49.17 Z" />
</g>
<g id="#6a6e6aff">
<path fill="#6a6e6a" opacity="1.00" d=" M 32.19 10.21 C 47.79 9.71 63.42 10.16 79.03 9.98 C 86.09 9.79 93.19 11.98 98.89 16.17 C 107.00 22.06 112.10 31.92 112.00 41.97 C 111.95 61.32 112.10 80.67 111.93 100.01 C 111.32 115.59 97.72 129.22 82.16 129.92 C 67.13 130.13 52.10 129.91 37.07 130.02 C 29.97 130.23 22.83 128.04 17.11 123.83 C 8.98 117.93 3.89 108.05 3.99 97.99 C 4.02 78.97 3.97 59.96 4.02 40.94 C 4.19 25.59 16.95 11.77 32.19 10.21 M 32.17 12.25 C 18.01 13.81 6.20 26.71 6.03 40.98 C 5.98 60.32 5.98 79.67 6.03 99.02 C 6.15 114.28 19.72 127.83 34.98 127.97 C 50.34 128.01 65.71 128.05 81.07 127.95 C 96.29 127.82 109.84 114.28 109.96 99.06 C 110.03 79.72 110.02 60.38 109.96 41.04 C 109.89 25.76 96.30 12.18 81.03 12.04 C 64.74 12.11 48.44 11.70 32.17 12.25 Z" />
</g>
<g id="#e86010ff">
<path fill="#e86010" opacity="1.00" d=" M 41.60 42.00 C 48.34 42.01 55.09 41.98 61.83 42.02 C 61.83 44.13 61.84 46.23 61.85 48.33 C 57.93 48.45 54.01 48.44 50.09 48.33 C 50.06 49.77 50.05 51.20 50.05 52.64 C 53.20 52.60 56.35 52.59 59.51 52.55 C 59.60 54.64 59.61 56.73 59.66 58.82 C 56.44 58.82 53.22 58.82 50.01 58.83 C 50.00 61.88 50.00 64.94 50.00 68.00 C 47.20 68.00 44.40 68.00 41.60 68.00 C 41.59 59.33 41.59 50.67 41.60 42.00 Z" />
<path fill="#e86010" opacity="1.00" d=" M 64.62 49.17 C 66.99 49.17 69.35 49.17 71.71 49.15 C 71.74 49.78 71.81 51.06 71.84 51.69 C 73.49 49.66 75.75 48.37 78.37 48.12 C 78.62 50.68 78.66 53.24 78.66 55.81 C 76.58 55.97 74.11 56.01 73.01 58.14 C 72.19 61.32 72.73 64.68 72.66 67.93 C 69.97 68.01 67.29 68.00 64.60 68.01 C 64.60 61.73 64.56 55.45 64.62 49.17 Z" />
</g>
</svg>
