<?xml version="1.0" encoding="UTF-8" ?>
<!DOCTYPE svg PUBLIC "-//W3C//DTD SVG 1.1//EN" "http://www.w3.org/Graphics/SVG/1.1/DTD/svg11.dtd">
<svg width="117px" height="140px" viewBox="0 0 117 140" version="1.1" xmlns="http://www.w3.org/2000/svg">
<g id="#000000ff">
<path fill="#000000" opacity="1.00" d=" M 0.00 0.00 L 117.00 0.00 L 117.00 140.00 L 0.00 140.00 L 0.00 0.00 M 33.17 10.22 C 17.93 11.78 5.21 25.59 5.02 40.92 C 4.96 59.94 5.03 78.96 4.99 97.99 C 4.92 106.85 8.84 115.62 15.39 121.58 C 21.45 127.21 29.76 130.25 38.01 130.02 C 53.04 129.92 68.07 130.12 83.09 129.92 C 99.02 129.25 112.85 114.98 112.98 99.03 C 113.04 80.03 112.98 61.02 113.00 42.02 C 113.07 33.38 109.37 24.81 103.10 18.88 C 97.02 12.97 88.50 9.76 80.04 9.98 C 64.42 10.17 48.77 9.69 33.17 10.22 Z" />
<path fill="#000000" opacity="1.00" d=" M 30.46 12.70 C 34.56 11.78 38.79 12.02 42.96 12.00 C 56.31 12.06 69.66 11.89 83.01 12.08 C 97.90 12.72 110.85 26.06 110.96 40.98 C 111.02 60.34 111.03 79.70 110.96 99.05 C 110.87 114.68 96.63 128.39 81.02 127.98 C 65.66 127.97 50.29 128.10 34.93 127.91 C 20.07 127.25 7.16 113.93 7.03 99.04 C 6.98 79.71 6.98 60.38 7.03 41.04 C 7.17 27.70 17.44 15.45 30.46 12.70 M 49.81 27.95 C 49.86 37.54 49.82 47.14 49.84 56.74 C 47.13 59.16 44.80 62.28 44.63 66.05 C 43.59 72.91 49.03 80.14 56.09 80.42 C 62.04 81.08 67.67 76.58 69.09 70.91 C 70.81 65.71 68.20 60.09 64.16 56.74 C 64.18 47.15 64.14 37.55 64.19 27.96 C 59.45 27.30 54.56 27.31 49.81 27.95 M 68.30 51.03 C 67.93 51.52 67.19 52.51 66.82 53.00 C 67.19 53.48 67.92 54.43 68.29 54.91 C 69.77 54.85 71.29 55.05 72.73 54.62 C 73.74 53.53 73.74 52.43 72.75 51.31 C 71.30 50.90 69.78 51.08 68.30 51.03 Z" />
<path fill="#000000" opacity="1.00" d=" M 53.35 31.23 C 55.77 31.27 58.20 31.27 60.62 31.21 C 60.15 40.36 60.58 49.54 60.38 58.71 C 66.58 61.59 67.77 71.20 62.05 75.13 C 57.64 78.44 50.40 76.31 48.84 70.93 C 46.94 66.35 49.33 60.93 53.62 58.70 C 53.40 49.54 53.89 40.37 53.35 31.23 M 55.16 51.13 C 54.93 54.09 55.27 57.06 55.06 60.02 C 52.79 61.81 49.73 63.64 49.85 66.96 C 49.33 70.24 51.79 72.94 54.39 74.50 C 59.08 76.72 64.73 71.88 64.17 66.99 C 64.22 63.74 61.34 61.61 58.83 60.11 C 58.86 57.12 59.04 54.12 58.84 51.13 C 57.61 50.17 56.39 50.17 55.16 51.13 Z" />
</g>
<g id="#717271ff">
<path fill="#717271" opacity="1.00" d=" M 33.17 10.22 C 48.77 9.69 64.42 10.17 80.04 9.98 C 88.50 9.76 97.02 12.97 103.10 18.88 C 109.37 24.81 113.07 33.38 113.00 42.02 C 112.98 61.02 113.04 80.03 112.98 99.03 C 112.85 114.98 99.02 129.25 83.09 129.92 C 68.07 130.12 53.04 129.92 38.01 130.02 C 29.76 130.25 21.45 127.21 15.39 121.58 C 8.84 115.62 4.92 106.85 4.99 97.99 C 5.03 78.96 4.96 59.94 5.02 40.92 C 5.21 25.59 17.93 11.78 33.17 10.22 M 30.46 12.70 C 17.44 15.45 7.17 27.70 7.03 41.04 C 6.98 60.38 6.98 79.71 7.03 99.04 C 7.16 113.93 20.07 127.25 34.93 127.91 C 50.29 128.10 65.66 127.97 81.02 127.98 C 96.63 128.39 110.87 114.68 110.96 99.05 C 111.03 79.70 111.02 60.34 110.96 40.98 C 110.85 26.06 97.90 12.72 83.01 12.08 C 69.66 11.89 56.31 12.06 42.96 12.00 C 38.79 12.02 34.56 11.78 30.46 12.70 Z" />
</g>
<g id="#f8fcf8ff">
<path fill="#f8fcf8" opacity="1.00" d=" M 49.81 27.95 C 54.56 27.31 59.45 27.30 64.19 27.96 C 64.14 37.55 64.18 47.15 64.16 56.74 C 68.20 60.09 70.81 65.71 69.09 70.91 C 67.67 76.58 62.04 81.08 56.09 80.42 C 49.03 80.14 43.59 72.91 44.63 66.05 C 44.80 62.28 47.13 59.16 49.84 56.74 C 49.82 47.14 49.86 37.54 49.81 27.95 M 53.35 31.23 C 53.89 40.37 53.40 49.54 53.62 58.70 C 49.33 60.93 46.94 66.35 48.84 70.93 C 50.40 76.31 57.64 78.44 62.05 75.13 C 67.77 71.20 66.58 61.59 60.38 58.71 C 60.58 49.54 60.15 40.36 60.62 31.21 C 58.20 31.27 55.77 31.27 53.35 31.23 Z" />
<path fill="#f8fcf8" opacity="1.00" d=" M 55.16 51.13 C 56.39 50.17 57.61 50.17 58.84 51.13 C 59.04 54.12 58.86 57.12 58.83 60.11 C 61.34 61.61 64.22 63.74 64.17 66.99 C 64.73 71.88 59.08 76.72 54.39 74.50 C 51.79 72.94 49.33 70.24 49.85 66.96 C 49.73 63.64 52.79 61.81 55.06 60.02 C 55.27 57.06 54.93 54.09 55.16 51.13 Z" />
<path fill="#f8fcf8" opacity="1.00" d=" M 68.30 51.03 C 69.78 51.08 71.30 50.90 72.75 51.31 C 73.74 52.43 73.74 53.53 72.73 54.62 C 71.29 55.05 69.77 54.85 68.29 54.91 C 67.92 54.43 67.19 53.48 66.82 53.00 C 67.19 52.51 67.93 51.52 68.30 51.03 Z" />
</g>
</svg>
