<?xml version="1.0" encoding="UTF-8" ?>
<!DOCTYPE svg PUBLIC "-//W3C//DTD SVG 1.1//EN" "http://www.w3.org/Graphics/SVG/1.1/DTD/svg11.dtd">
<svg width="150px" height="80px" viewBox="0 0 150 80" version="1.1" xmlns="http://www.w3.org/2000/svg">
<g id="#000000ff">
<path fill="#000000" opacity="1.00" d=" M 0.00 0.00 L 150.00 0.00 L 150.00 80.00 L 0.00 80.00 L 0.00 0.00 M 6.39 5.44 C 2.84 6.63 0.64 10.38 0.98 14.06 C 1.04 31.73 0.95 49.41 1.03 67.08 C 0.94 71.26 4.69 75.03 8.88 74.97 C 52.58 75.05 96.29 74.96 139.99 75.02 C 144.57 75.53 149.14 71.71 148.96 67.01 C 149.04 48.97 149.01 30.92 148.97 12.88 C 149.04 8.69 145.26 4.95 141.07 5.03 C 97.38 4.95 53.69 5.04 10.00 4.98 C 8.77 4.96 7.57 5.11 6.39 5.44 Z" />
<path fill="#000000" opacity="1.00" d=" M 7.18 7.31 C 10.05 6.73 13.01 7.07 15.92 7.00 C 56.25 6.99 96.59 7.03 136.93 6.98 C 139.54 7.08 142.52 6.56 144.73 8.29 C 146.48 9.57 147.08 11.86 147.01 13.94 C 146.97 31.66 147.05 49.39 146.97 67.11 C 147.07 70.73 143.48 73.47 140.01 73.01 C 96.32 72.96 52.63 73.04 8.95 72.97 C 5.76 73.07 2.96 70.23 3.04 67.05 C 2.94 49.39 3.04 31.71 2.99 14.05 C 2.73 11.19 4.27 8.09 7.18 7.31 M 42.00 28.99 C 42.08 36.30 41.86 43.62 42.08 50.92 C 42.99 52.68 45.33 51.99 46.89 51.76 C 48.04 50.84 47.64 49.28 47.74 48.02 C 47.68 41.69 47.69 35.35 47.74 29.02 C 45.82 29.03 43.91 28.99 42.00 28.99 M 53.00 28.98 C 51.44 32.08 52.11 35.62 52.00 38.95 C 52.09 42.59 51.79 46.24 52.13 49.86 C 52.29 50.67 53.14 52.33 54.11 51.32 C 58.33 47.86 62.16 43.94 65.95 40.02 C 62.06 35.89 57.52 32.40 53.00 28.98 Z" />
</g>
<g id="#6e726eff">
<path fill="#6e726e" opacity="1.00" d=" M 6.39 5.44 C 7.57 5.11 8.77 4.96 10.00 4.98 C 53.69 5.04 97.38 4.95 141.07 5.03 C 145.26 4.95 149.04 8.69 148.97 12.88 C 149.01 30.92 149.04 48.97 148.96 67.01 C 149.14 71.71 144.57 75.53 139.99 75.02 C 96.29 74.96 52.58 75.05 8.88 74.97 C 4.69 75.03 0.94 71.26 1.03 67.08 C 0.95 49.41 1.04 31.73 0.98 14.06 C 0.64 10.38 2.84 6.63 6.39 5.44 M 7.18 7.31 C 4.27 8.09 2.73 11.19 2.99 14.05 C 3.04 31.71 2.94 49.39 3.04 67.05 C 2.96 70.23 5.76 73.07 8.95 72.97 C 52.63 73.04 96.32 72.96 140.01 73.01 C 143.48 73.47 147.07 70.73 146.97 67.11 C 147.05 49.39 146.97 31.66 147.01 13.94 C 147.08 11.86 146.48 9.57 144.73 8.29 C 142.52 6.56 139.54 7.08 136.93 6.98 C 96.59 7.03 56.25 6.99 15.92 7.00 C 13.01 7.07 10.05 6.73 7.18 7.31 Z" />
</g>
<g id="#f8fcf8ff">
<path fill="#f8fcf8" opacity="1.00" d=" M 42.00 28.99 C 43.91 28.99 45.82 29.03 47.74 29.02 C 47.69 35.35 47.68 41.69 47.74 48.02 C 47.64 49.28 48.04 50.84 46.89 51.76 C 45.33 51.99 42.99 52.68 42.08 50.92 C 41.86 43.62 42.08 36.30 42.00 28.99 Z" />
<path fill="#f8fcf8" opacity="1.00" d=" M 53.00 28.98 C 57.52 32.40 62.06 35.89 65.95 40.02 C 62.16 43.94 58.33 47.86 54.11 51.32 C 53.14 52.33 52.29 50.67 52.13 49.86 C 51.79 46.24 52.09 42.59 52.00 38.95 C 52.11 35.62 51.44 32.08 53.00 28.98 Z" />
</g>
</svg>
