<?xml version="1.0" encoding="UTF-8" ?>
<!DOCTYPE svg PUBLIC "-//W3C//DTD SVG 1.1//EN" "http://www.w3.org/Graphics/SVG/1.1/DTD/svg11.dtd">
<svg width="117pt" height="140pt" viewBox="0 0 117 140" version="1.1" xmlns="http://www.w3.org/2000/svg">
<g id="#384450ff">
<path fill="#384450" opacity="1.00" d=" M 0.00 0.00 L 117.00 0.00 L 117.00 140.00 L 0.00 140.00 L 0.00 0.00 M 41.21 53.16 C 38.97 54.32 38.57 57.82 40.60 59.36 C 42.23 61.11 45.31 60.72 46.48 58.63 C 49.20 55.56 44.36 50.63 41.21 53.16 M 56.49 53.48 C 54.58 54.95 54.55 58.02 56.47 59.49 C 58.89 62.08 63.47 59.34 62.94 56.04 C 62.65 53.09 58.67 51.23 56.49 53.48 M 72.40 53.40 C 71.35 54.29 70.38 55.66 70.80 57.11 C 71.30 60.39 75.99 61.74 77.91 58.81 C 80.85 55.57 75.57 50.29 72.40 53.40 Z" />
</g>
<g id="#f8fcf8ff">
<path fill="#f8fcf8" opacity="1.00" d=" M 41.21 53.16 C 44.36 50.63 49.20 55.56 46.48 58.63 C 45.31 60.72 42.23 61.11 40.60 59.36 C 38.57 57.82 38.97 54.32 41.21 53.16 Z" />
<path fill="#f8fcf8" opacity="1.00" d=" M 56.49 53.48 C 58.67 51.23 62.65 53.09 62.94 56.04 C 63.47 59.34 58.89 62.08 56.47 59.49 C 54.55 58.02 54.58 54.95 56.49 53.48 Z" />
<path fill="#f8fcf8" opacity="1.00" d=" M 72.40 53.40 C 75.57 50.29 80.85 55.57 77.91 58.81 C 75.99 61.74 71.30 60.39 70.80 57.11 C 70.38 55.66 71.35 54.29 72.40 53.40 Z" />
</g>
</svg>
