<?xml version="1.0" encoding="UTF-8" ?>
<!DOCTYPE svg PUBLIC "-//W3C//DTD SVG 1.1//EN" "http://www.w3.org/Graphics/SVG/1.1/DTD/svg11.dtd">
<svg width="117px" height="140px" viewBox="0 0 117 140" version="1.1" xmlns="http://www.w3.org/2000/svg">
<g id="#000000ff">
<path fill="#000000" opacity="1.00" d=" M 0.00 0.00 L 117.00 0.00 L 117.00 140.00 L 0.00 140.00 L 0.00 0.00 M 33.19 10.22 C 17.94 11.77 5.20 25.60 5.02 40.94 C 4.99 60.31 4.99 79.68 5.02 99.04 C 5.17 115.01 19.01 129.28 34.97 129.93 C 50.63 130.08 66.31 129.99 81.97 129.98 C 97.95 129.87 112.26 116.04 112.93 100.08 C 113.10 80.72 112.95 61.35 113.00 41.99 C 113.06 33.36 109.37 24.81 103.11 18.89 C 97.02 12.97 88.48 9.76 80.01 9.98 C 64.40 10.17 48.78 9.70 33.19 10.22 Z" />
<path fill="#000000" opacity="1.00" d=" M 30.46 12.71 C 33.60 11.98 36.85 11.97 40.06 11.99 C 54.38 12.07 68.70 11.88 83.02 12.08 C 97.91 12.73 110.86 26.08 110.97 41.00 C 111.02 60.35 111.03 79.70 110.96 99.05 C 110.85 114.28 97.31 127.82 82.07 127.95 C 66.71 128.05 51.35 128.01 35.99 127.97 C 20.73 127.84 7.16 114.31 7.03 99.05 C 6.98 79.69 6.98 60.32 7.03 40.96 C 7.22 27.65 17.47 15.43 30.46 12.71 M 37.96 42.07 C 35.13 44.96 30.03 46.49 29.53 51.02 C 30.09 55.53 35.16 57.07 38.01 59.97 C 40.13 62.34 43.32 61.21 46.00 60.88 C 46.00 58.25 46.00 55.63 46.00 53.00 C 48.00 53.00 50.00 53.00 52.00 53.00 C 52.00 52.25 52.00 50.75 52.00 50.00 C 50.00 50.00 48.00 50.00 46.00 50.00 C 46.00 47.04 45.99 44.07 46.00 41.11 C 43.31 40.78 40.07 39.63 37.96 42.07 M 70.99 41.11 C 71.01 44.07 70.99 47.04 71.00 50.00 C 68.67 50.00 66.33 50.00 64.00 50.00 C 64.00 50.75 64.00 52.25 64.00 53.00 C 66.33 53.00 68.67 53.00 71.00 53.00 C 70.99 55.63 71.01 58.25 70.99 60.88 C 73.11 61.42 75.68 62.12 77.47 60.36 C 80.15 58.09 83.21 56.26 85.63 53.69 C 87.40 51.14 86.01 47.82 83.54 46.35 C 79.72 43.82 76.17 38.67 70.99 41.11 M 53.00 50.00 C 53.00 50.75 53.00 52.25 53.00 53.00 C 53.75 53.00 55.25 53.00 56.00 53.00 C 56.00 52.25 56.00 50.75 56.00 50.00 C 55.25 50.00 53.75 50.00 53.00 50.00 M 57.00 50.00 C 57.00 50.75 57.00 52.25 57.00 53.00 C 59.00 53.00 61.00 53.00 63.00 53.00 C 63.00 52.25 63.00 50.75 63.00 50.00 C 61.00 50.00 59.00 50.00 57.00 50.00 Z" />
<path fill="#000000" opacity="1.00" d=" M 33.01 51.00 C 36.00 48.67 39.01 46.35 42.00 44.01 C 42.00 48.66 42.01 53.31 41.99 57.97 C 38.99 55.64 36.00 53.33 33.01 51.00 Z" />
<path fill="#000000" opacity="1.00" d=" M 75.00 44.81 C 77.67 46.86 80.33 48.93 82.99 51.00 C 80.33 53.07 77.67 55.14 75.00 57.19 C 75.00 53.06 75.00 48.94 75.00 44.81 Z" />
</g>
<g id="#717271ff">
<path fill="#717271" opacity="1.00" d=" M 33.19 10.22 C 48.78 9.70 64.40 10.17 80.01 9.98 C 88.48 9.76 97.02 12.97 103.11 18.89 C 109.37 24.81 113.06 33.36 113.00 41.99 C 112.95 61.35 113.10 80.72 112.93 100.08 C 112.26 116.04 97.95 129.87 81.97 129.98 C 66.31 129.99 50.63 130.08 34.97 129.93 C 19.01 129.28 5.17 115.01 5.02 99.04 C 4.99 79.68 4.99 60.31 5.02 40.94 C 5.20 25.60 17.94 11.77 33.19 10.22 M 30.46 12.71 C 17.47 15.43 7.22 27.65 7.03 40.96 C 6.98 60.32 6.98 79.69 7.03 99.05 C 7.16 114.31 20.73 127.84 35.99 127.97 C 51.35 128.01 66.71 128.05 82.07 127.95 C 97.31 127.82 110.85 114.28 110.96 99.05 C 111.03 79.70 111.02 60.35 110.97 41.00 C 110.86 26.08 97.91 12.73 83.02 12.08 C 68.70 11.88 54.38 12.07 40.06 11.99 C 36.85 11.97 33.60 11.98 30.46 12.71 Z" />
</g>
<g id="#f8fcf8ff">
<path fill="#f8fcf8" opacity="1.00" d=" M 37.96 42.07 C 40.07 39.63 43.31 40.78 46.00 41.11 C 45.99 44.07 46.00 47.04 46.00 50.00 C 48.00 50.00 50.00 50.00 52.00 50.00 C 52.00 50.75 52.00 52.25 52.00 53.00 C 50.00 53.00 48.00 53.00 46.00 53.00 C 46.00 55.63 46.00 58.25 46.00 60.88 C 43.32 61.21 40.13 62.34 38.01 59.97 C 35.16 57.07 30.09 55.53 29.53 51.02 C 30.03 46.49 35.13 44.96 37.96 42.07 M 33.01 51.00 C 36.00 53.33 38.99 55.64 41.99 57.97 C 42.01 53.31 42.00 48.66 42.00 44.01 C 39.01 46.35 36.00 48.67 33.01 51.00 Z" />
<path fill="#f8fcf8" opacity="1.00" d=" M 70.99 41.11 C 76.17 38.67 79.72 43.82 83.54 46.35 C 86.01 47.82 87.40 51.14 85.63 53.69 C 83.21 56.26 80.15 58.09 77.47 60.36 C 75.68 62.12 73.11 61.42 70.99 60.88 C 71.01 58.25 70.99 55.63 71.00 53.00 C 68.67 53.00 66.33 53.00 64.00 53.00 C 64.00 52.25 64.00 50.75 64.00 50.00 C 66.33 50.00 68.67 50.00 71.00 50.00 C 70.99 47.04 71.01 44.07 70.99 41.11 M 75.00 44.81 C 75.00 48.94 75.00 53.06 75.00 57.19 C 77.67 55.14 80.33 53.07 82.99 51.00 C 80.33 48.93 77.67 46.86 75.00 44.81 Z" />
<path fill="#f8fcf8" opacity="1.00" d=" M 53.00 50.00 C 53.75 50.00 55.25 50.00 56.00 50.00 C 56.00 50.75 56.00 52.25 56.00 53.00 C 55.25 53.00 53.75 53.00 53.00 53.00 C 53.00 52.25 53.00 50.75 53.00 50.00 Z" />
<path fill="#f8fcf8" opacity="1.00" d=" M 57.00 50.00 C 59.00 50.00 61.00 50.00 63.00 50.00 C 63.00 50.75 63.00 52.25 63.00 53.00 C 61.00 53.00 59.00 53.00 57.00 53.00 C 57.00 52.25 57.00 50.75 57.00 50.00 Z" />
</g>
</svg>
